o [4B] 3D Diagram - S2-07 Group A_44
v 315.000000 315.000000 157.423417
v 320.807806 315.000000 140.000000
v 320.232652 317.519912 140.000000
v 318.621108 319.540725 140.000000
v 316.292358 320.662192 140.000000
v 313.707642 320.662192 140.000000
v 311.378892 319.540725 140.000000
v 309.767348 317.519912 140.000000
v 309.192194 315.000000 140.000000
v 309.767348 312.480088 140.000000
v 311.378892 310.459275 140.000000
v 313.707642 309.337808 140.000000
v 316.292358 309.337808 140.000000
v 318.621108 310.459275 140.000000
v 320.232652 312.480088 140.000000
v 315.000000 315.000000 140.000000
f 1 2 3
f 1 3 4
f 1 4 5
f 1 5 6
f 1 6 7
f 1 7 8
f 1 8 9
f 1 9 10
f 1 10 11
f 1 11 12
f 1 12 13
f 1 13 14
f 1 14 15
f 1 15 2
f 16 3 2
f 16 4 3
f 16 5 4
f 16 6 5
f 16 7 6
f 16 8 7
f 16 9 8
f 16 10 9
f 16 11 10
f 16 12 11
f 16 13 12
f 16 14 13
f 16 15 14
f 16 2 15
