o [4B] 3D Diagram - S2-07 Group A_130
v -320.000000 -375.000000 47.423417
v -314.192194 -375.000000 30.000000
v -314.767348 -372.480088 30.000000
v -316.378892 -370.459275 30.000000
v -318.707642 -369.337808 30.000000
v -321.292358 -369.337808 30.000000
v -323.621108 -370.459275 30.000000
v -325.232652 -372.480088 30.000000
v -325.807806 -375.000000 30.000000
v -325.232652 -377.519912 30.000000
v -323.621108 -379.540725 30.000000
v -321.292358 -380.662192 30.000000
v -318.707642 -380.662192 30.000000
v -316.378892 -379.540725 30.000000
v -314.767348 -377.519912 30.000000
v -320.000000 -375.000000 30.000000
f 1 2 3
f 1 3 4
f 1 4 5
f 1 5 6
f 1 6 7
f 1 7 8
f 1 8 9
f 1 9 10
f 1 10 11
f 1 11 12
f 1 12 13
f 1 13 14
f 1 14 15
f 1 15 2
f 16 3 2
f 16 4 3
f 16 5 4
f 16 6 5
f 16 7 6
f 16 8 7
f 16 9 8
f 16 10 9
f 16 11 10
f 16 12 11
f 16 13 12
f 16 14 13
f 16 15 14
f 16 2 15
