o [4B] 3D Diagram - S2-05 Group F_8
v 5.000000 -5.000000 103.477306
v 6.159102 -5.000000 100.000000
v 6.044315 -4.497085 100.000000
v 5.722688 -4.093778 100.000000
v 5.257924 -3.869959 100.000000
v 4.742076 -3.869959 100.000000
v 4.277312 -4.093778 100.000000
v 3.955685 -4.497085 100.000000
v 3.840898 -5.000000 100.000000
v 3.955685 -5.502915 100.000000
v 4.277312 -5.906222 100.000000
v 4.742076 -6.130041 100.000000
v 5.257924 -6.130041 100.000000
v 5.722688 -5.906222 100.000000
v 6.044315 -5.502915 100.000000
v 5.000000 -5.000000 100.000000
f 1 2 3
f 1 3 4
f 1 4 5
f 1 5 6
f 1 6 7
f 1 7 8
f 1 8 9
f 1 9 10
f 1 10 11
f 1 11 12
f 1 12 13
f 1 13 14
f 1 14 15
f 1 15 2
f 16 3 2
f 16 4 3
f 16 5 4
f 16 6 5
f 16 7 6
f 16 8 7
f 16 9 8
f 16 10 9
f 16 11 10
f 16 12 11
f 16 13 12
f 16 14 13
f 16 15 14
f 16 2 15
