o [4B] 3D Diagram - S2-01 Group B_35
v 20.000000 20.000000 3.003827
v 21.001276 20.000000 0.000000
v 20.902118 20.434437 0.000000
v 20.624285 20.782829 0.000000
v 20.222805 20.976172 0.000000
v 19.777195 20.976172 0.000000
v 19.375715 20.782829 0.000000
v 19.097882 20.434437 0.000000
v 18.998724 20.000000 0.000000
v 19.097882 19.565563 0.000000
v 19.375715 19.217171 0.000000
v 19.777195 19.023828 0.000000
v 20.222805 19.023828 0.000000
v 20.624285 19.217171 0.000000
v 20.902118 19.565563 0.000000
v 20.000000 20.000000 0.000000
f 1 2 3
f 1 3 4
f 1 4 5
f 1 5 6
f 1 6 7
f 1 7 8
f 1 8 9
f 1 9 10
f 1 10 11
f 1 11 12
f 1 12 13
f 1 13 14
f 1 14 15
f 1 15 2
f 16 3 2
f 16 4 3
f 16 5 4
f 16 6 5
f 16 7 6
f 16 8 7
f 16 9 8
f 16 10 9
f 16 11 10
f 16 12 11
f 16 13 12
f 16 14 13
f 16 15 14
f 16 2 15
