o [4B] 3D Diagram - S2-02 Group C_210
v 1.983750 -2.712500 3.985000
v 1.983750 -2.646250 3.985000
v 1.983750 -2.646250 4.027500
v 1.983750 -2.712500 4.027500
v 2.050000 -2.712500 3.985000
v 2.050000 -2.712500 4.027500
v 2.050000 -2.646250 4.027500
v 2.050000 -2.646250 3.985000
v 1.983750 -2.646250 4.070000
v 1.983750 -2.712500 4.070000
v 2.050000 -2.712500 4.070000
v 2.050000 -2.646250 4.070000
v 1.983750 -2.646250 4.112500
v 1.983750 -2.712500 4.112500
v 2.050000 -2.712500 4.112500
v 2.050000 -2.646250 4.112500
v 1.983750 -2.646250 4.155000
v 1.983750 -2.712500 4.155000
v 2.050000 -2.712500 4.155000
v 2.050000 -2.646250 4.155000
v 1.983750 -2.580000 3.985000
v 1.983750 -2.580000 4.027500
v 2.050000 -2.580000 3.985000
v 1.983750 -2.580000 4.070000
v 1.983750 -2.580000 4.112500
v 1.983750 -2.580000 4.155000
v 2.050000 -2.580000 4.155000
v 1.983750 -2.513750 3.985000
v 1.983750 -2.513750 4.027500
v 2.050000 -2.513750 3.985000
v 1.983750 -2.513750 4.070000
v 1.983750 -2.513750 4.112500
v 1.983750 -2.513750 4.155000
v 2.050000 -2.513750 4.155000
v 1.983750 -2.447500 3.985000
v 1.983750 -2.447500 4.027500
v 2.050000 -2.447500 4.027500
v 2.050000 -2.447500 3.985000
v 1.983750 -2.447500 4.070000
v 2.050000 -2.447500 4.070000
v 1.983750 -2.447500 4.112500
v 2.050000 -2.447500 4.112500
v 1.983750 -2.447500 4.155000
v 2.050000 -2.447500 4.155000
v 2.116250 -2.646250 3.985000
v 2.116250 -2.646250 4.027500
v 2.116250 -2.580000 4.027500
v 2.116250 -2.580000 3.985000
v 2.116250 -2.646250 4.070000
v 2.116250 -2.580000 4.070000
v 2.116250 -2.646250 4.112500
v 2.116250 -2.580000 4.112500
v 2.116250 -2.646250 4.155000
v 2.116250 -2.580000 4.155000
v 2.116250 -2.513750 3.985000
v 2.116250 -2.513750 4.155000
v 2.116250 -2.447500 3.985000
v 2.116250 -2.447500 4.155000
v 2.050000 -2.381250 3.985000
v 2.050000 -2.381250 4.027500
v 2.116250 -2.381250 4.027500
v 2.116250 -2.381250 3.985000
v 2.050000 -2.381250 4.070000
v 2.116250 -2.381250 4.070000
v 2.050000 -2.381250 4.112500
v 2.116250 -2.381250 4.112500
v 2.050000 -2.381250 4.155000
v 2.116250 -2.381250 4.155000
v 2.182500 -2.580000 3.985000
v 2.182500 -2.580000 4.027500
v 2.182500 -2.513750 4.027500
v 2.182500 -2.513750 3.985000
v 2.182500 -2.580000 4.070000
v 2.182500 -2.513750 4.070000
v 2.182500 -2.580000 4.112500
v 2.182500 -2.513750 4.112500
v 2.182500 -2.580000 4.155000
v 2.182500 -2.513750 4.155000
v 2.182500 -2.447500 3.985000
v 2.182500 -2.447500 4.155000
v 2.182500 -2.381250 3.985000
v 2.182500 -2.381250 4.155000
v 2.116250 -2.315000 3.985000
v 2.116250 -2.315000 4.027500
v 2.182500 -2.315000 4.027500
v 2.182500 -2.315000 3.985000
v 2.116250 -2.315000 4.070000
v 2.182500 -2.315000 4.070000
v 2.116250 -2.315000 4.112500
v 2.182500 -2.315000 4.112500
v 2.116250 -2.315000 4.155000
v 2.182500 -2.315000 4.155000
v 2.248750 -2.513750 3.985000
v 2.248750 -2.513750 4.027500
v 2.248750 -2.447500 4.027500
v 2.248750 -2.447500 3.985000
v 2.248750 -2.513750 4.070000
v 2.248750 -2.447500 4.070000
v 2.248750 -2.513750 4.112500
v 2.248750 -2.447500 4.112500
v 2.248750 -2.513750 4.155000
v 2.248750 -2.447500 4.155000
v 2.248750 -2.381250 3.985000
v 2.248750 -2.381250 4.155000
v 2.248750 -2.315000 3.985000
v 2.248750 -2.315000 4.155000
v 2.182500 -2.248750 3.985000
v 2.182500 -2.248750 4.027500
v 2.248750 -2.248750 4.027500
v 2.248750 -2.248750 3.985000
v 2.182500 -2.248750 4.070000
v 2.248750 -2.248750 4.070000
v 2.182500 -2.248750 4.112500
v 2.248750 -2.248750 4.112500
v 2.182500 -2.248750 4.155000
v 2.248750 -2.248750 4.155000
v 2.315000 -2.447500 3.985000
v 2.315000 -2.447500 4.027500
v 2.315000 -2.381250 4.027500
v 2.315000 -2.381250 3.985000
v 2.315000 -2.447500 4.070000
v 2.315000 -2.381250 4.070000
v 2.315000 -2.447500 4.112500
v 2.315000 -2.381250 4.112500
v 2.315000 -2.447500 4.155000
v 2.315000 -2.381250 4.155000
v 2.315000 -2.315000 3.985000
v 2.315000 -2.315000 4.155000
v 2.315000 -2.248750 3.985000
v 2.315000 -2.248750 4.155000
v 2.248750 -2.182500 3.985000
v 2.248750 -2.182500 4.027500
v 2.315000 -2.182500 4.027500
v 2.315000 -2.182500 3.985000
v 2.248750 -2.182500 4.070000
v 2.315000 -2.182500 4.070000
v 2.248750 -2.182500 4.112500
v 2.315000 -2.182500 4.112500
v 2.248750 -2.182500 4.155000
v 2.315000 -2.182500 4.155000
v 2.381250 -2.381250 3.985000
v 2.381250 -2.381250 4.027500
v 2.381250 -2.315000 4.027500
v 2.381250 -2.315000 3.985000
v 2.381250 -2.381250 4.070000
v 2.381250 -2.315000 4.070000
v 2.381250 -2.381250 4.112500
v 2.381250 -2.315000 4.112500
v 2.381250 -2.381250 4.155000
v 2.381250 -2.315000 4.155000
v 2.381250 -2.248750 3.985000
v 2.381250 -2.248750 4.155000
v 2.381250 -2.182500 3.985000
v 2.381250 -2.182500 4.155000
v 2.315000 -2.116250 3.985000
v 2.315000 -2.116250 4.027500
v 2.381250 -2.116250 4.027500
v 2.381250 -2.116250 3.985000
v 2.315000 -2.116250 4.070000
v 2.381250 -2.116250 4.070000
v 2.315000 -2.116250 4.112500
v 2.381250 -2.116250 4.112500
v 2.315000 -2.116250 4.155000
v 2.381250 -2.116250 4.155000
v 2.447500 -2.315000 3.985000
v 2.447500 -2.315000 4.027500
v 2.447500 -2.248750 4.027500
v 2.447500 -2.248750 3.985000
v 2.447500 -2.315000 4.070000
v 2.447500 -2.248750 4.070000
v 2.447500 -2.315000 4.112500
v 2.447500 -2.248750 4.112500
v 2.447500 -2.315000 4.155000
v 2.447500 -2.248750 4.155000
v 2.447500 -2.182500 3.985000
v 2.447500 -2.182500 4.155000
v 2.447500 -2.116250 3.985000
v 2.447500 -2.116250 4.155000
v 2.381250 -2.050000 3.985000
v 2.381250 -2.050000 4.027500
v 2.447500 -2.050000 4.027500
v 2.447500 -2.050000 3.985000
v 2.381250 -2.050000 4.070000
v 2.447500 -2.050000 4.070000
v 2.381250 -2.050000 4.112500
v 2.447500 -2.050000 4.112500
v 2.381250 -2.050000 4.155000
v 2.447500 -2.050000 4.155000
v 2.513750 -2.248750 3.985000
v 2.513750 -2.248750 4.027500
v 2.513750 -2.182500 4.027500
v 2.513750 -2.182500 3.985000
v 2.513750 -2.248750 4.070000
v 2.513750 -2.182500 4.070000
v 2.513750 -2.248750 4.112500
v 2.513750 -2.182500 4.112500
v 2.513750 -2.248750 4.155000
v 2.513750 -2.182500 4.155000
v 2.513750 -2.116250 3.985000
v 2.513750 -2.116250 4.155000
v 2.513750 -2.050000 3.985000
v 2.513750 -2.050000 4.155000
v 2.447500 -1.983750 3.985000
v 2.447500 -1.983750 4.027500
v 2.513750 -1.983750 4.027500
v 2.513750 -1.983750 3.985000
v 2.447500 -1.983750 4.070000
v 2.513750 -1.983750 4.070000
v 2.447500 -1.983750 4.112500
v 2.513750 -1.983750 4.112500
v 2.447500 -1.983750 4.155000
v 2.513750 -1.983750 4.155000
v 2.580000 -2.182500 3.985000
v 2.580000 -2.182500 4.027500
v 2.580000 -2.116250 4.027500
v 2.580000 -2.116250 3.985000
v 2.580000 -2.182500 4.070000
v 2.580000 -2.116250 4.070000
v 2.580000 -2.182500 4.112500
v 2.580000 -2.116250 4.112500
v 2.580000 -2.182500 4.155000
v 2.580000 -2.116250 4.155000
v 2.580000 -2.050000 3.985000
v 2.580000 -2.050000 4.155000
v 2.580000 -1.983750 4.027500
v 2.580000 -1.983750 3.985000
v 2.580000 -1.983750 4.070000
v 2.580000 -1.983750 4.112500
v 2.580000 -1.983750 4.155000
v 2.646250 -2.116250 3.985000
v 2.646250 -2.116250 4.027500
v 2.646250 -2.050000 4.027500
v 2.646250 -2.050000 3.985000
v 2.646250 -2.116250 4.070000
v 2.646250 -2.050000 4.070000
v 2.646250 -2.116250 4.112500
v 2.646250 -2.050000 4.112500
v 2.646250 -2.116250 4.155000
v 2.646250 -2.050000 4.155000
v 2.646250 -1.983750 4.027500
v 2.646250 -1.983750 3.985000
v 2.646250 -1.983750 4.070000
v 2.646250 -1.983750 4.112500
v 2.646250 -1.983750 4.155000
v 2.712500 -2.050000 3.985000
v 2.712500 -2.050000 4.027500
v 2.712500 -1.983750 4.027500
v 2.712500 -1.983750 3.985000
v 2.712500 -2.050000 4.070000
v 2.712500 -1.983750 4.070000
v 2.712500 -2.050000 4.112500
v 2.712500 -1.983750 4.112500
v 2.712500 -2.050000 4.155000
v 2.712500 -1.983750 4.155000
f 1 2 3
f 1 3 4
f 5 6 7
f 5 7 8
f 1 5 6
f 1 6 4
f 1 2 8
f 1 8 5
f 4 3 9
f 4 9 10
f 6 11 12
f 6 12 7
f 4 6 11
f 4 11 10
f 10 9 13
f 10 13 14
f 11 15 16
f 11 16 12
f 10 11 15
f 10 15 14
f 14 13 17
f 14 17 18
f 15 19 20
f 15 20 16
f 14 15 19
f 14 19 18
f 18 19 20
f 18 20 17
f 2 21 22
f 2 22 3
f 2 21 23
f 2 23 8
f 3 22 24
f 3 24 9
f 9 24 25
f 9 25 13
f 13 25 26
f 13 26 17
f 17 20 27
f 17 27 26
f 21 28 29
f 21 29 22
f 21 28 30
f 21 30 23
f 22 29 31
f 22 31 24
f 24 31 32
f 24 32 25
f 25 32 33
f 25 33 26
f 26 27 34
f 26 34 33
f 28 35 36
f 28 36 29
f 35 36 37
f 35 37 38
f 28 35 38
f 28 38 30
f 29 36 39
f 29 39 31
f 36 39 40
f 36 40 37
f 31 39 41
f 31 41 32
f 39 41 42
f 39 42 40
f 32 41 43
f 32 43 33
f 41 43 44
f 41 44 42
f 33 34 44
f 33 44 43
f 45 46 47
f 45 47 48
f 8 45 46
f 8 46 7
f 8 23 48
f 8 48 45
f 46 49 50
f 46 50 47
f 7 46 49
f 7 49 12
f 49 51 52
f 49 52 50
f 12 49 51
f 12 51 16
f 51 53 54
f 51 54 52
f 16 51 53
f 16 53 20
f 20 53 54
f 20 54 27
f 23 30 55
f 23 55 48
f 27 54 56
f 27 56 34
f 30 38 57
f 30 57 55
f 34 56 58
f 34 58 44
f 38 59 60
f 38 60 37
f 59 60 61
f 59 61 62
f 38 59 62
f 38 62 57
f 37 60 63
f 37 63 40
f 60 63 64
f 60 64 61
f 40 63 65
f 40 65 42
f 63 65 66
f 63 66 64
f 42 65 67
f 42 67 44
f 65 67 68
f 65 68 66
f 44 58 68
f 44 68 67
f 69 70 71
f 69 71 72
f 48 69 70
f 48 70 47
f 48 55 72
f 48 72 69
f 70 73 74
f 70 74 71
f 47 70 73
f 47 73 50
f 73 75 76
f 73 76 74
f 50 73 75
f 50 75 52
f 75 77 78
f 75 78 76
f 52 75 77
f 52 77 54
f 54 77 78
f 54 78 56
f 55 57 79
f 55 79 72
f 56 78 80
f 56 80 58
f 57 62 81
f 57 81 79
f 58 80 82
f 58 82 68
f 62 83 84
f 62 84 61
f 83 84 85
f 83 85 86
f 62 83 86
f 62 86 81
f 61 84 87
f 61 87 64
f 84 87 88
f 84 88 85
f 64 87 89
f 64 89 66
f 87 89 90
f 87 90 88
f 66 89 91
f 66 91 68
f 89 91 92
f 89 92 90
f 68 82 92
f 68 92 91
f 93 94 95
f 93 95 96
f 72 93 94
f 72 94 71
f 72 79 96
f 72 96 93
f 94 97 98
f 94 98 95
f 71 94 97
f 71 97 74
f 97 99 100
f 97 100 98
f 74 97 99
f 74 99 76
f 99 101 102
f 99 102 100
f 76 99 101
f 76 101 78
f 78 101 102
f 78 102 80
f 79 81 103
f 79 103 96
f 80 102 104
f 80 104 82
f 81 86 105
f 81 105 103
f 82 104 106
f 82 106 92
f 86 107 108
f 86 108 85
f 107 108 109
f 107 109 110
f 86 107 110
f 86 110 105
f 85 108 111
f 85 111 88
f 108 111 112
f 108 112 109
f 88 111 113
f 88 113 90
f 111 113 114
f 111 114 112
f 90 113 115
f 90 115 92
f 113 115 116
f 113 116 114
f 92 106 116
f 92 116 115
f 117 118 119
f 117 119 120
f 96 117 118
f 96 118 95
f 96 103 120
f 96 120 117
f 118 121 122
f 118 122 119
f 95 118 121
f 95 121 98
f 121 123 124
f 121 124 122
f 98 121 123
f 98 123 100
f 123 125 126
f 123 126 124
f 100 123 125
f 100 125 102
f 102 125 126
f 102 126 104
f 103 105 127
f 103 127 120
f 104 126 128
f 104 128 106
f 105 110 129
f 105 129 127
f 106 128 130
f 106 130 116
f 110 131 132
f 110 132 109
f 131 132 133
f 131 133 134
f 110 131 134
f 110 134 129
f 109 132 135
f 109 135 112
f 132 135 136
f 132 136 133
f 112 135 137
f 112 137 114
f 135 137 138
f 135 138 136
f 114 137 139
f 114 139 116
f 137 139 140
f 137 140 138
f 116 130 140
f 116 140 139
f 141 142 143
f 141 143 144
f 120 141 142
f 120 142 119
f 120 127 144
f 120 144 141
f 142 145 146
f 142 146 143
f 119 142 145
f 119 145 122
f 145 147 148
f 145 148 146
f 122 145 147
f 122 147 124
f 147 149 150
f 147 150 148
f 124 147 149
f 124 149 126
f 126 149 150
f 126 150 128
f 127 129 151
f 127 151 144
f 128 150 152
f 128 152 130
f 129 134 153
f 129 153 151
f 130 152 154
f 130 154 140
f 134 155 156
f 134 156 133
f 155 156 157
f 155 157 158
f 134 155 158
f 134 158 153
f 133 156 159
f 133 159 136
f 156 159 160
f 156 160 157
f 136 159 161
f 136 161 138
f 159 161 162
f 159 162 160
f 138 161 163
f 138 163 140
f 161 163 164
f 161 164 162
f 140 154 164
f 140 164 163
f 165 166 167
f 165 167 168
f 144 165 166
f 144 166 143
f 144 151 168
f 144 168 165
f 166 169 170
f 166 170 167
f 143 166 169
f 143 169 146
f 169 171 172
f 169 172 170
f 146 169 171
f 146 171 148
f 171 173 174
f 171 174 172
f 148 171 173
f 148 173 150
f 150 173 174
f 150 174 152
f 151 153 175
f 151 175 168
f 152 174 176
f 152 176 154
f 153 158 177
f 153 177 175
f 154 176 178
f 154 178 164
f 158 179 180
f 158 180 157
f 179 180 181
f 179 181 182
f 158 179 182
f 158 182 177
f 157 180 183
f 157 183 160
f 180 183 184
f 180 184 181
f 160 183 185
f 160 185 162
f 183 185 186
f 183 186 184
f 162 185 187
f 162 187 164
f 185 187 188
f 185 188 186
f 164 178 188
f 164 188 187
f 189 190 191
f 189 191 192
f 168 189 190
f 168 190 167
f 168 175 192
f 168 192 189
f 190 193 194
f 190 194 191
f 167 190 193
f 167 193 170
f 193 195 196
f 193 196 194
f 170 193 195
f 170 195 172
f 195 197 198
f 195 198 196
f 172 195 197
f 172 197 174
f 174 197 198
f 174 198 176
f 175 177 199
f 175 199 192
f 176 198 200
f 176 200 178
f 177 182 201
f 177 201 199
f 178 200 202
f 178 202 188
f 182 203 204
f 182 204 181
f 203 204 205
f 203 205 206
f 182 203 206
f 182 206 201
f 181 204 207
f 181 207 184
f 204 207 208
f 204 208 205
f 184 207 209
f 184 209 186
f 207 209 210
f 207 210 208
f 186 209 211
f 186 211 188
f 209 211 212
f 209 212 210
f 188 202 212
f 188 212 211
f 213 214 215
f 213 215 216
f 192 213 214
f 192 214 191
f 192 199 216
f 192 216 213
f 214 217 218
f 214 218 215
f 191 214 217
f 191 217 194
f 217 219 220
f 217 220 218
f 194 217 219
f 194 219 196
f 219 221 222
f 219 222 220
f 196 219 221
f 196 221 198
f 198 221 222
f 198 222 200
f 199 201 223
f 199 223 216
f 200 222 224
f 200 224 202
f 206 205 225
f 206 225 226
f 201 206 226
f 201 226 223
f 205 208 227
f 205 227 225
f 208 210 228
f 208 228 227
f 210 212 229
f 210 229 228
f 202 224 229
f 202 229 212
f 230 231 232
f 230 232 233
f 216 230 231
f 216 231 215
f 216 223 233
f 216 233 230
f 231 234 235
f 231 235 232
f 215 231 234
f 215 234 218
f 234 236 237
f 234 237 235
f 218 234 236
f 218 236 220
f 236 238 239
f 236 239 237
f 220 236 238
f 220 238 222
f 222 238 239
f 222 239 224
f 226 225 240
f 226 240 241
f 223 226 241
f 223 241 233
f 225 227 242
f 225 242 240
f 227 228 243
f 227 243 242
f 228 229 244
f 228 244 243
f 224 239 244
f 224 244 229
f 245 246 247
f 245 247 248
f 233 245 246
f 233 246 232
f 241 240 247
f 241 247 248
f 233 241 248
f 233 248 245
f 246 249 250
f 246 250 247
f 232 246 249
f 232 249 235
f 240 242 250
f 240 250 247
f 249 251 252
f 249 252 250
f 235 249 251
f 235 251 237
f 242 243 252
f 242 252 250
f 251 253 254
f 251 254 252
f 237 251 253
f 237 253 239
f 243 244 254
f 243 254 252
f 239 253 254
f 239 254 244
