o [4B] 3D Diagram - S2-02 Group C_213
v -2.712500 -2.050000 0.663500
v -2.712500 -1.983750 0.663500
v -2.712500 -1.983750 0.893000
v -2.712500 -2.050000 0.893000
v -2.646250 -2.050000 0.663500
v -2.646250 -2.050000 0.893000
v -2.646250 -1.983750 0.893000
v -2.646250 -1.983750 0.663500
v -2.712500 -1.983750 1.122500
v -2.712500 -2.050000 1.122500
v -2.646250 -2.050000 1.122500
v -2.646250 -1.983750 1.122500
v -2.712500 -1.983750 1.352000
v -2.712500 -2.050000 1.352000
v -2.646250 -2.050000 1.352000
v -2.646250 -1.983750 1.352000
v -2.712500 -1.983750 1.581500
v -2.712500 -2.050000 1.581500
v -2.646250 -2.050000 1.581500
v -2.646250 -1.983750 1.581500
v -2.712500 -1.983750 1.811000
v -2.712500 -2.050000 1.811000
v -2.646250 -2.050000 1.811000
v -2.646250 -1.983750 1.811000
v -2.712500 -1.983750 2.040500
v -2.712500 -2.050000 2.040500
v -2.646250 -2.050000 2.040500
v -2.646250 -1.983750 2.040500
v -2.712500 -1.983750 2.270000
v -2.712500 -2.050000 2.270000
v -2.646250 -2.050000 2.270000
v -2.646250 -1.983750 2.270000
v -2.712500 -1.983750 2.499500
v -2.712500 -2.050000 2.499500
v -2.646250 -2.050000 2.499500
v -2.646250 -1.983750 2.499500
v -2.712500 -1.983750 2.729000
v -2.712500 -2.050000 2.729000
v -2.646250 -2.050000 2.729000
v -2.646250 -1.983750 2.729000
v -2.712500 -1.983750 2.958500
v -2.712500 -2.050000 2.958500
v -2.646250 -2.050000 2.958500
v -2.646250 -1.983750 2.958500
v -2.712500 -1.983750 3.188000
v -2.712500 -2.050000 3.188000
v -2.646250 -2.050000 3.188000
v -2.646250 -1.983750 3.188000
v -2.712500 -1.983750 3.417500
v -2.712500 -2.050000 3.417500
v -2.646250 -2.050000 3.417500
v -2.646250 -1.983750 3.417500
v -2.712500 -1.983750 3.647000
v -2.712500 -2.050000 3.647000
v -2.646250 -2.050000 3.647000
v -2.646250 -1.983750 3.647000
v -2.712500 -1.983750 3.876500
v -2.712500 -2.050000 3.876500
v -2.646250 -2.050000 3.876500
v -2.646250 -1.983750 3.876500
v -2.646250 -2.116250 0.663500
v -2.646250 -2.116250 0.893000
v -2.580000 -2.116250 0.663500
v -2.580000 -2.116250 0.893000
v -2.580000 -2.050000 0.663500
v -2.646250 -2.116250 1.122500
v -2.580000 -2.116250 1.122500
v -2.646250 -2.116250 1.352000
v -2.580000 -2.116250 1.352000
v -2.646250 -2.116250 1.581500
v -2.580000 -2.116250 1.581500
v -2.646250 -2.116250 1.811000
v -2.580000 -2.116250 1.811000
v -2.646250 -2.116250 2.040500
v -2.580000 -2.116250 2.040500
v -2.646250 -2.116250 2.270000
v -2.580000 -2.116250 2.270000
v -2.646250 -2.116250 2.499500
v -2.580000 -2.116250 2.499500
v -2.646250 -2.116250 2.729000
v -2.580000 -2.116250 2.729000
v -2.646250 -2.116250 2.958500
v -2.580000 -2.116250 2.958500
v -2.646250 -2.116250 3.188000
v -2.580000 -2.116250 3.188000
v -2.646250 -2.116250 3.417500
v -2.580000 -2.116250 3.417500
v -2.646250 -2.116250 3.647000
v -2.580000 -2.116250 3.647000
v -2.646250 -2.116250 3.876500
v -2.580000 -2.116250 3.876500
v -2.580000 -2.050000 3.876500
v -2.580000 -1.983750 0.893000
v -2.580000 -1.983750 0.663500
v -2.580000 -1.983750 1.122500
v -2.580000 -1.983750 1.352000
v -2.580000 -1.983750 1.581500
v -2.580000 -1.983750 1.811000
v -2.580000 -1.983750 2.040500
v -2.580000 -1.983750 2.270000
v -2.580000 -1.983750 2.499500
v -2.580000 -1.983750 2.729000
v -2.580000 -1.983750 2.958500
v -2.580000 -1.983750 3.188000
v -2.580000 -1.983750 3.417500
v -2.580000 -1.983750 3.647000
v -2.580000 -1.983750 3.876500
v -2.580000 -2.182500 0.663500
v -2.580000 -2.182500 0.893000
v -2.513750 -2.182500 0.663500
v -2.513750 -2.182500 0.893000
v -2.513750 -2.116250 0.663500
v -2.580000 -2.182500 1.122500
v -2.513750 -2.182500 1.122500
v -2.580000 -2.182500 1.352000
v -2.513750 -2.182500 1.352000
v -2.580000 -2.182500 1.581500
v -2.513750 -2.182500 1.581500
v -2.580000 -2.182500 1.811000
v -2.513750 -2.182500 1.811000
v -2.580000 -2.182500 2.040500
v -2.513750 -2.182500 2.040500
v -2.580000 -2.182500 2.270000
v -2.513750 -2.182500 2.270000
v -2.580000 -2.182500 2.499500
v -2.513750 -2.182500 2.499500
v -2.580000 -2.182500 2.729000
v -2.513750 -2.182500 2.729000
v -2.580000 -2.182500 2.958500
v -2.513750 -2.182500 2.958500
v -2.580000 -2.182500 3.188000
v -2.513750 -2.182500 3.188000
v -2.580000 -2.182500 3.417500
v -2.513750 -2.182500 3.417500
v -2.580000 -2.182500 3.647000
v -2.513750 -2.182500 3.647000
v -2.580000 -2.182500 3.876500
v -2.513750 -2.182500 3.876500
v -2.513750 -2.116250 3.876500
v -2.513750 -2.050000 0.663500
v -2.513750 -2.050000 3.876500
v -2.513750 -1.983750 0.893000
v -2.513750 -1.983750 0.663500
v -2.513750 -1.983750 1.122500
v -2.513750 -1.983750 1.352000
v -2.513750 -1.983750 1.581500
v -2.513750 -1.983750 1.811000
v -2.513750 -1.983750 2.040500
v -2.513750 -1.983750 2.270000
v -2.513750 -1.983750 2.499500
v -2.513750 -1.983750 2.729000
v -2.513750 -1.983750 2.958500
v -2.513750 -1.983750 3.188000
v -2.513750 -1.983750 3.417500
v -2.513750 -1.983750 3.647000
v -2.513750 -1.983750 3.876500
v -2.513750 -2.248750 0.663500
v -2.513750 -2.248750 0.893000
v -2.447500 -2.248750 0.663500
v -2.447500 -2.248750 0.893000
v -2.447500 -2.182500 0.663500
v -2.513750 -2.248750 1.122500
v -2.447500 -2.248750 1.122500
v -2.513750 -2.248750 1.352000
v -2.447500 -2.248750 1.352000
v -2.513750 -2.248750 1.581500
v -2.447500 -2.248750 1.581500
v -2.513750 -2.248750 1.811000
v -2.447500 -2.248750 1.811000
v -2.513750 -2.248750 2.040500
v -2.447500 -2.248750 2.040500
v -2.513750 -2.248750 2.270000
v -2.447500 -2.248750 2.270000
v -2.513750 -2.248750 2.499500
v -2.447500 -2.248750 2.499500
v -2.513750 -2.248750 2.729000
v -2.447500 -2.248750 2.729000
v -2.513750 -2.248750 2.958500
v -2.447500 -2.248750 2.958500
v -2.513750 -2.248750 3.188000
v -2.447500 -2.248750 3.188000
v -2.513750 -2.248750 3.417500
v -2.447500 -2.248750 3.417500
v -2.513750 -2.248750 3.647000
v -2.447500 -2.248750 3.647000
v -2.513750 -2.248750 3.876500
v -2.447500 -2.248750 3.876500
v -2.447500 -2.182500 3.876500
v -2.447500 -2.116250 0.663500
v -2.447500 -2.116250 3.876500
v -2.447500 -2.050000 0.663500
v -2.447500 -2.050000 3.876500
v -2.447500 -1.983750 0.893000
v -2.447500 -1.983750 0.663500
v -2.447500 -1.983750 1.122500
v -2.447500 -1.983750 1.352000
v -2.447500 -1.983750 1.581500
v -2.447500 -1.983750 1.811000
v -2.447500 -1.983750 2.040500
v -2.447500 -1.983750 2.270000
v -2.447500 -1.983750 2.499500
v -2.447500 -1.983750 2.729000
v -2.447500 -1.983750 2.958500
v -2.447500 -1.983750 3.188000
v -2.447500 -1.983750 3.417500
v -2.447500 -1.983750 3.647000
v -2.447500 -1.983750 3.876500
v -2.447500 -2.315000 0.663500
v -2.447500 -2.315000 0.893000
v -2.381250 -2.315000 0.663500
v -2.381250 -2.315000 0.893000
v -2.381250 -2.248750 0.663500
v -2.447500 -2.315000 1.122500
v -2.381250 -2.315000 1.122500
v -2.447500 -2.315000 1.352000
v -2.381250 -2.315000 1.352000
v -2.447500 -2.315000 1.581500
v -2.381250 -2.315000 1.581500
v -2.447500 -2.315000 1.811000
v -2.381250 -2.315000 1.811000
v -2.447500 -2.315000 2.040500
v -2.381250 -2.315000 2.040500
v -2.447500 -2.315000 2.270000
v -2.381250 -2.315000 2.270000
v -2.447500 -2.315000 2.499500
v -2.381250 -2.315000 2.499500
v -2.447500 -2.315000 2.729000
v -2.381250 -2.315000 2.729000
v -2.447500 -2.315000 2.958500
v -2.381250 -2.315000 2.958500
v -2.447500 -2.315000 3.188000
v -2.381250 -2.315000 3.188000
v -2.447500 -2.315000 3.417500
v -2.381250 -2.315000 3.417500
v -2.447500 -2.315000 3.647000
v -2.381250 -2.315000 3.647000
v -2.447500 -2.315000 3.876500
v -2.381250 -2.315000 3.876500
v -2.381250 -2.248750 3.876500
v -2.381250 -2.182500 0.663500
v -2.381250 -2.182500 3.876500
v -2.381250 -2.116250 0.663500
v -2.381250 -2.116250 3.876500
v -2.381250 -2.050000 0.663500
v -2.381250 -2.050000 3.876500
v -2.381250 -1.983750 0.893000
v -2.381250 -1.983750 0.663500
v -2.381250 -1.983750 1.122500
v -2.381250 -1.983750 1.352000
v -2.381250 -1.983750 1.581500
v -2.381250 -1.983750 1.811000
v -2.381250 -1.983750 2.040500
v -2.381250 -1.983750 2.270000
v -2.381250 -1.983750 2.499500
v -2.381250 -1.983750 2.729000
v -2.381250 -1.983750 2.958500
v -2.381250 -1.983750 3.188000
v -2.381250 -1.983750 3.417500
v -2.381250 -1.983750 3.647000
v -2.381250 -1.983750 3.876500
v -2.381250 -2.381250 0.663500
v -2.381250 -2.381250 0.893000
v -2.315000 -2.381250 0.663500
v -2.315000 -2.381250 0.893000
v -2.315000 -2.315000 0.663500
v -2.381250 -2.381250 1.122500
v -2.315000 -2.381250 1.122500
v -2.381250 -2.381250 1.352000
v -2.315000 -2.381250 1.352000
v -2.381250 -2.381250 1.581500
v -2.315000 -2.381250 1.581500
v -2.381250 -2.381250 1.811000
v -2.315000 -2.381250 1.811000
v -2.381250 -2.381250 2.040500
v -2.315000 -2.381250 2.040500
v -2.381250 -2.381250 2.270000
v -2.315000 -2.381250 2.270000
v -2.381250 -2.381250 2.499500
v -2.315000 -2.381250 2.499500
v -2.381250 -2.381250 2.729000
v -2.315000 -2.381250 2.729000
v -2.381250 -2.381250 2.958500
v -2.315000 -2.381250 2.958500
v -2.381250 -2.381250 3.188000
v -2.315000 -2.381250 3.188000
v -2.381250 -2.381250 3.417500
v -2.315000 -2.381250 3.417500
v -2.381250 -2.381250 3.647000
v -2.315000 -2.381250 3.647000
v -2.381250 -2.381250 3.876500
v -2.315000 -2.381250 3.876500
v -2.315000 -2.315000 3.876500
v -2.315000 -2.248750 0.663500
v -2.315000 -2.248750 3.876500
v -2.315000 -2.182500 0.663500
v -2.315000 -2.182500 3.876500
v -2.315000 -2.116250 0.663500
v -2.315000 -2.116250 3.876500
v -2.315000 -2.050000 0.663500
v -2.315000 -2.050000 3.876500
v -2.315000 -1.983750 0.893000
v -2.315000 -1.983750 0.663500
v -2.315000 -1.983750 1.122500
v -2.315000 -1.983750 1.352000
v -2.315000 -1.983750 1.581500
v -2.315000 -1.983750 1.811000
v -2.315000 -1.983750 2.040500
v -2.315000 -1.983750 2.270000
v -2.315000 -1.983750 2.499500
v -2.315000 -1.983750 2.729000
v -2.315000 -1.983750 2.958500
v -2.315000 -1.983750 3.188000
v -2.315000 -1.983750 3.417500
v -2.315000 -1.983750 3.647000
v -2.315000 -1.983750 3.876500
v -2.315000 -2.447500 0.663500
v -2.315000 -2.447500 0.893000
v -2.248750 -2.447500 0.663500
v -2.248750 -2.447500 0.893000
v -2.248750 -2.381250 0.663500
v -2.315000 -2.447500 1.122500
v -2.248750 -2.447500 1.122500
v -2.315000 -2.447500 1.352000
v -2.248750 -2.447500 1.352000
v -2.315000 -2.447500 1.581500
v -2.248750 -2.447500 1.581500
v -2.315000 -2.447500 1.811000
v -2.248750 -2.447500 1.811000
v -2.315000 -2.447500 2.040500
v -2.248750 -2.447500 2.040500
v -2.315000 -2.447500 2.270000
v -2.248750 -2.447500 2.270000
v -2.315000 -2.447500 2.499500
v -2.248750 -2.447500 2.499500
v -2.315000 -2.447500 2.729000
v -2.248750 -2.447500 2.729000
v -2.315000 -2.447500 2.958500
v -2.248750 -2.447500 2.958500
v -2.315000 -2.447500 3.188000
v -2.248750 -2.447500 3.188000
v -2.315000 -2.447500 3.417500
v -2.248750 -2.447500 3.417500
v -2.315000 -2.447500 3.647000
v -2.248750 -2.447500 3.647000
v -2.315000 -2.447500 3.876500
v -2.248750 -2.447500 3.876500
v -2.248750 -2.381250 3.876500
v -2.248750 -2.315000 0.663500
v -2.248750 -2.315000 3.876500
v -2.248750 -2.248750 0.663500
v -2.248750 -2.248750 3.876500
v -2.248750 -2.182500 0.663500
v -2.248750 -2.182500 3.876500
v -2.248750 -2.116250 0.663500
v -2.248750 -2.116250 3.876500
v -2.248750 -2.050000 0.663500
v -2.248750 -2.050000 3.876500
v -2.248750 -1.983750 0.893000
v -2.248750 -1.983750 0.663500
v -2.248750 -1.983750 1.122500
v -2.248750 -1.983750 1.352000
v -2.248750 -1.983750 1.581500
v -2.248750 -1.983750 1.811000
v -2.248750 -1.983750 2.040500
v -2.248750 -1.983750 2.270000
v -2.248750 -1.983750 2.499500
v -2.248750 -1.983750 2.729000
v -2.248750 -1.983750 2.958500
v -2.248750 -1.983750 3.188000
v -2.248750 -1.983750 3.417500
v -2.248750 -1.983750 3.647000
v -2.248750 -1.983750 3.876500
v -2.248750 -2.513750 0.663500
v -2.248750 -2.513750 0.893000
v -2.182500 -2.513750 0.663500
v -2.182500 -2.513750 0.893000
v -2.182500 -2.447500 0.663500
v -2.248750 -2.513750 1.122500
v -2.182500 -2.513750 1.122500
v -2.248750 -2.513750 1.352000
v -2.182500 -2.513750 1.352000
v -2.248750 -2.513750 1.581500
v -2.182500 -2.513750 1.581500
v -2.248750 -2.513750 1.811000
v -2.182500 -2.513750 1.811000
v -2.248750 -2.513750 2.040500
v -2.182500 -2.513750 2.040500
v -2.248750 -2.513750 2.270000
v -2.182500 -2.513750 2.270000
v -2.248750 -2.513750 2.499500
v -2.182500 -2.513750 2.499500
v -2.248750 -2.513750 2.729000
v -2.182500 -2.513750 2.729000
v -2.248750 -2.513750 2.958500
v -2.182500 -2.513750 2.958500
v -2.248750 -2.513750 3.188000
v -2.182500 -2.513750 3.188000
v -2.248750 -2.513750 3.417500
v -2.182500 -2.513750 3.417500
v -2.248750 -2.513750 3.647000
v -2.182500 -2.513750 3.647000
v -2.248750 -2.513750 3.876500
v -2.182500 -2.513750 3.876500
v -2.182500 -2.447500 3.876500
v -2.182500 -2.381250 0.663500
v -2.182500 -2.381250 3.876500
v -2.182500 -2.315000 0.663500
v -2.182500 -2.315000 3.876500
v -2.182500 -2.248750 0.663500
v -2.182500 -2.248750 3.876500
v -2.182500 -2.182500 0.663500
v -2.182500 -2.182500 3.876500
v -2.182500 -2.116250 0.663500
v -2.182500 -2.116250 3.876500
v -2.182500 -2.050000 0.663500
v -2.182500 -2.050000 3.876500
v -2.182500 -1.983750 0.893000
v -2.182500 -1.983750 0.663500
v -2.182500 -1.983750 1.122500
v -2.182500 -1.983750 1.352000
v -2.182500 -1.983750 1.581500
v -2.182500 -1.983750 1.811000
v -2.182500 -1.983750 2.040500
v -2.182500 -1.983750 2.270000
v -2.182500 -1.983750 2.499500
v -2.182500 -1.983750 2.729000
v -2.182500 -1.983750 2.958500
v -2.182500 -1.983750 3.188000
v -2.182500 -1.983750 3.417500
v -2.182500 -1.983750 3.647000
v -2.182500 -1.983750 3.876500
v -2.182500 -2.580000 0.663500
v -2.182500 -2.580000 0.893000
v -2.116250 -2.580000 0.663500
v -2.116250 -2.580000 0.893000
v -2.116250 -2.513750 0.663500
v -2.182500 -2.580000 1.122500
v -2.116250 -2.580000 1.122500
v -2.182500 -2.580000 1.352000
v -2.116250 -2.580000 1.352000
v -2.182500 -2.580000 1.581500
v -2.116250 -2.580000 1.581500
v -2.182500 -2.580000 1.811000
v -2.116250 -2.580000 1.811000
v -2.182500 -2.580000 2.040500
v -2.116250 -2.580000 2.040500
v -2.182500 -2.580000 2.270000
v -2.116250 -2.580000 2.270000
v -2.182500 -2.580000 2.499500
v -2.116250 -2.580000 2.499500
v -2.182500 -2.580000 2.729000
v -2.116250 -2.580000 2.729000
v -2.182500 -2.580000 2.958500
v -2.116250 -2.580000 2.958500
v -2.182500 -2.580000 3.188000
v -2.116250 -2.580000 3.188000
v -2.182500 -2.580000 3.417500
v -2.116250 -2.580000 3.417500
v -2.182500 -2.580000 3.647000
v -2.116250 -2.580000 3.647000
v -2.182500 -2.580000 3.876500
v -2.116250 -2.580000 3.876500
v -2.116250 -2.513750 3.876500
v -2.116250 -2.447500 0.663500
v -2.116250 -2.447500 3.876500
v -2.116250 -2.381250 0.663500
v -2.116250 -2.381250 3.876500
v -2.116250 -2.315000 0.663500
v -2.116250 -2.315000 3.876500
v -2.116250 -2.248750 0.663500
v -2.116250 -2.248750 3.876500
v -2.116250 -2.182500 0.663500
v -2.116250 -2.182500 3.876500
v -2.116250 -2.116250 0.663500
v -2.116250 -2.116250 3.876500
v -2.116250 -2.050000 0.663500
v -2.116250 -2.050000 3.876500
v -2.116250 -1.983750 0.893000
v -2.116250 -1.983750 0.663500
v -2.116250 -1.983750 1.122500
v -2.116250 -1.983750 1.352000
v -2.116250 -1.983750 1.581500
v -2.116250 -1.983750 1.811000
v -2.116250 -1.983750 2.040500
v -2.116250 -1.983750 2.270000
v -2.116250 -1.983750 2.499500
v -2.116250 -1.983750 2.729000
v -2.116250 -1.983750 2.958500
v -2.116250 -1.983750 3.188000
v -2.116250 -1.983750 3.417500
v -2.116250 -1.983750 3.647000
v -2.116250 -1.983750 3.876500
v -2.116250 -2.646250 0.663500
v -2.116250 -2.646250 0.893000
v -2.050000 -2.646250 0.663500
v -2.050000 -2.646250 0.893000
v -2.050000 -2.580000 0.663500
v -2.116250 -2.646250 1.122500
v -2.050000 -2.646250 1.122500
v -2.116250 -2.646250 1.352000
v -2.050000 -2.646250 1.352000
v -2.116250 -2.646250 1.581500
v -2.050000 -2.646250 1.581500
v -2.116250 -2.646250 1.811000
v -2.050000 -2.646250 1.811000
v -2.116250 -2.646250 2.040500
v -2.050000 -2.646250 2.040500
v -2.116250 -2.646250 2.270000
v -2.050000 -2.646250 2.270000
v -2.116250 -2.646250 2.499500
v -2.050000 -2.646250 2.499500
v -2.116250 -2.646250 2.729000
v -2.050000 -2.646250 2.729000
v -2.116250 -2.646250 2.958500
v -2.050000 -2.646250 2.958500
v -2.116250 -2.646250 3.188000
v -2.050000 -2.646250 3.188000
v -2.116250 -2.646250 3.417500
v -2.050000 -2.646250 3.417500
v -2.116250 -2.646250 3.647000
v -2.050000 -2.646250 3.647000
v -2.116250 -2.646250 3.876500
v -2.050000 -2.646250 3.876500
v -2.050000 -2.580000 3.876500
v -2.050000 -2.513750 0.663500
v -2.050000 -2.513750 3.876500
v -2.050000 -2.447500 0.663500
v -2.050000 -2.447500 3.876500
v -2.050000 -2.381250 0.663500
v -2.050000 -2.381250 3.876500
v -2.050000 -2.315000 0.663500
v -2.050000 -2.315000 3.876500
v -2.050000 -2.248750 0.663500
v -2.050000 -2.248750 3.876500
v -2.050000 -2.182500 0.663500
v -2.050000 -2.182500 3.876500
v -2.050000 -2.116250 0.663500
v -2.050000 -2.116250 3.876500
v -2.050000 -2.050000 0.663500
v -2.050000 -2.050000 3.876500
v -2.050000 -1.983750 0.893000
v -2.050000 -1.983750 0.663500
v -2.050000 -1.983750 1.122500
v -2.050000 -1.983750 1.352000
v -2.050000 -1.983750 1.581500
v -2.050000 -1.983750 1.811000
v -2.050000 -1.983750 2.040500
v -2.050000 -1.983750 2.270000
v -2.050000 -1.983750 2.499500
v -2.050000 -1.983750 2.729000
v -2.050000 -1.983750 2.958500
v -2.050000 -1.983750 3.188000
v -2.050000 -1.983750 3.417500
v -2.050000 -1.983750 3.647000
v -2.050000 -1.983750 3.876500
v -2.050000 -2.712500 0.663500
v -2.050000 -2.712500 0.893000
v -1.983750 -2.712500 0.663500
v -1.983750 -2.712500 0.893000
v -1.983750 -2.646250 0.893000
v -1.983750 -2.646250 0.663500
v -2.050000 -2.712500 1.122500
v -1.983750 -2.712500 1.122500
v -1.983750 -2.646250 1.122500
v -2.050000 -2.712500 1.352000
v -1.983750 -2.712500 1.352000
v -1.983750 -2.646250 1.352000
v -2.050000 -2.712500 1.581500
v -1.983750 -2.712500 1.581500
v -1.983750 -2.646250 1.581500
v -2.050000 -2.712500 1.811000
v -1.983750 -2.712500 1.811000
v -1.983750 -2.646250 1.811000
v -2.050000 -2.712500 2.040500
v -1.983750 -2.712500 2.040500
v -1.983750 -2.646250 2.040500
v -2.050000 -2.712500 2.270000
v -1.983750 -2.712500 2.270000
v -1.983750 -2.646250 2.270000
v -2.050000 -2.712500 2.499500
v -1.983750 -2.712500 2.499500
v -1.983750 -2.646250 2.499500
v -2.050000 -2.712500 2.729000
v -1.983750 -2.712500 2.729000
v -1.983750 -2.646250 2.729000
v -2.050000 -2.712500 2.958500
v -1.983750 -2.712500 2.958500
v -1.983750 -2.646250 2.958500
v -2.050000 -2.712500 3.188000
v -1.983750 -2.712500 3.188000
v -1.983750 -2.646250 3.188000
v -2.050000 -2.712500 3.417500
v -1.983750 -2.712500 3.417500
v -1.983750 -2.646250 3.417500
v -2.050000 -2.712500 3.647000
v -1.983750 -2.712500 3.647000
v -1.983750 -2.646250 3.647000
v -2.050000 -2.712500 3.876500
v -1.983750 -2.712500 3.876500
v -1.983750 -2.646250 3.876500
v -1.983750 -2.580000 0.893000
v -1.983750 -2.580000 0.663500
v -1.983750 -2.580000 1.122500
v -1.983750 -2.580000 1.352000
v -1.983750 -2.580000 1.581500
v -1.983750 -2.580000 1.811000
v -1.983750 -2.580000 2.040500
v -1.983750 -2.580000 2.270000
v -1.983750 -2.580000 2.499500
v -1.983750 -2.580000 2.729000
v -1.983750 -2.580000 2.958500
v -1.983750 -2.580000 3.188000
v -1.983750 -2.580000 3.417500
v -1.983750 -2.580000 3.647000
v -1.983750 -2.580000 3.876500
v -1.983750 -2.513750 0.893000
v -1.983750 -2.513750 0.663500
v -1.983750 -2.513750 1.122500
v -1.983750 -2.513750 1.352000
v -1.983750 -2.513750 1.581500
v -1.983750 -2.513750 1.811000
v -1.983750 -2.513750 2.040500
v -1.983750 -2.513750 2.270000
v -1.983750 -2.513750 2.499500
v -1.983750 -2.513750 2.729000
v -1.983750 -2.513750 2.958500
v -1.983750 -2.513750 3.188000
v -1.983750 -2.513750 3.417500
v -1.983750 -2.513750 3.647000
v -1.983750 -2.513750 3.876500
v -1.983750 -2.447500 0.893000
v -1.983750 -2.447500 0.663500
v -1.983750 -2.447500 1.122500
v -1.983750 -2.447500 1.352000
v -1.983750 -2.447500 1.581500
v -1.983750 -2.447500 1.811000
v -1.983750 -2.447500 2.040500
v -1.983750 -2.447500 2.270000
v -1.983750 -2.447500 2.499500
v -1.983750 -2.447500 2.729000
v -1.983750 -2.447500 2.958500
v -1.983750 -2.447500 3.188000
v -1.983750 -2.447500 3.417500
v -1.983750 -2.447500 3.647000
v -1.983750 -2.447500 3.876500
v -1.983750 -2.381250 0.893000
v -1.983750 -2.381250 0.663500
v -1.983750 -2.381250 1.122500
v -1.983750 -2.381250 1.352000
v -1.983750 -2.381250 1.581500
v -1.983750 -2.381250 1.811000
v -1.983750 -2.381250 2.040500
v -1.983750 -2.381250 2.270000
v -1.983750 -2.381250 2.499500
v -1.983750 -2.381250 2.729000
v -1.983750 -2.381250 2.958500
v -1.983750 -2.381250 3.188000
v -1.983750 -2.381250 3.417500
v -1.983750 -2.381250 3.647000
v -1.983750 -2.381250 3.876500
v -1.983750 -2.315000 0.893000
v -1.983750 -2.315000 0.663500
v -1.983750 -2.315000 1.122500
v -1.983750 -2.315000 1.352000
v -1.983750 -2.315000 1.581500
v -1.983750 -2.315000 1.811000
v -1.983750 -2.315000 2.040500
v -1.983750 -2.315000 2.270000
v -1.983750 -2.315000 2.499500
v -1.983750 -2.315000 2.729000
v -1.983750 -2.315000 2.958500
v -1.983750 -2.315000 3.188000
v -1.983750 -2.315000 3.417500
v -1.983750 -2.315000 3.647000
v -1.983750 -2.315000 3.876500
v -1.983750 -2.248750 0.893000
v -1.983750 -2.248750 0.663500
v -1.983750 -2.248750 1.122500
v -1.983750 -2.248750 1.352000
v -1.983750 -2.248750 1.581500
v -1.983750 -2.248750 1.811000
v -1.983750 -2.248750 2.040500
v -1.983750 -2.248750 2.270000
v -1.983750 -2.248750 2.499500
v -1.983750 -2.248750 2.729000
v -1.983750 -2.248750 2.958500
v -1.983750 -2.248750 3.188000
v -1.983750 -2.248750 3.417500
v -1.983750 -2.248750 3.647000
v -1.983750 -2.248750 3.876500
v -1.983750 -2.182500 0.893000
v -1.983750 -2.182500 0.663500
v -1.983750 -2.182500 1.122500
v -1.983750 -2.182500 1.352000
v -1.983750 -2.182500 1.581500
v -1.983750 -2.182500 1.811000
v -1.983750 -2.182500 2.040500
v -1.983750 -2.182500 2.270000
v -1.983750 -2.182500 2.499500
v -1.983750 -2.182500 2.729000
v -1.983750 -2.182500 2.958500
v -1.983750 -2.182500 3.188000
v -1.983750 -2.182500 3.417500
v -1.983750 -2.182500 3.647000
v -1.983750 -2.182500 3.876500
v -1.983750 -2.116250 0.893000
v -1.983750 -2.116250 0.663500
v -1.983750 -2.116250 1.122500
v -1.983750 -2.116250 1.352000
v -1.983750 -2.116250 1.581500
v -1.983750 -2.116250 1.811000
v -1.983750 -2.116250 2.040500
v -1.983750 -2.116250 2.270000
v -1.983750 -2.116250 2.499500
v -1.983750 -2.116250 2.729000
v -1.983750 -2.116250 2.958500
v -1.983750 -2.116250 3.188000
v -1.983750 -2.116250 3.417500
v -1.983750 -2.116250 3.647000
v -1.983750 -2.116250 3.876500
v -1.983750 -2.050000 0.893000
v -1.983750 -2.050000 0.663500
v -1.983750 -2.050000 1.122500
v -1.983750 -2.050000 1.352000
v -1.983750 -2.050000 1.581500
v -1.983750 -2.050000 1.811000
v -1.983750 -2.050000 2.040500
v -1.983750 -2.050000 2.270000
v -1.983750 -2.050000 2.499500
v -1.983750 -2.050000 2.729000
v -1.983750 -2.050000 2.958500
v -1.983750 -2.050000 3.188000
v -1.983750 -2.050000 3.417500
v -1.983750 -2.050000 3.647000
v -1.983750 -2.050000 3.876500
v -1.983750 -1.983750 0.893000
v -1.983750 -1.983750 0.663500
v -1.983750 -1.983750 1.122500
v -1.983750 -1.983750 1.352000
v -1.983750 -1.983750 1.581500
v -1.983750 -1.983750 1.811000
v -1.983750 -1.983750 2.040500
v -1.983750 -1.983750 2.270000
v -1.983750 -1.983750 2.499500
v -1.983750 -1.983750 2.729000
v -1.983750 -1.983750 2.958500
v -1.983750 -1.983750 3.188000
v -1.983750 -1.983750 3.417500
v -1.983750 -1.983750 3.647000
v -1.983750 -1.983750 3.876500
f 1 2 3
f 1 3 4
f 1 5 6
f 1 6 4
f 2 3 7
f 2 7 8
f 1 2 8
f 1 8 5
f 4 3 9
f 4 9 10
f 4 6 11
f 4 11 10
f 3 9 12
f 3 12 7
f 10 9 13
f 10 13 14
f 10 11 15
f 10 15 14
f 9 13 16
f 9 16 12
f 14 13 17
f 14 17 18
f 14 15 19
f 14 19 18
f 13 17 20
f 13 20 16
f 18 17 21
f 18 21 22
f 18 19 23
f 18 23 22
f 17 21 24
f 17 24 20
f 22 21 25
f 22 25 26
f 22 23 27
f 22 27 26
f 21 25 28
f 21 28 24
f 26 25 29
f 26 29 30
f 26 27 31
f 26 31 30
f 25 29 32
f 25 32 28
f 30 29 33
f 30 33 34
f 30 31 35
f 30 35 34
f 29 33 36
f 29 36 32
f 34 33 37
f 34 37 38
f 34 35 39
f 34 39 38
f 33 37 40
f 33 40 36
f 38 37 41
f 38 41 42
f 38 39 43
f 38 43 42
f 37 41 44
f 37 44 40
f 42 41 45
f 42 45 46
f 42 43 47
f 42 47 46
f 41 45 48
f 41 48 44
f 46 45 49
f 46 49 50
f 46 47 51
f 46 51 50
f 45 49 52
f 45 52 48
f 50 49 53
f 50 53 54
f 50 51 55
f 50 55 54
f 49 53 56
f 49 56 52
f 54 53 57
f 54 57 58
f 54 55 59
f 54 59 58
f 53 57 60
f 53 60 56
f 58 59 60
f 58 60 57
f 61 5 6
f 61 6 62
f 61 63 64
f 61 64 62
f 61 5 65
f 61 65 63
f 62 6 11
f 62 11 66
f 62 64 67
f 62 67 66
f 66 11 15
f 66 15 68
f 66 67 69
f 66 69 68
f 68 15 19
f 68 19 70
f 68 69 71
f 68 71 70
f 70 19 23
f 70 23 72
f 70 71 73
f 70 73 72
f 72 23 27
f 72 27 74
f 72 73 75
f 72 75 74
f 74 27 31
f 74 31 76
f 74 75 77
f 74 77 76
f 76 31 35
f 76 35 78
f 76 77 79
f 76 79 78
f 78 35 39
f 78 39 80
f 78 79 81
f 78 81 80
f 80 39 43
f 80 43 82
f 80 81 83
f 80 83 82
f 82 43 47
f 82 47 84
f 82 83 85
f 82 85 84
f 84 47 51
f 84 51 86
f 84 85 87
f 84 87 86
f 86 51 55
f 86 55 88
f 86 87 89
f 86 89 88
f 88 55 59
f 88 59 90
f 88 89 91
f 88 91 90
f 90 91 92
f 90 92 59
f 8 7 93
f 8 93 94
f 5 8 94
f 5 94 65
f 7 12 95
f 7 95 93
f 12 16 96
f 12 96 95
f 16 20 97
f 16 97 96
f 20 24 98
f 20 98 97
f 24 28 99
f 24 99 98
f 28 32 100
f 28 100 99
f 32 36 101
f 32 101 100
f 36 40 102
f 36 102 101
f 40 44 103
f 40 103 102
f 44 48 104
f 44 104 103
f 48 52 105
f 48 105 104
f 52 56 106
f 52 106 105
f 56 60 107
f 56 107 106
f 59 92 107
f 59 107 60
f 108 63 64
f 108 64 109
f 108 110 111
f 108 111 109
f 108 63 112
f 108 112 110
f 109 64 67
f 109 67 113
f 109 111 114
f 109 114 113
f 113 67 69
f 113 69 115
f 113 114 116
f 113 116 115
f 115 69 71
f 115 71 117
f 115 116 118
f 115 118 117
f 117 71 73
f 117 73 119
f 117 118 120
f 117 120 119
f 119 73 75
f 119 75 121
f 119 120 122
f 119 122 121
f 121 75 77
f 121 77 123
f 121 122 124
f 121 124 123
f 123 77 79
f 123 79 125
f 123 124 126
f 123 126 125
f 125 79 81
f 125 81 127
f 125 126 128
f 125 128 127
f 127 81 83
f 127 83 129
f 127 128 130
f 127 130 129
f 129 83 85
f 129 85 131
f 129 130 132
f 129 132 131
f 131 85 87
f 131 87 133
f 131 132 134
f 131 134 133
f 133 87 89
f 133 89 135
f 133 134 136
f 133 136 135
f 135 89 91
f 135 91 137
f 135 136 138
f 135 138 137
f 137 138 139
f 137 139 91
f 63 65 140
f 63 140 112
f 91 139 141
f 91 141 92
f 94 93 142
f 94 142 143
f 65 94 143
f 65 143 140
f 93 95 144
f 93 144 142
f 95 96 145
f 95 145 144
f 96 97 146
f 96 146 145
f 97 98 147
f 97 147 146
f 98 99 148
f 98 148 147
f 99 100 149
f 99 149 148
f 100 101 150
f 100 150 149
f 101 102 151
f 101 151 150
f 102 103 152
f 102 152 151
f 103 104 153
f 103 153 152
f 104 105 154
f 104 154 153
f 105 106 155
f 105 155 154
f 106 107 156
f 106 156 155
f 92 141 156
f 92 156 107
f 157 110 111
f 157 111 158
f 157 159 160
f 157 160 158
f 157 110 161
f 157 161 159
f 158 111 114
f 158 114 162
f 158 160 163
f 158 163 162
f 162 114 116
f 162 116 164
f 162 163 165
f 162 165 164
f 164 116 118
f 164 118 166
f 164 165 167
f 164 167 166
f 166 118 120
f 166 120 168
f 166 167 169
f 166 169 168
f 168 120 122
f 168 122 170
f 168 169 171
f 168 171 170
f 170 122 124
f 170 124 172
f 170 171 173
f 170 173 172
f 172 124 126
f 172 126 174
f 172 173 175
f 172 175 174
f 174 126 128
f 174 128 176
f 174 175 177
f 174 177 176
f 176 128 130
f 176 130 178
f 176 177 179
f 176 179 178
f 178 130 132
f 178 132 180
f 178 179 181
f 178 181 180
f 180 132 134
f 180 134 182
f 180 181 183
f 180 183 182
f 182 134 136
f 182 136 184
f 182 183 185
f 182 185 184
f 184 136 138
f 184 138 186
f 184 185 187
f 184 187 186
f 186 187 188
f 186 188 138
f 110 112 189
f 110 189 161
f 138 188 190
f 138 190 139
f 112 140 191
f 112 191 189
f 139 190 192
f 139 192 141
f 143 142 193
f 143 193 194
f 140 143 194
f 140 194 191
f 142 144 195
f 142 195 193
f 144 145 196
f 144 196 195
f 145 146 197
f 145 197 196
f 146 147 198
f 146 198 197
f 147 148 199
f 147 199 198
f 148 149 200
f 148 200 199
f 149 150 201
f 149 201 200
f 150 151 202
f 150 202 201
f 151 152 203
f 151 203 202
f 152 153 204
f 152 204 203
f 153 154 205
f 153 205 204
f 154 155 206
f 154 206 205
f 155 156 207
f 155 207 206
f 141 192 207
f 141 207 156
f 208 159 160
f 208 160 209
f 208 210 211
f 208 211 209
f 208 159 212
f 208 212 210
f 209 160 163
f 209 163 213
f 209 211 214
f 209 214 213
f 213 163 165
f 213 165 215
f 213 214 216
f 213 216 215
f 215 165 167
f 215 167 217
f 215 216 218
f 215 218 217
f 217 167 169
f 217 169 219
f 217 218 220
f 217 220 219
f 219 169 171
f 219 171 221
f 219 220 222
f 219 222 221
f 221 171 173
f 221 173 223
f 221 222 224
f 221 224 223
f 223 173 175
f 223 175 225
f 223 224 226
f 223 226 225
f 225 175 177
f 225 177 227
f 225 226 228
f 225 228 227
f 227 177 179
f 227 179 229
f 227 228 230
f 227 230 229
f 229 179 181
f 229 181 231
f 229 230 232
f 229 232 231
f 231 181 183
f 231 183 233
f 231 232 234
f 231 234 233
f 233 183 185
f 233 185 235
f 233 234 236
f 233 236 235
f 235 185 187
f 235 187 237
f 235 236 238
f 235 238 237
f 237 238 239
f 237 239 187
f 159 161 240
f 159 240 212
f 187 239 241
f 187 241 188
f 161 189 242
f 161 242 240
f 188 241 243
f 188 243 190
f 189 191 244
f 189 244 242
f 190 243 245
f 190 245 192
f 194 193 246
f 194 246 247
f 191 194 247
f 191 247 244
f 193 195 248
f 193 248 246
f 195 196 249
f 195 249 248
f 196 197 250
f 196 250 249
f 197 198 251
f 197 251 250
f 198 199 252
f 198 252 251
f 199 200 253
f 199 253 252
f 200 201 254
f 200 254 253
f 201 202 255
f 201 255 254
f 202 203 256
f 202 256 255
f 203 204 257
f 203 257 256
f 204 205 258
f 204 258 257
f 205 206 259
f 205 259 258
f 206 207 260
f 206 260 259
f 192 245 260
f 192 260 207
f 261 210 211
f 261 211 262
f 261 263 264
f 261 264 262
f 261 210 265
f 261 265 263
f 262 211 214
f 262 214 266
f 262 264 267
f 262 267 266
f 266 214 216
f 266 216 268
f 266 267 269
f 266 269 268
f 268 216 218
f 268 218 270
f 268 269 271
f 268 271 270
f 270 218 220
f 270 220 272
f 270 271 273
f 270 273 272
f 272 220 222
f 272 222 274
f 272 273 275
f 272 275 274
f 274 222 224
f 274 224 276
f 274 275 277
f 274 277 276
f 276 224 226
f 276 226 278
f 276 277 279
f 276 279 278
f 278 226 228
f 278 228 280
f 278 279 281
f 278 281 280
f 280 228 230
f 280 230 282
f 280 281 283
f 280 283 282
f 282 230 232
f 282 232 284
f 282 283 285
f 282 285 284
f 284 232 234
f 284 234 286
f 284 285 287
f 284 287 286
f 286 234 236
f 286 236 288
f 286 287 289
f 286 289 288
f 288 236 238
f 288 238 290
f 288 289 291
f 288 291 290
f 290 291 292
f 290 292 238
f 210 212 293
f 210 293 265
f 238 292 294
f 238 294 239
f 212 240 295
f 212 295 293
f 239 294 296
f 239 296 241
f 240 242 297
f 240 297 295
f 241 296 298
f 241 298 243
f 242 244 299
f 242 299 297
f 243 298 300
f 243 300 245
f 247 246 301
f 247 301 302
f 244 247 302
f 244 302 299
f 246 248 303
f 246 303 301
f 248 249 304
f 248 304 303
f 249 250 305
f 249 305 304
f 250 251 306
f 250 306 305
f 251 252 307
f 251 307 306
f 252 253 308
f 252 308 307
f 253 254 309
f 253 309 308
f 254 255 310
f 254 310 309
f 255 256 311
f 255 311 310
f 256 257 312
f 256 312 311
f 257 258 313
f 257 313 312
f 258 259 314
f 258 314 313
f 259 260 315
f 259 315 314
f 245 300 315
f 245 315 260
f 316 263 264
f 316 264 317
f 316 318 319
f 316 319 317
f 316 263 320
f 316 320 318
f 317 264 267
f 317 267 321
f 317 319 322
f 317 322 321
f 321 267 269
f 321 269 323
f 321 322 324
f 321 324 323
f 323 269 271
f 323 271 325
f 323 324 326
f 323 326 325
f 325 271 273
f 325 273 327
f 325 326 328
f 325 328 327
f 327 273 275
f 327 275 329
f 327 328 330
f 327 330 329
f 329 275 277
f 329 277 331
f 329 330 332
f 329 332 331
f 331 277 279
f 331 279 333
f 331 332 334
f 331 334 333
f 333 279 281
f 333 281 335
f 333 334 336
f 333 336 335
f 335 281 283
f 335 283 337
f 335 336 338
f 335 338 337
f 337 283 285
f 337 285 339
f 337 338 340
f 337 340 339
f 339 285 287
f 339 287 341
f 339 340 342
f 339 342 341
f 341 287 289
f 341 289 343
f 341 342 344
f 341 344 343
f 343 289 291
f 343 291 345
f 343 344 346
f 343 346 345
f 345 346 347
f 345 347 291
f 263 265 348
f 263 348 320
f 291 347 349
f 291 349 292
f 265 293 350
f 265 350 348
f 292 349 351
f 292 351 294
f 293 295 352
f 293 352 350
f 294 351 353
f 294 353 296
f 295 297 354
f 295 354 352
f 296 353 355
f 296 355 298
f 297 299 356
f 297 356 354
f 298 355 357
f 298 357 300
f 302 301 358
f 302 358 359
f 299 302 359
f 299 359 356
f 301 303 360
f 301 360 358
f 303 304 361
f 303 361 360
f 304 305 362
f 304 362 361
f 305 306 363
f 305 363 362
f 306 307 364
f 306 364 363
f 307 308 365
f 307 365 364
f 308 309 366
f 308 366 365
f 309 310 367
f 309 367 366
f 310 311 368
f 310 368 367
f 311 312 369
f 311 369 368
f 312 313 370
f 312 370 369
f 313 314 371
f 313 371 370
f 314 315 372
f 314 372 371
f 300 357 372
f 300 372 315
f 373 318 319
f 373 319 374
f 373 375 376
f 373 376 374
f 373 318 377
f 373 377 375
f 374 319 322
f 374 322 378
f 374 376 379
f 374 379 378
f 378 322 324
f 378 324 380
f 378 379 381
f 378 381 380
f 380 324 326
f 380 326 382
f 380 381 383
f 380 383 382
f 382 326 328
f 382 328 384
f 382 383 385
f 382 385 384
f 384 328 330
f 384 330 386
f 384 385 387
f 384 387 386
f 386 330 332
f 386 332 388
f 386 387 389
f 386 389 388
f 388 332 334
f 388 334 390
f 388 389 391
f 388 391 390
f 390 334 336
f 390 336 392
f 390 391 393
f 390 393 392
f 392 336 338
f 392 338 394
f 392 393 395
f 392 395 394
f 394 338 340
f 394 340 396
f 394 395 397
f 394 397 396
f 396 340 342
f 396 342 398
f 396 397 399
f 396 399 398
f 398 342 344
f 398 344 400
f 398 399 401
f 398 401 400
f 400 344 346
f 400 346 402
f 400 401 403
f 400 403 402
f 402 403 404
f 402 404 346
f 318 320 405
f 318 405 377
f 346 404 406
f 346 406 347
f 320 348 407
f 320 407 405
f 347 406 408
f 347 408 349
f 348 350 409
f 348 409 407
f 349 408 410
f 349 410 351
f 350 352 411
f 350 411 409
f 351 410 412
f 351 412 353
f 352 354 413
f 352 413 411
f 353 412 414
f 353 414 355
f 354 356 415
f 354 415 413
f 355 414 416
f 355 416 357
f 359 358 417
f 359 417 418
f 356 359 418
f 356 418 415
f 358 360 419
f 358 419 417
f 360 361 420
f 360 420 419
f 361 362 421
f 361 421 420
f 362 363 422
f 362 422 421
f 363 364 423
f 363 423 422
f 364 365 424
f 364 424 423
f 365 366 425
f 365 425 424
f 366 367 426
f 366 426 425
f 367 368 427
f 367 427 426
f 368 369 428
f 368 428 427
f 369 370 429
f 369 429 428
f 370 371 430
f 370 430 429
f 371 372 431
f 371 431 430
f 357 416 431
f 357 431 372
f 432 375 376
f 432 376 433
f 432 434 435
f 432 435 433
f 432 375 436
f 432 436 434
f 433 376 379
f 433 379 437
f 433 435 438
f 433 438 437
f 437 379 381
f 437 381 439
f 437 438 440
f 437 440 439
f 439 381 383
f 439 383 441
f 439 440 442
f 439 442 441
f 441 383 385
f 441 385 443
f 441 442 444
f 441 444 443
f 443 385 387
f 443 387 445
f 443 444 446
f 443 446 445
f 445 387 389
f 445 389 447
f 445 446 448
f 445 448 447
f 447 389 391
f 447 391 449
f 447 448 450
f 447 450 449
f 449 391 393
f 449 393 451
f 449 450 452
f 449 452 451
f 451 393 395
f 451 395 453
f 451 452 454
f 451 454 453
f 453 395 397
f 453 397 455
f 453 454 456
f 453 456 455
f 455 397 399
f 455 399 457
f 455 456 458
f 455 458 457
f 457 399 401
f 457 401 459
f 457 458 460
f 457 460 459
f 459 401 403
f 459 403 461
f 459 460 462
f 459 462 461
f 461 462 463
f 461 463 403
f 375 377 464
f 375 464 436
f 403 463 465
f 403 465 404
f 377 405 466
f 377 466 464
f 404 465 467
f 404 467 406
f 405 407 468
f 405 468 466
f 406 467 469
f 406 469 408
f 407 409 470
f 407 470 468
f 408 469 471
f 408 471 410
f 409 411 472
f 409 472 470
f 410 471 473
f 410 473 412
f 411 413 474
f 411 474 472
f 412 473 475
f 412 475 414
f 413 415 476
f 413 476 474
f 414 475 477
f 414 477 416
f 418 417 478
f 418 478 479
f 415 418 479
f 415 479 476
f 417 419 480
f 417 480 478
f 419 420 481
f 419 481 480
f 420 421 482
f 420 482 481
f 421 422 483
f 421 483 482
f 422 423 484
f 422 484 483
f 423 424 485
f 423 485 484
f 424 425 486
f 424 486 485
f 425 426 487
f 425 487 486
f 426 427 488
f 426 488 487
f 427 428 489
f 427 489 488
f 428 429 490
f 428 490 489
f 429 430 491
f 429 491 490
f 430 431 492
f 430 492 491
f 416 477 492
f 416 492 431
f 493 434 435
f 493 435 494
f 493 495 496
f 493 496 494
f 493 434 497
f 493 497 495
f 494 435 438
f 494 438 498
f 494 496 499
f 494 499 498
f 498 438 440
f 498 440 500
f 498 499 501
f 498 501 500
f 500 440 442
f 500 442 502
f 500 501 503
f 500 503 502
f 502 442 444
f 502 444 504
f 502 503 505
f 502 505 504
f 504 444 446
f 504 446 506
f 504 505 507
f 504 507 506
f 506 446 448
f 506 448 508
f 506 507 509
f 506 509 508
f 508 448 450
f 508 450 510
f 508 509 511
f 508 511 510
f 510 450 452
f 510 452 512
f 510 511 513
f 510 513 512
f 512 452 454
f 512 454 514
f 512 513 515
f 512 515 514
f 514 454 456
f 514 456 516
f 514 515 517
f 514 517 516
f 516 456 458
f 516 458 518
f 516 517 519
f 516 519 518
f 518 458 460
f 518 460 520
f 518 519 521
f 518 521 520
f 520 460 462
f 520 462 522
f 520 521 523
f 520 523 522
f 522 523 524
f 522 524 462
f 434 436 525
f 434 525 497
f 462 524 526
f 462 526 463
f 436 464 527
f 436 527 525
f 463 526 528
f 463 528 465
f 464 466 529
f 464 529 527
f 465 528 530
f 465 530 467
f 466 468 531
f 466 531 529
f 467 530 532
f 467 532 469
f 468 470 533
f 468 533 531
f 469 532 534
f 469 534 471
f 470 472 535
f 470 535 533
f 471 534 536
f 471 536 473
f 472 474 537
f 472 537 535
f 473 536 538
f 473 538 475
f 474 476 539
f 474 539 537
f 475 538 540
f 475 540 477
f 479 478 541
f 479 541 542
f 476 479 542
f 476 542 539
f 478 480 543
f 478 543 541
f 480 481 544
f 480 544 543
f 481 482 545
f 481 545 544
f 482 483 546
f 482 546 545
f 483 484 547
f 483 547 546
f 484 485 548
f 484 548 547
f 485 486 549
f 485 549 548
f 486 487 550
f 486 550 549
f 487 488 551
f 487 551 550
f 488 489 552
f 488 552 551
f 489 490 553
f 489 553 552
f 490 491 554
f 490 554 553
f 491 492 555
f 491 555 554
f 477 540 555
f 477 555 492
f 556 495 496
f 556 496 557
f 558 559 560
f 558 560 561
f 556 558 559
f 556 559 557
f 556 495 561
f 556 561 558
f 557 496 499
f 557 499 562
f 559 563 564
f 559 564 560
f 557 559 563
f 557 563 562
f 562 499 501
f 562 501 565
f 563 566 567
f 563 567 564
f 562 563 566
f 562 566 565
f 565 501 503
f 565 503 568
f 566 569 570
f 566 570 567
f 565 566 569
f 565 569 568
f 568 503 505
f 568 505 571
f 569 572 573
f 569 573 570
f 568 569 572
f 568 572 571
f 571 505 507
f 571 507 574
f 572 575 576
f 572 576 573
f 571 572 575
f 571 575 574
f 574 507 509
f 574 509 577
f 575 578 579
f 575 579 576
f 574 575 578
f 574 578 577
f 577 509 511
f 577 511 580
f 578 581 582
f 578 582 579
f 577 578 581
f 577 581 580
f 580 511 513
f 580 513 583
f 581 584 585
f 581 585 582
f 580 581 584
f 580 584 583
f 583 513 515
f 583 515 586
f 584 587 588
f 584 588 585
f 583 584 587
f 583 587 586
f 586 515 517
f 586 517 589
f 587 590 591
f 587 591 588
f 586 587 590
f 586 590 589
f 589 517 519
f 589 519 592
f 590 593 594
f 590 594 591
f 589 590 593
f 589 593 592
f 592 519 521
f 592 521 595
f 593 596 597
f 593 597 594
f 592 593 596
f 592 596 595
f 595 521 523
f 595 523 598
f 596 599 600
f 596 600 597
f 595 596 599
f 595 599 598
f 598 599 600
f 598 600 523
f 561 560 601
f 561 601 602
f 495 497 602
f 495 602 561
f 560 564 603
f 560 603 601
f 564 567 604
f 564 604 603
f 567 570 605
f 567 605 604
f 570 573 606
f 570 606 605
f 573 576 607
f 573 607 606
f 576 579 608
f 576 608 607
f 579 582 609
f 579 609 608
f 582 585 610
f 582 610 609
f 585 588 611
f 585 611 610
f 588 591 612
f 588 612 611
f 591 594 613
f 591 613 612
f 594 597 614
f 594 614 613
f 597 600 615
f 597 615 614
f 523 600 615
f 523 615 524
f 602 601 616
f 602 616 617
f 497 525 617
f 497 617 602
f 601 603 618
f 601 618 616
f 603 604 619
f 603 619 618
f 604 605 620
f 604 620 619
f 605 606 621
f 605 621 620
f 606 607 622
f 606 622 621
f 607 608 623
f 607 623 622
f 608 609 624
f 608 624 623
f 609 610 625
f 609 625 624
f 610 611 626
f 610 626 625
f 611 612 627
f 611 627 626
f 612 613 628
f 612 628 627
f 613 614 629
f 613 629 628
f 614 615 630
f 614 630 629
f 524 615 630
f 524 630 526
f 617 616 631
f 617 631 632
f 525 527 632
f 525 632 617
f 616 618 633
f 616 633 631
f 618 619 634
f 618 634 633
f 619 620 635
f 619 635 634
f 620 621 636
f 620 636 635
f 621 622 637
f 621 637 636
f 622 623 638
f 622 638 637
f 623 624 639
f 623 639 638
f 624 625 640
f 624 640 639
f 625 626 641
f 625 641 640
f 626 627 642
f 626 642 641
f 627 628 643
f 627 643 642
f 628 629 644
f 628 644 643
f 629 630 645
f 629 645 644
f 526 630 645
f 526 645 528
f 632 631 646
f 632 646 647
f 527 529 647
f 527 647 632
f 631 633 648
f 631 648 646
f 633 634 649
f 633 649 648
f 634 635 650
f 634 650 649
f 635 636 651
f 635 651 650
f 636 637 652
f 636 652 651
f 637 638 653
f 637 653 652
f 638 639 654
f 638 654 653
f 639 640 655
f 639 655 654
f 640 641 656
f 640 656 655
f 641 642 657
f 641 657 656
f 642 643 658
f 642 658 657
f 643 644 659
f 643 659 658
f 644 645 660
f 644 660 659
f 528 645 660
f 528 660 530
f 647 646 661
f 647 661 662
f 529 531 662
f 529 662 647
f 646 648 663
f 646 663 661
f 648 649 664
f 648 664 663
f 649 650 665
f 649 665 664
f 650 651 666
f 650 666 665
f 651 652 667
f 651 667 666
f 652 653 668
f 652 668 667
f 653 654 669
f 653 669 668
f 654 655 670
f 654 670 669
f 655 656 671
f 655 671 670
f 656 657 672
f 656 672 671
f 657 658 673
f 657 673 672
f 658 659 674
f 658 674 673
f 659 660 675
f 659 675 674
f 530 660 675
f 530 675 532
f 662 661 676
f 662 676 677
f 531 533 677
f 531 677 662
f 661 663 678
f 661 678 676
f 663 664 679
f 663 679 678
f 664 665 680
f 664 680 679
f 665 666 681
f 665 681 680
f 666 667 682
f 666 682 681
f 667 668 683
f 667 683 682
f 668 669 684
f 668 684 683
f 669 670 685
f 669 685 684
f 670 671 686
f 670 686 685
f 671 672 687
f 671 687 686
f 672 673 688
f 672 688 687
f 673 674 689
f 673 689 688
f 674 675 690
f 674 690 689
f 532 675 690
f 532 690 534
f 677 676 691
f 677 691 692
f 533 535 692
f 533 692 677
f 676 678 693
f 676 693 691
f 678 679 694
f 678 694 693
f 679 680 695
f 679 695 694
f 680 681 696
f 680 696 695
f 681 682 697
f 681 697 696
f 682 683 698
f 682 698 697
f 683 684 699
f 683 699 698
f 684 685 700
f 684 700 699
f 685 686 701
f 685 701 700
f 686 687 702
f 686 702 701
f 687 688 703
f 687 703 702
f 688 689 704
f 688 704 703
f 689 690 705
f 689 705 704
f 534 690 705
f 534 705 536
f 692 691 706
f 692 706 707
f 535 537 707
f 535 707 692
f 691 693 708
f 691 708 706
f 693 694 709
f 693 709 708
f 694 695 710
f 694 710 709
f 695 696 711
f 695 711 710
f 696 697 712
f 696 712 711
f 697 698 713
f 697 713 712
f 698 699 714
f 698 714 713
f 699 700 715
f 699 715 714
f 700 701 716
f 700 716 715
f 701 702 717
f 701 717 716
f 702 703 718
f 702 718 717
f 703 704 719
f 703 719 718
f 704 705 720
f 704 720 719
f 536 705 720
f 536 720 538
f 707 706 721
f 707 721 722
f 537 539 722
f 537 722 707
f 706 708 723
f 706 723 721
f 708 709 724
f 708 724 723
f 709 710 725
f 709 725 724
f 710 711 726
f 710 726 725
f 711 712 727
f 711 727 726
f 712 713 728
f 712 728 727
f 713 714 729
f 713 729 728
f 714 715 730
f 714 730 729
f 715 716 731
f 715 731 730
f 716 717 732
f 716 732 731
f 717 718 733
f 717 733 732
f 718 719 734
f 718 734 733
f 719 720 735
f 719 735 734
f 538 720 735
f 538 735 540
f 722 721 736
f 722 736 737
f 542 541 736
f 542 736 737
f 539 542 737
f 539 737 722
f 721 723 738
f 721 738 736
f 541 543 738
f 541 738 736
f 723 724 739
f 723 739 738
f 543 544 739
f 543 739 738
f 724 725 740
f 724 740 739
f 544 545 740
f 544 740 739
f 725 726 741
f 725 741 740
f 545 546 741
f 545 741 740
f 726 727 742
f 726 742 741
f 546 547 742
f 546 742 741
f 727 728 743
f 727 743 742
f 547 548 743
f 547 743 742
f 728 729 744
f 728 744 743
f 548 549 744
f 548 744 743
f 729 730 745
f 729 745 744
f 549 550 745
f 549 745 744
f 730 731 746
f 730 746 745
f 550 551 746
f 550 746 745
f 731 732 747
f 731 747 746
f 551 552 747
f 551 747 746
f 732 733 748
f 732 748 747
f 552 553 748
f 552 748 747
f 733 734 749
f 733 749 748
f 553 554 749
f 553 749 748
f 734 735 750
f 734 750 749
f 554 555 750
f 554 750 749
f 540 735 750
f 540 750 555
