o [4B] 3D Diagram - S2-02 Group C_203
v -2.712500 1.983750 3.985000
v -2.712500 2.050000 3.985000
v -2.712500 2.050000 4.027500
v -2.712500 1.983750 4.027500
v -2.646250 1.983750 3.985000
v -2.646250 1.983750 4.027500
v -2.646250 2.050000 4.027500
v -2.646250 2.050000 3.985000
v -2.712500 2.050000 4.070000
v -2.712500 1.983750 4.070000
v -2.646250 1.983750 4.070000
v -2.646250 2.050000 4.070000
v -2.712500 2.050000 4.112500
v -2.712500 1.983750 4.112500
v -2.646250 1.983750 4.112500
v -2.646250 2.050000 4.112500
v -2.712500 2.050000 4.155000
v -2.712500 1.983750 4.155000
v -2.646250 1.983750 4.155000
v -2.646250 2.050000 4.155000
v -2.580000 1.983750 3.985000
v -2.580000 1.983750 4.027500
v -2.580000 2.050000 3.985000
v -2.580000 1.983750 4.070000
v -2.580000 1.983750 4.112500
v -2.580000 1.983750 4.155000
v -2.580000 2.050000 4.155000
v -2.646250 2.116250 3.985000
v -2.646250 2.116250 4.027500
v -2.580000 2.116250 4.027500
v -2.580000 2.116250 3.985000
v -2.646250 2.116250 4.070000
v -2.580000 2.116250 4.070000
v -2.646250 2.116250 4.112500
v -2.580000 2.116250 4.112500
v -2.646250 2.116250 4.155000
v -2.580000 2.116250 4.155000
v -2.513750 1.983750 3.985000
v -2.513750 1.983750 4.027500
v -2.513750 2.050000 3.985000
v -2.513750 1.983750 4.070000
v -2.513750 1.983750 4.112500
v -2.513750 1.983750 4.155000
v -2.513750 2.050000 4.155000
v -2.513750 2.116250 3.985000
v -2.513750 2.116250 4.155000
v -2.580000 2.182500 3.985000
v -2.580000 2.182500 4.027500
v -2.513750 2.182500 4.027500
v -2.513750 2.182500 3.985000
v -2.580000 2.182500 4.070000
v -2.513750 2.182500 4.070000
v -2.580000 2.182500 4.112500
v -2.513750 2.182500 4.112500
v -2.580000 2.182500 4.155000
v -2.513750 2.182500 4.155000
v -2.447500 1.983750 3.985000
v -2.447500 1.983750 4.027500
v -2.447500 2.050000 4.027500
v -2.447500 2.050000 3.985000
v -2.447500 1.983750 4.070000
v -2.447500 2.050000 4.070000
v -2.447500 1.983750 4.112500
v -2.447500 2.050000 4.112500
v -2.447500 1.983750 4.155000
v -2.447500 2.050000 4.155000
v -2.447500 2.116250 3.985000
v -2.447500 2.116250 4.155000
v -2.447500 2.182500 3.985000
v -2.447500 2.182500 4.155000
v -2.513750 2.248750 3.985000
v -2.513750 2.248750 4.027500
v -2.447500 2.248750 4.027500
v -2.447500 2.248750 3.985000
v -2.513750 2.248750 4.070000
v -2.447500 2.248750 4.070000
v -2.513750 2.248750 4.112500
v -2.447500 2.248750 4.112500
v -2.513750 2.248750 4.155000
v -2.447500 2.248750 4.155000
v -2.381250 2.050000 3.985000
v -2.381250 2.050000 4.027500
v -2.381250 2.116250 4.027500
v -2.381250 2.116250 3.985000
v -2.381250 2.050000 4.070000
v -2.381250 2.116250 4.070000
v -2.381250 2.050000 4.112500
v -2.381250 2.116250 4.112500
v -2.381250 2.050000 4.155000
v -2.381250 2.116250 4.155000
v -2.381250 2.182500 3.985000
v -2.381250 2.182500 4.155000
v -2.381250 2.248750 3.985000
v -2.381250 2.248750 4.155000
v -2.447500 2.315000 3.985000
v -2.447500 2.315000 4.027500
v -2.381250 2.315000 4.027500
v -2.381250 2.315000 3.985000
v -2.447500 2.315000 4.070000
v -2.381250 2.315000 4.070000
v -2.447500 2.315000 4.112500
v -2.381250 2.315000 4.112500
v -2.447500 2.315000 4.155000
v -2.381250 2.315000 4.155000
v -2.315000 2.116250 3.985000
v -2.315000 2.116250 4.027500
v -2.315000 2.182500 4.027500
v -2.315000 2.182500 3.985000
v -2.315000 2.116250 4.070000
v -2.315000 2.182500 4.070000
v -2.315000 2.116250 4.112500
v -2.315000 2.182500 4.112500
v -2.315000 2.116250 4.155000
v -2.315000 2.182500 4.155000
v -2.315000 2.248750 3.985000
v -2.315000 2.248750 4.155000
v -2.315000 2.315000 3.985000
v -2.315000 2.315000 4.155000
v -2.381250 2.381250 3.985000
v -2.381250 2.381250 4.027500
v -2.315000 2.381250 4.027500
v -2.315000 2.381250 3.985000
v -2.381250 2.381250 4.070000
v -2.315000 2.381250 4.070000
v -2.381250 2.381250 4.112500
v -2.315000 2.381250 4.112500
v -2.381250 2.381250 4.155000
v -2.315000 2.381250 4.155000
v -2.248750 2.182500 3.985000
v -2.248750 2.182500 4.027500
v -2.248750 2.248750 4.027500
v -2.248750 2.248750 3.985000
v -2.248750 2.182500 4.070000
v -2.248750 2.248750 4.070000
v -2.248750 2.182500 4.112500
v -2.248750 2.248750 4.112500
v -2.248750 2.182500 4.155000
v -2.248750 2.248750 4.155000
v -2.248750 2.315000 3.985000
v -2.248750 2.315000 4.155000
v -2.248750 2.381250 3.985000
v -2.248750 2.381250 4.155000
v -2.315000 2.447500 3.985000
v -2.315000 2.447500 4.027500
v -2.248750 2.447500 4.027500
v -2.248750 2.447500 3.985000
v -2.315000 2.447500 4.070000
v -2.248750 2.447500 4.070000
v -2.315000 2.447500 4.112500
v -2.248750 2.447500 4.112500
v -2.315000 2.447500 4.155000
v -2.248750 2.447500 4.155000
v -2.182500 2.248750 3.985000
v -2.182500 2.248750 4.027500
v -2.182500 2.315000 4.027500
v -2.182500 2.315000 3.985000
v -2.182500 2.248750 4.070000
v -2.182500 2.315000 4.070000
v -2.182500 2.248750 4.112500
v -2.182500 2.315000 4.112500
v -2.182500 2.248750 4.155000
v -2.182500 2.315000 4.155000
v -2.182500 2.381250 3.985000
v -2.182500 2.381250 4.155000
v -2.182500 2.447500 3.985000
v -2.182500 2.447500 4.155000
v -2.248750 2.513750 3.985000
v -2.248750 2.513750 4.027500
v -2.182500 2.513750 4.027500
v -2.182500 2.513750 3.985000
v -2.248750 2.513750 4.070000
v -2.182500 2.513750 4.070000
v -2.248750 2.513750 4.112500
v -2.182500 2.513750 4.112500
v -2.248750 2.513750 4.155000
v -2.182500 2.513750 4.155000
v -2.116250 2.315000 3.985000
v -2.116250 2.315000 4.027500
v -2.116250 2.381250 4.027500
v -2.116250 2.381250 3.985000
v -2.116250 2.315000 4.070000
v -2.116250 2.381250 4.070000
v -2.116250 2.315000 4.112500
v -2.116250 2.381250 4.112500
v -2.116250 2.315000 4.155000
v -2.116250 2.381250 4.155000
v -2.116250 2.447500 3.985000
v -2.116250 2.447500 4.155000
v -2.116250 2.513750 3.985000
v -2.116250 2.513750 4.155000
v -2.182500 2.580000 3.985000
v -2.182500 2.580000 4.027500
v -2.116250 2.580000 4.027500
v -2.116250 2.580000 3.985000
v -2.182500 2.580000 4.070000
v -2.116250 2.580000 4.070000
v -2.182500 2.580000 4.112500
v -2.116250 2.580000 4.112500
v -2.182500 2.580000 4.155000
v -2.116250 2.580000 4.155000
v -2.050000 2.381250 3.985000
v -2.050000 2.381250 4.027500
v -2.050000 2.447500 4.027500
v -2.050000 2.447500 3.985000
v -2.050000 2.381250 4.070000
v -2.050000 2.447500 4.070000
v -2.050000 2.381250 4.112500
v -2.050000 2.447500 4.112500
v -2.050000 2.381250 4.155000
v -2.050000 2.447500 4.155000
v -2.050000 2.513750 3.985000
v -2.050000 2.513750 4.155000
v -2.050000 2.580000 3.985000
v -2.050000 2.580000 4.155000
v -2.116250 2.646250 3.985000
v -2.116250 2.646250 4.027500
v -2.050000 2.646250 4.027500
v -2.050000 2.646250 3.985000
v -2.116250 2.646250 4.070000
v -2.050000 2.646250 4.070000
v -2.116250 2.646250 4.112500
v -2.050000 2.646250 4.112500
v -2.116250 2.646250 4.155000
v -2.050000 2.646250 4.155000
v -1.983750 2.447500 3.985000
v -1.983750 2.447500 4.027500
v -1.983750 2.513750 4.027500
v -1.983750 2.513750 3.985000
v -1.983750 2.447500 4.070000
v -1.983750 2.513750 4.070000
v -1.983750 2.447500 4.112500
v -1.983750 2.513750 4.112500
v -1.983750 2.447500 4.155000
v -1.983750 2.513750 4.155000
v -1.983750 2.580000 4.027500
v -1.983750 2.580000 3.985000
v -1.983750 2.580000 4.070000
v -1.983750 2.580000 4.112500
v -1.983750 2.580000 4.155000
v -1.983750 2.646250 4.027500
v -1.983750 2.646250 3.985000
v -1.983750 2.646250 4.070000
v -1.983750 2.646250 4.112500
v -1.983750 2.646250 4.155000
v -2.050000 2.712500 3.985000
v -2.050000 2.712500 4.027500
v -1.983750 2.712500 4.027500
v -1.983750 2.712500 3.985000
v -2.050000 2.712500 4.070000
v -1.983750 2.712500 4.070000
v -2.050000 2.712500 4.112500
v -1.983750 2.712500 4.112500
v -2.050000 2.712500 4.155000
v -1.983750 2.712500 4.155000
f 1 2 3
f 1 3 4
f 1 5 6
f 1 6 4
f 2 3 7
f 2 7 8
f 1 2 8
f 1 8 5
f 4 3 9
f 4 9 10
f 4 6 11
f 4 11 10
f 3 9 12
f 3 12 7
f 10 9 13
f 10 13 14
f 10 11 15
f 10 15 14
f 9 13 16
f 9 16 12
f 14 13 17
f 14 17 18
f 14 15 19
f 14 19 18
f 13 17 20
f 13 20 16
f 18 19 20
f 18 20 17
f 5 21 22
f 5 22 6
f 5 8 23
f 5 23 21
f 6 22 24
f 6 24 11
f 11 24 25
f 11 25 15
f 15 25 26
f 15 26 19
f 19 26 27
f 19 27 20
f 8 28 29
f 8 29 7
f 28 29 30
f 28 30 31
f 8 28 31
f 8 31 23
f 7 29 32
f 7 32 12
f 29 32 33
f 29 33 30
f 12 32 34
f 12 34 16
f 32 34 35
f 32 35 33
f 16 34 36
f 16 36 20
f 34 36 37
f 34 37 35
f 20 27 37
f 20 37 36
f 21 38 39
f 21 39 22
f 21 23 40
f 21 40 38
f 22 39 41
f 22 41 24
f 24 41 42
f 24 42 25
f 25 42 43
f 25 43 26
f 26 43 44
f 26 44 27
f 23 31 45
f 23 45 40
f 27 44 46
f 27 46 37
f 31 47 48
f 31 48 30
f 47 48 49
f 47 49 50
f 31 47 50
f 31 50 45
f 30 48 51
f 30 51 33
f 48 51 52
f 48 52 49
f 33 51 53
f 33 53 35
f 51 53 54
f 51 54 52
f 35 53 55
f 35 55 37
f 53 55 56
f 53 56 54
f 37 46 56
f 37 56 55
f 57 58 59
f 57 59 60
f 38 57 58
f 38 58 39
f 38 40 60
f 38 60 57
f 58 61 62
f 58 62 59
f 39 58 61
f 39 61 41
f 61 63 64
f 61 64 62
f 41 61 63
f 41 63 42
f 63 65 66
f 63 66 64
f 42 63 65
f 42 65 43
f 43 65 66
f 43 66 44
f 40 45 67
f 40 67 60
f 44 66 68
f 44 68 46
f 45 50 69
f 45 69 67
f 46 68 70
f 46 70 56
f 50 71 72
f 50 72 49
f 71 72 73
f 71 73 74
f 50 71 74
f 50 74 69
f 49 72 75
f 49 75 52
f 72 75 76
f 72 76 73
f 52 75 77
f 52 77 54
f 75 77 78
f 75 78 76
f 54 77 79
f 54 79 56
f 77 79 80
f 77 80 78
f 56 70 80
f 56 80 79
f 81 82 83
f 81 83 84
f 60 81 82
f 60 82 59
f 60 67 84
f 60 84 81
f 82 85 86
f 82 86 83
f 59 82 85
f 59 85 62
f 85 87 88
f 85 88 86
f 62 85 87
f 62 87 64
f 87 89 90
f 87 90 88
f 64 87 89
f 64 89 66
f 66 89 90
f 66 90 68
f 67 69 91
f 67 91 84
f 68 90 92
f 68 92 70
f 69 74 93
f 69 93 91
f 70 92 94
f 70 94 80
f 74 95 96
f 74 96 73
f 95 96 97
f 95 97 98
f 74 95 98
f 74 98 93
f 73 96 99
f 73 99 76
f 96 99 100
f 96 100 97
f 76 99 101
f 76 101 78
f 99 101 102
f 99 102 100
f 78 101 103
f 78 103 80
f 101 103 104
f 101 104 102
f 80 94 104
f 80 104 103
f 105 106 107
f 105 107 108
f 84 105 106
f 84 106 83
f 84 91 108
f 84 108 105
f 106 109 110
f 106 110 107
f 83 106 109
f 83 109 86
f 109 111 112
f 109 112 110
f 86 109 111
f 86 111 88
f 111 113 114
f 111 114 112
f 88 111 113
f 88 113 90
f 90 113 114
f 90 114 92
f 91 93 115
f 91 115 108
f 92 114 116
f 92 116 94
f 93 98 117
f 93 117 115
f 94 116 118
f 94 118 104
f 98 119 120
f 98 120 97
f 119 120 121
f 119 121 122
f 98 119 122
f 98 122 117
f 97 120 123
f 97 123 100
f 120 123 124
f 120 124 121
f 100 123 125
f 100 125 102
f 123 125 126
f 123 126 124
f 102 125 127
f 102 127 104
f 125 127 128
f 125 128 126
f 104 118 128
f 104 128 127
f 129 130 131
f 129 131 132
f 108 129 130
f 108 130 107
f 108 115 132
f 108 132 129
f 130 133 134
f 130 134 131
f 107 130 133
f 107 133 110
f 133 135 136
f 133 136 134
f 110 133 135
f 110 135 112
f 135 137 138
f 135 138 136
f 112 135 137
f 112 137 114
f 114 137 138
f 114 138 116
f 115 117 139
f 115 139 132
f 116 138 140
f 116 140 118
f 117 122 141
f 117 141 139
f 118 140 142
f 118 142 128
f 122 143 144
f 122 144 121
f 143 144 145
f 143 145 146
f 122 143 146
f 122 146 141
f 121 144 147
f 121 147 124
f 144 147 148
f 144 148 145
f 124 147 149
f 124 149 126
f 147 149 150
f 147 150 148
f 126 149 151
f 126 151 128
f 149 151 152
f 149 152 150
f 128 142 152
f 128 152 151
f 153 154 155
f 153 155 156
f 132 153 154
f 132 154 131
f 132 139 156
f 132 156 153
f 154 157 158
f 154 158 155
f 131 154 157
f 131 157 134
f 157 159 160
f 157 160 158
f 134 157 159
f 134 159 136
f 159 161 162
f 159 162 160
f 136 159 161
f 136 161 138
f 138 161 162
f 138 162 140
f 139 141 163
f 139 163 156
f 140 162 164
f 140 164 142
f 141 146 165
f 141 165 163
f 142 164 166
f 142 166 152
f 146 167 168
f 146 168 145
f 167 168 169
f 167 169 170
f 146 167 170
f 146 170 165
f 145 168 171
f 145 171 148
f 168 171 172
f 168 172 169
f 148 171 173
f 148 173 150
f 171 173 174
f 171 174 172
f 150 173 175
f 150 175 152
f 173 175 176
f 173 176 174
f 152 166 176
f 152 176 175
f 177 178 179
f 177 179 180
f 156 177 178
f 156 178 155
f 156 163 180
f 156 180 177
f 178 181 182
f 178 182 179
f 155 178 181
f 155 181 158
f 181 183 184
f 181 184 182
f 158 181 183
f 158 183 160
f 183 185 186
f 183 186 184
f 160 183 185
f 160 185 162
f 162 185 186
f 162 186 164
f 163 165 187
f 163 187 180
f 164 186 188
f 164 188 166
f 165 170 189
f 165 189 187
f 166 188 190
f 166 190 176
f 170 191 192
f 170 192 169
f 191 192 193
f 191 193 194
f 170 191 194
f 170 194 189
f 169 192 195
f 169 195 172
f 192 195 196
f 192 196 193
f 172 195 197
f 172 197 174
f 195 197 198
f 195 198 196
f 174 197 199
f 174 199 176
f 197 199 200
f 197 200 198
f 176 190 200
f 176 200 199
f 201 202 203
f 201 203 204
f 180 201 202
f 180 202 179
f 180 187 204
f 180 204 201
f 202 205 206
f 202 206 203
f 179 202 205
f 179 205 182
f 205 207 208
f 205 208 206
f 182 205 207
f 182 207 184
f 207 209 210
f 207 210 208
f 184 207 209
f 184 209 186
f 186 209 210
f 186 210 188
f 187 189 211
f 187 211 204
f 188 210 212
f 188 212 190
f 189 194 213
f 189 213 211
f 190 212 214
f 190 214 200
f 194 215 216
f 194 216 193
f 215 216 217
f 215 217 218
f 194 215 218
f 194 218 213
f 193 216 219
f 193 219 196
f 216 219 220
f 216 220 217
f 196 219 221
f 196 221 198
f 219 221 222
f 219 222 220
f 198 221 223
f 198 223 200
f 221 223 224
f 221 224 222
f 200 214 224
f 200 224 223
f 225 226 227
f 225 227 228
f 204 225 226
f 204 226 203
f 204 211 228
f 204 228 225
f 226 229 230
f 226 230 227
f 203 226 229
f 203 229 206
f 229 231 232
f 229 232 230
f 206 229 231
f 206 231 208
f 231 233 234
f 231 234 232
f 208 231 233
f 208 233 210
f 210 233 234
f 210 234 212
f 228 227 235
f 228 235 236
f 211 213 236
f 211 236 228
f 227 230 237
f 227 237 235
f 230 232 238
f 230 238 237
f 232 234 239
f 232 239 238
f 212 234 239
f 212 239 214
f 236 235 240
f 236 240 241
f 213 218 241
f 213 241 236
f 235 237 242
f 235 242 240
f 237 238 243
f 237 243 242
f 238 239 244
f 238 244 243
f 214 239 244
f 214 244 224
f 218 245 246
f 218 246 217
f 241 240 247
f 241 247 248
f 245 246 247
f 245 247 248
f 218 245 248
f 218 248 241
f 217 246 249
f 217 249 220
f 240 242 250
f 240 250 247
f 246 249 250
f 246 250 247
f 220 249 251
f 220 251 222
f 242 243 252
f 242 252 250
f 249 251 252
f 249 252 250
f 222 251 253
f 222 253 224
f 243 244 254
f 243 254 252
f 251 253 254
f 251 254 252
f 224 244 254
f 224 254 253
