o [4B] 3D Diagram - S2-07 Group E_71
v 5.381442 14.011570 0.112750
v 5.381442 14.143958 0.112750
v 5.381442 14.143958 0.389500
v 5.381442 14.011570 0.389500
v 5.520458 14.011570 0.112750
v 5.520458 14.011570 0.389500
v 5.520458 14.143958 0.112750
v 5.381442 14.143958 0.666250
v 5.381442 14.011570 0.666250
v 5.520458 14.011570 0.666250
v 5.381442 14.143958 0.943000
v 5.381442 14.011570 0.943000
v 5.520458 14.011570 0.943000
v 5.381442 14.143958 1.219750
v 5.381442 14.011570 1.219750
v 5.520458 14.011570 1.219750
v 5.381442 14.143958 1.496500
v 5.381442 14.011570 1.496500
v 5.520458 14.011570 1.496500
v 5.381442 14.143958 1.773250
v 5.381442 14.011570 1.773250
v 5.520458 14.011570 1.773250
v 5.381442 14.143958 2.050000
v 5.381442 14.011570 2.050000
v 5.520458 14.011570 2.050000
v 5.381442 14.143958 2.326750
v 5.381442 14.011570 2.326750
v 5.520458 14.011570 2.326750
v 5.381442 14.143958 2.603500
v 5.381442 14.011570 2.603500
v 5.520458 14.011570 2.603500
v 5.381442 14.143958 2.880250
v 5.381442 14.011570 2.880250
v 5.520458 14.011570 2.880250
v 5.381442 14.143958 3.157000
v 5.381442 14.011570 3.157000
v 5.520458 14.011570 3.157000
v 5.381442 14.143958 3.433750
v 5.381442 14.011570 3.433750
v 5.520458 14.011570 3.433750
v 5.381442 14.143958 3.710500
v 5.381442 14.011570 3.710500
v 5.520458 14.011570 3.710500
v 5.381442 14.143958 3.987250
v 5.381442 14.011570 3.987250
v 5.520458 14.011570 3.987250
v 5.520458 14.143958 3.987250
v 5.381442 14.276347 0.112750
v 5.381442 14.276347 0.389500
v 5.520458 14.276347 0.389500
v 5.520458 14.276347 0.112750
v 5.381442 14.276347 0.666250
v 5.520458 14.276347 0.666250
v 5.381442 14.276347 0.943000
v 5.520458 14.276347 0.943000
v 5.381442 14.276347 1.219750
v 5.520458 14.276347 1.219750
v 5.381442 14.276347 1.496500
v 5.520458 14.276347 1.496500
v 5.381442 14.276347 1.773250
v 5.520458 14.276347 1.773250
v 5.381442 14.276347 2.050000
v 5.520458 14.276347 2.050000
v 5.381442 14.276347 2.326750
v 5.520458 14.276347 2.326750
v 5.381442 14.276347 2.603500
v 5.520458 14.276347 2.603500
v 5.381442 14.276347 2.880250
v 5.520458 14.276347 2.880250
v 5.381442 14.276347 3.157000
v 5.520458 14.276347 3.157000
v 5.381442 14.276347 3.433750
v 5.520458 14.276347 3.433750
v 5.381442 14.276347 3.710500
v 5.520458 14.276347 3.710500
v 5.381442 14.276347 3.987250
v 5.520458 14.276347 3.987250
v 5.520458 13.879181 0.112750
v 5.520458 13.879181 0.389500
v 5.659474 13.879181 0.112750
v 5.659474 13.879181 0.389500
v 5.659474 14.011570 0.112750
v 5.520458 13.879181 0.666250
v 5.659474 13.879181 0.666250
v 5.520458 13.879181 0.943000
v 5.659474 13.879181 0.943000
v 5.520458 13.879181 1.219750
v 5.659474 13.879181 1.219750
v 5.520458 13.879181 1.496500
v 5.659474 13.879181 1.496500
v 5.520458 13.879181 1.773250
v 5.659474 13.879181 1.773250
v 5.520458 13.879181 2.050000
v 5.659474 13.879181 2.050000
v 5.520458 13.879181 2.326750
v 5.659474 13.879181 2.326750
v 5.520458 13.879181 2.603500
v 5.659474 13.879181 2.603500
v 5.520458 13.879181 2.880250
v 5.659474 13.879181 2.880250
v 5.520458 13.879181 3.157000
v 5.659474 13.879181 3.157000
v 5.520458 13.879181 3.433750
v 5.659474 13.879181 3.433750
v 5.520458 13.879181 3.710500
v 5.659474 13.879181 3.710500
v 5.520458 13.879181 3.987250
v 5.659474 13.879181 3.987250
v 5.659474 14.011570 3.987250
v 5.659474 14.143958 0.112750
v 5.659474 14.143958 3.987250
v 5.659474 14.276347 0.112750
v 5.659474 14.276347 3.987250
v 5.520458 14.408735 0.112750
v 5.520458 14.408735 0.389500
v 5.659474 14.408735 0.112750
v 5.520458 14.408735 0.666250
v 5.520458 14.408735 0.943000
v 5.520458 14.408735 1.219750
v 5.520458 14.408735 1.496500
v 5.520458 14.408735 1.773250
v 5.520458 14.408735 2.050000
v 5.520458 14.408735 2.326750
v 5.520458 14.408735 2.603500
v 5.520458 14.408735 2.880250
v 5.520458 14.408735 3.157000
v 5.520458 14.408735 3.433750
v 5.520458 14.408735 3.710500
v 5.520458 14.408735 3.987250
v 5.659474 14.408735 3.987250
v 5.520458 14.541123 0.112750
v 5.520458 14.541123 0.389500
v 5.659474 14.541123 0.389500
v 5.659474 14.541123 0.112750
v 5.520458 14.541123 0.666250
v 5.659474 14.541123 0.666250
v 5.520458 14.541123 0.943000
v 5.659474 14.541123 0.943000
v 5.520458 14.541123 1.219750
v 5.659474 14.541123 1.219750
v 5.520458 14.541123 1.496500
v 5.659474 14.541123 1.496500
v 5.520458 14.541123 1.773250
v 5.659474 14.541123 1.773250
v 5.520458 14.541123 2.050000
v 5.659474 14.541123 2.050000
v 5.520458 14.541123 2.326750
v 5.659474 14.541123 2.326750
v 5.520458 14.541123 2.603500
v 5.659474 14.541123 2.603500
v 5.520458 14.541123 2.880250
v 5.659474 14.541123 2.880250
v 5.520458 14.541123 3.157000
v 5.659474 14.541123 3.157000
v 5.520458 14.541123 3.433750
v 5.659474 14.541123 3.433750
v 5.520458 14.541123 3.710500
v 5.659474 14.541123 3.710500
v 5.520458 14.541123 3.987250
v 5.659474 14.541123 3.987250
v 5.798490 13.879181 0.112750
v 5.798490 13.879181 0.389500
v 5.798490 14.011570 0.112750
v 5.798490 13.879181 0.666250
v 5.798490 13.879181 0.943000
v 5.798490 13.879181 1.219750
v 5.798490 13.879181 1.496500
v 5.798490 13.879181 1.773250
v 5.798490 13.879181 2.050000
v 5.798490 13.879181 2.326750
v 5.798490 13.879181 2.603500
v 5.798490 13.879181 2.880250
v 5.798490 13.879181 3.157000
v 5.798490 13.879181 3.433750
v 5.798490 13.879181 3.710500
v 5.798490 13.879181 3.987250
v 5.798490 14.011570 3.987250
v 5.798490 14.143958 0.112750
v 5.798490 14.143958 3.987250
v 5.798490 14.276347 0.112750
v 5.798490 14.276347 3.987250
v 5.798490 14.408735 0.112750
v 5.798490 14.408735 3.987250
v 5.798490 14.541123 0.112750
v 5.798490 14.541123 3.987250
v 5.659474 14.673512 0.112750
v 5.659474 14.673512 0.389500
v 5.798490 14.673512 0.112750
v 5.659474 14.673512 0.666250
v 5.659474 14.673512 0.943000
v 5.659474 14.673512 1.219750
v 5.659474 14.673512 1.496500
v 5.659474 14.673512 1.773250
v 5.659474 14.673512 2.050000
v 5.659474 14.673512 2.326750
v 5.659474 14.673512 2.603500
v 5.659474 14.673512 2.880250
v 5.659474 14.673512 3.157000
v 5.659474 14.673512 3.433750
v 5.659474 14.673512 3.710500
v 5.659474 14.673512 3.987250
v 5.798490 14.673512 3.987250
v 5.659474 14.805900 0.112750
v 5.659474 14.805900 0.389500
v 5.798490 14.805900 0.389500
v 5.798490 14.805900 0.112750
v 5.659474 14.805900 0.666250
v 5.798490 14.805900 0.666250
v 5.659474 14.805900 0.943000
v 5.798490 14.805900 0.943000
v 5.659474 14.805900 1.219750
v 5.798490 14.805900 1.219750
v 5.659474 14.805900 1.496500
v 5.798490 14.805900 1.496500
v 5.659474 14.805900 1.773250
v 5.798490 14.805900 1.773250
v 5.659474 14.805900 2.050000
v 5.798490 14.805900 2.050000
v 5.659474 14.805900 2.326750
v 5.798490 14.805900 2.326750
v 5.659474 14.805900 2.603500
v 5.798490 14.805900 2.603500
v 5.659474 14.805900 2.880250
v 5.798490 14.805900 2.880250
v 5.659474 14.805900 3.157000
v 5.798490 14.805900 3.157000
v 5.659474 14.805900 3.433750
v 5.798490 14.805900 3.433750
v 5.659474 14.805900 3.710500
v 5.798490 14.805900 3.710500
v 5.659474 14.805900 3.987250
v 5.798490 14.805900 3.987250
v 5.798490 13.746793 0.112750
v 5.798490 13.746793 0.389500
v 5.937506 13.746793 0.112750
v 5.937506 13.746793 0.389500
v 5.937506 13.879181 0.112750
v 5.798490 13.746793 0.666250
v 5.937506 13.746793 0.666250
v 5.798490 13.746793 0.943000
v 5.937506 13.746793 0.943000
v 5.798490 13.746793 1.219750
v 5.937506 13.746793 1.219750
v 5.798490 13.746793 1.496500
v 5.937506 13.746793 1.496500
v 5.798490 13.746793 1.773250
v 5.937506 13.746793 1.773250
v 5.798490 13.746793 2.050000
v 5.937506 13.746793 2.050000
v 5.798490 13.746793 2.326750
v 5.937506 13.746793 2.326750
v 5.798490 13.746793 2.603500
v 5.937506 13.746793 2.603500
v 5.798490 13.746793 2.880250
v 5.937506 13.746793 2.880250
v 5.798490 13.746793 3.157000
v 5.937506 13.746793 3.157000
v 5.798490 13.746793 3.433750
v 5.937506 13.746793 3.433750
v 5.798490 13.746793 3.710500
v 5.937506 13.746793 3.710500
v 5.798490 13.746793 3.987250
v 5.937506 13.746793 3.987250
v 5.937506 13.879181 3.987250
v 5.937506 14.011570 0.112750
v 5.937506 14.011570 3.987250
v 5.937506 14.143958 0.112750
v 5.937506 14.143958 3.987250
v 5.937506 14.276347 0.112750
v 5.937506 14.276347 3.987250
v 5.937506 14.408735 0.112750
v 5.937506 14.408735 3.987250
v 5.937506 14.541123 0.112750
v 5.937506 14.541123 3.987250
v 5.937506 14.673512 0.112750
v 5.937506 14.673512 3.987250
v 5.937506 14.805900 0.112750
v 5.937506 14.805900 3.987250
v 5.798490 14.938288 0.112750
v 5.798490 14.938288 0.389500
v 5.937506 14.938288 0.389500
v 5.937506 14.938288 0.112750
v 5.798490 14.938288 0.666250
v 5.937506 14.938288 0.666250
v 5.798490 14.938288 0.943000
v 5.937506 14.938288 0.943000
v 5.798490 14.938288 1.219750
v 5.937506 14.938288 1.219750
v 5.798490 14.938288 1.496500
v 5.937506 14.938288 1.496500
v 5.798490 14.938288 1.773250
v 5.937506 14.938288 1.773250
v 5.798490 14.938288 2.050000
v 5.937506 14.938288 2.050000
v 5.798490 14.938288 2.326750
v 5.937506 14.938288 2.326750
v 5.798490 14.938288 2.603500
v 5.937506 14.938288 2.603500
v 5.798490 14.938288 2.880250
v 5.937506 14.938288 2.880250
v 5.798490 14.938288 3.157000
v 5.937506 14.938288 3.157000
v 5.798490 14.938288 3.433750
v 5.937506 14.938288 3.433750
v 5.798490 14.938288 3.710500
v 5.937506 14.938288 3.710500
v 5.798490 14.938288 3.987250
v 5.937506 14.938288 3.987250
v 6.076522 13.746793 0.112750
v 6.076522 13.746793 0.389500
v 6.076522 13.879181 0.112750
v 6.076522 13.746793 0.666250
v 6.076522 13.746793 0.943000
v 6.076522 13.746793 1.219750
v 6.076522 13.746793 1.496500
v 6.076522 13.746793 1.773250
v 6.076522 13.746793 2.050000
v 6.076522 13.746793 2.326750
v 6.076522 13.746793 2.603500
v 6.076522 13.746793 2.880250
v 6.076522 13.746793 3.157000
v 6.076522 13.746793 3.433750
v 6.076522 13.746793 3.710500
v 6.076522 13.746793 3.987250
v 6.076522 13.879181 3.987250
v 6.076522 14.011570 0.112750
v 6.076522 14.011570 3.987250
v 6.076522 14.143958 0.112750
v 6.076522 14.143958 3.987250
v 6.076522 14.276347 0.112750
v 6.076522 14.276347 3.987250
v 6.076522 14.408735 0.112750
v 6.076522 14.408735 3.987250
v 6.076522 14.541123 0.112750
v 6.076522 14.541123 3.987250
v 6.076522 14.673512 0.112750
v 6.076522 14.673512 3.987250
v 6.076522 14.805900 0.112750
v 6.076522 14.805900 3.987250
v 6.076522 14.805900 0.389500
v 6.076522 14.938288 0.389500
v 6.076522 14.938288 0.112750
v 6.076522 14.805900 0.666250
v 6.076522 14.938288 0.666250
v 6.076522 14.805900 0.943000
v 6.076522 14.938288 0.943000
v 6.076522 14.805900 1.219750
v 6.076522 14.938288 1.219750
v 6.076522 14.805900 1.496500
v 6.076522 14.938288 1.496500
v 6.076522 14.805900 1.773250
v 6.076522 14.938288 1.773250
v 6.076522 14.805900 2.050000
v 6.076522 14.938288 2.050000
v 6.076522 14.805900 2.326750
v 6.076522 14.938288 2.326750
v 6.076522 14.805900 2.603500
v 6.076522 14.938288 2.603500
v 6.076522 14.805900 2.880250
v 6.076522 14.938288 2.880250
v 6.076522 14.805900 3.157000
v 6.076522 14.938288 3.157000
v 6.076522 14.805900 3.433750
v 6.076522 14.938288 3.433750
v 6.076522 14.805900 3.710500
v 6.076522 14.938288 3.710500
v 6.076522 14.938288 3.987250
v 6.076522 13.614405 0.112750
v 6.076522 13.614405 0.389500
v 6.215538 13.614405 0.112750
v 6.215538 13.614405 0.389500
v 6.215538 13.746793 0.112750
v 6.076522 13.614405 0.666250
v 6.215538 13.614405 0.666250
v 6.076522 13.614405 0.943000
v 6.215538 13.614405 0.943000
v 6.076522 13.614405 1.219750
v 6.215538 13.614405 1.219750
v 6.076522 13.614405 1.496500
v 6.215538 13.614405 1.496500
v 6.076522 13.614405 1.773250
v 6.215538 13.614405 1.773250
v 6.076522 13.614405 2.050000
v 6.215538 13.614405 2.050000
v 6.076522 13.614405 2.326750
v 6.215538 13.614405 2.326750
v 6.076522 13.614405 2.603500
v 6.215538 13.614405 2.603500
v 6.076522 13.614405 2.880250
v 6.215538 13.614405 2.880250
v 6.076522 13.614405 3.157000
v 6.215538 13.614405 3.157000
v 6.076522 13.614405 3.433750
v 6.215538 13.614405 3.433750
v 6.076522 13.614405 3.710500
v 6.215538 13.614405 3.710500
v 6.076522 13.614405 3.987250
v 6.215538 13.614405 3.987250
v 6.215538 13.746793 3.987250
v 6.215538 13.879181 0.112750
v 6.215538 13.879181 3.987250
v 6.215538 14.011570 0.112750
v 6.215538 14.011570 3.987250
v 6.215538 14.143958 0.112750
v 6.215538 14.143958 3.987250
v 6.215538 14.276347 0.112750
v 6.215538 14.276347 3.987250
v 6.215538 14.408735 0.112750
v 6.215538 14.408735 3.987250
v 6.215538 14.541123 0.112750
v 6.215538 14.541123 3.987250
v 6.215538 14.673512 0.112750
v 6.215538 14.673512 3.987250
v 6.215538 14.805900 0.389500
v 6.215538 14.805900 0.112750
v 6.215538 14.805900 0.666250
v 6.215538 14.805900 0.943000
v 6.215538 14.805900 1.219750
v 6.215538 14.805900 1.496500
v 6.215538 14.805900 1.773250
v 6.215538 14.805900 2.050000
v 6.215538 14.805900 2.326750
v 6.215538 14.805900 2.603500
v 6.215538 14.805900 2.880250
v 6.215538 14.805900 3.157000
v 6.215538 14.805900 3.433750
v 6.215538 14.805900 3.710500
v 6.215538 14.805900 3.987250
v 6.354554 13.614405 0.112750
v 6.354554 13.614405 0.389500
v 6.354554 13.746793 0.112750
v 6.354554 13.614405 0.666250
v 6.354554 13.614405 0.943000
v 6.354554 13.614405 1.219750
v 6.354554 13.614405 1.496500
v 6.354554 13.614405 1.773250
v 6.354554 13.614405 2.050000
v 6.354554 13.614405 2.326750
v 6.354554 13.614405 2.603500
v 6.354554 13.614405 2.880250
v 6.354554 13.614405 3.157000
v 6.354554 13.614405 3.433750
v 6.354554 13.614405 3.710500
v 6.354554 13.614405 3.987250
v 6.354554 13.746793 3.987250
v 6.354554 13.879181 0.112750
v 6.354554 13.879181 3.987250
v 6.354554 14.011570 0.112750
v 6.354554 14.011570 3.987250
v 6.354554 14.143958 0.112750
v 6.354554 14.143958 3.987250
v 6.354554 14.276347 0.112750
v 6.354554 14.276347 3.987250
v 6.354554 14.408735 0.112750
v 6.354554 14.408735 3.987250
v 6.354554 14.541123 0.112750
v 6.354554 14.541123 3.987250
v 6.354554 14.673512 0.112750
v 6.354554 14.673512 3.987250
v 6.354554 14.673512 0.389500
v 6.354554 14.805900 0.389500
v 6.354554 14.805900 0.112750
v 6.354554 14.673512 0.666250
v 6.354554 14.805900 0.666250
v 6.354554 14.673512 0.943000
v 6.354554 14.805900 0.943000
v 6.354554 14.673512 1.219750
v 6.354554 14.805900 1.219750
v 6.354554 14.673512 1.496500
v 6.354554 14.805900 1.496500
v 6.354554 14.673512 1.773250
v 6.354554 14.805900 1.773250
v 6.354554 14.673512 2.050000
v 6.354554 14.805900 2.050000
v 6.354554 14.673512 2.326750
v 6.354554 14.805900 2.326750
v 6.354554 14.673512 2.603500
v 6.354554 14.805900 2.603500
v 6.354554 14.673512 2.880250
v 6.354554 14.805900 2.880250
v 6.354554 14.673512 3.157000
v 6.354554 14.805900 3.157000
v 6.354554 14.673512 3.433750
v 6.354554 14.805900 3.433750
v 6.354554 14.673512 3.710500
v 6.354554 14.805900 3.710500
v 6.354554 14.805900 3.987250
v 6.354554 13.482016 0.112750
v 6.354554 13.482016 0.389500
v 6.493570 13.482016 0.112750
v 6.493570 13.482016 0.389500
v 6.493570 13.614405 0.112750
v 6.354554 13.482016 0.666250
v 6.493570 13.482016 0.666250
v 6.354554 13.482016 0.943000
v 6.493570 13.482016 0.943000
v 6.354554 13.482016 1.219750
v 6.493570 13.482016 1.219750
v 6.354554 13.482016 1.496500
v 6.493570 13.482016 1.496500
v 6.354554 13.482016 1.773250
v 6.493570 13.482016 1.773250
v 6.354554 13.482016 2.050000
v 6.493570 13.482016 2.050000
v 6.354554 13.482016 2.326750
v 6.493570 13.482016 2.326750
v 6.354554 13.482016 2.603500
v 6.493570 13.482016 2.603500
v 6.354554 13.482016 2.880250
v 6.493570 13.482016 2.880250
v 6.354554 13.482016 3.157000
v 6.493570 13.482016 3.157000
v 6.354554 13.482016 3.433750
v 6.493570 13.482016 3.433750
v 6.354554 13.482016 3.710500
v 6.493570 13.482016 3.710500
v 6.354554 13.482016 3.987250
v 6.493570 13.482016 3.987250
v 6.493570 13.614405 3.987250
v 6.493570 13.746793 0.112750
v 6.493570 13.746793 3.987250
v 6.493570 13.879181 0.112750
v 6.493570 13.879181 3.987250
v 6.493570 14.011570 0.112750
v 6.493570 14.011570 3.987250
v 6.493570 14.143958 0.112750
v 6.493570 14.143958 3.987250
v 6.493570 14.276347 0.112750
v 6.493570 14.276347 3.987250
v 6.493570 14.408735 0.112750
v 6.493570 14.408735 3.987250
v 6.493570 14.541123 0.112750
v 6.493570 14.541123 3.987250
v 6.493570 14.673512 0.389500
v 6.493570 14.673512 0.112750
v 6.493570 14.673512 0.666250
v 6.493570 14.673512 0.943000
v 6.493570 14.673512 1.219750
v 6.493570 14.673512 1.496500
v 6.493570 14.673512 1.773250
v 6.493570 14.673512 2.050000
v 6.493570 14.673512 2.326750
v 6.493570 14.673512 2.603500
v 6.493570 14.673512 2.880250
v 6.493570 14.673512 3.157000
v 6.493570 14.673512 3.433750
v 6.493570 14.673512 3.710500
v 6.493570 14.673512 3.987250
v 6.632586 13.482016 0.112750
v 6.632586 13.482016 0.389500
v 6.632586 13.614405 0.112750
v 6.632586 13.482016 0.666250
v 6.632586 13.482016 0.943000
v 6.632586 13.482016 1.219750
v 6.632586 13.482016 1.496500
v 6.632586 13.482016 1.773250
v 6.632586 13.482016 2.050000
v 6.632586 13.482016 2.326750
v 6.632586 13.482016 2.603500
v 6.632586 13.482016 2.880250
v 6.632586 13.482016 3.157000
v 6.632586 13.482016 3.433750
v 6.632586 13.482016 3.710500
v 6.632586 13.482016 3.987250
v 6.632586 13.614405 3.987250
v 6.632586 13.746793 0.112750
v 6.632586 13.746793 3.987250
v 6.632586 13.879181 0.112750
v 6.632586 13.879181 3.987250
v 6.632586 14.011570 0.112750
v 6.632586 14.011570 3.987250
v 6.632586 14.143958 0.112750
v 6.632586 14.143958 3.987250
v 6.632586 14.276347 0.112750
v 6.632586 14.276347 3.987250
v 6.632586 14.408735 0.112750
v 6.632586 14.408735 3.987250
v 6.632586 14.541123 0.112750
v 6.632586 14.541123 3.987250
v 6.632586 14.541123 0.389500
v 6.632586 14.673512 0.389500
v 6.632586 14.673512 0.112750
v 6.632586 14.541123 0.666250
v 6.632586 14.673512 0.666250
v 6.632586 14.541123 0.943000
v 6.632586 14.673512 0.943000
v 6.632586 14.541123 1.219750
v 6.632586 14.673512 1.219750
v 6.632586 14.541123 1.496500
v 6.632586 14.673512 1.496500
v 6.632586 14.541123 1.773250
v 6.632586 14.673512 1.773250
v 6.632586 14.541123 2.050000
v 6.632586 14.673512 2.050000
v 6.632586 14.541123 2.326750
v 6.632586 14.673512 2.326750
v 6.632586 14.541123 2.603500
v 6.632586 14.673512 2.603500
v 6.632586 14.541123 2.880250
v 6.632586 14.673512 2.880250
v 6.632586 14.541123 3.157000
v 6.632586 14.673512 3.157000
v 6.632586 14.541123 3.433750
v 6.632586 14.673512 3.433750
v 6.632586 14.541123 3.710500
v 6.632586 14.673512 3.710500
v 6.632586 14.673512 3.987250
v 6.632586 13.349628 0.112750
v 6.632586 13.349628 0.389500
v 6.771601 13.349628 0.112750
v 6.771601 13.349628 0.389500
v 6.771601 13.482016 0.112750
v 6.632586 13.349628 0.666250
v 6.771601 13.349628 0.666250
v 6.632586 13.349628 0.943000
v 6.771601 13.349628 0.943000
v 6.632586 13.349628 1.219750
v 6.771601 13.349628 1.219750
v 6.632586 13.349628 1.496500
v 6.771601 13.349628 1.496500
v 6.632586 13.349628 1.773250
v 6.771601 13.349628 1.773250
v 6.632586 13.349628 2.050000
v 6.771601 13.349628 2.050000
v 6.632586 13.349628 2.326750
v 6.771601 13.349628 2.326750
v 6.632586 13.349628 2.603500
v 6.771601 13.349628 2.603500
v 6.632586 13.349628 2.880250
v 6.771601 13.349628 2.880250
v 6.632586 13.349628 3.157000
v 6.771601 13.349628 3.157000
v 6.632586 13.349628 3.433750
v 6.771601 13.349628 3.433750
v 6.632586 13.349628 3.710500
v 6.771601 13.349628 3.710500
v 6.632586 13.349628 3.987250
v 6.771601 13.349628 3.987250
v 6.771601 13.482016 3.987250
v 6.771601 13.614405 0.112750
v 6.771601 13.614405 3.987250
v 6.771601 13.746793 0.112750
v 6.771601 13.746793 3.987250
v 6.771601 13.879181 0.112750
v 6.771601 13.879181 3.987250
v 6.771601 14.011570 0.112750
v 6.771601 14.011570 3.987250
v 6.771601 14.143958 0.112750
v 6.771601 14.143958 3.987250
v 6.771601 14.276347 0.112750
v 6.771601 14.276347 3.987250
v 6.771601 14.408735 0.112750
v 6.771601 14.408735 3.987250
v 6.771601 14.541123 0.389500
v 6.771601 14.541123 0.112750
v 6.771601 14.541123 0.666250
v 6.771601 14.541123 0.943000
v 6.771601 14.541123 1.219750
v 6.771601 14.541123 1.496500
v 6.771601 14.541123 1.773250
v 6.771601 14.541123 2.050000
v 6.771601 14.541123 2.326750
v 6.771601 14.541123 2.603500
v 6.771601 14.541123 2.880250
v 6.771601 14.541123 3.157000
v 6.771601 14.541123 3.433750
v 6.771601 14.541123 3.710500
v 6.771601 14.541123 3.987250
v 6.771601 13.217240 0.112750
v 6.771601 13.217240 0.389500
v 6.910617 13.217240 0.112750
v 6.910617 13.217240 0.389500
v 6.910617 13.349628 0.112750
v 6.771601 13.217240 0.666250
v 6.910617 13.217240 0.666250
v 6.771601 13.217240 0.943000
v 6.910617 13.217240 0.943000
v 6.771601 13.217240 1.219750
v 6.910617 13.217240 1.219750
v 6.771601 13.217240 1.496500
v 6.910617 13.217240 1.496500
v 6.771601 13.217240 1.773250
v 6.910617 13.217240 1.773250
v 6.771601 13.217240 2.050000
v 6.910617 13.217240 2.050000
v 6.771601 13.217240 2.326750
v 6.910617 13.217240 2.326750
v 6.771601 13.217240 2.603500
v 6.910617 13.217240 2.603500
v 6.771601 13.217240 2.880250
v 6.910617 13.217240 2.880250
v 6.771601 13.217240 3.157000
v 6.910617 13.217240 3.157000
v 6.771601 13.217240 3.433750
v 6.910617 13.217240 3.433750
v 6.771601 13.217240 3.710500
v 6.910617 13.217240 3.710500
v 6.771601 13.217240 3.987250
v 6.910617 13.217240 3.987250
v 6.910617 13.349628 3.987250
v 6.910617 13.482016 0.112750
v 6.910617 13.482016 3.987250
v 6.910617 13.614405 0.112750
v 6.910617 13.614405 3.987250
v 6.910617 13.746793 0.112750
v 6.910617 13.746793 3.987250
v 6.910617 13.879181 0.112750
v 6.910617 13.879181 3.987250
v 6.910617 14.011570 0.112750
v 6.910617 14.011570 3.987250
v 6.910617 14.143958 0.112750
v 6.910617 14.143958 3.987250
v 6.910617 14.276347 0.112750
v 6.910617 14.276347 3.987250
v 6.910617 14.408735 0.112750
v 6.910617 14.408735 3.987250
v 6.910617 14.408735 0.389500
v 6.910617 14.541123 0.389500
v 6.910617 14.541123 0.112750
v 6.910617 14.408735 0.666250
v 6.910617 14.541123 0.666250
v 6.910617 14.408735 0.943000
v 6.910617 14.541123 0.943000
v 6.910617 14.408735 1.219750
v 6.910617 14.541123 1.219750
v 6.910617 14.408735 1.496500
v 6.910617 14.541123 1.496500
v 6.910617 14.408735 1.773250
v 6.910617 14.541123 1.773250
v 6.910617 14.408735 2.050000
v 6.910617 14.541123 2.050000
v 6.910617 14.408735 2.326750
v 6.910617 14.541123 2.326750
v 6.910617 14.408735 2.603500
v 6.910617 14.541123 2.603500
v 6.910617 14.408735 2.880250
v 6.910617 14.541123 2.880250
v 6.910617 14.408735 3.157000
v 6.910617 14.541123 3.157000
v 6.910617 14.408735 3.433750
v 6.910617 14.541123 3.433750
v 6.910617 14.408735 3.710500
v 6.910617 14.541123 3.710500
v 6.910617 14.541123 3.987250
v 7.049633 13.217240 0.112750
v 7.049633 13.217240 0.389500
v 7.049633 13.349628 0.389500
v 7.049633 13.349628 0.112750
v 7.049633 13.217240 0.666250
v 7.049633 13.349628 0.666250
v 7.049633 13.217240 0.943000
v 7.049633 13.349628 0.943000
v 7.049633 13.217240 1.219750
v 7.049633 13.349628 1.219750
v 7.049633 13.217240 1.496500
v 7.049633 13.349628 1.496500
v 7.049633 13.217240 1.773250
v 7.049633 13.349628 1.773250
v 7.049633 13.217240 2.050000
v 7.049633 13.349628 2.050000
v 7.049633 13.217240 2.326750
v 7.049633 13.349628 2.326750
v 7.049633 13.217240 2.603500
v 7.049633 13.349628 2.603500
v 7.049633 13.217240 2.880250
v 7.049633 13.349628 2.880250
v 7.049633 13.217240 3.157000
v 7.049633 13.349628 3.157000
v 7.049633 13.217240 3.433750
v 7.049633 13.349628 3.433750
v 7.049633 13.217240 3.710500
v 7.049633 13.349628 3.710500
v 7.049633 13.217240 3.987250
v 7.049633 13.349628 3.987250
v 7.049633 13.482016 0.389500
v 7.049633 13.482016 0.112750
v 7.049633 13.482016 0.666250
v 7.049633 13.482016 0.943000
v 7.049633 13.482016 1.219750
v 7.049633 13.482016 1.496500
v 7.049633 13.482016 1.773250
v 7.049633 13.482016 2.050000
v 7.049633 13.482016 2.326750
v 7.049633 13.482016 2.603500
v 7.049633 13.482016 2.880250
v 7.049633 13.482016 3.157000
v 7.049633 13.482016 3.433750
v 7.049633 13.482016 3.710500
v 7.049633 13.482016 3.987250
v 7.049633 13.614405 0.112750
v 7.049633 13.614405 3.987250
v 7.049633 13.746793 0.112750
v 7.049633 13.746793 3.987250
v 7.049633 13.879181 0.112750
v 7.049633 13.879181 3.987250
v 7.049633 14.011570 0.112750
v 7.049633 14.011570 3.987250
v 7.049633 14.143958 0.112750
v 7.049633 14.143958 3.987250
v 7.049633 14.276347 0.112750
v 7.049633 14.276347 3.987250
v 7.049633 14.276347 0.389500
v 7.049633 14.408735 0.389500
v 7.049633 14.408735 0.112750
v 7.049633 14.276347 0.666250
v 7.049633 14.408735 0.666250
v 7.049633 14.276347 0.943000
v 7.049633 14.408735 0.943000
v 7.049633 14.276347 1.219750
v 7.049633 14.408735 1.219750
v 7.049633 14.276347 1.496500
v 7.049633 14.408735 1.496500
v 7.049633 14.276347 1.773250
v 7.049633 14.408735 1.773250
v 7.049633 14.276347 2.050000
v 7.049633 14.408735 2.050000
v 7.049633 14.276347 2.326750
v 7.049633 14.408735 2.326750
v 7.049633 14.276347 2.603500
v 7.049633 14.408735 2.603500
v 7.049633 14.276347 2.880250
v 7.049633 14.408735 2.880250
v 7.049633 14.276347 3.157000
v 7.049633 14.408735 3.157000
v 7.049633 14.276347 3.433750
v 7.049633 14.408735 3.433750
v 7.049633 14.276347 3.710500
v 7.049633 14.408735 3.710500
v 7.049633 14.408735 3.987250
v 7.188649 13.482016 0.112750
v 7.188649 13.482016 0.389500
v 7.188649 13.614405 0.389500
v 7.188649 13.614405 0.112750
v 7.188649 13.482016 0.666250
v 7.188649 13.614405 0.666250
v 7.188649 13.482016 0.943000
v 7.188649 13.614405 0.943000
v 7.188649 13.482016 1.219750
v 7.188649 13.614405 1.219750
v 7.188649 13.482016 1.496500
v 7.188649 13.614405 1.496500
v 7.188649 13.482016 1.773250
v 7.188649 13.614405 1.773250
v 7.188649 13.482016 2.050000
v 7.188649 13.614405 2.050000
v 7.188649 13.482016 2.326750
v 7.188649 13.614405 2.326750
v 7.188649 13.482016 2.603500
v 7.188649 13.614405 2.603500
v 7.188649 13.482016 2.880250
v 7.188649 13.614405 2.880250
v 7.188649 13.482016 3.157000
v 7.188649 13.614405 3.157000
v 7.188649 13.482016 3.433750
v 7.188649 13.614405 3.433750
v 7.188649 13.482016 3.710500
v 7.188649 13.614405 3.710500
v 7.188649 13.482016 3.987250
v 7.188649 13.614405 3.987250
v 7.188649 13.746793 0.389500
v 7.188649 13.746793 0.112750
v 7.188649 13.746793 0.666250
v 7.188649 13.746793 0.943000
v 7.188649 13.746793 1.219750
v 7.188649 13.746793 1.496500
v 7.188649 13.746793 1.773250
v 7.188649 13.746793 2.050000
v 7.188649 13.746793 2.326750
v 7.188649 13.746793 2.603500
v 7.188649 13.746793 2.880250
v 7.188649 13.746793 3.157000
v 7.188649 13.746793 3.433750
v 7.188649 13.746793 3.710500
v 7.188649 13.746793 3.987250
v 7.188649 13.879181 0.112750
v 7.188649 13.879181 3.987250
v 7.188649 14.011570 0.112750
v 7.188649 14.011570 3.987250
v 7.188649 14.143958 0.112750
v 7.188649 14.143958 3.987250
v 7.188649 14.276347 0.389500
v 7.188649 14.276347 0.112750
v 7.188649 14.276347 0.666250
v 7.188649 14.276347 0.943000
v 7.188649 14.276347 1.219750
v 7.188649 14.276347 1.496500
v 7.188649 14.276347 1.773250
v 7.188649 14.276347 2.050000
v 7.188649 14.276347 2.326750
v 7.188649 14.276347 2.603500
v 7.188649 14.276347 2.880250
v 7.188649 14.276347 3.157000
v 7.188649 14.276347 3.433750
v 7.188649 14.276347 3.710500
v 7.188649 14.276347 3.987250
v 7.327665 13.746793 0.112750
v 7.327665 13.746793 0.389500
v 7.327665 13.879181 0.389500
v 7.327665 13.879181 0.112750
v 7.327665 13.746793 0.666250
v 7.327665 13.879181 0.666250
v 7.327665 13.746793 0.943000
v 7.327665 13.879181 0.943000
v 7.327665 13.746793 1.219750
v 7.327665 13.879181 1.219750
v 7.327665 13.746793 1.496500
v 7.327665 13.879181 1.496500
v 7.327665 13.746793 1.773250
v 7.327665 13.879181 1.773250
v 7.327665 13.746793 2.050000
v 7.327665 13.879181 2.050000
v 7.327665 13.746793 2.326750
v 7.327665 13.879181 2.326750
v 7.327665 13.746793 2.603500
v 7.327665 13.879181 2.603500
v 7.327665 13.746793 2.880250
v 7.327665 13.879181 2.880250
v 7.327665 13.746793 3.157000
v 7.327665 13.879181 3.157000
v 7.327665 13.746793 3.433750
v 7.327665 13.879181 3.433750
v 7.327665 13.746793 3.710500
v 7.327665 13.879181 3.710500
v 7.327665 13.746793 3.987250
v 7.327665 13.879181 3.987250
v 7.327665 14.011570 0.389500
v 7.327665 14.011570 0.112750
v 7.327665 14.011570 0.666250
v 7.327665 14.011570 0.943000
v 7.327665 14.011570 1.219750
v 7.327665 14.011570 1.496500
v 7.327665 14.011570 1.773250
v 7.327665 14.011570 2.050000
v 7.327665 14.011570 2.326750
v 7.327665 14.011570 2.603500
v 7.327665 14.011570 2.880250
v 7.327665 14.011570 3.157000
v 7.327665 14.011570 3.433750
v 7.327665 14.011570 3.710500
v 7.327665 14.011570 3.987250
v 7.327665 14.143958 0.112750
v 7.327665 14.143958 3.987250
v 7.327665 14.143958 0.389500
v 7.327665 14.276347 0.389500
v 7.327665 14.276347 0.112750
v 7.327665 14.143958 0.666250
v 7.327665 14.276347 0.666250
v 7.327665 14.143958 0.943000
v 7.327665 14.276347 0.943000
v 7.327665 14.143958 1.219750
v 7.327665 14.276347 1.219750
v 7.327665 14.143958 1.496500
v 7.327665 14.276347 1.496500
v 7.327665 14.143958 1.773250
v 7.327665 14.276347 1.773250
v 7.327665 14.143958 2.050000
v 7.327665 14.276347 2.050000
v 7.327665 14.143958 2.326750
v 7.327665 14.276347 2.326750
v 7.327665 14.143958 2.603500
v 7.327665 14.276347 2.603500
v 7.327665 14.143958 2.880250
v 7.327665 14.276347 2.880250
v 7.327665 14.143958 3.157000
v 7.327665 14.276347 3.157000
v 7.327665 14.143958 3.433750
v 7.327665 14.276347 3.433750
v 7.327665 14.143958 3.710500
v 7.327665 14.276347 3.710500
v 7.327665 14.276347 3.987250
v 7.466681 14.011570 0.112750
v 7.466681 14.011570 0.389500
v 7.466681 14.143958 0.389500
v 7.466681 14.143958 0.112750
v 7.466681 14.011570 0.666250
v 7.466681 14.143958 0.666250
v 7.466681 14.011570 0.943000
v 7.466681 14.143958 0.943000
v 7.466681 14.011570 1.219750
v 7.466681 14.143958 1.219750
v 7.466681 14.011570 1.496500
v 7.466681 14.143958 1.496500
v 7.466681 14.011570 1.773250
v 7.466681 14.143958 1.773250
v 7.466681 14.011570 2.050000
v 7.466681 14.143958 2.050000
v 7.466681 14.011570 2.326750
v 7.466681 14.143958 2.326750
v 7.466681 14.011570 2.603500
v 7.466681 14.143958 2.603500
v 7.466681 14.011570 2.880250
v 7.466681 14.143958 2.880250
v 7.466681 14.011570 3.157000
v 7.466681 14.143958 3.157000
v 7.466681 14.011570 3.433750
v 7.466681 14.143958 3.433750
v 7.466681 14.011570 3.710500
v 7.466681 14.143958 3.710500
v 7.466681 14.011570 3.987250
v 7.466681 14.143958 3.987250
f 1 2 3
f 1 3 4
f 1 5 6
f 1 6 4
f 1 2 7
f 1 7 5
f 4 3 8
f 4 8 9
f 4 6 10
f 4 10 9
f 9 8 11
f 9 11 12
f 9 10 13
f 9 13 12
f 12 11 14
f 12 14 15
f 12 13 16
f 12 16 15
f 15 14 17
f 15 17 18
f 15 16 19
f 15 19 18
f 18 17 20
f 18 20 21
f 18 19 22
f 18 22 21
f 21 20 23
f 21 23 24
f 21 22 25
f 21 25 24
f 24 23 26
f 24 26 27
f 24 25 28
f 24 28 27
f 27 26 29
f 27 29 30
f 27 28 31
f 27 31 30
f 30 29 32
f 30 32 33
f 30 31 34
f 30 34 33
f 33 32 35
f 33 35 36
f 33 34 37
f 33 37 36
f 36 35 38
f 36 38 39
f 36 37 40
f 36 40 39
f 39 38 41
f 39 41 42
f 39 40 43
f 39 43 42
f 42 41 44
f 42 44 45
f 42 43 46
f 42 46 45
f 45 46 47
f 45 47 44
f 2 48 49
f 2 49 3
f 48 49 50
f 48 50 51
f 2 48 51
f 2 51 7
f 3 49 52
f 3 52 8
f 49 52 53
f 49 53 50
f 8 52 54
f 8 54 11
f 52 54 55
f 52 55 53
f 11 54 56
f 11 56 14
f 54 56 57
f 54 57 55
f 14 56 58
f 14 58 17
f 56 58 59
f 56 59 57
f 17 58 60
f 17 60 20
f 58 60 61
f 58 61 59
f 20 60 62
f 20 62 23
f 60 62 63
f 60 63 61
f 23 62 64
f 23 64 26
f 62 64 65
f 62 65 63
f 26 64 66
f 26 66 29
f 64 66 67
f 64 67 65
f 29 66 68
f 29 68 32
f 66 68 69
f 66 69 67
f 32 68 70
f 32 70 35
f 68 70 71
f 68 71 69
f 35 70 72
f 35 72 38
f 70 72 73
f 70 73 71
f 38 72 74
f 38 74 41
f 72 74 75
f 72 75 73
f 41 74 76
f 41 76 44
f 74 76 77
f 74 77 75
f 44 47 77
f 44 77 76
f 78 5 6
f 78 6 79
f 78 80 81
f 78 81 79
f 78 5 82
f 78 82 80
f 79 6 10
f 79 10 83
f 79 81 84
f 79 84 83
f 83 10 13
f 83 13 85
f 83 84 86
f 83 86 85
f 85 13 16
f 85 16 87
f 85 86 88
f 85 88 87
f 87 16 19
f 87 19 89
f 87 88 90
f 87 90 89
f 89 19 22
f 89 22 91
f 89 90 92
f 89 92 91
f 91 22 25
f 91 25 93
f 91 92 94
f 91 94 93
f 93 25 28
f 93 28 95
f 93 94 96
f 93 96 95
f 95 28 31
f 95 31 97
f 95 96 98
f 95 98 97
f 97 31 34
f 97 34 99
f 97 98 100
f 97 100 99
f 99 34 37
f 99 37 101
f 99 100 102
f 99 102 101
f 101 37 40
f 101 40 103
f 101 102 104
f 101 104 103
f 103 40 43
f 103 43 105
f 103 104 106
f 103 106 105
f 105 43 46
f 105 46 107
f 105 106 108
f 105 108 107
f 107 108 109
f 107 109 46
f 5 7 110
f 5 110 82
f 46 109 111
f 46 111 47
f 7 51 112
f 7 112 110
f 47 111 113
f 47 113 77
f 51 114 115
f 51 115 50
f 51 114 116
f 51 116 112
f 50 115 117
f 50 117 53
f 53 117 118
f 53 118 55
f 55 118 119
f 55 119 57
f 57 119 120
f 57 120 59
f 59 120 121
f 59 121 61
f 61 121 122
f 61 122 63
f 63 122 123
f 63 123 65
f 65 123 124
f 65 124 67
f 67 124 125
f 67 125 69
f 69 125 126
f 69 126 71
f 71 126 127
f 71 127 73
f 73 127 128
f 73 128 75
f 75 128 129
f 75 129 77
f 77 113 130
f 77 130 129
f 114 131 132
f 114 132 115
f 131 132 133
f 131 133 134
f 114 131 134
f 114 134 116
f 115 132 135
f 115 135 117
f 132 135 136
f 132 136 133
f 117 135 137
f 117 137 118
f 135 137 138
f 135 138 136
f 118 137 139
f 118 139 119
f 137 139 140
f 137 140 138
f 119 139 141
f 119 141 120
f 139 141 142
f 139 142 140
f 120 141 143
f 120 143 121
f 141 143 144
f 141 144 142
f 121 143 145
f 121 145 122
f 143 145 146
f 143 146 144
f 122 145 147
f 122 147 123
f 145 147 148
f 145 148 146
f 123 147 149
f 123 149 124
f 147 149 150
f 147 150 148
f 124 149 151
f 124 151 125
f 149 151 152
f 149 152 150
f 125 151 153
f 125 153 126
f 151 153 154
f 151 154 152
f 126 153 155
f 126 155 127
f 153 155 156
f 153 156 154
f 127 155 157
f 127 157 128
f 155 157 158
f 155 158 156
f 128 157 159
f 128 159 129
f 157 159 160
f 157 160 158
f 129 130 160
f 129 160 159
f 80 161 162
f 80 162 81
f 80 82 163
f 80 163 161
f 81 162 164
f 81 164 84
f 84 164 165
f 84 165 86
f 86 165 166
f 86 166 88
f 88 166 167
f 88 167 90
f 90 167 168
f 90 168 92
f 92 168 169
f 92 169 94
f 94 169 170
f 94 170 96
f 96 170 171
f 96 171 98
f 98 171 172
f 98 172 100
f 100 172 173
f 100 173 102
f 102 173 174
f 102 174 104
f 104 174 175
f 104 175 106
f 106 175 176
f 106 176 108
f 108 176 177
f 108 177 109
f 82 110 178
f 82 178 163
f 109 177 179
f 109 179 111
f 110 112 180
f 110 180 178
f 111 179 181
f 111 181 113
f 112 116 182
f 112 182 180
f 113 181 183
f 113 183 130
f 116 134 184
f 116 184 182
f 130 183 185
f 130 185 160
f 134 186 187
f 134 187 133
f 134 186 188
f 134 188 184
f 133 187 189
f 133 189 136
f 136 189 190
f 136 190 138
f 138 190 191
f 138 191 140
f 140 191 192
f 140 192 142
f 142 192 193
f 142 193 144
f 144 193 194
f 144 194 146
f 146 194 195
f 146 195 148
f 148 195 196
f 148 196 150
f 150 196 197
f 150 197 152
f 152 197 198
f 152 198 154
f 154 198 199
f 154 199 156
f 156 199 200
f 156 200 158
f 158 200 201
f 158 201 160
f 160 185 202
f 160 202 201
f 186 203 204
f 186 204 187
f 203 204 205
f 203 205 206
f 186 203 206
f 186 206 188
f 187 204 207
f 187 207 189
f 204 207 208
f 204 208 205
f 189 207 209
f 189 209 190
f 207 209 210
f 207 210 208
f 190 209 211
f 190 211 191
f 209 211 212
f 209 212 210
f 191 211 213
f 191 213 192
f 211 213 214
f 211 214 212
f 192 213 215
f 192 215 193
f 213 215 216
f 213 216 214
f 193 215 217
f 193 217 194
f 215 217 218
f 215 218 216
f 194 217 219
f 194 219 195
f 217 219 220
f 217 220 218
f 195 219 221
f 195 221 196
f 219 221 222
f 219 222 220
f 196 221 223
f 196 223 197
f 221 223 224
f 221 224 222
f 197 223 225
f 197 225 198
f 223 225 226
f 223 226 224
f 198 225 227
f 198 227 199
f 225 227 228
f 225 228 226
f 199 227 229
f 199 229 200
f 227 229 230
f 227 230 228
f 200 229 231
f 200 231 201
f 229 231 232
f 229 232 230
f 201 202 232
f 201 232 231
f 233 161 162
f 233 162 234
f 233 235 236
f 233 236 234
f 233 161 237
f 233 237 235
f 234 162 164
f 234 164 238
f 234 236 239
f 234 239 238
f 238 164 165
f 238 165 240
f 238 239 241
f 238 241 240
f 240 165 166
f 240 166 242
f 240 241 243
f 240 243 242
f 242 166 167
f 242 167 244
f 242 243 245
f 242 245 244
f 244 167 168
f 244 168 246
f 244 245 247
f 244 247 246
f 246 168 169
f 246 169 248
f 246 247 249
f 246 249 248
f 248 169 170
f 248 170 250
f 248 249 251
f 248 251 250
f 250 170 171
f 250 171 252
f 250 251 253
f 250 253 252
f 252 171 172
f 252 172 254
f 252 253 255
f 252 255 254
f 254 172 173
f 254 173 256
f 254 255 257
f 254 257 256
f 256 173 174
f 256 174 258
f 256 257 259
f 256 259 258
f 258 174 175
f 258 175 260
f 258 259 261
f 258 261 260
f 260 175 176
f 260 176 262
f 260 261 263
f 260 263 262
f 262 263 264
f 262 264 176
f 161 163 265
f 161 265 237
f 176 264 266
f 176 266 177
f 163 178 267
f 163 267 265
f 177 266 268
f 177 268 179
f 178 180 269
f 178 269 267
f 179 268 270
f 179 270 181
f 180 182 271
f 180 271 269
f 181 270 272
f 181 272 183
f 182 184 273
f 182 273 271
f 183 272 274
f 183 274 185
f 184 188 275
f 184 275 273
f 185 274 276
f 185 276 202
f 188 206 277
f 188 277 275
f 202 276 278
f 202 278 232
f 206 279 280
f 206 280 205
f 279 280 281
f 279 281 282
f 206 279 282
f 206 282 277
f 205 280 283
f 205 283 208
f 280 283 284
f 280 284 281
f 208 283 285
f 208 285 210
f 283 285 286
f 283 286 284
f 210 285 287
f 210 287 212
f 285 287 288
f 285 288 286
f 212 287 289
f 212 289 214
f 287 289 290
f 287 290 288
f 214 289 291
f 214 291 216
f 289 291 292
f 289 292 290
f 216 291 293
f 216 293 218
f 291 293 294
f 291 294 292
f 218 293 295
f 218 295 220
f 293 295 296
f 293 296 294
f 220 295 297
f 220 297 222
f 295 297 298
f 295 298 296
f 222 297 299
f 222 299 224
f 297 299 300
f 297 300 298
f 224 299 301
f 224 301 226
f 299 301 302
f 299 302 300
f 226 301 303
f 226 303 228
f 301 303 304
f 301 304 302
f 228 303 305
f 228 305 230
f 303 305 306
f 303 306 304
f 230 305 307
f 230 307 232
f 305 307 308
f 305 308 306
f 232 278 308
f 232 308 307
f 235 309 310
f 235 310 236
f 235 237 311
f 235 311 309
f 236 310 312
f 236 312 239
f 239 312 313
f 239 313 241
f 241 313 314
f 241 314 243
f 243 314 315
f 243 315 245
f 245 315 316
f 245 316 247
f 247 316 317
f 247 317 249
f 249 317 318
f 249 318 251
f 251 318 319
f 251 319 253
f 253 319 320
f 253 320 255
f 255 320 321
f 255 321 257
f 257 321 322
f 257 322 259
f 259 322 323
f 259 323 261
f 261 323 324
f 261 324 263
f 263 324 325
f 263 325 264
f 237 265 326
f 237 326 311
f 264 325 327
f 264 327 266
f 265 267 328
f 265 328 326
f 266 327 329
f 266 329 268
f 267 269 330
f 267 330 328
f 268 329 331
f 268 331 270
f 269 271 332
f 269 332 330
f 270 331 333
f 270 333 272
f 271 273 334
f 271 334 332
f 272 333 335
f 272 335 274
f 273 275 336
f 273 336 334
f 274 335 337
f 274 337 276
f 275 277 338
f 275 338 336
f 276 337 339
f 276 339 278
f 338 340 341
f 338 341 342
f 282 281 341
f 282 341 342
f 277 282 342
f 277 342 338
f 340 343 344
f 340 344 341
f 281 284 344
f 281 344 341
f 343 345 346
f 343 346 344
f 284 286 346
f 284 346 344
f 345 347 348
f 345 348 346
f 286 288 348
f 286 348 346
f 347 349 350
f 347 350 348
f 288 290 350
f 288 350 348
f 349 351 352
f 349 352 350
f 290 292 352
f 290 352 350
f 351 353 354
f 351 354 352
f 292 294 354
f 292 354 352
f 353 355 356
f 353 356 354
f 294 296 356
f 294 356 354
f 355 357 358
f 355 358 356
f 296 298 358
f 296 358 356
f 357 359 360
f 357 360 358
f 298 300 360
f 298 360 358
f 359 361 362
f 359 362 360
f 300 302 362
f 300 362 360
f 361 363 364
f 361 364 362
f 302 304 364
f 302 364 362
f 363 365 366
f 363 366 364
f 304 306 366
f 304 366 364
f 365 339 367
f 365 367 366
f 306 308 367
f 306 367 366
f 278 339 367
f 278 367 308
f 368 309 310
f 368 310 369
f 368 370 371
f 368 371 369
f 368 309 372
f 368 372 370
f 369 310 312
f 369 312 373
f 369 371 374
f 369 374 373
f 373 312 313
f 373 313 375
f 373 374 376
f 373 376 375
f 375 313 314
f 375 314 377
f 375 376 378
f 375 378 377
f 377 314 315
f 377 315 379
f 377 378 380
f 377 380 379
f 379 315 316
f 379 316 381
f 379 380 382
f 379 382 381
f 381 316 317
f 381 317 383
f 381 382 384
f 381 384 383
f 383 317 318
f 383 318 385
f 383 384 386
f 383 386 385
f 385 318 319
f 385 319 387
f 385 386 388
f 385 388 387
f 387 319 320
f 387 320 389
f 387 388 390
f 387 390 389
f 389 320 321
f 389 321 391
f 389 390 392
f 389 392 391
f 391 321 322
f 391 322 393
f 391 392 394
f 391 394 393
f 393 322 323
f 393 323 395
f 393 394 396
f 393 396 395
f 395 323 324
f 395 324 397
f 395 396 398
f 395 398 397
f 397 398 399
f 397 399 324
f 309 311 400
f 309 400 372
f 324 399 401
f 324 401 325
f 311 326 402
f 311 402 400
f 325 401 403
f 325 403 327
f 326 328 404
f 326 404 402
f 327 403 405
f 327 405 329
f 328 330 406
f 328 406 404
f 329 405 407
f 329 407 331
f 330 332 408
f 330 408 406
f 331 407 409
f 331 409 333
f 332 334 410
f 332 410 408
f 333 409 411
f 333 411 335
f 334 336 412
f 334 412 410
f 335 411 413
f 335 413 337
f 338 340 414
f 338 414 415
f 336 338 415
f 336 415 412
f 340 343 416
f 340 416 414
f 343 345 417
f 343 417 416
f 345 347 418
f 345 418 417
f 347 349 419
f 347 419 418
f 349 351 420
f 349 420 419
f 351 353 421
f 351 421 420
f 353 355 422
f 353 422 421
f 355 357 423
f 355 423 422
f 357 359 424
f 357 424 423
f 359 361 425
f 359 425 424
f 361 363 426
f 361 426 425
f 363 365 427
f 363 427 426
f 365 339 428
f 365 428 427
f 337 413 428
f 337 428 339
f 370 429 430
f 370 430 371
f 370 372 431
f 370 431 429
f 371 430 432
f 371 432 374
f 374 432 433
f 374 433 376
f 376 433 434
f 376 434 378
f 378 434 435
f 378 435 380
f 380 435 436
f 380 436 382
f 382 436 437
f 382 437 384
f 384 437 438
f 384 438 386
f 386 438 439
f 386 439 388
f 388 439 440
f 388 440 390
f 390 440 441
f 390 441 392
f 392 441 442
f 392 442 394
f 394 442 443
f 394 443 396
f 396 443 444
f 396 444 398
f 398 444 445
f 398 445 399
f 372 400 446
f 372 446 431
f 399 445 447
f 399 447 401
f 400 402 448
f 400 448 446
f 401 447 449
f 401 449 403
f 402 404 450
f 402 450 448
f 403 449 451
f 403 451 405
f 404 406 452
f 404 452 450
f 405 451 453
f 405 453 407
f 406 408 454
f 406 454 452
f 407 453 455
f 407 455 409
f 408 410 456
f 408 456 454
f 409 455 457
f 409 457 411
f 410 412 458
f 410 458 456
f 411 457 459
f 411 459 413
f 458 460 461
f 458 461 462
f 415 414 461
f 415 461 462
f 412 415 462
f 412 462 458
f 460 463 464
f 460 464 461
f 414 416 464
f 414 464 461
f 463 465 466
f 463 466 464
f 416 417 466
f 416 466 464
f 465 467 468
f 465 468 466
f 417 418 468
f 417 468 466
f 467 469 470
f 467 470 468
f 418 419 470
f 418 470 468
f 469 471 472
f 469 472 470
f 419 420 472
f 419 472 470
f 471 473 474
f 471 474 472
f 420 421 474
f 420 474 472
f 473 475 476
f 473 476 474
f 421 422 476
f 421 476 474
f 475 477 478
f 475 478 476
f 422 423 478
f 422 478 476
f 477 479 480
f 477 480 478
f 423 424 480
f 423 480 478
f 479 481 482
f 479 482 480
f 424 425 482
f 424 482 480
f 481 483 484
f 481 484 482
f 425 426 484
f 425 484 482
f 483 485 486
f 483 486 484
f 426 427 486
f 426 486 484
f 485 459 487
f 485 487 486
f 427 428 487
f 427 487 486
f 413 459 487
f 413 487 428
f 488 429 430
f 488 430 489
f 488 490 491
f 488 491 489
f 488 429 492
f 488 492 490
f 489 430 432
f 489 432 493
f 489 491 494
f 489 494 493
f 493 432 433
f 493 433 495
f 493 494 496
f 493 496 495
f 495 433 434
f 495 434 497
f 495 496 498
f 495 498 497
f 497 434 435
f 497 435 499
f 497 498 500
f 497 500 499
f 499 435 436
f 499 436 501
f 499 500 502
f 499 502 501
f 501 436 437
f 501 437 503
f 501 502 504
f 501 504 503
f 503 437 438
f 503 438 505
f 503 504 506
f 503 506 505
f 505 438 439
f 505 439 507
f 505 506 508
f 505 508 507
f 507 439 440
f 507 440 509
f 507 508 510
f 507 510 509
f 509 440 441
f 509 441 511
f 509 510 512
f 509 512 511
f 511 441 442
f 511 442 513
f 511 512 514
f 511 514 513
f 513 442 443
f 513 443 515
f 513 514 516
f 513 516 515
f 515 443 444
f 515 444 517
f 515 516 518
f 515 518 517
f 517 518 519
f 517 519 444
f 429 431 520
f 429 520 492
f 444 519 521
f 444 521 445
f 431 446 522
f 431 522 520
f 445 521 523
f 445 523 447
f 446 448 524
f 446 524 522
f 447 523 525
f 447 525 449
f 448 450 526
f 448 526 524
f 449 525 527
f 449 527 451
f 450 452 528
f 450 528 526
f 451 527 529
f 451 529 453
f 452 454 530
f 452 530 528
f 453 529 531
f 453 531 455
f 454 456 532
f 454 532 530
f 455 531 533
f 455 533 457
f 458 460 534
f 458 534 535
f 456 458 535
f 456 535 532
f 460 463 536
f 460 536 534
f 463 465 537
f 463 537 536
f 465 467 538
f 465 538 537
f 467 469 539
f 467 539 538
f 469 471 540
f 469 540 539
f 471 473 541
f 471 541 540
f 473 475 542
f 473 542 541
f 475 477 543
f 475 543 542
f 477 479 544
f 477 544 543
f 479 481 545
f 479 545 544
f 481 483 546
f 481 546 545
f 483 485 547
f 483 547 546
f 485 459 548
f 485 548 547
f 457 533 548
f 457 548 459
f 490 549 550
f 490 550 491
f 490 492 551
f 490 551 549
f 491 550 552
f 491 552 494
f 494 552 553
f 494 553 496
f 496 553 554
f 496 554 498
f 498 554 555
f 498 555 500
f 500 555 556
f 500 556 502
f 502 556 557
f 502 557 504
f 504 557 558
f 504 558 506
f 506 558 559
f 506 559 508
f 508 559 560
f 508 560 510
f 510 560 561
f 510 561 512
f 512 561 562
f 512 562 514
f 514 562 563
f 514 563 516
f 516 563 564
f 516 564 518
f 518 564 565
f 518 565 519
f 492 520 566
f 492 566 551
f 519 565 567
f 519 567 521
f 520 522 568
f 520 568 566
f 521 567 569
f 521 569 523
f 522 524 570
f 522 570 568
f 523 569 571
f 523 571 525
f 524 526 572
f 524 572 570
f 525 571 573
f 525 573 527
f 526 528 574
f 526 574 572
f 527 573 575
f 527 575 529
f 528 530 576
f 528 576 574
f 529 575 577
f 529 577 531
f 530 532 578
f 530 578 576
f 531 577 579
f 531 579 533
f 578 580 581
f 578 581 582
f 535 534 581
f 535 581 582
f 532 535 582
f 532 582 578
f 580 583 584
f 580 584 581
f 534 536 584
f 534 584 581
f 583 585 586
f 583 586 584
f 536 537 586
f 536 586 584
f 585 587 588
f 585 588 586
f 537 538 588
f 537 588 586
f 587 589 590
f 587 590 588
f 538 539 590
f 538 590 588
f 589 591 592
f 589 592 590
f 539 540 592
f 539 592 590
f 591 593 594
f 591 594 592
f 540 541 594
f 540 594 592
f 593 595 596
f 593 596 594
f 541 542 596
f 541 596 594
f 595 597 598
f 595 598 596
f 542 543 598
f 542 598 596
f 597 599 600
f 597 600 598
f 543 544 600
f 543 600 598
f 599 601 602
f 599 602 600
f 544 545 602
f 544 602 600
f 601 603 604
f 601 604 602
f 545 546 604
f 545 604 602
f 603 605 606
f 603 606 604
f 546 547 606
f 546 606 604
f 605 579 607
f 605 607 606
f 547 548 607
f 547 607 606
f 533 579 607
f 533 607 548
f 608 549 550
f 608 550 609
f 608 610 611
f 608 611 609
f 608 549 612
f 608 612 610
f 609 550 552
f 609 552 613
f 609 611 614
f 609 614 613
f 613 552 553
f 613 553 615
f 613 614 616
f 613 616 615
f 615 553 554
f 615 554 617
f 615 616 618
f 615 618 617
f 617 554 555
f 617 555 619
f 617 618 620
f 617 620 619
f 619 555 556
f 619 556 621
f 619 620 622
f 619 622 621
f 621 556 557
f 621 557 623
f 621 622 624
f 621 624 623
f 623 557 558
f 623 558 625
f 623 624 626
f 623 626 625
f 625 558 559
f 625 559 627
f 625 626 628
f 625 628 627
f 627 559 560
f 627 560 629
f 627 628 630
f 627 630 629
f 629 560 561
f 629 561 631
f 629 630 632
f 629 632 631
f 631 561 562
f 631 562 633
f 631 632 634
f 631 634 633
f 633 562 563
f 633 563 635
f 633 634 636
f 633 636 635
f 635 563 564
f 635 564 637
f 635 636 638
f 635 638 637
f 637 638 639
f 637 639 564
f 549 551 640
f 549 640 612
f 564 639 641
f 564 641 565
f 551 566 642
f 551 642 640
f 565 641 643
f 565 643 567
f 566 568 644
f 566 644 642
f 567 643 645
f 567 645 569
f 568 570 646
f 568 646 644
f 569 645 647
f 569 647 571
f 570 572 648
f 570 648 646
f 571 647 649
f 571 649 573
f 572 574 650
f 572 650 648
f 573 649 651
f 573 651 575
f 574 576 652
f 574 652 650
f 575 651 653
f 575 653 577
f 578 580 654
f 578 654 655
f 576 578 655
f 576 655 652
f 580 583 656
f 580 656 654
f 583 585 657
f 583 657 656
f 585 587 658
f 585 658 657
f 587 589 659
f 587 659 658
f 589 591 660
f 589 660 659
f 591 593 661
f 591 661 660
f 593 595 662
f 593 662 661
f 595 597 663
f 595 663 662
f 597 599 664
f 597 664 663
f 599 601 665
f 599 665 664
f 601 603 666
f 601 666 665
f 603 605 667
f 603 667 666
f 605 579 668
f 605 668 667
f 577 653 668
f 577 668 579
f 669 610 611
f 669 611 670
f 669 671 672
f 669 672 670
f 669 610 673
f 669 673 671
f 670 611 614
f 670 614 674
f 670 672 675
f 670 675 674
f 674 614 616
f 674 616 676
f 674 675 677
f 674 677 676
f 676 616 618
f 676 618 678
f 676 677 679
f 676 679 678
f 678 618 620
f 678 620 680
f 678 679 681
f 678 681 680
f 680 620 622
f 680 622 682
f 680 681 683
f 680 683 682
f 682 622 624
f 682 624 684
f 682 683 685
f 682 685 684
f 684 624 626
f 684 626 686
f 684 685 687
f 684 687 686
f 686 626 628
f 686 628 688
f 686 687 689
f 686 689 688
f 688 628 630
f 688 630 690
f 688 689 691
f 688 691 690
f 690 630 632
f 690 632 692
f 690 691 693
f 690 693 692
f 692 632 634
f 692 634 694
f 692 693 695
f 692 695 694
f 694 634 636
f 694 636 696
f 694 695 697
f 694 697 696
f 696 636 638
f 696 638 698
f 696 697 699
f 696 699 698
f 698 699 700
f 698 700 638
f 610 612 701
f 610 701 673
f 638 700 702
f 638 702 639
f 612 640 703
f 612 703 701
f 639 702 704
f 639 704 641
f 640 642 705
f 640 705 703
f 641 704 706
f 641 706 643
f 642 644 707
f 642 707 705
f 643 706 708
f 643 708 645
f 644 646 709
f 644 709 707
f 645 708 710
f 645 710 647
f 646 648 711
f 646 711 709
f 647 710 712
f 647 712 649
f 648 650 713
f 648 713 711
f 649 712 714
f 649 714 651
f 650 652 715
f 650 715 713
f 651 714 716
f 651 716 653
f 715 717 718
f 715 718 719
f 655 654 718
f 655 718 719
f 652 655 719
f 652 719 715
f 717 720 721
f 717 721 718
f 654 656 721
f 654 721 718
f 720 722 723
f 720 723 721
f 656 657 723
f 656 723 721
f 722 724 725
f 722 725 723
f 657 658 725
f 657 725 723
f 724 726 727
f 724 727 725
f 658 659 727
f 658 727 725
f 726 728 729
f 726 729 727
f 659 660 729
f 659 729 727
f 728 730 731
f 728 731 729
f 660 661 731
f 660 731 729
f 730 732 733
f 730 733 731
f 661 662 733
f 661 733 731
f 732 734 735
f 732 735 733
f 662 663 735
f 662 735 733
f 734 736 737
f 734 737 735
f 663 664 737
f 663 737 735
f 736 738 739
f 736 739 737
f 664 665 739
f 664 739 737
f 738 740 741
f 738 741 739
f 665 666 741
f 665 741 739
f 740 742 743
f 740 743 741
f 666 667 743
f 666 743 741
f 742 716 744
f 742 744 743
f 667 668 744
f 667 744 743
f 653 716 744
f 653 744 668
f 745 746 747
f 745 747 748
f 671 745 746
f 671 746 672
f 671 673 748
f 671 748 745
f 746 749 750
f 746 750 747
f 672 746 749
f 672 749 675
f 749 751 752
f 749 752 750
f 675 749 751
f 675 751 677
f 751 753 754
f 751 754 752
f 677 751 753
f 677 753 679
f 753 755 756
f 753 756 754
f 679 753 755
f 679 755 681
f 755 757 758
f 755 758 756
f 681 755 757
f 681 757 683
f 757 759 760
f 757 760 758
f 683 757 759
f 683 759 685
f 759 761 762
f 759 762 760
f 685 759 761
f 685 761 687
f 761 763 764
f 761 764 762
f 687 761 763
f 687 763 689
f 763 765 766
f 763 766 764
f 689 763 765
f 689 765 691
f 765 767 768
f 765 768 766
f 691 765 767
f 691 767 693
f 767 769 770
f 767 770 768
f 693 767 769
f 693 769 695
f 769 771 772
f 769 772 770
f 695 769 771
f 695 771 697
f 771 773 774
f 771 774 772
f 697 771 773
f 697 773 699
f 699 773 774
f 699 774 700
f 748 747 775
f 748 775 776
f 673 701 776
f 673 776 748
f 747 750 777
f 747 777 775
f 750 752 778
f 750 778 777
f 752 754 779
f 752 779 778
f 754 756 780
f 754 780 779
f 756 758 781
f 756 781 780
f 758 760 782
f 758 782 781
f 760 762 783
f 760 783 782
f 762 764 784
f 762 784 783
f 764 766 785
f 764 785 784
f 766 768 786
f 766 786 785
f 768 770 787
f 768 787 786
f 770 772 788
f 770 788 787
f 772 774 789
f 772 789 788
f 700 774 789
f 700 789 702
f 701 703 790
f 701 790 776
f 702 789 791
f 702 791 704
f 703 705 792
f 703 792 790
f 704 791 793
f 704 793 706
f 705 707 794
f 705 794 792
f 706 793 795
f 706 795 708
f 707 709 796
f 707 796 794
f 708 795 797
f 708 797 710
f 709 711 798
f 709 798 796
f 710 797 799
f 710 799 712
f 711 713 800
f 711 800 798
f 712 799 801
f 712 801 714
f 800 802 803
f 800 803 804
f 715 717 803
f 715 803 804
f 713 715 804
f 713 804 800
f 802 805 806
f 802 806 803
f 717 720 806
f 717 806 803
f 805 807 808
f 805 808 806
f 720 722 808
f 720 808 806
f 807 809 810
f 807 810 808
f 722 724 810
f 722 810 808
f 809 811 812
f 809 812 810
f 724 726 812
f 724 812 810
f 811 813 814
f 811 814 812
f 726 728 814
f 726 814 812
f 813 815 816
f 813 816 814
f 728 730 816
f 728 816 814
f 815 817 818
f 815 818 816
f 730 732 818
f 730 818 816
f 817 819 820
f 817 820 818
f 732 734 820
f 732 820 818
f 819 821 822
f 819 822 820
f 734 736 822
f 734 822 820
f 821 823 824
f 821 824 822
f 736 738 824
f 736 824 822
f 823 825 826
f 823 826 824
f 738 740 826
f 738 826 824
f 825 827 828
f 825 828 826
f 740 742 828
f 740 828 826
f 827 801 829
f 827 829 828
f 742 716 829
f 742 829 828
f 714 801 829
f 714 829 716
f 830 831 832
f 830 832 833
f 776 830 831
f 776 831 775
f 776 790 833
f 776 833 830
f 831 834 835
f 831 835 832
f 775 831 834
f 775 834 777
f 834 836 837
f 834 837 835
f 777 834 836
f 777 836 778
f 836 838 839
f 836 839 837
f 778 836 838
f 778 838 779
f 838 840 841
f 838 841 839
f 779 838 840
f 779 840 780
f 840 842 843
f 840 843 841
f 780 840 842
f 780 842 781
f 842 844 845
f 842 845 843
f 781 842 844
f 781 844 782
f 844 846 847
f 844 847 845
f 782 844 846
f 782 846 783
f 846 848 849
f 846 849 847
f 783 846 848
f 783 848 784
f 848 850 851
f 848 851 849
f 784 848 850
f 784 850 785
f 850 852 853
f 850 853 851
f 785 850 852
f 785 852 786
f 852 854 855
f 852 855 853
f 786 852 854
f 786 854 787
f 854 856 857
f 854 857 855
f 787 854 856
f 787 856 788
f 856 858 859
f 856 859 857
f 788 856 858
f 788 858 789
f 789 858 859
f 789 859 791
f 833 832 860
f 833 860 861
f 790 792 861
f 790 861 833
f 832 835 862
f 832 862 860
f 835 837 863
f 835 863 862
f 837 839 864
f 837 864 863
f 839 841 865
f 839 865 864
f 841 843 866
f 841 866 865
f 843 845 867
f 843 867 866
f 845 847 868
f 845 868 867
f 847 849 869
f 847 869 868
f 849 851 870
f 849 870 869
f 851 853 871
f 851 871 870
f 853 855 872
f 853 872 871
f 855 857 873
f 855 873 872
f 857 859 874
f 857 874 873
f 791 859 874
f 791 874 793
f 792 794 875
f 792 875 861
f 793 874 876
f 793 876 795
f 794 796 877
f 794 877 875
f 795 876 878
f 795 878 797
f 796 798 879
f 796 879 877
f 797 878 880
f 797 880 799
f 800 802 881
f 800 881 882
f 798 800 882
f 798 882 879
f 802 805 883
f 802 883 881
f 805 807 884
f 805 884 883
f 807 809 885
f 807 885 884
f 809 811 886
f 809 886 885
f 811 813 887
f 811 887 886
f 813 815 888
f 813 888 887
f 815 817 889
f 815 889 888
f 817 819 890
f 817 890 889
f 819 821 891
f 819 891 890
f 821 823 892
f 821 892 891
f 823 825 893
f 823 893 892
f 825 827 894
f 825 894 893
f 827 801 895
f 827 895 894
f 799 880 895
f 799 895 801
f 896 897 898
f 896 898 899
f 861 896 897
f 861 897 860
f 861 875 899
f 861 899 896
f 897 900 901
f 897 901 898
f 860 897 900
f 860 900 862
f 900 902 903
f 900 903 901
f 862 900 902
f 862 902 863
f 902 904 905
f 902 905 903
f 863 902 904
f 863 904 864
f 904 906 907
f 904 907 905
f 864 904 906
f 864 906 865
f 906 908 909
f 906 909 907
f 865 906 908
f 865 908 866
f 908 910 911
f 908 911 909
f 866 908 910
f 866 910 867
f 910 912 913
f 910 913 911
f 867 910 912
f 867 912 868
f 912 914 915
f 912 915 913
f 868 912 914
f 868 914 869
f 914 916 917
f 914 917 915
f 869 914 916
f 869 916 870
f 916 918 919
f 916 919 917
f 870 916 918
f 870 918 871
f 918 920 921
f 918 921 919
f 871 918 920
f 871 920 872
f 920 922 923
f 920 923 921
f 872 920 922
f 872 922 873
f 922 924 925
f 922 925 923
f 873 922 924
f 873 924 874
f 874 924 925
f 874 925 876
f 899 898 926
f 899 926 927
f 875 877 927
f 875 927 899
f 898 901 928
f 898 928 926
f 901 903 929
f 901 929 928
f 903 905 930
f 903 930 929
f 905 907 931
f 905 931 930
f 907 909 932
f 907 932 931
f 909 911 933
f 909 933 932
f 911 913 934
f 911 934 933
f 913 915 935
f 913 935 934
f 915 917 936
f 915 936 935
f 917 919 937
f 917 937 936
f 919 921 938
f 919 938 937
f 921 923 939
f 921 939 938
f 923 925 940
f 923 940 939
f 876 925 940
f 876 940 878
f 877 879 941
f 877 941 927
f 878 940 942
f 878 942 880
f 941 943 944
f 941 944 945
f 882 881 944
f 882 944 945
f 879 882 945
f 879 945 941
f 943 946 947
f 943 947 944
f 881 883 947
f 881 947 944
f 946 948 949
f 946 949 947
f 883 884 949
f 883 949 947
f 948 950 951
f 948 951 949
f 884 885 951
f 884 951 949
f 950 952 953
f 950 953 951
f 885 886 953
f 885 953 951
f 952 954 955
f 952 955 953
f 886 887 955
f 886 955 953
f 954 956 957
f 954 957 955
f 887 888 957
f 887 957 955
f 956 958 959
f 956 959 957
f 888 889 959
f 888 959 957
f 958 960 961
f 958 961 959
f 889 890 961
f 889 961 959
f 960 962 963
f 960 963 961
f 890 891 963
f 890 963 961
f 962 964 965
f 962 965 963
f 891 892 965
f 891 965 963
f 964 966 967
f 964 967 965
f 892 893 967
f 892 967 965
f 966 968 969
f 966 969 967
f 893 894 969
f 893 969 967
f 968 942 970
f 968 970 969
f 894 895 970
f 894 970 969
f 880 942 970
f 880 970 895
f 971 972 973
f 971 973 974
f 927 971 972
f 927 972 926
f 941 943 973
f 941 973 974
f 927 941 974
f 927 974 971
f 972 975 976
f 972 976 973
f 926 972 975
f 926 975 928
f 943 946 976
f 943 976 973
f 975 977 978
f 975 978 976
f 928 975 977
f 928 977 929
f 946 948 978
f 946 978 976
f 977 979 980
f 977 980 978
f 929 977 979
f 929 979 930
f 948 950 980
f 948 980 978
f 979 981 982
f 979 982 980
f 930 979 981
f 930 981 931
f 950 952 982
f 950 982 980
f 981 983 984
f 981 984 982
f 931 981 983
f 931 983 932
f 952 954 984
f 952 984 982
f 983 985 986
f 983 986 984
f 932 983 985
f 932 985 933
f 954 956 986
f 954 986 984
f 985 987 988
f 985 988 986
f 933 985 987
f 933 987 934
f 956 958 988
f 956 988 986
f 987 989 990
f 987 990 988
f 934 987 989
f 934 989 935
f 958 960 990
f 958 990 988
f 989 991 992
f 989 992 990
f 935 989 991
f 935 991 936
f 960 962 992
f 960 992 990
f 991 993 994
f 991 994 992
f 936 991 993
f 936 993 937
f 962 964 994
f 962 994 992
f 993 995 996
f 993 996 994
f 937 993 995
f 937 995 938
f 964 966 996
f 964 996 994
f 995 997 998
f 995 998 996
f 938 995 997
f 938 997 939
f 966 968 998
f 966 998 996
f 997 999 1000
f 997 1000 998
f 939 997 999
f 939 999 940
f 968 942 1000
f 968 1000 998
f 940 999 1000
f 940 1000 942
