o [4B] 3D Diagram - S2-07 Group E_69
v -9.824816 12.254665 0.112750
v -9.824816 12.338834 0.112750
v -9.824816 12.338834 0.389500
v -9.824816 12.254665 0.389500
v -9.706564 12.254665 0.112750
v -9.706564 12.254665 0.389500
v -9.706564 12.338834 0.112750
v -9.824816 12.338834 0.666250
v -9.824816 12.254665 0.666250
v -9.706564 12.254665 0.666250
v -9.824816 12.338834 0.943000
v -9.824816 12.254665 0.943000
v -9.706564 12.254665 0.943000
v -9.824816 12.338834 1.219750
v -9.824816 12.254665 1.219750
v -9.706564 12.254665 1.219750
v -9.824816 12.338834 1.496500
v -9.824816 12.254665 1.496500
v -9.706564 12.254665 1.496500
v -9.824816 12.338834 1.773250
v -9.824816 12.254665 1.773250
v -9.706564 12.254665 1.773250
v -9.824816 12.338834 2.050000
v -9.824816 12.254665 2.050000
v -9.706564 12.254665 2.050000
v -9.824816 12.338834 2.326750
v -9.824816 12.254665 2.326750
v -9.706564 12.254665 2.326750
v -9.824816 12.338834 2.603500
v -9.824816 12.254665 2.603500
v -9.706564 12.254665 2.603500
v -9.824816 12.338834 2.880250
v -9.824816 12.254665 2.880250
v -9.706564 12.254665 2.880250
v -9.824816 12.338834 3.157000
v -9.824816 12.254665 3.157000
v -9.706564 12.254665 3.157000
v -9.824816 12.338834 3.433750
v -9.824816 12.254665 3.433750
v -9.706564 12.254665 3.433750
v -9.824816 12.338834 3.710500
v -9.824816 12.254665 3.710500
v -9.706564 12.254665 3.710500
v -9.824816 12.338834 3.987250
v -9.824816 12.254665 3.987250
v -9.706564 12.254665 3.987250
v -9.706564 12.338834 3.987250
v -9.824816 12.423002 0.112750
v -9.824816 12.423002 0.389500
v -9.706564 12.423002 0.112750
v -9.824816 12.423002 0.666250
v -9.824816 12.423002 0.943000
v -9.824816 12.423002 1.219750
v -9.824816 12.423002 1.496500
v -9.824816 12.423002 1.773250
v -9.824816 12.423002 2.050000
v -9.824816 12.423002 2.326750
v -9.824816 12.423002 2.603500
v -9.824816 12.423002 2.880250
v -9.824816 12.423002 3.157000
v -9.824816 12.423002 3.433750
v -9.824816 12.423002 3.710500
v -9.824816 12.423002 3.987250
v -9.706564 12.423002 3.987250
v -9.824816 12.507171 0.112750
v -9.824816 12.507171 0.389500
v -9.706564 12.507171 0.112750
v -9.824816 12.507171 0.666250
v -9.824816 12.507171 0.943000
v -9.824816 12.507171 1.219750
v -9.824816 12.507171 1.496500
v -9.824816 12.507171 1.773250
v -9.824816 12.507171 2.050000
v -9.824816 12.507171 2.326750
v -9.824816 12.507171 2.603500
v -9.824816 12.507171 2.880250
v -9.824816 12.507171 3.157000
v -9.824816 12.507171 3.433750
v -9.824816 12.507171 3.710500
v -9.824816 12.507171 3.987250
v -9.706564 12.507171 3.987250
v -9.824816 12.591340 0.112750
v -9.824816 12.591340 0.389500
v -9.706564 12.591340 0.112750
v -9.824816 12.591340 0.666250
v -9.824816 12.591340 0.943000
v -9.824816 12.591340 1.219750
v -9.824816 12.591340 1.496500
v -9.824816 12.591340 1.773250
v -9.824816 12.591340 2.050000
v -9.824816 12.591340 2.326750
v -9.824816 12.591340 2.603500
v -9.824816 12.591340 2.880250
v -9.824816 12.591340 3.157000
v -9.824816 12.591340 3.433750
v -9.824816 12.591340 3.710500
v -9.824816 12.591340 3.987250
v -9.706564 12.591340 3.987250
v -9.824816 12.675508 0.112750
v -9.824816 12.675508 0.389500
v -9.706564 12.675508 0.112750
v -9.824816 12.675508 0.666250
v -9.824816 12.675508 0.943000
v -9.824816 12.675508 1.219750
v -9.824816 12.675508 1.496500
v -9.824816 12.675508 1.773250
v -9.824816 12.675508 2.050000
v -9.824816 12.675508 2.326750
v -9.824816 12.675508 2.603500
v -9.824816 12.675508 2.880250
v -9.824816 12.675508 3.157000
v -9.824816 12.675508 3.433750
v -9.824816 12.675508 3.710500
v -9.824816 12.675508 3.987250
v -9.706564 12.675508 3.987250
v -9.824816 12.759677 0.112750
v -9.824816 12.759677 0.389500
v -9.706564 12.759677 0.389500
v -9.706564 12.759677 0.112750
v -9.824816 12.759677 0.666250
v -9.706564 12.759677 0.666250
v -9.824816 12.759677 0.943000
v -9.706564 12.759677 0.943000
v -9.824816 12.759677 1.219750
v -9.706564 12.759677 1.219750
v -9.824816 12.759677 1.496500
v -9.706564 12.759677 1.496500
v -9.824816 12.759677 1.773250
v -9.706564 12.759677 1.773250
v -9.824816 12.759677 2.050000
v -9.706564 12.759677 2.050000
v -9.824816 12.759677 2.326750
v -9.706564 12.759677 2.326750
v -9.824816 12.759677 2.603500
v -9.706564 12.759677 2.603500
v -9.824816 12.759677 2.880250
v -9.706564 12.759677 2.880250
v -9.824816 12.759677 3.157000
v -9.706564 12.759677 3.157000
v -9.824816 12.759677 3.433750
v -9.706564 12.759677 3.433750
v -9.824816 12.759677 3.710500
v -9.706564 12.759677 3.710500
v -9.824816 12.759677 3.987250
v -9.706564 12.759677 3.987250
v -9.706564 12.086328 0.112750
v -9.706564 12.170496 0.112750
v -9.706564 12.170496 0.389500
v -9.706564 12.086328 0.389500
v -9.588312 12.086328 0.112750
v -9.588312 12.086328 0.389500
v -9.588312 12.170496 0.112750
v -9.706564 12.170496 0.666250
v -9.706564 12.086328 0.666250
v -9.588312 12.086328 0.666250
v -9.706564 12.170496 0.943000
v -9.706564 12.086328 0.943000
v -9.588312 12.086328 0.943000
v -9.706564 12.170496 1.219750
v -9.706564 12.086328 1.219750
v -9.588312 12.086328 1.219750
v -9.706564 12.170496 1.496500
v -9.706564 12.086328 1.496500
v -9.588312 12.086328 1.496500
v -9.706564 12.170496 1.773250
v -9.706564 12.086328 1.773250
v -9.588312 12.086328 1.773250
v -9.706564 12.170496 2.050000
v -9.706564 12.086328 2.050000
v -9.588312 12.086328 2.050000
v -9.706564 12.170496 2.326750
v -9.706564 12.086328 2.326750
v -9.588312 12.086328 2.326750
v -9.706564 12.170496 2.603500
v -9.706564 12.086328 2.603500
v -9.588312 12.086328 2.603500
v -9.706564 12.170496 2.880250
v -9.706564 12.086328 2.880250
v -9.588312 12.086328 2.880250
v -9.706564 12.170496 3.157000
v -9.706564 12.086328 3.157000
v -9.588312 12.086328 3.157000
v -9.706564 12.170496 3.433750
v -9.706564 12.086328 3.433750
v -9.588312 12.086328 3.433750
v -9.706564 12.170496 3.710500
v -9.706564 12.086328 3.710500
v -9.588312 12.086328 3.710500
v -9.706564 12.170496 3.987250
v -9.706564 12.086328 3.987250
v -9.588312 12.086328 3.987250
v -9.588312 12.170496 3.987250
v -9.588312 12.254665 0.112750
v -9.588312 12.254665 3.987250
v -9.588312 12.338834 0.112750
v -9.588312 12.338834 3.987250
v -9.588312 12.423002 0.112750
v -9.588312 12.423002 3.987250
v -9.588312 12.507171 0.112750
v -9.588312 12.507171 3.987250
v -9.588312 12.591340 0.112750
v -9.588312 12.591340 3.987250
v -9.588312 12.675508 0.112750
v -9.588312 12.675508 3.987250
v -9.588312 12.759677 0.112750
v -9.588312 12.759677 3.987250
v -9.706564 12.843845 0.112750
v -9.706564 12.843845 0.389500
v -9.588312 12.843845 0.389500
v -9.588312 12.843845 0.112750
v -9.706564 12.843845 0.666250
v -9.588312 12.843845 0.666250
v -9.706564 12.843845 0.943000
v -9.588312 12.843845 0.943000
v -9.706564 12.843845 1.219750
v -9.588312 12.843845 1.219750
v -9.706564 12.843845 1.496500
v -9.588312 12.843845 1.496500
v -9.706564 12.843845 1.773250
v -9.588312 12.843845 1.773250
v -9.706564 12.843845 2.050000
v -9.588312 12.843845 2.050000
v -9.706564 12.843845 2.326750
v -9.588312 12.843845 2.326750
v -9.706564 12.843845 2.603500
v -9.588312 12.843845 2.603500
v -9.706564 12.843845 2.880250
v -9.588312 12.843845 2.880250
v -9.706564 12.843845 3.157000
v -9.588312 12.843845 3.157000
v -9.706564 12.843845 3.433750
v -9.588312 12.843845 3.433750
v -9.706564 12.843845 3.710500
v -9.588312 12.843845 3.710500
v -9.706564 12.843845 3.987250
v -9.588312 12.843845 3.987250
v -9.470060 12.086328 0.112750
v -9.470060 12.086328 0.389500
v -9.470060 12.170496 0.112750
v -9.470060 12.086328 0.666250
v -9.470060 12.086328 0.943000
v -9.470060 12.086328 1.219750
v -9.470060 12.086328 1.496500
v -9.470060 12.086328 1.773250
v -9.470060 12.086328 2.050000
v -9.470060 12.086328 2.326750
v -9.470060 12.086328 2.603500
v -9.470060 12.086328 2.880250
v -9.470060 12.086328 3.157000
v -9.470060 12.086328 3.433750
v -9.470060 12.086328 3.710500
v -9.470060 12.086328 3.987250
v -9.470060 12.170496 3.987250
v -9.470060 12.254665 0.112750
v -9.470060 12.254665 3.987250
v -9.470060 12.338834 0.112750
v -9.470060 12.338834 3.987250
v -9.470060 12.423002 0.112750
v -9.470060 12.423002 3.987250
v -9.470060 12.507171 0.112750
v -9.470060 12.507171 3.987250
v -9.470060 12.591340 0.112750
v -9.470060 12.591340 3.987250
v -9.470060 12.675508 0.112750
v -9.470060 12.675508 3.987250
v -9.470060 12.759677 0.112750
v -9.470060 12.759677 3.987250
v -9.470060 12.843845 0.389500
v -9.470060 12.843845 0.112750
v -9.470060 12.843845 0.666250
v -9.470060 12.843845 0.943000
v -9.470060 12.843845 1.219750
v -9.470060 12.843845 1.496500
v -9.470060 12.843845 1.773250
v -9.470060 12.843845 2.050000
v -9.470060 12.843845 2.326750
v -9.470060 12.843845 2.603500
v -9.470060 12.843845 2.880250
v -9.470060 12.843845 3.157000
v -9.470060 12.843845 3.433750
v -9.470060 12.843845 3.710500
v -9.470060 12.843845 3.987250
v -9.351808 12.086328 0.112750
v -9.351808 12.086328 0.389500
v -9.351808 12.170496 0.112750
v -9.351808 12.086328 0.666250
v -9.351808 12.086328 0.943000
v -9.351808 12.086328 1.219750
v -9.351808 12.086328 1.496500
v -9.351808 12.086328 1.773250
v -9.351808 12.086328 2.050000
v -9.351808 12.086328 2.326750
v -9.351808 12.086328 2.603500
v -9.351808 12.086328 2.880250
v -9.351808 12.086328 3.157000
v -9.351808 12.086328 3.433750
v -9.351808 12.086328 3.710500
v -9.351808 12.086328 3.987250
v -9.351808 12.170496 3.987250
v -9.351808 12.254665 0.112750
v -9.351808 12.254665 3.987250
v -9.351808 12.338834 0.112750
v -9.351808 12.338834 3.987250
v -9.351808 12.423002 0.112750
v -9.351808 12.423002 3.987250
v -9.351808 12.507171 0.112750
v -9.351808 12.507171 3.987250
v -9.351808 12.591340 0.112750
v -9.351808 12.591340 3.987250
v -9.351808 12.675508 0.112750
v -9.351808 12.675508 3.987250
v -9.351808 12.759677 0.112750
v -9.351808 12.759677 3.987250
v -9.351808 12.843845 0.112750
v -9.351808 12.843845 3.987250
v -9.470060 12.928014 0.112750
v -9.470060 12.928014 0.389500
v -9.351808 12.928014 0.389500
v -9.351808 12.928014 0.112750
v -9.470060 12.928014 0.666250
v -9.351808 12.928014 0.666250
v -9.470060 12.928014 0.943000
v -9.351808 12.928014 0.943000
v -9.470060 12.928014 1.219750
v -9.351808 12.928014 1.219750
v -9.470060 12.928014 1.496500
v -9.351808 12.928014 1.496500
v -9.470060 12.928014 1.773250
v -9.351808 12.928014 1.773250
v -9.470060 12.928014 2.050000
v -9.351808 12.928014 2.050000
v -9.470060 12.928014 2.326750
v -9.351808 12.928014 2.326750
v -9.470060 12.928014 2.603500
v -9.351808 12.928014 2.603500
v -9.470060 12.928014 2.880250
v -9.351808 12.928014 2.880250
v -9.470060 12.928014 3.157000
v -9.351808 12.928014 3.157000
v -9.470060 12.928014 3.433750
v -9.351808 12.928014 3.433750
v -9.470060 12.928014 3.710500
v -9.351808 12.928014 3.710500
v -9.470060 12.928014 3.987250
v -9.351808 12.928014 3.987250
v -9.233557 12.086328 0.112750
v -9.233557 12.086328 0.389500
v -9.233557 12.170496 0.112750
v -9.233557 12.086328 0.666250
v -9.233557 12.086328 0.943000
v -9.233557 12.086328 1.219750
v -9.233557 12.086328 1.496500
v -9.233557 12.086328 1.773250
v -9.233557 12.086328 2.050000
v -9.233557 12.086328 2.326750
v -9.233557 12.086328 2.603500
v -9.233557 12.086328 2.880250
v -9.233557 12.086328 3.157000
v -9.233557 12.086328 3.433750
v -9.233557 12.086328 3.710500
v -9.233557 12.086328 3.987250
v -9.233557 12.170496 3.987250
v -9.233557 12.254665 0.112750
v -9.233557 12.254665 3.987250
v -9.233557 12.338834 0.112750
v -9.233557 12.338834 3.987250
v -9.233557 12.423002 0.112750
v -9.233557 12.423002 3.987250
v -9.233557 12.507171 0.112750
v -9.233557 12.507171 3.987250
v -9.233557 12.591340 0.112750
v -9.233557 12.591340 3.987250
v -9.233557 12.675508 0.112750
v -9.233557 12.675508 3.987250
v -9.233557 12.759677 0.112750
v -9.233557 12.759677 3.987250
v -9.233557 12.843845 0.112750
v -9.233557 12.843845 3.987250
v -9.233557 12.928014 0.112750
v -9.233557 12.928014 3.987250
v -9.351808 13.012183 0.112750
v -9.351808 13.012183 0.389500
v -9.233557 13.012183 0.389500
v -9.233557 13.012183 0.112750
v -9.351808 13.012183 0.666250
v -9.233557 13.012183 0.666250
v -9.351808 13.012183 0.943000
v -9.233557 13.012183 0.943000
v -9.351808 13.012183 1.219750
v -9.233557 13.012183 1.219750
v -9.351808 13.012183 1.496500
v -9.233557 13.012183 1.496500
v -9.351808 13.012183 1.773250
v -9.233557 13.012183 1.773250
v -9.351808 13.012183 2.050000
v -9.233557 13.012183 2.050000
v -9.351808 13.012183 2.326750
v -9.233557 13.012183 2.326750
v -9.351808 13.012183 2.603500
v -9.233557 13.012183 2.603500
v -9.351808 13.012183 2.880250
v -9.233557 13.012183 2.880250
v -9.351808 13.012183 3.157000
v -9.233557 13.012183 3.157000
v -9.351808 13.012183 3.433750
v -9.233557 13.012183 3.433750
v -9.351808 13.012183 3.710500
v -9.233557 13.012183 3.710500
v -9.351808 13.012183 3.987250
v -9.233557 13.012183 3.987250
v -9.115305 12.086328 0.112750
v -9.115305 12.086328 0.389500
v -9.115305 12.170496 0.112750
v -9.115305 12.086328 0.666250
v -9.115305 12.086328 0.943000
v -9.115305 12.086328 1.219750
v -9.115305 12.086328 1.496500
v -9.115305 12.086328 1.773250
v -9.115305 12.086328 2.050000
v -9.115305 12.086328 2.326750
v -9.115305 12.086328 2.603500
v -9.115305 12.086328 2.880250
v -9.115305 12.086328 3.157000
v -9.115305 12.086328 3.433750
v -9.115305 12.086328 3.710500
v -9.115305 12.086328 3.987250
v -9.115305 12.170496 3.987250
v -9.115305 12.254665 0.112750
v -9.115305 12.254665 3.987250
v -9.115305 12.338834 0.112750
v -9.115305 12.338834 3.987250
v -9.115305 12.423002 0.112750
v -9.115305 12.423002 3.987250
v -9.115305 12.507171 0.112750
v -9.115305 12.507171 3.987250
v -9.115305 12.591340 0.112750
v -9.115305 12.591340 3.987250
v -9.115305 12.675508 0.112750
v -9.115305 12.675508 3.987250
v -9.115305 12.759677 0.112750
v -9.115305 12.759677 3.987250
v -9.115305 12.843845 0.112750
v -9.115305 12.843845 3.987250
v -9.115305 12.928014 0.112750
v -9.115305 12.928014 3.987250
v -9.115305 13.012183 0.112750
v -9.115305 13.012183 3.987250
v -9.233557 13.096351 0.112750
v -9.233557 13.096351 0.389500
v -9.115305 13.096351 0.389500
v -9.115305 13.096351 0.112750
v -9.233557 13.096351 0.666250
v -9.115305 13.096351 0.666250
v -9.233557 13.096351 0.943000
v -9.115305 13.096351 0.943000
v -9.233557 13.096351 1.219750
v -9.115305 13.096351 1.219750
v -9.233557 13.096351 1.496500
v -9.115305 13.096351 1.496500
v -9.233557 13.096351 1.773250
v -9.115305 13.096351 1.773250
v -9.233557 13.096351 2.050000
v -9.115305 13.096351 2.050000
v -9.233557 13.096351 2.326750
v -9.115305 13.096351 2.326750
v -9.233557 13.096351 2.603500
v -9.115305 13.096351 2.603500
v -9.233557 13.096351 2.880250
v -9.115305 13.096351 2.880250
v -9.233557 13.096351 3.157000
v -9.115305 13.096351 3.157000
v -9.233557 13.096351 3.433750
v -9.115305 13.096351 3.433750
v -9.233557 13.096351 3.710500
v -9.115305 13.096351 3.710500
v -9.233557 13.096351 3.987250
v -9.115305 13.096351 3.987250
v -8.997053 12.086328 0.112750
v -8.997053 12.086328 0.389500
v -8.997053 12.170496 0.112750
v -8.997053 12.086328 0.666250
v -8.997053 12.086328 0.943000
v -8.997053 12.086328 1.219750
v -8.997053 12.086328 1.496500
v -8.997053 12.086328 1.773250
v -8.997053 12.086328 2.050000
v -8.997053 12.086328 2.326750
v -8.997053 12.086328 2.603500
v -8.997053 12.086328 2.880250
v -8.997053 12.086328 3.157000
v -8.997053 12.086328 3.433750
v -8.997053 12.086328 3.710500
v -8.997053 12.086328 3.987250
v -8.997053 12.170496 3.987250
v -8.997053 12.254665 0.112750
v -8.997053 12.254665 3.987250
v -8.997053 12.338834 0.112750
v -8.997053 12.338834 3.987250
v -8.997053 12.423002 0.112750
v -8.997053 12.423002 3.987250
v -8.997053 12.507171 0.112750
v -8.997053 12.507171 3.987250
v -8.997053 12.591340 0.112750
v -8.997053 12.591340 3.987250
v -8.997053 12.675508 0.112750
v -8.997053 12.675508 3.987250
v -8.997053 12.759677 0.112750
v -8.997053 12.759677 3.987250
v -8.997053 12.843845 0.112750
v -8.997053 12.843845 3.987250
v -8.997053 12.928014 0.112750
v -8.997053 12.928014 3.987250
v -8.997053 13.012183 0.112750
v -8.997053 13.012183 3.987250
v -8.997053 13.096351 0.112750
v -8.997053 13.096351 3.987250
v -9.115305 13.180520 0.112750
v -9.115305 13.180520 0.389500
v -8.997053 13.180520 0.389500
v -8.997053 13.180520 0.112750
v -9.115305 13.180520 0.666250
v -8.997053 13.180520 0.666250
v -9.115305 13.180520 0.943000
v -8.997053 13.180520 0.943000
v -9.115305 13.180520 1.219750
v -8.997053 13.180520 1.219750
v -9.115305 13.180520 1.496500
v -8.997053 13.180520 1.496500
v -9.115305 13.180520 1.773250
v -8.997053 13.180520 1.773250
v -9.115305 13.180520 2.050000
v -8.997053 13.180520 2.050000
v -9.115305 13.180520 2.326750
v -8.997053 13.180520 2.326750
v -9.115305 13.180520 2.603500
v -8.997053 13.180520 2.603500
v -9.115305 13.180520 2.880250
v -8.997053 13.180520 2.880250
v -9.115305 13.180520 3.157000
v -8.997053 13.180520 3.157000
v -9.115305 13.180520 3.433750
v -8.997053 13.180520 3.433750
v -9.115305 13.180520 3.710500
v -8.997053 13.180520 3.710500
v -9.115305 13.180520 3.987250
v -8.997053 13.180520 3.987250
v -8.878801 12.086328 0.112750
v -8.878801 12.086328 0.389500
v -8.878801 12.170496 0.112750
v -8.878801 12.086328 0.666250
v -8.878801 12.086328 0.943000
v -8.878801 12.086328 1.219750
v -8.878801 12.086328 1.496500
v -8.878801 12.086328 1.773250
v -8.878801 12.086328 2.050000
v -8.878801 12.086328 2.326750
v -8.878801 12.086328 2.603500
v -8.878801 12.086328 2.880250
v -8.878801 12.086328 3.157000
v -8.878801 12.086328 3.433750
v -8.878801 12.086328 3.710500
v -8.878801 12.086328 3.987250
v -8.878801 12.170496 3.987250
v -8.878801 12.254665 0.112750
v -8.878801 12.254665 3.987250
v -8.878801 12.338834 0.112750
v -8.878801 12.338834 3.987250
v -8.878801 12.423002 0.112750
v -8.878801 12.423002 3.987250
v -8.878801 12.507171 0.112750
v -8.878801 12.507171 3.987250
v -8.878801 12.591340 0.112750
v -8.878801 12.591340 3.987250
v -8.878801 12.675508 0.112750
v -8.878801 12.675508 3.987250
v -8.878801 12.759677 0.112750
v -8.878801 12.759677 3.987250
v -8.878801 12.843845 0.112750
v -8.878801 12.843845 3.987250
v -8.878801 12.928014 0.112750
v -8.878801 12.928014 3.987250
v -8.878801 13.012183 0.112750
v -8.878801 13.012183 3.987250
v -8.878801 13.096351 0.112750
v -8.878801 13.096351 3.987250
v -8.878801 13.180520 0.112750
v -8.878801 13.180520 3.987250
v -8.997053 13.264689 0.112750
v -8.997053 13.264689 0.389500
v -8.878801 13.264689 0.389500
v -8.878801 13.264689 0.112750
v -8.997053 13.264689 0.666250
v -8.878801 13.264689 0.666250
v -8.997053 13.264689 0.943000
v -8.878801 13.264689 0.943000
v -8.997053 13.264689 1.219750
v -8.878801 13.264689 1.219750
v -8.997053 13.264689 1.496500
v -8.878801 13.264689 1.496500
v -8.997053 13.264689 1.773250
v -8.878801 13.264689 1.773250
v -8.997053 13.264689 2.050000
v -8.878801 13.264689 2.050000
v -8.997053 13.264689 2.326750
v -8.878801 13.264689 2.326750
v -8.997053 13.264689 2.603500
v -8.878801 13.264689 2.603500
v -8.997053 13.264689 2.880250
v -8.878801 13.264689 2.880250
v -8.997053 13.264689 3.157000
v -8.878801 13.264689 3.157000
v -8.997053 13.264689 3.433750
v -8.878801 13.264689 3.433750
v -8.997053 13.264689 3.710500
v -8.878801 13.264689 3.710500
v -8.997053 13.264689 3.987250
v -8.878801 13.264689 3.987250
v -8.760550 12.086328 0.112750
v -8.760550 12.086328 0.389500
v -8.760550 12.170496 0.389500
v -8.760550 12.170496 0.112750
v -8.760550 12.086328 0.666250
v -8.760550 12.170496 0.666250
v -8.760550 12.086328 0.943000
v -8.760550 12.170496 0.943000
v -8.760550 12.086328 1.219750
v -8.760550 12.170496 1.219750
v -8.760550 12.086328 1.496500
v -8.760550 12.170496 1.496500
v -8.760550 12.086328 1.773250
v -8.760550 12.170496 1.773250
v -8.760550 12.086328 2.050000
v -8.760550 12.170496 2.050000
v -8.760550 12.086328 2.326750
v -8.760550 12.170496 2.326750
v -8.760550 12.086328 2.603500
v -8.760550 12.170496 2.603500
v -8.760550 12.086328 2.880250
v -8.760550 12.170496 2.880250
v -8.760550 12.086328 3.157000
v -8.760550 12.170496 3.157000
v -8.760550 12.086328 3.433750
v -8.760550 12.170496 3.433750
v -8.760550 12.086328 3.710500
v -8.760550 12.170496 3.710500
v -8.760550 12.086328 3.987250
v -8.760550 12.170496 3.987250
v -8.760550 12.254665 0.112750
v -8.760550 12.254665 3.987250
v -8.760550 12.338834 0.112750
v -8.760550 12.338834 3.987250
v -8.760550 12.423002 0.112750
v -8.760550 12.423002 3.987250
v -8.760550 12.507171 0.112750
v -8.760550 12.507171 3.987250
v -8.760550 12.591340 0.112750
v -8.760550 12.591340 3.987250
v -8.760550 12.675508 0.112750
v -8.760550 12.675508 3.987250
v -8.760550 12.759677 0.112750
v -8.760550 12.759677 3.987250
v -8.760550 12.843845 0.112750
v -8.760550 12.843845 3.987250
v -8.760550 12.928014 0.112750
v -8.760550 12.928014 3.987250
v -8.760550 13.012183 0.112750
v -8.760550 13.012183 3.987250
v -8.760550 13.096351 0.112750
v -8.760550 13.096351 3.987250
v -8.760550 13.180520 0.112750
v -8.760550 13.180520 3.987250
v -8.760550 13.264689 0.112750
v -8.760550 13.264689 3.987250
v -8.878801 13.348857 0.112750
v -8.878801 13.348857 0.389500
v -8.760550 13.348857 0.389500
v -8.760550 13.348857 0.112750
v -8.878801 13.348857 0.666250
v -8.760550 13.348857 0.666250
v -8.878801 13.348857 0.943000
v -8.760550 13.348857 0.943000
v -8.878801 13.348857 1.219750
v -8.760550 13.348857 1.219750
v -8.878801 13.348857 1.496500
v -8.760550 13.348857 1.496500
v -8.878801 13.348857 1.773250
v -8.760550 13.348857 1.773250
v -8.878801 13.348857 2.050000
v -8.760550 13.348857 2.050000
v -8.878801 13.348857 2.326750
v -8.760550 13.348857 2.326750
v -8.878801 13.348857 2.603500
v -8.760550 13.348857 2.603500
v -8.878801 13.348857 2.880250
v -8.760550 13.348857 2.880250
v -8.878801 13.348857 3.157000
v -8.760550 13.348857 3.157000
v -8.878801 13.348857 3.433750
v -8.760550 13.348857 3.433750
v -8.878801 13.348857 3.710500
v -8.760550 13.348857 3.710500
v -8.878801 13.348857 3.987250
v -8.760550 13.348857 3.987250
v -8.642298 12.170496 0.112750
v -8.642298 12.170496 0.389500
v -8.642298 12.254665 0.389500
v -8.642298 12.254665 0.112750
v -8.642298 12.170496 0.666250
v -8.642298 12.254665 0.666250
v -8.642298 12.170496 0.943000
v -8.642298 12.254665 0.943000
v -8.642298 12.170496 1.219750
v -8.642298 12.254665 1.219750
v -8.642298 12.170496 1.496500
v -8.642298 12.254665 1.496500
v -8.642298 12.170496 1.773250
v -8.642298 12.254665 1.773250
v -8.642298 12.170496 2.050000
v -8.642298 12.254665 2.050000
v -8.642298 12.170496 2.326750
v -8.642298 12.254665 2.326750
v -8.642298 12.170496 2.603500
v -8.642298 12.254665 2.603500
v -8.642298 12.170496 2.880250
v -8.642298 12.254665 2.880250
v -8.642298 12.170496 3.157000
v -8.642298 12.254665 3.157000
v -8.642298 12.170496 3.433750
v -8.642298 12.254665 3.433750
v -8.642298 12.170496 3.710500
v -8.642298 12.254665 3.710500
v -8.642298 12.170496 3.987250
v -8.642298 12.254665 3.987250
v -8.642298 12.338834 0.112750
v -8.642298 12.338834 3.987250
v -8.642298 12.423002 0.112750
v -8.642298 12.423002 3.987250
v -8.642298 12.507171 0.112750
v -8.642298 12.507171 3.987250
v -8.642298 12.591340 0.112750
v -8.642298 12.591340 3.987250
v -8.642298 12.675508 0.112750
v -8.642298 12.675508 3.987250
v -8.642298 12.759677 0.112750
v -8.642298 12.759677 3.987250
v -8.642298 12.843845 0.112750
v -8.642298 12.843845 3.987250
v -8.642298 12.928014 0.112750
v -8.642298 12.928014 3.987250
v -8.642298 13.012183 0.112750
v -8.642298 13.012183 3.987250
v -8.642298 13.096351 0.112750
v -8.642298 13.096351 3.987250
v -8.642298 13.180520 0.112750
v -8.642298 13.180520 3.987250
v -8.642298 13.264689 0.112750
v -8.642298 13.264689 3.987250
v -8.642298 13.348857 0.389500
v -8.642298 13.348857 0.112750
v -8.642298 13.348857 0.666250
v -8.642298 13.348857 0.943000
v -8.642298 13.348857 1.219750
v -8.642298 13.348857 1.496500
v -8.642298 13.348857 1.773250
v -8.642298 13.348857 2.050000
v -8.642298 13.348857 2.326750
v -8.642298 13.348857 2.603500
v -8.642298 13.348857 2.880250
v -8.642298 13.348857 3.157000
v -8.642298 13.348857 3.433750
v -8.642298 13.348857 3.710500
v -8.642298 13.348857 3.987250
v -8.524046 12.254665 0.112750
v -8.524046 12.254665 0.389500
v -8.524046 12.338834 0.389500
v -8.524046 12.338834 0.112750
v -8.524046 12.254665 0.666250
v -8.524046 12.338834 0.666250
v -8.524046 12.254665 0.943000
v -8.524046 12.338834 0.943000
v -8.524046 12.254665 1.219750
v -8.524046 12.338834 1.219750
v -8.524046 12.254665 1.496500
v -8.524046 12.338834 1.496500
v -8.524046 12.254665 1.773250
v -8.524046 12.338834 1.773250
v -8.524046 12.254665 2.050000
v -8.524046 12.338834 2.050000
v -8.524046 12.254665 2.326750
v -8.524046 12.338834 2.326750
v -8.524046 12.254665 2.603500
v -8.524046 12.338834 2.603500
v -8.524046 12.254665 2.880250
v -8.524046 12.338834 2.880250
v -8.524046 12.254665 3.157000
v -8.524046 12.338834 3.157000
v -8.524046 12.254665 3.433750
v -8.524046 12.338834 3.433750
v -8.524046 12.254665 3.710500
v -8.524046 12.338834 3.710500
v -8.524046 12.254665 3.987250
v -8.524046 12.338834 3.987250
v -8.524046 12.423002 0.112750
v -8.524046 12.423002 3.987250
v -8.524046 12.507171 0.112750
v -8.524046 12.507171 3.987250
v -8.524046 12.591340 0.112750
v -8.524046 12.591340 3.987250
v -8.524046 12.675508 0.112750
v -8.524046 12.675508 3.987250
v -8.524046 12.759677 0.112750
v -8.524046 12.759677 3.987250
v -8.524046 12.843845 0.112750
v -8.524046 12.843845 3.987250
v -8.524046 12.928014 0.112750
v -8.524046 12.928014 3.987250
v -8.524046 13.012183 0.112750
v -8.524046 13.012183 3.987250
v -8.524046 13.096351 0.112750
v -8.524046 13.096351 3.987250
v -8.524046 13.180520 0.112750
v -8.524046 13.180520 3.987250
v -8.524046 13.264689 0.112750
v -8.524046 13.264689 3.987250
v -8.524046 13.348857 0.112750
v -8.524046 13.348857 3.987250
v -8.642298 13.433026 0.112750
v -8.642298 13.433026 0.389500
v -8.524046 13.433026 0.389500
v -8.524046 13.433026 0.112750
v -8.642298 13.433026 0.666250
v -8.524046 13.433026 0.666250
v -8.642298 13.433026 0.943000
v -8.524046 13.433026 0.943000
v -8.642298 13.433026 1.219750
v -8.524046 13.433026 1.219750
v -8.642298 13.433026 1.496500
v -8.524046 13.433026 1.496500
v -8.642298 13.433026 1.773250
v -8.524046 13.433026 1.773250
v -8.642298 13.433026 2.050000
v -8.524046 13.433026 2.050000
v -8.642298 13.433026 2.326750
v -8.524046 13.433026 2.326750
v -8.642298 13.433026 2.603500
v -8.524046 13.433026 2.603500
v -8.642298 13.433026 2.880250
v -8.524046 13.433026 2.880250
v -8.642298 13.433026 3.157000
v -8.524046 13.433026 3.157000
v -8.642298 13.433026 3.433750
v -8.524046 13.433026 3.433750
v -8.642298 13.433026 3.710500
v -8.524046 13.433026 3.710500
v -8.642298 13.433026 3.987250
v -8.524046 13.433026 3.987250
v -8.405794 12.338834 0.112750
v -8.405794 12.338834 0.389500
v -8.405794 12.423002 0.389500
v -8.405794 12.423002 0.112750
v -8.405794 12.338834 0.666250
v -8.405794 12.423002 0.666250
v -8.405794 12.338834 0.943000
v -8.405794 12.423002 0.943000
v -8.405794 12.338834 1.219750
v -8.405794 12.423002 1.219750
v -8.405794 12.338834 1.496500
v -8.405794 12.423002 1.496500
v -8.405794 12.338834 1.773250
v -8.405794 12.423002 1.773250
v -8.405794 12.338834 2.050000
v -8.405794 12.423002 2.050000
v -8.405794 12.338834 2.326750
v -8.405794 12.423002 2.326750
v -8.405794 12.338834 2.603500
v -8.405794 12.423002 2.603500
v -8.405794 12.338834 2.880250
v -8.405794 12.423002 2.880250
v -8.405794 12.338834 3.157000
v -8.405794 12.423002 3.157000
v -8.405794 12.338834 3.433750
v -8.405794 12.423002 3.433750
v -8.405794 12.338834 3.710500
v -8.405794 12.423002 3.710500
v -8.405794 12.338834 3.987250
v -8.405794 12.423002 3.987250
v -8.405794 12.507171 0.112750
v -8.405794 12.507171 3.987250
v -8.405794 12.591340 0.112750
v -8.405794 12.591340 3.987250
v -8.405794 12.675508 0.112750
v -8.405794 12.675508 3.987250
v -8.405794 12.759677 0.112750
v -8.405794 12.759677 3.987250
v -8.405794 12.843845 0.112750
v -8.405794 12.843845 3.987250
v -8.405794 12.928014 0.112750
v -8.405794 12.928014 3.987250
v -8.405794 13.012183 0.112750
v -8.405794 13.012183 3.987250
v -8.405794 13.096351 0.112750
v -8.405794 13.096351 3.987250
v -8.405794 13.180520 0.112750
v -8.405794 13.180520 3.987250
v -8.405794 13.264689 0.112750
v -8.405794 13.264689 3.987250
v -8.405794 13.348857 0.112750
v -8.405794 13.348857 3.987250
v -8.405794 13.433026 0.389500
v -8.405794 13.433026 0.112750
v -8.405794 13.433026 0.666250
v -8.405794 13.433026 0.943000
v -8.405794 13.433026 1.219750
v -8.405794 13.433026 1.496500
v -8.405794 13.433026 1.773250
v -8.405794 13.433026 2.050000
v -8.405794 13.433026 2.326750
v -8.405794 13.433026 2.603500
v -8.405794 13.433026 2.880250
v -8.405794 13.433026 3.157000
v -8.405794 13.433026 3.433750
v -8.405794 13.433026 3.710500
v -8.405794 13.433026 3.987250
v -8.287543 12.423002 0.112750
v -8.287543 12.423002 0.389500
v -8.287543 12.507171 0.112750
v -8.287543 12.423002 0.666250
v -8.287543 12.423002 0.943000
v -8.287543 12.423002 1.219750
v -8.287543 12.423002 1.496500
v -8.287543 12.423002 1.773250
v -8.287543 12.423002 2.050000
v -8.287543 12.423002 2.326750
v -8.287543 12.423002 2.603500
v -8.287543 12.423002 2.880250
v -8.287543 12.423002 3.157000
v -8.287543 12.423002 3.433750
v -8.287543 12.423002 3.710500
v -8.287543 12.423002 3.987250
v -8.287543 12.507171 3.987250
v -8.287543 12.591340 0.112750
v -8.287543 12.591340 3.987250
v -8.287543 12.675508 0.112750
v -8.287543 12.675508 3.987250
v -8.287543 12.759677 0.112750
v -8.287543 12.759677 3.987250
v -8.287543 12.843845 0.112750
v -8.287543 12.843845 3.987250
v -8.287543 12.928014 0.112750
v -8.287543 12.928014 3.987250
v -8.287543 13.012183 0.112750
v -8.287543 13.012183 3.987250
v -8.287543 13.096351 0.112750
v -8.287543 13.096351 3.987250
v -8.287543 13.180520 0.112750
v -8.287543 13.180520 3.987250
v -8.287543 13.180520 0.389500
v -8.287543 13.264689 0.389500
v -8.287543 13.264689 0.112750
v -8.287543 13.180520 0.666250
v -8.287543 13.264689 0.666250
v -8.287543 13.180520 0.943000
v -8.287543 13.264689 0.943000
v -8.287543 13.180520 1.219750
v -8.287543 13.264689 1.219750
v -8.287543 13.180520 1.496500
v -8.287543 13.264689 1.496500
v -8.287543 13.180520 1.773250
v -8.287543 13.264689 1.773250
v -8.287543 13.180520 2.050000
v -8.287543 13.264689 2.050000
v -8.287543 13.180520 2.326750
v -8.287543 13.264689 2.326750
v -8.287543 13.180520 2.603500
v -8.287543 13.264689 2.603500
v -8.287543 13.180520 2.880250
v -8.287543 13.264689 2.880250
v -8.287543 13.180520 3.157000
v -8.287543 13.264689 3.157000
v -8.287543 13.180520 3.433750
v -8.287543 13.264689 3.433750
v -8.287543 13.180520 3.710500
v -8.287543 13.264689 3.710500
v -8.287543 13.264689 3.987250
v -8.287543 13.348857 0.389500
v -8.287543 13.348857 0.112750
v -8.287543 13.348857 0.666250
v -8.287543 13.348857 0.943000
v -8.287543 13.348857 1.219750
v -8.287543 13.348857 1.496500
v -8.287543 13.348857 1.773250
v -8.287543 13.348857 2.050000
v -8.287543 13.348857 2.326750
v -8.287543 13.348857 2.603500
v -8.287543 13.348857 2.880250
v -8.287543 13.348857 3.157000
v -8.287543 13.348857 3.433750
v -8.287543 13.348857 3.710500
v -8.287543 13.348857 3.987250
v -8.287543 13.433026 0.389500
v -8.287543 13.433026 0.112750
v -8.287543 13.433026 0.666250
v -8.287543 13.433026 0.943000
v -8.287543 13.433026 1.219750
v -8.287543 13.433026 1.496500
v -8.287543 13.433026 1.773250
v -8.287543 13.433026 2.050000
v -8.287543 13.433026 2.326750
v -8.287543 13.433026 2.603500
v -8.287543 13.433026 2.880250
v -8.287543 13.433026 3.157000
v -8.287543 13.433026 3.433750
v -8.287543 13.433026 3.710500
v -8.287543 13.433026 3.987250
v -8.169291 12.423002 0.112750
v -8.169291 12.423002 0.389500
v -8.169291 12.507171 0.389500
v -8.169291 12.507171 0.112750
v -8.169291 12.423002 0.666250
v -8.169291 12.507171 0.666250
v -8.169291 12.423002 0.943000
v -8.169291 12.507171 0.943000
v -8.169291 12.423002 1.219750
v -8.169291 12.507171 1.219750
v -8.169291 12.423002 1.496500
v -8.169291 12.507171 1.496500
v -8.169291 12.423002 1.773250
v -8.169291 12.507171 1.773250
v -8.169291 12.423002 2.050000
v -8.169291 12.507171 2.050000
v -8.169291 12.423002 2.326750
v -8.169291 12.507171 2.326750
v -8.169291 12.423002 2.603500
v -8.169291 12.507171 2.603500
v -8.169291 12.423002 2.880250
v -8.169291 12.507171 2.880250
v -8.169291 12.423002 3.157000
v -8.169291 12.507171 3.157000
v -8.169291 12.423002 3.433750
v -8.169291 12.507171 3.433750
v -8.169291 12.423002 3.710500
v -8.169291 12.507171 3.710500
v -8.169291 12.423002 3.987250
v -8.169291 12.507171 3.987250
v -8.169291 12.591340 0.112750
v -8.169291 12.591340 3.987250
v -8.169291 12.675508 0.112750
v -8.169291 12.675508 3.987250
v -8.169291 12.759677 0.112750
v -8.169291 12.759677 3.987250
v -8.169291 12.843845 0.112750
v -8.169291 12.843845 3.987250
v -8.169291 12.928014 0.112750
v -8.169291 12.928014 3.987250
v -8.169291 13.012183 0.112750
v -8.169291 13.012183 3.987250
v -8.169291 13.012183 0.389500
v -8.169291 13.096351 0.389500
v -8.169291 13.096351 0.112750
v -8.169291 13.012183 0.666250
v -8.169291 13.096351 0.666250
v -8.169291 13.012183 0.943000
v -8.169291 13.096351 0.943000
v -8.169291 13.012183 1.219750
v -8.169291 13.096351 1.219750
v -8.169291 13.012183 1.496500
v -8.169291 13.096351 1.496500
v -8.169291 13.012183 1.773250
v -8.169291 13.096351 1.773250
v -8.169291 13.012183 2.050000
v -8.169291 13.096351 2.050000
v -8.169291 13.012183 2.326750
v -8.169291 13.096351 2.326750
v -8.169291 13.012183 2.603500
v -8.169291 13.096351 2.603500
v -8.169291 13.012183 2.880250
v -8.169291 13.096351 2.880250
v -8.169291 13.012183 3.157000
v -8.169291 13.096351 3.157000
v -8.169291 13.012183 3.433750
v -8.169291 13.096351 3.433750
v -8.169291 13.012183 3.710500
v -8.169291 13.096351 3.710500
v -8.169291 13.096351 3.987250
v -8.169291 13.180520 0.389500
v -8.169291 13.180520 0.112750
v -8.169291 13.180520 0.666250
v -8.169291 13.180520 0.943000
v -8.169291 13.180520 1.219750
v -8.169291 13.180520 1.496500
v -8.169291 13.180520 1.773250
v -8.169291 13.180520 2.050000
v -8.169291 13.180520 2.326750
v -8.169291 13.180520 2.603500
v -8.169291 13.180520 2.880250
v -8.169291 13.180520 3.157000
v -8.169291 13.180520 3.433750
v -8.169291 13.180520 3.710500
v -8.169291 13.180520 3.987250
v -8.051039 12.507171 0.112750
v -8.051039 12.507171 0.389500
v -8.051039 12.591340 0.389500
v -8.051039 12.591340 0.112750
v -8.051039 12.507171 0.666250
v -8.051039 12.591340 0.666250
v -8.051039 12.507171 0.943000
v -8.051039 12.591340 0.943000
v -8.051039 12.507171 1.219750
v -8.051039 12.591340 1.219750
v -8.051039 12.507171 1.496500
v -8.051039 12.591340 1.496500
v -8.051039 12.507171 1.773250
v -8.051039 12.591340 1.773250
v -8.051039 12.507171 2.050000
v -8.051039 12.591340 2.050000
v -8.051039 12.507171 2.326750
v -8.051039 12.591340 2.326750
v -8.051039 12.507171 2.603500
v -8.051039 12.591340 2.603500
v -8.051039 12.507171 2.880250
v -8.051039 12.591340 2.880250
v -8.051039 12.507171 3.157000
v -8.051039 12.591340 3.157000
v -8.051039 12.507171 3.433750
v -8.051039 12.591340 3.433750
v -8.051039 12.507171 3.710500
v -8.051039 12.591340 3.710500
v -8.051039 12.507171 3.987250
v -8.051039 12.591340 3.987250
v -8.051039 12.675508 0.112750
v -8.051039 12.675508 3.987250
v -8.051039 12.759677 0.112750
v -8.051039 12.759677 3.987250
v -8.051039 12.843845 0.112750
v -8.051039 12.843845 3.987250
v -8.051039 12.843845 0.389500
v -8.051039 12.928014 0.389500
v -8.051039 12.928014 0.112750
v -8.051039 12.843845 0.666250
v -8.051039 12.928014 0.666250
v -8.051039 12.843845 0.943000
v -8.051039 12.928014 0.943000
v -8.051039 12.843845 1.219750
v -8.051039 12.928014 1.219750
v -8.051039 12.843845 1.496500
v -8.051039 12.928014 1.496500
v -8.051039 12.843845 1.773250
v -8.051039 12.928014 1.773250
v -8.051039 12.843845 2.050000
v -8.051039 12.928014 2.050000
v -8.051039 12.843845 2.326750
v -8.051039 12.928014 2.326750
v -8.051039 12.843845 2.603500
v -8.051039 12.928014 2.603500
v -8.051039 12.843845 2.880250
v -8.051039 12.928014 2.880250
v -8.051039 12.843845 3.157000
v -8.051039 12.928014 3.157000
v -8.051039 12.843845 3.433750
v -8.051039 12.928014 3.433750
v -8.051039 12.843845 3.710500
v -8.051039 12.928014 3.710500
v -8.051039 12.928014 3.987250
v -8.051039 13.012183 0.389500
v -8.051039 13.012183 0.112750
v -8.051039 13.012183 0.666250
v -8.051039 13.012183 0.943000
v -8.051039 13.012183 1.219750
v -8.051039 13.012183 1.496500
v -8.051039 13.012183 1.773250
v -8.051039 13.012183 2.050000
v -8.051039 13.012183 2.326750
v -8.051039 13.012183 2.603500
v -8.051039 13.012183 2.880250
v -8.051039 13.012183 3.157000
v -8.051039 13.012183 3.433750
v -8.051039 13.012183 3.710500
v -8.051039 13.012183 3.987250
v -7.932787 12.591340 0.112750
v -7.932787 12.591340 0.389500
v -7.932787 12.675508 0.389500
v -7.932787 12.675508 0.112750
v -7.932787 12.591340 0.666250
v -7.932787 12.675508 0.666250
v -7.932787 12.591340 0.943000
v -7.932787 12.675508 0.943000
v -7.932787 12.591340 1.219750
v -7.932787 12.675508 1.219750
v -7.932787 12.591340 1.496500
v -7.932787 12.675508 1.496500
v -7.932787 12.591340 1.773250
v -7.932787 12.675508 1.773250
v -7.932787 12.591340 2.050000
v -7.932787 12.675508 2.050000
v -7.932787 12.591340 2.326750
v -7.932787 12.675508 2.326750
v -7.932787 12.591340 2.603500
v -7.932787 12.675508 2.603500
v -7.932787 12.591340 2.880250
v -7.932787 12.675508 2.880250
v -7.932787 12.591340 3.157000
v -7.932787 12.675508 3.157000
v -7.932787 12.591340 3.433750
v -7.932787 12.675508 3.433750
v -7.932787 12.591340 3.710500
v -7.932787 12.675508 3.710500
v -7.932787 12.591340 3.987250
v -7.932787 12.675508 3.987250
v -7.932787 12.759677 0.389500
v -7.932787 12.759677 0.112750
v -7.932787 12.759677 0.666250
v -7.932787 12.759677 0.943000
v -7.932787 12.759677 1.219750
v -7.932787 12.759677 1.496500
v -7.932787 12.759677 1.773250
v -7.932787 12.759677 2.050000
v -7.932787 12.759677 2.326750
v -7.932787 12.759677 2.603500
v -7.932787 12.759677 2.880250
v -7.932787 12.759677 3.157000
v -7.932787 12.759677 3.433750
v -7.932787 12.759677 3.710500
v -7.932787 12.759677 3.987250
v -7.932787 12.843845 0.389500
v -7.932787 12.843845 0.112750
v -7.932787 12.843845 0.666250
v -7.932787 12.843845 0.943000
v -7.932787 12.843845 1.219750
v -7.932787 12.843845 1.496500
v -7.932787 12.843845 1.773250
v -7.932787 12.843845 2.050000
v -7.932787 12.843845 2.326750
v -7.932787 12.843845 2.603500
v -7.932787 12.843845 2.880250
v -7.932787 12.843845 3.157000
v -7.932787 12.843845 3.433750
v -7.932787 12.843845 3.710500
v -7.932787 12.843845 3.987250
f 1 2 3
f 1 3 4
f 1 5 6
f 1 6 4
f 1 2 7
f 1 7 5
f 4 3 8
f 4 8 9
f 4 6 10
f 4 10 9
f 9 8 11
f 9 11 12
f 9 10 13
f 9 13 12
f 12 11 14
f 12 14 15
f 12 13 16
f 12 16 15
f 15 14 17
f 15 17 18
f 15 16 19
f 15 19 18
f 18 17 20
f 18 20 21
f 18 19 22
f 18 22 21
f 21 20 23
f 21 23 24
f 21 22 25
f 21 25 24
f 24 23 26
f 24 26 27
f 24 25 28
f 24 28 27
f 27 26 29
f 27 29 30
f 27 28 31
f 27 31 30
f 30 29 32
f 30 32 33
f 30 31 34
f 30 34 33
f 33 32 35
f 33 35 36
f 33 34 37
f 33 37 36
f 36 35 38
f 36 38 39
f 36 37 40
f 36 40 39
f 39 38 41
f 39 41 42
f 39 40 43
f 39 43 42
f 42 41 44
f 42 44 45
f 42 43 46
f 42 46 45
f 45 46 47
f 45 47 44
f 2 48 49
f 2 49 3
f 2 48 50
f 2 50 7
f 3 49 51
f 3 51 8
f 8 51 52
f 8 52 11
f 11 52 53
f 11 53 14
f 14 53 54
f 14 54 17
f 17 54 55
f 17 55 20
f 20 55 56
f 20 56 23
f 23 56 57
f 23 57 26
f 26 57 58
f 26 58 29
f 29 58 59
f 29 59 32
f 32 59 60
f 32 60 35
f 35 60 61
f 35 61 38
f 38 61 62
f 38 62 41
f 41 62 63
f 41 63 44
f 44 47 64
f 44 64 63
f 48 65 66
f 48 66 49
f 48 65 67
f 48 67 50
f 49 66 68
f 49 68 51
f 51 68 69
f 51 69 52
f 52 69 70
f 52 70 53
f 53 70 71
f 53 71 54
f 54 71 72
f 54 72 55
f 55 72 73
f 55 73 56
f 56 73 74
f 56 74 57
f 57 74 75
f 57 75 58
f 58 75 76
f 58 76 59
f 59 76 77
f 59 77 60
f 60 77 78
f 60 78 61
f 61 78 79
f 61 79 62
f 62 79 80
f 62 80 63
f 63 64 81
f 63 81 80
f 65 82 83
f 65 83 66
f 65 82 84
f 65 84 67
f 66 83 85
f 66 85 68
f 68 85 86
f 68 86 69
f 69 86 87
f 69 87 70
f 70 87 88
f 70 88 71
f 71 88 89
f 71 89 72
f 72 89 90
f 72 90 73
f 73 90 91
f 73 91 74
f 74 91 92
f 74 92 75
f 75 92 93
f 75 93 76
f 76 93 94
f 76 94 77
f 77 94 95
f 77 95 78
f 78 95 96
f 78 96 79
f 79 96 97
f 79 97 80
f 80 81 98
f 80 98 97
f 82 99 100
f 82 100 83
f 82 99 101
f 82 101 84
f 83 100 102
f 83 102 85
f 85 102 103
f 85 103 86
f 86 103 104
f 86 104 87
f 87 104 105
f 87 105 88
f 88 105 106
f 88 106 89
f 89 106 107
f 89 107 90
f 90 107 108
f 90 108 91
f 91 108 109
f 91 109 92
f 92 109 110
f 92 110 93
f 93 110 111
f 93 111 94
f 94 111 112
f 94 112 95
f 95 112 113
f 95 113 96
f 96 113 114
f 96 114 97
f 97 98 115
f 97 115 114
f 99 116 117
f 99 117 100
f 116 117 118
f 116 118 119
f 99 116 119
f 99 119 101
f 100 117 120
f 100 120 102
f 117 120 121
f 117 121 118
f 102 120 122
f 102 122 103
f 120 122 123
f 120 123 121
f 103 122 124
f 103 124 104
f 122 124 125
f 122 125 123
f 104 124 126
f 104 126 105
f 124 126 127
f 124 127 125
f 105 126 128
f 105 128 106
f 126 128 129
f 126 129 127
f 106 128 130
f 106 130 107
f 128 130 131
f 128 131 129
f 107 130 132
f 107 132 108
f 130 132 133
f 130 133 131
f 108 132 134
f 108 134 109
f 132 134 135
f 132 135 133
f 109 134 136
f 109 136 110
f 134 136 137
f 134 137 135
f 110 136 138
f 110 138 111
f 136 138 139
f 136 139 137
f 111 138 140
f 111 140 112
f 138 140 141
f 138 141 139
f 112 140 142
f 112 142 113
f 140 142 143
f 140 143 141
f 113 142 144
f 113 144 114
f 142 144 145
f 142 145 143
f 114 115 145
f 114 145 144
f 146 147 148
f 146 148 149
f 146 150 151
f 146 151 149
f 146 147 152
f 146 152 150
f 149 148 153
f 149 153 154
f 149 151 155
f 149 155 154
f 154 153 156
f 154 156 157
f 154 155 158
f 154 158 157
f 157 156 159
f 157 159 160
f 157 158 161
f 157 161 160
f 160 159 162
f 160 162 163
f 160 161 164
f 160 164 163
f 163 162 165
f 163 165 166
f 163 164 167
f 163 167 166
f 166 165 168
f 166 168 169
f 166 167 170
f 166 170 169
f 169 168 171
f 169 171 172
f 169 170 173
f 169 173 172
f 172 171 174
f 172 174 175
f 172 173 176
f 172 176 175
f 175 174 177
f 175 177 178
f 175 176 179
f 175 179 178
f 178 177 180
f 178 180 181
f 178 179 182
f 178 182 181
f 181 180 183
f 181 183 184
f 181 182 185
f 181 185 184
f 184 183 186
f 184 186 187
f 184 185 188
f 184 188 187
f 187 186 189
f 187 189 190
f 187 188 191
f 187 191 190
f 190 191 192
f 190 192 189
f 147 5 6
f 147 6 148
f 147 5 193
f 147 193 152
f 148 6 10
f 148 10 153
f 153 10 13
f 153 13 156
f 156 13 16
f 156 16 159
f 159 16 19
f 159 19 162
f 162 19 22
f 162 22 165
f 165 22 25
f 165 25 168
f 168 25 28
f 168 28 171
f 171 28 31
f 171 31 174
f 174 31 34
f 174 34 177
f 177 34 37
f 177 37 180
f 180 37 40
f 180 40 183
f 183 40 43
f 183 43 186
f 186 43 46
f 186 46 189
f 189 192 194
f 189 194 46
f 5 7 195
f 5 195 193
f 46 194 196
f 46 196 47
f 7 50 197
f 7 197 195
f 47 196 198
f 47 198 64
f 50 67 199
f 50 199 197
f 64 198 200
f 64 200 81
f 67 84 201
f 67 201 199
f 81 200 202
f 81 202 98
f 84 101 203
f 84 203 201
f 98 202 204
f 98 204 115
f 101 119 205
f 101 205 203
f 115 204 206
f 115 206 145
f 119 207 208
f 119 208 118
f 207 208 209
f 207 209 210
f 119 207 210
f 119 210 205
f 118 208 211
f 118 211 121
f 208 211 212
f 208 212 209
f 121 211 213
f 121 213 123
f 211 213 214
f 211 214 212
f 123 213 215
f 123 215 125
f 213 215 216
f 213 216 214
f 125 215 217
f 125 217 127
f 215 217 218
f 215 218 216
f 127 217 219
f 127 219 129
f 217 219 220
f 217 220 218
f 129 219 221
f 129 221 131
f 219 221 222
f 219 222 220
f 131 221 223
f 131 223 133
f 221 223 224
f 221 224 222
f 133 223 225
f 133 225 135
f 223 225 226
f 223 226 224
f 135 225 227
f 135 227 137
f 225 227 228
f 225 228 226
f 137 227 229
f 137 229 139
f 227 229 230
f 227 230 228
f 139 229 231
f 139 231 141
f 229 231 232
f 229 232 230
f 141 231 233
f 141 233 143
f 231 233 234
f 231 234 232
f 143 233 235
f 143 235 145
f 233 235 236
f 233 236 234
f 145 206 236
f 145 236 235
f 150 237 238
f 150 238 151
f 150 152 239
f 150 239 237
f 151 238 240
f 151 240 155
f 155 240 241
f 155 241 158
f 158 241 242
f 158 242 161
f 161 242 243
f 161 243 164
f 164 243 244
f 164 244 167
f 167 244 245
f 167 245 170
f 170 245 246
f 170 246 173
f 173 246 247
f 173 247 176
f 176 247 248
f 176 248 179
f 179 248 249
f 179 249 182
f 182 249 250
f 182 250 185
f 185 250 251
f 185 251 188
f 188 251 252
f 188 252 191
f 191 252 253
f 191 253 192
f 152 193 254
f 152 254 239
f 192 253 255
f 192 255 194
f 193 195 256
f 193 256 254
f 194 255 257
f 194 257 196
f 195 197 258
f 195 258 256
f 196 257 259
f 196 259 198
f 197 199 260
f 197 260 258
f 198 259 261
f 198 261 200
f 199 201 262
f 199 262 260
f 200 261 263
f 200 263 202
f 201 203 264
f 201 264 262
f 202 263 265
f 202 265 204
f 203 205 266
f 203 266 264
f 204 265 267
f 204 267 206
f 210 209 268
f 210 268 269
f 205 210 269
f 205 269 266
f 209 212 270
f 209 270 268
f 212 214 271
f 212 271 270
f 214 216 272
f 214 272 271
f 216 218 273
f 216 273 272
f 218 220 274
f 218 274 273
f 220 222 275
f 220 275 274
f 222 224 276
f 222 276 275
f 224 226 277
f 224 277 276
f 226 228 278
f 226 278 277
f 228 230 279
f 228 279 278
f 230 232 280
f 230 280 279
f 232 234 281
f 232 281 280
f 234 236 282
f 234 282 281
f 206 267 282
f 206 282 236
f 237 283 284
f 237 284 238
f 237 239 285
f 237 285 283
f 238 284 286
f 238 286 240
f 240 286 287
f 240 287 241
f 241 287 288
f 241 288 242
f 242 288 289
f 242 289 243
f 243 289 290
f 243 290 244
f 244 290 291
f 244 291 245
f 245 291 292
f 245 292 246
f 246 292 293
f 246 293 247
f 247 293 294
f 247 294 248
f 248 294 295
f 248 295 249
f 249 295 296
f 249 296 250
f 250 296 297
f 250 297 251
f 251 297 298
f 251 298 252
f 252 298 299
f 252 299 253
f 239 254 300
f 239 300 285
f 253 299 301
f 253 301 255
f 254 256 302
f 254 302 300
f 255 301 303
f 255 303 257
f 256 258 304
f 256 304 302
f 257 303 305
f 257 305 259
f 258 260 306
f 258 306 304
f 259 305 307
f 259 307 261
f 260 262 308
f 260 308 306
f 261 307 309
f 261 309 263
f 262 264 310
f 262 310 308
f 263 309 311
f 263 311 265
f 264 266 312
f 264 312 310
f 265 311 313
f 265 313 267
f 266 269 314
f 266 314 312
f 267 313 315
f 267 315 282
f 269 316 317
f 269 317 268
f 316 317 318
f 316 318 319
f 269 316 319
f 269 319 314
f 268 317 320
f 268 320 270
f 317 320 321
f 317 321 318
f 270 320 322
f 270 322 271
f 320 322 323
f 320 323 321
f 271 322 324
f 271 324 272
f 322 324 325
f 322 325 323
f 272 324 326
f 272 326 273
f 324 326 327
f 324 327 325
f 273 326 328
f 273 328 274
f 326 328 329
f 326 329 327
f 274 328 330
f 274 330 275
f 328 330 331
f 328 331 329
f 275 330 332
f 275 332 276
f 330 332 333
f 330 333 331
f 276 332 334
f 276 334 277
f 332 334 335
f 332 335 333
f 277 334 336
f 277 336 278
f 334 336 337
f 334 337 335
f 278 336 338
f 278 338 279
f 336 338 339
f 336 339 337
f 279 338 340
f 279 340 280
f 338 340 341
f 338 341 339
f 280 340 342
f 280 342 281
f 340 342 343
f 340 343 341
f 281 342 344
f 281 344 282
f 342 344 345
f 342 345 343
f 282 315 345
f 282 345 344
f 283 346 347
f 283 347 284
f 283 285 348
f 283 348 346
f 284 347 349
f 284 349 286
f 286 349 350
f 286 350 287
f 287 350 351
f 287 351 288
f 288 351 352
f 288 352 289
f 289 352 353
f 289 353 290
f 290 353 354
f 290 354 291
f 291 354 355
f 291 355 292
f 292 355 356
f 292 356 293
f 293 356 357
f 293 357 294
f 294 357 358
f 294 358 295
f 295 358 359
f 295 359 296
f 296 359 360
f 296 360 297
f 297 360 361
f 297 361 298
f 298 361 362
f 298 362 299
f 285 300 363
f 285 363 348
f 299 362 364
f 299 364 301
f 300 302 365
f 300 365 363
f 301 364 366
f 301 366 303
f 302 304 367
f 302 367 365
f 303 366 368
f 303 368 305
f 304 306 369
f 304 369 367
f 305 368 370
f 305 370 307
f 306 308 371
f 306 371 369
f 307 370 372
f 307 372 309
f 308 310 373
f 308 373 371
f 309 372 374
f 309 374 311
f 310 312 375
f 310 375 373
f 311 374 376
f 311 376 313
f 312 314 377
f 312 377 375
f 313 376 378
f 313 378 315
f 314 319 379
f 314 379 377
f 315 378 380
f 315 380 345
f 319 381 382
f 319 382 318
f 381 382 383
f 381 383 384
f 319 381 384
f 319 384 379
f 318 382 385
f 318 385 321
f 382 385 386
f 382 386 383
f 321 385 387
f 321 387 323
f 385 387 388
f 385 388 386
f 323 387 389
f 323 389 325
f 387 389 390
f 387 390 388
f 325 389 391
f 325 391 327
f 389 391 392
f 389 392 390
f 327 391 393
f 327 393 329
f 391 393 394
f 391 394 392
f 329 393 395
f 329 395 331
f 393 395 396
f 393 396 394
f 331 395 397
f 331 397 333
f 395 397 398
f 395 398 396
f 333 397 399
f 333 399 335
f 397 399 400
f 397 400 398
f 335 399 401
f 335 401 337
f 399 401 402
f 399 402 400
f 337 401 403
f 337 403 339
f 401 403 404
f 401 404 402
f 339 403 405
f 339 405 341
f 403 405 406
f 403 406 404
f 341 405 407
f 341 407 343
f 405 407 408
f 405 408 406
f 343 407 409
f 343 409 345
f 407 409 410
f 407 410 408
f 345 380 410
f 345 410 409
f 346 411 412
f 346 412 347
f 346 348 413
f 346 413 411
f 347 412 414
f 347 414 349
f 349 414 415
f 349 415 350
f 350 415 416
f 350 416 351
f 351 416 417
f 351 417 352
f 352 417 418
f 352 418 353
f 353 418 419
f 353 419 354
f 354 419 420
f 354 420 355
f 355 420 421
f 355 421 356
f 356 421 422
f 356 422 357
f 357 422 423
f 357 423 358
f 358 423 424
f 358 424 359
f 359 424 425
f 359 425 360
f 360 425 426
f 360 426 361
f 361 426 427
f 361 427 362
f 348 363 428
f 348 428 413
f 362 427 429
f 362 429 364
f 363 365 430
f 363 430 428
f 364 429 431
f 364 431 366
f 365 367 432
f 365 432 430
f 366 431 433
f 366 433 368
f 367 369 434
f 367 434 432
f 368 433 435
f 368 435 370
f 369 371 436
f 369 436 434
f 370 435 437
f 370 437 372
f 371 373 438
f 371 438 436
f 372 437 439
f 372 439 374
f 373 375 440
f 373 440 438
f 374 439 441
f 374 441 376
f 375 377 442
f 375 442 440
f 376 441 443
f 376 443 378
f 377 379 444
f 377 444 442
f 378 443 445
f 378 445 380
f 379 384 446
f 379 446 444
f 380 445 447
f 380 447 410
f 384 448 449
f 384 449 383
f 448 449 450
f 448 450 451
f 384 448 451
f 384 451 446
f 383 449 452
f 383 452 386
f 449 452 453
f 449 453 450
f 386 452 454
f 386 454 388
f 452 454 455
f 452 455 453
f 388 454 456
f 388 456 390
f 454 456 457
f 454 457 455
f 390 456 458
f 390 458 392
f 456 458 459
f 456 459 457
f 392 458 460
f 392 460 394
f 458 460 461
f 458 461 459
f 394 460 462
f 394 462 396
f 460 462 463
f 460 463 461
f 396 462 464
f 396 464 398
f 462 464 465
f 462 465 463
f 398 464 466
f 398 466 400
f 464 466 467
f 464 467 465
f 400 466 468
f 400 468 402
f 466 468 469
f 466 469 467
f 402 468 470
f 402 470 404
f 468 470 471
f 468 471 469
f 404 470 472
f 404 472 406
f 470 472 473
f 470 473 471
f 406 472 474
f 406 474 408
f 472 474 475
f 472 475 473
f 408 474 476
f 408 476 410
f 474 476 477
f 474 477 475
f 410 447 477
f 410 477 476
f 411 478 479
f 411 479 412
f 411 413 480
f 411 480 478
f 412 479 481
f 412 481 414
f 414 481 482
f 414 482 415
f 415 482 483
f 415 483 416
f 416 483 484
f 416 484 417
f 417 484 485
f 417 485 418
f 418 485 486
f 418 486 419
f 419 486 487
f 419 487 420
f 420 487 488
f 420 488 421
f 421 488 489
f 421 489 422
f 422 489 490
f 422 490 423
f 423 490 491
f 423 491 424
f 424 491 492
f 424 492 425
f 425 492 493
f 425 493 426
f 426 493 494
f 426 494 427
f 413 428 495
f 413 495 480
f 427 494 496
f 427 496 429
f 428 430 497
f 428 497 495
f 429 496 498
f 429 498 431
f 430 432 499
f 430 499 497
f 431 498 500
f 431 500 433
f 432 434 501
f 432 501 499
f 433 500 502
f 433 502 435
f 434 436 503
f 434 503 501
f 435 502 504
f 435 504 437
f 436 438 505
f 436 505 503
f 437 504 506
f 437 506 439
f 438 440 507
f 438 507 505
f 439 506 508
f 439 508 441
f 440 442 509
f 440 509 507
f 441 508 510
f 441 510 443
f 442 444 511
f 442 511 509
f 443 510 512
f 443 512 445
f 444 446 513
f 444 513 511
f 445 512 514
f 445 514 447
f 446 451 515
f 446 515 513
f 447 514 516
f 447 516 477
f 451 517 518
f 451 518 450
f 517 518 519
f 517 519 520
f 451 517 520
f 451 520 515
f 450 518 521
f 450 521 453
f 518 521 522
f 518 522 519
f 453 521 523
f 453 523 455
f 521 523 524
f 521 524 522
f 455 523 525
f 455 525 457
f 523 525 526
f 523 526 524
f 457 525 527
f 457 527 459
f 525 527 528
f 525 528 526
f 459 527 529
f 459 529 461
f 527 529 530
f 527 530 528
f 461 529 531
f 461 531 463
f 529 531 532
f 529 532 530
f 463 531 533
f 463 533 465
f 531 533 534
f 531 534 532
f 465 533 535
f 465 535 467
f 533 535 536
f 533 536 534
f 467 535 537
f 467 537 469
f 535 537 538
f 535 538 536
f 469 537 539
f 469 539 471
f 537 539 540
f 537 540 538
f 471 539 541
f 471 541 473
f 539 541 542
f 539 542 540
f 473 541 543
f 473 543 475
f 541 543 544
f 541 544 542
f 475 543 545
f 475 545 477
f 543 545 546
f 543 546 544
f 477 516 546
f 477 546 545
f 478 547 548
f 478 548 479
f 478 480 549
f 478 549 547
f 479 548 550
f 479 550 481
f 481 550 551
f 481 551 482
f 482 551 552
f 482 552 483
f 483 552 553
f 483 553 484
f 484 553 554
f 484 554 485
f 485 554 555
f 485 555 486
f 486 555 556
f 486 556 487
f 487 556 557
f 487 557 488
f 488 557 558
f 488 558 489
f 489 558 559
f 489 559 490
f 490 559 560
f 490 560 491
f 491 560 561
f 491 561 492
f 492 561 562
f 492 562 493
f 493 562 563
f 493 563 494
f 480 495 564
f 480 564 549
f 494 563 565
f 494 565 496
f 495 497 566
f 495 566 564
f 496 565 567
f 496 567 498
f 497 499 568
f 497 568 566
f 498 567 569
f 498 569 500
f 499 501 570
f 499 570 568
f 500 569 571
f 500 571 502
f 501 503 572
f 501 572 570
f 502 571 573
f 502 573 504
f 503 505 574
f 503 574 572
f 504 573 575
f 504 575 506
f 505 507 576
f 505 576 574
f 506 575 577
f 506 577 508
f 507 509 578
f 507 578 576
f 508 577 579
f 508 579 510
f 509 511 580
f 509 580 578
f 510 579 581
f 510 581 512
f 511 513 582
f 511 582 580
f 512 581 583
f 512 583 514
f 513 515 584
f 513 584 582
f 514 583 585
f 514 585 516
f 515 520 586
f 515 586 584
f 516 585 587
f 516 587 546
f 520 588 589
f 520 589 519
f 588 589 590
f 588 590 591
f 520 588 591
f 520 591 586
f 519 589 592
f 519 592 522
f 589 592 593
f 589 593 590
f 522 592 594
f 522 594 524
f 592 594 595
f 592 595 593
f 524 594 596
f 524 596 526
f 594 596 597
f 594 597 595
f 526 596 598
f 526 598 528
f 596 598 599
f 596 599 597
f 528 598 600
f 528 600 530
f 598 600 601
f 598 601 599
f 530 600 602
f 530 602 532
f 600 602 603
f 600 603 601
f 532 602 604
f 532 604 534
f 602 604 605
f 602 605 603
f 534 604 606
f 534 606 536
f 604 606 607
f 604 607 605
f 536 606 608
f 536 608 538
f 606 608 609
f 606 609 607
f 538 608 610
f 538 610 540
f 608 610 611
f 608 611 609
f 540 610 612
f 540 612 542
f 610 612 613
f 610 613 611
f 542 612 614
f 542 614 544
f 612 614 615
f 612 615 613
f 544 614 616
f 544 616 546
f 614 616 617
f 614 617 615
f 546 587 617
f 546 617 616
f 618 619 620
f 618 620 621
f 547 618 619
f 547 619 548
f 547 549 621
f 547 621 618
f 619 622 623
f 619 623 620
f 548 619 622
f 548 622 550
f 622 624 625
f 622 625 623
f 550 622 624
f 550 624 551
f 624 626 627
f 624 627 625
f 551 624 626
f 551 626 552
f 626 628 629
f 626 629 627
f 552 626 628
f 552 628 553
f 628 630 631
f 628 631 629
f 553 628 630
f 553 630 554
f 630 632 633
f 630 633 631
f 554 630 632
f 554 632 555
f 632 634 635
f 632 635 633
f 555 632 634
f 555 634 556
f 634 636 637
f 634 637 635
f 556 634 636
f 556 636 557
f 636 638 639
f 636 639 637
f 557 636 638
f 557 638 558
f 638 640 641
f 638 641 639
f 558 638 640
f 558 640 559
f 640 642 643
f 640 643 641
f 559 640 642
f 559 642 560
f 642 644 645
f 642 645 643
f 560 642 644
f 560 644 561
f 644 646 647
f 644 647 645
f 561 644 646
f 561 646 562
f 562 646 647
f 562 647 563
f 549 564 648
f 549 648 621
f 563 647 649
f 563 649 565
f 564 566 650
f 564 650 648
f 565 649 651
f 565 651 567
f 566 568 652
f 566 652 650
f 567 651 653
f 567 653 569
f 568 570 654
f 568 654 652
f 569 653 655
f 569 655 571
f 570 572 656
f 570 656 654
f 571 655 657
f 571 657 573
f 572 574 658
f 572 658 656
f 573 657 659
f 573 659 575
f 574 576 660
f 574 660 658
f 575 659 661
f 575 661 577
f 576 578 662
f 576 662 660
f 577 661 663
f 577 663 579
f 578 580 664
f 578 664 662
f 579 663 665
f 579 665 581
f 580 582 666
f 580 666 664
f 581 665 667
f 581 667 583
f 582 584 668
f 582 668 666
f 583 667 669
f 583 669 585
f 584 586 670
f 584 670 668
f 585 669 671
f 585 671 587
f 586 591 672
f 586 672 670
f 587 671 673
f 587 673 617
f 591 674 675
f 591 675 590
f 674 675 676
f 674 676 677
f 591 674 677
f 591 677 672
f 590 675 678
f 590 678 593
f 675 678 679
f 675 679 676
f 593 678 680
f 593 680 595
f 678 680 681
f 678 681 679
f 595 680 682
f 595 682 597
f 680 682 683
f 680 683 681
f 597 682 684
f 597 684 599
f 682 684 685
f 682 685 683
f 599 684 686
f 599 686 601
f 684 686 687
f 684 687 685
f 601 686 688
f 601 688 603
f 686 688 689
f 686 689 687
f 603 688 690
f 603 690 605
f 688 690 691
f 688 691 689
f 605 690 692
f 605 692 607
f 690 692 693
f 690 693 691
f 607 692 694
f 607 694 609
f 692 694 695
f 692 695 693
f 609 694 696
f 609 696 611
f 694 696 697
f 694 697 695
f 611 696 698
f 611 698 613
f 696 698 699
f 696 699 697
f 613 698 700
f 613 700 615
f 698 700 701
f 698 701 699
f 615 700 702
f 615 702 617
f 700 702 703
f 700 703 701
f 617 673 703
f 617 703 702
f 704 705 706
f 704 706 707
f 621 704 705
f 621 705 620
f 621 648 707
f 621 707 704
f 705 708 709
f 705 709 706
f 620 705 708
f 620 708 623
f 708 710 711
f 708 711 709
f 623 708 710
f 623 710 625
f 710 712 713
f 710 713 711
f 625 710 712
f 625 712 627
f 712 714 715
f 712 715 713
f 627 712 714
f 627 714 629
f 714 716 717
f 714 717 715
f 629 714 716
f 629 716 631
f 716 718 719
f 716 719 717
f 631 716 718
f 631 718 633
f 718 720 721
f 718 721 719
f 633 718 720
f 633 720 635
f 720 722 723
f 720 723 721
f 635 720 722
f 635 722 637
f 722 724 725
f 722 725 723
f 637 722 724
f 637 724 639
f 724 726 727
f 724 727 725
f 639 724 726
f 639 726 641
f 726 728 729
f 726 729 727
f 641 726 728
f 641 728 643
f 728 730 731
f 728 731 729
f 643 728 730
f 643 730 645
f 730 732 733
f 730 733 731
f 645 730 732
f 645 732 647
f 647 732 733
f 647 733 649
f 648 650 734
f 648 734 707
f 649 733 735
f 649 735 651
f 650 652 736
f 650 736 734
f 651 735 737
f 651 737 653
f 652 654 738
f 652 738 736
f 653 737 739
f 653 739 655
f 654 656 740
f 654 740 738
f 655 739 741
f 655 741 657
f 656 658 742
f 656 742 740
f 657 741 743
f 657 743 659
f 658 660 744
f 658 744 742
f 659 743 745
f 659 745 661
f 660 662 746
f 660 746 744
f 661 745 747
f 661 747 663
f 662 664 748
f 662 748 746
f 663 747 749
f 663 749 665
f 664 666 750
f 664 750 748
f 665 749 751
f 665 751 667
f 666 668 752
f 666 752 750
f 667 751 753
f 667 753 669
f 668 670 754
f 668 754 752
f 669 753 755
f 669 755 671
f 670 672 756
f 670 756 754
f 671 755 757
f 671 757 673
f 677 676 758
f 677 758 759
f 672 677 759
f 672 759 756
f 676 679 760
f 676 760 758
f 679 681 761
f 679 761 760
f 681 683 762
f 681 762 761
f 683 685 763
f 683 763 762
f 685 687 764
f 685 764 763
f 687 689 765
f 687 765 764
f 689 691 766
f 689 766 765
f 691 693 767
f 691 767 766
f 693 695 768
f 693 768 767
f 695 697 769
f 695 769 768
f 697 699 770
f 697 770 769
f 699 701 771
f 699 771 770
f 701 703 772
f 701 772 771
f 673 757 772
f 673 772 703
f 773 774 775
f 773 775 776
f 707 773 774
f 707 774 706
f 707 734 776
f 707 776 773
f 774 777 778
f 774 778 775
f 706 774 777
f 706 777 709
f 777 779 780
f 777 780 778
f 709 777 779
f 709 779 711
f 779 781 782
f 779 782 780
f 711 779 781
f 711 781 713
f 781 783 784
f 781 784 782
f 713 781 783
f 713 783 715
f 783 785 786
f 783 786 784
f 715 783 785
f 715 785 717
f 785 787 788
f 785 788 786
f 717 785 787
f 717 787 719
f 787 789 790
f 787 790 788
f 719 787 789
f 719 789 721
f 789 791 792
f 789 792 790
f 721 789 791
f 721 791 723
f 791 793 794
f 791 794 792
f 723 791 793
f 723 793 725
f 793 795 796
f 793 796 794
f 725 793 795
f 725 795 727
f 795 797 798
f 795 798 796
f 727 795 797
f 727 797 729
f 797 799 800
f 797 800 798
f 729 797 799
f 729 799 731
f 799 801 802
f 799 802 800
f 731 799 801
f 731 801 733
f 733 801 802
f 733 802 735
f 734 736 803
f 734 803 776
f 735 802 804
f 735 804 737
f 736 738 805
f 736 805 803
f 737 804 806
f 737 806 739
f 738 740 807
f 738 807 805
f 739 806 808
f 739 808 741
f 740 742 809
f 740 809 807
f 741 808 810
f 741 810 743
f 742 744 811
f 742 811 809
f 743 810 812
f 743 812 745
f 744 746 813
f 744 813 811
f 745 812 814
f 745 814 747
f 746 748 815
f 746 815 813
f 747 814 816
f 747 816 749
f 748 750 817
f 748 817 815
f 749 816 818
f 749 818 751
f 750 752 819
f 750 819 817
f 751 818 820
f 751 820 753
f 752 754 821
f 752 821 819
f 753 820 822
f 753 822 755
f 754 756 823
f 754 823 821
f 755 822 824
f 755 824 757
f 756 759 825
f 756 825 823
f 757 824 826
f 757 826 772
f 759 827 828
f 759 828 758
f 827 828 829
f 827 829 830
f 759 827 830
f 759 830 825
f 758 828 831
f 758 831 760
f 828 831 832
f 828 832 829
f 760 831 833
f 760 833 761
f 831 833 834
f 831 834 832
f 761 833 835
f 761 835 762
f 833 835 836
f 833 836 834
f 762 835 837
f 762 837 763
f 835 837 838
f 835 838 836
f 763 837 839
f 763 839 764
f 837 839 840
f 837 840 838
f 764 839 841
f 764 841 765
f 839 841 842
f 839 842 840
f 765 841 843
f 765 843 766
f 841 843 844
f 841 844 842
f 766 843 845
f 766 845 767
f 843 845 846
f 843 846 844
f 767 845 847
f 767 847 768
f 845 847 848
f 845 848 846
f 768 847 849
f 768 849 769
f 847 849 850
f 847 850 848
f 769 849 851
f 769 851 770
f 849 851 852
f 849 852 850
f 770 851 853
f 770 853 771
f 851 853 854
f 851 854 852
f 771 853 855
f 771 855 772
f 853 855 856
f 853 856 854
f 772 826 856
f 772 856 855
f 857 858 859
f 857 859 860
f 776 857 858
f 776 858 775
f 776 803 860
f 776 860 857
f 858 861 862
f 858 862 859
f 775 858 861
f 775 861 778
f 861 863 864
f 861 864 862
f 778 861 863
f 778 863 780
f 863 865 866
f 863 866 864
f 780 863 865
f 780 865 782
f 865 867 868
f 865 868 866
f 782 865 867
f 782 867 784
f 867 869 870
f 867 870 868
f 784 867 869
f 784 869 786
f 869 871 872
f 869 872 870
f 786 869 871
f 786 871 788
f 871 873 874
f 871 874 872
f 788 871 873
f 788 873 790
f 873 875 876
f 873 876 874
f 790 873 875
f 790 875 792
f 875 877 878
f 875 878 876
f 792 875 877
f 792 877 794
f 877 879 880
f 877 880 878
f 794 877 879
f 794 879 796
f 879 881 882
f 879 882 880
f 796 879 881
f 796 881 798
f 881 883 884
f 881 884 882
f 798 881 883
f 798 883 800
f 883 885 886
f 883 886 884
f 800 883 885
f 800 885 802
f 802 885 886
f 802 886 804
f 803 805 887
f 803 887 860
f 804 886 888
f 804 888 806
f 805 807 889
f 805 889 887
f 806 888 890
f 806 890 808
f 807 809 891
f 807 891 889
f 808 890 892
f 808 892 810
f 809 811 893
f 809 893 891
f 810 892 894
f 810 894 812
f 811 813 895
f 811 895 893
f 812 894 896
f 812 896 814
f 813 815 897
f 813 897 895
f 814 896 898
f 814 898 816
f 815 817 899
f 815 899 897
f 816 898 900
f 816 900 818
f 817 819 901
f 817 901 899
f 818 900 902
f 818 902 820
f 819 821 903
f 819 903 901
f 820 902 904
f 820 904 822
f 821 823 905
f 821 905 903
f 822 904 906
f 822 906 824
f 823 825 907
f 823 907 905
f 824 906 908
f 824 908 826
f 830 829 909
f 830 909 910
f 825 830 910
f 825 910 907
f 829 832 911
f 829 911 909
f 832 834 912
f 832 912 911
f 834 836 913
f 834 913 912
f 836 838 914
f 836 914 913
f 838 840 915
f 838 915 914
f 840 842 916
f 840 916 915
f 842 844 917
f 842 917 916
f 844 846 918
f 844 918 917
f 846 848 919
f 846 919 918
f 848 850 920
f 848 920 919
f 850 852 921
f 850 921 920
f 852 854 922
f 852 922 921
f 854 856 923
f 854 923 922
f 826 908 923
f 826 923 856
f 860 924 925
f 860 925 859
f 860 887 926
f 860 926 924
f 859 925 927
f 859 927 862
f 862 927 928
f 862 928 864
f 864 928 929
f 864 929 866
f 866 929 930
f 866 930 868
f 868 930 931
f 868 931 870
f 870 931 932
f 870 932 872
f 872 932 933
f 872 933 874
f 874 933 934
f 874 934 876
f 876 934 935
f 876 935 878
f 878 935 936
f 878 936 880
f 880 936 937
f 880 937 882
f 882 937 938
f 882 938 884
f 884 938 939
f 884 939 886
f 886 939 940
f 886 940 888
f 887 889 941
f 887 941 926
f 888 940 942
f 888 942 890
f 889 891 943
f 889 943 941
f 890 942 944
f 890 944 892
f 891 893 945
f 891 945 943
f 892 944 946
f 892 946 894
f 893 895 947
f 893 947 945
f 894 946 948
f 894 948 896
f 895 897 949
f 895 949 947
f 896 948 950
f 896 950 898
f 897 899 951
f 897 951 949
f 898 950 952
f 898 952 900
f 899 901 953
f 899 953 951
f 900 952 954
f 900 954 902
f 901 903 955
f 901 955 953
f 902 954 956
f 902 956 904
f 955 957 958
f 955 958 959
f 903 905 959
f 903 959 955
f 957 960 961
f 957 961 958
f 960 962 963
f 960 963 961
f 962 964 965
f 962 965 963
f 964 966 967
f 964 967 965
f 966 968 969
f 966 969 967
f 968 970 971
f 968 971 969
f 970 972 973
f 970 973 971
f 972 974 975
f 972 975 973
f 974 976 977
f 974 977 975
f 976 978 979
f 976 979 977
f 978 980 981
f 978 981 979
f 980 982 983
f 980 983 981
f 982 956 984
f 982 984 983
f 904 956 984
f 904 984 906
f 959 958 985
f 959 985 986
f 905 907 986
f 905 986 959
f 958 961 987
f 958 987 985
f 961 963 988
f 961 988 987
f 963 965 989
f 963 989 988
f 965 967 990
f 965 990 989
f 967 969 991
f 967 991 990
f 969 971 992
f 969 992 991
f 971 973 993
f 971 993 992
f 973 975 994
f 973 994 993
f 975 977 995
f 975 995 994
f 977 979 996
f 977 996 995
f 979 981 997
f 979 997 996
f 981 983 998
f 981 998 997
f 983 984 999
f 983 999 998
f 906 984 999
f 906 999 908
f 986 985 1000
f 986 1000 1001
f 910 909 1000
f 910 1000 1001
f 907 910 1001
f 907 1001 986
f 985 987 1002
f 985 1002 1000
f 909 911 1002
f 909 1002 1000
f 987 988 1003
f 987 1003 1002
f 911 912 1003
f 911 1003 1002
f 988 989 1004
f 988 1004 1003
f 912 913 1004
f 912 1004 1003
f 989 990 1005
f 989 1005 1004
f 913 914 1005
f 913 1005 1004
f 990 991 1006
f 990 1006 1005
f 914 915 1006
f 914 1006 1005
f 991 992 1007
f 991 1007 1006
f 915 916 1007
f 915 1007 1006
f 992 993 1008
f 992 1008 1007
f 916 917 1008
f 916 1008 1007
f 993 994 1009
f 993 1009 1008
f 917 918 1009
f 917 1009 1008
f 994 995 1010
f 994 1010 1009
f 918 919 1010
f 918 1010 1009
f 995 996 1011
f 995 1011 1010
f 919 920 1011
f 919 1011 1010
f 996 997 1012
f 996 1012 1011
f 920 921 1012
f 920 1012 1011
f 997 998 1013
f 997 1013 1012
f 921 922 1013
f 921 1013 1012
f 998 999 1014
f 998 1014 1013
f 922 923 1014
f 922 1014 1013
f 908 999 1014
f 908 1014 923
f 1015 1016 1017
f 1015 1017 1018
f 924 1015 1016
f 924 1016 925
f 924 926 1018
f 924 1018 1015
f 1016 1019 1020
f 1016 1020 1017
f 925 1016 1019
f 925 1019 927
f 1019 1021 1022
f 1019 1022 1020
f 927 1019 1021
f 927 1021 928
f 1021 1023 1024
f 1021 1024 1022
f 928 1021 1023
f 928 1023 929
f 1023 1025 1026
f 1023 1026 1024
f 929 1023 1025
f 929 1025 930
f 1025 1027 1028
f 1025 1028 1026
f 930 1025 1027
f 930 1027 931
f 1027 1029 1030
f 1027 1030 1028
f 931 1027 1029
f 931 1029 932
f 1029 1031 1032
f 1029 1032 1030
f 932 1029 1031
f 932 1031 933
f 1031 1033 1034
f 1031 1034 1032
f 933 1031 1033
f 933 1033 934
f 1033 1035 1036
f 1033 1036 1034
f 934 1033 1035
f 934 1035 935
f 1035 1037 1038
f 1035 1038 1036
f 935 1035 1037
f 935 1037 936
f 1037 1039 1040
f 1037 1040 1038
f 936 1037 1039
f 936 1039 937
f 1039 1041 1042
f 1039 1042 1040
f 937 1039 1041
f 937 1041 938
f 1041 1043 1044
f 1041 1044 1042
f 938 1041 1043
f 938 1043 939
f 939 1043 1044
f 939 1044 940
f 926 941 1045
f 926 1045 1018
f 940 1044 1046
f 940 1046 942
f 941 943 1047
f 941 1047 1045
f 942 1046 1048
f 942 1048 944
f 943 945 1049
f 943 1049 1047
f 944 1048 1050
f 944 1050 946
f 945 947 1051
f 945 1051 1049
f 946 1050 1052
f 946 1052 948
f 947 949 1053
f 947 1053 1051
f 948 1052 1054
f 948 1054 950
f 949 951 1055
f 949 1055 1053
f 950 1054 1056
f 950 1056 952
f 1055 1057 1058
f 1055 1058 1059
f 951 953 1059
f 951 1059 1055
f 1057 1060 1061
f 1057 1061 1058
f 1060 1062 1063
f 1060 1063 1061
f 1062 1064 1065
f 1062 1065 1063
f 1064 1066 1067
f 1064 1067 1065
f 1066 1068 1069
f 1066 1069 1067
f 1068 1070 1071
f 1068 1071 1069
f 1070 1072 1073
f 1070 1073 1071
f 1072 1074 1075
f 1072 1075 1073
f 1074 1076 1077
f 1074 1077 1075
f 1076 1078 1079
f 1076 1079 1077
f 1078 1080 1081
f 1078 1081 1079
f 1080 1082 1083
f 1080 1083 1081
f 1082 1056 1084
f 1082 1084 1083
f 952 1056 1084
f 952 1084 954
f 1059 1058 1085
f 1059 1085 1086
f 955 957 1085
f 955 1085 1086
f 953 955 1086
f 953 1086 1059
f 1058 1061 1087
f 1058 1087 1085
f 957 960 1087
f 957 1087 1085
f 1061 1063 1088
f 1061 1088 1087
f 960 962 1088
f 960 1088 1087
f 1063 1065 1089
f 1063 1089 1088
f 962 964 1089
f 962 1089 1088
f 1065 1067 1090
f 1065 1090 1089
f 964 966 1090
f 964 1090 1089
f 1067 1069 1091
f 1067 1091 1090
f 966 968 1091
f 966 1091 1090
f 1069 1071 1092
f 1069 1092 1091
f 968 970 1092
f 968 1092 1091
f 1071 1073 1093
f 1071 1093 1092
f 970 972 1093
f 970 1093 1092
f 1073 1075 1094
f 1073 1094 1093
f 972 974 1094
f 972 1094 1093
f 1075 1077 1095
f 1075 1095 1094
f 974 976 1095
f 974 1095 1094
f 1077 1079 1096
f 1077 1096 1095
f 976 978 1096
f 976 1096 1095
f 1079 1081 1097
f 1079 1097 1096
f 978 980 1097
f 978 1097 1096
f 1081 1083 1098
f 1081 1098 1097
f 980 982 1098
f 980 1098 1097
f 1083 1084 1099
f 1083 1099 1098
f 982 956 1099
f 982 1099 1098
f 954 1084 1099
f 954 1099 956
f 1100 1101 1102
f 1100 1102 1103
f 1018 1100 1101
f 1018 1101 1017
f 1018 1045 1103
f 1018 1103 1100
f 1101 1104 1105
f 1101 1105 1102
f 1017 1101 1104
f 1017 1104 1020
f 1104 1106 1107
f 1104 1107 1105
f 1020 1104 1106
f 1020 1106 1022
f 1106 1108 1109
f 1106 1109 1107
f 1022 1106 1108
f 1022 1108 1024
f 1108 1110 1111
f 1108 1111 1109
f 1024 1108 1110
f 1024 1110 1026
f 1110 1112 1113
f 1110 1113 1111
f 1026 1110 1112
f 1026 1112 1028
f 1112 1114 1115
f 1112 1115 1113
f 1028 1112 1114
f 1028 1114 1030
f 1114 1116 1117
f 1114 1117 1115
f 1030 1114 1116
f 1030 1116 1032
f 1116 1118 1119
f 1116 1119 1117
f 1032 1116 1118
f 1032 1118 1034
f 1118 1120 1121
f 1118 1121 1119
f 1034 1118 1120
f 1034 1120 1036
f 1120 1122 1123
f 1120 1123 1121
f 1036 1120 1122
f 1036 1122 1038
f 1122 1124 1125
f 1122 1125 1123
f 1038 1122 1124
f 1038 1124 1040
f 1124 1126 1127
f 1124 1127 1125
f 1040 1124 1126
f 1040 1126 1042
f 1126 1128 1129
f 1126 1129 1127
f 1042 1126 1128
f 1042 1128 1044
f 1044 1128 1129
f 1044 1129 1046
f 1045 1047 1130
f 1045 1130 1103
f 1046 1129 1131
f 1046 1131 1048
f 1047 1049 1132
f 1047 1132 1130
f 1048 1131 1133
f 1048 1133 1050
f 1049 1051 1134
f 1049 1134 1132
f 1050 1133 1135
f 1050 1135 1052
f 1134 1136 1137
f 1134 1137 1138
f 1051 1053 1138
f 1051 1138 1134
f 1136 1139 1140
f 1136 1140 1137
f 1139 1141 1142
f 1139 1142 1140
f 1141 1143 1144
f 1141 1144 1142
f 1143 1145 1146
f 1143 1146 1144
f 1145 1147 1148
f 1145 1148 1146
f 1147 1149 1150
f 1147 1150 1148
f 1149 1151 1152
f 1149 1152 1150
f 1151 1153 1154
f 1151 1154 1152
f 1153 1155 1156
f 1153 1156 1154
f 1155 1157 1158
f 1155 1158 1156
f 1157 1159 1160
f 1157 1160 1158
f 1159 1161 1162
f 1159 1162 1160
f 1161 1135 1163
f 1161 1163 1162
f 1052 1135 1163
f 1052 1163 1054
f 1138 1137 1164
f 1138 1164 1165
f 1055 1057 1164
f 1055 1164 1165
f 1053 1055 1165
f 1053 1165 1138
f 1137 1140 1166
f 1137 1166 1164
f 1057 1060 1166
f 1057 1166 1164
f 1140 1142 1167
f 1140 1167 1166
f 1060 1062 1167
f 1060 1167 1166
f 1142 1144 1168
f 1142 1168 1167
f 1062 1064 1168
f 1062 1168 1167
f 1144 1146 1169
f 1144 1169 1168
f 1064 1066 1169
f 1064 1169 1168
f 1146 1148 1170
f 1146 1170 1169
f 1066 1068 1170
f 1066 1170 1169
f 1148 1150 1171
f 1148 1171 1170
f 1068 1070 1171
f 1068 1171 1170
f 1150 1152 1172
f 1150 1172 1171
f 1070 1072 1172
f 1070 1172 1171
f 1152 1154 1173
f 1152 1173 1172
f 1072 1074 1173
f 1072 1173 1172
f 1154 1156 1174
f 1154 1174 1173
f 1074 1076 1174
f 1074 1174 1173
f 1156 1158 1175
f 1156 1175 1174
f 1076 1078 1175
f 1076 1175 1174
f 1158 1160 1176
f 1158 1176 1175
f 1078 1080 1176
f 1078 1176 1175
f 1160 1162 1177
f 1160 1177 1176
f 1080 1082 1177
f 1080 1177 1176
f 1162 1163 1178
f 1162 1178 1177
f 1082 1056 1178
f 1082 1178 1177
f 1054 1163 1178
f 1054 1178 1056
f 1179 1180 1181
f 1179 1181 1182
f 1103 1179 1180
f 1103 1180 1102
f 1103 1130 1182
f 1103 1182 1179
f 1180 1183 1184
f 1180 1184 1181
f 1102 1180 1183
f 1102 1183 1105
f 1183 1185 1186
f 1183 1186 1184
f 1105 1183 1185
f 1105 1185 1107
f 1185 1187 1188
f 1185 1188 1186
f 1107 1185 1187
f 1107 1187 1109
f 1187 1189 1190
f 1187 1190 1188
f 1109 1187 1189
f 1109 1189 1111
f 1189 1191 1192
f 1189 1192 1190
f 1111 1189 1191
f 1111 1191 1113
f 1191 1193 1194
f 1191 1194 1192
f 1113 1191 1193
f 1113 1193 1115
f 1193 1195 1196
f 1193 1196 1194
f 1115 1193 1195
f 1115 1195 1117
f 1195 1197 1198
f 1195 1198 1196
f 1117 1195 1197
f 1117 1197 1119
f 1197 1199 1200
f 1197 1200 1198
f 1119 1197 1199
f 1119 1199 1121
f 1199 1201 1202
f 1199 1202 1200
f 1121 1199 1201
f 1121 1201 1123
f 1201 1203 1204
f 1201 1204 1202
f 1123 1201 1203
f 1123 1203 1125
f 1203 1205 1206
f 1203 1206 1204
f 1125 1203 1205
f 1125 1205 1127
f 1205 1207 1208
f 1205 1208 1206
f 1127 1205 1207
f 1127 1207 1129
f 1129 1207 1208
f 1129 1208 1131
f 1182 1181 1209
f 1182 1209 1210
f 1130 1132 1210
f 1130 1210 1182
f 1181 1184 1211
f 1181 1211 1209
f 1184 1186 1212
f 1184 1212 1211
f 1186 1188 1213
f 1186 1213 1212
f 1188 1190 1214
f 1188 1214 1213
f 1190 1192 1215
f 1190 1215 1214
f 1192 1194 1216
f 1192 1216 1215
f 1194 1196 1217
f 1194 1217 1216
f 1196 1198 1218
f 1196 1218 1217
f 1198 1200 1219
f 1198 1219 1218
f 1200 1202 1220
f 1200 1220 1219
f 1202 1204 1221
f 1202 1221 1220
f 1204 1206 1222
f 1204 1222 1221
f 1206 1208 1223
f 1206 1223 1222
f 1131 1208 1223
f 1131 1223 1133
f 1210 1209 1224
f 1210 1224 1225
f 1134 1136 1224
f 1134 1224 1225
f 1132 1134 1225
f 1132 1225 1210
f 1209 1211 1226
f 1209 1226 1224
f 1136 1139 1226
f 1136 1226 1224
f 1211 1212 1227
f 1211 1227 1226
f 1139 1141 1227
f 1139 1227 1226
f 1212 1213 1228
f 1212 1228 1227
f 1141 1143 1228
f 1141 1228 1227
f 1213 1214 1229
f 1213 1229 1228
f 1143 1145 1229
f 1143 1229 1228
f 1214 1215 1230
f 1214 1230 1229
f 1145 1147 1230
f 1145 1230 1229
f 1215 1216 1231
f 1215 1231 1230
f 1147 1149 1231
f 1147 1231 1230
f 1216 1217 1232
f 1216 1232 1231
f 1149 1151 1232
f 1149 1232 1231
f 1217 1218 1233
f 1217 1233 1232
f 1151 1153 1233
f 1151 1233 1232
f 1218 1219 1234
f 1218 1234 1233
f 1153 1155 1234
f 1153 1234 1233
f 1219 1220 1235
f 1219 1235 1234
f 1155 1157 1235
f 1155 1235 1234
f 1220 1221 1236
f 1220 1236 1235
f 1157 1159 1236
f 1157 1236 1235
f 1221 1222 1237
f 1221 1237 1236
f 1159 1161 1237
f 1159 1237 1236
f 1222 1223 1238
f 1222 1238 1237
f 1161 1135 1238
f 1161 1238 1237
f 1133 1223 1238
f 1133 1238 1135
