o [4B] 3D Diagram - S2-10 Group E_397
v 0.500000 130.000000 26.438021
v 1.979340 130.000000 22.000000
v 1.832840 130.641862 22.000000
v 1.422354 131.156595 22.000000
v 0.829184 131.442250 22.000000
v 0.170816 131.442250 22.000000
v -0.422354 131.156595 22.000000
v -0.832840 130.641862 22.000000
v -0.979340 130.000000 22.000000
v -0.832840 129.358138 22.000000
v -0.422354 128.843405 22.000000
v 0.170816 128.557750 22.000000
v 0.829184 128.557750 22.000000
v 1.422354 128.843405 22.000000
v 1.832840 129.358138 22.000000
v 0.500000 130.000000 22.000000
f 1 2 3
f 1 3 4
f 1 4 5
f 1 5 6
f 1 6 7
f 1 7 8
f 1 8 9
f 1 9 10
f 1 10 11
f 1 11 12
f 1 12 13
f 1 13 14
f 1 14 15
f 1 15 2
f 16 3 2
f 16 4 3
f 16 5 4
f 16 6 5
f 16 7 6
f 16 8 7
f 16 9 8
f 16 10 9
f 16 11 10
f 16 12 11
f 16 13 12
f 16 14 13
f 16 15 14
f 16 2 15
