o [4B] 3D Diagram - S2-10 Group E_170
v 8.000000 127.000000 8.438021
v 9.479340 127.000000 4.000000
v 9.332840 127.641862 4.000000
v 8.922354 128.156595 4.000000
v 8.329184 128.442250 4.000000
v 7.670816 128.442250 4.000000
v 7.077646 128.156595 4.000000
v 6.667160 127.641862 4.000000
v 6.520660 127.000000 4.000000
v 6.667160 126.358138 4.000000
v 7.077646 125.843405 4.000000
v 7.670816 125.557750 4.000000
v 8.329184 125.557750 4.000000
v 8.922354 125.843405 4.000000
v 9.332840 126.358138 4.000000
v 8.000000 127.000000 4.000000
f 1 2 3
f 1 3 4
f 1 4 5
f 1 5 6
f 1 6 7
f 1 7 8
f 1 8 9
f 1 9 10
f 1 10 11
f 1 11 12
f 1 12 13
f 1 13 14
f 1 14 15
f 1 15 2
f 16 3 2
f 16 4 3
f 16 5 4
f 16 6 5
f 16 7 6
f 16 8 7
f 16 9 8
f 16 10 9
f 16 11 10
f 16 12 11
f 16 13 12
f 16 14 13
f 16 15 14
f 16 2 15
