o [4B] 3D Diagram - S2-10 Group E_349
v -70.000000 80.000000 44.438021
v -68.520660 80.000000 40.000000
v -68.667160 80.641862 40.000000
v -69.077646 81.156595 40.000000
v -69.670816 81.442250 40.000000
v -70.329184 81.442250 40.000000
v -70.922354 81.156595 40.000000
v -71.332840 80.641862 40.000000
v -71.479340 80.000000 40.000000
v -71.332840 79.358138 40.000000
v -70.922354 78.843405 40.000000
v -70.329184 78.557750 40.000000
v -69.670816 78.557750 40.000000
v -69.077646 78.843405 40.000000
v -68.667160 79.358138 40.000000
v -70.000000 80.000000 40.000000
f 1 2 3
f 1 3 4
f 1 4 5
f 1 5 6
f 1 6 7
f 1 7 8
f 1 8 9
f 1 9 10
f 1 10 11
f 1 11 12
f 1 12 13
f 1 13 14
f 1 14 15
f 1 15 2
f 16 3 2
f 16 4 3
f 16 5 4
f 16 6 5
f 16 7 6
f 16 8 7
f 16 9 8
f 16 10 9
f 16 11 10
f 16 12 11
f 16 13 12
f 16 14 13
f 16 15 14
f 16 2 15
