o [4B] 3D Diagram - S2-06 Group C_47
v 2.750000 -18.075000 0.550000
v 2.750000 -13.350000 0.550000
v 2.750000 -13.350000 1.900000
v 2.750000 -18.075000 1.900000
v 9.500000 -18.075000 0.550000
v 9.500000 -18.075000 1.900000
v 9.500000 -13.350000 0.550000
v 2.750000 -13.350000 3.250000
v 2.750000 -18.075000 3.250000
v 9.500000 -18.075000 3.250000
v 2.750000 -13.350000 4.600000
v 2.750000 -18.075000 4.600000
v 9.500000 -18.075000 4.600000
v 2.750000 -13.350000 5.950000
v 2.750000 -18.075000 5.950000
v 9.500000 -18.075000 5.950000
v 2.750000 -13.350000 7.300000
v 2.750000 -18.075000 7.300000
v 9.500000 -18.075000 7.300000
v 2.750000 -13.350000 8.650000
v 2.750000 -18.075000 8.650000
v 9.500000 -18.075000 8.650000
v 2.750000 -13.350000 10.000000
v 2.750000 -18.075000 10.000000
v 9.500000 -18.075000 10.000000
v 2.750000 -13.350000 11.350000
v 2.750000 -18.075000 11.350000
v 9.500000 -18.075000 11.350000
v 2.750000 -13.350000 12.700000
v 2.750000 -18.075000 12.700000
v 9.500000 -18.075000 12.700000
v 9.500000 -13.350000 12.700000
v 2.750000 -8.625000 0.550000
v 2.750000 -8.625000 1.900000
v 9.500000 -8.625000 0.550000
v 2.750000 -8.625000 3.250000
v 2.750000 -8.625000 4.600000
v 2.750000 -8.625000 5.950000
v 2.750000 -8.625000 7.300000
v 2.750000 -8.625000 8.650000
v 2.750000 -8.625000 10.000000
v 2.750000 -8.625000 11.350000
v 2.750000 -8.625000 12.700000
v 2.750000 -8.625000 14.050000
v 2.750000 -13.350000 14.050000
v 9.500000 -13.350000 14.050000
v 2.750000 -8.625000 15.400000
v 2.750000 -13.350000 15.400000
v 9.500000 -13.350000 15.400000
v 2.750000 -8.625000 16.750000
v 2.750000 -13.350000 16.750000
v 9.500000 -13.350000 16.750000
v 2.750000 -8.625000 18.100000
v 2.750000 -13.350000 18.100000
v 9.500000 -13.350000 18.100000
v 9.500000 -8.625000 18.100000
v 2.750000 -3.900000 0.550000
v 2.750000 -3.900000 1.900000
v 9.500000 -3.900000 0.550000
v 2.750000 -3.900000 3.250000
v 2.750000 -3.900000 4.600000
v 2.750000 -3.900000 5.950000
v 2.750000 -3.900000 7.300000
v 2.750000 -3.900000 8.650000
v 2.750000 -3.900000 10.000000
v 2.750000 -3.900000 11.350000
v 2.750000 -3.900000 12.700000
v 2.750000 -3.900000 14.050000
v 2.750000 -3.900000 15.400000
v 2.750000 -3.900000 16.750000
v 2.750000 -3.900000 18.100000
v 9.500000 -3.900000 18.100000
v 2.750000 0.825000 0.550000
v 2.750000 0.825000 1.900000
v 9.500000 0.825000 0.550000
v 2.750000 0.825000 3.250000
v 2.750000 0.825000 4.600000
v 2.750000 0.825000 5.950000
v 2.750000 0.825000 7.300000
v 2.750000 0.825000 8.650000
v 2.750000 0.825000 10.000000
v 2.750000 0.825000 11.350000
v 2.750000 0.825000 12.700000
v 2.750000 0.825000 14.050000
v 2.750000 0.825000 15.400000
v 2.750000 0.825000 16.750000
v 2.750000 0.825000 18.100000
v 9.500000 0.825000 18.100000
v 2.750000 5.550000 0.550000
v 2.750000 5.550000 1.900000
v 9.500000 5.550000 0.550000
v 2.750000 5.550000 3.250000
v 2.750000 5.550000 4.600000
v 2.750000 5.550000 5.950000
v 2.750000 5.550000 7.300000
v 2.750000 5.550000 8.650000
v 2.750000 5.550000 10.000000
v 2.750000 5.550000 11.350000
v 2.750000 5.550000 12.700000
v 2.750000 5.550000 14.050000
v 2.750000 5.550000 15.400000
v 2.750000 5.550000 16.750000
v 2.750000 5.550000 18.100000
v 9.500000 5.550000 18.100000
v 2.750000 10.275000 0.550000
v 2.750000 10.275000 1.900000
v 9.500000 10.275000 0.550000
v 2.750000 10.275000 3.250000
v 2.750000 10.275000 4.600000
v 2.750000 10.275000 5.950000
v 2.750000 10.275000 7.300000
v 2.750000 10.275000 8.650000
v 2.750000 10.275000 10.000000
v 2.750000 10.275000 11.350000
v 2.750000 10.275000 12.700000
v 2.750000 10.275000 14.050000
v 2.750000 10.275000 15.400000
v 2.750000 10.275000 16.750000
v 2.750000 10.275000 18.100000
v 9.500000 10.275000 18.100000
v 2.750000 15.000000 0.550000
v 2.750000 15.000000 1.900000
v 9.500000 15.000000 0.550000
v 2.750000 15.000000 3.250000
v 2.750000 15.000000 4.600000
v 2.750000 15.000000 5.950000
v 2.750000 15.000000 7.300000
v 2.750000 15.000000 8.650000
v 2.750000 15.000000 10.000000
v 2.750000 15.000000 11.350000
v 2.750000 15.000000 12.700000
v 2.750000 15.000000 14.050000
v 2.750000 15.000000 15.400000
v 2.750000 15.000000 16.750000
v 2.750000 15.000000 18.100000
v 9.500000 15.000000 18.100000
v 2.750000 19.725000 0.550000
v 2.750000 19.725000 1.900000
v 9.500000 19.725000 0.550000
v 2.750000 19.725000 3.250000
v 2.750000 19.725000 4.600000
v 2.750000 19.725000 5.950000
v 2.750000 19.725000 7.300000
v 2.750000 19.725000 8.650000
v 2.750000 19.725000 10.000000
v 2.750000 19.725000 11.350000
v 2.750000 19.725000 12.700000
v 2.750000 19.725000 14.050000
v 2.750000 19.725000 15.400000
v 2.750000 19.725000 16.750000
v 2.750000 19.725000 18.100000
v 9.500000 19.725000 18.100000
v 2.750000 24.450000 0.550000
v 2.750000 24.450000 1.900000
v 9.500000 24.450000 0.550000
v 2.750000 24.450000 3.250000
v 2.750000 24.450000 4.600000
v 2.750000 24.450000 5.950000
v 2.750000 24.450000 7.300000
v 2.750000 24.450000 8.650000
v 2.750000 24.450000 10.000000
v 2.750000 24.450000 11.350000
v 2.750000 24.450000 12.700000
v 2.750000 24.450000 14.050000
v 2.750000 24.450000 15.400000
v 2.750000 24.450000 16.750000
v 2.750000 24.450000 18.100000
v 9.500000 24.450000 18.100000
v 2.750000 29.175000 0.550000
v 2.750000 29.175000 1.900000
v 9.500000 29.175000 0.550000
v 2.750000 29.175000 3.250000
v 2.750000 29.175000 4.600000
v 2.750000 29.175000 5.950000
v 2.750000 29.175000 7.300000
v 2.750000 29.175000 8.650000
v 2.750000 29.175000 10.000000
v 2.750000 29.175000 11.350000
v 2.750000 29.175000 12.700000
v 2.750000 29.175000 14.050000
v 2.750000 29.175000 15.400000
v 2.750000 29.175000 16.750000
v 2.750000 29.175000 18.100000
v 9.500000 29.175000 18.100000
v 2.750000 33.900000 0.550000
v 2.750000 33.900000 1.900000
v 9.500000 33.900000 0.550000
v 2.750000 33.900000 3.250000
v 2.750000 33.900000 4.600000
v 2.750000 33.900000 5.950000
v 2.750000 33.900000 7.300000
v 2.750000 33.900000 8.650000
v 2.750000 33.900000 10.000000
v 2.750000 33.900000 11.350000
v 2.750000 33.900000 12.700000
v 2.750000 33.900000 14.050000
v 2.750000 33.900000 15.400000
v 2.750000 33.900000 16.750000
v 2.750000 33.900000 18.100000
v 9.500000 33.900000 18.100000
v 2.750000 38.625000 0.550000
v 2.750000 38.625000 1.900000
v 9.500000 38.625000 0.550000
v 2.750000 38.625000 3.250000
v 2.750000 38.625000 4.600000
v 2.750000 38.625000 5.950000
v 2.750000 38.625000 7.300000
v 2.750000 38.625000 8.650000
v 2.750000 38.625000 10.000000
v 2.750000 38.625000 11.350000
v 2.750000 38.625000 12.700000
v 2.750000 38.625000 14.050000
v 2.750000 38.625000 15.400000
v 2.750000 38.625000 16.750000
v 2.750000 38.625000 18.100000
v 9.500000 38.625000 18.100000
v 2.750000 43.350000 0.550000
v 2.750000 43.350000 1.900000
v 9.500000 43.350000 0.550000
v 2.750000 43.350000 3.250000
v 2.750000 43.350000 4.600000
v 2.750000 43.350000 5.950000
v 2.750000 43.350000 7.300000
v 2.750000 43.350000 8.650000
v 2.750000 43.350000 10.000000
v 2.750000 43.350000 11.350000
v 2.750000 43.350000 12.700000
v 2.750000 43.350000 14.050000
v 9.500000 43.350000 14.050000
v 9.500000 43.350000 12.700000
v 2.750000 43.350000 15.400000
v 9.500000 43.350000 15.400000
v 2.750000 43.350000 16.750000
v 9.500000 43.350000 16.750000
v 2.750000 43.350000 18.100000
v 9.500000 43.350000 18.100000
v 2.750000 48.075000 0.550000
v 2.750000 48.075000 1.900000
v 9.500000 48.075000 1.900000
v 9.500000 48.075000 0.550000
v 2.750000 48.075000 3.250000
v 9.500000 48.075000 3.250000
v 2.750000 48.075000 4.600000
v 9.500000 48.075000 4.600000
v 2.750000 48.075000 5.950000
v 9.500000 48.075000 5.950000
v 2.750000 48.075000 7.300000
v 9.500000 48.075000 7.300000
v 2.750000 48.075000 8.650000
v 9.500000 48.075000 8.650000
v 2.750000 48.075000 10.000000
v 9.500000 48.075000 10.000000
v 2.750000 48.075000 11.350000
v 9.500000 48.075000 11.350000
v 2.750000 48.075000 12.700000
v 9.500000 48.075000 12.700000
v 16.250000 -18.075000 0.550000
v 16.250000 -18.075000 1.900000
v 16.250000 -13.350000 0.550000
v 16.250000 -18.075000 3.250000
v 16.250000 -18.075000 4.600000
v 16.250000 -18.075000 5.950000
v 16.250000 -18.075000 7.300000
v 16.250000 -18.075000 8.650000
v 16.250000 -18.075000 10.000000
v 16.250000 -18.075000 11.350000
v 16.250000 -18.075000 12.700000
v 16.250000 -13.350000 12.700000
v 16.250000 -8.625000 0.550000
v 16.250000 -13.350000 14.050000
v 16.250000 -13.350000 15.400000
v 16.250000 -13.350000 16.750000
v 16.250000 -13.350000 18.100000
v 9.500000 -8.625000 19.450000
v 9.500000 -13.350000 19.450000
v 16.250000 -13.350000 19.450000
v 16.250000 -8.625000 19.450000
v 16.250000 -3.900000 0.550000
v 9.500000 -3.900000 19.450000
v 16.250000 -3.900000 19.450000
v 16.250000 0.825000 0.550000
v 9.500000 0.825000 19.450000
v 16.250000 0.825000 19.450000
v 16.250000 5.550000 0.550000
v 9.500000 5.550000 19.450000
v 16.250000 5.550000 19.450000
v 16.250000 10.275000 0.550000
v 9.500000 10.275000 19.450000
v 16.250000 10.275000 19.450000
v 16.250000 15.000000 0.550000
v 9.500000 15.000000 19.450000
v 16.250000 15.000000 19.450000
v 16.250000 19.725000 0.550000
v 9.500000 19.725000 19.450000
v 16.250000 19.725000 19.450000
v 16.250000 24.450000 0.550000
v 9.500000 24.450000 19.450000
v 16.250000 24.450000 19.450000
v 16.250000 29.175000 0.550000
v 9.500000 29.175000 19.450000
v 16.250000 29.175000 19.450000
v 16.250000 33.900000 0.550000
v 9.500000 33.900000 19.450000
v 16.250000 33.900000 19.450000
v 16.250000 38.625000 0.550000
v 9.500000 38.625000 19.450000
v 16.250000 38.625000 19.450000
v 16.250000 43.350000 0.550000
v 16.250000 43.350000 14.050000
v 16.250000 43.350000 12.700000
v 16.250000 43.350000 15.400000
v 16.250000 43.350000 16.750000
v 16.250000 43.350000 18.100000
v 9.500000 43.350000 19.450000
v 16.250000 43.350000 19.450000
v 16.250000 48.075000 1.900000
v 16.250000 48.075000 0.550000
v 16.250000 48.075000 3.250000
v 16.250000 48.075000 4.600000
v 16.250000 48.075000 5.950000
v 16.250000 48.075000 7.300000
v 16.250000 48.075000 8.650000
v 16.250000 48.075000 10.000000
v 16.250000 48.075000 11.350000
v 16.250000 48.075000 12.700000
v 23.000000 -18.075000 0.550000
v 23.000000 -18.075000 1.900000
v 23.000000 -13.350000 0.550000
v 23.000000 -18.075000 3.250000
v 23.000000 -18.075000 4.600000
v 23.000000 -18.075000 5.950000
v 23.000000 -18.075000 7.300000
v 23.000000 -18.075000 8.650000
v 23.000000 -18.075000 10.000000
v 23.000000 -18.075000 11.350000
v 23.000000 -18.075000 12.700000
v 23.000000 -13.350000 12.700000
v 23.000000 -8.625000 0.550000
v 23.000000 -13.350000 14.050000
v 23.000000 -13.350000 15.400000
v 23.000000 -13.350000 16.750000
v 23.000000 -13.350000 18.100000
v 23.000000 -13.350000 19.450000
v 23.000000 -8.625000 19.450000
v 23.000000 -3.900000 0.550000
v 23.000000 -3.900000 19.450000
v 23.000000 0.825000 0.550000
v 23.000000 0.825000 19.450000
v 23.000000 5.550000 0.550000
v 23.000000 5.550000 19.450000
v 23.000000 10.275000 0.550000
v 23.000000 10.275000 19.450000
v 23.000000 15.000000 0.550000
v 23.000000 15.000000 19.450000
v 23.000000 19.725000 0.550000
v 23.000000 19.725000 19.450000
v 23.000000 24.450000 0.550000
v 23.000000 24.450000 19.450000
v 23.000000 29.175000 0.550000
v 23.000000 29.175000 19.450000
v 23.000000 33.900000 0.550000
v 23.000000 33.900000 19.450000
v 23.000000 38.625000 0.550000
v 23.000000 38.625000 19.450000
v 23.000000 43.350000 0.550000
v 23.000000 43.350000 14.050000
v 23.000000 43.350000 12.700000
v 23.000000 43.350000 15.400000
v 23.000000 43.350000 16.750000
v 23.000000 43.350000 18.100000
v 23.000000 43.350000 19.450000
v 23.000000 48.075000 1.900000
v 23.000000 48.075000 0.550000
v 23.000000 48.075000 3.250000
v 23.000000 48.075000 4.600000
v 23.000000 48.075000 5.950000
v 23.000000 48.075000 7.300000
v 23.000000 48.075000 8.650000
v 23.000000 48.075000 10.000000
v 23.000000 48.075000 11.350000
v 23.000000 48.075000 12.700000
v 29.750000 -18.075000 0.550000
v 29.750000 -18.075000 1.900000
v 29.750000 -13.350000 0.550000
v 29.750000 -18.075000 3.250000
v 29.750000 -18.075000 4.600000
v 29.750000 -18.075000 5.950000
v 29.750000 -18.075000 7.300000
v 29.750000 -18.075000 8.650000
v 29.750000 -18.075000 10.000000
v 29.750000 -18.075000 11.350000
v 29.750000 -18.075000 12.700000
v 29.750000 -13.350000 12.700000
v 29.750000 -8.625000 0.550000
v 29.750000 -13.350000 14.050000
v 29.750000 -13.350000 15.400000
v 29.750000 -13.350000 16.750000
v 29.750000 -13.350000 18.100000
v 29.750000 -13.350000 19.450000
v 29.750000 -8.625000 19.450000
v 29.750000 -3.900000 0.550000
v 29.750000 -3.900000 19.450000
v 29.750000 0.825000 0.550000
v 29.750000 0.825000 19.450000
v 29.750000 5.550000 0.550000
v 29.750000 5.550000 19.450000
v 29.750000 10.275000 0.550000
v 29.750000 10.275000 19.450000
v 29.750000 15.000000 0.550000
v 29.750000 15.000000 19.450000
v 29.750000 19.725000 0.550000
v 29.750000 19.725000 19.450000
v 29.750000 24.450000 0.550000
v 29.750000 24.450000 19.450000
v 29.750000 29.175000 0.550000
v 29.750000 29.175000 19.450000
v 29.750000 33.900000 0.550000
v 29.750000 33.900000 19.450000
v 29.750000 38.625000 0.550000
v 29.750000 38.625000 19.450000
v 29.750000 43.350000 0.550000
v 29.750000 43.350000 14.050000
v 29.750000 43.350000 12.700000
v 29.750000 43.350000 15.400000
v 29.750000 43.350000 16.750000
v 29.750000 43.350000 18.100000
v 29.750000 43.350000 19.450000
v 29.750000 48.075000 1.900000
v 29.750000 48.075000 0.550000
v 29.750000 48.075000 3.250000
v 29.750000 48.075000 4.600000
v 29.750000 48.075000 5.950000
v 29.750000 48.075000 7.300000
v 29.750000 48.075000 8.650000
v 29.750000 48.075000 10.000000
v 29.750000 48.075000 11.350000
v 29.750000 48.075000 12.700000
v 36.500000 -18.075000 0.550000
v 36.500000 -18.075000 1.900000
v 36.500000 -13.350000 0.550000
v 36.500000 -18.075000 3.250000
v 36.500000 -18.075000 4.600000
v 36.500000 -18.075000 5.950000
v 36.500000 -18.075000 7.300000
v 36.500000 -18.075000 8.650000
v 36.500000 -18.075000 10.000000
v 36.500000 -18.075000 11.350000
v 36.500000 -18.075000 12.700000
v 36.500000 -13.350000 12.700000
v 36.500000 -8.625000 0.550000
v 36.500000 -13.350000 14.050000
v 36.500000 -13.350000 15.400000
v 36.500000 -13.350000 16.750000
v 36.500000 -13.350000 18.100000
v 36.500000 -13.350000 19.450000
v 36.500000 -8.625000 19.450000
v 36.500000 -3.900000 0.550000
v 36.500000 -3.900000 19.450000
v 36.500000 0.825000 0.550000
v 36.500000 0.825000 19.450000
v 36.500000 5.550000 0.550000
v 36.500000 5.550000 19.450000
v 36.500000 10.275000 0.550000
v 36.500000 10.275000 19.450000
v 36.500000 15.000000 0.550000
v 36.500000 15.000000 19.450000
v 36.500000 19.725000 0.550000
v 36.500000 19.725000 19.450000
v 36.500000 24.450000 0.550000
v 36.500000 24.450000 19.450000
v 36.500000 29.175000 0.550000
v 36.500000 29.175000 19.450000
v 36.500000 33.900000 0.550000
v 36.500000 33.900000 19.450000
v 36.500000 38.625000 0.550000
v 36.500000 38.625000 19.450000
v 36.500000 43.350000 0.550000
v 36.500000 43.350000 14.050000
v 36.500000 43.350000 12.700000
v 36.500000 43.350000 15.400000
v 36.500000 43.350000 16.750000
v 36.500000 43.350000 18.100000
v 36.500000 43.350000 19.450000
v 36.500000 48.075000 1.900000
v 36.500000 48.075000 0.550000
v 36.500000 48.075000 3.250000
v 36.500000 48.075000 4.600000
v 36.500000 48.075000 5.950000
v 36.500000 48.075000 7.300000
v 36.500000 48.075000 8.650000
v 36.500000 48.075000 10.000000
v 36.500000 48.075000 11.350000
v 36.500000 48.075000 12.700000
v 43.250000 -18.075000 0.550000
v 43.250000 -18.075000 1.900000
v 43.250000 -13.350000 0.550000
v 43.250000 -18.075000 3.250000
v 43.250000 -18.075000 4.600000
v 43.250000 -18.075000 5.950000
v 43.250000 -18.075000 7.300000
v 43.250000 -18.075000 8.650000
v 43.250000 -18.075000 10.000000
v 43.250000 -18.075000 11.350000
v 43.250000 -18.075000 12.700000
v 43.250000 -13.350000 12.700000
v 43.250000 -8.625000 0.550000
v 43.250000 -13.350000 14.050000
v 43.250000 -13.350000 15.400000
v 43.250000 -13.350000 16.750000
v 43.250000 -13.350000 18.100000
v 43.250000 -13.350000 19.450000
v 43.250000 -8.625000 19.450000
v 43.250000 -3.900000 0.550000
v 43.250000 -3.900000 19.450000
v 43.250000 0.825000 0.550000
v 43.250000 0.825000 19.450000
v 43.250000 5.550000 0.550000
v 43.250000 5.550000 19.450000
v 43.250000 10.275000 0.550000
v 43.250000 10.275000 19.450000
v 43.250000 15.000000 0.550000
v 43.250000 15.000000 19.450000
v 43.250000 19.725000 0.550000
v 43.250000 19.725000 19.450000
v 43.250000 24.450000 0.550000
v 43.250000 24.450000 19.450000
v 43.250000 29.175000 0.550000
v 43.250000 29.175000 19.450000
v 43.250000 33.900000 0.550000
v 43.250000 33.900000 19.450000
v 43.250000 38.625000 0.550000
v 43.250000 38.625000 19.450000
v 43.250000 43.350000 0.550000
v 43.250000 43.350000 14.050000
v 43.250000 43.350000 12.700000
v 43.250000 43.350000 15.400000
v 43.250000 43.350000 16.750000
v 43.250000 43.350000 18.100000
v 43.250000 43.350000 19.450000
v 43.250000 48.075000 1.900000
v 43.250000 48.075000 0.550000
v 43.250000 48.075000 3.250000
v 43.250000 48.075000 4.600000
v 43.250000 48.075000 5.950000
v 43.250000 48.075000 7.300000
v 43.250000 48.075000 8.650000
v 43.250000 48.075000 10.000000
v 43.250000 48.075000 11.350000
v 43.250000 48.075000 12.700000
v 50.000000 -18.075000 0.550000
v 50.000000 -18.075000 1.900000
v 50.000000 -13.350000 0.550000
v 50.000000 -18.075000 3.250000
v 50.000000 -18.075000 4.600000
v 50.000000 -18.075000 5.950000
v 50.000000 -18.075000 7.300000
v 50.000000 -18.075000 8.650000
v 50.000000 -18.075000 10.000000
v 50.000000 -18.075000 11.350000
v 50.000000 -18.075000 12.700000
v 50.000000 -13.350000 12.700000
v 50.000000 -8.625000 0.550000
v 50.000000 -13.350000 14.050000
v 50.000000 -13.350000 15.400000
v 50.000000 -13.350000 16.750000
v 50.000000 -13.350000 18.100000
v 50.000000 -13.350000 19.450000
v 50.000000 -8.625000 19.450000
v 50.000000 -3.900000 0.550000
v 50.000000 -3.900000 19.450000
v 50.000000 0.825000 0.550000
v 50.000000 0.825000 19.450000
v 50.000000 5.550000 0.550000
v 50.000000 5.550000 19.450000
v 50.000000 10.275000 0.550000
v 50.000000 10.275000 19.450000
v 50.000000 15.000000 0.550000
v 50.000000 15.000000 19.450000
v 50.000000 19.725000 0.550000
v 50.000000 19.725000 19.450000
v 50.000000 24.450000 0.550000
v 50.000000 24.450000 19.450000
v 50.000000 29.175000 0.550000
v 50.000000 29.175000 19.450000
v 50.000000 33.900000 0.550000
v 50.000000 33.900000 19.450000
v 50.000000 38.625000 0.550000
v 50.000000 38.625000 19.450000
v 50.000000 43.350000 0.550000
v 50.000000 43.350000 14.050000
v 50.000000 43.350000 12.700000
v 50.000000 43.350000 15.400000
v 50.000000 43.350000 16.750000
v 50.000000 43.350000 18.100000
v 50.000000 43.350000 19.450000
v 50.000000 48.075000 1.900000
v 50.000000 48.075000 0.550000
v 50.000000 48.075000 3.250000
v 50.000000 48.075000 4.600000
v 50.000000 48.075000 5.950000
v 50.000000 48.075000 7.300000
v 50.000000 48.075000 8.650000
v 50.000000 48.075000 10.000000
v 50.000000 48.075000 11.350000
v 50.000000 48.075000 12.700000
v 56.750000 -18.075000 0.550000
v 56.750000 -18.075000 1.900000
v 56.750000 -13.350000 0.550000
v 56.750000 -18.075000 3.250000
v 56.750000 -18.075000 4.600000
v 56.750000 -18.075000 5.950000
v 56.750000 -18.075000 7.300000
v 56.750000 -18.075000 8.650000
v 56.750000 -18.075000 10.000000
v 56.750000 -18.075000 11.350000
v 56.750000 -18.075000 12.700000
v 56.750000 -13.350000 12.700000
v 56.750000 -8.625000 0.550000
v 56.750000 -13.350000 14.050000
v 56.750000 -13.350000 15.400000
v 56.750000 -13.350000 16.750000
v 56.750000 -13.350000 18.100000
v 56.750000 -13.350000 19.450000
v 56.750000 -8.625000 19.450000
v 56.750000 -3.900000 0.550000
v 56.750000 -3.900000 19.450000
v 56.750000 0.825000 0.550000
v 56.750000 0.825000 19.450000
v 56.750000 5.550000 0.550000
v 56.750000 5.550000 19.450000
v 56.750000 10.275000 0.550000
v 56.750000 10.275000 19.450000
v 56.750000 15.000000 0.550000
v 56.750000 15.000000 19.450000
v 56.750000 19.725000 0.550000
v 56.750000 19.725000 19.450000
v 56.750000 24.450000 0.550000
v 56.750000 24.450000 19.450000
v 56.750000 29.175000 0.550000
v 56.750000 29.175000 19.450000
v 56.750000 33.900000 0.550000
v 56.750000 33.900000 19.450000
v 56.750000 38.625000 0.550000
v 56.750000 38.625000 19.450000
v 56.750000 43.350000 0.550000
v 56.750000 43.350000 14.050000
v 56.750000 43.350000 12.700000
v 56.750000 43.350000 15.400000
v 56.750000 43.350000 16.750000
v 56.750000 43.350000 18.100000
v 56.750000 43.350000 19.450000
v 56.750000 48.075000 1.900000
v 56.750000 48.075000 0.550000
v 56.750000 48.075000 3.250000
v 56.750000 48.075000 4.600000
v 56.750000 48.075000 5.950000
v 56.750000 48.075000 7.300000
v 56.750000 48.075000 8.650000
v 56.750000 48.075000 10.000000
v 56.750000 48.075000 11.350000
v 56.750000 48.075000 12.700000
v 63.500000 -18.075000 0.550000
v 63.500000 -18.075000 1.900000
v 63.500000 -13.350000 0.550000
v 63.500000 -18.075000 3.250000
v 63.500000 -18.075000 4.600000
v 63.500000 -18.075000 5.950000
v 63.500000 -18.075000 7.300000
v 63.500000 -18.075000 8.650000
v 63.500000 -18.075000 10.000000
v 63.500000 -18.075000 11.350000
v 63.500000 -18.075000 12.700000
v 63.500000 -13.350000 12.700000
v 63.500000 -8.625000 0.550000
v 63.500000 -13.350000 14.050000
v 63.500000 -13.350000 15.400000
v 63.500000 -13.350000 16.750000
v 63.500000 -13.350000 18.100000
v 63.500000 -13.350000 19.450000
v 63.500000 -8.625000 19.450000
v 63.500000 -3.900000 0.550000
v 63.500000 -3.900000 19.450000
v 63.500000 0.825000 0.550000
v 63.500000 0.825000 19.450000
v 63.500000 5.550000 0.550000
v 63.500000 5.550000 19.450000
v 63.500000 10.275000 0.550000
v 63.500000 10.275000 19.450000
v 63.500000 15.000000 0.550000
v 63.500000 15.000000 19.450000
v 63.500000 19.725000 0.550000
v 63.500000 19.725000 19.450000
v 63.500000 24.450000 0.550000
v 63.500000 24.450000 19.450000
v 63.500000 29.175000 0.550000
v 63.500000 29.175000 19.450000
v 63.500000 33.900000 0.550000
v 63.500000 33.900000 19.450000
v 63.500000 38.625000 0.550000
v 63.500000 38.625000 19.450000
v 63.500000 43.350000 0.550000
v 63.500000 43.350000 14.050000
v 63.500000 43.350000 12.700000
v 63.500000 43.350000 15.400000
v 63.500000 43.350000 16.750000
v 63.500000 43.350000 18.100000
v 63.500000 43.350000 19.450000
v 63.500000 48.075000 1.900000
v 63.500000 48.075000 0.550000
v 63.500000 48.075000 3.250000
v 63.500000 48.075000 4.600000
v 63.500000 48.075000 5.950000
v 63.500000 48.075000 7.300000
v 63.500000 48.075000 8.650000
v 63.500000 48.075000 10.000000
v 63.500000 48.075000 11.350000
v 63.500000 48.075000 12.700000
v 70.250000 -18.075000 0.550000
v 70.250000 -18.075000 1.900000
v 70.250000 -13.350000 0.550000
v 70.250000 -18.075000 3.250000
v 70.250000 -18.075000 4.600000
v 70.250000 -18.075000 5.950000
v 70.250000 -18.075000 7.300000
v 70.250000 -18.075000 8.650000
v 70.250000 -18.075000 10.000000
v 70.250000 -18.075000 11.350000
v 70.250000 -18.075000 12.700000
v 70.250000 -13.350000 12.700000
v 70.250000 -8.625000 0.550000
v 70.250000 -13.350000 14.050000
v 70.250000 -13.350000 15.400000
v 70.250000 -13.350000 16.750000
v 70.250000 -13.350000 18.100000
v 70.250000 -13.350000 19.450000
v 70.250000 -8.625000 19.450000
v 70.250000 -3.900000 0.550000
v 70.250000 -3.900000 19.450000
v 70.250000 0.825000 0.550000
v 70.250000 0.825000 19.450000
v 70.250000 5.550000 0.550000
v 70.250000 5.550000 19.450000
v 70.250000 10.275000 0.550000
v 70.250000 10.275000 19.450000
v 70.250000 15.000000 0.550000
v 70.250000 15.000000 19.450000
v 70.250000 19.725000 0.550000
v 70.250000 19.725000 19.450000
v 70.250000 24.450000 0.550000
v 70.250000 24.450000 19.450000
v 70.250000 29.175000 0.550000
v 70.250000 29.175000 19.450000
v 70.250000 33.900000 0.550000
v 70.250000 33.900000 19.450000
v 70.250000 38.625000 0.550000
v 70.250000 38.625000 19.450000
v 70.250000 43.350000 0.550000
v 70.250000 43.350000 14.050000
v 70.250000 43.350000 12.700000
v 70.250000 43.350000 15.400000
v 70.250000 43.350000 16.750000
v 70.250000 43.350000 18.100000
v 70.250000 43.350000 19.450000
v 70.250000 48.075000 1.900000
v 70.250000 48.075000 0.550000
v 70.250000 48.075000 3.250000
v 70.250000 48.075000 4.600000
v 70.250000 48.075000 5.950000
v 70.250000 48.075000 7.300000
v 70.250000 48.075000 8.650000
v 70.250000 48.075000 10.000000
v 70.250000 48.075000 11.350000
v 70.250000 48.075000 12.700000
v 77.000000 -18.075000 0.550000
v 77.000000 -18.075000 1.900000
v 77.000000 -13.350000 0.550000
v 77.000000 -18.075000 3.250000
v 77.000000 -18.075000 4.600000
v 77.000000 -18.075000 5.950000
v 77.000000 -18.075000 7.300000
v 77.000000 -18.075000 8.650000
v 77.000000 -18.075000 10.000000
v 77.000000 -18.075000 11.350000
v 77.000000 -18.075000 12.700000
v 77.000000 -13.350000 12.700000
v 77.000000 -8.625000 0.550000
v 77.000000 -13.350000 14.050000
v 77.000000 -13.350000 15.400000
v 77.000000 -13.350000 16.750000
v 77.000000 -13.350000 18.100000
v 77.000000 -13.350000 19.450000
v 77.000000 -8.625000 19.450000
v 77.000000 -3.900000 0.550000
v 77.000000 -3.900000 19.450000
v 77.000000 0.825000 0.550000
v 77.000000 0.825000 19.450000
v 77.000000 5.550000 0.550000
v 77.000000 5.550000 19.450000
v 77.000000 10.275000 0.550000
v 77.000000 10.275000 19.450000
v 77.000000 15.000000 0.550000
v 77.000000 15.000000 19.450000
v 77.000000 19.725000 0.550000
v 77.000000 19.725000 19.450000
v 77.000000 24.450000 0.550000
v 77.000000 24.450000 19.450000
v 77.000000 29.175000 0.550000
v 77.000000 29.175000 19.450000
v 77.000000 33.900000 0.550000
v 77.000000 33.900000 19.450000
v 77.000000 38.625000 0.550000
v 77.000000 38.625000 19.450000
v 77.000000 43.350000 0.550000
v 77.000000 43.350000 14.050000
v 77.000000 43.350000 12.700000
v 77.000000 43.350000 15.400000
v 77.000000 43.350000 16.750000
v 77.000000 43.350000 18.100000
v 77.000000 43.350000 19.450000
v 77.000000 48.075000 1.900000
v 77.000000 48.075000 0.550000
v 77.000000 48.075000 3.250000
v 77.000000 48.075000 4.600000
v 77.000000 48.075000 5.950000
v 77.000000 48.075000 7.300000
v 77.000000 48.075000 8.650000
v 77.000000 48.075000 10.000000
v 77.000000 48.075000 11.350000
v 77.000000 48.075000 12.700000
v 83.750000 -18.075000 0.550000
v 83.750000 -18.075000 1.900000
v 83.750000 -13.350000 0.550000
v 83.750000 -18.075000 3.250000
v 83.750000 -18.075000 4.600000
v 83.750000 -18.075000 5.950000
v 83.750000 -18.075000 7.300000
v 83.750000 -18.075000 8.650000
v 83.750000 -18.075000 10.000000
v 83.750000 -18.075000 11.350000
v 83.750000 -18.075000 12.700000
v 83.750000 -13.350000 12.700000
v 83.750000 -8.625000 0.550000
v 83.750000 -13.350000 14.050000
v 83.750000 -13.350000 15.400000
v 83.750000 -13.350000 16.750000
v 83.750000 -13.350000 18.100000
v 83.750000 -13.350000 19.450000
v 83.750000 -8.625000 19.450000
v 83.750000 -3.900000 0.550000
v 83.750000 -3.900000 19.450000
v 83.750000 0.825000 0.550000
v 83.750000 0.825000 19.450000
v 83.750000 5.550000 0.550000
v 83.750000 5.550000 19.450000
v 83.750000 10.275000 0.550000
v 83.750000 10.275000 19.450000
v 83.750000 15.000000 0.550000
v 83.750000 15.000000 19.450000
v 83.750000 19.725000 0.550000
v 83.750000 19.725000 19.450000
v 83.750000 24.450000 0.550000
v 83.750000 24.450000 19.450000
v 83.750000 29.175000 0.550000
v 83.750000 29.175000 19.450000
v 83.750000 33.900000 0.550000
v 83.750000 33.900000 19.450000
v 83.750000 38.625000 0.550000
v 83.750000 38.625000 19.450000
v 83.750000 43.350000 0.550000
v 83.750000 43.350000 14.050000
v 83.750000 43.350000 12.700000
v 83.750000 43.350000 15.400000
v 83.750000 43.350000 16.750000
v 83.750000 43.350000 18.100000
v 83.750000 43.350000 19.450000
v 83.750000 48.075000 1.900000
v 83.750000 48.075000 0.550000
v 83.750000 48.075000 3.250000
v 83.750000 48.075000 4.600000
v 83.750000 48.075000 5.950000
v 83.750000 48.075000 7.300000
v 83.750000 48.075000 8.650000
v 83.750000 48.075000 10.000000
v 83.750000 48.075000 11.350000
v 83.750000 48.075000 12.700000
v 90.500000 -18.075000 0.550000
v 90.500000 -18.075000 1.900000
v 90.500000 -13.350000 0.550000
v 90.500000 -18.075000 3.250000
v 90.500000 -18.075000 4.600000
v 90.500000 -18.075000 5.950000
v 90.500000 -18.075000 7.300000
v 90.500000 -18.075000 8.650000
v 90.500000 -18.075000 10.000000
v 90.500000 -18.075000 11.350000
v 90.500000 -18.075000 12.700000
v 90.500000 -13.350000 12.700000
v 90.500000 -8.625000 0.550000
v 90.500000 -13.350000 14.050000
v 90.500000 -13.350000 15.400000
v 90.500000 -13.350000 16.750000
v 90.500000 -13.350000 18.100000
v 90.500000 -13.350000 19.450000
v 90.500000 -8.625000 19.450000
v 90.500000 -8.625000 18.100000
v 90.500000 -3.900000 0.550000
v 90.500000 -3.900000 19.450000
v 90.500000 -3.900000 18.100000
v 90.500000 0.825000 0.550000
v 90.500000 0.825000 19.450000
v 90.500000 0.825000 18.100000
v 90.500000 5.550000 0.550000
v 90.500000 5.550000 19.450000
v 90.500000 5.550000 18.100000
v 90.500000 10.275000 0.550000
v 90.500000 10.275000 19.450000
v 90.500000 10.275000 18.100000
v 90.500000 15.000000 0.550000
v 90.500000 15.000000 19.450000
v 90.500000 15.000000 18.100000
v 90.500000 19.725000 0.550000
v 90.500000 19.725000 19.450000
v 90.500000 19.725000 18.100000
v 90.500000 24.450000 0.550000
v 90.500000 24.450000 19.450000
v 90.500000 24.450000 18.100000
v 90.500000 29.175000 0.550000
v 90.500000 29.175000 19.450000
v 90.500000 29.175000 18.100000
v 90.500000 33.900000 0.550000
v 90.500000 33.900000 19.450000
v 90.500000 33.900000 18.100000
v 90.500000 38.625000 0.550000
v 90.500000 38.625000 19.450000
v 90.500000 38.625000 18.100000
v 90.500000 43.350000 0.550000
v 90.500000 43.350000 14.050000
v 90.500000 43.350000 12.700000
v 90.500000 43.350000 15.400000
v 90.500000 43.350000 16.750000
v 90.500000 43.350000 18.100000
v 90.500000 43.350000 19.450000
v 90.500000 48.075000 1.900000
v 90.500000 48.075000 0.550000
v 90.500000 48.075000 3.250000
v 90.500000 48.075000 4.600000
v 90.500000 48.075000 5.950000
v 90.500000 48.075000 7.300000
v 90.500000 48.075000 8.650000
v 90.500000 48.075000 10.000000
v 90.500000 48.075000 11.350000
v 90.500000 48.075000 12.700000
v 97.250000 -18.075000 0.550000
v 97.250000 -18.075000 1.900000
v 97.250000 -13.350000 1.900000
v 97.250000 -13.350000 0.550000
v 97.250000 -18.075000 3.250000
v 97.250000 -13.350000 3.250000
v 97.250000 -18.075000 4.600000
v 97.250000 -13.350000 4.600000
v 97.250000 -18.075000 5.950000
v 97.250000 -13.350000 5.950000
v 97.250000 -18.075000 7.300000
v 97.250000 -13.350000 7.300000
v 97.250000 -18.075000 8.650000
v 97.250000 -13.350000 8.650000
v 97.250000 -18.075000 10.000000
v 97.250000 -13.350000 10.000000
v 97.250000 -18.075000 11.350000
v 97.250000 -13.350000 11.350000
v 97.250000 -18.075000 12.700000
v 97.250000 -13.350000 12.700000
v 97.250000 -8.625000 1.900000
v 97.250000 -8.625000 0.550000
v 97.250000 -8.625000 3.250000
v 97.250000 -8.625000 4.600000
v 97.250000 -8.625000 5.950000
v 97.250000 -8.625000 7.300000
v 97.250000 -8.625000 8.650000
v 97.250000 -8.625000 10.000000
v 97.250000 -8.625000 11.350000
v 97.250000 -8.625000 12.700000
v 97.250000 -13.350000 14.050000
v 97.250000 -8.625000 14.050000
v 97.250000 -13.350000 15.400000
v 97.250000 -8.625000 15.400000
v 97.250000 -13.350000 16.750000
v 97.250000 -8.625000 16.750000
v 97.250000 -13.350000 18.100000
v 97.250000 -8.625000 18.100000
v 97.250000 -3.900000 1.900000
v 97.250000 -3.900000 0.550000
v 97.250000 -3.900000 3.250000
v 97.250000 -3.900000 4.600000
v 97.250000 -3.900000 5.950000
v 97.250000 -3.900000 7.300000
v 97.250000 -3.900000 8.650000
v 97.250000 -3.900000 10.000000
v 97.250000 -3.900000 11.350000
v 97.250000 -3.900000 12.700000
v 97.250000 -3.900000 14.050000
v 97.250000 -3.900000 15.400000
v 97.250000 -3.900000 16.750000
v 97.250000 -3.900000 18.100000
v 97.250000 0.825000 1.900000
v 97.250000 0.825000 0.550000
v 97.250000 0.825000 3.250000
v 97.250000 0.825000 4.600000
v 97.250000 0.825000 5.950000
v 97.250000 0.825000 7.300000
v 97.250000 0.825000 8.650000
v 97.250000 0.825000 10.000000
v 97.250000 0.825000 11.350000
v 97.250000 0.825000 12.700000
v 97.250000 0.825000 14.050000
v 97.250000 0.825000 15.400000
v 97.250000 0.825000 16.750000
v 97.250000 0.825000 18.100000
v 97.250000 5.550000 1.900000
v 97.250000 5.550000 0.550000
v 97.250000 5.550000 3.250000
v 97.250000 5.550000 4.600000
v 97.250000 5.550000 5.950000
v 97.250000 5.550000 7.300000
v 97.250000 5.550000 8.650000
v 97.250000 5.550000 10.000000
v 97.250000 5.550000 11.350000
v 97.250000 5.550000 12.700000
v 97.250000 5.550000 14.050000
v 97.250000 5.550000 15.400000
v 97.250000 5.550000 16.750000
v 97.250000 5.550000 18.100000
v 97.250000 10.275000 1.900000
v 97.250000 10.275000 0.550000
v 97.250000 10.275000 3.250000
v 97.250000 10.275000 4.600000
v 97.250000 10.275000 5.950000
v 97.250000 10.275000 7.300000
v 97.250000 10.275000 8.650000
v 97.250000 10.275000 10.000000
v 97.250000 10.275000 11.350000
v 97.250000 10.275000 12.700000
v 97.250000 10.275000 14.050000
v 97.250000 10.275000 15.400000
v 97.250000 10.275000 16.750000
v 97.250000 10.275000 18.100000
v 97.250000 15.000000 1.900000
v 97.250000 15.000000 0.550000
v 97.250000 15.000000 3.250000
v 97.250000 15.000000 4.600000
v 97.250000 15.000000 5.950000
v 97.250000 15.000000 7.300000
v 97.250000 15.000000 8.650000
v 97.250000 15.000000 10.000000
v 97.250000 15.000000 11.350000
v 97.250000 15.000000 12.700000
v 97.250000 15.000000 14.050000
v 97.250000 15.000000 15.400000
v 97.250000 15.000000 16.750000
v 97.250000 15.000000 18.100000
v 97.250000 19.725000 1.900000
v 97.250000 19.725000 0.550000
v 97.250000 19.725000 3.250000
v 97.250000 19.725000 4.600000
v 97.250000 19.725000 5.950000
v 97.250000 19.725000 7.300000
v 97.250000 19.725000 8.650000
v 97.250000 19.725000 10.000000
v 97.250000 19.725000 11.350000
v 97.250000 19.725000 12.700000
v 97.250000 19.725000 14.050000
v 97.250000 19.725000 15.400000
v 97.250000 19.725000 16.750000
v 97.250000 19.725000 18.100000
v 97.250000 24.450000 1.900000
v 97.250000 24.450000 0.550000
v 97.250000 24.450000 3.250000
v 97.250000 24.450000 4.600000
v 97.250000 24.450000 5.950000
v 97.250000 24.450000 7.300000
v 97.250000 24.450000 8.650000
v 97.250000 24.450000 10.000000
v 97.250000 24.450000 11.350000
v 97.250000 24.450000 12.700000
v 97.250000 24.450000 14.050000
v 97.250000 24.450000 15.400000
v 97.250000 24.450000 16.750000
v 97.250000 24.450000 18.100000
v 97.250000 29.175000 1.900000
v 97.250000 29.175000 0.550000
v 97.250000 29.175000 3.250000
v 97.250000 29.175000 4.600000
v 97.250000 29.175000 5.950000
v 97.250000 29.175000 7.300000
v 97.250000 29.175000 8.650000
v 97.250000 29.175000 10.000000
v 97.250000 29.175000 11.350000
v 97.250000 29.175000 12.700000
v 97.250000 29.175000 14.050000
v 97.250000 29.175000 15.400000
v 97.250000 29.175000 16.750000
v 97.250000 29.175000 18.100000
v 97.250000 33.900000 1.900000
v 97.250000 33.900000 0.550000
v 97.250000 33.900000 3.250000
v 97.250000 33.900000 4.600000
v 97.250000 33.900000 5.950000
v 97.250000 33.900000 7.300000
v 97.250000 33.900000 8.650000
v 97.250000 33.900000 10.000000
v 97.250000 33.900000 11.350000
v 97.250000 33.900000 12.700000
v 97.250000 33.900000 14.050000
v 97.250000 33.900000 15.400000
v 97.250000 33.900000 16.750000
v 97.250000 33.900000 18.100000
v 97.250000 38.625000 1.900000
v 97.250000 38.625000 0.550000
v 97.250000 38.625000 3.250000
v 97.250000 38.625000 4.600000
v 97.250000 38.625000 5.950000
v 97.250000 38.625000 7.300000
v 97.250000 38.625000 8.650000
v 97.250000 38.625000 10.000000
v 97.250000 38.625000 11.350000
v 97.250000 38.625000 12.700000
v 97.250000 38.625000 14.050000
v 97.250000 38.625000 15.400000
v 97.250000 38.625000 16.750000
v 97.250000 38.625000 18.100000
v 97.250000 43.350000 1.900000
v 97.250000 43.350000 0.550000
v 97.250000 43.350000 3.250000
v 97.250000 43.350000 4.600000
v 97.250000 43.350000 5.950000
v 97.250000 43.350000 7.300000
v 97.250000 43.350000 8.650000
v 97.250000 43.350000 10.000000
v 97.250000 43.350000 11.350000
v 97.250000 43.350000 12.700000
v 97.250000 43.350000 14.050000
v 97.250000 43.350000 15.400000
v 97.250000 43.350000 16.750000
v 97.250000 43.350000 18.100000
v 97.250000 48.075000 1.900000
v 97.250000 48.075000 0.550000
v 97.250000 48.075000 3.250000
v 97.250000 48.075000 4.600000
v 97.250000 48.075000 5.950000
v 97.250000 48.075000 7.300000
v 97.250000 48.075000 8.650000
v 97.250000 48.075000 10.000000
v 97.250000 48.075000 11.350000
v 97.250000 48.075000 12.700000
f 1 2 3
f 1 3 4
f 1 5 6
f 1 6 4
f 1 2 7
f 1 7 5
f 4 3 8
f 4 8 9
f 4 6 10
f 4 10 9
f 9 8 11
f 9 11 12
f 9 10 13
f 9 13 12
f 12 11 14
f 12 14 15
f 12 13 16
f 12 16 15
f 15 14 17
f 15 17 18
f 15 16 19
f 15 19 18
f 18 17 20
f 18 20 21
f 18 19 22
f 18 22 21
f 21 20 23
f 21 23 24
f 21 22 25
f 21 25 24
f 24 23 26
f 24 26 27
f 24 25 28
f 24 28 27
f 27 26 29
f 27 29 30
f 27 28 31
f 27 31 30
f 30 31 32
f 30 32 29
f 2 33 34
f 2 34 3
f 2 33 35
f 2 35 7
f 3 34 36
f 3 36 8
f 8 36 37
f 8 37 11
f 11 37 38
f 11 38 14
f 14 38 39
f 14 39 17
f 17 39 40
f 17 40 20
f 20 40 41
f 20 41 23
f 23 41 42
f 23 42 26
f 26 42 43
f 26 43 29
f 29 43 44
f 29 44 45
f 29 32 46
f 29 46 45
f 45 44 47
f 45 47 48
f 45 46 49
f 45 49 48
f 48 47 50
f 48 50 51
f 48 49 52
f 48 52 51
f 51 50 53
f 51 53 54
f 51 52 55
f 51 55 54
f 54 55 56
f 54 56 53
f 33 57 58
f 33 58 34
f 33 57 59
f 33 59 35
f 34 58 60
f 34 60 36
f 36 60 61
f 36 61 37
f 37 61 62
f 37 62 38
f 38 62 63
f 38 63 39
f 39 63 64
f 39 64 40
f 40 64 65
f 40 65 41
f 41 65 66
f 41 66 42
f 42 66 67
f 42 67 43
f 43 67 68
f 43 68 44
f 44 68 69
f 44 69 47
f 47 69 70
f 47 70 50
f 50 70 71
f 50 71 53
f 53 56 72
f 53 72 71
f 57 73 74
f 57 74 58
f 57 73 75
f 57 75 59
f 58 74 76
f 58 76 60
f 60 76 77
f 60 77 61
f 61 77 78
f 61 78 62
f 62 78 79
f 62 79 63
f 63 79 80
f 63 80 64
f 64 80 81
f 64 81 65
f 65 81 82
f 65 82 66
f 66 82 83
f 66 83 67
f 67 83 84
f 67 84 68
f 68 84 85
f 68 85 69
f 69 85 86
f 69 86 70
f 70 86 87
f 70 87 71
f 71 72 88
f 71 88 87
f 73 89 90
f 73 90 74
f 73 89 91
f 73 91 75
f 74 90 92
f 74 92 76
f 76 92 93
f 76 93 77
f 77 93 94
f 77 94 78
f 78 94 95
f 78 95 79
f 79 95 96
f 79 96 80
f 80 96 97
f 80 97 81
f 81 97 98
f 81 98 82
f 82 98 99
f 82 99 83
f 83 99 100
f 83 100 84
f 84 100 101
f 84 101 85
f 85 101 102
f 85 102 86
f 86 102 103
f 86 103 87
f 87 88 104
f 87 104 103
f 89 105 106
f 89 106 90
f 89 105 107
f 89 107 91
f 90 106 108
f 90 108 92
f 92 108 109
f 92 109 93
f 93 109 110
f 93 110 94
f 94 110 111
f 94 111 95
f 95 111 112
f 95 112 96
f 96 112 113
f 96 113 97
f 97 113 114
f 97 114 98
f 98 114 115
f 98 115 99
f 99 115 116
f 99 116 100
f 100 116 117
f 100 117 101
f 101 117 118
f 101 118 102
f 102 118 119
f 102 119 103
f 103 104 120
f 103 120 119
f 105 121 122
f 105 122 106
f 105 121 123
f 105 123 107
f 106 122 124
f 106 124 108
f 108 124 125
f 108 125 109
f 109 125 126
f 109 126 110
f 110 126 127
f 110 127 111
f 111 127 128
f 111 128 112
f 112 128 129
f 112 129 113
f 113 129 130
f 113 130 114
f 114 130 131
f 114 131 115
f 115 131 132
f 115 132 116
f 116 132 133
f 116 133 117
f 117 133 134
f 117 134 118
f 118 134 135
f 118 135 119
f 119 120 136
f 119 136 135
f 121 137 138
f 121 138 122
f 121 137 139
f 121 139 123
f 122 138 140
f 122 140 124
f 124 140 141
f 124 141 125
f 125 141 142
f 125 142 126
f 126 142 143
f 126 143 127
f 127 143 144
f 127 144 128
f 128 144 145
f 128 145 129
f 129 145 146
f 129 146 130
f 130 146 147
f 130 147 131
f 131 147 148
f 131 148 132
f 132 148 149
f 132 149 133
f 133 149 150
f 133 150 134
f 134 150 151
f 134 151 135
f 135 136 152
f 135 152 151
f 137 153 154
f 137 154 138
f 137 153 155
f 137 155 139
f 138 154 156
f 138 156 140
f 140 156 157
f 140 157 141
f 141 157 158
f 141 158 142
f 142 158 159
f 142 159 143
f 143 159 160
f 143 160 144
f 144 160 161
f 144 161 145
f 145 161 162
f 145 162 146
f 146 162 163
f 146 163 147
f 147 163 164
f 147 164 148
f 148 164 165
f 148 165 149
f 149 165 166
f 149 166 150
f 150 166 167
f 150 167 151
f 151 152 168
f 151 168 167
f 153 169 170
f 153 170 154
f 153 169 171
f 153 171 155
f 154 170 172
f 154 172 156
f 156 172 173
f 156 173 157
f 157 173 174
f 157 174 158
f 158 174 175
f 158 175 159
f 159 175 176
f 159 176 160
f 160 176 177
f 160 177 161
f 161 177 178
f 161 178 162
f 162 178 179
f 162 179 163
f 163 179 180
f 163 180 164
f 164 180 181
f 164 181 165
f 165 181 182
f 165 182 166
f 166 182 183
f 166 183 167
f 167 168 184
f 167 184 183
f 169 185 186
f 169 186 170
f 169 185 187
f 169 187 171
f 170 186 188
f 170 188 172
f 172 188 189
f 172 189 173
f 173 189 190
f 173 190 174
f 174 190 191
f 174 191 175
f 175 191 192
f 175 192 176
f 176 192 193
f 176 193 177
f 177 193 194
f 177 194 178
f 178 194 195
f 178 195 179
f 179 195 196
f 179 196 180
f 180 196 197
f 180 197 181
f 181 197 198
f 181 198 182
f 182 198 199
f 182 199 183
f 183 184 200
f 183 200 199
f 185 201 202
f 185 202 186
f 185 201 203
f 185 203 187
f 186 202 204
f 186 204 188
f 188 204 205
f 188 205 189
f 189 205 206
f 189 206 190
f 190 206 207
f 190 207 191
f 191 207 208
f 191 208 192
f 192 208 209
f 192 209 193
f 193 209 210
f 193 210 194
f 194 210 211
f 194 211 195
f 195 211 212
f 195 212 196
f 196 212 213
f 196 213 197
f 197 213 214
f 197 214 198
f 198 214 215
f 198 215 199
f 199 200 216
f 199 216 215
f 201 217 218
f 201 218 202
f 201 217 219
f 201 219 203
f 202 218 220
f 202 220 204
f 204 220 221
f 204 221 205
f 205 221 222
f 205 222 206
f 206 222 223
f 206 223 207
f 207 223 224
f 207 224 208
f 208 224 225
f 208 225 209
f 209 225 226
f 209 226 210
f 210 226 227
f 210 227 211
f 211 227 228
f 211 228 212
f 227 228 229
f 227 229 230
f 212 228 231
f 212 231 213
f 228 231 232
f 228 232 229
f 213 231 233
f 213 233 214
f 231 233 234
f 231 234 232
f 214 233 235
f 214 235 215
f 233 235 236
f 233 236 234
f 215 216 236
f 215 236 235
f 217 237 238
f 217 238 218
f 237 238 239
f 237 239 240
f 217 237 240
f 217 240 219
f 218 238 241
f 218 241 220
f 238 241 242
f 238 242 239
f 220 241 243
f 220 243 221
f 241 243 244
f 241 244 242
f 221 243 245
f 221 245 222
f 243 245 246
f 243 246 244
f 222 245 247
f 222 247 223
f 245 247 248
f 245 248 246
f 223 247 249
f 223 249 224
f 247 249 250
f 247 250 248
f 224 249 251
f 224 251 225
f 249 251 252
f 249 252 250
f 225 251 253
f 225 253 226
f 251 253 254
f 251 254 252
f 226 253 255
f 226 255 227
f 253 255 256
f 253 256 254
f 227 230 256
f 227 256 255
f 5 257 258
f 5 258 6
f 5 7 259
f 5 259 257
f 6 258 260
f 6 260 10
f 10 260 261
f 10 261 13
f 13 261 262
f 13 262 16
f 16 262 263
f 16 263 19
f 19 263 264
f 19 264 22
f 22 264 265
f 22 265 25
f 25 265 266
f 25 266 28
f 28 266 267
f 28 267 31
f 31 267 268
f 31 268 32
f 7 35 269
f 7 269 259
f 32 268 270
f 32 270 46
f 46 270 271
f 46 271 49
f 49 271 272
f 49 272 52
f 52 272 273
f 52 273 55
f 55 56 274
f 55 274 275
f 55 273 276
f 55 276 275
f 275 276 277
f 275 277 274
f 35 59 278
f 35 278 269
f 56 72 279
f 56 279 274
f 274 277 280
f 274 280 279
f 59 75 281
f 59 281 278
f 72 88 282
f 72 282 279
f 279 280 283
f 279 283 282
f 75 91 284
f 75 284 281
f 88 104 285
f 88 285 282
f 282 283 286
f 282 286 285
f 91 107 287
f 91 287 284
f 104 120 288
f 104 288 285
f 285 286 289
f 285 289 288
f 107 123 290
f 107 290 287
f 120 136 291
f 120 291 288
f 288 289 292
f 288 292 291
f 123 139 293
f 123 293 290
f 136 152 294
f 136 294 291
f 291 292 295
f 291 295 294
f 139 155 296
f 139 296 293
f 152 168 297
f 152 297 294
f 294 295 298
f 294 298 297
f 155 171 299
f 155 299 296
f 168 184 300
f 168 300 297
f 297 298 301
f 297 301 300
f 171 187 302
f 171 302 299
f 184 200 303
f 184 303 300
f 300 301 304
f 300 304 303
f 187 203 305
f 187 305 302
f 200 216 306
f 200 306 303
f 303 304 307
f 303 307 306
f 203 219 308
f 203 308 305
f 230 229 309
f 230 309 310
f 229 232 311
f 229 311 309
f 232 234 312
f 232 312 311
f 234 236 313
f 234 313 312
f 216 236 314
f 216 314 306
f 236 314 315
f 236 315 313
f 306 307 315
f 306 315 314
f 240 239 316
f 240 316 317
f 219 240 317
f 219 317 308
f 239 242 318
f 239 318 316
f 242 244 319
f 242 319 318
f 244 246 320
f 244 320 319
f 246 248 321
f 246 321 320
f 248 250 322
f 248 322 321
f 250 252 323
f 250 323 322
f 252 254 324
f 252 324 323
f 254 256 325
f 254 325 324
f 230 310 325
f 230 325 256
f 257 326 327
f 257 327 258
f 257 259 328
f 257 328 326
f 258 327 329
f 258 329 260
f 260 329 330
f 260 330 261
f 261 330 331
f 261 331 262
f 262 331 332
f 262 332 263
f 263 332 333
f 263 333 264
f 264 333 334
f 264 334 265
f 265 334 335
f 265 335 266
f 266 335 336
f 266 336 267
f 267 336 337
f 267 337 268
f 259 269 338
f 259 338 328
f 268 337 339
f 268 339 270
f 270 339 340
f 270 340 271
f 271 340 341
f 271 341 272
f 272 341 342
f 272 342 273
f 273 342 343
f 273 343 276
f 276 343 344
f 276 344 277
f 269 278 345
f 269 345 338
f 277 344 346
f 277 346 280
f 278 281 347
f 278 347 345
f 280 346 348
f 280 348 283
f 281 284 349
f 281 349 347
f 283 348 350
f 283 350 286
f 284 287 351
f 284 351 349
f 286 350 352
f 286 352 289
f 287 290 353
f 287 353 351
f 289 352 354
f 289 354 292
f 290 293 355
f 290 355 353
f 292 354 356
f 292 356 295
f 293 296 357
f 293 357 355
f 295 356 358
f 295 358 298
f 296 299 359
f 296 359 357
f 298 358 360
f 298 360 301
f 299 302 361
f 299 361 359
f 301 360 362
f 301 362 304
f 302 305 363
f 302 363 361
f 304 362 364
f 304 364 307
f 305 308 365
f 305 365 363
f 310 309 366
f 310 366 367
f 309 311 368
f 309 368 366
f 311 312 369
f 311 369 368
f 312 313 370
f 312 370 369
f 313 315 371
f 313 371 370
f 307 364 371
f 307 371 315
f 317 316 372
f 317 372 373
f 308 317 373
f 308 373 365
f 316 318 374
f 316 374 372
f 318 319 375
f 318 375 374
f 319 320 376
f 319 376 375
f 320 321 377
f 320 377 376
f 321 322 378
f 321 378 377
f 322 323 379
f 322 379 378
f 323 324 380
f 323 380 379
f 324 325 381
f 324 381 380
f 310 367 381
f 310 381 325
f 326 382 383
f 326 383 327
f 326 328 384
f 326 384 382
f 327 383 385
f 327 385 329
f 329 385 386
f 329 386 330
f 330 386 387
f 330 387 331
f 331 387 388
f 331 388 332
f 332 388 389
f 332 389 333
f 333 389 390
f 333 390 334
f 334 390 391
f 334 391 335
f 335 391 392
f 335 392 336
f 336 392 393
f 336 393 337
f 328 338 394
f 328 394 384
f 337 393 395
f 337 395 339
f 339 395 396
f 339 396 340
f 340 396 397
f 340 397 341
f 341 397 398
f 341 398 342
f 342 398 399
f 342 399 343
f 343 399 400
f 343 400 344
f 338 345 401
f 338 401 394
f 344 400 402
f 344 402 346
f 345 347 403
f 345 403 401
f 346 402 404
f 346 404 348
f 347 349 405
f 347 405 403
f 348 404 406
f 348 406 350
f 349 351 407
f 349 407 405
f 350 406 408
f 350 408 352
f 351 353 409
f 351 409 407
f 352 408 410
f 352 410 354
f 353 355 411
f 353 411 409
f 354 410 412
f 354 412 356
f 355 357 413
f 355 413 411
f 356 412 414
f 356 414 358
f 357 359 415
f 357 415 413
f 358 414 416
f 358 416 360
f 359 361 417
f 359 417 415
f 360 416 418
f 360 418 362
f 361 363 419
f 361 419 417
f 362 418 420
f 362 420 364
f 363 365 421
f 363 421 419
f 367 366 422
f 367 422 423
f 366 368 424
f 366 424 422
f 368 369 425
f 368 425 424
f 369 370 426
f 369 426 425
f 370 371 427
f 370 427 426
f 364 420 427
f 364 427 371
f 373 372 428
f 373 428 429
f 365 373 429
f 365 429 421
f 372 374 430
f 372 430 428
f 374 375 431
f 374 431 430
f 375 376 432
f 375 432 431
f 376 377 433
f 376 433 432
f 377 378 434
f 377 434 433
f 378 379 435
f 378 435 434
f 379 380 436
f 379 436 435
f 380 381 437
f 380 437 436
f 367 423 437
f 367 437 381
f 382 438 439
f 382 439 383
f 382 384 440
f 382 440 438
f 383 439 441
f 383 441 385
f 385 441 442
f 385 442 386
f 386 442 443
f 386 443 387
f 387 443 444
f 387 444 388
f 388 444 445
f 388 445 389
f 389 445 446
f 389 446 390
f 390 446 447
f 390 447 391
f 391 447 448
f 391 448 392
f 392 448 449
f 392 449 393
f 384 394 450
f 384 450 440
f 393 449 451
f 393 451 395
f 395 451 452
f 395 452 396
f 396 452 453
f 396 453 397
f 397 453 454
f 397 454 398
f 398 454 455
f 398 455 399
f 399 455 456
f 399 456 400
f 394 401 457
f 394 457 450
f 400 456 458
f 400 458 402
f 401 403 459
f 401 459 457
f 402 458 460
f 402 460 404
f 403 405 461
f 403 461 459
f 404 460 462
f 404 462 406
f 405 407 463
f 405 463 461
f 406 462 464
f 406 464 408
f 407 409 465
f 407 465 463
f 408 464 466
f 408 466 410
f 409 411 467
f 409 467 465
f 410 466 468
f 410 468 412
f 411 413 469
f 411 469 467
f 412 468 470
f 412 470 414
f 413 415 471
f 413 471 469
f 414 470 472
f 414 472 416
f 415 417 473
f 415 473 471
f 416 472 474
f 416 474 418
f 417 419 475
f 417 475 473
f 418 474 476
f 418 476 420
f 419 421 477
f 419 477 475
f 423 422 478
f 423 478 479
f 422 424 480
f 422 480 478
f 424 425 481
f 424 481 480
f 425 426 482
f 425 482 481
f 426 427 483
f 426 483 482
f 420 476 483
f 420 483 427
f 429 428 484
f 429 484 485
f 421 429 485
f 421 485 477
f 428 430 486
f 428 486 484
f 430 431 487
f 430 487 486
f 431 432 488
f 431 488 487
f 432 433 489
f 432 489 488
f 433 434 490
f 433 490 489
f 434 435 491
f 434 491 490
f 435 436 492
f 435 492 491
f 436 437 493
f 436 493 492
f 423 479 493
f 423 493 437
f 438 494 495
f 438 495 439
f 438 440 496
f 438 496 494
f 439 495 497
f 439 497 441
f 441 497 498
f 441 498 442
f 442 498 499
f 442 499 443
f 443 499 500
f 443 500 444
f 444 500 501
f 444 501 445
f 445 501 502
f 445 502 446
f 446 502 503
f 446 503 447
f 447 503 504
f 447 504 448
f 448 504 505
f 448 505 449
f 440 450 506
f 440 506 496
f 449 505 507
f 449 507 451
f 451 507 508
f 451 508 452
f 452 508 509
f 452 509 453
f 453 509 510
f 453 510 454
f 454 510 511
f 454 511 455
f 455 511 512
f 455 512 456
f 450 457 513
f 450 513 506
f 456 512 514
f 456 514 458
f 457 459 515
f 457 515 513
f 458 514 516
f 458 516 460
f 459 461 517
f 459 517 515
f 460 516 518
f 460 518 462
f 461 463 519
f 461 519 517
f 462 518 520
f 462 520 464
f 463 465 521
f 463 521 519
f 464 520 522
f 464 522 466
f 465 467 523
f 465 523 521
f 466 522 524
f 466 524 468
f 467 469 525
f 467 525 523
f 468 524 526
f 468 526 470
f 469 471 527
f 469 527 525
f 470 526 528
f 470 528 472
f 471 473 529
f 471 529 527
f 472 528 530
f 472 530 474
f 473 475 531
f 473 531 529
f 474 530 532
f 474 532 476
f 475 477 533
f 475 533 531
f 479 478 534
f 479 534 535
f 478 480 536
f 478 536 534
f 480 481 537
f 480 537 536
f 481 482 538
f 481 538 537
f 482 483 539
f 482 539 538
f 476 532 539
f 476 539 483
f 485 484 540
f 485 540 541
f 477 485 541
f 477 541 533
f 484 486 542
f 484 542 540
f 486 487 543
f 486 543 542
f 487 488 544
f 487 544 543
f 488 489 545
f 488 545 544
f 489 490 546
f 489 546 545
f 490 491 547
f 490 547 546
f 491 492 548
f 491 548 547
f 492 493 549
f 492 549 548
f 479 535 549
f 479 549 493
f 494 550 551
f 494 551 495
f 494 496 552
f 494 552 550
f 495 551 553
f 495 553 497
f 497 553 554
f 497 554 498
f 498 554 555
f 498 555 499
f 499 555 556
f 499 556 500
f 500 556 557
f 500 557 501
f 501 557 558
f 501 558 502
f 502 558 559
f 502 559 503
f 503 559 560
f 503 560 504
f 504 560 561
f 504 561 505
f 496 506 562
f 496 562 552
f 505 561 563
f 505 563 507
f 507 563 564
f 507 564 508
f 508 564 565
f 508 565 509
f 509 565 566
f 509 566 510
f 510 566 567
f 510 567 511
f 511 567 568
f 511 568 512
f 506 513 569
f 506 569 562
f 512 568 570
f 512 570 514
f 513 515 571
f 513 571 569
f 514 570 572
f 514 572 516
f 515 517 573
f 515 573 571
f 516 572 574
f 516 574 518
f 517 519 575
f 517 575 573
f 518 574 576
f 518 576 520
f 519 521 577
f 519 577 575
f 520 576 578
f 520 578 522
f 521 523 579
f 521 579 577
f 522 578 580
f 522 580 524
f 523 525 581
f 523 581 579
f 524 580 582
f 524 582 526
f 525 527 583
f 525 583 581
f 526 582 584
f 526 584 528
f 527 529 585
f 527 585 583
f 528 584 586
f 528 586 530
f 529 531 587
f 529 587 585
f 530 586 588
f 530 588 532
f 531 533 589
f 531 589 587
f 535 534 590
f 535 590 591
f 534 536 592
f 534 592 590
f 536 537 593
f 536 593 592
f 537 538 594
f 537 594 593
f 538 539 595
f 538 595 594
f 532 588 595
f 532 595 539
f 541 540 596
f 541 596 597
f 533 541 597
f 533 597 589
f 540 542 598
f 540 598 596
f 542 543 599
f 542 599 598
f 543 544 600
f 543 600 599
f 544 545 601
f 544 601 600
f 545 546 602
f 545 602 601
f 546 547 603
f 546 603 602
f 547 548 604
f 547 604 603
f 548 549 605
f 548 605 604
f 535 591 605
f 535 605 549
f 550 606 607
f 550 607 551
f 550 552 608
f 550 608 606
f 551 607 609
f 551 609 553
f 553 609 610
f 553 610 554
f 554 610 611
f 554 611 555
f 555 611 612
f 555 612 556
f 556 612 613
f 556 613 557
f 557 613 614
f 557 614 558
f 558 614 615
f 558 615 559
f 559 615 616
f 559 616 560
f 560 616 617
f 560 617 561
f 552 562 618
f 552 618 608
f 561 617 619
f 561 619 563
f 563 619 620
f 563 620 564
f 564 620 621
f 564 621 565
f 565 621 622
f 565 622 566
f 566 622 623
f 566 623 567
f 567 623 624
f 567 624 568
f 562 569 625
f 562 625 618
f 568 624 626
f 568 626 570
f 569 571 627
f 569 627 625
f 570 626 628
f 570 628 572
f 571 573 629
f 571 629 627
f 572 628 630
f 572 630 574
f 573 575 631
f 573 631 629
f 574 630 632
f 574 632 576
f 575 577 633
f 575 633 631
f 576 632 634
f 576 634 578
f 577 579 635
f 577 635 633
f 578 634 636
f 578 636 580
f 579 581 637
f 579 637 635
f 580 636 638
f 580 638 582
f 581 583 639
f 581 639 637
f 582 638 640
f 582 640 584
f 583 585 641
f 583 641 639
f 584 640 642
f 584 642 586
f 585 587 643
f 585 643 641
f 586 642 644
f 586 644 588
f 587 589 645
f 587 645 643
f 591 590 646
f 591 646 647
f 590 592 648
f 590 648 646
f 592 593 649
f 592 649 648
f 593 594 650
f 593 650 649
f 594 595 651
f 594 651 650
f 588 644 651
f 588 651 595
f 597 596 652
f 597 652 653
f 589 597 653
f 589 653 645
f 596 598 654
f 596 654 652
f 598 599 655
f 598 655 654
f 599 600 656
f 599 656 655
f 600 601 657
f 600 657 656
f 601 602 658
f 601 658 657
f 602 603 659
f 602 659 658
f 603 604 660
f 603 660 659
f 604 605 661
f 604 661 660
f 591 647 661
f 591 661 605
f 606 662 663
f 606 663 607
f 606 608 664
f 606 664 662
f 607 663 665
f 607 665 609
f 609 665 666
f 609 666 610
f 610 666 667
f 610 667 611
f 611 667 668
f 611 668 612
f 612 668 669
f 612 669 613
f 613 669 670
f 613 670 614
f 614 670 671
f 614 671 615
f 615 671 672
f 615 672 616
f 616 672 673
f 616 673 617
f 608 618 674
f 608 674 664
f 617 673 675
f 617 675 619
f 619 675 676
f 619 676 620
f 620 676 677
f 620 677 621
f 621 677 678
f 621 678 622
f 622 678 679
f 622 679 623
f 623 679 680
f 623 680 624
f 618 625 681
f 618 681 674
f 624 680 682
f 624 682 626
f 625 627 683
f 625 683 681
f 626 682 684
f 626 684 628
f 627 629 685
f 627 685 683
f 628 684 686
f 628 686 630
f 629 631 687
f 629 687 685
f 630 686 688
f 630 688 632
f 631 633 689
f 631 689 687
f 632 688 690
f 632 690 634
f 633 635 691
f 633 691 689
f 634 690 692
f 634 692 636
f 635 637 693
f 635 693 691
f 636 692 694
f 636 694 638
f 637 639 695
f 637 695 693
f 638 694 696
f 638 696 640
f 639 641 697
f 639 697 695
f 640 696 698
f 640 698 642
f 641 643 699
f 641 699 697
f 642 698 700
f 642 700 644
f 643 645 701
f 643 701 699
f 647 646 702
f 647 702 703
f 646 648 704
f 646 704 702
f 648 649 705
f 648 705 704
f 649 650 706
f 649 706 705
f 650 651 707
f 650 707 706
f 644 700 707
f 644 707 651
f 653 652 708
f 653 708 709
f 645 653 709
f 645 709 701
f 652 654 710
f 652 710 708
f 654 655 711
f 654 711 710
f 655 656 712
f 655 712 711
f 656 657 713
f 656 713 712
f 657 658 714
f 657 714 713
f 658 659 715
f 658 715 714
f 659 660 716
f 659 716 715
f 660 661 717
f 660 717 716
f 647 703 717
f 647 717 661
f 662 718 719
f 662 719 663
f 662 664 720
f 662 720 718
f 663 719 721
f 663 721 665
f 665 721 722
f 665 722 666
f 666 722 723
f 666 723 667
f 667 723 724
f 667 724 668
f 668 724 725
f 668 725 669
f 669 725 726
f 669 726 670
f 670 726 727
f 670 727 671
f 671 727 728
f 671 728 672
f 672 728 729
f 672 729 673
f 664 674 730
f 664 730 720
f 673 729 731
f 673 731 675
f 675 731 732
f 675 732 676
f 676 732 733
f 676 733 677
f 677 733 734
f 677 734 678
f 678 734 735
f 678 735 679
f 679 735 736
f 679 736 680
f 674 681 737
f 674 737 730
f 680 736 738
f 680 738 682
f 681 683 739
f 681 739 737
f 682 738 740
f 682 740 684
f 683 685 741
f 683 741 739
f 684 740 742
f 684 742 686
f 685 687 743
f 685 743 741
f 686 742 744
f 686 744 688
f 687 689 745
f 687 745 743
f 688 744 746
f 688 746 690
f 689 691 747
f 689 747 745
f 690 746 748
f 690 748 692
f 691 693 749
f 691 749 747
f 692 748 750
f 692 750 694
f 693 695 751
f 693 751 749
f 694 750 752
f 694 752 696
f 695 697 753
f 695 753 751
f 696 752 754
f 696 754 698
f 697 699 755
f 697 755 753
f 698 754 756
f 698 756 700
f 699 701 757
f 699 757 755
f 703 702 758
f 703 758 759
f 702 704 760
f 702 760 758
f 704 705 761
f 704 761 760
f 705 706 762
f 705 762 761
f 706 707 763
f 706 763 762
f 700 756 763
f 700 763 707
f 709 708 764
f 709 764 765
f 701 709 765
f 701 765 757
f 708 710 766
f 708 766 764
f 710 711 767
f 710 767 766
f 711 712 768
f 711 768 767
f 712 713 769
f 712 769 768
f 713 714 770
f 713 770 769
f 714 715 771
f 714 771 770
f 715 716 772
f 715 772 771
f 716 717 773
f 716 773 772
f 703 759 773
f 703 773 717
f 718 774 775
f 718 775 719
f 718 720 776
f 718 776 774
f 719 775 777
f 719 777 721
f 721 777 778
f 721 778 722
f 722 778 779
f 722 779 723
f 723 779 780
f 723 780 724
f 724 780 781
f 724 781 725
f 725 781 782
f 725 782 726
f 726 782 783
f 726 783 727
f 727 783 784
f 727 784 728
f 728 784 785
f 728 785 729
f 720 730 786
f 720 786 776
f 729 785 787
f 729 787 731
f 731 787 788
f 731 788 732
f 732 788 789
f 732 789 733
f 733 789 790
f 733 790 734
f 734 790 791
f 734 791 735
f 735 791 792
f 735 792 736
f 730 737 793
f 730 793 786
f 736 792 794
f 736 794 738
f 737 739 795
f 737 795 793
f 738 794 796
f 738 796 740
f 739 741 797
f 739 797 795
f 740 796 798
f 740 798 742
f 741 743 799
f 741 799 797
f 742 798 800
f 742 800 744
f 743 745 801
f 743 801 799
f 744 800 802
f 744 802 746
f 745 747 803
f 745 803 801
f 746 802 804
f 746 804 748
f 747 749 805
f 747 805 803
f 748 804 806
f 748 806 750
f 749 751 807
f 749 807 805
f 750 806 808
f 750 808 752
f 751 753 809
f 751 809 807
f 752 808 810
f 752 810 754
f 753 755 811
f 753 811 809
f 754 810 812
f 754 812 756
f 755 757 813
f 755 813 811
f 759 758 814
f 759 814 815
f 758 760 816
f 758 816 814
f 760 761 817
f 760 817 816
f 761 762 818
f 761 818 817
f 762 763 819
f 762 819 818
f 756 812 819
f 756 819 763
f 765 764 820
f 765 820 821
f 757 765 821
f 757 821 813
f 764 766 822
f 764 822 820
f 766 767 823
f 766 823 822
f 767 768 824
f 767 824 823
f 768 769 825
f 768 825 824
f 769 770 826
f 769 826 825
f 770 771 827
f 770 827 826
f 771 772 828
f 771 828 827
f 772 773 829
f 772 829 828
f 759 815 829
f 759 829 773
f 774 830 831
f 774 831 775
f 774 776 832
f 774 832 830
f 775 831 833
f 775 833 777
f 777 833 834
f 777 834 778
f 778 834 835
f 778 835 779
f 779 835 836
f 779 836 780
f 780 836 837
f 780 837 781
f 781 837 838
f 781 838 782
f 782 838 839
f 782 839 783
f 783 839 840
f 783 840 784
f 784 840 841
f 784 841 785
f 776 786 842
f 776 842 832
f 785 841 843
f 785 843 787
f 787 843 844
f 787 844 788
f 788 844 845
f 788 845 789
f 789 845 846
f 789 846 790
f 790 846 847
f 790 847 791
f 791 847 848
f 791 848 792
f 786 793 849
f 786 849 842
f 792 848 850
f 792 850 794
f 793 795 851
f 793 851 849
f 794 850 852
f 794 852 796
f 795 797 853
f 795 853 851
f 796 852 854
f 796 854 798
f 797 799 855
f 797 855 853
f 798 854 856
f 798 856 800
f 799 801 857
f 799 857 855
f 800 856 858
f 800 858 802
f 801 803 859
f 801 859 857
f 802 858 860
f 802 860 804
f 803 805 861
f 803 861 859
f 804 860 862
f 804 862 806
f 805 807 863
f 805 863 861
f 806 862 864
f 806 864 808
f 807 809 865
f 807 865 863
f 808 864 866
f 808 866 810
f 809 811 867
f 809 867 865
f 810 866 868
f 810 868 812
f 811 813 869
f 811 869 867
f 815 814 870
f 815 870 871
f 814 816 872
f 814 872 870
f 816 817 873
f 816 873 872
f 817 818 874
f 817 874 873
f 818 819 875
f 818 875 874
f 812 868 875
f 812 875 819
f 821 820 876
f 821 876 877
f 813 821 877
f 813 877 869
f 820 822 878
f 820 878 876
f 822 823 879
f 822 879 878
f 823 824 880
f 823 880 879
f 824 825 881
f 824 881 880
f 825 826 882
f 825 882 881
f 826 827 883
f 826 883 882
f 827 828 884
f 827 884 883
f 828 829 885
f 828 885 884
f 815 871 885
f 815 885 829
f 830 886 887
f 830 887 831
f 830 832 888
f 830 888 886
f 831 887 889
f 831 889 833
f 833 889 890
f 833 890 834
f 834 890 891
f 834 891 835
f 835 891 892
f 835 892 836
f 836 892 893
f 836 893 837
f 837 893 894
f 837 894 838
f 838 894 895
f 838 895 839
f 839 895 896
f 839 896 840
f 840 896 897
f 840 897 841
f 832 842 898
f 832 898 888
f 841 897 899
f 841 899 843
f 843 899 900
f 843 900 844
f 844 900 901
f 844 901 845
f 845 901 902
f 845 902 846
f 902 903 904
f 902 904 905
f 846 902 903
f 846 903 847
f 847 903 904
f 847 904 848
f 842 849 906
f 842 906 898
f 905 904 907
f 905 907 908
f 848 904 907
f 848 907 850
f 849 851 909
f 849 909 906
f 908 907 910
f 908 910 911
f 850 907 910
f 850 910 852
f 851 853 912
f 851 912 909
f 911 910 913
f 911 913 914
f 852 910 913
f 852 913 854
f 853 855 915
f 853 915 912
f 914 913 916
f 914 916 917
f 854 913 916
f 854 916 856
f 855 857 918
f 855 918 915
f 917 916 919
f 917 919 920
f 856 916 919
f 856 919 858
f 857 859 921
f 857 921 918
f 920 919 922
f 920 922 923
f 858 919 922
f 858 922 860
f 859 861 924
f 859 924 921
f 923 922 925
f 923 925 926
f 860 922 925
f 860 925 862
f 861 863 927
f 861 927 924
f 926 925 928
f 926 928 929
f 862 925 928
f 862 928 864
f 863 865 930
f 863 930 927
f 929 928 931
f 929 931 932
f 864 928 931
f 864 931 866
f 865 867 933
f 865 933 930
f 932 931 934
f 932 934 935
f 866 931 934
f 866 934 868
f 867 869 936
f 867 936 933
f 871 870 937
f 871 937 938
f 870 872 939
f 870 939 937
f 872 873 940
f 872 940 939
f 873 874 941
f 873 941 940
f 935 934 942
f 935 942 941
f 874 875 942
f 874 942 941
f 868 934 942
f 868 942 875
f 877 876 943
f 877 943 944
f 869 877 944
f 869 944 936
f 876 878 945
f 876 945 943
f 878 879 946
f 878 946 945
f 879 880 947
f 879 947 946
f 880 881 948
f 880 948 947
f 881 882 949
f 881 949 948
f 882 883 950
f 882 950 949
f 883 884 951
f 883 951 950
f 884 885 952
f 884 952 951
f 871 938 952
f 871 952 885
f 953 954 955
f 953 955 956
f 886 953 954
f 886 954 887
f 886 888 956
f 886 956 953
f 954 957 958
f 954 958 955
f 887 954 957
f 887 957 889
f 957 959 960
f 957 960 958
f 889 957 959
f 889 959 890
f 959 961 962
f 959 962 960
f 890 959 961
f 890 961 891
f 961 963 964
f 961 964 962
f 891 961 963
f 891 963 892
f 963 965 966
f 963 966 964
f 892 963 965
f 892 965 893
f 965 967 968
f 965 968 966
f 893 965 967
f 893 967 894
f 967 969 970
f 967 970 968
f 894 967 969
f 894 969 895
f 969 971 972
f 969 972 970
f 895 969 971
f 895 971 896
f 896 971 972
f 896 972 897
f 956 955 973
f 956 973 974
f 888 898 974
f 888 974 956
f 955 958 975
f 955 975 973
f 958 960 976
f 958 976 975
f 960 962 977
f 960 977 976
f 962 964 978
f 962 978 977
f 964 966 979
f 964 979 978
f 966 968 980
f 966 980 979
f 968 970 981
f 968 981 980
f 970 972 982
f 970 982 981
f 972 983 984
f 972 984 982
f 897 972 983
f 897 983 899
f 983 985 986
f 983 986 984
f 899 983 985
f 899 985 900
f 985 987 988
f 985 988 986
f 900 985 987
f 900 987 901
f 987 989 990
f 987 990 988
f 901 987 989
f 901 989 902
f 902 989 990
f 902 990 905
f 974 973 991
f 974 991 992
f 898 906 992
f 898 992 974
f 973 975 993
f 973 993 991
f 975 976 994
f 975 994 993
f 976 977 995
f 976 995 994
f 977 978 996
f 977 996 995
f 978 979 997
f 978 997 996
f 979 980 998
f 979 998 997
f 980 981 999
f 980 999 998
f 981 982 1000
f 981 1000 999
f 982 984 1001
f 982 1001 1000
f 984 986 1002
f 984 1002 1001
f 986 988 1003
f 986 1003 1002
f 988 990 1004
f 988 1004 1003
f 905 990 1004
f 905 1004 908
f 992 991 1005
f 992 1005 1006
f 906 909 1006
f 906 1006 992
f 991 993 1007
f 991 1007 1005
f 993 994 1008
f 993 1008 1007
f 994 995 1009
f 994 1009 1008
f 995 996 1010
f 995 1010 1009
f 996 997 1011
f 996 1011 1010
f 997 998 1012
f 997 1012 1011
f 998 999 1013
f 998 1013 1012
f 999 1000 1014
f 999 1014 1013
f 1000 1001 1015
f 1000 1015 1014
f 1001 1002 1016
f 1001 1016 1015
f 1002 1003 1017
f 1002 1017 1016
f 1003 1004 1018
f 1003 1018 1017
f 908 1004 1018
f 908 1018 911
f 1006 1005 1019
f 1006 1019 1020
f 909 912 1020
f 909 1020 1006
f 1005 1007 1021
f 1005 1021 1019
f 1007 1008 1022
f 1007 1022 1021
f 1008 1009 1023
f 1008 1023 1022
f 1009 1010 1024
f 1009 1024 1023
f 1010 1011 1025
f 1010 1025 1024
f 1011 1012 1026
f 1011 1026 1025
f 1012 1013 1027
f 1012 1027 1026
f 1013 1014 1028
f 1013 1028 1027
f 1014 1015 1029
f 1014 1029 1028
f 1015 1016 1030
f 1015 1030 1029
f 1016 1017 1031
f 1016 1031 1030
f 1017 1018 1032
f 1017 1032 1031
f 911 1018 1032
f 911 1032 914
f 1020 1019 1033
f 1020 1033 1034
f 912 915 1034
f 912 1034 1020
f 1019 1021 1035
f 1019 1035 1033
f 1021 1022 1036
f 1021 1036 1035
f 1022 1023 1037
f 1022 1037 1036
f 1023 1024 1038
f 1023 1038 1037
f 1024 1025 1039
f 1024 1039 1038
f 1025 1026 1040
f 1025 1040 1039
f 1026 1027 1041
f 1026 1041 1040
f 1027 1028 1042
f 1027 1042 1041
f 1028 1029 1043
f 1028 1043 1042
f 1029 1030 1044
f 1029 1044 1043
f 1030 1031 1045
f 1030 1045 1044
f 1031 1032 1046
f 1031 1046 1045
f 914 1032 1046
f 914 1046 917
f 1034 1033 1047
f 1034 1047 1048
f 915 918 1048
f 915 1048 1034
f 1033 1035 1049
f 1033 1049 1047
f 1035 1036 1050
f 1035 1050 1049
f 1036 1037 1051
f 1036 1051 1050
f 1037 1038 1052
f 1037 1052 1051
f 1038 1039 1053
f 1038 1053 1052
f 1039 1040 1054
f 1039 1054 1053
f 1040 1041 1055
f 1040 1055 1054
f 1041 1042 1056
f 1041 1056 1055
f 1042 1043 1057
f 1042 1057 1056
f 1043 1044 1058
f 1043 1058 1057
f 1044 1045 1059
f 1044 1059 1058
f 1045 1046 1060
f 1045 1060 1059
f 917 1046 1060
f 917 1060 920
f 1048 1047 1061
f 1048 1061 1062
f 918 921 1062
f 918 1062 1048
f 1047 1049 1063
f 1047 1063 1061
f 1049 1050 1064
f 1049 1064 1063
f 1050 1051 1065
f 1050 1065 1064
f 1051 1052 1066
f 1051 1066 1065
f 1052 1053 1067
f 1052 1067 1066
f 1053 1054 1068
f 1053 1068 1067
f 1054 1055 1069
f 1054 1069 1068
f 1055 1056 1070
f 1055 1070 1069
f 1056 1057 1071
f 1056 1071 1070
f 1057 1058 1072
f 1057 1072 1071
f 1058 1059 1073
f 1058 1073 1072
f 1059 1060 1074
f 1059 1074 1073
f 920 1060 1074
f 920 1074 923
f 1062 1061 1075
f 1062 1075 1076
f 921 924 1076
f 921 1076 1062
f 1061 1063 1077
f 1061 1077 1075
f 1063 1064 1078
f 1063 1078 1077
f 1064 1065 1079
f 1064 1079 1078
f 1065 1066 1080
f 1065 1080 1079
f 1066 1067 1081
f 1066 1081 1080
f 1067 1068 1082
f 1067 1082 1081
f 1068 1069 1083
f 1068 1083 1082
f 1069 1070 1084
f 1069 1084 1083
f 1070 1071 1085
f 1070 1085 1084
f 1071 1072 1086
f 1071 1086 1085
f 1072 1073 1087
f 1072 1087 1086
f 1073 1074 1088
f 1073 1088 1087
f 923 1074 1088
f 923 1088 926
f 1076 1075 1089
f 1076 1089 1090
f 924 927 1090
f 924 1090 1076
f 1075 1077 1091
f 1075 1091 1089
f 1077 1078 1092
f 1077 1092 1091
f 1078 1079 1093
f 1078 1093 1092
f 1079 1080 1094
f 1079 1094 1093
f 1080 1081 1095
f 1080 1095 1094
f 1081 1082 1096
f 1081 1096 1095
f 1082 1083 1097
f 1082 1097 1096
f 1083 1084 1098
f 1083 1098 1097
f 1084 1085 1099
f 1084 1099 1098
f 1085 1086 1100
f 1085 1100 1099
f 1086 1087 1101
f 1086 1101 1100
f 1087 1088 1102
f 1087 1102 1101
f 926 1088 1102
f 926 1102 929
f 1090 1089 1103
f 1090 1103 1104
f 927 930 1104
f 927 1104 1090
f 1089 1091 1105
f 1089 1105 1103
f 1091 1092 1106
f 1091 1106 1105
f 1092 1093 1107
f 1092 1107 1106
f 1093 1094 1108
f 1093 1108 1107
f 1094 1095 1109
f 1094 1109 1108
f 1095 1096 1110
f 1095 1110 1109
f 1096 1097 1111
f 1096 1111 1110
f 1097 1098 1112
f 1097 1112 1111
f 1098 1099 1113
f 1098 1113 1112
f 1099 1100 1114
f 1099 1114 1113
f 1100 1101 1115
f 1100 1115 1114
f 1101 1102 1116
f 1101 1116 1115
f 929 1102 1116
f 929 1116 932
f 1104 1103 1117
f 1104 1117 1118
f 930 933 1118
f 930 1118 1104
f 1103 1105 1119
f 1103 1119 1117
f 1105 1106 1120
f 1105 1120 1119
f 1106 1107 1121
f 1106 1121 1120
f 1107 1108 1122
f 1107 1122 1121
f 1108 1109 1123
f 1108 1123 1122
f 1109 1110 1124
f 1109 1124 1123
f 1110 1111 1125
f 1110 1125 1124
f 1111 1112 1126
f 1111 1126 1125
f 1112 1113 1127
f 1112 1127 1126
f 1113 1114 1128
f 1113 1128 1127
f 1114 1115 1129
f 1114 1129 1128
f 1115 1116 1130
f 1115 1130 1129
f 932 1116 1130
f 932 1130 935
f 1118 1117 1131
f 1118 1131 1132
f 933 936 1132
f 933 1132 1118
f 1117 1119 1133
f 1117 1133 1131
f 1119 1120 1134
f 1119 1134 1133
f 1120 1121 1135
f 1120 1135 1134
f 1121 1122 1136
f 1121 1136 1135
f 1122 1123 1137
f 1122 1137 1136
f 1123 1124 1138
f 1123 1138 1137
f 1124 1125 1139
f 1124 1139 1138
f 1125 1126 1140
f 1125 1140 1139
f 1126 1127 1141
f 1126 1141 1140
f 938 937 1141
f 938 1141 1140
f 1127 1128 1142
f 1127 1142 1141
f 937 939 1142
f 937 1142 1141
f 1128 1129 1143
f 1128 1143 1142
f 939 940 1143
f 939 1143 1142
f 1129 1130 1144
f 1129 1144 1143
f 940 941 1144
f 940 1144 1143
f 935 1130 1144
f 935 1144 941
f 1132 1131 1145
f 1132 1145 1146
f 944 943 1145
f 944 1145 1146
f 936 944 1146
f 936 1146 1132
f 1131 1133 1147
f 1131 1147 1145
f 943 945 1147
f 943 1147 1145
f 1133 1134 1148
f 1133 1148 1147
f 945 946 1148
f 945 1148 1147
f 1134 1135 1149
f 1134 1149 1148
f 946 947 1149
f 946 1149 1148
f 1135 1136 1150
f 1135 1150 1149
f 947 948 1150
f 947 1150 1149
f 1136 1137 1151
f 1136 1151 1150
f 948 949 1151
f 948 1151 1150
f 1137 1138 1152
f 1137 1152 1151
f 949 950 1152
f 949 1152 1151
f 1138 1139 1153
f 1138 1153 1152
f 950 951 1153
f 950 1153 1152
f 1139 1140 1154
f 1139 1154 1153
f 951 952 1154
f 951 1154 1153
f 938 1140 1154
f 938 1154 952
