o [4B] 3D Diagram - S2-02 Group F_80
v 0.937629 0.951611 13.300000
v 0.937629 0.954407 13.300000
v 0.937629 0.954407 13.375000
v 0.937629 0.951611 13.375000
v 0.940426 0.951611 13.300000
v 0.940426 0.951611 13.375000
v 0.940426 0.954407 13.300000
v 0.937629 0.954407 13.450000
v 0.937629 0.951611 13.450000
v 0.940426 0.951611 13.450000
v 0.937629 0.954407 13.525000
v 0.937629 0.951611 13.525000
v 0.940426 0.951611 13.525000
v 0.937629 0.954407 13.600000
v 0.937629 0.951611 13.600000
v 0.940426 0.951611 13.600000
v 0.937629 0.954407 13.675000
v 0.937629 0.951611 13.675000
v 0.940426 0.951611 13.675000
v 0.937629 0.954407 13.750000
v 0.937629 0.951611 13.750000
v 0.940426 0.951611 13.750000
v 0.937629 0.954407 13.825000
v 0.937629 0.951611 13.825000
v 0.940426 0.951611 13.825000
v 0.937629 0.954407 13.900000
v 0.937629 0.951611 13.900000
v 0.940426 0.951611 13.900000
v 0.937629 0.954407 13.975000
v 0.937629 0.951611 13.975000
v 0.940426 0.951611 13.975000
v 0.937629 0.954407 14.050000
v 0.937629 0.951611 14.050000
v 0.940426 0.951611 14.050000
v 0.937629 0.954407 14.125000
v 0.937629 0.951611 14.125000
v 0.940426 0.951611 14.125000
v 0.937629 0.954407 14.200000
v 0.937629 0.951611 14.200000
v 0.940426 0.951611 14.200000
v 0.937629 0.954407 14.275000
v 0.937629 0.951611 14.275000
v 0.940426 0.951611 14.275000
v 0.937629 0.954407 14.350000
v 0.937629 0.951611 14.350000
v 0.940426 0.951611 14.350000
v 0.937629 0.954407 14.425000
v 0.937629 0.951611 14.425000
v 0.940426 0.951611 14.425000
v 0.937629 0.954407 14.500000
v 0.937629 0.951611 14.500000
v 0.940426 0.951611 14.500000
v 0.940426 0.954407 14.500000
v 0.937629 0.957204 13.300000
v 0.937629 0.957204 13.375000
v 0.940426 0.957204 13.300000
v 0.937629 0.957204 13.450000
v 0.937629 0.957204 13.525000
v 0.937629 0.957204 13.600000
v 0.937629 0.957204 13.675000
v 0.937629 0.957204 13.750000
v 0.937629 0.957204 13.825000
v 0.937629 0.957204 13.900000
v 0.937629 0.957204 13.975000
v 0.937629 0.957204 14.050000
v 0.937629 0.957204 14.125000
v 0.937629 0.957204 14.200000
v 0.937629 0.957204 14.275000
v 0.937629 0.957204 14.350000
v 0.937629 0.957204 14.425000
v 0.937629 0.957204 14.500000
v 0.940426 0.957204 14.500000
v 0.937629 0.960000 13.300000
v 0.937629 0.960000 13.375000
v 0.940426 0.960000 13.300000
v 0.937629 0.960000 13.450000
v 0.937629 0.960000 13.525000
v 0.937629 0.960000 13.600000
v 0.937629 0.960000 13.675000
v 0.937629 0.960000 13.750000
v 0.937629 0.960000 13.825000
v 0.937629 0.960000 13.900000
v 0.937629 0.960000 13.975000
v 0.937629 0.960000 14.050000
v 0.937629 0.960000 14.125000
v 0.937629 0.960000 14.200000
v 0.937629 0.960000 14.275000
v 0.937629 0.960000 14.350000
v 0.937629 0.960000 14.425000
v 0.937629 0.960000 14.500000
v 0.940426 0.960000 14.500000
v 0.937629 0.962796 13.300000
v 0.937629 0.962796 13.375000
v 0.940426 0.962796 13.300000
v 0.937629 0.962796 13.450000
v 0.937629 0.962796 13.525000
v 0.937629 0.962796 13.600000
v 0.937629 0.962796 13.675000
v 0.937629 0.962796 13.750000
v 0.937629 0.962796 13.825000
v 0.937629 0.962796 13.900000
v 0.937629 0.962796 13.975000
v 0.937629 0.962796 14.050000
v 0.937629 0.962796 14.125000
v 0.937629 0.962796 14.200000
v 0.937629 0.962796 14.275000
v 0.937629 0.962796 14.350000
v 0.937629 0.962796 14.425000
v 0.937629 0.962796 14.500000
v 0.940426 0.962796 14.500000
v 0.937629 0.965593 13.300000
v 0.937629 0.965593 13.375000
v 0.940426 0.965593 13.300000
v 0.937629 0.965593 13.450000
v 0.937629 0.965593 13.525000
v 0.937629 0.965593 13.600000
v 0.937629 0.965593 13.675000
v 0.937629 0.965593 13.750000
v 0.937629 0.965593 13.825000
v 0.937629 0.965593 13.900000
v 0.937629 0.965593 13.975000
v 0.937629 0.965593 14.050000
v 0.937629 0.965593 14.125000
v 0.937629 0.965593 14.200000
v 0.937629 0.965593 14.275000
v 0.937629 0.965593 14.350000
v 0.937629 0.965593 14.425000
v 0.937629 0.965593 14.500000
v 0.940426 0.965593 14.500000
v 0.937629 0.968389 13.300000
v 0.937629 0.968389 13.375000
v 0.940426 0.968389 13.375000
v 0.940426 0.968389 13.300000
v 0.937629 0.968389 13.450000
v 0.940426 0.968389 13.450000
v 0.937629 0.968389 13.525000
v 0.940426 0.968389 13.525000
v 0.937629 0.968389 13.600000
v 0.940426 0.968389 13.600000
v 0.937629 0.968389 13.675000
v 0.940426 0.968389 13.675000
v 0.937629 0.968389 13.750000
v 0.940426 0.968389 13.750000
v 0.937629 0.968389 13.825000
v 0.940426 0.968389 13.825000
v 0.937629 0.968389 13.900000
v 0.940426 0.968389 13.900000
v 0.937629 0.968389 13.975000
v 0.940426 0.968389 13.975000
v 0.937629 0.968389 14.050000
v 0.940426 0.968389 14.050000
v 0.937629 0.968389 14.125000
v 0.940426 0.968389 14.125000
v 0.937629 0.968389 14.200000
v 0.940426 0.968389 14.200000
v 0.937629 0.968389 14.275000
v 0.940426 0.968389 14.275000
v 0.937629 0.968389 14.350000
v 0.940426 0.968389 14.350000
v 0.937629 0.968389 14.425000
v 0.940426 0.968389 14.425000
v 0.937629 0.968389 14.500000
v 0.940426 0.968389 14.500000
v 0.940426 0.946018 13.300000
v 0.940426 0.948815 13.300000
v 0.940426 0.948815 13.375000
v 0.940426 0.946018 13.375000
v 0.943222 0.946018 13.300000
v 0.943222 0.946018 13.375000
v 0.943222 0.948815 13.300000
v 0.940426 0.948815 13.450000
v 0.940426 0.946018 13.450000
v 0.943222 0.946018 13.450000
v 0.940426 0.948815 13.525000
v 0.940426 0.946018 13.525000
v 0.943222 0.946018 13.525000
v 0.940426 0.948815 13.600000
v 0.940426 0.946018 13.600000
v 0.943222 0.946018 13.600000
v 0.940426 0.948815 13.675000
v 0.940426 0.946018 13.675000
v 0.943222 0.946018 13.675000
v 0.940426 0.948815 13.750000
v 0.940426 0.946018 13.750000
v 0.943222 0.946018 13.750000
v 0.940426 0.948815 13.825000
v 0.940426 0.946018 13.825000
v 0.943222 0.946018 13.825000
v 0.940426 0.948815 13.900000
v 0.940426 0.946018 13.900000
v 0.943222 0.946018 13.900000
v 0.940426 0.948815 13.975000
v 0.940426 0.946018 13.975000
v 0.943222 0.946018 13.975000
v 0.940426 0.948815 14.050000
v 0.940426 0.946018 14.050000
v 0.943222 0.946018 14.050000
v 0.940426 0.948815 14.125000
v 0.940426 0.946018 14.125000
v 0.943222 0.946018 14.125000
v 0.940426 0.948815 14.200000
v 0.940426 0.946018 14.200000
v 0.943222 0.946018 14.200000
v 0.940426 0.948815 14.275000
v 0.940426 0.946018 14.275000
v 0.943222 0.946018 14.275000
v 0.940426 0.948815 14.350000
v 0.940426 0.946018 14.350000
v 0.943222 0.946018 14.350000
v 0.940426 0.948815 14.425000
v 0.940426 0.946018 14.425000
v 0.943222 0.946018 14.425000
v 0.940426 0.948815 14.500000
v 0.940426 0.946018 14.500000
v 0.943222 0.946018 14.500000
v 0.943222 0.948815 14.500000
v 0.943222 0.951611 13.300000
v 0.943222 0.951611 14.500000
v 0.943222 0.954407 13.300000
v 0.943222 0.954407 14.500000
v 0.943222 0.957204 13.300000
v 0.943222 0.957204 14.500000
v 0.943222 0.960000 13.300000
v 0.943222 0.960000 14.500000
v 0.943222 0.962796 13.300000
v 0.943222 0.962796 14.500000
v 0.943222 0.965593 13.300000
v 0.943222 0.965593 14.500000
v 0.943222 0.968389 13.300000
v 0.943222 0.968389 14.500000
v 0.940426 0.971185 13.300000
v 0.940426 0.971185 13.375000
v 0.943222 0.971185 13.300000
v 0.940426 0.971185 13.450000
v 0.940426 0.971185 13.525000
v 0.940426 0.971185 13.600000
v 0.940426 0.971185 13.675000
v 0.940426 0.971185 13.750000
v 0.940426 0.971185 13.825000
v 0.940426 0.971185 13.900000
v 0.940426 0.971185 13.975000
v 0.940426 0.971185 14.050000
v 0.940426 0.971185 14.125000
v 0.940426 0.971185 14.200000
v 0.940426 0.971185 14.275000
v 0.940426 0.971185 14.350000
v 0.940426 0.971185 14.425000
v 0.940426 0.971185 14.500000
v 0.943222 0.971185 14.500000
v 0.940426 0.973982 13.300000
v 0.940426 0.973982 13.375000
v 0.943222 0.973982 13.375000
v 0.943222 0.973982 13.300000
v 0.940426 0.973982 13.450000
v 0.943222 0.973982 13.450000
v 0.940426 0.973982 13.525000
v 0.943222 0.973982 13.525000
v 0.940426 0.973982 13.600000
v 0.943222 0.973982 13.600000
v 0.940426 0.973982 13.675000
v 0.943222 0.973982 13.675000
v 0.940426 0.973982 13.750000
v 0.943222 0.973982 13.750000
v 0.940426 0.973982 13.825000
v 0.943222 0.973982 13.825000
v 0.940426 0.973982 13.900000
v 0.943222 0.973982 13.900000
v 0.940426 0.973982 13.975000
v 0.943222 0.973982 13.975000
v 0.940426 0.973982 14.050000
v 0.943222 0.973982 14.050000
v 0.940426 0.973982 14.125000
v 0.943222 0.973982 14.125000
v 0.940426 0.973982 14.200000
v 0.943222 0.973982 14.200000
v 0.940426 0.973982 14.275000
v 0.943222 0.973982 14.275000
v 0.940426 0.973982 14.350000
v 0.943222 0.973982 14.350000
v 0.940426 0.973982 14.425000
v 0.943222 0.973982 14.425000
v 0.940426 0.973982 14.500000
v 0.943222 0.973982 14.500000
v 0.943222 0.943222 13.300000
v 0.943222 0.943222 13.375000
v 0.946018 0.943222 13.300000
v 0.946018 0.943222 13.375000
v 0.946018 0.946018 13.300000
v 0.943222 0.943222 13.450000
v 0.946018 0.943222 13.450000
v 0.943222 0.943222 13.525000
v 0.946018 0.943222 13.525000
v 0.943222 0.943222 13.600000
v 0.946018 0.943222 13.600000
v 0.943222 0.943222 13.675000
v 0.946018 0.943222 13.675000
v 0.943222 0.943222 13.750000
v 0.946018 0.943222 13.750000
v 0.943222 0.943222 13.825000
v 0.946018 0.943222 13.825000
v 0.943222 0.943222 13.900000
v 0.946018 0.943222 13.900000
v 0.943222 0.943222 13.975000
v 0.946018 0.943222 13.975000
v 0.943222 0.943222 14.050000
v 0.946018 0.943222 14.050000
v 0.943222 0.943222 14.125000
v 0.946018 0.943222 14.125000
v 0.943222 0.943222 14.200000
v 0.946018 0.943222 14.200000
v 0.943222 0.943222 14.275000
v 0.946018 0.943222 14.275000
v 0.943222 0.943222 14.350000
v 0.946018 0.943222 14.350000
v 0.943222 0.943222 14.425000
v 0.946018 0.943222 14.425000
v 0.943222 0.943222 14.500000
v 0.946018 0.943222 14.500000
v 0.946018 0.946018 14.500000
v 0.946018 0.948815 13.300000
v 0.946018 0.948815 14.500000
v 0.946018 0.951611 13.300000
v 0.946018 0.951611 14.500000
v 0.946018 0.954407 13.300000
v 0.946018 0.954407 14.500000
v 0.946018 0.957204 13.300000
v 0.946018 0.957204 14.500000
v 0.946018 0.960000 13.300000
v 0.946018 0.960000 14.500000
v 0.946018 0.962796 13.300000
v 0.946018 0.962796 14.500000
v 0.946018 0.965593 13.300000
v 0.946018 0.965593 14.500000
v 0.946018 0.968389 13.300000
v 0.946018 0.968389 14.500000
v 0.946018 0.971185 13.300000
v 0.946018 0.971185 14.500000
v 0.946018 0.973982 13.300000
v 0.946018 0.973982 14.500000
v 0.943222 0.976778 13.300000
v 0.943222 0.976778 13.375000
v 0.946018 0.976778 13.375000
v 0.946018 0.976778 13.300000
v 0.943222 0.976778 13.450000
v 0.946018 0.976778 13.450000
v 0.943222 0.976778 13.525000
v 0.946018 0.976778 13.525000
v 0.943222 0.976778 13.600000
v 0.946018 0.976778 13.600000
v 0.943222 0.976778 13.675000
v 0.946018 0.976778 13.675000
v 0.943222 0.976778 13.750000
v 0.946018 0.976778 13.750000
v 0.943222 0.976778 13.825000
v 0.946018 0.976778 13.825000
v 0.943222 0.976778 13.900000
v 0.946018 0.976778 13.900000
v 0.943222 0.976778 13.975000
v 0.946018 0.976778 13.975000
v 0.943222 0.976778 14.050000
v 0.946018 0.976778 14.050000
v 0.943222 0.976778 14.125000
v 0.946018 0.976778 14.125000
v 0.943222 0.976778 14.200000
v 0.946018 0.976778 14.200000
v 0.943222 0.976778 14.275000
v 0.946018 0.976778 14.275000
v 0.943222 0.976778 14.350000
v 0.946018 0.976778 14.350000
v 0.943222 0.976778 14.425000
v 0.946018 0.976778 14.425000
v 0.943222 0.976778 14.500000
v 0.946018 0.976778 14.500000
v 0.946018 0.940426 13.300000
v 0.946018 0.940426 13.375000
v 0.948815 0.940426 13.300000
v 0.948815 0.940426 13.375000
v 0.948815 0.943222 13.300000
v 0.946018 0.940426 13.450000
v 0.948815 0.940426 13.450000
v 0.946018 0.940426 13.525000
v 0.948815 0.940426 13.525000
v 0.946018 0.940426 13.600000
v 0.948815 0.940426 13.600000
v 0.946018 0.940426 13.675000
v 0.948815 0.940426 13.675000
v 0.946018 0.940426 13.750000
v 0.948815 0.940426 13.750000
v 0.946018 0.940426 13.825000
v 0.948815 0.940426 13.825000
v 0.946018 0.940426 13.900000
v 0.948815 0.940426 13.900000
v 0.946018 0.940426 13.975000
v 0.948815 0.940426 13.975000
v 0.946018 0.940426 14.050000
v 0.948815 0.940426 14.050000
v 0.946018 0.940426 14.125000
v 0.948815 0.940426 14.125000
v 0.946018 0.940426 14.200000
v 0.948815 0.940426 14.200000
v 0.946018 0.940426 14.275000
v 0.948815 0.940426 14.275000
v 0.946018 0.940426 14.350000
v 0.948815 0.940426 14.350000
v 0.946018 0.940426 14.425000
v 0.948815 0.940426 14.425000
v 0.946018 0.940426 14.500000
v 0.948815 0.940426 14.500000
v 0.948815 0.943222 14.500000
v 0.948815 0.946018 13.300000
v 0.948815 0.946018 14.500000
v 0.948815 0.948815 13.300000
v 0.948815 0.948815 14.500000
v 0.948815 0.951611 13.300000
v 0.948815 0.951611 14.500000
v 0.948815 0.954407 13.300000
v 0.948815 0.954407 14.500000
v 0.948815 0.957204 13.300000
v 0.948815 0.957204 14.500000
v 0.948815 0.960000 13.300000
v 0.948815 0.960000 14.500000
v 0.948815 0.962796 13.300000
v 0.948815 0.962796 14.500000
v 0.948815 0.965593 13.300000
v 0.948815 0.965593 14.500000
v 0.948815 0.968389 13.300000
v 0.948815 0.968389 14.500000
v 0.948815 0.971185 13.300000
v 0.948815 0.971185 14.500000
v 0.948815 0.973982 13.300000
v 0.948815 0.973982 14.500000
v 0.948815 0.976778 13.300000
v 0.948815 0.976778 14.500000
v 0.946018 0.979574 13.300000
v 0.946018 0.979574 13.375000
v 0.948815 0.979574 13.375000
v 0.948815 0.979574 13.300000
v 0.946018 0.979574 13.450000
v 0.948815 0.979574 13.450000
v 0.946018 0.979574 13.525000
v 0.948815 0.979574 13.525000
v 0.946018 0.979574 13.600000
v 0.948815 0.979574 13.600000
v 0.946018 0.979574 13.675000
v 0.948815 0.979574 13.675000
v 0.946018 0.979574 13.750000
v 0.948815 0.979574 13.750000
v 0.946018 0.979574 13.825000
v 0.948815 0.979574 13.825000
v 0.946018 0.979574 13.900000
v 0.948815 0.979574 13.900000
v 0.946018 0.979574 13.975000
v 0.948815 0.979574 13.975000
v 0.946018 0.979574 14.050000
v 0.948815 0.979574 14.050000
v 0.946018 0.979574 14.125000
v 0.948815 0.979574 14.125000
v 0.946018 0.979574 14.200000
v 0.948815 0.979574 14.200000
v 0.946018 0.979574 14.275000
v 0.948815 0.979574 14.275000
v 0.946018 0.979574 14.350000
v 0.948815 0.979574 14.350000
v 0.946018 0.979574 14.425000
v 0.948815 0.979574 14.425000
v 0.946018 0.979574 14.500000
v 0.948815 0.979574 14.500000
v 0.951611 0.940426 13.300000
v 0.951611 0.940426 13.375000
v 0.951611 0.943222 13.300000
v 0.951611 0.940426 13.450000
v 0.951611 0.940426 13.525000
v 0.951611 0.940426 13.600000
v 0.951611 0.940426 13.675000
v 0.951611 0.940426 13.750000
v 0.951611 0.940426 13.825000
v 0.951611 0.940426 13.900000
v 0.951611 0.940426 13.975000
v 0.951611 0.940426 14.050000
v 0.951611 0.940426 14.125000
v 0.951611 0.940426 14.200000
v 0.951611 0.940426 14.275000
v 0.951611 0.940426 14.350000
v 0.951611 0.940426 14.425000
v 0.951611 0.940426 14.500000
v 0.951611 0.943222 14.500000
v 0.951611 0.946018 13.300000
v 0.951611 0.946018 14.500000
v 0.951611 0.948815 13.300000
v 0.951611 0.948815 14.500000
v 0.951611 0.951611 13.300000
v 0.951611 0.951611 14.500000
v 0.951611 0.954407 13.300000
v 0.951611 0.954407 14.500000
v 0.951611 0.957204 13.300000
v 0.951611 0.957204 14.500000
v 0.951611 0.960000 13.300000
v 0.951611 0.960000 14.500000
v 0.951611 0.962796 13.300000
v 0.951611 0.962796 14.500000
v 0.951611 0.965593 13.300000
v 0.951611 0.965593 14.500000
v 0.951611 0.968389 13.300000
v 0.951611 0.968389 14.500000
v 0.951611 0.971185 13.300000
v 0.951611 0.971185 14.500000
v 0.951611 0.973982 13.300000
v 0.951611 0.973982 14.500000
v 0.951611 0.976778 13.300000
v 0.951611 0.976778 14.500000
v 0.951611 0.979574 13.375000
v 0.951611 0.979574 13.300000
v 0.951611 0.979574 13.450000
v 0.951611 0.979574 13.525000
v 0.951611 0.979574 13.600000
v 0.951611 0.979574 13.675000
v 0.951611 0.979574 13.750000
v 0.951611 0.979574 13.825000
v 0.951611 0.979574 13.900000
v 0.951611 0.979574 13.975000
v 0.951611 0.979574 14.050000
v 0.951611 0.979574 14.125000
v 0.951611 0.979574 14.200000
v 0.951611 0.979574 14.275000
v 0.951611 0.979574 14.350000
v 0.951611 0.979574 14.425000
v 0.951611 0.979574 14.500000
v 0.951611 0.937629 13.300000
v 0.951611 0.937629 13.375000
v 0.954407 0.937629 13.300000
v 0.954407 0.937629 13.375000
v 0.954407 0.940426 13.300000
v 0.951611 0.937629 13.450000
v 0.954407 0.937629 13.450000
v 0.951611 0.937629 13.525000
v 0.954407 0.937629 13.525000
v 0.951611 0.937629 13.600000
v 0.954407 0.937629 13.600000
v 0.951611 0.937629 13.675000
v 0.954407 0.937629 13.675000
v 0.951611 0.937629 13.750000
v 0.954407 0.937629 13.750000
v 0.951611 0.937629 13.825000
v 0.954407 0.937629 13.825000
v 0.951611 0.937629 13.900000
v 0.954407 0.937629 13.900000
v 0.951611 0.937629 13.975000
v 0.954407 0.937629 13.975000
v 0.951611 0.937629 14.050000
v 0.954407 0.937629 14.050000
v 0.951611 0.937629 14.125000
v 0.954407 0.937629 14.125000
v 0.951611 0.937629 14.200000
v 0.954407 0.937629 14.200000
v 0.951611 0.937629 14.275000
v 0.954407 0.937629 14.275000
v 0.951611 0.937629 14.350000
v 0.954407 0.937629 14.350000
v 0.951611 0.937629 14.425000
v 0.954407 0.937629 14.425000
v 0.951611 0.937629 14.500000
v 0.954407 0.937629 14.500000
v 0.954407 0.940426 14.500000
v 0.954407 0.943222 13.300000
v 0.954407 0.943222 14.500000
v 0.954407 0.946018 13.300000
v 0.954407 0.946018 14.500000
v 0.954407 0.948815 13.300000
v 0.954407 0.948815 14.500000
v 0.954407 0.951611 13.300000
v 0.954407 0.951611 14.500000
v 0.954407 0.954407 13.300000
v 0.954407 0.954407 14.500000
v 0.954407 0.957204 13.300000
v 0.954407 0.957204 14.500000
v 0.954407 0.960000 13.300000
v 0.954407 0.960000 14.500000
v 0.954407 0.962796 13.300000
v 0.954407 0.962796 14.500000
v 0.954407 0.965593 13.300000
v 0.954407 0.965593 14.500000
v 0.954407 0.968389 13.300000
v 0.954407 0.968389 14.500000
v 0.954407 0.971185 13.300000
v 0.954407 0.971185 14.500000
v 0.954407 0.973982 13.300000
v 0.954407 0.973982 14.500000
v 0.954407 0.976778 13.300000
v 0.954407 0.976778 14.500000
v 0.954407 0.979574 13.300000
v 0.954407 0.979574 14.500000
v 0.951611 0.982371 13.300000
v 0.951611 0.982371 13.375000
v 0.954407 0.982371 13.375000
v 0.954407 0.982371 13.300000
v 0.951611 0.982371 13.450000
v 0.954407 0.982371 13.450000
v 0.951611 0.982371 13.525000
v 0.954407 0.982371 13.525000
v 0.951611 0.982371 13.600000
v 0.954407 0.982371 13.600000
v 0.951611 0.982371 13.675000
v 0.954407 0.982371 13.675000
v 0.951611 0.982371 13.750000
v 0.954407 0.982371 13.750000
v 0.951611 0.982371 13.825000
v 0.954407 0.982371 13.825000
v 0.951611 0.982371 13.900000
v 0.954407 0.982371 13.900000
v 0.951611 0.982371 13.975000
v 0.954407 0.982371 13.975000
v 0.951611 0.982371 14.050000
v 0.954407 0.982371 14.050000
v 0.951611 0.982371 14.125000
v 0.954407 0.982371 14.125000
v 0.951611 0.982371 14.200000
v 0.954407 0.982371 14.200000
v 0.951611 0.982371 14.275000
v 0.954407 0.982371 14.275000
v 0.951611 0.982371 14.350000
v 0.954407 0.982371 14.350000
v 0.951611 0.982371 14.425000
v 0.954407 0.982371 14.425000
v 0.951611 0.982371 14.500000
v 0.954407 0.982371 14.500000
v 0.957204 0.937629 13.300000
v 0.957204 0.937629 13.375000
v 0.957204 0.940426 13.300000
v 0.957204 0.937629 13.450000
v 0.957204 0.937629 13.525000
v 0.957204 0.937629 13.600000
v 0.957204 0.937629 13.675000
v 0.957204 0.937629 13.750000
v 0.957204 0.937629 13.825000
v 0.957204 0.937629 13.900000
v 0.957204 0.937629 13.975000
v 0.957204 0.937629 14.050000
v 0.957204 0.937629 14.125000
v 0.957204 0.937629 14.200000
v 0.957204 0.937629 14.275000
v 0.957204 0.937629 14.350000
v 0.957204 0.937629 14.425000
v 0.957204 0.937629 14.500000
v 0.957204 0.940426 14.500000
v 0.957204 0.943222 13.300000
v 0.957204 0.943222 14.500000
v 0.957204 0.946018 13.300000
v 0.957204 0.946018 14.500000
v 0.957204 0.948815 13.300000
v 0.957204 0.948815 14.500000
v 0.957204 0.951611 13.300000
v 0.957204 0.951611 14.500000
v 0.957204 0.954407 13.300000
v 0.957204 0.954407 14.500000
v 0.957204 0.957204 13.300000
v 0.957204 0.957204 14.500000
v 0.957204 0.960000 13.300000
v 0.957204 0.960000 14.500000
v 0.957204 0.962796 13.300000
v 0.957204 0.962796 14.500000
v 0.957204 0.965593 13.300000
v 0.957204 0.965593 14.500000
v 0.957204 0.968389 13.300000
v 0.957204 0.968389 14.500000
v 0.957204 0.971185 13.300000
v 0.957204 0.971185 14.500000
v 0.957204 0.973982 13.300000
v 0.957204 0.973982 14.500000
v 0.957204 0.976778 13.300000
v 0.957204 0.976778 14.500000
v 0.957204 0.979574 13.300000
v 0.957204 0.979574 14.500000
v 0.957204 0.982371 13.375000
v 0.957204 0.982371 13.300000
v 0.957204 0.982371 13.450000
v 0.957204 0.982371 13.525000
v 0.957204 0.982371 13.600000
v 0.957204 0.982371 13.675000
v 0.957204 0.982371 13.750000
v 0.957204 0.982371 13.825000
v 0.957204 0.982371 13.900000
v 0.957204 0.982371 13.975000
v 0.957204 0.982371 14.050000
v 0.957204 0.982371 14.125000
v 0.957204 0.982371 14.200000
v 0.957204 0.982371 14.275000
v 0.957204 0.982371 14.350000
v 0.957204 0.982371 14.425000
v 0.957204 0.982371 14.500000
v 0.960000 0.937629 13.300000
v 0.960000 0.937629 13.375000
v 0.960000 0.940426 13.300000
v 0.960000 0.937629 13.450000
v 0.960000 0.937629 13.525000
v 0.960000 0.937629 13.600000
v 0.960000 0.937629 13.675000
v 0.960000 0.937629 13.750000
v 0.960000 0.937629 13.825000
v 0.960000 0.937629 13.900000
v 0.960000 0.937629 13.975000
v 0.960000 0.937629 14.050000
v 0.960000 0.937629 14.125000
v 0.960000 0.937629 14.200000
v 0.960000 0.937629 14.275000
v 0.960000 0.937629 14.350000
v 0.960000 0.937629 14.425000
v 0.960000 0.937629 14.500000
v 0.960000 0.940426 14.500000
v 0.960000 0.943222 13.300000
v 0.960000 0.943222 14.500000
v 0.960000 0.946018 13.300000
v 0.960000 0.946018 14.500000
v 0.960000 0.948815 13.300000
v 0.960000 0.948815 14.500000
v 0.960000 0.951611 13.300000
v 0.960000 0.951611 14.500000
v 0.960000 0.954407 13.300000
v 0.960000 0.954407 14.500000
v 0.960000 0.957204 13.300000
v 0.960000 0.957204 14.500000
v 0.960000 0.960000 13.300000
v 0.960000 0.960000 14.500000
v 0.960000 0.962796 13.300000
v 0.960000 0.962796 14.500000
v 0.960000 0.965593 13.300000
v 0.960000 0.965593 14.500000
v 0.960000 0.968389 13.300000
v 0.960000 0.968389 14.500000
v 0.960000 0.971185 13.300000
v 0.960000 0.971185 14.500000
v 0.960000 0.973982 13.300000
v 0.960000 0.973982 14.500000
v 0.960000 0.976778 13.300000
v 0.960000 0.976778 14.500000
v 0.960000 0.979574 13.300000
v 0.960000 0.979574 14.500000
v 0.960000 0.982371 13.375000
v 0.960000 0.982371 13.300000
v 0.960000 0.982371 13.450000
v 0.960000 0.982371 13.525000
v 0.960000 0.982371 13.600000
v 0.960000 0.982371 13.675000
v 0.960000 0.982371 13.750000
v 0.960000 0.982371 13.825000
v 0.960000 0.982371 13.900000
v 0.960000 0.982371 13.975000
v 0.960000 0.982371 14.050000
v 0.960000 0.982371 14.125000
v 0.960000 0.982371 14.200000
v 0.960000 0.982371 14.275000
v 0.960000 0.982371 14.350000
v 0.960000 0.982371 14.425000
v 0.960000 0.982371 14.500000
v 0.962796 0.937629 13.300000
v 0.962796 0.937629 13.375000
v 0.962796 0.940426 13.300000
v 0.962796 0.937629 13.450000
v 0.962796 0.937629 13.525000
v 0.962796 0.937629 13.600000
v 0.962796 0.937629 13.675000
v 0.962796 0.937629 13.750000
v 0.962796 0.937629 13.825000
v 0.962796 0.937629 13.900000
v 0.962796 0.937629 13.975000
v 0.962796 0.937629 14.050000
v 0.962796 0.937629 14.125000
v 0.962796 0.937629 14.200000
v 0.962796 0.937629 14.275000
v 0.962796 0.937629 14.350000
v 0.962796 0.937629 14.425000
v 0.962796 0.937629 14.500000
v 0.962796 0.940426 14.500000
v 0.962796 0.943222 13.300000
v 0.962796 0.943222 14.500000
v 0.962796 0.946018 13.300000
v 0.962796 0.946018 14.500000
v 0.962796 0.948815 13.300000
v 0.962796 0.948815 14.500000
v 0.962796 0.951611 13.300000
v 0.962796 0.951611 14.500000
v 0.962796 0.954407 13.300000
v 0.962796 0.954407 14.500000
v 0.962796 0.957204 13.300000
v 0.962796 0.957204 14.500000
v 0.962796 0.960000 13.300000
v 0.962796 0.960000 14.500000
v 0.962796 0.962796 13.300000
v 0.962796 0.962796 14.500000
v 0.962796 0.965593 13.300000
v 0.962796 0.965593 14.500000
v 0.962796 0.968389 13.300000
v 0.962796 0.968389 14.500000
v 0.962796 0.971185 13.300000
v 0.962796 0.971185 14.500000
v 0.962796 0.973982 13.300000
v 0.962796 0.973982 14.500000
v 0.962796 0.976778 13.300000
v 0.962796 0.976778 14.500000
v 0.962796 0.979574 13.300000
v 0.962796 0.979574 14.500000
v 0.962796 0.982371 13.375000
v 0.962796 0.982371 13.300000
v 0.962796 0.982371 13.450000
v 0.962796 0.982371 13.525000
v 0.962796 0.982371 13.600000
v 0.962796 0.982371 13.675000
v 0.962796 0.982371 13.750000
v 0.962796 0.982371 13.825000
v 0.962796 0.982371 13.900000
v 0.962796 0.982371 13.975000
v 0.962796 0.982371 14.050000
v 0.962796 0.982371 14.125000
v 0.962796 0.982371 14.200000
v 0.962796 0.982371 14.275000
v 0.962796 0.982371 14.350000
v 0.962796 0.982371 14.425000
v 0.962796 0.982371 14.500000
v 0.965593 0.937629 13.300000
v 0.965593 0.937629 13.375000
v 0.965593 0.940426 13.300000
v 0.965593 0.937629 13.450000
v 0.965593 0.937629 13.525000
v 0.965593 0.937629 13.600000
v 0.965593 0.937629 13.675000
v 0.965593 0.937629 13.750000
v 0.965593 0.937629 13.825000
v 0.965593 0.937629 13.900000
v 0.965593 0.937629 13.975000
v 0.965593 0.937629 14.050000
v 0.965593 0.937629 14.125000
v 0.965593 0.937629 14.200000
v 0.965593 0.937629 14.275000
v 0.965593 0.937629 14.350000
v 0.965593 0.937629 14.425000
v 0.965593 0.937629 14.500000
v 0.965593 0.940426 14.500000
v 0.965593 0.943222 13.300000
v 0.965593 0.943222 14.500000
v 0.965593 0.946018 13.300000
v 0.965593 0.946018 14.500000
v 0.965593 0.948815 13.300000
v 0.965593 0.948815 14.500000
v 0.965593 0.951611 13.300000
v 0.965593 0.951611 14.500000
v 0.965593 0.954407 13.300000
v 0.965593 0.954407 14.500000
v 0.965593 0.957204 13.300000
v 0.965593 0.957204 14.500000
v 0.965593 0.960000 13.300000
v 0.965593 0.960000 14.500000
v 0.965593 0.962796 13.300000
v 0.965593 0.962796 14.500000
v 0.965593 0.965593 13.300000
v 0.965593 0.965593 14.500000
v 0.965593 0.968389 13.300000
v 0.965593 0.968389 14.500000
v 0.965593 0.971185 13.300000
v 0.965593 0.971185 14.500000
v 0.965593 0.973982 13.300000
v 0.965593 0.973982 14.500000
v 0.965593 0.976778 13.300000
v 0.965593 0.976778 14.500000
v 0.965593 0.979574 13.300000
v 0.965593 0.979574 14.500000
v 0.965593 0.982371 13.375000
v 0.965593 0.982371 13.300000
v 0.965593 0.982371 13.450000
v 0.965593 0.982371 13.525000
v 0.965593 0.982371 13.600000
v 0.965593 0.982371 13.675000
v 0.965593 0.982371 13.750000
v 0.965593 0.982371 13.825000
v 0.965593 0.982371 13.900000
v 0.965593 0.982371 13.975000
v 0.965593 0.982371 14.050000
v 0.965593 0.982371 14.125000
v 0.965593 0.982371 14.200000
v 0.965593 0.982371 14.275000
v 0.965593 0.982371 14.350000
v 0.965593 0.982371 14.425000
v 0.965593 0.982371 14.500000
v 0.968389 0.937629 13.300000
v 0.968389 0.937629 13.375000
v 0.968389 0.940426 13.375000
v 0.968389 0.940426 13.300000
v 0.968389 0.937629 13.450000
v 0.968389 0.940426 13.450000
v 0.968389 0.937629 13.525000
v 0.968389 0.940426 13.525000
v 0.968389 0.937629 13.600000
v 0.968389 0.940426 13.600000
v 0.968389 0.937629 13.675000
v 0.968389 0.940426 13.675000
v 0.968389 0.937629 13.750000
v 0.968389 0.940426 13.750000
v 0.968389 0.937629 13.825000
v 0.968389 0.940426 13.825000
v 0.968389 0.937629 13.900000
v 0.968389 0.940426 13.900000
v 0.968389 0.937629 13.975000
v 0.968389 0.940426 13.975000
v 0.968389 0.937629 14.050000
v 0.968389 0.940426 14.050000
v 0.968389 0.937629 14.125000
v 0.968389 0.940426 14.125000
v 0.968389 0.937629 14.200000
v 0.968389 0.940426 14.200000
v 0.968389 0.937629 14.275000
v 0.968389 0.940426 14.275000
v 0.968389 0.937629 14.350000
v 0.968389 0.940426 14.350000
v 0.968389 0.937629 14.425000
v 0.968389 0.940426 14.425000
v 0.968389 0.937629 14.500000
v 0.968389 0.940426 14.500000
v 0.968389 0.943222 13.300000
v 0.968389 0.943222 14.500000
v 0.968389 0.946018 13.300000
v 0.968389 0.946018 14.500000
v 0.968389 0.948815 13.300000
v 0.968389 0.948815 14.500000
v 0.968389 0.951611 13.300000
v 0.968389 0.951611 14.500000
v 0.968389 0.954407 13.300000
v 0.968389 0.954407 14.500000
v 0.968389 0.957204 13.300000
v 0.968389 0.957204 14.500000
v 0.968389 0.960000 13.300000
v 0.968389 0.960000 14.500000
v 0.968389 0.962796 13.300000
v 0.968389 0.962796 14.500000
v 0.968389 0.965593 13.300000
v 0.968389 0.965593 14.500000
v 0.968389 0.968389 13.300000
v 0.968389 0.968389 14.500000
v 0.968389 0.971185 13.300000
v 0.968389 0.971185 14.500000
v 0.968389 0.973982 13.300000
v 0.968389 0.973982 14.500000
v 0.968389 0.976778 13.300000
v 0.968389 0.976778 14.500000
v 0.968389 0.979574 13.300000
v 0.968389 0.979574 14.500000
v 0.968389 0.979574 13.375000
v 0.968389 0.982371 13.375000
v 0.968389 0.982371 13.300000
v 0.968389 0.979574 13.450000
v 0.968389 0.982371 13.450000
v 0.968389 0.979574 13.525000
v 0.968389 0.982371 13.525000
v 0.968389 0.979574 13.600000
v 0.968389 0.982371 13.600000
v 0.968389 0.979574 13.675000
v 0.968389 0.982371 13.675000
v 0.968389 0.979574 13.750000
v 0.968389 0.982371 13.750000
v 0.968389 0.979574 13.825000
v 0.968389 0.982371 13.825000
v 0.968389 0.979574 13.900000
v 0.968389 0.982371 13.900000
v 0.968389 0.979574 13.975000
v 0.968389 0.982371 13.975000
v 0.968389 0.979574 14.050000
v 0.968389 0.982371 14.050000
v 0.968389 0.979574 14.125000
v 0.968389 0.982371 14.125000
v 0.968389 0.979574 14.200000
v 0.968389 0.982371 14.200000
v 0.968389 0.979574 14.275000
v 0.968389 0.982371 14.275000
v 0.968389 0.979574 14.350000
v 0.968389 0.982371 14.350000
v 0.968389 0.979574 14.425000
v 0.968389 0.982371 14.425000
v 0.968389 0.982371 14.500000
v 0.971185 0.940426 13.300000
v 0.971185 0.940426 13.375000
v 0.971185 0.943222 13.300000
v 0.971185 0.940426 13.450000
v 0.971185 0.940426 13.525000
v 0.971185 0.940426 13.600000
v 0.971185 0.940426 13.675000
v 0.971185 0.940426 13.750000
v 0.971185 0.940426 13.825000
v 0.971185 0.940426 13.900000
v 0.971185 0.940426 13.975000
v 0.971185 0.940426 14.050000
v 0.971185 0.940426 14.125000
v 0.971185 0.940426 14.200000
v 0.971185 0.940426 14.275000
v 0.971185 0.940426 14.350000
v 0.971185 0.940426 14.425000
v 0.971185 0.940426 14.500000
v 0.971185 0.943222 14.500000
v 0.971185 0.946018 13.300000
v 0.971185 0.946018 14.500000
v 0.971185 0.948815 13.300000
v 0.971185 0.948815 14.500000
v 0.971185 0.951611 13.300000
v 0.971185 0.951611 14.500000
v 0.971185 0.954407 13.300000
v 0.971185 0.954407 14.500000
v 0.971185 0.957204 13.300000
v 0.971185 0.957204 14.500000
v 0.971185 0.960000 13.300000
v 0.971185 0.960000 14.500000
v 0.971185 0.962796 13.300000
v 0.971185 0.962796 14.500000
v 0.971185 0.965593 13.300000
v 0.971185 0.965593 14.500000
v 0.971185 0.968389 13.300000
v 0.971185 0.968389 14.500000
v 0.971185 0.971185 13.300000
v 0.971185 0.971185 14.500000
v 0.971185 0.973982 13.300000
v 0.971185 0.973982 14.500000
v 0.971185 0.976778 13.300000
v 0.971185 0.976778 14.500000
v 0.971185 0.979574 13.375000
v 0.971185 0.979574 13.300000
v 0.971185 0.979574 13.450000
v 0.971185 0.979574 13.525000
v 0.971185 0.979574 13.600000
v 0.971185 0.979574 13.675000
v 0.971185 0.979574 13.750000
v 0.971185 0.979574 13.825000
v 0.971185 0.979574 13.900000
v 0.971185 0.979574 13.975000
v 0.971185 0.979574 14.050000
v 0.971185 0.979574 14.125000
v 0.971185 0.979574 14.200000
v 0.971185 0.979574 14.275000
v 0.971185 0.979574 14.350000
v 0.971185 0.979574 14.425000
v 0.971185 0.979574 14.500000
v 0.973982 0.940426 13.300000
v 0.973982 0.940426 13.375000
v 0.973982 0.943222 13.375000
v 0.973982 0.943222 13.300000
v 0.973982 0.940426 13.450000
v 0.973982 0.943222 13.450000
v 0.973982 0.940426 13.525000
v 0.973982 0.943222 13.525000
v 0.973982 0.940426 13.600000
v 0.973982 0.943222 13.600000
v 0.973982 0.940426 13.675000
v 0.973982 0.943222 13.675000
v 0.973982 0.940426 13.750000
v 0.973982 0.943222 13.750000
v 0.973982 0.940426 13.825000
v 0.973982 0.943222 13.825000
v 0.973982 0.940426 13.900000
v 0.973982 0.943222 13.900000
v 0.973982 0.940426 13.975000
v 0.973982 0.943222 13.975000
v 0.973982 0.940426 14.050000
v 0.973982 0.943222 14.050000
v 0.973982 0.940426 14.125000
v 0.973982 0.943222 14.125000
v 0.973982 0.940426 14.200000
v 0.973982 0.943222 14.200000
v 0.973982 0.940426 14.275000
v 0.973982 0.943222 14.275000
v 0.973982 0.940426 14.350000
v 0.973982 0.943222 14.350000
v 0.973982 0.940426 14.425000
v 0.973982 0.943222 14.425000
v 0.973982 0.940426 14.500000
v 0.973982 0.943222 14.500000
v 0.973982 0.946018 13.300000
v 0.973982 0.946018 14.500000
v 0.973982 0.948815 13.300000
v 0.973982 0.948815 14.500000
v 0.973982 0.951611 13.300000
v 0.973982 0.951611 14.500000
v 0.973982 0.954407 13.300000
v 0.973982 0.954407 14.500000
v 0.973982 0.957204 13.300000
v 0.973982 0.957204 14.500000
v 0.973982 0.960000 13.300000
v 0.973982 0.960000 14.500000
v 0.973982 0.962796 13.300000
v 0.973982 0.962796 14.500000
v 0.973982 0.965593 13.300000
v 0.973982 0.965593 14.500000
v 0.973982 0.968389 13.300000
v 0.973982 0.968389 14.500000
v 0.973982 0.971185 13.300000
v 0.973982 0.971185 14.500000
v 0.973982 0.973982 13.300000
v 0.973982 0.973982 14.500000
v 0.973982 0.976778 13.300000
v 0.973982 0.976778 14.500000
v 0.973982 0.976778 13.375000
v 0.973982 0.979574 13.375000
v 0.973982 0.979574 13.300000
v 0.973982 0.976778 13.450000
v 0.973982 0.979574 13.450000
v 0.973982 0.976778 13.525000
v 0.973982 0.979574 13.525000
v 0.973982 0.976778 13.600000
v 0.973982 0.979574 13.600000
v 0.973982 0.976778 13.675000
v 0.973982 0.979574 13.675000
v 0.973982 0.976778 13.750000
v 0.973982 0.979574 13.750000
v 0.973982 0.976778 13.825000
v 0.973982 0.979574 13.825000
v 0.973982 0.976778 13.900000
v 0.973982 0.979574 13.900000
v 0.973982 0.976778 13.975000
v 0.973982 0.979574 13.975000
v 0.973982 0.976778 14.050000
v 0.973982 0.979574 14.050000
v 0.973982 0.976778 14.125000
v 0.973982 0.979574 14.125000
v 0.973982 0.976778 14.200000
v 0.973982 0.979574 14.200000
v 0.973982 0.976778 14.275000
v 0.973982 0.979574 14.275000
v 0.973982 0.976778 14.350000
v 0.973982 0.979574 14.350000
v 0.973982 0.976778 14.425000
v 0.973982 0.979574 14.425000
v 0.973982 0.979574 14.500000
v 0.976778 0.943222 13.300000
v 0.976778 0.943222 13.375000
v 0.976778 0.946018 13.375000
v 0.976778 0.946018 13.300000
v 0.976778 0.943222 13.450000
v 0.976778 0.946018 13.450000
v 0.976778 0.943222 13.525000
v 0.976778 0.946018 13.525000
v 0.976778 0.943222 13.600000
v 0.976778 0.946018 13.600000
v 0.976778 0.943222 13.675000
v 0.976778 0.946018 13.675000
v 0.976778 0.943222 13.750000
v 0.976778 0.946018 13.750000
v 0.976778 0.943222 13.825000
v 0.976778 0.946018 13.825000
v 0.976778 0.943222 13.900000
v 0.976778 0.946018 13.900000
v 0.976778 0.943222 13.975000
v 0.976778 0.946018 13.975000
v 0.976778 0.943222 14.050000
v 0.976778 0.946018 14.050000
v 0.976778 0.943222 14.125000
v 0.976778 0.946018 14.125000
v 0.976778 0.943222 14.200000
v 0.976778 0.946018 14.200000
v 0.976778 0.943222 14.275000
v 0.976778 0.946018 14.275000
v 0.976778 0.943222 14.350000
v 0.976778 0.946018 14.350000
v 0.976778 0.943222 14.425000
v 0.976778 0.946018 14.425000
v 0.976778 0.943222 14.500000
v 0.976778 0.946018 14.500000
v 0.976778 0.948815 13.300000
v 0.976778 0.948815 14.500000
v 0.976778 0.951611 13.300000
v 0.976778 0.951611 14.500000
v 0.976778 0.954407 13.300000
v 0.976778 0.954407 14.500000
v 0.976778 0.957204 13.300000
v 0.976778 0.957204 14.500000
v 0.976778 0.960000 13.300000
v 0.976778 0.960000 14.500000
v 0.976778 0.962796 13.300000
v 0.976778 0.962796 14.500000
v 0.976778 0.965593 13.300000
v 0.976778 0.965593 14.500000
v 0.976778 0.968389 13.300000
v 0.976778 0.968389 14.500000
v 0.976778 0.971185 13.300000
v 0.976778 0.971185 14.500000
v 0.976778 0.973982 13.300000
v 0.976778 0.973982 14.500000
v 0.976778 0.973982 13.375000
v 0.976778 0.976778 13.375000
v 0.976778 0.976778 13.300000
v 0.976778 0.973982 13.450000
v 0.976778 0.976778 13.450000
v 0.976778 0.973982 13.525000
v 0.976778 0.976778 13.525000
v 0.976778 0.973982 13.600000
v 0.976778 0.976778 13.600000
v 0.976778 0.973982 13.675000
v 0.976778 0.976778 13.675000
v 0.976778 0.973982 13.750000
v 0.976778 0.976778 13.750000
v 0.976778 0.973982 13.825000
v 0.976778 0.976778 13.825000
v 0.976778 0.973982 13.900000
v 0.976778 0.976778 13.900000
v 0.976778 0.973982 13.975000
v 0.976778 0.976778 13.975000
v 0.976778 0.973982 14.050000
v 0.976778 0.976778 14.050000
v 0.976778 0.973982 14.125000
v 0.976778 0.976778 14.125000
v 0.976778 0.973982 14.200000
v 0.976778 0.976778 14.200000
v 0.976778 0.973982 14.275000
v 0.976778 0.976778 14.275000
v 0.976778 0.973982 14.350000
v 0.976778 0.976778 14.350000
v 0.976778 0.973982 14.425000
v 0.976778 0.976778 14.425000
v 0.976778 0.976778 14.500000
v 0.979574 0.946018 13.300000
v 0.979574 0.946018 13.375000
v 0.979574 0.948815 13.375000
v 0.979574 0.948815 13.300000
v 0.979574 0.946018 13.450000
v 0.979574 0.948815 13.450000
v 0.979574 0.946018 13.525000
v 0.979574 0.948815 13.525000
v 0.979574 0.946018 13.600000
v 0.979574 0.948815 13.600000
v 0.979574 0.946018 13.675000
v 0.979574 0.948815 13.675000
v 0.979574 0.946018 13.750000
v 0.979574 0.948815 13.750000
v 0.979574 0.946018 13.825000
v 0.979574 0.948815 13.825000
v 0.979574 0.946018 13.900000
v 0.979574 0.948815 13.900000
v 0.979574 0.946018 13.975000
v 0.979574 0.948815 13.975000
v 0.979574 0.946018 14.050000
v 0.979574 0.948815 14.050000
v 0.979574 0.946018 14.125000
v 0.979574 0.948815 14.125000
v 0.979574 0.946018 14.200000
v 0.979574 0.948815 14.200000
v 0.979574 0.946018 14.275000
v 0.979574 0.948815 14.275000
v 0.979574 0.946018 14.350000
v 0.979574 0.948815 14.350000
v 0.979574 0.946018 14.425000
v 0.979574 0.948815 14.425000
v 0.979574 0.946018 14.500000
v 0.979574 0.948815 14.500000
v 0.979574 0.951611 13.375000
v 0.979574 0.951611 13.300000
v 0.979574 0.951611 13.450000
v 0.979574 0.951611 13.525000
v 0.979574 0.951611 13.600000
v 0.979574 0.951611 13.675000
v 0.979574 0.951611 13.750000
v 0.979574 0.951611 13.825000
v 0.979574 0.951611 13.900000
v 0.979574 0.951611 13.975000
v 0.979574 0.951611 14.050000
v 0.979574 0.951611 14.125000
v 0.979574 0.951611 14.200000
v 0.979574 0.951611 14.275000
v 0.979574 0.951611 14.350000
v 0.979574 0.951611 14.425000
v 0.979574 0.951611 14.500000
v 0.979574 0.954407 13.300000
v 0.979574 0.954407 14.500000
v 0.979574 0.957204 13.300000
v 0.979574 0.957204 14.500000
v 0.979574 0.960000 13.300000
v 0.979574 0.960000 14.500000
v 0.979574 0.962796 13.300000
v 0.979574 0.962796 14.500000
v 0.979574 0.965593 13.300000
v 0.979574 0.965593 14.500000
v 0.979574 0.968389 13.300000
v 0.979574 0.968389 14.500000
v 0.979574 0.968389 13.375000
v 0.979574 0.971185 13.375000
v 0.979574 0.971185 13.300000
v 0.979574 0.968389 13.450000
v 0.979574 0.971185 13.450000
v 0.979574 0.968389 13.525000
v 0.979574 0.971185 13.525000
v 0.979574 0.968389 13.600000
v 0.979574 0.971185 13.600000
v 0.979574 0.968389 13.675000
v 0.979574 0.971185 13.675000
v 0.979574 0.968389 13.750000
v 0.979574 0.971185 13.750000
v 0.979574 0.968389 13.825000
v 0.979574 0.971185 13.825000
v 0.979574 0.968389 13.900000
v 0.979574 0.971185 13.900000
v 0.979574 0.968389 13.975000
v 0.979574 0.971185 13.975000
v 0.979574 0.968389 14.050000
v 0.979574 0.971185 14.050000
v 0.979574 0.968389 14.125000
v 0.979574 0.971185 14.125000
v 0.979574 0.968389 14.200000
v 0.979574 0.971185 14.200000
v 0.979574 0.968389 14.275000
v 0.979574 0.971185 14.275000
v 0.979574 0.968389 14.350000
v 0.979574 0.971185 14.350000
v 0.979574 0.968389 14.425000
v 0.979574 0.971185 14.425000
v 0.979574 0.971185 14.500000
v 0.979574 0.973982 13.375000
v 0.979574 0.973982 13.300000
v 0.979574 0.973982 13.450000
v 0.979574 0.973982 13.525000
v 0.979574 0.973982 13.600000
v 0.979574 0.973982 13.675000
v 0.979574 0.973982 13.750000
v 0.979574 0.973982 13.825000
v 0.979574 0.973982 13.900000
v 0.979574 0.973982 13.975000
v 0.979574 0.973982 14.050000
v 0.979574 0.973982 14.125000
v 0.979574 0.973982 14.200000
v 0.979574 0.973982 14.275000
v 0.979574 0.973982 14.350000
v 0.979574 0.973982 14.425000
v 0.979574 0.973982 14.500000
v 0.982371 0.951611 13.300000
v 0.982371 0.951611 13.375000
v 0.982371 0.954407 13.375000
v 0.982371 0.954407 13.300000
v 0.982371 0.951611 13.450000
v 0.982371 0.954407 13.450000
v 0.982371 0.951611 13.525000
v 0.982371 0.954407 13.525000
v 0.982371 0.951611 13.600000
v 0.982371 0.954407 13.600000
v 0.982371 0.951611 13.675000
v 0.982371 0.954407 13.675000
v 0.982371 0.951611 13.750000
v 0.982371 0.954407 13.750000
v 0.982371 0.951611 13.825000
v 0.982371 0.954407 13.825000
v 0.982371 0.951611 13.900000
v 0.982371 0.954407 13.900000
v 0.982371 0.951611 13.975000
v 0.982371 0.954407 13.975000
v 0.982371 0.951611 14.050000
v 0.982371 0.954407 14.050000
v 0.982371 0.951611 14.125000
v 0.982371 0.954407 14.125000
v 0.982371 0.951611 14.200000
v 0.982371 0.954407 14.200000
v 0.982371 0.951611 14.275000
v 0.982371 0.954407 14.275000
v 0.982371 0.951611 14.350000
v 0.982371 0.954407 14.350000
v 0.982371 0.951611 14.425000
v 0.982371 0.954407 14.425000
v 0.982371 0.951611 14.500000
v 0.982371 0.954407 14.500000
v 0.982371 0.957204 13.375000
v 0.982371 0.957204 13.300000
v 0.982371 0.957204 13.450000
v 0.982371 0.957204 13.525000
v 0.982371 0.957204 13.600000
v 0.982371 0.957204 13.675000
v 0.982371 0.957204 13.750000
v 0.982371 0.957204 13.825000
v 0.982371 0.957204 13.900000
v 0.982371 0.957204 13.975000
v 0.982371 0.957204 14.050000
v 0.982371 0.957204 14.125000
v 0.982371 0.957204 14.200000
v 0.982371 0.957204 14.275000
v 0.982371 0.957204 14.350000
v 0.982371 0.957204 14.425000
v 0.982371 0.957204 14.500000
v 0.982371 0.960000 13.375000
v 0.982371 0.960000 13.300000
v 0.982371 0.960000 13.450000
v 0.982371 0.960000 13.525000
v 0.982371 0.960000 13.600000
v 0.982371 0.960000 13.675000
v 0.982371 0.960000 13.750000
v 0.982371 0.960000 13.825000
v 0.982371 0.960000 13.900000
v 0.982371 0.960000 13.975000
v 0.982371 0.960000 14.050000
v 0.982371 0.960000 14.125000
v 0.982371 0.960000 14.200000
v 0.982371 0.960000 14.275000
v 0.982371 0.960000 14.350000
v 0.982371 0.960000 14.425000
v 0.982371 0.960000 14.500000
v 0.982371 0.962796 13.375000
v 0.982371 0.962796 13.300000
v 0.982371 0.962796 13.450000
v 0.982371 0.962796 13.525000
v 0.982371 0.962796 13.600000
v 0.982371 0.962796 13.675000
v 0.982371 0.962796 13.750000
v 0.982371 0.962796 13.825000
v 0.982371 0.962796 13.900000
v 0.982371 0.962796 13.975000
v 0.982371 0.962796 14.050000
v 0.982371 0.962796 14.125000
v 0.982371 0.962796 14.200000
v 0.982371 0.962796 14.275000
v 0.982371 0.962796 14.350000
v 0.982371 0.962796 14.425000
v 0.982371 0.962796 14.500000
v 0.982371 0.965593 13.375000
v 0.982371 0.965593 13.300000
v 0.982371 0.965593 13.450000
v 0.982371 0.965593 13.525000
v 0.982371 0.965593 13.600000
v 0.982371 0.965593 13.675000
v 0.982371 0.965593 13.750000
v 0.982371 0.965593 13.825000
v 0.982371 0.965593 13.900000
v 0.982371 0.965593 13.975000
v 0.982371 0.965593 14.050000
v 0.982371 0.965593 14.125000
v 0.982371 0.965593 14.200000
v 0.982371 0.965593 14.275000
v 0.982371 0.965593 14.350000
v 0.982371 0.965593 14.425000
v 0.982371 0.965593 14.500000
v 0.982371 0.968389 13.375000
v 0.982371 0.968389 13.300000
v 0.982371 0.968389 13.450000
v 0.982371 0.968389 13.525000
v 0.982371 0.968389 13.600000
v 0.982371 0.968389 13.675000
v 0.982371 0.968389 13.750000
v 0.982371 0.968389 13.825000
v 0.982371 0.968389 13.900000
v 0.982371 0.968389 13.975000
v 0.982371 0.968389 14.050000
v 0.982371 0.968389 14.125000
v 0.982371 0.968389 14.200000
v 0.982371 0.968389 14.275000
v 0.982371 0.968389 14.350000
v 0.982371 0.968389 14.425000
v 0.982371 0.968389 14.500000
f 1 2 3
f 1 3 4
f 1 5 6
f 1 6 4
f 1 2 7
f 1 7 5
f 4 3 8
f 4 8 9
f 4 6 10
f 4 10 9
f 9 8 11
f 9 11 12
f 9 10 13
f 9 13 12
f 12 11 14
f 12 14 15
f 12 13 16
f 12 16 15
f 15 14 17
f 15 17 18
f 15 16 19
f 15 19 18
f 18 17 20
f 18 20 21
f 18 19 22
f 18 22 21
f 21 20 23
f 21 23 24
f 21 22 25
f 21 25 24
f 24 23 26
f 24 26 27
f 24 25 28
f 24 28 27
f 27 26 29
f 27 29 30
f 27 28 31
f 27 31 30
f 30 29 32
f 30 32 33
f 30 31 34
f 30 34 33
f 33 32 35
f 33 35 36
f 33 34 37
f 33 37 36
f 36 35 38
f 36 38 39
f 36 37 40
f 36 40 39
f 39 38 41
f 39 41 42
f 39 40 43
f 39 43 42
f 42 41 44
f 42 44 45
f 42 43 46
f 42 46 45
f 45 44 47
f 45 47 48
f 45 46 49
f 45 49 48
f 48 47 50
f 48 50 51
f 48 49 52
f 48 52 51
f 51 52 53
f 51 53 50
f 2 54 55
f 2 55 3
f 2 54 56
f 2 56 7
f 3 55 57
f 3 57 8
f 8 57 58
f 8 58 11
f 11 58 59
f 11 59 14
f 14 59 60
f 14 60 17
f 17 60 61
f 17 61 20
f 20 61 62
f 20 62 23
f 23 62 63
f 23 63 26
f 26 63 64
f 26 64 29
f 29 64 65
f 29 65 32
f 32 65 66
f 32 66 35
f 35 66 67
f 35 67 38
f 38 67 68
f 38 68 41
f 41 68 69
f 41 69 44
f 44 69 70
f 44 70 47
f 47 70 71
f 47 71 50
f 50 53 72
f 50 72 71
f 54 73 74
f 54 74 55
f 54 73 75
f 54 75 56
f 55 74 76
f 55 76 57
f 57 76 77
f 57 77 58
f 58 77 78
f 58 78 59
f 59 78 79
f 59 79 60
f 60 79 80
f 60 80 61
f 61 80 81
f 61 81 62
f 62 81 82
f 62 82 63
f 63 82 83
f 63 83 64
f 64 83 84
f 64 84 65
f 65 84 85
f 65 85 66
f 66 85 86
f 66 86 67
f 67 86 87
f 67 87 68
f 68 87 88
f 68 88 69
f 69 88 89
f 69 89 70
f 70 89 90
f 70 90 71
f 71 72 91
f 71 91 90
f 73 92 93
f 73 93 74
f 73 92 94
f 73 94 75
f 74 93 95
f 74 95 76
f 76 95 96
f 76 96 77
f 77 96 97
f 77 97 78
f 78 97 98
f 78 98 79
f 79 98 99
f 79 99 80
f 80 99 100
f 80 100 81
f 81 100 101
f 81 101 82
f 82 101 102
f 82 102 83
f 83 102 103
f 83 103 84
f 84 103 104
f 84 104 85
f 85 104 105
f 85 105 86
f 86 105 106
f 86 106 87
f 87 106 107
f 87 107 88
f 88 107 108
f 88 108 89
f 89 108 109
f 89 109 90
f 90 91 110
f 90 110 109
f 92 111 112
f 92 112 93
f 92 111 113
f 92 113 94
f 93 112 114
f 93 114 95
f 95 114 115
f 95 115 96
f 96 115 116
f 96 116 97
f 97 116 117
f 97 117 98
f 98 117 118
f 98 118 99
f 99 118 119
f 99 119 100
f 100 119 120
f 100 120 101
f 101 120 121
f 101 121 102
f 102 121 122
f 102 122 103
f 103 122 123
f 103 123 104
f 104 123 124
f 104 124 105
f 105 124 125
f 105 125 106
f 106 125 126
f 106 126 107
f 107 126 127
f 107 127 108
f 108 127 128
f 108 128 109
f 109 110 129
f 109 129 128
f 111 130 131
f 111 131 112
f 130 131 132
f 130 132 133
f 111 130 133
f 111 133 113
f 112 131 134
f 112 134 114
f 131 134 135
f 131 135 132
f 114 134 136
f 114 136 115
f 134 136 137
f 134 137 135
f 115 136 138
f 115 138 116
f 136 138 139
f 136 139 137
f 116 138 140
f 116 140 117
f 138 140 141
f 138 141 139
f 117 140 142
f 117 142 118
f 140 142 143
f 140 143 141
f 118 142 144
f 118 144 119
f 142 144 145
f 142 145 143
f 119 144 146
f 119 146 120
f 144 146 147
f 144 147 145
f 120 146 148
f 120 148 121
f 146 148 149
f 146 149 147
f 121 148 150
f 121 150 122
f 148 150 151
f 148 151 149
f 122 150 152
f 122 152 123
f 150 152 153
f 150 153 151
f 123 152 154
f 123 154 124
f 152 154 155
f 152 155 153
f 124 154 156
f 124 156 125
f 154 156 157
f 154 157 155
f 125 156 158
f 125 158 126
f 156 158 159
f 156 159 157
f 126 158 160
f 126 160 127
f 158 160 161
f 158 161 159
f 127 160 162
f 127 162 128
f 160 162 163
f 160 163 161
f 128 129 163
f 128 163 162
f 164 165 166
f 164 166 167
f 164 168 169
f 164 169 167
f 164 165 170
f 164 170 168
f 167 166 171
f 167 171 172
f 167 169 173
f 167 173 172
f 172 171 174
f 172 174 175
f 172 173 176
f 172 176 175
f 175 174 177
f 175 177 178
f 175 176 179
f 175 179 178
f 178 177 180
f 178 180 181
f 178 179 182
f 178 182 181
f 181 180 183
f 181 183 184
f 181 182 185
f 181 185 184
f 184 183 186
f 184 186 187
f 184 185 188
f 184 188 187
f 187 186 189
f 187 189 190
f 187 188 191
f 187 191 190
f 190 189 192
f 190 192 193
f 190 191 194
f 190 194 193
f 193 192 195
f 193 195 196
f 193 194 197
f 193 197 196
f 196 195 198
f 196 198 199
f 196 197 200
f 196 200 199
f 199 198 201
f 199 201 202
f 199 200 203
f 199 203 202
f 202 201 204
f 202 204 205
f 202 203 206
f 202 206 205
f 205 204 207
f 205 207 208
f 205 206 209
f 205 209 208
f 208 207 210
f 208 210 211
f 208 209 212
f 208 212 211
f 211 210 213
f 211 213 214
f 211 212 215
f 211 215 214
f 214 215 216
f 214 216 213
f 165 5 6
f 165 6 166
f 165 5 217
f 165 217 170
f 166 6 10
f 166 10 171
f 171 10 13
f 171 13 174
f 174 13 16
f 174 16 177
f 177 16 19
f 177 19 180
f 180 19 22
f 180 22 183
f 183 22 25
f 183 25 186
f 186 25 28
f 186 28 189
f 189 28 31
f 189 31 192
f 192 31 34
f 192 34 195
f 195 34 37
f 195 37 198
f 198 37 40
f 198 40 201
f 201 40 43
f 201 43 204
f 204 43 46
f 204 46 207
f 207 46 49
f 207 49 210
f 210 49 52
f 210 52 213
f 213 216 218
f 213 218 52
f 5 7 219
f 5 219 217
f 52 218 220
f 52 220 53
f 7 56 221
f 7 221 219
f 53 220 222
f 53 222 72
f 56 75 223
f 56 223 221
f 72 222 224
f 72 224 91
f 75 94 225
f 75 225 223
f 91 224 226
f 91 226 110
f 94 113 227
f 94 227 225
f 110 226 228
f 110 228 129
f 113 133 229
f 113 229 227
f 129 228 230
f 129 230 163
f 133 231 232
f 133 232 132
f 133 231 233
f 133 233 229
f 132 232 234
f 132 234 135
f 135 234 235
f 135 235 137
f 137 235 236
f 137 236 139
f 139 236 237
f 139 237 141
f 141 237 238
f 141 238 143
f 143 238 239
f 143 239 145
f 145 239 240
f 145 240 147
f 147 240 241
f 147 241 149
f 149 241 242
f 149 242 151
f 151 242 243
f 151 243 153
f 153 243 244
f 153 244 155
f 155 244 245
f 155 245 157
f 157 245 246
f 157 246 159
f 159 246 247
f 159 247 161
f 161 247 248
f 161 248 163
f 163 230 249
f 163 249 248
f 231 250 251
f 231 251 232
f 250 251 252
f 250 252 253
f 231 250 253
f 231 253 233
f 232 251 254
f 232 254 234
f 251 254 255
f 251 255 252
f 234 254 256
f 234 256 235
f 254 256 257
f 254 257 255
f 235 256 258
f 235 258 236
f 256 258 259
f 256 259 257
f 236 258 260
f 236 260 237
f 258 260 261
f 258 261 259
f 237 260 262
f 237 262 238
f 260 262 263
f 260 263 261
f 238 262 264
f 238 264 239
f 262 264 265
f 262 265 263
f 239 264 266
f 239 266 240
f 264 266 267
f 264 267 265
f 240 266 268
f 240 268 241
f 266 268 269
f 266 269 267
f 241 268 270
f 241 270 242
f 268 270 271
f 268 271 269
f 242 270 272
f 242 272 243
f 270 272 273
f 270 273 271
f 243 272 274
f 243 274 244
f 272 274 275
f 272 275 273
f 244 274 276
f 244 276 245
f 274 276 277
f 274 277 275
f 245 276 278
f 245 278 246
f 276 278 279
f 276 279 277
f 246 278 280
f 246 280 247
f 278 280 281
f 278 281 279
f 247 280 282
f 247 282 248
f 280 282 283
f 280 283 281
f 248 249 283
f 248 283 282
f 284 168 169
f 284 169 285
f 284 286 287
f 284 287 285
f 284 168 288
f 284 288 286
f 285 169 173
f 285 173 289
f 285 287 290
f 285 290 289
f 289 173 176
f 289 176 291
f 289 290 292
f 289 292 291
f 291 176 179
f 291 179 293
f 291 292 294
f 291 294 293
f 293 179 182
f 293 182 295
f 293 294 296
f 293 296 295
f 295 182 185
f 295 185 297
f 295 296 298
f 295 298 297
f 297 185 188
f 297 188 299
f 297 298 300
f 297 300 299
f 299 188 191
f 299 191 301
f 299 300 302
f 299 302 301
f 301 191 194
f 301 194 303
f 301 302 304
f 301 304 303
f 303 194 197
f 303 197 305
f 303 304 306
f 303 306 305
f 305 197 200
f 305 200 307
f 305 306 308
f 305 308 307
f 307 200 203
f 307 203 309
f 307 308 310
f 307 310 309
f 309 203 206
f 309 206 311
f 309 310 312
f 309 312 311
f 311 206 209
f 311 209 313
f 311 312 314
f 311 314 313
f 313 209 212
f 313 212 315
f 313 314 316
f 313 316 315
f 315 212 215
f 315 215 317
f 315 316 318
f 315 318 317
f 317 318 319
f 317 319 215
f 168 170 320
f 168 320 288
f 215 319 321
f 215 321 216
f 170 217 322
f 170 322 320
f 216 321 323
f 216 323 218
f 217 219 324
f 217 324 322
f 218 323 325
f 218 325 220
f 219 221 326
f 219 326 324
f 220 325 327
f 220 327 222
f 221 223 328
f 221 328 326
f 222 327 329
f 222 329 224
f 223 225 330
f 223 330 328
f 224 329 331
f 224 331 226
f 225 227 332
f 225 332 330
f 226 331 333
f 226 333 228
f 227 229 334
f 227 334 332
f 228 333 335
f 228 335 230
f 229 233 336
f 229 336 334
f 230 335 337
f 230 337 249
f 233 253 338
f 233 338 336
f 249 337 339
f 249 339 283
f 253 340 341
f 253 341 252
f 340 341 342
f 340 342 343
f 253 340 343
f 253 343 338
f 252 341 344
f 252 344 255
f 341 344 345
f 341 345 342
f 255 344 346
f 255 346 257
f 344 346 347
f 344 347 345
f 257 346 348
f 257 348 259
f 346 348 349
f 346 349 347
f 259 348 350
f 259 350 261
f 348 350 351
f 348 351 349
f 261 350 352
f 261 352 263
f 350 352 353
f 350 353 351
f 263 352 354
f 263 354 265
f 352 354 355
f 352 355 353
f 265 354 356
f 265 356 267
f 354 356 357
f 354 357 355
f 267 356 358
f 267 358 269
f 356 358 359
f 356 359 357
f 269 358 360
f 269 360 271
f 358 360 361
f 358 361 359
f 271 360 362
f 271 362 273
f 360 362 363
f 360 363 361
f 273 362 364
f 273 364 275
f 362 364 365
f 362 365 363
f 275 364 366
f 275 366 277
f 364 366 367
f 364 367 365
f 277 366 368
f 277 368 279
f 366 368 369
f 366 369 367
f 279 368 370
f 279 370 281
f 368 370 371
f 368 371 369
f 281 370 372
f 281 372 283
f 370 372 373
f 370 373 371
f 283 339 373
f 283 373 372
f 374 286 287
f 374 287 375
f 374 376 377
f 374 377 375
f 374 286 378
f 374 378 376
f 375 287 290
f 375 290 379
f 375 377 380
f 375 380 379
f 379 290 292
f 379 292 381
f 379 380 382
f 379 382 381
f 381 292 294
f 381 294 383
f 381 382 384
f 381 384 383
f 383 294 296
f 383 296 385
f 383 384 386
f 383 386 385
f 385 296 298
f 385 298 387
f 385 386 388
f 385 388 387
f 387 298 300
f 387 300 389
f 387 388 390
f 387 390 389
f 389 300 302
f 389 302 391
f 389 390 392
f 389 392 391
f 391 302 304
f 391 304 393
f 391 392 394
f 391 394 393
f 393 304 306
f 393 306 395
f 393 394 396
f 393 396 395
f 395 306 308
f 395 308 397
f 395 396 398
f 395 398 397
f 397 308 310
f 397 310 399
f 397 398 400
f 397 400 399
f 399 310 312
f 399 312 401
f 399 400 402
f 399 402 401
f 401 312 314
f 401 314 403
f 401 402 404
f 401 404 403
f 403 314 316
f 403 316 405
f 403 404 406
f 403 406 405
f 405 316 318
f 405 318 407
f 405 406 408
f 405 408 407
f 407 408 409
f 407 409 318
f 286 288 410
f 286 410 378
f 318 409 411
f 318 411 319
f 288 320 412
f 288 412 410
f 319 411 413
f 319 413 321
f 320 322 414
f 320 414 412
f 321 413 415
f 321 415 323
f 322 324 416
f 322 416 414
f 323 415 417
f 323 417 325
f 324 326 418
f 324 418 416
f 325 417 419
f 325 419 327
f 326 328 420
f 326 420 418
f 327 419 421
f 327 421 329
f 328 330 422
f 328 422 420
f 329 421 423
f 329 423 331
f 330 332 424
f 330 424 422
f 331 423 425
f 331 425 333
f 332 334 426
f 332 426 424
f 333 425 427
f 333 427 335
f 334 336 428
f 334 428 426
f 335 427 429
f 335 429 337
f 336 338 430
f 336 430 428
f 337 429 431
f 337 431 339
f 338 343 432
f 338 432 430
f 339 431 433
f 339 433 373
f 343 434 435
f 343 435 342
f 434 435 436
f 434 436 437
f 343 434 437
f 343 437 432
f 342 435 438
f 342 438 345
f 435 438 439
f 435 439 436
f 345 438 440
f 345 440 347
f 438 440 441
f 438 441 439
f 347 440 442
f 347 442 349
f 440 442 443
f 440 443 441
f 349 442 444
f 349 444 351
f 442 444 445
f 442 445 443
f 351 444 446
f 351 446 353
f 444 446 447
f 444 447 445
f 353 446 448
f 353 448 355
f 446 448 449
f 446 449 447
f 355 448 450
f 355 450 357
f 448 450 451
f 448 451 449
f 357 450 452
f 357 452 359
f 450 452 453
f 450 453 451
f 359 452 454
f 359 454 361
f 452 454 455
f 452 455 453
f 361 454 456
f 361 456 363
f 454 456 457
f 454 457 455
f 363 456 458
f 363 458 365
f 456 458 459
f 456 459 457
f 365 458 460
f 365 460 367
f 458 460 461
f 458 461 459
f 367 460 462
f 367 462 369
f 460 462 463
f 460 463 461
f 369 462 464
f 369 464 371
f 462 464 465
f 462 465 463
f 371 464 466
f 371 466 373
f 464 466 467
f 464 467 465
f 373 433 467
f 373 467 466
f 376 468 469
f 376 469 377
f 376 378 470
f 376 470 468
f 377 469 471
f 377 471 380
f 380 471 472
f 380 472 382
f 382 472 473
f 382 473 384
f 384 473 474
f 384 474 386
f 386 474 475
f 386 475 388
f 388 475 476
f 388 476 390
f 390 476 477
f 390 477 392
f 392 477 478
f 392 478 394
f 394 478 479
f 394 479 396
f 396 479 480
f 396 480 398
f 398 480 481
f 398 481 400
f 400 481 482
f 400 482 402
f 402 482 483
f 402 483 404
f 404 483 484
f 404 484 406
f 406 484 485
f 406 485 408
f 408 485 486
f 408 486 409
f 378 410 487
f 378 487 470
f 409 486 488
f 409 488 411
f 410 412 489
f 410 489 487
f 411 488 490
f 411 490 413
f 412 414 491
f 412 491 489
f 413 490 492
f 413 492 415
f 414 416 493
f 414 493 491
f 415 492 494
f 415 494 417
f 416 418 495
f 416 495 493
f 417 494 496
f 417 496 419
f 418 420 497
f 418 497 495
f 419 496 498
f 419 498 421
f 420 422 499
f 420 499 497
f 421 498 500
f 421 500 423
f 422 424 501
f 422 501 499
f 423 500 502
f 423 502 425
f 424 426 503
f 424 503 501
f 425 502 504
f 425 504 427
f 426 428 505
f 426 505 503
f 427 504 506
f 427 506 429
f 428 430 507
f 428 507 505
f 429 506 508
f 429 508 431
f 430 432 509
f 430 509 507
f 431 508 510
f 431 510 433
f 437 436 511
f 437 511 512
f 432 437 512
f 432 512 509
f 436 439 513
f 436 513 511
f 439 441 514
f 439 514 513
f 441 443 515
f 441 515 514
f 443 445 516
f 443 516 515
f 445 447 517
f 445 517 516
f 447 449 518
f 447 518 517
f 449 451 519
f 449 519 518
f 451 453 520
f 451 520 519
f 453 455 521
f 453 521 520
f 455 457 522
f 455 522 521
f 457 459 523
f 457 523 522
f 459 461 524
f 459 524 523
f 461 463 525
f 461 525 524
f 463 465 526
f 463 526 525
f 465 467 527
f 465 527 526
f 433 510 527
f 433 527 467
f 528 468 469
f 528 469 529
f 528 530 531
f 528 531 529
f 528 468 532
f 528 532 530
f 529 469 471
f 529 471 533
f 529 531 534
f 529 534 533
f 533 471 472
f 533 472 535
f 533 534 536
f 533 536 535
f 535 472 473
f 535 473 537
f 535 536 538
f 535 538 537
f 537 473 474
f 537 474 539
f 537 538 540
f 537 540 539
f 539 474 475
f 539 475 541
f 539 540 542
f 539 542 541
f 541 475 476
f 541 476 543
f 541 542 544
f 541 544 543
f 543 476 477
f 543 477 545
f 543 544 546
f 543 546 545
f 545 477 478
f 545 478 547
f 545 546 548
f 545 548 547
f 547 478 479
f 547 479 549
f 547 548 550
f 547 550 549
f 549 479 480
f 549 480 551
f 549 550 552
f 549 552 551
f 551 480 481
f 551 481 553
f 551 552 554
f 551 554 553
f 553 481 482
f 553 482 555
f 553 554 556
f 553 556 555
f 555 482 483
f 555 483 557
f 555 556 558
f 555 558 557
f 557 483 484
f 557 484 559
f 557 558 560
f 557 560 559
f 559 484 485
f 559 485 561
f 559 560 562
f 559 562 561
f 561 562 563
f 561 563 485
f 468 470 564
f 468 564 532
f 485 563 565
f 485 565 486
f 470 487 566
f 470 566 564
f 486 565 567
f 486 567 488
f 487 489 568
f 487 568 566
f 488 567 569
f 488 569 490
f 489 491 570
f 489 570 568
f 490 569 571
f 490 571 492
f 491 493 572
f 491 572 570
f 492 571 573
f 492 573 494
f 493 495 574
f 493 574 572
f 494 573 575
f 494 575 496
f 495 497 576
f 495 576 574
f 496 575 577
f 496 577 498
f 497 499 578
f 497 578 576
f 498 577 579
f 498 579 500
f 499 501 580
f 499 580 578
f 500 579 581
f 500 581 502
f 501 503 582
f 501 582 580
f 502 581 583
f 502 583 504
f 503 505 584
f 503 584 582
f 504 583 585
f 504 585 506
f 505 507 586
f 505 586 584
f 506 585 587
f 506 587 508
f 507 509 588
f 507 588 586
f 508 587 589
f 508 589 510
f 509 512 590
f 509 590 588
f 510 589 591
f 510 591 527
f 512 592 593
f 512 593 511
f 592 593 594
f 592 594 595
f 512 592 595
f 512 595 590
f 511 593 596
f 511 596 513
f 593 596 597
f 593 597 594
f 513 596 598
f 513 598 514
f 596 598 599
f 596 599 597
f 514 598 600
f 514 600 515
f 598 600 601
f 598 601 599
f 515 600 602
f 515 602 516
f 600 602 603
f 600 603 601
f 516 602 604
f 516 604 517
f 602 604 605
f 602 605 603
f 517 604 606
f 517 606 518
f 604 606 607
f 604 607 605
f 518 606 608
f 518 608 519
f 606 608 609
f 606 609 607
f 519 608 610
f 519 610 520
f 608 610 611
f 608 611 609
f 520 610 612
f 520 612 521
f 610 612 613
f 610 613 611
f 521 612 614
f 521 614 522
f 612 614 615
f 612 615 613
f 522 614 616
f 522 616 523
f 614 616 617
f 614 617 615
f 523 616 618
f 523 618 524
f 616 618 619
f 616 619 617
f 524 618 620
f 524 620 525
f 618 620 621
f 618 621 619
f 525 620 622
f 525 622 526
f 620 622 623
f 620 623 621
f 526 622 624
f 526 624 527
f 622 624 625
f 622 625 623
f 527 591 625
f 527 625 624
f 530 626 627
f 530 627 531
f 530 532 628
f 530 628 626
f 531 627 629
f 531 629 534
f 534 629 630
f 534 630 536
f 536 630 631
f 536 631 538
f 538 631 632
f 538 632 540
f 540 632 633
f 540 633 542
f 542 633 634
f 542 634 544
f 544 634 635
f 544 635 546
f 546 635 636
f 546 636 548
f 548 636 637
f 548 637 550
f 550 637 638
f 550 638 552
f 552 638 639
f 552 639 554
f 554 639 640
f 554 640 556
f 556 640 641
f 556 641 558
f 558 641 642
f 558 642 560
f 560 642 643
f 560 643 562
f 562 643 644
f 562 644 563
f 532 564 645
f 532 645 628
f 563 644 646
f 563 646 565
f 564 566 647
f 564 647 645
f 565 646 648
f 565 648 567
f 566 568 649
f 566 649 647
f 567 648 650
f 567 650 569
f 568 570 651
f 568 651 649
f 569 650 652
f 569 652 571
f 570 572 653
f 570 653 651
f 571 652 654
f 571 654 573
f 572 574 655
f 572 655 653
f 573 654 656
f 573 656 575
f 574 576 657
f 574 657 655
f 575 656 658
f 575 658 577
f 576 578 659
f 576 659 657
f 577 658 660
f 577 660 579
f 578 580 661
f 578 661 659
f 579 660 662
f 579 662 581
f 580 582 663
f 580 663 661
f 581 662 664
f 581 664 583
f 582 584 665
f 582 665 663
f 583 664 666
f 583 666 585
f 584 586 667
f 584 667 665
f 585 666 668
f 585 668 587
f 586 588 669
f 586 669 667
f 587 668 670
f 587 670 589
f 588 590 671
f 588 671 669
f 589 670 672
f 589 672 591
f 595 594 673
f 595 673 674
f 590 595 674
f 590 674 671
f 594 597 675
f 594 675 673
f 597 599 676
f 597 676 675
f 599 601 677
f 599 677 676
f 601 603 678
f 601 678 677
f 603 605 679
f 603 679 678
f 605 607 680
f 605 680 679
f 607 609 681
f 607 681 680
f 609 611 682
f 609 682 681
f 611 613 683
f 611 683 682
f 613 615 684
f 613 684 683
f 615 617 685
f 615 685 684
f 617 619 686
f 617 686 685
f 619 621 687
f 619 687 686
f 621 623 688
f 621 688 687
f 623 625 689
f 623 689 688
f 591 672 689
f 591 689 625
f 626 690 691
f 626 691 627
f 626 628 692
f 626 692 690
f 627 691 693
f 627 693 629
f 629 693 694
f 629 694 630
f 630 694 695
f 630 695 631
f 631 695 696
f 631 696 632
f 632 696 697
f 632 697 633
f 633 697 698
f 633 698 634
f 634 698 699
f 634 699 635
f 635 699 700
f 635 700 636
f 636 700 701
f 636 701 637
f 637 701 702
f 637 702 638
f 638 702 703
f 638 703 639
f 639 703 704
f 639 704 640
f 640 704 705
f 640 705 641
f 641 705 706
f 641 706 642
f 642 706 707
f 642 707 643
f 643 707 708
f 643 708 644
f 628 645 709
f 628 709 692
f 644 708 710
f 644 710 646
f 645 647 711
f 645 711 709
f 646 710 712
f 646 712 648
f 647 649 713
f 647 713 711
f 648 712 714
f 648 714 650
f 649 651 715
f 649 715 713
f 650 714 716
f 650 716 652
f 651 653 717
f 651 717 715
f 652 716 718
f 652 718 654
f 653 655 719
f 653 719 717
f 654 718 720
f 654 720 656
f 655 657 721
f 655 721 719
f 656 720 722
f 656 722 658
f 657 659 723
f 657 723 721
f 658 722 724
f 658 724 660
f 659 661 725
f 659 725 723
f 660 724 726
f 660 726 662
f 661 663 727
f 661 727 725
f 662 726 728
f 662 728 664
f 663 665 729
f 663 729 727
f 664 728 730
f 664 730 666
f 665 667 731
f 665 731 729
f 666 730 732
f 666 732 668
f 667 669 733
f 667 733 731
f 668 732 734
f 668 734 670
f 669 671 735
f 669 735 733
f 670 734 736
f 670 736 672
f 674 673 737
f 674 737 738
f 671 674 738
f 671 738 735
f 673 675 739
f 673 739 737
f 675 676 740
f 675 740 739
f 676 677 741
f 676 741 740
f 677 678 742
f 677 742 741
f 678 679 743
f 678 743 742
f 679 680 744
f 679 744 743
f 680 681 745
f 680 745 744
f 681 682 746
f 681 746 745
f 682 683 747
f 682 747 746
f 683 684 748
f 683 748 747
f 684 685 749
f 684 749 748
f 685 686 750
f 685 750 749
f 686 687 751
f 686 751 750
f 687 688 752
f 687 752 751
f 688 689 753
f 688 753 752
f 672 736 753
f 672 753 689
f 690 754 755
f 690 755 691
f 690 692 756
f 690 756 754
f 691 755 757
f 691 757 693
f 693 757 758
f 693 758 694
f 694 758 759
f 694 759 695
f 695 759 760
f 695 760 696
f 696 760 761
f 696 761 697
f 697 761 762
f 697 762 698
f 698 762 763
f 698 763 699
f 699 763 764
f 699 764 700
f 700 764 765
f 700 765 701
f 701 765 766
f 701 766 702
f 702 766 767
f 702 767 703
f 703 767 768
f 703 768 704
f 704 768 769
f 704 769 705
f 705 769 770
f 705 770 706
f 706 770 771
f 706 771 707
f 707 771 772
f 707 772 708
f 692 709 773
f 692 773 756
f 708 772 774
f 708 774 710
f 709 711 775
f 709 775 773
f 710 774 776
f 710 776 712
f 711 713 777
f 711 777 775
f 712 776 778
f 712 778 714
f 713 715 779
f 713 779 777
f 714 778 780
f 714 780 716
f 715 717 781
f 715 781 779
f 716 780 782
f 716 782 718
f 717 719 783
f 717 783 781
f 718 782 784
f 718 784 720
f 719 721 785
f 719 785 783
f 720 784 786
f 720 786 722
f 721 723 787
f 721 787 785
f 722 786 788
f 722 788 724
f 723 725 789
f 723 789 787
f 724 788 790
f 724 790 726
f 725 727 791
f 725 791 789
f 726 790 792
f 726 792 728
f 727 729 793
f 727 793 791
f 728 792 794
f 728 794 730
f 729 731 795
f 729 795 793
f 730 794 796
f 730 796 732
f 731 733 797
f 731 797 795
f 732 796 798
f 732 798 734
f 733 735 799
f 733 799 797
f 734 798 800
f 734 800 736
f 738 737 801
f 738 801 802
f 735 738 802
f 735 802 799
f 737 739 803
f 737 803 801
f 739 740 804
f 739 804 803
f 740 741 805
f 740 805 804
f 741 742 806
f 741 806 805
f 742 743 807
f 742 807 806
f 743 744 808
f 743 808 807
f 744 745 809
f 744 809 808
f 745 746 810
f 745 810 809
f 746 747 811
f 746 811 810
f 747 748 812
f 747 812 811
f 748 749 813
f 748 813 812
f 749 750 814
f 749 814 813
f 750 751 815
f 750 815 814
f 751 752 816
f 751 816 815
f 752 753 817
f 752 817 816
f 736 800 817
f 736 817 753
f 754 818 819
f 754 819 755
f 754 756 820
f 754 820 818
f 755 819 821
f 755 821 757
f 757 821 822
f 757 822 758
f 758 822 823
f 758 823 759
f 759 823 824
f 759 824 760
f 760 824 825
f 760 825 761
f 761 825 826
f 761 826 762
f 762 826 827
f 762 827 763
f 763 827 828
f 763 828 764
f 764 828 829
f 764 829 765
f 765 829 830
f 765 830 766
f 766 830 831
f 766 831 767
f 767 831 832
f 767 832 768
f 768 832 833
f 768 833 769
f 769 833 834
f 769 834 770
f 770 834 835
f 770 835 771
f 771 835 836
f 771 836 772
f 756 773 837
f 756 837 820
f 772 836 838
f 772 838 774
f 773 775 839
f 773 839 837
f 774 838 840
f 774 840 776
f 775 777 841
f 775 841 839
f 776 840 842
f 776 842 778
f 777 779 843
f 777 843 841
f 778 842 844
f 778 844 780
f 779 781 845
f 779 845 843
f 780 844 846
f 780 846 782
f 781 783 847
f 781 847 845
f 782 846 848
f 782 848 784
f 783 785 849
f 783 849 847
f 784 848 850
f 784 850 786
f 785 787 851
f 785 851 849
f 786 850 852
f 786 852 788
f 787 789 853
f 787 853 851
f 788 852 854
f 788 854 790
f 789 791 855
f 789 855 853
f 790 854 856
f 790 856 792
f 791 793 857
f 791 857 855
f 792 856 858
f 792 858 794
f 793 795 859
f 793 859 857
f 794 858 860
f 794 860 796
f 795 797 861
f 795 861 859
f 796 860 862
f 796 862 798
f 797 799 863
f 797 863 861
f 798 862 864
f 798 864 800
f 802 801 865
f 802 865 866
f 799 802 866
f 799 866 863
f 801 803 867
f 801 867 865
f 803 804 868
f 803 868 867
f 804 805 869
f 804 869 868
f 805 806 870
f 805 870 869
f 806 807 871
f 806 871 870
f 807 808 872
f 807 872 871
f 808 809 873
f 808 873 872
f 809 810 874
f 809 874 873
f 810 811 875
f 810 875 874
f 811 812 876
f 811 876 875
f 812 813 877
f 812 877 876
f 813 814 878
f 813 878 877
f 814 815 879
f 814 879 878
f 815 816 880
f 815 880 879
f 816 817 881
f 816 881 880
f 800 864 881
f 800 881 817
f 882 883 884
f 882 884 885
f 818 882 883
f 818 883 819
f 818 820 885
f 818 885 882
f 883 886 887
f 883 887 884
f 819 883 886
f 819 886 821
f 886 888 889
f 886 889 887
f 821 886 888
f 821 888 822
f 888 890 891
f 888 891 889
f 822 888 890
f 822 890 823
f 890 892 893
f 890 893 891
f 823 890 892
f 823 892 824
f 892 894 895
f 892 895 893
f 824 892 894
f 824 894 825
f 894 896 897
f 894 897 895
f 825 894 896
f 825 896 826
f 896 898 899
f 896 899 897
f 826 896 898
f 826 898 827
f 898 900 901
f 898 901 899
f 827 898 900
f 827 900 828
f 900 902 903
f 900 903 901
f 828 900 902
f 828 902 829
f 902 904 905
f 902 905 903
f 829 902 904
f 829 904 830
f 904 906 907
f 904 907 905
f 830 904 906
f 830 906 831
f 906 908 909
f 906 909 907
f 831 906 908
f 831 908 832
f 908 910 911
f 908 911 909
f 832 908 910
f 832 910 833
f 910 912 913
f 910 913 911
f 833 910 912
f 833 912 834
f 912 914 915
f 912 915 913
f 834 912 914
f 834 914 835
f 835 914 915
f 835 915 836
f 820 837 916
f 820 916 885
f 836 915 917
f 836 917 838
f 837 839 918
f 837 918 916
f 838 917 919
f 838 919 840
f 839 841 920
f 839 920 918
f 840 919 921
f 840 921 842
f 841 843 922
f 841 922 920
f 842 921 923
f 842 923 844
f 843 845 924
f 843 924 922
f 844 923 925
f 844 925 846
f 845 847 926
f 845 926 924
f 846 925 927
f 846 927 848
f 847 849 928
f 847 928 926
f 848 927 929
f 848 929 850
f 849 851 930
f 849 930 928
f 850 929 931
f 850 931 852
f 851 853 932
f 851 932 930
f 852 931 933
f 852 933 854
f 853 855 934
f 853 934 932
f 854 933 935
f 854 935 856
f 855 857 936
f 855 936 934
f 856 935 937
f 856 937 858
f 857 859 938
f 857 938 936
f 858 937 939
f 858 939 860
f 859 861 940
f 859 940 938
f 860 939 941
f 860 941 862
f 861 863 942
f 861 942 940
f 862 941 943
f 862 943 864
f 942 944 945
f 942 945 946
f 866 865 945
f 866 945 946
f 863 866 946
f 863 946 942
f 944 947 948
f 944 948 945
f 865 867 948
f 865 948 945
f 947 949 950
f 947 950 948
f 867 868 950
f 867 950 948
f 949 951 952
f 949 952 950
f 868 869 952
f 868 952 950
f 951 953 954
f 951 954 952
f 869 870 954
f 869 954 952
f 953 955 956
f 953 956 954
f 870 871 956
f 870 956 954
f 955 957 958
f 955 958 956
f 871 872 958
f 871 958 956
f 957 959 960
f 957 960 958
f 872 873 960
f 872 960 958
f 959 961 962
f 959 962 960
f 873 874 962
f 873 962 960
f 961 963 964
f 961 964 962
f 874 875 964
f 874 964 962
f 963 965 966
f 963 966 964
f 875 876 966
f 875 966 964
f 965 967 968
f 965 968 966
f 876 877 968
f 876 968 966
f 967 969 970
f 967 970 968
f 877 878 970
f 877 970 968
f 969 971 972
f 969 972 970
f 878 879 972
f 878 972 970
f 971 973 974
f 971 974 972
f 879 880 974
f 879 974 972
f 973 943 975
f 973 975 974
f 880 881 975
f 880 975 974
f 864 943 975
f 864 975 881
f 885 976 977
f 885 977 884
f 885 916 978
f 885 978 976
f 884 977 979
f 884 979 887
f 887 979 980
f 887 980 889
f 889 980 981
f 889 981 891
f 891 981 982
f 891 982 893
f 893 982 983
f 893 983 895
f 895 983 984
f 895 984 897
f 897 984 985
f 897 985 899
f 899 985 986
f 899 986 901
f 901 986 987
f 901 987 903
f 903 987 988
f 903 988 905
f 905 988 989
f 905 989 907
f 907 989 990
f 907 990 909
f 909 990 991
f 909 991 911
f 911 991 992
f 911 992 913
f 913 992 993
f 913 993 915
f 915 993 994
f 915 994 917
f 916 918 995
f 916 995 978
f 917 994 996
f 917 996 919
f 918 920 997
f 918 997 995
f 919 996 998
f 919 998 921
f 920 922 999
f 920 999 997
f 921 998 1000
f 921 1000 923
f 922 924 1001
f 922 1001 999
f 923 1000 1002
f 923 1002 925
f 924 926 1003
f 924 1003 1001
f 925 1002 1004
f 925 1004 927
f 926 928 1005
f 926 1005 1003
f 927 1004 1006
f 927 1006 929
f 928 930 1007
f 928 1007 1005
f 929 1006 1008
f 929 1008 931
f 930 932 1009
f 930 1009 1007
f 931 1008 1010
f 931 1010 933
f 932 934 1011
f 932 1011 1009
f 933 1010 1012
f 933 1012 935
f 934 936 1013
f 934 1013 1011
f 935 1012 1014
f 935 1014 937
f 936 938 1015
f 936 1015 1013
f 937 1014 1016
f 937 1016 939
f 938 940 1017
f 938 1017 1015
f 939 1016 1018
f 939 1018 941
f 942 944 1019
f 942 1019 1020
f 940 942 1020
f 940 1020 1017
f 944 947 1021
f 944 1021 1019
f 947 949 1022
f 947 1022 1021
f 949 951 1023
f 949 1023 1022
f 951 953 1024
f 951 1024 1023
f 953 955 1025
f 953 1025 1024
f 955 957 1026
f 955 1026 1025
f 957 959 1027
f 957 1027 1026
f 959 961 1028
f 959 1028 1027
f 961 963 1029
f 961 1029 1028
f 963 965 1030
f 963 1030 1029
f 965 967 1031
f 965 1031 1030
f 967 969 1032
f 967 1032 1031
f 969 971 1033
f 969 1033 1032
f 971 973 1034
f 971 1034 1033
f 973 943 1035
f 973 1035 1034
f 941 1018 1035
f 941 1035 943
f 1036 1037 1038
f 1036 1038 1039
f 976 1036 1037
f 976 1037 977
f 976 978 1039
f 976 1039 1036
f 1037 1040 1041
f 1037 1041 1038
f 977 1037 1040
f 977 1040 979
f 1040 1042 1043
f 1040 1043 1041
f 979 1040 1042
f 979 1042 980
f 1042 1044 1045
f 1042 1045 1043
f 980 1042 1044
f 980 1044 981
f 1044 1046 1047
f 1044 1047 1045
f 981 1044 1046
f 981 1046 982
f 1046 1048 1049
f 1046 1049 1047
f 982 1046 1048
f 982 1048 983
f 1048 1050 1051
f 1048 1051 1049
f 983 1048 1050
f 983 1050 984
f 1050 1052 1053
f 1050 1053 1051
f 984 1050 1052
f 984 1052 985
f 1052 1054 1055
f 1052 1055 1053
f 985 1052 1054
f 985 1054 986
f 1054 1056 1057
f 1054 1057 1055
f 986 1054 1056
f 986 1056 987
f 1056 1058 1059
f 1056 1059 1057
f 987 1056 1058
f 987 1058 988
f 1058 1060 1061
f 1058 1061 1059
f 988 1058 1060
f 988 1060 989
f 1060 1062 1063
f 1060 1063 1061
f 989 1060 1062
f 989 1062 990
f 1062 1064 1065
f 1062 1065 1063
f 990 1062 1064
f 990 1064 991
f 1064 1066 1067
f 1064 1067 1065
f 991 1064 1066
f 991 1066 992
f 1066 1068 1069
f 1066 1069 1067
f 992 1066 1068
f 992 1068 993
f 993 1068 1069
f 993 1069 994
f 978 995 1070
f 978 1070 1039
f 994 1069 1071
f 994 1071 996
f 995 997 1072
f 995 1072 1070
f 996 1071 1073
f 996 1073 998
f 997 999 1074
f 997 1074 1072
f 998 1073 1075
f 998 1075 1000
f 999 1001 1076
f 999 1076 1074
f 1000 1075 1077
f 1000 1077 1002
f 1001 1003 1078
f 1001 1078 1076
f 1002 1077 1079
f 1002 1079 1004
f 1003 1005 1080
f 1003 1080 1078
f 1004 1079 1081
f 1004 1081 1006
f 1005 1007 1082
f 1005 1082 1080
f 1006 1081 1083
f 1006 1083 1008
f 1007 1009 1084
f 1007 1084 1082
f 1008 1083 1085
f 1008 1085 1010
f 1009 1011 1086
f 1009 1086 1084
f 1010 1085 1087
f 1010 1087 1012
f 1011 1013 1088
f 1011 1088 1086
f 1012 1087 1089
f 1012 1089 1014
f 1013 1015 1090
f 1013 1090 1088
f 1014 1089 1091
f 1014 1091 1016
f 1015 1017 1092
f 1015 1092 1090
f 1016 1091 1093
f 1016 1093 1018
f 1092 1094 1095
f 1092 1095 1096
f 1020 1019 1095
f 1020 1095 1096
f 1017 1020 1096
f 1017 1096 1092
f 1094 1097 1098
f 1094 1098 1095
f 1019 1021 1098
f 1019 1098 1095
f 1097 1099 1100
f 1097 1100 1098
f 1021 1022 1100
f 1021 1100 1098
f 1099 1101 1102
f 1099 1102 1100
f 1022 1023 1102
f 1022 1102 1100
f 1101 1103 1104
f 1101 1104 1102
f 1023 1024 1104
f 1023 1104 1102
f 1103 1105 1106
f 1103 1106 1104
f 1024 1025 1106
f 1024 1106 1104
f 1105 1107 1108
f 1105 1108 1106
f 1025 1026 1108
f 1025 1108 1106
f 1107 1109 1110
f 1107 1110 1108
f 1026 1027 1110
f 1026 1110 1108
f 1109 1111 1112
f 1109 1112 1110
f 1027 1028 1112
f 1027 1112 1110
f 1111 1113 1114
f 1111 1114 1112
f 1028 1029 1114
f 1028 1114 1112
f 1113 1115 1116
f 1113 1116 1114
f 1029 1030 1116
f 1029 1116 1114
f 1115 1117 1118
f 1115 1118 1116
f 1030 1031 1118
f 1030 1118 1116
f 1117 1119 1120
f 1117 1120 1118
f 1031 1032 1120
f 1031 1120 1118
f 1119 1121 1122
f 1119 1122 1120
f 1032 1033 1122
f 1032 1122 1120
f 1121 1123 1124
f 1121 1124 1122
f 1033 1034 1124
f 1033 1124 1122
f 1123 1093 1125
f 1123 1125 1124
f 1034 1035 1125
f 1034 1125 1124
f 1018 1093 1125
f 1018 1125 1035
f 1126 1127 1128
f 1126 1128 1129
f 1039 1126 1127
f 1039 1127 1038
f 1039 1070 1129
f 1039 1129 1126
f 1127 1130 1131
f 1127 1131 1128
f 1038 1127 1130
f 1038 1130 1041
f 1130 1132 1133
f 1130 1133 1131
f 1041 1130 1132
f 1041 1132 1043
f 1132 1134 1135
f 1132 1135 1133
f 1043 1132 1134
f 1043 1134 1045
f 1134 1136 1137
f 1134 1137 1135
f 1045 1134 1136
f 1045 1136 1047
f 1136 1138 1139
f 1136 1139 1137
f 1047 1136 1138
f 1047 1138 1049
f 1138 1140 1141
f 1138 1141 1139
f 1049 1138 1140
f 1049 1140 1051
f 1140 1142 1143
f 1140 1143 1141
f 1051 1140 1142
f 1051 1142 1053
f 1142 1144 1145
f 1142 1145 1143
f 1053 1142 1144
f 1053 1144 1055
f 1144 1146 1147
f 1144 1147 1145
f 1055 1144 1146
f 1055 1146 1057
f 1146 1148 1149
f 1146 1149 1147
f 1057 1146 1148
f 1057 1148 1059
f 1148 1150 1151
f 1148 1151 1149
f 1059 1148 1150
f 1059 1150 1061
f 1150 1152 1153
f 1150 1153 1151
f 1061 1150 1152
f 1061 1152 1063
f 1152 1154 1155
f 1152 1155 1153
f 1063 1152 1154
f 1063 1154 1065
f 1154 1156 1157
f 1154 1157 1155
f 1065 1154 1156
f 1065 1156 1067
f 1156 1158 1159
f 1156 1159 1157
f 1067 1156 1158
f 1067 1158 1069
f 1069 1158 1159
f 1069 1159 1071
f 1070 1072 1160
f 1070 1160 1129
f 1071 1159 1161
f 1071 1161 1073
f 1072 1074 1162
f 1072 1162 1160
f 1073 1161 1163
f 1073 1163 1075
f 1074 1076 1164
f 1074 1164 1162
f 1075 1163 1165
f 1075 1165 1077
f 1076 1078 1166
f 1076 1166 1164
f 1077 1165 1167
f 1077 1167 1079
f 1078 1080 1168
f 1078 1168 1166
f 1079 1167 1169
f 1079 1169 1081
f 1080 1082 1170
f 1080 1170 1168
f 1081 1169 1171
f 1081 1171 1083
f 1082 1084 1172
f 1082 1172 1170
f 1083 1171 1173
f 1083 1173 1085
f 1084 1086 1174
f 1084 1174 1172
f 1085 1173 1175
f 1085 1175 1087
f 1086 1088 1176
f 1086 1176 1174
f 1087 1175 1177
f 1087 1177 1089
f 1088 1090 1178
f 1088 1178 1176
f 1089 1177 1179
f 1089 1179 1091
f 1178 1180 1181
f 1178 1181 1182
f 1092 1094 1181
f 1092 1181 1182
f 1090 1092 1182
f 1090 1182 1178
f 1180 1183 1184
f 1180 1184 1181
f 1094 1097 1184
f 1094 1184 1181
f 1183 1185 1186
f 1183 1186 1184
f 1097 1099 1186
f 1097 1186 1184
f 1185 1187 1188
f 1185 1188 1186
f 1099 1101 1188
f 1099 1188 1186
f 1187 1189 1190
f 1187 1190 1188
f 1101 1103 1190
f 1101 1190 1188
f 1189 1191 1192
f 1189 1192 1190
f 1103 1105 1192
f 1103 1192 1190
f 1191 1193 1194
f 1191 1194 1192
f 1105 1107 1194
f 1105 1194 1192
f 1193 1195 1196
f 1193 1196 1194
f 1107 1109 1196
f 1107 1196 1194
f 1195 1197 1198
f 1195 1198 1196
f 1109 1111 1198
f 1109 1198 1196
f 1197 1199 1200
f 1197 1200 1198
f 1111 1113 1200
f 1111 1200 1198
f 1199 1201 1202
f 1199 1202 1200
f 1113 1115 1202
f 1113 1202 1200
f 1201 1203 1204
f 1201 1204 1202
f 1115 1117 1204
f 1115 1204 1202
f 1203 1205 1206
f 1203 1206 1204
f 1117 1119 1206
f 1117 1206 1204
f 1205 1207 1208
f 1205 1208 1206
f 1119 1121 1208
f 1119 1208 1206
f 1207 1209 1210
f 1207 1210 1208
f 1121 1123 1210
f 1121 1210 1208
f 1209 1179 1211
f 1209 1211 1210
f 1123 1093 1211
f 1123 1211 1210
f 1091 1179 1211
f 1091 1211 1093
f 1212 1213 1214
f 1212 1214 1215
f 1129 1212 1213
f 1129 1213 1128
f 1129 1160 1215
f 1129 1215 1212
f 1213 1216 1217
f 1213 1217 1214
f 1128 1213 1216
f 1128 1216 1131
f 1216 1218 1219
f 1216 1219 1217
f 1131 1216 1218
f 1131 1218 1133
f 1218 1220 1221
f 1218 1221 1219
f 1133 1218 1220
f 1133 1220 1135
f 1220 1222 1223
f 1220 1223 1221
f 1135 1220 1222
f 1135 1222 1137
f 1222 1224 1225
f 1222 1225 1223
f 1137 1222 1224
f 1137 1224 1139
f 1224 1226 1227
f 1224 1227 1225
f 1139 1224 1226
f 1139 1226 1141
f 1226 1228 1229
f 1226 1229 1227
f 1141 1226 1228
f 1141 1228 1143
f 1228 1230 1231
f 1228 1231 1229
f 1143 1228 1230
f 1143 1230 1145
f 1230 1232 1233
f 1230 1233 1231
f 1145 1230 1232
f 1145 1232 1147
f 1232 1234 1235
f 1232 1235 1233
f 1147 1232 1234
f 1147 1234 1149
f 1234 1236 1237
f 1234 1237 1235
f 1149 1234 1236
f 1149 1236 1151
f 1236 1238 1239
f 1236 1239 1237
f 1151 1236 1238
f 1151 1238 1153
f 1238 1240 1241
f 1238 1241 1239
f 1153 1238 1240
f 1153 1240 1155
f 1240 1242 1243
f 1240 1243 1241
f 1155 1240 1242
f 1155 1242 1157
f 1242 1244 1245
f 1242 1245 1243
f 1157 1242 1244
f 1157 1244 1159
f 1159 1244 1245
f 1159 1245 1161
f 1215 1214 1246
f 1215 1246 1247
f 1160 1162 1247
f 1160 1247 1215
f 1214 1217 1248
f 1214 1248 1246
f 1217 1219 1249
f 1217 1249 1248
f 1219 1221 1250
f 1219 1250 1249
f 1221 1223 1251
f 1221 1251 1250
f 1223 1225 1252
f 1223 1252 1251
f 1225 1227 1253
f 1225 1253 1252
f 1227 1229 1254
f 1227 1254 1253
f 1229 1231 1255
f 1229 1255 1254
f 1231 1233 1256
f 1231 1256 1255
f 1233 1235 1257
f 1233 1257 1256
f 1235 1237 1258
f 1235 1258 1257
f 1237 1239 1259
f 1237 1259 1258
f 1239 1241 1260
f 1239 1260 1259
f 1241 1243 1261
f 1241 1261 1260
f 1243 1245 1262
f 1243 1262 1261
f 1161 1245 1262
f 1161 1262 1163
f 1162 1164 1263
f 1162 1263 1247
f 1163 1262 1264
f 1163 1264 1165
f 1164 1166 1265
f 1164 1265 1263
f 1165 1264 1266
f 1165 1266 1167
f 1166 1168 1267
f 1166 1267 1265
f 1167 1266 1268
f 1167 1268 1169
f 1168 1170 1269
f 1168 1269 1267
f 1169 1268 1270
f 1169 1270 1171
f 1170 1172 1271
f 1170 1271 1269
f 1171 1270 1272
f 1171 1272 1173
f 1172 1174 1273
f 1172 1273 1271
f 1173 1272 1274
f 1173 1274 1175
f 1273 1275 1276
f 1273 1276 1277
f 1174 1176 1277
f 1174 1277 1273
f 1275 1278 1279
f 1275 1279 1276
f 1278 1280 1281
f 1278 1281 1279
f 1280 1282 1283
f 1280 1283 1281
f 1282 1284 1285
f 1282 1285 1283
f 1284 1286 1287
f 1284 1287 1285
f 1286 1288 1289
f 1286 1289 1287
f 1288 1290 1291
f 1288 1291 1289
f 1290 1292 1293
f 1290 1293 1291
f 1292 1294 1295
f 1292 1295 1293
f 1294 1296 1297
f 1294 1297 1295
f 1296 1298 1299
f 1296 1299 1297
f 1298 1300 1301
f 1298 1301 1299
f 1300 1302 1303
f 1300 1303 1301
f 1302 1304 1305
f 1302 1305 1303
f 1304 1274 1306
f 1304 1306 1305
f 1175 1274 1306
f 1175 1306 1177
f 1277 1276 1307
f 1277 1307 1308
f 1178 1180 1307
f 1178 1307 1308
f 1176 1178 1308
f 1176 1308 1277
f 1276 1279 1309
f 1276 1309 1307
f 1180 1183 1309
f 1180 1309 1307
f 1279 1281 1310
f 1279 1310 1309
f 1183 1185 1310
f 1183 1310 1309
f 1281 1283 1311
f 1281 1311 1310
f 1185 1187 1311
f 1185 1311 1310
f 1283 1285 1312
f 1283 1312 1311
f 1187 1189 1312
f 1187 1312 1311
f 1285 1287 1313
f 1285 1313 1312
f 1189 1191 1313
f 1189 1313 1312
f 1287 1289 1314
f 1287 1314 1313
f 1191 1193 1314
f 1191 1314 1313
f 1289 1291 1315
f 1289 1315 1314
f 1193 1195 1315
f 1193 1315 1314
f 1291 1293 1316
f 1291 1316 1315
f 1195 1197 1316
f 1195 1316 1315
f 1293 1295 1317
f 1293 1317 1316
f 1197 1199 1317
f 1197 1317 1316
f 1295 1297 1318
f 1295 1318 1317
f 1199 1201 1318
f 1199 1318 1317
f 1297 1299 1319
f 1297 1319 1318
f 1201 1203 1319
f 1201 1319 1318
f 1299 1301 1320
f 1299 1320 1319
f 1203 1205 1320
f 1203 1320 1319
f 1301 1303 1321
f 1301 1321 1320
f 1205 1207 1321
f 1205 1321 1320
f 1303 1305 1322
f 1303 1322 1321
f 1207 1209 1322
f 1207 1322 1321
f 1305 1306 1323
f 1305 1323 1322
f 1209 1179 1323
f 1209 1323 1322
f 1177 1306 1323
f 1177 1323 1179
f 1324 1325 1326
f 1324 1326 1327
f 1247 1324 1325
f 1247 1325 1246
f 1247 1263 1327
f 1247 1327 1324
f 1325 1328 1329
f 1325 1329 1326
f 1246 1325 1328
f 1246 1328 1248
f 1328 1330 1331
f 1328 1331 1329
f 1248 1328 1330
f 1248 1330 1249
f 1330 1332 1333
f 1330 1333 1331
f 1249 1330 1332
f 1249 1332 1250
f 1332 1334 1335
f 1332 1335 1333
f 1250 1332 1334
f 1250 1334 1251
f 1334 1336 1337
f 1334 1337 1335
f 1251 1334 1336
f 1251 1336 1252
f 1336 1338 1339
f 1336 1339 1337
f 1252 1336 1338
f 1252 1338 1253
f 1338 1340 1341
f 1338 1341 1339
f 1253 1338 1340
f 1253 1340 1254
f 1340 1342 1343
f 1340 1343 1341
f 1254 1340 1342
f 1254 1342 1255
f 1342 1344 1345
f 1342 1345 1343
f 1255 1342 1344
f 1255 1344 1256
f 1344 1346 1347
f 1344 1347 1345
f 1256 1344 1346
f 1256 1346 1257
f 1346 1348 1349
f 1346 1349 1347
f 1257 1346 1348
f 1257 1348 1258
f 1348 1350 1351
f 1348 1351 1349
f 1258 1348 1350
f 1258 1350 1259
f 1350 1352 1353
f 1350 1353 1351
f 1259 1350 1352
f 1259 1352 1260
f 1352 1354 1355
f 1352 1355 1353
f 1260 1352 1354
f 1260 1354 1261
f 1354 1356 1357
f 1354 1357 1355
f 1261 1354 1356
f 1261 1356 1262
f 1262 1356 1357
f 1262 1357 1264
f 1327 1326 1358
f 1327 1358 1359
f 1263 1265 1359
f 1263 1359 1327
f 1326 1329 1360
f 1326 1360 1358
f 1329 1331 1361
f 1329 1361 1360
f 1331 1333 1362
f 1331 1362 1361
f 1333 1335 1363
f 1333 1363 1362
f 1335 1337 1364
f 1335 1364 1363
f 1337 1339 1365
f 1337 1365 1364
f 1339 1341 1366
f 1339 1366 1365
f 1341 1343 1367
f 1341 1367 1366
f 1343 1345 1368
f 1343 1368 1367
f 1345 1347 1369
f 1345 1369 1368
f 1347 1349 1370
f 1347 1370 1369
f 1349 1351 1371
f 1349 1371 1370
f 1351 1353 1372
f 1351 1372 1371
f 1353 1355 1373
f 1353 1373 1372
f 1355 1357 1374
f 1355 1374 1373
f 1264 1357 1374
f 1264 1374 1266
f 1359 1358 1375
f 1359 1375 1376
f 1265 1267 1376
f 1265 1376 1359
f 1358 1360 1377
f 1358 1377 1375
f 1360 1361 1378
f 1360 1378 1377
f 1361 1362 1379
f 1361 1379 1378
f 1362 1363 1380
f 1362 1380 1379
f 1363 1364 1381
f 1363 1381 1380
f 1364 1365 1382
f 1364 1382 1381
f 1365 1366 1383
f 1365 1383 1382
f 1366 1367 1384
f 1366 1384 1383
f 1367 1368 1385
f 1367 1385 1384
f 1368 1369 1386
f 1368 1386 1385
f 1369 1370 1387
f 1369 1387 1386
f 1370 1371 1388
f 1370 1388 1387
f 1371 1372 1389
f 1371 1389 1388
f 1372 1373 1390
f 1372 1390 1389
f 1373 1374 1391
f 1373 1391 1390
f 1266 1374 1391
f 1266 1391 1268
f 1376 1375 1392
f 1376 1392 1393
f 1267 1269 1393
f 1267 1393 1376
f 1375 1377 1394
f 1375 1394 1392
f 1377 1378 1395
f 1377 1395 1394
f 1378 1379 1396
f 1378 1396 1395
f 1379 1380 1397
f 1379 1397 1396
f 1380 1381 1398
f 1380 1398 1397
f 1381 1382 1399
f 1381 1399 1398
f 1382 1383 1400
f 1382 1400 1399
f 1383 1384 1401
f 1383 1401 1400
f 1384 1385 1402
f 1384 1402 1401
f 1385 1386 1403
f 1385 1403 1402
f 1386 1387 1404
f 1386 1404 1403
f 1387 1388 1405
f 1387 1405 1404
f 1388 1389 1406
f 1388 1406 1405
f 1389 1390 1407
f 1389 1407 1406
f 1390 1391 1408
f 1390 1408 1407
f 1268 1391 1408
f 1268 1408 1270
f 1393 1392 1409
f 1393 1409 1410
f 1269 1271 1410
f 1269 1410 1393
f 1392 1394 1411
f 1392 1411 1409
f 1394 1395 1412
f 1394 1412 1411
f 1395 1396 1413
f 1395 1413 1412
f 1396 1397 1414
f 1396 1414 1413
f 1397 1398 1415
f 1397 1415 1414
f 1398 1399 1416
f 1398 1416 1415
f 1399 1400 1417
f 1399 1417 1416
f 1400 1401 1418
f 1400 1418 1417
f 1401 1402 1419
f 1401 1419 1418
f 1402 1403 1420
f 1402 1420 1419
f 1403 1404 1421
f 1403 1421 1420
f 1404 1405 1422
f 1404 1422 1421
f 1405 1406 1423
f 1405 1423 1422
f 1406 1407 1424
f 1406 1424 1423
f 1407 1408 1425
f 1407 1425 1424
f 1270 1408 1425
f 1270 1425 1272
f 1410 1409 1426
f 1410 1426 1427
f 1273 1275 1426
f 1273 1426 1427
f 1271 1273 1427
f 1271 1427 1410
f 1409 1411 1428
f 1409 1428 1426
f 1275 1278 1428
f 1275 1428 1426
f 1411 1412 1429
f 1411 1429 1428
f 1278 1280 1429
f 1278 1429 1428
f 1412 1413 1430
f 1412 1430 1429
f 1280 1282 1430
f 1280 1430 1429
f 1413 1414 1431
f 1413 1431 1430
f 1282 1284 1431
f 1282 1431 1430
f 1414 1415 1432
f 1414 1432 1431
f 1284 1286 1432
f 1284 1432 1431
f 1415 1416 1433
f 1415 1433 1432
f 1286 1288 1433
f 1286 1433 1432
f 1416 1417 1434
f 1416 1434 1433
f 1288 1290 1434
f 1288 1434 1433
f 1417 1418 1435
f 1417 1435 1434
f 1290 1292 1435
f 1290 1435 1434
f 1418 1419 1436
f 1418 1436 1435
f 1292 1294 1436
f 1292 1436 1435
f 1419 1420 1437
f 1419 1437 1436
f 1294 1296 1437
f 1294 1437 1436
f 1420 1421 1438
f 1420 1438 1437
f 1296 1298 1438
f 1296 1438 1437
f 1421 1422 1439
f 1421 1439 1438
f 1298 1300 1439
f 1298 1439 1438
f 1422 1423 1440
f 1422 1440 1439
f 1300 1302 1440
f 1300 1440 1439
f 1423 1424 1441
f 1423 1441 1440
f 1302 1304 1441
f 1302 1441 1440
f 1424 1425 1442
f 1424 1442 1441
f 1304 1274 1442
f 1304 1442 1441
f 1272 1425 1442
f 1272 1442 1274
