o [4B] 3D Diagram - S2-04 Group A_30
v -6.550000 7.000000 5.000000
v -6.542500 7.000000 5.000000
v -6.535000 7.000000 5.000000
v -6.527500 7.000000 5.000000
v -6.520000 7.000000 5.000000
v -6.512500 7.000000 5.000000
v -6.505000 7.000000 5.000000
v -6.497500 7.000000 5.000000
v -6.490000 7.000000 5.000000
v -6.482500 7.000000 5.000000
v -6.475000 7.000000 5.000000
v -6.467500 7.000000 5.000000
v -6.460000 7.000000 5.000000
v -6.452500 7.000000 5.000000
v -6.445000 7.000000 5.000000
v -6.437500 7.000000 5.000000
v -6.430000 7.000000 5.000000
v -6.422500 7.000000 5.000000
v -6.415000 7.000000 5.000000
v -6.407500 7.000000 5.000000
v -6.400000 7.000000 5.000000
v -6.392500 7.000000 5.000000
v -6.385000 7.000000 5.000000
v -6.377500 7.000000 5.000000
v -6.370000 7.000000 5.000000
v -6.362500 7.000000 5.000000
v -6.355000 7.000000 5.000000
v -6.347500 7.000000 5.000000
v -6.340000 7.000000 5.000000
v -6.332500 7.000000 5.000000
v -6.325000 7.000000 5.000000
v -6.317500 7.000000 5.000000
v -6.310000 7.000000 5.000000
v -6.302500 7.000000 5.000000
v -6.295000 7.000000 5.000000
v -6.287500 7.000000 5.000000
v -6.280000 7.000000 5.000000
v -6.272500 7.000000 5.000000
v -6.265000 7.000000 5.000000
v -6.257500 7.000000 5.000000
v -6.250000 7.000000 5.000000
v -6.555540 7.070396 5.000000
v -6.548133 7.071569 5.000000
v -6.540725 7.072742 5.000000
v -6.533317 7.073915 5.000000
v -6.525910 7.075089 5.000000
v -6.518502 7.076262 5.000000
v -6.511094 7.077435 5.000000
v -6.503687 7.078608 5.000000
v -6.496279 7.079782 5.000000
v -6.488871 7.080955 5.000000
v -6.481464 7.082128 5.000000
v -6.474056 7.083301 5.000000
v -6.466648 7.084475 5.000000
v -6.459241 7.085648 5.000000
v -6.451833 7.086821 5.000000
v -6.444425 7.087994 5.000000
v -6.437018 7.089168 5.000000
v -6.429610 7.090341 5.000000
v -6.422202 7.091514 5.000000
v -6.414795 7.092687 5.000000
v -6.407387 7.093861 5.000000
v -6.399979 7.095034 5.000000
v -6.392572 7.096207 5.000000
v -6.385164 7.097380 5.000000
v -6.377756 7.098554 5.000000
v -6.370349 7.099727 5.000000
v -6.362941 7.100900 5.000000
v -6.355533 7.102073 5.000000
v -6.348126 7.103247 5.000000
v -6.340718 7.104420 5.000000
v -6.333310 7.105593 5.000000
v -6.325903 7.106767 5.000000
v -6.318495 7.107940 5.000000
v -6.311087 7.109113 5.000000
v -6.303680 7.110286 5.000000
v -6.296272 7.111460 5.000000
v -6.288864 7.112633 5.000000
v -6.281457 7.113806 5.000000
v -6.274049 7.114979 5.000000
v -6.266641 7.116153 5.000000
v -6.259234 7.117326 5.000000
v -6.572025 7.139058 5.000000
v -6.564892 7.141375 5.000000
v -6.557759 7.143693 5.000000
v -6.550626 7.146011 5.000000
v -6.543493 7.148328 5.000000
v -6.536360 7.150646 5.000000
v -6.529227 7.152963 5.000000
v -6.522094 7.155281 5.000000
v -6.514961 7.157599 5.000000
v -6.507828 7.159916 5.000000
v -6.500695 7.162234 5.000000
v -6.493562 7.164552 5.000000
v -6.486429 7.166869 5.000000
v -6.479297 7.169187 5.000000
v -6.472164 7.171504 5.000000
v -6.465031 7.173822 5.000000
v -6.457898 7.176140 5.000000
v -6.450765 7.178457 5.000000
v -6.443632 7.180775 5.000000
v -6.436499 7.183093 5.000000
v -6.429366 7.185410 5.000000
v -6.422233 7.187728 5.000000
v -6.415100 7.190045 5.000000
v -6.407967 7.192363 5.000000
v -6.400834 7.194681 5.000000
v -6.393701 7.196998 5.000000
v -6.386569 7.199316 5.000000
v -6.379436 7.201634 5.000000
v -6.372303 7.203951 5.000000
v -6.365170 7.206269 5.000000
v -6.358037 7.208586 5.000000
v -6.350904 7.210904 5.000000
v -6.343771 7.213222 5.000000
v -6.336638 7.215539 5.000000
v -6.329505 7.217857 5.000000
v -6.322372 7.220175 5.000000
v -6.315239 7.222492 5.000000
v -6.308106 7.224810 5.000000
v -6.300973 7.227127 5.000000
v -6.293841 7.229445 5.000000
v -6.286708 7.231763 5.000000
v -6.599047 7.204296 5.000000
v -6.592365 7.207701 5.000000
v -6.585682 7.211106 5.000000
v -6.578999 7.214511 5.000000
v -6.572317 7.217915 5.000000
v -6.565634 7.221320 5.000000
v -6.558952 7.224725 5.000000
v -6.552269 7.228130 5.000000
v -6.545587 7.231535 5.000000
v -6.538904 7.234940 5.000000
v -6.532222 7.238345 5.000000
v -6.525539 7.241750 5.000000
v -6.518856 7.245155 5.000000
v -6.512174 7.248560 5.000000
v -6.505491 7.251965 5.000000
v -6.498809 7.255370 5.000000
v -6.492126 7.258775 5.000000
v -6.485444 7.262180 5.000000
v -6.478761 7.265584 5.000000
v -6.472079 7.268989 5.000000
v -6.465396 7.272394 5.000000
v -6.458714 7.275799 5.000000
v -6.452031 7.279204 5.000000
v -6.445348 7.282609 5.000000
v -6.438666 7.286014 5.000000
v -6.431983 7.289419 5.000000
v -6.425301 7.292824 5.000000
v -6.418618 7.296229 5.000000
v -6.411936 7.299634 5.000000
v -6.405253 7.303039 5.000000
v -6.398571 7.306444 5.000000
v -6.391888 7.309849 5.000000
v -6.385205 7.313253 5.000000
v -6.378523 7.316658 5.000000
v -6.371840 7.320063 5.000000
v -6.365158 7.323468 5.000000
v -6.358475 7.326873 5.000000
v -6.351793 7.330278 5.000000
v -6.345110 7.333683 5.000000
v -6.338428 7.337088 5.000000
v -6.331745 7.340493 5.000000
v -6.635942 7.264503 5.000000
v -6.629875 7.268912 5.000000
v -6.623807 7.273320 5.000000
v -6.617739 7.277729 5.000000
v -6.611672 7.282137 5.000000
v -6.605604 7.286545 5.000000
v -6.599537 7.290954 5.000000
v -6.593469 7.295362 5.000000
v -6.587401 7.299770 5.000000
v -6.581334 7.304179 5.000000
v -6.575266 7.308587 5.000000
v -6.569198 7.312996 5.000000
v -6.563131 7.317404 5.000000
v -6.557063 7.321812 5.000000
v -6.550996 7.326221 5.000000
v -6.544928 7.330629 5.000000
v -6.538860 7.335038 5.000000
v -6.532793 7.339446 5.000000
v -6.526725 7.343854 5.000000
v -6.520657 7.348263 5.000000
v -6.514590 7.352671 5.000000
v -6.508522 7.357080 5.000000
v -6.502455 7.361488 5.000000
v -6.496387 7.365896 5.000000
v -6.490319 7.370305 5.000000
v -6.484252 7.374713 5.000000
v -6.478184 7.379121 5.000000
v -6.472116 7.383530 5.000000
v -6.466049 7.387938 5.000000
v -6.459981 7.392347 5.000000
v -6.453914 7.396755 5.000000
v -6.447846 7.401163 5.000000
v -6.441778 7.405572 5.000000
v -6.435711 7.409980 5.000000
v -6.429643 7.414389 5.000000
v -6.423575 7.418797 5.000000
v -6.417508 7.423205 5.000000
v -6.411440 7.427614 5.000000
v -6.405373 7.432022 5.000000
v -6.399305 7.436431 5.000000
v -6.393237 7.440839 5.000000
v -6.681802 7.318198 5.000000
v -6.676499 7.323501 5.000000
v -6.671195 7.328805 5.000000
v -6.665892 7.334108 5.000000
v -6.660589 7.339411 5.000000
v -6.655285 7.344715 5.000000
v -6.649982 7.350018 5.000000
v -6.644679 7.355321 5.000000
v -6.639376 7.360624 5.000000
v -6.634072 7.365928 5.000000
v -6.628769 7.371231 5.000000
v -6.623466 7.376534 5.000000
v -6.618162 7.381838 5.000000
v -6.612859 7.387141 5.000000
v -6.607556 7.392444 5.000000
v -6.602252 7.397748 5.000000
v -6.596949 7.403051 5.000000
v -6.591646 7.408354 5.000000
v -6.586343 7.413657 5.000000
v -6.581039 7.418961 5.000000
v -6.575736 7.424264 5.000000
v -6.570433 7.429567 5.000000
v -6.565129 7.434871 5.000000
v -6.559826 7.440174 5.000000
v -6.554523 7.445477 5.000000
v -6.549219 7.450781 5.000000
v -6.543916 7.456084 5.000000
v -6.538613 7.461387 5.000000
v -6.533310 7.466690 5.000000
v -6.528006 7.471994 5.000000
v -6.522703 7.477297 5.000000
v -6.517400 7.482600 5.000000
v -6.512096 7.487904 5.000000
v -6.506793 7.493207 5.000000
v -6.501490 7.498510 5.000000
v -6.496186 7.503814 5.000000
v -6.490883 7.509117 5.000000
v -6.485580 7.514420 5.000000
v -6.480277 7.519723 5.000000
v -6.474973 7.525027 5.000000
v -6.469670 7.530330 5.000000
v -6.735497 7.364058 5.000000
v -6.731088 7.370125 5.000000
v -6.726680 7.376193 5.000000
v -6.722271 7.382261 5.000000
v -6.717863 7.388328 5.000000
v -6.713455 7.394396 5.000000
v -6.709046 7.400463 5.000000
v -6.704638 7.406531 5.000000
v -6.700230 7.412599 5.000000
v -6.695821 7.418666 5.000000
v -6.691413 7.424734 5.000000
v -6.687004 7.430802 5.000000
v -6.682596 7.436869 5.000000
v -6.678188 7.442937 5.000000
v -6.673779 7.449004 5.000000
v -6.669371 7.455072 5.000000
v -6.664962 7.461140 5.000000
v -6.660554 7.467207 5.000000
v -6.656146 7.473275 5.000000
v -6.651737 7.479343 5.000000
v -6.647329 7.485410 5.000000
v -6.642920 7.491478 5.000000
v -6.638512 7.497545 5.000000
v -6.634104 7.503613 5.000000
v -6.629695 7.509681 5.000000
v -6.625287 7.515748 5.000000
v -6.620879 7.521816 5.000000
v -6.616470 7.527884 5.000000
v -6.612062 7.533951 5.000000
v -6.607653 7.540019 5.000000
v -6.603245 7.546086 5.000000
v -6.598837 7.552154 5.000000
v -6.594428 7.558222 5.000000
v -6.590020 7.564289 5.000000
v -6.585611 7.570357 5.000000
v -6.581203 7.576425 5.000000
v -6.576795 7.582492 5.000000
v -6.572386 7.588560 5.000000
v -6.567978 7.594627 5.000000
v -6.563569 7.600695 5.000000
v -6.559161 7.606763 5.000000
v -6.795704 7.400953 5.000000
v -6.792299 7.407635 5.000000
v -6.788894 7.414318 5.000000
v -6.785489 7.421001 5.000000
v -6.782085 7.427683 5.000000
v -6.778680 7.434366 5.000000
v -6.775275 7.441048 5.000000
v -6.771870 7.447731 5.000000
v -6.768465 7.454413 5.000000
v -6.765060 7.461096 5.000000
v -6.761655 7.467778 5.000000
v -6.758250 7.474461 5.000000
v -6.754845 7.481144 5.000000
v -6.751440 7.487826 5.000000
v -6.748035 7.494509 5.000000
v -6.744630 7.501191 5.000000
v -6.741225 7.507874 5.000000
v -6.737820 7.514556 5.000000
v -6.734416 7.521239 5.000000
v -6.731011 7.527921 5.000000
v -6.727606 7.534604 5.000000
v -6.724201 7.541286 5.000000
v -6.720796 7.547969 5.000000
v -6.717391 7.554652 5.000000
v -6.713986 7.561334 5.000000
v -6.710581 7.568017 5.000000
v -6.707176 7.574699 5.000000
v -6.703771 7.581382 5.000000
v -6.700366 7.588064 5.000000
v -6.696961 7.594747 5.000000
v -6.693556 7.601429 5.000000
v -6.690151 7.608112 5.000000
v -6.686747 7.614795 5.000000
v -6.683342 7.621477 5.000000
v -6.679937 7.628160 5.000000
v -6.676532 7.634842 5.000000
v -6.673127 7.641525 5.000000
v -6.669722 7.648207 5.000000
v -6.666317 7.654890 5.000000
v -6.662912 7.661572 5.000000
v -6.659507 7.668255 5.000000
v -6.860942 7.427975 5.000000
v -6.858625 7.435108 5.000000
v -6.856307 7.442241 5.000000
v -6.853989 7.449374 5.000000
v -6.851672 7.456507 5.000000
v -6.849354 7.463640 5.000000
v -6.847037 7.470773 5.000000
v -6.844719 7.477906 5.000000
v -6.842401 7.485039 5.000000
v -6.840084 7.492172 5.000000
v -6.837766 7.499305 5.000000
v -6.835448 7.506438 5.000000
v -6.833131 7.513571 5.000000
v -6.830813 7.520703 5.000000
v -6.828496 7.527836 5.000000
v -6.826178 7.534969 5.000000
v -6.823860 7.542102 5.000000
v -6.821543 7.549235 5.000000
v -6.819225 7.556368 5.000000
v -6.816907 7.563501 5.000000
v -6.814590 7.570634 5.000000
v -6.812272 7.577767 5.000000
v -6.809955 7.584900 5.000000
v -6.807637 7.592033 5.000000
v -6.805319 7.599166 5.000000
v -6.803002 7.606299 5.000000
v -6.800684 7.613431 5.000000
v -6.798366 7.620564 5.000000
v -6.796049 7.627697 5.000000
v -6.793731 7.634830 5.000000
v -6.791414 7.641963 5.000000
v -6.789096 7.649096 5.000000
v -6.786778 7.656229 5.000000
v -6.784461 7.663362 5.000000
v -6.782143 7.670495 5.000000
v -6.779825 7.677628 5.000000
v -6.777508 7.684761 5.000000
v -6.775190 7.691894 5.000000
v -6.772873 7.699027 5.000000
v -6.770555 7.706159 5.000000
v -6.768237 7.713292 5.000000
v -6.929604 7.444460 5.000000
v -6.928431 7.451867 5.000000
v -6.927258 7.459275 5.000000
v -6.926085 7.466683 5.000000
v -6.924911 7.474090 5.000000
v -6.923738 7.481498 5.000000
v -6.922565 7.488906 5.000000
v -6.921392 7.496313 5.000000
v -6.920218 7.503721 5.000000
v -6.919045 7.511129 5.000000
v -6.917872 7.518536 5.000000
v -6.916699 7.525944 5.000000
v -6.915525 7.533352 5.000000
v -6.914352 7.540759 5.000000
v -6.913179 7.548167 5.000000
v -6.912006 7.555575 5.000000
v -6.910832 7.562982 5.000000
v -6.909659 7.570390 5.000000
v -6.908486 7.577798 5.000000
v -6.907313 7.585205 5.000000
v -6.906139 7.592613 5.000000
v -6.904966 7.600021 5.000000
v -6.903793 7.607428 5.000000
v -6.902620 7.614836 5.000000
v -6.901446 7.622244 5.000000
v -6.900273 7.629651 5.000000
v -6.899100 7.637059 5.000000
v -6.897927 7.644467 5.000000
v -6.896753 7.651874 5.000000
v -6.895580 7.659282 5.000000
v -6.894407 7.666690 5.000000
v -6.893233 7.674097 5.000000
v -6.892060 7.681505 5.000000
v -6.890887 7.688913 5.000000
v -6.889714 7.696320 5.000000
v -6.888540 7.703728 5.000000
v -6.887367 7.711136 5.000000
v -6.886194 7.718543 5.000000
v -6.885021 7.725951 5.000000
v -6.883847 7.733359 5.000000
v -6.882674 7.740766 5.000000
v -7.000000 7.450000 5.000000
v -7.000000 7.457500 5.000000
v -7.000000 7.465000 5.000000
v -7.000000 7.472500 5.000000
v -7.000000 7.480000 5.000000
v -7.000000 7.487500 5.000000
v -7.000000 7.495000 5.000000
v -7.000000 7.502500 5.000000
v -7.000000 7.510000 5.000000
v -7.000000 7.517500 5.000000
v -7.000000 7.525000 5.000000
v -7.000000 7.532500 5.000000
v -7.000000 7.540000 5.000000
v -7.000000 7.547500 5.000000
v -7.000000 7.555000 5.000000
v -7.000000 7.562500 5.000000
v -7.000000 7.570000 5.000000
v -7.000000 7.577500 5.000000
v -7.000000 7.585000 5.000000
v -7.000000 7.592500 5.000000
v -7.000000 7.600000 5.000000
v -7.000000 7.607500 5.000000
v -7.000000 7.615000 5.000000
v -7.000000 7.622500 5.000000
v -7.000000 7.630000 5.000000
v -7.000000 7.637500 5.000000
v -7.000000 7.645000 5.000000
v -7.000000 7.652500 5.000000
v -7.000000 7.660000 5.000000
v -7.000000 7.667500 5.000000
v -7.000000 7.675000 5.000000
v -7.000000 7.682500 5.000000
v -7.000000 7.690000 5.000000
v -7.000000 7.697500 5.000000
v -7.000000 7.705000 5.000000
v -7.000000 7.712500 5.000000
v -7.000000 7.720000 5.000000
v -7.000000 7.727500 5.000000
v -7.000000 7.735000 5.000000
v -7.000000 7.742500 5.000000
v -7.000000 7.750000 5.000000
v -7.070396 7.444460 5.000000
v -7.071569 7.451867 5.000000
v -7.072742 7.459275 5.000000
v -7.073915 7.466683 5.000000
v -7.075089 7.474090 5.000000
v -7.076262 7.481498 5.000000
v -7.077435 7.488906 5.000000
v -7.078608 7.496313 5.000000
v -7.079782 7.503721 5.000000
v -7.080955 7.511129 5.000000
v -7.082128 7.518536 5.000000
v -7.083301 7.525944 5.000000
v -7.084475 7.533352 5.000000
v -7.085648 7.540759 5.000000
v -7.086821 7.548167 5.000000
v -7.087994 7.555575 5.000000
v -7.089168 7.562982 5.000000
v -7.090341 7.570390 5.000000
v -7.091514 7.577798 5.000000
v -7.092687 7.585205 5.000000
v -7.093861 7.592613 5.000000
v -7.095034 7.600021 5.000000
v -7.096207 7.607428 5.000000
v -7.097380 7.614836 5.000000
v -7.098554 7.622244 5.000000
v -7.099727 7.629651 5.000000
v -7.100900 7.637059 5.000000
v -7.102073 7.644467 5.000000
v -7.103247 7.651874 5.000000
v -7.104420 7.659282 5.000000
v -7.105593 7.666690 5.000000
v -7.106767 7.674097 5.000000
v -7.107940 7.681505 5.000000
v -7.109113 7.688913 5.000000
v -7.110286 7.696320 5.000000
v -7.111460 7.703728 5.000000
v -7.112633 7.711136 5.000000
v -7.113806 7.718543 5.000000
v -7.114979 7.725951 5.000000
v -7.116153 7.733359 5.000000
v -7.117326 7.740766 5.000000
v -7.139058 7.427975 5.000000
v -7.141375 7.435108 5.000000
v -7.143693 7.442241 5.000000
v -7.146011 7.449374 5.000000
v -7.148328 7.456507 5.000000
v -7.150646 7.463640 5.000000
v -7.152963 7.470773 5.000000
v -7.155281 7.477906 5.000000
v -7.157599 7.485039 5.000000
v -7.159916 7.492172 5.000000
v -7.162234 7.499305 5.000000
v -7.164552 7.506438 5.000000
v -7.166869 7.513571 5.000000
v -7.169187 7.520703 5.000000
v -7.171504 7.527836 5.000000
v -7.173822 7.534969 5.000000
v -7.176140 7.542102 5.000000
v -7.178457 7.549235 5.000000
v -7.180775 7.556368 5.000000
v -7.183093 7.563501 5.000000
v -7.185410 7.570634 5.000000
v -7.187728 7.577767 5.000000
v -7.190045 7.584900 5.000000
v -7.192363 7.592033 5.000000
v -7.194681 7.599166 5.000000
v -7.196998 7.606299 5.000000
v -7.199316 7.613431 5.000000
v -7.201634 7.620564 5.000000
v -7.203951 7.627697 5.000000
v -7.206269 7.634830 5.000000
v -7.208586 7.641963 5.000000
v -7.210904 7.649096 5.000000
v -7.213222 7.656229 5.000000
v -7.215539 7.663362 5.000000
v -7.217857 7.670495 5.000000
v -7.220175 7.677628 5.000000
v -7.222492 7.684761 5.000000
v -7.224810 7.691894 5.000000
v -7.227127 7.699027 5.000000
v -7.229445 7.706159 5.000000
v -7.231763 7.713292 5.000000
v -7.204296 7.400953 5.000000
v -7.207701 7.407635 5.000000
v -7.211106 7.414318 5.000000
v -7.214511 7.421001 5.000000
v -7.217915 7.427683 5.000000
v -7.221320 7.434366 5.000000
v -7.224725 7.441048 5.000000
v -7.228130 7.447731 5.000000
v -7.231535 7.454413 5.000000
v -7.234940 7.461096 5.000000
v -7.238345 7.467778 5.000000
v -7.241750 7.474461 5.000000
v -7.245155 7.481144 5.000000
v -7.248560 7.487826 5.000000
v -7.251965 7.494509 5.000000
v -7.255370 7.501191 5.000000
v -7.258775 7.507874 5.000000
v -7.262180 7.514556 5.000000
v -7.265584 7.521239 5.000000
v -7.268989 7.527921 5.000000
v -7.272394 7.534604 5.000000
v -7.275799 7.541286 5.000000
v -7.279204 7.547969 5.000000
v -7.282609 7.554652 5.000000
v -7.286014 7.561334 5.000000
v -7.289419 7.568017 5.000000
v -7.292824 7.574699 5.000000
v -7.296229 7.581382 5.000000
v -7.299634 7.588064 5.000000
v -7.303039 7.594747 5.000000
v -7.306444 7.601429 5.000000
v -7.309849 7.608112 5.000000
v -7.313253 7.614795 5.000000
v -7.316658 7.621477 5.000000
v -7.320063 7.628160 5.000000
v -7.323468 7.634842 5.000000
v -7.326873 7.641525 5.000000
v -7.330278 7.648207 5.000000
v -7.333683 7.654890 5.000000
v -7.337088 7.661572 5.000000
v -7.340493 7.668255 5.000000
v -7.264503 7.364058 5.000000
v -7.268912 7.370125 5.000000
v -7.273320 7.376193 5.000000
v -7.277729 7.382261 5.000000
v -7.282137 7.388328 5.000000
v -7.286545 7.394396 5.000000
v -7.290954 7.400463 5.000000
v -7.295362 7.406531 5.000000
v -7.299770 7.412599 5.000000
v -7.304179 7.418666 5.000000
v -7.308587 7.424734 5.000000
v -7.312996 7.430802 5.000000
v -7.317404 7.436869 5.000000
v -7.321812 7.442937 5.000000
v -7.326221 7.449004 5.000000
v -7.330629 7.455072 5.000000
v -7.335038 7.461140 5.000000
v -7.339446 7.467207 5.000000
v -7.343854 7.473275 5.000000
v -7.348263 7.479343 5.000000
v -7.352671 7.485410 5.000000
v -7.357080 7.491478 5.000000
v -7.361488 7.497545 5.000000
v -7.365896 7.503613 5.000000
v -7.370305 7.509681 5.000000
v -7.374713 7.515748 5.000000
v -7.379121 7.521816 5.000000
v -7.383530 7.527884 5.000000
v -7.387938 7.533951 5.000000
v -7.392347 7.540019 5.000000
v -7.396755 7.546086 5.000000
v -7.401163 7.552154 5.000000
v -7.405572 7.558222 5.000000
v -7.409980 7.564289 5.000000
v -7.414389 7.570357 5.000000
v -7.418797 7.576425 5.000000
v -7.423205 7.582492 5.000000
v -7.427614 7.588560 5.000000
v -7.432022 7.594627 5.000000
v -7.436431 7.600695 5.000000
v -7.440839 7.606763 5.000000
v -7.318198 7.318198 5.000000
v -7.323501 7.323501 5.000000
v -7.328805 7.328805 5.000000
v -7.334108 7.334108 5.000000
v -7.339411 7.339411 5.000000
v -7.344715 7.344715 5.000000
v -7.350018 7.350018 5.000000
v -7.355321 7.355321 5.000000
v -7.360624 7.360624 5.000000
v -7.365928 7.365928 5.000000
v -7.371231 7.371231 5.000000
v -7.376534 7.376534 5.000000
v -7.381838 7.381838 5.000000
v -7.387141 7.387141 5.000000
v -7.392444 7.392444 5.000000
v -7.397748 7.397748 5.000000
v -7.403051 7.403051 5.000000
v -7.408354 7.408354 5.000000
v -7.413657 7.413657 5.000000
v -7.418961 7.418961 5.000000
v -7.424264 7.424264 5.000000
v -7.429567 7.429567 5.000000
v -7.434871 7.434871 5.000000
v -7.440174 7.440174 5.000000
v -7.445477 7.445477 5.000000
v -7.450781 7.450781 5.000000
v -7.456084 7.456084 5.000000
v -7.461387 7.461387 5.000000
v -7.466690 7.466690 5.000000
v -7.471994 7.471994 5.000000
v -7.477297 7.477297 5.000000
v -7.482600 7.482600 5.000000
v -7.487904 7.487904 5.000000
v -7.493207 7.493207 5.000000
v -7.498510 7.498510 5.000000
v -7.503814 7.503814 5.000000
v -7.509117 7.509117 5.000000
v -7.514420 7.514420 5.000000
v -7.519723 7.519723 5.000000
v -7.525027 7.525027 5.000000
v -7.530330 7.530330 5.000000
v -7.364058 7.264503 5.000000
v -7.370125 7.268912 5.000000
v -7.376193 7.273320 5.000000
v -7.382261 7.277729 5.000000
v -7.388328 7.282137 5.000000
v -7.394396 7.286545 5.000000
v -7.400463 7.290954 5.000000
v -7.406531 7.295362 5.000000
v -7.412599 7.299770 5.000000
v -7.418666 7.304179 5.000000
v -7.424734 7.308587 5.000000
v -7.430802 7.312996 5.000000
v -7.436869 7.317404 5.000000
v -7.442937 7.321812 5.000000
v -7.449004 7.326221 5.000000
v -7.455072 7.330629 5.000000
v -7.461140 7.335038 5.000000
v -7.467207 7.339446 5.000000
v -7.473275 7.343854 5.000000
v -7.479343 7.348263 5.000000
v -7.485410 7.352671 5.000000
v -7.491478 7.357080 5.000000
v -7.497545 7.361488 5.000000
v -7.503613 7.365896 5.000000
v -7.509681 7.370305 5.000000
v -7.515748 7.374713 5.000000
v -7.521816 7.379121 5.000000
v -7.527884 7.383530 5.000000
v -7.533951 7.387938 5.000000
v -7.540019 7.392347 5.000000
v -7.546086 7.396755 5.000000
v -7.552154 7.401163 5.000000
v -7.558222 7.405572 5.000000
v -7.564289 7.409980 5.000000
v -7.570357 7.414389 5.000000
v -7.576425 7.418797 5.000000
v -7.582492 7.423205 5.000000
v -7.588560 7.427614 5.000000
v -7.594627 7.432022 5.000000
v -7.600695 7.436431 5.000000
v -7.606763 7.440839 5.000000
v -7.400953 7.204296 5.000000
v -7.407635 7.207701 5.000000
v -7.414318 7.211106 5.000000
v -7.421001 7.214511 5.000000
v -7.427683 7.217915 5.000000
v -7.434366 7.221320 5.000000
v -7.441048 7.224725 5.000000
v -7.447731 7.228130 5.000000
v -7.454413 7.231535 5.000000
v -7.461096 7.234940 5.000000
v -7.467778 7.238345 5.000000
v -7.474461 7.241750 5.000000
v -7.481144 7.245155 5.000000
v -7.487826 7.248560 5.000000
v -7.494509 7.251965 5.000000
v -7.501191 7.255370 5.000000
v -7.507874 7.258775 5.000000
v -7.514556 7.262180 5.000000
v -7.521239 7.265584 5.000000
v -7.527921 7.268989 5.000000
v -7.534604 7.272394 5.000000
v -7.541286 7.275799 5.000000
v -7.547969 7.279204 5.000000
v -7.554652 7.282609 5.000000
v -7.561334 7.286014 5.000000
v -7.568017 7.289419 5.000000
v -7.574699 7.292824 5.000000
v -7.581382 7.296229 5.000000
v -7.588064 7.299634 5.000000
v -7.594747 7.303039 5.000000
v -7.601429 7.306444 5.000000
v -7.608112 7.309849 5.000000
v -7.614795 7.313253 5.000000
v -7.621477 7.316658 5.000000
v -7.628160 7.320063 5.000000
v -7.634842 7.323468 5.000000
v -7.641525 7.326873 5.000000
v -7.648207 7.330278 5.000000
v -7.654890 7.333683 5.000000
v -7.661572 7.337088 5.000000
v -7.668255 7.340493 5.000000
v -7.427975 7.139058 5.000000
v -7.435108 7.141375 5.000000
v -7.442241 7.143693 5.000000
v -7.449374 7.146011 5.000000
v -7.456507 7.148328 5.000000
v -7.463640 7.150646 5.000000
v -7.470773 7.152963 5.000000
v -7.477906 7.155281 5.000000
v -7.485039 7.157599 5.000000
v -7.492172 7.159916 5.000000
v -7.499305 7.162234 5.000000
v -7.506438 7.164552 5.000000
v -7.513571 7.166869 5.000000
v -7.520703 7.169187 5.000000
v -7.527836 7.171504 5.000000
v -7.534969 7.173822 5.000000
v -7.542102 7.176140 5.000000
v -7.549235 7.178457 5.000000
v -7.556368 7.180775 5.000000
v -7.563501 7.183093 5.000000
v -7.570634 7.185410 5.000000
v -7.577767 7.187728 5.000000
v -7.584900 7.190045 5.000000
v -7.592033 7.192363 5.000000
v -7.599166 7.194681 5.000000
v -7.606299 7.196998 5.000000
v -7.613431 7.199316 5.000000
v -7.620564 7.201634 5.000000
v -7.627697 7.203951 5.000000
v -7.634830 7.206269 5.000000
v -7.641963 7.208586 5.000000
v -7.649096 7.210904 5.000000
v -7.656229 7.213222 5.000000
v -7.663362 7.215539 5.000000
v -7.670495 7.217857 5.000000
v -7.677628 7.220175 5.000000
v -7.684761 7.222492 5.000000
v -7.691894 7.224810 5.000000
v -7.699027 7.227127 5.000000
v -7.706159 7.229445 5.000000
v -7.713292 7.231763 5.000000
v -7.444460 7.070396 5.000000
v -7.451867 7.071569 5.000000
v -7.459275 7.072742 5.000000
v -7.466683 7.073915 5.000000
v -7.474090 7.075089 5.000000
v -7.481498 7.076262 5.000000
v -7.488906 7.077435 5.000000
v -7.496313 7.078608 5.000000
v -7.503721 7.079782 5.000000
v -7.511129 7.080955 5.000000
v -7.518536 7.082128 5.000000
v -7.525944 7.083301 5.000000
v -7.533352 7.084475 5.000000
v -7.540759 7.085648 5.000000
v -7.548167 7.086821 5.000000
v -7.555575 7.087994 5.000000
v -7.562982 7.089168 5.000000
v -7.570390 7.090341 5.000000
v -7.577798 7.091514 5.000000
v -7.585205 7.092687 5.000000
v -7.592613 7.093861 5.000000
v -7.600021 7.095034 5.000000
v -7.607428 7.096207 5.000000
v -7.614836 7.097380 5.000000
v -7.622244 7.098554 5.000000
v -7.629651 7.099727 5.000000
v -7.637059 7.100900 5.000000
v -7.644467 7.102073 5.000000
v -7.651874 7.103247 5.000000
v -7.659282 7.104420 5.000000
v -7.666690 7.105593 5.000000
v -7.674097 7.106767 5.000000
v -7.681505 7.107940 5.000000
v -7.688913 7.109113 5.000000
v -7.696320 7.110286 5.000000
v -7.703728 7.111460 5.000000
v -7.711136 7.112633 5.000000
v -7.718543 7.113806 5.000000
v -7.725951 7.114979 5.000000
v -7.733359 7.116153 5.000000
v -7.740766 7.117326 5.000000
v -7.450000 7.000000 5.000000
v -7.457500 7.000000 5.000000
v -7.465000 7.000000 5.000000
v -7.472500 7.000000 5.000000
v -7.480000 7.000000 5.000000
v -7.487500 7.000000 5.000000
v -7.495000 7.000000 5.000000
v -7.502500 7.000000 5.000000
v -7.510000 7.000000 5.000000
v -7.517500 7.000000 5.000000
v -7.525000 7.000000 5.000000
v -7.532500 7.000000 5.000000
v -7.540000 7.000000 5.000000
v -7.547500 7.000000 5.000000
v -7.555000 7.000000 5.000000
v -7.562500 7.000000 5.000000
v -7.570000 7.000000 5.000000
v -7.577500 7.000000 5.000000
v -7.585000 7.000000 5.000000
v -7.592500 7.000000 5.000000
v -7.600000 7.000000 5.000000
v -7.607500 7.000000 5.000000
v -7.615000 7.000000 5.000000
v -7.622500 7.000000 5.000000
v -7.630000 7.000000 5.000000
v -7.637500 7.000000 5.000000
v -7.645000 7.000000 5.000000
v -7.652500 7.000000 5.000000
v -7.660000 7.000000 5.000000
v -7.667500 7.000000 5.000000
v -7.675000 7.000000 5.000000
v -7.682500 7.000000 5.000000
v -7.690000 7.000000 5.000000
v -7.697500 7.000000 5.000000
v -7.705000 7.000000 5.000000
v -7.712500 7.000000 5.000000
v -7.720000 7.000000 5.000000
v -7.727500 7.000000 5.000000
v -7.735000 7.000000 5.000000
v -7.742500 7.000000 5.000000
v -7.750000 7.000000 5.000000
v -7.444460 6.929604 5.000000
v -7.451867 6.928431 5.000000
v -7.459275 6.927258 5.000000
v -7.466683 6.926085 5.000000
v -7.474090 6.924911 5.000000
v -7.481498 6.923738 5.000000
v -7.488906 6.922565 5.000000
v -7.496313 6.921392 5.000000
v -7.503721 6.920218 5.000000
v -7.511129 6.919045 5.000000
v -7.518536 6.917872 5.000000
v -7.525944 6.916699 5.000000
v -7.533352 6.915525 5.000000
v -7.540759 6.914352 5.000000
v -7.548167 6.913179 5.000000
v -7.555575 6.912006 5.000000
v -7.562982 6.910832 5.000000
v -7.570390 6.909659 5.000000
v -7.577798 6.908486 5.000000
v -7.585205 6.907313 5.000000
v -7.592613 6.906139 5.000000
v -7.600021 6.904966 5.000000
v -7.607428 6.903793 5.000000
v -7.614836 6.902620 5.000000
v -7.622244 6.901446 5.000000
v -7.629651 6.900273 5.000000
v -7.637059 6.899100 5.000000
v -7.644467 6.897927 5.000000
v -7.651874 6.896753 5.000000
v -7.659282 6.895580 5.000000
v -7.666690 6.894407 5.000000
v -7.674097 6.893233 5.000000
v -7.681505 6.892060 5.000000
v -7.688913 6.890887 5.000000
v -7.696320 6.889714 5.000000
v -7.703728 6.888540 5.000000
v -7.711136 6.887367 5.000000
v -7.718543 6.886194 5.000000
v -7.725951 6.885021 5.000000
v -7.733359 6.883847 5.000000
v -7.740766 6.882674 5.000000
v -7.427975 6.860942 5.000000
v -7.435108 6.858625 5.000000
v -7.442241 6.856307 5.000000
v -7.449374 6.853989 5.000000
v -7.456507 6.851672 5.000000
v -7.463640 6.849354 5.000000
v -7.470773 6.847037 5.000000
v -7.477906 6.844719 5.000000
v -7.485039 6.842401 5.000000
v -7.492172 6.840084 5.000000
v -7.499305 6.837766 5.000000
v -7.506438 6.835448 5.000000
v -7.513571 6.833131 5.000000
v -7.520703 6.830813 5.000000
v -7.527836 6.828496 5.000000
v -7.534969 6.826178 5.000000
v -7.542102 6.823860 5.000000
v -7.549235 6.821543 5.000000
v -7.556368 6.819225 5.000000
v -7.563501 6.816907 5.000000
v -7.570634 6.814590 5.000000
v -7.577767 6.812272 5.000000
v -7.584900 6.809955 5.000000
v -7.592033 6.807637 5.000000
v -7.599166 6.805319 5.000000
v -7.606299 6.803002 5.000000
v -7.613431 6.800684 5.000000
v -7.620564 6.798366 5.000000
v -7.627697 6.796049 5.000000
v -7.634830 6.793731 5.000000
v -7.641963 6.791414 5.000000
v -7.649096 6.789096 5.000000
v -7.656229 6.786778 5.000000
v -7.663362 6.784461 5.000000
v -7.670495 6.782143 5.000000
v -7.677628 6.779825 5.000000
v -7.684761 6.777508 5.000000
v -7.691894 6.775190 5.000000
v -7.699027 6.772873 5.000000
v -7.706159 6.770555 5.000000
v -7.713292 6.768237 5.000000
v -7.400953 6.795704 5.000000
v -7.407635 6.792299 5.000000
v -7.414318 6.788894 5.000000
v -7.421001 6.785489 5.000000
v -7.427683 6.782085 5.000000
v -7.434366 6.778680 5.000000
v -7.441048 6.775275 5.000000
v -7.447731 6.771870 5.000000
v -7.454413 6.768465 5.000000
v -7.461096 6.765060 5.000000
v -7.467778 6.761655 5.000000
v -7.474461 6.758250 5.000000
v -7.481144 6.754845 5.000000
v -7.487826 6.751440 5.000000
v -7.494509 6.748035 5.000000
v -7.501191 6.744630 5.000000
v -7.507874 6.741225 5.000000
v -7.514556 6.737820 5.000000
v -7.521239 6.734416 5.000000
v -7.527921 6.731011 5.000000
v -7.534604 6.727606 5.000000
v -7.541286 6.724201 5.000000
v -7.547969 6.720796 5.000000
v -7.554652 6.717391 5.000000
v -7.561334 6.713986 5.000000
v -7.568017 6.710581 5.000000
v -7.574699 6.707176 5.000000
v -7.581382 6.703771 5.000000
v -7.588064 6.700366 5.000000
v -7.594747 6.696961 5.000000
v -7.601429 6.693556 5.000000
v -7.608112 6.690151 5.000000
v -7.614795 6.686747 5.000000
v -7.621477 6.683342 5.000000
v -7.628160 6.679937 5.000000
v -7.634842 6.676532 5.000000
v -7.641525 6.673127 5.000000
v -7.648207 6.669722 5.000000
v -7.654890 6.666317 5.000000
v -7.661572 6.662912 5.000000
v -7.668255 6.659507 5.000000
v -7.364058 6.735497 5.000000
v -7.370125 6.731088 5.000000
v -7.376193 6.726680 5.000000
v -7.382261 6.722271 5.000000
v -7.388328 6.717863 5.000000
v -7.394396 6.713455 5.000000
v -7.400463 6.709046 5.000000
v -7.406531 6.704638 5.000000
v -7.412599 6.700230 5.000000
v -7.418666 6.695821 5.000000
v -7.424734 6.691413 5.000000
v -7.430802 6.687004 5.000000
v -7.436869 6.682596 5.000000
v -7.442937 6.678188 5.000000
v -7.449004 6.673779 5.000000
v -7.455072 6.669371 5.000000
v -7.461140 6.664962 5.000000
v -7.467207 6.660554 5.000000
v -7.473275 6.656146 5.000000
v -7.479343 6.651737 5.000000
v -7.485410 6.647329 5.000000
v -7.491478 6.642920 5.000000
v -7.497545 6.638512 5.000000
v -7.503613 6.634104 5.000000
v -7.509681 6.629695 5.000000
v -7.515748 6.625287 5.000000
v -7.521816 6.620879 5.000000
v -7.527884 6.616470 5.000000
v -7.533951 6.612062 5.000000
v -7.540019 6.607653 5.000000
v -7.546086 6.603245 5.000000
v -7.552154 6.598837 5.000000
v -7.558222 6.594428 5.000000
v -7.564289 6.590020 5.000000
v -7.570357 6.585611 5.000000
v -7.576425 6.581203 5.000000
v -7.582492 6.576795 5.000000
v -7.588560 6.572386 5.000000
v -7.594627 6.567978 5.000000
v -7.600695 6.563569 5.000000
v -7.606763 6.559161 5.000000
v -7.318198 6.681802 5.000000
v -7.323501 6.676499 5.000000
v -7.328805 6.671195 5.000000
v -7.334108 6.665892 5.000000
v -7.339411 6.660589 5.000000
v -7.344715 6.655285 5.000000
v -7.350018 6.649982 5.000000
v -7.355321 6.644679 5.000000
v -7.360624 6.639376 5.000000
v -7.365928 6.634072 5.000000
v -7.371231 6.628769 5.000000
v -7.376534 6.623466 5.000000
v -7.381838 6.618162 5.000000
v -7.387141 6.612859 5.000000
v -7.392444 6.607556 5.000000
v -7.397748 6.602252 5.000000
v -7.403051 6.596949 5.000000
v -7.408354 6.591646 5.000000
v -7.413657 6.586343 5.000000
v -7.418961 6.581039 5.000000
v -7.424264 6.575736 5.000000
v -7.429567 6.570433 5.000000
v -7.434871 6.565129 5.000000
v -7.440174 6.559826 5.000000
v -7.445477 6.554523 5.000000
v -7.450781 6.549219 5.000000
v -7.456084 6.543916 5.000000
v -7.461387 6.538613 5.000000
v -7.466690 6.533310 5.000000
v -7.471994 6.528006 5.000000
v -7.477297 6.522703 5.000000
v -7.482600 6.517400 5.000000
v -7.487904 6.512096 5.000000
v -7.493207 6.506793 5.000000
v -7.498510 6.501490 5.000000
v -7.503814 6.496186 5.000000
v -7.509117 6.490883 5.000000
v -7.514420 6.485580 5.000000
v -7.519723 6.480277 5.000000
v -7.525027 6.474973 5.000000
v -7.530330 6.469670 5.000000
v -7.264503 6.635942 5.000000
v -7.268912 6.629875 5.000000
v -7.273320 6.623807 5.000000
v -7.277729 6.617739 5.000000
v -7.282137 6.611672 5.000000
v -7.286545 6.605604 5.000000
v -7.290954 6.599537 5.000000
v -7.295362 6.593469 5.000000
v -7.299770 6.587401 5.000000
v -7.304179 6.581334 5.000000
v -7.308587 6.575266 5.000000
v -7.312996 6.569198 5.000000
v -7.317404 6.563131 5.000000
v -7.321812 6.557063 5.000000
v -7.326221 6.550996 5.000000
v -7.330629 6.544928 5.000000
v -7.335038 6.538860 5.000000
v -7.339446 6.532793 5.000000
v -7.343854 6.526725 5.000000
v -7.348263 6.520657 5.000000
v -7.352671 6.514590 5.000000
v -7.357080 6.508522 5.000000
v -7.361488 6.502455 5.000000
v -7.365896 6.496387 5.000000
v -7.370305 6.490319 5.000000
v -7.374713 6.484252 5.000000
v -7.379121 6.478184 5.000000
v -7.383530 6.472116 5.000000
v -7.387938 6.466049 5.000000
v -7.392347 6.459981 5.000000
v -7.396755 6.453914 5.000000
v -7.401163 6.447846 5.000000
v -7.405572 6.441778 5.000000
v -7.409980 6.435711 5.000000
v -7.414389 6.429643 5.000000
v -7.418797 6.423575 5.000000
v -7.423205 6.417508 5.000000
v -7.427614 6.411440 5.000000
v -7.432022 6.405373 5.000000
v -7.436431 6.399305 5.000000
v -7.440839 6.393237 5.000000
v -7.204296 6.599047 5.000000
v -7.207701 6.592365 5.000000
v -7.211106 6.585682 5.000000
v -7.214511 6.578999 5.000000
v -7.217915 6.572317 5.000000
v -7.221320 6.565634 5.000000
v -7.224725 6.558952 5.000000
v -7.228130 6.552269 5.000000
v -7.231535 6.545587 5.000000
v -7.234940 6.538904 5.000000
v -7.238345 6.532222 5.000000
v -7.241750 6.525539 5.000000
v -7.245155 6.518856 5.000000
v -7.248560 6.512174 5.000000
v -7.251965 6.505491 5.000000
v -7.255370 6.498809 5.000000
v -7.258775 6.492126 5.000000
v -7.262180 6.485444 5.000000
v -7.265584 6.478761 5.000000
v -7.268989 6.472079 5.000000
v -7.272394 6.465396 5.000000
v -7.275799 6.458714 5.000000
v -7.279204 6.452031 5.000000
v -7.282609 6.445348 5.000000
v -7.286014 6.438666 5.000000
v -7.289419 6.431983 5.000000
v -7.292824 6.425301 5.000000
v -7.296229 6.418618 5.000000
v -7.299634 6.411936 5.000000
v -7.303039 6.405253 5.000000
v -7.306444 6.398571 5.000000
v -7.309849 6.391888 5.000000
v -7.313253 6.385205 5.000000
v -7.316658 6.378523 5.000000
v -7.320063 6.371840 5.000000
v -7.323468 6.365158 5.000000
v -7.326873 6.358475 5.000000
v -7.330278 6.351793 5.000000
v -7.333683 6.345110 5.000000
v -7.337088 6.338428 5.000000
v -7.340493 6.331745 5.000000
v -7.139058 6.572025 5.000000
v -7.141375 6.564892 5.000000
v -7.143693 6.557759 5.000000
v -7.146011 6.550626 5.000000
v -7.148328 6.543493 5.000000
v -7.150646 6.536360 5.000000
v -7.152963 6.529227 5.000000
v -7.155281 6.522094 5.000000
v -7.157599 6.514961 5.000000
v -7.159916 6.507828 5.000000
v -7.162234 6.500695 5.000000
v -7.164552 6.493562 5.000000
v -7.166869 6.486429 5.000000
v -7.169187 6.479297 5.000000
v -7.171504 6.472164 5.000000
v -7.173822 6.465031 5.000000
v -7.176140 6.457898 5.000000
v -7.178457 6.450765 5.000000
v -7.180775 6.443632 5.000000
v -7.183093 6.436499 5.000000
v -7.185410 6.429366 5.000000
v -7.187728 6.422233 5.000000
v -7.190045 6.415100 5.000000
v -7.192363 6.407967 5.000000
v -7.194681 6.400834 5.000000
v -7.196998 6.393701 5.000000
v -7.199316 6.386569 5.000000
v -7.201634 6.379436 5.000000
v -7.203951 6.372303 5.000000
v -7.206269 6.365170 5.000000
v -7.208586 6.358037 5.000000
v -7.210904 6.350904 5.000000
v -7.213222 6.343771 5.000000
v -7.215539 6.336638 5.000000
v -7.217857 6.329505 5.000000
v -7.220175 6.322372 5.000000
v -7.222492 6.315239 5.000000
v -7.224810 6.308106 5.000000
v -7.227127 6.300973 5.000000
v -7.229445 6.293841 5.000000
v -7.231763 6.286708 5.000000
v -7.070396 6.555540 5.000000
v -7.071569 6.548133 5.000000
v -7.072742 6.540725 5.000000
v -7.073915 6.533317 5.000000
v -7.075089 6.525910 5.000000
v -7.076262 6.518502 5.000000
v -7.077435 6.511094 5.000000
v -7.078608 6.503687 5.000000
v -7.079782 6.496279 5.000000
v -7.080955 6.488871 5.000000
v -7.082128 6.481464 5.000000
v -7.083301 6.474056 5.000000
v -7.084475 6.466648 5.000000
v -7.085648 6.459241 5.000000
v -7.086821 6.451833 5.000000
v -7.087994 6.444425 5.000000
v -7.089168 6.437018 5.000000
v -7.090341 6.429610 5.000000
v -7.091514 6.422202 5.000000
v -7.092687 6.414795 5.000000
v -7.093861 6.407387 5.000000
v -7.095034 6.399979 5.000000
v -7.096207 6.392572 5.000000
v -7.097380 6.385164 5.000000
v -7.098554 6.377756 5.000000
v -7.099727 6.370349 5.000000
v -7.100900 6.362941 5.000000
v -7.102073 6.355533 5.000000
v -7.103247 6.348126 5.000000
v -7.104420 6.340718 5.000000
v -7.105593 6.333310 5.000000
v -7.106767 6.325903 5.000000
v -7.107940 6.318495 5.000000
v -7.109113 6.311087 5.000000
v -7.110286 6.303680 5.000000
v -7.111460 6.296272 5.000000
v -7.112633 6.288864 5.000000
v -7.113806 6.281457 5.000000
v -7.114979 6.274049 5.000000
v -7.116153 6.266641 5.000000
v -7.117326 6.259234 5.000000
v -7.000000 6.550000 5.000000
v -7.000000 6.542500 5.000000
v -7.000000 6.535000 5.000000
v -7.000000 6.527500 5.000000
v -7.000000 6.520000 5.000000
v -7.000000 6.512500 5.000000
v -7.000000 6.505000 5.000000
v -7.000000 6.497500 5.000000
v -7.000000 6.490000 5.000000
v -7.000000 6.482500 5.000000
v -7.000000 6.475000 5.000000
v -7.000000 6.467500 5.000000
v -7.000000 6.460000 5.000000
v -7.000000 6.452500 5.000000
v -7.000000 6.445000 5.000000
v -7.000000 6.437500 5.000000
v -7.000000 6.430000 5.000000
v -7.000000 6.422500 5.000000
v -7.000000 6.415000 5.000000
v -7.000000 6.407500 5.000000
v -7.000000 6.400000 5.000000
v -7.000000 6.392500 5.000000
v -7.000000 6.385000 5.000000
v -7.000000 6.377500 5.000000
v -7.000000 6.370000 5.000000
v -7.000000 6.362500 5.000000
v -7.000000 6.355000 5.000000
v -7.000000 6.347500 5.000000
v -7.000000 6.340000 5.000000
v -7.000000 6.332500 5.000000
v -7.000000 6.325000 5.000000
v -7.000000 6.317500 5.000000
v -7.000000 6.310000 5.000000
v -7.000000 6.302500 5.000000
v -7.000000 6.295000 5.000000
v -7.000000 6.287500 5.000000
v -7.000000 6.280000 5.000000
v -7.000000 6.272500 5.000000
v -7.000000 6.265000 5.000000
v -7.000000 6.257500 5.000000
v -7.000000 6.250000 5.000000
v -6.929604 6.555540 5.000000
v -6.928431 6.548133 5.000000
v -6.927258 6.540725 5.000000
v -6.926085 6.533317 5.000000
v -6.924911 6.525910 5.000000
v -6.923738 6.518502 5.000000
v -6.922565 6.511094 5.000000
v -6.921392 6.503687 5.000000
v -6.920218 6.496279 5.000000
v -6.919045 6.488871 5.000000
v -6.917872 6.481464 5.000000
v -6.916699 6.474056 5.000000
v -6.915525 6.466648 5.000000
v -6.914352 6.459241 5.000000
v -6.913179 6.451833 5.000000
v -6.912006 6.444425 5.000000
v -6.910832 6.437018 5.000000
v -6.909659 6.429610 5.000000
v -6.908486 6.422202 5.000000
v -6.907313 6.414795 5.000000
v -6.906139 6.407387 5.000000
v -6.904966 6.399979 5.000000
v -6.903793 6.392572 5.000000
v -6.902620 6.385164 5.000000
v -6.901446 6.377756 5.000000
v -6.900273 6.370349 5.000000
v -6.899100 6.362941 5.000000
v -6.897927 6.355533 5.000000
v -6.896753 6.348126 5.000000
v -6.895580 6.340718 5.000000
v -6.894407 6.333310 5.000000
v -6.893233 6.325903 5.000000
v -6.892060 6.318495 5.000000
v -6.890887 6.311087 5.000000
v -6.889714 6.303680 5.000000
v -6.888540 6.296272 5.000000
v -6.887367 6.288864 5.000000
v -6.886194 6.281457 5.000000
v -6.885021 6.274049 5.000000
v -6.883847 6.266641 5.000000
v -6.882674 6.259234 5.000000
v -6.860942 6.572025 5.000000
v -6.858625 6.564892 5.000000
v -6.856307 6.557759 5.000000
v -6.853989 6.550626 5.000000
v -6.851672 6.543493 5.000000
v -6.849354 6.536360 5.000000
v -6.847037 6.529227 5.000000
v -6.844719 6.522094 5.000000
v -6.842401 6.514961 5.000000
v -6.840084 6.507828 5.000000
v -6.837766 6.500695 5.000000
v -6.835448 6.493562 5.000000
v -6.833131 6.486429 5.000000
v -6.830813 6.479297 5.000000
v -6.828496 6.472164 5.000000
v -6.826178 6.465031 5.000000
v -6.823860 6.457898 5.000000
v -6.821543 6.450765 5.000000
v -6.819225 6.443632 5.000000
v -6.816907 6.436499 5.000000
v -6.814590 6.429366 5.000000
v -6.812272 6.422233 5.000000
v -6.809955 6.415100 5.000000
v -6.807637 6.407967 5.000000
v -6.805319 6.400834 5.000000
v -6.803002 6.393701 5.000000
v -6.800684 6.386569 5.000000
v -6.798366 6.379436 5.000000
v -6.796049 6.372303 5.000000
v -6.793731 6.365170 5.000000
v -6.791414 6.358037 5.000000
v -6.789096 6.350904 5.000000
v -6.786778 6.343771 5.000000
v -6.784461 6.336638 5.000000
v -6.782143 6.329505 5.000000
v -6.779825 6.322372 5.000000
v -6.777508 6.315239 5.000000
v -6.775190 6.308106 5.000000
v -6.772873 6.300973 5.000000
v -6.770555 6.293841 5.000000
v -6.768237 6.286708 5.000000
v -6.795704 6.599047 5.000000
v -6.792299 6.592365 5.000000
v -6.788894 6.585682 5.000000
v -6.785489 6.578999 5.000000
v -6.782085 6.572317 5.000000
v -6.778680 6.565634 5.000000
v -6.775275 6.558952 5.000000
v -6.771870 6.552269 5.000000
v -6.768465 6.545587 5.000000
v -6.765060 6.538904 5.000000
v -6.761655 6.532222 5.000000
v -6.758250 6.525539 5.000000
v -6.754845 6.518856 5.000000
v -6.751440 6.512174 5.000000
v -6.748035 6.505491 5.000000
v -6.744630 6.498809 5.000000
v -6.741225 6.492126 5.000000
v -6.737820 6.485444 5.000000
v -6.734416 6.478761 5.000000
v -6.731011 6.472079 5.000000
v -6.727606 6.465396 5.000000
v -6.724201 6.458714 5.000000
v -6.720796 6.452031 5.000000
v -6.717391 6.445348 5.000000
v -6.713986 6.438666 5.000000
v -6.710581 6.431983 5.000000
v -6.707176 6.425301 5.000000
v -6.703771 6.418618 5.000000
v -6.700366 6.411936 5.000000
v -6.696961 6.405253 5.000000
v -6.693556 6.398571 5.000000
v -6.690151 6.391888 5.000000
v -6.686747 6.385205 5.000000
v -6.683342 6.378523 5.000000
v -6.679937 6.371840 5.000000
v -6.676532 6.365158 5.000000
v -6.673127 6.358475 5.000000
v -6.669722 6.351793 5.000000
v -6.666317 6.345110 5.000000
v -6.662912 6.338428 5.000000
v -6.659507 6.331745 5.000000
v -6.735497 6.635942 5.000000
v -6.731088 6.629875 5.000000
v -6.726680 6.623807 5.000000
v -6.722271 6.617739 5.000000
v -6.717863 6.611672 5.000000
v -6.713455 6.605604 5.000000
v -6.709046 6.599537 5.000000
v -6.704638 6.593469 5.000000
v -6.700230 6.587401 5.000000
v -6.695821 6.581334 5.000000
v -6.691413 6.575266 5.000000
v -6.687004 6.569198 5.000000
v -6.682596 6.563131 5.000000
v -6.678188 6.557063 5.000000
v -6.673779 6.550996 5.000000
v -6.669371 6.544928 5.000000
v -6.664962 6.538860 5.000000
v -6.660554 6.532793 5.000000
v -6.656146 6.526725 5.000000
v -6.651737 6.520657 5.000000
v -6.647329 6.514590 5.000000
v -6.642920 6.508522 5.000000
v -6.638512 6.502455 5.000000
v -6.634104 6.496387 5.000000
v -6.629695 6.490319 5.000000
v -6.625287 6.484252 5.000000
v -6.620879 6.478184 5.000000
v -6.616470 6.472116 5.000000
v -6.612062 6.466049 5.000000
v -6.607653 6.459981 5.000000
v -6.603245 6.453914 5.000000
v -6.598837 6.447846 5.000000
v -6.594428 6.441778 5.000000
v -6.590020 6.435711 5.000000
v -6.585611 6.429643 5.000000
v -6.581203 6.423575 5.000000
v -6.576795 6.417508 5.000000
v -6.572386 6.411440 5.000000
v -6.567978 6.405373 5.000000
v -6.563569 6.399305 5.000000
v -6.559161 6.393237 5.000000
v -6.681802 6.681802 5.000000
v -6.676499 6.676499 5.000000
v -6.671195 6.671195 5.000000
v -6.665892 6.665892 5.000000
v -6.660589 6.660589 5.000000
v -6.655285 6.655285 5.000000
v -6.649982 6.649982 5.000000
v -6.644679 6.644679 5.000000
v -6.639376 6.639376 5.000000
v -6.634072 6.634072 5.000000
v -6.628769 6.628769 5.000000
v -6.623466 6.623466 5.000000
v -6.618162 6.618162 5.000000
v -6.612859 6.612859 5.000000
v -6.607556 6.607556 5.000000
v -6.602252 6.602252 5.000000
v -6.596949 6.596949 5.000000
v -6.591646 6.591646 5.000000
v -6.586343 6.586343 5.000000
v -6.581039 6.581039 5.000000
v -6.575736 6.575736 5.000000
v -6.570433 6.570433 5.000000
v -6.565129 6.565129 5.000000
v -6.559826 6.559826 5.000000
v -6.554523 6.554523 5.000000
v -6.549219 6.549219 5.000000
v -6.543916 6.543916 5.000000
v -6.538613 6.538613 5.000000
v -6.533310 6.533310 5.000000
v -6.528006 6.528006 5.000000
v -6.522703 6.522703 5.000000
v -6.517400 6.517400 5.000000
v -6.512096 6.512096 5.000000
v -6.506793 6.506793 5.000000
v -6.501490 6.501490 5.000000
v -6.496186 6.496186 5.000000
v -6.490883 6.490883 5.000000
v -6.485580 6.485580 5.000000
v -6.480277 6.480277 5.000000
v -6.474973 6.474973 5.000000
v -6.469670 6.469670 5.000000
v -6.635942 6.735497 5.000000
v -6.629875 6.731088 5.000000
v -6.623807 6.726680 5.000000
v -6.617739 6.722271 5.000000
v -6.611672 6.717863 5.000000
v -6.605604 6.713455 5.000000
v -6.599537 6.709046 5.000000
v -6.593469 6.704638 5.000000
v -6.587401 6.700230 5.000000
v -6.581334 6.695821 5.000000
v -6.575266 6.691413 5.000000
v -6.569198 6.687004 5.000000
v -6.563131 6.682596 5.000000
v -6.557063 6.678188 5.000000
v -6.550996 6.673779 5.000000
v -6.544928 6.669371 5.000000
v -6.538860 6.664962 5.000000
v -6.532793 6.660554 5.000000
v -6.526725 6.656146 5.000000
v -6.520657 6.651737 5.000000
v -6.514590 6.647329 5.000000
v -6.508522 6.642920 5.000000
v -6.502455 6.638512 5.000000
v -6.496387 6.634104 5.000000
v -6.490319 6.629695 5.000000
v -6.484252 6.625287 5.000000
v -6.478184 6.620879 5.000000
v -6.472116 6.616470 5.000000
v -6.466049 6.612062 5.000000
v -6.459981 6.607653 5.000000
v -6.453914 6.603245 5.000000
v -6.447846 6.598837 5.000000
v -6.441778 6.594428 5.000000
v -6.435711 6.590020 5.000000
v -6.429643 6.585611 5.000000
v -6.423575 6.581203 5.000000
v -6.417508 6.576795 5.000000
v -6.411440 6.572386 5.000000
v -6.405373 6.567978 5.000000
v -6.399305 6.563569 5.000000
v -6.393237 6.559161 5.000000
v -6.599047 6.795704 5.000000
v -6.592365 6.792299 5.000000
v -6.585682 6.788894 5.000000
v -6.578999 6.785489 5.000000
v -6.572317 6.782085 5.000000
v -6.565634 6.778680 5.000000
v -6.558952 6.775275 5.000000
v -6.552269 6.771870 5.000000
v -6.545587 6.768465 5.000000
v -6.538904 6.765060 5.000000
v -6.532222 6.761655 5.000000
v -6.525539 6.758250 5.000000
v -6.518856 6.754845 5.000000
v -6.512174 6.751440 5.000000
v -6.505491 6.748035 5.000000
v -6.498809 6.744630 5.000000
v -6.492126 6.741225 5.000000
v -6.485444 6.737820 5.000000
v -6.478761 6.734416 5.000000
v -6.472079 6.731011 5.000000
v -6.465396 6.727606 5.000000
v -6.458714 6.724201 5.000000
v -6.452031 6.720796 5.000000
v -6.445348 6.717391 5.000000
v -6.438666 6.713986 5.000000
v -6.431983 6.710581 5.000000
v -6.425301 6.707176 5.000000
v -6.418618 6.703771 5.000000
v -6.411936 6.700366 5.000000
v -6.405253 6.696961 5.000000
v -6.398571 6.693556 5.000000
v -6.391888 6.690151 5.000000
v -6.385205 6.686747 5.000000
v -6.378523 6.683342 5.000000
v -6.371840 6.679937 5.000000
v -6.365158 6.676532 5.000000
v -6.358475 6.673127 5.000000
v -6.351793 6.669722 5.000000
v -6.345110 6.666317 5.000000
v -6.338428 6.662912 5.000000
v -6.331745 6.659507 5.000000
v -6.572025 6.860942 5.000000
v -6.564892 6.858625 5.000000
v -6.557759 6.856307 5.000000
v -6.550626 6.853989 5.000000
v -6.543493 6.851672 5.000000
v -6.536360 6.849354 5.000000
v -6.529227 6.847037 5.000000
v -6.522094 6.844719 5.000000
v -6.514961 6.842401 5.000000
v -6.507828 6.840084 5.000000
v -6.500695 6.837766 5.000000
v -6.493562 6.835448 5.000000
v -6.486429 6.833131 5.000000
v -6.479297 6.830813 5.000000
v -6.472164 6.828496 5.000000
v -6.465031 6.826178 5.000000
v -6.457898 6.823860 5.000000
v -6.450765 6.821543 5.000000
v -6.443632 6.819225 5.000000
v -6.436499 6.816907 5.000000
v -6.429366 6.814590 5.000000
v -6.422233 6.812272 5.000000
v -6.415100 6.809955 5.000000
v -6.407967 6.807637 5.000000
v -6.400834 6.805319 5.000000
v -6.393701 6.803002 5.000000
v -6.386569 6.800684 5.000000
v -6.379436 6.798366 5.000000
v -6.372303 6.796049 5.000000
v -6.365170 6.793731 5.000000
v -6.358037 6.791414 5.000000
v -6.350904 6.789096 5.000000
v -6.343771 6.786778 5.000000
v -6.336638 6.784461 5.000000
v -6.329505 6.782143 5.000000
v -6.322372 6.779825 5.000000
v -6.315239 6.777508 5.000000
v -6.308106 6.775190 5.000000
v -6.300973 6.772873 5.000000
v -6.293841 6.770555 5.000000
v -6.286708 6.768237 5.000000
v -6.555540 6.929604 5.000000
v -6.548133 6.928431 5.000000
v -6.540725 6.927258 5.000000
v -6.533317 6.926085 5.000000
v -6.525910 6.924911 5.000000
v -6.518502 6.923738 5.000000
v -6.511094 6.922565 5.000000
v -6.503687 6.921392 5.000000
v -6.496279 6.920218 5.000000
v -6.488871 6.919045 5.000000
v -6.481464 6.917872 5.000000
v -6.474056 6.916699 5.000000
v -6.466648 6.915525 5.000000
v -6.459241 6.914352 5.000000
v -6.451833 6.913179 5.000000
v -6.444425 6.912006 5.000000
v -6.437018 6.910832 5.000000
v -6.429610 6.909659 5.000000
v -6.422202 6.908486 5.000000
v -6.414795 6.907313 5.000000
v -6.407387 6.906139 5.000000
v -6.399979 6.904966 5.000000
v -6.392572 6.903793 5.000000
v -6.385164 6.902620 5.000000
v -6.377756 6.901446 5.000000
v -6.370349 6.900273 5.000000
v -6.362941 6.899100 5.000000
v -6.355533 6.897927 5.000000
v -6.348126 6.896753 5.000000
v -6.340718 6.895580 5.000000
v -6.333310 6.894407 5.000000
v -6.325903 6.893233 5.000000
v -6.318495 6.892060 5.000000
v -6.311087 6.890887 5.000000
v -6.303680 6.889714 5.000000
v -6.296272 6.888540 5.000000
v -6.288864 6.887367 5.000000
v -6.281457 6.886194 5.000000
v -6.274049 6.885021 5.000000
v -6.266641 6.883847 5.000000
v -6.259234 6.882674 5.000000
v -6.550000 7.000000 5.000000
v -6.542500 7.000000 5.000000
v -6.535000 7.000000 5.000000
v -6.527500 7.000000 5.000000
v -6.520000 7.000000 5.000000
v -6.512500 7.000000 5.000000
v -6.505000 7.000000 5.000000
v -6.497500 7.000000 5.000000
v -6.490000 7.000000 5.000000
v -6.482500 7.000000 5.000000
v -6.475000 7.000000 5.000000
v -6.467500 7.000000 5.000000
v -6.460000 7.000000 5.000000
v -6.452500 7.000000 5.000000
v -6.445000 7.000000 5.000000
v -6.437500 7.000000 5.000000
v -6.430000 7.000000 5.000000
v -6.422500 7.000000 5.000000
v -6.415000 7.000000 5.000000
v -6.407500 7.000000 5.000000
v -6.400000 7.000000 5.000000
v -6.392500 7.000000 5.000000
v -6.385000 7.000000 5.000000
v -6.377500 7.000000 5.000000
v -6.370000 7.000000 5.000000
v -6.362500 7.000000 5.000000
v -6.355000 7.000000 5.000000
v -6.347500 7.000000 5.000000
v -6.340000 7.000000 5.000000
v -6.332500 7.000000 5.000000
v -6.325000 7.000000 5.000000
v -6.317500 7.000000 5.000000
v -6.310000 7.000000 5.000000
v -6.302500 7.000000 5.000000
v -6.295000 7.000000 5.000000
v -6.287500 7.000000 5.000000
v -6.280000 7.000000 5.000000
v -6.272500 7.000000 5.000000
v -6.265000 7.000000 5.000000
v -6.257500 7.000000 5.000000
v -6.250000 7.000000 5.000000
f 1 2 43
f 1 43 42
f 2 3 44
f 2 44 43
f 3 4 45
f 3 45 44
f 4 5 46
f 4 46 45
f 5 6 47
f 5 47 46
f 6 7 48
f 6 48 47
f 7 8 49
f 7 49 48
f 8 9 50
f 8 50 49
f 9 10 51
f 9 51 50
f 10 11 52
f 10 52 51
f 11 12 53
f 11 53 52
f 12 13 54
f 12 54 53
f 13 14 55
f 13 55 54
f 14 15 56
f 14 56 55
f 15 16 57
f 15 57 56
f 16 17 58
f 16 58 57
f 17 18 59
f 17 59 58
f 18 19 60
f 18 60 59
f 19 20 61
f 19 61 60
f 20 21 62
f 20 62 61
f 21 22 63
f 21 63 62
f 22 23 64
f 22 64 63
f 23 24 65
f 23 65 64
f 24 25 66
f 24 66 65
f 25 26 67
f 25 67 66
f 26 27 68
f 26 68 67
f 27 28 69
f 27 69 68
f 28 29 70
f 28 70 69
f 29 30 71
f 29 71 70
f 30 31 72
f 30 72 71
f 31 32 73
f 31 73 72
f 32 33 74
f 32 74 73
f 33 34 75
f 33 75 74
f 34 35 76
f 34 76 75
f 35 36 77
f 35 77 76
f 36 37 78
f 36 78 77
f 37 38 79
f 37 79 78
f 38 39 80
f 38 80 79
f 39 40 81
f 39 81 80
f 40 41 82
f 40 82 81
f 42 43 84
f 42 84 83
f 43 44 85
f 43 85 84
f 44 45 86
f 44 86 85
f 45 46 87
f 45 87 86
f 46 47 88
f 46 88 87
f 47 48 89
f 47 89 88
f 48 49 90
f 48 90 89
f 49 50 91
f 49 91 90
f 50 51 92
f 50 92 91
f 51 52 93
f 51 93 92
f 52 53 94
f 52 94 93
f 53 54 95
f 53 95 94
f 54 55 96
f 54 96 95
f 55 56 97
f 55 97 96
f 56 57 98
f 56 98 97
f 57 58 99
f 57 99 98
f 58 59 100
f 58 100 99
f 59 60 101
f 59 101 100
f 60 61 102
f 60 102 101
f 61 62 103
f 61 103 102
f 62 63 104
f 62 104 103
f 63 64 105
f 63 105 104
f 64 65 106
f 64 106 105
f 65 66 107
f 65 107 106
f 66 67 108
f 66 108 107
f 67 68 109
f 67 109 108
f 68 69 110
f 68 110 109
f 69 70 111
f 69 111 110
f 70 71 112
f 70 112 111
f 71 72 113
f 71 113 112
f 72 73 114
f 72 114 113
f 73 74 115
f 73 115 114
f 74 75 116
f 74 116 115
f 75 76 117
f 75 117 116
f 76 77 118
f 76 118 117
f 77 78 119
f 77 119 118
f 78 79 120
f 78 120 119
f 79 80 121
f 79 121 120
f 80 81 122
f 80 122 121
f 81 82 123
f 81 123 122
f 83 84 125
f 83 125 124
f 84 85 126
f 84 126 125
f 85 86 127
f 85 127 126
f 86 87 128
f 86 128 127
f 87 88 129
f 87 129 128
f 88 89 130
f 88 130 129
f 89 90 131
f 89 131 130
f 90 91 132
f 90 132 131
f 91 92 133
f 91 133 132
f 92 93 134
f 92 134 133
f 93 94 135
f 93 135 134
f 94 95 136
f 94 136 135
f 95 96 137
f 95 137 136
f 96 97 138
f 96 138 137
f 97 98 139
f 97 139 138
f 98 99 140
f 98 140 139
f 99 100 141
f 99 141 140
f 100 101 142
f 100 142 141
f 101 102 143
f 101 143 142
f 102 103 144
f 102 144 143
f 103 104 145
f 103 145 144
f 104 105 146
f 104 146 145
f 105 106 147
f 105 147 146
f 106 107 148
f 106 148 147
f 107 108 149
f 107 149 148
f 108 109 150
f 108 150 149
f 109 110 151
f 109 151 150
f 110 111 152
f 110 152 151
f 111 112 153
f 111 153 152
f 112 113 154
f 112 154 153
f 113 114 155
f 113 155 154
f 114 115 156
f 114 156 155
f 115 116 157
f 115 157 156
f 116 117 158
f 116 158 157
f 117 118 159
f 117 159 158
f 118 119 160
f 118 160 159
f 119 120 161
f 119 161 160
f 120 121 162
f 120 162 161
f 121 122 163
f 121 163 162
f 122 123 164
f 122 164 163
f 124 125 166
f 124 166 165
f 125 126 167
f 125 167 166
f 126 127 168
f 126 168 167
f 127 128 169
f 127 169 168
f 128 129 170
f 128 170 169
f 129 130 171
f 129 171 170
f 130 131 172
f 130 172 171
f 131 132 173
f 131 173 172
f 132 133 174
f 132 174 173
f 133 134 175
f 133 175 174
f 134 135 176
f 134 176 175
f 135 136 177
f 135 177 176
f 136 137 178
f 136 178 177
f 137 138 179
f 137 179 178
f 138 139 180
f 138 180 179
f 139 140 181
f 139 181 180
f 140 141 182
f 140 182 181
f 141 142 183
f 141 183 182
f 142 143 184
f 142 184 183
f 143 144 185
f 143 185 184
f 144 145 186
f 144 186 185
f 145 146 187
f 145 187 186
f 146 147 188
f 146 188 187
f 147 148 189
f 147 189 188
f 148 149 190
f 148 190 189
f 149 150 191
f 149 191 190
f 150 151 192
f 150 192 191
f 151 152 193
f 151 193 192
f 152 153 194
f 152 194 193
f 153 154 195
f 153 195 194
f 154 155 196
f 154 196 195
f 155 156 197
f 155 197 196
f 156 157 198
f 156 198 197
f 157 158 199
f 157 199 198
f 158 159 200
f 158 200 199
f 159 160 201
f 159 201 200
f 160 161 202
f 160 202 201
f 161 162 203
f 161 203 202
f 162 163 204
f 162 204 203
f 163 164 205
f 163 205 204
f 165 166 207
f 165 207 206
f 166 167 208
f 166 208 207
f 167 168 209
f 167 209 208
f 168 169 210
f 168 210 209
f 169 170 211
f 169 211 210
f 170 171 212
f 170 212 211
f 171 172 213
f 171 213 212
f 172 173 214
f 172 214 213
f 173 174 215
f 173 215 214
f 174 175 216
f 174 216 215
f 175 176 217
f 175 217 216
f 176 177 218
f 176 218 217
f 177 178 219
f 177 219 218
f 178 179 220
f 178 220 219
f 179 180 221
f 179 221 220
f 180 181 222
f 180 222 221
f 181 182 223
f 181 223 222
f 182 183 224
f 182 224 223
f 183 184 225
f 183 225 224
f 184 185 226
f 184 226 225
f 185 186 227
f 185 227 226
f 186 187 228
f 186 228 227
f 187 188 229
f 187 229 228
f 188 189 230
f 188 230 229
f 189 190 231
f 189 231 230
f 190 191 232
f 190 232 231
f 191 192 233
f 191 233 232
f 192 193 234
f 192 234 233
f 193 194 235
f 193 235 234
f 194 195 236
f 194 236 235
f 195 196 237
f 195 237 236
f 196 197 238
f 196 238 237
f 197 198 239
f 197 239 238
f 198 199 240
f 198 240 239
f 199 200 241
f 199 241 240
f 200 201 242
f 200 242 241
f 201 202 243
f 201 243 242
f 202 203 244
f 202 244 243
f 203 204 245
f 203 245 244
f 204 205 246
f 204 246 245
f 206 207 248
f 206 248 247
f 207 208 249
f 207 249 248
f 208 209 250
f 208 250 249
f 209 210 251
f 209 251 250
f 210 211 252
f 210 252 251
f 211 212 253
f 211 253 252
f 212 213 254
f 212 254 253
f 213 214 255
f 213 255 254
f 214 215 256
f 214 256 255
f 215 216 257
f 215 257 256
f 216 217 258
f 216 258 257
f 217 218 259
f 217 259 258
f 218 219 260
f 218 260 259
f 219 220 261
f 219 261 260
f 220 221 262
f 220 262 261
f 221 222 263
f 221 263 262
f 222 223 264
f 222 264 263
f 223 224 265
f 223 265 264
f 224 225 266
f 224 266 265
f 225 226 267
f 225 267 266
f 226 227 268
f 226 268 267
f 227 228 269
f 227 269 268
f 228 229 270
f 228 270 269
f 229 230 271
f 229 271 270
f 230 231 272
f 230 272 271
f 231 232 273
f 231 273 272
f 232 233 274
f 232 274 273
f 233 234 275
f 233 275 274
f 234 235 276
f 234 276 275
f 235 236 277
f 235 277 276
f 236 237 278
f 236 278 277
f 237 238 279
f 237 279 278
f 238 239 280
f 238 280 279
f 239 240 281
f 239 281 280
f 240 241 282
f 240 282 281
f 241 242 283
f 241 283 282
f 242 243 284
f 242 284 283
f 243 244 285
f 243 285 284
f 244 245 286
f 244 286 285
f 245 246 287
f 245 287 286
f 247 248 289
f 247 289 288
f 248 249 290
f 248 290 289
f 249 250 291
f 249 291 290
f 250 251 292
f 250 292 291
f 251 252 293
f 251 293 292
f 252 253 294
f 252 294 293
f 253 254 295
f 253 295 294
f 254 255 296
f 254 296 295
f 255 256 297
f 255 297 296
f 256 257 298
f 256 298 297
f 257 258 299
f 257 299 298
f 258 259 300
f 258 300 299
f 259 260 301
f 259 301 300
f 260 261 302
f 260 302 301
f 261 262 303
f 261 303 302
f 262 263 304
f 262 304 303
f 263 264 305
f 263 305 304
f 264 265 306
f 264 306 305
f 265 266 307
f 265 307 306
f 266 267 308
f 266 308 307
f 267 268 309
f 267 309 308
f 268 269 310
f 268 310 309
f 269 270 311
f 269 311 310
f 270 271 312
f 270 312 311
f 271 272 313
f 271 313 312
f 272 273 314
f 272 314 313
f 273 274 315
f 273 315 314
f 274 275 316
f 274 316 315
f 275 276 317
f 275 317 316
f 276 277 318
f 276 318 317
f 277 278 319
f 277 319 318
f 278 279 320
f 278 320 319
f 279 280 321
f 279 321 320
f 280 281 322
f 280 322 321
f 281 282 323
f 281 323 322
f 282 283 324
f 282 324 323
f 283 284 325
f 283 325 324
f 284 285 326
f 284 326 325
f 285 286 327
f 285 327 326
f 286 287 328
f 286 328 327
f 288 289 330
f 288 330 329
f 289 290 331
f 289 331 330
f 290 291 332
f 290 332 331
f 291 292 333
f 291 333 332
f 292 293 334
f 292 334 333
f 293 294 335
f 293 335 334
f 294 295 336
f 294 336 335
f 295 296 337
f 295 337 336
f 296 297 338
f 296 338 337
f 297 298 339
f 297 339 338
f 298 299 340
f 298 340 339
f 299 300 341
f 299 341 340
f 300 301 342
f 300 342 341
f 301 302 343
f 301 343 342
f 302 303 344
f 302 344 343
f 303 304 345
f 303 345 344
f 304 305 346
f 304 346 345
f 305 306 347
f 305 347 346
f 306 307 348
f 306 348 347
f 307 308 349
f 307 349 348
f 308 309 350
f 308 350 349
f 309 310 351
f 309 351 350
f 310 311 352
f 310 352 351
f 311 312 353
f 311 353 352
f 312 313 354
f 312 354 353
f 313 314 355
f 313 355 354
f 314 315 356
f 314 356 355
f 315 316 357
f 315 357 356
f 316 317 358
f 316 358 357
f 317 318 359
f 317 359 358
f 318 319 360
f 318 360 359
f 319 320 361
f 319 361 360
f 320 321 362
f 320 362 361
f 321 322 363
f 321 363 362
f 322 323 364
f 322 364 363
f 323 324 365
f 323 365 364
f 324 325 366
f 324 366 365
f 325 326 367
f 325 367 366
f 326 327 368
f 326 368 367
f 327 328 369
f 327 369 368
f 329 330 371
f 329 371 370
f 330 331 372
f 330 372 371
f 331 332 373
f 331 373 372
f 332 333 374
f 332 374 373
f 333 334 375
f 333 375 374
f 334 335 376
f 334 376 375
f 335 336 377
f 335 377 376
f 336 337 378
f 336 378 377
f 337 338 379
f 337 379 378
f 338 339 380
f 338 380 379
f 339 340 381
f 339 381 380
f 340 341 382
f 340 382 381
f 341 342 383
f 341 383 382
f 342 343 384
f 342 384 383
f 343 344 385
f 343 385 384
f 344 345 386
f 344 386 385
f 345 346 387
f 345 387 386
f 346 347 388
f 346 388 387
f 347 348 389
f 347 389 388
f 348 349 390
f 348 390 389
f 349 350 391
f 349 391 390
f 350 351 392
f 350 392 391
f 351 352 393
f 351 393 392
f 352 353 394
f 352 394 393
f 353 354 395
f 353 395 394
f 354 355 396
f 354 396 395
f 355 356 397
f 355 397 396
f 356 357 398
f 356 398 397
f 357 358 399
f 357 399 398
f 358 359 400
f 358 400 399
f 359 360 401
f 359 401 400
f 360 361 402
f 360 402 401
f 361 362 403
f 361 403 402
f 362 363 404
f 362 404 403
f 363 364 405
f 363 405 404
f 364 365 406
f 364 406 405
f 365 366 407
f 365 407 406
f 366 367 408
f 366 408 407
f 367 368 409
f 367 409 408
f 368 369 410
f 368 410 409
f 370 371 412
f 370 412 411
f 371 372 413
f 371 413 412
f 372 373 414
f 372 414 413
f 373 374 415
f 373 415 414
f 374 375 416
f 374 416 415
f 375 376 417
f 375 417 416
f 376 377 418
f 376 418 417
f 377 378 419
f 377 419 418
f 378 379 420
f 378 420 419
f 379 380 421
f 379 421 420
f 380 381 422
f 380 422 421
f 381 382 423
f 381 423 422
f 382 383 424
f 382 424 423
f 383 384 425
f 383 425 424
f 384 385 426
f 384 426 425
f 385 386 427
f 385 427 426
f 386 387 428
f 386 428 427
f 387 388 429
f 387 429 428
f 388 389 430
f 388 430 429
f 389 390 431
f 389 431 430
f 390 391 432
f 390 432 431
f 391 392 433
f 391 433 432
f 392 393 434
f 392 434 433
f 393 394 435
f 393 435 434
f 394 395 436
f 394 436 435
f 395 396 437
f 395 437 436
f 396 397 438
f 396 438 437
f 397 398 439
f 397 439 438
f 398 399 440
f 398 440 439
f 399 400 441
f 399 441 440
f 400 401 442
f 400 442 441
f 401 402 443
f 401 443 442
f 402 403 444
f 402 444 443
f 403 404 445
f 403 445 444
f 404 405 446
f 404 446 445
f 405 406 447
f 405 447 446
f 406 407 448
f 406 448 447
f 407 408 449
f 407 449 448
f 408 409 450
f 408 450 449
f 409 410 451
f 409 451 450
f 411 412 453
f 411 453 452
f 412 413 454
f 412 454 453
f 413 414 455
f 413 455 454
f 414 415 456
f 414 456 455
f 415 416 457
f 415 457 456
f 416 417 458
f 416 458 457
f 417 418 459
f 417 459 458
f 418 419 460
f 418 460 459
f 419 420 461
f 419 461 460
f 420 421 462
f 420 462 461
f 421 422 463
f 421 463 462
f 422 423 464
f 422 464 463
f 423 424 465
f 423 465 464
f 424 425 466
f 424 466 465
f 425 426 467
f 425 467 466
f 426 427 468
f 426 468 467
f 427 428 469
f 427 469 468
f 428 429 470
f 428 470 469
f 429 430 471
f 429 471 470
f 430 431 472
f 430 472 471
f 431 432 473
f 431 473 472
f 432 433 474
f 432 474 473
f 433 434 475
f 433 475 474
f 434 435 476
f 434 476 475
f 435 436 477
f 435 477 476
f 436 437 478
f 436 478 477
f 437 438 479
f 437 479 478
f 438 439 480
f 438 480 479
f 439 440 481
f 439 481 480
f 440 441 482
f 440 482 481
f 441 442 483
f 441 483 482
f 442 443 484
f 442 484 483
f 443 444 485
f 443 485 484
f 444 445 486
f 444 486 485
f 445 446 487
f 445 487 486
f 446 447 488
f 446 488 487
f 447 448 489
f 447 489 488
f 448 449 490
f 448 490 489
f 449 450 491
f 449 491 490
f 450 451 492
f 450 492 491
f 452 453 494
f 452 494 493
f 453 454 495
f 453 495 494
f 454 455 496
f 454 496 495
f 455 456 497
f 455 497 496
f 456 457 498
f 456 498 497
f 457 458 499
f 457 499 498
f 458 459 500
f 458 500 499
f 459 460 501
f 459 501 500
f 460 461 502
f 460 502 501
f 461 462 503
f 461 503 502
f 462 463 504
f 462 504 503
f 463 464 505
f 463 505 504
f 464 465 506
f 464 506 505
f 465 466 507
f 465 507 506
f 466 467 508
f 466 508 507
f 467 468 509
f 467 509 508
f 468 469 510
f 468 510 509
f 469 470 511
f 469 511 510
f 470 471 512
f 470 512 511
f 471 472 513
f 471 513 512
f 472 473 514
f 472 514 513
f 473 474 515
f 473 515 514
f 474 475 516
f 474 516 515
f 475 476 517
f 475 517 516
f 476 477 518
f 476 518 517
f 477 478 519
f 477 519 518
f 478 479 520
f 478 520 519
f 479 480 521
f 479 521 520
f 480 481 522
f 480 522 521
f 481 482 523
f 481 523 522
f 482 483 524
f 482 524 523
f 483 484 525
f 483 525 524
f 484 485 526
f 484 526 525
f 485 486 527
f 485 527 526
f 486 487 528
f 486 528 527
f 487 488 529
f 487 529 528
f 488 489 530
f 488 530 529
f 489 490 531
f 489 531 530
f 490 491 532
f 490 532 531
f 491 492 533
f 491 533 532
f 493 494 535
f 493 535 534
f 494 495 536
f 494 536 535
f 495 496 537
f 495 537 536
f 496 497 538
f 496 538 537
f 497 498 539
f 497 539 538
f 498 499 540
f 498 540 539
f 499 500 541
f 499 541 540
f 500 501 542
f 500 542 541
f 501 502 543
f 501 543 542
f 502 503 544
f 502 544 543
f 503 504 545
f 503 545 544
f 504 505 546
f 504 546 545
f 505 506 547
f 505 547 546
f 506 507 548
f 506 548 547
f 507 508 549
f 507 549 548
f 508 509 550
f 508 550 549
f 509 510 551
f 509 551 550
f 510 511 552
f 510 552 551
f 511 512 553
f 511 553 552
f 512 513 554
f 512 554 553
f 513 514 555
f 513 555 554
f 514 515 556
f 514 556 555
f 515 516 557
f 515 557 556
f 516 517 558
f 516 558 557
f 517 518 559
f 517 559 558
f 518 519 560
f 518 560 559
f 519 520 561
f 519 561 560
f 520 521 562
f 520 562 561
f 521 522 563
f 521 563 562
f 522 523 564
f 522 564 563
f 523 524 565
f 523 565 564
f 524 525 566
f 524 566 565
f 525 526 567
f 525 567 566
f 526 527 568
f 526 568 567
f 527 528 569
f 527 569 568
f 528 529 570
f 528 570 569
f 529 530 571
f 529 571 570
f 530 531 572
f 530 572 571
f 531 532 573
f 531 573 572
f 532 533 574
f 532 574 573
f 534 535 576
f 534 576 575
f 535 536 577
f 535 577 576
f 536 537 578
f 536 578 577
f 537 538 579
f 537 579 578
f 538 539 580
f 538 580 579
f 539 540 581
f 539 581 580
f 540 541 582
f 540 582 581
f 541 542 583
f 541 583 582
f 542 543 584
f 542 584 583
f 543 544 585
f 543 585 584
f 544 545 586
f 544 586 585
f 545 546 587
f 545 587 586
f 546 547 588
f 546 588 587
f 547 548 589
f 547 589 588
f 548 549 590
f 548 590 589
f 549 550 591
f 549 591 590
f 550 551 592
f 550 592 591
f 551 552 593
f 551 593 592
f 552 553 594
f 552 594 593
f 553 554 595
f 553 595 594
f 554 555 596
f 554 596 595
f 555 556 597
f 555 597 596
f 556 557 598
f 556 598 597
f 557 558 599
f 557 599 598
f 558 559 600
f 558 600 599
f 559 560 601
f 559 601 600
f 560 561 602
f 560 602 601
f 561 562 603
f 561 603 602
f 562 563 604
f 562 604 603
f 563 564 605
f 563 605 604
f 564 565 606
f 564 606 605
f 565 566 607
f 565 607 606
f 566 567 608
f 566 608 607
f 567 568 609
f 567 609 608
f 568 569 610
f 568 610 609
f 569 570 611
f 569 611 610
f 570 571 612
f 570 612 611
f 571 572 613
f 571 613 612
f 572 573 614
f 572 614 613
f 573 574 615
f 573 615 614
f 575 576 617
f 575 617 616
f 576 577 618
f 576 618 617
f 577 578 619
f 577 619 618
f 578 579 620
f 578 620 619
f 579 580 621
f 579 621 620
f 580 581 622
f 580 622 621
f 581 582 623
f 581 623 622
f 582 583 624
f 582 624 623
f 583 584 625
f 583 625 624
f 584 585 626
f 584 626 625
f 585 586 627
f 585 627 626
f 586 587 628
f 586 628 627
f 587 588 629
f 587 629 628
f 588 589 630
f 588 630 629
f 589 590 631
f 589 631 630
f 590 591 632
f 590 632 631
f 591 592 633
f 591 633 632
f 592 593 634
f 592 634 633
f 593 594 635
f 593 635 634
f 594 595 636
f 594 636 635
f 595 596 637
f 595 637 636
f 596 597 638
f 596 638 637
f 597 598 639
f 597 639 638
f 598 599 640
f 598 640 639
f 599 600 641
f 599 641 640
f 600 601 642
f 600 642 641
f 601 602 643
f 601 643 642
f 602 603 644
f 602 644 643
f 603 604 645
f 603 645 644
f 604 605 646
f 604 646 645
f 605 606 647
f 605 647 646
f 606 607 648
f 606 648 647
f 607 608 649
f 607 649 648
f 608 609 650
f 608 650 649
f 609 610 651
f 609 651 650
f 610 611 652
f 610 652 651
f 611 612 653
f 611 653 652
f 612 613 654
f 612 654 653
f 613 614 655
f 613 655 654
f 614 615 656
f 614 656 655
f 616 617 658
f 616 658 657
f 617 618 659
f 617 659 658
f 618 619 660
f 618 660 659
f 619 620 661
f 619 661 660
f 620 621 662
f 620 662 661
f 621 622 663
f 621 663 662
f 622 623 664
f 622 664 663
f 623 624 665
f 623 665 664
f 624 625 666
f 624 666 665
f 625 626 667
f 625 667 666
f 626 627 668
f 626 668 667
f 627 628 669
f 627 669 668
f 628 629 670
f 628 670 669
f 629 630 671
f 629 671 670
f 630 631 672
f 630 672 671
f 631 632 673
f 631 673 672
f 632 633 674
f 632 674 673
f 633 634 675
f 633 675 674
f 634 635 676
f 634 676 675
f 635 636 677
f 635 677 676
f 636 637 678
f 636 678 677
f 637 638 679
f 637 679 678
f 638 639 680
f 638 680 679
f 639 640 681
f 639 681 680
f 640 641 682
f 640 682 681
f 641 642 683
f 641 683 682
f 642 643 684
f 642 684 683
f 643 644 685
f 643 685 684
f 644 645 686
f 644 686 685
f 645 646 687
f 645 687 686
f 646 647 688
f 646 688 687
f 647 648 689
f 647 689 688
f 648 649 690
f 648 690 689
f 649 650 691
f 649 691 690
f 650 651 692
f 650 692 691
f 651 652 693
f 651 693 692
f 652 653 694
f 652 694 693
f 653 654 695
f 653 695 694
f 654 655 696
f 654 696 695
f 655 656 697
f 655 697 696
f 657 658 699
f 657 699 698
f 658 659 700
f 658 700 699
f 659 660 701
f 659 701 700
f 660 661 702
f 660 702 701
f 661 662 703
f 661 703 702
f 662 663 704
f 662 704 703
f 663 664 705
f 663 705 704
f 664 665 706
f 664 706 705
f 665 666 707
f 665 707 706
f 666 667 708
f 666 708 707
f 667 668 709
f 667 709 708
f 668 669 710
f 668 710 709
f 669 670 711
f 669 711 710
f 670 671 712
f 670 712 711
f 671 672 713
f 671 713 712
f 672 673 714
f 672 714 713
f 673 674 715
f 673 715 714
f 674 675 716
f 674 716 715
f 675 676 717
f 675 717 716
f 676 677 718
f 676 718 717
f 677 678 719
f 677 719 718
f 678 679 720
f 678 720 719
f 679 680 721
f 679 721 720
f 680 681 722
f 680 722 721
f 681 682 723
f 681 723 722
f 682 683 724
f 682 724 723
f 683 684 725
f 683 725 724
f 684 685 726
f 684 726 725
f 685 686 727
f 685 727 726
f 686 687 728
f 686 728 727
f 687 688 729
f 687 729 728
f 688 689 730
f 688 730 729
f 689 690 731
f 689 731 730
f 690 691 732
f 690 732 731
f 691 692 733
f 691 733 732
f 692 693 734
f 692 734 733
f 693 694 735
f 693 735 734
f 694 695 736
f 694 736 735
f 695 696 737
f 695 737 736
f 696 697 738
f 696 738 737
f 698 699 740
f 698 740 739
f 699 700 741
f 699 741 740
f 700 701 742
f 700 742 741
f 701 702 743
f 701 743 742
f 702 703 744
f 702 744 743
f 703 704 745
f 703 745 744
f 704 705 746
f 704 746 745
f 705 706 747
f 705 747 746
f 706 707 748
f 706 748 747
f 707 708 749
f 707 749 748
f 708 709 750
f 708 750 749
f 709 710 751
f 709 751 750
f 710 711 752
f 710 752 751
f 711 712 753
f 711 753 752
f 712 713 754
f 712 754 753
f 713 714 755
f 713 755 754
f 714 715 756
f 714 756 755
f 715 716 757
f 715 757 756
f 716 717 758
f 716 758 757
f 717 718 759
f 717 759 758
f 718 719 760
f 718 760 759
f 719 720 761
f 719 761 760
f 720 721 762
f 720 762 761
f 721 722 763
f 721 763 762
f 722 723 764
f 722 764 763
f 723 724 765
f 723 765 764
f 724 725 766
f 724 766 765
f 725 726 767
f 725 767 766
f 726 727 768
f 726 768 767
f 727 728 769
f 727 769 768
f 728 729 770
f 728 770 769
f 729 730 771
f 729 771 770
f 730 731 772
f 730 772 771
f 731 732 773
f 731 773 772
f 732 733 774
f 732 774 773
f 733 734 775
f 733 775 774
f 734 735 776
f 734 776 775
f 735 736 777
f 735 777 776
f 736 737 778
f 736 778 777
f 737 738 779
f 737 779 778
f 739 740 781
f 739 781 780
f 740 741 782
f 740 782 781
f 741 742 783
f 741 783 782
f 742 743 784
f 742 784 783
f 743 744 785
f 743 785 784
f 744 745 786
f 744 786 785
f 745 746 787
f 745 787 786
f 746 747 788
f 746 788 787
f 747 748 789
f 747 789 788
f 748 749 790
f 748 790 789
f 749 750 791
f 749 791 790
f 750 751 792
f 750 792 791
f 751 752 793
f 751 793 792
f 752 753 794
f 752 794 793
f 753 754 795
f 753 795 794
f 754 755 796
f 754 796 795
f 755 756 797
f 755 797 796
f 756 757 798
f 756 798 797
f 757 758 799
f 757 799 798
f 758 759 800
f 758 800 799
f 759 760 801
f 759 801 800
f 760 761 802
f 760 802 801
f 761 762 803
f 761 803 802
f 762 763 804
f 762 804 803
f 763 764 805
f 763 805 804
f 764 765 806
f 764 806 805
f 765 766 807
f 765 807 806
f 766 767 808
f 766 808 807
f 767 768 809
f 767 809 808
f 768 769 810
f 768 810 809
f 769 770 811
f 769 811 810
f 770 771 812
f 770 812 811
f 771 772 813
f 771 813 812
f 772 773 814
f 772 814 813
f 773 774 815
f 773 815 814
f 774 775 816
f 774 816 815
f 775 776 817
f 775 817 816
f 776 777 818
f 776 818 817
f 777 778 819
f 777 819 818
f 778 779 820
f 778 820 819
f 780 781 822
f 780 822 821
f 781 782 823
f 781 823 822
f 782 783 824
f 782 824 823
f 783 784 825
f 783 825 824
f 784 785 826
f 784 826 825
f 785 786 827
f 785 827 826
f 786 787 828
f 786 828 827
f 787 788 829
f 787 829 828
f 788 789 830
f 788 830 829
f 789 790 831
f 789 831 830
f 790 791 832
f 790 832 831
f 791 792 833
f 791 833 832
f 792 793 834
f 792 834 833
f 793 794 835
f 793 835 834
f 794 795 836
f 794 836 835
f 795 796 837
f 795 837 836
f 796 797 838
f 796 838 837
f 797 798 839
f 797 839 838
f 798 799 840
f 798 840 839
f 799 800 841
f 799 841 840
f 800 801 842
f 800 842 841
f 801 802 843
f 801 843 842
f 802 803 844
f 802 844 843
f 803 804 845
f 803 845 844
f 804 805 846
f 804 846 845
f 805 806 847
f 805 847 846
f 806 807 848
f 806 848 847
f 807 808 849
f 807 849 848
f 808 809 850
f 808 850 849
f 809 810 851
f 809 851 850
f 810 811 852
f 810 852 851
f 811 812 853
f 811 853 852
f 812 813 854
f 812 854 853
f 813 814 855
f 813 855 854
f 814 815 856
f 814 856 855
f 815 816 857
f 815 857 856
f 816 817 858
f 816 858 857
f 817 818 859
f 817 859 858
f 818 819 860
f 818 860 859
f 819 820 861
f 819 861 860
f 821 822 863
f 821 863 862
f 822 823 864
f 822 864 863
f 823 824 865
f 823 865 864
f 824 825 866
f 824 866 865
f 825 826 867
f 825 867 866
f 826 827 868
f 826 868 867
f 827 828 869
f 827 869 868
f 828 829 870
f 828 870 869
f 829 830 871
f 829 871 870
f 830 831 872
f 830 872 871
f 831 832 873
f 831 873 872
f 832 833 874
f 832 874 873
f 833 834 875
f 833 875 874
f 834 835 876
f 834 876 875
f 835 836 877
f 835 877 876
f 836 837 878
f 836 878 877
f 837 838 879
f 837 879 878
f 838 839 880
f 838 880 879
f 839 840 881
f 839 881 880
f 840 841 882
f 840 882 881
f 841 842 883
f 841 883 882
f 842 843 884
f 842 884 883
f 843 844 885
f 843 885 884
f 844 845 886
f 844 886 885
f 845 846 887
f 845 887 886
f 846 847 888
f 846 888 887
f 847 848 889
f 847 889 888
f 848 849 890
f 848 890 889
f 849 850 891
f 849 891 890
f 850 851 892
f 850 892 891
f 851 852 893
f 851 893 892
f 852 853 894
f 852 894 893
f 853 854 895
f 853 895 894
f 854 855 896
f 854 896 895
f 855 856 897
f 855 897 896
f 856 857 898
f 856 898 897
f 857 858 899
f 857 899 898
f 858 859 900
f 858 900 899
f 859 860 901
f 859 901 900
f 860 861 902
f 860 902 901
f 862 863 904
f 862 904 903
f 863 864 905
f 863 905 904
f 864 865 906
f 864 906 905
f 865 866 907
f 865 907 906
f 866 867 908
f 866 908 907
f 867 868 909
f 867 909 908
f 868 869 910
f 868 910 909
f 869 870 911
f 869 911 910
f 870 871 912
f 870 912 911
f 871 872 913
f 871 913 912
f 872 873 914
f 872 914 913
f 873 874 915
f 873 915 914
f 874 875 916
f 874 916 915
f 875 876 917
f 875 917 916
f 876 877 918
f 876 918 917
f 877 878 919
f 877 919 918
f 878 879 920
f 878 920 919
f 879 880 921
f 879 921 920
f 880 881 922
f 880 922 921
f 881 882 923
f 881 923 922
f 882 883 924
f 882 924 923
f 883 884 925
f 883 925 924
f 884 885 926
f 884 926 925
f 885 886 927
f 885 927 926
f 886 887 928
f 886 928 927
f 887 888 929
f 887 929 928
f 888 889 930
f 888 930 929
f 889 890 931
f 889 931 930
f 890 891 932
f 890 932 931
f 891 892 933
f 891 933 932
f 892 893 934
f 892 934 933
f 893 894 935
f 893 935 934
f 894 895 936
f 894 936 935
f 895 896 937
f 895 937 936
f 896 897 938
f 896 938 937
f 897 898 939
f 897 939 938
f 898 899 940
f 898 940 939
f 899 900 941
f 899 941 940
f 900 901 942
f 900 942 941
f 901 902 943
f 901 943 942
f 903 904 945
f 903 945 944
f 904 905 946
f 904 946 945
f 905 906 947
f 905 947 946
f 906 907 948
f 906 948 947
f 907 908 949
f 907 949 948
f 908 909 950
f 908 950 949
f 909 910 951
f 909 951 950
f 910 911 952
f 910 952 951
f 911 912 953
f 911 953 952
f 912 913 954
f 912 954 953
f 913 914 955
f 913 955 954
f 914 915 956
f 914 956 955
f 915 916 957
f 915 957 956
f 916 917 958
f 916 958 957
f 917 918 959
f 917 959 958
f 918 919 960
f 918 960 959
f 919 920 961
f 919 961 960
f 920 921 962
f 920 962 961
f 921 922 963
f 921 963 962
f 922 923 964
f 922 964 963
f 923 924 965
f 923 965 964
f 924 925 966
f 924 966 965
f 925 926 967
f 925 967 966
f 926 927 968
f 926 968 967
f 927 928 969
f 927 969 968
f 928 929 970
f 928 970 969
f 929 930 971
f 929 971 970
f 930 931 972
f 930 972 971
f 931 932 973
f 931 973 972
f 932 933 974
f 932 974 973
f 933 934 975
f 933 975 974
f 934 935 976
f 934 976 975
f 935 936 977
f 935 977 976
f 936 937 978
f 936 978 977
f 937 938 979
f 937 979 978
f 938 939 980
f 938 980 979
f 939 940 981
f 939 981 980
f 940 941 982
f 940 982 981
f 941 942 983
f 941 983 982
f 942 943 984
f 942 984 983
f 944 945 986
f 944 986 985
f 945 946 987
f 945 987 986
f 946 947 988
f 946 988 987
f 947 948 989
f 947 989 988
f 948 949 990
f 948 990 989
f 949 950 991
f 949 991 990
f 950 951 992
f 950 992 991
f 951 952 993
f 951 993 992
f 952 953 994
f 952 994 993
f 953 954 995
f 953 995 994
f 954 955 996
f 954 996 995
f 955 956 997
f 955 997 996
f 956 957 998
f 956 998 997
f 957 958 999
f 957 999 998
f 958 959 1000
f 958 1000 999
f 959 960 1001
f 959 1001 1000
f 960 961 1002
f 960 1002 1001
f 961 962 1003
f 961 1003 1002
f 962 963 1004
f 962 1004 1003
f 963 964 1005
f 963 1005 1004
f 964 965 1006
f 964 1006 1005
f 965 966 1007
f 965 1007 1006
f 966 967 1008
f 966 1008 1007
f 967 968 1009
f 967 1009 1008
f 968 969 1010
f 968 1010 1009
f 969 970 1011
f 969 1011 1010
f 970 971 1012
f 970 1012 1011
f 971 972 1013
f 971 1013 1012
f 972 973 1014
f 972 1014 1013
f 973 974 1015
f 973 1015 1014
f 974 975 1016
f 974 1016 1015
f 975 976 1017
f 975 1017 1016
f 976 977 1018
f 976 1018 1017
f 977 978 1019
f 977 1019 1018
f 978 979 1020
f 978 1020 1019
f 979 980 1021
f 979 1021 1020
f 980 981 1022
f 980 1022 1021
f 981 982 1023
f 981 1023 1022
f 982 983 1024
f 982 1024 1023
f 983 984 1025
f 983 1025 1024
f 985 986 1027
f 985 1027 1026
f 986 987 1028
f 986 1028 1027
f 987 988 1029
f 987 1029 1028
f 988 989 1030
f 988 1030 1029
f 989 990 1031
f 989 1031 1030
f 990 991 1032
f 990 1032 1031
f 991 992 1033
f 991 1033 1032
f 992 993 1034
f 992 1034 1033
f 993 994 1035
f 993 1035 1034
f 994 995 1036
f 994 1036 1035
f 995 996 1037
f 995 1037 1036
f 996 997 1038
f 996 1038 1037
f 997 998 1039
f 997 1039 1038
f 998 999 1040
f 998 1040 1039
f 999 1000 1041
f 999 1041 1040
f 1000 1001 1042
f 1000 1042 1041
f 1001 1002 1043
f 1001 1043 1042
f 1002 1003 1044
f 1002 1044 1043
f 1003 1004 1045
f 1003 1045 1044
f 1004 1005 1046
f 1004 1046 1045
f 1005 1006 1047
f 1005 1047 1046
f 1006 1007 1048
f 1006 1048 1047
f 1007 1008 1049
f 1007 1049 1048
f 1008 1009 1050
f 1008 1050 1049
f 1009 1010 1051
f 1009 1051 1050
f 1010 1011 1052
f 1010 1052 1051
f 1011 1012 1053
f 1011 1053 1052
f 1012 1013 1054
f 1012 1054 1053
f 1013 1014 1055
f 1013 1055 1054
f 1014 1015 1056
f 1014 1056 1055
f 1015 1016 1057
f 1015 1057 1056
f 1016 1017 1058
f 1016 1058 1057
f 1017 1018 1059
f 1017 1059 1058
f 1018 1019 1060
f 1018 1060 1059
f 1019 1020 1061
f 1019 1061 1060
f 1020 1021 1062
f 1020 1062 1061
f 1021 1022 1063
f 1021 1063 1062
f 1022 1023 1064
f 1022 1064 1063
f 1023 1024 1065
f 1023 1065 1064
f 1024 1025 1066
f 1024 1066 1065
f 1026 1027 1068
f 1026 1068 1067
f 1027 1028 1069
f 1027 1069 1068
f 1028 1029 1070
f 1028 1070 1069
f 1029 1030 1071
f 1029 1071 1070
f 1030 1031 1072
f 1030 1072 1071
f 1031 1032 1073
f 1031 1073 1072
f 1032 1033 1074
f 1032 1074 1073
f 1033 1034 1075
f 1033 1075 1074
f 1034 1035 1076
f 1034 1076 1075
f 1035 1036 1077
f 1035 1077 1076
f 1036 1037 1078
f 1036 1078 1077
f 1037 1038 1079
f 1037 1079 1078
f 1038 1039 1080
f 1038 1080 1079
f 1039 1040 1081
f 1039 1081 1080
f 1040 1041 1082
f 1040 1082 1081
f 1041 1042 1083
f 1041 1083 1082
f 1042 1043 1084
f 1042 1084 1083
f 1043 1044 1085
f 1043 1085 1084
f 1044 1045 1086
f 1044 1086 1085
f 1045 1046 1087
f 1045 1087 1086
f 1046 1047 1088
f 1046 1088 1087
f 1047 1048 1089
f 1047 1089 1088
f 1048 1049 1090
f 1048 1090 1089
f 1049 1050 1091
f 1049 1091 1090
f 1050 1051 1092
f 1050 1092 1091
f 1051 1052 1093
f 1051 1093 1092
f 1052 1053 1094
f 1052 1094 1093
f 1053 1054 1095
f 1053 1095 1094
f 1054 1055 1096
f 1054 1096 1095
f 1055 1056 1097
f 1055 1097 1096
f 1056 1057 1098
f 1056 1098 1097
f 1057 1058 1099
f 1057 1099 1098
f 1058 1059 1100
f 1058 1100 1099
f 1059 1060 1101
f 1059 1101 1100
f 1060 1061 1102
f 1060 1102 1101
f 1061 1062 1103
f 1061 1103 1102
f 1062 1063 1104
f 1062 1104 1103
f 1063 1064 1105
f 1063 1105 1104
f 1064 1065 1106
f 1064 1106 1105
f 1065 1066 1107
f 1065 1107 1106
f 1067 1068 1109
f 1067 1109 1108
f 1068 1069 1110
f 1068 1110 1109
f 1069 1070 1111
f 1069 1111 1110
f 1070 1071 1112
f 1070 1112 1111
f 1071 1072 1113
f 1071 1113 1112
f 1072 1073 1114
f 1072 1114 1113
f 1073 1074 1115
f 1073 1115 1114
f 1074 1075 1116
f 1074 1116 1115
f 1075 1076 1117
f 1075 1117 1116
f 1076 1077 1118
f 1076 1118 1117
f 1077 1078 1119
f 1077 1119 1118
f 1078 1079 1120
f 1078 1120 1119
f 1079 1080 1121
f 1079 1121 1120
f 1080 1081 1122
f 1080 1122 1121
f 1081 1082 1123
f 1081 1123 1122
f 1082 1083 1124
f 1082 1124 1123
f 1083 1084 1125
f 1083 1125 1124
f 1084 1085 1126
f 1084 1126 1125
f 1085 1086 1127
f 1085 1127 1126
f 1086 1087 1128
f 1086 1128 1127
f 1087 1088 1129
f 1087 1129 1128
f 1088 1089 1130
f 1088 1130 1129
f 1089 1090 1131
f 1089 1131 1130
f 1090 1091 1132
f 1090 1132 1131
f 1091 1092 1133
f 1091 1133 1132
f 1092 1093 1134
f 1092 1134 1133
f 1093 1094 1135
f 1093 1135 1134
f 1094 1095 1136
f 1094 1136 1135
f 1095 1096 1137
f 1095 1137 1136
f 1096 1097 1138
f 1096 1138 1137
f 1097 1098 1139
f 1097 1139 1138
f 1098 1099 1140
f 1098 1140 1139
f 1099 1100 1141
f 1099 1141 1140
f 1100 1101 1142
f 1100 1142 1141
f 1101 1102 1143
f 1101 1143 1142
f 1102 1103 1144
f 1102 1144 1143
f 1103 1104 1145
f 1103 1145 1144
f 1104 1105 1146
f 1104 1146 1145
f 1105 1106 1147
f 1105 1147 1146
f 1106 1107 1148
f 1106 1148 1147
f 1108 1109 1150
f 1108 1150 1149
f 1109 1110 1151
f 1109 1151 1150
f 1110 1111 1152
f 1110 1152 1151
f 1111 1112 1153
f 1111 1153 1152
f 1112 1113 1154
f 1112 1154 1153
f 1113 1114 1155
f 1113 1155 1154
f 1114 1115 1156
f 1114 1156 1155
f 1115 1116 1157
f 1115 1157 1156
f 1116 1117 1158
f 1116 1158 1157
f 1117 1118 1159
f 1117 1159 1158
f 1118 1119 1160
f 1118 1160 1159
f 1119 1120 1161
f 1119 1161 1160
f 1120 1121 1162
f 1120 1162 1161
f 1121 1122 1163
f 1121 1163 1162
f 1122 1123 1164
f 1122 1164 1163
f 1123 1124 1165
f 1123 1165 1164
f 1124 1125 1166
f 1124 1166 1165
f 1125 1126 1167
f 1125 1167 1166
f 1126 1127 1168
f 1126 1168 1167
f 1127 1128 1169
f 1127 1169 1168
f 1128 1129 1170
f 1128 1170 1169
f 1129 1130 1171
f 1129 1171 1170
f 1130 1131 1172
f 1130 1172 1171
f 1131 1132 1173
f 1131 1173 1172
f 1132 1133 1174
f 1132 1174 1173
f 1133 1134 1175
f 1133 1175 1174
f 1134 1135 1176
f 1134 1176 1175
f 1135 1136 1177
f 1135 1177 1176
f 1136 1137 1178
f 1136 1178 1177
f 1137 1138 1179
f 1137 1179 1178
f 1138 1139 1180
f 1138 1180 1179
f 1139 1140 1181
f 1139 1181 1180
f 1140 1141 1182
f 1140 1182 1181
f 1141 1142 1183
f 1141 1183 1182
f 1142 1143 1184
f 1142 1184 1183
f 1143 1144 1185
f 1143 1185 1184
f 1144 1145 1186
f 1144 1186 1185
f 1145 1146 1187
f 1145 1187 1186
f 1146 1147 1188
f 1146 1188 1187
f 1147 1148 1189
f 1147 1189 1188
f 1149 1150 1191
f 1149 1191 1190
f 1150 1151 1192
f 1150 1192 1191
f 1151 1152 1193
f 1151 1193 1192
f 1152 1153 1194
f 1152 1194 1193
f 1153 1154 1195
f 1153 1195 1194
f 1154 1155 1196
f 1154 1196 1195
f 1155 1156 1197
f 1155 1197 1196
f 1156 1157 1198
f 1156 1198 1197
f 1157 1158 1199
f 1157 1199 1198
f 1158 1159 1200
f 1158 1200 1199
f 1159 1160 1201
f 1159 1201 1200
f 1160 1161 1202
f 1160 1202 1201
f 1161 1162 1203
f 1161 1203 1202
f 1162 1163 1204
f 1162 1204 1203
f 1163 1164 1205
f 1163 1205 1204
f 1164 1165 1206
f 1164 1206 1205
f 1165 1166 1207
f 1165 1207 1206
f 1166 1167 1208
f 1166 1208 1207
f 1167 1168 1209
f 1167 1209 1208
f 1168 1169 1210
f 1168 1210 1209
f 1169 1170 1211
f 1169 1211 1210
f 1170 1171 1212
f 1170 1212 1211
f 1171 1172 1213
f 1171 1213 1212
f 1172 1173 1214
f 1172 1214 1213
f 1173 1174 1215
f 1173 1215 1214
f 1174 1175 1216
f 1174 1216 1215
f 1175 1176 1217
f 1175 1217 1216
f 1176 1177 1218
f 1176 1218 1217
f 1177 1178 1219
f 1177 1219 1218
f 1178 1179 1220
f 1178 1220 1219
f 1179 1180 1221
f 1179 1221 1220
f 1180 1181 1222
f 1180 1222 1221
f 1181 1182 1223
f 1181 1223 1222
f 1182 1183 1224
f 1182 1224 1223
f 1183 1184 1225
f 1183 1225 1224
f 1184 1185 1226
f 1184 1226 1225
f 1185 1186 1227
f 1185 1227 1226
f 1186 1187 1228
f 1186 1228 1227
f 1187 1188 1229
f 1187 1229 1228
f 1188 1189 1230
f 1188 1230 1229
f 1190 1191 1232
f 1190 1232 1231
f 1191 1192 1233
f 1191 1233 1232
f 1192 1193 1234
f 1192 1234 1233
f 1193 1194 1235
f 1193 1235 1234
f 1194 1195 1236
f 1194 1236 1235
f 1195 1196 1237
f 1195 1237 1236
f 1196 1197 1238
f 1196 1238 1237
f 1197 1198 1239
f 1197 1239 1238
f 1198 1199 1240
f 1198 1240 1239
f 1199 1200 1241
f 1199 1241 1240
f 1200 1201 1242
f 1200 1242 1241
f 1201 1202 1243
f 1201 1243 1242
f 1202 1203 1244
f 1202 1244 1243
f 1203 1204 1245
f 1203 1245 1244
f 1204 1205 1246
f 1204 1246 1245
f 1205 1206 1247
f 1205 1247 1246
f 1206 1207 1248
f 1206 1248 1247
f 1207 1208 1249
f 1207 1249 1248
f 1208 1209 1250
f 1208 1250 1249
f 1209 1210 1251
f 1209 1251 1250
f 1210 1211 1252
f 1210 1252 1251
f 1211 1212 1253
f 1211 1253 1252
f 1212 1213 1254
f 1212 1254 1253
f 1213 1214 1255
f 1213 1255 1254
f 1214 1215 1256
f 1214 1256 1255
f 1215 1216 1257
f 1215 1257 1256
f 1216 1217 1258
f 1216 1258 1257
f 1217 1218 1259
f 1217 1259 1258
f 1218 1219 1260
f 1218 1260 1259
f 1219 1220 1261
f 1219 1261 1260
f 1220 1221 1262
f 1220 1262 1261
f 1221 1222 1263
f 1221 1263 1262
f 1222 1223 1264
f 1222 1264 1263
f 1223 1224 1265
f 1223 1265 1264
f 1224 1225 1266
f 1224 1266 1265
f 1225 1226 1267
f 1225 1267 1266
f 1226 1227 1268
f 1226 1268 1267
f 1227 1228 1269
f 1227 1269 1268
f 1228 1229 1270
f 1228 1270 1269
f 1229 1230 1271
f 1229 1271 1270
f 1231 1232 1273
f 1231 1273 1272
f 1232 1233 1274
f 1232 1274 1273
f 1233 1234 1275
f 1233 1275 1274
f 1234 1235 1276
f 1234 1276 1275
f 1235 1236 1277
f 1235 1277 1276
f 1236 1237 1278
f 1236 1278 1277
f 1237 1238 1279
f 1237 1279 1278
f 1238 1239 1280
f 1238 1280 1279
f 1239 1240 1281
f 1239 1281 1280
f 1240 1241 1282
f 1240 1282 1281
f 1241 1242 1283
f 1241 1283 1282
f 1242 1243 1284
f 1242 1284 1283
f 1243 1244 1285
f 1243 1285 1284
f 1244 1245 1286
f 1244 1286 1285
f 1245 1246 1287
f 1245 1287 1286
f 1246 1247 1288
f 1246 1288 1287
f 1247 1248 1289
f 1247 1289 1288
f 1248 1249 1290
f 1248 1290 1289
f 1249 1250 1291
f 1249 1291 1290
f 1250 1251 1292
f 1250 1292 1291
f 1251 1252 1293
f 1251 1293 1292
f 1252 1253 1294
f 1252 1294 1293
f 1253 1254 1295
f 1253 1295 1294
f 1254 1255 1296
f 1254 1296 1295
f 1255 1256 1297
f 1255 1297 1296
f 1256 1257 1298
f 1256 1298 1297
f 1257 1258 1299
f 1257 1299 1298
f 1258 1259 1300
f 1258 1300 1299
f 1259 1260 1301
f 1259 1301 1300
f 1260 1261 1302
f 1260 1302 1301
f 1261 1262 1303
f 1261 1303 1302
f 1262 1263 1304
f 1262 1304 1303
f 1263 1264 1305
f 1263 1305 1304
f 1264 1265 1306
f 1264 1306 1305
f 1265 1266 1307
f 1265 1307 1306
f 1266 1267 1308
f 1266 1308 1307
f 1267 1268 1309
f 1267 1309 1308
f 1268 1269 1310
f 1268 1310 1309
f 1269 1270 1311
f 1269 1311 1310
f 1270 1271 1312
f 1270 1312 1311
f 1272 1273 1314
f 1272 1314 1313
f 1273 1274 1315
f 1273 1315 1314
f 1274 1275 1316
f 1274 1316 1315
f 1275 1276 1317
f 1275 1317 1316
f 1276 1277 1318
f 1276 1318 1317
f 1277 1278 1319
f 1277 1319 1318
f 1278 1279 1320
f 1278 1320 1319
f 1279 1280 1321
f 1279 1321 1320
f 1280 1281 1322
f 1280 1322 1321
f 1281 1282 1323
f 1281 1323 1322
f 1282 1283 1324
f 1282 1324 1323
f 1283 1284 1325
f 1283 1325 1324
f 1284 1285 1326
f 1284 1326 1325
f 1285 1286 1327
f 1285 1327 1326
f 1286 1287 1328
f 1286 1328 1327
f 1287 1288 1329
f 1287 1329 1328
f 1288 1289 1330
f 1288 1330 1329
f 1289 1290 1331
f 1289 1331 1330
f 1290 1291 1332
f 1290 1332 1331
f 1291 1292 1333
f 1291 1333 1332
f 1292 1293 1334
f 1292 1334 1333
f 1293 1294 1335
f 1293 1335 1334
f 1294 1295 1336
f 1294 1336 1335
f 1295 1296 1337
f 1295 1337 1336
f 1296 1297 1338
f 1296 1338 1337
f 1297 1298 1339
f 1297 1339 1338
f 1298 1299 1340
f 1298 1340 1339
f 1299 1300 1341
f 1299 1341 1340
f 1300 1301 1342
f 1300 1342 1341
f 1301 1302 1343
f 1301 1343 1342
f 1302 1303 1344
f 1302 1344 1343
f 1303 1304 1345
f 1303 1345 1344
f 1304 1305 1346
f 1304 1346 1345
f 1305 1306 1347
f 1305 1347 1346
f 1306 1307 1348
f 1306 1348 1347
f 1307 1308 1349
f 1307 1349 1348
f 1308 1309 1350
f 1308 1350 1349
f 1309 1310 1351
f 1309 1351 1350
f 1310 1311 1352
f 1310 1352 1351
f 1311 1312 1353
f 1311 1353 1352
f 1313 1314 1355
f 1313 1355 1354
f 1314 1315 1356
f 1314 1356 1355
f 1315 1316 1357
f 1315 1357 1356
f 1316 1317 1358
f 1316 1358 1357
f 1317 1318 1359
f 1317 1359 1358
f 1318 1319 1360
f 1318 1360 1359
f 1319 1320 1361
f 1319 1361 1360
f 1320 1321 1362
f 1320 1362 1361
f 1321 1322 1363
f 1321 1363 1362
f 1322 1323 1364
f 1322 1364 1363
f 1323 1324 1365
f 1323 1365 1364
f 1324 1325 1366
f 1324 1366 1365
f 1325 1326 1367
f 1325 1367 1366
f 1326 1327 1368
f 1326 1368 1367
f 1327 1328 1369
f 1327 1369 1368
f 1328 1329 1370
f 1328 1370 1369
f 1329 1330 1371
f 1329 1371 1370
f 1330 1331 1372
f 1330 1372 1371
f 1331 1332 1373
f 1331 1373 1372
f 1332 1333 1374
f 1332 1374 1373
f 1333 1334 1375
f 1333 1375 1374
f 1334 1335 1376
f 1334 1376 1375
f 1335 1336 1377
f 1335 1377 1376
f 1336 1337 1378
f 1336 1378 1377
f 1337 1338 1379
f 1337 1379 1378
f 1338 1339 1380
f 1338 1380 1379
f 1339 1340 1381
f 1339 1381 1380
f 1340 1341 1382
f 1340 1382 1381
f 1341 1342 1383
f 1341 1383 1382
f 1342 1343 1384
f 1342 1384 1383
f 1343 1344 1385
f 1343 1385 1384
f 1344 1345 1386
f 1344 1386 1385
f 1345 1346 1387
f 1345 1387 1386
f 1346 1347 1388
f 1346 1388 1387
f 1347 1348 1389
f 1347 1389 1388
f 1348 1349 1390
f 1348 1390 1389
f 1349 1350 1391
f 1349 1391 1390
f 1350 1351 1392
f 1350 1392 1391
f 1351 1352 1393
f 1351 1393 1392
f 1352 1353 1394
f 1352 1394 1393
f 1354 1355 1396
f 1354 1396 1395
f 1355 1356 1397
f 1355 1397 1396
f 1356 1357 1398
f 1356 1398 1397
f 1357 1358 1399
f 1357 1399 1398
f 1358 1359 1400
f 1358 1400 1399
f 1359 1360 1401
f 1359 1401 1400
f 1360 1361 1402
f 1360 1402 1401
f 1361 1362 1403
f 1361 1403 1402
f 1362 1363 1404
f 1362 1404 1403
f 1363 1364 1405
f 1363 1405 1404
f 1364 1365 1406
f 1364 1406 1405
f 1365 1366 1407
f 1365 1407 1406
f 1366 1367 1408
f 1366 1408 1407
f 1367 1368 1409
f 1367 1409 1408
f 1368 1369 1410
f 1368 1410 1409
f 1369 1370 1411
f 1369 1411 1410
f 1370 1371 1412
f 1370 1412 1411
f 1371 1372 1413
f 1371 1413 1412
f 1372 1373 1414
f 1372 1414 1413
f 1373 1374 1415
f 1373 1415 1414
f 1374 1375 1416
f 1374 1416 1415
f 1375 1376 1417
f 1375 1417 1416
f 1376 1377 1418
f 1376 1418 1417
f 1377 1378 1419
f 1377 1419 1418
f 1378 1379 1420
f 1378 1420 1419
f 1379 1380 1421
f 1379 1421 1420
f 1380 1381 1422
f 1380 1422 1421
f 1381 1382 1423
f 1381 1423 1422
f 1382 1383 1424
f 1382 1424 1423
f 1383 1384 1425
f 1383 1425 1424
f 1384 1385 1426
f 1384 1426 1425
f 1385 1386 1427
f 1385 1427 1426
f 1386 1387 1428
f 1386 1428 1427
f 1387 1388 1429
f 1387 1429 1428
f 1388 1389 1430
f 1388 1430 1429
f 1389 1390 1431
f 1389 1431 1430
f 1390 1391 1432
f 1390 1432 1431
f 1391 1392 1433
f 1391 1433 1432
f 1392 1393 1434
f 1392 1434 1433
f 1393 1394 1435
f 1393 1435 1434
f 1395 1396 1437
f 1395 1437 1436
f 1396 1397 1438
f 1396 1438 1437
f 1397 1398 1439
f 1397 1439 1438
f 1398 1399 1440
f 1398 1440 1439
f 1399 1400 1441
f 1399 1441 1440
f 1400 1401 1442
f 1400 1442 1441
f 1401 1402 1443
f 1401 1443 1442
f 1402 1403 1444
f 1402 1444 1443
f 1403 1404 1445
f 1403 1445 1444
f 1404 1405 1446
f 1404 1446 1445
f 1405 1406 1447
f 1405 1447 1446
f 1406 1407 1448
f 1406 1448 1447
f 1407 1408 1449
f 1407 1449 1448
f 1408 1409 1450
f 1408 1450 1449
f 1409 1410 1451
f 1409 1451 1450
f 1410 1411 1452
f 1410 1452 1451
f 1411 1412 1453
f 1411 1453 1452
f 1412 1413 1454
f 1412 1454 1453
f 1413 1414 1455
f 1413 1455 1454
f 1414 1415 1456
f 1414 1456 1455
f 1415 1416 1457
f 1415 1457 1456
f 1416 1417 1458
f 1416 1458 1457
f 1417 1418 1459
f 1417 1459 1458
f 1418 1419 1460
f 1418 1460 1459
f 1419 1420 1461
f 1419 1461 1460
f 1420 1421 1462
f 1420 1462 1461
f 1421 1422 1463
f 1421 1463 1462
f 1422 1423 1464
f 1422 1464 1463
f 1423 1424 1465
f 1423 1465 1464
f 1424 1425 1466
f 1424 1466 1465
f 1425 1426 1467
f 1425 1467 1466
f 1426 1427 1468
f 1426 1468 1467
f 1427 1428 1469
f 1427 1469 1468
f 1428 1429 1470
f 1428 1470 1469
f 1429 1430 1471
f 1429 1471 1470
f 1430 1431 1472
f 1430 1472 1471
f 1431 1432 1473
f 1431 1473 1472
f 1432 1433 1474
f 1432 1474 1473
f 1433 1434 1475
f 1433 1475 1474
f 1434 1435 1476
f 1434 1476 1475
f 1436 1437 1478
f 1436 1478 1477
f 1437 1438 1479
f 1437 1479 1478
f 1438 1439 1480
f 1438 1480 1479
f 1439 1440 1481
f 1439 1481 1480
f 1440 1441 1482
f 1440 1482 1481
f 1441 1442 1483
f 1441 1483 1482
f 1442 1443 1484
f 1442 1484 1483
f 1443 1444 1485
f 1443 1485 1484
f 1444 1445 1486
f 1444 1486 1485
f 1445 1446 1487
f 1445 1487 1486
f 1446 1447 1488
f 1446 1488 1487
f 1447 1448 1489
f 1447 1489 1488
f 1448 1449 1490
f 1448 1490 1489
f 1449 1450 1491
f 1449 1491 1490
f 1450 1451 1492
f 1450 1492 1491
f 1451 1452 1493
f 1451 1493 1492
f 1452 1453 1494
f 1452 1494 1493
f 1453 1454 1495
f 1453 1495 1494
f 1454 1455 1496
f 1454 1496 1495
f 1455 1456 1497
f 1455 1497 1496
f 1456 1457 1498
f 1456 1498 1497
f 1457 1458 1499
f 1457 1499 1498
f 1458 1459 1500
f 1458 1500 1499
f 1459 1460 1501
f 1459 1501 1500
f 1460 1461 1502
f 1460 1502 1501
f 1461 1462 1503
f 1461 1503 1502
f 1462 1463 1504
f 1462 1504 1503
f 1463 1464 1505
f 1463 1505 1504
f 1464 1465 1506
f 1464 1506 1505
f 1465 1466 1507
f 1465 1507 1506
f 1466 1467 1508
f 1466 1508 1507
f 1467 1468 1509
f 1467 1509 1508
f 1468 1469 1510
f 1468 1510 1509
f 1469 1470 1511
f 1469 1511 1510
f 1470 1471 1512
f 1470 1512 1511
f 1471 1472 1513
f 1471 1513 1512
f 1472 1473 1514
f 1472 1514 1513
f 1473 1474 1515
f 1473 1515 1514
f 1474 1475 1516
f 1474 1516 1515
f 1475 1476 1517
f 1475 1517 1516
f 1477 1478 1519
f 1477 1519 1518
f 1478 1479 1520
f 1478 1520 1519
f 1479 1480 1521
f 1479 1521 1520
f 1480 1481 1522
f 1480 1522 1521
f 1481 1482 1523
f 1481 1523 1522
f 1482 1483 1524
f 1482 1524 1523
f 1483 1484 1525
f 1483 1525 1524
f 1484 1485 1526
f 1484 1526 1525
f 1485 1486 1527
f 1485 1527 1526
f 1486 1487 1528
f 1486 1528 1527
f 1487 1488 1529
f 1487 1529 1528
f 1488 1489 1530
f 1488 1530 1529
f 1489 1490 1531
f 1489 1531 1530
f 1490 1491 1532
f 1490 1532 1531
f 1491 1492 1533
f 1491 1533 1532
f 1492 1493 1534
f 1492 1534 1533
f 1493 1494 1535
f 1493 1535 1534
f 1494 1495 1536
f 1494 1536 1535
f 1495 1496 1537
f 1495 1537 1536
f 1496 1497 1538
f 1496 1538 1537
f 1497 1498 1539
f 1497 1539 1538
f 1498 1499 1540
f 1498 1540 1539
f 1499 1500 1541
f 1499 1541 1540
f 1500 1501 1542
f 1500 1542 1541
f 1501 1502 1543
f 1501 1543 1542
f 1502 1503 1544
f 1502 1544 1543
f 1503 1504 1545
f 1503 1545 1544
f 1504 1505 1546
f 1504 1546 1545
f 1505 1506 1547
f 1505 1547 1546
f 1506 1507 1548
f 1506 1548 1547
f 1507 1508 1549
f 1507 1549 1548
f 1508 1509 1550
f 1508 1550 1549
f 1509 1510 1551
f 1509 1551 1550
f 1510 1511 1552
f 1510 1552 1551
f 1511 1512 1553
f 1511 1553 1552
f 1512 1513 1554
f 1512 1554 1553
f 1513 1514 1555
f 1513 1555 1554
f 1514 1515 1556
f 1514 1556 1555
f 1515 1516 1557
f 1515 1557 1556
f 1516 1517 1558
f 1516 1558 1557
f 1518 1519 1560
f 1518 1560 1559
f 1519 1520 1561
f 1519 1561 1560
f 1520 1521 1562
f 1520 1562 1561
f 1521 1522 1563
f 1521 1563 1562
f 1522 1523 1564
f 1522 1564 1563
f 1523 1524 1565
f 1523 1565 1564
f 1524 1525 1566
f 1524 1566 1565
f 1525 1526 1567
f 1525 1567 1566
f 1526 1527 1568
f 1526 1568 1567
f 1527 1528 1569
f 1527 1569 1568
f 1528 1529 1570
f 1528 1570 1569
f 1529 1530 1571
f 1529 1571 1570
f 1530 1531 1572
f 1530 1572 1571
f 1531 1532 1573
f 1531 1573 1572
f 1532 1533 1574
f 1532 1574 1573
f 1533 1534 1575
f 1533 1575 1574
f 1534 1535 1576
f 1534 1576 1575
f 1535 1536 1577
f 1535 1577 1576
f 1536 1537 1578
f 1536 1578 1577
f 1537 1538 1579
f 1537 1579 1578
f 1538 1539 1580
f 1538 1580 1579
f 1539 1540 1581
f 1539 1581 1580
f 1540 1541 1582
f 1540 1582 1581
f 1541 1542 1583
f 1541 1583 1582
f 1542 1543 1584
f 1542 1584 1583
f 1543 1544 1585
f 1543 1585 1584
f 1544 1545 1586
f 1544 1586 1585
f 1545 1546 1587
f 1545 1587 1586
f 1546 1547 1588
f 1546 1588 1587
f 1547 1548 1589
f 1547 1589 1588
f 1548 1549 1590
f 1548 1590 1589
f 1549 1550 1591
f 1549 1591 1590
f 1550 1551 1592
f 1550 1592 1591
f 1551 1552 1593
f 1551 1593 1592
f 1552 1553 1594
f 1552 1594 1593
f 1553 1554 1595
f 1553 1595 1594
f 1554 1555 1596
f 1554 1596 1595
f 1555 1556 1597
f 1555 1597 1596
f 1556 1557 1598
f 1556 1598 1597
f 1557 1558 1599
f 1557 1599 1598
f 1559 1560 1601
f 1559 1601 1600
f 1560 1561 1602
f 1560 1602 1601
f 1561 1562 1603
f 1561 1603 1602
f 1562 1563 1604
f 1562 1604 1603
f 1563 1564 1605
f 1563 1605 1604
f 1564 1565 1606
f 1564 1606 1605
f 1565 1566 1607
f 1565 1607 1606
f 1566 1567 1608
f 1566 1608 1607
f 1567 1568 1609
f 1567 1609 1608
f 1568 1569 1610
f 1568 1610 1609
f 1569 1570 1611
f 1569 1611 1610
f 1570 1571 1612
f 1570 1612 1611
f 1571 1572 1613
f 1571 1613 1612
f 1572 1573 1614
f 1572 1614 1613
f 1573 1574 1615
f 1573 1615 1614
f 1574 1575 1616
f 1574 1616 1615
f 1575 1576 1617
f 1575 1617 1616
f 1576 1577 1618
f 1576 1618 1617
f 1577 1578 1619
f 1577 1619 1618
f 1578 1579 1620
f 1578 1620 1619
f 1579 1580 1621
f 1579 1621 1620
f 1580 1581 1622
f 1580 1622 1621
f 1581 1582 1623
f 1581 1623 1622
f 1582 1583 1624
f 1582 1624 1623
f 1583 1584 1625
f 1583 1625 1624
f 1584 1585 1626
f 1584 1626 1625
f 1585 1586 1627
f 1585 1627 1626
f 1586 1587 1628
f 1586 1628 1627
f 1587 1588 1629
f 1587 1629 1628
f 1588 1589 1630
f 1588 1630 1629
f 1589 1590 1631
f 1589 1631 1630
f 1590 1591 1632
f 1590 1632 1631
f 1591 1592 1633
f 1591 1633 1632
f 1592 1593 1634
f 1592 1634 1633
f 1593 1594 1635
f 1593 1635 1634
f 1594 1595 1636
f 1594 1636 1635
f 1595 1596 1637
f 1595 1637 1636
f 1596 1597 1638
f 1596 1638 1637
f 1597 1598 1639
f 1597 1639 1638
f 1598 1599 1640
f 1598 1640 1639
f 1600 1601 1642
f 1600 1642 1641
f 1601 1602 1643
f 1601 1643 1642
f 1602 1603 1644
f 1602 1644 1643
f 1603 1604 1645
f 1603 1645 1644
f 1604 1605 1646
f 1604 1646 1645
f 1605 1606 1647
f 1605 1647 1646
f 1606 1607 1648
f 1606 1648 1647
f 1607 1608 1649
f 1607 1649 1648
f 1608 1609 1650
f 1608 1650 1649
f 1609 1610 1651
f 1609 1651 1650
f 1610 1611 1652
f 1610 1652 1651
f 1611 1612 1653
f 1611 1653 1652
f 1612 1613 1654
f 1612 1654 1653
f 1613 1614 1655
f 1613 1655 1654
f 1614 1615 1656
f 1614 1656 1655
f 1615 1616 1657
f 1615 1657 1656
f 1616 1617 1658
f 1616 1658 1657
f 1617 1618 1659
f 1617 1659 1658
f 1618 1619 1660
f 1618 1660 1659
f 1619 1620 1661
f 1619 1661 1660
f 1620 1621 1662
f 1620 1662 1661
f 1621 1622 1663
f 1621 1663 1662
f 1622 1623 1664
f 1622 1664 1663
f 1623 1624 1665
f 1623 1665 1664
f 1624 1625 1666
f 1624 1666 1665
f 1625 1626 1667
f 1625 1667 1666
f 1626 1627 1668
f 1626 1668 1667
f 1627 1628 1669
f 1627 1669 1668
f 1628 1629 1670
f 1628 1670 1669
f 1629 1630 1671
f 1629 1671 1670
f 1630 1631 1672
f 1630 1672 1671
f 1631 1632 1673
f 1631 1673 1672
f 1632 1633 1674
f 1632 1674 1673
f 1633 1634 1675
f 1633 1675 1674
f 1634 1635 1676
f 1634 1676 1675
f 1635 1636 1677
f 1635 1677 1676
f 1636 1637 1678
f 1636 1678 1677
f 1637 1638 1679
f 1637 1679 1678
f 1638 1639 1680
f 1638 1680 1679
f 1639 1640 1681
f 1639 1681 1680
