o JSONCali_441
v 63.491875 -0.927500 4.326500
v 63.491875 -0.795000 4.326500
v 63.491875 -0.795000 4.477000
v 63.491875 -0.927500 4.477000
v 63.576562 -0.927500 4.326500
v 63.576562 -0.927500 4.477000
v 63.576562 -0.795000 4.477000
v 63.576562 -0.795000 4.326500
v 63.491875 -0.795000 4.627500
v 63.491875 -0.927500 4.627500
v 63.576562 -0.927500 4.627500
v 63.576562 -0.795000 4.627500
v 63.491875 -0.662500 4.477000
v 63.491875 -0.662500 4.627500
v 63.576562 -0.662500 4.627500
v 63.576562 -0.662500 4.477000
v 63.491875 -0.662500 4.778000
v 63.491875 -0.795000 4.778000
v 63.576562 -0.795000 4.778000
v 63.576562 -0.662500 4.778000
v 63.491875 -0.530000 4.627500
v 63.491875 -0.530000 4.778000
v 63.576562 -0.530000 4.778000
v 63.576562 -0.530000 4.627500
v 63.491875 -0.530000 4.928500
v 63.491875 -0.662500 4.928500
v 63.576562 -0.662500 4.928500
v 63.576562 -0.530000 4.928500
v 63.491875 -0.397500 4.778000
v 63.491875 -0.397500 4.928500
v 63.576562 -0.397500 4.928500
v 63.576562 -0.397500 4.778000
v 63.491875 -0.397500 5.079000
v 63.491875 -0.530000 5.079000
v 63.576562 -0.530000 5.079000
v 63.576562 -0.397500 5.079000
v 63.491875 -0.265000 4.928500
v 63.491875 -0.265000 5.079000
v 63.576562 -0.265000 5.079000
v 63.576562 -0.265000 4.928500
v 63.491875 -0.265000 5.229500
v 63.491875 -0.397500 5.229500
v 63.576562 -0.397500 5.229500
v 63.576562 -0.265000 5.229500
v 63.491875 -0.132500 5.079000
v 63.491875 -0.132500 5.229500
v 63.576562 -0.132500 5.079000
v 63.491875 -0.132500 5.380000
v 63.491875 -0.265000 5.380000
v 63.576562 -0.265000 5.380000
v 63.576562 -0.132500 5.380000
v 63.491875 0.000000 5.079000
v 63.491875 0.000000 5.229500
v 63.576562 0.000000 5.229500
v 63.576562 0.000000 5.079000
v 63.491875 0.000000 5.380000
v 63.491875 0.000000 5.530500
v 63.491875 -0.132500 5.530500
v 63.576562 -0.132500 5.530500
v 63.576562 0.000000 5.530500
v 63.491875 0.132500 5.229500
v 63.491875 0.132500 5.380000
v 63.576562 0.132500 5.380000
v 63.576562 0.132500 5.229500
v 63.491875 0.132500 5.530500
v 63.491875 0.132500 5.681000
v 63.491875 0.000000 5.681000
v 63.576562 0.000000 5.681000
v 63.576562 0.132500 5.681000
v 63.491875 0.265000 5.380000
v 63.491875 0.265000 5.530500
v 63.576562 0.265000 5.530500
v 63.576562 0.265000 5.380000
v 63.491875 0.265000 5.681000
v 63.576562 0.265000 5.681000
v 63.491875 0.397500 5.530500
v 63.491875 0.397500 5.681000
v 63.576562 0.397500 5.681000
v 63.576562 0.397500 5.530500
v 63.491875 0.397500 5.831500
v 63.491875 0.265000 5.831500
v 63.576562 0.265000 5.831500
v 63.576562 0.397500 5.831500
v 63.491875 0.530000 5.681000
v 63.491875 0.530000 5.831500
v 63.576562 0.530000 5.831500
v 63.576562 0.530000 5.681000
v 63.491875 0.530000 5.982000
v 63.491875 0.397500 5.982000
v 63.576562 0.397500 5.982000
v 63.576562 0.530000 5.982000
v 63.491875 0.662500 5.831500
v 63.491875 0.662500 5.982000
v 63.576562 0.662500 5.982000
v 63.576562 0.662500 5.831500
v 63.491875 0.662500 6.132500
v 63.491875 0.530000 6.132500
v 63.576562 0.530000 6.132500
v 63.576562 0.662500 6.132500
v 63.491875 0.795000 5.982000
v 63.491875 0.795000 6.132500
v 63.576562 0.795000 6.132500
v 63.576562 0.795000 5.982000
v 63.491875 0.795000 6.283000
v 63.491875 0.662500 6.283000
v 63.576562 0.662500 6.283000
v 63.576562 0.795000 6.283000
v 63.491875 0.927500 6.132500
v 63.491875 0.927500 6.283000
v 63.576562 0.927500 6.283000
v 63.576562 0.927500 6.132500
v 63.491875 0.927500 6.433500
v 63.491875 0.795000 6.433500
v 63.576562 0.795000 6.433500
v 63.576562 0.927500 6.433500
v 63.661250 -0.927500 4.326500
v 63.661250 -0.927500 4.477000
v 63.661250 -0.795000 4.477000
v 63.661250 -0.795000 4.326500
v 63.661250 -0.927500 4.627500
v 63.661250 -0.795000 4.627500
v 63.661250 -0.662500 4.627500
v 63.661250 -0.662500 4.477000
v 63.661250 -0.795000 4.778000
v 63.661250 -0.662500 4.778000
v 63.661250 -0.530000 4.778000
v 63.661250 -0.530000 4.627500
v 63.661250 -0.662500 4.928500
v 63.661250 -0.530000 4.928500
v 63.661250 -0.397500 4.928500
v 63.661250 -0.397500 4.778000
v 63.661250 -0.530000 5.079000
v 63.661250 -0.397500 5.079000
v 63.661250 -0.265000 5.079000
v 63.661250 -0.265000 4.928500
v 63.661250 -0.397500 5.229500
v 63.661250 -0.265000 5.229500
v 63.661250 -0.132500 5.079000
v 63.661250 -0.265000 5.380000
v 63.661250 -0.132500 5.380000
v 63.661250 0.000000 5.229500
v 63.661250 0.000000 5.079000
v 63.661250 -0.132500 5.530500
v 63.661250 0.000000 5.530500
v 63.661250 0.132500 5.380000
v 63.661250 0.132500 5.229500
v 63.661250 0.000000 5.681000
v 63.661250 0.132500 5.681000
v 63.661250 0.265000 5.530500
v 63.661250 0.265000 5.380000
v 63.661250 0.265000 5.681000
v 63.661250 0.397500 5.681000
v 63.661250 0.397500 5.530500
v 63.661250 0.265000 5.831500
v 63.661250 0.397500 5.831500
v 63.661250 0.530000 5.831500
v 63.661250 0.530000 5.681000
v 63.661250 0.397500 5.982000
v 63.661250 0.530000 5.982000
v 63.661250 0.662500 5.982000
v 63.661250 0.662500 5.831500
v 63.661250 0.530000 6.132500
v 63.661250 0.662500 6.132500
v 63.661250 0.795000 6.132500
v 63.661250 0.795000 5.982000
v 63.661250 0.662500 6.283000
v 63.661250 0.795000 6.283000
v 63.661250 0.927500 6.283000
v 63.661250 0.927500 6.132500
v 63.661250 0.795000 6.433500
v 63.661250 0.927500 6.433500
v 63.745937 -0.927500 4.326500
v 63.745937 -0.927500 4.477000
v 63.745937 -0.795000 4.477000
v 63.745937 -0.795000 4.326500
v 63.745937 -0.927500 4.627500
v 63.745937 -0.795000 4.627500
v 63.745937 -0.662500 4.627500
v 63.745937 -0.662500 4.477000
v 63.745937 -0.795000 4.778000
v 63.745937 -0.662500 4.778000
v 63.745937 -0.530000 4.778000
v 63.745937 -0.530000 4.627500
v 63.745937 -0.662500 4.928500
v 63.745937 -0.530000 4.928500
v 63.745937 -0.397500 4.928500
v 63.745937 -0.397500 4.778000
v 63.745937 -0.530000 5.079000
v 63.745937 -0.397500 5.079000
v 63.745937 -0.265000 5.079000
v 63.745937 -0.265000 4.928500
v 63.745937 -0.397500 5.229500
v 63.745937 -0.265000 5.229500
v 63.745937 -0.132500 5.079000
v 63.745937 -0.265000 5.380000
v 63.745937 -0.132500 5.380000
v 63.745937 0.000000 5.229500
v 63.745937 0.000000 5.079000
v 63.745937 -0.132500 5.530500
v 63.745937 0.000000 5.530500
v 63.745937 0.132500 5.380000
v 63.745937 0.132500 5.229500
v 63.745937 0.000000 5.681000
v 63.745937 0.132500 5.681000
v 63.745937 0.265000 5.530500
v 63.745937 0.265000 5.380000
v 63.745937 0.265000 5.681000
v 63.745937 0.397500 5.681000
v 63.745937 0.397500 5.530500
v 63.745937 0.265000 5.831500
v 63.745937 0.397500 5.831500
v 63.745937 0.530000 5.831500
v 63.745937 0.530000 5.681000
v 63.745937 0.397500 5.982000
v 63.745937 0.530000 5.982000
v 63.745937 0.662500 5.982000
v 63.745937 0.662500 5.831500
v 63.745937 0.530000 6.132500
v 63.745937 0.662500 6.132500
v 63.745937 0.795000 6.132500
v 63.745937 0.795000 5.982000
v 63.745937 0.662500 6.283000
v 63.745937 0.795000 6.283000
v 63.745937 0.927500 6.283000
v 63.745937 0.927500 6.132500
v 63.745937 0.795000 6.433500
v 63.745937 0.927500 6.433500
v 63.830625 -0.927500 4.326500
v 63.830625 -0.927500 4.477000
v 63.830625 -0.795000 4.477000
v 63.830625 -0.795000 4.326500
v 63.830625 -0.927500 4.627500
v 63.830625 -0.795000 4.627500
v 63.830625 -0.662500 4.627500
v 63.830625 -0.662500 4.477000
v 63.830625 -0.795000 4.778000
v 63.830625 -0.662500 4.778000
v 63.830625 -0.530000 4.778000
v 63.830625 -0.530000 4.627500
v 63.830625 -0.662500 4.928500
v 63.830625 -0.530000 4.928500
v 63.830625 -0.397500 4.928500
v 63.830625 -0.397500 4.778000
v 63.830625 -0.530000 5.079000
v 63.830625 -0.397500 5.079000
v 63.830625 -0.265000 5.079000
v 63.830625 -0.265000 4.928500
v 63.830625 -0.397500 5.229500
v 63.830625 -0.265000 5.229500
v 63.830625 -0.132500 5.079000
v 63.830625 -0.265000 5.380000
v 63.830625 -0.132500 5.380000
v 63.830625 0.000000 5.229500
v 63.830625 0.000000 5.079000
v 63.830625 -0.132500 5.530500
v 63.830625 0.000000 5.530500
v 63.830625 0.132500 5.380000
v 63.830625 0.132500 5.229500
v 63.830625 0.000000 5.681000
v 63.830625 0.132500 5.681000
v 63.830625 0.265000 5.530500
v 63.830625 0.265000 5.380000
v 63.830625 0.265000 5.681000
v 63.830625 0.397500 5.681000
v 63.830625 0.397500 5.530500
v 63.830625 0.265000 5.831500
v 63.830625 0.397500 5.831500
v 63.830625 0.530000 5.831500
v 63.830625 0.530000 5.681000
v 63.830625 0.397500 5.982000
v 63.830625 0.530000 5.982000
v 63.830625 0.662500 5.982000
v 63.830625 0.662500 5.831500
v 63.830625 0.530000 6.132500
v 63.830625 0.662500 6.132500
v 63.830625 0.795000 6.132500
v 63.830625 0.795000 5.982000
v 63.830625 0.662500 6.283000
v 63.830625 0.795000 6.283000
v 63.830625 0.927500 6.283000
v 63.830625 0.927500 6.132500
v 63.830625 0.795000 6.433500
v 63.830625 0.927500 6.433500
v 63.915312 -0.927500 4.326500
v 63.915312 -0.927500 4.477000
v 63.915312 -0.795000 4.477000
v 63.915312 -0.795000 4.326500
v 63.915312 -0.927500 4.627500
v 63.915312 -0.795000 4.627500
v 63.915312 -0.662500 4.627500
v 63.915312 -0.662500 4.477000
v 63.915312 -0.795000 4.778000
v 63.915312 -0.662500 4.778000
v 63.915312 -0.530000 4.778000
v 63.915312 -0.530000 4.627500
v 63.915312 -0.662500 4.928500
v 63.915312 -0.530000 4.928500
v 63.915312 -0.397500 4.928500
v 63.915312 -0.397500 4.778000
v 63.915312 -0.530000 5.079000
v 63.915312 -0.397500 5.079000
v 63.915312 -0.265000 5.079000
v 63.915312 -0.265000 4.928500
v 63.915312 -0.397500 5.229500
v 63.915312 -0.265000 5.229500
v 63.915312 -0.132500 5.079000
v 63.915312 -0.265000 5.380000
v 63.915312 -0.132500 5.380000
v 63.915312 0.000000 5.229500
v 63.915312 0.000000 5.079000
v 63.915312 -0.132500 5.530500
v 63.915312 0.000000 5.530500
v 63.915312 0.132500 5.380000
v 63.915312 0.132500 5.229500
v 63.915312 0.000000 5.681000
v 63.915312 0.132500 5.681000
v 63.915312 0.265000 5.530500
v 63.915312 0.265000 5.380000
v 63.915312 0.265000 5.681000
v 63.915312 0.397500 5.681000
v 63.915312 0.397500 5.530500
v 63.915312 0.265000 5.831500
v 63.915312 0.397500 5.831500
v 63.915312 0.530000 5.831500
v 63.915312 0.530000 5.681000
v 63.915312 0.397500 5.982000
v 63.915312 0.530000 5.982000
v 63.915312 0.662500 5.982000
v 63.915312 0.662500 5.831500
v 63.915312 0.530000 6.132500
v 63.915312 0.662500 6.132500
v 63.915312 0.795000 6.132500
v 63.915312 0.795000 5.982000
v 63.915312 0.662500 6.283000
v 63.915312 0.795000 6.283000
v 63.915312 0.927500 6.283000
v 63.915312 0.927500 6.132500
v 63.915312 0.795000 6.433500
v 63.915312 0.927500 6.433500
v 64.000000 -0.927500 4.326500
v 64.000000 -0.927500 4.477000
v 64.000000 -0.795000 4.477000
v 64.000000 -0.795000 4.326500
v 64.000000 -0.927500 4.627500
v 64.000000 -0.795000 4.627500
v 64.000000 -0.662500 4.627500
v 64.000000 -0.662500 4.477000
v 64.000000 -0.795000 4.778000
v 64.000000 -0.662500 4.778000
v 64.000000 -0.530000 4.778000
v 64.000000 -0.530000 4.627500
v 64.000000 -0.662500 4.928500
v 64.000000 -0.530000 4.928500
v 64.000000 -0.397500 4.928500
v 64.000000 -0.397500 4.778000
v 64.000000 -0.530000 5.079000
v 64.000000 -0.397500 5.079000
v 64.000000 -0.265000 5.079000
v 64.000000 -0.265000 4.928500
v 64.000000 -0.397500 5.229500
v 64.000000 -0.265000 5.229500
v 64.000000 -0.132500 5.079000
v 64.000000 -0.265000 5.380000
v 64.000000 -0.132500 5.380000
v 64.000000 0.000000 5.229500
v 64.000000 0.000000 5.079000
v 64.000000 -0.132500 5.530500
v 64.000000 0.000000 5.530500
v 64.000000 0.132500 5.380000
v 64.000000 0.132500 5.229500
v 64.000000 0.000000 5.681000
v 64.000000 0.132500 5.681000
v 64.000000 0.265000 5.530500
v 64.000000 0.265000 5.380000
v 64.000000 0.265000 5.681000
v 64.000000 0.397500 5.681000
v 64.000000 0.397500 5.530500
v 64.000000 0.265000 5.831500
v 64.000000 0.397500 5.831500
v 64.000000 0.530000 5.831500
v 64.000000 0.530000 5.681000
v 64.000000 0.397500 5.982000
v 64.000000 0.530000 5.982000
v 64.000000 0.662500 5.982000
v 64.000000 0.662500 5.831500
v 64.000000 0.530000 6.132500
v 64.000000 0.662500 6.132500
v 64.000000 0.795000 6.132500
v 64.000000 0.795000 5.982000
v 64.000000 0.662500 6.283000
v 64.000000 0.795000 6.283000
v 64.000000 0.927500 6.283000
v 64.000000 0.927500 6.132500
v 64.000000 0.795000 6.433500
v 64.000000 0.927500 6.433500
v 64.084688 -0.927500 4.326500
v 64.084688 -0.927500 4.477000
v 64.084688 -0.795000 4.477000
v 64.084688 -0.795000 4.326500
v 64.084688 -0.927500 4.627500
v 64.084688 -0.795000 4.627500
v 64.084688 -0.662500 4.627500
v 64.084688 -0.662500 4.477000
v 64.084688 -0.795000 4.778000
v 64.084688 -0.662500 4.778000
v 64.084688 -0.530000 4.778000
v 64.084688 -0.530000 4.627500
v 64.084688 -0.662500 4.928500
v 64.084688 -0.530000 4.928500
v 64.084688 -0.397500 4.928500
v 64.084688 -0.397500 4.778000
v 64.084688 -0.530000 5.079000
v 64.084688 -0.397500 5.079000
v 64.084688 -0.265000 5.079000
v 64.084688 -0.265000 4.928500
v 64.084688 -0.397500 5.229500
v 64.084688 -0.265000 5.229500
v 64.084688 -0.132500 5.079000
v 64.084688 -0.265000 5.380000
v 64.084688 -0.132500 5.380000
v 64.084688 0.000000 5.229500
v 64.084688 0.000000 5.079000
v 64.084688 -0.132500 5.530500
v 64.084688 0.000000 5.530500
v 64.084688 0.132500 5.380000
v 64.084688 0.132500 5.229500
v 64.084688 0.000000 5.681000
v 64.084688 0.132500 5.681000
v 64.084688 0.265000 5.530500
v 64.084688 0.265000 5.380000
v 64.084688 0.265000 5.681000
v 64.084688 0.397500 5.681000
v 64.084688 0.397500 5.530500
v 64.084688 0.265000 5.831500
v 64.084688 0.397500 5.831500
v 64.084688 0.530000 5.831500
v 64.084688 0.530000 5.681000
v 64.084688 0.397500 5.982000
v 64.084688 0.530000 5.982000
v 64.084688 0.662500 5.982000
v 64.084688 0.662500 5.831500
v 64.084688 0.530000 6.132500
v 64.084688 0.662500 6.132500
v 64.084688 0.795000 6.132500
v 64.084688 0.795000 5.982000
v 64.084688 0.662500 6.283000
v 64.084688 0.795000 6.283000
v 64.084688 0.927500 6.283000
v 64.084688 0.927500 6.132500
v 64.084688 0.795000 6.433500
v 64.084688 0.927500 6.433500
v 64.169375 -0.927500 4.326500
v 64.169375 -0.927500 4.477000
v 64.169375 -0.795000 4.477000
v 64.169375 -0.795000 4.326500
v 64.169375 -0.927500 4.627500
v 64.169375 -0.795000 4.627500
v 64.169375 -0.662500 4.627500
v 64.169375 -0.662500 4.477000
v 64.169375 -0.795000 4.778000
v 64.169375 -0.662500 4.778000
v 64.169375 -0.530000 4.778000
v 64.169375 -0.530000 4.627500
v 64.169375 -0.662500 4.928500
v 64.169375 -0.530000 4.928500
v 64.169375 -0.397500 4.928500
v 64.169375 -0.397500 4.778000
v 64.169375 -0.530000 5.079000
v 64.169375 -0.397500 5.079000
v 64.169375 -0.265000 5.079000
v 64.169375 -0.265000 4.928500
v 64.169375 -0.397500 5.229500
v 64.169375 -0.265000 5.229500
v 64.169375 -0.132500 5.079000
v 64.169375 -0.265000 5.380000
v 64.169375 -0.132500 5.380000
v 64.169375 0.000000 5.229500
v 64.169375 0.000000 5.079000
v 64.169375 -0.132500 5.530500
v 64.169375 0.000000 5.530500
v 64.169375 0.132500 5.380000
v 64.169375 0.132500 5.229500
v 64.169375 0.000000 5.681000
v 64.169375 0.132500 5.681000
v 64.169375 0.265000 5.530500
v 64.169375 0.265000 5.380000
v 64.169375 0.265000 5.681000
v 64.169375 0.397500 5.681000
v 64.169375 0.397500 5.530500
v 64.169375 0.265000 5.831500
v 64.169375 0.397500 5.831500
v 64.169375 0.530000 5.831500
v 64.169375 0.530000 5.681000
v 64.169375 0.397500 5.982000
v 64.169375 0.530000 5.982000
v 64.169375 0.662500 5.982000
v 64.169375 0.662500 5.831500
v 64.169375 0.530000 6.132500
v 64.169375 0.662500 6.132500
v 64.169375 0.795000 6.132500
v 64.169375 0.795000 5.982000
v 64.169375 0.662500 6.283000
v 64.169375 0.795000 6.283000
v 64.169375 0.927500 6.283000
v 64.169375 0.927500 6.132500
v 64.169375 0.795000 6.433500
v 64.169375 0.927500 6.433500
v 64.254062 -0.927500 4.326500
v 64.254062 -0.927500 4.477000
v 64.254062 -0.795000 4.477000
v 64.254062 -0.795000 4.326500
v 64.254062 -0.927500 4.627500
v 64.254062 -0.795000 4.627500
v 64.254062 -0.662500 4.627500
v 64.254062 -0.662500 4.477000
v 64.254062 -0.795000 4.778000
v 64.254062 -0.662500 4.778000
v 64.254062 -0.530000 4.778000
v 64.254062 -0.530000 4.627500
v 64.254062 -0.662500 4.928500
v 64.254062 -0.530000 4.928500
v 64.254062 -0.397500 4.928500
v 64.254062 -0.397500 4.778000
v 64.254062 -0.530000 5.079000
v 64.254062 -0.397500 5.079000
v 64.254062 -0.265000 5.079000
v 64.254062 -0.265000 4.928500
v 64.254062 -0.397500 5.229500
v 64.254062 -0.265000 5.229500
v 64.254062 -0.132500 5.079000
v 64.254062 -0.265000 5.380000
v 64.254062 -0.132500 5.380000
v 64.254062 0.000000 5.229500
v 64.254062 0.000000 5.079000
v 64.254062 -0.132500 5.530500
v 64.254062 0.000000 5.530500
v 64.254062 0.132500 5.380000
v 64.254062 0.132500 5.229500
v 64.254062 0.000000 5.681000
v 64.254062 0.132500 5.681000
v 64.254062 0.265000 5.530500
v 64.254062 0.265000 5.380000
v 64.254062 0.265000 5.681000
v 64.254062 0.397500 5.681000
v 64.254062 0.397500 5.530500
v 64.254062 0.265000 5.831500
v 64.254062 0.397500 5.831500
v 64.254062 0.530000 5.831500
v 64.254062 0.530000 5.681000
v 64.254062 0.397500 5.982000
v 64.254062 0.530000 5.982000
v 64.254062 0.662500 5.982000
v 64.254062 0.662500 5.831500
v 64.254062 0.530000 6.132500
v 64.254062 0.662500 6.132500
v 64.254062 0.795000 6.132500
v 64.254062 0.795000 5.982000
v 64.254062 0.662500 6.283000
v 64.254062 0.795000 6.283000
v 64.254062 0.927500 6.283000
v 64.254062 0.927500 6.132500
v 64.254062 0.795000 6.433500
v 64.254062 0.927500 6.433500
v 64.338750 -0.927500 4.326500
v 64.338750 -0.927500 4.477000
v 64.338750 -0.795000 4.477000
v 64.338750 -0.795000 4.326500
v 64.338750 -0.927500 4.627500
v 64.338750 -0.795000 4.627500
v 64.338750 -0.662500 4.627500
v 64.338750 -0.662500 4.477000
v 64.338750 -0.795000 4.778000
v 64.338750 -0.662500 4.778000
v 64.338750 -0.530000 4.778000
v 64.338750 -0.530000 4.627500
v 64.338750 -0.662500 4.928500
v 64.338750 -0.530000 4.928500
v 64.338750 -0.397500 4.928500
v 64.338750 -0.397500 4.778000
v 64.338750 -0.530000 5.079000
v 64.338750 -0.397500 5.079000
v 64.338750 -0.265000 5.079000
v 64.338750 -0.265000 4.928500
v 64.338750 -0.397500 5.229500
v 64.338750 -0.265000 5.229500
v 64.338750 -0.132500 5.079000
v 64.338750 -0.265000 5.380000
v 64.338750 -0.132500 5.380000
v 64.338750 0.000000 5.229500
v 64.338750 0.000000 5.079000
v 64.338750 -0.132500 5.530500
v 64.338750 0.000000 5.530500
v 64.338750 0.132500 5.380000
v 64.338750 0.132500 5.229500
v 64.338750 0.000000 5.681000
v 64.338750 0.132500 5.681000
v 64.338750 0.265000 5.530500
v 64.338750 0.265000 5.380000
v 64.338750 0.265000 5.681000
v 64.338750 0.397500 5.681000
v 64.338750 0.397500 5.530500
v 64.338750 0.265000 5.831500
v 64.338750 0.397500 5.831500
v 64.338750 0.530000 5.831500
v 64.338750 0.530000 5.681000
v 64.338750 0.397500 5.982000
v 64.338750 0.530000 5.982000
v 64.338750 0.662500 5.982000
v 64.338750 0.662500 5.831500
v 64.338750 0.530000 6.132500
v 64.338750 0.662500 6.132500
v 64.338750 0.795000 6.132500
v 64.338750 0.795000 5.982000
v 64.338750 0.662500 6.283000
v 64.338750 0.795000 6.283000
v 64.338750 0.927500 6.283000
v 64.338750 0.927500 6.132500
v 64.338750 0.795000 6.433500
v 64.338750 0.927500 6.433500
v 64.423437 -0.927500 4.326500
v 64.423437 -0.927500 4.477000
v 64.423437 -0.795000 4.477000
v 64.423437 -0.795000 4.326500
v 64.423437 -0.927500 4.627500
v 64.423437 -0.795000 4.627500
v 64.423437 -0.662500 4.627500
v 64.423437 -0.662500 4.477000
v 64.423437 -0.795000 4.778000
v 64.423437 -0.662500 4.778000
v 64.423437 -0.530000 4.778000
v 64.423437 -0.530000 4.627500
v 64.423437 -0.662500 4.928500
v 64.423437 -0.530000 4.928500
v 64.423437 -0.397500 4.928500
v 64.423437 -0.397500 4.778000
v 64.423437 -0.530000 5.079000
v 64.423437 -0.397500 5.079000
v 64.423437 -0.265000 5.079000
v 64.423437 -0.265000 4.928500
v 64.423437 -0.397500 5.229500
v 64.423437 -0.265000 5.229500
v 64.423437 -0.132500 5.079000
v 64.423437 -0.265000 5.380000
v 64.423437 -0.132500 5.380000
v 64.423437 0.000000 5.229500
v 64.423437 0.000000 5.079000
v 64.423437 -0.132500 5.530500
v 64.423437 0.000000 5.530500
v 64.423437 0.132500 5.380000
v 64.423437 0.132500 5.229500
v 64.423437 0.000000 5.681000
v 64.423437 0.132500 5.681000
v 64.423437 0.265000 5.530500
v 64.423437 0.265000 5.380000
v 64.423437 0.265000 5.681000
v 64.423437 0.397500 5.681000
v 64.423437 0.397500 5.530500
v 64.423437 0.265000 5.831500
v 64.423437 0.397500 5.831500
v 64.423437 0.530000 5.831500
v 64.423437 0.530000 5.681000
v 64.423437 0.397500 5.982000
v 64.423437 0.530000 5.982000
v 64.423437 0.662500 5.982000
v 64.423437 0.662500 5.831500
v 64.423437 0.530000 6.132500
v 64.423437 0.662500 6.132500
v 64.423437 0.795000 6.132500
v 64.423437 0.795000 5.982000
v 64.423437 0.662500 6.283000
v 64.423437 0.795000 6.283000
v 64.423437 0.927500 6.283000
v 64.423437 0.927500 6.132500
v 64.423437 0.795000 6.433500
v 64.423437 0.927500 6.433500
v 64.508125 -0.927500 4.326500
v 64.508125 -0.927500 4.477000
v 64.508125 -0.795000 4.477000
v 64.508125 -0.795000 4.326500
v 64.508125 -0.927500 4.627500
v 64.508125 -0.795000 4.627500
v 64.508125 -0.662500 4.627500
v 64.508125 -0.662500 4.477000
v 64.508125 -0.795000 4.778000
v 64.508125 -0.662500 4.778000
v 64.508125 -0.530000 4.778000
v 64.508125 -0.530000 4.627500
v 64.508125 -0.662500 4.928500
v 64.508125 -0.530000 4.928500
v 64.508125 -0.397500 4.928500
v 64.508125 -0.397500 4.778000
v 64.508125 -0.530000 5.079000
v 64.508125 -0.397500 5.079000
v 64.508125 -0.265000 5.079000
v 64.508125 -0.265000 4.928500
v 64.508125 -0.397500 5.229500
v 64.508125 -0.265000 5.229500
v 64.508125 -0.132500 5.229500
v 64.508125 -0.132500 5.079000
v 64.508125 -0.265000 5.380000
v 64.508125 -0.132500 5.380000
v 64.508125 0.000000 5.229500
v 64.508125 0.000000 5.079000
v 64.508125 0.000000 5.380000
v 64.508125 -0.132500 5.530500
v 64.508125 0.000000 5.530500
v 64.508125 0.132500 5.380000
v 64.508125 0.132500 5.229500
v 64.508125 0.132500 5.530500
v 64.508125 0.000000 5.681000
v 64.508125 0.132500 5.681000
v 64.508125 0.265000 5.530500
v 64.508125 0.265000 5.380000
v 64.508125 0.265000 5.681000
v 64.508125 0.397500 5.681000
v 64.508125 0.397500 5.530500
v 64.508125 0.265000 5.831500
v 64.508125 0.397500 5.831500
v 64.508125 0.530000 5.831500
v 64.508125 0.530000 5.681000
v 64.508125 0.397500 5.982000
v 64.508125 0.530000 5.982000
v 64.508125 0.662500 5.982000
v 64.508125 0.662500 5.831500
v 64.508125 0.530000 6.132500
v 64.508125 0.662500 6.132500
v 64.508125 0.795000 6.132500
v 64.508125 0.795000 5.982000
v 64.508125 0.662500 6.283000
v 64.508125 0.795000 6.283000
v 64.508125 0.927500 6.283000
v 64.508125 0.927500 6.132500
v 64.508125 0.795000 6.433500
v 64.508125 0.927500 6.433500
f 1 2 3
f 1 3 4
f 1 5 6
f 1 6 4
f 2 3 7
f 2 7 8
f 1 2 8
f 1 8 5
f 4 3 9
f 4 9 10
f 4 6 11
f 4 11 10
f 10 11 12
f 10 12 9
f 3 13 14
f 3 14 9
f 13 14 15
f 13 15 16
f 3 13 16
f 3 16 7
f 9 14 17
f 9 17 18
f 9 12 19
f 9 19 18
f 18 19 20
f 18 20 17
f 14 21 22
f 14 22 17
f 21 22 23
f 21 23 24
f 14 21 24
f 14 24 15
f 17 22 25
f 17 25 26
f 17 20 27
f 17 27 26
f 26 27 28
f 26 28 25
f 22 29 30
f 22 30 25
f 29 30 31
f 29 31 32
f 22 29 32
f 22 32 23
f 25 30 33
f 25 33 34
f 25 28 35
f 25 35 34
f 34 35 36
f 34 36 33
f 30 37 38
f 30 38 33
f 37 38 39
f 37 39 40
f 30 37 40
f 30 40 31
f 33 38 41
f 33 41 42
f 33 36 43
f 33 43 42
f 42 43 44
f 42 44 41
f 38 45 46
f 38 46 41
f 38 45 47
f 38 47 39
f 41 46 48
f 41 48 49
f 41 44 50
f 41 50 49
f 49 50 51
f 49 51 48
f 45 52 53
f 45 53 46
f 52 53 54
f 52 54 55
f 45 52 55
f 45 55 47
f 46 53 56
f 46 56 48
f 48 56 57
f 48 57 58
f 48 51 59
f 48 59 58
f 58 59 60
f 58 60 57
f 53 61 62
f 53 62 56
f 61 62 63
f 61 63 64
f 53 61 64
f 53 64 54
f 56 62 65
f 56 65 57
f 57 65 66
f 57 66 67
f 57 60 68
f 57 68 67
f 67 68 69
f 67 69 66
f 62 70 71
f 62 71 65
f 70 71 72
f 70 72 73
f 62 70 73
f 62 73 63
f 65 71 74
f 65 74 66
f 66 69 75
f 66 75 74
f 71 76 77
f 71 77 74
f 76 77 78
f 76 78 79
f 71 76 79
f 71 79 72
f 74 77 80
f 74 80 81
f 74 75 82
f 74 82 81
f 81 82 83
f 81 83 80
f 77 84 85
f 77 85 80
f 84 85 86
f 84 86 87
f 77 84 87
f 77 87 78
f 80 85 88
f 80 88 89
f 80 83 90
f 80 90 89
f 89 90 91
f 89 91 88
f 85 92 93
f 85 93 88
f 92 93 94
f 92 94 95
f 85 92 95
f 85 95 86
f 88 93 96
f 88 96 97
f 88 91 98
f 88 98 97
f 97 98 99
f 97 99 96
f 93 100 101
f 93 101 96
f 100 101 102
f 100 102 103
f 93 100 103
f 93 103 94
f 96 101 104
f 96 104 105
f 96 99 106
f 96 106 105
f 105 106 107
f 105 107 104
f 101 108 109
f 101 109 104
f 108 109 110
f 108 110 111
f 101 108 111
f 101 111 102
f 104 109 112
f 104 112 113
f 104 107 114
f 104 114 113
f 109 112 115
f 109 115 110
f 113 114 115
f 113 115 112
f 5 116 117
f 5 117 6
f 8 7 118
f 8 118 119
f 5 8 119
f 5 119 116
f 6 117 120
f 6 120 11
f 11 120 121
f 11 121 12
f 16 15 122
f 16 122 123
f 7 16 123
f 7 123 118
f 12 121 124
f 12 124 19
f 19 124 125
f 19 125 20
f 24 23 126
f 24 126 127
f 15 24 127
f 15 127 122
f 20 125 128
f 20 128 27
f 27 128 129
f 27 129 28
f 32 31 130
f 32 130 131
f 23 32 131
f 23 131 126
f 28 129 132
f 28 132 35
f 35 132 133
f 35 133 36
f 40 39 134
f 40 134 135
f 31 40 135
f 31 135 130
f 36 133 136
f 36 136 43
f 43 136 137
f 43 137 44
f 39 47 138
f 39 138 134
f 44 137 139
f 44 139 50
f 50 139 140
f 50 140 51
f 55 54 141
f 55 141 142
f 47 55 142
f 47 142 138
f 51 140 143
f 51 143 59
f 59 143 144
f 59 144 60
f 64 63 145
f 64 145 146
f 54 64 146
f 54 146 141
f 60 144 147
f 60 147 68
f 68 147 148
f 68 148 69
f 73 72 149
f 73 149 150
f 63 73 150
f 63 150 145
f 69 148 151
f 69 151 75
f 79 78 152
f 79 152 153
f 72 79 153
f 72 153 149
f 75 151 154
f 75 154 82
f 82 154 155
f 82 155 83
f 87 86 156
f 87 156 157
f 78 87 157
f 78 157 152
f 83 155 158
f 83 158 90
f 90 158 159
f 90 159 91
f 95 94 160
f 95 160 161
f 86 95 161
f 86 161 156
f 91 159 162
f 91 162 98
f 98 162 163
f 98 163 99
f 103 102 164
f 103 164 165
f 94 103 165
f 94 165 160
f 99 163 166
f 99 166 106
f 106 166 167
f 106 167 107
f 111 110 168
f 111 168 169
f 102 111 169
f 102 169 164
f 107 167 170
f 107 170 114
f 110 115 171
f 110 171 168
f 114 170 171
f 114 171 115
f 116 172 173
f 116 173 117
f 119 118 174
f 119 174 175
f 116 119 175
f 116 175 172
f 117 173 176
f 117 176 120
f 120 176 177
f 120 177 121
f 123 122 178
f 123 178 179
f 118 123 179
f 118 179 174
f 121 177 180
f 121 180 124
f 124 180 181
f 124 181 125
f 127 126 182
f 127 182 183
f 122 127 183
f 122 183 178
f 125 181 184
f 125 184 128
f 128 184 185
f 128 185 129
f 131 130 186
f 131 186 187
f 126 131 187
f 126 187 182
f 129 185 188
f 129 188 132
f 132 188 189
f 132 189 133
f 135 134 190
f 135 190 191
f 130 135 191
f 130 191 186
f 133 189 192
f 133 192 136
f 136 192 193
f 136 193 137
f 134 138 194
f 134 194 190
f 137 193 195
f 137 195 139
f 139 195 196
f 139 196 140
f 142 141 197
f 142 197 198
f 138 142 198
f 138 198 194
f 140 196 199
f 140 199 143
f 143 199 200
f 143 200 144
f 146 145 201
f 146 201 202
f 141 146 202
f 141 202 197
f 144 200 203
f 144 203 147
f 147 203 204
f 147 204 148
f 150 149 205
f 150 205 206
f 145 150 206
f 145 206 201
f 148 204 207
f 148 207 151
f 153 152 208
f 153 208 209
f 149 153 209
f 149 209 205
f 151 207 210
f 151 210 154
f 154 210 211
f 154 211 155
f 157 156 212
f 157 212 213
f 152 157 213
f 152 213 208
f 155 211 214
f 155 214 158
f 158 214 215
f 158 215 159
f 161 160 216
f 161 216 217
f 156 161 217
f 156 217 212
f 159 215 218
f 159 218 162
f 162 218 219
f 162 219 163
f 165 164 220
f 165 220 221
f 160 165 221
f 160 221 216
f 163 219 222
f 163 222 166
f 166 222 223
f 166 223 167
f 169 168 224
f 169 224 225
f 164 169 225
f 164 225 220
f 167 223 226
f 167 226 170
f 168 171 227
f 168 227 224
f 170 226 227
f 170 227 171
f 172 228 229
f 172 229 173
f 175 174 230
f 175 230 231
f 172 175 231
f 172 231 228
f 173 229 232
f 173 232 176
f 176 232 233
f 176 233 177
f 179 178 234
f 179 234 235
f 174 179 235
f 174 235 230
f 177 233 236
f 177 236 180
f 180 236 237
f 180 237 181
f 183 182 238
f 183 238 239
f 178 183 239
f 178 239 234
f 181 237 240
f 181 240 184
f 184 240 241
f 184 241 185
f 187 186 242
f 187 242 243
f 182 187 243
f 182 243 238
f 185 241 244
f 185 244 188
f 188 244 245
f 188 245 189
f 191 190 246
f 191 246 247
f 186 191 247
f 186 247 242
f 189 245 248
f 189 248 192
f 192 248 249
f 192 249 193
f 190 194 250
f 190 250 246
f 193 249 251
f 193 251 195
f 195 251 252
f 195 252 196
f 198 197 253
f 198 253 254
f 194 198 254
f 194 254 250
f 196 252 255
f 196 255 199
f 199 255 256
f 199 256 200
f 202 201 257
f 202 257 258
f 197 202 258
f 197 258 253
f 200 256 259
f 200 259 203
f 203 259 260
f 203 260 204
f 206 205 261
f 206 261 262
f 201 206 262
f 201 262 257
f 204 260 263
f 204 263 207
f 209 208 264
f 209 264 265
f 205 209 265
f 205 265 261
f 207 263 266
f 207 266 210
f 210 266 267
f 210 267 211
f 213 212 268
f 213 268 269
f 208 213 269
f 208 269 264
f 211 267 270
f 211 270 214
f 214 270 271
f 214 271 215
f 217 216 272
f 217 272 273
f 212 217 273
f 212 273 268
f 215 271 274
f 215 274 218
f 218 274 275
f 218 275 219
f 221 220 276
f 221 276 277
f 216 221 277
f 216 277 272
f 219 275 278
f 219 278 222
f 222 278 279
f 222 279 223
f 225 224 280
f 225 280 281
f 220 225 281
f 220 281 276
f 223 279 282
f 223 282 226
f 224 227 283
f 224 283 280
f 226 282 283
f 226 283 227
f 228 284 285
f 228 285 229
f 231 230 286
f 231 286 287
f 228 231 287
f 228 287 284
f 229 285 288
f 229 288 232
f 232 288 289
f 232 289 233
f 235 234 290
f 235 290 291
f 230 235 291
f 230 291 286
f 233 289 292
f 233 292 236
f 236 292 293
f 236 293 237
f 239 238 294
f 239 294 295
f 234 239 295
f 234 295 290
f 237 293 296
f 237 296 240
f 240 296 297
f 240 297 241
f 243 242 298
f 243 298 299
f 238 243 299
f 238 299 294
f 241 297 300
f 241 300 244
f 244 300 301
f 244 301 245
f 247 246 302
f 247 302 303
f 242 247 303
f 242 303 298
f 245 301 304
f 245 304 248
f 248 304 305
f 248 305 249
f 246 250 306
f 246 306 302
f 249 305 307
f 249 307 251
f 251 307 308
f 251 308 252
f 254 253 309
f 254 309 310
f 250 254 310
f 250 310 306
f 252 308 311
f 252 311 255
f 255 311 312
f 255 312 256
f 258 257 313
f 258 313 314
f 253 258 314
f 253 314 309
f 256 312 315
f 256 315 259
f 259 315 316
f 259 316 260
f 262 261 317
f 262 317 318
f 257 262 318
f 257 318 313
f 260 316 319
f 260 319 263
f 265 264 320
f 265 320 321
f 261 265 321
f 261 321 317
f 263 319 322
f 263 322 266
f 266 322 323
f 266 323 267
f 269 268 324
f 269 324 325
f 264 269 325
f 264 325 320
f 267 323 326
f 267 326 270
f 270 326 327
f 270 327 271
f 273 272 328
f 273 328 329
f 268 273 329
f 268 329 324
f 271 327 330
f 271 330 274
f 274 330 331
f 274 331 275
f 277 276 332
f 277 332 333
f 272 277 333
f 272 333 328
f 275 331 334
f 275 334 278
f 278 334 335
f 278 335 279
f 281 280 336
f 281 336 337
f 276 281 337
f 276 337 332
f 279 335 338
f 279 338 282
f 280 283 339
f 280 339 336
f 282 338 339
f 282 339 283
f 284 340 341
f 284 341 285
f 287 286 342
f 287 342 343
f 284 287 343
f 284 343 340
f 285 341 344
f 285 344 288
f 288 344 345
f 288 345 289
f 291 290 346
f 291 346 347
f 286 291 347
f 286 347 342
f 289 345 348
f 289 348 292
f 292 348 349
f 292 349 293
f 295 294 350
f 295 350 351
f 290 295 351
f 290 351 346
f 293 349 352
f 293 352 296
f 296 352 353
f 296 353 297
f 299 298 354
f 299 354 355
f 294 299 355
f 294 355 350
f 297 353 356
f 297 356 300
f 300 356 357
f 300 357 301
f 303 302 358
f 303 358 359
f 298 303 359
f 298 359 354
f 301 357 360
f 301 360 304
f 304 360 361
f 304 361 305
f 302 306 362
f 302 362 358
f 305 361 363
f 305 363 307
f 307 363 364
f 307 364 308
f 310 309 365
f 310 365 366
f 306 310 366
f 306 366 362
f 308 364 367
f 308 367 311
f 311 367 368
f 311 368 312
f 314 313 369
f 314 369 370
f 309 314 370
f 309 370 365
f 312 368 371
f 312 371 315
f 315 371 372
f 315 372 316
f 318 317 373
f 318 373 374
f 313 318 374
f 313 374 369
f 316 372 375
f 316 375 319
f 321 320 376
f 321 376 377
f 317 321 377
f 317 377 373
f 319 375 378
f 319 378 322
f 322 378 379
f 322 379 323
f 325 324 380
f 325 380 381
f 320 325 381
f 320 381 376
f 323 379 382
f 323 382 326
f 326 382 383
f 326 383 327
f 329 328 384
f 329 384 385
f 324 329 385
f 324 385 380
f 327 383 386
f 327 386 330
f 330 386 387
f 330 387 331
f 333 332 388
f 333 388 389
f 328 333 389
f 328 389 384
f 331 387 390
f 331 390 334
f 334 390 391
f 334 391 335
f 337 336 392
f 337 392 393
f 332 337 393
f 332 393 388
f 335 391 394
f 335 394 338
f 336 339 395
f 336 395 392
f 338 394 395
f 338 395 339
f 340 396 397
f 340 397 341
f 343 342 398
f 343 398 399
f 340 343 399
f 340 399 396
f 341 397 400
f 341 400 344
f 344 400 401
f 344 401 345
f 347 346 402
f 347 402 403
f 342 347 403
f 342 403 398
f 345 401 404
f 345 404 348
f 348 404 405
f 348 405 349
f 351 350 406
f 351 406 407
f 346 351 407
f 346 407 402
f 349 405 408
f 349 408 352
f 352 408 409
f 352 409 353
f 355 354 410
f 355 410 411
f 350 355 411
f 350 411 406
f 353 409 412
f 353 412 356
f 356 412 413
f 356 413 357
f 359 358 414
f 359 414 415
f 354 359 415
f 354 415 410
f 357 413 416
f 357 416 360
f 360 416 417
f 360 417 361
f 358 362 418
f 358 418 414
f 361 417 419
f 361 419 363
f 363 419 420
f 363 420 364
f 366 365 421
f 366 421 422
f 362 366 422
f 362 422 418
f 364 420 423
f 364 423 367
f 367 423 424
f 367 424 368
f 370 369 425
f 370 425 426
f 365 370 426
f 365 426 421
f 368 424 427
f 368 427 371
f 371 427 428
f 371 428 372
f 374 373 429
f 374 429 430
f 369 374 430
f 369 430 425
f 372 428 431
f 372 431 375
f 377 376 432
f 377 432 433
f 373 377 433
f 373 433 429
f 375 431 434
f 375 434 378
f 378 434 435
f 378 435 379
f 381 380 436
f 381 436 437
f 376 381 437
f 376 437 432
f 379 435 438
f 379 438 382
f 382 438 439
f 382 439 383
f 385 384 440
f 385 440 441
f 380 385 441
f 380 441 436
f 383 439 442
f 383 442 386
f 386 442 443
f 386 443 387
f 389 388 444
f 389 444 445
f 384 389 445
f 384 445 440
f 387 443 446
f 387 446 390
f 390 446 447
f 390 447 391
f 393 392 448
f 393 448 449
f 388 393 449
f 388 449 444
f 391 447 450
f 391 450 394
f 392 395 451
f 392 451 448
f 394 450 451
f 394 451 395
f 396 452 453
f 396 453 397
f 399 398 454
f 399 454 455
f 396 399 455
f 396 455 452
f 397 453 456
f 397 456 400
f 400 456 457
f 400 457 401
f 403 402 458
f 403 458 459
f 398 403 459
f 398 459 454
f 401 457 460
f 401 460 404
f 404 460 461
f 404 461 405
f 407 406 462
f 407 462 463
f 402 407 463
f 402 463 458
f 405 461 464
f 405 464 408
f 408 464 465
f 408 465 409
f 411 410 466
f 411 466 467
f 406 411 467
f 406 467 462
f 409 465 468
f 409 468 412
f 412 468 469
f 412 469 413
f 415 414 470
f 415 470 471
f 410 415 471
f 410 471 466
f 413 469 472
f 413 472 416
f 416 472 473
f 416 473 417
f 414 418 474
f 414 474 470
f 417 473 475
f 417 475 419
f 419 475 476
f 419 476 420
f 422 421 477
f 422 477 478
f 418 422 478
f 418 478 474
f 420 476 479
f 420 479 423
f 423 479 480
f 423 480 424
f 426 425 481
f 426 481 482
f 421 426 482
f 421 482 477
f 424 480 483
f 424 483 427
f 427 483 484
f 427 484 428
f 430 429 485
f 430 485 486
f 425 430 486
f 425 486 481
f 428 484 487
f 428 487 431
f 433 432 488
f 433 488 489
f 429 433 489
f 429 489 485
f 431 487 490
f 431 490 434
f 434 490 491
f 434 491 435
f 437 436 492
f 437 492 493
f 432 437 493
f 432 493 488
f 435 491 494
f 435 494 438
f 438 494 495
f 438 495 439
f 441 440 496
f 441 496 497
f 436 441 497
f 436 497 492
f 439 495 498
f 439 498 442
f 442 498 499
f 442 499 443
f 445 444 500
f 445 500 501
f 440 445 501
f 440 501 496
f 443 499 502
f 443 502 446
f 446 502 503
f 446 503 447
f 449 448 504
f 449 504 505
f 444 449 505
f 444 505 500
f 447 503 506
f 447 506 450
f 448 451 507
f 448 507 504
f 450 506 507
f 450 507 451
f 452 508 509
f 452 509 453
f 455 454 510
f 455 510 511
f 452 455 511
f 452 511 508
f 453 509 512
f 453 512 456
f 456 512 513
f 456 513 457
f 459 458 514
f 459 514 515
f 454 459 515
f 454 515 510
f 457 513 516
f 457 516 460
f 460 516 517
f 460 517 461
f 463 462 518
f 463 518 519
f 458 463 519
f 458 519 514
f 461 517 520
f 461 520 464
f 464 520 521
f 464 521 465
f 467 466 522
f 467 522 523
f 462 467 523
f 462 523 518
f 465 521 524
f 465 524 468
f 468 524 525
f 468 525 469
f 471 470 526
f 471 526 527
f 466 471 527
f 466 527 522
f 469 525 528
f 469 528 472
f 472 528 529
f 472 529 473
f 470 474 530
f 470 530 526
f 473 529 531
f 473 531 475
f 475 531 532
f 475 532 476
f 478 477 533
f 478 533 534
f 474 478 534
f 474 534 530
f 476 532 535
f 476 535 479
f 479 535 536
f 479 536 480
f 482 481 537
f 482 537 538
f 477 482 538
f 477 538 533
f 480 536 539
f 480 539 483
f 483 539 540
f 483 540 484
f 486 485 541
f 486 541 542
f 481 486 542
f 481 542 537
f 484 540 543
f 484 543 487
f 489 488 544
f 489 544 545
f 485 489 545
f 485 545 541
f 487 543 546
f 487 546 490
f 490 546 547
f 490 547 491
f 493 492 548
f 493 548 549
f 488 493 549
f 488 549 544
f 491 547 550
f 491 550 494
f 494 550 551
f 494 551 495
f 497 496 552
f 497 552 553
f 492 497 553
f 492 553 548
f 495 551 554
f 495 554 498
f 498 554 555
f 498 555 499
f 501 500 556
f 501 556 557
f 496 501 557
f 496 557 552
f 499 555 558
f 499 558 502
f 502 558 559
f 502 559 503
f 505 504 560
f 505 560 561
f 500 505 561
f 500 561 556
f 503 559 562
f 503 562 506
f 504 507 563
f 504 563 560
f 506 562 563
f 506 563 507
f 508 564 565
f 508 565 509
f 511 510 566
f 511 566 567
f 508 511 567
f 508 567 564
f 509 565 568
f 509 568 512
f 512 568 569
f 512 569 513
f 515 514 570
f 515 570 571
f 510 515 571
f 510 571 566
f 513 569 572
f 513 572 516
f 516 572 573
f 516 573 517
f 519 518 574
f 519 574 575
f 514 519 575
f 514 575 570
f 517 573 576
f 517 576 520
f 520 576 577
f 520 577 521
f 523 522 578
f 523 578 579
f 518 523 579
f 518 579 574
f 521 577 580
f 521 580 524
f 524 580 581
f 524 581 525
f 527 526 582
f 527 582 583
f 522 527 583
f 522 583 578
f 525 581 584
f 525 584 528
f 528 584 585
f 528 585 529
f 526 530 586
f 526 586 582
f 529 585 587
f 529 587 531
f 531 587 588
f 531 588 532
f 534 533 589
f 534 589 590
f 530 534 590
f 530 590 586
f 532 588 591
f 532 591 535
f 535 591 592
f 535 592 536
f 538 537 593
f 538 593 594
f 533 538 594
f 533 594 589
f 536 592 595
f 536 595 539
f 539 595 596
f 539 596 540
f 542 541 597
f 542 597 598
f 537 542 598
f 537 598 593
f 540 596 599
f 540 599 543
f 545 544 600
f 545 600 601
f 541 545 601
f 541 601 597
f 543 599 602
f 543 602 546
f 546 602 603
f 546 603 547
f 549 548 604
f 549 604 605
f 544 549 605
f 544 605 600
f 547 603 606
f 547 606 550
f 550 606 607
f 550 607 551
f 553 552 608
f 553 608 609
f 548 553 609
f 548 609 604
f 551 607 610
f 551 610 554
f 554 610 611
f 554 611 555
f 557 556 612
f 557 612 613
f 552 557 613
f 552 613 608
f 555 611 614
f 555 614 558
f 558 614 615
f 558 615 559
f 561 560 616
f 561 616 617
f 556 561 617
f 556 617 612
f 559 615 618
f 559 618 562
f 560 563 619
f 560 619 616
f 562 618 619
f 562 619 563
f 564 620 621
f 564 621 565
f 567 566 622
f 567 622 623
f 564 567 623
f 564 623 620
f 565 621 624
f 565 624 568
f 568 624 625
f 568 625 569
f 571 570 626
f 571 626 627
f 566 571 627
f 566 627 622
f 569 625 628
f 569 628 572
f 572 628 629
f 572 629 573
f 575 574 630
f 575 630 631
f 570 575 631
f 570 631 626
f 573 629 632
f 573 632 576
f 576 632 633
f 576 633 577
f 579 578 634
f 579 634 635
f 574 579 635
f 574 635 630
f 577 633 636
f 577 636 580
f 580 636 637
f 580 637 581
f 583 582 638
f 583 638 639
f 578 583 639
f 578 639 634
f 581 637 640
f 581 640 584
f 584 640 641
f 584 641 585
f 582 586 642
f 582 642 638
f 585 641 643
f 585 643 587
f 587 643 644
f 587 644 588
f 590 589 645
f 590 645 646
f 586 590 646
f 586 646 642
f 588 644 647
f 588 647 591
f 591 647 648
f 591 648 592
f 594 593 649
f 594 649 650
f 589 594 650
f 589 650 645
f 592 648 651
f 592 651 595
f 595 651 652
f 595 652 596
f 598 597 653
f 598 653 654
f 593 598 654
f 593 654 649
f 596 652 655
f 596 655 599
f 601 600 656
f 601 656 657
f 597 601 657
f 597 657 653
f 599 655 658
f 599 658 602
f 602 658 659
f 602 659 603
f 605 604 660
f 605 660 661
f 600 605 661
f 600 661 656
f 603 659 662
f 603 662 606
f 606 662 663
f 606 663 607
f 609 608 664
f 609 664 665
f 604 609 665
f 604 665 660
f 607 663 666
f 607 666 610
f 610 666 667
f 610 667 611
f 613 612 668
f 613 668 669
f 608 613 669
f 608 669 664
f 611 667 670
f 611 670 614
f 614 670 671
f 614 671 615
f 617 616 672
f 617 672 673
f 612 617 673
f 612 673 668
f 615 671 674
f 615 674 618
f 616 619 675
f 616 675 672
f 618 674 675
f 618 675 619
f 676 677 678
f 676 678 679
f 620 676 677
f 620 677 621
f 623 622 678
f 623 678 679
f 620 623 679
f 620 679 676
f 677 680 681
f 677 681 678
f 621 677 680
f 621 680 624
f 624 680 681
f 624 681 625
f 678 681 682
f 678 682 683
f 627 626 682
f 627 682 683
f 622 627 683
f 622 683 678
f 681 684 685
f 681 685 682
f 625 681 684
f 625 684 628
f 628 684 685
f 628 685 629
f 682 685 686
f 682 686 687
f 631 630 686
f 631 686 687
f 626 631 687
f 626 687 682
f 685 688 689
f 685 689 686
f 629 685 688
f 629 688 632
f 632 688 689
f 632 689 633
f 686 689 690
f 686 690 691
f 635 634 690
f 635 690 691
f 630 635 691
f 630 691 686
f 689 692 693
f 689 693 690
f 633 689 692
f 633 692 636
f 636 692 693
f 636 693 637
f 690 693 694
f 690 694 695
f 639 638 694
f 639 694 695
f 634 639 695
f 634 695 690
f 693 696 697
f 693 697 694
f 637 693 696
f 637 696 640
f 640 696 697
f 640 697 641
f 694 697 698
f 694 698 699
f 638 642 699
f 638 699 694
f 697 700 701
f 697 701 698
f 641 697 700
f 641 700 643
f 643 700 701
f 643 701 644
f 699 698 702
f 699 702 703
f 646 645 702
f 646 702 703
f 642 646 703
f 642 703 699
f 698 701 704
f 698 704 702
f 701 705 706
f 701 706 704
f 644 701 705
f 644 705 647
f 647 705 706
f 647 706 648
f 702 704 707
f 702 707 708
f 650 649 707
f 650 707 708
f 645 650 708
f 645 708 702
f 704 706 709
f 704 709 707
f 706 710 711
f 706 711 709
f 648 706 710
f 648 710 651
f 651 710 711
f 651 711 652
f 707 709 712
f 707 712 713
f 654 653 712
f 654 712 713
f 649 654 713
f 649 713 707
f 709 711 714
f 709 714 712
f 652 711 714
f 652 714 655
f 712 714 715
f 712 715 716
f 657 656 715
f 657 715 716
f 653 657 716
f 653 716 712
f 714 717 718
f 714 718 715
f 655 714 717
f 655 717 658
f 658 717 718
f 658 718 659
f 715 718 719
f 715 719 720
f 661 660 719
f 661 719 720
f 656 661 720
f 656 720 715
f 718 721 722
f 718 722 719
f 659 718 721
f 659 721 662
f 662 721 722
f 662 722 663
f 719 722 723
f 719 723 724
f 665 664 723
f 665 723 724
f 660 665 724
f 660 724 719
f 722 725 726
f 722 726 723
f 663 722 725
f 663 725 666
f 666 725 726
f 666 726 667
f 723 726 727
f 723 727 728
f 669 668 727
f 669 727 728
f 664 669 728
f 664 728 723
f 726 729 730
f 726 730 727
f 667 726 729
f 667 729 670
f 670 729 730
f 670 730 671
f 727 730 731
f 727 731 732
f 673 672 731
f 673 731 732
f 668 673 732
f 668 732 727
f 730 733 734
f 730 734 731
f 671 730 733
f 671 733 674
f 672 675 734
f 672 734 731
f 674 733 734
f 674 734 675
