o [4B] 3D Diagram - S2-04 Group G_176
v -192.025504 -192.025504 53572.964673
v -176.023379 -192.025504 51154.097952
v -160.021254 -192.025504 48735.231230
v -144.019128 -192.025504 46316.364508
v -128.017003 -192.025504 43897.497787
v -112.014878 -192.025504 41478.631065
v -96.012752 -192.025504 39059.764344
v -80.010627 -192.025504 36640.897622
v -64.008501 -192.025504 34222.030900
v -48.006376 -192.025504 31803.164179
v -32.004251 -192.025504 29384.297457
v -16.002125 -192.025504 26965.430735
v 0.000000 -192.025504 24546.564014
v 16.002125 -192.025504 22127.697292
v 32.004251 -192.025504 19708.830570
v 48.006376 -192.025504 17289.963849
v 64.008501 -192.025504 14871.097127
v 80.010627 -192.025504 12452.230406
v 96.012752 -192.025504 10033.363684
v 112.014878 -192.025504 7614.496962
v 128.017003 -192.025504 5195.630241
v 144.019128 -192.025504 2776.763519
v 160.021254 -192.025504 357.896797
v 176.023379 -192.025504 -2060.969924
v 192.025504 -192.025504 -4479.836646
v -192.025504 -176.023379 53903.554036
v -176.023379 -176.023379 51484.687314
v -160.021254 -176.023379 49065.820593
v -144.019128 -176.023379 46646.953871
v -128.017003 -176.023379 44228.087149
v -112.014878 -176.023379 41809.220428
v -96.012752 -176.023379 39390.353706
v -80.010627 -176.023379 36971.486984
v -64.008501 -176.023379 34552.620263
v -48.006376 -176.023379 32133.753541
v -32.004251 -176.023379 29714.886820
v -16.002125 -176.023379 27296.020098
v 0.000000 -176.023379 24877.153376
v 16.002125 -176.023379 22458.286655
v 32.004251 -176.023379 20039.419933
v 48.006376 -176.023379 17620.553211
v 64.008501 -176.023379 15201.686490
v 80.010627 -176.023379 12782.819768
v 96.012752 -176.023379 10363.953046
v 112.014878 -176.023379 7945.086325
v 128.017003 -176.023379 5526.219603
v 144.019128 -176.023379 3107.352881
v 160.021254 -176.023379 688.486160
v 176.023379 -176.023379 -1730.380562
v 192.025504 -176.023379 -4149.247283
v -192.025504 -160.021254 54234.143398
v -176.023379 -160.021254 51815.276677
v -160.021254 -160.021254 49396.409955
v -144.019128 -160.021254 46977.543233
v -128.017003 -160.021254 44558.676512
v -112.014878 -160.021254 42139.809790
v -96.012752 -160.021254 39720.943069
v -80.010627 -160.021254 37302.076347
v -64.008501 -160.021254 34883.209625
v -48.006376 -160.021254 32464.342904
v -32.004251 -160.021254 30045.476182
v -16.002125 -160.021254 27626.609460
v 0.000000 -160.021254 25207.742739
v 16.002125 -160.021254 22788.876017
v 32.004251 -160.021254 20370.009295
v 48.006376 -160.021254 17951.142574
v 64.008501 -160.021254 15532.275852
v 80.010627 -160.021254 13113.409131
v 96.012752 -160.021254 10694.542409
v 112.014878 -160.021254 8275.675687
v 128.017003 -160.021254 5856.808966
v 144.019128 -160.021254 3437.942244
v 160.021254 -160.021254 1019.075522
v 176.023379 -160.021254 -1399.791199
v 192.025504 -160.021254 -3818.657921
v -192.025504 -144.019128 54564.732761
v -176.023379 -144.019128 52145.866039
v -160.021254 -144.019128 49726.999318
v -144.019128 -144.019128 47308.132596
v -128.017003 -144.019128 44889.265874
v -112.014878 -144.019128 42470.399153
v -96.012752 -144.019128 40051.532431
v -80.010627 -144.019128 37632.665709
v -64.008501 -144.019128 35213.798988
v -48.006376 -144.019128 32794.932266
v -32.004251 -144.019128 30376.065545
v -16.002125 -144.019128 27957.198823
v 0.000000 -144.019128 25538.332101
v 16.002125 -144.019128 23119.465380
v 32.004251 -144.019128 20700.598658
v 48.006376 -144.019128 18281.731936
v 64.008501 -144.019128 15862.865215
v 80.010627 -144.019128 13443.998493
v 96.012752 -144.019128 11025.131771
v 112.014878 -144.019128 8606.265050
v 128.017003 -144.019128 6187.398328
v 144.019128 -144.019128 3768.531606
v 160.021254 -144.019128 1349.664885
v 176.023379 -144.019128 -1069.201837
v 192.025504 -144.019128 -3488.068558
v -192.025504 -128.017003 54895.322123
v -176.023379 -128.017003 52476.455402
v -160.021254 -128.017003 50057.588680
v -144.019128 -128.017003 47638.721958
v -128.017003 -128.017003 45219.855237
v -112.014878 -128.017003 42800.988515
v -96.012752 -128.017003 40382.121794
v -80.010627 -128.017003 37963.255072
v -64.008501 -128.017003 35544.388350
v -48.006376 -128.017003 33125.521629
v -32.004251 -128.017003 30706.654907
v -16.002125 -128.017003 28287.788185
v 0.000000 -128.017003 25868.921464
v 16.002125 -128.017003 23450.054742
v 32.004251 -128.017003 21031.188020
v 48.006376 -128.017003 18612.321299
v 64.008501 -128.017003 16193.454577
v 80.010627 -128.017003 13774.587856
v 96.012752 -128.017003 11355.721134
v 112.014878 -128.017003 8936.854412
v 128.017003 -128.017003 6517.987691
v 144.019128 -128.017003 4099.120969
v 160.021254 -128.017003 1680.254247
v 176.023379 -128.017003 -738.612474
v 192.025504 -128.017003 -3157.479196
v -192.025504 -112.014878 55225.911486
v -176.023379 -112.014878 52807.044764
v -160.021254 -112.014878 50388.178043
v -144.019128 -112.014878 47969.311321
v -128.017003 -112.014878 45550.444599
v -112.014878 -112.014878 43131.577878
v -96.012752 -112.014878 40712.711156
v -80.010627 -112.014878 38293.844434
v -64.008501 -112.014878 35874.977713
v -48.006376 -112.014878 33456.110991
v -32.004251 -112.014878 31037.244270
v -16.002125 -112.014878 28618.377548
v 0.000000 -112.014878 26199.510826
v 16.002125 -112.014878 23780.644105
v 32.004251 -112.014878 21361.777383
v 48.006376 -112.014878 18942.910661
v 64.008501 -112.014878 16524.043940
v 80.010627 -112.014878 14105.177218
v 96.012752 -112.014878 11686.310496
v 112.014878 -112.014878 9267.443775
v 128.017003 -112.014878 6848.577053
v 144.019128 -112.014878 4429.710331
v 160.021254 -112.014878 2010.843610
v 176.023379 -112.014878 -408.023112
v 192.025504 -112.014878 -2826.889833
v -192.025504 -96.012752 55556.500848
v -176.023379 -96.012752 53137.634127
v -160.021254 -96.012752 50718.767405
v -144.019128 -96.012752 48299.900683
v -128.017003 -96.012752 45881.033962
v -112.014878 -96.012752 43462.167240
v -96.012752 -96.012752 41043.300519
v -80.010627 -96.012752 38624.433797
v -64.008501 -96.012752 36205.567075
v -48.006376 -96.012752 33786.700354
v -32.004251 -96.012752 31367.833632
v -16.002125 -96.012752 28948.966910
v 0.000000 -96.012752 26530.100189
v 16.002125 -96.012752 24111.233467
v 32.004251 -96.012752 21692.366745
v 48.006376 -96.012752 19273.500024
v 64.008501 -96.012752 16854.633302
v 80.010627 -96.012752 14435.766581
v 96.012752 -96.012752 12016.899859
v 112.014878 -96.012752 9598.033137
v 128.017003 -96.012752 7179.166416
v 144.019128 -96.012752 4760.299694
v 160.021254 -96.012752 2341.432972
v 176.023379 -96.012752 -77.433749
v 192.025504 -96.012752 -2496.300471
v -192.025504 -80.010627 55887.090211
v -176.023379 -80.010627 53468.223489
v -160.021254 -80.010627 51049.356768
v -144.019128 -80.010627 48630.490046
v -128.017003 -80.010627 46211.623324
v -112.014878 -80.010627 43792.756603
v -96.012752 -80.010627 41373.889881
v -80.010627 -80.010627 38955.023159
v -64.008501 -80.010627 36536.156438
v -48.006376 -80.010627 34117.289716
v -32.004251 -80.010627 31698.422995
v -16.002125 -80.010627 29279.556273
v 0.000000 -80.010627 26860.689551
v 16.002125 -80.010627 24441.822830
v 32.004251 -80.010627 22022.956108
v 48.006376 -80.010627 19604.089386
v 64.008501 -80.010627 17185.222665
v 80.010627 -80.010627 14766.355943
v 96.012752 -80.010627 12347.489221
v 112.014878 -80.010627 9928.622500
v 128.017003 -80.010627 7509.755778
v 144.019128 -80.010627 5090.889056
v 160.021254 -80.010627 2672.022335
v 176.023379 -80.010627 253.155613
v 192.025504 -80.010627 -2165.711108
v -192.025504 -64.008501 56217.679573
v -176.023379 -64.008501 53798.812852
v -160.021254 -64.008501 51379.946130
v -144.019128 -64.008501 48961.079408
v -128.017003 -64.008501 46542.212687
v -112.014878 -64.008501 44123.345965
v -96.012752 -64.008501 41704.479244
v -80.010627 -64.008501 39285.612522
v -64.008501 -64.008501 36866.745800
v -48.006376 -64.008501 34447.879079
v -32.004251 -64.008501 32029.012357
v -16.002125 -64.008501 29610.145635
v 0.000000 -64.008501 27191.278914
v 16.002125 -64.008501 24772.412192
v 32.004251 -64.008501 22353.545470
v 48.006376 -64.008501 19934.678749
v 64.008501 -64.008501 17515.812027
v 80.010627 -64.008501 15096.945306
v 96.012752 -64.008501 12678.078584
v 112.014878 -64.008501 10259.211862
v 128.017003 -64.008501 7840.345141
v 144.019128 -64.008501 5421.478419
v 160.021254 -64.008501 3002.611697
v 176.023379 -64.008501 583.744976
v 192.025504 -64.008501 -1835.121746
v -192.025504 -48.006376 56548.268936
v -176.023379 -48.006376 54129.402214
v -160.021254 -48.006376 51710.535493
v -144.019128 -48.006376 49291.668771
v -128.017003 -48.006376 46872.802049
v -112.014878 -48.006376 44453.935328
v -96.012752 -48.006376 42035.068606
v -80.010627 -48.006376 39616.201884
v -64.008501 -48.006376 37197.335163
v -48.006376 -48.006376 34778.468441
v -32.004251 -48.006376 32359.601719
v -16.002125 -48.006376 29940.734998
v 0.000000 -48.006376 27521.868276
v 16.002125 -48.006376 25103.001555
v 32.004251 -48.006376 22684.134833
v 48.006376 -48.006376 20265.268111
v 64.008501 -48.006376 17846.401390
v 80.010627 -48.006376 15427.534668
v 96.012752 -48.006376 13008.667946
v 112.014878 -48.006376 10589.801225
v 128.017003 -48.006376 8170.934503
v 144.019128 -48.006376 5752.067781
v 160.021254 -48.006376 3333.201060
v 176.023379 -48.006376 914.334338
v 192.025504 -48.006376 -1504.532383
v -192.025504 -32.004251 56878.858298
v -176.023379 -32.004251 54459.991577
v -160.021254 -32.004251 52041.124855
v -144.019128 -32.004251 49622.258133
v -128.017003 -32.004251 47203.391412
v -112.014878 -32.004251 44784.524690
v -96.012752 -32.004251 42365.657969
v -80.010627 -32.004251 39946.791247
v -64.008501 -32.004251 37527.924525
v -48.006376 -32.004251 35109.057804
v -32.004251 -32.004251 32690.191082
v -16.002125 -32.004251 30271.324360
v 0.000000 -32.004251 27852.457639
v 16.002125 -32.004251 25433.590917
v 32.004251 -32.004251 23014.724195
v 48.006376 -32.004251 20595.857474
v 64.008501 -32.004251 18176.990752
v 80.010627 -32.004251 15758.124031
v 96.012752 -32.004251 13339.257309
v 112.014878 -32.004251 10920.390587
v 128.017003 -32.004251 8501.523866
v 144.019128 -32.004251 6082.657144
v 160.021254 -32.004251 3663.790422
v 176.023379 -32.004251 1244.923701
v 192.025504 -32.004251 -1173.943021
v -192.025504 -16.002125 57209.447661
v -176.023379 -16.002125 54790.580939
v -160.021254 -16.002125 52371.714218
v -144.019128 -16.002125 49952.847496
v -128.017003 -16.002125 47533.980774
v -112.014878 -16.002125 45115.114053
v -96.012752 -16.002125 42696.247331
v -80.010627 -16.002125 40277.380609
v -64.008501 -16.002125 37858.513888
v -48.006376 -16.002125 35439.647166
v -32.004251 -16.002125 33020.780444
v -16.002125 -16.002125 30601.913723
v 0.000000 -16.002125 28183.047001
v 16.002125 -16.002125 25764.180280
v 32.004251 -16.002125 23345.313558
v 48.006376 -16.002125 20926.446836
v 64.008501 -16.002125 18507.580115
v 80.010627 -16.002125 16088.713393
v 96.012752 -16.002125 13669.846671
v 112.014878 -16.002125 11250.979950
v 128.017003 -16.002125 8832.113228
v 144.019128 -16.002125 6413.246506
v 160.021254 -16.002125 3994.379785
v 176.023379 -16.002125 1575.513063
v 192.025504 -16.002125 -843.353658
v -192.025504 0.000000 57540.037023
v -176.023379 0.000000 55121.170302
v -160.021254 0.000000 52702.303580
v -144.019128 0.000000 50283.436858
v -128.017003 0.000000 47864.570137
v -112.014878 0.000000 45445.703415
v -96.012752 0.000000 43026.836694
v -80.010627 0.000000 40607.969972
v -64.008501 0.000000 38189.103250
v -48.006376 0.000000 35770.236529
v -32.004251 0.000000 33351.369807
v -16.002125 0.000000 30932.503085
v 0.000000 0.000000 28513.636364
v 16.002125 0.000000 26094.769642
v 32.004251 0.000000 23675.902920
v 48.006376 0.000000 21257.036199
v 64.008501 0.000000 18838.169477
v 80.010627 0.000000 16419.302756
v 96.012752 0.000000 14000.436034
v 112.014878 0.000000 11581.569312
v 128.017003 0.000000 9162.702591
v 144.019128 0.000000 6743.835869
v 160.021254 0.000000 4324.969147
v 176.023379 0.000000 1906.102426
v 192.025504 0.000000 -512.764296
v -192.025504 16.002125 57870.626386
v -176.023379 16.002125 55451.759664
v -160.021254 16.002125 53032.892943
v -144.019128 16.002125 50614.026221
v -128.017003 16.002125 48195.159499
v -112.014878 16.002125 45776.292778
v -96.012752 16.002125 43357.426056
v -80.010627 16.002125 40938.559334
v -64.008501 16.002125 38519.692613
v -48.006376 16.002125 36100.825891
v -32.004251 16.002125 33681.959169
v -16.002125 16.002125 31263.092448
v 0.000000 16.002125 28844.225726
v 16.002125 16.002125 26425.359005
v 32.004251 16.002125 24006.492283
v 48.006376 16.002125 21587.625561
v 64.008501 16.002125 19168.758840
v 80.010627 16.002125 16749.892118
v 96.012752 16.002125 14331.025396
v 112.014878 16.002125 11912.158675
v 128.017003 16.002125 9493.291953
v 144.019128 16.002125 7074.425231
v 160.021254 16.002125 4655.558510
v 176.023379 16.002125 2236.691788
v 192.025504 16.002125 -182.174933
v -192.025504 32.004251 58201.215748
v -176.023379 32.004251 55782.349027
v -160.021254 32.004251 53363.482305
v -144.019128 32.004251 50944.615583
v -128.017003 32.004251 48525.748862
v -112.014878 32.004251 46106.882140
v -96.012752 32.004251 43688.015419
v -80.010627 32.004251 41269.148697
v -64.008501 32.004251 38850.281975
v -48.006376 32.004251 36431.415254
v -32.004251 32.004251 34012.548532
v -16.002125 32.004251 31593.681810
v 0.000000 32.004251 29174.815089
v 16.002125 32.004251 26755.948367
v 32.004251 32.004251 24337.081645
v 48.006376 32.004251 21918.214924
v 64.008501 32.004251 19499.348202
v 80.010627 32.004251 17080.481481
v 96.012752 32.004251 14661.614759
v 112.014878 32.004251 12242.748037
v 128.017003 32.004251 9823.881316
v 144.019128 32.004251 7405.014594
v 160.021254 32.004251 4986.147872
v 176.023379 32.004251 2567.281151
v 192.025504 32.004251 148.414429
v -192.025504 48.006376 58531.805111
v -176.023379 48.006376 56112.938389
v -160.021254 48.006376 53694.071668
v -144.019128 48.006376 51275.204946
v -128.017003 48.006376 48856.338224
v -112.014878 48.006376 46437.471503
v -96.012752 48.006376 44018.604781
v -80.010627 48.006376 41599.738059
v -64.008501 48.006376 39180.871338
v -48.006376 48.006376 36762.004616
v -32.004251 48.006376 34343.137894
v -16.002125 48.006376 31924.271173
v 0.000000 48.006376 29505.404451
v 16.002125 48.006376 27086.537730
v 32.004251 48.006376 24667.671008
v 48.006376 48.006376 22248.804286
v 64.008501 48.006376 19829.937565
v 80.010627 48.006376 17411.070843
v 96.012752 48.006376 14992.204121
v 112.014878 48.006376 12573.337400
v 128.017003 48.006376 10154.470678
v 144.019128 48.006376 7735.603956
v 160.021254 48.006376 5316.737235
v 176.023379 48.006376 2897.870513
v 192.025504 48.006376 479.003792
v -192.025504 64.008501 58862.394473
v -176.023379 64.008501 56443.527752
v -160.021254 64.008501 54024.661030
v -144.019128 64.008501 51605.794308
v -128.017003 64.008501 49186.927587
v -112.014878 64.008501 46768.060865
v -96.012752 64.008501 44349.194144
v -80.010627 64.008501 41930.327422
v -64.008501 64.008501 39511.460700
v -48.006376 64.008501 37092.593979
v -32.004251 64.008501 34673.727257
v -16.002125 64.008501 32254.860535
v 0.000000 64.008501 29835.993814
v 16.002125 64.008501 27417.127092
v 32.004251 64.008501 24998.260370
v 48.006376 64.008501 22579.393649
v 64.008501 64.008501 20160.526927
v 80.010627 64.008501 17741.660206
v 96.012752 64.008501 15322.793484
v 112.014878 64.008501 12903.926762
v 128.017003 64.008501 10485.060041
v 144.019128 64.008501 8066.193319
v 160.021254 64.008501 5647.326597
v 176.023379 64.008501 3228.459876
v 192.025504 64.008501 809.593154
v -192.025504 80.010627 59192.983836
v -176.023379 80.010627 56774.117114
v -160.021254 80.010627 54355.250393
v -144.019128 80.010627 51936.383671
v -128.017003 80.010627 49517.516949
v -112.014878 80.010627 47098.650228
v -96.012752 80.010627 44679.783506
v -80.010627 80.010627 42260.916784
v -64.008501 80.010627 39842.050063
v -48.006376 80.010627 37423.183341
v -32.004251 80.010627 35004.316619
v -16.002125 80.010627 32585.449898
v 0.000000 80.010627 30166.583176
v 16.002125 80.010627 27747.716455
v 32.004251 80.010627 25328.849733
v 48.006376 80.010627 22909.983011
v 64.008501 80.010627 20491.116290
v 80.010627 80.010627 18072.249568
v 96.012752 80.010627 15653.382846
v 112.014878 80.010627 13234.516125
v 128.017003 80.010627 10815.649403
v 144.019128 80.010627 8396.782681
v 160.021254 80.010627 5977.915960
v 176.023379 80.010627 3559.049238
v 192.025504 80.010627 1140.182517
v -192.025504 96.012752 59523.573198
v -176.023379 96.012752 57104.706477
v -160.021254 96.012752 54685.839755
v -144.019128 96.012752 52266.973033
v -128.017003 96.012752 49848.106312
v -112.014878 96.012752 47429.239590
v -96.012752 96.012752 45010.372869
v -80.010627 96.012752 42591.506147
v -64.008501 96.012752 40172.639425
v -48.006376 96.012752 37753.772704
v -32.004251 96.012752 35334.905982
v -16.002125 96.012752 32916.039260
v 0.000000 96.012752 30497.172539
v 16.002125 96.012752 28078.305817
v 32.004251 96.012752 25659.439095
v 48.006376 96.012752 23240.572374
v 64.008501 96.012752 20821.705652
v 80.010627 96.012752 18402.838931
v 96.012752 96.012752 15983.972209
v 112.014878 96.012752 13565.105487
v 128.017003 96.012752 11146.238766
v 144.019128 96.012752 8727.372044
v 160.021254 96.012752 6308.505322
v 176.023379 96.012752 3889.638601
v 192.025504 96.012752 1470.771879
v -192.025504 112.014878 59854.162561
v -176.023379 112.014878 57435.295839
v -160.021254 112.014878 55016.429118
v -144.019128 112.014878 52597.562396
v -128.017003 112.014878 50178.695674
v -112.014878 112.014878 47759.828953
v -96.012752 112.014878 45340.962231
v -80.010627 112.014878 42922.095509
v -64.008501 112.014878 40503.228788
v -48.006376 112.014878 38084.362066
v -32.004251 112.014878 35665.495344
v -16.002125 112.014878 33246.628623
v 0.000000 112.014878 30827.761901
v 16.002125 112.014878 28408.895180
v 32.004251 112.014878 25990.028458
v 48.006376 112.014878 23571.161736
v 64.008501 112.014878 21152.295015
v 80.010627 112.014878 18733.428293
v 96.012752 112.014878 16314.561571
v 112.014878 112.014878 13895.694850
v 128.017003 112.014878 11476.828128
v 144.019128 112.014878 9057.961406
v 160.021254 112.014878 6639.094685
v 176.023379 112.014878 4220.227963
v 192.025504 112.014878 1801.361242
v -192.025504 128.017003 60184.751923
v -176.023379 128.017003 57765.885202
v -160.021254 128.017003 55347.018480
v -144.019128 128.017003 52928.151758
v -128.017003 128.017003 50509.285037
v -112.014878 128.017003 48090.418315
v -96.012752 128.017003 45671.551594
v -80.010627 128.017003 43252.684872
v -64.008501 128.017003 40833.818150
v -48.006376 128.017003 38414.951429
v -32.004251 128.017003 35996.084707
v -16.002125 128.017003 33577.217985
v 0.000000 128.017003 31158.351264
v 16.002125 128.017003 28739.484542
v 32.004251 128.017003 26320.617820
v 48.006376 128.017003 23901.751099
v 64.008501 128.017003 21482.884377
v 80.010627 128.017003 19064.017655
v 96.012752 128.017003 16645.150934
v 112.014878 128.017003 14226.284212
v 128.017003 128.017003 11807.417491
v 144.019128 128.017003 9388.550769
v 160.021254 128.017003 6969.684047
v 176.023379 128.017003 4550.817326
v 192.025504 128.017003 2131.950604
v -192.025504 144.019128 60515.341286
v -176.023379 144.019128 58096.474564
v -160.021254 144.019128 55677.607843
v -144.019128 144.019128 53258.741121
v -128.017003 144.019128 50839.874399
v -112.014878 144.019128 48421.007678
v -96.012752 144.019128 46002.140956
v -80.010627 144.019128 43583.274234
v -64.008501 144.019128 41164.407513
v -48.006376 144.019128 38745.540791
v -32.004251 144.019128 36326.674069
v -16.002125 144.019128 33907.807348
v 0.000000 144.019128 31488.940626
v 16.002125 144.019128 29070.073905
v 32.004251 144.019128 26651.207183
v 48.006376 144.019128 24232.340461
v 64.008501 144.019128 21813.473740
v 80.010627 144.019128 19394.607018
v 96.012752 144.019128 16975.740296
v 112.014878 144.019128 14556.873575
v 128.017003 144.019128 12138.006853
v 144.019128 144.019128 9719.140131
v 160.021254 144.019128 7300.273410
v 176.023379 144.019128 4881.406688
v 192.025504 144.019128 2462.539967
v -192.025504 160.021254 60845.930648
v -176.023379 160.021254 58427.063927
v -160.021254 160.021254 56008.197205
v -144.019128 160.021254 53589.330483
v -128.017003 160.021254 51170.463762
v -112.014878 160.021254 48751.597040
v -96.012752 160.021254 46332.730319
v -80.010627 160.021254 43913.863597
v -64.008501 160.021254 41494.996875
v -48.006376 160.021254 39076.130154
v -32.004251 160.021254 36657.263432
v -16.002125 160.021254 34238.396710
v 0.000000 160.021254 31819.529989
v 16.002125 160.021254 29400.663267
v 32.004251 160.021254 26981.796545
v 48.006376 160.021254 24562.929824
v 64.008501 160.021254 22144.063102
v 80.010627 160.021254 19725.196380
v 96.012752 160.021254 17306.329659
v 112.014878 160.021254 14887.462937
v 128.017003 160.021254 12468.596216
v 144.019128 160.021254 10049.729494
v 160.021254 160.021254 7630.862772
v 176.023379 160.021254 5211.996051
v 192.025504 160.021254 2793.129329
v -192.025504 176.023379 61176.520011
v -176.023379 176.023379 58757.653289
v -160.021254 176.023379 56338.786568
v -144.019128 176.023379 53919.919846
v -128.017003 176.023379 51501.053124
v -112.014878 176.023379 49082.186403
v -96.012752 176.023379 46663.319681
v -80.010627 176.023379 44244.452959
v -64.008501 176.023379 41825.586238
v -48.006376 176.023379 39406.719516
v -32.004251 176.023379 36987.852794
v -16.002125 176.023379 34568.986073
v 0.000000 176.023379 32150.119351
v 16.002125 176.023379 29731.252630
v 32.004251 176.023379 27312.385908
v 48.006376 176.023379 24893.519186
v 64.008501 176.023379 22474.652465
v 80.010627 176.023379 20055.785743
v 96.012752 176.023379 17636.919021
v 112.014878 176.023379 15218.052300
v 128.017003 176.023379 12799.185578
v 144.019128 176.023379 10380.318856
v 160.021254 176.023379 7961.452135
v 176.023379 176.023379 5542.585413
v 192.025504 176.023379 3123.718692
v -192.025504 192.025504 61507.109373
v -176.023379 192.025504 59088.242652
v -160.021254 192.025504 56669.375930
v -144.019128 192.025504 54250.509208
v -128.017003 192.025504 51831.642487
v -112.014878 192.025504 49412.775765
v -96.012752 192.025504 46993.909044
v -80.010627 192.025504 44575.042322
v -64.008501 192.025504 42156.175600
v -48.006376 192.025504 39737.308879
v -32.004251 192.025504 37318.442157
v -16.002125 192.025504 34899.575435
v 0.000000 192.025504 32480.708714
v 16.002125 192.025504 30061.841992
v 32.004251 192.025504 27642.975270
v 48.006376 192.025504 25224.108549
v 64.008501 192.025504 22805.241827
v 80.010627 192.025504 20386.375105
v 96.012752 192.025504 17967.508384
v 112.014878 192.025504 15548.641662
v 128.017003 192.025504 13129.774941
v 144.019128 192.025504 10710.908219
v 160.021254 192.025504 8292.041497
v 176.023379 192.025504 5873.174776
v 192.025504 192.025504 3454.308054
f 1 2 27
f 1 27 26
f 2 3 28
f 2 28 27
f 3 4 29
f 3 29 28
f 4 5 30
f 4 30 29
f 5 6 31
f 5 31 30
f 6 7 32
f 6 32 31
f 7 8 33
f 7 33 32
f 8 9 34
f 8 34 33
f 9 10 35
f 9 35 34
f 10 11 36
f 10 36 35
f 11 12 37
f 11 37 36
f 12 13 38
f 12 38 37
f 13 14 39
f 13 39 38
f 14 15 40
f 14 40 39
f 15 16 41
f 15 41 40
f 16 17 42
f 16 42 41
f 17 18 43
f 17 43 42
f 18 19 44
f 18 44 43
f 19 20 45
f 19 45 44
f 20 21 46
f 20 46 45
f 21 22 47
f 21 47 46
f 22 23 48
f 22 48 47
f 23 24 49
f 23 49 48
f 24 25 50
f 24 50 49
f 26 27 52
f 26 52 51
f 27 28 53
f 27 53 52
f 28 29 54
f 28 54 53
f 29 30 55
f 29 55 54
f 30 31 56
f 30 56 55
f 31 32 57
f 31 57 56
f 32 33 58
f 32 58 57
f 33 34 59
f 33 59 58
f 34 35 60
f 34 60 59
f 35 36 61
f 35 61 60
f 36 37 62
f 36 62 61
f 37 38 63
f 37 63 62
f 38 39 64
f 38 64 63
f 39 40 65
f 39 65 64
f 40 41 66
f 40 66 65
f 41 42 67
f 41 67 66
f 42 43 68
f 42 68 67
f 43 44 69
f 43 69 68
f 44 45 70
f 44 70 69
f 45 46 71
f 45 71 70
f 46 47 72
f 46 72 71
f 47 48 73
f 47 73 72
f 48 49 74
f 48 74 73
f 49 50 75
f 49 75 74
f 51 52 77
f 51 77 76
f 52 53 78
f 52 78 77
f 53 54 79
f 53 79 78
f 54 55 80
f 54 80 79
f 55 56 81
f 55 81 80
f 56 57 82
f 56 82 81
f 57 58 83
f 57 83 82
f 58 59 84
f 58 84 83
f 59 60 85
f 59 85 84
f 60 61 86
f 60 86 85
f 61 62 87
f 61 87 86
f 62 63 88
f 62 88 87
f 63 64 89
f 63 89 88
f 64 65 90
f 64 90 89
f 65 66 91
f 65 91 90
f 66 67 92
f 66 92 91
f 67 68 93
f 67 93 92
f 68 69 94
f 68 94 93
f 69 70 95
f 69 95 94
f 70 71 96
f 70 96 95
f 71 72 97
f 71 97 96
f 72 73 98
f 72 98 97
f 73 74 99
f 73 99 98
f 74 75 100
f 74 100 99
f 76 77 102
f 76 102 101
f 77 78 103
f 77 103 102
f 78 79 104
f 78 104 103
f 79 80 105
f 79 105 104
f 80 81 106
f 80 106 105
f 81 82 107
f 81 107 106
f 82 83 108
f 82 108 107
f 83 84 109
f 83 109 108
f 84 85 110
f 84 110 109
f 85 86 111
f 85 111 110
f 86 87 112
f 86 112 111
f 87 88 113
f 87 113 112
f 88 89 114
f 88 114 113
f 89 90 115
f 89 115 114
f 90 91 116
f 90 116 115
f 91 92 117
f 91 117 116
f 92 93 118
f 92 118 117
f 93 94 119
f 93 119 118
f 94 95 120
f 94 120 119
f 95 96 121
f 95 121 120
f 96 97 122
f 96 122 121
f 97 98 123
f 97 123 122
f 98 99 124
f 98 124 123
f 99 100 125
f 99 125 124
f 101 102 127
f 101 127 126
f 102 103 128
f 102 128 127
f 103 104 129
f 103 129 128
f 104 105 130
f 104 130 129
f 105 106 131
f 105 131 130
f 106 107 132
f 106 132 131
f 107 108 133
f 107 133 132
f 108 109 134
f 108 134 133
f 109 110 135
f 109 135 134
f 110 111 136
f 110 136 135
f 111 112 137
f 111 137 136
f 112 113 138
f 112 138 137
f 113 114 139
f 113 139 138
f 114 115 140
f 114 140 139
f 115 116 141
f 115 141 140
f 116 117 142
f 116 142 141
f 117 118 143
f 117 143 142
f 118 119 144
f 118 144 143
f 119 120 145
f 119 145 144
f 120 121 146
f 120 146 145
f 121 122 147
f 121 147 146
f 122 123 148
f 122 148 147
f 123 124 149
f 123 149 148
f 124 125 150
f 124 150 149
f 126 127 152
f 126 152 151
f 127 128 153
f 127 153 152
f 128 129 154
f 128 154 153
f 129 130 155
f 129 155 154
f 130 131 156
f 130 156 155
f 131 132 157
f 131 157 156
f 132 133 158
f 132 158 157
f 133 134 159
f 133 159 158
f 134 135 160
f 134 160 159
f 135 136 161
f 135 161 160
f 136 137 162
f 136 162 161
f 137 138 163
f 137 163 162
f 138 139 164
f 138 164 163
f 139 140 165
f 139 165 164
f 140 141 166
f 140 166 165
f 141 142 167
f 141 167 166
f 142 143 168
f 142 168 167
f 143 144 169
f 143 169 168
f 144 145 170
f 144 170 169
f 145 146 171
f 145 171 170
f 146 147 172
f 146 172 171
f 147 148 173
f 147 173 172
f 148 149 174
f 148 174 173
f 149 150 175
f 149 175 174
f 151 152 177
f 151 177 176
f 152 153 178
f 152 178 177
f 153 154 179
f 153 179 178
f 154 155 180
f 154 180 179
f 155 156 181
f 155 181 180
f 156 157 182
f 156 182 181
f 157 158 183
f 157 183 182
f 158 159 184
f 158 184 183
f 159 160 185
f 159 185 184
f 160 161 186
f 160 186 185
f 161 162 187
f 161 187 186
f 162 163 188
f 162 188 187
f 163 164 189
f 163 189 188
f 164 165 190
f 164 190 189
f 165 166 191
f 165 191 190
f 166 167 192
f 166 192 191
f 167 168 193
f 167 193 192
f 168 169 194
f 168 194 193
f 169 170 195
f 169 195 194
f 170 171 196
f 170 196 195
f 171 172 197
f 171 197 196
f 172 173 198
f 172 198 197
f 173 174 199
f 173 199 198
f 174 175 200
f 174 200 199
f 176 177 202
f 176 202 201
f 177 178 203
f 177 203 202
f 178 179 204
f 178 204 203
f 179 180 205
f 179 205 204
f 180 181 206
f 180 206 205
f 181 182 207
f 181 207 206
f 182 183 208
f 182 208 207
f 183 184 209
f 183 209 208
f 184 185 210
f 184 210 209
f 185 186 211
f 185 211 210
f 186 187 212
f 186 212 211
f 187 188 213
f 187 213 212
f 188 189 214
f 188 214 213
f 189 190 215
f 189 215 214
f 190 191 216
f 190 216 215
f 191 192 217
f 191 217 216
f 192 193 218
f 192 218 217
f 193 194 219
f 193 219 218
f 194 195 220
f 194 220 219
f 195 196 221
f 195 221 220
f 196 197 222
f 196 222 221
f 197 198 223
f 197 223 222
f 198 199 224
f 198 224 223
f 199 200 225
f 199 225 224
f 201 202 227
f 201 227 226
f 202 203 228
f 202 228 227
f 203 204 229
f 203 229 228
f 204 205 230
f 204 230 229
f 205 206 231
f 205 231 230
f 206 207 232
f 206 232 231
f 207 208 233
f 207 233 232
f 208 209 234
f 208 234 233
f 209 210 235
f 209 235 234
f 210 211 236
f 210 236 235
f 211 212 237
f 211 237 236
f 212 213 238
f 212 238 237
f 213 214 239
f 213 239 238
f 214 215 240
f 214 240 239
f 215 216 241
f 215 241 240
f 216 217 242
f 216 242 241
f 217 218 243
f 217 243 242
f 218 219 244
f 218 244 243
f 219 220 245
f 219 245 244
f 220 221 246
f 220 246 245
f 221 222 247
f 221 247 246
f 222 223 248
f 222 248 247
f 223 224 249
f 223 249 248
f 224 225 250
f 224 250 249
f 226 227 252
f 226 252 251
f 227 228 253
f 227 253 252
f 228 229 254
f 228 254 253
f 229 230 255
f 229 255 254
f 230 231 256
f 230 256 255
f 231 232 257
f 231 257 256
f 232 233 258
f 232 258 257
f 233 234 259
f 233 259 258
f 234 235 260
f 234 260 259
f 235 236 261
f 235 261 260
f 236 237 262
f 236 262 261
f 237 238 263
f 237 263 262
f 238 239 264
f 238 264 263
f 239 240 265
f 239 265 264
f 240 241 266
f 240 266 265
f 241 242 267
f 241 267 266
f 242 243 268
f 242 268 267
f 243 244 269
f 243 269 268
f 244 245 270
f 244 270 269
f 245 246 271
f 245 271 270
f 246 247 272
f 246 272 271
f 247 248 273
f 247 273 272
f 248 249 274
f 248 274 273
f 249 250 275
f 249 275 274
f 251 252 277
f 251 277 276
f 252 253 278
f 252 278 277
f 253 254 279
f 253 279 278
f 254 255 280
f 254 280 279
f 255 256 281
f 255 281 280
f 256 257 282
f 256 282 281
f 257 258 283
f 257 283 282
f 258 259 284
f 258 284 283
f 259 260 285
f 259 285 284
f 260 261 286
f 260 286 285
f 261 262 287
f 261 287 286
f 262 263 288
f 262 288 287
f 263 264 289
f 263 289 288
f 264 265 290
f 264 290 289
f 265 266 291
f 265 291 290
f 266 267 292
f 266 292 291
f 267 268 293
f 267 293 292
f 268 269 294
f 268 294 293
f 269 270 295
f 269 295 294
f 270 271 296
f 270 296 295
f 271 272 297
f 271 297 296
f 272 273 298
f 272 298 297
f 273 274 299
f 273 299 298
f 274 275 300
f 274 300 299
f 276 277 302
f 276 302 301
f 277 278 303
f 277 303 302
f 278 279 304
f 278 304 303
f 279 280 305
f 279 305 304
f 280 281 306
f 280 306 305
f 281 282 307
f 281 307 306
f 282 283 308
f 282 308 307
f 283 284 309
f 283 309 308
f 284 285 310
f 284 310 309
f 285 286 311
f 285 311 310
f 286 287 312
f 286 312 311
f 287 288 313
f 287 313 312
f 288 289 314
f 288 314 313
f 289 290 315
f 289 315 314
f 290 291 316
f 290 316 315
f 291 292 317
f 291 317 316
f 292 293 318
f 292 318 317
f 293 294 319
f 293 319 318
f 294 295 320
f 294 320 319
f 295 296 321
f 295 321 320
f 296 297 322
f 296 322 321
f 297 298 323
f 297 323 322
f 298 299 324
f 298 324 323
f 299 300 325
f 299 325 324
f 301 302 327
f 301 327 326
f 302 303 328
f 302 328 327
f 303 304 329
f 303 329 328
f 304 305 330
f 304 330 329
f 305 306 331
f 305 331 330
f 306 307 332
f 306 332 331
f 307 308 333
f 307 333 332
f 308 309 334
f 308 334 333
f 309 310 335
f 309 335 334
f 310 311 336
f 310 336 335
f 311 312 337
f 311 337 336
f 312 313 338
f 312 338 337
f 313 314 339
f 313 339 338
f 314 315 340
f 314 340 339
f 315 316 341
f 315 341 340
f 316 317 342
f 316 342 341
f 317 318 343
f 317 343 342
f 318 319 344
f 318 344 343
f 319 320 345
f 319 345 344
f 320 321 346
f 320 346 345
f 321 322 347
f 321 347 346
f 322 323 348
f 322 348 347
f 323 324 349
f 323 349 348
f 324 325 350
f 324 350 349
f 326 327 352
f 326 352 351
f 327 328 353
f 327 353 352
f 328 329 354
f 328 354 353
f 329 330 355
f 329 355 354
f 330 331 356
f 330 356 355
f 331 332 357
f 331 357 356
f 332 333 358
f 332 358 357
f 333 334 359
f 333 359 358
f 334 335 360
f 334 360 359
f 335 336 361
f 335 361 360
f 336 337 362
f 336 362 361
f 337 338 363
f 337 363 362
f 338 339 364
f 338 364 363
f 339 340 365
f 339 365 364
f 340 341 366
f 340 366 365
f 341 342 367
f 341 367 366
f 342 343 368
f 342 368 367
f 343 344 369
f 343 369 368
f 344 345 370
f 344 370 369
f 345 346 371
f 345 371 370
f 346 347 372
f 346 372 371
f 347 348 373
f 347 373 372
f 348 349 374
f 348 374 373
f 349 350 375
f 349 375 374
f 351 352 377
f 351 377 376
f 352 353 378
f 352 378 377
f 353 354 379
f 353 379 378
f 354 355 380
f 354 380 379
f 355 356 381
f 355 381 380
f 356 357 382
f 356 382 381
f 357 358 383
f 357 383 382
f 358 359 384
f 358 384 383
f 359 360 385
f 359 385 384
f 360 361 386
f 360 386 385
f 361 362 387
f 361 387 386
f 362 363 388
f 362 388 387
f 363 364 389
f 363 389 388
f 364 365 390
f 364 390 389
f 365 366 391
f 365 391 390
f 366 367 392
f 366 392 391
f 367 368 393
f 367 393 392
f 368 369 394
f 368 394 393
f 369 370 395
f 369 395 394
f 370 371 396
f 370 396 395
f 371 372 397
f 371 397 396
f 372 373 398
f 372 398 397
f 373 374 399
f 373 399 398
f 374 375 400
f 374 400 399
f 376 377 402
f 376 402 401
f 377 378 403
f 377 403 402
f 378 379 404
f 378 404 403
f 379 380 405
f 379 405 404
f 380 381 406
f 380 406 405
f 381 382 407
f 381 407 406
f 382 383 408
f 382 408 407
f 383 384 409
f 383 409 408
f 384 385 410
f 384 410 409
f 385 386 411
f 385 411 410
f 386 387 412
f 386 412 411
f 387 388 413
f 387 413 412
f 388 389 414
f 388 414 413
f 389 390 415
f 389 415 414
f 390 391 416
f 390 416 415
f 391 392 417
f 391 417 416
f 392 393 418
f 392 418 417
f 393 394 419
f 393 419 418
f 394 395 420
f 394 420 419
f 395 396 421
f 395 421 420
f 396 397 422
f 396 422 421
f 397 398 423
f 397 423 422
f 398 399 424
f 398 424 423
f 399 400 425
f 399 425 424
f 401 402 427
f 401 427 426
f 402 403 428
f 402 428 427
f 403 404 429
f 403 429 428
f 404 405 430
f 404 430 429
f 405 406 431
f 405 431 430
f 406 407 432
f 406 432 431
f 407 408 433
f 407 433 432
f 408 409 434
f 408 434 433
f 409 410 435
f 409 435 434
f 410 411 436
f 410 436 435
f 411 412 437
f 411 437 436
f 412 413 438
f 412 438 437
f 413 414 439
f 413 439 438
f 414 415 440
f 414 440 439
f 415 416 441
f 415 441 440
f 416 417 442
f 416 442 441
f 417 418 443
f 417 443 442
f 418 419 444
f 418 444 443
f 419 420 445
f 419 445 444
f 420 421 446
f 420 446 445
f 421 422 447
f 421 447 446
f 422 423 448
f 422 448 447
f 423 424 449
f 423 449 448
f 424 425 450
f 424 450 449
f 426 427 452
f 426 452 451
f 427 428 453
f 427 453 452
f 428 429 454
f 428 454 453
f 429 430 455
f 429 455 454
f 430 431 456
f 430 456 455
f 431 432 457
f 431 457 456
f 432 433 458
f 432 458 457
f 433 434 459
f 433 459 458
f 434 435 460
f 434 460 459
f 435 436 461
f 435 461 460
f 436 437 462
f 436 462 461
f 437 438 463
f 437 463 462
f 438 439 464
f 438 464 463
f 439 440 465
f 439 465 464
f 440 441 466
f 440 466 465
f 441 442 467
f 441 467 466
f 442 443 468
f 442 468 467
f 443 444 469
f 443 469 468
f 444 445 470
f 444 470 469
f 445 446 471
f 445 471 470
f 446 447 472
f 446 472 471
f 447 448 473
f 447 473 472
f 448 449 474
f 448 474 473
f 449 450 475
f 449 475 474
f 451 452 477
f 451 477 476
f 452 453 478
f 452 478 477
f 453 454 479
f 453 479 478
f 454 455 480
f 454 480 479
f 455 456 481
f 455 481 480
f 456 457 482
f 456 482 481
f 457 458 483
f 457 483 482
f 458 459 484
f 458 484 483
f 459 460 485
f 459 485 484
f 460 461 486
f 460 486 485
f 461 462 487
f 461 487 486
f 462 463 488
f 462 488 487
f 463 464 489
f 463 489 488
f 464 465 490
f 464 490 489
f 465 466 491
f 465 491 490
f 466 467 492
f 466 492 491
f 467 468 493
f 467 493 492
f 468 469 494
f 468 494 493
f 469 470 495
f 469 495 494
f 470 471 496
f 470 496 495
f 471 472 497
f 471 497 496
f 472 473 498
f 472 498 497
f 473 474 499
f 473 499 498
f 474 475 500
f 474 500 499
f 476 477 502
f 476 502 501
f 477 478 503
f 477 503 502
f 478 479 504
f 478 504 503
f 479 480 505
f 479 505 504
f 480 481 506
f 480 506 505
f 481 482 507
f 481 507 506
f 482 483 508
f 482 508 507
f 483 484 509
f 483 509 508
f 484 485 510
f 484 510 509
f 485 486 511
f 485 511 510
f 486 487 512
f 486 512 511
f 487 488 513
f 487 513 512
f 488 489 514
f 488 514 513
f 489 490 515
f 489 515 514
f 490 491 516
f 490 516 515
f 491 492 517
f 491 517 516
f 492 493 518
f 492 518 517
f 493 494 519
f 493 519 518
f 494 495 520
f 494 520 519
f 495 496 521
f 495 521 520
f 496 497 522
f 496 522 521
f 497 498 523
f 497 523 522
f 498 499 524
f 498 524 523
f 499 500 525
f 499 525 524
f 501 502 527
f 501 527 526
f 502 503 528
f 502 528 527
f 503 504 529
f 503 529 528
f 504 505 530
f 504 530 529
f 505 506 531
f 505 531 530
f 506 507 532
f 506 532 531
f 507 508 533
f 507 533 532
f 508 509 534
f 508 534 533
f 509 510 535
f 509 535 534
f 510 511 536
f 510 536 535
f 511 512 537
f 511 537 536
f 512 513 538
f 512 538 537
f 513 514 539
f 513 539 538
f 514 515 540
f 514 540 539
f 515 516 541
f 515 541 540
f 516 517 542
f 516 542 541
f 517 518 543
f 517 543 542
f 518 519 544
f 518 544 543
f 519 520 545
f 519 545 544
f 520 521 546
f 520 546 545
f 521 522 547
f 521 547 546
f 522 523 548
f 522 548 547
f 523 524 549
f 523 549 548
f 524 525 550
f 524 550 549
f 526 527 552
f 526 552 551
f 527 528 553
f 527 553 552
f 528 529 554
f 528 554 553
f 529 530 555
f 529 555 554
f 530 531 556
f 530 556 555
f 531 532 557
f 531 557 556
f 532 533 558
f 532 558 557
f 533 534 559
f 533 559 558
f 534 535 560
f 534 560 559
f 535 536 561
f 535 561 560
f 536 537 562
f 536 562 561
f 537 538 563
f 537 563 562
f 538 539 564
f 538 564 563
f 539 540 565
f 539 565 564
f 540 541 566
f 540 566 565
f 541 542 567
f 541 567 566
f 542 543 568
f 542 568 567
f 543 544 569
f 543 569 568
f 544 545 570
f 544 570 569
f 545 546 571
f 545 571 570
f 546 547 572
f 546 572 571
f 547 548 573
f 547 573 572
f 548 549 574
f 548 574 573
f 549 550 575
f 549 575 574
f 551 552 577
f 551 577 576
f 552 553 578
f 552 578 577
f 553 554 579
f 553 579 578
f 554 555 580
f 554 580 579
f 555 556 581
f 555 581 580
f 556 557 582
f 556 582 581
f 557 558 583
f 557 583 582
f 558 559 584
f 558 584 583
f 559 560 585
f 559 585 584
f 560 561 586
f 560 586 585
f 561 562 587
f 561 587 586
f 562 563 588
f 562 588 587
f 563 564 589
f 563 589 588
f 564 565 590
f 564 590 589
f 565 566 591
f 565 591 590
f 566 567 592
f 566 592 591
f 567 568 593
f 567 593 592
f 568 569 594
f 568 594 593
f 569 570 595
f 569 595 594
f 570 571 596
f 570 596 595
f 571 572 597
f 571 597 596
f 572 573 598
f 572 598 597
f 573 574 599
f 573 599 598
f 574 575 600
f 574 600 599
f 576 577 602
f 576 602 601
f 577 578 603
f 577 603 602
f 578 579 604
f 578 604 603
f 579 580 605
f 579 605 604
f 580 581 606
f 580 606 605
f 581 582 607
f 581 607 606
f 582 583 608
f 582 608 607
f 583 584 609
f 583 609 608
f 584 585 610
f 584 610 609
f 585 586 611
f 585 611 610
f 586 587 612
f 586 612 611
f 587 588 613
f 587 613 612
f 588 589 614
f 588 614 613
f 589 590 615
f 589 615 614
f 590 591 616
f 590 616 615
f 591 592 617
f 591 617 616
f 592 593 618
f 592 618 617
f 593 594 619
f 593 619 618
f 594 595 620
f 594 620 619
f 595 596 621
f 595 621 620
f 596 597 622
f 596 622 621
f 597 598 623
f 597 623 622
f 598 599 624
f 598 624 623
f 599 600 625
f 599 625 624
