o [4B] 3D Diagram - S2-04 Group G_141
v -192.025504 -192.025504 29877.793204
v -176.023379 -192.025504 28506.338324
v -160.021254 -192.025504 27134.883444
v -144.019128 -192.025504 25763.428564
v -128.017003 -192.025504 24391.973684
v -112.014878 -192.025504 23020.518804
v -96.012752 -192.025504 21649.063924
v -80.010627 -192.025504 20277.609044
v -64.008501 -192.025504 18906.154164
v -48.006376 -192.025504 17534.699284
v -32.004251 -192.025504 16163.244404
v -16.002125 -192.025504 14791.789524
v 0.000000 -192.025504 13420.334644
v 16.002125 -192.025504 12048.879764
v 32.004251 -192.025504 10677.424884
v 48.006376 -192.025504 9305.970003
v 64.008501 -192.025504 7934.515123
v 80.010627 -192.025504 6563.060243
v 96.012752 -192.025504 5191.605363
v 112.014878 -192.025504 3820.150483
v 128.017003 -192.025504 2448.695603
v 144.019128 -192.025504 1077.240723
v 160.021254 -192.025504 -294.214157
v 176.023379 -192.025504 -1665.669037
v 192.025504 -192.025504 -3037.123917
v -192.025504 -176.023379 29553.750166
v -176.023379 -176.023379 28182.295286
v -160.021254 -176.023379 26810.840406
v -144.019128 -176.023379 25439.385526
v -128.017003 -176.023379 24067.930646
v -112.014878 -176.023379 22696.475766
v -96.012752 -176.023379 21325.020886
v -80.010627 -176.023379 19953.566005
v -64.008501 -176.023379 18582.111125
v -48.006376 -176.023379 17210.656245
v -32.004251 -176.023379 15839.201365
v -16.002125 -176.023379 14467.746485
v 0.000000 -176.023379 13096.291605
v 16.002125 -176.023379 11724.836725
v 32.004251 -176.023379 10353.381845
v 48.006376 -176.023379 8981.926965
v 64.008501 -176.023379 7610.472085
v 80.010627 -176.023379 6239.017205
v 96.012752 -176.023379 4867.562325
v 112.014878 -176.023379 3496.107445
v 128.017003 -176.023379 2124.652565
v 144.019128 -176.023379 753.197685
v 160.021254 -176.023379 -618.257195
v 176.023379 -176.023379 -1989.712075
v 192.025504 -176.023379 -3361.166956
v -192.025504 -160.021254 29229.707127
v -176.023379 -160.021254 27858.252247
v -160.021254 -160.021254 26486.797367
v -144.019128 -160.021254 25115.342487
v -128.017003 -160.021254 23743.887607
v -112.014878 -160.021254 22372.432727
v -96.012752 -160.021254 21000.977847
v -80.010627 -160.021254 19629.522967
v -64.008501 -160.021254 18258.068087
v -48.006376 -160.021254 16886.613207
v -32.004251 -160.021254 15515.158327
v -16.002125 -160.021254 14143.703447
v 0.000000 -160.021254 12772.248567
v 16.002125 -160.021254 11400.793687
v 32.004251 -160.021254 10029.338807
v 48.006376 -160.021254 8657.883927
v 64.008501 -160.021254 7286.429046
v 80.010627 -160.021254 5914.974166
v 96.012752 -160.021254 4543.519286
v 112.014878 -160.021254 3172.064406
v 128.017003 -160.021254 1800.609526
v 144.019128 -160.021254 429.154646
v 160.021254 -160.021254 -942.300234
v 176.023379 -160.021254 -2313.755114
v 192.025504 -160.021254 -3685.209994
v -192.025504 -144.019128 28905.664089
v -176.023379 -144.019128 27534.209209
v -160.021254 -144.019128 26162.754329
v -144.019128 -144.019128 24791.299449
v -128.017003 -144.019128 23419.844569
v -112.014878 -144.019128 22048.389689
v -96.012752 -144.019128 20676.934809
v -80.010627 -144.019128 19305.479928
v -64.008501 -144.019128 17934.025048
v -48.006376 -144.019128 16562.570168
v -32.004251 -144.019128 15191.115288
v -16.002125 -144.019128 13819.660408
v 0.000000 -144.019128 12448.205528
v 16.002125 -144.019128 11076.750648
v 32.004251 -144.019128 9705.295768
v 48.006376 -144.019128 8333.840888
v 64.008501 -144.019128 6962.386008
v 80.010627 -144.019128 5590.931128
v 96.012752 -144.019128 4219.476248
v 112.014878 -144.019128 2848.021368
v 128.017003 -144.019128 1476.566488
v 144.019128 -144.019128 105.111608
v 160.021254 -144.019128 -1266.343272
v 176.023379 -144.019128 -2637.798152
v 192.025504 -144.019128 -4009.253033
v -192.025504 -128.017003 28581.621050
v -176.023379 -128.017003 27210.166170
v -160.021254 -128.017003 25838.711290
v -144.019128 -128.017003 24467.256410
v -128.017003 -128.017003 23095.801530
v -112.014878 -128.017003 21724.346650
v -96.012752 -128.017003 20352.891770
v -80.010627 -128.017003 18981.436890
v -64.008501 -128.017003 17609.982010
v -48.006376 -128.017003 16238.527130
v -32.004251 -128.017003 14867.072250
v -16.002125 -128.017003 13495.617370
v 0.000000 -128.017003 12124.162490
v 16.002125 -128.017003 10752.707610
v 32.004251 -128.017003 9381.252730
v 48.006376 -128.017003 8009.797850
v 64.008501 -128.017003 6638.342969
v 80.010627 -128.017003 5266.888089
v 96.012752 -128.017003 3895.433209
v 112.014878 -128.017003 2523.978329
v 128.017003 -128.017003 1152.523449
v 144.019128 -128.017003 -218.931431
v 160.021254 -128.017003 -1590.386311
v 176.023379 -128.017003 -2961.841191
v 192.025504 -128.017003 -4333.296071
v -192.025504 -112.014878 28257.578012
v -176.023379 -112.014878 26886.123132
v -160.021254 -112.014878 25514.668252
v -144.019128 -112.014878 24143.213372
v -128.017003 -112.014878 22771.758492
v -112.014878 -112.014878 21400.303612
v -96.012752 -112.014878 20028.848732
v -80.010627 -112.014878 18657.393852
v -64.008501 -112.014878 17285.938971
v -48.006376 -112.014878 15914.484091
v -32.004251 -112.014878 14543.029211
v -16.002125 -112.014878 13171.574331
v 0.000000 -112.014878 11800.119451
v 16.002125 -112.014878 10428.664571
v 32.004251 -112.014878 9057.209691
v 48.006376 -112.014878 7685.754811
v 64.008501 -112.014878 6314.299931
v 80.010627 -112.014878 4942.845051
v 96.012752 -112.014878 3571.390171
v 112.014878 -112.014878 2199.935291
v 128.017003 -112.014878 828.480411
v 144.019128 -112.014878 -542.974469
v 160.021254 -112.014878 -1914.429349
v 176.023379 -112.014878 -3285.884229
v 192.025504 -112.014878 -4657.339109
v -192.025504 -96.012752 27933.534973
v -176.023379 -96.012752 26562.080093
v -160.021254 -96.012752 25190.625213
v -144.019128 -96.012752 23819.170333
v -128.017003 -96.012752 22447.715453
v -112.014878 -96.012752 21076.260573
v -96.012752 -96.012752 19704.805693
v -80.010627 -96.012752 18333.350813
v -64.008501 -96.012752 16961.895933
v -48.006376 -96.012752 15590.441053
v -32.004251 -96.012752 14218.986173
v -16.002125 -96.012752 12847.531293
v 0.000000 -96.012752 11476.076413
v 16.002125 -96.012752 10104.621533
v 32.004251 -96.012752 8733.166653
v 48.006376 -96.012752 7361.711773
v 64.008501 -96.012752 5990.256892
v 80.010627 -96.012752 4618.802012
v 96.012752 -96.012752 3247.347132
v 112.014878 -96.012752 1875.892252
v 128.017003 -96.012752 504.437372
v 144.019128 -96.012752 -867.017508
v 160.021254 -96.012752 -2238.472388
v 176.023379 -96.012752 -3609.927268
v 192.025504 -96.012752 -4981.382148
v -192.025504 -80.010627 27609.491935
v -176.023379 -80.010627 26238.037055
v -160.021254 -80.010627 24866.582175
v -144.019128 -80.010627 23495.127295
v -128.017003 -80.010627 22123.672415
v -112.014878 -80.010627 20752.217535
v -96.012752 -80.010627 19380.762655
v -80.010627 -80.010627 18009.307775
v -64.008501 -80.010627 16637.852894
v -48.006376 -80.010627 15266.398014
v -32.004251 -80.010627 13894.943134
v -16.002125 -80.010627 12523.488254
v 0.000000 -80.010627 11152.033374
v 16.002125 -80.010627 9780.578494
v 32.004251 -80.010627 8409.123614
v 48.006376 -80.010627 7037.668734
v 64.008501 -80.010627 5666.213854
v 80.010627 -80.010627 4294.758974
v 96.012752 -80.010627 2923.304094
v 112.014878 -80.010627 1551.849214
v 128.017003 -80.010627 180.394334
v 144.019128 -80.010627 -1191.060546
v 160.021254 -80.010627 -2562.515426
v 176.023379 -80.010627 -3933.970306
v 192.025504 -80.010627 -5305.425186
v -192.025504 -64.008501 27285.448896
v -176.023379 -64.008501 25913.994016
v -160.021254 -64.008501 24542.539136
v -144.019128 -64.008501 23171.084256
v -128.017003 -64.008501 21799.629376
v -112.014878 -64.008501 20428.174496
v -96.012752 -64.008501 19056.719616
v -80.010627 -64.008501 17685.264736
v -64.008501 -64.008501 16313.809856
v -48.006376 -64.008501 14942.354976
v -32.004251 -64.008501 13570.900096
v -16.002125 -64.008501 12199.445216
v 0.000000 -64.008501 10827.990336
v 16.002125 -64.008501 9456.535456
v 32.004251 -64.008501 8085.080576
v 48.006376 -64.008501 6713.625696
v 64.008501 -64.008501 5342.170816
v 80.010627 -64.008501 3970.715935
v 96.012752 -64.008501 2599.261055
v 112.014878 -64.008501 1227.806175
v 128.017003 -64.008501 -143.648705
v 144.019128 -64.008501 -1515.103585
v 160.021254 -64.008501 -2886.558465
v 176.023379 -64.008501 -4258.013345
v 192.025504 -64.008501 -5629.468225
v -192.025504 -48.006376 26961.405858
v -176.023379 -48.006376 25589.950978
v -160.021254 -48.006376 24218.496098
v -144.019128 -48.006376 22847.041218
v -128.017003 -48.006376 21475.586338
v -112.014878 -48.006376 20104.131458
v -96.012752 -48.006376 18732.676578
v -80.010627 -48.006376 17361.221698
v -64.008501 -48.006376 15989.766818
v -48.006376 -48.006376 14618.311937
v -32.004251 -48.006376 13246.857057
v -16.002125 -48.006376 11875.402177
v 0.000000 -48.006376 10503.947297
v 16.002125 -48.006376 9132.492417
v 32.004251 -48.006376 7761.037537
v 48.006376 -48.006376 6389.582657
v 64.008501 -48.006376 5018.127777
v 80.010627 -48.006376 3646.672897
v 96.012752 -48.006376 2275.218017
v 112.014878 -48.006376 903.763137
v 128.017003 -48.006376 -467.691743
v 144.019128 -48.006376 -1839.146623
v 160.021254 -48.006376 -3210.601503
v 176.023379 -48.006376 -4582.056383
v 192.025504 -48.006376 -5953.511263
v -192.025504 -32.004251 26637.362819
v -176.023379 -32.004251 25265.907939
v -160.021254 -32.004251 23894.453059
v -144.019128 -32.004251 22522.998179
v -128.017003 -32.004251 21151.543299
v -112.014878 -32.004251 19780.088419
v -96.012752 -32.004251 18408.633539
v -80.010627 -32.004251 17037.178659
v -64.008501 -32.004251 15665.723779
v -48.006376 -32.004251 14294.268899
v -32.004251 -32.004251 12922.814019
v -16.002125 -32.004251 11551.359139
v 0.000000 -32.004251 10179.904259
v 16.002125 -32.004251 8808.449379
v 32.004251 -32.004251 7436.994499
v 48.006376 -32.004251 6065.539619
v 64.008501 -32.004251 4694.084739
v 80.010627 -32.004251 3322.629858
v 96.012752 -32.004251 1951.174978
v 112.014878 -32.004251 579.720098
v 128.017003 -32.004251 -791.734782
v 144.019128 -32.004251 -2163.189662
v 160.021254 -32.004251 -3534.644542
v 176.023379 -32.004251 -4906.099422
v 192.025504 -32.004251 -6277.554302
v -192.025504 -16.002125 26313.319781
v -176.023379 -16.002125 24941.864901
v -160.021254 -16.002125 23570.410021
v -144.019128 -16.002125 22198.955141
v -128.017003 -16.002125 20827.500261
v -112.014878 -16.002125 19456.045381
v -96.012752 -16.002125 18084.590501
v -80.010627 -16.002125 16713.135621
v -64.008501 -16.002125 15341.680741
v -48.006376 -16.002125 13970.225860
v -32.004251 -16.002125 12598.770980
v -16.002125 -16.002125 11227.316100
v 0.000000 -16.002125 9855.861220
v 16.002125 -16.002125 8484.406340
v 32.004251 -16.002125 7112.951460
v 48.006376 -16.002125 5741.496580
v 64.008501 -16.002125 4370.041700
v 80.010627 -16.002125 2998.586820
v 96.012752 -16.002125 1627.131940
v 112.014878 -16.002125 255.677060
v 128.017003 -16.002125 -1115.777820
v 144.019128 -16.002125 -2487.232700
v 160.021254 -16.002125 -3858.687580
v 176.023379 -16.002125 -5230.142460
v 192.025504 -16.002125 -6601.597340
v -192.025504 0.000000 25989.276743
v -176.023379 0.000000 24617.821862
v -160.021254 0.000000 23246.366982
v -144.019128 0.000000 21874.912102
v -128.017003 0.000000 20503.457222
v -112.014878 0.000000 19132.002342
v -96.012752 0.000000 17760.547462
v -80.010627 0.000000 16389.092582
v -64.008501 0.000000 15017.637702
v -48.006376 0.000000 13646.182822
v -32.004251 0.000000 12274.727942
v -16.002125 0.000000 10903.273062
v 0.000000 0.000000 9531.818182
v 16.002125 0.000000 8160.363302
v 32.004251 0.000000 6788.908422
v 48.006376 0.000000 5417.453542
v 64.008501 0.000000 4045.998662
v 80.010627 0.000000 2674.543782
v 96.012752 0.000000 1303.088901
v 112.014878 0.000000 -68.365979
v 128.017003 0.000000 -1439.820859
v 144.019128 0.000000 -2811.275739
v 160.021254 0.000000 -4182.730619
v 176.023379 0.000000 -5554.185499
v 192.025504 0.000000 -6925.640379
v -192.025504 16.002125 25665.233704
v -176.023379 16.002125 24293.778824
v -160.021254 16.002125 22922.323944
v -144.019128 16.002125 21550.869064
v -128.017003 16.002125 20179.414184
v -112.014878 16.002125 18807.959304
v -96.012752 16.002125 17436.504424
v -80.010627 16.002125 16065.049544
v -64.008501 16.002125 14693.594664
v -48.006376 16.002125 13322.139784
v -32.004251 16.002125 11950.684903
v -16.002125 16.002125 10579.230023
v 0.000000 16.002125 9207.775143
v 16.002125 16.002125 7836.320263
v 32.004251 16.002125 6464.865383
v 48.006376 16.002125 5093.410503
v 64.008501 16.002125 3721.955623
v 80.010627 16.002125 2350.500743
v 96.012752 16.002125 979.045863
v 112.014878 16.002125 -392.409017
v 128.017003 16.002125 -1763.863897
v 144.019128 16.002125 -3135.318777
v 160.021254 16.002125 -4506.773657
v 176.023379 16.002125 -5878.228537
v 192.025504 16.002125 -7249.683417
v -192.025504 32.004251 25341.190666
v -176.023379 32.004251 23969.735785
v -160.021254 32.004251 22598.280905
v -144.019128 32.004251 21226.826025
v -128.017003 32.004251 19855.371145
v -112.014878 32.004251 18483.916265
v -96.012752 32.004251 17112.461385
v -80.010627 32.004251 15741.006505
v -64.008501 32.004251 14369.551625
v -48.006376 32.004251 12998.096745
v -32.004251 32.004251 11626.641865
v -16.002125 32.004251 10255.186985
v 0.000000 32.004251 8883.732105
v 16.002125 32.004251 7512.277225
v 32.004251 32.004251 6140.822345
v 48.006376 32.004251 4769.367465
v 64.008501 32.004251 3397.912585
v 80.010627 32.004251 2026.457705
v 96.012752 32.004251 655.002824
v 112.014878 32.004251 -716.452056
v 128.017003 32.004251 -2087.906936
v 144.019128 32.004251 -3459.361816
v 160.021254 32.004251 -4830.816696
v 176.023379 32.004251 -6202.271576
v 192.025504 32.004251 -7573.726456
v -192.025504 48.006376 25017.147627
v -176.023379 48.006376 23645.692747
v -160.021254 48.006376 22274.237867
v -144.019128 48.006376 20902.782987
v -128.017003 48.006376 19531.328107
v -112.014878 48.006376 18159.873227
v -96.012752 48.006376 16788.418347
v -80.010627 48.006376 15416.963467
v -64.008501 48.006376 14045.508587
v -48.006376 48.006376 12674.053707
v -32.004251 48.006376 11302.598826
v -16.002125 48.006376 9931.143946
v 0.000000 48.006376 8559.689066
v 16.002125 48.006376 7188.234186
v 32.004251 48.006376 5816.779306
v 48.006376 48.006376 4445.324426
v 64.008501 48.006376 3073.869546
v 80.010627 48.006376 1702.414666
v 96.012752 48.006376 330.959786
v 112.014878 48.006376 -1040.495094
v 128.017003 48.006376 -2411.949974
v 144.019128 48.006376 -3783.404854
v 160.021254 48.006376 -5154.859734
v 176.023379 48.006376 -6526.314614
v 192.025504 48.006376 -7897.769494
v -192.025504 64.008501 24693.104589
v -176.023379 64.008501 23321.649709
v -160.021254 64.008501 21950.194828
v -144.019128 64.008501 20578.739948
v -128.017003 64.008501 19207.285068
v -112.014878 64.008501 17835.830188
v -96.012752 64.008501 16464.375308
v -80.010627 64.008501 15092.920428
v -64.008501 64.008501 13721.465548
v -48.006376 64.008501 12350.010668
v -32.004251 64.008501 10978.555788
v -16.002125 64.008501 9607.100908
v 0.000000 64.008501 8235.646028
v 16.002125 64.008501 6864.191148
v 32.004251 64.008501 5492.736268
v 48.006376 64.008501 4121.281388
v 64.008501 64.008501 2749.826508
v 80.010627 64.008501 1378.371628
v 96.012752 64.008501 6.916748
v 112.014878 64.008501 -1364.538133
v 128.017003 64.008501 -2735.993013
v 144.019128 64.008501 -4107.447893
v 160.021254 64.008501 -5478.902773
v 176.023379 64.008501 -6850.357653
v 192.025504 64.008501 -8221.812533
v -192.025504 80.010627 24369.061550
v -176.023379 80.010627 22997.606670
v -160.021254 80.010627 21626.151790
v -144.019128 80.010627 20254.696910
v -128.017003 80.010627 18883.242030
v -112.014878 80.010627 17511.787150
v -96.012752 80.010627 16140.332270
v -80.010627 80.010627 14768.877390
v -64.008501 80.010627 13397.422510
v -48.006376 80.010627 12025.967630
v -32.004251 80.010627 10654.512750
v -16.002125 80.010627 9283.057869
v 0.000000 80.010627 7911.602989
v 16.002125 80.010627 6540.148109
v 32.004251 80.010627 5168.693229
v 48.006376 80.010627 3797.238349
v 64.008501 80.010627 2425.783469
v 80.010627 80.010627 1054.328589
v 96.012752 80.010627 -317.126291
v 112.014878 80.010627 -1688.581171
v 128.017003 80.010627 -3060.036051
v 144.019128 80.010627 -4431.490931
v 160.021254 80.010627 -5802.945811
v 176.023379 80.010627 -7174.400691
v 192.025504 80.010627 -8545.855571
v -192.025504 96.012752 24045.018512
v -176.023379 96.012752 22673.563632
v -160.021254 96.012752 21302.108751
v -144.019128 96.012752 19930.653871
v -128.017003 96.012752 18559.198991
v -112.014878 96.012752 17187.744111
v -96.012752 96.012752 15816.289231
v -80.010627 96.012752 14444.834351
v -64.008501 96.012752 13073.379471
v -48.006376 96.012752 11701.924591
v -32.004251 96.012752 10330.469711
v -16.002125 96.012752 8959.014831
v 0.000000 96.012752 7587.559951
v 16.002125 96.012752 6216.105071
v 32.004251 96.012752 4844.650191
v 48.006376 96.012752 3473.195311
v 64.008501 96.012752 2101.740431
v 80.010627 96.012752 730.285551
v 96.012752 96.012752 -641.169329
v 112.014878 96.012752 -2012.624210
v 128.017003 96.012752 -3384.079090
v 144.019128 96.012752 -4755.533970
v 160.021254 96.012752 -6126.988850
v 176.023379 96.012752 -7498.443730
v 192.025504 96.012752 -8869.898610
v -192.025504 112.014878 23720.975473
v -176.023379 112.014878 22349.520593
v -160.021254 112.014878 20978.065713
v -144.019128 112.014878 19606.610833
v -128.017003 112.014878 18235.155953
v -112.014878 112.014878 16863.701073
v -96.012752 112.014878 15492.246193
v -80.010627 112.014878 14120.791313
v -64.008501 112.014878 12749.336433
v -48.006376 112.014878 11377.881553
v -32.004251 112.014878 10006.426673
v -16.002125 112.014878 8634.971792
v 0.000000 112.014878 7263.516912
v 16.002125 112.014878 5892.062032
v 32.004251 112.014878 4520.607152
v 48.006376 112.014878 3149.152272
v 64.008501 112.014878 1777.697392
v 80.010627 112.014878 406.242512
v 96.012752 112.014878 -965.212368
v 112.014878 112.014878 -2336.667248
v 128.017003 112.014878 -3708.122128
v 144.019128 112.014878 -5079.577008
v 160.021254 112.014878 -6451.031888
v 176.023379 112.014878 -7822.486768
v 192.025504 112.014878 -9193.941648
v -192.025504 128.017003 23396.932435
v -176.023379 128.017003 22025.477555
v -160.021254 128.017003 20654.022675
v -144.019128 128.017003 19282.567794
v -128.017003 128.017003 17911.112914
v -112.014878 128.017003 16539.658034
v -96.012752 128.017003 15168.203154
v -80.010627 128.017003 13796.748274
v -64.008501 128.017003 12425.293394
v -48.006376 128.017003 11053.838514
v -32.004251 128.017003 9682.383634
v -16.002125 128.017003 8310.928754
v 0.000000 128.017003 6939.473874
v 16.002125 128.017003 5568.018994
v 32.004251 128.017003 4196.564114
v 48.006376 128.017003 2825.109234
v 64.008501 128.017003 1453.654354
v 80.010627 128.017003 82.199474
v 96.012752 128.017003 -1289.255406
v 112.014878 128.017003 -2660.710286
v 128.017003 128.017003 -4032.165167
v 144.019128 128.017003 -5403.620047
v 160.021254 128.017003 -6775.074927
v 176.023379 128.017003 -8146.529807
v 192.025504 128.017003 -9517.984687
v -192.025504 144.019128 23072.889396
v -176.023379 144.019128 21701.434516
v -160.021254 144.019128 20329.979636
v -144.019128 144.019128 18958.524756
v -128.017003 144.019128 17587.069876
v -112.014878 144.019128 16215.614996
v -96.012752 144.019128 14844.160116
v -80.010627 144.019128 13472.705236
v -64.008501 144.019128 12101.250356
v -48.006376 144.019128 10729.795476
v -32.004251 144.019128 9358.340596
v -16.002125 144.019128 7986.885715
v 0.000000 144.019128 6615.430835
v 16.002125 144.019128 5243.975955
v 32.004251 144.019128 3872.521075
v 48.006376 144.019128 2501.066195
v 64.008501 144.019128 1129.611315
v 80.010627 144.019128 -241.843565
v 96.012752 144.019128 -1613.298445
v 112.014878 144.019128 -2984.753325
v 128.017003 144.019128 -4356.208205
v 144.019128 144.019128 -5727.663085
v 160.021254 144.019128 -7099.117965
v 176.023379 144.019128 -8470.572845
v 192.025504 144.019128 -9842.027725
v -192.025504 160.021254 22748.846358
v -176.023379 160.021254 21377.391478
v -160.021254 160.021254 20005.936598
v -144.019128 160.021254 18634.481717
v -128.017003 160.021254 17263.026837
v -112.014878 160.021254 15891.571957
v -96.012752 160.021254 14520.117077
v -80.010627 160.021254 13148.662197
v -64.008501 160.021254 11777.207317
v -48.006376 160.021254 10405.752437
v -32.004251 160.021254 9034.297557
v -16.002125 160.021254 7662.842677
v 0.000000 160.021254 6291.387797
v 16.002125 160.021254 4919.932917
v 32.004251 160.021254 3548.478037
v 48.006376 160.021254 2177.023157
v 64.008501 160.021254 805.568277
v 80.010627 160.021254 -565.886603
v 96.012752 160.021254 -1937.341483
v 112.014878 160.021254 -3308.796363
v 128.017003 160.021254 -4680.251244
v 144.019128 160.021254 -6051.706124
v 160.021254 160.021254 -7423.161004
v 176.023379 160.021254 -8794.615884
v 192.025504 160.021254 -10166.070764
v -192.025504 176.023379 22424.803319
v -176.023379 176.023379 21053.348439
v -160.021254 176.023379 19681.893559
v -144.019128 176.023379 18310.438679
v -128.017003 176.023379 16938.983799
v -112.014878 176.023379 15567.528919
v -96.012752 176.023379 14196.074039
v -80.010627 176.023379 12824.619159
v -64.008501 176.023379 11453.164279
v -48.006376 176.023379 10081.709399
v -32.004251 176.023379 8710.254519
v -16.002125 176.023379 7338.799639
v 0.000000 176.023379 5967.344758
v 16.002125 176.023379 4595.889878
v 32.004251 176.023379 3224.434998
v 48.006376 176.023379 1852.980118
v 64.008501 176.023379 481.525238
v 80.010627 176.023379 -889.929642
v 96.012752 176.023379 -2261.384522
v 112.014878 176.023379 -3632.839402
v 128.017003 176.023379 -5004.294282
v 144.019128 176.023379 -6375.749162
v 160.021254 176.023379 -7747.204042
v 176.023379 176.023379 -9118.658922
v 192.025504 176.023379 -10490.113802
v -192.025504 192.025504 22100.760281
v -176.023379 192.025504 20729.305401
v -160.021254 192.025504 19357.850521
v -144.019128 192.025504 17986.395641
v -128.017003 192.025504 16614.940760
v -112.014878 192.025504 15243.485880
v -96.012752 192.025504 13872.031000
v -80.010627 192.025504 12500.576120
v -64.008501 192.025504 11129.121240
v -48.006376 192.025504 9757.666360
v -32.004251 192.025504 8386.211480
v -16.002125 192.025504 7014.756600
v 0.000000 192.025504 5643.301720
v 16.002125 192.025504 4271.846840
v 32.004251 192.025504 2900.391960
v 48.006376 192.025504 1528.937080
v 64.008501 192.025504 157.482200
v 80.010627 192.025504 -1213.972680
v 96.012752 192.025504 -2585.427560
v 112.014878 192.025504 -3956.882440
v 128.017003 192.025504 -5328.337320
v 144.019128 192.025504 -6699.792201
v 160.021254 192.025504 -8071.247081
v 176.023379 192.025504 -9442.701961
v 192.025504 192.025504 -10814.156841
f 1 2 27
f 1 27 26
f 2 3 28
f 2 28 27
f 3 4 29
f 3 29 28
f 4 5 30
f 4 30 29
f 5 6 31
f 5 31 30
f 6 7 32
f 6 32 31
f 7 8 33
f 7 33 32
f 8 9 34
f 8 34 33
f 9 10 35
f 9 35 34
f 10 11 36
f 10 36 35
f 11 12 37
f 11 37 36
f 12 13 38
f 12 38 37
f 13 14 39
f 13 39 38
f 14 15 40
f 14 40 39
f 15 16 41
f 15 41 40
f 16 17 42
f 16 42 41
f 17 18 43
f 17 43 42
f 18 19 44
f 18 44 43
f 19 20 45
f 19 45 44
f 20 21 46
f 20 46 45
f 21 22 47
f 21 47 46
f 22 23 48
f 22 48 47
f 23 24 49
f 23 49 48
f 24 25 50
f 24 50 49
f 26 27 52
f 26 52 51
f 27 28 53
f 27 53 52
f 28 29 54
f 28 54 53
f 29 30 55
f 29 55 54
f 30 31 56
f 30 56 55
f 31 32 57
f 31 57 56
f 32 33 58
f 32 58 57
f 33 34 59
f 33 59 58
f 34 35 60
f 34 60 59
f 35 36 61
f 35 61 60
f 36 37 62
f 36 62 61
f 37 38 63
f 37 63 62
f 38 39 64
f 38 64 63
f 39 40 65
f 39 65 64
f 40 41 66
f 40 66 65
f 41 42 67
f 41 67 66
f 42 43 68
f 42 68 67
f 43 44 69
f 43 69 68
f 44 45 70
f 44 70 69
f 45 46 71
f 45 71 70
f 46 47 72
f 46 72 71
f 47 48 73
f 47 73 72
f 48 49 74
f 48 74 73
f 49 50 75
f 49 75 74
f 51 52 77
f 51 77 76
f 52 53 78
f 52 78 77
f 53 54 79
f 53 79 78
f 54 55 80
f 54 80 79
f 55 56 81
f 55 81 80
f 56 57 82
f 56 82 81
f 57 58 83
f 57 83 82
f 58 59 84
f 58 84 83
f 59 60 85
f 59 85 84
f 60 61 86
f 60 86 85
f 61 62 87
f 61 87 86
f 62 63 88
f 62 88 87
f 63 64 89
f 63 89 88
f 64 65 90
f 64 90 89
f 65 66 91
f 65 91 90
f 66 67 92
f 66 92 91
f 67 68 93
f 67 93 92
f 68 69 94
f 68 94 93
f 69 70 95
f 69 95 94
f 70 71 96
f 70 96 95
f 71 72 97
f 71 97 96
f 72 73 98
f 72 98 97
f 73 74 99
f 73 99 98
f 74 75 100
f 74 100 99
f 76 77 102
f 76 102 101
f 77 78 103
f 77 103 102
f 78 79 104
f 78 104 103
f 79 80 105
f 79 105 104
f 80 81 106
f 80 106 105
f 81 82 107
f 81 107 106
f 82 83 108
f 82 108 107
f 83 84 109
f 83 109 108
f 84 85 110
f 84 110 109
f 85 86 111
f 85 111 110
f 86 87 112
f 86 112 111
f 87 88 113
f 87 113 112
f 88 89 114
f 88 114 113
f 89 90 115
f 89 115 114
f 90 91 116
f 90 116 115
f 91 92 117
f 91 117 116
f 92 93 118
f 92 118 117
f 93 94 119
f 93 119 118
f 94 95 120
f 94 120 119
f 95 96 121
f 95 121 120
f 96 97 122
f 96 122 121
f 97 98 123
f 97 123 122
f 98 99 124
f 98 124 123
f 99 100 125
f 99 125 124
f 101 102 127
f 101 127 126
f 102 103 128
f 102 128 127
f 103 104 129
f 103 129 128
f 104 105 130
f 104 130 129
f 105 106 131
f 105 131 130
f 106 107 132
f 106 132 131
f 107 108 133
f 107 133 132
f 108 109 134
f 108 134 133
f 109 110 135
f 109 135 134
f 110 111 136
f 110 136 135
f 111 112 137
f 111 137 136
f 112 113 138
f 112 138 137
f 113 114 139
f 113 139 138
f 114 115 140
f 114 140 139
f 115 116 141
f 115 141 140
f 116 117 142
f 116 142 141
f 117 118 143
f 117 143 142
f 118 119 144
f 118 144 143
f 119 120 145
f 119 145 144
f 120 121 146
f 120 146 145
f 121 122 147
f 121 147 146
f 122 123 148
f 122 148 147
f 123 124 149
f 123 149 148
f 124 125 150
f 124 150 149
f 126 127 152
f 126 152 151
f 127 128 153
f 127 153 152
f 128 129 154
f 128 154 153
f 129 130 155
f 129 155 154
f 130 131 156
f 130 156 155
f 131 132 157
f 131 157 156
f 132 133 158
f 132 158 157
f 133 134 159
f 133 159 158
f 134 135 160
f 134 160 159
f 135 136 161
f 135 161 160
f 136 137 162
f 136 162 161
f 137 138 163
f 137 163 162
f 138 139 164
f 138 164 163
f 139 140 165
f 139 165 164
f 140 141 166
f 140 166 165
f 141 142 167
f 141 167 166
f 142 143 168
f 142 168 167
f 143 144 169
f 143 169 168
f 144 145 170
f 144 170 169
f 145 146 171
f 145 171 170
f 146 147 172
f 146 172 171
f 147 148 173
f 147 173 172
f 148 149 174
f 148 174 173
f 149 150 175
f 149 175 174
f 151 152 177
f 151 177 176
f 152 153 178
f 152 178 177
f 153 154 179
f 153 179 178
f 154 155 180
f 154 180 179
f 155 156 181
f 155 181 180
f 156 157 182
f 156 182 181
f 157 158 183
f 157 183 182
f 158 159 184
f 158 184 183
f 159 160 185
f 159 185 184
f 160 161 186
f 160 186 185
f 161 162 187
f 161 187 186
f 162 163 188
f 162 188 187
f 163 164 189
f 163 189 188
f 164 165 190
f 164 190 189
f 165 166 191
f 165 191 190
f 166 167 192
f 166 192 191
f 167 168 193
f 167 193 192
f 168 169 194
f 168 194 193
f 169 170 195
f 169 195 194
f 170 171 196
f 170 196 195
f 171 172 197
f 171 197 196
f 172 173 198
f 172 198 197
f 173 174 199
f 173 199 198
f 174 175 200
f 174 200 199
f 176 177 202
f 176 202 201
f 177 178 203
f 177 203 202
f 178 179 204
f 178 204 203
f 179 180 205
f 179 205 204
f 180 181 206
f 180 206 205
f 181 182 207
f 181 207 206
f 182 183 208
f 182 208 207
f 183 184 209
f 183 209 208
f 184 185 210
f 184 210 209
f 185 186 211
f 185 211 210
f 186 187 212
f 186 212 211
f 187 188 213
f 187 213 212
f 188 189 214
f 188 214 213
f 189 190 215
f 189 215 214
f 190 191 216
f 190 216 215
f 191 192 217
f 191 217 216
f 192 193 218
f 192 218 217
f 193 194 219
f 193 219 218
f 194 195 220
f 194 220 219
f 195 196 221
f 195 221 220
f 196 197 222
f 196 222 221
f 197 198 223
f 197 223 222
f 198 199 224
f 198 224 223
f 199 200 225
f 199 225 224
f 201 202 227
f 201 227 226
f 202 203 228
f 202 228 227
f 203 204 229
f 203 229 228
f 204 205 230
f 204 230 229
f 205 206 231
f 205 231 230
f 206 207 232
f 206 232 231
f 207 208 233
f 207 233 232
f 208 209 234
f 208 234 233
f 209 210 235
f 209 235 234
f 210 211 236
f 210 236 235
f 211 212 237
f 211 237 236
f 212 213 238
f 212 238 237
f 213 214 239
f 213 239 238
f 214 215 240
f 214 240 239
f 215 216 241
f 215 241 240
f 216 217 242
f 216 242 241
f 217 218 243
f 217 243 242
f 218 219 244
f 218 244 243
f 219 220 245
f 219 245 244
f 220 221 246
f 220 246 245
f 221 222 247
f 221 247 246
f 222 223 248
f 222 248 247
f 223 224 249
f 223 249 248
f 224 225 250
f 224 250 249
f 226 227 252
f 226 252 251
f 227 228 253
f 227 253 252
f 228 229 254
f 228 254 253
f 229 230 255
f 229 255 254
f 230 231 256
f 230 256 255
f 231 232 257
f 231 257 256
f 232 233 258
f 232 258 257
f 233 234 259
f 233 259 258
f 234 235 260
f 234 260 259
f 235 236 261
f 235 261 260
f 236 237 262
f 236 262 261
f 237 238 263
f 237 263 262
f 238 239 264
f 238 264 263
f 239 240 265
f 239 265 264
f 240 241 266
f 240 266 265
f 241 242 267
f 241 267 266
f 242 243 268
f 242 268 267
f 243 244 269
f 243 269 268
f 244 245 270
f 244 270 269
f 245 246 271
f 245 271 270
f 246 247 272
f 246 272 271
f 247 248 273
f 247 273 272
f 248 249 274
f 248 274 273
f 249 250 275
f 249 275 274
f 251 252 277
f 251 277 276
f 252 253 278
f 252 278 277
f 253 254 279
f 253 279 278
f 254 255 280
f 254 280 279
f 255 256 281
f 255 281 280
f 256 257 282
f 256 282 281
f 257 258 283
f 257 283 282
f 258 259 284
f 258 284 283
f 259 260 285
f 259 285 284
f 260 261 286
f 260 286 285
f 261 262 287
f 261 287 286
f 262 263 288
f 262 288 287
f 263 264 289
f 263 289 288
f 264 265 290
f 264 290 289
f 265 266 291
f 265 291 290
f 266 267 292
f 266 292 291
f 267 268 293
f 267 293 292
f 268 269 294
f 268 294 293
f 269 270 295
f 269 295 294
f 270 271 296
f 270 296 295
f 271 272 297
f 271 297 296
f 272 273 298
f 272 298 297
f 273 274 299
f 273 299 298
f 274 275 300
f 274 300 299
f 276 277 302
f 276 302 301
f 277 278 303
f 277 303 302
f 278 279 304
f 278 304 303
f 279 280 305
f 279 305 304
f 280 281 306
f 280 306 305
f 281 282 307
f 281 307 306
f 282 283 308
f 282 308 307
f 283 284 309
f 283 309 308
f 284 285 310
f 284 310 309
f 285 286 311
f 285 311 310
f 286 287 312
f 286 312 311
f 287 288 313
f 287 313 312
f 288 289 314
f 288 314 313
f 289 290 315
f 289 315 314
f 290 291 316
f 290 316 315
f 291 292 317
f 291 317 316
f 292 293 318
f 292 318 317
f 293 294 319
f 293 319 318
f 294 295 320
f 294 320 319
f 295 296 321
f 295 321 320
f 296 297 322
f 296 322 321
f 297 298 323
f 297 323 322
f 298 299 324
f 298 324 323
f 299 300 325
f 299 325 324
f 301 302 327
f 301 327 326
f 302 303 328
f 302 328 327
f 303 304 329
f 303 329 328
f 304 305 330
f 304 330 329
f 305 306 331
f 305 331 330
f 306 307 332
f 306 332 331
f 307 308 333
f 307 333 332
f 308 309 334
f 308 334 333
f 309 310 335
f 309 335 334
f 310 311 336
f 310 336 335
f 311 312 337
f 311 337 336
f 312 313 338
f 312 338 337
f 313 314 339
f 313 339 338
f 314 315 340
f 314 340 339
f 315 316 341
f 315 341 340
f 316 317 342
f 316 342 341
f 317 318 343
f 317 343 342
f 318 319 344
f 318 344 343
f 319 320 345
f 319 345 344
f 320 321 346
f 320 346 345
f 321 322 347
f 321 347 346
f 322 323 348
f 322 348 347
f 323 324 349
f 323 349 348
f 324 325 350
f 324 350 349
f 326 327 352
f 326 352 351
f 327 328 353
f 327 353 352
f 328 329 354
f 328 354 353
f 329 330 355
f 329 355 354
f 330 331 356
f 330 356 355
f 331 332 357
f 331 357 356
f 332 333 358
f 332 358 357
f 333 334 359
f 333 359 358
f 334 335 360
f 334 360 359
f 335 336 361
f 335 361 360
f 336 337 362
f 336 362 361
f 337 338 363
f 337 363 362
f 338 339 364
f 338 364 363
f 339 340 365
f 339 365 364
f 340 341 366
f 340 366 365
f 341 342 367
f 341 367 366
f 342 343 368
f 342 368 367
f 343 344 369
f 343 369 368
f 344 345 370
f 344 370 369
f 345 346 371
f 345 371 370
f 346 347 372
f 346 372 371
f 347 348 373
f 347 373 372
f 348 349 374
f 348 374 373
f 349 350 375
f 349 375 374
f 351 352 377
f 351 377 376
f 352 353 378
f 352 378 377
f 353 354 379
f 353 379 378
f 354 355 380
f 354 380 379
f 355 356 381
f 355 381 380
f 356 357 382
f 356 382 381
f 357 358 383
f 357 383 382
f 358 359 384
f 358 384 383
f 359 360 385
f 359 385 384
f 360 361 386
f 360 386 385
f 361 362 387
f 361 387 386
f 362 363 388
f 362 388 387
f 363 364 389
f 363 389 388
f 364 365 390
f 364 390 389
f 365 366 391
f 365 391 390
f 366 367 392
f 366 392 391
f 367 368 393
f 367 393 392
f 368 369 394
f 368 394 393
f 369 370 395
f 369 395 394
f 370 371 396
f 370 396 395
f 371 372 397
f 371 397 396
f 372 373 398
f 372 398 397
f 373 374 399
f 373 399 398
f 374 375 400
f 374 400 399
f 376 377 402
f 376 402 401
f 377 378 403
f 377 403 402
f 378 379 404
f 378 404 403
f 379 380 405
f 379 405 404
f 380 381 406
f 380 406 405
f 381 382 407
f 381 407 406
f 382 383 408
f 382 408 407
f 383 384 409
f 383 409 408
f 384 385 410
f 384 410 409
f 385 386 411
f 385 411 410
f 386 387 412
f 386 412 411
f 387 388 413
f 387 413 412
f 388 389 414
f 388 414 413
f 389 390 415
f 389 415 414
f 390 391 416
f 390 416 415
f 391 392 417
f 391 417 416
f 392 393 418
f 392 418 417
f 393 394 419
f 393 419 418
f 394 395 420
f 394 420 419
f 395 396 421
f 395 421 420
f 396 397 422
f 396 422 421
f 397 398 423
f 397 423 422
f 398 399 424
f 398 424 423
f 399 400 425
f 399 425 424
f 401 402 427
f 401 427 426
f 402 403 428
f 402 428 427
f 403 404 429
f 403 429 428
f 404 405 430
f 404 430 429
f 405 406 431
f 405 431 430
f 406 407 432
f 406 432 431
f 407 408 433
f 407 433 432
f 408 409 434
f 408 434 433
f 409 410 435
f 409 435 434
f 410 411 436
f 410 436 435
f 411 412 437
f 411 437 436
f 412 413 438
f 412 438 437
f 413 414 439
f 413 439 438
f 414 415 440
f 414 440 439
f 415 416 441
f 415 441 440
f 416 417 442
f 416 442 441
f 417 418 443
f 417 443 442
f 418 419 444
f 418 444 443
f 419 420 445
f 419 445 444
f 420 421 446
f 420 446 445
f 421 422 447
f 421 447 446
f 422 423 448
f 422 448 447
f 423 424 449
f 423 449 448
f 424 425 450
f 424 450 449
f 426 427 452
f 426 452 451
f 427 428 453
f 427 453 452
f 428 429 454
f 428 454 453
f 429 430 455
f 429 455 454
f 430 431 456
f 430 456 455
f 431 432 457
f 431 457 456
f 432 433 458
f 432 458 457
f 433 434 459
f 433 459 458
f 434 435 460
f 434 460 459
f 435 436 461
f 435 461 460
f 436 437 462
f 436 462 461
f 437 438 463
f 437 463 462
f 438 439 464
f 438 464 463
f 439 440 465
f 439 465 464
f 440 441 466
f 440 466 465
f 441 442 467
f 441 467 466
f 442 443 468
f 442 468 467
f 443 444 469
f 443 469 468
f 444 445 470
f 444 470 469
f 445 446 471
f 445 471 470
f 446 447 472
f 446 472 471
f 447 448 473
f 447 473 472
f 448 449 474
f 448 474 473
f 449 450 475
f 449 475 474
f 451 452 477
f 451 477 476
f 452 453 478
f 452 478 477
f 453 454 479
f 453 479 478
f 454 455 480
f 454 480 479
f 455 456 481
f 455 481 480
f 456 457 482
f 456 482 481
f 457 458 483
f 457 483 482
f 458 459 484
f 458 484 483
f 459 460 485
f 459 485 484
f 460 461 486
f 460 486 485
f 461 462 487
f 461 487 486
f 462 463 488
f 462 488 487
f 463 464 489
f 463 489 488
f 464 465 490
f 464 490 489
f 465 466 491
f 465 491 490
f 466 467 492
f 466 492 491
f 467 468 493
f 467 493 492
f 468 469 494
f 468 494 493
f 469 470 495
f 469 495 494
f 470 471 496
f 470 496 495
f 471 472 497
f 471 497 496
f 472 473 498
f 472 498 497
f 473 474 499
f 473 499 498
f 474 475 500
f 474 500 499
f 476 477 502
f 476 502 501
f 477 478 503
f 477 503 502
f 478 479 504
f 478 504 503
f 479 480 505
f 479 505 504
f 480 481 506
f 480 506 505
f 481 482 507
f 481 507 506
f 482 483 508
f 482 508 507
f 483 484 509
f 483 509 508
f 484 485 510
f 484 510 509
f 485 486 511
f 485 511 510
f 486 487 512
f 486 512 511
f 487 488 513
f 487 513 512
f 488 489 514
f 488 514 513
f 489 490 515
f 489 515 514
f 490 491 516
f 490 516 515
f 491 492 517
f 491 517 516
f 492 493 518
f 492 518 517
f 493 494 519
f 493 519 518
f 494 495 520
f 494 520 519
f 495 496 521
f 495 521 520
f 496 497 522
f 496 522 521
f 497 498 523
f 497 523 522
f 498 499 524
f 498 524 523
f 499 500 525
f 499 525 524
f 501 502 527
f 501 527 526
f 502 503 528
f 502 528 527
f 503 504 529
f 503 529 528
f 504 505 530
f 504 530 529
f 505 506 531
f 505 531 530
f 506 507 532
f 506 532 531
f 507 508 533
f 507 533 532
f 508 509 534
f 508 534 533
f 509 510 535
f 509 535 534
f 510 511 536
f 510 536 535
f 511 512 537
f 511 537 536
f 512 513 538
f 512 538 537
f 513 514 539
f 513 539 538
f 514 515 540
f 514 540 539
f 515 516 541
f 515 541 540
f 516 517 542
f 516 542 541
f 517 518 543
f 517 543 542
f 518 519 544
f 518 544 543
f 519 520 545
f 519 545 544
f 520 521 546
f 520 546 545
f 521 522 547
f 521 547 546
f 522 523 548
f 522 548 547
f 523 524 549
f 523 549 548
f 524 525 550
f 524 550 549
f 526 527 552
f 526 552 551
f 527 528 553
f 527 553 552
f 528 529 554
f 528 554 553
f 529 530 555
f 529 555 554
f 530 531 556
f 530 556 555
f 531 532 557
f 531 557 556
f 532 533 558
f 532 558 557
f 533 534 559
f 533 559 558
f 534 535 560
f 534 560 559
f 535 536 561
f 535 561 560
f 536 537 562
f 536 562 561
f 537 538 563
f 537 563 562
f 538 539 564
f 538 564 563
f 539 540 565
f 539 565 564
f 540 541 566
f 540 566 565
f 541 542 567
f 541 567 566
f 542 543 568
f 542 568 567
f 543 544 569
f 543 569 568
f 544 545 570
f 544 570 569
f 545 546 571
f 545 571 570
f 546 547 572
f 546 572 571
f 547 548 573
f 547 573 572
f 548 549 574
f 548 574 573
f 549 550 575
f 549 575 574
f 551 552 577
f 551 577 576
f 552 553 578
f 552 578 577
f 553 554 579
f 553 579 578
f 554 555 580
f 554 580 579
f 555 556 581
f 555 581 580
f 556 557 582
f 556 582 581
f 557 558 583
f 557 583 582
f 558 559 584
f 558 584 583
f 559 560 585
f 559 585 584
f 560 561 586
f 560 586 585
f 561 562 587
f 561 587 586
f 562 563 588
f 562 588 587
f 563 564 589
f 563 589 588
f 564 565 590
f 564 590 589
f 565 566 591
f 565 591 590
f 566 567 592
f 566 592 591
f 567 568 593
f 567 593 592
f 568 569 594
f 568 594 593
f 569 570 595
f 569 595 594
f 570 571 596
f 570 596 595
f 571 572 597
f 571 597 596
f 572 573 598
f 572 598 597
f 573 574 599
f 573 599 598
f 574 575 600
f 574 600 599
f 576 577 602
f 576 602 601
f 577 578 603
f 577 603 602
f 578 579 604
f 578 604 603
f 579 580 605
f 579 605 604
f 580 581 606
f 580 606 605
f 581 582 607
f 581 607 606
f 582 583 608
f 582 608 607
f 583 584 609
f 583 609 608
f 584 585 610
f 584 610 609
f 585 586 611
f 585 611 610
f 586 587 612
f 586 612 611
f 587 588 613
f 587 613 612
f 588 589 614
f 588 614 613
f 589 590 615
f 589 615 614
f 590 591 616
f 590 616 615
f 591 592 617
f 591 617 616
f 592 593 618
f 592 618 617
f 593 594 619
f 593 619 618
f 594 595 620
f 594 620 619
f 595 596 621
f 595 621 620
f 596 597 622
f 596 622 621
f 597 598 623
f 597 623 622
f 598 599 624
f 598 624 623
f 599 600 625
f 599 625 624
