o [4B] 3D Diagram - S2-04 Group G_144
v -192.025504 -192.025504 40482.055582
v -176.023379 -192.025504 38717.821262
v -160.021254 -192.025504 36953.586941
v -144.019128 -192.025504 35189.352620
v -128.017003 -192.025504 33425.118300
v -112.014878 -192.025504 31660.883979
v -96.012752 -192.025504 29896.649658
v -80.010627 -192.025504 28132.415338
v -64.008501 -192.025504 26368.181017
v -48.006376 -192.025504 24603.946697
v -32.004251 -192.025504 22839.712376
v -16.002125 -192.025504 21075.478055
v 0.000000 -192.025504 19311.243735
v 16.002125 -192.025504 17547.009414
v 32.004251 -192.025504 15782.775093
v 48.006376 -192.025504 14018.540773
v 64.008501 -192.025504 12254.306452
v 80.010627 -192.025504 10490.072131
v 96.012752 -192.025504 8725.837811
v 112.014878 -192.025504 6961.603490
v 128.017003 -192.025504 5197.369169
v 144.019128 -192.025504 3433.134849
v 160.021254 -192.025504 1668.900528
v 176.023379 -192.025504 -95.333793
v 192.025504 -192.025504 -1859.568113
v -192.025504 -176.023379 40158.012544
v -176.023379 -176.023379 38393.778223
v -160.021254 -176.023379 36629.543903
v -144.019128 -176.023379 34865.309582
v -128.017003 -176.023379 33101.075261
v -112.014878 -176.023379 31336.840941
v -96.012752 -176.023379 29572.606620
v -80.010627 -176.023379 27808.372299
v -64.008501 -176.023379 26044.137979
v -48.006376 -176.023379 24279.903658
v -32.004251 -176.023379 22515.669337
v -16.002125 -176.023379 20751.435017
v 0.000000 -176.023379 18987.200696
v 16.002125 -176.023379 17222.966375
v 32.004251 -176.023379 15458.732055
v 48.006376 -176.023379 13694.497734
v 64.008501 -176.023379 11930.263413
v 80.010627 -176.023379 10166.029093
v 96.012752 -176.023379 8401.794772
v 112.014878 -176.023379 6637.560452
v 128.017003 -176.023379 4873.326131
v 144.019128 -176.023379 3109.091810
v 160.021254 -176.023379 1344.857490
v 176.023379 -176.023379 -419.376831
v 192.025504 -176.023379 -2183.611152
v -192.025504 -160.021254 39833.969505
v -176.023379 -160.021254 38069.735185
v -160.021254 -160.021254 36305.500864
v -144.019128 -160.021254 34541.266543
v -128.017003 -160.021254 32777.032223
v -112.014878 -160.021254 31012.797902
v -96.012752 -160.021254 29248.563581
v -80.010627 -160.021254 27484.329261
v -64.008501 -160.021254 25720.094940
v -48.006376 -160.021254 23955.860620
v -32.004251 -160.021254 22191.626299
v -16.002125 -160.021254 20427.391978
v 0.000000 -160.021254 18663.157658
v 16.002125 -160.021254 16898.923337
v 32.004251 -160.021254 15134.689016
v 48.006376 -160.021254 13370.454696
v 64.008501 -160.021254 11606.220375
v 80.010627 -160.021254 9841.986054
v 96.012752 -160.021254 8077.751734
v 112.014878 -160.021254 6313.517413
v 128.017003 -160.021254 4549.283092
v 144.019128 -160.021254 2785.048772
v 160.021254 -160.021254 1020.814451
v 176.023379 -160.021254 -743.419870
v 192.025504 -160.021254 -2507.654190
v -192.025504 -144.019128 39509.926467
v -176.023379 -144.019128 37745.692146
v -160.021254 -144.019128 35981.457826
v -144.019128 -144.019128 34217.223505
v -128.017003 -144.019128 32452.989184
v -112.014878 -144.019128 30688.754864
v -96.012752 -144.019128 28924.520543
v -80.010627 -144.019128 27160.286222
v -64.008501 -144.019128 25396.051902
v -48.006376 -144.019128 23631.817581
v -32.004251 -144.019128 21867.583260
v -16.002125 -144.019128 20103.348940
v 0.000000 -144.019128 18339.114619
v 16.002125 -144.019128 16574.880298
v 32.004251 -144.019128 14810.645978
v 48.006376 -144.019128 13046.411657
v 64.008501 -144.019128 11282.177337
v 80.010627 -144.019128 9517.943016
v 96.012752 -144.019128 7753.708695
v 112.014878 -144.019128 5989.474375
v 128.017003 -144.019128 4225.240054
v 144.019128 -144.019128 2461.005733
v 160.021254 -144.019128 696.771413
v 176.023379 -144.019128 -1067.462908
v 192.025504 -144.019128 -2831.697229
v -192.025504 -128.017003 39185.883428
v -176.023379 -128.017003 37421.649108
v -160.021254 -128.017003 35657.414787
v -144.019128 -128.017003 33893.180466
v -128.017003 -128.017003 32128.946146
v -112.014878 -128.017003 30364.711825
v -96.012752 -128.017003 28600.477505
v -80.010627 -128.017003 26836.243184
v -64.008501 -128.017003 25072.008863
v -48.006376 -128.017003 23307.774543
v -32.004251 -128.017003 21543.540222
v -16.002125 -128.017003 19779.305901
v 0.000000 -128.017003 18015.071581
v 16.002125 -128.017003 16250.837260
v 32.004251 -128.017003 14486.602939
v 48.006376 -128.017003 12722.368619
v 64.008501 -128.017003 10958.134298
v 80.010627 -128.017003 9193.899977
v 96.012752 -128.017003 7429.665657
v 112.014878 -128.017003 5665.431336
v 128.017003 -128.017003 3901.197015
v 144.019128 -128.017003 2136.962695
v 160.021254 -128.017003 372.728374
v 176.023379 -128.017003 -1391.505947
v 192.025504 -128.017003 -3155.740267
v -192.025504 -112.014878 38861.840390
v -176.023379 -112.014878 37097.606069
v -160.021254 -112.014878 35333.371749
v -144.019128 -112.014878 33569.137428
v -128.017003 -112.014878 31804.903107
v -112.014878 -112.014878 30040.668787
v -96.012752 -112.014878 28276.434466
v -80.010627 -112.014878 26512.200145
v -64.008501 -112.014878 24747.965825
v -48.006376 -112.014878 22983.731504
v -32.004251 -112.014878 21219.497183
v -16.002125 -112.014878 19455.262863
v 0.000000 -112.014878 17691.028542
v 16.002125 -112.014878 15926.794221
v 32.004251 -112.014878 14162.559901
v 48.006376 -112.014878 12398.325580
v 64.008501 -112.014878 10634.091260
v 80.010627 -112.014878 8869.856939
v 96.012752 -112.014878 7105.622618
v 112.014878 -112.014878 5341.388298
v 128.017003 -112.014878 3577.153977
v 144.019128 -112.014878 1812.919656
v 160.021254 -112.014878 48.685336
v 176.023379 -112.014878 -1715.548985
v 192.025504 -112.014878 -3479.783306
v -192.025504 -96.012752 38537.797351
v -176.023379 -96.012752 36773.563031
v -160.021254 -96.012752 35009.328710
v -144.019128 -96.012752 33245.094389
v -128.017003 -96.012752 31480.860069
v -112.014878 -96.012752 29716.625748
v -96.012752 -96.012752 27952.391428
v -80.010627 -96.012752 26188.157107
v -64.008501 -96.012752 24423.922786
v -48.006376 -96.012752 22659.688466
v -32.004251 -96.012752 20895.454145
v -16.002125 -96.012752 19131.219824
v 0.000000 -96.012752 17366.985504
v 16.002125 -96.012752 15602.751183
v 32.004251 -96.012752 13838.516862
v 48.006376 -96.012752 12074.282542
v 64.008501 -96.012752 10310.048221
v 80.010627 -96.012752 8545.813900
v 96.012752 -96.012752 6781.579580
v 112.014878 -96.012752 5017.345259
v 128.017003 -96.012752 3253.110938
v 144.019128 -96.012752 1488.876618
v 160.021254 -96.012752 -275.357703
v 176.023379 -96.012752 -2039.592023
v 192.025504 -96.012752 -3803.826344
v -192.025504 -80.010627 38213.754313
v -176.023379 -80.010627 36449.519992
v -160.021254 -80.010627 34685.285672
v -144.019128 -80.010627 32921.051351
v -128.017003 -80.010627 31156.817030
v -112.014878 -80.010627 29392.582710
v -96.012752 -80.010627 27628.348389
v -80.010627 -80.010627 25864.114068
v -64.008501 -80.010627 24099.879748
v -48.006376 -80.010627 22335.645427
v -32.004251 -80.010627 20571.411106
v -16.002125 -80.010627 18807.176786
v 0.000000 -80.010627 17042.942465
v 16.002125 -80.010627 15278.708145
v 32.004251 -80.010627 13514.473824
v 48.006376 -80.010627 11750.239503
v 64.008501 -80.010627 9986.005183
v 80.010627 -80.010627 8221.770862
v 96.012752 -80.010627 6457.536541
v 112.014878 -80.010627 4693.302221
v 128.017003 -80.010627 2929.067900
v 144.019128 -80.010627 1164.833579
v 160.021254 -80.010627 -599.400741
v 176.023379 -80.010627 -2363.635062
v 192.025504 -80.010627 -4127.869383
v -192.025504 -64.008501 37889.711274
v -176.023379 -64.008501 36125.476954
v -160.021254 -64.008501 34361.242633
v -144.019128 -64.008501 32597.008313
v -128.017003 -64.008501 30832.773992
v -112.014878 -64.008501 29068.539671
v -96.012752 -64.008501 27304.305351
v -80.010627 -64.008501 25540.071030
v -64.008501 -64.008501 23775.836709
v -48.006376 -64.008501 22011.602389
v -32.004251 -64.008501 20247.368068
v -16.002125 -64.008501 18483.133747
v 0.000000 -64.008501 16718.899427
v 16.002125 -64.008501 14954.665106
v 32.004251 -64.008501 13190.430785
v 48.006376 -64.008501 11426.196465
v 64.008501 -64.008501 9661.962144
v 80.010627 -64.008501 7897.727823
v 96.012752 -64.008501 6133.493503
v 112.014878 -64.008501 4369.259182
v 128.017003 -64.008501 2605.024861
v 144.019128 -64.008501 840.790541
v 160.021254 -64.008501 -923.443780
v 176.023379 -64.008501 -2687.678100
v 192.025504 -64.008501 -4451.912421
v -192.025504 -48.006376 37565.668236
v -176.023379 -48.006376 35801.433915
v -160.021254 -48.006376 34037.199595
v -144.019128 -48.006376 32272.965274
v -128.017003 -48.006376 30508.730953
v -112.014878 -48.006376 28744.496633
v -96.012752 -48.006376 26980.262312
v -80.010627 -48.006376 25216.027991
v -64.008501 -48.006376 23451.793671
v -48.006376 -48.006376 21687.559350
v -32.004251 -48.006376 19923.325029
v -16.002125 -48.006376 18159.090709
v 0.000000 -48.006376 16394.856388
v 16.002125 -48.006376 14630.622068
v 32.004251 -48.006376 12866.387747
v 48.006376 -48.006376 11102.153426
v 64.008501 -48.006376 9337.919106
v 80.010627 -48.006376 7573.684785
v 96.012752 -48.006376 5809.450464
v 112.014878 -48.006376 4045.216144
v 128.017003 -48.006376 2280.981823
v 144.019128 -48.006376 516.747502
v 160.021254 -48.006376 -1247.486818
v 176.023379 -48.006376 -3011.721139
v 192.025504 -48.006376 -4775.955460
v -192.025504 -32.004251 37241.625197
v -176.023379 -32.004251 35477.390877
v -160.021254 -32.004251 33713.156556
v -144.019128 -32.004251 31948.922236
v -128.017003 -32.004251 30184.687915
v -112.014878 -32.004251 28420.453594
v -96.012752 -32.004251 26656.219274
v -80.010627 -32.004251 24891.984953
v -64.008501 -32.004251 23127.750632
v -48.006376 -32.004251 21363.516312
v -32.004251 -32.004251 19599.281991
v -16.002125 -32.004251 17835.047670
v 0.000000 -32.004251 16070.813350
v 16.002125 -32.004251 14306.579029
v 32.004251 -32.004251 12542.344708
v 48.006376 -32.004251 10778.110388
v 64.008501 -32.004251 9013.876067
v 80.010627 -32.004251 7249.641746
v 96.012752 -32.004251 5485.407426
v 112.014878 -32.004251 3721.173105
v 128.017003 -32.004251 1956.938785
v 144.019128 -32.004251 192.704464
v 160.021254 -32.004251 -1571.529857
v 176.023379 -32.004251 -3335.764177
v 192.025504 -32.004251 -5099.998498
v -192.025504 -16.002125 36917.582159
v -176.023379 -16.002125 35153.347838
v -160.021254 -16.002125 33389.113518
v -144.019128 -16.002125 31624.879197
v -128.017003 -16.002125 29860.644876
v -112.014878 -16.002125 28096.410556
v -96.012752 -16.002125 26332.176235
v -80.010627 -16.002125 24567.941914
v -64.008501 -16.002125 22803.707594
v -48.006376 -16.002125 21039.473273
v -32.004251 -16.002125 19275.238953
v -16.002125 -16.002125 17511.004632
v 0.000000 -16.002125 15746.770311
v 16.002125 -16.002125 13982.535991
v 32.004251 -16.002125 12218.301670
v 48.006376 -16.002125 10454.067349
v 64.008501 -16.002125 8689.833029
v 80.010627 -16.002125 6925.598708
v 96.012752 -16.002125 5161.364387
v 112.014878 -16.002125 3397.130067
v 128.017003 -16.002125 1632.895746
v 144.019128 -16.002125 -131.338575
v 160.021254 -16.002125 -1895.572895
v 176.023379 -16.002125 -3659.807216
v 192.025504 -16.002125 -5424.041537
v -192.025504 0.000000 36593.539121
v -176.023379 0.000000 34829.304800
v -160.021254 0.000000 33065.070479
v -144.019128 0.000000 31300.836159
v -128.017003 0.000000 29536.601838
v -112.014878 0.000000 27772.367517
v -96.012752 0.000000 26008.133197
v -80.010627 0.000000 24243.898876
v -64.008501 0.000000 22479.664555
v -48.006376 0.000000 20715.430235
v -32.004251 0.000000 18951.195914
v -16.002125 0.000000 17186.961593
v 0.000000 0.000000 15422.727273
v 16.002125 0.000000 13658.492952
v 32.004251 0.000000 11894.258631
v 48.006376 0.000000 10130.024311
v 64.008501 0.000000 8365.789990
v 80.010627 0.000000 6601.555669
v 96.012752 0.000000 4837.321349
v 112.014878 0.000000 3073.087028
v 128.017003 0.000000 1308.852708
v 144.019128 0.000000 -455.381613
v 160.021254 0.000000 -2219.615934
v 176.023379 0.000000 -3983.850254
v 192.025504 0.000000 -5748.084575
v -192.025504 16.002125 36269.496082
v -176.023379 16.002125 34505.261761
v -160.021254 16.002125 32741.027441
v -144.019128 16.002125 30976.793120
v -128.017003 16.002125 29212.558799
v -112.014878 16.002125 27448.324479
v -96.012752 16.002125 25684.090158
v -80.010627 16.002125 23919.855837
v -64.008501 16.002125 22155.621517
v -48.006376 16.002125 20391.387196
v -32.004251 16.002125 18627.152876
v -16.002125 16.002125 16862.918555
v 0.000000 16.002125 15098.684234
v 16.002125 16.002125 13334.449914
v 32.004251 16.002125 11570.215593
v 48.006376 16.002125 9805.981272
v 64.008501 16.002125 8041.746952
v 80.010627 16.002125 6277.512631
v 96.012752 16.002125 4513.278310
v 112.014878 16.002125 2749.043990
v 128.017003 16.002125 984.809669
v 144.019128 16.002125 -779.424652
v 160.021254 16.002125 -2543.658972
v 176.023379 16.002125 -4307.893293
v 192.025504 16.002125 -6072.127614
v -192.025504 32.004251 35945.453044
v -176.023379 32.004251 34181.218723
v -160.021254 32.004251 32416.984402
v -144.019128 32.004251 30652.750082
v -128.017003 32.004251 28888.515761
v -112.014878 32.004251 27124.281440
v -96.012752 32.004251 25360.047120
v -80.010627 32.004251 23595.812799
v -64.008501 32.004251 21831.578478
v -48.006376 32.004251 20067.344158
v -32.004251 32.004251 18303.109837
v -16.002125 32.004251 16538.875516
v 0.000000 32.004251 14774.641196
v 16.002125 32.004251 13010.406875
v 32.004251 32.004251 11246.172554
v 48.006376 32.004251 9481.938234
v 64.008501 32.004251 7717.703913
v 80.010627 32.004251 5953.469593
v 96.012752 32.004251 4189.235272
v 112.014878 32.004251 2425.000951
v 128.017003 32.004251 660.766631
v 144.019128 32.004251 -1103.467690
v 160.021254 32.004251 -2867.702011
v 176.023379 32.004251 -4631.936331
v 192.025504 32.004251 -6396.170652
v -192.025504 48.006376 35621.410005
v -176.023379 48.006376 33857.175684
v -160.021254 48.006376 32092.941364
v -144.019128 48.006376 30328.707043
v -128.017003 48.006376 28564.472722
v -112.014878 48.006376 26800.238402
v -96.012752 48.006376 25036.004081
v -80.010627 48.006376 23271.769761
v -64.008501 48.006376 21507.535440
v -48.006376 48.006376 19743.301119
v -32.004251 48.006376 17979.066799
v -16.002125 48.006376 16214.832478
v 0.000000 48.006376 14450.598157
v 16.002125 48.006376 12686.363837
v 32.004251 48.006376 10922.129516
v 48.006376 48.006376 9157.895195
v 64.008501 48.006376 7393.660875
v 80.010627 48.006376 5629.426554
v 96.012752 48.006376 3865.192233
v 112.014878 48.006376 2100.957913
v 128.017003 48.006376 336.723592
v 144.019128 48.006376 -1427.510729
v 160.021254 48.006376 -3191.745049
v 176.023379 48.006376 -4955.979370
v 192.025504 48.006376 -6720.213691
v -192.025504 64.008501 35297.366967
v -176.023379 64.008501 33533.132646
v -160.021254 64.008501 31768.898325
v -144.019128 64.008501 30004.664005
v -128.017003 64.008501 28240.429684
v -112.014878 64.008501 26476.195363
v -96.012752 64.008501 24711.961043
v -80.010627 64.008501 22947.726722
v -64.008501 64.008501 21183.492401
v -48.006376 64.008501 19419.258081
v -32.004251 64.008501 17655.023760
v -16.002125 64.008501 15890.789439
v 0.000000 64.008501 14126.555119
v 16.002125 64.008501 12362.320798
v 32.004251 64.008501 10598.086477
v 48.006376 64.008501 8833.852157
v 64.008501 64.008501 7069.617836
v 80.010627 64.008501 5305.383516
v 96.012752 64.008501 3541.149195
v 112.014878 64.008501 1776.914874
v 128.017003 64.008501 12.680554
v 144.019128 64.008501 -1751.553767
v 160.021254 64.008501 -3515.788088
v 176.023379 64.008501 -5280.022408
v 192.025504 64.008501 -7044.256729
v -192.025504 80.010627 34973.323928
v -176.023379 80.010627 33209.089607
v -160.021254 80.010627 31444.855287
v -144.019128 80.010627 29680.620966
v -128.017003 80.010627 27916.386645
v -112.014878 80.010627 26152.152325
v -96.012752 80.010627 24387.918004
v -80.010627 80.010627 22623.683684
v -64.008501 80.010627 20859.449363
v -48.006376 80.010627 19095.215042
v -32.004251 80.010627 17330.980722
v -16.002125 80.010627 15566.746401
v 0.000000 80.010627 13802.512080
v 16.002125 80.010627 12038.277760
v 32.004251 80.010627 10274.043439
v 48.006376 80.010627 8509.809118
v 64.008501 80.010627 6745.574798
v 80.010627 80.010627 4981.340477
v 96.012752 80.010627 3217.106156
v 112.014878 80.010627 1452.871836
v 128.017003 80.010627 -311.362485
v 144.019128 80.010627 -2075.596806
v 160.021254 80.010627 -3839.831126
v 176.023379 80.010627 -5604.065447
v 192.025504 80.010627 -7368.299767
v -192.025504 96.012752 34649.280890
v -176.023379 96.012752 32885.046569
v -160.021254 96.012752 31120.812248
v -144.019128 96.012752 29356.577928
v -128.017003 96.012752 27592.343607
v -112.014878 96.012752 25828.109286
v -96.012752 96.012752 24063.874966
v -80.010627 96.012752 22299.640645
v -64.008501 96.012752 20535.406324
v -48.006376 96.012752 18771.172004
v -32.004251 96.012752 17006.937683
v -16.002125 96.012752 15242.703362
v 0.000000 96.012752 13478.469042
v 16.002125 96.012752 11714.234721
v 32.004251 96.012752 9950.000401
v 48.006376 96.012752 8185.766080
v 64.008501 96.012752 6421.531759
v 80.010627 96.012752 4657.297439
v 96.012752 96.012752 2893.063118
v 112.014878 96.012752 1128.828797
v 128.017003 96.012752 -635.405523
v 144.019128 96.012752 -2399.639844
v 160.021254 96.012752 -4163.874165
v 176.023379 96.012752 -5928.108485
v 192.025504 96.012752 -7692.342806
v -192.025504 112.014878 34325.237851
v -176.023379 112.014878 32561.003530
v -160.021254 112.014878 30796.769210
v -144.019128 112.014878 29032.534889
v -128.017003 112.014878 27268.300569
v -112.014878 112.014878 25504.066248
v -96.012752 112.014878 23739.831927
v -80.010627 112.014878 21975.597607
v -64.008501 112.014878 20211.363286
v -48.006376 112.014878 18447.128965
v -32.004251 112.014878 16682.894645
v -16.002125 112.014878 14918.660324
v 0.000000 112.014878 13154.426003
v 16.002125 112.014878 11390.191683
v 32.004251 112.014878 9625.957362
v 48.006376 112.014878 7861.723041
v 64.008501 112.014878 6097.488721
v 80.010627 112.014878 4333.254400
v 96.012752 112.014878 2569.020079
v 112.014878 112.014878 804.785759
v 128.017003 112.014878 -959.448562
v 144.019128 112.014878 -2723.682883
v 160.021254 112.014878 -4487.917203
v 176.023379 112.014878 -6252.151524
v 192.025504 112.014878 -8016.385844
v -192.025504 128.017003 34001.194813
v -176.023379 128.017003 32236.960492
v -160.021254 128.017003 30472.726171
v -144.019128 128.017003 28708.491851
v -128.017003 128.017003 26944.257530
v -112.014878 128.017003 25180.023209
v -96.012752 128.017003 23415.788889
v -80.010627 128.017003 21651.554568
v -64.008501 128.017003 19887.320247
v -48.006376 128.017003 18123.085927
v -32.004251 128.017003 16358.851606
v -16.002125 128.017003 14594.617285
v 0.000000 128.017003 12830.382965
v 16.002125 128.017003 11066.148644
v 32.004251 128.017003 9301.914324
v 48.006376 128.017003 7537.680003
v 64.008501 128.017003 5773.445682
v 80.010627 128.017003 4009.211362
v 96.012752 128.017003 2244.977041
v 112.014878 128.017003 480.742720
v 128.017003 128.017003 -1283.491600
v 144.019128 128.017003 -3047.725921
v 160.021254 128.017003 -4811.960242
v 176.023379 128.017003 -6576.194562
v 192.025504 128.017003 -8340.428883
v -192.025504 144.019128 33677.151774
v -176.023379 144.019128 31912.917453
v -160.021254 144.019128 30148.683133
v -144.019128 144.019128 28384.448812
v -128.017003 144.019128 26620.214492
v -112.014878 144.019128 24855.980171
v -96.012752 144.019128 23091.745850
v -80.010627 144.019128 21327.511530
v -64.008501 144.019128 19563.277209
v -48.006376 144.019128 17799.042888
v -32.004251 144.019128 16034.808568
v -16.002125 144.019128 14270.574247
v 0.000000 144.019128 12506.339926
v 16.002125 144.019128 10742.105606
v 32.004251 144.019128 8977.871285
v 48.006376 144.019128 7213.636964
v 64.008501 144.019128 5449.402644
v 80.010627 144.019128 3685.168323
v 96.012752 144.019128 1920.934002
v 112.014878 144.019128 156.699682
v 128.017003 144.019128 -1607.534639
v 144.019128 144.019128 -3371.768959
v 160.021254 144.019128 -5136.003280
v 176.023379 144.019128 -6900.237601
v 192.025504 144.019128 -8664.471921
v -192.025504 160.021254 33353.108736
v -176.023379 160.021254 31588.874415
v -160.021254 160.021254 29824.640094
v -144.019128 160.021254 28060.405774
v -128.017003 160.021254 26296.171453
v -112.014878 160.021254 24531.937132
v -96.012752 160.021254 22767.702812
v -80.010627 160.021254 21003.468491
v -64.008501 160.021254 19239.234170
v -48.006376 160.021254 17474.999850
v -32.004251 160.021254 15710.765529
v -16.002125 160.021254 13946.531209
v 0.000000 160.021254 12182.296888
v 16.002125 160.021254 10418.062567
v 32.004251 160.021254 8653.828247
v 48.006376 160.021254 6889.593926
v 64.008501 160.021254 5125.359605
v 80.010627 160.021254 3361.125285
v 96.012752 160.021254 1596.890964
v 112.014878 160.021254 -167.343357
v 128.017003 160.021254 -1931.577677
v 144.019128 160.021254 -3695.811998
v 160.021254 160.021254 -5460.046319
v 176.023379 160.021254 -7224.280639
v 192.025504 160.021254 -8988.514960
v -192.025504 176.023379 33029.065697
v -176.023379 176.023379 31264.831377
v -160.021254 176.023379 29500.597056
v -144.019128 176.023379 27736.362735
v -128.017003 176.023379 25972.128415
v -112.014878 176.023379 24207.894094
v -96.012752 176.023379 22443.659773
v -80.010627 176.023379 20679.425453
v -64.008501 176.023379 18915.191132
v -48.006376 176.023379 17150.956811
v -32.004251 176.023379 15386.722491
v -16.002125 176.023379 13622.488170
v 0.000000 176.023379 11858.253849
v 16.002125 176.023379 10094.019529
v 32.004251 176.023379 8329.785208
v 48.006376 176.023379 6565.550887
v 64.008501 176.023379 4801.316567
v 80.010627 176.023379 3037.082246
v 96.012752 176.023379 1272.847925
v 112.014878 176.023379 -491.386395
v 128.017003 176.023379 -2255.620716
v 144.019128 176.023379 -4019.855036
v 160.021254 176.023379 -5784.089357
v 176.023379 176.023379 -7548.323678
v 192.025504 176.023379 -9312.557998
v -192.025504 192.025504 32705.022659
v -176.023379 192.025504 30940.788338
v -160.021254 192.025504 29176.554017
v -144.019128 192.025504 27412.319697
v -128.017003 192.025504 25648.085376
v -112.014878 192.025504 23883.851055
v -96.012752 192.025504 22119.616735
v -80.010627 192.025504 20355.382414
v -64.008501 192.025504 18591.148093
v -48.006376 192.025504 16826.913773
v -32.004251 192.025504 15062.679452
v -16.002125 192.025504 13298.445132
v 0.000000 192.025504 11534.210811
v 16.002125 192.025504 9769.976490
v 32.004251 192.025504 8005.742170
v 48.006376 192.025504 6241.507849
v 64.008501 192.025504 4477.273528
v 80.010627 192.025504 2713.039208
v 96.012752 192.025504 948.804887
v 112.014878 192.025504 -815.429434
v 128.017003 192.025504 -2579.663754
v 144.019128 192.025504 -4343.898075
v 160.021254 192.025504 -6108.132396
v 176.023379 192.025504 -7872.366716
v 192.025504 192.025504 -9636.601037
f 1 2 27
f 1 27 26
f 2 3 28
f 2 28 27
f 3 4 29
f 3 29 28
f 4 5 30
f 4 30 29
f 5 6 31
f 5 31 30
f 6 7 32
f 6 32 31
f 7 8 33
f 7 33 32
f 8 9 34
f 8 34 33
f 9 10 35
f 9 35 34
f 10 11 36
f 10 36 35
f 11 12 37
f 11 37 36
f 12 13 38
f 12 38 37
f 13 14 39
f 13 39 38
f 14 15 40
f 14 40 39
f 15 16 41
f 15 41 40
f 16 17 42
f 16 42 41
f 17 18 43
f 17 43 42
f 18 19 44
f 18 44 43
f 19 20 45
f 19 45 44
f 20 21 46
f 20 46 45
f 21 22 47
f 21 47 46
f 22 23 48
f 22 48 47
f 23 24 49
f 23 49 48
f 24 25 50
f 24 50 49
f 26 27 52
f 26 52 51
f 27 28 53
f 27 53 52
f 28 29 54
f 28 54 53
f 29 30 55
f 29 55 54
f 30 31 56
f 30 56 55
f 31 32 57
f 31 57 56
f 32 33 58
f 32 58 57
f 33 34 59
f 33 59 58
f 34 35 60
f 34 60 59
f 35 36 61
f 35 61 60
f 36 37 62
f 36 62 61
f 37 38 63
f 37 63 62
f 38 39 64
f 38 64 63
f 39 40 65
f 39 65 64
f 40 41 66
f 40 66 65
f 41 42 67
f 41 67 66
f 42 43 68
f 42 68 67
f 43 44 69
f 43 69 68
f 44 45 70
f 44 70 69
f 45 46 71
f 45 71 70
f 46 47 72
f 46 72 71
f 47 48 73
f 47 73 72
f 48 49 74
f 48 74 73
f 49 50 75
f 49 75 74
f 51 52 77
f 51 77 76
f 52 53 78
f 52 78 77
f 53 54 79
f 53 79 78
f 54 55 80
f 54 80 79
f 55 56 81
f 55 81 80
f 56 57 82
f 56 82 81
f 57 58 83
f 57 83 82
f 58 59 84
f 58 84 83
f 59 60 85
f 59 85 84
f 60 61 86
f 60 86 85
f 61 62 87
f 61 87 86
f 62 63 88
f 62 88 87
f 63 64 89
f 63 89 88
f 64 65 90
f 64 90 89
f 65 66 91
f 65 91 90
f 66 67 92
f 66 92 91
f 67 68 93
f 67 93 92
f 68 69 94
f 68 94 93
f 69 70 95
f 69 95 94
f 70 71 96
f 70 96 95
f 71 72 97
f 71 97 96
f 72 73 98
f 72 98 97
f 73 74 99
f 73 99 98
f 74 75 100
f 74 100 99
f 76 77 102
f 76 102 101
f 77 78 103
f 77 103 102
f 78 79 104
f 78 104 103
f 79 80 105
f 79 105 104
f 80 81 106
f 80 106 105
f 81 82 107
f 81 107 106
f 82 83 108
f 82 108 107
f 83 84 109
f 83 109 108
f 84 85 110
f 84 110 109
f 85 86 111
f 85 111 110
f 86 87 112
f 86 112 111
f 87 88 113
f 87 113 112
f 88 89 114
f 88 114 113
f 89 90 115
f 89 115 114
f 90 91 116
f 90 116 115
f 91 92 117
f 91 117 116
f 92 93 118
f 92 118 117
f 93 94 119
f 93 119 118
f 94 95 120
f 94 120 119
f 95 96 121
f 95 121 120
f 96 97 122
f 96 122 121
f 97 98 123
f 97 123 122
f 98 99 124
f 98 124 123
f 99 100 125
f 99 125 124
f 101 102 127
f 101 127 126
f 102 103 128
f 102 128 127
f 103 104 129
f 103 129 128
f 104 105 130
f 104 130 129
f 105 106 131
f 105 131 130
f 106 107 132
f 106 132 131
f 107 108 133
f 107 133 132
f 108 109 134
f 108 134 133
f 109 110 135
f 109 135 134
f 110 111 136
f 110 136 135
f 111 112 137
f 111 137 136
f 112 113 138
f 112 138 137
f 113 114 139
f 113 139 138
f 114 115 140
f 114 140 139
f 115 116 141
f 115 141 140
f 116 117 142
f 116 142 141
f 117 118 143
f 117 143 142
f 118 119 144
f 118 144 143
f 119 120 145
f 119 145 144
f 120 121 146
f 120 146 145
f 121 122 147
f 121 147 146
f 122 123 148
f 122 148 147
f 123 124 149
f 123 149 148
f 124 125 150
f 124 150 149
f 126 127 152
f 126 152 151
f 127 128 153
f 127 153 152
f 128 129 154
f 128 154 153
f 129 130 155
f 129 155 154
f 130 131 156
f 130 156 155
f 131 132 157
f 131 157 156
f 132 133 158
f 132 158 157
f 133 134 159
f 133 159 158
f 134 135 160
f 134 160 159
f 135 136 161
f 135 161 160
f 136 137 162
f 136 162 161
f 137 138 163
f 137 163 162
f 138 139 164
f 138 164 163
f 139 140 165
f 139 165 164
f 140 141 166
f 140 166 165
f 141 142 167
f 141 167 166
f 142 143 168
f 142 168 167
f 143 144 169
f 143 169 168
f 144 145 170
f 144 170 169
f 145 146 171
f 145 171 170
f 146 147 172
f 146 172 171
f 147 148 173
f 147 173 172
f 148 149 174
f 148 174 173
f 149 150 175
f 149 175 174
f 151 152 177
f 151 177 176
f 152 153 178
f 152 178 177
f 153 154 179
f 153 179 178
f 154 155 180
f 154 180 179
f 155 156 181
f 155 181 180
f 156 157 182
f 156 182 181
f 157 158 183
f 157 183 182
f 158 159 184
f 158 184 183
f 159 160 185
f 159 185 184
f 160 161 186
f 160 186 185
f 161 162 187
f 161 187 186
f 162 163 188
f 162 188 187
f 163 164 189
f 163 189 188
f 164 165 190
f 164 190 189
f 165 166 191
f 165 191 190
f 166 167 192
f 166 192 191
f 167 168 193
f 167 193 192
f 168 169 194
f 168 194 193
f 169 170 195
f 169 195 194
f 170 171 196
f 170 196 195
f 171 172 197
f 171 197 196
f 172 173 198
f 172 198 197
f 173 174 199
f 173 199 198
f 174 175 200
f 174 200 199
f 176 177 202
f 176 202 201
f 177 178 203
f 177 203 202
f 178 179 204
f 178 204 203
f 179 180 205
f 179 205 204
f 180 181 206
f 180 206 205
f 181 182 207
f 181 207 206
f 182 183 208
f 182 208 207
f 183 184 209
f 183 209 208
f 184 185 210
f 184 210 209
f 185 186 211
f 185 211 210
f 186 187 212
f 186 212 211
f 187 188 213
f 187 213 212
f 188 189 214
f 188 214 213
f 189 190 215
f 189 215 214
f 190 191 216
f 190 216 215
f 191 192 217
f 191 217 216
f 192 193 218
f 192 218 217
f 193 194 219
f 193 219 218
f 194 195 220
f 194 220 219
f 195 196 221
f 195 221 220
f 196 197 222
f 196 222 221
f 197 198 223
f 197 223 222
f 198 199 224
f 198 224 223
f 199 200 225
f 199 225 224
f 201 202 227
f 201 227 226
f 202 203 228
f 202 228 227
f 203 204 229
f 203 229 228
f 204 205 230
f 204 230 229
f 205 206 231
f 205 231 230
f 206 207 232
f 206 232 231
f 207 208 233
f 207 233 232
f 208 209 234
f 208 234 233
f 209 210 235
f 209 235 234
f 210 211 236
f 210 236 235
f 211 212 237
f 211 237 236
f 212 213 238
f 212 238 237
f 213 214 239
f 213 239 238
f 214 215 240
f 214 240 239
f 215 216 241
f 215 241 240
f 216 217 242
f 216 242 241
f 217 218 243
f 217 243 242
f 218 219 244
f 218 244 243
f 219 220 245
f 219 245 244
f 220 221 246
f 220 246 245
f 221 222 247
f 221 247 246
f 222 223 248
f 222 248 247
f 223 224 249
f 223 249 248
f 224 225 250
f 224 250 249
f 226 227 252
f 226 252 251
f 227 228 253
f 227 253 252
f 228 229 254
f 228 254 253
f 229 230 255
f 229 255 254
f 230 231 256
f 230 256 255
f 231 232 257
f 231 257 256
f 232 233 258
f 232 258 257
f 233 234 259
f 233 259 258
f 234 235 260
f 234 260 259
f 235 236 261
f 235 261 260
f 236 237 262
f 236 262 261
f 237 238 263
f 237 263 262
f 238 239 264
f 238 264 263
f 239 240 265
f 239 265 264
f 240 241 266
f 240 266 265
f 241 242 267
f 241 267 266
f 242 243 268
f 242 268 267
f 243 244 269
f 243 269 268
f 244 245 270
f 244 270 269
f 245 246 271
f 245 271 270
f 246 247 272
f 246 272 271
f 247 248 273
f 247 273 272
f 248 249 274
f 248 274 273
f 249 250 275
f 249 275 274
f 251 252 277
f 251 277 276
f 252 253 278
f 252 278 277
f 253 254 279
f 253 279 278
f 254 255 280
f 254 280 279
f 255 256 281
f 255 281 280
f 256 257 282
f 256 282 281
f 257 258 283
f 257 283 282
f 258 259 284
f 258 284 283
f 259 260 285
f 259 285 284
f 260 261 286
f 260 286 285
f 261 262 287
f 261 287 286
f 262 263 288
f 262 288 287
f 263 264 289
f 263 289 288
f 264 265 290
f 264 290 289
f 265 266 291
f 265 291 290
f 266 267 292
f 266 292 291
f 267 268 293
f 267 293 292
f 268 269 294
f 268 294 293
f 269 270 295
f 269 295 294
f 270 271 296
f 270 296 295
f 271 272 297
f 271 297 296
f 272 273 298
f 272 298 297
f 273 274 299
f 273 299 298
f 274 275 300
f 274 300 299
f 276 277 302
f 276 302 301
f 277 278 303
f 277 303 302
f 278 279 304
f 278 304 303
f 279 280 305
f 279 305 304
f 280 281 306
f 280 306 305
f 281 282 307
f 281 307 306
f 282 283 308
f 282 308 307
f 283 284 309
f 283 309 308
f 284 285 310
f 284 310 309
f 285 286 311
f 285 311 310
f 286 287 312
f 286 312 311
f 287 288 313
f 287 313 312
f 288 289 314
f 288 314 313
f 289 290 315
f 289 315 314
f 290 291 316
f 290 316 315
f 291 292 317
f 291 317 316
f 292 293 318
f 292 318 317
f 293 294 319
f 293 319 318
f 294 295 320
f 294 320 319
f 295 296 321
f 295 321 320
f 296 297 322
f 296 322 321
f 297 298 323
f 297 323 322
f 298 299 324
f 298 324 323
f 299 300 325
f 299 325 324
f 301 302 327
f 301 327 326
f 302 303 328
f 302 328 327
f 303 304 329
f 303 329 328
f 304 305 330
f 304 330 329
f 305 306 331
f 305 331 330
f 306 307 332
f 306 332 331
f 307 308 333
f 307 333 332
f 308 309 334
f 308 334 333
f 309 310 335
f 309 335 334
f 310 311 336
f 310 336 335
f 311 312 337
f 311 337 336
f 312 313 338
f 312 338 337
f 313 314 339
f 313 339 338
f 314 315 340
f 314 340 339
f 315 316 341
f 315 341 340
f 316 317 342
f 316 342 341
f 317 318 343
f 317 343 342
f 318 319 344
f 318 344 343
f 319 320 345
f 319 345 344
f 320 321 346
f 320 346 345
f 321 322 347
f 321 347 346
f 322 323 348
f 322 348 347
f 323 324 349
f 323 349 348
f 324 325 350
f 324 350 349
f 326 327 352
f 326 352 351
f 327 328 353
f 327 353 352
f 328 329 354
f 328 354 353
f 329 330 355
f 329 355 354
f 330 331 356
f 330 356 355
f 331 332 357
f 331 357 356
f 332 333 358
f 332 358 357
f 333 334 359
f 333 359 358
f 334 335 360
f 334 360 359
f 335 336 361
f 335 361 360
f 336 337 362
f 336 362 361
f 337 338 363
f 337 363 362
f 338 339 364
f 338 364 363
f 339 340 365
f 339 365 364
f 340 341 366
f 340 366 365
f 341 342 367
f 341 367 366
f 342 343 368
f 342 368 367
f 343 344 369
f 343 369 368
f 344 345 370
f 344 370 369
f 345 346 371
f 345 371 370
f 346 347 372
f 346 372 371
f 347 348 373
f 347 373 372
f 348 349 374
f 348 374 373
f 349 350 375
f 349 375 374
f 351 352 377
f 351 377 376
f 352 353 378
f 352 378 377
f 353 354 379
f 353 379 378
f 354 355 380
f 354 380 379
f 355 356 381
f 355 381 380
f 356 357 382
f 356 382 381
f 357 358 383
f 357 383 382
f 358 359 384
f 358 384 383
f 359 360 385
f 359 385 384
f 360 361 386
f 360 386 385
f 361 362 387
f 361 387 386
f 362 363 388
f 362 388 387
f 363 364 389
f 363 389 388
f 364 365 390
f 364 390 389
f 365 366 391
f 365 391 390
f 366 367 392
f 366 392 391
f 367 368 393
f 367 393 392
f 368 369 394
f 368 394 393
f 369 370 395
f 369 395 394
f 370 371 396
f 370 396 395
f 371 372 397
f 371 397 396
f 372 373 398
f 372 398 397
f 373 374 399
f 373 399 398
f 374 375 400
f 374 400 399
f 376 377 402
f 376 402 401
f 377 378 403
f 377 403 402
f 378 379 404
f 378 404 403
f 379 380 405
f 379 405 404
f 380 381 406
f 380 406 405
f 381 382 407
f 381 407 406
f 382 383 408
f 382 408 407
f 383 384 409
f 383 409 408
f 384 385 410
f 384 410 409
f 385 386 411
f 385 411 410
f 386 387 412
f 386 412 411
f 387 388 413
f 387 413 412
f 388 389 414
f 388 414 413
f 389 390 415
f 389 415 414
f 390 391 416
f 390 416 415
f 391 392 417
f 391 417 416
f 392 393 418
f 392 418 417
f 393 394 419
f 393 419 418
f 394 395 420
f 394 420 419
f 395 396 421
f 395 421 420
f 396 397 422
f 396 422 421
f 397 398 423
f 397 423 422
f 398 399 424
f 398 424 423
f 399 400 425
f 399 425 424
f 401 402 427
f 401 427 426
f 402 403 428
f 402 428 427
f 403 404 429
f 403 429 428
f 404 405 430
f 404 430 429
f 405 406 431
f 405 431 430
f 406 407 432
f 406 432 431
f 407 408 433
f 407 433 432
f 408 409 434
f 408 434 433
f 409 410 435
f 409 435 434
f 410 411 436
f 410 436 435
f 411 412 437
f 411 437 436
f 412 413 438
f 412 438 437
f 413 414 439
f 413 439 438
f 414 415 440
f 414 440 439
f 415 416 441
f 415 441 440
f 416 417 442
f 416 442 441
f 417 418 443
f 417 443 442
f 418 419 444
f 418 444 443
f 419 420 445
f 419 445 444
f 420 421 446
f 420 446 445
f 421 422 447
f 421 447 446
f 422 423 448
f 422 448 447
f 423 424 449
f 423 449 448
f 424 425 450
f 424 450 449
f 426 427 452
f 426 452 451
f 427 428 453
f 427 453 452
f 428 429 454
f 428 454 453
f 429 430 455
f 429 455 454
f 430 431 456
f 430 456 455
f 431 432 457
f 431 457 456
f 432 433 458
f 432 458 457
f 433 434 459
f 433 459 458
f 434 435 460
f 434 460 459
f 435 436 461
f 435 461 460
f 436 437 462
f 436 462 461
f 437 438 463
f 437 463 462
f 438 439 464
f 438 464 463
f 439 440 465
f 439 465 464
f 440 441 466
f 440 466 465
f 441 442 467
f 441 467 466
f 442 443 468
f 442 468 467
f 443 444 469
f 443 469 468
f 444 445 470
f 444 470 469
f 445 446 471
f 445 471 470
f 446 447 472
f 446 472 471
f 447 448 473
f 447 473 472
f 448 449 474
f 448 474 473
f 449 450 475
f 449 475 474
f 451 452 477
f 451 477 476
f 452 453 478
f 452 478 477
f 453 454 479
f 453 479 478
f 454 455 480
f 454 480 479
f 455 456 481
f 455 481 480
f 456 457 482
f 456 482 481
f 457 458 483
f 457 483 482
f 458 459 484
f 458 484 483
f 459 460 485
f 459 485 484
f 460 461 486
f 460 486 485
f 461 462 487
f 461 487 486
f 462 463 488
f 462 488 487
f 463 464 489
f 463 489 488
f 464 465 490
f 464 490 489
f 465 466 491
f 465 491 490
f 466 467 492
f 466 492 491
f 467 468 493
f 467 493 492
f 468 469 494
f 468 494 493
f 469 470 495
f 469 495 494
f 470 471 496
f 470 496 495
f 471 472 497
f 471 497 496
f 472 473 498
f 472 498 497
f 473 474 499
f 473 499 498
f 474 475 500
f 474 500 499
f 476 477 502
f 476 502 501
f 477 478 503
f 477 503 502
f 478 479 504
f 478 504 503
f 479 480 505
f 479 505 504
f 480 481 506
f 480 506 505
f 481 482 507
f 481 507 506
f 482 483 508
f 482 508 507
f 483 484 509
f 483 509 508
f 484 485 510
f 484 510 509
f 485 486 511
f 485 511 510
f 486 487 512
f 486 512 511
f 487 488 513
f 487 513 512
f 488 489 514
f 488 514 513
f 489 490 515
f 489 515 514
f 490 491 516
f 490 516 515
f 491 492 517
f 491 517 516
f 492 493 518
f 492 518 517
f 493 494 519
f 493 519 518
f 494 495 520
f 494 520 519
f 495 496 521
f 495 521 520
f 496 497 522
f 496 522 521
f 497 498 523
f 497 523 522
f 498 499 524
f 498 524 523
f 499 500 525
f 499 525 524
f 501 502 527
f 501 527 526
f 502 503 528
f 502 528 527
f 503 504 529
f 503 529 528
f 504 505 530
f 504 530 529
f 505 506 531
f 505 531 530
f 506 507 532
f 506 532 531
f 507 508 533
f 507 533 532
f 508 509 534
f 508 534 533
f 509 510 535
f 509 535 534
f 510 511 536
f 510 536 535
f 511 512 537
f 511 537 536
f 512 513 538
f 512 538 537
f 513 514 539
f 513 539 538
f 514 515 540
f 514 540 539
f 515 516 541
f 515 541 540
f 516 517 542
f 516 542 541
f 517 518 543
f 517 543 542
f 518 519 544
f 518 544 543
f 519 520 545
f 519 545 544
f 520 521 546
f 520 546 545
f 521 522 547
f 521 547 546
f 522 523 548
f 522 548 547
f 523 524 549
f 523 549 548
f 524 525 550
f 524 550 549
f 526 527 552
f 526 552 551
f 527 528 553
f 527 553 552
f 528 529 554
f 528 554 553
f 529 530 555
f 529 555 554
f 530 531 556
f 530 556 555
f 531 532 557
f 531 557 556
f 532 533 558
f 532 558 557
f 533 534 559
f 533 559 558
f 534 535 560
f 534 560 559
f 535 536 561
f 535 561 560
f 536 537 562
f 536 562 561
f 537 538 563
f 537 563 562
f 538 539 564
f 538 564 563
f 539 540 565
f 539 565 564
f 540 541 566
f 540 566 565
f 541 542 567
f 541 567 566
f 542 543 568
f 542 568 567
f 543 544 569
f 543 569 568
f 544 545 570
f 544 570 569
f 545 546 571
f 545 571 570
f 546 547 572
f 546 572 571
f 547 548 573
f 547 573 572
f 548 549 574
f 548 574 573
f 549 550 575
f 549 575 574
f 551 552 577
f 551 577 576
f 552 553 578
f 552 578 577
f 553 554 579
f 553 579 578
f 554 555 580
f 554 580 579
f 555 556 581
f 555 581 580
f 556 557 582
f 556 582 581
f 557 558 583
f 557 583 582
f 558 559 584
f 558 584 583
f 559 560 585
f 559 585 584
f 560 561 586
f 560 586 585
f 561 562 587
f 561 587 586
f 562 563 588
f 562 588 587
f 563 564 589
f 563 589 588
f 564 565 590
f 564 590 589
f 565 566 591
f 565 591 590
f 566 567 592
f 566 592 591
f 567 568 593
f 567 593 592
f 568 569 594
f 568 594 593
f 569 570 595
f 569 595 594
f 570 571 596
f 570 596 595
f 571 572 597
f 571 597 596
f 572 573 598
f 572 598 597
f 573 574 599
f 573 599 598
f 574 575 600
f 574 600 599
f 576 577 602
f 576 602 601
f 577 578 603
f 577 603 602
f 578 579 604
f 578 604 603
f 579 580 605
f 579 605 604
f 580 581 606
f 580 606 605
f 581 582 607
f 581 607 606
f 582 583 608
f 582 608 607
f 583 584 609
f 583 609 608
f 584 585 610
f 584 610 609
f 585 586 611
f 585 611 610
f 586 587 612
f 586 612 611
f 587 588 613
f 587 613 612
f 588 589 614
f 588 614 613
f 589 590 615
f 589 615 614
f 590 591 616
f 590 616 615
f 591 592 617
f 591 617 616
f 592 593 618
f 592 618 617
f 593 594 619
f 593 619 618
f 594 595 620
f 594 620 619
f 595 596 621
f 595 621 620
f 596 597 622
f 596 622 621
f 597 598 623
f 597 623 622
f 598 599 624
f 598 624 623
f 599 600 625
f 599 625 624
