o [4B] 3D Diagram - S2-04 Group G_145
v -192.025504 -192.025504 44344.082436
v -176.023379 -192.025504 42448.921635
v -160.021254 -192.025504 40553.760834
v -144.019128 -192.025504 38658.600033
v -128.017003 -192.025504 36763.439232
v -112.014878 -192.025504 34868.278431
v -96.012752 -192.025504 32973.117631
v -80.010627 -192.025504 31077.956830
v -64.008501 -192.025504 29182.796029
v -48.006376 -192.025504 27287.635228
v -32.004251 -192.025504 25392.474427
v -16.002125 -192.025504 23497.313626
v 0.000000 -192.025504 21602.152825
v 16.002125 -192.025504 19706.992025
v 32.004251 -192.025504 17811.831224
v 48.006376 -192.025504 15916.670423
v 64.008501 -192.025504 14021.509622
v 80.010627 -192.025504 12126.348821
v 96.012752 -192.025504 10231.188020
v 112.014878 -192.025504 8336.027220
v 128.017003 -192.025504 6440.866419
v 144.019128 -192.025504 4545.705618
v 160.021254 -192.025504 2650.544817
v 176.023379 -192.025504 755.384016
v 192.025504 -192.025504 -1139.776785
v -192.025504 -176.023379 44020.039397
v -176.023379 -176.023379 42124.878596
v -160.021254 -176.023379 40229.717795
v -144.019128 -176.023379 38334.556995
v -128.017003 -176.023379 36439.396194
v -112.014878 -176.023379 34544.235393
v -96.012752 -176.023379 32649.074592
v -80.010627 -176.023379 30753.913791
v -64.008501 -176.023379 28858.752990
v -48.006376 -176.023379 26963.592190
v -32.004251 -176.023379 25068.431389
v -16.002125 -176.023379 23173.270588
v 0.000000 -176.023379 21278.109787
v 16.002125 -176.023379 19382.948986
v 32.004251 -176.023379 17487.788185
v 48.006376 -176.023379 15592.627384
v 64.008501 -176.023379 13697.466584
v 80.010627 -176.023379 11802.305783
v 96.012752 -176.023379 9907.144982
v 112.014878 -176.023379 8011.984181
v 128.017003 -176.023379 6116.823380
v 144.019128 -176.023379 4221.662579
v 160.021254 -176.023379 2326.501779
v 176.023379 -176.023379 431.340978
v 192.025504 -176.023379 -1463.819823
v -192.025504 -160.021254 43695.996359
v -176.023379 -160.021254 41800.835558
v -160.021254 -160.021254 39905.674757
v -144.019128 -160.021254 38010.513956
v -128.017003 -160.021254 36115.353155
v -112.014878 -160.021254 34220.192354
v -96.012752 -160.021254 32325.031554
v -80.010627 -160.021254 30429.870753
v -64.008501 -160.021254 28534.709952
v -48.006376 -160.021254 26639.549151
v -32.004251 -160.021254 24744.388350
v -16.002125 -160.021254 22849.227549
v 0.000000 -160.021254 20954.066748
v 16.002125 -160.021254 19058.905948
v 32.004251 -160.021254 17163.745147
v 48.006376 -160.021254 15268.584346
v 64.008501 -160.021254 13373.423545
v 80.010627 -160.021254 11478.262744
v 96.012752 -160.021254 9583.101943
v 112.014878 -160.021254 7687.941143
v 128.017003 -160.021254 5792.780342
v 144.019128 -160.021254 3897.619541
v 160.021254 -160.021254 2002.458740
v 176.023379 -160.021254 107.297939
v 192.025504 -160.021254 -1787.862862
v -192.025504 -144.019128 43371.953320
v -176.023379 -144.019128 41476.792519
v -160.021254 -144.019128 39581.631718
v -144.019128 -144.019128 37686.470918
v -128.017003 -144.019128 35791.310117
v -112.014878 -144.019128 33896.149316
v -96.012752 -144.019128 32000.988515
v -80.010627 -144.019128 30105.827714
v -64.008501 -144.019128 28210.666913
v -48.006376 -144.019128 26315.506113
v -32.004251 -144.019128 24420.345312
v -16.002125 -144.019128 22525.184511
v 0.000000 -144.019128 20630.023710
v 16.002125 -144.019128 18734.862909
v 32.004251 -144.019128 16839.702108
v 48.006376 -144.019128 14944.541307
v 64.008501 -144.019128 13049.380507
v 80.010627 -144.019128 11154.219706
v 96.012752 -144.019128 9259.058905
v 112.014878 -144.019128 7363.898104
v 128.017003 -144.019128 5468.737303
v 144.019128 -144.019128 3573.576502
v 160.021254 -144.019128 1678.415702
v 176.023379 -144.019128 -216.745099
v 192.025504 -144.019128 -2111.905900
v -192.025504 -128.017003 43047.910282
v -176.023379 -128.017003 41152.749481
v -160.021254 -128.017003 39257.588680
v -144.019128 -128.017003 37362.427879
v -128.017003 -128.017003 35467.267078
v -112.014878 -128.017003 33572.106277
v -96.012752 -128.017003 31676.945477
v -80.010627 -128.017003 29781.784676
v -64.008501 -128.017003 27886.623875
v -48.006376 -128.017003 25991.463074
v -32.004251 -128.017003 24096.302273
v -16.002125 -128.017003 22201.141472
v 0.000000 -128.017003 20305.980672
v 16.002125 -128.017003 18410.819871
v 32.004251 -128.017003 16515.659070
v 48.006376 -128.017003 14620.498269
v 64.008501 -128.017003 12725.337468
v 80.010627 -128.017003 10830.176667
v 96.012752 -128.017003 8935.015866
v 112.014878 -128.017003 7039.855066
v 128.017003 -128.017003 5144.694265
v 144.019128 -128.017003 3249.533464
v 160.021254 -128.017003 1354.372663
v 176.023379 -128.017003 -540.788138
v 192.025504 -128.017003 -2435.948939
v -192.025504 -112.014878 42723.867243
v -176.023379 -112.014878 40828.706442
v -160.021254 -112.014878 38933.545641
v -144.019128 -112.014878 37038.384841
v -128.017003 -112.014878 35143.224040
v -112.014878 -112.014878 33248.063239
v -96.012752 -112.014878 31352.902438
v -80.010627 -112.014878 29457.741637
v -64.008501 -112.014878 27562.580836
v -48.006376 -112.014878 25667.420036
v -32.004251 -112.014878 23772.259235
v -16.002125 -112.014878 21877.098434
v 0.000000 -112.014878 19981.937633
v 16.002125 -112.014878 18086.776832
v 32.004251 -112.014878 16191.616031
v 48.006376 -112.014878 14296.455231
v 64.008501 -112.014878 12401.294430
v 80.010627 -112.014878 10506.133629
v 96.012752 -112.014878 8610.972828
v 112.014878 -112.014878 6715.812027
v 128.017003 -112.014878 4820.651226
v 144.019128 -112.014878 2925.490425
v 160.021254 -112.014878 1030.329625
v 176.023379 -112.014878 -864.831176
v 192.025504 -112.014878 -2759.991977
v -192.025504 -96.012752 42399.824205
v -176.023379 -96.012752 40504.663404
v -160.021254 -96.012752 38609.502603
v -144.019128 -96.012752 36714.341802
v -128.017003 -96.012752 34819.181001
v -112.014878 -96.012752 32924.020200
v -96.012752 -96.012752 31028.859400
v -80.010627 -96.012752 29133.698599
v -64.008501 -96.012752 27238.537798
v -48.006376 -96.012752 25343.376997
v -32.004251 -96.012752 23448.216196
v -16.002125 -96.012752 21553.055395
v 0.000000 -96.012752 19657.894595
v 16.002125 -96.012752 17762.733794
v 32.004251 -96.012752 15867.572993
v 48.006376 -96.012752 13972.412192
v 64.008501 -96.012752 12077.251391
v 80.010627 -96.012752 10182.090590
v 96.012752 -96.012752 8286.929789
v 112.014878 -96.012752 6391.768989
v 128.017003 -96.012752 4496.608188
v 144.019128 -96.012752 2601.447387
v 160.021254 -96.012752 706.286586
v 176.023379 -96.012752 -1188.874215
v 192.025504 -96.012752 -3084.035016
v -192.025504 -80.010627 42075.781166
v -176.023379 -80.010627 40180.620365
v -160.021254 -80.010627 38285.459565
v -144.019128 -80.010627 36390.298764
v -128.017003 -80.010627 34495.137963
v -112.014878 -80.010627 32599.977162
v -96.012752 -80.010627 30704.816361
v -80.010627 -80.010627 28809.655560
v -64.008501 -80.010627 26914.494759
v -48.006376 -80.010627 25019.333959
v -32.004251 -80.010627 23124.173158
v -16.002125 -80.010627 21229.012357
v 0.000000 -80.010627 19333.851556
v 16.002125 -80.010627 17438.690755
v 32.004251 -80.010627 15543.529954
v 48.006376 -80.010627 13648.369154
v 64.008501 -80.010627 11753.208353
v 80.010627 -80.010627 9858.047552
v 96.012752 -80.010627 7962.886751
v 112.014878 -80.010627 6067.725950
v 128.017003 -80.010627 4172.565149
v 144.019128 -80.010627 2277.404348
v 160.021254 -80.010627 382.243548
v 176.023379 -80.010627 -1512.917253
v 192.025504 -80.010627 -3408.078054
v -192.025504 -64.008501 41751.738128
v -176.023379 -64.008501 39856.577327
v -160.021254 -64.008501 37961.416526
v -144.019128 -64.008501 36066.255725
v -128.017003 -64.008501 34171.094924
v -112.014878 -64.008501 32275.934123
v -96.012752 -64.008501 30380.773323
v -80.010627 -64.008501 28485.612522
v -64.008501 -64.008501 26590.451721
v -48.006376 -64.008501 24695.290920
v -32.004251 -64.008501 22800.130119
v -16.002125 -64.008501 20904.969318
v 0.000000 -64.008501 19009.808518
v 16.002125 -64.008501 17114.647717
v 32.004251 -64.008501 15219.486916
v 48.006376 -64.008501 13324.326115
v 64.008501 -64.008501 11429.165314
v 80.010627 -64.008501 9534.004513
v 96.012752 -64.008501 7638.843713
v 112.014878 -64.008501 5743.682912
v 128.017003 -64.008501 3848.522111
v 144.019128 -64.008501 1953.361310
v 160.021254 -64.008501 58.200509
v 176.023379 -64.008501 -1836.960292
v 192.025504 -64.008501 -3732.121093
v -192.025504 -48.006376 41427.695089
v -176.023379 -48.006376 39532.534288
v -160.021254 -48.006376 37637.373488
v -144.019128 -48.006376 35742.212687
v -128.017003 -48.006376 33847.051886
v -112.014878 -48.006376 31951.891085
v -96.012752 -48.006376 30056.730284
v -80.010627 -48.006376 28161.569483
v -64.008501 -48.006376 26266.408682
v -48.006376 -48.006376 24371.247882
v -32.004251 -48.006376 22476.087081
v -16.002125 -48.006376 20580.926280
v 0.000000 -48.006376 18685.765479
v 16.002125 -48.006376 16790.604678
v 32.004251 -48.006376 14895.443877
v 48.006376 -48.006376 13000.283077
v 64.008501 -48.006376 11105.122276
v 80.010627 -48.006376 9209.961475
v 96.012752 -48.006376 7314.800674
v 112.014878 -48.006376 5419.639873
v 128.017003 -48.006376 3524.479072
v 144.019128 -48.006376 1629.318271
v 160.021254 -48.006376 -265.842529
v 176.023379 -48.006376 -2161.003330
v 192.025504 -48.006376 -4056.164131
v -192.025504 -32.004251 41103.652051
v -176.023379 -32.004251 39208.491250
v -160.021254 -32.004251 37313.330449
v -144.019128 -32.004251 35418.169648
v -128.017003 -32.004251 33523.008847
v -112.014878 -32.004251 31627.848047
v -96.012752 -32.004251 29732.687246
v -80.010627 -32.004251 27837.526445
v -64.008501 -32.004251 25942.365644
v -48.006376 -32.004251 24047.204843
v -32.004251 -32.004251 22152.044042
v -16.002125 -32.004251 20256.883241
v 0.000000 -32.004251 18361.722441
v 16.002125 -32.004251 16466.561640
v 32.004251 -32.004251 14571.400839
v 48.006376 -32.004251 12676.240038
v 64.008501 -32.004251 10781.079237
v 80.010627 -32.004251 8885.918436
v 96.012752 -32.004251 6990.757636
v 112.014878 -32.004251 5095.596835
v 128.017003 -32.004251 3200.436034
v 144.019128 -32.004251 1305.275233
v 160.021254 -32.004251 -589.885568
v 176.023379 -32.004251 -2485.046369
v 192.025504 -32.004251 -4380.207170
v -192.025504 -16.002125 40779.609012
v -176.023379 -16.002125 38884.448211
v -160.021254 -16.002125 36989.287411
v -144.019128 -16.002125 35094.126610
v -128.017003 -16.002125 33198.965809
v -112.014878 -16.002125 31303.805008
v -96.012752 -16.002125 29408.644207
v -80.010627 -16.002125 27513.483406
v -64.008501 -16.002125 25618.322605
v -48.006376 -16.002125 23723.161805
v -32.004251 -16.002125 21828.001004
v -16.002125 -16.002125 19932.840203
v 0.000000 -16.002125 18037.679402
v 16.002125 -16.002125 16142.518601
v 32.004251 -16.002125 14247.357800
v 48.006376 -16.002125 12352.197000
v 64.008501 -16.002125 10457.036199
v 80.010627 -16.002125 8561.875398
v 96.012752 -16.002125 6666.714597
v 112.014878 -16.002125 4771.553796
v 128.017003 -16.002125 2876.392995
v 144.019128 -16.002125 981.232195
v 160.021254 -16.002125 -913.928606
v 176.023379 -16.002125 -2809.089407
v 192.025504 -16.002125 -4704.250208
v -192.025504 0.000000 40455.565974
v -176.023379 0.000000 38560.405173
v -160.021254 0.000000 36665.244372
v -144.019128 0.000000 34770.083571
v -128.017003 0.000000 32874.922770
v -112.014878 0.000000 30979.761970
v -96.012752 0.000000 29084.601169
v -80.010627 0.000000 27189.440368
v -64.008501 0.000000 25294.279567
v -48.006376 0.000000 23399.118766
v -32.004251 0.000000 21503.957965
v -16.002125 0.000000 19608.797164
v 0.000000 0.000000 17713.636364
v 16.002125 0.000000 15818.475563
v 32.004251 0.000000 13923.314762
v 48.006376 0.000000 12028.153961
v 64.008501 0.000000 10132.993160
v 80.010627 0.000000 8237.832359
v 96.012752 0.000000 6342.671559
v 112.014878 0.000000 4447.510758
v 128.017003 0.000000 2552.349957
v 144.019128 0.000000 657.189156
v 160.021254 0.000000 -1237.971645
v 176.023379 0.000000 -3133.132446
v 192.025504 0.000000 -5028.293247
v -192.025504 16.002125 40131.522935
v -176.023379 16.002125 38236.362134
v -160.021254 16.002125 36341.201334
v -144.019128 16.002125 34446.040533
v -128.017003 16.002125 32550.879732
v -112.014878 16.002125 30655.718931
v -96.012752 16.002125 28760.558130
v -80.010627 16.002125 26865.397329
v -64.008501 16.002125 24970.236529
v -48.006376 16.002125 23075.075728
v -32.004251 16.002125 21179.914927
v -16.002125 16.002125 19284.754126
v 0.000000 16.002125 17389.593325
v 16.002125 16.002125 15494.432524
v 32.004251 16.002125 13599.271723
v 48.006376 16.002125 11704.110923
v 64.008501 16.002125 9808.950122
v 80.010627 16.002125 7913.789321
v 96.012752 16.002125 6018.628520
v 112.014878 16.002125 4123.467719
v 128.017003 16.002125 2228.306918
v 144.019128 16.002125 333.146118
v 160.021254 16.002125 -1562.014683
v 176.023379 16.002125 -3457.175484
v 192.025504 16.002125 -5352.336285
v -192.025504 32.004251 39807.479897
v -176.023379 32.004251 37912.319096
v -160.021254 32.004251 36017.158295
v -144.019128 32.004251 34121.997494
v -128.017003 32.004251 32226.836693
v -112.014878 32.004251 30331.675893
v -96.012752 32.004251 28436.515092
v -80.010627 32.004251 26541.354291
v -64.008501 32.004251 24646.193490
v -48.006376 32.004251 22751.032689
v -32.004251 32.004251 20855.871888
v -16.002125 32.004251 18960.711088
v 0.000000 32.004251 17065.550287
v 16.002125 32.004251 15170.389486
v 32.004251 32.004251 13275.228685
v 48.006376 32.004251 11380.067884
v 64.008501 32.004251 9484.907083
v 80.010627 32.004251 7589.746282
v 96.012752 32.004251 5694.585482
v 112.014878 32.004251 3799.424681
v 128.017003 32.004251 1904.263880
v 144.019128 32.004251 9.103079
v 160.021254 32.004251 -1886.057722
v 176.023379 32.004251 -3781.218523
v 192.025504 32.004251 -5676.379323
v -192.025504 48.006376 39483.436858
v -176.023379 48.006376 37588.276057
v -160.021254 48.006376 35693.115257
v -144.019128 48.006376 33797.954456
v -128.017003 48.006376 31902.793655
v -112.014878 48.006376 30007.632854
v -96.012752 48.006376 28112.472053
v -80.010627 48.006376 26217.311252
v -64.008501 48.006376 24322.150452
v -48.006376 48.006376 22426.989651
v -32.004251 48.006376 20531.828850
v -16.002125 48.006376 18636.668049
v 0.000000 48.006376 16741.507248
v 16.002125 48.006376 14846.346447
v 32.004251 48.006376 12951.185646
v 48.006376 48.006376 11056.024846
v 64.008501 48.006376 9160.864045
v 80.010627 48.006376 7265.703244
v 96.012752 48.006376 5370.542443
v 112.014878 48.006376 3475.381642
v 128.017003 48.006376 1580.220841
v 144.019128 48.006376 -314.939959
v 160.021254 48.006376 -2210.100760
v 176.023379 48.006376 -4105.261561
v 192.025504 48.006376 -6000.422362
v -192.025504 64.008501 39159.393820
v -176.023379 64.008501 37264.233019
v -160.021254 64.008501 35369.072218
v -144.019128 64.008501 33473.911417
v -128.017003 64.008501 31578.750616
v -112.014878 64.008501 29683.589816
v -96.012752 64.008501 27788.429015
v -80.010627 64.008501 25893.268214
v -64.008501 64.008501 23998.107413
v -48.006376 64.008501 22102.946612
v -32.004251 64.008501 20207.785811
v -16.002125 64.008501 18312.625011
v 0.000000 64.008501 16417.464210
v 16.002125 64.008501 14522.303409
v 32.004251 64.008501 12627.142608
v 48.006376 64.008501 10731.981807
v 64.008501 64.008501 8836.821006
v 80.010627 64.008501 6941.660205
v 96.012752 64.008501 5046.499405
v 112.014878 64.008501 3151.338604
v 128.017003 64.008501 1256.177803
v 144.019128 64.008501 -638.982998
v 160.021254 64.008501 -2534.143799
v 176.023379 64.008501 -4429.304600
v 192.025504 64.008501 -6324.465400
v -192.025504 80.010627 38835.350781
v -176.023379 80.010627 36940.189980
v -160.021254 80.010627 35045.029180
v -144.019128 80.010627 33149.868379
v -128.017003 80.010627 31254.707578
v -112.014878 80.010627 29359.546777
v -96.012752 80.010627 27464.385976
v -80.010627 80.010627 25569.225175
v -64.008501 80.010627 23674.064375
v -48.006376 80.010627 21778.903574
v -32.004251 80.010627 19883.742773
v -16.002125 80.010627 17988.581972
v 0.000000 80.010627 16093.421171
v 16.002125 80.010627 14198.260370
v 32.004251 80.010627 12303.099570
v 48.006376 80.010627 10407.938769
v 64.008501 80.010627 8512.777968
v 80.010627 80.010627 6617.617167
v 96.012752 80.010627 4722.456366
v 112.014878 80.010627 2827.295565
v 128.017003 80.010627 932.134764
v 144.019128 80.010627 -963.026036
v 160.021254 80.010627 -2858.186837
v 176.023379 80.010627 -4753.347638
v 192.025504 80.010627 -6648.508439
v -192.025504 96.012752 38511.307743
v -176.023379 96.012752 36616.146942
v -160.021254 96.012752 34720.986141
v -144.019128 96.012752 32825.825340
v -128.017003 96.012752 30930.664539
v -112.014878 96.012752 29035.503739
v -96.012752 96.012752 27140.342938
v -80.010627 96.012752 25245.182137
v -64.008501 96.012752 23350.021336
v -48.006376 96.012752 21454.860535
v -32.004251 96.012752 19559.699734
v -16.002125 96.012752 17664.538934
v 0.000000 96.012752 15769.378133
v 16.002125 96.012752 13874.217332
v 32.004251 96.012752 11979.056531
v 48.006376 96.012752 10083.895730
v 64.008501 96.012752 8188.734929
v 80.010627 96.012752 6293.574128
v 96.012752 96.012752 4398.413328
v 112.014878 96.012752 2503.252527
v 128.017003 96.012752 608.091726
v 144.019128 96.012752 -1287.069075
v 160.021254 96.012752 -3182.229876
v 176.023379 96.012752 -5077.390677
v 192.025504 96.012752 -6972.551477
v -192.025504 112.014878 38187.264704
v -176.023379 112.014878 36292.103904
v -160.021254 112.014878 34396.943103
v -144.019128 112.014878 32501.782302
v -128.017003 112.014878 30606.621501
v -112.014878 112.014878 28711.460700
v -96.012752 112.014878 26816.299899
v -80.010627 112.014878 24921.139098
v -64.008501 112.014878 23025.978298
v -48.006376 112.014878 21130.817497
v -32.004251 112.014878 19235.656696
v -16.002125 112.014878 17340.495895
v 0.000000 112.014878 15445.335094
v 16.002125 112.014878 13550.174293
v 32.004251 112.014878 11655.013493
v 48.006376 112.014878 9759.852692
v 64.008501 112.014878 7864.691891
v 80.010627 112.014878 5969.531090
v 96.012752 112.014878 4074.370289
v 112.014878 112.014878 2179.209488
v 128.017003 112.014878 284.048687
v 144.019128 112.014878 -1611.112113
v 160.021254 112.014878 -3506.272914
v 176.023379 112.014878 -5401.433715
v 192.025504 112.014878 -7296.594516
v -192.025504 128.017003 37863.221666
v -176.023379 128.017003 35968.060865
v -160.021254 128.017003 34072.900064
v -144.019128 128.017003 32177.739263
v -128.017003 128.017003 30282.578463
v -112.014878 128.017003 28387.417662
v -96.012752 128.017003 26492.256861
v -80.010627 128.017003 24597.096060
v -64.008501 128.017003 22701.935259
v -48.006376 128.017003 20806.774458
v -32.004251 128.017003 18911.613657
v -16.002125 128.017003 17016.452857
v 0.000000 128.017003 15121.292056
v 16.002125 128.017003 13226.131255
v 32.004251 128.017003 11330.970454
v 48.006376 128.017003 9435.809653
v 64.008501 128.017003 7540.648852
v 80.010627 128.017003 5645.488052
v 96.012752 128.017003 3750.327251
v 112.014878 128.017003 1855.166450
v 128.017003 128.017003 -39.994351
v 144.019128 128.017003 -1935.155152
v 160.021254 128.017003 -3830.315953
v 176.023379 128.017003 -5725.476754
v 192.025504 128.017003 -7620.637554
v -192.025504 144.019128 37539.178627
v -176.023379 144.019128 35644.017827
v -160.021254 144.019128 33748.857026
v -144.019128 144.019128 31853.696225
v -128.017003 144.019128 29958.535424
v -112.014878 144.019128 28063.374623
v -96.012752 144.019128 26168.213822
v -80.010627 144.019128 24273.053021
v -64.008501 144.019128 22377.892221
v -48.006376 144.019128 20482.731420
v -32.004251 144.019128 18587.570619
v -16.002125 144.019128 16692.409818
v 0.000000 144.019128 14797.249017
v 16.002125 144.019128 12902.088216
v 32.004251 144.019128 11006.927416
v 48.006376 144.019128 9111.766615
v 64.008501 144.019128 7216.605814
v 80.010627 144.019128 5321.445013
v 96.012752 144.019128 3426.284212
v 112.014878 144.019128 1531.123411
v 128.017003 144.019128 -364.037390
v 144.019128 144.019128 -2259.198190
v 160.021254 144.019128 -4154.358991
v 176.023379 144.019128 -6049.519792
v 192.025504 144.019128 -7944.680593
v -192.025504 160.021254 37215.135589
v -176.023379 160.021254 35319.974788
v -160.021254 160.021254 33424.813987
v -144.019128 160.021254 31529.653186
v -128.017003 160.021254 29634.492386
v -112.014878 160.021254 27739.331585
v -96.012752 160.021254 25844.170784
v -80.010627 160.021254 23949.009983
v -64.008501 160.021254 22053.849182
v -48.006376 160.021254 20158.688381
v -32.004251 160.021254 18263.527580
v -16.002125 160.021254 16368.366780
v 0.000000 160.021254 14473.205979
v 16.002125 160.021254 12578.045178
v 32.004251 160.021254 10682.884377
v 48.006376 160.021254 8787.723576
v 64.008501 160.021254 6892.562775
v 80.010627 160.021254 4997.401975
v 96.012752 160.021254 3102.241174
v 112.014878 160.021254 1207.080373
v 128.017003 160.021254 -688.080428
v 144.019128 160.021254 -2583.241229
v 160.021254 160.021254 -4478.402030
v 176.023379 160.021254 -6373.562831
v 192.025504 160.021254 -8268.723631
v -192.025504 176.023379 36891.092550
v -176.023379 176.023379 34995.931750
v -160.021254 176.023379 33100.770949
v -144.019128 176.023379 31205.610148
v -128.017003 176.023379 29310.449347
v -112.014878 176.023379 27415.288546
v -96.012752 176.023379 25520.127745
v -80.010627 176.023379 23624.966945
v -64.008501 176.023379 21729.806144
v -48.006376 176.023379 19834.645343
v -32.004251 176.023379 17939.484542
v -16.002125 176.023379 16044.323741
v 0.000000 176.023379 14149.162940
v 16.002125 176.023379 12254.002139
v 32.004251 176.023379 10358.841339
v 48.006376 176.023379 8463.680538
v 64.008501 176.023379 6568.519737
v 80.010627 176.023379 4673.358936
v 96.012752 176.023379 2778.198135
v 112.014878 176.023379 883.037334
v 128.017003 176.023379 -1012.123466
v 144.019128 176.023379 -2907.284267
v 160.021254 176.023379 -4802.445068
v 176.023379 176.023379 -6697.605869
v 192.025504 176.023379 -8592.766670
v -192.025504 192.025504 36567.049512
v -176.023379 192.025504 34671.888711
v -160.021254 192.025504 32776.727910
v -144.019128 192.025504 30881.567109
v -128.017003 192.025504 28986.406309
v -112.014878 192.025504 27091.245508
v -96.012752 192.025504 25196.084707
v -80.010627 192.025504 23300.923906
v -64.008501 192.025504 21405.763105
v -48.006376 192.025504 19510.602304
v -32.004251 192.025504 17615.441503
v -16.002125 192.025504 15720.280703
v 0.000000 192.025504 13825.119902
v 16.002125 192.025504 11929.959101
v 32.004251 192.025504 10034.798300
v 48.006376 192.025504 8139.637499
v 64.008501 192.025504 6244.476698
v 80.010627 192.025504 4349.315898
v 96.012752 192.025504 2454.155097
v 112.014878 192.025504 558.994296
v 128.017003 192.025504 -1336.166505
v 144.019128 192.025504 -3231.327306
v 160.021254 192.025504 -5126.488107
v 176.023379 192.025504 -7021.648908
v 192.025504 192.025504 -8916.809708
f 1 2 27
f 1 27 26
f 2 3 28
f 2 28 27
f 3 4 29
f 3 29 28
f 4 5 30
f 4 30 29
f 5 6 31
f 5 31 30
f 6 7 32
f 6 32 31
f 7 8 33
f 7 33 32
f 8 9 34
f 8 34 33
f 9 10 35
f 9 35 34
f 10 11 36
f 10 36 35
f 11 12 37
f 11 37 36
f 12 13 38
f 12 38 37
f 13 14 39
f 13 39 38
f 14 15 40
f 14 40 39
f 15 16 41
f 15 41 40
f 16 17 42
f 16 42 41
f 17 18 43
f 17 43 42
f 18 19 44
f 18 44 43
f 19 20 45
f 19 45 44
f 20 21 46
f 20 46 45
f 21 22 47
f 21 47 46
f 22 23 48
f 22 48 47
f 23 24 49
f 23 49 48
f 24 25 50
f 24 50 49
f 26 27 52
f 26 52 51
f 27 28 53
f 27 53 52
f 28 29 54
f 28 54 53
f 29 30 55
f 29 55 54
f 30 31 56
f 30 56 55
f 31 32 57
f 31 57 56
f 32 33 58
f 32 58 57
f 33 34 59
f 33 59 58
f 34 35 60
f 34 60 59
f 35 36 61
f 35 61 60
f 36 37 62
f 36 62 61
f 37 38 63
f 37 63 62
f 38 39 64
f 38 64 63
f 39 40 65
f 39 65 64
f 40 41 66
f 40 66 65
f 41 42 67
f 41 67 66
f 42 43 68
f 42 68 67
f 43 44 69
f 43 69 68
f 44 45 70
f 44 70 69
f 45 46 71
f 45 71 70
f 46 47 72
f 46 72 71
f 47 48 73
f 47 73 72
f 48 49 74
f 48 74 73
f 49 50 75
f 49 75 74
f 51 52 77
f 51 77 76
f 52 53 78
f 52 78 77
f 53 54 79
f 53 79 78
f 54 55 80
f 54 80 79
f 55 56 81
f 55 81 80
f 56 57 82
f 56 82 81
f 57 58 83
f 57 83 82
f 58 59 84
f 58 84 83
f 59 60 85
f 59 85 84
f 60 61 86
f 60 86 85
f 61 62 87
f 61 87 86
f 62 63 88
f 62 88 87
f 63 64 89
f 63 89 88
f 64 65 90
f 64 90 89
f 65 66 91
f 65 91 90
f 66 67 92
f 66 92 91
f 67 68 93
f 67 93 92
f 68 69 94
f 68 94 93
f 69 70 95
f 69 95 94
f 70 71 96
f 70 96 95
f 71 72 97
f 71 97 96
f 72 73 98
f 72 98 97
f 73 74 99
f 73 99 98
f 74 75 100
f 74 100 99
f 76 77 102
f 76 102 101
f 77 78 103
f 77 103 102
f 78 79 104
f 78 104 103
f 79 80 105
f 79 105 104
f 80 81 106
f 80 106 105
f 81 82 107
f 81 107 106
f 82 83 108
f 82 108 107
f 83 84 109
f 83 109 108
f 84 85 110
f 84 110 109
f 85 86 111
f 85 111 110
f 86 87 112
f 86 112 111
f 87 88 113
f 87 113 112
f 88 89 114
f 88 114 113
f 89 90 115
f 89 115 114
f 90 91 116
f 90 116 115
f 91 92 117
f 91 117 116
f 92 93 118
f 92 118 117
f 93 94 119
f 93 119 118
f 94 95 120
f 94 120 119
f 95 96 121
f 95 121 120
f 96 97 122
f 96 122 121
f 97 98 123
f 97 123 122
f 98 99 124
f 98 124 123
f 99 100 125
f 99 125 124
f 101 102 127
f 101 127 126
f 102 103 128
f 102 128 127
f 103 104 129
f 103 129 128
f 104 105 130
f 104 130 129
f 105 106 131
f 105 131 130
f 106 107 132
f 106 132 131
f 107 108 133
f 107 133 132
f 108 109 134
f 108 134 133
f 109 110 135
f 109 135 134
f 110 111 136
f 110 136 135
f 111 112 137
f 111 137 136
f 112 113 138
f 112 138 137
f 113 114 139
f 113 139 138
f 114 115 140
f 114 140 139
f 115 116 141
f 115 141 140
f 116 117 142
f 116 142 141
f 117 118 143
f 117 143 142
f 118 119 144
f 118 144 143
f 119 120 145
f 119 145 144
f 120 121 146
f 120 146 145
f 121 122 147
f 121 147 146
f 122 123 148
f 122 148 147
f 123 124 149
f 123 149 148
f 124 125 150
f 124 150 149
f 126 127 152
f 126 152 151
f 127 128 153
f 127 153 152
f 128 129 154
f 128 154 153
f 129 130 155
f 129 155 154
f 130 131 156
f 130 156 155
f 131 132 157
f 131 157 156
f 132 133 158
f 132 158 157
f 133 134 159
f 133 159 158
f 134 135 160
f 134 160 159
f 135 136 161
f 135 161 160
f 136 137 162
f 136 162 161
f 137 138 163
f 137 163 162
f 138 139 164
f 138 164 163
f 139 140 165
f 139 165 164
f 140 141 166
f 140 166 165
f 141 142 167
f 141 167 166
f 142 143 168
f 142 168 167
f 143 144 169
f 143 169 168
f 144 145 170
f 144 170 169
f 145 146 171
f 145 171 170
f 146 147 172
f 146 172 171
f 147 148 173
f 147 173 172
f 148 149 174
f 148 174 173
f 149 150 175
f 149 175 174
f 151 152 177
f 151 177 176
f 152 153 178
f 152 178 177
f 153 154 179
f 153 179 178
f 154 155 180
f 154 180 179
f 155 156 181
f 155 181 180
f 156 157 182
f 156 182 181
f 157 158 183
f 157 183 182
f 158 159 184
f 158 184 183
f 159 160 185
f 159 185 184
f 160 161 186
f 160 186 185
f 161 162 187
f 161 187 186
f 162 163 188
f 162 188 187
f 163 164 189
f 163 189 188
f 164 165 190
f 164 190 189
f 165 166 191
f 165 191 190
f 166 167 192
f 166 192 191
f 167 168 193
f 167 193 192
f 168 169 194
f 168 194 193
f 169 170 195
f 169 195 194
f 170 171 196
f 170 196 195
f 171 172 197
f 171 197 196
f 172 173 198
f 172 198 197
f 173 174 199
f 173 199 198
f 174 175 200
f 174 200 199
f 176 177 202
f 176 202 201
f 177 178 203
f 177 203 202
f 178 179 204
f 178 204 203
f 179 180 205
f 179 205 204
f 180 181 206
f 180 206 205
f 181 182 207
f 181 207 206
f 182 183 208
f 182 208 207
f 183 184 209
f 183 209 208
f 184 185 210
f 184 210 209
f 185 186 211
f 185 211 210
f 186 187 212
f 186 212 211
f 187 188 213
f 187 213 212
f 188 189 214
f 188 214 213
f 189 190 215
f 189 215 214
f 190 191 216
f 190 216 215
f 191 192 217
f 191 217 216
f 192 193 218
f 192 218 217
f 193 194 219
f 193 219 218
f 194 195 220
f 194 220 219
f 195 196 221
f 195 221 220
f 196 197 222
f 196 222 221
f 197 198 223
f 197 223 222
f 198 199 224
f 198 224 223
f 199 200 225
f 199 225 224
f 201 202 227
f 201 227 226
f 202 203 228
f 202 228 227
f 203 204 229
f 203 229 228
f 204 205 230
f 204 230 229
f 205 206 231
f 205 231 230
f 206 207 232
f 206 232 231
f 207 208 233
f 207 233 232
f 208 209 234
f 208 234 233
f 209 210 235
f 209 235 234
f 210 211 236
f 210 236 235
f 211 212 237
f 211 237 236
f 212 213 238
f 212 238 237
f 213 214 239
f 213 239 238
f 214 215 240
f 214 240 239
f 215 216 241
f 215 241 240
f 216 217 242
f 216 242 241
f 217 218 243
f 217 243 242
f 218 219 244
f 218 244 243
f 219 220 245
f 219 245 244
f 220 221 246
f 220 246 245
f 221 222 247
f 221 247 246
f 222 223 248
f 222 248 247
f 223 224 249
f 223 249 248
f 224 225 250
f 224 250 249
f 226 227 252
f 226 252 251
f 227 228 253
f 227 253 252
f 228 229 254
f 228 254 253
f 229 230 255
f 229 255 254
f 230 231 256
f 230 256 255
f 231 232 257
f 231 257 256
f 232 233 258
f 232 258 257
f 233 234 259
f 233 259 258
f 234 235 260
f 234 260 259
f 235 236 261
f 235 261 260
f 236 237 262
f 236 262 261
f 237 238 263
f 237 263 262
f 238 239 264
f 238 264 263
f 239 240 265
f 239 265 264
f 240 241 266
f 240 266 265
f 241 242 267
f 241 267 266
f 242 243 268
f 242 268 267
f 243 244 269
f 243 269 268
f 244 245 270
f 244 270 269
f 245 246 271
f 245 271 270
f 246 247 272
f 246 272 271
f 247 248 273
f 247 273 272
f 248 249 274
f 248 274 273
f 249 250 275
f 249 275 274
f 251 252 277
f 251 277 276
f 252 253 278
f 252 278 277
f 253 254 279
f 253 279 278
f 254 255 280
f 254 280 279
f 255 256 281
f 255 281 280
f 256 257 282
f 256 282 281
f 257 258 283
f 257 283 282
f 258 259 284
f 258 284 283
f 259 260 285
f 259 285 284
f 260 261 286
f 260 286 285
f 261 262 287
f 261 287 286
f 262 263 288
f 262 288 287
f 263 264 289
f 263 289 288
f 264 265 290
f 264 290 289
f 265 266 291
f 265 291 290
f 266 267 292
f 266 292 291
f 267 268 293
f 267 293 292
f 268 269 294
f 268 294 293
f 269 270 295
f 269 295 294
f 270 271 296
f 270 296 295
f 271 272 297
f 271 297 296
f 272 273 298
f 272 298 297
f 273 274 299
f 273 299 298
f 274 275 300
f 274 300 299
f 276 277 302
f 276 302 301
f 277 278 303
f 277 303 302
f 278 279 304
f 278 304 303
f 279 280 305
f 279 305 304
f 280 281 306
f 280 306 305
f 281 282 307
f 281 307 306
f 282 283 308
f 282 308 307
f 283 284 309
f 283 309 308
f 284 285 310
f 284 310 309
f 285 286 311
f 285 311 310
f 286 287 312
f 286 312 311
f 287 288 313
f 287 313 312
f 288 289 314
f 288 314 313
f 289 290 315
f 289 315 314
f 290 291 316
f 290 316 315
f 291 292 317
f 291 317 316
f 292 293 318
f 292 318 317
f 293 294 319
f 293 319 318
f 294 295 320
f 294 320 319
f 295 296 321
f 295 321 320
f 296 297 322
f 296 322 321
f 297 298 323
f 297 323 322
f 298 299 324
f 298 324 323
f 299 300 325
f 299 325 324
f 301 302 327
f 301 327 326
f 302 303 328
f 302 328 327
f 303 304 329
f 303 329 328
f 304 305 330
f 304 330 329
f 305 306 331
f 305 331 330
f 306 307 332
f 306 332 331
f 307 308 333
f 307 333 332
f 308 309 334
f 308 334 333
f 309 310 335
f 309 335 334
f 310 311 336
f 310 336 335
f 311 312 337
f 311 337 336
f 312 313 338
f 312 338 337
f 313 314 339
f 313 339 338
f 314 315 340
f 314 340 339
f 315 316 341
f 315 341 340
f 316 317 342
f 316 342 341
f 317 318 343
f 317 343 342
f 318 319 344
f 318 344 343
f 319 320 345
f 319 345 344
f 320 321 346
f 320 346 345
f 321 322 347
f 321 347 346
f 322 323 348
f 322 348 347
f 323 324 349
f 323 349 348
f 324 325 350
f 324 350 349
f 326 327 352
f 326 352 351
f 327 328 353
f 327 353 352
f 328 329 354
f 328 354 353
f 329 330 355
f 329 355 354
f 330 331 356
f 330 356 355
f 331 332 357
f 331 357 356
f 332 333 358
f 332 358 357
f 333 334 359
f 333 359 358
f 334 335 360
f 334 360 359
f 335 336 361
f 335 361 360
f 336 337 362
f 336 362 361
f 337 338 363
f 337 363 362
f 338 339 364
f 338 364 363
f 339 340 365
f 339 365 364
f 340 341 366
f 340 366 365
f 341 342 367
f 341 367 366
f 342 343 368
f 342 368 367
f 343 344 369
f 343 369 368
f 344 345 370
f 344 370 369
f 345 346 371
f 345 371 370
f 346 347 372
f 346 372 371
f 347 348 373
f 347 373 372
f 348 349 374
f 348 374 373
f 349 350 375
f 349 375 374
f 351 352 377
f 351 377 376
f 352 353 378
f 352 378 377
f 353 354 379
f 353 379 378
f 354 355 380
f 354 380 379
f 355 356 381
f 355 381 380
f 356 357 382
f 356 382 381
f 357 358 383
f 357 383 382
f 358 359 384
f 358 384 383
f 359 360 385
f 359 385 384
f 360 361 386
f 360 386 385
f 361 362 387
f 361 387 386
f 362 363 388
f 362 388 387
f 363 364 389
f 363 389 388
f 364 365 390
f 364 390 389
f 365 366 391
f 365 391 390
f 366 367 392
f 366 392 391
f 367 368 393
f 367 393 392
f 368 369 394
f 368 394 393
f 369 370 395
f 369 395 394
f 370 371 396
f 370 396 395
f 371 372 397
f 371 397 396
f 372 373 398
f 372 398 397
f 373 374 399
f 373 399 398
f 374 375 400
f 374 400 399
f 376 377 402
f 376 402 401
f 377 378 403
f 377 403 402
f 378 379 404
f 378 404 403
f 379 380 405
f 379 405 404
f 380 381 406
f 380 406 405
f 381 382 407
f 381 407 406
f 382 383 408
f 382 408 407
f 383 384 409
f 383 409 408
f 384 385 410
f 384 410 409
f 385 386 411
f 385 411 410
f 386 387 412
f 386 412 411
f 387 388 413
f 387 413 412
f 388 389 414
f 388 414 413
f 389 390 415
f 389 415 414
f 390 391 416
f 390 416 415
f 391 392 417
f 391 417 416
f 392 393 418
f 392 418 417
f 393 394 419
f 393 419 418
f 394 395 420
f 394 420 419
f 395 396 421
f 395 421 420
f 396 397 422
f 396 422 421
f 397 398 423
f 397 423 422
f 398 399 424
f 398 424 423
f 399 400 425
f 399 425 424
f 401 402 427
f 401 427 426
f 402 403 428
f 402 428 427
f 403 404 429
f 403 429 428
f 404 405 430
f 404 430 429
f 405 406 431
f 405 431 430
f 406 407 432
f 406 432 431
f 407 408 433
f 407 433 432
f 408 409 434
f 408 434 433
f 409 410 435
f 409 435 434
f 410 411 436
f 410 436 435
f 411 412 437
f 411 437 436
f 412 413 438
f 412 438 437
f 413 414 439
f 413 439 438
f 414 415 440
f 414 440 439
f 415 416 441
f 415 441 440
f 416 417 442
f 416 442 441
f 417 418 443
f 417 443 442
f 418 419 444
f 418 444 443
f 419 420 445
f 419 445 444
f 420 421 446
f 420 446 445
f 421 422 447
f 421 447 446
f 422 423 448
f 422 448 447
f 423 424 449
f 423 449 448
f 424 425 450
f 424 450 449
f 426 427 452
f 426 452 451
f 427 428 453
f 427 453 452
f 428 429 454
f 428 454 453
f 429 430 455
f 429 455 454
f 430 431 456
f 430 456 455
f 431 432 457
f 431 457 456
f 432 433 458
f 432 458 457
f 433 434 459
f 433 459 458
f 434 435 460
f 434 460 459
f 435 436 461
f 435 461 460
f 436 437 462
f 436 462 461
f 437 438 463
f 437 463 462
f 438 439 464
f 438 464 463
f 439 440 465
f 439 465 464
f 440 441 466
f 440 466 465
f 441 442 467
f 441 467 466
f 442 443 468
f 442 468 467
f 443 444 469
f 443 469 468
f 444 445 470
f 444 470 469
f 445 446 471
f 445 471 470
f 446 447 472
f 446 472 471
f 447 448 473
f 447 473 472
f 448 449 474
f 448 474 473
f 449 450 475
f 449 475 474
f 451 452 477
f 451 477 476
f 452 453 478
f 452 478 477
f 453 454 479
f 453 479 478
f 454 455 480
f 454 480 479
f 455 456 481
f 455 481 480
f 456 457 482
f 456 482 481
f 457 458 483
f 457 483 482
f 458 459 484
f 458 484 483
f 459 460 485
f 459 485 484
f 460 461 486
f 460 486 485
f 461 462 487
f 461 487 486
f 462 463 488
f 462 488 487
f 463 464 489
f 463 489 488
f 464 465 490
f 464 490 489
f 465 466 491
f 465 491 490
f 466 467 492
f 466 492 491
f 467 468 493
f 467 493 492
f 468 469 494
f 468 494 493
f 469 470 495
f 469 495 494
f 470 471 496
f 470 496 495
f 471 472 497
f 471 497 496
f 472 473 498
f 472 498 497
f 473 474 499
f 473 499 498
f 474 475 500
f 474 500 499
f 476 477 502
f 476 502 501
f 477 478 503
f 477 503 502
f 478 479 504
f 478 504 503
f 479 480 505
f 479 505 504
f 480 481 506
f 480 506 505
f 481 482 507
f 481 507 506
f 482 483 508
f 482 508 507
f 483 484 509
f 483 509 508
f 484 485 510
f 484 510 509
f 485 486 511
f 485 511 510
f 486 487 512
f 486 512 511
f 487 488 513
f 487 513 512
f 488 489 514
f 488 514 513
f 489 490 515
f 489 515 514
f 490 491 516
f 490 516 515
f 491 492 517
f 491 517 516
f 492 493 518
f 492 518 517
f 493 494 519
f 493 519 518
f 494 495 520
f 494 520 519
f 495 496 521
f 495 521 520
f 496 497 522
f 496 522 521
f 497 498 523
f 497 523 522
f 498 499 524
f 498 524 523
f 499 500 525
f 499 525 524
f 501 502 527
f 501 527 526
f 502 503 528
f 502 528 527
f 503 504 529
f 503 529 528
f 504 505 530
f 504 530 529
f 505 506 531
f 505 531 530
f 506 507 532
f 506 532 531
f 507 508 533
f 507 533 532
f 508 509 534
f 508 534 533
f 509 510 535
f 509 535 534
f 510 511 536
f 510 536 535
f 511 512 537
f 511 537 536
f 512 513 538
f 512 538 537
f 513 514 539
f 513 539 538
f 514 515 540
f 514 540 539
f 515 516 541
f 515 541 540
f 516 517 542
f 516 542 541
f 517 518 543
f 517 543 542
f 518 519 544
f 518 544 543
f 519 520 545
f 519 545 544
f 520 521 546
f 520 546 545
f 521 522 547
f 521 547 546
f 522 523 548
f 522 548 547
f 523 524 549
f 523 549 548
f 524 525 550
f 524 550 549
f 526 527 552
f 526 552 551
f 527 528 553
f 527 553 552
f 528 529 554
f 528 554 553
f 529 530 555
f 529 555 554
f 530 531 556
f 530 556 555
f 531 532 557
f 531 557 556
f 532 533 558
f 532 558 557
f 533 534 559
f 533 559 558
f 534 535 560
f 534 560 559
f 535 536 561
f 535 561 560
f 536 537 562
f 536 562 561
f 537 538 563
f 537 563 562
f 538 539 564
f 538 564 563
f 539 540 565
f 539 565 564
f 540 541 566
f 540 566 565
f 541 542 567
f 541 567 566
f 542 543 568
f 542 568 567
f 543 544 569
f 543 569 568
f 544 545 570
f 544 570 569
f 545 546 571
f 545 571 570
f 546 547 572
f 546 572 571
f 547 548 573
f 547 573 572
f 548 549 574
f 548 574 573
f 549 550 575
f 549 575 574
f 551 552 577
f 551 577 576
f 552 553 578
f 552 578 577
f 553 554 579
f 553 579 578
f 554 555 580
f 554 580 579
f 555 556 581
f 555 581 580
f 556 557 582
f 556 582 581
f 557 558 583
f 557 583 582
f 558 559 584
f 558 584 583
f 559 560 585
f 559 585 584
f 560 561 586
f 560 586 585
f 561 562 587
f 561 587 586
f 562 563 588
f 562 588 587
f 563 564 589
f 563 589 588
f 564 565 590
f 564 590 589
f 565 566 591
f 565 591 590
f 566 567 592
f 566 592 591
f 567 568 593
f 567 593 592
f 568 569 594
f 568 594 593
f 569 570 595
f 569 595 594
f 570 571 596
f 570 596 595
f 571 572 597
f 571 597 596
f 572 573 598
f 572 598 597
f 573 574 599
f 573 599 598
f 574 575 600
f 574 600 599
f 576 577 602
f 576 602 601
f 577 578 603
f 577 603 602
f 578 579 604
f 578 604 603
f 579 580 605
f 579 605 604
f 580 581 606
f 580 606 605
f 581 582 607
f 581 607 606
f 582 583 608
f 582 608 607
f 583 584 609
f 583 609 608
f 584 585 610
f 584 610 609
f 585 586 611
f 585 611 610
f 586 587 612
f 586 612 611
f 587 588 613
f 587 613 612
f 588 589 614
f 588 614 613
f 589 590 615
f 589 615 614
f 590 591 616
f 590 616 615
f 591 592 617
f 591 617 616
f 592 593 618
f 592 618 617
f 593 594 619
f 593 619 618
f 594 595 620
f 594 620 619
f 595 596 621
f 595 621 620
f 596 597 622
f 596 622 621
f 597 598 623
f 597 623 622
f 598 599 624
f 598 624 623
f 599 600 625
f 599 625 624
