o [4B] 3D Diagram - S2-04 Group G_142
v -192.025504 -192.025504 33248.910967
v -176.023379 -192.025504 31746.529606
v -160.021254 -192.025504 30244.148246
v -144.019128 -192.025504 28741.766886
v -128.017003 -192.025504 27239.385526
v -112.014878 -192.025504 25737.004165
v -96.012752 -192.025504 24234.622805
v -80.010627 -192.025504 22732.241445
v -64.008501 -192.025504 21229.860085
v -48.006376 -192.025504 19727.478724
v -32.004251 -192.025504 18225.097364
v -16.002125 -192.025504 16722.716004
v 0.000000 -192.025504 15220.334644
v 16.002125 -192.025504 13717.953283
v 32.004251 -192.025504 12215.571923
v 48.006376 -192.025504 10713.190563
v 64.008501 -192.025504 9210.809203
v 80.010627 -192.025504 7708.427842
v 96.012752 -192.025504 6206.046482
v 112.014878 -192.025504 4703.665122
v 128.017003 -192.025504 3201.283762
v 144.019128 -192.025504 1698.902401
v 160.021254 -192.025504 196.521041
v 176.023379 -192.025504 -1305.860319
v 192.025504 -192.025504 -2808.241679
v -192.025504 -176.023379 32924.867928
v -176.023379 -176.023379 31422.486568
v -160.021254 -176.023379 29920.105208
v -144.019128 -176.023379 28417.723847
v -128.017003 -176.023379 26915.342487
v -112.014878 -176.023379 25412.961127
v -96.012752 -176.023379 23910.579767
v -80.010627 -176.023379 22408.198406
v -64.008501 -176.023379 20905.817046
v -48.006376 -176.023379 19403.435686
v -32.004251 -176.023379 17901.054326
v -16.002125 -176.023379 16398.672965
v 0.000000 -176.023379 14896.291605
v 16.002125 -176.023379 13393.910245
v 32.004251 -176.023379 11891.528885
v 48.006376 -176.023379 10389.147524
v 64.008501 -176.023379 8886.766164
v 80.010627 -176.023379 7384.384804
v 96.012752 -176.023379 5882.003444
v 112.014878 -176.023379 4379.622083
v 128.017003 -176.023379 2877.240723
v 144.019128 -176.023379 1374.859363
v 160.021254 -176.023379 -127.521997
v 176.023379 -176.023379 -1629.903358
v 192.025504 -176.023379 -3132.284718
v -192.025504 -160.021254 32600.824890
v -176.023379 -160.021254 31098.443529
v -160.021254 -160.021254 29596.062169
v -144.019128 -160.021254 28093.680809
v -128.017003 -160.021254 26591.299449
v -112.014878 -160.021254 25088.918088
v -96.012752 -160.021254 23586.536728
v -80.010627 -160.021254 22084.155368
v -64.008501 -160.021254 20581.774008
v -48.006376 -160.021254 19079.392647
v -32.004251 -160.021254 17577.011287
v -16.002125 -160.021254 16074.629927
v 0.000000 -160.021254 14572.248567
v 16.002125 -160.021254 13069.867206
v 32.004251 -160.021254 11567.485846
v 48.006376 -160.021254 10065.104486
v 64.008501 -160.021254 8562.723126
v 80.010627 -160.021254 7060.341765
v 96.012752 -160.021254 5557.960405
v 112.014878 -160.021254 4055.579045
v 128.017003 -160.021254 2553.197685
v 144.019128 -160.021254 1050.816324
v 160.021254 -160.021254 -451.565036
v 176.023379 -160.021254 -1953.946396
v 192.025504 -160.021254 -3456.327756
v -192.025504 -144.019128 32276.781851
v -176.023379 -144.019128 30774.400491
v -160.021254 -144.019128 29272.019131
v -144.019128 -144.019128 27769.637770
v -128.017003 -144.019128 26267.256410
v -112.014878 -144.019128 24764.875050
v -96.012752 -144.019128 23262.493690
v -80.010627 -144.019128 21760.112329
v -64.008501 -144.019128 20257.730969
v -48.006376 -144.019128 18755.349609
v -32.004251 -144.019128 17252.968249
v -16.002125 -144.019128 15750.586888
v 0.000000 -144.019128 14248.205528
v 16.002125 -144.019128 12745.824168
v 32.004251 -144.019128 11243.442808
v 48.006376 -144.019128 9741.061447
v 64.008501 -144.019128 8238.680087
v 80.010627 -144.019128 6736.298727
v 96.012752 -144.019128 5233.917367
v 112.014878 -144.019128 3731.536006
v 128.017003 -144.019128 2229.154646
v 144.019128 -144.019128 726.773286
v 160.021254 -144.019128 -775.608074
v 176.023379 -144.019128 -2277.989435
v 192.025504 -144.019128 -3780.370795
v -192.025504 -128.017003 31952.738813
v -176.023379 -128.017003 30450.357453
v -160.021254 -128.017003 28947.976092
v -144.019128 -128.017003 27445.594732
v -128.017003 -128.017003 25943.213372
v -112.014878 -128.017003 24440.832011
v -96.012752 -128.017003 22938.450651
v -80.010627 -128.017003 21436.069291
v -64.008501 -128.017003 19933.687931
v -48.006376 -128.017003 18431.306570
v -32.004251 -128.017003 16928.925210
v -16.002125 -128.017003 15426.543850
v 0.000000 -128.017003 13924.162490
v 16.002125 -128.017003 12421.781129
v 32.004251 -128.017003 10919.399769
v 48.006376 -128.017003 9417.018409
v 64.008501 -128.017003 7914.637049
v 80.010627 -128.017003 6412.255688
v 96.012752 -128.017003 4909.874328
v 112.014878 -128.017003 3407.492968
v 128.017003 -128.017003 1905.111608
v 144.019128 -128.017003 402.730247
v 160.021254 -128.017003 -1099.651113
v 176.023379 -128.017003 -2602.032473
v 192.025504 -128.017003 -4104.413833
v -192.025504 -112.014878 31628.695774
v -176.023379 -112.014878 30126.314414
v -160.021254 -112.014878 28623.933054
v -144.019128 -112.014878 27121.551694
v -128.017003 -112.014878 25619.170333
v -112.014878 -112.014878 24116.788973
v -96.012752 -112.014878 22614.407613
v -80.010627 -112.014878 21112.026252
v -64.008501 -112.014878 19609.644892
v -48.006376 -112.014878 18107.263532
v -32.004251 -112.014878 16604.882172
v -16.002125 -112.014878 15102.500811
v 0.000000 -112.014878 13600.119451
v 16.002125 -112.014878 12097.738091
v 32.004251 -112.014878 10595.356731
v 48.006376 -112.014878 9092.975370
v 64.008501 -112.014878 7590.594010
v 80.010627 -112.014878 6088.212650
v 96.012752 -112.014878 4585.831290
v 112.014878 -112.014878 3083.449929
v 128.017003 -112.014878 1581.068569
v 144.019128 -112.014878 78.687209
v 160.021254 -112.014878 -1423.694151
v 176.023379 -112.014878 -2926.075512
v 192.025504 -112.014878 -4428.456872
v -192.025504 -96.012752 31304.652736
v -176.023379 -96.012752 29802.271376
v -160.021254 -96.012752 28299.890015
v -144.019128 -96.012752 26797.508655
v -128.017003 -96.012752 25295.127295
v -112.014878 -96.012752 23792.745935
v -96.012752 -96.012752 22290.364574
v -80.010627 -96.012752 20787.983214
v -64.008501 -96.012752 19285.601854
v -48.006376 -96.012752 17783.220494
v -32.004251 -96.012752 16280.839133
v -16.002125 -96.012752 14778.457773
v 0.000000 -96.012752 13276.076413
v 16.002125 -96.012752 11773.695052
v 32.004251 -96.012752 10271.313692
v 48.006376 -96.012752 8768.932332
v 64.008501 -96.012752 7266.550972
v 80.010627 -96.012752 5764.169611
v 96.012752 -96.012752 4261.788251
v 112.014878 -96.012752 2759.406891
v 128.017003 -96.012752 1257.025531
v 144.019128 -96.012752 -245.355830
v 160.021254 -96.012752 -1747.737190
v 176.023379 -96.012752 -3250.118550
v 192.025504 -96.012752 -4752.499910
v -192.025504 -80.010627 30980.609697
v -176.023379 -80.010627 29478.228337
v -160.021254 -80.010627 27975.846977
v -144.019128 -80.010627 26473.465617
v -128.017003 -80.010627 24971.084256
v -112.014878 -80.010627 23468.702896
v -96.012752 -80.010627 21966.321536
v -80.010627 -80.010627 20463.940176
v -64.008501 -80.010627 18961.558815
v -48.006376 -80.010627 17459.177455
v -32.004251 -80.010627 15956.796095
v -16.002125 -80.010627 14454.414735
v 0.000000 -80.010627 12952.033374
v 16.002125 -80.010627 11449.652014
v 32.004251 -80.010627 9947.270654
v 48.006376 -80.010627 8444.889293
v 64.008501 -80.010627 6942.507933
v 80.010627 -80.010627 5440.126573
v 96.012752 -80.010627 3937.745213
v 112.014878 -80.010627 2435.363852
v 128.017003 -80.010627 932.982492
v 144.019128 -80.010627 -569.398868
v 160.021254 -80.010627 -2071.780228
v 176.023379 -80.010627 -3574.161589
v 192.025504 -80.010627 -5076.542949
v -192.025504 -64.008501 30656.566659
v -176.023379 -64.008501 29154.185299
v -160.021254 -64.008501 27651.803938
v -144.019128 -64.008501 26149.422578
v -128.017003 -64.008501 24647.041218
v -112.014878 -64.008501 23144.659858
v -96.012752 -64.008501 21642.278497
v -80.010627 -64.008501 20139.897137
v -64.008501 -64.008501 18637.515777
v -48.006376 -64.008501 17135.134417
v -32.004251 -64.008501 15632.753056
v -16.002125 -64.008501 14130.371696
v 0.000000 -64.008501 12627.990336
v 16.002125 -64.008501 11125.608976
v 32.004251 -64.008501 9623.227615
v 48.006376 -64.008501 8120.846255
v 64.008501 -64.008501 6618.464895
v 80.010627 -64.008501 5116.083534
v 96.012752 -64.008501 3613.702174
v 112.014878 -64.008501 2111.320814
v 128.017003 -64.008501 608.939454
v 144.019128 -64.008501 -893.441907
v 160.021254 -64.008501 -2395.823267
v 176.023379 -64.008501 -3898.204627
v 192.025504 -64.008501 -5400.585987
v -192.025504 -48.006376 30332.523620
v -176.023379 -48.006376 28830.142260
v -160.021254 -48.006376 27327.760900
v -144.019128 -48.006376 25825.379540
v -128.017003 -48.006376 24322.998179
v -112.014878 -48.006376 22820.616819
v -96.012752 -48.006376 21318.235459
v -80.010627 -48.006376 19815.854099
v -64.008501 -48.006376 18313.472738
v -48.006376 -48.006376 16811.091378
v -32.004251 -48.006376 15308.710018
v -16.002125 -48.006376 13806.328658
v 0.000000 -48.006376 12303.947297
v 16.002125 -48.006376 10801.565937
v 32.004251 -48.006376 9299.184577
v 48.006376 -48.006376 7796.803217
v 64.008501 -48.006376 6294.421856
v 80.010627 -48.006376 4792.040496
v 96.012752 -48.006376 3289.659136
v 112.014878 -48.006376 1787.277775
v 128.017003 -48.006376 284.896415
v 144.019128 -48.006376 -1217.484945
v 160.021254 -48.006376 -2719.866305
v 176.023379 -48.006376 -4222.247666
v 192.025504 -48.006376 -5724.629026
v -192.025504 -32.004251 30008.480582
v -176.023379 -32.004251 28506.099222
v -160.021254 -32.004251 27003.717861
v -144.019128 -32.004251 25501.336501
v -128.017003 -32.004251 23998.955141
v -112.014878 -32.004251 22496.573781
v -96.012752 -32.004251 20994.192420
v -80.010627 -32.004251 19491.811060
v -64.008501 -32.004251 17989.429700
v -48.006376 -32.004251 16487.048340
v -32.004251 -32.004251 14984.666979
v -16.002125 -32.004251 13482.285619
v 0.000000 -32.004251 11979.904259
v 16.002125 -32.004251 10477.522899
v 32.004251 -32.004251 8975.141538
v 48.006376 -32.004251 7472.760178
v 64.008501 -32.004251 5970.378818
v 80.010627 -32.004251 4467.997458
v 96.012752 -32.004251 2965.616097
v 112.014878 -32.004251 1463.234737
v 128.017003 -32.004251 -39.146623
v 144.019128 -32.004251 -1541.527984
v 160.021254 -32.004251 -3043.909344
v 176.023379 -32.004251 -4546.290704
v 192.025504 -32.004251 -6048.672064
v -192.025504 -16.002125 29684.437543
v -176.023379 -16.002125 28182.056183
v -160.021254 -16.002125 26679.674823
v -144.019128 -16.002125 25177.293463
v -128.017003 -16.002125 23674.912102
v -112.014878 -16.002125 22172.530742
v -96.012752 -16.002125 20670.149382
v -80.010627 -16.002125 19167.768022
v -64.008501 -16.002125 17665.386661
v -48.006376 -16.002125 16163.005301
v -32.004251 -16.002125 14660.623941
v -16.002125 -16.002125 13158.242581
v 0.000000 -16.002125 11655.861220
v 16.002125 -16.002125 10153.479860
v 32.004251 -16.002125 8651.098500
v 48.006376 -16.002125 7148.717140
v 64.008501 -16.002125 5646.335779
v 80.010627 -16.002125 4143.954419
v 96.012752 -16.002125 2641.573059
v 112.014878 -16.002125 1139.191699
v 128.017003 -16.002125 -363.189662
v 144.019128 -16.002125 -1865.571022
v 160.021254 -16.002125 -3367.952382
v 176.023379 -16.002125 -4870.333743
v 192.025504 -16.002125 -6372.715103
v -192.025504 0.000000 29360.394505
v -176.023379 0.000000 27858.013145
v -160.021254 0.000000 26355.631784
v -144.019128 0.000000 24853.250424
v -128.017003 0.000000 23350.869064
v -112.014878 0.000000 21848.487704
v -96.012752 0.000000 20346.106343
v -80.010627 0.000000 18843.724983
v -64.008501 0.000000 17341.343623
v -48.006376 0.000000 15838.962263
v -32.004251 0.000000 14336.580902
v -16.002125 0.000000 12834.199542
v 0.000000 0.000000 11331.818182
v 16.002125 0.000000 9829.436822
v 32.004251 0.000000 8327.055461
v 48.006376 0.000000 6824.674101
v 64.008501 0.000000 5322.292741
v 80.010627 0.000000 3819.911381
v 96.012752 0.000000 2317.530020
v 112.014878 0.000000 815.148660
v 128.017003 0.000000 -687.232700
v 144.019128 0.000000 -2189.614060
v 160.021254 0.000000 -3691.995421
v 176.023379 0.000000 -5194.376781
v 192.025504 0.000000 -6696.758141
v -192.025504 16.002125 29036.351466
v -176.023379 16.002125 27533.970106
v -160.021254 16.002125 26031.588746
v -144.019128 16.002125 24529.207386
v -128.017003 16.002125 23026.826025
v -112.014878 16.002125 21524.444665
v -96.012752 16.002125 20022.063305
v -80.010627 16.002125 18519.681945
v -64.008501 16.002125 17017.300584
v -48.006376 16.002125 15514.919224
v -32.004251 16.002125 14012.537864
v -16.002125 16.002125 12510.156504
v 0.000000 16.002125 11007.775143
v 16.002125 16.002125 9505.393783
v 32.004251 16.002125 8003.012423
v 48.006376 16.002125 6500.631063
v 64.008501 16.002125 4998.249702
v 80.010627 16.002125 3495.868342
v 96.012752 16.002125 1993.486982
v 112.014878 16.002125 491.105622
v 128.017003 16.002125 -1011.275739
v 144.019128 16.002125 -2513.657099
v 160.021254 16.002125 -4016.038459
v 176.023379 16.002125 -5518.419819
v 192.025504 16.002125 -7020.801180
v -192.025504 32.004251 28712.308428
v -176.023379 32.004251 27209.927068
v -160.021254 32.004251 25707.545707
v -144.019128 32.004251 24205.164347
v -128.017003 32.004251 22702.782987
v -112.014878 32.004251 21200.401627
v -96.012752 32.004251 19698.020266
v -80.010627 32.004251 18195.638906
v -64.008501 32.004251 16693.257546
v -48.006376 32.004251 15190.876186
v -32.004251 32.004251 13688.494825
v -16.002125 32.004251 12186.113465
v 0.000000 32.004251 10683.732105
v 16.002125 32.004251 9181.350745
v 32.004251 32.004251 7678.969384
v 48.006376 32.004251 6176.588024
v 64.008501 32.004251 4674.206664
v 80.010627 32.004251 3171.825304
v 96.012752 32.004251 1669.443943
v 112.014878 32.004251 167.062583
v 128.017003 32.004251 -1335.318777
v 144.019128 32.004251 -2837.700137
v 160.021254 32.004251 -4340.081498
v 176.023379 32.004251 -5842.462858
v 192.025504 32.004251 -7344.844218
v -192.025504 48.006376 28388.265389
v -176.023379 48.006376 26885.884029
v -160.021254 48.006376 25383.502669
v -144.019128 48.006376 23881.121309
v -128.017003 48.006376 22378.739948
v -112.014878 48.006376 20876.358588
v -96.012752 48.006376 19373.977228
v -80.010627 48.006376 17871.595868
v -64.008501 48.006376 16369.214507
v -48.006376 48.006376 14866.833147
v -32.004251 48.006376 13364.451787
v -16.002125 48.006376 11862.070427
v 0.000000 48.006376 10359.689066
v 16.002125 48.006376 8857.307706
v 32.004251 48.006376 7354.926346
v 48.006376 48.006376 5852.544986
v 64.008501 48.006376 4350.163625
v 80.010627 48.006376 2847.782265
v 96.012752 48.006376 1345.400905
v 112.014878 48.006376 -156.980455
v 128.017003 48.006376 -1659.361816
v 144.019128 48.006376 -3161.743176
v 160.021254 48.006376 -4664.124536
v 176.023379 48.006376 -6166.505896
v 192.025504 48.006376 -7668.887257
v -192.025504 64.008501 28064.222351
v -176.023379 64.008501 26561.840991
v -160.021254 64.008501 25059.459630
v -144.019128 64.008501 23557.078270
v -128.017003 64.008501 22054.696910
v -112.014878 64.008501 20552.315550
v -96.012752 64.008501 19049.934189
v -80.010627 64.008501 17547.552829
v -64.008501 64.008501 16045.171469
v -48.006376 64.008501 14542.790109
v -32.004251 64.008501 13040.408748
v -16.002125 64.008501 11538.027388
v 0.000000 64.008501 10035.646028
v 16.002125 64.008501 8533.264668
v 32.004251 64.008501 7030.883307
v 48.006376 64.008501 5528.501947
v 64.008501 64.008501 4026.120587
v 80.010627 64.008501 2523.739227
v 96.012752 64.008501 1021.357866
v 112.014878 64.008501 -481.023494
v 128.017003 64.008501 -1983.404854
v 144.019128 64.008501 -3485.786214
v 160.021254 64.008501 -4988.167575
v 176.023379 64.008501 -6490.548935
v 192.025504 64.008501 -7992.930295
v -192.025504 80.010627 27740.179312
v -176.023379 80.010627 26237.797952
v -160.021254 80.010627 24735.416592
v -144.019128 80.010627 23233.035232
v -128.017003 80.010627 21730.653871
v -112.014878 80.010627 20228.272511
v -96.012752 80.010627 18725.891151
v -80.010627 80.010627 17223.509791
v -64.008501 80.010627 15721.128430
v -48.006376 80.010627 14218.747070
v -32.004251 80.010627 12716.365710
v -16.002125 80.010627 11213.984350
v 0.000000 80.010627 9711.602989
v 16.002125 80.010627 8209.221629
v 32.004251 80.010627 6706.840269
v 48.006376 80.010627 5204.458909
v 64.008501 80.010627 3702.077548
v 80.010627 80.010627 2199.696188
v 96.012752 80.010627 697.314828
v 112.014878 80.010627 -805.066532
v 128.017003 80.010627 -2307.447893
v 144.019128 80.010627 -3809.829253
v 160.021254 80.010627 -5312.210613
v 176.023379 80.010627 -6814.591973
v 192.025504 80.010627 -8316.973334
v -192.025504 96.012752 27416.136274
v -176.023379 96.012752 25913.754914
v -160.021254 96.012752 24411.373553
v -144.019128 96.012752 22908.992193
v -128.017003 96.012752 21406.610833
v -112.014878 96.012752 19904.229473
v -96.012752 96.012752 18401.848112
v -80.010627 96.012752 16899.466752
v -64.008501 96.012752 15397.085392
v -48.006376 96.012752 13894.704032
v -32.004251 96.012752 12392.322671
v -16.002125 96.012752 10889.941311
v 0.000000 96.012752 9387.559951
v 16.002125 96.012752 7885.178591
v 32.004251 96.012752 6382.797230
v 48.006376 96.012752 4880.415870
v 64.008501 96.012752 3378.034510
v 80.010627 96.012752 1875.653150
v 96.012752 96.012752 373.271789
v 112.014878 96.012752 -1129.109571
v 128.017003 96.012752 -2631.490931
v 144.019128 96.012752 -4133.872291
v 160.021254 96.012752 -5636.253652
v 176.023379 96.012752 -7138.635012
v 192.025504 96.012752 -8641.016372
v -192.025504 112.014878 27092.093235
v -176.023379 112.014878 25589.711875
v -160.021254 112.014878 24087.330515
v -144.019128 112.014878 22584.949155
v -128.017003 112.014878 21082.567794
v -112.014878 112.014878 19580.186434
v -96.012752 112.014878 18077.805074
v -80.010627 112.014878 16575.423714
v -64.008501 112.014878 15073.042353
v -48.006376 112.014878 13570.660993
v -32.004251 112.014878 12068.279633
v -16.002125 112.014878 10565.898273
v 0.000000 112.014878 9063.516912
v 16.002125 112.014878 7561.135552
v 32.004251 112.014878 6058.754192
v 48.006376 112.014878 4556.372832
v 64.008501 112.014878 3053.991471
v 80.010627 112.014878 1551.610111
v 96.012752 112.014878 49.228751
v 112.014878 112.014878 -1453.152609
v 128.017003 112.014878 -2955.533970
v 144.019128 112.014878 -4457.915330
v 160.021254 112.014878 -5960.296690
v 176.023379 112.014878 -7462.678050
v 192.025504 112.014878 -8965.059411
v -192.025504 128.017003 26768.050197
v -176.023379 128.017003 25265.668837
v -160.021254 128.017003 23763.287476
v -144.019128 128.017003 22260.906116
v -128.017003 128.017003 20758.524756
v -112.014878 128.017003 19256.143396
v -96.012752 128.017003 17753.762035
v -80.010627 128.017003 16251.380675
v -64.008501 128.017003 14748.999315
v -48.006376 128.017003 13246.617955
v -32.004251 128.017003 11744.236594
v -16.002125 128.017003 10241.855234
v 0.000000 128.017003 8739.473874
v 16.002125 128.017003 7237.092514
v 32.004251 128.017003 5734.711153
v 48.006376 128.017003 4232.329793
v 64.008501 128.017003 2729.948433
v 80.010627 128.017003 1227.567073
v 96.012752 128.017003 -274.814288
v 112.014878 128.017003 -1777.195648
v 128.017003 128.017003 -3279.577008
v 144.019128 128.017003 -4781.958368
v 160.021254 128.017003 -6284.339729
v 176.023379 128.017003 -7786.721089
v 192.025504 128.017003 -9289.102449
v -192.025504 144.019128 26444.007159
v -176.023379 144.019128 24941.625798
v -160.021254 144.019128 23439.244438
v -144.019128 144.019128 21936.863078
v -128.017003 144.019128 20434.481717
v -112.014878 144.019128 18932.100357
v -96.012752 144.019128 17429.718997
v -80.010627 144.019128 15927.337637
v -64.008501 144.019128 14424.956276
v -48.006376 144.019128 12922.574916
v -32.004251 144.019128 11420.193556
v -16.002125 144.019128 9917.812196
v 0.000000 144.019128 8415.430835
v 16.002125 144.019128 6913.049475
v 32.004251 144.019128 5410.668115
v 48.006376 144.019128 3908.286755
v 64.008501 144.019128 2405.905394
v 80.010627 144.019128 903.524034
v 96.012752 144.019128 -598.857326
v 112.014878 144.019128 -2101.238686
v 128.017003 144.019128 -3603.620047
v 144.019128 144.019128 -5106.001407
v 160.021254 144.019128 -6608.382767
v 176.023379 144.019128 -8110.764127
v 192.025504 144.019128 -9613.145488
v -192.025504 160.021254 26119.964120
v -176.023379 160.021254 24617.582760
v -160.021254 160.021254 23115.201400
v -144.019128 160.021254 21612.820039
v -128.017003 160.021254 20110.438679
v -112.014878 160.021254 18608.057319
v -96.012752 160.021254 17105.675958
v -80.010627 160.021254 15603.294598
v -64.008501 160.021254 14100.913238
v -48.006376 160.021254 12598.531878
v -32.004251 160.021254 11096.150517
v -16.002125 160.021254 9593.769157
v 0.000000 160.021254 8091.387797
v 16.002125 160.021254 6589.006437
v 32.004251 160.021254 5086.625076
v 48.006376 160.021254 3584.243716
v 64.008501 160.021254 2081.862356
v 80.010627 160.021254 579.480996
v 96.012752 160.021254 -922.900365
v 112.014878 160.021254 -2425.281725
v 128.017003 160.021254 -3927.663085
v 144.019128 160.021254 -5430.044445
v 160.021254 160.021254 -6932.425806
v 176.023379 160.021254 -8434.807166
v 192.025504 160.021254 -9937.188526
v -192.025504 176.023379 25795.921082
v -176.023379 176.023379 24293.539721
v -160.021254 176.023379 22791.158361
v -144.019128 176.023379 21288.777001
v -128.017003 176.023379 19786.395641
v -112.014878 176.023379 18284.014280
v -96.012752 176.023379 16781.632920
v -80.010627 176.023379 15279.251560
v -64.008501 176.023379 13776.870199
v -48.006376 176.023379 12274.488839
v -32.004251 176.023379 10772.107479
v -16.002125 176.023379 9269.726119
v 0.000000 176.023379 7767.344758
v 16.002125 176.023379 6264.963398
v 32.004251 176.023379 4762.582038
v 48.006376 176.023379 3260.200678
v 64.008501 176.023379 1757.819317
v 80.010627 176.023379 255.437957
v 96.012752 176.023379 -1246.943403
v 112.014878 176.023379 -2749.324763
v 128.017003 176.023379 -4251.706124
v 144.019128 176.023379 -5754.087484
v 160.021254 176.023379 -7256.468844
v 176.023379 176.023379 -8758.850204
v 192.025504 176.023379 -10261.231565
v -192.025504 192.025504 25471.878043
v -176.023379 192.025504 23969.496683
v -160.021254 192.025504 22467.115323
v -144.019128 192.025504 20964.733962
v -128.017003 192.025504 19462.352602
v -112.014878 192.025504 17959.971242
v -96.012752 192.025504 16457.589882
v -80.010627 192.025504 14955.208521
v -64.008501 192.025504 13452.827161
v -48.006376 192.025504 11950.445801
v -32.004251 192.025504 10448.064440
v -16.002125 192.025504 8945.683080
v 0.000000 192.025504 7443.301720
v 16.002125 192.025504 5940.920360
v 32.004251 192.025504 4438.538999
v 48.006376 192.025504 2936.157639
v 64.008501 192.025504 1433.776279
v 80.010627 192.025504 -68.605081
v 96.012752 192.025504 -1570.986442
v 112.014878 192.025504 -3073.367802
v 128.017003 192.025504 -4575.749162
v 144.019128 192.025504 -6078.130522
v 160.021254 192.025504 -7580.511883
v 176.023379 192.025504 -9082.893243
v 192.025504 192.025504 -10585.274603
f 1 2 27
f 1 27 26
f 2 3 28
f 2 28 27
f 3 4 29
f 3 29 28
f 4 5 30
f 4 30 29
f 5 6 31
f 5 31 30
f 6 7 32
f 6 32 31
f 7 8 33
f 7 33 32
f 8 9 34
f 8 34 33
f 9 10 35
f 9 35 34
f 10 11 36
f 10 36 35
f 11 12 37
f 11 37 36
f 12 13 38
f 12 38 37
f 13 14 39
f 13 39 38
f 14 15 40
f 14 40 39
f 15 16 41
f 15 41 40
f 16 17 42
f 16 42 41
f 17 18 43
f 17 43 42
f 18 19 44
f 18 44 43
f 19 20 45
f 19 45 44
f 20 21 46
f 20 46 45
f 21 22 47
f 21 47 46
f 22 23 48
f 22 48 47
f 23 24 49
f 23 49 48
f 24 25 50
f 24 50 49
f 26 27 52
f 26 52 51
f 27 28 53
f 27 53 52
f 28 29 54
f 28 54 53
f 29 30 55
f 29 55 54
f 30 31 56
f 30 56 55
f 31 32 57
f 31 57 56
f 32 33 58
f 32 58 57
f 33 34 59
f 33 59 58
f 34 35 60
f 34 60 59
f 35 36 61
f 35 61 60
f 36 37 62
f 36 62 61
f 37 38 63
f 37 63 62
f 38 39 64
f 38 64 63
f 39 40 65
f 39 65 64
f 40 41 66
f 40 66 65
f 41 42 67
f 41 67 66
f 42 43 68
f 42 68 67
f 43 44 69
f 43 69 68
f 44 45 70
f 44 70 69
f 45 46 71
f 45 71 70
f 46 47 72
f 46 72 71
f 47 48 73
f 47 73 72
f 48 49 74
f 48 74 73
f 49 50 75
f 49 75 74
f 51 52 77
f 51 77 76
f 52 53 78
f 52 78 77
f 53 54 79
f 53 79 78
f 54 55 80
f 54 80 79
f 55 56 81
f 55 81 80
f 56 57 82
f 56 82 81
f 57 58 83
f 57 83 82
f 58 59 84
f 58 84 83
f 59 60 85
f 59 85 84
f 60 61 86
f 60 86 85
f 61 62 87
f 61 87 86
f 62 63 88
f 62 88 87
f 63 64 89
f 63 89 88
f 64 65 90
f 64 90 89
f 65 66 91
f 65 91 90
f 66 67 92
f 66 92 91
f 67 68 93
f 67 93 92
f 68 69 94
f 68 94 93
f 69 70 95
f 69 95 94
f 70 71 96
f 70 96 95
f 71 72 97
f 71 97 96
f 72 73 98
f 72 98 97
f 73 74 99
f 73 99 98
f 74 75 100
f 74 100 99
f 76 77 102
f 76 102 101
f 77 78 103
f 77 103 102
f 78 79 104
f 78 104 103
f 79 80 105
f 79 105 104
f 80 81 106
f 80 106 105
f 81 82 107
f 81 107 106
f 82 83 108
f 82 108 107
f 83 84 109
f 83 109 108
f 84 85 110
f 84 110 109
f 85 86 111
f 85 111 110
f 86 87 112
f 86 112 111
f 87 88 113
f 87 113 112
f 88 89 114
f 88 114 113
f 89 90 115
f 89 115 114
f 90 91 116
f 90 116 115
f 91 92 117
f 91 117 116
f 92 93 118
f 92 118 117
f 93 94 119
f 93 119 118
f 94 95 120
f 94 120 119
f 95 96 121
f 95 121 120
f 96 97 122
f 96 122 121
f 97 98 123
f 97 123 122
f 98 99 124
f 98 124 123
f 99 100 125
f 99 125 124
f 101 102 127
f 101 127 126
f 102 103 128
f 102 128 127
f 103 104 129
f 103 129 128
f 104 105 130
f 104 130 129
f 105 106 131
f 105 131 130
f 106 107 132
f 106 132 131
f 107 108 133
f 107 133 132
f 108 109 134
f 108 134 133
f 109 110 135
f 109 135 134
f 110 111 136
f 110 136 135
f 111 112 137
f 111 137 136
f 112 113 138
f 112 138 137
f 113 114 139
f 113 139 138
f 114 115 140
f 114 140 139
f 115 116 141
f 115 141 140
f 116 117 142
f 116 142 141
f 117 118 143
f 117 143 142
f 118 119 144
f 118 144 143
f 119 120 145
f 119 145 144
f 120 121 146
f 120 146 145
f 121 122 147
f 121 147 146
f 122 123 148
f 122 148 147
f 123 124 149
f 123 149 148
f 124 125 150
f 124 150 149
f 126 127 152
f 126 152 151
f 127 128 153
f 127 153 152
f 128 129 154
f 128 154 153
f 129 130 155
f 129 155 154
f 130 131 156
f 130 156 155
f 131 132 157
f 131 157 156
f 132 133 158
f 132 158 157
f 133 134 159
f 133 159 158
f 134 135 160
f 134 160 159
f 135 136 161
f 135 161 160
f 136 137 162
f 136 162 161
f 137 138 163
f 137 163 162
f 138 139 164
f 138 164 163
f 139 140 165
f 139 165 164
f 140 141 166
f 140 166 165
f 141 142 167
f 141 167 166
f 142 143 168
f 142 168 167
f 143 144 169
f 143 169 168
f 144 145 170
f 144 170 169
f 145 146 171
f 145 171 170
f 146 147 172
f 146 172 171
f 147 148 173
f 147 173 172
f 148 149 174
f 148 174 173
f 149 150 175
f 149 175 174
f 151 152 177
f 151 177 176
f 152 153 178
f 152 178 177
f 153 154 179
f 153 179 178
f 154 155 180
f 154 180 179
f 155 156 181
f 155 181 180
f 156 157 182
f 156 182 181
f 157 158 183
f 157 183 182
f 158 159 184
f 158 184 183
f 159 160 185
f 159 185 184
f 160 161 186
f 160 186 185
f 161 162 187
f 161 187 186
f 162 163 188
f 162 188 187
f 163 164 189
f 163 189 188
f 164 165 190
f 164 190 189
f 165 166 191
f 165 191 190
f 166 167 192
f 166 192 191
f 167 168 193
f 167 193 192
f 168 169 194
f 168 194 193
f 169 170 195
f 169 195 194
f 170 171 196
f 170 196 195
f 171 172 197
f 171 197 196
f 172 173 198
f 172 198 197
f 173 174 199
f 173 199 198
f 174 175 200
f 174 200 199
f 176 177 202
f 176 202 201
f 177 178 203
f 177 203 202
f 178 179 204
f 178 204 203
f 179 180 205
f 179 205 204
f 180 181 206
f 180 206 205
f 181 182 207
f 181 207 206
f 182 183 208
f 182 208 207
f 183 184 209
f 183 209 208
f 184 185 210
f 184 210 209
f 185 186 211
f 185 211 210
f 186 187 212
f 186 212 211
f 187 188 213
f 187 213 212
f 188 189 214
f 188 214 213
f 189 190 215
f 189 215 214
f 190 191 216
f 190 216 215
f 191 192 217
f 191 217 216
f 192 193 218
f 192 218 217
f 193 194 219
f 193 219 218
f 194 195 220
f 194 220 219
f 195 196 221
f 195 221 220
f 196 197 222
f 196 222 221
f 197 198 223
f 197 223 222
f 198 199 224
f 198 224 223
f 199 200 225
f 199 225 224
f 201 202 227
f 201 227 226
f 202 203 228
f 202 228 227
f 203 204 229
f 203 229 228
f 204 205 230
f 204 230 229
f 205 206 231
f 205 231 230
f 206 207 232
f 206 232 231
f 207 208 233
f 207 233 232
f 208 209 234
f 208 234 233
f 209 210 235
f 209 235 234
f 210 211 236
f 210 236 235
f 211 212 237
f 211 237 236
f 212 213 238
f 212 238 237
f 213 214 239
f 213 239 238
f 214 215 240
f 214 240 239
f 215 216 241
f 215 241 240
f 216 217 242
f 216 242 241
f 217 218 243
f 217 243 242
f 218 219 244
f 218 244 243
f 219 220 245
f 219 245 244
f 220 221 246
f 220 246 245
f 221 222 247
f 221 247 246
f 222 223 248
f 222 248 247
f 223 224 249
f 223 249 248
f 224 225 250
f 224 250 249
f 226 227 252
f 226 252 251
f 227 228 253
f 227 253 252
f 228 229 254
f 228 254 253
f 229 230 255
f 229 255 254
f 230 231 256
f 230 256 255
f 231 232 257
f 231 257 256
f 232 233 258
f 232 258 257
f 233 234 259
f 233 259 258
f 234 235 260
f 234 260 259
f 235 236 261
f 235 261 260
f 236 237 262
f 236 262 261
f 237 238 263
f 237 263 262
f 238 239 264
f 238 264 263
f 239 240 265
f 239 265 264
f 240 241 266
f 240 266 265
f 241 242 267
f 241 267 266
f 242 243 268
f 242 268 267
f 243 244 269
f 243 269 268
f 244 245 270
f 244 270 269
f 245 246 271
f 245 271 270
f 246 247 272
f 246 272 271
f 247 248 273
f 247 273 272
f 248 249 274
f 248 274 273
f 249 250 275
f 249 275 274
f 251 252 277
f 251 277 276
f 252 253 278
f 252 278 277
f 253 254 279
f 253 279 278
f 254 255 280
f 254 280 279
f 255 256 281
f 255 281 280
f 256 257 282
f 256 282 281
f 257 258 283
f 257 283 282
f 258 259 284
f 258 284 283
f 259 260 285
f 259 285 284
f 260 261 286
f 260 286 285
f 261 262 287
f 261 287 286
f 262 263 288
f 262 288 287
f 263 264 289
f 263 289 288
f 264 265 290
f 264 290 289
f 265 266 291
f 265 291 290
f 266 267 292
f 266 292 291
f 267 268 293
f 267 293 292
f 268 269 294
f 268 294 293
f 269 270 295
f 269 295 294
f 270 271 296
f 270 296 295
f 271 272 297
f 271 297 296
f 272 273 298
f 272 298 297
f 273 274 299
f 273 299 298
f 274 275 300
f 274 300 299
f 276 277 302
f 276 302 301
f 277 278 303
f 277 303 302
f 278 279 304
f 278 304 303
f 279 280 305
f 279 305 304
f 280 281 306
f 280 306 305
f 281 282 307
f 281 307 306
f 282 283 308
f 282 308 307
f 283 284 309
f 283 309 308
f 284 285 310
f 284 310 309
f 285 286 311
f 285 311 310
f 286 287 312
f 286 312 311
f 287 288 313
f 287 313 312
f 288 289 314
f 288 314 313
f 289 290 315
f 289 315 314
f 290 291 316
f 290 316 315
f 291 292 317
f 291 317 316
f 292 293 318
f 292 318 317
f 293 294 319
f 293 319 318
f 294 295 320
f 294 320 319
f 295 296 321
f 295 321 320
f 296 297 322
f 296 322 321
f 297 298 323
f 297 323 322
f 298 299 324
f 298 324 323
f 299 300 325
f 299 325 324
f 301 302 327
f 301 327 326
f 302 303 328
f 302 328 327
f 303 304 329
f 303 329 328
f 304 305 330
f 304 330 329
f 305 306 331
f 305 331 330
f 306 307 332
f 306 332 331
f 307 308 333
f 307 333 332
f 308 309 334
f 308 334 333
f 309 310 335
f 309 335 334
f 310 311 336
f 310 336 335
f 311 312 337
f 311 337 336
f 312 313 338
f 312 338 337
f 313 314 339
f 313 339 338
f 314 315 340
f 314 340 339
f 315 316 341
f 315 341 340
f 316 317 342
f 316 342 341
f 317 318 343
f 317 343 342
f 318 319 344
f 318 344 343
f 319 320 345
f 319 345 344
f 320 321 346
f 320 346 345
f 321 322 347
f 321 347 346
f 322 323 348
f 322 348 347
f 323 324 349
f 323 349 348
f 324 325 350
f 324 350 349
f 326 327 352
f 326 352 351
f 327 328 353
f 327 353 352
f 328 329 354
f 328 354 353
f 329 330 355
f 329 355 354
f 330 331 356
f 330 356 355
f 331 332 357
f 331 357 356
f 332 333 358
f 332 358 357
f 333 334 359
f 333 359 358
f 334 335 360
f 334 360 359
f 335 336 361
f 335 361 360
f 336 337 362
f 336 362 361
f 337 338 363
f 337 363 362
f 338 339 364
f 338 364 363
f 339 340 365
f 339 365 364
f 340 341 366
f 340 366 365
f 341 342 367
f 341 367 366
f 342 343 368
f 342 368 367
f 343 344 369
f 343 369 368
f 344 345 370
f 344 370 369
f 345 346 371
f 345 371 370
f 346 347 372
f 346 372 371
f 347 348 373
f 347 373 372
f 348 349 374
f 348 374 373
f 349 350 375
f 349 375 374
f 351 352 377
f 351 377 376
f 352 353 378
f 352 378 377
f 353 354 379
f 353 379 378
f 354 355 380
f 354 380 379
f 355 356 381
f 355 381 380
f 356 357 382
f 356 382 381
f 357 358 383
f 357 383 382
f 358 359 384
f 358 384 383
f 359 360 385
f 359 385 384
f 360 361 386
f 360 386 385
f 361 362 387
f 361 387 386
f 362 363 388
f 362 388 387
f 363 364 389
f 363 389 388
f 364 365 390
f 364 390 389
f 365 366 391
f 365 391 390
f 366 367 392
f 366 392 391
f 367 368 393
f 367 393 392
f 368 369 394
f 368 394 393
f 369 370 395
f 369 395 394
f 370 371 396
f 370 396 395
f 371 372 397
f 371 397 396
f 372 373 398
f 372 398 397
f 373 374 399
f 373 399 398
f 374 375 400
f 374 400 399
f 376 377 402
f 376 402 401
f 377 378 403
f 377 403 402
f 378 379 404
f 378 404 403
f 379 380 405
f 379 405 404
f 380 381 406
f 380 406 405
f 381 382 407
f 381 407 406
f 382 383 408
f 382 408 407
f 383 384 409
f 383 409 408
f 384 385 410
f 384 410 409
f 385 386 411
f 385 411 410
f 386 387 412
f 386 412 411
f 387 388 413
f 387 413 412
f 388 389 414
f 388 414 413
f 389 390 415
f 389 415 414
f 390 391 416
f 390 416 415
f 391 392 417
f 391 417 416
f 392 393 418
f 392 418 417
f 393 394 419
f 393 419 418
f 394 395 420
f 394 420 419
f 395 396 421
f 395 421 420
f 396 397 422
f 396 422 421
f 397 398 423
f 397 423 422
f 398 399 424
f 398 424 423
f 399 400 425
f 399 425 424
f 401 402 427
f 401 427 426
f 402 403 428
f 402 428 427
f 403 404 429
f 403 429 428
f 404 405 430
f 404 430 429
f 405 406 431
f 405 431 430
f 406 407 432
f 406 432 431
f 407 408 433
f 407 433 432
f 408 409 434
f 408 434 433
f 409 410 435
f 409 435 434
f 410 411 436
f 410 436 435
f 411 412 437
f 411 437 436
f 412 413 438
f 412 438 437
f 413 414 439
f 413 439 438
f 414 415 440
f 414 440 439
f 415 416 441
f 415 441 440
f 416 417 442
f 416 442 441
f 417 418 443
f 417 443 442
f 418 419 444
f 418 444 443
f 419 420 445
f 419 445 444
f 420 421 446
f 420 446 445
f 421 422 447
f 421 447 446
f 422 423 448
f 422 448 447
f 423 424 449
f 423 449 448
f 424 425 450
f 424 450 449
f 426 427 452
f 426 452 451
f 427 428 453
f 427 453 452
f 428 429 454
f 428 454 453
f 429 430 455
f 429 455 454
f 430 431 456
f 430 456 455
f 431 432 457
f 431 457 456
f 432 433 458
f 432 458 457
f 433 434 459
f 433 459 458
f 434 435 460
f 434 460 459
f 435 436 461
f 435 461 460
f 436 437 462
f 436 462 461
f 437 438 463
f 437 463 462
f 438 439 464
f 438 464 463
f 439 440 465
f 439 465 464
f 440 441 466
f 440 466 465
f 441 442 467
f 441 467 466
f 442 443 468
f 442 468 467
f 443 444 469
f 443 469 468
f 444 445 470
f 444 470 469
f 445 446 471
f 445 471 470
f 446 447 472
f 446 472 471
f 447 448 473
f 447 473 472
f 448 449 474
f 448 474 473
f 449 450 475
f 449 475 474
f 451 452 477
f 451 477 476
f 452 453 478
f 452 478 477
f 453 454 479
f 453 479 478
f 454 455 480
f 454 480 479
f 455 456 481
f 455 481 480
f 456 457 482
f 456 482 481
f 457 458 483
f 457 483 482
f 458 459 484
f 458 484 483
f 459 460 485
f 459 485 484
f 460 461 486
f 460 486 485
f 461 462 487
f 461 487 486
f 462 463 488
f 462 488 487
f 463 464 489
f 463 489 488
f 464 465 490
f 464 490 489
f 465 466 491
f 465 491 490
f 466 467 492
f 466 492 491
f 467 468 493
f 467 493 492
f 468 469 494
f 468 494 493
f 469 470 495
f 469 495 494
f 470 471 496
f 470 496 495
f 471 472 497
f 471 497 496
f 472 473 498
f 472 498 497
f 473 474 499
f 473 499 498
f 474 475 500
f 474 500 499
f 476 477 502
f 476 502 501
f 477 478 503
f 477 503 502
f 478 479 504
f 478 504 503
f 479 480 505
f 479 505 504
f 480 481 506
f 480 506 505
f 481 482 507
f 481 507 506
f 482 483 508
f 482 508 507
f 483 484 509
f 483 509 508
f 484 485 510
f 484 510 509
f 485 486 511
f 485 511 510
f 486 487 512
f 486 512 511
f 487 488 513
f 487 513 512
f 488 489 514
f 488 514 513
f 489 490 515
f 489 515 514
f 490 491 516
f 490 516 515
f 491 492 517
f 491 517 516
f 492 493 518
f 492 518 517
f 493 494 519
f 493 519 518
f 494 495 520
f 494 520 519
f 495 496 521
f 495 521 520
f 496 497 522
f 496 522 521
f 497 498 523
f 497 523 522
f 498 499 524
f 498 524 523
f 499 500 525
f 499 525 524
f 501 502 527
f 501 527 526
f 502 503 528
f 502 528 527
f 503 504 529
f 503 529 528
f 504 505 530
f 504 530 529
f 505 506 531
f 505 531 530
f 506 507 532
f 506 532 531
f 507 508 533
f 507 533 532
f 508 509 534
f 508 534 533
f 509 510 535
f 509 535 534
f 510 511 536
f 510 536 535
f 511 512 537
f 511 537 536
f 512 513 538
f 512 538 537
f 513 514 539
f 513 539 538
f 514 515 540
f 514 540 539
f 515 516 541
f 515 541 540
f 516 517 542
f 516 542 541
f 517 518 543
f 517 543 542
f 518 519 544
f 518 544 543
f 519 520 545
f 519 545 544
f 520 521 546
f 520 546 545
f 521 522 547
f 521 547 546
f 522 523 548
f 522 548 547
f 523 524 549
f 523 549 548
f 524 525 550
f 524 550 549
f 526 527 552
f 526 552 551
f 527 528 553
f 527 553 552
f 528 529 554
f 528 554 553
f 529 530 555
f 529 555 554
f 530 531 556
f 530 556 555
f 531 532 557
f 531 557 556
f 532 533 558
f 532 558 557
f 533 534 559
f 533 559 558
f 534 535 560
f 534 560 559
f 535 536 561
f 535 561 560
f 536 537 562
f 536 562 561
f 537 538 563
f 537 563 562
f 538 539 564
f 538 564 563
f 539 540 565
f 539 565 564
f 540 541 566
f 540 566 565
f 541 542 567
f 541 567 566
f 542 543 568
f 542 568 567
f 543 544 569
f 543 569 568
f 544 545 570
f 544 570 569
f 545 546 571
f 545 571 570
f 546 547 572
f 546 572 571
f 547 548 573
f 547 573 572
f 548 549 574
f 548 574 573
f 549 550 575
f 549 575 574
f 551 552 577
f 551 577 576
f 552 553 578
f 552 578 577
f 553 554 579
f 553 579 578
f 554 555 580
f 554 580 579
f 555 556 581
f 555 581 580
f 556 557 582
f 556 582 581
f 557 558 583
f 557 583 582
f 558 559 584
f 558 584 583
f 559 560 585
f 559 585 584
f 560 561 586
f 560 586 585
f 561 562 587
f 561 587 586
f 562 563 588
f 562 588 587
f 563 564 589
f 563 589 588
f 564 565 590
f 564 590 589
f 565 566 591
f 565 591 590
f 566 567 592
f 566 592 591
f 567 568 593
f 567 593 592
f 568 569 594
f 568 594 593
f 569 570 595
f 569 595 594
f 570 571 596
f 570 596 595
f 571 572 597
f 571 597 596
f 572 573 598
f 572 598 597
f 573 574 599
f 573 599 598
f 574 575 600
f 574 600 599
f 576 577 602
f 576 602 601
f 577 578 603
f 577 603 602
f 578 579 604
f 578 604 603
f 579 580 605
f 579 605 604
f 580 581 606
f 580 606 605
f 581 582 607
f 581 607 606
f 582 583 608
f 582 608 607
f 583 584 609
f 583 609 608
f 584 585 610
f 584 610 609
f 585 586 611
f 585 611 610
f 586 587 612
f 586 612 611
f 587 588 613
f 587 613 612
f 588 589 614
f 588 614 613
f 589 590 615
f 589 615 614
f 590 591 616
f 590 616 615
f 591 592 617
f 591 617 616
f 592 593 618
f 592 618 617
f 593 594 619
f 593 619 618
f 594 595 620
f 594 620 619
f 595 596 621
f 595 621 620
f 596 597 622
f 596 622 621
f 597 598 623
f 597 623 622
f 598 599 624
f 598 624 623
f 599 600 625
f 599 625 624
