o [4B] 3D Diagram - S2-04 Group G_173
v -192.025504 -192.025504 40514.156841
v -176.023379 -192.025504 38488.069560
v -160.021254 -192.025504 36461.982279
v -144.019128 -192.025504 34435.894998
v -128.017003 -192.025504 32409.807717
v -112.014878 -192.025504 30383.720436
v -96.012752 -192.025504 28357.633154
v -80.010627 -192.025504 26331.545873
v -64.008501 -192.025504 24305.458592
v -48.006376 -192.025504 22279.371311
v -32.004251 -192.025504 20253.284030
v -16.002125 -192.025504 18227.196749
v 0.000000 -192.025504 16201.109468
v 16.002125 -192.025504 14175.022187
v 32.004251 -192.025504 12148.934906
v 48.006376 -192.025504 10122.847625
v 64.008501 -192.025504 8096.760344
v 80.010627 -192.025504 6070.673063
v 96.012752 -192.025504 4044.585782
v 112.014878 -192.025504 2018.498501
v 128.017003 -192.025504 -7.588780
v 144.019128 -192.025504 -2033.676061
v 160.021254 -192.025504 -4059.763342
v 176.023379 -192.025504 -6085.850623
v 192.025504 -192.025504 -8111.937904
v -192.025504 -176.023379 40844.746203
v -176.023379 -176.023379 38818.658922
v -160.021254 -176.023379 36792.571641
v -144.019128 -176.023379 34766.484360
v -128.017003 -176.023379 32740.397079
v -112.014878 -176.023379 30714.309798
v -96.012752 -176.023379 28688.222517
v -80.010627 -176.023379 26662.135236
v -64.008501 -176.023379 24636.047955
v -48.006376 -176.023379 22609.960674
v -32.004251 -176.023379 20583.873393
v -16.002125 -176.023379 18557.786112
v 0.000000 -176.023379 16531.698831
v 16.002125 -176.023379 14505.611550
v 32.004251 -176.023379 12479.524269
v 48.006376 -176.023379 10453.436988
v 64.008501 -176.023379 8427.349707
v 80.010627 -176.023379 6401.262426
v 96.012752 -176.023379 4375.175144
v 112.014878 -176.023379 2349.087863
v 128.017003 -176.023379 323.000582
v 144.019128 -176.023379 -1703.086699
v 160.021254 -176.023379 -3729.173980
v 176.023379 -176.023379 -5755.261261
v 192.025504 -176.023379 -7781.348542
v -192.025504 -160.021254 41175.335566
v -176.023379 -160.021254 39149.248285
v -160.021254 -160.021254 37123.161004
v -144.019128 -160.021254 35097.073723
v -128.017003 -160.021254 33070.986442
v -112.014878 -160.021254 31044.899161
v -96.012752 -160.021254 29018.811879
v -80.010627 -160.021254 26992.724598
v -64.008501 -160.021254 24966.637317
v -48.006376 -160.021254 22940.550036
v -32.004251 -160.021254 20914.462755
v -16.002125 -160.021254 18888.375474
v 0.000000 -160.021254 16862.288193
v 16.002125 -160.021254 14836.200912
v 32.004251 -160.021254 12810.113631
v 48.006376 -160.021254 10784.026350
v 64.008501 -160.021254 8757.939069
v 80.010627 -160.021254 6731.851788
v 96.012752 -160.021254 4705.764507
v 112.014878 -160.021254 2679.677226
v 128.017003 -160.021254 653.589945
v 144.019128 -160.021254 -1372.497336
v 160.021254 -160.021254 -3398.584617
v 176.023379 -160.021254 -5424.671898
v 192.025504 -160.021254 -7450.759179
v -192.025504 -144.019128 41505.924928
v -176.023379 -144.019128 39479.837647
v -160.021254 -144.019128 37453.750366
v -144.019128 -144.019128 35427.663085
v -128.017003 -144.019128 33401.575804
v -112.014878 -144.019128 31375.488523
v -96.012752 -144.019128 29349.401242
v -80.010627 -144.019128 27323.313961
v -64.008501 -144.019128 25297.226680
v -48.006376 -144.019128 23271.139399
v -32.004251 -144.019128 21245.052118
v -16.002125 -144.019128 19218.964837
v 0.000000 -144.019128 17192.877556
v 16.002125 -144.019128 15166.790275
v 32.004251 -144.019128 13140.702994
v 48.006376 -144.019128 11114.615713
v 64.008501 -144.019128 9088.528432
v 80.010627 -144.019128 7062.441150
v 96.012752 -144.019128 5036.353869
v 112.014878 -144.019128 3010.266588
v 128.017003 -144.019128 984.179307
v 144.019128 -144.019128 -1041.907974
v 160.021254 -144.019128 -3067.995255
v 176.023379 -144.019128 -5094.082536
v 192.025504 -144.019128 -7120.169817
v -192.025504 -128.017003 41836.514291
v -176.023379 -128.017003 39810.427010
v -160.021254 -128.017003 37784.339729
v -144.019128 -128.017003 35758.252448
v -128.017003 -128.017003 33732.165167
v -112.014878 -128.017003 31706.077885
v -96.012752 -128.017003 29679.990604
v -80.010627 -128.017003 27653.903323
v -64.008501 -128.017003 25627.816042
v -48.006376 -128.017003 23601.728761
v -32.004251 -128.017003 21575.641480
v -16.002125 -128.017003 19549.554199
v 0.000000 -128.017003 17523.466918
v 16.002125 -128.017003 15497.379637
v 32.004251 -128.017003 13471.292356
v 48.006376 -128.017003 11445.205075
v 64.008501 -128.017003 9419.117794
v 80.010627 -128.017003 7393.030513
v 96.012752 -128.017003 5366.943232
v 112.014878 -128.017003 3340.855951
v 128.017003 -128.017003 1314.768670
v 144.019128 -128.017003 -711.318611
v 160.021254 -128.017003 -2737.405892
v 176.023379 -128.017003 -4763.493173
v 192.025504 -128.017003 -6789.580454
v -192.025504 -112.014878 42167.103653
v -176.023379 -112.014878 40141.016372
v -160.021254 -112.014878 38114.929091
v -144.019128 -112.014878 36088.841810
v -128.017003 -112.014878 34062.754529
v -112.014878 -112.014878 32036.667248
v -96.012752 -112.014878 30010.579967
v -80.010627 -112.014878 27984.492686
v -64.008501 -112.014878 25958.405405
v -48.006376 -112.014878 23932.318124
v -32.004251 -112.014878 21906.230843
v -16.002125 -112.014878 19880.143562
v 0.000000 -112.014878 17854.056281
v 16.002125 -112.014878 15827.969000
v 32.004251 -112.014878 13801.881719
v 48.006376 -112.014878 11775.794438
v 64.008501 -112.014878 9749.707157
v 80.010627 -112.014878 7723.619875
v 96.012752 -112.014878 5697.532594
v 112.014878 -112.014878 3671.445313
v 128.017003 -112.014878 1645.358032
v 144.019128 -112.014878 -380.729249
v 160.021254 -112.014878 -2406.816530
v 176.023379 -112.014878 -4432.903811
v 192.025504 -112.014878 -6458.991092
v -192.025504 -96.012752 42497.693016
v -176.023379 -96.012752 40471.605735
v -160.021254 -96.012752 38445.518454
v -144.019128 -96.012752 36419.431173
v -128.017003 -96.012752 34393.343892
v -112.014878 -96.012752 32367.256610
v -96.012752 -96.012752 30341.169329
v -80.010627 -96.012752 28315.082048
v -64.008501 -96.012752 26288.994767
v -48.006376 -96.012752 24262.907486
v -32.004251 -96.012752 22236.820205
v -16.002125 -96.012752 20210.732924
v 0.000000 -96.012752 18184.645643
v 16.002125 -96.012752 16158.558362
v 32.004251 -96.012752 14132.471081
v 48.006376 -96.012752 12106.383800
v 64.008501 -96.012752 10080.296519
v 80.010627 -96.012752 8054.209238
v 96.012752 -96.012752 6028.121957
v 112.014878 -96.012752 4002.034676
v 128.017003 -96.012752 1975.947395
v 144.019128 -96.012752 -50.139886
v 160.021254 -96.012752 -2076.227167
v 176.023379 -96.012752 -4102.314448
v 192.025504 -96.012752 -6128.401729
v -192.025504 -80.010627 42828.282378
v -176.023379 -80.010627 40802.195097
v -160.021254 -80.010627 38776.107816
v -144.019128 -80.010627 36750.020535
v -128.017003 -80.010627 34723.933254
v -112.014878 -80.010627 32697.845973
v -96.012752 -80.010627 30671.758692
v -80.010627 -80.010627 28645.671411
v -64.008501 -80.010627 26619.584130
v -48.006376 -80.010627 24593.496849
v -32.004251 -80.010627 22567.409568
v -16.002125 -80.010627 20541.322287
v 0.000000 -80.010627 18515.235006
v 16.002125 -80.010627 16489.147725
v 32.004251 -80.010627 14463.060444
v 48.006376 -80.010627 12436.973163
v 64.008501 -80.010627 10410.885882
v 80.010627 -80.010627 8384.798600
v 96.012752 -80.010627 6358.711319
v 112.014878 -80.010627 4332.624038
v 128.017003 -80.010627 2306.536757
v 144.019128 -80.010627 280.449476
v 160.021254 -80.010627 -1745.637805
v 176.023379 -80.010627 -3771.725086
v 192.025504 -80.010627 -5797.812367
v -192.025504 -64.008501 43158.871741
v -176.023379 -64.008501 41132.784460
v -160.021254 -64.008501 39106.697179
v -144.019128 -64.008501 37080.609898
v -128.017003 -64.008501 35054.522617
v -112.014878 -64.008501 33028.435335
v -96.012752 -64.008501 31002.348054
v -80.010627 -64.008501 28976.260773
v -64.008501 -64.008501 26950.173492
v -48.006376 -64.008501 24924.086211
v -32.004251 -64.008501 22897.998930
v -16.002125 -64.008501 20871.911649
v 0.000000 -64.008501 18845.824368
v 16.002125 -64.008501 16819.737087
v 32.004251 -64.008501 14793.649806
v 48.006376 -64.008501 12767.562525
v 64.008501 -64.008501 10741.475244
v 80.010627 -64.008501 8715.387963
v 96.012752 -64.008501 6689.300682
v 112.014878 -64.008501 4663.213401
v 128.017003 -64.008501 2637.126120
v 144.019128 -64.008501 611.038839
v 160.021254 -64.008501 -1415.048442
v 176.023379 -64.008501 -3441.135723
v 192.025504 -64.008501 -5467.223004
v -192.025504 -48.006376 43489.461103
v -176.023379 -48.006376 41463.373822
v -160.021254 -48.006376 39437.286541
v -144.019128 -48.006376 37411.199260
v -128.017003 -48.006376 35385.111979
v -112.014878 -48.006376 33359.024698
v -96.012752 -48.006376 31332.937417
v -80.010627 -48.006376 29306.850136
v -64.008501 -48.006376 27280.762855
v -48.006376 -48.006376 25254.675574
v -32.004251 -48.006376 23228.588293
v -16.002125 -48.006376 21202.501012
v 0.000000 -48.006376 19176.413731
v 16.002125 -48.006376 17150.326450
v 32.004251 -48.006376 15124.239169
v 48.006376 -48.006376 13098.151888
v 64.008501 -48.006376 11072.064607
v 80.010627 -48.006376 9045.977325
v 96.012752 -48.006376 7019.890044
v 112.014878 -48.006376 4993.802763
v 128.017003 -48.006376 2967.715482
v 144.019128 -48.006376 941.628201
v 160.021254 -48.006376 -1084.459080
v 176.023379 -48.006376 -3110.546361
v 192.025504 -48.006376 -5136.633642
v -192.025504 -32.004251 43820.050466
v -176.023379 -32.004251 41793.963185
v -160.021254 -32.004251 39767.875904
v -144.019128 -32.004251 37741.788623
v -128.017003 -32.004251 35715.701342
v -112.014878 -32.004251 33689.614060
v -96.012752 -32.004251 31663.526779
v -80.010627 -32.004251 29637.439498
v -64.008501 -32.004251 27611.352217
v -48.006376 -32.004251 25585.264936
v -32.004251 -32.004251 23559.177655
v -16.002125 -32.004251 21533.090374
v 0.000000 -32.004251 19507.003093
v 16.002125 -32.004251 17480.915812
v 32.004251 -32.004251 15454.828531
v 48.006376 -32.004251 13428.741250
v 64.008501 -32.004251 11402.653969
v 80.010627 -32.004251 9376.566688
v 96.012752 -32.004251 7350.479407
v 112.014878 -32.004251 5324.392126
v 128.017003 -32.004251 3298.304845
v 144.019128 -32.004251 1272.217564
v 160.021254 -32.004251 -753.869717
v 176.023379 -32.004251 -2779.956998
v 192.025504 -32.004251 -4806.044279
v -192.025504 -16.002125 44150.639828
v -176.023379 -16.002125 42124.552547
v -160.021254 -16.002125 40098.465266
v -144.019128 -16.002125 38072.377985
v -128.017003 -16.002125 36046.290704
v -112.014878 -16.002125 34020.203423
v -96.012752 -16.002125 31994.116142
v -80.010627 -16.002125 29968.028861
v -64.008501 -16.002125 27941.941580
v -48.006376 -16.002125 25915.854299
v -32.004251 -16.002125 23889.767018
v -16.002125 -16.002125 21863.679737
v 0.000000 -16.002125 19837.592456
v 16.002125 -16.002125 17811.505175
v 32.004251 -16.002125 15785.417894
v 48.006376 -16.002125 13759.330613
v 64.008501 -16.002125 11733.243332
v 80.010627 -16.002125 9707.156050
v 96.012752 -16.002125 7681.068769
v 112.014878 -16.002125 5654.981488
v 128.017003 -16.002125 3628.894207
v 144.019128 -16.002125 1602.806926
v 160.021254 -16.002125 -423.280355
v 176.023379 -16.002125 -2449.367636
v 192.025504 -16.002125 -4475.454917
v -192.025504 0.000000 44481.229191
v -176.023379 0.000000 42455.141910
v -160.021254 0.000000 40429.054629
v -144.019128 0.000000 38402.967348
v -128.017003 0.000000 36376.880067
v -112.014878 0.000000 34350.792785
v -96.012752 0.000000 32324.705504
v -80.010627 0.000000 30298.618223
v -64.008501 0.000000 28272.530942
v -48.006376 0.000000 26246.443661
v -32.004251 0.000000 24220.356380
v -16.002125 0.000000 22194.269099
v 0.000000 0.000000 20168.181818
v 16.002125 0.000000 18142.094537
v 32.004251 0.000000 16116.007256
v 48.006376 0.000000 14089.919975
v 64.008501 0.000000 12063.832694
v 80.010627 0.000000 10037.745413
v 96.012752 0.000000 8011.658132
v 112.014878 0.000000 5985.570851
v 128.017003 0.000000 3959.483570
v 144.019128 0.000000 1933.396289
v 160.021254 0.000000 -92.690992
v 176.023379 0.000000 -2118.778273
v 192.025504 0.000000 -4144.865554
v -192.025504 16.002125 44811.818553
v -176.023379 16.002125 42785.731272
v -160.021254 16.002125 40759.643991
v -144.019128 16.002125 38733.556710
v -128.017003 16.002125 36707.469429
v -112.014878 16.002125 34681.382148
v -96.012752 16.002125 32655.294867
v -80.010627 16.002125 30629.207586
v -64.008501 16.002125 28603.120305
v -48.006376 16.002125 26577.033024
v -32.004251 16.002125 24550.945743
v -16.002125 16.002125 22524.858462
v 0.000000 16.002125 20498.771181
v 16.002125 16.002125 18472.683900
v 32.004251 16.002125 16446.596619
v 48.006376 16.002125 14420.509338
v 64.008501 16.002125 12394.422057
v 80.010627 16.002125 10368.334775
v 96.012752 16.002125 8342.247494
v 112.014878 16.002125 6316.160213
v 128.017003 16.002125 4290.072932
v 144.019128 16.002125 2263.985651
v 160.021254 16.002125 237.898370
v 176.023379 16.002125 -1788.188911
v 192.025504 16.002125 -3814.276192
v -192.025504 32.004251 45142.407916
v -176.023379 32.004251 43116.320635
v -160.021254 32.004251 41090.233354
v -144.019128 32.004251 39064.146073
v -128.017003 32.004251 37038.058792
v -112.014878 32.004251 35011.971510
v -96.012752 32.004251 32985.884229
v -80.010627 32.004251 30959.796948
v -64.008501 32.004251 28933.709667
v -48.006376 32.004251 26907.622386
v -32.004251 32.004251 24881.535105
v -16.002125 32.004251 22855.447824
v 0.000000 32.004251 20829.360543
v 16.002125 32.004251 18803.273262
v 32.004251 32.004251 16777.185981
v 48.006376 32.004251 14751.098700
v 64.008501 32.004251 12725.011419
v 80.010627 32.004251 10698.924138
v 96.012752 32.004251 8672.836857
v 112.014878 32.004251 6646.749576
v 128.017003 32.004251 4620.662295
v 144.019128 32.004251 2594.575014
v 160.021254 32.004251 568.487733
v 176.023379 32.004251 -1457.599548
v 192.025504 32.004251 -3483.686829
v -192.025504 48.006376 45472.997278
v -176.023379 48.006376 43446.909997
v -160.021254 48.006376 41420.822716
v -144.019128 48.006376 39394.735435
v -128.017003 48.006376 37368.648154
v -112.014878 48.006376 35342.560873
v -96.012752 48.006376 33316.473592
v -80.010627 48.006376 31290.386311
v -64.008501 48.006376 29264.299030
v -48.006376 48.006376 27238.211749
v -32.004251 48.006376 25212.124468
v -16.002125 48.006376 23186.037187
v 0.000000 48.006376 21159.949906
v 16.002125 48.006376 19133.862625
v 32.004251 48.006376 17107.775344
v 48.006376 48.006376 15081.688063
v 64.008501 48.006376 13055.600781
v 80.010627 48.006376 11029.513500
v 96.012752 48.006376 9003.426219
v 112.014878 48.006376 6977.338938
v 128.017003 48.006376 4951.251657
v 144.019128 48.006376 2925.164376
v 160.021254 48.006376 899.077095
v 176.023379 48.006376 -1127.010186
v 192.025504 48.006376 -3153.097467
v -192.025504 64.008501 45803.586641
v -176.023379 64.008501 43777.499360
v -160.021254 64.008501 41751.412079
v -144.019128 64.008501 39725.324798
v -128.017003 64.008501 37699.237516
v -112.014878 64.008501 35673.150235
v -96.012752 64.008501 33647.062954
v -80.010627 64.008501 31620.975673
v -64.008501 64.008501 29594.888392
v -48.006376 64.008501 27568.801111
v -32.004251 64.008501 25542.713830
v -16.002125 64.008501 23516.626549
v 0.000000 64.008501 21490.539268
v 16.002125 64.008501 19464.451987
v 32.004251 64.008501 17438.364706
v 48.006376 64.008501 15412.277425
v 64.008501 64.008501 13386.190144
v 80.010627 64.008501 11360.102863
v 96.012752 64.008501 9334.015582
v 112.014878 64.008501 7307.928301
v 128.017003 64.008501 5281.841020
v 144.019128 64.008501 3255.753739
v 160.021254 64.008501 1229.666458
v 176.023379 64.008501 -796.420823
v 192.025504 64.008501 -2822.508104
v -192.025504 80.010627 46134.176003
v -176.023379 80.010627 44108.088722
v -160.021254 80.010627 42082.001441
v -144.019128 80.010627 40055.914160
v -128.017003 80.010627 38029.826879
v -112.014878 80.010627 36003.739598
v -96.012752 80.010627 33977.652317
v -80.010627 80.010627 31951.565036
v -64.008501 80.010627 29925.477755
v -48.006376 80.010627 27899.390474
v -32.004251 80.010627 25873.303193
v -16.002125 80.010627 23847.215912
v 0.000000 80.010627 21821.128631
v 16.002125 80.010627 19795.041350
v 32.004251 80.010627 17768.954069
v 48.006376 80.010627 15742.866788
v 64.008501 80.010627 13716.779506
v 80.010627 80.010627 11690.692225
v 96.012752 80.010627 9664.604944
v 112.014878 80.010627 7638.517663
v 128.017003 80.010627 5612.430382
v 144.019128 80.010627 3586.343101
v 160.021254 80.010627 1560.255820
v 176.023379 80.010627 -465.831461
v 192.025504 80.010627 -2491.918742
v -192.025504 96.012752 46464.765366
v -176.023379 96.012752 44438.678085
v -160.021254 96.012752 42412.590804
v -144.019128 96.012752 40386.503523
v -128.017003 96.012752 38360.416241
v -112.014878 96.012752 36334.328960
v -96.012752 96.012752 34308.241679
v -80.010627 96.012752 32282.154398
v -64.008501 96.012752 30256.067117
v -48.006376 96.012752 28229.979836
v -32.004251 96.012752 26203.892555
v -16.002125 96.012752 24177.805274
v 0.000000 96.012752 22151.717993
v 16.002125 96.012752 20125.630712
v 32.004251 96.012752 18099.543431
v 48.006376 96.012752 16073.456150
v 64.008501 96.012752 14047.368869
v 80.010627 96.012752 12021.281588
v 96.012752 96.012752 9995.194307
v 112.014878 96.012752 7969.107026
v 128.017003 96.012752 5943.019745
v 144.019128 96.012752 3916.932464
v 160.021254 96.012752 1890.845183
v 176.023379 96.012752 -135.242098
v 192.025504 96.012752 -2161.329379
v -192.025504 112.014878 46795.354728
v -176.023379 112.014878 44769.267447
v -160.021254 112.014878 42743.180166
v -144.019128 112.014878 40717.092885
v -128.017003 112.014878 38691.005604
v -112.014878 112.014878 36664.918323
v -96.012752 112.014878 34638.831042
v -80.010627 112.014878 32612.743761
v -64.008501 112.014878 30586.656480
v -48.006376 112.014878 28560.569199
v -32.004251 112.014878 26534.481918
v -16.002125 112.014878 24508.394637
v 0.000000 112.014878 22482.307356
v 16.002125 112.014878 20456.220075
v 32.004251 112.014878 18430.132794
v 48.006376 112.014878 16404.045513
v 64.008501 112.014878 14377.958231
v 80.010627 112.014878 12351.870950
v 96.012752 112.014878 10325.783669
v 112.014878 112.014878 8299.696388
v 128.017003 112.014878 6273.609107
v 144.019128 112.014878 4247.521826
v 160.021254 112.014878 2221.434545
v 176.023379 112.014878 195.347264
v 192.025504 112.014878 -1830.740017
v -192.025504 128.017003 47125.944091
v -176.023379 128.017003 45099.856810
v -160.021254 128.017003 43073.769529
v -144.019128 128.017003 41047.682248
v -128.017003 128.017003 39021.594966
v -112.014878 128.017003 36995.507685
v -96.012752 128.017003 34969.420404
v -80.010627 128.017003 32943.333123
v -64.008501 128.017003 30917.245842
v -48.006376 128.017003 28891.158561
v -32.004251 128.017003 26865.071280
v -16.002125 128.017003 24838.983999
v 0.000000 128.017003 22812.896718
v 16.002125 128.017003 20786.809437
v 32.004251 128.017003 18760.722156
v 48.006376 128.017003 16734.634875
v 64.008501 128.017003 14708.547594
v 80.010627 128.017003 12682.460313
v 96.012752 128.017003 10656.373032
v 112.014878 128.017003 8630.285751
v 128.017003 128.017003 6604.198470
v 144.019128 128.017003 4578.111189
v 160.021254 128.017003 2552.023908
v 176.023379 128.017003 525.936627
v 192.025504 128.017003 -1500.150654
v -192.025504 144.019128 47456.533453
v -176.023379 144.019128 45430.446172
v -160.021254 144.019128 43404.358891
v -144.019128 144.019128 41378.271610
v -128.017003 144.019128 39352.184329
v -112.014878 144.019128 37326.097048
v -96.012752 144.019128 35300.009767
v -80.010627 144.019128 33273.922486
v -64.008501 144.019128 31247.835205
v -48.006376 144.019128 29221.747924
v -32.004251 144.019128 27195.660643
v -16.002125 144.019128 25169.573362
v 0.000000 144.019128 23143.486081
v 16.002125 144.019128 21117.398800
v 32.004251 144.019128 19091.311519
v 48.006376 144.019128 17065.224238
v 64.008501 144.019128 15039.136956
v 80.010627 144.019128 13013.049675
v 96.012752 144.019128 10986.962394
v 112.014878 144.019128 8960.875113
v 128.017003 144.019128 6934.787832
v 144.019128 144.019128 4908.700551
v 160.021254 144.019128 2882.613270
v 176.023379 144.019128 856.525989
v 192.025504 144.019128 -1169.561292
v -192.025504 160.021254 47787.122816
v -176.023379 160.021254 45761.035535
v -160.021254 160.021254 43734.948254
v -144.019128 160.021254 41708.860973
v -128.017003 160.021254 39682.773691
v -112.014878 160.021254 37656.686410
v -96.012752 160.021254 35630.599129
v -80.010627 160.021254 33604.511848
v -64.008501 160.021254 31578.424567
v -48.006376 160.021254 29552.337286
v -32.004251 160.021254 27526.250005
v -16.002125 160.021254 25500.162724
v 0.000000 160.021254 23474.075443
v 16.002125 160.021254 21447.988162
v 32.004251 160.021254 19421.900881
v 48.006376 160.021254 17395.813600
v 64.008501 160.021254 15369.726319
v 80.010627 160.021254 13343.639038
v 96.012752 160.021254 11317.551757
v 112.014878 160.021254 9291.464476
v 128.017003 160.021254 7265.377195
v 144.019128 160.021254 5239.289914
v 160.021254 160.021254 3213.202633
v 176.023379 160.021254 1187.115352
v 192.025504 160.021254 -838.971929
v -192.025504 176.023379 48117.712178
v -176.023379 176.023379 46091.624897
v -160.021254 176.023379 44065.537616
v -144.019128 176.023379 42039.450335
v -128.017003 176.023379 40013.363054
v -112.014878 176.023379 37987.275773
v -96.012752 176.023379 35961.188492
v -80.010627 176.023379 33935.101211
v -64.008501 176.023379 31909.013930
v -48.006376 176.023379 29882.926649
v -32.004251 176.023379 27856.839368
v -16.002125 176.023379 25830.752087
v 0.000000 176.023379 23804.664806
v 16.002125 176.023379 21778.577525
v 32.004251 176.023379 19752.490244
v 48.006376 176.023379 17726.402963
v 64.008501 176.023379 15700.315681
v 80.010627 176.023379 13674.228400
v 96.012752 176.023379 11648.141119
v 112.014878 176.023379 9622.053838
v 128.017003 176.023379 7595.966557
v 144.019128 176.023379 5569.879276
v 160.021254 176.023379 3543.791995
v 176.023379 176.023379 1517.704714
v 192.025504 176.023379 -508.382567
v -192.025504 192.025504 48448.301541
v -176.023379 192.025504 46422.214260
v -160.021254 192.025504 44396.126979
v -144.019128 192.025504 42370.039698
v -128.017003 192.025504 40343.952416
v -112.014878 192.025504 38317.865135
v -96.012752 192.025504 36291.777854
v -80.010627 192.025504 34265.690573
v -64.008501 192.025504 32239.603292
v -48.006376 192.025504 30213.516011
v -32.004251 192.025504 28187.428730
v -16.002125 192.025504 26161.341449
v 0.000000 192.025504 24135.254168
v 16.002125 192.025504 22109.166887
v 32.004251 192.025504 20083.079606
v 48.006376 192.025504 18056.992325
v 64.008501 192.025504 16030.905044
v 80.010627 192.025504 14004.817763
v 96.012752 192.025504 11978.730482
v 112.014878 192.025504 9952.643201
v 128.017003 192.025504 7926.555920
v 144.019128 192.025504 5900.468639
v 160.021254 192.025504 3874.381358
v 176.023379 192.025504 1848.294077
v 192.025504 192.025504 -177.793204
f 1 2 27
f 1 27 26
f 2 3 28
f 2 28 27
f 3 4 29
f 3 29 28
f 4 5 30
f 4 30 29
f 5 6 31
f 5 31 30
f 6 7 32
f 6 32 31
f 7 8 33
f 7 33 32
f 8 9 34
f 8 34 33
f 9 10 35
f 9 35 34
f 10 11 36
f 10 36 35
f 11 12 37
f 11 37 36
f 12 13 38
f 12 38 37
f 13 14 39
f 13 39 38
f 14 15 40
f 14 40 39
f 15 16 41
f 15 41 40
f 16 17 42
f 16 42 41
f 17 18 43
f 17 43 42
f 18 19 44
f 18 44 43
f 19 20 45
f 19 45 44
f 20 21 46
f 20 46 45
f 21 22 47
f 21 47 46
f 22 23 48
f 22 48 47
f 23 24 49
f 23 49 48
f 24 25 50
f 24 50 49
f 26 27 52
f 26 52 51
f 27 28 53
f 27 53 52
f 28 29 54
f 28 54 53
f 29 30 55
f 29 55 54
f 30 31 56
f 30 56 55
f 31 32 57
f 31 57 56
f 32 33 58
f 32 58 57
f 33 34 59
f 33 59 58
f 34 35 60
f 34 60 59
f 35 36 61
f 35 61 60
f 36 37 62
f 36 62 61
f 37 38 63
f 37 63 62
f 38 39 64
f 38 64 63
f 39 40 65
f 39 65 64
f 40 41 66
f 40 66 65
f 41 42 67
f 41 67 66
f 42 43 68
f 42 68 67
f 43 44 69
f 43 69 68
f 44 45 70
f 44 70 69
f 45 46 71
f 45 71 70
f 46 47 72
f 46 72 71
f 47 48 73
f 47 73 72
f 48 49 74
f 48 74 73
f 49 50 75
f 49 75 74
f 51 52 77
f 51 77 76
f 52 53 78
f 52 78 77
f 53 54 79
f 53 79 78
f 54 55 80
f 54 80 79
f 55 56 81
f 55 81 80
f 56 57 82
f 56 82 81
f 57 58 83
f 57 83 82
f 58 59 84
f 58 84 83
f 59 60 85
f 59 85 84
f 60 61 86
f 60 86 85
f 61 62 87
f 61 87 86
f 62 63 88
f 62 88 87
f 63 64 89
f 63 89 88
f 64 65 90
f 64 90 89
f 65 66 91
f 65 91 90
f 66 67 92
f 66 92 91
f 67 68 93
f 67 93 92
f 68 69 94
f 68 94 93
f 69 70 95
f 69 95 94
f 70 71 96
f 70 96 95
f 71 72 97
f 71 97 96
f 72 73 98
f 72 98 97
f 73 74 99
f 73 99 98
f 74 75 100
f 74 100 99
f 76 77 102
f 76 102 101
f 77 78 103
f 77 103 102
f 78 79 104
f 78 104 103
f 79 80 105
f 79 105 104
f 80 81 106
f 80 106 105
f 81 82 107
f 81 107 106
f 82 83 108
f 82 108 107
f 83 84 109
f 83 109 108
f 84 85 110
f 84 110 109
f 85 86 111
f 85 111 110
f 86 87 112
f 86 112 111
f 87 88 113
f 87 113 112
f 88 89 114
f 88 114 113
f 89 90 115
f 89 115 114
f 90 91 116
f 90 116 115
f 91 92 117
f 91 117 116
f 92 93 118
f 92 118 117
f 93 94 119
f 93 119 118
f 94 95 120
f 94 120 119
f 95 96 121
f 95 121 120
f 96 97 122
f 96 122 121
f 97 98 123
f 97 123 122
f 98 99 124
f 98 124 123
f 99 100 125
f 99 125 124
f 101 102 127
f 101 127 126
f 102 103 128
f 102 128 127
f 103 104 129
f 103 129 128
f 104 105 130
f 104 130 129
f 105 106 131
f 105 131 130
f 106 107 132
f 106 132 131
f 107 108 133
f 107 133 132
f 108 109 134
f 108 134 133
f 109 110 135
f 109 135 134
f 110 111 136
f 110 136 135
f 111 112 137
f 111 137 136
f 112 113 138
f 112 138 137
f 113 114 139
f 113 139 138
f 114 115 140
f 114 140 139
f 115 116 141
f 115 141 140
f 116 117 142
f 116 142 141
f 117 118 143
f 117 143 142
f 118 119 144
f 118 144 143
f 119 120 145
f 119 145 144
f 120 121 146
f 120 146 145
f 121 122 147
f 121 147 146
f 122 123 148
f 122 148 147
f 123 124 149
f 123 149 148
f 124 125 150
f 124 150 149
f 126 127 152
f 126 152 151
f 127 128 153
f 127 153 152
f 128 129 154
f 128 154 153
f 129 130 155
f 129 155 154
f 130 131 156
f 130 156 155
f 131 132 157
f 131 157 156
f 132 133 158
f 132 158 157
f 133 134 159
f 133 159 158
f 134 135 160
f 134 160 159
f 135 136 161
f 135 161 160
f 136 137 162
f 136 162 161
f 137 138 163
f 137 163 162
f 138 139 164
f 138 164 163
f 139 140 165
f 139 165 164
f 140 141 166
f 140 166 165
f 141 142 167
f 141 167 166
f 142 143 168
f 142 168 167
f 143 144 169
f 143 169 168
f 144 145 170
f 144 170 169
f 145 146 171
f 145 171 170
f 146 147 172
f 146 172 171
f 147 148 173
f 147 173 172
f 148 149 174
f 148 174 173
f 149 150 175
f 149 175 174
f 151 152 177
f 151 177 176
f 152 153 178
f 152 178 177
f 153 154 179
f 153 179 178
f 154 155 180
f 154 180 179
f 155 156 181
f 155 181 180
f 156 157 182
f 156 182 181
f 157 158 183
f 157 183 182
f 158 159 184
f 158 184 183
f 159 160 185
f 159 185 184
f 160 161 186
f 160 186 185
f 161 162 187
f 161 187 186
f 162 163 188
f 162 188 187
f 163 164 189
f 163 189 188
f 164 165 190
f 164 190 189
f 165 166 191
f 165 191 190
f 166 167 192
f 166 192 191
f 167 168 193
f 167 193 192
f 168 169 194
f 168 194 193
f 169 170 195
f 169 195 194
f 170 171 196
f 170 196 195
f 171 172 197
f 171 197 196
f 172 173 198
f 172 198 197
f 173 174 199
f 173 199 198
f 174 175 200
f 174 200 199
f 176 177 202
f 176 202 201
f 177 178 203
f 177 203 202
f 178 179 204
f 178 204 203
f 179 180 205
f 179 205 204
f 180 181 206
f 180 206 205
f 181 182 207
f 181 207 206
f 182 183 208
f 182 208 207
f 183 184 209
f 183 209 208
f 184 185 210
f 184 210 209
f 185 186 211
f 185 211 210
f 186 187 212
f 186 212 211
f 187 188 213
f 187 213 212
f 188 189 214
f 188 214 213
f 189 190 215
f 189 215 214
f 190 191 216
f 190 216 215
f 191 192 217
f 191 217 216
f 192 193 218
f 192 218 217
f 193 194 219
f 193 219 218
f 194 195 220
f 194 220 219
f 195 196 221
f 195 221 220
f 196 197 222
f 196 222 221
f 197 198 223
f 197 223 222
f 198 199 224
f 198 224 223
f 199 200 225
f 199 225 224
f 201 202 227
f 201 227 226
f 202 203 228
f 202 228 227
f 203 204 229
f 203 229 228
f 204 205 230
f 204 230 229
f 205 206 231
f 205 231 230
f 206 207 232
f 206 232 231
f 207 208 233
f 207 233 232
f 208 209 234
f 208 234 233
f 209 210 235
f 209 235 234
f 210 211 236
f 210 236 235
f 211 212 237
f 211 237 236
f 212 213 238
f 212 238 237
f 213 214 239
f 213 239 238
f 214 215 240
f 214 240 239
f 215 216 241
f 215 241 240
f 216 217 242
f 216 242 241
f 217 218 243
f 217 243 242
f 218 219 244
f 218 244 243
f 219 220 245
f 219 245 244
f 220 221 246
f 220 246 245
f 221 222 247
f 221 247 246
f 222 223 248
f 222 248 247
f 223 224 249
f 223 249 248
f 224 225 250
f 224 250 249
f 226 227 252
f 226 252 251
f 227 228 253
f 227 253 252
f 228 229 254
f 228 254 253
f 229 230 255
f 229 255 254
f 230 231 256
f 230 256 255
f 231 232 257
f 231 257 256
f 232 233 258
f 232 258 257
f 233 234 259
f 233 259 258
f 234 235 260
f 234 260 259
f 235 236 261
f 235 261 260
f 236 237 262
f 236 262 261
f 237 238 263
f 237 263 262
f 238 239 264
f 238 264 263
f 239 240 265
f 239 265 264
f 240 241 266
f 240 266 265
f 241 242 267
f 241 267 266
f 242 243 268
f 242 268 267
f 243 244 269
f 243 269 268
f 244 245 270
f 244 270 269
f 245 246 271
f 245 271 270
f 246 247 272
f 246 272 271
f 247 248 273
f 247 273 272
f 248 249 274
f 248 274 273
f 249 250 275
f 249 275 274
f 251 252 277
f 251 277 276
f 252 253 278
f 252 278 277
f 253 254 279
f 253 279 278
f 254 255 280
f 254 280 279
f 255 256 281
f 255 281 280
f 256 257 282
f 256 282 281
f 257 258 283
f 257 283 282
f 258 259 284
f 258 284 283
f 259 260 285
f 259 285 284
f 260 261 286
f 260 286 285
f 261 262 287
f 261 287 286
f 262 263 288
f 262 288 287
f 263 264 289
f 263 289 288
f 264 265 290
f 264 290 289
f 265 266 291
f 265 291 290
f 266 267 292
f 266 292 291
f 267 268 293
f 267 293 292
f 268 269 294
f 268 294 293
f 269 270 295
f 269 295 294
f 270 271 296
f 270 296 295
f 271 272 297
f 271 297 296
f 272 273 298
f 272 298 297
f 273 274 299
f 273 299 298
f 274 275 300
f 274 300 299
f 276 277 302
f 276 302 301
f 277 278 303
f 277 303 302
f 278 279 304
f 278 304 303
f 279 280 305
f 279 305 304
f 280 281 306
f 280 306 305
f 281 282 307
f 281 307 306
f 282 283 308
f 282 308 307
f 283 284 309
f 283 309 308
f 284 285 310
f 284 310 309
f 285 286 311
f 285 311 310
f 286 287 312
f 286 312 311
f 287 288 313
f 287 313 312
f 288 289 314
f 288 314 313
f 289 290 315
f 289 315 314
f 290 291 316
f 290 316 315
f 291 292 317
f 291 317 316
f 292 293 318
f 292 318 317
f 293 294 319
f 293 319 318
f 294 295 320
f 294 320 319
f 295 296 321
f 295 321 320
f 296 297 322
f 296 322 321
f 297 298 323
f 297 323 322
f 298 299 324
f 298 324 323
f 299 300 325
f 299 325 324
f 301 302 327
f 301 327 326
f 302 303 328
f 302 328 327
f 303 304 329
f 303 329 328
f 304 305 330
f 304 330 329
f 305 306 331
f 305 331 330
f 306 307 332
f 306 332 331
f 307 308 333
f 307 333 332
f 308 309 334
f 308 334 333
f 309 310 335
f 309 335 334
f 310 311 336
f 310 336 335
f 311 312 337
f 311 337 336
f 312 313 338
f 312 338 337
f 313 314 339
f 313 339 338
f 314 315 340
f 314 340 339
f 315 316 341
f 315 341 340
f 316 317 342
f 316 342 341
f 317 318 343
f 317 343 342
f 318 319 344
f 318 344 343
f 319 320 345
f 319 345 344
f 320 321 346
f 320 346 345
f 321 322 347
f 321 347 346
f 322 323 348
f 322 348 347
f 323 324 349
f 323 349 348
f 324 325 350
f 324 350 349
f 326 327 352
f 326 352 351
f 327 328 353
f 327 353 352
f 328 329 354
f 328 354 353
f 329 330 355
f 329 355 354
f 330 331 356
f 330 356 355
f 331 332 357
f 331 357 356
f 332 333 358
f 332 358 357
f 333 334 359
f 333 359 358
f 334 335 360
f 334 360 359
f 335 336 361
f 335 361 360
f 336 337 362
f 336 362 361
f 337 338 363
f 337 363 362
f 338 339 364
f 338 364 363
f 339 340 365
f 339 365 364
f 340 341 366
f 340 366 365
f 341 342 367
f 341 367 366
f 342 343 368
f 342 368 367
f 343 344 369
f 343 369 368
f 344 345 370
f 344 370 369
f 345 346 371
f 345 371 370
f 346 347 372
f 346 372 371
f 347 348 373
f 347 373 372
f 348 349 374
f 348 374 373
f 349 350 375
f 349 375 374
f 351 352 377
f 351 377 376
f 352 353 378
f 352 378 377
f 353 354 379
f 353 379 378
f 354 355 380
f 354 380 379
f 355 356 381
f 355 381 380
f 356 357 382
f 356 382 381
f 357 358 383
f 357 383 382
f 358 359 384
f 358 384 383
f 359 360 385
f 359 385 384
f 360 361 386
f 360 386 385
f 361 362 387
f 361 387 386
f 362 363 388
f 362 388 387
f 363 364 389
f 363 389 388
f 364 365 390
f 364 390 389
f 365 366 391
f 365 391 390
f 366 367 392
f 366 392 391
f 367 368 393
f 367 393 392
f 368 369 394
f 368 394 393
f 369 370 395
f 369 395 394
f 370 371 396
f 370 396 395
f 371 372 397
f 371 397 396
f 372 373 398
f 372 398 397
f 373 374 399
f 373 399 398
f 374 375 400
f 374 400 399
f 376 377 402
f 376 402 401
f 377 378 403
f 377 403 402
f 378 379 404
f 378 404 403
f 379 380 405
f 379 405 404
f 380 381 406
f 380 406 405
f 381 382 407
f 381 407 406
f 382 383 408
f 382 408 407
f 383 384 409
f 383 409 408
f 384 385 410
f 384 410 409
f 385 386 411
f 385 411 410
f 386 387 412
f 386 412 411
f 387 388 413
f 387 413 412
f 388 389 414
f 388 414 413
f 389 390 415
f 389 415 414
f 390 391 416
f 390 416 415
f 391 392 417
f 391 417 416
f 392 393 418
f 392 418 417
f 393 394 419
f 393 419 418
f 394 395 420
f 394 420 419
f 395 396 421
f 395 421 420
f 396 397 422
f 396 422 421
f 397 398 423
f 397 423 422
f 398 399 424
f 398 424 423
f 399 400 425
f 399 425 424
f 401 402 427
f 401 427 426
f 402 403 428
f 402 428 427
f 403 404 429
f 403 429 428
f 404 405 430
f 404 430 429
f 405 406 431
f 405 431 430
f 406 407 432
f 406 432 431
f 407 408 433
f 407 433 432
f 408 409 434
f 408 434 433
f 409 410 435
f 409 435 434
f 410 411 436
f 410 436 435
f 411 412 437
f 411 437 436
f 412 413 438
f 412 438 437
f 413 414 439
f 413 439 438
f 414 415 440
f 414 440 439
f 415 416 441
f 415 441 440
f 416 417 442
f 416 442 441
f 417 418 443
f 417 443 442
f 418 419 444
f 418 444 443
f 419 420 445
f 419 445 444
f 420 421 446
f 420 446 445
f 421 422 447
f 421 447 446
f 422 423 448
f 422 448 447
f 423 424 449
f 423 449 448
f 424 425 450
f 424 450 449
f 426 427 452
f 426 452 451
f 427 428 453
f 427 453 452
f 428 429 454
f 428 454 453
f 429 430 455
f 429 455 454
f 430 431 456
f 430 456 455
f 431 432 457
f 431 457 456
f 432 433 458
f 432 458 457
f 433 434 459
f 433 459 458
f 434 435 460
f 434 460 459
f 435 436 461
f 435 461 460
f 436 437 462
f 436 462 461
f 437 438 463
f 437 463 462
f 438 439 464
f 438 464 463
f 439 440 465
f 439 465 464
f 440 441 466
f 440 466 465
f 441 442 467
f 441 467 466
f 442 443 468
f 442 468 467
f 443 444 469
f 443 469 468
f 444 445 470
f 444 470 469
f 445 446 471
f 445 471 470
f 446 447 472
f 446 472 471
f 447 448 473
f 447 473 472
f 448 449 474
f 448 474 473
f 449 450 475
f 449 475 474
f 451 452 477
f 451 477 476
f 452 453 478
f 452 478 477
f 453 454 479
f 453 479 478
f 454 455 480
f 454 480 479
f 455 456 481
f 455 481 480
f 456 457 482
f 456 482 481
f 457 458 483
f 457 483 482
f 458 459 484
f 458 484 483
f 459 460 485
f 459 485 484
f 460 461 486
f 460 486 485
f 461 462 487
f 461 487 486
f 462 463 488
f 462 488 487
f 463 464 489
f 463 489 488
f 464 465 490
f 464 490 489
f 465 466 491
f 465 491 490
f 466 467 492
f 466 492 491
f 467 468 493
f 467 493 492
f 468 469 494
f 468 494 493
f 469 470 495
f 469 495 494
f 470 471 496
f 470 496 495
f 471 472 497
f 471 497 496
f 472 473 498
f 472 498 497
f 473 474 499
f 473 499 498
f 474 475 500
f 474 500 499
f 476 477 502
f 476 502 501
f 477 478 503
f 477 503 502
f 478 479 504
f 478 504 503
f 479 480 505
f 479 505 504
f 480 481 506
f 480 506 505
f 481 482 507
f 481 507 506
f 482 483 508
f 482 508 507
f 483 484 509
f 483 509 508
f 484 485 510
f 484 510 509
f 485 486 511
f 485 511 510
f 486 487 512
f 486 512 511
f 487 488 513
f 487 513 512
f 488 489 514
f 488 514 513
f 489 490 515
f 489 515 514
f 490 491 516
f 490 516 515
f 491 492 517
f 491 517 516
f 492 493 518
f 492 518 517
f 493 494 519
f 493 519 518
f 494 495 520
f 494 520 519
f 495 496 521
f 495 521 520
f 496 497 522
f 496 522 521
f 497 498 523
f 497 523 522
f 498 499 524
f 498 524 523
f 499 500 525
f 499 525 524
f 501 502 527
f 501 527 526
f 502 503 528
f 502 528 527
f 503 504 529
f 503 529 528
f 504 505 530
f 504 530 529
f 505 506 531
f 505 531 530
f 506 507 532
f 506 532 531
f 507 508 533
f 507 533 532
f 508 509 534
f 508 534 533
f 509 510 535
f 509 535 534
f 510 511 536
f 510 536 535
f 511 512 537
f 511 537 536
f 512 513 538
f 512 538 537
f 513 514 539
f 513 539 538
f 514 515 540
f 514 540 539
f 515 516 541
f 515 541 540
f 516 517 542
f 516 542 541
f 517 518 543
f 517 543 542
f 518 519 544
f 518 544 543
f 519 520 545
f 519 545 544
f 520 521 546
f 520 546 545
f 521 522 547
f 521 547 546
f 522 523 548
f 522 548 547
f 523 524 549
f 523 549 548
f 524 525 550
f 524 550 549
f 526 527 552
f 526 552 551
f 527 528 553
f 527 553 552
f 528 529 554
f 528 554 553
f 529 530 555
f 529 555 554
f 530 531 556
f 530 556 555
f 531 532 557
f 531 557 556
f 532 533 558
f 532 558 557
f 533 534 559
f 533 559 558
f 534 535 560
f 534 560 559
f 535 536 561
f 535 561 560
f 536 537 562
f 536 562 561
f 537 538 563
f 537 563 562
f 538 539 564
f 538 564 563
f 539 540 565
f 539 565 564
f 540 541 566
f 540 566 565
f 541 542 567
f 541 567 566
f 542 543 568
f 542 568 567
f 543 544 569
f 543 569 568
f 544 545 570
f 544 570 569
f 545 546 571
f 545 571 570
f 546 547 572
f 546 572 571
f 547 548 573
f 547 573 572
f 548 549 574
f 548 574 573
f 549 550 575
f 549 575 574
f 551 552 577
f 551 577 576
f 552 553 578
f 552 578 577
f 553 554 579
f 553 579 578
f 554 555 580
f 554 580 579
f 555 556 581
f 555 581 580
f 556 557 582
f 556 582 581
f 557 558 583
f 557 583 582
f 558 559 584
f 558 584 583
f 559 560 585
f 559 585 584
f 560 561 586
f 560 586 585
f 561 562 587
f 561 587 586
f 562 563 588
f 562 588 587
f 563 564 589
f 563 589 588
f 564 565 590
f 564 590 589
f 565 566 591
f 565 591 590
f 566 567 592
f 566 592 591
f 567 568 593
f 567 593 592
f 568 569 594
f 568 594 593
f 569 570 595
f 569 595 594
f 570 571 596
f 570 596 595
f 571 572 597
f 571 597 596
f 572 573 598
f 572 598 597
f 573 574 599
f 573 599 598
f 574 575 600
f 574 600 599
f 576 577 602
f 576 602 601
f 577 578 603
f 577 603 602
f 578 579 604
f 578 604 603
f 579 580 605
f 579 605 604
f 580 581 606
f 580 606 605
f 581 582 607
f 581 607 606
f 582 583 608
f 582 608 607
f 583 584 609
f 583 609 608
f 584 585 610
f 584 610 609
f 585 586 611
f 585 611 610
f 586 587 612
f 586 612 611
f 587 588 613
f 587 613 612
f 588 589 614
f 588 614 613
f 589 590 615
f 589 615 614
f 590 591 616
f 590 616 615
f 591 592 617
f 591 617 616
f 592 593 618
f 592 618 617
f 593 594 619
f 593 619 618
f 594 595 620
f 594 620 619
f 595 596 621
f 595 621 620
f 596 597 622
f 596 622 621
f 597 598 623
f 597 623 622
f 598 599 624
f 598 624 623
f 599 600 625
f 599 625 624
