o [4B] 3D Diagram - S2-04 Group G_169
v -192.025504 -192.025504 25393.322155
v -176.023379 -192.025504 23890.940795
v -160.021254 -192.025504 22388.559434
v -144.019128 -192.025504 20886.178074
v -128.017003 -192.025504 19383.796714
v -112.014878 -192.025504 17881.415354
v -96.012752 -192.025504 16379.033993
v -80.010627 -192.025504 14876.652633
v -64.008501 -192.025504 13374.271273
v -48.006376 -192.025504 11871.889913
v -32.004251 -192.025504 10369.508552
v -16.002125 -192.025504 8867.127192
v 0.000000 -192.025504 7364.745832
v 16.002125 -192.025504 5862.364472
v 32.004251 -192.025504 4359.983111
v 48.006376 -192.025504 2857.601751
v 64.008501 -192.025504 1355.220391
v 80.010627 -192.025504 -147.160969
v 96.012752 -192.025504 -1649.542330
v 112.014878 -192.025504 -3151.923690
v 128.017003 -192.025504 -4654.305050
v 144.019128 -192.025504 -6156.686410
v 160.021254 -192.025504 -7659.067771
v 176.023379 -192.025504 -9161.449131
v 192.025504 -192.025504 -10663.830491
v -192.025504 -176.023379 25723.911517
v -176.023379 -176.023379 24221.530157
v -160.021254 -176.023379 22719.148797
v -144.019128 -176.023379 21216.767437
v -128.017003 -176.023379 19714.386076
v -112.014878 -176.023379 18212.004716
v -96.012752 -176.023379 16709.623356
v -80.010627 -176.023379 15207.241996
v -64.008501 -176.023379 13704.860635
v -48.006376 -176.023379 12202.479275
v -32.004251 -176.023379 10700.097915
v -16.002125 -176.023379 9197.716555
v 0.000000 -176.023379 7695.335194
v 16.002125 -176.023379 6192.953834
v 32.004251 -176.023379 4690.572474
v 48.006376 -176.023379 3188.191114
v 64.008501 -176.023379 1685.809753
v 80.010627 -176.023379 183.428393
v 96.012752 -176.023379 -1318.952967
v 112.014878 -176.023379 -2821.334327
v 128.017003 -176.023379 -4323.715688
v 144.019128 -176.023379 -5826.097048
v 160.021254 -176.023379 -7328.478408
v 176.023379 -176.023379 -8830.859768
v 192.025504 -176.023379 -10333.241129
v -192.025504 -160.021254 26054.500880
v -176.023379 -160.021254 24552.119520
v -160.021254 -160.021254 23049.738159
v -144.019128 -160.021254 21547.356799
v -128.017003 -160.021254 20044.975439
v -112.014878 -160.021254 18542.594079
v -96.012752 -160.021254 17040.212718
v -80.010627 -160.021254 15537.831358
v -64.008501 -160.021254 14035.449998
v -48.006376 -160.021254 12533.068638
v -32.004251 -160.021254 11030.687277
v -16.002125 -160.021254 9528.305917
v 0.000000 -160.021254 8025.924557
v 16.002125 -160.021254 6523.543197
v 32.004251 -160.021254 5021.161836
v 48.006376 -160.021254 3518.780476
v 64.008501 -160.021254 2016.399116
v 80.010627 -160.021254 514.017756
v 96.012752 -160.021254 -988.363605
v 112.014878 -160.021254 -2490.744965
v 128.017003 -160.021254 -3993.126325
v 144.019128 -160.021254 -5495.507685
v 160.021254 -160.021254 -6997.889046
v 176.023379 -160.021254 -8500.270406
v 192.025504 -160.021254 -10002.651766
v -192.025504 -144.019128 26385.090242
v -176.023379 -144.019128 24882.708882
v -160.021254 -144.019128 23380.327522
v -144.019128 -144.019128 21877.946162
v -128.017003 -144.019128 20375.564801
v -112.014878 -144.019128 18873.183441
v -96.012752 -144.019128 17370.802081
v -80.010627 -144.019128 15868.420721
v -64.008501 -144.019128 14366.039360
v -48.006376 -144.019128 12863.658000
v -32.004251 -144.019128 11361.276640
v -16.002125 -144.019128 9858.895280
v 0.000000 -144.019128 8356.513919
v 16.002125 -144.019128 6854.132559
v 32.004251 -144.019128 5351.751199
v 48.006376 -144.019128 3849.369839
v 64.008501 -144.019128 2346.988478
v 80.010627 -144.019128 844.607118
v 96.012752 -144.019128 -657.774242
v 112.014878 -144.019128 -2160.155602
v 128.017003 -144.019128 -3662.536963
v 144.019128 -144.019128 -5164.918323
v 160.021254 -144.019128 -6667.299683
v 176.023379 -144.019128 -8169.681043
v 192.025504 -144.019128 -9672.062404
v -192.025504 -128.017003 26715.679605
v -176.023379 -128.017003 25213.298245
v -160.021254 -128.017003 23710.916884
v -144.019128 -128.017003 22208.535524
v -128.017003 -128.017003 20706.154164
v -112.014878 -128.017003 19203.772804
v -96.012752 -128.017003 17701.391443
v -80.010627 -128.017003 16199.010083
v -64.008501 -128.017003 14696.628723
v -48.006376 -128.017003 13194.247363
v -32.004251 -128.017003 11691.866002
v -16.002125 -128.017003 10189.484642
v 0.000000 -128.017003 8687.103282
v 16.002125 -128.017003 7184.721922
v 32.004251 -128.017003 5682.340561
v 48.006376 -128.017003 4179.959201
v 64.008501 -128.017003 2677.577841
v 80.010627 -128.017003 1175.196481
v 96.012752 -128.017003 -327.184880
v 112.014878 -128.017003 -1829.566240
v 128.017003 -128.017003 -3331.947600
v 144.019128 -128.017003 -4834.328960
v 160.021254 -128.017003 -6336.710321
v 176.023379 -128.017003 -7839.091681
v 192.025504 -128.017003 -9341.473041
v -192.025504 -112.014878 27046.268967
v -176.023379 -112.014878 25543.887607
v -160.021254 -112.014878 24041.506247
v -144.019128 -112.014878 22539.124887
v -128.017003 -112.014878 21036.743526
v -112.014878 -112.014878 19534.362166
v -96.012752 -112.014878 18031.980806
v -80.010627 -112.014878 16529.599446
v -64.008501 -112.014878 15027.218085
v -48.006376 -112.014878 13524.836725
v -32.004251 -112.014878 12022.455365
v -16.002125 -112.014878 10520.074005
v 0.000000 -112.014878 9017.692644
v 16.002125 -112.014878 7515.311284
v 32.004251 -112.014878 6012.929924
v 48.006376 -112.014878 4510.548564
v 64.008501 -112.014878 3008.167203
v 80.010627 -112.014878 1505.785843
v 96.012752 -112.014878 3.404483
v 112.014878 -112.014878 -1498.976877
v 128.017003 -112.014878 -3001.358238
v 144.019128 -112.014878 -4503.739598
v 160.021254 -112.014878 -6006.120958
v 176.023379 -112.014878 -7508.502318
v 192.025504 -112.014878 -9010.883679
v -192.025504 -96.012752 27376.858330
v -176.023379 -96.012752 25874.476970
v -160.021254 -96.012752 24372.095609
v -144.019128 -96.012752 22869.714249
v -128.017003 -96.012752 21367.332889
v -112.014878 -96.012752 19864.951529
v -96.012752 -96.012752 18362.570168
v -80.010627 -96.012752 16860.188808
v -64.008501 -96.012752 15357.807448
v -48.006376 -96.012752 13855.426088
v -32.004251 -96.012752 12353.044727
v -16.002125 -96.012752 10850.663367
v 0.000000 -96.012752 9348.282007
v 16.002125 -96.012752 7845.900647
v 32.004251 -96.012752 6343.519286
v 48.006376 -96.012752 4841.137926
v 64.008501 -96.012752 3338.756566
v 80.010627 -96.012752 1836.375206
v 96.012752 -96.012752 333.993845
v 112.014878 -96.012752 -1168.387515
v 128.017003 -96.012752 -2670.768875
v 144.019128 -96.012752 -4173.150235
v 160.021254 -96.012752 -5675.531596
v 176.023379 -96.012752 -7177.912956
v 192.025504 -96.012752 -8680.294316
v -192.025504 -80.010627 27707.447692
v -176.023379 -80.010627 26205.066332
v -160.021254 -80.010627 24702.684972
v -144.019128 -80.010627 23200.303612
v -128.017003 -80.010627 21697.922251
v -112.014878 -80.010627 20195.540891
v -96.012752 -80.010627 18693.159531
v -80.010627 -80.010627 17190.778171
v -64.008501 -80.010627 15688.396810
v -48.006376 -80.010627 14186.015450
v -32.004251 -80.010627 12683.634090
v -16.002125 -80.010627 11181.252730
v 0.000000 -80.010627 9678.871369
v 16.002125 -80.010627 8176.490009
v 32.004251 -80.010627 6674.108649
v 48.006376 -80.010627 5171.727289
v 64.008501 -80.010627 3669.345928
v 80.010627 -80.010627 2166.964568
v 96.012752 -80.010627 664.583208
v 112.014878 -80.010627 -837.798152
v 128.017003 -80.010627 -2340.179513
v 144.019128 -80.010627 -3842.560873
v 160.021254 -80.010627 -5344.942233
v 176.023379 -80.010627 -6847.323593
v 192.025504 -80.010627 -8349.704954
v -192.025504 -64.008501 28038.037055
v -176.023379 -64.008501 26535.655695
v -160.021254 -64.008501 25033.274334
v -144.019128 -64.008501 23530.892974
v -128.017003 -64.008501 22028.511614
v -112.014878 -64.008501 20526.130254
v -96.012752 -64.008501 19023.748893
v -80.010627 -64.008501 17521.367533
v -64.008501 -64.008501 16018.986173
v -48.006376 -64.008501 14516.604813
v -32.004251 -64.008501 13014.223452
v -16.002125 -64.008501 11511.842092
v 0.000000 -64.008501 10009.460732
v 16.002125 -64.008501 8507.079372
v 32.004251 -64.008501 7004.698011
v 48.006376 -64.008501 5502.316651
v 64.008501 -64.008501 3999.935291
v 80.010627 -64.008501 2497.553931
v 96.012752 -64.008501 995.172570
v 112.014878 -64.008501 -507.208790
v 128.017003 -64.008501 -2009.590150
v 144.019128 -64.008501 -3511.971510
v 160.021254 -64.008501 -5014.352871
v 176.023379 -64.008501 -6516.734231
v 192.025504 -64.008501 -8019.115591
v -192.025504 -48.006376 28368.626417
v -176.023379 -48.006376 26866.245057
v -160.021254 -48.006376 25363.863697
v -144.019128 -48.006376 23861.482337
v -128.017003 -48.006376 22359.100976
v -112.014878 -48.006376 20856.719616
v -96.012752 -48.006376 19354.338256
v -80.010627 -48.006376 17851.956896
v -64.008501 -48.006376 16349.575535
v -48.006376 -48.006376 14847.194175
v -32.004251 -48.006376 13344.812815
v -16.002125 -48.006376 11842.431455
v 0.000000 -48.006376 10340.050094
v 16.002125 -48.006376 8837.668734
v 32.004251 -48.006376 7335.287374
v 48.006376 -48.006376 5832.906014
v 64.008501 -48.006376 4330.524653
v 80.010627 -48.006376 2828.143293
v 96.012752 -48.006376 1325.761933
v 112.014878 -48.006376 -176.619427
v 128.017003 -48.006376 -1679.000788
v 144.019128 -48.006376 -3181.382148
v 160.021254 -48.006376 -4683.763508
v 176.023379 -48.006376 -6186.144868
v 192.025504 -48.006376 -7688.526229
v -192.025504 -32.004251 28699.215780
v -176.023379 -32.004251 27196.834420
v -160.021254 -32.004251 25694.453059
v -144.019128 -32.004251 24192.071699
v -128.017003 -32.004251 22689.690339
v -112.014878 -32.004251 21187.308979
v -96.012752 -32.004251 19684.927618
v -80.010627 -32.004251 18182.546258
v -64.008501 -32.004251 16680.164898
v -48.006376 -32.004251 15177.783538
v -32.004251 -32.004251 13675.402177
v -16.002125 -32.004251 12173.020817
v 0.000000 -32.004251 10670.639457
v 16.002125 -32.004251 9168.258097
v 32.004251 -32.004251 7665.876736
v 48.006376 -32.004251 6163.495376
v 64.008501 -32.004251 4661.114016
v 80.010627 -32.004251 3158.732656
v 96.012752 -32.004251 1656.351295
v 112.014878 -32.004251 153.969935
v 128.017003 -32.004251 -1348.411425
v 144.019128 -32.004251 -2850.792785
v 160.021254 -32.004251 -4353.174146
v 176.023379 -32.004251 -5855.555506
v 192.025504 -32.004251 -7357.936866
v -192.025504 -16.002125 29029.805142
v -176.023379 -16.002125 27527.423782
v -160.021254 -16.002125 26025.042422
v -144.019128 -16.002125 24522.661062
v -128.017003 -16.002125 23020.279701
v -112.014878 -16.002125 21517.898341
v -96.012752 -16.002125 20015.516981
v -80.010627 -16.002125 18513.135621
v -64.008501 -16.002125 17010.754260
v -48.006376 -16.002125 15508.372900
v -32.004251 -16.002125 14005.991540
v -16.002125 -16.002125 12503.610180
v 0.000000 -16.002125 11001.228819
v 16.002125 -16.002125 9498.847459
v 32.004251 -16.002125 7996.466099
v 48.006376 -16.002125 6494.084739
v 64.008501 -16.002125 4991.703378
v 80.010627 -16.002125 3489.322018
v 96.012752 -16.002125 1986.940658
v 112.014878 -16.002125 484.559298
v 128.017003 -16.002125 -1017.822063
v 144.019128 -16.002125 -2520.203423
v 160.021254 -16.002125 -4022.584783
v 176.023379 -16.002125 -5524.966143
v 192.025504 -16.002125 -7027.347504
v -192.025504 0.000000 29360.394505
v -176.023379 0.000000 27858.013145
v -160.021254 0.000000 26355.631784
v -144.019128 0.000000 24853.250424
v -128.017003 0.000000 23350.869064
v -112.014878 0.000000 21848.487704
v -96.012752 0.000000 20346.106343
v -80.010627 0.000000 18843.724983
v -64.008501 0.000000 17341.343623
v -48.006376 0.000000 15838.962263
v -32.004251 0.000000 14336.580902
v -16.002125 0.000000 12834.199542
v 0.000000 0.000000 11331.818182
v 16.002125 0.000000 9829.436822
v 32.004251 0.000000 8327.055461
v 48.006376 0.000000 6824.674101
v 64.008501 0.000000 5322.292741
v 80.010627 0.000000 3819.911381
v 96.012752 0.000000 2317.530020
v 112.014878 0.000000 815.148660
v 128.017003 0.000000 -687.232700
v 144.019128 0.000000 -2189.614060
v 160.021254 0.000000 -3691.995421
v 176.023379 0.000000 -5194.376781
v 192.025504 0.000000 -6696.758141
v -192.025504 16.002125 29690.983867
v -176.023379 16.002125 28188.602507
v -160.021254 16.002125 26686.221147
v -144.019128 16.002125 25183.839787
v -128.017003 16.002125 23681.458426
v -112.014878 16.002125 22179.077066
v -96.012752 16.002125 20676.695706
v -80.010627 16.002125 19174.314346
v -64.008501 16.002125 17671.932985
v -48.006376 16.002125 16169.551625
v -32.004251 16.002125 14667.170265
v -16.002125 16.002125 13164.788905
v 0.000000 16.002125 11662.407544
v 16.002125 16.002125 10160.026184
v 32.004251 16.002125 8657.644824
v 48.006376 16.002125 7155.263464
v 64.008501 16.002125 5652.882103
v 80.010627 16.002125 4150.500743
v 96.012752 16.002125 2648.119383
v 112.014878 16.002125 1145.738023
v 128.017003 16.002125 -356.643338
v 144.019128 16.002125 -1859.024698
v 160.021254 16.002125 -3361.406058
v 176.023379 16.002125 -4863.787419
v 192.025504 16.002125 -6366.168779
v -192.025504 32.004251 30021.573230
v -176.023379 32.004251 28519.191870
v -160.021254 32.004251 27016.810509
v -144.019128 32.004251 25514.429149
v -128.017003 32.004251 24012.047789
v -112.014878 32.004251 22509.666429
v -96.012752 32.004251 21007.285068
v -80.010627 32.004251 19504.903708
v -64.008501 32.004251 18002.522348
v -48.006376 32.004251 16500.140988
v -32.004251 32.004251 14997.759627
v -16.002125 32.004251 13495.378267
v 0.000000 32.004251 11992.996907
v 16.002125 32.004251 10490.615547
v 32.004251 32.004251 8988.234186
v 48.006376 32.004251 7485.852826
v 64.008501 32.004251 5983.471466
v 80.010627 32.004251 4481.090106
v 96.012752 32.004251 2978.708745
v 112.014878 32.004251 1476.327385
v 128.017003 32.004251 -26.053975
v 144.019128 32.004251 -1528.435335
v 160.021254 32.004251 -3030.816696
v 176.023379 32.004251 -4533.198056
v 192.025504 32.004251 -6035.579416
v -192.025504 48.006376 30352.162592
v -176.023379 48.006376 28849.781232
v -160.021254 48.006376 27347.399872
v -144.019128 48.006376 25845.018512
v -128.017003 48.006376 24342.637151
v -112.014878 48.006376 22840.255791
v -96.012752 48.006376 21337.874431
v -80.010627 48.006376 19835.493071
v -64.008501 48.006376 18333.111710
v -48.006376 48.006376 16830.730350
v -32.004251 48.006376 15328.348990
v -16.002125 48.006376 13825.967630
v 0.000000 48.006376 12323.586269
v 16.002125 48.006376 10821.204909
v 32.004251 48.006376 9318.823549
v 48.006376 48.006376 7816.442189
v 64.008501 48.006376 6314.060828
v 80.010627 48.006376 4811.679468
v 96.012752 48.006376 3309.298108
v 112.014878 48.006376 1806.916748
v 128.017003 48.006376 304.535387
v 144.019128 48.006376 -1197.845973
v 160.021254 48.006376 -2700.227333
v 176.023379 48.006376 -4202.608694
v 192.025504 48.006376 -5704.990054
v -192.025504 64.008501 30682.751955
v -176.023379 64.008501 29180.370595
v -160.021254 64.008501 27677.989234
v -144.019128 64.008501 26175.607874
v -128.017003 64.008501 24673.226514
v -112.014878 64.008501 23170.845154
v -96.012752 64.008501 21668.463793
v -80.010627 64.008501 20166.082433
v -64.008501 64.008501 18663.701073
v -48.006376 64.008501 17161.319713
v -32.004251 64.008501 15658.938352
v -16.002125 64.008501 14156.556992
v 0.000000 64.008501 12654.175632
v 16.002125 64.008501 11151.794272
v 32.004251 64.008501 9649.412911
v 48.006376 64.008501 8147.031551
v 64.008501 64.008501 6644.650191
v 80.010627 64.008501 5142.268831
v 96.012752 64.008501 3639.887470
v 112.014878 64.008501 2137.506110
v 128.017003 64.008501 635.124750
v 144.019128 64.008501 -867.256611
v 160.021254 64.008501 -2369.637971
v 176.023379 64.008501 -3872.019331
v 192.025504 64.008501 -5374.400691
v -192.025504 80.010627 31013.341317
v -176.023379 80.010627 29510.959957
v -160.021254 80.010627 28008.578597
v -144.019128 80.010627 26506.197237
v -128.017003 80.010627 25003.815876
v -112.014878 80.010627 23501.434516
v -96.012752 80.010627 21999.053156
v -80.010627 80.010627 20496.671796
v -64.008501 80.010627 18994.290435
v -48.006376 80.010627 17491.909075
v -32.004251 80.010627 15989.527715
v -16.002125 80.010627 14487.146355
v 0.000000 80.010627 12984.764994
v 16.002125 80.010627 11482.383634
v 32.004251 80.010627 9980.002274
v 48.006376 80.010627 8477.620914
v 64.008501 80.010627 6975.239553
v 80.010627 80.010627 5472.858193
v 96.012752 80.010627 3970.476833
v 112.014878 80.010627 2468.095473
v 128.017003 80.010627 965.714112
v 144.019128 80.010627 -536.667248
v 160.021254 80.010627 -2039.048608
v 176.023379 80.010627 -3541.429969
v 192.025504 80.010627 -5043.811329
v -192.025504 96.012752 31343.930680
v -176.023379 96.012752 29841.549320
v -160.021254 96.012752 28339.167959
v -144.019128 96.012752 26836.786599
v -128.017003 96.012752 25334.405239
v -112.014878 96.012752 23832.023879
v -96.012752 96.012752 22329.642518
v -80.010627 96.012752 20827.261158
v -64.008501 96.012752 19324.879798
v -48.006376 96.012752 17822.498438
v -32.004251 96.012752 16320.117077
v -16.002125 96.012752 14817.735717
v 0.000000 96.012752 13315.354357
v 16.002125 96.012752 11812.972997
v 32.004251 96.012752 10310.591636
v 48.006376 96.012752 8808.210276
v 64.008501 96.012752 7305.828916
v 80.010627 96.012752 5803.447556
v 96.012752 96.012752 4301.066195
v 112.014878 96.012752 2798.684835
v 128.017003 96.012752 1296.303475
v 144.019128 96.012752 -206.077886
v 160.021254 96.012752 -1708.459246
v 176.023379 96.012752 -3210.840606
v 192.025504 96.012752 -4713.221966
v -192.025504 112.014878 31674.520042
v -176.023379 112.014878 30172.138682
v -160.021254 112.014878 28669.757322
v -144.019128 112.014878 27167.375962
v -128.017003 112.014878 25664.994601
v -112.014878 112.014878 24162.613241
v -96.012752 112.014878 22660.231881
v -80.010627 112.014878 21157.850521
v -64.008501 112.014878 19655.469160
v -48.006376 112.014878 18153.087800
v -32.004251 112.014878 16650.706440
v -16.002125 112.014878 15148.325080
v 0.000000 112.014878 13645.943719
v 16.002125 112.014878 12143.562359
v 32.004251 112.014878 10641.180999
v 48.006376 112.014878 9138.799639
v 64.008501 112.014878 7636.418278
v 80.010627 112.014878 6134.036918
v 96.012752 112.014878 4631.655558
v 112.014878 112.014878 3129.274197
v 128.017003 112.014878 1626.892837
v 144.019128 112.014878 124.511477
v 160.021254 112.014878 -1377.869883
v 176.023379 112.014878 -2880.251244
v 192.025504 112.014878 -4382.632604
v -192.025504 128.017003 32005.109405
v -176.023379 128.017003 30502.728045
v -160.021254 128.017003 29000.346684
v -144.019128 128.017003 27497.965324
v -128.017003 128.017003 25995.583964
v -112.014878 128.017003 24493.202604
v -96.012752 128.017003 22990.821243
v -80.010627 128.017003 21488.439883
v -64.008501 128.017003 19986.058523
v -48.006376 128.017003 18483.677163
v -32.004251 128.017003 16981.295802
v -16.002125 128.017003 15478.914442
v 0.000000 128.017003 13976.533082
v 16.002125 128.017003 12474.151722
v 32.004251 128.017003 10971.770361
v 48.006376 128.017003 9469.389001
v 64.008501 128.017003 7967.007641
v 80.010627 128.017003 6464.626281
v 96.012752 128.017003 4962.244920
v 112.014878 128.017003 3459.863560
v 128.017003 128.017003 1957.482200
v 144.019128 128.017003 455.100839
v 160.021254 128.017003 -1047.280521
v 176.023379 128.017003 -2549.661881
v 192.025504 128.017003 -4052.043241
v -192.025504 144.019128 32335.698767
v -176.023379 144.019128 30833.317407
v -160.021254 144.019128 29330.936047
v -144.019128 144.019128 27828.554687
v -128.017003 144.019128 26326.173326
v -112.014878 144.019128 24823.791966
v -96.012752 144.019128 23321.410606
v -80.010627 144.019128 21819.029246
v -64.008501 144.019128 20316.647885
v -48.006376 144.019128 18814.266525
v -32.004251 144.019128 17311.885165
v -16.002125 144.019128 15809.503805
v 0.000000 144.019128 14307.122444
v 16.002125 144.019128 12804.741084
v 32.004251 144.019128 11302.359724
v 48.006376 144.019128 9799.978364
v 64.008501 144.019128 8297.597003
v 80.010627 144.019128 6795.215643
v 96.012752 144.019128 5292.834283
v 112.014878 144.019128 3790.452922
v 128.017003 144.019128 2288.071562
v 144.019128 144.019128 785.690202
v 160.021254 144.019128 -716.691158
v 176.023379 144.019128 -2219.072519
v 192.025504 144.019128 -3721.453879
v -192.025504 160.021254 32666.288130
v -176.023379 160.021254 31163.906770
v -160.021254 160.021254 29661.525409
v -144.019128 160.021254 28159.144049
v -128.017003 160.021254 26656.762689
v -112.014878 160.021254 25154.381329
v -96.012752 160.021254 23651.999968
v -80.010627 160.021254 22149.618608
v -64.008501 160.021254 20647.237248
v -48.006376 160.021254 19144.855888
v -32.004251 160.021254 17642.474527
v -16.002125 160.021254 16140.093167
v 0.000000 160.021254 14637.711807
v 16.002125 160.021254 13135.330447
v 32.004251 160.021254 11632.949086
v 48.006376 160.021254 10130.567726
v 64.008501 160.021254 8628.186366
v 80.010627 160.021254 7125.805005
v 96.012752 160.021254 5623.423645
v 112.014878 160.021254 4121.042285
v 128.017003 160.021254 2618.660925
v 144.019128 160.021254 1116.279564
v 160.021254 160.021254 -386.101796
v 176.023379 160.021254 -1888.483156
v 192.025504 160.021254 -3390.864516
v -192.025504 176.023379 32996.877492
v -176.023379 176.023379 31494.496132
v -160.021254 176.023379 29992.114772
v -144.019128 176.023379 28489.733412
v -128.017003 176.023379 26987.352051
v -112.014878 176.023379 25484.970691
v -96.012752 176.023379 23982.589331
v -80.010627 176.023379 22480.207971
v -64.008501 176.023379 20977.826610
v -48.006376 176.023379 19475.445250
v -32.004251 176.023379 17973.063890
v -16.002125 176.023379 16470.682530
v 0.000000 176.023379 14968.301169
v 16.002125 176.023379 13465.919809
v 32.004251 176.023379 11963.538449
v 48.006376 176.023379 10461.157089
v 64.008501 176.023379 8958.775728
v 80.010627 176.023379 7456.394368
v 96.012752 176.023379 5954.013008
v 112.014878 176.023379 4451.631647
v 128.017003 176.023379 2949.250287
v 144.019128 176.023379 1446.868927
v 160.021254 176.023379 -55.512433
v 176.023379 176.023379 -1557.893794
v 192.025504 176.023379 -3060.275154
v -192.025504 192.025504 33327.466855
v -176.023379 192.025504 31825.085495
v -160.021254 192.025504 30322.704134
v -144.019128 192.025504 28820.322774
v -128.017003 192.025504 27317.941414
v -112.014878 192.025504 25815.560054
v -96.012752 192.025504 24313.178693
v -80.010627 192.025504 22810.797333
v -64.008501 192.025504 21308.415973
v -48.006376 192.025504 19806.034613
v -32.004251 192.025504 18303.653252
v -16.002125 192.025504 16801.271892
v 0.000000 192.025504 15298.890532
v 16.002125 192.025504 13796.509172
v 32.004251 192.025504 12294.127811
v 48.006376 192.025504 10791.746451
v 64.008501 192.025504 9289.365091
v 80.010627 192.025504 7786.983730
v 96.012752 192.025504 6284.602370
v 112.014878 192.025504 4782.221010
v 128.017003 192.025504 3279.839650
v 144.019128 192.025504 1777.458289
v 160.021254 192.025504 275.076929
v 176.023379 192.025504 -1227.304431
v 192.025504 192.025504 -2729.685791
f 1 2 27
f 1 27 26
f 2 3 28
f 2 28 27
f 3 4 29
f 3 29 28
f 4 5 30
f 4 30 29
f 5 6 31
f 5 31 30
f 6 7 32
f 6 32 31
f 7 8 33
f 7 33 32
f 8 9 34
f 8 34 33
f 9 10 35
f 9 35 34
f 10 11 36
f 10 36 35
f 11 12 37
f 11 37 36
f 12 13 38
f 12 38 37
f 13 14 39
f 13 39 38
f 14 15 40
f 14 40 39
f 15 16 41
f 15 41 40
f 16 17 42
f 16 42 41
f 17 18 43
f 17 43 42
f 18 19 44
f 18 44 43
f 19 20 45
f 19 45 44
f 20 21 46
f 20 46 45
f 21 22 47
f 21 47 46
f 22 23 48
f 22 48 47
f 23 24 49
f 23 49 48
f 24 25 50
f 24 50 49
f 26 27 52
f 26 52 51
f 27 28 53
f 27 53 52
f 28 29 54
f 28 54 53
f 29 30 55
f 29 55 54
f 30 31 56
f 30 56 55
f 31 32 57
f 31 57 56
f 32 33 58
f 32 58 57
f 33 34 59
f 33 59 58
f 34 35 60
f 34 60 59
f 35 36 61
f 35 61 60
f 36 37 62
f 36 62 61
f 37 38 63
f 37 63 62
f 38 39 64
f 38 64 63
f 39 40 65
f 39 65 64
f 40 41 66
f 40 66 65
f 41 42 67
f 41 67 66
f 42 43 68
f 42 68 67
f 43 44 69
f 43 69 68
f 44 45 70
f 44 70 69
f 45 46 71
f 45 71 70
f 46 47 72
f 46 72 71
f 47 48 73
f 47 73 72
f 48 49 74
f 48 74 73
f 49 50 75
f 49 75 74
f 51 52 77
f 51 77 76
f 52 53 78
f 52 78 77
f 53 54 79
f 53 79 78
f 54 55 80
f 54 80 79
f 55 56 81
f 55 81 80
f 56 57 82
f 56 82 81
f 57 58 83
f 57 83 82
f 58 59 84
f 58 84 83
f 59 60 85
f 59 85 84
f 60 61 86
f 60 86 85
f 61 62 87
f 61 87 86
f 62 63 88
f 62 88 87
f 63 64 89
f 63 89 88
f 64 65 90
f 64 90 89
f 65 66 91
f 65 91 90
f 66 67 92
f 66 92 91
f 67 68 93
f 67 93 92
f 68 69 94
f 68 94 93
f 69 70 95
f 69 95 94
f 70 71 96
f 70 96 95
f 71 72 97
f 71 97 96
f 72 73 98
f 72 98 97
f 73 74 99
f 73 99 98
f 74 75 100
f 74 100 99
f 76 77 102
f 76 102 101
f 77 78 103
f 77 103 102
f 78 79 104
f 78 104 103
f 79 80 105
f 79 105 104
f 80 81 106
f 80 106 105
f 81 82 107
f 81 107 106
f 82 83 108
f 82 108 107
f 83 84 109
f 83 109 108
f 84 85 110
f 84 110 109
f 85 86 111
f 85 111 110
f 86 87 112
f 86 112 111
f 87 88 113
f 87 113 112
f 88 89 114
f 88 114 113
f 89 90 115
f 89 115 114
f 90 91 116
f 90 116 115
f 91 92 117
f 91 117 116
f 92 93 118
f 92 118 117
f 93 94 119
f 93 119 118
f 94 95 120
f 94 120 119
f 95 96 121
f 95 121 120
f 96 97 122
f 96 122 121
f 97 98 123
f 97 123 122
f 98 99 124
f 98 124 123
f 99 100 125
f 99 125 124
f 101 102 127
f 101 127 126
f 102 103 128
f 102 128 127
f 103 104 129
f 103 129 128
f 104 105 130
f 104 130 129
f 105 106 131
f 105 131 130
f 106 107 132
f 106 132 131
f 107 108 133
f 107 133 132
f 108 109 134
f 108 134 133
f 109 110 135
f 109 135 134
f 110 111 136
f 110 136 135
f 111 112 137
f 111 137 136
f 112 113 138
f 112 138 137
f 113 114 139
f 113 139 138
f 114 115 140
f 114 140 139
f 115 116 141
f 115 141 140
f 116 117 142
f 116 142 141
f 117 118 143
f 117 143 142
f 118 119 144
f 118 144 143
f 119 120 145
f 119 145 144
f 120 121 146
f 120 146 145
f 121 122 147
f 121 147 146
f 122 123 148
f 122 148 147
f 123 124 149
f 123 149 148
f 124 125 150
f 124 150 149
f 126 127 152
f 126 152 151
f 127 128 153
f 127 153 152
f 128 129 154
f 128 154 153
f 129 130 155
f 129 155 154
f 130 131 156
f 130 156 155
f 131 132 157
f 131 157 156
f 132 133 158
f 132 158 157
f 133 134 159
f 133 159 158
f 134 135 160
f 134 160 159
f 135 136 161
f 135 161 160
f 136 137 162
f 136 162 161
f 137 138 163
f 137 163 162
f 138 139 164
f 138 164 163
f 139 140 165
f 139 165 164
f 140 141 166
f 140 166 165
f 141 142 167
f 141 167 166
f 142 143 168
f 142 168 167
f 143 144 169
f 143 169 168
f 144 145 170
f 144 170 169
f 145 146 171
f 145 171 170
f 146 147 172
f 146 172 171
f 147 148 173
f 147 173 172
f 148 149 174
f 148 174 173
f 149 150 175
f 149 175 174
f 151 152 177
f 151 177 176
f 152 153 178
f 152 178 177
f 153 154 179
f 153 179 178
f 154 155 180
f 154 180 179
f 155 156 181
f 155 181 180
f 156 157 182
f 156 182 181
f 157 158 183
f 157 183 182
f 158 159 184
f 158 184 183
f 159 160 185
f 159 185 184
f 160 161 186
f 160 186 185
f 161 162 187
f 161 187 186
f 162 163 188
f 162 188 187
f 163 164 189
f 163 189 188
f 164 165 190
f 164 190 189
f 165 166 191
f 165 191 190
f 166 167 192
f 166 192 191
f 167 168 193
f 167 193 192
f 168 169 194
f 168 194 193
f 169 170 195
f 169 195 194
f 170 171 196
f 170 196 195
f 171 172 197
f 171 197 196
f 172 173 198
f 172 198 197
f 173 174 199
f 173 199 198
f 174 175 200
f 174 200 199
f 176 177 202
f 176 202 201
f 177 178 203
f 177 203 202
f 178 179 204
f 178 204 203
f 179 180 205
f 179 205 204
f 180 181 206
f 180 206 205
f 181 182 207
f 181 207 206
f 182 183 208
f 182 208 207
f 183 184 209
f 183 209 208
f 184 185 210
f 184 210 209
f 185 186 211
f 185 211 210
f 186 187 212
f 186 212 211
f 187 188 213
f 187 213 212
f 188 189 214
f 188 214 213
f 189 190 215
f 189 215 214
f 190 191 216
f 190 216 215
f 191 192 217
f 191 217 216
f 192 193 218
f 192 218 217
f 193 194 219
f 193 219 218
f 194 195 220
f 194 220 219
f 195 196 221
f 195 221 220
f 196 197 222
f 196 222 221
f 197 198 223
f 197 223 222
f 198 199 224
f 198 224 223
f 199 200 225
f 199 225 224
f 201 202 227
f 201 227 226
f 202 203 228
f 202 228 227
f 203 204 229
f 203 229 228
f 204 205 230
f 204 230 229
f 205 206 231
f 205 231 230
f 206 207 232
f 206 232 231
f 207 208 233
f 207 233 232
f 208 209 234
f 208 234 233
f 209 210 235
f 209 235 234
f 210 211 236
f 210 236 235
f 211 212 237
f 211 237 236
f 212 213 238
f 212 238 237
f 213 214 239
f 213 239 238
f 214 215 240
f 214 240 239
f 215 216 241
f 215 241 240
f 216 217 242
f 216 242 241
f 217 218 243
f 217 243 242
f 218 219 244
f 218 244 243
f 219 220 245
f 219 245 244
f 220 221 246
f 220 246 245
f 221 222 247
f 221 247 246
f 222 223 248
f 222 248 247
f 223 224 249
f 223 249 248
f 224 225 250
f 224 250 249
f 226 227 252
f 226 252 251
f 227 228 253
f 227 253 252
f 228 229 254
f 228 254 253
f 229 230 255
f 229 255 254
f 230 231 256
f 230 256 255
f 231 232 257
f 231 257 256
f 232 233 258
f 232 258 257
f 233 234 259
f 233 259 258
f 234 235 260
f 234 260 259
f 235 236 261
f 235 261 260
f 236 237 262
f 236 262 261
f 237 238 263
f 237 263 262
f 238 239 264
f 238 264 263
f 239 240 265
f 239 265 264
f 240 241 266
f 240 266 265
f 241 242 267
f 241 267 266
f 242 243 268
f 242 268 267
f 243 244 269
f 243 269 268
f 244 245 270
f 244 270 269
f 245 246 271
f 245 271 270
f 246 247 272
f 246 272 271
f 247 248 273
f 247 273 272
f 248 249 274
f 248 274 273
f 249 250 275
f 249 275 274
f 251 252 277
f 251 277 276
f 252 253 278
f 252 278 277
f 253 254 279
f 253 279 278
f 254 255 280
f 254 280 279
f 255 256 281
f 255 281 280
f 256 257 282
f 256 282 281
f 257 258 283
f 257 283 282
f 258 259 284
f 258 284 283
f 259 260 285
f 259 285 284
f 260 261 286
f 260 286 285
f 261 262 287
f 261 287 286
f 262 263 288
f 262 288 287
f 263 264 289
f 263 289 288
f 264 265 290
f 264 290 289
f 265 266 291
f 265 291 290
f 266 267 292
f 266 292 291
f 267 268 293
f 267 293 292
f 268 269 294
f 268 294 293
f 269 270 295
f 269 295 294
f 270 271 296
f 270 296 295
f 271 272 297
f 271 297 296
f 272 273 298
f 272 298 297
f 273 274 299
f 273 299 298
f 274 275 300
f 274 300 299
f 276 277 302
f 276 302 301
f 277 278 303
f 277 303 302
f 278 279 304
f 278 304 303
f 279 280 305
f 279 305 304
f 280 281 306
f 280 306 305
f 281 282 307
f 281 307 306
f 282 283 308
f 282 308 307
f 283 284 309
f 283 309 308
f 284 285 310
f 284 310 309
f 285 286 311
f 285 311 310
f 286 287 312
f 286 312 311
f 287 288 313
f 287 313 312
f 288 289 314
f 288 314 313
f 289 290 315
f 289 315 314
f 290 291 316
f 290 316 315
f 291 292 317
f 291 317 316
f 292 293 318
f 292 318 317
f 293 294 319
f 293 319 318
f 294 295 320
f 294 320 319
f 295 296 321
f 295 321 320
f 296 297 322
f 296 322 321
f 297 298 323
f 297 323 322
f 298 299 324
f 298 324 323
f 299 300 325
f 299 325 324
f 301 302 327
f 301 327 326
f 302 303 328
f 302 328 327
f 303 304 329
f 303 329 328
f 304 305 330
f 304 330 329
f 305 306 331
f 305 331 330
f 306 307 332
f 306 332 331
f 307 308 333
f 307 333 332
f 308 309 334
f 308 334 333
f 309 310 335
f 309 335 334
f 310 311 336
f 310 336 335
f 311 312 337
f 311 337 336
f 312 313 338
f 312 338 337
f 313 314 339
f 313 339 338
f 314 315 340
f 314 340 339
f 315 316 341
f 315 341 340
f 316 317 342
f 316 342 341
f 317 318 343
f 317 343 342
f 318 319 344
f 318 344 343
f 319 320 345
f 319 345 344
f 320 321 346
f 320 346 345
f 321 322 347
f 321 347 346
f 322 323 348
f 322 348 347
f 323 324 349
f 323 349 348
f 324 325 350
f 324 350 349
f 326 327 352
f 326 352 351
f 327 328 353
f 327 353 352
f 328 329 354
f 328 354 353
f 329 330 355
f 329 355 354
f 330 331 356
f 330 356 355
f 331 332 357
f 331 357 356
f 332 333 358
f 332 358 357
f 333 334 359
f 333 359 358
f 334 335 360
f 334 360 359
f 335 336 361
f 335 361 360
f 336 337 362
f 336 362 361
f 337 338 363
f 337 363 362
f 338 339 364
f 338 364 363
f 339 340 365
f 339 365 364
f 340 341 366
f 340 366 365
f 341 342 367
f 341 367 366
f 342 343 368
f 342 368 367
f 343 344 369
f 343 369 368
f 344 345 370
f 344 370 369
f 345 346 371
f 345 371 370
f 346 347 372
f 346 372 371
f 347 348 373
f 347 373 372
f 348 349 374
f 348 374 373
f 349 350 375
f 349 375 374
f 351 352 377
f 351 377 376
f 352 353 378
f 352 378 377
f 353 354 379
f 353 379 378
f 354 355 380
f 354 380 379
f 355 356 381
f 355 381 380
f 356 357 382
f 356 382 381
f 357 358 383
f 357 383 382
f 358 359 384
f 358 384 383
f 359 360 385
f 359 385 384
f 360 361 386
f 360 386 385
f 361 362 387
f 361 387 386
f 362 363 388
f 362 388 387
f 363 364 389
f 363 389 388
f 364 365 390
f 364 390 389
f 365 366 391
f 365 391 390
f 366 367 392
f 366 392 391
f 367 368 393
f 367 393 392
f 368 369 394
f 368 394 393
f 369 370 395
f 369 395 394
f 370 371 396
f 370 396 395
f 371 372 397
f 371 397 396
f 372 373 398
f 372 398 397
f 373 374 399
f 373 399 398
f 374 375 400
f 374 400 399
f 376 377 402
f 376 402 401
f 377 378 403
f 377 403 402
f 378 379 404
f 378 404 403
f 379 380 405
f 379 405 404
f 380 381 406
f 380 406 405
f 381 382 407
f 381 407 406
f 382 383 408
f 382 408 407
f 383 384 409
f 383 409 408
f 384 385 410
f 384 410 409
f 385 386 411
f 385 411 410
f 386 387 412
f 386 412 411
f 387 388 413
f 387 413 412
f 388 389 414
f 388 414 413
f 389 390 415
f 389 415 414
f 390 391 416
f 390 416 415
f 391 392 417
f 391 417 416
f 392 393 418
f 392 418 417
f 393 394 419
f 393 419 418
f 394 395 420
f 394 420 419
f 395 396 421
f 395 421 420
f 396 397 422
f 396 422 421
f 397 398 423
f 397 423 422
f 398 399 424
f 398 424 423
f 399 400 425
f 399 425 424
f 401 402 427
f 401 427 426
f 402 403 428
f 402 428 427
f 403 404 429
f 403 429 428
f 404 405 430
f 404 430 429
f 405 406 431
f 405 431 430
f 406 407 432
f 406 432 431
f 407 408 433
f 407 433 432
f 408 409 434
f 408 434 433
f 409 410 435
f 409 435 434
f 410 411 436
f 410 436 435
f 411 412 437
f 411 437 436
f 412 413 438
f 412 438 437
f 413 414 439
f 413 439 438
f 414 415 440
f 414 440 439
f 415 416 441
f 415 441 440
f 416 417 442
f 416 442 441
f 417 418 443
f 417 443 442
f 418 419 444
f 418 444 443
f 419 420 445
f 419 445 444
f 420 421 446
f 420 446 445
f 421 422 447
f 421 447 446
f 422 423 448
f 422 448 447
f 423 424 449
f 423 449 448
f 424 425 450
f 424 450 449
f 426 427 452
f 426 452 451
f 427 428 453
f 427 453 452
f 428 429 454
f 428 454 453
f 429 430 455
f 429 455 454
f 430 431 456
f 430 456 455
f 431 432 457
f 431 457 456
f 432 433 458
f 432 458 457
f 433 434 459
f 433 459 458
f 434 435 460
f 434 460 459
f 435 436 461
f 435 461 460
f 436 437 462
f 436 462 461
f 437 438 463
f 437 463 462
f 438 439 464
f 438 464 463
f 439 440 465
f 439 465 464
f 440 441 466
f 440 466 465
f 441 442 467
f 441 467 466
f 442 443 468
f 442 468 467
f 443 444 469
f 443 469 468
f 444 445 470
f 444 470 469
f 445 446 471
f 445 471 470
f 446 447 472
f 446 472 471
f 447 448 473
f 447 473 472
f 448 449 474
f 448 474 473
f 449 450 475
f 449 475 474
f 451 452 477
f 451 477 476
f 452 453 478
f 452 478 477
f 453 454 479
f 453 479 478
f 454 455 480
f 454 480 479
f 455 456 481
f 455 481 480
f 456 457 482
f 456 482 481
f 457 458 483
f 457 483 482
f 458 459 484
f 458 484 483
f 459 460 485
f 459 485 484
f 460 461 486
f 460 486 485
f 461 462 487
f 461 487 486
f 462 463 488
f 462 488 487
f 463 464 489
f 463 489 488
f 464 465 490
f 464 490 489
f 465 466 491
f 465 491 490
f 466 467 492
f 466 492 491
f 467 468 493
f 467 493 492
f 468 469 494
f 468 494 493
f 469 470 495
f 469 495 494
f 470 471 496
f 470 496 495
f 471 472 497
f 471 497 496
f 472 473 498
f 472 498 497
f 473 474 499
f 473 499 498
f 474 475 500
f 474 500 499
f 476 477 502
f 476 502 501
f 477 478 503
f 477 503 502
f 478 479 504
f 478 504 503
f 479 480 505
f 479 505 504
f 480 481 506
f 480 506 505
f 481 482 507
f 481 507 506
f 482 483 508
f 482 508 507
f 483 484 509
f 483 509 508
f 484 485 510
f 484 510 509
f 485 486 511
f 485 511 510
f 486 487 512
f 486 512 511
f 487 488 513
f 487 513 512
f 488 489 514
f 488 514 513
f 489 490 515
f 489 515 514
f 490 491 516
f 490 516 515
f 491 492 517
f 491 517 516
f 492 493 518
f 492 518 517
f 493 494 519
f 493 519 518
f 494 495 520
f 494 520 519
f 495 496 521
f 495 521 520
f 496 497 522
f 496 522 521
f 497 498 523
f 497 523 522
f 498 499 524
f 498 524 523
f 499 500 525
f 499 525 524
f 501 502 527
f 501 527 526
f 502 503 528
f 502 528 527
f 503 504 529
f 503 529 528
f 504 505 530
f 504 530 529
f 505 506 531
f 505 531 530
f 506 507 532
f 506 532 531
f 507 508 533
f 507 533 532
f 508 509 534
f 508 534 533
f 509 510 535
f 509 535 534
f 510 511 536
f 510 536 535
f 511 512 537
f 511 537 536
f 512 513 538
f 512 538 537
f 513 514 539
f 513 539 538
f 514 515 540
f 514 540 539
f 515 516 541
f 515 541 540
f 516 517 542
f 516 542 541
f 517 518 543
f 517 543 542
f 518 519 544
f 518 544 543
f 519 520 545
f 519 545 544
f 520 521 546
f 520 546 545
f 521 522 547
f 521 547 546
f 522 523 548
f 522 548 547
f 523 524 549
f 523 549 548
f 524 525 550
f 524 550 549
f 526 527 552
f 526 552 551
f 527 528 553
f 527 553 552
f 528 529 554
f 528 554 553
f 529 530 555
f 529 555 554
f 530 531 556
f 530 556 555
f 531 532 557
f 531 557 556
f 532 533 558
f 532 558 557
f 533 534 559
f 533 559 558
f 534 535 560
f 534 560 559
f 535 536 561
f 535 561 560
f 536 537 562
f 536 562 561
f 537 538 563
f 537 563 562
f 538 539 564
f 538 564 563
f 539 540 565
f 539 565 564
f 540 541 566
f 540 566 565
f 541 542 567
f 541 567 566
f 542 543 568
f 542 568 567
f 543 544 569
f 543 569 568
f 544 545 570
f 544 570 569
f 545 546 571
f 545 571 570
f 546 547 572
f 546 572 571
f 547 548 573
f 547 573 572
f 548 549 574
f 548 574 573
f 549 550 575
f 549 575 574
f 551 552 577
f 551 577 576
f 552 553 578
f 552 578 577
f 553 554 579
f 553 579 578
f 554 555 580
f 554 580 579
f 555 556 581
f 555 581 580
f 556 557 582
f 556 582 581
f 557 558 583
f 557 583 582
f 558 559 584
f 558 584 583
f 559 560 585
f 559 585 584
f 560 561 586
f 560 586 585
f 561 562 587
f 561 587 586
f 562 563 588
f 562 588 587
f 563 564 589
f 563 589 588
f 564 565 590
f 564 590 589
f 565 566 591
f 565 591 590
f 566 567 592
f 566 592 591
f 567 568 593
f 567 593 592
f 568 569 594
f 568 594 593
f 569 570 595
f 569 595 594
f 570 571 596
f 570 596 595
f 571 572 597
f 571 597 596
f 572 573 598
f 572 598 597
f 573 574 599
f 573 599 598
f 574 575 600
f 574 600 599
f 576 577 602
f 576 602 601
f 577 578 603
f 577 603 602
f 578 579 604
f 578 604 603
f 579 580 605
f 579 605 604
f 580 581 606
f 580 606 605
f 581 582 607
f 581 607 606
f 582 583 608
f 582 608 607
f 583 584 609
f 583 609 608
f 584 585 610
f 584 610 609
f 585 586 611
f 585 611 610
f 586 587 612
f 586 612 611
f 587 588 613
f 587 613 612
f 588 589 614
f 588 614 613
f 589 590 615
f 589 615 614
f 590 591 616
f 590 616 615
f 591 592 617
f 591 617 616
f 592 593 618
f 592 618 617
f 593 594 619
f 593 619 618
f 594 595 620
f 594 620 619
f 595 596 621
f 595 621 620
f 596 597 622
f 596 622 621
f 597 598 623
f 597 623 622
f 598 599 624
f 598 624 623
f 599 600 625
f 599 625 624
