o [4B] 3D Diagram - S2-04 Group G_175
v -192.025504 -192.025504 49056.392365
v -176.023379 -192.025504 46768.452124
v -160.021254 -192.025504 44480.511883
v -144.019128 -192.025504 42192.571641
v -128.017003 -192.025504 39904.631400
v -112.014878 -192.025504 37616.691158
v -96.012752 -192.025504 35328.750917
v -80.010627 -192.025504 33040.810675
v -64.008501 -192.025504 30752.870434
v -48.006376 -192.025504 28464.930193
v -32.004251 -192.025504 26176.989951
v -16.002125 -192.025504 23889.049710
v 0.000000 -192.025504 21601.109468
v 16.002125 -192.025504 19313.169227
v 32.004251 -192.025504 17025.228985
v 48.006376 -192.025504 14737.288744
v 64.008501 -192.025504 12449.348502
v 80.010627 -192.025504 10161.408261
v 96.012752 -192.025504 7873.468020
v 112.014878 -192.025504 5585.527778
v 128.017003 -192.025504 3297.587537
v 144.019128 -192.025504 1009.647295
v 160.021254 -192.025504 -1278.292946
v 176.023379 -192.025504 -3566.233188
v 192.025504 -192.025504 -5854.173429
v -192.025504 -176.023379 49386.981728
v -176.023379 -176.023379 47099.041486
v -160.021254 -176.023379 44811.101245
v -144.019128 -176.023379 42523.161004
v -128.017003 -176.023379 40235.220762
v -112.014878 -176.023379 37947.280521
v -96.012752 -176.023379 35659.340279
v -80.010627 -176.023379 33371.400038
v -64.008501 -176.023379 31083.459796
v -48.006376 -176.023379 28795.519555
v -32.004251 -176.023379 26507.579314
v -16.002125 -176.023379 24219.639072
v 0.000000 -176.023379 21931.698831
v 16.002125 -176.023379 19643.758589
v 32.004251 -176.023379 17355.818348
v 48.006376 -176.023379 15067.878106
v 64.008501 -176.023379 12779.937865
v 80.010627 -176.023379 10491.997624
v 96.012752 -176.023379 8204.057382
v 112.014878 -176.023379 5916.117141
v 128.017003 -176.023379 3628.176899
v 144.019128 -176.023379 1340.236658
v 160.021254 -176.023379 -947.703584
v 176.023379 -176.023379 -3235.643825
v 192.025504 -176.023379 -5523.584067
v -192.025504 -160.021254 49717.571090
v -176.023379 -160.021254 47429.630849
v -160.021254 -160.021254 45141.690608
v -144.019128 -160.021254 42853.750366
v -128.017003 -160.021254 40565.810125
v -112.014878 -160.021254 38277.869883
v -96.012752 -160.021254 35989.929642
v -80.010627 -160.021254 33701.989400
v -64.008501 -160.021254 31414.049159
v -48.006376 -160.021254 29126.108918
v -32.004251 -160.021254 26838.168676
v -16.002125 -160.021254 24550.228435
v 0.000000 -160.021254 22262.288193
v 16.002125 -160.021254 19974.347952
v 32.004251 -160.021254 17686.407710
v 48.006376 -160.021254 15398.467469
v 64.008501 -160.021254 13110.527227
v 80.010627 -160.021254 10822.586986
v 96.012752 -160.021254 8534.646745
v 112.014878 -160.021254 6246.706503
v 128.017003 -160.021254 3958.766262
v 144.019128 -160.021254 1670.826020
v 160.021254 -160.021254 -617.114221
v 176.023379 -160.021254 -2905.054463
v 192.025504 -160.021254 -5192.994704
v -192.025504 -144.019128 50048.160453
v -176.023379 -144.019128 47760.220211
v -160.021254 -144.019128 45472.279970
v -144.019128 -144.019128 43184.339729
v -128.017003 -144.019128 40896.399487
v -112.014878 -144.019128 38608.459246
v -96.012752 -144.019128 36320.519004
v -80.010627 -144.019128 34032.578763
v -64.008501 -144.019128 31744.638521
v -48.006376 -144.019128 29456.698280
v -32.004251 -144.019128 27168.758039
v -16.002125 -144.019128 24880.817797
v 0.000000 -144.019128 22592.877556
v 16.002125 -144.019128 20304.937314
v 32.004251 -144.019128 18016.997073
v 48.006376 -144.019128 15729.056831
v 64.008501 -144.019128 13441.116590
v 80.010627 -144.019128 11153.176349
v 96.012752 -144.019128 8865.236107
v 112.014878 -144.019128 6577.295866
v 128.017003 -144.019128 4289.355624
v 144.019128 -144.019128 2001.415383
v 160.021254 -144.019128 -286.524859
v 176.023379 -144.019128 -2574.465100
v 192.025504 -144.019128 -4862.405342
v -192.025504 -128.017003 50378.749815
v -176.023379 -128.017003 48090.809574
v -160.021254 -128.017003 45802.869333
v -144.019128 -128.017003 43514.929091
v -128.017003 -128.017003 41226.988850
v -112.014878 -128.017003 38939.048608
v -96.012752 -128.017003 36651.108367
v -80.010627 -128.017003 34363.168125
v -64.008501 -128.017003 32075.227884
v -48.006376 -128.017003 29787.287643
v -32.004251 -128.017003 27499.347401
v -16.002125 -128.017003 25211.407160
v 0.000000 -128.017003 22923.466918
v 16.002125 -128.017003 20635.526677
v 32.004251 -128.017003 18347.586435
v 48.006376 -128.017003 16059.646194
v 64.008501 -128.017003 13771.705952
v 80.010627 -128.017003 11483.765711
v 96.012752 -128.017003 9195.825470
v 112.014878 -128.017003 6907.885228
v 128.017003 -128.017003 4619.944987
v 144.019128 -128.017003 2332.004745
v 160.021254 -128.017003 44.064504
v 176.023379 -128.017003 -2243.875738
v 192.025504 -128.017003 -4531.815979
v -192.025504 -112.014878 50709.339178
v -176.023379 -112.014878 48421.398936
v -160.021254 -112.014878 46133.458695
v -144.019128 -112.014878 43845.518454
v -128.017003 -112.014878 41557.578212
v -112.014878 -112.014878 39269.637971
v -96.012752 -112.014878 36981.697729
v -80.010627 -112.014878 34693.757488
v -64.008501 -112.014878 32405.817246
v -48.006376 -112.014878 30117.877005
v -32.004251 -112.014878 27829.936764
v -16.002125 -112.014878 25541.996522
v 0.000000 -112.014878 23254.056281
v 16.002125 -112.014878 20966.116039
v 32.004251 -112.014878 18678.175798
v 48.006376 -112.014878 16390.235556
v 64.008501 -112.014878 14102.295315
v 80.010627 -112.014878 11814.355074
v 96.012752 -112.014878 9526.414832
v 112.014878 -112.014878 7238.474591
v 128.017003 -112.014878 4950.534349
v 144.019128 -112.014878 2662.594108
v 160.021254 -112.014878 374.653866
v 176.023379 -112.014878 -1913.286375
v 192.025504 -112.014878 -4201.226617
v -192.025504 -96.012752 51039.928540
v -176.023379 -96.012752 48751.988299
v -160.021254 -96.012752 46464.048058
v -144.019128 -96.012752 44176.107816
v -128.017003 -96.012752 41888.167575
v -112.014878 -96.012752 39600.227333
v -96.012752 -96.012752 37312.287092
v -80.010627 -96.012752 35024.346850
v -64.008501 -96.012752 32736.406609
v -48.006376 -96.012752 30448.466368
v -32.004251 -96.012752 28160.526126
v -16.002125 -96.012752 25872.585885
v 0.000000 -96.012752 23584.645643
v 16.002125 -96.012752 21296.705402
v 32.004251 -96.012752 19008.765160
v 48.006376 -96.012752 16720.824919
v 64.008501 -96.012752 14432.884677
v 80.010627 -96.012752 12144.944436
v 96.012752 -96.012752 9857.004195
v 112.014878 -96.012752 7569.063953
v 128.017003 -96.012752 5281.123712
v 144.019128 -96.012752 2993.183470
v 160.021254 -96.012752 705.243229
v 176.023379 -96.012752 -1582.697013
v 192.025504 -96.012752 -3870.637254
v -192.025504 -80.010627 51370.517903
v -176.023379 -80.010627 49082.577661
v -160.021254 -80.010627 46794.637420
v -144.019128 -80.010627 44506.697179
v -128.017003 -80.010627 42218.756937
v -112.014878 -80.010627 39930.816696
v -96.012752 -80.010627 37642.876454
v -80.010627 -80.010627 35354.936213
v -64.008501 -80.010627 33066.995971
v -48.006376 -80.010627 30779.055730
v -32.004251 -80.010627 28491.115489
v -16.002125 -80.010627 26203.175247
v 0.000000 -80.010627 23915.235006
v 16.002125 -80.010627 21627.294764
v 32.004251 -80.010627 19339.354523
v 48.006376 -80.010627 17051.414281
v 64.008501 -80.010627 14763.474040
v 80.010627 -80.010627 12475.533799
v 96.012752 -80.010627 10187.593557
v 112.014878 -80.010627 7899.653316
v 128.017003 -80.010627 5611.713074
v 144.019128 -80.010627 3323.772833
v 160.021254 -80.010627 1035.832591
v 176.023379 -80.010627 -1252.107650
v 192.025504 -80.010627 -3540.047892
v -192.025504 -64.008501 51701.107265
v -176.023379 -64.008501 49413.167024
v -160.021254 -64.008501 47125.226783
v -144.019128 -64.008501 44837.286541
v -128.017003 -64.008501 42549.346300
v -112.014878 -64.008501 40261.406058
v -96.012752 -64.008501 37973.465817
v -80.010627 -64.008501 35685.525575
v -64.008501 -64.008501 33397.585334
v -48.006376 -64.008501 31109.645092
v -32.004251 -64.008501 28821.704851
v -16.002125 -64.008501 26533.764610
v 0.000000 -64.008501 24245.824368
v 16.002125 -64.008501 21957.884127
v 32.004251 -64.008501 19669.943885
v 48.006376 -64.008501 17382.003644
v 64.008501 -64.008501 15094.063402
v 80.010627 -64.008501 12806.123161
v 96.012752 -64.008501 10518.182920
v 112.014878 -64.008501 8230.242678
v 128.017003 -64.008501 5942.302437
v 144.019128 -64.008501 3654.362195
v 160.021254 -64.008501 1366.421954
v 176.023379 -64.008501 -921.518288
v 192.025504 -64.008501 -3209.458529
v -192.025504 -48.006376 52031.696628
v -176.023379 -48.006376 49743.756386
v -160.021254 -48.006376 47455.816145
v -144.019128 -48.006376 45167.875904
v -128.017003 -48.006376 42879.935662
v -112.014878 -48.006376 40591.995421
v -96.012752 -48.006376 38304.055179
v -80.010627 -48.006376 36016.114938
v -64.008501 -48.006376 33728.174696
v -48.006376 -48.006376 31440.234455
v -32.004251 -48.006376 29152.294214
v -16.002125 -48.006376 26864.353972
v 0.000000 -48.006376 24576.413731
v 16.002125 -48.006376 22288.473489
v 32.004251 -48.006376 20000.533248
v 48.006376 -48.006376 17712.593006
v 64.008501 -48.006376 15424.652765
v 80.010627 -48.006376 13136.712524
v 96.012752 -48.006376 10848.772282
v 112.014878 -48.006376 8560.832041
v 128.017003 -48.006376 6272.891799
v 144.019128 -48.006376 3984.951558
v 160.021254 -48.006376 1697.011316
v 176.023379 -48.006376 -590.928925
v 192.025504 -48.006376 -2878.869167
v -192.025504 -32.004251 52362.285990
v -176.023379 -32.004251 50074.345749
v -160.021254 -32.004251 47786.405508
v -144.019128 -32.004251 45498.465266
v -128.017003 -32.004251 43210.525025
v -112.014878 -32.004251 40922.584783
v -96.012752 -32.004251 38634.644542
v -80.010627 -32.004251 36346.704300
v -64.008501 -32.004251 34058.764059
v -48.006376 -32.004251 31770.823817
v -32.004251 -32.004251 29482.883576
v -16.002125 -32.004251 27194.943335
v 0.000000 -32.004251 24907.003093
v 16.002125 -32.004251 22619.062852
v 32.004251 -32.004251 20331.122610
v 48.006376 -32.004251 18043.182369
v 64.008501 -32.004251 15755.242127
v 80.010627 -32.004251 13467.301886
v 96.012752 -32.004251 11179.361645
v 112.014878 -32.004251 8891.421403
v 128.017003 -32.004251 6603.481162
v 144.019128 -32.004251 4315.540920
v 160.021254 -32.004251 2027.600679
v 176.023379 -32.004251 -260.339563
v 192.025504 -32.004251 -2548.279804
v -192.025504 -16.002125 52692.875353
v -176.023379 -16.002125 50404.935111
v -160.021254 -16.002125 48116.994870
v -144.019128 -16.002125 45829.054629
v -128.017003 -16.002125 43541.114387
v -112.014878 -16.002125 41253.174146
v -96.012752 -16.002125 38965.233904
v -80.010627 -16.002125 36677.293663
v -64.008501 -16.002125 34389.353421
v -48.006376 -16.002125 32101.413180
v -32.004251 -16.002125 29813.472939
v -16.002125 -16.002125 27525.532697
v 0.000000 -16.002125 25237.592456
v 16.002125 -16.002125 22949.652214
v 32.004251 -16.002125 20661.711973
v 48.006376 -16.002125 18373.771731
v 64.008501 -16.002125 16085.831490
v 80.010627 -16.002125 13797.891249
v 96.012752 -16.002125 11509.951007
v 112.014878 -16.002125 9222.010766
v 128.017003 -16.002125 6934.070524
v 144.019128 -16.002125 4646.130283
v 160.021254 -16.002125 2358.190041
v 176.023379 -16.002125 70.249800
v 192.025504 -16.002125 -2217.690442
v -192.025504 0.000000 53023.464715
v -176.023379 0.000000 50735.524474
v -160.021254 0.000000 48447.584233
v -144.019128 0.000000 46159.643991
v -128.017003 0.000000 43871.703750
v -112.014878 0.000000 41583.763508
v -96.012752 0.000000 39295.823267
v -80.010627 0.000000 37007.883025
v -64.008501 0.000000 34719.942784
v -48.006376 0.000000 32432.002542
v -32.004251 0.000000 30144.062301
v -16.002125 0.000000 27856.122060
v 0.000000 0.000000 25568.181818
v 16.002125 0.000000 23280.241577
v 32.004251 0.000000 20992.301335
v 48.006376 0.000000 18704.361094
v 64.008501 0.000000 16416.420852
v 80.010627 0.000000 14128.480611
v 96.012752 0.000000 11840.540370
v 112.014878 0.000000 9552.600128
v 128.017003 0.000000 7264.659887
v 144.019128 0.000000 4976.719645
v 160.021254 0.000000 2688.779404
v 176.023379 0.000000 400.839162
v 192.025504 0.000000 -1887.101079
v -192.025504 16.002125 53354.054078
v -176.023379 16.002125 51066.113836
v -160.021254 16.002125 48778.173595
v -144.019128 16.002125 46490.233354
v -128.017003 16.002125 44202.293112
v -112.014878 16.002125 41914.352871
v -96.012752 16.002125 39626.412629
v -80.010627 16.002125 37338.472388
v -64.008501 16.002125 35050.532146
v -48.006376 16.002125 32762.591905
v -32.004251 16.002125 30474.651664
v -16.002125 16.002125 28186.711422
v 0.000000 16.002125 25898.771181
v 16.002125 16.002125 23610.830939
v 32.004251 16.002125 21322.890698
v 48.006376 16.002125 19034.950456
v 64.008501 16.002125 16747.010215
v 80.010627 16.002125 14459.069973
v 96.012752 16.002125 12171.129732
v 112.014878 16.002125 9883.189491
v 128.017003 16.002125 7595.249249
v 144.019128 16.002125 5307.309008
v 160.021254 16.002125 3019.368766
v 176.023379 16.002125 731.428525
v 192.025504 16.002125 -1556.511717
v -192.025504 32.004251 53684.643440
v -176.023379 32.004251 51396.703199
v -160.021254 32.004251 49108.762958
v -144.019128 32.004251 46820.822716
v -128.017003 32.004251 44532.882475
v -112.014878 32.004251 42244.942233
v -96.012752 32.004251 39957.001992
v -80.010627 32.004251 37669.061750
v -64.008501 32.004251 35381.121509
v -48.006376 32.004251 33093.181267
v -32.004251 32.004251 30805.241026
v -16.002125 32.004251 28517.300785
v 0.000000 32.004251 26229.360543
v 16.002125 32.004251 23941.420302
v 32.004251 32.004251 21653.480060
v 48.006376 32.004251 19365.539819
v 64.008501 32.004251 17077.599577
v 80.010627 32.004251 14789.659336
v 96.012752 32.004251 12501.719095
v 112.014878 32.004251 10213.778853
v 128.017003 32.004251 7925.838612
v 144.019128 32.004251 5637.898370
v 160.021254 32.004251 3349.958129
v 176.023379 32.004251 1062.017887
v 192.025504 32.004251 -1225.922354
v -192.025504 48.006376 54015.232803
v -176.023379 48.006376 51727.292561
v -160.021254 48.006376 49439.352320
v -144.019128 48.006376 47151.412079
v -128.017003 48.006376 44863.471837
v -112.014878 48.006376 42575.531596
v -96.012752 48.006376 40287.591354
v -80.010627 48.006376 37999.651113
v -64.008501 48.006376 35711.710871
v -48.006376 48.006376 33423.770630
v -32.004251 48.006376 31135.830389
v -16.002125 48.006376 28847.890147
v 0.000000 48.006376 26559.949906
v 16.002125 48.006376 24272.009664
v 32.004251 48.006376 21984.069423
v 48.006376 48.006376 19696.129181
v 64.008501 48.006376 17408.188940
v 80.010627 48.006376 15120.248698
v 96.012752 48.006376 12832.308457
v 112.014878 48.006376 10544.368216
v 128.017003 48.006376 8256.427974
v 144.019128 48.006376 5968.487733
v 160.021254 48.006376 3680.547491
v 176.023379 48.006376 1392.607250
v 192.025504 48.006376 -895.332992
v -192.025504 64.008501 54345.822165
v -176.023379 64.008501 52057.881924
v -160.021254 64.008501 49769.941683
v -144.019128 64.008501 47482.001441
v -128.017003 64.008501 45194.061200
v -112.014878 64.008501 42906.120958
v -96.012752 64.008501 40618.180717
v -80.010627 64.008501 38330.240475
v -64.008501 64.008501 36042.300234
v -48.006376 64.008501 33754.359992
v -32.004251 64.008501 31466.419751
v -16.002125 64.008501 29178.479510
v 0.000000 64.008501 26890.539268
v 16.002125 64.008501 24602.599027
v 32.004251 64.008501 22314.658785
v 48.006376 64.008501 20026.718544
v 64.008501 64.008501 17738.778302
v 80.010627 64.008501 15450.838061
v 96.012752 64.008501 13162.897820
v 112.014878 64.008501 10874.957578
v 128.017003 64.008501 8587.017337
v 144.019128 64.008501 6299.077095
v 160.021254 64.008501 4011.136854
v 176.023379 64.008501 1723.196612
v 192.025504 64.008501 -564.743629
v -192.025504 80.010627 54676.411528
v -176.023379 80.010627 52388.471286
v -160.021254 80.010627 50100.531045
v -144.019128 80.010627 47812.590804
v -128.017003 80.010627 45524.650562
v -112.014878 80.010627 43236.710321
v -96.012752 80.010627 40948.770079
v -80.010627 80.010627 38660.829838
v -64.008501 80.010627 36372.889596
v -48.006376 80.010627 34084.949355
v -32.004251 80.010627 31797.009114
v -16.002125 80.010627 29509.068872
v 0.000000 80.010627 27221.128631
v 16.002125 80.010627 24933.188389
v 32.004251 80.010627 22645.248148
v 48.006376 80.010627 20357.307906
v 64.008501 80.010627 18069.367665
v 80.010627 80.010627 15781.427423
v 96.012752 80.010627 13493.487182
v 112.014878 80.010627 11205.546941
v 128.017003 80.010627 8917.606699
v 144.019128 80.010627 6629.666458
v 160.021254 80.010627 4341.726216
v 176.023379 80.010627 2053.785975
v 192.025504 80.010627 -234.154267
v -192.025504 96.012752 55007.000890
v -176.023379 96.012752 52719.060649
v -160.021254 96.012752 50431.120408
v -144.019128 96.012752 48143.180166
v -128.017003 96.012752 45855.239925
v -112.014878 96.012752 43567.299683
v -96.012752 96.012752 41279.359442
v -80.010627 96.012752 38991.419200
v -64.008501 96.012752 36703.478959
v -48.006376 96.012752 34415.538717
v -32.004251 96.012752 32127.598476
v -16.002125 96.012752 29839.658235
v 0.000000 96.012752 27551.717993
v 16.002125 96.012752 25263.777752
v 32.004251 96.012752 22975.837510
v 48.006376 96.012752 20687.897269
v 64.008501 96.012752 18399.957027
v 80.010627 96.012752 16112.016786
v 96.012752 96.012752 13824.076545
v 112.014878 96.012752 11536.136303
v 128.017003 96.012752 9248.196062
v 144.019128 96.012752 6960.255820
v 160.021254 96.012752 4672.315579
v 176.023379 96.012752 2384.375337
v 192.025504 96.012752 96.435096
v -192.025504 112.014878 55337.590253
v -176.023379 112.014878 53049.650011
v -160.021254 112.014878 50761.709770
v -144.019128 112.014878 48473.769529
v -128.017003 112.014878 46185.829287
v -112.014878 112.014878 43897.889046
v -96.012752 112.014878 41609.948804
v -80.010627 112.014878 39322.008563
v -64.008501 112.014878 37034.068321
v -48.006376 112.014878 34746.128080
v -32.004251 112.014878 32458.187839
v -16.002125 112.014878 30170.247597
v 0.000000 112.014878 27882.307356
v 16.002125 112.014878 25594.367114
v 32.004251 112.014878 23306.426873
v 48.006376 112.014878 21018.486631
v 64.008501 112.014878 18730.546390
v 80.010627 112.014878 16442.606148
v 96.012752 112.014878 14154.665907
v 112.014878 112.014878 11866.725666
v 128.017003 112.014878 9578.785424
v 144.019128 112.014878 7290.845183
v 160.021254 112.014878 5002.904941
v 176.023379 112.014878 2714.964700
v 192.025504 112.014878 427.024458
v -192.025504 128.017003 55668.179615
v -176.023379 128.017003 53380.239374
v -160.021254 128.017003 51092.299132
v -144.019128 128.017003 48804.358891
v -128.017003 128.017003 46516.418650
v -112.014878 128.017003 44228.478408
v -96.012752 128.017003 41940.538167
v -80.010627 128.017003 39652.597925
v -64.008501 128.017003 37364.657684
v -48.006376 128.017003 35076.717442
v -32.004251 128.017003 32788.777201
v -16.002125 128.017003 30500.836960
v 0.000000 128.017003 28212.896718
v 16.002125 128.017003 25924.956477
v 32.004251 128.017003 23637.016235
v 48.006376 128.017003 21349.075994
v 64.008501 128.017003 19061.135752
v 80.010627 128.017003 16773.195511
v 96.012752 128.017003 14485.255270
v 112.014878 128.017003 12197.315028
v 128.017003 128.017003 9909.374787
v 144.019128 128.017003 7621.434545
v 160.021254 128.017003 5333.494304
v 176.023379 128.017003 3045.554062
v 192.025504 128.017003 757.613821
v -192.025504 144.019128 55998.768978
v -176.023379 144.019128 53710.828736
v -160.021254 144.019128 51422.888495
v -144.019128 144.019128 49134.948254
v -128.017003 144.019128 46847.008012
v -112.014878 144.019128 44559.067771
v -96.012752 144.019128 42271.127529
v -80.010627 144.019128 39983.187288
v -64.008501 144.019128 37695.247046
v -48.006376 144.019128 35407.306805
v -32.004251 144.019128 33119.366564
v -16.002125 144.019128 30831.426322
v 0.000000 144.019128 28543.486081
v 16.002125 144.019128 26255.545839
v 32.004251 144.019128 23967.605598
v 48.006376 144.019128 21679.665356
v 64.008501 144.019128 19391.725115
v 80.010627 144.019128 17103.784873
v 96.012752 144.019128 14815.844632
v 112.014878 144.019128 12527.904391
v 128.017003 144.019128 10239.964149
v 144.019128 144.019128 7952.023908
v 160.021254 144.019128 5664.083666
v 176.023379 144.019128 3376.143425
v 192.025504 144.019128 1088.203183
v -192.025504 160.021254 56329.358340
v -176.023379 160.021254 54041.418099
v -160.021254 160.021254 51753.477857
v -144.019128 160.021254 49465.537616
v -128.017003 160.021254 47177.597375
v -112.014878 160.021254 44889.657133
v -96.012752 160.021254 42601.716892
v -80.010627 160.021254 40313.776650
v -64.008501 160.021254 38025.836409
v -48.006376 160.021254 35737.896167
v -32.004251 160.021254 33449.955926
v -16.002125 160.021254 31162.015685
v 0.000000 160.021254 28874.075443
v 16.002125 160.021254 26586.135202
v 32.004251 160.021254 24298.194960
v 48.006376 160.021254 22010.254719
v 64.008501 160.021254 19722.314477
v 80.010627 160.021254 17434.374236
v 96.012752 160.021254 15146.433995
v 112.014878 160.021254 12858.493753
v 128.017003 160.021254 10570.553512
v 144.019128 160.021254 8282.613270
v 160.021254 160.021254 5994.673029
v 176.023379 160.021254 3706.732787
v 192.025504 160.021254 1418.792546
v -192.025504 176.023379 56659.947703
v -176.023379 176.023379 54372.007461
v -160.021254 176.023379 52084.067220
v -144.019128 176.023379 49796.126979
v -128.017003 176.023379 47508.186737
v -112.014878 176.023379 45220.246496
v -96.012752 176.023379 42932.306254
v -80.010627 176.023379 40644.366013
v -64.008501 176.023379 38356.425771
v -48.006376 176.023379 36068.485530
v -32.004251 176.023379 33780.545289
v -16.002125 176.023379 31492.605047
v 0.000000 176.023379 29204.664806
v 16.002125 176.023379 26916.724564
v 32.004251 176.023379 24628.784323
v 48.006376 176.023379 22340.844081
v 64.008501 176.023379 20052.903840
v 80.010627 176.023379 17764.963598
v 96.012752 176.023379 15477.023357
v 112.014878 176.023379 13189.083116
v 128.017003 176.023379 10901.142874
v 144.019128 176.023379 8613.202633
v 160.021254 176.023379 6325.262391
v 176.023379 176.023379 4037.322150
v 192.025504 176.023379 1749.381908
v -192.025504 192.025504 56990.537065
v -176.023379 192.025504 54702.596824
v -160.021254 192.025504 52414.656582
v -144.019128 192.025504 50126.716341
v -128.017003 192.025504 47838.776100
v -112.014878 192.025504 45550.835858
v -96.012752 192.025504 43262.895617
v -80.010627 192.025504 40974.955375
v -64.008501 192.025504 38687.015134
v -48.006376 192.025504 36399.074892
v -32.004251 192.025504 34111.134651
v -16.002125 192.025504 31823.194410
v 0.000000 192.025504 29535.254168
v 16.002125 192.025504 27247.313927
v 32.004251 192.025504 24959.373685
v 48.006376 192.025504 22671.433444
v 64.008501 192.025504 20383.493202
v 80.010627 192.025504 18095.552961
v 96.012752 192.025504 15807.612720
v 112.014878 192.025504 13519.672478
v 128.017003 192.025504 11231.732237
v 144.019128 192.025504 8943.791995
v 160.021254 192.025504 6655.851754
v 176.023379 192.025504 4367.911512
v 192.025504 192.025504 2079.971271
f 1 2 27
f 1 27 26
f 2 3 28
f 2 28 27
f 3 4 29
f 3 29 28
f 4 5 30
f 4 30 29
f 5 6 31
f 5 31 30
f 6 7 32
f 6 32 31
f 7 8 33
f 7 33 32
f 8 9 34
f 8 34 33
f 9 10 35
f 9 35 34
f 10 11 36
f 10 36 35
f 11 12 37
f 11 37 36
f 12 13 38
f 12 38 37
f 13 14 39
f 13 39 38
f 14 15 40
f 14 40 39
f 15 16 41
f 15 41 40
f 16 17 42
f 16 42 41
f 17 18 43
f 17 43 42
f 18 19 44
f 18 44 43
f 19 20 45
f 19 45 44
f 20 21 46
f 20 46 45
f 21 22 47
f 21 47 46
f 22 23 48
f 22 48 47
f 23 24 49
f 23 49 48
f 24 25 50
f 24 50 49
f 26 27 52
f 26 52 51
f 27 28 53
f 27 53 52
f 28 29 54
f 28 54 53
f 29 30 55
f 29 55 54
f 30 31 56
f 30 56 55
f 31 32 57
f 31 57 56
f 32 33 58
f 32 58 57
f 33 34 59
f 33 59 58
f 34 35 60
f 34 60 59
f 35 36 61
f 35 61 60
f 36 37 62
f 36 62 61
f 37 38 63
f 37 63 62
f 38 39 64
f 38 64 63
f 39 40 65
f 39 65 64
f 40 41 66
f 40 66 65
f 41 42 67
f 41 67 66
f 42 43 68
f 42 68 67
f 43 44 69
f 43 69 68
f 44 45 70
f 44 70 69
f 45 46 71
f 45 71 70
f 46 47 72
f 46 72 71
f 47 48 73
f 47 73 72
f 48 49 74
f 48 74 73
f 49 50 75
f 49 75 74
f 51 52 77
f 51 77 76
f 52 53 78
f 52 78 77
f 53 54 79
f 53 79 78
f 54 55 80
f 54 80 79
f 55 56 81
f 55 81 80
f 56 57 82
f 56 82 81
f 57 58 83
f 57 83 82
f 58 59 84
f 58 84 83
f 59 60 85
f 59 85 84
f 60 61 86
f 60 86 85
f 61 62 87
f 61 87 86
f 62 63 88
f 62 88 87
f 63 64 89
f 63 89 88
f 64 65 90
f 64 90 89
f 65 66 91
f 65 91 90
f 66 67 92
f 66 92 91
f 67 68 93
f 67 93 92
f 68 69 94
f 68 94 93
f 69 70 95
f 69 95 94
f 70 71 96
f 70 96 95
f 71 72 97
f 71 97 96
f 72 73 98
f 72 98 97
f 73 74 99
f 73 99 98
f 74 75 100
f 74 100 99
f 76 77 102
f 76 102 101
f 77 78 103
f 77 103 102
f 78 79 104
f 78 104 103
f 79 80 105
f 79 105 104
f 80 81 106
f 80 106 105
f 81 82 107
f 81 107 106
f 82 83 108
f 82 108 107
f 83 84 109
f 83 109 108
f 84 85 110
f 84 110 109
f 85 86 111
f 85 111 110
f 86 87 112
f 86 112 111
f 87 88 113
f 87 113 112
f 88 89 114
f 88 114 113
f 89 90 115
f 89 115 114
f 90 91 116
f 90 116 115
f 91 92 117
f 91 117 116
f 92 93 118
f 92 118 117
f 93 94 119
f 93 119 118
f 94 95 120
f 94 120 119
f 95 96 121
f 95 121 120
f 96 97 122
f 96 122 121
f 97 98 123
f 97 123 122
f 98 99 124
f 98 124 123
f 99 100 125
f 99 125 124
f 101 102 127
f 101 127 126
f 102 103 128
f 102 128 127
f 103 104 129
f 103 129 128
f 104 105 130
f 104 130 129
f 105 106 131
f 105 131 130
f 106 107 132
f 106 132 131
f 107 108 133
f 107 133 132
f 108 109 134
f 108 134 133
f 109 110 135
f 109 135 134
f 110 111 136
f 110 136 135
f 111 112 137
f 111 137 136
f 112 113 138
f 112 138 137
f 113 114 139
f 113 139 138
f 114 115 140
f 114 140 139
f 115 116 141
f 115 141 140
f 116 117 142
f 116 142 141
f 117 118 143
f 117 143 142
f 118 119 144
f 118 144 143
f 119 120 145
f 119 145 144
f 120 121 146
f 120 146 145
f 121 122 147
f 121 147 146
f 122 123 148
f 122 148 147
f 123 124 149
f 123 149 148
f 124 125 150
f 124 150 149
f 126 127 152
f 126 152 151
f 127 128 153
f 127 153 152
f 128 129 154
f 128 154 153
f 129 130 155
f 129 155 154
f 130 131 156
f 130 156 155
f 131 132 157
f 131 157 156
f 132 133 158
f 132 158 157
f 133 134 159
f 133 159 158
f 134 135 160
f 134 160 159
f 135 136 161
f 135 161 160
f 136 137 162
f 136 162 161
f 137 138 163
f 137 163 162
f 138 139 164
f 138 164 163
f 139 140 165
f 139 165 164
f 140 141 166
f 140 166 165
f 141 142 167
f 141 167 166
f 142 143 168
f 142 168 167
f 143 144 169
f 143 169 168
f 144 145 170
f 144 170 169
f 145 146 171
f 145 171 170
f 146 147 172
f 146 172 171
f 147 148 173
f 147 173 172
f 148 149 174
f 148 174 173
f 149 150 175
f 149 175 174
f 151 152 177
f 151 177 176
f 152 153 178
f 152 178 177
f 153 154 179
f 153 179 178
f 154 155 180
f 154 180 179
f 155 156 181
f 155 181 180
f 156 157 182
f 156 182 181
f 157 158 183
f 157 183 182
f 158 159 184
f 158 184 183
f 159 160 185
f 159 185 184
f 160 161 186
f 160 186 185
f 161 162 187
f 161 187 186
f 162 163 188
f 162 188 187
f 163 164 189
f 163 189 188
f 164 165 190
f 164 190 189
f 165 166 191
f 165 191 190
f 166 167 192
f 166 192 191
f 167 168 193
f 167 193 192
f 168 169 194
f 168 194 193
f 169 170 195
f 169 195 194
f 170 171 196
f 170 196 195
f 171 172 197
f 171 197 196
f 172 173 198
f 172 198 197
f 173 174 199
f 173 199 198
f 174 175 200
f 174 200 199
f 176 177 202
f 176 202 201
f 177 178 203
f 177 203 202
f 178 179 204
f 178 204 203
f 179 180 205
f 179 205 204
f 180 181 206
f 180 206 205
f 181 182 207
f 181 207 206
f 182 183 208
f 182 208 207
f 183 184 209
f 183 209 208
f 184 185 210
f 184 210 209
f 185 186 211
f 185 211 210
f 186 187 212
f 186 212 211
f 187 188 213
f 187 213 212
f 188 189 214
f 188 214 213
f 189 190 215
f 189 215 214
f 190 191 216
f 190 216 215
f 191 192 217
f 191 217 216
f 192 193 218
f 192 218 217
f 193 194 219
f 193 219 218
f 194 195 220
f 194 220 219
f 195 196 221
f 195 221 220
f 196 197 222
f 196 222 221
f 197 198 223
f 197 223 222
f 198 199 224
f 198 224 223
f 199 200 225
f 199 225 224
f 201 202 227
f 201 227 226
f 202 203 228
f 202 228 227
f 203 204 229
f 203 229 228
f 204 205 230
f 204 230 229
f 205 206 231
f 205 231 230
f 206 207 232
f 206 232 231
f 207 208 233
f 207 233 232
f 208 209 234
f 208 234 233
f 209 210 235
f 209 235 234
f 210 211 236
f 210 236 235
f 211 212 237
f 211 237 236
f 212 213 238
f 212 238 237
f 213 214 239
f 213 239 238
f 214 215 240
f 214 240 239
f 215 216 241
f 215 241 240
f 216 217 242
f 216 242 241
f 217 218 243
f 217 243 242
f 218 219 244
f 218 244 243
f 219 220 245
f 219 245 244
f 220 221 246
f 220 246 245
f 221 222 247
f 221 247 246
f 222 223 248
f 222 248 247
f 223 224 249
f 223 249 248
f 224 225 250
f 224 250 249
f 226 227 252
f 226 252 251
f 227 228 253
f 227 253 252
f 228 229 254
f 228 254 253
f 229 230 255
f 229 255 254
f 230 231 256
f 230 256 255
f 231 232 257
f 231 257 256
f 232 233 258
f 232 258 257
f 233 234 259
f 233 259 258
f 234 235 260
f 234 260 259
f 235 236 261
f 235 261 260
f 236 237 262
f 236 262 261
f 237 238 263
f 237 263 262
f 238 239 264
f 238 264 263
f 239 240 265
f 239 265 264
f 240 241 266
f 240 266 265
f 241 242 267
f 241 267 266
f 242 243 268
f 242 268 267
f 243 244 269
f 243 269 268
f 244 245 270
f 244 270 269
f 245 246 271
f 245 271 270
f 246 247 272
f 246 272 271
f 247 248 273
f 247 273 272
f 248 249 274
f 248 274 273
f 249 250 275
f 249 275 274
f 251 252 277
f 251 277 276
f 252 253 278
f 252 278 277
f 253 254 279
f 253 279 278
f 254 255 280
f 254 280 279
f 255 256 281
f 255 281 280
f 256 257 282
f 256 282 281
f 257 258 283
f 257 283 282
f 258 259 284
f 258 284 283
f 259 260 285
f 259 285 284
f 260 261 286
f 260 286 285
f 261 262 287
f 261 287 286
f 262 263 288
f 262 288 287
f 263 264 289
f 263 289 288
f 264 265 290
f 264 290 289
f 265 266 291
f 265 291 290
f 266 267 292
f 266 292 291
f 267 268 293
f 267 293 292
f 268 269 294
f 268 294 293
f 269 270 295
f 269 295 294
f 270 271 296
f 270 296 295
f 271 272 297
f 271 297 296
f 272 273 298
f 272 298 297
f 273 274 299
f 273 299 298
f 274 275 300
f 274 300 299
f 276 277 302
f 276 302 301
f 277 278 303
f 277 303 302
f 278 279 304
f 278 304 303
f 279 280 305
f 279 305 304
f 280 281 306
f 280 306 305
f 281 282 307
f 281 307 306
f 282 283 308
f 282 308 307
f 283 284 309
f 283 309 308
f 284 285 310
f 284 310 309
f 285 286 311
f 285 311 310
f 286 287 312
f 286 312 311
f 287 288 313
f 287 313 312
f 288 289 314
f 288 314 313
f 289 290 315
f 289 315 314
f 290 291 316
f 290 316 315
f 291 292 317
f 291 317 316
f 292 293 318
f 292 318 317
f 293 294 319
f 293 319 318
f 294 295 320
f 294 320 319
f 295 296 321
f 295 321 320
f 296 297 322
f 296 322 321
f 297 298 323
f 297 323 322
f 298 299 324
f 298 324 323
f 299 300 325
f 299 325 324
f 301 302 327
f 301 327 326
f 302 303 328
f 302 328 327
f 303 304 329
f 303 329 328
f 304 305 330
f 304 330 329
f 305 306 331
f 305 331 330
f 306 307 332
f 306 332 331
f 307 308 333
f 307 333 332
f 308 309 334
f 308 334 333
f 309 310 335
f 309 335 334
f 310 311 336
f 310 336 335
f 311 312 337
f 311 337 336
f 312 313 338
f 312 338 337
f 313 314 339
f 313 339 338
f 314 315 340
f 314 340 339
f 315 316 341
f 315 341 340
f 316 317 342
f 316 342 341
f 317 318 343
f 317 343 342
f 318 319 344
f 318 344 343
f 319 320 345
f 319 345 344
f 320 321 346
f 320 346 345
f 321 322 347
f 321 347 346
f 322 323 348
f 322 348 347
f 323 324 349
f 323 349 348
f 324 325 350
f 324 350 349
f 326 327 352
f 326 352 351
f 327 328 353
f 327 353 352
f 328 329 354
f 328 354 353
f 329 330 355
f 329 355 354
f 330 331 356
f 330 356 355
f 331 332 357
f 331 357 356
f 332 333 358
f 332 358 357
f 333 334 359
f 333 359 358
f 334 335 360
f 334 360 359
f 335 336 361
f 335 361 360
f 336 337 362
f 336 362 361
f 337 338 363
f 337 363 362
f 338 339 364
f 338 364 363
f 339 340 365
f 339 365 364
f 340 341 366
f 340 366 365
f 341 342 367
f 341 367 366
f 342 343 368
f 342 368 367
f 343 344 369
f 343 369 368
f 344 345 370
f 344 370 369
f 345 346 371
f 345 371 370
f 346 347 372
f 346 372 371
f 347 348 373
f 347 373 372
f 348 349 374
f 348 374 373
f 349 350 375
f 349 375 374
f 351 352 377
f 351 377 376
f 352 353 378
f 352 378 377
f 353 354 379
f 353 379 378
f 354 355 380
f 354 380 379
f 355 356 381
f 355 381 380
f 356 357 382
f 356 382 381
f 357 358 383
f 357 383 382
f 358 359 384
f 358 384 383
f 359 360 385
f 359 385 384
f 360 361 386
f 360 386 385
f 361 362 387
f 361 387 386
f 362 363 388
f 362 388 387
f 363 364 389
f 363 389 388
f 364 365 390
f 364 390 389
f 365 366 391
f 365 391 390
f 366 367 392
f 366 392 391
f 367 368 393
f 367 393 392
f 368 369 394
f 368 394 393
f 369 370 395
f 369 395 394
f 370 371 396
f 370 396 395
f 371 372 397
f 371 397 396
f 372 373 398
f 372 398 397
f 373 374 399
f 373 399 398
f 374 375 400
f 374 400 399
f 376 377 402
f 376 402 401
f 377 378 403
f 377 403 402
f 378 379 404
f 378 404 403
f 379 380 405
f 379 405 404
f 380 381 406
f 380 406 405
f 381 382 407
f 381 407 406
f 382 383 408
f 382 408 407
f 383 384 409
f 383 409 408
f 384 385 410
f 384 410 409
f 385 386 411
f 385 411 410
f 386 387 412
f 386 412 411
f 387 388 413
f 387 413 412
f 388 389 414
f 388 414 413
f 389 390 415
f 389 415 414
f 390 391 416
f 390 416 415
f 391 392 417
f 391 417 416
f 392 393 418
f 392 418 417
f 393 394 419
f 393 419 418
f 394 395 420
f 394 420 419
f 395 396 421
f 395 421 420
f 396 397 422
f 396 422 421
f 397 398 423
f 397 423 422
f 398 399 424
f 398 424 423
f 399 400 425
f 399 425 424
f 401 402 427
f 401 427 426
f 402 403 428
f 402 428 427
f 403 404 429
f 403 429 428
f 404 405 430
f 404 430 429
f 405 406 431
f 405 431 430
f 406 407 432
f 406 432 431
f 407 408 433
f 407 433 432
f 408 409 434
f 408 434 433
f 409 410 435
f 409 435 434
f 410 411 436
f 410 436 435
f 411 412 437
f 411 437 436
f 412 413 438
f 412 438 437
f 413 414 439
f 413 439 438
f 414 415 440
f 414 440 439
f 415 416 441
f 415 441 440
f 416 417 442
f 416 442 441
f 417 418 443
f 417 443 442
f 418 419 444
f 418 444 443
f 419 420 445
f 419 445 444
f 420 421 446
f 420 446 445
f 421 422 447
f 421 447 446
f 422 423 448
f 422 448 447
f 423 424 449
f 423 449 448
f 424 425 450
f 424 450 449
f 426 427 452
f 426 452 451
f 427 428 453
f 427 453 452
f 428 429 454
f 428 454 453
f 429 430 455
f 429 455 454
f 430 431 456
f 430 456 455
f 431 432 457
f 431 457 456
f 432 433 458
f 432 458 457
f 433 434 459
f 433 459 458
f 434 435 460
f 434 460 459
f 435 436 461
f 435 461 460
f 436 437 462
f 436 462 461
f 437 438 463
f 437 463 462
f 438 439 464
f 438 464 463
f 439 440 465
f 439 465 464
f 440 441 466
f 440 466 465
f 441 442 467
f 441 467 466
f 442 443 468
f 442 468 467
f 443 444 469
f 443 469 468
f 444 445 470
f 444 470 469
f 445 446 471
f 445 471 470
f 446 447 472
f 446 472 471
f 447 448 473
f 447 473 472
f 448 449 474
f 448 474 473
f 449 450 475
f 449 475 474
f 451 452 477
f 451 477 476
f 452 453 478
f 452 478 477
f 453 454 479
f 453 479 478
f 454 455 480
f 454 480 479
f 455 456 481
f 455 481 480
f 456 457 482
f 456 482 481
f 457 458 483
f 457 483 482
f 458 459 484
f 458 484 483
f 459 460 485
f 459 485 484
f 460 461 486
f 460 486 485
f 461 462 487
f 461 487 486
f 462 463 488
f 462 488 487
f 463 464 489
f 463 489 488
f 464 465 490
f 464 490 489
f 465 466 491
f 465 491 490
f 466 467 492
f 466 492 491
f 467 468 493
f 467 493 492
f 468 469 494
f 468 494 493
f 469 470 495
f 469 495 494
f 470 471 496
f 470 496 495
f 471 472 497
f 471 497 496
f 472 473 498
f 472 498 497
f 473 474 499
f 473 499 498
f 474 475 500
f 474 500 499
f 476 477 502
f 476 502 501
f 477 478 503
f 477 503 502
f 478 479 504
f 478 504 503
f 479 480 505
f 479 505 504
f 480 481 506
f 480 506 505
f 481 482 507
f 481 507 506
f 482 483 508
f 482 508 507
f 483 484 509
f 483 509 508
f 484 485 510
f 484 510 509
f 485 486 511
f 485 511 510
f 486 487 512
f 486 512 511
f 487 488 513
f 487 513 512
f 488 489 514
f 488 514 513
f 489 490 515
f 489 515 514
f 490 491 516
f 490 516 515
f 491 492 517
f 491 517 516
f 492 493 518
f 492 518 517
f 493 494 519
f 493 519 518
f 494 495 520
f 494 520 519
f 495 496 521
f 495 521 520
f 496 497 522
f 496 522 521
f 497 498 523
f 497 523 522
f 498 499 524
f 498 524 523
f 499 500 525
f 499 525 524
f 501 502 527
f 501 527 526
f 502 503 528
f 502 528 527
f 503 504 529
f 503 529 528
f 504 505 530
f 504 530 529
f 505 506 531
f 505 531 530
f 506 507 532
f 506 532 531
f 507 508 533
f 507 533 532
f 508 509 534
f 508 534 533
f 509 510 535
f 509 535 534
f 510 511 536
f 510 536 535
f 511 512 537
f 511 537 536
f 512 513 538
f 512 538 537
f 513 514 539
f 513 539 538
f 514 515 540
f 514 540 539
f 515 516 541
f 515 541 540
f 516 517 542
f 516 542 541
f 517 518 543
f 517 543 542
f 518 519 544
f 518 544 543
f 519 520 545
f 519 545 544
f 520 521 546
f 520 546 545
f 521 522 547
f 521 547 546
f 522 523 548
f 522 548 547
f 523 524 549
f 523 549 548
f 524 525 550
f 524 550 549
f 526 527 552
f 526 552 551
f 527 528 553
f 527 553 552
f 528 529 554
f 528 554 553
f 529 530 555
f 529 555 554
f 530 531 556
f 530 556 555
f 531 532 557
f 531 557 556
f 532 533 558
f 532 558 557
f 533 534 559
f 533 559 558
f 534 535 560
f 534 560 559
f 535 536 561
f 535 561 560
f 536 537 562
f 536 562 561
f 537 538 563
f 537 563 562
f 538 539 564
f 538 564 563
f 539 540 565
f 539 565 564
f 540 541 566
f 540 566 565
f 541 542 567
f 541 567 566
f 542 543 568
f 542 568 567
f 543 544 569
f 543 569 568
f 544 545 570
f 544 570 569
f 545 546 571
f 545 571 570
f 546 547 572
f 546 572 571
f 547 548 573
f 547 573 572
f 548 549 574
f 548 574 573
f 549 550 575
f 549 575 574
f 551 552 577
f 551 577 576
f 552 553 578
f 552 578 577
f 553 554 579
f 553 579 578
f 554 555 580
f 554 580 579
f 555 556 581
f 555 581 580
f 556 557 582
f 556 582 581
f 557 558 583
f 557 583 582
f 558 559 584
f 558 584 583
f 559 560 585
f 559 585 584
f 560 561 586
f 560 586 585
f 561 562 587
f 561 587 586
f 562 563 588
f 562 588 587
f 563 564 589
f 563 589 588
f 564 565 590
f 564 590 589
f 565 566 591
f 565 591 590
f 566 567 592
f 566 592 591
f 567 568 593
f 567 593 592
f 568 569 594
f 568 594 593
f 569 570 595
f 569 595 594
f 570 571 596
f 570 596 595
f 571 572 597
f 571 597 596
f 572 573 598
f 572 598 597
f 573 574 599
f 573 599 598
f 574 575 600
f 574 600 599
f 576 577 602
f 576 602 601
f 577 578 603
f 577 603 602
f 578 579 604
f 578 604 603
f 579 580 605
f 579 605 604
f 580 581 606
f 580 606 605
f 581 582 607
f 581 607 606
f 582 583 608
f 582 608 607
f 583 584 609
f 583 609 608
f 584 585 610
f 584 610 609
f 585 586 611
f 585 611 610
f 586 587 612
f 586 612 611
f 587 588 613
f 587 613 612
f 588 589 614
f 588 614 613
f 589 590 615
f 589 615 614
f 590 591 616
f 590 616 615
f 591 592 617
f 591 617 616
f 592 593 618
f 592 618 617
f 593 594 619
f 593 619 618
f 594 595 620
f 594 620 619
f 595 596 621
f 595 621 620
f 596 597 622
f 596 622 621
f 597 598 623
f 597 623 622
f 598 599 624
f 598 624 623
f 599 600 625
f 599 625 624
