o [4B] 3D Diagram - S2-10 Group E_100
v -140.000000 0.000000 74.438021
v -138.520660 0.000000 70.000000
v -138.667160 0.641862 70.000000
v -139.077646 1.156595 70.000000
v -139.670816 1.442250 70.000000
v -140.329184 1.442250 70.000000
v -140.922354 1.156595 70.000000
v -141.332840 0.641862 70.000000
v -141.479340 0.000000 70.000000
v -141.332840 -0.641862 70.000000
v -140.922354 -1.156595 70.000000
v -140.329184 -1.442250 70.000000
v -139.670816 -1.442250 70.000000
v -139.077646 -1.156595 70.000000
v -138.667160 -0.641862 70.000000
v -140.000000 0.000000 70.000000
f 1 2 3
f 1 3 4
f 1 4 5
f 1 5 6
f 1 6 7
f 1 7 8
f 1 8 9
f 1 9 10
f 1 10 11
f 1 11 12
f 1 12 13
f 1 13 14
f 1 14 15
f 1 15 2
f 16 3 2
f 16 4 3
f 16 5 4
f 16 6 5
f 16 7 6
f 16 8 7
f 16 9 8
f 16 10 9
f 16 11 10
f 16 12 11
f 16 13 12
f 16 14 13
f 16 15 14
f 16 2 15
