o [4B] 3D Diagram - S2-10 Group E_234
v 8.000000 97.000000 11.438021
v 9.479340 97.000000 7.000000
v 9.332840 97.641862 7.000000
v 8.922354 98.156595 7.000000
v 8.329184 98.442250 7.000000
v 7.670816 98.442250 7.000000
v 7.077646 98.156595 7.000000
v 6.667160 97.641862 7.000000
v 6.520660 97.000000 7.000000
v 6.667160 96.358138 7.000000
v 7.077646 95.843405 7.000000
v 7.670816 95.557750 7.000000
v 8.329184 95.557750 7.000000
v 8.922354 95.843405 7.000000
v 9.332840 96.358138 7.000000
v 8.000000 97.000000 7.000000
f 1 2 3
f 1 3 4
f 1 4 5
f 1 5 6
f 1 6 7
f 1 7 8
f 1 8 9
f 1 9 10
f 1 10 11
f 1 11 12
f 1 12 13
f 1 13 14
f 1 14 15
f 1 15 2
f 16 3 2
f 16 4 3
f 16 5 4
f 16 6 5
f 16 7 6
f 16 8 7
f 16 9 8
f 16 10 9
f 16 11 10
f 16 12 11
f 16 13 12
f 16 14 13
f 16 15 14
f 16 2 15
