o [4B] 3D Diagram - S2-10 Group E_407
v -4.000000 120.000000 22.438021
v -2.520660 120.000000 18.000000
v -2.667160 120.641862 18.000000
v -3.077646 121.156595 18.000000
v -3.670816 121.442250 18.000000
v -4.329184 121.442250 18.000000
v -4.922354 121.156595 18.000000
v -5.332840 120.641862 18.000000
v -5.479340 120.000000 18.000000
v -5.332840 119.358138 18.000000
v -4.922354 118.843405 18.000000
v -4.329184 118.557750 18.000000
v -3.670816 118.557750 18.000000
v -3.077646 118.843405 18.000000
v -2.667160 119.358138 18.000000
v -4.000000 120.000000 18.000000
f 1 2 3
f 1 3 4
f 1 4 5
f 1 5 6
f 1 6 7
f 1 7 8
f 1 8 9
f 1 9 10
f 1 10 11
f 1 11 12
f 1 12 13
f 1 13 14
f 1 14 15
f 1 15 2
f 16 3 2
f 16 4 3
f 16 5 4
f 16 6 5
f 16 7 6
f 16 8 7
f 16 9 8
f 16 10 9
f 16 11 10
f 16 12 11
f 16 13 12
f 16 14 13
f 16 15 14
f 16 2 15
