o [4B] 3D Diagram - S2-10 Group E_464
v -2.500000 130.000000 27.938021
v -1.020660 130.000000 23.500000
v -1.167160 130.641862 23.500000
v -1.577646 131.156595 23.500000
v -2.170816 131.442250 23.500000
v -2.829184 131.442250 23.500000
v -3.422354 131.156595 23.500000
v -3.832840 130.641862 23.500000
v -3.979340 130.000000 23.500000
v -3.832840 129.358138 23.500000
v -3.422354 128.843405 23.500000
v -2.829184 128.557750 23.500000
v -2.170816 128.557750 23.500000
v -1.577646 128.843405 23.500000
v -1.167160 129.358138 23.500000
v -2.500000 130.000000 23.500000
f 1 2 3
f 1 3 4
f 1 4 5
f 1 5 6
f 1 6 7
f 1 7 8
f 1 8 9
f 1 9 10
f 1 10 11
f 1 11 12
f 1 12 13
f 1 13 14
f 1 14 15
f 1 15 2
f 16 3 2
f 16 4 3
f 16 5 4
f 16 6 5
f 16 7 6
f 16 8 7
f 16 9 8
f 16 10 9
f 16 11 10
f 16 12 11
f 16 13 12
f 16 14 13
f 16 15 14
f 16 2 15
