o [4B] 3D Diagram - S2-07 Group B_446
v -19.460000 13.240000 0.082500
v -19.460000 13.720000 0.082500
v -19.460000 13.720000 0.285000
v -19.460000 13.240000 0.285000
v -19.077500 13.240000 0.082500
v -19.077500 13.240000 0.285000
v -19.077500 13.720000 0.082500
v -19.460000 13.720000 0.487500
v -19.460000 13.240000 0.487500
v -19.077500 13.240000 0.487500
v -19.460000 13.720000 0.690000
v -19.460000 13.240000 0.690000
v -19.077500 13.240000 0.690000
v -19.460000 13.720000 0.892500
v -19.460000 13.240000 0.892500
v -19.077500 13.240000 0.892500
v -19.460000 13.720000 1.095000
v -19.460000 13.240000 1.095000
v -19.077500 13.240000 1.095000
v -19.460000 13.720000 1.297500
v -19.460000 13.240000 1.297500
v -19.077500 13.240000 1.297500
v -19.460000 13.720000 1.500000
v -19.460000 13.240000 1.500000
v -19.077500 13.240000 1.500000
v -19.460000 13.720000 1.702500
v -19.460000 13.240000 1.702500
v -19.077500 13.240000 1.702500
v -19.460000 13.720000 1.905000
v -19.460000 13.240000 1.905000
v -19.077500 13.240000 1.905000
v -19.460000 13.720000 2.107500
v -19.460000 13.240000 2.107500
v -19.077500 13.240000 2.107500
v -19.460000 13.720000 2.310000
v -19.460000 13.240000 2.310000
v -19.077500 13.240000 2.310000
v -19.460000 13.720000 2.512500
v -19.460000 13.240000 2.512500
v -19.077500 13.240000 2.512500
v -19.460000 13.720000 2.715000
v -19.460000 13.240000 2.715000
v -19.077500 13.240000 2.715000
v -19.460000 13.720000 2.917500
v -19.460000 13.240000 2.917500
v -19.077500 13.240000 2.917500
v -19.077500 13.720000 2.917500
v -19.460000 14.200000 0.082500
v -19.460000 14.200000 0.285000
v -19.077500 14.200000 0.082500
v -19.460000 14.200000 0.487500
v -19.460000 14.200000 0.690000
v -19.460000 14.200000 0.892500
v -19.460000 14.200000 1.095000
v -19.460000 14.200000 1.297500
v -19.460000 14.200000 1.500000
v -19.460000 14.200000 1.702500
v -19.460000 14.200000 1.905000
v -19.460000 14.200000 2.107500
v -19.460000 14.200000 2.310000
v -19.460000 14.200000 2.512500
v -19.460000 14.200000 2.715000
v -19.460000 14.200000 2.917500
v -19.077500 14.200000 2.917500
v -19.460000 14.680000 0.082500
v -19.460000 14.680000 0.285000
v -19.077500 14.680000 0.285000
v -19.077500 14.680000 0.082500
v -19.460000 14.680000 0.487500
v -19.077500 14.680000 0.487500
v -19.460000 14.680000 0.690000
v -19.077500 14.680000 0.690000
v -19.460000 14.680000 0.892500
v -19.077500 14.680000 0.892500
v -19.460000 14.680000 1.095000
v -19.077500 14.680000 1.095000
v -19.460000 14.680000 1.297500
v -19.077500 14.680000 1.297500
v -19.460000 14.680000 1.500000
v -19.077500 14.680000 1.500000
v -19.460000 14.680000 1.702500
v -19.077500 14.680000 1.702500
v -19.460000 14.680000 1.905000
v -19.077500 14.680000 1.905000
v -19.460000 14.680000 2.107500
v -19.077500 14.680000 2.107500
v -19.460000 14.680000 2.310000
v -19.077500 14.680000 2.310000
v -19.460000 14.680000 2.512500
v -19.077500 14.680000 2.512500
v -19.460000 14.680000 2.715000
v -19.077500 14.680000 2.715000
v -19.460000 14.680000 2.917500
v -19.077500 14.680000 2.917500
v -18.695000 13.240000 0.082500
v -18.695000 13.240000 0.285000
v -18.695000 13.720000 0.082500
v -18.695000 13.240000 0.487500
v -18.695000 13.240000 0.690000
v -18.695000 13.240000 0.892500
v -18.695000 13.240000 1.095000
v -18.695000 13.240000 1.297500
v -18.695000 13.240000 1.500000
v -18.695000 13.240000 1.702500
v -18.695000 13.240000 1.905000
v -18.695000 13.240000 2.107500
v -18.695000 13.240000 2.310000
v -18.695000 13.240000 2.512500
v -18.695000 13.240000 2.715000
v -18.695000 13.240000 2.917500
v -18.695000 13.720000 2.917500
v -18.695000 14.200000 0.082500
v -18.695000 14.200000 2.917500
v -18.695000 14.680000 0.082500
v -18.695000 14.680000 2.917500
v -19.077500 15.160000 0.082500
v -19.077500 15.160000 0.285000
v -18.695000 15.160000 0.285000
v -18.695000 15.160000 0.082500
v -19.077500 15.160000 0.487500
v -18.695000 15.160000 0.487500
v -19.077500 15.160000 0.690000
v -18.695000 15.160000 0.690000
v -19.077500 15.160000 0.892500
v -18.695000 15.160000 0.892500
v -19.077500 15.160000 1.095000
v -18.695000 15.160000 1.095000
v -19.077500 15.160000 1.297500
v -18.695000 15.160000 1.297500
v -19.077500 15.160000 1.500000
v -18.695000 15.160000 1.500000
v -19.077500 15.160000 1.702500
v -18.695000 15.160000 1.702500
v -19.077500 15.160000 1.905000
v -18.695000 15.160000 1.905000
v -19.077500 15.160000 2.107500
v -18.695000 15.160000 2.107500
v -19.077500 15.160000 2.310000
v -18.695000 15.160000 2.310000
v -19.077500 15.160000 2.512500
v -18.695000 15.160000 2.512500
v -19.077500 15.160000 2.715000
v -18.695000 15.160000 2.715000
v -19.077500 15.160000 2.917500
v -18.695000 15.160000 2.917500
v -18.312500 13.240000 0.082500
v -18.312500 13.240000 0.285000
v -18.312500 13.720000 0.082500
v -18.312500 13.240000 0.487500
v -18.312500 13.240000 0.690000
v -18.312500 13.240000 0.892500
v -18.312500 13.240000 1.095000
v -18.312500 13.240000 1.297500
v -18.312500 13.240000 1.500000
v -18.312500 13.240000 1.702500
v -18.312500 13.240000 1.905000
v -18.312500 13.240000 2.107500
v -18.312500 13.240000 2.310000
v -18.312500 13.240000 2.512500
v -18.312500 13.240000 2.715000
v -18.312500 13.240000 2.917500
v -18.312500 13.720000 2.917500
v -18.312500 14.200000 0.082500
v -18.312500 14.200000 2.917500
v -18.312500 14.680000 0.082500
v -18.312500 14.680000 2.917500
v -18.312500 15.160000 0.082500
v -18.312500 15.160000 2.917500
v -18.695000 15.640000 0.082500
v -18.695000 15.640000 0.285000
v -18.312500 15.640000 0.285000
v -18.312500 15.640000 0.082500
v -18.695000 15.640000 0.487500
v -18.312500 15.640000 0.487500
v -18.695000 15.640000 0.690000
v -18.312500 15.640000 0.690000
v -18.695000 15.640000 0.892500
v -18.312500 15.640000 0.892500
v -18.695000 15.640000 1.095000
v -18.312500 15.640000 1.095000
v -18.695000 15.640000 1.297500
v -18.312500 15.640000 1.297500
v -18.695000 15.640000 1.500000
v -18.312500 15.640000 1.500000
v -18.695000 15.640000 1.702500
v -18.312500 15.640000 1.702500
v -18.695000 15.640000 1.905000
v -18.312500 15.640000 1.905000
v -18.695000 15.640000 2.107500
v -18.312500 15.640000 2.107500
v -18.695000 15.640000 2.310000
v -18.312500 15.640000 2.310000
v -18.695000 15.640000 2.512500
v -18.312500 15.640000 2.512500
v -18.695000 15.640000 2.715000
v -18.312500 15.640000 2.715000
v -18.695000 15.640000 2.917500
v -18.312500 15.640000 2.917500
v -17.930000 13.240000 0.082500
v -17.930000 13.240000 0.285000
v -17.930000 13.720000 0.082500
v -17.930000 13.240000 0.487500
v -17.930000 13.240000 0.690000
v -17.930000 13.240000 0.892500
v -17.930000 13.240000 1.095000
v -17.930000 13.240000 1.297500
v -17.930000 13.240000 1.500000
v -17.930000 13.240000 1.702500
v -17.930000 13.240000 1.905000
v -17.930000 13.240000 2.107500
v -17.930000 13.240000 2.310000
v -17.930000 13.240000 2.512500
v -17.930000 13.240000 2.715000
v -17.930000 13.240000 2.917500
v -17.930000 13.720000 2.917500
v -17.930000 14.200000 0.082500
v -17.930000 14.200000 2.917500
v -17.930000 14.680000 0.082500
v -17.930000 14.680000 2.917500
v -17.930000 15.160000 0.082500
v -17.930000 15.160000 2.917500
v -17.930000 15.640000 0.285000
v -17.930000 15.640000 0.082500
v -17.930000 15.640000 0.487500
v -17.930000 15.640000 0.690000
v -17.930000 15.640000 0.892500
v -17.930000 15.640000 1.095000
v -17.930000 15.640000 1.297500
v -17.930000 15.640000 1.500000
v -17.930000 15.640000 1.702500
v -17.930000 15.640000 1.905000
v -17.930000 15.640000 2.107500
v -17.930000 15.640000 2.310000
v -17.930000 15.640000 2.512500
v -17.930000 15.640000 2.715000
v -17.930000 15.640000 2.917500
v -17.547500 13.240000 0.082500
v -17.547500 13.240000 0.285000
v -17.547500 13.720000 0.082500
v -17.547500 13.240000 0.487500
v -17.547500 13.240000 0.690000
v -17.547500 13.240000 0.892500
v -17.547500 13.240000 1.095000
v -17.547500 13.240000 1.297500
v -17.547500 13.240000 1.500000
v -17.547500 13.240000 1.702500
v -17.547500 13.240000 1.905000
v -17.547500 13.240000 2.107500
v -17.547500 13.240000 2.310000
v -17.547500 13.240000 2.512500
v -17.547500 13.240000 2.715000
v -17.547500 13.240000 2.917500
v -17.547500 13.720000 2.917500
v -17.547500 14.200000 0.082500
v -17.547500 14.200000 2.917500
v -17.547500 14.680000 0.082500
v -17.547500 14.680000 2.917500
v -17.547500 15.160000 0.082500
v -17.547500 15.160000 2.917500
v -17.547500 15.640000 0.082500
v -17.547500 15.640000 2.917500
v -17.930000 16.120000 0.082500
v -17.930000 16.120000 0.285000
v -17.547500 16.120000 0.285000
v -17.547500 16.120000 0.082500
v -17.930000 16.120000 0.487500
v -17.547500 16.120000 0.487500
v -17.930000 16.120000 0.690000
v -17.547500 16.120000 0.690000
v -17.930000 16.120000 0.892500
v -17.547500 16.120000 0.892500
v -17.930000 16.120000 1.095000
v -17.547500 16.120000 1.095000
v -17.930000 16.120000 1.297500
v -17.547500 16.120000 1.297500
v -17.930000 16.120000 1.500000
v -17.547500 16.120000 1.500000
v -17.930000 16.120000 1.702500
v -17.547500 16.120000 1.702500
v -17.930000 16.120000 1.905000
v -17.547500 16.120000 1.905000
v -17.930000 16.120000 2.107500
v -17.547500 16.120000 2.107500
v -17.930000 16.120000 2.310000
v -17.547500 16.120000 2.310000
v -17.930000 16.120000 2.512500
v -17.547500 16.120000 2.512500
v -17.930000 16.120000 2.715000
v -17.547500 16.120000 2.715000
v -17.930000 16.120000 2.917500
v -17.547500 16.120000 2.917500
v -17.165000 13.240000 0.082500
v -17.165000 13.240000 0.285000
v -17.165000 13.720000 0.082500
v -17.165000 13.240000 0.487500
v -17.165000 13.240000 0.690000
v -17.165000 13.240000 0.892500
v -17.165000 13.240000 1.095000
v -17.165000 13.240000 1.297500
v -17.165000 13.240000 1.500000
v -17.165000 13.240000 1.702500
v -17.165000 13.240000 1.905000
v -17.165000 13.240000 2.107500
v -17.165000 13.240000 2.310000
v -17.165000 13.240000 2.512500
v -17.165000 13.240000 2.715000
v -17.165000 13.240000 2.917500
v -17.165000 13.720000 2.917500
v -17.165000 14.200000 0.082500
v -17.165000 14.200000 2.917500
v -17.165000 14.680000 0.082500
v -17.165000 14.680000 2.917500
v -17.165000 15.160000 0.082500
v -17.165000 15.160000 2.917500
v -17.165000 15.640000 0.082500
v -17.165000 15.640000 2.917500
v -17.165000 16.120000 0.082500
v -17.165000 16.120000 2.917500
v -17.547500 16.600000 0.082500
v -17.547500 16.600000 0.285000
v -17.165000 16.600000 0.285000
v -17.165000 16.600000 0.082500
v -17.547500 16.600000 0.487500
v -17.165000 16.600000 0.487500
v -17.547500 16.600000 0.690000
v -17.165000 16.600000 0.690000
v -17.547500 16.600000 0.892500
v -17.165000 16.600000 0.892500
v -17.547500 16.600000 1.095000
v -17.165000 16.600000 1.095000
v -17.547500 16.600000 1.297500
v -17.165000 16.600000 1.297500
v -17.547500 16.600000 1.500000
v -17.165000 16.600000 1.500000
v -17.547500 16.600000 1.702500
v -17.165000 16.600000 1.702500
v -17.547500 16.600000 1.905000
v -17.165000 16.600000 1.905000
v -17.547500 16.600000 2.107500
v -17.165000 16.600000 2.107500
v -17.547500 16.600000 2.310000
v -17.165000 16.600000 2.310000
v -17.547500 16.600000 2.512500
v -17.165000 16.600000 2.512500
v -17.547500 16.600000 2.715000
v -17.165000 16.600000 2.715000
v -17.547500 16.600000 2.917500
v -17.165000 16.600000 2.917500
v -16.782500 13.240000 0.082500
v -16.782500 13.240000 0.285000
v -16.782500 13.720000 0.082500
v -16.782500 13.240000 0.487500
v -16.782500 13.240000 0.690000
v -16.782500 13.240000 0.892500
v -16.782500 13.240000 1.095000
v -16.782500 13.240000 1.297500
v -16.782500 13.240000 1.500000
v -16.782500 13.240000 1.702500
v -16.782500 13.240000 1.905000
v -16.782500 13.240000 2.107500
v -16.782500 13.240000 2.310000
v -16.782500 13.240000 2.512500
v -16.782500 13.240000 2.715000
v -16.782500 13.240000 2.917500
v -16.782500 13.720000 2.917500
v -16.782500 14.200000 0.082500
v -16.782500 14.200000 2.917500
v -16.782500 14.680000 0.082500
v -16.782500 14.680000 2.917500
v -16.782500 15.160000 0.082500
v -16.782500 15.160000 2.917500
v -16.782500 15.640000 0.082500
v -16.782500 15.640000 2.917500
v -16.782500 16.120000 0.082500
v -16.782500 16.120000 2.917500
v -16.782500 16.600000 0.082500
v -16.782500 16.600000 2.917500
v -17.165000 17.080000 0.082500
v -17.165000 17.080000 0.285000
v -16.782500 17.080000 0.285000
v -16.782500 17.080000 0.082500
v -17.165000 17.080000 0.487500
v -16.782500 17.080000 0.487500
v -17.165000 17.080000 0.690000
v -16.782500 17.080000 0.690000
v -17.165000 17.080000 0.892500
v -16.782500 17.080000 0.892500
v -17.165000 17.080000 1.095000
v -16.782500 17.080000 1.095000
v -17.165000 17.080000 1.297500
v -16.782500 17.080000 1.297500
v -17.165000 17.080000 1.500000
v -16.782500 17.080000 1.500000
v -17.165000 17.080000 1.702500
v -16.782500 17.080000 1.702500
v -17.165000 17.080000 1.905000
v -16.782500 17.080000 1.905000
v -17.165000 17.080000 2.107500
v -16.782500 17.080000 2.107500
v -17.165000 17.080000 2.310000
v -16.782500 17.080000 2.310000
v -17.165000 17.080000 2.512500
v -16.782500 17.080000 2.512500
v -17.165000 17.080000 2.715000
v -16.782500 17.080000 2.715000
v -17.165000 17.080000 2.917500
v -16.782500 17.080000 2.917500
v -16.400000 13.240000 0.082500
v -16.400000 13.240000 0.285000
v -16.400000 13.720000 0.082500
v -16.400000 13.240000 0.487500
v -16.400000 13.240000 0.690000
v -16.400000 13.240000 0.892500
v -16.400000 13.240000 1.095000
v -16.400000 13.240000 1.297500
v -16.400000 13.240000 1.500000
v -16.400000 13.240000 1.702500
v -16.400000 13.240000 1.905000
v -16.400000 13.240000 2.107500
v -16.400000 13.240000 2.310000
v -16.400000 13.240000 2.512500
v -16.400000 13.240000 2.715000
v -16.400000 13.240000 2.917500
v -16.400000 13.720000 2.917500
v -16.400000 14.200000 0.082500
v -16.400000 14.200000 2.917500
v -16.400000 14.680000 0.082500
v -16.400000 14.680000 2.917500
v -16.400000 15.160000 0.082500
v -16.400000 15.160000 2.917500
v -16.400000 15.640000 0.082500
v -16.400000 15.640000 2.917500
v -16.400000 16.120000 0.082500
v -16.400000 16.120000 2.917500
v -16.400000 16.600000 0.082500
v -16.400000 16.600000 2.917500
v -16.400000 17.080000 0.082500
v -16.400000 17.080000 2.917500
v -16.782500 17.560000 0.082500
v -16.782500 17.560000 0.285000
v -16.400000 17.560000 0.285000
v -16.400000 17.560000 0.082500
v -16.782500 17.560000 0.487500
v -16.400000 17.560000 0.487500
v -16.782500 17.560000 0.690000
v -16.400000 17.560000 0.690000
v -16.782500 17.560000 0.892500
v -16.400000 17.560000 0.892500
v -16.782500 17.560000 1.095000
v -16.400000 17.560000 1.095000
v -16.782500 17.560000 1.297500
v -16.400000 17.560000 1.297500
v -16.782500 17.560000 1.500000
v -16.400000 17.560000 1.500000
v -16.782500 17.560000 1.702500
v -16.400000 17.560000 1.702500
v -16.782500 17.560000 1.905000
v -16.400000 17.560000 1.905000
v -16.782500 17.560000 2.107500
v -16.400000 17.560000 2.107500
v -16.782500 17.560000 2.310000
v -16.400000 17.560000 2.310000
v -16.782500 17.560000 2.512500
v -16.400000 17.560000 2.512500
v -16.782500 17.560000 2.715000
v -16.400000 17.560000 2.715000
v -16.782500 17.560000 2.917500
v -16.400000 17.560000 2.917500
v -16.017500 13.240000 0.082500
v -16.017500 13.240000 0.285000
v -16.017500 13.720000 0.082500
v -16.017500 13.240000 0.487500
v -16.017500 13.240000 0.690000
v -16.017500 13.240000 0.892500
v -16.017500 13.240000 1.095000
v -16.017500 13.240000 1.297500
v -16.017500 13.240000 1.500000
v -16.017500 13.240000 1.702500
v -16.017500 13.240000 1.905000
v -16.017500 13.240000 2.107500
v -16.017500 13.240000 2.310000
v -16.017500 13.240000 2.512500
v -16.017500 13.240000 2.715000
v -16.017500 13.240000 2.917500
v -16.017500 13.720000 2.917500
v -16.017500 14.200000 0.082500
v -16.017500 14.200000 2.917500
v -16.017500 14.680000 0.082500
v -16.017500 14.680000 2.917500
v -16.017500 15.160000 0.082500
v -16.017500 15.160000 2.917500
v -16.017500 15.640000 0.082500
v -16.017500 15.640000 2.917500
v -16.017500 16.120000 0.082500
v -16.017500 16.120000 2.917500
v -16.017500 16.600000 0.082500
v -16.017500 16.600000 2.917500
v -16.017500 17.080000 0.082500
v -16.017500 17.080000 2.917500
v -16.017500 17.560000 0.285000
v -16.017500 17.560000 0.082500
v -16.017500 17.560000 0.487500
v -16.017500 17.560000 0.690000
v -16.017500 17.560000 0.892500
v -16.017500 17.560000 1.095000
v -16.017500 17.560000 1.297500
v -16.017500 17.560000 1.500000
v -16.017500 17.560000 1.702500
v -16.017500 17.560000 1.905000
v -16.017500 17.560000 2.107500
v -16.017500 17.560000 2.310000
v -16.017500 17.560000 2.512500
v -16.017500 17.560000 2.715000
v -16.017500 17.560000 2.917500
v -15.635000 13.240000 0.082500
v -15.635000 13.240000 0.285000
v -15.635000 13.720000 0.082500
v -15.635000 13.240000 0.487500
v -15.635000 13.240000 0.690000
v -15.635000 13.240000 0.892500
v -15.635000 13.240000 1.095000
v -15.635000 13.240000 1.297500
v -15.635000 13.240000 1.500000
v -15.635000 13.240000 1.702500
v -15.635000 13.240000 1.905000
v -15.635000 13.240000 2.107500
v -15.635000 13.240000 2.310000
v -15.635000 13.240000 2.512500
v -15.635000 13.240000 2.715000
v -15.635000 13.240000 2.917500
v -15.635000 13.720000 2.917500
v -15.635000 14.200000 0.082500
v -15.635000 14.200000 2.917500
v -15.635000 14.680000 0.082500
v -15.635000 14.680000 2.917500
v -15.635000 15.160000 0.082500
v -15.635000 15.160000 2.917500
v -15.635000 15.640000 0.082500
v -15.635000 15.640000 2.917500
v -15.635000 16.120000 0.082500
v -15.635000 16.120000 2.917500
v -15.635000 16.600000 0.082500
v -15.635000 16.600000 2.917500
v -15.635000 17.080000 0.082500
v -15.635000 17.080000 2.917500
v -15.635000 17.560000 0.082500
v -15.635000 17.560000 2.917500
v -16.017500 18.040000 0.082500
v -16.017500 18.040000 0.285000
v -15.635000 18.040000 0.285000
v -15.635000 18.040000 0.082500
v -16.017500 18.040000 0.487500
v -15.635000 18.040000 0.487500
v -16.017500 18.040000 0.690000
v -15.635000 18.040000 0.690000
v -16.017500 18.040000 0.892500
v -15.635000 18.040000 0.892500
v -16.017500 18.040000 1.095000
v -15.635000 18.040000 1.095000
v -16.017500 18.040000 1.297500
v -15.635000 18.040000 1.297500
v -16.017500 18.040000 1.500000
v -15.635000 18.040000 1.500000
v -16.017500 18.040000 1.702500
v -15.635000 18.040000 1.702500
v -16.017500 18.040000 1.905000
v -15.635000 18.040000 1.905000
v -16.017500 18.040000 2.107500
v -15.635000 18.040000 2.107500
v -16.017500 18.040000 2.310000
v -15.635000 18.040000 2.310000
v -16.017500 18.040000 2.512500
v -15.635000 18.040000 2.512500
v -16.017500 18.040000 2.715000
v -15.635000 18.040000 2.715000
v -16.017500 18.040000 2.917500
v -15.635000 18.040000 2.917500
v -15.252500 13.240000 0.082500
v -15.252500 13.240000 0.285000
v -15.252500 13.720000 0.082500
v -15.252500 13.240000 0.487500
v -15.252500 13.240000 0.690000
v -15.252500 13.240000 0.892500
v -15.252500 13.240000 1.095000
v -15.252500 13.240000 1.297500
v -15.252500 13.240000 1.500000
v -15.252500 13.240000 1.702500
v -15.252500 13.240000 1.905000
v -15.252500 13.240000 2.107500
v -15.252500 13.240000 2.310000
v -15.252500 13.240000 2.512500
v -15.252500 13.240000 2.715000
v -15.252500 13.240000 2.917500
v -15.252500 13.720000 2.917500
v -15.252500 14.200000 0.082500
v -15.252500 14.200000 2.917500
v -15.252500 14.680000 0.082500
v -15.252500 14.680000 2.917500
v -15.252500 15.160000 0.082500
v -15.252500 15.160000 2.917500
v -15.252500 15.640000 0.082500
v -15.252500 15.640000 2.917500
v -15.252500 16.120000 0.082500
v -15.252500 16.120000 2.917500
v -15.252500 16.600000 0.082500
v -15.252500 16.600000 2.917500
v -15.252500 17.080000 0.082500
v -15.252500 17.080000 2.917500
v -15.252500 17.560000 0.082500
v -15.252500 17.560000 2.917500
v -15.252500 18.040000 0.082500
v -15.252500 18.040000 2.917500
v -15.635000 18.520000 0.082500
v -15.635000 18.520000 0.285000
v -15.252500 18.520000 0.285000
v -15.252500 18.520000 0.082500
v -15.635000 18.520000 0.487500
v -15.252500 18.520000 0.487500
v -15.635000 18.520000 0.690000
v -15.252500 18.520000 0.690000
v -15.635000 18.520000 0.892500
v -15.252500 18.520000 0.892500
v -15.635000 18.520000 1.095000
v -15.252500 18.520000 1.095000
v -15.635000 18.520000 1.297500
v -15.252500 18.520000 1.297500
v -15.635000 18.520000 1.500000
v -15.252500 18.520000 1.500000
v -15.635000 18.520000 1.702500
v -15.252500 18.520000 1.702500
v -15.635000 18.520000 1.905000
v -15.252500 18.520000 1.905000
v -15.635000 18.520000 2.107500
v -15.252500 18.520000 2.107500
v -15.635000 18.520000 2.310000
v -15.252500 18.520000 2.310000
v -15.635000 18.520000 2.512500
v -15.252500 18.520000 2.512500
v -15.635000 18.520000 2.715000
v -15.252500 18.520000 2.715000
v -15.635000 18.520000 2.917500
v -15.252500 18.520000 2.917500
v -14.870000 13.240000 0.082500
v -14.870000 13.240000 0.285000
v -14.870000 13.720000 0.082500
v -14.870000 13.240000 0.487500
v -14.870000 13.240000 0.690000
v -14.870000 13.240000 0.892500
v -14.870000 13.240000 1.095000
v -14.870000 13.240000 1.297500
v -14.870000 13.240000 1.500000
v -14.870000 13.240000 1.702500
v -14.870000 13.240000 1.905000
v -14.870000 13.240000 2.107500
v -14.870000 13.240000 2.310000
v -14.870000 13.240000 2.512500
v -14.870000 13.240000 2.715000
v -14.870000 13.240000 2.917500
v -14.870000 13.720000 2.917500
v -14.870000 14.200000 0.082500
v -14.870000 14.200000 2.917500
v -14.870000 14.680000 0.082500
v -14.870000 14.680000 2.917500
v -14.870000 15.160000 0.082500
v -14.870000 15.160000 2.917500
v -14.870000 15.640000 0.082500
v -14.870000 15.640000 2.917500
v -14.870000 16.120000 0.082500
v -14.870000 16.120000 2.917500
v -14.870000 16.600000 0.082500
v -14.870000 16.600000 2.917500
v -14.870000 17.080000 0.082500
v -14.870000 17.080000 2.917500
v -14.870000 17.560000 0.082500
v -14.870000 17.560000 2.917500
v -14.870000 18.040000 0.082500
v -14.870000 18.040000 2.917500
v -14.870000 18.520000 0.082500
v -14.870000 18.520000 2.917500
v -15.252500 19.000000 0.082500
v -15.252500 19.000000 0.285000
v -14.870000 19.000000 0.285000
v -14.870000 19.000000 0.082500
v -15.252500 19.000000 0.487500
v -14.870000 19.000000 0.487500
v -15.252500 19.000000 0.690000
v -14.870000 19.000000 0.690000
v -15.252500 19.000000 0.892500
v -14.870000 19.000000 0.892500
v -15.252500 19.000000 1.095000
v -14.870000 19.000000 1.095000
v -15.252500 19.000000 1.297500
v -14.870000 19.000000 1.297500
v -15.252500 19.000000 1.500000
v -14.870000 19.000000 1.500000
v -15.252500 19.000000 1.702500
v -14.870000 19.000000 1.702500
v -15.252500 19.000000 1.905000
v -14.870000 19.000000 1.905000
v -15.252500 19.000000 2.107500
v -14.870000 19.000000 2.107500
v -15.252500 19.000000 2.310000
v -14.870000 19.000000 2.310000
v -15.252500 19.000000 2.512500
v -14.870000 19.000000 2.512500
v -15.252500 19.000000 2.715000
v -14.870000 19.000000 2.715000
v -15.252500 19.000000 2.917500
v -14.870000 19.000000 2.917500
v -14.487500 13.240000 0.082500
v -14.487500 13.240000 0.285000
v -14.487500 13.720000 0.082500
v -14.487500 13.240000 0.487500
v -14.487500 13.240000 0.690000
v -14.487500 13.240000 0.892500
v -14.487500 13.240000 1.095000
v -14.487500 13.240000 1.297500
v -14.487500 13.240000 1.500000
v -14.487500 13.240000 1.702500
v -14.487500 13.240000 1.905000
v -14.487500 13.240000 2.107500
v -14.487500 13.240000 2.310000
v -14.487500 13.240000 2.512500
v -14.487500 13.240000 2.715000
v -14.487500 13.240000 2.917500
v -14.487500 13.720000 2.917500
v -14.487500 14.200000 0.082500
v -14.487500 14.200000 2.917500
v -14.487500 14.680000 0.082500
v -14.487500 14.680000 2.917500
v -14.487500 15.160000 0.082500
v -14.487500 15.160000 2.917500
v -14.487500 15.640000 0.082500
v -14.487500 15.640000 2.917500
v -14.487500 16.120000 0.082500
v -14.487500 16.120000 2.917500
v -14.487500 16.600000 0.082500
v -14.487500 16.600000 2.917500
v -14.487500 17.080000 0.082500
v -14.487500 17.080000 2.917500
v -14.487500 17.560000 0.082500
v -14.487500 17.560000 2.917500
v -14.487500 18.040000 0.082500
v -14.487500 18.040000 2.917500
v -14.487500 18.520000 0.082500
v -14.487500 18.520000 2.917500
v -14.487500 19.000000 0.082500
v -14.487500 19.000000 2.917500
v -14.870000 19.480000 0.082500
v -14.870000 19.480000 0.285000
v -14.487500 19.480000 0.285000
v -14.487500 19.480000 0.082500
v -14.870000 19.480000 0.487500
v -14.487500 19.480000 0.487500
v -14.870000 19.480000 0.690000
v -14.487500 19.480000 0.690000
v -14.870000 19.480000 0.892500
v -14.487500 19.480000 0.892500
v -14.870000 19.480000 1.095000
v -14.487500 19.480000 1.095000
v -14.870000 19.480000 1.297500
v -14.487500 19.480000 1.297500
v -14.870000 19.480000 1.500000
v -14.487500 19.480000 1.500000
v -14.870000 19.480000 1.702500
v -14.487500 19.480000 1.702500
v -14.870000 19.480000 1.905000
v -14.487500 19.480000 1.905000
v -14.870000 19.480000 2.107500
v -14.487500 19.480000 2.107500
v -14.870000 19.480000 2.310000
v -14.487500 19.480000 2.310000
v -14.870000 19.480000 2.512500
v -14.487500 19.480000 2.512500
v -14.870000 19.480000 2.715000
v -14.487500 19.480000 2.715000
v -14.870000 19.480000 2.917500
v -14.487500 19.480000 2.917500
v -14.105000 13.240000 0.082500
v -14.105000 13.240000 0.285000
v -14.105000 13.720000 0.082500
v -14.105000 13.240000 0.487500
v -14.105000 13.240000 0.690000
v -14.105000 13.240000 0.892500
v -14.105000 13.240000 1.095000
v -14.105000 13.240000 1.297500
v -14.105000 13.240000 1.500000
v -14.105000 13.240000 1.702500
v -14.105000 13.240000 1.905000
v -14.105000 13.240000 2.107500
v -14.105000 13.240000 2.310000
v -14.105000 13.240000 2.512500
v -14.105000 13.240000 2.715000
v -14.105000 13.240000 2.917500
v -14.105000 13.720000 2.917500
v -14.105000 14.200000 0.082500
v -14.105000 14.200000 2.917500
v -14.105000 14.680000 0.082500
v -14.105000 14.680000 2.917500
v -14.105000 15.160000 0.082500
v -14.105000 15.160000 2.917500
v -14.105000 15.640000 0.082500
v -14.105000 15.640000 2.917500
v -14.105000 16.120000 0.082500
v -14.105000 16.120000 2.917500
v -14.105000 16.600000 0.082500
v -14.105000 16.600000 2.917500
v -14.105000 17.080000 0.082500
v -14.105000 17.080000 2.917500
v -14.105000 17.560000 0.082500
v -14.105000 17.560000 2.917500
v -14.105000 18.040000 0.082500
v -14.105000 18.040000 2.917500
v -14.105000 18.520000 0.082500
v -14.105000 18.520000 2.917500
v -14.105000 19.000000 0.082500
v -14.105000 19.000000 2.917500
v -14.105000 19.480000 0.285000
v -14.105000 19.480000 0.082500
v -14.105000 19.480000 0.487500
v -14.105000 19.480000 0.690000
v -14.105000 19.480000 0.892500
v -14.105000 19.480000 1.095000
v -14.105000 19.480000 1.297500
v -14.105000 19.480000 1.500000
v -14.105000 19.480000 1.702500
v -14.105000 19.480000 1.905000
v -14.105000 19.480000 2.107500
v -14.105000 19.480000 2.310000
v -14.105000 19.480000 2.512500
v -14.105000 19.480000 2.715000
v -14.105000 19.480000 2.917500
v -13.722500 13.240000 0.082500
v -13.722500 13.240000 0.285000
v -13.722500 13.720000 0.082500
v -13.722500 13.240000 0.487500
v -13.722500 13.240000 0.690000
v -13.722500 13.240000 0.892500
v -13.722500 13.240000 1.095000
v -13.722500 13.240000 1.297500
v -13.722500 13.240000 1.500000
v -13.722500 13.240000 1.702500
v -13.722500 13.240000 1.905000
v -13.722500 13.240000 2.107500
v -13.722500 13.240000 2.310000
v -13.722500 13.240000 2.512500
v -13.722500 13.240000 2.715000
v -13.722500 13.240000 2.917500
v -13.722500 13.720000 2.917500
v -13.722500 14.200000 0.082500
v -13.722500 14.200000 2.917500
v -13.722500 14.680000 0.082500
v -13.722500 14.680000 2.917500
v -13.722500 15.160000 0.082500
v -13.722500 15.160000 2.917500
v -13.722500 15.640000 0.082500
v -13.722500 15.640000 2.917500
v -13.722500 16.120000 0.082500
v -13.722500 16.120000 2.917500
v -13.722500 16.600000 0.082500
v -13.722500 16.600000 2.917500
v -13.722500 17.080000 0.082500
v -13.722500 17.080000 2.917500
v -13.722500 17.560000 0.082500
v -13.722500 17.560000 2.917500
v -13.722500 18.040000 0.082500
v -13.722500 18.040000 2.917500
v -13.722500 18.520000 0.082500
v -13.722500 18.520000 2.917500
v -13.722500 19.000000 0.082500
v -13.722500 19.000000 2.917500
v -13.722500 19.480000 0.082500
v -13.722500 19.480000 2.917500
v -14.105000 19.960000 0.082500
v -14.105000 19.960000 0.285000
v -13.722500 19.960000 0.285000
v -13.722500 19.960000 0.082500
v -14.105000 19.960000 0.487500
v -13.722500 19.960000 0.487500
v -14.105000 19.960000 0.690000
v -13.722500 19.960000 0.690000
v -14.105000 19.960000 0.892500
v -13.722500 19.960000 0.892500
v -14.105000 19.960000 1.095000
v -13.722500 19.960000 1.095000
v -14.105000 19.960000 1.297500
v -13.722500 19.960000 1.297500
v -14.105000 19.960000 1.500000
v -13.722500 19.960000 1.500000
v -14.105000 19.960000 1.702500
v -13.722500 19.960000 1.702500
v -14.105000 19.960000 1.905000
v -13.722500 19.960000 1.905000
v -14.105000 19.960000 2.107500
v -13.722500 19.960000 2.107500
v -14.105000 19.960000 2.310000
v -13.722500 19.960000 2.310000
v -14.105000 19.960000 2.512500
v -13.722500 19.960000 2.512500
v -14.105000 19.960000 2.715000
v -13.722500 19.960000 2.715000
v -14.105000 19.960000 2.917500
v -13.722500 19.960000 2.917500
v -13.340000 13.240000 0.082500
v -13.340000 13.240000 0.285000
v -13.340000 13.720000 0.285000
v -13.340000 13.720000 0.082500
v -13.340000 13.240000 0.487500
v -13.340000 13.720000 0.487500
v -13.340000 13.240000 0.690000
v -13.340000 13.720000 0.690000
v -13.340000 13.240000 0.892500
v -13.340000 13.720000 0.892500
v -13.340000 13.240000 1.095000
v -13.340000 13.720000 1.095000
v -13.340000 13.240000 1.297500
v -13.340000 13.720000 1.297500
v -13.340000 13.240000 1.500000
v -13.340000 13.720000 1.500000
v -13.340000 13.240000 1.702500
v -13.340000 13.720000 1.702500
v -13.340000 13.240000 1.905000
v -13.340000 13.720000 1.905000
v -13.340000 13.240000 2.107500
v -13.340000 13.720000 2.107500
v -13.340000 13.240000 2.310000
v -13.340000 13.720000 2.310000
v -13.340000 13.240000 2.512500
v -13.340000 13.720000 2.512500
v -13.340000 13.240000 2.715000
v -13.340000 13.720000 2.715000
v -13.340000 13.240000 2.917500
v -13.340000 13.720000 2.917500
v -13.340000 14.200000 0.285000
v -13.340000 14.200000 0.082500
v -13.340000 14.200000 0.487500
v -13.340000 14.200000 0.690000
v -13.340000 14.200000 0.892500
v -13.340000 14.200000 1.095000
v -13.340000 14.200000 1.297500
v -13.340000 14.200000 1.500000
v -13.340000 14.200000 1.702500
v -13.340000 14.200000 1.905000
v -13.340000 14.200000 2.107500
v -13.340000 14.200000 2.310000
v -13.340000 14.200000 2.512500
v -13.340000 14.200000 2.715000
v -13.340000 14.200000 2.917500
v -13.340000 14.680000 0.285000
v -13.340000 14.680000 0.082500
v -13.340000 14.680000 0.487500
v -13.340000 14.680000 0.690000
v -13.340000 14.680000 0.892500
v -13.340000 14.680000 1.095000
v -13.340000 14.680000 1.297500
v -13.340000 14.680000 1.500000
v -13.340000 14.680000 1.702500
v -13.340000 14.680000 1.905000
v -13.340000 14.680000 2.107500
v -13.340000 14.680000 2.310000
v -13.340000 14.680000 2.512500
v -13.340000 14.680000 2.715000
v -13.340000 14.680000 2.917500
v -13.340000 15.160000 0.285000
v -13.340000 15.160000 0.082500
v -13.340000 15.160000 0.487500
v -13.340000 15.160000 0.690000
v -13.340000 15.160000 0.892500
v -13.340000 15.160000 1.095000
v -13.340000 15.160000 1.297500
v -13.340000 15.160000 1.500000
v -13.340000 15.160000 1.702500
v -13.340000 15.160000 1.905000
v -13.340000 15.160000 2.107500
v -13.340000 15.160000 2.310000
v -13.340000 15.160000 2.512500
v -13.340000 15.160000 2.715000
v -13.340000 15.160000 2.917500
v -13.340000 15.640000 0.285000
v -13.340000 15.640000 0.082500
v -13.340000 15.640000 0.487500
v -13.340000 15.640000 0.690000
v -13.340000 15.640000 0.892500
v -13.340000 15.640000 1.095000
v -13.340000 15.640000 1.297500
v -13.340000 15.640000 1.500000
v -13.340000 15.640000 1.702500
v -13.340000 15.640000 1.905000
v -13.340000 15.640000 2.107500
v -13.340000 15.640000 2.310000
v -13.340000 15.640000 2.512500
v -13.340000 15.640000 2.715000
v -13.340000 15.640000 2.917500
v -13.340000 16.120000 0.285000
v -13.340000 16.120000 0.082500
v -13.340000 16.120000 0.487500
v -13.340000 16.120000 0.690000
v -13.340000 16.120000 0.892500
v -13.340000 16.120000 1.095000
v -13.340000 16.120000 1.297500
v -13.340000 16.120000 1.500000
v -13.340000 16.120000 1.702500
v -13.340000 16.120000 1.905000
v -13.340000 16.120000 2.107500
v -13.340000 16.120000 2.310000
v -13.340000 16.120000 2.512500
v -13.340000 16.120000 2.715000
v -13.340000 16.120000 2.917500
v -13.340000 16.600000 0.285000
v -13.340000 16.600000 0.082500
v -13.340000 16.600000 0.487500
v -13.340000 16.600000 0.690000
v -13.340000 16.600000 0.892500
v -13.340000 16.600000 1.095000
v -13.340000 16.600000 1.297500
v -13.340000 16.600000 1.500000
v -13.340000 16.600000 1.702500
v -13.340000 16.600000 1.905000
v -13.340000 16.600000 2.107500
v -13.340000 16.600000 2.310000
v -13.340000 16.600000 2.512500
v -13.340000 16.600000 2.715000
v -13.340000 16.600000 2.917500
v -13.340000 17.080000 0.285000
v -13.340000 17.080000 0.082500
v -13.340000 17.080000 0.487500
v -13.340000 17.080000 0.690000
v -13.340000 17.080000 0.892500
v -13.340000 17.080000 1.095000
v -13.340000 17.080000 1.297500
v -13.340000 17.080000 1.500000
v -13.340000 17.080000 1.702500
v -13.340000 17.080000 1.905000
v -13.340000 17.080000 2.107500
v -13.340000 17.080000 2.310000
v -13.340000 17.080000 2.512500
v -13.340000 17.080000 2.715000
v -13.340000 17.080000 2.917500
v -13.340000 17.560000 0.285000
v -13.340000 17.560000 0.082500
v -13.340000 17.560000 0.487500
v -13.340000 17.560000 0.690000
v -13.340000 17.560000 0.892500
v -13.340000 17.560000 1.095000
v -13.340000 17.560000 1.297500
v -13.340000 17.560000 1.500000
v -13.340000 17.560000 1.702500
v -13.340000 17.560000 1.905000
v -13.340000 17.560000 2.107500
v -13.340000 17.560000 2.310000
v -13.340000 17.560000 2.512500
v -13.340000 17.560000 2.715000
v -13.340000 17.560000 2.917500
v -13.340000 18.040000 0.285000
v -13.340000 18.040000 0.082500
v -13.340000 18.040000 0.487500
v -13.340000 18.040000 0.690000
v -13.340000 18.040000 0.892500
v -13.340000 18.040000 1.095000
v -13.340000 18.040000 1.297500
v -13.340000 18.040000 1.500000
v -13.340000 18.040000 1.702500
v -13.340000 18.040000 1.905000
v -13.340000 18.040000 2.107500
v -13.340000 18.040000 2.310000
v -13.340000 18.040000 2.512500
v -13.340000 18.040000 2.715000
v -13.340000 18.040000 2.917500
v -13.340000 18.520000 0.285000
v -13.340000 18.520000 0.082500
v -13.340000 18.520000 0.487500
v -13.340000 18.520000 0.690000
v -13.340000 18.520000 0.892500
v -13.340000 18.520000 1.095000
v -13.340000 18.520000 1.297500
v -13.340000 18.520000 1.500000
v -13.340000 18.520000 1.702500
v -13.340000 18.520000 1.905000
v -13.340000 18.520000 2.107500
v -13.340000 18.520000 2.310000
v -13.340000 18.520000 2.512500
v -13.340000 18.520000 2.715000
v -13.340000 18.520000 2.917500
v -13.340000 19.000000 0.285000
v -13.340000 19.000000 0.082500
v -13.340000 19.000000 0.487500
v -13.340000 19.000000 0.690000
v -13.340000 19.000000 0.892500
v -13.340000 19.000000 1.095000
v -13.340000 19.000000 1.297500
v -13.340000 19.000000 1.500000
v -13.340000 19.000000 1.702500
v -13.340000 19.000000 1.905000
v -13.340000 19.000000 2.107500
v -13.340000 19.000000 2.310000
v -13.340000 19.000000 2.512500
v -13.340000 19.000000 2.715000
v -13.340000 19.000000 2.917500
v -13.340000 19.480000 0.285000
v -13.340000 19.480000 0.082500
v -13.340000 19.480000 0.487500
v -13.340000 19.480000 0.690000
v -13.340000 19.480000 0.892500
v -13.340000 19.480000 1.095000
v -13.340000 19.480000 1.297500
v -13.340000 19.480000 1.500000
v -13.340000 19.480000 1.702500
v -13.340000 19.480000 1.905000
v -13.340000 19.480000 2.107500
v -13.340000 19.480000 2.310000
v -13.340000 19.480000 2.512500
v -13.340000 19.480000 2.715000
v -13.340000 19.480000 2.917500
v -13.340000 19.960000 0.285000
v -13.340000 19.960000 0.082500
v -13.340000 19.960000 0.487500
v -13.340000 19.960000 0.690000
v -13.340000 19.960000 0.892500
v -13.340000 19.960000 1.095000
v -13.340000 19.960000 1.297500
v -13.340000 19.960000 1.500000
v -13.340000 19.960000 1.702500
v -13.340000 19.960000 1.905000
v -13.340000 19.960000 2.107500
v -13.340000 19.960000 2.310000
v -13.340000 19.960000 2.512500
v -13.340000 19.960000 2.715000
v -13.340000 19.960000 2.917500
v -13.722500 20.440000 0.082500
v -13.722500 20.440000 0.285000
v -13.340000 20.440000 0.285000
v -13.340000 20.440000 0.082500
v -13.722500 20.440000 0.487500
v -13.340000 20.440000 0.487500
v -13.722500 20.440000 0.690000
v -13.340000 20.440000 0.690000
v -13.722500 20.440000 0.892500
v -13.340000 20.440000 0.892500
v -13.722500 20.440000 1.095000
v -13.340000 20.440000 1.095000
v -13.722500 20.440000 1.297500
v -13.340000 20.440000 1.297500
v -13.722500 20.440000 1.500000
v -13.340000 20.440000 1.500000
v -13.722500 20.440000 1.702500
v -13.340000 20.440000 1.702500
v -13.722500 20.440000 1.905000
v -13.340000 20.440000 1.905000
v -13.722500 20.440000 2.107500
v -13.340000 20.440000 2.107500
v -13.722500 20.440000 2.310000
v -13.340000 20.440000 2.310000
v -13.722500 20.440000 2.512500
v -13.340000 20.440000 2.512500
v -13.722500 20.440000 2.715000
v -13.340000 20.440000 2.715000
v -13.722500 20.440000 2.917500
v -13.340000 20.440000 2.917500
f 1 2 3
f 1 3 4
f 1 5 6
f 1 6 4
f 1 2 7
f 1 7 5
f 4 3 8
f 4 8 9
f 4 6 10
f 4 10 9
f 9 8 11
f 9 11 12
f 9 10 13
f 9 13 12
f 12 11 14
f 12 14 15
f 12 13 16
f 12 16 15
f 15 14 17
f 15 17 18
f 15 16 19
f 15 19 18
f 18 17 20
f 18 20 21
f 18 19 22
f 18 22 21
f 21 20 23
f 21 23 24
f 21 22 25
f 21 25 24
f 24 23 26
f 24 26 27
f 24 25 28
f 24 28 27
f 27 26 29
f 27 29 30
f 27 28 31
f 27 31 30
f 30 29 32
f 30 32 33
f 30 31 34
f 30 34 33
f 33 32 35
f 33 35 36
f 33 34 37
f 33 37 36
f 36 35 38
f 36 38 39
f 36 37 40
f 36 40 39
f 39 38 41
f 39 41 42
f 39 40 43
f 39 43 42
f 42 41 44
f 42 44 45
f 42 43 46
f 42 46 45
f 45 46 47
f 45 47 44
f 2 48 49
f 2 49 3
f 2 48 50
f 2 50 7
f 3 49 51
f 3 51 8
f 8 51 52
f 8 52 11
f 11 52 53
f 11 53 14
f 14 53 54
f 14 54 17
f 17 54 55
f 17 55 20
f 20 55 56
f 20 56 23
f 23 56 57
f 23 57 26
f 26 57 58
f 26 58 29
f 29 58 59
f 29 59 32
f 32 59 60
f 32 60 35
f 35 60 61
f 35 61 38
f 38 61 62
f 38 62 41
f 41 62 63
f 41 63 44
f 44 47 64
f 44 64 63
f 48 65 66
f 48 66 49
f 65 66 67
f 65 67 68
f 48 65 68
f 48 68 50
f 49 66 69
f 49 69 51
f 66 69 70
f 66 70 67
f 51 69 71
f 51 71 52
f 69 71 72
f 69 72 70
f 52 71 73
f 52 73 53
f 71 73 74
f 71 74 72
f 53 73 75
f 53 75 54
f 73 75 76
f 73 76 74
f 54 75 77
f 54 77 55
f 75 77 78
f 75 78 76
f 55 77 79
f 55 79 56
f 77 79 80
f 77 80 78
f 56 79 81
f 56 81 57
f 79 81 82
f 79 82 80
f 57 81 83
f 57 83 58
f 81 83 84
f 81 84 82
f 58 83 85
f 58 85 59
f 83 85 86
f 83 86 84
f 59 85 87
f 59 87 60
f 85 87 88
f 85 88 86
f 60 87 89
f 60 89 61
f 87 89 90
f 87 90 88
f 61 89 91
f 61 91 62
f 89 91 92
f 89 92 90
f 62 91 93
f 62 93 63
f 91 93 94
f 91 94 92
f 63 64 94
f 63 94 93
f 5 95 96
f 5 96 6
f 5 7 97
f 5 97 95
f 6 96 98
f 6 98 10
f 10 98 99
f 10 99 13
f 13 99 100
f 13 100 16
f 16 100 101
f 16 101 19
f 19 101 102
f 19 102 22
f 22 102 103
f 22 103 25
f 25 103 104
f 25 104 28
f 28 104 105
f 28 105 31
f 31 105 106
f 31 106 34
f 34 106 107
f 34 107 37
f 37 107 108
f 37 108 40
f 40 108 109
f 40 109 43
f 43 109 110
f 43 110 46
f 46 110 111
f 46 111 47
f 7 50 112
f 7 112 97
f 47 111 113
f 47 113 64
f 50 68 114
f 50 114 112
f 64 113 115
f 64 115 94
f 68 116 117
f 68 117 67
f 116 117 118
f 116 118 119
f 68 116 119
f 68 119 114
f 67 117 120
f 67 120 70
f 117 120 121
f 117 121 118
f 70 120 122
f 70 122 72
f 120 122 123
f 120 123 121
f 72 122 124
f 72 124 74
f 122 124 125
f 122 125 123
f 74 124 126
f 74 126 76
f 124 126 127
f 124 127 125
f 76 126 128
f 76 128 78
f 126 128 129
f 126 129 127
f 78 128 130
f 78 130 80
f 128 130 131
f 128 131 129
f 80 130 132
f 80 132 82
f 130 132 133
f 130 133 131
f 82 132 134
f 82 134 84
f 132 134 135
f 132 135 133
f 84 134 136
f 84 136 86
f 134 136 137
f 134 137 135
f 86 136 138
f 86 138 88
f 136 138 139
f 136 139 137
f 88 138 140
f 88 140 90
f 138 140 141
f 138 141 139
f 90 140 142
f 90 142 92
f 140 142 143
f 140 143 141
f 92 142 144
f 92 144 94
f 142 144 145
f 142 145 143
f 94 115 145
f 94 145 144
f 95 146 147
f 95 147 96
f 95 97 148
f 95 148 146
f 96 147 149
f 96 149 98
f 98 149 150
f 98 150 99
f 99 150 151
f 99 151 100
f 100 151 152
f 100 152 101
f 101 152 153
f 101 153 102
f 102 153 154
f 102 154 103
f 103 154 155
f 103 155 104
f 104 155 156
f 104 156 105
f 105 156 157
f 105 157 106
f 106 157 158
f 106 158 107
f 107 158 159
f 107 159 108
f 108 159 160
f 108 160 109
f 109 160 161
f 109 161 110
f 110 161 162
f 110 162 111
f 97 112 163
f 97 163 148
f 111 162 164
f 111 164 113
f 112 114 165
f 112 165 163
f 113 164 166
f 113 166 115
f 114 119 167
f 114 167 165
f 115 166 168
f 115 168 145
f 119 169 170
f 119 170 118
f 169 170 171
f 169 171 172
f 119 169 172
f 119 172 167
f 118 170 173
f 118 173 121
f 170 173 174
f 170 174 171
f 121 173 175
f 121 175 123
f 173 175 176
f 173 176 174
f 123 175 177
f 123 177 125
f 175 177 178
f 175 178 176
f 125 177 179
f 125 179 127
f 177 179 180
f 177 180 178
f 127 179 181
f 127 181 129
f 179 181 182
f 179 182 180
f 129 181 183
f 129 183 131
f 181 183 184
f 181 184 182
f 131 183 185
f 131 185 133
f 183 185 186
f 183 186 184
f 133 185 187
f 133 187 135
f 185 187 188
f 185 188 186
f 135 187 189
f 135 189 137
f 187 189 190
f 187 190 188
f 137 189 191
f 137 191 139
f 189 191 192
f 189 192 190
f 139 191 193
f 139 193 141
f 191 193 194
f 191 194 192
f 141 193 195
f 141 195 143
f 193 195 196
f 193 196 194
f 143 195 197
f 143 197 145
f 195 197 198
f 195 198 196
f 145 168 198
f 145 198 197
f 146 199 200
f 146 200 147
f 146 148 201
f 146 201 199
f 147 200 202
f 147 202 149
f 149 202 203
f 149 203 150
f 150 203 204
f 150 204 151
f 151 204 205
f 151 205 152
f 152 205 206
f 152 206 153
f 153 206 207
f 153 207 154
f 154 207 208
f 154 208 155
f 155 208 209
f 155 209 156
f 156 209 210
f 156 210 157
f 157 210 211
f 157 211 158
f 158 211 212
f 158 212 159
f 159 212 213
f 159 213 160
f 160 213 214
f 160 214 161
f 161 214 215
f 161 215 162
f 148 163 216
f 148 216 201
f 162 215 217
f 162 217 164
f 163 165 218
f 163 218 216
f 164 217 219
f 164 219 166
f 165 167 220
f 165 220 218
f 166 219 221
f 166 221 168
f 172 171 222
f 172 222 223
f 167 172 223
f 167 223 220
f 171 174 224
f 171 224 222
f 174 176 225
f 174 225 224
f 176 178 226
f 176 226 225
f 178 180 227
f 178 227 226
f 180 182 228
f 180 228 227
f 182 184 229
f 182 229 228
f 184 186 230
f 184 230 229
f 186 188 231
f 186 231 230
f 188 190 232
f 188 232 231
f 190 192 233
f 190 233 232
f 192 194 234
f 192 234 233
f 194 196 235
f 194 235 234
f 196 198 236
f 196 236 235
f 168 221 236
f 168 236 198
f 199 237 238
f 199 238 200
f 199 201 239
f 199 239 237
f 200 238 240
f 200 240 202
f 202 240 241
f 202 241 203
f 203 241 242
f 203 242 204
f 204 242 243
f 204 243 205
f 205 243 244
f 205 244 206
f 206 244 245
f 206 245 207
f 207 245 246
f 207 246 208
f 208 246 247
f 208 247 209
f 209 247 248
f 209 248 210
f 210 248 249
f 210 249 211
f 211 249 250
f 211 250 212
f 212 250 251
f 212 251 213
f 213 251 252
f 213 252 214
f 214 252 253
f 214 253 215
f 201 216 254
f 201 254 239
f 215 253 255
f 215 255 217
f 216 218 256
f 216 256 254
f 217 255 257
f 217 257 219
f 218 220 258
f 218 258 256
f 219 257 259
f 219 259 221
f 220 223 260
f 220 260 258
f 221 259 261
f 221 261 236
f 223 262 263
f 223 263 222
f 262 263 264
f 262 264 265
f 223 262 265
f 223 265 260
f 222 263 266
f 222 266 224
f 263 266 267
f 263 267 264
f 224 266 268
f 224 268 225
f 266 268 269
f 266 269 267
f 225 268 270
f 225 270 226
f 268 270 271
f 268 271 269
f 226 270 272
f 226 272 227
f 270 272 273
f 270 273 271
f 227 272 274
f 227 274 228
f 272 274 275
f 272 275 273
f 228 274 276
f 228 276 229
f 274 276 277
f 274 277 275
f 229 276 278
f 229 278 230
f 276 278 279
f 276 279 277
f 230 278 280
f 230 280 231
f 278 280 281
f 278 281 279
f 231 280 282
f 231 282 232
f 280 282 283
f 280 283 281
f 232 282 284
f 232 284 233
f 282 284 285
f 282 285 283
f 233 284 286
f 233 286 234
f 284 286 287
f 284 287 285
f 234 286 288
f 234 288 235
f 286 288 289
f 286 289 287
f 235 288 290
f 235 290 236
f 288 290 291
f 288 291 289
f 236 261 291
f 236 291 290
f 237 292 293
f 237 293 238
f 237 239 294
f 237 294 292
f 238 293 295
f 238 295 240
f 240 295 296
f 240 296 241
f 241 296 297
f 241 297 242
f 242 297 298
f 242 298 243
f 243 298 299
f 243 299 244
f 244 299 300
f 244 300 245
f 245 300 301
f 245 301 246
f 246 301 302
f 246 302 247
f 247 302 303
f 247 303 248
f 248 303 304
f 248 304 249
f 249 304 305
f 249 305 250
f 250 305 306
f 250 306 251
f 251 306 307
f 251 307 252
f 252 307 308
f 252 308 253
f 239 254 309
f 239 309 294
f 253 308 310
f 253 310 255
f 254 256 311
f 254 311 309
f 255 310 312
f 255 312 257
f 256 258 313
f 256 313 311
f 257 312 314
f 257 314 259
f 258 260 315
f 258 315 313
f 259 314 316
f 259 316 261
f 260 265 317
f 260 317 315
f 261 316 318
f 261 318 291
f 265 319 320
f 265 320 264
f 319 320 321
f 319 321 322
f 265 319 322
f 265 322 317
f 264 320 323
f 264 323 267
f 320 323 324
f 320 324 321
f 267 323 325
f 267 325 269
f 323 325 326
f 323 326 324
f 269 325 327
f 269 327 271
f 325 327 328
f 325 328 326
f 271 327 329
f 271 329 273
f 327 329 330
f 327 330 328
f 273 329 331
f 273 331 275
f 329 331 332
f 329 332 330
f 275 331 333
f 275 333 277
f 331 333 334
f 331 334 332
f 277 333 335
f 277 335 279
f 333 335 336
f 333 336 334
f 279 335 337
f 279 337 281
f 335 337 338
f 335 338 336
f 281 337 339
f 281 339 283
f 337 339 340
f 337 340 338
f 283 339 341
f 283 341 285
f 339 341 342
f 339 342 340
f 285 341 343
f 285 343 287
f 341 343 344
f 341 344 342
f 287 343 345
f 287 345 289
f 343 345 346
f 343 346 344
f 289 345 347
f 289 347 291
f 345 347 348
f 345 348 346
f 291 318 348
f 291 348 347
f 292 349 350
f 292 350 293
f 292 294 351
f 292 351 349
f 293 350 352
f 293 352 295
f 295 352 353
f 295 353 296
f 296 353 354
f 296 354 297
f 297 354 355
f 297 355 298
f 298 355 356
f 298 356 299
f 299 356 357
f 299 357 300
f 300 357 358
f 300 358 301
f 301 358 359
f 301 359 302
f 302 359 360
f 302 360 303
f 303 360 361
f 303 361 304
f 304 361 362
f 304 362 305
f 305 362 363
f 305 363 306
f 306 363 364
f 306 364 307
f 307 364 365
f 307 365 308
f 294 309 366
f 294 366 351
f 308 365 367
f 308 367 310
f 309 311 368
f 309 368 366
f 310 367 369
f 310 369 312
f 311 313 370
f 311 370 368
f 312 369 371
f 312 371 314
f 313 315 372
f 313 372 370
f 314 371 373
f 314 373 316
f 315 317 374
f 315 374 372
f 316 373 375
f 316 375 318
f 317 322 376
f 317 376 374
f 318 375 377
f 318 377 348
f 322 378 379
f 322 379 321
f 378 379 380
f 378 380 381
f 322 378 381
f 322 381 376
f 321 379 382
f 321 382 324
f 379 382 383
f 379 383 380
f 324 382 384
f 324 384 326
f 382 384 385
f 382 385 383
f 326 384 386
f 326 386 328
f 384 386 387
f 384 387 385
f 328 386 388
f 328 388 330
f 386 388 389
f 386 389 387
f 330 388 390
f 330 390 332
f 388 390 391
f 388 391 389
f 332 390 392
f 332 392 334
f 390 392 393
f 390 393 391
f 334 392 394
f 334 394 336
f 392 394 395
f 392 395 393
f 336 394 396
f 336 396 338
f 394 396 397
f 394 397 395
f 338 396 398
f 338 398 340
f 396 398 399
f 396 399 397
f 340 398 400
f 340 400 342
f 398 400 401
f 398 401 399
f 342 400 402
f 342 402 344
f 400 402 403
f 400 403 401
f 344 402 404
f 344 404 346
f 402 404 405
f 402 405 403
f 346 404 406
f 346 406 348
f 404 406 407
f 404 407 405
f 348 377 407
f 348 407 406
f 349 408 409
f 349 409 350
f 349 351 410
f 349 410 408
f 350 409 411
f 350 411 352
f 352 411 412
f 352 412 353
f 353 412 413
f 353 413 354
f 354 413 414
f 354 414 355
f 355 414 415
f 355 415 356
f 356 415 416
f 356 416 357
f 357 416 417
f 357 417 358
f 358 417 418
f 358 418 359
f 359 418 419
f 359 419 360
f 360 419 420
f 360 420 361
f 361 420 421
f 361 421 362
f 362 421 422
f 362 422 363
f 363 422 423
f 363 423 364
f 364 423 424
f 364 424 365
f 351 366 425
f 351 425 410
f 365 424 426
f 365 426 367
f 366 368 427
f 366 427 425
f 367 426 428
f 367 428 369
f 368 370 429
f 368 429 427
f 369 428 430
f 369 430 371
f 370 372 431
f 370 431 429
f 371 430 432
f 371 432 373
f 372 374 433
f 372 433 431
f 373 432 434
f 373 434 375
f 374 376 435
f 374 435 433
f 375 434 436
f 375 436 377
f 376 381 437
f 376 437 435
f 377 436 438
f 377 438 407
f 381 439 440
f 381 440 380
f 439 440 441
f 439 441 442
f 381 439 442
f 381 442 437
f 380 440 443
f 380 443 383
f 440 443 444
f 440 444 441
f 383 443 445
f 383 445 385
f 443 445 446
f 443 446 444
f 385 445 447
f 385 447 387
f 445 447 448
f 445 448 446
f 387 447 449
f 387 449 389
f 447 449 450
f 447 450 448
f 389 449 451
f 389 451 391
f 449 451 452
f 449 452 450
f 391 451 453
f 391 453 393
f 451 453 454
f 451 454 452
f 393 453 455
f 393 455 395
f 453 455 456
f 453 456 454
f 395 455 457
f 395 457 397
f 455 457 458
f 455 458 456
f 397 457 459
f 397 459 399
f 457 459 460
f 457 460 458
f 399 459 461
f 399 461 401
f 459 461 462
f 459 462 460
f 401 461 463
f 401 463 403
f 461 463 464
f 461 464 462
f 403 463 465
f 403 465 405
f 463 465 466
f 463 466 464
f 405 465 467
f 405 467 407
f 465 467 468
f 465 468 466
f 407 438 468
f 407 468 467
f 408 469 470
f 408 470 409
f 408 410 471
f 408 471 469
f 409 470 472
f 409 472 411
f 411 472 473
f 411 473 412
f 412 473 474
f 412 474 413
f 413 474 475
f 413 475 414
f 414 475 476
f 414 476 415
f 415 476 477
f 415 477 416
f 416 477 478
f 416 478 417
f 417 478 479
f 417 479 418
f 418 479 480
f 418 480 419
f 419 480 481
f 419 481 420
f 420 481 482
f 420 482 421
f 421 482 483
f 421 483 422
f 422 483 484
f 422 484 423
f 423 484 485
f 423 485 424
f 410 425 486
f 410 486 471
f 424 485 487
f 424 487 426
f 425 427 488
f 425 488 486
f 426 487 489
f 426 489 428
f 427 429 490
f 427 490 488
f 428 489 491
f 428 491 430
f 429 431 492
f 429 492 490
f 430 491 493
f 430 493 432
f 431 433 494
f 431 494 492
f 432 493 495
f 432 495 434
f 433 435 496
f 433 496 494
f 434 495 497
f 434 497 436
f 435 437 498
f 435 498 496
f 436 497 499
f 436 499 438
f 442 441 500
f 442 500 501
f 437 442 501
f 437 501 498
f 441 444 502
f 441 502 500
f 444 446 503
f 444 503 502
f 446 448 504
f 446 504 503
f 448 450 505
f 448 505 504
f 450 452 506
f 450 506 505
f 452 454 507
f 452 507 506
f 454 456 508
f 454 508 507
f 456 458 509
f 456 509 508
f 458 460 510
f 458 510 509
f 460 462 511
f 460 511 510
f 462 464 512
f 462 512 511
f 464 466 513
f 464 513 512
f 466 468 514
f 466 514 513
f 438 499 514
f 438 514 468
f 469 515 516
f 469 516 470
f 469 471 517
f 469 517 515
f 470 516 518
f 470 518 472
f 472 518 519
f 472 519 473
f 473 519 520
f 473 520 474
f 474 520 521
f 474 521 475
f 475 521 522
f 475 522 476
f 476 522 523
f 476 523 477
f 477 523 524
f 477 524 478
f 478 524 525
f 478 525 479
f 479 525 526
f 479 526 480
f 480 526 527
f 480 527 481
f 481 527 528
f 481 528 482
f 482 528 529
f 482 529 483
f 483 529 530
f 483 530 484
f 484 530 531
f 484 531 485
f 471 486 532
f 471 532 517
f 485 531 533
f 485 533 487
f 486 488 534
f 486 534 532
f 487 533 535
f 487 535 489
f 488 490 536
f 488 536 534
f 489 535 537
f 489 537 491
f 490 492 538
f 490 538 536
f 491 537 539
f 491 539 493
f 492 494 540
f 492 540 538
f 493 539 541
f 493 541 495
f 494 496 542
f 494 542 540
f 495 541 543
f 495 543 497
f 496 498 544
f 496 544 542
f 497 543 545
f 497 545 499
f 498 501 546
f 498 546 544
f 499 545 547
f 499 547 514
f 501 548 549
f 501 549 500
f 548 549 550
f 548 550 551
f 501 548 551
f 501 551 546
f 500 549 552
f 500 552 502
f 549 552 553
f 549 553 550
f 502 552 554
f 502 554 503
f 552 554 555
f 552 555 553
f 503 554 556
f 503 556 504
f 554 556 557
f 554 557 555
f 504 556 558
f 504 558 505
f 556 558 559
f 556 559 557
f 505 558 560
f 505 560 506
f 558 560 561
f 558 561 559
f 506 560 562
f 506 562 507
f 560 562 563
f 560 563 561
f 507 562 564
f 507 564 508
f 562 564 565
f 562 565 563
f 508 564 566
f 508 566 509
f 564 566 567
f 564 567 565
f 509 566 568
f 509 568 510
f 566 568 569
f 566 569 567
f 510 568 570
f 510 570 511
f 568 570 571
f 568 571 569
f 511 570 572
f 511 572 512
f 570 572 573
f 570 573 571
f 512 572 574
f 512 574 513
f 572 574 575
f 572 575 573
f 513 574 576
f 513 576 514
f 574 576 577
f 574 577 575
f 514 547 577
f 514 577 576
f 515 578 579
f 515 579 516
f 515 517 580
f 515 580 578
f 516 579 581
f 516 581 518
f 518 581 582
f 518 582 519
f 519 582 583
f 519 583 520
f 520 583 584
f 520 584 521
f 521 584 585
f 521 585 522
f 522 585 586
f 522 586 523
f 523 586 587
f 523 587 524
f 524 587 588
f 524 588 525
f 525 588 589
f 525 589 526
f 526 589 590
f 526 590 527
f 527 590 591
f 527 591 528
f 528 591 592
f 528 592 529
f 529 592 593
f 529 593 530
f 530 593 594
f 530 594 531
f 517 532 595
f 517 595 580
f 531 594 596
f 531 596 533
f 532 534 597
f 532 597 595
f 533 596 598
f 533 598 535
f 534 536 599
f 534 599 597
f 535 598 600
f 535 600 537
f 536 538 601
f 536 601 599
f 537 600 602
f 537 602 539
f 538 540 603
f 538 603 601
f 539 602 604
f 539 604 541
f 540 542 605
f 540 605 603
f 541 604 606
f 541 606 543
f 542 544 607
f 542 607 605
f 543 606 608
f 543 608 545
f 544 546 609
f 544 609 607
f 545 608 610
f 545 610 547
f 546 551 611
f 546 611 609
f 547 610 612
f 547 612 577
f 551 613 614
f 551 614 550
f 613 614 615
f 613 615 616
f 551 613 616
f 551 616 611
f 550 614 617
f 550 617 553
f 614 617 618
f 614 618 615
f 553 617 619
f 553 619 555
f 617 619 620
f 617 620 618
f 555 619 621
f 555 621 557
f 619 621 622
f 619 622 620
f 557 621 623
f 557 623 559
f 621 623 624
f 621 624 622
f 559 623 625
f 559 625 561
f 623 625 626
f 623 626 624
f 561 625 627
f 561 627 563
f 625 627 628
f 625 628 626
f 563 627 629
f 563 629 565
f 627 629 630
f 627 630 628
f 565 629 631
f 565 631 567
f 629 631 632
f 629 632 630
f 567 631 633
f 567 633 569
f 631 633 634
f 631 634 632
f 569 633 635
f 569 635 571
f 633 635 636
f 633 636 634
f 571 635 637
f 571 637 573
f 635 637 638
f 635 638 636
f 573 637 639
f 573 639 575
f 637 639 640
f 637 640 638
f 575 639 641
f 575 641 577
f 639 641 642
f 639 642 640
f 577 612 642
f 577 642 641
f 578 643 644
f 578 644 579
f 578 580 645
f 578 645 643
f 579 644 646
f 579 646 581
f 581 646 647
f 581 647 582
f 582 647 648
f 582 648 583
f 583 648 649
f 583 649 584
f 584 649 650
f 584 650 585
f 585 650 651
f 585 651 586
f 586 651 652
f 586 652 587
f 587 652 653
f 587 653 588
f 588 653 654
f 588 654 589
f 589 654 655
f 589 655 590
f 590 655 656
f 590 656 591
f 591 656 657
f 591 657 592
f 592 657 658
f 592 658 593
f 593 658 659
f 593 659 594
f 580 595 660
f 580 660 645
f 594 659 661
f 594 661 596
f 595 597 662
f 595 662 660
f 596 661 663
f 596 663 598
f 597 599 664
f 597 664 662
f 598 663 665
f 598 665 600
f 599 601 666
f 599 666 664
f 600 665 667
f 600 667 602
f 601 603 668
f 601 668 666
f 602 667 669
f 602 669 604
f 603 605 670
f 603 670 668
f 604 669 671
f 604 671 606
f 605 607 672
f 605 672 670
f 606 671 673
f 606 673 608
f 607 609 674
f 607 674 672
f 608 673 675
f 608 675 610
f 609 611 676
f 609 676 674
f 610 675 677
f 610 677 612
f 611 616 678
f 611 678 676
f 612 677 679
f 612 679 642
f 616 680 681
f 616 681 615
f 680 681 682
f 680 682 683
f 616 680 683
f 616 683 678
f 615 681 684
f 615 684 618
f 681 684 685
f 681 685 682
f 618 684 686
f 618 686 620
f 684 686 687
f 684 687 685
f 620 686 688
f 620 688 622
f 686 688 689
f 686 689 687
f 622 688 690
f 622 690 624
f 688 690 691
f 688 691 689
f 624 690 692
f 624 692 626
f 690 692 693
f 690 693 691
f 626 692 694
f 626 694 628
f 692 694 695
f 692 695 693
f 628 694 696
f 628 696 630
f 694 696 697
f 694 697 695
f 630 696 698
f 630 698 632
f 696 698 699
f 696 699 697
f 632 698 700
f 632 700 634
f 698 700 701
f 698 701 699
f 634 700 702
f 634 702 636
f 700 702 703
f 700 703 701
f 636 702 704
f 636 704 638
f 702 704 705
f 702 705 703
f 638 704 706
f 638 706 640
f 704 706 707
f 704 707 705
f 640 706 708
f 640 708 642
f 706 708 709
f 706 709 707
f 642 679 709
f 642 709 708
f 643 710 711
f 643 711 644
f 643 645 712
f 643 712 710
f 644 711 713
f 644 713 646
f 646 713 714
f 646 714 647
f 647 714 715
f 647 715 648
f 648 715 716
f 648 716 649
f 649 716 717
f 649 717 650
f 650 717 718
f 650 718 651
f 651 718 719
f 651 719 652
f 652 719 720
f 652 720 653
f 653 720 721
f 653 721 654
f 654 721 722
f 654 722 655
f 655 722 723
f 655 723 656
f 656 723 724
f 656 724 657
f 657 724 725
f 657 725 658
f 658 725 726
f 658 726 659
f 645 660 727
f 645 727 712
f 659 726 728
f 659 728 661
f 660 662 729
f 660 729 727
f 661 728 730
f 661 730 663
f 662 664 731
f 662 731 729
f 663 730 732
f 663 732 665
f 664 666 733
f 664 733 731
f 665 732 734
f 665 734 667
f 666 668 735
f 666 735 733
f 667 734 736
f 667 736 669
f 668 670 737
f 668 737 735
f 669 736 738
f 669 738 671
f 670 672 739
f 670 739 737
f 671 738 740
f 671 740 673
f 672 674 741
f 672 741 739
f 673 740 742
f 673 742 675
f 674 676 743
f 674 743 741
f 675 742 744
f 675 744 677
f 676 678 745
f 676 745 743
f 677 744 746
f 677 746 679
f 678 683 747
f 678 747 745
f 679 746 748
f 679 748 709
f 683 749 750
f 683 750 682
f 749 750 751
f 749 751 752
f 683 749 752
f 683 752 747
f 682 750 753
f 682 753 685
f 750 753 754
f 750 754 751
f 685 753 755
f 685 755 687
f 753 755 756
f 753 756 754
f 687 755 757
f 687 757 689
f 755 757 758
f 755 758 756
f 689 757 759
f 689 759 691
f 757 759 760
f 757 760 758
f 691 759 761
f 691 761 693
f 759 761 762
f 759 762 760
f 693 761 763
f 693 763 695
f 761 763 764
f 761 764 762
f 695 763 765
f 695 765 697
f 763 765 766
f 763 766 764
f 697 765 767
f 697 767 699
f 765 767 768
f 765 768 766
f 699 767 769
f 699 769 701
f 767 769 770
f 767 770 768
f 701 769 771
f 701 771 703
f 769 771 772
f 769 772 770
f 703 771 773
f 703 773 705
f 771 773 774
f 771 774 772
f 705 773 775
f 705 775 707
f 773 775 776
f 773 776 774
f 707 775 777
f 707 777 709
f 775 777 778
f 775 778 776
f 709 748 778
f 709 778 777
f 710 779 780
f 710 780 711
f 710 712 781
f 710 781 779
f 711 780 782
f 711 782 713
f 713 782 783
f 713 783 714
f 714 783 784
f 714 784 715
f 715 784 785
f 715 785 716
f 716 785 786
f 716 786 717
f 717 786 787
f 717 787 718
f 718 787 788
f 718 788 719
f 719 788 789
f 719 789 720
f 720 789 790
f 720 790 721
f 721 790 791
f 721 791 722
f 722 791 792
f 722 792 723
f 723 792 793
f 723 793 724
f 724 793 794
f 724 794 725
f 725 794 795
f 725 795 726
f 712 727 796
f 712 796 781
f 726 795 797
f 726 797 728
f 727 729 798
f 727 798 796
f 728 797 799
f 728 799 730
f 729 731 800
f 729 800 798
f 730 799 801
f 730 801 732
f 731 733 802
f 731 802 800
f 732 801 803
f 732 803 734
f 733 735 804
f 733 804 802
f 734 803 805
f 734 805 736
f 735 737 806
f 735 806 804
f 736 805 807
f 736 807 738
f 737 739 808
f 737 808 806
f 738 807 809
f 738 809 740
f 739 741 810
f 739 810 808
f 740 809 811
f 740 811 742
f 741 743 812
f 741 812 810
f 742 811 813
f 742 813 744
f 743 745 814
f 743 814 812
f 744 813 815
f 744 815 746
f 745 747 816
f 745 816 814
f 746 815 817
f 746 817 748
f 752 751 818
f 752 818 819
f 747 752 819
f 747 819 816
f 751 754 820
f 751 820 818
f 754 756 821
f 754 821 820
f 756 758 822
f 756 822 821
f 758 760 823
f 758 823 822
f 760 762 824
f 760 824 823
f 762 764 825
f 762 825 824
f 764 766 826
f 764 826 825
f 766 768 827
f 766 827 826
f 768 770 828
f 768 828 827
f 770 772 829
f 770 829 828
f 772 774 830
f 772 830 829
f 774 776 831
f 774 831 830
f 776 778 832
f 776 832 831
f 748 817 832
f 748 832 778
f 779 833 834
f 779 834 780
f 779 781 835
f 779 835 833
f 780 834 836
f 780 836 782
f 782 836 837
f 782 837 783
f 783 837 838
f 783 838 784
f 784 838 839
f 784 839 785
f 785 839 840
f 785 840 786
f 786 840 841
f 786 841 787
f 787 841 842
f 787 842 788
f 788 842 843
f 788 843 789
f 789 843 844
f 789 844 790
f 790 844 845
f 790 845 791
f 791 845 846
f 791 846 792
f 792 846 847
f 792 847 793
f 793 847 848
f 793 848 794
f 794 848 849
f 794 849 795
f 781 796 850
f 781 850 835
f 795 849 851
f 795 851 797
f 796 798 852
f 796 852 850
f 797 851 853
f 797 853 799
f 798 800 854
f 798 854 852
f 799 853 855
f 799 855 801
f 800 802 856
f 800 856 854
f 801 855 857
f 801 857 803
f 802 804 858
f 802 858 856
f 803 857 859
f 803 859 805
f 804 806 860
f 804 860 858
f 805 859 861
f 805 861 807
f 806 808 862
f 806 862 860
f 807 861 863
f 807 863 809
f 808 810 864
f 808 864 862
f 809 863 865
f 809 865 811
f 810 812 866
f 810 866 864
f 811 865 867
f 811 867 813
f 812 814 868
f 812 868 866
f 813 867 869
f 813 869 815
f 814 816 870
f 814 870 868
f 815 869 871
f 815 871 817
f 816 819 872
f 816 872 870
f 817 871 873
f 817 873 832
f 819 874 875
f 819 875 818
f 874 875 876
f 874 876 877
f 819 874 877
f 819 877 872
f 818 875 878
f 818 878 820
f 875 878 879
f 875 879 876
f 820 878 880
f 820 880 821
f 878 880 881
f 878 881 879
f 821 880 882
f 821 882 822
f 880 882 883
f 880 883 881
f 822 882 884
f 822 884 823
f 882 884 885
f 882 885 883
f 823 884 886
f 823 886 824
f 884 886 887
f 884 887 885
f 824 886 888
f 824 888 825
f 886 888 889
f 886 889 887
f 825 888 890
f 825 890 826
f 888 890 891
f 888 891 889
f 826 890 892
f 826 892 827
f 890 892 893
f 890 893 891
f 827 892 894
f 827 894 828
f 892 894 895
f 892 895 893
f 828 894 896
f 828 896 829
f 894 896 897
f 894 897 895
f 829 896 898
f 829 898 830
f 896 898 899
f 896 899 897
f 830 898 900
f 830 900 831
f 898 900 901
f 898 901 899
f 831 900 902
f 831 902 832
f 900 902 903
f 900 903 901
f 832 873 903
f 832 903 902
f 904 905 906
f 904 906 907
f 833 904 905
f 833 905 834
f 833 835 907
f 833 907 904
f 905 908 909
f 905 909 906
f 834 905 908
f 834 908 836
f 908 910 911
f 908 911 909
f 836 908 910
f 836 910 837
f 910 912 913
f 910 913 911
f 837 910 912
f 837 912 838
f 912 914 915
f 912 915 913
f 838 912 914
f 838 914 839
f 914 916 917
f 914 917 915
f 839 914 916
f 839 916 840
f 916 918 919
f 916 919 917
f 840 916 918
f 840 918 841
f 918 920 921
f 918 921 919
f 841 918 920
f 841 920 842
f 920 922 923
f 920 923 921
f 842 920 922
f 842 922 843
f 922 924 925
f 922 925 923
f 843 922 924
f 843 924 844
f 924 926 927
f 924 927 925
f 844 924 926
f 844 926 845
f 926 928 929
f 926 929 927
f 845 926 928
f 845 928 846
f 928 930 931
f 928 931 929
f 846 928 930
f 846 930 847
f 930 932 933
f 930 933 931
f 847 930 932
f 847 932 848
f 848 932 933
f 848 933 849
f 907 906 934
f 907 934 935
f 835 850 935
f 835 935 907
f 906 909 936
f 906 936 934
f 909 911 937
f 909 937 936
f 911 913 938
f 911 938 937
f 913 915 939
f 913 939 938
f 915 917 940
f 915 940 939
f 917 919 941
f 917 941 940
f 919 921 942
f 919 942 941
f 921 923 943
f 921 943 942
f 923 925 944
f 923 944 943
f 925 927 945
f 925 945 944
f 927 929 946
f 927 946 945
f 929 931 947
f 929 947 946
f 931 933 948
f 931 948 947
f 849 933 948
f 849 948 851
f 935 934 949
f 935 949 950
f 850 852 950
f 850 950 935
f 934 936 951
f 934 951 949
f 936 937 952
f 936 952 951
f 937 938 953
f 937 953 952
f 938 939 954
f 938 954 953
f 939 940 955
f 939 955 954
f 940 941 956
f 940 956 955
f 941 942 957
f 941 957 956
f 942 943 958
f 942 958 957
f 943 944 959
f 943 959 958
f 944 945 960
f 944 960 959
f 945 946 961
f 945 961 960
f 946 947 962
f 946 962 961
f 947 948 963
f 947 963 962
f 851 948 963
f 851 963 853
f 950 949 964
f 950 964 965
f 852 854 965
f 852 965 950
f 949 951 966
f 949 966 964
f 951 952 967
f 951 967 966
f 952 953 968
f 952 968 967
f 953 954 969
f 953 969 968
f 954 955 970
f 954 970 969
f 955 956 971
f 955 971 970
f 956 957 972
f 956 972 971
f 957 958 973
f 957 973 972
f 958 959 974
f 958 974 973
f 959 960 975
f 959 975 974
f 960 961 976
f 960 976 975
f 961 962 977
f 961 977 976
f 962 963 978
f 962 978 977
f 853 963 978
f 853 978 855
f 965 964 979
f 965 979 980
f 854 856 980
f 854 980 965
f 964 966 981
f 964 981 979
f 966 967 982
f 966 982 981
f 967 968 983
f 967 983 982
f 968 969 984
f 968 984 983
f 969 970 985
f 969 985 984
f 970 971 986
f 970 986 985
f 971 972 987
f 971 987 986
f 972 973 988
f 972 988 987
f 973 974 989
f 973 989 988
f 974 975 990
f 974 990 989
f 975 976 991
f 975 991 990
f 976 977 992
f 976 992 991
f 977 978 993
f 977 993 992
f 855 978 993
f 855 993 857
f 980 979 994
f 980 994 995
f 856 858 995
f 856 995 980
f 979 981 996
f 979 996 994
f 981 982 997
f 981 997 996
f 982 983 998
f 982 998 997
f 983 984 999
f 983 999 998
f 984 985 1000
f 984 1000 999
f 985 986 1001
f 985 1001 1000
f 986 987 1002
f 986 1002 1001
f 987 988 1003
f 987 1003 1002
f 988 989 1004
f 988 1004 1003
f 989 990 1005
f 989 1005 1004
f 990 991 1006
f 990 1006 1005
f 991 992 1007
f 991 1007 1006
f 992 993 1008
f 992 1008 1007
f 857 993 1008
f 857 1008 859
f 995 994 1009
f 995 1009 1010
f 858 860 1010
f 858 1010 995
f 994 996 1011
f 994 1011 1009
f 996 997 1012
f 996 1012 1011
f 997 998 1013
f 997 1013 1012
f 998 999 1014
f 998 1014 1013
f 999 1000 1015
f 999 1015 1014
f 1000 1001 1016
f 1000 1016 1015
f 1001 1002 1017
f 1001 1017 1016
f 1002 1003 1018
f 1002 1018 1017
f 1003 1004 1019
f 1003 1019 1018
f 1004 1005 1020
f 1004 1020 1019
f 1005 1006 1021
f 1005 1021 1020
f 1006 1007 1022
f 1006 1022 1021
f 1007 1008 1023
f 1007 1023 1022
f 859 1008 1023
f 859 1023 861
f 1010 1009 1024
f 1010 1024 1025
f 860 862 1025
f 860 1025 1010
f 1009 1011 1026
f 1009 1026 1024
f 1011 1012 1027
f 1011 1027 1026
f 1012 1013 1028
f 1012 1028 1027
f 1013 1014 1029
f 1013 1029 1028
f 1014 1015 1030
f 1014 1030 1029
f 1015 1016 1031
f 1015 1031 1030
f 1016 1017 1032
f 1016 1032 1031
f 1017 1018 1033
f 1017 1033 1032
f 1018 1019 1034
f 1018 1034 1033
f 1019 1020 1035
f 1019 1035 1034
f 1020 1021 1036
f 1020 1036 1035
f 1021 1022 1037
f 1021 1037 1036
f 1022 1023 1038
f 1022 1038 1037
f 861 1023 1038
f 861 1038 863
f 1025 1024 1039
f 1025 1039 1040
f 862 864 1040
f 862 1040 1025
f 1024 1026 1041
f 1024 1041 1039
f 1026 1027 1042
f 1026 1042 1041
f 1027 1028 1043
f 1027 1043 1042
f 1028 1029 1044
f 1028 1044 1043
f 1029 1030 1045
f 1029 1045 1044
f 1030 1031 1046
f 1030 1046 1045
f 1031 1032 1047
f 1031 1047 1046
f 1032 1033 1048
f 1032 1048 1047
f 1033 1034 1049
f 1033 1049 1048
f 1034 1035 1050
f 1034 1050 1049
f 1035 1036 1051
f 1035 1051 1050
f 1036 1037 1052
f 1036 1052 1051
f 1037 1038 1053
f 1037 1053 1052
f 863 1038 1053
f 863 1053 865
f 1040 1039 1054
f 1040 1054 1055
f 864 866 1055
f 864 1055 1040
f 1039 1041 1056
f 1039 1056 1054
f 1041 1042 1057
f 1041 1057 1056
f 1042 1043 1058
f 1042 1058 1057
f 1043 1044 1059
f 1043 1059 1058
f 1044 1045 1060
f 1044 1060 1059
f 1045 1046 1061
f 1045 1061 1060
f 1046 1047 1062
f 1046 1062 1061
f 1047 1048 1063
f 1047 1063 1062
f 1048 1049 1064
f 1048 1064 1063
f 1049 1050 1065
f 1049 1065 1064
f 1050 1051 1066
f 1050 1066 1065
f 1051 1052 1067
f 1051 1067 1066
f 1052 1053 1068
f 1052 1068 1067
f 865 1053 1068
f 865 1068 867
f 1055 1054 1069
f 1055 1069 1070
f 866 868 1070
f 866 1070 1055
f 1054 1056 1071
f 1054 1071 1069
f 1056 1057 1072
f 1056 1072 1071
f 1057 1058 1073
f 1057 1073 1072
f 1058 1059 1074
f 1058 1074 1073
f 1059 1060 1075
f 1059 1075 1074
f 1060 1061 1076
f 1060 1076 1075
f 1061 1062 1077
f 1061 1077 1076
f 1062 1063 1078
f 1062 1078 1077
f 1063 1064 1079
f 1063 1079 1078
f 1064 1065 1080
f 1064 1080 1079
f 1065 1066 1081
f 1065 1081 1080
f 1066 1067 1082
f 1066 1082 1081
f 1067 1068 1083
f 1067 1083 1082
f 867 1068 1083
f 867 1083 869
f 1070 1069 1084
f 1070 1084 1085
f 868 870 1085
f 868 1085 1070
f 1069 1071 1086
f 1069 1086 1084
f 1071 1072 1087
f 1071 1087 1086
f 1072 1073 1088
f 1072 1088 1087
f 1073 1074 1089
f 1073 1089 1088
f 1074 1075 1090
f 1074 1090 1089
f 1075 1076 1091
f 1075 1091 1090
f 1076 1077 1092
f 1076 1092 1091
f 1077 1078 1093
f 1077 1093 1092
f 1078 1079 1094
f 1078 1094 1093
f 1079 1080 1095
f 1079 1095 1094
f 1080 1081 1096
f 1080 1096 1095
f 1081 1082 1097
f 1081 1097 1096
f 1082 1083 1098
f 1082 1098 1097
f 869 1083 1098
f 869 1098 871
f 1085 1084 1099
f 1085 1099 1100
f 870 872 1100
f 870 1100 1085
f 1084 1086 1101
f 1084 1101 1099
f 1086 1087 1102
f 1086 1102 1101
f 1087 1088 1103
f 1087 1103 1102
f 1088 1089 1104
f 1088 1104 1103
f 1089 1090 1105
f 1089 1105 1104
f 1090 1091 1106
f 1090 1106 1105
f 1091 1092 1107
f 1091 1107 1106
f 1092 1093 1108
f 1092 1108 1107
f 1093 1094 1109
f 1093 1109 1108
f 1094 1095 1110
f 1094 1110 1109
f 1095 1096 1111
f 1095 1111 1110
f 1096 1097 1112
f 1096 1112 1111
f 1097 1098 1113
f 1097 1113 1112
f 871 1098 1113
f 871 1113 873
f 1100 1099 1114
f 1100 1114 1115
f 872 877 1115
f 872 1115 1100
f 1099 1101 1116
f 1099 1116 1114
f 1101 1102 1117
f 1101 1117 1116
f 1102 1103 1118
f 1102 1118 1117
f 1103 1104 1119
f 1103 1119 1118
f 1104 1105 1120
f 1104 1120 1119
f 1105 1106 1121
f 1105 1121 1120
f 1106 1107 1122
f 1106 1122 1121
f 1107 1108 1123
f 1107 1123 1122
f 1108 1109 1124
f 1108 1124 1123
f 1109 1110 1125
f 1109 1125 1124
f 1110 1111 1126
f 1110 1126 1125
f 1111 1112 1127
f 1111 1127 1126
f 1112 1113 1128
f 1112 1128 1127
f 873 1113 1128
f 873 1128 903
f 877 1129 1130
f 877 1130 876
f 1115 1114 1131
f 1115 1131 1132
f 1129 1130 1131
f 1129 1131 1132
f 877 1129 1132
f 877 1132 1115
f 876 1130 1133
f 876 1133 879
f 1114 1116 1134
f 1114 1134 1131
f 1130 1133 1134
f 1130 1134 1131
f 879 1133 1135
f 879 1135 881
f 1116 1117 1136
f 1116 1136 1134
f 1133 1135 1136
f 1133 1136 1134
f 881 1135 1137
f 881 1137 883
f 1117 1118 1138
f 1117 1138 1136
f 1135 1137 1138
f 1135 1138 1136
f 883 1137 1139
f 883 1139 885
f 1118 1119 1140
f 1118 1140 1138
f 1137 1139 1140
f 1137 1140 1138
f 885 1139 1141
f 885 1141 887
f 1119 1120 1142
f 1119 1142 1140
f 1139 1141 1142
f 1139 1142 1140
f 887 1141 1143
f 887 1143 889
f 1120 1121 1144
f 1120 1144 1142
f 1141 1143 1144
f 1141 1144 1142
f 889 1143 1145
f 889 1145 891
f 1121 1122 1146
f 1121 1146 1144
f 1143 1145 1146
f 1143 1146 1144
f 891 1145 1147
f 891 1147 893
f 1122 1123 1148
f 1122 1148 1146
f 1145 1147 1148
f 1145 1148 1146
f 893 1147 1149
f 893 1149 895
f 1123 1124 1150
f 1123 1150 1148
f 1147 1149 1150
f 1147 1150 1148
f 895 1149 1151
f 895 1151 897
f 1124 1125 1152
f 1124 1152 1150
f 1149 1151 1152
f 1149 1152 1150
f 897 1151 1153
f 897 1153 899
f 1125 1126 1154
f 1125 1154 1152
f 1151 1153 1154
f 1151 1154 1152
f 899 1153 1155
f 899 1155 901
f 1126 1127 1156
f 1126 1156 1154
f 1153 1155 1156
f 1153 1156 1154
f 901 1155 1157
f 901 1157 903
f 1127 1128 1158
f 1127 1158 1156
f 1155 1157 1158
f 1155 1158 1156
f 903 1128 1158
f 903 1158 1157
