o [4B] 3D Diagram - S2-07 Group B_476
v -19.460000 -14.680000 0.082500
v -19.460000 -14.200000 0.082500
v -19.460000 -14.200000 0.285000
v -19.460000 -14.680000 0.285000
v -19.077500 -14.680000 0.082500
v -19.077500 -14.680000 0.285000
v -19.077500 -14.200000 0.082500
v -19.460000 -14.200000 0.487500
v -19.460000 -14.680000 0.487500
v -19.077500 -14.680000 0.487500
v -19.460000 -14.200000 0.690000
v -19.460000 -14.680000 0.690000
v -19.077500 -14.680000 0.690000
v -19.460000 -14.200000 0.892500
v -19.460000 -14.680000 0.892500
v -19.077500 -14.680000 0.892500
v -19.460000 -14.200000 1.095000
v -19.460000 -14.680000 1.095000
v -19.077500 -14.680000 1.095000
v -19.460000 -14.200000 1.297500
v -19.460000 -14.680000 1.297500
v -19.077500 -14.680000 1.297500
v -19.460000 -14.200000 1.500000
v -19.460000 -14.680000 1.500000
v -19.077500 -14.680000 1.500000
v -19.460000 -14.200000 1.702500
v -19.460000 -14.680000 1.702500
v -19.077500 -14.680000 1.702500
v -19.460000 -14.200000 1.905000
v -19.460000 -14.680000 1.905000
v -19.077500 -14.680000 1.905000
v -19.460000 -14.200000 2.107500
v -19.460000 -14.680000 2.107500
v -19.077500 -14.680000 2.107500
v -19.460000 -14.200000 2.310000
v -19.460000 -14.680000 2.310000
v -19.077500 -14.680000 2.310000
v -19.460000 -14.200000 2.512500
v -19.460000 -14.680000 2.512500
v -19.077500 -14.680000 2.512500
v -19.460000 -14.200000 2.715000
v -19.460000 -14.680000 2.715000
v -19.077500 -14.680000 2.715000
v -19.460000 -14.200000 2.917500
v -19.460000 -14.680000 2.917500
v -19.077500 -14.680000 2.917500
v -19.077500 -14.200000 2.917500
v -19.460000 -13.720000 0.082500
v -19.460000 -13.720000 0.285000
v -19.077500 -13.720000 0.082500
v -19.460000 -13.720000 0.487500
v -19.460000 -13.720000 0.690000
v -19.460000 -13.720000 0.892500
v -19.460000 -13.720000 1.095000
v -19.460000 -13.720000 1.297500
v -19.460000 -13.720000 1.500000
v -19.460000 -13.720000 1.702500
v -19.460000 -13.720000 1.905000
v -19.460000 -13.720000 2.107500
v -19.460000 -13.720000 2.310000
v -19.460000 -13.720000 2.512500
v -19.460000 -13.720000 2.715000
v -19.460000 -13.720000 2.917500
v -19.077500 -13.720000 2.917500
v -19.460000 -13.240000 0.082500
v -19.460000 -13.240000 0.285000
v -19.077500 -13.240000 0.285000
v -19.077500 -13.240000 0.082500
v -19.460000 -13.240000 0.487500
v -19.077500 -13.240000 0.487500
v -19.460000 -13.240000 0.690000
v -19.077500 -13.240000 0.690000
v -19.460000 -13.240000 0.892500
v -19.077500 -13.240000 0.892500
v -19.460000 -13.240000 1.095000
v -19.077500 -13.240000 1.095000
v -19.460000 -13.240000 1.297500
v -19.077500 -13.240000 1.297500
v -19.460000 -13.240000 1.500000
v -19.077500 -13.240000 1.500000
v -19.460000 -13.240000 1.702500
v -19.077500 -13.240000 1.702500
v -19.460000 -13.240000 1.905000
v -19.077500 -13.240000 1.905000
v -19.460000 -13.240000 2.107500
v -19.077500 -13.240000 2.107500
v -19.460000 -13.240000 2.310000
v -19.077500 -13.240000 2.310000
v -19.460000 -13.240000 2.512500
v -19.077500 -13.240000 2.512500
v -19.460000 -13.240000 2.715000
v -19.077500 -13.240000 2.715000
v -19.460000 -13.240000 2.917500
v -19.077500 -13.240000 2.917500
v -19.077500 -15.160000 0.082500
v -19.077500 -15.160000 0.285000
v -18.695000 -15.160000 0.082500
v -18.695000 -15.160000 0.285000
v -18.695000 -14.680000 0.082500
v -19.077500 -15.160000 0.487500
v -18.695000 -15.160000 0.487500
v -19.077500 -15.160000 0.690000
v -18.695000 -15.160000 0.690000
v -19.077500 -15.160000 0.892500
v -18.695000 -15.160000 0.892500
v -19.077500 -15.160000 1.095000
v -18.695000 -15.160000 1.095000
v -19.077500 -15.160000 1.297500
v -18.695000 -15.160000 1.297500
v -19.077500 -15.160000 1.500000
v -18.695000 -15.160000 1.500000
v -19.077500 -15.160000 1.702500
v -18.695000 -15.160000 1.702500
v -19.077500 -15.160000 1.905000
v -18.695000 -15.160000 1.905000
v -19.077500 -15.160000 2.107500
v -18.695000 -15.160000 2.107500
v -19.077500 -15.160000 2.310000
v -18.695000 -15.160000 2.310000
v -19.077500 -15.160000 2.512500
v -18.695000 -15.160000 2.512500
v -19.077500 -15.160000 2.715000
v -18.695000 -15.160000 2.715000
v -19.077500 -15.160000 2.917500
v -18.695000 -15.160000 2.917500
v -18.695000 -14.680000 2.917500
v -18.695000 -14.200000 0.082500
v -18.695000 -14.200000 2.917500
v -18.695000 -13.720000 0.082500
v -18.695000 -13.720000 2.917500
v -18.695000 -13.240000 0.285000
v -18.695000 -13.240000 0.082500
v -18.695000 -13.240000 0.487500
v -18.695000 -13.240000 0.690000
v -18.695000 -13.240000 0.892500
v -18.695000 -13.240000 1.095000
v -18.695000 -13.240000 1.297500
v -18.695000 -13.240000 1.500000
v -18.695000 -13.240000 1.702500
v -18.695000 -13.240000 1.905000
v -18.695000 -13.240000 2.107500
v -18.695000 -13.240000 2.310000
v -18.695000 -13.240000 2.512500
v -18.695000 -13.240000 2.715000
v -18.695000 -13.240000 2.917500
v -18.695000 -15.640000 0.082500
v -18.695000 -15.640000 0.285000
v -18.312500 -15.640000 0.082500
v -18.312500 -15.640000 0.285000
v -18.312500 -15.160000 0.082500
v -18.695000 -15.640000 0.487500
v -18.312500 -15.640000 0.487500
v -18.695000 -15.640000 0.690000
v -18.312500 -15.640000 0.690000
v -18.695000 -15.640000 0.892500
v -18.312500 -15.640000 0.892500
v -18.695000 -15.640000 1.095000
v -18.312500 -15.640000 1.095000
v -18.695000 -15.640000 1.297500
v -18.312500 -15.640000 1.297500
v -18.695000 -15.640000 1.500000
v -18.312500 -15.640000 1.500000
v -18.695000 -15.640000 1.702500
v -18.312500 -15.640000 1.702500
v -18.695000 -15.640000 1.905000
v -18.312500 -15.640000 1.905000
v -18.695000 -15.640000 2.107500
v -18.312500 -15.640000 2.107500
v -18.695000 -15.640000 2.310000
v -18.312500 -15.640000 2.310000
v -18.695000 -15.640000 2.512500
v -18.312500 -15.640000 2.512500
v -18.695000 -15.640000 2.715000
v -18.312500 -15.640000 2.715000
v -18.695000 -15.640000 2.917500
v -18.312500 -15.640000 2.917500
v -18.312500 -15.160000 2.917500
v -18.312500 -14.680000 0.082500
v -18.312500 -14.680000 2.917500
v -18.312500 -14.200000 0.082500
v -18.312500 -14.200000 2.917500
v -18.312500 -13.720000 0.082500
v -18.312500 -13.720000 2.917500
v -18.312500 -13.240000 0.285000
v -18.312500 -13.240000 0.082500
v -18.312500 -13.240000 0.487500
v -18.312500 -13.240000 0.690000
v -18.312500 -13.240000 0.892500
v -18.312500 -13.240000 1.095000
v -18.312500 -13.240000 1.297500
v -18.312500 -13.240000 1.500000
v -18.312500 -13.240000 1.702500
v -18.312500 -13.240000 1.905000
v -18.312500 -13.240000 2.107500
v -18.312500 -13.240000 2.310000
v -18.312500 -13.240000 2.512500
v -18.312500 -13.240000 2.715000
v -18.312500 -13.240000 2.917500
v -17.930000 -15.640000 0.082500
v -17.930000 -15.640000 0.285000
v -17.930000 -15.160000 0.082500
v -17.930000 -15.640000 0.487500
v -17.930000 -15.640000 0.690000
v -17.930000 -15.640000 0.892500
v -17.930000 -15.640000 1.095000
v -17.930000 -15.640000 1.297500
v -17.930000 -15.640000 1.500000
v -17.930000 -15.640000 1.702500
v -17.930000 -15.640000 1.905000
v -17.930000 -15.640000 2.107500
v -17.930000 -15.640000 2.310000
v -17.930000 -15.640000 2.512500
v -17.930000 -15.640000 2.715000
v -17.930000 -15.640000 2.917500
v -17.930000 -15.160000 2.917500
v -17.930000 -14.680000 0.082500
v -17.930000 -14.680000 2.917500
v -17.930000 -14.200000 0.082500
v -17.930000 -14.200000 2.917500
v -17.930000 -13.720000 0.082500
v -17.930000 -13.720000 2.917500
v -17.930000 -13.240000 0.285000
v -17.930000 -13.240000 0.082500
v -17.930000 -13.240000 0.487500
v -17.930000 -13.240000 0.690000
v -17.930000 -13.240000 0.892500
v -17.930000 -13.240000 1.095000
v -17.930000 -13.240000 1.297500
v -17.930000 -13.240000 1.500000
v -17.930000 -13.240000 1.702500
v -17.930000 -13.240000 1.905000
v -17.930000 -13.240000 2.107500
v -17.930000 -13.240000 2.310000
v -17.930000 -13.240000 2.512500
v -17.930000 -13.240000 2.715000
v -17.930000 -13.240000 2.917500
v -17.930000 -16.120000 0.082500
v -17.930000 -16.120000 0.285000
v -17.547500 -16.120000 0.082500
v -17.547500 -16.120000 0.285000
v -17.547500 -15.640000 0.082500
v -17.930000 -16.120000 0.487500
v -17.547500 -16.120000 0.487500
v -17.930000 -16.120000 0.690000
v -17.547500 -16.120000 0.690000
v -17.930000 -16.120000 0.892500
v -17.547500 -16.120000 0.892500
v -17.930000 -16.120000 1.095000
v -17.547500 -16.120000 1.095000
v -17.930000 -16.120000 1.297500
v -17.547500 -16.120000 1.297500
v -17.930000 -16.120000 1.500000
v -17.547500 -16.120000 1.500000
v -17.930000 -16.120000 1.702500
v -17.547500 -16.120000 1.702500
v -17.930000 -16.120000 1.905000
v -17.547500 -16.120000 1.905000
v -17.930000 -16.120000 2.107500
v -17.547500 -16.120000 2.107500
v -17.930000 -16.120000 2.310000
v -17.547500 -16.120000 2.310000
v -17.930000 -16.120000 2.512500
v -17.547500 -16.120000 2.512500
v -17.930000 -16.120000 2.715000
v -17.547500 -16.120000 2.715000
v -17.930000 -16.120000 2.917500
v -17.547500 -16.120000 2.917500
v -17.547500 -15.640000 2.917500
v -17.547500 -15.160000 0.082500
v -17.547500 -15.160000 2.917500
v -17.547500 -14.680000 0.082500
v -17.547500 -14.680000 2.917500
v -17.547500 -14.200000 0.082500
v -17.547500 -14.200000 2.917500
v -17.547500 -13.720000 0.082500
v -17.547500 -13.720000 2.917500
v -17.547500 -13.240000 0.285000
v -17.547500 -13.240000 0.082500
v -17.547500 -13.240000 0.487500
v -17.547500 -13.240000 0.690000
v -17.547500 -13.240000 0.892500
v -17.547500 -13.240000 1.095000
v -17.547500 -13.240000 1.297500
v -17.547500 -13.240000 1.500000
v -17.547500 -13.240000 1.702500
v -17.547500 -13.240000 1.905000
v -17.547500 -13.240000 2.107500
v -17.547500 -13.240000 2.310000
v -17.547500 -13.240000 2.512500
v -17.547500 -13.240000 2.715000
v -17.547500 -13.240000 2.917500
v -17.547500 -16.600000 0.082500
v -17.547500 -16.600000 0.285000
v -17.165000 -16.600000 0.082500
v -17.165000 -16.600000 0.285000
v -17.165000 -16.120000 0.082500
v -17.547500 -16.600000 0.487500
v -17.165000 -16.600000 0.487500
v -17.547500 -16.600000 0.690000
v -17.165000 -16.600000 0.690000
v -17.547500 -16.600000 0.892500
v -17.165000 -16.600000 0.892500
v -17.547500 -16.600000 1.095000
v -17.165000 -16.600000 1.095000
v -17.547500 -16.600000 1.297500
v -17.165000 -16.600000 1.297500
v -17.547500 -16.600000 1.500000
v -17.165000 -16.600000 1.500000
v -17.547500 -16.600000 1.702500
v -17.165000 -16.600000 1.702500
v -17.547500 -16.600000 1.905000
v -17.165000 -16.600000 1.905000
v -17.547500 -16.600000 2.107500
v -17.165000 -16.600000 2.107500
v -17.547500 -16.600000 2.310000
v -17.165000 -16.600000 2.310000
v -17.547500 -16.600000 2.512500
v -17.165000 -16.600000 2.512500
v -17.547500 -16.600000 2.715000
v -17.165000 -16.600000 2.715000
v -17.547500 -16.600000 2.917500
v -17.165000 -16.600000 2.917500
v -17.165000 -16.120000 2.917500
v -17.165000 -15.640000 0.082500
v -17.165000 -15.640000 2.917500
v -17.165000 -15.160000 0.082500
v -17.165000 -15.160000 2.917500
v -17.165000 -14.680000 0.082500
v -17.165000 -14.680000 2.917500
v -17.165000 -14.200000 0.082500
v -17.165000 -14.200000 2.917500
v -17.165000 -13.720000 0.082500
v -17.165000 -13.720000 2.917500
v -17.165000 -13.240000 0.285000
v -17.165000 -13.240000 0.082500
v -17.165000 -13.240000 0.487500
v -17.165000 -13.240000 0.690000
v -17.165000 -13.240000 0.892500
v -17.165000 -13.240000 1.095000
v -17.165000 -13.240000 1.297500
v -17.165000 -13.240000 1.500000
v -17.165000 -13.240000 1.702500
v -17.165000 -13.240000 1.905000
v -17.165000 -13.240000 2.107500
v -17.165000 -13.240000 2.310000
v -17.165000 -13.240000 2.512500
v -17.165000 -13.240000 2.715000
v -17.165000 -13.240000 2.917500
v -17.165000 -17.080000 0.082500
v -17.165000 -17.080000 0.285000
v -16.782500 -17.080000 0.082500
v -16.782500 -17.080000 0.285000
v -16.782500 -16.600000 0.082500
v -17.165000 -17.080000 0.487500
v -16.782500 -17.080000 0.487500
v -17.165000 -17.080000 0.690000
v -16.782500 -17.080000 0.690000
v -17.165000 -17.080000 0.892500
v -16.782500 -17.080000 0.892500
v -17.165000 -17.080000 1.095000
v -16.782500 -17.080000 1.095000
v -17.165000 -17.080000 1.297500
v -16.782500 -17.080000 1.297500
v -17.165000 -17.080000 1.500000
v -16.782500 -17.080000 1.500000
v -17.165000 -17.080000 1.702500
v -16.782500 -17.080000 1.702500
v -17.165000 -17.080000 1.905000
v -16.782500 -17.080000 1.905000
v -17.165000 -17.080000 2.107500
v -16.782500 -17.080000 2.107500
v -17.165000 -17.080000 2.310000
v -16.782500 -17.080000 2.310000
v -17.165000 -17.080000 2.512500
v -16.782500 -17.080000 2.512500
v -17.165000 -17.080000 2.715000
v -16.782500 -17.080000 2.715000
v -17.165000 -17.080000 2.917500
v -16.782500 -17.080000 2.917500
v -16.782500 -16.600000 2.917500
v -16.782500 -16.120000 0.082500
v -16.782500 -16.120000 2.917500
v -16.782500 -15.640000 0.082500
v -16.782500 -15.640000 2.917500
v -16.782500 -15.160000 0.082500
v -16.782500 -15.160000 2.917500
v -16.782500 -14.680000 0.082500
v -16.782500 -14.680000 2.917500
v -16.782500 -14.200000 0.082500
v -16.782500 -14.200000 2.917500
v -16.782500 -13.720000 0.082500
v -16.782500 -13.720000 2.917500
v -16.782500 -13.240000 0.285000
v -16.782500 -13.240000 0.082500
v -16.782500 -13.240000 0.487500
v -16.782500 -13.240000 0.690000
v -16.782500 -13.240000 0.892500
v -16.782500 -13.240000 1.095000
v -16.782500 -13.240000 1.297500
v -16.782500 -13.240000 1.500000
v -16.782500 -13.240000 1.702500
v -16.782500 -13.240000 1.905000
v -16.782500 -13.240000 2.107500
v -16.782500 -13.240000 2.310000
v -16.782500 -13.240000 2.512500
v -16.782500 -13.240000 2.715000
v -16.782500 -13.240000 2.917500
v -16.782500 -17.560000 0.082500
v -16.782500 -17.560000 0.285000
v -16.400000 -17.560000 0.082500
v -16.400000 -17.560000 0.285000
v -16.400000 -17.080000 0.082500
v -16.782500 -17.560000 0.487500
v -16.400000 -17.560000 0.487500
v -16.782500 -17.560000 0.690000
v -16.400000 -17.560000 0.690000
v -16.782500 -17.560000 0.892500
v -16.400000 -17.560000 0.892500
v -16.782500 -17.560000 1.095000
v -16.400000 -17.560000 1.095000
v -16.782500 -17.560000 1.297500
v -16.400000 -17.560000 1.297500
v -16.782500 -17.560000 1.500000
v -16.400000 -17.560000 1.500000
v -16.782500 -17.560000 1.702500
v -16.400000 -17.560000 1.702500
v -16.782500 -17.560000 1.905000
v -16.400000 -17.560000 1.905000
v -16.782500 -17.560000 2.107500
v -16.400000 -17.560000 2.107500
v -16.782500 -17.560000 2.310000
v -16.400000 -17.560000 2.310000
v -16.782500 -17.560000 2.512500
v -16.400000 -17.560000 2.512500
v -16.782500 -17.560000 2.715000
v -16.400000 -17.560000 2.715000
v -16.782500 -17.560000 2.917500
v -16.400000 -17.560000 2.917500
v -16.400000 -17.080000 2.917500
v -16.400000 -16.600000 0.082500
v -16.400000 -16.600000 2.917500
v -16.400000 -16.120000 0.082500
v -16.400000 -16.120000 2.917500
v -16.400000 -15.640000 0.082500
v -16.400000 -15.640000 2.917500
v -16.400000 -15.160000 0.082500
v -16.400000 -15.160000 2.917500
v -16.400000 -14.680000 0.082500
v -16.400000 -14.680000 2.917500
v -16.400000 -14.200000 0.082500
v -16.400000 -14.200000 2.917500
v -16.400000 -13.720000 0.082500
v -16.400000 -13.720000 2.917500
v -16.400000 -13.240000 0.285000
v -16.400000 -13.240000 0.082500
v -16.400000 -13.240000 0.487500
v -16.400000 -13.240000 0.690000
v -16.400000 -13.240000 0.892500
v -16.400000 -13.240000 1.095000
v -16.400000 -13.240000 1.297500
v -16.400000 -13.240000 1.500000
v -16.400000 -13.240000 1.702500
v -16.400000 -13.240000 1.905000
v -16.400000 -13.240000 2.107500
v -16.400000 -13.240000 2.310000
v -16.400000 -13.240000 2.512500
v -16.400000 -13.240000 2.715000
v -16.400000 -13.240000 2.917500
v -16.017500 -17.560000 0.082500
v -16.017500 -17.560000 0.285000
v -16.017500 -17.080000 0.082500
v -16.017500 -17.560000 0.487500
v -16.017500 -17.560000 0.690000
v -16.017500 -17.560000 0.892500
v -16.017500 -17.560000 1.095000
v -16.017500 -17.560000 1.297500
v -16.017500 -17.560000 1.500000
v -16.017500 -17.560000 1.702500
v -16.017500 -17.560000 1.905000
v -16.017500 -17.560000 2.107500
v -16.017500 -17.560000 2.310000
v -16.017500 -17.560000 2.512500
v -16.017500 -17.560000 2.715000
v -16.017500 -17.560000 2.917500
v -16.017500 -17.080000 2.917500
v -16.017500 -16.600000 0.082500
v -16.017500 -16.600000 2.917500
v -16.017500 -16.120000 0.082500
v -16.017500 -16.120000 2.917500
v -16.017500 -15.640000 0.082500
v -16.017500 -15.640000 2.917500
v -16.017500 -15.160000 0.082500
v -16.017500 -15.160000 2.917500
v -16.017500 -14.680000 0.082500
v -16.017500 -14.680000 2.917500
v -16.017500 -14.200000 0.082500
v -16.017500 -14.200000 2.917500
v -16.017500 -13.720000 0.082500
v -16.017500 -13.720000 2.917500
v -16.017500 -13.240000 0.285000
v -16.017500 -13.240000 0.082500
v -16.017500 -13.240000 0.487500
v -16.017500 -13.240000 0.690000
v -16.017500 -13.240000 0.892500
v -16.017500 -13.240000 1.095000
v -16.017500 -13.240000 1.297500
v -16.017500 -13.240000 1.500000
v -16.017500 -13.240000 1.702500
v -16.017500 -13.240000 1.905000
v -16.017500 -13.240000 2.107500
v -16.017500 -13.240000 2.310000
v -16.017500 -13.240000 2.512500
v -16.017500 -13.240000 2.715000
v -16.017500 -13.240000 2.917500
v -16.017500 -18.040000 0.082500
v -16.017500 -18.040000 0.285000
v -15.635000 -18.040000 0.082500
v -15.635000 -18.040000 0.285000
v -15.635000 -17.560000 0.082500
v -16.017500 -18.040000 0.487500
v -15.635000 -18.040000 0.487500
v -16.017500 -18.040000 0.690000
v -15.635000 -18.040000 0.690000
v -16.017500 -18.040000 0.892500
v -15.635000 -18.040000 0.892500
v -16.017500 -18.040000 1.095000
v -15.635000 -18.040000 1.095000
v -16.017500 -18.040000 1.297500
v -15.635000 -18.040000 1.297500
v -16.017500 -18.040000 1.500000
v -15.635000 -18.040000 1.500000
v -16.017500 -18.040000 1.702500
v -15.635000 -18.040000 1.702500
v -16.017500 -18.040000 1.905000
v -15.635000 -18.040000 1.905000
v -16.017500 -18.040000 2.107500
v -15.635000 -18.040000 2.107500
v -16.017500 -18.040000 2.310000
v -15.635000 -18.040000 2.310000
v -16.017500 -18.040000 2.512500
v -15.635000 -18.040000 2.512500
v -16.017500 -18.040000 2.715000
v -15.635000 -18.040000 2.715000
v -16.017500 -18.040000 2.917500
v -15.635000 -18.040000 2.917500
v -15.635000 -17.560000 2.917500
v -15.635000 -17.080000 0.082500
v -15.635000 -17.080000 2.917500
v -15.635000 -16.600000 0.082500
v -15.635000 -16.600000 2.917500
v -15.635000 -16.120000 0.082500
v -15.635000 -16.120000 2.917500
v -15.635000 -15.640000 0.082500
v -15.635000 -15.640000 2.917500
v -15.635000 -15.160000 0.082500
v -15.635000 -15.160000 2.917500
v -15.635000 -14.680000 0.082500
v -15.635000 -14.680000 2.917500
v -15.635000 -14.200000 0.082500
v -15.635000 -14.200000 2.917500
v -15.635000 -13.720000 0.082500
v -15.635000 -13.720000 2.917500
v -15.635000 -13.240000 0.285000
v -15.635000 -13.240000 0.082500
v -15.635000 -13.240000 0.487500
v -15.635000 -13.240000 0.690000
v -15.635000 -13.240000 0.892500
v -15.635000 -13.240000 1.095000
v -15.635000 -13.240000 1.297500
v -15.635000 -13.240000 1.500000
v -15.635000 -13.240000 1.702500
v -15.635000 -13.240000 1.905000
v -15.635000 -13.240000 2.107500
v -15.635000 -13.240000 2.310000
v -15.635000 -13.240000 2.512500
v -15.635000 -13.240000 2.715000
v -15.635000 -13.240000 2.917500
v -15.635000 -18.520000 0.082500
v -15.635000 -18.520000 0.285000
v -15.252500 -18.520000 0.082500
v -15.252500 -18.520000 0.285000
v -15.252500 -18.040000 0.082500
v -15.635000 -18.520000 0.487500
v -15.252500 -18.520000 0.487500
v -15.635000 -18.520000 0.690000
v -15.252500 -18.520000 0.690000
v -15.635000 -18.520000 0.892500
v -15.252500 -18.520000 0.892500
v -15.635000 -18.520000 1.095000
v -15.252500 -18.520000 1.095000
v -15.635000 -18.520000 1.297500
v -15.252500 -18.520000 1.297500
v -15.635000 -18.520000 1.500000
v -15.252500 -18.520000 1.500000
v -15.635000 -18.520000 1.702500
v -15.252500 -18.520000 1.702500
v -15.635000 -18.520000 1.905000
v -15.252500 -18.520000 1.905000
v -15.635000 -18.520000 2.107500
v -15.252500 -18.520000 2.107500
v -15.635000 -18.520000 2.310000
v -15.252500 -18.520000 2.310000
v -15.635000 -18.520000 2.512500
v -15.252500 -18.520000 2.512500
v -15.635000 -18.520000 2.715000
v -15.252500 -18.520000 2.715000
v -15.635000 -18.520000 2.917500
v -15.252500 -18.520000 2.917500
v -15.252500 -18.040000 2.917500
v -15.252500 -17.560000 0.082500
v -15.252500 -17.560000 2.917500
v -15.252500 -17.080000 0.082500
v -15.252500 -17.080000 2.917500
v -15.252500 -16.600000 0.082500
v -15.252500 -16.600000 2.917500
v -15.252500 -16.120000 0.082500
v -15.252500 -16.120000 2.917500
v -15.252500 -15.640000 0.082500
v -15.252500 -15.640000 2.917500
v -15.252500 -15.160000 0.082500
v -15.252500 -15.160000 2.917500
v -15.252500 -14.680000 0.082500
v -15.252500 -14.680000 2.917500
v -15.252500 -14.200000 0.082500
v -15.252500 -14.200000 2.917500
v -15.252500 -13.720000 0.082500
v -15.252500 -13.720000 2.917500
v -15.252500 -13.240000 0.285000
v -15.252500 -13.240000 0.082500
v -15.252500 -13.240000 0.487500
v -15.252500 -13.240000 0.690000
v -15.252500 -13.240000 0.892500
v -15.252500 -13.240000 1.095000
v -15.252500 -13.240000 1.297500
v -15.252500 -13.240000 1.500000
v -15.252500 -13.240000 1.702500
v -15.252500 -13.240000 1.905000
v -15.252500 -13.240000 2.107500
v -15.252500 -13.240000 2.310000
v -15.252500 -13.240000 2.512500
v -15.252500 -13.240000 2.715000
v -15.252500 -13.240000 2.917500
v -15.252500 -19.000000 0.082500
v -15.252500 -19.000000 0.285000
v -14.870000 -19.000000 0.082500
v -14.870000 -19.000000 0.285000
v -14.870000 -18.520000 0.082500
v -15.252500 -19.000000 0.487500
v -14.870000 -19.000000 0.487500
v -15.252500 -19.000000 0.690000
v -14.870000 -19.000000 0.690000
v -15.252500 -19.000000 0.892500
v -14.870000 -19.000000 0.892500
v -15.252500 -19.000000 1.095000
v -14.870000 -19.000000 1.095000
v -15.252500 -19.000000 1.297500
v -14.870000 -19.000000 1.297500
v -15.252500 -19.000000 1.500000
v -14.870000 -19.000000 1.500000
v -15.252500 -19.000000 1.702500
v -14.870000 -19.000000 1.702500
v -15.252500 -19.000000 1.905000
v -14.870000 -19.000000 1.905000
v -15.252500 -19.000000 2.107500
v -14.870000 -19.000000 2.107500
v -15.252500 -19.000000 2.310000
v -14.870000 -19.000000 2.310000
v -15.252500 -19.000000 2.512500
v -14.870000 -19.000000 2.512500
v -15.252500 -19.000000 2.715000
v -14.870000 -19.000000 2.715000
v -15.252500 -19.000000 2.917500
v -14.870000 -19.000000 2.917500
v -14.870000 -18.520000 2.917500
v -14.870000 -18.040000 0.082500
v -14.870000 -18.040000 2.917500
v -14.870000 -17.560000 0.082500
v -14.870000 -17.560000 2.917500
v -14.870000 -17.080000 0.082500
v -14.870000 -17.080000 2.917500
v -14.870000 -16.600000 0.082500
v -14.870000 -16.600000 2.917500
v -14.870000 -16.120000 0.082500
v -14.870000 -16.120000 2.917500
v -14.870000 -15.640000 0.082500
v -14.870000 -15.640000 2.917500
v -14.870000 -15.160000 0.082500
v -14.870000 -15.160000 2.917500
v -14.870000 -14.680000 0.082500
v -14.870000 -14.680000 2.917500
v -14.870000 -14.200000 0.082500
v -14.870000 -14.200000 2.917500
v -14.870000 -13.720000 0.082500
v -14.870000 -13.720000 2.917500
v -14.870000 -13.240000 0.285000
v -14.870000 -13.240000 0.082500
v -14.870000 -13.240000 0.487500
v -14.870000 -13.240000 0.690000
v -14.870000 -13.240000 0.892500
v -14.870000 -13.240000 1.095000
v -14.870000 -13.240000 1.297500
v -14.870000 -13.240000 1.500000
v -14.870000 -13.240000 1.702500
v -14.870000 -13.240000 1.905000
v -14.870000 -13.240000 2.107500
v -14.870000 -13.240000 2.310000
v -14.870000 -13.240000 2.512500
v -14.870000 -13.240000 2.715000
v -14.870000 -13.240000 2.917500
v -14.870000 -19.480000 0.082500
v -14.870000 -19.480000 0.285000
v -14.487500 -19.480000 0.082500
v -14.487500 -19.480000 0.285000
v -14.487500 -19.000000 0.082500
v -14.870000 -19.480000 0.487500
v -14.487500 -19.480000 0.487500
v -14.870000 -19.480000 0.690000
v -14.487500 -19.480000 0.690000
v -14.870000 -19.480000 0.892500
v -14.487500 -19.480000 0.892500
v -14.870000 -19.480000 1.095000
v -14.487500 -19.480000 1.095000
v -14.870000 -19.480000 1.297500
v -14.487500 -19.480000 1.297500
v -14.870000 -19.480000 1.500000
v -14.487500 -19.480000 1.500000
v -14.870000 -19.480000 1.702500
v -14.487500 -19.480000 1.702500
v -14.870000 -19.480000 1.905000
v -14.487500 -19.480000 1.905000
v -14.870000 -19.480000 2.107500
v -14.487500 -19.480000 2.107500
v -14.870000 -19.480000 2.310000
v -14.487500 -19.480000 2.310000
v -14.870000 -19.480000 2.512500
v -14.487500 -19.480000 2.512500
v -14.870000 -19.480000 2.715000
v -14.487500 -19.480000 2.715000
v -14.870000 -19.480000 2.917500
v -14.487500 -19.480000 2.917500
v -14.487500 -19.000000 2.917500
v -14.487500 -18.520000 0.082500
v -14.487500 -18.520000 2.917500
v -14.487500 -18.040000 0.082500
v -14.487500 -18.040000 2.917500
v -14.487500 -17.560000 0.082500
v -14.487500 -17.560000 2.917500
v -14.487500 -17.080000 0.082500
v -14.487500 -17.080000 2.917500
v -14.487500 -16.600000 0.082500
v -14.487500 -16.600000 2.917500
v -14.487500 -16.120000 0.082500
v -14.487500 -16.120000 2.917500
v -14.487500 -15.640000 0.082500
v -14.487500 -15.640000 2.917500
v -14.487500 -15.160000 0.082500
v -14.487500 -15.160000 2.917500
v -14.487500 -14.680000 0.082500
v -14.487500 -14.680000 2.917500
v -14.487500 -14.200000 0.082500
v -14.487500 -14.200000 2.917500
v -14.487500 -13.720000 0.082500
v -14.487500 -13.720000 2.917500
v -14.487500 -13.240000 0.285000
v -14.487500 -13.240000 0.082500
v -14.487500 -13.240000 0.487500
v -14.487500 -13.240000 0.690000
v -14.487500 -13.240000 0.892500
v -14.487500 -13.240000 1.095000
v -14.487500 -13.240000 1.297500
v -14.487500 -13.240000 1.500000
v -14.487500 -13.240000 1.702500
v -14.487500 -13.240000 1.905000
v -14.487500 -13.240000 2.107500
v -14.487500 -13.240000 2.310000
v -14.487500 -13.240000 2.512500
v -14.487500 -13.240000 2.715000
v -14.487500 -13.240000 2.917500
v -14.105000 -19.480000 0.082500
v -14.105000 -19.480000 0.285000
v -14.105000 -19.000000 0.082500
v -14.105000 -19.480000 0.487500
v -14.105000 -19.480000 0.690000
v -14.105000 -19.480000 0.892500
v -14.105000 -19.480000 1.095000
v -14.105000 -19.480000 1.297500
v -14.105000 -19.480000 1.500000
v -14.105000 -19.480000 1.702500
v -14.105000 -19.480000 1.905000
v -14.105000 -19.480000 2.107500
v -14.105000 -19.480000 2.310000
v -14.105000 -19.480000 2.512500
v -14.105000 -19.480000 2.715000
v -14.105000 -19.480000 2.917500
v -14.105000 -19.000000 2.917500
v -14.105000 -18.520000 0.082500
v -14.105000 -18.520000 2.917500
v -14.105000 -18.040000 0.082500
v -14.105000 -18.040000 2.917500
v -14.105000 -17.560000 0.082500
v -14.105000 -17.560000 2.917500
v -14.105000 -17.080000 0.082500
v -14.105000 -17.080000 2.917500
v -14.105000 -16.600000 0.082500
v -14.105000 -16.600000 2.917500
v -14.105000 -16.120000 0.082500
v -14.105000 -16.120000 2.917500
v -14.105000 -15.640000 0.082500
v -14.105000 -15.640000 2.917500
v -14.105000 -15.160000 0.082500
v -14.105000 -15.160000 2.917500
v -14.105000 -14.680000 0.082500
v -14.105000 -14.680000 2.917500
v -14.105000 -14.200000 0.082500
v -14.105000 -14.200000 2.917500
v -14.105000 -13.720000 0.082500
v -14.105000 -13.720000 2.917500
v -14.105000 -13.240000 0.285000
v -14.105000 -13.240000 0.082500
v -14.105000 -13.240000 0.487500
v -14.105000 -13.240000 0.690000
v -14.105000 -13.240000 0.892500
v -14.105000 -13.240000 1.095000
v -14.105000 -13.240000 1.297500
v -14.105000 -13.240000 1.500000
v -14.105000 -13.240000 1.702500
v -14.105000 -13.240000 1.905000
v -14.105000 -13.240000 2.107500
v -14.105000 -13.240000 2.310000
v -14.105000 -13.240000 2.512500
v -14.105000 -13.240000 2.715000
v -14.105000 -13.240000 2.917500
v -14.105000 -19.960000 0.082500
v -14.105000 -19.960000 0.285000
v -13.722500 -19.960000 0.082500
v -13.722500 -19.960000 0.285000
v -13.722500 -19.480000 0.082500
v -14.105000 -19.960000 0.487500
v -13.722500 -19.960000 0.487500
v -14.105000 -19.960000 0.690000
v -13.722500 -19.960000 0.690000
v -14.105000 -19.960000 0.892500
v -13.722500 -19.960000 0.892500
v -14.105000 -19.960000 1.095000
v -13.722500 -19.960000 1.095000
v -14.105000 -19.960000 1.297500
v -13.722500 -19.960000 1.297500
v -14.105000 -19.960000 1.500000
v -13.722500 -19.960000 1.500000
v -14.105000 -19.960000 1.702500
v -13.722500 -19.960000 1.702500
v -14.105000 -19.960000 1.905000
v -13.722500 -19.960000 1.905000
v -14.105000 -19.960000 2.107500
v -13.722500 -19.960000 2.107500
v -14.105000 -19.960000 2.310000
v -13.722500 -19.960000 2.310000
v -14.105000 -19.960000 2.512500
v -13.722500 -19.960000 2.512500
v -14.105000 -19.960000 2.715000
v -13.722500 -19.960000 2.715000
v -14.105000 -19.960000 2.917500
v -13.722500 -19.960000 2.917500
v -13.722500 -19.480000 2.917500
v -13.722500 -19.000000 0.082500
v -13.722500 -19.000000 2.917500
v -13.722500 -18.520000 0.082500
v -13.722500 -18.520000 2.917500
v -13.722500 -18.040000 0.082500
v -13.722500 -18.040000 2.917500
v -13.722500 -17.560000 0.082500
v -13.722500 -17.560000 2.917500
v -13.722500 -17.080000 0.082500
v -13.722500 -17.080000 2.917500
v -13.722500 -16.600000 0.082500
v -13.722500 -16.600000 2.917500
v -13.722500 -16.120000 0.082500
v -13.722500 -16.120000 2.917500
v -13.722500 -15.640000 0.082500
v -13.722500 -15.640000 2.917500
v -13.722500 -15.160000 0.082500
v -13.722500 -15.160000 2.917500
v -13.722500 -14.680000 0.082500
v -13.722500 -14.680000 2.917500
v -13.722500 -14.200000 0.082500
v -13.722500 -14.200000 2.917500
v -13.722500 -13.720000 0.082500
v -13.722500 -13.720000 2.917500
v -13.722500 -13.240000 0.285000
v -13.722500 -13.240000 0.082500
v -13.722500 -13.240000 0.487500
v -13.722500 -13.240000 0.690000
v -13.722500 -13.240000 0.892500
v -13.722500 -13.240000 1.095000
v -13.722500 -13.240000 1.297500
v -13.722500 -13.240000 1.500000
v -13.722500 -13.240000 1.702500
v -13.722500 -13.240000 1.905000
v -13.722500 -13.240000 2.107500
v -13.722500 -13.240000 2.310000
v -13.722500 -13.240000 2.512500
v -13.722500 -13.240000 2.715000
v -13.722500 -13.240000 2.917500
v -13.722500 -20.440000 0.082500
v -13.722500 -20.440000 0.285000
v -13.340000 -20.440000 0.082500
v -13.340000 -20.440000 0.285000
v -13.340000 -19.960000 0.285000
v -13.340000 -19.960000 0.082500
v -13.722500 -20.440000 0.487500
v -13.340000 -20.440000 0.487500
v -13.340000 -19.960000 0.487500
v -13.722500 -20.440000 0.690000
v -13.340000 -20.440000 0.690000
v -13.340000 -19.960000 0.690000
v -13.722500 -20.440000 0.892500
v -13.340000 -20.440000 0.892500
v -13.340000 -19.960000 0.892500
v -13.722500 -20.440000 1.095000
v -13.340000 -20.440000 1.095000
v -13.340000 -19.960000 1.095000
v -13.722500 -20.440000 1.297500
v -13.340000 -20.440000 1.297500
v -13.340000 -19.960000 1.297500
v -13.722500 -20.440000 1.500000
v -13.340000 -20.440000 1.500000
v -13.340000 -19.960000 1.500000
v -13.722500 -20.440000 1.702500
v -13.340000 -20.440000 1.702500
v -13.340000 -19.960000 1.702500
v -13.722500 -20.440000 1.905000
v -13.340000 -20.440000 1.905000
v -13.340000 -19.960000 1.905000
v -13.722500 -20.440000 2.107500
v -13.340000 -20.440000 2.107500
v -13.340000 -19.960000 2.107500
v -13.722500 -20.440000 2.310000
v -13.340000 -20.440000 2.310000
v -13.340000 -19.960000 2.310000
v -13.722500 -20.440000 2.512500
v -13.340000 -20.440000 2.512500
v -13.340000 -19.960000 2.512500
v -13.722500 -20.440000 2.715000
v -13.340000 -20.440000 2.715000
v -13.340000 -19.960000 2.715000
v -13.722500 -20.440000 2.917500
v -13.340000 -20.440000 2.917500
v -13.340000 -19.960000 2.917500
v -13.340000 -19.480000 0.285000
v -13.340000 -19.480000 0.082500
v -13.340000 -19.480000 0.487500
v -13.340000 -19.480000 0.690000
v -13.340000 -19.480000 0.892500
v -13.340000 -19.480000 1.095000
v -13.340000 -19.480000 1.297500
v -13.340000 -19.480000 1.500000
v -13.340000 -19.480000 1.702500
v -13.340000 -19.480000 1.905000
v -13.340000 -19.480000 2.107500
v -13.340000 -19.480000 2.310000
v -13.340000 -19.480000 2.512500
v -13.340000 -19.480000 2.715000
v -13.340000 -19.480000 2.917500
v -13.340000 -19.000000 0.285000
v -13.340000 -19.000000 0.082500
v -13.340000 -19.000000 0.487500
v -13.340000 -19.000000 0.690000
v -13.340000 -19.000000 0.892500
v -13.340000 -19.000000 1.095000
v -13.340000 -19.000000 1.297500
v -13.340000 -19.000000 1.500000
v -13.340000 -19.000000 1.702500
v -13.340000 -19.000000 1.905000
v -13.340000 -19.000000 2.107500
v -13.340000 -19.000000 2.310000
v -13.340000 -19.000000 2.512500
v -13.340000 -19.000000 2.715000
v -13.340000 -19.000000 2.917500
v -13.340000 -18.520000 0.285000
v -13.340000 -18.520000 0.082500
v -13.340000 -18.520000 0.487500
v -13.340000 -18.520000 0.690000
v -13.340000 -18.520000 0.892500
v -13.340000 -18.520000 1.095000
v -13.340000 -18.520000 1.297500
v -13.340000 -18.520000 1.500000
v -13.340000 -18.520000 1.702500
v -13.340000 -18.520000 1.905000
v -13.340000 -18.520000 2.107500
v -13.340000 -18.520000 2.310000
v -13.340000 -18.520000 2.512500
v -13.340000 -18.520000 2.715000
v -13.340000 -18.520000 2.917500
v -13.340000 -18.040000 0.285000
v -13.340000 -18.040000 0.082500
v -13.340000 -18.040000 0.487500
v -13.340000 -18.040000 0.690000
v -13.340000 -18.040000 0.892500
v -13.340000 -18.040000 1.095000
v -13.340000 -18.040000 1.297500
v -13.340000 -18.040000 1.500000
v -13.340000 -18.040000 1.702500
v -13.340000 -18.040000 1.905000
v -13.340000 -18.040000 2.107500
v -13.340000 -18.040000 2.310000
v -13.340000 -18.040000 2.512500
v -13.340000 -18.040000 2.715000
v -13.340000 -18.040000 2.917500
v -13.340000 -17.560000 0.285000
v -13.340000 -17.560000 0.082500
v -13.340000 -17.560000 0.487500
v -13.340000 -17.560000 0.690000
v -13.340000 -17.560000 0.892500
v -13.340000 -17.560000 1.095000
v -13.340000 -17.560000 1.297500
v -13.340000 -17.560000 1.500000
v -13.340000 -17.560000 1.702500
v -13.340000 -17.560000 1.905000
v -13.340000 -17.560000 2.107500
v -13.340000 -17.560000 2.310000
v -13.340000 -17.560000 2.512500
v -13.340000 -17.560000 2.715000
v -13.340000 -17.560000 2.917500
v -13.340000 -17.080000 0.285000
v -13.340000 -17.080000 0.082500
v -13.340000 -17.080000 0.487500
v -13.340000 -17.080000 0.690000
v -13.340000 -17.080000 0.892500
v -13.340000 -17.080000 1.095000
v -13.340000 -17.080000 1.297500
v -13.340000 -17.080000 1.500000
v -13.340000 -17.080000 1.702500
v -13.340000 -17.080000 1.905000
v -13.340000 -17.080000 2.107500
v -13.340000 -17.080000 2.310000
v -13.340000 -17.080000 2.512500
v -13.340000 -17.080000 2.715000
v -13.340000 -17.080000 2.917500
v -13.340000 -16.600000 0.285000
v -13.340000 -16.600000 0.082500
v -13.340000 -16.600000 0.487500
v -13.340000 -16.600000 0.690000
v -13.340000 -16.600000 0.892500
v -13.340000 -16.600000 1.095000
v -13.340000 -16.600000 1.297500
v -13.340000 -16.600000 1.500000
v -13.340000 -16.600000 1.702500
v -13.340000 -16.600000 1.905000
v -13.340000 -16.600000 2.107500
v -13.340000 -16.600000 2.310000
v -13.340000 -16.600000 2.512500
v -13.340000 -16.600000 2.715000
v -13.340000 -16.600000 2.917500
v -13.340000 -16.120000 0.285000
v -13.340000 -16.120000 0.082500
v -13.340000 -16.120000 0.487500
v -13.340000 -16.120000 0.690000
v -13.340000 -16.120000 0.892500
v -13.340000 -16.120000 1.095000
v -13.340000 -16.120000 1.297500
v -13.340000 -16.120000 1.500000
v -13.340000 -16.120000 1.702500
v -13.340000 -16.120000 1.905000
v -13.340000 -16.120000 2.107500
v -13.340000 -16.120000 2.310000
v -13.340000 -16.120000 2.512500
v -13.340000 -16.120000 2.715000
v -13.340000 -16.120000 2.917500
v -13.340000 -15.640000 0.285000
v -13.340000 -15.640000 0.082500
v -13.340000 -15.640000 0.487500
v -13.340000 -15.640000 0.690000
v -13.340000 -15.640000 0.892500
v -13.340000 -15.640000 1.095000
v -13.340000 -15.640000 1.297500
v -13.340000 -15.640000 1.500000
v -13.340000 -15.640000 1.702500
v -13.340000 -15.640000 1.905000
v -13.340000 -15.640000 2.107500
v -13.340000 -15.640000 2.310000
v -13.340000 -15.640000 2.512500
v -13.340000 -15.640000 2.715000
v -13.340000 -15.640000 2.917500
v -13.340000 -15.160000 0.285000
v -13.340000 -15.160000 0.082500
v -13.340000 -15.160000 0.487500
v -13.340000 -15.160000 0.690000
v -13.340000 -15.160000 0.892500
v -13.340000 -15.160000 1.095000
v -13.340000 -15.160000 1.297500
v -13.340000 -15.160000 1.500000
v -13.340000 -15.160000 1.702500
v -13.340000 -15.160000 1.905000
v -13.340000 -15.160000 2.107500
v -13.340000 -15.160000 2.310000
v -13.340000 -15.160000 2.512500
v -13.340000 -15.160000 2.715000
v -13.340000 -15.160000 2.917500
v -13.340000 -14.680000 0.285000
v -13.340000 -14.680000 0.082500
v -13.340000 -14.680000 0.487500
v -13.340000 -14.680000 0.690000
v -13.340000 -14.680000 0.892500
v -13.340000 -14.680000 1.095000
v -13.340000 -14.680000 1.297500
v -13.340000 -14.680000 1.500000
v -13.340000 -14.680000 1.702500
v -13.340000 -14.680000 1.905000
v -13.340000 -14.680000 2.107500
v -13.340000 -14.680000 2.310000
v -13.340000 -14.680000 2.512500
v -13.340000 -14.680000 2.715000
v -13.340000 -14.680000 2.917500
v -13.340000 -14.200000 0.285000
v -13.340000 -14.200000 0.082500
v -13.340000 -14.200000 0.487500
v -13.340000 -14.200000 0.690000
v -13.340000 -14.200000 0.892500
v -13.340000 -14.200000 1.095000
v -13.340000 -14.200000 1.297500
v -13.340000 -14.200000 1.500000
v -13.340000 -14.200000 1.702500
v -13.340000 -14.200000 1.905000
v -13.340000 -14.200000 2.107500
v -13.340000 -14.200000 2.310000
v -13.340000 -14.200000 2.512500
v -13.340000 -14.200000 2.715000
v -13.340000 -14.200000 2.917500
v -13.340000 -13.720000 0.285000
v -13.340000 -13.720000 0.082500
v -13.340000 -13.720000 0.487500
v -13.340000 -13.720000 0.690000
v -13.340000 -13.720000 0.892500
v -13.340000 -13.720000 1.095000
v -13.340000 -13.720000 1.297500
v -13.340000 -13.720000 1.500000
v -13.340000 -13.720000 1.702500
v -13.340000 -13.720000 1.905000
v -13.340000 -13.720000 2.107500
v -13.340000 -13.720000 2.310000
v -13.340000 -13.720000 2.512500
v -13.340000 -13.720000 2.715000
v -13.340000 -13.720000 2.917500
v -13.340000 -13.240000 0.285000
v -13.340000 -13.240000 0.082500
v -13.340000 -13.240000 0.487500
v -13.340000 -13.240000 0.690000
v -13.340000 -13.240000 0.892500
v -13.340000 -13.240000 1.095000
v -13.340000 -13.240000 1.297500
v -13.340000 -13.240000 1.500000
v -13.340000 -13.240000 1.702500
v -13.340000 -13.240000 1.905000
v -13.340000 -13.240000 2.107500
v -13.340000 -13.240000 2.310000
v -13.340000 -13.240000 2.512500
v -13.340000 -13.240000 2.715000
v -13.340000 -13.240000 2.917500
f 1 2 3
f 1 3 4
f 1 5 6
f 1 6 4
f 1 2 7
f 1 7 5
f 4 3 8
f 4 8 9
f 4 6 10
f 4 10 9
f 9 8 11
f 9 11 12
f 9 10 13
f 9 13 12
f 12 11 14
f 12 14 15
f 12 13 16
f 12 16 15
f 15 14 17
f 15 17 18
f 15 16 19
f 15 19 18
f 18 17 20
f 18 20 21
f 18 19 22
f 18 22 21
f 21 20 23
f 21 23 24
f 21 22 25
f 21 25 24
f 24 23 26
f 24 26 27
f 24 25 28
f 24 28 27
f 27 26 29
f 27 29 30
f 27 28 31
f 27 31 30
f 30 29 32
f 30 32 33
f 30 31 34
f 30 34 33
f 33 32 35
f 33 35 36
f 33 34 37
f 33 37 36
f 36 35 38
f 36 38 39
f 36 37 40
f 36 40 39
f 39 38 41
f 39 41 42
f 39 40 43
f 39 43 42
f 42 41 44
f 42 44 45
f 42 43 46
f 42 46 45
f 45 46 47
f 45 47 44
f 2 48 49
f 2 49 3
f 2 48 50
f 2 50 7
f 3 49 51
f 3 51 8
f 8 51 52
f 8 52 11
f 11 52 53
f 11 53 14
f 14 53 54
f 14 54 17
f 17 54 55
f 17 55 20
f 20 55 56
f 20 56 23
f 23 56 57
f 23 57 26
f 26 57 58
f 26 58 29
f 29 58 59
f 29 59 32
f 32 59 60
f 32 60 35
f 35 60 61
f 35 61 38
f 38 61 62
f 38 62 41
f 41 62 63
f 41 63 44
f 44 47 64
f 44 64 63
f 48 65 66
f 48 66 49
f 65 66 67
f 65 67 68
f 48 65 68
f 48 68 50
f 49 66 69
f 49 69 51
f 66 69 70
f 66 70 67
f 51 69 71
f 51 71 52
f 69 71 72
f 69 72 70
f 52 71 73
f 52 73 53
f 71 73 74
f 71 74 72
f 53 73 75
f 53 75 54
f 73 75 76
f 73 76 74
f 54 75 77
f 54 77 55
f 75 77 78
f 75 78 76
f 55 77 79
f 55 79 56
f 77 79 80
f 77 80 78
f 56 79 81
f 56 81 57
f 79 81 82
f 79 82 80
f 57 81 83
f 57 83 58
f 81 83 84
f 81 84 82
f 58 83 85
f 58 85 59
f 83 85 86
f 83 86 84
f 59 85 87
f 59 87 60
f 85 87 88
f 85 88 86
f 60 87 89
f 60 89 61
f 87 89 90
f 87 90 88
f 61 89 91
f 61 91 62
f 89 91 92
f 89 92 90
f 62 91 93
f 62 93 63
f 91 93 94
f 91 94 92
f 63 64 94
f 63 94 93
f 95 5 6
f 95 6 96
f 95 97 98
f 95 98 96
f 95 5 99
f 95 99 97
f 96 6 10
f 96 10 100
f 96 98 101
f 96 101 100
f 100 10 13
f 100 13 102
f 100 101 103
f 100 103 102
f 102 13 16
f 102 16 104
f 102 103 105
f 102 105 104
f 104 16 19
f 104 19 106
f 104 105 107
f 104 107 106
f 106 19 22
f 106 22 108
f 106 107 109
f 106 109 108
f 108 22 25
f 108 25 110
f 108 109 111
f 108 111 110
f 110 25 28
f 110 28 112
f 110 111 113
f 110 113 112
f 112 28 31
f 112 31 114
f 112 113 115
f 112 115 114
f 114 31 34
f 114 34 116
f 114 115 117
f 114 117 116
f 116 34 37
f 116 37 118
f 116 117 119
f 116 119 118
f 118 37 40
f 118 40 120
f 118 119 121
f 118 121 120
f 120 40 43
f 120 43 122
f 120 121 123
f 120 123 122
f 122 43 46
f 122 46 124
f 122 123 125
f 122 125 124
f 124 125 126
f 124 126 46
f 5 7 127
f 5 127 99
f 46 126 128
f 46 128 47
f 7 50 129
f 7 129 127
f 47 128 130
f 47 130 64
f 68 67 131
f 68 131 132
f 50 68 132
f 50 132 129
f 67 70 133
f 67 133 131
f 70 72 134
f 70 134 133
f 72 74 135
f 72 135 134
f 74 76 136
f 74 136 135
f 76 78 137
f 76 137 136
f 78 80 138
f 78 138 137
f 80 82 139
f 80 139 138
f 82 84 140
f 82 140 139
f 84 86 141
f 84 141 140
f 86 88 142
f 86 142 141
f 88 90 143
f 88 143 142
f 90 92 144
f 90 144 143
f 92 94 145
f 92 145 144
f 64 130 145
f 64 145 94
f 146 97 98
f 146 98 147
f 146 148 149
f 146 149 147
f 146 97 150
f 146 150 148
f 147 98 101
f 147 101 151
f 147 149 152
f 147 152 151
f 151 101 103
f 151 103 153
f 151 152 154
f 151 154 153
f 153 103 105
f 153 105 155
f 153 154 156
f 153 156 155
f 155 105 107
f 155 107 157
f 155 156 158
f 155 158 157
f 157 107 109
f 157 109 159
f 157 158 160
f 157 160 159
f 159 109 111
f 159 111 161
f 159 160 162
f 159 162 161
f 161 111 113
f 161 113 163
f 161 162 164
f 161 164 163
f 163 113 115
f 163 115 165
f 163 164 166
f 163 166 165
f 165 115 117
f 165 117 167
f 165 166 168
f 165 168 167
f 167 117 119
f 167 119 169
f 167 168 170
f 167 170 169
f 169 119 121
f 169 121 171
f 169 170 172
f 169 172 171
f 171 121 123
f 171 123 173
f 171 172 174
f 171 174 173
f 173 123 125
f 173 125 175
f 173 174 176
f 173 176 175
f 175 176 177
f 175 177 125
f 97 99 178
f 97 178 150
f 125 177 179
f 125 179 126
f 99 127 180
f 99 180 178
f 126 179 181
f 126 181 128
f 127 129 182
f 127 182 180
f 128 181 183
f 128 183 130
f 132 131 184
f 132 184 185
f 129 132 185
f 129 185 182
f 131 133 186
f 131 186 184
f 133 134 187
f 133 187 186
f 134 135 188
f 134 188 187
f 135 136 189
f 135 189 188
f 136 137 190
f 136 190 189
f 137 138 191
f 137 191 190
f 138 139 192
f 138 192 191
f 139 140 193
f 139 193 192
f 140 141 194
f 140 194 193
f 141 142 195
f 141 195 194
f 142 143 196
f 142 196 195
f 143 144 197
f 143 197 196
f 144 145 198
f 144 198 197
f 130 183 198
f 130 198 145
f 148 199 200
f 148 200 149
f 148 150 201
f 148 201 199
f 149 200 202
f 149 202 152
f 152 202 203
f 152 203 154
f 154 203 204
f 154 204 156
f 156 204 205
f 156 205 158
f 158 205 206
f 158 206 160
f 160 206 207
f 160 207 162
f 162 207 208
f 162 208 164
f 164 208 209
f 164 209 166
f 166 209 210
f 166 210 168
f 168 210 211
f 168 211 170
f 170 211 212
f 170 212 172
f 172 212 213
f 172 213 174
f 174 213 214
f 174 214 176
f 176 214 215
f 176 215 177
f 150 178 216
f 150 216 201
f 177 215 217
f 177 217 179
f 178 180 218
f 178 218 216
f 179 217 219
f 179 219 181
f 180 182 220
f 180 220 218
f 181 219 221
f 181 221 183
f 185 184 222
f 185 222 223
f 182 185 223
f 182 223 220
f 184 186 224
f 184 224 222
f 186 187 225
f 186 225 224
f 187 188 226
f 187 226 225
f 188 189 227
f 188 227 226
f 189 190 228
f 189 228 227
f 190 191 229
f 190 229 228
f 191 192 230
f 191 230 229
f 192 193 231
f 192 231 230
f 193 194 232
f 193 232 231
f 194 195 233
f 194 233 232
f 195 196 234
f 195 234 233
f 196 197 235
f 196 235 234
f 197 198 236
f 197 236 235
f 183 221 236
f 183 236 198
f 237 199 200
f 237 200 238
f 237 239 240
f 237 240 238
f 237 199 241
f 237 241 239
f 238 200 202
f 238 202 242
f 238 240 243
f 238 243 242
f 242 202 203
f 242 203 244
f 242 243 245
f 242 245 244
f 244 203 204
f 244 204 246
f 244 245 247
f 244 247 246
f 246 204 205
f 246 205 248
f 246 247 249
f 246 249 248
f 248 205 206
f 248 206 250
f 248 249 251
f 248 251 250
f 250 206 207
f 250 207 252
f 250 251 253
f 250 253 252
f 252 207 208
f 252 208 254
f 252 253 255
f 252 255 254
f 254 208 209
f 254 209 256
f 254 255 257
f 254 257 256
f 256 209 210
f 256 210 258
f 256 257 259
f 256 259 258
f 258 210 211
f 258 211 260
f 258 259 261
f 258 261 260
f 260 211 212
f 260 212 262
f 260 261 263
f 260 263 262
f 262 212 213
f 262 213 264
f 262 263 265
f 262 265 264
f 264 213 214
f 264 214 266
f 264 265 267
f 264 267 266
f 266 267 268
f 266 268 214
f 199 201 269
f 199 269 241
f 214 268 270
f 214 270 215
f 201 216 271
f 201 271 269
f 215 270 272
f 215 272 217
f 216 218 273
f 216 273 271
f 217 272 274
f 217 274 219
f 218 220 275
f 218 275 273
f 219 274 276
f 219 276 221
f 223 222 277
f 223 277 278
f 220 223 278
f 220 278 275
f 222 224 279
f 222 279 277
f 224 225 280
f 224 280 279
f 225 226 281
f 225 281 280
f 226 227 282
f 226 282 281
f 227 228 283
f 227 283 282
f 228 229 284
f 228 284 283
f 229 230 285
f 229 285 284
f 230 231 286
f 230 286 285
f 231 232 287
f 231 287 286
f 232 233 288
f 232 288 287
f 233 234 289
f 233 289 288
f 234 235 290
f 234 290 289
f 235 236 291
f 235 291 290
f 221 276 291
f 221 291 236
f 292 239 240
f 292 240 293
f 292 294 295
f 292 295 293
f 292 239 296
f 292 296 294
f 293 240 243
f 293 243 297
f 293 295 298
f 293 298 297
f 297 243 245
f 297 245 299
f 297 298 300
f 297 300 299
f 299 245 247
f 299 247 301
f 299 300 302
f 299 302 301
f 301 247 249
f 301 249 303
f 301 302 304
f 301 304 303
f 303 249 251
f 303 251 305
f 303 304 306
f 303 306 305
f 305 251 253
f 305 253 307
f 305 306 308
f 305 308 307
f 307 253 255
f 307 255 309
f 307 308 310
f 307 310 309
f 309 255 257
f 309 257 311
f 309 310 312
f 309 312 311
f 311 257 259
f 311 259 313
f 311 312 314
f 311 314 313
f 313 259 261
f 313 261 315
f 313 314 316
f 313 316 315
f 315 261 263
f 315 263 317
f 315 316 318
f 315 318 317
f 317 263 265
f 317 265 319
f 317 318 320
f 317 320 319
f 319 265 267
f 319 267 321
f 319 320 322
f 319 322 321
f 321 322 323
f 321 323 267
f 239 241 324
f 239 324 296
f 267 323 325
f 267 325 268
f 241 269 326
f 241 326 324
f 268 325 327
f 268 327 270
f 269 271 328
f 269 328 326
f 270 327 329
f 270 329 272
f 271 273 330
f 271 330 328
f 272 329 331
f 272 331 274
f 273 275 332
f 273 332 330
f 274 331 333
f 274 333 276
f 278 277 334
f 278 334 335
f 275 278 335
f 275 335 332
f 277 279 336
f 277 336 334
f 279 280 337
f 279 337 336
f 280 281 338
f 280 338 337
f 281 282 339
f 281 339 338
f 282 283 340
f 282 340 339
f 283 284 341
f 283 341 340
f 284 285 342
f 284 342 341
f 285 286 343
f 285 343 342
f 286 287 344
f 286 344 343
f 287 288 345
f 287 345 344
f 288 289 346
f 288 346 345
f 289 290 347
f 289 347 346
f 290 291 348
f 290 348 347
f 276 333 348
f 276 348 291
f 349 294 295
f 349 295 350
f 349 351 352
f 349 352 350
f 349 294 353
f 349 353 351
f 350 295 298
f 350 298 354
f 350 352 355
f 350 355 354
f 354 298 300
f 354 300 356
f 354 355 357
f 354 357 356
f 356 300 302
f 356 302 358
f 356 357 359
f 356 359 358
f 358 302 304
f 358 304 360
f 358 359 361
f 358 361 360
f 360 304 306
f 360 306 362
f 360 361 363
f 360 363 362
f 362 306 308
f 362 308 364
f 362 363 365
f 362 365 364
f 364 308 310
f 364 310 366
f 364 365 367
f 364 367 366
f 366 310 312
f 366 312 368
f 366 367 369
f 366 369 368
f 368 312 314
f 368 314 370
f 368 369 371
f 368 371 370
f 370 314 316
f 370 316 372
f 370 371 373
f 370 373 372
f 372 316 318
f 372 318 374
f 372 373 375
f 372 375 374
f 374 318 320
f 374 320 376
f 374 375 377
f 374 377 376
f 376 320 322
f 376 322 378
f 376 377 379
f 376 379 378
f 378 379 380
f 378 380 322
f 294 296 381
f 294 381 353
f 322 380 382
f 322 382 323
f 296 324 383
f 296 383 381
f 323 382 384
f 323 384 325
f 324 326 385
f 324 385 383
f 325 384 386
f 325 386 327
f 326 328 387
f 326 387 385
f 327 386 388
f 327 388 329
f 328 330 389
f 328 389 387
f 329 388 390
f 329 390 331
f 330 332 391
f 330 391 389
f 331 390 392
f 331 392 333
f 335 334 393
f 335 393 394
f 332 335 394
f 332 394 391
f 334 336 395
f 334 395 393
f 336 337 396
f 336 396 395
f 337 338 397
f 337 397 396
f 338 339 398
f 338 398 397
f 339 340 399
f 339 399 398
f 340 341 400
f 340 400 399
f 341 342 401
f 341 401 400
f 342 343 402
f 342 402 401
f 343 344 403
f 343 403 402
f 344 345 404
f 344 404 403
f 345 346 405
f 345 405 404
f 346 347 406
f 346 406 405
f 347 348 407
f 347 407 406
f 333 392 407
f 333 407 348
f 408 351 352
f 408 352 409
f 408 410 411
f 408 411 409
f 408 351 412
f 408 412 410
f 409 352 355
f 409 355 413
f 409 411 414
f 409 414 413
f 413 355 357
f 413 357 415
f 413 414 416
f 413 416 415
f 415 357 359
f 415 359 417
f 415 416 418
f 415 418 417
f 417 359 361
f 417 361 419
f 417 418 420
f 417 420 419
f 419 361 363
f 419 363 421
f 419 420 422
f 419 422 421
f 421 363 365
f 421 365 423
f 421 422 424
f 421 424 423
f 423 365 367
f 423 367 425
f 423 424 426
f 423 426 425
f 425 367 369
f 425 369 427
f 425 426 428
f 425 428 427
f 427 369 371
f 427 371 429
f 427 428 430
f 427 430 429
f 429 371 373
f 429 373 431
f 429 430 432
f 429 432 431
f 431 373 375
f 431 375 433
f 431 432 434
f 431 434 433
f 433 375 377
f 433 377 435
f 433 434 436
f 433 436 435
f 435 377 379
f 435 379 437
f 435 436 438
f 435 438 437
f 437 438 439
f 437 439 379
f 351 353 440
f 351 440 412
f 379 439 441
f 379 441 380
f 353 381 442
f 353 442 440
f 380 441 443
f 380 443 382
f 381 383 444
f 381 444 442
f 382 443 445
f 382 445 384
f 383 385 446
f 383 446 444
f 384 445 447
f 384 447 386
f 385 387 448
f 385 448 446
f 386 447 449
f 386 449 388
f 387 389 450
f 387 450 448
f 388 449 451
f 388 451 390
f 389 391 452
f 389 452 450
f 390 451 453
f 390 453 392
f 394 393 454
f 394 454 455
f 391 394 455
f 391 455 452
f 393 395 456
f 393 456 454
f 395 396 457
f 395 457 456
f 396 397 458
f 396 458 457
f 397 398 459
f 397 459 458
f 398 399 460
f 398 460 459
f 399 400 461
f 399 461 460
f 400 401 462
f 400 462 461
f 401 402 463
f 401 463 462
f 402 403 464
f 402 464 463
f 403 404 465
f 403 465 464
f 404 405 466
f 404 466 465
f 405 406 467
f 405 467 466
f 406 407 468
f 406 468 467
f 392 453 468
f 392 468 407
f 410 469 470
f 410 470 411
f 410 412 471
f 410 471 469
f 411 470 472
f 411 472 414
f 414 472 473
f 414 473 416
f 416 473 474
f 416 474 418
f 418 474 475
f 418 475 420
f 420 475 476
f 420 476 422
f 422 476 477
f 422 477 424
f 424 477 478
f 424 478 426
f 426 478 479
f 426 479 428
f 428 479 480
f 428 480 430
f 430 480 481
f 430 481 432
f 432 481 482
f 432 482 434
f 434 482 483
f 434 483 436
f 436 483 484
f 436 484 438
f 438 484 485
f 438 485 439
f 412 440 486
f 412 486 471
f 439 485 487
f 439 487 441
f 440 442 488
f 440 488 486
f 441 487 489
f 441 489 443
f 442 444 490
f 442 490 488
f 443 489 491
f 443 491 445
f 444 446 492
f 444 492 490
f 445 491 493
f 445 493 447
f 446 448 494
f 446 494 492
f 447 493 495
f 447 495 449
f 448 450 496
f 448 496 494
f 449 495 497
f 449 497 451
f 450 452 498
f 450 498 496
f 451 497 499
f 451 499 453
f 455 454 500
f 455 500 501
f 452 455 501
f 452 501 498
f 454 456 502
f 454 502 500
f 456 457 503
f 456 503 502
f 457 458 504
f 457 504 503
f 458 459 505
f 458 505 504
f 459 460 506
f 459 506 505
f 460 461 507
f 460 507 506
f 461 462 508
f 461 508 507
f 462 463 509
f 462 509 508
f 463 464 510
f 463 510 509
f 464 465 511
f 464 511 510
f 465 466 512
f 465 512 511
f 466 467 513
f 466 513 512
f 467 468 514
f 467 514 513
f 453 499 514
f 453 514 468
f 515 469 470
f 515 470 516
f 515 517 518
f 515 518 516
f 515 469 519
f 515 519 517
f 516 470 472
f 516 472 520
f 516 518 521
f 516 521 520
f 520 472 473
f 520 473 522
f 520 521 523
f 520 523 522
f 522 473 474
f 522 474 524
f 522 523 525
f 522 525 524
f 524 474 475
f 524 475 526
f 524 525 527
f 524 527 526
f 526 475 476
f 526 476 528
f 526 527 529
f 526 529 528
f 528 476 477
f 528 477 530
f 528 529 531
f 528 531 530
f 530 477 478
f 530 478 532
f 530 531 533
f 530 533 532
f 532 478 479
f 532 479 534
f 532 533 535
f 532 535 534
f 534 479 480
f 534 480 536
f 534 535 537
f 534 537 536
f 536 480 481
f 536 481 538
f 536 537 539
f 536 539 538
f 538 481 482
f 538 482 540
f 538 539 541
f 538 541 540
f 540 482 483
f 540 483 542
f 540 541 543
f 540 543 542
f 542 483 484
f 542 484 544
f 542 543 545
f 542 545 544
f 544 545 546
f 544 546 484
f 469 471 547
f 469 547 519
f 484 546 548
f 484 548 485
f 471 486 549
f 471 549 547
f 485 548 550
f 485 550 487
f 486 488 551
f 486 551 549
f 487 550 552
f 487 552 489
f 488 490 553
f 488 553 551
f 489 552 554
f 489 554 491
f 490 492 555
f 490 555 553
f 491 554 556
f 491 556 493
f 492 494 557
f 492 557 555
f 493 556 558
f 493 558 495
f 494 496 559
f 494 559 557
f 495 558 560
f 495 560 497
f 496 498 561
f 496 561 559
f 497 560 562
f 497 562 499
f 501 500 563
f 501 563 564
f 498 501 564
f 498 564 561
f 500 502 565
f 500 565 563
f 502 503 566
f 502 566 565
f 503 504 567
f 503 567 566
f 504 505 568
f 504 568 567
f 505 506 569
f 505 569 568
f 506 507 570
f 506 570 569
f 507 508 571
f 507 571 570
f 508 509 572
f 508 572 571
f 509 510 573
f 509 573 572
f 510 511 574
f 510 574 573
f 511 512 575
f 511 575 574
f 512 513 576
f 512 576 575
f 513 514 577
f 513 577 576
f 499 562 577
f 499 577 514
f 578 517 518
f 578 518 579
f 578 580 581
f 578 581 579
f 578 517 582
f 578 582 580
f 579 518 521
f 579 521 583
f 579 581 584
f 579 584 583
f 583 521 523
f 583 523 585
f 583 584 586
f 583 586 585
f 585 523 525
f 585 525 587
f 585 586 588
f 585 588 587
f 587 525 527
f 587 527 589
f 587 588 590
f 587 590 589
f 589 527 529
f 589 529 591
f 589 590 592
f 589 592 591
f 591 529 531
f 591 531 593
f 591 592 594
f 591 594 593
f 593 531 533
f 593 533 595
f 593 594 596
f 593 596 595
f 595 533 535
f 595 535 597
f 595 596 598
f 595 598 597
f 597 535 537
f 597 537 599
f 597 598 600
f 597 600 599
f 599 537 539
f 599 539 601
f 599 600 602
f 599 602 601
f 601 539 541
f 601 541 603
f 601 602 604
f 601 604 603
f 603 541 543
f 603 543 605
f 603 604 606
f 603 606 605
f 605 543 545
f 605 545 607
f 605 606 608
f 605 608 607
f 607 608 609
f 607 609 545
f 517 519 610
f 517 610 582
f 545 609 611
f 545 611 546
f 519 547 612
f 519 612 610
f 546 611 613
f 546 613 548
f 547 549 614
f 547 614 612
f 548 613 615
f 548 615 550
f 549 551 616
f 549 616 614
f 550 615 617
f 550 617 552
f 551 553 618
f 551 618 616
f 552 617 619
f 552 619 554
f 553 555 620
f 553 620 618
f 554 619 621
f 554 621 556
f 555 557 622
f 555 622 620
f 556 621 623
f 556 623 558
f 557 559 624
f 557 624 622
f 558 623 625
f 558 625 560
f 559 561 626
f 559 626 624
f 560 625 627
f 560 627 562
f 564 563 628
f 564 628 629
f 561 564 629
f 561 629 626
f 563 565 630
f 563 630 628
f 565 566 631
f 565 631 630
f 566 567 632
f 566 632 631
f 567 568 633
f 567 633 632
f 568 569 634
f 568 634 633
f 569 570 635
f 569 635 634
f 570 571 636
f 570 636 635
f 571 572 637
f 571 637 636
f 572 573 638
f 572 638 637
f 573 574 639
f 573 639 638
f 574 575 640
f 574 640 639
f 575 576 641
f 575 641 640
f 576 577 642
f 576 642 641
f 562 627 642
f 562 642 577
f 643 580 581
f 643 581 644
f 643 645 646
f 643 646 644
f 643 580 647
f 643 647 645
f 644 581 584
f 644 584 648
f 644 646 649
f 644 649 648
f 648 584 586
f 648 586 650
f 648 649 651
f 648 651 650
f 650 586 588
f 650 588 652
f 650 651 653
f 650 653 652
f 652 588 590
f 652 590 654
f 652 653 655
f 652 655 654
f 654 590 592
f 654 592 656
f 654 655 657
f 654 657 656
f 656 592 594
f 656 594 658
f 656 657 659
f 656 659 658
f 658 594 596
f 658 596 660
f 658 659 661
f 658 661 660
f 660 596 598
f 660 598 662
f 660 661 663
f 660 663 662
f 662 598 600
f 662 600 664
f 662 663 665
f 662 665 664
f 664 600 602
f 664 602 666
f 664 665 667
f 664 667 666
f 666 602 604
f 666 604 668
f 666 667 669
f 666 669 668
f 668 604 606
f 668 606 670
f 668 669 671
f 668 671 670
f 670 606 608
f 670 608 672
f 670 671 673
f 670 673 672
f 672 673 674
f 672 674 608
f 580 582 675
f 580 675 647
f 608 674 676
f 608 676 609
f 582 610 677
f 582 677 675
f 609 676 678
f 609 678 611
f 610 612 679
f 610 679 677
f 611 678 680
f 611 680 613
f 612 614 681
f 612 681 679
f 613 680 682
f 613 682 615
f 614 616 683
f 614 683 681
f 615 682 684
f 615 684 617
f 616 618 685
f 616 685 683
f 617 684 686
f 617 686 619
f 618 620 687
f 618 687 685
f 619 686 688
f 619 688 621
f 620 622 689
f 620 689 687
f 621 688 690
f 621 690 623
f 622 624 691
f 622 691 689
f 623 690 692
f 623 692 625
f 624 626 693
f 624 693 691
f 625 692 694
f 625 694 627
f 629 628 695
f 629 695 696
f 626 629 696
f 626 696 693
f 628 630 697
f 628 697 695
f 630 631 698
f 630 698 697
f 631 632 699
f 631 699 698
f 632 633 700
f 632 700 699
f 633 634 701
f 633 701 700
f 634 635 702
f 634 702 701
f 635 636 703
f 635 703 702
f 636 637 704
f 636 704 703
f 637 638 705
f 637 705 704
f 638 639 706
f 638 706 705
f 639 640 707
f 639 707 706
f 640 641 708
f 640 708 707
f 641 642 709
f 641 709 708
f 627 694 709
f 627 709 642
f 710 645 646
f 710 646 711
f 710 712 713
f 710 713 711
f 710 645 714
f 710 714 712
f 711 646 649
f 711 649 715
f 711 713 716
f 711 716 715
f 715 649 651
f 715 651 717
f 715 716 718
f 715 718 717
f 717 651 653
f 717 653 719
f 717 718 720
f 717 720 719
f 719 653 655
f 719 655 721
f 719 720 722
f 719 722 721
f 721 655 657
f 721 657 723
f 721 722 724
f 721 724 723
f 723 657 659
f 723 659 725
f 723 724 726
f 723 726 725
f 725 659 661
f 725 661 727
f 725 726 728
f 725 728 727
f 727 661 663
f 727 663 729
f 727 728 730
f 727 730 729
f 729 663 665
f 729 665 731
f 729 730 732
f 729 732 731
f 731 665 667
f 731 667 733
f 731 732 734
f 731 734 733
f 733 667 669
f 733 669 735
f 733 734 736
f 733 736 735
f 735 669 671
f 735 671 737
f 735 736 738
f 735 738 737
f 737 671 673
f 737 673 739
f 737 738 740
f 737 740 739
f 739 740 741
f 739 741 673
f 645 647 742
f 645 742 714
f 673 741 743
f 673 743 674
f 647 675 744
f 647 744 742
f 674 743 745
f 674 745 676
f 675 677 746
f 675 746 744
f 676 745 747
f 676 747 678
f 677 679 748
f 677 748 746
f 678 747 749
f 678 749 680
f 679 681 750
f 679 750 748
f 680 749 751
f 680 751 682
f 681 683 752
f 681 752 750
f 682 751 753
f 682 753 684
f 683 685 754
f 683 754 752
f 684 753 755
f 684 755 686
f 685 687 756
f 685 756 754
f 686 755 757
f 686 757 688
f 687 689 758
f 687 758 756
f 688 757 759
f 688 759 690
f 689 691 760
f 689 760 758
f 690 759 761
f 690 761 692
f 691 693 762
f 691 762 760
f 692 761 763
f 692 763 694
f 696 695 764
f 696 764 765
f 693 696 765
f 693 765 762
f 695 697 766
f 695 766 764
f 697 698 767
f 697 767 766
f 698 699 768
f 698 768 767
f 699 700 769
f 699 769 768
f 700 701 770
f 700 770 769
f 701 702 771
f 701 771 770
f 702 703 772
f 702 772 771
f 703 704 773
f 703 773 772
f 704 705 774
f 704 774 773
f 705 706 775
f 705 775 774
f 706 707 776
f 706 776 775
f 707 708 777
f 707 777 776
f 708 709 778
f 708 778 777
f 694 763 778
f 694 778 709
f 712 779 780
f 712 780 713
f 712 714 781
f 712 781 779
f 713 780 782
f 713 782 716
f 716 782 783
f 716 783 718
f 718 783 784
f 718 784 720
f 720 784 785
f 720 785 722
f 722 785 786
f 722 786 724
f 724 786 787
f 724 787 726
f 726 787 788
f 726 788 728
f 728 788 789
f 728 789 730
f 730 789 790
f 730 790 732
f 732 790 791
f 732 791 734
f 734 791 792
f 734 792 736
f 736 792 793
f 736 793 738
f 738 793 794
f 738 794 740
f 740 794 795
f 740 795 741
f 714 742 796
f 714 796 781
f 741 795 797
f 741 797 743
f 742 744 798
f 742 798 796
f 743 797 799
f 743 799 745
f 744 746 800
f 744 800 798
f 745 799 801
f 745 801 747
f 746 748 802
f 746 802 800
f 747 801 803
f 747 803 749
f 748 750 804
f 748 804 802
f 749 803 805
f 749 805 751
f 750 752 806
f 750 806 804
f 751 805 807
f 751 807 753
f 752 754 808
f 752 808 806
f 753 807 809
f 753 809 755
f 754 756 810
f 754 810 808
f 755 809 811
f 755 811 757
f 756 758 812
f 756 812 810
f 757 811 813
f 757 813 759
f 758 760 814
f 758 814 812
f 759 813 815
f 759 815 761
f 760 762 816
f 760 816 814
f 761 815 817
f 761 817 763
f 765 764 818
f 765 818 819
f 762 765 819
f 762 819 816
f 764 766 820
f 764 820 818
f 766 767 821
f 766 821 820
f 767 768 822
f 767 822 821
f 768 769 823
f 768 823 822
f 769 770 824
f 769 824 823
f 770 771 825
f 770 825 824
f 771 772 826
f 771 826 825
f 772 773 827
f 772 827 826
f 773 774 828
f 773 828 827
f 774 775 829
f 774 829 828
f 775 776 830
f 775 830 829
f 776 777 831
f 776 831 830
f 777 778 832
f 777 832 831
f 763 817 832
f 763 832 778
f 833 779 780
f 833 780 834
f 833 835 836
f 833 836 834
f 833 779 837
f 833 837 835
f 834 780 782
f 834 782 838
f 834 836 839
f 834 839 838
f 838 782 783
f 838 783 840
f 838 839 841
f 838 841 840
f 840 783 784
f 840 784 842
f 840 841 843
f 840 843 842
f 842 784 785
f 842 785 844
f 842 843 845
f 842 845 844
f 844 785 786
f 844 786 846
f 844 845 847
f 844 847 846
f 846 786 787
f 846 787 848
f 846 847 849
f 846 849 848
f 848 787 788
f 848 788 850
f 848 849 851
f 848 851 850
f 850 788 789
f 850 789 852
f 850 851 853
f 850 853 852
f 852 789 790
f 852 790 854
f 852 853 855
f 852 855 854
f 854 790 791
f 854 791 856
f 854 855 857
f 854 857 856
f 856 791 792
f 856 792 858
f 856 857 859
f 856 859 858
f 858 792 793
f 858 793 860
f 858 859 861
f 858 861 860
f 860 793 794
f 860 794 862
f 860 861 863
f 860 863 862
f 862 863 864
f 862 864 794
f 779 781 865
f 779 865 837
f 794 864 866
f 794 866 795
f 781 796 867
f 781 867 865
f 795 866 868
f 795 868 797
f 796 798 869
f 796 869 867
f 797 868 870
f 797 870 799
f 798 800 871
f 798 871 869
f 799 870 872
f 799 872 801
f 800 802 873
f 800 873 871
f 801 872 874
f 801 874 803
f 802 804 875
f 802 875 873
f 803 874 876
f 803 876 805
f 804 806 877
f 804 877 875
f 805 876 878
f 805 878 807
f 806 808 879
f 806 879 877
f 807 878 880
f 807 880 809
f 808 810 881
f 808 881 879
f 809 880 882
f 809 882 811
f 810 812 883
f 810 883 881
f 811 882 884
f 811 884 813
f 812 814 885
f 812 885 883
f 813 884 886
f 813 886 815
f 814 816 887
f 814 887 885
f 815 886 888
f 815 888 817
f 819 818 889
f 819 889 890
f 816 819 890
f 816 890 887
f 818 820 891
f 818 891 889
f 820 821 892
f 820 892 891
f 821 822 893
f 821 893 892
f 822 823 894
f 822 894 893
f 823 824 895
f 823 895 894
f 824 825 896
f 824 896 895
f 825 826 897
f 825 897 896
f 826 827 898
f 826 898 897
f 827 828 899
f 827 899 898
f 828 829 900
f 828 900 899
f 829 830 901
f 829 901 900
f 830 831 902
f 830 902 901
f 831 832 903
f 831 903 902
f 817 888 903
f 817 903 832
f 904 835 836
f 904 836 905
f 906 907 908
f 906 908 909
f 904 906 907
f 904 907 905
f 904 835 909
f 904 909 906
f 905 836 839
f 905 839 910
f 907 911 912
f 907 912 908
f 905 907 911
f 905 911 910
f 910 839 841
f 910 841 913
f 911 914 915
f 911 915 912
f 910 911 914
f 910 914 913
f 913 841 843
f 913 843 916
f 914 917 918
f 914 918 915
f 913 914 917
f 913 917 916
f 916 843 845
f 916 845 919
f 917 920 921
f 917 921 918
f 916 917 920
f 916 920 919
f 919 845 847
f 919 847 922
f 920 923 924
f 920 924 921
f 919 920 923
f 919 923 922
f 922 847 849
f 922 849 925
f 923 926 927
f 923 927 924
f 922 923 926
f 922 926 925
f 925 849 851
f 925 851 928
f 926 929 930
f 926 930 927
f 925 926 929
f 925 929 928
f 928 851 853
f 928 853 931
f 929 932 933
f 929 933 930
f 928 929 932
f 928 932 931
f 931 853 855
f 931 855 934
f 932 935 936
f 932 936 933
f 931 932 935
f 931 935 934
f 934 855 857
f 934 857 937
f 935 938 939
f 935 939 936
f 934 935 938
f 934 938 937
f 937 857 859
f 937 859 940
f 938 941 942
f 938 942 939
f 937 938 941
f 937 941 940
f 940 859 861
f 940 861 943
f 941 944 945
f 941 945 942
f 940 941 944
f 940 944 943
f 943 861 863
f 943 863 946
f 944 947 948
f 944 948 945
f 943 944 947
f 943 947 946
f 946 947 948
f 946 948 863
f 909 908 949
f 909 949 950
f 835 837 950
f 835 950 909
f 908 912 951
f 908 951 949
f 912 915 952
f 912 952 951
f 915 918 953
f 915 953 952
f 918 921 954
f 918 954 953
f 921 924 955
f 921 955 954
f 924 927 956
f 924 956 955
f 927 930 957
f 927 957 956
f 930 933 958
f 930 958 957
f 933 936 959
f 933 959 958
f 936 939 960
f 936 960 959
f 939 942 961
f 939 961 960
f 942 945 962
f 942 962 961
f 945 948 963
f 945 963 962
f 863 948 963
f 863 963 864
f 950 949 964
f 950 964 965
f 837 865 965
f 837 965 950
f 949 951 966
f 949 966 964
f 951 952 967
f 951 967 966
f 952 953 968
f 952 968 967
f 953 954 969
f 953 969 968
f 954 955 970
f 954 970 969
f 955 956 971
f 955 971 970
f 956 957 972
f 956 972 971
f 957 958 973
f 957 973 972
f 958 959 974
f 958 974 973
f 959 960 975
f 959 975 974
f 960 961 976
f 960 976 975
f 961 962 977
f 961 977 976
f 962 963 978
f 962 978 977
f 864 963 978
f 864 978 866
f 965 964 979
f 965 979 980
f 865 867 980
f 865 980 965
f 964 966 981
f 964 981 979
f 966 967 982
f 966 982 981
f 967 968 983
f 967 983 982
f 968 969 984
f 968 984 983
f 969 970 985
f 969 985 984
f 970 971 986
f 970 986 985
f 971 972 987
f 971 987 986
f 972 973 988
f 972 988 987
f 973 974 989
f 973 989 988
f 974 975 990
f 974 990 989
f 975 976 991
f 975 991 990
f 976 977 992
f 976 992 991
f 977 978 993
f 977 993 992
f 866 978 993
f 866 993 868
f 980 979 994
f 980 994 995
f 867 869 995
f 867 995 980
f 979 981 996
f 979 996 994
f 981 982 997
f 981 997 996
f 982 983 998
f 982 998 997
f 983 984 999
f 983 999 998
f 984 985 1000
f 984 1000 999
f 985 986 1001
f 985 1001 1000
f 986 987 1002
f 986 1002 1001
f 987 988 1003
f 987 1003 1002
f 988 989 1004
f 988 1004 1003
f 989 990 1005
f 989 1005 1004
f 990 991 1006
f 990 1006 1005
f 991 992 1007
f 991 1007 1006
f 992 993 1008
f 992 1008 1007
f 868 993 1008
f 868 1008 870
f 995 994 1009
f 995 1009 1010
f 869 871 1010
f 869 1010 995
f 994 996 1011
f 994 1011 1009
f 996 997 1012
f 996 1012 1011
f 997 998 1013
f 997 1013 1012
f 998 999 1014
f 998 1014 1013
f 999 1000 1015
f 999 1015 1014
f 1000 1001 1016
f 1000 1016 1015
f 1001 1002 1017
f 1001 1017 1016
f 1002 1003 1018
f 1002 1018 1017
f 1003 1004 1019
f 1003 1019 1018
f 1004 1005 1020
f 1004 1020 1019
f 1005 1006 1021
f 1005 1021 1020
f 1006 1007 1022
f 1006 1022 1021
f 1007 1008 1023
f 1007 1023 1022
f 870 1008 1023
f 870 1023 872
f 1010 1009 1024
f 1010 1024 1025
f 871 873 1025
f 871 1025 1010
f 1009 1011 1026
f 1009 1026 1024
f 1011 1012 1027
f 1011 1027 1026
f 1012 1013 1028
f 1012 1028 1027
f 1013 1014 1029
f 1013 1029 1028
f 1014 1015 1030
f 1014 1030 1029
f 1015 1016 1031
f 1015 1031 1030
f 1016 1017 1032
f 1016 1032 1031
f 1017 1018 1033
f 1017 1033 1032
f 1018 1019 1034
f 1018 1034 1033
f 1019 1020 1035
f 1019 1035 1034
f 1020 1021 1036
f 1020 1036 1035
f 1021 1022 1037
f 1021 1037 1036
f 1022 1023 1038
f 1022 1038 1037
f 872 1023 1038
f 872 1038 874
f 1025 1024 1039
f 1025 1039 1040
f 873 875 1040
f 873 1040 1025
f 1024 1026 1041
f 1024 1041 1039
f 1026 1027 1042
f 1026 1042 1041
f 1027 1028 1043
f 1027 1043 1042
f 1028 1029 1044
f 1028 1044 1043
f 1029 1030 1045
f 1029 1045 1044
f 1030 1031 1046
f 1030 1046 1045
f 1031 1032 1047
f 1031 1047 1046
f 1032 1033 1048
f 1032 1048 1047
f 1033 1034 1049
f 1033 1049 1048
f 1034 1035 1050
f 1034 1050 1049
f 1035 1036 1051
f 1035 1051 1050
f 1036 1037 1052
f 1036 1052 1051
f 1037 1038 1053
f 1037 1053 1052
f 874 1038 1053
f 874 1053 876
f 1040 1039 1054
f 1040 1054 1055
f 875 877 1055
f 875 1055 1040
f 1039 1041 1056
f 1039 1056 1054
f 1041 1042 1057
f 1041 1057 1056
f 1042 1043 1058
f 1042 1058 1057
f 1043 1044 1059
f 1043 1059 1058
f 1044 1045 1060
f 1044 1060 1059
f 1045 1046 1061
f 1045 1061 1060
f 1046 1047 1062
f 1046 1062 1061
f 1047 1048 1063
f 1047 1063 1062
f 1048 1049 1064
f 1048 1064 1063
f 1049 1050 1065
f 1049 1065 1064
f 1050 1051 1066
f 1050 1066 1065
f 1051 1052 1067
f 1051 1067 1066
f 1052 1053 1068
f 1052 1068 1067
f 876 1053 1068
f 876 1068 878
f 1055 1054 1069
f 1055 1069 1070
f 877 879 1070
f 877 1070 1055
f 1054 1056 1071
f 1054 1071 1069
f 1056 1057 1072
f 1056 1072 1071
f 1057 1058 1073
f 1057 1073 1072
f 1058 1059 1074
f 1058 1074 1073
f 1059 1060 1075
f 1059 1075 1074
f 1060 1061 1076
f 1060 1076 1075
f 1061 1062 1077
f 1061 1077 1076
f 1062 1063 1078
f 1062 1078 1077
f 1063 1064 1079
f 1063 1079 1078
f 1064 1065 1080
f 1064 1080 1079
f 1065 1066 1081
f 1065 1081 1080
f 1066 1067 1082
f 1066 1082 1081
f 1067 1068 1083
f 1067 1083 1082
f 878 1068 1083
f 878 1083 880
f 1070 1069 1084
f 1070 1084 1085
f 879 881 1085
f 879 1085 1070
f 1069 1071 1086
f 1069 1086 1084
f 1071 1072 1087
f 1071 1087 1086
f 1072 1073 1088
f 1072 1088 1087
f 1073 1074 1089
f 1073 1089 1088
f 1074 1075 1090
f 1074 1090 1089
f 1075 1076 1091
f 1075 1091 1090
f 1076 1077 1092
f 1076 1092 1091
f 1077 1078 1093
f 1077 1093 1092
f 1078 1079 1094
f 1078 1094 1093
f 1079 1080 1095
f 1079 1095 1094
f 1080 1081 1096
f 1080 1096 1095
f 1081 1082 1097
f 1081 1097 1096
f 1082 1083 1098
f 1082 1098 1097
f 880 1083 1098
f 880 1098 882
f 1085 1084 1099
f 1085 1099 1100
f 881 883 1100
f 881 1100 1085
f 1084 1086 1101
f 1084 1101 1099
f 1086 1087 1102
f 1086 1102 1101
f 1087 1088 1103
f 1087 1103 1102
f 1088 1089 1104
f 1088 1104 1103
f 1089 1090 1105
f 1089 1105 1104
f 1090 1091 1106
f 1090 1106 1105
f 1091 1092 1107
f 1091 1107 1106
f 1092 1093 1108
f 1092 1108 1107
f 1093 1094 1109
f 1093 1109 1108
f 1094 1095 1110
f 1094 1110 1109
f 1095 1096 1111
f 1095 1111 1110
f 1096 1097 1112
f 1096 1112 1111
f 1097 1098 1113
f 1097 1113 1112
f 882 1098 1113
f 882 1113 884
f 1100 1099 1114
f 1100 1114 1115
f 883 885 1115
f 883 1115 1100
f 1099 1101 1116
f 1099 1116 1114
f 1101 1102 1117
f 1101 1117 1116
f 1102 1103 1118
f 1102 1118 1117
f 1103 1104 1119
f 1103 1119 1118
f 1104 1105 1120
f 1104 1120 1119
f 1105 1106 1121
f 1105 1121 1120
f 1106 1107 1122
f 1106 1122 1121
f 1107 1108 1123
f 1107 1123 1122
f 1108 1109 1124
f 1108 1124 1123
f 1109 1110 1125
f 1109 1125 1124
f 1110 1111 1126
f 1110 1126 1125
f 1111 1112 1127
f 1111 1127 1126
f 1112 1113 1128
f 1112 1128 1127
f 884 1113 1128
f 884 1128 886
f 1115 1114 1129
f 1115 1129 1130
f 885 887 1130
f 885 1130 1115
f 1114 1116 1131
f 1114 1131 1129
f 1116 1117 1132
f 1116 1132 1131
f 1117 1118 1133
f 1117 1133 1132
f 1118 1119 1134
f 1118 1134 1133
f 1119 1120 1135
f 1119 1135 1134
f 1120 1121 1136
f 1120 1136 1135
f 1121 1122 1137
f 1121 1137 1136
f 1122 1123 1138
f 1122 1138 1137
f 1123 1124 1139
f 1123 1139 1138
f 1124 1125 1140
f 1124 1140 1139
f 1125 1126 1141
f 1125 1141 1140
f 1126 1127 1142
f 1126 1142 1141
f 1127 1128 1143
f 1127 1143 1142
f 886 1128 1143
f 886 1143 888
f 1130 1129 1144
f 1130 1144 1145
f 890 889 1144
f 890 1144 1145
f 887 890 1145
f 887 1145 1130
f 1129 1131 1146
f 1129 1146 1144
f 889 891 1146
f 889 1146 1144
f 1131 1132 1147
f 1131 1147 1146
f 891 892 1147
f 891 1147 1146
f 1132 1133 1148
f 1132 1148 1147
f 892 893 1148
f 892 1148 1147
f 1133 1134 1149
f 1133 1149 1148
f 893 894 1149
f 893 1149 1148
f 1134 1135 1150
f 1134 1150 1149
f 894 895 1150
f 894 1150 1149
f 1135 1136 1151
f 1135 1151 1150
f 895 896 1151
f 895 1151 1150
f 1136 1137 1152
f 1136 1152 1151
f 896 897 1152
f 896 1152 1151
f 1137 1138 1153
f 1137 1153 1152
f 897 898 1153
f 897 1153 1152
f 1138 1139 1154
f 1138 1154 1153
f 898 899 1154
f 898 1154 1153
f 1139 1140 1155
f 1139 1155 1154
f 899 900 1155
f 899 1155 1154
f 1140 1141 1156
f 1140 1156 1155
f 900 901 1156
f 900 1156 1155
f 1141 1142 1157
f 1141 1157 1156
f 901 902 1157
f 901 1157 1156
f 1142 1143 1158
f 1142 1158 1157
f 902 903 1158
f 902 1158 1157
f 888 1143 1158
f 888 1158 903
