o [4B] 3D Diagram - S2-06 Group B_209
v 0.563750 -14.890000 7.975000
v 0.563750 -14.620000 7.975000
v 0.563750 -14.620000 8.062500
v 0.563750 -14.890000 8.062500
v 1.947500 -14.890000 7.975000
v 1.947500 -14.890000 8.062500
v 1.947500 -14.620000 7.975000
v 0.563750 -14.620000 8.150000
v 0.563750 -14.890000 8.150000
v 1.947500 -14.890000 8.150000
v 0.563750 -14.620000 8.237500
v 0.563750 -14.890000 8.237500
v 1.947500 -14.890000 8.237500
v 0.563750 -14.620000 8.325000
v 0.563750 -14.890000 8.325000
v 1.947500 -14.890000 8.325000
v 0.563750 -14.620000 8.412500
v 0.563750 -14.890000 8.412500
v 1.947500 -14.890000 8.412500
v 0.563750 -14.620000 8.500000
v 0.563750 -14.890000 8.500000
v 1.947500 -14.890000 8.500000
v 0.563750 -14.620000 8.587500
v 0.563750 -14.890000 8.587500
v 1.947500 -14.890000 8.587500
v 0.563750 -14.620000 8.675000
v 0.563750 -14.890000 8.675000
v 1.947500 -14.890000 8.675000
v 0.563750 -14.620000 8.762500
v 0.563750 -14.890000 8.762500
v 1.947500 -14.890000 8.762500
v 0.563750 -14.620000 8.850000
v 0.563750 -14.890000 8.850000
v 1.947500 -14.890000 8.850000
v 0.563750 -14.620000 8.937500
v 0.563750 -14.890000 8.937500
v 1.947500 -14.890000 8.937500
v 0.563750 -14.620000 9.025000
v 0.563750 -14.890000 9.025000
v 1.947500 -14.890000 9.025000
v 1.947500 -14.620000 9.025000
v 0.563750 -14.350000 7.975000
v 0.563750 -14.350000 8.062500
v 1.947500 -14.350000 7.975000
v 0.563750 -14.350000 8.150000
v 0.563750 -14.350000 8.237500
v 0.563750 -14.350000 8.325000
v 0.563750 -14.350000 8.412500
v 0.563750 -14.350000 8.500000
v 0.563750 -14.350000 8.587500
v 0.563750 -14.350000 8.675000
v 0.563750 -14.350000 8.762500
v 0.563750 -14.350000 8.850000
v 0.563750 -14.350000 8.937500
v 0.563750 -14.350000 9.025000
v 1.947500 -14.350000 9.025000
v 0.563750 -14.080000 7.975000
v 0.563750 -14.080000 8.062500
v 1.947500 -14.080000 7.975000
v 0.563750 -14.080000 8.150000
v 0.563750 -14.080000 8.237500
v 0.563750 -14.080000 8.325000
v 0.563750 -14.080000 8.412500
v 0.563750 -14.080000 8.500000
v 0.563750 -14.080000 8.587500
v 0.563750 -14.080000 8.675000
v 0.563750 -14.080000 8.762500
v 0.563750 -14.080000 8.850000
v 0.563750 -14.080000 8.937500
v 0.563750 -14.080000 9.025000
v 1.947500 -14.080000 9.025000
v 0.563750 -13.810000 7.975000
v 0.563750 -13.810000 8.062500
v 1.947500 -13.810000 7.975000
v 0.563750 -13.810000 8.150000
v 0.563750 -13.810000 8.237500
v 0.563750 -13.810000 8.325000
v 0.563750 -13.810000 8.412500
v 0.563750 -13.810000 8.500000
v 0.563750 -13.810000 8.587500
v 0.563750 -13.810000 8.675000
v 0.563750 -13.810000 8.762500
v 0.563750 -13.810000 8.850000
v 0.563750 -13.810000 8.937500
v 0.563750 -13.810000 9.025000
v 1.947500 -13.810000 9.025000
v 0.563750 -13.540000 7.975000
v 0.563750 -13.540000 8.062500
v 1.947500 -13.540000 7.975000
v 0.563750 -13.540000 8.150000
v 0.563750 -13.540000 8.237500
v 0.563750 -13.540000 8.325000
v 0.563750 -13.540000 8.412500
v 0.563750 -13.540000 8.500000
v 0.563750 -13.540000 8.587500
v 0.563750 -13.540000 8.675000
v 0.563750 -13.540000 8.762500
v 0.563750 -13.540000 8.850000
v 0.563750 -13.540000 8.937500
v 0.563750 -13.540000 9.025000
v 1.947500 -13.540000 9.025000
v 0.563750 -13.270000 7.975000
v 0.563750 -13.270000 8.062500
v 1.947500 -13.270000 7.975000
v 0.563750 -13.270000 8.150000
v 0.563750 -13.270000 8.237500
v 0.563750 -13.270000 8.325000
v 0.563750 -13.270000 8.412500
v 0.563750 -13.270000 8.500000
v 0.563750 -13.270000 8.587500
v 0.563750 -13.270000 8.675000
v 0.563750 -13.270000 8.762500
v 0.563750 -13.270000 8.850000
v 0.563750 -13.270000 8.937500
v 0.563750 -13.270000 9.025000
v 1.947500 -13.270000 9.025000
v 0.563750 -13.000000 7.975000
v 0.563750 -13.000000 8.062500
v 1.947500 -13.000000 7.975000
v 0.563750 -13.000000 8.150000
v 0.563750 -13.000000 8.237500
v 0.563750 -13.000000 8.325000
v 0.563750 -13.000000 8.412500
v 0.563750 -13.000000 8.500000
v 0.563750 -13.000000 8.587500
v 0.563750 -13.000000 8.675000
v 0.563750 -13.000000 8.762500
v 0.563750 -13.000000 8.850000
v 0.563750 -13.000000 8.937500
v 0.563750 -13.000000 9.025000
v 1.947500 -13.000000 9.025000
v 0.563750 -12.730000 7.975000
v 0.563750 -12.730000 8.062500
v 1.947500 -12.730000 7.975000
v 0.563750 -12.730000 8.150000
v 0.563750 -12.730000 8.237500
v 0.563750 -12.730000 8.325000
v 0.563750 -12.730000 8.412500
v 0.563750 -12.730000 8.500000
v 0.563750 -12.730000 8.587500
v 0.563750 -12.730000 8.675000
v 0.563750 -12.730000 8.762500
v 0.563750 -12.730000 8.850000
v 0.563750 -12.730000 8.937500
v 0.563750 -12.730000 9.025000
v 1.947500 -12.730000 9.025000
v 0.563750 -12.460000 7.975000
v 0.563750 -12.460000 8.062500
v 1.947500 -12.460000 7.975000
v 0.563750 -12.460000 8.150000
v 0.563750 -12.460000 8.237500
v 0.563750 -12.460000 8.325000
v 0.563750 -12.460000 8.412500
v 0.563750 -12.460000 8.500000
v 0.563750 -12.460000 8.587500
v 0.563750 -12.460000 8.675000
v 0.563750 -12.460000 8.762500
v 0.563750 -12.460000 8.850000
v 0.563750 -12.460000 8.937500
v 0.563750 -12.460000 9.025000
v 1.947500 -12.460000 9.025000
v 0.563750 -12.190000 7.975000
v 0.563750 -12.190000 8.062500
v 1.947500 -12.190000 7.975000
v 0.563750 -12.190000 8.150000
v 0.563750 -12.190000 8.237500
v 0.563750 -12.190000 8.325000
v 0.563750 -12.190000 8.412500
v 0.563750 -12.190000 8.500000
v 0.563750 -12.190000 8.587500
v 0.563750 -12.190000 8.675000
v 0.563750 -12.190000 8.762500
v 0.563750 -12.190000 8.850000
v 0.563750 -12.190000 8.937500
v 0.563750 -12.190000 9.025000
v 1.947500 -12.190000 9.025000
v 0.563750 -11.920000 7.975000
v 0.563750 -11.920000 8.062500
v 1.947500 -11.920000 7.975000
v 0.563750 -11.920000 8.150000
v 0.563750 -11.920000 8.237500
v 0.563750 -11.920000 8.325000
v 0.563750 -11.920000 8.412500
v 0.563750 -11.920000 8.500000
v 0.563750 -11.920000 8.587500
v 0.563750 -11.920000 8.675000
v 0.563750 -11.920000 8.762500
v 0.563750 -11.920000 8.850000
v 0.563750 -11.920000 8.937500
v 0.563750 -11.920000 9.025000
v 1.947500 -11.920000 9.025000
v 0.563750 -11.650000 7.975000
v 0.563750 -11.650000 8.062500
v 1.947500 -11.650000 7.975000
v 0.563750 -11.650000 8.150000
v 0.563750 -11.650000 8.237500
v 0.563750 -11.650000 8.325000
v 0.563750 -11.650000 8.412500
v 0.563750 -11.650000 8.500000
v 0.563750 -11.650000 8.587500
v 0.563750 -11.650000 8.675000
v 0.563750 -11.650000 8.762500
v 0.563750 -11.650000 8.850000
v 0.563750 -11.650000 8.937500
v 0.563750 -11.650000 9.025000
v 1.947500 -11.650000 9.025000
v 0.563750 -11.380000 7.975000
v 0.563750 -11.380000 8.062500
v 1.947500 -11.380000 7.975000
v 0.563750 -11.380000 8.150000
v 0.563750 -11.380000 8.237500
v 0.563750 -11.380000 8.325000
v 0.563750 -11.380000 8.412500
v 0.563750 -11.380000 8.500000
v 0.563750 -11.380000 8.587500
v 0.563750 -11.380000 8.675000
v 0.563750 -11.380000 8.762500
v 0.563750 -11.380000 8.850000
v 0.563750 -11.380000 8.937500
v 0.563750 -11.380000 9.025000
v 1.947500 -11.380000 9.025000
v 0.563750 -11.110000 7.975000
v 0.563750 -11.110000 8.062500
v 1.947500 -11.110000 8.062500
v 1.947500 -11.110000 7.975000
v 0.563750 -11.110000 8.150000
v 1.947500 -11.110000 8.150000
v 0.563750 -11.110000 8.237500
v 1.947500 -11.110000 8.237500
v 0.563750 -11.110000 8.325000
v 1.947500 -11.110000 8.325000
v 0.563750 -11.110000 8.412500
v 1.947500 -11.110000 8.412500
v 0.563750 -11.110000 8.500000
v 1.947500 -11.110000 8.500000
v 0.563750 -11.110000 8.587500
v 1.947500 -11.110000 8.587500
v 0.563750 -11.110000 8.675000
v 1.947500 -11.110000 8.675000
v 0.563750 -11.110000 8.762500
v 1.947500 -11.110000 8.762500
v 0.563750 -11.110000 8.850000
v 1.947500 -11.110000 8.850000
v 0.563750 -11.110000 8.937500
v 1.947500 -11.110000 8.937500
v 0.563750 -11.110000 9.025000
v 1.947500 -11.110000 9.025000
v 3.331250 -14.890000 7.975000
v 3.331250 -14.890000 8.062500
v 3.331250 -14.620000 7.975000
v 3.331250 -14.890000 8.150000
v 3.331250 -14.890000 8.237500
v 3.331250 -14.890000 8.325000
v 3.331250 -14.890000 8.412500
v 3.331250 -14.890000 8.500000
v 3.331250 -14.890000 8.587500
v 3.331250 -14.890000 8.675000
v 3.331250 -14.890000 8.762500
v 3.331250 -14.890000 8.850000
v 3.331250 -14.890000 8.937500
v 3.331250 -14.890000 9.025000
v 3.331250 -14.620000 9.025000
v 3.331250 -14.350000 7.975000
v 3.331250 -14.350000 9.025000
v 3.331250 -14.080000 7.975000
v 3.331250 -14.080000 9.025000
v 3.331250 -13.810000 7.975000
v 3.331250 -13.810000 9.025000
v 3.331250 -13.540000 7.975000
v 3.331250 -13.540000 9.025000
v 3.331250 -13.270000 7.975000
v 3.331250 -13.270000 9.025000
v 3.331250 -13.000000 7.975000
v 3.331250 -13.000000 9.025000
v 3.331250 -12.730000 7.975000
v 3.331250 -12.730000 9.025000
v 3.331250 -12.460000 7.975000
v 3.331250 -12.460000 9.025000
v 3.331250 -12.190000 7.975000
v 3.331250 -12.190000 9.025000
v 3.331250 -11.920000 7.975000
v 3.331250 -11.920000 9.025000
v 3.331250 -11.650000 7.975000
v 3.331250 -11.650000 9.025000
v 3.331250 -11.380000 7.975000
v 3.331250 -11.380000 9.025000
v 3.331250 -11.110000 8.062500
v 3.331250 -11.110000 7.975000
v 3.331250 -11.110000 8.150000
v 3.331250 -11.110000 8.237500
v 3.331250 -11.110000 8.325000
v 3.331250 -11.110000 8.412500
v 3.331250 -11.110000 8.500000
v 3.331250 -11.110000 8.587500
v 3.331250 -11.110000 8.675000
v 3.331250 -11.110000 8.762500
v 3.331250 -11.110000 8.850000
v 3.331250 -11.110000 8.937500
v 3.331250 -11.110000 9.025000
v 4.715000 -14.890000 7.975000
v 4.715000 -14.890000 8.062500
v 4.715000 -14.620000 7.975000
v 4.715000 -14.890000 8.150000
v 4.715000 -14.890000 8.237500
v 4.715000 -14.890000 8.325000
v 4.715000 -14.890000 8.412500
v 4.715000 -14.890000 8.500000
v 4.715000 -14.890000 8.587500
v 4.715000 -14.890000 8.675000
v 4.715000 -14.890000 8.762500
v 4.715000 -14.890000 8.850000
v 4.715000 -14.890000 8.937500
v 4.715000 -14.890000 9.025000
v 4.715000 -14.620000 9.025000
v 4.715000 -14.350000 7.975000
v 4.715000 -14.350000 9.025000
v 4.715000 -14.080000 7.975000
v 4.715000 -14.080000 9.025000
v 4.715000 -13.810000 7.975000
v 4.715000 -13.810000 9.025000
v 4.715000 -13.540000 7.975000
v 4.715000 -13.540000 9.025000
v 4.715000 -13.270000 7.975000
v 4.715000 -13.270000 9.025000
v 4.715000 -13.000000 7.975000
v 4.715000 -13.000000 9.025000
v 4.715000 -12.730000 7.975000
v 4.715000 -12.730000 9.025000
v 4.715000 -12.460000 7.975000
v 4.715000 -12.460000 9.025000
v 4.715000 -12.190000 7.975000
v 4.715000 -12.190000 9.025000
v 4.715000 -11.920000 7.975000
v 4.715000 -11.920000 9.025000
v 4.715000 -11.650000 7.975000
v 4.715000 -11.650000 9.025000
v 4.715000 -11.380000 7.975000
v 4.715000 -11.380000 9.025000
v 4.715000 -11.110000 8.062500
v 4.715000 -11.110000 7.975000
v 4.715000 -11.110000 8.150000
v 4.715000 -11.110000 8.237500
v 4.715000 -11.110000 8.325000
v 4.715000 -11.110000 8.412500
v 4.715000 -11.110000 8.500000
v 4.715000 -11.110000 8.587500
v 4.715000 -11.110000 8.675000
v 4.715000 -11.110000 8.762500
v 4.715000 -11.110000 8.850000
v 4.715000 -11.110000 8.937500
v 4.715000 -11.110000 9.025000
v 6.098750 -14.890000 7.975000
v 6.098750 -14.890000 8.062500
v 6.098750 -14.620000 7.975000
v 6.098750 -14.890000 8.150000
v 6.098750 -14.890000 8.237500
v 6.098750 -14.890000 8.325000
v 6.098750 -14.890000 8.412500
v 6.098750 -14.890000 8.500000
v 6.098750 -14.890000 8.587500
v 6.098750 -14.890000 8.675000
v 6.098750 -14.890000 8.762500
v 6.098750 -14.890000 8.850000
v 6.098750 -14.890000 8.937500
v 6.098750 -14.890000 9.025000
v 6.098750 -14.620000 9.025000
v 6.098750 -14.350000 7.975000
v 6.098750 -14.350000 9.025000
v 6.098750 -14.080000 7.975000
v 6.098750 -14.080000 9.025000
v 6.098750 -13.810000 7.975000
v 6.098750 -13.810000 9.025000
v 6.098750 -13.540000 7.975000
v 6.098750 -13.540000 9.025000
v 6.098750 -13.270000 7.975000
v 6.098750 -13.270000 9.025000
v 6.098750 -13.000000 7.975000
v 6.098750 -13.000000 9.025000
v 6.098750 -12.730000 7.975000
v 6.098750 -12.730000 9.025000
v 6.098750 -12.460000 7.975000
v 6.098750 -12.460000 9.025000
v 6.098750 -12.190000 7.975000
v 6.098750 -12.190000 9.025000
v 6.098750 -11.920000 7.975000
v 6.098750 -11.920000 9.025000
v 6.098750 -11.650000 7.975000
v 6.098750 -11.650000 9.025000
v 6.098750 -11.380000 7.975000
v 6.098750 -11.380000 9.025000
v 6.098750 -11.110000 8.062500
v 6.098750 -11.110000 7.975000
v 6.098750 -11.110000 8.150000
v 6.098750 -11.110000 8.237500
v 6.098750 -11.110000 8.325000
v 6.098750 -11.110000 8.412500
v 6.098750 -11.110000 8.500000
v 6.098750 -11.110000 8.587500
v 6.098750 -11.110000 8.675000
v 6.098750 -11.110000 8.762500
v 6.098750 -11.110000 8.850000
v 6.098750 -11.110000 8.937500
v 6.098750 -11.110000 9.025000
v 7.482500 -14.890000 7.975000
v 7.482500 -14.890000 8.062500
v 7.482500 -14.620000 7.975000
v 7.482500 -14.890000 8.150000
v 7.482500 -14.890000 8.237500
v 7.482500 -14.890000 8.325000
v 7.482500 -14.890000 8.412500
v 7.482500 -14.890000 8.500000
v 7.482500 -14.890000 8.587500
v 7.482500 -14.890000 8.675000
v 7.482500 -14.890000 8.762500
v 7.482500 -14.890000 8.850000
v 7.482500 -14.890000 8.937500
v 7.482500 -14.890000 9.025000
v 7.482500 -14.620000 9.025000
v 7.482500 -14.350000 7.975000
v 7.482500 -14.350000 9.025000
v 7.482500 -14.080000 7.975000
v 7.482500 -14.080000 9.025000
v 7.482500 -13.810000 7.975000
v 7.482500 -13.810000 9.025000
v 7.482500 -13.540000 7.975000
v 7.482500 -13.540000 9.025000
v 7.482500 -13.270000 7.975000
v 7.482500 -13.270000 9.025000
v 7.482500 -13.000000 7.975000
v 7.482500 -13.000000 9.025000
v 7.482500 -12.730000 7.975000
v 7.482500 -12.730000 9.025000
v 7.482500 -12.460000 7.975000
v 7.482500 -12.460000 9.025000
v 7.482500 -12.190000 7.975000
v 7.482500 -12.190000 9.025000
v 7.482500 -11.920000 7.975000
v 7.482500 -11.920000 9.025000
v 7.482500 -11.650000 7.975000
v 7.482500 -11.650000 9.025000
v 7.482500 -11.380000 7.975000
v 7.482500 -11.380000 9.025000
v 7.482500 -11.110000 8.062500
v 7.482500 -11.110000 7.975000
v 7.482500 -11.110000 8.150000
v 7.482500 -11.110000 8.237500
v 7.482500 -11.110000 8.325000
v 7.482500 -11.110000 8.412500
v 7.482500 -11.110000 8.500000
v 7.482500 -11.110000 8.587500
v 7.482500 -11.110000 8.675000
v 7.482500 -11.110000 8.762500
v 7.482500 -11.110000 8.850000
v 7.482500 -11.110000 8.937500
v 7.482500 -11.110000 9.025000
v 8.866250 -14.890000 7.975000
v 8.866250 -14.890000 8.062500
v 8.866250 -14.620000 7.975000
v 8.866250 -14.890000 8.150000
v 8.866250 -14.890000 8.237500
v 8.866250 -14.890000 8.325000
v 8.866250 -14.890000 8.412500
v 8.866250 -14.890000 8.500000
v 8.866250 -14.890000 8.587500
v 8.866250 -14.890000 8.675000
v 8.866250 -14.890000 8.762500
v 8.866250 -14.890000 8.850000
v 8.866250 -14.890000 8.937500
v 8.866250 -14.890000 9.025000
v 8.866250 -14.620000 9.025000
v 8.866250 -14.350000 7.975000
v 8.866250 -14.350000 9.025000
v 8.866250 -14.080000 7.975000
v 8.866250 -14.080000 9.025000
v 8.866250 -13.810000 7.975000
v 8.866250 -13.810000 9.025000
v 8.866250 -13.540000 7.975000
v 8.866250 -13.540000 9.025000
v 8.866250 -13.270000 7.975000
v 8.866250 -13.270000 9.025000
v 8.866250 -13.000000 7.975000
v 8.866250 -13.000000 9.025000
v 8.866250 -12.730000 7.975000
v 8.866250 -12.730000 9.025000
v 8.866250 -12.460000 7.975000
v 8.866250 -12.460000 9.025000
v 8.866250 -12.190000 7.975000
v 8.866250 -12.190000 9.025000
v 8.866250 -11.920000 7.975000
v 8.866250 -11.920000 9.025000
v 8.866250 -11.650000 7.975000
v 8.866250 -11.650000 9.025000
v 8.866250 -11.380000 7.975000
v 8.866250 -11.380000 9.025000
v 8.866250 -11.110000 8.062500
v 8.866250 -11.110000 7.975000
v 8.866250 -11.110000 8.150000
v 8.866250 -11.110000 8.237500
v 8.866250 -11.110000 8.325000
v 8.866250 -11.110000 8.412500
v 8.866250 -11.110000 8.500000
v 8.866250 -11.110000 8.587500
v 8.866250 -11.110000 8.675000
v 8.866250 -11.110000 8.762500
v 8.866250 -11.110000 8.850000
v 8.866250 -11.110000 8.937500
v 8.866250 -11.110000 9.025000
v 10.250000 -14.890000 7.975000
v 10.250000 -14.890000 8.062500
v 10.250000 -14.620000 7.975000
v 10.250000 -14.890000 8.150000
v 10.250000 -14.890000 8.237500
v 10.250000 -14.890000 8.325000
v 10.250000 -14.890000 8.412500
v 10.250000 -14.890000 8.500000
v 10.250000 -14.890000 8.587500
v 10.250000 -14.890000 8.675000
v 10.250000 -14.890000 8.762500
v 10.250000 -14.890000 8.850000
v 10.250000 -14.890000 8.937500
v 10.250000 -14.890000 9.025000
v 10.250000 -14.620000 9.025000
v 10.250000 -14.350000 7.975000
v 10.250000 -14.350000 9.025000
v 10.250000 -14.080000 7.975000
v 10.250000 -14.080000 9.025000
v 10.250000 -13.810000 7.975000
v 10.250000 -13.810000 9.025000
v 10.250000 -13.540000 7.975000
v 10.250000 -13.540000 9.025000
v 10.250000 -13.270000 7.975000
v 10.250000 -13.270000 9.025000
v 10.250000 -13.000000 7.975000
v 10.250000 -13.000000 9.025000
v 10.250000 -12.730000 7.975000
v 10.250000 -12.730000 9.025000
v 10.250000 -12.460000 7.975000
v 10.250000 -12.460000 9.025000
v 10.250000 -12.190000 7.975000
v 10.250000 -12.190000 9.025000
v 10.250000 -11.920000 7.975000
v 10.250000 -11.920000 9.025000
v 10.250000 -11.650000 7.975000
v 10.250000 -11.650000 9.025000
v 10.250000 -11.380000 7.975000
v 10.250000 -11.380000 9.025000
v 10.250000 -11.110000 8.062500
v 10.250000 -11.110000 7.975000
v 10.250000 -11.110000 8.150000
v 10.250000 -11.110000 8.237500
v 10.250000 -11.110000 8.325000
v 10.250000 -11.110000 8.412500
v 10.250000 -11.110000 8.500000
v 10.250000 -11.110000 8.587500
v 10.250000 -11.110000 8.675000
v 10.250000 -11.110000 8.762500
v 10.250000 -11.110000 8.850000
v 10.250000 -11.110000 8.937500
v 10.250000 -11.110000 9.025000
v 11.633750 -14.890000 7.975000
v 11.633750 -14.890000 8.062500
v 11.633750 -14.620000 7.975000
v 11.633750 -14.890000 8.150000
v 11.633750 -14.890000 8.237500
v 11.633750 -14.890000 8.325000
v 11.633750 -14.890000 8.412500
v 11.633750 -14.890000 8.500000
v 11.633750 -14.890000 8.587500
v 11.633750 -14.890000 8.675000
v 11.633750 -14.890000 8.762500
v 11.633750 -14.890000 8.850000
v 11.633750 -14.890000 8.937500
v 11.633750 -14.890000 9.025000
v 11.633750 -14.620000 9.025000
v 11.633750 -14.350000 7.975000
v 11.633750 -14.350000 9.025000
v 11.633750 -14.080000 7.975000
v 11.633750 -14.080000 9.025000
v 11.633750 -13.810000 7.975000
v 11.633750 -13.810000 9.025000
v 11.633750 -13.540000 7.975000
v 11.633750 -13.540000 9.025000
v 11.633750 -13.270000 7.975000
v 11.633750 -13.270000 9.025000
v 11.633750 -13.000000 7.975000
v 11.633750 -13.000000 9.025000
v 11.633750 -12.730000 7.975000
v 11.633750 -12.730000 9.025000
v 11.633750 -12.460000 7.975000
v 11.633750 -12.460000 9.025000
v 11.633750 -12.190000 7.975000
v 11.633750 -12.190000 9.025000
v 11.633750 -11.920000 7.975000
v 11.633750 -11.920000 9.025000
v 11.633750 -11.650000 7.975000
v 11.633750 -11.650000 9.025000
v 11.633750 -11.380000 7.975000
v 11.633750 -11.380000 9.025000
v 11.633750 -11.110000 8.062500
v 11.633750 -11.110000 7.975000
v 11.633750 -11.110000 8.150000
v 11.633750 -11.110000 8.237500
v 11.633750 -11.110000 8.325000
v 11.633750 -11.110000 8.412500
v 11.633750 -11.110000 8.500000
v 11.633750 -11.110000 8.587500
v 11.633750 -11.110000 8.675000
v 11.633750 -11.110000 8.762500
v 11.633750 -11.110000 8.850000
v 11.633750 -11.110000 8.937500
v 11.633750 -11.110000 9.025000
v 13.017500 -14.890000 7.975000
v 13.017500 -14.890000 8.062500
v 13.017500 -14.620000 7.975000
v 13.017500 -14.890000 8.150000
v 13.017500 -14.890000 8.237500
v 13.017500 -14.890000 8.325000
v 13.017500 -14.890000 8.412500
v 13.017500 -14.890000 8.500000
v 13.017500 -14.890000 8.587500
v 13.017500 -14.890000 8.675000
v 13.017500 -14.890000 8.762500
v 13.017500 -14.890000 8.850000
v 13.017500 -14.890000 8.937500
v 13.017500 -14.890000 9.025000
v 13.017500 -14.620000 9.025000
v 13.017500 -14.350000 7.975000
v 13.017500 -14.350000 9.025000
v 13.017500 -14.080000 7.975000
v 13.017500 -14.080000 9.025000
v 13.017500 -13.810000 7.975000
v 13.017500 -13.810000 9.025000
v 13.017500 -13.540000 7.975000
v 13.017500 -13.540000 9.025000
v 13.017500 -13.270000 7.975000
v 13.017500 -13.270000 9.025000
v 13.017500 -13.000000 7.975000
v 13.017500 -13.000000 9.025000
v 13.017500 -12.730000 7.975000
v 13.017500 -12.730000 9.025000
v 13.017500 -12.460000 7.975000
v 13.017500 -12.460000 9.025000
v 13.017500 -12.190000 7.975000
v 13.017500 -12.190000 9.025000
v 13.017500 -11.920000 7.975000
v 13.017500 -11.920000 9.025000
v 13.017500 -11.650000 7.975000
v 13.017500 -11.650000 9.025000
v 13.017500 -11.380000 7.975000
v 13.017500 -11.380000 9.025000
v 13.017500 -11.110000 8.062500
v 13.017500 -11.110000 7.975000
v 13.017500 -11.110000 8.150000
v 13.017500 -11.110000 8.237500
v 13.017500 -11.110000 8.325000
v 13.017500 -11.110000 8.412500
v 13.017500 -11.110000 8.500000
v 13.017500 -11.110000 8.587500
v 13.017500 -11.110000 8.675000
v 13.017500 -11.110000 8.762500
v 13.017500 -11.110000 8.850000
v 13.017500 -11.110000 8.937500
v 13.017500 -11.110000 9.025000
v 14.401250 -14.890000 7.975000
v 14.401250 -14.890000 8.062500
v 14.401250 -14.620000 7.975000
v 14.401250 -14.890000 8.150000
v 14.401250 -14.890000 8.237500
v 14.401250 -14.890000 8.325000
v 14.401250 -14.890000 8.412500
v 14.401250 -14.890000 8.500000
v 14.401250 -14.890000 8.587500
v 14.401250 -14.890000 8.675000
v 14.401250 -14.890000 8.762500
v 14.401250 -14.890000 8.850000
v 14.401250 -14.890000 8.937500
v 14.401250 -14.890000 9.025000
v 14.401250 -14.620000 9.025000
v 14.401250 -14.350000 7.975000
v 14.401250 -14.350000 9.025000
v 14.401250 -14.080000 7.975000
v 14.401250 -14.080000 9.025000
v 14.401250 -13.810000 7.975000
v 14.401250 -13.810000 9.025000
v 14.401250 -13.540000 7.975000
v 14.401250 -13.540000 9.025000
v 14.401250 -13.270000 7.975000
v 14.401250 -13.270000 9.025000
v 14.401250 -13.000000 7.975000
v 14.401250 -13.000000 9.025000
v 14.401250 -12.730000 7.975000
v 14.401250 -12.730000 9.025000
v 14.401250 -12.460000 7.975000
v 14.401250 -12.460000 9.025000
v 14.401250 -12.190000 7.975000
v 14.401250 -12.190000 9.025000
v 14.401250 -11.920000 7.975000
v 14.401250 -11.920000 9.025000
v 14.401250 -11.650000 7.975000
v 14.401250 -11.650000 9.025000
v 14.401250 -11.380000 7.975000
v 14.401250 -11.380000 9.025000
v 14.401250 -11.110000 8.062500
v 14.401250 -11.110000 7.975000
v 14.401250 -11.110000 8.150000
v 14.401250 -11.110000 8.237500
v 14.401250 -11.110000 8.325000
v 14.401250 -11.110000 8.412500
v 14.401250 -11.110000 8.500000
v 14.401250 -11.110000 8.587500
v 14.401250 -11.110000 8.675000
v 14.401250 -11.110000 8.762500
v 14.401250 -11.110000 8.850000
v 14.401250 -11.110000 8.937500
v 14.401250 -11.110000 9.025000
v 15.785000 -14.890000 7.975000
v 15.785000 -14.890000 8.062500
v 15.785000 -14.620000 7.975000
v 15.785000 -14.890000 8.150000
v 15.785000 -14.890000 8.237500
v 15.785000 -14.890000 8.325000
v 15.785000 -14.890000 8.412500
v 15.785000 -14.890000 8.500000
v 15.785000 -14.890000 8.587500
v 15.785000 -14.890000 8.675000
v 15.785000 -14.890000 8.762500
v 15.785000 -14.890000 8.850000
v 15.785000 -14.890000 8.937500
v 15.785000 -14.890000 9.025000
v 15.785000 -14.620000 9.025000
v 15.785000 -14.350000 7.975000
v 15.785000 -14.350000 9.025000
v 15.785000 -14.080000 7.975000
v 15.785000 -14.080000 9.025000
v 15.785000 -13.810000 7.975000
v 15.785000 -13.810000 9.025000
v 15.785000 -13.540000 7.975000
v 15.785000 -13.540000 9.025000
v 15.785000 -13.270000 7.975000
v 15.785000 -13.270000 9.025000
v 15.785000 -13.000000 7.975000
v 15.785000 -13.000000 9.025000
v 15.785000 -12.730000 7.975000
v 15.785000 -12.730000 9.025000
v 15.785000 -12.460000 7.975000
v 15.785000 -12.460000 9.025000
v 15.785000 -12.190000 7.975000
v 15.785000 -12.190000 9.025000
v 15.785000 -11.920000 7.975000
v 15.785000 -11.920000 9.025000
v 15.785000 -11.650000 7.975000
v 15.785000 -11.650000 9.025000
v 15.785000 -11.380000 7.975000
v 15.785000 -11.380000 9.025000
v 15.785000 -11.110000 8.062500
v 15.785000 -11.110000 7.975000
v 15.785000 -11.110000 8.150000
v 15.785000 -11.110000 8.237500
v 15.785000 -11.110000 8.325000
v 15.785000 -11.110000 8.412500
v 15.785000 -11.110000 8.500000
v 15.785000 -11.110000 8.587500
v 15.785000 -11.110000 8.675000
v 15.785000 -11.110000 8.762500
v 15.785000 -11.110000 8.850000
v 15.785000 -11.110000 8.937500
v 15.785000 -11.110000 9.025000
v 17.168750 -14.890000 7.975000
v 17.168750 -14.890000 8.062500
v 17.168750 -14.620000 8.062500
v 17.168750 -14.620000 7.975000
v 17.168750 -14.890000 8.150000
v 17.168750 -14.620000 8.150000
v 17.168750 -14.890000 8.237500
v 17.168750 -14.620000 8.237500
v 17.168750 -14.890000 8.325000
v 17.168750 -14.620000 8.325000
v 17.168750 -14.890000 8.412500
v 17.168750 -14.620000 8.412500
v 17.168750 -14.890000 8.500000
v 17.168750 -14.620000 8.500000
v 17.168750 -14.890000 8.587500
v 17.168750 -14.620000 8.587500
v 17.168750 -14.890000 8.675000
v 17.168750 -14.620000 8.675000
v 17.168750 -14.890000 8.762500
v 17.168750 -14.620000 8.762500
v 17.168750 -14.890000 8.850000
v 17.168750 -14.620000 8.850000
v 17.168750 -14.890000 8.937500
v 17.168750 -14.620000 8.937500
v 17.168750 -14.890000 9.025000
v 17.168750 -14.620000 9.025000
v 17.168750 -14.350000 8.062500
v 17.168750 -14.350000 7.975000
v 17.168750 -14.350000 8.150000
v 17.168750 -14.350000 8.237500
v 17.168750 -14.350000 8.325000
v 17.168750 -14.350000 8.412500
v 17.168750 -14.350000 8.500000
v 17.168750 -14.350000 8.587500
v 17.168750 -14.350000 8.675000
v 17.168750 -14.350000 8.762500
v 17.168750 -14.350000 8.850000
v 17.168750 -14.350000 8.937500
v 17.168750 -14.350000 9.025000
v 17.168750 -14.080000 8.062500
v 17.168750 -14.080000 7.975000
v 17.168750 -14.080000 8.150000
v 17.168750 -14.080000 8.237500
v 17.168750 -14.080000 8.325000
v 17.168750 -14.080000 8.412500
v 17.168750 -14.080000 8.500000
v 17.168750 -14.080000 8.587500
v 17.168750 -14.080000 8.675000
v 17.168750 -14.080000 8.762500
v 17.168750 -14.080000 8.850000
v 17.168750 -14.080000 8.937500
v 17.168750 -14.080000 9.025000
v 17.168750 -13.810000 8.062500
v 17.168750 -13.810000 7.975000
v 17.168750 -13.810000 8.150000
v 17.168750 -13.810000 8.237500
v 17.168750 -13.810000 8.325000
v 17.168750 -13.810000 8.412500
v 17.168750 -13.810000 8.500000
v 17.168750 -13.810000 8.587500
v 17.168750 -13.810000 8.675000
v 17.168750 -13.810000 8.762500
v 17.168750 -13.810000 8.850000
v 17.168750 -13.810000 8.937500
v 17.168750 -13.810000 9.025000
v 17.168750 -13.540000 8.062500
v 17.168750 -13.540000 7.975000
v 17.168750 -13.540000 8.150000
v 17.168750 -13.540000 8.237500
v 17.168750 -13.540000 8.325000
v 17.168750 -13.540000 8.412500
v 17.168750 -13.540000 8.500000
v 17.168750 -13.540000 8.587500
v 17.168750 -13.540000 8.675000
v 17.168750 -13.540000 8.762500
v 17.168750 -13.540000 8.850000
v 17.168750 -13.540000 8.937500
v 17.168750 -13.540000 9.025000
v 17.168750 -13.270000 7.975000
v 17.168750 -13.270000 9.025000
v 17.168750 -13.000000 7.975000
v 17.168750 -13.000000 9.025000
v 17.168750 -12.730000 7.975000
v 17.168750 -12.730000 9.025000
v 17.168750 -12.460000 7.975000
v 17.168750 -12.460000 9.025000
v 17.168750 -12.190000 7.975000
v 17.168750 -12.190000 9.025000
v 17.168750 -11.920000 7.975000
v 17.168750 -11.920000 9.025000
v 17.168750 -11.650000 7.975000
v 17.168750 -11.650000 9.025000
v 17.168750 -11.380000 7.975000
v 17.168750 -11.380000 9.025000
v 17.168750 -11.110000 8.062500
v 17.168750 -11.110000 7.975000
v 17.168750 -11.110000 8.150000
v 17.168750 -11.110000 8.237500
v 17.168750 -11.110000 8.325000
v 17.168750 -11.110000 8.412500
v 17.168750 -11.110000 8.500000
v 17.168750 -11.110000 8.587500
v 17.168750 -11.110000 8.675000
v 17.168750 -11.110000 8.762500
v 17.168750 -11.110000 8.850000
v 17.168750 -11.110000 8.937500
v 17.168750 -11.110000 9.025000
v 18.552500 -13.540000 7.975000
v 18.552500 -13.540000 8.062500
v 18.552500 -13.270000 8.062500
v 18.552500 -13.270000 7.975000
v 18.552500 -13.540000 8.150000
v 18.552500 -13.270000 8.150000
v 18.552500 -13.540000 8.237500
v 18.552500 -13.270000 8.237500
v 18.552500 -13.540000 8.325000
v 18.552500 -13.270000 8.325000
v 18.552500 -13.540000 8.412500
v 18.552500 -13.270000 8.412500
v 18.552500 -13.540000 8.500000
v 18.552500 -13.270000 8.500000
v 18.552500 -13.540000 8.587500
v 18.552500 -13.270000 8.587500
v 18.552500 -13.540000 8.675000
v 18.552500 -13.270000 8.675000
v 18.552500 -13.540000 8.762500
v 18.552500 -13.270000 8.762500
v 18.552500 -13.540000 8.850000
v 18.552500 -13.270000 8.850000
v 18.552500 -13.540000 8.937500
v 18.552500 -13.270000 8.937500
v 18.552500 -13.540000 9.025000
v 18.552500 -13.270000 9.025000
v 18.552500 -13.000000 8.062500
v 18.552500 -13.000000 7.975000
v 18.552500 -13.000000 8.150000
v 18.552500 -13.000000 8.237500
v 18.552500 -13.000000 8.325000
v 18.552500 -13.000000 8.412500
v 18.552500 -13.000000 8.500000
v 18.552500 -13.000000 8.587500
v 18.552500 -13.000000 8.675000
v 18.552500 -13.000000 8.762500
v 18.552500 -13.000000 8.850000
v 18.552500 -13.000000 8.937500
v 18.552500 -13.000000 9.025000
v 18.552500 -12.730000 8.062500
v 18.552500 -12.730000 7.975000
v 18.552500 -12.730000 8.150000
v 18.552500 -12.730000 8.237500
v 18.552500 -12.730000 8.325000
v 18.552500 -12.730000 8.412500
v 18.552500 -12.730000 8.500000
v 18.552500 -12.730000 8.587500
v 18.552500 -12.730000 8.675000
v 18.552500 -12.730000 8.762500
v 18.552500 -12.730000 8.850000
v 18.552500 -12.730000 8.937500
v 18.552500 -12.730000 9.025000
v 18.552500 -12.460000 8.062500
v 18.552500 -12.460000 7.975000
v 18.552500 -12.460000 8.150000
v 18.552500 -12.460000 8.237500
v 18.552500 -12.460000 8.325000
v 18.552500 -12.460000 8.412500
v 18.552500 -12.460000 8.500000
v 18.552500 -12.460000 8.587500
v 18.552500 -12.460000 8.675000
v 18.552500 -12.460000 8.762500
v 18.552500 -12.460000 8.850000
v 18.552500 -12.460000 8.937500
v 18.552500 -12.460000 9.025000
v 18.552500 -12.190000 8.062500
v 18.552500 -12.190000 7.975000
v 18.552500 -12.190000 8.150000
v 18.552500 -12.190000 8.237500
v 18.552500 -12.190000 8.325000
v 18.552500 -12.190000 8.412500
v 18.552500 -12.190000 8.500000
v 18.552500 -12.190000 8.587500
v 18.552500 -12.190000 8.675000
v 18.552500 -12.190000 8.762500
v 18.552500 -12.190000 8.850000
v 18.552500 -12.190000 8.937500
v 18.552500 -12.190000 9.025000
v 18.552500 -11.920000 7.975000
v 18.552500 -11.920000 9.025000
v 18.552500 -11.650000 7.975000
v 18.552500 -11.650000 9.025000
v 18.552500 -11.380000 7.975000
v 18.552500 -11.380000 9.025000
v 18.552500 -11.110000 8.062500
v 18.552500 -11.110000 7.975000
v 18.552500 -11.110000 8.150000
v 18.552500 -11.110000 8.237500
v 18.552500 -11.110000 8.325000
v 18.552500 -11.110000 8.412500
v 18.552500 -11.110000 8.500000
v 18.552500 -11.110000 8.587500
v 18.552500 -11.110000 8.675000
v 18.552500 -11.110000 8.762500
v 18.552500 -11.110000 8.850000
v 18.552500 -11.110000 8.937500
v 18.552500 -11.110000 9.025000
v 19.936250 -12.190000 7.975000
v 19.936250 -12.190000 8.062500
v 19.936250 -11.920000 8.062500
v 19.936250 -11.920000 7.975000
v 19.936250 -12.190000 8.150000
v 19.936250 -11.920000 8.150000
v 19.936250 -12.190000 8.237500
v 19.936250 -11.920000 8.237500
v 19.936250 -12.190000 8.325000
v 19.936250 -11.920000 8.325000
v 19.936250 -12.190000 8.412500
v 19.936250 -11.920000 8.412500
v 19.936250 -12.190000 8.500000
v 19.936250 -11.920000 8.500000
v 19.936250 -12.190000 8.587500
v 19.936250 -11.920000 8.587500
v 19.936250 -12.190000 8.675000
v 19.936250 -11.920000 8.675000
v 19.936250 -12.190000 8.762500
v 19.936250 -11.920000 8.762500
v 19.936250 -12.190000 8.850000
v 19.936250 -11.920000 8.850000
v 19.936250 -12.190000 8.937500
v 19.936250 -11.920000 8.937500
v 19.936250 -12.190000 9.025000
v 19.936250 -11.920000 9.025000
v 19.936250 -11.650000 8.062500
v 19.936250 -11.650000 7.975000
v 19.936250 -11.650000 8.150000
v 19.936250 -11.650000 8.237500
v 19.936250 -11.650000 8.325000
v 19.936250 -11.650000 8.412500
v 19.936250 -11.650000 8.500000
v 19.936250 -11.650000 8.587500
v 19.936250 -11.650000 8.675000
v 19.936250 -11.650000 8.762500
v 19.936250 -11.650000 8.850000
v 19.936250 -11.650000 8.937500
v 19.936250 -11.650000 9.025000
v 19.936250 -11.380000 8.062500
v 19.936250 -11.380000 7.975000
v 19.936250 -11.380000 8.150000
v 19.936250 -11.380000 8.237500
v 19.936250 -11.380000 8.325000
v 19.936250 -11.380000 8.412500
v 19.936250 -11.380000 8.500000
v 19.936250 -11.380000 8.587500
v 19.936250 -11.380000 8.675000
v 19.936250 -11.380000 8.762500
v 19.936250 -11.380000 8.850000
v 19.936250 -11.380000 8.937500
v 19.936250 -11.380000 9.025000
v 19.936250 -11.110000 8.062500
v 19.936250 -11.110000 7.975000
v 19.936250 -11.110000 8.150000
v 19.936250 -11.110000 8.237500
v 19.936250 -11.110000 8.325000
v 19.936250 -11.110000 8.412500
v 19.936250 -11.110000 8.500000
v 19.936250 -11.110000 8.587500
v 19.936250 -11.110000 8.675000
v 19.936250 -11.110000 8.762500
v 19.936250 -11.110000 8.850000
v 19.936250 -11.110000 8.937500
v 19.936250 -11.110000 9.025000
f 1 2 3
f 1 3 4
f 1 5 6
f 1 6 4
f 1 2 7
f 1 7 5
f 4 3 8
f 4 8 9
f 4 6 10
f 4 10 9
f 9 8 11
f 9 11 12
f 9 10 13
f 9 13 12
f 12 11 14
f 12 14 15
f 12 13 16
f 12 16 15
f 15 14 17
f 15 17 18
f 15 16 19
f 15 19 18
f 18 17 20
f 18 20 21
f 18 19 22
f 18 22 21
f 21 20 23
f 21 23 24
f 21 22 25
f 21 25 24
f 24 23 26
f 24 26 27
f 24 25 28
f 24 28 27
f 27 26 29
f 27 29 30
f 27 28 31
f 27 31 30
f 30 29 32
f 30 32 33
f 30 31 34
f 30 34 33
f 33 32 35
f 33 35 36
f 33 34 37
f 33 37 36
f 36 35 38
f 36 38 39
f 36 37 40
f 36 40 39
f 39 40 41
f 39 41 38
f 2 42 43
f 2 43 3
f 2 42 44
f 2 44 7
f 3 43 45
f 3 45 8
f 8 45 46
f 8 46 11
f 11 46 47
f 11 47 14
f 14 47 48
f 14 48 17
f 17 48 49
f 17 49 20
f 20 49 50
f 20 50 23
f 23 50 51
f 23 51 26
f 26 51 52
f 26 52 29
f 29 52 53
f 29 53 32
f 32 53 54
f 32 54 35
f 35 54 55
f 35 55 38
f 38 41 56
f 38 56 55
f 42 57 58
f 42 58 43
f 42 57 59
f 42 59 44
f 43 58 60
f 43 60 45
f 45 60 61
f 45 61 46
f 46 61 62
f 46 62 47
f 47 62 63
f 47 63 48
f 48 63 64
f 48 64 49
f 49 64 65
f 49 65 50
f 50 65 66
f 50 66 51
f 51 66 67
f 51 67 52
f 52 67 68
f 52 68 53
f 53 68 69
f 53 69 54
f 54 69 70
f 54 70 55
f 55 56 71
f 55 71 70
f 57 72 73
f 57 73 58
f 57 72 74
f 57 74 59
f 58 73 75
f 58 75 60
f 60 75 76
f 60 76 61
f 61 76 77
f 61 77 62
f 62 77 78
f 62 78 63
f 63 78 79
f 63 79 64
f 64 79 80
f 64 80 65
f 65 80 81
f 65 81 66
f 66 81 82
f 66 82 67
f 67 82 83
f 67 83 68
f 68 83 84
f 68 84 69
f 69 84 85
f 69 85 70
f 70 71 86
f 70 86 85
f 72 87 88
f 72 88 73
f 72 87 89
f 72 89 74
f 73 88 90
f 73 90 75
f 75 90 91
f 75 91 76
f 76 91 92
f 76 92 77
f 77 92 93
f 77 93 78
f 78 93 94
f 78 94 79
f 79 94 95
f 79 95 80
f 80 95 96
f 80 96 81
f 81 96 97
f 81 97 82
f 82 97 98
f 82 98 83
f 83 98 99
f 83 99 84
f 84 99 100
f 84 100 85
f 85 86 101
f 85 101 100
f 87 102 103
f 87 103 88
f 87 102 104
f 87 104 89
f 88 103 105
f 88 105 90
f 90 105 106
f 90 106 91
f 91 106 107
f 91 107 92
f 92 107 108
f 92 108 93
f 93 108 109
f 93 109 94
f 94 109 110
f 94 110 95
f 95 110 111
f 95 111 96
f 96 111 112
f 96 112 97
f 97 112 113
f 97 113 98
f 98 113 114
f 98 114 99
f 99 114 115
f 99 115 100
f 100 101 116
f 100 116 115
f 102 117 118
f 102 118 103
f 102 117 119
f 102 119 104
f 103 118 120
f 103 120 105
f 105 120 121
f 105 121 106
f 106 121 122
f 106 122 107
f 107 122 123
f 107 123 108
f 108 123 124
f 108 124 109
f 109 124 125
f 109 125 110
f 110 125 126
f 110 126 111
f 111 126 127
f 111 127 112
f 112 127 128
f 112 128 113
f 113 128 129
f 113 129 114
f 114 129 130
f 114 130 115
f 115 116 131
f 115 131 130
f 117 132 133
f 117 133 118
f 117 132 134
f 117 134 119
f 118 133 135
f 118 135 120
f 120 135 136
f 120 136 121
f 121 136 137
f 121 137 122
f 122 137 138
f 122 138 123
f 123 138 139
f 123 139 124
f 124 139 140
f 124 140 125
f 125 140 141
f 125 141 126
f 126 141 142
f 126 142 127
f 127 142 143
f 127 143 128
f 128 143 144
f 128 144 129
f 129 144 145
f 129 145 130
f 130 131 146
f 130 146 145
f 132 147 148
f 132 148 133
f 132 147 149
f 132 149 134
f 133 148 150
f 133 150 135
f 135 150 151
f 135 151 136
f 136 151 152
f 136 152 137
f 137 152 153
f 137 153 138
f 138 153 154
f 138 154 139
f 139 154 155
f 139 155 140
f 140 155 156
f 140 156 141
f 141 156 157
f 141 157 142
f 142 157 158
f 142 158 143
f 143 158 159
f 143 159 144
f 144 159 160
f 144 160 145
f 145 146 161
f 145 161 160
f 147 162 163
f 147 163 148
f 147 162 164
f 147 164 149
f 148 163 165
f 148 165 150
f 150 165 166
f 150 166 151
f 151 166 167
f 151 167 152
f 152 167 168
f 152 168 153
f 153 168 169
f 153 169 154
f 154 169 170
f 154 170 155
f 155 170 171
f 155 171 156
f 156 171 172
f 156 172 157
f 157 172 173
f 157 173 158
f 158 173 174
f 158 174 159
f 159 174 175
f 159 175 160
f 160 161 176
f 160 176 175
f 162 177 178
f 162 178 163
f 162 177 179
f 162 179 164
f 163 178 180
f 163 180 165
f 165 180 181
f 165 181 166
f 166 181 182
f 166 182 167
f 167 182 183
f 167 183 168
f 168 183 184
f 168 184 169
f 169 184 185
f 169 185 170
f 170 185 186
f 170 186 171
f 171 186 187
f 171 187 172
f 172 187 188
f 172 188 173
f 173 188 189
f 173 189 174
f 174 189 190
f 174 190 175
f 175 176 191
f 175 191 190
f 177 192 193
f 177 193 178
f 177 192 194
f 177 194 179
f 178 193 195
f 178 195 180
f 180 195 196
f 180 196 181
f 181 196 197
f 181 197 182
f 182 197 198
f 182 198 183
f 183 198 199
f 183 199 184
f 184 199 200
f 184 200 185
f 185 200 201
f 185 201 186
f 186 201 202
f 186 202 187
f 187 202 203
f 187 203 188
f 188 203 204
f 188 204 189
f 189 204 205
f 189 205 190
f 190 191 206
f 190 206 205
f 192 207 208
f 192 208 193
f 192 207 209
f 192 209 194
f 193 208 210
f 193 210 195
f 195 210 211
f 195 211 196
f 196 211 212
f 196 212 197
f 197 212 213
f 197 213 198
f 198 213 214
f 198 214 199
f 199 214 215
f 199 215 200
f 200 215 216
f 200 216 201
f 201 216 217
f 201 217 202
f 202 217 218
f 202 218 203
f 203 218 219
f 203 219 204
f 204 219 220
f 204 220 205
f 205 206 221
f 205 221 220
f 207 222 223
f 207 223 208
f 222 223 224
f 222 224 225
f 207 222 225
f 207 225 209
f 208 223 226
f 208 226 210
f 223 226 227
f 223 227 224
f 210 226 228
f 210 228 211
f 226 228 229
f 226 229 227
f 211 228 230
f 211 230 212
f 228 230 231
f 228 231 229
f 212 230 232
f 212 232 213
f 230 232 233
f 230 233 231
f 213 232 234
f 213 234 214
f 232 234 235
f 232 235 233
f 214 234 236
f 214 236 215
f 234 236 237
f 234 237 235
f 215 236 238
f 215 238 216
f 236 238 239
f 236 239 237
f 216 238 240
f 216 240 217
f 238 240 241
f 238 241 239
f 217 240 242
f 217 242 218
f 240 242 243
f 240 243 241
f 218 242 244
f 218 244 219
f 242 244 245
f 242 245 243
f 219 244 246
f 219 246 220
f 244 246 247
f 244 247 245
f 220 221 247
f 220 247 246
f 5 248 249
f 5 249 6
f 5 7 250
f 5 250 248
f 6 249 251
f 6 251 10
f 10 251 252
f 10 252 13
f 13 252 253
f 13 253 16
f 16 253 254
f 16 254 19
f 19 254 255
f 19 255 22
f 22 255 256
f 22 256 25
f 25 256 257
f 25 257 28
f 28 257 258
f 28 258 31
f 31 258 259
f 31 259 34
f 34 259 260
f 34 260 37
f 37 260 261
f 37 261 40
f 40 261 262
f 40 262 41
f 7 44 263
f 7 263 250
f 41 262 264
f 41 264 56
f 44 59 265
f 44 265 263
f 56 264 266
f 56 266 71
f 59 74 267
f 59 267 265
f 71 266 268
f 71 268 86
f 74 89 269
f 74 269 267
f 86 268 270
f 86 270 101
f 89 104 271
f 89 271 269
f 101 270 272
f 101 272 116
f 104 119 273
f 104 273 271
f 116 272 274
f 116 274 131
f 119 134 275
f 119 275 273
f 131 274 276
f 131 276 146
f 134 149 277
f 134 277 275
f 146 276 278
f 146 278 161
f 149 164 279
f 149 279 277
f 161 278 280
f 161 280 176
f 164 179 281
f 164 281 279
f 176 280 282
f 176 282 191
f 179 194 283
f 179 283 281
f 191 282 284
f 191 284 206
f 194 209 285
f 194 285 283
f 206 284 286
f 206 286 221
f 225 224 287
f 225 287 288
f 209 225 288
f 209 288 285
f 224 227 289
f 224 289 287
f 227 229 290
f 227 290 289
f 229 231 291
f 229 291 290
f 231 233 292
f 231 292 291
f 233 235 293
f 233 293 292
f 235 237 294
f 235 294 293
f 237 239 295
f 237 295 294
f 239 241 296
f 239 296 295
f 241 243 297
f 241 297 296
f 243 245 298
f 243 298 297
f 245 247 299
f 245 299 298
f 221 286 299
f 221 299 247
f 248 300 301
f 248 301 249
f 248 250 302
f 248 302 300
f 249 301 303
f 249 303 251
f 251 303 304
f 251 304 252
f 252 304 305
f 252 305 253
f 253 305 306
f 253 306 254
f 254 306 307
f 254 307 255
f 255 307 308
f 255 308 256
f 256 308 309
f 256 309 257
f 257 309 310
f 257 310 258
f 258 310 311
f 258 311 259
f 259 311 312
f 259 312 260
f 260 312 313
f 260 313 261
f 261 313 314
f 261 314 262
f 250 263 315
f 250 315 302
f 262 314 316
f 262 316 264
f 263 265 317
f 263 317 315
f 264 316 318
f 264 318 266
f 265 267 319
f 265 319 317
f 266 318 320
f 266 320 268
f 267 269 321
f 267 321 319
f 268 320 322
f 268 322 270
f 269 271 323
f 269 323 321
f 270 322 324
f 270 324 272
f 271 273 325
f 271 325 323
f 272 324 326
f 272 326 274
f 273 275 327
f 273 327 325
f 274 326 328
f 274 328 276
f 275 277 329
f 275 329 327
f 276 328 330
f 276 330 278
f 277 279 331
f 277 331 329
f 278 330 332
f 278 332 280
f 279 281 333
f 279 333 331
f 280 332 334
f 280 334 282
f 281 283 335
f 281 335 333
f 282 334 336
f 282 336 284
f 283 285 337
f 283 337 335
f 284 336 338
f 284 338 286
f 288 287 339
f 288 339 340
f 285 288 340
f 285 340 337
f 287 289 341
f 287 341 339
f 289 290 342
f 289 342 341
f 290 291 343
f 290 343 342
f 291 292 344
f 291 344 343
f 292 293 345
f 292 345 344
f 293 294 346
f 293 346 345
f 294 295 347
f 294 347 346
f 295 296 348
f 295 348 347
f 296 297 349
f 296 349 348
f 297 298 350
f 297 350 349
f 298 299 351
f 298 351 350
f 286 338 351
f 286 351 299
f 300 352 353
f 300 353 301
f 300 302 354
f 300 354 352
f 301 353 355
f 301 355 303
f 303 355 356
f 303 356 304
f 304 356 357
f 304 357 305
f 305 357 358
f 305 358 306
f 306 358 359
f 306 359 307
f 307 359 360
f 307 360 308
f 308 360 361
f 308 361 309
f 309 361 362
f 309 362 310
f 310 362 363
f 310 363 311
f 311 363 364
f 311 364 312
f 312 364 365
f 312 365 313
f 313 365 366
f 313 366 314
f 302 315 367
f 302 367 354
f 314 366 368
f 314 368 316
f 315 317 369
f 315 369 367
f 316 368 370
f 316 370 318
f 317 319 371
f 317 371 369
f 318 370 372
f 318 372 320
f 319 321 373
f 319 373 371
f 320 372 374
f 320 374 322
f 321 323 375
f 321 375 373
f 322 374 376
f 322 376 324
f 323 325 377
f 323 377 375
f 324 376 378
f 324 378 326
f 325 327 379
f 325 379 377
f 326 378 380
f 326 380 328
f 327 329 381
f 327 381 379
f 328 380 382
f 328 382 330
f 329 331 383
f 329 383 381
f 330 382 384
f 330 384 332
f 331 333 385
f 331 385 383
f 332 384 386
f 332 386 334
f 333 335 387
f 333 387 385
f 334 386 388
f 334 388 336
f 335 337 389
f 335 389 387
f 336 388 390
f 336 390 338
f 340 339 391
f 340 391 392
f 337 340 392
f 337 392 389
f 339 341 393
f 339 393 391
f 341 342 394
f 341 394 393
f 342 343 395
f 342 395 394
f 343 344 396
f 343 396 395
f 344 345 397
f 344 397 396
f 345 346 398
f 345 398 397
f 346 347 399
f 346 399 398
f 347 348 400
f 347 400 399
f 348 349 401
f 348 401 400
f 349 350 402
f 349 402 401
f 350 351 403
f 350 403 402
f 338 390 403
f 338 403 351
f 352 404 405
f 352 405 353
f 352 354 406
f 352 406 404
f 353 405 407
f 353 407 355
f 355 407 408
f 355 408 356
f 356 408 409
f 356 409 357
f 357 409 410
f 357 410 358
f 358 410 411
f 358 411 359
f 359 411 412
f 359 412 360
f 360 412 413
f 360 413 361
f 361 413 414
f 361 414 362
f 362 414 415
f 362 415 363
f 363 415 416
f 363 416 364
f 364 416 417
f 364 417 365
f 365 417 418
f 365 418 366
f 354 367 419
f 354 419 406
f 366 418 420
f 366 420 368
f 367 369 421
f 367 421 419
f 368 420 422
f 368 422 370
f 369 371 423
f 369 423 421
f 370 422 424
f 370 424 372
f 371 373 425
f 371 425 423
f 372 424 426
f 372 426 374
f 373 375 427
f 373 427 425
f 374 426 428
f 374 428 376
f 375 377 429
f 375 429 427
f 376 428 430
f 376 430 378
f 377 379 431
f 377 431 429
f 378 430 432
f 378 432 380
f 379 381 433
f 379 433 431
f 380 432 434
f 380 434 382
f 381 383 435
f 381 435 433
f 382 434 436
f 382 436 384
f 383 385 437
f 383 437 435
f 384 436 438
f 384 438 386
f 385 387 439
f 385 439 437
f 386 438 440
f 386 440 388
f 387 389 441
f 387 441 439
f 388 440 442
f 388 442 390
f 392 391 443
f 392 443 444
f 389 392 444
f 389 444 441
f 391 393 445
f 391 445 443
f 393 394 446
f 393 446 445
f 394 395 447
f 394 447 446
f 395 396 448
f 395 448 447
f 396 397 449
f 396 449 448
f 397 398 450
f 397 450 449
f 398 399 451
f 398 451 450
f 399 400 452
f 399 452 451
f 400 401 453
f 400 453 452
f 401 402 454
f 401 454 453
f 402 403 455
f 402 455 454
f 390 442 455
f 390 455 403
f 404 456 457
f 404 457 405
f 404 406 458
f 404 458 456
f 405 457 459
f 405 459 407
f 407 459 460
f 407 460 408
f 408 460 461
f 408 461 409
f 409 461 462
f 409 462 410
f 410 462 463
f 410 463 411
f 411 463 464
f 411 464 412
f 412 464 465
f 412 465 413
f 413 465 466
f 413 466 414
f 414 466 467
f 414 467 415
f 415 467 468
f 415 468 416
f 416 468 469
f 416 469 417
f 417 469 470
f 417 470 418
f 406 419 471
f 406 471 458
f 418 470 472
f 418 472 420
f 419 421 473
f 419 473 471
f 420 472 474
f 420 474 422
f 421 423 475
f 421 475 473
f 422 474 476
f 422 476 424
f 423 425 477
f 423 477 475
f 424 476 478
f 424 478 426
f 425 427 479
f 425 479 477
f 426 478 480
f 426 480 428
f 427 429 481
f 427 481 479
f 428 480 482
f 428 482 430
f 429 431 483
f 429 483 481
f 430 482 484
f 430 484 432
f 431 433 485
f 431 485 483
f 432 484 486
f 432 486 434
f 433 435 487
f 433 487 485
f 434 486 488
f 434 488 436
f 435 437 489
f 435 489 487
f 436 488 490
f 436 490 438
f 437 439 491
f 437 491 489
f 438 490 492
f 438 492 440
f 439 441 493
f 439 493 491
f 440 492 494
f 440 494 442
f 444 443 495
f 444 495 496
f 441 444 496
f 441 496 493
f 443 445 497
f 443 497 495
f 445 446 498
f 445 498 497
f 446 447 499
f 446 499 498
f 447 448 500
f 447 500 499
f 448 449 501
f 448 501 500
f 449 450 502
f 449 502 501
f 450 451 503
f 450 503 502
f 451 452 504
f 451 504 503
f 452 453 505
f 452 505 504
f 453 454 506
f 453 506 505
f 454 455 507
f 454 507 506
f 442 494 507
f 442 507 455
f 456 508 509
f 456 509 457
f 456 458 510
f 456 510 508
f 457 509 511
f 457 511 459
f 459 511 512
f 459 512 460
f 460 512 513
f 460 513 461
f 461 513 514
f 461 514 462
f 462 514 515
f 462 515 463
f 463 515 516
f 463 516 464
f 464 516 517
f 464 517 465
f 465 517 518
f 465 518 466
f 466 518 519
f 466 519 467
f 467 519 520
f 467 520 468
f 468 520 521
f 468 521 469
f 469 521 522
f 469 522 470
f 458 471 523
f 458 523 510
f 470 522 524
f 470 524 472
f 471 473 525
f 471 525 523
f 472 524 526
f 472 526 474
f 473 475 527
f 473 527 525
f 474 526 528
f 474 528 476
f 475 477 529
f 475 529 527
f 476 528 530
f 476 530 478
f 477 479 531
f 477 531 529
f 478 530 532
f 478 532 480
f 479 481 533
f 479 533 531
f 480 532 534
f 480 534 482
f 481 483 535
f 481 535 533
f 482 534 536
f 482 536 484
f 483 485 537
f 483 537 535
f 484 536 538
f 484 538 486
f 485 487 539
f 485 539 537
f 486 538 540
f 486 540 488
f 487 489 541
f 487 541 539
f 488 540 542
f 488 542 490
f 489 491 543
f 489 543 541
f 490 542 544
f 490 544 492
f 491 493 545
f 491 545 543
f 492 544 546
f 492 546 494
f 496 495 547
f 496 547 548
f 493 496 548
f 493 548 545
f 495 497 549
f 495 549 547
f 497 498 550
f 497 550 549
f 498 499 551
f 498 551 550
f 499 500 552
f 499 552 551
f 500 501 553
f 500 553 552
f 501 502 554
f 501 554 553
f 502 503 555
f 502 555 554
f 503 504 556
f 503 556 555
f 504 505 557
f 504 557 556
f 505 506 558
f 505 558 557
f 506 507 559
f 506 559 558
f 494 546 559
f 494 559 507
f 508 560 561
f 508 561 509
f 508 510 562
f 508 562 560
f 509 561 563
f 509 563 511
f 511 563 564
f 511 564 512
f 512 564 565
f 512 565 513
f 513 565 566
f 513 566 514
f 514 566 567
f 514 567 515
f 515 567 568
f 515 568 516
f 516 568 569
f 516 569 517
f 517 569 570
f 517 570 518
f 518 570 571
f 518 571 519
f 519 571 572
f 519 572 520
f 520 572 573
f 520 573 521
f 521 573 574
f 521 574 522
f 510 523 575
f 510 575 562
f 522 574 576
f 522 576 524
f 523 525 577
f 523 577 575
f 524 576 578
f 524 578 526
f 525 527 579
f 525 579 577
f 526 578 580
f 526 580 528
f 527 529 581
f 527 581 579
f 528 580 582
f 528 582 530
f 529 531 583
f 529 583 581
f 530 582 584
f 530 584 532
f 531 533 585
f 531 585 583
f 532 584 586
f 532 586 534
f 533 535 587
f 533 587 585
f 534 586 588
f 534 588 536
f 535 537 589
f 535 589 587
f 536 588 590
f 536 590 538
f 537 539 591
f 537 591 589
f 538 590 592
f 538 592 540
f 539 541 593
f 539 593 591
f 540 592 594
f 540 594 542
f 541 543 595
f 541 595 593
f 542 594 596
f 542 596 544
f 543 545 597
f 543 597 595
f 544 596 598
f 544 598 546
f 548 547 599
f 548 599 600
f 545 548 600
f 545 600 597
f 547 549 601
f 547 601 599
f 549 550 602
f 549 602 601
f 550 551 603
f 550 603 602
f 551 552 604
f 551 604 603
f 552 553 605
f 552 605 604
f 553 554 606
f 553 606 605
f 554 555 607
f 554 607 606
f 555 556 608
f 555 608 607
f 556 557 609
f 556 609 608
f 557 558 610
f 557 610 609
f 558 559 611
f 558 611 610
f 546 598 611
f 546 611 559
f 560 612 613
f 560 613 561
f 560 562 614
f 560 614 612
f 561 613 615
f 561 615 563
f 563 615 616
f 563 616 564
f 564 616 617
f 564 617 565
f 565 617 618
f 565 618 566
f 566 618 619
f 566 619 567
f 567 619 620
f 567 620 568
f 568 620 621
f 568 621 569
f 569 621 622
f 569 622 570
f 570 622 623
f 570 623 571
f 571 623 624
f 571 624 572
f 572 624 625
f 572 625 573
f 573 625 626
f 573 626 574
f 562 575 627
f 562 627 614
f 574 626 628
f 574 628 576
f 575 577 629
f 575 629 627
f 576 628 630
f 576 630 578
f 577 579 631
f 577 631 629
f 578 630 632
f 578 632 580
f 579 581 633
f 579 633 631
f 580 632 634
f 580 634 582
f 581 583 635
f 581 635 633
f 582 634 636
f 582 636 584
f 583 585 637
f 583 637 635
f 584 636 638
f 584 638 586
f 585 587 639
f 585 639 637
f 586 638 640
f 586 640 588
f 587 589 641
f 587 641 639
f 588 640 642
f 588 642 590
f 589 591 643
f 589 643 641
f 590 642 644
f 590 644 592
f 591 593 645
f 591 645 643
f 592 644 646
f 592 646 594
f 593 595 647
f 593 647 645
f 594 646 648
f 594 648 596
f 595 597 649
f 595 649 647
f 596 648 650
f 596 650 598
f 600 599 651
f 600 651 652
f 597 600 652
f 597 652 649
f 599 601 653
f 599 653 651
f 601 602 654
f 601 654 653
f 602 603 655
f 602 655 654
f 603 604 656
f 603 656 655
f 604 605 657
f 604 657 656
f 605 606 658
f 605 658 657
f 606 607 659
f 606 659 658
f 607 608 660
f 607 660 659
f 608 609 661
f 608 661 660
f 609 610 662
f 609 662 661
f 610 611 663
f 610 663 662
f 598 650 663
f 598 663 611
f 612 664 665
f 612 665 613
f 612 614 666
f 612 666 664
f 613 665 667
f 613 667 615
f 615 667 668
f 615 668 616
f 616 668 669
f 616 669 617
f 617 669 670
f 617 670 618
f 618 670 671
f 618 671 619
f 619 671 672
f 619 672 620
f 620 672 673
f 620 673 621
f 621 673 674
f 621 674 622
f 622 674 675
f 622 675 623
f 623 675 676
f 623 676 624
f 624 676 677
f 624 677 625
f 625 677 678
f 625 678 626
f 614 627 679
f 614 679 666
f 626 678 680
f 626 680 628
f 627 629 681
f 627 681 679
f 628 680 682
f 628 682 630
f 629 631 683
f 629 683 681
f 630 682 684
f 630 684 632
f 631 633 685
f 631 685 683
f 632 684 686
f 632 686 634
f 633 635 687
f 633 687 685
f 634 686 688
f 634 688 636
f 635 637 689
f 635 689 687
f 636 688 690
f 636 690 638
f 637 639 691
f 637 691 689
f 638 690 692
f 638 692 640
f 639 641 693
f 639 693 691
f 640 692 694
f 640 694 642
f 641 643 695
f 641 695 693
f 642 694 696
f 642 696 644
f 643 645 697
f 643 697 695
f 644 696 698
f 644 698 646
f 645 647 699
f 645 699 697
f 646 698 700
f 646 700 648
f 647 649 701
f 647 701 699
f 648 700 702
f 648 702 650
f 652 651 703
f 652 703 704
f 649 652 704
f 649 704 701
f 651 653 705
f 651 705 703
f 653 654 706
f 653 706 705
f 654 655 707
f 654 707 706
f 655 656 708
f 655 708 707
f 656 657 709
f 656 709 708
f 657 658 710
f 657 710 709
f 658 659 711
f 658 711 710
f 659 660 712
f 659 712 711
f 660 661 713
f 660 713 712
f 661 662 714
f 661 714 713
f 662 663 715
f 662 715 714
f 650 702 715
f 650 715 663
f 664 716 717
f 664 717 665
f 664 666 718
f 664 718 716
f 665 717 719
f 665 719 667
f 667 719 720
f 667 720 668
f 668 720 721
f 668 721 669
f 669 721 722
f 669 722 670
f 670 722 723
f 670 723 671
f 671 723 724
f 671 724 672
f 672 724 725
f 672 725 673
f 673 725 726
f 673 726 674
f 674 726 727
f 674 727 675
f 675 727 728
f 675 728 676
f 676 728 729
f 676 729 677
f 677 729 730
f 677 730 678
f 666 679 731
f 666 731 718
f 678 730 732
f 678 732 680
f 679 681 733
f 679 733 731
f 680 732 734
f 680 734 682
f 681 683 735
f 681 735 733
f 682 734 736
f 682 736 684
f 683 685 737
f 683 737 735
f 684 736 738
f 684 738 686
f 685 687 739
f 685 739 737
f 686 738 740
f 686 740 688
f 687 689 741
f 687 741 739
f 688 740 742
f 688 742 690
f 689 691 743
f 689 743 741
f 690 742 744
f 690 744 692
f 691 693 745
f 691 745 743
f 692 744 746
f 692 746 694
f 693 695 747
f 693 747 745
f 694 746 748
f 694 748 696
f 695 697 749
f 695 749 747
f 696 748 750
f 696 750 698
f 697 699 751
f 697 751 749
f 698 750 752
f 698 752 700
f 699 701 753
f 699 753 751
f 700 752 754
f 700 754 702
f 704 703 755
f 704 755 756
f 701 704 756
f 701 756 753
f 703 705 757
f 703 757 755
f 705 706 758
f 705 758 757
f 706 707 759
f 706 759 758
f 707 708 760
f 707 760 759
f 708 709 761
f 708 761 760
f 709 710 762
f 709 762 761
f 710 711 763
f 710 763 762
f 711 712 764
f 711 764 763
f 712 713 765
f 712 765 764
f 713 714 766
f 713 766 765
f 714 715 767
f 714 767 766
f 702 754 767
f 702 767 715
f 768 769 770
f 768 770 771
f 716 768 769
f 716 769 717
f 716 718 771
f 716 771 768
f 769 772 773
f 769 773 770
f 717 769 772
f 717 772 719
f 772 774 775
f 772 775 773
f 719 772 774
f 719 774 720
f 774 776 777
f 774 777 775
f 720 774 776
f 720 776 721
f 776 778 779
f 776 779 777
f 721 776 778
f 721 778 722
f 778 780 781
f 778 781 779
f 722 778 780
f 722 780 723
f 780 782 783
f 780 783 781
f 723 780 782
f 723 782 724
f 782 784 785
f 782 785 783
f 724 782 784
f 724 784 725
f 784 786 787
f 784 787 785
f 725 784 786
f 725 786 726
f 786 788 789
f 786 789 787
f 726 786 788
f 726 788 727
f 788 790 791
f 788 791 789
f 727 788 790
f 727 790 728
f 790 792 793
f 790 793 791
f 728 790 792
f 728 792 729
f 729 792 793
f 729 793 730
f 771 770 794
f 771 794 795
f 718 731 795
f 718 795 771
f 770 773 796
f 770 796 794
f 773 775 797
f 773 797 796
f 775 777 798
f 775 798 797
f 777 779 799
f 777 799 798
f 779 781 800
f 779 800 799
f 781 783 801
f 781 801 800
f 783 785 802
f 783 802 801
f 785 787 803
f 785 803 802
f 787 789 804
f 787 804 803
f 789 791 805
f 789 805 804
f 791 793 806
f 791 806 805
f 730 793 806
f 730 806 732
f 795 794 807
f 795 807 808
f 731 733 808
f 731 808 795
f 794 796 809
f 794 809 807
f 796 797 810
f 796 810 809
f 797 798 811
f 797 811 810
f 798 799 812
f 798 812 811
f 799 800 813
f 799 813 812
f 800 801 814
f 800 814 813
f 801 802 815
f 801 815 814
f 802 803 816
f 802 816 815
f 803 804 817
f 803 817 816
f 804 805 818
f 804 818 817
f 805 806 819
f 805 819 818
f 732 806 819
f 732 819 734
f 808 807 820
f 808 820 821
f 733 735 821
f 733 821 808
f 807 809 822
f 807 822 820
f 809 810 823
f 809 823 822
f 810 811 824
f 810 824 823
f 811 812 825
f 811 825 824
f 812 813 826
f 812 826 825
f 813 814 827
f 813 827 826
f 814 815 828
f 814 828 827
f 815 816 829
f 815 829 828
f 816 817 830
f 816 830 829
f 817 818 831
f 817 831 830
f 818 819 832
f 818 832 831
f 734 819 832
f 734 832 736
f 821 820 833
f 821 833 834
f 735 737 834
f 735 834 821
f 820 822 835
f 820 835 833
f 822 823 836
f 822 836 835
f 823 824 837
f 823 837 836
f 824 825 838
f 824 838 837
f 825 826 839
f 825 839 838
f 826 827 840
f 826 840 839
f 827 828 841
f 827 841 840
f 828 829 842
f 828 842 841
f 829 830 843
f 829 843 842
f 830 831 844
f 830 844 843
f 831 832 845
f 831 845 844
f 736 832 845
f 736 845 738
f 737 739 846
f 737 846 834
f 738 845 847
f 738 847 740
f 739 741 848
f 739 848 846
f 740 847 849
f 740 849 742
f 741 743 850
f 741 850 848
f 742 849 851
f 742 851 744
f 743 745 852
f 743 852 850
f 744 851 853
f 744 853 746
f 745 747 854
f 745 854 852
f 746 853 855
f 746 855 748
f 747 749 856
f 747 856 854
f 748 855 857
f 748 857 750
f 749 751 858
f 749 858 856
f 750 857 859
f 750 859 752
f 751 753 860
f 751 860 858
f 752 859 861
f 752 861 754
f 756 755 862
f 756 862 863
f 753 756 863
f 753 863 860
f 755 757 864
f 755 864 862
f 757 758 865
f 757 865 864
f 758 759 866
f 758 866 865
f 759 760 867
f 759 867 866
f 760 761 868
f 760 868 867
f 761 762 869
f 761 869 868
f 762 763 870
f 762 870 869
f 763 764 871
f 763 871 870
f 764 765 872
f 764 872 871
f 765 766 873
f 765 873 872
f 766 767 874
f 766 874 873
f 754 861 874
f 754 874 767
f 875 876 877
f 875 877 878
f 834 875 876
f 834 876 833
f 834 846 878
f 834 878 875
f 876 879 880
f 876 880 877
f 833 876 879
f 833 879 835
f 879 881 882
f 879 882 880
f 835 879 881
f 835 881 836
f 881 883 884
f 881 884 882
f 836 881 883
f 836 883 837
f 883 885 886
f 883 886 884
f 837 883 885
f 837 885 838
f 885 887 888
f 885 888 886
f 838 885 887
f 838 887 839
f 887 889 890
f 887 890 888
f 839 887 889
f 839 889 840
f 889 891 892
f 889 892 890
f 840 889 891
f 840 891 841
f 891 893 894
f 891 894 892
f 841 891 893
f 841 893 842
f 893 895 896
f 893 896 894
f 842 893 895
f 842 895 843
f 895 897 898
f 895 898 896
f 843 895 897
f 843 897 844
f 897 899 900
f 897 900 898
f 844 897 899
f 844 899 845
f 845 899 900
f 845 900 847
f 878 877 901
f 878 901 902
f 846 848 902
f 846 902 878
f 877 880 903
f 877 903 901
f 880 882 904
f 880 904 903
f 882 884 905
f 882 905 904
f 884 886 906
f 884 906 905
f 886 888 907
f 886 907 906
f 888 890 908
f 888 908 907
f 890 892 909
f 890 909 908
f 892 894 910
f 892 910 909
f 894 896 911
f 894 911 910
f 896 898 912
f 896 912 911
f 898 900 913
f 898 913 912
f 847 900 913
f 847 913 849
f 902 901 914
f 902 914 915
f 848 850 915
f 848 915 902
f 901 903 916
f 901 916 914
f 903 904 917
f 903 917 916
f 904 905 918
f 904 918 917
f 905 906 919
f 905 919 918
f 906 907 920
f 906 920 919
f 907 908 921
f 907 921 920
f 908 909 922
f 908 922 921
f 909 910 923
f 909 923 922
f 910 911 924
f 910 924 923
f 911 912 925
f 911 925 924
f 912 913 926
f 912 926 925
f 849 913 926
f 849 926 851
f 915 914 927
f 915 927 928
f 850 852 928
f 850 928 915
f 914 916 929
f 914 929 927
f 916 917 930
f 916 930 929
f 917 918 931
f 917 931 930
f 918 919 932
f 918 932 931
f 919 920 933
f 919 933 932
f 920 921 934
f 920 934 933
f 921 922 935
f 921 935 934
f 922 923 936
f 922 936 935
f 923 924 937
f 923 937 936
f 924 925 938
f 924 938 937
f 925 926 939
f 925 939 938
f 851 926 939
f 851 939 853
f 928 927 940
f 928 940 941
f 852 854 941
f 852 941 928
f 927 929 942
f 927 942 940
f 929 930 943
f 929 943 942
f 930 931 944
f 930 944 943
f 931 932 945
f 931 945 944
f 932 933 946
f 932 946 945
f 933 934 947
f 933 947 946
f 934 935 948
f 934 948 947
f 935 936 949
f 935 949 948
f 936 937 950
f 936 950 949
f 937 938 951
f 937 951 950
f 938 939 952
f 938 952 951
f 853 939 952
f 853 952 855
f 854 856 953
f 854 953 941
f 855 952 954
f 855 954 857
f 856 858 955
f 856 955 953
f 857 954 956
f 857 956 859
f 858 860 957
f 858 957 955
f 859 956 958
f 859 958 861
f 863 862 959
f 863 959 960
f 860 863 960
f 860 960 957
f 862 864 961
f 862 961 959
f 864 865 962
f 864 962 961
f 865 866 963
f 865 963 962
f 866 867 964
f 866 964 963
f 867 868 965
f 867 965 964
f 868 869 966
f 868 966 965
f 869 870 967
f 869 967 966
f 870 871 968
f 870 968 967
f 871 872 969
f 871 969 968
f 872 873 970
f 872 970 969
f 873 874 971
f 873 971 970
f 861 958 971
f 861 971 874
f 972 973 974
f 972 974 975
f 941 972 973
f 941 973 940
f 941 953 975
f 941 975 972
f 973 976 977
f 973 977 974
f 940 973 976
f 940 976 942
f 976 978 979
f 976 979 977
f 942 976 978
f 942 978 943
f 978 980 981
f 978 981 979
f 943 978 980
f 943 980 944
f 980 982 983
f 980 983 981
f 944 980 982
f 944 982 945
f 982 984 985
f 982 985 983
f 945 982 984
f 945 984 946
f 984 986 987
f 984 987 985
f 946 984 986
f 946 986 947
f 986 988 989
f 986 989 987
f 947 986 988
f 947 988 948
f 988 990 991
f 988 991 989
f 948 988 990
f 948 990 949
f 990 992 993
f 990 993 991
f 949 990 992
f 949 992 950
f 992 994 995
f 992 995 993
f 950 992 994
f 950 994 951
f 994 996 997
f 994 997 995
f 951 994 996
f 951 996 952
f 952 996 997
f 952 997 954
f 975 974 998
f 975 998 999
f 953 955 999
f 953 999 975
f 974 977 1000
f 974 1000 998
f 977 979 1001
f 977 1001 1000
f 979 981 1002
f 979 1002 1001
f 981 983 1003
f 981 1003 1002
f 983 985 1004
f 983 1004 1003
f 985 987 1005
f 985 1005 1004
f 987 989 1006
f 987 1006 1005
f 989 991 1007
f 989 1007 1006
f 991 993 1008
f 991 1008 1007
f 993 995 1009
f 993 1009 1008
f 995 997 1010
f 995 1010 1009
f 954 997 1010
f 954 1010 956
f 999 998 1011
f 999 1011 1012
f 955 957 1012
f 955 1012 999
f 998 1000 1013
f 998 1013 1011
f 1000 1001 1014
f 1000 1014 1013
f 1001 1002 1015
f 1001 1015 1014
f 1002 1003 1016
f 1002 1016 1015
f 1003 1004 1017
f 1003 1017 1016
f 1004 1005 1018
f 1004 1018 1017
f 1005 1006 1019
f 1005 1019 1018
f 1006 1007 1020
f 1006 1020 1019
f 1007 1008 1021
f 1007 1021 1020
f 1008 1009 1022
f 1008 1022 1021
f 1009 1010 1023
f 1009 1023 1022
f 956 1010 1023
f 956 1023 958
f 1012 1011 1024
f 1012 1024 1025
f 960 959 1024
f 960 1024 1025
f 957 960 1025
f 957 1025 1012
f 1011 1013 1026
f 1011 1026 1024
f 959 961 1026
f 959 1026 1024
f 1013 1014 1027
f 1013 1027 1026
f 961 962 1027
f 961 1027 1026
f 1014 1015 1028
f 1014 1028 1027
f 962 963 1028
f 962 1028 1027
f 1015 1016 1029
f 1015 1029 1028
f 963 964 1029
f 963 1029 1028
f 1016 1017 1030
f 1016 1030 1029
f 964 965 1030
f 964 1030 1029
f 1017 1018 1031
f 1017 1031 1030
f 965 966 1031
f 965 1031 1030
f 1018 1019 1032
f 1018 1032 1031
f 966 967 1032
f 966 1032 1031
f 1019 1020 1033
f 1019 1033 1032
f 967 968 1033
f 967 1033 1032
f 1020 1021 1034
f 1020 1034 1033
f 968 969 1034
f 968 1034 1033
f 1021 1022 1035
f 1021 1035 1034
f 969 970 1035
f 969 1035 1034
f 1022 1023 1036
f 1022 1036 1035
f 970 971 1036
f 970 1036 1035
f 958 1023 1036
f 958 1036 971
