o [4B] 3D Diagram - S2-06 Group B_114
v -3.752500 11.110000 0.385000
v -3.752500 11.380000 0.385000
v -3.752500 11.380000 1.330000
v -3.752500 11.110000 1.330000
v -3.145000 11.110000 0.385000
v -3.145000 11.110000 1.330000
v -3.145000 11.380000 0.385000
v -3.752500 11.380000 2.275000
v -3.752500 11.110000 2.275000
v -3.145000 11.110000 2.275000
v -3.752500 11.380000 3.220000
v -3.752500 11.110000 3.220000
v -3.145000 11.110000 3.220000
v -3.752500 11.380000 4.165000
v -3.752500 11.110000 4.165000
v -3.145000 11.110000 4.165000
v -3.752500 11.380000 5.110000
v -3.752500 11.110000 5.110000
v -3.145000 11.110000 5.110000
v -3.752500 11.380000 6.055000
v -3.752500 11.110000 6.055000
v -3.145000 11.110000 6.055000
v -3.752500 11.380000 7.000000
v -3.752500 11.110000 7.000000
v -3.145000 11.110000 7.000000
v -3.752500 11.380000 7.945000
v -3.752500 11.110000 7.945000
v -3.145000 11.110000 7.945000
v -3.752500 11.380000 8.890000
v -3.752500 11.110000 8.890000
v -3.145000 11.110000 8.890000
v -3.752500 11.380000 9.835000
v -3.752500 11.110000 9.835000
v -3.145000 11.110000 9.835000
v -3.752500 11.380000 10.780000
v -3.752500 11.110000 10.780000
v -3.145000 11.110000 10.780000
v -3.752500 11.380000 11.725000
v -3.752500 11.110000 11.725000
v -3.145000 11.110000 11.725000
v -3.752500 11.380000 12.670000
v -3.752500 11.110000 12.670000
v -3.145000 11.110000 12.670000
v -3.752500 11.380000 13.615000
v -3.752500 11.110000 13.615000
v -3.145000 11.110000 13.615000
v -3.145000 11.380000 13.615000
v -3.752500 11.650000 0.385000
v -3.752500 11.650000 1.330000
v -3.145000 11.650000 1.330000
v -3.145000 11.650000 0.385000
v -3.752500 11.650000 2.275000
v -3.145000 11.650000 2.275000
v -3.752500 11.650000 3.220000
v -3.145000 11.650000 3.220000
v -3.752500 11.650000 4.165000
v -3.145000 11.650000 4.165000
v -3.752500 11.650000 5.110000
v -3.145000 11.650000 5.110000
v -3.752500 11.650000 6.055000
v -3.145000 11.650000 6.055000
v -3.752500 11.650000 7.000000
v -3.145000 11.650000 7.000000
v -3.752500 11.650000 7.945000
v -3.145000 11.650000 7.945000
v -3.752500 11.650000 8.890000
v -3.145000 11.650000 8.890000
v -3.752500 11.650000 9.835000
v -3.145000 11.650000 9.835000
v -3.752500 11.650000 10.780000
v -3.145000 11.650000 10.780000
v -3.752500 11.650000 11.725000
v -3.145000 11.650000 11.725000
v -3.752500 11.650000 12.670000
v -3.145000 11.650000 12.670000
v -3.752500 11.650000 13.615000
v -3.145000 11.650000 13.615000
v -2.537500 11.110000 0.385000
v -2.537500 11.110000 1.330000
v -2.537500 11.380000 0.385000
v -2.537500 11.110000 2.275000
v -2.537500 11.110000 3.220000
v -2.537500 11.110000 4.165000
v -2.537500 11.110000 5.110000
v -2.537500 11.110000 6.055000
v -2.537500 11.110000 7.000000
v -2.537500 11.110000 7.945000
v -2.537500 11.110000 8.890000
v -2.537500 11.110000 9.835000
v -2.537500 11.110000 10.780000
v -2.537500 11.110000 11.725000
v -2.537500 11.110000 12.670000
v -2.537500 11.110000 13.615000
v -2.537500 11.380000 13.615000
v -2.537500 11.650000 0.385000
v -2.537500 11.650000 13.615000
v -3.145000 11.920000 0.385000
v -3.145000 11.920000 1.330000
v -2.537500 11.920000 0.385000
v -3.145000 11.920000 2.275000
v -3.145000 11.920000 3.220000
v -3.145000 11.920000 4.165000
v -3.145000 11.920000 5.110000
v -3.145000 11.920000 6.055000
v -3.145000 11.920000 7.000000
v -3.145000 11.920000 7.945000
v -3.145000 11.920000 8.890000
v -3.145000 11.920000 9.835000
v -3.145000 11.920000 10.780000
v -3.145000 11.920000 11.725000
v -3.145000 11.920000 12.670000
v -3.145000 11.920000 13.615000
v -2.537500 11.920000 13.615000
v -3.145000 12.190000 0.385000
v -3.145000 12.190000 1.330000
v -2.537500 12.190000 1.330000
v -2.537500 12.190000 0.385000
v -3.145000 12.190000 2.275000
v -2.537500 12.190000 2.275000
v -3.145000 12.190000 3.220000
v -2.537500 12.190000 3.220000
v -3.145000 12.190000 4.165000
v -2.537500 12.190000 4.165000
v -3.145000 12.190000 5.110000
v -2.537500 12.190000 5.110000
v -3.145000 12.190000 6.055000
v -2.537500 12.190000 6.055000
v -3.145000 12.190000 7.000000
v -2.537500 12.190000 7.000000
v -3.145000 12.190000 7.945000
v -2.537500 12.190000 7.945000
v -3.145000 12.190000 8.890000
v -2.537500 12.190000 8.890000
v -3.145000 12.190000 9.835000
v -2.537500 12.190000 9.835000
v -3.145000 12.190000 10.780000
v -2.537500 12.190000 10.780000
v -3.145000 12.190000 11.725000
v -2.537500 12.190000 11.725000
v -3.145000 12.190000 12.670000
v -2.537500 12.190000 12.670000
v -3.145000 12.190000 13.615000
v -2.537500 12.190000 13.615000
v -1.930000 11.110000 0.385000
v -1.930000 11.110000 1.330000
v -1.930000 11.380000 0.385000
v -1.930000 11.110000 2.275000
v -1.930000 11.110000 3.220000
v -1.930000 11.110000 4.165000
v -1.930000 11.110000 5.110000
v -1.930000 11.110000 6.055000
v -1.930000 11.110000 7.000000
v -1.930000 11.110000 7.945000
v -1.930000 11.110000 8.890000
v -1.930000 11.110000 9.835000
v -1.930000 11.110000 10.780000
v -1.930000 11.110000 11.725000
v -1.930000 11.110000 12.670000
v -1.930000 11.110000 13.615000
v -1.930000 11.380000 13.615000
v -1.930000 11.650000 0.385000
v -1.930000 11.650000 13.615000
v -1.930000 11.920000 0.385000
v -1.930000 11.920000 13.615000
v -1.930000 12.190000 0.385000
v -1.930000 12.190000 13.615000
v -2.537500 12.460000 0.385000
v -2.537500 12.460000 1.330000
v -1.930000 12.460000 0.385000
v -2.537500 12.460000 2.275000
v -2.537500 12.460000 3.220000
v -2.537500 12.460000 4.165000
v -2.537500 12.460000 5.110000
v -2.537500 12.460000 6.055000
v -2.537500 12.460000 7.000000
v -2.537500 12.460000 7.945000
v -2.537500 12.460000 8.890000
v -2.537500 12.460000 9.835000
v -2.537500 12.460000 10.780000
v -2.537500 12.460000 11.725000
v -2.537500 12.460000 12.670000
v -2.537500 12.460000 13.615000
v -1.930000 12.460000 13.615000
v -2.537500 12.730000 0.385000
v -2.537500 12.730000 1.330000
v -1.930000 12.730000 1.330000
v -1.930000 12.730000 0.385000
v -2.537500 12.730000 2.275000
v -1.930000 12.730000 2.275000
v -2.537500 12.730000 3.220000
v -1.930000 12.730000 3.220000
v -2.537500 12.730000 4.165000
v -1.930000 12.730000 4.165000
v -2.537500 12.730000 5.110000
v -1.930000 12.730000 5.110000
v -2.537500 12.730000 6.055000
v -1.930000 12.730000 6.055000
v -2.537500 12.730000 7.000000
v -1.930000 12.730000 7.000000
v -2.537500 12.730000 7.945000
v -1.930000 12.730000 7.945000
v -2.537500 12.730000 8.890000
v -1.930000 12.730000 8.890000
v -2.537500 12.730000 9.835000
v -1.930000 12.730000 9.835000
v -2.537500 12.730000 10.780000
v -1.930000 12.730000 10.780000
v -2.537500 12.730000 11.725000
v -1.930000 12.730000 11.725000
v -2.537500 12.730000 12.670000
v -1.930000 12.730000 12.670000
v -2.537500 12.730000 13.615000
v -1.930000 12.730000 13.615000
v -1.322500 11.110000 0.385000
v -1.322500 11.110000 1.330000
v -1.322500 11.380000 0.385000
v -1.322500 11.110000 2.275000
v -1.322500 11.110000 3.220000
v -1.322500 11.110000 4.165000
v -1.322500 11.110000 5.110000
v -1.322500 11.110000 6.055000
v -1.322500 11.110000 7.000000
v -1.322500 11.110000 7.945000
v -1.322500 11.110000 8.890000
v -1.322500 11.110000 9.835000
v -1.322500 11.110000 10.780000
v -1.322500 11.110000 11.725000
v -1.322500 11.110000 12.670000
v -1.322500 11.110000 13.615000
v -1.322500 11.380000 13.615000
v -1.322500 11.650000 0.385000
v -1.322500 11.650000 13.615000
v -1.322500 11.920000 0.385000
v -1.322500 11.920000 13.615000
v -1.322500 12.190000 0.385000
v -1.322500 12.190000 13.615000
v -1.322500 12.460000 0.385000
v -1.322500 12.460000 13.615000
v -1.322500 12.730000 0.385000
v -1.322500 12.730000 13.615000
v -1.930000 13.000000 0.385000
v -1.930000 13.000000 1.330000
v -1.322500 13.000000 0.385000
v -1.930000 13.000000 2.275000
v -1.930000 13.000000 3.220000
v -1.930000 13.000000 4.165000
v -1.930000 13.000000 5.110000
v -1.930000 13.000000 6.055000
v -1.930000 13.000000 7.000000
v -1.930000 13.000000 7.945000
v -1.930000 13.000000 8.890000
v -1.930000 13.000000 9.835000
v -1.930000 13.000000 10.780000
v -1.930000 13.000000 11.725000
v -1.930000 13.000000 12.670000
v -1.930000 13.000000 13.615000
v -1.322500 13.000000 13.615000
v -1.930000 13.270000 0.385000
v -1.930000 13.270000 1.330000
v -1.322500 13.270000 1.330000
v -1.322500 13.270000 0.385000
v -1.930000 13.270000 2.275000
v -1.322500 13.270000 2.275000
v -1.930000 13.270000 3.220000
v -1.322500 13.270000 3.220000
v -1.930000 13.270000 4.165000
v -1.322500 13.270000 4.165000
v -1.930000 13.270000 5.110000
v -1.322500 13.270000 5.110000
v -1.930000 13.270000 6.055000
v -1.322500 13.270000 6.055000
v -1.930000 13.270000 7.000000
v -1.322500 13.270000 7.000000
v -1.930000 13.270000 7.945000
v -1.322500 13.270000 7.945000
v -1.930000 13.270000 8.890000
v -1.322500 13.270000 8.890000
v -1.930000 13.270000 9.835000
v -1.322500 13.270000 9.835000
v -1.930000 13.270000 10.780000
v -1.322500 13.270000 10.780000
v -1.930000 13.270000 11.725000
v -1.322500 13.270000 11.725000
v -1.930000 13.270000 12.670000
v -1.322500 13.270000 12.670000
v -1.930000 13.270000 13.615000
v -1.322500 13.270000 13.615000
v -0.715000 11.110000 0.385000
v -0.715000 11.110000 1.330000
v -0.715000 11.380000 0.385000
v -0.715000 11.110000 2.275000
v -0.715000 11.110000 3.220000
v -0.715000 11.110000 4.165000
v -0.715000 11.110000 5.110000
v -0.715000 11.110000 6.055000
v -0.715000 11.110000 7.000000
v -0.715000 11.110000 7.945000
v -0.715000 11.110000 8.890000
v -0.715000 11.110000 9.835000
v -0.715000 11.110000 10.780000
v -0.715000 11.110000 11.725000
v -0.715000 11.110000 12.670000
v -0.715000 11.110000 13.615000
v -0.715000 11.380000 13.615000
v -0.715000 11.650000 0.385000
v -0.715000 11.650000 13.615000
v -0.715000 11.920000 0.385000
v -0.715000 11.920000 13.615000
v -0.715000 12.190000 0.385000
v -0.715000 12.190000 13.615000
v -0.715000 12.460000 0.385000
v -0.715000 12.460000 13.615000
v -0.715000 12.730000 0.385000
v -0.715000 12.730000 13.615000
v -0.715000 13.000000 0.385000
v -0.715000 13.000000 13.615000
v -0.715000 13.270000 0.385000
v -0.715000 13.270000 13.615000
v -1.322500 13.540000 0.385000
v -1.322500 13.540000 1.330000
v -0.715000 13.540000 0.385000
v -1.322500 13.540000 2.275000
v -1.322500 13.540000 3.220000
v -1.322500 13.540000 4.165000
v -1.322500 13.540000 5.110000
v -1.322500 13.540000 6.055000
v -1.322500 13.540000 7.000000
v -1.322500 13.540000 7.945000
v -1.322500 13.540000 8.890000
v -1.322500 13.540000 9.835000
v -1.322500 13.540000 10.780000
v -1.322500 13.540000 11.725000
v -1.322500 13.540000 12.670000
v -1.322500 13.540000 13.615000
v -0.715000 13.540000 13.615000
v -1.322500 13.810000 0.385000
v -1.322500 13.810000 1.330000
v -0.715000 13.810000 0.385000
v -1.322500 13.810000 2.275000
v -1.322500 13.810000 3.220000
v -1.322500 13.810000 4.165000
v -1.322500 13.810000 5.110000
v -1.322500 13.810000 6.055000
v -1.322500 13.810000 7.000000
v -1.322500 13.810000 7.945000
v -1.322500 13.810000 8.890000
v -1.322500 13.810000 9.835000
v -1.322500 13.810000 10.780000
v -1.322500 13.810000 11.725000
v -1.322500 13.810000 12.670000
v -1.322500 13.810000 13.615000
v -0.715000 13.810000 13.615000
v -1.322500 14.080000 0.385000
v -1.322500 14.080000 1.330000
v -0.715000 14.080000 1.330000
v -0.715000 14.080000 0.385000
v -1.322500 14.080000 2.275000
v -0.715000 14.080000 2.275000
v -1.322500 14.080000 3.220000
v -0.715000 14.080000 3.220000
v -1.322500 14.080000 4.165000
v -0.715000 14.080000 4.165000
v -1.322500 14.080000 5.110000
v -0.715000 14.080000 5.110000
v -1.322500 14.080000 6.055000
v -0.715000 14.080000 6.055000
v -1.322500 14.080000 7.000000
v -0.715000 14.080000 7.000000
v -1.322500 14.080000 7.945000
v -0.715000 14.080000 7.945000
v -1.322500 14.080000 8.890000
v -0.715000 14.080000 8.890000
v -1.322500 14.080000 9.835000
v -0.715000 14.080000 9.835000
v -1.322500 14.080000 10.780000
v -0.715000 14.080000 10.780000
v -1.322500 14.080000 11.725000
v -0.715000 14.080000 11.725000
v -1.322500 14.080000 12.670000
v -0.715000 14.080000 12.670000
v -1.322500 14.080000 13.615000
v -0.715000 14.080000 13.615000
v -0.107500 11.110000 0.385000
v -0.107500 11.110000 1.330000
v -0.107500 11.380000 0.385000
v -0.107500 11.110000 2.275000
v -0.107500 11.110000 3.220000
v -0.107500 11.110000 4.165000
v -0.107500 11.110000 5.110000
v -0.107500 11.110000 6.055000
v -0.107500 11.110000 7.000000
v -0.107500 11.110000 7.945000
v -0.107500 11.110000 8.890000
v -0.107500 11.110000 9.835000
v -0.107500 11.110000 10.780000
v -0.107500 11.110000 11.725000
v -0.107500 11.110000 12.670000
v -0.107500 11.110000 13.615000
v -0.107500 11.380000 13.615000
v -0.107500 11.650000 0.385000
v -0.107500 11.650000 13.615000
v -0.107500 11.920000 0.385000
v -0.107500 11.920000 13.615000
v -0.107500 12.190000 0.385000
v -0.107500 12.190000 13.615000
v -0.107500 12.460000 0.385000
v -0.107500 12.460000 13.615000
v -0.107500 12.730000 0.385000
v -0.107500 12.730000 13.615000
v -0.107500 13.000000 0.385000
v -0.107500 13.000000 13.615000
v -0.107500 13.270000 0.385000
v -0.107500 13.270000 13.615000
v -0.107500 13.540000 0.385000
v -0.107500 13.540000 13.615000
v -0.107500 13.810000 0.385000
v -0.107500 13.810000 13.615000
v -0.107500 14.080000 0.385000
v -0.107500 14.080000 13.615000
v -0.715000 14.350000 0.385000
v -0.715000 14.350000 1.330000
v -0.107500 14.350000 0.385000
v -0.715000 14.350000 2.275000
v -0.715000 14.350000 3.220000
v -0.715000 14.350000 4.165000
v -0.715000 14.350000 5.110000
v -0.715000 14.350000 6.055000
v -0.715000 14.350000 7.000000
v -0.715000 14.350000 7.945000
v -0.715000 14.350000 8.890000
v -0.715000 14.350000 9.835000
v -0.715000 14.350000 10.780000
v -0.715000 14.350000 11.725000
v -0.715000 14.350000 12.670000
v -0.715000 14.350000 13.615000
v -0.107500 14.350000 13.615000
v -0.715000 14.620000 0.385000
v -0.715000 14.620000 1.330000
v -0.107500 14.620000 1.330000
v -0.107500 14.620000 0.385000
v -0.715000 14.620000 2.275000
v -0.107500 14.620000 2.275000
v -0.715000 14.620000 3.220000
v -0.107500 14.620000 3.220000
v -0.715000 14.620000 4.165000
v -0.107500 14.620000 4.165000
v -0.715000 14.620000 5.110000
v -0.107500 14.620000 5.110000
v -0.715000 14.620000 6.055000
v -0.107500 14.620000 6.055000
v -0.715000 14.620000 7.000000
v -0.107500 14.620000 7.000000
v -0.715000 14.620000 7.945000
v -0.107500 14.620000 7.945000
v -0.715000 14.620000 8.890000
v -0.107500 14.620000 8.890000
v -0.715000 14.620000 9.835000
v -0.107500 14.620000 9.835000
v -0.715000 14.620000 10.780000
v -0.107500 14.620000 10.780000
v -0.715000 14.620000 11.725000
v -0.107500 14.620000 11.725000
v -0.715000 14.620000 12.670000
v -0.107500 14.620000 12.670000
v -0.715000 14.620000 13.615000
v -0.107500 14.620000 13.615000
v 0.500000 11.110000 0.385000
v 0.500000 11.110000 1.330000
v 0.500000 11.380000 0.385000
v 0.500000 11.110000 2.275000
v 0.500000 11.110000 3.220000
v 0.500000 11.110000 4.165000
v 0.500000 11.110000 5.110000
v 0.500000 11.110000 6.055000
v 0.500000 11.110000 7.000000
v 0.500000 11.110000 7.945000
v 0.500000 11.110000 8.890000
v 0.500000 11.110000 9.835000
v 0.500000 11.110000 10.780000
v 0.500000 11.110000 11.725000
v 0.500000 11.110000 12.670000
v 0.500000 11.110000 13.615000
v 0.500000 11.380000 13.615000
v 0.500000 11.650000 0.385000
v 0.500000 11.650000 13.615000
v 0.500000 11.920000 0.385000
v 0.500000 11.920000 13.615000
v 0.500000 12.190000 0.385000
v 0.500000 12.190000 13.615000
v 0.500000 12.460000 0.385000
v 0.500000 12.460000 13.615000
v 0.500000 12.730000 0.385000
v 0.500000 12.730000 13.615000
v 0.500000 13.000000 0.385000
v 0.500000 13.000000 13.615000
v 0.500000 13.270000 0.385000
v 0.500000 13.270000 13.615000
v 0.500000 13.540000 0.385000
v 0.500000 13.540000 13.615000
v 0.500000 13.810000 0.385000
v 0.500000 13.810000 13.615000
v 0.500000 14.080000 0.385000
v 0.500000 14.080000 13.615000
v 0.500000 14.350000 0.385000
v 0.500000 14.350000 13.615000
v 0.500000 14.620000 0.385000
v 0.500000 14.620000 13.615000
v -0.107500 14.890000 0.385000
v -0.107500 14.890000 1.330000
v 0.500000 14.890000 1.330000
v 0.500000 14.890000 0.385000
v -0.107500 14.890000 2.275000
v 0.500000 14.890000 2.275000
v -0.107500 14.890000 3.220000
v 0.500000 14.890000 3.220000
v -0.107500 14.890000 4.165000
v 0.500000 14.890000 4.165000
v -0.107500 14.890000 5.110000
v 0.500000 14.890000 5.110000
v -0.107500 14.890000 6.055000
v 0.500000 14.890000 6.055000
v -0.107500 14.890000 7.000000
v 0.500000 14.890000 7.000000
v -0.107500 14.890000 7.945000
v 0.500000 14.890000 7.945000
v -0.107500 14.890000 8.890000
v 0.500000 14.890000 8.890000
v -0.107500 14.890000 9.835000
v 0.500000 14.890000 9.835000
v -0.107500 14.890000 10.780000
v 0.500000 14.890000 10.780000
v -0.107500 14.890000 11.725000
v 0.500000 14.890000 11.725000
v -0.107500 14.890000 12.670000
v 0.500000 14.890000 12.670000
v -0.107500 14.890000 13.615000
v 0.500000 14.890000 13.615000
v 1.107500 11.110000 0.385000
v 1.107500 11.110000 1.330000
v 1.107500 11.380000 0.385000
v 1.107500 11.110000 2.275000
v 1.107500 11.110000 3.220000
v 1.107500 11.110000 4.165000
v 1.107500 11.110000 5.110000
v 1.107500 11.110000 6.055000
v 1.107500 11.110000 7.000000
v 1.107500 11.110000 7.945000
v 1.107500 11.110000 8.890000
v 1.107500 11.110000 9.835000
v 1.107500 11.110000 10.780000
v 1.107500 11.110000 11.725000
v 1.107500 11.110000 12.670000
v 1.107500 11.110000 13.615000
v 1.107500 11.380000 13.615000
v 1.107500 11.650000 0.385000
v 1.107500 11.650000 13.615000
v 1.107500 11.920000 0.385000
v 1.107500 11.920000 13.615000
v 1.107500 12.190000 0.385000
v 1.107500 12.190000 13.615000
v 1.107500 12.460000 0.385000
v 1.107500 12.460000 13.615000
v 1.107500 12.730000 0.385000
v 1.107500 12.730000 13.615000
v 1.107500 13.000000 0.385000
v 1.107500 13.000000 13.615000
v 1.107500 13.270000 0.385000
v 1.107500 13.270000 13.615000
v 1.107500 13.540000 0.385000
v 1.107500 13.540000 13.615000
v 1.107500 13.810000 0.385000
v 1.107500 13.810000 13.615000
v 1.107500 14.080000 0.385000
v 1.107500 14.080000 13.615000
v 1.107500 14.350000 0.385000
v 1.107500 14.350000 13.615000
v 1.107500 14.620000 0.385000
v 1.107500 14.620000 13.615000
v 1.107500 14.890000 1.330000
v 1.107500 14.890000 0.385000
v 1.107500 14.890000 2.275000
v 1.107500 14.890000 3.220000
v 1.107500 14.890000 4.165000
v 1.107500 14.890000 5.110000
v 1.107500 14.890000 6.055000
v 1.107500 14.890000 7.000000
v 1.107500 14.890000 7.945000
v 1.107500 14.890000 8.890000
v 1.107500 14.890000 9.835000
v 1.107500 14.890000 10.780000
v 1.107500 14.890000 11.725000
v 1.107500 14.890000 12.670000
v 1.107500 14.890000 13.615000
v 1.715000 11.110000 0.385000
v 1.715000 11.110000 1.330000
v 1.715000 11.380000 0.385000
v 1.715000 11.110000 2.275000
v 1.715000 11.110000 3.220000
v 1.715000 11.110000 4.165000
v 1.715000 11.110000 5.110000
v 1.715000 11.110000 6.055000
v 1.715000 11.110000 7.000000
v 1.715000 11.110000 7.945000
v 1.715000 11.110000 8.890000
v 1.715000 11.110000 9.835000
v 1.715000 11.110000 10.780000
v 1.715000 11.110000 11.725000
v 1.715000 11.110000 12.670000
v 1.715000 11.110000 13.615000
v 1.715000 11.380000 13.615000
v 1.715000 11.650000 0.385000
v 1.715000 11.650000 13.615000
v 1.715000 11.920000 0.385000
v 1.715000 11.920000 13.615000
v 1.715000 12.190000 0.385000
v 1.715000 12.190000 13.615000
v 1.715000 12.460000 0.385000
v 1.715000 12.460000 13.615000
v 1.715000 12.730000 0.385000
v 1.715000 12.730000 13.615000
v 1.715000 13.000000 0.385000
v 1.715000 13.000000 13.615000
v 1.715000 13.270000 0.385000
v 1.715000 13.270000 13.615000
v 1.715000 13.540000 0.385000
v 1.715000 13.540000 13.615000
v 1.715000 13.810000 0.385000
v 1.715000 13.810000 13.615000
v 1.715000 14.080000 0.385000
v 1.715000 14.080000 13.615000
v 1.715000 14.350000 0.385000
v 1.715000 14.350000 13.615000
v 1.715000 14.620000 0.385000
v 1.715000 14.620000 13.615000
v 1.715000 14.890000 1.330000
v 1.715000 14.890000 0.385000
v 1.715000 14.890000 2.275000
v 1.715000 14.890000 3.220000
v 1.715000 14.890000 4.165000
v 1.715000 14.890000 5.110000
v 1.715000 14.890000 6.055000
v 1.715000 14.890000 7.000000
v 1.715000 14.890000 7.945000
v 1.715000 14.890000 8.890000
v 1.715000 14.890000 9.835000
v 1.715000 14.890000 10.780000
v 1.715000 14.890000 11.725000
v 1.715000 14.890000 12.670000
v 1.715000 14.890000 13.615000
v 2.322500 11.110000 0.385000
v 2.322500 11.110000 1.330000
v 2.322500 11.380000 0.385000
v 2.322500 11.110000 2.275000
v 2.322500 11.110000 3.220000
v 2.322500 11.110000 4.165000
v 2.322500 11.110000 5.110000
v 2.322500 11.110000 6.055000
v 2.322500 11.110000 7.000000
v 2.322500 11.110000 7.945000
v 2.322500 11.110000 8.890000
v 2.322500 11.110000 9.835000
v 2.322500 11.110000 10.780000
v 2.322500 11.110000 11.725000
v 2.322500 11.110000 12.670000
v 2.322500 11.110000 13.615000
v 2.322500 11.380000 13.615000
v 2.322500 11.650000 0.385000
v 2.322500 11.650000 13.615000
v 2.322500 11.920000 0.385000
v 2.322500 11.920000 13.615000
v 2.322500 12.190000 0.385000
v 2.322500 12.190000 13.615000
v 2.322500 12.460000 0.385000
v 2.322500 12.460000 13.615000
v 2.322500 12.730000 0.385000
v 2.322500 12.730000 13.615000
v 2.322500 13.000000 0.385000
v 2.322500 13.000000 13.615000
v 2.322500 13.270000 0.385000
v 2.322500 13.270000 13.615000
v 2.322500 13.540000 0.385000
v 2.322500 13.540000 13.615000
v 2.322500 13.810000 0.385000
v 2.322500 13.810000 13.615000
v 2.322500 14.080000 0.385000
v 2.322500 14.080000 13.615000
v 2.322500 14.350000 0.385000
v 2.322500 14.350000 13.615000
v 2.322500 14.620000 0.385000
v 2.322500 14.620000 13.615000
v 2.322500 14.890000 1.330000
v 2.322500 14.890000 0.385000
v 2.322500 14.890000 2.275000
v 2.322500 14.890000 3.220000
v 2.322500 14.890000 4.165000
v 2.322500 14.890000 5.110000
v 2.322500 14.890000 6.055000
v 2.322500 14.890000 7.000000
v 2.322500 14.890000 7.945000
v 2.322500 14.890000 8.890000
v 2.322500 14.890000 9.835000
v 2.322500 14.890000 10.780000
v 2.322500 14.890000 11.725000
v 2.322500 14.890000 12.670000
v 2.322500 14.890000 13.615000
v 2.930000 11.110000 0.385000
v 2.930000 11.110000 1.330000
v 2.930000 11.380000 0.385000
v 2.930000 11.110000 2.275000
v 2.930000 11.110000 3.220000
v 2.930000 11.110000 4.165000
v 2.930000 11.110000 5.110000
v 2.930000 11.110000 6.055000
v 2.930000 11.110000 7.000000
v 2.930000 11.110000 7.945000
v 2.930000 11.110000 8.890000
v 2.930000 11.110000 9.835000
v 2.930000 11.110000 10.780000
v 2.930000 11.110000 11.725000
v 2.930000 11.110000 12.670000
v 2.930000 11.110000 13.615000
v 2.930000 11.380000 13.615000
v 2.930000 11.650000 0.385000
v 2.930000 11.650000 13.615000
v 2.930000 11.920000 0.385000
v 2.930000 11.920000 13.615000
v 2.930000 12.190000 0.385000
v 2.930000 12.190000 13.615000
v 2.930000 12.460000 0.385000
v 2.930000 12.460000 13.615000
v 2.930000 12.730000 0.385000
v 2.930000 12.730000 13.615000
v 2.930000 13.000000 0.385000
v 2.930000 13.000000 13.615000
v 2.930000 13.270000 0.385000
v 2.930000 13.270000 13.615000
v 2.930000 13.540000 0.385000
v 2.930000 13.540000 13.615000
v 2.930000 13.810000 0.385000
v 2.930000 13.810000 13.615000
v 2.930000 14.080000 0.385000
v 2.930000 14.080000 13.615000
v 2.930000 14.350000 0.385000
v 2.930000 14.350000 13.615000
v 2.930000 14.620000 0.385000
v 2.930000 14.620000 13.615000
v 2.930000 14.890000 1.330000
v 2.930000 14.890000 0.385000
v 2.930000 14.890000 2.275000
v 2.930000 14.890000 3.220000
v 2.930000 14.890000 4.165000
v 2.930000 14.890000 5.110000
v 2.930000 14.890000 6.055000
v 2.930000 14.890000 7.000000
v 2.930000 14.890000 7.945000
v 2.930000 14.890000 8.890000
v 2.930000 14.890000 9.835000
v 2.930000 14.890000 10.780000
v 2.930000 14.890000 11.725000
v 2.930000 14.890000 12.670000
v 2.930000 14.890000 13.615000
v 3.537500 11.110000 0.385000
v 3.537500 11.110000 1.330000
v 3.537500 11.380000 0.385000
v 3.537500 11.110000 2.275000
v 3.537500 11.110000 3.220000
v 3.537500 11.110000 4.165000
v 3.537500 11.110000 5.110000
v 3.537500 11.110000 6.055000
v 3.537500 11.110000 7.000000
v 3.537500 11.110000 7.945000
v 3.537500 11.110000 8.890000
v 3.537500 11.110000 9.835000
v 3.537500 11.110000 10.780000
v 3.537500 11.110000 11.725000
v 3.537500 11.110000 12.670000
v 3.537500 11.110000 13.615000
v 3.537500 11.380000 13.615000
v 3.537500 11.650000 0.385000
v 3.537500 11.650000 13.615000
v 3.537500 11.920000 0.385000
v 3.537500 11.920000 13.615000
v 3.537500 12.190000 0.385000
v 3.537500 12.190000 13.615000
v 3.537500 12.460000 0.385000
v 3.537500 12.460000 13.615000
v 3.537500 12.730000 0.385000
v 3.537500 12.730000 13.615000
v 3.537500 13.000000 0.385000
v 3.537500 13.000000 13.615000
v 3.537500 13.270000 0.385000
v 3.537500 13.270000 13.615000
v 3.537500 13.540000 0.385000
v 3.537500 13.540000 13.615000
v 3.537500 13.810000 0.385000
v 3.537500 13.810000 13.615000
v 3.537500 14.080000 0.385000
v 3.537500 14.080000 13.615000
v 3.537500 14.350000 0.385000
v 3.537500 14.350000 13.615000
v 3.537500 14.620000 0.385000
v 3.537500 14.620000 13.615000
v 3.537500 14.890000 1.330000
v 3.537500 14.890000 0.385000
v 3.537500 14.890000 2.275000
v 3.537500 14.890000 3.220000
v 3.537500 14.890000 4.165000
v 3.537500 14.890000 5.110000
v 3.537500 14.890000 6.055000
v 3.537500 14.890000 7.000000
v 3.537500 14.890000 7.945000
v 3.537500 14.890000 8.890000
v 3.537500 14.890000 9.835000
v 3.537500 14.890000 10.780000
v 3.537500 14.890000 11.725000
v 3.537500 14.890000 12.670000
v 3.537500 14.890000 13.615000
v 4.145000 11.110000 0.385000
v 4.145000 11.110000 1.330000
v 4.145000 11.380000 0.385000
v 4.145000 11.110000 2.275000
v 4.145000 11.110000 3.220000
v 4.145000 11.110000 4.165000
v 4.145000 11.110000 5.110000
v 4.145000 11.110000 6.055000
v 4.145000 11.110000 7.000000
v 4.145000 11.110000 7.945000
v 4.145000 11.110000 8.890000
v 4.145000 11.110000 9.835000
v 4.145000 11.110000 10.780000
v 4.145000 11.110000 11.725000
v 4.145000 11.110000 12.670000
v 4.145000 11.110000 13.615000
v 4.145000 11.380000 13.615000
v 4.145000 11.650000 0.385000
v 4.145000 11.650000 13.615000
v 4.145000 11.920000 0.385000
v 4.145000 11.920000 13.615000
v 4.145000 12.190000 0.385000
v 4.145000 12.190000 13.615000
v 4.145000 12.460000 0.385000
v 4.145000 12.460000 13.615000
v 4.145000 12.730000 0.385000
v 4.145000 12.730000 13.615000
v 4.145000 13.000000 0.385000
v 4.145000 13.000000 13.615000
v 4.145000 13.270000 0.385000
v 4.145000 13.270000 13.615000
v 4.145000 13.540000 0.385000
v 4.145000 13.540000 13.615000
v 4.145000 13.810000 0.385000
v 4.145000 13.810000 13.615000
v 4.145000 14.080000 0.385000
v 4.145000 14.080000 13.615000
v 4.145000 14.350000 0.385000
v 4.145000 14.350000 13.615000
v 4.145000 14.620000 0.385000
v 4.145000 14.620000 13.615000
v 4.145000 14.890000 1.330000
v 4.145000 14.890000 0.385000
v 4.145000 14.890000 2.275000
v 4.145000 14.890000 3.220000
v 4.145000 14.890000 4.165000
v 4.145000 14.890000 5.110000
v 4.145000 14.890000 6.055000
v 4.145000 14.890000 7.000000
v 4.145000 14.890000 7.945000
v 4.145000 14.890000 8.890000
v 4.145000 14.890000 9.835000
v 4.145000 14.890000 10.780000
v 4.145000 14.890000 11.725000
v 4.145000 14.890000 12.670000
v 4.145000 14.890000 13.615000
v 4.752500 11.110000 0.385000
v 4.752500 11.110000 1.330000
v 4.752500 11.380000 1.330000
v 4.752500 11.380000 0.385000
v 4.752500 11.110000 2.275000
v 4.752500 11.380000 2.275000
v 4.752500 11.110000 3.220000
v 4.752500 11.380000 3.220000
v 4.752500 11.110000 4.165000
v 4.752500 11.380000 4.165000
v 4.752500 11.110000 5.110000
v 4.752500 11.380000 5.110000
v 4.752500 11.110000 6.055000
v 4.752500 11.380000 6.055000
v 4.752500 11.110000 7.000000
v 4.752500 11.380000 7.000000
v 4.752500 11.110000 7.945000
v 4.752500 11.380000 7.945000
v 4.752500 11.110000 8.890000
v 4.752500 11.380000 8.890000
v 4.752500 11.110000 9.835000
v 4.752500 11.380000 9.835000
v 4.752500 11.110000 10.780000
v 4.752500 11.380000 10.780000
v 4.752500 11.110000 11.725000
v 4.752500 11.380000 11.725000
v 4.752500 11.110000 12.670000
v 4.752500 11.380000 12.670000
v 4.752500 11.110000 13.615000
v 4.752500 11.380000 13.615000
v 4.752500 11.650000 1.330000
v 4.752500 11.650000 0.385000
v 4.752500 11.650000 2.275000
v 4.752500 11.650000 3.220000
v 4.752500 11.650000 4.165000
v 4.752500 11.650000 5.110000
v 4.752500 11.650000 6.055000
v 4.752500 11.650000 7.000000
v 4.752500 11.650000 7.945000
v 4.752500 11.650000 8.890000
v 4.752500 11.650000 9.835000
v 4.752500 11.650000 10.780000
v 4.752500 11.650000 11.725000
v 4.752500 11.650000 12.670000
v 4.752500 11.650000 13.615000
v 4.752500 11.920000 1.330000
v 4.752500 11.920000 0.385000
v 4.752500 11.920000 2.275000
v 4.752500 11.920000 3.220000
v 4.752500 11.920000 4.165000
v 4.752500 11.920000 5.110000
v 4.752500 11.920000 6.055000
v 4.752500 11.920000 7.000000
v 4.752500 11.920000 7.945000
v 4.752500 11.920000 8.890000
v 4.752500 11.920000 9.835000
v 4.752500 11.920000 10.780000
v 4.752500 11.920000 11.725000
v 4.752500 11.920000 12.670000
v 4.752500 11.920000 13.615000
v 4.752500 12.190000 1.330000
v 4.752500 12.190000 0.385000
v 4.752500 12.190000 2.275000
v 4.752500 12.190000 3.220000
v 4.752500 12.190000 4.165000
v 4.752500 12.190000 5.110000
v 4.752500 12.190000 6.055000
v 4.752500 12.190000 7.000000
v 4.752500 12.190000 7.945000
v 4.752500 12.190000 8.890000
v 4.752500 12.190000 9.835000
v 4.752500 12.190000 10.780000
v 4.752500 12.190000 11.725000
v 4.752500 12.190000 12.670000
v 4.752500 12.190000 13.615000
v 4.752500 12.460000 1.330000
v 4.752500 12.460000 0.385000
v 4.752500 12.460000 2.275000
v 4.752500 12.460000 3.220000
v 4.752500 12.460000 4.165000
v 4.752500 12.460000 5.110000
v 4.752500 12.460000 6.055000
v 4.752500 12.460000 7.000000
v 4.752500 12.460000 7.945000
v 4.752500 12.460000 8.890000
v 4.752500 12.460000 9.835000
v 4.752500 12.460000 10.780000
v 4.752500 12.460000 11.725000
v 4.752500 12.460000 12.670000
v 4.752500 12.460000 13.615000
v 4.752500 12.730000 1.330000
v 4.752500 12.730000 0.385000
v 4.752500 12.730000 2.275000
v 4.752500 12.730000 3.220000
v 4.752500 12.730000 4.165000
v 4.752500 12.730000 5.110000
v 4.752500 12.730000 6.055000
v 4.752500 12.730000 7.000000
v 4.752500 12.730000 7.945000
v 4.752500 12.730000 8.890000
v 4.752500 12.730000 9.835000
v 4.752500 12.730000 10.780000
v 4.752500 12.730000 11.725000
v 4.752500 12.730000 12.670000
v 4.752500 12.730000 13.615000
v 4.752500 13.000000 1.330000
v 4.752500 13.000000 0.385000
v 4.752500 13.000000 2.275000
v 4.752500 13.000000 3.220000
v 4.752500 13.000000 4.165000
v 4.752500 13.000000 5.110000
v 4.752500 13.000000 6.055000
v 4.752500 13.000000 7.000000
v 4.752500 13.000000 7.945000
v 4.752500 13.000000 8.890000
v 4.752500 13.000000 9.835000
v 4.752500 13.000000 10.780000
v 4.752500 13.000000 11.725000
v 4.752500 13.000000 12.670000
v 4.752500 13.000000 13.615000
v 4.752500 13.270000 1.330000
v 4.752500 13.270000 0.385000
v 4.752500 13.270000 2.275000
v 4.752500 13.270000 3.220000
v 4.752500 13.270000 4.165000
v 4.752500 13.270000 5.110000
v 4.752500 13.270000 6.055000
v 4.752500 13.270000 7.000000
v 4.752500 13.270000 7.945000
v 4.752500 13.270000 8.890000
v 4.752500 13.270000 9.835000
v 4.752500 13.270000 10.780000
v 4.752500 13.270000 11.725000
v 4.752500 13.270000 12.670000
v 4.752500 13.270000 13.615000
v 4.752500 13.540000 1.330000
v 4.752500 13.540000 0.385000
v 4.752500 13.540000 2.275000
v 4.752500 13.540000 3.220000
v 4.752500 13.540000 4.165000
v 4.752500 13.540000 5.110000
v 4.752500 13.540000 6.055000
v 4.752500 13.540000 7.000000
v 4.752500 13.540000 7.945000
v 4.752500 13.540000 8.890000
v 4.752500 13.540000 9.835000
v 4.752500 13.540000 10.780000
v 4.752500 13.540000 11.725000
v 4.752500 13.540000 12.670000
v 4.752500 13.540000 13.615000
v 4.752500 13.810000 1.330000
v 4.752500 13.810000 0.385000
v 4.752500 13.810000 2.275000
v 4.752500 13.810000 3.220000
v 4.752500 13.810000 4.165000
v 4.752500 13.810000 5.110000
v 4.752500 13.810000 6.055000
v 4.752500 13.810000 7.000000
v 4.752500 13.810000 7.945000
v 4.752500 13.810000 8.890000
v 4.752500 13.810000 9.835000
v 4.752500 13.810000 10.780000
v 4.752500 13.810000 11.725000
v 4.752500 13.810000 12.670000
v 4.752500 13.810000 13.615000
v 4.752500 14.080000 1.330000
v 4.752500 14.080000 0.385000
v 4.752500 14.080000 2.275000
v 4.752500 14.080000 3.220000
v 4.752500 14.080000 4.165000
v 4.752500 14.080000 5.110000
v 4.752500 14.080000 6.055000
v 4.752500 14.080000 7.000000
v 4.752500 14.080000 7.945000
v 4.752500 14.080000 8.890000
v 4.752500 14.080000 9.835000
v 4.752500 14.080000 10.780000
v 4.752500 14.080000 11.725000
v 4.752500 14.080000 12.670000
v 4.752500 14.080000 13.615000
v 4.752500 14.350000 1.330000
v 4.752500 14.350000 0.385000
v 4.752500 14.350000 2.275000
v 4.752500 14.350000 3.220000
v 4.752500 14.350000 4.165000
v 4.752500 14.350000 5.110000
v 4.752500 14.350000 6.055000
v 4.752500 14.350000 7.000000
v 4.752500 14.350000 7.945000
v 4.752500 14.350000 8.890000
v 4.752500 14.350000 9.835000
v 4.752500 14.350000 10.780000
v 4.752500 14.350000 11.725000
v 4.752500 14.350000 12.670000
v 4.752500 14.350000 13.615000
v 4.752500 14.620000 1.330000
v 4.752500 14.620000 0.385000
v 4.752500 14.620000 2.275000
v 4.752500 14.620000 3.220000
v 4.752500 14.620000 4.165000
v 4.752500 14.620000 5.110000
v 4.752500 14.620000 6.055000
v 4.752500 14.620000 7.000000
v 4.752500 14.620000 7.945000
v 4.752500 14.620000 8.890000
v 4.752500 14.620000 9.835000
v 4.752500 14.620000 10.780000
v 4.752500 14.620000 11.725000
v 4.752500 14.620000 12.670000
v 4.752500 14.620000 13.615000
v 4.752500 14.890000 1.330000
v 4.752500 14.890000 0.385000
v 4.752500 14.890000 2.275000
v 4.752500 14.890000 3.220000
v 4.752500 14.890000 4.165000
v 4.752500 14.890000 5.110000
v 4.752500 14.890000 6.055000
v 4.752500 14.890000 7.000000
v 4.752500 14.890000 7.945000
v 4.752500 14.890000 8.890000
v 4.752500 14.890000 9.835000
v 4.752500 14.890000 10.780000
v 4.752500 14.890000 11.725000
v 4.752500 14.890000 12.670000
v 4.752500 14.890000 13.615000
f 1 2 3
f 1 3 4
f 1 5 6
f 1 6 4
f 1 2 7
f 1 7 5
f 4 3 8
f 4 8 9
f 4 6 10
f 4 10 9
f 9 8 11
f 9 11 12
f 9 10 13
f 9 13 12
f 12 11 14
f 12 14 15
f 12 13 16
f 12 16 15
f 15 14 17
f 15 17 18
f 15 16 19
f 15 19 18
f 18 17 20
f 18 20 21
f 18 19 22
f 18 22 21
f 21 20 23
f 21 23 24
f 21 22 25
f 21 25 24
f 24 23 26
f 24 26 27
f 24 25 28
f 24 28 27
f 27 26 29
f 27 29 30
f 27 28 31
f 27 31 30
f 30 29 32
f 30 32 33
f 30 31 34
f 30 34 33
f 33 32 35
f 33 35 36
f 33 34 37
f 33 37 36
f 36 35 38
f 36 38 39
f 36 37 40
f 36 40 39
f 39 38 41
f 39 41 42
f 39 40 43
f 39 43 42
f 42 41 44
f 42 44 45
f 42 43 46
f 42 46 45
f 45 46 47
f 45 47 44
f 2 48 49
f 2 49 3
f 48 49 50
f 48 50 51
f 2 48 51
f 2 51 7
f 3 49 52
f 3 52 8
f 49 52 53
f 49 53 50
f 8 52 54
f 8 54 11
f 52 54 55
f 52 55 53
f 11 54 56
f 11 56 14
f 54 56 57
f 54 57 55
f 14 56 58
f 14 58 17
f 56 58 59
f 56 59 57
f 17 58 60
f 17 60 20
f 58 60 61
f 58 61 59
f 20 60 62
f 20 62 23
f 60 62 63
f 60 63 61
f 23 62 64
f 23 64 26
f 62 64 65
f 62 65 63
f 26 64 66
f 26 66 29
f 64 66 67
f 64 67 65
f 29 66 68
f 29 68 32
f 66 68 69
f 66 69 67
f 32 68 70
f 32 70 35
f 68 70 71
f 68 71 69
f 35 70 72
f 35 72 38
f 70 72 73
f 70 73 71
f 38 72 74
f 38 74 41
f 72 74 75
f 72 75 73
f 41 74 76
f 41 76 44
f 74 76 77
f 74 77 75
f 44 47 77
f 44 77 76
f 5 78 79
f 5 79 6
f 5 7 80
f 5 80 78
f 6 79 81
f 6 81 10
f 10 81 82
f 10 82 13
f 13 82 83
f 13 83 16
f 16 83 84
f 16 84 19
f 19 84 85
f 19 85 22
f 22 85 86
f 22 86 25
f 25 86 87
f 25 87 28
f 28 87 88
f 28 88 31
f 31 88 89
f 31 89 34
f 34 89 90
f 34 90 37
f 37 90 91
f 37 91 40
f 40 91 92
f 40 92 43
f 43 92 93
f 43 93 46
f 46 93 94
f 46 94 47
f 7 51 95
f 7 95 80
f 47 94 96
f 47 96 77
f 51 97 98
f 51 98 50
f 51 97 99
f 51 99 95
f 50 98 100
f 50 100 53
f 53 100 101
f 53 101 55
f 55 101 102
f 55 102 57
f 57 102 103
f 57 103 59
f 59 103 104
f 59 104 61
f 61 104 105
f 61 105 63
f 63 105 106
f 63 106 65
f 65 106 107
f 65 107 67
f 67 107 108
f 67 108 69
f 69 108 109
f 69 109 71
f 71 109 110
f 71 110 73
f 73 110 111
f 73 111 75
f 75 111 112
f 75 112 77
f 77 96 113
f 77 113 112
f 97 114 115
f 97 115 98
f 114 115 116
f 114 116 117
f 97 114 117
f 97 117 99
f 98 115 118
f 98 118 100
f 115 118 119
f 115 119 116
f 100 118 120
f 100 120 101
f 118 120 121
f 118 121 119
f 101 120 122
f 101 122 102
f 120 122 123
f 120 123 121
f 102 122 124
f 102 124 103
f 122 124 125
f 122 125 123
f 103 124 126
f 103 126 104
f 124 126 127
f 124 127 125
f 104 126 128
f 104 128 105
f 126 128 129
f 126 129 127
f 105 128 130
f 105 130 106
f 128 130 131
f 128 131 129
f 106 130 132
f 106 132 107
f 130 132 133
f 130 133 131
f 107 132 134
f 107 134 108
f 132 134 135
f 132 135 133
f 108 134 136
f 108 136 109
f 134 136 137
f 134 137 135
f 109 136 138
f 109 138 110
f 136 138 139
f 136 139 137
f 110 138 140
f 110 140 111
f 138 140 141
f 138 141 139
f 111 140 142
f 111 142 112
f 140 142 143
f 140 143 141
f 112 113 143
f 112 143 142
f 78 144 145
f 78 145 79
f 78 80 146
f 78 146 144
f 79 145 147
f 79 147 81
f 81 147 148
f 81 148 82
f 82 148 149
f 82 149 83
f 83 149 150
f 83 150 84
f 84 150 151
f 84 151 85
f 85 151 152
f 85 152 86
f 86 152 153
f 86 153 87
f 87 153 154
f 87 154 88
f 88 154 155
f 88 155 89
f 89 155 156
f 89 156 90
f 90 156 157
f 90 157 91
f 91 157 158
f 91 158 92
f 92 158 159
f 92 159 93
f 93 159 160
f 93 160 94
f 80 95 161
f 80 161 146
f 94 160 162
f 94 162 96
f 95 99 163
f 95 163 161
f 96 162 164
f 96 164 113
f 99 117 165
f 99 165 163
f 113 164 166
f 113 166 143
f 117 167 168
f 117 168 116
f 117 167 169
f 117 169 165
f 116 168 170
f 116 170 119
f 119 170 171
f 119 171 121
f 121 171 172
f 121 172 123
f 123 172 173
f 123 173 125
f 125 173 174
f 125 174 127
f 127 174 175
f 127 175 129
f 129 175 176
f 129 176 131
f 131 176 177
f 131 177 133
f 133 177 178
f 133 178 135
f 135 178 179
f 135 179 137
f 137 179 180
f 137 180 139
f 139 180 181
f 139 181 141
f 141 181 182
f 141 182 143
f 143 166 183
f 143 183 182
f 167 184 185
f 167 185 168
f 184 185 186
f 184 186 187
f 167 184 187
f 167 187 169
f 168 185 188
f 168 188 170
f 185 188 189
f 185 189 186
f 170 188 190
f 170 190 171
f 188 190 191
f 188 191 189
f 171 190 192
f 171 192 172
f 190 192 193
f 190 193 191
f 172 192 194
f 172 194 173
f 192 194 195
f 192 195 193
f 173 194 196
f 173 196 174
f 194 196 197
f 194 197 195
f 174 196 198
f 174 198 175
f 196 198 199
f 196 199 197
f 175 198 200
f 175 200 176
f 198 200 201
f 198 201 199
f 176 200 202
f 176 202 177
f 200 202 203
f 200 203 201
f 177 202 204
f 177 204 178
f 202 204 205
f 202 205 203
f 178 204 206
f 178 206 179
f 204 206 207
f 204 207 205
f 179 206 208
f 179 208 180
f 206 208 209
f 206 209 207
f 180 208 210
f 180 210 181
f 208 210 211
f 208 211 209
f 181 210 212
f 181 212 182
f 210 212 213
f 210 213 211
f 182 183 213
f 182 213 212
f 144 214 215
f 144 215 145
f 144 146 216
f 144 216 214
f 145 215 217
f 145 217 147
f 147 217 218
f 147 218 148
f 148 218 219
f 148 219 149
f 149 219 220
f 149 220 150
f 150 220 221
f 150 221 151
f 151 221 222
f 151 222 152
f 152 222 223
f 152 223 153
f 153 223 224
f 153 224 154
f 154 224 225
f 154 225 155
f 155 225 226
f 155 226 156
f 156 226 227
f 156 227 157
f 157 227 228
f 157 228 158
f 158 228 229
f 158 229 159
f 159 229 230
f 159 230 160
f 146 161 231
f 146 231 216
f 160 230 232
f 160 232 162
f 161 163 233
f 161 233 231
f 162 232 234
f 162 234 164
f 163 165 235
f 163 235 233
f 164 234 236
f 164 236 166
f 165 169 237
f 165 237 235
f 166 236 238
f 166 238 183
f 169 187 239
f 169 239 237
f 183 238 240
f 183 240 213
f 187 241 242
f 187 242 186
f 187 241 243
f 187 243 239
f 186 242 244
f 186 244 189
f 189 244 245
f 189 245 191
f 191 245 246
f 191 246 193
f 193 246 247
f 193 247 195
f 195 247 248
f 195 248 197
f 197 248 249
f 197 249 199
f 199 249 250
f 199 250 201
f 201 250 251
f 201 251 203
f 203 251 252
f 203 252 205
f 205 252 253
f 205 253 207
f 207 253 254
f 207 254 209
f 209 254 255
f 209 255 211
f 211 255 256
f 211 256 213
f 213 240 257
f 213 257 256
f 241 258 259
f 241 259 242
f 258 259 260
f 258 260 261
f 241 258 261
f 241 261 243
f 242 259 262
f 242 262 244
f 259 262 263
f 259 263 260
f 244 262 264
f 244 264 245
f 262 264 265
f 262 265 263
f 245 264 266
f 245 266 246
f 264 266 267
f 264 267 265
f 246 266 268
f 246 268 247
f 266 268 269
f 266 269 267
f 247 268 270
f 247 270 248
f 268 270 271
f 268 271 269
f 248 270 272
f 248 272 249
f 270 272 273
f 270 273 271
f 249 272 274
f 249 274 250
f 272 274 275
f 272 275 273
f 250 274 276
f 250 276 251
f 274 276 277
f 274 277 275
f 251 276 278
f 251 278 252
f 276 278 279
f 276 279 277
f 252 278 280
f 252 280 253
f 278 280 281
f 278 281 279
f 253 280 282
f 253 282 254
f 280 282 283
f 280 283 281
f 254 282 284
f 254 284 255
f 282 284 285
f 282 285 283
f 255 284 286
f 255 286 256
f 284 286 287
f 284 287 285
f 256 257 287
f 256 287 286
f 214 288 289
f 214 289 215
f 214 216 290
f 214 290 288
f 215 289 291
f 215 291 217
f 217 291 292
f 217 292 218
f 218 292 293
f 218 293 219
f 219 293 294
f 219 294 220
f 220 294 295
f 220 295 221
f 221 295 296
f 221 296 222
f 222 296 297
f 222 297 223
f 223 297 298
f 223 298 224
f 224 298 299
f 224 299 225
f 225 299 300
f 225 300 226
f 226 300 301
f 226 301 227
f 227 301 302
f 227 302 228
f 228 302 303
f 228 303 229
f 229 303 304
f 229 304 230
f 216 231 305
f 216 305 290
f 230 304 306
f 230 306 232
f 231 233 307
f 231 307 305
f 232 306 308
f 232 308 234
f 233 235 309
f 233 309 307
f 234 308 310
f 234 310 236
f 235 237 311
f 235 311 309
f 236 310 312
f 236 312 238
f 237 239 313
f 237 313 311
f 238 312 314
f 238 314 240
f 239 243 315
f 239 315 313
f 240 314 316
f 240 316 257
f 243 261 317
f 243 317 315
f 257 316 318
f 257 318 287
f 261 319 320
f 261 320 260
f 261 319 321
f 261 321 317
f 260 320 322
f 260 322 263
f 263 322 323
f 263 323 265
f 265 323 324
f 265 324 267
f 267 324 325
f 267 325 269
f 269 325 326
f 269 326 271
f 271 326 327
f 271 327 273
f 273 327 328
f 273 328 275
f 275 328 329
f 275 329 277
f 277 329 330
f 277 330 279
f 279 330 331
f 279 331 281
f 281 331 332
f 281 332 283
f 283 332 333
f 283 333 285
f 285 333 334
f 285 334 287
f 287 318 335
f 287 335 334
f 319 336 337
f 319 337 320
f 319 336 338
f 319 338 321
f 320 337 339
f 320 339 322
f 322 339 340
f 322 340 323
f 323 340 341
f 323 341 324
f 324 341 342
f 324 342 325
f 325 342 343
f 325 343 326
f 326 343 344
f 326 344 327
f 327 344 345
f 327 345 328
f 328 345 346
f 328 346 329
f 329 346 347
f 329 347 330
f 330 347 348
f 330 348 331
f 331 348 349
f 331 349 332
f 332 349 350
f 332 350 333
f 333 350 351
f 333 351 334
f 334 335 352
f 334 352 351
f 336 353 354
f 336 354 337
f 353 354 355
f 353 355 356
f 336 353 356
f 336 356 338
f 337 354 357
f 337 357 339
f 354 357 358
f 354 358 355
f 339 357 359
f 339 359 340
f 357 359 360
f 357 360 358
f 340 359 361
f 340 361 341
f 359 361 362
f 359 362 360
f 341 361 363
f 341 363 342
f 361 363 364
f 361 364 362
f 342 363 365
f 342 365 343
f 363 365 366
f 363 366 364
f 343 365 367
f 343 367 344
f 365 367 368
f 365 368 366
f 344 367 369
f 344 369 345
f 367 369 370
f 367 370 368
f 345 369 371
f 345 371 346
f 369 371 372
f 369 372 370
f 346 371 373
f 346 373 347
f 371 373 374
f 371 374 372
f 347 373 375
f 347 375 348
f 373 375 376
f 373 376 374
f 348 375 377
f 348 377 349
f 375 377 378
f 375 378 376
f 349 377 379
f 349 379 350
f 377 379 380
f 377 380 378
f 350 379 381
f 350 381 351
f 379 381 382
f 379 382 380
f 351 352 382
f 351 382 381
f 288 383 384
f 288 384 289
f 288 290 385
f 288 385 383
f 289 384 386
f 289 386 291
f 291 386 387
f 291 387 292
f 292 387 388
f 292 388 293
f 293 388 389
f 293 389 294
f 294 389 390
f 294 390 295
f 295 390 391
f 295 391 296
f 296 391 392
f 296 392 297
f 297 392 393
f 297 393 298
f 298 393 394
f 298 394 299
f 299 394 395
f 299 395 300
f 300 395 396
f 300 396 301
f 301 396 397
f 301 397 302
f 302 397 398
f 302 398 303
f 303 398 399
f 303 399 304
f 290 305 400
f 290 400 385
f 304 399 401
f 304 401 306
f 305 307 402
f 305 402 400
f 306 401 403
f 306 403 308
f 307 309 404
f 307 404 402
f 308 403 405
f 308 405 310
f 309 311 406
f 309 406 404
f 310 405 407
f 310 407 312
f 311 313 408
f 311 408 406
f 312 407 409
f 312 409 314
f 313 315 410
f 313 410 408
f 314 409 411
f 314 411 316
f 315 317 412
f 315 412 410
f 316 411 413
f 316 413 318
f 317 321 414
f 317 414 412
f 318 413 415
f 318 415 335
f 321 338 416
f 321 416 414
f 335 415 417
f 335 417 352
f 338 356 418
f 338 418 416
f 352 417 419
f 352 419 382
f 356 420 421
f 356 421 355
f 356 420 422
f 356 422 418
f 355 421 423
f 355 423 358
f 358 423 424
f 358 424 360
f 360 424 425
f 360 425 362
f 362 425 426
f 362 426 364
f 364 426 427
f 364 427 366
f 366 427 428
f 366 428 368
f 368 428 429
f 368 429 370
f 370 429 430
f 370 430 372
f 372 430 431
f 372 431 374
f 374 431 432
f 374 432 376
f 376 432 433
f 376 433 378
f 378 433 434
f 378 434 380
f 380 434 435
f 380 435 382
f 382 419 436
f 382 436 435
f 420 437 438
f 420 438 421
f 437 438 439
f 437 439 440
f 420 437 440
f 420 440 422
f 421 438 441
f 421 441 423
f 438 441 442
f 438 442 439
f 423 441 443
f 423 443 424
f 441 443 444
f 441 444 442
f 424 443 445
f 424 445 425
f 443 445 446
f 443 446 444
f 425 445 447
f 425 447 426
f 445 447 448
f 445 448 446
f 426 447 449
f 426 449 427
f 447 449 450
f 447 450 448
f 427 449 451
f 427 451 428
f 449 451 452
f 449 452 450
f 428 451 453
f 428 453 429
f 451 453 454
f 451 454 452
f 429 453 455
f 429 455 430
f 453 455 456
f 453 456 454
f 430 455 457
f 430 457 431
f 455 457 458
f 455 458 456
f 431 457 459
f 431 459 432
f 457 459 460
f 457 460 458
f 432 459 461
f 432 461 433
f 459 461 462
f 459 462 460
f 433 461 463
f 433 463 434
f 461 463 464
f 461 464 462
f 434 463 465
f 434 465 435
f 463 465 466
f 463 466 464
f 435 436 466
f 435 466 465
f 383 467 468
f 383 468 384
f 383 385 469
f 383 469 467
f 384 468 470
f 384 470 386
f 386 470 471
f 386 471 387
f 387 471 472
f 387 472 388
f 388 472 473
f 388 473 389
f 389 473 474
f 389 474 390
f 390 474 475
f 390 475 391
f 391 475 476
f 391 476 392
f 392 476 477
f 392 477 393
f 393 477 478
f 393 478 394
f 394 478 479
f 394 479 395
f 395 479 480
f 395 480 396
f 396 480 481
f 396 481 397
f 397 481 482
f 397 482 398
f 398 482 483
f 398 483 399
f 385 400 484
f 385 484 469
f 399 483 485
f 399 485 401
f 400 402 486
f 400 486 484
f 401 485 487
f 401 487 403
f 402 404 488
f 402 488 486
f 403 487 489
f 403 489 405
f 404 406 490
f 404 490 488
f 405 489 491
f 405 491 407
f 406 408 492
f 406 492 490
f 407 491 493
f 407 493 409
f 408 410 494
f 408 494 492
f 409 493 495
f 409 495 411
f 410 412 496
f 410 496 494
f 411 495 497
f 411 497 413
f 412 414 498
f 412 498 496
f 413 497 499
f 413 499 415
f 414 416 500
f 414 500 498
f 415 499 501
f 415 501 417
f 416 418 502
f 416 502 500
f 417 501 503
f 417 503 419
f 418 422 504
f 418 504 502
f 419 503 505
f 419 505 436
f 422 440 506
f 422 506 504
f 436 505 507
f 436 507 466
f 440 508 509
f 440 509 439
f 508 509 510
f 508 510 511
f 440 508 511
f 440 511 506
f 439 509 512
f 439 512 442
f 509 512 513
f 509 513 510
f 442 512 514
f 442 514 444
f 512 514 515
f 512 515 513
f 444 514 516
f 444 516 446
f 514 516 517
f 514 517 515
f 446 516 518
f 446 518 448
f 516 518 519
f 516 519 517
f 448 518 520
f 448 520 450
f 518 520 521
f 518 521 519
f 450 520 522
f 450 522 452
f 520 522 523
f 520 523 521
f 452 522 524
f 452 524 454
f 522 524 525
f 522 525 523
f 454 524 526
f 454 526 456
f 524 526 527
f 524 527 525
f 456 526 528
f 456 528 458
f 526 528 529
f 526 529 527
f 458 528 530
f 458 530 460
f 528 530 531
f 528 531 529
f 460 530 532
f 460 532 462
f 530 532 533
f 530 533 531
f 462 532 534
f 462 534 464
f 532 534 535
f 532 535 533
f 464 534 536
f 464 536 466
f 534 536 537
f 534 537 535
f 466 507 537
f 466 537 536
f 467 538 539
f 467 539 468
f 467 469 540
f 467 540 538
f 468 539 541
f 468 541 470
f 470 541 542
f 470 542 471
f 471 542 543
f 471 543 472
f 472 543 544
f 472 544 473
f 473 544 545
f 473 545 474
f 474 545 546
f 474 546 475
f 475 546 547
f 475 547 476
f 476 547 548
f 476 548 477
f 477 548 549
f 477 549 478
f 478 549 550
f 478 550 479
f 479 550 551
f 479 551 480
f 480 551 552
f 480 552 481
f 481 552 553
f 481 553 482
f 482 553 554
f 482 554 483
f 469 484 555
f 469 555 540
f 483 554 556
f 483 556 485
f 484 486 557
f 484 557 555
f 485 556 558
f 485 558 487
f 486 488 559
f 486 559 557
f 487 558 560
f 487 560 489
f 488 490 561
f 488 561 559
f 489 560 562
f 489 562 491
f 490 492 563
f 490 563 561
f 491 562 564
f 491 564 493
f 492 494 565
f 492 565 563
f 493 564 566
f 493 566 495
f 494 496 567
f 494 567 565
f 495 566 568
f 495 568 497
f 496 498 569
f 496 569 567
f 497 568 570
f 497 570 499
f 498 500 571
f 498 571 569
f 499 570 572
f 499 572 501
f 500 502 573
f 500 573 571
f 501 572 574
f 501 574 503
f 502 504 575
f 502 575 573
f 503 574 576
f 503 576 505
f 504 506 577
f 504 577 575
f 505 576 578
f 505 578 507
f 511 510 579
f 511 579 580
f 506 511 580
f 506 580 577
f 510 513 581
f 510 581 579
f 513 515 582
f 513 582 581
f 515 517 583
f 515 583 582
f 517 519 584
f 517 584 583
f 519 521 585
f 519 585 584
f 521 523 586
f 521 586 585
f 523 525 587
f 523 587 586
f 525 527 588
f 525 588 587
f 527 529 589
f 527 589 588
f 529 531 590
f 529 590 589
f 531 533 591
f 531 591 590
f 533 535 592
f 533 592 591
f 535 537 593
f 535 593 592
f 507 578 593
f 507 593 537
f 538 594 595
f 538 595 539
f 538 540 596
f 538 596 594
f 539 595 597
f 539 597 541
f 541 597 598
f 541 598 542
f 542 598 599
f 542 599 543
f 543 599 600
f 543 600 544
f 544 600 601
f 544 601 545
f 545 601 602
f 545 602 546
f 546 602 603
f 546 603 547
f 547 603 604
f 547 604 548
f 548 604 605
f 548 605 549
f 549 605 606
f 549 606 550
f 550 606 607
f 550 607 551
f 551 607 608
f 551 608 552
f 552 608 609
f 552 609 553
f 553 609 610
f 553 610 554
f 540 555 611
f 540 611 596
f 554 610 612
f 554 612 556
f 555 557 613
f 555 613 611
f 556 612 614
f 556 614 558
f 557 559 615
f 557 615 613
f 558 614 616
f 558 616 560
f 559 561 617
f 559 617 615
f 560 616 618
f 560 618 562
f 561 563 619
f 561 619 617
f 562 618 620
f 562 620 564
f 563 565 621
f 563 621 619
f 564 620 622
f 564 622 566
f 565 567 623
f 565 623 621
f 566 622 624
f 566 624 568
f 567 569 625
f 567 625 623
f 568 624 626
f 568 626 570
f 569 571 627
f 569 627 625
f 570 626 628
f 570 628 572
f 571 573 629
f 571 629 627
f 572 628 630
f 572 630 574
f 573 575 631
f 573 631 629
f 574 630 632
f 574 632 576
f 575 577 633
f 575 633 631
f 576 632 634
f 576 634 578
f 580 579 635
f 580 635 636
f 577 580 636
f 577 636 633
f 579 581 637
f 579 637 635
f 581 582 638
f 581 638 637
f 582 583 639
f 582 639 638
f 583 584 640
f 583 640 639
f 584 585 641
f 584 641 640
f 585 586 642
f 585 642 641
f 586 587 643
f 586 643 642
f 587 588 644
f 587 644 643
f 588 589 645
f 588 645 644
f 589 590 646
f 589 646 645
f 590 591 647
f 590 647 646
f 591 592 648
f 591 648 647
f 592 593 649
f 592 649 648
f 578 634 649
f 578 649 593
f 594 650 651
f 594 651 595
f 594 596 652
f 594 652 650
f 595 651 653
f 595 653 597
f 597 653 654
f 597 654 598
f 598 654 655
f 598 655 599
f 599 655 656
f 599 656 600
f 600 656 657
f 600 657 601
f 601 657 658
f 601 658 602
f 602 658 659
f 602 659 603
f 603 659 660
f 603 660 604
f 604 660 661
f 604 661 605
f 605 661 662
f 605 662 606
f 606 662 663
f 606 663 607
f 607 663 664
f 607 664 608
f 608 664 665
f 608 665 609
f 609 665 666
f 609 666 610
f 596 611 667
f 596 667 652
f 610 666 668
f 610 668 612
f 611 613 669
f 611 669 667
f 612 668 670
f 612 670 614
f 613 615 671
f 613 671 669
f 614 670 672
f 614 672 616
f 615 617 673
f 615 673 671
f 616 672 674
f 616 674 618
f 617 619 675
f 617 675 673
f 618 674 676
f 618 676 620
f 619 621 677
f 619 677 675
f 620 676 678
f 620 678 622
f 621 623 679
f 621 679 677
f 622 678 680
f 622 680 624
f 623 625 681
f 623 681 679
f 624 680 682
f 624 682 626
f 625 627 683
f 625 683 681
f 626 682 684
f 626 684 628
f 627 629 685
f 627 685 683
f 628 684 686
f 628 686 630
f 629 631 687
f 629 687 685
f 630 686 688
f 630 688 632
f 631 633 689
f 631 689 687
f 632 688 690
f 632 690 634
f 636 635 691
f 636 691 692
f 633 636 692
f 633 692 689
f 635 637 693
f 635 693 691
f 637 638 694
f 637 694 693
f 638 639 695
f 638 695 694
f 639 640 696
f 639 696 695
f 640 641 697
f 640 697 696
f 641 642 698
f 641 698 697
f 642 643 699
f 642 699 698
f 643 644 700
f 643 700 699
f 644 645 701
f 644 701 700
f 645 646 702
f 645 702 701
f 646 647 703
f 646 703 702
f 647 648 704
f 647 704 703
f 648 649 705
f 648 705 704
f 634 690 705
f 634 705 649
f 650 706 707
f 650 707 651
f 650 652 708
f 650 708 706
f 651 707 709
f 651 709 653
f 653 709 710
f 653 710 654
f 654 710 711
f 654 711 655
f 655 711 712
f 655 712 656
f 656 712 713
f 656 713 657
f 657 713 714
f 657 714 658
f 658 714 715
f 658 715 659
f 659 715 716
f 659 716 660
f 660 716 717
f 660 717 661
f 661 717 718
f 661 718 662
f 662 718 719
f 662 719 663
f 663 719 720
f 663 720 664
f 664 720 721
f 664 721 665
f 665 721 722
f 665 722 666
f 652 667 723
f 652 723 708
f 666 722 724
f 666 724 668
f 667 669 725
f 667 725 723
f 668 724 726
f 668 726 670
f 669 671 727
f 669 727 725
f 670 726 728
f 670 728 672
f 671 673 729
f 671 729 727
f 672 728 730
f 672 730 674
f 673 675 731
f 673 731 729
f 674 730 732
f 674 732 676
f 675 677 733
f 675 733 731
f 676 732 734
f 676 734 678
f 677 679 735
f 677 735 733
f 678 734 736
f 678 736 680
f 679 681 737
f 679 737 735
f 680 736 738
f 680 738 682
f 681 683 739
f 681 739 737
f 682 738 740
f 682 740 684
f 683 685 741
f 683 741 739
f 684 740 742
f 684 742 686
f 685 687 743
f 685 743 741
f 686 742 744
f 686 744 688
f 687 689 745
f 687 745 743
f 688 744 746
f 688 746 690
f 692 691 747
f 692 747 748
f 689 692 748
f 689 748 745
f 691 693 749
f 691 749 747
f 693 694 750
f 693 750 749
f 694 695 751
f 694 751 750
f 695 696 752
f 695 752 751
f 696 697 753
f 696 753 752
f 697 698 754
f 697 754 753
f 698 699 755
f 698 755 754
f 699 700 756
f 699 756 755
f 700 701 757
f 700 757 756
f 701 702 758
f 701 758 757
f 702 703 759
f 702 759 758
f 703 704 760
f 703 760 759
f 704 705 761
f 704 761 760
f 690 746 761
f 690 761 705
f 706 762 763
f 706 763 707
f 706 708 764
f 706 764 762
f 707 763 765
f 707 765 709
f 709 765 766
f 709 766 710
f 710 766 767
f 710 767 711
f 711 767 768
f 711 768 712
f 712 768 769
f 712 769 713
f 713 769 770
f 713 770 714
f 714 770 771
f 714 771 715
f 715 771 772
f 715 772 716
f 716 772 773
f 716 773 717
f 717 773 774
f 717 774 718
f 718 774 775
f 718 775 719
f 719 775 776
f 719 776 720
f 720 776 777
f 720 777 721
f 721 777 778
f 721 778 722
f 708 723 779
f 708 779 764
f 722 778 780
f 722 780 724
f 723 725 781
f 723 781 779
f 724 780 782
f 724 782 726
f 725 727 783
f 725 783 781
f 726 782 784
f 726 784 728
f 727 729 785
f 727 785 783
f 728 784 786
f 728 786 730
f 729 731 787
f 729 787 785
f 730 786 788
f 730 788 732
f 731 733 789
f 731 789 787
f 732 788 790
f 732 790 734
f 733 735 791
f 733 791 789
f 734 790 792
f 734 792 736
f 735 737 793
f 735 793 791
f 736 792 794
f 736 794 738
f 737 739 795
f 737 795 793
f 738 794 796
f 738 796 740
f 739 741 797
f 739 797 795
f 740 796 798
f 740 798 742
f 741 743 799
f 741 799 797
f 742 798 800
f 742 800 744
f 743 745 801
f 743 801 799
f 744 800 802
f 744 802 746
f 748 747 803
f 748 803 804
f 745 748 804
f 745 804 801
f 747 749 805
f 747 805 803
f 749 750 806
f 749 806 805
f 750 751 807
f 750 807 806
f 751 752 808
f 751 808 807
f 752 753 809
f 752 809 808
f 753 754 810
f 753 810 809
f 754 755 811
f 754 811 810
f 755 756 812
f 755 812 811
f 756 757 813
f 756 813 812
f 757 758 814
f 757 814 813
f 758 759 815
f 758 815 814
f 759 760 816
f 759 816 815
f 760 761 817
f 760 817 816
f 746 802 817
f 746 817 761
f 762 818 819
f 762 819 763
f 762 764 820
f 762 820 818
f 763 819 821
f 763 821 765
f 765 821 822
f 765 822 766
f 766 822 823
f 766 823 767
f 767 823 824
f 767 824 768
f 768 824 825
f 768 825 769
f 769 825 826
f 769 826 770
f 770 826 827
f 770 827 771
f 771 827 828
f 771 828 772
f 772 828 829
f 772 829 773
f 773 829 830
f 773 830 774
f 774 830 831
f 774 831 775
f 775 831 832
f 775 832 776
f 776 832 833
f 776 833 777
f 777 833 834
f 777 834 778
f 764 779 835
f 764 835 820
f 778 834 836
f 778 836 780
f 779 781 837
f 779 837 835
f 780 836 838
f 780 838 782
f 781 783 839
f 781 839 837
f 782 838 840
f 782 840 784
f 783 785 841
f 783 841 839
f 784 840 842
f 784 842 786
f 785 787 843
f 785 843 841
f 786 842 844
f 786 844 788
f 787 789 845
f 787 845 843
f 788 844 846
f 788 846 790
f 789 791 847
f 789 847 845
f 790 846 848
f 790 848 792
f 791 793 849
f 791 849 847
f 792 848 850
f 792 850 794
f 793 795 851
f 793 851 849
f 794 850 852
f 794 852 796
f 795 797 853
f 795 853 851
f 796 852 854
f 796 854 798
f 797 799 855
f 797 855 853
f 798 854 856
f 798 856 800
f 799 801 857
f 799 857 855
f 800 856 858
f 800 858 802
f 804 803 859
f 804 859 860
f 801 804 860
f 801 860 857
f 803 805 861
f 803 861 859
f 805 806 862
f 805 862 861
f 806 807 863
f 806 863 862
f 807 808 864
f 807 864 863
f 808 809 865
f 808 865 864
f 809 810 866
f 809 866 865
f 810 811 867
f 810 867 866
f 811 812 868
f 811 868 867
f 812 813 869
f 812 869 868
f 813 814 870
f 813 870 869
f 814 815 871
f 814 871 870
f 815 816 872
f 815 872 871
f 816 817 873
f 816 873 872
f 802 858 873
f 802 873 817
f 874 875 876
f 874 876 877
f 818 874 875
f 818 875 819
f 818 820 877
f 818 877 874
f 875 878 879
f 875 879 876
f 819 875 878
f 819 878 821
f 878 880 881
f 878 881 879
f 821 878 880
f 821 880 822
f 880 882 883
f 880 883 881
f 822 880 882
f 822 882 823
f 882 884 885
f 882 885 883
f 823 882 884
f 823 884 824
f 884 886 887
f 884 887 885
f 824 884 886
f 824 886 825
f 886 888 889
f 886 889 887
f 825 886 888
f 825 888 826
f 888 890 891
f 888 891 889
f 826 888 890
f 826 890 827
f 890 892 893
f 890 893 891
f 827 890 892
f 827 892 828
f 892 894 895
f 892 895 893
f 828 892 894
f 828 894 829
f 894 896 897
f 894 897 895
f 829 894 896
f 829 896 830
f 896 898 899
f 896 899 897
f 830 896 898
f 830 898 831
f 898 900 901
f 898 901 899
f 831 898 900
f 831 900 832
f 900 902 903
f 900 903 901
f 832 900 902
f 832 902 833
f 833 902 903
f 833 903 834
f 877 876 904
f 877 904 905
f 820 835 905
f 820 905 877
f 876 879 906
f 876 906 904
f 879 881 907
f 879 907 906
f 881 883 908
f 881 908 907
f 883 885 909
f 883 909 908
f 885 887 910
f 885 910 909
f 887 889 911
f 887 911 910
f 889 891 912
f 889 912 911
f 891 893 913
f 891 913 912
f 893 895 914
f 893 914 913
f 895 897 915
f 895 915 914
f 897 899 916
f 897 916 915
f 899 901 917
f 899 917 916
f 901 903 918
f 901 918 917
f 834 903 918
f 834 918 836
f 905 904 919
f 905 919 920
f 835 837 920
f 835 920 905
f 904 906 921
f 904 921 919
f 906 907 922
f 906 922 921
f 907 908 923
f 907 923 922
f 908 909 924
f 908 924 923
f 909 910 925
f 909 925 924
f 910 911 926
f 910 926 925
f 911 912 927
f 911 927 926
f 912 913 928
f 912 928 927
f 913 914 929
f 913 929 928
f 914 915 930
f 914 930 929
f 915 916 931
f 915 931 930
f 916 917 932
f 916 932 931
f 917 918 933
f 917 933 932
f 836 918 933
f 836 933 838
f 920 919 934
f 920 934 935
f 837 839 935
f 837 935 920
f 919 921 936
f 919 936 934
f 921 922 937
f 921 937 936
f 922 923 938
f 922 938 937
f 923 924 939
f 923 939 938
f 924 925 940
f 924 940 939
f 925 926 941
f 925 941 940
f 926 927 942
f 926 942 941
f 927 928 943
f 927 943 942
f 928 929 944
f 928 944 943
f 929 930 945
f 929 945 944
f 930 931 946
f 930 946 945
f 931 932 947
f 931 947 946
f 932 933 948
f 932 948 947
f 838 933 948
f 838 948 840
f 935 934 949
f 935 949 950
f 839 841 950
f 839 950 935
f 934 936 951
f 934 951 949
f 936 937 952
f 936 952 951
f 937 938 953
f 937 953 952
f 938 939 954
f 938 954 953
f 939 940 955
f 939 955 954
f 940 941 956
f 940 956 955
f 941 942 957
f 941 957 956
f 942 943 958
f 942 958 957
f 943 944 959
f 943 959 958
f 944 945 960
f 944 960 959
f 945 946 961
f 945 961 960
f 946 947 962
f 946 962 961
f 947 948 963
f 947 963 962
f 840 948 963
f 840 963 842
f 950 949 964
f 950 964 965
f 841 843 965
f 841 965 950
f 949 951 966
f 949 966 964
f 951 952 967
f 951 967 966
f 952 953 968
f 952 968 967
f 953 954 969
f 953 969 968
f 954 955 970
f 954 970 969
f 955 956 971
f 955 971 970
f 956 957 972
f 956 972 971
f 957 958 973
f 957 973 972
f 958 959 974
f 958 974 973
f 959 960 975
f 959 975 974
f 960 961 976
f 960 976 975
f 961 962 977
f 961 977 976
f 962 963 978
f 962 978 977
f 842 963 978
f 842 978 844
f 965 964 979
f 965 979 980
f 843 845 980
f 843 980 965
f 964 966 981
f 964 981 979
f 966 967 982
f 966 982 981
f 967 968 983
f 967 983 982
f 968 969 984
f 968 984 983
f 969 970 985
f 969 985 984
f 970 971 986
f 970 986 985
f 971 972 987
f 971 987 986
f 972 973 988
f 972 988 987
f 973 974 989
f 973 989 988
f 974 975 990
f 974 990 989
f 975 976 991
f 975 991 990
f 976 977 992
f 976 992 991
f 977 978 993
f 977 993 992
f 844 978 993
f 844 993 846
f 980 979 994
f 980 994 995
f 845 847 995
f 845 995 980
f 979 981 996
f 979 996 994
f 981 982 997
f 981 997 996
f 982 983 998
f 982 998 997
f 983 984 999
f 983 999 998
f 984 985 1000
f 984 1000 999
f 985 986 1001
f 985 1001 1000
f 986 987 1002
f 986 1002 1001
f 987 988 1003
f 987 1003 1002
f 988 989 1004
f 988 1004 1003
f 989 990 1005
f 989 1005 1004
f 990 991 1006
f 990 1006 1005
f 991 992 1007
f 991 1007 1006
f 992 993 1008
f 992 1008 1007
f 846 993 1008
f 846 1008 848
f 995 994 1009
f 995 1009 1010
f 847 849 1010
f 847 1010 995
f 994 996 1011
f 994 1011 1009
f 996 997 1012
f 996 1012 1011
f 997 998 1013
f 997 1013 1012
f 998 999 1014
f 998 1014 1013
f 999 1000 1015
f 999 1015 1014
f 1000 1001 1016
f 1000 1016 1015
f 1001 1002 1017
f 1001 1017 1016
f 1002 1003 1018
f 1002 1018 1017
f 1003 1004 1019
f 1003 1019 1018
f 1004 1005 1020
f 1004 1020 1019
f 1005 1006 1021
f 1005 1021 1020
f 1006 1007 1022
f 1006 1022 1021
f 1007 1008 1023
f 1007 1023 1022
f 848 1008 1023
f 848 1023 850
f 1010 1009 1024
f 1010 1024 1025
f 849 851 1025
f 849 1025 1010
f 1009 1011 1026
f 1009 1026 1024
f 1011 1012 1027
f 1011 1027 1026
f 1012 1013 1028
f 1012 1028 1027
f 1013 1014 1029
f 1013 1029 1028
f 1014 1015 1030
f 1014 1030 1029
f 1015 1016 1031
f 1015 1031 1030
f 1016 1017 1032
f 1016 1032 1031
f 1017 1018 1033
f 1017 1033 1032
f 1018 1019 1034
f 1018 1034 1033
f 1019 1020 1035
f 1019 1035 1034
f 1020 1021 1036
f 1020 1036 1035
f 1021 1022 1037
f 1021 1037 1036
f 1022 1023 1038
f 1022 1038 1037
f 850 1023 1038
f 850 1038 852
f 1025 1024 1039
f 1025 1039 1040
f 851 853 1040
f 851 1040 1025
f 1024 1026 1041
f 1024 1041 1039
f 1026 1027 1042
f 1026 1042 1041
f 1027 1028 1043
f 1027 1043 1042
f 1028 1029 1044
f 1028 1044 1043
f 1029 1030 1045
f 1029 1045 1044
f 1030 1031 1046
f 1030 1046 1045
f 1031 1032 1047
f 1031 1047 1046
f 1032 1033 1048
f 1032 1048 1047
f 1033 1034 1049
f 1033 1049 1048
f 1034 1035 1050
f 1034 1050 1049
f 1035 1036 1051
f 1035 1051 1050
f 1036 1037 1052
f 1036 1052 1051
f 1037 1038 1053
f 1037 1053 1052
f 852 1038 1053
f 852 1053 854
f 1040 1039 1054
f 1040 1054 1055
f 853 855 1055
f 853 1055 1040
f 1039 1041 1056
f 1039 1056 1054
f 1041 1042 1057
f 1041 1057 1056
f 1042 1043 1058
f 1042 1058 1057
f 1043 1044 1059
f 1043 1059 1058
f 1044 1045 1060
f 1044 1060 1059
f 1045 1046 1061
f 1045 1061 1060
f 1046 1047 1062
f 1046 1062 1061
f 1047 1048 1063
f 1047 1063 1062
f 1048 1049 1064
f 1048 1064 1063
f 1049 1050 1065
f 1049 1065 1064
f 1050 1051 1066
f 1050 1066 1065
f 1051 1052 1067
f 1051 1067 1066
f 1052 1053 1068
f 1052 1068 1067
f 854 1053 1068
f 854 1068 856
f 1055 1054 1069
f 1055 1069 1070
f 855 857 1070
f 855 1070 1055
f 1054 1056 1071
f 1054 1071 1069
f 1056 1057 1072
f 1056 1072 1071
f 1057 1058 1073
f 1057 1073 1072
f 1058 1059 1074
f 1058 1074 1073
f 1059 1060 1075
f 1059 1075 1074
f 1060 1061 1076
f 1060 1076 1075
f 1061 1062 1077
f 1061 1077 1076
f 1062 1063 1078
f 1062 1078 1077
f 1063 1064 1079
f 1063 1079 1078
f 1064 1065 1080
f 1064 1080 1079
f 1065 1066 1081
f 1065 1081 1080
f 1066 1067 1082
f 1066 1082 1081
f 1067 1068 1083
f 1067 1083 1082
f 856 1068 1083
f 856 1083 858
f 1070 1069 1084
f 1070 1084 1085
f 860 859 1084
f 860 1084 1085
f 857 860 1085
f 857 1085 1070
f 1069 1071 1086
f 1069 1086 1084
f 859 861 1086
f 859 1086 1084
f 1071 1072 1087
f 1071 1087 1086
f 861 862 1087
f 861 1087 1086
f 1072 1073 1088
f 1072 1088 1087
f 862 863 1088
f 862 1088 1087
f 1073 1074 1089
f 1073 1089 1088
f 863 864 1089
f 863 1089 1088
f 1074 1075 1090
f 1074 1090 1089
f 864 865 1090
f 864 1090 1089
f 1075 1076 1091
f 1075 1091 1090
f 865 866 1091
f 865 1091 1090
f 1076 1077 1092
f 1076 1092 1091
f 866 867 1092
f 866 1092 1091
f 1077 1078 1093
f 1077 1093 1092
f 867 868 1093
f 867 1093 1092
f 1078 1079 1094
f 1078 1094 1093
f 868 869 1094
f 868 1094 1093
f 1079 1080 1095
f 1079 1095 1094
f 869 870 1095
f 869 1095 1094
f 1080 1081 1096
f 1080 1096 1095
f 870 871 1096
f 870 1096 1095
f 1081 1082 1097
f 1081 1097 1096
f 871 872 1097
f 871 1097 1096
f 1082 1083 1098
f 1082 1098 1097
f 872 873 1098
f 872 1098 1097
f 858 1083 1098
f 858 1098 873
