o [4B] 3D Diagram - S2-08 Group G_126
v -56.893113 35.627386 -146.883098
v -54.506887 36.164770 -147.736480
v -54.506887 33.972614 -149.116902
v -56.893113 33.435230 -148.263520
v -56.319556 34.904228 -145.734700
v -53.933331 35.441612 -146.588082
v -53.933331 33.249456 -147.968504
v -56.319556 32.712072 -147.115122
v -56.320672 34.894742 -145.728920
v -53.932215 35.437547 -146.572571
v -53.932215 33.258943 -147.974284
v -56.320672 32.716137 -147.130633
v -55.759319 34.171584 -144.604956
v -53.370862 34.714389 -145.448607
v -53.370862 32.535785 -146.850320
v -55.759319 31.992980 -146.006668
v -55.760484 34.161792 -144.599120
v -53.369697 34.709989 -145.432628
v -53.369697 32.545576 -146.856156
v -55.760484 31.997380 -146.022648
v -55.211334 33.438635 -143.499590
v -52.820547 33.986831 -144.333098
v -52.820547 31.822418 -145.756626
v -55.211334 31.274222 -144.923118
v -55.212549 33.428528 -143.493701
v -52.819332 33.982070 -144.316634
v -52.819332 31.832525 -145.762515
v -55.212549 31.278983 -144.939582
v -54.675603 32.705370 -142.418605
v -52.282386 33.258912 -143.241538
v -52.282386 31.109367 -144.687419
v -54.675603 30.555825 -143.864486
v -54.676872 32.694938 -142.412669
v -52.281117 33.253762 -143.224574
v -52.281117 31.119799 -144.693355
v -54.676872 30.560975 -143.881450
v -54.152128 31.971780 -141.362007
v -51.756374 32.530604 -142.173912
v -51.756374 30.396641 -143.642693
v -54.152128 29.837817 -142.830788
v -54.153453 31.961010 -141.356028
v -51.755049 32.525036 -142.156433
v -51.755049 30.407411 -143.648672
v -54.153453 29.843385 -142.848267
v -53.640913 31.237852 -140.329800
v -51.242509 31.801878 -141.130205
v -51.242509 29.684253 -142.622444
v -53.640913 29.120227 -141.822039
v -53.642296 31.226735 -140.323784
v -51.241126 31.795860 -141.112195
v -51.241126 29.695371 -142.628460
v -53.642296 29.126246 -141.840049
v -53.141960 30.503577 -139.321990
v -50.740790 31.072702 -140.110401
v -50.740790 28.972213 -141.626666
v -53.141960 28.403088 -140.838255
v -53.143404 30.492100 -139.315942
v -50.739345 31.066198 -140.091846
v -50.739345 28.983690 -141.632714
v -53.143404 28.409591 -140.856810
v -52.655271 29.768942 -138.338582
v -50.251212 30.343040 -139.114486
v -50.251212 28.260532 -140.655353
v -52.655271 27.686433 -139.879450
v -52.656779 29.757094 -138.332511
v -50.249704 30.336014 -139.095370
v -50.249704 28.272379 -140.661425
v -52.656779 27.693459 -139.898565
v -52.180849 29.033936 -137.379585
v -49.773774 29.612856 -138.142444
v -49.773774 27.549221 -139.708499
v -52.180849 26.970302 -138.945639
v -52.182424 29.021707 -137.373498
v -49.772199 29.605268 -138.122755
v -49.772199 27.561451 -139.714586
v -52.182424 26.977890 -138.965329
v -51.718698 28.298549 -136.445006
v -49.308473 28.882110 -137.194263
v -49.308473 26.838293 -138.786094
v -51.718698 26.254732 -138.036837
v -51.720342 28.285928 -136.438911
v -49.306828 28.873915 -137.173986
v -49.306828 26.850914 -138.792188
v -51.720342 26.262927 -138.057114
v -51.268819 27.562770 -135.534853
v -48.855305 28.150758 -136.269927
v -48.855305 26.127756 -137.888130
v -51.268819 25.539769 -137.153056
v -51.270536 27.549746 -135.528761
v -48.853588 28.141911 -136.249050
v -48.853588 26.140781 -137.894223
v -51.270536 25.548615 -137.173933
v -50.831216 26.826588 -134.649137
v -48.414268 27.418753 -135.369426
v -48.414268 25.417623 -137.014599
v -50.831216 24.825457 -136.294309
v -50.833008 26.813150 -134.643057
v -48.412476 27.409205 -135.347938
v -48.412476 25.431061 -137.020678
v -50.833008 24.835006 -136.315797
v -50.405892 26.089992 -133.787867
v -47.985360 26.686047 -134.492748
v -47.985360 24.707903 -136.165488
v -50.405892 24.111848 -135.460607
v -50.407762 26.076131 -133.781812
v -47.983490 26.675744 -134.470640
v -47.983490 24.721763 -136.171544
v -50.407762 24.122151 -135.482716
v -49.992849 25.352974 -132.951056
v -47.568576 25.952586 -133.639884
v -47.568576 23.998605 -135.340788
v -49.992849 23.398993 -134.651960
v -49.994799 25.338681 -132.945037
v -47.566626 25.941470 -133.617147
v -47.566626 24.012898 -135.346807
v -49.994799 23.410109 -134.674696
v -49.592090 24.615523 -132.138715
v -47.163916 25.218313 -132.810825
v -47.163916 23.289740 -134.540485
v -49.592090 22.686951 -133.868374
v -49.594123 24.600791 -132.132746
v -47.161882 25.206324 -132.787456
v -47.161882 23.304472 -134.546454
v -49.594123 22.698939 -133.891743
v -49.203617 23.877633 -131.350858
v -46.771375 24.483166 -132.005568
v -46.771375 22.581314 -133.764566
v -49.203617 21.975781 -133.109855
v -49.205736 23.862454 -131.344953
v -46.769256 24.470240 -131.981564
v -46.769256 22.596493 -133.770470
v -49.205736 21.988707 -133.133860
v -48.827433 23.139296 -130.587499
v -46.390953 23.747082 -131.224110
v -46.390953 21.873335 -133.013016
v -48.827433 21.265549 -132.376406
v -48.829641 23.123664 -130.581674
v -46.388745 23.733149 -131.199471
v -46.388745 21.888967 -133.018841
v -48.829641 21.279482 -132.401044
v -48.463541 22.400506 -129.848654
v -46.022645 23.009991 -130.466451
v -46.022645 21.165809 -132.285821
v -48.463541 20.556324 -131.668024
v -48.465838 22.384417 -129.842925
v -46.020349 22.994979 -130.441184
v -46.020349 21.181898 -132.291550
v -48.465838 20.571337 -131.693291
v -48.111941 21.661259 -129.134339
v -45.666452 22.271821 -129.732598
v -45.666452 20.458741 -131.582964
v -48.111941 19.848179 -130.984705
v -48.114329 21.644711 -129.128724
v -45.664064 22.255652 -129.706712
v -45.664064 20.475289 -131.588579
v -48.114329 19.864348 -131.010591
v -47.772636 20.921553 -128.444572
v -45.322371 21.532494 -129.022560
v -45.322371 19.752131 -130.904427
v -47.772636 19.141190 -130.326439
v -47.775115 20.904544 -128.439088
v -45.319892 21.515087 -128.996071
v -45.319892 19.769141 -130.909911
v -47.775115 19.158597 -130.352928
v -47.445625 20.181386 -127.779370
v -44.990402 20.791929 -128.336353
v -44.990402 19.045983 -130.250193
v -47.445625 18.435439 -129.693210
v -47.448196 20.163918 -127.774036
v -44.987830 20.773200 -128.309282
v -44.987830 19.063451 -130.255528
v -47.448196 18.454168 -129.720281
v -47.130910 19.440760 -127.138752
v -44.670544 20.050042 -127.673998
v -44.670544 18.340293 -129.620244
v -47.130910 17.731010 -129.084997
v -47.133573 19.422837 -127.133586
v -44.667881 20.029903 -127.646374
v -44.667881 18.358216 -129.625409
v -47.133573 17.751150 -129.112621
v -46.828489 18.699679 -126.522736
v -44.362798 19.306745 -127.035524
v -44.362798 17.635058 -129.014559
v -46.828489 17.027992 -128.501771
v -46.831242 18.681307 -126.517759
v -44.360045 19.285104 -127.007384
v -44.360045 17.653430 -129.019536
v -46.831242 17.049633 -128.529911
v -46.538362 17.958149 -125.931343
v -44.067165 18.561946 -126.420968
v -44.067165 16.930272 -128.433120
v -46.538362 16.326475 -127.943495
v -46.541202 17.939339 -125.926574
v -44.064326 18.538709 -126.392358
v -44.064326 16.949082 -128.437889
v -46.541202 16.349712 -127.972106
v -46.260525 17.216182 -125.364592
v -43.783649 17.815551 -125.830376
v -43.783649 16.225924 -127.875907
v -46.260525 15.626554 -127.410124
v -46.263449 17.196946 -125.360049
v -43.780726 17.790625 -125.801351
v -43.780726 16.245159 -127.880450
v -46.263449 15.651480 -127.439148
v -45.994975 16.473788 -124.822501
v -43.512253 17.067467 -125.263803
v -43.512253 15.522002 -127.342902
v -45.994975 14.928323 -126.901600
v -45.997977 16.454142 -124.818203
v -43.509251 17.040754 -125.234431
v -43.509251 15.541647 -127.347200
v -45.997977 14.955035 -126.930972
v -45.741707 15.730985 -124.305089
v -43.252981 16.317596 -124.721317
v -43.252981 14.818489 -126.834086
v -45.741707 14.231877 -126.417858
v -45.744780 15.710949 -124.301053
v -43.249909 16.289003 -124.691677
v -43.249909 14.838525 -126.838123
v -45.744780 14.260471 -126.447498
v -45.500713 14.987791 -123.812373
v -43.005842 15.565845 -124.202997
v -43.005842 14.115367 -126.349443
v -45.500713 13.537313 -125.958818
v -45.503848 14.967389 -123.808613
v -43.002707 15.535278 -124.173181
v -43.002707 14.135769 -126.353202
v -45.503848 13.567880 -125.988634
v -45.271985 14.244231 -123.344367
v -42.770844 14.812120 -123.708935
v -42.770844 13.412611 -125.888956
v -45.271985 12.844722 -125.524388
v -45.275172 14.223488 -123.340898
v -42.767657 14.779491 -123.679049
v -42.767657 13.433354 -125.892425
v -45.275172 12.877352 -125.554274
v -45.055512 13.500330 -122.901086
v -42.547997 14.056333 -123.239237
v -42.547997 12.710196 -125.452613
v -45.055512 12.154194 -125.114462
v -45.058737 13.479276 -122.897918
v -42.544771 14.021558 -123.209402
v -42.544771 12.731250 -125.455781
v -45.058737 12.188968 -125.144297
v -44.851281 12.756119 -122.482540
v -42.337315 13.298400 -122.794024
v -42.337315 12.008092 -125.040403
v -44.851281 11.465810 -124.728919
v -44.854529 12.734787 -122.479680
v -42.334066 13.261406 -122.764374
v -42.334066 12.029424 -125.043263
v -44.854529 11.502804 -124.758569
v -44.659276 12.011629 -122.088736
v -42.138813 12.538249 -122.373430
v -42.138813 11.306266 -124.652319
v -44.659276 10.779646 -124.367625
v -44.662531 11.990054 -122.086188
v -42.135558 12.498972 -122.344117
v -42.135558 11.327841 -124.654867
v -44.662531 10.818922 -124.396938
v -44.479481 11.266896 -121.719678
v -41.952508 11.775814 -121.977607
v -41.952508 10.604683 -124.288357
v -44.479481 10.095764 -124.030428
v -44.482721 11.245115 -121.717441
v -41.949269 11.734207 -121.948796
v -41.949269 10.626464 -124.290595
v -44.482721 10.137372 -124.059239
v -44.311874 10.521957 -121.375365
v -41.778422 11.011049 -121.606720
v -41.778422 9.903306 -123.948519
v -44.311874 9.414214 -123.717163
v -44.315076 10.500008 -121.373433
v -41.775220 10.967078 -121.578590
v -41.775220 9.925255 -123.950450
v -44.315076 9.458186 -123.745293
v -44.156433 9.776851 -121.055791
v -41.616576 10.243920 -121.260948
v -41.616576 9.202097 -123.632808
v -44.156433 8.735028 -123.427651
v -44.159573 9.754772 -121.054155
v -41.613437 10.197573 -121.233691
v -41.613437 9.224175 -123.634444
v -44.159573 8.781375 -123.454908
v -44.013133 9.031614 -120.760947
v -41.466997 9.474415 -120.940483
v -41.466997 8.501017 -123.341236
v -44.013133 8.058217 -123.161700
v -44.016183 9.009443 -120.759593
v -41.463947 9.425703 -120.914303
v -41.463947 8.523188 -123.342591
v -44.016183 8.106929 -123.187880
v -43.881946 8.286285 -120.490819
v -41.329710 8.702545 -120.645529
v -41.329710 7.800030 -123.073817
v -43.881946 7.383771 -122.919106
v -43.884877 8.264058 -120.489725
v -41.326779 8.651506 -120.620636
v -41.326779 7.822258 -123.074910
v -43.884877 7.434810 -122.943999
v -43.762843 7.540900 -120.245385
v -41.204746 7.928348 -120.376296
v -41.204746 7.099100 -122.830570
v -43.762843 6.711652 -122.699659
v -43.765624 7.518648 -120.244529
v -41.201965 7.875048 -120.352907
v -41.201965 7.121352 -122.831426
v -43.765624 6.764952 -122.723048
v -43.655794 6.795490 -120.024623
v -41.092135 7.151890 -120.133001
v -41.092135 6.398194 -122.611520
v -43.655794 6.041794 -122.503142
v -43.658394 6.773242 -120.023977
v -41.089535 7.096426 -120.111334
v -41.089535 6.420442 -122.612166
v -43.658394 6.097258 -122.524809
v -43.560768 6.050084 -119.828505
v -40.991909 6.373268 -119.915862
v -40.991909 5.697285 -122.416694
v -43.560768 5.374101 -122.329337
v -43.563155 6.027862 -119.828038
v -40.989522 6.315768 -119.896132
v -40.989522 5.719506 -122.417161
v -43.563155 5.431600 -122.349067
v -43.477732 5.304704 -119.657000
v -40.904098 5.592610 -119.725094
v -40.904098 4.996348 -122.246123
v -43.477732 4.708442 -122.178029
v -43.479875 5.282526 -119.656681
v -40.901955 5.533238 -119.707507
v -40.901955 5.018526 -122.246442
v -43.479875 4.767815 -122.195616
v -43.406655 4.559369 -119.510077
v -40.828735 4.810080 -119.560903
v -40.828735 4.295368 -122.099838
v -43.406655 4.044657 -122.049012
v -43.408526 4.537245 -119.509875
v -40.826864 4.749029 -119.545654
v -40.826864 4.317492 -122.100040
v -43.408526 4.105708 -122.064261
v -43.347510 3.814087 -119.387705
v -40.765847 4.025871 -119.423484
v -40.765847 3.594334 -121.977870
v -43.347510 3.382550 -121.942091
v -43.349081 3.792021 -119.387588
v -40.764276 3.963367 -119.410746
v -40.764276 3.616400 -121.977987
v -43.349081 3.445054 -121.954829
v -43.300268 3.068864 -119.289852
v -40.715462 3.240209 -119.313010
v -40.715462 2.893242 -121.880251
v -43.300268 2.721897 -121.857093
v -43.301516 3.046854 -119.289793
v -40.714214 3.176504 -119.302935
v -40.714214 2.915252 -121.880310
v -43.301516 2.785601 -121.867168
v -43.264906 2.323696 -119.216491
v -40.677604 2.453346 -119.229633
v -40.677604 2.192094 -121.807008
v -43.264906 2.062443 -121.793866
v -43.265812 2.301733 -119.216467
v -40.676698 2.388719 -119.222345
v -40.676698 2.214056 -121.807032
v -43.265812 2.127071 -121.801154
v -43.241406 1.578575 -119.167599
v -40.652291 1.665561 -119.173477
v -40.652291 1.490898 -121.758164
v -43.241406 1.403913 -121.752286
v -43.241955 1.556647 -119.167592
v -40.651742 1.600307 -119.169067
v -40.651742 1.512827 -121.758171
v -43.241955 1.469167 -121.756696
v -43.229752 0.833489 -119.143158
v -40.639538 0.877149 -119.144633
v -40.639538 0.789669 -121.733737
v -43.229752 0.746009 -121.732262
v -43.229936 0.811579 -119.143157
v -40.639354 0.811579 -119.143157
v -40.639354 0.811579 -121.733739
v -43.229936 0.811579 -121.733739
v -43.229936 0.088421 -119.143157
v -40.639354 0.088421 -119.143157
v -40.639354 0.088421 -121.733739
v -43.229936 0.088421 -121.733739
v -43.229752 0.066511 -119.143158
v -40.639538 0.022851 -119.144633
v -40.639538 0.110331 -121.733737
v -43.229752 0.153991 -121.732262
v -43.241955 -0.656647 -119.167592
v -40.651742 -0.700307 -119.169067
v -40.651742 -0.612827 -121.758171
v -43.241955 -0.569167 -121.756696
v -43.241406 -0.678575 -119.167599
v -40.652291 -0.765561 -119.173477
v -40.652291 -0.590898 -121.758164
v -43.241406 -0.503913 -121.752286
v -43.265812 -1.401733 -119.216467
v -40.676698 -1.488719 -119.222345
v -40.676698 -1.314056 -121.807032
v -43.265812 -1.227071 -121.801154
v -43.264906 -1.423696 -119.216491
v -40.677604 -1.553346 -119.229633
v -40.677604 -1.292094 -121.807008
v -43.264906 -1.162443 -121.793866
v -43.301516 -2.146854 -119.289793
v -40.714214 -2.276504 -119.302935
v -40.714214 -2.015252 -121.880310
v -43.301516 -1.885601 -121.867168
v -43.300268 -2.168864 -119.289852
v -40.715462 -2.340209 -119.313010
v -40.715462 -1.993242 -121.880251
v -43.300268 -1.821897 -121.857093
v -43.349081 -2.892021 -119.387588
v -40.764276 -3.063367 -119.410746
v -40.764276 -2.716400 -121.977987
v -43.349081 -2.545054 -121.954829
v -43.347510 -2.914087 -119.387705
v -40.765847 -3.125871 -119.423484
v -40.765847 -2.694334 -121.977870
v -43.347510 -2.482550 -121.942091
v -43.408526 -3.637245 -119.509875
v -40.826864 -3.849029 -119.545654
v -40.826864 -3.417492 -122.100040
v -43.408526 -3.205708 -122.064261
v -43.406655 -3.659369 -119.510077
v -40.828735 -3.910080 -119.560903
v -40.828735 -3.395368 -122.099838
v -43.406655 -3.144657 -122.049012
v -43.479875 -4.382526 -119.656681
v -40.901955 -4.633238 -119.707507
v -40.901955 -4.118526 -122.246442
v -43.479875 -3.867815 -122.195616
v -43.477732 -4.404704 -119.657000
v -40.904098 -4.692610 -119.725094
v -40.904098 -4.096348 -122.246123
v -43.477732 -3.808442 -122.178029
v -43.563155 -5.127862 -119.828038
v -40.989522 -5.415768 -119.896132
v -40.989522 -4.819506 -122.417161
v -43.563155 -4.531600 -122.349067
v -43.560768 -5.150084 -119.828505
v -40.991909 -5.473268 -119.915862
v -40.991909 -4.797285 -122.416694
v -43.560768 -4.474101 -122.329337
v -43.658394 -5.873242 -120.023977
v -41.089535 -6.196426 -120.111334
v -41.089535 -5.520442 -122.612166
v -43.658394 -5.197258 -122.524809
v -43.655794 -5.895490 -120.024623
v -41.092135 -6.251890 -120.133001
v -41.092135 -5.498194 -122.611520
v -43.655794 -5.141794 -122.503142
v -43.765624 -6.618648 -120.244529
v -41.201965 -6.975048 -120.352907
v -41.201965 -6.221352 -122.831426
v -43.765624 -5.864952 -122.723048
v -43.762843 -6.640900 -120.245385
v -41.204746 -7.028348 -120.376296
v -41.204746 -6.199100 -122.830570
v -43.762843 -5.811652 -122.699659
v -43.884877 -7.364058 -120.489725
v -41.326779 -7.751506 -120.620636
v -41.326779 -6.922258 -123.074910
v -43.884877 -6.534810 -122.943999
v -43.881946 -7.386285 -120.490819
v -41.329710 -7.802545 -120.645529
v -41.329710 -6.900030 -123.073817
v -43.881946 -6.483771 -122.919106
v -44.016183 -8.109443 -120.759593
v -41.463947 -8.525703 -120.914303
v -41.463947 -7.623188 -123.342591
v -44.016183 -7.206929 -123.187880
v -44.013133 -8.131614 -120.760947
v -41.466997 -8.574415 -120.940483
v -41.466997 -7.601017 -123.341236
v -44.013133 -7.158217 -123.161700
v -44.159573 -8.854772 -121.054155
v -41.613437 -9.297573 -121.233691
v -41.613437 -8.324175 -123.634444
v -44.159573 -7.881375 -123.454908
v -44.156433 -8.876851 -121.055791
v -41.616576 -9.343920 -121.260948
v -41.616576 -8.302097 -123.632808
v -44.156433 -7.835028 -123.427651
v -44.315076 -9.600008 -121.373433
v -41.775220 -10.067078 -121.578590
v -41.775220 -9.025255 -123.950450
v -44.315076 -8.558186 -123.745293
v -44.311874 -9.621957 -121.375365
v -41.778422 -10.111049 -121.606720
v -41.778422 -9.003306 -123.948519
v -44.311874 -8.514214 -123.717163
v -44.482721 -10.345115 -121.717441
v -41.949269 -10.834207 -121.948796
v -41.949269 -9.726464 -124.290595
v -44.482721 -9.237372 -124.059239
v -44.479481 -10.366896 -121.719678
v -41.952508 -10.875814 -121.977607
v -41.952508 -9.704683 -124.288357
v -44.479481 -9.195764 -124.030428
v -44.662531 -11.090054 -122.086188
v -42.135558 -11.598972 -122.344117
v -42.135558 -10.427841 -124.654867
v -44.662531 -9.918922 -124.396938
v -44.659276 -11.111629 -122.088736
v -42.138813 -11.638249 -122.373430
v -42.138813 -10.406266 -124.652319
v -44.659276 -9.879646 -124.367625
v -44.854529 -11.834787 -122.479680
v -42.334066 -12.361406 -122.764374
v -42.334066 -11.129424 -125.043263
v -44.854529 -10.602804 -124.758569
v -44.851281 -11.856119 -122.482540
v -42.337315 -12.398400 -122.794024
v -42.337315 -11.108092 -125.040403
v -44.851281 -10.565810 -124.728919
v -45.058737 -12.579276 -122.897918
v -42.544771 -13.121558 -123.209402
v -42.544771 -11.831250 -125.455781
v -45.058737 -11.288968 -125.144297
v -45.055512 -12.600330 -122.901086
v -42.547997 -13.156333 -123.239237
v -42.547997 -11.810196 -125.452613
v -45.055512 -11.254194 -125.114462
v -45.275172 -13.323488 -123.340898
v -42.767657 -13.879491 -123.679049
v -42.767657 -12.533354 -125.892425
v -45.275172 -11.977352 -125.554274
v -45.271985 -13.344231 -123.344367
v -42.770844 -13.912120 -123.708935
v -42.770844 -12.512611 -125.888956
v -45.271985 -11.944722 -125.524388
v -45.503848 -14.067389 -123.808613
v -43.002707 -14.635278 -124.173181
v -43.002707 -13.235769 -126.353202
v -45.503848 -12.667880 -125.988634
v -45.500713 -14.087791 -123.812373
v -43.005842 -14.665845 -124.202997
v -43.005842 -13.215367 -126.349443
v -45.500713 -12.637313 -125.958818
v -45.744780 -14.810949 -124.301053
v -43.249909 -15.389003 -124.691677
v -43.249909 -13.938525 -126.838123
v -45.744780 -13.360471 -126.447498
v -45.741707 -14.830985 -124.305089
v -43.252981 -15.417596 -124.721317
v -43.252981 -13.918489 -126.834086
v -45.741707 -13.331877 -126.417858
v -45.997977 -15.554142 -124.818203
v -43.509251 -16.140754 -125.234431
v -43.509251 -14.641647 -127.347200
v -45.997977 -14.055035 -126.930972
v -45.994975 -15.573788 -124.822501
v -43.512253 -16.167467 -125.263803
v -43.512253 -14.622002 -127.342902
v -45.994975 -14.028323 -126.901600
v -46.263449 -16.296946 -125.360049
v -43.780726 -16.890625 -125.801351
v -43.780726 -15.345159 -127.880450
v -46.263449 -14.751480 -127.439148
v -46.260525 -16.316182 -125.364592
v -43.783649 -16.915551 -125.830376
v -43.783649 -15.325924 -127.875907
v -46.260525 -14.726554 -127.410124
v -46.541202 -17.039339 -125.926574
v -44.064326 -17.638709 -126.392358
v -44.064326 -16.049082 -128.437889
v -46.541202 -15.449712 -127.972106
v -46.538362 -17.058149 -125.931343
v -44.067165 -17.661946 -126.420968
v -44.067165 -16.030272 -128.433120
v -46.538362 -15.426475 -127.943495
v -46.831242 -17.781307 -126.517759
v -44.360045 -18.385104 -127.007384
v -44.360045 -16.753430 -129.019536
v -46.831242 -16.149633 -128.529911
v -46.828489 -17.799679 -126.522736
v -44.362798 -18.406745 -127.035524
v -44.362798 -16.735058 -129.014559
v -46.828489 -16.127992 -128.501771
v -47.133573 -18.522837 -127.133586
v -44.667881 -19.129903 -127.646374
v -44.667881 -17.458216 -129.625409
v -47.133573 -16.851150 -129.112621
v -47.130910 -18.540760 -127.138752
v -44.670544 -19.150042 -127.673998
v -44.670544 -17.440293 -129.620244
v -47.130910 -16.831010 -129.084997
v -47.448196 -19.263918 -127.774036
v -44.987830 -19.873200 -128.309282
v -44.987830 -18.163451 -130.255528
v -47.448196 -17.554168 -129.720281
v -47.445625 -19.281386 -127.779370
v -44.990402 -19.891929 -128.336353
v -44.990402 -18.145983 -130.250193
v -47.445625 -17.535439 -129.693210
v -47.775115 -20.004544 -128.439088
v -45.319892 -20.615087 -128.996071
v -45.319892 -18.869141 -130.909911
v -47.775115 -18.258597 -130.352928
v -47.772636 -20.021553 -128.444572
v -45.322371 -20.632494 -129.022560
v -45.322371 -18.852131 -130.904427
v -47.772636 -18.241190 -130.326439
v -48.114329 -20.744711 -129.128724
v -45.664064 -21.355652 -129.706712
v -45.664064 -19.575289 -131.588579
v -48.114329 -18.964348 -131.010591
v -48.111941 -20.761259 -129.134339
v -45.666452 -21.371821 -129.732598
v -45.666452 -19.558741 -131.582964
v -48.111941 -18.948179 -130.984705
v -48.465838 -21.484417 -129.842925
v -46.020349 -22.094979 -130.441184
v -46.020349 -20.281898 -132.291550
v -48.465838 -19.671337 -131.693291
v -48.463541 -21.500506 -129.848654
v -46.022645 -22.109991 -130.466451
v -46.022645 -20.265809 -132.285821
v -48.463541 -19.656324 -131.668024
v -48.829641 -22.223664 -130.581674
v -46.388745 -22.833149 -131.199471
v -46.388745 -20.988967 -133.018841
v -48.829641 -20.379482 -132.401044
v -48.827433 -22.239296 -130.587499
v -46.390953 -22.847082 -131.224110
v -46.390953 -20.973335 -133.013016
v -48.827433 -20.365549 -132.376406
v -49.205736 -22.962454 -131.344953
v -46.769256 -23.570240 -131.981564
v -46.769256 -21.696493 -133.770470
v -49.205736 -21.088707 -133.133860
v -49.203617 -22.977633 -131.350858
v -46.771375 -23.583166 -132.005568
v -46.771375 -21.681314 -133.764566
v -49.203617 -21.075781 -133.109855
v -49.594123 -23.700791 -132.132746
v -47.161882 -24.306324 -132.787456
v -47.161882 -22.404472 -134.546454
v -49.594123 -21.798939 -133.891743
v -49.592090 -23.715523 -132.138715
v -47.163916 -24.318313 -132.810825
v -47.163916 -22.389740 -134.540485
v -49.592090 -21.786951 -133.868374
v -49.994799 -24.438681 -132.945037
v -47.566626 -25.041470 -133.617147
v -47.566626 -23.112898 -135.346807
v -49.994799 -22.510109 -134.674696
v -49.992849 -24.452974 -132.951056
v -47.568576 -25.052586 -133.639884
v -47.568576 -23.098605 -135.340788
v -49.992849 -22.498993 -134.651960
v -50.407762 -25.176131 -133.781812
v -47.983490 -25.775744 -134.470640
v -47.983490 -23.821763 -136.171544
v -50.407762 -23.222151 -135.482716
v -50.405892 -25.189992 -133.787867
v -47.985360 -25.786047 -134.492748
v -47.985360 -23.807903 -136.165488
v -50.405892 -23.211848 -135.460607
v -50.833008 -25.913150 -134.643057
v -48.412476 -26.509205 -135.347938
v -48.412476 -24.531061 -137.020678
v -50.833008 -23.935006 -136.315797
v -50.831216 -25.926588 -134.649137
v -48.414268 -26.518753 -135.369426
v -48.414268 -24.517623 -137.014599
v -50.831216 -23.925457 -136.294309
v -51.270536 -26.649746 -135.528761
v -48.853588 -27.241911 -136.249050
v -48.853588 -25.240781 -137.894223
v -51.270536 -24.648615 -137.173933
v -51.268819 -26.662770 -135.534853
v -48.855305 -27.250758 -136.269927
v -48.855305 -25.227756 -137.888130
v -51.268819 -24.639769 -137.153056
v -51.720342 -27.385928 -136.438911
v -49.306828 -27.973915 -137.173986
v -49.306828 -25.950914 -138.792188
v -51.720342 -25.362927 -138.057114
v -51.718698 -27.398549 -136.445006
v -49.308473 -27.982110 -137.194263
v -49.308473 -25.938293 -138.786094
v -51.718698 -25.354732 -138.036837
v -52.182424 -28.121707 -137.373498
v -49.772199 -28.705268 -138.122755
v -49.772199 -26.661451 -139.714586
v -52.182424 -26.077890 -138.965329
v -52.180849 -28.133936 -137.379585
v -49.773774 -28.712856 -138.142444
v -49.773774 -26.649221 -139.708499
v -52.180849 -26.070302 -138.945639
v -52.656779 -28.857094 -138.332511
v -50.249704 -29.436014 -139.095370
v -50.249704 -27.372379 -140.661425
v -52.656779 -26.793459 -139.898565
v -52.655271 -28.868942 -138.338582
v -50.251212 -29.443040 -139.114486
v -50.251212 -27.360532 -140.655353
v -52.655271 -26.786433 -139.879450
v -53.143404 -29.592100 -139.315942
v -50.739345 -30.166198 -140.091846
v -50.739345 -28.083690 -141.632714
v -53.143404 -27.509591 -140.856810
v -53.141960 -29.603577 -139.321990
v -50.740790 -30.172702 -140.110401
v -50.740790 -28.072213 -141.626666
v -53.141960 -27.503088 -140.838255
v -53.642296 -30.326735 -140.323784
v -51.241126 -30.895860 -141.112195
v -51.241126 -28.795371 -142.628460
v -53.642296 -28.226246 -141.840049
v -53.640913 -30.337852 -140.329800
v -51.242509 -30.901878 -141.130205
v -51.242509 -28.784253 -142.622444
v -53.640913 -28.220227 -141.822039
v -54.153453 -31.061010 -141.356028
v -51.755049 -31.625036 -142.156433
v -51.755049 -29.507411 -143.648672
v -54.153453 -28.943385 -142.848267
v -54.152128 -31.071780 -141.362007
v -51.756374 -31.630604 -142.173912
v -51.756374 -29.496641 -143.642693
v -54.152128 -28.937817 -142.830788
v -54.676872 -31.794938 -142.412669
v -52.281117 -32.353762 -143.224574
v -52.281117 -30.219799 -144.693355
v -54.676872 -29.660975 -143.881450
v -54.675603 -31.805370 -142.418605
v -52.282386 -32.358912 -143.241538
v -52.282386 -30.209367 -144.687419
v -54.675603 -29.655825 -143.864486
v -55.212549 -32.528528 -143.493701
v -52.819332 -33.082070 -144.316634
v -52.819332 -30.932525 -145.762515
v -55.212549 -30.378983 -144.939582
v -55.211334 -32.538635 -143.499590
v -52.820547 -33.086831 -144.333098
v -52.820547 -30.922418 -145.756626
v -55.211334 -30.374222 -144.923118
v -55.760484 -33.261792 -144.599120
v -53.369697 -33.809989 -145.432628
v -53.369697 -31.645576 -146.856156
v -55.760484 -31.097380 -146.022648
v -55.759319 -33.271584 -144.604956
v -53.370862 -33.814389 -145.448607
v -53.370862 -31.635785 -146.850320
v -55.759319 -31.092980 -146.006668
v -56.320672 -33.994742 -145.728920
v -53.932215 -34.537547 -146.572571
v -53.932215 -32.358943 -147.974284
v -56.320672 -31.816137 -147.130633
v -56.319556 -34.004228 -145.734700
v -53.933331 -34.541612 -146.588082
v -53.933331 -32.349456 -147.968504
v -56.319556 -31.812072 -147.115122
v -56.893113 -34.727386 -146.883098
v -54.506887 -35.264770 -147.736480
v -54.506887 -33.072614 -149.116902
v -56.893113 -32.535230 -148.263520
f 1 2 3
f 1 3 4
f 5 8 7
f 5 7 6
f 1 5 6
f 1 6 2
f 2 6 7
f 2 7 3
f 3 7 8
f 3 8 4
f 4 8 5
f 4 5 1
f 9 10 11
f 9 11 12
f 13 16 15
f 13 15 14
f 9 13 14
f 9 14 10
f 10 14 15
f 10 15 11
f 11 15 16
f 11 16 12
f 12 16 13
f 12 13 9
f 17 18 19
f 17 19 20
f 21 24 23
f 21 23 22
f 17 21 22
f 17 22 18
f 18 22 23
f 18 23 19
f 19 23 24
f 19 24 20
f 20 24 21
f 20 21 17
f 25 26 27
f 25 27 28
f 29 32 31
f 29 31 30
f 25 29 30
f 25 30 26
f 26 30 31
f 26 31 27
f 27 31 32
f 27 32 28
f 28 32 29
f 28 29 25
f 33 34 35
f 33 35 36
f 37 40 39
f 37 39 38
f 33 37 38
f 33 38 34
f 34 38 39
f 34 39 35
f 35 39 40
f 35 40 36
f 36 40 37
f 36 37 33
f 41 42 43
f 41 43 44
f 45 48 47
f 45 47 46
f 41 45 46
f 41 46 42
f 42 46 47
f 42 47 43
f 43 47 48
f 43 48 44
f 44 48 45
f 44 45 41
f 49 50 51
f 49 51 52
f 53 56 55
f 53 55 54
f 49 53 54
f 49 54 50
f 50 54 55
f 50 55 51
f 51 55 56
f 51 56 52
f 52 56 53
f 52 53 49
f 57 58 59
f 57 59 60
f 61 64 63
f 61 63 62
f 57 61 62
f 57 62 58
f 58 62 63
f 58 63 59
f 59 63 64
f 59 64 60
f 60 64 61
f 60 61 57
f 65 66 67
f 65 67 68
f 69 72 71
f 69 71 70
f 65 69 70
f 65 70 66
f 66 70 71
f 66 71 67
f 67 71 72
f 67 72 68
f 68 72 69
f 68 69 65
f 73 74 75
f 73 75 76
f 77 80 79
f 77 79 78
f 73 77 78
f 73 78 74
f 74 78 79
f 74 79 75
f 75 79 80
f 75 80 76
f 76 80 77
f 76 77 73
f 81 82 83
f 81 83 84
f 85 88 87
f 85 87 86
f 81 85 86
f 81 86 82
f 82 86 87
f 82 87 83
f 83 87 88
f 83 88 84
f 84 88 85
f 84 85 81
f 89 90 91
f 89 91 92
f 93 96 95
f 93 95 94
f 89 93 94
f 89 94 90
f 90 94 95
f 90 95 91
f 91 95 96
f 91 96 92
f 92 96 93
f 92 93 89
f 97 98 99
f 97 99 100
f 101 104 103
f 101 103 102
f 97 101 102
f 97 102 98
f 98 102 103
f 98 103 99
f 99 103 104
f 99 104 100
f 100 104 101
f 100 101 97
f 105 106 107
f 105 107 108
f 109 112 111
f 109 111 110
f 105 109 110
f 105 110 106
f 106 110 111
f 106 111 107
f 107 111 112
f 107 112 108
f 108 112 109
f 108 109 105
f 113 114 115
f 113 115 116
f 117 120 119
f 117 119 118
f 113 117 118
f 113 118 114
f 114 118 119
f 114 119 115
f 115 119 120
f 115 120 116
f 116 120 117
f 116 117 113
f 121 122 123
f 121 123 124
f 125 128 127
f 125 127 126
f 121 125 126
f 121 126 122
f 122 126 127
f 122 127 123
f 123 127 128
f 123 128 124
f 124 128 125
f 124 125 121
f 129 130 131
f 129 131 132
f 133 136 135
f 133 135 134
f 129 133 134
f 129 134 130
f 130 134 135
f 130 135 131
f 131 135 136
f 131 136 132
f 132 136 133
f 132 133 129
f 137 138 139
f 137 139 140
f 141 144 143
f 141 143 142
f 137 141 142
f 137 142 138
f 138 142 143
f 138 143 139
f 139 143 144
f 139 144 140
f 140 144 141
f 140 141 137
f 145 146 147
f 145 147 148
f 149 152 151
f 149 151 150
f 145 149 150
f 145 150 146
f 146 150 151
f 146 151 147
f 147 151 152
f 147 152 148
f 148 152 149
f 148 149 145
f 153 154 155
f 153 155 156
f 157 160 159
f 157 159 158
f 153 157 158
f 153 158 154
f 154 158 159
f 154 159 155
f 155 159 160
f 155 160 156
f 156 160 157
f 156 157 153
f 161 162 163
f 161 163 164
f 165 168 167
f 165 167 166
f 161 165 166
f 161 166 162
f 162 166 167
f 162 167 163
f 163 167 168
f 163 168 164
f 164 168 165
f 164 165 161
f 169 170 171
f 169 171 172
f 173 176 175
f 173 175 174
f 169 173 174
f 169 174 170
f 170 174 175
f 170 175 171
f 171 175 176
f 171 176 172
f 172 176 173
f 172 173 169
f 177 178 179
f 177 179 180
f 181 184 183
f 181 183 182
f 177 181 182
f 177 182 178
f 178 182 183
f 178 183 179
f 179 183 184
f 179 184 180
f 180 184 181
f 180 181 177
f 185 186 187
f 185 187 188
f 189 192 191
f 189 191 190
f 185 189 190
f 185 190 186
f 186 190 191
f 186 191 187
f 187 191 192
f 187 192 188
f 188 192 189
f 188 189 185
f 193 194 195
f 193 195 196
f 197 200 199
f 197 199 198
f 193 197 198
f 193 198 194
f 194 198 199
f 194 199 195
f 195 199 200
f 195 200 196
f 196 200 197
f 196 197 193
f 201 202 203
f 201 203 204
f 205 208 207
f 205 207 206
f 201 205 206
f 201 206 202
f 202 206 207
f 202 207 203
f 203 207 208
f 203 208 204
f 204 208 205
f 204 205 201
f 209 210 211
f 209 211 212
f 213 216 215
f 213 215 214
f 209 213 214
f 209 214 210
f 210 214 215
f 210 215 211
f 211 215 216
f 211 216 212
f 212 216 213
f 212 213 209
f 217 218 219
f 217 219 220
f 221 224 223
f 221 223 222
f 217 221 222
f 217 222 218
f 218 222 223
f 218 223 219
f 219 223 224
f 219 224 220
f 220 224 221
f 220 221 217
f 225 226 227
f 225 227 228
f 229 232 231
f 229 231 230
f 225 229 230
f 225 230 226
f 226 230 231
f 226 231 227
f 227 231 232
f 227 232 228
f 228 232 229
f 228 229 225
f 233 234 235
f 233 235 236
f 237 240 239
f 237 239 238
f 233 237 238
f 233 238 234
f 234 238 239
f 234 239 235
f 235 239 240
f 235 240 236
f 236 240 237
f 236 237 233
f 241 242 243
f 241 243 244
f 245 248 247
f 245 247 246
f 241 245 246
f 241 246 242
f 242 246 247
f 242 247 243
f 243 247 248
f 243 248 244
f 244 248 245
f 244 245 241
f 249 250 251
f 249 251 252
f 253 256 255
f 253 255 254
f 249 253 254
f 249 254 250
f 250 254 255
f 250 255 251
f 251 255 256
f 251 256 252
f 252 256 253
f 252 253 249
f 257 258 259
f 257 259 260
f 261 264 263
f 261 263 262
f 257 261 262
f 257 262 258
f 258 262 263
f 258 263 259
f 259 263 264
f 259 264 260
f 260 264 261
f 260 261 257
f 265 266 267
f 265 267 268
f 269 272 271
f 269 271 270
f 265 269 270
f 265 270 266
f 266 270 271
f 266 271 267
f 267 271 272
f 267 272 268
f 268 272 269
f 268 269 265
f 273 274 275
f 273 275 276
f 277 280 279
f 277 279 278
f 273 277 278
f 273 278 274
f 274 278 279
f 274 279 275
f 275 279 280
f 275 280 276
f 276 280 277
f 276 277 273
f 281 282 283
f 281 283 284
f 285 288 287
f 285 287 286
f 281 285 286
f 281 286 282
f 282 286 287
f 282 287 283
f 283 287 288
f 283 288 284
f 284 288 285
f 284 285 281
f 289 290 291
f 289 291 292
f 293 296 295
f 293 295 294
f 289 293 294
f 289 294 290
f 290 294 295
f 290 295 291
f 291 295 296
f 291 296 292
f 292 296 293
f 292 293 289
f 297 298 299
f 297 299 300
f 301 304 303
f 301 303 302
f 297 301 302
f 297 302 298
f 298 302 303
f 298 303 299
f 299 303 304
f 299 304 300
f 300 304 301
f 300 301 297
f 305 306 307
f 305 307 308
f 309 312 311
f 309 311 310
f 305 309 310
f 305 310 306
f 306 310 311
f 306 311 307
f 307 311 312
f 307 312 308
f 308 312 309
f 308 309 305
f 313 314 315
f 313 315 316
f 317 320 319
f 317 319 318
f 313 317 318
f 313 318 314
f 314 318 319
f 314 319 315
f 315 319 320
f 315 320 316
f 316 320 317
f 316 317 313
f 321 322 323
f 321 323 324
f 325 328 327
f 325 327 326
f 321 325 326
f 321 326 322
f 322 326 327
f 322 327 323
f 323 327 328
f 323 328 324
f 324 328 325
f 324 325 321
f 329 330 331
f 329 331 332
f 333 336 335
f 333 335 334
f 329 333 334
f 329 334 330
f 330 334 335
f 330 335 331
f 331 335 336
f 331 336 332
f 332 336 333
f 332 333 329
f 337 338 339
f 337 339 340
f 341 344 343
f 341 343 342
f 337 341 342
f 337 342 338
f 338 342 343
f 338 343 339
f 339 343 344
f 339 344 340
f 340 344 341
f 340 341 337
f 345 346 347
f 345 347 348
f 349 352 351
f 349 351 350
f 345 349 350
f 345 350 346
f 346 350 351
f 346 351 347
f 347 351 352
f 347 352 348
f 348 352 349
f 348 349 345
f 353 354 355
f 353 355 356
f 357 360 359
f 357 359 358
f 353 357 358
f 353 358 354
f 354 358 359
f 354 359 355
f 355 359 360
f 355 360 356
f 356 360 357
f 356 357 353
f 361 362 363
f 361 363 364
f 365 368 367
f 365 367 366
f 361 365 366
f 361 366 362
f 362 366 367
f 362 367 363
f 363 367 368
f 363 368 364
f 364 368 365
f 364 365 361
f 369 370 371
f 369 371 372
f 373 376 375
f 373 375 374
f 369 373 374
f 369 374 370
f 370 374 375
f 370 375 371
f 371 375 376
f 371 376 372
f 372 376 373
f 372 373 369
f 377 378 379
f 377 379 380
f 381 384 383
f 381 383 382
f 377 381 382
f 377 382 378
f 378 382 383
f 378 383 379
f 379 383 384
f 379 384 380
f 380 384 381
f 380 381 377
f 385 386 387
f 385 387 388
f 389 392 391
f 389 391 390
f 385 389 390
f 385 390 386
f 386 390 391
f 386 391 387
f 387 391 392
f 387 392 388
f 388 392 389
f 388 389 385
f 393 394 395
f 393 395 396
f 397 400 399
f 397 399 398
f 393 397 398
f 393 398 394
f 394 398 399
f 394 399 395
f 395 399 400
f 395 400 396
f 396 400 397
f 396 397 393
f 401 402 403
f 401 403 404
f 405 408 407
f 405 407 406
f 401 405 406
f 401 406 402
f 402 406 407
f 402 407 403
f 403 407 408
f 403 408 404
f 404 408 405
f 404 405 401
f 409 410 411
f 409 411 412
f 413 416 415
f 413 415 414
f 409 413 414
f 409 414 410
f 410 414 415
f 410 415 411
f 411 415 416
f 411 416 412
f 412 416 413
f 412 413 409
f 417 418 419
f 417 419 420
f 421 424 423
f 421 423 422
f 417 421 422
f 417 422 418
f 418 422 423
f 418 423 419
f 419 423 424
f 419 424 420
f 420 424 421
f 420 421 417
f 425 426 427
f 425 427 428
f 429 432 431
f 429 431 430
f 425 429 430
f 425 430 426
f 426 430 431
f 426 431 427
f 427 431 432
f 427 432 428
f 428 432 429
f 428 429 425
f 433 434 435
f 433 435 436
f 437 440 439
f 437 439 438
f 433 437 438
f 433 438 434
f 434 438 439
f 434 439 435
f 435 439 440
f 435 440 436
f 436 440 437
f 436 437 433
f 441 442 443
f 441 443 444
f 445 448 447
f 445 447 446
f 441 445 446
f 441 446 442
f 442 446 447
f 442 447 443
f 443 447 448
f 443 448 444
f 444 448 445
f 444 445 441
f 449 450 451
f 449 451 452
f 453 456 455
f 453 455 454
f 449 453 454
f 449 454 450
f 450 454 455
f 450 455 451
f 451 455 456
f 451 456 452
f 452 456 453
f 452 453 449
f 457 458 459
f 457 459 460
f 461 464 463
f 461 463 462
f 457 461 462
f 457 462 458
f 458 462 463
f 458 463 459
f 459 463 464
f 459 464 460
f 460 464 461
f 460 461 457
f 465 466 467
f 465 467 468
f 469 472 471
f 469 471 470
f 465 469 470
f 465 470 466
f 466 470 471
f 466 471 467
f 467 471 472
f 467 472 468
f 468 472 469
f 468 469 465
f 473 474 475
f 473 475 476
f 477 480 479
f 477 479 478
f 473 477 478
f 473 478 474
f 474 478 479
f 474 479 475
f 475 479 480
f 475 480 476
f 476 480 477
f 476 477 473
f 481 482 483
f 481 483 484
f 485 488 487
f 485 487 486
f 481 485 486
f 481 486 482
f 482 486 487
f 482 487 483
f 483 487 488
f 483 488 484
f 484 488 485
f 484 485 481
f 489 490 491
f 489 491 492
f 493 496 495
f 493 495 494
f 489 493 494
f 489 494 490
f 490 494 495
f 490 495 491
f 491 495 496
f 491 496 492
f 492 496 493
f 492 493 489
f 497 498 499
f 497 499 500
f 501 504 503
f 501 503 502
f 497 501 502
f 497 502 498
f 498 502 503
f 498 503 499
f 499 503 504
f 499 504 500
f 500 504 501
f 500 501 497
f 505 506 507
f 505 507 508
f 509 512 511
f 509 511 510
f 505 509 510
f 505 510 506
f 506 510 511
f 506 511 507
f 507 511 512
f 507 512 508
f 508 512 509
f 508 509 505
f 513 514 515
f 513 515 516
f 517 520 519
f 517 519 518
f 513 517 518
f 513 518 514
f 514 518 519
f 514 519 515
f 515 519 520
f 515 520 516
f 516 520 517
f 516 517 513
f 521 522 523
f 521 523 524
f 525 528 527
f 525 527 526
f 521 525 526
f 521 526 522
f 522 526 527
f 522 527 523
f 523 527 528
f 523 528 524
f 524 528 525
f 524 525 521
f 529 530 531
f 529 531 532
f 533 536 535
f 533 535 534
f 529 533 534
f 529 534 530
f 530 534 535
f 530 535 531
f 531 535 536
f 531 536 532
f 532 536 533
f 532 533 529
f 537 538 539
f 537 539 540
f 541 544 543
f 541 543 542
f 537 541 542
f 537 542 538
f 538 542 543
f 538 543 539
f 539 543 544
f 539 544 540
f 540 544 541
f 540 541 537
f 545 546 547
f 545 547 548
f 549 552 551
f 549 551 550
f 545 549 550
f 545 550 546
f 546 550 551
f 546 551 547
f 547 551 552
f 547 552 548
f 548 552 549
f 548 549 545
f 553 554 555
f 553 555 556
f 557 560 559
f 557 559 558
f 553 557 558
f 553 558 554
f 554 558 559
f 554 559 555
f 555 559 560
f 555 560 556
f 556 560 557
f 556 557 553
f 561 562 563
f 561 563 564
f 565 568 567
f 565 567 566
f 561 565 566
f 561 566 562
f 562 566 567
f 562 567 563
f 563 567 568
f 563 568 564
f 564 568 565
f 564 565 561
f 569 570 571
f 569 571 572
f 573 576 575
f 573 575 574
f 569 573 574
f 569 574 570
f 570 574 575
f 570 575 571
f 571 575 576
f 571 576 572
f 572 576 573
f 572 573 569
f 577 578 579
f 577 579 580
f 581 584 583
f 581 583 582
f 577 581 582
f 577 582 578
f 578 582 583
f 578 583 579
f 579 583 584
f 579 584 580
f 580 584 581
f 580 581 577
f 585 586 587
f 585 587 588
f 589 592 591
f 589 591 590
f 585 589 590
f 585 590 586
f 586 590 591
f 586 591 587
f 587 591 592
f 587 592 588
f 588 592 589
f 588 589 585
f 593 594 595
f 593 595 596
f 597 600 599
f 597 599 598
f 593 597 598
f 593 598 594
f 594 598 599
f 594 599 595
f 595 599 600
f 595 600 596
f 596 600 597
f 596 597 593
f 601 602 603
f 601 603 604
f 605 608 607
f 605 607 606
f 601 605 606
f 601 606 602
f 602 606 607
f 602 607 603
f 603 607 608
f 603 608 604
f 604 608 605
f 604 605 601
f 609 610 611
f 609 611 612
f 613 616 615
f 613 615 614
f 609 613 614
f 609 614 610
f 610 614 615
f 610 615 611
f 611 615 616
f 611 616 612
f 612 616 613
f 612 613 609
f 617 618 619
f 617 619 620
f 621 624 623
f 621 623 622
f 617 621 622
f 617 622 618
f 618 622 623
f 618 623 619
f 619 623 624
f 619 624 620
f 620 624 621
f 620 621 617
f 625 626 627
f 625 627 628
f 629 632 631
f 629 631 630
f 625 629 630
f 625 630 626
f 626 630 631
f 626 631 627
f 627 631 632
f 627 632 628
f 628 632 629
f 628 629 625
f 633 634 635
f 633 635 636
f 637 640 639
f 637 639 638
f 633 637 638
f 633 638 634
f 634 638 639
f 634 639 635
f 635 639 640
f 635 640 636
f 636 640 637
f 636 637 633
f 641 642 643
f 641 643 644
f 645 648 647
f 645 647 646
f 641 645 646
f 641 646 642
f 642 646 647
f 642 647 643
f 643 647 648
f 643 648 644
f 644 648 645
f 644 645 641
f 649 650 651
f 649 651 652
f 653 656 655
f 653 655 654
f 649 653 654
f 649 654 650
f 650 654 655
f 650 655 651
f 651 655 656
f 651 656 652
f 652 656 653
f 652 653 649
f 657 658 659
f 657 659 660
f 661 664 663
f 661 663 662
f 657 661 662
f 657 662 658
f 658 662 663
f 658 663 659
f 659 663 664
f 659 664 660
f 660 664 661
f 660 661 657
f 665 666 667
f 665 667 668
f 669 672 671
f 669 671 670
f 665 669 670
f 665 670 666
f 666 670 671
f 666 671 667
f 667 671 672
f 667 672 668
f 668 672 669
f 668 669 665
f 673 674 675
f 673 675 676
f 677 680 679
f 677 679 678
f 673 677 678
f 673 678 674
f 674 678 679
f 674 679 675
f 675 679 680
f 675 680 676
f 676 680 677
f 676 677 673
f 681 682 683
f 681 683 684
f 685 688 687
f 685 687 686
f 681 685 686
f 681 686 682
f 682 686 687
f 682 687 683
f 683 687 688
f 683 688 684
f 684 688 685
f 684 685 681
f 689 690 691
f 689 691 692
f 693 696 695
f 693 695 694
f 689 693 694
f 689 694 690
f 690 694 695
f 690 695 691
f 691 695 696
f 691 696 692
f 692 696 693
f 692 693 689
f 697 698 699
f 697 699 700
f 701 704 703
f 701 703 702
f 697 701 702
f 697 702 698
f 698 702 703
f 698 703 699
f 699 703 704
f 699 704 700
f 700 704 701
f 700 701 697
f 705 706 707
f 705 707 708
f 709 712 711
f 709 711 710
f 705 709 710
f 705 710 706
f 706 710 711
f 706 711 707
f 707 711 712
f 707 712 708
f 708 712 709
f 708 709 705
f 713 714 715
f 713 715 716
f 717 720 719
f 717 719 718
f 713 717 718
f 713 718 714
f 714 718 719
f 714 719 715
f 715 719 720
f 715 720 716
f 716 720 717
f 716 717 713
f 721 722 723
f 721 723 724
f 725 728 727
f 725 727 726
f 721 725 726
f 721 726 722
f 722 726 727
f 722 727 723
f 723 727 728
f 723 728 724
f 724 728 725
f 724 725 721
f 729 730 731
f 729 731 732
f 733 736 735
f 733 735 734
f 729 733 734
f 729 734 730
f 730 734 735
f 730 735 731
f 731 735 736
f 731 736 732
f 732 736 733
f 732 733 729
f 737 738 739
f 737 739 740
f 741 744 743
f 741 743 742
f 737 741 742
f 737 742 738
f 738 742 743
f 738 743 739
f 739 743 744
f 739 744 740
f 740 744 741
f 740 741 737
f 745 746 747
f 745 747 748
f 749 752 751
f 749 751 750
f 745 749 750
f 745 750 746
f 746 750 751
f 746 751 747
f 747 751 752
f 747 752 748
f 748 752 749
f 748 749 745
f 753 754 755
f 753 755 756
f 757 760 759
f 757 759 758
f 753 757 758
f 753 758 754
f 754 758 759
f 754 759 755
f 755 759 760
f 755 760 756
f 756 760 757
f 756 757 753
