o JSONLondon_236
v -108.000000 -23.000000 93.345287
v -106.884904 -23.000000 90.000000
v -106.995333 -22.516178 90.000000
v -107.304749 -22.128183 90.000000
v -107.751868 -21.912862 90.000000
v -108.248132 -21.912862 90.000000
v -108.695251 -22.128183 90.000000
v -109.004667 -22.516178 90.000000
v -109.115096 -23.000000 90.000000
v -109.004667 -23.483822 90.000000
v -108.695251 -23.871817 90.000000
v -108.248132 -24.087138 90.000000
v -107.751868 -24.087138 90.000000
v -107.304749 -23.871817 90.000000
v -106.995333 -23.483822 90.000000
v -108.000000 -23.000000 90.000000
f 1 2 3
f 1 3 4
f 1 4 5
f 1 5 6
f 1 6 7
f 1 7 8
f 1 8 9
f 1 9 10
f 1 10 11
f 1 11 12
f 1 12 13
f 1 13 14
f 1 14 15
f 1 15 2
f 16 3 2
f 16 4 3
f 16 5 4
f 16 6 5
f 16 7 6
f 16 8 7
f 16 9 8
f 16 10 9
f 16 11 10
f 16 12 11
f 16 13 12
f 16 14 13
f 16 15 14
f 16 2 15
