o JSONLondon_272
v 61.500000 -16.500000 108.345287
v 62.615096 -16.500000 105.000000
v 62.504667 -16.016178 105.000000
v 62.195251 -15.628183 105.000000
v 61.748132 -15.412862 105.000000
v 61.251868 -15.412862 105.000000
v 60.804749 -15.628183 105.000000
v 60.495333 -16.016178 105.000000
v 60.384904 -16.500000 105.000000
v 60.495333 -16.983822 105.000000
v 60.804749 -17.371817 105.000000
v 61.251868 -17.587138 105.000000
v 61.748132 -17.587138 105.000000
v 62.195251 -17.371817 105.000000
v 62.504667 -16.983822 105.000000
v 61.500000 -16.500000 105.000000
f 1 2 3
f 1 3 4
f 1 4 5
f 1 5 6
f 1 6 7
f 1 7 8
f 1 8 9
f 1 9 10
f 1 10 11
f 1 11 12
f 1 12 13
f 1 13 14
f 1 14 15
f 1 15 2
f 16 3 2
f 16 4 3
f 16 5 4
f 16 6 5
f 16 7 6
f 16 8 7
f 16 9 8
f 16 10 9
f 16 11 10
f 16 12 11
f 16 13 12
f 16 14 13
f 16 15 14
f 16 2 15
