o JSONLondon_246
v -81.500000 0.000000 128.345287
v -80.384904 0.000000 125.000000
v -80.495333 0.483822 125.000000
v -80.804749 0.871817 125.000000
v -81.251868 1.087138 125.000000
v -81.748132 1.087138 125.000000
v -82.195251 0.871817 125.000000
v -82.504667 0.483822 125.000000
v -82.615096 0.000000 125.000000
v -82.504667 -0.483822 125.000000
v -82.195251 -0.871817 125.000000
v -81.748132 -1.087138 125.000000
v -81.251868 -1.087138 125.000000
v -80.804749 -0.871817 125.000000
v -80.495333 -0.483822 125.000000
v -81.500000 0.000000 125.000000
f 1 2 3
f 1 3 4
f 1 4 5
f 1 5 6
f 1 6 7
f 1 7 8
f 1 8 9
f 1 9 10
f 1 10 11
f 1 11 12
f 1 12 13
f 1 13 14
f 1 14 15
f 1 15 2
f 16 3 2
f 16 4 3
f 16 5 4
f 16 6 5
f 16 7 6
f 16 8 7
f 16 9 8
f 16 10 9
f 16 11 10
f 16 12 11
f 16 13 12
f 16 14 13
f 16 15 14
f 16 2 15
