o JSONreference_341
v 2.000000 46.907406 9.401853
v 2.041667 46.907406 9.401853
v 2.083333 46.907406 9.401853
v 2.125000 46.907406 9.401853
v 2.166667 46.907406 9.401853
v 2.208333 46.907406 9.401853
v 2.250000 46.907406 9.401853
v 2.291667 46.907406 9.401853
v 2.333333 46.907406 9.401853
v 2.375000 46.907406 9.401853
v 2.416667 46.907406 9.401853
v 2.458333 46.907406 9.401853
v 2.500000 46.907406 9.401853
v 2.541667 46.907406 9.401853
v 2.583333 46.907406 9.401853
v 2.625000 46.907406 9.401853
v 2.666667 46.907406 9.401853
v 2.708333 46.907406 9.401853
v 2.750000 46.907406 9.401853
v 2.791667 46.907406 9.401853
v 2.833333 46.907406 9.401853
v 2.875000 46.907406 9.401853
v 2.916667 46.907406 9.401853
v 2.958333 46.907406 9.401853
v 3.000000 46.907406 9.401853
v 2.000000 47.435643 8.820793
v 2.041667 47.435643 8.820793
v 2.083333 47.435643 8.820793
v 2.125000 47.435643 8.820793
v 2.166667 47.435643 8.820793
v 2.208333 47.435643 8.820793
v 2.250000 47.435643 8.820793
v 2.291667 47.435643 8.820793
v 2.333333 47.435643 8.820793
v 2.375000 47.435643 8.820793
v 2.416667 47.435643 8.820793
v 2.458333 47.435643 8.820793
v 2.500000 47.435643 8.820793
v 2.541667 47.435643 8.820793
v 2.583333 47.435643 8.820793
v 2.625000 47.435643 8.820793
v 2.666667 47.435643 8.820793
v 2.708333 47.435643 8.820793
v 2.750000 47.435643 8.820793
v 2.791667 47.435643 8.820793
v 2.833333 47.435643 8.820793
v 2.875000 47.435643 8.820793
v 2.916667 47.435643 8.820793
v 2.958333 47.435643 8.820793
v 3.000000 47.435643 8.820793
v 2.000000 47.963879 8.239733
v 2.041667 47.963879 8.239733
v 2.083333 47.963879 8.239733
v 2.125000 47.963879 8.239733
v 2.166667 47.963879 8.239733
v 2.208333 47.963879 8.239733
v 2.250000 47.963879 8.239733
v 2.291667 47.963879 8.239733
v 2.333333 47.963879 8.239733
v 2.375000 47.963879 8.239733
v 2.416667 47.963879 8.239733
v 2.458333 47.963879 8.239733
v 2.500000 47.963879 8.239733
v 2.541667 47.963879 8.239733
v 2.583333 47.963879 8.239733
v 2.625000 47.963879 8.239733
v 2.666667 47.963879 8.239733
v 2.708333 47.963879 8.239733
v 2.750000 47.963879 8.239733
v 2.791667 47.963879 8.239733
v 2.833333 47.963879 8.239733
v 2.875000 47.963879 8.239733
v 2.916667 47.963879 8.239733
v 2.958333 47.963879 8.239733
v 3.000000 47.963879 8.239733
v 2.000000 48.492116 7.658673
v 2.041667 48.492116 7.658673
v 2.083333 48.492116 7.658673
v 2.125000 48.492116 7.658673
v 2.166667 48.492116 7.658673
v 2.208333 48.492116 7.658673
v 2.250000 48.492116 7.658673
v 2.291667 48.492116 7.658673
v 2.333333 48.492116 7.658673
v 2.375000 48.492116 7.658673
v 2.416667 48.492116 7.658673
v 2.458333 48.492116 7.658673
v 2.500000 48.492116 7.658673
v 2.541667 48.492116 7.658673
v 2.583333 48.492116 7.658673
v 2.625000 48.492116 7.658673
v 2.666667 48.492116 7.658673
v 2.708333 48.492116 7.658673
v 2.750000 48.492116 7.658673
v 2.791667 48.492116 7.658673
v 2.833333 48.492116 7.658673
v 2.875000 48.492116 7.658673
v 2.916667 48.492116 7.658673
v 2.958333 48.492116 7.658673
v 3.000000 48.492116 7.658673
v 2.000000 49.020352 7.077613
v 2.041667 49.020352 7.077613
v 2.083333 49.020352 7.077613
v 2.125000 49.020352 7.077613
v 2.166667 49.020352 7.077613
v 2.208333 49.020352 7.077613
v 2.250000 49.020352 7.077613
v 2.291667 49.020352 7.077613
v 2.333333 49.020352 7.077613
v 2.375000 49.020352 7.077613
v 2.416667 49.020352 7.077613
v 2.458333 49.020352 7.077613
v 2.500000 49.020352 7.077613
v 2.541667 49.020352 7.077613
v 2.583333 49.020352 7.077613
v 2.625000 49.020352 7.077613
v 2.666667 49.020352 7.077613
v 2.708333 49.020352 7.077613
v 2.750000 49.020352 7.077613
v 2.791667 49.020352 7.077613
v 2.833333 49.020352 7.077613
v 2.875000 49.020352 7.077613
v 2.916667 49.020352 7.077613
v 2.958333 49.020352 7.077613
v 3.000000 49.020352 7.077613
v 2.000000 49.548589 6.496552
v 2.041667 49.548589 6.496552
v 2.083333 49.548589 6.496552
v 2.125000 49.548589 6.496552
v 2.166667 49.548589 6.496552
v 2.208333 49.548589 6.496552
v 2.250000 49.548589 6.496552
v 2.291667 49.548589 6.496552
v 2.333333 49.548589 6.496552
v 2.375000 49.548589 6.496552
v 2.416667 49.548589 6.496552
v 2.458333 49.548589 6.496552
v 2.500000 49.548589 6.496552
v 2.541667 49.548589 6.496552
v 2.583333 49.548589 6.496552
v 2.625000 49.548589 6.496552
v 2.666667 49.548589 6.496552
v 2.708333 49.548589 6.496552
v 2.750000 49.548589 6.496552
v 2.791667 49.548589 6.496552
v 2.833333 49.548589 6.496552
v 2.875000 49.548589 6.496552
v 2.916667 49.548589 6.496552
v 2.958333 49.548589 6.496552
v 3.000000 49.548589 6.496552
v 2.000000 50.076825 5.915492
v 2.041667 50.076825 5.915492
v 2.083333 50.076825 5.915492
v 2.125000 50.076825 5.915492
v 2.166667 50.076825 5.915492
v 2.208333 50.076825 5.915492
v 2.250000 50.076825 5.915492
v 2.291667 50.076825 5.915492
v 2.333333 50.076825 5.915492
v 2.375000 50.076825 5.915492
v 2.416667 50.076825 5.915492
v 2.458333 50.076825 5.915492
v 2.500000 50.076825 5.915492
v 2.541667 50.076825 5.915492
v 2.583333 50.076825 5.915492
v 2.625000 50.076825 5.915492
v 2.666667 50.076825 5.915492
v 2.708333 50.076825 5.915492
v 2.750000 50.076825 5.915492
v 2.791667 50.076825 5.915492
v 2.833333 50.076825 5.915492
v 2.875000 50.076825 5.915492
v 2.916667 50.076825 5.915492
v 2.958333 50.076825 5.915492
v 3.000000 50.076825 5.915492
v 2.000000 50.605062 5.334432
v 2.041667 50.605062 5.334432
v 2.083333 50.605062 5.334432
v 2.125000 50.605062 5.334432
v 2.166667 50.605062 5.334432
v 2.208333 50.605062 5.334432
v 2.250000 50.605062 5.334432
v 2.291667 50.605062 5.334432
v 2.333333 50.605062 5.334432
v 2.375000 50.605062 5.334432
v 2.416667 50.605062 5.334432
v 2.458333 50.605062 5.334432
v 2.500000 50.605062 5.334432
v 2.541667 50.605062 5.334432
v 2.583333 50.605062 5.334432
v 2.625000 50.605062 5.334432
v 2.666667 50.605062 5.334432
v 2.708333 50.605062 5.334432
v 2.750000 50.605062 5.334432
v 2.791667 50.605062 5.334432
v 2.833333 50.605062 5.334432
v 2.875000 50.605062 5.334432
v 2.916667 50.605062 5.334432
v 2.958333 50.605062 5.334432
v 3.000000 50.605062 5.334432
v 2.000000 51.133298 4.753372
v 2.041667 51.133298 4.753372
v 2.083333 51.133298 4.753372
v 2.125000 51.133298 4.753372
v 2.166667 51.133298 4.753372
v 2.208333 51.133298 4.753372
v 2.250000 51.133298 4.753372
v 2.291667 51.133298 4.753372
v 2.333333 51.133298 4.753372
v 2.375000 51.133298 4.753372
v 2.416667 51.133298 4.753372
v 2.458333 51.133298 4.753372
v 2.500000 51.133298 4.753372
v 2.541667 51.133298 4.753372
v 2.583333 51.133298 4.753372
v 2.625000 51.133298 4.753372
v 2.666667 51.133298 4.753372
v 2.708333 51.133298 4.753372
v 2.750000 51.133298 4.753372
v 2.791667 51.133298 4.753372
v 2.833333 51.133298 4.753372
v 2.875000 51.133298 4.753372
v 2.916667 51.133298 4.753372
v 2.958333 51.133298 4.753372
v 3.000000 51.133298 4.753372
v 2.000000 51.661535 4.172311
v 2.041667 51.661535 4.172311
v 2.083333 51.661535 4.172311
v 2.125000 51.661535 4.172311
v 2.166667 51.661535 4.172311
v 2.208333 51.661535 4.172311
v 2.250000 51.661535 4.172311
v 2.291667 51.661535 4.172311
v 2.333333 51.661535 4.172311
v 2.375000 51.661535 4.172311
v 2.416667 51.661535 4.172311
v 2.458333 51.661535 4.172311
v 2.500000 51.661535 4.172311
v 2.541667 51.661535 4.172311
v 2.583333 51.661535 4.172311
v 2.625000 51.661535 4.172311
v 2.666667 51.661535 4.172311
v 2.708333 51.661535 4.172311
v 2.750000 51.661535 4.172311
v 2.791667 51.661535 4.172311
v 2.833333 51.661535 4.172311
v 2.875000 51.661535 4.172311
v 2.916667 51.661535 4.172311
v 2.958333 51.661535 4.172311
v 3.000000 51.661535 4.172311
v 2.000000 52.189772 3.591251
v 2.041667 52.189772 3.591251
v 2.083333 52.189772 3.591251
v 2.125000 52.189772 3.591251
v 2.166667 52.189772 3.591251
v 2.208333 52.189772 3.591251
v 2.250000 52.189772 3.591251
v 2.291667 52.189772 3.591251
v 2.333333 52.189772 3.591251
v 2.375000 52.189772 3.591251
v 2.416667 52.189772 3.591251
v 2.458333 52.189772 3.591251
v 2.500000 52.189772 3.591251
v 2.541667 52.189772 3.591251
v 2.583333 52.189772 3.591251
v 2.625000 52.189772 3.591251
v 2.666667 52.189772 3.591251
v 2.708333 52.189772 3.591251
v 2.750000 52.189772 3.591251
v 2.791667 52.189772 3.591251
v 2.833333 52.189772 3.591251
v 2.875000 52.189772 3.591251
v 2.916667 52.189772 3.591251
v 2.958333 52.189772 3.591251
v 3.000000 52.189772 3.591251
v 2.000000 52.718008 3.010191
v 2.041667 52.718008 3.010191
v 2.083333 52.718008 3.010191
v 2.125000 52.718008 3.010191
v 2.166667 52.718008 3.010191
v 2.208333 52.718008 3.010191
v 2.250000 52.718008 3.010191
v 2.291667 52.718008 3.010191
v 2.333333 52.718008 3.010191
v 2.375000 52.718008 3.010191
v 2.416667 52.718008 3.010191
v 2.458333 52.718008 3.010191
v 2.500000 52.718008 3.010191
v 2.541667 52.718008 3.010191
v 2.583333 52.718008 3.010191
v 2.625000 52.718008 3.010191
v 2.666667 52.718008 3.010191
v 2.708333 52.718008 3.010191
v 2.750000 52.718008 3.010191
v 2.791667 52.718008 3.010191
v 2.833333 52.718008 3.010191
v 2.875000 52.718008 3.010191
v 2.916667 52.718008 3.010191
v 2.958333 52.718008 3.010191
v 3.000000 52.718008 3.010191
v 2.000000 53.246245 2.429131
v 2.041667 53.246245 2.429131
v 2.083333 53.246245 2.429131
v 2.125000 53.246245 2.429131
v 2.166667 53.246245 2.429131
v 2.208333 53.246245 2.429131
v 2.250000 53.246245 2.429131
v 2.291667 53.246245 2.429131
v 2.333333 53.246245 2.429131
v 2.375000 53.246245 2.429131
v 2.416667 53.246245 2.429131
v 2.458333 53.246245 2.429131
v 2.500000 53.246245 2.429131
v 2.541667 53.246245 2.429131
v 2.583333 53.246245 2.429131
v 2.625000 53.246245 2.429131
v 2.666667 53.246245 2.429131
v 2.708333 53.246245 2.429131
v 2.750000 53.246245 2.429131
v 2.791667 53.246245 2.429131
v 2.833333 53.246245 2.429131
v 2.875000 53.246245 2.429131
v 2.916667 53.246245 2.429131
v 2.958333 53.246245 2.429131
v 3.000000 53.246245 2.429131
v 2.000000 53.774481 1.848071
v 2.041667 53.774481 1.848071
v 2.083333 53.774481 1.848071
v 2.125000 53.774481 1.848071
v 2.166667 53.774481 1.848071
v 2.208333 53.774481 1.848071
v 2.250000 53.774481 1.848071
v 2.291667 53.774481 1.848071
v 2.333333 53.774481 1.848071
v 2.375000 53.774481 1.848071
v 2.416667 53.774481 1.848071
v 2.458333 53.774481 1.848071
v 2.500000 53.774481 1.848071
v 2.541667 53.774481 1.848071
v 2.583333 53.774481 1.848071
v 2.625000 53.774481 1.848071
v 2.666667 53.774481 1.848071
v 2.708333 53.774481 1.848071
v 2.750000 53.774481 1.848071
v 2.791667 53.774481 1.848071
v 2.833333 53.774481 1.848071
v 2.875000 53.774481 1.848071
v 2.916667 53.774481 1.848071
v 2.958333 53.774481 1.848071
v 3.000000 53.774481 1.848071
v 2.000000 54.302718 1.267010
v 2.041667 54.302718 1.267010
v 2.083333 54.302718 1.267010
v 2.125000 54.302718 1.267010
v 2.166667 54.302718 1.267010
v 2.208333 54.302718 1.267010
v 2.250000 54.302718 1.267010
v 2.291667 54.302718 1.267010
v 2.333333 54.302718 1.267010
v 2.375000 54.302718 1.267010
v 2.416667 54.302718 1.267010
v 2.458333 54.302718 1.267010
v 2.500000 54.302718 1.267010
v 2.541667 54.302718 1.267010
v 2.583333 54.302718 1.267010
v 2.625000 54.302718 1.267010
v 2.666667 54.302718 1.267010
v 2.708333 54.302718 1.267010
v 2.750000 54.302718 1.267010
v 2.791667 54.302718 1.267010
v 2.833333 54.302718 1.267010
v 2.875000 54.302718 1.267010
v 2.916667 54.302718 1.267010
v 2.958333 54.302718 1.267010
v 3.000000 54.302718 1.267010
v 2.000000 54.830954 0.685950
v 2.041667 54.830954 0.685950
v 2.083333 54.830954 0.685950
v 2.125000 54.830954 0.685950
v 2.166667 54.830954 0.685950
v 2.208333 54.830954 0.685950
v 2.250000 54.830954 0.685950
v 2.291667 54.830954 0.685950
v 2.333333 54.830954 0.685950
v 2.375000 54.830954 0.685950
v 2.416667 54.830954 0.685950
v 2.458333 54.830954 0.685950
v 2.500000 54.830954 0.685950
v 2.541667 54.830954 0.685950
v 2.583333 54.830954 0.685950
v 2.625000 54.830954 0.685950
v 2.666667 54.830954 0.685950
v 2.708333 54.830954 0.685950
v 2.750000 54.830954 0.685950
v 2.791667 54.830954 0.685950
v 2.833333 54.830954 0.685950
v 2.875000 54.830954 0.685950
v 2.916667 54.830954 0.685950
v 2.958333 54.830954 0.685950
v 3.000000 54.830954 0.685950
v 2.000000 55.359191 0.104890
v 2.041667 55.359191 0.104890
v 2.083333 55.359191 0.104890
v 2.125000 55.359191 0.104890
v 2.166667 55.359191 0.104890
v 2.208333 55.359191 0.104890
v 2.250000 55.359191 0.104890
v 2.291667 55.359191 0.104890
v 2.333333 55.359191 0.104890
v 2.375000 55.359191 0.104890
v 2.416667 55.359191 0.104890
v 2.458333 55.359191 0.104890
v 2.500000 55.359191 0.104890
v 2.541667 55.359191 0.104890
v 2.583333 55.359191 0.104890
v 2.625000 55.359191 0.104890
v 2.666667 55.359191 0.104890
v 2.708333 55.359191 0.104890
v 2.750000 55.359191 0.104890
v 2.791667 55.359191 0.104890
v 2.833333 55.359191 0.104890
v 2.875000 55.359191 0.104890
v 2.916667 55.359191 0.104890
v 2.958333 55.359191 0.104890
v 3.000000 55.359191 0.104890
v 2.000000 55.887427 -0.476170
v 2.041667 55.887427 -0.476170
v 2.083333 55.887427 -0.476170
v 2.125000 55.887427 -0.476170
v 2.166667 55.887427 -0.476170
v 2.208333 55.887427 -0.476170
v 2.250000 55.887427 -0.476170
v 2.291667 55.887427 -0.476170
v 2.333333 55.887427 -0.476170
v 2.375000 55.887427 -0.476170
v 2.416667 55.887427 -0.476170
v 2.458333 55.887427 -0.476170
v 2.500000 55.887427 -0.476170
v 2.541667 55.887427 -0.476170
v 2.583333 55.887427 -0.476170
v 2.625000 55.887427 -0.476170
v 2.666667 55.887427 -0.476170
v 2.708333 55.887427 -0.476170
v 2.750000 55.887427 -0.476170
v 2.791667 55.887427 -0.476170
v 2.833333 55.887427 -0.476170
v 2.875000 55.887427 -0.476170
v 2.916667 55.887427 -0.476170
v 2.958333 55.887427 -0.476170
v 3.000000 55.887427 -0.476170
v 2.000000 56.415664 -1.057230
v 2.041667 56.415664 -1.057230
v 2.083333 56.415664 -1.057230
v 2.125000 56.415664 -1.057230
v 2.166667 56.415664 -1.057230
v 2.208333 56.415664 -1.057230
v 2.250000 56.415664 -1.057230
v 2.291667 56.415664 -1.057230
v 2.333333 56.415664 -1.057230
v 2.375000 56.415664 -1.057230
v 2.416667 56.415664 -1.057230
v 2.458333 56.415664 -1.057230
v 2.500000 56.415664 -1.057230
v 2.541667 56.415664 -1.057230
v 2.583333 56.415664 -1.057230
v 2.625000 56.415664 -1.057230
v 2.666667 56.415664 -1.057230
v 2.708333 56.415664 -1.057230
v 2.750000 56.415664 -1.057230
v 2.791667 56.415664 -1.057230
v 2.833333 56.415664 -1.057230
v 2.875000 56.415664 -1.057230
v 2.916667 56.415664 -1.057230
v 2.958333 56.415664 -1.057230
v 3.000000 56.415664 -1.057230
v 2.000000 56.943901 -1.638291
v 2.041667 56.943901 -1.638291
v 2.083333 56.943901 -1.638291
v 2.125000 56.943901 -1.638291
v 2.166667 56.943901 -1.638291
v 2.208333 56.943901 -1.638291
v 2.250000 56.943901 -1.638291
v 2.291667 56.943901 -1.638291
v 2.333333 56.943901 -1.638291
v 2.375000 56.943901 -1.638291
v 2.416667 56.943901 -1.638291
v 2.458333 56.943901 -1.638291
v 2.500000 56.943901 -1.638291
v 2.541667 56.943901 -1.638291
v 2.583333 56.943901 -1.638291
v 2.625000 56.943901 -1.638291
v 2.666667 56.943901 -1.638291
v 2.708333 56.943901 -1.638291
v 2.750000 56.943901 -1.638291
v 2.791667 56.943901 -1.638291
v 2.833333 56.943901 -1.638291
v 2.875000 56.943901 -1.638291
v 2.916667 56.943901 -1.638291
v 2.958333 56.943901 -1.638291
v 3.000000 56.943901 -1.638291
v 2.000000 57.472137 -2.219351
v 2.041667 57.472137 -2.219351
v 2.083333 57.472137 -2.219351
v 2.125000 57.472137 -2.219351
v 2.166667 57.472137 -2.219351
v 2.208333 57.472137 -2.219351
v 2.250000 57.472137 -2.219351
v 2.291667 57.472137 -2.219351
v 2.333333 57.472137 -2.219351
v 2.375000 57.472137 -2.219351
v 2.416667 57.472137 -2.219351
v 2.458333 57.472137 -2.219351
v 2.500000 57.472137 -2.219351
v 2.541667 57.472137 -2.219351
v 2.583333 57.472137 -2.219351
v 2.625000 57.472137 -2.219351
v 2.666667 57.472137 -2.219351
v 2.708333 57.472137 -2.219351
v 2.750000 57.472137 -2.219351
v 2.791667 57.472137 -2.219351
v 2.833333 57.472137 -2.219351
v 2.875000 57.472137 -2.219351
v 2.916667 57.472137 -2.219351
v 2.958333 57.472137 -2.219351
v 3.000000 57.472137 -2.219351
v 2.000000 58.000374 -2.800411
v 2.041667 58.000374 -2.800411
v 2.083333 58.000374 -2.800411
v 2.125000 58.000374 -2.800411
v 2.166667 58.000374 -2.800411
v 2.208333 58.000374 -2.800411
v 2.250000 58.000374 -2.800411
v 2.291667 58.000374 -2.800411
v 2.333333 58.000374 -2.800411
v 2.375000 58.000374 -2.800411
v 2.416667 58.000374 -2.800411
v 2.458333 58.000374 -2.800411
v 2.500000 58.000374 -2.800411
v 2.541667 58.000374 -2.800411
v 2.583333 58.000374 -2.800411
v 2.625000 58.000374 -2.800411
v 2.666667 58.000374 -2.800411
v 2.708333 58.000374 -2.800411
v 2.750000 58.000374 -2.800411
v 2.791667 58.000374 -2.800411
v 2.833333 58.000374 -2.800411
v 2.875000 58.000374 -2.800411
v 2.916667 58.000374 -2.800411
v 2.958333 58.000374 -2.800411
v 3.000000 58.000374 -2.800411
v 2.000000 58.528610 -3.381471
v 2.041667 58.528610 -3.381471
v 2.083333 58.528610 -3.381471
v 2.125000 58.528610 -3.381471
v 2.166667 58.528610 -3.381471
v 2.208333 58.528610 -3.381471
v 2.250000 58.528610 -3.381471
v 2.291667 58.528610 -3.381471
v 2.333333 58.528610 -3.381471
v 2.375000 58.528610 -3.381471
v 2.416667 58.528610 -3.381471
v 2.458333 58.528610 -3.381471
v 2.500000 58.528610 -3.381471
v 2.541667 58.528610 -3.381471
v 2.583333 58.528610 -3.381471
v 2.625000 58.528610 -3.381471
v 2.666667 58.528610 -3.381471
v 2.708333 58.528610 -3.381471
v 2.750000 58.528610 -3.381471
v 2.791667 58.528610 -3.381471
v 2.833333 58.528610 -3.381471
v 2.875000 58.528610 -3.381471
v 2.916667 58.528610 -3.381471
v 2.958333 58.528610 -3.381471
v 3.000000 58.528610 -3.381471
v 2.000000 59.056847 -3.962531
v 2.041667 59.056847 -3.962531
v 2.083333 59.056847 -3.962531
v 2.125000 59.056847 -3.962531
v 2.166667 59.056847 -3.962531
v 2.208333 59.056847 -3.962531
v 2.250000 59.056847 -3.962531
v 2.291667 59.056847 -3.962531
v 2.333333 59.056847 -3.962531
v 2.375000 59.056847 -3.962531
v 2.416667 59.056847 -3.962531
v 2.458333 59.056847 -3.962531
v 2.500000 59.056847 -3.962531
v 2.541667 59.056847 -3.962531
v 2.583333 59.056847 -3.962531
v 2.625000 59.056847 -3.962531
v 2.666667 59.056847 -3.962531
v 2.708333 59.056847 -3.962531
v 2.750000 59.056847 -3.962531
v 2.791667 59.056847 -3.962531
v 2.833333 59.056847 -3.962531
v 2.875000 59.056847 -3.962531
v 2.916667 59.056847 -3.962531
v 2.958333 59.056847 -3.962531
v 3.000000 59.056847 -3.962531
v 2.000000 59.585083 -4.543592
v 2.041667 59.585083 -4.543592
v 2.083333 59.585083 -4.543592
v 2.125000 59.585083 -4.543592
v 2.166667 59.585083 -4.543592
v 2.208333 59.585083 -4.543592
v 2.250000 59.585083 -4.543592
v 2.291667 59.585083 -4.543592
v 2.333333 59.585083 -4.543592
v 2.375000 59.585083 -4.543592
v 2.416667 59.585083 -4.543592
v 2.458333 59.585083 -4.543592
v 2.500000 59.585083 -4.543592
v 2.541667 59.585083 -4.543592
v 2.583333 59.585083 -4.543592
v 2.625000 59.585083 -4.543592
v 2.666667 59.585083 -4.543592
v 2.708333 59.585083 -4.543592
v 2.750000 59.585083 -4.543592
v 2.791667 59.585083 -4.543592
v 2.833333 59.585083 -4.543592
v 2.875000 59.585083 -4.543592
v 2.916667 59.585083 -4.543592
v 2.958333 59.585083 -4.543592
v 3.000000 59.585083 -4.543592
f 302 303 328
f 302 328 327
f 303 304 329
f 303 329 328
f 304 305 330
f 304 330 329
f 305 306 331
f 305 331 330
f 306 307 332
f 306 332 331
f 307 308 333
f 307 333 332
f 308 309 334
f 308 334 333
f 309 310 335
f 309 335 334
f 310 311 336
f 310 336 335
f 311 312 337
f 311 337 336
f 312 313 338
f 312 338 337
f 313 314 339
f 313 339 338
f 314 315 340
f 314 340 339
f 315 316 341
f 315 341 340
f 316 317 342
f 316 342 341
f 317 318 343
f 317 343 342
f 318 319 344
f 318 344 343
f 319 320 345
f 319 345 344
f 320 321 346
f 320 346 345
f 321 322 347
f 321 347 346
f 322 323 348
f 322 348 347
f 323 324 349
f 323 349 348
f 327 328 353
f 327 353 352
f 328 329 354
f 328 354 353
f 329 330 355
f 329 355 354
f 330 331 356
f 330 356 355
f 331 332 357
f 331 357 356
f 332 333 358
f 332 358 357
f 333 334 359
f 333 359 358
f 334 335 360
f 334 360 359
f 335 336 361
f 335 361 360
f 336 337 362
f 336 362 361
f 337 338 363
f 337 363 362
f 338 339 364
f 338 364 363
f 339 340 365
f 339 365 364
f 340 341 366
f 340 366 365
f 341 342 367
f 341 367 366
f 342 343 368
f 342 368 367
f 343 344 369
f 343 369 368
f 344 345 370
f 344 370 369
f 345 346 371
f 345 371 370
f 346 347 372
f 346 372 371
f 347 348 373
f 347 373 372
f 348 349 374
f 348 374 373
f 352 353 378
f 352 378 377
f 353 354 379
f 353 379 378
f 354 355 380
f 354 380 379
f 355 356 381
f 355 381 380
f 356 357 382
f 356 382 381
f 357 358 383
f 357 383 382
f 358 359 384
f 358 384 383
f 359 360 385
f 359 385 384
f 360 361 386
f 360 386 385
f 361 362 387
f 361 387 386
f 362 363 388
f 362 388 387
f 363 364 389
f 363 389 388
f 364 365 390
f 364 390 389
f 365 366 391
f 365 391 390
f 366 367 392
f 366 392 391
f 367 368 393
f 367 393 392
f 368 369 394
f 368 394 393
f 369 370 395
f 369 395 394
f 370 371 396
f 370 396 395
f 371 372 397
f 371 397 396
f 372 373 398
f 372 398 397
f 373 374 399
f 373 399 398
f 377 378 403
f 377 403 402
f 378 379 404
f 378 404 403
f 379 380 405
f 379 405 404
f 380 381 406
f 380 406 405
f 381 382 407
f 381 407 406
f 382 383 408
f 382 408 407
f 383 384 409
f 383 409 408
f 384 385 410
f 384 410 409
f 385 386 411
f 385 411 410
f 386 387 412
f 386 412 411
f 387 388 413
f 387 413 412
f 388 389 414
f 388 414 413
f 389 390 415
f 389 415 414
f 390 391 416
f 390 416 415
f 391 392 417
f 391 417 416
f 392 393 418
f 392 418 417
f 393 394 419
f 393 419 418
f 394 395 420
f 394 420 419
f 395 396 421
f 395 421 420
f 396 397 422
f 396 422 421
f 397 398 423
f 397 423 422
f 398 399 424
f 398 424 423
f 402 403 428
f 402 428 427
f 403 404 429
f 403 429 428
f 404 405 430
f 404 430 429
f 405 406 431
f 405 431 430
f 406 407 432
f 406 432 431
f 407 408 433
f 407 433 432
f 408 409 434
f 408 434 433
f 409 410 435
f 409 435 434
f 410 411 436
f 410 436 435
f 411 412 437
f 411 437 436
f 412 413 438
f 412 438 437
f 413 414 439
f 413 439 438
f 414 415 440
f 414 440 439
f 415 416 441
f 415 441 440
f 416 417 442
f 416 442 441
f 417 418 443
f 417 443 442
f 418 419 444
f 418 444 443
f 419 420 445
f 419 445 444
f 420 421 446
f 420 446 445
f 421 422 447
f 421 447 446
f 422 423 448
f 422 448 447
f 423 424 449
f 423 449 448
f 427 428 453
f 427 453 452
f 428 429 454
f 428 454 453
f 429 430 455
f 429 455 454
f 430 431 456
f 430 456 455
f 431 432 457
f 431 457 456
f 432 433 458
f 432 458 457
f 433 434 459
f 433 459 458
f 434 435 460
f 434 460 459
f 435 436 461
f 435 461 460
f 436 437 462
f 436 462 461
f 437 438 463
f 437 463 462
f 438 439 464
f 438 464 463
f 439 440 465
f 439 465 464
f 440 441 466
f 440 466 465
f 441 442 467
f 441 467 466
f 442 443 468
f 442 468 467
f 443 444 469
f 443 469 468
f 444 445 470
f 444 470 469
f 445 446 471
f 445 471 470
f 446 447 472
f 446 472 471
f 447 448 473
f 447 473 472
f 448 449 474
f 448 474 473
f 452 453 478
f 452 478 477
f 453 454 479
f 453 479 478
f 454 455 480
f 454 480 479
f 455 456 481
f 455 481 480
f 456 457 482
f 456 482 481
f 457 458 483
f 457 483 482
f 458 459 484
f 458 484 483
f 459 460 485
f 459 485 484
f 460 461 486
f 460 486 485
f 461 462 487
f 461 487 486
f 462 463 488
f 462 488 487
f 463 464 489
f 463 489 488
f 464 465 490
f 464 490 489
f 465 466 491
f 465 491 490
f 466 467 492
f 466 492 491
f 467 468 493
f 467 493 492
f 468 469 494
f 468 494 493
f 469 470 495
f 469 495 494
f 470 471 496
f 470 496 495
f 471 472 497
f 471 497 496
f 472 473 498
f 472 498 497
f 473 474 499
f 473 499 498
f 477 478 503
f 477 503 502
f 478 479 504
f 478 504 503
f 479 480 505
f 479 505 504
f 480 481 506
f 480 506 505
f 481 482 507
f 481 507 506
f 482 483 508
f 482 508 507
f 483 484 509
f 483 509 508
f 484 485 510
f 484 510 509
f 485 486 511
f 485 511 510
f 486 487 512
f 486 512 511
f 487 488 513
f 487 513 512
f 488 489 514
f 488 514 513
f 489 490 515
f 489 515 514
f 490 491 516
f 490 516 515
f 491 492 517
f 491 517 516
f 492 493 518
f 492 518 517
f 493 494 519
f 493 519 518
f 494 495 520
f 494 520 519
f 495 496 521
f 495 521 520
f 496 497 522
f 496 522 521
f 497 498 523
f 497 523 522
f 498 499 524
f 498 524 523
f 502 503 528
f 502 528 527
f 503 504 529
f 503 529 528
f 504 505 530
f 504 530 529
f 505 506 531
f 505 531 530
f 506 507 532
f 506 532 531
f 507 508 533
f 507 533 532
f 508 509 534
f 508 534 533
f 509 510 535
f 509 535 534
f 510 511 536
f 510 536 535
f 511 512 537
f 511 537 536
f 512 513 538
f 512 538 537
f 513 514 539
f 513 539 538
f 514 515 540
f 514 540 539
f 515 516 541
f 515 541 540
f 516 517 542
f 516 542 541
f 517 518 543
f 517 543 542
f 518 519 544
f 518 544 543
f 519 520 545
f 519 545 544
f 520 521 546
f 520 546 545
f 521 522 547
f 521 547 546
f 522 523 548
f 522 548 547
f 523 524 549
f 523 549 548
f 527 528 553
f 527 553 552
f 528 529 554
f 528 554 553
f 529 530 555
f 529 555 554
f 530 531 556
f 530 556 555
f 531 532 557
f 531 557 556
f 532 533 558
f 532 558 557
f 533 534 559
f 533 559 558
f 534 535 560
f 534 560 559
f 535 536 561
f 535 561 560
f 536 537 562
f 536 562 561
f 537 538 563
f 537 563 562
f 538 539 564
f 538 564 563
f 539 540 565
f 539 565 564
f 540 541 566
f 540 566 565
f 541 542 567
f 541 567 566
f 542 543 568
f 542 568 567
f 543 544 569
f 543 569 568
f 544 545 570
f 544 570 569
f 545 546 571
f 545 571 570
f 546 547 572
f 546 572 571
f 547 548 573
f 547 573 572
f 548 549 574
f 548 574 573
f 552 553 578
f 552 578 577
f 553 554 579
f 553 579 578
f 554 555 580
f 554 580 579
f 555 556 581
f 555 581 580
f 556 557 582
f 556 582 581
f 557 558 583
f 557 583 582
f 558 559 584
f 558 584 583
f 559 560 585
f 559 585 584
f 560 561 586
f 560 586 585
f 561 562 587
f 561 587 586
f 562 563 588
f 562 588 587
f 563 564 589
f 563 589 588
f 564 565 590
f 564 590 589
f 565 566 591
f 565 591 590
f 566 567 592
f 566 592 591
f 567 568 593
f 567 593 592
f 568 569 594
f 568 594 593
f 569 570 595
f 569 595 594
f 570 571 596
f 570 596 595
f 571 572 597
f 571 597 596
f 572 573 598
f 572 598 597
f 573 574 599
f 573 599 598
f 577 578 603
f 577 603 602
f 578 579 604
f 578 604 603
f 579 580 605
f 579 605 604
f 580 581 606
f 580 606 605
f 581 582 607
f 581 607 606
f 582 583 608
f 582 608 607
f 583 584 609
f 583 609 608
f 584 585 610
f 584 610 609
f 585 586 611
f 585 611 610
f 586 587 612
f 586 612 611
f 587 588 613
f 587 613 612
f 588 589 614
f 588 614 613
f 589 590 615
f 589 615 614
f 590 591 616
f 590 616 615
f 591 592 617
f 591 617 616
f 592 593 618
f 592 618 617
f 593 594 619
f 593 619 618
f 594 595 620
f 594 620 619
f 595 596 621
f 595 621 620
f 596 597 622
f 596 622 621
f 597 598 623
f 597 623 622
f 598 599 624
f 598 624 623
