o JSONreference_230
v -3.000000 26.623122 0.882822
v -2.958333 26.623122 0.882822
v -2.916667 26.623122 0.882822
v -2.875000 26.623122 0.882822
v -2.833333 26.623122 0.882822
v -2.791667 26.623122 0.882822
v -2.750000 26.623122 0.882822
v -2.708333 26.623122 0.882822
v -2.666667 26.623122 0.882822
v -2.625000 26.623122 0.882822
v -2.583333 26.623122 0.882822
v -2.541667 26.623122 0.882822
v -2.500000 26.623122 0.882822
v -2.458333 26.623122 0.882822
v -2.416667 26.623122 0.882822
v -2.375000 26.623122 0.882822
v -2.333333 26.623122 0.882822
v -2.291667 26.623122 0.882822
v -2.250000 26.623122 0.882822
v -2.208333 26.623122 0.882822
v -2.166667 26.623122 0.882822
v -2.125000 26.623122 0.882822
v -2.083333 26.623122 0.882822
v -2.041667 26.623122 0.882822
v -2.000000 26.623122 0.882822
v -3.000000 26.834417 1.127924
v -2.958333 26.834417 1.127924
v -2.916667 26.834417 1.127924
v -2.875000 26.834417 1.127924
v -2.833333 26.834417 1.127924
v -2.791667 26.834417 1.127924
v -2.750000 26.834417 1.127924
v -2.708333 26.834417 1.127924
v -2.666667 26.834417 1.127924
v -2.625000 26.834417 1.127924
v -2.583333 26.834417 1.127924
v -2.541667 26.834417 1.127924
v -2.500000 26.834417 1.127924
v -2.458333 26.834417 1.127924
v -2.416667 26.834417 1.127924
v -2.375000 26.834417 1.127924
v -2.333333 26.834417 1.127924
v -2.291667 26.834417 1.127924
v -2.250000 26.834417 1.127924
v -2.208333 26.834417 1.127924
v -2.166667 26.834417 1.127924
v -2.125000 26.834417 1.127924
v -2.083333 26.834417 1.127924
v -2.041667 26.834417 1.127924
v -2.000000 26.834417 1.127924
v -3.000000 27.045712 1.373025
v -2.958333 27.045712 1.373025
v -2.916667 27.045712 1.373025
v -2.875000 27.045712 1.373025
v -2.833333 27.045712 1.373025
v -2.791667 27.045712 1.373025
v -2.750000 27.045712 1.373025
v -2.708333 27.045712 1.373025
v -2.666667 27.045712 1.373025
v -2.625000 27.045712 1.373025
v -2.583333 27.045712 1.373025
v -2.541667 27.045712 1.373025
v -2.500000 27.045712 1.373025
v -2.458333 27.045712 1.373025
v -2.416667 27.045712 1.373025
v -2.375000 27.045712 1.373025
v -2.333333 27.045712 1.373025
v -2.291667 27.045712 1.373025
v -2.250000 27.045712 1.373025
v -2.208333 27.045712 1.373025
v -2.166667 27.045712 1.373025
v -2.125000 27.045712 1.373025
v -2.083333 27.045712 1.373025
v -2.041667 27.045712 1.373025
v -2.000000 27.045712 1.373025
v -3.000000 27.257006 1.618127
v -2.958333 27.257006 1.618127
v -2.916667 27.257006 1.618127
v -2.875000 27.257006 1.618127
v -2.833333 27.257006 1.618127
v -2.791667 27.257006 1.618127
v -2.750000 27.257006 1.618127
v -2.708333 27.257006 1.618127
v -2.666667 27.257006 1.618127
v -2.625000 27.257006 1.618127
v -2.583333 27.257006 1.618127
v -2.541667 27.257006 1.618127
v -2.500000 27.257006 1.618127
v -2.458333 27.257006 1.618127
v -2.416667 27.257006 1.618127
v -2.375000 27.257006 1.618127
v -2.333333 27.257006 1.618127
v -2.291667 27.257006 1.618127
v -2.250000 27.257006 1.618127
v -2.208333 27.257006 1.618127
v -2.166667 27.257006 1.618127
v -2.125000 27.257006 1.618127
v -2.083333 27.257006 1.618127
v -2.041667 27.257006 1.618127
v -2.000000 27.257006 1.618127
v -3.000000 27.468301 1.863229
v -2.958333 27.468301 1.863229
v -2.916667 27.468301 1.863229
v -2.875000 27.468301 1.863229
v -2.833333 27.468301 1.863229
v -2.791667 27.468301 1.863229
v -2.750000 27.468301 1.863229
v -2.708333 27.468301 1.863229
v -2.666667 27.468301 1.863229
v -2.625000 27.468301 1.863229
v -2.583333 27.468301 1.863229
v -2.541667 27.468301 1.863229
v -2.500000 27.468301 1.863229
v -2.458333 27.468301 1.863229
v -2.416667 27.468301 1.863229
v -2.375000 27.468301 1.863229
v -2.333333 27.468301 1.863229
v -2.291667 27.468301 1.863229
v -2.250000 27.468301 1.863229
v -2.208333 27.468301 1.863229
v -2.166667 27.468301 1.863229
v -2.125000 27.468301 1.863229
v -2.083333 27.468301 1.863229
v -2.041667 27.468301 1.863229
v -2.000000 27.468301 1.863229
v -3.000000 27.679595 2.108331
v -2.958333 27.679595 2.108331
v -2.916667 27.679595 2.108331
v -2.875000 27.679595 2.108331
v -2.833333 27.679595 2.108331
v -2.791667 27.679595 2.108331
v -2.750000 27.679595 2.108331
v -2.708333 27.679595 2.108331
v -2.666667 27.679595 2.108331
v -2.625000 27.679595 2.108331
v -2.583333 27.679595 2.108331
v -2.541667 27.679595 2.108331
v -2.500000 27.679595 2.108331
v -2.458333 27.679595 2.108331
v -2.416667 27.679595 2.108331
v -2.375000 27.679595 2.108331
v -2.333333 27.679595 2.108331
v -2.291667 27.679595 2.108331
v -2.250000 27.679595 2.108331
v -2.208333 27.679595 2.108331
v -2.166667 27.679595 2.108331
v -2.125000 27.679595 2.108331
v -2.083333 27.679595 2.108331
v -2.041667 27.679595 2.108331
v -2.000000 27.679595 2.108331
v -3.000000 27.890890 2.353432
v -2.958333 27.890890 2.353432
v -2.916667 27.890890 2.353432
v -2.875000 27.890890 2.353432
v -2.833333 27.890890 2.353432
v -2.791667 27.890890 2.353432
v -2.750000 27.890890 2.353432
v -2.708333 27.890890 2.353432
v -2.666667 27.890890 2.353432
v -2.625000 27.890890 2.353432
v -2.583333 27.890890 2.353432
v -2.541667 27.890890 2.353432
v -2.500000 27.890890 2.353432
v -2.458333 27.890890 2.353432
v -2.416667 27.890890 2.353432
v -2.375000 27.890890 2.353432
v -2.333333 27.890890 2.353432
v -2.291667 27.890890 2.353432
v -2.250000 27.890890 2.353432
v -2.208333 27.890890 2.353432
v -2.166667 27.890890 2.353432
v -2.125000 27.890890 2.353432
v -2.083333 27.890890 2.353432
v -2.041667 27.890890 2.353432
v -2.000000 27.890890 2.353432
v -3.000000 28.102185 2.598534
v -2.958333 28.102185 2.598534
v -2.916667 28.102185 2.598534
v -2.875000 28.102185 2.598534
v -2.833333 28.102185 2.598534
v -2.791667 28.102185 2.598534
v -2.750000 28.102185 2.598534
v -2.708333 28.102185 2.598534
v -2.666667 28.102185 2.598534
v -2.625000 28.102185 2.598534
v -2.583333 28.102185 2.598534
v -2.541667 28.102185 2.598534
v -2.500000 28.102185 2.598534
v -2.458333 28.102185 2.598534
v -2.416667 28.102185 2.598534
v -2.375000 28.102185 2.598534
v -2.333333 28.102185 2.598534
v -2.291667 28.102185 2.598534
v -2.250000 28.102185 2.598534
v -2.208333 28.102185 2.598534
v -2.166667 28.102185 2.598534
v -2.125000 28.102185 2.598534
v -2.083333 28.102185 2.598534
v -2.041667 28.102185 2.598534
v -2.000000 28.102185 2.598534
v -3.000000 28.313479 2.843636
v -2.958333 28.313479 2.843636
v -2.916667 28.313479 2.843636
v -2.875000 28.313479 2.843636
v -2.833333 28.313479 2.843636
v -2.791667 28.313479 2.843636
v -2.750000 28.313479 2.843636
v -2.708333 28.313479 2.843636
v -2.666667 28.313479 2.843636
v -2.625000 28.313479 2.843636
v -2.583333 28.313479 2.843636
v -2.541667 28.313479 2.843636
v -2.500000 28.313479 2.843636
v -2.458333 28.313479 2.843636
v -2.416667 28.313479 2.843636
v -2.375000 28.313479 2.843636
v -2.333333 28.313479 2.843636
v -2.291667 28.313479 2.843636
v -2.250000 28.313479 2.843636
v -2.208333 28.313479 2.843636
v -2.166667 28.313479 2.843636
v -2.125000 28.313479 2.843636
v -2.083333 28.313479 2.843636
v -2.041667 28.313479 2.843636
v -2.000000 28.313479 2.843636
v -3.000000 28.524774 3.088738
v -2.958333 28.524774 3.088738
v -2.916667 28.524774 3.088738
v -2.875000 28.524774 3.088738
v -2.833333 28.524774 3.088738
v -2.791667 28.524774 3.088738
v -2.750000 28.524774 3.088738
v -2.708333 28.524774 3.088738
v -2.666667 28.524774 3.088738
v -2.625000 28.524774 3.088738
v -2.583333 28.524774 3.088738
v -2.541667 28.524774 3.088738
v -2.500000 28.524774 3.088738
v -2.458333 28.524774 3.088738
v -2.416667 28.524774 3.088738
v -2.375000 28.524774 3.088738
v -2.333333 28.524774 3.088738
v -2.291667 28.524774 3.088738
v -2.250000 28.524774 3.088738
v -2.208333 28.524774 3.088738
v -2.166667 28.524774 3.088738
v -2.125000 28.524774 3.088738
v -2.083333 28.524774 3.088738
v -2.041667 28.524774 3.088738
v -2.000000 28.524774 3.088738
v -3.000000 28.736069 3.333840
v -2.958333 28.736069 3.333840
v -2.916667 28.736069 3.333840
v -2.875000 28.736069 3.333840
v -2.833333 28.736069 3.333840
v -2.791667 28.736069 3.333840
v -2.750000 28.736069 3.333840
v -2.708333 28.736069 3.333840
v -2.666667 28.736069 3.333840
v -2.625000 28.736069 3.333840
v -2.583333 28.736069 3.333840
v -2.541667 28.736069 3.333840
v -2.500000 28.736069 3.333840
v -2.458333 28.736069 3.333840
v -2.416667 28.736069 3.333840
v -2.375000 28.736069 3.333840
v -2.333333 28.736069 3.333840
v -2.291667 28.736069 3.333840
v -2.250000 28.736069 3.333840
v -2.208333 28.736069 3.333840
v -2.166667 28.736069 3.333840
v -2.125000 28.736069 3.333840
v -2.083333 28.736069 3.333840
v -2.041667 28.736069 3.333840
v -2.000000 28.736069 3.333840
v -3.000000 28.947363 3.578941
v -2.958333 28.947363 3.578941
v -2.916667 28.947363 3.578941
v -2.875000 28.947363 3.578941
v -2.833333 28.947363 3.578941
v -2.791667 28.947363 3.578941
v -2.750000 28.947363 3.578941
v -2.708333 28.947363 3.578941
v -2.666667 28.947363 3.578941
v -2.625000 28.947363 3.578941
v -2.583333 28.947363 3.578941
v -2.541667 28.947363 3.578941
v -2.500000 28.947363 3.578941
v -2.458333 28.947363 3.578941
v -2.416667 28.947363 3.578941
v -2.375000 28.947363 3.578941
v -2.333333 28.947363 3.578941
v -2.291667 28.947363 3.578941
v -2.250000 28.947363 3.578941
v -2.208333 28.947363 3.578941
v -2.166667 28.947363 3.578941
v -2.125000 28.947363 3.578941
v -2.083333 28.947363 3.578941
v -2.041667 28.947363 3.578941
v -2.000000 28.947363 3.578941
v -3.000000 29.158658 3.824043
v -2.958333 29.158658 3.824043
v -2.916667 29.158658 3.824043
v -2.875000 29.158658 3.824043
v -2.833333 29.158658 3.824043
v -2.791667 29.158658 3.824043
v -2.750000 29.158658 3.824043
v -2.708333 29.158658 3.824043
v -2.666667 29.158658 3.824043
v -2.625000 29.158658 3.824043
v -2.583333 29.158658 3.824043
v -2.541667 29.158658 3.824043
v -2.500000 29.158658 3.824043
v -2.458333 29.158658 3.824043
v -2.416667 29.158658 3.824043
v -2.375000 29.158658 3.824043
v -2.333333 29.158658 3.824043
v -2.291667 29.158658 3.824043
v -2.250000 29.158658 3.824043
v -2.208333 29.158658 3.824043
v -2.166667 29.158658 3.824043
v -2.125000 29.158658 3.824043
v -2.083333 29.158658 3.824043
v -2.041667 29.158658 3.824043
v -2.000000 29.158658 3.824043
v -3.000000 29.369952 4.069145
v -2.958333 29.369952 4.069145
v -2.916667 29.369952 4.069145
v -2.875000 29.369952 4.069145
v -2.833333 29.369952 4.069145
v -2.791667 29.369952 4.069145
v -2.750000 29.369952 4.069145
v -2.708333 29.369952 4.069145
v -2.666667 29.369952 4.069145
v -2.625000 29.369952 4.069145
v -2.583333 29.369952 4.069145
v -2.541667 29.369952 4.069145
v -2.500000 29.369952 4.069145
v -2.458333 29.369952 4.069145
v -2.416667 29.369952 4.069145
v -2.375000 29.369952 4.069145
v -2.333333 29.369952 4.069145
v -2.291667 29.369952 4.069145
v -2.250000 29.369952 4.069145
v -2.208333 29.369952 4.069145
v -2.166667 29.369952 4.069145
v -2.125000 29.369952 4.069145
v -2.083333 29.369952 4.069145
v -2.041667 29.369952 4.069145
v -2.000000 29.369952 4.069145
v -3.000000 29.581247 4.314247
v -2.958333 29.581247 4.314247
v -2.916667 29.581247 4.314247
v -2.875000 29.581247 4.314247
v -2.833333 29.581247 4.314247
v -2.791667 29.581247 4.314247
v -2.750000 29.581247 4.314247
v -2.708333 29.581247 4.314247
v -2.666667 29.581247 4.314247
v -2.625000 29.581247 4.314247
v -2.583333 29.581247 4.314247
v -2.541667 29.581247 4.314247
v -2.500000 29.581247 4.314247
v -2.458333 29.581247 4.314247
v -2.416667 29.581247 4.314247
v -2.375000 29.581247 4.314247
v -2.333333 29.581247 4.314247
v -2.291667 29.581247 4.314247
v -2.250000 29.581247 4.314247
v -2.208333 29.581247 4.314247
v -2.166667 29.581247 4.314247
v -2.125000 29.581247 4.314247
v -2.083333 29.581247 4.314247
v -2.041667 29.581247 4.314247
v -2.000000 29.581247 4.314247
v -3.000000 29.792542 4.559348
v -2.958333 29.792542 4.559348
v -2.916667 29.792542 4.559348
v -2.875000 29.792542 4.559348
v -2.833333 29.792542 4.559348
v -2.791667 29.792542 4.559348
v -2.750000 29.792542 4.559348
v -2.708333 29.792542 4.559348
v -2.666667 29.792542 4.559348
v -2.625000 29.792542 4.559348
v -2.583333 29.792542 4.559348
v -2.541667 29.792542 4.559348
v -2.500000 29.792542 4.559348
v -2.458333 29.792542 4.559348
v -2.416667 29.792542 4.559348
v -2.375000 29.792542 4.559348
v -2.333333 29.792542 4.559348
v -2.291667 29.792542 4.559348
v -2.250000 29.792542 4.559348
v -2.208333 29.792542 4.559348
v -2.166667 29.792542 4.559348
v -2.125000 29.792542 4.559348
v -2.083333 29.792542 4.559348
v -2.041667 29.792542 4.559348
v -2.000000 29.792542 4.559348
v -3.000000 30.003836 4.804450
v -2.958333 30.003836 4.804450
v -2.916667 30.003836 4.804450
v -2.875000 30.003836 4.804450
v -2.833333 30.003836 4.804450
v -2.791667 30.003836 4.804450
v -2.750000 30.003836 4.804450
v -2.708333 30.003836 4.804450
v -2.666667 30.003836 4.804450
v -2.625000 30.003836 4.804450
v -2.583333 30.003836 4.804450
v -2.541667 30.003836 4.804450
v -2.500000 30.003836 4.804450
v -2.458333 30.003836 4.804450
v -2.416667 30.003836 4.804450
v -2.375000 30.003836 4.804450
v -2.333333 30.003836 4.804450
v -2.291667 30.003836 4.804450
v -2.250000 30.003836 4.804450
v -2.208333 30.003836 4.804450
v -2.166667 30.003836 4.804450
v -2.125000 30.003836 4.804450
v -2.083333 30.003836 4.804450
v -2.041667 30.003836 4.804450
v -2.000000 30.003836 4.804450
v -3.000000 30.215131 5.049552
v -2.958333 30.215131 5.049552
v -2.916667 30.215131 5.049552
v -2.875000 30.215131 5.049552
v -2.833333 30.215131 5.049552
v -2.791667 30.215131 5.049552
v -2.750000 30.215131 5.049552
v -2.708333 30.215131 5.049552
v -2.666667 30.215131 5.049552
v -2.625000 30.215131 5.049552
v -2.583333 30.215131 5.049552
v -2.541667 30.215131 5.049552
v -2.500000 30.215131 5.049552
v -2.458333 30.215131 5.049552
v -2.416667 30.215131 5.049552
v -2.375000 30.215131 5.049552
v -2.333333 30.215131 5.049552
v -2.291667 30.215131 5.049552
v -2.250000 30.215131 5.049552
v -2.208333 30.215131 5.049552
v -2.166667 30.215131 5.049552
v -2.125000 30.215131 5.049552
v -2.083333 30.215131 5.049552
v -2.041667 30.215131 5.049552
v -2.000000 30.215131 5.049552
v -3.000000 30.426426 5.294654
v -2.958333 30.426426 5.294654
v -2.916667 30.426426 5.294654
v -2.875000 30.426426 5.294654
v -2.833333 30.426426 5.294654
v -2.791667 30.426426 5.294654
v -2.750000 30.426426 5.294654
v -2.708333 30.426426 5.294654
v -2.666667 30.426426 5.294654
v -2.625000 30.426426 5.294654
v -2.583333 30.426426 5.294654
v -2.541667 30.426426 5.294654
v -2.500000 30.426426 5.294654
v -2.458333 30.426426 5.294654
v -2.416667 30.426426 5.294654
v -2.375000 30.426426 5.294654
v -2.333333 30.426426 5.294654
v -2.291667 30.426426 5.294654
v -2.250000 30.426426 5.294654
v -2.208333 30.426426 5.294654
v -2.166667 30.426426 5.294654
v -2.125000 30.426426 5.294654
v -2.083333 30.426426 5.294654
v -2.041667 30.426426 5.294654
v -2.000000 30.426426 5.294654
v -3.000000 30.637720 5.539755
v -2.958333 30.637720 5.539755
v -2.916667 30.637720 5.539755
v -2.875000 30.637720 5.539755
v -2.833333 30.637720 5.539755
v -2.791667 30.637720 5.539755
v -2.750000 30.637720 5.539755
v -2.708333 30.637720 5.539755
v -2.666667 30.637720 5.539755
v -2.625000 30.637720 5.539755
v -2.583333 30.637720 5.539755
v -2.541667 30.637720 5.539755
v -2.500000 30.637720 5.539755
v -2.458333 30.637720 5.539755
v -2.416667 30.637720 5.539755
v -2.375000 30.637720 5.539755
v -2.333333 30.637720 5.539755
v -2.291667 30.637720 5.539755
v -2.250000 30.637720 5.539755
v -2.208333 30.637720 5.539755
v -2.166667 30.637720 5.539755
v -2.125000 30.637720 5.539755
v -2.083333 30.637720 5.539755
v -2.041667 30.637720 5.539755
v -2.000000 30.637720 5.539755
v -3.000000 30.849015 5.784857
v -2.958333 30.849015 5.784857
v -2.916667 30.849015 5.784857
v -2.875000 30.849015 5.784857
v -2.833333 30.849015 5.784857
v -2.791667 30.849015 5.784857
v -2.750000 30.849015 5.784857
v -2.708333 30.849015 5.784857
v -2.666667 30.849015 5.784857
v -2.625000 30.849015 5.784857
v -2.583333 30.849015 5.784857
v -2.541667 30.849015 5.784857
v -2.500000 30.849015 5.784857
v -2.458333 30.849015 5.784857
v -2.416667 30.849015 5.784857
v -2.375000 30.849015 5.784857
v -2.333333 30.849015 5.784857
v -2.291667 30.849015 5.784857
v -2.250000 30.849015 5.784857
v -2.208333 30.849015 5.784857
v -2.166667 30.849015 5.784857
v -2.125000 30.849015 5.784857
v -2.083333 30.849015 5.784857
v -2.041667 30.849015 5.784857
v -2.000000 30.849015 5.784857
v -3.000000 31.060309 6.029959
v -2.958333 31.060309 6.029959
v -2.916667 31.060309 6.029959
v -2.875000 31.060309 6.029959
v -2.833333 31.060309 6.029959
v -2.791667 31.060309 6.029959
v -2.750000 31.060309 6.029959
v -2.708333 31.060309 6.029959
v -2.666667 31.060309 6.029959
v -2.625000 31.060309 6.029959
v -2.583333 31.060309 6.029959
v -2.541667 31.060309 6.029959
v -2.500000 31.060309 6.029959
v -2.458333 31.060309 6.029959
v -2.416667 31.060309 6.029959
v -2.375000 31.060309 6.029959
v -2.333333 31.060309 6.029959
v -2.291667 31.060309 6.029959
v -2.250000 31.060309 6.029959
v -2.208333 31.060309 6.029959
v -2.166667 31.060309 6.029959
v -2.125000 31.060309 6.029959
v -2.083333 31.060309 6.029959
v -2.041667 31.060309 6.029959
v -2.000000 31.060309 6.029959
v -3.000000 31.271604 6.275061
v -2.958333 31.271604 6.275061
v -2.916667 31.271604 6.275061
v -2.875000 31.271604 6.275061
v -2.833333 31.271604 6.275061
v -2.791667 31.271604 6.275061
v -2.750000 31.271604 6.275061
v -2.708333 31.271604 6.275061
v -2.666667 31.271604 6.275061
v -2.625000 31.271604 6.275061
v -2.583333 31.271604 6.275061
v -2.541667 31.271604 6.275061
v -2.500000 31.271604 6.275061
v -2.458333 31.271604 6.275061
v -2.416667 31.271604 6.275061
v -2.375000 31.271604 6.275061
v -2.333333 31.271604 6.275061
v -2.291667 31.271604 6.275061
v -2.250000 31.271604 6.275061
v -2.208333 31.271604 6.275061
v -2.166667 31.271604 6.275061
v -2.125000 31.271604 6.275061
v -2.083333 31.271604 6.275061
v -2.041667 31.271604 6.275061
v -2.000000 31.271604 6.275061
v -3.000000 31.482899 6.520162
v -2.958333 31.482899 6.520162
v -2.916667 31.482899 6.520162
v -2.875000 31.482899 6.520162
v -2.833333 31.482899 6.520162
v -2.791667 31.482899 6.520162
v -2.750000 31.482899 6.520162
v -2.708333 31.482899 6.520162
v -2.666667 31.482899 6.520162
v -2.625000 31.482899 6.520162
v -2.583333 31.482899 6.520162
v -2.541667 31.482899 6.520162
v -2.500000 31.482899 6.520162
v -2.458333 31.482899 6.520162
v -2.416667 31.482899 6.520162
v -2.375000 31.482899 6.520162
v -2.333333 31.482899 6.520162
v -2.291667 31.482899 6.520162
v -2.250000 31.482899 6.520162
v -2.208333 31.482899 6.520162
v -2.166667 31.482899 6.520162
v -2.125000 31.482899 6.520162
v -2.083333 31.482899 6.520162
v -2.041667 31.482899 6.520162
v -2.000000 31.482899 6.520162
v -3.000000 31.694193 6.765264
v -2.958333 31.694193 6.765264
v -2.916667 31.694193 6.765264
v -2.875000 31.694193 6.765264
v -2.833333 31.694193 6.765264
v -2.791667 31.694193 6.765264
v -2.750000 31.694193 6.765264
v -2.708333 31.694193 6.765264
v -2.666667 31.694193 6.765264
v -2.625000 31.694193 6.765264
v -2.583333 31.694193 6.765264
v -2.541667 31.694193 6.765264
v -2.500000 31.694193 6.765264
v -2.458333 31.694193 6.765264
v -2.416667 31.694193 6.765264
v -2.375000 31.694193 6.765264
v -2.333333 31.694193 6.765264
v -2.291667 31.694193 6.765264
v -2.250000 31.694193 6.765264
v -2.208333 31.694193 6.765264
v -2.166667 31.694193 6.765264
v -2.125000 31.694193 6.765264
v -2.083333 31.694193 6.765264
v -2.041667 31.694193 6.765264
v -2.000000 31.694193 6.765264
f 2 3 28
f 2 28 27
f 3 4 29
f 3 29 28
f 4 5 30
f 4 30 29
f 5 6 31
f 5 31 30
f 6 7 32
f 6 32 31
f 7 8 33
f 7 33 32
f 8 9 34
f 8 34 33
f 9 10 35
f 9 35 34
f 10 11 36
f 10 36 35
f 11 12 37
f 11 37 36
f 12 13 38
f 12 38 37
f 13 14 39
f 13 39 38
f 14 15 40
f 14 40 39
f 15 16 41
f 15 41 40
f 16 17 42
f 16 42 41
f 17 18 43
f 17 43 42
f 18 19 44
f 18 44 43
f 19 20 45
f 19 45 44
f 20 21 46
f 20 46 45
f 21 22 47
f 21 47 46
f 22 23 48
f 22 48 47
f 23 24 49
f 23 49 48
f 27 28 53
f 27 53 52
f 28 29 54
f 28 54 53
f 29 30 55
f 29 55 54
f 30 31 56
f 30 56 55
f 31 32 57
f 31 57 56
f 32 33 58
f 32 58 57
f 33 34 59
f 33 59 58
f 34 35 60
f 34 60 59
f 35 36 61
f 35 61 60
f 36 37 62
f 36 62 61
f 37 38 63
f 37 63 62
f 38 39 64
f 38 64 63
f 39 40 65
f 39 65 64
f 40 41 66
f 40 66 65
f 41 42 67
f 41 67 66
f 42 43 68
f 42 68 67
f 43 44 69
f 43 69 68
f 44 45 70
f 44 70 69
f 45 46 71
f 45 71 70
f 46 47 72
f 46 72 71
f 47 48 73
f 47 73 72
f 48 49 74
f 48 74 73
f 52 53 78
f 52 78 77
f 53 54 79
f 53 79 78
f 54 55 80
f 54 80 79
f 55 56 81
f 55 81 80
f 56 57 82
f 56 82 81
f 57 58 83
f 57 83 82
f 58 59 84
f 58 84 83
f 59 60 85
f 59 85 84
f 60 61 86
f 60 86 85
f 61 62 87
f 61 87 86
f 62 63 88
f 62 88 87
f 63 64 89
f 63 89 88
f 64 65 90
f 64 90 89
f 65 66 91
f 65 91 90
f 66 67 92
f 66 92 91
f 67 68 93
f 67 93 92
f 68 69 94
f 68 94 93
f 69 70 95
f 69 95 94
f 70 71 96
f 70 96 95
f 71 72 97
f 71 97 96
f 72 73 98
f 72 98 97
f 73 74 99
f 73 99 98
f 77 78 103
f 77 103 102
f 78 79 104
f 78 104 103
f 79 80 105
f 79 105 104
f 80 81 106
f 80 106 105
f 81 82 107
f 81 107 106
f 82 83 108
f 82 108 107
f 83 84 109
f 83 109 108
f 84 85 110
f 84 110 109
f 85 86 111
f 85 111 110
f 86 87 112
f 86 112 111
f 87 88 113
f 87 113 112
f 88 89 114
f 88 114 113
f 89 90 115
f 89 115 114
f 90 91 116
f 90 116 115
f 91 92 117
f 91 117 116
f 92 93 118
f 92 118 117
f 93 94 119
f 93 119 118
f 94 95 120
f 94 120 119
f 95 96 121
f 95 121 120
f 96 97 122
f 96 122 121
f 97 98 123
f 97 123 122
f 98 99 124
f 98 124 123
f 102 103 128
f 102 128 127
f 103 104 129
f 103 129 128
f 104 105 130
f 104 130 129
f 105 106 131
f 105 131 130
f 106 107 132
f 106 132 131
f 107 108 133
f 107 133 132
f 108 109 134
f 108 134 133
f 109 110 135
f 109 135 134
f 110 111 136
f 110 136 135
f 111 112 137
f 111 137 136
f 112 113 138
f 112 138 137
f 113 114 139
f 113 139 138
f 114 115 140
f 114 140 139
f 115 116 141
f 115 141 140
f 116 117 142
f 116 142 141
f 117 118 143
f 117 143 142
f 118 119 144
f 118 144 143
f 119 120 145
f 119 145 144
f 120 121 146
f 120 146 145
f 121 122 147
f 121 147 146
f 122 123 148
f 122 148 147
f 123 124 149
f 123 149 148
f 127 128 153
f 127 153 152
f 128 129 154
f 128 154 153
f 129 130 155
f 129 155 154
f 130 131 156
f 130 156 155
f 131 132 157
f 131 157 156
f 132 133 158
f 132 158 157
f 133 134 159
f 133 159 158
f 134 135 160
f 134 160 159
f 135 136 161
f 135 161 160
f 136 137 162
f 136 162 161
f 137 138 163
f 137 163 162
f 138 139 164
f 138 164 163
f 139 140 165
f 139 165 164
f 140 141 166
f 140 166 165
f 141 142 167
f 141 167 166
f 142 143 168
f 142 168 167
f 143 144 169
f 143 169 168
f 144 145 170
f 144 170 169
f 145 146 171
f 145 171 170
f 146 147 172
f 146 172 171
f 147 148 173
f 147 173 172
f 148 149 174
f 148 174 173
f 152 153 178
f 152 178 177
f 153 154 179
f 153 179 178
f 154 155 180
f 154 180 179
f 155 156 181
f 155 181 180
f 156 157 182
f 156 182 181
f 157 158 183
f 157 183 182
f 158 159 184
f 158 184 183
f 159 160 185
f 159 185 184
f 160 161 186
f 160 186 185
f 161 162 187
f 161 187 186
f 162 163 188
f 162 188 187
f 163 164 189
f 163 189 188
f 164 165 190
f 164 190 189
f 165 166 191
f 165 191 190
f 166 167 192
f 166 192 191
f 167 168 193
f 167 193 192
f 168 169 194
f 168 194 193
f 169 170 195
f 169 195 194
f 170 171 196
f 170 196 195
f 171 172 197
f 171 197 196
f 172 173 198
f 172 198 197
f 173 174 199
f 173 199 198
f 177 178 203
f 177 203 202
f 178 179 204
f 178 204 203
f 179 180 205
f 179 205 204
f 180 181 206
f 180 206 205
f 181 182 207
f 181 207 206
f 182 183 208
f 182 208 207
f 183 184 209
f 183 209 208
f 184 185 210
f 184 210 209
f 185 186 211
f 185 211 210
f 186 187 212
f 186 212 211
f 187 188 213
f 187 213 212
f 188 189 214
f 188 214 213
f 189 190 215
f 189 215 214
f 190 191 216
f 190 216 215
f 191 192 217
f 191 217 216
f 192 193 218
f 192 218 217
f 193 194 219
f 193 219 218
f 194 195 220
f 194 220 219
f 195 196 221
f 195 221 220
f 196 197 222
f 196 222 221
f 197 198 223
f 197 223 222
f 198 199 224
f 198 224 223
f 202 203 228
f 202 228 227
f 203 204 229
f 203 229 228
f 204 205 230
f 204 230 229
f 205 206 231
f 205 231 230
f 206 207 232
f 206 232 231
f 207 208 233
f 207 233 232
f 208 209 234
f 208 234 233
f 209 210 235
f 209 235 234
f 210 211 236
f 210 236 235
f 211 212 237
f 211 237 236
f 212 213 238
f 212 238 237
f 213 214 239
f 213 239 238
f 214 215 240
f 214 240 239
f 215 216 241
f 215 241 240
f 216 217 242
f 216 242 241
f 217 218 243
f 217 243 242
f 218 219 244
f 218 244 243
f 219 220 245
f 219 245 244
f 220 221 246
f 220 246 245
f 221 222 247
f 221 247 246
f 222 223 248
f 222 248 247
f 223 224 249
f 223 249 248
f 227 228 253
f 227 253 252
f 228 229 254
f 228 254 253
f 229 230 255
f 229 255 254
f 230 231 256
f 230 256 255
f 231 232 257
f 231 257 256
f 232 233 258
f 232 258 257
f 233 234 259
f 233 259 258
f 234 235 260
f 234 260 259
f 235 236 261
f 235 261 260
f 236 237 262
f 236 262 261
f 237 238 263
f 237 263 262
f 238 239 264
f 238 264 263
f 239 240 265
f 239 265 264
f 240 241 266
f 240 266 265
f 241 242 267
f 241 267 266
f 242 243 268
f 242 268 267
f 243 244 269
f 243 269 268
f 244 245 270
f 244 270 269
f 245 246 271
f 245 271 270
f 246 247 272
f 246 272 271
f 247 248 273
f 247 273 272
f 248 249 274
f 248 274 273
