o JSONreference_301
v 2.000000 -73.530528 -8.295793
v 2.041667 -73.530528 -8.295793
v 2.083333 -73.530528 -8.295793
v 2.125000 -73.530528 -8.295793
v 2.166667 -73.530528 -8.295793
v 2.208333 -73.530528 -8.295793
v 2.250000 -73.530528 -8.295793
v 2.291667 -73.530528 -8.295793
v 2.333333 -73.530528 -8.295793
v 2.375000 -73.530528 -8.295793
v 2.416667 -73.530528 -8.295793
v 2.458333 -73.530528 -8.295793
v 2.500000 -73.530528 -8.295793
v 2.541667 -73.530528 -8.295793
v 2.583333 -73.530528 -8.295793
v 2.625000 -73.530528 -8.295793
v 2.666667 -73.530528 -8.295793
v 2.708333 -73.530528 -8.295793
v 2.750000 -73.530528 -8.295793
v 2.791667 -73.530528 -8.295793
v 2.833333 -73.530528 -8.295793
v 2.875000 -73.530528 -8.295793
v 2.916667 -73.530528 -8.295793
v 2.958333 -73.530528 -8.295793
v 3.000000 -73.530528 -8.295793
v 2.000000 -72.949468 -7.424202
v 2.041667 -72.949468 -7.424202
v 2.083333 -72.949468 -7.424202
v 2.125000 -72.949468 -7.424202
v 2.166667 -72.949468 -7.424202
v 2.208333 -72.949468 -7.424202
v 2.250000 -72.949468 -7.424202
v 2.291667 -72.949468 -7.424202
v 2.333333 -72.949468 -7.424202
v 2.375000 -72.949468 -7.424202
v 2.416667 -72.949468 -7.424202
v 2.458333 -72.949468 -7.424202
v 2.500000 -72.949468 -7.424202
v 2.541667 -72.949468 -7.424202
v 2.583333 -72.949468 -7.424202
v 2.625000 -72.949468 -7.424202
v 2.666667 -72.949468 -7.424202
v 2.708333 -72.949468 -7.424202
v 2.750000 -72.949468 -7.424202
v 2.791667 -72.949468 -7.424202
v 2.833333 -72.949468 -7.424202
v 2.875000 -72.949468 -7.424202
v 2.916667 -72.949468 -7.424202
v 2.958333 -72.949468 -7.424202
v 3.000000 -72.949468 -7.424202
v 2.000000 -72.368408 -6.552612
v 2.041667 -72.368408 -6.552612
v 2.083333 -72.368408 -6.552612
v 2.125000 -72.368408 -6.552612
v 2.166667 -72.368408 -6.552612
v 2.208333 -72.368408 -6.552612
v 2.250000 -72.368408 -6.552612
v 2.291667 -72.368408 -6.552612
v 2.333333 -72.368408 -6.552612
v 2.375000 -72.368408 -6.552612
v 2.416667 -72.368408 -6.552612
v 2.458333 -72.368408 -6.552612
v 2.500000 -72.368408 -6.552612
v 2.541667 -72.368408 -6.552612
v 2.583333 -72.368408 -6.552612
v 2.625000 -72.368408 -6.552612
v 2.666667 -72.368408 -6.552612
v 2.708333 -72.368408 -6.552612
v 2.750000 -72.368408 -6.552612
v 2.791667 -72.368408 -6.552612
v 2.833333 -72.368408 -6.552612
v 2.875000 -72.368408 -6.552612
v 2.916667 -72.368408 -6.552612
v 2.958333 -72.368408 -6.552612
v 3.000000 -72.368408 -6.552612
v 2.000000 -71.787348 -5.681022
v 2.041667 -71.787348 -5.681022
v 2.083333 -71.787348 -5.681022
v 2.125000 -71.787348 -5.681022
v 2.166667 -71.787348 -5.681022
v 2.208333 -71.787348 -5.681022
v 2.250000 -71.787348 -5.681022
v 2.291667 -71.787348 -5.681022
v 2.333333 -71.787348 -5.681022
v 2.375000 -71.787348 -5.681022
v 2.416667 -71.787348 -5.681022
v 2.458333 -71.787348 -5.681022
v 2.500000 -71.787348 -5.681022
v 2.541667 -71.787348 -5.681022
v 2.583333 -71.787348 -5.681022
v 2.625000 -71.787348 -5.681022
v 2.666667 -71.787348 -5.681022
v 2.708333 -71.787348 -5.681022
v 2.750000 -71.787348 -5.681022
v 2.791667 -71.787348 -5.681022
v 2.833333 -71.787348 -5.681022
v 2.875000 -71.787348 -5.681022
v 2.916667 -71.787348 -5.681022
v 2.958333 -71.787348 -5.681022
v 3.000000 -71.787348 -5.681022
v 2.000000 -71.206288 -4.809431
v 2.041667 -71.206288 -4.809431
v 2.083333 -71.206288 -4.809431
v 2.125000 -71.206288 -4.809431
v 2.166667 -71.206288 -4.809431
v 2.208333 -71.206288 -4.809431
v 2.250000 -71.206288 -4.809431
v 2.291667 -71.206288 -4.809431
v 2.333333 -71.206288 -4.809431
v 2.375000 -71.206288 -4.809431
v 2.416667 -71.206288 -4.809431
v 2.458333 -71.206288 -4.809431
v 2.500000 -71.206288 -4.809431
v 2.541667 -71.206288 -4.809431
v 2.583333 -71.206288 -4.809431
v 2.625000 -71.206288 -4.809431
v 2.666667 -71.206288 -4.809431
v 2.708333 -71.206288 -4.809431
v 2.750000 -71.206288 -4.809431
v 2.791667 -71.206288 -4.809431
v 2.833333 -71.206288 -4.809431
v 2.875000 -71.206288 -4.809431
v 2.916667 -71.206288 -4.809431
v 2.958333 -71.206288 -4.809431
v 3.000000 -71.206288 -4.809431
v 2.000000 -70.625227 -3.937841
v 2.041667 -70.625227 -3.937841
v 2.083333 -70.625227 -3.937841
v 2.125000 -70.625227 -3.937841
v 2.166667 -70.625227 -3.937841
v 2.208333 -70.625227 -3.937841
v 2.250000 -70.625227 -3.937841
v 2.291667 -70.625227 -3.937841
v 2.333333 -70.625227 -3.937841
v 2.375000 -70.625227 -3.937841
v 2.416667 -70.625227 -3.937841
v 2.458333 -70.625227 -3.937841
v 2.500000 -70.625227 -3.937841
v 2.541667 -70.625227 -3.937841
v 2.583333 -70.625227 -3.937841
v 2.625000 -70.625227 -3.937841
v 2.666667 -70.625227 -3.937841
v 2.708333 -70.625227 -3.937841
v 2.750000 -70.625227 -3.937841
v 2.791667 -70.625227 -3.937841
v 2.833333 -70.625227 -3.937841
v 2.875000 -70.625227 -3.937841
v 2.916667 -70.625227 -3.937841
v 2.958333 -70.625227 -3.937841
v 3.000000 -70.625227 -3.937841
v 2.000000 -70.044167 -3.066251
v 2.041667 -70.044167 -3.066251
v 2.083333 -70.044167 -3.066251
v 2.125000 -70.044167 -3.066251
v 2.166667 -70.044167 -3.066251
v 2.208333 -70.044167 -3.066251
v 2.250000 -70.044167 -3.066251
v 2.291667 -70.044167 -3.066251
v 2.333333 -70.044167 -3.066251
v 2.375000 -70.044167 -3.066251
v 2.416667 -70.044167 -3.066251
v 2.458333 -70.044167 -3.066251
v 2.500000 -70.044167 -3.066251
v 2.541667 -70.044167 -3.066251
v 2.583333 -70.044167 -3.066251
v 2.625000 -70.044167 -3.066251
v 2.666667 -70.044167 -3.066251
v 2.708333 -70.044167 -3.066251
v 2.750000 -70.044167 -3.066251
v 2.791667 -70.044167 -3.066251
v 2.833333 -70.044167 -3.066251
v 2.875000 -70.044167 -3.066251
v 2.916667 -70.044167 -3.066251
v 2.958333 -70.044167 -3.066251
v 3.000000 -70.044167 -3.066251
v 2.000000 -69.463107 -2.194660
v 2.041667 -69.463107 -2.194660
v 2.083333 -69.463107 -2.194660
v 2.125000 -69.463107 -2.194660
v 2.166667 -69.463107 -2.194660
v 2.208333 -69.463107 -2.194660
v 2.250000 -69.463107 -2.194660
v 2.291667 -69.463107 -2.194660
v 2.333333 -69.463107 -2.194660
v 2.375000 -69.463107 -2.194660
v 2.416667 -69.463107 -2.194660
v 2.458333 -69.463107 -2.194660
v 2.500000 -69.463107 -2.194660
v 2.541667 -69.463107 -2.194660
v 2.583333 -69.463107 -2.194660
v 2.625000 -69.463107 -2.194660
v 2.666667 -69.463107 -2.194660
v 2.708333 -69.463107 -2.194660
v 2.750000 -69.463107 -2.194660
v 2.791667 -69.463107 -2.194660
v 2.833333 -69.463107 -2.194660
v 2.875000 -69.463107 -2.194660
v 2.916667 -69.463107 -2.194660
v 2.958333 -69.463107 -2.194660
v 3.000000 -69.463107 -2.194660
v 2.000000 -68.882047 -1.323070
v 2.041667 -68.882047 -1.323070
v 2.083333 -68.882047 -1.323070
v 2.125000 -68.882047 -1.323070
v 2.166667 -68.882047 -1.323070
v 2.208333 -68.882047 -1.323070
v 2.250000 -68.882047 -1.323070
v 2.291667 -68.882047 -1.323070
v 2.333333 -68.882047 -1.323070
v 2.375000 -68.882047 -1.323070
v 2.416667 -68.882047 -1.323070
v 2.458333 -68.882047 -1.323070
v 2.500000 -68.882047 -1.323070
v 2.541667 -68.882047 -1.323070
v 2.583333 -68.882047 -1.323070
v 2.625000 -68.882047 -1.323070
v 2.666667 -68.882047 -1.323070
v 2.708333 -68.882047 -1.323070
v 2.750000 -68.882047 -1.323070
v 2.791667 -68.882047 -1.323070
v 2.833333 -68.882047 -1.323070
v 2.875000 -68.882047 -1.323070
v 2.916667 -68.882047 -1.323070
v 2.958333 -68.882047 -1.323070
v 3.000000 -68.882047 -1.323070
v 2.000000 -68.300986 -0.451480
v 2.041667 -68.300986 -0.451480
v 2.083333 -68.300986 -0.451480
v 2.125000 -68.300986 -0.451480
v 2.166667 -68.300986 -0.451480
v 2.208333 -68.300986 -0.451480
v 2.250000 -68.300986 -0.451480
v 2.291667 -68.300986 -0.451480
v 2.333333 -68.300986 -0.451480
v 2.375000 -68.300986 -0.451480
v 2.416667 -68.300986 -0.451480
v 2.458333 -68.300986 -0.451480
v 2.500000 -68.300986 -0.451480
v 2.541667 -68.300986 -0.451480
v 2.583333 -68.300986 -0.451480
v 2.625000 -68.300986 -0.451480
v 2.666667 -68.300986 -0.451480
v 2.708333 -68.300986 -0.451480
v 2.750000 -68.300986 -0.451480
v 2.791667 -68.300986 -0.451480
v 2.833333 -68.300986 -0.451480
v 2.875000 -68.300986 -0.451480
v 2.916667 -68.300986 -0.451480
v 2.958333 -68.300986 -0.451480
v 3.000000 -68.300986 -0.451480
v 2.000000 -67.719926 0.420111
v 2.041667 -67.719926 0.420111
v 2.083333 -67.719926 0.420111
v 2.125000 -67.719926 0.420111
v 2.166667 -67.719926 0.420111
v 2.208333 -67.719926 0.420111
v 2.250000 -67.719926 0.420111
v 2.291667 -67.719926 0.420111
v 2.333333 -67.719926 0.420111
v 2.375000 -67.719926 0.420111
v 2.416667 -67.719926 0.420111
v 2.458333 -67.719926 0.420111
v 2.500000 -67.719926 0.420111
v 2.541667 -67.719926 0.420111
v 2.583333 -67.719926 0.420111
v 2.625000 -67.719926 0.420111
v 2.666667 -67.719926 0.420111
v 2.708333 -67.719926 0.420111
v 2.750000 -67.719926 0.420111
v 2.791667 -67.719926 0.420111
v 2.833333 -67.719926 0.420111
v 2.875000 -67.719926 0.420111
v 2.916667 -67.719926 0.420111
v 2.958333 -67.719926 0.420111
v 3.000000 -67.719926 0.420111
v 2.000000 -67.138866 1.291701
v 2.041667 -67.138866 1.291701
v 2.083333 -67.138866 1.291701
v 2.125000 -67.138866 1.291701
v 2.166667 -67.138866 1.291701
v 2.208333 -67.138866 1.291701
v 2.250000 -67.138866 1.291701
v 2.291667 -67.138866 1.291701
v 2.333333 -67.138866 1.291701
v 2.375000 -67.138866 1.291701
v 2.416667 -67.138866 1.291701
v 2.458333 -67.138866 1.291701
v 2.500000 -67.138866 1.291701
v 2.541667 -67.138866 1.291701
v 2.583333 -67.138866 1.291701
v 2.625000 -67.138866 1.291701
v 2.666667 -67.138866 1.291701
v 2.708333 -67.138866 1.291701
v 2.750000 -67.138866 1.291701
v 2.791667 -67.138866 1.291701
v 2.833333 -67.138866 1.291701
v 2.875000 -67.138866 1.291701
v 2.916667 -67.138866 1.291701
v 2.958333 -67.138866 1.291701
v 3.000000 -67.138866 1.291701
v 2.000000 -66.557806 2.163291
v 2.041667 -66.557806 2.163291
v 2.083333 -66.557806 2.163291
v 2.125000 -66.557806 2.163291
v 2.166667 -66.557806 2.163291
v 2.208333 -66.557806 2.163291
v 2.250000 -66.557806 2.163291
v 2.291667 -66.557806 2.163291
v 2.333333 -66.557806 2.163291
v 2.375000 -66.557806 2.163291
v 2.416667 -66.557806 2.163291
v 2.458333 -66.557806 2.163291
v 2.500000 -66.557806 2.163291
v 2.541667 -66.557806 2.163291
v 2.583333 -66.557806 2.163291
v 2.625000 -66.557806 2.163291
v 2.666667 -66.557806 2.163291
v 2.708333 -66.557806 2.163291
v 2.750000 -66.557806 2.163291
v 2.791667 -66.557806 2.163291
v 2.833333 -66.557806 2.163291
v 2.875000 -66.557806 2.163291
v 2.916667 -66.557806 2.163291
v 2.958333 -66.557806 2.163291
v 3.000000 -66.557806 2.163291
v 2.000000 -65.976746 3.034882
v 2.041667 -65.976746 3.034882
v 2.083333 -65.976746 3.034882
v 2.125000 -65.976746 3.034882
v 2.166667 -65.976746 3.034882
v 2.208333 -65.976746 3.034882
v 2.250000 -65.976746 3.034882
v 2.291667 -65.976746 3.034882
v 2.333333 -65.976746 3.034882
v 2.375000 -65.976746 3.034882
v 2.416667 -65.976746 3.034882
v 2.458333 -65.976746 3.034882
v 2.500000 -65.976746 3.034882
v 2.541667 -65.976746 3.034882
v 2.583333 -65.976746 3.034882
v 2.625000 -65.976746 3.034882
v 2.666667 -65.976746 3.034882
v 2.708333 -65.976746 3.034882
v 2.750000 -65.976746 3.034882
v 2.791667 -65.976746 3.034882
v 2.833333 -65.976746 3.034882
v 2.875000 -65.976746 3.034882
v 2.916667 -65.976746 3.034882
v 2.958333 -65.976746 3.034882
v 3.000000 -65.976746 3.034882
v 2.000000 -65.395685 3.906472
v 2.041667 -65.395685 3.906472
v 2.083333 -65.395685 3.906472
v 2.125000 -65.395685 3.906472
v 2.166667 -65.395685 3.906472
v 2.208333 -65.395685 3.906472
v 2.250000 -65.395685 3.906472
v 2.291667 -65.395685 3.906472
v 2.333333 -65.395685 3.906472
v 2.375000 -65.395685 3.906472
v 2.416667 -65.395685 3.906472
v 2.458333 -65.395685 3.906472
v 2.500000 -65.395685 3.906472
v 2.541667 -65.395685 3.906472
v 2.583333 -65.395685 3.906472
v 2.625000 -65.395685 3.906472
v 2.666667 -65.395685 3.906472
v 2.708333 -65.395685 3.906472
v 2.750000 -65.395685 3.906472
v 2.791667 -65.395685 3.906472
v 2.833333 -65.395685 3.906472
v 2.875000 -65.395685 3.906472
v 2.916667 -65.395685 3.906472
v 2.958333 -65.395685 3.906472
v 3.000000 -65.395685 3.906472
v 2.000000 -64.814625 4.778062
v 2.041667 -64.814625 4.778062
v 2.083333 -64.814625 4.778062
v 2.125000 -64.814625 4.778062
v 2.166667 -64.814625 4.778062
v 2.208333 -64.814625 4.778062
v 2.250000 -64.814625 4.778062
v 2.291667 -64.814625 4.778062
v 2.333333 -64.814625 4.778062
v 2.375000 -64.814625 4.778062
v 2.416667 -64.814625 4.778062
v 2.458333 -64.814625 4.778062
v 2.500000 -64.814625 4.778062
v 2.541667 -64.814625 4.778062
v 2.583333 -64.814625 4.778062
v 2.625000 -64.814625 4.778062
v 2.666667 -64.814625 4.778062
v 2.708333 -64.814625 4.778062
v 2.750000 -64.814625 4.778062
v 2.791667 -64.814625 4.778062
v 2.833333 -64.814625 4.778062
v 2.875000 -64.814625 4.778062
v 2.916667 -64.814625 4.778062
v 2.958333 -64.814625 4.778062
v 3.000000 -64.814625 4.778062
v 2.000000 -64.233565 5.649652
v 2.041667 -64.233565 5.649652
v 2.083333 -64.233565 5.649652
v 2.125000 -64.233565 5.649652
v 2.166667 -64.233565 5.649652
v 2.208333 -64.233565 5.649652
v 2.250000 -64.233565 5.649652
v 2.291667 -64.233565 5.649652
v 2.333333 -64.233565 5.649652
v 2.375000 -64.233565 5.649652
v 2.416667 -64.233565 5.649652
v 2.458333 -64.233565 5.649652
v 2.500000 -64.233565 5.649652
v 2.541667 -64.233565 5.649652
v 2.583333 -64.233565 5.649652
v 2.625000 -64.233565 5.649652
v 2.666667 -64.233565 5.649652
v 2.708333 -64.233565 5.649652
v 2.750000 -64.233565 5.649652
v 2.791667 -64.233565 5.649652
v 2.833333 -64.233565 5.649652
v 2.875000 -64.233565 5.649652
v 2.916667 -64.233565 5.649652
v 2.958333 -64.233565 5.649652
v 3.000000 -64.233565 5.649652
v 2.000000 -63.652505 6.521243
v 2.041667 -63.652505 6.521243
v 2.083333 -63.652505 6.521243
v 2.125000 -63.652505 6.521243
v 2.166667 -63.652505 6.521243
v 2.208333 -63.652505 6.521243
v 2.250000 -63.652505 6.521243
v 2.291667 -63.652505 6.521243
v 2.333333 -63.652505 6.521243
v 2.375000 -63.652505 6.521243
v 2.416667 -63.652505 6.521243
v 2.458333 -63.652505 6.521243
v 2.500000 -63.652505 6.521243
v 2.541667 -63.652505 6.521243
v 2.583333 -63.652505 6.521243
v 2.625000 -63.652505 6.521243
v 2.666667 -63.652505 6.521243
v 2.708333 -63.652505 6.521243
v 2.750000 -63.652505 6.521243
v 2.791667 -63.652505 6.521243
v 2.833333 -63.652505 6.521243
v 2.875000 -63.652505 6.521243
v 2.916667 -63.652505 6.521243
v 2.958333 -63.652505 6.521243
v 3.000000 -63.652505 6.521243
v 2.000000 -63.071445 7.392833
v 2.041667 -63.071445 7.392833
v 2.083333 -63.071445 7.392833
v 2.125000 -63.071445 7.392833
v 2.166667 -63.071445 7.392833
v 2.208333 -63.071445 7.392833
v 2.250000 -63.071445 7.392833
v 2.291667 -63.071445 7.392833
v 2.333333 -63.071445 7.392833
v 2.375000 -63.071445 7.392833
v 2.416667 -63.071445 7.392833
v 2.458333 -63.071445 7.392833
v 2.500000 -63.071445 7.392833
v 2.541667 -63.071445 7.392833
v 2.583333 -63.071445 7.392833
v 2.625000 -63.071445 7.392833
v 2.666667 -63.071445 7.392833
v 2.708333 -63.071445 7.392833
v 2.750000 -63.071445 7.392833
v 2.791667 -63.071445 7.392833
v 2.833333 -63.071445 7.392833
v 2.875000 -63.071445 7.392833
v 2.916667 -63.071445 7.392833
v 2.958333 -63.071445 7.392833
v 3.000000 -63.071445 7.392833
v 2.000000 -62.490384 8.264423
v 2.041667 -62.490384 8.264423
v 2.083333 -62.490384 8.264423
v 2.125000 -62.490384 8.264423
v 2.166667 -62.490384 8.264423
v 2.208333 -62.490384 8.264423
v 2.250000 -62.490384 8.264423
v 2.291667 -62.490384 8.264423
v 2.333333 -62.490384 8.264423
v 2.375000 -62.490384 8.264423
v 2.416667 -62.490384 8.264423
v 2.458333 -62.490384 8.264423
v 2.500000 -62.490384 8.264423
v 2.541667 -62.490384 8.264423
v 2.583333 -62.490384 8.264423
v 2.625000 -62.490384 8.264423
v 2.666667 -62.490384 8.264423
v 2.708333 -62.490384 8.264423
v 2.750000 -62.490384 8.264423
v 2.791667 -62.490384 8.264423
v 2.833333 -62.490384 8.264423
v 2.875000 -62.490384 8.264423
v 2.916667 -62.490384 8.264423
v 2.958333 -62.490384 8.264423
v 3.000000 -62.490384 8.264423
v 2.000000 -61.909324 9.136014
v 2.041667 -61.909324 9.136014
v 2.083333 -61.909324 9.136014
v 2.125000 -61.909324 9.136014
v 2.166667 -61.909324 9.136014
v 2.208333 -61.909324 9.136014
v 2.250000 -61.909324 9.136014
v 2.291667 -61.909324 9.136014
v 2.333333 -61.909324 9.136014
v 2.375000 -61.909324 9.136014
v 2.416667 -61.909324 9.136014
v 2.458333 -61.909324 9.136014
v 2.500000 -61.909324 9.136014
v 2.541667 -61.909324 9.136014
v 2.583333 -61.909324 9.136014
v 2.625000 -61.909324 9.136014
v 2.666667 -61.909324 9.136014
v 2.708333 -61.909324 9.136014
v 2.750000 -61.909324 9.136014
v 2.791667 -61.909324 9.136014
v 2.833333 -61.909324 9.136014
v 2.875000 -61.909324 9.136014
v 2.916667 -61.909324 9.136014
v 2.958333 -61.909324 9.136014
v 3.000000 -61.909324 9.136014
v 2.000000 -61.328264 10.007604
v 2.041667 -61.328264 10.007604
v 2.083333 -61.328264 10.007604
v 2.125000 -61.328264 10.007604
v 2.166667 -61.328264 10.007604
v 2.208333 -61.328264 10.007604
v 2.250000 -61.328264 10.007604
v 2.291667 -61.328264 10.007604
v 2.333333 -61.328264 10.007604
v 2.375000 -61.328264 10.007604
v 2.416667 -61.328264 10.007604
v 2.458333 -61.328264 10.007604
v 2.500000 -61.328264 10.007604
v 2.541667 -61.328264 10.007604
v 2.583333 -61.328264 10.007604
v 2.625000 -61.328264 10.007604
v 2.666667 -61.328264 10.007604
v 2.708333 -61.328264 10.007604
v 2.750000 -61.328264 10.007604
v 2.791667 -61.328264 10.007604
v 2.833333 -61.328264 10.007604
v 2.875000 -61.328264 10.007604
v 2.916667 -61.328264 10.007604
v 2.958333 -61.328264 10.007604
v 3.000000 -61.328264 10.007604
v 2.000000 -60.747204 10.879194
v 2.041667 -60.747204 10.879194
v 2.083333 -60.747204 10.879194
v 2.125000 -60.747204 10.879194
v 2.166667 -60.747204 10.879194
v 2.208333 -60.747204 10.879194
v 2.250000 -60.747204 10.879194
v 2.291667 -60.747204 10.879194
v 2.333333 -60.747204 10.879194
v 2.375000 -60.747204 10.879194
v 2.416667 -60.747204 10.879194
v 2.458333 -60.747204 10.879194
v 2.500000 -60.747204 10.879194
v 2.541667 -60.747204 10.879194
v 2.583333 -60.747204 10.879194
v 2.625000 -60.747204 10.879194
v 2.666667 -60.747204 10.879194
v 2.708333 -60.747204 10.879194
v 2.750000 -60.747204 10.879194
v 2.791667 -60.747204 10.879194
v 2.833333 -60.747204 10.879194
v 2.875000 -60.747204 10.879194
v 2.916667 -60.747204 10.879194
v 2.958333 -60.747204 10.879194
v 3.000000 -60.747204 10.879194
v 2.000000 -60.166144 11.750785
v 2.041667 -60.166144 11.750785
v 2.083333 -60.166144 11.750785
v 2.125000 -60.166144 11.750785
v 2.166667 -60.166144 11.750785
v 2.208333 -60.166144 11.750785
v 2.250000 -60.166144 11.750785
v 2.291667 -60.166144 11.750785
v 2.333333 -60.166144 11.750785
v 2.375000 -60.166144 11.750785
v 2.416667 -60.166144 11.750785
v 2.458333 -60.166144 11.750785
v 2.500000 -60.166144 11.750785
v 2.541667 -60.166144 11.750785
v 2.583333 -60.166144 11.750785
v 2.625000 -60.166144 11.750785
v 2.666667 -60.166144 11.750785
v 2.708333 -60.166144 11.750785
v 2.750000 -60.166144 11.750785
v 2.791667 -60.166144 11.750785
v 2.833333 -60.166144 11.750785
v 2.875000 -60.166144 11.750785
v 2.916667 -60.166144 11.750785
v 2.958333 -60.166144 11.750785
v 3.000000 -60.166144 11.750785
v 2.000000 -59.585083 12.622375
v 2.041667 -59.585083 12.622375
v 2.083333 -59.585083 12.622375
v 2.125000 -59.585083 12.622375
v 2.166667 -59.585083 12.622375
v 2.208333 -59.585083 12.622375
v 2.250000 -59.585083 12.622375
v 2.291667 -59.585083 12.622375
v 2.333333 -59.585083 12.622375
v 2.375000 -59.585083 12.622375
v 2.416667 -59.585083 12.622375
v 2.458333 -59.585083 12.622375
v 2.500000 -59.585083 12.622375
v 2.541667 -59.585083 12.622375
v 2.583333 -59.585083 12.622375
v 2.625000 -59.585083 12.622375
v 2.666667 -59.585083 12.622375
v 2.708333 -59.585083 12.622375
v 2.750000 -59.585083 12.622375
v 2.791667 -59.585083 12.622375
v 2.833333 -59.585083 12.622375
v 2.875000 -59.585083 12.622375
v 2.916667 -59.585083 12.622375
v 2.958333 -59.585083 12.622375
v 3.000000 -59.585083 12.622375
f 2 3 28
f 2 28 27
f 3 4 29
f 3 29 28
f 4 5 30
f 4 30 29
f 5 6 31
f 5 31 30
f 6 7 32
f 6 32 31
f 7 8 33
f 7 33 32
f 8 9 34
f 8 34 33
f 9 10 35
f 9 35 34
f 10 11 36
f 10 36 35
f 11 12 37
f 11 37 36
f 12 13 38
f 12 38 37
f 13 14 39
f 13 39 38
f 14 15 40
f 14 40 39
f 15 16 41
f 15 41 40
f 16 17 42
f 16 42 41
f 17 18 43
f 17 43 42
f 18 19 44
f 18 44 43
f 19 20 45
f 19 45 44
f 20 21 46
f 20 46 45
f 21 22 47
f 21 47 46
f 22 23 48
f 22 48 47
f 23 24 49
f 23 49 48
f 27 28 53
f 27 53 52
f 28 29 54
f 28 54 53
f 29 30 55
f 29 55 54
f 30 31 56
f 30 56 55
f 31 32 57
f 31 57 56
f 32 33 58
f 32 58 57
f 33 34 59
f 33 59 58
f 34 35 60
f 34 60 59
f 35 36 61
f 35 61 60
f 36 37 62
f 36 62 61
f 37 38 63
f 37 63 62
f 38 39 64
f 38 64 63
f 39 40 65
f 39 65 64
f 40 41 66
f 40 66 65
f 41 42 67
f 41 67 66
f 42 43 68
f 42 68 67
f 43 44 69
f 43 69 68
f 44 45 70
f 44 70 69
f 45 46 71
f 45 71 70
f 46 47 72
f 46 72 71
f 47 48 73
f 47 73 72
f 48 49 74
f 48 74 73
f 52 53 78
f 52 78 77
f 53 54 79
f 53 79 78
f 54 55 80
f 54 80 79
f 55 56 81
f 55 81 80
f 56 57 82
f 56 82 81
f 57 58 83
f 57 83 82
f 58 59 84
f 58 84 83
f 59 60 85
f 59 85 84
f 60 61 86
f 60 86 85
f 61 62 87
f 61 87 86
f 62 63 88
f 62 88 87
f 63 64 89
f 63 89 88
f 64 65 90
f 64 90 89
f 65 66 91
f 65 91 90
f 66 67 92
f 66 92 91
f 67 68 93
f 67 93 92
f 68 69 94
f 68 94 93
f 69 70 95
f 69 95 94
f 70 71 96
f 70 96 95
f 71 72 97
f 71 97 96
f 72 73 98
f 72 98 97
f 73 74 99
f 73 99 98
f 77 78 103
f 77 103 102
f 78 79 104
f 78 104 103
f 79 80 105
f 79 105 104
f 80 81 106
f 80 106 105
f 81 82 107
f 81 107 106
f 82 83 108
f 82 108 107
f 83 84 109
f 83 109 108
f 84 85 110
f 84 110 109
f 85 86 111
f 85 111 110
f 86 87 112
f 86 112 111
f 87 88 113
f 87 113 112
f 88 89 114
f 88 114 113
f 89 90 115
f 89 115 114
f 90 91 116
f 90 116 115
f 91 92 117
f 91 117 116
f 92 93 118
f 92 118 117
f 93 94 119
f 93 119 118
f 94 95 120
f 94 120 119
f 95 96 121
f 95 121 120
f 96 97 122
f 96 122 121
f 97 98 123
f 97 123 122
f 98 99 124
f 98 124 123
f 102 103 128
f 102 128 127
f 103 104 129
f 103 129 128
f 104 105 130
f 104 130 129
f 105 106 131
f 105 131 130
f 106 107 132
f 106 132 131
f 107 108 133
f 107 133 132
f 108 109 134
f 108 134 133
f 109 110 135
f 109 135 134
f 110 111 136
f 110 136 135
f 111 112 137
f 111 137 136
f 112 113 138
f 112 138 137
f 113 114 139
f 113 139 138
f 114 115 140
f 114 140 139
f 115 116 141
f 115 141 140
f 116 117 142
f 116 142 141
f 117 118 143
f 117 143 142
f 118 119 144
f 118 144 143
f 119 120 145
f 119 145 144
f 120 121 146
f 120 146 145
f 121 122 147
f 121 147 146
f 122 123 148
f 122 148 147
f 123 124 149
f 123 149 148
f 127 128 153
f 127 153 152
f 128 129 154
f 128 154 153
f 129 130 155
f 129 155 154
f 130 131 156
f 130 156 155
f 131 132 157
f 131 157 156
f 132 133 158
f 132 158 157
f 133 134 159
f 133 159 158
f 134 135 160
f 134 160 159
f 135 136 161
f 135 161 160
f 136 137 162
f 136 162 161
f 137 138 163
f 137 163 162
f 138 139 164
f 138 164 163
f 139 140 165
f 139 165 164
f 140 141 166
f 140 166 165
f 141 142 167
f 141 167 166
f 142 143 168
f 142 168 167
f 143 144 169
f 143 169 168
f 144 145 170
f 144 170 169
f 145 146 171
f 145 171 170
f 146 147 172
f 146 172 171
f 147 148 173
f 147 173 172
f 148 149 174
f 148 174 173
f 152 153 178
f 152 178 177
f 153 154 179
f 153 179 178
f 154 155 180
f 154 180 179
f 155 156 181
f 155 181 180
f 156 157 182
f 156 182 181
f 157 158 183
f 157 183 182
f 158 159 184
f 158 184 183
f 159 160 185
f 159 185 184
f 160 161 186
f 160 186 185
f 161 162 187
f 161 187 186
f 162 163 188
f 162 188 187
f 163 164 189
f 163 189 188
f 164 165 190
f 164 190 189
f 165 166 191
f 165 191 190
f 166 167 192
f 166 192 191
f 167 168 193
f 167 193 192
f 168 169 194
f 168 194 193
f 169 170 195
f 169 195 194
f 170 171 196
f 170 196 195
f 171 172 197
f 171 197 196
f 172 173 198
f 172 198 197
f 173 174 199
f 173 199 198
f 177 178 203
f 177 203 202
f 178 179 204
f 178 204 203
f 179 180 205
f 179 205 204
f 180 181 206
f 180 206 205
f 181 182 207
f 181 207 206
f 182 183 208
f 182 208 207
f 183 184 209
f 183 209 208
f 184 185 210
f 184 210 209
f 185 186 211
f 185 211 210
f 186 187 212
f 186 212 211
f 187 188 213
f 187 213 212
f 188 189 214
f 188 214 213
f 189 190 215
f 189 215 214
f 190 191 216
f 190 216 215
f 191 192 217
f 191 217 216
f 192 193 218
f 192 218 217
f 193 194 219
f 193 219 218
f 194 195 220
f 194 220 219
f 195 196 221
f 195 221 220
f 196 197 222
f 196 222 221
f 197 198 223
f 197 223 222
f 198 199 224
f 198 224 223
f 202 203 228
f 202 228 227
f 203 204 229
f 203 229 228
f 204 205 230
f 204 230 229
f 205 206 231
f 205 231 230
f 206 207 232
f 206 232 231
f 207 208 233
f 207 233 232
f 208 209 234
f 208 234 233
f 209 210 235
f 209 235 234
f 210 211 236
f 210 236 235
f 211 212 237
f 211 237 236
f 212 213 238
f 212 238 237
f 213 214 239
f 213 239 238
f 214 215 240
f 214 240 239
f 215 216 241
f 215 241 240
f 216 217 242
f 216 242 241
f 217 218 243
f 217 243 242
f 218 219 244
f 218 244 243
f 219 220 245
f 219 245 244
f 220 221 246
f 220 246 245
f 221 222 247
f 221 247 246
f 222 223 248
f 222 248 247
f 223 224 249
f 223 249 248
f 227 228 253
f 227 253 252
f 228 229 254
f 228 254 253
f 229 230 255
f 229 255 254
f 230 231 256
f 230 256 255
f 231 232 257
f 231 257 256
f 232 233 258
f 232 258 257
f 233 234 259
f 233 259 258
f 234 235 260
f 234 260 259
f 235 236 261
f 235 261 260
f 236 237 262
f 236 262 261
f 237 238 263
f 237 263 262
f 238 239 264
f 238 264 263
f 239 240 265
f 239 265 264
f 240 241 266
f 240 266 265
f 241 242 267
f 241 267 266
f 242 243 268
f 242 268 267
f 243 244 269
f 243 269 268
f 244 245 270
f 244 270 269
f 245 246 271
f 245 271 270
f 246 247 272
f 246 272 271
f 247 248 273
f 247 273 272
f 248 249 274
f 248 274 273
f 252 253 278
f 252 278 277
f 253 254 279
f 253 279 278
f 254 255 280
f 254 280 279
f 255 256 281
f 255 281 280
f 256 257 282
f 256 282 281
f 257 258 283
f 257 283 282
f 258 259 284
f 258 284 283
f 259 260 285
f 259 285 284
f 260 261 286
f 260 286 285
f 261 262 287
f 261 287 286
f 262 263 288
f 262 288 287
f 263 264 289
f 263 289 288
f 264 265 290
f 264 290 289
f 265 266 291
f 265 291 290
f 266 267 292
f 266 292 291
f 267 268 293
f 267 293 292
f 268 269 294
f 268 294 293
f 269 270 295
f 269 295 294
f 270 271 296
f 270 296 295
f 271 272 297
f 271 297 296
f 272 273 298
f 272 298 297
f 273 274 299
f 273 299 298
