o [4B] 3D Diagram - S2-08 Group A_30
v 10.430940 14.705249 2.079527
v 11.569060 14.392491 2.591314
v 11.569060 13.294751 1.920473
v 10.430940 13.607509 1.408686
v 10.199361 14.476108 2.454486
v 11.337481 14.163349 2.966272
v 11.337481 13.065609 2.295431
v 10.199361 13.378368 1.783644
v 10.202060 14.478750 2.450163
v 11.334782 14.160708 2.970595
v 11.334782 13.062968 2.299754
v 10.202060 13.381010 1.779322
v 9.970481 14.254484 2.817143
v 11.103203 13.936442 3.337576
v 11.103203 12.838702 2.666735
v 9.970481 13.156744 2.146302
v 9.973320 14.257203 2.812694
v 11.100365 13.933723 3.342025
v 11.100365 12.835983 2.671184
v 9.973320 13.159463 2.141853
v 9.741741 14.037812 3.171697
v 10.868786 13.714332 3.701028
v 10.868786 12.616592 3.030187
v 9.741741 12.940072 2.500856
v 9.744729 14.040611 3.167117
v 10.865798 13.711533 3.705608
v 10.865798 12.613793 3.034767
v 9.744729 12.942871 2.496276
v 9.513150 13.826096 3.518142
v 10.634219 13.497018 4.056633
v 10.634219 12.399278 3.385792
v 9.513150 12.728356 2.847301
v 9.516296 13.828977 3.513427
v 10.631072 13.494137 4.061348
v 10.631072 12.396397 3.390507
v 9.516296 12.731237 2.842586
v 9.284717 13.619337 3.856474
v 10.399493 13.284497 4.404395
v 10.399493 12.186757 3.733554
v 9.284717 12.521597 3.185633
v 9.288033 13.622304 3.851620
v 10.396177 13.281530 4.409249
v 10.396177 12.183790 3.738408
v 9.288033 12.524564 3.180778
v 9.056454 13.417539 4.186689
v 10.164598 13.076766 4.744318
v 10.164598 11.979026 4.073477
v 9.056454 12.319799 3.515848
v 9.059951 13.420594 4.181691
v 10.161102 13.073711 4.749317
v 10.161102 11.975971 4.078475
v 9.059951 12.322854 3.510850
v 8.828372 13.220705 4.508782
v 9.929523 12.873822 5.076408
v 9.929523 11.776082 4.405567
v 8.828372 12.122964 3.837941
v 8.832060 13.223849 4.503636
v 9.925834 12.870677 5.081554
v 9.925834 11.772937 4.410713
v 8.832060 12.126109 3.832795
v 8.600482 13.028836 4.822750
v 9.694255 12.675663 5.400668
v 9.694255 11.577923 4.729827
v 8.600482 11.931096 4.151908
v 8.604376 13.032074 4.817451
v 9.690361 12.672425 5.405967
v 9.690361 11.574685 4.735125
v 8.604376 11.934334 4.146610
v 8.372797 12.841935 5.128587
v 9.458782 12.482287 5.717102
v 9.458782 11.384547 5.046261
v 8.372797 11.744195 4.457745
v 8.376911 12.845269 5.123131
v 9.454668 12.478953 5.722558
v 9.454668 11.381213 5.051717
v 8.376911 11.747529 4.452290
v 8.145332 12.660006 5.426289
v 9.223089 12.293690 6.025716
v 9.223089 11.195950 5.354875
v 8.145332 11.562266 4.755448
v 8.149680 12.663438 5.420672
v 9.218741 12.290257 6.031332
v 9.218741 11.192517 5.360491
v 8.149680 11.565698 4.749831
v 7.918101 12.483051 5.715852
v 8.987162 12.109869 6.326512
v 8.987162 11.012129 5.655671
v 7.918101 11.385311 5.045011
v 7.922700 12.486584 5.710071
v 8.982563 12.106336 6.332294
v 8.982563 11.008596 5.661453
v 7.922700 11.388844 5.039230
v 7.691121 12.311071 5.997273
v 8.750984 11.930824 6.619496
v 8.750984 10.833084 5.948655
v 7.691121 11.213331 5.326432
v 7.695987 12.314708 5.991322
v 8.746118 11.927187 6.625447
v 8.746118 10.829447 5.954606
v 7.695987 11.216968 5.320481
v 7.464408 12.144071 6.270547
v 8.514539 11.756550 6.904671
v 8.514539 10.658810 6.233830
v 7.464408 11.046331 5.599706
v 7.469560 12.147812 6.264424
v 8.509387 11.752809 6.910794
v 8.509387 10.655069 6.239953
v 7.469560 11.050072 5.593583
v 7.237981 11.982051 6.535671
v 8.277808 11.587047 7.182040
v 8.277808 10.489307 6.511199
v 7.237981 10.884310 5.864830
v 7.243439 11.985899 6.529373
v 8.272350 11.583198 7.188338
v 8.272350 10.485458 6.517497
v 7.243439 10.888159 5.858532
v 7.011860 11.825013 6.792641
v 8.040771 11.422312 7.451607
v 8.040771 10.324572 6.780766
v 7.011860 10.727273 6.121800
v 7.017645 11.828970 6.786166
v 8.034986 11.418354 7.458083
v 8.034986 10.320614 6.787241
v 7.017645 10.731230 6.115325
v 6.786066 11.672959 7.041457
v 7.803408 11.262343 7.713373
v 7.803408 10.164603 7.042532
v 6.786066 10.575219 6.370615
v 6.792200 11.677026 7.034801
v 7.797274 11.258276 7.720029
v 7.797274 10.160536 7.049188
v 6.792200 10.579286 6.363960
v 6.560621 11.525891 7.282114
v 7.565695 11.107140 7.967342
v 7.565695 10.009400 7.296501
v 6.560621 10.428150 6.611273
v 6.567128 11.530068 7.275278
v 7.559187 11.102963 7.974178
v 7.559187 10.005223 7.303337
v 6.567128 10.432328 6.604437
v 6.335549 11.383808 7.514613
v 7.327608 10.956702 8.213513
v 7.327608 9.858962 7.542672
v 6.335549 10.286068 6.843772
v 6.342455 11.388096 7.507596
v 7.320703 10.952414 8.220530
v 7.320703 9.854674 7.549689
v 6.342455 10.290356 6.836755
v 6.110876 11.246711 7.738954
v 7.089124 10.811029 8.451888
v 7.089124 9.713289 7.781046
v 6.110876 10.148971 7.068112
v 6.118208 11.251109 7.731757
v 7.081792 10.806631 8.459085
v 7.081792 9.708891 7.788243
v 6.118208 10.153369 7.060915
v 5.886629 11.114599 7.955136
v 6.850213 10.670121 8.682464
v 6.850213 9.572381 8.011623
v 5.886629 10.016859 7.284295
v 5.894415 11.119106 7.947761
v 6.842427 10.665615 8.689839
v 6.842427 9.567874 8.018998
v 5.894415 10.021366 7.276920
v 5.662836 10.987472 8.163163
v 6.610848 10.533980 8.905240
v 6.610848 9.436240 8.234399
v 5.662836 9.889732 7.492322
v 5.671106 10.992085 8.155615
v 6.602579 10.529367 8.912789
v 6.602579 9.431627 8.241948
v 5.671106 9.894345 7.484774
v 5.439527 10.865326 8.363039
v 6.371000 10.402608 9.120213
v 6.371000 9.304868 8.449371
v 5.439527 9.767586 7.692197
v 5.448312 10.870041 8.355322
v 6.362214 10.397893 9.127929
v 6.362214 9.300153 8.457088
v 5.448312 9.772301 7.684481
v 5.216733 10.748158 8.554768
v 6.130635 10.276009 9.327375
v 6.130635 9.178269 8.656534
v 5.216733 9.650417 7.883927
v 5.226067 10.752971 8.546892
v 6.121301 10.271196 9.335251
v 6.121301 9.173456 8.664410
v 5.226067 9.655231 7.876051
v 4.994488 10.635963 8.738360
v 5.889722 10.154188 9.526719
v 5.889722 9.056447 8.855878
v 4.994488 9.538222 8.067519
v 5.004405 10.640867 8.730334
v 5.879806 10.149283 9.534745
v 5.879806 9.051543 8.863904
v 5.004405 9.543127 8.059493
v 4.772826 10.528734 8.913824
v 5.648227 10.037150 9.718236
v 5.648227 8.939410 9.047395
v 4.772826 9.430994 8.242983
v 4.783359 10.533723 8.905661
v 5.637694 10.032161 9.726399
v 5.637694 8.934421 9.055557
v 4.783359 9.435983 8.234820
v 4.551780 10.426465 9.081174
v 5.406115 9.924904 9.901911
v 5.406115 8.827164 9.231070
v 4.551780 9.328725 8.410333
v 4.562966 10.431527 9.072891
v 5.394928 9.919842 9.910194
v 5.394928 8.822102 9.239353
v 4.562966 9.333787 8.402049
v 4.331387 10.329145 9.240425
v 5.163350 9.817459 10.077729
v 5.163350 8.719719 9.406888
v 4.331387 9.231405 8.569584
v 4.343262 10.334269 9.232041
v 5.151475 9.812336 10.086113
v 5.151475 8.714596 9.415272
v 4.343262 9.236529 8.561200
v 4.111683 10.236762 9.391598
v 4.919896 9.714829 10.245670
v 4.919896 8.617089 9.574829
v 4.111683 9.139022 8.720757
v 4.124282 10.241933 9.383137
v 4.907297 9.709658 10.254131
v 4.907297 8.611918 9.583290
v 4.124282 9.144192 8.712295
v 3.892703 10.149301 9.534715
v 4.675718 9.617026 10.405710
v 4.675718 8.519286 9.734869
v 3.892703 9.051561 8.863874
v 3.906060 10.154502 9.526205
v 4.662361 9.611825 10.414221
v 4.662361 8.514085 9.743380
v 3.906060 9.056762 8.855364
v 3.674481 10.066746 9.669806
v 4.430782 9.524069 10.557822
v 4.430782 8.426329 9.886981
v 3.674481 8.969006 8.998965
v 3.688630 10.071957 9.661278
v 4.416633 9.518858 10.566350
v 4.416633 8.421118 9.895509
v 3.688630 8.974217 8.990437
v 3.457051 9.989076 9.796901
v 4.185054 9.435977 10.701973
v 4.185054 8.338237 10.031132
v 3.457051 8.891336 9.126060
v 3.472022 9.994275 9.788394
v 4.170083 9.430778 10.710481
v 4.170083 8.333038 10.039639
v 3.472022 8.896535 9.117553
v 3.240444 9.916270 9.916039
v 3.938504 9.352772 10.838126
v 3.938504 8.255032 10.167285
v 3.240444 8.818530 9.245198
v 3.256264 9.921431 9.907594
v 3.922683 9.347611 10.846571
v 3.922683 8.249871 10.175730
v 3.256264 8.823691 9.236753
v 3.024685 9.848300 10.027262
v 3.691104 9.274481 10.966239
v 3.691104 8.176741 10.295398
v 3.024685 8.750560 9.356420
v 3.041377 9.853395 10.018926
v 3.674412 9.269387 10.974574
v 3.674412 8.171647 10.303733
v 3.041377 8.755654 9.348085
v 2.809799 9.785140 10.130616
v 3.442833 9.201132 11.086264
v 3.442833 8.103392 10.415423
v 2.809799 8.687400 9.459775
v 2.827379 9.790135 10.122442
v 3.425252 9.196137 11.094438
v 3.425252 8.098397 10.423597
v 2.827379 8.692395 9.451601
v 2.595800 9.726755 10.226154
v 3.193673 9.132758 11.198150
v 3.193673 8.035018 10.527309
v 2.595800 8.629015 9.555313
v 2.614279 9.731616 10.218199
v 3.175195 9.127897 11.206105
v 3.175195 8.030156 10.535263
v 2.614279 8.633876 9.547358
v 2.382700 9.673112 10.313933
v 2.943616 9.069392 11.301839
v 2.943616 7.971652 10.630997
v 2.382700 8.575372 9.643092
v 2.562525 8.193708 9.822717
v 2.307913 9.451056 9.919202
v 2.763791 9.451056 11.122213
v 3.018403 8.193708 11.025729
v 2.330946 8.140079 9.910474
v 2.076334 9.397428 10.006958
v 2.532212 9.397428 11.209970
v 2.786824 8.140079 11.113485
v 2.340791 8.137883 9.911152
v 2.103341 9.399623 9.992953
v 2.522367 9.399623 11.209291
v 2.759816 8.137883 11.127490
v 2.109212 8.089130 9.990931
v 1.871763 9.350870 10.072731
v 2.290788 9.350870 11.289069
v 2.528237 8.089130 11.207269
v 2.118921 8.087036 9.991684
v 1.900097 9.352964 10.059530
v 2.281079 9.352964 11.288316
v 2.499903 8.087036 11.220470
v 1.887342 8.043158 10.063485
v 1.668518 9.309086 10.131331
v 2.049500 9.309086 11.360116
v 2.268324 8.043158 11.292270
v 1.896902 8.041191 10.064283
v 1.698129 9.311053 10.119065
v 2.039940 9.311053 11.359318
v 2.238714 8.041191 11.304536
v 1.665323 8.002188 10.128106
v 1.466550 9.272050 10.182888
v 1.808361 9.272050 11.423140
v 2.007135 8.002188 11.368359
v 1.674726 8.000374 10.128918
v 1.497368 9.273864 10.171687
v 1.798958 9.273864 11.422329
v 1.976316 8.000374 11.379559
v 1.443147 7.966247 10.184762
v 1.265789 9.239737 10.227532
v 1.567379 9.239737 11.478174
v 1.744737 7.966247 11.435404
v 1.452391 7.964611 10.185553
v 1.297724 9.241372 10.217523
v 1.558135 9.241372 11.477383
v 1.712802 7.964611 11.445413
v 1.220812 7.935359 10.233420
v 1.066145 9.212120 10.265390
v 1.326556 9.212120 11.525250
v 1.481223 7.935359 11.493280
v 1.229902 7.933927 10.234158
v 1.099086 9.213552 10.256691
v 1.317467 9.213552 11.524512
v 1.448283 7.933927 11.501979
v 0.998323 7.909550 10.274047
v 0.867507 9.189175 10.296580
v 1.085888 9.189175 11.564402
v 1.216704 7.909550 11.541869
v 1.007271 7.908344 10.274700
v 0.901322 9.190382 10.289300
v 1.076940 9.190382 11.563749
v 1.182889 7.908344 11.549149
v 0.775692 7.888842 10.306612
v 0.669743 9.170881 10.321211
v 0.845361 9.170881 11.595660
v 0.951310 7.888842 11.581060
v 0.784517 7.887881 10.307152
v 0.704282 9.171842 10.315444
v 0.836535 9.171842 11.595120
v 0.916771 7.887881 11.586828
v 0.552938 7.873255 10.331085
v 0.472703 9.157216 10.339377
v 0.604957 9.157216 11.619053
v 0.685192 7.873255 11.610761
v 0.561665 7.872556 10.331489
v 0.507801 9.157915 10.335200
v 0.596230 9.157915 11.618649
v 0.650094 7.872556 11.614938
v 0.330086 7.862806 10.347445
v 0.276222 9.148164 10.351156
v 0.364651 9.148164 11.634605
v 0.418515 7.862806 11.630894
v 0.338745 7.862381 10.347695
v 0.311699 9.148588 10.348626
v 0.355992 9.148588 11.634355
v 0.383038 7.862381 11.633424
v 0.107166 7.857506 10.355672
v 0.080120 9.143713 10.356604
v 0.124413 9.143713 11.642333
v 0.151459 7.857506 11.641401
v 0.115789 7.857364 10.355757
v 0.115789 9.143855 10.355757
v 0.115789 9.143855 11.642249
v 0.115789 7.857364 11.642249
v -0.115789 7.857364 10.355757
v -0.115789 9.143855 10.355757
v -0.115789 9.143855 11.642249
v -0.115789 7.857364 11.642249
v -0.107166 7.857506 10.355672
v -0.080120 9.143713 10.356604
v -0.124413 9.143713 11.642333
v -0.151459 7.857506 11.641401
v -0.338745 7.862381 10.347695
v -0.311699 9.148588 10.348626
v -0.355992 9.148588 11.634355
v -0.383038 7.862381 11.633424
v -0.330086 7.862806 10.347445
v -0.276222 9.148164 10.351156
v -0.364651 9.148164 11.634605
v -0.418515 7.862806 11.630894
v -0.561665 7.872556 10.331489
v -0.507801 9.157915 10.335200
v -0.596230 9.157915 11.618649
v -0.650094 7.872556 11.614938
v -0.552938 7.873255 10.331085
v -0.472703 9.157216 10.339377
v -0.604957 9.157216 11.619053
v -0.685192 7.873255 11.610761
v -0.784517 7.887881 10.307152
v -0.704282 9.171842 10.315444
v -0.836535 9.171842 11.595120
v -0.916771 7.887881 11.586828
v -0.775692 7.888842 10.306612
v -0.669743 9.170881 10.321211
v -0.845361 9.170881 11.595660
v -0.951310 7.888842 11.581060
v -1.007271 7.908344 10.274700
v -0.901322 9.190382 10.289300
v -1.076940 9.190382 11.563749
v -1.182889 7.908344 11.549149
v -0.998323 7.909550 10.274047
v -0.867507 9.189175 10.296580
v -1.085888 9.189175 11.564402
v -1.216704 7.909550 11.541869
v -1.229902 7.933927 10.234158
v -1.099086 9.213552 10.256691
v -1.317467 9.213552 11.524512
v -1.448283 7.933927 11.501979
v -1.220812 7.935359 10.233420
v -1.066145 9.212120 10.265390
v -1.326556 9.212120 11.525250
v -1.481223 7.935359 11.493280
v -1.452391 7.964611 10.185553
v -1.297724 9.241372 10.217523
v -1.558135 9.241372 11.477383
v -1.712802 7.964611 11.445413
v -1.443147 7.966247 10.184762
v -1.265789 9.239737 10.227532
v -1.567379 9.239737 11.478174
v -1.744737 7.966247 11.435404
v -1.674726 8.000374 10.128918
v -1.497368 9.273864 10.171687
v -1.798958 9.273864 11.422329
v -1.976316 8.000374 11.379559
v -1.665323 8.002188 10.128106
v -1.466550 9.272050 10.182888
v -1.808361 9.272050 11.423140
v -2.007135 8.002188 11.368359
v -1.896902 8.041191 10.064283
v -1.698129 9.311053 10.119065
v -2.039940 9.311053 11.359318
v -2.238714 8.041191 11.304536
v -1.887342 8.043158 10.063485
v -1.668518 9.309086 10.131331
v -2.049500 9.309086 11.360116
v -2.268324 8.043158 11.292270
v -2.118921 8.087036 9.991684
v -1.900097 9.352964 10.059530
v -2.281079 9.352964 11.288316
v -2.499903 8.087036 11.220470
v -2.109212 8.089130 9.990931
v -1.871763 9.350870 10.072731
v -2.290788 9.350870 11.289069
v -2.528237 8.089130 11.207269
v -2.340791 8.137883 9.911152
v -2.103341 9.399623 9.992953
v -2.522367 9.399623 11.209291
v -2.759816 8.137883 11.127490
v -2.330946 8.140079 9.910474
v -2.076334 9.397428 10.006958
v -2.532212 9.397428 11.209970
v -2.786824 8.140079 11.113485
v -2.562525 8.193708 9.822717
v -2.307913 9.451056 9.919202
v -2.763791 9.451056 11.122213
v -3.018403 8.193708 11.025729
v -2.943616 7.971652 10.630997
v -2.382700 8.575372 9.643092
v -2.382700 9.673112 10.313933
v -2.943616 9.069392 11.301839
v -3.175195 8.030156 10.535263
v -2.614279 8.633876 9.547358
v -2.614279 9.731616 10.218199
v -3.175195 9.127897 11.206105
v -3.193673 8.035018 10.527309
v -2.595800 8.629015 9.555313
v -2.595800 9.726755 10.226154
v -3.193673 9.132758 11.198150
v -3.425252 8.098397 10.423597
v -2.827379 8.692395 9.451601
v -2.827379 9.790135 10.122442
v -3.425252 9.196137 11.094438
v -3.442833 8.103392 10.415423
v -2.809799 8.687400 9.459775
v -2.809799 9.785140 10.130616
v -3.442833 9.201132 11.086264
v -3.674412 8.171647 10.303733
v -3.041377 8.755654 9.348085
v -3.041377 9.853395 10.018926
v -3.674412 9.269387 10.974574
v -3.691104 8.176741 10.295398
v -3.024685 8.750560 9.356420
v -3.024685 9.848300 10.027262
v -3.691104 9.274481 10.966239
v -3.922683 8.249871 10.175730
v -3.256264 8.823691 9.236753
v -3.256264 9.921431 9.907594
v -3.922683 9.347611 10.846571
v -3.938504 8.255032 10.167285
v -3.240444 8.818530 9.245198
v -3.240444 9.916270 9.916039
v -3.938504 9.352772 10.838126
v -4.170083 8.333038 10.039639
v -3.472022 8.896535 9.117553
v -3.472022 9.994275 9.788394
v -4.170083 9.430778 10.710481
v -4.185054 8.338237 10.031132
v -3.457051 8.891336 9.126060
v -3.457051 9.989076 9.796901
v -4.185054 9.435977 10.701973
v -4.416633 8.421118 9.895509
v -3.688630 8.974217 8.990437
v -3.688630 10.071957 9.661278
v -4.416633 9.518858 10.566350
v -4.430782 8.426329 9.886981
v -3.674481 8.969006 8.998965
v -3.674481 10.066746 9.669806
v -4.430782 9.524069 10.557822
v -4.662361 8.514085 9.743380
v -3.906060 9.056762 8.855364
v -3.906060 10.154502 9.526205
v -4.662361 9.611825 10.414221
v -4.675718 8.519286 9.734869
v -3.892703 9.051561 8.863874
v -3.892703 10.149301 9.534715
v -4.675718 9.617026 10.405710
v -4.907297 8.611918 9.583290
v -4.124282 9.144192 8.712295
v -4.124282 10.241933 9.383137
v -4.907297 9.709658 10.254131
v -4.919896 8.617089 9.574829
v -4.111683 9.139022 8.720757
v -4.111683 10.236762 9.391598
v -4.919896 9.714829 10.245670
v -5.151475 8.714596 9.415272
v -4.343262 9.236529 8.561200
v -4.343262 10.334269 9.232041
v -5.151475 9.812336 10.086113
v -5.163350 8.719719 9.406888
v -4.331387 9.231405 8.569584
v -4.331387 10.329145 9.240425
v -5.163350 9.817459 10.077729
v -5.394928 8.822102 9.239353
v -4.562966 9.333787 8.402049
v -4.562966 10.431527 9.072891
v -5.394928 9.919842 9.910194
v -5.406115 8.827164 9.231070
v -4.551780 9.328725 8.410333
v -4.551780 10.426465 9.081174
v -5.406115 9.924904 9.901911
v -5.637694 8.934421 9.055557
v -4.783359 9.435983 8.234820
v -4.783359 10.533723 8.905661
v -5.637694 10.032161 9.726399
v -5.648227 8.939410 9.047395
v -4.772826 9.430994 8.242983
v -4.772826 10.528734 8.913824
v -5.648227 10.037150 9.718236
v -5.879806 9.051543 8.863904
v -5.004405 9.543127 8.059493
v -5.004405 10.640867 8.730334
v -5.879806 10.149283 9.534745
v -5.889722 9.056447 8.855878
v -4.994488 9.538222 8.067519
v -4.994488 10.635963 8.738360
v -5.889722 10.154188 9.526719
v -6.121301 9.173456 8.664410
v -5.226067 9.655231 7.876051
v -5.226067 10.752971 8.546892
v -6.121301 10.271196 9.335251
v -6.130635 9.178269 8.656534
v -5.216733 9.650417 7.883927
v -5.216733 10.748158 8.554768
v -6.130635 10.276009 9.327375
v -6.362214 9.300153 8.457088
v -5.448312 9.772301 7.684481
v -5.448312 10.870041 8.355322
v -6.362214 10.397893 9.127929
v -6.371000 9.304868 8.449371
v -5.439527 9.767586 7.692197
v -5.439527 10.865326 8.363039
v -6.371000 10.402608 9.120213
v -6.602579 9.431627 8.241948
v -5.671106 9.894345 7.484774
v -5.671106 10.992085 8.155615
v -6.602579 10.529367 8.912789
v -6.610848 9.436240 8.234399
v -5.662836 9.889732 7.492322
v -5.662836 10.987472 8.163163
v -6.610848 10.533980 8.905240
v -6.842427 9.567874 8.018998
v -5.894415 10.021366 7.276920
v -5.894415 11.119106 7.947761
v -6.842427 10.665615 8.689839
v -6.850213 9.572381 8.011623
v -5.886629 10.016859 7.284295
v -5.886629 11.114599 7.955136
v -6.850213 10.670121 8.682464
v -7.081792 9.708891 7.788243
v -6.118208 10.153369 7.060915
v -6.118208 11.251109 7.731757
v -7.081792 10.806631 8.459085
v -7.089124 9.713289 7.781046
v -6.110876 10.148971 7.068112
v -6.110876 11.246711 7.738954
v -7.089124 10.811029 8.451888
v -7.320703 9.854674 7.549689
v -6.342455 10.290356 6.836755
v -6.342455 11.388096 7.507596
v -7.320703 10.952414 8.220530
v -7.327608 9.858962 7.542672
v -6.335549 10.286068 6.843772
v -6.335549 11.383808 7.514613
v -7.327608 10.956702 8.213513
v -7.559187 10.005223 7.303337
v -6.567128 10.432328 6.604437
v -6.567128 11.530068 7.275278
v -7.559187 11.102963 7.974178
v -7.565695 10.009400 7.296501
v -6.560621 10.428150 6.611273
v -6.560621 11.525891 7.282114
v -7.565695 11.107140 7.967342
v -7.797274 10.160536 7.049188
v -6.792200 10.579286 6.363960
v -6.792200 11.677026 7.034801
v -7.797274 11.258276 7.720029
v -7.803408 10.164603 7.042532
v -6.786066 10.575219 6.370615
v -6.786066 11.672959 7.041457
v -7.803408 11.262343 7.713373
v -8.034986 10.320614 6.787241
v -7.017645 10.731230 6.115325
v -7.017645 11.828970 6.786166
v -8.034986 11.418354 7.458083
v -8.040771 10.324572 6.780766
v -7.011860 10.727273 6.121800
v -7.011860 11.825013 6.792641
v -8.040771 11.422312 7.451607
v -8.272350 10.485458 6.517497
v -7.243439 10.888159 5.858532
v -7.243439 11.985899 6.529373
v -8.272350 11.583198 7.188338
v -8.277808 10.489307 6.511199
v -7.237981 10.884310 5.864830
v -7.237981 11.982051 6.535671
v -8.277808 11.587047 7.182040
v -8.509387 10.655069 6.239953
v -7.469560 11.050072 5.593583
v -7.469560 12.147812 6.264424
v -8.509387 11.752809 6.910794
v -8.514539 10.658810 6.233830
v -7.464408 11.046331 5.599706
v -7.464408 12.144071 6.270547
v -8.514539 11.756550 6.904671
v -8.746118 10.829447 5.954606
v -7.695987 11.216968 5.320481
v -7.695987 12.314708 5.991322
v -8.746118 11.927187 6.625447
v -8.750984 10.833084 5.948655
v -7.691121 11.213331 5.326432
v -7.691121 12.311071 5.997273
v -8.750984 11.930824 6.619496
v -8.982563 11.008596 5.661453
v -7.922700 11.388844 5.039230
v -7.922700 12.486584 5.710071
v -8.982563 12.106336 6.332294
v -8.987162 11.012129 5.655671
v -7.918101 11.385311 5.045011
v -7.918101 12.483051 5.715852
v -8.987162 12.109869 6.326512
v -9.218741 11.192517 5.360491
v -8.149680 11.565698 4.749831
v -8.149680 12.663438 5.420672
v -9.218741 12.290257 6.031332
v -9.223089 11.195950 5.354875
v -8.145332 11.562266 4.755448
v -8.145332 12.660006 5.426289
v -9.223089 12.293690 6.025716
v -9.454668 11.381213 5.051717
v -8.376911 11.747529 4.452290
v -8.376911 12.845269 5.123131
v -9.454668 12.478953 5.722558
v -9.458782 11.384547 5.046261
v -8.372797 11.744195 4.457745
v -8.372797 12.841935 5.128587
v -9.458782 12.482287 5.717102
v -9.690361 11.574685 4.735125
v -8.604376 11.934334 4.146610
v -8.604376 13.032074 4.817451
v -9.690361 12.672425 5.405967
v -9.694255 11.577923 4.729827
v -8.600482 11.931096 4.151908
v -8.600482 13.028836 4.822750
v -9.694255 12.675663 5.400668
v -9.925834 11.772937 4.410713
v -8.832060 12.126109 3.832795
v -8.832060 13.223849 4.503636
v -9.925834 12.870677 5.081554
v -9.929523 11.776082 4.405567
v -8.828372 12.122964 3.837941
v -8.828372 13.220705 4.508782
v -9.929523 12.873822 5.076408
v -10.161102 11.975971 4.078475
v -9.059951 12.322854 3.510850
v -9.059951 13.420594 4.181691
v -10.161102 13.073711 4.749317
v -10.164598 11.979026 4.073477
v -9.056454 12.319799 3.515848
v -9.056454 13.417539 4.186689
v -10.164598 13.076766 4.744318
v -10.396177 12.183790 3.738408
v -9.288033 12.524564 3.180778
v -9.288033 13.622304 3.851620
v -10.396177 13.281530 4.409249
v -10.399493 12.186757 3.733554
v -9.284717 12.521597 3.185633
v -9.284717 13.619337 3.856474
v -10.399493 13.284497 4.404395
v -10.631072 12.396397 3.390507
v -9.516296 12.731237 2.842586
v -9.516296 13.828977 3.513427
v -10.631072 13.494137 4.061348
v -10.634219 12.399278 3.385792
v -9.513150 12.728356 2.847301
v -9.513150 13.826096 3.518142
v -10.634219 13.497018 4.056633
v -10.865798 12.613793 3.034767
v -9.744729 12.942871 2.496276
v -9.744729 14.040611 3.167117
v -10.865798 13.711533 3.705608
v -10.868786 12.616592 3.030187
v -9.741741 12.940072 2.500856
v -9.741741 14.037812 3.171697
v -10.868786 13.714332 3.701028
v -11.100365 12.835983 2.671184
v -9.973320 13.159463 2.141853
v -9.973320 14.257203 2.812694
v -11.100365 13.933723 3.342025
v -11.103203 12.838702 2.666735
v -9.970481 13.156744 2.146302
v -9.970481 14.254484 2.817143
v -11.103203 13.936442 3.337576
v -11.334782 13.062968 2.299754
v -10.202060 13.381010 1.779322
v -10.202060 14.478750 2.450163
v -11.334782 14.160708 2.970595
v -11.337481 13.065609 2.295431
v -10.199361 13.378368 1.783644
v -10.199361 14.476108 2.454486
v -11.337481 14.163349 2.966272
v -11.569060 13.294751 1.920473
v -10.430940 13.607509 1.408686
v -10.430940 14.705249 2.079527
v -11.569060 14.392491 2.591314
f 1 2 3
f 1 3 4
f 5 8 7
f 5 7 6
f 1 5 6
f 1 6 2
f 2 6 7
f 2 7 3
f 3 7 8
f 3 8 4
f 4 8 5
f 4 5 1
f 9 10 11
f 9 11 12
f 13 16 15
f 13 15 14
f 9 13 14
f 9 14 10
f 10 14 15
f 10 15 11
f 11 15 16
f 11 16 12
f 12 16 13
f 12 13 9
f 17 18 19
f 17 19 20
f 21 24 23
f 21 23 22
f 17 21 22
f 17 22 18
f 18 22 23
f 18 23 19
f 19 23 24
f 19 24 20
f 20 24 21
f 20 21 17
f 25 26 27
f 25 27 28
f 29 32 31
f 29 31 30
f 25 29 30
f 25 30 26
f 26 30 31
f 26 31 27
f 27 31 32
f 27 32 28
f 28 32 29
f 28 29 25
f 33 34 35
f 33 35 36
f 37 40 39
f 37 39 38
f 33 37 38
f 33 38 34
f 34 38 39
f 34 39 35
f 35 39 40
f 35 40 36
f 36 40 37
f 36 37 33
f 41 42 43
f 41 43 44
f 45 48 47
f 45 47 46
f 41 45 46
f 41 46 42
f 42 46 47
f 42 47 43
f 43 47 48
f 43 48 44
f 44 48 45
f 44 45 41
f 49 50 51
f 49 51 52
f 53 56 55
f 53 55 54
f 49 53 54
f 49 54 50
f 50 54 55
f 50 55 51
f 51 55 56
f 51 56 52
f 52 56 53
f 52 53 49
f 57 58 59
f 57 59 60
f 61 64 63
f 61 63 62
f 57 61 62
f 57 62 58
f 58 62 63
f 58 63 59
f 59 63 64
f 59 64 60
f 60 64 61
f 60 61 57
f 65 66 67
f 65 67 68
f 69 72 71
f 69 71 70
f 65 69 70
f 65 70 66
f 66 70 71
f 66 71 67
f 67 71 72
f 67 72 68
f 68 72 69
f 68 69 65
f 73 74 75
f 73 75 76
f 77 80 79
f 77 79 78
f 73 77 78
f 73 78 74
f 74 78 79
f 74 79 75
f 75 79 80
f 75 80 76
f 76 80 77
f 76 77 73
f 81 82 83
f 81 83 84
f 85 88 87
f 85 87 86
f 81 85 86
f 81 86 82
f 82 86 87
f 82 87 83
f 83 87 88
f 83 88 84
f 84 88 85
f 84 85 81
f 89 90 91
f 89 91 92
f 93 96 95
f 93 95 94
f 89 93 94
f 89 94 90
f 90 94 95
f 90 95 91
f 91 95 96
f 91 96 92
f 92 96 93
f 92 93 89
f 97 98 99
f 97 99 100
f 101 104 103
f 101 103 102
f 97 101 102
f 97 102 98
f 98 102 103
f 98 103 99
f 99 103 104
f 99 104 100
f 100 104 101
f 100 101 97
f 105 106 107
f 105 107 108
f 109 112 111
f 109 111 110
f 105 109 110
f 105 110 106
f 106 110 111
f 106 111 107
f 107 111 112
f 107 112 108
f 108 112 109
f 108 109 105
f 113 114 115
f 113 115 116
f 117 120 119
f 117 119 118
f 113 117 118
f 113 118 114
f 114 118 119
f 114 119 115
f 115 119 120
f 115 120 116
f 116 120 117
f 116 117 113
f 121 122 123
f 121 123 124
f 125 128 127
f 125 127 126
f 121 125 126
f 121 126 122
f 122 126 127
f 122 127 123
f 123 127 128
f 123 128 124
f 124 128 125
f 124 125 121
f 129 130 131
f 129 131 132
f 133 136 135
f 133 135 134
f 129 133 134
f 129 134 130
f 130 134 135
f 130 135 131
f 131 135 136
f 131 136 132
f 132 136 133
f 132 133 129
f 137 138 139
f 137 139 140
f 141 144 143
f 141 143 142
f 137 141 142
f 137 142 138
f 138 142 143
f 138 143 139
f 139 143 144
f 139 144 140
f 140 144 141
f 140 141 137
f 145 146 147
f 145 147 148
f 149 152 151
f 149 151 150
f 145 149 150
f 145 150 146
f 146 150 151
f 146 151 147
f 147 151 152
f 147 152 148
f 148 152 149
f 148 149 145
f 153 154 155
f 153 155 156
f 157 160 159
f 157 159 158
f 153 157 158
f 153 158 154
f 154 158 159
f 154 159 155
f 155 159 160
f 155 160 156
f 156 160 157
f 156 157 153
f 161 162 163
f 161 163 164
f 165 168 167
f 165 167 166
f 161 165 166
f 161 166 162
f 162 166 167
f 162 167 163
f 163 167 168
f 163 168 164
f 164 168 165
f 164 165 161
f 169 170 171
f 169 171 172
f 173 176 175
f 173 175 174
f 169 173 174
f 169 174 170
f 170 174 175
f 170 175 171
f 171 175 176
f 171 176 172
f 172 176 173
f 172 173 169
f 177 178 179
f 177 179 180
f 181 184 183
f 181 183 182
f 177 181 182
f 177 182 178
f 178 182 183
f 178 183 179
f 179 183 184
f 179 184 180
f 180 184 181
f 180 181 177
f 185 186 187
f 185 187 188
f 189 192 191
f 189 191 190
f 185 189 190
f 185 190 186
f 186 190 191
f 186 191 187
f 187 191 192
f 187 192 188
f 188 192 189
f 188 189 185
f 193 194 195
f 193 195 196
f 197 200 199
f 197 199 198
f 193 197 198
f 193 198 194
f 194 198 199
f 194 199 195
f 195 199 200
f 195 200 196
f 196 200 197
f 196 197 193
f 201 202 203
f 201 203 204
f 205 208 207
f 205 207 206
f 201 205 206
f 201 206 202
f 202 206 207
f 202 207 203
f 203 207 208
f 203 208 204
f 204 208 205
f 204 205 201
f 209 210 211
f 209 211 212
f 213 216 215
f 213 215 214
f 209 213 214
f 209 214 210
f 210 214 215
f 210 215 211
f 211 215 216
f 211 216 212
f 212 216 213
f 212 213 209
f 217 218 219
f 217 219 220
f 221 224 223
f 221 223 222
f 217 221 222
f 217 222 218
f 218 222 223
f 218 223 219
f 219 223 224
f 219 224 220
f 220 224 221
f 220 221 217
f 225 226 227
f 225 227 228
f 229 232 231
f 229 231 230
f 225 229 230
f 225 230 226
f 226 230 231
f 226 231 227
f 227 231 232
f 227 232 228
f 228 232 229
f 228 229 225
f 233 234 235
f 233 235 236
f 237 240 239
f 237 239 238
f 233 237 238
f 233 238 234
f 234 238 239
f 234 239 235
f 235 239 240
f 235 240 236
f 236 240 237
f 236 237 233
f 241 242 243
f 241 243 244
f 245 248 247
f 245 247 246
f 241 245 246
f 241 246 242
f 242 246 247
f 242 247 243
f 243 247 248
f 243 248 244
f 244 248 245
f 244 245 241
f 249 250 251
f 249 251 252
f 253 256 255
f 253 255 254
f 249 253 254
f 249 254 250
f 250 254 255
f 250 255 251
f 251 255 256
f 251 256 252
f 252 256 253
f 252 253 249
f 257 258 259
f 257 259 260
f 261 264 263
f 261 263 262
f 257 261 262
f 257 262 258
f 258 262 263
f 258 263 259
f 259 263 264
f 259 264 260
f 260 264 261
f 260 261 257
f 265 266 267
f 265 267 268
f 269 272 271
f 269 271 270
f 265 269 270
f 265 270 266
f 266 270 271
f 266 271 267
f 267 271 272
f 267 272 268
f 268 272 269
f 268 269 265
f 273 274 275
f 273 275 276
f 277 280 279
f 277 279 278
f 273 277 278
f 273 278 274
f 274 278 279
f 274 279 275
f 275 279 280
f 275 280 276
f 276 280 277
f 276 277 273
f 281 282 283
f 281 283 284
f 285 288 287
f 285 287 286
f 281 285 286
f 281 286 282
f 282 286 287
f 282 287 283
f 283 287 288
f 283 288 284
f 284 288 285
f 284 285 281
f 289 290 291
f 289 291 292
f 293 296 295
f 293 295 294
f 289 293 294
f 289 294 290
f 290 294 295
f 290 295 291
f 291 295 296
f 291 296 292
f 292 296 293
f 292 293 289
f 297 298 299
f 297 299 300
f 301 304 303
f 301 303 302
f 297 301 302
f 297 302 298
f 298 302 303
f 298 303 299
f 299 303 304
f 299 304 300
f 300 304 301
f 300 301 297
f 305 306 307
f 305 307 308
f 309 312 311
f 309 311 310
f 305 309 310
f 305 310 306
f 306 310 311
f 306 311 307
f 307 311 312
f 307 312 308
f 308 312 309
f 308 309 305
f 313 314 315
f 313 315 316
f 317 320 319
f 317 319 318
f 313 317 318
f 313 318 314
f 314 318 319
f 314 319 315
f 315 319 320
f 315 320 316
f 316 320 317
f 316 317 313
f 321 322 323
f 321 323 324
f 325 328 327
f 325 327 326
f 321 325 326
f 321 326 322
f 322 326 327
f 322 327 323
f 323 327 328
f 323 328 324
f 324 328 325
f 324 325 321
f 329 330 331
f 329 331 332
f 333 336 335
f 333 335 334
f 329 333 334
f 329 334 330
f 330 334 335
f 330 335 331
f 331 335 336
f 331 336 332
f 332 336 333
f 332 333 329
f 337 338 339
f 337 339 340
f 341 344 343
f 341 343 342
f 337 341 342
f 337 342 338
f 338 342 343
f 338 343 339
f 339 343 344
f 339 344 340
f 340 344 341
f 340 341 337
f 345 346 347
f 345 347 348
f 349 352 351
f 349 351 350
f 345 349 350
f 345 350 346
f 346 350 351
f 346 351 347
f 347 351 352
f 347 352 348
f 348 352 349
f 348 349 345
f 353 354 355
f 353 355 356
f 357 360 359
f 357 359 358
f 353 357 358
f 353 358 354
f 354 358 359
f 354 359 355
f 355 359 360
f 355 360 356
f 356 360 357
f 356 357 353
f 361 362 363
f 361 363 364
f 365 368 367
f 365 367 366
f 361 365 366
f 361 366 362
f 362 366 367
f 362 367 363
f 363 367 368
f 363 368 364
f 364 368 365
f 364 365 361
f 369 370 371
f 369 371 372
f 373 376 375
f 373 375 374
f 369 373 374
f 369 374 370
f 370 374 375
f 370 375 371
f 371 375 376
f 371 376 372
f 372 376 373
f 372 373 369
f 377 378 379
f 377 379 380
f 381 384 383
f 381 383 382
f 377 381 382
f 377 382 378
f 378 382 383
f 378 383 379
f 379 383 384
f 379 384 380
f 380 384 381
f 380 381 377
f 385 386 387
f 385 387 388
f 389 392 391
f 389 391 390
f 385 389 390
f 385 390 386
f 386 390 391
f 386 391 387
f 387 391 392
f 387 392 388
f 388 392 389
f 388 389 385
f 393 394 395
f 393 395 396
f 397 400 399
f 397 399 398
f 393 397 398
f 393 398 394
f 394 398 399
f 394 399 395
f 395 399 400
f 395 400 396
f 396 400 397
f 396 397 393
f 401 402 403
f 401 403 404
f 405 408 407
f 405 407 406
f 401 405 406
f 401 406 402
f 402 406 407
f 402 407 403
f 403 407 408
f 403 408 404
f 404 408 405
f 404 405 401
f 409 410 411
f 409 411 412
f 413 416 415
f 413 415 414
f 409 413 414
f 409 414 410
f 410 414 415
f 410 415 411
f 411 415 416
f 411 416 412
f 412 416 413
f 412 413 409
f 417 418 419
f 417 419 420
f 421 424 423
f 421 423 422
f 417 421 422
f 417 422 418
f 418 422 423
f 418 423 419
f 419 423 424
f 419 424 420
f 420 424 421
f 420 421 417
f 425 426 427
f 425 427 428
f 429 432 431
f 429 431 430
f 425 429 430
f 425 430 426
f 426 430 431
f 426 431 427
f 427 431 432
f 427 432 428
f 428 432 429
f 428 429 425
f 433 434 435
f 433 435 436
f 437 440 439
f 437 439 438
f 433 437 438
f 433 438 434
f 434 438 439
f 434 439 435
f 435 439 440
f 435 440 436
f 436 440 437
f 436 437 433
f 441 442 443
f 441 443 444
f 445 448 447
f 445 447 446
f 441 445 446
f 441 446 442
f 442 446 447
f 442 447 443
f 443 447 448
f 443 448 444
f 444 448 445
f 444 445 441
f 449 450 451
f 449 451 452
f 453 456 455
f 453 455 454
f 449 453 454
f 449 454 450
f 450 454 455
f 450 455 451
f 451 455 456
f 451 456 452
f 452 456 453
f 452 453 449
f 457 458 459
f 457 459 460
f 461 464 463
f 461 463 462
f 457 461 462
f 457 462 458
f 458 462 463
f 458 463 459
f 459 463 464
f 459 464 460
f 460 464 461
f 460 461 457
f 465 466 467
f 465 467 468
f 469 472 471
f 469 471 470
f 465 469 470
f 465 470 466
f 466 470 471
f 466 471 467
f 467 471 472
f 467 472 468
f 468 472 469
f 468 469 465
f 473 474 475
f 473 475 476
f 477 480 479
f 477 479 478
f 473 477 478
f 473 478 474
f 474 478 479
f 474 479 475
f 475 479 480
f 475 480 476
f 476 480 477
f 476 477 473
f 481 482 483
f 481 483 484
f 485 488 487
f 485 487 486
f 481 485 486
f 481 486 482
f 482 486 487
f 482 487 483
f 483 487 488
f 483 488 484
f 484 488 485
f 484 485 481
f 489 490 491
f 489 491 492
f 493 496 495
f 493 495 494
f 489 493 494
f 489 494 490
f 490 494 495
f 490 495 491
f 491 495 496
f 491 496 492
f 492 496 493
f 492 493 489
f 497 498 499
f 497 499 500
f 501 504 503
f 501 503 502
f 497 501 502
f 497 502 498
f 498 502 503
f 498 503 499
f 499 503 504
f 499 504 500
f 500 504 501
f 500 501 497
f 505 506 507
f 505 507 508
f 509 512 511
f 509 511 510
f 505 509 510
f 505 510 506
f 506 510 511
f 506 511 507
f 507 511 512
f 507 512 508
f 508 512 509
f 508 509 505
f 513 514 515
f 513 515 516
f 517 520 519
f 517 519 518
f 513 517 518
f 513 518 514
f 514 518 519
f 514 519 515
f 515 519 520
f 515 520 516
f 516 520 517
f 516 517 513
f 521 522 523
f 521 523 524
f 525 528 527
f 525 527 526
f 521 525 526
f 521 526 522
f 522 526 527
f 522 527 523
f 523 527 528
f 523 528 524
f 524 528 525
f 524 525 521
f 529 530 531
f 529 531 532
f 533 536 535
f 533 535 534
f 529 533 534
f 529 534 530
f 530 534 535
f 530 535 531
f 531 535 536
f 531 536 532
f 532 536 533
f 532 533 529
f 537 538 539
f 537 539 540
f 541 544 543
f 541 543 542
f 537 541 542
f 537 542 538
f 538 542 543
f 538 543 539
f 539 543 544
f 539 544 540
f 540 544 541
f 540 541 537
f 545 546 547
f 545 547 548
f 549 552 551
f 549 551 550
f 545 549 550
f 545 550 546
f 546 550 551
f 546 551 547
f 547 551 552
f 547 552 548
f 548 552 549
f 548 549 545
f 553 554 555
f 553 555 556
f 557 560 559
f 557 559 558
f 553 557 558
f 553 558 554
f 554 558 559
f 554 559 555
f 555 559 560
f 555 560 556
f 556 560 557
f 556 557 553
f 561 562 563
f 561 563 564
f 565 568 567
f 565 567 566
f 561 565 566
f 561 566 562
f 562 566 567
f 562 567 563
f 563 567 568
f 563 568 564
f 564 568 565
f 564 565 561
f 569 570 571
f 569 571 572
f 573 576 575
f 573 575 574
f 569 573 574
f 569 574 570
f 570 574 575
f 570 575 571
f 571 575 576
f 571 576 572
f 572 576 573
f 572 573 569
f 577 578 579
f 577 579 580
f 581 584 583
f 581 583 582
f 577 581 582
f 577 582 578
f 578 582 583
f 578 583 579
f 579 583 584
f 579 584 580
f 580 584 581
f 580 581 577
f 585 586 587
f 585 587 588
f 589 592 591
f 589 591 590
f 585 589 590
f 585 590 586
f 586 590 591
f 586 591 587
f 587 591 592
f 587 592 588
f 588 592 589
f 588 589 585
f 593 594 595
f 593 595 596
f 597 600 599
f 597 599 598
f 593 597 598
f 593 598 594
f 594 598 599
f 594 599 595
f 595 599 600
f 595 600 596
f 596 600 597
f 596 597 593
f 601 602 603
f 601 603 604
f 605 608 607
f 605 607 606
f 601 605 606
f 601 606 602
f 602 606 607
f 602 607 603
f 603 607 608
f 603 608 604
f 604 608 605
f 604 605 601
f 609 610 611
f 609 611 612
f 613 616 615
f 613 615 614
f 609 613 614
f 609 614 610
f 610 614 615
f 610 615 611
f 611 615 616
f 611 616 612
f 612 616 613
f 612 613 609
f 617 618 619
f 617 619 620
f 621 624 623
f 621 623 622
f 617 621 622
f 617 622 618
f 618 622 623
f 618 623 619
f 619 623 624
f 619 624 620
f 620 624 621
f 620 621 617
f 625 626 627
f 625 627 628
f 629 632 631
f 629 631 630
f 625 629 630
f 625 630 626
f 626 630 631
f 626 631 627
f 627 631 632
f 627 632 628
f 628 632 629
f 628 629 625
f 633 634 635
f 633 635 636
f 637 640 639
f 637 639 638
f 633 637 638
f 633 638 634
f 634 638 639
f 634 639 635
f 635 639 640
f 635 640 636
f 636 640 637
f 636 637 633
f 641 642 643
f 641 643 644
f 645 648 647
f 645 647 646
f 641 645 646
f 641 646 642
f 642 646 647
f 642 647 643
f 643 647 648
f 643 648 644
f 644 648 645
f 644 645 641
f 649 650 651
f 649 651 652
f 653 656 655
f 653 655 654
f 649 653 654
f 649 654 650
f 650 654 655
f 650 655 651
f 651 655 656
f 651 656 652
f 652 656 653
f 652 653 649
f 657 658 659
f 657 659 660
f 661 664 663
f 661 663 662
f 657 661 662
f 657 662 658
f 658 662 663
f 658 663 659
f 659 663 664
f 659 664 660
f 660 664 661
f 660 661 657
f 665 666 667
f 665 667 668
f 669 672 671
f 669 671 670
f 665 669 670
f 665 670 666
f 666 670 671
f 666 671 667
f 667 671 672
f 667 672 668
f 668 672 669
f 668 669 665
f 673 674 675
f 673 675 676
f 677 680 679
f 677 679 678
f 673 677 678
f 673 678 674
f 674 678 679
f 674 679 675
f 675 679 680
f 675 680 676
f 676 680 677
f 676 677 673
f 681 682 683
f 681 683 684
f 685 688 687
f 685 687 686
f 681 685 686
f 681 686 682
f 682 686 687
f 682 687 683
f 683 687 688
f 683 688 684
f 684 688 685
f 684 685 681
f 689 690 691
f 689 691 692
f 693 696 695
f 693 695 694
f 689 693 694
f 689 694 690
f 690 694 695
f 690 695 691
f 691 695 696
f 691 696 692
f 692 696 693
f 692 693 689
f 697 698 699
f 697 699 700
f 701 704 703
f 701 703 702
f 697 701 702
f 697 702 698
f 698 702 703
f 698 703 699
f 699 703 704
f 699 704 700
f 700 704 701
f 700 701 697
f 705 706 707
f 705 707 708
f 709 712 711
f 709 711 710
f 705 709 710
f 705 710 706
f 706 710 711
f 706 711 707
f 707 711 712
f 707 712 708
f 708 712 709
f 708 709 705
f 713 714 715
f 713 715 716
f 717 720 719
f 717 719 718
f 713 717 718
f 713 718 714
f 714 718 719
f 714 719 715
f 715 719 720
f 715 720 716
f 716 720 717
f 716 717 713
f 721 722 723
f 721 723 724
f 725 728 727
f 725 727 726
f 721 725 726
f 721 726 722
f 722 726 727
f 722 727 723
f 723 727 728
f 723 728 724
f 724 728 725
f 724 725 721
f 729 730 731
f 729 731 732
f 733 736 735
f 733 735 734
f 729 733 734
f 729 734 730
f 730 734 735
f 730 735 731
f 731 735 736
f 731 736 732
f 732 736 733
f 732 733 729
f 737 738 739
f 737 739 740
f 741 744 743
f 741 743 742
f 737 741 742
f 737 742 738
f 738 742 743
f 738 743 739
f 739 743 744
f 739 744 740
f 740 744 741
f 740 741 737
f 745 746 747
f 745 747 748
f 749 752 751
f 749 751 750
f 745 749 750
f 745 750 746
f 746 750 751
f 746 751 747
f 747 751 752
f 747 752 748
f 748 752 749
f 748 749 745
f 753 754 755
f 753 755 756
f 757 760 759
f 757 759 758
f 753 757 758
f 753 758 754
f 754 758 759
f 754 759 755
f 755 759 760
f 755 760 756
f 756 760 757
f 756 757 753
