o [4B] 3D Diagram - S2-09 Group A_203
v -8.370000 -1.215000 23.993750
v -8.370000 0.000000 23.993750
v -8.370000 0.000000 24.137500
v -8.370000 -1.215000 24.137500
v -7.830000 -1.215000 23.993750
v -7.830000 -1.215000 24.137500
v -7.830000 0.000000 23.993750
v -8.370000 0.000000 24.281250
v -8.370000 -1.215000 24.281250
v -7.830000 -1.215000 24.281250
v -8.370000 0.000000 24.425000
v -8.370000 -1.215000 24.425000
v -7.830000 -1.215000 24.425000
v -8.370000 0.000000 24.568750
v -8.370000 -1.215000 24.568750
v -7.830000 -1.215000 24.568750
v -8.370000 0.000000 24.712500
v -8.370000 -1.215000 24.712500
v -7.830000 -1.215000 24.712500
v -8.370000 0.000000 24.856250
v -8.370000 -1.215000 24.856250
v -7.830000 -1.215000 24.856250
v -8.370000 0.000000 25.000000
v -8.370000 -1.215000 25.000000
v -7.830000 -1.215000 25.000000
v -8.370000 0.000000 25.143750
v -8.370000 -1.215000 25.143750
v -7.830000 -1.215000 25.143750
v -8.370000 0.000000 25.287500
v -8.370000 -1.215000 25.287500
v -7.830000 -1.215000 25.287500
v -8.370000 0.000000 25.431250
v -8.370000 -1.215000 25.431250
v -7.830000 -1.215000 25.431250
v -8.370000 0.000000 25.575000
v -8.370000 -1.215000 25.575000
v -7.830000 -1.215000 25.575000
v -8.370000 0.000000 25.718750
v -8.370000 -1.215000 25.718750
v -7.830000 -1.215000 25.718750
v -8.370000 0.000000 25.862500
v -8.370000 -1.215000 25.862500
v -7.830000 -1.215000 25.862500
v -8.370000 0.000000 26.006250
v -8.370000 -1.215000 26.006250
v -7.830000 -1.215000 26.006250
v -7.830000 0.000000 26.006250
v -8.370000 1.215000 23.993750
v -8.370000 1.215000 24.137500
v -7.830000 1.215000 24.137500
v -7.830000 1.215000 23.993750
v -8.370000 1.215000 24.281250
v -7.830000 1.215000 24.281250
v -8.370000 1.215000 24.425000
v -7.830000 1.215000 24.425000
v -8.370000 1.215000 24.568750
v -7.830000 1.215000 24.568750
v -8.370000 1.215000 24.712500
v -7.830000 1.215000 24.712500
v -8.370000 1.215000 24.856250
v -7.830000 1.215000 24.856250
v -8.370000 1.215000 25.000000
v -7.830000 1.215000 25.000000
v -8.370000 1.215000 25.143750
v -7.830000 1.215000 25.143750
v -8.370000 1.215000 25.287500
v -7.830000 1.215000 25.287500
v -8.370000 1.215000 25.431250
v -7.830000 1.215000 25.431250
v -8.370000 1.215000 25.575000
v -7.830000 1.215000 25.575000
v -8.370000 1.215000 25.718750
v -7.830000 1.215000 25.718750
v -8.370000 1.215000 25.862500
v -7.830000 1.215000 25.862500
v -8.370000 1.215000 26.006250
v -7.830000 1.215000 26.006250
v -7.290000 -1.215000 23.993750
v -7.290000 -1.215000 24.137500
v -7.290000 0.000000 23.993750
v -7.290000 -1.215000 24.281250
v -7.290000 -1.215000 24.425000
v -7.290000 -1.215000 24.568750
v -7.290000 -1.215000 24.712500
v -7.290000 -1.215000 24.856250
v -7.290000 -1.215000 25.000000
v -7.290000 -1.215000 25.143750
v -7.290000 -1.215000 25.287500
v -7.290000 -1.215000 25.431250
v -7.290000 -1.215000 25.575000
v -7.290000 -1.215000 25.718750
v -7.290000 -1.215000 25.862500
v -7.290000 -1.215000 26.006250
v -7.290000 0.000000 26.006250
v -7.290000 1.215000 24.137500
v -7.290000 1.215000 23.993750
v -7.290000 1.215000 24.281250
v -7.290000 1.215000 24.425000
v -7.290000 1.215000 24.568750
v -7.290000 1.215000 24.712500
v -7.290000 1.215000 24.856250
v -7.290000 1.215000 25.000000
v -7.290000 1.215000 25.143750
v -7.290000 1.215000 25.287500
v -7.290000 1.215000 25.431250
v -7.290000 1.215000 25.575000
v -7.290000 1.215000 25.718750
v -7.290000 1.215000 25.862500
v -7.290000 1.215000 26.006250
v -7.290000 -2.430000 23.993750
v -7.290000 -2.430000 24.137500
v -6.750000 -2.430000 23.993750
v -6.750000 -2.430000 24.137500
v -6.750000 -1.215000 23.993750
v -7.290000 -2.430000 24.281250
v -6.750000 -2.430000 24.281250
v -7.290000 -2.430000 24.425000
v -6.750000 -2.430000 24.425000
v -7.290000 -2.430000 24.568750
v -6.750000 -2.430000 24.568750
v -7.290000 -2.430000 24.712500
v -6.750000 -2.430000 24.712500
v -7.290000 -2.430000 24.856250
v -6.750000 -2.430000 24.856250
v -7.290000 -2.430000 25.000000
v -6.750000 -2.430000 25.000000
v -7.290000 -2.430000 25.143750
v -6.750000 -2.430000 25.143750
v -7.290000 -2.430000 25.287500
v -6.750000 -2.430000 25.287500
v -7.290000 -2.430000 25.431250
v -6.750000 -2.430000 25.431250
v -7.290000 -2.430000 25.575000
v -6.750000 -2.430000 25.575000
v -7.290000 -2.430000 25.718750
v -6.750000 -2.430000 25.718750
v -7.290000 -2.430000 25.862500
v -6.750000 -2.430000 25.862500
v -7.290000 -2.430000 26.006250
v -6.750000 -2.430000 26.006250
v -6.750000 -1.215000 26.006250
v -6.750000 0.000000 23.993750
v -6.750000 0.000000 26.006250
v -6.750000 1.215000 23.993750
v -6.750000 1.215000 26.006250
v -7.290000 2.430000 23.993750
v -7.290000 2.430000 24.137500
v -6.750000 2.430000 24.137500
v -6.750000 2.430000 23.993750
v -7.290000 2.430000 24.281250
v -6.750000 2.430000 24.281250
v -7.290000 2.430000 24.425000
v -6.750000 2.430000 24.425000
v -7.290000 2.430000 24.568750
v -6.750000 2.430000 24.568750
v -7.290000 2.430000 24.712500
v -6.750000 2.430000 24.712500
v -7.290000 2.430000 24.856250
v -6.750000 2.430000 24.856250
v -7.290000 2.430000 25.000000
v -6.750000 2.430000 25.000000
v -7.290000 2.430000 25.143750
v -6.750000 2.430000 25.143750
v -7.290000 2.430000 25.287500
v -6.750000 2.430000 25.287500
v -7.290000 2.430000 25.431250
v -6.750000 2.430000 25.431250
v -7.290000 2.430000 25.575000
v -6.750000 2.430000 25.575000
v -7.290000 2.430000 25.718750
v -6.750000 2.430000 25.718750
v -7.290000 2.430000 25.862500
v -6.750000 2.430000 25.862500
v -7.290000 2.430000 26.006250
v -6.750000 2.430000 26.006250
v -6.210000 -2.430000 23.993750
v -6.210000 -2.430000 24.137500
v -6.210000 -1.215000 23.993750
v -6.210000 -2.430000 24.281250
v -6.210000 -2.430000 24.425000
v -6.210000 -2.430000 24.568750
v -6.210000 -2.430000 24.712500
v -6.210000 -2.430000 24.856250
v -6.210000 -2.430000 25.000000
v -6.210000 -2.430000 25.143750
v -6.210000 -2.430000 25.287500
v -6.210000 -2.430000 25.431250
v -6.210000 -2.430000 25.575000
v -6.210000 -2.430000 25.718750
v -6.210000 -2.430000 25.862500
v -6.210000 -2.430000 26.006250
v -6.210000 -1.215000 26.006250
v -6.210000 0.000000 23.993750
v -6.210000 0.000000 26.006250
v -6.210000 1.215000 23.993750
v -6.210000 1.215000 26.006250
v -6.210000 2.430000 24.137500
v -6.210000 2.430000 23.993750
v -6.210000 2.430000 24.281250
v -6.210000 2.430000 24.425000
v -6.210000 2.430000 24.568750
v -6.210000 2.430000 24.712500
v -6.210000 2.430000 24.856250
v -6.210000 2.430000 25.000000
v -6.210000 2.430000 25.143750
v -6.210000 2.430000 25.287500
v -6.210000 2.430000 25.431250
v -6.210000 2.430000 25.575000
v -6.210000 2.430000 25.718750
v -6.210000 2.430000 25.862500
v -6.210000 2.430000 26.006250
v -6.210000 -3.645000 23.993750
v -6.210000 -3.645000 24.137500
v -5.670000 -3.645000 23.993750
v -5.670000 -3.645000 24.137500
v -5.670000 -2.430000 23.993750
v -6.210000 -3.645000 24.281250
v -5.670000 -3.645000 24.281250
v -6.210000 -3.645000 24.425000
v -5.670000 -3.645000 24.425000
v -6.210000 -3.645000 24.568750
v -5.670000 -3.645000 24.568750
v -6.210000 -3.645000 24.712500
v -5.670000 -3.645000 24.712500
v -6.210000 -3.645000 24.856250
v -5.670000 -3.645000 24.856250
v -6.210000 -3.645000 25.000000
v -5.670000 -3.645000 25.000000
v -6.210000 -3.645000 25.143750
v -5.670000 -3.645000 25.143750
v -6.210000 -3.645000 25.287500
v -5.670000 -3.645000 25.287500
v -6.210000 -3.645000 25.431250
v -5.670000 -3.645000 25.431250
v -6.210000 -3.645000 25.575000
v -5.670000 -3.645000 25.575000
v -6.210000 -3.645000 25.718750
v -5.670000 -3.645000 25.718750
v -6.210000 -3.645000 25.862500
v -5.670000 -3.645000 25.862500
v -6.210000 -3.645000 26.006250
v -5.670000 -3.645000 26.006250
v -5.670000 -2.430000 26.006250
v -5.670000 -1.215000 23.993750
v -5.670000 -1.215000 26.006250
v -5.670000 0.000000 23.993750
v -5.670000 0.000000 26.006250
v -5.670000 1.215000 23.993750
v -5.670000 1.215000 26.006250
v -5.670000 2.430000 23.993750
v -5.670000 2.430000 26.006250
v -6.210000 3.645000 23.993750
v -6.210000 3.645000 24.137500
v -5.670000 3.645000 24.137500
v -5.670000 3.645000 23.993750
v -6.210000 3.645000 24.281250
v -5.670000 3.645000 24.281250
v -6.210000 3.645000 24.425000
v -5.670000 3.645000 24.425000
v -6.210000 3.645000 24.568750
v -5.670000 3.645000 24.568750
v -6.210000 3.645000 24.712500
v -5.670000 3.645000 24.712500
v -6.210000 3.645000 24.856250
v -5.670000 3.645000 24.856250
v -6.210000 3.645000 25.000000
v -5.670000 3.645000 25.000000
v -6.210000 3.645000 25.143750
v -5.670000 3.645000 25.143750
v -6.210000 3.645000 25.287500
v -5.670000 3.645000 25.287500
v -6.210000 3.645000 25.431250
v -5.670000 3.645000 25.431250
v -6.210000 3.645000 25.575000
v -5.670000 3.645000 25.575000
v -6.210000 3.645000 25.718750
v -5.670000 3.645000 25.718750
v -6.210000 3.645000 25.862500
v -5.670000 3.645000 25.862500
v -6.210000 3.645000 26.006250
v -5.670000 3.645000 26.006250
v -5.130000 -3.645000 23.993750
v -5.130000 -3.645000 24.137500
v -5.130000 -2.430000 23.993750
v -5.130000 -3.645000 24.281250
v -5.130000 -3.645000 24.425000
v -5.130000 -3.645000 24.568750
v -5.130000 -3.645000 24.712500
v -5.130000 -3.645000 24.856250
v -5.130000 -3.645000 25.000000
v -5.130000 -3.645000 25.143750
v -5.130000 -3.645000 25.287500
v -5.130000 -3.645000 25.431250
v -5.130000 -3.645000 25.575000
v -5.130000 -3.645000 25.718750
v -5.130000 -3.645000 25.862500
v -5.130000 -3.645000 26.006250
v -5.130000 -2.430000 26.006250
v -5.130000 -1.215000 23.993750
v -5.130000 -1.215000 26.006250
v -5.130000 0.000000 23.993750
v -5.130000 0.000000 26.006250
v -5.130000 1.215000 23.993750
v -5.130000 1.215000 26.006250
v -5.130000 2.430000 23.993750
v -5.130000 2.430000 26.006250
v -5.130000 3.645000 24.137500
v -5.130000 3.645000 23.993750
v -5.130000 3.645000 24.281250
v -5.130000 3.645000 24.425000
v -5.130000 3.645000 24.568750
v -5.130000 3.645000 24.712500
v -5.130000 3.645000 24.856250
v -5.130000 3.645000 25.000000
v -5.130000 3.645000 25.143750
v -5.130000 3.645000 25.287500
v -5.130000 3.645000 25.431250
v -5.130000 3.645000 25.575000
v -5.130000 3.645000 25.718750
v -5.130000 3.645000 25.862500
v -5.130000 3.645000 26.006250
v -4.590000 -3.645000 23.993750
v -4.590000 -3.645000 24.137500
v -4.590000 -2.430000 23.993750
v -4.590000 -3.645000 24.281250
v -4.590000 -3.645000 24.425000
v -4.590000 -3.645000 24.568750
v -4.590000 -3.645000 24.712500
v -4.590000 -3.645000 24.856250
v -4.590000 -3.645000 25.000000
v -4.590000 -3.645000 25.143750
v -4.590000 -3.645000 25.287500
v -4.590000 -3.645000 25.431250
v -4.590000 -3.645000 25.575000
v -4.590000 -3.645000 25.718750
v -4.590000 -3.645000 25.862500
v -4.590000 -3.645000 26.006250
v -4.590000 -2.430000 26.006250
v -4.590000 -1.215000 23.993750
v -4.590000 -1.215000 26.006250
v -4.590000 0.000000 23.993750
v -4.590000 0.000000 26.006250
v -4.590000 1.215000 23.993750
v -4.590000 1.215000 26.006250
v -4.590000 2.430000 23.993750
v -4.590000 2.430000 26.006250
v -4.590000 3.645000 24.137500
v -4.590000 3.645000 23.993750
v -4.590000 3.645000 24.281250
v -4.590000 3.645000 24.425000
v -4.590000 3.645000 24.568750
v -4.590000 3.645000 24.712500
v -4.590000 3.645000 24.856250
v -4.590000 3.645000 25.000000
v -4.590000 3.645000 25.143750
v -4.590000 3.645000 25.287500
v -4.590000 3.645000 25.431250
v -4.590000 3.645000 25.575000
v -4.590000 3.645000 25.718750
v -4.590000 3.645000 25.862500
v -4.590000 3.645000 26.006250
v -4.590000 -4.860000 23.993750
v -4.590000 -4.860000 24.137500
v -4.050000 -4.860000 23.993750
v -4.050000 -4.860000 24.137500
v -4.050000 -3.645000 23.993750
v -4.590000 -4.860000 24.281250
v -4.050000 -4.860000 24.281250
v -4.590000 -4.860000 24.425000
v -4.050000 -4.860000 24.425000
v -4.590000 -4.860000 24.568750
v -4.050000 -4.860000 24.568750
v -4.590000 -4.860000 24.712500
v -4.050000 -4.860000 24.712500
v -4.590000 -4.860000 24.856250
v -4.050000 -4.860000 24.856250
v -4.590000 -4.860000 25.000000
v -4.050000 -4.860000 25.000000
v -4.590000 -4.860000 25.143750
v -4.050000 -4.860000 25.143750
v -4.590000 -4.860000 25.287500
v -4.050000 -4.860000 25.287500
v -4.590000 -4.860000 25.431250
v -4.050000 -4.860000 25.431250
v -4.590000 -4.860000 25.575000
v -4.050000 -4.860000 25.575000
v -4.590000 -4.860000 25.718750
v -4.050000 -4.860000 25.718750
v -4.590000 -4.860000 25.862500
v -4.050000 -4.860000 25.862500
v -4.590000 -4.860000 26.006250
v -4.050000 -4.860000 26.006250
v -4.050000 -3.645000 26.006250
v -4.050000 -2.430000 23.993750
v -4.050000 -2.430000 26.006250
v -4.050000 -1.215000 23.993750
v -4.050000 -1.215000 26.006250
v -4.050000 0.000000 23.993750
v -4.050000 0.000000 26.006250
v -4.050000 1.215000 23.993750
v -4.050000 1.215000 26.006250
v -4.050000 2.430000 23.993750
v -4.050000 2.430000 26.006250
v -4.050000 3.645000 23.993750
v -4.050000 3.645000 26.006250
v -4.590000 4.860000 23.993750
v -4.590000 4.860000 24.137500
v -4.050000 4.860000 24.137500
v -4.050000 4.860000 23.993750
v -4.590000 4.860000 24.281250
v -4.050000 4.860000 24.281250
v -4.590000 4.860000 24.425000
v -4.050000 4.860000 24.425000
v -4.590000 4.860000 24.568750
v -4.050000 4.860000 24.568750
v -4.590000 4.860000 24.712500
v -4.050000 4.860000 24.712500
v -4.590000 4.860000 24.856250
v -4.050000 4.860000 24.856250
v -4.590000 4.860000 25.000000
v -4.050000 4.860000 25.000000
v -4.590000 4.860000 25.143750
v -4.050000 4.860000 25.143750
v -4.590000 4.860000 25.287500
v -4.050000 4.860000 25.287500
v -4.590000 4.860000 25.431250
v -4.050000 4.860000 25.431250
v -4.590000 4.860000 25.575000
v -4.050000 4.860000 25.575000
v -4.590000 4.860000 25.718750
v -4.050000 4.860000 25.718750
v -4.590000 4.860000 25.862500
v -4.050000 4.860000 25.862500
v -4.590000 4.860000 26.006250
v -4.050000 4.860000 26.006250
v -3.510000 -4.860000 23.993750
v -3.510000 -4.860000 24.137500
v -3.510000 -3.645000 23.993750
v -3.510000 -4.860000 24.281250
v -3.510000 -4.860000 24.425000
v -3.510000 -4.860000 24.568750
v -3.510000 -4.860000 24.712500
v -3.510000 -4.860000 24.856250
v -3.510000 -4.860000 25.000000
v -3.510000 -4.860000 25.143750
v -3.510000 -4.860000 25.287500
v -3.510000 -4.860000 25.431250
v -3.510000 -4.860000 25.575000
v -3.510000 -4.860000 25.718750
v -3.510000 -4.860000 25.862500
v -3.510000 -4.860000 26.006250
v -3.510000 -3.645000 26.006250
v -3.510000 -2.430000 23.993750
v -3.510000 -2.430000 26.006250
v -3.510000 -1.215000 23.993750
v -3.510000 -1.215000 26.006250
v -3.510000 0.000000 23.993750
v -3.510000 0.000000 26.006250
v -3.510000 1.215000 23.993750
v -3.510000 1.215000 26.006250
v -3.510000 2.430000 23.993750
v -3.510000 2.430000 26.006250
v -3.510000 3.645000 23.993750
v -3.510000 3.645000 26.006250
v -3.510000 4.860000 24.137500
v -3.510000 4.860000 23.993750
v -3.510000 4.860000 24.281250
v -3.510000 4.860000 24.425000
v -3.510000 4.860000 24.568750
v -3.510000 4.860000 24.712500
v -3.510000 4.860000 24.856250
v -3.510000 4.860000 25.000000
v -3.510000 4.860000 25.143750
v -3.510000 4.860000 25.287500
v -3.510000 4.860000 25.431250
v -3.510000 4.860000 25.575000
v -3.510000 4.860000 25.718750
v -3.510000 4.860000 25.862500
v -3.510000 4.860000 26.006250
v -3.510000 -6.075000 23.993750
v -3.510000 -6.075000 24.137500
v -2.970000 -6.075000 23.993750
v -2.970000 -6.075000 24.137500
v -2.970000 -4.860000 23.993750
v -3.510000 -6.075000 24.281250
v -2.970000 -6.075000 24.281250
v -3.510000 -6.075000 24.425000
v -2.970000 -6.075000 24.425000
v -3.510000 -6.075000 24.568750
v -2.970000 -6.075000 24.568750
v -3.510000 -6.075000 24.712500
v -2.970000 -6.075000 24.712500
v -3.510000 -6.075000 24.856250
v -2.970000 -6.075000 24.856250
v -3.510000 -6.075000 25.000000
v -2.970000 -6.075000 25.000000
v -3.510000 -6.075000 25.143750
v -2.970000 -6.075000 25.143750
v -3.510000 -6.075000 25.287500
v -2.970000 -6.075000 25.287500
v -3.510000 -6.075000 25.431250
v -2.970000 -6.075000 25.431250
v -3.510000 -6.075000 25.575000
v -2.970000 -6.075000 25.575000
v -3.510000 -6.075000 25.718750
v -2.970000 -6.075000 25.718750
v -3.510000 -6.075000 25.862500
v -2.970000 -6.075000 25.862500
v -3.510000 -6.075000 26.006250
v -2.970000 -6.075000 26.006250
v -2.970000 -4.860000 26.006250
v -2.970000 -3.645000 23.993750
v -2.970000 -3.645000 26.006250
v -2.970000 -2.430000 23.993750
v -2.970000 -2.430000 26.006250
v -2.970000 -1.215000 23.993750
v -2.970000 -1.215000 26.006250
v -2.970000 0.000000 23.993750
v -2.970000 0.000000 26.006250
v -2.970000 1.215000 23.993750
v -2.970000 1.215000 26.006250
v -2.970000 2.430000 23.993750
v -2.970000 2.430000 26.006250
v -2.970000 3.645000 23.993750
v -2.970000 3.645000 26.006250
v -2.970000 4.860000 23.993750
v -2.970000 4.860000 26.006250
v -3.510000 6.075000 23.993750
v -3.510000 6.075000 24.137500
v -2.970000 6.075000 24.137500
v -2.970000 6.075000 23.993750
v -3.510000 6.075000 24.281250
v -2.970000 6.075000 24.281250
v -3.510000 6.075000 24.425000
v -2.970000 6.075000 24.425000
v -3.510000 6.075000 24.568750
v -2.970000 6.075000 24.568750
v -3.510000 6.075000 24.712500
v -2.970000 6.075000 24.712500
v -3.510000 6.075000 24.856250
v -2.970000 6.075000 24.856250
v -3.510000 6.075000 25.000000
v -2.970000 6.075000 25.000000
v -3.510000 6.075000 25.143750
v -2.970000 6.075000 25.143750
v -3.510000 6.075000 25.287500
v -2.970000 6.075000 25.287500
v -3.510000 6.075000 25.431250
v -2.970000 6.075000 25.431250
v -3.510000 6.075000 25.575000
v -2.970000 6.075000 25.575000
v -3.510000 6.075000 25.718750
v -2.970000 6.075000 25.718750
v -3.510000 6.075000 25.862500
v -2.970000 6.075000 25.862500
v -3.510000 6.075000 26.006250
v -2.970000 6.075000 26.006250
v -2.430000 -6.075000 23.993750
v -2.430000 -6.075000 24.137500
v -2.430000 -4.860000 23.993750
v -2.430000 -6.075000 24.281250
v -2.430000 -6.075000 24.425000
v -2.430000 -6.075000 24.568750
v -2.430000 -6.075000 24.712500
v -2.430000 -6.075000 24.856250
v -2.430000 -6.075000 25.000000
v -2.430000 -6.075000 25.143750
v -2.430000 -6.075000 25.287500
v -2.430000 -6.075000 25.431250
v -2.430000 -6.075000 25.575000
v -2.430000 -6.075000 25.718750
v -2.430000 -6.075000 25.862500
v -2.430000 -6.075000 26.006250
v -2.430000 -4.860000 26.006250
v -2.430000 -3.645000 23.993750
v -2.430000 -3.645000 26.006250
v -2.430000 -2.430000 23.993750
v -2.430000 -2.430000 26.006250
v -2.430000 -1.215000 23.993750
v -2.430000 -1.215000 26.006250
v -2.430000 0.000000 23.993750
v -2.430000 0.000000 26.006250
v -2.430000 1.215000 23.993750
v -2.430000 1.215000 26.006250
v -2.430000 2.430000 23.993750
v -2.430000 2.430000 26.006250
v -2.430000 3.645000 23.993750
v -2.430000 3.645000 26.006250
v -2.430000 4.860000 23.993750
v -2.430000 4.860000 26.006250
v -2.430000 6.075000 24.137500
v -2.430000 6.075000 23.993750
v -2.430000 6.075000 24.281250
v -2.430000 6.075000 24.425000
v -2.430000 6.075000 24.568750
v -2.430000 6.075000 24.712500
v -2.430000 6.075000 24.856250
v -2.430000 6.075000 25.000000
v -2.430000 6.075000 25.143750
v -2.430000 6.075000 25.287500
v -2.430000 6.075000 25.431250
v -2.430000 6.075000 25.575000
v -2.430000 6.075000 25.718750
v -2.430000 6.075000 25.862500
v -2.430000 6.075000 26.006250
v -2.430000 -7.290000 23.993750
v -2.430000 -7.290000 24.137500
v -1.890000 -7.290000 23.993750
v -1.890000 -7.290000 24.137500
v -1.890000 -6.075000 23.993750
v -2.430000 -7.290000 24.281250
v -1.890000 -7.290000 24.281250
v -2.430000 -7.290000 24.425000
v -1.890000 -7.290000 24.425000
v -2.430000 -7.290000 24.568750
v -1.890000 -7.290000 24.568750
v -2.430000 -7.290000 24.712500
v -1.890000 -7.290000 24.712500
v -2.430000 -7.290000 24.856250
v -1.890000 -7.290000 24.856250
v -2.430000 -7.290000 25.000000
v -1.890000 -7.290000 25.000000
v -2.430000 -7.290000 25.143750
v -1.890000 -7.290000 25.143750
v -2.430000 -7.290000 25.287500
v -1.890000 -7.290000 25.287500
v -2.430000 -7.290000 25.431250
v -1.890000 -7.290000 25.431250
v -2.430000 -7.290000 25.575000
v -1.890000 -7.290000 25.575000
v -2.430000 -7.290000 25.718750
v -1.890000 -7.290000 25.718750
v -2.430000 -7.290000 25.862500
v -1.890000 -7.290000 25.862500
v -2.430000 -7.290000 26.006250
v -1.890000 -7.290000 26.006250
v -1.890000 -6.075000 26.006250
v -1.890000 -4.860000 23.993750
v -1.890000 -4.860000 26.006250
v -1.890000 -3.645000 23.993750
v -1.890000 -3.645000 26.006250
v -1.890000 -2.430000 23.993750
v -1.890000 -2.430000 26.006250
v -1.890000 -1.215000 23.993750
v -1.890000 -1.215000 26.006250
v -1.890000 0.000000 23.993750
v -1.890000 0.000000 26.006250
v -1.890000 1.215000 23.993750
v -1.890000 1.215000 26.006250
v -1.890000 2.430000 23.993750
v -1.890000 2.430000 26.006250
v -1.890000 3.645000 23.993750
v -1.890000 3.645000 26.006250
v -1.890000 4.860000 23.993750
v -1.890000 4.860000 26.006250
v -1.890000 6.075000 23.993750
v -1.890000 6.075000 26.006250
v -2.430000 7.290000 23.993750
v -2.430000 7.290000 24.137500
v -1.890000 7.290000 24.137500
v -1.890000 7.290000 23.993750
v -2.430000 7.290000 24.281250
v -1.890000 7.290000 24.281250
v -2.430000 7.290000 24.425000
v -1.890000 7.290000 24.425000
v -2.430000 7.290000 24.568750
v -1.890000 7.290000 24.568750
v -2.430000 7.290000 24.712500
v -1.890000 7.290000 24.712500
v -2.430000 7.290000 24.856250
v -1.890000 7.290000 24.856250
v -2.430000 7.290000 25.000000
v -1.890000 7.290000 25.000000
v -2.430000 7.290000 25.143750
v -1.890000 7.290000 25.143750
v -2.430000 7.290000 25.287500
v -1.890000 7.290000 25.287500
v -2.430000 7.290000 25.431250
v -1.890000 7.290000 25.431250
v -2.430000 7.290000 25.575000
v -1.890000 7.290000 25.575000
v -2.430000 7.290000 25.718750
v -1.890000 7.290000 25.718750
v -2.430000 7.290000 25.862500
v -1.890000 7.290000 25.862500
v -2.430000 7.290000 26.006250
v -1.890000 7.290000 26.006250
v -1.350000 -7.290000 23.993750
v -1.350000 -7.290000 24.137500
v -1.350000 -6.075000 23.993750
v -1.350000 -7.290000 24.281250
v -1.350000 -7.290000 24.425000
v -1.350000 -7.290000 24.568750
v -1.350000 -7.290000 24.712500
v -1.350000 -7.290000 24.856250
v -1.350000 -7.290000 25.000000
v -1.350000 -7.290000 25.143750
v -1.350000 -7.290000 25.287500
v -1.350000 -7.290000 25.431250
v -1.350000 -7.290000 25.575000
v -1.350000 -7.290000 25.718750
v -1.350000 -7.290000 25.862500
v -1.350000 -7.290000 26.006250
v -1.350000 -6.075000 26.006250
v -1.350000 -4.860000 23.993750
v -1.350000 -4.860000 26.006250
v -1.350000 -3.645000 23.993750
v -1.350000 -3.645000 26.006250
v -1.350000 -2.430000 23.993750
v -1.350000 -2.430000 26.006250
v -1.350000 -1.215000 23.993750
v -1.350000 -1.215000 26.006250
v -1.350000 0.000000 23.993750
v -1.350000 0.000000 26.006250
v -1.350000 1.215000 23.993750
v -1.350000 1.215000 26.006250
v -1.350000 2.430000 23.993750
v -1.350000 2.430000 26.006250
v -1.350000 3.645000 23.993750
v -1.350000 3.645000 26.006250
v -1.350000 4.860000 23.993750
v -1.350000 4.860000 26.006250
v -1.350000 6.075000 23.993750
v -1.350000 6.075000 26.006250
v -1.350000 7.290000 24.137500
v -1.350000 7.290000 23.993750
v -1.350000 7.290000 24.281250
v -1.350000 7.290000 24.425000
v -1.350000 7.290000 24.568750
v -1.350000 7.290000 24.712500
v -1.350000 7.290000 24.856250
v -1.350000 7.290000 25.000000
v -1.350000 7.290000 25.143750
v -1.350000 7.290000 25.287500
v -1.350000 7.290000 25.431250
v -1.350000 7.290000 25.575000
v -1.350000 7.290000 25.718750
v -1.350000 7.290000 25.862500
v -1.350000 7.290000 26.006250
v -1.350000 -8.505000 23.993750
v -1.350000 -8.505000 24.137500
v -0.810000 -8.505000 23.993750
v -0.810000 -8.505000 24.137500
v -0.810000 -7.290000 23.993750
v -1.350000 -8.505000 24.281250
v -0.810000 -8.505000 24.281250
v -1.350000 -8.505000 24.425000
v -0.810000 -8.505000 24.425000
v -1.350000 -8.505000 24.568750
v -0.810000 -8.505000 24.568750
v -1.350000 -8.505000 24.712500
v -0.810000 -8.505000 24.712500
v -1.350000 -8.505000 24.856250
v -0.810000 -8.505000 24.856250
v -1.350000 -8.505000 25.000000
v -0.810000 -8.505000 25.000000
v -1.350000 -8.505000 25.143750
v -0.810000 -8.505000 25.143750
v -1.350000 -8.505000 25.287500
v -0.810000 -8.505000 25.287500
v -1.350000 -8.505000 25.431250
v -0.810000 -8.505000 25.431250
v -1.350000 -8.505000 25.575000
v -0.810000 -8.505000 25.575000
v -1.350000 -8.505000 25.718750
v -0.810000 -8.505000 25.718750
v -1.350000 -8.505000 25.862500
v -0.810000 -8.505000 25.862500
v -1.350000 -8.505000 26.006250
v -0.810000 -8.505000 26.006250
v -0.810000 -7.290000 26.006250
v -0.810000 -6.075000 23.993750
v -0.810000 -6.075000 26.006250
v -0.810000 -4.860000 23.993750
v -0.810000 -4.860000 26.006250
v -0.810000 -3.645000 23.993750
v -0.810000 -3.645000 26.006250
v -0.810000 -2.430000 23.993750
v -0.810000 -2.430000 26.006250
v -0.810000 -1.215000 23.993750
v -0.810000 -1.215000 26.006250
v -0.810000 0.000000 23.993750
v -0.810000 0.000000 26.006250
v -0.810000 1.215000 23.993750
v -0.810000 1.215000 26.006250
v -0.810000 2.430000 23.993750
v -0.810000 2.430000 26.006250
v -0.810000 3.645000 23.993750
v -0.810000 3.645000 26.006250
v -0.810000 4.860000 23.993750
v -0.810000 4.860000 26.006250
v -0.810000 6.075000 23.993750
v -0.810000 6.075000 26.006250
v -0.810000 7.290000 23.993750
v -0.810000 7.290000 26.006250
v -1.350000 8.505000 23.993750
v -1.350000 8.505000 24.137500
v -0.810000 8.505000 24.137500
v -0.810000 8.505000 23.993750
v -1.350000 8.505000 24.281250
v -0.810000 8.505000 24.281250
v -1.350000 8.505000 24.425000
v -0.810000 8.505000 24.425000
v -1.350000 8.505000 24.568750
v -0.810000 8.505000 24.568750
v -1.350000 8.505000 24.712500
v -0.810000 8.505000 24.712500
v -1.350000 8.505000 24.856250
v -0.810000 8.505000 24.856250
v -1.350000 8.505000 25.000000
v -0.810000 8.505000 25.000000
v -1.350000 8.505000 25.143750
v -0.810000 8.505000 25.143750
v -1.350000 8.505000 25.287500
v -0.810000 8.505000 25.287500
v -1.350000 8.505000 25.431250
v -0.810000 8.505000 25.431250
v -1.350000 8.505000 25.575000
v -0.810000 8.505000 25.575000
v -1.350000 8.505000 25.718750
v -0.810000 8.505000 25.718750
v -1.350000 8.505000 25.862500
v -0.810000 8.505000 25.862500
v -1.350000 8.505000 26.006250
v -0.810000 8.505000 26.006250
v -0.270000 -8.505000 23.993750
v -0.270000 -8.505000 24.137500
v -0.270000 -7.290000 24.137500
v -0.270000 -7.290000 23.993750
v -0.270000 -8.505000 24.281250
v -0.270000 -7.290000 24.281250
v -0.270000 -8.505000 24.425000
v -0.270000 -7.290000 24.425000
v -0.270000 -8.505000 24.568750
v -0.270000 -7.290000 24.568750
v -0.270000 -8.505000 24.712500
v -0.270000 -7.290000 24.712500
v -0.270000 -8.505000 24.856250
v -0.270000 -7.290000 24.856250
v -0.270000 -8.505000 25.000000
v -0.270000 -7.290000 25.000000
v -0.270000 -8.505000 25.143750
v -0.270000 -7.290000 25.143750
v -0.270000 -8.505000 25.287500
v -0.270000 -7.290000 25.287500
v -0.270000 -8.505000 25.431250
v -0.270000 -7.290000 25.431250
v -0.270000 -8.505000 25.575000
v -0.270000 -7.290000 25.575000
v -0.270000 -8.505000 25.718750
v -0.270000 -7.290000 25.718750
v -0.270000 -8.505000 25.862500
v -0.270000 -7.290000 25.862500
v -0.270000 -8.505000 26.006250
v -0.270000 -7.290000 26.006250
v -0.270000 -6.075000 24.137500
v -0.270000 -6.075000 23.993750
v -0.270000 -6.075000 24.281250
v -0.270000 -6.075000 24.425000
v -0.270000 -6.075000 24.568750
v -0.270000 -6.075000 24.712500
v -0.270000 -6.075000 24.856250
v -0.270000 -6.075000 25.000000
v -0.270000 -6.075000 25.143750
v -0.270000 -6.075000 25.287500
v -0.270000 -6.075000 25.431250
v -0.270000 -6.075000 25.575000
v -0.270000 -6.075000 25.718750
v -0.270000 -6.075000 25.862500
v -0.270000 -6.075000 26.006250
v -0.270000 -4.860000 24.137500
v -0.270000 -4.860000 23.993750
v -0.270000 -4.860000 24.281250
v -0.270000 -4.860000 24.425000
v -0.270000 -4.860000 24.568750
v -0.270000 -4.860000 24.712500
v -0.270000 -4.860000 24.856250
v -0.270000 -4.860000 25.000000
v -0.270000 -4.860000 25.143750
v -0.270000 -4.860000 25.287500
v -0.270000 -4.860000 25.431250
v -0.270000 -4.860000 25.575000
v -0.270000 -4.860000 25.718750
v -0.270000 -4.860000 25.862500
v -0.270000 -4.860000 26.006250
v -0.270000 -3.645000 24.137500
v -0.270000 -3.645000 23.993750
v -0.270000 -3.645000 24.281250
v -0.270000 -3.645000 24.425000
v -0.270000 -3.645000 24.568750
v -0.270000 -3.645000 24.712500
v -0.270000 -3.645000 24.856250
v -0.270000 -3.645000 25.000000
v -0.270000 -3.645000 25.143750
v -0.270000 -3.645000 25.287500
v -0.270000 -3.645000 25.431250
v -0.270000 -3.645000 25.575000
v -0.270000 -3.645000 25.718750
v -0.270000 -3.645000 25.862500
v -0.270000 -3.645000 26.006250
v -0.270000 -2.430000 24.137500
v -0.270000 -2.430000 23.993750
v -0.270000 -2.430000 24.281250
v -0.270000 -2.430000 24.425000
v -0.270000 -2.430000 24.568750
v -0.270000 -2.430000 24.712500
v -0.270000 -2.430000 24.856250
v -0.270000 -2.430000 25.000000
v -0.270000 -2.430000 25.143750
v -0.270000 -2.430000 25.287500
v -0.270000 -2.430000 25.431250
v -0.270000 -2.430000 25.575000
v -0.270000 -2.430000 25.718750
v -0.270000 -2.430000 25.862500
v -0.270000 -2.430000 26.006250
v -0.270000 -1.215000 24.137500
v -0.270000 -1.215000 23.993750
v -0.270000 -1.215000 24.281250
v -0.270000 -1.215000 24.425000
v -0.270000 -1.215000 24.568750
v -0.270000 -1.215000 24.712500
v -0.270000 -1.215000 24.856250
v -0.270000 -1.215000 25.000000
v -0.270000 -1.215000 25.143750
v -0.270000 -1.215000 25.287500
v -0.270000 -1.215000 25.431250
v -0.270000 -1.215000 25.575000
v -0.270000 -1.215000 25.718750
v -0.270000 -1.215000 25.862500
v -0.270000 -1.215000 26.006250
v -0.270000 0.000000 24.137500
v -0.270000 0.000000 23.993750
v -0.270000 0.000000 24.281250
v -0.270000 0.000000 24.425000
v -0.270000 0.000000 24.568750
v -0.270000 0.000000 24.712500
v -0.270000 0.000000 24.856250
v -0.270000 0.000000 25.000000
v -0.270000 0.000000 25.143750
v -0.270000 0.000000 25.287500
v -0.270000 0.000000 25.431250
v -0.270000 0.000000 25.575000
v -0.270000 0.000000 25.718750
v -0.270000 0.000000 25.862500
v -0.270000 0.000000 26.006250
v -0.270000 1.215000 24.137500
v -0.270000 1.215000 23.993750
v -0.270000 1.215000 24.281250
v -0.270000 1.215000 24.425000
v -0.270000 1.215000 24.568750
v -0.270000 1.215000 24.712500
v -0.270000 1.215000 24.856250
v -0.270000 1.215000 25.000000
v -0.270000 1.215000 25.143750
v -0.270000 1.215000 25.287500
v -0.270000 1.215000 25.431250
v -0.270000 1.215000 25.575000
v -0.270000 1.215000 25.718750
v -0.270000 1.215000 25.862500
v -0.270000 1.215000 26.006250
v -0.270000 2.430000 24.137500
v -0.270000 2.430000 23.993750
v -0.270000 2.430000 24.281250
v -0.270000 2.430000 24.425000
v -0.270000 2.430000 24.568750
v -0.270000 2.430000 24.712500
v -0.270000 2.430000 24.856250
v -0.270000 2.430000 25.000000
v -0.270000 2.430000 25.143750
v -0.270000 2.430000 25.287500
v -0.270000 2.430000 25.431250
v -0.270000 2.430000 25.575000
v -0.270000 2.430000 25.718750
v -0.270000 2.430000 25.862500
v -0.270000 2.430000 26.006250
v -0.270000 3.645000 24.137500
v -0.270000 3.645000 23.993750
v -0.270000 3.645000 24.281250
v -0.270000 3.645000 24.425000
v -0.270000 3.645000 24.568750
v -0.270000 3.645000 24.712500
v -0.270000 3.645000 24.856250
v -0.270000 3.645000 25.000000
v -0.270000 3.645000 25.143750
v -0.270000 3.645000 25.287500
v -0.270000 3.645000 25.431250
v -0.270000 3.645000 25.575000
v -0.270000 3.645000 25.718750
v -0.270000 3.645000 25.862500
v -0.270000 3.645000 26.006250
v -0.270000 4.860000 24.137500
v -0.270000 4.860000 23.993750
v -0.270000 4.860000 24.281250
v -0.270000 4.860000 24.425000
v -0.270000 4.860000 24.568750
v -0.270000 4.860000 24.712500
v -0.270000 4.860000 24.856250
v -0.270000 4.860000 25.000000
v -0.270000 4.860000 25.143750
v -0.270000 4.860000 25.287500
v -0.270000 4.860000 25.431250
v -0.270000 4.860000 25.575000
v -0.270000 4.860000 25.718750
v -0.270000 4.860000 25.862500
v -0.270000 4.860000 26.006250
v -0.270000 6.075000 24.137500
v -0.270000 6.075000 23.993750
v -0.270000 6.075000 24.281250
v -0.270000 6.075000 24.425000
v -0.270000 6.075000 24.568750
v -0.270000 6.075000 24.712500
v -0.270000 6.075000 24.856250
v -0.270000 6.075000 25.000000
v -0.270000 6.075000 25.143750
v -0.270000 6.075000 25.287500
v -0.270000 6.075000 25.431250
v -0.270000 6.075000 25.575000
v -0.270000 6.075000 25.718750
v -0.270000 6.075000 25.862500
v -0.270000 6.075000 26.006250
v -0.270000 7.290000 24.137500
v -0.270000 7.290000 23.993750
v -0.270000 7.290000 24.281250
v -0.270000 7.290000 24.425000
v -0.270000 7.290000 24.568750
v -0.270000 7.290000 24.712500
v -0.270000 7.290000 24.856250
v -0.270000 7.290000 25.000000
v -0.270000 7.290000 25.143750
v -0.270000 7.290000 25.287500
v -0.270000 7.290000 25.431250
v -0.270000 7.290000 25.575000
v -0.270000 7.290000 25.718750
v -0.270000 7.290000 25.862500
v -0.270000 7.290000 26.006250
v -0.270000 8.505000 24.137500
v -0.270000 8.505000 23.993750
v -0.270000 8.505000 24.281250
v -0.270000 8.505000 24.425000
v -0.270000 8.505000 24.568750
v -0.270000 8.505000 24.712500
v -0.270000 8.505000 24.856250
v -0.270000 8.505000 25.000000
v -0.270000 8.505000 25.143750
v -0.270000 8.505000 25.287500
v -0.270000 8.505000 25.431250
v -0.270000 8.505000 25.575000
v -0.270000 8.505000 25.718750
v -0.270000 8.505000 25.862500
v -0.270000 8.505000 26.006250
f 1 2 3
f 1 3 4
f 1 5 6
f 1 6 4
f 1 2 7
f 1 7 5
f 4 3 8
f 4 8 9
f 4 6 10
f 4 10 9
f 9 8 11
f 9 11 12
f 9 10 13
f 9 13 12
f 12 11 14
f 12 14 15
f 12 13 16
f 12 16 15
f 15 14 17
f 15 17 18
f 15 16 19
f 15 19 18
f 18 17 20
f 18 20 21
f 18 19 22
f 18 22 21
f 21 20 23
f 21 23 24
f 21 22 25
f 21 25 24
f 24 23 26
f 24 26 27
f 24 25 28
f 24 28 27
f 27 26 29
f 27 29 30
f 27 28 31
f 27 31 30
f 30 29 32
f 30 32 33
f 30 31 34
f 30 34 33
f 33 32 35
f 33 35 36
f 33 34 37
f 33 37 36
f 36 35 38
f 36 38 39
f 36 37 40
f 36 40 39
f 39 38 41
f 39 41 42
f 39 40 43
f 39 43 42
f 42 41 44
f 42 44 45
f 42 43 46
f 42 46 45
f 45 46 47
f 45 47 44
f 2 48 49
f 2 49 3
f 48 49 50
f 48 50 51
f 2 48 51
f 2 51 7
f 3 49 52
f 3 52 8
f 49 52 53
f 49 53 50
f 8 52 54
f 8 54 11
f 52 54 55
f 52 55 53
f 11 54 56
f 11 56 14
f 54 56 57
f 54 57 55
f 14 56 58
f 14 58 17
f 56 58 59
f 56 59 57
f 17 58 60
f 17 60 20
f 58 60 61
f 58 61 59
f 20 60 62
f 20 62 23
f 60 62 63
f 60 63 61
f 23 62 64
f 23 64 26
f 62 64 65
f 62 65 63
f 26 64 66
f 26 66 29
f 64 66 67
f 64 67 65
f 29 66 68
f 29 68 32
f 66 68 69
f 66 69 67
f 32 68 70
f 32 70 35
f 68 70 71
f 68 71 69
f 35 70 72
f 35 72 38
f 70 72 73
f 70 73 71
f 38 72 74
f 38 74 41
f 72 74 75
f 72 75 73
f 41 74 76
f 41 76 44
f 74 76 77
f 74 77 75
f 44 47 77
f 44 77 76
f 5 78 79
f 5 79 6
f 5 7 80
f 5 80 78
f 6 79 81
f 6 81 10
f 10 81 82
f 10 82 13
f 13 82 83
f 13 83 16
f 16 83 84
f 16 84 19
f 19 84 85
f 19 85 22
f 22 85 86
f 22 86 25
f 25 86 87
f 25 87 28
f 28 87 88
f 28 88 31
f 31 88 89
f 31 89 34
f 34 89 90
f 34 90 37
f 37 90 91
f 37 91 40
f 40 91 92
f 40 92 43
f 43 92 93
f 43 93 46
f 46 93 94
f 46 94 47
f 51 50 95
f 51 95 96
f 7 51 96
f 7 96 80
f 50 53 97
f 50 97 95
f 53 55 98
f 53 98 97
f 55 57 99
f 55 99 98
f 57 59 100
f 57 100 99
f 59 61 101
f 59 101 100
f 61 63 102
f 61 102 101
f 63 65 103
f 63 103 102
f 65 67 104
f 65 104 103
f 67 69 105
f 67 105 104
f 69 71 106
f 69 106 105
f 71 73 107
f 71 107 106
f 73 75 108
f 73 108 107
f 75 77 109
f 75 109 108
f 47 94 109
f 47 109 77
f 110 78 79
f 110 79 111
f 110 112 113
f 110 113 111
f 110 78 114
f 110 114 112
f 111 79 81
f 111 81 115
f 111 113 116
f 111 116 115
f 115 81 82
f 115 82 117
f 115 116 118
f 115 118 117
f 117 82 83
f 117 83 119
f 117 118 120
f 117 120 119
f 119 83 84
f 119 84 121
f 119 120 122
f 119 122 121
f 121 84 85
f 121 85 123
f 121 122 124
f 121 124 123
f 123 85 86
f 123 86 125
f 123 124 126
f 123 126 125
f 125 86 87
f 125 87 127
f 125 126 128
f 125 128 127
f 127 87 88
f 127 88 129
f 127 128 130
f 127 130 129
f 129 88 89
f 129 89 131
f 129 130 132
f 129 132 131
f 131 89 90
f 131 90 133
f 131 132 134
f 131 134 133
f 133 90 91
f 133 91 135
f 133 134 136
f 133 136 135
f 135 91 92
f 135 92 137
f 135 136 138
f 135 138 137
f 137 92 93
f 137 93 139
f 137 138 140
f 137 140 139
f 139 140 141
f 139 141 93
f 78 80 142
f 78 142 114
f 93 141 143
f 93 143 94
f 80 96 144
f 80 144 142
f 94 143 145
f 94 145 109
f 96 146 147
f 96 147 95
f 146 147 148
f 146 148 149
f 96 146 149
f 96 149 144
f 95 147 150
f 95 150 97
f 147 150 151
f 147 151 148
f 97 150 152
f 97 152 98
f 150 152 153
f 150 153 151
f 98 152 154
f 98 154 99
f 152 154 155
f 152 155 153
f 99 154 156
f 99 156 100
f 154 156 157
f 154 157 155
f 100 156 158
f 100 158 101
f 156 158 159
f 156 159 157
f 101 158 160
f 101 160 102
f 158 160 161
f 158 161 159
f 102 160 162
f 102 162 103
f 160 162 163
f 160 163 161
f 103 162 164
f 103 164 104
f 162 164 165
f 162 165 163
f 104 164 166
f 104 166 105
f 164 166 167
f 164 167 165
f 105 166 168
f 105 168 106
f 166 168 169
f 166 169 167
f 106 168 170
f 106 170 107
f 168 170 171
f 168 171 169
f 107 170 172
f 107 172 108
f 170 172 173
f 170 173 171
f 108 172 174
f 108 174 109
f 172 174 175
f 172 175 173
f 109 145 175
f 109 175 174
f 112 176 177
f 112 177 113
f 112 114 178
f 112 178 176
f 113 177 179
f 113 179 116
f 116 179 180
f 116 180 118
f 118 180 181
f 118 181 120
f 120 181 182
f 120 182 122
f 122 182 183
f 122 183 124
f 124 183 184
f 124 184 126
f 126 184 185
f 126 185 128
f 128 185 186
f 128 186 130
f 130 186 187
f 130 187 132
f 132 187 188
f 132 188 134
f 134 188 189
f 134 189 136
f 136 189 190
f 136 190 138
f 138 190 191
f 138 191 140
f 140 191 192
f 140 192 141
f 114 142 193
f 114 193 178
f 141 192 194
f 141 194 143
f 142 144 195
f 142 195 193
f 143 194 196
f 143 196 145
f 149 148 197
f 149 197 198
f 144 149 198
f 144 198 195
f 148 151 199
f 148 199 197
f 151 153 200
f 151 200 199
f 153 155 201
f 153 201 200
f 155 157 202
f 155 202 201
f 157 159 203
f 157 203 202
f 159 161 204
f 159 204 203
f 161 163 205
f 161 205 204
f 163 165 206
f 163 206 205
f 165 167 207
f 165 207 206
f 167 169 208
f 167 208 207
f 169 171 209
f 169 209 208
f 171 173 210
f 171 210 209
f 173 175 211
f 173 211 210
f 145 196 211
f 145 211 175
f 212 176 177
f 212 177 213
f 212 214 215
f 212 215 213
f 212 176 216
f 212 216 214
f 213 177 179
f 213 179 217
f 213 215 218
f 213 218 217
f 217 179 180
f 217 180 219
f 217 218 220
f 217 220 219
f 219 180 181
f 219 181 221
f 219 220 222
f 219 222 221
f 221 181 182
f 221 182 223
f 221 222 224
f 221 224 223
f 223 182 183
f 223 183 225
f 223 224 226
f 223 226 225
f 225 183 184
f 225 184 227
f 225 226 228
f 225 228 227
f 227 184 185
f 227 185 229
f 227 228 230
f 227 230 229
f 229 185 186
f 229 186 231
f 229 230 232
f 229 232 231
f 231 186 187
f 231 187 233
f 231 232 234
f 231 234 233
f 233 187 188
f 233 188 235
f 233 234 236
f 233 236 235
f 235 188 189
f 235 189 237
f 235 236 238
f 235 238 237
f 237 189 190
f 237 190 239
f 237 238 240
f 237 240 239
f 239 190 191
f 239 191 241
f 239 240 242
f 239 242 241
f 241 242 243
f 241 243 191
f 176 178 244
f 176 244 216
f 191 243 245
f 191 245 192
f 178 193 246
f 178 246 244
f 192 245 247
f 192 247 194
f 193 195 248
f 193 248 246
f 194 247 249
f 194 249 196
f 195 198 250
f 195 250 248
f 196 249 251
f 196 251 211
f 198 252 253
f 198 253 197
f 252 253 254
f 252 254 255
f 198 252 255
f 198 255 250
f 197 253 256
f 197 256 199
f 253 256 257
f 253 257 254
f 199 256 258
f 199 258 200
f 256 258 259
f 256 259 257
f 200 258 260
f 200 260 201
f 258 260 261
f 258 261 259
f 201 260 262
f 201 262 202
f 260 262 263
f 260 263 261
f 202 262 264
f 202 264 203
f 262 264 265
f 262 265 263
f 203 264 266
f 203 266 204
f 264 266 267
f 264 267 265
f 204 266 268
f 204 268 205
f 266 268 269
f 266 269 267
f 205 268 270
f 205 270 206
f 268 270 271
f 268 271 269
f 206 270 272
f 206 272 207
f 270 272 273
f 270 273 271
f 207 272 274
f 207 274 208
f 272 274 275
f 272 275 273
f 208 274 276
f 208 276 209
f 274 276 277
f 274 277 275
f 209 276 278
f 209 278 210
f 276 278 279
f 276 279 277
f 210 278 280
f 210 280 211
f 278 280 281
f 278 281 279
f 211 251 281
f 211 281 280
f 214 282 283
f 214 283 215
f 214 216 284
f 214 284 282
f 215 283 285
f 215 285 218
f 218 285 286
f 218 286 220
f 220 286 287
f 220 287 222
f 222 287 288
f 222 288 224
f 224 288 289
f 224 289 226
f 226 289 290
f 226 290 228
f 228 290 291
f 228 291 230
f 230 291 292
f 230 292 232
f 232 292 293
f 232 293 234
f 234 293 294
f 234 294 236
f 236 294 295
f 236 295 238
f 238 295 296
f 238 296 240
f 240 296 297
f 240 297 242
f 242 297 298
f 242 298 243
f 216 244 299
f 216 299 284
f 243 298 300
f 243 300 245
f 244 246 301
f 244 301 299
f 245 300 302
f 245 302 247
f 246 248 303
f 246 303 301
f 247 302 304
f 247 304 249
f 248 250 305
f 248 305 303
f 249 304 306
f 249 306 251
f 255 254 307
f 255 307 308
f 250 255 308
f 250 308 305
f 254 257 309
f 254 309 307
f 257 259 310
f 257 310 309
f 259 261 311
f 259 311 310
f 261 263 312
f 261 312 311
f 263 265 313
f 263 313 312
f 265 267 314
f 265 314 313
f 267 269 315
f 267 315 314
f 269 271 316
f 269 316 315
f 271 273 317
f 271 317 316
f 273 275 318
f 273 318 317
f 275 277 319
f 275 319 318
f 277 279 320
f 277 320 319
f 279 281 321
f 279 321 320
f 251 306 321
f 251 321 281
f 282 322 323
f 282 323 283
f 282 284 324
f 282 324 322
f 283 323 325
f 283 325 285
f 285 325 326
f 285 326 286
f 286 326 327
f 286 327 287
f 287 327 328
f 287 328 288
f 288 328 329
f 288 329 289
f 289 329 330
f 289 330 290
f 290 330 331
f 290 331 291
f 291 331 332
f 291 332 292
f 292 332 333
f 292 333 293
f 293 333 334
f 293 334 294
f 294 334 335
f 294 335 295
f 295 335 336
f 295 336 296
f 296 336 337
f 296 337 297
f 297 337 338
f 297 338 298
f 284 299 339
f 284 339 324
f 298 338 340
f 298 340 300
f 299 301 341
f 299 341 339
f 300 340 342
f 300 342 302
f 301 303 343
f 301 343 341
f 302 342 344
f 302 344 304
f 303 305 345
f 303 345 343
f 304 344 346
f 304 346 306
f 308 307 347
f 308 347 348
f 305 308 348
f 305 348 345
f 307 309 349
f 307 349 347
f 309 310 350
f 309 350 349
f 310 311 351
f 310 351 350
f 311 312 352
f 311 352 351
f 312 313 353
f 312 353 352
f 313 314 354
f 313 354 353
f 314 315 355
f 314 355 354
f 315 316 356
f 315 356 355
f 316 317 357
f 316 357 356
f 317 318 358
f 317 358 357
f 318 319 359
f 318 359 358
f 319 320 360
f 319 360 359
f 320 321 361
f 320 361 360
f 306 346 361
f 306 361 321
f 362 322 323
f 362 323 363
f 362 364 365
f 362 365 363
f 362 322 366
f 362 366 364
f 363 323 325
f 363 325 367
f 363 365 368
f 363 368 367
f 367 325 326
f 367 326 369
f 367 368 370
f 367 370 369
f 369 326 327
f 369 327 371
f 369 370 372
f 369 372 371
f 371 327 328
f 371 328 373
f 371 372 374
f 371 374 373
f 373 328 329
f 373 329 375
f 373 374 376
f 373 376 375
f 375 329 330
f 375 330 377
f 375 376 378
f 375 378 377
f 377 330 331
f 377 331 379
f 377 378 380
f 377 380 379
f 379 331 332
f 379 332 381
f 379 380 382
f 379 382 381
f 381 332 333
f 381 333 383
f 381 382 384
f 381 384 383
f 383 333 334
f 383 334 385
f 383 384 386
f 383 386 385
f 385 334 335
f 385 335 387
f 385 386 388
f 385 388 387
f 387 335 336
f 387 336 389
f 387 388 390
f 387 390 389
f 389 336 337
f 389 337 391
f 389 390 392
f 389 392 391
f 391 392 393
f 391 393 337
f 322 324 394
f 322 394 366
f 337 393 395
f 337 395 338
f 324 339 396
f 324 396 394
f 338 395 397
f 338 397 340
f 339 341 398
f 339 398 396
f 340 397 399
f 340 399 342
f 341 343 400
f 341 400 398
f 342 399 401
f 342 401 344
f 343 345 402
f 343 402 400
f 344 401 403
f 344 403 346
f 345 348 404
f 345 404 402
f 346 403 405
f 346 405 361
f 348 406 407
f 348 407 347
f 406 407 408
f 406 408 409
f 348 406 409
f 348 409 404
f 347 407 410
f 347 410 349
f 407 410 411
f 407 411 408
f 349 410 412
f 349 412 350
f 410 412 413
f 410 413 411
f 350 412 414
f 350 414 351
f 412 414 415
f 412 415 413
f 351 414 416
f 351 416 352
f 414 416 417
f 414 417 415
f 352 416 418
f 352 418 353
f 416 418 419
f 416 419 417
f 353 418 420
f 353 420 354
f 418 420 421
f 418 421 419
f 354 420 422
f 354 422 355
f 420 422 423
f 420 423 421
f 355 422 424
f 355 424 356
f 422 424 425
f 422 425 423
f 356 424 426
f 356 426 357
f 424 426 427
f 424 427 425
f 357 426 428
f 357 428 358
f 426 428 429
f 426 429 427
f 358 428 430
f 358 430 359
f 428 430 431
f 428 431 429
f 359 430 432
f 359 432 360
f 430 432 433
f 430 433 431
f 360 432 434
f 360 434 361
f 432 434 435
f 432 435 433
f 361 405 435
f 361 435 434
f 364 436 437
f 364 437 365
f 364 366 438
f 364 438 436
f 365 437 439
f 365 439 368
f 368 439 440
f 368 440 370
f 370 440 441
f 370 441 372
f 372 441 442
f 372 442 374
f 374 442 443
f 374 443 376
f 376 443 444
f 376 444 378
f 378 444 445
f 378 445 380
f 380 445 446
f 380 446 382
f 382 446 447
f 382 447 384
f 384 447 448
f 384 448 386
f 386 448 449
f 386 449 388
f 388 449 450
f 388 450 390
f 390 450 451
f 390 451 392
f 392 451 452
f 392 452 393
f 366 394 453
f 366 453 438
f 393 452 454
f 393 454 395
f 394 396 455
f 394 455 453
f 395 454 456
f 395 456 397
f 396 398 457
f 396 457 455
f 397 456 458
f 397 458 399
f 398 400 459
f 398 459 457
f 399 458 460
f 399 460 401
f 400 402 461
f 400 461 459
f 401 460 462
f 401 462 403
f 402 404 463
f 402 463 461
f 403 462 464
f 403 464 405
f 409 408 465
f 409 465 466
f 404 409 466
f 404 466 463
f 408 411 467
f 408 467 465
f 411 413 468
f 411 468 467
f 413 415 469
f 413 469 468
f 415 417 470
f 415 470 469
f 417 419 471
f 417 471 470
f 419 421 472
f 419 472 471
f 421 423 473
f 421 473 472
f 423 425 474
f 423 474 473
f 425 427 475
f 425 475 474
f 427 429 476
f 427 476 475
f 429 431 477
f 429 477 476
f 431 433 478
f 431 478 477
f 433 435 479
f 433 479 478
f 405 464 479
f 405 479 435
f 480 436 437
f 480 437 481
f 480 482 483
f 480 483 481
f 480 436 484
f 480 484 482
f 481 437 439
f 481 439 485
f 481 483 486
f 481 486 485
f 485 439 440
f 485 440 487
f 485 486 488
f 485 488 487
f 487 440 441
f 487 441 489
f 487 488 490
f 487 490 489
f 489 441 442
f 489 442 491
f 489 490 492
f 489 492 491
f 491 442 443
f 491 443 493
f 491 492 494
f 491 494 493
f 493 443 444
f 493 444 495
f 493 494 496
f 493 496 495
f 495 444 445
f 495 445 497
f 495 496 498
f 495 498 497
f 497 445 446
f 497 446 499
f 497 498 500
f 497 500 499
f 499 446 447
f 499 447 501
f 499 500 502
f 499 502 501
f 501 447 448
f 501 448 503
f 501 502 504
f 501 504 503
f 503 448 449
f 503 449 505
f 503 504 506
f 503 506 505
f 505 449 450
f 505 450 507
f 505 506 508
f 505 508 507
f 507 450 451
f 507 451 509
f 507 508 510
f 507 510 509
f 509 510 511
f 509 511 451
f 436 438 512
f 436 512 484
f 451 511 513
f 451 513 452
f 438 453 514
f 438 514 512
f 452 513 515
f 452 515 454
f 453 455 516
f 453 516 514
f 454 515 517
f 454 517 456
f 455 457 518
f 455 518 516
f 456 517 519
f 456 519 458
f 457 459 520
f 457 520 518
f 458 519 521
f 458 521 460
f 459 461 522
f 459 522 520
f 460 521 523
f 460 523 462
f 461 463 524
f 461 524 522
f 462 523 525
f 462 525 464
f 463 466 526
f 463 526 524
f 464 525 527
f 464 527 479
f 466 528 529
f 466 529 465
f 528 529 530
f 528 530 531
f 466 528 531
f 466 531 526
f 465 529 532
f 465 532 467
f 529 532 533
f 529 533 530
f 467 532 534
f 467 534 468
f 532 534 535
f 532 535 533
f 468 534 536
f 468 536 469
f 534 536 537
f 534 537 535
f 469 536 538
f 469 538 470
f 536 538 539
f 536 539 537
f 470 538 540
f 470 540 471
f 538 540 541
f 538 541 539
f 471 540 542
f 471 542 472
f 540 542 543
f 540 543 541
f 472 542 544
f 472 544 473
f 542 544 545
f 542 545 543
f 473 544 546
f 473 546 474
f 544 546 547
f 544 547 545
f 474 546 548
f 474 548 475
f 546 548 549
f 546 549 547
f 475 548 550
f 475 550 476
f 548 550 551
f 548 551 549
f 476 550 552
f 476 552 477
f 550 552 553
f 550 553 551
f 477 552 554
f 477 554 478
f 552 554 555
f 552 555 553
f 478 554 556
f 478 556 479
f 554 556 557
f 554 557 555
f 479 527 557
f 479 557 556
f 482 558 559
f 482 559 483
f 482 484 560
f 482 560 558
f 483 559 561
f 483 561 486
f 486 561 562
f 486 562 488
f 488 562 563
f 488 563 490
f 490 563 564
f 490 564 492
f 492 564 565
f 492 565 494
f 494 565 566
f 494 566 496
f 496 566 567
f 496 567 498
f 498 567 568
f 498 568 500
f 500 568 569
f 500 569 502
f 502 569 570
f 502 570 504
f 504 570 571
f 504 571 506
f 506 571 572
f 506 572 508
f 508 572 573
f 508 573 510
f 510 573 574
f 510 574 511
f 484 512 575
f 484 575 560
f 511 574 576
f 511 576 513
f 512 514 577
f 512 577 575
f 513 576 578
f 513 578 515
f 514 516 579
f 514 579 577
f 515 578 580
f 515 580 517
f 516 518 581
f 516 581 579
f 517 580 582
f 517 582 519
f 518 520 583
f 518 583 581
f 519 582 584
f 519 584 521
f 520 522 585
f 520 585 583
f 521 584 586
f 521 586 523
f 522 524 587
f 522 587 585
f 523 586 588
f 523 588 525
f 524 526 589
f 524 589 587
f 525 588 590
f 525 590 527
f 531 530 591
f 531 591 592
f 526 531 592
f 526 592 589
f 530 533 593
f 530 593 591
f 533 535 594
f 533 594 593
f 535 537 595
f 535 595 594
f 537 539 596
f 537 596 595
f 539 541 597
f 539 597 596
f 541 543 598
f 541 598 597
f 543 545 599
f 543 599 598
f 545 547 600
f 545 600 599
f 547 549 601
f 547 601 600
f 549 551 602
f 549 602 601
f 551 553 603
f 551 603 602
f 553 555 604
f 553 604 603
f 555 557 605
f 555 605 604
f 527 590 605
f 527 605 557
f 606 558 559
f 606 559 607
f 606 608 609
f 606 609 607
f 606 558 610
f 606 610 608
f 607 559 561
f 607 561 611
f 607 609 612
f 607 612 611
f 611 561 562
f 611 562 613
f 611 612 614
f 611 614 613
f 613 562 563
f 613 563 615
f 613 614 616
f 613 616 615
f 615 563 564
f 615 564 617
f 615 616 618
f 615 618 617
f 617 564 565
f 617 565 619
f 617 618 620
f 617 620 619
f 619 565 566
f 619 566 621
f 619 620 622
f 619 622 621
f 621 566 567
f 621 567 623
f 621 622 624
f 621 624 623
f 623 567 568
f 623 568 625
f 623 624 626
f 623 626 625
f 625 568 569
f 625 569 627
f 625 626 628
f 625 628 627
f 627 569 570
f 627 570 629
f 627 628 630
f 627 630 629
f 629 570 571
f 629 571 631
f 629 630 632
f 629 632 631
f 631 571 572
f 631 572 633
f 631 632 634
f 631 634 633
f 633 572 573
f 633 573 635
f 633 634 636
f 633 636 635
f 635 636 637
f 635 637 573
f 558 560 638
f 558 638 610
f 573 637 639
f 573 639 574
f 560 575 640
f 560 640 638
f 574 639 641
f 574 641 576
f 575 577 642
f 575 642 640
f 576 641 643
f 576 643 578
f 577 579 644
f 577 644 642
f 578 643 645
f 578 645 580
f 579 581 646
f 579 646 644
f 580 645 647
f 580 647 582
f 581 583 648
f 581 648 646
f 582 647 649
f 582 649 584
f 583 585 650
f 583 650 648
f 584 649 651
f 584 651 586
f 585 587 652
f 585 652 650
f 586 651 653
f 586 653 588
f 587 589 654
f 587 654 652
f 588 653 655
f 588 655 590
f 589 592 656
f 589 656 654
f 590 655 657
f 590 657 605
f 592 658 659
f 592 659 591
f 658 659 660
f 658 660 661
f 592 658 661
f 592 661 656
f 591 659 662
f 591 662 593
f 659 662 663
f 659 663 660
f 593 662 664
f 593 664 594
f 662 664 665
f 662 665 663
f 594 664 666
f 594 666 595
f 664 666 667
f 664 667 665
f 595 666 668
f 595 668 596
f 666 668 669
f 666 669 667
f 596 668 670
f 596 670 597
f 668 670 671
f 668 671 669
f 597 670 672
f 597 672 598
f 670 672 673
f 670 673 671
f 598 672 674
f 598 674 599
f 672 674 675
f 672 675 673
f 599 674 676
f 599 676 600
f 674 676 677
f 674 677 675
f 600 676 678
f 600 678 601
f 676 678 679
f 676 679 677
f 601 678 680
f 601 680 602
f 678 680 681
f 678 681 679
f 602 680 682
f 602 682 603
f 680 682 683
f 680 683 681
f 603 682 684
f 603 684 604
f 682 684 685
f 682 685 683
f 604 684 686
f 604 686 605
f 684 686 687
f 684 687 685
f 605 657 687
f 605 687 686
f 608 688 689
f 608 689 609
f 608 610 690
f 608 690 688
f 609 689 691
f 609 691 612
f 612 691 692
f 612 692 614
f 614 692 693
f 614 693 616
f 616 693 694
f 616 694 618
f 618 694 695
f 618 695 620
f 620 695 696
f 620 696 622
f 622 696 697
f 622 697 624
f 624 697 698
f 624 698 626
f 626 698 699
f 626 699 628
f 628 699 700
f 628 700 630
f 630 700 701
f 630 701 632
f 632 701 702
f 632 702 634
f 634 702 703
f 634 703 636
f 636 703 704
f 636 704 637
f 610 638 705
f 610 705 690
f 637 704 706
f 637 706 639
f 638 640 707
f 638 707 705
f 639 706 708
f 639 708 641
f 640 642 709
f 640 709 707
f 641 708 710
f 641 710 643
f 642 644 711
f 642 711 709
f 643 710 712
f 643 712 645
f 644 646 713
f 644 713 711
f 645 712 714
f 645 714 647
f 646 648 715
f 646 715 713
f 647 714 716
f 647 716 649
f 648 650 717
f 648 717 715
f 649 716 718
f 649 718 651
f 650 652 719
f 650 719 717
f 651 718 720
f 651 720 653
f 652 654 721
f 652 721 719
f 653 720 722
f 653 722 655
f 654 656 723
f 654 723 721
f 655 722 724
f 655 724 657
f 661 660 725
f 661 725 726
f 656 661 726
f 656 726 723
f 660 663 727
f 660 727 725
f 663 665 728
f 663 728 727
f 665 667 729
f 665 729 728
f 667 669 730
f 667 730 729
f 669 671 731
f 669 731 730
f 671 673 732
f 671 732 731
f 673 675 733
f 673 733 732
f 675 677 734
f 675 734 733
f 677 679 735
f 677 735 734
f 679 681 736
f 679 736 735
f 681 683 737
f 681 737 736
f 683 685 738
f 683 738 737
f 685 687 739
f 685 739 738
f 657 724 739
f 657 739 687
f 740 688 689
f 740 689 741
f 740 742 743
f 740 743 741
f 740 688 744
f 740 744 742
f 741 689 691
f 741 691 745
f 741 743 746
f 741 746 745
f 745 691 692
f 745 692 747
f 745 746 748
f 745 748 747
f 747 692 693
f 747 693 749
f 747 748 750
f 747 750 749
f 749 693 694
f 749 694 751
f 749 750 752
f 749 752 751
f 751 694 695
f 751 695 753
f 751 752 754
f 751 754 753
f 753 695 696
f 753 696 755
f 753 754 756
f 753 756 755
f 755 696 697
f 755 697 757
f 755 756 758
f 755 758 757
f 757 697 698
f 757 698 759
f 757 758 760
f 757 760 759
f 759 698 699
f 759 699 761
f 759 760 762
f 759 762 761
f 761 699 700
f 761 700 763
f 761 762 764
f 761 764 763
f 763 700 701
f 763 701 765
f 763 764 766
f 763 766 765
f 765 701 702
f 765 702 767
f 765 766 768
f 765 768 767
f 767 702 703
f 767 703 769
f 767 768 770
f 767 770 769
f 769 770 771
f 769 771 703
f 688 690 772
f 688 772 744
f 703 771 773
f 703 773 704
f 690 705 774
f 690 774 772
f 704 773 775
f 704 775 706
f 705 707 776
f 705 776 774
f 706 775 777
f 706 777 708
f 707 709 778
f 707 778 776
f 708 777 779
f 708 779 710
f 709 711 780
f 709 780 778
f 710 779 781
f 710 781 712
f 711 713 782
f 711 782 780
f 712 781 783
f 712 783 714
f 713 715 784
f 713 784 782
f 714 783 785
f 714 785 716
f 715 717 786
f 715 786 784
f 716 785 787
f 716 787 718
f 717 719 788
f 717 788 786
f 718 787 789
f 718 789 720
f 719 721 790
f 719 790 788
f 720 789 791
f 720 791 722
f 721 723 792
f 721 792 790
f 722 791 793
f 722 793 724
f 723 726 794
f 723 794 792
f 724 793 795
f 724 795 739
f 726 796 797
f 726 797 725
f 796 797 798
f 796 798 799
f 726 796 799
f 726 799 794
f 725 797 800
f 725 800 727
f 797 800 801
f 797 801 798
f 727 800 802
f 727 802 728
f 800 802 803
f 800 803 801
f 728 802 804
f 728 804 729
f 802 804 805
f 802 805 803
f 729 804 806
f 729 806 730
f 804 806 807
f 804 807 805
f 730 806 808
f 730 808 731
f 806 808 809
f 806 809 807
f 731 808 810
f 731 810 732
f 808 810 811
f 808 811 809
f 732 810 812
f 732 812 733
f 810 812 813
f 810 813 811
f 733 812 814
f 733 814 734
f 812 814 815
f 812 815 813
f 734 814 816
f 734 816 735
f 814 816 817
f 814 817 815
f 735 816 818
f 735 818 736
f 816 818 819
f 816 819 817
f 736 818 820
f 736 820 737
f 818 820 821
f 818 821 819
f 737 820 822
f 737 822 738
f 820 822 823
f 820 823 821
f 738 822 824
f 738 824 739
f 822 824 825
f 822 825 823
f 739 795 825
f 739 825 824
f 826 827 828
f 826 828 829
f 742 826 827
f 742 827 743
f 742 744 829
f 742 829 826
f 827 830 831
f 827 831 828
f 743 827 830
f 743 830 746
f 830 832 833
f 830 833 831
f 746 830 832
f 746 832 748
f 832 834 835
f 832 835 833
f 748 832 834
f 748 834 750
f 834 836 837
f 834 837 835
f 750 834 836
f 750 836 752
f 836 838 839
f 836 839 837
f 752 836 838
f 752 838 754
f 838 840 841
f 838 841 839
f 754 838 840
f 754 840 756
f 840 842 843
f 840 843 841
f 756 840 842
f 756 842 758
f 842 844 845
f 842 845 843
f 758 842 844
f 758 844 760
f 844 846 847
f 844 847 845
f 760 844 846
f 760 846 762
f 846 848 849
f 846 849 847
f 762 846 848
f 762 848 764
f 848 850 851
f 848 851 849
f 764 848 850
f 764 850 766
f 850 852 853
f 850 853 851
f 766 850 852
f 766 852 768
f 852 854 855
f 852 855 853
f 768 852 854
f 768 854 770
f 770 854 855
f 770 855 771
f 829 828 856
f 829 856 857
f 744 772 857
f 744 857 829
f 828 831 858
f 828 858 856
f 831 833 859
f 831 859 858
f 833 835 860
f 833 860 859
f 835 837 861
f 835 861 860
f 837 839 862
f 837 862 861
f 839 841 863
f 839 863 862
f 841 843 864
f 841 864 863
f 843 845 865
f 843 865 864
f 845 847 866
f 845 866 865
f 847 849 867
f 847 867 866
f 849 851 868
f 849 868 867
f 851 853 869
f 851 869 868
f 853 855 870
f 853 870 869
f 771 855 870
f 771 870 773
f 857 856 871
f 857 871 872
f 772 774 872
f 772 872 857
f 856 858 873
f 856 873 871
f 858 859 874
f 858 874 873
f 859 860 875
f 859 875 874
f 860 861 876
f 860 876 875
f 861 862 877
f 861 877 876
f 862 863 878
f 862 878 877
f 863 864 879
f 863 879 878
f 864 865 880
f 864 880 879
f 865 866 881
f 865 881 880
f 866 867 882
f 866 882 881
f 867 868 883
f 867 883 882
f 868 869 884
f 868 884 883
f 869 870 885
f 869 885 884
f 773 870 885
f 773 885 775
f 872 871 886
f 872 886 887
f 774 776 887
f 774 887 872
f 871 873 888
f 871 888 886
f 873 874 889
f 873 889 888
f 874 875 890
f 874 890 889
f 875 876 891
f 875 891 890
f 876 877 892
f 876 892 891
f 877 878 893
f 877 893 892
f 878 879 894
f 878 894 893
f 879 880 895
f 879 895 894
f 880 881 896
f 880 896 895
f 881 882 897
f 881 897 896
f 882 883 898
f 882 898 897
f 883 884 899
f 883 899 898
f 884 885 900
f 884 900 899
f 775 885 900
f 775 900 777
f 887 886 901
f 887 901 902
f 776 778 902
f 776 902 887
f 886 888 903
f 886 903 901
f 888 889 904
f 888 904 903
f 889 890 905
f 889 905 904
f 890 891 906
f 890 906 905
f 891 892 907
f 891 907 906
f 892 893 908
f 892 908 907
f 893 894 909
f 893 909 908
f 894 895 910
f 894 910 909
f 895 896 911
f 895 911 910
f 896 897 912
f 896 912 911
f 897 898 913
f 897 913 912
f 898 899 914
f 898 914 913
f 899 900 915
f 899 915 914
f 777 900 915
f 777 915 779
f 902 901 916
f 902 916 917
f 778 780 917
f 778 917 902
f 901 903 918
f 901 918 916
f 903 904 919
f 903 919 918
f 904 905 920
f 904 920 919
f 905 906 921
f 905 921 920
f 906 907 922
f 906 922 921
f 907 908 923
f 907 923 922
f 908 909 924
f 908 924 923
f 909 910 925
f 909 925 924
f 910 911 926
f 910 926 925
f 911 912 927
f 911 927 926
f 912 913 928
f 912 928 927
f 913 914 929
f 913 929 928
f 914 915 930
f 914 930 929
f 779 915 930
f 779 930 781
f 917 916 931
f 917 931 932
f 780 782 932
f 780 932 917
f 916 918 933
f 916 933 931
f 918 919 934
f 918 934 933
f 919 920 935
f 919 935 934
f 920 921 936
f 920 936 935
f 921 922 937
f 921 937 936
f 922 923 938
f 922 938 937
f 923 924 939
f 923 939 938
f 924 925 940
f 924 940 939
f 925 926 941
f 925 941 940
f 926 927 942
f 926 942 941
f 927 928 943
f 927 943 942
f 928 929 944
f 928 944 943
f 929 930 945
f 929 945 944
f 781 930 945
f 781 945 783
f 932 931 946
f 932 946 947
f 782 784 947
f 782 947 932
f 931 933 948
f 931 948 946
f 933 934 949
f 933 949 948
f 934 935 950
f 934 950 949
f 935 936 951
f 935 951 950
f 936 937 952
f 936 952 951
f 937 938 953
f 937 953 952
f 938 939 954
f 938 954 953
f 939 940 955
f 939 955 954
f 940 941 956
f 940 956 955
f 941 942 957
f 941 957 956
f 942 943 958
f 942 958 957
f 943 944 959
f 943 959 958
f 944 945 960
f 944 960 959
f 783 945 960
f 783 960 785
f 947 946 961
f 947 961 962
f 784 786 962
f 784 962 947
f 946 948 963
f 946 963 961
f 948 949 964
f 948 964 963
f 949 950 965
f 949 965 964
f 950 951 966
f 950 966 965
f 951 952 967
f 951 967 966
f 952 953 968
f 952 968 967
f 953 954 969
f 953 969 968
f 954 955 970
f 954 970 969
f 955 956 971
f 955 971 970
f 956 957 972
f 956 972 971
f 957 958 973
f 957 973 972
f 958 959 974
f 958 974 973
f 959 960 975
f 959 975 974
f 785 960 975
f 785 975 787
f 962 961 976
f 962 976 977
f 786 788 977
f 786 977 962
f 961 963 978
f 961 978 976
f 963 964 979
f 963 979 978
f 964 965 980
f 964 980 979
f 965 966 981
f 965 981 980
f 966 967 982
f 966 982 981
f 967 968 983
f 967 983 982
f 968 969 984
f 968 984 983
f 969 970 985
f 969 985 984
f 970 971 986
f 970 986 985
f 971 972 987
f 971 987 986
f 972 973 988
f 972 988 987
f 973 974 989
f 973 989 988
f 974 975 990
f 974 990 989
f 787 975 990
f 787 990 789
f 977 976 991
f 977 991 992
f 788 790 992
f 788 992 977
f 976 978 993
f 976 993 991
f 978 979 994
f 978 994 993
f 979 980 995
f 979 995 994
f 980 981 996
f 980 996 995
f 981 982 997
f 981 997 996
f 982 983 998
f 982 998 997
f 983 984 999
f 983 999 998
f 984 985 1000
f 984 1000 999
f 985 986 1001
f 985 1001 1000
f 986 987 1002
f 986 1002 1001
f 987 988 1003
f 987 1003 1002
f 988 989 1004
f 988 1004 1003
f 989 990 1005
f 989 1005 1004
f 789 990 1005
f 789 1005 791
f 992 991 1006
f 992 1006 1007
f 790 792 1007
f 790 1007 992
f 991 993 1008
f 991 1008 1006
f 993 994 1009
f 993 1009 1008
f 994 995 1010
f 994 1010 1009
f 995 996 1011
f 995 1011 1010
f 996 997 1012
f 996 1012 1011
f 997 998 1013
f 997 1013 1012
f 998 999 1014
f 998 1014 1013
f 999 1000 1015
f 999 1015 1014
f 1000 1001 1016
f 1000 1016 1015
f 1001 1002 1017
f 1001 1017 1016
f 1002 1003 1018
f 1002 1018 1017
f 1003 1004 1019
f 1003 1019 1018
f 1004 1005 1020
f 1004 1020 1019
f 791 1005 1020
f 791 1020 793
f 1007 1006 1021
f 1007 1021 1022
f 792 794 1022
f 792 1022 1007
f 1006 1008 1023
f 1006 1023 1021
f 1008 1009 1024
f 1008 1024 1023
f 1009 1010 1025
f 1009 1025 1024
f 1010 1011 1026
f 1010 1026 1025
f 1011 1012 1027
f 1011 1027 1026
f 1012 1013 1028
f 1012 1028 1027
f 1013 1014 1029
f 1013 1029 1028
f 1014 1015 1030
f 1014 1030 1029
f 1015 1016 1031
f 1015 1031 1030
f 1016 1017 1032
f 1016 1032 1031
f 1017 1018 1033
f 1017 1033 1032
f 1018 1019 1034
f 1018 1034 1033
f 1019 1020 1035
f 1019 1035 1034
f 793 1020 1035
f 793 1035 795
f 1022 1021 1036
f 1022 1036 1037
f 799 798 1036
f 799 1036 1037
f 794 799 1037
f 794 1037 1022
f 1021 1023 1038
f 1021 1038 1036
f 798 801 1038
f 798 1038 1036
f 1023 1024 1039
f 1023 1039 1038
f 801 803 1039
f 801 1039 1038
f 1024 1025 1040
f 1024 1040 1039
f 803 805 1040
f 803 1040 1039
f 1025 1026 1041
f 1025 1041 1040
f 805 807 1041
f 805 1041 1040
f 1026 1027 1042
f 1026 1042 1041
f 807 809 1042
f 807 1042 1041
f 1027 1028 1043
f 1027 1043 1042
f 809 811 1043
f 809 1043 1042
f 1028 1029 1044
f 1028 1044 1043
f 811 813 1044
f 811 1044 1043
f 1029 1030 1045
f 1029 1045 1044
f 813 815 1045
f 813 1045 1044
f 1030 1031 1046
f 1030 1046 1045
f 815 817 1046
f 815 1046 1045
f 1031 1032 1047
f 1031 1047 1046
f 817 819 1047
f 817 1047 1046
f 1032 1033 1048
f 1032 1048 1047
f 819 821 1048
f 819 1048 1047
f 1033 1034 1049
f 1033 1049 1048
f 821 823 1049
f 821 1049 1048
f 1034 1035 1050
f 1034 1050 1049
f 823 825 1050
f 823 1050 1049
f 795 1035 1050
f 795 1050 825
