o [4B] 3D Diagram - S2-05 Group B_34
v -1.417500 1.406964 0.330000
v -1.417500 2.220891 0.330000
v -1.417500 2.220891 1.140000
v -1.417500 1.406964 1.140000
v -1.215000 1.406964 0.330000
v -1.215000 1.406964 1.140000
v -1.215000 2.220891 0.330000
v -1.417500 2.220891 1.950000
v -1.417500 1.406964 1.950000
v -1.215000 1.406964 1.950000
v -1.417500 2.220891 2.760000
v -1.417500 1.406964 2.760000
v -1.215000 1.406964 2.760000
v -1.417500 2.220891 3.570000
v -1.417500 1.406964 3.570000
v -1.215000 1.406964 3.570000
v -1.417500 2.220891 4.380000
v -1.417500 1.406964 4.380000
v -1.215000 1.406964 4.380000
v -1.417500 2.220891 5.190000
v -1.417500 1.406964 5.190000
v -1.215000 1.406964 5.190000
v -1.417500 2.220891 6.000000
v -1.417500 1.406964 6.000000
v -1.215000 1.406964 6.000000
v -1.417500 2.220891 6.810000
v -1.417500 1.406964 6.810000
v -1.215000 1.406964 6.810000
v -1.417500 2.220891 7.620000
v -1.417500 1.406964 7.620000
v -1.215000 1.406964 7.620000
v -1.417500 2.220891 8.430000
v -1.417500 1.406964 8.430000
v -1.215000 1.406964 8.430000
v -1.417500 2.220891 9.240000
v -1.417500 1.406964 9.240000
v -1.215000 1.406964 9.240000
v -1.417500 2.220891 10.050000
v -1.417500 1.406964 10.050000
v -1.215000 1.406964 10.050000
v -1.417500 2.220891 10.860000
v -1.417500 1.406964 10.860000
v -1.215000 1.406964 10.860000
v -1.417500 2.220891 11.670000
v -1.417500 1.406964 11.670000
v -1.215000 1.406964 11.670000
v -1.215000 2.220891 11.670000
v -1.417500 3.034818 0.330000
v -1.417500 3.034818 1.140000
v -1.215000 3.034818 0.330000
v -1.417500 3.034818 1.950000
v -1.417500 3.034818 2.760000
v -1.417500 3.034818 3.570000
v -1.417500 3.034818 4.380000
v -1.417500 3.034818 5.190000
v -1.417500 3.034818 6.000000
v -1.417500 3.034818 6.810000
v -1.417500 3.034818 7.620000
v -1.417500 3.034818 8.430000
v -1.417500 3.034818 9.240000
v -1.417500 3.034818 10.050000
v -1.417500 3.034818 10.860000
v -1.417500 3.034818 11.670000
v -1.215000 3.034818 11.670000
v -1.215000 3.034818 10.860000
v -1.417500 3.848745 0.330000
v -1.417500 3.848745 1.140000
v -1.215000 3.848745 0.330000
v -1.417500 3.848745 1.950000
v -1.417500 3.848745 2.760000
v -1.417500 3.848745 3.570000
v -1.417500 3.848745 4.380000
v -1.417500 3.848745 5.190000
v -1.417500 3.848745 6.000000
v -1.417500 3.848745 6.810000
v -1.417500 3.848745 7.620000
v -1.417500 3.848745 8.430000
v -1.417500 3.848745 9.240000
v -1.417500 3.848745 10.050000
v -1.417500 3.848745 10.860000
v -1.215000 3.848745 10.860000
v -1.215000 3.848745 10.050000
v -1.417500 4.662672 0.330000
v -1.417500 4.662672 1.140000
v -1.215000 4.662672 0.330000
v -1.417500 4.662672 1.950000
v -1.417500 4.662672 2.760000
v -1.417500 4.662672 3.570000
v -1.417500 4.662672 4.380000
v -1.417500 4.662672 5.190000
v -1.417500 4.662672 6.000000
v -1.417500 4.662672 6.810000
v -1.417500 4.662672 7.620000
v -1.417500 4.662672 8.430000
v -1.417500 4.662672 9.240000
v -1.417500 4.662672 10.050000
v -1.215000 4.662672 10.050000
v -1.215000 4.662672 9.240000
v -1.417500 5.476600 0.330000
v -1.417500 5.476600 1.140000
v -1.215000 5.476600 0.330000
v -1.417500 5.476600 1.950000
v -1.417500 5.476600 2.760000
v -1.417500 5.476600 3.570000
v -1.417500 5.476600 4.380000
v -1.417500 5.476600 5.190000
v -1.417500 5.476600 6.000000
v -1.417500 5.476600 6.810000
v -1.417500 5.476600 7.620000
v -1.417500 5.476600 8.430000
v -1.417500 5.476600 9.240000
v -1.215000 5.476600 9.240000
v -1.215000 5.476600 8.430000
v -1.417500 6.290527 0.330000
v -1.417500 6.290527 1.140000
v -1.215000 6.290527 0.330000
v -1.417500 6.290527 1.950000
v -1.417500 6.290527 2.760000
v -1.417500 6.290527 3.570000
v -1.417500 6.290527 4.380000
v -1.417500 6.290527 5.190000
v -1.417500 6.290527 6.000000
v -1.417500 6.290527 6.810000
v -1.417500 6.290527 7.620000
v -1.215000 6.290527 7.620000
v -1.215000 6.290527 6.810000
v -1.417500 6.290527 8.430000
v -1.215000 6.290527 8.430000
v -1.417500 7.104454 0.330000
v -1.417500 7.104454 1.140000
v -1.215000 7.104454 0.330000
v -1.417500 7.104454 1.950000
v -1.417500 7.104454 2.760000
v -1.417500 7.104454 3.570000
v -1.417500 7.104454 4.380000
v -1.417500 7.104454 5.190000
v -1.417500 7.104454 6.000000
v -1.417500 7.104454 6.810000
v -1.215000 7.104454 6.810000
v -1.215000 7.104454 6.000000
v -1.417500 7.918381 0.330000
v -1.417500 7.918381 1.140000
v -1.215000 7.918381 0.330000
v -1.417500 7.918381 1.950000
v -1.417500 7.918381 2.760000
v -1.417500 7.918381 3.570000
v -1.417500 7.918381 4.380000
v -1.417500 7.918381 5.190000
v -1.417500 7.918381 6.000000
v -1.215000 7.918381 6.000000
v -1.215000 7.918381 5.190000
v -1.417500 8.732309 0.330000
v -1.417500 8.732309 1.140000
v -1.215000 8.732309 0.330000
v -1.417500 8.732309 1.950000
v -1.417500 8.732309 2.760000
v -1.417500 8.732309 3.570000
v -1.417500 8.732309 4.380000
v -1.417500 8.732309 5.190000
v -1.215000 8.732309 5.190000
v -1.215000 8.732309 4.380000
v -1.417500 9.546236 0.330000
v -1.417500 9.546236 1.140000
v -1.215000 9.546236 0.330000
v -1.417500 9.546236 1.950000
v -1.417500 9.546236 2.760000
v -1.417500 9.546236 3.570000
v -1.417500 9.546236 4.380000
v -1.215000 9.546236 4.380000
v -1.215000 9.546236 3.570000
v -1.417500 10.360163 0.330000
v -1.417500 10.360163 1.140000
v -1.215000 10.360163 0.330000
v -1.417500 10.360163 1.950000
v -1.417500 10.360163 2.760000
v -1.417500 10.360163 3.570000
v -1.215000 10.360163 3.570000
v -1.215000 10.360163 2.760000
v -1.417500 11.174090 0.330000
v -1.417500 11.174090 1.140000
v -1.215000 11.174090 0.330000
v -1.417500 11.174090 1.950000
v -1.417500 11.174090 2.760000
v -1.215000 11.174090 2.760000
v -1.215000 11.174090 1.950000
v -1.417500 11.988017 0.330000
v -1.417500 11.988017 1.140000
v -1.215000 11.988017 0.330000
v -1.417500 11.988017 1.950000
v -1.215000 11.988017 1.950000
v -1.215000 11.988017 1.140000
v -1.417500 12.801945 0.330000
v -1.417500 12.801945 1.140000
v -1.215000 12.801945 1.140000
v -1.215000 12.801945 0.330000
v -1.012500 1.406964 0.330000
v -1.012500 1.406964 1.140000
v -1.012500 2.220891 0.330000
v -1.012500 1.406964 1.950000
v -1.012500 1.406964 2.760000
v -1.012500 1.406964 3.570000
v -1.012500 1.406964 4.380000
v -1.012500 1.406964 5.190000
v -1.012500 1.406964 6.000000
v -1.012500 1.406964 6.810000
v -1.012500 1.406964 7.620000
v -1.012500 1.406964 8.430000
v -1.012500 1.406964 9.240000
v -1.012500 1.406964 10.050000
v -1.012500 1.406964 10.860000
v -1.012500 1.406964 11.670000
v -1.012500 2.220891 11.670000
v -1.012500 3.034818 0.330000
v -1.012500 3.034818 11.670000
v -1.012500 3.034818 10.860000
v -1.012500 3.848745 0.330000
v -1.012500 3.848745 10.860000
v -1.012500 3.848745 10.050000
v -1.012500 4.662672 0.330000
v -1.012500 4.662672 10.050000
v -1.012500 4.662672 9.240000
v -1.012500 5.476600 0.330000
v -1.012500 5.476600 9.240000
v -1.012500 5.476600 8.430000
v -1.012500 6.290527 0.330000
v -1.012500 6.290527 7.620000
v -1.012500 6.290527 6.810000
v -1.012500 6.290527 8.430000
v -1.012500 7.104454 0.330000
v -1.012500 7.104454 6.810000
v -1.012500 7.104454 6.000000
v -1.012500 7.918381 0.330000
v -1.012500 7.918381 6.000000
v -1.012500 7.918381 5.190000
v -1.012500 8.732309 0.330000
v -1.012500 8.732309 5.190000
v -1.012500 8.732309 4.380000
v -1.012500 9.546236 0.330000
v -1.012500 9.546236 4.380000
v -1.012500 9.546236 3.570000
v -1.012500 10.360163 0.330000
v -1.012500 10.360163 3.570000
v -1.012500 10.360163 2.760000
v -1.012500 11.174090 0.330000
v -1.012500 11.174090 2.760000
v -1.012500 11.174090 1.950000
v -1.012500 11.988017 0.330000
v -1.012500 11.988017 1.950000
v -1.012500 11.988017 1.140000
v -1.012500 12.801945 1.140000
v -1.012500 12.801945 0.330000
v -0.810000 1.406964 0.330000
v -0.810000 1.406964 1.140000
v -0.810000 2.220891 0.330000
v -0.810000 1.406964 1.950000
v -0.810000 1.406964 2.760000
v -0.810000 1.406964 3.570000
v -0.810000 1.406964 4.380000
v -0.810000 1.406964 5.190000
v -0.810000 1.406964 6.000000
v -0.810000 1.406964 6.810000
v -0.810000 1.406964 7.620000
v -0.810000 1.406964 8.430000
v -0.810000 1.406964 9.240000
v -0.810000 1.406964 10.050000
v -0.810000 1.406964 10.860000
v -0.810000 1.406964 11.670000
v -0.810000 2.220891 11.670000
v -0.810000 3.034818 0.330000
v -0.810000 3.034818 11.670000
v -0.810000 3.034818 10.860000
v -0.810000 3.848745 0.330000
v -0.810000 3.848745 10.860000
v -0.810000 3.848745 10.050000
v -0.810000 4.662672 0.330000
v -0.810000 4.662672 10.050000
v -0.810000 4.662672 9.240000
v -0.810000 5.476600 0.330000
v -0.810000 5.476600 9.240000
v -0.810000 5.476600 8.430000
v -0.810000 6.290527 0.330000
v -0.810000 6.290527 7.620000
v -0.810000 6.290527 6.810000
v -0.810000 6.290527 8.430000
v -0.810000 7.104454 0.330000
v -0.810000 7.104454 6.810000
v -0.810000 7.104454 6.000000
v -0.810000 7.918381 0.330000
v -0.810000 7.918381 6.000000
v -0.810000 7.918381 5.190000
v -0.810000 8.732309 0.330000
v -0.810000 8.732309 5.190000
v -0.810000 8.732309 4.380000
v -0.810000 9.546236 0.330000
v -0.810000 9.546236 4.380000
v -0.810000 9.546236 3.570000
v -0.810000 10.360163 0.330000
v -0.810000 10.360163 3.570000
v -0.810000 10.360163 2.760000
v -0.810000 11.174090 0.330000
v -0.810000 11.174090 2.760000
v -0.810000 11.174090 1.950000
v -0.810000 11.988017 0.330000
v -0.810000 11.988017 1.950000
v -0.810000 11.988017 1.140000
v -0.810000 12.801945 1.140000
v -0.810000 12.801945 0.330000
v -0.607500 1.406964 0.330000
v -0.607500 1.406964 1.140000
v -0.607500 2.220891 0.330000
v -0.607500 1.406964 1.950000
v -0.607500 1.406964 2.760000
v -0.607500 1.406964 3.570000
v -0.607500 1.406964 4.380000
v -0.607500 1.406964 5.190000
v -0.607500 1.406964 6.000000
v -0.607500 1.406964 6.810000
v -0.607500 1.406964 7.620000
v -0.607500 1.406964 8.430000
v -0.607500 1.406964 9.240000
v -0.607500 1.406964 10.050000
v -0.607500 1.406964 10.860000
v -0.607500 1.406964 11.670000
v -0.607500 2.220891 11.670000
v -0.607500 3.034818 0.330000
v -0.607500 3.034818 11.670000
v -0.607500 3.034818 10.860000
v -0.607500 3.848745 0.330000
v -0.607500 3.848745 10.860000
v -0.607500 3.848745 10.050000
v -0.607500 4.662672 0.330000
v -0.607500 4.662672 10.050000
v -0.607500 4.662672 9.240000
v -0.607500 5.476600 0.330000
v -0.607500 5.476600 9.240000
v -0.607500 5.476600 8.430000
v -0.607500 6.290527 0.330000
v -0.607500 6.290527 7.620000
v -0.607500 6.290527 6.810000
v -0.607500 6.290527 8.430000
v -0.607500 7.104454 0.330000
v -0.607500 7.104454 6.810000
v -0.607500 7.104454 6.000000
v -0.607500 7.918381 0.330000
v -0.607500 7.918381 6.000000
v -0.607500 7.918381 5.190000
v -0.607500 8.732309 0.330000
v -0.607500 8.732309 5.190000
v -0.607500 8.732309 4.380000
v -0.607500 9.546236 0.330000
v -0.607500 9.546236 4.380000
v -0.607500 9.546236 3.570000
v -0.607500 10.360163 0.330000
v -0.607500 10.360163 3.570000
v -0.607500 10.360163 2.760000
v -0.607500 11.174090 0.330000
v -0.607500 11.174090 2.760000
v -0.607500 11.174090 1.950000
v -0.607500 11.988017 0.330000
v -0.607500 11.988017 1.950000
v -0.607500 11.988017 1.140000
v -0.607500 12.801945 1.140000
v -0.607500 12.801945 0.330000
v -0.405000 1.406964 0.330000
v -0.405000 1.406964 1.140000
v -0.405000 2.220891 0.330000
v -0.405000 1.406964 1.950000
v -0.405000 1.406964 2.760000
v -0.405000 1.406964 3.570000
v -0.405000 1.406964 4.380000
v -0.405000 1.406964 5.190000
v -0.405000 1.406964 6.000000
v -0.405000 1.406964 6.810000
v -0.405000 1.406964 7.620000
v -0.405000 1.406964 8.430000
v -0.405000 1.406964 9.240000
v -0.405000 1.406964 10.050000
v -0.405000 1.406964 10.860000
v -0.405000 1.406964 11.670000
v -0.405000 2.220891 11.670000
v -0.405000 3.034818 0.330000
v -0.405000 3.034818 11.670000
v -0.405000 3.034818 10.860000
v -0.405000 3.848745 0.330000
v -0.405000 3.848745 10.860000
v -0.405000 3.848745 10.050000
v -0.405000 4.662672 0.330000
v -0.405000 4.662672 10.050000
v -0.405000 4.662672 9.240000
v -0.405000 5.476600 0.330000
v -0.405000 5.476600 9.240000
v -0.405000 5.476600 8.430000
v -0.405000 6.290527 0.330000
v -0.405000 6.290527 7.620000
v -0.405000 6.290527 6.810000
v -0.405000 6.290527 8.430000
v -0.405000 7.104454 0.330000
v -0.405000 7.104454 6.810000
v -0.405000 7.104454 6.000000
v -0.405000 7.918381 0.330000
v -0.405000 7.918381 6.000000
v -0.405000 7.918381 5.190000
v -0.405000 8.732309 0.330000
v -0.405000 8.732309 5.190000
v -0.405000 8.732309 4.380000
v -0.405000 9.546236 0.330000
v -0.405000 9.546236 4.380000
v -0.405000 9.546236 3.570000
v -0.405000 10.360163 0.330000
v -0.405000 10.360163 3.570000
v -0.405000 10.360163 2.760000
v -0.405000 11.174090 0.330000
v -0.405000 11.174090 2.760000
v -0.405000 11.174090 1.950000
v -0.405000 11.988017 0.330000
v -0.405000 11.988017 1.950000
v -0.405000 11.988017 1.140000
v -0.405000 12.801945 1.140000
v -0.405000 12.801945 0.330000
v -0.202500 1.406964 0.330000
v -0.202500 1.406964 1.140000
v -0.202500 2.220891 0.330000
v -0.202500 1.406964 1.950000
v -0.202500 1.406964 2.760000
v -0.202500 1.406964 3.570000
v -0.202500 1.406964 4.380000
v -0.202500 1.406964 5.190000
v -0.202500 1.406964 6.000000
v -0.202500 1.406964 6.810000
v -0.202500 1.406964 7.620000
v -0.202500 1.406964 8.430000
v -0.202500 1.406964 9.240000
v -0.202500 1.406964 10.050000
v -0.202500 1.406964 10.860000
v -0.202500 1.406964 11.670000
v -0.202500 2.220891 11.670000
v -0.202500 3.034818 0.330000
v -0.202500 3.034818 11.670000
v -0.202500 3.034818 10.860000
v -0.202500 3.848745 0.330000
v -0.202500 3.848745 10.860000
v -0.202500 3.848745 10.050000
v -0.202500 4.662672 0.330000
v -0.202500 4.662672 10.050000
v -0.202500 4.662672 9.240000
v -0.202500 5.476600 0.330000
v -0.202500 5.476600 9.240000
v -0.202500 5.476600 8.430000
v -0.202500 6.290527 0.330000
v -0.202500 6.290527 7.620000
v -0.202500 6.290527 6.810000
v -0.202500 6.290527 8.430000
v -0.202500 7.104454 0.330000
v -0.202500 7.104454 6.810000
v -0.202500 7.104454 6.000000
v -0.202500 7.918381 0.330000
v -0.202500 7.918381 6.000000
v -0.202500 7.918381 5.190000
v -0.202500 8.732309 0.330000
v -0.202500 8.732309 5.190000
v -0.202500 8.732309 4.380000
v -0.202500 9.546236 0.330000
v -0.202500 9.546236 4.380000
v -0.202500 9.546236 3.570000
v -0.202500 10.360163 0.330000
v -0.202500 10.360163 3.570000
v -0.202500 10.360163 2.760000
v -0.202500 11.174090 0.330000
v -0.202500 11.174090 2.760000
v -0.202500 11.174090 1.950000
v -0.202500 11.988017 0.330000
v -0.202500 11.988017 1.950000
v -0.202500 11.988017 1.140000
v -0.202500 12.801945 1.140000
v -0.202500 12.801945 0.330000
v 0.000000 1.406964 0.330000
v 0.000000 1.406964 1.140000
v 0.000000 2.220891 0.330000
v 0.000000 1.406964 1.950000
v 0.000000 1.406964 2.760000
v 0.000000 1.406964 3.570000
v 0.000000 1.406964 4.380000
v 0.000000 1.406964 5.190000
v 0.000000 1.406964 6.000000
v 0.000000 1.406964 6.810000
v 0.000000 1.406964 7.620000
v 0.000000 1.406964 8.430000
v 0.000000 1.406964 9.240000
v 0.000000 1.406964 10.050000
v 0.000000 1.406964 10.860000
v 0.000000 1.406964 11.670000
v 0.000000 2.220891 11.670000
v 0.000000 3.034818 0.330000
v 0.000000 3.034818 11.670000
v 0.000000 3.034818 10.860000
v 0.000000 3.848745 0.330000
v 0.000000 3.848745 10.860000
v 0.000000 3.848745 10.050000
v 0.000000 4.662672 0.330000
v 0.000000 4.662672 10.050000
v 0.000000 4.662672 9.240000
v 0.000000 5.476600 0.330000
v 0.000000 5.476600 9.240000
v 0.000000 5.476600 8.430000
v 0.000000 6.290527 0.330000
v 0.000000 6.290527 7.620000
v 0.000000 6.290527 6.810000
v 0.000000 6.290527 8.430000
v 0.000000 7.104454 0.330000
v 0.000000 7.104454 6.810000
v 0.000000 7.104454 6.000000
v 0.000000 7.918381 0.330000
v 0.000000 7.918381 6.000000
v 0.000000 7.918381 5.190000
v 0.000000 8.732309 0.330000
v 0.000000 8.732309 5.190000
v 0.000000 8.732309 4.380000
v 0.000000 9.546236 0.330000
v 0.000000 9.546236 4.380000
v 0.000000 9.546236 3.570000
v 0.000000 10.360163 0.330000
v 0.000000 10.360163 3.570000
v 0.000000 10.360163 2.760000
v 0.000000 11.174090 0.330000
v 0.000000 11.174090 2.760000
v 0.000000 11.174090 1.950000
v 0.000000 11.988017 0.330000
v 0.000000 11.988017 1.950000
v 0.000000 11.988017 1.140000
v 0.000000 12.801945 1.140000
v 0.000000 12.801945 0.330000
v 0.202500 1.406964 0.330000
v 0.202500 1.406964 1.140000
v 0.202500 2.220891 0.330000
v 0.202500 1.406964 1.950000
v 0.202500 1.406964 2.760000
v 0.202500 1.406964 3.570000
v 0.202500 1.406964 4.380000
v 0.202500 1.406964 5.190000
v 0.202500 1.406964 6.000000
v 0.202500 1.406964 6.810000
v 0.202500 1.406964 7.620000
v 0.202500 1.406964 8.430000
v 0.202500 1.406964 9.240000
v 0.202500 1.406964 10.050000
v 0.202500 1.406964 10.860000
v 0.202500 1.406964 11.670000
v 0.202500 2.220891 11.670000
v 0.202500 3.034818 0.330000
v 0.202500 3.034818 11.670000
v 0.202500 3.034818 10.860000
v 0.202500 3.848745 0.330000
v 0.202500 3.848745 10.860000
v 0.202500 3.848745 10.050000
v 0.202500 4.662672 0.330000
v 0.202500 4.662672 10.050000
v 0.202500 4.662672 9.240000
v 0.202500 5.476600 0.330000
v 0.202500 5.476600 9.240000
v 0.202500 5.476600 8.430000
v 0.202500 6.290527 0.330000
v 0.202500 6.290527 7.620000
v 0.202500 6.290527 6.810000
v 0.202500 6.290527 8.430000
v 0.202500 7.104454 0.330000
v 0.202500 7.104454 6.810000
v 0.202500 7.104454 6.000000
v 0.202500 7.918381 0.330000
v 0.202500 7.918381 6.000000
v 0.202500 7.918381 5.190000
v 0.202500 8.732309 0.330000
v 0.202500 8.732309 5.190000
v 0.202500 8.732309 4.380000
v 0.202500 9.546236 0.330000
v 0.202500 9.546236 4.380000
v 0.202500 9.546236 3.570000
v 0.202500 10.360163 0.330000
v 0.202500 10.360163 3.570000
v 0.202500 10.360163 2.760000
v 0.202500 11.174090 0.330000
v 0.202500 11.174090 2.760000
v 0.202500 11.174090 1.950000
v 0.202500 11.988017 0.330000
v 0.202500 11.988017 1.950000
v 0.202500 11.988017 1.140000
v 0.202500 12.801945 1.140000
v 0.202500 12.801945 0.330000
v 0.405000 1.406964 0.330000
v 0.405000 1.406964 1.140000
v 0.405000 2.220891 0.330000
v 0.405000 1.406964 1.950000
v 0.405000 1.406964 2.760000
v 0.405000 1.406964 3.570000
v 0.405000 1.406964 4.380000
v 0.405000 1.406964 5.190000
v 0.405000 1.406964 6.000000
v 0.405000 1.406964 6.810000
v 0.405000 1.406964 7.620000
v 0.405000 1.406964 8.430000
v 0.405000 1.406964 9.240000
v 0.405000 1.406964 10.050000
v 0.405000 1.406964 10.860000
v 0.405000 1.406964 11.670000
v 0.405000 2.220891 11.670000
v 0.405000 3.034818 0.330000
v 0.405000 3.034818 11.670000
v 0.405000 3.034818 10.860000
v 0.405000 3.848745 0.330000
v 0.405000 3.848745 10.860000
v 0.405000 3.848745 10.050000
v 0.405000 4.662672 0.330000
v 0.405000 4.662672 10.050000
v 0.405000 4.662672 9.240000
v 0.405000 5.476600 0.330000
v 0.405000 5.476600 9.240000
v 0.405000 5.476600 8.430000
v 0.405000 6.290527 0.330000
v 0.405000 6.290527 7.620000
v 0.405000 6.290527 6.810000
v 0.405000 6.290527 8.430000
v 0.405000 7.104454 0.330000
v 0.405000 7.104454 6.810000
v 0.405000 7.104454 6.000000
v 0.405000 7.918381 0.330000
v 0.405000 7.918381 6.000000
v 0.405000 7.918381 5.190000
v 0.405000 8.732309 0.330000
v 0.405000 8.732309 5.190000
v 0.405000 8.732309 4.380000
v 0.405000 9.546236 0.330000
v 0.405000 9.546236 4.380000
v 0.405000 9.546236 3.570000
v 0.405000 10.360163 0.330000
v 0.405000 10.360163 3.570000
v 0.405000 10.360163 2.760000
v 0.405000 11.174090 0.330000
v 0.405000 11.174090 2.760000
v 0.405000 11.174090 1.950000
v 0.405000 11.988017 0.330000
v 0.405000 11.988017 1.950000
v 0.405000 11.988017 1.140000
v 0.405000 12.801945 1.140000
v 0.405000 12.801945 0.330000
v 0.607500 1.406964 0.330000
v 0.607500 1.406964 1.140000
v 0.607500 2.220891 0.330000
v 0.607500 1.406964 1.950000
v 0.607500 1.406964 2.760000
v 0.607500 1.406964 3.570000
v 0.607500 1.406964 4.380000
v 0.607500 1.406964 5.190000
v 0.607500 1.406964 6.000000
v 0.607500 1.406964 6.810000
v 0.607500 1.406964 7.620000
v 0.607500 1.406964 8.430000
v 0.607500 1.406964 9.240000
v 0.607500 1.406964 10.050000
v 0.607500 1.406964 10.860000
v 0.607500 1.406964 11.670000
v 0.607500 2.220891 11.670000
v 0.607500 3.034818 0.330000
v 0.607500 3.034818 11.670000
v 0.607500 3.034818 10.860000
v 0.607500 3.848745 0.330000
v 0.607500 3.848745 10.860000
v 0.607500 3.848745 10.050000
v 0.607500 4.662672 0.330000
v 0.607500 4.662672 10.050000
v 0.607500 4.662672 9.240000
v 0.607500 5.476600 0.330000
v 0.607500 5.476600 9.240000
v 0.607500 5.476600 8.430000
v 0.607500 6.290527 0.330000
v 0.607500 6.290527 7.620000
v 0.607500 6.290527 6.810000
v 0.607500 6.290527 8.430000
v 0.607500 7.104454 0.330000
v 0.607500 7.104454 6.810000
v 0.607500 7.104454 6.000000
v 0.607500 7.918381 0.330000
v 0.607500 7.918381 6.000000
v 0.607500 7.918381 5.190000
v 0.607500 8.732309 0.330000
v 0.607500 8.732309 5.190000
v 0.607500 8.732309 4.380000
v 0.607500 9.546236 0.330000
v 0.607500 9.546236 4.380000
v 0.607500 9.546236 3.570000
v 0.607500 10.360163 0.330000
v 0.607500 10.360163 3.570000
v 0.607500 10.360163 2.760000
v 0.607500 11.174090 0.330000
v 0.607500 11.174090 2.760000
v 0.607500 11.174090 1.950000
v 0.607500 11.988017 0.330000
v 0.607500 11.988017 1.950000
v 0.607500 11.988017 1.140000
v 0.607500 12.801945 1.140000
v 0.607500 12.801945 0.330000
v 0.810000 1.406964 0.330000
v 0.810000 1.406964 1.140000
v 0.810000 2.220891 0.330000
v 0.810000 1.406964 1.950000
v 0.810000 1.406964 2.760000
v 0.810000 1.406964 3.570000
v 0.810000 1.406964 4.380000
v 0.810000 1.406964 5.190000
v 0.810000 1.406964 6.000000
v 0.810000 1.406964 6.810000
v 0.810000 1.406964 7.620000
v 0.810000 1.406964 8.430000
v 0.810000 1.406964 9.240000
v 0.810000 1.406964 10.050000
v 0.810000 1.406964 10.860000
v 0.810000 1.406964 11.670000
v 0.810000 2.220891 11.670000
v 0.810000 3.034818 0.330000
v 0.810000 3.034818 11.670000
v 0.810000 3.034818 10.860000
v 0.810000 3.848745 0.330000
v 0.810000 3.848745 10.860000
v 0.810000 3.848745 10.050000
v 0.810000 4.662672 0.330000
v 0.810000 4.662672 10.050000
v 0.810000 4.662672 9.240000
v 0.810000 5.476600 0.330000
v 0.810000 5.476600 9.240000
v 0.810000 5.476600 8.430000
v 0.810000 6.290527 0.330000
v 0.810000 6.290527 7.620000
v 0.810000 6.290527 6.810000
v 0.810000 6.290527 8.430000
v 0.810000 7.104454 0.330000
v 0.810000 7.104454 6.810000
v 0.810000 7.104454 6.000000
v 0.810000 7.918381 0.330000
v 0.810000 7.918381 6.000000
v 0.810000 7.918381 5.190000
v 0.810000 8.732309 0.330000
v 0.810000 8.732309 5.190000
v 0.810000 8.732309 4.380000
v 0.810000 9.546236 0.330000
v 0.810000 9.546236 4.380000
v 0.810000 9.546236 3.570000
v 0.810000 10.360163 0.330000
v 0.810000 10.360163 3.570000
v 0.810000 10.360163 2.760000
v 0.810000 11.174090 0.330000
v 0.810000 11.174090 2.760000
v 0.810000 11.174090 1.950000
v 0.810000 11.988017 0.330000
v 0.810000 11.988017 1.950000
v 0.810000 11.988017 1.140000
v 0.810000 12.801945 1.140000
v 0.810000 12.801945 0.330000
v 1.012500 1.406964 0.330000
v 1.012500 1.406964 1.140000
v 1.012500 2.220891 0.330000
v 1.012500 1.406964 1.950000
v 1.012500 1.406964 2.760000
v 1.012500 1.406964 3.570000
v 1.012500 1.406964 4.380000
v 1.012500 1.406964 5.190000
v 1.012500 1.406964 6.000000
v 1.012500 1.406964 6.810000
v 1.012500 1.406964 7.620000
v 1.012500 1.406964 8.430000
v 1.012500 1.406964 9.240000
v 1.012500 1.406964 10.050000
v 1.012500 1.406964 10.860000
v 1.012500 1.406964 11.670000
v 1.012500 2.220891 11.670000
v 1.012500 3.034818 0.330000
v 1.012500 3.034818 11.670000
v 1.012500 3.034818 10.860000
v 1.012500 3.848745 0.330000
v 1.012500 3.848745 10.860000
v 1.012500 3.848745 10.050000
v 1.012500 4.662672 0.330000
v 1.012500 4.662672 10.050000
v 1.012500 4.662672 9.240000
v 1.012500 5.476600 0.330000
v 1.012500 5.476600 9.240000
v 1.012500 5.476600 8.430000
v 1.012500 6.290527 0.330000
v 1.012500 6.290527 7.620000
v 1.012500 6.290527 6.810000
v 1.012500 6.290527 8.430000
v 1.012500 7.104454 0.330000
v 1.012500 7.104454 6.810000
v 1.012500 7.104454 6.000000
v 1.012500 7.918381 0.330000
v 1.012500 7.918381 6.000000
v 1.012500 7.918381 5.190000
v 1.012500 8.732309 0.330000
v 1.012500 8.732309 5.190000
v 1.012500 8.732309 4.380000
v 1.012500 9.546236 0.330000
v 1.012500 9.546236 4.380000
v 1.012500 9.546236 3.570000
v 1.012500 10.360163 0.330000
v 1.012500 10.360163 3.570000
v 1.012500 10.360163 2.760000
v 1.012500 11.174090 0.330000
v 1.012500 11.174090 2.760000
v 1.012500 11.174090 1.950000
v 1.012500 11.988017 0.330000
v 1.012500 11.988017 1.950000
v 1.012500 11.988017 1.140000
v 1.012500 12.801945 1.140000
v 1.012500 12.801945 0.330000
v 1.215000 1.406964 0.330000
v 1.215000 1.406964 1.140000
v 1.215000 2.220891 0.330000
v 1.215000 1.406964 1.950000
v 1.215000 1.406964 2.760000
v 1.215000 1.406964 3.570000
v 1.215000 1.406964 4.380000
v 1.215000 1.406964 5.190000
v 1.215000 1.406964 6.000000
v 1.215000 1.406964 6.810000
v 1.215000 1.406964 7.620000
v 1.215000 1.406964 8.430000
v 1.215000 1.406964 9.240000
v 1.215000 1.406964 10.050000
v 1.215000 1.406964 10.860000
v 1.215000 1.406964 11.670000
v 1.215000 2.220891 11.670000
v 1.215000 3.034818 0.330000
v 1.215000 3.034818 11.670000
v 1.215000 3.034818 10.860000
v 1.215000 3.848745 0.330000
v 1.215000 3.848745 10.860000
v 1.215000 3.848745 10.050000
v 1.215000 4.662672 0.330000
v 1.215000 4.662672 10.050000
v 1.215000 4.662672 9.240000
v 1.215000 5.476600 0.330000
v 1.215000 5.476600 9.240000
v 1.215000 5.476600 8.430000
v 1.215000 6.290527 0.330000
v 1.215000 6.290527 7.620000
v 1.215000 6.290527 6.810000
v 1.215000 6.290527 8.430000
v 1.215000 7.104454 0.330000
v 1.215000 7.104454 6.810000
v 1.215000 7.104454 6.000000
v 1.215000 7.918381 0.330000
v 1.215000 7.918381 6.000000
v 1.215000 7.918381 5.190000
v 1.215000 8.732309 0.330000
v 1.215000 8.732309 5.190000
v 1.215000 8.732309 4.380000
v 1.215000 9.546236 0.330000
v 1.215000 9.546236 4.380000
v 1.215000 9.546236 3.570000
v 1.215000 10.360163 0.330000
v 1.215000 10.360163 3.570000
v 1.215000 10.360163 2.760000
v 1.215000 11.174090 0.330000
v 1.215000 11.174090 2.760000
v 1.215000 11.174090 1.950000
v 1.215000 11.988017 0.330000
v 1.215000 11.988017 1.950000
v 1.215000 11.988017 1.140000
v 1.215000 12.801945 1.140000
v 1.215000 12.801945 0.330000
v 1.417500 1.406964 0.330000
v 1.417500 1.406964 1.140000
v 1.417500 2.220891 1.140000
v 1.417500 2.220891 0.330000
v 1.417500 1.406964 1.950000
v 1.417500 2.220891 1.950000
v 1.417500 1.406964 2.760000
v 1.417500 2.220891 2.760000
v 1.417500 1.406964 3.570000
v 1.417500 2.220891 3.570000
v 1.417500 1.406964 4.380000
v 1.417500 2.220891 4.380000
v 1.417500 1.406964 5.190000
v 1.417500 2.220891 5.190000
v 1.417500 1.406964 6.000000
v 1.417500 2.220891 6.000000
v 1.417500 1.406964 6.810000
v 1.417500 2.220891 6.810000
v 1.417500 1.406964 7.620000
v 1.417500 2.220891 7.620000
v 1.417500 1.406964 8.430000
v 1.417500 2.220891 8.430000
v 1.417500 1.406964 9.240000
v 1.417500 2.220891 9.240000
v 1.417500 1.406964 10.050000
v 1.417500 2.220891 10.050000
v 1.417500 1.406964 10.860000
v 1.417500 2.220891 10.860000
v 1.417500 1.406964 11.670000
v 1.417500 2.220891 11.670000
v 1.417500 3.034818 1.140000
v 1.417500 3.034818 0.330000
v 1.417500 3.034818 1.950000
v 1.417500 3.034818 2.760000
v 1.417500 3.034818 3.570000
v 1.417500 3.034818 4.380000
v 1.417500 3.034818 5.190000
v 1.417500 3.034818 6.000000
v 1.417500 3.034818 6.810000
v 1.417500 3.034818 7.620000
v 1.417500 3.034818 8.430000
v 1.417500 3.034818 9.240000
v 1.417500 3.034818 10.050000
v 1.417500 3.034818 10.860000
v 1.417500 3.034818 11.670000
v 1.417500 3.848745 1.140000
v 1.417500 3.848745 0.330000
v 1.417500 3.848745 1.950000
v 1.417500 3.848745 2.760000
v 1.417500 3.848745 3.570000
v 1.417500 3.848745 4.380000
v 1.417500 3.848745 5.190000
v 1.417500 3.848745 6.000000
v 1.417500 3.848745 6.810000
v 1.417500 3.848745 7.620000
v 1.417500 3.848745 8.430000
v 1.417500 3.848745 9.240000
v 1.417500 3.848745 10.050000
v 1.417500 3.848745 10.860000
v 1.417500 4.662672 1.140000
v 1.417500 4.662672 0.330000
v 1.417500 4.662672 1.950000
v 1.417500 4.662672 2.760000
v 1.417500 4.662672 3.570000
v 1.417500 4.662672 4.380000
v 1.417500 4.662672 5.190000
v 1.417500 4.662672 6.000000
v 1.417500 4.662672 6.810000
v 1.417500 4.662672 7.620000
v 1.417500 4.662672 8.430000
v 1.417500 4.662672 9.240000
v 1.417500 4.662672 10.050000
v 1.417500 5.476600 1.140000
v 1.417500 5.476600 0.330000
v 1.417500 5.476600 1.950000
v 1.417500 5.476600 2.760000
v 1.417500 5.476600 3.570000
v 1.417500 5.476600 4.380000
v 1.417500 5.476600 5.190000
v 1.417500 5.476600 6.000000
v 1.417500 5.476600 6.810000
v 1.417500 5.476600 7.620000
v 1.417500 5.476600 8.430000
v 1.417500 5.476600 9.240000
v 1.417500 6.290527 1.140000
v 1.417500 6.290527 0.330000
v 1.417500 6.290527 1.950000
v 1.417500 6.290527 2.760000
v 1.417500 6.290527 3.570000
v 1.417500 6.290527 4.380000
v 1.417500 6.290527 5.190000
v 1.417500 6.290527 6.000000
v 1.417500 6.290527 6.810000
v 1.417500 6.290527 7.620000
v 1.417500 6.290527 8.430000
v 1.417500 7.104454 1.140000
v 1.417500 7.104454 0.330000
v 1.417500 7.104454 1.950000
v 1.417500 7.104454 2.760000
v 1.417500 7.104454 3.570000
v 1.417500 7.104454 4.380000
v 1.417500 7.104454 5.190000
v 1.417500 7.104454 6.000000
v 1.417500 7.104454 6.810000
v 1.417500 7.918381 1.140000
v 1.417500 7.918381 0.330000
v 1.417500 7.918381 1.950000
v 1.417500 7.918381 2.760000
v 1.417500 7.918381 3.570000
v 1.417500 7.918381 4.380000
v 1.417500 7.918381 5.190000
v 1.417500 7.918381 6.000000
v 1.417500 8.732309 1.140000
v 1.417500 8.732309 0.330000
v 1.417500 8.732309 1.950000
v 1.417500 8.732309 2.760000
v 1.417500 8.732309 3.570000
v 1.417500 8.732309 4.380000
v 1.417500 8.732309 5.190000
v 1.417500 9.546236 1.140000
v 1.417500 9.546236 0.330000
v 1.417500 9.546236 1.950000
v 1.417500 9.546236 2.760000
v 1.417500 9.546236 3.570000
v 1.417500 9.546236 4.380000
v 1.417500 10.360163 1.140000
v 1.417500 10.360163 0.330000
v 1.417500 10.360163 1.950000
v 1.417500 10.360163 2.760000
v 1.417500 10.360163 3.570000
v 1.417500 11.174090 1.140000
v 1.417500 11.174090 0.330000
v 1.417500 11.174090 1.950000
v 1.417500 11.174090 2.760000
v 1.417500 11.988017 1.140000
v 1.417500 11.988017 0.330000
v 1.417500 11.988017 1.950000
v 1.417500 12.801945 1.140000
v 1.417500 12.801945 0.330000
f 1 2 3
f 1 3 4
f 1 5 6
f 1 6 4
f 1 2 7
f 1 7 5
f 4 3 8
f 4 8 9
f 4 6 10
f 4 10 9
f 9 8 11
f 9 11 12
f 9 10 13
f 9 13 12
f 12 11 14
f 12 14 15
f 12 13 16
f 12 16 15
f 15 14 17
f 15 17 18
f 15 16 19
f 15 19 18
f 18 17 20
f 18 20 21
f 18 19 22
f 18 22 21
f 21 20 23
f 21 23 24
f 21 22 25
f 21 25 24
f 24 23 26
f 24 26 27
f 24 25 28
f 24 28 27
f 27 26 29
f 27 29 30
f 27 28 31
f 27 31 30
f 30 29 32
f 30 32 33
f 30 31 34
f 30 34 33
f 33 32 35
f 33 35 36
f 33 34 37
f 33 37 36
f 36 35 38
f 36 38 39
f 36 37 40
f 36 40 39
f 39 38 41
f 39 41 42
f 39 40 43
f 39 43 42
f 42 41 44
f 42 44 45
f 42 43 46
f 42 46 45
f 45 46 47
f 45 47 44
f 2 48 49
f 2 49 3
f 2 48 50
f 2 50 7
f 3 49 51
f 3 51 8
f 8 51 52
f 8 52 11
f 11 52 53
f 11 53 14
f 14 53 54
f 14 54 17
f 17 54 55
f 17 55 20
f 20 55 56
f 20 56 23
f 23 56 57
f 23 57 26
f 26 57 58
f 26 58 29
f 29 58 59
f 29 59 32
f 32 59 60
f 32 60 35
f 35 60 61
f 35 61 38
f 38 61 62
f 38 62 41
f 41 62 63
f 41 63 44
f 62 63 64
f 62 64 65
f 44 47 64
f 44 64 63
f 48 66 67
f 48 67 49
f 48 66 68
f 48 68 50
f 49 67 69
f 49 69 51
f 51 69 70
f 51 70 52
f 52 70 71
f 52 71 53
f 53 71 72
f 53 72 54
f 54 72 73
f 54 73 55
f 55 73 74
f 55 74 56
f 56 74 75
f 56 75 57
f 57 75 76
f 57 76 58
f 58 76 77
f 58 77 59
f 59 77 78
f 59 78 60
f 60 78 79
f 60 79 61
f 61 79 80
f 61 80 62
f 79 80 81
f 79 81 82
f 62 65 81
f 62 81 80
f 66 83 84
f 66 84 67
f 66 83 85
f 66 85 68
f 67 84 86
f 67 86 69
f 69 86 87
f 69 87 70
f 70 87 88
f 70 88 71
f 71 88 89
f 71 89 72
f 72 89 90
f 72 90 73
f 73 90 91
f 73 91 74
f 74 91 92
f 74 92 75
f 75 92 93
f 75 93 76
f 76 93 94
f 76 94 77
f 77 94 95
f 77 95 78
f 78 95 96
f 78 96 79
f 95 96 97
f 95 97 98
f 79 82 97
f 79 97 96
f 83 99 100
f 83 100 84
f 83 99 101
f 83 101 85
f 84 100 102
f 84 102 86
f 86 102 103
f 86 103 87
f 87 103 104
f 87 104 88
f 88 104 105
f 88 105 89
f 89 105 106
f 89 106 90
f 90 106 107
f 90 107 91
f 91 107 108
f 91 108 92
f 92 108 109
f 92 109 93
f 93 109 110
f 93 110 94
f 94 110 111
f 94 111 95
f 110 111 112
f 110 112 113
f 95 98 112
f 95 112 111
f 99 114 115
f 99 115 100
f 99 114 116
f 99 116 101
f 100 115 117
f 100 117 102
f 102 117 118
f 102 118 103
f 103 118 119
f 103 119 104
f 104 119 120
f 104 120 105
f 105 120 121
f 105 121 106
f 106 121 122
f 106 122 107
f 107 122 123
f 107 123 108
f 108 123 124
f 108 124 109
f 123 124 125
f 123 125 126
f 109 124 127
f 109 127 110
f 124 127 128
f 124 128 125
f 110 113 128
f 110 128 127
f 114 129 130
f 114 130 115
f 114 129 131
f 114 131 116
f 115 130 132
f 115 132 117
f 117 132 133
f 117 133 118
f 118 133 134
f 118 134 119
f 119 134 135
f 119 135 120
f 120 135 136
f 120 136 121
f 121 136 137
f 121 137 122
f 122 137 138
f 122 138 123
f 137 138 139
f 137 139 140
f 123 126 139
f 123 139 138
f 129 141 142
f 129 142 130
f 129 141 143
f 129 143 131
f 130 142 144
f 130 144 132
f 132 144 145
f 132 145 133
f 133 145 146
f 133 146 134
f 134 146 147
f 134 147 135
f 135 147 148
f 135 148 136
f 136 148 149
f 136 149 137
f 148 149 150
f 148 150 151
f 137 140 150
f 137 150 149
f 141 152 153
f 141 153 142
f 141 152 154
f 141 154 143
f 142 153 155
f 142 155 144
f 144 155 156
f 144 156 145
f 145 156 157
f 145 157 146
f 146 157 158
f 146 158 147
f 147 158 159
f 147 159 148
f 158 159 160
f 158 160 161
f 148 151 160
f 148 160 159
f 152 162 163
f 152 163 153
f 152 162 164
f 152 164 154
f 153 163 165
f 153 165 155
f 155 165 166
f 155 166 156
f 156 166 167
f 156 167 157
f 157 167 168
f 157 168 158
f 167 168 169
f 167 169 170
f 158 161 169
f 158 169 168
f 162 171 172
f 162 172 163
f 162 171 173
f 162 173 164
f 163 172 174
f 163 174 165
f 165 174 175
f 165 175 166
f 166 175 176
f 166 176 167
f 175 176 177
f 175 177 178
f 167 170 177
f 167 177 176
f 171 179 180
f 171 180 172
f 171 179 181
f 171 181 173
f 172 180 182
f 172 182 174
f 174 182 183
f 174 183 175
f 182 183 184
f 182 184 185
f 175 178 184
f 175 184 183
f 179 186 187
f 179 187 180
f 179 186 188
f 179 188 181
f 180 187 189
f 180 189 182
f 187 189 190
f 187 190 191
f 182 185 190
f 182 190 189
f 186 192 193
f 186 193 187
f 192 193 194
f 192 194 195
f 186 192 195
f 186 195 188
f 187 191 194
f 187 194 193
f 5 196 197
f 5 197 6
f 5 7 198
f 5 198 196
f 6 197 199
f 6 199 10
f 10 199 200
f 10 200 13
f 13 200 201
f 13 201 16
f 16 201 202
f 16 202 19
f 19 202 203
f 19 203 22
f 22 203 204
f 22 204 25
f 25 204 205
f 25 205 28
f 28 205 206
f 28 206 31
f 31 206 207
f 31 207 34
f 34 207 208
f 34 208 37
f 37 208 209
f 37 209 40
f 40 209 210
f 40 210 43
f 43 210 211
f 43 211 46
f 46 211 212
f 46 212 47
f 7 50 213
f 7 213 198
f 65 64 214
f 65 214 215
f 47 212 214
f 47 214 64
f 50 68 216
f 50 216 213
f 82 81 217
f 82 217 218
f 65 215 217
f 65 217 81
f 68 85 219
f 68 219 216
f 98 97 220
f 98 220 221
f 82 218 220
f 82 220 97
f 85 101 222
f 85 222 219
f 113 112 223
f 113 223 224
f 98 221 223
f 98 223 112
f 101 116 225
f 101 225 222
f 126 125 226
f 126 226 227
f 125 128 228
f 125 228 226
f 113 224 228
f 113 228 128
f 116 131 229
f 116 229 225
f 140 139 230
f 140 230 231
f 126 227 230
f 126 230 139
f 131 143 232
f 131 232 229
f 151 150 233
f 151 233 234
f 140 231 233
f 140 233 150
f 143 154 235
f 143 235 232
f 161 160 236
f 161 236 237
f 151 234 236
f 151 236 160
f 154 164 238
f 154 238 235
f 170 169 239
f 170 239 240
f 161 237 239
f 161 239 169
f 164 173 241
f 164 241 238
f 178 177 242
f 178 242 243
f 170 240 242
f 170 242 177
f 173 181 244
f 173 244 241
f 185 184 245
f 185 245 246
f 178 243 245
f 178 245 184
f 181 188 247
f 181 247 244
f 191 190 248
f 191 248 249
f 185 246 248
f 185 248 190
f 195 194 250
f 195 250 251
f 188 195 251
f 188 251 247
f 191 249 250
f 191 250 194
f 196 252 253
f 196 253 197
f 196 198 254
f 196 254 252
f 197 253 255
f 197 255 199
f 199 255 256
f 199 256 200
f 200 256 257
f 200 257 201
f 201 257 258
f 201 258 202
f 202 258 259
f 202 259 203
f 203 259 260
f 203 260 204
f 204 260 261
f 204 261 205
f 205 261 262
f 205 262 206
f 206 262 263
f 206 263 207
f 207 263 264
f 207 264 208
f 208 264 265
f 208 265 209
f 209 265 266
f 209 266 210
f 210 266 267
f 210 267 211
f 211 267 268
f 211 268 212
f 198 213 269
f 198 269 254
f 215 214 270
f 215 270 271
f 212 268 270
f 212 270 214
f 213 216 272
f 213 272 269
f 218 217 273
f 218 273 274
f 215 271 273
f 215 273 217
f 216 219 275
f 216 275 272
f 221 220 276
f 221 276 277
f 218 274 276
f 218 276 220
f 219 222 278
f 219 278 275
f 224 223 279
f 224 279 280
f 221 277 279
f 221 279 223
f 222 225 281
f 222 281 278
f 227 226 282
f 227 282 283
f 226 228 284
f 226 284 282
f 224 280 284
f 224 284 228
f 225 229 285
f 225 285 281
f 231 230 286
f 231 286 287
f 227 283 286
f 227 286 230
f 229 232 288
f 229 288 285
f 234 233 289
f 234 289 290
f 231 287 289
f 231 289 233
f 232 235 291
f 232 291 288
f 237 236 292
f 237 292 293
f 234 290 292
f 234 292 236
f 235 238 294
f 235 294 291
f 240 239 295
f 240 295 296
f 237 293 295
f 237 295 239
f 238 241 297
f 238 297 294
f 243 242 298
f 243 298 299
f 240 296 298
f 240 298 242
f 241 244 300
f 241 300 297
f 246 245 301
f 246 301 302
f 243 299 301
f 243 301 245
f 244 247 303
f 244 303 300
f 249 248 304
f 249 304 305
f 246 302 304
f 246 304 248
f 251 250 306
f 251 306 307
f 247 251 307
f 247 307 303
f 249 305 306
f 249 306 250
f 252 308 309
f 252 309 253
f 252 254 310
f 252 310 308
f 253 309 311
f 253 311 255
f 255 311 312
f 255 312 256
f 256 312 313
f 256 313 257
f 257 313 314
f 257 314 258
f 258 314 315
f 258 315 259
f 259 315 316
f 259 316 260
f 260 316 317
f 260 317 261
f 261 317 318
f 261 318 262
f 262 318 319
f 262 319 263
f 263 319 320
f 263 320 264
f 264 320 321
f 264 321 265
f 265 321 322
f 265 322 266
f 266 322 323
f 266 323 267
f 267 323 324
f 267 324 268
f 254 269 325
f 254 325 310
f 271 270 326
f 271 326 327
f 268 324 326
f 268 326 270
f 269 272 328
f 269 328 325
f 274 273 329
f 274 329 330
f 271 327 329
f 271 329 273
f 272 275 331
f 272 331 328
f 277 276 332
f 277 332 333
f 274 330 332
f 274 332 276
f 275 278 334
f 275 334 331
f 280 279 335
f 280 335 336
f 277 333 335
f 277 335 279
f 278 281 337
f 278 337 334
f 283 282 338
f 283 338 339
f 282 284 340
f 282 340 338
f 280 336 340
f 280 340 284
f 281 285 341
f 281 341 337
f 287 286 342
f 287 342 343
f 283 339 342
f 283 342 286
f 285 288 344
f 285 344 341
f 290 289 345
f 290 345 346
f 287 343 345
f 287 345 289
f 288 291 347
f 288 347 344
f 293 292 348
f 293 348 349
f 290 346 348
f 290 348 292
f 291 294 350
f 291 350 347
f 296 295 351
f 296 351 352
f 293 349 351
f 293 351 295
f 294 297 353
f 294 353 350
f 299 298 354
f 299 354 355
f 296 352 354
f 296 354 298
f 297 300 356
f 297 356 353
f 302 301 357
f 302 357 358
f 299 355 357
f 299 357 301
f 300 303 359
f 300 359 356
f 305 304 360
f 305 360 361
f 302 358 360
f 302 360 304
f 307 306 362
f 307 362 363
f 303 307 363
f 303 363 359
f 305 361 362
f 305 362 306
f 308 364 365
f 308 365 309
f 308 310 366
f 308 366 364
f 309 365 367
f 309 367 311
f 311 367 368
f 311 368 312
f 312 368 369
f 312 369 313
f 313 369 370
f 313 370 314
f 314 370 371
f 314 371 315
f 315 371 372
f 315 372 316
f 316 372 373
f 316 373 317
f 317 373 374
f 317 374 318
f 318 374 375
f 318 375 319
f 319 375 376
f 319 376 320
f 320 376 377
f 320 377 321
f 321 377 378
f 321 378 322
f 322 378 379
f 322 379 323
f 323 379 380
f 323 380 324
f 310 325 381
f 310 381 366
f 327 326 382
f 327 382 383
f 324 380 382
f 324 382 326
f 325 328 384
f 325 384 381
f 330 329 385
f 330 385 386
f 327 383 385
f 327 385 329
f 328 331 387
f 328 387 384
f 333 332 388
f 333 388 389
f 330 386 388
f 330 388 332
f 331 334 390
f 331 390 387
f 336 335 391
f 336 391 392
f 333 389 391
f 333 391 335
f 334 337 393
f 334 393 390
f 339 338 394
f 339 394 395
f 338 340 396
f 338 396 394
f 336 392 396
f 336 396 340
f 337 341 397
f 337 397 393
f 343 342 398
f 343 398 399
f 339 395 398
f 339 398 342
f 341 344 400
f 341 400 397
f 346 345 401
f 346 401 402
f 343 399 401
f 343 401 345
f 344 347 403
f 344 403 400
f 349 348 404
f 349 404 405
f 346 402 404
f 346 404 348
f 347 350 406
f 347 406 403
f 352 351 407
f 352 407 408
f 349 405 407
f 349 407 351
f 350 353 409
f 350 409 406
f 355 354 410
f 355 410 411
f 352 408 410
f 352 410 354
f 353 356 412
f 353 412 409
f 358 357 413
f 358 413 414
f 355 411 413
f 355 413 357
f 356 359 415
f 356 415 412
f 361 360 416
f 361 416 417
f 358 414 416
f 358 416 360
f 363 362 418
f 363 418 419
f 359 363 419
f 359 419 415
f 361 417 418
f 361 418 362
f 364 420 421
f 364 421 365
f 364 366 422
f 364 422 420
f 365 421 423
f 365 423 367
f 367 423 424
f 367 424 368
f 368 424 425
f 368 425 369
f 369 425 426
f 369 426 370
f 370 426 427
f 370 427 371
f 371 427 428
f 371 428 372
f 372 428 429
f 372 429 373
f 373 429 430
f 373 430 374
f 374 430 431
f 374 431 375
f 375 431 432
f 375 432 376
f 376 432 433
f 376 433 377
f 377 433 434
f 377 434 378
f 378 434 435
f 378 435 379
f 379 435 436
f 379 436 380
f 366 381 437
f 366 437 422
f 383 382 438
f 383 438 439
f 380 436 438
f 380 438 382
f 381 384 440
f 381 440 437
f 386 385 441
f 386 441 442
f 383 439 441
f 383 441 385
f 384 387 443
f 384 443 440
f 389 388 444
f 389 444 445
f 386 442 444
f 386 444 388
f 387 390 446
f 387 446 443
f 392 391 447
f 392 447 448
f 389 445 447
f 389 447 391
f 390 393 449
f 390 449 446
f 395 394 450
f 395 450 451
f 394 396 452
f 394 452 450
f 392 448 452
f 392 452 396
f 393 397 453
f 393 453 449
f 399 398 454
f 399 454 455
f 395 451 454
f 395 454 398
f 397 400 456
f 397 456 453
f 402 401 457
f 402 457 458
f 399 455 457
f 399 457 401
f 400 403 459
f 400 459 456
f 405 404 460
f 405 460 461
f 402 458 460
f 402 460 404
f 403 406 462
f 403 462 459
f 408 407 463
f 408 463 464
f 405 461 463
f 405 463 407
f 406 409 465
f 406 465 462
f 411 410 466
f 411 466 467
f 408 464 466
f 408 466 410
f 409 412 468
f 409 468 465
f 414 413 469
f 414 469 470
f 411 467 469
f 411 469 413
f 412 415 471
f 412 471 468
f 417 416 472
f 417 472 473
f 414 470 472
f 414 472 416
f 419 418 474
f 419 474 475
f 415 419 475
f 415 475 471
f 417 473 474
f 417 474 418
f 420 476 477
f 420 477 421
f 420 422 478
f 420 478 476
f 421 477 479
f 421 479 423
f 423 479 480
f 423 480 424
f 424 480 481
f 424 481 425
f 425 481 482
f 425 482 426
f 426 482 483
f 426 483 427
f 427 483 484
f 427 484 428
f 428 484 485
f 428 485 429
f 429 485 486
f 429 486 430
f 430 486 487
f 430 487 431
f 431 487 488
f 431 488 432
f 432 488 489
f 432 489 433
f 433 489 490
f 433 490 434
f 434 490 491
f 434 491 435
f 435 491 492
f 435 492 436
f 422 437 493
f 422 493 478
f 439 438 494
f 439 494 495
f 436 492 494
f 436 494 438
f 437 440 496
f 437 496 493
f 442 441 497
f 442 497 498
f 439 495 497
f 439 497 441
f 440 443 499
f 440 499 496
f 445 444 500
f 445 500 501
f 442 498 500
f 442 500 444
f 443 446 502
f 443 502 499
f 448 447 503
f 448 503 504
f 445 501 503
f 445 503 447
f 446 449 505
f 446 505 502
f 451 450 506
f 451 506 507
f 450 452 508
f 450 508 506
f 448 504 508
f 448 508 452
f 449 453 509
f 449 509 505
f 455 454 510
f 455 510 511
f 451 507 510
f 451 510 454
f 453 456 512
f 453 512 509
f 458 457 513
f 458 513 514
f 455 511 513
f 455 513 457
f 456 459 515
f 456 515 512
f 461 460 516
f 461 516 517
f 458 514 516
f 458 516 460
f 459 462 518
f 459 518 515
f 464 463 519
f 464 519 520
f 461 517 519
f 461 519 463
f 462 465 521
f 462 521 518
f 467 466 522
f 467 522 523
f 464 520 522
f 464 522 466
f 465 468 524
f 465 524 521
f 470 469 525
f 470 525 526
f 467 523 525
f 467 525 469
f 468 471 527
f 468 527 524
f 473 472 528
f 473 528 529
f 470 526 528
f 470 528 472
f 475 474 530
f 475 530 531
f 471 475 531
f 471 531 527
f 473 529 530
f 473 530 474
f 476 532 533
f 476 533 477
f 476 478 534
f 476 534 532
f 477 533 535
f 477 535 479
f 479 535 536
f 479 536 480
f 480 536 537
f 480 537 481
f 481 537 538
f 481 538 482
f 482 538 539
f 482 539 483
f 483 539 540
f 483 540 484
f 484 540 541
f 484 541 485
f 485 541 542
f 485 542 486
f 486 542 543
f 486 543 487
f 487 543 544
f 487 544 488
f 488 544 545
f 488 545 489
f 489 545 546
f 489 546 490
f 490 546 547
f 490 547 491
f 491 547 548
f 491 548 492
f 478 493 549
f 478 549 534
f 495 494 550
f 495 550 551
f 492 548 550
f 492 550 494
f 493 496 552
f 493 552 549
f 498 497 553
f 498 553 554
f 495 551 553
f 495 553 497
f 496 499 555
f 496 555 552
f 501 500 556
f 501 556 557
f 498 554 556
f 498 556 500
f 499 502 558
f 499 558 555
f 504 503 559
f 504 559 560
f 501 557 559
f 501 559 503
f 502 505 561
f 502 561 558
f 507 506 562
f 507 562 563
f 506 508 564
f 506 564 562
f 504 560 564
f 504 564 508
f 505 509 565
f 505 565 561
f 511 510 566
f 511 566 567
f 507 563 566
f 507 566 510
f 509 512 568
f 509 568 565
f 514 513 569
f 514 569 570
f 511 567 569
f 511 569 513
f 512 515 571
f 512 571 568
f 517 516 572
f 517 572 573
f 514 570 572
f 514 572 516
f 515 518 574
f 515 574 571
f 520 519 575
f 520 575 576
f 517 573 575
f 517 575 519
f 518 521 577
f 518 577 574
f 523 522 578
f 523 578 579
f 520 576 578
f 520 578 522
f 521 524 580
f 521 580 577
f 526 525 581
f 526 581 582
f 523 579 581
f 523 581 525
f 524 527 583
f 524 583 580
f 529 528 584
f 529 584 585
f 526 582 584
f 526 584 528
f 531 530 586
f 531 586 587
f 527 531 587
f 527 587 583
f 529 585 586
f 529 586 530
f 532 588 589
f 532 589 533
f 532 534 590
f 532 590 588
f 533 589 591
f 533 591 535
f 535 591 592
f 535 592 536
f 536 592 593
f 536 593 537
f 537 593 594
f 537 594 538
f 538 594 595
f 538 595 539
f 539 595 596
f 539 596 540
f 540 596 597
f 540 597 541
f 541 597 598
f 541 598 542
f 542 598 599
f 542 599 543
f 543 599 600
f 543 600 544
f 544 600 601
f 544 601 545
f 545 601 602
f 545 602 546
f 546 602 603
f 546 603 547
f 547 603 604
f 547 604 548
f 534 549 605
f 534 605 590
f 551 550 606
f 551 606 607
f 548 604 606
f 548 606 550
f 549 552 608
f 549 608 605
f 554 553 609
f 554 609 610
f 551 607 609
f 551 609 553
f 552 555 611
f 552 611 608
f 557 556 612
f 557 612 613
f 554 610 612
f 554 612 556
f 555 558 614
f 555 614 611
f 560 559 615
f 560 615 616
f 557 613 615
f 557 615 559
f 558 561 617
f 558 617 614
f 563 562 618
f 563 618 619
f 562 564 620
f 562 620 618
f 560 616 620
f 560 620 564
f 561 565 621
f 561 621 617
f 567 566 622
f 567 622 623
f 563 619 622
f 563 622 566
f 565 568 624
f 565 624 621
f 570 569 625
f 570 625 626
f 567 623 625
f 567 625 569
f 568 571 627
f 568 627 624
f 573 572 628
f 573 628 629
f 570 626 628
f 570 628 572
f 571 574 630
f 571 630 627
f 576 575 631
f 576 631 632
f 573 629 631
f 573 631 575
f 574 577 633
f 574 633 630
f 579 578 634
f 579 634 635
f 576 632 634
f 576 634 578
f 577 580 636
f 577 636 633
f 582 581 637
f 582 637 638
f 579 635 637
f 579 637 581
f 580 583 639
f 580 639 636
f 585 584 640
f 585 640 641
f 582 638 640
f 582 640 584
f 587 586 642
f 587 642 643
f 583 587 643
f 583 643 639
f 585 641 642
f 585 642 586
f 588 644 645
f 588 645 589
f 588 590 646
f 588 646 644
f 589 645 647
f 589 647 591
f 591 647 648
f 591 648 592
f 592 648 649
f 592 649 593
f 593 649 650
f 593 650 594
f 594 650 651
f 594 651 595
f 595 651 652
f 595 652 596
f 596 652 653
f 596 653 597
f 597 653 654
f 597 654 598
f 598 654 655
f 598 655 599
f 599 655 656
f 599 656 600
f 600 656 657
f 600 657 601
f 601 657 658
f 601 658 602
f 602 658 659
f 602 659 603
f 603 659 660
f 603 660 604
f 590 605 661
f 590 661 646
f 607 606 662
f 607 662 663
f 604 660 662
f 604 662 606
f 605 608 664
f 605 664 661
f 610 609 665
f 610 665 666
f 607 663 665
f 607 665 609
f 608 611 667
f 608 667 664
f 613 612 668
f 613 668 669
f 610 666 668
f 610 668 612
f 611 614 670
f 611 670 667
f 616 615 671
f 616 671 672
f 613 669 671
f 613 671 615
f 614 617 673
f 614 673 670
f 619 618 674
f 619 674 675
f 618 620 676
f 618 676 674
f 616 672 676
f 616 676 620
f 617 621 677
f 617 677 673
f 623 622 678
f 623 678 679
f 619 675 678
f 619 678 622
f 621 624 680
f 621 680 677
f 626 625 681
f 626 681 682
f 623 679 681
f 623 681 625
f 624 627 683
f 624 683 680
f 629 628 684
f 629 684 685
f 626 682 684
f 626 684 628
f 627 630 686
f 627 686 683
f 632 631 687
f 632 687 688
f 629 685 687
f 629 687 631
f 630 633 689
f 630 689 686
f 635 634 690
f 635 690 691
f 632 688 690
f 632 690 634
f 633 636 692
f 633 692 689
f 638 637 693
f 638 693 694
f 635 691 693
f 635 693 637
f 636 639 695
f 636 695 692
f 641 640 696
f 641 696 697
f 638 694 696
f 638 696 640
f 643 642 698
f 643 698 699
f 639 643 699
f 639 699 695
f 641 697 698
f 641 698 642
f 644 700 701
f 644 701 645
f 644 646 702
f 644 702 700
f 645 701 703
f 645 703 647
f 647 703 704
f 647 704 648
f 648 704 705
f 648 705 649
f 649 705 706
f 649 706 650
f 650 706 707
f 650 707 651
f 651 707 708
f 651 708 652
f 652 708 709
f 652 709 653
f 653 709 710
f 653 710 654
f 654 710 711
f 654 711 655
f 655 711 712
f 655 712 656
f 656 712 713
f 656 713 657
f 657 713 714
f 657 714 658
f 658 714 715
f 658 715 659
f 659 715 716
f 659 716 660
f 646 661 717
f 646 717 702
f 663 662 718
f 663 718 719
f 660 716 718
f 660 718 662
f 661 664 720
f 661 720 717
f 666 665 721
f 666 721 722
f 663 719 721
f 663 721 665
f 664 667 723
f 664 723 720
f 669 668 724
f 669 724 725
f 666 722 724
f 666 724 668
f 667 670 726
f 667 726 723
f 672 671 727
f 672 727 728
f 669 725 727
f 669 727 671
f 670 673 729
f 670 729 726
f 675 674 730
f 675 730 731
f 674 676 732
f 674 732 730
f 672 728 732
f 672 732 676
f 673 677 733
f 673 733 729
f 679 678 734
f 679 734 735
f 675 731 734
f 675 734 678
f 677 680 736
f 677 736 733
f 682 681 737
f 682 737 738
f 679 735 737
f 679 737 681
f 680 683 739
f 680 739 736
f 685 684 740
f 685 740 741
f 682 738 740
f 682 740 684
f 683 686 742
f 683 742 739
f 688 687 743
f 688 743 744
f 685 741 743
f 685 743 687
f 686 689 745
f 686 745 742
f 691 690 746
f 691 746 747
f 688 744 746
f 688 746 690
f 689 692 748
f 689 748 745
f 694 693 749
f 694 749 750
f 691 747 749
f 691 749 693
f 692 695 751
f 692 751 748
f 697 696 752
f 697 752 753
f 694 750 752
f 694 752 696
f 699 698 754
f 699 754 755
f 695 699 755
f 695 755 751
f 697 753 754
f 697 754 698
f 700 756 757
f 700 757 701
f 700 702 758
f 700 758 756
f 701 757 759
f 701 759 703
f 703 759 760
f 703 760 704
f 704 760 761
f 704 761 705
f 705 761 762
f 705 762 706
f 706 762 763
f 706 763 707
f 707 763 764
f 707 764 708
f 708 764 765
f 708 765 709
f 709 765 766
f 709 766 710
f 710 766 767
f 710 767 711
f 711 767 768
f 711 768 712
f 712 768 769
f 712 769 713
f 713 769 770
f 713 770 714
f 714 770 771
f 714 771 715
f 715 771 772
f 715 772 716
f 702 717 773
f 702 773 758
f 719 718 774
f 719 774 775
f 716 772 774
f 716 774 718
f 717 720 776
f 717 776 773
f 722 721 777
f 722 777 778
f 719 775 777
f 719 777 721
f 720 723 779
f 720 779 776
f 725 724 780
f 725 780 781
f 722 778 780
f 722 780 724
f 723 726 782
f 723 782 779
f 728 727 783
f 728 783 784
f 725 781 783
f 725 783 727
f 726 729 785
f 726 785 782
f 731 730 786
f 731 786 787
f 730 732 788
f 730 788 786
f 728 784 788
f 728 788 732
f 729 733 789
f 729 789 785
f 735 734 790
f 735 790 791
f 731 787 790
f 731 790 734
f 733 736 792
f 733 792 789
f 738 737 793
f 738 793 794
f 735 791 793
f 735 793 737
f 736 739 795
f 736 795 792
f 741 740 796
f 741 796 797
f 738 794 796
f 738 796 740
f 739 742 798
f 739 798 795
f 744 743 799
f 744 799 800
f 741 797 799
f 741 799 743
f 742 745 801
f 742 801 798
f 747 746 802
f 747 802 803
f 744 800 802
f 744 802 746
f 745 748 804
f 745 804 801
f 750 749 805
f 750 805 806
f 747 803 805
f 747 805 749
f 748 751 807
f 748 807 804
f 753 752 808
f 753 808 809
f 750 806 808
f 750 808 752
f 755 754 810
f 755 810 811
f 751 755 811
f 751 811 807
f 753 809 810
f 753 810 754
f 756 812 813
f 756 813 757
f 756 758 814
f 756 814 812
f 757 813 815
f 757 815 759
f 759 815 816
f 759 816 760
f 760 816 817
f 760 817 761
f 761 817 818
f 761 818 762
f 762 818 819
f 762 819 763
f 763 819 820
f 763 820 764
f 764 820 821
f 764 821 765
f 765 821 822
f 765 822 766
f 766 822 823
f 766 823 767
f 767 823 824
f 767 824 768
f 768 824 825
f 768 825 769
f 769 825 826
f 769 826 770
f 770 826 827
f 770 827 771
f 771 827 828
f 771 828 772
f 758 773 829
f 758 829 814
f 775 774 830
f 775 830 831
f 772 828 830
f 772 830 774
f 773 776 832
f 773 832 829
f 778 777 833
f 778 833 834
f 775 831 833
f 775 833 777
f 776 779 835
f 776 835 832
f 781 780 836
f 781 836 837
f 778 834 836
f 778 836 780
f 779 782 838
f 779 838 835
f 784 783 839
f 784 839 840
f 781 837 839
f 781 839 783
f 782 785 841
f 782 841 838
f 787 786 842
f 787 842 843
f 786 788 844
f 786 844 842
f 784 840 844
f 784 844 788
f 785 789 845
f 785 845 841
f 791 790 846
f 791 846 847
f 787 843 846
f 787 846 790
f 789 792 848
f 789 848 845
f 794 793 849
f 794 849 850
f 791 847 849
f 791 849 793
f 792 795 851
f 792 851 848
f 797 796 852
f 797 852 853
f 794 850 852
f 794 852 796
f 795 798 854
f 795 854 851
f 800 799 855
f 800 855 856
f 797 853 855
f 797 855 799
f 798 801 857
f 798 857 854
f 803 802 858
f 803 858 859
f 800 856 858
f 800 858 802
f 801 804 860
f 801 860 857
f 806 805 861
f 806 861 862
f 803 859 861
f 803 861 805
f 804 807 863
f 804 863 860
f 809 808 864
f 809 864 865
f 806 862 864
f 806 864 808
f 811 810 866
f 811 866 867
f 807 811 867
f 807 867 863
f 809 865 866
f 809 866 810
f 868 869 870
f 868 870 871
f 812 868 869
f 812 869 813
f 812 814 871
f 812 871 868
f 869 872 873
f 869 873 870
f 813 869 872
f 813 872 815
f 872 874 875
f 872 875 873
f 815 872 874
f 815 874 816
f 874 876 877
f 874 877 875
f 816 874 876
f 816 876 817
f 876 878 879
f 876 879 877
f 817 876 878
f 817 878 818
f 878 880 881
f 878 881 879
f 818 878 880
f 818 880 819
f 880 882 883
f 880 883 881
f 819 880 882
f 819 882 820
f 882 884 885
f 882 885 883
f 820 882 884
f 820 884 821
f 884 886 887
f 884 887 885
f 821 884 886
f 821 886 822
f 886 888 889
f 886 889 887
f 822 886 888
f 822 888 823
f 888 890 891
f 888 891 889
f 823 888 890
f 823 890 824
f 890 892 893
f 890 893 891
f 824 890 892
f 824 892 825
f 892 894 895
f 892 895 893
f 825 892 894
f 825 894 826
f 894 896 897
f 894 897 895
f 826 894 896
f 826 896 827
f 827 896 897
f 827 897 828
f 871 870 898
f 871 898 899
f 814 829 899
f 814 899 871
f 870 873 900
f 870 900 898
f 873 875 901
f 873 901 900
f 875 877 902
f 875 902 901
f 877 879 903
f 877 903 902
f 879 881 904
f 879 904 903
f 881 883 905
f 881 905 904
f 883 885 906
f 883 906 905
f 885 887 907
f 885 907 906
f 887 889 908
f 887 908 907
f 889 891 909
f 889 909 908
f 891 893 910
f 891 910 909
f 893 895 911
f 893 911 910
f 895 897 912
f 895 912 911
f 831 830 912
f 831 912 911
f 828 897 912
f 828 912 830
f 899 898 913
f 899 913 914
f 829 832 914
f 829 914 899
f 898 900 915
f 898 915 913
f 900 901 916
f 900 916 915
f 901 902 917
f 901 917 916
f 902 903 918
f 902 918 917
f 903 904 919
f 903 919 918
f 904 905 920
f 904 920 919
f 905 906 921
f 905 921 920
f 906 907 922
f 906 922 921
f 907 908 923
f 907 923 922
f 908 909 924
f 908 924 923
f 909 910 925
f 909 925 924
f 910 911 926
f 910 926 925
f 834 833 926
f 834 926 925
f 831 911 926
f 831 926 833
f 914 913 927
f 914 927 928
f 832 835 928
f 832 928 914
f 913 915 929
f 913 929 927
f 915 916 930
f 915 930 929
f 916 917 931
f 916 931 930
f 917 918 932
f 917 932 931
f 918 919 933
f 918 933 932
f 919 920 934
f 919 934 933
f 920 921 935
f 920 935 934
f 921 922 936
f 921 936 935
f 922 923 937
f 922 937 936
f 923 924 938
f 923 938 937
f 924 925 939
f 924 939 938
f 837 836 939
f 837 939 938
f 834 925 939
f 834 939 836
f 928 927 940
f 928 940 941
f 835 838 941
f 835 941 928
f 927 929 942
f 927 942 940
f 929 930 943
f 929 943 942
f 930 931 944
f 930 944 943
f 931 932 945
f 931 945 944
f 932 933 946
f 932 946 945
f 933 934 947
f 933 947 946
f 934 935 948
f 934 948 947
f 935 936 949
f 935 949 948
f 936 937 950
f 936 950 949
f 937 938 951
f 937 951 950
f 840 839 951
f 840 951 950
f 837 938 951
f 837 951 839
f 941 940 952
f 941 952 953
f 838 841 953
f 838 953 941
f 940 942 954
f 940 954 952
f 942 943 955
f 942 955 954
f 943 944 956
f 943 956 955
f 944 945 957
f 944 957 956
f 945 946 958
f 945 958 957
f 946 947 959
f 946 959 958
f 947 948 960
f 947 960 959
f 948 949 961
f 948 961 960
f 843 842 961
f 843 961 960
f 949 950 962
f 949 962 961
f 842 844 962
f 842 962 961
f 840 950 962
f 840 962 844
f 953 952 963
f 953 963 964
f 841 845 964
f 841 964 953
f 952 954 965
f 952 965 963
f 954 955 966
f 954 966 965
f 955 956 967
f 955 967 966
f 956 957 968
f 956 968 967
f 957 958 969
f 957 969 968
f 958 959 970
f 958 970 969
f 959 960 971
f 959 971 970
f 847 846 971
f 847 971 970
f 843 960 971
f 843 971 846
f 964 963 972
f 964 972 973
f 845 848 973
f 845 973 964
f 963 965 974
f 963 974 972
f 965 966 975
f 965 975 974
f 966 967 976
f 966 976 975
f 967 968 977
f 967 977 976
f 968 969 978
f 968 978 977
f 969 970 979
f 969 979 978
f 850 849 979
f 850 979 978
f 847 970 979
f 847 979 849
f 973 972 980
f 973 980 981
f 848 851 981
f 848 981 973
f 972 974 982
f 972 982 980
f 974 975 983
f 974 983 982
f 975 976 984
f 975 984 983
f 976 977 985
f 976 985 984
f 977 978 986
f 977 986 985
f 853 852 986
f 853 986 985
f 850 978 986
f 850 986 852
f 981 980 987
f 981 987 988
f 851 854 988
f 851 988 981
f 980 982 989
f 980 989 987
f 982 983 990
f 982 990 989
f 983 984 991
f 983 991 990
f 984 985 992
f 984 992 991
f 856 855 992
f 856 992 991
f 853 985 992
f 853 992 855
f 988 987 993
f 988 993 994
f 854 857 994
f 854 994 988
f 987 989 995
f 987 995 993
f 989 990 996
f 989 996 995
f 990 991 997
f 990 997 996
f 859 858 997
f 859 997 996
f 856 991 997
f 856 997 858
f 994 993 998
f 994 998 999
f 857 860 999
f 857 999 994
f 993 995 1000
f 993 1000 998
f 995 996 1001
f 995 1001 1000
f 862 861 1001
f 862 1001 1000
f 859 996 1001
f 859 1001 861
f 999 998 1002
f 999 1002 1003
f 860 863 1003
f 860 1003 999
f 998 1000 1004
f 998 1004 1002
f 865 864 1004
f 865 1004 1002
f 862 1000 1004
f 862 1004 864
f 1003 1002 1005
f 1003 1005 1006
f 867 866 1005
f 867 1005 1006
f 863 867 1006
f 863 1006 1003
f 865 1002 1005
f 865 1005 866
