o [4B] 3D Diagram - S2-04 Group F_104
v 1.330892 -0.001118 2.730890
v 1.869108 -0.003354 2.730909
v 1.869108 0.001118 3.269110
v 1.330892 0.003354 3.269091
v 1.331058 0.038882 2.730558
v 1.869274 0.036646 2.730576
v 1.869274 0.041118 3.268778
v 1.331058 0.043354 3.268759
v 1.331077 0.036645 2.730558
v 1.869255 0.029941 2.730725
v 1.869255 0.043355 3.268778
v 1.331077 0.050059 3.268611
v 1.331576 0.076645 2.729560
v 1.869754 0.069941 2.729727
v 1.869754 0.083355 3.267780
v 1.331576 0.090059 3.267613
v 1.331613 0.074408 2.729560
v 1.869717 0.063248 2.730024
v 1.869717 0.085592 3.267780
v 1.331613 0.096752 3.267317
v 1.332444 0.114408 2.727898
v 1.870548 0.103248 2.728362
v 1.870548 0.125592 3.266118
v 1.332444 0.136752 3.265655
v 1.332499 0.112169 2.727899
v 1.870493 0.096574 2.728806
v 1.870493 0.127831 3.266118
v 1.332499 0.143426 3.265211
v 1.333663 0.152169 2.725572
v 1.871656 0.136574 2.726479
v 1.871656 0.167831 3.263791
v 1.333663 0.183426 3.262884
v 1.333736 0.149929 2.725573
v 1.871582 0.129928 2.727069
v 1.871582 0.170071 3.263790
v 1.333736 0.190072 3.262294
v 1.335232 0.189929 2.722581
v 1.873078 0.169928 2.724077
v 1.873078 0.210071 3.260798
v 1.335232 0.230072 3.259302
v 1.335323 0.187688 2.722583
v 1.872987 0.163317 2.724811
v 1.872987 0.212312 3.260796
v 1.335323 0.236683 3.258569
v 1.337152 0.227688 2.718927
v 1.874815 0.203317 2.721154
v 1.874815 0.252312 3.257140
v 1.337152 0.276683 3.254912
v 1.337261 0.225443 2.718930
v 1.874706 0.196747 2.722030
v 1.874706 0.254557 3.257137
v 1.337261 0.283253 3.254036
v 1.339421 0.265443 2.714609
v 1.876867 0.236747 2.717709
v 1.876867 0.294557 3.252815
v 1.339421 0.323253 3.249715
v 1.339547 0.263197 2.714614
v 1.876741 0.230227 2.718723
v 1.876741 0.296803 3.252810
v 1.339547 0.329773 3.248700
v 1.342040 0.303197 2.709628
v 1.879234 0.270227 2.713737
v 1.879234 0.336803 3.247824
v 1.342040 0.369773 3.243714
v 1.342183 0.300947 2.709635
v 1.879091 0.263764 2.714888
v 1.879091 0.339053 3.247816
v 1.342183 0.376236 3.242563
v 1.345008 0.340947 2.703984
v 1.881917 0.303764 2.709237
v 1.881917 0.379053 3.242165
v 1.345008 0.416236 3.236912
v 1.345167 0.338695 2.703995
v 1.881758 0.297363 2.710521
v 1.881758 0.381305 3.242155
v 1.345167 0.422637 3.235629
v 1.348325 0.378695 2.697679
v 1.884916 0.337363 2.704205
v 1.884916 0.421305 3.235839
v 1.348325 0.462637 3.229313
v 1.348499 0.376440 2.697693
v 1.884742 0.331031 2.705618
v 1.884742 0.423560 3.235825
v 1.348499 0.468969 3.227900
v 1.351989 0.416440 2.690713
v 1.888232 0.371031 2.698637
v 1.888232 0.463560 3.228844
v 1.351989 0.508969 3.220920
v 1.352179 0.414181 2.690732
v 1.888043 0.364775 2.700175
v 1.888043 0.465819 3.228825
v 1.352179 0.515225 3.219382
v 1.356001 0.454181 2.683086
v 1.891866 0.404775 2.692530
v 1.891866 0.505819 3.221180
v 1.356001 0.555225 3.211736
v 1.356205 0.451920 2.683110
v 1.891662 0.398599 2.694188
v 1.891662 0.508080 3.221156
v 1.356205 0.561401 3.210078
v 1.360360 0.491920 2.674800
v 1.895818 0.438599 2.685878
v 1.895818 0.548080 3.212845
v 1.360360 0.601401 3.201768
v 1.360577 0.489656 2.674830
v 1.895601 0.432510 2.687652
v 1.895601 0.550344 3.212815
v 1.360577 0.607490 3.199993
v 1.365064 0.529656 2.665855
v 1.900088 0.472510 2.678677
v 1.900088 0.590344 3.203840
v 1.365064 0.647490 3.191018
v 1.365294 0.527390 2.665892
v 1.899859 0.466511 2.680564
v 1.899859 0.592610 3.203803
v 1.365294 0.653489 3.189132
v 1.370114 0.567390 2.656252
v 1.904679 0.506511 2.670924
v 1.904679 0.632610 3.194163
v 1.370114 0.693489 3.179492
v 1.370355 0.565121 2.656297
v 1.904437 0.500608 2.672916
v 1.904437 0.634879 3.194119
v 1.370355 0.699392 3.177499
v 1.375508 0.605121 2.645992
v 1.909589 0.540608 2.662612
v 1.909589 0.674879 3.183814
v 1.375508 0.739392 3.167195
v 1.375761 0.602850 2.646045
v 1.909336 0.534805 2.664706
v 1.909336 0.677150 3.183761
v 1.375761 0.745195 3.165101
v 1.381246 0.642850 2.635075
v 1.914821 0.574805 2.653736
v 1.914821 0.717150 3.172792
v 1.381246 0.785195 3.154131
v 1.381509 0.640579 2.635137
v 1.914557 0.569105 2.655926
v 1.914557 0.719421 3.172730
v 1.381509 0.790895 3.151941
v 1.387326 0.680579 2.623503
v 1.920374 0.609105 2.644292
v 1.920374 0.759421 3.161095
v 1.387326 0.830895 3.140306
v 1.387600 0.678306 2.623575
v 1.920101 0.603511 2.646573
v 1.920101 0.761694 3.161023
v 1.387600 0.836489 3.138025
v 1.393749 0.718306 2.611276
v 1.926251 0.643511 2.634274
v 1.926251 0.801694 3.148724
v 1.393749 0.876489 3.125726
v 1.394032 0.716034 2.611359
v 1.925968 0.638027 2.636640
v 1.925968 0.803966 3.148641
v 1.394032 0.881973 3.123360
v 1.400514 0.756034 2.598395
v 1.932450 0.678027 2.623676
v 1.932450 0.843966 3.135677
v 1.400514 0.921973 3.110396
v 1.400804 0.753761 2.598489
v 1.932160 0.672655 2.626123
v 1.932160 0.846239 3.135583
v 1.400804 0.927345 3.107949
v 1.407618 0.793761 2.584860
v 1.938974 0.712655 2.612494
v 1.938974 0.886239 3.121955
v 1.407618 0.967345 3.094320
v 1.407916 0.791491 2.584966
v 1.938676 0.707397 2.615016
v 1.938676 0.888509 3.121848
v 1.407916 0.972603 3.091799
v 1.415063 0.831491 2.570672
v 1.945823 0.747397 2.600722
v 1.945823 0.928509 3.107555
v 1.415063 1.012603 3.077505
v 1.415368 0.829222 2.570791
v 1.945519 0.742256 2.603313
v 1.945519 0.930778 3.107436
v 1.415368 1.017744 3.074914
v 1.422847 0.869222 2.555833
v 1.952998 0.782256 2.588354
v 1.952998 0.970778 3.092478
v 1.422847 1.057744 3.059956
v 1.423157 0.866956 2.555964
v 1.952688 0.777231 2.591009
v 1.952688 0.973044 3.092346
v 1.423157 1.062769 3.057301
v 1.430969 0.906956 2.540341
v 1.960499 0.817231 2.575386
v 1.960499 1.013044 3.076722
v 1.430969 1.102769 3.041678
v 1.431285 0.904694 2.540487
v 1.960184 0.812325 2.578100
v 1.960184 1.015306 3.076577
v 1.431285 1.107675 3.038964
v 1.439429 0.944694 2.524199
v 1.968328 0.852325 2.561811
v 1.968328 1.055306 3.060289
v 1.439429 1.147675 3.022676
v 1.439749 0.942436 2.524359
v 1.968008 0.847538 2.564579
v 1.968008 1.057564 3.060129
v 1.439749 1.152462 3.019909
v 1.448225 0.982436 2.507406
v 1.976484 0.887538 2.547626
v 1.976484 1.097564 3.043176
v 1.448225 1.192462 3.002956
v 1.448549 0.980184 2.507580
v 1.976160 0.882871 2.550441
v 1.976160 1.099816 3.043002
v 1.448549 1.197129 3.000141
v 1.457358 1.020184 2.489962
v 1.984969 0.922871 2.532823
v 1.984969 1.139816 3.025384
v 1.457358 1.237129 2.982523
v 1.457685 1.017939 2.490152
v 1.984642 0.918323 2.535683
v 1.984642 1.142061 3.025195
v 1.457685 1.241677 2.979664
v 1.466826 1.057939 2.471869
v 1.993784 0.958323 2.517400
v 1.993784 1.182061 3.006912
v 1.466826 1.281677 2.961381
v 1.467155 1.055701 2.472073
v 1.993454 0.953894 2.520298
v 1.993454 1.184299 3.006708
v 1.467155 1.286106 2.958483
v 1.476629 1.095701 2.453126
v 2.002928 0.993894 2.501350
v 2.002928 1.224299 2.987760
v 1.476629 1.326106 2.939536
v 1.476960 1.093472 2.453346
v 2.002597 0.989585 2.504282
v 2.002597 1.226528 2.987540
v 1.476960 1.330415 2.936604
v 1.486766 1.133472 2.433734
v 2.012403 1.029585 2.484670
v 2.012403 1.266528 2.967928
v 1.486766 1.370415 2.916992
v 1.487099 1.131251 2.433969
v 2.012070 1.025393 2.487631
v 2.012070 1.268749 2.967693
v 1.487099 1.374607 2.914031
v 1.497237 1.171251 2.413692
v 2.022209 1.065393 2.467354
v 2.022209 1.308749 2.947416
v 1.497237 1.414607 2.893754
v 1.497570 1.169042 2.413943
v 2.021876 1.061319 2.470341
v 2.021876 1.310958 2.947165
v 1.497570 1.418681 2.890767
v 1.508041 1.209042 2.393001
v 2.032347 1.101319 2.449399
v 2.032347 1.350958 2.926223
v 1.508041 1.458681 2.869825
v 1.508375 1.206843 2.393268
v 2.032013 1.097361 2.452406
v 2.032013 1.353157 2.925956
v 1.508375 1.462639 2.866818
v 1.519178 1.246843 2.371661
v 2.042817 1.137361 2.430800
v 2.042817 1.393157 2.904350
v 1.519178 1.502639 2.845211
v 1.519511 1.244656 2.371944
v 2.042483 1.133518 2.433824
v 2.042483 1.395344 2.904067
v 1.519511 1.506482 2.842187
v 1.530647 1.284656 2.349672
v 2.053619 1.173518 2.411553
v 2.053619 1.435344 2.881796
v 1.530647 1.546482 2.819916
v 1.530979 1.282483 2.349971
v 2.053287 1.169789 2.414590
v 2.053287 1.437517 2.881498
v 1.530979 1.550211 2.816878
v 1.542447 1.322483 2.327034
v 2.064755 1.209789 2.391654
v 2.064755 1.477517 2.858561
v 1.542447 1.590211 2.793942
v 1.542778 1.320323 2.327348
v 2.064424 1.206171 2.394701
v 2.064424 1.479677 2.858248
v 1.542778 1.593829 2.790895
v 1.554579 1.360323 2.303747
v 2.076224 1.246171 2.371100
v 2.076224 1.519677 2.834647
v 1.554579 1.633829 2.767294
v 1.554909 1.358179 2.304076
v 2.075895 1.242663 2.374153
v 2.075895 1.521821 2.834318
v 1.554909 1.637337 2.764240
v 1.567042 1.398179 2.279810
v 2.088028 1.282663 2.349887
v 2.088028 1.561821 2.810052
v 1.567042 1.677337 2.739975
v 1.567369 1.396049 2.280154
v 2.087700 1.279263 2.352943
v 2.087700 1.563951 2.809708
v 1.567369 1.680737 2.736919
v 1.579835 1.436049 2.255223
v 2.100165 1.319263 2.328012
v 2.100165 1.603951 2.784777
v 1.579835 1.720737 2.711988
v 1.580160 1.433936 2.255582
v 2.099840 1.315970 2.331068
v 2.099840 1.606064 2.784418
v 1.580160 1.724030 2.708932
v 1.592958 1.473936 2.229987
v 2.112638 1.355970 2.305472
v 2.112638 1.646064 2.758822
v 1.592958 1.764030 2.683337
v 1.593281 1.471840 2.230360
v 2.112315 1.352780 2.308524
v 2.112315 1.648160 2.758449
v 1.593281 1.767220 2.680285
v 1.606411 1.511840 2.204100
v 2.125445 1.392780 2.282264
v 2.125445 1.688160 2.732188
v 1.606411 1.807220 2.654024
v 1.606731 1.509762 2.204488
v 2.125125 1.389692 2.285310
v 2.125125 1.690238 2.731800
v 1.606731 1.810308 2.650978
v 1.620194 1.549762 2.177563
v 2.138587 1.429692 2.258385
v 2.138587 1.730238 2.704875
v 1.620194 1.850308 2.624053
v 1.620511 1.547702 2.177965
v 2.138271 1.426704 2.261423
v 2.138271 1.732298 2.704473
v 1.620511 1.853296 2.621015
v 1.634306 1.587702 2.150375
v 2.152066 1.466704 2.233833
v 2.152066 1.772298 2.676883
v 1.634306 1.893296 2.593425
v 1.634619 1.585661 2.150791
v 2.151752 1.463814 2.236860
v 2.151752 1.774339 2.676467
v 1.634619 1.896186 2.590398
v 1.648747 1.625661 2.122536
v 2.165879 1.503814 2.208605
v 2.165879 1.814339 2.648212
v 1.648747 1.936186 2.562143
v 1.649057 1.623639 2.122965
v 2.165569 1.501018 2.211619
v 2.165569 1.816361 2.647783
v 1.649057 1.938982 2.559129
v 1.663516 1.663639 2.094045
v 2.180029 1.541018 2.182699
v 2.180029 1.856361 2.618864
v 1.663516 1.978982 2.530210
v 1.663823 1.661637 2.094487
v 2.179723 1.538315 2.185698
v 2.179723 1.858363 2.618422
v 1.663823 1.981685 2.527211
v 1.678615 1.701637 2.064902
v 2.194515 1.578315 2.156113
v 2.194515 1.898363 2.588837
v 1.678615 2.021685 2.497626
v 1.678917 1.699656 2.065357
v 2.194213 1.575702 2.159095
v 2.194213 1.900344 2.588383
v 1.678917 2.024298 2.494645
v 1.694042 1.739656 2.035107
v 2.209338 1.615702 2.128845
v 2.209338 1.940344 2.558134
v 1.694042 2.064298 2.464396
v 1.694340 1.737696 2.035574
v 2.209039 1.613177 2.131808
v 2.209039 1.942304 2.557667
v 1.694340 2.066823 2.461433
v 1.709797 1.777696 2.004659
v 2.224496 1.653177 2.100894
v 2.224496 1.982304 2.526753
v 1.709797 2.106823 2.430519
v 1.710091 1.775757 2.005137
v 2.224202 1.650738 2.103836
v 2.224202 1.984243 2.526276
v 1.710091 2.109262 2.427577
v 1.725881 1.815757 1.973558
v 2.239992 1.690738 2.072257
v 2.239992 2.024243 2.494697
v 1.725881 2.149262 2.395998
v 1.726171 1.813839 1.974047
v 2.239702 1.688382 2.075177
v 2.239702 2.026161 2.494208
v 1.726171 2.151618 2.393078
v 1.742293 1.853839 1.941803
v 2.255824 1.728382 2.042933
v 2.255824 2.066161 2.461964
v 1.742293 2.191618 2.360834
v 1.742578 1.851944 1.942303
v 2.255538 1.726107 2.045830
v 2.255538 2.068056 2.461465
v 1.742578 2.193893 2.357937
v 1.759032 1.891944 1.909394
v 2.271993 1.766107 2.012922
v 2.271993 2.108056 2.428556
v 1.759032 2.233893 2.325029
v 1.759313 1.890071 1.909904
v 2.271712 1.763911 2.015794
v 2.271712 2.109929 2.428047
v 1.759313 2.236089 2.322156
v 1.776100 1.930071 1.876330
v 2.288498 1.803911 1.982220
v 2.288498 2.149929 2.394473
v 1.776100 2.276089 2.288583
v 1.776377 1.928220 1.876849
v 2.288222 1.801791 1.985067
v 2.288222 2.151780 2.393954
v 1.776377 2.278209 2.285736
v 1.793496 1.968220 1.842611
v 2.305341 1.841791 1.950829
v 2.305341 2.191780 2.359716
v 1.793496 2.318209 2.251498
v 1.793768 1.966392 1.843139
v 2.305069 1.839745 1.953649
v 2.305069 2.193608 2.359187
v 1.793768 2.320255 2.248678
v 1.811219 2.006392 1.808236
v 2.322521 1.879745 1.918746
v 2.322521 2.233608 2.324284
v 1.811219 2.360255 2.213775
v 1.811486 2.004587 1.808773
v 2.322253 1.877770 1.921538
v 2.322253 2.235413 2.323747
v 1.811486 2.362230 2.210983
v 1.829270 2.044587 1.773206
v 2.340037 1.917770 1.885970
v 2.340037 2.275413 2.288179
v 1.829270 2.402230 2.175415
v 1.829533 2.042804 1.773751
v 2.339774 1.915865 1.888734
v 2.339774 2.277196 2.287634
v 1.829533 2.404135 2.172651
v 1.847649 2.082804 1.737518
v 2.357891 1.955865 1.852502
v 2.357891 2.317196 2.251402
v 1.847649 2.444135 2.136418
v 1.847907 2.081045 1.738071
v 2.357633 1.954028 1.855237
v 2.357633 2.318955 2.250849
v 1.847907 2.445972 2.133683
v 1.866356 2.121045 1.701174
v 2.376081 1.994028 1.818339
v 2.376081 2.358955 2.213951
v 1.866356 2.485972 2.096786
v 1.866610 2.119309 1.701734
v 2.375828 1.992255 1.821044
v 2.375828 2.360691 2.213391
v 1.866610 2.487745 2.094080
v 1.885391 2.159309 1.664172
v 2.394609 2.032255 1.783482
v 2.394609 2.400691 2.175828
v 1.885391 2.527745 2.056518
v 1.885640 2.157596 1.664739
v 2.394360 2.030546 1.786157
v 2.394360 2.402404 2.175261
v 1.885640 2.529454 2.053843
v 1.904753 2.197596 1.626511
v 2.413474 2.070546 1.747930
v 2.413474 2.442404 2.137034
v 1.904753 2.569454 2.015616
v 1.904997 2.195906 1.627085
v 2.413230 2.068898 1.750575
v 2.413230 2.444094 2.136461
v 1.904997 2.571102 2.012971
v 1.924443 2.235906 1.588193
v 2.432676 2.108898 1.711683
v 2.432676 2.484094 2.097569
v 1.924443 2.611102 1.974079
v 1.924683 2.234239 1.588772
v 2.432436 2.107308 1.714296
v 2.432436 2.485761 2.096990
v 1.924683 2.612692 1.971466
v 1.944461 2.274239 1.549215
v 2.452215 2.147308 1.674739
v 2.452215 2.525761 2.057433
v 1.944461 2.652692 1.931909
v 1.944696 2.272595 1.549800
v 2.451980 2.145776 1.677322
v 2.451980 2.527405 2.056848
v 1.944696 2.654224 1.929327
v 1.964807 2.312595 1.509579
v 2.472090 2.185776 1.637100
v 2.472090 2.567405 2.016626
v 1.964807 2.694224 1.889105
v 1.965038 2.310974 1.510168
v 2.471860 2.184299 1.639651
v 2.471860 2.569026 2.016037
v 1.965038 2.695701 1.886554
v 1.985481 2.350974 1.469282
v 2.492303 2.224299 1.598764
v 2.492303 2.609026 1.975150
v 1.985481 2.735701 1.845668
v 1.985707 2.349376 1.469876
v 2.492077 2.222875 1.601283
v 2.492077 2.610624 1.974556
v 1.985707 2.737125 1.843149
v 2.006483 2.389376 1.428325
v 2.512853 2.262875 1.559732
v 2.512853 2.650624 1.933004
v 2.006483 2.777125 1.801598
v 2.006704 2.387801 1.428924
v 2.512631 2.261503 1.562219
v 2.512631 2.652199 1.932406
v 2.006704 2.778497 1.799110
v 2.027812 2.427801 1.386708
v 2.533739 2.301503 1.520003
v 2.533739 2.692199 1.890190
v 2.027812 2.818497 1.756894
v 2.028029 2.426249 1.387310
v 2.533522 2.300181 1.522458
v 2.533522 2.693751 1.889587
v 2.028029 2.819819 1.754439
v 2.049470 2.466249 1.344430
v 2.554962 2.340181 1.479577
v 2.554962 2.733751 1.846706
v 2.049470 2.859819 1.711558
v 2.049683 2.464719 1.345036
v 2.554750 2.338907 1.482001
v 2.554750 2.735281 1.846100
v 2.049683 2.861093 1.709135
v 2.071455 2.504719 1.301490
v 2.576522 2.378907 1.438455
v 2.576522 2.775281 1.802554
v 2.071455 2.901093 1.665589
v 2.071664 2.503212 1.302099
v 2.576314 2.377679 1.440846
v 2.576314 2.776788 1.801945
v 2.071664 2.902321 1.663198
v 2.093769 2.543212 1.257888
v 2.598419 2.417679 1.396636
v 2.598419 2.816788 1.757735
v 2.093769 2.942321 1.618988
v 2.093974 2.541727 1.258500
v 2.598215 2.416496 1.398995
v 2.598215 2.818273 1.757123
v 2.093974 2.943504 1.616628
v 2.116411 2.581727 1.213625
v 2.620653 2.456496 1.354120
v 2.620653 2.858273 1.712248
v 2.116411 2.983504 1.571753
v 2.116611 2.580264 1.214239
v 2.620452 2.455356 1.356447
v 2.620452 2.859736 1.711633
v 2.116611 2.984644 1.569425
v 2.139381 2.620264 1.168699
v 2.643222 2.495356 1.310907
v 2.643222 2.899736 1.666093
v 2.139381 3.024644 1.523885
v 2.139577 2.618822 1.169315
v 2.643026 2.494258 1.313203
v 2.643026 2.901178 1.665477
v 2.139577 3.025742 1.521589
v 2.162680 2.658822 1.123110
v 2.666129 2.534258 1.266998
v 2.666129 2.941178 1.619272
v 2.162680 3.065742 1.475384
v 2.162872 2.657403 1.123728
v 2.665937 2.533200 1.269263
v 2.665937 2.942597 1.618654
v 2.162872 3.066800 1.473120
v 2.186307 2.697403 1.076858
v 2.689372 2.573200 1.222393
v 2.689372 2.982597 1.571784
v 2.186307 3.106800 1.426250
v 2.186495 2.696004 1.077478
v 2.689184 2.572181 1.224626
v 2.689184 2.983996 1.571165
v 2.186495 3.107819 1.424017
v 2.210262 2.736004 1.029943
v 2.712951 2.612181 1.177091
v 2.712951 3.023996 1.523630
v 2.210262 3.147819 1.376482
v 2.210446 2.734627 1.030564
v 2.712767 2.611199 1.179293
v 2.712767 3.025373 1.523010
v 2.210446 3.148801 1.374280
v 2.234546 2.774627 0.982364
v 2.736867 2.651199 1.131094
v 2.736867 3.065373 1.474810
v 2.234546 3.188801 1.326081
v 2.234726 2.773271 0.982986
v 2.736686 2.650254 1.133265
v 2.736686 3.066729 1.474189
v 2.234726 3.189746 1.323910
v 2.259158 2.813271 0.934121
v 2.761119 2.690254 1.084400
v 2.761119 3.106729 1.425324
v 2.259158 3.229746 1.275046
v 2.259335 2.811936 0.934743
v 2.760942 2.689343 1.086541
v 2.760942 3.108064 1.424703
v 2.259335 3.230657 1.272905
v 2.284100 2.851936 0.885214
v 2.785707 2.729343 1.037012
v 2.785707 3.148064 1.375173
v 2.284100 3.270657 1.223376
v 2.284272 2.850621 0.885837
v 2.785534 2.728466 1.039122
v 2.785534 3.149379 1.374551
v 2.284272 3.271534 1.221266
v 2.309369 2.890621 0.835643
v 2.810631 2.768466 0.988928
v 2.810631 3.189379 1.324357
v 2.309369 3.311534 1.171072
v 2.309538 2.889326 0.836265
v 2.810462 2.767622 0.991007
v 2.810462 3.190674 1.323735
v 2.309538 3.312378 1.168993
v 2.334968 2.929326 0.785406
v 2.835891 2.807622 0.940149
v 2.835891 3.230674 1.272876
v 2.334968 3.352378 1.118134
v 2.335133 2.928051 0.786028
v 2.835725 2.806809 0.942199
v 2.835725 3.231949 1.272254
v 2.335133 3.353191 1.116084
v 2.360895 2.968051 0.734505
v 2.861487 2.846809 0.890675
v 2.861487 3.271949 1.220731
v 2.360895 3.393191 1.064560
v 2.361057 2.966795 0.735127
v 2.861325 2.846026 0.892696
v 2.861325 3.273205 1.220109
v 2.361057 3.393974 1.062540
v 2.387152 3.006795 0.682938
v 2.887419 2.886026 0.840508
v 2.887419 3.313205 1.167921
v 2.387152 3.433974 1.010351
v 2.387310 3.005560 0.683559
v 2.887260 2.885272 0.842499
v 2.887260 3.314440 1.167299
v 2.387310 3.434728 1.008360
v 2.413737 3.045560 0.630706
v 2.913687 2.925272 0.789646
v 2.913687 3.354440 1.114446
v 2.413737 3.474728 0.955507
v 2.413892 3.044343 0.631326
v 2.913532 2.924546 0.791608
v 2.913532 3.355657 1.113826
v 2.413892 3.475454 0.953544
v 2.440651 3.084343 0.577808
v 2.940291 2.964546 0.738090
v 2.940291 3.395657 1.060308
v 2.440651 3.515454 0.900026
v 2.440803 3.083145 0.578428
v 2.940138 2.963847 0.740025
v 2.940138 3.396855 1.059689
v 2.440803 3.516153 0.898092
v 2.467895 3.123145 0.524245
v 2.967230 3.003847 0.685842
v 2.967230 3.436855 1.005506
v 2.467895 3.556153 0.843909
v 2.468044 3.121966 0.524863
v 2.967081 3.003175 0.687748
v 2.967081 3.438034 1.004888
v 2.468044 3.556825 0.842003
v 2.495468 3.161966 0.470015
v 2.994505 3.043175 0.632900
v 2.994505 3.478034 0.950040
v 2.495468 3.596825 0.787155
v 2.495613 3.160805 0.470632
v 2.994359 3.042527 0.634779
v 2.994359 3.479195 0.949424
v 2.495613 3.597473 0.785277
v 2.523370 3.200805 0.415119
v 3.022115 3.082527 0.579266
v 3.022115 3.519195 0.893911
v 2.523370 3.637473 0.729764
v 2.523512 3.199662 0.415734
v 3.021972 3.081904 0.581117
v 3.021972 3.520338 0.893296
v 2.523512 3.638096 0.727913
v 2.551601 3.239662 0.359557
v 3.050061 3.121904 0.524940
v 3.050061 3.560338 0.837119
v 2.551601 3.678096 0.671736
v 2.551741 3.238536 0.360170
v 3.049921 3.121304 0.526764
v 3.049921 3.561464 0.836506
v 2.551741 3.678696 0.669912
v 2.580162 3.278536 0.303328
v 3.078342 3.161304 0.469922
v 3.078342 3.601464 0.779664
v 2.580162 3.718696 0.613070
v 2.580298 3.277428 0.303939
v 3.078206 3.160726 0.471719
v 3.078206 3.602572 0.779052
v 2.580298 3.719274 0.611273
v 2.609052 3.317428 0.246432
v 3.106959 3.200726 0.414212
v 3.106959 3.642572 0.721545
v 2.609052 3.759274 0.553766
v 2.609186 3.316338 0.247042
v 3.106825 3.200171 0.415983
v 3.106825 3.643662 0.720936
v 2.609186 3.759829 0.551995
v 2.638272 3.356338 0.188870
v 3.135911 3.240171 0.357811
v 3.135911 3.683662 0.662764
v 2.638272 3.799829 0.493823
v 2.638403 3.355264 0.189477
v 3.135780 3.239636 0.359556
v 3.135780 3.684736 0.662157
v 2.638403 3.800364 0.492078
v 2.667821 3.395264 0.130641
v 3.165198 3.279636 0.300720
v 3.165198 3.724736 0.603320
v 2.667821 3.840364 0.433241
v 2.667949 3.394207 0.131246
v 3.165070 3.279122 0.302439
v 3.165070 3.725793 0.602716
v 2.667949 3.840878 0.431522
v 2.697700 3.434207 0.071744
v 3.194821 3.319122 0.242938
v 3.194821 3.765793 0.543214
v 2.697700 3.880878 0.372020
v 2.697826 3.433167 0.072347
v 3.194695 3.318627 0.244633
v 3.194695 3.766833 0.542612
v 2.697826 3.881373 0.370326
v 2.727909 3.473167 0.012181
v 3.224778 3.358627 0.184466
v 3.224778 3.806833 0.482445
v 2.727909 3.921373 0.310160
v 2.728032 3.472142 0.012781
v 3.224655 3.358150 0.186136
v 3.224655 3.807858 0.481845
v 2.728032 3.921850 0.308490
v 2.758447 3.512142 -0.048050
v 3.255071 3.398150 0.125305
v 3.255071 3.847858 0.421014
v 2.758447 3.961850 0.247659
v 2.758568 3.511133 -0.047453
v 3.254950 3.397692 0.126950
v 3.254950 3.848867 0.420417
v 2.758568 3.962308 0.246014
v 2.789316 3.551133 -0.108949
v 3.285698 3.437692 0.065455
v 3.285698 3.888867 0.358921
v 2.789316 4.002308 0.184518
v 2.789434 3.550140 -0.108354
v 3.285580 3.437252 0.067076
v 3.285580 3.889860 0.358327
v 2.789434 4.002748 0.182896
v 2.820514 3.590140 -0.170515
v 3.316661 3.477252 0.004915
v 3.316661 3.929860 0.296166
v 2.820514 4.042748 0.120736
v 2.820630 3.589162 -0.169923
v 3.316545 3.476828 0.006513
v 3.316545 3.930838 0.295574
v 2.820630 4.043172 0.119138
v 2.852042 3.629162 -0.232749
v 3.347958 3.516828 -0.056312
v 3.347958 3.970838 0.232749
v 2.852042 4.083172 0.056312
f 1 2 3
f 1 3 4
f 5 8 7
f 5 7 6
f 1 5 6
f 1 6 2
f 2 6 7
f 2 7 3
f 3 7 8
f 3 8 4
f 4 8 5
f 4 5 1
f 9 10 11
f 9 11 12
f 13 16 15
f 13 15 14
f 9 13 14
f 9 14 10
f 10 14 15
f 10 15 11
f 11 15 16
f 11 16 12
f 12 16 13
f 12 13 9
f 17 18 19
f 17 19 20
f 21 24 23
f 21 23 22
f 17 21 22
f 17 22 18
f 18 22 23
f 18 23 19
f 19 23 24
f 19 24 20
f 20 24 21
f 20 21 17
f 25 26 27
f 25 27 28
f 29 32 31
f 29 31 30
f 25 29 30
f 25 30 26
f 26 30 31
f 26 31 27
f 27 31 32
f 27 32 28
f 28 32 29
f 28 29 25
f 33 34 35
f 33 35 36
f 37 40 39
f 37 39 38
f 33 37 38
f 33 38 34
f 34 38 39
f 34 39 35
f 35 39 40
f 35 40 36
f 36 40 37
f 36 37 33
f 41 42 43
f 41 43 44
f 45 48 47
f 45 47 46
f 41 45 46
f 41 46 42
f 42 46 47
f 42 47 43
f 43 47 48
f 43 48 44
f 44 48 45
f 44 45 41
f 49 50 51
f 49 51 52
f 53 56 55
f 53 55 54
f 49 53 54
f 49 54 50
f 50 54 55
f 50 55 51
f 51 55 56
f 51 56 52
f 52 56 53
f 52 53 49
f 57 58 59
f 57 59 60
f 61 64 63
f 61 63 62
f 57 61 62
f 57 62 58
f 58 62 63
f 58 63 59
f 59 63 64
f 59 64 60
f 60 64 61
f 60 61 57
f 65 66 67
f 65 67 68
f 69 72 71
f 69 71 70
f 65 69 70
f 65 70 66
f 66 70 71
f 66 71 67
f 67 71 72
f 67 72 68
f 68 72 69
f 68 69 65
f 73 74 75
f 73 75 76
f 77 80 79
f 77 79 78
f 73 77 78
f 73 78 74
f 74 78 79
f 74 79 75
f 75 79 80
f 75 80 76
f 76 80 77
f 76 77 73
f 81 82 83
f 81 83 84
f 85 88 87
f 85 87 86
f 81 85 86
f 81 86 82
f 82 86 87
f 82 87 83
f 83 87 88
f 83 88 84
f 84 88 85
f 84 85 81
f 89 90 91
f 89 91 92
f 93 96 95
f 93 95 94
f 89 93 94
f 89 94 90
f 90 94 95
f 90 95 91
f 91 95 96
f 91 96 92
f 92 96 93
f 92 93 89
f 97 98 99
f 97 99 100
f 101 104 103
f 101 103 102
f 97 101 102
f 97 102 98
f 98 102 103
f 98 103 99
f 99 103 104
f 99 104 100
f 100 104 101
f 100 101 97
f 105 106 107
f 105 107 108
f 109 112 111
f 109 111 110
f 105 109 110
f 105 110 106
f 106 110 111
f 106 111 107
f 107 111 112
f 107 112 108
f 108 112 109
f 108 109 105
f 113 114 115
f 113 115 116
f 117 120 119
f 117 119 118
f 113 117 118
f 113 118 114
f 114 118 119
f 114 119 115
f 115 119 120
f 115 120 116
f 116 120 117
f 116 117 113
f 121 122 123
f 121 123 124
f 125 128 127
f 125 127 126
f 121 125 126
f 121 126 122
f 122 126 127
f 122 127 123
f 123 127 128
f 123 128 124
f 124 128 125
f 124 125 121
f 129 130 131
f 129 131 132
f 133 136 135
f 133 135 134
f 129 133 134
f 129 134 130
f 130 134 135
f 130 135 131
f 131 135 136
f 131 136 132
f 132 136 133
f 132 133 129
f 137 138 139
f 137 139 140
f 141 144 143
f 141 143 142
f 137 141 142
f 137 142 138
f 138 142 143
f 138 143 139
f 139 143 144
f 139 144 140
f 140 144 141
f 140 141 137
f 145 146 147
f 145 147 148
f 149 152 151
f 149 151 150
f 145 149 150
f 145 150 146
f 146 150 151
f 146 151 147
f 147 151 152
f 147 152 148
f 148 152 149
f 148 149 145
f 153 154 155
f 153 155 156
f 157 160 159
f 157 159 158
f 153 157 158
f 153 158 154
f 154 158 159
f 154 159 155
f 155 159 160
f 155 160 156
f 156 160 157
f 156 157 153
f 161 162 163
f 161 163 164
f 165 168 167
f 165 167 166
f 161 165 166
f 161 166 162
f 162 166 167
f 162 167 163
f 163 167 168
f 163 168 164
f 164 168 165
f 164 165 161
f 169 170 171
f 169 171 172
f 173 176 175
f 173 175 174
f 169 173 174
f 169 174 170
f 170 174 175
f 170 175 171
f 171 175 176
f 171 176 172
f 172 176 173
f 172 173 169
f 177 178 179
f 177 179 180
f 181 184 183
f 181 183 182
f 177 181 182
f 177 182 178
f 178 182 183
f 178 183 179
f 179 183 184
f 179 184 180
f 180 184 181
f 180 181 177
f 185 186 187
f 185 187 188
f 189 192 191
f 189 191 190
f 185 189 190
f 185 190 186
f 186 190 191
f 186 191 187
f 187 191 192
f 187 192 188
f 188 192 189
f 188 189 185
f 193 194 195
f 193 195 196
f 197 200 199
f 197 199 198
f 193 197 198
f 193 198 194
f 194 198 199
f 194 199 195
f 195 199 200
f 195 200 196
f 196 200 197
f 196 197 193
f 201 202 203
f 201 203 204
f 205 208 207
f 205 207 206
f 201 205 206
f 201 206 202
f 202 206 207
f 202 207 203
f 203 207 208
f 203 208 204
f 204 208 205
f 204 205 201
f 209 210 211
f 209 211 212
f 213 216 215
f 213 215 214
f 209 213 214
f 209 214 210
f 210 214 215
f 210 215 211
f 211 215 216
f 211 216 212
f 212 216 213
f 212 213 209
f 217 218 219
f 217 219 220
f 221 224 223
f 221 223 222
f 217 221 222
f 217 222 218
f 218 222 223
f 218 223 219
f 219 223 224
f 219 224 220
f 220 224 221
f 220 221 217
f 225 226 227
f 225 227 228
f 229 232 231
f 229 231 230
f 225 229 230
f 225 230 226
f 226 230 231
f 226 231 227
f 227 231 232
f 227 232 228
f 228 232 229
f 228 229 225
f 233 234 235
f 233 235 236
f 237 240 239
f 237 239 238
f 233 237 238
f 233 238 234
f 234 238 239
f 234 239 235
f 235 239 240
f 235 240 236
f 236 240 237
f 236 237 233
f 241 242 243
f 241 243 244
f 245 248 247
f 245 247 246
f 241 245 246
f 241 246 242
f 242 246 247
f 242 247 243
f 243 247 248
f 243 248 244
f 244 248 245
f 244 245 241
f 249 250 251
f 249 251 252
f 253 256 255
f 253 255 254
f 249 253 254
f 249 254 250
f 250 254 255
f 250 255 251
f 251 255 256
f 251 256 252
f 252 256 253
f 252 253 249
f 257 258 259
f 257 259 260
f 261 264 263
f 261 263 262
f 257 261 262
f 257 262 258
f 258 262 263
f 258 263 259
f 259 263 264
f 259 264 260
f 260 264 261
f 260 261 257
f 265 266 267
f 265 267 268
f 269 272 271
f 269 271 270
f 265 269 270
f 265 270 266
f 266 270 271
f 266 271 267
f 267 271 272
f 267 272 268
f 268 272 269
f 268 269 265
f 273 274 275
f 273 275 276
f 277 280 279
f 277 279 278
f 273 277 278
f 273 278 274
f 274 278 279
f 274 279 275
f 275 279 280
f 275 280 276
f 276 280 277
f 276 277 273
f 281 282 283
f 281 283 284
f 285 288 287
f 285 287 286
f 281 285 286
f 281 286 282
f 282 286 287
f 282 287 283
f 283 287 288
f 283 288 284
f 284 288 285
f 284 285 281
f 289 290 291
f 289 291 292
f 293 296 295
f 293 295 294
f 289 293 294
f 289 294 290
f 290 294 295
f 290 295 291
f 291 295 296
f 291 296 292
f 292 296 293
f 292 293 289
f 297 298 299
f 297 299 300
f 301 304 303
f 301 303 302
f 297 301 302
f 297 302 298
f 298 302 303
f 298 303 299
f 299 303 304
f 299 304 300
f 300 304 301
f 300 301 297
f 305 306 307
f 305 307 308
f 309 312 311
f 309 311 310
f 305 309 310
f 305 310 306
f 306 310 311
f 306 311 307
f 307 311 312
f 307 312 308
f 308 312 309
f 308 309 305
f 313 314 315
f 313 315 316
f 317 320 319
f 317 319 318
f 313 317 318
f 313 318 314
f 314 318 319
f 314 319 315
f 315 319 320
f 315 320 316
f 316 320 317
f 316 317 313
f 321 322 323
f 321 323 324
f 325 328 327
f 325 327 326
f 321 325 326
f 321 326 322
f 322 326 327
f 322 327 323
f 323 327 328
f 323 328 324
f 324 328 325
f 324 325 321
f 329 330 331
f 329 331 332
f 333 336 335
f 333 335 334
f 329 333 334
f 329 334 330
f 330 334 335
f 330 335 331
f 331 335 336
f 331 336 332
f 332 336 333
f 332 333 329
f 337 338 339
f 337 339 340
f 341 344 343
f 341 343 342
f 337 341 342
f 337 342 338
f 338 342 343
f 338 343 339
f 339 343 344
f 339 344 340
f 340 344 341
f 340 341 337
f 345 346 347
f 345 347 348
f 349 352 351
f 349 351 350
f 345 349 350
f 345 350 346
f 346 350 351
f 346 351 347
f 347 351 352
f 347 352 348
f 348 352 349
f 348 349 345
f 353 354 355
f 353 355 356
f 357 360 359
f 357 359 358
f 353 357 358
f 353 358 354
f 354 358 359
f 354 359 355
f 355 359 360
f 355 360 356
f 356 360 357
f 356 357 353
f 361 362 363
f 361 363 364
f 365 368 367
f 365 367 366
f 361 365 366
f 361 366 362
f 362 366 367
f 362 367 363
f 363 367 368
f 363 368 364
f 364 368 365
f 364 365 361
f 369 370 371
f 369 371 372
f 373 376 375
f 373 375 374
f 369 373 374
f 369 374 370
f 370 374 375
f 370 375 371
f 371 375 376
f 371 376 372
f 372 376 373
f 372 373 369
f 377 378 379
f 377 379 380
f 381 384 383
f 381 383 382
f 377 381 382
f 377 382 378
f 378 382 383
f 378 383 379
f 379 383 384
f 379 384 380
f 380 384 381
f 380 381 377
f 385 386 387
f 385 387 388
f 389 392 391
f 389 391 390
f 385 389 390
f 385 390 386
f 386 390 391
f 386 391 387
f 387 391 392
f 387 392 388
f 388 392 389
f 388 389 385
f 393 394 395
f 393 395 396
f 397 400 399
f 397 399 398
f 393 397 398
f 393 398 394
f 394 398 399
f 394 399 395
f 395 399 400
f 395 400 396
f 396 400 397
f 396 397 393
f 401 402 403
f 401 403 404
f 405 408 407
f 405 407 406
f 401 405 406
f 401 406 402
f 402 406 407
f 402 407 403
f 403 407 408
f 403 408 404
f 404 408 405
f 404 405 401
f 409 410 411
f 409 411 412
f 413 416 415
f 413 415 414
f 409 413 414
f 409 414 410
f 410 414 415
f 410 415 411
f 411 415 416
f 411 416 412
f 412 416 413
f 412 413 409
f 417 418 419
f 417 419 420
f 421 424 423
f 421 423 422
f 417 421 422
f 417 422 418
f 418 422 423
f 418 423 419
f 419 423 424
f 419 424 420
f 420 424 421
f 420 421 417
f 425 426 427
f 425 427 428
f 429 432 431
f 429 431 430
f 425 429 430
f 425 430 426
f 426 430 431
f 426 431 427
f 427 431 432
f 427 432 428
f 428 432 429
f 428 429 425
f 433 434 435
f 433 435 436
f 437 440 439
f 437 439 438
f 433 437 438
f 433 438 434
f 434 438 439
f 434 439 435
f 435 439 440
f 435 440 436
f 436 440 437
f 436 437 433
f 441 442 443
f 441 443 444
f 445 448 447
f 445 447 446
f 441 445 446
f 441 446 442
f 442 446 447
f 442 447 443
f 443 447 448
f 443 448 444
f 444 448 445
f 444 445 441
f 449 450 451
f 449 451 452
f 453 456 455
f 453 455 454
f 449 453 454
f 449 454 450
f 450 454 455
f 450 455 451
f 451 455 456
f 451 456 452
f 452 456 453
f 452 453 449
f 457 458 459
f 457 459 460
f 461 464 463
f 461 463 462
f 457 461 462
f 457 462 458
f 458 462 463
f 458 463 459
f 459 463 464
f 459 464 460
f 460 464 461
f 460 461 457
f 465 466 467
f 465 467 468
f 469 472 471
f 469 471 470
f 465 469 470
f 465 470 466
f 466 470 471
f 466 471 467
f 467 471 472
f 467 472 468
f 468 472 469
f 468 469 465
f 473 474 475
f 473 475 476
f 477 480 479
f 477 479 478
f 473 477 478
f 473 478 474
f 474 478 479
f 474 479 475
f 475 479 480
f 475 480 476
f 476 480 477
f 476 477 473
f 481 482 483
f 481 483 484
f 485 488 487
f 485 487 486
f 481 485 486
f 481 486 482
f 482 486 487
f 482 487 483
f 483 487 488
f 483 488 484
f 484 488 485
f 484 485 481
f 489 490 491
f 489 491 492
f 493 496 495
f 493 495 494
f 489 493 494
f 489 494 490
f 490 494 495
f 490 495 491
f 491 495 496
f 491 496 492
f 492 496 493
f 492 493 489
f 497 498 499
f 497 499 500
f 501 504 503
f 501 503 502
f 497 501 502
f 497 502 498
f 498 502 503
f 498 503 499
f 499 503 504
f 499 504 500
f 500 504 501
f 500 501 497
f 505 506 507
f 505 507 508
f 509 512 511
f 509 511 510
f 505 509 510
f 505 510 506
f 506 510 511
f 506 511 507
f 507 511 512
f 507 512 508
f 508 512 509
f 508 509 505
f 513 514 515
f 513 515 516
f 517 520 519
f 517 519 518
f 513 517 518
f 513 518 514
f 514 518 519
f 514 519 515
f 515 519 520
f 515 520 516
f 516 520 517
f 516 517 513
f 521 522 523
f 521 523 524
f 525 528 527
f 525 527 526
f 521 525 526
f 521 526 522
f 522 526 527
f 522 527 523
f 523 527 528
f 523 528 524
f 524 528 525
f 524 525 521
f 529 530 531
f 529 531 532
f 533 536 535
f 533 535 534
f 529 533 534
f 529 534 530
f 530 534 535
f 530 535 531
f 531 535 536
f 531 536 532
f 532 536 533
f 532 533 529
f 537 538 539
f 537 539 540
f 541 544 543
f 541 543 542
f 537 541 542
f 537 542 538
f 538 542 543
f 538 543 539
f 539 543 544
f 539 544 540
f 540 544 541
f 540 541 537
f 545 546 547
f 545 547 548
f 549 552 551
f 549 551 550
f 545 549 550
f 545 550 546
f 546 550 551
f 546 551 547
f 547 551 552
f 547 552 548
f 548 552 549
f 548 549 545
f 553 554 555
f 553 555 556
f 557 560 559
f 557 559 558
f 553 557 558
f 553 558 554
f 554 558 559
f 554 559 555
f 555 559 560
f 555 560 556
f 556 560 557
f 556 557 553
f 561 562 563
f 561 563 564
f 565 568 567
f 565 567 566
f 561 565 566
f 561 566 562
f 562 566 567
f 562 567 563
f 563 567 568
f 563 568 564
f 564 568 565
f 564 565 561
f 569 570 571
f 569 571 572
f 573 576 575
f 573 575 574
f 569 573 574
f 569 574 570
f 570 574 575
f 570 575 571
f 571 575 576
f 571 576 572
f 572 576 573
f 572 573 569
f 577 578 579
f 577 579 580
f 581 584 583
f 581 583 582
f 577 581 582
f 577 582 578
f 578 582 583
f 578 583 579
f 579 583 584
f 579 584 580
f 580 584 581
f 580 581 577
f 585 586 587
f 585 587 588
f 589 592 591
f 589 591 590
f 585 589 590
f 585 590 586
f 586 590 591
f 586 591 587
f 587 591 592
f 587 592 588
f 588 592 589
f 588 589 585
f 593 594 595
f 593 595 596
f 597 600 599
f 597 599 598
f 593 597 598
f 593 598 594
f 594 598 599
f 594 599 595
f 595 599 600
f 595 600 596
f 596 600 597
f 596 597 593
f 601 602 603
f 601 603 604
f 605 608 607
f 605 607 606
f 601 605 606
f 601 606 602
f 602 606 607
f 602 607 603
f 603 607 608
f 603 608 604
f 604 608 605
f 604 605 601
f 609 610 611
f 609 611 612
f 613 616 615
f 613 615 614
f 609 613 614
f 609 614 610
f 610 614 615
f 610 615 611
f 611 615 616
f 611 616 612
f 612 616 613
f 612 613 609
f 617 618 619
f 617 619 620
f 621 624 623
f 621 623 622
f 617 621 622
f 617 622 618
f 618 622 623
f 618 623 619
f 619 623 624
f 619 624 620
f 620 624 621
f 620 621 617
f 625 626 627
f 625 627 628
f 629 632 631
f 629 631 630
f 625 629 630
f 625 630 626
f 626 630 631
f 626 631 627
f 627 631 632
f 627 632 628
f 628 632 629
f 628 629 625
f 633 634 635
f 633 635 636
f 637 640 639
f 637 639 638
f 633 637 638
f 633 638 634
f 634 638 639
f 634 639 635
f 635 639 640
f 635 640 636
f 636 640 637
f 636 637 633
f 641 642 643
f 641 643 644
f 645 648 647
f 645 647 646
f 641 645 646
f 641 646 642
f 642 646 647
f 642 647 643
f 643 647 648
f 643 648 644
f 644 648 645
f 644 645 641
f 649 650 651
f 649 651 652
f 653 656 655
f 653 655 654
f 649 653 654
f 649 654 650
f 650 654 655
f 650 655 651
f 651 655 656
f 651 656 652
f 652 656 653
f 652 653 649
f 657 658 659
f 657 659 660
f 661 664 663
f 661 663 662
f 657 661 662
f 657 662 658
f 658 662 663
f 658 663 659
f 659 663 664
f 659 664 660
f 660 664 661
f 660 661 657
f 665 666 667
f 665 667 668
f 669 672 671
f 669 671 670
f 665 669 670
f 665 670 666
f 666 670 671
f 666 671 667
f 667 671 672
f 667 672 668
f 668 672 669
f 668 669 665
f 673 674 675
f 673 675 676
f 677 680 679
f 677 679 678
f 673 677 678
f 673 678 674
f 674 678 679
f 674 679 675
f 675 679 680
f 675 680 676
f 676 680 677
f 676 677 673
f 681 682 683
f 681 683 684
f 685 688 687
f 685 687 686
f 681 685 686
f 681 686 682
f 682 686 687
f 682 687 683
f 683 687 688
f 683 688 684
f 684 688 685
f 684 685 681
f 689 690 691
f 689 691 692
f 693 696 695
f 693 695 694
f 689 693 694
f 689 694 690
f 690 694 695
f 690 695 691
f 691 695 696
f 691 696 692
f 692 696 693
f 692 693 689
f 697 698 699
f 697 699 700
f 701 704 703
f 701 703 702
f 697 701 702
f 697 702 698
f 698 702 703
f 698 703 699
f 699 703 704
f 699 704 700
f 700 704 701
f 700 701 697
f 705 706 707
f 705 707 708
f 709 712 711
f 709 711 710
f 705 709 710
f 705 710 706
f 706 710 711
f 706 711 707
f 707 711 712
f 707 712 708
f 708 712 709
f 708 709 705
f 713 714 715
f 713 715 716
f 717 720 719
f 717 719 718
f 713 717 718
f 713 718 714
f 714 718 719
f 714 719 715
f 715 719 720
f 715 720 716
f 716 720 717
f 716 717 713
f 721 722 723
f 721 723 724
f 725 728 727
f 725 727 726
f 721 725 726
f 721 726 722
f 722 726 727
f 722 727 723
f 723 727 728
f 723 728 724
f 724 728 725
f 724 725 721
f 729 730 731
f 729 731 732
f 733 736 735
f 733 735 734
f 729 733 734
f 729 734 730
f 730 734 735
f 730 735 731
f 731 735 736
f 731 736 732
f 732 736 733
f 732 733 729
f 737 738 739
f 737 739 740
f 741 744 743
f 741 743 742
f 737 741 742
f 737 742 738
f 738 742 743
f 738 743 739
f 739 743 744
f 739 744 740
f 740 744 741
f 740 741 737
f 745 746 747
f 745 747 748
f 749 752 751
f 749 751 750
f 745 749 750
f 745 750 746
f 746 750 751
f 746 751 747
f 747 751 752
f 747 752 748
f 748 752 749
f 748 749 745
f 753 754 755
f 753 755 756
f 757 760 759
f 757 759 758
f 753 757 758
f 753 758 754
f 754 758 759
f 754 759 755
f 755 759 760
f 755 760 756
f 756 760 757
f 756 757 753
