o [4B] 3D Diagram - S2-07 Group F_233
v -0.563474 -0.092500 3.050000
v -0.563474 0.006250 3.050000
v -0.563474 0.006250 3.086875
v -0.563474 -0.092500 3.086875
v -0.532224 -0.092500 3.050000
v -0.532224 -0.092500 3.086875
v -0.532224 0.006250 3.050000
v -0.532224 0.006250 3.086875
v -0.563474 0.105000 3.050000
v -0.563474 0.105000 3.086875
v -0.532224 0.105000 3.050000
v -0.532224 0.105000 3.086875
v -0.563474 0.203750 3.050000
v -0.563474 0.203750 3.086875
v -0.532224 0.203750 3.050000
v -0.532224 0.203750 3.086875
v -0.563474 0.302500 3.050000
v -0.563474 0.302500 3.086875
v -0.532224 0.302500 3.050000
v -0.532224 0.302500 3.086875
v -0.563474 0.401250 3.050000
v -0.563474 0.401250 3.086875
v -0.532224 0.401250 3.050000
v -0.532224 0.401250 3.086875
v -0.563474 0.500000 3.050000
v -0.563474 0.500000 3.086875
v -0.532224 0.500000 3.050000
v -0.532224 0.500000 3.086875
v -0.563474 0.598750 3.050000
v -0.563474 0.598750 3.086875
v -0.532224 0.598750 3.050000
v -0.532224 0.598750 3.086875
v -0.563474 0.697500 3.050000
v -0.563474 0.697500 3.086875
v -0.532224 0.697500 3.050000
v -0.532224 0.697500 3.086875
v -0.563474 0.796250 3.050000
v -0.563474 0.796250 3.086875
v -0.532224 0.796250 3.050000
v -0.532224 0.796250 3.086875
v -0.563474 0.895000 3.050000
v -0.563474 0.895000 3.086875
v -0.532224 0.895000 3.050000
v -0.532224 0.895000 3.086875
v -0.563474 0.993750 3.050000
v -0.563474 0.993750 3.086875
v -0.532224 0.993750 3.050000
v -0.532224 0.993750 3.086875
v -0.563474 1.092500 3.050000
v -0.563474 1.092500 3.086875
v -0.532224 1.092500 3.086875
v -0.532224 1.092500 3.050000
v -0.532224 -0.092500 3.013125
v -0.532224 0.006250 3.013125
v -0.500974 -0.092500 3.013125
v -0.500974 -0.092500 3.050000
v -0.500974 0.006250 3.013125
v -0.500974 -0.092500 3.086875
v -0.500974 0.006250 3.086875
v -0.532224 0.105000 3.013125
v -0.500974 0.105000 3.013125
v -0.500974 0.105000 3.086875
v -0.532224 0.203750 3.013125
v -0.500974 0.203750 3.013125
v -0.500974 0.203750 3.086875
v -0.532224 0.302500 3.013125
v -0.500974 0.302500 3.013125
v -0.500974 0.302500 3.086875
v -0.532224 0.401250 3.013125
v -0.500974 0.401250 3.013125
v -0.500974 0.401250 3.086875
v -0.532224 0.500000 3.013125
v -0.500974 0.500000 3.013125
v -0.500974 0.500000 3.086875
v -0.532224 0.598750 3.013125
v -0.500974 0.598750 3.013125
v -0.500974 0.598750 3.086875
v -0.532224 0.697500 3.013125
v -0.500974 0.697500 3.013125
v -0.500974 0.697500 3.086875
v -0.532224 0.796250 3.013125
v -0.500974 0.796250 3.013125
v -0.500974 0.796250 3.086875
v -0.532224 0.895000 3.013125
v -0.500974 0.895000 3.013125
v -0.500974 0.895000 3.086875
v -0.532224 0.993750 3.013125
v -0.500974 0.993750 3.013125
v -0.500974 0.993750 3.086875
v -0.532224 1.092500 3.013125
v -0.500974 1.092500 3.050000
v -0.500974 1.092500 3.013125
v -0.500974 1.092500 3.086875
v -0.469724 -0.092500 3.013125
v -0.469724 -0.092500 3.050000
v -0.469724 0.006250 3.013125
v -0.469724 -0.092500 3.086875
v -0.469724 0.006250 3.086875
v -0.469724 0.105000 3.013125
v -0.469724 0.105000 3.086875
v -0.469724 0.203750 3.013125
v -0.469724 0.203750 3.086875
v -0.469724 0.302500 3.013125
v -0.469724 0.302500 3.086875
v -0.469724 0.401250 3.013125
v -0.469724 0.401250 3.086875
v -0.469724 0.500000 3.013125
v -0.469724 0.500000 3.086875
v -0.469724 0.598750 3.013125
v -0.469724 0.598750 3.086875
v -0.469724 0.697500 3.013125
v -0.469724 0.697500 3.086875
v -0.469724 0.796250 3.013125
v -0.469724 0.796250 3.086875
v -0.469724 0.895000 3.013125
v -0.469724 0.895000 3.086875
v -0.469724 0.993750 3.013125
v -0.469724 0.993750 3.086875
v -0.469724 1.092500 3.050000
v -0.469724 1.092500 3.013125
v -0.469724 1.092500 3.086875
v -0.438474 -0.092500 3.013125
v -0.438474 -0.092500 3.050000
v -0.438474 0.006250 3.013125
v -0.438474 -0.092500 3.086875
v -0.438474 0.006250 3.086875
v -0.438474 0.105000 3.013125
v -0.438474 0.105000 3.086875
v -0.438474 0.203750 3.013125
v -0.438474 0.203750 3.086875
v -0.438474 0.302500 3.013125
v -0.438474 0.302500 3.086875
v -0.438474 0.401250 3.013125
v -0.438474 0.401250 3.086875
v -0.438474 0.500000 3.013125
v -0.438474 0.500000 3.086875
v -0.438474 0.598750 3.013125
v -0.438474 0.598750 3.086875
v -0.438474 0.697500 3.013125
v -0.438474 0.697500 3.086875
v -0.438474 0.796250 3.013125
v -0.438474 0.796250 3.086875
v -0.438474 0.895000 3.013125
v -0.438474 0.895000 3.086875
v -0.438474 0.993750 3.013125
v -0.438474 0.993750 3.086875
v -0.438474 1.092500 3.050000
v -0.438474 1.092500 3.013125
v -0.438474 1.092500 3.086875
v -0.407224 -0.092500 3.013125
v -0.407224 -0.092500 3.050000
v -0.407224 0.006250 3.013125
v -0.407224 -0.092500 3.086875
v -0.407224 0.006250 3.086875
v -0.407224 0.105000 3.013125
v -0.407224 0.105000 3.086875
v -0.407224 0.203750 3.013125
v -0.407224 0.203750 3.086875
v -0.407224 0.302500 3.013125
v -0.407224 0.302500 3.086875
v -0.407224 0.401250 3.013125
v -0.407224 0.401250 3.086875
v -0.407224 0.500000 3.013125
v -0.407224 0.500000 3.086875
v -0.407224 0.598750 3.013125
v -0.407224 0.598750 3.086875
v -0.407224 0.697500 3.013125
v -0.407224 0.697500 3.086875
v -0.407224 0.796250 3.013125
v -0.407224 0.796250 3.086875
v -0.407224 0.895000 3.013125
v -0.407224 0.895000 3.086875
v -0.407224 0.993750 3.013125
v -0.407224 0.993750 3.086875
v -0.407224 1.092500 3.050000
v -0.407224 1.092500 3.013125
v -0.407224 1.092500 3.086875
v -0.375974 -0.092500 3.013125
v -0.375974 -0.092500 3.050000
v -0.375974 0.006250 3.013125
v -0.375974 -0.092500 3.086875
v -0.375974 0.006250 3.086875
v -0.375974 0.105000 3.013125
v -0.375974 0.105000 3.086875
v -0.375974 0.203750 3.013125
v -0.375974 0.203750 3.086875
v -0.375974 0.302500 3.013125
v -0.375974 0.302500 3.086875
v -0.375974 0.401250 3.013125
v -0.375974 0.401250 3.086875
v -0.375974 0.500000 3.013125
v -0.375974 0.500000 3.086875
v -0.375974 0.598750 3.013125
v -0.375974 0.598750 3.086875
v -0.375974 0.697500 3.013125
v -0.375974 0.697500 3.086875
v -0.375974 0.796250 3.013125
v -0.375974 0.796250 3.086875
v -0.375974 0.895000 3.013125
v -0.375974 0.895000 3.086875
v -0.375974 0.993750 3.013125
v -0.375974 0.993750 3.086875
v -0.375974 1.092500 3.050000
v -0.375974 1.092500 3.013125
v -0.375974 1.092500 3.086875
v -0.344724 -0.092500 3.013125
v -0.344724 -0.092500 3.050000
v -0.344724 0.006250 3.013125
v -0.344724 -0.092500 3.086875
v -0.344724 0.006250 3.086875
v -0.344724 0.105000 3.013125
v -0.344724 0.105000 3.086875
v -0.344724 0.203750 3.013125
v -0.344724 0.203750 3.086875
v -0.344724 0.302500 3.013125
v -0.344724 0.302500 3.086875
v -0.344724 0.401250 3.013125
v -0.344724 0.401250 3.086875
v -0.344724 0.500000 3.013125
v -0.344724 0.500000 3.086875
v -0.344724 0.598750 3.013125
v -0.344724 0.598750 3.086875
v -0.344724 0.697500 3.013125
v -0.344724 0.697500 3.086875
v -0.344724 0.796250 3.013125
v -0.344724 0.796250 3.086875
v -0.344724 0.895000 3.013125
v -0.344724 0.895000 3.086875
v -0.344724 0.993750 3.013125
v -0.344724 0.993750 3.086875
v -0.344724 1.092500 3.050000
v -0.344724 1.092500 3.013125
v -0.344724 1.092500 3.086875
v -0.313474 -0.092500 3.013125
v -0.313474 -0.092500 3.050000
v -0.313474 0.006250 3.013125
v -0.313474 -0.092500 3.086875
v -0.313474 0.006250 3.086875
v -0.313474 0.105000 3.013125
v -0.313474 0.105000 3.086875
v -0.313474 0.203750 3.013125
v -0.313474 0.203750 3.086875
v -0.313474 0.302500 3.013125
v -0.313474 0.302500 3.086875
v -0.313474 0.401250 3.013125
v -0.313474 0.401250 3.086875
v -0.313474 0.500000 3.013125
v -0.313474 0.500000 3.086875
v -0.313474 0.598750 3.013125
v -0.313474 0.598750 3.086875
v -0.313474 0.697500 3.013125
v -0.313474 0.697500 3.086875
v -0.313474 0.796250 3.013125
v -0.313474 0.796250 3.086875
v -0.313474 0.895000 3.013125
v -0.313474 0.895000 3.086875
v -0.313474 0.993750 3.013125
v -0.313474 0.993750 3.086875
v -0.313474 1.092500 3.050000
v -0.313474 1.092500 3.013125
v -0.313474 1.092500 3.086875
v -0.282224 -0.092500 3.013125
v -0.282224 -0.092500 3.050000
v -0.282224 0.006250 3.013125
v -0.282224 -0.092500 3.086875
v -0.282224 0.006250 3.086875
v -0.282224 0.105000 3.013125
v -0.282224 0.105000 3.086875
v -0.282224 0.203750 3.013125
v -0.282224 0.203750 3.086875
v -0.282224 0.302500 3.013125
v -0.282224 0.302500 3.086875
v -0.282224 0.401250 3.013125
v -0.282224 0.401250 3.086875
v -0.282224 0.500000 3.013125
v -0.282224 0.500000 3.086875
v -0.282224 0.598750 3.013125
v -0.282224 0.598750 3.086875
v -0.282224 0.697500 3.013125
v -0.282224 0.697500 3.086875
v -0.282224 0.796250 3.013125
v -0.282224 0.796250 3.086875
v -0.282224 0.895000 3.013125
v -0.282224 0.895000 3.086875
v -0.282224 0.993750 3.013125
v -0.282224 0.993750 3.086875
v -0.282224 1.092500 3.050000
v -0.282224 1.092500 3.013125
v -0.282224 1.092500 3.086875
v -0.250974 -0.092500 3.013125
v -0.250974 -0.092500 3.050000
v -0.250974 0.006250 3.013125
v -0.250974 -0.092500 3.086875
v -0.250974 0.006250 3.086875
v -0.250974 0.105000 3.013125
v -0.250974 0.105000 3.086875
v -0.250974 0.203750 3.013125
v -0.250974 0.203750 3.086875
v -0.250974 0.302500 3.013125
v -0.250974 0.302500 3.086875
v -0.250974 0.401250 3.013125
v -0.250974 0.401250 3.086875
v -0.250974 0.500000 3.013125
v -0.250974 0.500000 3.086875
v -0.250974 0.598750 3.013125
v -0.250974 0.598750 3.086875
v -0.250974 0.697500 3.013125
v -0.250974 0.697500 3.086875
v -0.250974 0.796250 3.013125
v -0.250974 0.796250 3.086875
v -0.250974 0.895000 3.013125
v -0.250974 0.895000 3.086875
v -0.250974 0.993750 3.013125
v -0.250974 0.993750 3.086875
v -0.250974 1.092500 3.050000
v -0.250974 1.092500 3.013125
v -0.250974 1.092500 3.086875
v -0.219724 -0.092500 3.013125
v -0.219724 -0.092500 3.050000
v -0.219724 0.006250 3.013125
v -0.219724 -0.092500 3.086875
v -0.219724 0.006250 3.086875
v -0.219724 0.105000 3.013125
v -0.219724 0.105000 3.086875
v -0.219724 0.203750 3.013125
v -0.219724 0.203750 3.086875
v -0.219724 0.302500 3.013125
v -0.219724 0.302500 3.086875
v -0.219724 0.401250 3.013125
v -0.219724 0.401250 3.086875
v -0.219724 0.500000 3.013125
v -0.219724 0.500000 3.086875
v -0.219724 0.598750 3.013125
v -0.219724 0.598750 3.086875
v -0.219724 0.697500 3.013125
v -0.219724 0.697500 3.086875
v -0.219724 0.796250 3.013125
v -0.219724 0.796250 3.086875
v -0.219724 0.895000 3.013125
v -0.219724 0.895000 3.086875
v -0.219724 0.993750 3.013125
v -0.219724 0.993750 3.086875
v -0.219724 1.092500 3.050000
v -0.219724 1.092500 3.013125
v -0.219724 1.092500 3.086875
v -0.188474 -0.092500 3.013125
v -0.188474 -0.092500 3.050000
v -0.188474 0.006250 3.013125
v -0.188474 -0.092500 3.086875
v -0.188474 0.006250 3.086875
v -0.188474 0.105000 3.013125
v -0.188474 0.105000 3.086875
v -0.188474 0.203750 3.013125
v -0.188474 0.203750 3.086875
v -0.188474 0.302500 3.013125
v -0.188474 0.302500 3.086875
v -0.188474 0.401250 3.013125
v -0.188474 0.401250 3.086875
v -0.188474 0.500000 3.013125
v -0.188474 0.500000 3.086875
v -0.188474 0.598750 3.013125
v -0.188474 0.598750 3.086875
v -0.188474 0.697500 3.013125
v -0.188474 0.697500 3.086875
v -0.188474 0.796250 3.013125
v -0.188474 0.796250 3.086875
v -0.188474 0.895000 3.013125
v -0.188474 0.895000 3.086875
v -0.188474 0.993750 3.013125
v -0.188474 0.993750 3.086875
v -0.188474 1.092500 3.050000
v -0.188474 1.092500 3.013125
v -0.188474 1.092500 3.086875
v -0.157224 -0.092500 3.013125
v -0.157224 -0.092500 3.050000
v -0.157224 0.006250 3.050000
v -0.157224 0.006250 3.013125
v -0.157224 -0.092500 3.086875
v -0.157224 0.006250 3.086875
v -0.157224 0.105000 3.050000
v -0.157224 0.105000 3.013125
v -0.157224 0.105000 3.086875
v -0.157224 0.203750 3.050000
v -0.157224 0.203750 3.013125
v -0.157224 0.203750 3.086875
v -0.157224 0.302500 3.050000
v -0.157224 0.302500 3.013125
v -0.157224 0.302500 3.086875
v -0.157224 0.401250 3.050000
v -0.157224 0.401250 3.013125
v -0.157224 0.401250 3.086875
v -0.157224 0.500000 3.050000
v -0.157224 0.500000 3.013125
v -0.157224 0.500000 3.086875
v -0.157224 0.598750 3.050000
v -0.157224 0.598750 3.013125
v -0.157224 0.598750 3.086875
v -0.157224 0.697500 3.050000
v -0.157224 0.697500 3.013125
v -0.157224 0.697500 3.086875
v -0.157224 0.796250 3.050000
v -0.157224 0.796250 3.013125
v -0.157224 0.796250 3.086875
v -0.157224 0.895000 3.050000
v -0.157224 0.895000 3.013125
v -0.157224 0.895000 3.086875
v -0.157224 0.993750 3.050000
v -0.157224 0.993750 3.013125
v -0.157224 0.993750 3.086875
v -0.157224 1.092500 3.050000
v -0.157224 1.092500 3.013125
v -0.157224 1.092500 3.086875
f 1 2 3
f 1 3 4
f 1 5 6
f 1 6 4
f 1 2 7
f 1 7 5
f 4 6 8
f 4 8 3
f 2 9 10
f 2 10 3
f 2 9 11
f 2 11 7
f 3 8 12
f 3 12 10
f 9 13 14
f 9 14 10
f 9 13 15
f 9 15 11
f 10 12 16
f 10 16 14
f 13 17 18
f 13 18 14
f 13 17 19
f 13 19 15
f 14 16 20
f 14 20 18
f 17 21 22
f 17 22 18
f 17 21 23
f 17 23 19
f 18 20 24
f 18 24 22
f 21 25 26
f 21 26 22
f 21 25 27
f 21 27 23
f 22 24 28
f 22 28 26
f 25 29 30
f 25 30 26
f 25 29 31
f 25 31 27
f 26 28 32
f 26 32 30
f 29 33 34
f 29 34 30
f 29 33 35
f 29 35 31
f 30 32 36
f 30 36 34
f 33 37 38
f 33 38 34
f 33 37 39
f 33 39 35
f 34 36 40
f 34 40 38
f 37 41 42
f 37 42 38
f 37 41 43
f 37 43 39
f 38 40 44
f 38 44 42
f 41 45 46
f 41 46 42
f 41 45 47
f 41 47 43
f 42 44 48
f 42 48 46
f 45 49 50
f 45 50 46
f 49 50 51
f 49 51 52
f 45 49 52
f 45 52 47
f 46 48 51
f 46 51 50
f 53 54 7
f 53 7 5
f 53 55 56
f 53 56 5
f 53 54 57
f 53 57 55
f 5 56 58
f 5 58 6
f 6 58 59
f 6 59 8
f 54 60 11
f 54 11 7
f 54 60 61
f 54 61 57
f 8 59 62
f 8 62 12
f 60 63 15
f 60 15 11
f 60 63 64
f 60 64 61
f 12 62 65
f 12 65 16
f 63 66 19
f 63 19 15
f 63 66 67
f 63 67 64
f 16 65 68
f 16 68 20
f 66 69 23
f 66 23 19
f 66 69 70
f 66 70 67
f 20 68 71
f 20 71 24
f 69 72 27
f 69 27 23
f 69 72 73
f 69 73 70
f 24 71 74
f 24 74 28
f 72 75 31
f 72 31 27
f 72 75 76
f 72 76 73
f 28 74 77
f 28 77 32
f 75 78 35
f 75 35 31
f 75 78 79
f 75 79 76
f 32 77 80
f 32 80 36
f 78 81 39
f 78 39 35
f 78 81 82
f 78 82 79
f 36 80 83
f 36 83 40
f 81 84 43
f 81 43 39
f 81 84 85
f 81 85 82
f 40 83 86
f 40 86 44
f 84 87 47
f 84 47 43
f 84 87 88
f 84 88 85
f 44 86 89
f 44 89 48
f 87 90 52
f 87 52 47
f 90 52 91
f 90 91 92
f 87 90 92
f 87 92 88
f 52 51 93
f 52 93 91
f 48 89 93
f 48 93 51
f 55 94 95
f 55 95 56
f 55 57 96
f 55 96 94
f 56 95 97
f 56 97 58
f 58 97 98
f 58 98 59
f 57 61 99
f 57 99 96
f 59 98 100
f 59 100 62
f 61 64 101
f 61 101 99
f 62 100 102
f 62 102 65
f 64 67 103
f 64 103 101
f 65 102 104
f 65 104 68
f 67 70 105
f 67 105 103
f 68 104 106
f 68 106 71
f 70 73 107
f 70 107 105
f 71 106 108
f 71 108 74
f 73 76 109
f 73 109 107
f 74 108 110
f 74 110 77
f 76 79 111
f 76 111 109
f 77 110 112
f 77 112 80
f 79 82 113
f 79 113 111
f 80 112 114
f 80 114 83
f 82 85 115
f 82 115 113
f 83 114 116
f 83 116 86
f 85 88 117
f 85 117 115
f 86 116 118
f 86 118 89
f 92 91 119
f 92 119 120
f 88 92 120
f 88 120 117
f 91 93 121
f 91 121 119
f 89 118 121
f 89 121 93
f 94 122 123
f 94 123 95
f 94 96 124
f 94 124 122
f 95 123 125
f 95 125 97
f 97 125 126
f 97 126 98
f 96 99 127
f 96 127 124
f 98 126 128
f 98 128 100
f 99 101 129
f 99 129 127
f 100 128 130
f 100 130 102
f 101 103 131
f 101 131 129
f 102 130 132
f 102 132 104
f 103 105 133
f 103 133 131
f 104 132 134
f 104 134 106
f 105 107 135
f 105 135 133
f 106 134 136
f 106 136 108
f 107 109 137
f 107 137 135
f 108 136 138
f 108 138 110
f 109 111 139
f 109 139 137
f 110 138 140
f 110 140 112
f 111 113 141
f 111 141 139
f 112 140 142
f 112 142 114
f 113 115 143
f 113 143 141
f 114 142 144
f 114 144 116
f 115 117 145
f 115 145 143
f 116 144 146
f 116 146 118
f 120 119 147
f 120 147 148
f 117 120 148
f 117 148 145
f 119 121 149
f 119 149 147
f 118 146 149
f 118 149 121
f 122 150 151
f 122 151 123
f 122 124 152
f 122 152 150
f 123 151 153
f 123 153 125
f 125 153 154
f 125 154 126
f 124 127 155
f 124 155 152
f 126 154 156
f 126 156 128
f 127 129 157
f 127 157 155
f 128 156 158
f 128 158 130
f 129 131 159
f 129 159 157
f 130 158 160
f 130 160 132
f 131 133 161
f 131 161 159
f 132 160 162
f 132 162 134
f 133 135 163
f 133 163 161
f 134 162 164
f 134 164 136
f 135 137 165
f 135 165 163
f 136 164 166
f 136 166 138
f 137 139 167
f 137 167 165
f 138 166 168
f 138 168 140
f 139 141 169
f 139 169 167
f 140 168 170
f 140 170 142
f 141 143 171
f 141 171 169
f 142 170 172
f 142 172 144
f 143 145 173
f 143 173 171
f 144 172 174
f 144 174 146
f 148 147 175
f 148 175 176
f 145 148 176
f 145 176 173
f 147 149 177
f 147 177 175
f 146 174 177
f 146 177 149
f 150 178 179
f 150 179 151
f 150 152 180
f 150 180 178
f 151 179 181
f 151 181 153
f 153 181 182
f 153 182 154
f 152 155 183
f 152 183 180
f 154 182 184
f 154 184 156
f 155 157 185
f 155 185 183
f 156 184 186
f 156 186 158
f 157 159 187
f 157 187 185
f 158 186 188
f 158 188 160
f 159 161 189
f 159 189 187
f 160 188 190
f 160 190 162
f 161 163 191
f 161 191 189
f 162 190 192
f 162 192 164
f 163 165 193
f 163 193 191
f 164 192 194
f 164 194 166
f 165 167 195
f 165 195 193
f 166 194 196
f 166 196 168
f 167 169 197
f 167 197 195
f 168 196 198
f 168 198 170
f 169 171 199
f 169 199 197
f 170 198 200
f 170 200 172
f 171 173 201
f 171 201 199
f 172 200 202
f 172 202 174
f 176 175 203
f 176 203 204
f 173 176 204
f 173 204 201
f 175 177 205
f 175 205 203
f 174 202 205
f 174 205 177
f 178 206 207
f 178 207 179
f 178 180 208
f 178 208 206
f 179 207 209
f 179 209 181
f 181 209 210
f 181 210 182
f 180 183 211
f 180 211 208
f 182 210 212
f 182 212 184
f 183 185 213
f 183 213 211
f 184 212 214
f 184 214 186
f 185 187 215
f 185 215 213
f 186 214 216
f 186 216 188
f 187 189 217
f 187 217 215
f 188 216 218
f 188 218 190
f 189 191 219
f 189 219 217
f 190 218 220
f 190 220 192
f 191 193 221
f 191 221 219
f 192 220 222
f 192 222 194
f 193 195 223
f 193 223 221
f 194 222 224
f 194 224 196
f 195 197 225
f 195 225 223
f 196 224 226
f 196 226 198
f 197 199 227
f 197 227 225
f 198 226 228
f 198 228 200
f 199 201 229
f 199 229 227
f 200 228 230
f 200 230 202
f 204 203 231
f 204 231 232
f 201 204 232
f 201 232 229
f 203 205 233
f 203 233 231
f 202 230 233
f 202 233 205
f 206 234 235
f 206 235 207
f 206 208 236
f 206 236 234
f 207 235 237
f 207 237 209
f 209 237 238
f 209 238 210
f 208 211 239
f 208 239 236
f 210 238 240
f 210 240 212
f 211 213 241
f 211 241 239
f 212 240 242
f 212 242 214
f 213 215 243
f 213 243 241
f 214 242 244
f 214 244 216
f 215 217 245
f 215 245 243
f 216 244 246
f 216 246 218
f 217 219 247
f 217 247 245
f 218 246 248
f 218 248 220
f 219 221 249
f 219 249 247
f 220 248 250
f 220 250 222
f 221 223 251
f 221 251 249
f 222 250 252
f 222 252 224
f 223 225 253
f 223 253 251
f 224 252 254
f 224 254 226
f 225 227 255
f 225 255 253
f 226 254 256
f 226 256 228
f 227 229 257
f 227 257 255
f 228 256 258
f 228 258 230
f 232 231 259
f 232 259 260
f 229 232 260
f 229 260 257
f 231 233 261
f 231 261 259
f 230 258 261
f 230 261 233
f 234 262 263
f 234 263 235
f 234 236 264
f 234 264 262
f 235 263 265
f 235 265 237
f 237 265 266
f 237 266 238
f 236 239 267
f 236 267 264
f 238 266 268
f 238 268 240
f 239 241 269
f 239 269 267
f 240 268 270
f 240 270 242
f 241 243 271
f 241 271 269
f 242 270 272
f 242 272 244
f 243 245 273
f 243 273 271
f 244 272 274
f 244 274 246
f 245 247 275
f 245 275 273
f 246 274 276
f 246 276 248
f 247 249 277
f 247 277 275
f 248 276 278
f 248 278 250
f 249 251 279
f 249 279 277
f 250 278 280
f 250 280 252
f 251 253 281
f 251 281 279
f 252 280 282
f 252 282 254
f 253 255 283
f 253 283 281
f 254 282 284
f 254 284 256
f 255 257 285
f 255 285 283
f 256 284 286
f 256 286 258
f 260 259 287
f 260 287 288
f 257 260 288
f 257 288 285
f 259 261 289
f 259 289 287
f 258 286 289
f 258 289 261
f 262 290 291
f 262 291 263
f 262 264 292
f 262 292 290
f 263 291 293
f 263 293 265
f 265 293 294
f 265 294 266
f 264 267 295
f 264 295 292
f 266 294 296
f 266 296 268
f 267 269 297
f 267 297 295
f 268 296 298
f 268 298 270
f 269 271 299
f 269 299 297
f 270 298 300
f 270 300 272
f 271 273 301
f 271 301 299
f 272 300 302
f 272 302 274
f 273 275 303
f 273 303 301
f 274 302 304
f 274 304 276
f 275 277 305
f 275 305 303
f 276 304 306
f 276 306 278
f 277 279 307
f 277 307 305
f 278 306 308
f 278 308 280
f 279 281 309
f 279 309 307
f 280 308 310
f 280 310 282
f 281 283 311
f 281 311 309
f 282 310 312
f 282 312 284
f 283 285 313
f 283 313 311
f 284 312 314
f 284 314 286
f 288 287 315
f 288 315 316
f 285 288 316
f 285 316 313
f 287 289 317
f 287 317 315
f 286 314 317
f 286 317 289
f 290 318 319
f 290 319 291
f 290 292 320
f 290 320 318
f 291 319 321
f 291 321 293
f 293 321 322
f 293 322 294
f 292 295 323
f 292 323 320
f 294 322 324
f 294 324 296
f 295 297 325
f 295 325 323
f 296 324 326
f 296 326 298
f 297 299 327
f 297 327 325
f 298 326 328
f 298 328 300
f 299 301 329
f 299 329 327
f 300 328 330
f 300 330 302
f 301 303 331
f 301 331 329
f 302 330 332
f 302 332 304
f 303 305 333
f 303 333 331
f 304 332 334
f 304 334 306
f 305 307 335
f 305 335 333
f 306 334 336
f 306 336 308
f 307 309 337
f 307 337 335
f 308 336 338
f 308 338 310
f 309 311 339
f 309 339 337
f 310 338 340
f 310 340 312
f 311 313 341
f 311 341 339
f 312 340 342
f 312 342 314
f 316 315 343
f 316 343 344
f 313 316 344
f 313 344 341
f 315 317 345
f 315 345 343
f 314 342 345
f 314 345 317
f 318 346 347
f 318 347 319
f 318 320 348
f 318 348 346
f 319 347 349
f 319 349 321
f 321 349 350
f 321 350 322
f 320 323 351
f 320 351 348
f 322 350 352
f 322 352 324
f 323 325 353
f 323 353 351
f 324 352 354
f 324 354 326
f 325 327 355
f 325 355 353
f 326 354 356
f 326 356 328
f 327 329 357
f 327 357 355
f 328 356 358
f 328 358 330
f 329 331 359
f 329 359 357
f 330 358 360
f 330 360 332
f 331 333 361
f 331 361 359
f 332 360 362
f 332 362 334
f 333 335 363
f 333 363 361
f 334 362 364
f 334 364 336
f 335 337 365
f 335 365 363
f 336 364 366
f 336 366 338
f 337 339 367
f 337 367 365
f 338 366 368
f 338 368 340
f 339 341 369
f 339 369 367
f 340 368 370
f 340 370 342
f 344 343 371
f 344 371 372
f 341 344 372
f 341 372 369
f 343 345 373
f 343 373 371
f 342 370 373
f 342 373 345
f 374 375 376
f 374 376 377
f 346 374 375
f 346 375 347
f 346 348 377
f 346 377 374
f 375 378 379
f 375 379 376
f 347 375 378
f 347 378 349
f 349 378 379
f 349 379 350
f 377 376 380
f 377 380 381
f 348 351 381
f 348 381 377
f 376 379 382
f 376 382 380
f 350 379 382
f 350 382 352
f 381 380 383
f 381 383 384
f 351 353 384
f 351 384 381
f 380 382 385
f 380 385 383
f 352 382 385
f 352 385 354
f 384 383 386
f 384 386 387
f 353 355 387
f 353 387 384
f 383 385 388
f 383 388 386
f 354 385 388
f 354 388 356
f 387 386 389
f 387 389 390
f 355 357 390
f 355 390 387
f 386 388 391
f 386 391 389
f 356 388 391
f 356 391 358
f 390 389 392
f 390 392 393
f 357 359 393
f 357 393 390
f 389 391 394
f 389 394 392
f 358 391 394
f 358 394 360
f 393 392 395
f 393 395 396
f 359 361 396
f 359 396 393
f 392 394 397
f 392 397 395
f 360 394 397
f 360 397 362
f 396 395 398
f 396 398 399
f 361 363 399
f 361 399 396
f 395 397 400
f 395 400 398
f 362 397 400
f 362 400 364
f 399 398 401
f 399 401 402
f 363 365 402
f 363 402 399
f 398 400 403
f 398 403 401
f 364 400 403
f 364 403 366
f 402 401 404
f 402 404 405
f 365 367 405
f 365 405 402
f 401 403 406
f 401 406 404
f 366 403 406
f 366 406 368
f 405 404 407
f 405 407 408
f 367 369 408
f 367 408 405
f 404 406 409
f 404 409 407
f 368 406 409
f 368 409 370
f 408 407 410
f 408 410 411
f 372 371 410
f 372 410 411
f 369 372 411
f 369 411 408
f 407 409 412
f 407 412 410
f 371 373 412
f 371 412 410
f 370 409 412
f 370 412 373
