o JSONmeth_421
v 23.585776 7.584052 9.000000
v 23.585776 7.750431 9.000000
v 23.585776 7.750431 11.000000
v 23.585776 7.584052 11.000000
v 23.752156 7.584052 9.000000
v 23.752156 7.584052 11.000000
v 23.752156 7.750431 9.000000
v 23.585776 7.750431 13.000000
v 23.585776 7.584052 13.000000
v 23.752156 7.584052 13.000000
v 23.585776 7.750431 15.000000
v 23.585776 7.584052 15.000000
v 23.752156 7.584052 15.000000
v 23.585776 7.750431 17.000000
v 23.585776 7.584052 17.000000
v 23.752156 7.584052 17.000000
v 23.585776 7.750431 19.000000
v 23.585776 7.584052 19.000000
v 23.752156 7.584052 19.000000
v 23.585776 7.750431 21.000000
v 23.585776 7.584052 21.000000
v 23.752156 7.584052 21.000000
v 23.585776 7.750431 23.000000
v 23.585776 7.584052 23.000000
v 23.752156 7.584052 23.000000
v 23.585776 7.750431 25.000000
v 23.585776 7.584052 25.000000
v 23.752156 7.584052 25.000000
v 23.585776 7.750431 27.000000
v 23.585776 7.584052 27.000000
v 23.752156 7.584052 27.000000
v 23.585776 7.750431 29.000000
v 23.585776 7.584052 29.000000
v 23.752156 7.584052 29.000000
v 23.585776 7.750431 31.000000
v 23.585776 7.584052 31.000000
v 23.752156 7.584052 31.000000
v 23.585776 7.750431 33.000000
v 23.585776 7.584052 33.000000
v 23.752156 7.584052 33.000000
v 23.585776 7.750431 35.000000
v 23.585776 7.584052 35.000000
v 23.752156 7.584052 35.000000
v 23.585776 7.750431 37.000000
v 23.585776 7.584052 37.000000
v 23.752156 7.584052 37.000000
v 23.585776 7.750431 39.000000
v 23.585776 7.584052 39.000000
v 23.752156 7.584052 39.000000
v 23.585776 7.750431 41.000000
v 23.585776 7.584052 41.000000
v 23.752156 7.584052 41.000000
v 23.585776 7.750431 43.000000
v 23.585776 7.584052 43.000000
v 23.752156 7.584052 43.000000
v 23.752156 7.750431 43.000000
v 23.585776 7.916810 9.000000
v 23.585776 7.916810 11.000000
v 23.752156 7.916810 9.000000
v 23.585776 7.916810 13.000000
v 23.585776 7.916810 15.000000
v 23.585776 7.916810 17.000000
v 23.585776 7.916810 19.000000
v 23.585776 7.916810 21.000000
v 23.585776 7.916810 23.000000
v 23.585776 7.916810 25.000000
v 23.585776 7.916810 27.000000
v 23.585776 7.916810 29.000000
v 23.585776 7.916810 31.000000
v 23.585776 7.916810 33.000000
v 23.585776 7.916810 35.000000
v 23.585776 7.916810 37.000000
v 23.585776 7.916810 39.000000
v 23.585776 7.916810 41.000000
v 23.585776 7.916810 43.000000
v 23.752156 7.916810 43.000000
v 23.585776 8.083190 9.000000
v 23.585776 8.083190 11.000000
v 23.752156 8.083190 9.000000
v 23.585776 8.083190 13.000000
v 23.585776 8.083190 15.000000
v 23.585776 8.083190 17.000000
v 23.585776 8.083190 19.000000
v 23.585776 8.083190 21.000000
v 23.585776 8.083190 23.000000
v 23.585776 8.083190 25.000000
v 23.585776 8.083190 27.000000
v 23.585776 8.083190 29.000000
v 23.585776 8.083190 31.000000
v 23.585776 8.083190 33.000000
v 23.585776 8.083190 35.000000
v 23.585776 8.083190 37.000000
v 23.585776 8.083190 39.000000
v 23.585776 8.083190 41.000000
v 23.585776 8.083190 43.000000
v 23.752156 8.083190 43.000000
v 23.585776 8.249569 9.000000
v 23.585776 8.249569 11.000000
v 23.752156 8.249569 9.000000
v 23.585776 8.249569 13.000000
v 23.585776 8.249569 15.000000
v 23.585776 8.249569 17.000000
v 23.585776 8.249569 19.000000
v 23.585776 8.249569 21.000000
v 23.585776 8.249569 23.000000
v 23.585776 8.249569 25.000000
v 23.585776 8.249569 27.000000
v 23.585776 8.249569 29.000000
v 23.585776 8.249569 31.000000
v 23.585776 8.249569 33.000000
v 23.585776 8.249569 35.000000
v 23.585776 8.249569 37.000000
v 23.585776 8.249569 39.000000
v 23.585776 8.249569 41.000000
v 23.585776 8.249569 43.000000
v 23.752156 8.249569 43.000000
v 23.585776 8.415948 9.000000
v 23.585776 8.415948 11.000000
v 23.752156 8.415948 11.000000
v 23.752156 8.415948 9.000000
v 23.585776 8.415948 13.000000
v 23.752156 8.415948 13.000000
v 23.585776 8.415948 15.000000
v 23.752156 8.415948 15.000000
v 23.585776 8.415948 17.000000
v 23.752156 8.415948 17.000000
v 23.585776 8.415948 19.000000
v 23.752156 8.415948 19.000000
v 23.585776 8.415948 21.000000
v 23.752156 8.415948 21.000000
v 23.585776 8.415948 23.000000
v 23.752156 8.415948 23.000000
v 23.585776 8.415948 25.000000
v 23.752156 8.415948 25.000000
v 23.585776 8.415948 27.000000
v 23.752156 8.415948 27.000000
v 23.585776 8.415948 29.000000
v 23.752156 8.415948 29.000000
v 23.585776 8.415948 31.000000
v 23.752156 8.415948 31.000000
v 23.585776 8.415948 33.000000
v 23.752156 8.415948 33.000000
v 23.585776 8.415948 35.000000
v 23.752156 8.415948 35.000000
v 23.585776 8.415948 37.000000
v 23.752156 8.415948 37.000000
v 23.585776 8.415948 39.000000
v 23.752156 8.415948 39.000000
v 23.585776 8.415948 41.000000
v 23.752156 8.415948 41.000000
v 23.585776 8.415948 43.000000
v 23.752156 8.415948 43.000000
v 23.752156 7.251293 9.000000
v 23.752156 7.417673 9.000000
v 23.752156 7.417673 11.000000
v 23.752156 7.251293 11.000000
v 23.918535 7.251293 9.000000
v 23.918535 7.251293 11.000000
v 23.918535 7.417673 9.000000
v 23.752156 7.417673 13.000000
v 23.752156 7.251293 13.000000
v 23.918535 7.251293 13.000000
v 23.752156 7.417673 15.000000
v 23.752156 7.251293 15.000000
v 23.918535 7.251293 15.000000
v 23.752156 7.417673 17.000000
v 23.752156 7.251293 17.000000
v 23.918535 7.251293 17.000000
v 23.752156 7.417673 19.000000
v 23.752156 7.251293 19.000000
v 23.918535 7.251293 19.000000
v 23.752156 7.417673 21.000000
v 23.752156 7.251293 21.000000
v 23.918535 7.251293 21.000000
v 23.752156 7.417673 23.000000
v 23.752156 7.251293 23.000000
v 23.918535 7.251293 23.000000
v 23.752156 7.417673 25.000000
v 23.752156 7.251293 25.000000
v 23.918535 7.251293 25.000000
v 23.752156 7.417673 27.000000
v 23.752156 7.251293 27.000000
v 23.918535 7.251293 27.000000
v 23.752156 7.417673 29.000000
v 23.752156 7.251293 29.000000
v 23.918535 7.251293 29.000000
v 23.752156 7.417673 31.000000
v 23.752156 7.251293 31.000000
v 23.918535 7.251293 31.000000
v 23.752156 7.417673 33.000000
v 23.752156 7.251293 33.000000
v 23.918535 7.251293 33.000000
v 23.752156 7.417673 35.000000
v 23.752156 7.251293 35.000000
v 23.918535 7.251293 35.000000
v 23.752156 7.417673 37.000000
v 23.752156 7.251293 37.000000
v 23.918535 7.251293 37.000000
v 23.752156 7.417673 39.000000
v 23.752156 7.251293 39.000000
v 23.918535 7.251293 39.000000
v 23.752156 7.417673 41.000000
v 23.752156 7.251293 41.000000
v 23.918535 7.251293 41.000000
v 23.752156 7.417673 43.000000
v 23.752156 7.251293 43.000000
v 23.918535 7.251293 43.000000
v 23.918535 7.417673 43.000000
v 23.918535 7.584052 9.000000
v 23.918535 7.584052 43.000000
v 23.918535 7.750431 9.000000
v 23.918535 7.750431 43.000000
v 23.918535 7.916810 9.000000
v 23.918535 7.916810 43.000000
v 23.918535 8.083190 9.000000
v 23.918535 8.083190 43.000000
v 23.918535 8.249569 9.000000
v 23.918535 8.249569 43.000000
v 23.918535 8.415948 9.000000
v 23.918535 8.415948 43.000000
v 23.752156 8.582327 9.000000
v 23.752156 8.582327 11.000000
v 23.918535 8.582327 9.000000
v 23.752156 8.582327 13.000000
v 23.752156 8.582327 15.000000
v 23.752156 8.582327 17.000000
v 23.752156 8.582327 19.000000
v 23.752156 8.582327 21.000000
v 23.752156 8.582327 23.000000
v 23.752156 8.582327 25.000000
v 23.752156 8.582327 27.000000
v 23.752156 8.582327 29.000000
v 23.752156 8.582327 31.000000
v 23.752156 8.582327 33.000000
v 23.752156 8.582327 35.000000
v 23.752156 8.582327 37.000000
v 23.752156 8.582327 39.000000
v 23.752156 8.582327 41.000000
v 23.752156 8.582327 43.000000
v 23.918535 8.582327 43.000000
v 23.752156 8.748707 9.000000
v 23.752156 8.748707 11.000000
v 23.918535 8.748707 11.000000
v 23.918535 8.748707 9.000000
v 23.752156 8.748707 13.000000
v 23.918535 8.748707 13.000000
v 23.752156 8.748707 15.000000
v 23.918535 8.748707 15.000000
v 23.752156 8.748707 17.000000
v 23.918535 8.748707 17.000000
v 23.752156 8.748707 19.000000
v 23.918535 8.748707 19.000000
v 23.752156 8.748707 21.000000
v 23.918535 8.748707 21.000000
v 23.752156 8.748707 23.000000
v 23.918535 8.748707 23.000000
v 23.752156 8.748707 25.000000
v 23.918535 8.748707 25.000000
v 23.752156 8.748707 27.000000
v 23.918535 8.748707 27.000000
v 23.752156 8.748707 29.000000
v 23.918535 8.748707 29.000000
v 23.752156 8.748707 31.000000
v 23.918535 8.748707 31.000000
v 23.752156 8.748707 33.000000
v 23.918535 8.748707 33.000000
v 23.752156 8.748707 35.000000
v 23.918535 8.748707 35.000000
v 23.752156 8.748707 37.000000
v 23.918535 8.748707 37.000000
v 23.752156 8.748707 39.000000
v 23.918535 8.748707 39.000000
v 23.752156 8.748707 41.000000
v 23.918535 8.748707 41.000000
v 23.752156 8.748707 43.000000
v 23.918535 8.748707 43.000000
v 23.918535 6.918535 9.000000
v 23.918535 7.084914 9.000000
v 23.918535 7.084914 11.000000
v 23.918535 6.918535 11.000000
v 24.084914 6.918535 9.000000
v 24.084914 6.918535 11.000000
v 24.084914 7.084914 9.000000
v 23.918535 7.084914 13.000000
v 23.918535 6.918535 13.000000
v 24.084914 6.918535 13.000000
v 23.918535 7.084914 15.000000
v 23.918535 6.918535 15.000000
v 24.084914 6.918535 15.000000
v 23.918535 7.084914 17.000000
v 23.918535 6.918535 17.000000
v 24.084914 6.918535 17.000000
v 23.918535 7.084914 19.000000
v 23.918535 6.918535 19.000000
v 24.084914 6.918535 19.000000
v 23.918535 7.084914 21.000000
v 23.918535 6.918535 21.000000
v 24.084914 6.918535 21.000000
v 23.918535 7.084914 23.000000
v 23.918535 6.918535 23.000000
v 24.084914 6.918535 23.000000
v 23.918535 7.084914 25.000000
v 23.918535 6.918535 25.000000
v 24.084914 6.918535 25.000000
v 23.918535 7.084914 27.000000
v 23.918535 6.918535 27.000000
v 24.084914 6.918535 27.000000
v 23.918535 7.084914 29.000000
v 23.918535 6.918535 29.000000
v 24.084914 6.918535 29.000000
v 23.918535 7.084914 31.000000
v 23.918535 6.918535 31.000000
v 24.084914 6.918535 31.000000
v 23.918535 7.084914 33.000000
v 23.918535 6.918535 33.000000
v 24.084914 6.918535 33.000000
v 23.918535 7.084914 35.000000
v 23.918535 6.918535 35.000000
v 24.084914 6.918535 35.000000
v 23.918535 7.084914 37.000000
v 23.918535 6.918535 37.000000
v 24.084914 6.918535 37.000000
v 23.918535 7.084914 39.000000
v 23.918535 6.918535 39.000000
v 24.084914 6.918535 39.000000
v 23.918535 7.084914 41.000000
v 23.918535 6.918535 41.000000
v 24.084914 6.918535 41.000000
v 23.918535 7.084914 43.000000
v 23.918535 6.918535 43.000000
v 24.084914 6.918535 43.000000
v 24.084914 7.084914 43.000000
v 24.084914 7.251293 9.000000
v 24.084914 7.251293 43.000000
v 24.084914 7.417673 9.000000
v 24.084914 7.417673 43.000000
v 24.084914 7.584052 9.000000
v 24.084914 7.584052 43.000000
v 24.084914 7.750431 9.000000
v 24.084914 7.750431 43.000000
v 24.084914 7.916810 9.000000
v 24.084914 7.916810 43.000000
v 24.084914 8.083190 9.000000
v 24.084914 8.083190 43.000000
v 24.084914 8.249569 9.000000
v 24.084914 8.249569 43.000000
v 24.084914 8.415948 9.000000
v 24.084914 8.415948 43.000000
v 24.084914 8.582327 9.000000
v 24.084914 8.582327 43.000000
v 24.084914 8.748707 9.000000
v 24.084914 8.748707 43.000000
v 23.918535 8.915086 9.000000
v 23.918535 8.915086 11.000000
v 24.084914 8.915086 9.000000
v 23.918535 8.915086 13.000000
v 23.918535 8.915086 15.000000
v 23.918535 8.915086 17.000000
v 23.918535 8.915086 19.000000
v 23.918535 8.915086 21.000000
v 23.918535 8.915086 23.000000
v 23.918535 8.915086 25.000000
v 23.918535 8.915086 27.000000
v 23.918535 8.915086 29.000000
v 23.918535 8.915086 31.000000
v 23.918535 8.915086 33.000000
v 23.918535 8.915086 35.000000
v 23.918535 8.915086 37.000000
v 23.918535 8.915086 39.000000
v 23.918535 8.915086 41.000000
v 23.918535 8.915086 43.000000
v 24.084914 8.915086 43.000000
v 23.918535 9.081465 9.000000
v 23.918535 9.081465 11.000000
v 24.084914 9.081465 11.000000
v 24.084914 9.081465 9.000000
v 23.918535 9.081465 13.000000
v 24.084914 9.081465 13.000000
v 23.918535 9.081465 15.000000
v 24.084914 9.081465 15.000000
v 23.918535 9.081465 17.000000
v 24.084914 9.081465 17.000000
v 23.918535 9.081465 19.000000
v 24.084914 9.081465 19.000000
v 23.918535 9.081465 21.000000
v 24.084914 9.081465 21.000000
v 23.918535 9.081465 23.000000
v 24.084914 9.081465 23.000000
v 23.918535 9.081465 25.000000
v 24.084914 9.081465 25.000000
v 23.918535 9.081465 27.000000
v 24.084914 9.081465 27.000000
v 23.918535 9.081465 29.000000
v 24.084914 9.081465 29.000000
v 23.918535 9.081465 31.000000
v 24.084914 9.081465 31.000000
v 23.918535 9.081465 33.000000
v 24.084914 9.081465 33.000000
v 23.918535 9.081465 35.000000
v 24.084914 9.081465 35.000000
v 23.918535 9.081465 37.000000
v 24.084914 9.081465 37.000000
v 23.918535 9.081465 39.000000
v 24.084914 9.081465 39.000000
v 23.918535 9.081465 41.000000
v 24.084914 9.081465 41.000000
v 23.918535 9.081465 43.000000
v 24.084914 9.081465 43.000000
v 24.251293 6.918535 9.000000
v 24.251293 6.918535 11.000000
v 24.251293 7.084914 9.000000
v 24.251293 6.918535 13.000000
v 24.251293 6.918535 15.000000
v 24.251293 6.918535 17.000000
v 24.251293 6.918535 19.000000
v 24.251293 6.918535 21.000000
v 24.251293 6.918535 23.000000
v 24.251293 6.918535 25.000000
v 24.251293 6.918535 27.000000
v 24.251293 6.918535 29.000000
v 24.251293 6.918535 31.000000
v 24.251293 6.918535 33.000000
v 24.251293 6.918535 35.000000
v 24.251293 6.918535 37.000000
v 24.251293 6.918535 39.000000
v 24.251293 6.918535 41.000000
v 24.251293 6.918535 43.000000
v 24.251293 7.084914 43.000000
v 24.251293 7.251293 9.000000
v 24.251293 7.251293 43.000000
v 24.251293 7.417673 9.000000
v 24.251293 7.417673 43.000000
v 24.251293 7.584052 9.000000
v 24.251293 7.584052 43.000000
v 24.251293 7.750431 9.000000
v 24.251293 7.750431 43.000000
v 24.251293 7.916810 9.000000
v 24.251293 7.916810 43.000000
v 24.251293 8.083190 9.000000
v 24.251293 8.083190 43.000000
v 24.251293 8.249569 9.000000
v 24.251293 8.249569 43.000000
v 24.251293 8.415948 9.000000
v 24.251293 8.415948 43.000000
v 24.251293 8.582327 9.000000
v 24.251293 8.582327 43.000000
v 24.251293 8.748707 9.000000
v 24.251293 8.748707 43.000000
v 24.251293 8.915086 9.000000
v 24.251293 8.915086 43.000000
v 24.251293 9.081465 11.000000
v 24.251293 9.081465 9.000000
v 24.251293 9.081465 13.000000
v 24.251293 9.081465 15.000000
v 24.251293 9.081465 17.000000
v 24.251293 9.081465 19.000000
v 24.251293 9.081465 21.000000
v 24.251293 9.081465 23.000000
v 24.251293 9.081465 25.000000
v 24.251293 9.081465 27.000000
v 24.251293 9.081465 29.000000
v 24.251293 9.081465 31.000000
v 24.251293 9.081465 33.000000
v 24.251293 9.081465 35.000000
v 24.251293 9.081465 37.000000
v 24.251293 9.081465 39.000000
v 24.251293 9.081465 41.000000
v 24.251293 9.081465 43.000000
v 24.251293 6.752156 9.000000
v 24.251293 6.752156 11.000000
v 24.417673 6.752156 9.000000
v 24.417673 6.752156 11.000000
v 24.417673 6.918535 9.000000
v 24.251293 6.752156 13.000000
v 24.417673 6.752156 13.000000
v 24.251293 6.752156 15.000000
v 24.417673 6.752156 15.000000
v 24.251293 6.752156 17.000000
v 24.417673 6.752156 17.000000
v 24.251293 6.752156 19.000000
v 24.417673 6.752156 19.000000
v 24.251293 6.752156 21.000000
v 24.417673 6.752156 21.000000
v 24.251293 6.752156 23.000000
v 24.417673 6.752156 23.000000
v 24.251293 6.752156 25.000000
v 24.417673 6.752156 25.000000
v 24.251293 6.752156 27.000000
v 24.417673 6.752156 27.000000
v 24.251293 6.752156 29.000000
v 24.417673 6.752156 29.000000
v 24.251293 6.752156 31.000000
v 24.417673 6.752156 31.000000
v 24.251293 6.752156 33.000000
v 24.417673 6.752156 33.000000
v 24.251293 6.752156 35.000000
v 24.417673 6.752156 35.000000
v 24.251293 6.752156 37.000000
v 24.417673 6.752156 37.000000
v 24.251293 6.752156 39.000000
v 24.417673 6.752156 39.000000
v 24.251293 6.752156 41.000000
v 24.417673 6.752156 41.000000
v 24.251293 6.752156 43.000000
v 24.417673 6.752156 43.000000
v 24.417673 6.918535 43.000000
v 24.417673 7.084914 9.000000
v 24.417673 7.084914 43.000000
v 24.417673 7.251293 9.000000
v 24.417673 7.251293 43.000000
v 24.417673 7.417673 9.000000
v 24.417673 7.417673 43.000000
v 24.417673 7.584052 9.000000
v 24.417673 7.584052 43.000000
v 24.417673 7.750431 9.000000
v 24.417673 7.750431 43.000000
v 24.417673 7.916810 9.000000
v 24.417673 7.916810 43.000000
v 24.417673 8.083190 9.000000
v 24.417673 8.083190 43.000000
v 24.417673 8.249569 9.000000
v 24.417673 8.249569 43.000000
v 24.417673 8.415948 9.000000
v 24.417673 8.415948 43.000000
v 24.417673 8.582327 9.000000
v 24.417673 8.582327 43.000000
v 24.417673 8.748707 9.000000
v 24.417673 8.748707 43.000000
v 24.417673 8.915086 9.000000
v 24.417673 8.915086 43.000000
v 24.417673 9.081465 9.000000
v 24.417673 9.081465 43.000000
v 24.251293 9.247844 9.000000
v 24.251293 9.247844 11.000000
v 24.417673 9.247844 11.000000
v 24.417673 9.247844 9.000000
v 24.251293 9.247844 13.000000
v 24.417673 9.247844 13.000000
v 24.251293 9.247844 15.000000
v 24.417673 9.247844 15.000000
v 24.251293 9.247844 17.000000
v 24.417673 9.247844 17.000000
v 24.251293 9.247844 19.000000
v 24.417673 9.247844 19.000000
v 24.251293 9.247844 21.000000
v 24.417673 9.247844 21.000000
v 24.251293 9.247844 23.000000
v 24.417673 9.247844 23.000000
v 24.251293 9.247844 25.000000
v 24.417673 9.247844 25.000000
v 24.251293 9.247844 27.000000
v 24.417673 9.247844 27.000000
v 24.251293 9.247844 29.000000
v 24.417673 9.247844 29.000000
v 24.251293 9.247844 31.000000
v 24.417673 9.247844 31.000000
v 24.251293 9.247844 33.000000
v 24.417673 9.247844 33.000000
v 24.251293 9.247844 35.000000
v 24.417673 9.247844 35.000000
v 24.251293 9.247844 37.000000
v 24.417673 9.247844 37.000000
v 24.251293 9.247844 39.000000
v 24.417673 9.247844 39.000000
v 24.251293 9.247844 41.000000
v 24.417673 9.247844 41.000000
v 24.251293 9.247844 43.000000
v 24.417673 9.247844 43.000000
v 24.584052 6.752156 9.000000
v 24.584052 6.752156 11.000000
v 24.584052 6.918535 9.000000
v 24.584052 6.752156 13.000000
v 24.584052 6.752156 15.000000
v 24.584052 6.752156 17.000000
v 24.584052 6.752156 19.000000
v 24.584052 6.752156 21.000000
v 24.584052 6.752156 23.000000
v 24.584052 6.752156 25.000000
v 24.584052 6.752156 27.000000
v 24.584052 6.752156 29.000000
v 24.584052 6.752156 31.000000
v 24.584052 6.752156 33.000000
v 24.584052 6.752156 35.000000
v 24.584052 6.752156 37.000000
v 24.584052 6.752156 39.000000
v 24.584052 6.752156 41.000000
v 24.584052 6.752156 43.000000
v 24.584052 6.918535 43.000000
v 24.584052 7.084914 9.000000
v 24.584052 7.084914 43.000000
v 24.584052 7.251293 9.000000
v 24.584052 7.251293 43.000000
v 24.584052 7.417673 9.000000
v 24.584052 7.417673 43.000000
v 24.584052 7.584052 9.000000
v 24.584052 7.584052 43.000000
v 24.584052 7.750431 9.000000
v 24.584052 7.750431 43.000000
v 24.584052 7.916810 9.000000
v 24.584052 7.916810 43.000000
v 24.584052 8.083190 9.000000
v 24.584052 8.083190 43.000000
v 24.584052 8.249569 9.000000
v 24.584052 8.249569 43.000000
v 24.584052 8.415948 9.000000
v 24.584052 8.415948 43.000000
v 24.584052 8.582327 9.000000
v 24.584052 8.582327 43.000000
v 24.584052 8.748707 9.000000
v 24.584052 8.748707 43.000000
v 24.584052 8.915086 9.000000
v 24.584052 8.915086 43.000000
v 24.584052 9.081465 9.000000
v 24.584052 9.081465 43.000000
v 24.584052 9.247844 11.000000
v 24.584052 9.247844 9.000000
v 24.584052 9.247844 13.000000
v 24.584052 9.247844 15.000000
v 24.584052 9.247844 17.000000
v 24.584052 9.247844 19.000000
v 24.584052 9.247844 21.000000
v 24.584052 9.247844 23.000000
v 24.584052 9.247844 25.000000
v 24.584052 9.247844 27.000000
v 24.584052 9.247844 29.000000
v 24.584052 9.247844 31.000000
v 24.584052 9.247844 33.000000
v 24.584052 9.247844 35.000000
v 24.584052 9.247844 37.000000
v 24.584052 9.247844 39.000000
v 24.584052 9.247844 41.000000
v 24.584052 9.247844 43.000000
v 24.584052 6.585776 9.000000
v 24.584052 6.585776 11.000000
v 24.750431 6.585776 9.000000
v 24.750431 6.585776 11.000000
v 24.750431 6.752156 9.000000
v 24.584052 6.585776 13.000000
v 24.750431 6.585776 13.000000
v 24.584052 6.585776 15.000000
v 24.750431 6.585776 15.000000
v 24.584052 6.585776 17.000000
v 24.750431 6.585776 17.000000
v 24.584052 6.585776 19.000000
v 24.750431 6.585776 19.000000
v 24.584052 6.585776 21.000000
v 24.750431 6.585776 21.000000
v 24.584052 6.585776 23.000000
v 24.750431 6.585776 23.000000
v 24.584052 6.585776 25.000000
v 24.750431 6.585776 25.000000
v 24.584052 6.585776 27.000000
v 24.750431 6.585776 27.000000
v 24.584052 6.585776 29.000000
v 24.750431 6.585776 29.000000
v 24.584052 6.585776 31.000000
v 24.750431 6.585776 31.000000
v 24.584052 6.585776 33.000000
v 24.750431 6.585776 33.000000
v 24.584052 6.585776 35.000000
v 24.750431 6.585776 35.000000
v 24.584052 6.585776 37.000000
v 24.750431 6.585776 37.000000
v 24.584052 6.585776 39.000000
v 24.750431 6.585776 39.000000
v 24.584052 6.585776 41.000000
v 24.750431 6.585776 41.000000
v 24.584052 6.585776 43.000000
v 24.750431 6.585776 43.000000
v 24.750431 6.752156 43.000000
v 24.750431 6.918535 9.000000
v 24.750431 6.918535 43.000000
v 24.750431 7.084914 9.000000
v 24.750431 7.084914 43.000000
v 24.750431 7.251293 9.000000
v 24.750431 7.251293 43.000000
v 24.750431 7.417673 9.000000
v 24.750431 7.417673 43.000000
v 24.750431 7.584052 9.000000
v 24.750431 7.584052 43.000000
v 24.750431 7.750431 9.000000
v 24.750431 7.750431 43.000000
v 24.750431 7.916810 9.000000
v 24.750431 7.916810 43.000000
v 24.750431 8.083190 9.000000
v 24.750431 8.083190 43.000000
v 24.750431 8.249569 9.000000
v 24.750431 8.249569 43.000000
v 24.750431 8.415948 9.000000
v 24.750431 8.415948 43.000000
v 24.750431 8.582327 9.000000
v 24.750431 8.582327 43.000000
v 24.750431 8.748707 9.000000
v 24.750431 8.748707 43.000000
v 24.750431 8.915086 9.000000
v 24.750431 8.915086 43.000000
v 24.750431 9.081465 9.000000
v 24.750431 9.081465 43.000000
v 24.750431 9.247844 9.000000
v 24.750431 9.247844 43.000000
v 24.584052 9.414224 9.000000
v 24.584052 9.414224 11.000000
v 24.750431 9.414224 11.000000
v 24.750431 9.414224 9.000000
v 24.584052 9.414224 13.000000
v 24.750431 9.414224 13.000000
v 24.584052 9.414224 15.000000
v 24.750431 9.414224 15.000000
v 24.584052 9.414224 17.000000
v 24.750431 9.414224 17.000000
v 24.584052 9.414224 19.000000
v 24.750431 9.414224 19.000000
v 24.584052 9.414224 21.000000
v 24.750431 9.414224 21.000000
v 24.584052 9.414224 23.000000
v 24.750431 9.414224 23.000000
v 24.584052 9.414224 25.000000
v 24.750431 9.414224 25.000000
v 24.584052 9.414224 27.000000
v 24.750431 9.414224 27.000000
v 24.584052 9.414224 29.000000
v 24.750431 9.414224 29.000000
v 24.584052 9.414224 31.000000
v 24.750431 9.414224 31.000000
v 24.584052 9.414224 33.000000
v 24.750431 9.414224 33.000000
v 24.584052 9.414224 35.000000
v 24.750431 9.414224 35.000000
v 24.584052 9.414224 37.000000
v 24.750431 9.414224 37.000000
v 24.584052 9.414224 39.000000
v 24.750431 9.414224 39.000000
v 24.584052 9.414224 41.000000
v 24.750431 9.414224 41.000000
v 24.584052 9.414224 43.000000
v 24.750431 9.414224 43.000000
v 24.916810 6.585776 9.000000
v 24.916810 6.585776 11.000000
v 24.916810 6.752156 9.000000
v 24.916810 6.585776 13.000000
v 24.916810 6.585776 15.000000
v 24.916810 6.585776 17.000000
v 24.916810 6.585776 19.000000
v 24.916810 6.585776 21.000000
v 24.916810 6.585776 23.000000
v 24.916810 6.585776 25.000000
v 24.916810 6.585776 27.000000
v 24.916810 6.585776 29.000000
v 24.916810 6.585776 31.000000
v 24.916810 6.585776 33.000000
v 24.916810 6.585776 35.000000
v 24.916810 6.585776 37.000000
v 24.916810 6.585776 39.000000
v 24.916810 6.585776 41.000000
v 24.916810 6.585776 43.000000
v 24.916810 6.752156 43.000000
v 24.916810 6.918535 9.000000
v 24.916810 6.918535 43.000000
v 24.916810 7.084914 9.000000
v 24.916810 7.084914 43.000000
v 24.916810 7.251293 9.000000
v 24.916810 7.251293 43.000000
v 24.916810 7.417673 9.000000
v 24.916810 7.417673 43.000000
v 24.916810 7.584052 9.000000
v 24.916810 7.584052 43.000000
v 24.916810 7.750431 9.000000
v 24.916810 7.750431 43.000000
v 24.916810 7.916810 9.000000
v 24.916810 7.916810 43.000000
v 24.916810 8.083190 9.000000
v 24.916810 8.083190 43.000000
v 24.916810 8.249569 9.000000
v 24.916810 8.249569 43.000000
v 24.916810 8.415948 9.000000
v 24.916810 8.415948 43.000000
v 24.916810 8.582327 9.000000
v 24.916810 8.582327 43.000000
v 24.916810 8.748707 9.000000
v 24.916810 8.748707 43.000000
v 24.916810 8.915086 9.000000
v 24.916810 8.915086 43.000000
v 24.916810 9.081465 9.000000
v 24.916810 9.081465 43.000000
v 24.916810 9.247844 9.000000
v 24.916810 9.247844 43.000000
v 24.916810 9.414224 11.000000
v 24.916810 9.414224 9.000000
v 24.916810 9.414224 13.000000
v 24.916810 9.414224 15.000000
v 24.916810 9.414224 17.000000
v 24.916810 9.414224 19.000000
v 24.916810 9.414224 21.000000
v 24.916810 9.414224 23.000000
v 24.916810 9.414224 25.000000
v 24.916810 9.414224 27.000000
v 24.916810 9.414224 29.000000
v 24.916810 9.414224 31.000000
v 24.916810 9.414224 33.000000
v 24.916810 9.414224 35.000000
v 24.916810 9.414224 37.000000
v 24.916810 9.414224 39.000000
v 24.916810 9.414224 41.000000
v 24.916810 9.414224 43.000000
v 25.083190 6.585776 9.000000
v 25.083190 6.585776 11.000000
v 25.083190 6.752156 9.000000
v 25.083190 6.585776 13.000000
v 25.083190 6.585776 15.000000
v 25.083190 6.585776 17.000000
v 25.083190 6.585776 19.000000
v 25.083190 6.585776 21.000000
v 25.083190 6.585776 23.000000
v 25.083190 6.585776 25.000000
v 25.083190 6.585776 27.000000
v 25.083190 6.585776 29.000000
v 25.083190 6.585776 31.000000
v 25.083190 6.585776 33.000000
v 25.083190 6.585776 35.000000
v 25.083190 6.585776 37.000000
v 25.083190 6.585776 39.000000
v 25.083190 6.585776 41.000000
v 25.083190 6.585776 43.000000
v 25.083190 6.752156 43.000000
v 25.083190 6.918535 9.000000
v 25.083190 6.918535 43.000000
v 25.083190 7.084914 9.000000
v 25.083190 7.084914 43.000000
v 25.083190 7.251293 9.000000
v 25.083190 7.251293 43.000000
v 25.083190 7.417673 9.000000
v 25.083190 7.417673 43.000000
v 25.083190 7.584052 9.000000
v 25.083190 7.584052 43.000000
v 25.083190 7.750431 9.000000
v 25.083190 7.750431 43.000000
v 25.083190 7.916810 9.000000
v 25.083190 7.916810 43.000000
v 25.083190 8.083190 9.000000
v 25.083190 8.083190 43.000000
v 25.083190 8.249569 9.000000
v 25.083190 8.249569 43.000000
v 25.083190 8.415948 9.000000
v 25.083190 8.415948 43.000000
v 25.083190 8.582327 9.000000
v 25.083190 8.582327 43.000000
v 25.083190 8.748707 9.000000
v 25.083190 8.748707 43.000000
v 25.083190 8.915086 9.000000
v 25.083190 8.915086 43.000000
v 25.083190 9.081465 9.000000
v 25.083190 9.081465 43.000000
v 25.083190 9.247844 9.000000
v 25.083190 9.247844 43.000000
v 25.083190 9.414224 11.000000
v 25.083190 9.414224 9.000000
v 25.083190 9.414224 13.000000
v 25.083190 9.414224 15.000000
v 25.083190 9.414224 17.000000
v 25.083190 9.414224 19.000000
v 25.083190 9.414224 21.000000
v 25.083190 9.414224 23.000000
v 25.083190 9.414224 25.000000
v 25.083190 9.414224 27.000000
v 25.083190 9.414224 29.000000
v 25.083190 9.414224 31.000000
v 25.083190 9.414224 33.000000
v 25.083190 9.414224 35.000000
v 25.083190 9.414224 37.000000
v 25.083190 9.414224 39.000000
v 25.083190 9.414224 41.000000
v 25.083190 9.414224 43.000000
v 25.249569 6.585776 9.000000
v 25.249569 6.585776 11.000000
v 25.249569 6.752156 9.000000
v 25.249569 6.585776 13.000000
v 25.249569 6.585776 15.000000
v 25.249569 6.585776 17.000000
v 25.249569 6.585776 19.000000
v 25.249569 6.585776 21.000000
v 25.249569 6.585776 23.000000
v 25.249569 6.585776 25.000000
v 25.249569 6.585776 27.000000
v 25.249569 6.585776 29.000000
v 25.249569 6.585776 31.000000
v 25.249569 6.585776 33.000000
v 25.249569 6.585776 35.000000
v 25.249569 6.585776 37.000000
v 25.249569 6.585776 39.000000
v 25.249569 6.585776 41.000000
v 25.249569 6.585776 43.000000
v 25.249569 6.752156 43.000000
v 25.249569 6.918535 9.000000
v 25.249569 6.918535 43.000000
v 25.249569 7.084914 9.000000
v 25.249569 7.084914 43.000000
v 25.249569 7.251293 9.000000
v 25.249569 7.251293 43.000000
v 25.249569 7.417673 9.000000
v 25.249569 7.417673 43.000000
v 25.249569 7.584052 9.000000
v 25.249569 7.584052 43.000000
v 25.249569 7.750431 9.000000
v 25.249569 7.750431 43.000000
v 25.249569 7.916810 9.000000
v 25.249569 7.916810 43.000000
v 25.249569 8.083190 9.000000
v 25.249569 8.083190 43.000000
v 25.249569 8.249569 9.000000
v 25.249569 8.249569 43.000000
v 25.249569 8.415948 9.000000
v 25.249569 8.415948 43.000000
v 25.249569 8.582327 9.000000
v 25.249569 8.582327 43.000000
v 25.249569 8.748707 9.000000
v 25.249569 8.748707 43.000000
v 25.249569 8.915086 9.000000
v 25.249569 8.915086 43.000000
v 25.249569 9.081465 9.000000
v 25.249569 9.081465 43.000000
v 25.249569 9.247844 9.000000
v 25.249569 9.247844 43.000000
v 25.249569 9.414224 11.000000
v 25.249569 9.414224 9.000000
v 25.249569 9.414224 13.000000
v 25.249569 9.414224 15.000000
v 25.249569 9.414224 17.000000
v 25.249569 9.414224 19.000000
v 25.249569 9.414224 21.000000
v 25.249569 9.414224 23.000000
v 25.249569 9.414224 25.000000
v 25.249569 9.414224 27.000000
v 25.249569 9.414224 29.000000
v 25.249569 9.414224 31.000000
v 25.249569 9.414224 33.000000
v 25.249569 9.414224 35.000000
v 25.249569 9.414224 37.000000
v 25.249569 9.414224 39.000000
v 25.249569 9.414224 41.000000
v 25.249569 9.414224 43.000000
v 25.415948 6.585776 9.000000
v 25.415948 6.585776 11.000000
v 25.415948 6.752156 11.000000
v 25.415948 6.752156 9.000000
v 25.415948 6.585776 13.000000
v 25.415948 6.752156 13.000000
v 25.415948 6.585776 15.000000
v 25.415948 6.752156 15.000000
v 25.415948 6.585776 17.000000
v 25.415948 6.752156 17.000000
v 25.415948 6.585776 19.000000
v 25.415948 6.752156 19.000000
v 25.415948 6.585776 21.000000
v 25.415948 6.752156 21.000000
v 25.415948 6.585776 23.000000
v 25.415948 6.752156 23.000000
v 25.415948 6.585776 25.000000
v 25.415948 6.752156 25.000000
v 25.415948 6.585776 27.000000
v 25.415948 6.752156 27.000000
v 25.415948 6.585776 29.000000
v 25.415948 6.752156 29.000000
v 25.415948 6.585776 31.000000
v 25.415948 6.752156 31.000000
v 25.415948 6.585776 33.000000
v 25.415948 6.752156 33.000000
v 25.415948 6.585776 35.000000
v 25.415948 6.752156 35.000000
v 25.415948 6.585776 37.000000
v 25.415948 6.752156 37.000000
v 25.415948 6.585776 39.000000
v 25.415948 6.752156 39.000000
v 25.415948 6.585776 41.000000
v 25.415948 6.752156 41.000000
v 25.415948 6.585776 43.000000
v 25.415948 6.752156 43.000000
v 25.415948 6.918535 9.000000
v 25.415948 6.918535 43.000000
v 25.415948 7.084914 9.000000
v 25.415948 7.084914 43.000000
v 25.415948 7.251293 9.000000
v 25.415948 7.251293 43.000000
v 25.415948 7.417673 9.000000
v 25.415948 7.417673 43.000000
v 25.415948 7.584052 9.000000
v 25.415948 7.584052 43.000000
v 25.415948 7.750431 9.000000
v 25.415948 7.750431 43.000000
v 25.415948 7.916810 9.000000
v 25.415948 7.916810 43.000000
v 25.415948 8.083190 9.000000
v 25.415948 8.083190 43.000000
v 25.415948 8.249569 9.000000
v 25.415948 8.249569 43.000000
v 25.415948 8.415948 9.000000
v 25.415948 8.415948 43.000000
v 25.415948 8.582327 9.000000
v 25.415948 8.582327 43.000000
v 25.415948 8.748707 9.000000
v 25.415948 8.748707 43.000000
v 25.415948 8.915086 9.000000
v 25.415948 8.915086 43.000000
v 25.415948 9.081465 9.000000
v 25.415948 9.081465 43.000000
v 25.415948 9.247844 9.000000
v 25.415948 9.247844 43.000000
v 25.415948 9.247844 11.000000
v 25.415948 9.414224 11.000000
v 25.415948 9.414224 9.000000
v 25.415948 9.247844 13.000000
v 25.415948 9.414224 13.000000
v 25.415948 9.247844 15.000000
v 25.415948 9.414224 15.000000
v 25.415948 9.247844 17.000000
v 25.415948 9.414224 17.000000
v 25.415948 9.247844 19.000000
v 25.415948 9.414224 19.000000
v 25.415948 9.247844 21.000000
v 25.415948 9.414224 21.000000
v 25.415948 9.247844 23.000000
v 25.415948 9.414224 23.000000
v 25.415948 9.247844 25.000000
v 25.415948 9.414224 25.000000
v 25.415948 9.247844 27.000000
v 25.415948 9.414224 27.000000
v 25.415948 9.247844 29.000000
v 25.415948 9.414224 29.000000
v 25.415948 9.247844 31.000000
v 25.415948 9.414224 31.000000
v 25.415948 9.247844 33.000000
v 25.415948 9.414224 33.000000
v 25.415948 9.247844 35.000000
v 25.415948 9.414224 35.000000
v 25.415948 9.247844 37.000000
v 25.415948 9.414224 37.000000
v 25.415948 9.247844 39.000000
v 25.415948 9.414224 39.000000
v 25.415948 9.247844 41.000000
v 25.415948 9.414224 41.000000
v 25.415948 9.414224 43.000000
v 25.582327 6.752156 9.000000
v 25.582327 6.752156 11.000000
v 25.582327 6.918535 9.000000
v 25.582327 6.752156 13.000000
v 25.582327 6.752156 15.000000
v 25.582327 6.752156 17.000000
v 25.582327 6.752156 19.000000
v 25.582327 6.752156 21.000000
v 25.582327 6.752156 23.000000
v 25.582327 6.752156 25.000000
v 25.582327 6.752156 27.000000
v 25.582327 6.752156 29.000000
v 25.582327 6.752156 31.000000
v 25.582327 6.752156 33.000000
v 25.582327 6.752156 35.000000
v 25.582327 6.752156 37.000000
v 25.582327 6.752156 39.000000
v 25.582327 6.752156 41.000000
v 25.582327 6.752156 43.000000
v 25.582327 6.918535 43.000000
v 25.582327 7.084914 9.000000
v 25.582327 7.084914 43.000000
v 25.582327 7.251293 9.000000
v 25.582327 7.251293 43.000000
v 25.582327 7.417673 9.000000
v 25.582327 7.417673 43.000000
v 25.582327 7.584052 9.000000
v 25.582327 7.584052 43.000000
v 25.582327 7.750431 9.000000
v 25.582327 7.750431 43.000000
v 25.582327 7.916810 9.000000
v 25.582327 7.916810 43.000000
v 25.582327 8.083190 9.000000
v 25.582327 8.083190 43.000000
v 25.582327 8.249569 9.000000
v 25.582327 8.249569 43.000000
v 25.582327 8.415948 9.000000
v 25.582327 8.415948 43.000000
v 25.582327 8.582327 9.000000
v 25.582327 8.582327 43.000000
v 25.582327 8.748707 9.000000
v 25.582327 8.748707 43.000000
v 25.582327 8.915086 9.000000
v 25.582327 8.915086 43.000000
v 25.582327 9.081465 9.000000
v 25.582327 9.081465 43.000000
v 25.582327 9.247844 11.000000
v 25.582327 9.247844 9.000000
v 25.582327 9.247844 13.000000
v 25.582327 9.247844 15.000000
v 25.582327 9.247844 17.000000
v 25.582327 9.247844 19.000000
v 25.582327 9.247844 21.000000
v 25.582327 9.247844 23.000000
v 25.582327 9.247844 25.000000
v 25.582327 9.247844 27.000000
v 25.582327 9.247844 29.000000
v 25.582327 9.247844 31.000000
v 25.582327 9.247844 33.000000
v 25.582327 9.247844 35.000000
v 25.582327 9.247844 37.000000
v 25.582327 9.247844 39.000000
v 25.582327 9.247844 41.000000
v 25.582327 9.247844 43.000000
v 25.748707 6.752156 9.000000
v 25.748707 6.752156 11.000000
v 25.748707 6.918535 11.000000
v 25.748707 6.918535 9.000000
v 25.748707 6.752156 13.000000
v 25.748707 6.918535 13.000000
v 25.748707 6.752156 15.000000
v 25.748707 6.918535 15.000000
v 25.748707 6.752156 17.000000
v 25.748707 6.918535 17.000000
v 25.748707 6.752156 19.000000
v 25.748707 6.918535 19.000000
v 25.748707 6.752156 21.000000
v 25.748707 6.918535 21.000000
v 25.748707 6.752156 23.000000
v 25.748707 6.918535 23.000000
v 25.748707 6.752156 25.000000
v 25.748707 6.918535 25.000000
v 25.748707 6.752156 27.000000
v 25.748707 6.918535 27.000000
v 25.748707 6.752156 29.000000
v 25.748707 6.918535 29.000000
v 25.748707 6.752156 31.000000
v 25.748707 6.918535 31.000000
v 25.748707 6.752156 33.000000
v 25.748707 6.918535 33.000000
v 25.748707 6.752156 35.000000
v 25.748707 6.918535 35.000000
v 25.748707 6.752156 37.000000
v 25.748707 6.918535 37.000000
v 25.748707 6.752156 39.000000
v 25.748707 6.918535 39.000000
v 25.748707 6.752156 41.000000
v 25.748707 6.918535 41.000000
v 25.748707 6.752156 43.000000
v 25.748707 6.918535 43.000000
v 25.748707 7.084914 9.000000
v 25.748707 7.084914 43.000000
v 25.748707 7.251293 9.000000
v 25.748707 7.251293 43.000000
v 25.748707 7.417673 9.000000
v 25.748707 7.417673 43.000000
v 25.748707 7.584052 9.000000
v 25.748707 7.584052 43.000000
v 25.748707 7.750431 9.000000
v 25.748707 7.750431 43.000000
v 25.748707 7.916810 9.000000
v 25.748707 7.916810 43.000000
v 25.748707 8.083190 9.000000
v 25.748707 8.083190 43.000000
v 25.748707 8.249569 9.000000
v 25.748707 8.249569 43.000000
v 25.748707 8.415948 9.000000
v 25.748707 8.415948 43.000000
v 25.748707 8.582327 9.000000
v 25.748707 8.582327 43.000000
v 25.748707 8.748707 9.000000
v 25.748707 8.748707 43.000000
v 25.748707 8.915086 9.000000
v 25.748707 8.915086 43.000000
v 25.748707 9.081465 9.000000
v 25.748707 9.081465 43.000000
v 25.748707 9.081465 11.000000
v 25.748707 9.247844 11.000000
v 25.748707 9.247844 9.000000
v 25.748707 9.081465 13.000000
v 25.748707 9.247844 13.000000
v 25.748707 9.081465 15.000000
v 25.748707 9.247844 15.000000
v 25.748707 9.081465 17.000000
v 25.748707 9.247844 17.000000
v 25.748707 9.081465 19.000000
v 25.748707 9.247844 19.000000
v 25.748707 9.081465 21.000000
v 25.748707 9.247844 21.000000
v 25.748707 9.081465 23.000000
v 25.748707 9.247844 23.000000
v 25.748707 9.081465 25.000000
v 25.748707 9.247844 25.000000
v 25.748707 9.081465 27.000000
v 25.748707 9.247844 27.000000
v 25.748707 9.081465 29.000000
v 25.748707 9.247844 29.000000
v 25.748707 9.081465 31.000000
v 25.748707 9.247844 31.000000
v 25.748707 9.081465 33.000000
v 25.748707 9.247844 33.000000
v 25.748707 9.081465 35.000000
v 25.748707 9.247844 35.000000
v 25.748707 9.081465 37.000000
v 25.748707 9.247844 37.000000
v 25.748707 9.081465 39.000000
v 25.748707 9.247844 39.000000
v 25.748707 9.081465 41.000000
v 25.748707 9.247844 41.000000
v 25.748707 9.247844 43.000000
v 25.915086 6.918535 9.000000
v 25.915086 6.918535 11.000000
v 25.915086 7.084914 9.000000
v 25.915086 6.918535 13.000000
v 25.915086 6.918535 15.000000
v 25.915086 6.918535 17.000000
v 25.915086 6.918535 19.000000
v 25.915086 6.918535 21.000000
v 25.915086 6.918535 23.000000
v 25.915086 6.918535 25.000000
v 25.915086 6.918535 27.000000
v 25.915086 6.918535 29.000000
v 25.915086 6.918535 31.000000
v 25.915086 6.918535 33.000000
v 25.915086 6.918535 35.000000
v 25.915086 6.918535 37.000000
v 25.915086 6.918535 39.000000
v 25.915086 6.918535 41.000000
v 25.915086 6.918535 43.000000
v 25.915086 7.084914 43.000000
v 25.915086 7.251293 9.000000
v 25.915086 7.251293 43.000000
v 25.915086 7.417673 9.000000
v 25.915086 7.417673 43.000000
v 25.915086 7.584052 9.000000
v 25.915086 7.584052 43.000000
v 25.915086 7.750431 9.000000
v 25.915086 7.750431 43.000000
v 25.915086 7.916810 9.000000
v 25.915086 7.916810 43.000000
v 25.915086 8.083190 9.000000
v 25.915086 8.083190 43.000000
v 25.915086 8.249569 9.000000
v 25.915086 8.249569 43.000000
v 25.915086 8.415948 9.000000
v 25.915086 8.415948 43.000000
v 25.915086 8.582327 9.000000
v 25.915086 8.582327 43.000000
v 25.915086 8.748707 9.000000
v 25.915086 8.748707 43.000000
v 25.915086 8.915086 9.000000
v 25.915086 8.915086 43.000000
v 25.915086 9.081465 11.000000
v 25.915086 9.081465 9.000000
v 25.915086 9.081465 13.000000
v 25.915086 9.081465 15.000000
v 25.915086 9.081465 17.000000
v 25.915086 9.081465 19.000000
v 25.915086 9.081465 21.000000
v 25.915086 9.081465 23.000000
v 25.915086 9.081465 25.000000
v 25.915086 9.081465 27.000000
v 25.915086 9.081465 29.000000
v 25.915086 9.081465 31.000000
v 25.915086 9.081465 33.000000
v 25.915086 9.081465 35.000000
v 25.915086 9.081465 37.000000
v 25.915086 9.081465 39.000000
v 25.915086 9.081465 41.000000
v 25.915086 9.081465 43.000000
v 26.081465 6.918535 9.000000
v 26.081465 6.918535 11.000000
v 26.081465 7.084914 11.000000
v 26.081465 7.084914 9.000000
v 26.081465 6.918535 13.000000
v 26.081465 7.084914 13.000000
v 26.081465 6.918535 15.000000
v 26.081465 7.084914 15.000000
v 26.081465 6.918535 17.000000
v 26.081465 7.084914 17.000000
v 26.081465 6.918535 19.000000
v 26.081465 7.084914 19.000000
v 26.081465 6.918535 21.000000
v 26.081465 7.084914 21.000000
v 26.081465 6.918535 23.000000
v 26.081465 7.084914 23.000000
v 26.081465 6.918535 25.000000
v 26.081465 7.084914 25.000000
v 26.081465 6.918535 27.000000
v 26.081465 7.084914 27.000000
v 26.081465 6.918535 29.000000
v 26.081465 7.084914 29.000000
v 26.081465 6.918535 31.000000
v 26.081465 7.084914 31.000000
v 26.081465 6.918535 33.000000
v 26.081465 7.084914 33.000000
v 26.081465 6.918535 35.000000
v 26.081465 7.084914 35.000000
v 26.081465 6.918535 37.000000
v 26.081465 7.084914 37.000000
v 26.081465 6.918535 39.000000
v 26.081465 7.084914 39.000000
v 26.081465 6.918535 41.000000
v 26.081465 7.084914 41.000000
v 26.081465 6.918535 43.000000
v 26.081465 7.084914 43.000000
v 26.081465 7.251293 11.000000
v 26.081465 7.251293 9.000000
v 26.081465 7.251293 13.000000
v 26.081465 7.251293 15.000000
v 26.081465 7.251293 17.000000
v 26.081465 7.251293 19.000000
v 26.081465 7.251293 21.000000
v 26.081465 7.251293 23.000000
v 26.081465 7.251293 25.000000
v 26.081465 7.251293 27.000000
v 26.081465 7.251293 29.000000
v 26.081465 7.251293 31.000000
v 26.081465 7.251293 33.000000
v 26.081465 7.251293 35.000000
v 26.081465 7.251293 37.000000
v 26.081465 7.251293 39.000000
v 26.081465 7.251293 41.000000
v 26.081465 7.251293 43.000000
v 26.081465 7.417673 9.000000
v 26.081465 7.417673 43.000000
v 26.081465 7.584052 9.000000
v 26.081465 7.584052 43.000000
v 26.081465 7.750431 9.000000
v 26.081465 7.750431 43.000000
v 26.081465 7.916810 9.000000
v 26.081465 7.916810 43.000000
v 26.081465 8.083190 9.000000
v 26.081465 8.083190 43.000000
v 26.081465 8.249569 9.000000
v 26.081465 8.249569 43.000000
v 26.081465 8.415948 9.000000
v 26.081465 8.415948 43.000000
v 26.081465 8.582327 9.000000
v 26.081465 8.582327 43.000000
v 26.081465 8.748707 9.000000
v 26.081465 8.748707 43.000000
v 26.081465 8.748707 11.000000
v 26.081465 8.915086 11.000000
v 26.081465 8.915086 9.000000
v 26.081465 8.748707 13.000000
v 26.081465 8.915086 13.000000
v 26.081465 8.748707 15.000000
v 26.081465 8.915086 15.000000
v 26.081465 8.748707 17.000000
v 26.081465 8.915086 17.000000
v 26.081465 8.748707 19.000000
v 26.081465 8.915086 19.000000
v 26.081465 8.748707 21.000000
v 26.081465 8.915086 21.000000
v 26.081465 8.748707 23.000000
v 26.081465 8.915086 23.000000
v 26.081465 8.748707 25.000000
v 26.081465 8.915086 25.000000
v 26.081465 8.748707 27.000000
v 26.081465 8.915086 27.000000
v 26.081465 8.748707 29.000000
v 26.081465 8.915086 29.000000
v 26.081465 8.748707 31.000000
v 26.081465 8.915086 31.000000
v 26.081465 8.748707 33.000000
v 26.081465 8.915086 33.000000
v 26.081465 8.748707 35.000000
v 26.081465 8.915086 35.000000
v 26.081465 8.748707 37.000000
v 26.081465 8.915086 37.000000
v 26.081465 8.748707 39.000000
v 26.081465 8.915086 39.000000
v 26.081465 8.748707 41.000000
v 26.081465 8.915086 41.000000
v 26.081465 8.915086 43.000000
v 26.081465 9.081465 11.000000
v 26.081465 9.081465 9.000000
v 26.081465 9.081465 13.000000
v 26.081465 9.081465 15.000000
v 26.081465 9.081465 17.000000
v 26.081465 9.081465 19.000000
v 26.081465 9.081465 21.000000
v 26.081465 9.081465 23.000000
v 26.081465 9.081465 25.000000
v 26.081465 9.081465 27.000000
v 26.081465 9.081465 29.000000
v 26.081465 9.081465 31.000000
v 26.081465 9.081465 33.000000
v 26.081465 9.081465 35.000000
v 26.081465 9.081465 37.000000
v 26.081465 9.081465 39.000000
v 26.081465 9.081465 41.000000
v 26.081465 9.081465 43.000000
v 26.247844 7.251293 9.000000
v 26.247844 7.251293 11.000000
v 26.247844 7.417673 11.000000
v 26.247844 7.417673 9.000000
v 26.247844 7.251293 13.000000
v 26.247844 7.417673 13.000000
v 26.247844 7.251293 15.000000
v 26.247844 7.417673 15.000000
v 26.247844 7.251293 17.000000
v 26.247844 7.417673 17.000000
v 26.247844 7.251293 19.000000
v 26.247844 7.417673 19.000000
v 26.247844 7.251293 21.000000
v 26.247844 7.417673 21.000000
v 26.247844 7.251293 23.000000
v 26.247844 7.417673 23.000000
v 26.247844 7.251293 25.000000
v 26.247844 7.417673 25.000000
v 26.247844 7.251293 27.000000
v 26.247844 7.417673 27.000000
v 26.247844 7.251293 29.000000
v 26.247844 7.417673 29.000000
v 26.247844 7.251293 31.000000
v 26.247844 7.417673 31.000000
v 26.247844 7.251293 33.000000
v 26.247844 7.417673 33.000000
v 26.247844 7.251293 35.000000
v 26.247844 7.417673 35.000000
v 26.247844 7.251293 37.000000
v 26.247844 7.417673 37.000000
v 26.247844 7.251293 39.000000
v 26.247844 7.417673 39.000000
v 26.247844 7.251293 41.000000
v 26.247844 7.417673 41.000000
v 26.247844 7.251293 43.000000
v 26.247844 7.417673 43.000000
v 26.247844 7.584052 11.000000
v 26.247844 7.584052 9.000000
v 26.247844 7.584052 13.000000
v 26.247844 7.584052 15.000000
v 26.247844 7.584052 17.000000
v 26.247844 7.584052 19.000000
v 26.247844 7.584052 21.000000
v 26.247844 7.584052 23.000000
v 26.247844 7.584052 25.000000
v 26.247844 7.584052 27.000000
v 26.247844 7.584052 29.000000
v 26.247844 7.584052 31.000000
v 26.247844 7.584052 33.000000
v 26.247844 7.584052 35.000000
v 26.247844 7.584052 37.000000
v 26.247844 7.584052 39.000000
v 26.247844 7.584052 41.000000
v 26.247844 7.584052 43.000000
v 26.247844 7.750431 9.000000
v 26.247844 7.750431 43.000000
v 26.247844 7.916810 9.000000
v 26.247844 7.916810 43.000000
v 26.247844 8.083190 9.000000
v 26.247844 8.083190 43.000000
v 26.247844 8.249569 9.000000
v 26.247844 8.249569 43.000000
v 26.247844 8.415948 9.000000
v 26.247844 8.415948 43.000000
v 26.247844 8.415948 11.000000
v 26.247844 8.582327 11.000000
v 26.247844 8.582327 9.000000
v 26.247844 8.415948 13.000000
v 26.247844 8.582327 13.000000
v 26.247844 8.415948 15.000000
v 26.247844 8.582327 15.000000
v 26.247844 8.415948 17.000000
v 26.247844 8.582327 17.000000
v 26.247844 8.415948 19.000000
v 26.247844 8.582327 19.000000
v 26.247844 8.415948 21.000000
v 26.247844 8.582327 21.000000
v 26.247844 8.415948 23.000000
v 26.247844 8.582327 23.000000
v 26.247844 8.415948 25.000000
v 26.247844 8.582327 25.000000
v 26.247844 8.415948 27.000000
v 26.247844 8.582327 27.000000
v 26.247844 8.415948 29.000000
v 26.247844 8.582327 29.000000
v 26.247844 8.415948 31.000000
v 26.247844 8.582327 31.000000
v 26.247844 8.415948 33.000000
v 26.247844 8.582327 33.000000
v 26.247844 8.415948 35.000000
v 26.247844 8.582327 35.000000
v 26.247844 8.415948 37.000000
v 26.247844 8.582327 37.000000
v 26.247844 8.415948 39.000000
v 26.247844 8.582327 39.000000
v 26.247844 8.415948 41.000000
v 26.247844 8.582327 41.000000
v 26.247844 8.582327 43.000000
v 26.247844 8.748707 11.000000
v 26.247844 8.748707 9.000000
v 26.247844 8.748707 13.000000
v 26.247844 8.748707 15.000000
v 26.247844 8.748707 17.000000
v 26.247844 8.748707 19.000000
v 26.247844 8.748707 21.000000
v 26.247844 8.748707 23.000000
v 26.247844 8.748707 25.000000
v 26.247844 8.748707 27.000000
v 26.247844 8.748707 29.000000
v 26.247844 8.748707 31.000000
v 26.247844 8.748707 33.000000
v 26.247844 8.748707 35.000000
v 26.247844 8.748707 37.000000
v 26.247844 8.748707 39.000000
v 26.247844 8.748707 41.000000
v 26.247844 8.748707 43.000000
v 26.414224 7.584052 9.000000
v 26.414224 7.584052 11.000000
v 26.414224 7.750431 11.000000
v 26.414224 7.750431 9.000000
v 26.414224 7.584052 13.000000
v 26.414224 7.750431 13.000000
v 26.414224 7.584052 15.000000
v 26.414224 7.750431 15.000000
v 26.414224 7.584052 17.000000
v 26.414224 7.750431 17.000000
v 26.414224 7.584052 19.000000
v 26.414224 7.750431 19.000000
v 26.414224 7.584052 21.000000
v 26.414224 7.750431 21.000000
v 26.414224 7.584052 23.000000
v 26.414224 7.750431 23.000000
v 26.414224 7.584052 25.000000
v 26.414224 7.750431 25.000000
v 26.414224 7.584052 27.000000
v 26.414224 7.750431 27.000000
v 26.414224 7.584052 29.000000
v 26.414224 7.750431 29.000000
v 26.414224 7.584052 31.000000
v 26.414224 7.750431 31.000000
v 26.414224 7.584052 33.000000
v 26.414224 7.750431 33.000000
v 26.414224 7.584052 35.000000
v 26.414224 7.750431 35.000000
v 26.414224 7.584052 37.000000
v 26.414224 7.750431 37.000000
v 26.414224 7.584052 39.000000
v 26.414224 7.750431 39.000000
v 26.414224 7.584052 41.000000
v 26.414224 7.750431 41.000000
v 26.414224 7.584052 43.000000
v 26.414224 7.750431 43.000000
v 26.414224 7.916810 11.000000
v 26.414224 7.916810 9.000000
v 26.414224 7.916810 13.000000
v 26.414224 7.916810 15.000000
v 26.414224 7.916810 17.000000
v 26.414224 7.916810 19.000000
v 26.414224 7.916810 21.000000
v 26.414224 7.916810 23.000000
v 26.414224 7.916810 25.000000
v 26.414224 7.916810 27.000000
v 26.414224 7.916810 29.000000
v 26.414224 7.916810 31.000000
v 26.414224 7.916810 33.000000
v 26.414224 7.916810 35.000000
v 26.414224 7.916810 37.000000
v 26.414224 7.916810 39.000000
v 26.414224 7.916810 41.000000
v 26.414224 7.916810 43.000000
v 26.414224 8.083190 11.000000
v 26.414224 8.083190 9.000000
v 26.414224 8.083190 13.000000
v 26.414224 8.083190 15.000000
v 26.414224 8.083190 17.000000
v 26.414224 8.083190 19.000000
v 26.414224 8.083190 21.000000
v 26.414224 8.083190 23.000000
v 26.414224 8.083190 25.000000
v 26.414224 8.083190 27.000000
v 26.414224 8.083190 29.000000
v 26.414224 8.083190 31.000000
v 26.414224 8.083190 33.000000
v 26.414224 8.083190 35.000000
v 26.414224 8.083190 37.000000
v 26.414224 8.083190 39.000000
v 26.414224 8.083190 41.000000
v 26.414224 8.083190 43.000000
v 26.414224 8.249569 11.000000
v 26.414224 8.249569 9.000000
v 26.414224 8.249569 13.000000
v 26.414224 8.249569 15.000000
v 26.414224 8.249569 17.000000
v 26.414224 8.249569 19.000000
v 26.414224 8.249569 21.000000
v 26.414224 8.249569 23.000000
v 26.414224 8.249569 25.000000
v 26.414224 8.249569 27.000000
v 26.414224 8.249569 29.000000
v 26.414224 8.249569 31.000000
v 26.414224 8.249569 33.000000
v 26.414224 8.249569 35.000000
v 26.414224 8.249569 37.000000
v 26.414224 8.249569 39.000000
v 26.414224 8.249569 41.000000
v 26.414224 8.249569 43.000000
v 26.414224 8.415948 11.000000
v 26.414224 8.415948 9.000000
v 26.414224 8.415948 13.000000
v 26.414224 8.415948 15.000000
v 26.414224 8.415948 17.000000
v 26.414224 8.415948 19.000000
v 26.414224 8.415948 21.000000
v 26.414224 8.415948 23.000000
v 26.414224 8.415948 25.000000
v 26.414224 8.415948 27.000000
v 26.414224 8.415948 29.000000
v 26.414224 8.415948 31.000000
v 26.414224 8.415948 33.000000
v 26.414224 8.415948 35.000000
v 26.414224 8.415948 37.000000
v 26.414224 8.415948 39.000000
v 26.414224 8.415948 41.000000
v 26.414224 8.415948 43.000000
f 1 2 3
f 1 3 4
f 1 5 6
f 1 6 4
f 1 2 7
f 1 7 5
f 4 3 8
f 4 8 9
f 4 6 10
f 4 10 9
f 9 8 11
f 9 11 12
f 9 10 13
f 9 13 12
f 12 11 14
f 12 14 15
f 12 13 16
f 12 16 15
f 15 14 17
f 15 17 18
f 15 16 19
f 15 19 18
f 18 17 20
f 18 20 21
f 18 19 22
f 18 22 21
f 21 20 23
f 21 23 24
f 21 22 25
f 21 25 24
f 24 23 26
f 24 26 27
f 24 25 28
f 24 28 27
f 27 26 29
f 27 29 30
f 27 28 31
f 27 31 30
f 30 29 32
f 30 32 33
f 30 31 34
f 30 34 33
f 33 32 35
f 33 35 36
f 33 34 37
f 33 37 36
f 36 35 38
f 36 38 39
f 36 37 40
f 36 40 39
f 39 38 41
f 39 41 42
f 39 40 43
f 39 43 42
f 42 41 44
f 42 44 45
f 42 43 46
f 42 46 45
f 45 44 47
f 45 47 48
f 45 46 49
f 45 49 48
f 48 47 50
f 48 50 51
f 48 49 52
f 48 52 51
f 51 50 53
f 51 53 54
f 51 52 55
f 51 55 54
f 54 55 56
f 54 56 53
f 2 57 58
f 2 58 3
f 2 57 59
f 2 59 7
f 3 58 60
f 3 60 8
f 8 60 61
f 8 61 11
f 11 61 62
f 11 62 14
f 14 62 63
f 14 63 17
f 17 63 64
f 17 64 20
f 20 64 65
f 20 65 23
f 23 65 66
f 23 66 26
f 26 66 67
f 26 67 29
f 29 67 68
f 29 68 32
f 32 68 69
f 32 69 35
f 35 69 70
f 35 70 38
f 38 70 71
f 38 71 41
f 41 71 72
f 41 72 44
f 44 72 73
f 44 73 47
f 47 73 74
f 47 74 50
f 50 74 75
f 50 75 53
f 53 56 76
f 53 76 75
f 57 77 78
f 57 78 58
f 57 77 79
f 57 79 59
f 58 78 80
f 58 80 60
f 60 80 81
f 60 81 61
f 61 81 82
f 61 82 62
f 62 82 83
f 62 83 63
f 63 83 84
f 63 84 64
f 64 84 85
f 64 85 65
f 65 85 86
f 65 86 66
f 66 86 87
f 66 87 67
f 67 87 88
f 67 88 68
f 68 88 89
f 68 89 69
f 69 89 90
f 69 90 70
f 70 90 91
f 70 91 71
f 71 91 92
f 71 92 72
f 72 92 93
f 72 93 73
f 73 93 94
f 73 94 74
f 74 94 95
f 74 95 75
f 75 76 96
f 75 96 95
f 77 97 98
f 77 98 78
f 77 97 99
f 77 99 79
f 78 98 100
f 78 100 80
f 80 100 101
f 80 101 81
f 81 101 102
f 81 102 82
f 82 102 103
f 82 103 83
f 83 103 104
f 83 104 84
f 84 104 105
f 84 105 85
f 85 105 106
f 85 106 86
f 86 106 107
f 86 107 87
f 87 107 108
f 87 108 88
f 88 108 109
f 88 109 89
f 89 109 110
f 89 110 90
f 90 110 111
f 90 111 91
f 91 111 112
f 91 112 92
f 92 112 113
f 92 113 93
f 93 113 114
f 93 114 94
f 94 114 115
f 94 115 95
f 95 96 116
f 95 116 115
f 97 117 118
f 97 118 98
f 117 118 119
f 117 119 120
f 97 117 120
f 97 120 99
f 98 118 121
f 98 121 100
f 118 121 122
f 118 122 119
f 100 121 123
f 100 123 101
f 121 123 124
f 121 124 122
f 101 123 125
f 101 125 102
f 123 125 126
f 123 126 124
f 102 125 127
f 102 127 103
f 125 127 128
f 125 128 126
f 103 127 129
f 103 129 104
f 127 129 130
f 127 130 128
f 104 129 131
f 104 131 105
f 129 131 132
f 129 132 130
f 105 131 133
f 105 133 106
f 131 133 134
f 131 134 132
f 106 133 135
f 106 135 107
f 133 135 136
f 133 136 134
f 107 135 137
f 107 137 108
f 135 137 138
f 135 138 136
f 108 137 139
f 108 139 109
f 137 139 140
f 137 140 138
f 109 139 141
f 109 141 110
f 139 141 142
f 139 142 140
f 110 141 143
f 110 143 111
f 141 143 144
f 141 144 142
f 111 143 145
f 111 145 112
f 143 145 146
f 143 146 144
f 112 145 147
f 112 147 113
f 145 147 148
f 145 148 146
f 113 147 149
f 113 149 114
f 147 149 150
f 147 150 148
f 114 149 151
f 114 151 115
f 149 151 152
f 149 152 150
f 115 116 152
f 115 152 151
f 153 154 155
f 153 155 156
f 153 157 158
f 153 158 156
f 153 154 159
f 153 159 157
f 156 155 160
f 156 160 161
f 156 158 162
f 156 162 161
f 161 160 163
f 161 163 164
f 161 162 165
f 161 165 164
f 164 163 166
f 164 166 167
f 164 165 168
f 164 168 167
f 167 166 169
f 167 169 170
f 167 168 171
f 167 171 170
f 170 169 172
f 170 172 173
f 170 171 174
f 170 174 173
f 173 172 175
f 173 175 176
f 173 174 177
f 173 177 176
f 176 175 178
f 176 178 179
f 176 177 180
f 176 180 179
f 179 178 181
f 179 181 182
f 179 180 183
f 179 183 182
f 182 181 184
f 182 184 185
f 182 183 186
f 182 186 185
f 185 184 187
f 185 187 188
f 185 186 189
f 185 189 188
f 188 187 190
f 188 190 191
f 188 189 192
f 188 192 191
f 191 190 193
f 191 193 194
f 191 192 195
f 191 195 194
f 194 193 196
f 194 196 197
f 194 195 198
f 194 198 197
f 197 196 199
f 197 199 200
f 197 198 201
f 197 201 200
f 200 199 202
f 200 202 203
f 200 201 204
f 200 204 203
f 203 202 205
f 203 205 206
f 203 204 207
f 203 207 206
f 206 207 208
f 206 208 205
f 154 5 6
f 154 6 155
f 154 5 209
f 154 209 159
f 155 6 10
f 155 10 160
f 160 10 13
f 160 13 163
f 163 13 16
f 163 16 166
f 166 16 19
f 166 19 169
f 169 19 22
f 169 22 172
f 172 22 25
f 172 25 175
f 175 25 28
f 175 28 178
f 178 28 31
f 178 31 181
f 181 31 34
f 181 34 184
f 184 34 37
f 184 37 187
f 187 37 40
f 187 40 190
f 190 40 43
f 190 43 193
f 193 43 46
f 193 46 196
f 196 46 49
f 196 49 199
f 199 49 52
f 199 52 202
f 202 52 55
f 202 55 205
f 205 208 210
f 205 210 55
f 5 7 211
f 5 211 209
f 55 210 212
f 55 212 56
f 7 59 213
f 7 213 211
f 56 212 214
f 56 214 76
f 59 79 215
f 59 215 213
f 76 214 216
f 76 216 96
f 79 99 217
f 79 217 215
f 96 216 218
f 96 218 116
f 99 120 219
f 99 219 217
f 116 218 220
f 116 220 152
f 120 221 222
f 120 222 119
f 120 221 223
f 120 223 219
f 119 222 224
f 119 224 122
f 122 224 225
f 122 225 124
f 124 225 226
f 124 226 126
f 126 226 227
f 126 227 128
f 128 227 228
f 128 228 130
f 130 228 229
f 130 229 132
f 132 229 230
f 132 230 134
f 134 230 231
f 134 231 136
f 136 231 232
f 136 232 138
f 138 232 233
f 138 233 140
f 140 233 234
f 140 234 142
f 142 234 235
f 142 235 144
f 144 235 236
f 144 236 146
f 146 236 237
f 146 237 148
f 148 237 238
f 148 238 150
f 150 238 239
f 150 239 152
f 152 220 240
f 152 240 239
f 221 241 242
f 221 242 222
f 241 242 243
f 241 243 244
f 221 241 244
f 221 244 223
f 222 242 245
f 222 245 224
f 242 245 246
f 242 246 243
f 224 245 247
f 224 247 225
f 245 247 248
f 245 248 246
f 225 247 249
f 225 249 226
f 247 249 250
f 247 250 248
f 226 249 251
f 226 251 227
f 249 251 252
f 249 252 250
f 227 251 253
f 227 253 228
f 251 253 254
f 251 254 252
f 228 253 255
f 228 255 229
f 253 255 256
f 253 256 254
f 229 255 257
f 229 257 230
f 255 257 258
f 255 258 256
f 230 257 259
f 230 259 231
f 257 259 260
f 257 260 258
f 231 259 261
f 231 261 232
f 259 261 262
f 259 262 260
f 232 261 263
f 232 263 233
f 261 263 264
f 261 264 262
f 233 263 265
f 233 265 234
f 263 265 266
f 263 266 264
f 234 265 267
f 234 267 235
f 265 267 268
f 265 268 266
f 235 267 269
f 235 269 236
f 267 269 270
f 267 270 268
f 236 269 271
f 236 271 237
f 269 271 272
f 269 272 270
f 237 271 273
f 237 273 238
f 271 273 274
f 271 274 272
f 238 273 275
f 238 275 239
f 273 275 276
f 273 276 274
f 239 240 276
f 239 276 275
f 277 278 279
f 277 279 280
f 277 281 282
f 277 282 280
f 277 278 283
f 277 283 281
f 280 279 284
f 280 284 285
f 280 282 286
f 280 286 285
f 285 284 287
f 285 287 288
f 285 286 289
f 285 289 288
f 288 287 290
f 288 290 291
f 288 289 292
f 288 292 291
f 291 290 293
f 291 293 294
f 291 292 295
f 291 295 294
f 294 293 296
f 294 296 297
f 294 295 298
f 294 298 297
f 297 296 299
f 297 299 300
f 297 298 301
f 297 301 300
f 300 299 302
f 300 302 303
f 300 301 304
f 300 304 303
f 303 302 305
f 303 305 306
f 303 304 307
f 303 307 306
f 306 305 308
f 306 308 309
f 306 307 310
f 306 310 309
f 309 308 311
f 309 311 312
f 309 310 313
f 309 313 312
f 312 311 314
f 312 314 315
f 312 313 316
f 312 316 315
f 315 314 317
f 315 317 318
f 315 316 319
f 315 319 318
f 318 317 320
f 318 320 321
f 318 319 322
f 318 322 321
f 321 320 323
f 321 323 324
f 321 322 325
f 321 325 324
f 324 323 326
f 324 326 327
f 324 325 328
f 324 328 327
f 327 326 329
f 327 329 330
f 327 328 331
f 327 331 330
f 330 331 332
f 330 332 329
f 278 157 158
f 278 158 279
f 278 157 333
f 278 333 283
f 279 158 162
f 279 162 284
f 284 162 165
f 284 165 287
f 287 165 168
f 287 168 290
f 290 168 171
f 290 171 293
f 293 171 174
f 293 174 296
f 296 174 177
f 296 177 299
f 299 177 180
f 299 180 302
f 302 180 183
f 302 183 305
f 305 183 186
f 305 186 308
f 308 186 189
f 308 189 311
f 311 189 192
f 311 192 314
f 314 192 195
f 314 195 317
f 317 195 198
f 317 198 320
f 320 198 201
f 320 201 323
f 323 201 204
f 323 204 326
f 326 204 207
f 326 207 329
f 329 332 334
f 329 334 207
f 157 159 335
f 157 335 333
f 207 334 336
f 207 336 208
f 159 209 337
f 159 337 335
f 208 336 338
f 208 338 210
f 209 211 339
f 209 339 337
f 210 338 340
f 210 340 212
f 211 213 341
f 211 341 339
f 212 340 342
f 212 342 214
f 213 215 343
f 213 343 341
f 214 342 344
f 214 344 216
f 215 217 345
f 215 345 343
f 216 344 346
f 216 346 218
f 217 219 347
f 217 347 345
f 218 346 348
f 218 348 220
f 219 223 349
f 219 349 347
f 220 348 350
f 220 350 240
f 223 244 351
f 223 351 349
f 240 350 352
f 240 352 276
f 244 353 354
f 244 354 243
f 244 353 355
f 244 355 351
f 243 354 356
f 243 356 246
f 246 356 357
f 246 357 248
f 248 357 358
f 248 358 250
f 250 358 359
f 250 359 252
f 252 359 360
f 252 360 254
f 254 360 361
f 254 361 256
f 256 361 362
f 256 362 258
f 258 362 363
f 258 363 260
f 260 363 364
f 260 364 262
f 262 364 365
f 262 365 264
f 264 365 366
f 264 366 266
f 266 366 367
f 266 367 268
f 268 367 368
f 268 368 270
f 270 368 369
f 270 369 272
f 272 369 370
f 272 370 274
f 274 370 371
f 274 371 276
f 276 352 372
f 276 372 371
f 353 373 374
f 353 374 354
f 373 374 375
f 373 375 376
f 353 373 376
f 353 376 355
f 354 374 377
f 354 377 356
f 374 377 378
f 374 378 375
f 356 377 379
f 356 379 357
f 377 379 380
f 377 380 378
f 357 379 381
f 357 381 358
f 379 381 382
f 379 382 380
f 358 381 383
f 358 383 359
f 381 383 384
f 381 384 382
f 359 383 385
f 359 385 360
f 383 385 386
f 383 386 384
f 360 385 387
f 360 387 361
f 385 387 388
f 385 388 386
f 361 387 389
f 361 389 362
f 387 389 390
f 387 390 388
f 362 389 391
f 362 391 363
f 389 391 392
f 389 392 390
f 363 391 393
f 363 393 364
f 391 393 394
f 391 394 392
f 364 393 395
f 364 395 365
f 393 395 396
f 393 396 394
f 365 395 397
f 365 397 366
f 395 397 398
f 395 398 396
f 366 397 399
f 366 399 367
f 397 399 400
f 397 400 398
f 367 399 401
f 367 401 368
f 399 401 402
f 399 402 400
f 368 401 403
f 368 403 369
f 401 403 404
f 401 404 402
f 369 403 405
f 369 405 370
f 403 405 406
f 403 406 404
f 370 405 407
f 370 407 371
f 405 407 408
f 405 408 406
f 371 372 408
f 371 408 407
f 281 409 410
f 281 410 282
f 281 283 411
f 281 411 409
f 282 410 412
f 282 412 286
f 286 412 413
f 286 413 289
f 289 413 414
f 289 414 292
f 292 414 415
f 292 415 295
f 295 415 416
f 295 416 298
f 298 416 417
f 298 417 301
f 301 417 418
f 301 418 304
f 304 418 419
f 304 419 307
f 307 419 420
f 307 420 310
f 310 420 421
f 310 421 313
f 313 421 422
f 313 422 316
f 316 422 423
f 316 423 319
f 319 423 424
f 319 424 322
f 322 424 425
f 322 425 325
f 325 425 426
f 325 426 328
f 328 426 427
f 328 427 331
f 331 427 428
f 331 428 332
f 283 333 429
f 283 429 411
f 332 428 430
f 332 430 334
f 333 335 431
f 333 431 429
f 334 430 432
f 334 432 336
f 335 337 433
f 335 433 431
f 336 432 434
f 336 434 338
f 337 339 435
f 337 435 433
f 338 434 436
f 338 436 340
f 339 341 437
f 339 437 435
f 340 436 438
f 340 438 342
f 341 343 439
f 341 439 437
f 342 438 440
f 342 440 344
f 343 345 441
f 343 441 439
f 344 440 442
f 344 442 346
f 345 347 443
f 345 443 441
f 346 442 444
f 346 444 348
f 347 349 445
f 347 445 443
f 348 444 446
f 348 446 350
f 349 351 447
f 349 447 445
f 350 446 448
f 350 448 352
f 351 355 449
f 351 449 447
f 352 448 450
f 352 450 372
f 376 375 451
f 376 451 452
f 355 376 452
f 355 452 449
f 375 378 453
f 375 453 451
f 378 380 454
f 378 454 453
f 380 382 455
f 380 455 454
f 382 384 456
f 382 456 455
f 384 386 457
f 384 457 456
f 386 388 458
f 386 458 457
f 388 390 459
f 388 459 458
f 390 392 460
f 390 460 459
f 392 394 461
f 392 461 460
f 394 396 462
f 394 462 461
f 396 398 463
f 396 463 462
f 398 400 464
f 398 464 463
f 400 402 465
f 400 465 464
f 402 404 466
f 402 466 465
f 404 406 467
f 404 467 466
f 406 408 468
f 406 468 467
f 372 450 468
f 372 468 408
f 469 409 410
f 469 410 470
f 469 471 472
f 469 472 470
f 469 409 473
f 469 473 471
f 470 410 412
f 470 412 474
f 470 472 475
f 470 475 474
f 474 412 413
f 474 413 476
f 474 475 477
f 474 477 476
f 476 413 414
f 476 414 478
f 476 477 479
f 476 479 478
f 478 414 415
f 478 415 480
f 478 479 481
f 478 481 480
f 480 415 416
f 480 416 482
f 480 481 483
f 480 483 482
f 482 416 417
f 482 417 484
f 482 483 485
f 482 485 484
f 484 417 418
f 484 418 486
f 484 485 487
f 484 487 486
f 486 418 419
f 486 419 488
f 486 487 489
f 486 489 488
f 488 419 420
f 488 420 490
f 488 489 491
f 488 491 490
f 490 420 421
f 490 421 492
f 490 491 493
f 490 493 492
f 492 421 422
f 492 422 494
f 492 493 495
f 492 495 494
f 494 422 423
f 494 423 496
f 494 495 497
f 494 497 496
f 496 423 424
f 496 424 498
f 496 497 499
f 496 499 498
f 498 424 425
f 498 425 500
f 498 499 501
f 498 501 500
f 500 425 426
f 500 426 502
f 500 501 503
f 500 503 502
f 502 426 427
f 502 427 504
f 502 503 505
f 502 505 504
f 504 505 506
f 504 506 427
f 409 411 507
f 409 507 473
f 427 506 508
f 427 508 428
f 411 429 509
f 411 509 507
f 428 508 510
f 428 510 430
f 429 431 511
f 429 511 509
f 430 510 512
f 430 512 432
f 431 433 513
f 431 513 511
f 432 512 514
f 432 514 434
f 433 435 515
f 433 515 513
f 434 514 516
f 434 516 436
f 435 437 517
f 435 517 515
f 436 516 518
f 436 518 438
f 437 439 519
f 437 519 517
f 438 518 520
f 438 520 440
f 439 441 521
f 439 521 519
f 440 520 522
f 440 522 442
f 441 443 523
f 441 523 521
f 442 522 524
f 442 524 444
f 443 445 525
f 443 525 523
f 444 524 526
f 444 526 446
f 445 447 527
f 445 527 525
f 446 526 528
f 446 528 448
f 447 449 529
f 447 529 527
f 448 528 530
f 448 530 450
f 449 452 531
f 449 531 529
f 450 530 532
f 450 532 468
f 452 533 534
f 452 534 451
f 533 534 535
f 533 535 536
f 452 533 536
f 452 536 531
f 451 534 537
f 451 537 453
f 534 537 538
f 534 538 535
f 453 537 539
f 453 539 454
f 537 539 540
f 537 540 538
f 454 539 541
f 454 541 455
f 539 541 542
f 539 542 540
f 455 541 543
f 455 543 456
f 541 543 544
f 541 544 542
f 456 543 545
f 456 545 457
f 543 545 546
f 543 546 544
f 457 545 547
f 457 547 458
f 545 547 548
f 545 548 546
f 458 547 549
f 458 549 459
f 547 549 550
f 547 550 548
f 459 549 551
f 459 551 460
f 549 551 552
f 549 552 550
f 460 551 553
f 460 553 461
f 551 553 554
f 551 554 552
f 461 553 555
f 461 555 462
f 553 555 556
f 553 556 554
f 462 555 557
f 462 557 463
f 555 557 558
f 555 558 556
f 463 557 559
f 463 559 464
f 557 559 560
f 557 560 558
f 464 559 561
f 464 561 465
f 559 561 562
f 559 562 560
f 465 561 563
f 465 563 466
f 561 563 564
f 561 564 562
f 466 563 565
f 466 565 467
f 563 565 566
f 563 566 564
f 467 565 567
f 467 567 468
f 565 567 568
f 565 568 566
f 468 532 568
f 468 568 567
f 471 569 570
f 471 570 472
f 471 473 571
f 471 571 569
f 472 570 572
f 472 572 475
f 475 572 573
f 475 573 477
f 477 573 574
f 477 574 479
f 479 574 575
f 479 575 481
f 481 575 576
f 481 576 483
f 483 576 577
f 483 577 485
f 485 577 578
f 485 578 487
f 487 578 579
f 487 579 489
f 489 579 580
f 489 580 491
f 491 580 581
f 491 581 493
f 493 581 582
f 493 582 495
f 495 582 583
f 495 583 497
f 497 583 584
f 497 584 499
f 499 584 585
f 499 585 501
f 501 585 586
f 501 586 503
f 503 586 587
f 503 587 505
f 505 587 588
f 505 588 506
f 473 507 589
f 473 589 571
f 506 588 590
f 506 590 508
f 507 509 591
f 507 591 589
f 508 590 592
f 508 592 510
f 509 511 593
f 509 593 591
f 510 592 594
f 510 594 512
f 511 513 595
f 511 595 593
f 512 594 596
f 512 596 514
f 513 515 597
f 513 597 595
f 514 596 598
f 514 598 516
f 515 517 599
f 515 599 597
f 516 598 600
f 516 600 518
f 517 519 601
f 517 601 599
f 518 600 602
f 518 602 520
f 519 521 603
f 519 603 601
f 520 602 604
f 520 604 522
f 521 523 605
f 521 605 603
f 522 604 606
f 522 606 524
f 523 525 607
f 523 607 605
f 524 606 608
f 524 608 526
f 525 527 609
f 525 609 607
f 526 608 610
f 526 610 528
f 527 529 611
f 527 611 609
f 528 610 612
f 528 612 530
f 529 531 613
f 529 613 611
f 530 612 614
f 530 614 532
f 536 535 615
f 536 615 616
f 531 536 616
f 531 616 613
f 535 538 617
f 535 617 615
f 538 540 618
f 538 618 617
f 540 542 619
f 540 619 618
f 542 544 620
f 542 620 619
f 544 546 621
f 544 621 620
f 546 548 622
f 546 622 621
f 548 550 623
f 548 623 622
f 550 552 624
f 550 624 623
f 552 554 625
f 552 625 624
f 554 556 626
f 554 626 625
f 556 558 627
f 556 627 626
f 558 560 628
f 558 628 627
f 560 562 629
f 560 629 628
f 562 564 630
f 562 630 629
f 564 566 631
f 564 631 630
f 566 568 632
f 566 632 631
f 532 614 632
f 532 632 568
f 633 569 570
f 633 570 634
f 633 635 636
f 633 636 634
f 633 569 637
f 633 637 635
f 634 570 572
f 634 572 638
f 634 636 639
f 634 639 638
f 638 572 573
f 638 573 640
f 638 639 641
f 638 641 640
f 640 573 574
f 640 574 642
f 640 641 643
f 640 643 642
f 642 574 575
f 642 575 644
f 642 643 645
f 642 645 644
f 644 575 576
f 644 576 646
f 644 645 647
f 644 647 646
f 646 576 577
f 646 577 648
f 646 647 649
f 646 649 648
f 648 577 578
f 648 578 650
f 648 649 651
f 648 651 650
f 650 578 579
f 650 579 652
f 650 651 653
f 650 653 652
f 652 579 580
f 652 580 654
f 652 653 655
f 652 655 654
f 654 580 581
f 654 581 656
f 654 655 657
f 654 657 656
f 656 581 582
f 656 582 658
f 656 657 659
f 656 659 658
f 658 582 583
f 658 583 660
f 658 659 661
f 658 661 660
f 660 583 584
f 660 584 662
f 660 661 663
f 660 663 662
f 662 584 585
f 662 585 664
f 662 663 665
f 662 665 664
f 664 585 586
f 664 586 666
f 664 665 667
f 664 667 666
f 666 586 587
f 666 587 668
f 666 667 669
f 666 669 668
f 668 669 670
f 668 670 587
f 569 571 671
f 569 671 637
f 587 670 672
f 587 672 588
f 571 589 673
f 571 673 671
f 588 672 674
f 588 674 590
f 589 591 675
f 589 675 673
f 590 674 676
f 590 676 592
f 591 593 677
f 591 677 675
f 592 676 678
f 592 678 594
f 593 595 679
f 593 679 677
f 594 678 680
f 594 680 596
f 595 597 681
f 595 681 679
f 596 680 682
f 596 682 598
f 597 599 683
f 597 683 681
f 598 682 684
f 598 684 600
f 599 601 685
f 599 685 683
f 600 684 686
f 600 686 602
f 601 603 687
f 601 687 685
f 602 686 688
f 602 688 604
f 603 605 689
f 603 689 687
f 604 688 690
f 604 690 606
f 605 607 691
f 605 691 689
f 606 690 692
f 606 692 608
f 607 609 693
f 607 693 691
f 608 692 694
f 608 694 610
f 609 611 695
f 609 695 693
f 610 694 696
f 610 696 612
f 611 613 697
f 611 697 695
f 612 696 698
f 612 698 614
f 613 616 699
f 613 699 697
f 614 698 700
f 614 700 632
f 616 701 702
f 616 702 615
f 701 702 703
f 701 703 704
f 616 701 704
f 616 704 699
f 615 702 705
f 615 705 617
f 702 705 706
f 702 706 703
f 617 705 707
f 617 707 618
f 705 707 708
f 705 708 706
f 618 707 709
f 618 709 619
f 707 709 710
f 707 710 708
f 619 709 711
f 619 711 620
f 709 711 712
f 709 712 710
f 620 711 713
f 620 713 621
f 711 713 714
f 711 714 712
f 621 713 715
f 621 715 622
f 713 715 716
f 713 716 714
f 622 715 717
f 622 717 623
f 715 717 718
f 715 718 716
f 623 717 719
f 623 719 624
f 717 719 720
f 717 720 718
f 624 719 721
f 624 721 625
f 719 721 722
f 719 722 720
f 625 721 723
f 625 723 626
f 721 723 724
f 721 724 722
f 626 723 725
f 626 725 627
f 723 725 726
f 723 726 724
f 627 725 727
f 627 727 628
f 725 727 728
f 725 728 726
f 628 727 729
f 628 729 629
f 727 729 730
f 727 730 728
f 629 729 731
f 629 731 630
f 729 731 732
f 729 732 730
f 630 731 733
f 630 733 631
f 731 733 734
f 731 734 732
f 631 733 735
f 631 735 632
f 733 735 736
f 733 736 734
f 632 700 736
f 632 736 735
f 635 737 738
f 635 738 636
f 635 637 739
f 635 739 737
f 636 738 740
f 636 740 639
f 639 740 741
f 639 741 641
f 641 741 742
f 641 742 643
f 643 742 743
f 643 743 645
f 645 743 744
f 645 744 647
f 647 744 745
f 647 745 649
f 649 745 746
f 649 746 651
f 651 746 747
f 651 747 653
f 653 747 748
f 653 748 655
f 655 748 749
f 655 749 657
f 657 749 750
f 657 750 659
f 659 750 751
f 659 751 661
f 661 751 752
f 661 752 663
f 663 752 753
f 663 753 665
f 665 753 754
f 665 754 667
f 667 754 755
f 667 755 669
f 669 755 756
f 669 756 670
f 637 671 757
f 637 757 739
f 670 756 758
f 670 758 672
f 671 673 759
f 671 759 757
f 672 758 760
f 672 760 674
f 673 675 761
f 673 761 759
f 674 760 762
f 674 762 676
f 675 677 763
f 675 763 761
f 676 762 764
f 676 764 678
f 677 679 765
f 677 765 763
f 678 764 766
f 678 766 680
f 679 681 767
f 679 767 765
f 680 766 768
f 680 768 682
f 681 683 769
f 681 769 767
f 682 768 770
f 682 770 684
f 683 685 771
f 683 771 769
f 684 770 772
f 684 772 686
f 685 687 773
f 685 773 771
f 686 772 774
f 686 774 688
f 687 689 775
f 687 775 773
f 688 774 776
f 688 776 690
f 689 691 777
f 689 777 775
f 690 776 778
f 690 778 692
f 691 693 779
f 691 779 777
f 692 778 780
f 692 780 694
f 693 695 781
f 693 781 779
f 694 780 782
f 694 782 696
f 695 697 783
f 695 783 781
f 696 782 784
f 696 784 698
f 697 699 785
f 697 785 783
f 698 784 786
f 698 786 700
f 704 703 787
f 704 787 788
f 699 704 788
f 699 788 785
f 703 706 789
f 703 789 787
f 706 708 790
f 706 790 789
f 708 710 791
f 708 791 790
f 710 712 792
f 710 792 791
f 712 714 793
f 712 793 792
f 714 716 794
f 714 794 793
f 716 718 795
f 716 795 794
f 718 720 796
f 718 796 795
f 720 722 797
f 720 797 796
f 722 724 798
f 722 798 797
f 724 726 799
f 724 799 798
f 726 728 800
f 726 800 799
f 728 730 801
f 728 801 800
f 730 732 802
f 730 802 801
f 732 734 803
f 732 803 802
f 734 736 804
f 734 804 803
f 700 786 804
f 700 804 736
f 737 805 806
f 737 806 738
f 737 739 807
f 737 807 805
f 738 806 808
f 738 808 740
f 740 808 809
f 740 809 741
f 741 809 810
f 741 810 742
f 742 810 811
f 742 811 743
f 743 811 812
f 743 812 744
f 744 812 813
f 744 813 745
f 745 813 814
f 745 814 746
f 746 814 815
f 746 815 747
f 747 815 816
f 747 816 748
f 748 816 817
f 748 817 749
f 749 817 818
f 749 818 750
f 750 818 819
f 750 819 751
f 751 819 820
f 751 820 752
f 752 820 821
f 752 821 753
f 753 821 822
f 753 822 754
f 754 822 823
f 754 823 755
f 755 823 824
f 755 824 756
f 739 757 825
f 739 825 807
f 756 824 826
f 756 826 758
f 757 759 827
f 757 827 825
f 758 826 828
f 758 828 760
f 759 761 829
f 759 829 827
f 760 828 830
f 760 830 762
f 761 763 831
f 761 831 829
f 762 830 832
f 762 832 764
f 763 765 833
f 763 833 831
f 764 832 834
f 764 834 766
f 765 767 835
f 765 835 833
f 766 834 836
f 766 836 768
f 767 769 837
f 767 837 835
f 768 836 838
f 768 838 770
f 769 771 839
f 769 839 837
f 770 838 840
f 770 840 772
f 771 773 841
f 771 841 839
f 772 840 842
f 772 842 774
f 773 775 843
f 773 843 841
f 774 842 844
f 774 844 776
f 775 777 845
f 775 845 843
f 776 844 846
f 776 846 778
f 777 779 847
f 777 847 845
f 778 846 848
f 778 848 780
f 779 781 849
f 779 849 847
f 780 848 850
f 780 850 782
f 781 783 851
f 781 851 849
f 782 850 852
f 782 852 784
f 783 785 853
f 783 853 851
f 784 852 854
f 784 854 786
f 788 787 855
f 788 855 856
f 785 788 856
f 785 856 853
f 787 789 857
f 787 857 855
f 789 790 858
f 789 858 857
f 790 791 859
f 790 859 858
f 791 792 860
f 791 860 859
f 792 793 861
f 792 861 860
f 793 794 862
f 793 862 861
f 794 795 863
f 794 863 862
f 795 796 864
f 795 864 863
f 796 797 865
f 796 865 864
f 797 798 866
f 797 866 865
f 798 799 867
f 798 867 866
f 799 800 868
f 799 868 867
f 800 801 869
f 800 869 868
f 801 802 870
f 801 870 869
f 802 803 871
f 802 871 870
f 803 804 872
f 803 872 871
f 786 854 872
f 786 872 804
f 805 873 874
f 805 874 806
f 805 807 875
f 805 875 873
f 806 874 876
f 806 876 808
f 808 876 877
f 808 877 809
f 809 877 878
f 809 878 810
f 810 878 879
f 810 879 811
f 811 879 880
f 811 880 812
f 812 880 881
f 812 881 813
f 813 881 882
f 813 882 814
f 814 882 883
f 814 883 815
f 815 883 884
f 815 884 816
f 816 884 885
f 816 885 817
f 817 885 886
f 817 886 818
f 818 886 887
f 818 887 819
f 819 887 888
f 819 888 820
f 820 888 889
f 820 889 821
f 821 889 890
f 821 890 822
f 822 890 891
f 822 891 823
f 823 891 892
f 823 892 824
f 807 825 893
f 807 893 875
f 824 892 894
f 824 894 826
f 825 827 895
f 825 895 893
f 826 894 896
f 826 896 828
f 827 829 897
f 827 897 895
f 828 896 898
f 828 898 830
f 829 831 899
f 829 899 897
f 830 898 900
f 830 900 832
f 831 833 901
f 831 901 899
f 832 900 902
f 832 902 834
f 833 835 903
f 833 903 901
f 834 902 904
f 834 904 836
f 835 837 905
f 835 905 903
f 836 904 906
f 836 906 838
f 837 839 907
f 837 907 905
f 838 906 908
f 838 908 840
f 839 841 909
f 839 909 907
f 840 908 910
f 840 910 842
f 841 843 911
f 841 911 909
f 842 910 912
f 842 912 844
f 843 845 913
f 843 913 911
f 844 912 914
f 844 914 846
f 845 847 915
f 845 915 913
f 846 914 916
f 846 916 848
f 847 849 917
f 847 917 915
f 848 916 918
f 848 918 850
f 849 851 919
f 849 919 917
f 850 918 920
f 850 920 852
f 851 853 921
f 851 921 919
f 852 920 922
f 852 922 854
f 856 855 923
f 856 923 924
f 853 856 924
f 853 924 921
f 855 857 925
f 855 925 923
f 857 858 926
f 857 926 925
f 858 859 927
f 858 927 926
f 859 860 928
f 859 928 927
f 860 861 929
f 860 929 928
f 861 862 930
f 861 930 929
f 862 863 931
f 862 931 930
f 863 864 932
f 863 932 931
f 864 865 933
f 864 933 932
f 865 866 934
f 865 934 933
f 866 867 935
f 866 935 934
f 867 868 936
f 867 936 935
f 868 869 937
f 868 937 936
f 869 870 938
f 869 938 937
f 870 871 939
f 870 939 938
f 871 872 940
f 871 940 939
f 854 922 940
f 854 940 872
f 941 942 943
f 941 943 944
f 873 941 942
f 873 942 874
f 873 875 944
f 873 944 941
f 942 945 946
f 942 946 943
f 874 942 945
f 874 945 876
f 945 947 948
f 945 948 946
f 876 945 947
f 876 947 877
f 947 949 950
f 947 950 948
f 877 947 949
f 877 949 878
f 949 951 952
f 949 952 950
f 878 949 951
f 878 951 879
f 951 953 954
f 951 954 952
f 879 951 953
f 879 953 880
f 953 955 956
f 953 956 954
f 880 953 955
f 880 955 881
f 955 957 958
f 955 958 956
f 881 955 957
f 881 957 882
f 957 959 960
f 957 960 958
f 882 957 959
f 882 959 883
f 959 961 962
f 959 962 960
f 883 959 961
f 883 961 884
f 961 963 964
f 961 964 962
f 884 961 963
f 884 963 885
f 963 965 966
f 963 966 964
f 885 963 965
f 885 965 886
f 965 967 968
f 965 968 966
f 886 965 967
f 886 967 887
f 967 969 970
f 967 970 968
f 887 967 969
f 887 969 888
f 969 971 972
f 969 972 970
f 888 969 971
f 888 971 889
f 971 973 974
f 971 974 972
f 889 971 973
f 889 973 890
f 973 975 976
f 973 976 974
f 890 973 975
f 890 975 891
f 891 975 976
f 891 976 892
f 875 893 977
f 875 977 944
f 892 976 978
f 892 978 894
f 893 895 979
f 893 979 977
f 894 978 980
f 894 980 896
f 895 897 981
f 895 981 979
f 896 980 982
f 896 982 898
f 897 899 983
f 897 983 981
f 898 982 984
f 898 984 900
f 899 901 985
f 899 985 983
f 900 984 986
f 900 986 902
f 901 903 987
f 901 987 985
f 902 986 988
f 902 988 904
f 903 905 989
f 903 989 987
f 904 988 990
f 904 990 906
f 905 907 991
f 905 991 989
f 906 990 992
f 906 992 908
f 907 909 993
f 907 993 991
f 908 992 994
f 908 994 910
f 909 911 995
f 909 995 993
f 910 994 996
f 910 996 912
f 911 913 997
f 911 997 995
f 912 996 998
f 912 998 914
f 913 915 999
f 913 999 997
f 914 998 1000
f 914 1000 916
f 915 917 1001
f 915 1001 999
f 916 1000 1002
f 916 1002 918
f 917 919 1003
f 917 1003 1001
f 918 1002 1004
f 918 1004 920
f 919 921 1005
f 919 1005 1003
f 920 1004 1006
f 920 1006 922
f 1005 1007 1008
f 1005 1008 1009
f 924 923 1008
f 924 1008 1009
f 921 924 1009
f 921 1009 1005
f 1007 1010 1011
f 1007 1011 1008
f 923 925 1011
f 923 1011 1008
f 1010 1012 1013
f 1010 1013 1011
f 925 926 1013
f 925 1013 1011
f 1012 1014 1015
f 1012 1015 1013
f 926 927 1015
f 926 1015 1013
f 1014 1016 1017
f 1014 1017 1015
f 927 928 1017
f 927 1017 1015
f 1016 1018 1019
f 1016 1019 1017
f 928 929 1019
f 928 1019 1017
f 1018 1020 1021
f 1018 1021 1019
f 929 930 1021
f 929 1021 1019
f 1020 1022 1023
f 1020 1023 1021
f 930 931 1023
f 930 1023 1021
f 1022 1024 1025
f 1022 1025 1023
f 931 932 1025
f 931 1025 1023
f 1024 1026 1027
f 1024 1027 1025
f 932 933 1027
f 932 1027 1025
f 1026 1028 1029
f 1026 1029 1027
f 933 934 1029
f 933 1029 1027
f 1028 1030 1031
f 1028 1031 1029
f 934 935 1031
f 934 1031 1029
f 1030 1032 1033
f 1030 1033 1031
f 935 936 1033
f 935 1033 1031
f 1032 1034 1035
f 1032 1035 1033
f 936 937 1035
f 936 1035 1033
f 1034 1036 1037
f 1034 1037 1035
f 937 938 1037
f 937 1037 1035
f 1036 1038 1039
f 1036 1039 1037
f 938 939 1039
f 938 1039 1037
f 1038 1006 1040
f 1038 1040 1039
f 939 940 1040
f 939 1040 1039
f 922 1006 1040
f 922 1040 940
f 944 1041 1042
f 944 1042 943
f 944 977 1043
f 944 1043 1041
f 943 1042 1044
f 943 1044 946
f 946 1044 1045
f 946 1045 948
f 948 1045 1046
f 948 1046 950
f 950 1046 1047
f 950 1047 952
f 952 1047 1048
f 952 1048 954
f 954 1048 1049
f 954 1049 956
f 956 1049 1050
f 956 1050 958
f 958 1050 1051
f 958 1051 960
f 960 1051 1052
f 960 1052 962
f 962 1052 1053
f 962 1053 964
f 964 1053 1054
f 964 1054 966
f 966 1054 1055
f 966 1055 968
f 968 1055 1056
f 968 1056 970
f 970 1056 1057
f 970 1057 972
f 972 1057 1058
f 972 1058 974
f 974 1058 1059
f 974 1059 976
f 976 1059 1060
f 976 1060 978
f 977 979 1061
f 977 1061 1043
f 978 1060 1062
f 978 1062 980
f 979 981 1063
f 979 1063 1061
f 980 1062 1064
f 980 1064 982
f 981 983 1065
f 981 1065 1063
f 982 1064 1066
f 982 1066 984
f 983 985 1067
f 983 1067 1065
f 984 1066 1068
f 984 1068 986
f 985 987 1069
f 985 1069 1067
f 986 1068 1070
f 986 1070 988
f 987 989 1071
f 987 1071 1069
f 988 1070 1072
f 988 1072 990
f 989 991 1073
f 989 1073 1071
f 990 1072 1074
f 990 1074 992
f 991 993 1075
f 991 1075 1073
f 992 1074 1076
f 992 1076 994
f 993 995 1077
f 993 1077 1075
f 994 1076 1078
f 994 1078 996
f 995 997 1079
f 995 1079 1077
f 996 1078 1080
f 996 1080 998
f 997 999 1081
f 997 1081 1079
f 998 1080 1082
f 998 1082 1000
f 999 1001 1083
f 999 1083 1081
f 1000 1082 1084
f 1000 1084 1002
f 1001 1003 1085
f 1001 1085 1083
f 1002 1084 1086
f 1002 1086 1004
f 1005 1007 1087
f 1005 1087 1088
f 1003 1005 1088
f 1003 1088 1085
f 1007 1010 1089
f 1007 1089 1087
f 1010 1012 1090
f 1010 1090 1089
f 1012 1014 1091
f 1012 1091 1090
f 1014 1016 1092
f 1014 1092 1091
f 1016 1018 1093
f 1016 1093 1092
f 1018 1020 1094
f 1018 1094 1093
f 1020 1022 1095
f 1020 1095 1094
f 1022 1024 1096
f 1022 1096 1095
f 1024 1026 1097
f 1024 1097 1096
f 1026 1028 1098
f 1026 1098 1097
f 1028 1030 1099
f 1028 1099 1098
f 1030 1032 1100
f 1030 1100 1099
f 1032 1034 1101
f 1032 1101 1100
f 1034 1036 1102
f 1034 1102 1101
f 1036 1038 1103
f 1036 1103 1102
f 1038 1006 1104
f 1038 1104 1103
f 1004 1086 1104
f 1004 1104 1006
f 1105 1106 1107
f 1105 1107 1108
f 1041 1105 1106
f 1041 1106 1042
f 1041 1043 1108
f 1041 1108 1105
f 1106 1109 1110
f 1106 1110 1107
f 1042 1106 1109
f 1042 1109 1044
f 1109 1111 1112
f 1109 1112 1110
f 1044 1109 1111
f 1044 1111 1045
f 1111 1113 1114
f 1111 1114 1112
f 1045 1111 1113
f 1045 1113 1046
f 1113 1115 1116
f 1113 1116 1114
f 1046 1113 1115
f 1046 1115 1047
f 1115 1117 1118
f 1115 1118 1116
f 1047 1115 1117
f 1047 1117 1048
f 1117 1119 1120
f 1117 1120 1118
f 1048 1117 1119
f 1048 1119 1049
f 1119 1121 1122
f 1119 1122 1120
f 1049 1119 1121
f 1049 1121 1050
f 1121 1123 1124
f 1121 1124 1122
f 1050 1121 1123
f 1050 1123 1051
f 1123 1125 1126
f 1123 1126 1124
f 1051 1123 1125
f 1051 1125 1052
f 1125 1127 1128
f 1125 1128 1126
f 1052 1125 1127
f 1052 1127 1053
f 1127 1129 1130
f 1127 1130 1128
f 1053 1127 1129
f 1053 1129 1054
f 1129 1131 1132
f 1129 1132 1130
f 1054 1129 1131
f 1054 1131 1055
f 1131 1133 1134
f 1131 1134 1132
f 1055 1131 1133
f 1055 1133 1056
f 1133 1135 1136
f 1133 1136 1134
f 1056 1133 1135
f 1056 1135 1057
f 1135 1137 1138
f 1135 1138 1136
f 1057 1135 1137
f 1057 1137 1058
f 1137 1139 1140
f 1137 1140 1138
f 1058 1137 1139
f 1058 1139 1059
f 1059 1139 1140
f 1059 1140 1060
f 1043 1061 1141
f 1043 1141 1108
f 1060 1140 1142
f 1060 1142 1062
f 1061 1063 1143
f 1061 1143 1141
f 1062 1142 1144
f 1062 1144 1064
f 1063 1065 1145
f 1063 1145 1143
f 1064 1144 1146
f 1064 1146 1066
f 1065 1067 1147
f 1065 1147 1145
f 1066 1146 1148
f 1066 1148 1068
f 1067 1069 1149
f 1067 1149 1147
f 1068 1148 1150
f 1068 1150 1070
f 1069 1071 1151
f 1069 1151 1149
f 1070 1150 1152
f 1070 1152 1072
f 1071 1073 1153
f 1071 1153 1151
f 1072 1152 1154
f 1072 1154 1074
f 1073 1075 1155
f 1073 1155 1153
f 1074 1154 1156
f 1074 1156 1076
f 1075 1077 1157
f 1075 1157 1155
f 1076 1156 1158
f 1076 1158 1078
f 1077 1079 1159
f 1077 1159 1157
f 1078 1158 1160
f 1078 1160 1080
f 1079 1081 1161
f 1079 1161 1159
f 1080 1160 1162
f 1080 1162 1082
f 1081 1083 1163
f 1081 1163 1161
f 1082 1162 1164
f 1082 1164 1084
f 1083 1085 1165
f 1083 1165 1163
f 1084 1164 1166
f 1084 1166 1086
f 1165 1167 1168
f 1165 1168 1169
f 1088 1087 1168
f 1088 1168 1169
f 1085 1088 1169
f 1085 1169 1165
f 1167 1170 1171
f 1167 1171 1168
f 1087 1089 1171
f 1087 1171 1168
f 1170 1172 1173
f 1170 1173 1171
f 1089 1090 1173
f 1089 1173 1171
f 1172 1174 1175
f 1172 1175 1173
f 1090 1091 1175
f 1090 1175 1173
f 1174 1176 1177
f 1174 1177 1175
f 1091 1092 1177
f 1091 1177 1175
f 1176 1178 1179
f 1176 1179 1177
f 1092 1093 1179
f 1092 1179 1177
f 1178 1180 1181
f 1178 1181 1179
f 1093 1094 1181
f 1093 1181 1179
f 1180 1182 1183
f 1180 1183 1181
f 1094 1095 1183
f 1094 1183 1181
f 1182 1184 1185
f 1182 1185 1183
f 1095 1096 1185
f 1095 1185 1183
f 1184 1186 1187
f 1184 1187 1185
f 1096 1097 1187
f 1096 1187 1185
f 1186 1188 1189
f 1186 1189 1187
f 1097 1098 1189
f 1097 1189 1187
f 1188 1190 1191
f 1188 1191 1189
f 1098 1099 1191
f 1098 1191 1189
f 1190 1192 1193
f 1190 1193 1191
f 1099 1100 1193
f 1099 1193 1191
f 1192 1194 1195
f 1192 1195 1193
f 1100 1101 1195
f 1100 1195 1193
f 1194 1196 1197
f 1194 1197 1195
f 1101 1102 1197
f 1101 1197 1195
f 1196 1198 1199
f 1196 1199 1197
f 1102 1103 1199
f 1102 1199 1197
f 1198 1166 1200
f 1198 1200 1199
f 1103 1104 1200
f 1103 1200 1199
f 1086 1166 1200
f 1086 1200 1104
f 1108 1201 1202
f 1108 1202 1107
f 1108 1141 1203
f 1108 1203 1201
f 1107 1202 1204
f 1107 1204 1110
f 1110 1204 1205
f 1110 1205 1112
f 1112 1205 1206
f 1112 1206 1114
f 1114 1206 1207
f 1114 1207 1116
f 1116 1207 1208
f 1116 1208 1118
f 1118 1208 1209
f 1118 1209 1120
f 1120 1209 1210
f 1120 1210 1122
f 1122 1210 1211
f 1122 1211 1124
f 1124 1211 1212
f 1124 1212 1126
f 1126 1212 1213
f 1126 1213 1128
f 1128 1213 1214
f 1128 1214 1130
f 1130 1214 1215
f 1130 1215 1132
f 1132 1215 1216
f 1132 1216 1134
f 1134 1216 1217
f 1134 1217 1136
f 1136 1217 1218
f 1136 1218 1138
f 1138 1218 1219
f 1138 1219 1140
f 1140 1219 1220
f 1140 1220 1142
f 1141 1143 1221
f 1141 1221 1203
f 1142 1220 1222
f 1142 1222 1144
f 1143 1145 1223
f 1143 1223 1221
f 1144 1222 1224
f 1144 1224 1146
f 1145 1147 1225
f 1145 1225 1223
f 1146 1224 1226
f 1146 1226 1148
f 1147 1149 1227
f 1147 1227 1225
f 1148 1226 1228
f 1148 1228 1150
f 1149 1151 1229
f 1149 1229 1227
f 1150 1228 1230
f 1150 1230 1152
f 1151 1153 1231
f 1151 1231 1229
f 1152 1230 1232
f 1152 1232 1154
f 1153 1155 1233
f 1153 1233 1231
f 1154 1232 1234
f 1154 1234 1156
f 1155 1157 1235
f 1155 1235 1233
f 1156 1234 1236
f 1156 1236 1158
f 1157 1159 1237
f 1157 1237 1235
f 1158 1236 1238
f 1158 1238 1160
f 1159 1161 1239
f 1159 1239 1237
f 1160 1238 1240
f 1160 1240 1162
f 1161 1163 1241
f 1161 1241 1239
f 1162 1240 1242
f 1162 1242 1164
f 1165 1167 1243
f 1165 1243 1244
f 1163 1165 1244
f 1163 1244 1241
f 1167 1170 1245
f 1167 1245 1243
f 1170 1172 1246
f 1170 1246 1245
f 1172 1174 1247
f 1172 1247 1246
f 1174 1176 1248
f 1174 1248 1247
f 1176 1178 1249
f 1176 1249 1248
f 1178 1180 1250
f 1178 1250 1249
f 1180 1182 1251
f 1180 1251 1250
f 1182 1184 1252
f 1182 1252 1251
f 1184 1186 1253
f 1184 1253 1252
f 1186 1188 1254
f 1186 1254 1253
f 1188 1190 1255
f 1188 1255 1254
f 1190 1192 1256
f 1190 1256 1255
f 1192 1194 1257
f 1192 1257 1256
f 1194 1196 1258
f 1194 1258 1257
f 1196 1198 1259
f 1196 1259 1258
f 1198 1166 1260
f 1198 1260 1259
f 1164 1242 1260
f 1164 1260 1166
f 1261 1262 1263
f 1261 1263 1264
f 1201 1261 1262
f 1201 1262 1202
f 1201 1203 1264
f 1201 1264 1261
f 1262 1265 1266
f 1262 1266 1263
f 1202 1262 1265
f 1202 1265 1204
f 1265 1267 1268
f 1265 1268 1266
f 1204 1265 1267
f 1204 1267 1205
f 1267 1269 1270
f 1267 1270 1268
f 1205 1267 1269
f 1205 1269 1206
f 1269 1271 1272
f 1269 1272 1270
f 1206 1269 1271
f 1206 1271 1207
f 1271 1273 1274
f 1271 1274 1272
f 1207 1271 1273
f 1207 1273 1208
f 1273 1275 1276
f 1273 1276 1274
f 1208 1273 1275
f 1208 1275 1209
f 1275 1277 1278
f 1275 1278 1276
f 1209 1275 1277
f 1209 1277 1210
f 1277 1279 1280
f 1277 1280 1278
f 1210 1277 1279
f 1210 1279 1211
f 1279 1281 1282
f 1279 1282 1280
f 1211 1279 1281
f 1211 1281 1212
f 1281 1283 1284
f 1281 1284 1282
f 1212 1281 1283
f 1212 1283 1213
f 1283 1285 1286
f 1283 1286 1284
f 1213 1283 1285
f 1213 1285 1214
f 1285 1287 1288
f 1285 1288 1286
f 1214 1285 1287
f 1214 1287 1215
f 1287 1289 1290
f 1287 1290 1288
f 1215 1287 1289
f 1215 1289 1216
f 1289 1291 1292
f 1289 1292 1290
f 1216 1289 1291
f 1216 1291 1217
f 1291 1293 1294
f 1291 1294 1292
f 1217 1291 1293
f 1217 1293 1218
f 1293 1295 1296
f 1293 1296 1294
f 1218 1293 1295
f 1218 1295 1219
f 1219 1295 1296
f 1219 1296 1220
f 1264 1263 1297
f 1264 1297 1298
f 1203 1221 1298
f 1203 1298 1264
f 1263 1266 1299
f 1263 1299 1297
f 1266 1268 1300
f 1266 1300 1299
f 1268 1270 1301
f 1268 1301 1300
f 1270 1272 1302
f 1270 1302 1301
f 1272 1274 1303
f 1272 1303 1302
f 1274 1276 1304
f 1274 1304 1303
f 1276 1278 1305
f 1276 1305 1304
f 1278 1280 1306
f 1278 1306 1305
f 1280 1282 1307
f 1280 1307 1306
f 1282 1284 1308
f 1282 1308 1307
f 1284 1286 1309
f 1284 1309 1308
f 1286 1288 1310
f 1286 1310 1309
f 1288 1290 1311
f 1288 1311 1310
f 1290 1292 1312
f 1290 1312 1311
f 1292 1294 1313
f 1292 1313 1312
f 1294 1296 1314
f 1294 1314 1313
f 1220 1296 1314
f 1220 1314 1222
f 1221 1223 1315
f 1221 1315 1298
f 1222 1314 1316
f 1222 1316 1224
f 1223 1225 1317
f 1223 1317 1315
f 1224 1316 1318
f 1224 1318 1226
f 1225 1227 1319
f 1225 1319 1317
f 1226 1318 1320
f 1226 1320 1228
f 1227 1229 1321
f 1227 1321 1319
f 1228 1320 1322
f 1228 1322 1230
f 1229 1231 1323
f 1229 1323 1321
f 1230 1322 1324
f 1230 1324 1232
f 1231 1233 1325
f 1231 1325 1323
f 1232 1324 1326
f 1232 1326 1234
f 1233 1235 1327
f 1233 1327 1325
f 1234 1326 1328
f 1234 1328 1236
f 1235 1237 1329
f 1235 1329 1327
f 1236 1328 1330
f 1236 1330 1238
f 1237 1239 1331
f 1237 1331 1329
f 1238 1330 1332
f 1238 1332 1240
f 1331 1333 1334
f 1331 1334 1335
f 1239 1241 1335
f 1239 1335 1331
f 1333 1336 1337
f 1333 1337 1334
f 1336 1338 1339
f 1336 1339 1337
f 1338 1340 1341
f 1338 1341 1339
f 1340 1342 1343
f 1340 1343 1341
f 1342 1344 1345
f 1342 1345 1343
f 1344 1346 1347
f 1344 1347 1345
f 1346 1348 1349
f 1346 1349 1347
f 1348 1350 1351
f 1348 1351 1349
f 1350 1352 1353
f 1350 1353 1351
f 1352 1354 1355
f 1352 1355 1353
f 1354 1356 1357
f 1354 1357 1355
f 1356 1358 1359
f 1356 1359 1357
f 1358 1360 1361
f 1358 1361 1359
f 1360 1362 1363
f 1360 1363 1361
f 1362 1364 1365
f 1362 1365 1363
f 1364 1332 1366
f 1364 1366 1365
f 1240 1332 1366
f 1240 1366 1242
f 1335 1334 1367
f 1335 1367 1368
f 1244 1243 1367
f 1244 1367 1368
f 1241 1244 1368
f 1241 1368 1335
f 1334 1337 1369
f 1334 1369 1367
f 1243 1245 1369
f 1243 1369 1367
f 1337 1339 1370
f 1337 1370 1369
f 1245 1246 1370
f 1245 1370 1369
f 1339 1341 1371
f 1339 1371 1370
f 1246 1247 1371
f 1246 1371 1370
f 1341 1343 1372
f 1341 1372 1371
f 1247 1248 1372
f 1247 1372 1371
f 1343 1345 1373
f 1343 1373 1372
f 1248 1249 1373
f 1248 1373 1372
f 1345 1347 1374
f 1345 1374 1373
f 1249 1250 1374
f 1249 1374 1373
f 1347 1349 1375
f 1347 1375 1374
f 1250 1251 1375
f 1250 1375 1374
f 1349 1351 1376
f 1349 1376 1375
f 1251 1252 1376
f 1251 1376 1375
f 1351 1353 1377
f 1351 1377 1376
f 1252 1253 1377
f 1252 1377 1376
f 1353 1355 1378
f 1353 1378 1377
f 1253 1254 1378
f 1253 1378 1377
f 1355 1357 1379
f 1355 1379 1378
f 1254 1255 1379
f 1254 1379 1378
f 1357 1359 1380
f 1357 1380 1379
f 1255 1256 1380
f 1255 1380 1379
f 1359 1361 1381
f 1359 1381 1380
f 1256 1257 1381
f 1256 1381 1380
f 1361 1363 1382
f 1361 1382 1381
f 1257 1258 1382
f 1257 1382 1381
f 1363 1365 1383
f 1363 1383 1382
f 1258 1259 1383
f 1258 1383 1382
f 1365 1366 1384
f 1365 1384 1383
f 1259 1260 1384
f 1259 1384 1383
f 1242 1366 1384
f 1242 1384 1260
f 1385 1386 1387
f 1385 1387 1388
f 1298 1385 1386
f 1298 1386 1297
f 1298 1315 1388
f 1298 1388 1385
f 1386 1389 1390
f 1386 1390 1387
f 1297 1386 1389
f 1297 1389 1299
f 1389 1391 1392
f 1389 1392 1390
f 1299 1389 1391
f 1299 1391 1300
f 1391 1393 1394
f 1391 1394 1392
f 1300 1391 1393
f 1300 1393 1301
f 1393 1395 1396
f 1393 1396 1394
f 1301 1393 1395
f 1301 1395 1302
f 1395 1397 1398
f 1395 1398 1396
f 1302 1395 1397
f 1302 1397 1303
f 1397 1399 1400
f 1397 1400 1398
f 1303 1397 1399
f 1303 1399 1304
f 1399 1401 1402
f 1399 1402 1400
f 1304 1399 1401
f 1304 1401 1305
f 1401 1403 1404
f 1401 1404 1402
f 1305 1401 1403
f 1305 1403 1306
f 1403 1405 1406
f 1403 1406 1404
f 1306 1403 1405
f 1306 1405 1307
f 1405 1407 1408
f 1405 1408 1406
f 1307 1405 1407
f 1307 1407 1308
f 1407 1409 1410
f 1407 1410 1408
f 1308 1407 1409
f 1308 1409 1309
f 1409 1411 1412
f 1409 1412 1410
f 1309 1409 1411
f 1309 1411 1310
f 1411 1413 1414
f 1411 1414 1412
f 1310 1411 1413
f 1310 1413 1311
f 1413 1415 1416
f 1413 1416 1414
f 1311 1413 1415
f 1311 1415 1312
f 1415 1417 1418
f 1415 1418 1416
f 1312 1415 1417
f 1312 1417 1313
f 1417 1419 1420
f 1417 1420 1418
f 1313 1417 1419
f 1313 1419 1314
f 1314 1419 1420
f 1314 1420 1316
f 1388 1387 1421
f 1388 1421 1422
f 1315 1317 1422
f 1315 1422 1388
f 1387 1390 1423
f 1387 1423 1421
f 1390 1392 1424
f 1390 1424 1423
f 1392 1394 1425
f 1392 1425 1424
f 1394 1396 1426
f 1394 1426 1425
f 1396 1398 1427
f 1396 1427 1426
f 1398 1400 1428
f 1398 1428 1427
f 1400 1402 1429
f 1400 1429 1428
f 1402 1404 1430
f 1402 1430 1429
f 1404 1406 1431
f 1404 1431 1430
f 1406 1408 1432
f 1406 1432 1431
f 1408 1410 1433
f 1408 1433 1432
f 1410 1412 1434
f 1410 1434 1433
f 1412 1414 1435
f 1412 1435 1434
f 1414 1416 1436
f 1414 1436 1435
f 1416 1418 1437
f 1416 1437 1436
f 1418 1420 1438
f 1418 1438 1437
f 1316 1420 1438
f 1316 1438 1318
f 1317 1319 1439
f 1317 1439 1422
f 1318 1438 1440
f 1318 1440 1320
f 1319 1321 1441
f 1319 1441 1439
f 1320 1440 1442
f 1320 1442 1322
f 1321 1323 1443
f 1321 1443 1441
f 1322 1442 1444
f 1322 1444 1324
f 1323 1325 1445
f 1323 1445 1443
f 1324 1444 1446
f 1324 1446 1326
f 1325 1327 1447
f 1325 1447 1445
f 1326 1446 1448
f 1326 1448 1328
f 1447 1449 1450
f 1447 1450 1451
f 1327 1329 1451
f 1327 1451 1447
f 1449 1452 1453
f 1449 1453 1450
f 1452 1454 1455
f 1452 1455 1453
f 1454 1456 1457
f 1454 1457 1455
f 1456 1458 1459
f 1456 1459 1457
f 1458 1460 1461
f 1458 1461 1459
f 1460 1462 1463
f 1460 1463 1461
f 1462 1464 1465
f 1462 1465 1463
f 1464 1466 1467
f 1464 1467 1465
f 1466 1468 1469
f 1466 1469 1467
f 1468 1470 1471
f 1468 1471 1469
f 1470 1472 1473
f 1470 1473 1471
f 1472 1474 1475
f 1472 1475 1473
f 1474 1476 1477
f 1474 1477 1475
f 1476 1478 1479
f 1476 1479 1477
f 1478 1480 1481
f 1478 1481 1479
f 1480 1448 1482
f 1480 1482 1481
f 1328 1448 1482
f 1328 1482 1330
f 1451 1450 1483
f 1451 1483 1484
f 1331 1333 1483
f 1331 1483 1484
f 1329 1331 1484
f 1329 1484 1451
f 1450 1453 1485
f 1450 1485 1483
f 1333 1336 1485
f 1333 1485 1483
f 1453 1455 1486
f 1453 1486 1485
f 1336 1338 1486
f 1336 1486 1485
f 1455 1457 1487
f 1455 1487 1486
f 1338 1340 1487
f 1338 1487 1486
f 1457 1459 1488
f 1457 1488 1487
f 1340 1342 1488
f 1340 1488 1487
f 1459 1461 1489
f 1459 1489 1488
f 1342 1344 1489
f 1342 1489 1488
f 1461 1463 1490
f 1461 1490 1489
f 1344 1346 1490
f 1344 1490 1489
f 1463 1465 1491
f 1463 1491 1490
f 1346 1348 1491
f 1346 1491 1490
f 1465 1467 1492
f 1465 1492 1491
f 1348 1350 1492
f 1348 1492 1491
f 1467 1469 1493
f 1467 1493 1492
f 1350 1352 1493
f 1350 1493 1492
f 1469 1471 1494
f 1469 1494 1493
f 1352 1354 1494
f 1352 1494 1493
f 1471 1473 1495
f 1471 1495 1494
f 1354 1356 1495
f 1354 1495 1494
f 1473 1475 1496
f 1473 1496 1495
f 1356 1358 1496
f 1356 1496 1495
f 1475 1477 1497
f 1475 1497 1496
f 1358 1360 1497
f 1358 1497 1496
f 1477 1479 1498
f 1477 1498 1497
f 1360 1362 1498
f 1360 1498 1497
f 1479 1481 1499
f 1479 1499 1498
f 1362 1364 1499
f 1362 1499 1498
f 1481 1482 1500
f 1481 1500 1499
f 1364 1332 1500
f 1364 1500 1499
f 1330 1482 1500
f 1330 1500 1332
f 1501 1502 1503
f 1501 1503 1504
f 1422 1501 1502
f 1422 1502 1421
f 1422 1439 1504
f 1422 1504 1501
f 1502 1505 1506
f 1502 1506 1503
f 1421 1502 1505
f 1421 1505 1423
f 1505 1507 1508
f 1505 1508 1506
f 1423 1505 1507
f 1423 1507 1424
f 1507 1509 1510
f 1507 1510 1508
f 1424 1507 1509
f 1424 1509 1425
f 1509 1511 1512
f 1509 1512 1510
f 1425 1509 1511
f 1425 1511 1426
f 1511 1513 1514
f 1511 1514 1512
f 1426 1511 1513
f 1426 1513 1427
f 1513 1515 1516
f 1513 1516 1514
f 1427 1513 1515
f 1427 1515 1428
f 1515 1517 1518
f 1515 1518 1516
f 1428 1515 1517
f 1428 1517 1429
f 1517 1519 1520
f 1517 1520 1518
f 1429 1517 1519
f 1429 1519 1430
f 1519 1521 1522
f 1519 1522 1520
f 1430 1519 1521
f 1430 1521 1431
f 1521 1523 1524
f 1521 1524 1522
f 1431 1521 1523
f 1431 1523 1432
f 1523 1525 1526
f 1523 1526 1524
f 1432 1523 1525
f 1432 1525 1433
f 1525 1527 1528
f 1525 1528 1526
f 1433 1525 1527
f 1433 1527 1434
f 1527 1529 1530
f 1527 1530 1528
f 1434 1527 1529
f 1434 1529 1435
f 1529 1531 1532
f 1529 1532 1530
f 1435 1529 1531
f 1435 1531 1436
f 1531 1533 1534
f 1531 1534 1532
f 1436 1531 1533
f 1436 1533 1437
f 1533 1535 1536
f 1533 1536 1534
f 1437 1533 1535
f 1437 1535 1438
f 1438 1535 1536
f 1438 1536 1440
f 1504 1503 1537
f 1504 1537 1538
f 1439 1441 1538
f 1439 1538 1504
f 1503 1506 1539
f 1503 1539 1537
f 1506 1508 1540
f 1506 1540 1539
f 1508 1510 1541
f 1508 1541 1540
f 1510 1512 1542
f 1510 1542 1541
f 1512 1514 1543
f 1512 1543 1542
f 1514 1516 1544
f 1514 1544 1543
f 1516 1518 1545
f 1516 1545 1544
f 1518 1520 1546
f 1518 1546 1545
f 1520 1522 1547
f 1520 1547 1546
f 1522 1524 1548
f 1522 1548 1547
f 1524 1526 1549
f 1524 1549 1548
f 1526 1528 1550
f 1526 1550 1549
f 1528 1530 1551
f 1528 1551 1550
f 1530 1532 1552
f 1530 1552 1551
f 1532 1534 1553
f 1532 1553 1552
f 1534 1536 1554
f 1534 1554 1553
f 1440 1536 1554
f 1440 1554 1442
f 1538 1537 1555
f 1538 1555 1556
f 1441 1443 1556
f 1441 1556 1538
f 1537 1539 1557
f 1537 1557 1555
f 1539 1540 1558
f 1539 1558 1557
f 1540 1541 1559
f 1540 1559 1558
f 1541 1542 1560
f 1541 1560 1559
f 1542 1543 1561
f 1542 1561 1560
f 1543 1544 1562
f 1543 1562 1561
f 1544 1545 1563
f 1544 1563 1562
f 1545 1546 1564
f 1545 1564 1563
f 1546 1547 1565
f 1546 1565 1564
f 1547 1548 1566
f 1547 1566 1565
f 1548 1549 1567
f 1548 1567 1566
f 1549 1550 1568
f 1549 1568 1567
f 1550 1551 1569
f 1550 1569 1568
f 1551 1552 1570
f 1551 1570 1569
f 1552 1553 1571
f 1552 1571 1570
f 1553 1554 1572
f 1553 1572 1571
f 1442 1554 1572
f 1442 1572 1444
f 1556 1555 1573
f 1556 1573 1574
f 1443 1445 1574
f 1443 1574 1556
f 1555 1557 1575
f 1555 1575 1573
f 1557 1558 1576
f 1557 1576 1575
f 1558 1559 1577
f 1558 1577 1576
f 1559 1560 1578
f 1559 1578 1577
f 1560 1561 1579
f 1560 1579 1578
f 1561 1562 1580
f 1561 1580 1579
f 1562 1563 1581
f 1562 1581 1580
f 1563 1564 1582
f 1563 1582 1581
f 1564 1565 1583
f 1564 1583 1582
f 1565 1566 1584
f 1565 1584 1583
f 1566 1567 1585
f 1566 1585 1584
f 1567 1568 1586
f 1567 1586 1585
f 1568 1569 1587
f 1568 1587 1586
f 1569 1570 1588
f 1569 1588 1587
f 1570 1571 1589
f 1570 1589 1588
f 1571 1572 1590
f 1571 1590 1589
f 1444 1572 1590
f 1444 1590 1446
f 1574 1573 1591
f 1574 1591 1592
f 1447 1449 1591
f 1447 1591 1592
f 1445 1447 1592
f 1445 1592 1574
f 1573 1575 1593
f 1573 1593 1591
f 1449 1452 1593
f 1449 1593 1591
f 1575 1576 1594
f 1575 1594 1593
f 1452 1454 1594
f 1452 1594 1593
f 1576 1577 1595
f 1576 1595 1594
f 1454 1456 1595
f 1454 1595 1594
f 1577 1578 1596
f 1577 1596 1595
f 1456 1458 1596
f 1456 1596 1595
f 1578 1579 1597
f 1578 1597 1596
f 1458 1460 1597
f 1458 1597 1596
f 1579 1580 1598
f 1579 1598 1597
f 1460 1462 1598
f 1460 1598 1597
f 1580 1581 1599
f 1580 1599 1598
f 1462 1464 1599
f 1462 1599 1598
f 1581 1582 1600
f 1581 1600 1599
f 1464 1466 1600
f 1464 1600 1599
f 1582 1583 1601
f 1582 1601 1600
f 1466 1468 1601
f 1466 1601 1600
f 1583 1584 1602
f 1583 1602 1601
f 1468 1470 1602
f 1468 1602 1601
f 1584 1585 1603
f 1584 1603 1602
f 1470 1472 1603
f 1470 1603 1602
f 1585 1586 1604
f 1585 1604 1603
f 1472 1474 1604
f 1472 1604 1603
f 1586 1587 1605
f 1586 1605 1604
f 1474 1476 1605
f 1474 1605 1604
f 1587 1588 1606
f 1587 1606 1605
f 1476 1478 1606
f 1476 1606 1605
f 1588 1589 1607
f 1588 1607 1606
f 1478 1480 1607
f 1478 1607 1606
f 1589 1590 1608
f 1589 1608 1607
f 1480 1448 1608
f 1480 1608 1607
f 1446 1590 1608
f 1446 1608 1448
