o [4B] 3D Diagram - S2-06 Group A_353
v -18.427500 4.856750 147.330000
v -18.427500 5.241500 147.330000
v -18.427500 5.241500 148.275000
v -18.427500 4.856750 148.275000
v -15.795000 4.856750 147.330000
v -15.795000 4.856750 148.275000
v -15.795000 5.241500 148.275000
v -15.795000 5.241500 147.330000
v -18.427500 5.241500 149.220000
v -18.427500 4.856750 149.220000
v -15.795000 4.856750 149.220000
v -15.795000 5.241500 149.220000
v -18.427500 5.241500 150.165000
v -18.427500 4.856750 150.165000
v -15.795000 4.856750 150.165000
v -15.795000 5.241500 150.165000
v -18.427500 5.241500 151.110000
v -18.427500 4.856750 151.110000
v -15.795000 4.856750 151.110000
v -15.795000 5.241500 151.110000
v -18.427500 5.241500 152.055000
v -18.427500 4.856750 152.055000
v -15.795000 4.856750 152.055000
v -18.427500 5.241500 153.000000
v -18.427500 4.856750 153.000000
v -15.795000 4.856750 153.000000
v -18.427500 5.241500 153.945000
v -18.427500 4.856750 153.945000
v -15.795000 4.856750 153.945000
v -18.427500 5.241500 154.890000
v -18.427500 4.856750 154.890000
v -15.795000 4.856750 154.890000
v -18.427500 5.241500 155.835000
v -18.427500 4.856750 155.835000
v -15.795000 4.856750 155.835000
v -18.427500 5.241500 156.780000
v -18.427500 4.856750 156.780000
v -15.795000 4.856750 156.780000
v -18.427500 5.241500 157.725000
v -18.427500 4.856750 157.725000
v -15.795000 4.856750 157.725000
v -18.427500 5.241500 158.670000
v -18.427500 4.856750 158.670000
v -15.795000 4.856750 158.670000
v -18.427500 5.241500 159.615000
v -18.427500 4.856750 159.615000
v -15.795000 4.856750 159.615000
v -15.795000 5.241500 159.615000
v -18.427500 5.626250 151.110000
v -18.427500 5.626250 152.055000
v -15.795000 5.626250 152.055000
v -15.795000 5.626250 151.110000
v -18.427500 5.626250 153.000000
v -15.795000 5.626250 153.000000
v -18.427500 5.626250 153.945000
v -15.795000 5.626250 153.945000
v -18.427500 5.626250 154.890000
v -18.427500 5.626250 155.835000
v -18.427500 5.626250 156.780000
v -18.427500 5.626250 157.725000
v -18.427500 5.626250 158.670000
v -18.427500 5.626250 159.615000
v -15.795000 5.626250 159.615000
v -18.427500 6.011000 153.945000
v -18.427500 6.011000 154.890000
v -15.795000 6.011000 154.890000
v -15.795000 6.011000 153.945000
v -18.427500 6.011000 155.835000
v -15.795000 6.011000 155.835000
v -18.427500 6.011000 156.780000
v -18.427500 6.011000 157.725000
v -18.427500 6.011000 158.670000
v -18.427500 6.011000 159.615000
v -15.795000 6.011000 159.615000
v -18.427500 6.395750 155.835000
v -18.427500 6.395750 156.780000
v -15.795000 6.395750 156.780000
v -15.795000 6.395750 155.835000
v -18.427500 6.395750 157.725000
v -15.795000 6.395750 157.725000
v -18.427500 6.395750 158.670000
v -18.427500 6.395750 159.615000
v -15.795000 6.395750 159.615000
v -18.427500 6.780500 157.725000
v -18.427500 6.780500 158.670000
v -15.795000 6.780500 158.670000
v -15.795000 6.780500 157.725000
v -18.427500 6.780500 159.615000
v -15.795000 6.780500 159.615000
v -18.427500 7.165250 158.670000
v -18.427500 7.165250 159.615000
v -15.795000 7.165250 158.670000
v -15.795000 7.165250 159.615000
v -18.427500 7.550000 158.670000
v -18.427500 7.550000 159.615000
v -15.795000 7.550000 158.670000
v -15.795000 7.550000 159.615000
v -18.427500 7.934750 158.670000
v -18.427500 7.934750 159.615000
v -15.795000 7.934750 158.670000
v -15.795000 7.934750 159.615000
v -18.427500 8.319500 158.670000
v -18.427500 8.319500 159.615000
v -15.795000 8.319500 158.670000
v -15.795000 8.319500 159.615000
v -18.427500 8.319500 156.780000
v -18.427500 8.704250 156.780000
v -18.427500 8.704250 157.725000
v -18.427500 8.319500 157.725000
v -15.795000 8.319500 156.780000
v -15.795000 8.319500 157.725000
v -15.795000 8.704250 156.780000
v -18.427500 8.704250 158.670000
v -18.427500 8.704250 159.615000
v -15.795000 8.704250 159.615000
v -18.427500 8.704250 154.890000
v -18.427500 9.089000 154.890000
v -18.427500 9.089000 155.835000
v -18.427500 8.704250 155.835000
v -15.795000 8.704250 154.890000
v -15.795000 8.704250 155.835000
v -15.795000 9.089000 154.890000
v -18.427500 9.089000 156.780000
v -18.427500 9.089000 157.725000
v -18.427500 9.089000 158.670000
v -18.427500 9.089000 159.615000
v -15.795000 9.089000 159.615000
v -18.427500 9.089000 153.000000
v -18.427500 9.473750 153.000000
v -18.427500 9.473750 153.945000
v -18.427500 9.089000 153.945000
v -15.795000 9.089000 153.000000
v -15.795000 9.089000 153.945000
v -15.795000 9.473750 153.000000
v -18.427500 9.473750 154.890000
v -18.427500 9.473750 155.835000
v -18.427500 9.473750 156.780000
v -18.427500 9.473750 157.725000
v -18.427500 9.473750 158.670000
v -18.427500 9.473750 159.615000
v -15.795000 9.473750 159.615000
v -18.427500 9.473750 150.165000
v -18.427500 9.858500 150.165000
v -18.427500 9.858500 151.110000
v -18.427500 9.473750 151.110000
v -15.795000 9.473750 150.165000
v -15.795000 9.473750 151.110000
v -15.795000 9.858500 150.165000
v -18.427500 9.858500 152.055000
v -18.427500 9.473750 152.055000
v -15.795000 9.473750 152.055000
v -18.427500 9.858500 153.000000
v -18.427500 9.858500 153.945000
v -18.427500 9.858500 154.890000
v -18.427500 9.858500 155.835000
v -18.427500 9.858500 156.780000
v -18.427500 9.858500 157.725000
v -18.427500 9.858500 158.670000
v -18.427500 9.858500 159.615000
v -15.795000 9.858500 159.615000
v -18.427500 9.858500 146.385000
v -18.427500 10.243250 146.385000
v -18.427500 10.243250 147.330000
v -18.427500 9.858500 147.330000
v -15.795000 9.858500 146.385000
v -15.795000 9.858500 147.330000
v -15.795000 10.243250 147.330000
v -15.795000 10.243250 146.385000
v -18.427500 10.243250 148.275000
v -18.427500 9.858500 148.275000
v -15.795000 9.858500 148.275000
v -15.795000 10.243250 148.275000
v -18.427500 10.243250 149.220000
v -18.427500 9.858500 149.220000
v -15.795000 9.858500 149.220000
v -15.795000 10.243250 149.220000
v -18.427500 10.243250 150.165000
v -15.795000 10.243250 150.165000
v -18.427500 10.243250 151.110000
v -15.795000 10.243250 151.110000
v -18.427500 10.243250 152.055000
v -15.795000 10.243250 152.055000
v -18.427500 10.243250 153.000000
v -15.795000 10.243250 153.000000
v -18.427500 10.243250 153.945000
v -15.795000 10.243250 153.945000
v -18.427500 10.243250 154.890000
v -15.795000 10.243250 154.890000
v -18.427500 10.243250 155.835000
v -15.795000 10.243250 155.835000
v -18.427500 10.243250 156.780000
v -15.795000 10.243250 156.780000
v -18.427500 10.243250 157.725000
v -15.795000 10.243250 157.725000
v -18.427500 10.243250 158.670000
v -15.795000 10.243250 158.670000
v -18.427500 10.243250 159.615000
v -15.795000 10.243250 159.615000
v -13.162500 4.856750 147.330000
v -13.162500 4.856750 148.275000
v -13.162500 5.241500 148.275000
v -13.162500 5.241500 147.330000
v -13.162500 4.856750 149.220000
v -13.162500 5.241500 149.220000
v -13.162500 4.856750 150.165000
v -13.162500 5.241500 150.165000
v -13.162500 4.856750 151.110000
v -13.162500 5.241500 151.110000
v -13.162500 4.856750 152.055000
v -13.162500 4.856750 153.000000
v -13.162500 4.856750 153.945000
v -13.162500 4.856750 154.890000
v -13.162500 4.856750 155.835000
v -13.162500 4.856750 156.780000
v -13.162500 4.856750 157.725000
v -13.162500 4.856750 158.670000
v -13.162500 4.856750 159.615000
v -13.162500 5.241500 159.615000
v -13.162500 5.626250 152.055000
v -13.162500 5.626250 151.110000
v -13.162500 5.626250 153.000000
v -13.162500 5.626250 153.945000
v -13.162500 5.626250 159.615000
v -13.162500 6.011000 154.890000
v -13.162500 6.011000 153.945000
v -13.162500 6.011000 155.835000
v -13.162500 6.011000 159.615000
v -13.162500 6.395750 156.780000
v -13.162500 6.395750 155.835000
v -13.162500 6.395750 157.725000
v -13.162500 6.395750 159.615000
v -13.162500 6.780500 158.670000
v -13.162500 6.780500 157.725000
v -13.162500 6.780500 159.615000
v -13.162500 7.165250 158.670000
v -13.162500 7.165250 159.615000
v -13.162500 7.550000 158.670000
v -13.162500 7.550000 159.615000
v -13.162500 7.934750 158.670000
v -13.162500 7.934750 159.615000
v -13.162500 8.319500 158.670000
v -13.162500 8.319500 159.615000
v -13.162500 8.319500 156.780000
v -13.162500 8.319500 157.725000
v -13.162500 8.704250 156.780000
v -13.162500 8.704250 159.615000
v -13.162500 8.704250 154.890000
v -13.162500 8.704250 155.835000
v -13.162500 9.089000 154.890000
v -13.162500 9.089000 159.615000
v -13.162500 9.089000 153.000000
v -13.162500 9.089000 153.945000
v -13.162500 9.473750 153.000000
v -13.162500 9.473750 159.615000
v -13.162500 9.473750 150.165000
v -13.162500 9.473750 151.110000
v -13.162500 9.858500 150.165000
v -13.162500 9.473750 152.055000
v -13.162500 9.858500 159.615000
v -13.162500 9.858500 146.385000
v -13.162500 9.858500 147.330000
v -13.162500 10.243250 147.330000
v -13.162500 10.243250 146.385000
v -13.162500 9.858500 148.275000
v -13.162500 10.243250 148.275000
v -13.162500 9.858500 149.220000
v -13.162500 10.243250 149.220000
v -13.162500 10.243250 150.165000
v -13.162500 10.243250 151.110000
v -13.162500 10.243250 152.055000
v -13.162500 10.243250 153.000000
v -13.162500 10.243250 153.945000
v -13.162500 10.243250 154.890000
v -13.162500 10.243250 155.835000
v -13.162500 10.243250 156.780000
v -13.162500 10.243250 157.725000
v -13.162500 10.243250 158.670000
v -13.162500 10.243250 159.615000
v -10.530000 4.856750 147.330000
v -10.530000 4.856750 148.275000
v -10.530000 5.241500 148.275000
v -10.530000 5.241500 147.330000
v -10.530000 4.856750 149.220000
v -10.530000 5.241500 149.220000
v -10.530000 4.856750 150.165000
v -10.530000 5.241500 150.165000
v -10.530000 4.856750 151.110000
v -10.530000 5.241500 151.110000
v -10.530000 4.856750 152.055000
v -10.530000 4.856750 153.000000
v -10.530000 4.856750 153.945000
v -10.530000 4.856750 154.890000
v -10.530000 4.856750 155.835000
v -10.530000 4.856750 156.780000
v -10.530000 4.856750 157.725000
v -10.530000 4.856750 158.670000
v -10.530000 4.856750 159.615000
v -10.530000 5.241500 159.615000
v -10.530000 5.626250 152.055000
v -10.530000 5.626250 151.110000
v -10.530000 5.626250 153.000000
v -10.530000 5.626250 153.945000
v -10.530000 5.626250 159.615000
v -10.530000 6.011000 154.890000
v -10.530000 6.011000 153.945000
v -10.530000 6.011000 155.835000
v -10.530000 6.011000 159.615000
v -10.530000 6.395750 156.780000
v -10.530000 6.395750 155.835000
v -10.530000 6.395750 157.725000
v -10.530000 6.395750 159.615000
v -10.530000 6.780500 158.670000
v -10.530000 6.780500 157.725000
v -10.530000 6.780500 159.615000
v -10.530000 7.165250 158.670000
v -10.530000 7.165250 159.615000
v -10.530000 7.550000 158.670000
v -10.530000 7.550000 159.615000
v -10.530000 7.934750 158.670000
v -10.530000 7.934750 159.615000
v -10.530000 8.319500 158.670000
v -10.530000 8.319500 159.615000
v -10.530000 8.319500 156.780000
v -10.530000 8.319500 157.725000
v -10.530000 8.704250 156.780000
v -10.530000 8.704250 159.615000
v -10.530000 8.704250 154.890000
v -10.530000 8.704250 155.835000
v -10.530000 9.089000 154.890000
v -10.530000 9.089000 159.615000
v -10.530000 9.089000 153.000000
v -10.530000 9.089000 153.945000
v -10.530000 9.473750 153.000000
v -10.530000 9.473750 159.615000
v -10.530000 9.473750 150.165000
v -10.530000 9.473750 151.110000
v -10.530000 9.858500 150.165000
v -10.530000 9.473750 152.055000
v -10.530000 9.858500 159.615000
v -10.530000 9.858500 146.385000
v -10.530000 9.858500 147.330000
v -10.530000 10.243250 147.330000
v -10.530000 10.243250 146.385000
v -10.530000 9.858500 148.275000
v -10.530000 10.243250 148.275000
v -10.530000 9.858500 149.220000
v -10.530000 10.243250 149.220000
v -10.530000 10.243250 150.165000
v -10.530000 10.243250 151.110000
v -10.530000 10.243250 152.055000
v -10.530000 10.243250 153.000000
v -10.530000 10.243250 153.945000
v -10.530000 10.243250 154.890000
v -10.530000 10.243250 155.835000
v -10.530000 10.243250 156.780000
v -10.530000 10.243250 157.725000
v -10.530000 10.243250 158.670000
v -10.530000 10.243250 159.615000
v -7.897500 4.856750 147.330000
v -7.897500 4.856750 148.275000
v -7.897500 5.241500 148.275000
v -7.897500 5.241500 147.330000
v -7.897500 4.856750 149.220000
v -7.897500 5.241500 149.220000
v -7.897500 4.856750 150.165000
v -7.897500 5.241500 150.165000
v -7.897500 4.856750 151.110000
v -7.897500 5.241500 151.110000
v -7.897500 4.856750 152.055000
v -7.897500 4.856750 153.000000
v -7.897500 4.856750 153.945000
v -7.897500 4.856750 154.890000
v -7.897500 4.856750 155.835000
v -7.897500 4.856750 156.780000
v -7.897500 4.856750 157.725000
v -7.897500 4.856750 158.670000
v -7.897500 4.856750 159.615000
v -7.897500 5.241500 159.615000
v -7.897500 5.626250 152.055000
v -7.897500 5.626250 151.110000
v -7.897500 5.626250 153.000000
v -7.897500 5.626250 153.945000
v -7.897500 5.626250 159.615000
v -7.897500 6.011000 154.890000
v -7.897500 6.011000 153.945000
v -7.897500 6.011000 155.835000
v -7.897500 6.011000 159.615000
v -7.897500 6.395750 156.780000
v -7.897500 6.395750 155.835000
v -7.897500 6.395750 157.725000
v -7.897500 6.395750 159.615000
v -7.897500 6.780500 158.670000
v -7.897500 6.780500 157.725000
v -7.897500 6.780500 159.615000
v -7.897500 7.165250 158.670000
v -7.897500 7.165250 159.615000
v -7.897500 7.550000 158.670000
v -7.897500 7.550000 159.615000
v -7.897500 7.934750 158.670000
v -7.897500 7.934750 159.615000
v -7.897500 8.319500 158.670000
v -7.897500 8.319500 159.615000
v -7.897500 8.319500 156.780000
v -7.897500 8.319500 157.725000
v -7.897500 8.704250 156.780000
v -7.897500 8.704250 159.615000
v -7.897500 8.704250 154.890000
v -7.897500 8.704250 155.835000
v -7.897500 9.089000 154.890000
v -7.897500 9.089000 159.615000
v -7.897500 9.089000 153.000000
v -7.897500 9.089000 153.945000
v -7.897500 9.473750 153.000000
v -7.897500 9.473750 159.615000
v -7.897500 9.473750 150.165000
v -7.897500 9.473750 151.110000
v -7.897500 9.858500 150.165000
v -7.897500 9.473750 152.055000
v -7.897500 9.858500 159.615000
v -7.897500 9.858500 146.385000
v -7.897500 9.858500 147.330000
v -7.897500 10.243250 147.330000
v -7.897500 10.243250 146.385000
v -7.897500 9.858500 148.275000
v -7.897500 10.243250 148.275000
v -7.897500 9.858500 149.220000
v -7.897500 10.243250 149.220000
v -7.897500 10.243250 150.165000
v -7.897500 10.243250 151.110000
v -7.897500 10.243250 152.055000
v -7.897500 10.243250 153.000000
v -7.897500 10.243250 153.945000
v -7.897500 10.243250 154.890000
v -7.897500 10.243250 155.835000
v -7.897500 10.243250 156.780000
v -7.897500 10.243250 157.725000
v -7.897500 10.243250 158.670000
v -7.897500 10.243250 159.615000
v -5.265000 4.856750 147.330000
v -5.265000 4.856750 148.275000
v -5.265000 5.241500 148.275000
v -5.265000 5.241500 147.330000
v -5.265000 4.856750 149.220000
v -5.265000 5.241500 149.220000
v -5.265000 4.856750 150.165000
v -5.265000 5.241500 150.165000
v -5.265000 4.856750 151.110000
v -5.265000 5.241500 151.110000
v -5.265000 4.856750 152.055000
v -5.265000 4.856750 153.000000
v -5.265000 4.856750 153.945000
v -5.265000 4.856750 154.890000
v -5.265000 4.856750 155.835000
v -5.265000 4.856750 156.780000
v -5.265000 4.856750 157.725000
v -5.265000 4.856750 158.670000
v -5.265000 4.856750 159.615000
v -5.265000 5.241500 159.615000
v -5.265000 5.626250 152.055000
v -5.265000 5.626250 151.110000
v -5.265000 5.626250 153.000000
v -5.265000 5.626250 153.945000
v -5.265000 5.626250 159.615000
v -5.265000 6.011000 154.890000
v -5.265000 6.011000 153.945000
v -5.265000 6.011000 155.835000
v -5.265000 6.011000 159.615000
v -5.265000 6.395750 156.780000
v -5.265000 6.395750 155.835000
v -5.265000 6.395750 157.725000
v -5.265000 6.395750 159.615000
v -5.265000 6.780500 158.670000
v -5.265000 6.780500 157.725000
v -5.265000 6.780500 159.615000
v -5.265000 7.165250 158.670000
v -5.265000 7.165250 159.615000
v -5.265000 7.550000 158.670000
v -5.265000 7.550000 159.615000
v -5.265000 7.934750 158.670000
v -5.265000 7.934750 159.615000
v -5.265000 8.319500 158.670000
v -5.265000 8.319500 159.615000
v -5.265000 8.319500 156.780000
v -5.265000 8.319500 157.725000
v -5.265000 8.704250 156.780000
v -5.265000 8.704250 159.615000
v -5.265000 8.704250 154.890000
v -5.265000 8.704250 155.835000
v -5.265000 9.089000 154.890000
v -5.265000 9.089000 159.615000
v -5.265000 9.089000 153.000000
v -5.265000 9.089000 153.945000
v -5.265000 9.473750 153.000000
v -5.265000 9.473750 159.615000
v -5.265000 9.473750 150.165000
v -5.265000 9.473750 151.110000
v -5.265000 9.858500 150.165000
v -5.265000 9.473750 152.055000
v -5.265000 9.858500 159.615000
v -5.265000 9.858500 146.385000
v -5.265000 9.858500 147.330000
v -5.265000 10.243250 147.330000
v -5.265000 10.243250 146.385000
v -5.265000 9.858500 148.275000
v -5.265000 10.243250 148.275000
v -5.265000 9.858500 149.220000
v -5.265000 10.243250 149.220000
v -5.265000 10.243250 150.165000
v -5.265000 10.243250 151.110000
v -5.265000 10.243250 152.055000
v -5.265000 10.243250 153.000000
v -5.265000 10.243250 153.945000
v -5.265000 10.243250 154.890000
v -5.265000 10.243250 155.835000
v -5.265000 10.243250 156.780000
v -5.265000 10.243250 157.725000
v -5.265000 10.243250 158.670000
v -5.265000 10.243250 159.615000
v -2.632500 4.856750 147.330000
v -2.632500 4.856750 148.275000
v -2.632500 5.241500 148.275000
v -2.632500 5.241500 147.330000
v -2.632500 4.856750 149.220000
v -2.632500 5.241500 149.220000
v -2.632500 4.856750 150.165000
v -2.632500 5.241500 150.165000
v -2.632500 4.856750 151.110000
v -2.632500 5.241500 151.110000
v -2.632500 4.856750 152.055000
v -2.632500 4.856750 153.000000
v -2.632500 4.856750 153.945000
v -2.632500 4.856750 154.890000
v -2.632500 4.856750 155.835000
v -2.632500 4.856750 156.780000
v -2.632500 4.856750 157.725000
v -2.632500 4.856750 158.670000
v -2.632500 4.856750 159.615000
v -2.632500 5.241500 159.615000
v -2.632500 5.626250 152.055000
v -2.632500 5.626250 151.110000
v -2.632500 5.626250 153.000000
v -2.632500 5.626250 153.945000
v -2.632500 5.626250 159.615000
v -2.632500 6.011000 154.890000
v -2.632500 6.011000 153.945000
v -2.632500 6.011000 155.835000
v -2.632500 6.011000 159.615000
v -2.632500 6.395750 156.780000
v -2.632500 6.395750 155.835000
v -2.632500 6.395750 157.725000
v -2.632500 6.395750 159.615000
v -2.632500 6.780500 158.670000
v -2.632500 6.780500 157.725000
v -2.632500 6.780500 159.615000
v -2.632500 7.165250 158.670000
v -2.632500 7.165250 159.615000
v -2.632500 7.550000 158.670000
v -2.632500 7.550000 159.615000
v -2.632500 7.934750 158.670000
v -2.632500 7.934750 159.615000
v -2.632500 8.319500 158.670000
v -2.632500 8.319500 159.615000
v -2.632500 8.319500 156.780000
v -2.632500 8.319500 157.725000
v -2.632500 8.704250 156.780000
v -2.632500 8.704250 159.615000
v -2.632500 8.704250 154.890000
v -2.632500 8.704250 155.835000
v -2.632500 9.089000 154.890000
v -2.632500 9.089000 159.615000
v -2.632500 9.089000 153.000000
v -2.632500 9.089000 153.945000
v -2.632500 9.473750 153.000000
v -2.632500 9.473750 159.615000
v -2.632500 9.473750 150.165000
v -2.632500 9.473750 151.110000
v -2.632500 9.858500 150.165000
v -2.632500 9.473750 152.055000
v -2.632500 9.858500 159.615000
v -2.632500 9.858500 146.385000
v -2.632500 9.858500 147.330000
v -2.632500 10.243250 147.330000
v -2.632500 10.243250 146.385000
v -2.632500 9.858500 148.275000
v -2.632500 10.243250 148.275000
v -2.632500 9.858500 149.220000
v -2.632500 10.243250 149.220000
v -2.632500 10.243250 150.165000
v -2.632500 10.243250 151.110000
v -2.632500 10.243250 152.055000
v -2.632500 10.243250 153.000000
v -2.632500 10.243250 153.945000
v -2.632500 10.243250 154.890000
v -2.632500 10.243250 155.835000
v -2.632500 10.243250 156.780000
v -2.632500 10.243250 157.725000
v -2.632500 10.243250 158.670000
v -2.632500 10.243250 159.615000
v -0.000000 4.856750 147.330000
v -0.000000 4.856750 148.275000
v -0.000000 5.241500 148.275000
v -0.000000 5.241500 147.330000
v -0.000000 4.856750 149.220000
v -0.000000 5.241500 149.220000
v -0.000000 4.856750 150.165000
v -0.000000 5.241500 150.165000
v -0.000000 4.856750 151.110000
v -0.000000 5.241500 151.110000
v -0.000000 4.856750 152.055000
v -0.000000 4.856750 153.000000
v -0.000000 4.856750 153.945000
v -0.000000 4.856750 154.890000
v -0.000000 4.856750 155.835000
v -0.000000 4.856750 156.780000
v -0.000000 4.856750 157.725000
v -0.000000 4.856750 158.670000
v -0.000000 4.856750 159.615000
v -0.000000 5.241500 159.615000
v -0.000000 5.626250 152.055000
v -0.000000 5.626250 151.110000
v -0.000000 5.626250 153.000000
v -0.000000 5.626250 153.945000
v -0.000000 5.626250 159.615000
v -0.000000 6.011000 154.890000
v -0.000000 6.011000 153.945000
v -0.000000 6.011000 155.835000
v -0.000000 6.011000 159.615000
v -0.000000 6.395750 156.780000
v -0.000000 6.395750 155.835000
v -0.000000 6.395750 157.725000
v -0.000000 6.395750 159.615000
v -0.000000 6.780500 158.670000
v -0.000000 6.780500 157.725000
v -0.000000 6.780500 159.615000
v -0.000000 7.165250 158.670000
v -0.000000 7.165250 159.615000
v -0.000000 7.550000 158.670000
v -0.000000 7.550000 159.615000
v -0.000000 7.934750 158.670000
v -0.000000 7.934750 159.615000
v -0.000000 8.319500 158.670000
v -0.000000 8.319500 159.615000
v -0.000000 8.319500 156.780000
v -0.000000 8.319500 157.725000
v -0.000000 8.704250 156.780000
v -0.000000 8.704250 159.615000
v -0.000000 8.704250 154.890000
v -0.000000 8.704250 155.835000
v -0.000000 9.089000 154.890000
v -0.000000 9.089000 159.615000
v -0.000000 9.089000 153.000000
v -0.000000 9.089000 153.945000
v -0.000000 9.473750 153.000000
v -0.000000 9.473750 159.615000
v -0.000000 9.473750 150.165000
v -0.000000 9.473750 151.110000
v -0.000000 9.858500 150.165000
v -0.000000 9.473750 152.055000
v -0.000000 9.858500 159.615000
v -0.000000 9.858500 146.385000
v -0.000000 9.858500 147.330000
v -0.000000 10.243250 147.330000
v -0.000000 10.243250 146.385000
v -0.000000 9.858500 148.275000
v -0.000000 10.243250 148.275000
v -0.000000 9.858500 149.220000
v -0.000000 10.243250 149.220000
v -0.000000 10.243250 150.165000
v -0.000000 10.243250 151.110000
v -0.000000 10.243250 152.055000
v -0.000000 10.243250 153.000000
v -0.000000 10.243250 153.945000
v -0.000000 10.243250 154.890000
v -0.000000 10.243250 155.835000
v -0.000000 10.243250 156.780000
v -0.000000 10.243250 157.725000
v -0.000000 10.243250 158.670000
v -0.000000 10.243250 159.615000
v 2.632500 4.856750 147.330000
v 2.632500 4.856750 148.275000
v 2.632500 5.241500 148.275000
v 2.632500 5.241500 147.330000
v 2.632500 4.856750 149.220000
v 2.632500 5.241500 149.220000
v 2.632500 4.856750 150.165000
v 2.632500 5.241500 150.165000
v 2.632500 4.856750 151.110000
v 2.632500 5.241500 151.110000
v 2.632500 4.856750 152.055000
v 2.632500 4.856750 153.000000
v 2.632500 4.856750 153.945000
v 2.632500 4.856750 154.890000
v 2.632500 4.856750 155.835000
v 2.632500 4.856750 156.780000
v 2.632500 4.856750 157.725000
v 2.632500 4.856750 158.670000
v 2.632500 4.856750 159.615000
v 2.632500 5.241500 159.615000
v 2.632500 5.626250 152.055000
v 2.632500 5.626250 151.110000
v 2.632500 5.626250 153.000000
v 2.632500 5.626250 153.945000
v 2.632500 5.626250 159.615000
v 2.632500 6.011000 154.890000
v 2.632500 6.011000 153.945000
v 2.632500 6.011000 155.835000
v 2.632500 6.011000 159.615000
v 2.632500 6.395750 156.780000
v 2.632500 6.395750 155.835000
v 2.632500 6.395750 157.725000
v 2.632500 6.395750 159.615000
v 2.632500 6.780500 158.670000
v 2.632500 6.780500 157.725000
v 2.632500 6.780500 159.615000
v 2.632500 7.165250 158.670000
v 2.632500 7.165250 159.615000
v 2.632500 7.550000 158.670000
v 2.632500 7.550000 159.615000
v 2.632500 7.934750 158.670000
v 2.632500 7.934750 159.615000
v 2.632500 8.319500 158.670000
v 2.632500 8.319500 159.615000
v 2.632500 8.319500 156.780000
v 2.632500 8.319500 157.725000
v 2.632500 8.704250 156.780000
v 2.632500 8.704250 159.615000
v 2.632500 8.704250 154.890000
v 2.632500 8.704250 155.835000
v 2.632500 9.089000 154.890000
v 2.632500 9.089000 159.615000
v 2.632500 9.089000 153.000000
v 2.632500 9.089000 153.945000
v 2.632500 9.473750 153.000000
v 2.632500 9.473750 159.615000
v 2.632500 9.473750 150.165000
v 2.632500 9.473750 151.110000
v 2.632500 9.858500 150.165000
v 2.632500 9.473750 152.055000
v 2.632500 9.858500 159.615000
v 2.632500 9.858500 146.385000
v 2.632500 9.858500 147.330000
v 2.632500 10.243250 147.330000
v 2.632500 10.243250 146.385000
v 2.632500 9.858500 148.275000
v 2.632500 10.243250 148.275000
v 2.632500 9.858500 149.220000
v 2.632500 10.243250 149.220000
v 2.632500 10.243250 150.165000
v 2.632500 10.243250 151.110000
v 2.632500 10.243250 152.055000
v 2.632500 10.243250 153.000000
v 2.632500 10.243250 153.945000
v 2.632500 10.243250 154.890000
v 2.632500 10.243250 155.835000
v 2.632500 10.243250 156.780000
v 2.632500 10.243250 157.725000
v 2.632500 10.243250 158.670000
v 2.632500 10.243250 159.615000
v 5.265000 4.856750 147.330000
v 5.265000 4.856750 148.275000
v 5.265000 5.241500 148.275000
v 5.265000 5.241500 147.330000
v 5.265000 4.856750 149.220000
v 5.265000 5.241500 149.220000
v 5.265000 4.856750 150.165000
v 5.265000 5.241500 150.165000
v 5.265000 4.856750 151.110000
v 5.265000 5.241500 151.110000
v 5.265000 4.856750 152.055000
v 5.265000 4.856750 153.000000
v 5.265000 4.856750 153.945000
v 5.265000 4.856750 154.890000
v 5.265000 4.856750 155.835000
v 5.265000 4.856750 156.780000
v 5.265000 4.856750 157.725000
v 5.265000 4.856750 158.670000
v 5.265000 4.856750 159.615000
v 5.265000 5.241500 159.615000
v 5.265000 5.626250 152.055000
v 5.265000 5.626250 151.110000
v 5.265000 5.626250 153.000000
v 5.265000 5.626250 153.945000
v 5.265000 5.626250 159.615000
v 5.265000 6.011000 154.890000
v 5.265000 6.011000 153.945000
v 5.265000 6.011000 155.835000
v 5.265000 6.011000 159.615000
v 5.265000 6.395750 156.780000
v 5.265000 6.395750 155.835000
v 5.265000 6.395750 157.725000
v 5.265000 6.395750 159.615000
v 5.265000 6.780500 158.670000
v 5.265000 6.780500 157.725000
v 5.265000 6.780500 159.615000
v 5.265000 7.165250 158.670000
v 5.265000 7.165250 159.615000
v 5.265000 7.550000 158.670000
v 5.265000 7.550000 159.615000
v 5.265000 7.934750 158.670000
v 5.265000 7.934750 159.615000
v 5.265000 8.319500 158.670000
v 5.265000 8.319500 159.615000
v 5.265000 8.319500 156.780000
v 5.265000 8.319500 157.725000
v 5.265000 8.704250 156.780000
v 5.265000 8.704250 159.615000
v 5.265000 8.704250 154.890000
v 5.265000 8.704250 155.835000
v 5.265000 9.089000 154.890000
v 5.265000 9.089000 159.615000
v 5.265000 9.089000 153.000000
v 5.265000 9.089000 153.945000
v 5.265000 9.473750 153.000000
v 5.265000 9.473750 159.615000
v 5.265000 9.473750 150.165000
v 5.265000 9.473750 151.110000
v 5.265000 9.858500 150.165000
v 5.265000 9.473750 152.055000
v 5.265000 9.858500 159.615000
v 5.265000 9.858500 146.385000
v 5.265000 9.858500 147.330000
v 5.265000 10.243250 147.330000
v 5.265000 10.243250 146.385000
v 5.265000 9.858500 148.275000
v 5.265000 10.243250 148.275000
v 5.265000 9.858500 149.220000
v 5.265000 10.243250 149.220000
v 5.265000 10.243250 150.165000
v 5.265000 10.243250 151.110000
v 5.265000 10.243250 152.055000
v 5.265000 10.243250 153.000000
v 5.265000 10.243250 153.945000
v 5.265000 10.243250 154.890000
v 5.265000 10.243250 155.835000
v 5.265000 10.243250 156.780000
v 5.265000 10.243250 157.725000
v 5.265000 10.243250 158.670000
v 5.265000 10.243250 159.615000
v 7.897500 4.856750 147.330000
v 7.897500 4.856750 148.275000
v 7.897500 5.241500 148.275000
v 7.897500 5.241500 147.330000
v 7.897500 4.856750 149.220000
v 7.897500 5.241500 149.220000
v 7.897500 4.856750 150.165000
v 7.897500 5.241500 150.165000
v 7.897500 4.856750 151.110000
v 7.897500 5.241500 151.110000
v 7.897500 4.856750 152.055000
v 7.897500 4.856750 153.000000
v 7.897500 4.856750 153.945000
v 7.897500 4.856750 154.890000
v 7.897500 4.856750 155.835000
v 7.897500 4.856750 156.780000
v 7.897500 4.856750 157.725000
v 7.897500 4.856750 158.670000
v 7.897500 4.856750 159.615000
v 7.897500 5.241500 159.615000
v 7.897500 5.626250 152.055000
v 7.897500 5.626250 151.110000
v 7.897500 5.626250 153.000000
v 7.897500 5.626250 153.945000
v 7.897500 5.626250 159.615000
v 7.897500 6.011000 154.890000
v 7.897500 6.011000 153.945000
v 7.897500 6.011000 155.835000
v 7.897500 6.011000 159.615000
v 7.897500 6.395750 156.780000
v 7.897500 6.395750 155.835000
v 7.897500 6.395750 157.725000
v 7.897500 6.395750 159.615000
v 7.897500 6.780500 158.670000
v 7.897500 6.780500 157.725000
v 7.897500 6.780500 159.615000
v 7.897500 7.165250 158.670000
v 7.897500 7.165250 159.615000
v 7.897500 7.550000 158.670000
v 7.897500 7.550000 159.615000
v 7.897500 7.934750 158.670000
v 7.897500 7.934750 159.615000
v 7.897500 8.319500 158.670000
v 7.897500 8.319500 159.615000
v 7.897500 8.319500 156.780000
v 7.897500 8.319500 157.725000
v 7.897500 8.704250 156.780000
v 7.897500 8.704250 159.615000
v 7.897500 8.704250 154.890000
v 7.897500 8.704250 155.835000
v 7.897500 9.089000 154.890000
v 7.897500 9.089000 159.615000
v 7.897500 9.089000 153.000000
v 7.897500 9.089000 153.945000
v 7.897500 9.473750 153.000000
v 7.897500 9.473750 159.615000
v 7.897500 9.473750 150.165000
v 7.897500 9.473750 151.110000
v 7.897500 9.858500 150.165000
v 7.897500 9.473750 152.055000
v 7.897500 9.858500 159.615000
v 7.897500 9.858500 146.385000
v 7.897500 9.858500 147.330000
v 7.897500 10.243250 147.330000
v 7.897500 10.243250 146.385000
v 7.897500 9.858500 148.275000
v 7.897500 10.243250 148.275000
v 7.897500 9.858500 149.220000
v 7.897500 10.243250 149.220000
v 7.897500 10.243250 150.165000
v 7.897500 10.243250 151.110000
v 7.897500 10.243250 152.055000
v 7.897500 10.243250 153.000000
v 7.897500 10.243250 153.945000
v 7.897500 10.243250 154.890000
v 7.897500 10.243250 155.835000
v 7.897500 10.243250 156.780000
v 7.897500 10.243250 157.725000
v 7.897500 10.243250 158.670000
v 7.897500 10.243250 159.615000
v 10.530000 4.856750 147.330000
v 10.530000 4.856750 148.275000
v 10.530000 5.241500 148.275000
v 10.530000 5.241500 147.330000
v 10.530000 4.856750 149.220000
v 10.530000 5.241500 149.220000
v 10.530000 4.856750 150.165000
v 10.530000 5.241500 150.165000
v 10.530000 4.856750 151.110000
v 10.530000 5.241500 151.110000
v 10.530000 4.856750 152.055000
v 10.530000 4.856750 153.000000
v 10.530000 4.856750 153.945000
v 10.530000 4.856750 154.890000
v 10.530000 4.856750 155.835000
v 10.530000 4.856750 156.780000
v 10.530000 4.856750 157.725000
v 10.530000 4.856750 158.670000
v 10.530000 4.856750 159.615000
v 10.530000 5.241500 159.615000
v 10.530000 5.626250 152.055000
v 10.530000 5.626250 151.110000
v 10.530000 5.626250 153.000000
v 10.530000 5.626250 153.945000
v 10.530000 5.626250 159.615000
v 10.530000 6.011000 154.890000
v 10.530000 6.011000 153.945000
v 10.530000 6.011000 155.835000
v 10.530000 6.011000 159.615000
v 10.530000 6.395750 156.780000
v 10.530000 6.395750 155.835000
v 10.530000 6.395750 157.725000
v 10.530000 6.395750 159.615000
v 10.530000 6.780500 158.670000
v 10.530000 6.780500 157.725000
v 10.530000 6.780500 159.615000
v 10.530000 7.165250 158.670000
v 10.530000 7.165250 159.615000
v 10.530000 7.550000 158.670000
v 10.530000 7.550000 159.615000
v 10.530000 7.934750 158.670000
v 10.530000 7.934750 159.615000
v 10.530000 8.319500 158.670000
v 10.530000 8.319500 159.615000
v 10.530000 8.319500 156.780000
v 10.530000 8.319500 157.725000
v 10.530000 8.704250 156.780000
v 10.530000 8.704250 159.615000
v 10.530000 8.704250 154.890000
v 10.530000 8.704250 155.835000
v 10.530000 9.089000 154.890000
v 10.530000 9.089000 159.615000
v 10.530000 9.089000 153.000000
v 10.530000 9.089000 153.945000
v 10.530000 9.473750 153.000000
v 10.530000 9.473750 159.615000
v 10.530000 9.473750 150.165000
v 10.530000 9.473750 151.110000
v 10.530000 9.858500 150.165000
v 10.530000 9.473750 152.055000
v 10.530000 9.858500 159.615000
v 10.530000 9.858500 146.385000
v 10.530000 9.858500 147.330000
v 10.530000 10.243250 147.330000
v 10.530000 10.243250 146.385000
v 10.530000 9.858500 148.275000
v 10.530000 10.243250 148.275000
v 10.530000 9.858500 149.220000
v 10.530000 10.243250 149.220000
v 10.530000 10.243250 150.165000
v 10.530000 10.243250 151.110000
v 10.530000 10.243250 152.055000
v 10.530000 10.243250 153.000000
v 10.530000 10.243250 153.945000
v 10.530000 10.243250 154.890000
v 10.530000 10.243250 155.835000
v 10.530000 10.243250 156.780000
v 10.530000 10.243250 157.725000
v 10.530000 10.243250 158.670000
v 10.530000 10.243250 159.615000
v 13.162500 4.856750 147.330000
v 13.162500 4.856750 148.275000
v 13.162500 5.241500 148.275000
v 13.162500 5.241500 147.330000
v 13.162500 4.856750 149.220000
v 13.162500 5.241500 149.220000
v 13.162500 4.856750 150.165000
v 13.162500 5.241500 150.165000
v 13.162500 4.856750 151.110000
v 13.162500 5.241500 151.110000
v 13.162500 4.856750 152.055000
v 13.162500 4.856750 153.000000
v 13.162500 4.856750 153.945000
v 13.162500 4.856750 154.890000
v 13.162500 4.856750 155.835000
v 13.162500 4.856750 156.780000
v 13.162500 4.856750 157.725000
v 13.162500 4.856750 158.670000
v 13.162500 4.856750 159.615000
v 13.162500 5.241500 159.615000
v 13.162500 5.626250 152.055000
v 13.162500 5.626250 151.110000
v 13.162500 5.626250 153.000000
v 13.162500 5.626250 153.945000
v 13.162500 5.626250 159.615000
v 13.162500 6.011000 154.890000
v 13.162500 6.011000 153.945000
v 13.162500 6.011000 155.835000
v 13.162500 6.011000 159.615000
v 13.162500 6.395750 156.780000
v 13.162500 6.395750 155.835000
v 13.162500 6.395750 157.725000
v 13.162500 6.395750 159.615000
v 13.162500 6.780500 158.670000
v 13.162500 6.780500 157.725000
v 13.162500 6.780500 159.615000
v 13.162500 7.165250 158.670000
v 13.162500 7.165250 159.615000
v 13.162500 7.550000 158.670000
v 13.162500 7.550000 159.615000
v 13.162500 7.934750 158.670000
v 13.162500 7.934750 159.615000
v 13.162500 8.319500 158.670000
v 13.162500 8.319500 159.615000
v 13.162500 8.319500 156.780000
v 13.162500 8.319500 157.725000
v 13.162500 8.704250 156.780000
v 13.162500 8.704250 159.615000
v 13.162500 8.704250 154.890000
v 13.162500 8.704250 155.835000
v 13.162500 9.089000 154.890000
v 13.162500 9.089000 159.615000
v 13.162500 9.089000 153.000000
v 13.162500 9.089000 153.945000
v 13.162500 9.473750 153.000000
v 13.162500 9.473750 159.615000
v 13.162500 9.473750 150.165000
v 13.162500 9.473750 151.110000
v 13.162500 9.858500 150.165000
v 13.162500 9.473750 152.055000
v 13.162500 9.858500 159.615000
v 13.162500 9.858500 146.385000
v 13.162500 9.858500 147.330000
v 13.162500 10.243250 147.330000
v 13.162500 10.243250 146.385000
v 13.162500 9.858500 148.275000
v 13.162500 10.243250 148.275000
v 13.162500 9.858500 149.220000
v 13.162500 10.243250 149.220000
v 13.162500 10.243250 150.165000
v 13.162500 10.243250 151.110000
v 13.162500 10.243250 152.055000
v 13.162500 10.243250 153.000000
v 13.162500 10.243250 153.945000
v 13.162500 10.243250 154.890000
v 13.162500 10.243250 155.835000
v 13.162500 10.243250 156.780000
v 13.162500 10.243250 157.725000
v 13.162500 10.243250 158.670000
v 13.162500 10.243250 159.615000
v 15.795000 4.856750 147.330000
v 15.795000 4.856750 148.275000
v 15.795000 5.241500 148.275000
v 15.795000 5.241500 147.330000
v 15.795000 4.856750 149.220000
v 15.795000 5.241500 149.220000
v 15.795000 4.856750 150.165000
v 15.795000 5.241500 150.165000
v 15.795000 4.856750 151.110000
v 15.795000 5.241500 151.110000
v 15.795000 4.856750 152.055000
v 15.795000 4.856750 153.000000
v 15.795000 4.856750 153.945000
v 15.795000 4.856750 154.890000
v 15.795000 4.856750 155.835000
v 15.795000 4.856750 156.780000
v 15.795000 4.856750 157.725000
v 15.795000 4.856750 158.670000
v 15.795000 4.856750 159.615000
v 15.795000 5.241500 159.615000
v 15.795000 5.626250 152.055000
v 15.795000 5.626250 151.110000
v 15.795000 5.626250 153.000000
v 15.795000 5.626250 153.945000
v 15.795000 5.626250 159.615000
v 15.795000 6.011000 154.890000
v 15.795000 6.011000 153.945000
v 15.795000 6.011000 155.835000
v 15.795000 6.011000 159.615000
v 15.795000 6.395750 156.780000
v 15.795000 6.395750 155.835000
v 15.795000 6.395750 157.725000
v 15.795000 6.395750 159.615000
v 15.795000 6.780500 158.670000
v 15.795000 6.780500 157.725000
v 15.795000 6.780500 159.615000
v 15.795000 7.165250 158.670000
v 15.795000 7.165250 159.615000
v 15.795000 7.550000 158.670000
v 15.795000 7.550000 159.615000
v 15.795000 7.934750 158.670000
v 15.795000 7.934750 159.615000
v 15.795000 8.319500 158.670000
v 15.795000 8.319500 159.615000
v 15.795000 8.319500 156.780000
v 15.795000 8.319500 157.725000
v 15.795000 8.704250 156.780000
v 15.795000 8.704250 159.615000
v 15.795000 8.704250 154.890000
v 15.795000 8.704250 155.835000
v 15.795000 9.089000 154.890000
v 15.795000 9.089000 159.615000
v 15.795000 9.089000 153.000000
v 15.795000 9.089000 153.945000
v 15.795000 9.473750 153.000000
v 15.795000 9.473750 159.615000
v 15.795000 9.473750 150.165000
v 15.795000 9.473750 151.110000
v 15.795000 9.858500 150.165000
v 15.795000 9.473750 152.055000
v 15.795000 9.858500 159.615000
v 15.795000 9.858500 146.385000
v 15.795000 9.858500 147.330000
v 15.795000 10.243250 147.330000
v 15.795000 10.243250 146.385000
v 15.795000 9.858500 148.275000
v 15.795000 10.243250 148.275000
v 15.795000 9.858500 149.220000
v 15.795000 10.243250 149.220000
v 15.795000 10.243250 150.165000
v 15.795000 10.243250 151.110000
v 15.795000 10.243250 152.055000
v 15.795000 10.243250 153.000000
v 15.795000 10.243250 153.945000
v 15.795000 10.243250 154.890000
v 15.795000 10.243250 155.835000
v 15.795000 10.243250 156.780000
v 15.795000 10.243250 157.725000
v 15.795000 10.243250 158.670000
v 15.795000 10.243250 159.615000
v 18.427500 4.856750 147.330000
v 18.427500 4.856750 148.275000
v 18.427500 5.241500 148.275000
v 18.427500 5.241500 147.330000
v 18.427500 4.856750 149.220000
v 18.427500 5.241500 149.220000
v 18.427500 4.856750 150.165000
v 18.427500 5.241500 150.165000
v 18.427500 4.856750 151.110000
v 18.427500 5.241500 151.110000
v 18.427500 4.856750 152.055000
v 18.427500 5.241500 152.055000
v 18.427500 4.856750 153.000000
v 18.427500 5.241500 153.000000
v 18.427500 4.856750 153.945000
v 18.427500 5.241500 153.945000
v 18.427500 4.856750 154.890000
v 18.427500 5.241500 154.890000
v 18.427500 4.856750 155.835000
v 18.427500 5.241500 155.835000
v 18.427500 4.856750 156.780000
v 18.427500 5.241500 156.780000
v 18.427500 4.856750 157.725000
v 18.427500 5.241500 157.725000
v 18.427500 4.856750 158.670000
v 18.427500 5.241500 158.670000
v 18.427500 4.856750 159.615000
v 18.427500 5.241500 159.615000
v 18.427500 5.626250 152.055000
v 18.427500 5.626250 151.110000
v 18.427500 5.626250 153.000000
v 18.427500 5.626250 153.945000
v 18.427500 5.626250 154.890000
v 18.427500 5.626250 155.835000
v 18.427500 5.626250 156.780000
v 18.427500 5.626250 157.725000
v 18.427500 5.626250 158.670000
v 18.427500 5.626250 159.615000
v 18.427500 6.011000 154.890000
v 18.427500 6.011000 153.945000
v 18.427500 6.011000 155.835000
v 18.427500 6.011000 156.780000
v 18.427500 6.011000 157.725000
v 18.427500 6.011000 158.670000
v 18.427500 6.011000 159.615000
v 18.427500 6.395750 156.780000
v 18.427500 6.395750 155.835000
v 18.427500 6.395750 157.725000
v 18.427500 6.395750 158.670000
v 18.427500 6.395750 159.615000
v 18.427500 6.780500 158.670000
v 18.427500 6.780500 157.725000
v 18.427500 6.780500 159.615000
v 18.427500 7.165250 159.615000
v 18.427500 7.165250 158.670000
v 18.427500 7.550000 159.615000
v 18.427500 7.550000 158.670000
v 18.427500 7.934750 159.615000
v 18.427500 7.934750 158.670000
v 18.427500 8.319500 159.615000
v 18.427500 8.319500 158.670000
v 18.427500 8.319500 156.780000
v 18.427500 8.319500 157.725000
v 18.427500 8.704250 157.725000
v 18.427500 8.704250 156.780000
v 18.427500 8.704250 158.670000
v 18.427500 8.704250 159.615000
v 18.427500 8.704250 154.890000
v 18.427500 8.704250 155.835000
v 18.427500 9.089000 155.835000
v 18.427500 9.089000 154.890000
v 18.427500 9.089000 156.780000
v 18.427500 9.089000 157.725000
v 18.427500 9.089000 158.670000
v 18.427500 9.089000 159.615000
v 18.427500 9.089000 153.000000
v 18.427500 9.089000 153.945000
v 18.427500 9.473750 153.945000
v 18.427500 9.473750 153.000000
v 18.427500 9.473750 154.890000
v 18.427500 9.473750 155.835000
v 18.427500 9.473750 156.780000
v 18.427500 9.473750 157.725000
v 18.427500 9.473750 158.670000
v 18.427500 9.473750 159.615000
v 18.427500 9.473750 150.165000
v 18.427500 9.473750 151.110000
v 18.427500 9.858500 151.110000
v 18.427500 9.858500 150.165000
v 18.427500 9.473750 152.055000
v 18.427500 9.858500 152.055000
v 18.427500 9.858500 153.000000
v 18.427500 9.858500 153.945000
v 18.427500 9.858500 154.890000
v 18.427500 9.858500 155.835000
v 18.427500 9.858500 156.780000
v 18.427500 9.858500 157.725000
v 18.427500 9.858500 158.670000
v 18.427500 9.858500 159.615000
v 18.427500 9.858500 146.385000
v 18.427500 9.858500 147.330000
v 18.427500 10.243250 147.330000
v 18.427500 10.243250 146.385000
v 18.427500 9.858500 148.275000
v 18.427500 10.243250 148.275000
v 18.427500 9.858500 149.220000
v 18.427500 10.243250 149.220000
v 18.427500 10.243250 150.165000
v 18.427500 10.243250 151.110000
v 18.427500 10.243250 152.055000
v 18.427500 10.243250 153.000000
v 18.427500 10.243250 153.945000
v 18.427500 10.243250 154.890000
v 18.427500 10.243250 155.835000
v 18.427500 10.243250 156.780000
v 18.427500 10.243250 157.725000
v 18.427500 10.243250 158.670000
v 18.427500 10.243250 159.615000
f 1 2 3
f 1 3 4
f 1 5 6
f 1 6 4
f 2 3 7
f 2 7 8
f 1 2 8
f 1 8 5
f 4 3 9
f 4 9 10
f 4 6 11
f 4 11 10
f 3 9 12
f 3 12 7
f 10 9 13
f 10 13 14
f 10 11 15
f 10 15 14
f 9 13 16
f 9 16 12
f 14 13 17
f 14 17 18
f 14 15 19
f 14 19 18
f 13 17 20
f 13 20 16
f 18 17 21
f 18 21 22
f 18 19 23
f 18 23 22
f 22 21 24
f 22 24 25
f 22 23 26
f 22 26 25
f 25 24 27
f 25 27 28
f 25 26 29
f 25 29 28
f 28 27 30
f 28 30 31
f 28 29 32
f 28 32 31
f 31 30 33
f 31 33 34
f 31 32 35
f 31 35 34
f 34 33 36
f 34 36 37
f 34 35 38
f 34 38 37
f 37 36 39
f 37 39 40
f 37 38 41
f 37 41 40
f 40 39 42
f 40 42 43
f 40 41 44
f 40 44 43
f 43 42 45
f 43 45 46
f 43 44 47
f 43 47 46
f 46 47 48
f 46 48 45
f 17 49 50
f 17 50 21
f 49 50 51
f 49 51 52
f 17 49 52
f 17 52 20
f 21 50 53
f 21 53 24
f 50 53 54
f 50 54 51
f 24 53 55
f 24 55 27
f 53 55 56
f 53 56 54
f 27 55 57
f 27 57 30
f 30 57 58
f 30 58 33
f 33 58 59
f 33 59 36
f 36 59 60
f 36 60 39
f 39 60 61
f 39 61 42
f 42 61 62
f 42 62 45
f 45 48 63
f 45 63 62
f 55 64 65
f 55 65 57
f 64 65 66
f 64 66 67
f 55 64 67
f 55 67 56
f 57 65 68
f 57 68 58
f 65 68 69
f 65 69 66
f 58 68 70
f 58 70 59
f 59 70 71
f 59 71 60
f 60 71 72
f 60 72 61
f 61 72 73
f 61 73 62
f 62 63 74
f 62 74 73
f 68 75 76
f 68 76 70
f 75 76 77
f 75 77 78
f 68 75 78
f 68 78 69
f 70 76 79
f 70 79 71
f 76 79 80
f 76 80 77
f 71 79 81
f 71 81 72
f 72 81 82
f 72 82 73
f 73 74 83
f 73 83 82
f 79 84 85
f 79 85 81
f 84 85 86
f 84 86 87
f 79 84 87
f 79 87 80
f 81 85 88
f 81 88 82
f 82 83 89
f 82 89 88
f 85 90 91
f 85 91 88
f 85 90 92
f 85 92 86
f 88 89 93
f 88 93 91
f 90 94 95
f 90 95 91
f 90 94 96
f 90 96 92
f 91 93 97
f 91 97 95
f 94 98 99
f 94 99 95
f 94 98 100
f 94 100 96
f 95 97 101
f 95 101 99
f 98 102 103
f 98 103 99
f 98 102 104
f 98 104 100
f 99 101 105
f 99 105 103
f 106 107 108
f 106 108 109
f 106 110 111
f 106 111 109
f 106 107 112
f 106 112 110
f 109 108 113
f 109 113 102
f 109 111 104
f 109 104 102
f 102 113 114
f 102 114 103
f 103 105 115
f 103 115 114
f 116 117 118
f 116 118 119
f 116 120 121
f 116 121 119
f 116 117 122
f 116 122 120
f 119 118 123
f 119 123 107
f 119 121 112
f 119 112 107
f 107 123 124
f 107 124 108
f 108 124 125
f 108 125 113
f 113 125 126
f 113 126 114
f 114 115 127
f 114 127 126
f 128 129 130
f 128 130 131
f 128 132 133
f 128 133 131
f 128 129 134
f 128 134 132
f 131 130 135
f 131 135 117
f 131 133 122
f 131 122 117
f 117 135 136
f 117 136 118
f 118 136 137
f 118 137 123
f 123 137 138
f 123 138 124
f 124 138 139
f 124 139 125
f 125 139 140
f 125 140 126
f 126 127 141
f 126 141 140
f 142 143 144
f 142 144 145
f 142 146 147
f 142 147 145
f 142 143 148
f 142 148 146
f 145 144 149
f 145 149 150
f 145 147 151
f 145 151 150
f 150 149 152
f 150 152 129
f 150 151 134
f 150 134 129
f 129 152 153
f 129 153 130
f 130 153 154
f 130 154 135
f 135 154 155
f 135 155 136
f 136 155 156
f 136 156 137
f 137 156 157
f 137 157 138
f 138 157 158
f 138 158 139
f 139 158 159
f 139 159 140
f 140 141 160
f 140 160 159
f 161 162 163
f 161 163 164
f 161 165 166
f 161 166 164
f 162 163 167
f 162 167 168
f 161 162 168
f 161 168 165
f 164 163 169
f 164 169 170
f 164 166 171
f 164 171 170
f 163 169 172
f 163 172 167
f 170 169 173
f 170 173 174
f 170 171 175
f 170 175 174
f 169 173 176
f 169 176 172
f 174 173 177
f 174 177 143
f 174 175 148
f 174 148 143
f 173 177 178
f 173 178 176
f 143 177 179
f 143 179 144
f 177 179 180
f 177 180 178
f 144 179 181
f 144 181 149
f 179 181 182
f 179 182 180
f 149 181 183
f 149 183 152
f 181 183 184
f 181 184 182
f 152 183 185
f 152 185 153
f 183 185 186
f 183 186 184
f 153 185 187
f 153 187 154
f 185 187 188
f 185 188 186
f 154 187 189
f 154 189 155
f 187 189 190
f 187 190 188
f 155 189 191
f 155 191 156
f 189 191 192
f 189 192 190
f 156 191 193
f 156 193 157
f 191 193 194
f 191 194 192
f 157 193 195
f 157 195 158
f 193 195 196
f 193 196 194
f 158 195 197
f 158 197 159
f 195 197 198
f 195 198 196
f 159 160 198
f 159 198 197
f 5 199 200
f 5 200 6
f 8 7 201
f 8 201 202
f 5 8 202
f 5 202 199
f 6 200 203
f 6 203 11
f 7 12 204
f 7 204 201
f 11 203 205
f 11 205 15
f 12 16 206
f 12 206 204
f 15 205 207
f 15 207 19
f 16 20 208
f 16 208 206
f 19 207 209
f 19 209 23
f 23 209 210
f 23 210 26
f 26 210 211
f 26 211 29
f 29 211 212
f 29 212 32
f 32 212 213
f 32 213 35
f 35 213 214
f 35 214 38
f 38 214 215
f 38 215 41
f 41 215 216
f 41 216 44
f 44 216 217
f 44 217 47
f 47 217 218
f 47 218 48
f 52 51 219
f 52 219 220
f 20 52 220
f 20 220 208
f 51 54 221
f 51 221 219
f 54 56 222
f 54 222 221
f 48 218 223
f 48 223 63
f 67 66 224
f 67 224 225
f 56 67 225
f 56 225 222
f 66 69 226
f 66 226 224
f 63 223 227
f 63 227 74
f 78 77 228
f 78 228 229
f 69 78 229
f 69 229 226
f 77 80 230
f 77 230 228
f 74 227 231
f 74 231 83
f 87 86 232
f 87 232 233
f 80 87 233
f 80 233 230
f 83 231 234
f 83 234 89
f 86 92 235
f 86 235 232
f 89 234 236
f 89 236 93
f 92 96 237
f 92 237 235
f 93 236 238
f 93 238 97
f 96 100 239
f 96 239 237
f 97 238 240
f 97 240 101
f 100 104 241
f 100 241 239
f 101 240 242
f 101 242 105
f 110 243 244
f 110 244 111
f 110 112 245
f 110 245 243
f 111 244 241
f 111 241 104
f 105 242 246
f 105 246 115
f 120 247 248
f 120 248 121
f 120 122 249
f 120 249 247
f 121 248 245
f 121 245 112
f 115 246 250
f 115 250 127
f 132 251 252
f 132 252 133
f 132 134 253
f 132 253 251
f 133 252 249
f 133 249 122
f 127 250 254
f 127 254 141
f 146 255 256
f 146 256 147
f 146 148 257
f 146 257 255
f 147 256 258
f 147 258 151
f 151 258 253
f 151 253 134
f 141 254 259
f 141 259 160
f 165 260 261
f 165 261 166
f 168 167 262
f 168 262 263
f 165 168 263
f 165 263 260
f 166 261 264
f 166 264 171
f 167 172 265
f 167 265 262
f 171 264 266
f 171 266 175
f 172 176 267
f 172 267 265
f 175 266 257
f 175 257 148
f 176 178 268
f 176 268 267
f 178 180 269
f 178 269 268
f 180 182 270
f 180 270 269
f 182 184 271
f 182 271 270
f 184 186 272
f 184 272 271
f 186 188 273
f 186 273 272
f 188 190 274
f 188 274 273
f 190 192 275
f 190 275 274
f 192 194 276
f 192 276 275
f 194 196 277
f 194 277 276
f 196 198 278
f 196 278 277
f 160 259 278
f 160 278 198
f 199 279 280
f 199 280 200
f 202 201 281
f 202 281 282
f 199 202 282
f 199 282 279
f 200 280 283
f 200 283 203
f 201 204 284
f 201 284 281
f 203 283 285
f 203 285 205
f 204 206 286
f 204 286 284
f 205 285 287
f 205 287 207
f 206 208 288
f 206 288 286
f 207 287 289
f 207 289 209
f 209 289 290
f 209 290 210
f 210 290 291
f 210 291 211
f 211 291 292
f 211 292 212
f 212 292 293
f 212 293 213
f 213 293 294
f 213 294 214
f 214 294 295
f 214 295 215
f 215 295 296
f 215 296 216
f 216 296 297
f 216 297 217
f 217 297 298
f 217 298 218
f 220 219 299
f 220 299 300
f 208 220 300
f 208 300 288
f 219 221 301
f 219 301 299
f 221 222 302
f 221 302 301
f 218 298 303
f 218 303 223
f 225 224 304
f 225 304 305
f 222 225 305
f 222 305 302
f 224 226 306
f 224 306 304
f 223 303 307
f 223 307 227
f 229 228 308
f 229 308 309
f 226 229 309
f 226 309 306
f 228 230 310
f 228 310 308
f 227 307 311
f 227 311 231
f 233 232 312
f 233 312 313
f 230 233 313
f 230 313 310
f 231 311 314
f 231 314 234
f 232 235 315
f 232 315 312
f 234 314 316
f 234 316 236
f 235 237 317
f 235 317 315
f 236 316 318
f 236 318 238
f 237 239 319
f 237 319 317
f 238 318 320
f 238 320 240
f 239 241 321
f 239 321 319
f 240 320 322
f 240 322 242
f 243 323 324
f 243 324 244
f 243 245 325
f 243 325 323
f 244 324 321
f 244 321 241
f 242 322 326
f 242 326 246
f 247 327 328
f 247 328 248
f 247 249 329
f 247 329 327
f 248 328 325
f 248 325 245
f 246 326 330
f 246 330 250
f 251 331 332
f 251 332 252
f 251 253 333
f 251 333 331
f 252 332 329
f 252 329 249
f 250 330 334
f 250 334 254
f 255 335 336
f 255 336 256
f 255 257 337
f 255 337 335
f 256 336 338
f 256 338 258
f 258 338 333
f 258 333 253
f 254 334 339
f 254 339 259
f 260 340 341
f 260 341 261
f 263 262 342
f 263 342 343
f 260 263 343
f 260 343 340
f 261 341 344
f 261 344 264
f 262 265 345
f 262 345 342
f 264 344 346
f 264 346 266
f 265 267 347
f 265 347 345
f 266 346 337
f 266 337 257
f 267 268 348
f 267 348 347
f 268 269 349
f 268 349 348
f 269 270 350
f 269 350 349
f 270 271 351
f 270 351 350
f 271 272 352
f 271 352 351
f 272 273 353
f 272 353 352
f 273 274 354
f 273 354 353
f 274 275 355
f 274 355 354
f 275 276 356
f 275 356 355
f 276 277 357
f 276 357 356
f 277 278 358
f 277 358 357
f 259 339 358
f 259 358 278
f 279 359 360
f 279 360 280
f 282 281 361
f 282 361 362
f 279 282 362
f 279 362 359
f 280 360 363
f 280 363 283
f 281 284 364
f 281 364 361
f 283 363 365
f 283 365 285
f 284 286 366
f 284 366 364
f 285 365 367
f 285 367 287
f 286 288 368
f 286 368 366
f 287 367 369
f 287 369 289
f 289 369 370
f 289 370 290
f 290 370 371
f 290 371 291
f 291 371 372
f 291 372 292
f 292 372 373
f 292 373 293
f 293 373 374
f 293 374 294
f 294 374 375
f 294 375 295
f 295 375 376
f 295 376 296
f 296 376 377
f 296 377 297
f 297 377 378
f 297 378 298
f 300 299 379
f 300 379 380
f 288 300 380
f 288 380 368
f 299 301 381
f 299 381 379
f 301 302 382
f 301 382 381
f 298 378 383
f 298 383 303
f 305 304 384
f 305 384 385
f 302 305 385
f 302 385 382
f 304 306 386
f 304 386 384
f 303 383 387
f 303 387 307
f 309 308 388
f 309 388 389
f 306 309 389
f 306 389 386
f 308 310 390
f 308 390 388
f 307 387 391
f 307 391 311
f 313 312 392
f 313 392 393
f 310 313 393
f 310 393 390
f 311 391 394
f 311 394 314
f 312 315 395
f 312 395 392
f 314 394 396
f 314 396 316
f 315 317 397
f 315 397 395
f 316 396 398
f 316 398 318
f 317 319 399
f 317 399 397
f 318 398 400
f 318 400 320
f 319 321 401
f 319 401 399
f 320 400 402
f 320 402 322
f 323 403 404
f 323 404 324
f 323 325 405
f 323 405 403
f 324 404 401
f 324 401 321
f 322 402 406
f 322 406 326
f 327 407 408
f 327 408 328
f 327 329 409
f 327 409 407
f 328 408 405
f 328 405 325
f 326 406 410
f 326 410 330
f 331 411 412
f 331 412 332
f 331 333 413
f 331 413 411
f 332 412 409
f 332 409 329
f 330 410 414
f 330 414 334
f 335 415 416
f 335 416 336
f 335 337 417
f 335 417 415
f 336 416 418
f 336 418 338
f 338 418 413
f 338 413 333
f 334 414 419
f 334 419 339
f 340 420 421
f 340 421 341
f 343 342 422
f 343 422 423
f 340 343 423
f 340 423 420
f 341 421 424
f 341 424 344
f 342 345 425
f 342 425 422
f 344 424 426
f 344 426 346
f 345 347 427
f 345 427 425
f 346 426 417
f 346 417 337
f 347 348 428
f 347 428 427
f 348 349 429
f 348 429 428
f 349 350 430
f 349 430 429
f 350 351 431
f 350 431 430
f 351 352 432
f 351 432 431
f 352 353 433
f 352 433 432
f 353 354 434
f 353 434 433
f 354 355 435
f 354 435 434
f 355 356 436
f 355 436 435
f 356 357 437
f 356 437 436
f 357 358 438
f 357 438 437
f 339 419 438
f 339 438 358
f 359 439 440
f 359 440 360
f 362 361 441
f 362 441 442
f 359 362 442
f 359 442 439
f 360 440 443
f 360 443 363
f 361 364 444
f 361 444 441
f 363 443 445
f 363 445 365
f 364 366 446
f 364 446 444
f 365 445 447
f 365 447 367
f 366 368 448
f 366 448 446
f 367 447 449
f 367 449 369
f 369 449 450
f 369 450 370
f 370 450 451
f 370 451 371
f 371 451 452
f 371 452 372
f 372 452 453
f 372 453 373
f 373 453 454
f 373 454 374
f 374 454 455
f 374 455 375
f 375 455 456
f 375 456 376
f 376 456 457
f 376 457 377
f 377 457 458
f 377 458 378
f 380 379 459
f 380 459 460
f 368 380 460
f 368 460 448
f 379 381 461
f 379 461 459
f 381 382 462
f 381 462 461
f 378 458 463
f 378 463 383
f 385 384 464
f 385 464 465
f 382 385 465
f 382 465 462
f 384 386 466
f 384 466 464
f 383 463 467
f 383 467 387
f 389 388 468
f 389 468 469
f 386 389 469
f 386 469 466
f 388 390 470
f 388 470 468
f 387 467 471
f 387 471 391
f 393 392 472
f 393 472 473
f 390 393 473
f 390 473 470
f 391 471 474
f 391 474 394
f 392 395 475
f 392 475 472
f 394 474 476
f 394 476 396
f 395 397 477
f 395 477 475
f 396 476 478
f 396 478 398
f 397 399 479
f 397 479 477
f 398 478 480
f 398 480 400
f 399 401 481
f 399 481 479
f 400 480 482
f 400 482 402
f 403 483 484
f 403 484 404
f 403 405 485
f 403 485 483
f 404 484 481
f 404 481 401
f 402 482 486
f 402 486 406
f 407 487 488
f 407 488 408
f 407 409 489
f 407 489 487
f 408 488 485
f 408 485 405
f 406 486 490
f 406 490 410
f 411 491 492
f 411 492 412
f 411 413 493
f 411 493 491
f 412 492 489
f 412 489 409
f 410 490 494
f 410 494 414
f 415 495 496
f 415 496 416
f 415 417 497
f 415 497 495
f 416 496 498
f 416 498 418
f 418 498 493
f 418 493 413
f 414 494 499
f 414 499 419
f 420 500 501
f 420 501 421
f 423 422 502
f 423 502 503
f 420 423 503
f 420 503 500
f 421 501 504
f 421 504 424
f 422 425 505
f 422 505 502
f 424 504 506
f 424 506 426
f 425 427 507
f 425 507 505
f 426 506 497
f 426 497 417
f 427 428 508
f 427 508 507
f 428 429 509
f 428 509 508
f 429 430 510
f 429 510 509
f 430 431 511
f 430 511 510
f 431 432 512
f 431 512 511
f 432 433 513
f 432 513 512
f 433 434 514
f 433 514 513
f 434 435 515
f 434 515 514
f 435 436 516
f 435 516 515
f 436 437 517
f 436 517 516
f 437 438 518
f 437 518 517
f 419 499 518
f 419 518 438
f 439 519 520
f 439 520 440
f 442 441 521
f 442 521 522
f 439 442 522
f 439 522 519
f 440 520 523
f 440 523 443
f 441 444 524
f 441 524 521
f 443 523 525
f 443 525 445
f 444 446 526
f 444 526 524
f 445 525 527
f 445 527 447
f 446 448 528
f 446 528 526
f 447 527 529
f 447 529 449
f 449 529 530
f 449 530 450
f 450 530 531
f 450 531 451
f 451 531 532
f 451 532 452
f 452 532 533
f 452 533 453
f 453 533 534
f 453 534 454
f 454 534 535
f 454 535 455
f 455 535 536
f 455 536 456
f 456 536 537
f 456 537 457
f 457 537 538
f 457 538 458
f 460 459 539
f 460 539 540
f 448 460 540
f 448 540 528
f 459 461 541
f 459 541 539
f 461 462 542
f 461 542 541
f 458 538 543
f 458 543 463
f 465 464 544
f 465 544 545
f 462 465 545
f 462 545 542
f 464 466 546
f 464 546 544
f 463 543 547
f 463 547 467
f 469 468 548
f 469 548 549
f 466 469 549
f 466 549 546
f 468 470 550
f 468 550 548
f 467 547 551
f 467 551 471
f 473 472 552
f 473 552 553
f 470 473 553
f 470 553 550
f 471 551 554
f 471 554 474
f 472 475 555
f 472 555 552
f 474 554 556
f 474 556 476
f 475 477 557
f 475 557 555
f 476 556 558
f 476 558 478
f 477 479 559
f 477 559 557
f 478 558 560
f 478 560 480
f 479 481 561
f 479 561 559
f 480 560 562
f 480 562 482
f 483 563 564
f 483 564 484
f 483 485 565
f 483 565 563
f 484 564 561
f 484 561 481
f 482 562 566
f 482 566 486
f 487 567 568
f 487 568 488
f 487 489 569
f 487 569 567
f 488 568 565
f 488 565 485
f 486 566 570
f 486 570 490
f 491 571 572
f 491 572 492
f 491 493 573
f 491 573 571
f 492 572 569
f 492 569 489
f 490 570 574
f 490 574 494
f 495 575 576
f 495 576 496
f 495 497 577
f 495 577 575
f 496 576 578
f 496 578 498
f 498 578 573
f 498 573 493
f 494 574 579
f 494 579 499
f 500 580 581
f 500 581 501
f 503 502 582
f 503 582 583
f 500 503 583
f 500 583 580
f 501 581 584
f 501 584 504
f 502 505 585
f 502 585 582
f 504 584 586
f 504 586 506
f 505 507 587
f 505 587 585
f 506 586 577
f 506 577 497
f 507 508 588
f 507 588 587
f 508 509 589
f 508 589 588
f 509 510 590
f 509 590 589
f 510 511 591
f 510 591 590
f 511 512 592
f 511 592 591
f 512 513 593
f 512 593 592
f 513 514 594
f 513 594 593
f 514 515 595
f 514 595 594
f 515 516 596
f 515 596 595
f 516 517 597
f 516 597 596
f 517 518 598
f 517 598 597
f 499 579 598
f 499 598 518
f 519 599 600
f 519 600 520
f 522 521 601
f 522 601 602
f 519 522 602
f 519 602 599
f 520 600 603
f 520 603 523
f 521 524 604
f 521 604 601
f 523 603 605
f 523 605 525
f 524 526 606
f 524 606 604
f 525 605 607
f 525 607 527
f 526 528 608
f 526 608 606
f 527 607 609
f 527 609 529
f 529 609 610
f 529 610 530
f 530 610 611
f 530 611 531
f 531 611 612
f 531 612 532
f 532 612 613
f 532 613 533
f 533 613 614
f 533 614 534
f 534 614 615
f 534 615 535
f 535 615 616
f 535 616 536
f 536 616 617
f 536 617 537
f 537 617 618
f 537 618 538
f 540 539 619
f 540 619 620
f 528 540 620
f 528 620 608
f 539 541 621
f 539 621 619
f 541 542 622
f 541 622 621
f 538 618 623
f 538 623 543
f 545 544 624
f 545 624 625
f 542 545 625
f 542 625 622
f 544 546 626
f 544 626 624
f 543 623 627
f 543 627 547
f 549 548 628
f 549 628 629
f 546 549 629
f 546 629 626
f 548 550 630
f 548 630 628
f 547 627 631
f 547 631 551
f 553 552 632
f 553 632 633
f 550 553 633
f 550 633 630
f 551 631 634
f 551 634 554
f 552 555 635
f 552 635 632
f 554 634 636
f 554 636 556
f 555 557 637
f 555 637 635
f 556 636 638
f 556 638 558
f 557 559 639
f 557 639 637
f 558 638 640
f 558 640 560
f 559 561 641
f 559 641 639
f 560 640 642
f 560 642 562
f 563 643 644
f 563 644 564
f 563 565 645
f 563 645 643
f 564 644 641
f 564 641 561
f 562 642 646
f 562 646 566
f 567 647 648
f 567 648 568
f 567 569 649
f 567 649 647
f 568 648 645
f 568 645 565
f 566 646 650
f 566 650 570
f 571 651 652
f 571 652 572
f 571 573 653
f 571 653 651
f 572 652 649
f 572 649 569
f 570 650 654
f 570 654 574
f 575 655 656
f 575 656 576
f 575 577 657
f 575 657 655
f 576 656 658
f 576 658 578
f 578 658 653
f 578 653 573
f 574 654 659
f 574 659 579
f 580 660 661
f 580 661 581
f 583 582 662
f 583 662 663
f 580 583 663
f 580 663 660
f 581 661 664
f 581 664 584
f 582 585 665
f 582 665 662
f 584 664 666
f 584 666 586
f 585 587 667
f 585 667 665
f 586 666 657
f 586 657 577
f 587 588 668
f 587 668 667
f 588 589 669
f 588 669 668
f 589 590 670
f 589 670 669
f 590 591 671
f 590 671 670
f 591 592 672
f 591 672 671
f 592 593 673
f 592 673 672
f 593 594 674
f 593 674 673
f 594 595 675
f 594 675 674
f 595 596 676
f 595 676 675
f 596 597 677
f 596 677 676
f 597 598 678
f 597 678 677
f 579 659 678
f 579 678 598
f 599 679 680
f 599 680 600
f 602 601 681
f 602 681 682
f 599 602 682
f 599 682 679
f 600 680 683
f 600 683 603
f 601 604 684
f 601 684 681
f 603 683 685
f 603 685 605
f 604 606 686
f 604 686 684
f 605 685 687
f 605 687 607
f 606 608 688
f 606 688 686
f 607 687 689
f 607 689 609
f 609 689 690
f 609 690 610
f 610 690 691
f 610 691 611
f 611 691 692
f 611 692 612
f 612 692 693
f 612 693 613
f 613 693 694
f 613 694 614
f 614 694 695
f 614 695 615
f 615 695 696
f 615 696 616
f 616 696 697
f 616 697 617
f 617 697 698
f 617 698 618
f 620 619 699
f 620 699 700
f 608 620 700
f 608 700 688
f 619 621 701
f 619 701 699
f 621 622 702
f 621 702 701
f 618 698 703
f 618 703 623
f 625 624 704
f 625 704 705
f 622 625 705
f 622 705 702
f 624 626 706
f 624 706 704
f 623 703 707
f 623 707 627
f 629 628 708
f 629 708 709
f 626 629 709
f 626 709 706
f 628 630 710
f 628 710 708
f 627 707 711
f 627 711 631
f 633 632 712
f 633 712 713
f 630 633 713
f 630 713 710
f 631 711 714
f 631 714 634
f 632 635 715
f 632 715 712
f 634 714 716
f 634 716 636
f 635 637 717
f 635 717 715
f 636 716 718
f 636 718 638
f 637 639 719
f 637 719 717
f 638 718 720
f 638 720 640
f 639 641 721
f 639 721 719
f 640 720 722
f 640 722 642
f 643 723 724
f 643 724 644
f 643 645 725
f 643 725 723
f 644 724 721
f 644 721 641
f 642 722 726
f 642 726 646
f 647 727 728
f 647 728 648
f 647 649 729
f 647 729 727
f 648 728 725
f 648 725 645
f 646 726 730
f 646 730 650
f 651 731 732
f 651 732 652
f 651 653 733
f 651 733 731
f 652 732 729
f 652 729 649
f 650 730 734
f 650 734 654
f 655 735 736
f 655 736 656
f 655 657 737
f 655 737 735
f 656 736 738
f 656 738 658
f 658 738 733
f 658 733 653
f 654 734 739
f 654 739 659
f 660 740 741
f 660 741 661
f 663 662 742
f 663 742 743
f 660 663 743
f 660 743 740
f 661 741 744
f 661 744 664
f 662 665 745
f 662 745 742
f 664 744 746
f 664 746 666
f 665 667 747
f 665 747 745
f 666 746 737
f 666 737 657
f 667 668 748
f 667 748 747
f 668 669 749
f 668 749 748
f 669 670 750
f 669 750 749
f 670 671 751
f 670 751 750
f 671 672 752
f 671 752 751
f 672 673 753
f 672 753 752
f 673 674 754
f 673 754 753
f 674 675 755
f 674 755 754
f 675 676 756
f 675 756 755
f 676 677 757
f 676 757 756
f 677 678 758
f 677 758 757
f 659 739 758
f 659 758 678
f 679 759 760
f 679 760 680
f 682 681 761
f 682 761 762
f 679 682 762
f 679 762 759
f 680 760 763
f 680 763 683
f 681 684 764
f 681 764 761
f 683 763 765
f 683 765 685
f 684 686 766
f 684 766 764
f 685 765 767
f 685 767 687
f 686 688 768
f 686 768 766
f 687 767 769
f 687 769 689
f 689 769 770
f 689 770 690
f 690 770 771
f 690 771 691
f 691 771 772
f 691 772 692
f 692 772 773
f 692 773 693
f 693 773 774
f 693 774 694
f 694 774 775
f 694 775 695
f 695 775 776
f 695 776 696
f 696 776 777
f 696 777 697
f 697 777 778
f 697 778 698
f 700 699 779
f 700 779 780
f 688 700 780
f 688 780 768
f 699 701 781
f 699 781 779
f 701 702 782
f 701 782 781
f 698 778 783
f 698 783 703
f 705 704 784
f 705 784 785
f 702 705 785
f 702 785 782
f 704 706 786
f 704 786 784
f 703 783 787
f 703 787 707
f 709 708 788
f 709 788 789
f 706 709 789
f 706 789 786
f 708 710 790
f 708 790 788
f 707 787 791
f 707 791 711
f 713 712 792
f 713 792 793
f 710 713 793
f 710 793 790
f 711 791 794
f 711 794 714
f 712 715 795
f 712 795 792
f 714 794 796
f 714 796 716
f 715 717 797
f 715 797 795
f 716 796 798
f 716 798 718
f 717 719 799
f 717 799 797
f 718 798 800
f 718 800 720
f 719 721 801
f 719 801 799
f 720 800 802
f 720 802 722
f 723 803 804
f 723 804 724
f 723 725 805
f 723 805 803
f 724 804 801
f 724 801 721
f 722 802 806
f 722 806 726
f 727 807 808
f 727 808 728
f 727 729 809
f 727 809 807
f 728 808 805
f 728 805 725
f 726 806 810
f 726 810 730
f 731 811 812
f 731 812 732
f 731 733 813
f 731 813 811
f 732 812 809
f 732 809 729
f 730 810 814
f 730 814 734
f 735 815 816
f 735 816 736
f 735 737 817
f 735 817 815
f 736 816 818
f 736 818 738
f 738 818 813
f 738 813 733
f 734 814 819
f 734 819 739
f 740 820 821
f 740 821 741
f 743 742 822
f 743 822 823
f 740 743 823
f 740 823 820
f 741 821 824
f 741 824 744
f 742 745 825
f 742 825 822
f 744 824 826
f 744 826 746
f 745 747 827
f 745 827 825
f 746 826 817
f 746 817 737
f 747 748 828
f 747 828 827
f 748 749 829
f 748 829 828
f 749 750 830
f 749 830 829
f 750 751 831
f 750 831 830
f 751 752 832
f 751 832 831
f 752 753 833
f 752 833 832
f 753 754 834
f 753 834 833
f 754 755 835
f 754 835 834
f 755 756 836
f 755 836 835
f 756 757 837
f 756 837 836
f 757 758 838
f 757 838 837
f 739 819 838
f 739 838 758
f 759 839 840
f 759 840 760
f 762 761 841
f 762 841 842
f 759 762 842
f 759 842 839
f 760 840 843
f 760 843 763
f 761 764 844
f 761 844 841
f 763 843 845
f 763 845 765
f 764 766 846
f 764 846 844
f 765 845 847
f 765 847 767
f 766 768 848
f 766 848 846
f 767 847 849
f 767 849 769
f 769 849 850
f 769 850 770
f 770 850 851
f 770 851 771
f 771 851 852
f 771 852 772
f 772 852 853
f 772 853 773
f 773 853 854
f 773 854 774
f 774 854 855
f 774 855 775
f 775 855 856
f 775 856 776
f 776 856 857
f 776 857 777
f 777 857 858
f 777 858 778
f 780 779 859
f 780 859 860
f 768 780 860
f 768 860 848
f 779 781 861
f 779 861 859
f 781 782 862
f 781 862 861
f 778 858 863
f 778 863 783
f 785 784 864
f 785 864 865
f 782 785 865
f 782 865 862
f 784 786 866
f 784 866 864
f 783 863 867
f 783 867 787
f 789 788 868
f 789 868 869
f 786 789 869
f 786 869 866
f 788 790 870
f 788 870 868
f 787 867 871
f 787 871 791
f 793 792 872
f 793 872 873
f 790 793 873
f 790 873 870
f 791 871 874
f 791 874 794
f 792 795 875
f 792 875 872
f 794 874 876
f 794 876 796
f 795 797 877
f 795 877 875
f 796 876 878
f 796 878 798
f 797 799 879
f 797 879 877
f 798 878 880
f 798 880 800
f 799 801 881
f 799 881 879
f 800 880 882
f 800 882 802
f 803 883 884
f 803 884 804
f 803 805 885
f 803 885 883
f 804 884 881
f 804 881 801
f 802 882 886
f 802 886 806
f 807 887 888
f 807 888 808
f 807 809 889
f 807 889 887
f 808 888 885
f 808 885 805
f 806 886 890
f 806 890 810
f 811 891 892
f 811 892 812
f 811 813 893
f 811 893 891
f 812 892 889
f 812 889 809
f 810 890 894
f 810 894 814
f 815 895 896
f 815 896 816
f 815 817 897
f 815 897 895
f 816 896 898
f 816 898 818
f 818 898 893
f 818 893 813
f 814 894 899
f 814 899 819
f 820 900 901
f 820 901 821
f 823 822 902
f 823 902 903
f 820 823 903
f 820 903 900
f 821 901 904
f 821 904 824
f 822 825 905
f 822 905 902
f 824 904 906
f 824 906 826
f 825 827 907
f 825 907 905
f 826 906 897
f 826 897 817
f 827 828 908
f 827 908 907
f 828 829 909
f 828 909 908
f 829 830 910
f 829 910 909
f 830 831 911
f 830 911 910
f 831 832 912
f 831 912 911
f 832 833 913
f 832 913 912
f 833 834 914
f 833 914 913
f 834 835 915
f 834 915 914
f 835 836 916
f 835 916 915
f 836 837 917
f 836 917 916
f 837 838 918
f 837 918 917
f 819 899 918
f 819 918 838
f 839 919 920
f 839 920 840
f 842 841 921
f 842 921 922
f 839 842 922
f 839 922 919
f 840 920 923
f 840 923 843
f 841 844 924
f 841 924 921
f 843 923 925
f 843 925 845
f 844 846 926
f 844 926 924
f 845 925 927
f 845 927 847
f 846 848 928
f 846 928 926
f 847 927 929
f 847 929 849
f 849 929 930
f 849 930 850
f 850 930 931
f 850 931 851
f 851 931 932
f 851 932 852
f 852 932 933
f 852 933 853
f 853 933 934
f 853 934 854
f 854 934 935
f 854 935 855
f 855 935 936
f 855 936 856
f 856 936 937
f 856 937 857
f 857 937 938
f 857 938 858
f 860 859 939
f 860 939 940
f 848 860 940
f 848 940 928
f 859 861 941
f 859 941 939
f 861 862 942
f 861 942 941
f 858 938 943
f 858 943 863
f 865 864 944
f 865 944 945
f 862 865 945
f 862 945 942
f 864 866 946
f 864 946 944
f 863 943 947
f 863 947 867
f 869 868 948
f 869 948 949
f 866 869 949
f 866 949 946
f 868 870 950
f 868 950 948
f 867 947 951
f 867 951 871
f 873 872 952
f 873 952 953
f 870 873 953
f 870 953 950
f 871 951 954
f 871 954 874
f 872 875 955
f 872 955 952
f 874 954 956
f 874 956 876
f 875 877 957
f 875 957 955
f 876 956 958
f 876 958 878
f 877 879 959
f 877 959 957
f 878 958 960
f 878 960 880
f 879 881 961
f 879 961 959
f 880 960 962
f 880 962 882
f 883 963 964
f 883 964 884
f 883 885 965
f 883 965 963
f 884 964 961
f 884 961 881
f 882 962 966
f 882 966 886
f 887 967 968
f 887 968 888
f 887 889 969
f 887 969 967
f 888 968 965
f 888 965 885
f 886 966 970
f 886 970 890
f 891 971 972
f 891 972 892
f 891 893 973
f 891 973 971
f 892 972 969
f 892 969 889
f 890 970 974
f 890 974 894
f 895 975 976
f 895 976 896
f 895 897 977
f 895 977 975
f 896 976 978
f 896 978 898
f 898 978 973
f 898 973 893
f 894 974 979
f 894 979 899
f 900 980 981
f 900 981 901
f 903 902 982
f 903 982 983
f 900 903 983
f 900 983 980
f 901 981 984
f 901 984 904
f 902 905 985
f 902 985 982
f 904 984 986
f 904 986 906
f 905 907 987
f 905 987 985
f 906 986 977
f 906 977 897
f 907 908 988
f 907 988 987
f 908 909 989
f 908 989 988
f 909 910 990
f 909 990 989
f 910 911 991
f 910 991 990
f 911 912 992
f 911 992 991
f 912 913 993
f 912 993 992
f 913 914 994
f 913 994 993
f 914 915 995
f 914 995 994
f 915 916 996
f 915 996 995
f 916 917 997
f 916 997 996
f 917 918 998
f 917 998 997
f 899 979 998
f 899 998 918
f 919 999 1000
f 919 1000 920
f 922 921 1001
f 922 1001 1002
f 919 922 1002
f 919 1002 999
f 920 1000 1003
f 920 1003 923
f 921 924 1004
f 921 1004 1001
f 923 1003 1005
f 923 1005 925
f 924 926 1006
f 924 1006 1004
f 925 1005 1007
f 925 1007 927
f 926 928 1008
f 926 1008 1006
f 927 1007 1009
f 927 1009 929
f 929 1009 1010
f 929 1010 930
f 930 1010 1011
f 930 1011 931
f 931 1011 1012
f 931 1012 932
f 932 1012 1013
f 932 1013 933
f 933 1013 1014
f 933 1014 934
f 934 1014 1015
f 934 1015 935
f 935 1015 1016
f 935 1016 936
f 936 1016 1017
f 936 1017 937
f 937 1017 1018
f 937 1018 938
f 940 939 1019
f 940 1019 1020
f 928 940 1020
f 928 1020 1008
f 939 941 1021
f 939 1021 1019
f 941 942 1022
f 941 1022 1021
f 938 1018 1023
f 938 1023 943
f 945 944 1024
f 945 1024 1025
f 942 945 1025
f 942 1025 1022
f 944 946 1026
f 944 1026 1024
f 943 1023 1027
f 943 1027 947
f 949 948 1028
f 949 1028 1029
f 946 949 1029
f 946 1029 1026
f 948 950 1030
f 948 1030 1028
f 947 1027 1031
f 947 1031 951
f 953 952 1032
f 953 1032 1033
f 950 953 1033
f 950 1033 1030
f 951 1031 1034
f 951 1034 954
f 952 955 1035
f 952 1035 1032
f 954 1034 1036
f 954 1036 956
f 955 957 1037
f 955 1037 1035
f 956 1036 1038
f 956 1038 958
f 957 959 1039
f 957 1039 1037
f 958 1038 1040
f 958 1040 960
f 959 961 1041
f 959 1041 1039
f 960 1040 1042
f 960 1042 962
f 963 1043 1044
f 963 1044 964
f 963 965 1045
f 963 1045 1043
f 964 1044 1041
f 964 1041 961
f 962 1042 1046
f 962 1046 966
f 967 1047 1048
f 967 1048 968
f 967 969 1049
f 967 1049 1047
f 968 1048 1045
f 968 1045 965
f 966 1046 1050
f 966 1050 970
f 971 1051 1052
f 971 1052 972
f 971 973 1053
f 971 1053 1051
f 972 1052 1049
f 972 1049 969
f 970 1050 1054
f 970 1054 974
f 975 1055 1056
f 975 1056 976
f 975 977 1057
f 975 1057 1055
f 976 1056 1058
f 976 1058 978
f 978 1058 1053
f 978 1053 973
f 974 1054 1059
f 974 1059 979
f 980 1060 1061
f 980 1061 981
f 983 982 1062
f 983 1062 1063
f 980 983 1063
f 980 1063 1060
f 981 1061 1064
f 981 1064 984
f 982 985 1065
f 982 1065 1062
f 984 1064 1066
f 984 1066 986
f 985 987 1067
f 985 1067 1065
f 986 1066 1057
f 986 1057 977
f 987 988 1068
f 987 1068 1067
f 988 989 1069
f 988 1069 1068
f 989 990 1070
f 989 1070 1069
f 990 991 1071
f 990 1071 1070
f 991 992 1072
f 991 1072 1071
f 992 993 1073
f 992 1073 1072
f 993 994 1074
f 993 1074 1073
f 994 995 1075
f 994 1075 1074
f 995 996 1076
f 995 1076 1075
f 996 997 1077
f 996 1077 1076
f 997 998 1078
f 997 1078 1077
f 979 1059 1078
f 979 1078 998
f 999 1079 1080
f 999 1080 1000
f 1002 1001 1081
f 1002 1081 1082
f 999 1002 1082
f 999 1082 1079
f 1000 1080 1083
f 1000 1083 1003
f 1001 1004 1084
f 1001 1084 1081
f 1003 1083 1085
f 1003 1085 1005
f 1004 1006 1086
f 1004 1086 1084
f 1005 1085 1087
f 1005 1087 1007
f 1006 1008 1088
f 1006 1088 1086
f 1007 1087 1089
f 1007 1089 1009
f 1009 1089 1090
f 1009 1090 1010
f 1010 1090 1091
f 1010 1091 1011
f 1011 1091 1092
f 1011 1092 1012
f 1012 1092 1093
f 1012 1093 1013
f 1013 1093 1094
f 1013 1094 1014
f 1014 1094 1095
f 1014 1095 1015
f 1015 1095 1096
f 1015 1096 1016
f 1016 1096 1097
f 1016 1097 1017
f 1017 1097 1098
f 1017 1098 1018
f 1020 1019 1099
f 1020 1099 1100
f 1008 1020 1100
f 1008 1100 1088
f 1019 1021 1101
f 1019 1101 1099
f 1021 1022 1102
f 1021 1102 1101
f 1018 1098 1103
f 1018 1103 1023
f 1025 1024 1104
f 1025 1104 1105
f 1022 1025 1105
f 1022 1105 1102
f 1024 1026 1106
f 1024 1106 1104
f 1023 1103 1107
f 1023 1107 1027
f 1029 1028 1108
f 1029 1108 1109
f 1026 1029 1109
f 1026 1109 1106
f 1028 1030 1110
f 1028 1110 1108
f 1027 1107 1111
f 1027 1111 1031
f 1033 1032 1112
f 1033 1112 1113
f 1030 1033 1113
f 1030 1113 1110
f 1031 1111 1114
f 1031 1114 1034
f 1032 1035 1115
f 1032 1115 1112
f 1034 1114 1116
f 1034 1116 1036
f 1035 1037 1117
f 1035 1117 1115
f 1036 1116 1118
f 1036 1118 1038
f 1037 1039 1119
f 1037 1119 1117
f 1038 1118 1120
f 1038 1120 1040
f 1039 1041 1121
f 1039 1121 1119
f 1040 1120 1122
f 1040 1122 1042
f 1043 1123 1124
f 1043 1124 1044
f 1043 1045 1125
f 1043 1125 1123
f 1044 1124 1121
f 1044 1121 1041
f 1042 1122 1126
f 1042 1126 1046
f 1047 1127 1128
f 1047 1128 1048
f 1047 1049 1129
f 1047 1129 1127
f 1048 1128 1125
f 1048 1125 1045
f 1046 1126 1130
f 1046 1130 1050
f 1051 1131 1132
f 1051 1132 1052
f 1051 1053 1133
f 1051 1133 1131
f 1052 1132 1129
f 1052 1129 1049
f 1050 1130 1134
f 1050 1134 1054
f 1055 1135 1136
f 1055 1136 1056
f 1055 1057 1137
f 1055 1137 1135
f 1056 1136 1138
f 1056 1138 1058
f 1058 1138 1133
f 1058 1133 1053
f 1054 1134 1139
f 1054 1139 1059
f 1060 1140 1141
f 1060 1141 1061
f 1063 1062 1142
f 1063 1142 1143
f 1060 1063 1143
f 1060 1143 1140
f 1061 1141 1144
f 1061 1144 1064
f 1062 1065 1145
f 1062 1145 1142
f 1064 1144 1146
f 1064 1146 1066
f 1065 1067 1147
f 1065 1147 1145
f 1066 1146 1137
f 1066 1137 1057
f 1067 1068 1148
f 1067 1148 1147
f 1068 1069 1149
f 1068 1149 1148
f 1069 1070 1150
f 1069 1150 1149
f 1070 1071 1151
f 1070 1151 1150
f 1071 1072 1152
f 1071 1152 1151
f 1072 1073 1153
f 1072 1153 1152
f 1073 1074 1154
f 1073 1154 1153
f 1074 1075 1155
f 1074 1155 1154
f 1075 1076 1156
f 1075 1156 1155
f 1076 1077 1157
f 1076 1157 1156
f 1077 1078 1158
f 1077 1158 1157
f 1059 1139 1158
f 1059 1158 1078
f 1159 1160 1161
f 1159 1161 1162
f 1079 1159 1160
f 1079 1160 1080
f 1082 1081 1161
f 1082 1161 1162
f 1079 1082 1162
f 1079 1162 1159
f 1160 1163 1164
f 1160 1164 1161
f 1080 1160 1163
f 1080 1163 1083
f 1081 1084 1164
f 1081 1164 1161
f 1163 1165 1166
f 1163 1166 1164
f 1083 1163 1165
f 1083 1165 1085
f 1084 1086 1166
f 1084 1166 1164
f 1165 1167 1168
f 1165 1168 1166
f 1085 1165 1167
f 1085 1167 1087
f 1086 1088 1168
f 1086 1168 1166
f 1167 1169 1170
f 1167 1170 1168
f 1087 1167 1169
f 1087 1169 1089
f 1169 1171 1172
f 1169 1172 1170
f 1089 1169 1171
f 1089 1171 1090
f 1171 1173 1174
f 1171 1174 1172
f 1090 1171 1173
f 1090 1173 1091
f 1173 1175 1176
f 1173 1176 1174
f 1091 1173 1175
f 1091 1175 1092
f 1175 1177 1178
f 1175 1178 1176
f 1092 1175 1177
f 1092 1177 1093
f 1177 1179 1180
f 1177 1180 1178
f 1093 1177 1179
f 1093 1179 1094
f 1179 1181 1182
f 1179 1182 1180
f 1094 1179 1181
f 1094 1181 1095
f 1181 1183 1184
f 1181 1184 1182
f 1095 1181 1183
f 1095 1183 1096
f 1183 1185 1186
f 1183 1186 1184
f 1096 1183 1185
f 1096 1185 1097
f 1097 1185 1186
f 1097 1186 1098
f 1168 1170 1187
f 1168 1187 1188
f 1100 1099 1187
f 1100 1187 1188
f 1088 1100 1188
f 1088 1188 1168
f 1170 1172 1189
f 1170 1189 1187
f 1099 1101 1189
f 1099 1189 1187
f 1172 1174 1190
f 1172 1190 1189
f 1101 1102 1190
f 1101 1190 1189
f 1174 1176 1191
f 1174 1191 1190
f 1176 1178 1192
f 1176 1192 1191
f 1178 1180 1193
f 1178 1193 1192
f 1180 1182 1194
f 1180 1194 1193
f 1182 1184 1195
f 1182 1195 1194
f 1184 1186 1196
f 1184 1196 1195
f 1098 1186 1196
f 1098 1196 1103
f 1190 1191 1197
f 1190 1197 1198
f 1105 1104 1197
f 1105 1197 1198
f 1102 1105 1198
f 1102 1198 1190
f 1191 1192 1199
f 1191 1199 1197
f 1104 1106 1199
f 1104 1199 1197
f 1192 1193 1200
f 1192 1200 1199
f 1193 1194 1201
f 1193 1201 1200
f 1194 1195 1202
f 1194 1202 1201
f 1195 1196 1203
f 1195 1203 1202
f 1103 1196 1203
f 1103 1203 1107
f 1199 1200 1204
f 1199 1204 1205
f 1109 1108 1204
f 1109 1204 1205
f 1106 1109 1205
f 1106 1205 1199
f 1200 1201 1206
f 1200 1206 1204
f 1108 1110 1206
f 1108 1206 1204
f 1201 1202 1207
f 1201 1207 1206
f 1202 1203 1208
f 1202 1208 1207
f 1107 1203 1208
f 1107 1208 1111
f 1206 1207 1209
f 1206 1209 1210
f 1113 1112 1209
f 1113 1209 1210
f 1110 1113 1210
f 1110 1210 1206
f 1207 1208 1211
f 1207 1211 1209
f 1111 1208 1211
f 1111 1211 1114
f 1209 1211 1212
f 1209 1212 1213
f 1112 1115 1213
f 1112 1213 1209
f 1114 1211 1212
f 1114 1212 1116
f 1213 1212 1214
f 1213 1214 1215
f 1115 1117 1215
f 1115 1215 1213
f 1116 1212 1214
f 1116 1214 1118
f 1215 1214 1216
f 1215 1216 1217
f 1117 1119 1217
f 1117 1217 1215
f 1118 1214 1216
f 1118 1216 1120
f 1217 1216 1218
f 1217 1218 1219
f 1119 1121 1219
f 1119 1219 1217
f 1120 1216 1218
f 1120 1218 1122
f 1220 1221 1222
f 1220 1222 1223
f 1123 1220 1221
f 1123 1221 1124
f 1123 1125 1223
f 1123 1223 1220
f 1221 1219 1224
f 1221 1224 1222
f 1124 1221 1219
f 1124 1219 1121
f 1219 1218 1225
f 1219 1225 1224
f 1122 1218 1225
f 1122 1225 1126
f 1226 1227 1228
f 1226 1228 1229
f 1127 1226 1227
f 1127 1227 1128
f 1127 1129 1229
f 1127 1229 1226
f 1227 1223 1230
f 1227 1230 1228
f 1128 1227 1223
f 1128 1223 1125
f 1223 1222 1231
f 1223 1231 1230
f 1222 1224 1232
f 1222 1232 1231
f 1224 1225 1233
f 1224 1233 1232
f 1126 1225 1233
f 1126 1233 1130
f 1234 1235 1236
f 1234 1236 1237
f 1131 1234 1235
f 1131 1235 1132
f 1131 1133 1237
f 1131 1237 1234
f 1235 1229 1238
f 1235 1238 1236
f 1132 1235 1229
f 1132 1229 1129
f 1229 1228 1239
f 1229 1239 1238
f 1228 1230 1240
f 1228 1240 1239
f 1230 1231 1241
f 1230 1241 1240
f 1231 1232 1242
f 1231 1242 1241
f 1232 1233 1243
f 1232 1243 1242
f 1130 1233 1243
f 1130 1243 1134
f 1244 1245 1246
f 1244 1246 1247
f 1135 1244 1245
f 1135 1245 1136
f 1135 1137 1247
f 1135 1247 1244
f 1245 1248 1249
f 1245 1249 1246
f 1136 1245 1248
f 1136 1248 1138
f 1248 1237 1250
f 1248 1250 1249
f 1138 1248 1237
f 1138 1237 1133
f 1237 1236 1251
f 1237 1251 1250
f 1236 1238 1252
f 1236 1252 1251
f 1238 1239 1253
f 1238 1253 1252
f 1239 1240 1254
f 1239 1254 1253
f 1240 1241 1255
f 1240 1255 1254
f 1241 1242 1256
f 1241 1256 1255
f 1242 1243 1257
f 1242 1257 1256
f 1134 1243 1257
f 1134 1257 1139
f 1258 1259 1260
f 1258 1260 1261
f 1140 1258 1259
f 1140 1259 1141
f 1143 1142 1260
f 1143 1260 1261
f 1140 1143 1261
f 1140 1261 1258
f 1259 1262 1263
f 1259 1263 1260
f 1141 1259 1262
f 1141 1262 1144
f 1142 1145 1263
f 1142 1263 1260
f 1262 1264 1265
f 1262 1265 1263
f 1144 1262 1264
f 1144 1264 1146
f 1145 1147 1265
f 1145 1265 1263
f 1264 1247 1266
f 1264 1266 1265
f 1146 1264 1247
f 1146 1247 1137
f 1147 1148 1266
f 1147 1266 1265
f 1247 1246 1267
f 1247 1267 1266
f 1148 1149 1267
f 1148 1267 1266
f 1246 1249 1268
f 1246 1268 1267
f 1149 1150 1268
f 1149 1268 1267
f 1249 1250 1269
f 1249 1269 1268
f 1150 1151 1269
f 1150 1269 1268
f 1250 1251 1270
f 1250 1270 1269
f 1151 1152 1270
f 1151 1270 1269
f 1251 1252 1271
f 1251 1271 1270
f 1152 1153 1271
f 1152 1271 1270
f 1252 1253 1272
f 1252 1272 1271
f 1153 1154 1272
f 1153 1272 1271
f 1253 1254 1273
f 1253 1273 1272
f 1154 1155 1273
f 1154 1273 1272
f 1254 1255 1274
f 1254 1274 1273
f 1155 1156 1274
f 1155 1274 1273
f 1255 1256 1275
f 1255 1275 1274
f 1156 1157 1275
f 1156 1275 1274
f 1256 1257 1276
f 1256 1276 1275
f 1157 1158 1276
f 1157 1276 1275
f 1139 1257 1276
f 1139 1276 1158
