o [4B] 3D Diagram - S2-06 Group A_943
v -12.848750 0.155000 100.275000
v -12.848750 2.990000 100.275000
v -12.848750 2.990000 100.950000
v -12.848750 0.155000 100.950000
v -12.477500 0.155000 100.275000
v -12.477500 0.155000 100.950000
v -12.477500 2.990000 100.275000
v -12.848750 2.990000 101.625000
v -12.848750 0.155000 101.625000
v -12.477500 0.155000 101.625000
v -12.848750 2.990000 102.300000
v -12.848750 0.155000 102.300000
v -12.477500 0.155000 102.300000
v -12.848750 2.990000 102.975000
v -12.848750 0.155000 102.975000
v -12.477500 0.155000 102.975000
v -12.848750 2.990000 103.650000
v -12.848750 0.155000 103.650000
v -12.477500 0.155000 103.650000
v -12.848750 2.990000 104.325000
v -12.848750 0.155000 104.325000
v -12.477500 0.155000 104.325000
v -12.848750 2.990000 105.000000
v -12.848750 0.155000 105.000000
v -12.477500 0.155000 105.000000
v -12.848750 2.990000 105.675000
v -12.848750 0.155000 105.675000
v -12.477500 0.155000 105.675000
v -12.848750 2.990000 106.350000
v -12.848750 0.155000 106.350000
v -12.477500 0.155000 106.350000
v -12.848750 2.990000 107.025000
v -12.848750 0.155000 107.025000
v -12.477500 0.155000 107.025000
v -12.848750 2.990000 107.700000
v -12.848750 0.155000 107.700000
v -12.477500 0.155000 107.700000
v -12.848750 2.990000 108.375000
v -12.848750 0.155000 108.375000
v -12.477500 0.155000 108.375000
v -12.848750 2.990000 109.050000
v -12.848750 0.155000 109.050000
v -12.477500 0.155000 109.050000
v -12.848750 2.990000 109.725000
v -12.848750 0.155000 109.725000
v -12.477500 0.155000 109.725000
v -12.477500 2.990000 109.725000
v -12.848750 5.825000 100.275000
v -12.848750 5.825000 100.950000
v -12.477500 5.825000 100.275000
v -12.848750 5.825000 101.625000
v -12.848750 5.825000 102.300000
v -12.848750 5.825000 102.975000
v -12.848750 5.825000 103.650000
v -12.848750 5.825000 104.325000
v -12.848750 5.825000 105.000000
v -12.848750 5.825000 105.675000
v -12.848750 5.825000 106.350000
v -12.848750 5.825000 107.025000
v -12.848750 5.825000 107.700000
v -12.848750 5.825000 108.375000
v -12.848750 5.825000 109.050000
v -12.848750 5.825000 109.725000
v -12.477500 5.825000 109.725000
v -12.848750 8.660000 100.275000
v -12.848750 8.660000 100.950000
v -12.477500 8.660000 100.275000
v -12.848750 8.660000 101.625000
v -12.848750 8.660000 102.300000
v -12.848750 8.660000 102.975000
v -12.848750 8.660000 103.650000
v -12.848750 8.660000 104.325000
v -12.848750 8.660000 105.000000
v -12.848750 8.660000 105.675000
v -12.848750 8.660000 106.350000
v -12.848750 8.660000 107.025000
v -12.848750 8.660000 107.700000
v -12.848750 8.660000 108.375000
v -12.848750 8.660000 109.050000
v -12.848750 8.660000 109.725000
v -12.477500 8.660000 109.725000
v -12.848750 11.495000 100.275000
v -12.848750 11.495000 100.950000
v -12.477500 11.495000 100.275000
v -12.848750 11.495000 101.625000
v -12.848750 11.495000 102.300000
v -12.848750 11.495000 102.975000
v -12.848750 11.495000 103.650000
v -12.848750 11.495000 104.325000
v -12.848750 11.495000 105.000000
v -12.848750 11.495000 105.675000
v -12.848750 11.495000 106.350000
v -12.848750 11.495000 107.025000
v -12.848750 11.495000 107.700000
v -12.848750 11.495000 108.375000
v -12.848750 11.495000 109.050000
v -12.848750 11.495000 109.725000
v -12.477500 11.495000 109.725000
v -12.848750 14.330000 100.275000
v -12.848750 14.330000 100.950000
v -12.477500 14.330000 100.275000
v -12.848750 14.330000 101.625000
v -12.848750 14.330000 102.300000
v -12.848750 14.330000 102.975000
v -12.848750 14.330000 103.650000
v -12.848750 14.330000 104.325000
v -12.848750 14.330000 105.000000
v -12.848750 14.330000 105.675000
v -12.848750 14.330000 106.350000
v -12.848750 14.330000 107.025000
v -12.848750 14.330000 107.700000
v -12.848750 14.330000 108.375000
v -12.848750 14.330000 109.050000
v -12.848750 14.330000 109.725000
v -12.477500 14.330000 109.725000
v -12.848750 17.165000 100.275000
v -12.848750 17.165000 100.950000
v -12.477500 17.165000 100.275000
v -12.848750 17.165000 101.625000
v -12.848750 17.165000 102.300000
v -12.848750 17.165000 102.975000
v -12.848750 17.165000 103.650000
v -12.848750 17.165000 104.325000
v -12.848750 17.165000 105.000000
v -12.848750 17.165000 105.675000
v -12.848750 17.165000 106.350000
v -12.848750 17.165000 107.025000
v -12.848750 17.165000 107.700000
v -12.848750 17.165000 108.375000
v -12.848750 17.165000 109.050000
v -12.848750 17.165000 109.725000
v -12.477500 17.165000 109.725000
v -12.848750 20.000000 100.275000
v -12.848750 20.000000 100.950000
v -12.477500 20.000000 100.275000
v -12.848750 20.000000 101.625000
v -12.848750 20.000000 102.300000
v -12.848750 20.000000 102.975000
v -12.848750 20.000000 103.650000
v -12.848750 20.000000 104.325000
v -12.848750 20.000000 105.000000
v -12.848750 20.000000 105.675000
v -12.848750 20.000000 106.350000
v -12.848750 20.000000 107.025000
v -12.848750 20.000000 107.700000
v -12.848750 20.000000 108.375000
v -12.848750 20.000000 109.050000
v -12.848750 20.000000 109.725000
v -12.477500 20.000000 109.725000
v -12.848750 22.835000 100.275000
v -12.848750 22.835000 100.950000
v -12.477500 22.835000 100.275000
v -12.848750 22.835000 101.625000
v -12.848750 22.835000 102.300000
v -12.848750 22.835000 102.975000
v -12.848750 22.835000 103.650000
v -12.848750 22.835000 104.325000
v -12.848750 22.835000 105.000000
v -12.848750 22.835000 105.675000
v -12.848750 22.835000 106.350000
v -12.848750 22.835000 107.025000
v -12.848750 22.835000 107.700000
v -12.848750 22.835000 108.375000
v -12.848750 22.835000 109.050000
v -12.848750 22.835000 109.725000
v -12.477500 22.835000 109.725000
v -12.848750 25.670000 100.275000
v -12.848750 25.670000 100.950000
v -12.477500 25.670000 100.275000
v -12.848750 25.670000 101.625000
v -12.848750 25.670000 102.300000
v -12.848750 25.670000 102.975000
v -12.848750 25.670000 103.650000
v -12.848750 25.670000 104.325000
v -12.848750 25.670000 105.000000
v -12.848750 25.670000 105.675000
v -12.848750 25.670000 106.350000
v -12.848750 25.670000 107.025000
v -12.848750 25.670000 107.700000
v -12.848750 25.670000 108.375000
v -12.848750 25.670000 109.050000
v -12.848750 25.670000 109.725000
v -12.477500 25.670000 109.725000
v -12.848750 28.505000 100.275000
v -12.848750 28.505000 100.950000
v -12.477500 28.505000 100.275000
v -12.848750 28.505000 101.625000
v -12.848750 28.505000 102.300000
v -12.848750 28.505000 102.975000
v -12.848750 28.505000 103.650000
v -12.848750 28.505000 104.325000
v -12.848750 28.505000 105.000000
v -12.848750 28.505000 105.675000
v -12.848750 28.505000 106.350000
v -12.848750 28.505000 107.025000
v -12.848750 28.505000 107.700000
v -12.848750 28.505000 108.375000
v -12.848750 28.505000 109.050000
v -12.848750 28.505000 109.725000
v -12.477500 28.505000 109.725000
v -12.848750 31.340000 100.275000
v -12.848750 31.340000 100.950000
v -12.477500 31.340000 100.275000
v -12.848750 31.340000 101.625000
v -12.848750 31.340000 102.300000
v -12.848750 31.340000 102.975000
v -12.848750 31.340000 103.650000
v -12.848750 31.340000 104.325000
v -12.848750 31.340000 105.000000
v -12.848750 31.340000 105.675000
v -12.848750 31.340000 106.350000
v -12.848750 31.340000 107.025000
v -12.848750 31.340000 107.700000
v -12.848750 31.340000 108.375000
v -12.848750 31.340000 109.050000
v -12.848750 31.340000 109.725000
v -12.477500 31.340000 109.725000
v -12.848750 34.175000 100.275000
v -12.848750 34.175000 100.950000
v -12.477500 34.175000 100.275000
v -12.848750 34.175000 101.625000
v -12.848750 34.175000 102.300000
v -12.848750 34.175000 102.975000
v -12.848750 34.175000 103.650000
v -12.848750 34.175000 104.325000
v -12.848750 34.175000 105.000000
v -12.848750 34.175000 105.675000
v -12.848750 34.175000 106.350000
v -12.848750 34.175000 107.025000
v -12.848750 34.175000 107.700000
v -12.848750 34.175000 108.375000
v -12.848750 34.175000 109.050000
v -12.848750 34.175000 109.725000
v -12.477500 34.175000 109.725000
v -12.848750 37.010000 100.275000
v -12.848750 37.010000 100.950000
v -12.477500 37.010000 100.275000
v -12.848750 37.010000 101.625000
v -12.848750 37.010000 102.300000
v -12.848750 37.010000 102.975000
v -12.848750 37.010000 103.650000
v -12.848750 37.010000 104.325000
v -12.848750 37.010000 105.000000
v -12.848750 37.010000 105.675000
v -12.848750 37.010000 106.350000
v -12.848750 37.010000 107.025000
v -12.848750 37.010000 107.700000
v -12.848750 37.010000 108.375000
v -12.848750 37.010000 109.050000
v -12.848750 37.010000 109.725000
v -12.477500 37.010000 109.725000
v -12.848750 39.845000 100.275000
v -12.848750 39.845000 100.950000
v -12.477500 39.845000 100.950000
v -12.477500 39.845000 100.275000
v -12.848750 39.845000 101.625000
v -12.477500 39.845000 101.625000
v -12.848750 39.845000 102.300000
v -12.477500 39.845000 102.300000
v -12.848750 39.845000 102.975000
v -12.477500 39.845000 102.975000
v -12.848750 39.845000 103.650000
v -12.477500 39.845000 103.650000
v -12.848750 39.845000 104.325000
v -12.477500 39.845000 104.325000
v -12.848750 39.845000 105.000000
v -12.477500 39.845000 105.000000
v -12.848750 39.845000 105.675000
v -12.477500 39.845000 105.675000
v -12.848750 39.845000 106.350000
v -12.477500 39.845000 106.350000
v -12.848750 39.845000 107.025000
v -12.477500 39.845000 107.025000
v -12.848750 39.845000 107.700000
v -12.477500 39.845000 107.700000
v -12.848750 39.845000 108.375000
v -12.477500 39.845000 108.375000
v -12.848750 39.845000 109.050000
v -12.477500 39.845000 109.050000
v -12.848750 39.845000 109.725000
v -12.477500 39.845000 109.725000
v -12.106250 0.155000 100.275000
v -12.106250 0.155000 100.950000
v -12.106250 2.990000 100.950000
v -12.106250 2.990000 100.275000
v -12.106250 0.155000 101.625000
v -12.106250 0.155000 102.300000
v -12.106250 0.155000 102.975000
v -12.106250 0.155000 103.650000
v -12.106250 0.155000 104.325000
v -12.106250 0.155000 105.000000
v -12.106250 0.155000 105.675000
v -12.106250 0.155000 106.350000
v -12.106250 0.155000 107.025000
v -12.106250 0.155000 107.700000
v -12.106250 0.155000 108.375000
v -12.106250 0.155000 109.050000
v -12.106250 0.155000 109.725000
v -12.106250 2.990000 109.725000
v -12.106250 5.825000 100.950000
v -12.106250 5.825000 100.275000
v -12.106250 5.825000 109.725000
v -12.106250 8.660000 100.950000
v -12.106250 8.660000 100.275000
v -12.106250 8.660000 109.725000
v -12.106250 11.495000 100.950000
v -12.106250 11.495000 100.275000
v -12.106250 11.495000 109.725000
v -12.106250 14.330000 100.950000
v -12.106250 14.330000 100.275000
v -12.106250 14.330000 109.725000
v -12.106250 17.165000 100.950000
v -12.106250 17.165000 100.275000
v -12.106250 17.165000 109.725000
v -12.106250 20.000000 100.950000
v -12.106250 20.000000 100.275000
v -12.106250 20.000000 109.725000
v -12.106250 22.835000 100.950000
v -12.106250 22.835000 100.275000
v -12.106250 22.835000 109.725000
v -12.106250 25.670000 100.950000
v -12.106250 25.670000 100.275000
v -12.106250 25.670000 109.725000
v -12.106250 28.505000 100.950000
v -12.106250 28.505000 100.275000
v -12.106250 28.505000 109.725000
v -12.106250 31.340000 100.950000
v -12.106250 31.340000 100.275000
v -12.106250 31.340000 109.725000
v -12.106250 34.175000 100.950000
v -12.106250 34.175000 100.275000
v -12.106250 34.175000 109.725000
v -12.106250 37.010000 100.950000
v -12.106250 37.010000 100.275000
v -12.106250 37.010000 109.725000
v -12.106250 39.845000 100.950000
v -12.106250 39.845000 100.275000
v -12.106250 39.845000 101.625000
v -12.106250 39.845000 102.300000
v -12.106250 39.845000 102.975000
v -12.106250 39.845000 103.650000
v -12.106250 39.845000 104.325000
v -12.106250 39.845000 105.000000
v -12.106250 39.845000 105.675000
v -12.106250 39.845000 106.350000
v -12.106250 39.845000 107.025000
v -12.106250 39.845000 107.700000
v -12.106250 39.845000 108.375000
v -12.106250 39.845000 109.050000
v -12.106250 39.845000 109.725000
v -11.735000 0.155000 100.950000
v -11.735000 0.155000 101.625000
v -11.735000 2.990000 101.625000
v -11.735000 2.990000 100.950000
v -11.735000 0.155000 102.300000
v -11.735000 2.990000 102.300000
v -11.735000 0.155000 102.975000
v -11.735000 2.990000 102.975000
v -11.735000 0.155000 103.650000
v -11.735000 0.155000 104.325000
v -11.735000 0.155000 105.000000
v -11.735000 0.155000 105.675000
v -11.735000 0.155000 106.350000
v -11.735000 0.155000 107.025000
v -11.735000 0.155000 107.700000
v -11.735000 0.155000 108.375000
v -11.735000 0.155000 109.050000
v -11.735000 0.155000 109.725000
v -11.735000 2.990000 109.725000
v -11.735000 5.825000 101.625000
v -11.735000 5.825000 100.950000
v -11.735000 5.825000 102.300000
v -11.735000 5.825000 102.975000
v -11.735000 5.825000 109.725000
v -11.735000 8.660000 101.625000
v -11.735000 8.660000 100.950000
v -11.735000 8.660000 102.300000
v -11.735000 8.660000 102.975000
v -11.735000 8.660000 109.725000
v -11.735000 11.495000 101.625000
v -11.735000 11.495000 100.950000
v -11.735000 11.495000 102.300000
v -11.735000 11.495000 102.975000
v -11.735000 11.495000 109.725000
v -11.735000 14.330000 101.625000
v -11.735000 14.330000 100.950000
v -11.735000 14.330000 102.300000
v -11.735000 14.330000 102.975000
v -11.735000 14.330000 109.725000
v -11.735000 17.165000 101.625000
v -11.735000 17.165000 100.950000
v -11.735000 17.165000 102.300000
v -11.735000 17.165000 102.975000
v -11.735000 17.165000 109.725000
v -11.735000 20.000000 101.625000
v -11.735000 20.000000 100.950000
v -11.735000 20.000000 102.300000
v -11.735000 20.000000 102.975000
v -11.735000 20.000000 109.725000
v -11.735000 22.835000 101.625000
v -11.735000 22.835000 100.950000
v -11.735000 22.835000 102.300000
v -11.735000 22.835000 102.975000
v -11.735000 22.835000 109.725000
v -11.735000 25.670000 101.625000
v -11.735000 25.670000 100.950000
v -11.735000 25.670000 102.300000
v -11.735000 25.670000 102.975000
v -11.735000 25.670000 109.725000
v -11.735000 28.505000 101.625000
v -11.735000 28.505000 100.950000
v -11.735000 28.505000 102.300000
v -11.735000 28.505000 102.975000
v -11.735000 28.505000 109.725000
v -11.735000 31.340000 101.625000
v -11.735000 31.340000 100.950000
v -11.735000 31.340000 102.300000
v -11.735000 31.340000 102.975000
v -11.735000 31.340000 109.725000
v -11.735000 34.175000 101.625000
v -11.735000 34.175000 100.950000
v -11.735000 34.175000 102.300000
v -11.735000 34.175000 102.975000
v -11.735000 34.175000 109.725000
v -11.735000 37.010000 101.625000
v -11.735000 37.010000 100.950000
v -11.735000 37.010000 102.300000
v -11.735000 37.010000 102.975000
v -11.735000 37.010000 109.725000
v -11.735000 39.845000 101.625000
v -11.735000 39.845000 100.950000
v -11.735000 39.845000 102.300000
v -11.735000 39.845000 102.975000
v -11.735000 39.845000 103.650000
v -11.735000 39.845000 104.325000
v -11.735000 39.845000 105.000000
v -11.735000 39.845000 105.675000
v -11.735000 39.845000 106.350000
v -11.735000 39.845000 107.025000
v -11.735000 39.845000 107.700000
v -11.735000 39.845000 108.375000
v -11.735000 39.845000 109.050000
v -11.735000 39.845000 109.725000
v -11.363750 0.155000 102.975000
v -11.363750 0.155000 103.650000
v -11.363750 2.990000 103.650000
v -11.363750 2.990000 102.975000
v -11.363750 0.155000 104.325000
v -11.363750 2.990000 104.325000
v -11.363750 0.155000 105.000000
v -11.363750 2.990000 105.000000
v -11.363750 0.155000 105.675000
v -11.363750 0.155000 106.350000
v -11.363750 0.155000 107.025000
v -11.363750 0.155000 107.700000
v -11.363750 0.155000 108.375000
v -11.363750 0.155000 109.050000
v -11.363750 0.155000 109.725000
v -11.363750 2.990000 109.725000
v -11.363750 5.825000 103.650000
v -11.363750 5.825000 102.975000
v -11.363750 5.825000 104.325000
v -11.363750 5.825000 105.000000
v -11.363750 5.825000 109.725000
v -11.363750 8.660000 103.650000
v -11.363750 8.660000 102.975000
v -11.363750 8.660000 104.325000
v -11.363750 8.660000 105.000000
v -11.363750 8.660000 109.725000
v -11.363750 11.495000 103.650000
v -11.363750 11.495000 102.975000
v -11.363750 11.495000 104.325000
v -11.363750 11.495000 105.000000
v -11.363750 11.495000 109.725000
v -11.363750 14.330000 103.650000
v -11.363750 14.330000 102.975000
v -11.363750 14.330000 104.325000
v -11.363750 14.330000 105.000000
v -11.363750 14.330000 109.725000
v -11.363750 17.165000 103.650000
v -11.363750 17.165000 102.975000
v -11.363750 17.165000 104.325000
v -11.363750 17.165000 105.000000
v -11.363750 17.165000 109.725000
v -11.363750 20.000000 103.650000
v -11.363750 20.000000 102.975000
v -11.363750 20.000000 104.325000
v -11.363750 20.000000 105.000000
v -11.363750 20.000000 109.725000
v -11.363750 22.835000 103.650000
v -11.363750 22.835000 102.975000
v -11.363750 22.835000 104.325000
v -11.363750 22.835000 105.000000
v -11.363750 22.835000 109.725000
v -11.363750 25.670000 103.650000
v -11.363750 25.670000 102.975000
v -11.363750 25.670000 104.325000
v -11.363750 25.670000 105.000000
v -11.363750 25.670000 109.725000
v -11.363750 28.505000 103.650000
v -11.363750 28.505000 102.975000
v -11.363750 28.505000 104.325000
v -11.363750 28.505000 105.000000
v -11.363750 28.505000 109.725000
v -11.363750 31.340000 103.650000
v -11.363750 31.340000 102.975000
v -11.363750 31.340000 104.325000
v -11.363750 31.340000 105.000000
v -11.363750 31.340000 109.725000
v -11.363750 34.175000 103.650000
v -11.363750 34.175000 102.975000
v -11.363750 34.175000 104.325000
v -11.363750 34.175000 105.000000
v -11.363750 34.175000 109.725000
v -11.363750 37.010000 103.650000
v -11.363750 37.010000 102.975000
v -11.363750 37.010000 104.325000
v -11.363750 37.010000 105.000000
v -11.363750 37.010000 109.725000
v -11.363750 39.845000 103.650000
v -11.363750 39.845000 102.975000
v -11.363750 39.845000 104.325000
v -11.363750 39.845000 105.000000
v -11.363750 39.845000 105.675000
v -11.363750 39.845000 106.350000
v -11.363750 39.845000 107.025000
v -11.363750 39.845000 107.700000
v -11.363750 39.845000 108.375000
v -11.363750 39.845000 109.050000
v -11.363750 39.845000 109.725000
v -10.992500 0.155000 105.000000
v -10.992500 0.155000 105.675000
v -10.992500 2.990000 105.675000
v -10.992500 2.990000 105.000000
v -10.992500 0.155000 106.350000
v -10.992500 2.990000 106.350000
v -10.992500 0.155000 107.025000
v -10.992500 2.990000 107.025000
v -10.992500 0.155000 107.700000
v -10.992500 0.155000 108.375000
v -10.992500 0.155000 109.050000
v -10.992500 0.155000 109.725000
v -10.992500 2.990000 109.725000
v -10.992500 5.825000 105.675000
v -10.992500 5.825000 105.000000
v -10.992500 5.825000 106.350000
v -10.992500 5.825000 107.025000
v -10.992500 5.825000 109.725000
v -10.992500 8.660000 105.675000
v -10.992500 8.660000 105.000000
v -10.992500 8.660000 106.350000
v -10.992500 8.660000 107.025000
v -10.992500 8.660000 109.725000
v -10.992500 11.495000 105.675000
v -10.992500 11.495000 105.000000
v -10.992500 11.495000 106.350000
v -10.992500 11.495000 107.025000
v -10.992500 11.495000 109.725000
v -10.992500 14.330000 105.675000
v -10.992500 14.330000 105.000000
v -10.992500 14.330000 106.350000
v -10.992500 14.330000 107.025000
v -10.992500 14.330000 109.725000
v -10.992500 17.165000 105.675000
v -10.992500 17.165000 105.000000
v -10.992500 17.165000 106.350000
v -10.992500 17.165000 107.025000
v -10.992500 17.165000 109.725000
v -10.992500 20.000000 105.675000
v -10.992500 20.000000 105.000000
v -10.992500 20.000000 106.350000
v -10.992500 20.000000 107.025000
v -10.992500 20.000000 109.725000
v -10.992500 22.835000 105.675000
v -10.992500 22.835000 105.000000
v -10.992500 22.835000 106.350000
v -10.992500 22.835000 107.025000
v -10.992500 22.835000 109.725000
v -10.992500 25.670000 105.675000
v -10.992500 25.670000 105.000000
v -10.992500 25.670000 106.350000
v -10.992500 25.670000 107.025000
v -10.992500 25.670000 109.725000
v -10.992500 28.505000 105.675000
v -10.992500 28.505000 105.000000
v -10.992500 28.505000 106.350000
v -10.992500 28.505000 107.025000
v -10.992500 28.505000 109.725000
v -10.992500 31.340000 105.675000
v -10.992500 31.340000 105.000000
v -10.992500 31.340000 106.350000
v -10.992500 31.340000 107.025000
v -10.992500 31.340000 109.725000
v -10.992500 34.175000 105.675000
v -10.992500 34.175000 105.000000
v -10.992500 34.175000 106.350000
v -10.992500 34.175000 107.025000
v -10.992500 34.175000 109.725000
v -10.992500 37.010000 105.675000
v -10.992500 37.010000 105.000000
v -10.992500 37.010000 106.350000
v -10.992500 37.010000 107.025000
v -10.992500 37.010000 109.725000
v -10.992500 39.845000 105.675000
v -10.992500 39.845000 105.000000
v -10.992500 39.845000 106.350000
v -10.992500 39.845000 107.025000
v -10.992500 39.845000 107.700000
v -10.992500 39.845000 108.375000
v -10.992500 39.845000 109.050000
v -10.992500 39.845000 109.725000
v -10.621250 0.155000 107.025000
v -10.621250 0.155000 107.700000
v -10.621250 2.990000 107.700000
v -10.621250 2.990000 107.025000
v -10.621250 0.155000 108.375000
v -10.621250 0.155000 109.050000
v -10.621250 0.155000 109.725000
v -10.621250 2.990000 109.725000
v -10.621250 5.825000 107.700000
v -10.621250 5.825000 107.025000
v -10.621250 5.825000 109.725000
v -10.621250 8.660000 107.700000
v -10.621250 8.660000 107.025000
v -10.621250 8.660000 109.725000
v -10.621250 11.495000 107.700000
v -10.621250 11.495000 107.025000
v -10.621250 11.495000 109.725000
v -10.621250 14.330000 107.700000
v -10.621250 14.330000 107.025000
v -10.621250 14.330000 109.725000
v -10.621250 17.165000 107.700000
v -10.621250 17.165000 107.025000
v -10.621250 17.165000 109.725000
v -10.621250 20.000000 107.700000
v -10.621250 20.000000 107.025000
v -10.621250 20.000000 109.725000
v -10.621250 22.835000 107.700000
v -10.621250 22.835000 107.025000
v -10.621250 22.835000 109.725000
v -10.621250 25.670000 107.700000
v -10.621250 25.670000 107.025000
v -10.621250 25.670000 109.725000
v -10.621250 28.505000 107.700000
v -10.621250 28.505000 107.025000
v -10.621250 28.505000 109.725000
v -10.621250 31.340000 107.700000
v -10.621250 31.340000 107.025000
v -10.621250 31.340000 109.725000
v -10.621250 34.175000 107.700000
v -10.621250 34.175000 107.025000
v -10.621250 34.175000 109.725000
v -10.621250 37.010000 107.700000
v -10.621250 37.010000 107.025000
v -10.621250 37.010000 109.725000
v -10.621250 39.845000 107.700000
v -10.621250 39.845000 107.025000
v -10.621250 39.845000 108.375000
v -10.621250 39.845000 109.050000
v -10.621250 39.845000 109.725000
v -10.250000 0.155000 107.700000
v -10.250000 0.155000 108.375000
v -10.250000 2.990000 107.700000
v -10.250000 0.155000 109.050000
v -10.250000 0.155000 109.725000
v -10.250000 2.990000 109.725000
v -10.250000 5.825000 107.700000
v -10.250000 5.825000 109.725000
v -10.250000 8.660000 107.700000
v -10.250000 8.660000 109.725000
v -10.250000 11.495000 107.700000
v -10.250000 11.495000 109.725000
v -10.250000 14.330000 107.700000
v -10.250000 14.330000 109.725000
v -10.250000 17.165000 107.700000
v -10.250000 17.165000 109.725000
v -10.250000 20.000000 107.700000
v -10.250000 20.000000 109.725000
v -10.250000 22.835000 107.700000
v -10.250000 22.835000 109.725000
v -10.250000 25.670000 107.700000
v -10.250000 25.670000 109.725000
v -10.250000 28.505000 107.700000
v -10.250000 28.505000 109.725000
v -10.250000 31.340000 107.700000
v -10.250000 31.340000 109.725000
v -10.250000 34.175000 107.700000
v -10.250000 34.175000 109.725000
v -10.250000 37.010000 107.700000
v -10.250000 37.010000 109.725000
v -10.250000 39.845000 108.375000
v -10.250000 39.845000 107.700000
v -10.250000 39.845000 109.050000
v -10.250000 39.845000 109.725000
v -9.878750 0.155000 107.700000
v -9.878750 0.155000 108.375000
v -9.878750 2.990000 107.700000
v -9.878750 0.155000 109.050000
v -9.878750 0.155000 109.725000
v -9.878750 2.990000 109.725000
v -9.878750 5.825000 107.700000
v -9.878750 5.825000 109.725000
v -9.878750 8.660000 107.700000
v -9.878750 8.660000 109.725000
v -9.878750 11.495000 107.700000
v -9.878750 11.495000 109.725000
v -9.878750 14.330000 107.700000
v -9.878750 14.330000 109.725000
v -9.878750 17.165000 107.700000
v -9.878750 17.165000 109.725000
v -9.878750 20.000000 107.700000
v -9.878750 20.000000 109.725000
v -9.878750 22.835000 107.700000
v -9.878750 22.835000 109.725000
v -9.878750 25.670000 107.700000
v -9.878750 25.670000 109.725000
v -9.878750 28.505000 107.700000
v -9.878750 28.505000 109.725000
v -9.878750 31.340000 107.700000
v -9.878750 31.340000 109.725000
v -9.878750 34.175000 107.700000
v -9.878750 34.175000 109.725000
v -9.878750 37.010000 107.700000
v -9.878750 37.010000 109.725000
v -9.878750 39.845000 108.375000
v -9.878750 39.845000 107.700000
v -9.878750 39.845000 109.050000
v -9.878750 39.845000 109.725000
v -9.507500 0.155000 107.700000
v -9.507500 0.155000 108.375000
v -9.507500 2.990000 107.700000
v -9.507500 0.155000 109.050000
v -9.507500 0.155000 109.725000
v -9.507500 2.990000 109.725000
v -9.507500 5.825000 107.700000
v -9.507500 5.825000 109.725000
v -9.507500 8.660000 107.700000
v -9.507500 8.660000 109.725000
v -9.507500 11.495000 107.700000
v -9.507500 11.495000 109.725000
v -9.507500 14.330000 107.700000
v -9.507500 14.330000 109.725000
v -9.507500 17.165000 107.700000
v -9.507500 17.165000 109.725000
v -9.507500 20.000000 107.700000
v -9.507500 20.000000 109.725000
v -9.507500 22.835000 107.700000
v -9.507500 22.835000 109.725000
v -9.507500 25.670000 107.700000
v -9.507500 25.670000 109.725000
v -9.507500 28.505000 107.700000
v -9.507500 28.505000 109.725000
v -9.507500 31.340000 107.700000
v -9.507500 31.340000 109.725000
v -9.507500 34.175000 107.700000
v -9.507500 34.175000 109.725000
v -9.507500 37.010000 107.700000
v -9.507500 37.010000 109.725000
v -9.507500 39.845000 108.375000
v -9.507500 39.845000 107.700000
v -9.507500 39.845000 109.050000
v -9.507500 39.845000 109.725000
v -9.507500 0.155000 107.025000
v -9.507500 2.990000 107.025000
v -9.136250 0.155000 107.025000
v -9.136250 0.155000 107.700000
v -9.136250 2.990000 107.025000
v -9.136250 0.155000 108.375000
v -9.136250 0.155000 109.050000
v -9.136250 0.155000 109.725000
v -9.136250 2.990000 109.725000
v -9.507500 5.825000 107.025000
v -9.136250 5.825000 107.025000
v -9.136250 5.825000 109.725000
v -9.507500 8.660000 107.025000
v -9.136250 8.660000 107.025000
v -9.136250 8.660000 109.725000
v -9.507500 11.495000 107.025000
v -9.136250 11.495000 107.025000
v -9.136250 11.495000 109.725000
v -9.507500 14.330000 107.025000
v -9.136250 14.330000 107.025000
v -9.136250 14.330000 109.725000
v -9.507500 17.165000 107.025000
v -9.136250 17.165000 107.025000
v -9.136250 17.165000 109.725000
v -9.507500 20.000000 107.025000
v -9.136250 20.000000 107.025000
v -9.136250 20.000000 109.725000
v -9.507500 22.835000 107.025000
v -9.136250 22.835000 107.025000
v -9.136250 22.835000 109.725000
v -9.507500 25.670000 107.025000
v -9.136250 25.670000 107.025000
v -9.136250 25.670000 109.725000
v -9.507500 28.505000 107.025000
v -9.136250 28.505000 107.025000
v -9.136250 28.505000 109.725000
v -9.507500 31.340000 107.025000
v -9.136250 31.340000 107.025000
v -9.136250 31.340000 109.725000
v -9.507500 34.175000 107.025000
v -9.136250 34.175000 107.025000
v -9.136250 34.175000 109.725000
v -9.507500 37.010000 107.025000
v -9.136250 37.010000 107.025000
v -9.136250 37.010000 109.725000
v -9.507500 39.845000 107.025000
v -9.136250 39.845000 107.700000
v -9.136250 39.845000 107.025000
v -9.136250 39.845000 108.375000
v -9.136250 39.845000 109.050000
v -9.136250 39.845000 109.725000
v -9.136250 0.155000 105.675000
v -9.136250 2.990000 105.675000
v -9.136250 2.990000 106.350000
v -9.136250 0.155000 106.350000
v -8.765000 0.155000 105.675000
v -8.765000 0.155000 106.350000
v -8.765000 2.990000 105.675000
v -8.765000 0.155000 107.025000
v -8.765000 0.155000 107.700000
v -8.765000 0.155000 108.375000
v -8.765000 0.155000 109.050000
v -8.765000 0.155000 109.725000
v -8.765000 2.990000 109.725000
v -9.136250 5.825000 105.675000
v -9.136250 5.825000 106.350000
v -8.765000 5.825000 105.675000
v -8.765000 5.825000 109.725000
v -9.136250 8.660000 105.675000
v -9.136250 8.660000 106.350000
v -8.765000 8.660000 105.675000
v -8.765000 8.660000 109.725000
v -9.136250 11.495000 105.675000
v -9.136250 11.495000 106.350000
v -8.765000 11.495000 105.675000
v -8.765000 11.495000 109.725000
v -9.136250 14.330000 105.675000
v -9.136250 14.330000 106.350000
v -8.765000 14.330000 105.675000
v -8.765000 14.330000 109.725000
v -9.136250 17.165000 105.675000
v -9.136250 17.165000 106.350000
v -8.765000 17.165000 105.675000
v -8.765000 17.165000 109.725000
v -9.136250 20.000000 105.675000
v -9.136250 20.000000 106.350000
v -8.765000 20.000000 105.675000
v -8.765000 20.000000 109.725000
v -9.136250 22.835000 105.675000
v -9.136250 22.835000 106.350000
v -8.765000 22.835000 105.675000
v -8.765000 22.835000 109.725000
v -9.136250 25.670000 105.675000
v -9.136250 25.670000 106.350000
v -8.765000 25.670000 105.675000
v -8.765000 25.670000 109.725000
v -9.136250 28.505000 105.675000
v -9.136250 28.505000 106.350000
v -8.765000 28.505000 105.675000
v -8.765000 28.505000 109.725000
v -9.136250 31.340000 105.675000
v -9.136250 31.340000 106.350000
v -8.765000 31.340000 105.675000
v -8.765000 31.340000 109.725000
v -9.136250 34.175000 105.675000
v -9.136250 34.175000 106.350000
v -8.765000 34.175000 105.675000
v -8.765000 34.175000 109.725000
v -9.136250 37.010000 105.675000
v -9.136250 37.010000 106.350000
v -8.765000 37.010000 105.675000
v -8.765000 37.010000 109.725000
v -9.136250 39.845000 105.675000
v -9.136250 39.845000 106.350000
v -8.765000 39.845000 106.350000
v -8.765000 39.845000 105.675000
v -8.765000 39.845000 107.025000
v -8.765000 39.845000 107.700000
v -8.765000 39.845000 108.375000
v -8.765000 39.845000 109.050000
v -8.765000 39.845000 109.725000
v -8.765000 0.155000 103.650000
v -8.765000 2.990000 103.650000
v -8.765000 2.990000 104.325000
v -8.765000 0.155000 104.325000
v -8.393750 0.155000 103.650000
v -8.393750 0.155000 104.325000
v -8.393750 2.990000 103.650000
v -8.765000 2.990000 105.000000
v -8.765000 0.155000 105.000000
v -8.393750 0.155000 105.000000
v -8.393750 0.155000 105.675000
v -8.393750 0.155000 106.350000
v -8.393750 0.155000 107.025000
v -8.393750 0.155000 107.700000
v -8.393750 0.155000 108.375000
v -8.393750 0.155000 109.050000
v -8.393750 0.155000 109.725000
v -8.393750 2.990000 109.725000
v -8.765000 5.825000 103.650000
v -8.765000 5.825000 104.325000
v -8.393750 5.825000 103.650000
v -8.765000 5.825000 105.000000
v -8.393750 5.825000 109.725000
v -8.765000 8.660000 103.650000
v -8.765000 8.660000 104.325000
v -8.393750 8.660000 103.650000
v -8.765000 8.660000 105.000000
v -8.393750 8.660000 109.725000
v -8.765000 11.495000 103.650000
v -8.765000 11.495000 104.325000
v -8.393750 11.495000 103.650000
v -8.765000 11.495000 105.000000
v -8.393750 11.495000 109.725000
v -8.765000 14.330000 103.650000
v -8.765000 14.330000 104.325000
v -8.393750 14.330000 103.650000
v -8.765000 14.330000 105.000000
v -8.393750 14.330000 109.725000
v -8.765000 17.165000 103.650000
v -8.765000 17.165000 104.325000
v -8.393750 17.165000 103.650000
v -8.765000 17.165000 105.000000
v -8.393750 17.165000 109.725000
v -8.765000 20.000000 103.650000
v -8.765000 20.000000 104.325000
v -8.393750 20.000000 103.650000
v -8.765000 20.000000 105.000000
v -8.393750 20.000000 109.725000
v -8.765000 22.835000 103.650000
v -8.765000 22.835000 104.325000
v -8.393750 22.835000 103.650000
v -8.765000 22.835000 105.000000
v -8.393750 22.835000 109.725000
v -8.765000 25.670000 103.650000
v -8.765000 25.670000 104.325000
v -8.393750 25.670000 103.650000
v -8.765000 25.670000 105.000000
v -8.393750 25.670000 109.725000
v -8.765000 28.505000 103.650000
v -8.765000 28.505000 104.325000
v -8.393750 28.505000 103.650000
v -8.765000 28.505000 105.000000
v -8.393750 28.505000 109.725000
v -8.765000 31.340000 103.650000
v -8.765000 31.340000 104.325000
v -8.393750 31.340000 103.650000
v -8.765000 31.340000 105.000000
v -8.393750 31.340000 109.725000
v -8.765000 34.175000 103.650000
v -8.765000 34.175000 104.325000
v -8.393750 34.175000 103.650000
v -8.765000 34.175000 105.000000
v -8.393750 34.175000 109.725000
v -8.765000 37.010000 103.650000
v -8.765000 37.010000 104.325000
v -8.393750 37.010000 103.650000
v -8.765000 37.010000 105.000000
v -8.393750 37.010000 109.725000
v -8.765000 39.845000 103.650000
v -8.765000 39.845000 104.325000
v -8.393750 39.845000 104.325000
v -8.393750 39.845000 103.650000
v -8.765000 39.845000 105.000000
v -8.393750 39.845000 105.000000
v -8.393750 39.845000 105.675000
v -8.393750 39.845000 106.350000
v -8.393750 39.845000 107.025000
v -8.393750 39.845000 107.700000
v -8.393750 39.845000 108.375000
v -8.393750 39.845000 109.050000
v -8.393750 39.845000 109.725000
v -8.393750 0.155000 101.625000
v -8.393750 2.990000 101.625000
v -8.393750 2.990000 102.300000
v -8.393750 0.155000 102.300000
v -8.022500 0.155000 101.625000
v -8.022500 0.155000 102.300000
v -8.022500 2.990000 101.625000
v -8.393750 2.990000 102.975000
v -8.393750 0.155000 102.975000
v -8.022500 0.155000 102.975000
v -8.022500 0.155000 103.650000
v -8.022500 0.155000 104.325000
v -8.022500 0.155000 105.000000
v -8.022500 0.155000 105.675000
v -8.022500 0.155000 106.350000
v -8.022500 0.155000 107.025000
v -8.022500 0.155000 107.700000
v -8.022500 0.155000 108.375000
v -8.022500 0.155000 109.050000
v -8.022500 0.155000 109.725000
v -8.022500 2.990000 109.725000
v -8.393750 5.825000 101.625000
v -8.393750 5.825000 102.300000
v -8.022500 5.825000 101.625000
v -8.393750 5.825000 102.975000
v -8.022500 5.825000 109.725000
v -8.393750 8.660000 101.625000
v -8.393750 8.660000 102.300000
v -8.022500 8.660000 101.625000
v -8.393750 8.660000 102.975000
v -8.022500 8.660000 109.725000
v -8.393750 11.495000 101.625000
v -8.393750 11.495000 102.300000
v -8.022500 11.495000 101.625000
v -8.393750 11.495000 102.975000
v -8.022500 11.495000 109.725000
v -8.393750 14.330000 101.625000
v -8.393750 14.330000 102.300000
v -8.022500 14.330000 101.625000
v -8.393750 14.330000 102.975000
v -8.022500 14.330000 109.725000
v -8.393750 17.165000 101.625000
v -8.393750 17.165000 102.300000
v -8.022500 17.165000 101.625000
v -8.393750 17.165000 102.975000
v -8.022500 17.165000 109.725000
v -8.393750 20.000000 101.625000
v -8.393750 20.000000 102.300000
v -8.022500 20.000000 101.625000
v -8.393750 20.000000 102.975000
v -8.022500 20.000000 109.725000
v -8.393750 22.835000 101.625000
v -8.393750 22.835000 102.300000
v -8.022500 22.835000 101.625000
v -8.393750 22.835000 102.975000
v -8.022500 22.835000 109.725000
v -8.393750 25.670000 101.625000
v -8.393750 25.670000 102.300000
v -8.022500 25.670000 101.625000
v -8.393750 25.670000 102.975000
v -8.022500 25.670000 109.725000
v -8.393750 28.505000 101.625000
v -8.393750 28.505000 102.300000
v -8.022500 28.505000 101.625000
v -8.393750 28.505000 102.975000
v -8.022500 28.505000 109.725000
v -8.393750 31.340000 101.625000
v -8.393750 31.340000 102.300000
v -8.022500 31.340000 101.625000
v -8.393750 31.340000 102.975000
v -8.022500 31.340000 109.725000
v -8.393750 34.175000 101.625000
v -8.393750 34.175000 102.300000
v -8.022500 34.175000 101.625000
v -8.393750 34.175000 102.975000
v -8.022500 34.175000 109.725000
v -8.393750 37.010000 101.625000
v -8.393750 37.010000 102.300000
v -8.022500 37.010000 101.625000
v -8.393750 37.010000 102.975000
v -8.022500 37.010000 109.725000
v -8.393750 39.845000 101.625000
v -8.393750 39.845000 102.300000
v -8.022500 39.845000 102.300000
v -8.022500 39.845000 101.625000
v -8.393750 39.845000 102.975000
v -8.022500 39.845000 102.975000
v -8.022500 39.845000 103.650000
v -8.022500 39.845000 104.325000
v -8.022500 39.845000 105.000000
v -8.022500 39.845000 105.675000
v -8.022500 39.845000 106.350000
v -8.022500 39.845000 107.025000
v -8.022500 39.845000 107.700000
v -8.022500 39.845000 108.375000
v -8.022500 39.845000 109.050000
v -8.022500 39.845000 109.725000
v -8.022500 0.155000 100.275000
v -8.022500 2.990000 100.275000
v -8.022500 2.990000 100.950000
v -8.022500 0.155000 100.950000
v -7.651250 0.155000 100.275000
v -7.651250 0.155000 100.950000
v -7.651250 2.990000 100.950000
v -7.651250 2.990000 100.275000
v -7.651250 0.155000 101.625000
v -7.651250 2.990000 101.625000
v -7.651250 0.155000 102.300000
v -7.651250 2.990000 102.300000
v -7.651250 0.155000 102.975000
v -7.651250 2.990000 102.975000
v -7.651250 0.155000 103.650000
v -7.651250 2.990000 103.650000
v -7.651250 0.155000 104.325000
v -7.651250 2.990000 104.325000
v -7.651250 0.155000 105.000000
v -7.651250 2.990000 105.000000
v -7.651250 0.155000 105.675000
v -7.651250 2.990000 105.675000
v -7.651250 0.155000 106.350000
v -7.651250 2.990000 106.350000
v -7.651250 0.155000 107.025000
v -7.651250 2.990000 107.025000
v -7.651250 0.155000 107.700000
v -7.651250 2.990000 107.700000
v -7.651250 0.155000 108.375000
v -7.651250 2.990000 108.375000
v -7.651250 0.155000 109.050000
v -7.651250 2.990000 109.050000
v -7.651250 0.155000 109.725000
v -7.651250 2.990000 109.725000
v -8.022500 5.825000 100.275000
v -8.022500 5.825000 100.950000
v -7.651250 5.825000 100.950000
v -7.651250 5.825000 100.275000
v -7.651250 5.825000 101.625000
v -7.651250 5.825000 102.300000
v -7.651250 5.825000 102.975000
v -7.651250 5.825000 103.650000
v -7.651250 5.825000 104.325000
v -7.651250 5.825000 105.000000
v -7.651250 5.825000 105.675000
v -7.651250 5.825000 106.350000
v -7.651250 5.825000 107.025000
v -7.651250 5.825000 107.700000
v -7.651250 5.825000 108.375000
v -7.651250 5.825000 109.050000
v -7.651250 5.825000 109.725000
v -8.022500 8.660000 100.275000
v -8.022500 8.660000 100.950000
v -7.651250 8.660000 100.950000
v -7.651250 8.660000 100.275000
v -7.651250 8.660000 101.625000
v -7.651250 8.660000 102.300000
v -7.651250 8.660000 102.975000
v -7.651250 8.660000 103.650000
v -7.651250 8.660000 104.325000
v -7.651250 8.660000 105.000000
v -7.651250 8.660000 105.675000
v -7.651250 8.660000 106.350000
v -7.651250 8.660000 107.025000
v -7.651250 8.660000 107.700000
v -7.651250 8.660000 108.375000
v -7.651250 8.660000 109.050000
v -7.651250 8.660000 109.725000
v -8.022500 11.495000 100.275000
v -8.022500 11.495000 100.950000
v -7.651250 11.495000 100.950000
v -7.651250 11.495000 100.275000
v -7.651250 11.495000 101.625000
v -7.651250 11.495000 102.300000
v -7.651250 11.495000 102.975000
v -7.651250 11.495000 103.650000
v -7.651250 11.495000 104.325000
v -7.651250 11.495000 105.000000
v -7.651250 11.495000 105.675000
v -7.651250 11.495000 106.350000
v -7.651250 11.495000 107.025000
v -7.651250 11.495000 107.700000
v -7.651250 11.495000 108.375000
v -7.651250 11.495000 109.050000
v -7.651250 11.495000 109.725000
v -8.022500 14.330000 100.275000
v -8.022500 14.330000 100.950000
v -7.651250 14.330000 100.950000
v -7.651250 14.330000 100.275000
v -7.651250 14.330000 101.625000
v -7.651250 14.330000 102.300000
v -7.651250 14.330000 102.975000
v -7.651250 14.330000 103.650000
v -7.651250 14.330000 104.325000
v -7.651250 14.330000 105.000000
v -7.651250 14.330000 105.675000
v -7.651250 14.330000 106.350000
v -7.651250 14.330000 107.025000
v -7.651250 14.330000 107.700000
v -7.651250 14.330000 108.375000
v -7.651250 14.330000 109.050000
v -7.651250 14.330000 109.725000
v -8.022500 17.165000 100.275000
v -8.022500 17.165000 100.950000
v -7.651250 17.165000 100.950000
v -7.651250 17.165000 100.275000
v -7.651250 17.165000 101.625000
v -7.651250 17.165000 102.300000
v -7.651250 17.165000 102.975000
v -7.651250 17.165000 103.650000
v -7.651250 17.165000 104.325000
v -7.651250 17.165000 105.000000
v -7.651250 17.165000 105.675000
v -7.651250 17.165000 106.350000
v -7.651250 17.165000 107.025000
v -7.651250 17.165000 107.700000
v -7.651250 17.165000 108.375000
v -7.651250 17.165000 109.050000
v -7.651250 17.165000 109.725000
v -8.022500 20.000000 100.275000
v -8.022500 20.000000 100.950000
v -7.651250 20.000000 100.950000
v -7.651250 20.000000 100.275000
v -7.651250 20.000000 101.625000
v -7.651250 20.000000 102.300000
v -7.651250 20.000000 102.975000
v -7.651250 20.000000 103.650000
v -7.651250 20.000000 104.325000
v -7.651250 20.000000 105.000000
v -7.651250 20.000000 105.675000
v -7.651250 20.000000 106.350000
v -7.651250 20.000000 107.025000
v -7.651250 20.000000 107.700000
v -7.651250 20.000000 108.375000
v -7.651250 20.000000 109.050000
v -7.651250 20.000000 109.725000
v -8.022500 22.835000 100.275000
v -8.022500 22.835000 100.950000
v -7.651250 22.835000 100.950000
v -7.651250 22.835000 100.275000
v -7.651250 22.835000 101.625000
v -7.651250 22.835000 102.300000
v -7.651250 22.835000 102.975000
v -7.651250 22.835000 103.650000
v -7.651250 22.835000 104.325000
v -7.651250 22.835000 105.000000
v -7.651250 22.835000 105.675000
v -7.651250 22.835000 106.350000
v -7.651250 22.835000 107.025000
v -7.651250 22.835000 107.700000
v -7.651250 22.835000 108.375000
v -7.651250 22.835000 109.050000
v -7.651250 22.835000 109.725000
v -8.022500 25.670000 100.275000
v -8.022500 25.670000 100.950000
v -7.651250 25.670000 100.950000
v -7.651250 25.670000 100.275000
v -7.651250 25.670000 101.625000
v -7.651250 25.670000 102.300000
v -7.651250 25.670000 102.975000
v -7.651250 25.670000 103.650000
v -7.651250 25.670000 104.325000
v -7.651250 25.670000 105.000000
v -7.651250 25.670000 105.675000
v -7.651250 25.670000 106.350000
v -7.651250 25.670000 107.025000
v -7.651250 25.670000 107.700000
v -7.651250 25.670000 108.375000
v -7.651250 25.670000 109.050000
v -7.651250 25.670000 109.725000
v -8.022500 28.505000 100.275000
v -8.022500 28.505000 100.950000
v -7.651250 28.505000 100.950000
v -7.651250 28.505000 100.275000
v -7.651250 28.505000 101.625000
v -7.651250 28.505000 102.300000
v -7.651250 28.505000 102.975000
v -7.651250 28.505000 103.650000
v -7.651250 28.505000 104.325000
v -7.651250 28.505000 105.000000
v -7.651250 28.505000 105.675000
v -7.651250 28.505000 106.350000
v -7.651250 28.505000 107.025000
v -7.651250 28.505000 107.700000
v -7.651250 28.505000 108.375000
v -7.651250 28.505000 109.050000
v -7.651250 28.505000 109.725000
v -8.022500 31.340000 100.275000
v -8.022500 31.340000 100.950000
v -7.651250 31.340000 100.950000
v -7.651250 31.340000 100.275000
v -7.651250 31.340000 101.625000
v -7.651250 31.340000 102.300000
v -7.651250 31.340000 102.975000
v -7.651250 31.340000 103.650000
v -7.651250 31.340000 104.325000
v -7.651250 31.340000 105.000000
v -7.651250 31.340000 105.675000
v -7.651250 31.340000 106.350000
v -7.651250 31.340000 107.025000
v -7.651250 31.340000 107.700000
v -7.651250 31.340000 108.375000
v -7.651250 31.340000 109.050000
v -7.651250 31.340000 109.725000
v -8.022500 34.175000 100.275000
v -8.022500 34.175000 100.950000
v -7.651250 34.175000 100.950000
v -7.651250 34.175000 100.275000
v -7.651250 34.175000 101.625000
v -7.651250 34.175000 102.300000
v -7.651250 34.175000 102.975000
v -7.651250 34.175000 103.650000
v -7.651250 34.175000 104.325000
v -7.651250 34.175000 105.000000
v -7.651250 34.175000 105.675000
v -7.651250 34.175000 106.350000
v -7.651250 34.175000 107.025000
v -7.651250 34.175000 107.700000
v -7.651250 34.175000 108.375000
v -7.651250 34.175000 109.050000
v -7.651250 34.175000 109.725000
v -8.022500 37.010000 100.275000
v -8.022500 37.010000 100.950000
v -7.651250 37.010000 100.950000
v -7.651250 37.010000 100.275000
v -7.651250 37.010000 101.625000
v -7.651250 37.010000 102.300000
v -7.651250 37.010000 102.975000
v -7.651250 37.010000 103.650000
v -7.651250 37.010000 104.325000
v -7.651250 37.010000 105.000000
v -7.651250 37.010000 105.675000
v -7.651250 37.010000 106.350000
v -7.651250 37.010000 107.025000
v -7.651250 37.010000 107.700000
v -7.651250 37.010000 108.375000
v -7.651250 37.010000 109.050000
v -7.651250 37.010000 109.725000
v -8.022500 39.845000 100.275000
v -8.022500 39.845000 100.950000
v -7.651250 39.845000 100.950000
v -7.651250 39.845000 100.275000
v -7.651250 39.845000 101.625000
v -7.651250 39.845000 102.300000
v -7.651250 39.845000 102.975000
v -7.651250 39.845000 103.650000
v -7.651250 39.845000 104.325000
v -7.651250 39.845000 105.000000
v -7.651250 39.845000 105.675000
v -7.651250 39.845000 106.350000
v -7.651250 39.845000 107.025000
v -7.651250 39.845000 107.700000
v -7.651250 39.845000 108.375000
v -7.651250 39.845000 109.050000
v -7.651250 39.845000 109.725000
f 1 2 3
f 1 3 4
f 1 5 6
f 1 6 4
f 1 2 7
f 1 7 5
f 4 3 8
f 4 8 9
f 4 6 10
f 4 10 9
f 9 8 11
f 9 11 12
f 9 10 13
f 9 13 12
f 12 11 14
f 12 14 15
f 12 13 16
f 12 16 15
f 15 14 17
f 15 17 18
f 15 16 19
f 15 19 18
f 18 17 20
f 18 20 21
f 18 19 22
f 18 22 21
f 21 20 23
f 21 23 24
f 21 22 25
f 21 25 24
f 24 23 26
f 24 26 27
f 24 25 28
f 24 28 27
f 27 26 29
f 27 29 30
f 27 28 31
f 27 31 30
f 30 29 32
f 30 32 33
f 30 31 34
f 30 34 33
f 33 32 35
f 33 35 36
f 33 34 37
f 33 37 36
f 36 35 38
f 36 38 39
f 36 37 40
f 36 40 39
f 39 38 41
f 39 41 42
f 39 40 43
f 39 43 42
f 42 41 44
f 42 44 45
f 42 43 46
f 42 46 45
f 45 46 47
f 45 47 44
f 2 48 49
f 2 49 3
f 2 48 50
f 2 50 7
f 3 49 51
f 3 51 8
f 8 51 52
f 8 52 11
f 11 52 53
f 11 53 14
f 14 53 54
f 14 54 17
f 17 54 55
f 17 55 20
f 20 55 56
f 20 56 23
f 23 56 57
f 23 57 26
f 26 57 58
f 26 58 29
f 29 58 59
f 29 59 32
f 32 59 60
f 32 60 35
f 35 60 61
f 35 61 38
f 38 61 62
f 38 62 41
f 41 62 63
f 41 63 44
f 44 47 64
f 44 64 63
f 48 65 66
f 48 66 49
f 48 65 67
f 48 67 50
f 49 66 68
f 49 68 51
f 51 68 69
f 51 69 52
f 52 69 70
f 52 70 53
f 53 70 71
f 53 71 54
f 54 71 72
f 54 72 55
f 55 72 73
f 55 73 56
f 56 73 74
f 56 74 57
f 57 74 75
f 57 75 58
f 58 75 76
f 58 76 59
f 59 76 77
f 59 77 60
f 60 77 78
f 60 78 61
f 61 78 79
f 61 79 62
f 62 79 80
f 62 80 63
f 63 64 81
f 63 81 80
f 65 82 83
f 65 83 66
f 65 82 84
f 65 84 67
f 66 83 85
f 66 85 68
f 68 85 86
f 68 86 69
f 69 86 87
f 69 87 70
f 70 87 88
f 70 88 71
f 71 88 89
f 71 89 72
f 72 89 90
f 72 90 73
f 73 90 91
f 73 91 74
f 74 91 92
f 74 92 75
f 75 92 93
f 75 93 76
f 76 93 94
f 76 94 77
f 77 94 95
f 77 95 78
f 78 95 96
f 78 96 79
f 79 96 97
f 79 97 80
f 80 81 98
f 80 98 97
f 82 99 100
f 82 100 83
f 82 99 101
f 82 101 84
f 83 100 102
f 83 102 85
f 85 102 103
f 85 103 86
f 86 103 104
f 86 104 87
f 87 104 105
f 87 105 88
f 88 105 106
f 88 106 89
f 89 106 107
f 89 107 90
f 90 107 108
f 90 108 91
f 91 108 109
f 91 109 92
f 92 109 110
f 92 110 93
f 93 110 111
f 93 111 94
f 94 111 112
f 94 112 95
f 95 112 113
f 95 113 96
f 96 113 114
f 96 114 97
f 97 98 115
f 97 115 114
f 99 116 117
f 99 117 100
f 99 116 118
f 99 118 101
f 100 117 119
f 100 119 102
f 102 119 120
f 102 120 103
f 103 120 121
f 103 121 104
f 104 121 122
f 104 122 105
f 105 122 123
f 105 123 106
f 106 123 124
f 106 124 107
f 107 124 125
f 107 125 108
f 108 125 126
f 108 126 109
f 109 126 127
f 109 127 110
f 110 127 128
f 110 128 111
f 111 128 129
f 111 129 112
f 112 129 130
f 112 130 113
f 113 130 131
f 113 131 114
f 114 115 132
f 114 132 131
f 116 133 134
f 116 134 117
f 116 133 135
f 116 135 118
f 117 134 136
f 117 136 119
f 119 136 137
f 119 137 120
f 120 137 138
f 120 138 121
f 121 138 139
f 121 139 122
f 122 139 140
f 122 140 123
f 123 140 141
f 123 141 124
f 124 141 142
f 124 142 125
f 125 142 143
f 125 143 126
f 126 143 144
f 126 144 127
f 127 144 145
f 127 145 128
f 128 145 146
f 128 146 129
f 129 146 147
f 129 147 130
f 130 147 148
f 130 148 131
f 131 132 149
f 131 149 148
f 133 150 151
f 133 151 134
f 133 150 152
f 133 152 135
f 134 151 153
f 134 153 136
f 136 153 154
f 136 154 137
f 137 154 155
f 137 155 138
f 138 155 156
f 138 156 139
f 139 156 157
f 139 157 140
f 140 157 158
f 140 158 141
f 141 158 159
f 141 159 142
f 142 159 160
f 142 160 143
f 143 160 161
f 143 161 144
f 144 161 162
f 144 162 145
f 145 162 163
f 145 163 146
f 146 163 164
f 146 164 147
f 147 164 165
f 147 165 148
f 148 149 166
f 148 166 165
f 150 167 168
f 150 168 151
f 150 167 169
f 150 169 152
f 151 168 170
f 151 170 153
f 153 170 171
f 153 171 154
f 154 171 172
f 154 172 155
f 155 172 173
f 155 173 156
f 156 173 174
f 156 174 157
f 157 174 175
f 157 175 158
f 158 175 176
f 158 176 159
f 159 176 177
f 159 177 160
f 160 177 178
f 160 178 161
f 161 178 179
f 161 179 162
f 162 179 180
f 162 180 163
f 163 180 181
f 163 181 164
f 164 181 182
f 164 182 165
f 165 166 183
f 165 183 182
f 167 184 185
f 167 185 168
f 167 184 186
f 167 186 169
f 168 185 187
f 168 187 170
f 170 187 188
f 170 188 171
f 171 188 189
f 171 189 172
f 172 189 190
f 172 190 173
f 173 190 191
f 173 191 174
f 174 191 192
f 174 192 175
f 175 192 193
f 175 193 176
f 176 193 194
f 176 194 177
f 177 194 195
f 177 195 178
f 178 195 196
f 178 196 179
f 179 196 197
f 179 197 180
f 180 197 198
f 180 198 181
f 181 198 199
f 181 199 182
f 182 183 200
f 182 200 199
f 184 201 202
f 184 202 185
f 184 201 203
f 184 203 186
f 185 202 204
f 185 204 187
f 187 204 205
f 187 205 188
f 188 205 206
f 188 206 189
f 189 206 207
f 189 207 190
f 190 207 208
f 190 208 191
f 191 208 209
f 191 209 192
f 192 209 210
f 192 210 193
f 193 210 211
f 193 211 194
f 194 211 212
f 194 212 195
f 195 212 213
f 195 213 196
f 196 213 214
f 196 214 197
f 197 214 215
f 197 215 198
f 198 215 216
f 198 216 199
f 199 200 217
f 199 217 216
f 201 218 219
f 201 219 202
f 201 218 220
f 201 220 203
f 202 219 221
f 202 221 204
f 204 221 222
f 204 222 205
f 205 222 223
f 205 223 206
f 206 223 224
f 206 224 207
f 207 224 225
f 207 225 208
f 208 225 226
f 208 226 209
f 209 226 227
f 209 227 210
f 210 227 228
f 210 228 211
f 211 228 229
f 211 229 212
f 212 229 230
f 212 230 213
f 213 230 231
f 213 231 214
f 214 231 232
f 214 232 215
f 215 232 233
f 215 233 216
f 216 217 234
f 216 234 233
f 218 235 236
f 218 236 219
f 218 235 237
f 218 237 220
f 219 236 238
f 219 238 221
f 221 238 239
f 221 239 222
f 222 239 240
f 222 240 223
f 223 240 241
f 223 241 224
f 224 241 242
f 224 242 225
f 225 242 243
f 225 243 226
f 226 243 244
f 226 244 227
f 227 244 245
f 227 245 228
f 228 245 246
f 228 246 229
f 229 246 247
f 229 247 230
f 230 247 248
f 230 248 231
f 231 248 249
f 231 249 232
f 232 249 250
f 232 250 233
f 233 234 251
f 233 251 250
f 235 252 253
f 235 253 236
f 252 253 254
f 252 254 255
f 235 252 255
f 235 255 237
f 236 253 256
f 236 256 238
f 253 256 257
f 253 257 254
f 238 256 258
f 238 258 239
f 256 258 259
f 256 259 257
f 239 258 260
f 239 260 240
f 258 260 261
f 258 261 259
f 240 260 262
f 240 262 241
f 260 262 263
f 260 263 261
f 241 262 264
f 241 264 242
f 262 264 265
f 262 265 263
f 242 264 266
f 242 266 243
f 264 266 267
f 264 267 265
f 243 266 268
f 243 268 244
f 266 268 269
f 266 269 267
f 244 268 270
f 244 270 245
f 268 270 271
f 268 271 269
f 245 270 272
f 245 272 246
f 270 272 273
f 270 273 271
f 246 272 274
f 246 274 247
f 272 274 275
f 272 275 273
f 247 274 276
f 247 276 248
f 274 276 277
f 274 277 275
f 248 276 278
f 248 278 249
f 276 278 279
f 276 279 277
f 249 278 280
f 249 280 250
f 278 280 281
f 278 281 279
f 250 251 281
f 250 281 280
f 282 283 284
f 282 284 285
f 5 282 283
f 5 283 6
f 5 7 285
f 5 285 282
f 6 283 286
f 6 286 10
f 10 286 287
f 10 287 13
f 13 287 288
f 13 288 16
f 16 288 289
f 16 289 19
f 19 289 290
f 19 290 22
f 22 290 291
f 22 291 25
f 25 291 292
f 25 292 28
f 28 292 293
f 28 293 31
f 31 293 294
f 31 294 34
f 34 294 295
f 34 295 37
f 37 295 296
f 37 296 40
f 40 296 297
f 40 297 43
f 43 297 298
f 43 298 46
f 46 298 299
f 46 299 47
f 285 284 300
f 285 300 301
f 7 50 301
f 7 301 285
f 47 299 302
f 47 302 64
f 301 300 303
f 301 303 304
f 50 67 304
f 50 304 301
f 64 302 305
f 64 305 81
f 304 303 306
f 304 306 307
f 67 84 307
f 67 307 304
f 81 305 308
f 81 308 98
f 307 306 309
f 307 309 310
f 84 101 310
f 84 310 307
f 98 308 311
f 98 311 115
f 310 309 312
f 310 312 313
f 101 118 313
f 101 313 310
f 115 311 314
f 115 314 132
f 313 312 315
f 313 315 316
f 118 135 316
f 118 316 313
f 132 314 317
f 132 317 149
f 316 315 318
f 316 318 319
f 135 152 319
f 135 319 316
f 149 317 320
f 149 320 166
f 319 318 321
f 319 321 322
f 152 169 322
f 152 322 319
f 166 320 323
f 166 323 183
f 322 321 324
f 322 324 325
f 169 186 325
f 169 325 322
f 183 323 326
f 183 326 200
f 325 324 327
f 325 327 328
f 186 203 328
f 186 328 325
f 200 326 329
f 200 329 217
f 328 327 330
f 328 330 331
f 203 220 331
f 203 331 328
f 217 329 332
f 217 332 234
f 331 330 333
f 331 333 334
f 220 237 334
f 220 334 331
f 234 332 335
f 234 335 251
f 334 333 336
f 334 336 337
f 255 254 336
f 255 336 337
f 237 255 337
f 237 337 334
f 254 257 338
f 254 338 336
f 257 259 339
f 257 339 338
f 259 261 340
f 259 340 339
f 261 263 341
f 261 341 340
f 263 265 342
f 263 342 341
f 265 267 343
f 265 343 342
f 267 269 344
f 267 344 343
f 269 271 345
f 269 345 344
f 271 273 346
f 271 346 345
f 273 275 347
f 273 347 346
f 275 277 348
f 275 348 347
f 277 279 349
f 277 349 348
f 279 281 350
f 279 350 349
f 251 335 350
f 251 350 281
f 351 352 353
f 351 353 354
f 283 351 352
f 283 352 286
f 283 284 354
f 283 354 351
f 352 355 356
f 352 356 353
f 286 352 355
f 286 355 287
f 355 357 358
f 355 358 356
f 287 355 357
f 287 357 288
f 288 357 359
f 288 359 289
f 289 359 360
f 289 360 290
f 290 360 361
f 290 361 291
f 291 361 362
f 291 362 292
f 292 362 363
f 292 363 293
f 293 363 364
f 293 364 294
f 294 364 365
f 294 365 295
f 295 365 366
f 295 366 296
f 296 366 367
f 296 367 297
f 297 367 368
f 297 368 298
f 298 368 369
f 298 369 299
f 354 353 370
f 354 370 371
f 284 300 371
f 284 371 354
f 353 356 372
f 353 372 370
f 356 358 373
f 356 373 372
f 299 369 374
f 299 374 302
f 371 370 375
f 371 375 376
f 300 303 376
f 300 376 371
f 370 372 377
f 370 377 375
f 372 373 378
f 372 378 377
f 302 374 379
f 302 379 305
f 376 375 380
f 376 380 381
f 303 306 381
f 303 381 376
f 375 377 382
f 375 382 380
f 377 378 383
f 377 383 382
f 305 379 384
f 305 384 308
f 381 380 385
f 381 385 386
f 306 309 386
f 306 386 381
f 380 382 387
f 380 387 385
f 382 383 388
f 382 388 387
f 308 384 389
f 308 389 311
f 386 385 390
f 386 390 391
f 309 312 391
f 309 391 386
f 385 387 392
f 385 392 390
f 387 388 393
f 387 393 392
f 311 389 394
f 311 394 314
f 391 390 395
f 391 395 396
f 312 315 396
f 312 396 391
f 390 392 397
f 390 397 395
f 392 393 398
f 392 398 397
f 314 394 399
f 314 399 317
f 396 395 400
f 396 400 401
f 315 318 401
f 315 401 396
f 395 397 402
f 395 402 400
f 397 398 403
f 397 403 402
f 317 399 404
f 317 404 320
f 401 400 405
f 401 405 406
f 318 321 406
f 318 406 401
f 400 402 407
f 400 407 405
f 402 403 408
f 402 408 407
f 320 404 409
f 320 409 323
f 406 405 410
f 406 410 411
f 321 324 411
f 321 411 406
f 405 407 412
f 405 412 410
f 407 408 413
f 407 413 412
f 323 409 414
f 323 414 326
f 411 410 415
f 411 415 416
f 324 327 416
f 324 416 411
f 410 412 417
f 410 417 415
f 412 413 418
f 412 418 417
f 326 414 419
f 326 419 329
f 416 415 420
f 416 420 421
f 327 330 421
f 327 421 416
f 415 417 422
f 415 422 420
f 417 418 423
f 417 423 422
f 329 419 424
f 329 424 332
f 421 420 425
f 421 425 426
f 330 333 426
f 330 426 421
f 420 422 427
f 420 427 425
f 422 423 428
f 422 428 427
f 332 424 429
f 332 429 335
f 426 425 430
f 426 430 431
f 336 338 430
f 336 430 431
f 333 336 431
f 333 431 426
f 425 427 432
f 425 432 430
f 338 339 432
f 338 432 430
f 427 428 433
f 427 433 432
f 339 340 433
f 339 433 432
f 340 341 434
f 340 434 433
f 341 342 435
f 341 435 434
f 342 343 436
f 342 436 435
f 343 344 437
f 343 437 436
f 344 345 438
f 344 438 437
f 345 346 439
f 345 439 438
f 346 347 440
f 346 440 439
f 347 348 441
f 347 441 440
f 348 349 442
f 348 442 441
f 349 350 443
f 349 443 442
f 335 429 443
f 335 443 350
f 444 445 446
f 444 446 447
f 357 444 445
f 357 445 359
f 357 358 447
f 357 447 444
f 445 448 449
f 445 449 446
f 359 445 448
f 359 448 360
f 448 450 451
f 448 451 449
f 360 448 450
f 360 450 361
f 361 450 452
f 361 452 362
f 362 452 453
f 362 453 363
f 363 453 454
f 363 454 364
f 364 454 455
f 364 455 365
f 365 455 456
f 365 456 366
f 366 456 457
f 366 457 367
f 367 457 458
f 367 458 368
f 368 458 459
f 368 459 369
f 447 446 460
f 447 460 461
f 358 373 461
f 358 461 447
f 446 449 462
f 446 462 460
f 449 451 463
f 449 463 462
f 369 459 464
f 369 464 374
f 461 460 465
f 461 465 466
f 373 378 466
f 373 466 461
f 460 462 467
f 460 467 465
f 462 463 468
f 462 468 467
f 374 464 469
f 374 469 379
f 466 465 470
f 466 470 471
f 378 383 471
f 378 471 466
f 465 467 472
f 465 472 470
f 467 468 473
f 467 473 472
f 379 469 474
f 379 474 384
f 471 470 475
f 471 475 476
f 383 388 476
f 383 476 471
f 470 472 477
f 470 477 475
f 472 473 478
f 472 478 477
f 384 474 479
f 384 479 389
f 476 475 480
f 476 480 481
f 388 393 481
f 388 481 476
f 475 477 482
f 475 482 480
f 477 478 483
f 477 483 482
f 389 479 484
f 389 484 394
f 481 480 485
f 481 485 486
f 393 398 486
f 393 486 481
f 480 482 487
f 480 487 485
f 482 483 488
f 482 488 487
f 394 484 489
f 394 489 399
f 486 485 490
f 486 490 491
f 398 403 491
f 398 491 486
f 485 487 492
f 485 492 490
f 487 488 493
f 487 493 492
f 399 489 494
f 399 494 404
f 491 490 495
f 491 495 496
f 403 408 496
f 403 496 491
f 490 492 497
f 490 497 495
f 492 493 498
f 492 498 497
f 404 494 499
f 404 499 409
f 496 495 500
f 496 500 501
f 408 413 501
f 408 501 496
f 495 497 502
f 495 502 500
f 497 498 503
f 497 503 502
f 409 499 504
f 409 504 414
f 501 500 505
f 501 505 506
f 413 418 506
f 413 506 501
f 500 502 507
f 500 507 505
f 502 503 508
f 502 508 507
f 414 504 509
f 414 509 419
f 506 505 510
f 506 510 511
f 418 423 511
f 418 511 506
f 505 507 512
f 505 512 510
f 507 508 513
f 507 513 512
f 419 509 514
f 419 514 424
f 511 510 515
f 511 515 516
f 423 428 516
f 423 516 511
f 510 512 517
f 510 517 515
f 512 513 518
f 512 518 517
f 424 514 519
f 424 519 429
f 516 515 520
f 516 520 521
f 433 434 520
f 433 520 521
f 428 433 521
f 428 521 516
f 515 517 522
f 515 522 520
f 434 435 522
f 434 522 520
f 517 518 523
f 517 523 522
f 435 436 523
f 435 523 522
f 436 437 524
f 436 524 523
f 437 438 525
f 437 525 524
f 438 439 526
f 438 526 525
f 439 440 527
f 439 527 526
f 440 441 528
f 440 528 527
f 441 442 529
f 441 529 528
f 442 443 530
f 442 530 529
f 429 519 530
f 429 530 443
f 531 532 533
f 531 533 534
f 450 531 532
f 450 532 452
f 450 451 534
f 450 534 531
f 532 535 536
f 532 536 533
f 452 532 535
f 452 535 453
f 535 537 538
f 535 538 536
f 453 535 537
f 453 537 454
f 454 537 539
f 454 539 455
f 455 539 540
f 455 540 456
f 456 540 541
f 456 541 457
f 457 541 542
f 457 542 458
f 458 542 543
f 458 543 459
f 534 533 544
f 534 544 545
f 451 463 545
f 451 545 534
f 533 536 546
f 533 546 544
f 536 538 547
f 536 547 546
f 459 543 548
f 459 548 464
f 545 544 549
f 545 549 550
f 463 468 550
f 463 550 545
f 544 546 551
f 544 551 549
f 546 547 552
f 546 552 551
f 464 548 553
f 464 553 469
f 550 549 554
f 550 554 555
f 468 473 555
f 468 555 550
f 549 551 556
f 549 556 554
f 551 552 557
f 551 557 556
f 469 553 558
f 469 558 474
f 555 554 559
f 555 559 560
f 473 478 560
f 473 560 555
f 554 556 561
f 554 561 559
f 556 557 562
f 556 562 561
f 474 558 563
f 474 563 479
f 560 559 564
f 560 564 565
f 478 483 565
f 478 565 560
f 559 561 566
f 559 566 564
f 561 562 567
f 561 567 566
f 479 563 568
f 479 568 484
f 565 564 569
f 565 569 570
f 483 488 570
f 483 570 565
f 564 566 571
f 564 571 569
f 566 567 572
f 566 572 571
f 484 568 573
f 484 573 489
f 570 569 574
f 570 574 575
f 488 493 575
f 488 575 570
f 569 571 576
f 569 576 574
f 571 572 577
f 571 577 576
f 489 573 578
f 489 578 494
f 575 574 579
f 575 579 580
f 493 498 580
f 493 580 575
f 574 576 581
f 574 581 579
f 576 577 582
f 576 582 581
f 494 578 583
f 494 583 499
f 580 579 584
f 580 584 585
f 498 503 585
f 498 585 580
f 579 581 586
f 579 586 584
f 581 582 587
f 581 587 586
f 499 583 588
f 499 588 504
f 585 584 589
f 585 589 590
f 503 508 590
f 503 590 585
f 584 586 591
f 584 591 589
f 586 587 592
f 586 592 591
f 504 588 593
f 504 593 509
f 590 589 594
f 590 594 595
f 508 513 595
f 508 595 590
f 589 591 596
f 589 596 594
f 591 592 597
f 591 597 596
f 509 593 598
f 509 598 514
f 595 594 599
f 595 599 600
f 513 518 600
f 513 600 595
f 594 596 601
f 594 601 599
f 596 597 602
f 596 602 601
f 514 598 603
f 514 603 519
f 600 599 604
f 600 604 605
f 523 524 604
f 523 604 605
f 518 523 605
f 518 605 600
f 599 601 606
f 599 606 604
f 524 525 606
f 524 606 604
f 601 602 607
f 601 607 606
f 525 526 607
f 525 607 606
f 526 527 608
f 526 608 607
f 527 528 609
f 527 609 608
f 528 529 610
f 528 610 609
f 529 530 611
f 529 611 610
f 519 603 611
f 519 611 530
f 612 613 614
f 612 614 615
f 537 612 613
f 537 613 539
f 537 538 615
f 537 615 612
f 539 613 616
f 539 616 540
f 540 616 617
f 540 617 541
f 541 617 618
f 541 618 542
f 542 618 619
f 542 619 543
f 615 614 620
f 615 620 621
f 538 547 621
f 538 621 615
f 543 619 622
f 543 622 548
f 621 620 623
f 621 623 624
f 547 552 624
f 547 624 621
f 548 622 625
f 548 625 553
f 624 623 626
f 624 626 627
f 552 557 627
f 552 627 624
f 553 625 628
f 553 628 558
f 627 626 629
f 627 629 630
f 557 562 630
f 557 630 627
f 558 628 631
f 558 631 563
f 630 629 632
f 630 632 633
f 562 567 633
f 562 633 630
f 563 631 634
f 563 634 568
f 633 632 635
f 633 635 636
f 567 572 636
f 567 636 633
f 568 634 637
f 568 637 573
f 636 635 638
f 636 638 639
f 572 577 639
f 572 639 636
f 573 637 640
f 573 640 578
f 639 638 641
f 639 641 642
f 577 582 642
f 577 642 639
f 578 640 643
f 578 643 583
f 642 641 644
f 642 644 645
f 582 587 645
f 582 645 642
f 583 643 646
f 583 646 588
f 645 644 647
f 645 647 648
f 587 592 648
f 587 648 645
f 588 646 649
f 588 649 593
f 648 647 650
f 648 650 651
f 592 597 651
f 592 651 648
f 593 649 652
f 593 652 598
f 651 650 653
f 651 653 654
f 597 602 654
f 597 654 651
f 598 652 655
f 598 655 603
f 654 653 656
f 654 656 657
f 607 608 656
f 607 656 657
f 602 607 657
f 602 657 654
f 608 609 658
f 608 658 656
f 609 610 659
f 609 659 658
f 610 611 660
f 610 660 659
f 603 655 660
f 603 660 611
f 613 661 662
f 613 662 616
f 613 614 663
f 613 663 661
f 616 662 664
f 616 664 617
f 617 664 665
f 617 665 618
f 618 665 666
f 618 666 619
f 614 620 667
f 614 667 663
f 619 666 668
f 619 668 622
f 620 623 669
f 620 669 667
f 622 668 670
f 622 670 625
f 623 626 671
f 623 671 669
f 625 670 672
f 625 672 628
f 626 629 673
f 626 673 671
f 628 672 674
f 628 674 631
f 629 632 675
f 629 675 673
f 631 674 676
f 631 676 634
f 632 635 677
f 632 677 675
f 634 676 678
f 634 678 637
f 635 638 679
f 635 679 677
f 637 678 680
f 637 680 640
f 638 641 681
f 638 681 679
f 640 680 682
f 640 682 643
f 641 644 683
f 641 683 681
f 643 682 684
f 643 684 646
f 644 647 685
f 644 685 683
f 646 684 686
f 646 686 649
f 647 650 687
f 647 687 685
f 649 686 688
f 649 688 652
f 650 653 689
f 650 689 687
f 652 688 690
f 652 690 655
f 656 658 691
f 656 691 692
f 653 656 692
f 653 692 689
f 658 659 693
f 658 693 691
f 659 660 694
f 659 694 693
f 655 690 694
f 655 694 660
f 661 695 696
f 661 696 662
f 661 663 697
f 661 697 695
f 662 696 698
f 662 698 664
f 664 698 699
f 664 699 665
f 665 699 700
f 665 700 666
f 663 667 701
f 663 701 697
f 666 700 702
f 666 702 668
f 667 669 703
f 667 703 701
f 668 702 704
f 668 704 670
f 669 671 705
f 669 705 703
f 670 704 706
f 670 706 672
f 671 673 707
f 671 707 705
f 672 706 708
f 672 708 674
f 673 675 709
f 673 709 707
f 674 708 710
f 674 710 676
f 675 677 711
f 675 711 709
f 676 710 712
f 676 712 678
f 677 679 713
f 677 713 711
f 678 712 714
f 678 714 680
f 679 681 715
f 679 715 713
f 680 714 716
f 680 716 682
f 681 683 717
f 681 717 715
f 682 716 718
f 682 718 684
f 683 685 719
f 683 719 717
f 684 718 720
f 684 720 686
f 685 687 721
f 685 721 719
f 686 720 722
f 686 722 688
f 687 689 723
f 687 723 721
f 688 722 724
f 688 724 690
f 692 691 725
f 692 725 726
f 689 692 726
f 689 726 723
f 691 693 727
f 691 727 725
f 693 694 728
f 693 728 727
f 690 724 728
f 690 728 694
f 695 729 730
f 695 730 696
f 695 697 731
f 695 731 729
f 696 730 732
f 696 732 698
f 698 732 733
f 698 733 699
f 699 733 734
f 699 734 700
f 697 701 735
f 697 735 731
f 700 734 736
f 700 736 702
f 701 703 737
f 701 737 735
f 702 736 738
f 702 738 704
f 703 705 739
f 703 739 737
f 704 738 740
f 704 740 706
f 705 707 741
f 705 741 739
f 706 740 742
f 706 742 708
f 707 709 743
f 707 743 741
f 708 742 744
f 708 744 710
f 709 711 745
f 709 745 743
f 710 744 746
f 710 746 712
f 711 713 747
f 711 747 745
f 712 746 748
f 712 748 714
f 713 715 749
f 713 749 747
f 714 748 750
f 714 750 716
f 715 717 751
f 715 751 749
f 716 750 752
f 716 752 718
f 717 719 753
f 717 753 751
f 718 752 754
f 718 754 720
f 719 721 755
f 719 755 753
f 720 754 756
f 720 756 722
f 721 723 757
f 721 757 755
f 722 756 758
f 722 758 724
f 726 725 759
f 726 759 760
f 723 726 760
f 723 760 757
f 725 727 761
f 725 761 759
f 727 728 762
f 727 762 761
f 724 758 762
f 724 762 728
f 763 764 731
f 763 731 729
f 763 765 766
f 763 766 729
f 763 764 767
f 763 767 765
f 729 766 768
f 729 768 730
f 730 768 769
f 730 769 732
f 732 769 770
f 732 770 733
f 733 770 771
f 733 771 734
f 764 772 735
f 764 735 731
f 764 772 773
f 764 773 767
f 734 771 774
f 734 774 736
f 772 775 737
f 772 737 735
f 772 775 776
f 772 776 773
f 736 774 777
f 736 777 738
f 775 778 739
f 775 739 737
f 775 778 779
f 775 779 776
f 738 777 780
f 738 780 740
f 778 781 741
f 778 741 739
f 778 781 782
f 778 782 779
f 740 780 783
f 740 783 742
f 781 784 743
f 781 743 741
f 781 784 785
f 781 785 782
f 742 783 786
f 742 786 744
f 784 787 745
f 784 745 743
f 784 787 788
f 784 788 785
f 744 786 789
f 744 789 746
f 787 790 747
f 787 747 745
f 787 790 791
f 787 791 788
f 746 789 792
f 746 792 748
f 790 793 749
f 790 749 747
f 790 793 794
f 790 794 791
f 748 792 795
f 748 795 750
f 793 796 751
f 793 751 749
f 793 796 797
f 793 797 794
f 750 795 798
f 750 798 752
f 796 799 753
f 796 753 751
f 796 799 800
f 796 800 797
f 752 798 801
f 752 801 754
f 799 802 755
f 799 755 753
f 799 802 803
f 799 803 800
f 754 801 804
f 754 804 756
f 802 805 757
f 802 757 755
f 802 805 806
f 802 806 803
f 756 804 807
f 756 807 758
f 805 808 760
f 805 760 757
f 808 760 809
f 808 809 810
f 805 808 810
f 805 810 806
f 760 759 811
f 760 811 809
f 759 761 812
f 759 812 811
f 761 762 813
f 761 813 812
f 758 807 813
f 758 813 762
f 814 815 816
f 814 816 817
f 814 818 819
f 814 819 817
f 814 815 820
f 814 820 818
f 817 816 767
f 817 767 765
f 817 819 821
f 817 821 765
f 765 821 822
f 765 822 766
f 766 822 823
f 766 823 768
f 768 823 824
f 768 824 769
f 769 824 825
f 769 825 770
f 770 825 826
f 770 826 771
f 815 827 828
f 815 828 816
f 815 827 829
f 815 829 820
f 816 828 773
f 816 773 767
f 771 826 830
f 771 830 774
f 827 831 832
f 827 832 828
f 827 831 833
f 827 833 829
f 828 832 776
f 828 776 773
f 774 830 834
f 774 834 777
f 831 835 836
f 831 836 832
f 831 835 837
f 831 837 833
f 832 836 779
f 832 779 776
f 777 834 838
f 777 838 780
f 835 839 840
f 835 840 836
f 835 839 841
f 835 841 837
f 836 840 782
f 836 782 779
f 780 838 842
f 780 842 783
f 839 843 844
f 839 844 840
f 839 843 845
f 839 845 841
f 840 844 785
f 840 785 782
f 783 842 846
f 783 846 786
f 843 847 848
f 843 848 844
f 843 847 849
f 843 849 845
f 844 848 788
f 844 788 785
f 786 846 850
f 786 850 789
f 847 851 852
f 847 852 848
f 847 851 853
f 847 853 849
f 848 852 791
f 848 791 788
f 789 850 854
f 789 854 792
f 851 855 856
f 851 856 852
f 851 855 857
f 851 857 853
f 852 856 794
f 852 794 791
f 792 854 858
f 792 858 795
f 855 859 860
f 855 860 856
f 855 859 861
f 855 861 857
f 856 860 797
f 856 797 794
f 795 858 862
f 795 862 798
f 859 863 864
f 859 864 860
f 859 863 865
f 859 865 861
f 860 864 800
f 860 800 797
f 798 862 866
f 798 866 801
f 863 867 868
f 863 868 864
f 863 867 869
f 863 869 865
f 864 868 803
f 864 803 800
f 801 866 870
f 801 870 804
f 867 871 872
f 867 872 868
f 867 871 873
f 867 873 869
f 868 872 806
f 868 806 803
f 804 870 874
f 804 874 807
f 871 875 876
f 871 876 872
f 875 876 877
f 875 877 878
f 871 875 878
f 871 878 873
f 872 876 810
f 872 810 806
f 876 810 879
f 876 879 877
f 810 809 880
f 810 880 879
f 809 811 881
f 809 881 880
f 811 812 882
f 811 882 881
f 812 813 883
f 812 883 882
f 807 874 883
f 807 883 813
f 884 885 886
f 884 886 887
f 884 888 889
f 884 889 887
f 884 885 890
f 884 890 888
f 887 886 891
f 887 891 892
f 887 889 893
f 887 893 892
f 892 891 820
f 892 820 818
f 892 893 894
f 892 894 818
f 818 894 895
f 818 895 819
f 819 895 896
f 819 896 821
f 821 896 897
f 821 897 822
f 822 897 898
f 822 898 823
f 823 898 899
f 823 899 824
f 824 899 900
f 824 900 825
f 825 900 901
f 825 901 826
f 885 902 903
f 885 903 886
f 885 902 904
f 885 904 890
f 886 903 905
f 886 905 891
f 891 905 829
f 891 829 820
f 826 901 906
f 826 906 830
f 902 907 908
f 902 908 903
f 902 907 909
f 902 909 904
f 903 908 910
f 903 910 905
f 905 910 833
f 905 833 829
f 830 906 911
f 830 911 834
f 907 912 913
f 907 913 908
f 907 912 914
f 907 914 909
f 908 913 915
f 908 915 910
f 910 915 837
f 910 837 833
f 834 911 916
f 834 916 838
f 912 917 918
f 912 918 913
f 912 917 919
f 912 919 914
f 913 918 920
f 913 920 915
f 915 920 841
f 915 841 837
f 838 916 921
f 838 921 842
f 917 922 923
f 917 923 918
f 917 922 924
f 917 924 919
f 918 923 925
f 918 925 920
f 920 925 845
f 920 845 841
f 842 921 926
f 842 926 846
f 922 927 928
f 922 928 923
f 922 927 929
f 922 929 924
f 923 928 930
f 923 930 925
f 925 930 849
f 925 849 845
f 846 926 931
f 846 931 850
f 927 932 933
f 927 933 928
f 927 932 934
f 927 934 929
f 928 933 935
f 928 935 930
f 930 935 853
f 930 853 849
f 850 931 936
f 850 936 854
f 932 937 938
f 932 938 933
f 932 937 939
f 932 939 934
f 933 938 940
f 933 940 935
f 935 940 857
f 935 857 853
f 854 936 941
f 854 941 858
f 937 942 943
f 937 943 938
f 937 942 944
f 937 944 939
f 938 943 945
f 938 945 940
f 940 945 861
f 940 861 857
f 858 941 946
f 858 946 862
f 942 947 948
f 942 948 943
f 942 947 949
f 942 949 944
f 943 948 950
f 943 950 945
f 945 950 865
f 945 865 861
f 862 946 951
f 862 951 866
f 947 952 953
f 947 953 948
f 947 952 954
f 947 954 949
f 948 953 955
f 948 955 950
f 950 955 869
f 950 869 865
f 866 951 956
f 866 956 870
f 952 957 958
f 952 958 953
f 952 957 959
f 952 959 954
f 953 958 960
f 953 960 955
f 955 960 873
f 955 873 869
f 870 956 961
f 870 961 874
f 957 962 963
f 957 963 958
f 962 963 964
f 962 964 965
f 957 962 965
f 957 965 959
f 958 963 966
f 958 966 960
f 963 966 967
f 963 967 964
f 960 966 878
f 960 878 873
f 966 878 968
f 966 968 967
f 878 877 969
f 878 969 968
f 877 879 970
f 877 970 969
f 879 880 971
f 879 971 970
f 880 881 972
f 880 972 971
f 881 882 973
f 881 973 972
f 882 883 974
f 882 974 973
f 874 961 974
f 874 974 883
f 975 976 977
f 975 977 978
f 975 979 980
f 975 980 978
f 975 976 981
f 975 981 979
f 978 977 982
f 978 982 983
f 978 980 984
f 978 984 983
f 983 982 890
f 983 890 888
f 983 984 985
f 983 985 888
f 888 985 986
f 888 986 889
f 889 986 987
f 889 987 893
f 893 987 988
f 893 988 894
f 894 988 989
f 894 989 895
f 895 989 990
f 895 990 896
f 896 990 991
f 896 991 897
f 897 991 992
f 897 992 898
f 898 992 993
f 898 993 899
f 899 993 994
f 899 994 900
f 900 994 995
f 900 995 901
f 976 996 997
f 976 997 977
f 976 996 998
f 976 998 981
f 977 997 999
f 977 999 982
f 982 999 904
f 982 904 890
f 901 995 1000
f 901 1000 906
f 996 1001 1002
f 996 1002 997
f 996 1001 1003
f 996 1003 998
f 997 1002 1004
f 997 1004 999
f 999 1004 909
f 999 909 904
f 906 1000 1005
f 906 1005 911
f 1001 1006 1007
f 1001 1007 1002
f 1001 1006 1008
f 1001 1008 1003
f 1002 1007 1009
f 1002 1009 1004
f 1004 1009 914
f 1004 914 909
f 911 1005 1010
f 911 1010 916
f 1006 1011 1012
f 1006 1012 1007
f 1006 1011 1013
f 1006 1013 1008
f 1007 1012 1014
f 1007 1014 1009
f 1009 1014 919
f 1009 919 914
f 916 1010 1015
f 916 1015 921
f 1011 1016 1017
f 1011 1017 1012
f 1011 1016 1018
f 1011 1018 1013
f 1012 1017 1019
f 1012 1019 1014
f 1014 1019 924
f 1014 924 919
f 921 1015 1020
f 921 1020 926
f 1016 1021 1022
f 1016 1022 1017
f 1016 1021 1023
f 1016 1023 1018
f 1017 1022 1024
f 1017 1024 1019
f 1019 1024 929
f 1019 929 924
f 926 1020 1025
f 926 1025 931
f 1021 1026 1027
f 1021 1027 1022
f 1021 1026 1028
f 1021 1028 1023
f 1022 1027 1029
f 1022 1029 1024
f 1024 1029 934
f 1024 934 929
f 931 1025 1030
f 931 1030 936
f 1026 1031 1032
f 1026 1032 1027
f 1026 1031 1033
f 1026 1033 1028
f 1027 1032 1034
f 1027 1034 1029
f 1029 1034 939
f 1029 939 934
f 936 1030 1035
f 936 1035 941
f 1031 1036 1037
f 1031 1037 1032
f 1031 1036 1038
f 1031 1038 1033
f 1032 1037 1039
f 1032 1039 1034
f 1034 1039 944
f 1034 944 939
f 941 1035 1040
f 941 1040 946
f 1036 1041 1042
f 1036 1042 1037
f 1036 1041 1043
f 1036 1043 1038
f 1037 1042 1044
f 1037 1044 1039
f 1039 1044 949
f 1039 949 944
f 946 1040 1045
f 946 1045 951
f 1041 1046 1047
f 1041 1047 1042
f 1041 1046 1048
f 1041 1048 1043
f 1042 1047 1049
f 1042 1049 1044
f 1044 1049 954
f 1044 954 949
f 951 1045 1050
f 951 1050 956
f 1046 1051 1052
f 1046 1052 1047
f 1046 1051 1053
f 1046 1053 1048
f 1047 1052 1054
f 1047 1054 1049
f 1049 1054 959
f 1049 959 954
f 956 1050 1055
f 956 1055 961
f 1051 1056 1057
f 1051 1057 1052
f 1056 1057 1058
f 1056 1058 1059
f 1051 1056 1059
f 1051 1059 1053
f 1052 1057 1060
f 1052 1060 1054
f 1057 1060 1061
f 1057 1061 1058
f 1054 1060 965
f 1054 965 959
f 1060 965 1062
f 1060 1062 1061
f 965 964 1063
f 965 1063 1062
f 964 967 1064
f 964 1064 1063
f 967 968 1065
f 967 1065 1064
f 968 969 1066
f 968 1066 1065
f 969 970 1067
f 969 1067 1066
f 970 971 1068
f 970 1068 1067
f 971 972 1069
f 971 1069 1068
f 972 973 1070
f 972 1070 1069
f 973 974 1071
f 973 1071 1070
f 961 1055 1071
f 961 1071 974
f 1072 1073 1074
f 1072 1074 1075
f 1076 1077 1078
f 1076 1078 1079
f 1072 1076 1077
f 1072 1077 1075
f 1072 1073 1079
f 1072 1079 1076
f 1075 1074 981
f 1075 981 979
f 1077 1080 1081
f 1077 1081 1078
f 1075 1077 1080
f 1075 1080 979
f 1080 1082 1083
f 1080 1083 1081
f 979 1080 1082
f 979 1082 980
f 1082 1084 1085
f 1082 1085 1083
f 980 1082 1084
f 980 1084 984
f 1084 1086 1087
f 1084 1087 1085
f 984 1084 1086
f 984 1086 985
f 1086 1088 1089
f 1086 1089 1087
f 985 1086 1088
f 985 1088 986
f 1088 1090 1091
f 1088 1091 1089
f 986 1088 1090
f 986 1090 987
f 1090 1092 1093
f 1090 1093 1091
f 987 1090 1092
f 987 1092 988
f 1092 1094 1095
f 1092 1095 1093
f 988 1092 1094
f 988 1094 989
f 1094 1096 1097
f 1094 1097 1095
f 989 1094 1096
f 989 1096 990
f 1096 1098 1099
f 1096 1099 1097
f 990 1096 1098
f 990 1098 991
f 1098 1100 1101
f 1098 1101 1099
f 991 1098 1100
f 991 1100 992
f 1100 1102 1103
f 1100 1103 1101
f 992 1100 1102
f 992 1102 993
f 1102 1104 1105
f 1102 1105 1103
f 993 1102 1104
f 993 1104 994
f 994 1104 1105
f 994 1105 995
f 1073 1106 1107
f 1073 1107 1074
f 1079 1078 1108
f 1079 1108 1109
f 1073 1106 1109
f 1073 1109 1079
f 1074 1107 998
f 1074 998 981
f 1078 1081 1110
f 1078 1110 1108
f 1081 1083 1111
f 1081 1111 1110
f 1083 1085 1112
f 1083 1112 1111
f 1085 1087 1113
f 1085 1113 1112
f 1087 1089 1114
f 1087 1114 1113
f 1089 1091 1115
f 1089 1115 1114
f 1091 1093 1116
f 1091 1116 1115
f 1093 1095 1117
f 1093 1117 1116
f 1095 1097 1118
f 1095 1118 1117
f 1097 1099 1119
f 1097 1119 1118
f 1099 1101 1120
f 1099 1120 1119
f 1101 1103 1121
f 1101 1121 1120
f 1103 1105 1122
f 1103 1122 1121
f 995 1105 1122
f 995 1122 1000
f 1106 1123 1124
f 1106 1124 1107
f 1109 1108 1125
f 1109 1125 1126
f 1106 1123 1126
f 1106 1126 1109
f 1107 1124 1003
f 1107 1003 998
f 1108 1110 1127
f 1108 1127 1125
f 1110 1111 1128
f 1110 1128 1127
f 1111 1112 1129
f 1111 1129 1128
f 1112 1113 1130
f 1112 1130 1129
f 1113 1114 1131
f 1113 1131 1130
f 1114 1115 1132
f 1114 1132 1131
f 1115 1116 1133
f 1115 1133 1132
f 1116 1117 1134
f 1116 1134 1133
f 1117 1118 1135
f 1117 1135 1134
f 1118 1119 1136
f 1118 1136 1135
f 1119 1120 1137
f 1119 1137 1136
f 1120 1121 1138
f 1120 1138 1137
f 1121 1122 1139
f 1121 1139 1138
f 1000 1122 1139
f 1000 1139 1005
f 1123 1140 1141
f 1123 1141 1124
f 1126 1125 1142
f 1126 1142 1143
f 1123 1140 1143
f 1123 1143 1126
f 1124 1141 1008
f 1124 1008 1003
f 1125 1127 1144
f 1125 1144 1142
f 1127 1128 1145
f 1127 1145 1144
f 1128 1129 1146
f 1128 1146 1145
f 1129 1130 1147
f 1129 1147 1146
f 1130 1131 1148
f 1130 1148 1147
f 1131 1132 1149
f 1131 1149 1148
f 1132 1133 1150
f 1132 1150 1149
f 1133 1134 1151
f 1133 1151 1150
f 1134 1135 1152
f 1134 1152 1151
f 1135 1136 1153
f 1135 1153 1152
f 1136 1137 1154
f 1136 1154 1153
f 1137 1138 1155
f 1137 1155 1154
f 1138 1139 1156
f 1138 1156 1155
f 1005 1139 1156
f 1005 1156 1010
f 1140 1157 1158
f 1140 1158 1141
f 1143 1142 1159
f 1143 1159 1160
f 1140 1157 1160
f 1140 1160 1143
f 1141 1158 1013
f 1141 1013 1008
f 1142 1144 1161
f 1142 1161 1159
f 1144 1145 1162
f 1144 1162 1161
f 1145 1146 1163
f 1145 1163 1162
f 1146 1147 1164
f 1146 1164 1163
f 1147 1148 1165
f 1147 1165 1164
f 1148 1149 1166
f 1148 1166 1165
f 1149 1150 1167
f 1149 1167 1166
f 1150 1151 1168
f 1150 1168 1167
f 1151 1152 1169
f 1151 1169 1168
f 1152 1153 1170
f 1152 1170 1169
f 1153 1154 1171
f 1153 1171 1170
f 1154 1155 1172
f 1154 1172 1171
f 1155 1156 1173
f 1155 1173 1172
f 1010 1156 1173
f 1010 1173 1015
f 1157 1174 1175
f 1157 1175 1158
f 1160 1159 1176
f 1160 1176 1177
f 1157 1174 1177
f 1157 1177 1160
f 1158 1175 1018
f 1158 1018 1013
f 1159 1161 1178
f 1159 1178 1176
f 1161 1162 1179
f 1161 1179 1178
f 1162 1163 1180
f 1162 1180 1179
f 1163 1164 1181
f 1163 1181 1180
f 1164 1165 1182
f 1164 1182 1181
f 1165 1166 1183
f 1165 1183 1182
f 1166 1167 1184
f 1166 1184 1183
f 1167 1168 1185
f 1167 1185 1184
f 1168 1169 1186
f 1168 1186 1185
f 1169 1170 1187
f 1169 1187 1186
f 1170 1171 1188
f 1170 1188 1187
f 1171 1172 1189
f 1171 1189 1188
f 1172 1173 1190
f 1172 1190 1189
f 1015 1173 1190
f 1015 1190 1020
f 1174 1191 1192
f 1174 1192 1175
f 1177 1176 1193
f 1177 1193 1194
f 1174 1191 1194
f 1174 1194 1177
f 1175 1192 1023
f 1175 1023 1018
f 1176 1178 1195
f 1176 1195 1193
f 1178 1179 1196
f 1178 1196 1195
f 1179 1180 1197
f 1179 1197 1196
f 1180 1181 1198
f 1180 1198 1197
f 1181 1182 1199
f 1181 1199 1198
f 1182 1183 1200
f 1182 1200 1199
f 1183 1184 1201
f 1183 1201 1200
f 1184 1185 1202
f 1184 1202 1201
f 1185 1186 1203
f 1185 1203 1202
f 1186 1187 1204
f 1186 1204 1203
f 1187 1188 1205
f 1187 1205 1204
f 1188 1189 1206
f 1188 1206 1205
f 1189 1190 1207
f 1189 1207 1206
f 1020 1190 1207
f 1020 1207 1025
f 1191 1208 1209
f 1191 1209 1192
f 1194 1193 1210
f 1194 1210 1211
f 1191 1208 1211
f 1191 1211 1194
f 1192 1209 1028
f 1192 1028 1023
f 1193 1195 1212
f 1193 1212 1210
f 1195 1196 1213
f 1195 1213 1212
f 1196 1197 1214
f 1196 1214 1213
f 1197 1198 1215
f 1197 1215 1214
f 1198 1199 1216
f 1198 1216 1215
f 1199 1200 1217
f 1199 1217 1216
f 1200 1201 1218
f 1200 1218 1217
f 1201 1202 1219
f 1201 1219 1218
f 1202 1203 1220
f 1202 1220 1219
f 1203 1204 1221
f 1203 1221 1220
f 1204 1205 1222
f 1204 1222 1221
f 1205 1206 1223
f 1205 1223 1222
f 1206 1207 1224
f 1206 1224 1223
f 1025 1207 1224
f 1025 1224 1030
f 1208 1225 1226
f 1208 1226 1209
f 1211 1210 1227
f 1211 1227 1228
f 1208 1225 1228
f 1208 1228 1211
f 1209 1226 1033
f 1209 1033 1028
f 1210 1212 1229
f 1210 1229 1227
f 1212 1213 1230
f 1212 1230 1229
f 1213 1214 1231
f 1213 1231 1230
f 1214 1215 1232
f 1214 1232 1231
f 1215 1216 1233
f 1215 1233 1232
f 1216 1217 1234
f 1216 1234 1233
f 1217 1218 1235
f 1217 1235 1234
f 1218 1219 1236
f 1218 1236 1235
f 1219 1220 1237
f 1219 1237 1236
f 1220 1221 1238
f 1220 1238 1237
f 1221 1222 1239
f 1221 1239 1238
f 1222 1223 1240
f 1222 1240 1239
f 1223 1224 1241
f 1223 1241 1240
f 1030 1224 1241
f 1030 1241 1035
f 1225 1242 1243
f 1225 1243 1226
f 1228 1227 1244
f 1228 1244 1245
f 1225 1242 1245
f 1225 1245 1228
f 1226 1243 1038
f 1226 1038 1033
f 1227 1229 1246
f 1227 1246 1244
f 1229 1230 1247
f 1229 1247 1246
f 1230 1231 1248
f 1230 1248 1247
f 1231 1232 1249
f 1231 1249 1248
f 1232 1233 1250
f 1232 1250 1249
f 1233 1234 1251
f 1233 1251 1250
f 1234 1235 1252
f 1234 1252 1251
f 1235 1236 1253
f 1235 1253 1252
f 1236 1237 1254
f 1236 1254 1253
f 1237 1238 1255
f 1237 1255 1254
f 1238 1239 1256
f 1238 1256 1255
f 1239 1240 1257
f 1239 1257 1256
f 1240 1241 1258
f 1240 1258 1257
f 1035 1241 1258
f 1035 1258 1040
f 1242 1259 1260
f 1242 1260 1243
f 1245 1244 1261
f 1245 1261 1262
f 1242 1259 1262
f 1242 1262 1245
f 1243 1260 1043
f 1243 1043 1038
f 1244 1246 1263
f 1244 1263 1261
f 1246 1247 1264
f 1246 1264 1263
f 1247 1248 1265
f 1247 1265 1264
f 1248 1249 1266
f 1248 1266 1265
f 1249 1250 1267
f 1249 1267 1266
f 1250 1251 1268
f 1250 1268 1267
f 1251 1252 1269
f 1251 1269 1268
f 1252 1253 1270
f 1252 1270 1269
f 1253 1254 1271
f 1253 1271 1270
f 1254 1255 1272
f 1254 1272 1271
f 1255 1256 1273
f 1255 1273 1272
f 1256 1257 1274
f 1256 1274 1273
f 1257 1258 1275
f 1257 1275 1274
f 1040 1258 1275
f 1040 1275 1045
f 1259 1276 1277
f 1259 1277 1260
f 1262 1261 1278
f 1262 1278 1279
f 1259 1276 1279
f 1259 1279 1262
f 1260 1277 1048
f 1260 1048 1043
f 1261 1263 1280
f 1261 1280 1278
f 1263 1264 1281
f 1263 1281 1280
f 1264 1265 1282
f 1264 1282 1281
f 1265 1266 1283
f 1265 1283 1282
f 1266 1267 1284
f 1266 1284 1283
f 1267 1268 1285
f 1267 1285 1284
f 1268 1269 1286
f 1268 1286 1285
f 1269 1270 1287
f 1269 1287 1286
f 1270 1271 1288
f 1270 1288 1287
f 1271 1272 1289
f 1271 1289 1288
f 1272 1273 1290
f 1272 1290 1289
f 1273 1274 1291
f 1273 1291 1290
f 1274 1275 1292
f 1274 1292 1291
f 1045 1275 1292
f 1045 1292 1050
f 1276 1293 1294
f 1276 1294 1277
f 1279 1278 1295
f 1279 1295 1296
f 1276 1293 1296
f 1276 1296 1279
f 1277 1294 1053
f 1277 1053 1048
f 1278 1280 1297
f 1278 1297 1295
f 1280 1281 1298
f 1280 1298 1297
f 1281 1282 1299
f 1281 1299 1298
f 1282 1283 1300
f 1282 1300 1299
f 1283 1284 1301
f 1283 1301 1300
f 1284 1285 1302
f 1284 1302 1301
f 1285 1286 1303
f 1285 1303 1302
f 1286 1287 1304
f 1286 1304 1303
f 1287 1288 1305
f 1287 1305 1304
f 1288 1289 1306
f 1288 1306 1305
f 1289 1290 1307
f 1289 1307 1306
f 1290 1291 1308
f 1290 1308 1307
f 1291 1292 1309
f 1291 1309 1308
f 1050 1292 1309
f 1050 1309 1055
f 1293 1310 1311
f 1293 1311 1294
f 1296 1295 1312
f 1296 1312 1313
f 1310 1311 1312
f 1310 1312 1313
f 1293 1310 1313
f 1293 1313 1296
f 1294 1311 1059
f 1294 1059 1053
f 1295 1297 1314
f 1295 1314 1312
f 1311 1059 1314
f 1311 1314 1312
f 1297 1298 1315
f 1297 1315 1314
f 1059 1058 1315
f 1059 1315 1314
f 1298 1299 1316
f 1298 1316 1315
f 1058 1061 1316
f 1058 1316 1315
f 1299 1300 1317
f 1299 1317 1316
f 1061 1062 1317
f 1061 1317 1316
f 1300 1301 1318
f 1300 1318 1317
f 1062 1063 1318
f 1062 1318 1317
f 1301 1302 1319
f 1301 1319 1318
f 1063 1064 1319
f 1063 1319 1318
f 1302 1303 1320
f 1302 1320 1319
f 1064 1065 1320
f 1064 1320 1319
f 1303 1304 1321
f 1303 1321 1320
f 1065 1066 1321
f 1065 1321 1320
f 1304 1305 1322
f 1304 1322 1321
f 1066 1067 1322
f 1066 1322 1321
f 1305 1306 1323
f 1305 1323 1322
f 1067 1068 1323
f 1067 1323 1322
f 1306 1307 1324
f 1306 1324 1323
f 1068 1069 1324
f 1068 1324 1323
f 1307 1308 1325
f 1307 1325 1324
f 1069 1070 1325
f 1069 1325 1324
f 1308 1309 1326
f 1308 1326 1325
f 1070 1071 1326
f 1070 1326 1325
f 1055 1309 1326
f 1055 1326 1071
