o [4B] 3D Diagram - S2-06 Group A_951
v -18.427500 10.165000 100.275000
v -18.427500 10.570000 100.275000
v -18.427500 10.570000 100.950000
v -18.427500 10.165000 100.950000
v -15.795000 10.165000 100.275000
v -15.795000 10.165000 100.950000
v -15.795000 10.570000 100.275000
v -18.427500 10.570000 101.625000
v -18.427500 10.165000 101.625000
v -15.795000 10.165000 101.625000
v -18.427500 10.570000 102.300000
v -18.427500 10.165000 102.300000
v -15.795000 10.165000 102.300000
v -18.427500 10.570000 102.975000
v -18.427500 10.165000 102.975000
v -15.795000 10.165000 102.975000
v -18.427500 10.570000 103.650000
v -18.427500 10.165000 103.650000
v -15.795000 10.165000 103.650000
v -18.427500 10.570000 104.325000
v -18.427500 10.165000 104.325000
v -15.795000 10.165000 104.325000
v -18.427500 10.570000 105.000000
v -18.427500 10.165000 105.000000
v -15.795000 10.165000 105.000000
v -18.427500 10.570000 105.675000
v -18.427500 10.165000 105.675000
v -15.795000 10.165000 105.675000
v -18.427500 10.570000 106.350000
v -18.427500 10.165000 106.350000
v -15.795000 10.165000 106.350000
v -18.427500 10.570000 107.025000
v -18.427500 10.165000 107.025000
v -15.795000 10.165000 107.025000
v -18.427500 10.570000 107.700000
v -18.427500 10.165000 107.700000
v -15.795000 10.165000 107.700000
v -18.427500 10.570000 108.375000
v -18.427500 10.165000 108.375000
v -15.795000 10.165000 108.375000
v -18.427500 10.570000 109.050000
v -18.427500 10.165000 109.050000
v -15.795000 10.165000 109.050000
v -18.427500 10.570000 109.725000
v -18.427500 10.165000 109.725000
v -15.795000 10.165000 109.725000
v -15.795000 10.570000 109.725000
v -18.427500 10.975000 100.275000
v -18.427500 10.975000 100.950000
v -15.795000 10.975000 100.950000
v -15.795000 10.975000 100.275000
v -18.427500 10.975000 101.625000
v -15.795000 10.975000 101.625000
v -18.427500 10.975000 102.300000
v -18.427500 10.975000 102.975000
v -18.427500 10.975000 103.650000
v -18.427500 10.975000 104.325000
v -18.427500 10.975000 105.000000
v -18.427500 10.975000 105.675000
v -18.427500 10.975000 106.350000
v -18.427500 10.975000 107.025000
v -18.427500 10.975000 107.700000
v -18.427500 10.975000 108.375000
v -18.427500 10.975000 109.050000
v -18.427500 10.975000 109.725000
v -15.795000 10.975000 109.725000
v -18.427500 11.380000 101.625000
v -18.427500 11.380000 102.300000
v -15.795000 11.380000 102.300000
v -15.795000 11.380000 101.625000
v -18.427500 11.380000 102.975000
v -15.795000 11.380000 102.975000
v -18.427500 11.380000 103.650000
v -15.795000 11.380000 103.650000
v -18.427500 11.380000 104.325000
v -18.427500 11.380000 105.000000
v -18.427500 11.380000 105.675000
v -18.427500 11.380000 106.350000
v -18.427500 11.380000 107.025000
v -18.427500 11.380000 107.700000
v -18.427500 11.380000 108.375000
v -18.427500 11.380000 109.050000
v -18.427500 11.380000 109.725000
v -15.795000 11.380000 109.725000
v -18.427500 11.785000 103.650000
v -18.427500 11.785000 104.325000
v -15.795000 11.785000 104.325000
v -15.795000 11.785000 103.650000
v -18.427500 11.785000 105.000000
v -15.795000 11.785000 105.000000
v -18.427500 11.785000 105.675000
v -15.795000 11.785000 105.675000
v -18.427500 11.785000 106.350000
v -18.427500 11.785000 107.025000
v -18.427500 11.785000 107.700000
v -18.427500 11.785000 108.375000
v -18.427500 11.785000 109.050000
v -18.427500 11.785000 109.725000
v -15.795000 11.785000 109.725000
v -18.427500 12.190000 105.675000
v -18.427500 12.190000 106.350000
v -15.795000 12.190000 106.350000
v -15.795000 12.190000 105.675000
v -18.427500 12.190000 107.025000
v -15.795000 12.190000 107.025000
v -18.427500 12.190000 107.700000
v -18.427500 12.190000 108.375000
v -18.427500 12.190000 109.050000
v -18.427500 12.190000 109.725000
v -15.795000 12.190000 109.725000
v -18.427500 12.595000 107.025000
v -18.427500 12.595000 107.700000
v -15.795000 12.595000 107.700000
v -15.795000 12.595000 107.025000
v -18.427500 12.595000 108.375000
v -18.427500 12.595000 109.050000
v -18.427500 12.595000 109.725000
v -15.795000 12.595000 109.725000
v -18.427500 13.000000 107.700000
v -18.427500 13.000000 108.375000
v -15.795000 13.000000 107.700000
v -18.427500 13.000000 109.050000
v -18.427500 13.000000 109.725000
v -15.795000 13.000000 109.725000
v -18.427500 13.405000 107.700000
v -18.427500 13.405000 108.375000
v -15.795000 13.405000 107.700000
v -18.427500 13.405000 109.050000
v -18.427500 13.405000 109.725000
v -15.795000 13.405000 109.725000
v -18.427500 13.405000 107.025000
v -18.427500 13.810000 107.025000
v -18.427500 13.810000 107.700000
v -15.795000 13.405000 107.025000
v -15.795000 13.810000 107.025000
v -18.427500 13.810000 108.375000
v -18.427500 13.810000 109.050000
v -18.427500 13.810000 109.725000
v -15.795000 13.810000 109.725000
v -18.427500 13.810000 105.675000
v -18.427500 14.215000 105.675000
v -18.427500 14.215000 106.350000
v -18.427500 13.810000 106.350000
v -15.795000 13.810000 105.675000
v -15.795000 13.810000 106.350000
v -15.795000 14.215000 105.675000
v -18.427500 14.215000 107.025000
v -18.427500 14.215000 107.700000
v -18.427500 14.215000 108.375000
v -18.427500 14.215000 109.050000
v -18.427500 14.215000 109.725000
v -15.795000 14.215000 109.725000
v -18.427500 14.215000 103.650000
v -18.427500 14.620000 103.650000
v -18.427500 14.620000 104.325000
v -18.427500 14.215000 104.325000
v -15.795000 14.215000 103.650000
v -15.795000 14.215000 104.325000
v -15.795000 14.620000 103.650000
v -18.427500 14.620000 105.000000
v -18.427500 14.215000 105.000000
v -15.795000 14.215000 105.000000
v -18.427500 14.620000 105.675000
v -18.427500 14.620000 106.350000
v -18.427500 14.620000 107.025000
v -18.427500 14.620000 107.700000
v -18.427500 14.620000 108.375000
v -18.427500 14.620000 109.050000
v -18.427500 14.620000 109.725000
v -15.795000 14.620000 109.725000
v -18.427500 14.620000 101.625000
v -18.427500 15.025000 101.625000
v -18.427500 15.025000 102.300000
v -18.427500 14.620000 102.300000
v -15.795000 14.620000 101.625000
v -15.795000 14.620000 102.300000
v -15.795000 15.025000 101.625000
v -18.427500 15.025000 102.975000
v -18.427500 14.620000 102.975000
v -15.795000 14.620000 102.975000
v -18.427500 15.025000 103.650000
v -18.427500 15.025000 104.325000
v -18.427500 15.025000 105.000000
v -18.427500 15.025000 105.675000
v -18.427500 15.025000 106.350000
v -18.427500 15.025000 107.025000
v -18.427500 15.025000 107.700000
v -18.427500 15.025000 108.375000
v -18.427500 15.025000 109.050000
v -18.427500 15.025000 109.725000
v -15.795000 15.025000 109.725000
v -18.427500 15.025000 100.275000
v -18.427500 15.430000 100.275000
v -18.427500 15.430000 100.950000
v -18.427500 15.025000 100.950000
v -15.795000 15.025000 100.275000
v -15.795000 15.025000 100.950000
v -15.795000 15.430000 100.275000
v -18.427500 15.430000 101.625000
v -18.427500 15.430000 102.300000
v -18.427500 15.430000 102.975000
v -18.427500 15.430000 103.650000
v -18.427500 15.430000 104.325000
v -18.427500 15.430000 105.000000
v -18.427500 15.430000 105.675000
v -18.427500 15.430000 106.350000
v -18.427500 15.430000 107.025000
v -18.427500 15.430000 107.700000
v -18.427500 15.430000 108.375000
v -18.427500 15.430000 109.050000
v -18.427500 15.430000 109.725000
v -15.795000 15.430000 109.725000
v -18.427500 15.835000 100.275000
v -18.427500 15.835000 100.950000
v -15.795000 15.835000 100.950000
v -15.795000 15.835000 100.275000
v -18.427500 15.835000 101.625000
v -15.795000 15.835000 101.625000
v -18.427500 15.835000 102.300000
v -15.795000 15.835000 102.300000
v -18.427500 15.835000 102.975000
v -15.795000 15.835000 102.975000
v -18.427500 15.835000 103.650000
v -15.795000 15.835000 103.650000
v -18.427500 15.835000 104.325000
v -15.795000 15.835000 104.325000
v -18.427500 15.835000 105.000000
v -15.795000 15.835000 105.000000
v -18.427500 15.835000 105.675000
v -15.795000 15.835000 105.675000
v -18.427500 15.835000 106.350000
v -15.795000 15.835000 106.350000
v -18.427500 15.835000 107.025000
v -15.795000 15.835000 107.025000
v -18.427500 15.835000 107.700000
v -15.795000 15.835000 107.700000
v -18.427500 15.835000 108.375000
v -15.795000 15.835000 108.375000
v -18.427500 15.835000 109.050000
v -15.795000 15.835000 109.050000
v -18.427500 15.835000 109.725000
v -15.795000 15.835000 109.725000
v -13.162500 10.165000 100.275000
v -13.162500 10.165000 100.950000
v -13.162500 10.570000 100.275000
v -13.162500 10.165000 101.625000
v -13.162500 10.165000 102.300000
v -13.162500 10.165000 102.975000
v -13.162500 10.165000 103.650000
v -13.162500 10.165000 104.325000
v -13.162500 10.165000 105.000000
v -13.162500 10.165000 105.675000
v -13.162500 10.165000 106.350000
v -13.162500 10.165000 107.025000
v -13.162500 10.165000 107.700000
v -13.162500 10.165000 108.375000
v -13.162500 10.165000 109.050000
v -13.162500 10.165000 109.725000
v -13.162500 10.570000 109.725000
v -13.162500 10.975000 100.950000
v -13.162500 10.975000 100.275000
v -13.162500 10.975000 101.625000
v -13.162500 10.975000 109.725000
v -13.162500 11.380000 102.300000
v -13.162500 11.380000 101.625000
v -13.162500 11.380000 102.975000
v -13.162500 11.380000 103.650000
v -13.162500 11.380000 109.725000
v -13.162500 11.785000 104.325000
v -13.162500 11.785000 103.650000
v -13.162500 11.785000 105.000000
v -13.162500 11.785000 105.675000
v -13.162500 11.785000 109.725000
v -13.162500 12.190000 106.350000
v -13.162500 12.190000 105.675000
v -13.162500 12.190000 107.025000
v -13.162500 12.190000 109.725000
v -13.162500 12.595000 107.700000
v -13.162500 12.595000 107.025000
v -13.162500 12.595000 109.725000
v -13.162500 13.000000 107.700000
v -13.162500 13.000000 109.725000
v -13.162500 13.405000 107.700000
v -13.162500 13.405000 109.725000
v -13.162500 13.405000 107.025000
v -13.162500 13.810000 107.025000
v -13.162500 13.810000 109.725000
v -13.162500 13.810000 105.675000
v -13.162500 13.810000 106.350000
v -13.162500 14.215000 105.675000
v -13.162500 14.215000 109.725000
v -13.162500 14.215000 103.650000
v -13.162500 14.215000 104.325000
v -13.162500 14.620000 103.650000
v -13.162500 14.215000 105.000000
v -13.162500 14.620000 109.725000
v -13.162500 14.620000 101.625000
v -13.162500 14.620000 102.300000
v -13.162500 15.025000 101.625000
v -13.162500 14.620000 102.975000
v -13.162500 15.025000 109.725000
v -13.162500 15.025000 100.275000
v -13.162500 15.025000 100.950000
v -13.162500 15.430000 100.275000
v -13.162500 15.430000 109.725000
v -13.162500 15.835000 100.950000
v -13.162500 15.835000 100.275000
v -13.162500 15.835000 101.625000
v -13.162500 15.835000 102.300000
v -13.162500 15.835000 102.975000
v -13.162500 15.835000 103.650000
v -13.162500 15.835000 104.325000
v -13.162500 15.835000 105.000000
v -13.162500 15.835000 105.675000
v -13.162500 15.835000 106.350000
v -13.162500 15.835000 107.025000
v -13.162500 15.835000 107.700000
v -13.162500 15.835000 108.375000
v -13.162500 15.835000 109.050000
v -13.162500 15.835000 109.725000
v -10.530000 10.165000 100.275000
v -10.530000 10.165000 100.950000
v -10.530000 10.570000 100.275000
v -10.530000 10.165000 101.625000
v -10.530000 10.165000 102.300000
v -10.530000 10.165000 102.975000
v -10.530000 10.165000 103.650000
v -10.530000 10.165000 104.325000
v -10.530000 10.165000 105.000000
v -10.530000 10.165000 105.675000
v -10.530000 10.165000 106.350000
v -10.530000 10.165000 107.025000
v -10.530000 10.165000 107.700000
v -10.530000 10.165000 108.375000
v -10.530000 10.165000 109.050000
v -10.530000 10.165000 109.725000
v -10.530000 10.570000 109.725000
v -10.530000 10.975000 100.950000
v -10.530000 10.975000 100.275000
v -10.530000 10.975000 101.625000
v -10.530000 10.975000 109.725000
v -10.530000 11.380000 102.300000
v -10.530000 11.380000 101.625000
v -10.530000 11.380000 102.975000
v -10.530000 11.380000 103.650000
v -10.530000 11.380000 109.725000
v -10.530000 11.785000 104.325000
v -10.530000 11.785000 103.650000
v -10.530000 11.785000 105.000000
v -10.530000 11.785000 105.675000
v -10.530000 11.785000 109.725000
v -10.530000 12.190000 106.350000
v -10.530000 12.190000 105.675000
v -10.530000 12.190000 107.025000
v -10.530000 12.190000 109.725000
v -10.530000 12.595000 107.700000
v -10.530000 12.595000 107.025000
v -10.530000 12.595000 109.725000
v -10.530000 13.000000 107.700000
v -10.530000 13.000000 109.725000
v -10.530000 13.405000 107.700000
v -10.530000 13.405000 109.725000
v -10.530000 13.405000 107.025000
v -10.530000 13.810000 107.025000
v -10.530000 13.810000 109.725000
v -10.530000 13.810000 105.675000
v -10.530000 13.810000 106.350000
v -10.530000 14.215000 105.675000
v -10.530000 14.215000 109.725000
v -10.530000 14.215000 103.650000
v -10.530000 14.215000 104.325000
v -10.530000 14.620000 103.650000
v -10.530000 14.215000 105.000000
v -10.530000 14.620000 109.725000
v -10.530000 14.620000 101.625000
v -10.530000 14.620000 102.300000
v -10.530000 15.025000 101.625000
v -10.530000 14.620000 102.975000
v -10.530000 15.025000 109.725000
v -10.530000 15.025000 100.275000
v -10.530000 15.025000 100.950000
v -10.530000 15.430000 100.275000
v -10.530000 15.430000 109.725000
v -10.530000 15.835000 100.950000
v -10.530000 15.835000 100.275000
v -10.530000 15.835000 101.625000
v -10.530000 15.835000 102.300000
v -10.530000 15.835000 102.975000
v -10.530000 15.835000 103.650000
v -10.530000 15.835000 104.325000
v -10.530000 15.835000 105.000000
v -10.530000 15.835000 105.675000
v -10.530000 15.835000 106.350000
v -10.530000 15.835000 107.025000
v -10.530000 15.835000 107.700000
v -10.530000 15.835000 108.375000
v -10.530000 15.835000 109.050000
v -10.530000 15.835000 109.725000
v -7.897500 10.165000 100.275000
v -7.897500 10.165000 100.950000
v -7.897500 10.570000 100.275000
v -7.897500 10.165000 101.625000
v -7.897500 10.165000 102.300000
v -7.897500 10.165000 102.975000
v -7.897500 10.165000 103.650000
v -7.897500 10.165000 104.325000
v -7.897500 10.165000 105.000000
v -7.897500 10.165000 105.675000
v -7.897500 10.165000 106.350000
v -7.897500 10.165000 107.025000
v -7.897500 10.165000 107.700000
v -7.897500 10.165000 108.375000
v -7.897500 10.165000 109.050000
v -7.897500 10.165000 109.725000
v -7.897500 10.570000 109.725000
v -7.897500 10.975000 100.950000
v -7.897500 10.975000 100.275000
v -7.897500 10.975000 101.625000
v -7.897500 10.975000 109.725000
v -7.897500 11.380000 102.300000
v -7.897500 11.380000 101.625000
v -7.897500 11.380000 102.975000
v -7.897500 11.380000 103.650000
v -7.897500 11.380000 109.725000
v -7.897500 11.785000 104.325000
v -7.897500 11.785000 103.650000
v -7.897500 11.785000 105.000000
v -7.897500 11.785000 105.675000
v -7.897500 11.785000 109.725000
v -7.897500 12.190000 106.350000
v -7.897500 12.190000 105.675000
v -7.897500 12.190000 107.025000
v -7.897500 12.190000 109.725000
v -7.897500 12.595000 107.700000
v -7.897500 12.595000 107.025000
v -7.897500 12.595000 109.725000
v -7.897500 13.000000 107.700000
v -7.897500 13.000000 109.725000
v -7.897500 13.405000 107.700000
v -7.897500 13.405000 109.725000
v -7.897500 13.405000 107.025000
v -7.897500 13.810000 107.025000
v -7.897500 13.810000 109.725000
v -7.897500 13.810000 105.675000
v -7.897500 13.810000 106.350000
v -7.897500 14.215000 105.675000
v -7.897500 14.215000 109.725000
v -7.897500 14.215000 103.650000
v -7.897500 14.215000 104.325000
v -7.897500 14.620000 103.650000
v -7.897500 14.215000 105.000000
v -7.897500 14.620000 109.725000
v -7.897500 14.620000 101.625000
v -7.897500 14.620000 102.300000
v -7.897500 15.025000 101.625000
v -7.897500 14.620000 102.975000
v -7.897500 15.025000 109.725000
v -7.897500 15.025000 100.275000
v -7.897500 15.025000 100.950000
v -7.897500 15.430000 100.275000
v -7.897500 15.430000 109.725000
v -7.897500 15.835000 100.950000
v -7.897500 15.835000 100.275000
v -7.897500 15.835000 101.625000
v -7.897500 15.835000 102.300000
v -7.897500 15.835000 102.975000
v -7.897500 15.835000 103.650000
v -7.897500 15.835000 104.325000
v -7.897500 15.835000 105.000000
v -7.897500 15.835000 105.675000
v -7.897500 15.835000 106.350000
v -7.897500 15.835000 107.025000
v -7.897500 15.835000 107.700000
v -7.897500 15.835000 108.375000
v -7.897500 15.835000 109.050000
v -7.897500 15.835000 109.725000
v -5.265000 10.165000 100.275000
v -5.265000 10.165000 100.950000
v -5.265000 10.570000 100.275000
v -5.265000 10.165000 101.625000
v -5.265000 10.165000 102.300000
v -5.265000 10.165000 102.975000
v -5.265000 10.165000 103.650000
v -5.265000 10.165000 104.325000
v -5.265000 10.165000 105.000000
v -5.265000 10.165000 105.675000
v -5.265000 10.165000 106.350000
v -5.265000 10.165000 107.025000
v -5.265000 10.165000 107.700000
v -5.265000 10.165000 108.375000
v -5.265000 10.165000 109.050000
v -5.265000 10.165000 109.725000
v -5.265000 10.570000 109.725000
v -5.265000 10.975000 100.950000
v -5.265000 10.975000 100.275000
v -5.265000 10.975000 101.625000
v -5.265000 10.975000 109.725000
v -5.265000 11.380000 102.300000
v -5.265000 11.380000 101.625000
v -5.265000 11.380000 102.975000
v -5.265000 11.380000 103.650000
v -5.265000 11.380000 109.725000
v -5.265000 11.785000 104.325000
v -5.265000 11.785000 103.650000
v -5.265000 11.785000 105.000000
v -5.265000 11.785000 105.675000
v -5.265000 11.785000 109.725000
v -5.265000 12.190000 106.350000
v -5.265000 12.190000 105.675000
v -5.265000 12.190000 107.025000
v -5.265000 12.190000 109.725000
v -5.265000 12.595000 107.700000
v -5.265000 12.595000 107.025000
v -5.265000 12.595000 109.725000
v -5.265000 13.000000 107.700000
v -5.265000 13.000000 109.725000
v -5.265000 13.405000 107.700000
v -5.265000 13.405000 109.725000
v -5.265000 13.405000 107.025000
v -5.265000 13.810000 107.025000
v -5.265000 13.810000 109.725000
v -5.265000 13.810000 105.675000
v -5.265000 13.810000 106.350000
v -5.265000 14.215000 105.675000
v -5.265000 14.215000 109.725000
v -5.265000 14.215000 103.650000
v -5.265000 14.215000 104.325000
v -5.265000 14.620000 103.650000
v -5.265000 14.215000 105.000000
v -5.265000 14.620000 109.725000
v -5.265000 14.620000 101.625000
v -5.265000 14.620000 102.300000
v -5.265000 15.025000 101.625000
v -5.265000 14.620000 102.975000
v -5.265000 15.025000 109.725000
v -5.265000 15.025000 100.275000
v -5.265000 15.025000 100.950000
v -5.265000 15.430000 100.275000
v -5.265000 15.430000 109.725000
v -5.265000 15.835000 100.950000
v -5.265000 15.835000 100.275000
v -5.265000 15.835000 101.625000
v -5.265000 15.835000 102.300000
v -5.265000 15.835000 102.975000
v -5.265000 15.835000 103.650000
v -5.265000 15.835000 104.325000
v -5.265000 15.835000 105.000000
v -5.265000 15.835000 105.675000
v -5.265000 15.835000 106.350000
v -5.265000 15.835000 107.025000
v -5.265000 15.835000 107.700000
v -5.265000 15.835000 108.375000
v -5.265000 15.835000 109.050000
v -5.265000 15.835000 109.725000
v -2.632500 10.165000 100.275000
v -2.632500 10.165000 100.950000
v -2.632500 10.570000 100.275000
v -2.632500 10.165000 101.625000
v -2.632500 10.165000 102.300000
v -2.632500 10.165000 102.975000
v -2.632500 10.165000 103.650000
v -2.632500 10.165000 104.325000
v -2.632500 10.165000 105.000000
v -2.632500 10.165000 105.675000
v -2.632500 10.165000 106.350000
v -2.632500 10.165000 107.025000
v -2.632500 10.165000 107.700000
v -2.632500 10.165000 108.375000
v -2.632500 10.165000 109.050000
v -2.632500 10.165000 109.725000
v -2.632500 10.570000 109.725000
v -2.632500 10.975000 100.950000
v -2.632500 10.975000 100.275000
v -2.632500 10.975000 101.625000
v -2.632500 10.975000 109.725000
v -2.632500 11.380000 102.300000
v -2.632500 11.380000 101.625000
v -2.632500 11.380000 102.975000
v -2.632500 11.380000 103.650000
v -2.632500 11.380000 109.725000
v -2.632500 11.785000 104.325000
v -2.632500 11.785000 103.650000
v -2.632500 11.785000 105.000000
v -2.632500 11.785000 105.675000
v -2.632500 11.785000 109.725000
v -2.632500 12.190000 106.350000
v -2.632500 12.190000 105.675000
v -2.632500 12.190000 107.025000
v -2.632500 12.190000 109.725000
v -2.632500 12.595000 107.700000
v -2.632500 12.595000 107.025000
v -2.632500 12.595000 109.725000
v -2.632500 13.000000 107.700000
v -2.632500 13.000000 109.725000
v -2.632500 13.405000 107.700000
v -2.632500 13.405000 109.725000
v -2.632500 13.405000 107.025000
v -2.632500 13.810000 107.025000
v -2.632500 13.810000 109.725000
v -2.632500 13.810000 105.675000
v -2.632500 13.810000 106.350000
v -2.632500 14.215000 105.675000
v -2.632500 14.215000 109.725000
v -2.632500 14.215000 103.650000
v -2.632500 14.215000 104.325000
v -2.632500 14.620000 103.650000
v -2.632500 14.215000 105.000000
v -2.632500 14.620000 109.725000
v -2.632500 14.620000 101.625000
v -2.632500 14.620000 102.300000
v -2.632500 15.025000 101.625000
v -2.632500 14.620000 102.975000
v -2.632500 15.025000 109.725000
v -2.632500 15.025000 100.275000
v -2.632500 15.025000 100.950000
v -2.632500 15.430000 100.275000
v -2.632500 15.430000 109.725000
v -2.632500 15.835000 100.950000
v -2.632500 15.835000 100.275000
v -2.632500 15.835000 101.625000
v -2.632500 15.835000 102.300000
v -2.632500 15.835000 102.975000
v -2.632500 15.835000 103.650000
v -2.632500 15.835000 104.325000
v -2.632500 15.835000 105.000000
v -2.632500 15.835000 105.675000
v -2.632500 15.835000 106.350000
v -2.632500 15.835000 107.025000
v -2.632500 15.835000 107.700000
v -2.632500 15.835000 108.375000
v -2.632500 15.835000 109.050000
v -2.632500 15.835000 109.725000
v -0.000000 10.165000 100.275000
v -0.000000 10.165000 100.950000
v -0.000000 10.570000 100.275000
v -0.000000 10.165000 101.625000
v -0.000000 10.165000 102.300000
v -0.000000 10.165000 102.975000
v -0.000000 10.165000 103.650000
v -0.000000 10.165000 104.325000
v -0.000000 10.165000 105.000000
v -0.000000 10.165000 105.675000
v -0.000000 10.165000 106.350000
v -0.000000 10.165000 107.025000
v -0.000000 10.165000 107.700000
v -0.000000 10.165000 108.375000
v -0.000000 10.165000 109.050000
v -0.000000 10.165000 109.725000
v -0.000000 10.570000 109.725000
v -0.000000 10.975000 100.950000
v -0.000000 10.975000 100.275000
v -0.000000 10.975000 101.625000
v -0.000000 10.975000 109.725000
v -0.000000 11.380000 102.300000
v -0.000000 11.380000 101.625000
v -0.000000 11.380000 102.975000
v -0.000000 11.380000 103.650000
v -0.000000 11.380000 109.725000
v -0.000000 11.785000 104.325000
v -0.000000 11.785000 103.650000
v -0.000000 11.785000 105.000000
v -0.000000 11.785000 105.675000
v -0.000000 11.785000 109.725000
v -0.000000 12.190000 106.350000
v -0.000000 12.190000 105.675000
v -0.000000 12.190000 107.025000
v -0.000000 12.190000 109.725000
v -0.000000 12.595000 107.700000
v -0.000000 12.595000 107.025000
v -0.000000 12.595000 109.725000
v -0.000000 13.000000 107.700000
v -0.000000 13.000000 109.725000
v -0.000000 13.405000 107.700000
v -0.000000 13.405000 109.725000
v -0.000000 13.405000 107.025000
v -0.000000 13.810000 107.025000
v -0.000000 13.810000 109.725000
v -0.000000 13.810000 105.675000
v -0.000000 13.810000 106.350000
v -0.000000 14.215000 105.675000
v -0.000000 14.215000 109.725000
v -0.000000 14.215000 103.650000
v -0.000000 14.215000 104.325000
v -0.000000 14.620000 103.650000
v -0.000000 14.215000 105.000000
v -0.000000 14.620000 109.725000
v -0.000000 14.620000 101.625000
v -0.000000 14.620000 102.300000
v -0.000000 15.025000 101.625000
v -0.000000 14.620000 102.975000
v -0.000000 15.025000 109.725000
v -0.000000 15.025000 100.275000
v -0.000000 15.025000 100.950000
v -0.000000 15.430000 100.275000
v -0.000000 15.430000 109.725000
v -0.000000 15.835000 100.950000
v -0.000000 15.835000 100.275000
v -0.000000 15.835000 101.625000
v -0.000000 15.835000 102.300000
v -0.000000 15.835000 102.975000
v -0.000000 15.835000 103.650000
v -0.000000 15.835000 104.325000
v -0.000000 15.835000 105.000000
v -0.000000 15.835000 105.675000
v -0.000000 15.835000 106.350000
v -0.000000 15.835000 107.025000
v -0.000000 15.835000 107.700000
v -0.000000 15.835000 108.375000
v -0.000000 15.835000 109.050000
v -0.000000 15.835000 109.725000
v 2.632500 10.165000 100.275000
v 2.632500 10.165000 100.950000
v 2.632500 10.570000 100.275000
v 2.632500 10.165000 101.625000
v 2.632500 10.165000 102.300000
v 2.632500 10.165000 102.975000
v 2.632500 10.165000 103.650000
v 2.632500 10.165000 104.325000
v 2.632500 10.165000 105.000000
v 2.632500 10.165000 105.675000
v 2.632500 10.165000 106.350000
v 2.632500 10.165000 107.025000
v 2.632500 10.165000 107.700000
v 2.632500 10.165000 108.375000
v 2.632500 10.165000 109.050000
v 2.632500 10.165000 109.725000
v 2.632500 10.570000 109.725000
v 2.632500 10.975000 100.950000
v 2.632500 10.975000 100.275000
v 2.632500 10.975000 101.625000
v 2.632500 10.975000 109.725000
v 2.632500 11.380000 102.300000
v 2.632500 11.380000 101.625000
v 2.632500 11.380000 102.975000
v 2.632500 11.380000 103.650000
v 2.632500 11.380000 109.725000
v 2.632500 11.785000 104.325000
v 2.632500 11.785000 103.650000
v 2.632500 11.785000 105.000000
v 2.632500 11.785000 105.675000
v 2.632500 11.785000 109.725000
v 2.632500 12.190000 106.350000
v 2.632500 12.190000 105.675000
v 2.632500 12.190000 107.025000
v 2.632500 12.190000 109.725000
v 2.632500 12.595000 107.700000
v 2.632500 12.595000 107.025000
v 2.632500 12.595000 109.725000
v 2.632500 13.000000 107.700000
v 2.632500 13.000000 109.725000
v 2.632500 13.405000 107.700000
v 2.632500 13.405000 109.725000
v 2.632500 13.405000 107.025000
v 2.632500 13.810000 107.025000
v 2.632500 13.810000 109.725000
v 2.632500 13.810000 105.675000
v 2.632500 13.810000 106.350000
v 2.632500 14.215000 105.675000
v 2.632500 14.215000 109.725000
v 2.632500 14.215000 103.650000
v 2.632500 14.215000 104.325000
v 2.632500 14.620000 103.650000
v 2.632500 14.215000 105.000000
v 2.632500 14.620000 109.725000
v 2.632500 14.620000 101.625000
v 2.632500 14.620000 102.300000
v 2.632500 15.025000 101.625000
v 2.632500 14.620000 102.975000
v 2.632500 15.025000 109.725000
v 2.632500 15.025000 100.275000
v 2.632500 15.025000 100.950000
v 2.632500 15.430000 100.275000
v 2.632500 15.430000 109.725000
v 2.632500 15.835000 100.950000
v 2.632500 15.835000 100.275000
v 2.632500 15.835000 101.625000
v 2.632500 15.835000 102.300000
v 2.632500 15.835000 102.975000
v 2.632500 15.835000 103.650000
v 2.632500 15.835000 104.325000
v 2.632500 15.835000 105.000000
v 2.632500 15.835000 105.675000
v 2.632500 15.835000 106.350000
v 2.632500 15.835000 107.025000
v 2.632500 15.835000 107.700000
v 2.632500 15.835000 108.375000
v 2.632500 15.835000 109.050000
v 2.632500 15.835000 109.725000
v 5.265000 10.165000 100.275000
v 5.265000 10.165000 100.950000
v 5.265000 10.570000 100.275000
v 5.265000 10.165000 101.625000
v 5.265000 10.165000 102.300000
v 5.265000 10.165000 102.975000
v 5.265000 10.165000 103.650000
v 5.265000 10.165000 104.325000
v 5.265000 10.165000 105.000000
v 5.265000 10.165000 105.675000
v 5.265000 10.165000 106.350000
v 5.265000 10.165000 107.025000
v 5.265000 10.165000 107.700000
v 5.265000 10.165000 108.375000
v 5.265000 10.165000 109.050000
v 5.265000 10.165000 109.725000
v 5.265000 10.570000 109.725000
v 5.265000 10.975000 100.950000
v 5.265000 10.975000 100.275000
v 5.265000 10.975000 101.625000
v 5.265000 10.975000 109.725000
v 5.265000 11.380000 102.300000
v 5.265000 11.380000 101.625000
v 5.265000 11.380000 102.975000
v 5.265000 11.380000 103.650000
v 5.265000 11.380000 109.725000
v 5.265000 11.785000 104.325000
v 5.265000 11.785000 103.650000
v 5.265000 11.785000 105.000000
v 5.265000 11.785000 105.675000
v 5.265000 11.785000 109.725000
v 5.265000 12.190000 106.350000
v 5.265000 12.190000 105.675000
v 5.265000 12.190000 107.025000
v 5.265000 12.190000 109.725000
v 5.265000 12.595000 107.700000
v 5.265000 12.595000 107.025000
v 5.265000 12.595000 109.725000
v 5.265000 13.000000 107.700000
v 5.265000 13.000000 109.725000
v 5.265000 13.405000 107.700000
v 5.265000 13.405000 109.725000
v 5.265000 13.405000 107.025000
v 5.265000 13.810000 107.025000
v 5.265000 13.810000 109.725000
v 5.265000 13.810000 105.675000
v 5.265000 13.810000 106.350000
v 5.265000 14.215000 105.675000
v 5.265000 14.215000 109.725000
v 5.265000 14.215000 103.650000
v 5.265000 14.215000 104.325000
v 5.265000 14.620000 103.650000
v 5.265000 14.215000 105.000000
v 5.265000 14.620000 109.725000
v 5.265000 14.620000 101.625000
v 5.265000 14.620000 102.300000
v 5.265000 15.025000 101.625000
v 5.265000 14.620000 102.975000
v 5.265000 15.025000 109.725000
v 5.265000 15.025000 100.275000
v 5.265000 15.025000 100.950000
v 5.265000 15.430000 100.275000
v 5.265000 15.430000 109.725000
v 5.265000 15.835000 100.950000
v 5.265000 15.835000 100.275000
v 5.265000 15.835000 101.625000
v 5.265000 15.835000 102.300000
v 5.265000 15.835000 102.975000
v 5.265000 15.835000 103.650000
v 5.265000 15.835000 104.325000
v 5.265000 15.835000 105.000000
v 5.265000 15.835000 105.675000
v 5.265000 15.835000 106.350000
v 5.265000 15.835000 107.025000
v 5.265000 15.835000 107.700000
v 5.265000 15.835000 108.375000
v 5.265000 15.835000 109.050000
v 5.265000 15.835000 109.725000
v 7.897500 10.165000 100.275000
v 7.897500 10.165000 100.950000
v 7.897500 10.570000 100.275000
v 7.897500 10.165000 101.625000
v 7.897500 10.165000 102.300000
v 7.897500 10.165000 102.975000
v 7.897500 10.165000 103.650000
v 7.897500 10.165000 104.325000
v 7.897500 10.165000 105.000000
v 7.897500 10.165000 105.675000
v 7.897500 10.165000 106.350000
v 7.897500 10.165000 107.025000
v 7.897500 10.165000 107.700000
v 7.897500 10.165000 108.375000
v 7.897500 10.165000 109.050000
v 7.897500 10.165000 109.725000
v 7.897500 10.570000 109.725000
v 7.897500 10.975000 100.950000
v 7.897500 10.975000 100.275000
v 7.897500 10.975000 101.625000
v 7.897500 10.975000 109.725000
v 7.897500 11.380000 102.300000
v 7.897500 11.380000 101.625000
v 7.897500 11.380000 102.975000
v 7.897500 11.380000 103.650000
v 7.897500 11.380000 109.725000
v 7.897500 11.785000 104.325000
v 7.897500 11.785000 103.650000
v 7.897500 11.785000 105.000000
v 7.897500 11.785000 105.675000
v 7.897500 11.785000 109.725000
v 7.897500 12.190000 106.350000
v 7.897500 12.190000 105.675000
v 7.897500 12.190000 107.025000
v 7.897500 12.190000 109.725000
v 7.897500 12.595000 107.700000
v 7.897500 12.595000 107.025000
v 7.897500 12.595000 109.725000
v 7.897500 13.000000 107.700000
v 7.897500 13.000000 109.725000
v 7.897500 13.405000 107.700000
v 7.897500 13.405000 109.725000
v 7.897500 13.405000 107.025000
v 7.897500 13.810000 107.025000
v 7.897500 13.810000 109.725000
v 7.897500 13.810000 105.675000
v 7.897500 13.810000 106.350000
v 7.897500 14.215000 105.675000
v 7.897500 14.215000 109.725000
v 7.897500 14.215000 103.650000
v 7.897500 14.215000 104.325000
v 7.897500 14.620000 103.650000
v 7.897500 14.215000 105.000000
v 7.897500 14.620000 109.725000
v 7.897500 14.620000 101.625000
v 7.897500 14.620000 102.300000
v 7.897500 15.025000 101.625000
v 7.897500 14.620000 102.975000
v 7.897500 15.025000 109.725000
v 7.897500 15.025000 100.275000
v 7.897500 15.025000 100.950000
v 7.897500 15.430000 100.275000
v 7.897500 15.430000 109.725000
v 7.897500 15.835000 100.950000
v 7.897500 15.835000 100.275000
v 7.897500 15.835000 101.625000
v 7.897500 15.835000 102.300000
v 7.897500 15.835000 102.975000
v 7.897500 15.835000 103.650000
v 7.897500 15.835000 104.325000
v 7.897500 15.835000 105.000000
v 7.897500 15.835000 105.675000
v 7.897500 15.835000 106.350000
v 7.897500 15.835000 107.025000
v 7.897500 15.835000 107.700000
v 7.897500 15.835000 108.375000
v 7.897500 15.835000 109.050000
v 7.897500 15.835000 109.725000
v 10.530000 10.165000 100.275000
v 10.530000 10.165000 100.950000
v 10.530000 10.570000 100.275000
v 10.530000 10.165000 101.625000
v 10.530000 10.165000 102.300000
v 10.530000 10.165000 102.975000
v 10.530000 10.165000 103.650000
v 10.530000 10.165000 104.325000
v 10.530000 10.165000 105.000000
v 10.530000 10.165000 105.675000
v 10.530000 10.165000 106.350000
v 10.530000 10.165000 107.025000
v 10.530000 10.165000 107.700000
v 10.530000 10.165000 108.375000
v 10.530000 10.165000 109.050000
v 10.530000 10.165000 109.725000
v 10.530000 10.570000 109.725000
v 10.530000 10.975000 100.950000
v 10.530000 10.975000 100.275000
v 10.530000 10.975000 101.625000
v 10.530000 10.975000 109.725000
v 10.530000 11.380000 102.300000
v 10.530000 11.380000 101.625000
v 10.530000 11.380000 102.975000
v 10.530000 11.380000 103.650000
v 10.530000 11.380000 109.725000
v 10.530000 11.785000 104.325000
v 10.530000 11.785000 103.650000
v 10.530000 11.785000 105.000000
v 10.530000 11.785000 105.675000
v 10.530000 11.785000 109.725000
v 10.530000 12.190000 106.350000
v 10.530000 12.190000 105.675000
v 10.530000 12.190000 107.025000
v 10.530000 12.190000 109.725000
v 10.530000 12.595000 107.700000
v 10.530000 12.595000 107.025000
v 10.530000 12.595000 109.725000
v 10.530000 13.000000 107.700000
v 10.530000 13.000000 109.725000
v 10.530000 13.405000 107.700000
v 10.530000 13.405000 109.725000
v 10.530000 13.405000 107.025000
v 10.530000 13.810000 107.025000
v 10.530000 13.810000 109.725000
v 10.530000 13.810000 105.675000
v 10.530000 13.810000 106.350000
v 10.530000 14.215000 105.675000
v 10.530000 14.215000 109.725000
v 10.530000 14.215000 103.650000
v 10.530000 14.215000 104.325000
v 10.530000 14.620000 103.650000
v 10.530000 14.215000 105.000000
v 10.530000 14.620000 109.725000
v 10.530000 14.620000 101.625000
v 10.530000 14.620000 102.300000
v 10.530000 15.025000 101.625000
v 10.530000 14.620000 102.975000
v 10.530000 15.025000 109.725000
v 10.530000 15.025000 100.275000
v 10.530000 15.025000 100.950000
v 10.530000 15.430000 100.275000
v 10.530000 15.430000 109.725000
v 10.530000 15.835000 100.950000
v 10.530000 15.835000 100.275000
v 10.530000 15.835000 101.625000
v 10.530000 15.835000 102.300000
v 10.530000 15.835000 102.975000
v 10.530000 15.835000 103.650000
v 10.530000 15.835000 104.325000
v 10.530000 15.835000 105.000000
v 10.530000 15.835000 105.675000
v 10.530000 15.835000 106.350000
v 10.530000 15.835000 107.025000
v 10.530000 15.835000 107.700000
v 10.530000 15.835000 108.375000
v 10.530000 15.835000 109.050000
v 10.530000 15.835000 109.725000
v 13.162500 10.165000 100.275000
v 13.162500 10.165000 100.950000
v 13.162500 10.570000 100.275000
v 13.162500 10.165000 101.625000
v 13.162500 10.165000 102.300000
v 13.162500 10.165000 102.975000
v 13.162500 10.165000 103.650000
v 13.162500 10.165000 104.325000
v 13.162500 10.165000 105.000000
v 13.162500 10.165000 105.675000
v 13.162500 10.165000 106.350000
v 13.162500 10.165000 107.025000
v 13.162500 10.165000 107.700000
v 13.162500 10.165000 108.375000
v 13.162500 10.165000 109.050000
v 13.162500 10.165000 109.725000
v 13.162500 10.570000 109.725000
v 13.162500 10.975000 100.950000
v 13.162500 10.975000 100.275000
v 13.162500 10.975000 101.625000
v 13.162500 10.975000 109.725000
v 13.162500 11.380000 102.300000
v 13.162500 11.380000 101.625000
v 13.162500 11.380000 102.975000
v 13.162500 11.380000 103.650000
v 13.162500 11.380000 109.725000
v 13.162500 11.785000 104.325000
v 13.162500 11.785000 103.650000
v 13.162500 11.785000 105.000000
v 13.162500 11.785000 105.675000
v 13.162500 11.785000 109.725000
v 13.162500 12.190000 106.350000
v 13.162500 12.190000 105.675000
v 13.162500 12.190000 107.025000
v 13.162500 12.190000 109.725000
v 13.162500 12.595000 107.700000
v 13.162500 12.595000 107.025000
v 13.162500 12.595000 109.725000
v 13.162500 13.000000 107.700000
v 13.162500 13.000000 109.725000
v 13.162500 13.405000 107.700000
v 13.162500 13.405000 109.725000
v 13.162500 13.405000 107.025000
v 13.162500 13.810000 107.025000
v 13.162500 13.810000 109.725000
v 13.162500 13.810000 105.675000
v 13.162500 13.810000 106.350000
v 13.162500 14.215000 105.675000
v 13.162500 14.215000 109.725000
v 13.162500 14.215000 103.650000
v 13.162500 14.215000 104.325000
v 13.162500 14.620000 103.650000
v 13.162500 14.215000 105.000000
v 13.162500 14.620000 109.725000
v 13.162500 14.620000 101.625000
v 13.162500 14.620000 102.300000
v 13.162500 15.025000 101.625000
v 13.162500 14.620000 102.975000
v 13.162500 15.025000 109.725000
v 13.162500 15.025000 100.275000
v 13.162500 15.025000 100.950000
v 13.162500 15.430000 100.275000
v 13.162500 15.430000 109.725000
v 13.162500 15.835000 100.950000
v 13.162500 15.835000 100.275000
v 13.162500 15.835000 101.625000
v 13.162500 15.835000 102.300000
v 13.162500 15.835000 102.975000
v 13.162500 15.835000 103.650000
v 13.162500 15.835000 104.325000
v 13.162500 15.835000 105.000000
v 13.162500 15.835000 105.675000
v 13.162500 15.835000 106.350000
v 13.162500 15.835000 107.025000
v 13.162500 15.835000 107.700000
v 13.162500 15.835000 108.375000
v 13.162500 15.835000 109.050000
v 13.162500 15.835000 109.725000
v 15.795000 10.165000 100.275000
v 15.795000 10.165000 100.950000
v 15.795000 10.570000 100.275000
v 15.795000 10.165000 101.625000
v 15.795000 10.165000 102.300000
v 15.795000 10.165000 102.975000
v 15.795000 10.165000 103.650000
v 15.795000 10.165000 104.325000
v 15.795000 10.165000 105.000000
v 15.795000 10.165000 105.675000
v 15.795000 10.165000 106.350000
v 15.795000 10.165000 107.025000
v 15.795000 10.165000 107.700000
v 15.795000 10.165000 108.375000
v 15.795000 10.165000 109.050000
v 15.795000 10.165000 109.725000
v 15.795000 10.570000 109.725000
v 15.795000 10.975000 100.950000
v 15.795000 10.975000 100.275000
v 15.795000 10.975000 101.625000
v 15.795000 10.975000 109.725000
v 15.795000 11.380000 102.300000
v 15.795000 11.380000 101.625000
v 15.795000 11.380000 102.975000
v 15.795000 11.380000 103.650000
v 15.795000 11.380000 109.725000
v 15.795000 11.785000 104.325000
v 15.795000 11.785000 103.650000
v 15.795000 11.785000 105.000000
v 15.795000 11.785000 105.675000
v 15.795000 11.785000 109.725000
v 15.795000 12.190000 106.350000
v 15.795000 12.190000 105.675000
v 15.795000 12.190000 107.025000
v 15.795000 12.190000 109.725000
v 15.795000 12.595000 107.700000
v 15.795000 12.595000 107.025000
v 15.795000 12.595000 109.725000
v 15.795000 13.000000 107.700000
v 15.795000 13.000000 109.725000
v 15.795000 13.405000 107.700000
v 15.795000 13.405000 109.725000
v 15.795000 13.405000 107.025000
v 15.795000 13.810000 107.025000
v 15.795000 13.810000 109.725000
v 15.795000 13.810000 105.675000
v 15.795000 13.810000 106.350000
v 15.795000 14.215000 105.675000
v 15.795000 14.215000 109.725000
v 15.795000 14.215000 103.650000
v 15.795000 14.215000 104.325000
v 15.795000 14.620000 103.650000
v 15.795000 14.215000 105.000000
v 15.795000 14.620000 109.725000
v 15.795000 14.620000 101.625000
v 15.795000 14.620000 102.300000
v 15.795000 15.025000 101.625000
v 15.795000 14.620000 102.975000
v 15.795000 15.025000 109.725000
v 15.795000 15.025000 100.275000
v 15.795000 15.025000 100.950000
v 15.795000 15.430000 100.275000
v 15.795000 15.430000 109.725000
v 15.795000 15.835000 100.950000
v 15.795000 15.835000 100.275000
v 15.795000 15.835000 101.625000
v 15.795000 15.835000 102.300000
v 15.795000 15.835000 102.975000
v 15.795000 15.835000 103.650000
v 15.795000 15.835000 104.325000
v 15.795000 15.835000 105.000000
v 15.795000 15.835000 105.675000
v 15.795000 15.835000 106.350000
v 15.795000 15.835000 107.025000
v 15.795000 15.835000 107.700000
v 15.795000 15.835000 108.375000
v 15.795000 15.835000 109.050000
v 15.795000 15.835000 109.725000
v 18.427500 10.165000 100.275000
v 18.427500 10.165000 100.950000
v 18.427500 10.570000 100.950000
v 18.427500 10.570000 100.275000
v 18.427500 10.165000 101.625000
v 18.427500 10.570000 101.625000
v 18.427500 10.165000 102.300000
v 18.427500 10.570000 102.300000
v 18.427500 10.165000 102.975000
v 18.427500 10.570000 102.975000
v 18.427500 10.165000 103.650000
v 18.427500 10.570000 103.650000
v 18.427500 10.165000 104.325000
v 18.427500 10.570000 104.325000
v 18.427500 10.165000 105.000000
v 18.427500 10.570000 105.000000
v 18.427500 10.165000 105.675000
v 18.427500 10.570000 105.675000
v 18.427500 10.165000 106.350000
v 18.427500 10.570000 106.350000
v 18.427500 10.165000 107.025000
v 18.427500 10.570000 107.025000
v 18.427500 10.165000 107.700000
v 18.427500 10.570000 107.700000
v 18.427500 10.165000 108.375000
v 18.427500 10.570000 108.375000
v 18.427500 10.165000 109.050000
v 18.427500 10.570000 109.050000
v 18.427500 10.165000 109.725000
v 18.427500 10.570000 109.725000
v 18.427500 10.975000 100.950000
v 18.427500 10.975000 100.275000
v 18.427500 10.975000 101.625000
v 18.427500 10.975000 102.300000
v 18.427500 10.975000 102.975000
v 18.427500 10.975000 103.650000
v 18.427500 10.975000 104.325000
v 18.427500 10.975000 105.000000
v 18.427500 10.975000 105.675000
v 18.427500 10.975000 106.350000
v 18.427500 10.975000 107.025000
v 18.427500 10.975000 107.700000
v 18.427500 10.975000 108.375000
v 18.427500 10.975000 109.050000
v 18.427500 10.975000 109.725000
v 18.427500 11.380000 102.300000
v 18.427500 11.380000 101.625000
v 18.427500 11.380000 102.975000
v 18.427500 11.380000 103.650000
v 18.427500 11.380000 104.325000
v 18.427500 11.380000 105.000000
v 18.427500 11.380000 105.675000
v 18.427500 11.380000 106.350000
v 18.427500 11.380000 107.025000
v 18.427500 11.380000 107.700000
v 18.427500 11.380000 108.375000
v 18.427500 11.380000 109.050000
v 18.427500 11.380000 109.725000
v 18.427500 11.785000 104.325000
v 18.427500 11.785000 103.650000
v 18.427500 11.785000 105.000000
v 18.427500 11.785000 105.675000
v 18.427500 11.785000 106.350000
v 18.427500 11.785000 107.025000
v 18.427500 11.785000 107.700000
v 18.427500 11.785000 108.375000
v 18.427500 11.785000 109.050000
v 18.427500 11.785000 109.725000
v 18.427500 12.190000 106.350000
v 18.427500 12.190000 105.675000
v 18.427500 12.190000 107.025000
v 18.427500 12.190000 107.700000
v 18.427500 12.190000 108.375000
v 18.427500 12.190000 109.050000
v 18.427500 12.190000 109.725000
v 18.427500 12.595000 107.700000
v 18.427500 12.595000 107.025000
v 18.427500 12.595000 108.375000
v 18.427500 12.595000 109.050000
v 18.427500 12.595000 109.725000
v 18.427500 13.000000 108.375000
v 18.427500 13.000000 107.700000
v 18.427500 13.000000 109.050000
v 18.427500 13.000000 109.725000
v 18.427500 13.405000 108.375000
v 18.427500 13.405000 107.700000
v 18.427500 13.405000 109.050000
v 18.427500 13.405000 109.725000
v 18.427500 13.405000 107.025000
v 18.427500 13.810000 107.700000
v 18.427500 13.810000 107.025000
v 18.427500 13.810000 108.375000
v 18.427500 13.810000 109.050000
v 18.427500 13.810000 109.725000
v 18.427500 13.810000 105.675000
v 18.427500 13.810000 106.350000
v 18.427500 14.215000 106.350000
v 18.427500 14.215000 105.675000
v 18.427500 14.215000 107.025000
v 18.427500 14.215000 107.700000
v 18.427500 14.215000 108.375000
v 18.427500 14.215000 109.050000
v 18.427500 14.215000 109.725000
v 18.427500 14.215000 103.650000
v 18.427500 14.215000 104.325000
v 18.427500 14.620000 104.325000
v 18.427500 14.620000 103.650000
v 18.427500 14.215000 105.000000
v 18.427500 14.620000 105.000000
v 18.427500 14.620000 105.675000
v 18.427500 14.620000 106.350000
v 18.427500 14.620000 107.025000
v 18.427500 14.620000 107.700000
v 18.427500 14.620000 108.375000
v 18.427500 14.620000 109.050000
v 18.427500 14.620000 109.725000
v 18.427500 14.620000 101.625000
v 18.427500 14.620000 102.300000
v 18.427500 15.025000 102.300000
v 18.427500 15.025000 101.625000
v 18.427500 14.620000 102.975000
v 18.427500 15.025000 102.975000
v 18.427500 15.025000 103.650000
v 18.427500 15.025000 104.325000
v 18.427500 15.025000 105.000000
v 18.427500 15.025000 105.675000
v 18.427500 15.025000 106.350000
v 18.427500 15.025000 107.025000
v 18.427500 15.025000 107.700000
v 18.427500 15.025000 108.375000
v 18.427500 15.025000 109.050000
v 18.427500 15.025000 109.725000
v 18.427500 15.025000 100.275000
v 18.427500 15.025000 100.950000
v 18.427500 15.430000 100.950000
v 18.427500 15.430000 100.275000
v 18.427500 15.430000 101.625000
v 18.427500 15.430000 102.300000
v 18.427500 15.430000 102.975000
v 18.427500 15.430000 103.650000
v 18.427500 15.430000 104.325000
v 18.427500 15.430000 105.000000
v 18.427500 15.430000 105.675000
v 18.427500 15.430000 106.350000
v 18.427500 15.430000 107.025000
v 18.427500 15.430000 107.700000
v 18.427500 15.430000 108.375000
v 18.427500 15.430000 109.050000
v 18.427500 15.430000 109.725000
v 18.427500 15.835000 100.950000
v 18.427500 15.835000 100.275000
v 18.427500 15.835000 101.625000
v 18.427500 15.835000 102.300000
v 18.427500 15.835000 102.975000
v 18.427500 15.835000 103.650000
v 18.427500 15.835000 104.325000
v 18.427500 15.835000 105.000000
v 18.427500 15.835000 105.675000
v 18.427500 15.835000 106.350000
v 18.427500 15.835000 107.025000
v 18.427500 15.835000 107.700000
v 18.427500 15.835000 108.375000
v 18.427500 15.835000 109.050000
v 18.427500 15.835000 109.725000
f 1 2 3
f 1 3 4
f 1 5 6
f 1 6 4
f 1 2 7
f 1 7 5
f 4 3 8
f 4 8 9
f 4 6 10
f 4 10 9
f 9 8 11
f 9 11 12
f 9 10 13
f 9 13 12
f 12 11 14
f 12 14 15
f 12 13 16
f 12 16 15
f 15 14 17
f 15 17 18
f 15 16 19
f 15 19 18
f 18 17 20
f 18 20 21
f 18 19 22
f 18 22 21
f 21 20 23
f 21 23 24
f 21 22 25
f 21 25 24
f 24 23 26
f 24 26 27
f 24 25 28
f 24 28 27
f 27 26 29
f 27 29 30
f 27 28 31
f 27 31 30
f 30 29 32
f 30 32 33
f 30 31 34
f 30 34 33
f 33 32 35
f 33 35 36
f 33 34 37
f 33 37 36
f 36 35 38
f 36 38 39
f 36 37 40
f 36 40 39
f 39 38 41
f 39 41 42
f 39 40 43
f 39 43 42
f 42 41 44
f 42 44 45
f 42 43 46
f 42 46 45
f 45 46 47
f 45 47 44
f 2 48 49
f 2 49 3
f 48 49 50
f 48 50 51
f 2 48 51
f 2 51 7
f 3 49 52
f 3 52 8
f 49 52 53
f 49 53 50
f 8 52 54
f 8 54 11
f 11 54 55
f 11 55 14
f 14 55 56
f 14 56 17
f 17 56 57
f 17 57 20
f 20 57 58
f 20 58 23
f 23 58 59
f 23 59 26
f 26 59 60
f 26 60 29
f 29 60 61
f 29 61 32
f 32 61 62
f 32 62 35
f 35 62 63
f 35 63 38
f 38 63 64
f 38 64 41
f 41 64 65
f 41 65 44
f 44 47 66
f 44 66 65
f 52 67 68
f 52 68 54
f 67 68 69
f 67 69 70
f 52 67 70
f 52 70 53
f 54 68 71
f 54 71 55
f 68 71 72
f 68 72 69
f 55 71 73
f 55 73 56
f 71 73 74
f 71 74 72
f 56 73 75
f 56 75 57
f 57 75 76
f 57 76 58
f 58 76 77
f 58 77 59
f 59 77 78
f 59 78 60
f 60 78 79
f 60 79 61
f 61 79 80
f 61 80 62
f 62 80 81
f 62 81 63
f 63 81 82
f 63 82 64
f 64 82 83
f 64 83 65
f 65 66 84
f 65 84 83
f 73 85 86
f 73 86 75
f 85 86 87
f 85 87 88
f 73 85 88
f 73 88 74
f 75 86 89
f 75 89 76
f 86 89 90
f 86 90 87
f 76 89 91
f 76 91 77
f 89 91 92
f 89 92 90
f 77 91 93
f 77 93 78
f 78 93 94
f 78 94 79
f 79 94 95
f 79 95 80
f 80 95 96
f 80 96 81
f 81 96 97
f 81 97 82
f 82 97 98
f 82 98 83
f 83 84 99
f 83 99 98
f 91 100 101
f 91 101 93
f 100 101 102
f 100 102 103
f 91 100 103
f 91 103 92
f 93 101 104
f 93 104 94
f 101 104 105
f 101 105 102
f 94 104 106
f 94 106 95
f 95 106 107
f 95 107 96
f 96 107 108
f 96 108 97
f 97 108 109
f 97 109 98
f 98 99 110
f 98 110 109
f 104 111 112
f 104 112 106
f 111 112 113
f 111 113 114
f 104 111 114
f 104 114 105
f 106 112 115
f 106 115 107
f 107 115 116
f 107 116 108
f 108 116 117
f 108 117 109
f 109 110 118
f 109 118 117
f 112 119 120
f 112 120 115
f 112 119 121
f 112 121 113
f 115 120 122
f 115 122 116
f 116 122 123
f 116 123 117
f 117 118 124
f 117 124 123
f 119 125 126
f 119 126 120
f 119 125 127
f 119 127 121
f 120 126 128
f 120 128 122
f 122 128 129
f 122 129 123
f 123 124 130
f 123 130 129
f 131 132 133
f 131 133 125
f 131 134 127
f 131 127 125
f 131 132 135
f 131 135 134
f 125 133 136
f 125 136 126
f 126 136 137
f 126 137 128
f 128 137 138
f 128 138 129
f 129 130 139
f 129 139 138
f 140 141 142
f 140 142 143
f 140 144 145
f 140 145 143
f 140 141 146
f 140 146 144
f 143 142 147
f 143 147 132
f 143 145 135
f 143 135 132
f 132 147 148
f 132 148 133
f 133 148 149
f 133 149 136
f 136 149 150
f 136 150 137
f 137 150 151
f 137 151 138
f 138 139 152
f 138 152 151
f 153 154 155
f 153 155 156
f 153 157 158
f 153 158 156
f 153 154 159
f 153 159 157
f 156 155 160
f 156 160 161
f 156 158 162
f 156 162 161
f 161 160 163
f 161 163 141
f 161 162 146
f 161 146 141
f 141 163 164
f 141 164 142
f 142 164 165
f 142 165 147
f 147 165 166
f 147 166 148
f 148 166 167
f 148 167 149
f 149 167 168
f 149 168 150
f 150 168 169
f 150 169 151
f 151 152 170
f 151 170 169
f 171 172 173
f 171 173 174
f 171 175 176
f 171 176 174
f 171 172 177
f 171 177 175
f 174 173 178
f 174 178 179
f 174 176 180
f 174 180 179
f 179 178 181
f 179 181 154
f 179 180 159
f 179 159 154
f 154 181 182
f 154 182 155
f 155 182 183
f 155 183 160
f 160 183 184
f 160 184 163
f 163 184 185
f 163 185 164
f 164 185 186
f 164 186 165
f 165 186 187
f 165 187 166
f 166 187 188
f 166 188 167
f 167 188 189
f 167 189 168
f 168 189 190
f 168 190 169
f 169 170 191
f 169 191 190
f 192 193 194
f 192 194 195
f 192 196 197
f 192 197 195
f 192 193 198
f 192 198 196
f 195 194 199
f 195 199 172
f 195 197 177
f 195 177 172
f 172 199 200
f 172 200 173
f 173 200 201
f 173 201 178
f 178 201 202
f 178 202 181
f 181 202 203
f 181 203 182
f 182 203 204
f 182 204 183
f 183 204 205
f 183 205 184
f 184 205 206
f 184 206 185
f 185 206 207
f 185 207 186
f 186 207 208
f 186 208 187
f 187 208 209
f 187 209 188
f 188 209 210
f 188 210 189
f 189 210 211
f 189 211 190
f 190 191 212
f 190 212 211
f 193 213 214
f 193 214 194
f 213 214 215
f 213 215 216
f 193 213 216
f 193 216 198
f 194 214 217
f 194 217 199
f 214 217 218
f 214 218 215
f 199 217 219
f 199 219 200
f 217 219 220
f 217 220 218
f 200 219 221
f 200 221 201
f 219 221 222
f 219 222 220
f 201 221 223
f 201 223 202
f 221 223 224
f 221 224 222
f 202 223 225
f 202 225 203
f 223 225 226
f 223 226 224
f 203 225 227
f 203 227 204
f 225 227 228
f 225 228 226
f 204 227 229
f 204 229 205
f 227 229 230
f 227 230 228
f 205 229 231
f 205 231 206
f 229 231 232
f 229 232 230
f 206 231 233
f 206 233 207
f 231 233 234
f 231 234 232
f 207 233 235
f 207 235 208
f 233 235 236
f 233 236 234
f 208 235 237
f 208 237 209
f 235 237 238
f 235 238 236
f 209 237 239
f 209 239 210
f 237 239 240
f 237 240 238
f 210 239 241
f 210 241 211
f 239 241 242
f 239 242 240
f 211 212 242
f 211 242 241
f 5 243 244
f 5 244 6
f 5 7 245
f 5 245 243
f 6 244 246
f 6 246 10
f 10 246 247
f 10 247 13
f 13 247 248
f 13 248 16
f 16 248 249
f 16 249 19
f 19 249 250
f 19 250 22
f 22 250 251
f 22 251 25
f 25 251 252
f 25 252 28
f 28 252 253
f 28 253 31
f 31 253 254
f 31 254 34
f 34 254 255
f 34 255 37
f 37 255 256
f 37 256 40
f 40 256 257
f 40 257 43
f 43 257 258
f 43 258 46
f 46 258 259
f 46 259 47
f 51 50 260
f 51 260 261
f 7 51 261
f 7 261 245
f 50 53 262
f 50 262 260
f 47 259 263
f 47 263 66
f 70 69 264
f 70 264 265
f 53 70 265
f 53 265 262
f 69 72 266
f 69 266 264
f 72 74 267
f 72 267 266
f 66 263 268
f 66 268 84
f 88 87 269
f 88 269 270
f 74 88 270
f 74 270 267
f 87 90 271
f 87 271 269
f 90 92 272
f 90 272 271
f 84 268 273
f 84 273 99
f 103 102 274
f 103 274 275
f 92 103 275
f 92 275 272
f 102 105 276
f 102 276 274
f 99 273 277
f 99 277 110
f 114 113 278
f 114 278 279
f 105 114 279
f 105 279 276
f 110 277 280
f 110 280 118
f 113 121 281
f 113 281 278
f 118 280 282
f 118 282 124
f 121 127 283
f 121 283 281
f 124 282 284
f 124 284 130
f 134 285 283
f 134 283 127
f 134 135 286
f 134 286 285
f 130 284 287
f 130 287 139
f 144 288 289
f 144 289 145
f 144 146 290
f 144 290 288
f 145 289 286
f 145 286 135
f 139 287 291
f 139 291 152
f 157 292 293
f 157 293 158
f 157 159 294
f 157 294 292
f 158 293 295
f 158 295 162
f 162 295 290
f 162 290 146
f 152 291 296
f 152 296 170
f 175 297 298
f 175 298 176
f 175 177 299
f 175 299 297
f 176 298 300
f 176 300 180
f 180 300 294
f 180 294 159
f 170 296 301
f 170 301 191
f 196 302 303
f 196 303 197
f 196 198 304
f 196 304 302
f 197 303 299
f 197 299 177
f 191 301 305
f 191 305 212
f 216 215 306
f 216 306 307
f 198 216 307
f 198 307 304
f 215 218 308
f 215 308 306
f 218 220 309
f 218 309 308
f 220 222 310
f 220 310 309
f 222 224 311
f 222 311 310
f 224 226 312
f 224 312 311
f 226 228 313
f 226 313 312
f 228 230 314
f 228 314 313
f 230 232 315
f 230 315 314
f 232 234 316
f 232 316 315
f 234 236 317
f 234 317 316
f 236 238 318
f 236 318 317
f 238 240 319
f 238 319 318
f 240 242 320
f 240 320 319
f 212 305 320
f 212 320 242
f 243 321 322
f 243 322 244
f 243 245 323
f 243 323 321
f 244 322 324
f 244 324 246
f 246 324 325
f 246 325 247
f 247 325 326
f 247 326 248
f 248 326 327
f 248 327 249
f 249 327 328
f 249 328 250
f 250 328 329
f 250 329 251
f 251 329 330
f 251 330 252
f 252 330 331
f 252 331 253
f 253 331 332
f 253 332 254
f 254 332 333
f 254 333 255
f 255 333 334
f 255 334 256
f 256 334 335
f 256 335 257
f 257 335 336
f 257 336 258
f 258 336 337
f 258 337 259
f 261 260 338
f 261 338 339
f 245 261 339
f 245 339 323
f 260 262 340
f 260 340 338
f 259 337 341
f 259 341 263
f 265 264 342
f 265 342 343
f 262 265 343
f 262 343 340
f 264 266 344
f 264 344 342
f 266 267 345
f 266 345 344
f 263 341 346
f 263 346 268
f 270 269 347
f 270 347 348
f 267 270 348
f 267 348 345
f 269 271 349
f 269 349 347
f 271 272 350
f 271 350 349
f 268 346 351
f 268 351 273
f 275 274 352
f 275 352 353
f 272 275 353
f 272 353 350
f 274 276 354
f 274 354 352
f 273 351 355
f 273 355 277
f 279 278 356
f 279 356 357
f 276 279 357
f 276 357 354
f 277 355 358
f 277 358 280
f 278 281 359
f 278 359 356
f 280 358 360
f 280 360 282
f 281 283 361
f 281 361 359
f 282 360 362
f 282 362 284
f 285 363 361
f 285 361 283
f 285 286 364
f 285 364 363
f 284 362 365
f 284 365 287
f 288 366 367
f 288 367 289
f 288 290 368
f 288 368 366
f 289 367 364
f 289 364 286
f 287 365 369
f 287 369 291
f 292 370 371
f 292 371 293
f 292 294 372
f 292 372 370
f 293 371 373
f 293 373 295
f 295 373 368
f 295 368 290
f 291 369 374
f 291 374 296
f 297 375 376
f 297 376 298
f 297 299 377
f 297 377 375
f 298 376 378
f 298 378 300
f 300 378 372
f 300 372 294
f 296 374 379
f 296 379 301
f 302 380 381
f 302 381 303
f 302 304 382
f 302 382 380
f 303 381 377
f 303 377 299
f 301 379 383
f 301 383 305
f 307 306 384
f 307 384 385
f 304 307 385
f 304 385 382
f 306 308 386
f 306 386 384
f 308 309 387
f 308 387 386
f 309 310 388
f 309 388 387
f 310 311 389
f 310 389 388
f 311 312 390
f 311 390 389
f 312 313 391
f 312 391 390
f 313 314 392
f 313 392 391
f 314 315 393
f 314 393 392
f 315 316 394
f 315 394 393
f 316 317 395
f 316 395 394
f 317 318 396
f 317 396 395
f 318 319 397
f 318 397 396
f 319 320 398
f 319 398 397
f 305 383 398
f 305 398 320
f 321 399 400
f 321 400 322
f 321 323 401
f 321 401 399
f 322 400 402
f 322 402 324
f 324 402 403
f 324 403 325
f 325 403 404
f 325 404 326
f 326 404 405
f 326 405 327
f 327 405 406
f 327 406 328
f 328 406 407
f 328 407 329
f 329 407 408
f 329 408 330
f 330 408 409
f 330 409 331
f 331 409 410
f 331 410 332
f 332 410 411
f 332 411 333
f 333 411 412
f 333 412 334
f 334 412 413
f 334 413 335
f 335 413 414
f 335 414 336
f 336 414 415
f 336 415 337
f 339 338 416
f 339 416 417
f 323 339 417
f 323 417 401
f 338 340 418
f 338 418 416
f 337 415 419
f 337 419 341
f 343 342 420
f 343 420 421
f 340 343 421
f 340 421 418
f 342 344 422
f 342 422 420
f 344 345 423
f 344 423 422
f 341 419 424
f 341 424 346
f 348 347 425
f 348 425 426
f 345 348 426
f 345 426 423
f 347 349 427
f 347 427 425
f 349 350 428
f 349 428 427
f 346 424 429
f 346 429 351
f 353 352 430
f 353 430 431
f 350 353 431
f 350 431 428
f 352 354 432
f 352 432 430
f 351 429 433
f 351 433 355
f 357 356 434
f 357 434 435
f 354 357 435
f 354 435 432
f 355 433 436
f 355 436 358
f 356 359 437
f 356 437 434
f 358 436 438
f 358 438 360
f 359 361 439
f 359 439 437
f 360 438 440
f 360 440 362
f 363 441 439
f 363 439 361
f 363 364 442
f 363 442 441
f 362 440 443
f 362 443 365
f 366 444 445
f 366 445 367
f 366 368 446
f 366 446 444
f 367 445 442
f 367 442 364
f 365 443 447
f 365 447 369
f 370 448 449
f 370 449 371
f 370 372 450
f 370 450 448
f 371 449 451
f 371 451 373
f 373 451 446
f 373 446 368
f 369 447 452
f 369 452 374
f 375 453 454
f 375 454 376
f 375 377 455
f 375 455 453
f 376 454 456
f 376 456 378
f 378 456 450
f 378 450 372
f 374 452 457
f 374 457 379
f 380 458 459
f 380 459 381
f 380 382 460
f 380 460 458
f 381 459 455
f 381 455 377
f 379 457 461
f 379 461 383
f 385 384 462
f 385 462 463
f 382 385 463
f 382 463 460
f 384 386 464
f 384 464 462
f 386 387 465
f 386 465 464
f 387 388 466
f 387 466 465
f 388 389 467
f 388 467 466
f 389 390 468
f 389 468 467
f 390 391 469
f 390 469 468
f 391 392 470
f 391 470 469
f 392 393 471
f 392 471 470
f 393 394 472
f 393 472 471
f 394 395 473
f 394 473 472
f 395 396 474
f 395 474 473
f 396 397 475
f 396 475 474
f 397 398 476
f 397 476 475
f 383 461 476
f 383 476 398
f 399 477 478
f 399 478 400
f 399 401 479
f 399 479 477
f 400 478 480
f 400 480 402
f 402 480 481
f 402 481 403
f 403 481 482
f 403 482 404
f 404 482 483
f 404 483 405
f 405 483 484
f 405 484 406
f 406 484 485
f 406 485 407
f 407 485 486
f 407 486 408
f 408 486 487
f 408 487 409
f 409 487 488
f 409 488 410
f 410 488 489
f 410 489 411
f 411 489 490
f 411 490 412
f 412 490 491
f 412 491 413
f 413 491 492
f 413 492 414
f 414 492 493
f 414 493 415
f 417 416 494
f 417 494 495
f 401 417 495
f 401 495 479
f 416 418 496
f 416 496 494
f 415 493 497
f 415 497 419
f 421 420 498
f 421 498 499
f 418 421 499
f 418 499 496
f 420 422 500
f 420 500 498
f 422 423 501
f 422 501 500
f 419 497 502
f 419 502 424
f 426 425 503
f 426 503 504
f 423 426 504
f 423 504 501
f 425 427 505
f 425 505 503
f 427 428 506
f 427 506 505
f 424 502 507
f 424 507 429
f 431 430 508
f 431 508 509
f 428 431 509
f 428 509 506
f 430 432 510
f 430 510 508
f 429 507 511
f 429 511 433
f 435 434 512
f 435 512 513
f 432 435 513
f 432 513 510
f 433 511 514
f 433 514 436
f 434 437 515
f 434 515 512
f 436 514 516
f 436 516 438
f 437 439 517
f 437 517 515
f 438 516 518
f 438 518 440
f 441 519 517
f 441 517 439
f 441 442 520
f 441 520 519
f 440 518 521
f 440 521 443
f 444 522 523
f 444 523 445
f 444 446 524
f 444 524 522
f 445 523 520
f 445 520 442
f 443 521 525
f 443 525 447
f 448 526 527
f 448 527 449
f 448 450 528
f 448 528 526
f 449 527 529
f 449 529 451
f 451 529 524
f 451 524 446
f 447 525 530
f 447 530 452
f 453 531 532
f 453 532 454
f 453 455 533
f 453 533 531
f 454 532 534
f 454 534 456
f 456 534 528
f 456 528 450
f 452 530 535
f 452 535 457
f 458 536 537
f 458 537 459
f 458 460 538
f 458 538 536
f 459 537 533
f 459 533 455
f 457 535 539
f 457 539 461
f 463 462 540
f 463 540 541
f 460 463 541
f 460 541 538
f 462 464 542
f 462 542 540
f 464 465 543
f 464 543 542
f 465 466 544
f 465 544 543
f 466 467 545
f 466 545 544
f 467 468 546
f 467 546 545
f 468 469 547
f 468 547 546
f 469 470 548
f 469 548 547
f 470 471 549
f 470 549 548
f 471 472 550
f 471 550 549
f 472 473 551
f 472 551 550
f 473 474 552
f 473 552 551
f 474 475 553
f 474 553 552
f 475 476 554
f 475 554 553
f 461 539 554
f 461 554 476
f 477 555 556
f 477 556 478
f 477 479 557
f 477 557 555
f 478 556 558
f 478 558 480
f 480 558 559
f 480 559 481
f 481 559 560
f 481 560 482
f 482 560 561
f 482 561 483
f 483 561 562
f 483 562 484
f 484 562 563
f 484 563 485
f 485 563 564
f 485 564 486
f 486 564 565
f 486 565 487
f 487 565 566
f 487 566 488
f 488 566 567
f 488 567 489
f 489 567 568
f 489 568 490
f 490 568 569
f 490 569 491
f 491 569 570
f 491 570 492
f 492 570 571
f 492 571 493
f 495 494 572
f 495 572 573
f 479 495 573
f 479 573 557
f 494 496 574
f 494 574 572
f 493 571 575
f 493 575 497
f 499 498 576
f 499 576 577
f 496 499 577
f 496 577 574
f 498 500 578
f 498 578 576
f 500 501 579
f 500 579 578
f 497 575 580
f 497 580 502
f 504 503 581
f 504 581 582
f 501 504 582
f 501 582 579
f 503 505 583
f 503 583 581
f 505 506 584
f 505 584 583
f 502 580 585
f 502 585 507
f 509 508 586
f 509 586 587
f 506 509 587
f 506 587 584
f 508 510 588
f 508 588 586
f 507 585 589
f 507 589 511
f 513 512 590
f 513 590 591
f 510 513 591
f 510 591 588
f 511 589 592
f 511 592 514
f 512 515 593
f 512 593 590
f 514 592 594
f 514 594 516
f 515 517 595
f 515 595 593
f 516 594 596
f 516 596 518
f 519 597 595
f 519 595 517
f 519 520 598
f 519 598 597
f 518 596 599
f 518 599 521
f 522 600 601
f 522 601 523
f 522 524 602
f 522 602 600
f 523 601 598
f 523 598 520
f 521 599 603
f 521 603 525
f 526 604 605
f 526 605 527
f 526 528 606
f 526 606 604
f 527 605 607
f 527 607 529
f 529 607 602
f 529 602 524
f 525 603 608
f 525 608 530
f 531 609 610
f 531 610 532
f 531 533 611
f 531 611 609
f 532 610 612
f 532 612 534
f 534 612 606
f 534 606 528
f 530 608 613
f 530 613 535
f 536 614 615
f 536 615 537
f 536 538 616
f 536 616 614
f 537 615 611
f 537 611 533
f 535 613 617
f 535 617 539
f 541 540 618
f 541 618 619
f 538 541 619
f 538 619 616
f 540 542 620
f 540 620 618
f 542 543 621
f 542 621 620
f 543 544 622
f 543 622 621
f 544 545 623
f 544 623 622
f 545 546 624
f 545 624 623
f 546 547 625
f 546 625 624
f 547 548 626
f 547 626 625
f 548 549 627
f 548 627 626
f 549 550 628
f 549 628 627
f 550 551 629
f 550 629 628
f 551 552 630
f 551 630 629
f 552 553 631
f 552 631 630
f 553 554 632
f 553 632 631
f 539 617 632
f 539 632 554
f 555 633 634
f 555 634 556
f 555 557 635
f 555 635 633
f 556 634 636
f 556 636 558
f 558 636 637
f 558 637 559
f 559 637 638
f 559 638 560
f 560 638 639
f 560 639 561
f 561 639 640
f 561 640 562
f 562 640 641
f 562 641 563
f 563 641 642
f 563 642 564
f 564 642 643
f 564 643 565
f 565 643 644
f 565 644 566
f 566 644 645
f 566 645 567
f 567 645 646
f 567 646 568
f 568 646 647
f 568 647 569
f 569 647 648
f 569 648 570
f 570 648 649
f 570 649 571
f 573 572 650
f 573 650 651
f 557 573 651
f 557 651 635
f 572 574 652
f 572 652 650
f 571 649 653
f 571 653 575
f 577 576 654
f 577 654 655
f 574 577 655
f 574 655 652
f 576 578 656
f 576 656 654
f 578 579 657
f 578 657 656
f 575 653 658
f 575 658 580
f 582 581 659
f 582 659 660
f 579 582 660
f 579 660 657
f 581 583 661
f 581 661 659
f 583 584 662
f 583 662 661
f 580 658 663
f 580 663 585
f 587 586 664
f 587 664 665
f 584 587 665
f 584 665 662
f 586 588 666
f 586 666 664
f 585 663 667
f 585 667 589
f 591 590 668
f 591 668 669
f 588 591 669
f 588 669 666
f 589 667 670
f 589 670 592
f 590 593 671
f 590 671 668
f 592 670 672
f 592 672 594
f 593 595 673
f 593 673 671
f 594 672 674
f 594 674 596
f 597 675 673
f 597 673 595
f 597 598 676
f 597 676 675
f 596 674 677
f 596 677 599
f 600 678 679
f 600 679 601
f 600 602 680
f 600 680 678
f 601 679 676
f 601 676 598
f 599 677 681
f 599 681 603
f 604 682 683
f 604 683 605
f 604 606 684
f 604 684 682
f 605 683 685
f 605 685 607
f 607 685 680
f 607 680 602
f 603 681 686
f 603 686 608
f 609 687 688
f 609 688 610
f 609 611 689
f 609 689 687
f 610 688 690
f 610 690 612
f 612 690 684
f 612 684 606
f 608 686 691
f 608 691 613
f 614 692 693
f 614 693 615
f 614 616 694
f 614 694 692
f 615 693 689
f 615 689 611
f 613 691 695
f 613 695 617
f 619 618 696
f 619 696 697
f 616 619 697
f 616 697 694
f 618 620 698
f 618 698 696
f 620 621 699
f 620 699 698
f 621 622 700
f 621 700 699
f 622 623 701
f 622 701 700
f 623 624 702
f 623 702 701
f 624 625 703
f 624 703 702
f 625 626 704
f 625 704 703
f 626 627 705
f 626 705 704
f 627 628 706
f 627 706 705
f 628 629 707
f 628 707 706
f 629 630 708
f 629 708 707
f 630 631 709
f 630 709 708
f 631 632 710
f 631 710 709
f 617 695 710
f 617 710 632
f 633 711 712
f 633 712 634
f 633 635 713
f 633 713 711
f 634 712 714
f 634 714 636
f 636 714 715
f 636 715 637
f 637 715 716
f 637 716 638
f 638 716 717
f 638 717 639
f 639 717 718
f 639 718 640
f 640 718 719
f 640 719 641
f 641 719 720
f 641 720 642
f 642 720 721
f 642 721 643
f 643 721 722
f 643 722 644
f 644 722 723
f 644 723 645
f 645 723 724
f 645 724 646
f 646 724 725
f 646 725 647
f 647 725 726
f 647 726 648
f 648 726 727
f 648 727 649
f 651 650 728
f 651 728 729
f 635 651 729
f 635 729 713
f 650 652 730
f 650 730 728
f 649 727 731
f 649 731 653
f 655 654 732
f 655 732 733
f 652 655 733
f 652 733 730
f 654 656 734
f 654 734 732
f 656 657 735
f 656 735 734
f 653 731 736
f 653 736 658
f 660 659 737
f 660 737 738
f 657 660 738
f 657 738 735
f 659 661 739
f 659 739 737
f 661 662 740
f 661 740 739
f 658 736 741
f 658 741 663
f 665 664 742
f 665 742 743
f 662 665 743
f 662 743 740
f 664 666 744
f 664 744 742
f 663 741 745
f 663 745 667
f 669 668 746
f 669 746 747
f 666 669 747
f 666 747 744
f 667 745 748
f 667 748 670
f 668 671 749
f 668 749 746
f 670 748 750
f 670 750 672
f 671 673 751
f 671 751 749
f 672 750 752
f 672 752 674
f 675 753 751
f 675 751 673
f 675 676 754
f 675 754 753
f 674 752 755
f 674 755 677
f 678 756 757
f 678 757 679
f 678 680 758
f 678 758 756
f 679 757 754
f 679 754 676
f 677 755 759
f 677 759 681
f 682 760 761
f 682 761 683
f 682 684 762
f 682 762 760
f 683 761 763
f 683 763 685
f 685 763 758
f 685 758 680
f 681 759 764
f 681 764 686
f 687 765 766
f 687 766 688
f 687 689 767
f 687 767 765
f 688 766 768
f 688 768 690
f 690 768 762
f 690 762 684
f 686 764 769
f 686 769 691
f 692 770 771
f 692 771 693
f 692 694 772
f 692 772 770
f 693 771 767
f 693 767 689
f 691 769 773
f 691 773 695
f 697 696 774
f 697 774 775
f 694 697 775
f 694 775 772
f 696 698 776
f 696 776 774
f 698 699 777
f 698 777 776
f 699 700 778
f 699 778 777
f 700 701 779
f 700 779 778
f 701 702 780
f 701 780 779
f 702 703 781
f 702 781 780
f 703 704 782
f 703 782 781
f 704 705 783
f 704 783 782
f 705 706 784
f 705 784 783
f 706 707 785
f 706 785 784
f 707 708 786
f 707 786 785
f 708 709 787
f 708 787 786
f 709 710 788
f 709 788 787
f 695 773 788
f 695 788 710
f 711 789 790
f 711 790 712
f 711 713 791
f 711 791 789
f 712 790 792
f 712 792 714
f 714 792 793
f 714 793 715
f 715 793 794
f 715 794 716
f 716 794 795
f 716 795 717
f 717 795 796
f 717 796 718
f 718 796 797
f 718 797 719
f 719 797 798
f 719 798 720
f 720 798 799
f 720 799 721
f 721 799 800
f 721 800 722
f 722 800 801
f 722 801 723
f 723 801 802
f 723 802 724
f 724 802 803
f 724 803 725
f 725 803 804
f 725 804 726
f 726 804 805
f 726 805 727
f 729 728 806
f 729 806 807
f 713 729 807
f 713 807 791
f 728 730 808
f 728 808 806
f 727 805 809
f 727 809 731
f 733 732 810
f 733 810 811
f 730 733 811
f 730 811 808
f 732 734 812
f 732 812 810
f 734 735 813
f 734 813 812
f 731 809 814
f 731 814 736
f 738 737 815
f 738 815 816
f 735 738 816
f 735 816 813
f 737 739 817
f 737 817 815
f 739 740 818
f 739 818 817
f 736 814 819
f 736 819 741
f 743 742 820
f 743 820 821
f 740 743 821
f 740 821 818
f 742 744 822
f 742 822 820
f 741 819 823
f 741 823 745
f 747 746 824
f 747 824 825
f 744 747 825
f 744 825 822
f 745 823 826
f 745 826 748
f 746 749 827
f 746 827 824
f 748 826 828
f 748 828 750
f 749 751 829
f 749 829 827
f 750 828 830
f 750 830 752
f 753 831 829
f 753 829 751
f 753 754 832
f 753 832 831
f 752 830 833
f 752 833 755
f 756 834 835
f 756 835 757
f 756 758 836
f 756 836 834
f 757 835 832
f 757 832 754
f 755 833 837
f 755 837 759
f 760 838 839
f 760 839 761
f 760 762 840
f 760 840 838
f 761 839 841
f 761 841 763
f 763 841 836
f 763 836 758
f 759 837 842
f 759 842 764
f 765 843 844
f 765 844 766
f 765 767 845
f 765 845 843
f 766 844 846
f 766 846 768
f 768 846 840
f 768 840 762
f 764 842 847
f 764 847 769
f 770 848 849
f 770 849 771
f 770 772 850
f 770 850 848
f 771 849 845
f 771 845 767
f 769 847 851
f 769 851 773
f 775 774 852
f 775 852 853
f 772 775 853
f 772 853 850
f 774 776 854
f 774 854 852
f 776 777 855
f 776 855 854
f 777 778 856
f 777 856 855
f 778 779 857
f 778 857 856
f 779 780 858
f 779 858 857
f 780 781 859
f 780 859 858
f 781 782 860
f 781 860 859
f 782 783 861
f 782 861 860
f 783 784 862
f 783 862 861
f 784 785 863
f 784 863 862
f 785 786 864
f 785 864 863
f 786 787 865
f 786 865 864
f 787 788 866
f 787 866 865
f 773 851 866
f 773 866 788
f 789 867 868
f 789 868 790
f 789 791 869
f 789 869 867
f 790 868 870
f 790 870 792
f 792 870 871
f 792 871 793
f 793 871 872
f 793 872 794
f 794 872 873
f 794 873 795
f 795 873 874
f 795 874 796
f 796 874 875
f 796 875 797
f 797 875 876
f 797 876 798
f 798 876 877
f 798 877 799
f 799 877 878
f 799 878 800
f 800 878 879
f 800 879 801
f 801 879 880
f 801 880 802
f 802 880 881
f 802 881 803
f 803 881 882
f 803 882 804
f 804 882 883
f 804 883 805
f 807 806 884
f 807 884 885
f 791 807 885
f 791 885 869
f 806 808 886
f 806 886 884
f 805 883 887
f 805 887 809
f 811 810 888
f 811 888 889
f 808 811 889
f 808 889 886
f 810 812 890
f 810 890 888
f 812 813 891
f 812 891 890
f 809 887 892
f 809 892 814
f 816 815 893
f 816 893 894
f 813 816 894
f 813 894 891
f 815 817 895
f 815 895 893
f 817 818 896
f 817 896 895
f 814 892 897
f 814 897 819
f 821 820 898
f 821 898 899
f 818 821 899
f 818 899 896
f 820 822 900
f 820 900 898
f 819 897 901
f 819 901 823
f 825 824 902
f 825 902 903
f 822 825 903
f 822 903 900
f 823 901 904
f 823 904 826
f 824 827 905
f 824 905 902
f 826 904 906
f 826 906 828
f 827 829 907
f 827 907 905
f 828 906 908
f 828 908 830
f 831 909 907
f 831 907 829
f 831 832 910
f 831 910 909
f 830 908 911
f 830 911 833
f 834 912 913
f 834 913 835
f 834 836 914
f 834 914 912
f 835 913 910
f 835 910 832
f 833 911 915
f 833 915 837
f 838 916 917
f 838 917 839
f 838 840 918
f 838 918 916
f 839 917 919
f 839 919 841
f 841 919 914
f 841 914 836
f 837 915 920
f 837 920 842
f 843 921 922
f 843 922 844
f 843 845 923
f 843 923 921
f 844 922 924
f 844 924 846
f 846 924 918
f 846 918 840
f 842 920 925
f 842 925 847
f 848 926 927
f 848 927 849
f 848 850 928
f 848 928 926
f 849 927 923
f 849 923 845
f 847 925 929
f 847 929 851
f 853 852 930
f 853 930 931
f 850 853 931
f 850 931 928
f 852 854 932
f 852 932 930
f 854 855 933
f 854 933 932
f 855 856 934
f 855 934 933
f 856 857 935
f 856 935 934
f 857 858 936
f 857 936 935
f 858 859 937
f 858 937 936
f 859 860 938
f 859 938 937
f 860 861 939
f 860 939 938
f 861 862 940
f 861 940 939
f 862 863 941
f 862 941 940
f 863 864 942
f 863 942 941
f 864 865 943
f 864 943 942
f 865 866 944
f 865 944 943
f 851 929 944
f 851 944 866
f 867 945 946
f 867 946 868
f 867 869 947
f 867 947 945
f 868 946 948
f 868 948 870
f 870 948 949
f 870 949 871
f 871 949 950
f 871 950 872
f 872 950 951
f 872 951 873
f 873 951 952
f 873 952 874
f 874 952 953
f 874 953 875
f 875 953 954
f 875 954 876
f 876 954 955
f 876 955 877
f 877 955 956
f 877 956 878
f 878 956 957
f 878 957 879
f 879 957 958
f 879 958 880
f 880 958 959
f 880 959 881
f 881 959 960
f 881 960 882
f 882 960 961
f 882 961 883
f 885 884 962
f 885 962 963
f 869 885 963
f 869 963 947
f 884 886 964
f 884 964 962
f 883 961 965
f 883 965 887
f 889 888 966
f 889 966 967
f 886 889 967
f 886 967 964
f 888 890 968
f 888 968 966
f 890 891 969
f 890 969 968
f 887 965 970
f 887 970 892
f 894 893 971
f 894 971 972
f 891 894 972
f 891 972 969
f 893 895 973
f 893 973 971
f 895 896 974
f 895 974 973
f 892 970 975
f 892 975 897
f 899 898 976
f 899 976 977
f 896 899 977
f 896 977 974
f 898 900 978
f 898 978 976
f 897 975 979
f 897 979 901
f 903 902 980
f 903 980 981
f 900 903 981
f 900 981 978
f 901 979 982
f 901 982 904
f 902 905 983
f 902 983 980
f 904 982 984
f 904 984 906
f 905 907 985
f 905 985 983
f 906 984 986
f 906 986 908
f 909 987 985
f 909 985 907
f 909 910 988
f 909 988 987
f 908 986 989
f 908 989 911
f 912 990 991
f 912 991 913
f 912 914 992
f 912 992 990
f 913 991 988
f 913 988 910
f 911 989 993
f 911 993 915
f 916 994 995
f 916 995 917
f 916 918 996
f 916 996 994
f 917 995 997
f 917 997 919
f 919 997 992
f 919 992 914
f 915 993 998
f 915 998 920
f 921 999 1000
f 921 1000 922
f 921 923 1001
f 921 1001 999
f 922 1000 1002
f 922 1002 924
f 924 1002 996
f 924 996 918
f 920 998 1003
f 920 1003 925
f 926 1004 1005
f 926 1005 927
f 926 928 1006
f 926 1006 1004
f 927 1005 1001
f 927 1001 923
f 925 1003 1007
f 925 1007 929
f 931 930 1008
f 931 1008 1009
f 928 931 1009
f 928 1009 1006
f 930 932 1010
f 930 1010 1008
f 932 933 1011
f 932 1011 1010
f 933 934 1012
f 933 1012 1011
f 934 935 1013
f 934 1013 1012
f 935 936 1014
f 935 1014 1013
f 936 937 1015
f 936 1015 1014
f 937 938 1016
f 937 1016 1015
f 938 939 1017
f 938 1017 1016
f 939 940 1018
f 939 1018 1017
f 940 941 1019
f 940 1019 1018
f 941 942 1020
f 941 1020 1019
f 942 943 1021
f 942 1021 1020
f 943 944 1022
f 943 1022 1021
f 929 1007 1022
f 929 1022 944
f 945 1023 1024
f 945 1024 946
f 945 947 1025
f 945 1025 1023
f 946 1024 1026
f 946 1026 948
f 948 1026 1027
f 948 1027 949
f 949 1027 1028
f 949 1028 950
f 950 1028 1029
f 950 1029 951
f 951 1029 1030
f 951 1030 952
f 952 1030 1031
f 952 1031 953
f 953 1031 1032
f 953 1032 954
f 954 1032 1033
f 954 1033 955
f 955 1033 1034
f 955 1034 956
f 956 1034 1035
f 956 1035 957
f 957 1035 1036
f 957 1036 958
f 958 1036 1037
f 958 1037 959
f 959 1037 1038
f 959 1038 960
f 960 1038 1039
f 960 1039 961
f 963 962 1040
f 963 1040 1041
f 947 963 1041
f 947 1041 1025
f 962 964 1042
f 962 1042 1040
f 961 1039 1043
f 961 1043 965
f 967 966 1044
f 967 1044 1045
f 964 967 1045
f 964 1045 1042
f 966 968 1046
f 966 1046 1044
f 968 969 1047
f 968 1047 1046
f 965 1043 1048
f 965 1048 970
f 972 971 1049
f 972 1049 1050
f 969 972 1050
f 969 1050 1047
f 971 973 1051
f 971 1051 1049
f 973 974 1052
f 973 1052 1051
f 970 1048 1053
f 970 1053 975
f 977 976 1054
f 977 1054 1055
f 974 977 1055
f 974 1055 1052
f 976 978 1056
f 976 1056 1054
f 975 1053 1057
f 975 1057 979
f 981 980 1058
f 981 1058 1059
f 978 981 1059
f 978 1059 1056
f 979 1057 1060
f 979 1060 982
f 980 983 1061
f 980 1061 1058
f 982 1060 1062
f 982 1062 984
f 983 985 1063
f 983 1063 1061
f 984 1062 1064
f 984 1064 986
f 987 1065 1063
f 987 1063 985
f 987 988 1066
f 987 1066 1065
f 986 1064 1067
f 986 1067 989
f 990 1068 1069
f 990 1069 991
f 990 992 1070
f 990 1070 1068
f 991 1069 1066
f 991 1066 988
f 989 1067 1071
f 989 1071 993
f 994 1072 1073
f 994 1073 995
f 994 996 1074
f 994 1074 1072
f 995 1073 1075
f 995 1075 997
f 997 1075 1070
f 997 1070 992
f 993 1071 1076
f 993 1076 998
f 999 1077 1078
f 999 1078 1000
f 999 1001 1079
f 999 1079 1077
f 1000 1078 1080
f 1000 1080 1002
f 1002 1080 1074
f 1002 1074 996
f 998 1076 1081
f 998 1081 1003
f 1004 1082 1083
f 1004 1083 1005
f 1004 1006 1084
f 1004 1084 1082
f 1005 1083 1079
f 1005 1079 1001
f 1003 1081 1085
f 1003 1085 1007
f 1009 1008 1086
f 1009 1086 1087
f 1006 1009 1087
f 1006 1087 1084
f 1008 1010 1088
f 1008 1088 1086
f 1010 1011 1089
f 1010 1089 1088
f 1011 1012 1090
f 1011 1090 1089
f 1012 1013 1091
f 1012 1091 1090
f 1013 1014 1092
f 1013 1092 1091
f 1014 1015 1093
f 1014 1093 1092
f 1015 1016 1094
f 1015 1094 1093
f 1016 1017 1095
f 1016 1095 1094
f 1017 1018 1096
f 1017 1096 1095
f 1018 1019 1097
f 1018 1097 1096
f 1019 1020 1098
f 1019 1098 1097
f 1020 1021 1099
f 1020 1099 1098
f 1021 1022 1100
f 1021 1100 1099
f 1007 1085 1100
f 1007 1100 1022
f 1023 1101 1102
f 1023 1102 1024
f 1023 1025 1103
f 1023 1103 1101
f 1024 1102 1104
f 1024 1104 1026
f 1026 1104 1105
f 1026 1105 1027
f 1027 1105 1106
f 1027 1106 1028
f 1028 1106 1107
f 1028 1107 1029
f 1029 1107 1108
f 1029 1108 1030
f 1030 1108 1109
f 1030 1109 1031
f 1031 1109 1110
f 1031 1110 1032
f 1032 1110 1111
f 1032 1111 1033
f 1033 1111 1112
f 1033 1112 1034
f 1034 1112 1113
f 1034 1113 1035
f 1035 1113 1114
f 1035 1114 1036
f 1036 1114 1115
f 1036 1115 1037
f 1037 1115 1116
f 1037 1116 1038
f 1038 1116 1117
f 1038 1117 1039
f 1041 1040 1118
f 1041 1118 1119
f 1025 1041 1119
f 1025 1119 1103
f 1040 1042 1120
f 1040 1120 1118
f 1039 1117 1121
f 1039 1121 1043
f 1045 1044 1122
f 1045 1122 1123
f 1042 1045 1123
f 1042 1123 1120
f 1044 1046 1124
f 1044 1124 1122
f 1046 1047 1125
f 1046 1125 1124
f 1043 1121 1126
f 1043 1126 1048
f 1050 1049 1127
f 1050 1127 1128
f 1047 1050 1128
f 1047 1128 1125
f 1049 1051 1129
f 1049 1129 1127
f 1051 1052 1130
f 1051 1130 1129
f 1048 1126 1131
f 1048 1131 1053
f 1055 1054 1132
f 1055 1132 1133
f 1052 1055 1133
f 1052 1133 1130
f 1054 1056 1134
f 1054 1134 1132
f 1053 1131 1135
f 1053 1135 1057
f 1059 1058 1136
f 1059 1136 1137
f 1056 1059 1137
f 1056 1137 1134
f 1057 1135 1138
f 1057 1138 1060
f 1058 1061 1139
f 1058 1139 1136
f 1060 1138 1140
f 1060 1140 1062
f 1061 1063 1141
f 1061 1141 1139
f 1062 1140 1142
f 1062 1142 1064
f 1065 1143 1141
f 1065 1141 1063
f 1065 1066 1144
f 1065 1144 1143
f 1064 1142 1145
f 1064 1145 1067
f 1068 1146 1147
f 1068 1147 1069
f 1068 1070 1148
f 1068 1148 1146
f 1069 1147 1144
f 1069 1144 1066
f 1067 1145 1149
f 1067 1149 1071
f 1072 1150 1151
f 1072 1151 1073
f 1072 1074 1152
f 1072 1152 1150
f 1073 1151 1153
f 1073 1153 1075
f 1075 1153 1148
f 1075 1148 1070
f 1071 1149 1154
f 1071 1154 1076
f 1077 1155 1156
f 1077 1156 1078
f 1077 1079 1157
f 1077 1157 1155
f 1078 1156 1158
f 1078 1158 1080
f 1080 1158 1152
f 1080 1152 1074
f 1076 1154 1159
f 1076 1159 1081
f 1082 1160 1161
f 1082 1161 1083
f 1082 1084 1162
f 1082 1162 1160
f 1083 1161 1157
f 1083 1157 1079
f 1081 1159 1163
f 1081 1163 1085
f 1087 1086 1164
f 1087 1164 1165
f 1084 1087 1165
f 1084 1165 1162
f 1086 1088 1166
f 1086 1166 1164
f 1088 1089 1167
f 1088 1167 1166
f 1089 1090 1168
f 1089 1168 1167
f 1090 1091 1169
f 1090 1169 1168
f 1091 1092 1170
f 1091 1170 1169
f 1092 1093 1171
f 1092 1171 1170
f 1093 1094 1172
f 1093 1172 1171
f 1094 1095 1173
f 1094 1173 1172
f 1095 1096 1174
f 1095 1174 1173
f 1096 1097 1175
f 1096 1175 1174
f 1097 1098 1176
f 1097 1176 1175
f 1098 1099 1177
f 1098 1177 1176
f 1099 1100 1178
f 1099 1178 1177
f 1085 1163 1178
f 1085 1178 1100
f 1179 1180 1181
f 1179 1181 1182
f 1101 1179 1180
f 1101 1180 1102
f 1101 1103 1182
f 1101 1182 1179
f 1180 1183 1184
f 1180 1184 1181
f 1102 1180 1183
f 1102 1183 1104
f 1183 1185 1186
f 1183 1186 1184
f 1104 1183 1185
f 1104 1185 1105
f 1185 1187 1188
f 1185 1188 1186
f 1105 1185 1187
f 1105 1187 1106
f 1187 1189 1190
f 1187 1190 1188
f 1106 1187 1189
f 1106 1189 1107
f 1189 1191 1192
f 1189 1192 1190
f 1107 1189 1191
f 1107 1191 1108
f 1191 1193 1194
f 1191 1194 1192
f 1108 1191 1193
f 1108 1193 1109
f 1193 1195 1196
f 1193 1196 1194
f 1109 1193 1195
f 1109 1195 1110
f 1195 1197 1198
f 1195 1198 1196
f 1110 1195 1197
f 1110 1197 1111
f 1197 1199 1200
f 1197 1200 1198
f 1111 1197 1199
f 1111 1199 1112
f 1199 1201 1202
f 1199 1202 1200
f 1112 1199 1201
f 1112 1201 1113
f 1201 1203 1204
f 1201 1204 1202
f 1113 1201 1203
f 1113 1203 1114
f 1203 1205 1206
f 1203 1206 1204
f 1114 1203 1205
f 1114 1205 1115
f 1205 1207 1208
f 1205 1208 1206
f 1115 1205 1207
f 1115 1207 1116
f 1116 1207 1208
f 1116 1208 1117
f 1182 1181 1209
f 1182 1209 1210
f 1119 1118 1209
f 1119 1209 1210
f 1103 1119 1210
f 1103 1210 1182
f 1181 1184 1211
f 1181 1211 1209
f 1118 1120 1211
f 1118 1211 1209
f 1184 1186 1212
f 1184 1212 1211
f 1186 1188 1213
f 1186 1213 1212
f 1188 1190 1214
f 1188 1214 1213
f 1190 1192 1215
f 1190 1215 1214
f 1192 1194 1216
f 1192 1216 1215
f 1194 1196 1217
f 1194 1217 1216
f 1196 1198 1218
f 1196 1218 1217
f 1198 1200 1219
f 1198 1219 1218
f 1200 1202 1220
f 1200 1220 1219
f 1202 1204 1221
f 1202 1221 1220
f 1204 1206 1222
f 1204 1222 1221
f 1206 1208 1223
f 1206 1223 1222
f 1117 1208 1223
f 1117 1223 1121
f 1211 1212 1224
f 1211 1224 1225
f 1123 1122 1224
f 1123 1224 1225
f 1120 1123 1225
f 1120 1225 1211
f 1212 1213 1226
f 1212 1226 1224
f 1122 1124 1226
f 1122 1226 1224
f 1213 1214 1227
f 1213 1227 1226
f 1124 1125 1227
f 1124 1227 1226
f 1214 1215 1228
f 1214 1228 1227
f 1215 1216 1229
f 1215 1229 1228
f 1216 1217 1230
f 1216 1230 1229
f 1217 1218 1231
f 1217 1231 1230
f 1218 1219 1232
f 1218 1232 1231
f 1219 1220 1233
f 1219 1233 1232
f 1220 1221 1234
f 1220 1234 1233
f 1221 1222 1235
f 1221 1235 1234
f 1222 1223 1236
f 1222 1236 1235
f 1121 1223 1236
f 1121 1236 1126
f 1227 1228 1237
f 1227 1237 1238
f 1128 1127 1237
f 1128 1237 1238
f 1125 1128 1238
f 1125 1238 1227
f 1228 1229 1239
f 1228 1239 1237
f 1127 1129 1239
f 1127 1239 1237
f 1229 1230 1240
f 1229 1240 1239
f 1129 1130 1240
f 1129 1240 1239
f 1230 1231 1241
f 1230 1241 1240
f 1231 1232 1242
f 1231 1242 1241
f 1232 1233 1243
f 1232 1243 1242
f 1233 1234 1244
f 1233 1244 1243
f 1234 1235 1245
f 1234 1245 1244
f 1235 1236 1246
f 1235 1246 1245
f 1126 1236 1246
f 1126 1246 1131
f 1240 1241 1247
f 1240 1247 1248
f 1133 1132 1247
f 1133 1247 1248
f 1130 1133 1248
f 1130 1248 1240
f 1241 1242 1249
f 1241 1249 1247
f 1132 1134 1249
f 1132 1249 1247
f 1242 1243 1250
f 1242 1250 1249
f 1243 1244 1251
f 1243 1251 1250
f 1244 1245 1252
f 1244 1252 1251
f 1245 1246 1253
f 1245 1253 1252
f 1131 1246 1253
f 1131 1253 1135
f 1249 1250 1254
f 1249 1254 1255
f 1137 1136 1254
f 1137 1254 1255
f 1134 1137 1255
f 1134 1255 1249
f 1250 1251 1256
f 1250 1256 1254
f 1251 1252 1257
f 1251 1257 1256
f 1252 1253 1258
f 1252 1258 1257
f 1135 1253 1258
f 1135 1258 1138
f 1254 1256 1259
f 1254 1259 1260
f 1136 1139 1260
f 1136 1260 1254
f 1256 1257 1261
f 1256 1261 1259
f 1257 1258 1262
f 1257 1262 1261
f 1138 1258 1262
f 1138 1262 1140
f 1260 1259 1263
f 1260 1263 1264
f 1139 1141 1264
f 1139 1264 1260
f 1259 1261 1265
f 1259 1265 1263
f 1261 1262 1266
f 1261 1266 1265
f 1140 1262 1266
f 1140 1266 1142
f 1267 1264 1268
f 1267 1268 1269
f 1143 1267 1264
f 1143 1264 1141
f 1143 1144 1269
f 1143 1269 1267
f 1264 1263 1270
f 1264 1270 1268
f 1263 1265 1271
f 1263 1271 1270
f 1265 1266 1272
f 1265 1272 1271
f 1142 1266 1272
f 1142 1272 1145
f 1273 1274 1275
f 1273 1275 1276
f 1146 1273 1274
f 1146 1274 1147
f 1146 1148 1276
f 1146 1276 1273
f 1274 1269 1277
f 1274 1277 1275
f 1147 1274 1269
f 1147 1269 1144
f 1269 1268 1278
f 1269 1278 1277
f 1268 1270 1279
f 1268 1279 1278
f 1270 1271 1280
f 1270 1280 1279
f 1271 1272 1281
f 1271 1281 1280
f 1145 1272 1281
f 1145 1281 1149
f 1282 1283 1284
f 1282 1284 1285
f 1150 1282 1283
f 1150 1283 1151
f 1150 1152 1285
f 1150 1285 1282
f 1283 1286 1287
f 1283 1287 1284
f 1151 1283 1286
f 1151 1286 1153
f 1286 1276 1288
f 1286 1288 1287
f 1153 1286 1276
f 1153 1276 1148
f 1276 1275 1289
f 1276 1289 1288
f 1275 1277 1290
f 1275 1290 1289
f 1277 1278 1291
f 1277 1291 1290
f 1278 1279 1292
f 1278 1292 1291
f 1279 1280 1293
f 1279 1293 1292
f 1280 1281 1294
f 1280 1294 1293
f 1149 1281 1294
f 1149 1294 1154
f 1295 1296 1297
f 1295 1297 1298
f 1155 1295 1296
f 1155 1296 1156
f 1155 1157 1298
f 1155 1298 1295
f 1296 1299 1300
f 1296 1300 1297
f 1156 1296 1299
f 1156 1299 1158
f 1299 1285 1301
f 1299 1301 1300
f 1158 1299 1285
f 1158 1285 1152
f 1285 1284 1302
f 1285 1302 1301
f 1284 1287 1303
f 1284 1303 1302
f 1287 1288 1304
f 1287 1304 1303
f 1288 1289 1305
f 1288 1305 1304
f 1289 1290 1306
f 1289 1306 1305
f 1290 1291 1307
f 1290 1307 1306
f 1291 1292 1308
f 1291 1308 1307
f 1292 1293 1309
f 1292 1309 1308
f 1293 1294 1310
f 1293 1310 1309
f 1154 1294 1310
f 1154 1310 1159
f 1311 1312 1313
f 1311 1313 1314
f 1160 1311 1312
f 1160 1312 1161
f 1160 1162 1314
f 1160 1314 1311
f 1312 1298 1315
f 1312 1315 1313
f 1161 1312 1298
f 1161 1298 1157
f 1298 1297 1316
f 1298 1316 1315
f 1297 1300 1317
f 1297 1317 1316
f 1300 1301 1318
f 1300 1318 1317
f 1301 1302 1319
f 1301 1319 1318
f 1302 1303 1320
f 1302 1320 1319
f 1303 1304 1321
f 1303 1321 1320
f 1304 1305 1322
f 1304 1322 1321
f 1305 1306 1323
f 1305 1323 1322
f 1306 1307 1324
f 1306 1324 1323
f 1307 1308 1325
f 1307 1325 1324
f 1308 1309 1326
f 1308 1326 1325
f 1309 1310 1327
f 1309 1327 1326
f 1159 1310 1327
f 1159 1327 1163
f 1314 1313 1328
f 1314 1328 1329
f 1165 1164 1328
f 1165 1328 1329
f 1162 1165 1329
f 1162 1329 1314
f 1313 1315 1330
f 1313 1330 1328
f 1164 1166 1330
f 1164 1330 1328
f 1315 1316 1331
f 1315 1331 1330
f 1166 1167 1331
f 1166 1331 1330
f 1316 1317 1332
f 1316 1332 1331
f 1167 1168 1332
f 1167 1332 1331
f 1317 1318 1333
f 1317 1333 1332
f 1168 1169 1333
f 1168 1333 1332
f 1318 1319 1334
f 1318 1334 1333
f 1169 1170 1334
f 1169 1334 1333
f 1319 1320 1335
f 1319 1335 1334
f 1170 1171 1335
f 1170 1335 1334
f 1320 1321 1336
f 1320 1336 1335
f 1171 1172 1336
f 1171 1336 1335
f 1321 1322 1337
f 1321 1337 1336
f 1172 1173 1337
f 1172 1337 1336
f 1322 1323 1338
f 1322 1338 1337
f 1173 1174 1338
f 1173 1338 1337
f 1323 1324 1339
f 1323 1339 1338
f 1174 1175 1339
f 1174 1339 1338
f 1324 1325 1340
f 1324 1340 1339
f 1175 1176 1340
f 1175 1340 1339
f 1325 1326 1341
f 1325 1341 1340
f 1176 1177 1341
f 1176 1341 1340
f 1326 1327 1342
f 1326 1342 1341
f 1177 1178 1342
f 1177 1342 1341
f 1163 1327 1342
f 1163 1342 1178
