o [4B] 3D Diagram - S2-06 Group A_372
v -1.903750 9.605000 195.280000
v -1.903750 11.090000 195.280000
v -1.903750 11.090000 196.000000
v -1.903750 9.605000 196.000000
v -1.667500 9.605000 195.280000
v -1.667500 9.605000 196.000000
v -1.667500 11.090000 196.000000
v -1.667500 11.090000 195.280000
v -1.903750 11.090000 196.720000
v -1.903750 9.605000 196.720000
v -1.667500 9.605000 196.720000
v -1.667500 11.090000 196.720000
v -1.903750 11.090000 197.440000
v -1.903750 9.605000 197.440000
v -1.667500 9.605000 197.440000
v -1.667500 11.090000 197.440000
v -1.903750 11.090000 198.160000
v -1.903750 9.605000 198.160000
v -1.667500 9.605000 198.160000
v -1.903750 11.090000 198.880000
v -1.903750 9.605000 198.880000
v -1.667500 9.605000 198.880000
v -1.903750 11.090000 199.600000
v -1.903750 9.605000 199.600000
v -1.667500 9.605000 199.600000
v -1.903750 11.090000 200.320000
v -1.903750 9.605000 200.320000
v -1.667500 9.605000 200.320000
v -1.903750 11.090000 201.040000
v -1.903750 9.605000 201.040000
v -1.667500 9.605000 201.040000
v -1.903750 11.090000 201.760000
v -1.903750 9.605000 201.760000
v -1.667500 9.605000 201.760000
v -1.903750 11.090000 202.480000
v -1.903750 9.605000 202.480000
v -1.667500 9.605000 202.480000
v -1.903750 11.090000 203.200000
v -1.903750 9.605000 203.200000
v -1.667500 9.605000 203.200000
v -1.903750 11.090000 203.920000
v -1.903750 9.605000 203.920000
v -1.667500 9.605000 203.920000
v -1.903750 11.090000 204.640000
v -1.903750 9.605000 204.640000
v -1.667500 9.605000 204.640000
v -1.667500 11.090000 204.640000
v -1.903750 12.575000 195.280000
v -1.903750 12.575000 196.000000
v -1.667500 12.575000 196.000000
v -1.667500 12.575000 195.280000
v -1.903750 12.575000 196.720000
v -1.667500 12.575000 196.720000
v -1.903750 12.575000 197.440000
v -1.667500 12.575000 197.440000
v -1.903750 12.575000 198.160000
v -1.903750 12.575000 198.880000
v -1.903750 12.575000 199.600000
v -1.903750 12.575000 200.320000
v -1.903750 12.575000 201.040000
v -1.903750 12.575000 201.760000
v -1.903750 12.575000 202.480000
v -1.903750 12.575000 203.200000
v -1.903750 12.575000 203.920000
v -1.903750 12.575000 204.640000
v -1.667500 12.575000 204.640000
v -1.903750 14.060000 195.280000
v -1.903750 14.060000 196.000000
v -1.667500 14.060000 196.000000
v -1.667500 14.060000 195.280000
v -1.903750 14.060000 196.720000
v -1.667500 14.060000 196.720000
v -1.903750 14.060000 197.440000
v -1.667500 14.060000 197.440000
v -1.903750 14.060000 198.160000
v -1.903750 14.060000 198.880000
v -1.903750 14.060000 199.600000
v -1.903750 14.060000 200.320000
v -1.903750 14.060000 201.040000
v -1.903750 14.060000 201.760000
v -1.903750 14.060000 202.480000
v -1.903750 14.060000 203.200000
v -1.903750 14.060000 203.920000
v -1.903750 14.060000 204.640000
v -1.667500 14.060000 204.640000
v -1.903750 15.545000 195.280000
v -1.903750 15.545000 196.000000
v -1.667500 15.545000 196.000000
v -1.667500 15.545000 195.280000
v -1.903750 15.545000 196.720000
v -1.667500 15.545000 196.720000
v -1.903750 15.545000 197.440000
v -1.667500 15.545000 197.440000
v -1.903750 15.545000 198.160000
v -1.903750 15.545000 198.880000
v -1.903750 15.545000 199.600000
v -1.903750 15.545000 200.320000
v -1.903750 15.545000 201.040000
v -1.903750 15.545000 201.760000
v -1.903750 15.545000 202.480000
v -1.903750 15.545000 203.200000
v -1.903750 15.545000 203.920000
v -1.903750 15.545000 204.640000
v -1.667500 15.545000 204.640000
v -1.903750 17.030000 195.280000
v -1.903750 17.030000 196.000000
v -1.667500 17.030000 196.000000
v -1.667500 17.030000 195.280000
v -1.903750 17.030000 196.720000
v -1.667500 17.030000 196.720000
v -1.903750 17.030000 197.440000
v -1.667500 17.030000 197.440000
v -1.903750 17.030000 198.160000
v -1.903750 17.030000 198.880000
v -1.903750 17.030000 199.600000
v -1.903750 17.030000 200.320000
v -1.903750 17.030000 201.040000
v -1.903750 17.030000 201.760000
v -1.903750 17.030000 202.480000
v -1.903750 17.030000 203.200000
v -1.903750 17.030000 203.920000
v -1.903750 17.030000 204.640000
v -1.667500 17.030000 204.640000
v -1.903750 18.515000 195.280000
v -1.903750 18.515000 196.000000
v -1.667500 18.515000 196.000000
v -1.667500 18.515000 195.280000
v -1.903750 18.515000 196.720000
v -1.667500 18.515000 196.720000
v -1.903750 18.515000 197.440000
v -1.667500 18.515000 197.440000
v -1.903750 18.515000 198.160000
v -1.903750 18.515000 198.880000
v -1.903750 18.515000 199.600000
v -1.903750 18.515000 200.320000
v -1.903750 18.515000 201.040000
v -1.903750 18.515000 201.760000
v -1.903750 18.515000 202.480000
v -1.903750 18.515000 203.200000
v -1.903750 18.515000 203.920000
v -1.903750 18.515000 204.640000
v -1.667500 18.515000 204.640000
v -1.903750 20.000000 195.280000
v -1.903750 20.000000 196.000000
v -1.667500 20.000000 196.000000
v -1.667500 20.000000 195.280000
v -1.903750 20.000000 196.720000
v -1.667500 20.000000 196.720000
v -1.903750 20.000000 197.440000
v -1.667500 20.000000 197.440000
v -1.903750 20.000000 198.160000
v -1.903750 20.000000 198.880000
v -1.903750 20.000000 199.600000
v -1.903750 20.000000 200.320000
v -1.903750 20.000000 201.040000
v -1.903750 20.000000 201.760000
v -1.903750 20.000000 202.480000
v -1.903750 20.000000 203.200000
v -1.903750 20.000000 203.920000
v -1.903750 20.000000 204.640000
v -1.667500 20.000000 204.640000
v -1.903750 21.485000 195.280000
v -1.903750 21.485000 196.000000
v -1.667500 21.485000 196.000000
v -1.667500 21.485000 195.280000
v -1.903750 21.485000 196.720000
v -1.667500 21.485000 196.720000
v -1.903750 21.485000 197.440000
v -1.667500 21.485000 197.440000
v -1.903750 21.485000 198.160000
v -1.903750 21.485000 198.880000
v -1.903750 21.485000 199.600000
v -1.903750 21.485000 200.320000
v -1.903750 21.485000 201.040000
v -1.903750 21.485000 201.760000
v -1.903750 21.485000 202.480000
v -1.903750 21.485000 203.200000
v -1.903750 21.485000 203.920000
v -1.903750 21.485000 204.640000
v -1.667500 21.485000 204.640000
v -1.903750 22.970000 195.280000
v -1.903750 22.970000 196.000000
v -1.667500 22.970000 196.000000
v -1.667500 22.970000 195.280000
v -1.903750 22.970000 196.720000
v -1.667500 22.970000 196.720000
v -1.903750 22.970000 197.440000
v -1.667500 22.970000 197.440000
v -1.903750 22.970000 198.160000
v -1.903750 22.970000 198.880000
v -1.903750 22.970000 199.600000
v -1.903750 22.970000 200.320000
v -1.903750 22.970000 201.040000
v -1.903750 22.970000 201.760000
v -1.903750 22.970000 202.480000
v -1.903750 22.970000 203.200000
v -1.903750 22.970000 203.920000
v -1.903750 22.970000 204.640000
v -1.667500 22.970000 204.640000
v -1.903750 24.455000 195.280000
v -1.903750 24.455000 196.000000
v -1.667500 24.455000 196.000000
v -1.667500 24.455000 195.280000
v -1.903750 24.455000 196.720000
v -1.667500 24.455000 196.720000
v -1.903750 24.455000 197.440000
v -1.667500 24.455000 197.440000
v -1.903750 24.455000 198.160000
v -1.903750 24.455000 198.880000
v -1.903750 24.455000 199.600000
v -1.903750 24.455000 200.320000
v -1.903750 24.455000 201.040000
v -1.903750 24.455000 201.760000
v -1.903750 24.455000 202.480000
v -1.903750 24.455000 203.200000
v -1.903750 24.455000 203.920000
v -1.903750 24.455000 204.640000
v -1.667500 24.455000 204.640000
v -1.903750 25.940000 195.280000
v -1.903750 25.940000 196.000000
v -1.667500 25.940000 196.000000
v -1.667500 25.940000 195.280000
v -1.903750 25.940000 196.720000
v -1.667500 25.940000 196.720000
v -1.903750 25.940000 197.440000
v -1.667500 25.940000 197.440000
v -1.903750 25.940000 198.160000
v -1.903750 25.940000 198.880000
v -1.903750 25.940000 199.600000
v -1.903750 25.940000 200.320000
v -1.903750 25.940000 201.040000
v -1.903750 25.940000 201.760000
v -1.903750 25.940000 202.480000
v -1.903750 25.940000 203.200000
v -1.903750 25.940000 203.920000
v -1.903750 25.940000 204.640000
v -1.667500 25.940000 204.640000
v -1.903750 27.425000 195.280000
v -1.903750 27.425000 196.000000
v -1.667500 27.425000 196.000000
v -1.667500 27.425000 195.280000
v -1.903750 27.425000 196.720000
v -1.667500 27.425000 196.720000
v -1.903750 27.425000 197.440000
v -1.667500 27.425000 197.440000
v -1.903750 27.425000 198.160000
v -1.903750 27.425000 198.880000
v -1.903750 27.425000 199.600000
v -1.903750 27.425000 200.320000
v -1.903750 27.425000 201.040000
v -1.903750 27.425000 201.760000
v -1.903750 27.425000 202.480000
v -1.903750 27.425000 203.200000
v -1.903750 27.425000 203.920000
v -1.903750 27.425000 204.640000
v -1.667500 27.425000 204.640000
v -1.903750 28.910000 195.280000
v -1.903750 28.910000 196.000000
v -1.667500 28.910000 196.000000
v -1.667500 28.910000 195.280000
v -1.903750 28.910000 196.720000
v -1.667500 28.910000 196.720000
v -1.903750 28.910000 197.440000
v -1.667500 28.910000 197.440000
v -1.903750 28.910000 198.160000
v -1.903750 28.910000 198.880000
v -1.903750 28.910000 199.600000
v -1.903750 28.910000 200.320000
v -1.903750 28.910000 201.040000
v -1.903750 28.910000 201.760000
v -1.903750 28.910000 202.480000
v -1.903750 28.910000 203.200000
v -1.903750 28.910000 203.920000
v -1.903750 28.910000 204.640000
v -1.667500 28.910000 204.640000
v -1.903750 30.395000 195.280000
v -1.903750 30.395000 196.000000
v -1.667500 30.395000 196.000000
v -1.667500 30.395000 195.280000
v -1.903750 30.395000 196.720000
v -1.667500 30.395000 196.720000
v -1.903750 30.395000 197.440000
v -1.667500 30.395000 197.440000
v -1.903750 30.395000 198.160000
v -1.667500 30.395000 198.160000
v -1.903750 30.395000 198.880000
v -1.667500 30.395000 198.880000
v -1.903750 30.395000 199.600000
v -1.667500 30.395000 199.600000
v -1.903750 30.395000 200.320000
v -1.667500 30.395000 200.320000
v -1.903750 30.395000 201.040000
v -1.667500 30.395000 201.040000
v -1.903750 30.395000 201.760000
v -1.667500 30.395000 201.760000
v -1.903750 30.395000 202.480000
v -1.667500 30.395000 202.480000
v -1.903750 30.395000 203.200000
v -1.667500 30.395000 203.200000
v -1.903750 30.395000 203.920000
v -1.667500 30.395000 203.920000
v -1.903750 30.395000 204.640000
v -1.667500 30.395000 204.640000
v -1.431250 9.605000 197.440000
v -1.431250 9.605000 198.160000
v -1.431250 11.090000 198.160000
v -1.431250 11.090000 197.440000
v -1.431250 9.605000 198.880000
v -1.431250 11.090000 198.880000
v -1.431250 9.605000 199.600000
v -1.431250 11.090000 199.600000
v -1.431250 9.605000 200.320000
v -1.431250 9.605000 201.040000
v -1.431250 9.605000 201.760000
v -1.431250 9.605000 202.480000
v -1.431250 9.605000 203.200000
v -1.431250 9.605000 203.920000
v -1.431250 9.605000 204.640000
v -1.431250 11.090000 204.640000
v -1.431250 12.575000 198.160000
v -1.431250 12.575000 197.440000
v -1.431250 12.575000 198.880000
v -1.431250 12.575000 199.600000
v -1.431250 12.575000 204.640000
v -1.431250 14.060000 198.160000
v -1.431250 14.060000 197.440000
v -1.431250 14.060000 198.880000
v -1.431250 14.060000 199.600000
v -1.431250 14.060000 204.640000
v -1.431250 15.545000 198.160000
v -1.431250 15.545000 197.440000
v -1.431250 15.545000 198.880000
v -1.431250 15.545000 199.600000
v -1.431250 15.545000 204.640000
v -1.431250 17.030000 198.160000
v -1.431250 17.030000 197.440000
v -1.431250 17.030000 198.880000
v -1.431250 17.030000 199.600000
v -1.431250 17.030000 204.640000
v -1.431250 18.515000 198.160000
v -1.431250 18.515000 197.440000
v -1.431250 18.515000 198.880000
v -1.431250 18.515000 199.600000
v -1.431250 18.515000 204.640000
v -1.431250 20.000000 198.160000
v -1.431250 20.000000 197.440000
v -1.431250 20.000000 198.880000
v -1.431250 20.000000 199.600000
v -1.431250 20.000000 204.640000
v -1.431250 21.485000 198.160000
v -1.431250 21.485000 197.440000
v -1.431250 21.485000 198.880000
v -1.431250 21.485000 199.600000
v -1.431250 21.485000 204.640000
v -1.431250 22.970000 198.160000
v -1.431250 22.970000 197.440000
v -1.431250 22.970000 198.880000
v -1.431250 22.970000 199.600000
v -1.431250 22.970000 204.640000
v -1.431250 24.455000 198.160000
v -1.431250 24.455000 197.440000
v -1.431250 24.455000 198.880000
v -1.431250 24.455000 199.600000
v -1.431250 24.455000 204.640000
v -1.431250 25.940000 198.160000
v -1.431250 25.940000 197.440000
v -1.431250 25.940000 198.880000
v -1.431250 25.940000 199.600000
v -1.431250 25.940000 204.640000
v -1.431250 27.425000 198.160000
v -1.431250 27.425000 197.440000
v -1.431250 27.425000 198.880000
v -1.431250 27.425000 199.600000
v -1.431250 27.425000 204.640000
v -1.431250 28.910000 198.160000
v -1.431250 28.910000 197.440000
v -1.431250 28.910000 198.880000
v -1.431250 28.910000 199.600000
v -1.431250 28.910000 204.640000
v -1.431250 30.395000 198.160000
v -1.431250 30.395000 197.440000
v -1.431250 30.395000 198.880000
v -1.431250 30.395000 199.600000
v -1.431250 30.395000 200.320000
v -1.431250 30.395000 201.040000
v -1.431250 30.395000 201.760000
v -1.431250 30.395000 202.480000
v -1.431250 30.395000 203.200000
v -1.431250 30.395000 203.920000
v -1.431250 30.395000 204.640000
v -1.195000 9.605000 199.600000
v -1.195000 9.605000 200.320000
v -1.195000 11.090000 200.320000
v -1.195000 11.090000 199.600000
v -1.195000 9.605000 201.040000
v -1.195000 11.090000 201.040000
v -1.195000 9.605000 201.760000
v -1.195000 9.605000 202.480000
v -1.195000 9.605000 203.200000
v -1.195000 9.605000 203.920000
v -1.195000 9.605000 204.640000
v -1.195000 11.090000 204.640000
v -1.195000 12.575000 200.320000
v -1.195000 12.575000 199.600000
v -1.195000 12.575000 201.040000
v -1.195000 12.575000 204.640000
v -1.195000 14.060000 200.320000
v -1.195000 14.060000 199.600000
v -1.195000 14.060000 201.040000
v -1.195000 14.060000 204.640000
v -1.195000 15.545000 200.320000
v -1.195000 15.545000 199.600000
v -1.195000 15.545000 201.040000
v -1.195000 15.545000 204.640000
v -1.195000 17.030000 200.320000
v -1.195000 17.030000 199.600000
v -1.195000 17.030000 201.040000
v -1.195000 17.030000 204.640000
v -1.195000 18.515000 200.320000
v -1.195000 18.515000 199.600000
v -1.195000 18.515000 201.040000
v -1.195000 18.515000 204.640000
v -1.195000 20.000000 200.320000
v -1.195000 20.000000 199.600000
v -1.195000 20.000000 201.040000
v -1.195000 20.000000 204.640000
v -1.195000 21.485000 200.320000
v -1.195000 21.485000 199.600000
v -1.195000 21.485000 201.040000
v -1.195000 21.485000 204.640000
v -1.195000 22.970000 200.320000
v -1.195000 22.970000 199.600000
v -1.195000 22.970000 201.040000
v -1.195000 22.970000 204.640000
v -1.195000 24.455000 200.320000
v -1.195000 24.455000 199.600000
v -1.195000 24.455000 201.040000
v -1.195000 24.455000 204.640000
v -1.195000 25.940000 200.320000
v -1.195000 25.940000 199.600000
v -1.195000 25.940000 201.040000
v -1.195000 25.940000 204.640000
v -1.195000 27.425000 200.320000
v -1.195000 27.425000 199.600000
v -1.195000 27.425000 201.040000
v -1.195000 27.425000 204.640000
v -1.195000 28.910000 200.320000
v -1.195000 28.910000 199.600000
v -1.195000 28.910000 201.040000
v -1.195000 28.910000 204.640000
v -1.195000 30.395000 200.320000
v -1.195000 30.395000 199.600000
v -1.195000 30.395000 201.040000
v -1.195000 30.395000 201.760000
v -1.195000 30.395000 202.480000
v -1.195000 30.395000 203.200000
v -1.195000 30.395000 203.920000
v -1.195000 30.395000 204.640000
v -0.958750 9.605000 201.040000
v -0.958750 9.605000 201.760000
v -0.958750 11.090000 201.760000
v -0.958750 11.090000 201.040000
v -0.958750 9.605000 202.480000
v -0.958750 11.090000 202.480000
v -0.958750 9.605000 203.200000
v -0.958750 9.605000 203.920000
v -0.958750 9.605000 204.640000
v -0.958750 11.090000 204.640000
v -0.958750 12.575000 201.760000
v -0.958750 12.575000 201.040000
v -0.958750 12.575000 202.480000
v -0.958750 12.575000 204.640000
v -0.958750 14.060000 201.760000
v -0.958750 14.060000 201.040000
v -0.958750 14.060000 202.480000
v -0.958750 14.060000 204.640000
v -0.958750 15.545000 201.760000
v -0.958750 15.545000 201.040000
v -0.958750 15.545000 202.480000
v -0.958750 15.545000 204.640000
v -0.958750 17.030000 201.760000
v -0.958750 17.030000 201.040000
v -0.958750 17.030000 202.480000
v -0.958750 17.030000 204.640000
v -0.958750 18.515000 201.760000
v -0.958750 18.515000 201.040000
v -0.958750 18.515000 202.480000
v -0.958750 18.515000 204.640000
v -0.958750 20.000000 201.760000
v -0.958750 20.000000 201.040000
v -0.958750 20.000000 202.480000
v -0.958750 20.000000 204.640000
v -0.958750 21.485000 201.760000
v -0.958750 21.485000 201.040000
v -0.958750 21.485000 202.480000
v -0.958750 21.485000 204.640000
v -0.958750 22.970000 201.760000
v -0.958750 22.970000 201.040000
v -0.958750 22.970000 202.480000
v -0.958750 22.970000 204.640000
v -0.958750 24.455000 201.760000
v -0.958750 24.455000 201.040000
v -0.958750 24.455000 202.480000
v -0.958750 24.455000 204.640000
v -0.958750 25.940000 201.760000
v -0.958750 25.940000 201.040000
v -0.958750 25.940000 202.480000
v -0.958750 25.940000 204.640000
v -0.958750 27.425000 201.760000
v -0.958750 27.425000 201.040000
v -0.958750 27.425000 202.480000
v -0.958750 27.425000 204.640000
v -0.958750 28.910000 201.760000
v -0.958750 28.910000 201.040000
v -0.958750 28.910000 202.480000
v -0.958750 28.910000 204.640000
v -0.958750 30.395000 201.760000
v -0.958750 30.395000 201.040000
v -0.958750 30.395000 202.480000
v -0.958750 30.395000 203.200000
v -0.958750 30.395000 203.920000
v -0.958750 30.395000 204.640000
v -0.722500 9.605000 202.480000
v -0.722500 9.605000 203.200000
v -0.722500 11.090000 203.200000
v -0.722500 11.090000 202.480000
v -0.722500 9.605000 203.920000
v -0.722500 9.605000 204.640000
v -0.722500 11.090000 204.640000
v -0.722500 12.575000 203.200000
v -0.722500 12.575000 202.480000
v -0.722500 12.575000 204.640000
v -0.722500 14.060000 203.200000
v -0.722500 14.060000 202.480000
v -0.722500 14.060000 204.640000
v -0.722500 15.545000 203.200000
v -0.722500 15.545000 202.480000
v -0.722500 15.545000 204.640000
v -0.722500 17.030000 203.200000
v -0.722500 17.030000 202.480000
v -0.722500 17.030000 204.640000
v -0.722500 18.515000 203.200000
v -0.722500 18.515000 202.480000
v -0.722500 18.515000 204.640000
v -0.722500 20.000000 203.200000
v -0.722500 20.000000 202.480000
v -0.722500 20.000000 204.640000
v -0.722500 21.485000 203.200000
v -0.722500 21.485000 202.480000
v -0.722500 21.485000 204.640000
v -0.722500 22.970000 203.200000
v -0.722500 22.970000 202.480000
v -0.722500 22.970000 204.640000
v -0.722500 24.455000 203.200000
v -0.722500 24.455000 202.480000
v -0.722500 24.455000 204.640000
v -0.722500 25.940000 203.200000
v -0.722500 25.940000 202.480000
v -0.722500 25.940000 204.640000
v -0.722500 27.425000 203.200000
v -0.722500 27.425000 202.480000
v -0.722500 27.425000 204.640000
v -0.722500 28.910000 203.200000
v -0.722500 28.910000 202.480000
v -0.722500 28.910000 204.640000
v -0.722500 30.395000 203.200000
v -0.722500 30.395000 202.480000
v -0.722500 30.395000 203.920000
v -0.722500 30.395000 204.640000
v -0.486250 9.605000 203.200000
v -0.486250 9.605000 203.920000
v -0.486250 11.090000 203.920000
v -0.486250 11.090000 203.200000
v -0.486250 9.605000 204.640000
v -0.486250 11.090000 204.640000
v -0.486250 12.575000 203.920000
v -0.486250 12.575000 203.200000
v -0.486250 12.575000 204.640000
v -0.486250 14.060000 203.920000
v -0.486250 14.060000 203.200000
v -0.486250 14.060000 204.640000
v -0.486250 15.545000 203.920000
v -0.486250 15.545000 203.200000
v -0.486250 15.545000 204.640000
v -0.486250 17.030000 203.920000
v -0.486250 17.030000 203.200000
v -0.486250 17.030000 204.640000
v -0.486250 18.515000 203.920000
v -0.486250 18.515000 203.200000
v -0.486250 18.515000 204.640000
v -0.486250 20.000000 203.920000
v -0.486250 20.000000 203.200000
v -0.486250 20.000000 204.640000
v -0.486250 21.485000 203.920000
v -0.486250 21.485000 203.200000
v -0.486250 21.485000 204.640000
v -0.486250 22.970000 203.920000
v -0.486250 22.970000 203.200000
v -0.486250 22.970000 204.640000
v -0.486250 24.455000 203.920000
v -0.486250 24.455000 203.200000
v -0.486250 24.455000 204.640000
v -0.486250 25.940000 203.920000
v -0.486250 25.940000 203.200000
v -0.486250 25.940000 204.640000
v -0.486250 27.425000 203.920000
v -0.486250 27.425000 203.200000
v -0.486250 27.425000 204.640000
v -0.486250 28.910000 203.920000
v -0.486250 28.910000 203.200000
v -0.486250 28.910000 204.640000
v -0.486250 30.395000 203.920000
v -0.486250 30.395000 203.200000
v -0.486250 30.395000 204.640000
v -0.250000 9.605000 203.920000
v -0.250000 9.605000 204.640000
v -0.250000 11.090000 203.920000
v -0.250000 11.090000 204.640000
v -0.250000 12.575000 203.920000
v -0.250000 12.575000 204.640000
v -0.250000 14.060000 203.920000
v -0.250000 14.060000 204.640000
v -0.250000 15.545000 203.920000
v -0.250000 15.545000 204.640000
v -0.250000 17.030000 203.920000
v -0.250000 17.030000 204.640000
v -0.250000 18.515000 203.920000
v -0.250000 18.515000 204.640000
v -0.250000 20.000000 203.920000
v -0.250000 20.000000 204.640000
v -0.250000 21.485000 203.920000
v -0.250000 21.485000 204.640000
v -0.250000 22.970000 203.920000
v -0.250000 22.970000 204.640000
v -0.250000 24.455000 203.920000
v -0.250000 24.455000 204.640000
v -0.250000 25.940000 203.920000
v -0.250000 25.940000 204.640000
v -0.250000 27.425000 203.920000
v -0.250000 27.425000 204.640000
v -0.250000 28.910000 203.920000
v -0.250000 28.910000 204.640000
v -0.250000 30.395000 204.640000
v -0.250000 30.395000 203.920000
v -0.013750 9.605000 203.920000
v -0.013750 9.605000 204.640000
v -0.013750 11.090000 203.920000
v -0.013750 11.090000 204.640000
v -0.013750 12.575000 203.920000
v -0.013750 12.575000 204.640000
v -0.013750 14.060000 203.920000
v -0.013750 14.060000 204.640000
v -0.013750 15.545000 203.920000
v -0.013750 15.545000 204.640000
v -0.013750 17.030000 203.920000
v -0.013750 17.030000 204.640000
v -0.013750 18.515000 203.920000
v -0.013750 18.515000 204.640000
v -0.013750 20.000000 203.920000
v -0.013750 20.000000 204.640000
v -0.013750 21.485000 203.920000
v -0.013750 21.485000 204.640000
v -0.013750 22.970000 203.920000
v -0.013750 22.970000 204.640000
v -0.013750 24.455000 203.920000
v -0.013750 24.455000 204.640000
v -0.013750 25.940000 203.920000
v -0.013750 25.940000 204.640000
v -0.013750 27.425000 203.920000
v -0.013750 27.425000 204.640000
v -0.013750 28.910000 203.920000
v -0.013750 28.910000 204.640000
v -0.013750 30.395000 204.640000
v -0.013750 30.395000 203.920000
v 0.222500 9.605000 203.920000
v 0.222500 9.605000 204.640000
v 0.222500 11.090000 203.920000
v 0.222500 11.090000 204.640000
v 0.222500 12.575000 203.920000
v 0.222500 12.575000 204.640000
v 0.222500 14.060000 203.920000
v 0.222500 14.060000 204.640000
v 0.222500 15.545000 203.920000
v 0.222500 15.545000 204.640000
v 0.222500 17.030000 203.920000
v 0.222500 17.030000 204.640000
v 0.222500 18.515000 203.920000
v 0.222500 18.515000 204.640000
v 0.222500 20.000000 203.920000
v 0.222500 20.000000 204.640000
v 0.222500 21.485000 203.920000
v 0.222500 21.485000 204.640000
v 0.222500 22.970000 203.920000
v 0.222500 22.970000 204.640000
v 0.222500 24.455000 203.920000
v 0.222500 24.455000 204.640000
v 0.222500 25.940000 203.920000
v 0.222500 25.940000 204.640000
v 0.222500 27.425000 203.920000
v 0.222500 27.425000 204.640000
v 0.222500 28.910000 203.920000
v 0.222500 28.910000 204.640000
v 0.222500 30.395000 204.640000
v 0.222500 30.395000 203.920000
v 0.222500 9.605000 203.200000
v 0.222500 11.090000 203.200000
v 0.458750 9.605000 203.200000
v 0.458750 9.605000 203.920000
v 0.458750 11.090000 203.200000
v 0.458750 9.605000 204.640000
v 0.458750 11.090000 204.640000
v 0.222500 12.575000 203.200000
v 0.458750 12.575000 203.200000
v 0.458750 12.575000 204.640000
v 0.222500 14.060000 203.200000
v 0.458750 14.060000 203.200000
v 0.458750 14.060000 204.640000
v 0.222500 15.545000 203.200000
v 0.458750 15.545000 203.200000
v 0.458750 15.545000 204.640000
v 0.222500 17.030000 203.200000
v 0.458750 17.030000 203.200000
v 0.458750 17.030000 204.640000
v 0.222500 18.515000 203.200000
v 0.458750 18.515000 203.200000
v 0.458750 18.515000 204.640000
v 0.222500 20.000000 203.200000
v 0.458750 20.000000 203.200000
v 0.458750 20.000000 204.640000
v 0.222500 21.485000 203.200000
v 0.458750 21.485000 203.200000
v 0.458750 21.485000 204.640000
v 0.222500 22.970000 203.200000
v 0.458750 22.970000 203.200000
v 0.458750 22.970000 204.640000
v 0.222500 24.455000 203.200000
v 0.458750 24.455000 203.200000
v 0.458750 24.455000 204.640000
v 0.222500 25.940000 203.200000
v 0.458750 25.940000 203.200000
v 0.458750 25.940000 204.640000
v 0.222500 27.425000 203.200000
v 0.458750 27.425000 203.200000
v 0.458750 27.425000 204.640000
v 0.222500 28.910000 203.200000
v 0.458750 28.910000 203.200000
v 0.458750 28.910000 204.640000
v 0.222500 30.395000 203.200000
v 0.458750 30.395000 203.920000
v 0.458750 30.395000 203.200000
v 0.458750 30.395000 204.640000
v 0.458750 9.605000 201.760000
v 0.458750 11.090000 201.760000
v 0.458750 11.090000 202.480000
v 0.458750 9.605000 202.480000
v 0.695000 9.605000 201.760000
v 0.695000 9.605000 202.480000
v 0.695000 11.090000 201.760000
v 0.695000 9.605000 203.200000
v 0.695000 9.605000 203.920000
v 0.695000 9.605000 204.640000
v 0.695000 11.090000 204.640000
v 0.458750 12.575000 201.760000
v 0.458750 12.575000 202.480000
v 0.695000 12.575000 201.760000
v 0.695000 12.575000 204.640000
v 0.458750 14.060000 201.760000
v 0.458750 14.060000 202.480000
v 0.695000 14.060000 201.760000
v 0.695000 14.060000 204.640000
v 0.458750 15.545000 201.760000
v 0.458750 15.545000 202.480000
v 0.695000 15.545000 201.760000
v 0.695000 15.545000 204.640000
v 0.458750 17.030000 201.760000
v 0.458750 17.030000 202.480000
v 0.695000 17.030000 201.760000
v 0.695000 17.030000 204.640000
v 0.458750 18.515000 201.760000
v 0.458750 18.515000 202.480000
v 0.695000 18.515000 201.760000
v 0.695000 18.515000 204.640000
v 0.458750 20.000000 201.760000
v 0.458750 20.000000 202.480000
v 0.695000 20.000000 201.760000
v 0.695000 20.000000 204.640000
v 0.458750 21.485000 201.760000
v 0.458750 21.485000 202.480000
v 0.695000 21.485000 201.760000
v 0.695000 21.485000 204.640000
v 0.458750 22.970000 201.760000
v 0.458750 22.970000 202.480000
v 0.695000 22.970000 201.760000
v 0.695000 22.970000 204.640000
v 0.458750 24.455000 201.760000
v 0.458750 24.455000 202.480000
v 0.695000 24.455000 201.760000
v 0.695000 24.455000 204.640000
v 0.458750 25.940000 201.760000
v 0.458750 25.940000 202.480000
v 0.695000 25.940000 201.760000
v 0.695000 25.940000 204.640000
v 0.458750 27.425000 201.760000
v 0.458750 27.425000 202.480000
v 0.695000 27.425000 201.760000
v 0.695000 27.425000 204.640000
v 0.458750 28.910000 201.760000
v 0.458750 28.910000 202.480000
v 0.695000 28.910000 201.760000
v 0.695000 28.910000 204.640000
v 0.458750 30.395000 201.760000
v 0.458750 30.395000 202.480000
v 0.695000 30.395000 202.480000
v 0.695000 30.395000 201.760000
v 0.695000 30.395000 203.200000
v 0.695000 30.395000 203.920000
v 0.695000 30.395000 204.640000
v 0.695000 9.605000 200.320000
v 0.695000 11.090000 200.320000
v 0.695000 11.090000 201.040000
v 0.695000 9.605000 201.040000
v 0.931250 9.605000 200.320000
v 0.931250 9.605000 201.040000
v 0.931250 11.090000 200.320000
v 0.931250 9.605000 201.760000
v 0.931250 9.605000 202.480000
v 0.931250 9.605000 203.200000
v 0.931250 9.605000 203.920000
v 0.931250 9.605000 204.640000
v 0.931250 11.090000 204.640000
v 0.695000 12.575000 200.320000
v 0.695000 12.575000 201.040000
v 0.931250 12.575000 200.320000
v 0.931250 12.575000 204.640000
v 0.695000 14.060000 200.320000
v 0.695000 14.060000 201.040000
v 0.931250 14.060000 200.320000
v 0.931250 14.060000 204.640000
v 0.695000 15.545000 200.320000
v 0.695000 15.545000 201.040000
v 0.931250 15.545000 200.320000
v 0.931250 15.545000 204.640000
v 0.695000 17.030000 200.320000
v 0.695000 17.030000 201.040000
v 0.931250 17.030000 200.320000
v 0.931250 17.030000 204.640000
v 0.695000 18.515000 200.320000
v 0.695000 18.515000 201.040000
v 0.931250 18.515000 200.320000
v 0.931250 18.515000 204.640000
v 0.695000 20.000000 200.320000
v 0.695000 20.000000 201.040000
v 0.931250 20.000000 200.320000
v 0.931250 20.000000 204.640000
v 0.695000 21.485000 200.320000
v 0.695000 21.485000 201.040000
v 0.931250 21.485000 200.320000
v 0.931250 21.485000 204.640000
v 0.695000 22.970000 200.320000
v 0.695000 22.970000 201.040000
v 0.931250 22.970000 200.320000
v 0.931250 22.970000 204.640000
v 0.695000 24.455000 200.320000
v 0.695000 24.455000 201.040000
v 0.931250 24.455000 200.320000
v 0.931250 24.455000 204.640000
v 0.695000 25.940000 200.320000
v 0.695000 25.940000 201.040000
v 0.931250 25.940000 200.320000
v 0.931250 25.940000 204.640000
v 0.695000 27.425000 200.320000
v 0.695000 27.425000 201.040000
v 0.931250 27.425000 200.320000
v 0.931250 27.425000 204.640000
v 0.695000 28.910000 200.320000
v 0.695000 28.910000 201.040000
v 0.931250 28.910000 200.320000
v 0.931250 28.910000 204.640000
v 0.695000 30.395000 200.320000
v 0.695000 30.395000 201.040000
v 0.931250 30.395000 201.040000
v 0.931250 30.395000 200.320000
v 0.931250 30.395000 201.760000
v 0.931250 30.395000 202.480000
v 0.931250 30.395000 203.200000
v 0.931250 30.395000 203.920000
v 0.931250 30.395000 204.640000
v 0.931250 9.605000 198.160000
v 0.931250 11.090000 198.160000
v 0.931250 11.090000 198.880000
v 0.931250 9.605000 198.880000
v 1.167500 9.605000 198.160000
v 1.167500 9.605000 198.880000
v 1.167500 11.090000 198.160000
v 0.931250 11.090000 199.600000
v 0.931250 9.605000 199.600000
v 1.167500 9.605000 199.600000
v 1.167500 9.605000 200.320000
v 1.167500 9.605000 201.040000
v 1.167500 9.605000 201.760000
v 1.167500 9.605000 202.480000
v 1.167500 9.605000 203.200000
v 1.167500 9.605000 203.920000
v 1.167500 9.605000 204.640000
v 1.167500 11.090000 204.640000
v 0.931250 12.575000 198.160000
v 0.931250 12.575000 198.880000
v 1.167500 12.575000 198.160000
v 0.931250 12.575000 199.600000
v 1.167500 12.575000 204.640000
v 0.931250 14.060000 198.160000
v 0.931250 14.060000 198.880000
v 1.167500 14.060000 198.160000
v 0.931250 14.060000 199.600000
v 1.167500 14.060000 204.640000
v 0.931250 15.545000 198.160000
v 0.931250 15.545000 198.880000
v 1.167500 15.545000 198.160000
v 0.931250 15.545000 199.600000
v 1.167500 15.545000 204.640000
v 0.931250 17.030000 198.160000
v 0.931250 17.030000 198.880000
v 1.167500 17.030000 198.160000
v 0.931250 17.030000 199.600000
v 1.167500 17.030000 204.640000
v 0.931250 18.515000 198.160000
v 0.931250 18.515000 198.880000
v 1.167500 18.515000 198.160000
v 0.931250 18.515000 199.600000
v 1.167500 18.515000 204.640000
v 0.931250 20.000000 198.160000
v 0.931250 20.000000 198.880000
v 1.167500 20.000000 198.160000
v 0.931250 20.000000 199.600000
v 1.167500 20.000000 204.640000
v 0.931250 21.485000 198.160000
v 0.931250 21.485000 198.880000
v 1.167500 21.485000 198.160000
v 0.931250 21.485000 199.600000
v 1.167500 21.485000 204.640000
v 0.931250 22.970000 198.160000
v 0.931250 22.970000 198.880000
v 1.167500 22.970000 198.160000
v 0.931250 22.970000 199.600000
v 1.167500 22.970000 204.640000
v 0.931250 24.455000 198.160000
v 0.931250 24.455000 198.880000
v 1.167500 24.455000 198.160000
v 0.931250 24.455000 199.600000
v 1.167500 24.455000 204.640000
v 0.931250 25.940000 198.160000
v 0.931250 25.940000 198.880000
v 1.167500 25.940000 198.160000
v 0.931250 25.940000 199.600000
v 1.167500 25.940000 204.640000
v 0.931250 27.425000 198.160000
v 0.931250 27.425000 198.880000
v 1.167500 27.425000 198.160000
v 0.931250 27.425000 199.600000
v 1.167500 27.425000 204.640000
v 0.931250 28.910000 198.160000
v 0.931250 28.910000 198.880000
v 1.167500 28.910000 198.160000
v 0.931250 28.910000 199.600000
v 1.167500 28.910000 204.640000
v 0.931250 30.395000 198.160000
v 0.931250 30.395000 198.880000
v 1.167500 30.395000 198.880000
v 1.167500 30.395000 198.160000
v 0.931250 30.395000 199.600000
v 1.167500 30.395000 199.600000
v 1.167500 30.395000 200.320000
v 1.167500 30.395000 201.040000
v 1.167500 30.395000 201.760000
v 1.167500 30.395000 202.480000
v 1.167500 30.395000 203.200000
v 1.167500 30.395000 203.920000
v 1.167500 30.395000 204.640000
v 1.167500 9.605000 196.000000
v 1.167500 11.090000 196.000000
v 1.167500 11.090000 196.720000
v 1.167500 9.605000 196.720000
v 1.403750 9.605000 196.000000
v 1.403750 9.605000 196.720000
v 1.403750 11.090000 196.720000
v 1.403750 11.090000 196.000000
v 1.167500 11.090000 197.440000
v 1.167500 9.605000 197.440000
v 1.403750 9.605000 197.440000
v 1.403750 11.090000 197.440000
v 1.403750 9.605000 198.160000
v 1.403750 11.090000 198.160000
v 1.403750 9.605000 198.880000
v 1.403750 11.090000 198.880000
v 1.403750 9.605000 199.600000
v 1.403750 11.090000 199.600000
v 1.403750 9.605000 200.320000
v 1.403750 11.090000 200.320000
v 1.403750 9.605000 201.040000
v 1.403750 11.090000 201.040000
v 1.403750 9.605000 201.760000
v 1.403750 11.090000 201.760000
v 1.403750 9.605000 202.480000
v 1.403750 11.090000 202.480000
v 1.403750 9.605000 203.200000
v 1.403750 11.090000 203.200000
v 1.403750 9.605000 203.920000
v 1.403750 11.090000 203.920000
v 1.403750 9.605000 204.640000
v 1.403750 11.090000 204.640000
v 1.167500 12.575000 196.000000
v 1.167500 12.575000 196.720000
v 1.403750 12.575000 196.720000
v 1.403750 12.575000 196.000000
v 1.167500 12.575000 197.440000
v 1.403750 12.575000 197.440000
v 1.403750 12.575000 198.160000
v 1.403750 12.575000 198.880000
v 1.403750 12.575000 199.600000
v 1.403750 12.575000 200.320000
v 1.403750 12.575000 201.040000
v 1.403750 12.575000 201.760000
v 1.403750 12.575000 202.480000
v 1.403750 12.575000 203.200000
v 1.403750 12.575000 203.920000
v 1.403750 12.575000 204.640000
v 1.167500 14.060000 196.000000
v 1.167500 14.060000 196.720000
v 1.403750 14.060000 196.720000
v 1.403750 14.060000 196.000000
v 1.167500 14.060000 197.440000
v 1.403750 14.060000 197.440000
v 1.403750 14.060000 198.160000
v 1.403750 14.060000 198.880000
v 1.403750 14.060000 199.600000
v 1.403750 14.060000 200.320000
v 1.403750 14.060000 201.040000
v 1.403750 14.060000 201.760000
v 1.403750 14.060000 202.480000
v 1.403750 14.060000 203.200000
v 1.403750 14.060000 203.920000
v 1.403750 14.060000 204.640000
v 1.167500 15.545000 196.000000
v 1.167500 15.545000 196.720000
v 1.403750 15.545000 196.720000
v 1.403750 15.545000 196.000000
v 1.167500 15.545000 197.440000
v 1.403750 15.545000 197.440000
v 1.403750 15.545000 198.160000
v 1.403750 15.545000 198.880000
v 1.403750 15.545000 199.600000
v 1.403750 15.545000 200.320000
v 1.403750 15.545000 201.040000
v 1.403750 15.545000 201.760000
v 1.403750 15.545000 202.480000
v 1.403750 15.545000 203.200000
v 1.403750 15.545000 203.920000
v 1.403750 15.545000 204.640000
v 1.167500 17.030000 196.000000
v 1.167500 17.030000 196.720000
v 1.403750 17.030000 196.720000
v 1.403750 17.030000 196.000000
v 1.167500 17.030000 197.440000
v 1.403750 17.030000 197.440000
v 1.403750 17.030000 198.160000
v 1.403750 17.030000 198.880000
v 1.403750 17.030000 199.600000
v 1.403750 17.030000 200.320000
v 1.403750 17.030000 201.040000
v 1.403750 17.030000 201.760000
v 1.403750 17.030000 202.480000
v 1.403750 17.030000 203.200000
v 1.403750 17.030000 203.920000
v 1.403750 17.030000 204.640000
v 1.167500 18.515000 196.000000
v 1.167500 18.515000 196.720000
v 1.403750 18.515000 196.720000
v 1.403750 18.515000 196.000000
v 1.167500 18.515000 197.440000
v 1.403750 18.515000 197.440000
v 1.403750 18.515000 198.160000
v 1.403750 18.515000 198.880000
v 1.403750 18.515000 199.600000
v 1.403750 18.515000 200.320000
v 1.403750 18.515000 201.040000
v 1.403750 18.515000 201.760000
v 1.403750 18.515000 202.480000
v 1.403750 18.515000 203.200000
v 1.403750 18.515000 203.920000
v 1.403750 18.515000 204.640000
v 1.167500 20.000000 196.000000
v 1.167500 20.000000 196.720000
v 1.403750 20.000000 196.720000
v 1.403750 20.000000 196.000000
v 1.167500 20.000000 197.440000
v 1.403750 20.000000 197.440000
v 1.403750 20.000000 198.160000
v 1.403750 20.000000 198.880000
v 1.403750 20.000000 199.600000
v 1.403750 20.000000 200.320000
v 1.403750 20.000000 201.040000
v 1.403750 20.000000 201.760000
v 1.403750 20.000000 202.480000
v 1.403750 20.000000 203.200000
v 1.403750 20.000000 203.920000
v 1.403750 20.000000 204.640000
v 1.167500 21.485000 196.000000
v 1.167500 21.485000 196.720000
v 1.403750 21.485000 196.720000
v 1.403750 21.485000 196.000000
v 1.167500 21.485000 197.440000
v 1.403750 21.485000 197.440000
v 1.403750 21.485000 198.160000
v 1.403750 21.485000 198.880000
v 1.403750 21.485000 199.600000
v 1.403750 21.485000 200.320000
v 1.403750 21.485000 201.040000
v 1.403750 21.485000 201.760000
v 1.403750 21.485000 202.480000
v 1.403750 21.485000 203.200000
v 1.403750 21.485000 203.920000
v 1.403750 21.485000 204.640000
v 1.167500 22.970000 196.000000
v 1.167500 22.970000 196.720000
v 1.403750 22.970000 196.720000
v 1.403750 22.970000 196.000000
v 1.167500 22.970000 197.440000
v 1.403750 22.970000 197.440000
v 1.403750 22.970000 198.160000
v 1.403750 22.970000 198.880000
v 1.403750 22.970000 199.600000
v 1.403750 22.970000 200.320000
v 1.403750 22.970000 201.040000
v 1.403750 22.970000 201.760000
v 1.403750 22.970000 202.480000
v 1.403750 22.970000 203.200000
v 1.403750 22.970000 203.920000
v 1.403750 22.970000 204.640000
v 1.167500 24.455000 196.000000
v 1.167500 24.455000 196.720000
v 1.403750 24.455000 196.720000
v 1.403750 24.455000 196.000000
v 1.167500 24.455000 197.440000
v 1.403750 24.455000 197.440000
v 1.403750 24.455000 198.160000
v 1.403750 24.455000 198.880000
v 1.403750 24.455000 199.600000
v 1.403750 24.455000 200.320000
v 1.403750 24.455000 201.040000
v 1.403750 24.455000 201.760000
v 1.403750 24.455000 202.480000
v 1.403750 24.455000 203.200000
v 1.403750 24.455000 203.920000
v 1.403750 24.455000 204.640000
v 1.167500 25.940000 196.000000
v 1.167500 25.940000 196.720000
v 1.403750 25.940000 196.720000
v 1.403750 25.940000 196.000000
v 1.167500 25.940000 197.440000
v 1.403750 25.940000 197.440000
v 1.403750 25.940000 198.160000
v 1.403750 25.940000 198.880000
v 1.403750 25.940000 199.600000
v 1.403750 25.940000 200.320000
v 1.403750 25.940000 201.040000
v 1.403750 25.940000 201.760000
v 1.403750 25.940000 202.480000
v 1.403750 25.940000 203.200000
v 1.403750 25.940000 203.920000
v 1.403750 25.940000 204.640000
v 1.167500 27.425000 196.000000
v 1.167500 27.425000 196.720000
v 1.403750 27.425000 196.720000
v 1.403750 27.425000 196.000000
v 1.167500 27.425000 197.440000
v 1.403750 27.425000 197.440000
v 1.403750 27.425000 198.160000
v 1.403750 27.425000 198.880000
v 1.403750 27.425000 199.600000
v 1.403750 27.425000 200.320000
v 1.403750 27.425000 201.040000
v 1.403750 27.425000 201.760000
v 1.403750 27.425000 202.480000
v 1.403750 27.425000 203.200000
v 1.403750 27.425000 203.920000
v 1.403750 27.425000 204.640000
v 1.167500 28.910000 196.000000
v 1.167500 28.910000 196.720000
v 1.403750 28.910000 196.720000
v 1.403750 28.910000 196.000000
v 1.167500 28.910000 197.440000
v 1.403750 28.910000 197.440000
v 1.403750 28.910000 198.160000
v 1.403750 28.910000 198.880000
v 1.403750 28.910000 199.600000
v 1.403750 28.910000 200.320000
v 1.403750 28.910000 201.040000
v 1.403750 28.910000 201.760000
v 1.403750 28.910000 202.480000
v 1.403750 28.910000 203.200000
v 1.403750 28.910000 203.920000
v 1.403750 28.910000 204.640000
v 1.167500 30.395000 196.000000
v 1.167500 30.395000 196.720000
v 1.403750 30.395000 196.720000
v 1.403750 30.395000 196.000000
v 1.167500 30.395000 197.440000
v 1.403750 30.395000 197.440000
v 1.403750 30.395000 198.160000
v 1.403750 30.395000 198.880000
v 1.403750 30.395000 199.600000
v 1.403750 30.395000 200.320000
v 1.403750 30.395000 201.040000
v 1.403750 30.395000 201.760000
v 1.403750 30.395000 202.480000
v 1.403750 30.395000 203.200000
v 1.403750 30.395000 203.920000
v 1.403750 30.395000 204.640000
f 1 2 3
f 1 3 4
f 5 6 7
f 5 7 8
f 1 5 6
f 1 6 4
f 1 2 8
f 1 8 5
f 4 3 9
f 4 9 10
f 6 11 12
f 6 12 7
f 4 6 11
f 4 11 10
f 10 9 13
f 10 13 14
f 11 15 16
f 11 16 12
f 10 11 15
f 10 15 14
f 14 13 17
f 14 17 18
f 14 15 19
f 14 19 18
f 18 17 20
f 18 20 21
f 18 19 22
f 18 22 21
f 21 20 23
f 21 23 24
f 21 22 25
f 21 25 24
f 24 23 26
f 24 26 27
f 24 25 28
f 24 28 27
f 27 26 29
f 27 29 30
f 27 28 31
f 27 31 30
f 30 29 32
f 30 32 33
f 30 31 34
f 30 34 33
f 33 32 35
f 33 35 36
f 33 34 37
f 33 37 36
f 36 35 38
f 36 38 39
f 36 37 40
f 36 40 39
f 39 38 41
f 39 41 42
f 39 40 43
f 39 43 42
f 42 41 44
f 42 44 45
f 42 43 46
f 42 46 45
f 45 46 47
f 45 47 44
f 2 48 49
f 2 49 3
f 8 7 50
f 8 50 51
f 2 48 51
f 2 51 8
f 3 49 52
f 3 52 9
f 7 12 53
f 7 53 50
f 9 52 54
f 9 54 13
f 12 16 55
f 12 55 53
f 13 54 56
f 13 56 17
f 17 56 57
f 17 57 20
f 20 57 58
f 20 58 23
f 23 58 59
f 23 59 26
f 26 59 60
f 26 60 29
f 29 60 61
f 29 61 32
f 32 61 62
f 32 62 35
f 35 62 63
f 35 63 38
f 38 63 64
f 38 64 41
f 41 64 65
f 41 65 44
f 44 47 66
f 44 66 65
f 48 67 68
f 48 68 49
f 51 50 69
f 51 69 70
f 48 67 70
f 48 70 51
f 49 68 71
f 49 71 52
f 50 53 72
f 50 72 69
f 52 71 73
f 52 73 54
f 53 55 74
f 53 74 72
f 54 73 75
f 54 75 56
f 56 75 76
f 56 76 57
f 57 76 77
f 57 77 58
f 58 77 78
f 58 78 59
f 59 78 79
f 59 79 60
f 60 79 80
f 60 80 61
f 61 80 81
f 61 81 62
f 62 81 82
f 62 82 63
f 63 82 83
f 63 83 64
f 64 83 84
f 64 84 65
f 65 66 85
f 65 85 84
f 67 86 87
f 67 87 68
f 70 69 88
f 70 88 89
f 67 86 89
f 67 89 70
f 68 87 90
f 68 90 71
f 69 72 91
f 69 91 88
f 71 90 92
f 71 92 73
f 72 74 93
f 72 93 91
f 73 92 94
f 73 94 75
f 75 94 95
f 75 95 76
f 76 95 96
f 76 96 77
f 77 96 97
f 77 97 78
f 78 97 98
f 78 98 79
f 79 98 99
f 79 99 80
f 80 99 100
f 80 100 81
f 81 100 101
f 81 101 82
f 82 101 102
f 82 102 83
f 83 102 103
f 83 103 84
f 84 85 104
f 84 104 103
f 86 105 106
f 86 106 87
f 89 88 107
f 89 107 108
f 86 105 108
f 86 108 89
f 87 106 109
f 87 109 90
f 88 91 110
f 88 110 107
f 90 109 111
f 90 111 92
f 91 93 112
f 91 112 110
f 92 111 113
f 92 113 94
f 94 113 114
f 94 114 95
f 95 114 115
f 95 115 96
f 96 115 116
f 96 116 97
f 97 116 117
f 97 117 98
f 98 117 118
f 98 118 99
f 99 118 119
f 99 119 100
f 100 119 120
f 100 120 101
f 101 120 121
f 101 121 102
f 102 121 122
f 102 122 103
f 103 104 123
f 103 123 122
f 105 124 125
f 105 125 106
f 108 107 126
f 108 126 127
f 105 124 127
f 105 127 108
f 106 125 128
f 106 128 109
f 107 110 129
f 107 129 126
f 109 128 130
f 109 130 111
f 110 112 131
f 110 131 129
f 111 130 132
f 111 132 113
f 113 132 133
f 113 133 114
f 114 133 134
f 114 134 115
f 115 134 135
f 115 135 116
f 116 135 136
f 116 136 117
f 117 136 137
f 117 137 118
f 118 137 138
f 118 138 119
f 119 138 139
f 119 139 120
f 120 139 140
f 120 140 121
f 121 140 141
f 121 141 122
f 122 123 142
f 122 142 141
f 124 143 144
f 124 144 125
f 127 126 145
f 127 145 146
f 124 143 146
f 124 146 127
f 125 144 147
f 125 147 128
f 126 129 148
f 126 148 145
f 128 147 149
f 128 149 130
f 129 131 150
f 129 150 148
f 130 149 151
f 130 151 132
f 132 151 152
f 132 152 133
f 133 152 153
f 133 153 134
f 134 153 154
f 134 154 135
f 135 154 155
f 135 155 136
f 136 155 156
f 136 156 137
f 137 156 157
f 137 157 138
f 138 157 158
f 138 158 139
f 139 158 159
f 139 159 140
f 140 159 160
f 140 160 141
f 141 142 161
f 141 161 160
f 143 162 163
f 143 163 144
f 146 145 164
f 146 164 165
f 143 162 165
f 143 165 146
f 144 163 166
f 144 166 147
f 145 148 167
f 145 167 164
f 147 166 168
f 147 168 149
f 148 150 169
f 148 169 167
f 149 168 170
f 149 170 151
f 151 170 171
f 151 171 152
f 152 171 172
f 152 172 153
f 153 172 173
f 153 173 154
f 154 173 174
f 154 174 155
f 155 174 175
f 155 175 156
f 156 175 176
f 156 176 157
f 157 176 177
f 157 177 158
f 158 177 178
f 158 178 159
f 159 178 179
f 159 179 160
f 160 161 180
f 160 180 179
f 162 181 182
f 162 182 163
f 165 164 183
f 165 183 184
f 162 181 184
f 162 184 165
f 163 182 185
f 163 185 166
f 164 167 186
f 164 186 183
f 166 185 187
f 166 187 168
f 167 169 188
f 167 188 186
f 168 187 189
f 168 189 170
f 170 189 190
f 170 190 171
f 171 190 191
f 171 191 172
f 172 191 192
f 172 192 173
f 173 192 193
f 173 193 174
f 174 193 194
f 174 194 175
f 175 194 195
f 175 195 176
f 176 195 196
f 176 196 177
f 177 196 197
f 177 197 178
f 178 197 198
f 178 198 179
f 179 180 199
f 179 199 198
f 181 200 201
f 181 201 182
f 184 183 202
f 184 202 203
f 181 200 203
f 181 203 184
f 182 201 204
f 182 204 185
f 183 186 205
f 183 205 202
f 185 204 206
f 185 206 187
f 186 188 207
f 186 207 205
f 187 206 208
f 187 208 189
f 189 208 209
f 189 209 190
f 190 209 210
f 190 210 191
f 191 210 211
f 191 211 192
f 192 211 212
f 192 212 193
f 193 212 213
f 193 213 194
f 194 213 214
f 194 214 195
f 195 214 215
f 195 215 196
f 196 215 216
f 196 216 197
f 197 216 217
f 197 217 198
f 198 199 218
f 198 218 217
f 200 219 220
f 200 220 201
f 203 202 221
f 203 221 222
f 200 219 222
f 200 222 203
f 201 220 223
f 201 223 204
f 202 205 224
f 202 224 221
f 204 223 225
f 204 225 206
f 205 207 226
f 205 226 224
f 206 225 227
f 206 227 208
f 208 227 228
f 208 228 209
f 209 228 229
f 209 229 210
f 210 229 230
f 210 230 211
f 211 230 231
f 211 231 212
f 212 231 232
f 212 232 213
f 213 232 233
f 213 233 214
f 214 233 234
f 214 234 215
f 215 234 235
f 215 235 216
f 216 235 236
f 216 236 217
f 217 218 237
f 217 237 236
f 219 238 239
f 219 239 220
f 222 221 240
f 222 240 241
f 219 238 241
f 219 241 222
f 220 239 242
f 220 242 223
f 221 224 243
f 221 243 240
f 223 242 244
f 223 244 225
f 224 226 245
f 224 245 243
f 225 244 246
f 225 246 227
f 227 246 247
f 227 247 228
f 228 247 248
f 228 248 229
f 229 248 249
f 229 249 230
f 230 249 250
f 230 250 231
f 231 250 251
f 231 251 232
f 232 251 252
f 232 252 233
f 233 252 253
f 233 253 234
f 234 253 254
f 234 254 235
f 235 254 255
f 235 255 236
f 236 237 256
f 236 256 255
f 238 257 258
f 238 258 239
f 241 240 259
f 241 259 260
f 238 257 260
f 238 260 241
f 239 258 261
f 239 261 242
f 240 243 262
f 240 262 259
f 242 261 263
f 242 263 244
f 243 245 264
f 243 264 262
f 244 263 265
f 244 265 246
f 246 265 266
f 246 266 247
f 247 266 267
f 247 267 248
f 248 267 268
f 248 268 249
f 249 268 269
f 249 269 250
f 250 269 270
f 250 270 251
f 251 270 271
f 251 271 252
f 252 271 272
f 252 272 253
f 253 272 273
f 253 273 254
f 254 273 274
f 254 274 255
f 255 256 275
f 255 275 274
f 257 276 277
f 257 277 258
f 260 259 278
f 260 278 279
f 276 277 278
f 276 278 279
f 257 276 279
f 257 279 260
f 258 277 280
f 258 280 261
f 259 262 281
f 259 281 278
f 277 280 281
f 277 281 278
f 261 280 282
f 261 282 263
f 262 264 283
f 262 283 281
f 280 282 283
f 280 283 281
f 263 282 284
f 263 284 265
f 282 284 285
f 282 285 283
f 265 284 286
f 265 286 266
f 284 286 287
f 284 287 285
f 266 286 288
f 266 288 267
f 286 288 289
f 286 289 287
f 267 288 290
f 267 290 268
f 288 290 291
f 288 291 289
f 268 290 292
f 268 292 269
f 290 292 293
f 290 293 291
f 269 292 294
f 269 294 270
f 292 294 295
f 292 295 293
f 270 294 296
f 270 296 271
f 294 296 297
f 294 297 295
f 271 296 298
f 271 298 272
f 296 298 299
f 296 299 297
f 272 298 300
f 272 300 273
f 298 300 301
f 298 301 299
f 273 300 302
f 273 302 274
f 300 302 303
f 300 303 301
f 274 275 303
f 274 303 302
f 304 305 306
f 304 306 307
f 15 304 305
f 15 305 19
f 15 16 307
f 15 307 304
f 305 308 309
f 305 309 306
f 19 305 308
f 19 308 22
f 308 310 311
f 308 311 309
f 22 308 310
f 22 310 25
f 25 310 312
f 25 312 28
f 28 312 313
f 28 313 31
f 31 313 314
f 31 314 34
f 34 314 315
f 34 315 37
f 37 315 316
f 37 316 40
f 40 316 317
f 40 317 43
f 43 317 318
f 43 318 46
f 46 318 319
f 46 319 47
f 307 306 320
f 307 320 321
f 16 55 321
f 16 321 307
f 306 309 322
f 306 322 320
f 309 311 323
f 309 323 322
f 47 319 324
f 47 324 66
f 321 320 325
f 321 325 326
f 55 74 326
f 55 326 321
f 320 322 327
f 320 327 325
f 322 323 328
f 322 328 327
f 66 324 329
f 66 329 85
f 326 325 330
f 326 330 331
f 74 93 331
f 74 331 326
f 325 327 332
f 325 332 330
f 327 328 333
f 327 333 332
f 85 329 334
f 85 334 104
f 331 330 335
f 331 335 336
f 93 112 336
f 93 336 331
f 330 332 337
f 330 337 335
f 332 333 338
f 332 338 337
f 104 334 339
f 104 339 123
f 336 335 340
f 336 340 341
f 112 131 341
f 112 341 336
f 335 337 342
f 335 342 340
f 337 338 343
f 337 343 342
f 123 339 344
f 123 344 142
f 341 340 345
f 341 345 346
f 131 150 346
f 131 346 341
f 340 342 347
f 340 347 345
f 342 343 348
f 342 348 347
f 142 344 349
f 142 349 161
f 346 345 350
f 346 350 351
f 150 169 351
f 150 351 346
f 345 347 352
f 345 352 350
f 347 348 353
f 347 353 352
f 161 349 354
f 161 354 180
f 351 350 355
f 351 355 356
f 169 188 356
f 169 356 351
f 350 352 357
f 350 357 355
f 352 353 358
f 352 358 357
f 180 354 359
f 180 359 199
f 356 355 360
f 356 360 361
f 188 207 361
f 188 361 356
f 355 357 362
f 355 362 360
f 357 358 363
f 357 363 362
f 199 359 364
f 199 364 218
f 361 360 365
f 361 365 366
f 207 226 366
f 207 366 361
f 360 362 367
f 360 367 365
f 362 363 368
f 362 368 367
f 218 364 369
f 218 369 237
f 366 365 370
f 366 370 371
f 226 245 371
f 226 371 366
f 365 367 372
f 365 372 370
f 367 368 373
f 367 373 372
f 237 369 374
f 237 374 256
f 371 370 375
f 371 375 376
f 245 264 376
f 245 376 371
f 370 372 377
f 370 377 375
f 372 373 378
f 372 378 377
f 256 374 379
f 256 379 275
f 376 375 380
f 376 380 381
f 283 285 380
f 283 380 381
f 264 283 381
f 264 381 376
f 375 377 382
f 375 382 380
f 285 287 382
f 285 382 380
f 377 378 383
f 377 383 382
f 287 289 383
f 287 383 382
f 289 291 384
f 289 384 383
f 291 293 385
f 291 385 384
f 293 295 386
f 293 386 385
f 295 297 387
f 295 387 386
f 297 299 388
f 297 388 387
f 299 301 389
f 299 389 388
f 301 303 390
f 301 390 389
f 275 379 390
f 275 390 303
f 391 392 393
f 391 393 394
f 310 391 392
f 310 392 312
f 310 311 394
f 310 394 391
f 392 395 396
f 392 396 393
f 312 392 395
f 312 395 313
f 313 395 397
f 313 397 314
f 314 397 398
f 314 398 315
f 315 398 399
f 315 399 316
f 316 399 400
f 316 400 317
f 317 400 401
f 317 401 318
f 318 401 402
f 318 402 319
f 394 393 403
f 394 403 404
f 311 323 404
f 311 404 394
f 393 396 405
f 393 405 403
f 319 402 406
f 319 406 324
f 404 403 407
f 404 407 408
f 323 328 408
f 323 408 404
f 403 405 409
f 403 409 407
f 324 406 410
f 324 410 329
f 408 407 411
f 408 411 412
f 328 333 412
f 328 412 408
f 407 409 413
f 407 413 411
f 329 410 414
f 329 414 334
f 412 411 415
f 412 415 416
f 333 338 416
f 333 416 412
f 411 413 417
f 411 417 415
f 334 414 418
f 334 418 339
f 416 415 419
f 416 419 420
f 338 343 420
f 338 420 416
f 415 417 421
f 415 421 419
f 339 418 422
f 339 422 344
f 420 419 423
f 420 423 424
f 343 348 424
f 343 424 420
f 419 421 425
f 419 425 423
f 344 422 426
f 344 426 349
f 424 423 427
f 424 427 428
f 348 353 428
f 348 428 424
f 423 425 429
f 423 429 427
f 349 426 430
f 349 430 354
f 428 427 431
f 428 431 432
f 353 358 432
f 353 432 428
f 427 429 433
f 427 433 431
f 354 430 434
f 354 434 359
f 432 431 435
f 432 435 436
f 358 363 436
f 358 436 432
f 431 433 437
f 431 437 435
f 359 434 438
f 359 438 364
f 436 435 439
f 436 439 440
f 363 368 440
f 363 440 436
f 435 437 441
f 435 441 439
f 364 438 442
f 364 442 369
f 440 439 443
f 440 443 444
f 368 373 444
f 368 444 440
f 439 441 445
f 439 445 443
f 369 442 446
f 369 446 374
f 444 443 447
f 444 447 448
f 373 378 448
f 373 448 444
f 443 445 449
f 443 449 447
f 374 446 450
f 374 450 379
f 448 447 451
f 448 451 452
f 383 384 451
f 383 451 452
f 378 383 452
f 378 452 448
f 447 449 453
f 447 453 451
f 384 385 453
f 384 453 451
f 385 386 454
f 385 454 453
f 386 387 455
f 386 455 454
f 387 388 456
f 387 456 455
f 388 389 457
f 388 457 456
f 389 390 458
f 389 458 457
f 379 450 458
f 379 458 390
f 459 460 461
f 459 461 462
f 395 459 460
f 395 460 397
f 395 396 462
f 395 462 459
f 460 463 464
f 460 464 461
f 397 460 463
f 397 463 398
f 398 463 465
f 398 465 399
f 399 465 466
f 399 466 400
f 400 466 467
f 400 467 401
f 401 467 468
f 401 468 402
f 462 461 469
f 462 469 470
f 396 405 470
f 396 470 462
f 461 464 471
f 461 471 469
f 402 468 472
f 402 472 406
f 470 469 473
f 470 473 474
f 405 409 474
f 405 474 470
f 469 471 475
f 469 475 473
f 406 472 476
f 406 476 410
f 474 473 477
f 474 477 478
f 409 413 478
f 409 478 474
f 473 475 479
f 473 479 477
f 410 476 480
f 410 480 414
f 478 477 481
f 478 481 482
f 413 417 482
f 413 482 478
f 477 479 483
f 477 483 481
f 414 480 484
f 414 484 418
f 482 481 485
f 482 485 486
f 417 421 486
f 417 486 482
f 481 483 487
f 481 487 485
f 418 484 488
f 418 488 422
f 486 485 489
f 486 489 490
f 421 425 490
f 421 490 486
f 485 487 491
f 485 491 489
f 422 488 492
f 422 492 426
f 490 489 493
f 490 493 494
f 425 429 494
f 425 494 490
f 489 491 495
f 489 495 493
f 426 492 496
f 426 496 430
f 494 493 497
f 494 497 498
f 429 433 498
f 429 498 494
f 493 495 499
f 493 499 497
f 430 496 500
f 430 500 434
f 498 497 501
f 498 501 502
f 433 437 502
f 433 502 498
f 497 499 503
f 497 503 501
f 434 500 504
f 434 504 438
f 502 501 505
f 502 505 506
f 437 441 506
f 437 506 502
f 501 503 507
f 501 507 505
f 438 504 508
f 438 508 442
f 506 505 509
f 506 509 510
f 441 445 510
f 441 510 506
f 505 507 511
f 505 511 509
f 442 508 512
f 442 512 446
f 510 509 513
f 510 513 514
f 445 449 514
f 445 514 510
f 509 511 515
f 509 515 513
f 446 512 516
f 446 516 450
f 514 513 517
f 514 517 518
f 453 454 517
f 453 517 518
f 449 453 518
f 449 518 514
f 513 515 519
f 513 519 517
f 454 455 519
f 454 519 517
f 455 456 520
f 455 520 519
f 456 457 521
f 456 521 520
f 457 458 522
f 457 522 521
f 450 516 522
f 450 522 458
f 523 524 525
f 523 525 526
f 463 523 524
f 463 524 465
f 463 464 526
f 463 526 523
f 465 524 527
f 465 527 466
f 466 527 528
f 466 528 467
f 467 528 529
f 467 529 468
f 526 525 530
f 526 530 531
f 464 471 531
f 464 531 526
f 468 529 532
f 468 532 472
f 531 530 533
f 531 533 534
f 471 475 534
f 471 534 531
f 472 532 535
f 472 535 476
f 534 533 536
f 534 536 537
f 475 479 537
f 475 537 534
f 476 535 538
f 476 538 480
f 537 536 539
f 537 539 540
f 479 483 540
f 479 540 537
f 480 538 541
f 480 541 484
f 540 539 542
f 540 542 543
f 483 487 543
f 483 543 540
f 484 541 544
f 484 544 488
f 543 542 545
f 543 545 546
f 487 491 546
f 487 546 543
f 488 544 547
f 488 547 492
f 546 545 548
f 546 548 549
f 491 495 549
f 491 549 546
f 492 547 550
f 492 550 496
f 549 548 551
f 549 551 552
f 495 499 552
f 495 552 549
f 496 550 553
f 496 553 500
f 552 551 554
f 552 554 555
f 499 503 555
f 499 555 552
f 500 553 556
f 500 556 504
f 555 554 557
f 555 557 558
f 503 507 558
f 503 558 555
f 504 556 559
f 504 559 508
f 558 557 560
f 558 560 561
f 507 511 561
f 507 561 558
f 508 559 562
f 508 562 512
f 561 560 563
f 561 563 564
f 511 515 564
f 511 564 561
f 512 562 565
f 512 565 516
f 564 563 566
f 564 566 567
f 519 520 566
f 519 566 567
f 515 519 567
f 515 567 564
f 520 521 568
f 520 568 566
f 521 522 569
f 521 569 568
f 516 565 569
f 516 569 522
f 570 571 572
f 570 572 573
f 524 570 571
f 524 571 527
f 524 525 573
f 524 573 570
f 527 571 574
f 527 574 528
f 528 574 575
f 528 575 529
f 573 572 576
f 573 576 577
f 525 530 577
f 525 577 573
f 529 575 578
f 529 578 532
f 577 576 579
f 577 579 580
f 530 533 580
f 530 580 577
f 532 578 581
f 532 581 535
f 580 579 582
f 580 582 583
f 533 536 583
f 533 583 580
f 535 581 584
f 535 584 538
f 583 582 585
f 583 585 586
f 536 539 586
f 536 586 583
f 538 584 587
f 538 587 541
f 586 585 588
f 586 588 589
f 539 542 589
f 539 589 586
f 541 587 590
f 541 590 544
f 589 588 591
f 589 591 592
f 542 545 592
f 542 592 589
f 544 590 593
f 544 593 547
f 592 591 594
f 592 594 595
f 545 548 595
f 545 595 592
f 547 593 596
f 547 596 550
f 595 594 597
f 595 597 598
f 548 551 598
f 548 598 595
f 550 596 599
f 550 599 553
f 598 597 600
f 598 600 601
f 551 554 601
f 551 601 598
f 553 599 602
f 553 602 556
f 601 600 603
f 601 603 604
f 554 557 604
f 554 604 601
f 556 602 605
f 556 605 559
f 604 603 606
f 604 606 607
f 557 560 607
f 557 607 604
f 559 605 608
f 559 608 562
f 607 606 609
f 607 609 610
f 560 563 610
f 560 610 607
f 562 608 611
f 562 611 565
f 610 609 612
f 610 612 613
f 566 568 612
f 566 612 613
f 563 566 613
f 563 613 610
f 568 569 614
f 568 614 612
f 565 611 614
f 565 614 569
f 571 615 616
f 571 616 574
f 571 572 617
f 571 617 615
f 574 616 618
f 574 618 575
f 572 576 619
f 572 619 617
f 575 618 620
f 575 620 578
f 576 579 621
f 576 621 619
f 578 620 622
f 578 622 581
f 579 582 623
f 579 623 621
f 581 622 624
f 581 624 584
f 582 585 625
f 582 625 623
f 584 624 626
f 584 626 587
f 585 588 627
f 585 627 625
f 587 626 628
f 587 628 590
f 588 591 629
f 588 629 627
f 590 628 630
f 590 630 593
f 591 594 631
f 591 631 629
f 593 630 632
f 593 632 596
f 594 597 633
f 594 633 631
f 596 632 634
f 596 634 599
f 597 600 635
f 597 635 633
f 599 634 636
f 599 636 602
f 600 603 637
f 600 637 635
f 602 636 638
f 602 638 605
f 603 606 639
f 603 639 637
f 605 638 640
f 605 640 608
f 606 609 641
f 606 641 639
f 608 640 642
f 608 642 611
f 612 614 643
f 612 643 644
f 609 612 644
f 609 644 641
f 611 642 643
f 611 643 614
f 615 645 646
f 615 646 616
f 615 617 647
f 615 647 645
f 616 646 648
f 616 648 618
f 617 619 649
f 617 649 647
f 618 648 650
f 618 650 620
f 619 621 651
f 619 651 649
f 620 650 652
f 620 652 622
f 621 623 653
f 621 653 651
f 622 652 654
f 622 654 624
f 623 625 655
f 623 655 653
f 624 654 656
f 624 656 626
f 625 627 657
f 625 657 655
f 626 656 658
f 626 658 628
f 627 629 659
f 627 659 657
f 628 658 660
f 628 660 630
f 629 631 661
f 629 661 659
f 630 660 662
f 630 662 632
f 631 633 663
f 631 663 661
f 632 662 664
f 632 664 634
f 633 635 665
f 633 665 663
f 634 664 666
f 634 666 636
f 635 637 667
f 635 667 665
f 636 666 668
f 636 668 638
f 637 639 669
f 637 669 667
f 638 668 670
f 638 670 640
f 639 641 671
f 639 671 669
f 640 670 672
f 640 672 642
f 644 643 673
f 644 673 674
f 641 644 674
f 641 674 671
f 642 672 673
f 642 673 643
f 645 675 676
f 645 676 646
f 645 647 677
f 645 677 675
f 646 676 678
f 646 678 648
f 647 649 679
f 647 679 677
f 648 678 680
f 648 680 650
f 649 651 681
f 649 681 679
f 650 680 682
f 650 682 652
f 651 653 683
f 651 683 681
f 652 682 684
f 652 684 654
f 653 655 685
f 653 685 683
f 654 684 686
f 654 686 656
f 655 657 687
f 655 687 685
f 656 686 688
f 656 688 658
f 657 659 689
f 657 689 687
f 658 688 690
f 658 690 660
f 659 661 691
f 659 691 689
f 660 690 692
f 660 692 662
f 661 663 693
f 661 693 691
f 662 692 694
f 662 694 664
f 663 665 695
f 663 695 693
f 664 694 696
f 664 696 666
f 665 667 697
f 665 697 695
f 666 696 698
f 666 698 668
f 667 669 699
f 667 699 697
f 668 698 700
f 668 700 670
f 669 671 701
f 669 701 699
f 670 700 702
f 670 702 672
f 674 673 703
f 674 703 704
f 671 674 704
f 671 704 701
f 672 702 703
f 672 703 673
f 705 706 677
f 705 677 675
f 705 707 708
f 705 708 675
f 705 706 709
f 705 709 707
f 675 708 710
f 675 710 676
f 676 710 711
f 676 711 678
f 706 712 679
f 706 679 677
f 706 712 713
f 706 713 709
f 678 711 714
f 678 714 680
f 712 715 681
f 712 681 679
f 712 715 716
f 712 716 713
f 680 714 717
f 680 717 682
f 715 718 683
f 715 683 681
f 715 718 719
f 715 719 716
f 682 717 720
f 682 720 684
f 718 721 685
f 718 685 683
f 718 721 722
f 718 722 719
f 684 720 723
f 684 723 686
f 721 724 687
f 721 687 685
f 721 724 725
f 721 725 722
f 686 723 726
f 686 726 688
f 724 727 689
f 724 689 687
f 724 727 728
f 724 728 725
f 688 726 729
f 688 729 690
f 727 730 691
f 727 691 689
f 727 730 731
f 727 731 728
f 690 729 732
f 690 732 692
f 730 733 693
f 730 693 691
f 730 733 734
f 730 734 731
f 692 732 735
f 692 735 694
f 733 736 695
f 733 695 693
f 733 736 737
f 733 737 734
f 694 735 738
f 694 738 696
f 736 739 697
f 736 697 695
f 736 739 740
f 736 740 737
f 696 738 741
f 696 741 698
f 739 742 699
f 739 699 697
f 739 742 743
f 739 743 740
f 698 741 744
f 698 744 700
f 742 745 701
f 742 701 699
f 742 745 746
f 742 746 743
f 700 744 747
f 700 747 702
f 745 748 704
f 745 704 701
f 748 704 749
f 748 749 750
f 745 748 750
f 745 750 746
f 704 703 751
f 704 751 749
f 702 747 751
f 702 751 703
f 752 753 754
f 752 754 755
f 752 756 757
f 752 757 755
f 752 753 758
f 752 758 756
f 755 754 709
f 755 709 707
f 755 757 759
f 755 759 707
f 707 759 760
f 707 760 708
f 708 760 761
f 708 761 710
f 710 761 762
f 710 762 711
f 753 763 764
f 753 764 754
f 753 763 765
f 753 765 758
f 754 764 713
f 754 713 709
f 711 762 766
f 711 766 714
f 763 767 768
f 763 768 764
f 763 767 769
f 763 769 765
f 764 768 716
f 764 716 713
f 714 766 770
f 714 770 717
f 767 771 772
f 767 772 768
f 767 771 773
f 767 773 769
f 768 772 719
f 768 719 716
f 717 770 774
f 717 774 720
f 771 775 776
f 771 776 772
f 771 775 777
f 771 777 773
f 772 776 722
f 772 722 719
f 720 774 778
f 720 778 723
f 775 779 780
f 775 780 776
f 775 779 781
f 775 781 777
f 776 780 725
f 776 725 722
f 723 778 782
f 723 782 726
f 779 783 784
f 779 784 780
f 779 783 785
f 779 785 781
f 780 784 728
f 780 728 725
f 726 782 786
f 726 786 729
f 783 787 788
f 783 788 784
f 783 787 789
f 783 789 785
f 784 788 731
f 784 731 728
f 729 786 790
f 729 790 732
f 787 791 792
f 787 792 788
f 787 791 793
f 787 793 789
f 788 792 734
f 788 734 731
f 732 790 794
f 732 794 735
f 791 795 796
f 791 796 792
f 791 795 797
f 791 797 793
f 792 796 737
f 792 737 734
f 735 794 798
f 735 798 738
f 795 799 800
f 795 800 796
f 795 799 801
f 795 801 797
f 796 800 740
f 796 740 737
f 738 798 802
f 738 802 741
f 799 803 804
f 799 804 800
f 799 803 805
f 799 805 801
f 800 804 743
f 800 743 740
f 741 802 806
f 741 806 744
f 803 807 808
f 803 808 804
f 803 807 809
f 803 809 805
f 804 808 746
f 804 746 743
f 744 806 810
f 744 810 747
f 807 811 812
f 807 812 808
f 811 812 813
f 811 813 814
f 807 811 814
f 807 814 809
f 808 812 750
f 808 750 746
f 812 750 815
f 812 815 813
f 750 749 816
f 750 816 815
f 749 751 817
f 749 817 816
f 747 810 817
f 747 817 751
f 818 819 820
f 818 820 821
f 818 822 823
f 818 823 821
f 818 819 824
f 818 824 822
f 821 820 758
f 821 758 756
f 821 823 825
f 821 825 756
f 756 825 826
f 756 826 757
f 757 826 827
f 757 827 759
f 759 827 828
f 759 828 760
f 760 828 829
f 760 829 761
f 761 829 830
f 761 830 762
f 819 831 832
f 819 832 820
f 819 831 833
f 819 833 824
f 820 832 765
f 820 765 758
f 762 830 834
f 762 834 766
f 831 835 836
f 831 836 832
f 831 835 837
f 831 837 833
f 832 836 769
f 832 769 765
f 766 834 838
f 766 838 770
f 835 839 840
f 835 840 836
f 835 839 841
f 835 841 837
f 836 840 773
f 836 773 769
f 770 838 842
f 770 842 774
f 839 843 844
f 839 844 840
f 839 843 845
f 839 845 841
f 840 844 777
f 840 777 773
f 774 842 846
f 774 846 778
f 843 847 848
f 843 848 844
f 843 847 849
f 843 849 845
f 844 848 781
f 844 781 777
f 778 846 850
f 778 850 782
f 847 851 852
f 847 852 848
f 847 851 853
f 847 853 849
f 848 852 785
f 848 785 781
f 782 850 854
f 782 854 786
f 851 855 856
f 851 856 852
f 851 855 857
f 851 857 853
f 852 856 789
f 852 789 785
f 786 854 858
f 786 858 790
f 855 859 860
f 855 860 856
f 855 859 861
f 855 861 857
f 856 860 793
f 856 793 789
f 790 858 862
f 790 862 794
f 859 863 864
f 859 864 860
f 859 863 865
f 859 865 861
f 860 864 797
f 860 797 793
f 794 862 866
f 794 866 798
f 863 867 868
f 863 868 864
f 863 867 869
f 863 869 865
f 864 868 801
f 864 801 797
f 798 866 870
f 798 870 802
f 867 871 872
f 867 872 868
f 867 871 873
f 867 873 869
f 868 872 805
f 868 805 801
f 802 870 874
f 802 874 806
f 871 875 876
f 871 876 872
f 871 875 877
f 871 877 873
f 872 876 809
f 872 809 805
f 806 874 878
f 806 878 810
f 875 879 880
f 875 880 876
f 879 880 881
f 879 881 882
f 875 879 882
f 875 882 877
f 876 880 814
f 876 814 809
f 880 814 883
f 880 883 881
f 814 813 884
f 814 884 883
f 813 815 885
f 813 885 884
f 815 816 886
f 815 886 885
f 816 817 887
f 816 887 886
f 810 878 887
f 810 887 817
f 888 889 890
f 888 890 891
f 888 892 893
f 888 893 891
f 888 889 894
f 888 894 892
f 891 890 895
f 891 895 896
f 891 893 897
f 891 897 896
f 896 895 824
f 896 824 822
f 896 897 898
f 896 898 822
f 822 898 899
f 822 899 823
f 823 899 900
f 823 900 825
f 825 900 901
f 825 901 826
f 826 901 902
f 826 902 827
f 827 902 903
f 827 903 828
f 828 903 904
f 828 904 829
f 829 904 905
f 829 905 830
f 889 906 907
f 889 907 890
f 889 906 908
f 889 908 894
f 890 907 909
f 890 909 895
f 895 909 833
f 895 833 824
f 830 905 910
f 830 910 834
f 906 911 912
f 906 912 907
f 906 911 913
f 906 913 908
f 907 912 914
f 907 914 909
f 909 914 837
f 909 837 833
f 834 910 915
f 834 915 838
f 911 916 917
f 911 917 912
f 911 916 918
f 911 918 913
f 912 917 919
f 912 919 914
f 914 919 841
f 914 841 837
f 838 915 920
f 838 920 842
f 916 921 922
f 916 922 917
f 916 921 923
f 916 923 918
f 917 922 924
f 917 924 919
f 919 924 845
f 919 845 841
f 842 920 925
f 842 925 846
f 921 926 927
f 921 927 922
f 921 926 928
f 921 928 923
f 922 927 929
f 922 929 924
f 924 929 849
f 924 849 845
f 846 925 930
f 846 930 850
f 926 931 932
f 926 932 927
f 926 931 933
f 926 933 928
f 927 932 934
f 927 934 929
f 929 934 853
f 929 853 849
f 850 930 935
f 850 935 854
f 931 936 937
f 931 937 932
f 931 936 938
f 931 938 933
f 932 937 939
f 932 939 934
f 934 939 857
f 934 857 853
f 854 935 940
f 854 940 858
f 936 941 942
f 936 942 937
f 936 941 943
f 936 943 938
f 937 942 944
f 937 944 939
f 939 944 861
f 939 861 857
f 858 940 945
f 858 945 862
f 941 946 947
f 941 947 942
f 941 946 948
f 941 948 943
f 942 947 949
f 942 949 944
f 944 949 865
f 944 865 861
f 862 945 950
f 862 950 866
f 946 951 952
f 946 952 947
f 946 951 953
f 946 953 948
f 947 952 954
f 947 954 949
f 949 954 869
f 949 869 865
f 866 950 955
f 866 955 870
f 951 956 957
f 951 957 952
f 951 956 958
f 951 958 953
f 952 957 959
f 952 959 954
f 954 959 873
f 954 873 869
f 870 955 960
f 870 960 874
f 956 961 962
f 956 962 957
f 956 961 963
f 956 963 958
f 957 962 964
f 957 964 959
f 959 964 877
f 959 877 873
f 874 960 965
f 874 965 878
f 961 966 967
f 961 967 962
f 966 967 968
f 966 968 969
f 961 966 969
f 961 969 963
f 962 967 970
f 962 970 964
f 967 970 971
f 967 971 968
f 964 970 882
f 964 882 877
f 970 882 972
f 970 972 971
f 882 881 973
f 882 973 972
f 881 883 974
f 881 974 973
f 883 884 975
f 883 975 974
f 884 885 976
f 884 976 975
f 885 886 977
f 885 977 976
f 886 887 978
f 886 978 977
f 878 965 978
f 878 978 887
f 979 980 981
f 979 981 982
f 983 984 985
f 983 985 986
f 979 983 984
f 979 984 982
f 979 980 986
f 979 986 983
f 982 981 987
f 982 987 988
f 984 989 990
f 984 990 985
f 982 984 989
f 982 989 988
f 988 987 894
f 988 894 892
f 989 991 992
f 989 992 990
f 988 989 991
f 988 991 892
f 991 993 994
f 991 994 992
f 892 991 993
f 892 993 893
f 993 995 996
f 993 996 994
f 893 993 995
f 893 995 897
f 995 997 998
f 995 998 996
f 897 995 997
f 897 997 898
f 997 999 1000
f 997 1000 998
f 898 997 999
f 898 999 899
f 999 1001 1002
f 999 1002 1000
f 899 999 1001
f 899 1001 900
f 1001 1003 1004
f 1001 1004 1002
f 900 1001 1003
f 900 1003 901
f 1003 1005 1006
f 1003 1006 1004
f 901 1003 1005
f 901 1005 902
f 1005 1007 1008
f 1005 1008 1006
f 902 1005 1007
f 902 1007 903
f 1007 1009 1010
f 1007 1010 1008
f 903 1007 1009
f 903 1009 904
f 904 1009 1010
f 904 1010 905
f 980 1011 1012
f 980 1012 981
f 986 985 1013
f 986 1013 1014
f 980 1011 1014
f 980 1014 986
f 981 1012 1015
f 981 1015 987
f 985 990 1016
f 985 1016 1013
f 987 1015 908
f 987 908 894
f 990 992 1017
f 990 1017 1016
f 992 994 1018
f 992 1018 1017
f 994 996 1019
f 994 1019 1018
f 996 998 1020
f 996 1020 1019
f 998 1000 1021
f 998 1021 1020
f 1000 1002 1022
f 1000 1022 1021
f 1002 1004 1023
f 1002 1023 1022
f 1004 1006 1024
f 1004 1024 1023
f 1006 1008 1025
f 1006 1025 1024
f 1008 1010 1026
f 1008 1026 1025
f 905 1010 1026
f 905 1026 910
f 1011 1027 1028
f 1011 1028 1012
f 1014 1013 1029
f 1014 1029 1030
f 1011 1027 1030
f 1011 1030 1014
f 1012 1028 1031
f 1012 1031 1015
f 1013 1016 1032
f 1013 1032 1029
f 1015 1031 913
f 1015 913 908
f 1016 1017 1033
f 1016 1033 1032
f 1017 1018 1034
f 1017 1034 1033
f 1018 1019 1035
f 1018 1035 1034
f 1019 1020 1036
f 1019 1036 1035
f 1020 1021 1037
f 1020 1037 1036
f 1021 1022 1038
f 1021 1038 1037
f 1022 1023 1039
f 1022 1039 1038
f 1023 1024 1040
f 1023 1040 1039
f 1024 1025 1041
f 1024 1041 1040
f 1025 1026 1042
f 1025 1042 1041
f 910 1026 1042
f 910 1042 915
f 1027 1043 1044
f 1027 1044 1028
f 1030 1029 1045
f 1030 1045 1046
f 1027 1043 1046
f 1027 1046 1030
f 1028 1044 1047
f 1028 1047 1031
f 1029 1032 1048
f 1029 1048 1045
f 1031 1047 918
f 1031 918 913
f 1032 1033 1049
f 1032 1049 1048
f 1033 1034 1050
f 1033 1050 1049
f 1034 1035 1051
f 1034 1051 1050
f 1035 1036 1052
f 1035 1052 1051
f 1036 1037 1053
f 1036 1053 1052
f 1037 1038 1054
f 1037 1054 1053
f 1038 1039 1055
f 1038 1055 1054
f 1039 1040 1056
f 1039 1056 1055
f 1040 1041 1057
f 1040 1057 1056
f 1041 1042 1058
f 1041 1058 1057
f 915 1042 1058
f 915 1058 920
f 1043 1059 1060
f 1043 1060 1044
f 1046 1045 1061
f 1046 1061 1062
f 1043 1059 1062
f 1043 1062 1046
f 1044 1060 1063
f 1044 1063 1047
f 1045 1048 1064
f 1045 1064 1061
f 1047 1063 923
f 1047 923 918
f 1048 1049 1065
f 1048 1065 1064
f 1049 1050 1066
f 1049 1066 1065
f 1050 1051 1067
f 1050 1067 1066
f 1051 1052 1068
f 1051 1068 1067
f 1052 1053 1069
f 1052 1069 1068
f 1053 1054 1070
f 1053 1070 1069
f 1054 1055 1071
f 1054 1071 1070
f 1055 1056 1072
f 1055 1072 1071
f 1056 1057 1073
f 1056 1073 1072
f 1057 1058 1074
f 1057 1074 1073
f 920 1058 1074
f 920 1074 925
f 1059 1075 1076
f 1059 1076 1060
f 1062 1061 1077
f 1062 1077 1078
f 1059 1075 1078
f 1059 1078 1062
f 1060 1076 1079
f 1060 1079 1063
f 1061 1064 1080
f 1061 1080 1077
f 1063 1079 928
f 1063 928 923
f 1064 1065 1081
f 1064 1081 1080
f 1065 1066 1082
f 1065 1082 1081
f 1066 1067 1083
f 1066 1083 1082
f 1067 1068 1084
f 1067 1084 1083
f 1068 1069 1085
f 1068 1085 1084
f 1069 1070 1086
f 1069 1086 1085
f 1070 1071 1087
f 1070 1087 1086
f 1071 1072 1088
f 1071 1088 1087
f 1072 1073 1089
f 1072 1089 1088
f 1073 1074 1090
f 1073 1090 1089
f 925 1074 1090
f 925 1090 930
f 1075 1091 1092
f 1075 1092 1076
f 1078 1077 1093
f 1078 1093 1094
f 1075 1091 1094
f 1075 1094 1078
f 1076 1092 1095
f 1076 1095 1079
f 1077 1080 1096
f 1077 1096 1093
f 1079 1095 933
f 1079 933 928
f 1080 1081 1097
f 1080 1097 1096
f 1081 1082 1098
f 1081 1098 1097
f 1082 1083 1099
f 1082 1099 1098
f 1083 1084 1100
f 1083 1100 1099
f 1084 1085 1101
f 1084 1101 1100
f 1085 1086 1102
f 1085 1102 1101
f 1086 1087 1103
f 1086 1103 1102
f 1087 1088 1104
f 1087 1104 1103
f 1088 1089 1105
f 1088 1105 1104
f 1089 1090 1106
f 1089 1106 1105
f 930 1090 1106
f 930 1106 935
f 1091 1107 1108
f 1091 1108 1092
f 1094 1093 1109
f 1094 1109 1110
f 1091 1107 1110
f 1091 1110 1094
f 1092 1108 1111
f 1092 1111 1095
f 1093 1096 1112
f 1093 1112 1109
f 1095 1111 938
f 1095 938 933
f 1096 1097 1113
f 1096 1113 1112
f 1097 1098 1114
f 1097 1114 1113
f 1098 1099 1115
f 1098 1115 1114
f 1099 1100 1116
f 1099 1116 1115
f 1100 1101 1117
f 1100 1117 1116
f 1101 1102 1118
f 1101 1118 1117
f 1102 1103 1119
f 1102 1119 1118
f 1103 1104 1120
f 1103 1120 1119
f 1104 1105 1121
f 1104 1121 1120
f 1105 1106 1122
f 1105 1122 1121
f 935 1106 1122
f 935 1122 940
f 1107 1123 1124
f 1107 1124 1108
f 1110 1109 1125
f 1110 1125 1126
f 1107 1123 1126
f 1107 1126 1110
f 1108 1124 1127
f 1108 1127 1111
f 1109 1112 1128
f 1109 1128 1125
f 1111 1127 943
f 1111 943 938
f 1112 1113 1129
f 1112 1129 1128
f 1113 1114 1130
f 1113 1130 1129
f 1114 1115 1131
f 1114 1131 1130
f 1115 1116 1132
f 1115 1132 1131
f 1116 1117 1133
f 1116 1133 1132
f 1117 1118 1134
f 1117 1134 1133
f 1118 1119 1135
f 1118 1135 1134
f 1119 1120 1136
f 1119 1136 1135
f 1120 1121 1137
f 1120 1137 1136
f 1121 1122 1138
f 1121 1138 1137
f 940 1122 1138
f 940 1138 945
f 1123 1139 1140
f 1123 1140 1124
f 1126 1125 1141
f 1126 1141 1142
f 1123 1139 1142
f 1123 1142 1126
f 1124 1140 1143
f 1124 1143 1127
f 1125 1128 1144
f 1125 1144 1141
f 1127 1143 948
f 1127 948 943
f 1128 1129 1145
f 1128 1145 1144
f 1129 1130 1146
f 1129 1146 1145
f 1130 1131 1147
f 1130 1147 1146
f 1131 1132 1148
f 1131 1148 1147
f 1132 1133 1149
f 1132 1149 1148
f 1133 1134 1150
f 1133 1150 1149
f 1134 1135 1151
f 1134 1151 1150
f 1135 1136 1152
f 1135 1152 1151
f 1136 1137 1153
f 1136 1153 1152
f 1137 1138 1154
f 1137 1154 1153
f 945 1138 1154
f 945 1154 950
f 1139 1155 1156
f 1139 1156 1140
f 1142 1141 1157
f 1142 1157 1158
f 1139 1155 1158
f 1139 1158 1142
f 1140 1156 1159
f 1140 1159 1143
f 1141 1144 1160
f 1141 1160 1157
f 1143 1159 953
f 1143 953 948
f 1144 1145 1161
f 1144 1161 1160
f 1145 1146 1162
f 1145 1162 1161
f 1146 1147 1163
f 1146 1163 1162
f 1147 1148 1164
f 1147 1164 1163
f 1148 1149 1165
f 1148 1165 1164
f 1149 1150 1166
f 1149 1166 1165
f 1150 1151 1167
f 1150 1167 1166
f 1151 1152 1168
f 1151 1168 1167
f 1152 1153 1169
f 1152 1169 1168
f 1153 1154 1170
f 1153 1170 1169
f 950 1154 1170
f 950 1170 955
f 1155 1171 1172
f 1155 1172 1156
f 1158 1157 1173
f 1158 1173 1174
f 1155 1171 1174
f 1155 1174 1158
f 1156 1172 1175
f 1156 1175 1159
f 1157 1160 1176
f 1157 1176 1173
f 1159 1175 958
f 1159 958 953
f 1160 1161 1177
f 1160 1177 1176
f 1161 1162 1178
f 1161 1178 1177
f 1162 1163 1179
f 1162 1179 1178
f 1163 1164 1180
f 1163 1180 1179
f 1164 1165 1181
f 1164 1181 1180
f 1165 1166 1182
f 1165 1182 1181
f 1166 1167 1183
f 1166 1183 1182
f 1167 1168 1184
f 1167 1184 1183
f 1168 1169 1185
f 1168 1185 1184
f 1169 1170 1186
f 1169 1186 1185
f 955 1170 1186
f 955 1186 960
f 1171 1187 1188
f 1171 1188 1172
f 1174 1173 1189
f 1174 1189 1190
f 1171 1187 1190
f 1171 1190 1174
f 1172 1188 1191
f 1172 1191 1175
f 1173 1176 1192
f 1173 1192 1189
f 1175 1191 963
f 1175 963 958
f 1176 1177 1193
f 1176 1193 1192
f 1177 1178 1194
f 1177 1194 1193
f 1178 1179 1195
f 1178 1195 1194
f 1179 1180 1196
f 1179 1196 1195
f 1180 1181 1197
f 1180 1197 1196
f 1181 1182 1198
f 1181 1198 1197
f 1182 1183 1199
f 1182 1199 1198
f 1183 1184 1200
f 1183 1200 1199
f 1184 1185 1201
f 1184 1201 1200
f 1185 1186 1202
f 1185 1202 1201
f 960 1186 1202
f 960 1202 965
f 1187 1203 1204
f 1187 1204 1188
f 1190 1189 1205
f 1190 1205 1206
f 1203 1204 1205
f 1203 1205 1206
f 1187 1203 1206
f 1187 1206 1190
f 1188 1204 1207
f 1188 1207 1191
f 1189 1192 1208
f 1189 1208 1205
f 1204 1207 1208
f 1204 1208 1205
f 1191 1207 969
f 1191 969 963
f 1192 1193 1209
f 1192 1209 1208
f 1207 969 1209
f 1207 1209 1208
f 1193 1194 1210
f 1193 1210 1209
f 969 968 1210
f 969 1210 1209
f 1194 1195 1211
f 1194 1211 1210
f 968 971 1211
f 968 1211 1210
f 1195 1196 1212
f 1195 1212 1211
f 971 972 1212
f 971 1212 1211
f 1196 1197 1213
f 1196 1213 1212
f 972 973 1213
f 972 1213 1212
f 1197 1198 1214
f 1197 1214 1213
f 973 974 1214
f 973 1214 1213
f 1198 1199 1215
f 1198 1215 1214
f 974 975 1215
f 974 1215 1214
f 1199 1200 1216
f 1199 1216 1215
f 975 976 1216
f 975 1216 1215
f 1200 1201 1217
f 1200 1217 1216
f 976 977 1217
f 976 1217 1216
f 1201 1202 1218
f 1201 1218 1217
f 977 978 1218
f 977 1218 1217
f 965 1202 1218
f 965 1218 978
