o [4B] 3D Diagram - S2-06 Group A_637
v -7.006250 2.045000 0.476667
v -7.006250 4.610000 0.476667
v -7.006250 4.610000 1.646667
v -7.006250 2.045000 1.646667
v -6.862500 2.045000 0.476667
v -6.862500 2.045000 1.646667
v -6.862500 4.610000 0.476667
v -7.006250 4.610000 2.816667
v -7.006250 2.045000 2.816667
v -6.862500 2.045000 2.816667
v -7.006250 4.610000 3.986667
v -7.006250 2.045000 3.986667
v -6.862500 2.045000 3.986667
v -7.006250 4.610000 5.156667
v -7.006250 2.045000 5.156667
v -6.862500 2.045000 5.156667
v -7.006250 4.610000 6.326667
v -7.006250 2.045000 6.326667
v -6.862500 2.045000 6.326667
v -6.862500 4.610000 6.326667
v -7.006250 7.175000 0.476667
v -7.006250 7.175000 1.646667
v -6.862500 7.175000 0.476667
v -7.006250 7.175000 2.816667
v -7.006250 7.175000 3.986667
v -7.006250 7.175000 5.156667
v -7.006250 7.175000 6.326667
v -6.862500 7.175000 6.326667
v -7.006250 9.740000 0.476667
v -7.006250 9.740000 1.646667
v -6.862500 9.740000 0.476667
v -7.006250 9.740000 2.816667
v -7.006250 9.740000 3.986667
v -7.006250 9.740000 5.156667
v -7.006250 9.740000 6.326667
v -6.862500 9.740000 6.326667
v -7.006250 12.305000 0.476667
v -7.006250 12.305000 1.646667
v -6.862500 12.305000 0.476667
v -7.006250 12.305000 2.816667
v -7.006250 12.305000 3.986667
v -7.006250 12.305000 5.156667
v -7.006250 12.305000 6.326667
v -6.862500 12.305000 6.326667
v -7.006250 14.870000 0.476667
v -7.006250 14.870000 1.646667
v -6.862500 14.870000 0.476667
v -7.006250 14.870000 2.816667
v -7.006250 14.870000 3.986667
v -7.006250 14.870000 5.156667
v -7.006250 14.870000 6.326667
v -6.862500 14.870000 6.326667
v -7.006250 17.435000 0.476667
v -7.006250 17.435000 1.646667
v -6.862500 17.435000 0.476667
v -7.006250 17.435000 2.816667
v -7.006250 17.435000 3.986667
v -7.006250 17.435000 5.156667
v -7.006250 17.435000 6.326667
v -6.862500 17.435000 6.326667
v -7.006250 20.000000 0.476667
v -7.006250 20.000000 1.646667
v -6.862500 20.000000 0.476667
v -7.006250 20.000000 2.816667
v -7.006250 20.000000 3.986667
v -7.006250 20.000000 5.156667
v -7.006250 20.000000 6.326667
v -6.862500 20.000000 6.326667
v -7.006250 22.565000 0.476667
v -7.006250 22.565000 1.646667
v -6.862500 22.565000 0.476667
v -7.006250 22.565000 2.816667
v -7.006250 22.565000 3.986667
v -7.006250 22.565000 5.156667
v -7.006250 22.565000 6.326667
v -6.862500 22.565000 6.326667
v -7.006250 25.130000 0.476667
v -7.006250 25.130000 1.646667
v -6.862500 25.130000 0.476667
v -7.006250 25.130000 2.816667
v -7.006250 25.130000 3.986667
v -7.006250 25.130000 5.156667
v -7.006250 25.130000 6.326667
v -6.862500 25.130000 6.326667
v -7.006250 27.695000 0.476667
v -7.006250 27.695000 1.646667
v -6.862500 27.695000 0.476667
v -7.006250 27.695000 2.816667
v -7.006250 27.695000 3.986667
v -7.006250 27.695000 5.156667
v -7.006250 27.695000 6.326667
v -6.862500 27.695000 6.326667
v -7.006250 30.260000 0.476667
v -7.006250 30.260000 1.646667
v -6.862500 30.260000 0.476667
v -7.006250 30.260000 2.816667
v -7.006250 30.260000 3.986667
v -7.006250 30.260000 5.156667
v -7.006250 30.260000 6.326667
v -6.862500 30.260000 6.326667
v -7.006250 32.825000 0.476667
v -7.006250 32.825000 1.646667
v -6.862500 32.825000 0.476667
v -7.006250 32.825000 2.816667
v -7.006250 32.825000 3.986667
v -7.006250 32.825000 5.156667
v -7.006250 32.825000 6.326667
v -6.862500 32.825000 6.326667
v -7.006250 35.390000 0.476667
v -7.006250 35.390000 1.646667
v -6.862500 35.390000 0.476667
v -7.006250 35.390000 2.816667
v -7.006250 35.390000 3.986667
v -7.006250 35.390000 5.156667
v -7.006250 35.390000 6.326667
v -6.862500 35.390000 6.326667
v -7.006250 37.955000 0.476667
v -7.006250 37.955000 1.646667
v -6.862500 37.955000 1.646667
v -6.862500 37.955000 0.476667
v -7.006250 37.955000 2.816667
v -6.862500 37.955000 2.816667
v -7.006250 37.955000 3.986667
v -6.862500 37.955000 3.986667
v -7.006250 37.955000 5.156667
v -6.862500 37.955000 5.156667
v -7.006250 37.955000 6.326667
v -6.862500 37.955000 6.326667
v -6.718750 2.045000 0.476667
v -6.718750 2.045000 1.646667
v -6.718750 4.610000 0.476667
v -6.718750 2.045000 2.816667
v -6.718750 2.045000 3.986667
v -6.718750 2.045000 5.156667
v -6.718750 2.045000 6.326667
v -6.862500 4.610000 7.496667
v -6.862500 2.045000 7.496667
v -6.718750 2.045000 7.496667
v -6.862500 4.610000 8.666667
v -6.862500 2.045000 8.666667
v -6.718750 2.045000 8.666667
v -6.862500 4.610000 9.836667
v -6.862500 2.045000 9.836667
v -6.718750 2.045000 9.836667
v -6.718750 4.610000 9.836667
v -6.718750 7.175000 0.476667
v -6.862500 7.175000 7.496667
v -6.862500 7.175000 8.666667
v -6.862500 7.175000 9.836667
v -6.718750 7.175000 9.836667
v -6.718750 9.740000 0.476667
v -6.862500 9.740000 7.496667
v -6.862500 9.740000 8.666667
v -6.862500 9.740000 9.836667
v -6.718750 9.740000 9.836667
v -6.718750 12.305000 0.476667
v -6.862500 12.305000 7.496667
v -6.862500 12.305000 8.666667
v -6.862500 12.305000 9.836667
v -6.718750 12.305000 9.836667
v -6.718750 14.870000 0.476667
v -6.862500 14.870000 7.496667
v -6.862500 14.870000 8.666667
v -6.862500 14.870000 9.836667
v -6.718750 14.870000 9.836667
v -6.718750 17.435000 0.476667
v -6.862500 17.435000 7.496667
v -6.862500 17.435000 8.666667
v -6.862500 17.435000 9.836667
v -6.718750 17.435000 9.836667
v -6.718750 20.000000 0.476667
v -6.862500 20.000000 7.496667
v -6.862500 20.000000 8.666667
v -6.862500 20.000000 9.836667
v -6.718750 20.000000 9.836667
v -6.718750 22.565000 0.476667
v -6.862500 22.565000 7.496667
v -6.862500 22.565000 8.666667
v -6.862500 22.565000 9.836667
v -6.718750 22.565000 9.836667
v -6.718750 25.130000 0.476667
v -6.862500 25.130000 7.496667
v -6.862500 25.130000 8.666667
v -6.862500 25.130000 9.836667
v -6.718750 25.130000 9.836667
v -6.718750 27.695000 0.476667
v -6.862500 27.695000 7.496667
v -6.862500 27.695000 8.666667
v -6.862500 27.695000 9.836667
v -6.718750 27.695000 9.836667
v -6.718750 30.260000 0.476667
v -6.862500 30.260000 7.496667
v -6.862500 30.260000 8.666667
v -6.862500 30.260000 9.836667
v -6.718750 30.260000 9.836667
v -6.718750 32.825000 0.476667
v -6.862500 32.825000 7.496667
v -6.862500 32.825000 8.666667
v -6.862500 32.825000 9.836667
v -6.718750 32.825000 9.836667
v -6.718750 35.390000 0.476667
v -6.862500 35.390000 7.496667
v -6.862500 35.390000 8.666667
v -6.862500 35.390000 9.836667
v -6.718750 35.390000 9.836667
v -6.718750 37.955000 1.646667
v -6.718750 37.955000 0.476667
v -6.718750 37.955000 2.816667
v -6.718750 37.955000 3.986667
v -6.718750 37.955000 5.156667
v -6.718750 37.955000 6.326667
v -6.862500 37.955000 7.496667
v -6.718750 37.955000 7.496667
v -6.862500 37.955000 8.666667
v -6.718750 37.955000 8.666667
v -6.862500 37.955000 9.836667
v -6.718750 37.955000 9.836667
v -6.575000 2.045000 0.476667
v -6.575000 2.045000 1.646667
v -6.575000 4.610000 0.476667
v -6.575000 2.045000 2.816667
v -6.575000 2.045000 3.986667
v -6.575000 2.045000 5.156667
v -6.575000 2.045000 6.326667
v -6.575000 2.045000 7.496667
v -6.575000 2.045000 8.666667
v -6.575000 2.045000 9.836667
v -6.718750 4.610000 11.006667
v -6.718750 2.045000 11.006667
v -6.575000 2.045000 11.006667
v -6.718750 4.610000 12.176667
v -6.718750 2.045000 12.176667
v -6.575000 2.045000 12.176667
v -6.575000 4.610000 12.176667
v -6.575000 7.175000 0.476667
v -6.718750 7.175000 11.006667
v -6.718750 7.175000 12.176667
v -6.575000 7.175000 12.176667
v -6.575000 9.740000 0.476667
v -6.718750 9.740000 11.006667
v -6.718750 9.740000 12.176667
v -6.575000 9.740000 12.176667
v -6.575000 12.305000 0.476667
v -6.718750 12.305000 11.006667
v -6.718750 12.305000 12.176667
v -6.575000 12.305000 12.176667
v -6.575000 14.870000 0.476667
v -6.718750 14.870000 11.006667
v -6.718750 14.870000 12.176667
v -6.575000 14.870000 12.176667
v -6.575000 17.435000 0.476667
v -6.718750 17.435000 11.006667
v -6.718750 17.435000 12.176667
v -6.575000 17.435000 12.176667
v -6.575000 20.000000 0.476667
v -6.718750 20.000000 11.006667
v -6.718750 20.000000 12.176667
v -6.575000 20.000000 12.176667
v -6.575000 22.565000 0.476667
v -6.718750 22.565000 11.006667
v -6.718750 22.565000 12.176667
v -6.575000 22.565000 12.176667
v -6.575000 25.130000 0.476667
v -6.718750 25.130000 11.006667
v -6.718750 25.130000 12.176667
v -6.575000 25.130000 12.176667
v -6.575000 27.695000 0.476667
v -6.718750 27.695000 11.006667
v -6.718750 27.695000 12.176667
v -6.575000 27.695000 12.176667
v -6.575000 30.260000 0.476667
v -6.718750 30.260000 11.006667
v -6.718750 30.260000 12.176667
v -6.575000 30.260000 12.176667
v -6.575000 32.825000 0.476667
v -6.718750 32.825000 11.006667
v -6.718750 32.825000 12.176667
v -6.575000 32.825000 12.176667
v -6.575000 35.390000 0.476667
v -6.718750 35.390000 11.006667
v -6.718750 35.390000 12.176667
v -6.575000 35.390000 12.176667
v -6.575000 37.955000 1.646667
v -6.575000 37.955000 0.476667
v -6.575000 37.955000 2.816667
v -6.575000 37.955000 3.986667
v -6.575000 37.955000 5.156667
v -6.575000 37.955000 6.326667
v -6.575000 37.955000 7.496667
v -6.575000 37.955000 8.666667
v -6.575000 37.955000 9.836667
v -6.718750 37.955000 11.006667
v -6.575000 37.955000 11.006667
v -6.718750 37.955000 12.176667
v -6.575000 37.955000 12.176667
v -6.431250 2.045000 0.476667
v -6.431250 2.045000 1.646667
v -6.431250 4.610000 0.476667
v -6.431250 2.045000 2.816667
v -6.431250 2.045000 3.986667
v -6.431250 2.045000 5.156667
v -6.431250 2.045000 6.326667
v -6.431250 2.045000 7.496667
v -6.431250 2.045000 8.666667
v -6.431250 2.045000 9.836667
v -6.431250 2.045000 11.006667
v -6.431250 2.045000 12.176667
v -6.575000 4.610000 13.346667
v -6.575000 2.045000 13.346667
v -6.431250 2.045000 13.346667
v -6.575000 4.610000 14.516667
v -6.575000 2.045000 14.516667
v -6.431250 2.045000 14.516667
v -6.575000 4.610000 15.686667
v -6.575000 2.045000 15.686667
v -6.431250 2.045000 15.686667
v -6.431250 4.610000 15.686667
v -6.431250 7.175000 0.476667
v -6.575000 7.175000 13.346667
v -6.575000 7.175000 14.516667
v -6.575000 7.175000 15.686667
v -6.431250 7.175000 15.686667
v -6.431250 9.740000 0.476667
v -6.575000 9.740000 13.346667
v -6.575000 9.740000 14.516667
v -6.575000 9.740000 15.686667
v -6.431250 9.740000 15.686667
v -6.431250 12.305000 0.476667
v -6.575000 12.305000 13.346667
v -6.575000 12.305000 14.516667
v -6.575000 12.305000 15.686667
v -6.431250 12.305000 15.686667
v -6.431250 14.870000 0.476667
v -6.575000 14.870000 13.346667
v -6.575000 14.870000 14.516667
v -6.575000 14.870000 15.686667
v -6.431250 14.870000 15.686667
v -6.431250 17.435000 0.476667
v -6.575000 17.435000 13.346667
v -6.575000 17.435000 14.516667
v -6.575000 17.435000 15.686667
v -6.431250 17.435000 15.686667
v -6.431250 20.000000 0.476667
v -6.575000 20.000000 13.346667
v -6.575000 20.000000 14.516667
v -6.575000 20.000000 15.686667
v -6.431250 20.000000 15.686667
v -6.431250 22.565000 0.476667
v -6.575000 22.565000 13.346667
v -6.575000 22.565000 14.516667
v -6.575000 22.565000 15.686667
v -6.431250 22.565000 15.686667
v -6.431250 25.130000 0.476667
v -6.575000 25.130000 13.346667
v -6.575000 25.130000 14.516667
v -6.575000 25.130000 15.686667
v -6.431250 25.130000 15.686667
v -6.431250 27.695000 0.476667
v -6.575000 27.695000 13.346667
v -6.575000 27.695000 14.516667
v -6.575000 27.695000 15.686667
v -6.431250 27.695000 15.686667
v -6.431250 30.260000 0.476667
v -6.575000 30.260000 13.346667
v -6.575000 30.260000 14.516667
v -6.575000 30.260000 15.686667
v -6.431250 30.260000 15.686667
v -6.431250 32.825000 0.476667
v -6.575000 32.825000 13.346667
v -6.575000 32.825000 14.516667
v -6.575000 32.825000 15.686667
v -6.431250 32.825000 15.686667
v -6.431250 35.390000 0.476667
v -6.575000 35.390000 13.346667
v -6.575000 35.390000 14.516667
v -6.575000 35.390000 15.686667
v -6.431250 35.390000 15.686667
v -6.431250 37.955000 1.646667
v -6.431250 37.955000 0.476667
v -6.431250 37.955000 2.816667
v -6.431250 37.955000 3.986667
v -6.431250 37.955000 5.156667
v -6.431250 37.955000 6.326667
v -6.431250 37.955000 7.496667
v -6.431250 37.955000 8.666667
v -6.431250 37.955000 9.836667
v -6.431250 37.955000 11.006667
v -6.431250 37.955000 12.176667
v -6.575000 37.955000 13.346667
v -6.431250 37.955000 13.346667
v -6.575000 37.955000 14.516667
v -6.431250 37.955000 14.516667
v -6.575000 37.955000 15.686667
v -6.431250 37.955000 15.686667
v -6.287500 2.045000 0.476667
v -6.287500 2.045000 1.646667
v -6.287500 4.610000 0.476667
v -6.287500 2.045000 2.816667
v -6.287500 2.045000 3.986667
v -6.287500 2.045000 5.156667
v -6.287500 2.045000 6.326667
v -6.287500 2.045000 7.496667
v -6.287500 2.045000 8.666667
v -6.287500 2.045000 9.836667
v -6.287500 2.045000 11.006667
v -6.287500 2.045000 12.176667
v -6.287500 2.045000 13.346667
v -6.287500 2.045000 14.516667
v -6.287500 2.045000 15.686667
v -6.431250 4.610000 16.856667
v -6.431250 2.045000 16.856667
v -6.287500 2.045000 16.856667
v -6.287500 4.610000 16.856667
v -6.287500 7.175000 0.476667
v -6.431250 7.175000 16.856667
v -6.287500 7.175000 16.856667
v -6.287500 9.740000 0.476667
v -6.431250 9.740000 16.856667
v -6.287500 9.740000 16.856667
v -6.287500 12.305000 0.476667
v -6.431250 12.305000 16.856667
v -6.287500 12.305000 16.856667
v -6.287500 14.870000 0.476667
v -6.431250 14.870000 16.856667
v -6.287500 14.870000 16.856667
v -6.287500 17.435000 0.476667
v -6.431250 17.435000 16.856667
v -6.287500 17.435000 16.856667
v -6.287500 20.000000 0.476667
v -6.431250 20.000000 16.856667
v -6.287500 20.000000 16.856667
v -6.287500 22.565000 0.476667
v -6.431250 22.565000 16.856667
v -6.287500 22.565000 16.856667
v -6.287500 25.130000 0.476667
v -6.431250 25.130000 16.856667
v -6.287500 25.130000 16.856667
v -6.287500 27.695000 0.476667
v -6.431250 27.695000 16.856667
v -6.287500 27.695000 16.856667
v -6.287500 30.260000 0.476667
v -6.431250 30.260000 16.856667
v -6.287500 30.260000 16.856667
v -6.287500 32.825000 0.476667
v -6.431250 32.825000 16.856667
v -6.287500 32.825000 16.856667
v -6.287500 35.390000 0.476667
v -6.431250 35.390000 16.856667
v -6.287500 35.390000 16.856667
v -6.287500 37.955000 1.646667
v -6.287500 37.955000 0.476667
v -6.287500 37.955000 2.816667
v -6.287500 37.955000 3.986667
v -6.287500 37.955000 5.156667
v -6.287500 37.955000 6.326667
v -6.287500 37.955000 7.496667
v -6.287500 37.955000 8.666667
v -6.287500 37.955000 9.836667
v -6.287500 37.955000 11.006667
v -6.287500 37.955000 12.176667
v -6.287500 37.955000 13.346667
v -6.287500 37.955000 14.516667
v -6.287500 37.955000 15.686667
v -6.431250 37.955000 16.856667
v -6.287500 37.955000 16.856667
v -6.143750 2.045000 0.476667
v -6.143750 2.045000 1.646667
v -6.143750 4.610000 0.476667
v -6.143750 2.045000 2.816667
v -6.143750 2.045000 3.986667
v -6.143750 2.045000 5.156667
v -6.143750 2.045000 6.326667
v -6.143750 2.045000 7.496667
v -6.143750 2.045000 8.666667
v -6.143750 2.045000 9.836667
v -6.143750 2.045000 11.006667
v -6.143750 2.045000 12.176667
v -6.143750 2.045000 13.346667
v -6.143750 2.045000 14.516667
v -6.143750 2.045000 15.686667
v -6.143750 2.045000 16.856667
v -6.287500 4.610000 18.026667
v -6.287500 2.045000 18.026667
v -6.143750 2.045000 18.026667
v -6.143750 4.610000 18.026667
v -6.143750 7.175000 0.476667
v -6.287500 7.175000 18.026667
v -6.143750 7.175000 18.026667
v -6.143750 9.740000 0.476667
v -6.287500 9.740000 18.026667
v -6.143750 9.740000 18.026667
v -6.143750 12.305000 0.476667
v -6.287500 12.305000 18.026667
v -6.143750 12.305000 18.026667
v -6.143750 14.870000 0.476667
v -6.287500 14.870000 18.026667
v -6.143750 14.870000 18.026667
v -6.143750 17.435000 0.476667
v -6.287500 17.435000 18.026667
v -6.143750 17.435000 18.026667
v -6.143750 20.000000 0.476667
v -6.287500 20.000000 18.026667
v -6.143750 20.000000 18.026667
v -6.143750 22.565000 0.476667
v -6.287500 22.565000 18.026667
v -6.143750 22.565000 18.026667
v -6.143750 25.130000 0.476667
v -6.287500 25.130000 18.026667
v -6.143750 25.130000 18.026667
v -6.143750 27.695000 0.476667
v -6.287500 27.695000 18.026667
v -6.143750 27.695000 18.026667
v -6.143750 30.260000 0.476667
v -6.287500 30.260000 18.026667
v -6.143750 30.260000 18.026667
v -6.143750 32.825000 0.476667
v -6.287500 32.825000 18.026667
v -6.143750 32.825000 18.026667
v -6.143750 35.390000 0.476667
v -6.287500 35.390000 18.026667
v -6.143750 35.390000 18.026667
v -6.143750 37.955000 1.646667
v -6.143750 37.955000 0.476667
v -6.143750 37.955000 2.816667
v -6.143750 37.955000 3.986667
v -6.143750 37.955000 5.156667
v -6.143750 37.955000 6.326667
v -6.143750 37.955000 7.496667
v -6.143750 37.955000 8.666667
v -6.143750 37.955000 9.836667
v -6.143750 37.955000 11.006667
v -6.143750 37.955000 12.176667
v -6.143750 37.955000 13.346667
v -6.143750 37.955000 14.516667
v -6.143750 37.955000 15.686667
v -6.143750 37.955000 16.856667
v -6.287500 37.955000 18.026667
v -6.143750 37.955000 18.026667
v -6.000000 2.045000 0.476667
v -6.000000 2.045000 1.646667
v -6.000000 4.610000 0.476667
v -6.000000 2.045000 2.816667
v -6.000000 2.045000 3.986667
v -6.000000 2.045000 5.156667
v -6.000000 2.045000 6.326667
v -6.000000 2.045000 7.496667
v -6.000000 2.045000 8.666667
v -6.000000 2.045000 9.836667
v -6.000000 2.045000 11.006667
v -6.000000 2.045000 12.176667
v -6.000000 2.045000 13.346667
v -6.000000 2.045000 14.516667
v -6.000000 2.045000 15.686667
v -6.000000 2.045000 16.856667
v -6.000000 2.045000 18.026667
v -6.000000 4.610000 18.026667
v -6.000000 7.175000 0.476667
v -6.000000 7.175000 18.026667
v -6.000000 9.740000 0.476667
v -6.000000 9.740000 18.026667
v -6.000000 12.305000 0.476667
v -6.000000 12.305000 18.026667
v -6.000000 14.870000 0.476667
v -6.000000 14.870000 18.026667
v -6.000000 17.435000 0.476667
v -6.000000 17.435000 18.026667
v -6.000000 20.000000 0.476667
v -6.000000 20.000000 18.026667
v -6.000000 22.565000 0.476667
v -6.000000 22.565000 18.026667
v -6.000000 25.130000 0.476667
v -6.000000 25.130000 18.026667
v -6.000000 27.695000 0.476667
v -6.000000 27.695000 18.026667
v -6.000000 30.260000 0.476667
v -6.000000 30.260000 18.026667
v -6.000000 32.825000 0.476667
v -6.000000 32.825000 18.026667
v -6.000000 35.390000 0.476667
v -6.000000 35.390000 18.026667
v -6.000000 37.955000 1.646667
v -6.000000 37.955000 0.476667
v -6.000000 37.955000 2.816667
v -6.000000 37.955000 3.986667
v -6.000000 37.955000 5.156667
v -6.000000 37.955000 6.326667
v -6.000000 37.955000 7.496667
v -6.000000 37.955000 8.666667
v -6.000000 37.955000 9.836667
v -6.000000 37.955000 11.006667
v -6.000000 37.955000 12.176667
v -6.000000 37.955000 13.346667
v -6.000000 37.955000 14.516667
v -6.000000 37.955000 15.686667
v -6.000000 37.955000 16.856667
v -6.000000 37.955000 18.026667
v -5.856250 2.045000 0.476667
v -5.856250 2.045000 1.646667
v -5.856250 4.610000 0.476667
v -5.856250 2.045000 2.816667
v -5.856250 2.045000 3.986667
v -5.856250 2.045000 5.156667
v -5.856250 2.045000 6.326667
v -5.856250 2.045000 7.496667
v -5.856250 2.045000 8.666667
v -5.856250 2.045000 9.836667
v -5.856250 2.045000 11.006667
v -5.856250 2.045000 12.176667
v -5.856250 2.045000 13.346667
v -5.856250 2.045000 14.516667
v -5.856250 2.045000 15.686667
v -5.856250 2.045000 16.856667
v -5.856250 2.045000 18.026667
v -5.856250 4.610000 18.026667
v -5.856250 7.175000 0.476667
v -5.856250 7.175000 18.026667
v -5.856250 9.740000 0.476667
v -5.856250 9.740000 18.026667
v -5.856250 12.305000 0.476667
v -5.856250 12.305000 18.026667
v -5.856250 14.870000 0.476667
v -5.856250 14.870000 18.026667
v -5.856250 17.435000 0.476667
v -5.856250 17.435000 18.026667
v -5.856250 20.000000 0.476667
v -5.856250 20.000000 18.026667
v -5.856250 22.565000 0.476667
v -5.856250 22.565000 18.026667
v -5.856250 25.130000 0.476667
v -5.856250 25.130000 18.026667
v -5.856250 27.695000 0.476667
v -5.856250 27.695000 18.026667
v -5.856250 30.260000 0.476667
v -5.856250 30.260000 18.026667
v -5.856250 32.825000 0.476667
v -5.856250 32.825000 18.026667
v -5.856250 35.390000 0.476667
v -5.856250 35.390000 18.026667
v -5.856250 37.955000 1.646667
v -5.856250 37.955000 0.476667
v -5.856250 37.955000 2.816667
v -5.856250 37.955000 3.986667
v -5.856250 37.955000 5.156667
v -5.856250 37.955000 6.326667
v -5.856250 37.955000 7.496667
v -5.856250 37.955000 8.666667
v -5.856250 37.955000 9.836667
v -5.856250 37.955000 11.006667
v -5.856250 37.955000 12.176667
v -5.856250 37.955000 13.346667
v -5.856250 37.955000 14.516667
v -5.856250 37.955000 15.686667
v -5.856250 37.955000 16.856667
v -5.856250 37.955000 18.026667
v -5.712500 2.045000 0.476667
v -5.712500 2.045000 1.646667
v -5.712500 4.610000 0.476667
v -5.712500 2.045000 2.816667
v -5.712500 2.045000 3.986667
v -5.712500 2.045000 5.156667
v -5.712500 2.045000 6.326667
v -5.712500 2.045000 7.496667
v -5.712500 2.045000 8.666667
v -5.712500 2.045000 9.836667
v -5.712500 2.045000 11.006667
v -5.712500 2.045000 12.176667
v -5.712500 2.045000 13.346667
v -5.712500 2.045000 14.516667
v -5.712500 2.045000 15.686667
v -5.712500 2.045000 16.856667
v -5.712500 2.045000 18.026667
v -5.712500 4.610000 18.026667
v -5.712500 4.610000 16.856667
v -5.712500 7.175000 0.476667
v -5.712500 7.175000 18.026667
v -5.712500 7.175000 16.856667
v -5.712500 9.740000 0.476667
v -5.712500 9.740000 18.026667
v -5.712500 9.740000 16.856667
v -5.712500 12.305000 0.476667
v -5.712500 12.305000 18.026667
v -5.712500 12.305000 16.856667
v -5.712500 14.870000 0.476667
v -5.712500 14.870000 18.026667
v -5.712500 14.870000 16.856667
v -5.712500 17.435000 0.476667
v -5.712500 17.435000 18.026667
v -5.712500 17.435000 16.856667
v -5.712500 20.000000 0.476667
v -5.712500 20.000000 18.026667
v -5.712500 20.000000 16.856667
v -5.712500 22.565000 0.476667
v -5.712500 22.565000 18.026667
v -5.712500 22.565000 16.856667
v -5.712500 25.130000 0.476667
v -5.712500 25.130000 18.026667
v -5.712500 25.130000 16.856667
v -5.712500 27.695000 0.476667
v -5.712500 27.695000 18.026667
v -5.712500 27.695000 16.856667
v -5.712500 30.260000 0.476667
v -5.712500 30.260000 18.026667
v -5.712500 30.260000 16.856667
v -5.712500 32.825000 0.476667
v -5.712500 32.825000 18.026667
v -5.712500 32.825000 16.856667
v -5.712500 35.390000 0.476667
v -5.712500 35.390000 18.026667
v -5.712500 35.390000 16.856667
v -5.712500 37.955000 1.646667
v -5.712500 37.955000 0.476667
v -5.712500 37.955000 2.816667
v -5.712500 37.955000 3.986667
v -5.712500 37.955000 5.156667
v -5.712500 37.955000 6.326667
v -5.712500 37.955000 7.496667
v -5.712500 37.955000 8.666667
v -5.712500 37.955000 9.836667
v -5.712500 37.955000 11.006667
v -5.712500 37.955000 12.176667
v -5.712500 37.955000 13.346667
v -5.712500 37.955000 14.516667
v -5.712500 37.955000 15.686667
v -5.712500 37.955000 16.856667
v -5.712500 37.955000 18.026667
v -5.568750 2.045000 0.476667
v -5.568750 2.045000 1.646667
v -5.568750 4.610000 0.476667
v -5.568750 2.045000 2.816667
v -5.568750 2.045000 3.986667
v -5.568750 2.045000 5.156667
v -5.568750 2.045000 6.326667
v -5.568750 2.045000 7.496667
v -5.568750 2.045000 8.666667
v -5.568750 2.045000 9.836667
v -5.568750 2.045000 11.006667
v -5.568750 2.045000 12.176667
v -5.568750 2.045000 13.346667
v -5.568750 2.045000 14.516667
v -5.568750 2.045000 15.686667
v -5.568750 2.045000 16.856667
v -5.568750 4.610000 16.856667
v -5.568750 4.610000 15.686667
v -5.568750 7.175000 0.476667
v -5.568750 7.175000 16.856667
v -5.568750 7.175000 15.686667
v -5.568750 9.740000 0.476667
v -5.568750 9.740000 16.856667
v -5.568750 9.740000 15.686667
v -5.568750 12.305000 0.476667
v -5.568750 12.305000 16.856667
v -5.568750 12.305000 15.686667
v -5.568750 14.870000 0.476667
v -5.568750 14.870000 16.856667
v -5.568750 14.870000 15.686667
v -5.568750 17.435000 0.476667
v -5.568750 17.435000 16.856667
v -5.568750 17.435000 15.686667
v -5.568750 20.000000 0.476667
v -5.568750 20.000000 16.856667
v -5.568750 20.000000 15.686667
v -5.568750 22.565000 0.476667
v -5.568750 22.565000 16.856667
v -5.568750 22.565000 15.686667
v -5.568750 25.130000 0.476667
v -5.568750 25.130000 16.856667
v -5.568750 25.130000 15.686667
v -5.568750 27.695000 0.476667
v -5.568750 27.695000 16.856667
v -5.568750 27.695000 15.686667
v -5.568750 30.260000 0.476667
v -5.568750 30.260000 16.856667
v -5.568750 30.260000 15.686667
v -5.568750 32.825000 0.476667
v -5.568750 32.825000 16.856667
v -5.568750 32.825000 15.686667
v -5.568750 35.390000 0.476667
v -5.568750 35.390000 16.856667
v -5.568750 35.390000 15.686667
v -5.568750 37.955000 1.646667
v -5.568750 37.955000 0.476667
v -5.568750 37.955000 2.816667
v -5.568750 37.955000 3.986667
v -5.568750 37.955000 5.156667
v -5.568750 37.955000 6.326667
v -5.568750 37.955000 7.496667
v -5.568750 37.955000 8.666667
v -5.568750 37.955000 9.836667
v -5.568750 37.955000 11.006667
v -5.568750 37.955000 12.176667
v -5.568750 37.955000 13.346667
v -5.568750 37.955000 14.516667
v -5.568750 37.955000 15.686667
v -5.568750 37.955000 16.856667
v -5.425000 2.045000 0.476667
v -5.425000 2.045000 1.646667
v -5.425000 4.610000 0.476667
v -5.425000 2.045000 2.816667
v -5.425000 2.045000 3.986667
v -5.425000 2.045000 5.156667
v -5.425000 2.045000 6.326667
v -5.425000 2.045000 7.496667
v -5.425000 2.045000 8.666667
v -5.425000 2.045000 9.836667
v -5.425000 2.045000 11.006667
v -5.425000 2.045000 12.176667
v -5.425000 2.045000 13.346667
v -5.425000 4.610000 13.346667
v -5.425000 4.610000 12.176667
v -5.425000 2.045000 14.516667
v -5.425000 4.610000 14.516667
v -5.425000 2.045000 15.686667
v -5.425000 4.610000 15.686667
v -5.425000 7.175000 0.476667
v -5.425000 7.175000 13.346667
v -5.425000 7.175000 12.176667
v -5.425000 7.175000 14.516667
v -5.425000 7.175000 15.686667
v -5.425000 9.740000 0.476667
v -5.425000 9.740000 13.346667
v -5.425000 9.740000 12.176667
v -5.425000 9.740000 14.516667
v -5.425000 9.740000 15.686667
v -5.425000 12.305000 0.476667
v -5.425000 12.305000 13.346667
v -5.425000 12.305000 12.176667
v -5.425000 12.305000 14.516667
v -5.425000 12.305000 15.686667
v -5.425000 14.870000 0.476667
v -5.425000 14.870000 13.346667
v -5.425000 14.870000 12.176667
v -5.425000 14.870000 14.516667
v -5.425000 14.870000 15.686667
v -5.425000 17.435000 0.476667
v -5.425000 17.435000 13.346667
v -5.425000 17.435000 12.176667
v -5.425000 17.435000 14.516667
v -5.425000 17.435000 15.686667
v -5.425000 20.000000 0.476667
v -5.425000 20.000000 13.346667
v -5.425000 20.000000 12.176667
v -5.425000 20.000000 14.516667
v -5.425000 20.000000 15.686667
v -5.425000 22.565000 0.476667
v -5.425000 22.565000 13.346667
v -5.425000 22.565000 12.176667
v -5.425000 22.565000 14.516667
v -5.425000 22.565000 15.686667
v -5.425000 25.130000 0.476667
v -5.425000 25.130000 13.346667
v -5.425000 25.130000 12.176667
v -5.425000 25.130000 14.516667
v -5.425000 25.130000 15.686667
v -5.425000 27.695000 0.476667
v -5.425000 27.695000 13.346667
v -5.425000 27.695000 12.176667
v -5.425000 27.695000 14.516667
v -5.425000 27.695000 15.686667
v -5.425000 30.260000 0.476667
v -5.425000 30.260000 13.346667
v -5.425000 30.260000 12.176667
v -5.425000 30.260000 14.516667
v -5.425000 30.260000 15.686667
v -5.425000 32.825000 0.476667
v -5.425000 32.825000 13.346667
v -5.425000 32.825000 12.176667
v -5.425000 32.825000 14.516667
v -5.425000 32.825000 15.686667
v -5.425000 35.390000 0.476667
v -5.425000 35.390000 13.346667
v -5.425000 35.390000 12.176667
v -5.425000 35.390000 14.516667
v -5.425000 35.390000 15.686667
v -5.425000 37.955000 1.646667
v -5.425000 37.955000 0.476667
v -5.425000 37.955000 2.816667
v -5.425000 37.955000 3.986667
v -5.425000 37.955000 5.156667
v -5.425000 37.955000 6.326667
v -5.425000 37.955000 7.496667
v -5.425000 37.955000 8.666667
v -5.425000 37.955000 9.836667
v -5.425000 37.955000 11.006667
v -5.425000 37.955000 12.176667
v -5.425000 37.955000 13.346667
v -5.425000 37.955000 14.516667
v -5.425000 37.955000 15.686667
v -5.281250 2.045000 0.476667
v -5.281250 2.045000 1.646667
v -5.281250 4.610000 0.476667
v -5.281250 2.045000 2.816667
v -5.281250 2.045000 3.986667
v -5.281250 2.045000 5.156667
v -5.281250 2.045000 6.326667
v -5.281250 2.045000 7.496667
v -5.281250 2.045000 8.666667
v -5.281250 2.045000 9.836667
v -5.281250 2.045000 11.006667
v -5.281250 4.610000 11.006667
v -5.281250 4.610000 9.836667
v -5.281250 2.045000 12.176667
v -5.281250 4.610000 12.176667
v -5.281250 7.175000 0.476667
v -5.281250 7.175000 11.006667
v -5.281250 7.175000 9.836667
v -5.281250 7.175000 12.176667
v -5.281250 9.740000 0.476667
v -5.281250 9.740000 11.006667
v -5.281250 9.740000 9.836667
v -5.281250 9.740000 12.176667
v -5.281250 12.305000 0.476667
v -5.281250 12.305000 11.006667
v -5.281250 12.305000 9.836667
v -5.281250 12.305000 12.176667
v -5.281250 14.870000 0.476667
v -5.281250 14.870000 11.006667
v -5.281250 14.870000 9.836667
v -5.281250 14.870000 12.176667
v -5.281250 17.435000 0.476667
v -5.281250 17.435000 11.006667
v -5.281250 17.435000 9.836667
v -5.281250 17.435000 12.176667
v -5.281250 20.000000 0.476667
v -5.281250 20.000000 11.006667
v -5.281250 20.000000 9.836667
v -5.281250 20.000000 12.176667
v -5.281250 22.565000 0.476667
v -5.281250 22.565000 11.006667
v -5.281250 22.565000 9.836667
v -5.281250 22.565000 12.176667
v -5.281250 25.130000 0.476667
v -5.281250 25.130000 11.006667
v -5.281250 25.130000 9.836667
v -5.281250 25.130000 12.176667
v -5.281250 27.695000 0.476667
v -5.281250 27.695000 11.006667
v -5.281250 27.695000 9.836667
v -5.281250 27.695000 12.176667
v -5.281250 30.260000 0.476667
v -5.281250 30.260000 11.006667
v -5.281250 30.260000 9.836667
v -5.281250 30.260000 12.176667
v -5.281250 32.825000 0.476667
v -5.281250 32.825000 11.006667
v -5.281250 32.825000 9.836667
v -5.281250 32.825000 12.176667
v -5.281250 35.390000 0.476667
v -5.281250 35.390000 11.006667
v -5.281250 35.390000 9.836667
v -5.281250 35.390000 12.176667
v -5.281250 37.955000 1.646667
v -5.281250 37.955000 0.476667
v -5.281250 37.955000 2.816667
v -5.281250 37.955000 3.986667
v -5.281250 37.955000 5.156667
v -5.281250 37.955000 6.326667
v -5.281250 37.955000 7.496667
v -5.281250 37.955000 8.666667
v -5.281250 37.955000 9.836667
v -5.281250 37.955000 11.006667
v -5.281250 37.955000 12.176667
v -5.137500 2.045000 0.476667
v -5.137500 2.045000 1.646667
v -5.137500 4.610000 0.476667
v -5.137500 2.045000 2.816667
v -5.137500 2.045000 3.986667
v -5.137500 2.045000 5.156667
v -5.137500 2.045000 6.326667
v -5.137500 2.045000 7.496667
v -5.137500 4.610000 7.496667
v -5.137500 4.610000 6.326667
v -5.137500 2.045000 8.666667
v -5.137500 4.610000 8.666667
v -5.137500 2.045000 9.836667
v -5.137500 4.610000 9.836667
v -5.137500 7.175000 0.476667
v -5.137500 7.175000 7.496667
v -5.137500 7.175000 6.326667
v -5.137500 7.175000 8.666667
v -5.137500 7.175000 9.836667
v -5.137500 9.740000 0.476667
v -5.137500 9.740000 7.496667
v -5.137500 9.740000 6.326667
v -5.137500 9.740000 8.666667
v -5.137500 9.740000 9.836667
v -5.137500 12.305000 0.476667
v -5.137500 12.305000 7.496667
v -5.137500 12.305000 6.326667
v -5.137500 12.305000 8.666667
v -5.137500 12.305000 9.836667
v -5.137500 14.870000 0.476667
v -5.137500 14.870000 7.496667
v -5.137500 14.870000 6.326667
v -5.137500 14.870000 8.666667
v -5.137500 14.870000 9.836667
v -5.137500 17.435000 0.476667
v -5.137500 17.435000 7.496667
v -5.137500 17.435000 6.326667
v -5.137500 17.435000 8.666667
v -5.137500 17.435000 9.836667
v -5.137500 20.000000 0.476667
v -5.137500 20.000000 7.496667
v -5.137500 20.000000 6.326667
v -5.137500 20.000000 8.666667
v -5.137500 20.000000 9.836667
v -5.137500 22.565000 0.476667
v -5.137500 22.565000 7.496667
v -5.137500 22.565000 6.326667
v -5.137500 22.565000 8.666667
v -5.137500 22.565000 9.836667
v -5.137500 25.130000 0.476667
v -5.137500 25.130000 7.496667
v -5.137500 25.130000 6.326667
v -5.137500 25.130000 8.666667
v -5.137500 25.130000 9.836667
v -5.137500 27.695000 0.476667
v -5.137500 27.695000 7.496667
v -5.137500 27.695000 6.326667
v -5.137500 27.695000 8.666667
v -5.137500 27.695000 9.836667
v -5.137500 30.260000 0.476667
v -5.137500 30.260000 7.496667
v -5.137500 30.260000 6.326667
v -5.137500 30.260000 8.666667
v -5.137500 30.260000 9.836667
v -5.137500 32.825000 0.476667
v -5.137500 32.825000 7.496667
v -5.137500 32.825000 6.326667
v -5.137500 32.825000 8.666667
v -5.137500 32.825000 9.836667
v -5.137500 35.390000 0.476667
v -5.137500 35.390000 7.496667
v -5.137500 35.390000 6.326667
v -5.137500 35.390000 8.666667
v -5.137500 35.390000 9.836667
v -5.137500 37.955000 1.646667
v -5.137500 37.955000 0.476667
v -5.137500 37.955000 2.816667
v -5.137500 37.955000 3.986667
v -5.137500 37.955000 5.156667
v -5.137500 37.955000 6.326667
v -5.137500 37.955000 7.496667
v -5.137500 37.955000 8.666667
v -5.137500 37.955000 9.836667
v -4.993750 2.045000 0.476667
v -4.993750 2.045000 1.646667
v -4.993750 4.610000 1.646667
v -4.993750 4.610000 0.476667
v -4.993750 2.045000 2.816667
v -4.993750 4.610000 2.816667
v -4.993750 2.045000 3.986667
v -4.993750 4.610000 3.986667
v -4.993750 2.045000 5.156667
v -4.993750 4.610000 5.156667
v -4.993750 2.045000 6.326667
v -4.993750 4.610000 6.326667
v -4.993750 7.175000 1.646667
v -4.993750 7.175000 0.476667
v -4.993750 7.175000 2.816667
v -4.993750 7.175000 3.986667
v -4.993750 7.175000 5.156667
v -4.993750 7.175000 6.326667
v -4.993750 9.740000 1.646667
v -4.993750 9.740000 0.476667
v -4.993750 9.740000 2.816667
v -4.993750 9.740000 3.986667
v -4.993750 9.740000 5.156667
v -4.993750 9.740000 6.326667
v -4.993750 12.305000 1.646667
v -4.993750 12.305000 0.476667
v -4.993750 12.305000 2.816667
v -4.993750 12.305000 3.986667
v -4.993750 12.305000 5.156667
v -4.993750 12.305000 6.326667
v -4.993750 14.870000 1.646667
v -4.993750 14.870000 0.476667
v -4.993750 14.870000 2.816667
v -4.993750 14.870000 3.986667
v -4.993750 14.870000 5.156667
v -4.993750 14.870000 6.326667
v -4.993750 17.435000 1.646667
v -4.993750 17.435000 0.476667
v -4.993750 17.435000 2.816667
v -4.993750 17.435000 3.986667
v -4.993750 17.435000 5.156667
v -4.993750 17.435000 6.326667
v -4.993750 20.000000 1.646667
v -4.993750 20.000000 0.476667
v -4.993750 20.000000 2.816667
v -4.993750 20.000000 3.986667
v -4.993750 20.000000 5.156667
v -4.993750 20.000000 6.326667
v -4.993750 22.565000 1.646667
v -4.993750 22.565000 0.476667
v -4.993750 22.565000 2.816667
v -4.993750 22.565000 3.986667
v -4.993750 22.565000 5.156667
v -4.993750 22.565000 6.326667
v -4.993750 25.130000 1.646667
v -4.993750 25.130000 0.476667
v -4.993750 25.130000 2.816667
v -4.993750 25.130000 3.986667
v -4.993750 25.130000 5.156667
v -4.993750 25.130000 6.326667
v -4.993750 27.695000 1.646667
v -4.993750 27.695000 0.476667
v -4.993750 27.695000 2.816667
v -4.993750 27.695000 3.986667
v -4.993750 27.695000 5.156667
v -4.993750 27.695000 6.326667
v -4.993750 30.260000 1.646667
v -4.993750 30.260000 0.476667
v -4.993750 30.260000 2.816667
v -4.993750 30.260000 3.986667
v -4.993750 30.260000 5.156667
v -4.993750 30.260000 6.326667
v -4.993750 32.825000 1.646667
v -4.993750 32.825000 0.476667
v -4.993750 32.825000 2.816667
v -4.993750 32.825000 3.986667
v -4.993750 32.825000 5.156667
v -4.993750 32.825000 6.326667
v -4.993750 35.390000 1.646667
v -4.993750 35.390000 0.476667
v -4.993750 35.390000 2.816667
v -4.993750 35.390000 3.986667
v -4.993750 35.390000 5.156667
v -4.993750 35.390000 6.326667
v -4.993750 37.955000 1.646667
v -4.993750 37.955000 0.476667
v -4.993750 37.955000 2.816667
v -4.993750 37.955000 3.986667
v -4.993750 37.955000 5.156667
v -4.993750 37.955000 6.326667
f 1 2 3
f 1 3 4
f 1 5 6
f 1 6 4
f 1 2 7
f 1 7 5
f 4 3 8
f 4 8 9
f 4 6 10
f 4 10 9
f 9 8 11
f 9 11 12
f 9 10 13
f 9 13 12
f 12 11 14
f 12 14 15
f 12 13 16
f 12 16 15
f 15 14 17
f 15 17 18
f 15 16 19
f 15 19 18
f 18 19 20
f 18 20 17
f 2 21 22
f 2 22 3
f 2 21 23
f 2 23 7
f 3 22 24
f 3 24 8
f 8 24 25
f 8 25 11
f 11 25 26
f 11 26 14
f 14 26 27
f 14 27 17
f 17 20 28
f 17 28 27
f 21 29 30
f 21 30 22
f 21 29 31
f 21 31 23
f 22 30 32
f 22 32 24
f 24 32 33
f 24 33 25
f 25 33 34
f 25 34 26
f 26 34 35
f 26 35 27
f 27 28 36
f 27 36 35
f 29 37 38
f 29 38 30
f 29 37 39
f 29 39 31
f 30 38 40
f 30 40 32
f 32 40 41
f 32 41 33
f 33 41 42
f 33 42 34
f 34 42 43
f 34 43 35
f 35 36 44
f 35 44 43
f 37 45 46
f 37 46 38
f 37 45 47
f 37 47 39
f 38 46 48
f 38 48 40
f 40 48 49
f 40 49 41
f 41 49 50
f 41 50 42
f 42 50 51
f 42 51 43
f 43 44 52
f 43 52 51
f 45 53 54
f 45 54 46
f 45 53 55
f 45 55 47
f 46 54 56
f 46 56 48
f 48 56 57
f 48 57 49
f 49 57 58
f 49 58 50
f 50 58 59
f 50 59 51
f 51 52 60
f 51 60 59
f 53 61 62
f 53 62 54
f 53 61 63
f 53 63 55
f 54 62 64
f 54 64 56
f 56 64 65
f 56 65 57
f 57 65 66
f 57 66 58
f 58 66 67
f 58 67 59
f 59 60 68
f 59 68 67
f 61 69 70
f 61 70 62
f 61 69 71
f 61 71 63
f 62 70 72
f 62 72 64
f 64 72 73
f 64 73 65
f 65 73 74
f 65 74 66
f 66 74 75
f 66 75 67
f 67 68 76
f 67 76 75
f 69 77 78
f 69 78 70
f 69 77 79
f 69 79 71
f 70 78 80
f 70 80 72
f 72 80 81
f 72 81 73
f 73 81 82
f 73 82 74
f 74 82 83
f 74 83 75
f 75 76 84
f 75 84 83
f 77 85 86
f 77 86 78
f 77 85 87
f 77 87 79
f 78 86 88
f 78 88 80
f 80 88 89
f 80 89 81
f 81 89 90
f 81 90 82
f 82 90 91
f 82 91 83
f 83 84 92
f 83 92 91
f 85 93 94
f 85 94 86
f 85 93 95
f 85 95 87
f 86 94 96
f 86 96 88
f 88 96 97
f 88 97 89
f 89 97 98
f 89 98 90
f 90 98 99
f 90 99 91
f 91 92 100
f 91 100 99
f 93 101 102
f 93 102 94
f 93 101 103
f 93 103 95
f 94 102 104
f 94 104 96
f 96 104 105
f 96 105 97
f 97 105 106
f 97 106 98
f 98 106 107
f 98 107 99
f 99 100 108
f 99 108 107
f 101 109 110
f 101 110 102
f 101 109 111
f 101 111 103
f 102 110 112
f 102 112 104
f 104 112 113
f 104 113 105
f 105 113 114
f 105 114 106
f 106 114 115
f 106 115 107
f 107 108 116
f 107 116 115
f 109 117 118
f 109 118 110
f 117 118 119
f 117 119 120
f 109 117 120
f 109 120 111
f 110 118 121
f 110 121 112
f 118 121 122
f 118 122 119
f 112 121 123
f 112 123 113
f 121 123 124
f 121 124 122
f 113 123 125
f 113 125 114
f 123 125 126
f 123 126 124
f 114 125 127
f 114 127 115
f 125 127 128
f 125 128 126
f 115 116 128
f 115 128 127
f 5 129 130
f 5 130 6
f 5 7 131
f 5 131 129
f 6 130 132
f 6 132 10
f 10 132 133
f 10 133 13
f 13 133 134
f 13 134 16
f 16 134 135
f 16 135 19
f 19 20 136
f 19 136 137
f 19 135 138
f 19 138 137
f 137 136 139
f 137 139 140
f 137 138 141
f 137 141 140
f 140 139 142
f 140 142 143
f 140 141 144
f 140 144 143
f 143 144 145
f 143 145 142
f 7 23 146
f 7 146 131
f 20 28 147
f 20 147 136
f 136 147 148
f 136 148 139
f 139 148 149
f 139 149 142
f 142 145 150
f 142 150 149
f 23 31 151
f 23 151 146
f 28 36 152
f 28 152 147
f 147 152 153
f 147 153 148
f 148 153 154
f 148 154 149
f 149 150 155
f 149 155 154
f 31 39 156
f 31 156 151
f 36 44 157
f 36 157 152
f 152 157 158
f 152 158 153
f 153 158 159
f 153 159 154
f 154 155 160
f 154 160 159
f 39 47 161
f 39 161 156
f 44 52 162
f 44 162 157
f 157 162 163
f 157 163 158
f 158 163 164
f 158 164 159
f 159 160 165
f 159 165 164
f 47 55 166
f 47 166 161
f 52 60 167
f 52 167 162
f 162 167 168
f 162 168 163
f 163 168 169
f 163 169 164
f 164 165 170
f 164 170 169
f 55 63 171
f 55 171 166
f 60 68 172
f 60 172 167
f 167 172 173
f 167 173 168
f 168 173 174
f 168 174 169
f 169 170 175
f 169 175 174
f 63 71 176
f 63 176 171
f 68 76 177
f 68 177 172
f 172 177 178
f 172 178 173
f 173 178 179
f 173 179 174
f 174 175 180
f 174 180 179
f 71 79 181
f 71 181 176
f 76 84 182
f 76 182 177
f 177 182 183
f 177 183 178
f 178 183 184
f 178 184 179
f 179 180 185
f 179 185 184
f 79 87 186
f 79 186 181
f 84 92 187
f 84 187 182
f 182 187 188
f 182 188 183
f 183 188 189
f 183 189 184
f 184 185 190
f 184 190 189
f 87 95 191
f 87 191 186
f 92 100 192
f 92 192 187
f 187 192 193
f 187 193 188
f 188 193 194
f 188 194 189
f 189 190 195
f 189 195 194
f 95 103 196
f 95 196 191
f 100 108 197
f 100 197 192
f 192 197 198
f 192 198 193
f 193 198 199
f 193 199 194
f 194 195 200
f 194 200 199
f 103 111 201
f 103 201 196
f 108 116 202
f 108 202 197
f 197 202 203
f 197 203 198
f 198 203 204
f 198 204 199
f 199 200 205
f 199 205 204
f 120 119 206
f 120 206 207
f 111 120 207
f 111 207 201
f 119 122 208
f 119 208 206
f 122 124 209
f 122 209 208
f 124 126 210
f 124 210 209
f 126 128 211
f 126 211 210
f 116 128 212
f 116 212 202
f 128 212 213
f 128 213 211
f 202 212 214
f 202 214 203
f 212 214 215
f 212 215 213
f 203 214 216
f 203 216 204
f 214 216 217
f 214 217 215
f 204 205 217
f 204 217 216
f 129 218 219
f 129 219 130
f 129 131 220
f 129 220 218
f 130 219 221
f 130 221 132
f 132 221 222
f 132 222 133
f 133 222 223
f 133 223 134
f 134 223 224
f 134 224 135
f 135 224 225
f 135 225 138
f 138 225 226
f 138 226 141
f 141 226 227
f 141 227 144
f 144 145 228
f 144 228 229
f 144 227 230
f 144 230 229
f 229 228 231
f 229 231 232
f 229 230 233
f 229 233 232
f 232 233 234
f 232 234 231
f 131 146 235
f 131 235 220
f 145 150 236
f 145 236 228
f 228 236 237
f 228 237 231
f 231 234 238
f 231 238 237
f 146 151 239
f 146 239 235
f 150 155 240
f 150 240 236
f 236 240 241
f 236 241 237
f 237 238 242
f 237 242 241
f 151 156 243
f 151 243 239
f 155 160 244
f 155 244 240
f 240 244 245
f 240 245 241
f 241 242 246
f 241 246 245
f 156 161 247
f 156 247 243
f 160 165 248
f 160 248 244
f 244 248 249
f 244 249 245
f 245 246 250
f 245 250 249
f 161 166 251
f 161 251 247
f 165 170 252
f 165 252 248
f 248 252 253
f 248 253 249
f 249 250 254
f 249 254 253
f 166 171 255
f 166 255 251
f 170 175 256
f 170 256 252
f 252 256 257
f 252 257 253
f 253 254 258
f 253 258 257
f 171 176 259
f 171 259 255
f 175 180 260
f 175 260 256
f 256 260 261
f 256 261 257
f 257 258 262
f 257 262 261
f 176 181 263
f 176 263 259
f 180 185 264
f 180 264 260
f 260 264 265
f 260 265 261
f 261 262 266
f 261 266 265
f 181 186 267
f 181 267 263
f 185 190 268
f 185 268 264
f 264 268 269
f 264 269 265
f 265 266 270
f 265 270 269
f 186 191 271
f 186 271 267
f 190 195 272
f 190 272 268
f 268 272 273
f 268 273 269
f 269 270 274
f 269 274 273
f 191 196 275
f 191 275 271
f 195 200 276
f 195 276 272
f 272 276 277
f 272 277 273
f 273 274 278
f 273 278 277
f 196 201 279
f 196 279 275
f 200 205 280
f 200 280 276
f 276 280 281
f 276 281 277
f 277 278 282
f 277 282 281
f 207 206 283
f 207 283 284
f 201 207 284
f 201 284 279
f 206 208 285
f 206 285 283
f 208 209 286
f 208 286 285
f 209 210 287
f 209 287 286
f 210 211 288
f 210 288 287
f 211 213 289
f 211 289 288
f 213 215 290
f 213 290 289
f 215 217 291
f 215 291 290
f 205 217 292
f 205 292 280
f 217 292 293
f 217 293 291
f 280 292 294
f 280 294 281
f 292 294 295
f 292 295 293
f 281 282 295
f 281 295 294
f 218 296 297
f 218 297 219
f 218 220 298
f 218 298 296
f 219 297 299
f 219 299 221
f 221 299 300
f 221 300 222
f 222 300 301
f 222 301 223
f 223 301 302
f 223 302 224
f 224 302 303
f 224 303 225
f 225 303 304
f 225 304 226
f 226 304 305
f 226 305 227
f 227 305 306
f 227 306 230
f 230 306 307
f 230 307 233
f 233 234 308
f 233 308 309
f 233 307 310
f 233 310 309
f 309 308 311
f 309 311 312
f 309 310 313
f 309 313 312
f 312 311 314
f 312 314 315
f 312 313 316
f 312 316 315
f 315 316 317
f 315 317 314
f 220 235 318
f 220 318 298
f 234 238 319
f 234 319 308
f 308 319 320
f 308 320 311
f 311 320 321
f 311 321 314
f 314 317 322
f 314 322 321
f 235 239 323
f 235 323 318
f 238 242 324
f 238 324 319
f 319 324 325
f 319 325 320
f 320 325 326
f 320 326 321
f 321 322 327
f 321 327 326
f 239 243 328
f 239 328 323
f 242 246 329
f 242 329 324
f 324 329 330
f 324 330 325
f 325 330 331
f 325 331 326
f 326 327 332
f 326 332 331
f 243 247 333
f 243 333 328
f 246 250 334
f 246 334 329
f 329 334 335
f 329 335 330
f 330 335 336
f 330 336 331
f 331 332 337
f 331 337 336
f 247 251 338
f 247 338 333
f 250 254 339
f 250 339 334
f 334 339 340
f 334 340 335
f 335 340 341
f 335 341 336
f 336 337 342
f 336 342 341
f 251 255 343
f 251 343 338
f 254 258 344
f 254 344 339
f 339 344 345
f 339 345 340
f 340 345 346
f 340 346 341
f 341 342 347
f 341 347 346
f 255 259 348
f 255 348 343
f 258 262 349
f 258 349 344
f 344 349 350
f 344 350 345
f 345 350 351
f 345 351 346
f 346 347 352
f 346 352 351
f 259 263 353
f 259 353 348
f 262 266 354
f 262 354 349
f 349 354 355
f 349 355 350
f 350 355 356
f 350 356 351
f 351 352 357
f 351 357 356
f 263 267 358
f 263 358 353
f 266 270 359
f 266 359 354
f 354 359 360
f 354 360 355
f 355 360 361
f 355 361 356
f 356 357 362
f 356 362 361
f 267 271 363
f 267 363 358
f 270 274 364
f 270 364 359
f 359 364 365
f 359 365 360
f 360 365 366
f 360 366 361
f 361 362 367
f 361 367 366
f 271 275 368
f 271 368 363
f 274 278 369
f 274 369 364
f 364 369 370
f 364 370 365
f 365 370 371
f 365 371 366
f 366 367 372
f 366 372 371
f 275 279 373
f 275 373 368
f 278 282 374
f 278 374 369
f 369 374 375
f 369 375 370
f 370 375 376
f 370 376 371
f 371 372 377
f 371 377 376
f 284 283 378
f 284 378 379
f 279 284 379
f 279 379 373
f 283 285 380
f 283 380 378
f 285 286 381
f 285 381 380
f 286 287 382
f 286 382 381
f 287 288 383
f 287 383 382
f 288 289 384
f 288 384 383
f 289 290 385
f 289 385 384
f 290 291 386
f 290 386 385
f 291 293 387
f 291 387 386
f 293 295 388
f 293 388 387
f 282 295 389
f 282 389 374
f 295 389 390
f 295 390 388
f 374 389 391
f 374 391 375
f 389 391 392
f 389 392 390
f 375 391 393
f 375 393 376
f 391 393 394
f 391 394 392
f 376 377 394
f 376 394 393
f 296 395 396
f 296 396 297
f 296 298 397
f 296 397 395
f 297 396 398
f 297 398 299
f 299 398 399
f 299 399 300
f 300 399 400
f 300 400 301
f 301 400 401
f 301 401 302
f 302 401 402
f 302 402 303
f 303 402 403
f 303 403 304
f 304 403 404
f 304 404 305
f 305 404 405
f 305 405 306
f 306 405 406
f 306 406 307
f 307 406 407
f 307 407 310
f 310 407 408
f 310 408 313
f 313 408 409
f 313 409 316
f 316 317 410
f 316 410 411
f 316 409 412
f 316 412 411
f 411 412 413
f 411 413 410
f 298 318 414
f 298 414 397
f 317 322 415
f 317 415 410
f 410 413 416
f 410 416 415
f 318 323 417
f 318 417 414
f 322 327 418
f 322 418 415
f 415 416 419
f 415 419 418
f 323 328 420
f 323 420 417
f 327 332 421
f 327 421 418
f 418 419 422
f 418 422 421
f 328 333 423
f 328 423 420
f 332 337 424
f 332 424 421
f 421 422 425
f 421 425 424
f 333 338 426
f 333 426 423
f 337 342 427
f 337 427 424
f 424 425 428
f 424 428 427
f 338 343 429
f 338 429 426
f 342 347 430
f 342 430 427
f 427 428 431
f 427 431 430
f 343 348 432
f 343 432 429
f 347 352 433
f 347 433 430
f 430 431 434
f 430 434 433
f 348 353 435
f 348 435 432
f 352 357 436
f 352 436 433
f 433 434 437
f 433 437 436
f 353 358 438
f 353 438 435
f 357 362 439
f 357 439 436
f 436 437 440
f 436 440 439
f 358 363 441
f 358 441 438
f 362 367 442
f 362 442 439
f 439 440 443
f 439 443 442
f 363 368 444
f 363 444 441
f 367 372 445
f 367 445 442
f 442 443 446
f 442 446 445
f 368 373 447
f 368 447 444
f 372 377 448
f 372 448 445
f 445 446 449
f 445 449 448
f 379 378 450
f 379 450 451
f 373 379 451
f 373 451 447
f 378 380 452
f 378 452 450
f 380 381 453
f 380 453 452
f 381 382 454
f 381 454 453
f 382 383 455
f 382 455 454
f 383 384 456
f 383 456 455
f 384 385 457
f 384 457 456
f 385 386 458
f 385 458 457
f 386 387 459
f 386 459 458
f 387 388 460
f 387 460 459
f 388 390 461
f 388 461 460
f 390 392 462
f 390 462 461
f 392 394 463
f 392 463 462
f 377 394 464
f 377 464 448
f 394 464 465
f 394 465 463
f 448 449 465
f 448 465 464
f 395 466 467
f 395 467 396
f 395 397 468
f 395 468 466
f 396 467 469
f 396 469 398
f 398 469 470
f 398 470 399
f 399 470 471
f 399 471 400
f 400 471 472
f 400 472 401
f 401 472 473
f 401 473 402
f 402 473 474
f 402 474 403
f 403 474 475
f 403 475 404
f 404 475 476
f 404 476 405
f 405 476 477
f 405 477 406
f 406 477 478
f 406 478 407
f 407 478 479
f 407 479 408
f 408 479 480
f 408 480 409
f 409 480 481
f 409 481 412
f 412 413 482
f 412 482 483
f 412 481 484
f 412 484 483
f 483 484 485
f 483 485 482
f 397 414 486
f 397 486 468
f 413 416 487
f 413 487 482
f 482 485 488
f 482 488 487
f 414 417 489
f 414 489 486
f 416 419 490
f 416 490 487
f 487 488 491
f 487 491 490
f 417 420 492
f 417 492 489
f 419 422 493
f 419 493 490
f 490 491 494
f 490 494 493
f 420 423 495
f 420 495 492
f 422 425 496
f 422 496 493
f 493 494 497
f 493 497 496
f 423 426 498
f 423 498 495
f 425 428 499
f 425 499 496
f 496 497 500
f 496 500 499
f 426 429 501
f 426 501 498
f 428 431 502
f 428 502 499
f 499 500 503
f 499 503 502
f 429 432 504
f 429 504 501
f 431 434 505
f 431 505 502
f 502 503 506
f 502 506 505
f 432 435 507
f 432 507 504
f 434 437 508
f 434 508 505
f 505 506 509
f 505 509 508
f 435 438 510
f 435 510 507
f 437 440 511
f 437 511 508
f 508 509 512
f 508 512 511
f 438 441 513
f 438 513 510
f 440 443 514
f 440 514 511
f 511 512 515
f 511 515 514
f 441 444 516
f 441 516 513
f 443 446 517
f 443 517 514
f 514 515 518
f 514 518 517
f 444 447 519
f 444 519 516
f 446 449 520
f 446 520 517
f 517 518 521
f 517 521 520
f 451 450 522
f 451 522 523
f 447 451 523
f 447 523 519
f 450 452 524
f 450 524 522
f 452 453 525
f 452 525 524
f 453 454 526
f 453 526 525
f 454 455 527
f 454 527 526
f 455 456 528
f 455 528 527
f 456 457 529
f 456 529 528
f 457 458 530
f 457 530 529
f 458 459 531
f 458 531 530
f 459 460 532
f 459 532 531
f 460 461 533
f 460 533 532
f 461 462 534
f 461 534 533
f 462 463 535
f 462 535 534
f 463 465 536
f 463 536 535
f 449 465 537
f 449 537 520
f 465 537 538
f 465 538 536
f 520 521 538
f 520 538 537
f 466 539 540
f 466 540 467
f 466 468 541
f 466 541 539
f 467 540 542
f 467 542 469
f 469 542 543
f 469 543 470
f 470 543 544
f 470 544 471
f 471 544 545
f 471 545 472
f 472 545 546
f 472 546 473
f 473 546 547
f 473 547 474
f 474 547 548
f 474 548 475
f 475 548 549
f 475 549 476
f 476 549 550
f 476 550 477
f 477 550 551
f 477 551 478
f 478 551 552
f 478 552 479
f 479 552 553
f 479 553 480
f 480 553 554
f 480 554 481
f 481 554 555
f 481 555 484
f 484 555 556
f 484 556 485
f 468 486 557
f 468 557 541
f 485 556 558
f 485 558 488
f 486 489 559
f 486 559 557
f 488 558 560
f 488 560 491
f 489 492 561
f 489 561 559
f 491 560 562
f 491 562 494
f 492 495 563
f 492 563 561
f 494 562 564
f 494 564 497
f 495 498 565
f 495 565 563
f 497 564 566
f 497 566 500
f 498 501 567
f 498 567 565
f 500 566 568
f 500 568 503
f 501 504 569
f 501 569 567
f 503 568 570
f 503 570 506
f 504 507 571
f 504 571 569
f 506 570 572
f 506 572 509
f 507 510 573
f 507 573 571
f 509 572 574
f 509 574 512
f 510 513 575
f 510 575 573
f 512 574 576
f 512 576 515
f 513 516 577
f 513 577 575
f 515 576 578
f 515 578 518
f 516 519 579
f 516 579 577
f 518 578 580
f 518 580 521
f 523 522 581
f 523 581 582
f 519 523 582
f 519 582 579
f 522 524 583
f 522 583 581
f 524 525 584
f 524 584 583
f 525 526 585
f 525 585 584
f 526 527 586
f 526 586 585
f 527 528 587
f 527 587 586
f 528 529 588
f 528 588 587
f 529 530 589
f 529 589 588
f 530 531 590
f 530 590 589
f 531 532 591
f 531 591 590
f 532 533 592
f 532 592 591
f 533 534 593
f 533 593 592
f 534 535 594
f 534 594 593
f 535 536 595
f 535 595 594
f 536 538 596
f 536 596 595
f 521 580 596
f 521 596 538
f 539 597 598
f 539 598 540
f 539 541 599
f 539 599 597
f 540 598 600
f 540 600 542
f 542 600 601
f 542 601 543
f 543 601 602
f 543 602 544
f 544 602 603
f 544 603 545
f 545 603 604
f 545 604 546
f 546 604 605
f 546 605 547
f 547 605 606
f 547 606 548
f 548 606 607
f 548 607 549
f 549 607 608
f 549 608 550
f 550 608 609
f 550 609 551
f 551 609 610
f 551 610 552
f 552 610 611
f 552 611 553
f 553 611 612
f 553 612 554
f 554 612 613
f 554 613 555
f 555 613 614
f 555 614 556
f 541 557 615
f 541 615 599
f 556 614 616
f 556 616 558
f 557 559 617
f 557 617 615
f 558 616 618
f 558 618 560
f 559 561 619
f 559 619 617
f 560 618 620
f 560 620 562
f 561 563 621
f 561 621 619
f 562 620 622
f 562 622 564
f 563 565 623
f 563 623 621
f 564 622 624
f 564 624 566
f 565 567 625
f 565 625 623
f 566 624 626
f 566 626 568
f 567 569 627
f 567 627 625
f 568 626 628
f 568 628 570
f 569 571 629
f 569 629 627
f 570 628 630
f 570 630 572
f 571 573 631
f 571 631 629
f 572 630 632
f 572 632 574
f 573 575 633
f 573 633 631
f 574 632 634
f 574 634 576
f 575 577 635
f 575 635 633
f 576 634 636
f 576 636 578
f 577 579 637
f 577 637 635
f 578 636 638
f 578 638 580
f 582 581 639
f 582 639 640
f 579 582 640
f 579 640 637
f 581 583 641
f 581 641 639
f 583 584 642
f 583 642 641
f 584 585 643
f 584 643 642
f 585 586 644
f 585 644 643
f 586 587 645
f 586 645 644
f 587 588 646
f 587 646 645
f 588 589 647
f 588 647 646
f 589 590 648
f 589 648 647
f 590 591 649
f 590 649 648
f 591 592 650
f 591 650 649
f 592 593 651
f 592 651 650
f 593 594 652
f 593 652 651
f 594 595 653
f 594 653 652
f 595 596 654
f 595 654 653
f 580 638 654
f 580 654 596
f 597 655 656
f 597 656 598
f 597 599 657
f 597 657 655
f 598 656 658
f 598 658 600
f 600 658 659
f 600 659 601
f 601 659 660
f 601 660 602
f 602 660 661
f 602 661 603
f 603 661 662
f 603 662 604
f 604 662 663
f 604 663 605
f 605 663 664
f 605 664 606
f 606 664 665
f 606 665 607
f 607 665 666
f 607 666 608
f 608 666 667
f 608 667 609
f 609 667 668
f 609 668 610
f 610 668 669
f 610 669 611
f 611 669 670
f 611 670 612
f 670 671 672
f 670 672 673
f 612 670 671
f 612 671 613
f 613 671 672
f 613 672 614
f 599 615 674
f 599 674 657
f 673 672 675
f 673 675 676
f 614 672 675
f 614 675 616
f 615 617 677
f 615 677 674
f 676 675 678
f 676 678 679
f 616 675 678
f 616 678 618
f 617 619 680
f 617 680 677
f 679 678 681
f 679 681 682
f 618 678 681
f 618 681 620
f 619 621 683
f 619 683 680
f 682 681 684
f 682 684 685
f 620 681 684
f 620 684 622
f 621 623 686
f 621 686 683
f 685 684 687
f 685 687 688
f 622 684 687
f 622 687 624
f 623 625 689
f 623 689 686
f 688 687 690
f 688 690 691
f 624 687 690
f 624 690 626
f 625 627 692
f 625 692 689
f 691 690 693
f 691 693 694
f 626 690 693
f 626 693 628
f 627 629 695
f 627 695 692
f 694 693 696
f 694 696 697
f 628 693 696
f 628 696 630
f 629 631 698
f 629 698 695
f 697 696 699
f 697 699 700
f 630 696 699
f 630 699 632
f 631 633 701
f 631 701 698
f 700 699 702
f 700 702 703
f 632 699 702
f 632 702 634
f 633 635 704
f 633 704 701
f 703 702 705
f 703 705 706
f 634 702 705
f 634 705 636
f 635 637 707
f 635 707 704
f 706 705 708
f 706 708 709
f 636 705 708
f 636 708 638
f 640 639 710
f 640 710 711
f 637 640 711
f 637 711 707
f 639 641 712
f 639 712 710
f 641 642 713
f 641 713 712
f 642 643 714
f 642 714 713
f 643 644 715
f 643 715 714
f 644 645 716
f 644 716 715
f 645 646 717
f 645 717 716
f 646 647 718
f 646 718 717
f 647 648 719
f 647 719 718
f 648 649 720
f 648 720 719
f 649 650 721
f 649 721 720
f 650 651 722
f 650 722 721
f 651 652 723
f 651 723 722
f 652 653 724
f 652 724 723
f 709 708 725
f 709 725 724
f 653 654 725
f 653 725 724
f 638 708 725
f 638 725 654
f 655 726 727
f 655 727 656
f 655 657 728
f 655 728 726
f 656 727 729
f 656 729 658
f 658 729 730
f 658 730 659
f 659 730 731
f 659 731 660
f 660 731 732
f 660 732 661
f 661 732 733
f 661 733 662
f 662 733 734
f 662 734 663
f 663 734 735
f 663 735 664
f 664 735 736
f 664 736 665
f 665 736 737
f 665 737 666
f 666 737 738
f 666 738 667
f 667 738 739
f 667 739 668
f 668 739 740
f 668 740 669
f 740 741 742
f 740 742 743
f 669 740 741
f 669 741 670
f 670 741 742
f 670 742 673
f 657 674 744
f 657 744 728
f 743 742 745
f 743 745 746
f 673 742 745
f 673 745 676
f 674 677 747
f 674 747 744
f 746 745 748
f 746 748 749
f 676 745 748
f 676 748 679
f 677 680 750
f 677 750 747
f 749 748 751
f 749 751 752
f 679 748 751
f 679 751 682
f 680 683 753
f 680 753 750
f 752 751 754
f 752 754 755
f 682 751 754
f 682 754 685
f 683 686 756
f 683 756 753
f 755 754 757
f 755 757 758
f 685 754 757
f 685 757 688
f 686 689 759
f 686 759 756
f 758 757 760
f 758 760 761
f 688 757 760
f 688 760 691
f 689 692 762
f 689 762 759
f 761 760 763
f 761 763 764
f 691 760 763
f 691 763 694
f 692 695 765
f 692 765 762
f 764 763 766
f 764 766 767
f 694 763 766
f 694 766 697
f 695 698 768
f 695 768 765
f 767 766 769
f 767 769 770
f 697 766 769
f 697 769 700
f 698 701 771
f 698 771 768
f 770 769 772
f 770 772 773
f 700 769 772
f 700 772 703
f 701 704 774
f 701 774 771
f 773 772 775
f 773 775 776
f 703 772 775
f 703 775 706
f 704 707 777
f 704 777 774
f 776 775 778
f 776 778 779
f 706 775 778
f 706 778 709
f 711 710 780
f 711 780 781
f 707 711 781
f 707 781 777
f 710 712 782
f 710 782 780
f 712 713 783
f 712 783 782
f 713 714 784
f 713 784 783
f 714 715 785
f 714 785 784
f 715 716 786
f 715 786 785
f 716 717 787
f 716 787 786
f 717 718 788
f 717 788 787
f 718 719 789
f 718 789 788
f 719 720 790
f 719 790 789
f 720 721 791
f 720 791 790
f 721 722 792
f 721 792 791
f 722 723 793
f 722 793 792
f 779 778 794
f 779 794 793
f 723 724 794
f 723 794 793
f 709 778 794
f 709 794 724
f 726 795 796
f 726 796 727
f 726 728 797
f 726 797 795
f 727 796 798
f 727 798 729
f 729 798 799
f 729 799 730
f 730 799 800
f 730 800 731
f 731 800 801
f 731 801 732
f 732 801 802
f 732 802 733
f 733 802 803
f 733 803 734
f 734 803 804
f 734 804 735
f 735 804 805
f 735 805 736
f 736 805 806
f 736 806 737
f 806 807 808
f 806 808 809
f 737 806 807
f 737 807 738
f 807 810 811
f 807 811 808
f 738 807 810
f 738 810 739
f 810 812 813
f 810 813 811
f 739 810 812
f 739 812 740
f 740 812 813
f 740 813 743
f 728 744 814
f 728 814 797
f 809 808 815
f 809 815 816
f 808 811 817
f 808 817 815
f 811 813 818
f 811 818 817
f 743 813 818
f 743 818 746
f 744 747 819
f 744 819 814
f 816 815 820
f 816 820 821
f 815 817 822
f 815 822 820
f 817 818 823
f 817 823 822
f 746 818 823
f 746 823 749
f 747 750 824
f 747 824 819
f 821 820 825
f 821 825 826
f 820 822 827
f 820 827 825
f 822 823 828
f 822 828 827
f 749 823 828
f 749 828 752
f 750 753 829
f 750 829 824
f 826 825 830
f 826 830 831
f 825 827 832
f 825 832 830
f 827 828 833
f 827 833 832
f 752 828 833
f 752 833 755
f 753 756 834
f 753 834 829
f 831 830 835
f 831 835 836
f 830 832 837
f 830 837 835
f 832 833 838
f 832 838 837
f 755 833 838
f 755 838 758
f 756 759 839
f 756 839 834
f 836 835 840
f 836 840 841
f 835 837 842
f 835 842 840
f 837 838 843
f 837 843 842
f 758 838 843
f 758 843 761
f 759 762 844
f 759 844 839
f 841 840 845
f 841 845 846
f 840 842 847
f 840 847 845
f 842 843 848
f 842 848 847
f 761 843 848
f 761 848 764
f 762 765 849
f 762 849 844
f 846 845 850
f 846 850 851
f 845 847 852
f 845 852 850
f 847 848 853
f 847 853 852
f 764 848 853
f 764 853 767
f 765 768 854
f 765 854 849
f 851 850 855
f 851 855 856
f 850 852 857
f 850 857 855
f 852 853 858
f 852 858 857
f 767 853 858
f 767 858 770
f 768 771 859
f 768 859 854
f 856 855 860
f 856 860 861
f 855 857 862
f 855 862 860
f 857 858 863
f 857 863 862
f 770 858 863
f 770 863 773
f 771 774 864
f 771 864 859
f 861 860 865
f 861 865 866
f 860 862 867
f 860 867 865
f 862 863 868
f 862 868 867
f 773 863 868
f 773 868 776
f 774 777 869
f 774 869 864
f 866 865 870
f 866 870 871
f 865 867 872
f 865 872 870
f 867 868 873
f 867 873 872
f 776 868 873
f 776 873 779
f 781 780 874
f 781 874 875
f 777 781 875
f 777 875 869
f 780 782 876
f 780 876 874
f 782 783 877
f 782 877 876
f 783 784 878
f 783 878 877
f 784 785 879
f 784 879 878
f 785 786 880
f 785 880 879
f 786 787 881
f 786 881 880
f 787 788 882
f 787 882 881
f 788 789 883
f 788 883 882
f 789 790 884
f 789 884 883
f 871 870 885
f 871 885 884
f 790 791 885
f 790 885 884
f 870 872 886
f 870 886 885
f 791 792 886
f 791 886 885
f 872 873 887
f 872 887 886
f 792 793 887
f 792 887 886
f 779 873 887
f 779 887 793
f 795 888 889
f 795 889 796
f 795 797 890
f 795 890 888
f 796 889 891
f 796 891 798
f 798 891 892
f 798 892 799
f 799 892 893
f 799 893 800
f 800 893 894
f 800 894 801
f 801 894 895
f 801 895 802
f 802 895 896
f 802 896 803
f 803 896 897
f 803 897 804
f 897 898 899
f 897 899 900
f 804 897 898
f 804 898 805
f 898 901 902
f 898 902 899
f 805 898 901
f 805 901 806
f 806 901 902
f 806 902 809
f 797 814 903
f 797 903 890
f 900 899 904
f 900 904 905
f 899 902 906
f 899 906 904
f 809 902 906
f 809 906 816
f 814 819 907
f 814 907 903
f 905 904 908
f 905 908 909
f 904 906 910
f 904 910 908
f 816 906 910
f 816 910 821
f 819 824 911
f 819 911 907
f 909 908 912
f 909 912 913
f 908 910 914
f 908 914 912
f 821 910 914
f 821 914 826
f 824 829 915
f 824 915 911
f 913 912 916
f 913 916 917
f 912 914 918
f 912 918 916
f 826 914 918
f 826 918 831
f 829 834 919
f 829 919 915
f 917 916 920
f 917 920 921
f 916 918 922
f 916 922 920
f 831 918 922
f 831 922 836
f 834 839 923
f 834 923 919
f 921 920 924
f 921 924 925
f 920 922 926
f 920 926 924
f 836 922 926
f 836 926 841
f 839 844 927
f 839 927 923
f 925 924 928
f 925 928 929
f 924 926 930
f 924 930 928
f 841 926 930
f 841 930 846
f 844 849 931
f 844 931 927
f 929 928 932
f 929 932 933
f 928 930 934
f 928 934 932
f 846 930 934
f 846 934 851
f 849 854 935
f 849 935 931
f 933 932 936
f 933 936 937
f 932 934 938
f 932 938 936
f 851 934 938
f 851 938 856
f 854 859 939
f 854 939 935
f 937 936 940
f 937 940 941
f 936 938 942
f 936 942 940
f 856 938 942
f 856 942 861
f 859 864 943
f 859 943 939
f 941 940 944
f 941 944 945
f 940 942 946
f 940 946 944
f 861 942 946
f 861 946 866
f 864 869 947
f 864 947 943
f 945 944 948
f 945 948 949
f 944 946 950
f 944 950 948
f 866 946 950
f 866 950 871
f 875 874 951
f 875 951 952
f 869 875 952
f 869 952 947
f 874 876 953
f 874 953 951
f 876 877 954
f 876 954 953
f 877 878 955
f 877 955 954
f 878 879 956
f 878 956 955
f 879 880 957
f 879 957 956
f 880 881 958
f 880 958 957
f 881 882 959
f 881 959 958
f 949 948 960
f 949 960 959
f 882 883 960
f 882 960 959
f 948 950 961
f 948 961 960
f 883 884 961
f 883 961 960
f 871 950 961
f 871 961 884
f 888 962 963
f 888 963 889
f 888 890 964
f 888 964 962
f 889 963 965
f 889 965 891
f 891 965 966
f 891 966 892
f 892 966 967
f 892 967 893
f 893 967 968
f 893 968 894
f 968 969 970
f 968 970 971
f 894 968 969
f 894 969 895
f 969 972 973
f 969 973 970
f 895 969 972
f 895 972 896
f 972 974 975
f 972 975 973
f 896 972 974
f 896 974 897
f 897 974 975
f 897 975 900
f 890 903 976
f 890 976 964
f 971 970 977
f 971 977 978
f 970 973 979
f 970 979 977
f 973 975 980
f 973 980 979
f 900 975 980
f 900 980 905
f 903 907 981
f 903 981 976
f 978 977 982
f 978 982 983
f 977 979 984
f 977 984 982
f 979 980 985
f 979 985 984
f 905 980 985
f 905 985 909
f 907 911 986
f 907 986 981
f 983 982 987
f 983 987 988
f 982 984 989
f 982 989 987
f 984 985 990
f 984 990 989
f 909 985 990
f 909 990 913
f 911 915 991
f 911 991 986
f 988 987 992
f 988 992 993
f 987 989 994
f 987 994 992
f 989 990 995
f 989 995 994
f 913 990 995
f 913 995 917
f 915 919 996
f 915 996 991
f 993 992 997
f 993 997 998
f 992 994 999
f 992 999 997
f 994 995 1000
f 994 1000 999
f 917 995 1000
f 917 1000 921
f 919 923 1001
f 919 1001 996
f 998 997 1002
f 998 1002 1003
f 997 999 1004
f 997 1004 1002
f 999 1000 1005
f 999 1005 1004
f 921 1000 1005
f 921 1005 925
f 923 927 1006
f 923 1006 1001
f 1003 1002 1007
f 1003 1007 1008
f 1002 1004 1009
f 1002 1009 1007
f 1004 1005 1010
f 1004 1010 1009
f 925 1005 1010
f 925 1010 929
f 927 931 1011
f 927 1011 1006
f 1008 1007 1012
f 1008 1012 1013
f 1007 1009 1014
f 1007 1014 1012
f 1009 1010 1015
f 1009 1015 1014
f 929 1010 1015
f 929 1015 933
f 931 935 1016
f 931 1016 1011
f 1013 1012 1017
f 1013 1017 1018
f 1012 1014 1019
f 1012 1019 1017
f 1014 1015 1020
f 1014 1020 1019
f 933 1015 1020
f 933 1020 937
f 935 939 1021
f 935 1021 1016
f 1018 1017 1022
f 1018 1022 1023
f 1017 1019 1024
f 1017 1024 1022
f 1019 1020 1025
f 1019 1025 1024
f 937 1020 1025
f 937 1025 941
f 939 943 1026
f 939 1026 1021
f 1023 1022 1027
f 1023 1027 1028
f 1022 1024 1029
f 1022 1029 1027
f 1024 1025 1030
f 1024 1030 1029
f 941 1025 1030
f 941 1030 945
f 943 947 1031
f 943 1031 1026
f 1028 1027 1032
f 1028 1032 1033
f 1027 1029 1034
f 1027 1034 1032
f 1029 1030 1035
f 1029 1035 1034
f 945 1030 1035
f 945 1035 949
f 952 951 1036
f 952 1036 1037
f 947 952 1037
f 947 1037 1031
f 951 953 1038
f 951 1038 1036
f 953 954 1039
f 953 1039 1038
f 954 955 1040
f 954 1040 1039
f 955 956 1041
f 955 1041 1040
f 1033 1032 1042
f 1033 1042 1041
f 956 957 1042
f 956 1042 1041
f 1032 1034 1043
f 1032 1043 1042
f 957 958 1043
f 957 1043 1042
f 1034 1035 1044
f 1034 1044 1043
f 958 959 1044
f 958 1044 1043
f 949 1035 1044
f 949 1044 959
f 1045 1046 1047
f 1045 1047 1048
f 962 1045 1046
f 962 1046 963
f 962 964 1048
f 962 1048 1045
f 1046 1049 1050
f 1046 1050 1047
f 963 1046 1049
f 963 1049 965
f 1049 1051 1052
f 1049 1052 1050
f 965 1049 1051
f 965 1051 966
f 1051 1053 1054
f 1051 1054 1052
f 966 1051 1053
f 966 1053 967
f 1053 1055 1056
f 1053 1056 1054
f 967 1053 1055
f 967 1055 968
f 968 1055 1056
f 968 1056 971
f 1048 1047 1057
f 1048 1057 1058
f 964 976 1058
f 964 1058 1048
f 1047 1050 1059
f 1047 1059 1057
f 1050 1052 1060
f 1050 1060 1059
f 1052 1054 1061
f 1052 1061 1060
f 1054 1056 1062
f 1054 1062 1061
f 971 1056 1062
f 971 1062 978
f 1058 1057 1063
f 1058 1063 1064
f 976 981 1064
f 976 1064 1058
f 1057 1059 1065
f 1057 1065 1063
f 1059 1060 1066
f 1059 1066 1065
f 1060 1061 1067
f 1060 1067 1066
f 1061 1062 1068
f 1061 1068 1067
f 978 1062 1068
f 978 1068 983
f 1064 1063 1069
f 1064 1069 1070
f 981 986 1070
f 981 1070 1064
f 1063 1065 1071
f 1063 1071 1069
f 1065 1066 1072
f 1065 1072 1071
f 1066 1067 1073
f 1066 1073 1072
f 1067 1068 1074
f 1067 1074 1073
f 983 1068 1074
f 983 1074 988
f 1070 1069 1075
f 1070 1075 1076
f 986 991 1076
f 986 1076 1070
f 1069 1071 1077
f 1069 1077 1075
f 1071 1072 1078
f 1071 1078 1077
f 1072 1073 1079
f 1072 1079 1078
f 1073 1074 1080
f 1073 1080 1079
f 988 1074 1080
f 988 1080 993
f 1076 1075 1081
f 1076 1081 1082
f 991 996 1082
f 991 1082 1076
f 1075 1077 1083
f 1075 1083 1081
f 1077 1078 1084
f 1077 1084 1083
f 1078 1079 1085
f 1078 1085 1084
f 1079 1080 1086
f 1079 1086 1085
f 993 1080 1086
f 993 1086 998
f 1082 1081 1087
f 1082 1087 1088
f 996 1001 1088
f 996 1088 1082
f 1081 1083 1089
f 1081 1089 1087
f 1083 1084 1090
f 1083 1090 1089
f 1084 1085 1091
f 1084 1091 1090
f 1085 1086 1092
f 1085 1092 1091
f 998 1086 1092
f 998 1092 1003
f 1088 1087 1093
f 1088 1093 1094
f 1001 1006 1094
f 1001 1094 1088
f 1087 1089 1095
f 1087 1095 1093
f 1089 1090 1096
f 1089 1096 1095
f 1090 1091 1097
f 1090 1097 1096
f 1091 1092 1098
f 1091 1098 1097
f 1003 1092 1098
f 1003 1098 1008
f 1094 1093 1099
f 1094 1099 1100
f 1006 1011 1100
f 1006 1100 1094
f 1093 1095 1101
f 1093 1101 1099
f 1095 1096 1102
f 1095 1102 1101
f 1096 1097 1103
f 1096 1103 1102
f 1097 1098 1104
f 1097 1104 1103
f 1008 1098 1104
f 1008 1104 1013
f 1100 1099 1105
f 1100 1105 1106
f 1011 1016 1106
f 1011 1106 1100
f 1099 1101 1107
f 1099 1107 1105
f 1101 1102 1108
f 1101 1108 1107
f 1102 1103 1109
f 1102 1109 1108
f 1103 1104 1110
f 1103 1110 1109
f 1013 1104 1110
f 1013 1110 1018
f 1106 1105 1111
f 1106 1111 1112
f 1016 1021 1112
f 1016 1112 1106
f 1105 1107 1113
f 1105 1113 1111
f 1107 1108 1114
f 1107 1114 1113
f 1108 1109 1115
f 1108 1115 1114
f 1109 1110 1116
f 1109 1116 1115
f 1018 1110 1116
f 1018 1116 1023
f 1112 1111 1117
f 1112 1117 1118
f 1021 1026 1118
f 1021 1118 1112
f 1111 1113 1119
f 1111 1119 1117
f 1113 1114 1120
f 1113 1120 1119
f 1114 1115 1121
f 1114 1121 1120
f 1115 1116 1122
f 1115 1122 1121
f 1023 1116 1122
f 1023 1122 1028
f 1118 1117 1123
f 1118 1123 1124
f 1026 1031 1124
f 1026 1124 1118
f 1117 1119 1125
f 1117 1125 1123
f 1119 1120 1126
f 1119 1126 1125
f 1120 1121 1127
f 1120 1127 1126
f 1121 1122 1128
f 1121 1128 1127
f 1028 1122 1128
f 1028 1128 1033
f 1124 1123 1129
f 1124 1129 1130
f 1037 1036 1129
f 1037 1129 1130
f 1031 1037 1130
f 1031 1130 1124
f 1123 1125 1131
f 1123 1131 1129
f 1036 1038 1131
f 1036 1131 1129
f 1125 1126 1132
f 1125 1132 1131
f 1038 1039 1132
f 1038 1132 1131
f 1126 1127 1133
f 1126 1133 1132
f 1039 1040 1133
f 1039 1133 1132
f 1127 1128 1134
f 1127 1134 1133
f 1040 1041 1134
f 1040 1134 1133
f 1033 1128 1134
f 1033 1134 1041
