o [4B] 3D Diagram - S2-06 Group A_708
v 9.050000 2.045000 52.165000
v 9.050000 4.610000 52.165000
v 9.050000 4.610000 52.570000
v 9.050000 2.045000 52.570000
v 9.193750 2.045000 52.165000
v 9.193750 2.045000 52.570000
v 9.193750 4.610000 52.165000
v 9.050000 4.610000 52.975000
v 9.050000 2.045000 52.975000
v 9.193750 2.045000 52.975000
v 9.050000 4.610000 53.380000
v 9.050000 2.045000 53.380000
v 9.193750 2.045000 53.380000
v 9.050000 4.610000 53.785000
v 9.050000 2.045000 53.785000
v 9.193750 2.045000 53.785000
v 9.050000 4.610000 54.190000
v 9.050000 2.045000 54.190000
v 9.193750 2.045000 54.190000
v 9.050000 4.610000 54.595000
v 9.050000 2.045000 54.595000
v 9.193750 2.045000 54.595000
v 9.050000 4.610000 55.000000
v 9.050000 2.045000 55.000000
v 9.193750 2.045000 55.000000
v 9.050000 4.610000 55.405000
v 9.050000 2.045000 55.405000
v 9.193750 2.045000 55.405000
v 9.050000 4.610000 55.810000
v 9.050000 2.045000 55.810000
v 9.193750 2.045000 55.810000
v 9.050000 4.610000 56.215000
v 9.050000 2.045000 56.215000
v 9.193750 2.045000 56.215000
v 9.050000 4.610000 56.620000
v 9.050000 2.045000 56.620000
v 9.193750 2.045000 56.620000
v 9.050000 4.610000 57.025000
v 9.050000 2.045000 57.025000
v 9.193750 2.045000 57.025000
v 9.050000 4.610000 57.430000
v 9.050000 2.045000 57.430000
v 9.193750 2.045000 57.430000
v 9.050000 4.610000 57.835000
v 9.050000 2.045000 57.835000
v 9.193750 2.045000 57.835000
v 9.050000 4.610000 58.240000
v 9.050000 2.045000 58.240000
v 9.193750 2.045000 58.240000
v 9.193750 4.610000 58.240000
v 9.050000 7.175000 52.165000
v 9.050000 7.175000 52.570000
v 9.193750 7.175000 52.165000
v 9.050000 7.175000 52.975000
v 9.050000 7.175000 53.380000
v 9.050000 7.175000 53.785000
v 9.050000 7.175000 54.190000
v 9.050000 7.175000 54.595000
v 9.050000 7.175000 55.000000
v 9.050000 7.175000 55.405000
v 9.050000 7.175000 55.810000
v 9.050000 7.175000 56.215000
v 9.050000 7.175000 56.620000
v 9.050000 7.175000 57.025000
v 9.050000 7.175000 57.430000
v 9.050000 7.175000 57.835000
v 9.050000 7.175000 58.240000
v 9.193750 7.175000 58.240000
v 9.050000 9.740000 52.165000
v 9.050000 9.740000 52.570000
v 9.193750 9.740000 52.165000
v 9.050000 9.740000 52.975000
v 9.050000 9.740000 53.380000
v 9.050000 9.740000 53.785000
v 9.050000 9.740000 54.190000
v 9.050000 9.740000 54.595000
v 9.050000 9.740000 55.000000
v 9.050000 9.740000 55.405000
v 9.050000 9.740000 55.810000
v 9.050000 9.740000 56.215000
v 9.050000 9.740000 56.620000
v 9.050000 9.740000 57.025000
v 9.050000 9.740000 57.430000
v 9.050000 9.740000 57.835000
v 9.050000 9.740000 58.240000
v 9.193750 9.740000 58.240000
v 9.050000 12.305000 52.165000
v 9.050000 12.305000 52.570000
v 9.193750 12.305000 52.165000
v 9.050000 12.305000 52.975000
v 9.050000 12.305000 53.380000
v 9.050000 12.305000 53.785000
v 9.050000 12.305000 54.190000
v 9.050000 12.305000 54.595000
v 9.050000 12.305000 55.000000
v 9.050000 12.305000 55.405000
v 9.050000 12.305000 55.810000
v 9.050000 12.305000 56.215000
v 9.050000 12.305000 56.620000
v 9.050000 12.305000 57.025000
v 9.050000 12.305000 57.430000
v 9.050000 12.305000 57.835000
v 9.050000 12.305000 58.240000
v 9.193750 12.305000 58.240000
v 9.050000 14.870000 52.165000
v 9.050000 14.870000 52.570000
v 9.193750 14.870000 52.165000
v 9.050000 14.870000 52.975000
v 9.050000 14.870000 53.380000
v 9.050000 14.870000 53.785000
v 9.050000 14.870000 54.190000
v 9.050000 14.870000 54.595000
v 9.050000 14.870000 55.000000
v 9.050000 14.870000 55.405000
v 9.050000 14.870000 55.810000
v 9.050000 14.870000 56.215000
v 9.050000 14.870000 56.620000
v 9.050000 14.870000 57.025000
v 9.050000 14.870000 57.430000
v 9.050000 14.870000 57.835000
v 9.050000 14.870000 58.240000
v 9.193750 14.870000 58.240000
v 9.050000 17.435000 52.165000
v 9.050000 17.435000 52.570000
v 9.193750 17.435000 52.165000
v 9.050000 17.435000 52.975000
v 9.050000 17.435000 53.380000
v 9.050000 17.435000 53.785000
v 9.050000 17.435000 54.190000
v 9.050000 17.435000 54.595000
v 9.050000 17.435000 55.000000
v 9.050000 17.435000 55.405000
v 9.050000 17.435000 55.810000
v 9.050000 17.435000 56.215000
v 9.050000 17.435000 56.620000
v 9.050000 17.435000 57.025000
v 9.050000 17.435000 57.430000
v 9.050000 17.435000 57.835000
v 9.050000 17.435000 58.240000
v 9.193750 17.435000 58.240000
v 9.050000 20.000000 52.165000
v 9.050000 20.000000 52.570000
v 9.193750 20.000000 52.165000
v 9.050000 20.000000 52.975000
v 9.050000 20.000000 53.380000
v 9.050000 20.000000 53.785000
v 9.050000 20.000000 54.190000
v 9.050000 20.000000 54.595000
v 9.050000 20.000000 55.000000
v 9.050000 20.000000 55.405000
v 9.050000 20.000000 55.810000
v 9.050000 20.000000 56.215000
v 9.050000 20.000000 56.620000
v 9.050000 20.000000 57.025000
v 9.050000 20.000000 57.430000
v 9.050000 20.000000 57.835000
v 9.050000 20.000000 58.240000
v 9.193750 20.000000 58.240000
v 9.050000 22.565000 52.165000
v 9.050000 22.565000 52.570000
v 9.193750 22.565000 52.165000
v 9.050000 22.565000 52.975000
v 9.050000 22.565000 53.380000
v 9.050000 22.565000 53.785000
v 9.050000 22.565000 54.190000
v 9.050000 22.565000 54.595000
v 9.050000 22.565000 55.000000
v 9.050000 22.565000 55.405000
v 9.050000 22.565000 55.810000
v 9.050000 22.565000 56.215000
v 9.050000 22.565000 56.620000
v 9.050000 22.565000 57.025000
v 9.050000 22.565000 57.430000
v 9.050000 22.565000 57.835000
v 9.050000 22.565000 58.240000
v 9.193750 22.565000 58.240000
v 9.050000 25.130000 52.165000
v 9.050000 25.130000 52.570000
v 9.193750 25.130000 52.165000
v 9.050000 25.130000 52.975000
v 9.050000 25.130000 53.380000
v 9.050000 25.130000 53.785000
v 9.050000 25.130000 54.190000
v 9.050000 25.130000 54.595000
v 9.050000 25.130000 55.000000
v 9.050000 25.130000 55.405000
v 9.050000 25.130000 55.810000
v 9.050000 25.130000 56.215000
v 9.050000 25.130000 56.620000
v 9.050000 25.130000 57.025000
v 9.050000 25.130000 57.430000
v 9.050000 25.130000 57.835000
v 9.050000 25.130000 58.240000
v 9.193750 25.130000 58.240000
v 9.050000 27.695000 52.165000
v 9.050000 27.695000 52.570000
v 9.193750 27.695000 52.165000
v 9.050000 27.695000 52.975000
v 9.050000 27.695000 53.380000
v 9.050000 27.695000 53.785000
v 9.050000 27.695000 54.190000
v 9.050000 27.695000 54.595000
v 9.050000 27.695000 55.000000
v 9.050000 27.695000 55.405000
v 9.050000 27.695000 55.810000
v 9.050000 27.695000 56.215000
v 9.050000 27.695000 56.620000
v 9.050000 27.695000 57.025000
v 9.050000 27.695000 57.430000
v 9.050000 27.695000 57.835000
v 9.050000 27.695000 58.240000
v 9.193750 27.695000 58.240000
v 9.050000 30.260000 52.165000
v 9.050000 30.260000 52.570000
v 9.193750 30.260000 52.165000
v 9.050000 30.260000 52.975000
v 9.050000 30.260000 53.380000
v 9.050000 30.260000 53.785000
v 9.050000 30.260000 54.190000
v 9.050000 30.260000 54.595000
v 9.050000 30.260000 55.000000
v 9.050000 30.260000 55.405000
v 9.050000 30.260000 55.810000
v 9.050000 30.260000 56.215000
v 9.050000 30.260000 56.620000
v 9.050000 30.260000 57.025000
v 9.050000 30.260000 57.430000
v 9.050000 30.260000 57.835000
v 9.050000 30.260000 58.240000
v 9.193750 30.260000 58.240000
v 9.050000 32.825000 52.165000
v 9.050000 32.825000 52.570000
v 9.193750 32.825000 52.165000
v 9.050000 32.825000 52.975000
v 9.050000 32.825000 53.380000
v 9.050000 32.825000 53.785000
v 9.050000 32.825000 54.190000
v 9.050000 32.825000 54.595000
v 9.050000 32.825000 55.000000
v 9.050000 32.825000 55.405000
v 9.050000 32.825000 55.810000
v 9.050000 32.825000 56.215000
v 9.050000 32.825000 56.620000
v 9.050000 32.825000 57.025000
v 9.050000 32.825000 57.430000
v 9.050000 32.825000 57.835000
v 9.050000 32.825000 58.240000
v 9.193750 32.825000 58.240000
v 9.050000 35.390000 52.165000
v 9.050000 35.390000 52.570000
v 9.193750 35.390000 52.165000
v 9.050000 35.390000 52.975000
v 9.050000 35.390000 53.380000
v 9.050000 35.390000 53.785000
v 9.050000 35.390000 54.190000
v 9.050000 35.390000 54.595000
v 9.050000 35.390000 55.000000
v 9.050000 35.390000 55.405000
v 9.050000 35.390000 55.810000
v 9.050000 35.390000 56.215000
v 9.050000 35.390000 56.620000
v 9.050000 35.390000 57.025000
v 9.050000 35.390000 57.430000
v 9.050000 35.390000 57.835000
v 9.050000 35.390000 58.240000
v 9.193750 35.390000 58.240000
v 9.050000 37.955000 52.165000
v 9.050000 37.955000 52.570000
v 9.193750 37.955000 52.570000
v 9.193750 37.955000 52.165000
v 9.050000 37.955000 52.975000
v 9.193750 37.955000 52.975000
v 9.050000 37.955000 53.380000
v 9.193750 37.955000 53.380000
v 9.050000 37.955000 53.785000
v 9.193750 37.955000 53.785000
v 9.050000 37.955000 54.190000
v 9.193750 37.955000 54.190000
v 9.050000 37.955000 54.595000
v 9.193750 37.955000 54.595000
v 9.050000 37.955000 55.000000
v 9.193750 37.955000 55.000000
v 9.050000 37.955000 55.405000
v 9.193750 37.955000 55.405000
v 9.050000 37.955000 55.810000
v 9.193750 37.955000 55.810000
v 9.050000 37.955000 56.215000
v 9.193750 37.955000 56.215000
v 9.050000 37.955000 56.620000
v 9.193750 37.955000 56.620000
v 9.050000 37.955000 57.025000
v 9.193750 37.955000 57.025000
v 9.050000 37.955000 57.430000
v 9.193750 37.955000 57.430000
v 9.050000 37.955000 57.835000
v 9.193750 37.955000 57.835000
v 9.050000 37.955000 58.240000
v 9.193750 37.955000 58.240000
v 9.337500 2.045000 52.165000
v 9.337500 2.045000 52.570000
v 9.337500 4.610000 52.165000
v 9.337500 2.045000 52.975000
v 9.337500 2.045000 53.380000
v 9.337500 2.045000 53.785000
v 9.337500 2.045000 54.190000
v 9.337500 2.045000 54.595000
v 9.337500 2.045000 55.000000
v 9.337500 2.045000 55.405000
v 9.337500 2.045000 55.810000
v 9.337500 2.045000 56.215000
v 9.337500 2.045000 56.620000
v 9.337500 2.045000 57.025000
v 9.337500 2.045000 57.430000
v 9.337500 2.045000 57.835000
v 9.337500 2.045000 58.240000
v 9.337500 4.610000 58.240000
v 9.337500 7.175000 52.165000
v 9.337500 7.175000 58.240000
v 9.337500 9.740000 52.165000
v 9.337500 9.740000 58.240000
v 9.337500 12.305000 52.165000
v 9.337500 12.305000 58.240000
v 9.337500 14.870000 52.165000
v 9.337500 14.870000 58.240000
v 9.337500 17.435000 52.165000
v 9.337500 17.435000 58.240000
v 9.337500 20.000000 52.165000
v 9.337500 20.000000 58.240000
v 9.337500 22.565000 52.165000
v 9.337500 22.565000 58.240000
v 9.337500 25.130000 52.165000
v 9.337500 25.130000 58.240000
v 9.337500 27.695000 52.165000
v 9.337500 27.695000 58.240000
v 9.337500 30.260000 52.165000
v 9.337500 30.260000 58.240000
v 9.337500 32.825000 52.165000
v 9.337500 32.825000 58.240000
v 9.337500 35.390000 52.165000
v 9.337500 35.390000 58.240000
v 9.337500 37.955000 52.570000
v 9.337500 37.955000 52.165000
v 9.337500 37.955000 52.975000
v 9.337500 37.955000 53.380000
v 9.337500 37.955000 53.785000
v 9.337500 37.955000 54.190000
v 9.337500 37.955000 54.595000
v 9.337500 37.955000 55.000000
v 9.337500 37.955000 55.405000
v 9.337500 37.955000 55.810000
v 9.337500 37.955000 56.215000
v 9.337500 37.955000 56.620000
v 9.337500 37.955000 57.025000
v 9.337500 37.955000 57.430000
v 9.337500 37.955000 57.835000
v 9.337500 37.955000 58.240000
v 9.481250 2.045000 52.165000
v 9.481250 2.045000 52.570000
v 9.481250 4.610000 52.165000
v 9.481250 2.045000 52.975000
v 9.481250 2.045000 53.380000
v 9.481250 2.045000 53.785000
v 9.481250 2.045000 54.190000
v 9.481250 2.045000 54.595000
v 9.481250 2.045000 55.000000
v 9.481250 2.045000 55.405000
v 9.481250 2.045000 55.810000
v 9.481250 2.045000 56.215000
v 9.481250 2.045000 56.620000
v 9.481250 2.045000 57.025000
v 9.481250 2.045000 57.430000
v 9.481250 2.045000 57.835000
v 9.481250 2.045000 58.240000
v 9.481250 4.610000 58.240000
v 9.481250 7.175000 52.165000
v 9.481250 7.175000 58.240000
v 9.481250 9.740000 52.165000
v 9.481250 9.740000 58.240000
v 9.481250 12.305000 52.165000
v 9.481250 12.305000 58.240000
v 9.481250 14.870000 52.165000
v 9.481250 14.870000 58.240000
v 9.481250 17.435000 52.165000
v 9.481250 17.435000 58.240000
v 9.481250 20.000000 52.165000
v 9.481250 20.000000 58.240000
v 9.481250 22.565000 52.165000
v 9.481250 22.565000 58.240000
v 9.481250 25.130000 52.165000
v 9.481250 25.130000 58.240000
v 9.481250 27.695000 52.165000
v 9.481250 27.695000 58.240000
v 9.481250 30.260000 52.165000
v 9.481250 30.260000 58.240000
v 9.481250 32.825000 52.165000
v 9.481250 32.825000 58.240000
v 9.481250 35.390000 52.165000
v 9.481250 35.390000 58.240000
v 9.481250 37.955000 52.570000
v 9.481250 37.955000 52.165000
v 9.481250 37.955000 52.975000
v 9.481250 37.955000 53.380000
v 9.481250 37.955000 53.785000
v 9.481250 37.955000 54.190000
v 9.481250 37.955000 54.595000
v 9.481250 37.955000 55.000000
v 9.481250 37.955000 55.405000
v 9.481250 37.955000 55.810000
v 9.481250 37.955000 56.215000
v 9.481250 37.955000 56.620000
v 9.481250 37.955000 57.025000
v 9.481250 37.955000 57.430000
v 9.481250 37.955000 57.835000
v 9.481250 37.955000 58.240000
v 9.625000 2.045000 52.165000
v 9.625000 2.045000 52.570000
v 9.625000 4.610000 52.165000
v 9.625000 2.045000 52.975000
v 9.625000 2.045000 53.380000
v 9.625000 2.045000 53.785000
v 9.625000 2.045000 54.190000
v 9.625000 2.045000 54.595000
v 9.625000 2.045000 55.000000
v 9.625000 2.045000 55.405000
v 9.625000 2.045000 55.810000
v 9.625000 2.045000 56.215000
v 9.625000 2.045000 56.620000
v 9.625000 2.045000 57.025000
v 9.625000 2.045000 57.430000
v 9.625000 2.045000 57.835000
v 9.625000 2.045000 58.240000
v 9.625000 4.610000 58.240000
v 9.625000 7.175000 52.165000
v 9.625000 7.175000 58.240000
v 9.625000 9.740000 52.165000
v 9.625000 9.740000 58.240000
v 9.625000 12.305000 52.165000
v 9.625000 12.305000 58.240000
v 9.625000 14.870000 52.165000
v 9.625000 14.870000 58.240000
v 9.625000 17.435000 52.165000
v 9.625000 17.435000 58.240000
v 9.625000 20.000000 52.165000
v 9.625000 20.000000 58.240000
v 9.625000 22.565000 52.165000
v 9.625000 22.565000 58.240000
v 9.625000 25.130000 52.165000
v 9.625000 25.130000 58.240000
v 9.625000 27.695000 52.165000
v 9.625000 27.695000 58.240000
v 9.625000 30.260000 52.165000
v 9.625000 30.260000 58.240000
v 9.625000 32.825000 52.165000
v 9.625000 32.825000 58.240000
v 9.625000 35.390000 52.165000
v 9.625000 35.390000 58.240000
v 9.625000 37.955000 52.570000
v 9.625000 37.955000 52.165000
v 9.625000 37.955000 52.975000
v 9.625000 37.955000 53.380000
v 9.625000 37.955000 53.785000
v 9.625000 37.955000 54.190000
v 9.625000 37.955000 54.595000
v 9.625000 37.955000 55.000000
v 9.625000 37.955000 55.405000
v 9.625000 37.955000 55.810000
v 9.625000 37.955000 56.215000
v 9.625000 37.955000 56.620000
v 9.625000 37.955000 57.025000
v 9.625000 37.955000 57.430000
v 9.625000 37.955000 57.835000
v 9.625000 37.955000 58.240000
v 9.768750 2.045000 52.165000
v 9.768750 2.045000 52.570000
v 9.768750 4.610000 52.165000
v 9.768750 2.045000 52.975000
v 9.768750 2.045000 53.380000
v 9.768750 2.045000 53.785000
v 9.768750 2.045000 54.190000
v 9.768750 2.045000 54.595000
v 9.768750 2.045000 55.000000
v 9.768750 2.045000 55.405000
v 9.768750 2.045000 55.810000
v 9.768750 2.045000 56.215000
v 9.768750 2.045000 56.620000
v 9.768750 2.045000 57.025000
v 9.768750 2.045000 57.430000
v 9.768750 2.045000 57.835000
v 9.768750 2.045000 58.240000
v 9.768750 4.610000 58.240000
v 9.768750 7.175000 52.165000
v 9.768750 7.175000 58.240000
v 9.768750 9.740000 52.165000
v 9.768750 9.740000 58.240000
v 9.768750 12.305000 52.165000
v 9.768750 12.305000 58.240000
v 9.768750 14.870000 52.165000
v 9.768750 14.870000 58.240000
v 9.768750 17.435000 52.165000
v 9.768750 17.435000 58.240000
v 9.768750 20.000000 52.165000
v 9.768750 20.000000 58.240000
v 9.768750 22.565000 52.165000
v 9.768750 22.565000 58.240000
v 9.768750 25.130000 52.165000
v 9.768750 25.130000 58.240000
v 9.768750 27.695000 52.165000
v 9.768750 27.695000 58.240000
v 9.768750 30.260000 52.165000
v 9.768750 30.260000 58.240000
v 9.768750 32.825000 52.165000
v 9.768750 32.825000 58.240000
v 9.768750 35.390000 52.165000
v 9.768750 35.390000 58.240000
v 9.768750 37.955000 52.570000
v 9.768750 37.955000 52.165000
v 9.768750 37.955000 52.975000
v 9.768750 37.955000 53.380000
v 9.768750 37.955000 53.785000
v 9.768750 37.955000 54.190000
v 9.768750 37.955000 54.595000
v 9.768750 37.955000 55.000000
v 9.768750 37.955000 55.405000
v 9.768750 37.955000 55.810000
v 9.768750 37.955000 56.215000
v 9.768750 37.955000 56.620000
v 9.768750 37.955000 57.025000
v 9.768750 37.955000 57.430000
v 9.768750 37.955000 57.835000
v 9.768750 37.955000 58.240000
v 9.912500 2.045000 52.165000
v 9.912500 2.045000 52.570000
v 9.912500 4.610000 52.165000
v 9.912500 2.045000 52.975000
v 9.912500 2.045000 53.380000
v 9.912500 2.045000 53.785000
v 9.912500 2.045000 54.190000
v 9.912500 2.045000 54.595000
v 9.912500 2.045000 55.000000
v 9.912500 2.045000 55.405000
v 9.912500 2.045000 55.810000
v 9.912500 2.045000 56.215000
v 9.912500 2.045000 56.620000
v 9.912500 2.045000 57.025000
v 9.912500 2.045000 57.430000
v 9.912500 2.045000 57.835000
v 9.912500 2.045000 58.240000
v 9.912500 4.610000 58.240000
v 9.912500 7.175000 52.165000
v 9.912500 7.175000 58.240000
v 9.912500 9.740000 52.165000
v 9.912500 9.740000 58.240000
v 9.912500 12.305000 52.165000
v 9.912500 12.305000 58.240000
v 9.912500 14.870000 52.165000
v 9.912500 14.870000 58.240000
v 9.912500 17.435000 52.165000
v 9.912500 17.435000 58.240000
v 9.912500 20.000000 52.165000
v 9.912500 20.000000 58.240000
v 9.912500 22.565000 52.165000
v 9.912500 22.565000 58.240000
v 9.912500 25.130000 52.165000
v 9.912500 25.130000 58.240000
v 9.912500 27.695000 52.165000
v 9.912500 27.695000 58.240000
v 9.912500 30.260000 52.165000
v 9.912500 30.260000 58.240000
v 9.912500 32.825000 52.165000
v 9.912500 32.825000 58.240000
v 9.912500 35.390000 52.165000
v 9.912500 35.390000 58.240000
v 9.912500 37.955000 52.570000
v 9.912500 37.955000 52.165000
v 9.912500 37.955000 52.975000
v 9.912500 37.955000 53.380000
v 9.912500 37.955000 53.785000
v 9.912500 37.955000 54.190000
v 9.912500 37.955000 54.595000
v 9.912500 37.955000 55.000000
v 9.912500 37.955000 55.405000
v 9.912500 37.955000 55.810000
v 9.912500 37.955000 56.215000
v 9.912500 37.955000 56.620000
v 9.912500 37.955000 57.025000
v 9.912500 37.955000 57.430000
v 9.912500 37.955000 57.835000
v 9.912500 37.955000 58.240000
v 10.056250 2.045000 52.165000
v 10.056250 2.045000 52.570000
v 10.056250 4.610000 52.165000
v 10.056250 2.045000 52.975000
v 10.056250 2.045000 53.380000
v 10.056250 2.045000 53.785000
v 10.056250 2.045000 54.190000
v 10.056250 2.045000 54.595000
v 10.056250 2.045000 55.000000
v 10.056250 2.045000 55.405000
v 10.056250 2.045000 55.810000
v 10.056250 2.045000 56.215000
v 10.056250 2.045000 56.620000
v 10.056250 2.045000 57.025000
v 10.056250 2.045000 57.430000
v 10.056250 2.045000 57.835000
v 10.056250 2.045000 58.240000
v 10.056250 4.610000 58.240000
v 10.056250 7.175000 52.165000
v 10.056250 7.175000 58.240000
v 10.056250 9.740000 52.165000
v 10.056250 9.740000 58.240000
v 10.056250 12.305000 52.165000
v 10.056250 12.305000 58.240000
v 10.056250 14.870000 52.165000
v 10.056250 14.870000 58.240000
v 10.056250 17.435000 52.165000
v 10.056250 17.435000 58.240000
v 10.056250 20.000000 52.165000
v 10.056250 20.000000 58.240000
v 10.056250 22.565000 52.165000
v 10.056250 22.565000 58.240000
v 10.056250 25.130000 52.165000
v 10.056250 25.130000 58.240000
v 10.056250 27.695000 52.165000
v 10.056250 27.695000 58.240000
v 10.056250 30.260000 52.165000
v 10.056250 30.260000 58.240000
v 10.056250 32.825000 52.165000
v 10.056250 32.825000 58.240000
v 10.056250 35.390000 52.165000
v 10.056250 35.390000 58.240000
v 10.056250 37.955000 52.570000
v 10.056250 37.955000 52.165000
v 10.056250 37.955000 52.975000
v 10.056250 37.955000 53.380000
v 10.056250 37.955000 53.785000
v 10.056250 37.955000 54.190000
v 10.056250 37.955000 54.595000
v 10.056250 37.955000 55.000000
v 10.056250 37.955000 55.405000
v 10.056250 37.955000 55.810000
v 10.056250 37.955000 56.215000
v 10.056250 37.955000 56.620000
v 10.056250 37.955000 57.025000
v 10.056250 37.955000 57.430000
v 10.056250 37.955000 57.835000
v 10.056250 37.955000 58.240000
v 10.200000 2.045000 52.165000
v 10.200000 2.045000 52.570000
v 10.200000 4.610000 52.165000
v 10.200000 2.045000 52.975000
v 10.200000 2.045000 53.380000
v 10.200000 2.045000 53.785000
v 10.200000 2.045000 54.190000
v 10.200000 2.045000 54.595000
v 10.200000 2.045000 55.000000
v 10.200000 2.045000 55.405000
v 10.200000 2.045000 55.810000
v 10.200000 2.045000 56.215000
v 10.200000 2.045000 56.620000
v 10.200000 2.045000 57.025000
v 10.200000 2.045000 57.430000
v 10.200000 2.045000 57.835000
v 10.200000 2.045000 58.240000
v 10.200000 4.610000 58.240000
v 10.200000 7.175000 52.165000
v 10.200000 7.175000 58.240000
v 10.200000 9.740000 52.165000
v 10.200000 9.740000 58.240000
v 10.200000 12.305000 52.165000
v 10.200000 12.305000 58.240000
v 10.200000 14.870000 52.165000
v 10.200000 14.870000 58.240000
v 10.200000 17.435000 52.165000
v 10.200000 17.435000 58.240000
v 10.200000 20.000000 52.165000
v 10.200000 20.000000 58.240000
v 10.200000 22.565000 52.165000
v 10.200000 22.565000 58.240000
v 10.200000 25.130000 52.165000
v 10.200000 25.130000 58.240000
v 10.200000 27.695000 52.165000
v 10.200000 27.695000 58.240000
v 10.200000 30.260000 52.165000
v 10.200000 30.260000 58.240000
v 10.200000 32.825000 52.165000
v 10.200000 32.825000 58.240000
v 10.200000 35.390000 52.165000
v 10.200000 35.390000 58.240000
v 10.200000 37.955000 52.570000
v 10.200000 37.955000 52.165000
v 10.200000 37.955000 52.975000
v 10.200000 37.955000 53.380000
v 10.200000 37.955000 53.785000
v 10.200000 37.955000 54.190000
v 10.200000 37.955000 54.595000
v 10.200000 37.955000 55.000000
v 10.200000 37.955000 55.405000
v 10.200000 37.955000 55.810000
v 10.200000 37.955000 56.215000
v 10.200000 37.955000 56.620000
v 10.200000 37.955000 57.025000
v 10.200000 37.955000 57.430000
v 10.200000 37.955000 57.835000
v 10.200000 37.955000 58.240000
v 10.343750 2.045000 52.165000
v 10.343750 2.045000 52.570000
v 10.343750 4.610000 52.165000
v 10.343750 2.045000 52.975000
v 10.343750 2.045000 53.380000
v 10.343750 2.045000 53.785000
v 10.343750 2.045000 54.190000
v 10.343750 2.045000 54.595000
v 10.343750 2.045000 55.000000
v 10.343750 2.045000 55.405000
v 10.343750 2.045000 55.810000
v 10.343750 2.045000 56.215000
v 10.343750 2.045000 56.620000
v 10.343750 2.045000 57.025000
v 10.343750 2.045000 57.430000
v 10.343750 2.045000 57.835000
v 10.343750 2.045000 58.240000
v 10.343750 4.610000 58.240000
v 10.343750 7.175000 52.165000
v 10.343750 7.175000 58.240000
v 10.343750 9.740000 52.165000
v 10.343750 9.740000 58.240000
v 10.343750 12.305000 52.165000
v 10.343750 12.305000 58.240000
v 10.343750 14.870000 52.165000
v 10.343750 14.870000 58.240000
v 10.343750 17.435000 52.165000
v 10.343750 17.435000 58.240000
v 10.343750 20.000000 52.165000
v 10.343750 20.000000 58.240000
v 10.343750 22.565000 52.165000
v 10.343750 22.565000 58.240000
v 10.343750 25.130000 52.165000
v 10.343750 25.130000 58.240000
v 10.343750 27.695000 52.165000
v 10.343750 27.695000 58.240000
v 10.343750 30.260000 52.165000
v 10.343750 30.260000 58.240000
v 10.343750 32.825000 52.165000
v 10.343750 32.825000 58.240000
v 10.343750 35.390000 52.165000
v 10.343750 35.390000 58.240000
v 10.343750 37.955000 52.570000
v 10.343750 37.955000 52.165000
v 10.343750 37.955000 52.975000
v 10.343750 37.955000 53.380000
v 10.343750 37.955000 53.785000
v 10.343750 37.955000 54.190000
v 10.343750 37.955000 54.595000
v 10.343750 37.955000 55.000000
v 10.343750 37.955000 55.405000
v 10.343750 37.955000 55.810000
v 10.343750 37.955000 56.215000
v 10.343750 37.955000 56.620000
v 10.343750 37.955000 57.025000
v 10.343750 37.955000 57.430000
v 10.343750 37.955000 57.835000
v 10.343750 37.955000 58.240000
v 10.487500 2.045000 52.165000
v 10.487500 2.045000 52.570000
v 10.487500 4.610000 52.165000
v 10.487500 2.045000 52.975000
v 10.487500 2.045000 53.380000
v 10.487500 2.045000 53.785000
v 10.487500 2.045000 54.190000
v 10.487500 2.045000 54.595000
v 10.487500 2.045000 55.000000
v 10.487500 2.045000 55.405000
v 10.487500 2.045000 55.810000
v 10.487500 2.045000 56.215000
v 10.487500 2.045000 56.620000
v 10.487500 2.045000 57.025000
v 10.487500 2.045000 57.430000
v 10.487500 2.045000 57.835000
v 10.487500 2.045000 58.240000
v 10.487500 4.610000 58.240000
v 10.487500 7.175000 52.165000
v 10.487500 7.175000 58.240000
v 10.487500 9.740000 52.165000
v 10.487500 9.740000 58.240000
v 10.487500 12.305000 52.165000
v 10.487500 12.305000 58.240000
v 10.487500 14.870000 52.165000
v 10.487500 14.870000 58.240000
v 10.487500 17.435000 52.165000
v 10.487500 17.435000 58.240000
v 10.487500 20.000000 52.165000
v 10.487500 20.000000 58.240000
v 10.487500 22.565000 52.165000
v 10.487500 22.565000 58.240000
v 10.487500 25.130000 52.165000
v 10.487500 25.130000 58.240000
v 10.487500 27.695000 52.165000
v 10.487500 27.695000 58.240000
v 10.487500 30.260000 52.165000
v 10.487500 30.260000 58.240000
v 10.487500 32.825000 52.165000
v 10.487500 32.825000 58.240000
v 10.487500 35.390000 52.165000
v 10.487500 35.390000 58.240000
v 10.487500 37.955000 52.570000
v 10.487500 37.955000 52.165000
v 10.487500 37.955000 52.975000
v 10.487500 37.955000 53.380000
v 10.487500 37.955000 53.785000
v 10.487500 37.955000 54.190000
v 10.487500 37.955000 54.595000
v 10.487500 37.955000 55.000000
v 10.487500 37.955000 55.405000
v 10.487500 37.955000 55.810000
v 10.487500 37.955000 56.215000
v 10.487500 37.955000 56.620000
v 10.487500 37.955000 57.025000
v 10.487500 37.955000 57.430000
v 10.487500 37.955000 57.835000
v 10.487500 37.955000 58.240000
v 10.631250 2.045000 52.165000
v 10.631250 2.045000 52.570000
v 10.631250 4.610000 52.165000
v 10.631250 2.045000 52.975000
v 10.631250 2.045000 53.380000
v 10.631250 2.045000 53.785000
v 10.631250 2.045000 54.190000
v 10.631250 2.045000 54.595000
v 10.631250 2.045000 55.000000
v 10.631250 2.045000 55.405000
v 10.631250 2.045000 55.810000
v 10.631250 2.045000 56.215000
v 10.631250 2.045000 56.620000
v 10.631250 2.045000 57.025000
v 10.631250 2.045000 57.430000
v 10.631250 2.045000 57.835000
v 10.631250 2.045000 58.240000
v 10.631250 4.610000 58.240000
v 10.631250 7.175000 52.165000
v 10.631250 7.175000 58.240000
v 10.631250 9.740000 52.165000
v 10.631250 9.740000 58.240000
v 10.631250 12.305000 52.165000
v 10.631250 12.305000 58.240000
v 10.631250 14.870000 52.165000
v 10.631250 14.870000 58.240000
v 10.631250 17.435000 52.165000
v 10.631250 17.435000 58.240000
v 10.631250 20.000000 52.165000
v 10.631250 20.000000 58.240000
v 10.631250 22.565000 52.165000
v 10.631250 22.565000 58.240000
v 10.631250 25.130000 52.165000
v 10.631250 25.130000 58.240000
v 10.631250 27.695000 52.165000
v 10.631250 27.695000 58.240000
v 10.631250 30.260000 52.165000
v 10.631250 30.260000 58.240000
v 10.631250 32.825000 52.165000
v 10.631250 32.825000 58.240000
v 10.631250 35.390000 52.165000
v 10.631250 35.390000 58.240000
v 10.631250 37.955000 52.570000
v 10.631250 37.955000 52.165000
v 10.631250 37.955000 52.975000
v 10.631250 37.955000 53.380000
v 10.631250 37.955000 53.785000
v 10.631250 37.955000 54.190000
v 10.631250 37.955000 54.595000
v 10.631250 37.955000 55.000000
v 10.631250 37.955000 55.405000
v 10.631250 37.955000 55.810000
v 10.631250 37.955000 56.215000
v 10.631250 37.955000 56.620000
v 10.631250 37.955000 57.025000
v 10.631250 37.955000 57.430000
v 10.631250 37.955000 57.835000
v 10.631250 37.955000 58.240000
v 10.775000 2.045000 52.165000
v 10.775000 2.045000 52.570000
v 10.775000 4.610000 52.165000
v 10.775000 2.045000 52.975000
v 10.775000 2.045000 53.380000
v 10.775000 2.045000 53.785000
v 10.775000 2.045000 54.190000
v 10.775000 2.045000 54.595000
v 10.775000 2.045000 55.000000
v 10.775000 2.045000 55.405000
v 10.775000 2.045000 55.810000
v 10.775000 2.045000 56.215000
v 10.775000 2.045000 56.620000
v 10.775000 2.045000 57.025000
v 10.775000 2.045000 57.430000
v 10.775000 2.045000 57.835000
v 10.775000 2.045000 58.240000
v 10.775000 4.610000 58.240000
v 10.775000 7.175000 52.165000
v 10.775000 7.175000 58.240000
v 10.775000 9.740000 52.165000
v 10.775000 9.740000 58.240000
v 10.775000 12.305000 52.165000
v 10.775000 12.305000 58.240000
v 10.775000 14.870000 52.165000
v 10.775000 14.870000 58.240000
v 10.775000 17.435000 52.165000
v 10.775000 17.435000 58.240000
v 10.775000 20.000000 52.165000
v 10.775000 20.000000 58.240000
v 10.775000 22.565000 52.165000
v 10.775000 22.565000 58.240000
v 10.775000 25.130000 52.165000
v 10.775000 25.130000 58.240000
v 10.775000 27.695000 52.165000
v 10.775000 27.695000 58.240000
v 10.775000 30.260000 52.165000
v 10.775000 30.260000 58.240000
v 10.775000 32.825000 52.165000
v 10.775000 32.825000 58.240000
v 10.775000 35.390000 52.165000
v 10.775000 35.390000 58.240000
v 10.775000 37.955000 52.570000
v 10.775000 37.955000 52.165000
v 10.775000 37.955000 52.975000
v 10.775000 37.955000 53.380000
v 10.775000 37.955000 53.785000
v 10.775000 37.955000 54.190000
v 10.775000 37.955000 54.595000
v 10.775000 37.955000 55.000000
v 10.775000 37.955000 55.405000
v 10.775000 37.955000 55.810000
v 10.775000 37.955000 56.215000
v 10.775000 37.955000 56.620000
v 10.775000 37.955000 57.025000
v 10.775000 37.955000 57.430000
v 10.775000 37.955000 57.835000
v 10.775000 37.955000 58.240000
v 10.918750 2.045000 52.165000
v 10.918750 2.045000 52.570000
v 10.918750 4.610000 52.165000
v 10.918750 2.045000 52.975000
v 10.918750 2.045000 53.380000
v 10.918750 2.045000 53.785000
v 10.918750 2.045000 54.190000
v 10.918750 2.045000 54.595000
v 10.918750 2.045000 55.000000
v 10.918750 2.045000 55.405000
v 10.918750 2.045000 55.810000
v 10.918750 2.045000 56.215000
v 10.918750 2.045000 56.620000
v 10.918750 2.045000 57.025000
v 10.918750 2.045000 57.430000
v 10.918750 2.045000 57.835000
v 10.918750 2.045000 58.240000
v 10.918750 4.610000 58.240000
v 10.918750 7.175000 52.165000
v 10.918750 7.175000 58.240000
v 10.918750 9.740000 52.165000
v 10.918750 9.740000 58.240000
v 10.918750 12.305000 52.165000
v 10.918750 12.305000 58.240000
v 10.918750 14.870000 52.165000
v 10.918750 14.870000 58.240000
v 10.918750 17.435000 52.165000
v 10.918750 17.435000 58.240000
v 10.918750 20.000000 52.165000
v 10.918750 20.000000 58.240000
v 10.918750 22.565000 52.165000
v 10.918750 22.565000 58.240000
v 10.918750 25.130000 52.165000
v 10.918750 25.130000 58.240000
v 10.918750 27.695000 52.165000
v 10.918750 27.695000 58.240000
v 10.918750 30.260000 52.165000
v 10.918750 30.260000 58.240000
v 10.918750 32.825000 52.165000
v 10.918750 32.825000 58.240000
v 10.918750 35.390000 52.165000
v 10.918750 35.390000 58.240000
v 10.918750 37.955000 52.570000
v 10.918750 37.955000 52.165000
v 10.918750 37.955000 52.975000
v 10.918750 37.955000 53.380000
v 10.918750 37.955000 53.785000
v 10.918750 37.955000 54.190000
v 10.918750 37.955000 54.595000
v 10.918750 37.955000 55.000000
v 10.918750 37.955000 55.405000
v 10.918750 37.955000 55.810000
v 10.918750 37.955000 56.215000
v 10.918750 37.955000 56.620000
v 10.918750 37.955000 57.025000
v 10.918750 37.955000 57.430000
v 10.918750 37.955000 57.835000
v 10.918750 37.955000 58.240000
v 11.062500 2.045000 52.165000
v 11.062500 2.045000 52.570000
v 11.062500 4.610000 52.165000
v 11.062500 2.045000 52.975000
v 11.062500 2.045000 53.380000
v 11.062500 2.045000 53.785000
v 11.062500 2.045000 54.190000
v 11.062500 4.610000 54.190000
v 11.062500 4.610000 53.785000
v 11.062500 2.045000 54.595000
v 11.062500 4.610000 54.595000
v 11.062500 2.045000 55.000000
v 11.062500 4.610000 55.000000
v 11.062500 2.045000 55.405000
v 11.062500 4.610000 55.405000
v 11.062500 2.045000 55.810000
v 11.062500 4.610000 55.810000
v 11.062500 2.045000 56.215000
v 11.062500 4.610000 56.215000
v 11.062500 2.045000 56.620000
v 11.062500 4.610000 56.620000
v 11.062500 2.045000 57.025000
v 11.062500 4.610000 57.025000
v 11.062500 2.045000 57.430000
v 11.062500 4.610000 57.430000
v 11.062500 2.045000 57.835000
v 11.062500 4.610000 57.835000
v 11.062500 2.045000 58.240000
v 11.062500 4.610000 58.240000
v 11.062500 7.175000 52.165000
v 11.062500 7.175000 54.190000
v 11.062500 7.175000 53.785000
v 11.062500 7.175000 54.595000
v 11.062500 7.175000 55.000000
v 11.062500 7.175000 55.405000
v 11.062500 7.175000 55.810000
v 11.062500 7.175000 56.215000
v 11.062500 7.175000 56.620000
v 11.062500 7.175000 57.025000
v 11.062500 7.175000 57.430000
v 11.062500 7.175000 57.835000
v 11.062500 7.175000 58.240000
v 11.062500 9.740000 52.165000
v 11.062500 9.740000 54.190000
v 11.062500 9.740000 53.785000
v 11.062500 9.740000 54.595000
v 11.062500 9.740000 55.000000
v 11.062500 9.740000 55.405000
v 11.062500 9.740000 55.810000
v 11.062500 9.740000 56.215000
v 11.062500 9.740000 56.620000
v 11.062500 9.740000 57.025000
v 11.062500 9.740000 57.430000
v 11.062500 9.740000 57.835000
v 11.062500 9.740000 58.240000
v 11.062500 12.305000 52.165000
v 11.062500 12.305000 54.190000
v 11.062500 12.305000 53.785000
v 11.062500 12.305000 54.595000
v 11.062500 12.305000 55.000000
v 11.062500 12.305000 55.405000
v 11.062500 12.305000 55.810000
v 11.062500 12.305000 56.215000
v 11.062500 12.305000 56.620000
v 11.062500 12.305000 57.025000
v 11.062500 12.305000 57.430000
v 11.062500 12.305000 57.835000
v 11.062500 12.305000 58.240000
v 11.062500 14.870000 52.165000
v 11.062500 14.870000 54.190000
v 11.062500 14.870000 53.785000
v 11.062500 14.870000 54.595000
v 11.062500 14.870000 55.000000
v 11.062500 14.870000 55.405000
v 11.062500 14.870000 55.810000
v 11.062500 14.870000 56.215000
v 11.062500 14.870000 56.620000
v 11.062500 14.870000 57.025000
v 11.062500 14.870000 57.430000
v 11.062500 14.870000 57.835000
v 11.062500 14.870000 58.240000
v 11.062500 17.435000 52.165000
v 11.062500 17.435000 54.190000
v 11.062500 17.435000 53.785000
v 11.062500 17.435000 54.595000
v 11.062500 17.435000 55.000000
v 11.062500 17.435000 55.405000
v 11.062500 17.435000 55.810000
v 11.062500 17.435000 56.215000
v 11.062500 17.435000 56.620000
v 11.062500 17.435000 57.025000
v 11.062500 17.435000 57.430000
v 11.062500 17.435000 57.835000
v 11.062500 17.435000 58.240000
v 11.062500 20.000000 52.165000
v 11.062500 20.000000 54.190000
v 11.062500 20.000000 53.785000
v 11.062500 20.000000 54.595000
v 11.062500 20.000000 55.000000
v 11.062500 20.000000 55.405000
v 11.062500 20.000000 55.810000
v 11.062500 20.000000 56.215000
v 11.062500 20.000000 56.620000
v 11.062500 20.000000 57.025000
v 11.062500 20.000000 57.430000
v 11.062500 20.000000 57.835000
v 11.062500 20.000000 58.240000
v 11.062500 22.565000 52.165000
v 11.062500 22.565000 54.190000
v 11.062500 22.565000 53.785000
v 11.062500 22.565000 54.595000
v 11.062500 22.565000 55.000000
v 11.062500 22.565000 55.405000
v 11.062500 22.565000 55.810000
v 11.062500 22.565000 56.215000
v 11.062500 22.565000 56.620000
v 11.062500 22.565000 57.025000
v 11.062500 22.565000 57.430000
v 11.062500 22.565000 57.835000
v 11.062500 22.565000 58.240000
v 11.062500 25.130000 52.165000
v 11.062500 25.130000 54.190000
v 11.062500 25.130000 53.785000
v 11.062500 25.130000 54.595000
v 11.062500 25.130000 55.000000
v 11.062500 25.130000 55.405000
v 11.062500 25.130000 55.810000
v 11.062500 25.130000 56.215000
v 11.062500 25.130000 56.620000
v 11.062500 25.130000 57.025000
v 11.062500 25.130000 57.430000
v 11.062500 25.130000 57.835000
v 11.062500 25.130000 58.240000
v 11.062500 27.695000 52.165000
v 11.062500 27.695000 54.190000
v 11.062500 27.695000 53.785000
v 11.062500 27.695000 54.595000
v 11.062500 27.695000 55.000000
v 11.062500 27.695000 55.405000
v 11.062500 27.695000 55.810000
v 11.062500 27.695000 56.215000
v 11.062500 27.695000 56.620000
v 11.062500 27.695000 57.025000
v 11.062500 27.695000 57.430000
v 11.062500 27.695000 57.835000
v 11.062500 27.695000 58.240000
v 11.062500 30.260000 52.165000
v 11.062500 30.260000 54.190000
v 11.062500 30.260000 53.785000
v 11.062500 30.260000 54.595000
v 11.062500 30.260000 55.000000
v 11.062500 30.260000 55.405000
v 11.062500 30.260000 55.810000
v 11.062500 30.260000 56.215000
v 11.062500 30.260000 56.620000
v 11.062500 30.260000 57.025000
v 11.062500 30.260000 57.430000
v 11.062500 30.260000 57.835000
v 11.062500 30.260000 58.240000
v 11.062500 32.825000 52.165000
v 11.062500 32.825000 54.190000
v 11.062500 32.825000 53.785000
v 11.062500 32.825000 54.595000
v 11.062500 32.825000 55.000000
v 11.062500 32.825000 55.405000
v 11.062500 32.825000 55.810000
v 11.062500 32.825000 56.215000
v 11.062500 32.825000 56.620000
v 11.062500 32.825000 57.025000
v 11.062500 32.825000 57.430000
v 11.062500 32.825000 57.835000
v 11.062500 32.825000 58.240000
v 11.062500 35.390000 52.165000
v 11.062500 35.390000 54.190000
v 11.062500 35.390000 53.785000
v 11.062500 35.390000 54.595000
v 11.062500 35.390000 55.000000
v 11.062500 35.390000 55.405000
v 11.062500 35.390000 55.810000
v 11.062500 35.390000 56.215000
v 11.062500 35.390000 56.620000
v 11.062500 35.390000 57.025000
v 11.062500 35.390000 57.430000
v 11.062500 35.390000 57.835000
v 11.062500 35.390000 58.240000
v 11.062500 37.955000 52.570000
v 11.062500 37.955000 52.165000
v 11.062500 37.955000 52.975000
v 11.062500 37.955000 53.380000
v 11.062500 37.955000 53.785000
v 11.062500 37.955000 54.190000
v 11.062500 37.955000 54.595000
v 11.062500 37.955000 55.000000
v 11.062500 37.955000 55.405000
v 11.062500 37.955000 55.810000
v 11.062500 37.955000 56.215000
v 11.062500 37.955000 56.620000
v 11.062500 37.955000 57.025000
v 11.062500 37.955000 57.430000
v 11.062500 37.955000 57.835000
v 11.062500 37.955000 58.240000
v 11.206250 2.045000 52.165000
v 11.206250 2.045000 52.570000
v 11.206250 4.610000 52.570000
v 11.206250 4.610000 52.165000
v 11.206250 2.045000 52.975000
v 11.206250 4.610000 52.975000
v 11.206250 2.045000 53.380000
v 11.206250 4.610000 53.380000
v 11.206250 2.045000 53.785000
v 11.206250 4.610000 53.785000
v 11.206250 7.175000 52.570000
v 11.206250 7.175000 52.165000
v 11.206250 7.175000 52.975000
v 11.206250 7.175000 53.380000
v 11.206250 7.175000 53.785000
v 11.206250 9.740000 52.570000
v 11.206250 9.740000 52.165000
v 11.206250 9.740000 52.975000
v 11.206250 9.740000 53.380000
v 11.206250 9.740000 53.785000
v 11.206250 12.305000 52.570000
v 11.206250 12.305000 52.165000
v 11.206250 12.305000 52.975000
v 11.206250 12.305000 53.380000
v 11.206250 12.305000 53.785000
v 11.206250 14.870000 52.570000
v 11.206250 14.870000 52.165000
v 11.206250 14.870000 52.975000
v 11.206250 14.870000 53.380000
v 11.206250 14.870000 53.785000
v 11.206250 17.435000 52.570000
v 11.206250 17.435000 52.165000
v 11.206250 17.435000 52.975000
v 11.206250 17.435000 53.380000
v 11.206250 17.435000 53.785000
v 11.206250 20.000000 52.570000
v 11.206250 20.000000 52.165000
v 11.206250 20.000000 52.975000
v 11.206250 20.000000 53.380000
v 11.206250 20.000000 53.785000
v 11.206250 22.565000 52.570000
v 11.206250 22.565000 52.165000
v 11.206250 22.565000 52.975000
v 11.206250 22.565000 53.380000
v 11.206250 22.565000 53.785000
v 11.206250 25.130000 52.570000
v 11.206250 25.130000 52.165000
v 11.206250 25.130000 52.975000
v 11.206250 25.130000 53.380000
v 11.206250 25.130000 53.785000
v 11.206250 27.695000 52.570000
v 11.206250 27.695000 52.165000
v 11.206250 27.695000 52.975000
v 11.206250 27.695000 53.380000
v 11.206250 27.695000 53.785000
v 11.206250 30.260000 52.570000
v 11.206250 30.260000 52.165000
v 11.206250 30.260000 52.975000
v 11.206250 30.260000 53.380000
v 11.206250 30.260000 53.785000
v 11.206250 32.825000 52.570000
v 11.206250 32.825000 52.165000
v 11.206250 32.825000 52.975000
v 11.206250 32.825000 53.380000
v 11.206250 32.825000 53.785000
v 11.206250 35.390000 52.570000
v 11.206250 35.390000 52.165000
v 11.206250 35.390000 52.975000
v 11.206250 35.390000 53.380000
v 11.206250 35.390000 53.785000
v 11.206250 37.955000 52.570000
v 11.206250 37.955000 52.165000
v 11.206250 37.955000 52.975000
v 11.206250 37.955000 53.380000
v 11.206250 37.955000 53.785000
f 1 2 3
f 1 3 4
f 1 5 6
f 1 6 4
f 1 2 7
f 1 7 5
f 4 3 8
f 4 8 9
f 4 6 10
f 4 10 9
f 9 8 11
f 9 11 12
f 9 10 13
f 9 13 12
f 12 11 14
f 12 14 15
f 12 13 16
f 12 16 15
f 15 14 17
f 15 17 18
f 15 16 19
f 15 19 18
f 18 17 20
f 18 20 21
f 18 19 22
f 18 22 21
f 21 20 23
f 21 23 24
f 21 22 25
f 21 25 24
f 24 23 26
f 24 26 27
f 24 25 28
f 24 28 27
f 27 26 29
f 27 29 30
f 27 28 31
f 27 31 30
f 30 29 32
f 30 32 33
f 30 31 34
f 30 34 33
f 33 32 35
f 33 35 36
f 33 34 37
f 33 37 36
f 36 35 38
f 36 38 39
f 36 37 40
f 36 40 39
f 39 38 41
f 39 41 42
f 39 40 43
f 39 43 42
f 42 41 44
f 42 44 45
f 42 43 46
f 42 46 45
f 45 44 47
f 45 47 48
f 45 46 49
f 45 49 48
f 48 49 50
f 48 50 47
f 2 51 52
f 2 52 3
f 2 51 53
f 2 53 7
f 3 52 54
f 3 54 8
f 8 54 55
f 8 55 11
f 11 55 56
f 11 56 14
f 14 56 57
f 14 57 17
f 17 57 58
f 17 58 20
f 20 58 59
f 20 59 23
f 23 59 60
f 23 60 26
f 26 60 61
f 26 61 29
f 29 61 62
f 29 62 32
f 32 62 63
f 32 63 35
f 35 63 64
f 35 64 38
f 38 64 65
f 38 65 41
f 41 65 66
f 41 66 44
f 44 66 67
f 44 67 47
f 47 50 68
f 47 68 67
f 51 69 70
f 51 70 52
f 51 69 71
f 51 71 53
f 52 70 72
f 52 72 54
f 54 72 73
f 54 73 55
f 55 73 74
f 55 74 56
f 56 74 75
f 56 75 57
f 57 75 76
f 57 76 58
f 58 76 77
f 58 77 59
f 59 77 78
f 59 78 60
f 60 78 79
f 60 79 61
f 61 79 80
f 61 80 62
f 62 80 81
f 62 81 63
f 63 81 82
f 63 82 64
f 64 82 83
f 64 83 65
f 65 83 84
f 65 84 66
f 66 84 85
f 66 85 67
f 67 68 86
f 67 86 85
f 69 87 88
f 69 88 70
f 69 87 89
f 69 89 71
f 70 88 90
f 70 90 72
f 72 90 91
f 72 91 73
f 73 91 92
f 73 92 74
f 74 92 93
f 74 93 75
f 75 93 94
f 75 94 76
f 76 94 95
f 76 95 77
f 77 95 96
f 77 96 78
f 78 96 97
f 78 97 79
f 79 97 98
f 79 98 80
f 80 98 99
f 80 99 81
f 81 99 100
f 81 100 82
f 82 100 101
f 82 101 83
f 83 101 102
f 83 102 84
f 84 102 103
f 84 103 85
f 85 86 104
f 85 104 103
f 87 105 106
f 87 106 88
f 87 105 107
f 87 107 89
f 88 106 108
f 88 108 90
f 90 108 109
f 90 109 91
f 91 109 110
f 91 110 92
f 92 110 111
f 92 111 93
f 93 111 112
f 93 112 94
f 94 112 113
f 94 113 95
f 95 113 114
f 95 114 96
f 96 114 115
f 96 115 97
f 97 115 116
f 97 116 98
f 98 116 117
f 98 117 99
f 99 117 118
f 99 118 100
f 100 118 119
f 100 119 101
f 101 119 120
f 101 120 102
f 102 120 121
f 102 121 103
f 103 104 122
f 103 122 121
f 105 123 124
f 105 124 106
f 105 123 125
f 105 125 107
f 106 124 126
f 106 126 108
f 108 126 127
f 108 127 109
f 109 127 128
f 109 128 110
f 110 128 129
f 110 129 111
f 111 129 130
f 111 130 112
f 112 130 131
f 112 131 113
f 113 131 132
f 113 132 114
f 114 132 133
f 114 133 115
f 115 133 134
f 115 134 116
f 116 134 135
f 116 135 117
f 117 135 136
f 117 136 118
f 118 136 137
f 118 137 119
f 119 137 138
f 119 138 120
f 120 138 139
f 120 139 121
f 121 122 140
f 121 140 139
f 123 141 142
f 123 142 124
f 123 141 143
f 123 143 125
f 124 142 144
f 124 144 126
f 126 144 145
f 126 145 127
f 127 145 146
f 127 146 128
f 128 146 147
f 128 147 129
f 129 147 148
f 129 148 130
f 130 148 149
f 130 149 131
f 131 149 150
f 131 150 132
f 132 150 151
f 132 151 133
f 133 151 152
f 133 152 134
f 134 152 153
f 134 153 135
f 135 153 154
f 135 154 136
f 136 154 155
f 136 155 137
f 137 155 156
f 137 156 138
f 138 156 157
f 138 157 139
f 139 140 158
f 139 158 157
f 141 159 160
f 141 160 142
f 141 159 161
f 141 161 143
f 142 160 162
f 142 162 144
f 144 162 163
f 144 163 145
f 145 163 164
f 145 164 146
f 146 164 165
f 146 165 147
f 147 165 166
f 147 166 148
f 148 166 167
f 148 167 149
f 149 167 168
f 149 168 150
f 150 168 169
f 150 169 151
f 151 169 170
f 151 170 152
f 152 170 171
f 152 171 153
f 153 171 172
f 153 172 154
f 154 172 173
f 154 173 155
f 155 173 174
f 155 174 156
f 156 174 175
f 156 175 157
f 157 158 176
f 157 176 175
f 159 177 178
f 159 178 160
f 159 177 179
f 159 179 161
f 160 178 180
f 160 180 162
f 162 180 181
f 162 181 163
f 163 181 182
f 163 182 164
f 164 182 183
f 164 183 165
f 165 183 184
f 165 184 166
f 166 184 185
f 166 185 167
f 167 185 186
f 167 186 168
f 168 186 187
f 168 187 169
f 169 187 188
f 169 188 170
f 170 188 189
f 170 189 171
f 171 189 190
f 171 190 172
f 172 190 191
f 172 191 173
f 173 191 192
f 173 192 174
f 174 192 193
f 174 193 175
f 175 176 194
f 175 194 193
f 177 195 196
f 177 196 178
f 177 195 197
f 177 197 179
f 178 196 198
f 178 198 180
f 180 198 199
f 180 199 181
f 181 199 200
f 181 200 182
f 182 200 201
f 182 201 183
f 183 201 202
f 183 202 184
f 184 202 203
f 184 203 185
f 185 203 204
f 185 204 186
f 186 204 205
f 186 205 187
f 187 205 206
f 187 206 188
f 188 206 207
f 188 207 189
f 189 207 208
f 189 208 190
f 190 208 209
f 190 209 191
f 191 209 210
f 191 210 192
f 192 210 211
f 192 211 193
f 193 194 212
f 193 212 211
f 195 213 214
f 195 214 196
f 195 213 215
f 195 215 197
f 196 214 216
f 196 216 198
f 198 216 217
f 198 217 199
f 199 217 218
f 199 218 200
f 200 218 219
f 200 219 201
f 201 219 220
f 201 220 202
f 202 220 221
f 202 221 203
f 203 221 222
f 203 222 204
f 204 222 223
f 204 223 205
f 205 223 224
f 205 224 206
f 206 224 225
f 206 225 207
f 207 225 226
f 207 226 208
f 208 226 227
f 208 227 209
f 209 227 228
f 209 228 210
f 210 228 229
f 210 229 211
f 211 212 230
f 211 230 229
f 213 231 232
f 213 232 214
f 213 231 233
f 213 233 215
f 214 232 234
f 214 234 216
f 216 234 235
f 216 235 217
f 217 235 236
f 217 236 218
f 218 236 237
f 218 237 219
f 219 237 238
f 219 238 220
f 220 238 239
f 220 239 221
f 221 239 240
f 221 240 222
f 222 240 241
f 222 241 223
f 223 241 242
f 223 242 224
f 224 242 243
f 224 243 225
f 225 243 244
f 225 244 226
f 226 244 245
f 226 245 227
f 227 245 246
f 227 246 228
f 228 246 247
f 228 247 229
f 229 230 248
f 229 248 247
f 231 249 250
f 231 250 232
f 231 249 251
f 231 251 233
f 232 250 252
f 232 252 234
f 234 252 253
f 234 253 235
f 235 253 254
f 235 254 236
f 236 254 255
f 236 255 237
f 237 255 256
f 237 256 238
f 238 256 257
f 238 257 239
f 239 257 258
f 239 258 240
f 240 258 259
f 240 259 241
f 241 259 260
f 241 260 242
f 242 260 261
f 242 261 243
f 243 261 262
f 243 262 244
f 244 262 263
f 244 263 245
f 245 263 264
f 245 264 246
f 246 264 265
f 246 265 247
f 247 248 266
f 247 266 265
f 249 267 268
f 249 268 250
f 267 268 269
f 267 269 270
f 249 267 270
f 249 270 251
f 250 268 271
f 250 271 252
f 268 271 272
f 268 272 269
f 252 271 273
f 252 273 253
f 271 273 274
f 271 274 272
f 253 273 275
f 253 275 254
f 273 275 276
f 273 276 274
f 254 275 277
f 254 277 255
f 275 277 278
f 275 278 276
f 255 277 279
f 255 279 256
f 277 279 280
f 277 280 278
f 256 279 281
f 256 281 257
f 279 281 282
f 279 282 280
f 257 281 283
f 257 283 258
f 281 283 284
f 281 284 282
f 258 283 285
f 258 285 259
f 283 285 286
f 283 286 284
f 259 285 287
f 259 287 260
f 285 287 288
f 285 288 286
f 260 287 289
f 260 289 261
f 287 289 290
f 287 290 288
f 261 289 291
f 261 291 262
f 289 291 292
f 289 292 290
f 262 291 293
f 262 293 263
f 291 293 294
f 291 294 292
f 263 293 295
f 263 295 264
f 293 295 296
f 293 296 294
f 264 295 297
f 264 297 265
f 295 297 298
f 295 298 296
f 265 266 298
f 265 298 297
f 5 299 300
f 5 300 6
f 5 7 301
f 5 301 299
f 6 300 302
f 6 302 10
f 10 302 303
f 10 303 13
f 13 303 304
f 13 304 16
f 16 304 305
f 16 305 19
f 19 305 306
f 19 306 22
f 22 306 307
f 22 307 25
f 25 307 308
f 25 308 28
f 28 308 309
f 28 309 31
f 31 309 310
f 31 310 34
f 34 310 311
f 34 311 37
f 37 311 312
f 37 312 40
f 40 312 313
f 40 313 43
f 43 313 314
f 43 314 46
f 46 314 315
f 46 315 49
f 49 315 316
f 49 316 50
f 7 53 317
f 7 317 301
f 50 316 318
f 50 318 68
f 53 71 319
f 53 319 317
f 68 318 320
f 68 320 86
f 71 89 321
f 71 321 319
f 86 320 322
f 86 322 104
f 89 107 323
f 89 323 321
f 104 322 324
f 104 324 122
f 107 125 325
f 107 325 323
f 122 324 326
f 122 326 140
f 125 143 327
f 125 327 325
f 140 326 328
f 140 328 158
f 143 161 329
f 143 329 327
f 158 328 330
f 158 330 176
f 161 179 331
f 161 331 329
f 176 330 332
f 176 332 194
f 179 197 333
f 179 333 331
f 194 332 334
f 194 334 212
f 197 215 335
f 197 335 333
f 212 334 336
f 212 336 230
f 215 233 337
f 215 337 335
f 230 336 338
f 230 338 248
f 233 251 339
f 233 339 337
f 248 338 340
f 248 340 266
f 270 269 341
f 270 341 342
f 251 270 342
f 251 342 339
f 269 272 343
f 269 343 341
f 272 274 344
f 272 344 343
f 274 276 345
f 274 345 344
f 276 278 346
f 276 346 345
f 278 280 347
f 278 347 346
f 280 282 348
f 280 348 347
f 282 284 349
f 282 349 348
f 284 286 350
f 284 350 349
f 286 288 351
f 286 351 350
f 288 290 352
f 288 352 351
f 290 292 353
f 290 353 352
f 292 294 354
f 292 354 353
f 294 296 355
f 294 355 354
f 296 298 356
f 296 356 355
f 266 340 356
f 266 356 298
f 299 357 358
f 299 358 300
f 299 301 359
f 299 359 357
f 300 358 360
f 300 360 302
f 302 360 361
f 302 361 303
f 303 361 362
f 303 362 304
f 304 362 363
f 304 363 305
f 305 363 364
f 305 364 306
f 306 364 365
f 306 365 307
f 307 365 366
f 307 366 308
f 308 366 367
f 308 367 309
f 309 367 368
f 309 368 310
f 310 368 369
f 310 369 311
f 311 369 370
f 311 370 312
f 312 370 371
f 312 371 313
f 313 371 372
f 313 372 314
f 314 372 373
f 314 373 315
f 315 373 374
f 315 374 316
f 301 317 375
f 301 375 359
f 316 374 376
f 316 376 318
f 317 319 377
f 317 377 375
f 318 376 378
f 318 378 320
f 319 321 379
f 319 379 377
f 320 378 380
f 320 380 322
f 321 323 381
f 321 381 379
f 322 380 382
f 322 382 324
f 323 325 383
f 323 383 381
f 324 382 384
f 324 384 326
f 325 327 385
f 325 385 383
f 326 384 386
f 326 386 328
f 327 329 387
f 327 387 385
f 328 386 388
f 328 388 330
f 329 331 389
f 329 389 387
f 330 388 390
f 330 390 332
f 331 333 391
f 331 391 389
f 332 390 392
f 332 392 334
f 333 335 393
f 333 393 391
f 334 392 394
f 334 394 336
f 335 337 395
f 335 395 393
f 336 394 396
f 336 396 338
f 337 339 397
f 337 397 395
f 338 396 398
f 338 398 340
f 342 341 399
f 342 399 400
f 339 342 400
f 339 400 397
f 341 343 401
f 341 401 399
f 343 344 402
f 343 402 401
f 344 345 403
f 344 403 402
f 345 346 404
f 345 404 403
f 346 347 405
f 346 405 404
f 347 348 406
f 347 406 405
f 348 349 407
f 348 407 406
f 349 350 408
f 349 408 407
f 350 351 409
f 350 409 408
f 351 352 410
f 351 410 409
f 352 353 411
f 352 411 410
f 353 354 412
f 353 412 411
f 354 355 413
f 354 413 412
f 355 356 414
f 355 414 413
f 340 398 414
f 340 414 356
f 357 415 416
f 357 416 358
f 357 359 417
f 357 417 415
f 358 416 418
f 358 418 360
f 360 418 419
f 360 419 361
f 361 419 420
f 361 420 362
f 362 420 421
f 362 421 363
f 363 421 422
f 363 422 364
f 364 422 423
f 364 423 365
f 365 423 424
f 365 424 366
f 366 424 425
f 366 425 367
f 367 425 426
f 367 426 368
f 368 426 427
f 368 427 369
f 369 427 428
f 369 428 370
f 370 428 429
f 370 429 371
f 371 429 430
f 371 430 372
f 372 430 431
f 372 431 373
f 373 431 432
f 373 432 374
f 359 375 433
f 359 433 417
f 374 432 434
f 374 434 376
f 375 377 435
f 375 435 433
f 376 434 436
f 376 436 378
f 377 379 437
f 377 437 435
f 378 436 438
f 378 438 380
f 379 381 439
f 379 439 437
f 380 438 440
f 380 440 382
f 381 383 441
f 381 441 439
f 382 440 442
f 382 442 384
f 383 385 443
f 383 443 441
f 384 442 444
f 384 444 386
f 385 387 445
f 385 445 443
f 386 444 446
f 386 446 388
f 387 389 447
f 387 447 445
f 388 446 448
f 388 448 390
f 389 391 449
f 389 449 447
f 390 448 450
f 390 450 392
f 391 393 451
f 391 451 449
f 392 450 452
f 392 452 394
f 393 395 453
f 393 453 451
f 394 452 454
f 394 454 396
f 395 397 455
f 395 455 453
f 396 454 456
f 396 456 398
f 400 399 457
f 400 457 458
f 397 400 458
f 397 458 455
f 399 401 459
f 399 459 457
f 401 402 460
f 401 460 459
f 402 403 461
f 402 461 460
f 403 404 462
f 403 462 461
f 404 405 463
f 404 463 462
f 405 406 464
f 405 464 463
f 406 407 465
f 406 465 464
f 407 408 466
f 407 466 465
f 408 409 467
f 408 467 466
f 409 410 468
f 409 468 467
f 410 411 469
f 410 469 468
f 411 412 470
f 411 470 469
f 412 413 471
f 412 471 470
f 413 414 472
f 413 472 471
f 398 456 472
f 398 472 414
f 415 473 474
f 415 474 416
f 415 417 475
f 415 475 473
f 416 474 476
f 416 476 418
f 418 476 477
f 418 477 419
f 419 477 478
f 419 478 420
f 420 478 479
f 420 479 421
f 421 479 480
f 421 480 422
f 422 480 481
f 422 481 423
f 423 481 482
f 423 482 424
f 424 482 483
f 424 483 425
f 425 483 484
f 425 484 426
f 426 484 485
f 426 485 427
f 427 485 486
f 427 486 428
f 428 486 487
f 428 487 429
f 429 487 488
f 429 488 430
f 430 488 489
f 430 489 431
f 431 489 490
f 431 490 432
f 417 433 491
f 417 491 475
f 432 490 492
f 432 492 434
f 433 435 493
f 433 493 491
f 434 492 494
f 434 494 436
f 435 437 495
f 435 495 493
f 436 494 496
f 436 496 438
f 437 439 497
f 437 497 495
f 438 496 498
f 438 498 440
f 439 441 499
f 439 499 497
f 440 498 500
f 440 500 442
f 441 443 501
f 441 501 499
f 442 500 502
f 442 502 444
f 443 445 503
f 443 503 501
f 444 502 504
f 444 504 446
f 445 447 505
f 445 505 503
f 446 504 506
f 446 506 448
f 447 449 507
f 447 507 505
f 448 506 508
f 448 508 450
f 449 451 509
f 449 509 507
f 450 508 510
f 450 510 452
f 451 453 511
f 451 511 509
f 452 510 512
f 452 512 454
f 453 455 513
f 453 513 511
f 454 512 514
f 454 514 456
f 458 457 515
f 458 515 516
f 455 458 516
f 455 516 513
f 457 459 517
f 457 517 515
f 459 460 518
f 459 518 517
f 460 461 519
f 460 519 518
f 461 462 520
f 461 520 519
f 462 463 521
f 462 521 520
f 463 464 522
f 463 522 521
f 464 465 523
f 464 523 522
f 465 466 524
f 465 524 523
f 466 467 525
f 466 525 524
f 467 468 526
f 467 526 525
f 468 469 527
f 468 527 526
f 469 470 528
f 469 528 527
f 470 471 529
f 470 529 528
f 471 472 530
f 471 530 529
f 456 514 530
f 456 530 472
f 473 531 532
f 473 532 474
f 473 475 533
f 473 533 531
f 474 532 534
f 474 534 476
f 476 534 535
f 476 535 477
f 477 535 536
f 477 536 478
f 478 536 537
f 478 537 479
f 479 537 538
f 479 538 480
f 480 538 539
f 480 539 481
f 481 539 540
f 481 540 482
f 482 540 541
f 482 541 483
f 483 541 542
f 483 542 484
f 484 542 543
f 484 543 485
f 485 543 544
f 485 544 486
f 486 544 545
f 486 545 487
f 487 545 546
f 487 546 488
f 488 546 547
f 488 547 489
f 489 547 548
f 489 548 490
f 475 491 549
f 475 549 533
f 490 548 550
f 490 550 492
f 491 493 551
f 491 551 549
f 492 550 552
f 492 552 494
f 493 495 553
f 493 553 551
f 494 552 554
f 494 554 496
f 495 497 555
f 495 555 553
f 496 554 556
f 496 556 498
f 497 499 557
f 497 557 555
f 498 556 558
f 498 558 500
f 499 501 559
f 499 559 557
f 500 558 560
f 500 560 502
f 501 503 561
f 501 561 559
f 502 560 562
f 502 562 504
f 503 505 563
f 503 563 561
f 504 562 564
f 504 564 506
f 505 507 565
f 505 565 563
f 506 564 566
f 506 566 508
f 507 509 567
f 507 567 565
f 508 566 568
f 508 568 510
f 509 511 569
f 509 569 567
f 510 568 570
f 510 570 512
f 511 513 571
f 511 571 569
f 512 570 572
f 512 572 514
f 516 515 573
f 516 573 574
f 513 516 574
f 513 574 571
f 515 517 575
f 515 575 573
f 517 518 576
f 517 576 575
f 518 519 577
f 518 577 576
f 519 520 578
f 519 578 577
f 520 521 579
f 520 579 578
f 521 522 580
f 521 580 579
f 522 523 581
f 522 581 580
f 523 524 582
f 523 582 581
f 524 525 583
f 524 583 582
f 525 526 584
f 525 584 583
f 526 527 585
f 526 585 584
f 527 528 586
f 527 586 585
f 528 529 587
f 528 587 586
f 529 530 588
f 529 588 587
f 514 572 588
f 514 588 530
f 531 589 590
f 531 590 532
f 531 533 591
f 531 591 589
f 532 590 592
f 532 592 534
f 534 592 593
f 534 593 535
f 535 593 594
f 535 594 536
f 536 594 595
f 536 595 537
f 537 595 596
f 537 596 538
f 538 596 597
f 538 597 539
f 539 597 598
f 539 598 540
f 540 598 599
f 540 599 541
f 541 599 600
f 541 600 542
f 542 600 601
f 542 601 543
f 543 601 602
f 543 602 544
f 544 602 603
f 544 603 545
f 545 603 604
f 545 604 546
f 546 604 605
f 546 605 547
f 547 605 606
f 547 606 548
f 533 549 607
f 533 607 591
f 548 606 608
f 548 608 550
f 549 551 609
f 549 609 607
f 550 608 610
f 550 610 552
f 551 553 611
f 551 611 609
f 552 610 612
f 552 612 554
f 553 555 613
f 553 613 611
f 554 612 614
f 554 614 556
f 555 557 615
f 555 615 613
f 556 614 616
f 556 616 558
f 557 559 617
f 557 617 615
f 558 616 618
f 558 618 560
f 559 561 619
f 559 619 617
f 560 618 620
f 560 620 562
f 561 563 621
f 561 621 619
f 562 620 622
f 562 622 564
f 563 565 623
f 563 623 621
f 564 622 624
f 564 624 566
f 565 567 625
f 565 625 623
f 566 624 626
f 566 626 568
f 567 569 627
f 567 627 625
f 568 626 628
f 568 628 570
f 569 571 629
f 569 629 627
f 570 628 630
f 570 630 572
f 574 573 631
f 574 631 632
f 571 574 632
f 571 632 629
f 573 575 633
f 573 633 631
f 575 576 634
f 575 634 633
f 576 577 635
f 576 635 634
f 577 578 636
f 577 636 635
f 578 579 637
f 578 637 636
f 579 580 638
f 579 638 637
f 580 581 639
f 580 639 638
f 581 582 640
f 581 640 639
f 582 583 641
f 582 641 640
f 583 584 642
f 583 642 641
f 584 585 643
f 584 643 642
f 585 586 644
f 585 644 643
f 586 587 645
f 586 645 644
f 587 588 646
f 587 646 645
f 572 630 646
f 572 646 588
f 589 647 648
f 589 648 590
f 589 591 649
f 589 649 647
f 590 648 650
f 590 650 592
f 592 650 651
f 592 651 593
f 593 651 652
f 593 652 594
f 594 652 653
f 594 653 595
f 595 653 654
f 595 654 596
f 596 654 655
f 596 655 597
f 597 655 656
f 597 656 598
f 598 656 657
f 598 657 599
f 599 657 658
f 599 658 600
f 600 658 659
f 600 659 601
f 601 659 660
f 601 660 602
f 602 660 661
f 602 661 603
f 603 661 662
f 603 662 604
f 604 662 663
f 604 663 605
f 605 663 664
f 605 664 606
f 591 607 665
f 591 665 649
f 606 664 666
f 606 666 608
f 607 609 667
f 607 667 665
f 608 666 668
f 608 668 610
f 609 611 669
f 609 669 667
f 610 668 670
f 610 670 612
f 611 613 671
f 611 671 669
f 612 670 672
f 612 672 614
f 613 615 673
f 613 673 671
f 614 672 674
f 614 674 616
f 615 617 675
f 615 675 673
f 616 674 676
f 616 676 618
f 617 619 677
f 617 677 675
f 618 676 678
f 618 678 620
f 619 621 679
f 619 679 677
f 620 678 680
f 620 680 622
f 621 623 681
f 621 681 679
f 622 680 682
f 622 682 624
f 623 625 683
f 623 683 681
f 624 682 684
f 624 684 626
f 625 627 685
f 625 685 683
f 626 684 686
f 626 686 628
f 627 629 687
f 627 687 685
f 628 686 688
f 628 688 630
f 632 631 689
f 632 689 690
f 629 632 690
f 629 690 687
f 631 633 691
f 631 691 689
f 633 634 692
f 633 692 691
f 634 635 693
f 634 693 692
f 635 636 694
f 635 694 693
f 636 637 695
f 636 695 694
f 637 638 696
f 637 696 695
f 638 639 697
f 638 697 696
f 639 640 698
f 639 698 697
f 640 641 699
f 640 699 698
f 641 642 700
f 641 700 699
f 642 643 701
f 642 701 700
f 643 644 702
f 643 702 701
f 644 645 703
f 644 703 702
f 645 646 704
f 645 704 703
f 630 688 704
f 630 704 646
f 647 705 706
f 647 706 648
f 647 649 707
f 647 707 705
f 648 706 708
f 648 708 650
f 650 708 709
f 650 709 651
f 651 709 710
f 651 710 652
f 652 710 711
f 652 711 653
f 653 711 712
f 653 712 654
f 654 712 713
f 654 713 655
f 655 713 714
f 655 714 656
f 656 714 715
f 656 715 657
f 657 715 716
f 657 716 658
f 658 716 717
f 658 717 659
f 659 717 718
f 659 718 660
f 660 718 719
f 660 719 661
f 661 719 720
f 661 720 662
f 662 720 721
f 662 721 663
f 663 721 722
f 663 722 664
f 649 665 723
f 649 723 707
f 664 722 724
f 664 724 666
f 665 667 725
f 665 725 723
f 666 724 726
f 666 726 668
f 667 669 727
f 667 727 725
f 668 726 728
f 668 728 670
f 669 671 729
f 669 729 727
f 670 728 730
f 670 730 672
f 671 673 731
f 671 731 729
f 672 730 732
f 672 732 674
f 673 675 733
f 673 733 731
f 674 732 734
f 674 734 676
f 675 677 735
f 675 735 733
f 676 734 736
f 676 736 678
f 677 679 737
f 677 737 735
f 678 736 738
f 678 738 680
f 679 681 739
f 679 739 737
f 680 738 740
f 680 740 682
f 681 683 741
f 681 741 739
f 682 740 742
f 682 742 684
f 683 685 743
f 683 743 741
f 684 742 744
f 684 744 686
f 685 687 745
f 685 745 743
f 686 744 746
f 686 746 688
f 690 689 747
f 690 747 748
f 687 690 748
f 687 748 745
f 689 691 749
f 689 749 747
f 691 692 750
f 691 750 749
f 692 693 751
f 692 751 750
f 693 694 752
f 693 752 751
f 694 695 753
f 694 753 752
f 695 696 754
f 695 754 753
f 696 697 755
f 696 755 754
f 697 698 756
f 697 756 755
f 698 699 757
f 698 757 756
f 699 700 758
f 699 758 757
f 700 701 759
f 700 759 758
f 701 702 760
f 701 760 759
f 702 703 761
f 702 761 760
f 703 704 762
f 703 762 761
f 688 746 762
f 688 762 704
f 705 763 764
f 705 764 706
f 705 707 765
f 705 765 763
f 706 764 766
f 706 766 708
f 708 766 767
f 708 767 709
f 709 767 768
f 709 768 710
f 710 768 769
f 710 769 711
f 711 769 770
f 711 770 712
f 712 770 771
f 712 771 713
f 713 771 772
f 713 772 714
f 714 772 773
f 714 773 715
f 715 773 774
f 715 774 716
f 716 774 775
f 716 775 717
f 717 775 776
f 717 776 718
f 718 776 777
f 718 777 719
f 719 777 778
f 719 778 720
f 720 778 779
f 720 779 721
f 721 779 780
f 721 780 722
f 707 723 781
f 707 781 765
f 722 780 782
f 722 782 724
f 723 725 783
f 723 783 781
f 724 782 784
f 724 784 726
f 725 727 785
f 725 785 783
f 726 784 786
f 726 786 728
f 727 729 787
f 727 787 785
f 728 786 788
f 728 788 730
f 729 731 789
f 729 789 787
f 730 788 790
f 730 790 732
f 731 733 791
f 731 791 789
f 732 790 792
f 732 792 734
f 733 735 793
f 733 793 791
f 734 792 794
f 734 794 736
f 735 737 795
f 735 795 793
f 736 794 796
f 736 796 738
f 737 739 797
f 737 797 795
f 738 796 798
f 738 798 740
f 739 741 799
f 739 799 797
f 740 798 800
f 740 800 742
f 741 743 801
f 741 801 799
f 742 800 802
f 742 802 744
f 743 745 803
f 743 803 801
f 744 802 804
f 744 804 746
f 748 747 805
f 748 805 806
f 745 748 806
f 745 806 803
f 747 749 807
f 747 807 805
f 749 750 808
f 749 808 807
f 750 751 809
f 750 809 808
f 751 752 810
f 751 810 809
f 752 753 811
f 752 811 810
f 753 754 812
f 753 812 811
f 754 755 813
f 754 813 812
f 755 756 814
f 755 814 813
f 756 757 815
f 756 815 814
f 757 758 816
f 757 816 815
f 758 759 817
f 758 817 816
f 759 760 818
f 759 818 817
f 760 761 819
f 760 819 818
f 761 762 820
f 761 820 819
f 746 804 820
f 746 820 762
f 763 821 822
f 763 822 764
f 763 765 823
f 763 823 821
f 764 822 824
f 764 824 766
f 766 824 825
f 766 825 767
f 767 825 826
f 767 826 768
f 768 826 827
f 768 827 769
f 769 827 828
f 769 828 770
f 770 828 829
f 770 829 771
f 771 829 830
f 771 830 772
f 772 830 831
f 772 831 773
f 773 831 832
f 773 832 774
f 774 832 833
f 774 833 775
f 775 833 834
f 775 834 776
f 776 834 835
f 776 835 777
f 777 835 836
f 777 836 778
f 778 836 837
f 778 837 779
f 779 837 838
f 779 838 780
f 765 781 839
f 765 839 823
f 780 838 840
f 780 840 782
f 781 783 841
f 781 841 839
f 782 840 842
f 782 842 784
f 783 785 843
f 783 843 841
f 784 842 844
f 784 844 786
f 785 787 845
f 785 845 843
f 786 844 846
f 786 846 788
f 787 789 847
f 787 847 845
f 788 846 848
f 788 848 790
f 789 791 849
f 789 849 847
f 790 848 850
f 790 850 792
f 791 793 851
f 791 851 849
f 792 850 852
f 792 852 794
f 793 795 853
f 793 853 851
f 794 852 854
f 794 854 796
f 795 797 855
f 795 855 853
f 796 854 856
f 796 856 798
f 797 799 857
f 797 857 855
f 798 856 858
f 798 858 800
f 799 801 859
f 799 859 857
f 800 858 860
f 800 860 802
f 801 803 861
f 801 861 859
f 802 860 862
f 802 862 804
f 806 805 863
f 806 863 864
f 803 806 864
f 803 864 861
f 805 807 865
f 805 865 863
f 807 808 866
f 807 866 865
f 808 809 867
f 808 867 866
f 809 810 868
f 809 868 867
f 810 811 869
f 810 869 868
f 811 812 870
f 811 870 869
f 812 813 871
f 812 871 870
f 813 814 872
f 813 872 871
f 814 815 873
f 814 873 872
f 815 816 874
f 815 874 873
f 816 817 875
f 816 875 874
f 817 818 876
f 817 876 875
f 818 819 877
f 818 877 876
f 819 820 878
f 819 878 877
f 804 862 878
f 804 878 820
f 821 879 880
f 821 880 822
f 821 823 881
f 821 881 879
f 822 880 882
f 822 882 824
f 824 882 883
f 824 883 825
f 825 883 884
f 825 884 826
f 826 884 885
f 826 885 827
f 827 885 886
f 827 886 828
f 828 886 887
f 828 887 829
f 829 887 888
f 829 888 830
f 830 888 889
f 830 889 831
f 831 889 890
f 831 890 832
f 832 890 891
f 832 891 833
f 833 891 892
f 833 892 834
f 834 892 893
f 834 893 835
f 835 893 894
f 835 894 836
f 836 894 895
f 836 895 837
f 837 895 896
f 837 896 838
f 823 839 897
f 823 897 881
f 838 896 898
f 838 898 840
f 839 841 899
f 839 899 897
f 840 898 900
f 840 900 842
f 841 843 901
f 841 901 899
f 842 900 902
f 842 902 844
f 843 845 903
f 843 903 901
f 844 902 904
f 844 904 846
f 845 847 905
f 845 905 903
f 846 904 906
f 846 906 848
f 847 849 907
f 847 907 905
f 848 906 908
f 848 908 850
f 849 851 909
f 849 909 907
f 850 908 910
f 850 910 852
f 851 853 911
f 851 911 909
f 852 910 912
f 852 912 854
f 853 855 913
f 853 913 911
f 854 912 914
f 854 914 856
f 855 857 915
f 855 915 913
f 856 914 916
f 856 916 858
f 857 859 917
f 857 917 915
f 858 916 918
f 858 918 860
f 859 861 919
f 859 919 917
f 860 918 920
f 860 920 862
f 864 863 921
f 864 921 922
f 861 864 922
f 861 922 919
f 863 865 923
f 863 923 921
f 865 866 924
f 865 924 923
f 866 867 925
f 866 925 924
f 867 868 926
f 867 926 925
f 868 869 927
f 868 927 926
f 869 870 928
f 869 928 927
f 870 871 929
f 870 929 928
f 871 872 930
f 871 930 929
f 872 873 931
f 872 931 930
f 873 874 932
f 873 932 931
f 874 875 933
f 874 933 932
f 875 876 934
f 875 934 933
f 876 877 935
f 876 935 934
f 877 878 936
f 877 936 935
f 862 920 936
f 862 936 878
f 879 937 938
f 879 938 880
f 879 881 939
f 879 939 937
f 880 938 940
f 880 940 882
f 882 940 941
f 882 941 883
f 883 941 942
f 883 942 884
f 884 942 943
f 884 943 885
f 885 943 944
f 885 944 886
f 886 944 945
f 886 945 887
f 887 945 946
f 887 946 888
f 888 946 947
f 888 947 889
f 889 947 948
f 889 948 890
f 890 948 949
f 890 949 891
f 891 949 950
f 891 950 892
f 892 950 951
f 892 951 893
f 893 951 952
f 893 952 894
f 894 952 953
f 894 953 895
f 895 953 954
f 895 954 896
f 881 897 955
f 881 955 939
f 896 954 956
f 896 956 898
f 897 899 957
f 897 957 955
f 898 956 958
f 898 958 900
f 899 901 959
f 899 959 957
f 900 958 960
f 900 960 902
f 901 903 961
f 901 961 959
f 902 960 962
f 902 962 904
f 903 905 963
f 903 963 961
f 904 962 964
f 904 964 906
f 905 907 965
f 905 965 963
f 906 964 966
f 906 966 908
f 907 909 967
f 907 967 965
f 908 966 968
f 908 968 910
f 909 911 969
f 909 969 967
f 910 968 970
f 910 970 912
f 911 913 971
f 911 971 969
f 912 970 972
f 912 972 914
f 913 915 973
f 913 973 971
f 914 972 974
f 914 974 916
f 915 917 975
f 915 975 973
f 916 974 976
f 916 976 918
f 917 919 977
f 917 977 975
f 918 976 978
f 918 978 920
f 922 921 979
f 922 979 980
f 919 922 980
f 919 980 977
f 921 923 981
f 921 981 979
f 923 924 982
f 923 982 981
f 924 925 983
f 924 983 982
f 925 926 984
f 925 984 983
f 926 927 985
f 926 985 984
f 927 928 986
f 927 986 985
f 928 929 987
f 928 987 986
f 929 930 988
f 929 988 987
f 930 931 989
f 930 989 988
f 931 932 990
f 931 990 989
f 932 933 991
f 932 991 990
f 933 934 992
f 933 992 991
f 934 935 993
f 934 993 992
f 935 936 994
f 935 994 993
f 920 978 994
f 920 994 936
f 937 995 996
f 937 996 938
f 937 939 997
f 937 997 995
f 938 996 998
f 938 998 940
f 940 998 999
f 940 999 941
f 941 999 1000
f 941 1000 942
f 1000 1001 1002
f 1000 1002 1003
f 942 1000 1001
f 942 1001 943
f 1001 1004 1005
f 1001 1005 1002
f 943 1001 1004
f 943 1004 944
f 1004 1006 1007
f 1004 1007 1005
f 944 1004 1006
f 944 1006 945
f 1006 1008 1009
f 1006 1009 1007
f 945 1006 1008
f 945 1008 946
f 1008 1010 1011
f 1008 1011 1009
f 946 1008 1010
f 946 1010 947
f 1010 1012 1013
f 1010 1013 1011
f 947 1010 1012
f 947 1012 948
f 1012 1014 1015
f 1012 1015 1013
f 948 1012 1014
f 948 1014 949
f 1014 1016 1017
f 1014 1017 1015
f 949 1014 1016
f 949 1016 950
f 1016 1018 1019
f 1016 1019 1017
f 950 1016 1018
f 950 1018 951
f 1018 1020 1021
f 1018 1021 1019
f 951 1018 1020
f 951 1020 952
f 1020 1022 1023
f 1020 1023 1021
f 952 1020 1022
f 952 1022 953
f 953 1022 1023
f 953 1023 954
f 939 955 1024
f 939 1024 997
f 1003 1002 1025
f 1003 1025 1026
f 1002 1005 1027
f 1002 1027 1025
f 1005 1007 1028
f 1005 1028 1027
f 1007 1009 1029
f 1007 1029 1028
f 1009 1011 1030
f 1009 1030 1029
f 1011 1013 1031
f 1011 1031 1030
f 1013 1015 1032
f 1013 1032 1031
f 1015 1017 1033
f 1015 1033 1032
f 1017 1019 1034
f 1017 1034 1033
f 1019 1021 1035
f 1019 1035 1034
f 1021 1023 1036
f 1021 1036 1035
f 954 1023 1036
f 954 1036 956
f 955 957 1037
f 955 1037 1024
f 1026 1025 1038
f 1026 1038 1039
f 1025 1027 1040
f 1025 1040 1038
f 1027 1028 1041
f 1027 1041 1040
f 1028 1029 1042
f 1028 1042 1041
f 1029 1030 1043
f 1029 1043 1042
f 1030 1031 1044
f 1030 1044 1043
f 1031 1032 1045
f 1031 1045 1044
f 1032 1033 1046
f 1032 1046 1045
f 1033 1034 1047
f 1033 1047 1046
f 1034 1035 1048
f 1034 1048 1047
f 1035 1036 1049
f 1035 1049 1048
f 956 1036 1049
f 956 1049 958
f 957 959 1050
f 957 1050 1037
f 1039 1038 1051
f 1039 1051 1052
f 1038 1040 1053
f 1038 1053 1051
f 1040 1041 1054
f 1040 1054 1053
f 1041 1042 1055
f 1041 1055 1054
f 1042 1043 1056
f 1042 1056 1055
f 1043 1044 1057
f 1043 1057 1056
f 1044 1045 1058
f 1044 1058 1057
f 1045 1046 1059
f 1045 1059 1058
f 1046 1047 1060
f 1046 1060 1059
f 1047 1048 1061
f 1047 1061 1060
f 1048 1049 1062
f 1048 1062 1061
f 958 1049 1062
f 958 1062 960
f 959 961 1063
f 959 1063 1050
f 1052 1051 1064
f 1052 1064 1065
f 1051 1053 1066
f 1051 1066 1064
f 1053 1054 1067
f 1053 1067 1066
f 1054 1055 1068
f 1054 1068 1067
f 1055 1056 1069
f 1055 1069 1068
f 1056 1057 1070
f 1056 1070 1069
f 1057 1058 1071
f 1057 1071 1070
f 1058 1059 1072
f 1058 1072 1071
f 1059 1060 1073
f 1059 1073 1072
f 1060 1061 1074
f 1060 1074 1073
f 1061 1062 1075
f 1061 1075 1074
f 960 1062 1075
f 960 1075 962
f 961 963 1076
f 961 1076 1063
f 1065 1064 1077
f 1065 1077 1078
f 1064 1066 1079
f 1064 1079 1077
f 1066 1067 1080
f 1066 1080 1079
f 1067 1068 1081
f 1067 1081 1080
f 1068 1069 1082
f 1068 1082 1081
f 1069 1070 1083
f 1069 1083 1082
f 1070 1071 1084
f 1070 1084 1083
f 1071 1072 1085
f 1071 1085 1084
f 1072 1073 1086
f 1072 1086 1085
f 1073 1074 1087
f 1073 1087 1086
f 1074 1075 1088
f 1074 1088 1087
f 962 1075 1088
f 962 1088 964
f 963 965 1089
f 963 1089 1076
f 1078 1077 1090
f 1078 1090 1091
f 1077 1079 1092
f 1077 1092 1090
f 1079 1080 1093
f 1079 1093 1092
f 1080 1081 1094
f 1080 1094 1093
f 1081 1082 1095
f 1081 1095 1094
f 1082 1083 1096
f 1082 1096 1095
f 1083 1084 1097
f 1083 1097 1096
f 1084 1085 1098
f 1084 1098 1097
f 1085 1086 1099
f 1085 1099 1098
f 1086 1087 1100
f 1086 1100 1099
f 1087 1088 1101
f 1087 1101 1100
f 964 1088 1101
f 964 1101 966
f 965 967 1102
f 965 1102 1089
f 1091 1090 1103
f 1091 1103 1104
f 1090 1092 1105
f 1090 1105 1103
f 1092 1093 1106
f 1092 1106 1105
f 1093 1094 1107
f 1093 1107 1106
f 1094 1095 1108
f 1094 1108 1107
f 1095 1096 1109
f 1095 1109 1108
f 1096 1097 1110
f 1096 1110 1109
f 1097 1098 1111
f 1097 1111 1110
f 1098 1099 1112
f 1098 1112 1111
f 1099 1100 1113
f 1099 1113 1112
f 1100 1101 1114
f 1100 1114 1113
f 966 1101 1114
f 966 1114 968
f 967 969 1115
f 967 1115 1102
f 1104 1103 1116
f 1104 1116 1117
f 1103 1105 1118
f 1103 1118 1116
f 1105 1106 1119
f 1105 1119 1118
f 1106 1107 1120
f 1106 1120 1119
f 1107 1108 1121
f 1107 1121 1120
f 1108 1109 1122
f 1108 1122 1121
f 1109 1110 1123
f 1109 1123 1122
f 1110 1111 1124
f 1110 1124 1123
f 1111 1112 1125
f 1111 1125 1124
f 1112 1113 1126
f 1112 1126 1125
f 1113 1114 1127
f 1113 1127 1126
f 968 1114 1127
f 968 1127 970
f 969 971 1128
f 969 1128 1115
f 1117 1116 1129
f 1117 1129 1130
f 1116 1118 1131
f 1116 1131 1129
f 1118 1119 1132
f 1118 1132 1131
f 1119 1120 1133
f 1119 1133 1132
f 1120 1121 1134
f 1120 1134 1133
f 1121 1122 1135
f 1121 1135 1134
f 1122 1123 1136
f 1122 1136 1135
f 1123 1124 1137
f 1123 1137 1136
f 1124 1125 1138
f 1124 1138 1137
f 1125 1126 1139
f 1125 1139 1138
f 1126 1127 1140
f 1126 1140 1139
f 970 1127 1140
f 970 1140 972
f 971 973 1141
f 971 1141 1128
f 1130 1129 1142
f 1130 1142 1143
f 1129 1131 1144
f 1129 1144 1142
f 1131 1132 1145
f 1131 1145 1144
f 1132 1133 1146
f 1132 1146 1145
f 1133 1134 1147
f 1133 1147 1146
f 1134 1135 1148
f 1134 1148 1147
f 1135 1136 1149
f 1135 1149 1148
f 1136 1137 1150
f 1136 1150 1149
f 1137 1138 1151
f 1137 1151 1150
f 1138 1139 1152
f 1138 1152 1151
f 1139 1140 1153
f 1139 1153 1152
f 972 1140 1153
f 972 1153 974
f 973 975 1154
f 973 1154 1141
f 1143 1142 1155
f 1143 1155 1156
f 1142 1144 1157
f 1142 1157 1155
f 1144 1145 1158
f 1144 1158 1157
f 1145 1146 1159
f 1145 1159 1158
f 1146 1147 1160
f 1146 1160 1159
f 1147 1148 1161
f 1147 1161 1160
f 1148 1149 1162
f 1148 1162 1161
f 1149 1150 1163
f 1149 1163 1162
f 1150 1151 1164
f 1150 1164 1163
f 1151 1152 1165
f 1151 1165 1164
f 1152 1153 1166
f 1152 1166 1165
f 974 1153 1166
f 974 1166 976
f 975 977 1167
f 975 1167 1154
f 1156 1155 1168
f 1156 1168 1169
f 1155 1157 1170
f 1155 1170 1168
f 1157 1158 1171
f 1157 1171 1170
f 1158 1159 1172
f 1158 1172 1171
f 1159 1160 1173
f 1159 1173 1172
f 1160 1161 1174
f 1160 1174 1173
f 1161 1162 1175
f 1161 1175 1174
f 1162 1163 1176
f 1162 1176 1175
f 1163 1164 1177
f 1163 1177 1176
f 1164 1165 1178
f 1164 1178 1177
f 1165 1166 1179
f 1165 1179 1178
f 976 1166 1179
f 976 1179 978
f 980 979 1180
f 980 1180 1181
f 977 980 1181
f 977 1181 1167
f 979 981 1182
f 979 1182 1180
f 981 982 1183
f 981 1183 1182
f 982 983 1184
f 982 1184 1183
f 1169 1168 1185
f 1169 1185 1184
f 983 984 1185
f 983 1185 1184
f 1168 1170 1186
f 1168 1186 1185
f 984 985 1186
f 984 1186 1185
f 1170 1171 1187
f 1170 1187 1186
f 985 986 1187
f 985 1187 1186
f 1171 1172 1188
f 1171 1188 1187
f 986 987 1188
f 986 1188 1187
f 1172 1173 1189
f 1172 1189 1188
f 987 988 1189
f 987 1189 1188
f 1173 1174 1190
f 1173 1190 1189
f 988 989 1190
f 988 1190 1189
f 1174 1175 1191
f 1174 1191 1190
f 989 990 1191
f 989 1191 1190
f 1175 1176 1192
f 1175 1192 1191
f 990 991 1192
f 990 1192 1191
f 1176 1177 1193
f 1176 1193 1192
f 991 992 1193
f 991 1193 1192
f 1177 1178 1194
f 1177 1194 1193
f 992 993 1194
f 992 1194 1193
f 1178 1179 1195
f 1178 1195 1194
f 993 994 1195
f 993 1195 1194
f 978 1179 1195
f 978 1195 994
f 1196 1197 1198
f 1196 1198 1199
f 995 1196 1197
f 995 1197 996
f 995 997 1199
f 995 1199 1196
f 1197 1200 1201
f 1197 1201 1198
f 996 1197 1200
f 996 1200 998
f 1200 1202 1203
f 1200 1203 1201
f 998 1200 1202
f 998 1202 999
f 1202 1204 1205
f 1202 1205 1203
f 999 1202 1204
f 999 1204 1000
f 1000 1204 1205
f 1000 1205 1003
f 1199 1198 1206
f 1199 1206 1207
f 997 1024 1207
f 997 1207 1199
f 1198 1201 1208
f 1198 1208 1206
f 1201 1203 1209
f 1201 1209 1208
f 1203 1205 1210
f 1203 1210 1209
f 1003 1205 1210
f 1003 1210 1026
f 1207 1206 1211
f 1207 1211 1212
f 1024 1037 1212
f 1024 1212 1207
f 1206 1208 1213
f 1206 1213 1211
f 1208 1209 1214
f 1208 1214 1213
f 1209 1210 1215
f 1209 1215 1214
f 1026 1210 1215
f 1026 1215 1039
f 1212 1211 1216
f 1212 1216 1217
f 1037 1050 1217
f 1037 1217 1212
f 1211 1213 1218
f 1211 1218 1216
f 1213 1214 1219
f 1213 1219 1218
f 1214 1215 1220
f 1214 1220 1219
f 1039 1215 1220
f 1039 1220 1052
f 1217 1216 1221
f 1217 1221 1222
f 1050 1063 1222
f 1050 1222 1217
f 1216 1218 1223
f 1216 1223 1221
f 1218 1219 1224
f 1218 1224 1223
f 1219 1220 1225
f 1219 1225 1224
f 1052 1220 1225
f 1052 1225 1065
f 1222 1221 1226
f 1222 1226 1227
f 1063 1076 1227
f 1063 1227 1222
f 1221 1223 1228
f 1221 1228 1226
f 1223 1224 1229
f 1223 1229 1228
f 1224 1225 1230
f 1224 1230 1229
f 1065 1225 1230
f 1065 1230 1078
f 1227 1226 1231
f 1227 1231 1232
f 1076 1089 1232
f 1076 1232 1227
f 1226 1228 1233
f 1226 1233 1231
f 1228 1229 1234
f 1228 1234 1233
f 1229 1230 1235
f 1229 1235 1234
f 1078 1230 1235
f 1078 1235 1091
f 1232 1231 1236
f 1232 1236 1237
f 1089 1102 1237
f 1089 1237 1232
f 1231 1233 1238
f 1231 1238 1236
f 1233 1234 1239
f 1233 1239 1238
f 1234 1235 1240
f 1234 1240 1239
f 1091 1235 1240
f 1091 1240 1104
f 1237 1236 1241
f 1237 1241 1242
f 1102 1115 1242
f 1102 1242 1237
f 1236 1238 1243
f 1236 1243 1241
f 1238 1239 1244
f 1238 1244 1243
f 1239 1240 1245
f 1239 1245 1244
f 1104 1240 1245
f 1104 1245 1117
f 1242 1241 1246
f 1242 1246 1247
f 1115 1128 1247
f 1115 1247 1242
f 1241 1243 1248
f 1241 1248 1246
f 1243 1244 1249
f 1243 1249 1248
f 1244 1245 1250
f 1244 1250 1249
f 1117 1245 1250
f 1117 1250 1130
f 1247 1246 1251
f 1247 1251 1252
f 1128 1141 1252
f 1128 1252 1247
f 1246 1248 1253
f 1246 1253 1251
f 1248 1249 1254
f 1248 1254 1253
f 1249 1250 1255
f 1249 1255 1254
f 1130 1250 1255
f 1130 1255 1143
f 1252 1251 1256
f 1252 1256 1257
f 1141 1154 1257
f 1141 1257 1252
f 1251 1253 1258
f 1251 1258 1256
f 1253 1254 1259
f 1253 1259 1258
f 1254 1255 1260
f 1254 1260 1259
f 1143 1255 1260
f 1143 1260 1156
f 1257 1256 1261
f 1257 1261 1262
f 1154 1167 1262
f 1154 1262 1257
f 1256 1258 1263
f 1256 1263 1261
f 1258 1259 1264
f 1258 1264 1263
f 1259 1260 1265
f 1259 1265 1264
f 1156 1260 1265
f 1156 1265 1169
f 1262 1261 1266
f 1262 1266 1267
f 1181 1180 1266
f 1181 1266 1267
f 1167 1181 1267
f 1167 1267 1262
f 1261 1263 1268
f 1261 1268 1266
f 1180 1182 1268
f 1180 1268 1266
f 1263 1264 1269
f 1263 1269 1268
f 1182 1183 1269
f 1182 1269 1268
f 1264 1265 1270
f 1264 1270 1269
f 1183 1184 1270
f 1183 1270 1269
f 1169 1265 1270
f 1169 1270 1184
