o [4B] 3D Diagram - S2-06 Group A_300
v -21.262500 16.165000 110.275000
v -21.262500 16.570000 110.275000
v -21.262500 16.570000 110.950000
v -21.262500 16.165000 110.950000
v -18.225000 16.165000 110.275000
v -18.225000 16.165000 110.950000
v -18.225000 16.570000 110.275000
v -21.262500 16.570000 111.625000
v -21.262500 16.165000 111.625000
v -18.225000 16.165000 111.625000
v -21.262500 16.570000 112.300000
v -21.262500 16.165000 112.300000
v -18.225000 16.165000 112.300000
v -21.262500 16.570000 112.975000
v -21.262500 16.165000 112.975000
v -18.225000 16.165000 112.975000
v -21.262500 16.570000 113.650000
v -21.262500 16.165000 113.650000
v -18.225000 16.165000 113.650000
v -21.262500 16.570000 114.325000
v -21.262500 16.165000 114.325000
v -18.225000 16.165000 114.325000
v -21.262500 16.570000 115.000000
v -21.262500 16.165000 115.000000
v -18.225000 16.165000 115.000000
v -21.262500 16.570000 115.675000
v -21.262500 16.165000 115.675000
v -18.225000 16.165000 115.675000
v -21.262500 16.570000 116.350000
v -21.262500 16.165000 116.350000
v -18.225000 16.165000 116.350000
v -21.262500 16.570000 117.025000
v -21.262500 16.165000 117.025000
v -18.225000 16.165000 117.025000
v -21.262500 16.570000 117.700000
v -21.262500 16.165000 117.700000
v -18.225000 16.165000 117.700000
v -21.262500 16.570000 118.375000
v -21.262500 16.165000 118.375000
v -18.225000 16.165000 118.375000
v -21.262500 16.570000 119.050000
v -21.262500 16.165000 119.050000
v -18.225000 16.165000 119.050000
v -21.262500 16.570000 119.725000
v -21.262500 16.165000 119.725000
v -18.225000 16.165000 119.725000
v -18.225000 16.570000 119.725000
v -21.262500 16.975000 110.275000
v -21.262500 16.975000 110.950000
v -18.225000 16.975000 110.950000
v -18.225000 16.975000 110.275000
v -21.262500 16.975000 111.625000
v -18.225000 16.975000 111.625000
v -21.262500 16.975000 112.300000
v -18.225000 16.975000 112.300000
v -21.262500 16.975000 112.975000
v -18.225000 16.975000 112.975000
v -21.262500 16.975000 113.650000
v -18.225000 16.975000 113.650000
v -21.262500 16.975000 114.325000
v -21.262500 16.975000 115.000000
v -21.262500 16.975000 115.675000
v -21.262500 16.975000 116.350000
v -21.262500 16.975000 117.025000
v -21.262500 16.975000 117.700000
v -21.262500 16.975000 118.375000
v -21.262500 16.975000 119.050000
v -21.262500 16.975000 119.725000
v -18.225000 16.975000 119.725000
v -21.262500 17.380000 113.650000
v -21.262500 17.380000 114.325000
v -18.225000 17.380000 114.325000
v -18.225000 17.380000 113.650000
v -21.262500 17.380000 115.000000
v -18.225000 17.380000 115.000000
v -21.262500 17.380000 115.675000
v -18.225000 17.380000 115.675000
v -21.262500 17.380000 116.350000
v -21.262500 17.380000 117.025000
v -21.262500 17.380000 117.700000
v -21.262500 17.380000 118.375000
v -21.262500 17.380000 119.050000
v -21.262500 17.380000 119.725000
v -18.225000 17.380000 119.725000
v -21.262500 17.785000 115.675000
v -21.262500 17.785000 116.350000
v -18.225000 17.785000 116.350000
v -18.225000 17.785000 115.675000
v -21.262500 17.785000 117.025000
v -18.225000 17.785000 117.025000
v -21.262500 17.785000 117.700000
v -21.262500 17.785000 118.375000
v -21.262500 17.785000 119.050000
v -21.262500 17.785000 119.725000
v -18.225000 17.785000 119.725000
v -21.262500 18.190000 117.025000
v -21.262500 18.190000 117.700000
v -18.225000 18.190000 117.700000
v -18.225000 18.190000 117.025000
v -21.262500 18.190000 118.375000
v -21.262500 18.190000 119.050000
v -21.262500 18.190000 119.725000
v -18.225000 18.190000 119.725000
v -21.262500 18.595000 117.700000
v -21.262500 18.595000 118.375000
v -18.225000 18.595000 117.700000
v -21.262500 18.595000 119.050000
v -21.262500 18.595000 119.725000
v -18.225000 18.595000 119.725000
v -21.262500 19.000000 117.700000
v -21.262500 19.000000 118.375000
v -18.225000 19.000000 117.700000
v -21.262500 19.000000 119.050000
v -21.262500 19.000000 119.725000
v -18.225000 19.000000 119.725000
v -21.262500 19.405000 117.700000
v -21.262500 19.405000 118.375000
v -18.225000 19.405000 117.700000
v -21.262500 19.405000 119.050000
v -21.262500 19.405000 119.725000
v -18.225000 19.405000 119.725000
v -21.262500 19.405000 116.350000
v -21.262500 19.810000 116.350000
v -21.262500 19.810000 117.025000
v -21.262500 19.405000 117.025000
v -18.225000 19.405000 116.350000
v -18.225000 19.405000 117.025000
v -18.225000 19.810000 116.350000
v -21.262500 19.810000 117.700000
v -21.262500 19.810000 118.375000
v -21.262500 19.810000 119.050000
v -21.262500 19.810000 119.725000
v -18.225000 19.810000 119.725000
v -21.262500 19.810000 114.325000
v -21.262500 20.215000 114.325000
v -21.262500 20.215000 115.000000
v -21.262500 19.810000 115.000000
v -18.225000 19.810000 114.325000
v -18.225000 19.810000 115.000000
v -18.225000 20.215000 114.325000
v -21.262500 20.215000 115.675000
v -21.262500 19.810000 115.675000
v -18.225000 19.810000 115.675000
v -21.262500 20.215000 116.350000
v -21.262500 20.215000 117.025000
v -21.262500 20.215000 117.700000
v -21.262500 20.215000 118.375000
v -21.262500 20.215000 119.050000
v -21.262500 20.215000 119.725000
v -18.225000 20.215000 119.725000
v -21.262500 20.215000 112.300000
v -21.262500 20.620000 112.300000
v -21.262500 20.620000 112.975000
v -21.262500 20.215000 112.975000
v -18.225000 20.215000 112.300000
v -18.225000 20.215000 112.975000
v -18.225000 20.620000 112.300000
v -21.262500 20.620000 113.650000
v -21.262500 20.215000 113.650000
v -18.225000 20.215000 113.650000
v -21.262500 20.620000 114.325000
v -21.262500 20.620000 115.000000
v -21.262500 20.620000 115.675000
v -21.262500 20.620000 116.350000
v -21.262500 20.620000 117.025000
v -21.262500 20.620000 117.700000
v -21.262500 20.620000 118.375000
v -21.262500 20.620000 119.050000
v -21.262500 20.620000 119.725000
v -18.225000 20.620000 119.725000
v -21.262500 20.620000 110.275000
v -21.262500 21.025000 110.275000
v -21.262500 21.025000 110.950000
v -21.262500 20.620000 110.950000
v -18.225000 20.620000 110.275000
v -18.225000 20.620000 110.950000
v -18.225000 21.025000 110.275000
v -21.262500 21.025000 111.625000
v -21.262500 20.620000 111.625000
v -18.225000 20.620000 111.625000
v -21.262500 21.025000 112.300000
v -21.262500 21.025000 112.975000
v -21.262500 21.025000 113.650000
v -21.262500 21.025000 114.325000
v -21.262500 21.025000 115.000000
v -21.262500 21.025000 115.675000
v -21.262500 21.025000 116.350000
v -21.262500 21.025000 117.025000
v -21.262500 21.025000 117.700000
v -21.262500 21.025000 118.375000
v -21.262500 21.025000 119.050000
v -21.262500 21.025000 119.725000
v -18.225000 21.025000 119.725000
v -21.262500 21.430000 110.275000
v -21.262500 21.430000 110.950000
v -18.225000 21.430000 110.275000
v -21.262500 21.430000 111.625000
v -21.262500 21.430000 112.300000
v -21.262500 21.430000 112.975000
v -21.262500 21.430000 113.650000
v -21.262500 21.430000 114.325000
v -21.262500 21.430000 115.000000
v -21.262500 21.430000 115.675000
v -21.262500 21.430000 116.350000
v -21.262500 21.430000 117.025000
v -21.262500 21.430000 117.700000
v -21.262500 21.430000 118.375000
v -21.262500 21.430000 119.050000
v -21.262500 21.430000 119.725000
v -18.225000 21.430000 119.725000
v -21.262500 21.835000 110.275000
v -21.262500 21.835000 110.950000
v -18.225000 21.835000 110.950000
v -18.225000 21.835000 110.275000
v -21.262500 21.835000 111.625000
v -18.225000 21.835000 111.625000
v -21.262500 21.835000 112.300000
v -18.225000 21.835000 112.300000
v -21.262500 21.835000 112.975000
v -18.225000 21.835000 112.975000
v -21.262500 21.835000 113.650000
v -18.225000 21.835000 113.650000
v -21.262500 21.835000 114.325000
v -18.225000 21.835000 114.325000
v -21.262500 21.835000 115.000000
v -18.225000 21.835000 115.000000
v -21.262500 21.835000 115.675000
v -18.225000 21.835000 115.675000
v -21.262500 21.835000 116.350000
v -18.225000 21.835000 116.350000
v -21.262500 21.835000 117.025000
v -18.225000 21.835000 117.025000
v -21.262500 21.835000 117.700000
v -18.225000 21.835000 117.700000
v -21.262500 21.835000 118.375000
v -18.225000 21.835000 118.375000
v -21.262500 21.835000 119.050000
v -18.225000 21.835000 119.050000
v -21.262500 21.835000 119.725000
v -18.225000 21.835000 119.725000
v -15.187500 16.165000 110.275000
v -15.187500 16.165000 110.950000
v -15.187500 16.570000 110.275000
v -15.187500 16.165000 111.625000
v -15.187500 16.165000 112.300000
v -15.187500 16.165000 112.975000
v -15.187500 16.165000 113.650000
v -15.187500 16.165000 114.325000
v -15.187500 16.165000 115.000000
v -15.187500 16.165000 115.675000
v -15.187500 16.165000 116.350000
v -15.187500 16.165000 117.025000
v -15.187500 16.165000 117.700000
v -15.187500 16.165000 118.375000
v -15.187500 16.165000 119.050000
v -15.187500 16.165000 119.725000
v -15.187500 16.570000 119.725000
v -15.187500 16.975000 110.950000
v -15.187500 16.975000 110.275000
v -15.187500 16.975000 111.625000
v -15.187500 16.975000 112.300000
v -15.187500 16.975000 112.975000
v -15.187500 16.975000 113.650000
v -15.187500 16.975000 119.725000
v -15.187500 17.380000 114.325000
v -15.187500 17.380000 113.650000
v -15.187500 17.380000 115.000000
v -15.187500 17.380000 115.675000
v -15.187500 17.380000 119.725000
v -15.187500 17.785000 116.350000
v -15.187500 17.785000 115.675000
v -15.187500 17.785000 117.025000
v -15.187500 17.785000 119.725000
v -15.187500 18.190000 117.700000
v -15.187500 18.190000 117.025000
v -15.187500 18.190000 119.725000
v -15.187500 18.595000 117.700000
v -15.187500 18.595000 119.725000
v -15.187500 19.000000 117.700000
v -15.187500 19.000000 119.725000
v -15.187500 19.405000 117.700000
v -15.187500 19.405000 119.725000
v -15.187500 19.405000 116.350000
v -15.187500 19.405000 117.025000
v -15.187500 19.810000 116.350000
v -15.187500 19.810000 119.725000
v -15.187500 19.810000 114.325000
v -15.187500 19.810000 115.000000
v -15.187500 20.215000 114.325000
v -15.187500 19.810000 115.675000
v -15.187500 20.215000 119.725000
v -15.187500 20.215000 112.300000
v -15.187500 20.215000 112.975000
v -15.187500 20.620000 112.300000
v -15.187500 20.215000 113.650000
v -15.187500 20.620000 119.725000
v -15.187500 20.620000 110.275000
v -15.187500 20.620000 110.950000
v -15.187500 21.025000 110.275000
v -15.187500 20.620000 111.625000
v -15.187500 21.025000 119.725000
v -15.187500 21.430000 110.275000
v -15.187500 21.430000 119.725000
v -15.187500 21.835000 110.950000
v -15.187500 21.835000 110.275000
v -15.187500 21.835000 111.625000
v -15.187500 21.835000 112.300000
v -15.187500 21.835000 112.975000
v -15.187500 21.835000 113.650000
v -15.187500 21.835000 114.325000
v -15.187500 21.835000 115.000000
v -15.187500 21.835000 115.675000
v -15.187500 21.835000 116.350000
v -15.187500 21.835000 117.025000
v -15.187500 21.835000 117.700000
v -15.187500 21.835000 118.375000
v -15.187500 21.835000 119.050000
v -15.187500 21.835000 119.725000
v -12.150000 16.165000 110.275000
v -12.150000 16.165000 110.950000
v -12.150000 16.570000 110.275000
v -12.150000 16.165000 111.625000
v -12.150000 16.165000 112.300000
v -12.150000 16.165000 112.975000
v -12.150000 16.165000 113.650000
v -12.150000 16.165000 114.325000
v -12.150000 16.165000 115.000000
v -12.150000 16.165000 115.675000
v -12.150000 16.165000 116.350000
v -12.150000 16.165000 117.025000
v -12.150000 16.165000 117.700000
v -12.150000 16.165000 118.375000
v -12.150000 16.165000 119.050000
v -12.150000 16.165000 119.725000
v -12.150000 16.570000 119.725000
v -12.150000 16.975000 110.950000
v -12.150000 16.975000 110.275000
v -12.150000 16.975000 111.625000
v -12.150000 16.975000 112.300000
v -12.150000 16.975000 112.975000
v -12.150000 16.975000 113.650000
v -12.150000 16.975000 119.725000
v -12.150000 17.380000 114.325000
v -12.150000 17.380000 113.650000
v -12.150000 17.380000 115.000000
v -12.150000 17.380000 115.675000
v -12.150000 17.380000 119.725000
v -12.150000 17.785000 116.350000
v -12.150000 17.785000 115.675000
v -12.150000 17.785000 117.025000
v -12.150000 17.785000 119.725000
v -12.150000 18.190000 117.700000
v -12.150000 18.190000 117.025000
v -12.150000 18.190000 119.725000
v -12.150000 18.595000 117.700000
v -12.150000 18.595000 119.725000
v -12.150000 19.000000 117.700000
v -12.150000 19.000000 119.725000
v -12.150000 19.405000 117.700000
v -12.150000 19.405000 119.725000
v -12.150000 19.405000 116.350000
v -12.150000 19.405000 117.025000
v -12.150000 19.810000 116.350000
v -12.150000 19.810000 119.725000
v -12.150000 19.810000 114.325000
v -12.150000 19.810000 115.000000
v -12.150000 20.215000 114.325000
v -12.150000 19.810000 115.675000
v -12.150000 20.215000 119.725000
v -12.150000 20.215000 112.300000
v -12.150000 20.215000 112.975000
v -12.150000 20.620000 112.300000
v -12.150000 20.215000 113.650000
v -12.150000 20.620000 119.725000
v -12.150000 20.620000 110.275000
v -12.150000 20.620000 110.950000
v -12.150000 21.025000 110.275000
v -12.150000 20.620000 111.625000
v -12.150000 21.025000 119.725000
v -12.150000 21.430000 110.275000
v -12.150000 21.430000 119.725000
v -12.150000 21.835000 110.950000
v -12.150000 21.835000 110.275000
v -12.150000 21.835000 111.625000
v -12.150000 21.835000 112.300000
v -12.150000 21.835000 112.975000
v -12.150000 21.835000 113.650000
v -12.150000 21.835000 114.325000
v -12.150000 21.835000 115.000000
v -12.150000 21.835000 115.675000
v -12.150000 21.835000 116.350000
v -12.150000 21.835000 117.025000
v -12.150000 21.835000 117.700000
v -12.150000 21.835000 118.375000
v -12.150000 21.835000 119.050000
v -12.150000 21.835000 119.725000
v -9.112500 16.165000 110.275000
v -9.112500 16.165000 110.950000
v -9.112500 16.570000 110.275000
v -9.112500 16.165000 111.625000
v -9.112500 16.165000 112.300000
v -9.112500 16.165000 112.975000
v -9.112500 16.165000 113.650000
v -9.112500 16.165000 114.325000
v -9.112500 16.165000 115.000000
v -9.112500 16.165000 115.675000
v -9.112500 16.165000 116.350000
v -9.112500 16.165000 117.025000
v -9.112500 16.165000 117.700000
v -9.112500 16.165000 118.375000
v -9.112500 16.165000 119.050000
v -9.112500 16.165000 119.725000
v -9.112500 16.570000 119.725000
v -9.112500 16.975000 110.950000
v -9.112500 16.975000 110.275000
v -9.112500 16.975000 111.625000
v -9.112500 16.975000 112.300000
v -9.112500 16.975000 112.975000
v -9.112500 16.975000 113.650000
v -9.112500 16.975000 119.725000
v -9.112500 17.380000 114.325000
v -9.112500 17.380000 113.650000
v -9.112500 17.380000 115.000000
v -9.112500 17.380000 115.675000
v -9.112500 17.380000 119.725000
v -9.112500 17.785000 116.350000
v -9.112500 17.785000 115.675000
v -9.112500 17.785000 117.025000
v -9.112500 17.785000 119.725000
v -9.112500 18.190000 117.700000
v -9.112500 18.190000 117.025000
v -9.112500 18.190000 119.725000
v -9.112500 18.595000 117.700000
v -9.112500 18.595000 119.725000
v -9.112500 19.000000 117.700000
v -9.112500 19.000000 119.725000
v -9.112500 19.405000 117.700000
v -9.112500 19.405000 119.725000
v -9.112500 19.405000 116.350000
v -9.112500 19.405000 117.025000
v -9.112500 19.810000 116.350000
v -9.112500 19.810000 119.725000
v -9.112500 19.810000 114.325000
v -9.112500 19.810000 115.000000
v -9.112500 20.215000 114.325000
v -9.112500 19.810000 115.675000
v -9.112500 20.215000 119.725000
v -9.112500 20.215000 112.300000
v -9.112500 20.215000 112.975000
v -9.112500 20.620000 112.300000
v -9.112500 20.215000 113.650000
v -9.112500 20.620000 119.725000
v -9.112500 20.620000 110.275000
v -9.112500 20.620000 110.950000
v -9.112500 21.025000 110.275000
v -9.112500 20.620000 111.625000
v -9.112500 21.025000 119.725000
v -9.112500 21.430000 110.275000
v -9.112500 21.430000 119.725000
v -9.112500 21.835000 110.950000
v -9.112500 21.835000 110.275000
v -9.112500 21.835000 111.625000
v -9.112500 21.835000 112.300000
v -9.112500 21.835000 112.975000
v -9.112500 21.835000 113.650000
v -9.112500 21.835000 114.325000
v -9.112500 21.835000 115.000000
v -9.112500 21.835000 115.675000
v -9.112500 21.835000 116.350000
v -9.112500 21.835000 117.025000
v -9.112500 21.835000 117.700000
v -9.112500 21.835000 118.375000
v -9.112500 21.835000 119.050000
v -9.112500 21.835000 119.725000
v -6.075000 16.165000 110.275000
v -6.075000 16.165000 110.950000
v -6.075000 16.570000 110.275000
v -6.075000 16.165000 111.625000
v -6.075000 16.165000 112.300000
v -6.075000 16.165000 112.975000
v -6.075000 16.165000 113.650000
v -6.075000 16.165000 114.325000
v -6.075000 16.165000 115.000000
v -6.075000 16.165000 115.675000
v -6.075000 16.165000 116.350000
v -6.075000 16.165000 117.025000
v -6.075000 16.165000 117.700000
v -6.075000 16.165000 118.375000
v -6.075000 16.165000 119.050000
v -6.075000 16.165000 119.725000
v -6.075000 16.570000 119.725000
v -6.075000 16.975000 110.950000
v -6.075000 16.975000 110.275000
v -6.075000 16.975000 111.625000
v -6.075000 16.975000 112.300000
v -6.075000 16.975000 112.975000
v -6.075000 16.975000 113.650000
v -6.075000 16.975000 119.725000
v -6.075000 17.380000 114.325000
v -6.075000 17.380000 113.650000
v -6.075000 17.380000 115.000000
v -6.075000 17.380000 115.675000
v -6.075000 17.380000 119.725000
v -6.075000 17.785000 116.350000
v -6.075000 17.785000 115.675000
v -6.075000 17.785000 117.025000
v -6.075000 17.785000 119.725000
v -6.075000 18.190000 117.700000
v -6.075000 18.190000 117.025000
v -6.075000 18.190000 119.725000
v -6.075000 18.595000 117.700000
v -6.075000 18.595000 119.725000
v -6.075000 19.000000 117.700000
v -6.075000 19.000000 119.725000
v -6.075000 19.405000 117.700000
v -6.075000 19.405000 119.725000
v -6.075000 19.405000 116.350000
v -6.075000 19.405000 117.025000
v -6.075000 19.810000 116.350000
v -6.075000 19.810000 119.725000
v -6.075000 19.810000 114.325000
v -6.075000 19.810000 115.000000
v -6.075000 20.215000 114.325000
v -6.075000 19.810000 115.675000
v -6.075000 20.215000 119.725000
v -6.075000 20.215000 112.300000
v -6.075000 20.215000 112.975000
v -6.075000 20.620000 112.300000
v -6.075000 20.215000 113.650000
v -6.075000 20.620000 119.725000
v -6.075000 20.620000 110.275000
v -6.075000 20.620000 110.950000
v -6.075000 21.025000 110.275000
v -6.075000 20.620000 111.625000
v -6.075000 21.025000 119.725000
v -6.075000 21.430000 110.275000
v -6.075000 21.430000 119.725000
v -6.075000 21.835000 110.950000
v -6.075000 21.835000 110.275000
v -6.075000 21.835000 111.625000
v -6.075000 21.835000 112.300000
v -6.075000 21.835000 112.975000
v -6.075000 21.835000 113.650000
v -6.075000 21.835000 114.325000
v -6.075000 21.835000 115.000000
v -6.075000 21.835000 115.675000
v -6.075000 21.835000 116.350000
v -6.075000 21.835000 117.025000
v -6.075000 21.835000 117.700000
v -6.075000 21.835000 118.375000
v -6.075000 21.835000 119.050000
v -6.075000 21.835000 119.725000
v -3.037500 16.165000 110.275000
v -3.037500 16.165000 110.950000
v -3.037500 16.570000 110.275000
v -3.037500 16.165000 111.625000
v -3.037500 16.165000 112.300000
v -3.037500 16.165000 112.975000
v -3.037500 16.165000 113.650000
v -3.037500 16.165000 114.325000
v -3.037500 16.165000 115.000000
v -3.037500 16.165000 115.675000
v -3.037500 16.165000 116.350000
v -3.037500 16.165000 117.025000
v -3.037500 16.165000 117.700000
v -3.037500 16.165000 118.375000
v -3.037500 16.165000 119.050000
v -3.037500 16.165000 119.725000
v -3.037500 16.570000 119.725000
v -3.037500 16.975000 110.950000
v -3.037500 16.975000 110.275000
v -3.037500 16.975000 111.625000
v -3.037500 16.975000 112.300000
v -3.037500 16.975000 112.975000
v -3.037500 16.975000 113.650000
v -3.037500 16.975000 119.725000
v -3.037500 17.380000 114.325000
v -3.037500 17.380000 113.650000
v -3.037500 17.380000 115.000000
v -3.037500 17.380000 115.675000
v -3.037500 17.380000 119.725000
v -3.037500 17.785000 116.350000
v -3.037500 17.785000 115.675000
v -3.037500 17.785000 117.025000
v -3.037500 17.785000 119.725000
v -3.037500 18.190000 117.700000
v -3.037500 18.190000 117.025000
v -3.037500 18.190000 119.725000
v -3.037500 18.595000 117.700000
v -3.037500 18.595000 119.725000
v -3.037500 19.000000 117.700000
v -3.037500 19.000000 119.725000
v -3.037500 19.405000 117.700000
v -3.037500 19.405000 119.725000
v -3.037500 19.405000 116.350000
v -3.037500 19.405000 117.025000
v -3.037500 19.810000 116.350000
v -3.037500 19.810000 119.725000
v -3.037500 19.810000 114.325000
v -3.037500 19.810000 115.000000
v -3.037500 20.215000 114.325000
v -3.037500 19.810000 115.675000
v -3.037500 20.215000 119.725000
v -3.037500 20.215000 112.300000
v -3.037500 20.215000 112.975000
v -3.037500 20.620000 112.300000
v -3.037500 20.215000 113.650000
v -3.037500 20.620000 119.725000
v -3.037500 20.620000 110.275000
v -3.037500 20.620000 110.950000
v -3.037500 21.025000 110.275000
v -3.037500 20.620000 111.625000
v -3.037500 21.025000 119.725000
v -3.037500 21.430000 110.275000
v -3.037500 21.430000 119.725000
v -3.037500 21.835000 110.950000
v -3.037500 21.835000 110.275000
v -3.037500 21.835000 111.625000
v -3.037500 21.835000 112.300000
v -3.037500 21.835000 112.975000
v -3.037500 21.835000 113.650000
v -3.037500 21.835000 114.325000
v -3.037500 21.835000 115.000000
v -3.037500 21.835000 115.675000
v -3.037500 21.835000 116.350000
v -3.037500 21.835000 117.025000
v -3.037500 21.835000 117.700000
v -3.037500 21.835000 118.375000
v -3.037500 21.835000 119.050000
v -3.037500 21.835000 119.725000
v 0.000000 16.165000 110.275000
v 0.000000 16.165000 110.950000
v 0.000000 16.570000 110.275000
v 0.000000 16.165000 111.625000
v 0.000000 16.165000 112.300000
v 0.000000 16.165000 112.975000
v 0.000000 16.165000 113.650000
v 0.000000 16.165000 114.325000
v 0.000000 16.165000 115.000000
v 0.000000 16.165000 115.675000
v 0.000000 16.165000 116.350000
v 0.000000 16.165000 117.025000
v 0.000000 16.165000 117.700000
v 0.000000 16.165000 118.375000
v 0.000000 16.165000 119.050000
v 0.000000 16.165000 119.725000
v 0.000000 16.570000 119.725000
v 0.000000 16.975000 110.950000
v 0.000000 16.975000 110.275000
v 0.000000 16.975000 111.625000
v 0.000000 16.975000 112.300000
v 0.000000 16.975000 112.975000
v 0.000000 16.975000 113.650000
v 0.000000 16.975000 119.725000
v 0.000000 17.380000 114.325000
v 0.000000 17.380000 113.650000
v 0.000000 17.380000 115.000000
v 0.000000 17.380000 115.675000
v 0.000000 17.380000 119.725000
v 0.000000 17.785000 116.350000
v 0.000000 17.785000 115.675000
v 0.000000 17.785000 117.025000
v 0.000000 17.785000 119.725000
v 0.000000 18.190000 117.700000
v 0.000000 18.190000 117.025000
v 0.000000 18.190000 119.725000
v 0.000000 18.595000 117.700000
v 0.000000 18.595000 119.725000
v 0.000000 19.000000 117.700000
v 0.000000 19.000000 119.725000
v 0.000000 19.405000 117.700000
v 0.000000 19.405000 119.725000
v 0.000000 19.405000 116.350000
v 0.000000 19.405000 117.025000
v 0.000000 19.810000 116.350000
v 0.000000 19.810000 119.725000
v 0.000000 19.810000 114.325000
v 0.000000 19.810000 115.000000
v 0.000000 20.215000 114.325000
v 0.000000 19.810000 115.675000
v 0.000000 20.215000 119.725000
v 0.000000 20.215000 112.300000
v 0.000000 20.215000 112.975000
v 0.000000 20.620000 112.300000
v 0.000000 20.215000 113.650000
v 0.000000 20.620000 119.725000
v 0.000000 20.620000 110.275000
v 0.000000 20.620000 110.950000
v 0.000000 21.025000 110.275000
v 0.000000 20.620000 111.625000
v 0.000000 21.025000 119.725000
v 0.000000 21.430000 110.275000
v 0.000000 21.430000 119.725000
v 0.000000 21.835000 110.950000
v 0.000000 21.835000 110.275000
v 0.000000 21.835000 111.625000
v 0.000000 21.835000 112.300000
v 0.000000 21.835000 112.975000
v 0.000000 21.835000 113.650000
v 0.000000 21.835000 114.325000
v 0.000000 21.835000 115.000000
v 0.000000 21.835000 115.675000
v 0.000000 21.835000 116.350000
v 0.000000 21.835000 117.025000
v 0.000000 21.835000 117.700000
v 0.000000 21.835000 118.375000
v 0.000000 21.835000 119.050000
v 0.000000 21.835000 119.725000
v 3.037500 16.165000 110.275000
v 3.037500 16.165000 110.950000
v 3.037500 16.570000 110.275000
v 3.037500 16.165000 111.625000
v 3.037500 16.165000 112.300000
v 3.037500 16.165000 112.975000
v 3.037500 16.165000 113.650000
v 3.037500 16.165000 114.325000
v 3.037500 16.165000 115.000000
v 3.037500 16.165000 115.675000
v 3.037500 16.165000 116.350000
v 3.037500 16.165000 117.025000
v 3.037500 16.165000 117.700000
v 3.037500 16.165000 118.375000
v 3.037500 16.165000 119.050000
v 3.037500 16.165000 119.725000
v 3.037500 16.570000 119.725000
v 3.037500 16.975000 110.950000
v 3.037500 16.975000 110.275000
v 3.037500 16.975000 111.625000
v 3.037500 16.975000 112.300000
v 3.037500 16.975000 112.975000
v 3.037500 16.975000 113.650000
v 3.037500 16.975000 119.725000
v 3.037500 17.380000 114.325000
v 3.037500 17.380000 113.650000
v 3.037500 17.380000 115.000000
v 3.037500 17.380000 115.675000
v 3.037500 17.380000 119.725000
v 3.037500 17.785000 116.350000
v 3.037500 17.785000 115.675000
v 3.037500 17.785000 117.025000
v 3.037500 17.785000 119.725000
v 3.037500 18.190000 117.700000
v 3.037500 18.190000 117.025000
v 3.037500 18.190000 119.725000
v 3.037500 18.595000 117.700000
v 3.037500 18.595000 119.725000
v 3.037500 19.000000 117.700000
v 3.037500 19.000000 119.725000
v 3.037500 19.405000 117.700000
v 3.037500 19.405000 119.725000
v 3.037500 19.405000 116.350000
v 3.037500 19.405000 117.025000
v 3.037500 19.810000 116.350000
v 3.037500 19.810000 119.725000
v 3.037500 19.810000 114.325000
v 3.037500 19.810000 115.000000
v 3.037500 20.215000 114.325000
v 3.037500 19.810000 115.675000
v 3.037500 20.215000 119.725000
v 3.037500 20.215000 112.300000
v 3.037500 20.215000 112.975000
v 3.037500 20.620000 112.300000
v 3.037500 20.215000 113.650000
v 3.037500 20.620000 119.725000
v 3.037500 20.620000 110.275000
v 3.037500 20.620000 110.950000
v 3.037500 21.025000 110.275000
v 3.037500 20.620000 111.625000
v 3.037500 21.025000 119.725000
v 3.037500 21.430000 110.275000
v 3.037500 21.430000 119.725000
v 3.037500 21.835000 110.950000
v 3.037500 21.835000 110.275000
v 3.037500 21.835000 111.625000
v 3.037500 21.835000 112.300000
v 3.037500 21.835000 112.975000
v 3.037500 21.835000 113.650000
v 3.037500 21.835000 114.325000
v 3.037500 21.835000 115.000000
v 3.037500 21.835000 115.675000
v 3.037500 21.835000 116.350000
v 3.037500 21.835000 117.025000
v 3.037500 21.835000 117.700000
v 3.037500 21.835000 118.375000
v 3.037500 21.835000 119.050000
v 3.037500 21.835000 119.725000
v 6.075000 16.165000 110.275000
v 6.075000 16.165000 110.950000
v 6.075000 16.570000 110.275000
v 6.075000 16.165000 111.625000
v 6.075000 16.165000 112.300000
v 6.075000 16.165000 112.975000
v 6.075000 16.165000 113.650000
v 6.075000 16.165000 114.325000
v 6.075000 16.165000 115.000000
v 6.075000 16.165000 115.675000
v 6.075000 16.165000 116.350000
v 6.075000 16.165000 117.025000
v 6.075000 16.165000 117.700000
v 6.075000 16.165000 118.375000
v 6.075000 16.165000 119.050000
v 6.075000 16.165000 119.725000
v 6.075000 16.570000 119.725000
v 6.075000 16.975000 110.950000
v 6.075000 16.975000 110.275000
v 6.075000 16.975000 111.625000
v 6.075000 16.975000 112.300000
v 6.075000 16.975000 112.975000
v 6.075000 16.975000 113.650000
v 6.075000 16.975000 119.725000
v 6.075000 17.380000 114.325000
v 6.075000 17.380000 113.650000
v 6.075000 17.380000 115.000000
v 6.075000 17.380000 115.675000
v 6.075000 17.380000 119.725000
v 6.075000 17.785000 116.350000
v 6.075000 17.785000 115.675000
v 6.075000 17.785000 117.025000
v 6.075000 17.785000 119.725000
v 6.075000 18.190000 117.700000
v 6.075000 18.190000 117.025000
v 6.075000 18.190000 119.725000
v 6.075000 18.595000 117.700000
v 6.075000 18.595000 119.725000
v 6.075000 19.000000 117.700000
v 6.075000 19.000000 119.725000
v 6.075000 19.405000 117.700000
v 6.075000 19.405000 119.725000
v 6.075000 19.405000 116.350000
v 6.075000 19.405000 117.025000
v 6.075000 19.810000 116.350000
v 6.075000 19.810000 119.725000
v 6.075000 19.810000 114.325000
v 6.075000 19.810000 115.000000
v 6.075000 20.215000 114.325000
v 6.075000 19.810000 115.675000
v 6.075000 20.215000 119.725000
v 6.075000 20.215000 112.300000
v 6.075000 20.215000 112.975000
v 6.075000 20.620000 112.300000
v 6.075000 20.215000 113.650000
v 6.075000 20.620000 119.725000
v 6.075000 20.620000 110.275000
v 6.075000 20.620000 110.950000
v 6.075000 21.025000 110.275000
v 6.075000 20.620000 111.625000
v 6.075000 21.025000 119.725000
v 6.075000 21.430000 110.275000
v 6.075000 21.430000 119.725000
v 6.075000 21.835000 110.950000
v 6.075000 21.835000 110.275000
v 6.075000 21.835000 111.625000
v 6.075000 21.835000 112.300000
v 6.075000 21.835000 112.975000
v 6.075000 21.835000 113.650000
v 6.075000 21.835000 114.325000
v 6.075000 21.835000 115.000000
v 6.075000 21.835000 115.675000
v 6.075000 21.835000 116.350000
v 6.075000 21.835000 117.025000
v 6.075000 21.835000 117.700000
v 6.075000 21.835000 118.375000
v 6.075000 21.835000 119.050000
v 6.075000 21.835000 119.725000
v 9.112500 16.165000 110.275000
v 9.112500 16.165000 110.950000
v 9.112500 16.570000 110.275000
v 9.112500 16.165000 111.625000
v 9.112500 16.165000 112.300000
v 9.112500 16.165000 112.975000
v 9.112500 16.165000 113.650000
v 9.112500 16.165000 114.325000
v 9.112500 16.165000 115.000000
v 9.112500 16.165000 115.675000
v 9.112500 16.165000 116.350000
v 9.112500 16.165000 117.025000
v 9.112500 16.165000 117.700000
v 9.112500 16.165000 118.375000
v 9.112500 16.165000 119.050000
v 9.112500 16.165000 119.725000
v 9.112500 16.570000 119.725000
v 9.112500 16.975000 110.950000
v 9.112500 16.975000 110.275000
v 9.112500 16.975000 111.625000
v 9.112500 16.975000 112.300000
v 9.112500 16.975000 112.975000
v 9.112500 16.975000 113.650000
v 9.112500 16.975000 119.725000
v 9.112500 17.380000 114.325000
v 9.112500 17.380000 113.650000
v 9.112500 17.380000 115.000000
v 9.112500 17.380000 115.675000
v 9.112500 17.380000 119.725000
v 9.112500 17.785000 116.350000
v 9.112500 17.785000 115.675000
v 9.112500 17.785000 117.025000
v 9.112500 17.785000 119.725000
v 9.112500 18.190000 117.700000
v 9.112500 18.190000 117.025000
v 9.112500 18.190000 119.725000
v 9.112500 18.595000 117.700000
v 9.112500 18.595000 119.725000
v 9.112500 19.000000 117.700000
v 9.112500 19.000000 119.725000
v 9.112500 19.405000 117.700000
v 9.112500 19.405000 119.725000
v 9.112500 19.405000 116.350000
v 9.112500 19.405000 117.025000
v 9.112500 19.810000 116.350000
v 9.112500 19.810000 119.725000
v 9.112500 19.810000 114.325000
v 9.112500 19.810000 115.000000
v 9.112500 20.215000 114.325000
v 9.112500 19.810000 115.675000
v 9.112500 20.215000 119.725000
v 9.112500 20.215000 112.300000
v 9.112500 20.215000 112.975000
v 9.112500 20.620000 112.300000
v 9.112500 20.215000 113.650000
v 9.112500 20.620000 119.725000
v 9.112500 20.620000 110.275000
v 9.112500 20.620000 110.950000
v 9.112500 21.025000 110.275000
v 9.112500 20.620000 111.625000
v 9.112500 21.025000 119.725000
v 9.112500 21.430000 110.275000
v 9.112500 21.430000 119.725000
v 9.112500 21.835000 110.950000
v 9.112500 21.835000 110.275000
v 9.112500 21.835000 111.625000
v 9.112500 21.835000 112.300000
v 9.112500 21.835000 112.975000
v 9.112500 21.835000 113.650000
v 9.112500 21.835000 114.325000
v 9.112500 21.835000 115.000000
v 9.112500 21.835000 115.675000
v 9.112500 21.835000 116.350000
v 9.112500 21.835000 117.025000
v 9.112500 21.835000 117.700000
v 9.112500 21.835000 118.375000
v 9.112500 21.835000 119.050000
v 9.112500 21.835000 119.725000
v 12.150000 16.165000 110.275000
v 12.150000 16.165000 110.950000
v 12.150000 16.570000 110.275000
v 12.150000 16.165000 111.625000
v 12.150000 16.165000 112.300000
v 12.150000 16.165000 112.975000
v 12.150000 16.165000 113.650000
v 12.150000 16.165000 114.325000
v 12.150000 16.165000 115.000000
v 12.150000 16.165000 115.675000
v 12.150000 16.165000 116.350000
v 12.150000 16.165000 117.025000
v 12.150000 16.165000 117.700000
v 12.150000 16.165000 118.375000
v 12.150000 16.165000 119.050000
v 12.150000 16.165000 119.725000
v 12.150000 16.570000 119.725000
v 12.150000 16.975000 110.950000
v 12.150000 16.975000 110.275000
v 12.150000 16.975000 111.625000
v 12.150000 16.975000 112.300000
v 12.150000 16.975000 112.975000
v 12.150000 16.975000 113.650000
v 12.150000 16.975000 119.725000
v 12.150000 17.380000 114.325000
v 12.150000 17.380000 113.650000
v 12.150000 17.380000 115.000000
v 12.150000 17.380000 115.675000
v 12.150000 17.380000 119.725000
v 12.150000 17.785000 116.350000
v 12.150000 17.785000 115.675000
v 12.150000 17.785000 117.025000
v 12.150000 17.785000 119.725000
v 12.150000 18.190000 117.700000
v 12.150000 18.190000 117.025000
v 12.150000 18.190000 119.725000
v 12.150000 18.595000 117.700000
v 12.150000 18.595000 119.725000
v 12.150000 19.000000 117.700000
v 12.150000 19.000000 119.725000
v 12.150000 19.405000 117.700000
v 12.150000 19.405000 119.725000
v 12.150000 19.405000 116.350000
v 12.150000 19.405000 117.025000
v 12.150000 19.810000 116.350000
v 12.150000 19.810000 119.725000
v 12.150000 19.810000 114.325000
v 12.150000 19.810000 115.000000
v 12.150000 20.215000 114.325000
v 12.150000 19.810000 115.675000
v 12.150000 20.215000 119.725000
v 12.150000 20.215000 112.300000
v 12.150000 20.215000 112.975000
v 12.150000 20.620000 112.300000
v 12.150000 20.215000 113.650000
v 12.150000 20.620000 119.725000
v 12.150000 20.620000 110.275000
v 12.150000 20.620000 110.950000
v 12.150000 21.025000 110.275000
v 12.150000 20.620000 111.625000
v 12.150000 21.025000 119.725000
v 12.150000 21.430000 110.275000
v 12.150000 21.430000 119.725000
v 12.150000 21.835000 110.950000
v 12.150000 21.835000 110.275000
v 12.150000 21.835000 111.625000
v 12.150000 21.835000 112.300000
v 12.150000 21.835000 112.975000
v 12.150000 21.835000 113.650000
v 12.150000 21.835000 114.325000
v 12.150000 21.835000 115.000000
v 12.150000 21.835000 115.675000
v 12.150000 21.835000 116.350000
v 12.150000 21.835000 117.025000
v 12.150000 21.835000 117.700000
v 12.150000 21.835000 118.375000
v 12.150000 21.835000 119.050000
v 12.150000 21.835000 119.725000
v 15.187500 16.165000 110.275000
v 15.187500 16.165000 110.950000
v 15.187500 16.570000 110.275000
v 15.187500 16.165000 111.625000
v 15.187500 16.165000 112.300000
v 15.187500 16.165000 112.975000
v 15.187500 16.165000 113.650000
v 15.187500 16.165000 114.325000
v 15.187500 16.165000 115.000000
v 15.187500 16.165000 115.675000
v 15.187500 16.165000 116.350000
v 15.187500 16.165000 117.025000
v 15.187500 16.165000 117.700000
v 15.187500 16.165000 118.375000
v 15.187500 16.165000 119.050000
v 15.187500 16.165000 119.725000
v 15.187500 16.570000 119.725000
v 15.187500 16.975000 110.950000
v 15.187500 16.975000 110.275000
v 15.187500 16.975000 111.625000
v 15.187500 16.975000 112.300000
v 15.187500 16.975000 112.975000
v 15.187500 16.975000 113.650000
v 15.187500 16.975000 119.725000
v 15.187500 17.380000 114.325000
v 15.187500 17.380000 113.650000
v 15.187500 17.380000 115.000000
v 15.187500 17.380000 115.675000
v 15.187500 17.380000 119.725000
v 15.187500 17.785000 116.350000
v 15.187500 17.785000 115.675000
v 15.187500 17.785000 117.025000
v 15.187500 17.785000 119.725000
v 15.187500 18.190000 117.700000
v 15.187500 18.190000 117.025000
v 15.187500 18.190000 119.725000
v 15.187500 18.595000 117.700000
v 15.187500 18.595000 119.725000
v 15.187500 19.000000 117.700000
v 15.187500 19.000000 119.725000
v 15.187500 19.405000 117.700000
v 15.187500 19.405000 119.725000
v 15.187500 19.405000 116.350000
v 15.187500 19.405000 117.025000
v 15.187500 19.810000 116.350000
v 15.187500 19.810000 119.725000
v 15.187500 19.810000 114.325000
v 15.187500 19.810000 115.000000
v 15.187500 20.215000 114.325000
v 15.187500 19.810000 115.675000
v 15.187500 20.215000 119.725000
v 15.187500 20.215000 112.300000
v 15.187500 20.215000 112.975000
v 15.187500 20.620000 112.300000
v 15.187500 20.215000 113.650000
v 15.187500 20.620000 119.725000
v 15.187500 20.620000 110.275000
v 15.187500 20.620000 110.950000
v 15.187500 21.025000 110.275000
v 15.187500 20.620000 111.625000
v 15.187500 21.025000 119.725000
v 15.187500 21.430000 110.275000
v 15.187500 21.430000 119.725000
v 15.187500 21.835000 110.950000
v 15.187500 21.835000 110.275000
v 15.187500 21.835000 111.625000
v 15.187500 21.835000 112.300000
v 15.187500 21.835000 112.975000
v 15.187500 21.835000 113.650000
v 15.187500 21.835000 114.325000
v 15.187500 21.835000 115.000000
v 15.187500 21.835000 115.675000
v 15.187500 21.835000 116.350000
v 15.187500 21.835000 117.025000
v 15.187500 21.835000 117.700000
v 15.187500 21.835000 118.375000
v 15.187500 21.835000 119.050000
v 15.187500 21.835000 119.725000
v 18.225000 16.165000 110.275000
v 18.225000 16.165000 110.950000
v 18.225000 16.570000 110.275000
v 18.225000 16.165000 111.625000
v 18.225000 16.165000 112.300000
v 18.225000 16.165000 112.975000
v 18.225000 16.165000 113.650000
v 18.225000 16.165000 114.325000
v 18.225000 16.165000 115.000000
v 18.225000 16.165000 115.675000
v 18.225000 16.165000 116.350000
v 18.225000 16.165000 117.025000
v 18.225000 16.165000 117.700000
v 18.225000 16.165000 118.375000
v 18.225000 16.165000 119.050000
v 18.225000 16.165000 119.725000
v 18.225000 16.570000 119.725000
v 18.225000 16.975000 110.950000
v 18.225000 16.975000 110.275000
v 18.225000 16.975000 111.625000
v 18.225000 16.975000 112.300000
v 18.225000 16.975000 112.975000
v 18.225000 16.975000 113.650000
v 18.225000 16.975000 119.725000
v 18.225000 17.380000 114.325000
v 18.225000 17.380000 113.650000
v 18.225000 17.380000 115.000000
v 18.225000 17.380000 115.675000
v 18.225000 17.380000 119.725000
v 18.225000 17.785000 116.350000
v 18.225000 17.785000 115.675000
v 18.225000 17.785000 117.025000
v 18.225000 17.785000 119.725000
v 18.225000 18.190000 117.700000
v 18.225000 18.190000 117.025000
v 18.225000 18.190000 119.725000
v 18.225000 18.595000 117.700000
v 18.225000 18.595000 119.725000
v 18.225000 19.000000 117.700000
v 18.225000 19.000000 119.725000
v 18.225000 19.405000 117.700000
v 18.225000 19.405000 119.725000
v 18.225000 19.405000 116.350000
v 18.225000 19.405000 117.025000
v 18.225000 19.810000 116.350000
v 18.225000 19.810000 119.725000
v 18.225000 19.810000 114.325000
v 18.225000 19.810000 115.000000
v 18.225000 20.215000 114.325000
v 18.225000 19.810000 115.675000
v 18.225000 20.215000 119.725000
v 18.225000 20.215000 112.300000
v 18.225000 20.215000 112.975000
v 18.225000 20.620000 112.300000
v 18.225000 20.215000 113.650000
v 18.225000 20.620000 119.725000
v 18.225000 20.620000 110.275000
v 18.225000 20.620000 110.950000
v 18.225000 21.025000 110.275000
v 18.225000 20.620000 111.625000
v 18.225000 21.025000 119.725000
v 18.225000 21.430000 110.275000
v 18.225000 21.430000 119.725000
v 18.225000 21.835000 110.950000
v 18.225000 21.835000 110.275000
v 18.225000 21.835000 111.625000
v 18.225000 21.835000 112.300000
v 18.225000 21.835000 112.975000
v 18.225000 21.835000 113.650000
v 18.225000 21.835000 114.325000
v 18.225000 21.835000 115.000000
v 18.225000 21.835000 115.675000
v 18.225000 21.835000 116.350000
v 18.225000 21.835000 117.025000
v 18.225000 21.835000 117.700000
v 18.225000 21.835000 118.375000
v 18.225000 21.835000 119.050000
v 18.225000 21.835000 119.725000
v 21.262500 16.165000 110.275000
v 21.262500 16.165000 110.950000
v 21.262500 16.570000 110.950000
v 21.262500 16.570000 110.275000
v 21.262500 16.165000 111.625000
v 21.262500 16.570000 111.625000
v 21.262500 16.165000 112.300000
v 21.262500 16.570000 112.300000
v 21.262500 16.165000 112.975000
v 21.262500 16.570000 112.975000
v 21.262500 16.165000 113.650000
v 21.262500 16.570000 113.650000
v 21.262500 16.165000 114.325000
v 21.262500 16.570000 114.325000
v 21.262500 16.165000 115.000000
v 21.262500 16.570000 115.000000
v 21.262500 16.165000 115.675000
v 21.262500 16.570000 115.675000
v 21.262500 16.165000 116.350000
v 21.262500 16.570000 116.350000
v 21.262500 16.165000 117.025000
v 21.262500 16.570000 117.025000
v 21.262500 16.165000 117.700000
v 21.262500 16.570000 117.700000
v 21.262500 16.165000 118.375000
v 21.262500 16.570000 118.375000
v 21.262500 16.165000 119.050000
v 21.262500 16.570000 119.050000
v 21.262500 16.165000 119.725000
v 21.262500 16.570000 119.725000
v 21.262500 16.975000 110.950000
v 21.262500 16.975000 110.275000
v 21.262500 16.975000 111.625000
v 21.262500 16.975000 112.300000
v 21.262500 16.975000 112.975000
v 21.262500 16.975000 113.650000
v 21.262500 16.975000 114.325000
v 21.262500 16.975000 115.000000
v 21.262500 16.975000 115.675000
v 21.262500 16.975000 116.350000
v 21.262500 16.975000 117.025000
v 21.262500 16.975000 117.700000
v 21.262500 16.975000 118.375000
v 21.262500 16.975000 119.050000
v 21.262500 16.975000 119.725000
v 21.262500 17.380000 114.325000
v 21.262500 17.380000 113.650000
v 21.262500 17.380000 115.000000
v 21.262500 17.380000 115.675000
v 21.262500 17.380000 116.350000
v 21.262500 17.380000 117.025000
v 21.262500 17.380000 117.700000
v 21.262500 17.380000 118.375000
v 21.262500 17.380000 119.050000
v 21.262500 17.380000 119.725000
v 21.262500 17.785000 116.350000
v 21.262500 17.785000 115.675000
v 21.262500 17.785000 117.025000
v 21.262500 17.785000 117.700000
v 21.262500 17.785000 118.375000
v 21.262500 17.785000 119.050000
v 21.262500 17.785000 119.725000
v 21.262500 18.190000 117.700000
v 21.262500 18.190000 117.025000
v 21.262500 18.190000 118.375000
v 21.262500 18.190000 119.050000
v 21.262500 18.190000 119.725000
v 21.262500 18.595000 118.375000
v 21.262500 18.595000 117.700000
v 21.262500 18.595000 119.050000
v 21.262500 18.595000 119.725000
v 21.262500 19.000000 118.375000
v 21.262500 19.000000 117.700000
v 21.262500 19.000000 119.050000
v 21.262500 19.000000 119.725000
v 21.262500 19.405000 118.375000
v 21.262500 19.405000 117.700000
v 21.262500 19.405000 119.050000
v 21.262500 19.405000 119.725000
v 21.262500 19.405000 116.350000
v 21.262500 19.405000 117.025000
v 21.262500 19.810000 117.025000
v 21.262500 19.810000 116.350000
v 21.262500 19.810000 117.700000
v 21.262500 19.810000 118.375000
v 21.262500 19.810000 119.050000
v 21.262500 19.810000 119.725000
v 21.262500 19.810000 114.325000
v 21.262500 19.810000 115.000000
v 21.262500 20.215000 115.000000
v 21.262500 20.215000 114.325000
v 21.262500 19.810000 115.675000
v 21.262500 20.215000 115.675000
v 21.262500 20.215000 116.350000
v 21.262500 20.215000 117.025000
v 21.262500 20.215000 117.700000
v 21.262500 20.215000 118.375000
v 21.262500 20.215000 119.050000
v 21.262500 20.215000 119.725000
v 21.262500 20.215000 112.300000
v 21.262500 20.215000 112.975000
v 21.262500 20.620000 112.975000
v 21.262500 20.620000 112.300000
v 21.262500 20.215000 113.650000
v 21.262500 20.620000 113.650000
v 21.262500 20.620000 114.325000
v 21.262500 20.620000 115.000000
v 21.262500 20.620000 115.675000
v 21.262500 20.620000 116.350000
v 21.262500 20.620000 117.025000
v 21.262500 20.620000 117.700000
v 21.262500 20.620000 118.375000
v 21.262500 20.620000 119.050000
v 21.262500 20.620000 119.725000
v 21.262500 20.620000 110.275000
v 21.262500 20.620000 110.950000
v 21.262500 21.025000 110.950000
v 21.262500 21.025000 110.275000
v 21.262500 20.620000 111.625000
v 21.262500 21.025000 111.625000
v 21.262500 21.025000 112.300000
v 21.262500 21.025000 112.975000
v 21.262500 21.025000 113.650000
v 21.262500 21.025000 114.325000
v 21.262500 21.025000 115.000000
v 21.262500 21.025000 115.675000
v 21.262500 21.025000 116.350000
v 21.262500 21.025000 117.025000
v 21.262500 21.025000 117.700000
v 21.262500 21.025000 118.375000
v 21.262500 21.025000 119.050000
v 21.262500 21.025000 119.725000
v 21.262500 21.430000 110.950000
v 21.262500 21.430000 110.275000
v 21.262500 21.430000 111.625000
v 21.262500 21.430000 112.300000
v 21.262500 21.430000 112.975000
v 21.262500 21.430000 113.650000
v 21.262500 21.430000 114.325000
v 21.262500 21.430000 115.000000
v 21.262500 21.430000 115.675000
v 21.262500 21.430000 116.350000
v 21.262500 21.430000 117.025000
v 21.262500 21.430000 117.700000
v 21.262500 21.430000 118.375000
v 21.262500 21.430000 119.050000
v 21.262500 21.430000 119.725000
v 21.262500 21.835000 110.950000
v 21.262500 21.835000 110.275000
v 21.262500 21.835000 111.625000
v 21.262500 21.835000 112.300000
v 21.262500 21.835000 112.975000
v 21.262500 21.835000 113.650000
v 21.262500 21.835000 114.325000
v 21.262500 21.835000 115.000000
v 21.262500 21.835000 115.675000
v 21.262500 21.835000 116.350000
v 21.262500 21.835000 117.025000
v 21.262500 21.835000 117.700000
v 21.262500 21.835000 118.375000
v 21.262500 21.835000 119.050000
v 21.262500 21.835000 119.725000
f 1 2 3
f 1 3 4
f 1 5 6
f 1 6 4
f 1 2 7
f 1 7 5
f 4 3 8
f 4 8 9
f 4 6 10
f 4 10 9
f 9 8 11
f 9 11 12
f 9 10 13
f 9 13 12
f 12 11 14
f 12 14 15
f 12 13 16
f 12 16 15
f 15 14 17
f 15 17 18
f 15 16 19
f 15 19 18
f 18 17 20
f 18 20 21
f 18 19 22
f 18 22 21
f 21 20 23
f 21 23 24
f 21 22 25
f 21 25 24
f 24 23 26
f 24 26 27
f 24 25 28
f 24 28 27
f 27 26 29
f 27 29 30
f 27 28 31
f 27 31 30
f 30 29 32
f 30 32 33
f 30 31 34
f 30 34 33
f 33 32 35
f 33 35 36
f 33 34 37
f 33 37 36
f 36 35 38
f 36 38 39
f 36 37 40
f 36 40 39
f 39 38 41
f 39 41 42
f 39 40 43
f 39 43 42
f 42 41 44
f 42 44 45
f 42 43 46
f 42 46 45
f 45 46 47
f 45 47 44
f 2 48 49
f 2 49 3
f 48 49 50
f 48 50 51
f 2 48 51
f 2 51 7
f 3 49 52
f 3 52 8
f 49 52 53
f 49 53 50
f 8 52 54
f 8 54 11
f 52 54 55
f 52 55 53
f 11 54 56
f 11 56 14
f 54 56 57
f 54 57 55
f 14 56 58
f 14 58 17
f 56 58 59
f 56 59 57
f 17 58 60
f 17 60 20
f 20 60 61
f 20 61 23
f 23 61 62
f 23 62 26
f 26 62 63
f 26 63 29
f 29 63 64
f 29 64 32
f 32 64 65
f 32 65 35
f 35 65 66
f 35 66 38
f 38 66 67
f 38 67 41
f 41 67 68
f 41 68 44
f 44 47 69
f 44 69 68
f 58 70 71
f 58 71 60
f 70 71 72
f 70 72 73
f 58 70 73
f 58 73 59
f 60 71 74
f 60 74 61
f 71 74 75
f 71 75 72
f 61 74 76
f 61 76 62
f 74 76 77
f 74 77 75
f 62 76 78
f 62 78 63
f 63 78 79
f 63 79 64
f 64 79 80
f 64 80 65
f 65 80 81
f 65 81 66
f 66 81 82
f 66 82 67
f 67 82 83
f 67 83 68
f 68 69 84
f 68 84 83
f 76 85 86
f 76 86 78
f 85 86 87
f 85 87 88
f 76 85 88
f 76 88 77
f 78 86 89
f 78 89 79
f 86 89 90
f 86 90 87
f 79 89 91
f 79 91 80
f 80 91 92
f 80 92 81
f 81 92 93
f 81 93 82
f 82 93 94
f 82 94 83
f 83 84 95
f 83 95 94
f 89 96 97
f 89 97 91
f 96 97 98
f 96 98 99
f 89 96 99
f 89 99 90
f 91 97 100
f 91 100 92
f 92 100 101
f 92 101 93
f 93 101 102
f 93 102 94
f 94 95 103
f 94 103 102
f 97 104 105
f 97 105 100
f 97 104 106
f 97 106 98
f 100 105 107
f 100 107 101
f 101 107 108
f 101 108 102
f 102 103 109
f 102 109 108
f 104 110 111
f 104 111 105
f 104 110 112
f 104 112 106
f 105 111 113
f 105 113 107
f 107 113 114
f 107 114 108
f 108 109 115
f 108 115 114
f 110 116 117
f 110 117 111
f 110 116 118
f 110 118 112
f 111 117 119
f 111 119 113
f 113 119 120
f 113 120 114
f 114 115 121
f 114 121 120
f 122 123 124
f 122 124 125
f 122 126 127
f 122 127 125
f 122 123 128
f 122 128 126
f 125 124 129
f 125 129 116
f 125 127 118
f 125 118 116
f 116 129 130
f 116 130 117
f 117 130 131
f 117 131 119
f 119 131 132
f 119 132 120
f 120 121 133
f 120 133 132
f 134 135 136
f 134 136 137
f 134 138 139
f 134 139 137
f 134 135 140
f 134 140 138
f 137 136 141
f 137 141 142
f 137 139 143
f 137 143 142
f 142 141 144
f 142 144 123
f 142 143 128
f 142 128 123
f 123 144 145
f 123 145 124
f 124 145 146
f 124 146 129
f 129 146 147
f 129 147 130
f 130 147 148
f 130 148 131
f 131 148 149
f 131 149 132
f 132 133 150
f 132 150 149
f 151 152 153
f 151 153 154
f 151 155 156
f 151 156 154
f 151 152 157
f 151 157 155
f 154 153 158
f 154 158 159
f 154 156 160
f 154 160 159
f 159 158 161
f 159 161 135
f 159 160 140
f 159 140 135
f 135 161 162
f 135 162 136
f 136 162 163
f 136 163 141
f 141 163 164
f 141 164 144
f 144 164 165
f 144 165 145
f 145 165 166
f 145 166 146
f 146 166 167
f 146 167 147
f 147 167 168
f 147 168 148
f 148 168 169
f 148 169 149
f 149 150 170
f 149 170 169
f 171 172 173
f 171 173 174
f 171 175 176
f 171 176 174
f 171 172 177
f 171 177 175
f 174 173 178
f 174 178 179
f 174 176 180
f 174 180 179
f 179 178 181
f 179 181 152
f 179 180 157
f 179 157 152
f 152 181 182
f 152 182 153
f 153 182 183
f 153 183 158
f 158 183 184
f 158 184 161
f 161 184 185
f 161 185 162
f 162 185 186
f 162 186 163
f 163 186 187
f 163 187 164
f 164 187 188
f 164 188 165
f 165 188 189
f 165 189 166
f 166 189 190
f 166 190 167
f 167 190 191
f 167 191 168
f 168 191 192
f 168 192 169
f 169 170 193
f 169 193 192
f 172 194 195
f 172 195 173
f 172 194 196
f 172 196 177
f 173 195 197
f 173 197 178
f 178 197 198
f 178 198 181
f 181 198 199
f 181 199 182
f 182 199 200
f 182 200 183
f 183 200 201
f 183 201 184
f 184 201 202
f 184 202 185
f 185 202 203
f 185 203 186
f 186 203 204
f 186 204 187
f 187 204 205
f 187 205 188
f 188 205 206
f 188 206 189
f 189 206 207
f 189 207 190
f 190 207 208
f 190 208 191
f 191 208 209
f 191 209 192
f 192 193 210
f 192 210 209
f 194 211 212
f 194 212 195
f 211 212 213
f 211 213 214
f 194 211 214
f 194 214 196
f 195 212 215
f 195 215 197
f 212 215 216
f 212 216 213
f 197 215 217
f 197 217 198
f 215 217 218
f 215 218 216
f 198 217 219
f 198 219 199
f 217 219 220
f 217 220 218
f 199 219 221
f 199 221 200
f 219 221 222
f 219 222 220
f 200 221 223
f 200 223 201
f 221 223 224
f 221 224 222
f 201 223 225
f 201 225 202
f 223 225 226
f 223 226 224
f 202 225 227
f 202 227 203
f 225 227 228
f 225 228 226
f 203 227 229
f 203 229 204
f 227 229 230
f 227 230 228
f 204 229 231
f 204 231 205
f 229 231 232
f 229 232 230
f 205 231 233
f 205 233 206
f 231 233 234
f 231 234 232
f 206 233 235
f 206 235 207
f 233 235 236
f 233 236 234
f 207 235 237
f 207 237 208
f 235 237 238
f 235 238 236
f 208 237 239
f 208 239 209
f 237 239 240
f 237 240 238
f 209 210 240
f 209 240 239
f 5 241 242
f 5 242 6
f 5 7 243
f 5 243 241
f 6 242 244
f 6 244 10
f 10 244 245
f 10 245 13
f 13 245 246
f 13 246 16
f 16 246 247
f 16 247 19
f 19 247 248
f 19 248 22
f 22 248 249
f 22 249 25
f 25 249 250
f 25 250 28
f 28 250 251
f 28 251 31
f 31 251 252
f 31 252 34
f 34 252 253
f 34 253 37
f 37 253 254
f 37 254 40
f 40 254 255
f 40 255 43
f 43 255 256
f 43 256 46
f 46 256 257
f 46 257 47
f 51 50 258
f 51 258 259
f 7 51 259
f 7 259 243
f 50 53 260
f 50 260 258
f 53 55 261
f 53 261 260
f 55 57 262
f 55 262 261
f 57 59 263
f 57 263 262
f 47 257 264
f 47 264 69
f 73 72 265
f 73 265 266
f 59 73 266
f 59 266 263
f 72 75 267
f 72 267 265
f 75 77 268
f 75 268 267
f 69 264 269
f 69 269 84
f 88 87 270
f 88 270 271
f 77 88 271
f 77 271 268
f 87 90 272
f 87 272 270
f 84 269 273
f 84 273 95
f 99 98 274
f 99 274 275
f 90 99 275
f 90 275 272
f 95 273 276
f 95 276 103
f 98 106 277
f 98 277 274
f 103 276 278
f 103 278 109
f 106 112 279
f 106 279 277
f 109 278 280
f 109 280 115
f 112 118 281
f 112 281 279
f 115 280 282
f 115 282 121
f 126 283 284
f 126 284 127
f 126 128 285
f 126 285 283
f 127 284 281
f 127 281 118
f 121 282 286
f 121 286 133
f 138 287 288
f 138 288 139
f 138 140 289
f 138 289 287
f 139 288 290
f 139 290 143
f 143 290 285
f 143 285 128
f 133 286 291
f 133 291 150
f 155 292 293
f 155 293 156
f 155 157 294
f 155 294 292
f 156 293 295
f 156 295 160
f 160 295 289
f 160 289 140
f 150 291 296
f 150 296 170
f 175 297 298
f 175 298 176
f 175 177 299
f 175 299 297
f 176 298 300
f 176 300 180
f 180 300 294
f 180 294 157
f 170 296 301
f 170 301 193
f 177 196 302
f 177 302 299
f 193 301 303
f 193 303 210
f 214 213 304
f 214 304 305
f 196 214 305
f 196 305 302
f 213 216 306
f 213 306 304
f 216 218 307
f 216 307 306
f 218 220 308
f 218 308 307
f 220 222 309
f 220 309 308
f 222 224 310
f 222 310 309
f 224 226 311
f 224 311 310
f 226 228 312
f 226 312 311
f 228 230 313
f 228 313 312
f 230 232 314
f 230 314 313
f 232 234 315
f 232 315 314
f 234 236 316
f 234 316 315
f 236 238 317
f 236 317 316
f 238 240 318
f 238 318 317
f 210 303 318
f 210 318 240
f 241 319 320
f 241 320 242
f 241 243 321
f 241 321 319
f 242 320 322
f 242 322 244
f 244 322 323
f 244 323 245
f 245 323 324
f 245 324 246
f 246 324 325
f 246 325 247
f 247 325 326
f 247 326 248
f 248 326 327
f 248 327 249
f 249 327 328
f 249 328 250
f 250 328 329
f 250 329 251
f 251 329 330
f 251 330 252
f 252 330 331
f 252 331 253
f 253 331 332
f 253 332 254
f 254 332 333
f 254 333 255
f 255 333 334
f 255 334 256
f 256 334 335
f 256 335 257
f 259 258 336
f 259 336 337
f 243 259 337
f 243 337 321
f 258 260 338
f 258 338 336
f 260 261 339
f 260 339 338
f 261 262 340
f 261 340 339
f 262 263 341
f 262 341 340
f 257 335 342
f 257 342 264
f 266 265 343
f 266 343 344
f 263 266 344
f 263 344 341
f 265 267 345
f 265 345 343
f 267 268 346
f 267 346 345
f 264 342 347
f 264 347 269
f 271 270 348
f 271 348 349
f 268 271 349
f 268 349 346
f 270 272 350
f 270 350 348
f 269 347 351
f 269 351 273
f 275 274 352
f 275 352 353
f 272 275 353
f 272 353 350
f 273 351 354
f 273 354 276
f 274 277 355
f 274 355 352
f 276 354 356
f 276 356 278
f 277 279 357
f 277 357 355
f 278 356 358
f 278 358 280
f 279 281 359
f 279 359 357
f 280 358 360
f 280 360 282
f 283 361 362
f 283 362 284
f 283 285 363
f 283 363 361
f 284 362 359
f 284 359 281
f 282 360 364
f 282 364 286
f 287 365 366
f 287 366 288
f 287 289 367
f 287 367 365
f 288 366 368
f 288 368 290
f 290 368 363
f 290 363 285
f 286 364 369
f 286 369 291
f 292 370 371
f 292 371 293
f 292 294 372
f 292 372 370
f 293 371 373
f 293 373 295
f 295 373 367
f 295 367 289
f 291 369 374
f 291 374 296
f 297 375 376
f 297 376 298
f 297 299 377
f 297 377 375
f 298 376 378
f 298 378 300
f 300 378 372
f 300 372 294
f 296 374 379
f 296 379 301
f 299 302 380
f 299 380 377
f 301 379 381
f 301 381 303
f 305 304 382
f 305 382 383
f 302 305 383
f 302 383 380
f 304 306 384
f 304 384 382
f 306 307 385
f 306 385 384
f 307 308 386
f 307 386 385
f 308 309 387
f 308 387 386
f 309 310 388
f 309 388 387
f 310 311 389
f 310 389 388
f 311 312 390
f 311 390 389
f 312 313 391
f 312 391 390
f 313 314 392
f 313 392 391
f 314 315 393
f 314 393 392
f 315 316 394
f 315 394 393
f 316 317 395
f 316 395 394
f 317 318 396
f 317 396 395
f 303 381 396
f 303 396 318
f 319 397 398
f 319 398 320
f 319 321 399
f 319 399 397
f 320 398 400
f 320 400 322
f 322 400 401
f 322 401 323
f 323 401 402
f 323 402 324
f 324 402 403
f 324 403 325
f 325 403 404
f 325 404 326
f 326 404 405
f 326 405 327
f 327 405 406
f 327 406 328
f 328 406 407
f 328 407 329
f 329 407 408
f 329 408 330
f 330 408 409
f 330 409 331
f 331 409 410
f 331 410 332
f 332 410 411
f 332 411 333
f 333 411 412
f 333 412 334
f 334 412 413
f 334 413 335
f 337 336 414
f 337 414 415
f 321 337 415
f 321 415 399
f 336 338 416
f 336 416 414
f 338 339 417
f 338 417 416
f 339 340 418
f 339 418 417
f 340 341 419
f 340 419 418
f 335 413 420
f 335 420 342
f 344 343 421
f 344 421 422
f 341 344 422
f 341 422 419
f 343 345 423
f 343 423 421
f 345 346 424
f 345 424 423
f 342 420 425
f 342 425 347
f 349 348 426
f 349 426 427
f 346 349 427
f 346 427 424
f 348 350 428
f 348 428 426
f 347 425 429
f 347 429 351
f 353 352 430
f 353 430 431
f 350 353 431
f 350 431 428
f 351 429 432
f 351 432 354
f 352 355 433
f 352 433 430
f 354 432 434
f 354 434 356
f 355 357 435
f 355 435 433
f 356 434 436
f 356 436 358
f 357 359 437
f 357 437 435
f 358 436 438
f 358 438 360
f 361 439 440
f 361 440 362
f 361 363 441
f 361 441 439
f 362 440 437
f 362 437 359
f 360 438 442
f 360 442 364
f 365 443 444
f 365 444 366
f 365 367 445
f 365 445 443
f 366 444 446
f 366 446 368
f 368 446 441
f 368 441 363
f 364 442 447
f 364 447 369
f 370 448 449
f 370 449 371
f 370 372 450
f 370 450 448
f 371 449 451
f 371 451 373
f 373 451 445
f 373 445 367
f 369 447 452
f 369 452 374
f 375 453 454
f 375 454 376
f 375 377 455
f 375 455 453
f 376 454 456
f 376 456 378
f 378 456 450
f 378 450 372
f 374 452 457
f 374 457 379
f 377 380 458
f 377 458 455
f 379 457 459
f 379 459 381
f 383 382 460
f 383 460 461
f 380 383 461
f 380 461 458
f 382 384 462
f 382 462 460
f 384 385 463
f 384 463 462
f 385 386 464
f 385 464 463
f 386 387 465
f 386 465 464
f 387 388 466
f 387 466 465
f 388 389 467
f 388 467 466
f 389 390 468
f 389 468 467
f 390 391 469
f 390 469 468
f 391 392 470
f 391 470 469
f 392 393 471
f 392 471 470
f 393 394 472
f 393 472 471
f 394 395 473
f 394 473 472
f 395 396 474
f 395 474 473
f 381 459 474
f 381 474 396
f 397 475 476
f 397 476 398
f 397 399 477
f 397 477 475
f 398 476 478
f 398 478 400
f 400 478 479
f 400 479 401
f 401 479 480
f 401 480 402
f 402 480 481
f 402 481 403
f 403 481 482
f 403 482 404
f 404 482 483
f 404 483 405
f 405 483 484
f 405 484 406
f 406 484 485
f 406 485 407
f 407 485 486
f 407 486 408
f 408 486 487
f 408 487 409
f 409 487 488
f 409 488 410
f 410 488 489
f 410 489 411
f 411 489 490
f 411 490 412
f 412 490 491
f 412 491 413
f 415 414 492
f 415 492 493
f 399 415 493
f 399 493 477
f 414 416 494
f 414 494 492
f 416 417 495
f 416 495 494
f 417 418 496
f 417 496 495
f 418 419 497
f 418 497 496
f 413 491 498
f 413 498 420
f 422 421 499
f 422 499 500
f 419 422 500
f 419 500 497
f 421 423 501
f 421 501 499
f 423 424 502
f 423 502 501
f 420 498 503
f 420 503 425
f 427 426 504
f 427 504 505
f 424 427 505
f 424 505 502
f 426 428 506
f 426 506 504
f 425 503 507
f 425 507 429
f 431 430 508
f 431 508 509
f 428 431 509
f 428 509 506
f 429 507 510
f 429 510 432
f 430 433 511
f 430 511 508
f 432 510 512
f 432 512 434
f 433 435 513
f 433 513 511
f 434 512 514
f 434 514 436
f 435 437 515
f 435 515 513
f 436 514 516
f 436 516 438
f 439 517 518
f 439 518 440
f 439 441 519
f 439 519 517
f 440 518 515
f 440 515 437
f 438 516 520
f 438 520 442
f 443 521 522
f 443 522 444
f 443 445 523
f 443 523 521
f 444 522 524
f 444 524 446
f 446 524 519
f 446 519 441
f 442 520 525
f 442 525 447
f 448 526 527
f 448 527 449
f 448 450 528
f 448 528 526
f 449 527 529
f 449 529 451
f 451 529 523
f 451 523 445
f 447 525 530
f 447 530 452
f 453 531 532
f 453 532 454
f 453 455 533
f 453 533 531
f 454 532 534
f 454 534 456
f 456 534 528
f 456 528 450
f 452 530 535
f 452 535 457
f 455 458 536
f 455 536 533
f 457 535 537
f 457 537 459
f 461 460 538
f 461 538 539
f 458 461 539
f 458 539 536
f 460 462 540
f 460 540 538
f 462 463 541
f 462 541 540
f 463 464 542
f 463 542 541
f 464 465 543
f 464 543 542
f 465 466 544
f 465 544 543
f 466 467 545
f 466 545 544
f 467 468 546
f 467 546 545
f 468 469 547
f 468 547 546
f 469 470 548
f 469 548 547
f 470 471 549
f 470 549 548
f 471 472 550
f 471 550 549
f 472 473 551
f 472 551 550
f 473 474 552
f 473 552 551
f 459 537 552
f 459 552 474
f 475 553 554
f 475 554 476
f 475 477 555
f 475 555 553
f 476 554 556
f 476 556 478
f 478 556 557
f 478 557 479
f 479 557 558
f 479 558 480
f 480 558 559
f 480 559 481
f 481 559 560
f 481 560 482
f 482 560 561
f 482 561 483
f 483 561 562
f 483 562 484
f 484 562 563
f 484 563 485
f 485 563 564
f 485 564 486
f 486 564 565
f 486 565 487
f 487 565 566
f 487 566 488
f 488 566 567
f 488 567 489
f 489 567 568
f 489 568 490
f 490 568 569
f 490 569 491
f 493 492 570
f 493 570 571
f 477 493 571
f 477 571 555
f 492 494 572
f 492 572 570
f 494 495 573
f 494 573 572
f 495 496 574
f 495 574 573
f 496 497 575
f 496 575 574
f 491 569 576
f 491 576 498
f 500 499 577
f 500 577 578
f 497 500 578
f 497 578 575
f 499 501 579
f 499 579 577
f 501 502 580
f 501 580 579
f 498 576 581
f 498 581 503
f 505 504 582
f 505 582 583
f 502 505 583
f 502 583 580
f 504 506 584
f 504 584 582
f 503 581 585
f 503 585 507
f 509 508 586
f 509 586 587
f 506 509 587
f 506 587 584
f 507 585 588
f 507 588 510
f 508 511 589
f 508 589 586
f 510 588 590
f 510 590 512
f 511 513 591
f 511 591 589
f 512 590 592
f 512 592 514
f 513 515 593
f 513 593 591
f 514 592 594
f 514 594 516
f 517 595 596
f 517 596 518
f 517 519 597
f 517 597 595
f 518 596 593
f 518 593 515
f 516 594 598
f 516 598 520
f 521 599 600
f 521 600 522
f 521 523 601
f 521 601 599
f 522 600 602
f 522 602 524
f 524 602 597
f 524 597 519
f 520 598 603
f 520 603 525
f 526 604 605
f 526 605 527
f 526 528 606
f 526 606 604
f 527 605 607
f 527 607 529
f 529 607 601
f 529 601 523
f 525 603 608
f 525 608 530
f 531 609 610
f 531 610 532
f 531 533 611
f 531 611 609
f 532 610 612
f 532 612 534
f 534 612 606
f 534 606 528
f 530 608 613
f 530 613 535
f 533 536 614
f 533 614 611
f 535 613 615
f 535 615 537
f 539 538 616
f 539 616 617
f 536 539 617
f 536 617 614
f 538 540 618
f 538 618 616
f 540 541 619
f 540 619 618
f 541 542 620
f 541 620 619
f 542 543 621
f 542 621 620
f 543 544 622
f 543 622 621
f 544 545 623
f 544 623 622
f 545 546 624
f 545 624 623
f 546 547 625
f 546 625 624
f 547 548 626
f 547 626 625
f 548 549 627
f 548 627 626
f 549 550 628
f 549 628 627
f 550 551 629
f 550 629 628
f 551 552 630
f 551 630 629
f 537 615 630
f 537 630 552
f 553 631 632
f 553 632 554
f 553 555 633
f 553 633 631
f 554 632 634
f 554 634 556
f 556 634 635
f 556 635 557
f 557 635 636
f 557 636 558
f 558 636 637
f 558 637 559
f 559 637 638
f 559 638 560
f 560 638 639
f 560 639 561
f 561 639 640
f 561 640 562
f 562 640 641
f 562 641 563
f 563 641 642
f 563 642 564
f 564 642 643
f 564 643 565
f 565 643 644
f 565 644 566
f 566 644 645
f 566 645 567
f 567 645 646
f 567 646 568
f 568 646 647
f 568 647 569
f 571 570 648
f 571 648 649
f 555 571 649
f 555 649 633
f 570 572 650
f 570 650 648
f 572 573 651
f 572 651 650
f 573 574 652
f 573 652 651
f 574 575 653
f 574 653 652
f 569 647 654
f 569 654 576
f 578 577 655
f 578 655 656
f 575 578 656
f 575 656 653
f 577 579 657
f 577 657 655
f 579 580 658
f 579 658 657
f 576 654 659
f 576 659 581
f 583 582 660
f 583 660 661
f 580 583 661
f 580 661 658
f 582 584 662
f 582 662 660
f 581 659 663
f 581 663 585
f 587 586 664
f 587 664 665
f 584 587 665
f 584 665 662
f 585 663 666
f 585 666 588
f 586 589 667
f 586 667 664
f 588 666 668
f 588 668 590
f 589 591 669
f 589 669 667
f 590 668 670
f 590 670 592
f 591 593 671
f 591 671 669
f 592 670 672
f 592 672 594
f 595 673 674
f 595 674 596
f 595 597 675
f 595 675 673
f 596 674 671
f 596 671 593
f 594 672 676
f 594 676 598
f 599 677 678
f 599 678 600
f 599 601 679
f 599 679 677
f 600 678 680
f 600 680 602
f 602 680 675
f 602 675 597
f 598 676 681
f 598 681 603
f 604 682 683
f 604 683 605
f 604 606 684
f 604 684 682
f 605 683 685
f 605 685 607
f 607 685 679
f 607 679 601
f 603 681 686
f 603 686 608
f 609 687 688
f 609 688 610
f 609 611 689
f 609 689 687
f 610 688 690
f 610 690 612
f 612 690 684
f 612 684 606
f 608 686 691
f 608 691 613
f 611 614 692
f 611 692 689
f 613 691 693
f 613 693 615
f 617 616 694
f 617 694 695
f 614 617 695
f 614 695 692
f 616 618 696
f 616 696 694
f 618 619 697
f 618 697 696
f 619 620 698
f 619 698 697
f 620 621 699
f 620 699 698
f 621 622 700
f 621 700 699
f 622 623 701
f 622 701 700
f 623 624 702
f 623 702 701
f 624 625 703
f 624 703 702
f 625 626 704
f 625 704 703
f 626 627 705
f 626 705 704
f 627 628 706
f 627 706 705
f 628 629 707
f 628 707 706
f 629 630 708
f 629 708 707
f 615 693 708
f 615 708 630
f 631 709 710
f 631 710 632
f 631 633 711
f 631 711 709
f 632 710 712
f 632 712 634
f 634 712 713
f 634 713 635
f 635 713 714
f 635 714 636
f 636 714 715
f 636 715 637
f 637 715 716
f 637 716 638
f 638 716 717
f 638 717 639
f 639 717 718
f 639 718 640
f 640 718 719
f 640 719 641
f 641 719 720
f 641 720 642
f 642 720 721
f 642 721 643
f 643 721 722
f 643 722 644
f 644 722 723
f 644 723 645
f 645 723 724
f 645 724 646
f 646 724 725
f 646 725 647
f 649 648 726
f 649 726 727
f 633 649 727
f 633 727 711
f 648 650 728
f 648 728 726
f 650 651 729
f 650 729 728
f 651 652 730
f 651 730 729
f 652 653 731
f 652 731 730
f 647 725 732
f 647 732 654
f 656 655 733
f 656 733 734
f 653 656 734
f 653 734 731
f 655 657 735
f 655 735 733
f 657 658 736
f 657 736 735
f 654 732 737
f 654 737 659
f 661 660 738
f 661 738 739
f 658 661 739
f 658 739 736
f 660 662 740
f 660 740 738
f 659 737 741
f 659 741 663
f 665 664 742
f 665 742 743
f 662 665 743
f 662 743 740
f 663 741 744
f 663 744 666
f 664 667 745
f 664 745 742
f 666 744 746
f 666 746 668
f 667 669 747
f 667 747 745
f 668 746 748
f 668 748 670
f 669 671 749
f 669 749 747
f 670 748 750
f 670 750 672
f 673 751 752
f 673 752 674
f 673 675 753
f 673 753 751
f 674 752 749
f 674 749 671
f 672 750 754
f 672 754 676
f 677 755 756
f 677 756 678
f 677 679 757
f 677 757 755
f 678 756 758
f 678 758 680
f 680 758 753
f 680 753 675
f 676 754 759
f 676 759 681
f 682 760 761
f 682 761 683
f 682 684 762
f 682 762 760
f 683 761 763
f 683 763 685
f 685 763 757
f 685 757 679
f 681 759 764
f 681 764 686
f 687 765 766
f 687 766 688
f 687 689 767
f 687 767 765
f 688 766 768
f 688 768 690
f 690 768 762
f 690 762 684
f 686 764 769
f 686 769 691
f 689 692 770
f 689 770 767
f 691 769 771
f 691 771 693
f 695 694 772
f 695 772 773
f 692 695 773
f 692 773 770
f 694 696 774
f 694 774 772
f 696 697 775
f 696 775 774
f 697 698 776
f 697 776 775
f 698 699 777
f 698 777 776
f 699 700 778
f 699 778 777
f 700 701 779
f 700 779 778
f 701 702 780
f 701 780 779
f 702 703 781
f 702 781 780
f 703 704 782
f 703 782 781
f 704 705 783
f 704 783 782
f 705 706 784
f 705 784 783
f 706 707 785
f 706 785 784
f 707 708 786
f 707 786 785
f 693 771 786
f 693 786 708
f 709 787 788
f 709 788 710
f 709 711 789
f 709 789 787
f 710 788 790
f 710 790 712
f 712 790 791
f 712 791 713
f 713 791 792
f 713 792 714
f 714 792 793
f 714 793 715
f 715 793 794
f 715 794 716
f 716 794 795
f 716 795 717
f 717 795 796
f 717 796 718
f 718 796 797
f 718 797 719
f 719 797 798
f 719 798 720
f 720 798 799
f 720 799 721
f 721 799 800
f 721 800 722
f 722 800 801
f 722 801 723
f 723 801 802
f 723 802 724
f 724 802 803
f 724 803 725
f 727 726 804
f 727 804 805
f 711 727 805
f 711 805 789
f 726 728 806
f 726 806 804
f 728 729 807
f 728 807 806
f 729 730 808
f 729 808 807
f 730 731 809
f 730 809 808
f 725 803 810
f 725 810 732
f 734 733 811
f 734 811 812
f 731 734 812
f 731 812 809
f 733 735 813
f 733 813 811
f 735 736 814
f 735 814 813
f 732 810 815
f 732 815 737
f 739 738 816
f 739 816 817
f 736 739 817
f 736 817 814
f 738 740 818
f 738 818 816
f 737 815 819
f 737 819 741
f 743 742 820
f 743 820 821
f 740 743 821
f 740 821 818
f 741 819 822
f 741 822 744
f 742 745 823
f 742 823 820
f 744 822 824
f 744 824 746
f 745 747 825
f 745 825 823
f 746 824 826
f 746 826 748
f 747 749 827
f 747 827 825
f 748 826 828
f 748 828 750
f 751 829 830
f 751 830 752
f 751 753 831
f 751 831 829
f 752 830 827
f 752 827 749
f 750 828 832
f 750 832 754
f 755 833 834
f 755 834 756
f 755 757 835
f 755 835 833
f 756 834 836
f 756 836 758
f 758 836 831
f 758 831 753
f 754 832 837
f 754 837 759
f 760 838 839
f 760 839 761
f 760 762 840
f 760 840 838
f 761 839 841
f 761 841 763
f 763 841 835
f 763 835 757
f 759 837 842
f 759 842 764
f 765 843 844
f 765 844 766
f 765 767 845
f 765 845 843
f 766 844 846
f 766 846 768
f 768 846 840
f 768 840 762
f 764 842 847
f 764 847 769
f 767 770 848
f 767 848 845
f 769 847 849
f 769 849 771
f 773 772 850
f 773 850 851
f 770 773 851
f 770 851 848
f 772 774 852
f 772 852 850
f 774 775 853
f 774 853 852
f 775 776 854
f 775 854 853
f 776 777 855
f 776 855 854
f 777 778 856
f 777 856 855
f 778 779 857
f 778 857 856
f 779 780 858
f 779 858 857
f 780 781 859
f 780 859 858
f 781 782 860
f 781 860 859
f 782 783 861
f 782 861 860
f 783 784 862
f 783 862 861
f 784 785 863
f 784 863 862
f 785 786 864
f 785 864 863
f 771 849 864
f 771 864 786
f 787 865 866
f 787 866 788
f 787 789 867
f 787 867 865
f 788 866 868
f 788 868 790
f 790 868 869
f 790 869 791
f 791 869 870
f 791 870 792
f 792 870 871
f 792 871 793
f 793 871 872
f 793 872 794
f 794 872 873
f 794 873 795
f 795 873 874
f 795 874 796
f 796 874 875
f 796 875 797
f 797 875 876
f 797 876 798
f 798 876 877
f 798 877 799
f 799 877 878
f 799 878 800
f 800 878 879
f 800 879 801
f 801 879 880
f 801 880 802
f 802 880 881
f 802 881 803
f 805 804 882
f 805 882 883
f 789 805 883
f 789 883 867
f 804 806 884
f 804 884 882
f 806 807 885
f 806 885 884
f 807 808 886
f 807 886 885
f 808 809 887
f 808 887 886
f 803 881 888
f 803 888 810
f 812 811 889
f 812 889 890
f 809 812 890
f 809 890 887
f 811 813 891
f 811 891 889
f 813 814 892
f 813 892 891
f 810 888 893
f 810 893 815
f 817 816 894
f 817 894 895
f 814 817 895
f 814 895 892
f 816 818 896
f 816 896 894
f 815 893 897
f 815 897 819
f 821 820 898
f 821 898 899
f 818 821 899
f 818 899 896
f 819 897 900
f 819 900 822
f 820 823 901
f 820 901 898
f 822 900 902
f 822 902 824
f 823 825 903
f 823 903 901
f 824 902 904
f 824 904 826
f 825 827 905
f 825 905 903
f 826 904 906
f 826 906 828
f 829 907 908
f 829 908 830
f 829 831 909
f 829 909 907
f 830 908 905
f 830 905 827
f 828 906 910
f 828 910 832
f 833 911 912
f 833 912 834
f 833 835 913
f 833 913 911
f 834 912 914
f 834 914 836
f 836 914 909
f 836 909 831
f 832 910 915
f 832 915 837
f 838 916 917
f 838 917 839
f 838 840 918
f 838 918 916
f 839 917 919
f 839 919 841
f 841 919 913
f 841 913 835
f 837 915 920
f 837 920 842
f 843 921 922
f 843 922 844
f 843 845 923
f 843 923 921
f 844 922 924
f 844 924 846
f 846 924 918
f 846 918 840
f 842 920 925
f 842 925 847
f 845 848 926
f 845 926 923
f 847 925 927
f 847 927 849
f 851 850 928
f 851 928 929
f 848 851 929
f 848 929 926
f 850 852 930
f 850 930 928
f 852 853 931
f 852 931 930
f 853 854 932
f 853 932 931
f 854 855 933
f 854 933 932
f 855 856 934
f 855 934 933
f 856 857 935
f 856 935 934
f 857 858 936
f 857 936 935
f 858 859 937
f 858 937 936
f 859 860 938
f 859 938 937
f 860 861 939
f 860 939 938
f 861 862 940
f 861 940 939
f 862 863 941
f 862 941 940
f 863 864 942
f 863 942 941
f 849 927 942
f 849 942 864
f 865 943 944
f 865 944 866
f 865 867 945
f 865 945 943
f 866 944 946
f 866 946 868
f 868 946 947
f 868 947 869
f 869 947 948
f 869 948 870
f 870 948 949
f 870 949 871
f 871 949 950
f 871 950 872
f 872 950 951
f 872 951 873
f 873 951 952
f 873 952 874
f 874 952 953
f 874 953 875
f 875 953 954
f 875 954 876
f 876 954 955
f 876 955 877
f 877 955 956
f 877 956 878
f 878 956 957
f 878 957 879
f 879 957 958
f 879 958 880
f 880 958 959
f 880 959 881
f 883 882 960
f 883 960 961
f 867 883 961
f 867 961 945
f 882 884 962
f 882 962 960
f 884 885 963
f 884 963 962
f 885 886 964
f 885 964 963
f 886 887 965
f 886 965 964
f 881 959 966
f 881 966 888
f 890 889 967
f 890 967 968
f 887 890 968
f 887 968 965
f 889 891 969
f 889 969 967
f 891 892 970
f 891 970 969
f 888 966 971
f 888 971 893
f 895 894 972
f 895 972 973
f 892 895 973
f 892 973 970
f 894 896 974
f 894 974 972
f 893 971 975
f 893 975 897
f 899 898 976
f 899 976 977
f 896 899 977
f 896 977 974
f 897 975 978
f 897 978 900
f 898 901 979
f 898 979 976
f 900 978 980
f 900 980 902
f 901 903 981
f 901 981 979
f 902 980 982
f 902 982 904
f 903 905 983
f 903 983 981
f 904 982 984
f 904 984 906
f 907 985 986
f 907 986 908
f 907 909 987
f 907 987 985
f 908 986 983
f 908 983 905
f 906 984 988
f 906 988 910
f 911 989 990
f 911 990 912
f 911 913 991
f 911 991 989
f 912 990 992
f 912 992 914
f 914 992 987
f 914 987 909
f 910 988 993
f 910 993 915
f 916 994 995
f 916 995 917
f 916 918 996
f 916 996 994
f 917 995 997
f 917 997 919
f 919 997 991
f 919 991 913
f 915 993 998
f 915 998 920
f 921 999 1000
f 921 1000 922
f 921 923 1001
f 921 1001 999
f 922 1000 1002
f 922 1002 924
f 924 1002 996
f 924 996 918
f 920 998 1003
f 920 1003 925
f 923 926 1004
f 923 1004 1001
f 925 1003 1005
f 925 1005 927
f 929 928 1006
f 929 1006 1007
f 926 929 1007
f 926 1007 1004
f 928 930 1008
f 928 1008 1006
f 930 931 1009
f 930 1009 1008
f 931 932 1010
f 931 1010 1009
f 932 933 1011
f 932 1011 1010
f 933 934 1012
f 933 1012 1011
f 934 935 1013
f 934 1013 1012
f 935 936 1014
f 935 1014 1013
f 936 937 1015
f 936 1015 1014
f 937 938 1016
f 937 1016 1015
f 938 939 1017
f 938 1017 1016
f 939 940 1018
f 939 1018 1017
f 940 941 1019
f 940 1019 1018
f 941 942 1020
f 941 1020 1019
f 927 1005 1020
f 927 1020 942
f 943 1021 1022
f 943 1022 944
f 943 945 1023
f 943 1023 1021
f 944 1022 1024
f 944 1024 946
f 946 1024 1025
f 946 1025 947
f 947 1025 1026
f 947 1026 948
f 948 1026 1027
f 948 1027 949
f 949 1027 1028
f 949 1028 950
f 950 1028 1029
f 950 1029 951
f 951 1029 1030
f 951 1030 952
f 952 1030 1031
f 952 1031 953
f 953 1031 1032
f 953 1032 954
f 954 1032 1033
f 954 1033 955
f 955 1033 1034
f 955 1034 956
f 956 1034 1035
f 956 1035 957
f 957 1035 1036
f 957 1036 958
f 958 1036 1037
f 958 1037 959
f 961 960 1038
f 961 1038 1039
f 945 961 1039
f 945 1039 1023
f 960 962 1040
f 960 1040 1038
f 962 963 1041
f 962 1041 1040
f 963 964 1042
f 963 1042 1041
f 964 965 1043
f 964 1043 1042
f 959 1037 1044
f 959 1044 966
f 968 967 1045
f 968 1045 1046
f 965 968 1046
f 965 1046 1043
f 967 969 1047
f 967 1047 1045
f 969 970 1048
f 969 1048 1047
f 966 1044 1049
f 966 1049 971
f 973 972 1050
f 973 1050 1051
f 970 973 1051
f 970 1051 1048
f 972 974 1052
f 972 1052 1050
f 971 1049 1053
f 971 1053 975
f 977 976 1054
f 977 1054 1055
f 974 977 1055
f 974 1055 1052
f 975 1053 1056
f 975 1056 978
f 976 979 1057
f 976 1057 1054
f 978 1056 1058
f 978 1058 980
f 979 981 1059
f 979 1059 1057
f 980 1058 1060
f 980 1060 982
f 981 983 1061
f 981 1061 1059
f 982 1060 1062
f 982 1062 984
f 985 1063 1064
f 985 1064 986
f 985 987 1065
f 985 1065 1063
f 986 1064 1061
f 986 1061 983
f 984 1062 1066
f 984 1066 988
f 989 1067 1068
f 989 1068 990
f 989 991 1069
f 989 1069 1067
f 990 1068 1070
f 990 1070 992
f 992 1070 1065
f 992 1065 987
f 988 1066 1071
f 988 1071 993
f 994 1072 1073
f 994 1073 995
f 994 996 1074
f 994 1074 1072
f 995 1073 1075
f 995 1075 997
f 997 1075 1069
f 997 1069 991
f 993 1071 1076
f 993 1076 998
f 999 1077 1078
f 999 1078 1000
f 999 1001 1079
f 999 1079 1077
f 1000 1078 1080
f 1000 1080 1002
f 1002 1080 1074
f 1002 1074 996
f 998 1076 1081
f 998 1081 1003
f 1001 1004 1082
f 1001 1082 1079
f 1003 1081 1083
f 1003 1083 1005
f 1007 1006 1084
f 1007 1084 1085
f 1004 1007 1085
f 1004 1085 1082
f 1006 1008 1086
f 1006 1086 1084
f 1008 1009 1087
f 1008 1087 1086
f 1009 1010 1088
f 1009 1088 1087
f 1010 1011 1089
f 1010 1089 1088
f 1011 1012 1090
f 1011 1090 1089
f 1012 1013 1091
f 1012 1091 1090
f 1013 1014 1092
f 1013 1092 1091
f 1014 1015 1093
f 1014 1093 1092
f 1015 1016 1094
f 1015 1094 1093
f 1016 1017 1095
f 1016 1095 1094
f 1017 1018 1096
f 1017 1096 1095
f 1018 1019 1097
f 1018 1097 1096
f 1019 1020 1098
f 1019 1098 1097
f 1005 1083 1098
f 1005 1098 1020
f 1021 1099 1100
f 1021 1100 1022
f 1021 1023 1101
f 1021 1101 1099
f 1022 1100 1102
f 1022 1102 1024
f 1024 1102 1103
f 1024 1103 1025
f 1025 1103 1104
f 1025 1104 1026
f 1026 1104 1105
f 1026 1105 1027
f 1027 1105 1106
f 1027 1106 1028
f 1028 1106 1107
f 1028 1107 1029
f 1029 1107 1108
f 1029 1108 1030
f 1030 1108 1109
f 1030 1109 1031
f 1031 1109 1110
f 1031 1110 1032
f 1032 1110 1111
f 1032 1111 1033
f 1033 1111 1112
f 1033 1112 1034
f 1034 1112 1113
f 1034 1113 1035
f 1035 1113 1114
f 1035 1114 1036
f 1036 1114 1115
f 1036 1115 1037
f 1039 1038 1116
f 1039 1116 1117
f 1023 1039 1117
f 1023 1117 1101
f 1038 1040 1118
f 1038 1118 1116
f 1040 1041 1119
f 1040 1119 1118
f 1041 1042 1120
f 1041 1120 1119
f 1042 1043 1121
f 1042 1121 1120
f 1037 1115 1122
f 1037 1122 1044
f 1046 1045 1123
f 1046 1123 1124
f 1043 1046 1124
f 1043 1124 1121
f 1045 1047 1125
f 1045 1125 1123
f 1047 1048 1126
f 1047 1126 1125
f 1044 1122 1127
f 1044 1127 1049
f 1051 1050 1128
f 1051 1128 1129
f 1048 1051 1129
f 1048 1129 1126
f 1050 1052 1130
f 1050 1130 1128
f 1049 1127 1131
f 1049 1131 1053
f 1055 1054 1132
f 1055 1132 1133
f 1052 1055 1133
f 1052 1133 1130
f 1053 1131 1134
f 1053 1134 1056
f 1054 1057 1135
f 1054 1135 1132
f 1056 1134 1136
f 1056 1136 1058
f 1057 1059 1137
f 1057 1137 1135
f 1058 1136 1138
f 1058 1138 1060
f 1059 1061 1139
f 1059 1139 1137
f 1060 1138 1140
f 1060 1140 1062
f 1063 1141 1142
f 1063 1142 1064
f 1063 1065 1143
f 1063 1143 1141
f 1064 1142 1139
f 1064 1139 1061
f 1062 1140 1144
f 1062 1144 1066
f 1067 1145 1146
f 1067 1146 1068
f 1067 1069 1147
f 1067 1147 1145
f 1068 1146 1148
f 1068 1148 1070
f 1070 1148 1143
f 1070 1143 1065
f 1066 1144 1149
f 1066 1149 1071
f 1072 1150 1151
f 1072 1151 1073
f 1072 1074 1152
f 1072 1152 1150
f 1073 1151 1153
f 1073 1153 1075
f 1075 1153 1147
f 1075 1147 1069
f 1071 1149 1154
f 1071 1154 1076
f 1077 1155 1156
f 1077 1156 1078
f 1077 1079 1157
f 1077 1157 1155
f 1078 1156 1158
f 1078 1158 1080
f 1080 1158 1152
f 1080 1152 1074
f 1076 1154 1159
f 1076 1159 1081
f 1079 1082 1160
f 1079 1160 1157
f 1081 1159 1161
f 1081 1161 1083
f 1085 1084 1162
f 1085 1162 1163
f 1082 1085 1163
f 1082 1163 1160
f 1084 1086 1164
f 1084 1164 1162
f 1086 1087 1165
f 1086 1165 1164
f 1087 1088 1166
f 1087 1166 1165
f 1088 1089 1167
f 1088 1167 1166
f 1089 1090 1168
f 1089 1168 1167
f 1090 1091 1169
f 1090 1169 1168
f 1091 1092 1170
f 1091 1170 1169
f 1092 1093 1171
f 1092 1171 1170
f 1093 1094 1172
f 1093 1172 1171
f 1094 1095 1173
f 1094 1173 1172
f 1095 1096 1174
f 1095 1174 1173
f 1096 1097 1175
f 1096 1175 1174
f 1097 1098 1176
f 1097 1176 1175
f 1083 1161 1176
f 1083 1176 1098
f 1177 1178 1179
f 1177 1179 1180
f 1099 1177 1178
f 1099 1178 1100
f 1099 1101 1180
f 1099 1180 1177
f 1178 1181 1182
f 1178 1182 1179
f 1100 1178 1181
f 1100 1181 1102
f 1181 1183 1184
f 1181 1184 1182
f 1102 1181 1183
f 1102 1183 1103
f 1183 1185 1186
f 1183 1186 1184
f 1103 1183 1185
f 1103 1185 1104
f 1185 1187 1188
f 1185 1188 1186
f 1104 1185 1187
f 1104 1187 1105
f 1187 1189 1190
f 1187 1190 1188
f 1105 1187 1189
f 1105 1189 1106
f 1189 1191 1192
f 1189 1192 1190
f 1106 1189 1191
f 1106 1191 1107
f 1191 1193 1194
f 1191 1194 1192
f 1107 1191 1193
f 1107 1193 1108
f 1193 1195 1196
f 1193 1196 1194
f 1108 1193 1195
f 1108 1195 1109
f 1195 1197 1198
f 1195 1198 1196
f 1109 1195 1197
f 1109 1197 1110
f 1197 1199 1200
f 1197 1200 1198
f 1110 1197 1199
f 1110 1199 1111
f 1199 1201 1202
f 1199 1202 1200
f 1111 1199 1201
f 1111 1201 1112
f 1201 1203 1204
f 1201 1204 1202
f 1112 1201 1203
f 1112 1203 1113
f 1203 1205 1206
f 1203 1206 1204
f 1113 1203 1205
f 1113 1205 1114
f 1114 1205 1206
f 1114 1206 1115
f 1180 1179 1207
f 1180 1207 1208
f 1117 1116 1207
f 1117 1207 1208
f 1101 1117 1208
f 1101 1208 1180
f 1179 1182 1209
f 1179 1209 1207
f 1116 1118 1209
f 1116 1209 1207
f 1182 1184 1210
f 1182 1210 1209
f 1118 1119 1210
f 1118 1210 1209
f 1184 1186 1211
f 1184 1211 1210
f 1119 1120 1211
f 1119 1211 1210
f 1186 1188 1212
f 1186 1212 1211
f 1120 1121 1212
f 1120 1212 1211
f 1188 1190 1213
f 1188 1213 1212
f 1190 1192 1214
f 1190 1214 1213
f 1192 1194 1215
f 1192 1215 1214
f 1194 1196 1216
f 1194 1216 1215
f 1196 1198 1217
f 1196 1217 1216
f 1198 1200 1218
f 1198 1218 1217
f 1200 1202 1219
f 1200 1219 1218
f 1202 1204 1220
f 1202 1220 1219
f 1204 1206 1221
f 1204 1221 1220
f 1115 1206 1221
f 1115 1221 1122
f 1212 1213 1222
f 1212 1222 1223
f 1124 1123 1222
f 1124 1222 1223
f 1121 1124 1223
f 1121 1223 1212
f 1213 1214 1224
f 1213 1224 1222
f 1123 1125 1224
f 1123 1224 1222
f 1214 1215 1225
f 1214 1225 1224
f 1125 1126 1225
f 1125 1225 1224
f 1215 1216 1226
f 1215 1226 1225
f 1216 1217 1227
f 1216 1227 1226
f 1217 1218 1228
f 1217 1228 1227
f 1218 1219 1229
f 1218 1229 1228
f 1219 1220 1230
f 1219 1230 1229
f 1220 1221 1231
f 1220 1231 1230
f 1122 1221 1231
f 1122 1231 1127
f 1225 1226 1232
f 1225 1232 1233
f 1129 1128 1232
f 1129 1232 1233
f 1126 1129 1233
f 1126 1233 1225
f 1226 1227 1234
f 1226 1234 1232
f 1128 1130 1234
f 1128 1234 1232
f 1227 1228 1235
f 1227 1235 1234
f 1228 1229 1236
f 1228 1236 1235
f 1229 1230 1237
f 1229 1237 1236
f 1230 1231 1238
f 1230 1238 1237
f 1127 1231 1238
f 1127 1238 1131
f 1234 1235 1239
f 1234 1239 1240
f 1133 1132 1239
f 1133 1239 1240
f 1130 1133 1240
f 1130 1240 1234
f 1235 1236 1241
f 1235 1241 1239
f 1236 1237 1242
f 1236 1242 1241
f 1237 1238 1243
f 1237 1243 1242
f 1131 1238 1243
f 1131 1243 1134
f 1239 1241 1244
f 1239 1244 1245
f 1132 1135 1245
f 1132 1245 1239
f 1241 1242 1246
f 1241 1246 1244
f 1242 1243 1247
f 1242 1247 1246
f 1134 1243 1247
f 1134 1247 1136
f 1245 1244 1248
f 1245 1248 1249
f 1135 1137 1249
f 1135 1249 1245
f 1244 1246 1250
f 1244 1250 1248
f 1246 1247 1251
f 1246 1251 1250
f 1136 1247 1251
f 1136 1251 1138
f 1249 1248 1252
f 1249 1252 1253
f 1137 1139 1253
f 1137 1253 1249
f 1248 1250 1254
f 1248 1254 1252
f 1250 1251 1255
f 1250 1255 1254
f 1138 1251 1255
f 1138 1255 1140
f 1256 1257 1258
f 1256 1258 1259
f 1141 1256 1257
f 1141 1257 1142
f 1141 1143 1259
f 1141 1259 1256
f 1257 1253 1260
f 1257 1260 1258
f 1142 1257 1253
f 1142 1253 1139
f 1253 1252 1261
f 1253 1261 1260
f 1252 1254 1262
f 1252 1262 1261
f 1254 1255 1263
f 1254 1263 1262
f 1140 1255 1263
f 1140 1263 1144
f 1264 1265 1266
f 1264 1266 1267
f 1145 1264 1265
f 1145 1265 1146
f 1145 1147 1267
f 1145 1267 1264
f 1265 1268 1269
f 1265 1269 1266
f 1146 1265 1268
f 1146 1268 1148
f 1268 1259 1270
f 1268 1270 1269
f 1148 1268 1259
f 1148 1259 1143
f 1259 1258 1271
f 1259 1271 1270
f 1258 1260 1272
f 1258 1272 1271
f 1260 1261 1273
f 1260 1273 1272
f 1261 1262 1274
f 1261 1274 1273
f 1262 1263 1275
f 1262 1275 1274
f 1144 1263 1275
f 1144 1275 1149
f 1276 1277 1278
f 1276 1278 1279
f 1150 1276 1277
f 1150 1277 1151
f 1150 1152 1279
f 1150 1279 1276
f 1277 1280 1281
f 1277 1281 1278
f 1151 1277 1280
f 1151 1280 1153
f 1280 1267 1282
f 1280 1282 1281
f 1153 1280 1267
f 1153 1267 1147
f 1267 1266 1283
f 1267 1283 1282
f 1266 1269 1284
f 1266 1284 1283
f 1269 1270 1285
f 1269 1285 1284
f 1270 1271 1286
f 1270 1286 1285
f 1271 1272 1287
f 1271 1287 1286
f 1272 1273 1288
f 1272 1288 1287
f 1273 1274 1289
f 1273 1289 1288
f 1274 1275 1290
f 1274 1290 1289
f 1149 1275 1290
f 1149 1290 1154
f 1291 1292 1293
f 1291 1293 1294
f 1155 1291 1292
f 1155 1292 1156
f 1155 1157 1294
f 1155 1294 1291
f 1292 1295 1296
f 1292 1296 1293
f 1156 1292 1295
f 1156 1295 1158
f 1295 1279 1297
f 1295 1297 1296
f 1158 1295 1279
f 1158 1279 1152
f 1279 1278 1298
f 1279 1298 1297
f 1278 1281 1299
f 1278 1299 1298
f 1281 1282 1300
f 1281 1300 1299
f 1282 1283 1301
f 1282 1301 1300
f 1283 1284 1302
f 1283 1302 1301
f 1284 1285 1303
f 1284 1303 1302
f 1285 1286 1304
f 1285 1304 1303
f 1286 1287 1305
f 1286 1305 1304
f 1287 1288 1306
f 1287 1306 1305
f 1288 1289 1307
f 1288 1307 1306
f 1289 1290 1308
f 1289 1308 1307
f 1154 1290 1308
f 1154 1308 1159
f 1294 1293 1309
f 1294 1309 1310
f 1157 1160 1310
f 1157 1310 1294
f 1293 1296 1311
f 1293 1311 1309
f 1296 1297 1312
f 1296 1312 1311
f 1297 1298 1313
f 1297 1313 1312
f 1298 1299 1314
f 1298 1314 1313
f 1299 1300 1315
f 1299 1315 1314
f 1300 1301 1316
f 1300 1316 1315
f 1301 1302 1317
f 1301 1317 1316
f 1302 1303 1318
f 1302 1318 1317
f 1303 1304 1319
f 1303 1319 1318
f 1304 1305 1320
f 1304 1320 1319
f 1305 1306 1321
f 1305 1321 1320
f 1306 1307 1322
f 1306 1322 1321
f 1307 1308 1323
f 1307 1323 1322
f 1159 1308 1323
f 1159 1323 1161
f 1310 1309 1324
f 1310 1324 1325
f 1163 1162 1324
f 1163 1324 1325
f 1160 1163 1325
f 1160 1325 1310
f 1309 1311 1326
f 1309 1326 1324
f 1162 1164 1326
f 1162 1326 1324
f 1311 1312 1327
f 1311 1327 1326
f 1164 1165 1327
f 1164 1327 1326
f 1312 1313 1328
f 1312 1328 1327
f 1165 1166 1328
f 1165 1328 1327
f 1313 1314 1329
f 1313 1329 1328
f 1166 1167 1329
f 1166 1329 1328
f 1314 1315 1330
f 1314 1330 1329
f 1167 1168 1330
f 1167 1330 1329
f 1315 1316 1331
f 1315 1331 1330
f 1168 1169 1331
f 1168 1331 1330
f 1316 1317 1332
f 1316 1332 1331
f 1169 1170 1332
f 1169 1332 1331
f 1317 1318 1333
f 1317 1333 1332
f 1170 1171 1333
f 1170 1333 1332
f 1318 1319 1334
f 1318 1334 1333
f 1171 1172 1334
f 1171 1334 1333
f 1319 1320 1335
f 1319 1335 1334
f 1172 1173 1335
f 1172 1335 1334
f 1320 1321 1336
f 1320 1336 1335
f 1173 1174 1336
f 1173 1336 1335
f 1321 1322 1337
f 1321 1337 1336
f 1174 1175 1337
f 1174 1337 1336
f 1322 1323 1338
f 1322 1338 1337
f 1175 1176 1338
f 1175 1338 1337
f 1161 1323 1338
f 1161 1338 1176
