o [4B] 3D Diagram - S2-06 Group A_354
v -18.427500 16.256750 149.220000
v -18.427500 16.641500 149.220000
v -18.427500 16.641500 150.165000
v -18.427500 16.256750 150.165000
v -15.795000 16.256750 149.220000
v -15.795000 16.256750 150.165000
v -15.795000 16.641500 150.165000
v -15.795000 16.641500 149.220000
v -18.427500 16.641500 151.110000
v -18.427500 16.256750 151.110000
v -15.795000 16.256750 151.110000
v -15.795000 16.641500 151.110000
v -18.427500 16.641500 152.055000
v -18.427500 16.256750 152.055000
v -15.795000 16.256750 152.055000
v -15.795000 16.641500 152.055000
v -18.427500 16.641500 153.000000
v -18.427500 16.256750 153.000000
v -15.795000 16.256750 153.000000
v -18.427500 16.641500 153.945000
v -18.427500 16.256750 153.945000
v -15.795000 16.256750 153.945000
v -18.427500 16.641500 154.890000
v -18.427500 16.256750 154.890000
v -15.795000 16.256750 154.890000
v -18.427500 16.641500 155.835000
v -18.427500 16.256750 155.835000
v -15.795000 16.256750 155.835000
v -18.427500 16.641500 156.780000
v -18.427500 16.256750 156.780000
v -15.795000 16.256750 156.780000
v -18.427500 16.641500 157.725000
v -18.427500 16.256750 157.725000
v -15.795000 16.256750 157.725000
v -18.427500 16.641500 158.670000
v -18.427500 16.256750 158.670000
v -15.795000 16.256750 158.670000
v -18.427500 16.641500 159.615000
v -18.427500 16.256750 159.615000
v -15.795000 16.256750 159.615000
v -15.795000 16.641500 159.615000
v -18.427500 17.026250 152.055000
v -18.427500 17.026250 153.000000
v -15.795000 17.026250 153.000000
v -15.795000 17.026250 152.055000
v -18.427500 17.026250 153.945000
v -15.795000 17.026250 153.945000
v -18.427500 17.026250 154.890000
v -15.795000 17.026250 154.890000
v -18.427500 17.026250 155.835000
v -18.427500 17.026250 156.780000
v -18.427500 17.026250 157.725000
v -18.427500 17.026250 158.670000
v -18.427500 17.026250 159.615000
v -15.795000 17.026250 159.615000
v -18.427500 17.411000 154.890000
v -18.427500 17.411000 155.835000
v -15.795000 17.411000 155.835000
v -15.795000 17.411000 154.890000
v -18.427500 17.411000 156.780000
v -15.795000 17.411000 156.780000
v -18.427500 17.411000 157.725000
v -18.427500 17.411000 158.670000
v -18.427500 17.411000 159.615000
v -15.795000 17.411000 159.615000
v -18.427500 17.795750 156.780000
v -18.427500 17.795750 157.725000
v -15.795000 17.795750 157.725000
v -15.795000 17.795750 156.780000
v -18.427500 17.795750 158.670000
v -18.427500 17.795750 159.615000
v -15.795000 17.795750 159.615000
v -18.427500 18.180500 157.725000
v -18.427500 18.180500 158.670000
v -15.795000 18.180500 158.670000
v -15.795000 18.180500 157.725000
v -18.427500 18.180500 159.615000
v -15.795000 18.180500 159.615000
v -18.427500 18.565250 158.670000
v -18.427500 18.565250 159.615000
v -15.795000 18.565250 158.670000
v -15.795000 18.565250 159.615000
v -18.427500 18.950000 158.670000
v -18.427500 18.950000 159.615000
v -15.795000 18.950000 158.670000
v -15.795000 18.950000 159.615000
v -18.427500 19.334750 158.670000
v -18.427500 19.334750 159.615000
v -15.795000 19.334750 158.670000
v -15.795000 19.334750 159.615000
v -18.427500 19.334750 157.725000
v -18.427500 19.719500 157.725000
v -18.427500 19.719500 158.670000
v -15.795000 19.334750 157.725000
v -15.795000 19.719500 157.725000
v -18.427500 19.719500 159.615000
v -15.795000 19.719500 159.615000
v -18.427500 19.719500 155.835000
v -18.427500 20.104250 155.835000
v -18.427500 20.104250 156.780000
v -18.427500 19.719500 156.780000
v -15.795000 19.719500 155.835000
v -15.795000 19.719500 156.780000
v -15.795000 20.104250 155.835000
v -18.427500 20.104250 157.725000
v -18.427500 20.104250 158.670000
v -18.427500 20.104250 159.615000
v -15.795000 20.104250 159.615000
v -18.427500 20.104250 153.945000
v -18.427500 20.489000 153.945000
v -18.427500 20.489000 154.890000
v -18.427500 20.104250 154.890000
v -15.795000 20.104250 153.945000
v -15.795000 20.104250 154.890000
v -15.795000 20.489000 153.945000
v -18.427500 20.489000 155.835000
v -18.427500 20.489000 156.780000
v -18.427500 20.489000 157.725000
v -18.427500 20.489000 158.670000
v -18.427500 20.489000 159.615000
v -15.795000 20.489000 159.615000
v -18.427500 20.489000 151.110000
v -18.427500 20.873750 151.110000
v -18.427500 20.873750 152.055000
v -18.427500 20.489000 152.055000
v -15.795000 20.489000 151.110000
v -15.795000 20.489000 152.055000
v -15.795000 20.873750 151.110000
v -18.427500 20.873750 153.000000
v -18.427500 20.489000 153.000000
v -15.795000 20.489000 153.000000
v -18.427500 20.873750 153.945000
v -18.427500 20.873750 154.890000
v -18.427500 20.873750 155.835000
v -18.427500 20.873750 156.780000
v -18.427500 20.873750 157.725000
v -18.427500 20.873750 158.670000
v -18.427500 20.873750 159.615000
v -15.795000 20.873750 159.615000
v -18.427500 20.873750 148.275000
v -18.427500 21.258500 148.275000
v -18.427500 21.258500 149.220000
v -18.427500 20.873750 149.220000
v -15.795000 20.873750 148.275000
v -15.795000 20.873750 149.220000
v -15.795000 21.258500 148.275000
v -18.427500 21.258500 150.165000
v -18.427500 20.873750 150.165000
v -15.795000 20.873750 150.165000
v -18.427500 21.258500 151.110000
v -18.427500 21.258500 152.055000
v -18.427500 21.258500 153.000000
v -18.427500 21.258500 153.945000
v -18.427500 21.258500 154.890000
v -18.427500 21.258500 155.835000
v -18.427500 21.258500 156.780000
v -18.427500 21.258500 157.725000
v -18.427500 21.258500 158.670000
v -18.427500 21.258500 159.615000
v -15.795000 21.258500 159.615000
v -18.427500 21.258500 146.385000
v -18.427500 21.643250 146.385000
v -18.427500 21.643250 147.330000
v -18.427500 21.258500 147.330000
v -15.795000 21.258500 146.385000
v -15.795000 21.258500 147.330000
v -15.795000 21.643250 147.330000
v -15.795000 21.643250 146.385000
v -18.427500 21.643250 148.275000
v -15.795000 21.643250 148.275000
v -18.427500 21.643250 149.220000
v -15.795000 21.643250 149.220000
v -18.427500 21.643250 150.165000
v -15.795000 21.643250 150.165000
v -18.427500 21.643250 151.110000
v -15.795000 21.643250 151.110000
v -18.427500 21.643250 152.055000
v -15.795000 21.643250 152.055000
v -18.427500 21.643250 153.000000
v -15.795000 21.643250 153.000000
v -18.427500 21.643250 153.945000
v -15.795000 21.643250 153.945000
v -18.427500 21.643250 154.890000
v -15.795000 21.643250 154.890000
v -18.427500 21.643250 155.835000
v -15.795000 21.643250 155.835000
v -18.427500 21.643250 156.780000
v -15.795000 21.643250 156.780000
v -18.427500 21.643250 157.725000
v -15.795000 21.643250 157.725000
v -18.427500 21.643250 158.670000
v -15.795000 21.643250 158.670000
v -18.427500 21.643250 159.615000
v -15.795000 21.643250 159.615000
v -13.162500 16.256750 149.220000
v -13.162500 16.256750 150.165000
v -13.162500 16.641500 150.165000
v -13.162500 16.641500 149.220000
v -13.162500 16.256750 151.110000
v -13.162500 16.641500 151.110000
v -13.162500 16.256750 152.055000
v -13.162500 16.641500 152.055000
v -13.162500 16.256750 153.000000
v -13.162500 16.256750 153.945000
v -13.162500 16.256750 154.890000
v -13.162500 16.256750 155.835000
v -13.162500 16.256750 156.780000
v -13.162500 16.256750 157.725000
v -13.162500 16.256750 158.670000
v -13.162500 16.256750 159.615000
v -13.162500 16.641500 159.615000
v -13.162500 17.026250 153.000000
v -13.162500 17.026250 152.055000
v -13.162500 17.026250 153.945000
v -13.162500 17.026250 154.890000
v -13.162500 17.026250 159.615000
v -13.162500 17.411000 155.835000
v -13.162500 17.411000 154.890000
v -13.162500 17.411000 156.780000
v -13.162500 17.411000 159.615000
v -13.162500 17.795750 157.725000
v -13.162500 17.795750 156.780000
v -13.162500 17.795750 159.615000
v -13.162500 18.180500 158.670000
v -13.162500 18.180500 157.725000
v -13.162500 18.180500 159.615000
v -13.162500 18.565250 158.670000
v -13.162500 18.565250 159.615000
v -13.162500 18.950000 158.670000
v -13.162500 18.950000 159.615000
v -13.162500 19.334750 158.670000
v -13.162500 19.334750 159.615000
v -13.162500 19.334750 157.725000
v -13.162500 19.719500 157.725000
v -13.162500 19.719500 159.615000
v -13.162500 19.719500 155.835000
v -13.162500 19.719500 156.780000
v -13.162500 20.104250 155.835000
v -13.162500 20.104250 159.615000
v -13.162500 20.104250 153.945000
v -13.162500 20.104250 154.890000
v -13.162500 20.489000 153.945000
v -13.162500 20.489000 159.615000
v -13.162500 20.489000 151.110000
v -13.162500 20.489000 152.055000
v -13.162500 20.873750 151.110000
v -13.162500 20.489000 153.000000
v -13.162500 20.873750 159.615000
v -13.162500 20.873750 148.275000
v -13.162500 20.873750 149.220000
v -13.162500 21.258500 148.275000
v -13.162500 20.873750 150.165000
v -13.162500 21.258500 159.615000
v -13.162500 21.258500 146.385000
v -13.162500 21.258500 147.330000
v -13.162500 21.643250 147.330000
v -13.162500 21.643250 146.385000
v -13.162500 21.643250 148.275000
v -13.162500 21.643250 149.220000
v -13.162500 21.643250 150.165000
v -13.162500 21.643250 151.110000
v -13.162500 21.643250 152.055000
v -13.162500 21.643250 153.000000
v -13.162500 21.643250 153.945000
v -13.162500 21.643250 154.890000
v -13.162500 21.643250 155.835000
v -13.162500 21.643250 156.780000
v -13.162500 21.643250 157.725000
v -13.162500 21.643250 158.670000
v -13.162500 21.643250 159.615000
v -10.530000 16.256750 149.220000
v -10.530000 16.256750 150.165000
v -10.530000 16.641500 150.165000
v -10.530000 16.641500 149.220000
v -10.530000 16.256750 151.110000
v -10.530000 16.641500 151.110000
v -10.530000 16.256750 152.055000
v -10.530000 16.641500 152.055000
v -10.530000 16.256750 153.000000
v -10.530000 16.256750 153.945000
v -10.530000 16.256750 154.890000
v -10.530000 16.256750 155.835000
v -10.530000 16.256750 156.780000
v -10.530000 16.256750 157.725000
v -10.530000 16.256750 158.670000
v -10.530000 16.256750 159.615000
v -10.530000 16.641500 159.615000
v -10.530000 17.026250 153.000000
v -10.530000 17.026250 152.055000
v -10.530000 17.026250 153.945000
v -10.530000 17.026250 154.890000
v -10.530000 17.026250 159.615000
v -10.530000 17.411000 155.835000
v -10.530000 17.411000 154.890000
v -10.530000 17.411000 156.780000
v -10.530000 17.411000 159.615000
v -10.530000 17.795750 157.725000
v -10.530000 17.795750 156.780000
v -10.530000 17.795750 159.615000
v -10.530000 18.180500 158.670000
v -10.530000 18.180500 157.725000
v -10.530000 18.180500 159.615000
v -10.530000 18.565250 158.670000
v -10.530000 18.565250 159.615000
v -10.530000 18.950000 158.670000
v -10.530000 18.950000 159.615000
v -10.530000 19.334750 158.670000
v -10.530000 19.334750 159.615000
v -10.530000 19.334750 157.725000
v -10.530000 19.719500 157.725000
v -10.530000 19.719500 159.615000
v -10.530000 19.719500 155.835000
v -10.530000 19.719500 156.780000
v -10.530000 20.104250 155.835000
v -10.530000 20.104250 159.615000
v -10.530000 20.104250 153.945000
v -10.530000 20.104250 154.890000
v -10.530000 20.489000 153.945000
v -10.530000 20.489000 159.615000
v -10.530000 20.489000 151.110000
v -10.530000 20.489000 152.055000
v -10.530000 20.873750 151.110000
v -10.530000 20.489000 153.000000
v -10.530000 20.873750 159.615000
v -10.530000 20.873750 148.275000
v -10.530000 20.873750 149.220000
v -10.530000 21.258500 148.275000
v -10.530000 20.873750 150.165000
v -10.530000 21.258500 159.615000
v -10.530000 21.258500 146.385000
v -10.530000 21.258500 147.330000
v -10.530000 21.643250 147.330000
v -10.530000 21.643250 146.385000
v -10.530000 21.643250 148.275000
v -10.530000 21.643250 149.220000
v -10.530000 21.643250 150.165000
v -10.530000 21.643250 151.110000
v -10.530000 21.643250 152.055000
v -10.530000 21.643250 153.000000
v -10.530000 21.643250 153.945000
v -10.530000 21.643250 154.890000
v -10.530000 21.643250 155.835000
v -10.530000 21.643250 156.780000
v -10.530000 21.643250 157.725000
v -10.530000 21.643250 158.670000
v -10.530000 21.643250 159.615000
v -7.897500 16.256750 149.220000
v -7.897500 16.256750 150.165000
v -7.897500 16.641500 150.165000
v -7.897500 16.641500 149.220000
v -7.897500 16.256750 151.110000
v -7.897500 16.641500 151.110000
v -7.897500 16.256750 152.055000
v -7.897500 16.641500 152.055000
v -7.897500 16.256750 153.000000
v -7.897500 16.256750 153.945000
v -7.897500 16.256750 154.890000
v -7.897500 16.256750 155.835000
v -7.897500 16.256750 156.780000
v -7.897500 16.256750 157.725000
v -7.897500 16.256750 158.670000
v -7.897500 16.256750 159.615000
v -7.897500 16.641500 159.615000
v -7.897500 17.026250 153.000000
v -7.897500 17.026250 152.055000
v -7.897500 17.026250 153.945000
v -7.897500 17.026250 154.890000
v -7.897500 17.026250 159.615000
v -7.897500 17.411000 155.835000
v -7.897500 17.411000 154.890000
v -7.897500 17.411000 156.780000
v -7.897500 17.411000 159.615000
v -7.897500 17.795750 157.725000
v -7.897500 17.795750 156.780000
v -7.897500 17.795750 159.615000
v -7.897500 18.180500 158.670000
v -7.897500 18.180500 157.725000
v -7.897500 18.180500 159.615000
v -7.897500 18.565250 158.670000
v -7.897500 18.565250 159.615000
v -7.897500 18.950000 158.670000
v -7.897500 18.950000 159.615000
v -7.897500 19.334750 158.670000
v -7.897500 19.334750 159.615000
v -7.897500 19.334750 157.725000
v -7.897500 19.719500 157.725000
v -7.897500 19.719500 159.615000
v -7.897500 19.719500 155.835000
v -7.897500 19.719500 156.780000
v -7.897500 20.104250 155.835000
v -7.897500 20.104250 159.615000
v -7.897500 20.104250 153.945000
v -7.897500 20.104250 154.890000
v -7.897500 20.489000 153.945000
v -7.897500 20.489000 159.615000
v -7.897500 20.489000 151.110000
v -7.897500 20.489000 152.055000
v -7.897500 20.873750 151.110000
v -7.897500 20.489000 153.000000
v -7.897500 20.873750 159.615000
v -7.897500 20.873750 148.275000
v -7.897500 20.873750 149.220000
v -7.897500 21.258500 148.275000
v -7.897500 20.873750 150.165000
v -7.897500 21.258500 159.615000
v -7.897500 21.258500 146.385000
v -7.897500 21.258500 147.330000
v -7.897500 21.643250 147.330000
v -7.897500 21.643250 146.385000
v -7.897500 21.643250 148.275000
v -7.897500 21.643250 149.220000
v -7.897500 21.643250 150.165000
v -7.897500 21.643250 151.110000
v -7.897500 21.643250 152.055000
v -7.897500 21.643250 153.000000
v -7.897500 21.643250 153.945000
v -7.897500 21.643250 154.890000
v -7.897500 21.643250 155.835000
v -7.897500 21.643250 156.780000
v -7.897500 21.643250 157.725000
v -7.897500 21.643250 158.670000
v -7.897500 21.643250 159.615000
v -5.265000 16.256750 149.220000
v -5.265000 16.256750 150.165000
v -5.265000 16.641500 150.165000
v -5.265000 16.641500 149.220000
v -5.265000 16.256750 151.110000
v -5.265000 16.641500 151.110000
v -5.265000 16.256750 152.055000
v -5.265000 16.641500 152.055000
v -5.265000 16.256750 153.000000
v -5.265000 16.256750 153.945000
v -5.265000 16.256750 154.890000
v -5.265000 16.256750 155.835000
v -5.265000 16.256750 156.780000
v -5.265000 16.256750 157.725000
v -5.265000 16.256750 158.670000
v -5.265000 16.256750 159.615000
v -5.265000 16.641500 159.615000
v -5.265000 17.026250 153.000000
v -5.265000 17.026250 152.055000
v -5.265000 17.026250 153.945000
v -5.265000 17.026250 154.890000
v -5.265000 17.026250 159.615000
v -5.265000 17.411000 155.835000
v -5.265000 17.411000 154.890000
v -5.265000 17.411000 156.780000
v -5.265000 17.411000 159.615000
v -5.265000 17.795750 157.725000
v -5.265000 17.795750 156.780000
v -5.265000 17.795750 159.615000
v -5.265000 18.180500 158.670000
v -5.265000 18.180500 157.725000
v -5.265000 18.180500 159.615000
v -5.265000 18.565250 158.670000
v -5.265000 18.565250 159.615000
v -5.265000 18.950000 158.670000
v -5.265000 18.950000 159.615000
v -5.265000 19.334750 158.670000
v -5.265000 19.334750 159.615000
v -5.265000 19.334750 157.725000
v -5.265000 19.719500 157.725000
v -5.265000 19.719500 159.615000
v -5.265000 19.719500 155.835000
v -5.265000 19.719500 156.780000
v -5.265000 20.104250 155.835000
v -5.265000 20.104250 159.615000
v -5.265000 20.104250 153.945000
v -5.265000 20.104250 154.890000
v -5.265000 20.489000 153.945000
v -5.265000 20.489000 159.615000
v -5.265000 20.489000 151.110000
v -5.265000 20.489000 152.055000
v -5.265000 20.873750 151.110000
v -5.265000 20.489000 153.000000
v -5.265000 20.873750 159.615000
v -5.265000 20.873750 148.275000
v -5.265000 20.873750 149.220000
v -5.265000 21.258500 148.275000
v -5.265000 20.873750 150.165000
v -5.265000 21.258500 159.615000
v -5.265000 21.258500 146.385000
v -5.265000 21.258500 147.330000
v -5.265000 21.643250 147.330000
v -5.265000 21.643250 146.385000
v -5.265000 21.643250 148.275000
v -5.265000 21.643250 149.220000
v -5.265000 21.643250 150.165000
v -5.265000 21.643250 151.110000
v -5.265000 21.643250 152.055000
v -5.265000 21.643250 153.000000
v -5.265000 21.643250 153.945000
v -5.265000 21.643250 154.890000
v -5.265000 21.643250 155.835000
v -5.265000 21.643250 156.780000
v -5.265000 21.643250 157.725000
v -5.265000 21.643250 158.670000
v -5.265000 21.643250 159.615000
v -2.632500 16.256750 149.220000
v -2.632500 16.256750 150.165000
v -2.632500 16.641500 150.165000
v -2.632500 16.641500 149.220000
v -2.632500 16.256750 151.110000
v -2.632500 16.641500 151.110000
v -2.632500 16.256750 152.055000
v -2.632500 16.641500 152.055000
v -2.632500 16.256750 153.000000
v -2.632500 16.256750 153.945000
v -2.632500 16.256750 154.890000
v -2.632500 16.256750 155.835000
v -2.632500 16.256750 156.780000
v -2.632500 16.256750 157.725000
v -2.632500 16.256750 158.670000
v -2.632500 16.256750 159.615000
v -2.632500 16.641500 159.615000
v -2.632500 17.026250 153.000000
v -2.632500 17.026250 152.055000
v -2.632500 17.026250 153.945000
v -2.632500 17.026250 154.890000
v -2.632500 17.026250 159.615000
v -2.632500 17.411000 155.835000
v -2.632500 17.411000 154.890000
v -2.632500 17.411000 156.780000
v -2.632500 17.411000 159.615000
v -2.632500 17.795750 157.725000
v -2.632500 17.795750 156.780000
v -2.632500 17.795750 159.615000
v -2.632500 18.180500 158.670000
v -2.632500 18.180500 157.725000
v -2.632500 18.180500 159.615000
v -2.632500 18.565250 158.670000
v -2.632500 18.565250 159.615000
v -2.632500 18.950000 158.670000
v -2.632500 18.950000 159.615000
v -2.632500 19.334750 158.670000
v -2.632500 19.334750 159.615000
v -2.632500 19.334750 157.725000
v -2.632500 19.719500 157.725000
v -2.632500 19.719500 159.615000
v -2.632500 19.719500 155.835000
v -2.632500 19.719500 156.780000
v -2.632500 20.104250 155.835000
v -2.632500 20.104250 159.615000
v -2.632500 20.104250 153.945000
v -2.632500 20.104250 154.890000
v -2.632500 20.489000 153.945000
v -2.632500 20.489000 159.615000
v -2.632500 20.489000 151.110000
v -2.632500 20.489000 152.055000
v -2.632500 20.873750 151.110000
v -2.632500 20.489000 153.000000
v -2.632500 20.873750 159.615000
v -2.632500 20.873750 148.275000
v -2.632500 20.873750 149.220000
v -2.632500 21.258500 148.275000
v -2.632500 20.873750 150.165000
v -2.632500 21.258500 159.615000
v -2.632500 21.258500 146.385000
v -2.632500 21.258500 147.330000
v -2.632500 21.643250 147.330000
v -2.632500 21.643250 146.385000
v -2.632500 21.643250 148.275000
v -2.632500 21.643250 149.220000
v -2.632500 21.643250 150.165000
v -2.632500 21.643250 151.110000
v -2.632500 21.643250 152.055000
v -2.632500 21.643250 153.000000
v -2.632500 21.643250 153.945000
v -2.632500 21.643250 154.890000
v -2.632500 21.643250 155.835000
v -2.632500 21.643250 156.780000
v -2.632500 21.643250 157.725000
v -2.632500 21.643250 158.670000
v -2.632500 21.643250 159.615000
v -0.000000 16.256750 149.220000
v -0.000000 16.256750 150.165000
v -0.000000 16.641500 150.165000
v -0.000000 16.641500 149.220000
v -0.000000 16.256750 151.110000
v -0.000000 16.641500 151.110000
v -0.000000 16.256750 152.055000
v -0.000000 16.641500 152.055000
v -0.000000 16.256750 153.000000
v -0.000000 16.256750 153.945000
v -0.000000 16.256750 154.890000
v -0.000000 16.256750 155.835000
v -0.000000 16.256750 156.780000
v -0.000000 16.256750 157.725000
v -0.000000 16.256750 158.670000
v -0.000000 16.256750 159.615000
v -0.000000 16.641500 159.615000
v -0.000000 17.026250 153.000000
v -0.000000 17.026250 152.055000
v -0.000000 17.026250 153.945000
v -0.000000 17.026250 154.890000
v -0.000000 17.026250 159.615000
v -0.000000 17.411000 155.835000
v -0.000000 17.411000 154.890000
v -0.000000 17.411000 156.780000
v -0.000000 17.411000 159.615000
v -0.000000 17.795750 157.725000
v -0.000000 17.795750 156.780000
v -0.000000 17.795750 159.615000
v -0.000000 18.180500 158.670000
v -0.000000 18.180500 157.725000
v -0.000000 18.180500 159.615000
v -0.000000 18.565250 158.670000
v -0.000000 18.565250 159.615000
v -0.000000 18.950000 158.670000
v -0.000000 18.950000 159.615000
v -0.000000 19.334750 158.670000
v -0.000000 19.334750 159.615000
v -0.000000 19.334750 157.725000
v -0.000000 19.719500 157.725000
v -0.000000 19.719500 159.615000
v -0.000000 19.719500 155.835000
v -0.000000 19.719500 156.780000
v -0.000000 20.104250 155.835000
v -0.000000 20.104250 159.615000
v -0.000000 20.104250 153.945000
v -0.000000 20.104250 154.890000
v -0.000000 20.489000 153.945000
v -0.000000 20.489000 159.615000
v -0.000000 20.489000 151.110000
v -0.000000 20.489000 152.055000
v -0.000000 20.873750 151.110000
v -0.000000 20.489000 153.000000
v -0.000000 20.873750 159.615000
v -0.000000 20.873750 148.275000
v -0.000000 20.873750 149.220000
v -0.000000 21.258500 148.275000
v -0.000000 20.873750 150.165000
v -0.000000 21.258500 159.615000
v -0.000000 21.258500 146.385000
v -0.000000 21.258500 147.330000
v -0.000000 21.643250 147.330000
v -0.000000 21.643250 146.385000
v -0.000000 21.643250 148.275000
v -0.000000 21.643250 149.220000
v -0.000000 21.643250 150.165000
v -0.000000 21.643250 151.110000
v -0.000000 21.643250 152.055000
v -0.000000 21.643250 153.000000
v -0.000000 21.643250 153.945000
v -0.000000 21.643250 154.890000
v -0.000000 21.643250 155.835000
v -0.000000 21.643250 156.780000
v -0.000000 21.643250 157.725000
v -0.000000 21.643250 158.670000
v -0.000000 21.643250 159.615000
v 2.632500 16.256750 149.220000
v 2.632500 16.256750 150.165000
v 2.632500 16.641500 150.165000
v 2.632500 16.641500 149.220000
v 2.632500 16.256750 151.110000
v 2.632500 16.641500 151.110000
v 2.632500 16.256750 152.055000
v 2.632500 16.641500 152.055000
v 2.632500 16.256750 153.000000
v 2.632500 16.256750 153.945000
v 2.632500 16.256750 154.890000
v 2.632500 16.256750 155.835000
v 2.632500 16.256750 156.780000
v 2.632500 16.256750 157.725000
v 2.632500 16.256750 158.670000
v 2.632500 16.256750 159.615000
v 2.632500 16.641500 159.615000
v 2.632500 17.026250 153.000000
v 2.632500 17.026250 152.055000
v 2.632500 17.026250 153.945000
v 2.632500 17.026250 154.890000
v 2.632500 17.026250 159.615000
v 2.632500 17.411000 155.835000
v 2.632500 17.411000 154.890000
v 2.632500 17.411000 156.780000
v 2.632500 17.411000 159.615000
v 2.632500 17.795750 157.725000
v 2.632500 17.795750 156.780000
v 2.632500 17.795750 159.615000
v 2.632500 18.180500 158.670000
v 2.632500 18.180500 157.725000
v 2.632500 18.180500 159.615000
v 2.632500 18.565250 158.670000
v 2.632500 18.565250 159.615000
v 2.632500 18.950000 158.670000
v 2.632500 18.950000 159.615000
v 2.632500 19.334750 158.670000
v 2.632500 19.334750 159.615000
v 2.632500 19.334750 157.725000
v 2.632500 19.719500 157.725000
v 2.632500 19.719500 159.615000
v 2.632500 19.719500 155.835000
v 2.632500 19.719500 156.780000
v 2.632500 20.104250 155.835000
v 2.632500 20.104250 159.615000
v 2.632500 20.104250 153.945000
v 2.632500 20.104250 154.890000
v 2.632500 20.489000 153.945000
v 2.632500 20.489000 159.615000
v 2.632500 20.489000 151.110000
v 2.632500 20.489000 152.055000
v 2.632500 20.873750 151.110000
v 2.632500 20.489000 153.000000
v 2.632500 20.873750 159.615000
v 2.632500 20.873750 148.275000
v 2.632500 20.873750 149.220000
v 2.632500 21.258500 148.275000
v 2.632500 20.873750 150.165000
v 2.632500 21.258500 159.615000
v 2.632500 21.258500 146.385000
v 2.632500 21.258500 147.330000
v 2.632500 21.643250 147.330000
v 2.632500 21.643250 146.385000
v 2.632500 21.643250 148.275000
v 2.632500 21.643250 149.220000
v 2.632500 21.643250 150.165000
v 2.632500 21.643250 151.110000
v 2.632500 21.643250 152.055000
v 2.632500 21.643250 153.000000
v 2.632500 21.643250 153.945000
v 2.632500 21.643250 154.890000
v 2.632500 21.643250 155.835000
v 2.632500 21.643250 156.780000
v 2.632500 21.643250 157.725000
v 2.632500 21.643250 158.670000
v 2.632500 21.643250 159.615000
v 5.265000 16.256750 149.220000
v 5.265000 16.256750 150.165000
v 5.265000 16.641500 150.165000
v 5.265000 16.641500 149.220000
v 5.265000 16.256750 151.110000
v 5.265000 16.641500 151.110000
v 5.265000 16.256750 152.055000
v 5.265000 16.641500 152.055000
v 5.265000 16.256750 153.000000
v 5.265000 16.256750 153.945000
v 5.265000 16.256750 154.890000
v 5.265000 16.256750 155.835000
v 5.265000 16.256750 156.780000
v 5.265000 16.256750 157.725000
v 5.265000 16.256750 158.670000
v 5.265000 16.256750 159.615000
v 5.265000 16.641500 159.615000
v 5.265000 17.026250 153.000000
v 5.265000 17.026250 152.055000
v 5.265000 17.026250 153.945000
v 5.265000 17.026250 154.890000
v 5.265000 17.026250 159.615000
v 5.265000 17.411000 155.835000
v 5.265000 17.411000 154.890000
v 5.265000 17.411000 156.780000
v 5.265000 17.411000 159.615000
v 5.265000 17.795750 157.725000
v 5.265000 17.795750 156.780000
v 5.265000 17.795750 159.615000
v 5.265000 18.180500 158.670000
v 5.265000 18.180500 157.725000
v 5.265000 18.180500 159.615000
v 5.265000 18.565250 158.670000
v 5.265000 18.565250 159.615000
v 5.265000 18.950000 158.670000
v 5.265000 18.950000 159.615000
v 5.265000 19.334750 158.670000
v 5.265000 19.334750 159.615000
v 5.265000 19.334750 157.725000
v 5.265000 19.719500 157.725000
v 5.265000 19.719500 159.615000
v 5.265000 19.719500 155.835000
v 5.265000 19.719500 156.780000
v 5.265000 20.104250 155.835000
v 5.265000 20.104250 159.615000
v 5.265000 20.104250 153.945000
v 5.265000 20.104250 154.890000
v 5.265000 20.489000 153.945000
v 5.265000 20.489000 159.615000
v 5.265000 20.489000 151.110000
v 5.265000 20.489000 152.055000
v 5.265000 20.873750 151.110000
v 5.265000 20.489000 153.000000
v 5.265000 20.873750 159.615000
v 5.265000 20.873750 148.275000
v 5.265000 20.873750 149.220000
v 5.265000 21.258500 148.275000
v 5.265000 20.873750 150.165000
v 5.265000 21.258500 159.615000
v 5.265000 21.258500 146.385000
v 5.265000 21.258500 147.330000
v 5.265000 21.643250 147.330000
v 5.265000 21.643250 146.385000
v 5.265000 21.643250 148.275000
v 5.265000 21.643250 149.220000
v 5.265000 21.643250 150.165000
v 5.265000 21.643250 151.110000
v 5.265000 21.643250 152.055000
v 5.265000 21.643250 153.000000
v 5.265000 21.643250 153.945000
v 5.265000 21.643250 154.890000
v 5.265000 21.643250 155.835000
v 5.265000 21.643250 156.780000
v 5.265000 21.643250 157.725000
v 5.265000 21.643250 158.670000
v 5.265000 21.643250 159.615000
v 7.897500 16.256750 149.220000
v 7.897500 16.256750 150.165000
v 7.897500 16.641500 150.165000
v 7.897500 16.641500 149.220000
v 7.897500 16.256750 151.110000
v 7.897500 16.641500 151.110000
v 7.897500 16.256750 152.055000
v 7.897500 16.641500 152.055000
v 7.897500 16.256750 153.000000
v 7.897500 16.256750 153.945000
v 7.897500 16.256750 154.890000
v 7.897500 16.256750 155.835000
v 7.897500 16.256750 156.780000
v 7.897500 16.256750 157.725000
v 7.897500 16.256750 158.670000
v 7.897500 16.256750 159.615000
v 7.897500 16.641500 159.615000
v 7.897500 17.026250 153.000000
v 7.897500 17.026250 152.055000
v 7.897500 17.026250 153.945000
v 7.897500 17.026250 154.890000
v 7.897500 17.026250 159.615000
v 7.897500 17.411000 155.835000
v 7.897500 17.411000 154.890000
v 7.897500 17.411000 156.780000
v 7.897500 17.411000 159.615000
v 7.897500 17.795750 157.725000
v 7.897500 17.795750 156.780000
v 7.897500 17.795750 159.615000
v 7.897500 18.180500 158.670000
v 7.897500 18.180500 157.725000
v 7.897500 18.180500 159.615000
v 7.897500 18.565250 158.670000
v 7.897500 18.565250 159.615000
v 7.897500 18.950000 158.670000
v 7.897500 18.950000 159.615000
v 7.897500 19.334750 158.670000
v 7.897500 19.334750 159.615000
v 7.897500 19.334750 157.725000
v 7.897500 19.719500 157.725000
v 7.897500 19.719500 159.615000
v 7.897500 19.719500 155.835000
v 7.897500 19.719500 156.780000
v 7.897500 20.104250 155.835000
v 7.897500 20.104250 159.615000
v 7.897500 20.104250 153.945000
v 7.897500 20.104250 154.890000
v 7.897500 20.489000 153.945000
v 7.897500 20.489000 159.615000
v 7.897500 20.489000 151.110000
v 7.897500 20.489000 152.055000
v 7.897500 20.873750 151.110000
v 7.897500 20.489000 153.000000
v 7.897500 20.873750 159.615000
v 7.897500 20.873750 148.275000
v 7.897500 20.873750 149.220000
v 7.897500 21.258500 148.275000
v 7.897500 20.873750 150.165000
v 7.897500 21.258500 159.615000
v 7.897500 21.258500 146.385000
v 7.897500 21.258500 147.330000
v 7.897500 21.643250 147.330000
v 7.897500 21.643250 146.385000
v 7.897500 21.643250 148.275000
v 7.897500 21.643250 149.220000
v 7.897500 21.643250 150.165000
v 7.897500 21.643250 151.110000
v 7.897500 21.643250 152.055000
v 7.897500 21.643250 153.000000
v 7.897500 21.643250 153.945000
v 7.897500 21.643250 154.890000
v 7.897500 21.643250 155.835000
v 7.897500 21.643250 156.780000
v 7.897500 21.643250 157.725000
v 7.897500 21.643250 158.670000
v 7.897500 21.643250 159.615000
v 10.530000 16.256750 149.220000
v 10.530000 16.256750 150.165000
v 10.530000 16.641500 150.165000
v 10.530000 16.641500 149.220000
v 10.530000 16.256750 151.110000
v 10.530000 16.641500 151.110000
v 10.530000 16.256750 152.055000
v 10.530000 16.641500 152.055000
v 10.530000 16.256750 153.000000
v 10.530000 16.256750 153.945000
v 10.530000 16.256750 154.890000
v 10.530000 16.256750 155.835000
v 10.530000 16.256750 156.780000
v 10.530000 16.256750 157.725000
v 10.530000 16.256750 158.670000
v 10.530000 16.256750 159.615000
v 10.530000 16.641500 159.615000
v 10.530000 17.026250 153.000000
v 10.530000 17.026250 152.055000
v 10.530000 17.026250 153.945000
v 10.530000 17.026250 154.890000
v 10.530000 17.026250 159.615000
v 10.530000 17.411000 155.835000
v 10.530000 17.411000 154.890000
v 10.530000 17.411000 156.780000
v 10.530000 17.411000 159.615000
v 10.530000 17.795750 157.725000
v 10.530000 17.795750 156.780000
v 10.530000 17.795750 159.615000
v 10.530000 18.180500 158.670000
v 10.530000 18.180500 157.725000
v 10.530000 18.180500 159.615000
v 10.530000 18.565250 158.670000
v 10.530000 18.565250 159.615000
v 10.530000 18.950000 158.670000
v 10.530000 18.950000 159.615000
v 10.530000 19.334750 158.670000
v 10.530000 19.334750 159.615000
v 10.530000 19.334750 157.725000
v 10.530000 19.719500 157.725000
v 10.530000 19.719500 159.615000
v 10.530000 19.719500 155.835000
v 10.530000 19.719500 156.780000
v 10.530000 20.104250 155.835000
v 10.530000 20.104250 159.615000
v 10.530000 20.104250 153.945000
v 10.530000 20.104250 154.890000
v 10.530000 20.489000 153.945000
v 10.530000 20.489000 159.615000
v 10.530000 20.489000 151.110000
v 10.530000 20.489000 152.055000
v 10.530000 20.873750 151.110000
v 10.530000 20.489000 153.000000
v 10.530000 20.873750 159.615000
v 10.530000 20.873750 148.275000
v 10.530000 20.873750 149.220000
v 10.530000 21.258500 148.275000
v 10.530000 20.873750 150.165000
v 10.530000 21.258500 159.615000
v 10.530000 21.258500 146.385000
v 10.530000 21.258500 147.330000
v 10.530000 21.643250 147.330000
v 10.530000 21.643250 146.385000
v 10.530000 21.643250 148.275000
v 10.530000 21.643250 149.220000
v 10.530000 21.643250 150.165000
v 10.530000 21.643250 151.110000
v 10.530000 21.643250 152.055000
v 10.530000 21.643250 153.000000
v 10.530000 21.643250 153.945000
v 10.530000 21.643250 154.890000
v 10.530000 21.643250 155.835000
v 10.530000 21.643250 156.780000
v 10.530000 21.643250 157.725000
v 10.530000 21.643250 158.670000
v 10.530000 21.643250 159.615000
v 13.162500 16.256750 149.220000
v 13.162500 16.256750 150.165000
v 13.162500 16.641500 150.165000
v 13.162500 16.641500 149.220000
v 13.162500 16.256750 151.110000
v 13.162500 16.641500 151.110000
v 13.162500 16.256750 152.055000
v 13.162500 16.641500 152.055000
v 13.162500 16.256750 153.000000
v 13.162500 16.256750 153.945000
v 13.162500 16.256750 154.890000
v 13.162500 16.256750 155.835000
v 13.162500 16.256750 156.780000
v 13.162500 16.256750 157.725000
v 13.162500 16.256750 158.670000
v 13.162500 16.256750 159.615000
v 13.162500 16.641500 159.615000
v 13.162500 17.026250 153.000000
v 13.162500 17.026250 152.055000
v 13.162500 17.026250 153.945000
v 13.162500 17.026250 154.890000
v 13.162500 17.026250 159.615000
v 13.162500 17.411000 155.835000
v 13.162500 17.411000 154.890000
v 13.162500 17.411000 156.780000
v 13.162500 17.411000 159.615000
v 13.162500 17.795750 157.725000
v 13.162500 17.795750 156.780000
v 13.162500 17.795750 159.615000
v 13.162500 18.180500 158.670000
v 13.162500 18.180500 157.725000
v 13.162500 18.180500 159.615000
v 13.162500 18.565250 158.670000
v 13.162500 18.565250 159.615000
v 13.162500 18.950000 158.670000
v 13.162500 18.950000 159.615000
v 13.162500 19.334750 158.670000
v 13.162500 19.334750 159.615000
v 13.162500 19.334750 157.725000
v 13.162500 19.719500 157.725000
v 13.162500 19.719500 159.615000
v 13.162500 19.719500 155.835000
v 13.162500 19.719500 156.780000
v 13.162500 20.104250 155.835000
v 13.162500 20.104250 159.615000
v 13.162500 20.104250 153.945000
v 13.162500 20.104250 154.890000
v 13.162500 20.489000 153.945000
v 13.162500 20.489000 159.615000
v 13.162500 20.489000 151.110000
v 13.162500 20.489000 152.055000
v 13.162500 20.873750 151.110000
v 13.162500 20.489000 153.000000
v 13.162500 20.873750 159.615000
v 13.162500 20.873750 148.275000
v 13.162500 20.873750 149.220000
v 13.162500 21.258500 148.275000
v 13.162500 20.873750 150.165000
v 13.162500 21.258500 159.615000
v 13.162500 21.258500 146.385000
v 13.162500 21.258500 147.330000
v 13.162500 21.643250 147.330000
v 13.162500 21.643250 146.385000
v 13.162500 21.643250 148.275000
v 13.162500 21.643250 149.220000
v 13.162500 21.643250 150.165000
v 13.162500 21.643250 151.110000
v 13.162500 21.643250 152.055000
v 13.162500 21.643250 153.000000
v 13.162500 21.643250 153.945000
v 13.162500 21.643250 154.890000
v 13.162500 21.643250 155.835000
v 13.162500 21.643250 156.780000
v 13.162500 21.643250 157.725000
v 13.162500 21.643250 158.670000
v 13.162500 21.643250 159.615000
v 15.795000 16.256750 149.220000
v 15.795000 16.256750 150.165000
v 15.795000 16.641500 150.165000
v 15.795000 16.641500 149.220000
v 15.795000 16.256750 151.110000
v 15.795000 16.641500 151.110000
v 15.795000 16.256750 152.055000
v 15.795000 16.641500 152.055000
v 15.795000 16.256750 153.000000
v 15.795000 16.256750 153.945000
v 15.795000 16.256750 154.890000
v 15.795000 16.256750 155.835000
v 15.795000 16.256750 156.780000
v 15.795000 16.256750 157.725000
v 15.795000 16.256750 158.670000
v 15.795000 16.256750 159.615000
v 15.795000 16.641500 159.615000
v 15.795000 17.026250 153.000000
v 15.795000 17.026250 152.055000
v 15.795000 17.026250 153.945000
v 15.795000 17.026250 154.890000
v 15.795000 17.026250 159.615000
v 15.795000 17.411000 155.835000
v 15.795000 17.411000 154.890000
v 15.795000 17.411000 156.780000
v 15.795000 17.411000 159.615000
v 15.795000 17.795750 157.725000
v 15.795000 17.795750 156.780000
v 15.795000 17.795750 159.615000
v 15.795000 18.180500 158.670000
v 15.795000 18.180500 157.725000
v 15.795000 18.180500 159.615000
v 15.795000 18.565250 158.670000
v 15.795000 18.565250 159.615000
v 15.795000 18.950000 158.670000
v 15.795000 18.950000 159.615000
v 15.795000 19.334750 158.670000
v 15.795000 19.334750 159.615000
v 15.795000 19.334750 157.725000
v 15.795000 19.719500 157.725000
v 15.795000 19.719500 159.615000
v 15.795000 19.719500 155.835000
v 15.795000 19.719500 156.780000
v 15.795000 20.104250 155.835000
v 15.795000 20.104250 159.615000
v 15.795000 20.104250 153.945000
v 15.795000 20.104250 154.890000
v 15.795000 20.489000 153.945000
v 15.795000 20.489000 159.615000
v 15.795000 20.489000 151.110000
v 15.795000 20.489000 152.055000
v 15.795000 20.873750 151.110000
v 15.795000 20.489000 153.000000
v 15.795000 20.873750 159.615000
v 15.795000 20.873750 148.275000
v 15.795000 20.873750 149.220000
v 15.795000 21.258500 148.275000
v 15.795000 20.873750 150.165000
v 15.795000 21.258500 159.615000
v 15.795000 21.258500 146.385000
v 15.795000 21.258500 147.330000
v 15.795000 21.643250 147.330000
v 15.795000 21.643250 146.385000
v 15.795000 21.643250 148.275000
v 15.795000 21.643250 149.220000
v 15.795000 21.643250 150.165000
v 15.795000 21.643250 151.110000
v 15.795000 21.643250 152.055000
v 15.795000 21.643250 153.000000
v 15.795000 21.643250 153.945000
v 15.795000 21.643250 154.890000
v 15.795000 21.643250 155.835000
v 15.795000 21.643250 156.780000
v 15.795000 21.643250 157.725000
v 15.795000 21.643250 158.670000
v 15.795000 21.643250 159.615000
v 18.427500 16.256750 149.220000
v 18.427500 16.256750 150.165000
v 18.427500 16.641500 150.165000
v 18.427500 16.641500 149.220000
v 18.427500 16.256750 151.110000
v 18.427500 16.641500 151.110000
v 18.427500 16.256750 152.055000
v 18.427500 16.641500 152.055000
v 18.427500 16.256750 153.000000
v 18.427500 16.641500 153.000000
v 18.427500 16.256750 153.945000
v 18.427500 16.641500 153.945000
v 18.427500 16.256750 154.890000
v 18.427500 16.641500 154.890000
v 18.427500 16.256750 155.835000
v 18.427500 16.641500 155.835000
v 18.427500 16.256750 156.780000
v 18.427500 16.641500 156.780000
v 18.427500 16.256750 157.725000
v 18.427500 16.641500 157.725000
v 18.427500 16.256750 158.670000
v 18.427500 16.641500 158.670000
v 18.427500 16.256750 159.615000
v 18.427500 16.641500 159.615000
v 18.427500 17.026250 153.000000
v 18.427500 17.026250 152.055000
v 18.427500 17.026250 153.945000
v 18.427500 17.026250 154.890000
v 18.427500 17.026250 155.835000
v 18.427500 17.026250 156.780000
v 18.427500 17.026250 157.725000
v 18.427500 17.026250 158.670000
v 18.427500 17.026250 159.615000
v 18.427500 17.411000 155.835000
v 18.427500 17.411000 154.890000
v 18.427500 17.411000 156.780000
v 18.427500 17.411000 157.725000
v 18.427500 17.411000 158.670000
v 18.427500 17.411000 159.615000
v 18.427500 17.795750 157.725000
v 18.427500 17.795750 156.780000
v 18.427500 17.795750 158.670000
v 18.427500 17.795750 159.615000
v 18.427500 18.180500 158.670000
v 18.427500 18.180500 157.725000
v 18.427500 18.180500 159.615000
v 18.427500 18.565250 159.615000
v 18.427500 18.565250 158.670000
v 18.427500 18.950000 159.615000
v 18.427500 18.950000 158.670000
v 18.427500 19.334750 159.615000
v 18.427500 19.334750 158.670000
v 18.427500 19.334750 157.725000
v 18.427500 19.719500 158.670000
v 18.427500 19.719500 157.725000
v 18.427500 19.719500 159.615000
v 18.427500 19.719500 155.835000
v 18.427500 19.719500 156.780000
v 18.427500 20.104250 156.780000
v 18.427500 20.104250 155.835000
v 18.427500 20.104250 157.725000
v 18.427500 20.104250 158.670000
v 18.427500 20.104250 159.615000
v 18.427500 20.104250 153.945000
v 18.427500 20.104250 154.890000
v 18.427500 20.489000 154.890000
v 18.427500 20.489000 153.945000
v 18.427500 20.489000 155.835000
v 18.427500 20.489000 156.780000
v 18.427500 20.489000 157.725000
v 18.427500 20.489000 158.670000
v 18.427500 20.489000 159.615000
v 18.427500 20.489000 151.110000
v 18.427500 20.489000 152.055000
v 18.427500 20.873750 152.055000
v 18.427500 20.873750 151.110000
v 18.427500 20.489000 153.000000
v 18.427500 20.873750 153.000000
v 18.427500 20.873750 153.945000
v 18.427500 20.873750 154.890000
v 18.427500 20.873750 155.835000
v 18.427500 20.873750 156.780000
v 18.427500 20.873750 157.725000
v 18.427500 20.873750 158.670000
v 18.427500 20.873750 159.615000
v 18.427500 20.873750 148.275000
v 18.427500 20.873750 149.220000
v 18.427500 21.258500 149.220000
v 18.427500 21.258500 148.275000
v 18.427500 20.873750 150.165000
v 18.427500 21.258500 150.165000
v 18.427500 21.258500 151.110000
v 18.427500 21.258500 152.055000
v 18.427500 21.258500 153.000000
v 18.427500 21.258500 153.945000
v 18.427500 21.258500 154.890000
v 18.427500 21.258500 155.835000
v 18.427500 21.258500 156.780000
v 18.427500 21.258500 157.725000
v 18.427500 21.258500 158.670000
v 18.427500 21.258500 159.615000
v 18.427500 21.258500 146.385000
v 18.427500 21.258500 147.330000
v 18.427500 21.643250 147.330000
v 18.427500 21.643250 146.385000
v 18.427500 21.643250 148.275000
v 18.427500 21.643250 149.220000
v 18.427500 21.643250 150.165000
v 18.427500 21.643250 151.110000
v 18.427500 21.643250 152.055000
v 18.427500 21.643250 153.000000
v 18.427500 21.643250 153.945000
v 18.427500 21.643250 154.890000
v 18.427500 21.643250 155.835000
v 18.427500 21.643250 156.780000
v 18.427500 21.643250 157.725000
v 18.427500 21.643250 158.670000
v 18.427500 21.643250 159.615000
f 1 2 3
f 1 3 4
f 1 5 6
f 1 6 4
f 2 3 7
f 2 7 8
f 1 2 8
f 1 8 5
f 4 3 9
f 4 9 10
f 4 6 11
f 4 11 10
f 3 9 12
f 3 12 7
f 10 9 13
f 10 13 14
f 10 11 15
f 10 15 14
f 9 13 16
f 9 16 12
f 14 13 17
f 14 17 18
f 14 15 19
f 14 19 18
f 18 17 20
f 18 20 21
f 18 19 22
f 18 22 21
f 21 20 23
f 21 23 24
f 21 22 25
f 21 25 24
f 24 23 26
f 24 26 27
f 24 25 28
f 24 28 27
f 27 26 29
f 27 29 30
f 27 28 31
f 27 31 30
f 30 29 32
f 30 32 33
f 30 31 34
f 30 34 33
f 33 32 35
f 33 35 36
f 33 34 37
f 33 37 36
f 36 35 38
f 36 38 39
f 36 37 40
f 36 40 39
f 39 40 41
f 39 41 38
f 13 42 43
f 13 43 17
f 42 43 44
f 42 44 45
f 13 42 45
f 13 45 16
f 17 43 46
f 17 46 20
f 43 46 47
f 43 47 44
f 20 46 48
f 20 48 23
f 46 48 49
f 46 49 47
f 23 48 50
f 23 50 26
f 26 50 51
f 26 51 29
f 29 51 52
f 29 52 32
f 32 52 53
f 32 53 35
f 35 53 54
f 35 54 38
f 38 41 55
f 38 55 54
f 48 56 57
f 48 57 50
f 56 57 58
f 56 58 59
f 48 56 59
f 48 59 49
f 50 57 60
f 50 60 51
f 57 60 61
f 57 61 58
f 51 60 62
f 51 62 52
f 52 62 63
f 52 63 53
f 53 63 64
f 53 64 54
f 54 55 65
f 54 65 64
f 60 66 67
f 60 67 62
f 66 67 68
f 66 68 69
f 60 66 69
f 60 69 61
f 62 67 70
f 62 70 63
f 63 70 71
f 63 71 64
f 64 65 72
f 64 72 71
f 67 73 74
f 67 74 70
f 73 74 75
f 73 75 76
f 67 73 76
f 67 76 68
f 70 74 77
f 70 77 71
f 71 72 78
f 71 78 77
f 74 79 80
f 74 80 77
f 74 79 81
f 74 81 75
f 77 78 82
f 77 82 80
f 79 83 84
f 79 84 80
f 79 83 85
f 79 85 81
f 80 82 86
f 80 86 84
f 83 87 88
f 83 88 84
f 83 87 89
f 83 89 85
f 84 86 90
f 84 90 88
f 91 92 93
f 91 93 87
f 91 94 89
f 91 89 87
f 91 92 95
f 91 95 94
f 87 93 96
f 87 96 88
f 88 90 97
f 88 97 96
f 98 99 100
f 98 100 101
f 98 102 103
f 98 103 101
f 98 99 104
f 98 104 102
f 101 100 105
f 101 105 92
f 101 103 95
f 101 95 92
f 92 105 106
f 92 106 93
f 93 106 107
f 93 107 96
f 96 97 108
f 96 108 107
f 109 110 111
f 109 111 112
f 109 113 114
f 109 114 112
f 109 110 115
f 109 115 113
f 112 111 116
f 112 116 99
f 112 114 104
f 112 104 99
f 99 116 117
f 99 117 100
f 100 117 118
f 100 118 105
f 105 118 119
f 105 119 106
f 106 119 120
f 106 120 107
f 107 108 121
f 107 121 120
f 122 123 124
f 122 124 125
f 122 126 127
f 122 127 125
f 122 123 128
f 122 128 126
f 125 124 129
f 125 129 130
f 125 127 131
f 125 131 130
f 130 129 132
f 130 132 110
f 130 131 115
f 130 115 110
f 110 132 133
f 110 133 111
f 111 133 134
f 111 134 116
f 116 134 135
f 116 135 117
f 117 135 136
f 117 136 118
f 118 136 137
f 118 137 119
f 119 137 138
f 119 138 120
f 120 121 139
f 120 139 138
f 140 141 142
f 140 142 143
f 140 144 145
f 140 145 143
f 140 141 146
f 140 146 144
f 143 142 147
f 143 147 148
f 143 145 149
f 143 149 148
f 148 147 150
f 148 150 123
f 148 149 128
f 148 128 123
f 123 150 151
f 123 151 124
f 124 151 152
f 124 152 129
f 129 152 153
f 129 153 132
f 132 153 154
f 132 154 133
f 133 154 155
f 133 155 134
f 134 155 156
f 134 156 135
f 135 156 157
f 135 157 136
f 136 157 158
f 136 158 137
f 137 158 159
f 137 159 138
f 138 139 160
f 138 160 159
f 161 162 163
f 161 163 164
f 161 165 166
f 161 166 164
f 162 163 167
f 162 167 168
f 161 162 168
f 161 168 165
f 164 163 169
f 164 169 141
f 164 166 146
f 164 146 141
f 163 169 170
f 163 170 167
f 141 169 171
f 141 171 142
f 169 171 172
f 169 172 170
f 142 171 173
f 142 173 147
f 171 173 174
f 171 174 172
f 147 173 175
f 147 175 150
f 173 175 176
f 173 176 174
f 150 175 177
f 150 177 151
f 175 177 178
f 175 178 176
f 151 177 179
f 151 179 152
f 177 179 180
f 177 180 178
f 152 179 181
f 152 181 153
f 179 181 182
f 179 182 180
f 153 181 183
f 153 183 154
f 181 183 184
f 181 184 182
f 154 183 185
f 154 185 155
f 183 185 186
f 183 186 184
f 155 185 187
f 155 187 156
f 185 187 188
f 185 188 186
f 156 187 189
f 156 189 157
f 187 189 190
f 187 190 188
f 157 189 191
f 157 191 158
f 189 191 192
f 189 192 190
f 158 191 193
f 158 193 159
f 191 193 194
f 191 194 192
f 159 160 194
f 159 194 193
f 5 195 196
f 5 196 6
f 8 7 197
f 8 197 198
f 5 8 198
f 5 198 195
f 6 196 199
f 6 199 11
f 7 12 200
f 7 200 197
f 11 199 201
f 11 201 15
f 12 16 202
f 12 202 200
f 15 201 203
f 15 203 19
f 19 203 204
f 19 204 22
f 22 204 205
f 22 205 25
f 25 205 206
f 25 206 28
f 28 206 207
f 28 207 31
f 31 207 208
f 31 208 34
f 34 208 209
f 34 209 37
f 37 209 210
f 37 210 40
f 40 210 211
f 40 211 41
f 45 44 212
f 45 212 213
f 16 45 213
f 16 213 202
f 44 47 214
f 44 214 212
f 47 49 215
f 47 215 214
f 41 211 216
f 41 216 55
f 59 58 217
f 59 217 218
f 49 59 218
f 49 218 215
f 58 61 219
f 58 219 217
f 55 216 220
f 55 220 65
f 69 68 221
f 69 221 222
f 61 69 222
f 61 222 219
f 65 220 223
f 65 223 72
f 76 75 224
f 76 224 225
f 68 76 225
f 68 225 221
f 72 223 226
f 72 226 78
f 75 81 227
f 75 227 224
f 78 226 228
f 78 228 82
f 81 85 229
f 81 229 227
f 82 228 230
f 82 230 86
f 85 89 231
f 85 231 229
f 86 230 232
f 86 232 90
f 94 233 231
f 94 231 89
f 94 95 234
f 94 234 233
f 90 232 235
f 90 235 97
f 102 236 237
f 102 237 103
f 102 104 238
f 102 238 236
f 103 237 234
f 103 234 95
f 97 235 239
f 97 239 108
f 113 240 241
f 113 241 114
f 113 115 242
f 113 242 240
f 114 241 238
f 114 238 104
f 108 239 243
f 108 243 121
f 126 244 245
f 126 245 127
f 126 128 246
f 126 246 244
f 127 245 247
f 127 247 131
f 131 247 242
f 131 242 115
f 121 243 248
f 121 248 139
f 144 249 250
f 144 250 145
f 144 146 251
f 144 251 249
f 145 250 252
f 145 252 149
f 149 252 246
f 149 246 128
f 139 248 253
f 139 253 160
f 165 254 255
f 165 255 166
f 168 167 256
f 168 256 257
f 165 168 257
f 165 257 254
f 166 255 251
f 166 251 146
f 167 170 258
f 167 258 256
f 170 172 259
f 170 259 258
f 172 174 260
f 172 260 259
f 174 176 261
f 174 261 260
f 176 178 262
f 176 262 261
f 178 180 263
f 178 263 262
f 180 182 264
f 180 264 263
f 182 184 265
f 182 265 264
f 184 186 266
f 184 266 265
f 186 188 267
f 186 267 266
f 188 190 268
f 188 268 267
f 190 192 269
f 190 269 268
f 192 194 270
f 192 270 269
f 160 253 270
f 160 270 194
f 195 271 272
f 195 272 196
f 198 197 273
f 198 273 274
f 195 198 274
f 195 274 271
f 196 272 275
f 196 275 199
f 197 200 276
f 197 276 273
f 199 275 277
f 199 277 201
f 200 202 278
f 200 278 276
f 201 277 279
f 201 279 203
f 203 279 280
f 203 280 204
f 204 280 281
f 204 281 205
f 205 281 282
f 205 282 206
f 206 282 283
f 206 283 207
f 207 283 284
f 207 284 208
f 208 284 285
f 208 285 209
f 209 285 286
f 209 286 210
f 210 286 287
f 210 287 211
f 213 212 288
f 213 288 289
f 202 213 289
f 202 289 278
f 212 214 290
f 212 290 288
f 214 215 291
f 214 291 290
f 211 287 292
f 211 292 216
f 218 217 293
f 218 293 294
f 215 218 294
f 215 294 291
f 217 219 295
f 217 295 293
f 216 292 296
f 216 296 220
f 222 221 297
f 222 297 298
f 219 222 298
f 219 298 295
f 220 296 299
f 220 299 223
f 225 224 300
f 225 300 301
f 221 225 301
f 221 301 297
f 223 299 302
f 223 302 226
f 224 227 303
f 224 303 300
f 226 302 304
f 226 304 228
f 227 229 305
f 227 305 303
f 228 304 306
f 228 306 230
f 229 231 307
f 229 307 305
f 230 306 308
f 230 308 232
f 233 309 307
f 233 307 231
f 233 234 310
f 233 310 309
f 232 308 311
f 232 311 235
f 236 312 313
f 236 313 237
f 236 238 314
f 236 314 312
f 237 313 310
f 237 310 234
f 235 311 315
f 235 315 239
f 240 316 317
f 240 317 241
f 240 242 318
f 240 318 316
f 241 317 314
f 241 314 238
f 239 315 319
f 239 319 243
f 244 320 321
f 244 321 245
f 244 246 322
f 244 322 320
f 245 321 323
f 245 323 247
f 247 323 318
f 247 318 242
f 243 319 324
f 243 324 248
f 249 325 326
f 249 326 250
f 249 251 327
f 249 327 325
f 250 326 328
f 250 328 252
f 252 328 322
f 252 322 246
f 248 324 329
f 248 329 253
f 254 330 331
f 254 331 255
f 257 256 332
f 257 332 333
f 254 257 333
f 254 333 330
f 255 331 327
f 255 327 251
f 256 258 334
f 256 334 332
f 258 259 335
f 258 335 334
f 259 260 336
f 259 336 335
f 260 261 337
f 260 337 336
f 261 262 338
f 261 338 337
f 262 263 339
f 262 339 338
f 263 264 340
f 263 340 339
f 264 265 341
f 264 341 340
f 265 266 342
f 265 342 341
f 266 267 343
f 266 343 342
f 267 268 344
f 267 344 343
f 268 269 345
f 268 345 344
f 269 270 346
f 269 346 345
f 253 329 346
f 253 346 270
f 271 347 348
f 271 348 272
f 274 273 349
f 274 349 350
f 271 274 350
f 271 350 347
f 272 348 351
f 272 351 275
f 273 276 352
f 273 352 349
f 275 351 353
f 275 353 277
f 276 278 354
f 276 354 352
f 277 353 355
f 277 355 279
f 279 355 356
f 279 356 280
f 280 356 357
f 280 357 281
f 281 357 358
f 281 358 282
f 282 358 359
f 282 359 283
f 283 359 360
f 283 360 284
f 284 360 361
f 284 361 285
f 285 361 362
f 285 362 286
f 286 362 363
f 286 363 287
f 289 288 364
f 289 364 365
f 278 289 365
f 278 365 354
f 288 290 366
f 288 366 364
f 290 291 367
f 290 367 366
f 287 363 368
f 287 368 292
f 294 293 369
f 294 369 370
f 291 294 370
f 291 370 367
f 293 295 371
f 293 371 369
f 292 368 372
f 292 372 296
f 298 297 373
f 298 373 374
f 295 298 374
f 295 374 371
f 296 372 375
f 296 375 299
f 301 300 376
f 301 376 377
f 297 301 377
f 297 377 373
f 299 375 378
f 299 378 302
f 300 303 379
f 300 379 376
f 302 378 380
f 302 380 304
f 303 305 381
f 303 381 379
f 304 380 382
f 304 382 306
f 305 307 383
f 305 383 381
f 306 382 384
f 306 384 308
f 309 385 383
f 309 383 307
f 309 310 386
f 309 386 385
f 308 384 387
f 308 387 311
f 312 388 389
f 312 389 313
f 312 314 390
f 312 390 388
f 313 389 386
f 313 386 310
f 311 387 391
f 311 391 315
f 316 392 393
f 316 393 317
f 316 318 394
f 316 394 392
f 317 393 390
f 317 390 314
f 315 391 395
f 315 395 319
f 320 396 397
f 320 397 321
f 320 322 398
f 320 398 396
f 321 397 399
f 321 399 323
f 323 399 394
f 323 394 318
f 319 395 400
f 319 400 324
f 325 401 402
f 325 402 326
f 325 327 403
f 325 403 401
f 326 402 404
f 326 404 328
f 328 404 398
f 328 398 322
f 324 400 405
f 324 405 329
f 330 406 407
f 330 407 331
f 333 332 408
f 333 408 409
f 330 333 409
f 330 409 406
f 331 407 403
f 331 403 327
f 332 334 410
f 332 410 408
f 334 335 411
f 334 411 410
f 335 336 412
f 335 412 411
f 336 337 413
f 336 413 412
f 337 338 414
f 337 414 413
f 338 339 415
f 338 415 414
f 339 340 416
f 339 416 415
f 340 341 417
f 340 417 416
f 341 342 418
f 341 418 417
f 342 343 419
f 342 419 418
f 343 344 420
f 343 420 419
f 344 345 421
f 344 421 420
f 345 346 422
f 345 422 421
f 329 405 422
f 329 422 346
f 347 423 424
f 347 424 348
f 350 349 425
f 350 425 426
f 347 350 426
f 347 426 423
f 348 424 427
f 348 427 351
f 349 352 428
f 349 428 425
f 351 427 429
f 351 429 353
f 352 354 430
f 352 430 428
f 353 429 431
f 353 431 355
f 355 431 432
f 355 432 356
f 356 432 433
f 356 433 357
f 357 433 434
f 357 434 358
f 358 434 435
f 358 435 359
f 359 435 436
f 359 436 360
f 360 436 437
f 360 437 361
f 361 437 438
f 361 438 362
f 362 438 439
f 362 439 363
f 365 364 440
f 365 440 441
f 354 365 441
f 354 441 430
f 364 366 442
f 364 442 440
f 366 367 443
f 366 443 442
f 363 439 444
f 363 444 368
f 370 369 445
f 370 445 446
f 367 370 446
f 367 446 443
f 369 371 447
f 369 447 445
f 368 444 448
f 368 448 372
f 374 373 449
f 374 449 450
f 371 374 450
f 371 450 447
f 372 448 451
f 372 451 375
f 377 376 452
f 377 452 453
f 373 377 453
f 373 453 449
f 375 451 454
f 375 454 378
f 376 379 455
f 376 455 452
f 378 454 456
f 378 456 380
f 379 381 457
f 379 457 455
f 380 456 458
f 380 458 382
f 381 383 459
f 381 459 457
f 382 458 460
f 382 460 384
f 385 461 459
f 385 459 383
f 385 386 462
f 385 462 461
f 384 460 463
f 384 463 387
f 388 464 465
f 388 465 389
f 388 390 466
f 388 466 464
f 389 465 462
f 389 462 386
f 387 463 467
f 387 467 391
f 392 468 469
f 392 469 393
f 392 394 470
f 392 470 468
f 393 469 466
f 393 466 390
f 391 467 471
f 391 471 395
f 396 472 473
f 396 473 397
f 396 398 474
f 396 474 472
f 397 473 475
f 397 475 399
f 399 475 470
f 399 470 394
f 395 471 476
f 395 476 400
f 401 477 478
f 401 478 402
f 401 403 479
f 401 479 477
f 402 478 480
f 402 480 404
f 404 480 474
f 404 474 398
f 400 476 481
f 400 481 405
f 406 482 483
f 406 483 407
f 409 408 484
f 409 484 485
f 406 409 485
f 406 485 482
f 407 483 479
f 407 479 403
f 408 410 486
f 408 486 484
f 410 411 487
f 410 487 486
f 411 412 488
f 411 488 487
f 412 413 489
f 412 489 488
f 413 414 490
f 413 490 489
f 414 415 491
f 414 491 490
f 415 416 492
f 415 492 491
f 416 417 493
f 416 493 492
f 417 418 494
f 417 494 493
f 418 419 495
f 418 495 494
f 419 420 496
f 419 496 495
f 420 421 497
f 420 497 496
f 421 422 498
f 421 498 497
f 405 481 498
f 405 498 422
f 423 499 500
f 423 500 424
f 426 425 501
f 426 501 502
f 423 426 502
f 423 502 499
f 424 500 503
f 424 503 427
f 425 428 504
f 425 504 501
f 427 503 505
f 427 505 429
f 428 430 506
f 428 506 504
f 429 505 507
f 429 507 431
f 431 507 508
f 431 508 432
f 432 508 509
f 432 509 433
f 433 509 510
f 433 510 434
f 434 510 511
f 434 511 435
f 435 511 512
f 435 512 436
f 436 512 513
f 436 513 437
f 437 513 514
f 437 514 438
f 438 514 515
f 438 515 439
f 441 440 516
f 441 516 517
f 430 441 517
f 430 517 506
f 440 442 518
f 440 518 516
f 442 443 519
f 442 519 518
f 439 515 520
f 439 520 444
f 446 445 521
f 446 521 522
f 443 446 522
f 443 522 519
f 445 447 523
f 445 523 521
f 444 520 524
f 444 524 448
f 450 449 525
f 450 525 526
f 447 450 526
f 447 526 523
f 448 524 527
f 448 527 451
f 453 452 528
f 453 528 529
f 449 453 529
f 449 529 525
f 451 527 530
f 451 530 454
f 452 455 531
f 452 531 528
f 454 530 532
f 454 532 456
f 455 457 533
f 455 533 531
f 456 532 534
f 456 534 458
f 457 459 535
f 457 535 533
f 458 534 536
f 458 536 460
f 461 537 535
f 461 535 459
f 461 462 538
f 461 538 537
f 460 536 539
f 460 539 463
f 464 540 541
f 464 541 465
f 464 466 542
f 464 542 540
f 465 541 538
f 465 538 462
f 463 539 543
f 463 543 467
f 468 544 545
f 468 545 469
f 468 470 546
f 468 546 544
f 469 545 542
f 469 542 466
f 467 543 547
f 467 547 471
f 472 548 549
f 472 549 473
f 472 474 550
f 472 550 548
f 473 549 551
f 473 551 475
f 475 551 546
f 475 546 470
f 471 547 552
f 471 552 476
f 477 553 554
f 477 554 478
f 477 479 555
f 477 555 553
f 478 554 556
f 478 556 480
f 480 556 550
f 480 550 474
f 476 552 557
f 476 557 481
f 482 558 559
f 482 559 483
f 485 484 560
f 485 560 561
f 482 485 561
f 482 561 558
f 483 559 555
f 483 555 479
f 484 486 562
f 484 562 560
f 486 487 563
f 486 563 562
f 487 488 564
f 487 564 563
f 488 489 565
f 488 565 564
f 489 490 566
f 489 566 565
f 490 491 567
f 490 567 566
f 491 492 568
f 491 568 567
f 492 493 569
f 492 569 568
f 493 494 570
f 493 570 569
f 494 495 571
f 494 571 570
f 495 496 572
f 495 572 571
f 496 497 573
f 496 573 572
f 497 498 574
f 497 574 573
f 481 557 574
f 481 574 498
f 499 575 576
f 499 576 500
f 502 501 577
f 502 577 578
f 499 502 578
f 499 578 575
f 500 576 579
f 500 579 503
f 501 504 580
f 501 580 577
f 503 579 581
f 503 581 505
f 504 506 582
f 504 582 580
f 505 581 583
f 505 583 507
f 507 583 584
f 507 584 508
f 508 584 585
f 508 585 509
f 509 585 586
f 509 586 510
f 510 586 587
f 510 587 511
f 511 587 588
f 511 588 512
f 512 588 589
f 512 589 513
f 513 589 590
f 513 590 514
f 514 590 591
f 514 591 515
f 517 516 592
f 517 592 593
f 506 517 593
f 506 593 582
f 516 518 594
f 516 594 592
f 518 519 595
f 518 595 594
f 515 591 596
f 515 596 520
f 522 521 597
f 522 597 598
f 519 522 598
f 519 598 595
f 521 523 599
f 521 599 597
f 520 596 600
f 520 600 524
f 526 525 601
f 526 601 602
f 523 526 602
f 523 602 599
f 524 600 603
f 524 603 527
f 529 528 604
f 529 604 605
f 525 529 605
f 525 605 601
f 527 603 606
f 527 606 530
f 528 531 607
f 528 607 604
f 530 606 608
f 530 608 532
f 531 533 609
f 531 609 607
f 532 608 610
f 532 610 534
f 533 535 611
f 533 611 609
f 534 610 612
f 534 612 536
f 537 613 611
f 537 611 535
f 537 538 614
f 537 614 613
f 536 612 615
f 536 615 539
f 540 616 617
f 540 617 541
f 540 542 618
f 540 618 616
f 541 617 614
f 541 614 538
f 539 615 619
f 539 619 543
f 544 620 621
f 544 621 545
f 544 546 622
f 544 622 620
f 545 621 618
f 545 618 542
f 543 619 623
f 543 623 547
f 548 624 625
f 548 625 549
f 548 550 626
f 548 626 624
f 549 625 627
f 549 627 551
f 551 627 622
f 551 622 546
f 547 623 628
f 547 628 552
f 553 629 630
f 553 630 554
f 553 555 631
f 553 631 629
f 554 630 632
f 554 632 556
f 556 632 626
f 556 626 550
f 552 628 633
f 552 633 557
f 558 634 635
f 558 635 559
f 561 560 636
f 561 636 637
f 558 561 637
f 558 637 634
f 559 635 631
f 559 631 555
f 560 562 638
f 560 638 636
f 562 563 639
f 562 639 638
f 563 564 640
f 563 640 639
f 564 565 641
f 564 641 640
f 565 566 642
f 565 642 641
f 566 567 643
f 566 643 642
f 567 568 644
f 567 644 643
f 568 569 645
f 568 645 644
f 569 570 646
f 569 646 645
f 570 571 647
f 570 647 646
f 571 572 648
f 571 648 647
f 572 573 649
f 572 649 648
f 573 574 650
f 573 650 649
f 557 633 650
f 557 650 574
f 575 651 652
f 575 652 576
f 578 577 653
f 578 653 654
f 575 578 654
f 575 654 651
f 576 652 655
f 576 655 579
f 577 580 656
f 577 656 653
f 579 655 657
f 579 657 581
f 580 582 658
f 580 658 656
f 581 657 659
f 581 659 583
f 583 659 660
f 583 660 584
f 584 660 661
f 584 661 585
f 585 661 662
f 585 662 586
f 586 662 663
f 586 663 587
f 587 663 664
f 587 664 588
f 588 664 665
f 588 665 589
f 589 665 666
f 589 666 590
f 590 666 667
f 590 667 591
f 593 592 668
f 593 668 669
f 582 593 669
f 582 669 658
f 592 594 670
f 592 670 668
f 594 595 671
f 594 671 670
f 591 667 672
f 591 672 596
f 598 597 673
f 598 673 674
f 595 598 674
f 595 674 671
f 597 599 675
f 597 675 673
f 596 672 676
f 596 676 600
f 602 601 677
f 602 677 678
f 599 602 678
f 599 678 675
f 600 676 679
f 600 679 603
f 605 604 680
f 605 680 681
f 601 605 681
f 601 681 677
f 603 679 682
f 603 682 606
f 604 607 683
f 604 683 680
f 606 682 684
f 606 684 608
f 607 609 685
f 607 685 683
f 608 684 686
f 608 686 610
f 609 611 687
f 609 687 685
f 610 686 688
f 610 688 612
f 613 689 687
f 613 687 611
f 613 614 690
f 613 690 689
f 612 688 691
f 612 691 615
f 616 692 693
f 616 693 617
f 616 618 694
f 616 694 692
f 617 693 690
f 617 690 614
f 615 691 695
f 615 695 619
f 620 696 697
f 620 697 621
f 620 622 698
f 620 698 696
f 621 697 694
f 621 694 618
f 619 695 699
f 619 699 623
f 624 700 701
f 624 701 625
f 624 626 702
f 624 702 700
f 625 701 703
f 625 703 627
f 627 703 698
f 627 698 622
f 623 699 704
f 623 704 628
f 629 705 706
f 629 706 630
f 629 631 707
f 629 707 705
f 630 706 708
f 630 708 632
f 632 708 702
f 632 702 626
f 628 704 709
f 628 709 633
f 634 710 711
f 634 711 635
f 637 636 712
f 637 712 713
f 634 637 713
f 634 713 710
f 635 711 707
f 635 707 631
f 636 638 714
f 636 714 712
f 638 639 715
f 638 715 714
f 639 640 716
f 639 716 715
f 640 641 717
f 640 717 716
f 641 642 718
f 641 718 717
f 642 643 719
f 642 719 718
f 643 644 720
f 643 720 719
f 644 645 721
f 644 721 720
f 645 646 722
f 645 722 721
f 646 647 723
f 646 723 722
f 647 648 724
f 647 724 723
f 648 649 725
f 648 725 724
f 649 650 726
f 649 726 725
f 633 709 726
f 633 726 650
f 651 727 728
f 651 728 652
f 654 653 729
f 654 729 730
f 651 654 730
f 651 730 727
f 652 728 731
f 652 731 655
f 653 656 732
f 653 732 729
f 655 731 733
f 655 733 657
f 656 658 734
f 656 734 732
f 657 733 735
f 657 735 659
f 659 735 736
f 659 736 660
f 660 736 737
f 660 737 661
f 661 737 738
f 661 738 662
f 662 738 739
f 662 739 663
f 663 739 740
f 663 740 664
f 664 740 741
f 664 741 665
f 665 741 742
f 665 742 666
f 666 742 743
f 666 743 667
f 669 668 744
f 669 744 745
f 658 669 745
f 658 745 734
f 668 670 746
f 668 746 744
f 670 671 747
f 670 747 746
f 667 743 748
f 667 748 672
f 674 673 749
f 674 749 750
f 671 674 750
f 671 750 747
f 673 675 751
f 673 751 749
f 672 748 752
f 672 752 676
f 678 677 753
f 678 753 754
f 675 678 754
f 675 754 751
f 676 752 755
f 676 755 679
f 681 680 756
f 681 756 757
f 677 681 757
f 677 757 753
f 679 755 758
f 679 758 682
f 680 683 759
f 680 759 756
f 682 758 760
f 682 760 684
f 683 685 761
f 683 761 759
f 684 760 762
f 684 762 686
f 685 687 763
f 685 763 761
f 686 762 764
f 686 764 688
f 689 765 763
f 689 763 687
f 689 690 766
f 689 766 765
f 688 764 767
f 688 767 691
f 692 768 769
f 692 769 693
f 692 694 770
f 692 770 768
f 693 769 766
f 693 766 690
f 691 767 771
f 691 771 695
f 696 772 773
f 696 773 697
f 696 698 774
f 696 774 772
f 697 773 770
f 697 770 694
f 695 771 775
f 695 775 699
f 700 776 777
f 700 777 701
f 700 702 778
f 700 778 776
f 701 777 779
f 701 779 703
f 703 779 774
f 703 774 698
f 699 775 780
f 699 780 704
f 705 781 782
f 705 782 706
f 705 707 783
f 705 783 781
f 706 782 784
f 706 784 708
f 708 784 778
f 708 778 702
f 704 780 785
f 704 785 709
f 710 786 787
f 710 787 711
f 713 712 788
f 713 788 789
f 710 713 789
f 710 789 786
f 711 787 783
f 711 783 707
f 712 714 790
f 712 790 788
f 714 715 791
f 714 791 790
f 715 716 792
f 715 792 791
f 716 717 793
f 716 793 792
f 717 718 794
f 717 794 793
f 718 719 795
f 718 795 794
f 719 720 796
f 719 796 795
f 720 721 797
f 720 797 796
f 721 722 798
f 721 798 797
f 722 723 799
f 722 799 798
f 723 724 800
f 723 800 799
f 724 725 801
f 724 801 800
f 725 726 802
f 725 802 801
f 709 785 802
f 709 802 726
f 727 803 804
f 727 804 728
f 730 729 805
f 730 805 806
f 727 730 806
f 727 806 803
f 728 804 807
f 728 807 731
f 729 732 808
f 729 808 805
f 731 807 809
f 731 809 733
f 732 734 810
f 732 810 808
f 733 809 811
f 733 811 735
f 735 811 812
f 735 812 736
f 736 812 813
f 736 813 737
f 737 813 814
f 737 814 738
f 738 814 815
f 738 815 739
f 739 815 816
f 739 816 740
f 740 816 817
f 740 817 741
f 741 817 818
f 741 818 742
f 742 818 819
f 742 819 743
f 745 744 820
f 745 820 821
f 734 745 821
f 734 821 810
f 744 746 822
f 744 822 820
f 746 747 823
f 746 823 822
f 743 819 824
f 743 824 748
f 750 749 825
f 750 825 826
f 747 750 826
f 747 826 823
f 749 751 827
f 749 827 825
f 748 824 828
f 748 828 752
f 754 753 829
f 754 829 830
f 751 754 830
f 751 830 827
f 752 828 831
f 752 831 755
f 757 756 832
f 757 832 833
f 753 757 833
f 753 833 829
f 755 831 834
f 755 834 758
f 756 759 835
f 756 835 832
f 758 834 836
f 758 836 760
f 759 761 837
f 759 837 835
f 760 836 838
f 760 838 762
f 761 763 839
f 761 839 837
f 762 838 840
f 762 840 764
f 765 841 839
f 765 839 763
f 765 766 842
f 765 842 841
f 764 840 843
f 764 843 767
f 768 844 845
f 768 845 769
f 768 770 846
f 768 846 844
f 769 845 842
f 769 842 766
f 767 843 847
f 767 847 771
f 772 848 849
f 772 849 773
f 772 774 850
f 772 850 848
f 773 849 846
f 773 846 770
f 771 847 851
f 771 851 775
f 776 852 853
f 776 853 777
f 776 778 854
f 776 854 852
f 777 853 855
f 777 855 779
f 779 855 850
f 779 850 774
f 775 851 856
f 775 856 780
f 781 857 858
f 781 858 782
f 781 783 859
f 781 859 857
f 782 858 860
f 782 860 784
f 784 860 854
f 784 854 778
f 780 856 861
f 780 861 785
f 786 862 863
f 786 863 787
f 789 788 864
f 789 864 865
f 786 789 865
f 786 865 862
f 787 863 859
f 787 859 783
f 788 790 866
f 788 866 864
f 790 791 867
f 790 867 866
f 791 792 868
f 791 868 867
f 792 793 869
f 792 869 868
f 793 794 870
f 793 870 869
f 794 795 871
f 794 871 870
f 795 796 872
f 795 872 871
f 796 797 873
f 796 873 872
f 797 798 874
f 797 874 873
f 798 799 875
f 798 875 874
f 799 800 876
f 799 876 875
f 800 801 877
f 800 877 876
f 801 802 878
f 801 878 877
f 785 861 878
f 785 878 802
f 803 879 880
f 803 880 804
f 806 805 881
f 806 881 882
f 803 806 882
f 803 882 879
f 804 880 883
f 804 883 807
f 805 808 884
f 805 884 881
f 807 883 885
f 807 885 809
f 808 810 886
f 808 886 884
f 809 885 887
f 809 887 811
f 811 887 888
f 811 888 812
f 812 888 889
f 812 889 813
f 813 889 890
f 813 890 814
f 814 890 891
f 814 891 815
f 815 891 892
f 815 892 816
f 816 892 893
f 816 893 817
f 817 893 894
f 817 894 818
f 818 894 895
f 818 895 819
f 821 820 896
f 821 896 897
f 810 821 897
f 810 897 886
f 820 822 898
f 820 898 896
f 822 823 899
f 822 899 898
f 819 895 900
f 819 900 824
f 826 825 901
f 826 901 902
f 823 826 902
f 823 902 899
f 825 827 903
f 825 903 901
f 824 900 904
f 824 904 828
f 830 829 905
f 830 905 906
f 827 830 906
f 827 906 903
f 828 904 907
f 828 907 831
f 833 832 908
f 833 908 909
f 829 833 909
f 829 909 905
f 831 907 910
f 831 910 834
f 832 835 911
f 832 911 908
f 834 910 912
f 834 912 836
f 835 837 913
f 835 913 911
f 836 912 914
f 836 914 838
f 837 839 915
f 837 915 913
f 838 914 916
f 838 916 840
f 841 917 915
f 841 915 839
f 841 842 918
f 841 918 917
f 840 916 919
f 840 919 843
f 844 920 921
f 844 921 845
f 844 846 922
f 844 922 920
f 845 921 918
f 845 918 842
f 843 919 923
f 843 923 847
f 848 924 925
f 848 925 849
f 848 850 926
f 848 926 924
f 849 925 922
f 849 922 846
f 847 923 927
f 847 927 851
f 852 928 929
f 852 929 853
f 852 854 930
f 852 930 928
f 853 929 931
f 853 931 855
f 855 931 926
f 855 926 850
f 851 927 932
f 851 932 856
f 857 933 934
f 857 934 858
f 857 859 935
f 857 935 933
f 858 934 936
f 858 936 860
f 860 936 930
f 860 930 854
f 856 932 937
f 856 937 861
f 862 938 939
f 862 939 863
f 865 864 940
f 865 940 941
f 862 865 941
f 862 941 938
f 863 939 935
f 863 935 859
f 864 866 942
f 864 942 940
f 866 867 943
f 866 943 942
f 867 868 944
f 867 944 943
f 868 869 945
f 868 945 944
f 869 870 946
f 869 946 945
f 870 871 947
f 870 947 946
f 871 872 948
f 871 948 947
f 872 873 949
f 872 949 948
f 873 874 950
f 873 950 949
f 874 875 951
f 874 951 950
f 875 876 952
f 875 952 951
f 876 877 953
f 876 953 952
f 877 878 954
f 877 954 953
f 861 937 954
f 861 954 878
f 879 955 956
f 879 956 880
f 882 881 957
f 882 957 958
f 879 882 958
f 879 958 955
f 880 956 959
f 880 959 883
f 881 884 960
f 881 960 957
f 883 959 961
f 883 961 885
f 884 886 962
f 884 962 960
f 885 961 963
f 885 963 887
f 887 963 964
f 887 964 888
f 888 964 965
f 888 965 889
f 889 965 966
f 889 966 890
f 890 966 967
f 890 967 891
f 891 967 968
f 891 968 892
f 892 968 969
f 892 969 893
f 893 969 970
f 893 970 894
f 894 970 971
f 894 971 895
f 897 896 972
f 897 972 973
f 886 897 973
f 886 973 962
f 896 898 974
f 896 974 972
f 898 899 975
f 898 975 974
f 895 971 976
f 895 976 900
f 902 901 977
f 902 977 978
f 899 902 978
f 899 978 975
f 901 903 979
f 901 979 977
f 900 976 980
f 900 980 904
f 906 905 981
f 906 981 982
f 903 906 982
f 903 982 979
f 904 980 983
f 904 983 907
f 909 908 984
f 909 984 985
f 905 909 985
f 905 985 981
f 907 983 986
f 907 986 910
f 908 911 987
f 908 987 984
f 910 986 988
f 910 988 912
f 911 913 989
f 911 989 987
f 912 988 990
f 912 990 914
f 913 915 991
f 913 991 989
f 914 990 992
f 914 992 916
f 917 993 991
f 917 991 915
f 917 918 994
f 917 994 993
f 916 992 995
f 916 995 919
f 920 996 997
f 920 997 921
f 920 922 998
f 920 998 996
f 921 997 994
f 921 994 918
f 919 995 999
f 919 999 923
f 924 1000 1001
f 924 1001 925
f 924 926 1002
f 924 1002 1000
f 925 1001 998
f 925 998 922
f 923 999 1003
f 923 1003 927
f 928 1004 1005
f 928 1005 929
f 928 930 1006
f 928 1006 1004
f 929 1005 1007
f 929 1007 931
f 931 1007 1002
f 931 1002 926
f 927 1003 1008
f 927 1008 932
f 933 1009 1010
f 933 1010 934
f 933 935 1011
f 933 1011 1009
f 934 1010 1012
f 934 1012 936
f 936 1012 1006
f 936 1006 930
f 932 1008 1013
f 932 1013 937
f 938 1014 1015
f 938 1015 939
f 941 940 1016
f 941 1016 1017
f 938 941 1017
f 938 1017 1014
f 939 1015 1011
f 939 1011 935
f 940 942 1018
f 940 1018 1016
f 942 943 1019
f 942 1019 1018
f 943 944 1020
f 943 1020 1019
f 944 945 1021
f 944 1021 1020
f 945 946 1022
f 945 1022 1021
f 946 947 1023
f 946 1023 1022
f 947 948 1024
f 947 1024 1023
f 948 949 1025
f 948 1025 1024
f 949 950 1026
f 949 1026 1025
f 950 951 1027
f 950 1027 1026
f 951 952 1028
f 951 1028 1027
f 952 953 1029
f 952 1029 1028
f 953 954 1030
f 953 1030 1029
f 937 1013 1030
f 937 1030 954
f 955 1031 1032
f 955 1032 956
f 958 957 1033
f 958 1033 1034
f 955 958 1034
f 955 1034 1031
f 956 1032 1035
f 956 1035 959
f 957 960 1036
f 957 1036 1033
f 959 1035 1037
f 959 1037 961
f 960 962 1038
f 960 1038 1036
f 961 1037 1039
f 961 1039 963
f 963 1039 1040
f 963 1040 964
f 964 1040 1041
f 964 1041 965
f 965 1041 1042
f 965 1042 966
f 966 1042 1043
f 966 1043 967
f 967 1043 1044
f 967 1044 968
f 968 1044 1045
f 968 1045 969
f 969 1045 1046
f 969 1046 970
f 970 1046 1047
f 970 1047 971
f 973 972 1048
f 973 1048 1049
f 962 973 1049
f 962 1049 1038
f 972 974 1050
f 972 1050 1048
f 974 975 1051
f 974 1051 1050
f 971 1047 1052
f 971 1052 976
f 978 977 1053
f 978 1053 1054
f 975 978 1054
f 975 1054 1051
f 977 979 1055
f 977 1055 1053
f 976 1052 1056
f 976 1056 980
f 982 981 1057
f 982 1057 1058
f 979 982 1058
f 979 1058 1055
f 980 1056 1059
f 980 1059 983
f 985 984 1060
f 985 1060 1061
f 981 985 1061
f 981 1061 1057
f 983 1059 1062
f 983 1062 986
f 984 987 1063
f 984 1063 1060
f 986 1062 1064
f 986 1064 988
f 987 989 1065
f 987 1065 1063
f 988 1064 1066
f 988 1066 990
f 989 991 1067
f 989 1067 1065
f 990 1066 1068
f 990 1068 992
f 993 1069 1067
f 993 1067 991
f 993 994 1070
f 993 1070 1069
f 992 1068 1071
f 992 1071 995
f 996 1072 1073
f 996 1073 997
f 996 998 1074
f 996 1074 1072
f 997 1073 1070
f 997 1070 994
f 995 1071 1075
f 995 1075 999
f 1000 1076 1077
f 1000 1077 1001
f 1000 1002 1078
f 1000 1078 1076
f 1001 1077 1074
f 1001 1074 998
f 999 1075 1079
f 999 1079 1003
f 1004 1080 1081
f 1004 1081 1005
f 1004 1006 1082
f 1004 1082 1080
f 1005 1081 1083
f 1005 1083 1007
f 1007 1083 1078
f 1007 1078 1002
f 1003 1079 1084
f 1003 1084 1008
f 1009 1085 1086
f 1009 1086 1010
f 1009 1011 1087
f 1009 1087 1085
f 1010 1086 1088
f 1010 1088 1012
f 1012 1088 1082
f 1012 1082 1006
f 1008 1084 1089
f 1008 1089 1013
f 1014 1090 1091
f 1014 1091 1015
f 1017 1016 1092
f 1017 1092 1093
f 1014 1017 1093
f 1014 1093 1090
f 1015 1091 1087
f 1015 1087 1011
f 1016 1018 1094
f 1016 1094 1092
f 1018 1019 1095
f 1018 1095 1094
f 1019 1020 1096
f 1019 1096 1095
f 1020 1021 1097
f 1020 1097 1096
f 1021 1022 1098
f 1021 1098 1097
f 1022 1023 1099
f 1022 1099 1098
f 1023 1024 1100
f 1023 1100 1099
f 1024 1025 1101
f 1024 1101 1100
f 1025 1026 1102
f 1025 1102 1101
f 1026 1027 1103
f 1026 1103 1102
f 1027 1028 1104
f 1027 1104 1103
f 1028 1029 1105
f 1028 1105 1104
f 1029 1030 1106
f 1029 1106 1105
f 1013 1089 1106
f 1013 1106 1030
f 1107 1108 1109
f 1107 1109 1110
f 1031 1107 1108
f 1031 1108 1032
f 1034 1033 1109
f 1034 1109 1110
f 1031 1034 1110
f 1031 1110 1107
f 1108 1111 1112
f 1108 1112 1109
f 1032 1108 1111
f 1032 1111 1035
f 1033 1036 1112
f 1033 1112 1109
f 1111 1113 1114
f 1111 1114 1112
f 1035 1111 1113
f 1035 1113 1037
f 1036 1038 1114
f 1036 1114 1112
f 1113 1115 1116
f 1113 1116 1114
f 1037 1113 1115
f 1037 1115 1039
f 1115 1117 1118
f 1115 1118 1116
f 1039 1115 1117
f 1039 1117 1040
f 1117 1119 1120
f 1117 1120 1118
f 1040 1117 1119
f 1040 1119 1041
f 1119 1121 1122
f 1119 1122 1120
f 1041 1119 1121
f 1041 1121 1042
f 1121 1123 1124
f 1121 1124 1122
f 1042 1121 1123
f 1042 1123 1043
f 1123 1125 1126
f 1123 1126 1124
f 1043 1123 1125
f 1043 1125 1044
f 1125 1127 1128
f 1125 1128 1126
f 1044 1125 1127
f 1044 1127 1045
f 1127 1129 1130
f 1127 1130 1128
f 1045 1127 1129
f 1045 1129 1046
f 1046 1129 1130
f 1046 1130 1047
f 1114 1116 1131
f 1114 1131 1132
f 1049 1048 1131
f 1049 1131 1132
f 1038 1049 1132
f 1038 1132 1114
f 1116 1118 1133
f 1116 1133 1131
f 1048 1050 1133
f 1048 1133 1131
f 1118 1120 1134
f 1118 1134 1133
f 1050 1051 1134
f 1050 1134 1133
f 1120 1122 1135
f 1120 1135 1134
f 1122 1124 1136
f 1122 1136 1135
f 1124 1126 1137
f 1124 1137 1136
f 1126 1128 1138
f 1126 1138 1137
f 1128 1130 1139
f 1128 1139 1138
f 1047 1130 1139
f 1047 1139 1052
f 1134 1135 1140
f 1134 1140 1141
f 1054 1053 1140
f 1054 1140 1141
f 1051 1054 1141
f 1051 1141 1134
f 1135 1136 1142
f 1135 1142 1140
f 1053 1055 1142
f 1053 1142 1140
f 1136 1137 1143
f 1136 1143 1142
f 1137 1138 1144
f 1137 1144 1143
f 1138 1139 1145
f 1138 1145 1144
f 1052 1139 1145
f 1052 1145 1056
f 1142 1143 1146
f 1142 1146 1147
f 1058 1057 1146
f 1058 1146 1147
f 1055 1058 1147
f 1055 1147 1142
f 1143 1144 1148
f 1143 1148 1146
f 1144 1145 1149
f 1144 1149 1148
f 1056 1145 1149
f 1056 1149 1059
f 1146 1148 1150
f 1146 1150 1151
f 1061 1060 1150
f 1061 1150 1151
f 1057 1061 1151
f 1057 1151 1146
f 1148 1149 1152
f 1148 1152 1150
f 1059 1149 1152
f 1059 1152 1062
f 1150 1152 1153
f 1150 1153 1154
f 1060 1063 1154
f 1060 1154 1150
f 1062 1152 1153
f 1062 1153 1064
f 1154 1153 1155
f 1154 1155 1156
f 1063 1065 1156
f 1063 1156 1154
f 1064 1153 1155
f 1064 1155 1066
f 1156 1155 1157
f 1156 1157 1158
f 1065 1067 1158
f 1065 1158 1156
f 1066 1155 1157
f 1066 1157 1068
f 1159 1158 1160
f 1159 1160 1161
f 1069 1159 1158
f 1069 1158 1067
f 1069 1070 1161
f 1069 1161 1159
f 1158 1157 1162
f 1158 1162 1160
f 1068 1157 1162
f 1068 1162 1071
f 1163 1164 1165
f 1163 1165 1166
f 1072 1163 1164
f 1072 1164 1073
f 1072 1074 1166
f 1072 1166 1163
f 1164 1161 1167
f 1164 1167 1165
f 1073 1164 1161
f 1073 1161 1070
f 1161 1160 1168
f 1161 1168 1167
f 1160 1162 1169
f 1160 1169 1168
f 1071 1162 1169
f 1071 1169 1075
f 1170 1171 1172
f 1170 1172 1173
f 1076 1170 1171
f 1076 1171 1077
f 1076 1078 1173
f 1076 1173 1170
f 1171 1166 1174
f 1171 1174 1172
f 1077 1171 1166
f 1077 1166 1074
f 1166 1165 1175
f 1166 1175 1174
f 1165 1167 1176
f 1165 1176 1175
f 1167 1168 1177
f 1167 1177 1176
f 1168 1169 1178
f 1168 1178 1177
f 1075 1169 1178
f 1075 1178 1079
f 1179 1180 1181
f 1179 1181 1182
f 1080 1179 1180
f 1080 1180 1081
f 1080 1082 1182
f 1080 1182 1179
f 1180 1183 1184
f 1180 1184 1181
f 1081 1180 1183
f 1081 1183 1083
f 1183 1173 1185
f 1183 1185 1184
f 1083 1183 1173
f 1083 1173 1078
f 1173 1172 1186
f 1173 1186 1185
f 1172 1174 1187
f 1172 1187 1186
f 1174 1175 1188
f 1174 1188 1187
f 1175 1176 1189
f 1175 1189 1188
f 1176 1177 1190
f 1176 1190 1189
f 1177 1178 1191
f 1177 1191 1190
f 1079 1178 1191
f 1079 1191 1084
f 1192 1193 1194
f 1192 1194 1195
f 1085 1192 1193
f 1085 1193 1086
f 1085 1087 1195
f 1085 1195 1192
f 1193 1196 1197
f 1193 1197 1194
f 1086 1193 1196
f 1086 1196 1088
f 1196 1182 1198
f 1196 1198 1197
f 1088 1196 1182
f 1088 1182 1082
f 1182 1181 1199
f 1182 1199 1198
f 1181 1184 1200
f 1181 1200 1199
f 1184 1185 1201
f 1184 1201 1200
f 1185 1186 1202
f 1185 1202 1201
f 1186 1187 1203
f 1186 1203 1202
f 1187 1188 1204
f 1187 1204 1203
f 1188 1189 1205
f 1188 1205 1204
f 1189 1190 1206
f 1189 1206 1205
f 1190 1191 1207
f 1190 1207 1206
f 1084 1191 1207
f 1084 1207 1089
f 1208 1209 1210
f 1208 1210 1211
f 1090 1208 1209
f 1090 1209 1091
f 1093 1092 1210
f 1093 1210 1211
f 1090 1093 1211
f 1090 1211 1208
f 1209 1195 1212
f 1209 1212 1210
f 1091 1209 1195
f 1091 1195 1087
f 1092 1094 1212
f 1092 1212 1210
f 1195 1194 1213
f 1195 1213 1212
f 1094 1095 1213
f 1094 1213 1212
f 1194 1197 1214
f 1194 1214 1213
f 1095 1096 1214
f 1095 1214 1213
f 1197 1198 1215
f 1197 1215 1214
f 1096 1097 1215
f 1096 1215 1214
f 1198 1199 1216
f 1198 1216 1215
f 1097 1098 1216
f 1097 1216 1215
f 1199 1200 1217
f 1199 1217 1216
f 1098 1099 1217
f 1098 1217 1216
f 1200 1201 1218
f 1200 1218 1217
f 1099 1100 1218
f 1099 1218 1217
f 1201 1202 1219
f 1201 1219 1218
f 1100 1101 1219
f 1100 1219 1218
f 1202 1203 1220
f 1202 1220 1219
f 1101 1102 1220
f 1101 1220 1219
f 1203 1204 1221
f 1203 1221 1220
f 1102 1103 1221
f 1102 1221 1220
f 1204 1205 1222
f 1204 1222 1221
f 1103 1104 1222
f 1103 1222 1221
f 1205 1206 1223
f 1205 1223 1222
f 1104 1105 1223
f 1104 1223 1222
f 1206 1207 1224
f 1206 1224 1223
f 1105 1106 1224
f 1105 1224 1223
f 1089 1207 1224
f 1089 1224 1106
