o [4B] 3D Diagram - S2-06 Group A_966
v -8.694000 13.521000 193.330000
v -8.694000 13.818000 193.330000
v -8.694000 13.818000 194.140000
v -8.694000 13.521000 194.140000
v -7.452000 13.521000 193.330000
v -7.452000 13.521000 194.140000
v -7.452000 13.818000 194.140000
v -7.452000 13.818000 193.330000
v -8.694000 13.818000 194.950000
v -8.694000 13.521000 194.950000
v -7.452000 13.521000 194.950000
v -7.452000 13.818000 194.950000
v -8.694000 13.818000 195.760000
v -8.694000 13.521000 195.760000
v -7.452000 13.521000 195.760000
v -7.452000 13.818000 195.760000
v -8.694000 13.818000 196.570000
v -8.694000 13.521000 196.570000
v -7.452000 13.521000 196.570000
v -7.452000 13.818000 196.570000
v -8.694000 13.818000 197.380000
v -8.694000 13.521000 197.380000
v -7.452000 13.521000 197.380000
v -8.694000 13.818000 198.190000
v -8.694000 13.521000 198.190000
v -7.452000 13.521000 198.190000
v -8.694000 13.818000 199.000000
v -8.694000 13.521000 199.000000
v -7.452000 13.521000 199.000000
v -8.694000 13.818000 199.810000
v -8.694000 13.521000 199.810000
v -7.452000 13.521000 199.810000
v -8.694000 13.818000 200.620000
v -8.694000 13.521000 200.620000
v -7.452000 13.521000 200.620000
v -8.694000 13.818000 201.430000
v -8.694000 13.521000 201.430000
v -7.452000 13.521000 201.430000
v -8.694000 13.818000 202.240000
v -8.694000 13.521000 202.240000
v -7.452000 13.521000 202.240000
v -8.694000 13.818000 203.050000
v -8.694000 13.521000 203.050000
v -7.452000 13.521000 203.050000
v -8.694000 13.818000 203.860000
v -8.694000 13.521000 203.860000
v -7.452000 13.521000 203.860000
v -8.694000 13.818000 204.670000
v -8.694000 13.521000 204.670000
v -7.452000 13.521000 204.670000
v -7.452000 13.818000 204.670000
v -8.694000 14.115000 196.570000
v -8.694000 14.115000 197.380000
v -7.452000 14.115000 197.380000
v -7.452000 14.115000 196.570000
v -8.694000 14.115000 198.190000
v -7.452000 14.115000 198.190000
v -8.694000 14.115000 199.000000
v -7.452000 14.115000 199.000000
v -8.694000 14.115000 199.810000
v -8.694000 14.115000 200.620000
v -8.694000 14.115000 201.430000
v -8.694000 14.115000 202.240000
v -8.694000 14.115000 203.050000
v -8.694000 14.115000 203.860000
v -8.694000 14.115000 204.670000
v -7.452000 14.115000 204.670000
v -8.694000 14.412000 199.000000
v -8.694000 14.412000 199.810000
v -7.452000 14.412000 199.810000
v -7.452000 14.412000 199.000000
v -8.694000 14.412000 200.620000
v -7.452000 14.412000 200.620000
v -8.694000 14.412000 201.430000
v -7.452000 14.412000 201.430000
v -8.694000 14.412000 202.240000
v -8.694000 14.412000 203.050000
v -8.694000 14.412000 203.860000
v -8.694000 14.412000 204.670000
v -7.452000 14.412000 204.670000
v -8.694000 14.709000 201.430000
v -8.694000 14.709000 202.240000
v -7.452000 14.709000 202.240000
v -7.452000 14.709000 201.430000
v -8.694000 14.709000 203.050000
v -7.452000 14.709000 203.050000
v -8.694000 14.709000 203.860000
v -8.694000 14.709000 204.670000
v -7.452000 14.709000 204.670000
v -8.694000 15.006000 203.050000
v -8.694000 15.006000 203.860000
v -7.452000 15.006000 203.860000
v -7.452000 15.006000 203.050000
v -8.694000 15.006000 204.670000
v -7.452000 15.006000 204.670000
v -8.694000 15.303000 203.860000
v -8.694000 15.303000 204.670000
v -7.452000 15.303000 203.860000
v -7.452000 15.303000 204.670000
v -8.694000 15.600000 203.860000
v -8.694000 15.600000 204.670000
v -7.452000 15.600000 203.860000
v -7.452000 15.600000 204.670000
v -8.694000 15.897000 203.860000
v -8.694000 15.897000 204.670000
v -7.452000 15.897000 203.860000
v -7.452000 15.897000 204.670000
v -8.694000 15.897000 202.240000
v -8.694000 16.194000 202.240000
v -8.694000 16.194000 203.050000
v -8.694000 15.897000 203.050000
v -7.452000 15.897000 202.240000
v -7.452000 15.897000 203.050000
v -7.452000 16.194000 202.240000
v -8.694000 16.194000 203.860000
v -8.694000 16.194000 204.670000
v -7.452000 16.194000 204.670000
v -8.694000 16.194000 200.620000
v -8.694000 16.491000 200.620000
v -8.694000 16.491000 201.430000
v -8.694000 16.194000 201.430000
v -7.452000 16.194000 200.620000
v -7.452000 16.194000 201.430000
v -7.452000 16.491000 200.620000
v -8.694000 16.491000 202.240000
v -8.694000 16.491000 203.050000
v -8.694000 16.491000 203.860000
v -8.694000 16.491000 204.670000
v -7.452000 16.491000 204.670000
v -8.694000 16.491000 198.190000
v -8.694000 16.788000 198.190000
v -8.694000 16.788000 199.000000
v -8.694000 16.491000 199.000000
v -7.452000 16.491000 198.190000
v -7.452000 16.491000 199.000000
v -7.452000 16.788000 198.190000
v -8.694000 16.788000 199.810000
v -8.694000 16.491000 199.810000
v -7.452000 16.491000 199.810000
v -8.694000 16.788000 200.620000
v -8.694000 16.788000 201.430000
v -8.694000 16.788000 202.240000
v -8.694000 16.788000 203.050000
v -8.694000 16.788000 203.860000
v -8.694000 16.788000 204.670000
v -7.452000 16.788000 204.670000
v -8.694000 16.788000 195.760000
v -8.694000 17.085000 195.760000
v -8.694000 17.085000 196.570000
v -8.694000 16.788000 196.570000
v -7.452000 16.788000 195.760000
v -7.452000 16.788000 196.570000
v -7.452000 17.085000 195.760000
v -8.694000 17.085000 197.380000
v -8.694000 16.788000 197.380000
v -7.452000 16.788000 197.380000
v -8.694000 17.085000 198.190000
v -8.694000 17.085000 199.000000
v -8.694000 17.085000 199.810000
v -8.694000 17.085000 200.620000
v -8.694000 17.085000 201.430000
v -8.694000 17.085000 202.240000
v -8.694000 17.085000 203.050000
v -8.694000 17.085000 203.860000
v -8.694000 17.085000 204.670000
v -7.452000 17.085000 204.670000
v -8.694000 17.085000 193.330000
v -8.694000 17.382000 193.330000
v -8.694000 17.382000 194.140000
v -8.694000 17.085000 194.140000
v -7.452000 17.085000 193.330000
v -7.452000 17.085000 194.140000
v -7.452000 17.382000 193.330000
v -8.694000 17.382000 194.950000
v -8.694000 17.085000 194.950000
v -7.452000 17.085000 194.950000
v -8.694000 17.382000 195.760000
v -8.694000 17.382000 196.570000
v -8.694000 17.382000 197.380000
v -8.694000 17.382000 198.190000
v -8.694000 17.382000 199.000000
v -8.694000 17.382000 199.810000
v -8.694000 17.382000 200.620000
v -8.694000 17.382000 201.430000
v -8.694000 17.382000 202.240000
v -8.694000 17.382000 203.050000
v -8.694000 17.382000 203.860000
v -8.694000 17.382000 204.670000
v -7.452000 17.382000 204.670000
v -8.694000 17.679000 193.330000
v -8.694000 17.679000 194.140000
v -7.452000 17.679000 194.140000
v -7.452000 17.679000 193.330000
v -8.694000 17.679000 194.950000
v -7.452000 17.679000 194.950000
v -8.694000 17.679000 195.760000
v -7.452000 17.679000 195.760000
v -8.694000 17.679000 196.570000
v -7.452000 17.679000 196.570000
v -8.694000 17.679000 197.380000
v -7.452000 17.679000 197.380000
v -8.694000 17.679000 198.190000
v -7.452000 17.679000 198.190000
v -8.694000 17.679000 199.000000
v -7.452000 17.679000 199.000000
v -8.694000 17.679000 199.810000
v -7.452000 17.679000 199.810000
v -8.694000 17.679000 200.620000
v -7.452000 17.679000 200.620000
v -8.694000 17.679000 201.430000
v -7.452000 17.679000 201.430000
v -8.694000 17.679000 202.240000
v -7.452000 17.679000 202.240000
v -8.694000 17.679000 203.050000
v -7.452000 17.679000 203.050000
v -8.694000 17.679000 203.860000
v -7.452000 17.679000 203.860000
v -8.694000 17.679000 204.670000
v -7.452000 17.679000 204.670000
v -6.210000 13.521000 193.330000
v -6.210000 13.521000 194.140000
v -6.210000 13.818000 194.140000
v -6.210000 13.818000 193.330000
v -6.210000 13.521000 194.950000
v -6.210000 13.818000 194.950000
v -6.210000 13.521000 195.760000
v -6.210000 13.818000 195.760000
v -6.210000 13.521000 196.570000
v -6.210000 13.818000 196.570000
v -6.210000 13.521000 197.380000
v -6.210000 13.521000 198.190000
v -6.210000 13.521000 199.000000
v -6.210000 13.521000 199.810000
v -6.210000 13.521000 200.620000
v -6.210000 13.521000 201.430000
v -6.210000 13.521000 202.240000
v -6.210000 13.521000 203.050000
v -6.210000 13.521000 203.860000
v -6.210000 13.521000 204.670000
v -6.210000 13.818000 204.670000
v -6.210000 14.115000 197.380000
v -6.210000 14.115000 196.570000
v -6.210000 14.115000 198.190000
v -6.210000 14.115000 199.000000
v -6.210000 14.115000 204.670000
v -6.210000 14.412000 199.810000
v -6.210000 14.412000 199.000000
v -6.210000 14.412000 200.620000
v -6.210000 14.412000 201.430000
v -6.210000 14.412000 204.670000
v -6.210000 14.709000 202.240000
v -6.210000 14.709000 201.430000
v -6.210000 14.709000 203.050000
v -6.210000 14.709000 204.670000
v -6.210000 15.006000 203.860000
v -6.210000 15.006000 203.050000
v -6.210000 15.006000 204.670000
v -6.210000 15.303000 203.860000
v -6.210000 15.303000 204.670000
v -6.210000 15.600000 203.860000
v -6.210000 15.600000 204.670000
v -6.210000 15.897000 203.860000
v -6.210000 15.897000 204.670000
v -6.210000 15.897000 202.240000
v -6.210000 15.897000 203.050000
v -6.210000 16.194000 202.240000
v -6.210000 16.194000 204.670000
v -6.210000 16.194000 200.620000
v -6.210000 16.194000 201.430000
v -6.210000 16.491000 200.620000
v -6.210000 16.491000 204.670000
v -6.210000 16.491000 198.190000
v -6.210000 16.491000 199.000000
v -6.210000 16.788000 198.190000
v -6.210000 16.491000 199.810000
v -6.210000 16.788000 204.670000
v -6.210000 16.788000 195.760000
v -6.210000 16.788000 196.570000
v -6.210000 17.085000 195.760000
v -6.210000 16.788000 197.380000
v -6.210000 17.085000 204.670000
v -6.210000 17.085000 193.330000
v -6.210000 17.085000 194.140000
v -6.210000 17.382000 193.330000
v -6.210000 17.085000 194.950000
v -6.210000 17.382000 204.670000
v -6.210000 17.679000 194.140000
v -6.210000 17.679000 193.330000
v -6.210000 17.679000 194.950000
v -6.210000 17.679000 195.760000
v -6.210000 17.679000 196.570000
v -6.210000 17.679000 197.380000
v -6.210000 17.679000 198.190000
v -6.210000 17.679000 199.000000
v -6.210000 17.679000 199.810000
v -6.210000 17.679000 200.620000
v -6.210000 17.679000 201.430000
v -6.210000 17.679000 202.240000
v -6.210000 17.679000 203.050000
v -6.210000 17.679000 203.860000
v -6.210000 17.679000 204.670000
v -4.968000 13.521000 193.330000
v -4.968000 13.521000 194.140000
v -4.968000 13.818000 194.140000
v -4.968000 13.818000 193.330000
v -4.968000 13.521000 194.950000
v -4.968000 13.818000 194.950000
v -4.968000 13.521000 195.760000
v -4.968000 13.818000 195.760000
v -4.968000 13.521000 196.570000
v -4.968000 13.818000 196.570000
v -4.968000 13.521000 197.380000
v -4.968000 13.521000 198.190000
v -4.968000 13.521000 199.000000
v -4.968000 13.521000 199.810000
v -4.968000 13.521000 200.620000
v -4.968000 13.521000 201.430000
v -4.968000 13.521000 202.240000
v -4.968000 13.521000 203.050000
v -4.968000 13.521000 203.860000
v -4.968000 13.521000 204.670000
v -4.968000 13.818000 204.670000
v -4.968000 14.115000 197.380000
v -4.968000 14.115000 196.570000
v -4.968000 14.115000 198.190000
v -4.968000 14.115000 199.000000
v -4.968000 14.115000 204.670000
v -4.968000 14.412000 199.810000
v -4.968000 14.412000 199.000000
v -4.968000 14.412000 200.620000
v -4.968000 14.412000 201.430000
v -4.968000 14.412000 204.670000
v -4.968000 14.709000 202.240000
v -4.968000 14.709000 201.430000
v -4.968000 14.709000 203.050000
v -4.968000 14.709000 204.670000
v -4.968000 15.006000 203.860000
v -4.968000 15.006000 203.050000
v -4.968000 15.006000 204.670000
v -4.968000 15.303000 203.860000
v -4.968000 15.303000 204.670000
v -4.968000 15.600000 203.860000
v -4.968000 15.600000 204.670000
v -4.968000 15.897000 203.860000
v -4.968000 15.897000 204.670000
v -4.968000 15.897000 202.240000
v -4.968000 15.897000 203.050000
v -4.968000 16.194000 202.240000
v -4.968000 16.194000 204.670000
v -4.968000 16.194000 200.620000
v -4.968000 16.194000 201.430000
v -4.968000 16.491000 200.620000
v -4.968000 16.491000 204.670000
v -4.968000 16.491000 198.190000
v -4.968000 16.491000 199.000000
v -4.968000 16.788000 198.190000
v -4.968000 16.491000 199.810000
v -4.968000 16.788000 204.670000
v -4.968000 16.788000 195.760000
v -4.968000 16.788000 196.570000
v -4.968000 17.085000 195.760000
v -4.968000 16.788000 197.380000
v -4.968000 17.085000 204.670000
v -4.968000 17.085000 193.330000
v -4.968000 17.085000 194.140000
v -4.968000 17.382000 193.330000
v -4.968000 17.085000 194.950000
v -4.968000 17.382000 204.670000
v -4.968000 17.679000 194.140000
v -4.968000 17.679000 193.330000
v -4.968000 17.679000 194.950000
v -4.968000 17.679000 195.760000
v -4.968000 17.679000 196.570000
v -4.968000 17.679000 197.380000
v -4.968000 17.679000 198.190000
v -4.968000 17.679000 199.000000
v -4.968000 17.679000 199.810000
v -4.968000 17.679000 200.620000
v -4.968000 17.679000 201.430000
v -4.968000 17.679000 202.240000
v -4.968000 17.679000 203.050000
v -4.968000 17.679000 203.860000
v -4.968000 17.679000 204.670000
v -3.726000 13.521000 193.330000
v -3.726000 13.521000 194.140000
v -3.726000 13.818000 194.140000
v -3.726000 13.818000 193.330000
v -3.726000 13.521000 194.950000
v -3.726000 13.818000 194.950000
v -3.726000 13.521000 195.760000
v -3.726000 13.818000 195.760000
v -3.726000 13.521000 196.570000
v -3.726000 13.818000 196.570000
v -3.726000 13.521000 197.380000
v -3.726000 13.521000 198.190000
v -3.726000 13.521000 199.000000
v -3.726000 13.521000 199.810000
v -3.726000 13.521000 200.620000
v -3.726000 13.521000 201.430000
v -3.726000 13.521000 202.240000
v -3.726000 13.521000 203.050000
v -3.726000 13.521000 203.860000
v -3.726000 13.521000 204.670000
v -3.726000 13.818000 204.670000
v -3.726000 14.115000 197.380000
v -3.726000 14.115000 196.570000
v -3.726000 14.115000 198.190000
v -3.726000 14.115000 199.000000
v -3.726000 14.115000 204.670000
v -3.726000 14.412000 199.810000
v -3.726000 14.412000 199.000000
v -3.726000 14.412000 200.620000
v -3.726000 14.412000 201.430000
v -3.726000 14.412000 204.670000
v -3.726000 14.709000 202.240000
v -3.726000 14.709000 201.430000
v -3.726000 14.709000 203.050000
v -3.726000 14.709000 204.670000
v -3.726000 15.006000 203.860000
v -3.726000 15.006000 203.050000
v -3.726000 15.006000 204.670000
v -3.726000 15.303000 203.860000
v -3.726000 15.303000 204.670000
v -3.726000 15.600000 203.860000
v -3.726000 15.600000 204.670000
v -3.726000 15.897000 203.860000
v -3.726000 15.897000 204.670000
v -3.726000 15.897000 202.240000
v -3.726000 15.897000 203.050000
v -3.726000 16.194000 202.240000
v -3.726000 16.194000 204.670000
v -3.726000 16.194000 200.620000
v -3.726000 16.194000 201.430000
v -3.726000 16.491000 200.620000
v -3.726000 16.491000 204.670000
v -3.726000 16.491000 198.190000
v -3.726000 16.491000 199.000000
v -3.726000 16.788000 198.190000
v -3.726000 16.491000 199.810000
v -3.726000 16.788000 204.670000
v -3.726000 16.788000 195.760000
v -3.726000 16.788000 196.570000
v -3.726000 17.085000 195.760000
v -3.726000 16.788000 197.380000
v -3.726000 17.085000 204.670000
v -3.726000 17.085000 193.330000
v -3.726000 17.085000 194.140000
v -3.726000 17.382000 193.330000
v -3.726000 17.085000 194.950000
v -3.726000 17.382000 204.670000
v -3.726000 17.679000 194.140000
v -3.726000 17.679000 193.330000
v -3.726000 17.679000 194.950000
v -3.726000 17.679000 195.760000
v -3.726000 17.679000 196.570000
v -3.726000 17.679000 197.380000
v -3.726000 17.679000 198.190000
v -3.726000 17.679000 199.000000
v -3.726000 17.679000 199.810000
v -3.726000 17.679000 200.620000
v -3.726000 17.679000 201.430000
v -3.726000 17.679000 202.240000
v -3.726000 17.679000 203.050000
v -3.726000 17.679000 203.860000
v -3.726000 17.679000 204.670000
v -2.484000 13.521000 193.330000
v -2.484000 13.521000 194.140000
v -2.484000 13.818000 194.140000
v -2.484000 13.818000 193.330000
v -2.484000 13.521000 194.950000
v -2.484000 13.818000 194.950000
v -2.484000 13.521000 195.760000
v -2.484000 13.818000 195.760000
v -2.484000 13.521000 196.570000
v -2.484000 13.818000 196.570000
v -2.484000 13.521000 197.380000
v -2.484000 13.521000 198.190000
v -2.484000 13.521000 199.000000
v -2.484000 13.521000 199.810000
v -2.484000 13.521000 200.620000
v -2.484000 13.521000 201.430000
v -2.484000 13.521000 202.240000
v -2.484000 13.521000 203.050000
v -2.484000 13.521000 203.860000
v -2.484000 13.521000 204.670000
v -2.484000 13.818000 204.670000
v -2.484000 14.115000 197.380000
v -2.484000 14.115000 196.570000
v -2.484000 14.115000 198.190000
v -2.484000 14.115000 199.000000
v -2.484000 14.115000 204.670000
v -2.484000 14.412000 199.810000
v -2.484000 14.412000 199.000000
v -2.484000 14.412000 200.620000
v -2.484000 14.412000 201.430000
v -2.484000 14.412000 204.670000
v -2.484000 14.709000 202.240000
v -2.484000 14.709000 201.430000
v -2.484000 14.709000 203.050000
v -2.484000 14.709000 204.670000
v -2.484000 15.006000 203.860000
v -2.484000 15.006000 203.050000
v -2.484000 15.006000 204.670000
v -2.484000 15.303000 203.860000
v -2.484000 15.303000 204.670000
v -2.484000 15.600000 203.860000
v -2.484000 15.600000 204.670000
v -2.484000 15.897000 203.860000
v -2.484000 15.897000 204.670000
v -2.484000 15.897000 202.240000
v -2.484000 15.897000 203.050000
v -2.484000 16.194000 202.240000
v -2.484000 16.194000 204.670000
v -2.484000 16.194000 200.620000
v -2.484000 16.194000 201.430000
v -2.484000 16.491000 200.620000
v -2.484000 16.491000 204.670000
v -2.484000 16.491000 198.190000
v -2.484000 16.491000 199.000000
v -2.484000 16.788000 198.190000
v -2.484000 16.491000 199.810000
v -2.484000 16.788000 204.670000
v -2.484000 16.788000 195.760000
v -2.484000 16.788000 196.570000
v -2.484000 17.085000 195.760000
v -2.484000 16.788000 197.380000
v -2.484000 17.085000 204.670000
v -2.484000 17.085000 193.330000
v -2.484000 17.085000 194.140000
v -2.484000 17.382000 193.330000
v -2.484000 17.085000 194.950000
v -2.484000 17.382000 204.670000
v -2.484000 17.679000 194.140000
v -2.484000 17.679000 193.330000
v -2.484000 17.679000 194.950000
v -2.484000 17.679000 195.760000
v -2.484000 17.679000 196.570000
v -2.484000 17.679000 197.380000
v -2.484000 17.679000 198.190000
v -2.484000 17.679000 199.000000
v -2.484000 17.679000 199.810000
v -2.484000 17.679000 200.620000
v -2.484000 17.679000 201.430000
v -2.484000 17.679000 202.240000
v -2.484000 17.679000 203.050000
v -2.484000 17.679000 203.860000
v -2.484000 17.679000 204.670000
v -1.242000 13.521000 193.330000
v -1.242000 13.521000 194.140000
v -1.242000 13.818000 194.140000
v -1.242000 13.818000 193.330000
v -1.242000 13.521000 194.950000
v -1.242000 13.818000 194.950000
v -1.242000 13.521000 195.760000
v -1.242000 13.818000 195.760000
v -1.242000 13.521000 196.570000
v -1.242000 13.818000 196.570000
v -1.242000 13.521000 197.380000
v -1.242000 13.521000 198.190000
v -1.242000 13.521000 199.000000
v -1.242000 13.521000 199.810000
v -1.242000 13.521000 200.620000
v -1.242000 13.521000 201.430000
v -1.242000 13.521000 202.240000
v -1.242000 13.521000 203.050000
v -1.242000 13.521000 203.860000
v -1.242000 13.521000 204.670000
v -1.242000 13.818000 204.670000
v -1.242000 14.115000 197.380000
v -1.242000 14.115000 196.570000
v -1.242000 14.115000 198.190000
v -1.242000 14.115000 199.000000
v -1.242000 14.115000 204.670000
v -1.242000 14.412000 199.810000
v -1.242000 14.412000 199.000000
v -1.242000 14.412000 200.620000
v -1.242000 14.412000 201.430000
v -1.242000 14.412000 204.670000
v -1.242000 14.709000 202.240000
v -1.242000 14.709000 201.430000
v -1.242000 14.709000 203.050000
v -1.242000 14.709000 204.670000
v -1.242000 15.006000 203.860000
v -1.242000 15.006000 203.050000
v -1.242000 15.006000 204.670000
v -1.242000 15.303000 203.860000
v -1.242000 15.303000 204.670000
v -1.242000 15.600000 203.860000
v -1.242000 15.600000 204.670000
v -1.242000 15.897000 203.860000
v -1.242000 15.897000 204.670000
v -1.242000 15.897000 202.240000
v -1.242000 15.897000 203.050000
v -1.242000 16.194000 202.240000
v -1.242000 16.194000 204.670000
v -1.242000 16.194000 200.620000
v -1.242000 16.194000 201.430000
v -1.242000 16.491000 200.620000
v -1.242000 16.491000 204.670000
v -1.242000 16.491000 198.190000
v -1.242000 16.491000 199.000000
v -1.242000 16.788000 198.190000
v -1.242000 16.491000 199.810000
v -1.242000 16.788000 204.670000
v -1.242000 16.788000 195.760000
v -1.242000 16.788000 196.570000
v -1.242000 17.085000 195.760000
v -1.242000 16.788000 197.380000
v -1.242000 17.085000 204.670000
v -1.242000 17.085000 193.330000
v -1.242000 17.085000 194.140000
v -1.242000 17.382000 193.330000
v -1.242000 17.085000 194.950000
v -1.242000 17.382000 204.670000
v -1.242000 17.679000 194.140000
v -1.242000 17.679000 193.330000
v -1.242000 17.679000 194.950000
v -1.242000 17.679000 195.760000
v -1.242000 17.679000 196.570000
v -1.242000 17.679000 197.380000
v -1.242000 17.679000 198.190000
v -1.242000 17.679000 199.000000
v -1.242000 17.679000 199.810000
v -1.242000 17.679000 200.620000
v -1.242000 17.679000 201.430000
v -1.242000 17.679000 202.240000
v -1.242000 17.679000 203.050000
v -1.242000 17.679000 203.860000
v -1.242000 17.679000 204.670000
v -0.000000 13.521000 193.330000
v -0.000000 13.521000 194.140000
v -0.000000 13.818000 194.140000
v -0.000000 13.818000 193.330000
v -0.000000 13.521000 194.950000
v -0.000000 13.818000 194.950000
v -0.000000 13.521000 195.760000
v -0.000000 13.818000 195.760000
v -0.000000 13.521000 196.570000
v -0.000000 13.818000 196.570000
v -0.000000 13.521000 197.380000
v -0.000000 13.521000 198.190000
v -0.000000 13.521000 199.000000
v -0.000000 13.521000 199.810000
v -0.000000 13.521000 200.620000
v -0.000000 13.521000 201.430000
v -0.000000 13.521000 202.240000
v -0.000000 13.521000 203.050000
v -0.000000 13.521000 203.860000
v -0.000000 13.521000 204.670000
v -0.000000 13.818000 204.670000
v -0.000000 14.115000 197.380000
v -0.000000 14.115000 196.570000
v -0.000000 14.115000 198.190000
v -0.000000 14.115000 199.000000
v -0.000000 14.115000 204.670000
v -0.000000 14.412000 199.810000
v -0.000000 14.412000 199.000000
v -0.000000 14.412000 200.620000
v -0.000000 14.412000 201.430000
v -0.000000 14.412000 204.670000
v -0.000000 14.709000 202.240000
v -0.000000 14.709000 201.430000
v -0.000000 14.709000 203.050000
v -0.000000 14.709000 204.670000
v -0.000000 15.006000 203.860000
v -0.000000 15.006000 203.050000
v -0.000000 15.006000 204.670000
v -0.000000 15.303000 203.860000
v -0.000000 15.303000 204.670000
v -0.000000 15.600000 203.860000
v -0.000000 15.600000 204.670000
v -0.000000 15.897000 203.860000
v -0.000000 15.897000 204.670000
v -0.000000 15.897000 202.240000
v -0.000000 15.897000 203.050000
v -0.000000 16.194000 202.240000
v -0.000000 16.194000 204.670000
v -0.000000 16.194000 200.620000
v -0.000000 16.194000 201.430000
v -0.000000 16.491000 200.620000
v -0.000000 16.491000 204.670000
v -0.000000 16.491000 198.190000
v -0.000000 16.491000 199.000000
v -0.000000 16.788000 198.190000
v -0.000000 16.491000 199.810000
v -0.000000 16.788000 204.670000
v -0.000000 16.788000 195.760000
v -0.000000 16.788000 196.570000
v -0.000000 17.085000 195.760000
v -0.000000 16.788000 197.380000
v -0.000000 17.085000 204.670000
v -0.000000 17.085000 193.330000
v -0.000000 17.085000 194.140000
v -0.000000 17.382000 193.330000
v -0.000000 17.085000 194.950000
v -0.000000 17.382000 204.670000
v -0.000000 17.679000 194.140000
v -0.000000 17.679000 193.330000
v -0.000000 17.679000 194.950000
v -0.000000 17.679000 195.760000
v -0.000000 17.679000 196.570000
v -0.000000 17.679000 197.380000
v -0.000000 17.679000 198.190000
v -0.000000 17.679000 199.000000
v -0.000000 17.679000 199.810000
v -0.000000 17.679000 200.620000
v -0.000000 17.679000 201.430000
v -0.000000 17.679000 202.240000
v -0.000000 17.679000 203.050000
v -0.000000 17.679000 203.860000
v -0.000000 17.679000 204.670000
v 1.242000 13.521000 193.330000
v 1.242000 13.521000 194.140000
v 1.242000 13.818000 194.140000
v 1.242000 13.818000 193.330000
v 1.242000 13.521000 194.950000
v 1.242000 13.818000 194.950000
v 1.242000 13.521000 195.760000
v 1.242000 13.818000 195.760000
v 1.242000 13.521000 196.570000
v 1.242000 13.818000 196.570000
v 1.242000 13.521000 197.380000
v 1.242000 13.521000 198.190000
v 1.242000 13.521000 199.000000
v 1.242000 13.521000 199.810000
v 1.242000 13.521000 200.620000
v 1.242000 13.521000 201.430000
v 1.242000 13.521000 202.240000
v 1.242000 13.521000 203.050000
v 1.242000 13.521000 203.860000
v 1.242000 13.521000 204.670000
v 1.242000 13.818000 204.670000
v 1.242000 14.115000 197.380000
v 1.242000 14.115000 196.570000
v 1.242000 14.115000 198.190000
v 1.242000 14.115000 199.000000
v 1.242000 14.115000 204.670000
v 1.242000 14.412000 199.810000
v 1.242000 14.412000 199.000000
v 1.242000 14.412000 200.620000
v 1.242000 14.412000 201.430000
v 1.242000 14.412000 204.670000
v 1.242000 14.709000 202.240000
v 1.242000 14.709000 201.430000
v 1.242000 14.709000 203.050000
v 1.242000 14.709000 204.670000
v 1.242000 15.006000 203.860000
v 1.242000 15.006000 203.050000
v 1.242000 15.006000 204.670000
v 1.242000 15.303000 203.860000
v 1.242000 15.303000 204.670000
v 1.242000 15.600000 203.860000
v 1.242000 15.600000 204.670000
v 1.242000 15.897000 203.860000
v 1.242000 15.897000 204.670000
v 1.242000 15.897000 202.240000
v 1.242000 15.897000 203.050000
v 1.242000 16.194000 202.240000
v 1.242000 16.194000 204.670000
v 1.242000 16.194000 200.620000
v 1.242000 16.194000 201.430000
v 1.242000 16.491000 200.620000
v 1.242000 16.491000 204.670000
v 1.242000 16.491000 198.190000
v 1.242000 16.491000 199.000000
v 1.242000 16.788000 198.190000
v 1.242000 16.491000 199.810000
v 1.242000 16.788000 204.670000
v 1.242000 16.788000 195.760000
v 1.242000 16.788000 196.570000
v 1.242000 17.085000 195.760000
v 1.242000 16.788000 197.380000
v 1.242000 17.085000 204.670000
v 1.242000 17.085000 193.330000
v 1.242000 17.085000 194.140000
v 1.242000 17.382000 193.330000
v 1.242000 17.085000 194.950000
v 1.242000 17.382000 204.670000
v 1.242000 17.679000 194.140000
v 1.242000 17.679000 193.330000
v 1.242000 17.679000 194.950000
v 1.242000 17.679000 195.760000
v 1.242000 17.679000 196.570000
v 1.242000 17.679000 197.380000
v 1.242000 17.679000 198.190000
v 1.242000 17.679000 199.000000
v 1.242000 17.679000 199.810000
v 1.242000 17.679000 200.620000
v 1.242000 17.679000 201.430000
v 1.242000 17.679000 202.240000
v 1.242000 17.679000 203.050000
v 1.242000 17.679000 203.860000
v 1.242000 17.679000 204.670000
v 2.484000 13.521000 193.330000
v 2.484000 13.521000 194.140000
v 2.484000 13.818000 194.140000
v 2.484000 13.818000 193.330000
v 2.484000 13.521000 194.950000
v 2.484000 13.818000 194.950000
v 2.484000 13.521000 195.760000
v 2.484000 13.818000 195.760000
v 2.484000 13.521000 196.570000
v 2.484000 13.818000 196.570000
v 2.484000 13.521000 197.380000
v 2.484000 13.521000 198.190000
v 2.484000 13.521000 199.000000
v 2.484000 13.521000 199.810000
v 2.484000 13.521000 200.620000
v 2.484000 13.521000 201.430000
v 2.484000 13.521000 202.240000
v 2.484000 13.521000 203.050000
v 2.484000 13.521000 203.860000
v 2.484000 13.521000 204.670000
v 2.484000 13.818000 204.670000
v 2.484000 14.115000 197.380000
v 2.484000 14.115000 196.570000
v 2.484000 14.115000 198.190000
v 2.484000 14.115000 199.000000
v 2.484000 14.115000 204.670000
v 2.484000 14.412000 199.810000
v 2.484000 14.412000 199.000000
v 2.484000 14.412000 200.620000
v 2.484000 14.412000 201.430000
v 2.484000 14.412000 204.670000
v 2.484000 14.709000 202.240000
v 2.484000 14.709000 201.430000
v 2.484000 14.709000 203.050000
v 2.484000 14.709000 204.670000
v 2.484000 15.006000 203.860000
v 2.484000 15.006000 203.050000
v 2.484000 15.006000 204.670000
v 2.484000 15.303000 203.860000
v 2.484000 15.303000 204.670000
v 2.484000 15.600000 203.860000
v 2.484000 15.600000 204.670000
v 2.484000 15.897000 203.860000
v 2.484000 15.897000 204.670000
v 2.484000 15.897000 202.240000
v 2.484000 15.897000 203.050000
v 2.484000 16.194000 202.240000
v 2.484000 16.194000 204.670000
v 2.484000 16.194000 200.620000
v 2.484000 16.194000 201.430000
v 2.484000 16.491000 200.620000
v 2.484000 16.491000 204.670000
v 2.484000 16.491000 198.190000
v 2.484000 16.491000 199.000000
v 2.484000 16.788000 198.190000
v 2.484000 16.491000 199.810000
v 2.484000 16.788000 204.670000
v 2.484000 16.788000 195.760000
v 2.484000 16.788000 196.570000
v 2.484000 17.085000 195.760000
v 2.484000 16.788000 197.380000
v 2.484000 17.085000 204.670000
v 2.484000 17.085000 193.330000
v 2.484000 17.085000 194.140000
v 2.484000 17.382000 193.330000
v 2.484000 17.085000 194.950000
v 2.484000 17.382000 204.670000
v 2.484000 17.679000 194.140000
v 2.484000 17.679000 193.330000
v 2.484000 17.679000 194.950000
v 2.484000 17.679000 195.760000
v 2.484000 17.679000 196.570000
v 2.484000 17.679000 197.380000
v 2.484000 17.679000 198.190000
v 2.484000 17.679000 199.000000
v 2.484000 17.679000 199.810000
v 2.484000 17.679000 200.620000
v 2.484000 17.679000 201.430000
v 2.484000 17.679000 202.240000
v 2.484000 17.679000 203.050000
v 2.484000 17.679000 203.860000
v 2.484000 17.679000 204.670000
v 3.726000 13.521000 193.330000
v 3.726000 13.521000 194.140000
v 3.726000 13.818000 194.140000
v 3.726000 13.818000 193.330000
v 3.726000 13.521000 194.950000
v 3.726000 13.818000 194.950000
v 3.726000 13.521000 195.760000
v 3.726000 13.818000 195.760000
v 3.726000 13.521000 196.570000
v 3.726000 13.818000 196.570000
v 3.726000 13.521000 197.380000
v 3.726000 13.521000 198.190000
v 3.726000 13.521000 199.000000
v 3.726000 13.521000 199.810000
v 3.726000 13.521000 200.620000
v 3.726000 13.521000 201.430000
v 3.726000 13.521000 202.240000
v 3.726000 13.521000 203.050000
v 3.726000 13.521000 203.860000
v 3.726000 13.521000 204.670000
v 3.726000 13.818000 204.670000
v 3.726000 14.115000 197.380000
v 3.726000 14.115000 196.570000
v 3.726000 14.115000 198.190000
v 3.726000 14.115000 199.000000
v 3.726000 14.115000 204.670000
v 3.726000 14.412000 199.810000
v 3.726000 14.412000 199.000000
v 3.726000 14.412000 200.620000
v 3.726000 14.412000 201.430000
v 3.726000 14.412000 204.670000
v 3.726000 14.709000 202.240000
v 3.726000 14.709000 201.430000
v 3.726000 14.709000 203.050000
v 3.726000 14.709000 204.670000
v 3.726000 15.006000 203.860000
v 3.726000 15.006000 203.050000
v 3.726000 15.006000 204.670000
v 3.726000 15.303000 203.860000
v 3.726000 15.303000 204.670000
v 3.726000 15.600000 203.860000
v 3.726000 15.600000 204.670000
v 3.726000 15.897000 203.860000
v 3.726000 15.897000 204.670000
v 3.726000 15.897000 202.240000
v 3.726000 15.897000 203.050000
v 3.726000 16.194000 202.240000
v 3.726000 16.194000 204.670000
v 3.726000 16.194000 200.620000
v 3.726000 16.194000 201.430000
v 3.726000 16.491000 200.620000
v 3.726000 16.491000 204.670000
v 3.726000 16.491000 198.190000
v 3.726000 16.491000 199.000000
v 3.726000 16.788000 198.190000
v 3.726000 16.491000 199.810000
v 3.726000 16.788000 204.670000
v 3.726000 16.788000 195.760000
v 3.726000 16.788000 196.570000
v 3.726000 17.085000 195.760000
v 3.726000 16.788000 197.380000
v 3.726000 17.085000 204.670000
v 3.726000 17.085000 193.330000
v 3.726000 17.085000 194.140000
v 3.726000 17.382000 193.330000
v 3.726000 17.085000 194.950000
v 3.726000 17.382000 204.670000
v 3.726000 17.679000 194.140000
v 3.726000 17.679000 193.330000
v 3.726000 17.679000 194.950000
v 3.726000 17.679000 195.760000
v 3.726000 17.679000 196.570000
v 3.726000 17.679000 197.380000
v 3.726000 17.679000 198.190000
v 3.726000 17.679000 199.000000
v 3.726000 17.679000 199.810000
v 3.726000 17.679000 200.620000
v 3.726000 17.679000 201.430000
v 3.726000 17.679000 202.240000
v 3.726000 17.679000 203.050000
v 3.726000 17.679000 203.860000
v 3.726000 17.679000 204.670000
v 4.968000 13.521000 193.330000
v 4.968000 13.521000 194.140000
v 4.968000 13.818000 194.140000
v 4.968000 13.818000 193.330000
v 4.968000 13.521000 194.950000
v 4.968000 13.818000 194.950000
v 4.968000 13.521000 195.760000
v 4.968000 13.818000 195.760000
v 4.968000 13.521000 196.570000
v 4.968000 13.818000 196.570000
v 4.968000 13.521000 197.380000
v 4.968000 13.521000 198.190000
v 4.968000 13.521000 199.000000
v 4.968000 13.521000 199.810000
v 4.968000 13.521000 200.620000
v 4.968000 13.521000 201.430000
v 4.968000 13.521000 202.240000
v 4.968000 13.521000 203.050000
v 4.968000 13.521000 203.860000
v 4.968000 13.521000 204.670000
v 4.968000 13.818000 204.670000
v 4.968000 14.115000 197.380000
v 4.968000 14.115000 196.570000
v 4.968000 14.115000 198.190000
v 4.968000 14.115000 199.000000
v 4.968000 14.115000 204.670000
v 4.968000 14.412000 199.810000
v 4.968000 14.412000 199.000000
v 4.968000 14.412000 200.620000
v 4.968000 14.412000 201.430000
v 4.968000 14.412000 204.670000
v 4.968000 14.709000 202.240000
v 4.968000 14.709000 201.430000
v 4.968000 14.709000 203.050000
v 4.968000 14.709000 204.670000
v 4.968000 15.006000 203.860000
v 4.968000 15.006000 203.050000
v 4.968000 15.006000 204.670000
v 4.968000 15.303000 203.860000
v 4.968000 15.303000 204.670000
v 4.968000 15.600000 203.860000
v 4.968000 15.600000 204.670000
v 4.968000 15.897000 203.860000
v 4.968000 15.897000 204.670000
v 4.968000 15.897000 202.240000
v 4.968000 15.897000 203.050000
v 4.968000 16.194000 202.240000
v 4.968000 16.194000 204.670000
v 4.968000 16.194000 200.620000
v 4.968000 16.194000 201.430000
v 4.968000 16.491000 200.620000
v 4.968000 16.491000 204.670000
v 4.968000 16.491000 198.190000
v 4.968000 16.491000 199.000000
v 4.968000 16.788000 198.190000
v 4.968000 16.491000 199.810000
v 4.968000 16.788000 204.670000
v 4.968000 16.788000 195.760000
v 4.968000 16.788000 196.570000
v 4.968000 17.085000 195.760000
v 4.968000 16.788000 197.380000
v 4.968000 17.085000 204.670000
v 4.968000 17.085000 193.330000
v 4.968000 17.085000 194.140000
v 4.968000 17.382000 193.330000
v 4.968000 17.085000 194.950000
v 4.968000 17.382000 204.670000
v 4.968000 17.679000 194.140000
v 4.968000 17.679000 193.330000
v 4.968000 17.679000 194.950000
v 4.968000 17.679000 195.760000
v 4.968000 17.679000 196.570000
v 4.968000 17.679000 197.380000
v 4.968000 17.679000 198.190000
v 4.968000 17.679000 199.000000
v 4.968000 17.679000 199.810000
v 4.968000 17.679000 200.620000
v 4.968000 17.679000 201.430000
v 4.968000 17.679000 202.240000
v 4.968000 17.679000 203.050000
v 4.968000 17.679000 203.860000
v 4.968000 17.679000 204.670000
v 6.210000 13.521000 193.330000
v 6.210000 13.521000 194.140000
v 6.210000 13.818000 194.140000
v 6.210000 13.818000 193.330000
v 6.210000 13.521000 194.950000
v 6.210000 13.818000 194.950000
v 6.210000 13.521000 195.760000
v 6.210000 13.818000 195.760000
v 6.210000 13.521000 196.570000
v 6.210000 13.818000 196.570000
v 6.210000 13.521000 197.380000
v 6.210000 13.521000 198.190000
v 6.210000 13.521000 199.000000
v 6.210000 13.521000 199.810000
v 6.210000 13.521000 200.620000
v 6.210000 13.521000 201.430000
v 6.210000 13.521000 202.240000
v 6.210000 13.521000 203.050000
v 6.210000 13.521000 203.860000
v 6.210000 13.521000 204.670000
v 6.210000 13.818000 204.670000
v 6.210000 14.115000 197.380000
v 6.210000 14.115000 196.570000
v 6.210000 14.115000 198.190000
v 6.210000 14.115000 199.000000
v 6.210000 14.115000 204.670000
v 6.210000 14.412000 199.810000
v 6.210000 14.412000 199.000000
v 6.210000 14.412000 200.620000
v 6.210000 14.412000 201.430000
v 6.210000 14.412000 204.670000
v 6.210000 14.709000 202.240000
v 6.210000 14.709000 201.430000
v 6.210000 14.709000 203.050000
v 6.210000 14.709000 204.670000
v 6.210000 15.006000 203.860000
v 6.210000 15.006000 203.050000
v 6.210000 15.006000 204.670000
v 6.210000 15.303000 203.860000
v 6.210000 15.303000 204.670000
v 6.210000 15.600000 203.860000
v 6.210000 15.600000 204.670000
v 6.210000 15.897000 203.860000
v 6.210000 15.897000 204.670000
v 6.210000 15.897000 202.240000
v 6.210000 15.897000 203.050000
v 6.210000 16.194000 202.240000
v 6.210000 16.194000 204.670000
v 6.210000 16.194000 200.620000
v 6.210000 16.194000 201.430000
v 6.210000 16.491000 200.620000
v 6.210000 16.491000 204.670000
v 6.210000 16.491000 198.190000
v 6.210000 16.491000 199.000000
v 6.210000 16.788000 198.190000
v 6.210000 16.491000 199.810000
v 6.210000 16.788000 204.670000
v 6.210000 16.788000 195.760000
v 6.210000 16.788000 196.570000
v 6.210000 17.085000 195.760000
v 6.210000 16.788000 197.380000
v 6.210000 17.085000 204.670000
v 6.210000 17.085000 193.330000
v 6.210000 17.085000 194.140000
v 6.210000 17.382000 193.330000
v 6.210000 17.085000 194.950000
v 6.210000 17.382000 204.670000
v 6.210000 17.679000 194.140000
v 6.210000 17.679000 193.330000
v 6.210000 17.679000 194.950000
v 6.210000 17.679000 195.760000
v 6.210000 17.679000 196.570000
v 6.210000 17.679000 197.380000
v 6.210000 17.679000 198.190000
v 6.210000 17.679000 199.000000
v 6.210000 17.679000 199.810000
v 6.210000 17.679000 200.620000
v 6.210000 17.679000 201.430000
v 6.210000 17.679000 202.240000
v 6.210000 17.679000 203.050000
v 6.210000 17.679000 203.860000
v 6.210000 17.679000 204.670000
v 7.452000 13.521000 193.330000
v 7.452000 13.521000 194.140000
v 7.452000 13.818000 194.140000
v 7.452000 13.818000 193.330000
v 7.452000 13.521000 194.950000
v 7.452000 13.818000 194.950000
v 7.452000 13.521000 195.760000
v 7.452000 13.818000 195.760000
v 7.452000 13.521000 196.570000
v 7.452000 13.818000 196.570000
v 7.452000 13.521000 197.380000
v 7.452000 13.521000 198.190000
v 7.452000 13.521000 199.000000
v 7.452000 13.521000 199.810000
v 7.452000 13.521000 200.620000
v 7.452000 13.521000 201.430000
v 7.452000 13.521000 202.240000
v 7.452000 13.521000 203.050000
v 7.452000 13.521000 203.860000
v 7.452000 13.521000 204.670000
v 7.452000 13.818000 204.670000
v 7.452000 14.115000 197.380000
v 7.452000 14.115000 196.570000
v 7.452000 14.115000 198.190000
v 7.452000 14.115000 199.000000
v 7.452000 14.115000 204.670000
v 7.452000 14.412000 199.810000
v 7.452000 14.412000 199.000000
v 7.452000 14.412000 200.620000
v 7.452000 14.412000 201.430000
v 7.452000 14.412000 204.670000
v 7.452000 14.709000 202.240000
v 7.452000 14.709000 201.430000
v 7.452000 14.709000 203.050000
v 7.452000 14.709000 204.670000
v 7.452000 15.006000 203.860000
v 7.452000 15.006000 203.050000
v 7.452000 15.006000 204.670000
v 7.452000 15.303000 203.860000
v 7.452000 15.303000 204.670000
v 7.452000 15.600000 203.860000
v 7.452000 15.600000 204.670000
v 7.452000 15.897000 203.860000
v 7.452000 15.897000 204.670000
v 7.452000 15.897000 202.240000
v 7.452000 15.897000 203.050000
v 7.452000 16.194000 202.240000
v 7.452000 16.194000 204.670000
v 7.452000 16.194000 200.620000
v 7.452000 16.194000 201.430000
v 7.452000 16.491000 200.620000
v 7.452000 16.491000 204.670000
v 7.452000 16.491000 198.190000
v 7.452000 16.491000 199.000000
v 7.452000 16.788000 198.190000
v 7.452000 16.491000 199.810000
v 7.452000 16.788000 204.670000
v 7.452000 16.788000 195.760000
v 7.452000 16.788000 196.570000
v 7.452000 17.085000 195.760000
v 7.452000 16.788000 197.380000
v 7.452000 17.085000 204.670000
v 7.452000 17.085000 193.330000
v 7.452000 17.085000 194.140000
v 7.452000 17.382000 193.330000
v 7.452000 17.085000 194.950000
v 7.452000 17.382000 204.670000
v 7.452000 17.679000 194.140000
v 7.452000 17.679000 193.330000
v 7.452000 17.679000 194.950000
v 7.452000 17.679000 195.760000
v 7.452000 17.679000 196.570000
v 7.452000 17.679000 197.380000
v 7.452000 17.679000 198.190000
v 7.452000 17.679000 199.000000
v 7.452000 17.679000 199.810000
v 7.452000 17.679000 200.620000
v 7.452000 17.679000 201.430000
v 7.452000 17.679000 202.240000
v 7.452000 17.679000 203.050000
v 7.452000 17.679000 203.860000
v 7.452000 17.679000 204.670000
v 8.694000 13.521000 193.330000
v 8.694000 13.521000 194.140000
v 8.694000 13.818000 194.140000
v 8.694000 13.818000 193.330000
v 8.694000 13.521000 194.950000
v 8.694000 13.818000 194.950000
v 8.694000 13.521000 195.760000
v 8.694000 13.818000 195.760000
v 8.694000 13.521000 196.570000
v 8.694000 13.818000 196.570000
v 8.694000 13.521000 197.380000
v 8.694000 13.818000 197.380000
v 8.694000 13.521000 198.190000
v 8.694000 13.818000 198.190000
v 8.694000 13.521000 199.000000
v 8.694000 13.818000 199.000000
v 8.694000 13.521000 199.810000
v 8.694000 13.818000 199.810000
v 8.694000 13.521000 200.620000
v 8.694000 13.818000 200.620000
v 8.694000 13.521000 201.430000
v 8.694000 13.818000 201.430000
v 8.694000 13.521000 202.240000
v 8.694000 13.818000 202.240000
v 8.694000 13.521000 203.050000
v 8.694000 13.818000 203.050000
v 8.694000 13.521000 203.860000
v 8.694000 13.818000 203.860000
v 8.694000 13.521000 204.670000
v 8.694000 13.818000 204.670000
v 8.694000 14.115000 197.380000
v 8.694000 14.115000 196.570000
v 8.694000 14.115000 198.190000
v 8.694000 14.115000 199.000000
v 8.694000 14.115000 199.810000
v 8.694000 14.115000 200.620000
v 8.694000 14.115000 201.430000
v 8.694000 14.115000 202.240000
v 8.694000 14.115000 203.050000
v 8.694000 14.115000 203.860000
v 8.694000 14.115000 204.670000
v 8.694000 14.412000 199.810000
v 8.694000 14.412000 199.000000
v 8.694000 14.412000 200.620000
v 8.694000 14.412000 201.430000
v 8.694000 14.412000 202.240000
v 8.694000 14.412000 203.050000
v 8.694000 14.412000 203.860000
v 8.694000 14.412000 204.670000
v 8.694000 14.709000 202.240000
v 8.694000 14.709000 201.430000
v 8.694000 14.709000 203.050000
v 8.694000 14.709000 203.860000
v 8.694000 14.709000 204.670000
v 8.694000 15.006000 203.860000
v 8.694000 15.006000 203.050000
v 8.694000 15.006000 204.670000
v 8.694000 15.303000 204.670000
v 8.694000 15.303000 203.860000
v 8.694000 15.600000 204.670000
v 8.694000 15.600000 203.860000
v 8.694000 15.897000 204.670000
v 8.694000 15.897000 203.860000
v 8.694000 15.897000 202.240000
v 8.694000 15.897000 203.050000
v 8.694000 16.194000 203.050000
v 8.694000 16.194000 202.240000
v 8.694000 16.194000 203.860000
v 8.694000 16.194000 204.670000
v 8.694000 16.194000 200.620000
v 8.694000 16.194000 201.430000
v 8.694000 16.491000 201.430000
v 8.694000 16.491000 200.620000
v 8.694000 16.491000 202.240000
v 8.694000 16.491000 203.050000
v 8.694000 16.491000 203.860000
v 8.694000 16.491000 204.670000
v 8.694000 16.491000 198.190000
v 8.694000 16.491000 199.000000
v 8.694000 16.788000 199.000000
v 8.694000 16.788000 198.190000
v 8.694000 16.491000 199.810000
v 8.694000 16.788000 199.810000
v 8.694000 16.788000 200.620000
v 8.694000 16.788000 201.430000
v 8.694000 16.788000 202.240000
v 8.694000 16.788000 203.050000
v 8.694000 16.788000 203.860000
v 8.694000 16.788000 204.670000
v 8.694000 16.788000 195.760000
v 8.694000 16.788000 196.570000
v 8.694000 17.085000 196.570000
v 8.694000 17.085000 195.760000
v 8.694000 16.788000 197.380000
v 8.694000 17.085000 197.380000
v 8.694000 17.085000 198.190000
v 8.694000 17.085000 199.000000
v 8.694000 17.085000 199.810000
v 8.694000 17.085000 200.620000
v 8.694000 17.085000 201.430000
v 8.694000 17.085000 202.240000
v 8.694000 17.085000 203.050000
v 8.694000 17.085000 203.860000
v 8.694000 17.085000 204.670000
v 8.694000 17.085000 193.330000
v 8.694000 17.085000 194.140000
v 8.694000 17.382000 194.140000
v 8.694000 17.382000 193.330000
v 8.694000 17.085000 194.950000
v 8.694000 17.382000 194.950000
v 8.694000 17.382000 195.760000
v 8.694000 17.382000 196.570000
v 8.694000 17.382000 197.380000
v 8.694000 17.382000 198.190000
v 8.694000 17.382000 199.000000
v 8.694000 17.382000 199.810000
v 8.694000 17.382000 200.620000
v 8.694000 17.382000 201.430000
v 8.694000 17.382000 202.240000
v 8.694000 17.382000 203.050000
v 8.694000 17.382000 203.860000
v 8.694000 17.382000 204.670000
v 8.694000 17.679000 194.140000
v 8.694000 17.679000 193.330000
v 8.694000 17.679000 194.950000
v 8.694000 17.679000 195.760000
v 8.694000 17.679000 196.570000
v 8.694000 17.679000 197.380000
v 8.694000 17.679000 198.190000
v 8.694000 17.679000 199.000000
v 8.694000 17.679000 199.810000
v 8.694000 17.679000 200.620000
v 8.694000 17.679000 201.430000
v 8.694000 17.679000 202.240000
v 8.694000 17.679000 203.050000
v 8.694000 17.679000 203.860000
v 8.694000 17.679000 204.670000
f 1 2 3
f 1 3 4
f 1 5 6
f 1 6 4
f 2 3 7
f 2 7 8
f 1 2 8
f 1 8 5
f 4 3 9
f 4 9 10
f 4 6 11
f 4 11 10
f 3 9 12
f 3 12 7
f 10 9 13
f 10 13 14
f 10 11 15
f 10 15 14
f 9 13 16
f 9 16 12
f 14 13 17
f 14 17 18
f 14 15 19
f 14 19 18
f 13 17 20
f 13 20 16
f 18 17 21
f 18 21 22
f 18 19 23
f 18 23 22
f 22 21 24
f 22 24 25
f 22 23 26
f 22 26 25
f 25 24 27
f 25 27 28
f 25 26 29
f 25 29 28
f 28 27 30
f 28 30 31
f 28 29 32
f 28 32 31
f 31 30 33
f 31 33 34
f 31 32 35
f 31 35 34
f 34 33 36
f 34 36 37
f 34 35 38
f 34 38 37
f 37 36 39
f 37 39 40
f 37 38 41
f 37 41 40
f 40 39 42
f 40 42 43
f 40 41 44
f 40 44 43
f 43 42 45
f 43 45 46
f 43 44 47
f 43 47 46
f 46 45 48
f 46 48 49
f 46 47 50
f 46 50 49
f 49 50 51
f 49 51 48
f 17 52 53
f 17 53 21
f 52 53 54
f 52 54 55
f 17 52 55
f 17 55 20
f 21 53 56
f 21 56 24
f 53 56 57
f 53 57 54
f 24 56 58
f 24 58 27
f 56 58 59
f 56 59 57
f 27 58 60
f 27 60 30
f 30 60 61
f 30 61 33
f 33 61 62
f 33 62 36
f 36 62 63
f 36 63 39
f 39 63 64
f 39 64 42
f 42 64 65
f 42 65 45
f 45 65 66
f 45 66 48
f 48 51 67
f 48 67 66
f 58 68 69
f 58 69 60
f 68 69 70
f 68 70 71
f 58 68 71
f 58 71 59
f 60 69 72
f 60 72 61
f 69 72 73
f 69 73 70
f 61 72 74
f 61 74 62
f 72 74 75
f 72 75 73
f 62 74 76
f 62 76 63
f 63 76 77
f 63 77 64
f 64 77 78
f 64 78 65
f 65 78 79
f 65 79 66
f 66 67 80
f 66 80 79
f 74 81 82
f 74 82 76
f 81 82 83
f 81 83 84
f 74 81 84
f 74 84 75
f 76 82 85
f 76 85 77
f 82 85 86
f 82 86 83
f 77 85 87
f 77 87 78
f 78 87 88
f 78 88 79
f 79 80 89
f 79 89 88
f 85 90 91
f 85 91 87
f 90 91 92
f 90 92 93
f 85 90 93
f 85 93 86
f 87 91 94
f 87 94 88
f 88 89 95
f 88 95 94
f 91 96 97
f 91 97 94
f 91 96 98
f 91 98 92
f 94 95 99
f 94 99 97
f 96 100 101
f 96 101 97
f 96 100 102
f 96 102 98
f 97 99 103
f 97 103 101
f 100 104 105
f 100 105 101
f 100 104 106
f 100 106 102
f 101 103 107
f 101 107 105
f 108 109 110
f 108 110 111
f 108 112 113
f 108 113 111
f 108 109 114
f 108 114 112
f 111 110 115
f 111 115 104
f 111 113 106
f 111 106 104
f 104 115 116
f 104 116 105
f 105 107 117
f 105 117 116
f 118 119 120
f 118 120 121
f 118 122 123
f 118 123 121
f 118 119 124
f 118 124 122
f 121 120 125
f 121 125 109
f 121 123 114
f 121 114 109
f 109 125 126
f 109 126 110
f 110 126 127
f 110 127 115
f 115 127 128
f 115 128 116
f 116 117 129
f 116 129 128
f 130 131 132
f 130 132 133
f 130 134 135
f 130 135 133
f 130 131 136
f 130 136 134
f 133 132 137
f 133 137 138
f 133 135 139
f 133 139 138
f 138 137 140
f 138 140 119
f 138 139 124
f 138 124 119
f 119 140 141
f 119 141 120
f 120 141 142
f 120 142 125
f 125 142 143
f 125 143 126
f 126 143 144
f 126 144 127
f 127 144 145
f 127 145 128
f 128 129 146
f 128 146 145
f 147 148 149
f 147 149 150
f 147 151 152
f 147 152 150
f 147 148 153
f 147 153 151
f 150 149 154
f 150 154 155
f 150 152 156
f 150 156 155
f 155 154 157
f 155 157 131
f 155 156 136
f 155 136 131
f 131 157 158
f 131 158 132
f 132 158 159
f 132 159 137
f 137 159 160
f 137 160 140
f 140 160 161
f 140 161 141
f 141 161 162
f 141 162 142
f 142 162 163
f 142 163 143
f 143 163 164
f 143 164 144
f 144 164 165
f 144 165 145
f 145 146 166
f 145 166 165
f 167 168 169
f 167 169 170
f 167 171 172
f 167 172 170
f 167 168 173
f 167 173 171
f 170 169 174
f 170 174 175
f 170 172 176
f 170 176 175
f 175 174 177
f 175 177 148
f 175 176 153
f 175 153 148
f 148 177 178
f 148 178 149
f 149 178 179
f 149 179 154
f 154 179 180
f 154 180 157
f 157 180 181
f 157 181 158
f 158 181 182
f 158 182 159
f 159 182 183
f 159 183 160
f 160 183 184
f 160 184 161
f 161 184 185
f 161 185 162
f 162 185 186
f 162 186 163
f 163 186 187
f 163 187 164
f 164 187 188
f 164 188 165
f 165 166 189
f 165 189 188
f 168 190 191
f 168 191 169
f 190 191 192
f 190 192 193
f 168 190 193
f 168 193 173
f 169 191 194
f 169 194 174
f 191 194 195
f 191 195 192
f 174 194 196
f 174 196 177
f 194 196 197
f 194 197 195
f 177 196 198
f 177 198 178
f 196 198 199
f 196 199 197
f 178 198 200
f 178 200 179
f 198 200 201
f 198 201 199
f 179 200 202
f 179 202 180
f 200 202 203
f 200 203 201
f 180 202 204
f 180 204 181
f 202 204 205
f 202 205 203
f 181 204 206
f 181 206 182
f 204 206 207
f 204 207 205
f 182 206 208
f 182 208 183
f 206 208 209
f 206 209 207
f 183 208 210
f 183 210 184
f 208 210 211
f 208 211 209
f 184 210 212
f 184 212 185
f 210 212 213
f 210 213 211
f 185 212 214
f 185 214 186
f 212 214 215
f 212 215 213
f 186 214 216
f 186 216 187
f 214 216 217
f 214 217 215
f 187 216 218
f 187 218 188
f 216 218 219
f 216 219 217
f 188 189 219
f 188 219 218
f 5 220 221
f 5 221 6
f 8 7 222
f 8 222 223
f 5 8 223
f 5 223 220
f 6 221 224
f 6 224 11
f 7 12 225
f 7 225 222
f 11 224 226
f 11 226 15
f 12 16 227
f 12 227 225
f 15 226 228
f 15 228 19
f 16 20 229
f 16 229 227
f 19 228 230
f 19 230 23
f 23 230 231
f 23 231 26
f 26 231 232
f 26 232 29
f 29 232 233
f 29 233 32
f 32 233 234
f 32 234 35
f 35 234 235
f 35 235 38
f 38 235 236
f 38 236 41
f 41 236 237
f 41 237 44
f 44 237 238
f 44 238 47
f 47 238 239
f 47 239 50
f 50 239 240
f 50 240 51
f 55 54 241
f 55 241 242
f 20 55 242
f 20 242 229
f 54 57 243
f 54 243 241
f 57 59 244
f 57 244 243
f 51 240 245
f 51 245 67
f 71 70 246
f 71 246 247
f 59 71 247
f 59 247 244
f 70 73 248
f 70 248 246
f 73 75 249
f 73 249 248
f 67 245 250
f 67 250 80
f 84 83 251
f 84 251 252
f 75 84 252
f 75 252 249
f 83 86 253
f 83 253 251
f 80 250 254
f 80 254 89
f 93 92 255
f 93 255 256
f 86 93 256
f 86 256 253
f 89 254 257
f 89 257 95
f 92 98 258
f 92 258 255
f 95 257 259
f 95 259 99
f 98 102 260
f 98 260 258
f 99 259 261
f 99 261 103
f 102 106 262
f 102 262 260
f 103 261 263
f 103 263 107
f 112 264 265
f 112 265 113
f 112 114 266
f 112 266 264
f 113 265 262
f 113 262 106
f 107 263 267
f 107 267 117
f 122 268 269
f 122 269 123
f 122 124 270
f 122 270 268
f 123 269 266
f 123 266 114
f 117 267 271
f 117 271 129
f 134 272 273
f 134 273 135
f 134 136 274
f 134 274 272
f 135 273 275
f 135 275 139
f 139 275 270
f 139 270 124
f 129 271 276
f 129 276 146
f 151 277 278
f 151 278 152
f 151 153 279
f 151 279 277
f 152 278 280
f 152 280 156
f 156 280 274
f 156 274 136
f 146 276 281
f 146 281 166
f 171 282 283
f 171 283 172
f 171 173 284
f 171 284 282
f 172 283 285
f 172 285 176
f 176 285 279
f 176 279 153
f 166 281 286
f 166 286 189
f 193 192 287
f 193 287 288
f 173 193 288
f 173 288 284
f 192 195 289
f 192 289 287
f 195 197 290
f 195 290 289
f 197 199 291
f 197 291 290
f 199 201 292
f 199 292 291
f 201 203 293
f 201 293 292
f 203 205 294
f 203 294 293
f 205 207 295
f 205 295 294
f 207 209 296
f 207 296 295
f 209 211 297
f 209 297 296
f 211 213 298
f 211 298 297
f 213 215 299
f 213 299 298
f 215 217 300
f 215 300 299
f 217 219 301
f 217 301 300
f 189 286 301
f 189 301 219
f 220 302 303
f 220 303 221
f 223 222 304
f 223 304 305
f 220 223 305
f 220 305 302
f 221 303 306
f 221 306 224
f 222 225 307
f 222 307 304
f 224 306 308
f 224 308 226
f 225 227 309
f 225 309 307
f 226 308 310
f 226 310 228
f 227 229 311
f 227 311 309
f 228 310 312
f 228 312 230
f 230 312 313
f 230 313 231
f 231 313 314
f 231 314 232
f 232 314 315
f 232 315 233
f 233 315 316
f 233 316 234
f 234 316 317
f 234 317 235
f 235 317 318
f 235 318 236
f 236 318 319
f 236 319 237
f 237 319 320
f 237 320 238
f 238 320 321
f 238 321 239
f 239 321 322
f 239 322 240
f 242 241 323
f 242 323 324
f 229 242 324
f 229 324 311
f 241 243 325
f 241 325 323
f 243 244 326
f 243 326 325
f 240 322 327
f 240 327 245
f 247 246 328
f 247 328 329
f 244 247 329
f 244 329 326
f 246 248 330
f 246 330 328
f 248 249 331
f 248 331 330
f 245 327 332
f 245 332 250
f 252 251 333
f 252 333 334
f 249 252 334
f 249 334 331
f 251 253 335
f 251 335 333
f 250 332 336
f 250 336 254
f 256 255 337
f 256 337 338
f 253 256 338
f 253 338 335
f 254 336 339
f 254 339 257
f 255 258 340
f 255 340 337
f 257 339 341
f 257 341 259
f 258 260 342
f 258 342 340
f 259 341 343
f 259 343 261
f 260 262 344
f 260 344 342
f 261 343 345
f 261 345 263
f 264 346 347
f 264 347 265
f 264 266 348
f 264 348 346
f 265 347 344
f 265 344 262
f 263 345 349
f 263 349 267
f 268 350 351
f 268 351 269
f 268 270 352
f 268 352 350
f 269 351 348
f 269 348 266
f 267 349 353
f 267 353 271
f 272 354 355
f 272 355 273
f 272 274 356
f 272 356 354
f 273 355 357
f 273 357 275
f 275 357 352
f 275 352 270
f 271 353 358
f 271 358 276
f 277 359 360
f 277 360 278
f 277 279 361
f 277 361 359
f 278 360 362
f 278 362 280
f 280 362 356
f 280 356 274
f 276 358 363
f 276 363 281
f 282 364 365
f 282 365 283
f 282 284 366
f 282 366 364
f 283 365 367
f 283 367 285
f 285 367 361
f 285 361 279
f 281 363 368
f 281 368 286
f 288 287 369
f 288 369 370
f 284 288 370
f 284 370 366
f 287 289 371
f 287 371 369
f 289 290 372
f 289 372 371
f 290 291 373
f 290 373 372
f 291 292 374
f 291 374 373
f 292 293 375
f 292 375 374
f 293 294 376
f 293 376 375
f 294 295 377
f 294 377 376
f 295 296 378
f 295 378 377
f 296 297 379
f 296 379 378
f 297 298 380
f 297 380 379
f 298 299 381
f 298 381 380
f 299 300 382
f 299 382 381
f 300 301 383
f 300 383 382
f 286 368 383
f 286 383 301
f 302 384 385
f 302 385 303
f 305 304 386
f 305 386 387
f 302 305 387
f 302 387 384
f 303 385 388
f 303 388 306
f 304 307 389
f 304 389 386
f 306 388 390
f 306 390 308
f 307 309 391
f 307 391 389
f 308 390 392
f 308 392 310
f 309 311 393
f 309 393 391
f 310 392 394
f 310 394 312
f 312 394 395
f 312 395 313
f 313 395 396
f 313 396 314
f 314 396 397
f 314 397 315
f 315 397 398
f 315 398 316
f 316 398 399
f 316 399 317
f 317 399 400
f 317 400 318
f 318 400 401
f 318 401 319
f 319 401 402
f 319 402 320
f 320 402 403
f 320 403 321
f 321 403 404
f 321 404 322
f 324 323 405
f 324 405 406
f 311 324 406
f 311 406 393
f 323 325 407
f 323 407 405
f 325 326 408
f 325 408 407
f 322 404 409
f 322 409 327
f 329 328 410
f 329 410 411
f 326 329 411
f 326 411 408
f 328 330 412
f 328 412 410
f 330 331 413
f 330 413 412
f 327 409 414
f 327 414 332
f 334 333 415
f 334 415 416
f 331 334 416
f 331 416 413
f 333 335 417
f 333 417 415
f 332 414 418
f 332 418 336
f 338 337 419
f 338 419 420
f 335 338 420
f 335 420 417
f 336 418 421
f 336 421 339
f 337 340 422
f 337 422 419
f 339 421 423
f 339 423 341
f 340 342 424
f 340 424 422
f 341 423 425
f 341 425 343
f 342 344 426
f 342 426 424
f 343 425 427
f 343 427 345
f 346 428 429
f 346 429 347
f 346 348 430
f 346 430 428
f 347 429 426
f 347 426 344
f 345 427 431
f 345 431 349
f 350 432 433
f 350 433 351
f 350 352 434
f 350 434 432
f 351 433 430
f 351 430 348
f 349 431 435
f 349 435 353
f 354 436 437
f 354 437 355
f 354 356 438
f 354 438 436
f 355 437 439
f 355 439 357
f 357 439 434
f 357 434 352
f 353 435 440
f 353 440 358
f 359 441 442
f 359 442 360
f 359 361 443
f 359 443 441
f 360 442 444
f 360 444 362
f 362 444 438
f 362 438 356
f 358 440 445
f 358 445 363
f 364 446 447
f 364 447 365
f 364 366 448
f 364 448 446
f 365 447 449
f 365 449 367
f 367 449 443
f 367 443 361
f 363 445 450
f 363 450 368
f 370 369 451
f 370 451 452
f 366 370 452
f 366 452 448
f 369 371 453
f 369 453 451
f 371 372 454
f 371 454 453
f 372 373 455
f 372 455 454
f 373 374 456
f 373 456 455
f 374 375 457
f 374 457 456
f 375 376 458
f 375 458 457
f 376 377 459
f 376 459 458
f 377 378 460
f 377 460 459
f 378 379 461
f 378 461 460
f 379 380 462
f 379 462 461
f 380 381 463
f 380 463 462
f 381 382 464
f 381 464 463
f 382 383 465
f 382 465 464
f 368 450 465
f 368 465 383
f 384 466 467
f 384 467 385
f 387 386 468
f 387 468 469
f 384 387 469
f 384 469 466
f 385 467 470
f 385 470 388
f 386 389 471
f 386 471 468
f 388 470 472
f 388 472 390
f 389 391 473
f 389 473 471
f 390 472 474
f 390 474 392
f 391 393 475
f 391 475 473
f 392 474 476
f 392 476 394
f 394 476 477
f 394 477 395
f 395 477 478
f 395 478 396
f 396 478 479
f 396 479 397
f 397 479 480
f 397 480 398
f 398 480 481
f 398 481 399
f 399 481 482
f 399 482 400
f 400 482 483
f 400 483 401
f 401 483 484
f 401 484 402
f 402 484 485
f 402 485 403
f 403 485 486
f 403 486 404
f 406 405 487
f 406 487 488
f 393 406 488
f 393 488 475
f 405 407 489
f 405 489 487
f 407 408 490
f 407 490 489
f 404 486 491
f 404 491 409
f 411 410 492
f 411 492 493
f 408 411 493
f 408 493 490
f 410 412 494
f 410 494 492
f 412 413 495
f 412 495 494
f 409 491 496
f 409 496 414
f 416 415 497
f 416 497 498
f 413 416 498
f 413 498 495
f 415 417 499
f 415 499 497
f 414 496 500
f 414 500 418
f 420 419 501
f 420 501 502
f 417 420 502
f 417 502 499
f 418 500 503
f 418 503 421
f 419 422 504
f 419 504 501
f 421 503 505
f 421 505 423
f 422 424 506
f 422 506 504
f 423 505 507
f 423 507 425
f 424 426 508
f 424 508 506
f 425 507 509
f 425 509 427
f 428 510 511
f 428 511 429
f 428 430 512
f 428 512 510
f 429 511 508
f 429 508 426
f 427 509 513
f 427 513 431
f 432 514 515
f 432 515 433
f 432 434 516
f 432 516 514
f 433 515 512
f 433 512 430
f 431 513 517
f 431 517 435
f 436 518 519
f 436 519 437
f 436 438 520
f 436 520 518
f 437 519 521
f 437 521 439
f 439 521 516
f 439 516 434
f 435 517 522
f 435 522 440
f 441 523 524
f 441 524 442
f 441 443 525
f 441 525 523
f 442 524 526
f 442 526 444
f 444 526 520
f 444 520 438
f 440 522 527
f 440 527 445
f 446 528 529
f 446 529 447
f 446 448 530
f 446 530 528
f 447 529 531
f 447 531 449
f 449 531 525
f 449 525 443
f 445 527 532
f 445 532 450
f 452 451 533
f 452 533 534
f 448 452 534
f 448 534 530
f 451 453 535
f 451 535 533
f 453 454 536
f 453 536 535
f 454 455 537
f 454 537 536
f 455 456 538
f 455 538 537
f 456 457 539
f 456 539 538
f 457 458 540
f 457 540 539
f 458 459 541
f 458 541 540
f 459 460 542
f 459 542 541
f 460 461 543
f 460 543 542
f 461 462 544
f 461 544 543
f 462 463 545
f 462 545 544
f 463 464 546
f 463 546 545
f 464 465 547
f 464 547 546
f 450 532 547
f 450 547 465
f 466 548 549
f 466 549 467
f 469 468 550
f 469 550 551
f 466 469 551
f 466 551 548
f 467 549 552
f 467 552 470
f 468 471 553
f 468 553 550
f 470 552 554
f 470 554 472
f 471 473 555
f 471 555 553
f 472 554 556
f 472 556 474
f 473 475 557
f 473 557 555
f 474 556 558
f 474 558 476
f 476 558 559
f 476 559 477
f 477 559 560
f 477 560 478
f 478 560 561
f 478 561 479
f 479 561 562
f 479 562 480
f 480 562 563
f 480 563 481
f 481 563 564
f 481 564 482
f 482 564 565
f 482 565 483
f 483 565 566
f 483 566 484
f 484 566 567
f 484 567 485
f 485 567 568
f 485 568 486
f 488 487 569
f 488 569 570
f 475 488 570
f 475 570 557
f 487 489 571
f 487 571 569
f 489 490 572
f 489 572 571
f 486 568 573
f 486 573 491
f 493 492 574
f 493 574 575
f 490 493 575
f 490 575 572
f 492 494 576
f 492 576 574
f 494 495 577
f 494 577 576
f 491 573 578
f 491 578 496
f 498 497 579
f 498 579 580
f 495 498 580
f 495 580 577
f 497 499 581
f 497 581 579
f 496 578 582
f 496 582 500
f 502 501 583
f 502 583 584
f 499 502 584
f 499 584 581
f 500 582 585
f 500 585 503
f 501 504 586
f 501 586 583
f 503 585 587
f 503 587 505
f 504 506 588
f 504 588 586
f 505 587 589
f 505 589 507
f 506 508 590
f 506 590 588
f 507 589 591
f 507 591 509
f 510 592 593
f 510 593 511
f 510 512 594
f 510 594 592
f 511 593 590
f 511 590 508
f 509 591 595
f 509 595 513
f 514 596 597
f 514 597 515
f 514 516 598
f 514 598 596
f 515 597 594
f 515 594 512
f 513 595 599
f 513 599 517
f 518 600 601
f 518 601 519
f 518 520 602
f 518 602 600
f 519 601 603
f 519 603 521
f 521 603 598
f 521 598 516
f 517 599 604
f 517 604 522
f 523 605 606
f 523 606 524
f 523 525 607
f 523 607 605
f 524 606 608
f 524 608 526
f 526 608 602
f 526 602 520
f 522 604 609
f 522 609 527
f 528 610 611
f 528 611 529
f 528 530 612
f 528 612 610
f 529 611 613
f 529 613 531
f 531 613 607
f 531 607 525
f 527 609 614
f 527 614 532
f 534 533 615
f 534 615 616
f 530 534 616
f 530 616 612
f 533 535 617
f 533 617 615
f 535 536 618
f 535 618 617
f 536 537 619
f 536 619 618
f 537 538 620
f 537 620 619
f 538 539 621
f 538 621 620
f 539 540 622
f 539 622 621
f 540 541 623
f 540 623 622
f 541 542 624
f 541 624 623
f 542 543 625
f 542 625 624
f 543 544 626
f 543 626 625
f 544 545 627
f 544 627 626
f 545 546 628
f 545 628 627
f 546 547 629
f 546 629 628
f 532 614 629
f 532 629 547
f 548 630 631
f 548 631 549
f 551 550 632
f 551 632 633
f 548 551 633
f 548 633 630
f 549 631 634
f 549 634 552
f 550 553 635
f 550 635 632
f 552 634 636
f 552 636 554
f 553 555 637
f 553 637 635
f 554 636 638
f 554 638 556
f 555 557 639
f 555 639 637
f 556 638 640
f 556 640 558
f 558 640 641
f 558 641 559
f 559 641 642
f 559 642 560
f 560 642 643
f 560 643 561
f 561 643 644
f 561 644 562
f 562 644 645
f 562 645 563
f 563 645 646
f 563 646 564
f 564 646 647
f 564 647 565
f 565 647 648
f 565 648 566
f 566 648 649
f 566 649 567
f 567 649 650
f 567 650 568
f 570 569 651
f 570 651 652
f 557 570 652
f 557 652 639
f 569 571 653
f 569 653 651
f 571 572 654
f 571 654 653
f 568 650 655
f 568 655 573
f 575 574 656
f 575 656 657
f 572 575 657
f 572 657 654
f 574 576 658
f 574 658 656
f 576 577 659
f 576 659 658
f 573 655 660
f 573 660 578
f 580 579 661
f 580 661 662
f 577 580 662
f 577 662 659
f 579 581 663
f 579 663 661
f 578 660 664
f 578 664 582
f 584 583 665
f 584 665 666
f 581 584 666
f 581 666 663
f 582 664 667
f 582 667 585
f 583 586 668
f 583 668 665
f 585 667 669
f 585 669 587
f 586 588 670
f 586 670 668
f 587 669 671
f 587 671 589
f 588 590 672
f 588 672 670
f 589 671 673
f 589 673 591
f 592 674 675
f 592 675 593
f 592 594 676
f 592 676 674
f 593 675 672
f 593 672 590
f 591 673 677
f 591 677 595
f 596 678 679
f 596 679 597
f 596 598 680
f 596 680 678
f 597 679 676
f 597 676 594
f 595 677 681
f 595 681 599
f 600 682 683
f 600 683 601
f 600 602 684
f 600 684 682
f 601 683 685
f 601 685 603
f 603 685 680
f 603 680 598
f 599 681 686
f 599 686 604
f 605 687 688
f 605 688 606
f 605 607 689
f 605 689 687
f 606 688 690
f 606 690 608
f 608 690 684
f 608 684 602
f 604 686 691
f 604 691 609
f 610 692 693
f 610 693 611
f 610 612 694
f 610 694 692
f 611 693 695
f 611 695 613
f 613 695 689
f 613 689 607
f 609 691 696
f 609 696 614
f 616 615 697
f 616 697 698
f 612 616 698
f 612 698 694
f 615 617 699
f 615 699 697
f 617 618 700
f 617 700 699
f 618 619 701
f 618 701 700
f 619 620 702
f 619 702 701
f 620 621 703
f 620 703 702
f 621 622 704
f 621 704 703
f 622 623 705
f 622 705 704
f 623 624 706
f 623 706 705
f 624 625 707
f 624 707 706
f 625 626 708
f 625 708 707
f 626 627 709
f 626 709 708
f 627 628 710
f 627 710 709
f 628 629 711
f 628 711 710
f 614 696 711
f 614 711 629
f 630 712 713
f 630 713 631
f 633 632 714
f 633 714 715
f 630 633 715
f 630 715 712
f 631 713 716
f 631 716 634
f 632 635 717
f 632 717 714
f 634 716 718
f 634 718 636
f 635 637 719
f 635 719 717
f 636 718 720
f 636 720 638
f 637 639 721
f 637 721 719
f 638 720 722
f 638 722 640
f 640 722 723
f 640 723 641
f 641 723 724
f 641 724 642
f 642 724 725
f 642 725 643
f 643 725 726
f 643 726 644
f 644 726 727
f 644 727 645
f 645 727 728
f 645 728 646
f 646 728 729
f 646 729 647
f 647 729 730
f 647 730 648
f 648 730 731
f 648 731 649
f 649 731 732
f 649 732 650
f 652 651 733
f 652 733 734
f 639 652 734
f 639 734 721
f 651 653 735
f 651 735 733
f 653 654 736
f 653 736 735
f 650 732 737
f 650 737 655
f 657 656 738
f 657 738 739
f 654 657 739
f 654 739 736
f 656 658 740
f 656 740 738
f 658 659 741
f 658 741 740
f 655 737 742
f 655 742 660
f 662 661 743
f 662 743 744
f 659 662 744
f 659 744 741
f 661 663 745
f 661 745 743
f 660 742 746
f 660 746 664
f 666 665 747
f 666 747 748
f 663 666 748
f 663 748 745
f 664 746 749
f 664 749 667
f 665 668 750
f 665 750 747
f 667 749 751
f 667 751 669
f 668 670 752
f 668 752 750
f 669 751 753
f 669 753 671
f 670 672 754
f 670 754 752
f 671 753 755
f 671 755 673
f 674 756 757
f 674 757 675
f 674 676 758
f 674 758 756
f 675 757 754
f 675 754 672
f 673 755 759
f 673 759 677
f 678 760 761
f 678 761 679
f 678 680 762
f 678 762 760
f 679 761 758
f 679 758 676
f 677 759 763
f 677 763 681
f 682 764 765
f 682 765 683
f 682 684 766
f 682 766 764
f 683 765 767
f 683 767 685
f 685 767 762
f 685 762 680
f 681 763 768
f 681 768 686
f 687 769 770
f 687 770 688
f 687 689 771
f 687 771 769
f 688 770 772
f 688 772 690
f 690 772 766
f 690 766 684
f 686 768 773
f 686 773 691
f 692 774 775
f 692 775 693
f 692 694 776
f 692 776 774
f 693 775 777
f 693 777 695
f 695 777 771
f 695 771 689
f 691 773 778
f 691 778 696
f 698 697 779
f 698 779 780
f 694 698 780
f 694 780 776
f 697 699 781
f 697 781 779
f 699 700 782
f 699 782 781
f 700 701 783
f 700 783 782
f 701 702 784
f 701 784 783
f 702 703 785
f 702 785 784
f 703 704 786
f 703 786 785
f 704 705 787
f 704 787 786
f 705 706 788
f 705 788 787
f 706 707 789
f 706 789 788
f 707 708 790
f 707 790 789
f 708 709 791
f 708 791 790
f 709 710 792
f 709 792 791
f 710 711 793
f 710 793 792
f 696 778 793
f 696 793 711
f 712 794 795
f 712 795 713
f 715 714 796
f 715 796 797
f 712 715 797
f 712 797 794
f 713 795 798
f 713 798 716
f 714 717 799
f 714 799 796
f 716 798 800
f 716 800 718
f 717 719 801
f 717 801 799
f 718 800 802
f 718 802 720
f 719 721 803
f 719 803 801
f 720 802 804
f 720 804 722
f 722 804 805
f 722 805 723
f 723 805 806
f 723 806 724
f 724 806 807
f 724 807 725
f 725 807 808
f 725 808 726
f 726 808 809
f 726 809 727
f 727 809 810
f 727 810 728
f 728 810 811
f 728 811 729
f 729 811 812
f 729 812 730
f 730 812 813
f 730 813 731
f 731 813 814
f 731 814 732
f 734 733 815
f 734 815 816
f 721 734 816
f 721 816 803
f 733 735 817
f 733 817 815
f 735 736 818
f 735 818 817
f 732 814 819
f 732 819 737
f 739 738 820
f 739 820 821
f 736 739 821
f 736 821 818
f 738 740 822
f 738 822 820
f 740 741 823
f 740 823 822
f 737 819 824
f 737 824 742
f 744 743 825
f 744 825 826
f 741 744 826
f 741 826 823
f 743 745 827
f 743 827 825
f 742 824 828
f 742 828 746
f 748 747 829
f 748 829 830
f 745 748 830
f 745 830 827
f 746 828 831
f 746 831 749
f 747 750 832
f 747 832 829
f 749 831 833
f 749 833 751
f 750 752 834
f 750 834 832
f 751 833 835
f 751 835 753
f 752 754 836
f 752 836 834
f 753 835 837
f 753 837 755
f 756 838 839
f 756 839 757
f 756 758 840
f 756 840 838
f 757 839 836
f 757 836 754
f 755 837 841
f 755 841 759
f 760 842 843
f 760 843 761
f 760 762 844
f 760 844 842
f 761 843 840
f 761 840 758
f 759 841 845
f 759 845 763
f 764 846 847
f 764 847 765
f 764 766 848
f 764 848 846
f 765 847 849
f 765 849 767
f 767 849 844
f 767 844 762
f 763 845 850
f 763 850 768
f 769 851 852
f 769 852 770
f 769 771 853
f 769 853 851
f 770 852 854
f 770 854 772
f 772 854 848
f 772 848 766
f 768 850 855
f 768 855 773
f 774 856 857
f 774 857 775
f 774 776 858
f 774 858 856
f 775 857 859
f 775 859 777
f 777 859 853
f 777 853 771
f 773 855 860
f 773 860 778
f 780 779 861
f 780 861 862
f 776 780 862
f 776 862 858
f 779 781 863
f 779 863 861
f 781 782 864
f 781 864 863
f 782 783 865
f 782 865 864
f 783 784 866
f 783 866 865
f 784 785 867
f 784 867 866
f 785 786 868
f 785 868 867
f 786 787 869
f 786 869 868
f 787 788 870
f 787 870 869
f 788 789 871
f 788 871 870
f 789 790 872
f 789 872 871
f 790 791 873
f 790 873 872
f 791 792 874
f 791 874 873
f 792 793 875
f 792 875 874
f 778 860 875
f 778 875 793
f 794 876 877
f 794 877 795
f 797 796 878
f 797 878 879
f 794 797 879
f 794 879 876
f 795 877 880
f 795 880 798
f 796 799 881
f 796 881 878
f 798 880 882
f 798 882 800
f 799 801 883
f 799 883 881
f 800 882 884
f 800 884 802
f 801 803 885
f 801 885 883
f 802 884 886
f 802 886 804
f 804 886 887
f 804 887 805
f 805 887 888
f 805 888 806
f 806 888 889
f 806 889 807
f 807 889 890
f 807 890 808
f 808 890 891
f 808 891 809
f 809 891 892
f 809 892 810
f 810 892 893
f 810 893 811
f 811 893 894
f 811 894 812
f 812 894 895
f 812 895 813
f 813 895 896
f 813 896 814
f 816 815 897
f 816 897 898
f 803 816 898
f 803 898 885
f 815 817 899
f 815 899 897
f 817 818 900
f 817 900 899
f 814 896 901
f 814 901 819
f 821 820 902
f 821 902 903
f 818 821 903
f 818 903 900
f 820 822 904
f 820 904 902
f 822 823 905
f 822 905 904
f 819 901 906
f 819 906 824
f 826 825 907
f 826 907 908
f 823 826 908
f 823 908 905
f 825 827 909
f 825 909 907
f 824 906 910
f 824 910 828
f 830 829 911
f 830 911 912
f 827 830 912
f 827 912 909
f 828 910 913
f 828 913 831
f 829 832 914
f 829 914 911
f 831 913 915
f 831 915 833
f 832 834 916
f 832 916 914
f 833 915 917
f 833 917 835
f 834 836 918
f 834 918 916
f 835 917 919
f 835 919 837
f 838 920 921
f 838 921 839
f 838 840 922
f 838 922 920
f 839 921 918
f 839 918 836
f 837 919 923
f 837 923 841
f 842 924 925
f 842 925 843
f 842 844 926
f 842 926 924
f 843 925 922
f 843 922 840
f 841 923 927
f 841 927 845
f 846 928 929
f 846 929 847
f 846 848 930
f 846 930 928
f 847 929 931
f 847 931 849
f 849 931 926
f 849 926 844
f 845 927 932
f 845 932 850
f 851 933 934
f 851 934 852
f 851 853 935
f 851 935 933
f 852 934 936
f 852 936 854
f 854 936 930
f 854 930 848
f 850 932 937
f 850 937 855
f 856 938 939
f 856 939 857
f 856 858 940
f 856 940 938
f 857 939 941
f 857 941 859
f 859 941 935
f 859 935 853
f 855 937 942
f 855 942 860
f 862 861 943
f 862 943 944
f 858 862 944
f 858 944 940
f 861 863 945
f 861 945 943
f 863 864 946
f 863 946 945
f 864 865 947
f 864 947 946
f 865 866 948
f 865 948 947
f 866 867 949
f 866 949 948
f 867 868 950
f 867 950 949
f 868 869 951
f 868 951 950
f 869 870 952
f 869 952 951
f 870 871 953
f 870 953 952
f 871 872 954
f 871 954 953
f 872 873 955
f 872 955 954
f 873 874 956
f 873 956 955
f 874 875 957
f 874 957 956
f 860 942 957
f 860 957 875
f 876 958 959
f 876 959 877
f 879 878 960
f 879 960 961
f 876 879 961
f 876 961 958
f 877 959 962
f 877 962 880
f 878 881 963
f 878 963 960
f 880 962 964
f 880 964 882
f 881 883 965
f 881 965 963
f 882 964 966
f 882 966 884
f 883 885 967
f 883 967 965
f 884 966 968
f 884 968 886
f 886 968 969
f 886 969 887
f 887 969 970
f 887 970 888
f 888 970 971
f 888 971 889
f 889 971 972
f 889 972 890
f 890 972 973
f 890 973 891
f 891 973 974
f 891 974 892
f 892 974 975
f 892 975 893
f 893 975 976
f 893 976 894
f 894 976 977
f 894 977 895
f 895 977 978
f 895 978 896
f 898 897 979
f 898 979 980
f 885 898 980
f 885 980 967
f 897 899 981
f 897 981 979
f 899 900 982
f 899 982 981
f 896 978 983
f 896 983 901
f 903 902 984
f 903 984 985
f 900 903 985
f 900 985 982
f 902 904 986
f 902 986 984
f 904 905 987
f 904 987 986
f 901 983 988
f 901 988 906
f 908 907 989
f 908 989 990
f 905 908 990
f 905 990 987
f 907 909 991
f 907 991 989
f 906 988 992
f 906 992 910
f 912 911 993
f 912 993 994
f 909 912 994
f 909 994 991
f 910 992 995
f 910 995 913
f 911 914 996
f 911 996 993
f 913 995 997
f 913 997 915
f 914 916 998
f 914 998 996
f 915 997 999
f 915 999 917
f 916 918 1000
f 916 1000 998
f 917 999 1001
f 917 1001 919
f 920 1002 1003
f 920 1003 921
f 920 922 1004
f 920 1004 1002
f 921 1003 1000
f 921 1000 918
f 919 1001 1005
f 919 1005 923
f 924 1006 1007
f 924 1007 925
f 924 926 1008
f 924 1008 1006
f 925 1007 1004
f 925 1004 922
f 923 1005 1009
f 923 1009 927
f 928 1010 1011
f 928 1011 929
f 928 930 1012
f 928 1012 1010
f 929 1011 1013
f 929 1013 931
f 931 1013 1008
f 931 1008 926
f 927 1009 1014
f 927 1014 932
f 933 1015 1016
f 933 1016 934
f 933 935 1017
f 933 1017 1015
f 934 1016 1018
f 934 1018 936
f 936 1018 1012
f 936 1012 930
f 932 1014 1019
f 932 1019 937
f 938 1020 1021
f 938 1021 939
f 938 940 1022
f 938 1022 1020
f 939 1021 1023
f 939 1023 941
f 941 1023 1017
f 941 1017 935
f 937 1019 1024
f 937 1024 942
f 944 943 1025
f 944 1025 1026
f 940 944 1026
f 940 1026 1022
f 943 945 1027
f 943 1027 1025
f 945 946 1028
f 945 1028 1027
f 946 947 1029
f 946 1029 1028
f 947 948 1030
f 947 1030 1029
f 948 949 1031
f 948 1031 1030
f 949 950 1032
f 949 1032 1031
f 950 951 1033
f 950 1033 1032
f 951 952 1034
f 951 1034 1033
f 952 953 1035
f 952 1035 1034
f 953 954 1036
f 953 1036 1035
f 954 955 1037
f 954 1037 1036
f 955 956 1038
f 955 1038 1037
f 956 957 1039
f 956 1039 1038
f 942 1024 1039
f 942 1039 957
f 958 1040 1041
f 958 1041 959
f 961 960 1042
f 961 1042 1043
f 958 961 1043
f 958 1043 1040
f 959 1041 1044
f 959 1044 962
f 960 963 1045
f 960 1045 1042
f 962 1044 1046
f 962 1046 964
f 963 965 1047
f 963 1047 1045
f 964 1046 1048
f 964 1048 966
f 965 967 1049
f 965 1049 1047
f 966 1048 1050
f 966 1050 968
f 968 1050 1051
f 968 1051 969
f 969 1051 1052
f 969 1052 970
f 970 1052 1053
f 970 1053 971
f 971 1053 1054
f 971 1054 972
f 972 1054 1055
f 972 1055 973
f 973 1055 1056
f 973 1056 974
f 974 1056 1057
f 974 1057 975
f 975 1057 1058
f 975 1058 976
f 976 1058 1059
f 976 1059 977
f 977 1059 1060
f 977 1060 978
f 980 979 1061
f 980 1061 1062
f 967 980 1062
f 967 1062 1049
f 979 981 1063
f 979 1063 1061
f 981 982 1064
f 981 1064 1063
f 978 1060 1065
f 978 1065 983
f 985 984 1066
f 985 1066 1067
f 982 985 1067
f 982 1067 1064
f 984 986 1068
f 984 1068 1066
f 986 987 1069
f 986 1069 1068
f 983 1065 1070
f 983 1070 988
f 990 989 1071
f 990 1071 1072
f 987 990 1072
f 987 1072 1069
f 989 991 1073
f 989 1073 1071
f 988 1070 1074
f 988 1074 992
f 994 993 1075
f 994 1075 1076
f 991 994 1076
f 991 1076 1073
f 992 1074 1077
f 992 1077 995
f 993 996 1078
f 993 1078 1075
f 995 1077 1079
f 995 1079 997
f 996 998 1080
f 996 1080 1078
f 997 1079 1081
f 997 1081 999
f 998 1000 1082
f 998 1082 1080
f 999 1081 1083
f 999 1083 1001
f 1002 1084 1085
f 1002 1085 1003
f 1002 1004 1086
f 1002 1086 1084
f 1003 1085 1082
f 1003 1082 1000
f 1001 1083 1087
f 1001 1087 1005
f 1006 1088 1089
f 1006 1089 1007
f 1006 1008 1090
f 1006 1090 1088
f 1007 1089 1086
f 1007 1086 1004
f 1005 1087 1091
f 1005 1091 1009
f 1010 1092 1093
f 1010 1093 1011
f 1010 1012 1094
f 1010 1094 1092
f 1011 1093 1095
f 1011 1095 1013
f 1013 1095 1090
f 1013 1090 1008
f 1009 1091 1096
f 1009 1096 1014
f 1015 1097 1098
f 1015 1098 1016
f 1015 1017 1099
f 1015 1099 1097
f 1016 1098 1100
f 1016 1100 1018
f 1018 1100 1094
f 1018 1094 1012
f 1014 1096 1101
f 1014 1101 1019
f 1020 1102 1103
f 1020 1103 1021
f 1020 1022 1104
f 1020 1104 1102
f 1021 1103 1105
f 1021 1105 1023
f 1023 1105 1099
f 1023 1099 1017
f 1019 1101 1106
f 1019 1106 1024
f 1026 1025 1107
f 1026 1107 1108
f 1022 1026 1108
f 1022 1108 1104
f 1025 1027 1109
f 1025 1109 1107
f 1027 1028 1110
f 1027 1110 1109
f 1028 1029 1111
f 1028 1111 1110
f 1029 1030 1112
f 1029 1112 1111
f 1030 1031 1113
f 1030 1113 1112
f 1031 1032 1114
f 1031 1114 1113
f 1032 1033 1115
f 1032 1115 1114
f 1033 1034 1116
f 1033 1116 1115
f 1034 1035 1117
f 1034 1117 1116
f 1035 1036 1118
f 1035 1118 1117
f 1036 1037 1119
f 1036 1119 1118
f 1037 1038 1120
f 1037 1120 1119
f 1038 1039 1121
f 1038 1121 1120
f 1024 1106 1121
f 1024 1121 1039
f 1040 1122 1123
f 1040 1123 1041
f 1043 1042 1124
f 1043 1124 1125
f 1040 1043 1125
f 1040 1125 1122
f 1041 1123 1126
f 1041 1126 1044
f 1042 1045 1127
f 1042 1127 1124
f 1044 1126 1128
f 1044 1128 1046
f 1045 1047 1129
f 1045 1129 1127
f 1046 1128 1130
f 1046 1130 1048
f 1047 1049 1131
f 1047 1131 1129
f 1048 1130 1132
f 1048 1132 1050
f 1050 1132 1133
f 1050 1133 1051
f 1051 1133 1134
f 1051 1134 1052
f 1052 1134 1135
f 1052 1135 1053
f 1053 1135 1136
f 1053 1136 1054
f 1054 1136 1137
f 1054 1137 1055
f 1055 1137 1138
f 1055 1138 1056
f 1056 1138 1139
f 1056 1139 1057
f 1057 1139 1140
f 1057 1140 1058
f 1058 1140 1141
f 1058 1141 1059
f 1059 1141 1142
f 1059 1142 1060
f 1062 1061 1143
f 1062 1143 1144
f 1049 1062 1144
f 1049 1144 1131
f 1061 1063 1145
f 1061 1145 1143
f 1063 1064 1146
f 1063 1146 1145
f 1060 1142 1147
f 1060 1147 1065
f 1067 1066 1148
f 1067 1148 1149
f 1064 1067 1149
f 1064 1149 1146
f 1066 1068 1150
f 1066 1150 1148
f 1068 1069 1151
f 1068 1151 1150
f 1065 1147 1152
f 1065 1152 1070
f 1072 1071 1153
f 1072 1153 1154
f 1069 1072 1154
f 1069 1154 1151
f 1071 1073 1155
f 1071 1155 1153
f 1070 1152 1156
f 1070 1156 1074
f 1076 1075 1157
f 1076 1157 1158
f 1073 1076 1158
f 1073 1158 1155
f 1074 1156 1159
f 1074 1159 1077
f 1075 1078 1160
f 1075 1160 1157
f 1077 1159 1161
f 1077 1161 1079
f 1078 1080 1162
f 1078 1162 1160
f 1079 1161 1163
f 1079 1163 1081
f 1080 1082 1164
f 1080 1164 1162
f 1081 1163 1165
f 1081 1165 1083
f 1084 1166 1167
f 1084 1167 1085
f 1084 1086 1168
f 1084 1168 1166
f 1085 1167 1164
f 1085 1164 1082
f 1083 1165 1169
f 1083 1169 1087
f 1088 1170 1171
f 1088 1171 1089
f 1088 1090 1172
f 1088 1172 1170
f 1089 1171 1168
f 1089 1168 1086
f 1087 1169 1173
f 1087 1173 1091
f 1092 1174 1175
f 1092 1175 1093
f 1092 1094 1176
f 1092 1176 1174
f 1093 1175 1177
f 1093 1177 1095
f 1095 1177 1172
f 1095 1172 1090
f 1091 1173 1178
f 1091 1178 1096
f 1097 1179 1180
f 1097 1180 1098
f 1097 1099 1181
f 1097 1181 1179
f 1098 1180 1182
f 1098 1182 1100
f 1100 1182 1176
f 1100 1176 1094
f 1096 1178 1183
f 1096 1183 1101
f 1102 1184 1185
f 1102 1185 1103
f 1102 1104 1186
f 1102 1186 1184
f 1103 1185 1187
f 1103 1187 1105
f 1105 1187 1181
f 1105 1181 1099
f 1101 1183 1188
f 1101 1188 1106
f 1108 1107 1189
f 1108 1189 1190
f 1104 1108 1190
f 1104 1190 1186
f 1107 1109 1191
f 1107 1191 1189
f 1109 1110 1192
f 1109 1192 1191
f 1110 1111 1193
f 1110 1193 1192
f 1111 1112 1194
f 1111 1194 1193
f 1112 1113 1195
f 1112 1195 1194
f 1113 1114 1196
f 1113 1196 1195
f 1114 1115 1197
f 1114 1197 1196
f 1115 1116 1198
f 1115 1198 1197
f 1116 1117 1199
f 1116 1199 1198
f 1117 1118 1200
f 1117 1200 1199
f 1118 1119 1201
f 1118 1201 1200
f 1119 1120 1202
f 1119 1202 1201
f 1120 1121 1203
f 1120 1203 1202
f 1106 1188 1203
f 1106 1203 1121
f 1204 1205 1206
f 1204 1206 1207
f 1122 1204 1205
f 1122 1205 1123
f 1125 1124 1206
f 1125 1206 1207
f 1122 1125 1207
f 1122 1207 1204
f 1205 1208 1209
f 1205 1209 1206
f 1123 1205 1208
f 1123 1208 1126
f 1124 1127 1209
f 1124 1209 1206
f 1208 1210 1211
f 1208 1211 1209
f 1126 1208 1210
f 1126 1210 1128
f 1127 1129 1211
f 1127 1211 1209
f 1210 1212 1213
f 1210 1213 1211
f 1128 1210 1212
f 1128 1212 1130
f 1129 1131 1213
f 1129 1213 1211
f 1212 1214 1215
f 1212 1215 1213
f 1130 1212 1214
f 1130 1214 1132
f 1214 1216 1217
f 1214 1217 1215
f 1132 1214 1216
f 1132 1216 1133
f 1216 1218 1219
f 1216 1219 1217
f 1133 1216 1218
f 1133 1218 1134
f 1218 1220 1221
f 1218 1221 1219
f 1134 1218 1220
f 1134 1220 1135
f 1220 1222 1223
f 1220 1223 1221
f 1135 1220 1222
f 1135 1222 1136
f 1222 1224 1225
f 1222 1225 1223
f 1136 1222 1224
f 1136 1224 1137
f 1224 1226 1227
f 1224 1227 1225
f 1137 1224 1226
f 1137 1226 1138
f 1226 1228 1229
f 1226 1229 1227
f 1138 1226 1228
f 1138 1228 1139
f 1228 1230 1231
f 1228 1231 1229
f 1139 1228 1230
f 1139 1230 1140
f 1230 1232 1233
f 1230 1233 1231
f 1140 1230 1232
f 1140 1232 1141
f 1141 1232 1233
f 1141 1233 1142
f 1213 1215 1234
f 1213 1234 1235
f 1144 1143 1234
f 1144 1234 1235
f 1131 1144 1235
f 1131 1235 1213
f 1215 1217 1236
f 1215 1236 1234
f 1143 1145 1236
f 1143 1236 1234
f 1217 1219 1237
f 1217 1237 1236
f 1145 1146 1237
f 1145 1237 1236
f 1219 1221 1238
f 1219 1238 1237
f 1221 1223 1239
f 1221 1239 1238
f 1223 1225 1240
f 1223 1240 1239
f 1225 1227 1241
f 1225 1241 1240
f 1227 1229 1242
f 1227 1242 1241
f 1229 1231 1243
f 1229 1243 1242
f 1231 1233 1244
f 1231 1244 1243
f 1142 1233 1244
f 1142 1244 1147
f 1237 1238 1245
f 1237 1245 1246
f 1149 1148 1245
f 1149 1245 1246
f 1146 1149 1246
f 1146 1246 1237
f 1238 1239 1247
f 1238 1247 1245
f 1148 1150 1247
f 1148 1247 1245
f 1239 1240 1248
f 1239 1248 1247
f 1150 1151 1248
f 1150 1248 1247
f 1240 1241 1249
f 1240 1249 1248
f 1241 1242 1250
f 1241 1250 1249
f 1242 1243 1251
f 1242 1251 1250
f 1243 1244 1252
f 1243 1252 1251
f 1147 1244 1252
f 1147 1252 1152
f 1248 1249 1253
f 1248 1253 1254
f 1154 1153 1253
f 1154 1253 1254
f 1151 1154 1254
f 1151 1254 1248
f 1249 1250 1255
f 1249 1255 1253
f 1153 1155 1255
f 1153 1255 1253
f 1250 1251 1256
f 1250 1256 1255
f 1251 1252 1257
f 1251 1257 1256
f 1152 1252 1257
f 1152 1257 1156
f 1255 1256 1258
f 1255 1258 1259
f 1158 1157 1258
f 1158 1258 1259
f 1155 1158 1259
f 1155 1259 1255
f 1256 1257 1260
f 1256 1260 1258
f 1156 1257 1260
f 1156 1260 1159
f 1258 1260 1261
f 1258 1261 1262
f 1157 1160 1262
f 1157 1262 1258
f 1159 1260 1261
f 1159 1261 1161
f 1262 1261 1263
f 1262 1263 1264
f 1160 1162 1264
f 1160 1264 1262
f 1161 1261 1263
f 1161 1263 1163
f 1264 1263 1265
f 1264 1265 1266
f 1162 1164 1266
f 1162 1266 1264
f 1163 1263 1265
f 1163 1265 1165
f 1267 1268 1269
f 1267 1269 1270
f 1166 1267 1268
f 1166 1268 1167
f 1166 1168 1270
f 1166 1270 1267
f 1268 1266 1271
f 1268 1271 1269
f 1167 1268 1266
f 1167 1266 1164
f 1266 1265 1272
f 1266 1272 1271
f 1165 1265 1272
f 1165 1272 1169
f 1273 1274 1275
f 1273 1275 1276
f 1170 1273 1274
f 1170 1274 1171
f 1170 1172 1276
f 1170 1276 1273
f 1274 1270 1277
f 1274 1277 1275
f 1171 1274 1270
f 1171 1270 1168
f 1270 1269 1278
f 1270 1278 1277
f 1269 1271 1279
f 1269 1279 1278
f 1271 1272 1280
f 1271 1280 1279
f 1169 1272 1280
f 1169 1280 1173
f 1281 1282 1283
f 1281 1283 1284
f 1174 1281 1282
f 1174 1282 1175
f 1174 1176 1284
f 1174 1284 1281
f 1282 1285 1286
f 1282 1286 1283
f 1175 1282 1285
f 1175 1285 1177
f 1285 1276 1287
f 1285 1287 1286
f 1177 1285 1276
f 1177 1276 1172
f 1276 1275 1288
f 1276 1288 1287
f 1275 1277 1289
f 1275 1289 1288
f 1277 1278 1290
f 1277 1290 1289
f 1278 1279 1291
f 1278 1291 1290
f 1279 1280 1292
f 1279 1292 1291
f 1173 1280 1292
f 1173 1292 1178
f 1293 1294 1295
f 1293 1295 1296
f 1179 1293 1294
f 1179 1294 1180
f 1179 1181 1296
f 1179 1296 1293
f 1294 1297 1298
f 1294 1298 1295
f 1180 1294 1297
f 1180 1297 1182
f 1297 1284 1299
f 1297 1299 1298
f 1182 1297 1284
f 1182 1284 1176
f 1284 1283 1300
f 1284 1300 1299
f 1283 1286 1301
f 1283 1301 1300
f 1286 1287 1302
f 1286 1302 1301
f 1287 1288 1303
f 1287 1303 1302
f 1288 1289 1304
f 1288 1304 1303
f 1289 1290 1305
f 1289 1305 1304
f 1290 1291 1306
f 1290 1306 1305
f 1291 1292 1307
f 1291 1307 1306
f 1178 1292 1307
f 1178 1307 1183
f 1308 1309 1310
f 1308 1310 1311
f 1184 1308 1309
f 1184 1309 1185
f 1184 1186 1311
f 1184 1311 1308
f 1309 1312 1313
f 1309 1313 1310
f 1185 1309 1312
f 1185 1312 1187
f 1312 1296 1314
f 1312 1314 1313
f 1187 1312 1296
f 1187 1296 1181
f 1296 1295 1315
f 1296 1315 1314
f 1295 1298 1316
f 1295 1316 1315
f 1298 1299 1317
f 1298 1317 1316
f 1299 1300 1318
f 1299 1318 1317
f 1300 1301 1319
f 1300 1319 1318
f 1301 1302 1320
f 1301 1320 1319
f 1302 1303 1321
f 1302 1321 1320
f 1303 1304 1322
f 1303 1322 1321
f 1304 1305 1323
f 1304 1323 1322
f 1305 1306 1324
f 1305 1324 1323
f 1306 1307 1325
f 1306 1325 1324
f 1183 1307 1325
f 1183 1325 1188
f 1311 1310 1326
f 1311 1326 1327
f 1190 1189 1326
f 1190 1326 1327
f 1186 1190 1327
f 1186 1327 1311
f 1310 1313 1328
f 1310 1328 1326
f 1189 1191 1328
f 1189 1328 1326
f 1313 1314 1329
f 1313 1329 1328
f 1191 1192 1329
f 1191 1329 1328
f 1314 1315 1330
f 1314 1330 1329
f 1192 1193 1330
f 1192 1330 1329
f 1315 1316 1331
f 1315 1331 1330
f 1193 1194 1331
f 1193 1331 1330
f 1316 1317 1332
f 1316 1332 1331
f 1194 1195 1332
f 1194 1332 1331
f 1317 1318 1333
f 1317 1333 1332
f 1195 1196 1333
f 1195 1333 1332
f 1318 1319 1334
f 1318 1334 1333
f 1196 1197 1334
f 1196 1334 1333
f 1319 1320 1335
f 1319 1335 1334
f 1197 1198 1335
f 1197 1335 1334
f 1320 1321 1336
f 1320 1336 1335
f 1198 1199 1336
f 1198 1336 1335
f 1321 1322 1337
f 1321 1337 1336
f 1199 1200 1337
f 1199 1337 1336
f 1322 1323 1338
f 1322 1338 1337
f 1200 1201 1338
f 1200 1338 1337
f 1323 1324 1339
f 1323 1339 1338
f 1201 1202 1339
f 1201 1339 1338
f 1324 1325 1340
f 1324 1340 1339
f 1202 1203 1340
f 1202 1340 1339
f 1188 1325 1340
f 1188 1340 1203
