o [4B] 3D Diagram - S2-06 Group A_357
v -18.427500 28.178750 146.385000
v -18.427500 28.617500 146.385000
v -18.427500 28.617500 147.330000
v -18.427500 28.178750 147.330000
v -15.795000 28.178750 146.385000
v -15.795000 28.178750 147.330000
v -15.795000 28.617500 147.330000
v -15.795000 28.617500 146.385000
v -18.427500 28.617500 148.275000
v -18.427500 28.178750 148.275000
v -15.795000 28.178750 148.275000
v -15.795000 28.617500 148.275000
v -18.427500 28.617500 149.220000
v -18.427500 28.178750 149.220000
v -15.795000 28.178750 149.220000
v -15.795000 28.617500 149.220000
v -18.427500 28.617500 150.165000
v -18.427500 28.178750 150.165000
v -15.795000 28.178750 150.165000
v -15.795000 28.617500 150.165000
v -18.427500 28.617500 151.110000
v -18.427500 28.178750 151.110000
v -15.795000 28.178750 151.110000
v -18.427500 28.617500 152.055000
v -18.427500 28.178750 152.055000
v -15.795000 28.178750 152.055000
v -18.427500 28.617500 153.000000
v -18.427500 28.178750 153.000000
v -15.795000 28.178750 153.000000
v -18.427500 28.617500 153.945000
v -18.427500 28.178750 153.945000
v -15.795000 28.178750 153.945000
v -18.427500 28.617500 154.890000
v -18.427500 28.178750 154.890000
v -15.795000 28.178750 154.890000
v -18.427500 28.617500 155.835000
v -18.427500 28.178750 155.835000
v -15.795000 28.178750 155.835000
v -18.427500 28.617500 156.780000
v -18.427500 28.178750 156.780000
v -15.795000 28.178750 156.780000
v -18.427500 28.617500 157.725000
v -18.427500 28.178750 157.725000
v -15.795000 28.178750 157.725000
v -18.427500 28.617500 158.670000
v -18.427500 28.178750 158.670000
v -15.795000 28.178750 158.670000
v -18.427500 28.617500 159.615000
v -18.427500 28.178750 159.615000
v -15.795000 28.178750 159.615000
v -15.795000 28.617500 159.615000
v -18.427500 29.056250 150.165000
v -18.427500 29.056250 151.110000
v -15.795000 29.056250 151.110000
v -15.795000 29.056250 150.165000
v -18.427500 29.056250 152.055000
v -15.795000 29.056250 152.055000
v -18.427500 29.056250 153.000000
v -15.795000 29.056250 153.000000
v -18.427500 29.056250 153.945000
v -18.427500 29.056250 154.890000
v -18.427500 29.056250 155.835000
v -18.427500 29.056250 156.780000
v -18.427500 29.056250 157.725000
v -18.427500 29.056250 158.670000
v -18.427500 29.056250 159.615000
v -15.795000 29.056250 159.615000
v -18.427500 29.495000 153.000000
v -18.427500 29.495000 153.945000
v -15.795000 29.495000 153.945000
v -15.795000 29.495000 153.000000
v -18.427500 29.495000 154.890000
v -15.795000 29.495000 154.890000
v -18.427500 29.495000 155.835000
v -15.795000 29.495000 155.835000
v -18.427500 29.495000 156.780000
v -18.427500 29.495000 157.725000
v -18.427500 29.495000 158.670000
v -18.427500 29.495000 159.615000
v -15.795000 29.495000 159.615000
v -18.427500 29.933750 155.835000
v -18.427500 29.933750 156.780000
v -15.795000 29.933750 156.780000
v -15.795000 29.933750 155.835000
v -18.427500 29.933750 157.725000
v -15.795000 29.933750 157.725000
v -18.427500 29.933750 158.670000
v -18.427500 29.933750 159.615000
v -15.795000 29.933750 159.615000
v -18.427500 30.372500 157.725000
v -18.427500 30.372500 158.670000
v -15.795000 30.372500 158.670000
v -15.795000 30.372500 157.725000
v -18.427500 30.372500 159.615000
v -15.795000 30.372500 159.615000
v -18.427500 30.811250 158.670000
v -18.427500 30.811250 159.615000
v -15.795000 30.811250 158.670000
v -15.795000 30.811250 159.615000
v -18.427500 31.250000 158.670000
v -18.427500 31.250000 159.615000
v -15.795000 31.250000 158.670000
v -15.795000 31.250000 159.615000
v -18.427500 31.688750 158.670000
v -18.427500 31.688750 159.615000
v -15.795000 31.688750 158.670000
v -15.795000 31.688750 159.615000
v -18.427500 31.688750 157.725000
v -18.427500 32.127500 157.725000
v -18.427500 32.127500 158.670000
v -15.795000 31.688750 157.725000
v -15.795000 32.127500 157.725000
v -18.427500 32.127500 159.615000
v -15.795000 32.127500 159.615000
v -18.427500 32.127500 155.835000
v -18.427500 32.566250 155.835000
v -18.427500 32.566250 156.780000
v -18.427500 32.127500 156.780000
v -15.795000 32.127500 155.835000
v -15.795000 32.127500 156.780000
v -15.795000 32.566250 155.835000
v -18.427500 32.566250 157.725000
v -18.427500 32.566250 158.670000
v -18.427500 32.566250 159.615000
v -15.795000 32.566250 159.615000
v -18.427500 32.566250 153.000000
v -18.427500 33.005000 153.000000
v -18.427500 33.005000 153.945000
v -18.427500 32.566250 153.945000
v -15.795000 32.566250 153.000000
v -15.795000 32.566250 153.945000
v -15.795000 33.005000 153.000000
v -18.427500 33.005000 154.890000
v -18.427500 32.566250 154.890000
v -15.795000 32.566250 154.890000
v -18.427500 33.005000 155.835000
v -18.427500 33.005000 156.780000
v -18.427500 33.005000 157.725000
v -18.427500 33.005000 158.670000
v -18.427500 33.005000 159.615000
v -15.795000 33.005000 159.615000
v -18.427500 33.005000 149.220000
v -18.427500 33.443750 149.220000
v -18.427500 33.443750 150.165000
v -18.427500 33.005000 150.165000
v -15.795000 33.005000 149.220000
v -15.795000 33.005000 150.165000
v -15.795000 33.443750 149.220000
v -18.427500 33.443750 151.110000
v -18.427500 33.005000 151.110000
v -15.795000 33.005000 151.110000
v -18.427500 33.443750 152.055000
v -18.427500 33.005000 152.055000
v -15.795000 33.005000 152.055000
v -18.427500 33.443750 153.000000
v -18.427500 33.443750 153.945000
v -18.427500 33.443750 154.890000
v -18.427500 33.443750 155.835000
v -18.427500 33.443750 156.780000
v -18.427500 33.443750 157.725000
v -18.427500 33.443750 158.670000
v -18.427500 33.443750 159.615000
v -15.795000 33.443750 159.615000
v -18.427500 33.443750 146.385000
v -18.427500 33.882500 146.385000
v -18.427500 33.882500 147.330000
v -18.427500 33.443750 147.330000
v -15.795000 33.443750 146.385000
v -15.795000 33.443750 147.330000
v -15.795000 33.882500 146.385000
v -18.427500 33.882500 148.275000
v -18.427500 33.443750 148.275000
v -15.795000 33.443750 148.275000
v -18.427500 33.882500 149.220000
v -18.427500 33.882500 150.165000
v -18.427500 33.882500 151.110000
v -18.427500 33.882500 152.055000
v -18.427500 33.882500 153.000000
v -18.427500 33.882500 153.945000
v -18.427500 33.882500 154.890000
v -18.427500 33.882500 155.835000
v -18.427500 33.882500 156.780000
v -18.427500 33.882500 157.725000
v -18.427500 33.882500 158.670000
v -18.427500 33.882500 159.615000
v -15.795000 33.882500 159.615000
v -18.427500 34.321250 146.385000
v -18.427500 34.321250 147.330000
v -15.795000 34.321250 147.330000
v -15.795000 34.321250 146.385000
v -18.427500 34.321250 148.275000
v -15.795000 34.321250 148.275000
v -18.427500 34.321250 149.220000
v -15.795000 34.321250 149.220000
v -18.427500 34.321250 150.165000
v -15.795000 34.321250 150.165000
v -18.427500 34.321250 151.110000
v -15.795000 34.321250 151.110000
v -18.427500 34.321250 152.055000
v -15.795000 34.321250 152.055000
v -18.427500 34.321250 153.000000
v -15.795000 34.321250 153.000000
v -18.427500 34.321250 153.945000
v -15.795000 34.321250 153.945000
v -18.427500 34.321250 154.890000
v -15.795000 34.321250 154.890000
v -18.427500 34.321250 155.835000
v -15.795000 34.321250 155.835000
v -18.427500 34.321250 156.780000
v -15.795000 34.321250 156.780000
v -18.427500 34.321250 157.725000
v -15.795000 34.321250 157.725000
v -18.427500 34.321250 158.670000
v -15.795000 34.321250 158.670000
v -18.427500 34.321250 159.615000
v -15.795000 34.321250 159.615000
v -13.162500 28.178750 146.385000
v -13.162500 28.178750 147.330000
v -13.162500 28.617500 147.330000
v -13.162500 28.617500 146.385000
v -13.162500 28.178750 148.275000
v -13.162500 28.617500 148.275000
v -13.162500 28.178750 149.220000
v -13.162500 28.617500 149.220000
v -13.162500 28.178750 150.165000
v -13.162500 28.617500 150.165000
v -13.162500 28.178750 151.110000
v -13.162500 28.178750 152.055000
v -13.162500 28.178750 153.000000
v -13.162500 28.178750 153.945000
v -13.162500 28.178750 154.890000
v -13.162500 28.178750 155.835000
v -13.162500 28.178750 156.780000
v -13.162500 28.178750 157.725000
v -13.162500 28.178750 158.670000
v -13.162500 28.178750 159.615000
v -13.162500 28.617500 159.615000
v -13.162500 29.056250 151.110000
v -13.162500 29.056250 150.165000
v -13.162500 29.056250 152.055000
v -13.162500 29.056250 153.000000
v -13.162500 29.056250 159.615000
v -13.162500 29.495000 153.945000
v -13.162500 29.495000 153.000000
v -13.162500 29.495000 154.890000
v -13.162500 29.495000 155.835000
v -13.162500 29.495000 159.615000
v -13.162500 29.933750 156.780000
v -13.162500 29.933750 155.835000
v -13.162500 29.933750 157.725000
v -13.162500 29.933750 159.615000
v -13.162500 30.372500 158.670000
v -13.162500 30.372500 157.725000
v -13.162500 30.372500 159.615000
v -13.162500 30.811250 158.670000
v -13.162500 30.811250 159.615000
v -13.162500 31.250000 158.670000
v -13.162500 31.250000 159.615000
v -13.162500 31.688750 158.670000
v -13.162500 31.688750 159.615000
v -13.162500 31.688750 157.725000
v -13.162500 32.127500 157.725000
v -13.162500 32.127500 159.615000
v -13.162500 32.127500 155.835000
v -13.162500 32.127500 156.780000
v -13.162500 32.566250 155.835000
v -13.162500 32.566250 159.615000
v -13.162500 32.566250 153.000000
v -13.162500 32.566250 153.945000
v -13.162500 33.005000 153.000000
v -13.162500 32.566250 154.890000
v -13.162500 33.005000 159.615000
v -13.162500 33.005000 149.220000
v -13.162500 33.005000 150.165000
v -13.162500 33.443750 149.220000
v -13.162500 33.005000 151.110000
v -13.162500 33.005000 152.055000
v -13.162500 33.443750 159.615000
v -13.162500 33.443750 146.385000
v -13.162500 33.443750 147.330000
v -13.162500 33.882500 146.385000
v -13.162500 33.443750 148.275000
v -13.162500 33.882500 159.615000
v -13.162500 34.321250 147.330000
v -13.162500 34.321250 146.385000
v -13.162500 34.321250 148.275000
v -13.162500 34.321250 149.220000
v -13.162500 34.321250 150.165000
v -13.162500 34.321250 151.110000
v -13.162500 34.321250 152.055000
v -13.162500 34.321250 153.000000
v -13.162500 34.321250 153.945000
v -13.162500 34.321250 154.890000
v -13.162500 34.321250 155.835000
v -13.162500 34.321250 156.780000
v -13.162500 34.321250 157.725000
v -13.162500 34.321250 158.670000
v -13.162500 34.321250 159.615000
v -10.530000 28.178750 146.385000
v -10.530000 28.178750 147.330000
v -10.530000 28.617500 147.330000
v -10.530000 28.617500 146.385000
v -10.530000 28.178750 148.275000
v -10.530000 28.617500 148.275000
v -10.530000 28.178750 149.220000
v -10.530000 28.617500 149.220000
v -10.530000 28.178750 150.165000
v -10.530000 28.617500 150.165000
v -10.530000 28.178750 151.110000
v -10.530000 28.178750 152.055000
v -10.530000 28.178750 153.000000
v -10.530000 28.178750 153.945000
v -10.530000 28.178750 154.890000
v -10.530000 28.178750 155.835000
v -10.530000 28.178750 156.780000
v -10.530000 28.178750 157.725000
v -10.530000 28.178750 158.670000
v -10.530000 28.178750 159.615000
v -10.530000 28.617500 159.615000
v -10.530000 29.056250 151.110000
v -10.530000 29.056250 150.165000
v -10.530000 29.056250 152.055000
v -10.530000 29.056250 153.000000
v -10.530000 29.056250 159.615000
v -10.530000 29.495000 153.945000
v -10.530000 29.495000 153.000000
v -10.530000 29.495000 154.890000
v -10.530000 29.495000 155.835000
v -10.530000 29.495000 159.615000
v -10.530000 29.933750 156.780000
v -10.530000 29.933750 155.835000
v -10.530000 29.933750 157.725000
v -10.530000 29.933750 159.615000
v -10.530000 30.372500 158.670000
v -10.530000 30.372500 157.725000
v -10.530000 30.372500 159.615000
v -10.530000 30.811250 158.670000
v -10.530000 30.811250 159.615000
v -10.530000 31.250000 158.670000
v -10.530000 31.250000 159.615000
v -10.530000 31.688750 158.670000
v -10.530000 31.688750 159.615000
v -10.530000 31.688750 157.725000
v -10.530000 32.127500 157.725000
v -10.530000 32.127500 159.615000
v -10.530000 32.127500 155.835000
v -10.530000 32.127500 156.780000
v -10.530000 32.566250 155.835000
v -10.530000 32.566250 159.615000
v -10.530000 32.566250 153.000000
v -10.530000 32.566250 153.945000
v -10.530000 33.005000 153.000000
v -10.530000 32.566250 154.890000
v -10.530000 33.005000 159.615000
v -10.530000 33.005000 149.220000
v -10.530000 33.005000 150.165000
v -10.530000 33.443750 149.220000
v -10.530000 33.005000 151.110000
v -10.530000 33.005000 152.055000
v -10.530000 33.443750 159.615000
v -10.530000 33.443750 146.385000
v -10.530000 33.443750 147.330000
v -10.530000 33.882500 146.385000
v -10.530000 33.443750 148.275000
v -10.530000 33.882500 159.615000
v -10.530000 34.321250 147.330000
v -10.530000 34.321250 146.385000
v -10.530000 34.321250 148.275000
v -10.530000 34.321250 149.220000
v -10.530000 34.321250 150.165000
v -10.530000 34.321250 151.110000
v -10.530000 34.321250 152.055000
v -10.530000 34.321250 153.000000
v -10.530000 34.321250 153.945000
v -10.530000 34.321250 154.890000
v -10.530000 34.321250 155.835000
v -10.530000 34.321250 156.780000
v -10.530000 34.321250 157.725000
v -10.530000 34.321250 158.670000
v -10.530000 34.321250 159.615000
v -7.897500 28.178750 146.385000
v -7.897500 28.178750 147.330000
v -7.897500 28.617500 147.330000
v -7.897500 28.617500 146.385000
v -7.897500 28.178750 148.275000
v -7.897500 28.617500 148.275000
v -7.897500 28.178750 149.220000
v -7.897500 28.617500 149.220000
v -7.897500 28.178750 150.165000
v -7.897500 28.617500 150.165000
v -7.897500 28.178750 151.110000
v -7.897500 28.178750 152.055000
v -7.897500 28.178750 153.000000
v -7.897500 28.178750 153.945000
v -7.897500 28.178750 154.890000
v -7.897500 28.178750 155.835000
v -7.897500 28.178750 156.780000
v -7.897500 28.178750 157.725000
v -7.897500 28.178750 158.670000
v -7.897500 28.178750 159.615000
v -7.897500 28.617500 159.615000
v -7.897500 29.056250 151.110000
v -7.897500 29.056250 150.165000
v -7.897500 29.056250 152.055000
v -7.897500 29.056250 153.000000
v -7.897500 29.056250 159.615000
v -7.897500 29.495000 153.945000
v -7.897500 29.495000 153.000000
v -7.897500 29.495000 154.890000
v -7.897500 29.495000 155.835000
v -7.897500 29.495000 159.615000
v -7.897500 29.933750 156.780000
v -7.897500 29.933750 155.835000
v -7.897500 29.933750 157.725000
v -7.897500 29.933750 159.615000
v -7.897500 30.372500 158.670000
v -7.897500 30.372500 157.725000
v -7.897500 30.372500 159.615000
v -7.897500 30.811250 158.670000
v -7.897500 30.811250 159.615000
v -7.897500 31.250000 158.670000
v -7.897500 31.250000 159.615000
v -7.897500 31.688750 158.670000
v -7.897500 31.688750 159.615000
v -7.897500 31.688750 157.725000
v -7.897500 32.127500 157.725000
v -7.897500 32.127500 159.615000
v -7.897500 32.127500 155.835000
v -7.897500 32.127500 156.780000
v -7.897500 32.566250 155.835000
v -7.897500 32.566250 159.615000
v -7.897500 32.566250 153.000000
v -7.897500 32.566250 153.945000
v -7.897500 33.005000 153.000000
v -7.897500 32.566250 154.890000
v -7.897500 33.005000 159.615000
v -7.897500 33.005000 149.220000
v -7.897500 33.005000 150.165000
v -7.897500 33.443750 149.220000
v -7.897500 33.005000 151.110000
v -7.897500 33.005000 152.055000
v -7.897500 33.443750 159.615000
v -7.897500 33.443750 146.385000
v -7.897500 33.443750 147.330000
v -7.897500 33.882500 146.385000
v -7.897500 33.443750 148.275000
v -7.897500 33.882500 159.615000
v -7.897500 34.321250 147.330000
v -7.897500 34.321250 146.385000
v -7.897500 34.321250 148.275000
v -7.897500 34.321250 149.220000
v -7.897500 34.321250 150.165000
v -7.897500 34.321250 151.110000
v -7.897500 34.321250 152.055000
v -7.897500 34.321250 153.000000
v -7.897500 34.321250 153.945000
v -7.897500 34.321250 154.890000
v -7.897500 34.321250 155.835000
v -7.897500 34.321250 156.780000
v -7.897500 34.321250 157.725000
v -7.897500 34.321250 158.670000
v -7.897500 34.321250 159.615000
v -5.265000 28.178750 146.385000
v -5.265000 28.178750 147.330000
v -5.265000 28.617500 147.330000
v -5.265000 28.617500 146.385000
v -5.265000 28.178750 148.275000
v -5.265000 28.617500 148.275000
v -5.265000 28.178750 149.220000
v -5.265000 28.617500 149.220000
v -5.265000 28.178750 150.165000
v -5.265000 28.617500 150.165000
v -5.265000 28.178750 151.110000
v -5.265000 28.178750 152.055000
v -5.265000 28.178750 153.000000
v -5.265000 28.178750 153.945000
v -5.265000 28.178750 154.890000
v -5.265000 28.178750 155.835000
v -5.265000 28.178750 156.780000
v -5.265000 28.178750 157.725000
v -5.265000 28.178750 158.670000
v -5.265000 28.178750 159.615000
v -5.265000 28.617500 159.615000
v -5.265000 29.056250 151.110000
v -5.265000 29.056250 150.165000
v -5.265000 29.056250 152.055000
v -5.265000 29.056250 153.000000
v -5.265000 29.056250 159.615000
v -5.265000 29.495000 153.945000
v -5.265000 29.495000 153.000000
v -5.265000 29.495000 154.890000
v -5.265000 29.495000 155.835000
v -5.265000 29.495000 159.615000
v -5.265000 29.933750 156.780000
v -5.265000 29.933750 155.835000
v -5.265000 29.933750 157.725000
v -5.265000 29.933750 159.615000
v -5.265000 30.372500 158.670000
v -5.265000 30.372500 157.725000
v -5.265000 30.372500 159.615000
v -5.265000 30.811250 158.670000
v -5.265000 30.811250 159.615000
v -5.265000 31.250000 158.670000
v -5.265000 31.250000 159.615000
v -5.265000 31.688750 158.670000
v -5.265000 31.688750 159.615000
v -5.265000 31.688750 157.725000
v -5.265000 32.127500 157.725000
v -5.265000 32.127500 159.615000
v -5.265000 32.127500 155.835000
v -5.265000 32.127500 156.780000
v -5.265000 32.566250 155.835000
v -5.265000 32.566250 159.615000
v -5.265000 32.566250 153.000000
v -5.265000 32.566250 153.945000
v -5.265000 33.005000 153.000000
v -5.265000 32.566250 154.890000
v -5.265000 33.005000 159.615000
v -5.265000 33.005000 149.220000
v -5.265000 33.005000 150.165000
v -5.265000 33.443750 149.220000
v -5.265000 33.005000 151.110000
v -5.265000 33.005000 152.055000
v -5.265000 33.443750 159.615000
v -5.265000 33.443750 146.385000
v -5.265000 33.443750 147.330000
v -5.265000 33.882500 146.385000
v -5.265000 33.443750 148.275000
v -5.265000 33.882500 159.615000
v -5.265000 34.321250 147.330000
v -5.265000 34.321250 146.385000
v -5.265000 34.321250 148.275000
v -5.265000 34.321250 149.220000
v -5.265000 34.321250 150.165000
v -5.265000 34.321250 151.110000
v -5.265000 34.321250 152.055000
v -5.265000 34.321250 153.000000
v -5.265000 34.321250 153.945000
v -5.265000 34.321250 154.890000
v -5.265000 34.321250 155.835000
v -5.265000 34.321250 156.780000
v -5.265000 34.321250 157.725000
v -5.265000 34.321250 158.670000
v -5.265000 34.321250 159.615000
v -2.632500 28.178750 146.385000
v -2.632500 28.178750 147.330000
v -2.632500 28.617500 147.330000
v -2.632500 28.617500 146.385000
v -2.632500 28.178750 148.275000
v -2.632500 28.617500 148.275000
v -2.632500 28.178750 149.220000
v -2.632500 28.617500 149.220000
v -2.632500 28.178750 150.165000
v -2.632500 28.617500 150.165000
v -2.632500 28.178750 151.110000
v -2.632500 28.178750 152.055000
v -2.632500 28.178750 153.000000
v -2.632500 28.178750 153.945000
v -2.632500 28.178750 154.890000
v -2.632500 28.178750 155.835000
v -2.632500 28.178750 156.780000
v -2.632500 28.178750 157.725000
v -2.632500 28.178750 158.670000
v -2.632500 28.178750 159.615000
v -2.632500 28.617500 159.615000
v -2.632500 29.056250 151.110000
v -2.632500 29.056250 150.165000
v -2.632500 29.056250 152.055000
v -2.632500 29.056250 153.000000
v -2.632500 29.056250 159.615000
v -2.632500 29.495000 153.945000
v -2.632500 29.495000 153.000000
v -2.632500 29.495000 154.890000
v -2.632500 29.495000 155.835000
v -2.632500 29.495000 159.615000
v -2.632500 29.933750 156.780000
v -2.632500 29.933750 155.835000
v -2.632500 29.933750 157.725000
v -2.632500 29.933750 159.615000
v -2.632500 30.372500 158.670000
v -2.632500 30.372500 157.725000
v -2.632500 30.372500 159.615000
v -2.632500 30.811250 158.670000
v -2.632500 30.811250 159.615000
v -2.632500 31.250000 158.670000
v -2.632500 31.250000 159.615000
v -2.632500 31.688750 158.670000
v -2.632500 31.688750 159.615000
v -2.632500 31.688750 157.725000
v -2.632500 32.127500 157.725000
v -2.632500 32.127500 159.615000
v -2.632500 32.127500 155.835000
v -2.632500 32.127500 156.780000
v -2.632500 32.566250 155.835000
v -2.632500 32.566250 159.615000
v -2.632500 32.566250 153.000000
v -2.632500 32.566250 153.945000
v -2.632500 33.005000 153.000000
v -2.632500 32.566250 154.890000
v -2.632500 33.005000 159.615000
v -2.632500 33.005000 149.220000
v -2.632500 33.005000 150.165000
v -2.632500 33.443750 149.220000
v -2.632500 33.005000 151.110000
v -2.632500 33.005000 152.055000
v -2.632500 33.443750 159.615000
v -2.632500 33.443750 146.385000
v -2.632500 33.443750 147.330000
v -2.632500 33.882500 146.385000
v -2.632500 33.443750 148.275000
v -2.632500 33.882500 159.615000
v -2.632500 34.321250 147.330000
v -2.632500 34.321250 146.385000
v -2.632500 34.321250 148.275000
v -2.632500 34.321250 149.220000
v -2.632500 34.321250 150.165000
v -2.632500 34.321250 151.110000
v -2.632500 34.321250 152.055000
v -2.632500 34.321250 153.000000
v -2.632500 34.321250 153.945000
v -2.632500 34.321250 154.890000
v -2.632500 34.321250 155.835000
v -2.632500 34.321250 156.780000
v -2.632500 34.321250 157.725000
v -2.632500 34.321250 158.670000
v -2.632500 34.321250 159.615000
v -0.000000 28.178750 146.385000
v -0.000000 28.178750 147.330000
v -0.000000 28.617500 147.330000
v -0.000000 28.617500 146.385000
v -0.000000 28.178750 148.275000
v -0.000000 28.617500 148.275000
v -0.000000 28.178750 149.220000
v -0.000000 28.617500 149.220000
v -0.000000 28.178750 150.165000
v -0.000000 28.617500 150.165000
v -0.000000 28.178750 151.110000
v -0.000000 28.178750 152.055000
v -0.000000 28.178750 153.000000
v -0.000000 28.178750 153.945000
v -0.000000 28.178750 154.890000
v -0.000000 28.178750 155.835000
v -0.000000 28.178750 156.780000
v -0.000000 28.178750 157.725000
v -0.000000 28.178750 158.670000
v -0.000000 28.178750 159.615000
v -0.000000 28.617500 159.615000
v -0.000000 29.056250 151.110000
v -0.000000 29.056250 150.165000
v -0.000000 29.056250 152.055000
v -0.000000 29.056250 153.000000
v -0.000000 29.056250 159.615000
v -0.000000 29.495000 153.945000
v -0.000000 29.495000 153.000000
v -0.000000 29.495000 154.890000
v -0.000000 29.495000 155.835000
v -0.000000 29.495000 159.615000
v -0.000000 29.933750 156.780000
v -0.000000 29.933750 155.835000
v -0.000000 29.933750 157.725000
v -0.000000 29.933750 159.615000
v -0.000000 30.372500 158.670000
v -0.000000 30.372500 157.725000
v -0.000000 30.372500 159.615000
v -0.000000 30.811250 158.670000
v -0.000000 30.811250 159.615000
v -0.000000 31.250000 158.670000
v -0.000000 31.250000 159.615000
v -0.000000 31.688750 158.670000
v -0.000000 31.688750 159.615000
v -0.000000 31.688750 157.725000
v -0.000000 32.127500 157.725000
v -0.000000 32.127500 159.615000
v -0.000000 32.127500 155.835000
v -0.000000 32.127500 156.780000
v -0.000000 32.566250 155.835000
v -0.000000 32.566250 159.615000
v -0.000000 32.566250 153.000000
v -0.000000 32.566250 153.945000
v -0.000000 33.005000 153.000000
v -0.000000 32.566250 154.890000
v -0.000000 33.005000 159.615000
v -0.000000 33.005000 149.220000
v -0.000000 33.005000 150.165000
v -0.000000 33.443750 149.220000
v -0.000000 33.005000 151.110000
v -0.000000 33.005000 152.055000
v -0.000000 33.443750 159.615000
v -0.000000 33.443750 146.385000
v -0.000000 33.443750 147.330000
v -0.000000 33.882500 146.385000
v -0.000000 33.443750 148.275000
v -0.000000 33.882500 159.615000
v -0.000000 34.321250 147.330000
v -0.000000 34.321250 146.385000
v -0.000000 34.321250 148.275000
v -0.000000 34.321250 149.220000
v -0.000000 34.321250 150.165000
v -0.000000 34.321250 151.110000
v -0.000000 34.321250 152.055000
v -0.000000 34.321250 153.000000
v -0.000000 34.321250 153.945000
v -0.000000 34.321250 154.890000
v -0.000000 34.321250 155.835000
v -0.000000 34.321250 156.780000
v -0.000000 34.321250 157.725000
v -0.000000 34.321250 158.670000
v -0.000000 34.321250 159.615000
v 2.632500 28.178750 146.385000
v 2.632500 28.178750 147.330000
v 2.632500 28.617500 147.330000
v 2.632500 28.617500 146.385000
v 2.632500 28.178750 148.275000
v 2.632500 28.617500 148.275000
v 2.632500 28.178750 149.220000
v 2.632500 28.617500 149.220000
v 2.632500 28.178750 150.165000
v 2.632500 28.617500 150.165000
v 2.632500 28.178750 151.110000
v 2.632500 28.178750 152.055000
v 2.632500 28.178750 153.000000
v 2.632500 28.178750 153.945000
v 2.632500 28.178750 154.890000
v 2.632500 28.178750 155.835000
v 2.632500 28.178750 156.780000
v 2.632500 28.178750 157.725000
v 2.632500 28.178750 158.670000
v 2.632500 28.178750 159.615000
v 2.632500 28.617500 159.615000
v 2.632500 29.056250 151.110000
v 2.632500 29.056250 150.165000
v 2.632500 29.056250 152.055000
v 2.632500 29.056250 153.000000
v 2.632500 29.056250 159.615000
v 2.632500 29.495000 153.945000
v 2.632500 29.495000 153.000000
v 2.632500 29.495000 154.890000
v 2.632500 29.495000 155.835000
v 2.632500 29.495000 159.615000
v 2.632500 29.933750 156.780000
v 2.632500 29.933750 155.835000
v 2.632500 29.933750 157.725000
v 2.632500 29.933750 159.615000
v 2.632500 30.372500 158.670000
v 2.632500 30.372500 157.725000
v 2.632500 30.372500 159.615000
v 2.632500 30.811250 158.670000
v 2.632500 30.811250 159.615000
v 2.632500 31.250000 158.670000
v 2.632500 31.250000 159.615000
v 2.632500 31.688750 158.670000
v 2.632500 31.688750 159.615000
v 2.632500 31.688750 157.725000
v 2.632500 32.127500 157.725000
v 2.632500 32.127500 159.615000
v 2.632500 32.127500 155.835000
v 2.632500 32.127500 156.780000
v 2.632500 32.566250 155.835000
v 2.632500 32.566250 159.615000
v 2.632500 32.566250 153.000000
v 2.632500 32.566250 153.945000
v 2.632500 33.005000 153.000000
v 2.632500 32.566250 154.890000
v 2.632500 33.005000 159.615000
v 2.632500 33.005000 149.220000
v 2.632500 33.005000 150.165000
v 2.632500 33.443750 149.220000
v 2.632500 33.005000 151.110000
v 2.632500 33.005000 152.055000
v 2.632500 33.443750 159.615000
v 2.632500 33.443750 146.385000
v 2.632500 33.443750 147.330000
v 2.632500 33.882500 146.385000
v 2.632500 33.443750 148.275000
v 2.632500 33.882500 159.615000
v 2.632500 34.321250 147.330000
v 2.632500 34.321250 146.385000
v 2.632500 34.321250 148.275000
v 2.632500 34.321250 149.220000
v 2.632500 34.321250 150.165000
v 2.632500 34.321250 151.110000
v 2.632500 34.321250 152.055000
v 2.632500 34.321250 153.000000
v 2.632500 34.321250 153.945000
v 2.632500 34.321250 154.890000
v 2.632500 34.321250 155.835000
v 2.632500 34.321250 156.780000
v 2.632500 34.321250 157.725000
v 2.632500 34.321250 158.670000
v 2.632500 34.321250 159.615000
v 5.265000 28.178750 146.385000
v 5.265000 28.178750 147.330000
v 5.265000 28.617500 147.330000
v 5.265000 28.617500 146.385000
v 5.265000 28.178750 148.275000
v 5.265000 28.617500 148.275000
v 5.265000 28.178750 149.220000
v 5.265000 28.617500 149.220000
v 5.265000 28.178750 150.165000
v 5.265000 28.617500 150.165000
v 5.265000 28.178750 151.110000
v 5.265000 28.178750 152.055000
v 5.265000 28.178750 153.000000
v 5.265000 28.178750 153.945000
v 5.265000 28.178750 154.890000
v 5.265000 28.178750 155.835000
v 5.265000 28.178750 156.780000
v 5.265000 28.178750 157.725000
v 5.265000 28.178750 158.670000
v 5.265000 28.178750 159.615000
v 5.265000 28.617500 159.615000
v 5.265000 29.056250 151.110000
v 5.265000 29.056250 150.165000
v 5.265000 29.056250 152.055000
v 5.265000 29.056250 153.000000
v 5.265000 29.056250 159.615000
v 5.265000 29.495000 153.945000
v 5.265000 29.495000 153.000000
v 5.265000 29.495000 154.890000
v 5.265000 29.495000 155.835000
v 5.265000 29.495000 159.615000
v 5.265000 29.933750 156.780000
v 5.265000 29.933750 155.835000
v 5.265000 29.933750 157.725000
v 5.265000 29.933750 159.615000
v 5.265000 30.372500 158.670000
v 5.265000 30.372500 157.725000
v 5.265000 30.372500 159.615000
v 5.265000 30.811250 158.670000
v 5.265000 30.811250 159.615000
v 5.265000 31.250000 158.670000
v 5.265000 31.250000 159.615000
v 5.265000 31.688750 158.670000
v 5.265000 31.688750 159.615000
v 5.265000 31.688750 157.725000
v 5.265000 32.127500 157.725000
v 5.265000 32.127500 159.615000
v 5.265000 32.127500 155.835000
v 5.265000 32.127500 156.780000
v 5.265000 32.566250 155.835000
v 5.265000 32.566250 159.615000
v 5.265000 32.566250 153.000000
v 5.265000 32.566250 153.945000
v 5.265000 33.005000 153.000000
v 5.265000 32.566250 154.890000
v 5.265000 33.005000 159.615000
v 5.265000 33.005000 149.220000
v 5.265000 33.005000 150.165000
v 5.265000 33.443750 149.220000
v 5.265000 33.005000 151.110000
v 5.265000 33.005000 152.055000
v 5.265000 33.443750 159.615000
v 5.265000 33.443750 146.385000
v 5.265000 33.443750 147.330000
v 5.265000 33.882500 146.385000
v 5.265000 33.443750 148.275000
v 5.265000 33.882500 159.615000
v 5.265000 34.321250 147.330000
v 5.265000 34.321250 146.385000
v 5.265000 34.321250 148.275000
v 5.265000 34.321250 149.220000
v 5.265000 34.321250 150.165000
v 5.265000 34.321250 151.110000
v 5.265000 34.321250 152.055000
v 5.265000 34.321250 153.000000
v 5.265000 34.321250 153.945000
v 5.265000 34.321250 154.890000
v 5.265000 34.321250 155.835000
v 5.265000 34.321250 156.780000
v 5.265000 34.321250 157.725000
v 5.265000 34.321250 158.670000
v 5.265000 34.321250 159.615000
v 7.897500 28.178750 146.385000
v 7.897500 28.178750 147.330000
v 7.897500 28.617500 147.330000
v 7.897500 28.617500 146.385000
v 7.897500 28.178750 148.275000
v 7.897500 28.617500 148.275000
v 7.897500 28.178750 149.220000
v 7.897500 28.617500 149.220000
v 7.897500 28.178750 150.165000
v 7.897500 28.617500 150.165000
v 7.897500 28.178750 151.110000
v 7.897500 28.178750 152.055000
v 7.897500 28.178750 153.000000
v 7.897500 28.178750 153.945000
v 7.897500 28.178750 154.890000
v 7.897500 28.178750 155.835000
v 7.897500 28.178750 156.780000
v 7.897500 28.178750 157.725000
v 7.897500 28.178750 158.670000
v 7.897500 28.178750 159.615000
v 7.897500 28.617500 159.615000
v 7.897500 29.056250 151.110000
v 7.897500 29.056250 150.165000
v 7.897500 29.056250 152.055000
v 7.897500 29.056250 153.000000
v 7.897500 29.056250 159.615000
v 7.897500 29.495000 153.945000
v 7.897500 29.495000 153.000000
v 7.897500 29.495000 154.890000
v 7.897500 29.495000 155.835000
v 7.897500 29.495000 159.615000
v 7.897500 29.933750 156.780000
v 7.897500 29.933750 155.835000
v 7.897500 29.933750 157.725000
v 7.897500 29.933750 159.615000
v 7.897500 30.372500 158.670000
v 7.897500 30.372500 157.725000
v 7.897500 30.372500 159.615000
v 7.897500 30.811250 158.670000
v 7.897500 30.811250 159.615000
v 7.897500 31.250000 158.670000
v 7.897500 31.250000 159.615000
v 7.897500 31.688750 158.670000
v 7.897500 31.688750 159.615000
v 7.897500 31.688750 157.725000
v 7.897500 32.127500 157.725000
v 7.897500 32.127500 159.615000
v 7.897500 32.127500 155.835000
v 7.897500 32.127500 156.780000
v 7.897500 32.566250 155.835000
v 7.897500 32.566250 159.615000
v 7.897500 32.566250 153.000000
v 7.897500 32.566250 153.945000
v 7.897500 33.005000 153.000000
v 7.897500 32.566250 154.890000
v 7.897500 33.005000 159.615000
v 7.897500 33.005000 149.220000
v 7.897500 33.005000 150.165000
v 7.897500 33.443750 149.220000
v 7.897500 33.005000 151.110000
v 7.897500 33.005000 152.055000
v 7.897500 33.443750 159.615000
v 7.897500 33.443750 146.385000
v 7.897500 33.443750 147.330000
v 7.897500 33.882500 146.385000
v 7.897500 33.443750 148.275000
v 7.897500 33.882500 159.615000
v 7.897500 34.321250 147.330000
v 7.897500 34.321250 146.385000
v 7.897500 34.321250 148.275000
v 7.897500 34.321250 149.220000
v 7.897500 34.321250 150.165000
v 7.897500 34.321250 151.110000
v 7.897500 34.321250 152.055000
v 7.897500 34.321250 153.000000
v 7.897500 34.321250 153.945000
v 7.897500 34.321250 154.890000
v 7.897500 34.321250 155.835000
v 7.897500 34.321250 156.780000
v 7.897500 34.321250 157.725000
v 7.897500 34.321250 158.670000
v 7.897500 34.321250 159.615000
v 10.530000 28.178750 146.385000
v 10.530000 28.178750 147.330000
v 10.530000 28.617500 147.330000
v 10.530000 28.617500 146.385000
v 10.530000 28.178750 148.275000
v 10.530000 28.617500 148.275000
v 10.530000 28.178750 149.220000
v 10.530000 28.617500 149.220000
v 10.530000 28.178750 150.165000
v 10.530000 28.617500 150.165000
v 10.530000 28.178750 151.110000
v 10.530000 28.178750 152.055000
v 10.530000 28.178750 153.000000
v 10.530000 28.178750 153.945000
v 10.530000 28.178750 154.890000
v 10.530000 28.178750 155.835000
v 10.530000 28.178750 156.780000
v 10.530000 28.178750 157.725000
v 10.530000 28.178750 158.670000
v 10.530000 28.178750 159.615000
v 10.530000 28.617500 159.615000
v 10.530000 29.056250 151.110000
v 10.530000 29.056250 150.165000
v 10.530000 29.056250 152.055000
v 10.530000 29.056250 153.000000
v 10.530000 29.056250 159.615000
v 10.530000 29.495000 153.945000
v 10.530000 29.495000 153.000000
v 10.530000 29.495000 154.890000
v 10.530000 29.495000 155.835000
v 10.530000 29.495000 159.615000
v 10.530000 29.933750 156.780000
v 10.530000 29.933750 155.835000
v 10.530000 29.933750 157.725000
v 10.530000 29.933750 159.615000
v 10.530000 30.372500 158.670000
v 10.530000 30.372500 157.725000
v 10.530000 30.372500 159.615000
v 10.530000 30.811250 158.670000
v 10.530000 30.811250 159.615000
v 10.530000 31.250000 158.670000
v 10.530000 31.250000 159.615000
v 10.530000 31.688750 158.670000
v 10.530000 31.688750 159.615000
v 10.530000 31.688750 157.725000
v 10.530000 32.127500 157.725000
v 10.530000 32.127500 159.615000
v 10.530000 32.127500 155.835000
v 10.530000 32.127500 156.780000
v 10.530000 32.566250 155.835000
v 10.530000 32.566250 159.615000
v 10.530000 32.566250 153.000000
v 10.530000 32.566250 153.945000
v 10.530000 33.005000 153.000000
v 10.530000 32.566250 154.890000
v 10.530000 33.005000 159.615000
v 10.530000 33.005000 149.220000
v 10.530000 33.005000 150.165000
v 10.530000 33.443750 149.220000
v 10.530000 33.005000 151.110000
v 10.530000 33.005000 152.055000
v 10.530000 33.443750 159.615000
v 10.530000 33.443750 146.385000
v 10.530000 33.443750 147.330000
v 10.530000 33.882500 146.385000
v 10.530000 33.443750 148.275000
v 10.530000 33.882500 159.615000
v 10.530000 34.321250 147.330000
v 10.530000 34.321250 146.385000
v 10.530000 34.321250 148.275000
v 10.530000 34.321250 149.220000
v 10.530000 34.321250 150.165000
v 10.530000 34.321250 151.110000
v 10.530000 34.321250 152.055000
v 10.530000 34.321250 153.000000
v 10.530000 34.321250 153.945000
v 10.530000 34.321250 154.890000
v 10.530000 34.321250 155.835000
v 10.530000 34.321250 156.780000
v 10.530000 34.321250 157.725000
v 10.530000 34.321250 158.670000
v 10.530000 34.321250 159.615000
v 13.162500 28.178750 146.385000
v 13.162500 28.178750 147.330000
v 13.162500 28.617500 147.330000
v 13.162500 28.617500 146.385000
v 13.162500 28.178750 148.275000
v 13.162500 28.617500 148.275000
v 13.162500 28.178750 149.220000
v 13.162500 28.617500 149.220000
v 13.162500 28.178750 150.165000
v 13.162500 28.617500 150.165000
v 13.162500 28.178750 151.110000
v 13.162500 28.178750 152.055000
v 13.162500 28.178750 153.000000
v 13.162500 28.178750 153.945000
v 13.162500 28.178750 154.890000
v 13.162500 28.178750 155.835000
v 13.162500 28.178750 156.780000
v 13.162500 28.178750 157.725000
v 13.162500 28.178750 158.670000
v 13.162500 28.178750 159.615000
v 13.162500 28.617500 159.615000
v 13.162500 29.056250 151.110000
v 13.162500 29.056250 150.165000
v 13.162500 29.056250 152.055000
v 13.162500 29.056250 153.000000
v 13.162500 29.056250 159.615000
v 13.162500 29.495000 153.945000
v 13.162500 29.495000 153.000000
v 13.162500 29.495000 154.890000
v 13.162500 29.495000 155.835000
v 13.162500 29.495000 159.615000
v 13.162500 29.933750 156.780000
v 13.162500 29.933750 155.835000
v 13.162500 29.933750 157.725000
v 13.162500 29.933750 159.615000
v 13.162500 30.372500 158.670000
v 13.162500 30.372500 157.725000
v 13.162500 30.372500 159.615000
v 13.162500 30.811250 158.670000
v 13.162500 30.811250 159.615000
v 13.162500 31.250000 158.670000
v 13.162500 31.250000 159.615000
v 13.162500 31.688750 158.670000
v 13.162500 31.688750 159.615000
v 13.162500 31.688750 157.725000
v 13.162500 32.127500 157.725000
v 13.162500 32.127500 159.615000
v 13.162500 32.127500 155.835000
v 13.162500 32.127500 156.780000
v 13.162500 32.566250 155.835000
v 13.162500 32.566250 159.615000
v 13.162500 32.566250 153.000000
v 13.162500 32.566250 153.945000
v 13.162500 33.005000 153.000000
v 13.162500 32.566250 154.890000
v 13.162500 33.005000 159.615000
v 13.162500 33.005000 149.220000
v 13.162500 33.005000 150.165000
v 13.162500 33.443750 149.220000
v 13.162500 33.005000 151.110000
v 13.162500 33.005000 152.055000
v 13.162500 33.443750 159.615000
v 13.162500 33.443750 146.385000
v 13.162500 33.443750 147.330000
v 13.162500 33.882500 146.385000
v 13.162500 33.443750 148.275000
v 13.162500 33.882500 159.615000
v 13.162500 34.321250 147.330000
v 13.162500 34.321250 146.385000
v 13.162500 34.321250 148.275000
v 13.162500 34.321250 149.220000
v 13.162500 34.321250 150.165000
v 13.162500 34.321250 151.110000
v 13.162500 34.321250 152.055000
v 13.162500 34.321250 153.000000
v 13.162500 34.321250 153.945000
v 13.162500 34.321250 154.890000
v 13.162500 34.321250 155.835000
v 13.162500 34.321250 156.780000
v 13.162500 34.321250 157.725000
v 13.162500 34.321250 158.670000
v 13.162500 34.321250 159.615000
v 15.795000 28.178750 146.385000
v 15.795000 28.178750 147.330000
v 15.795000 28.617500 147.330000
v 15.795000 28.617500 146.385000
v 15.795000 28.178750 148.275000
v 15.795000 28.617500 148.275000
v 15.795000 28.178750 149.220000
v 15.795000 28.617500 149.220000
v 15.795000 28.178750 150.165000
v 15.795000 28.617500 150.165000
v 15.795000 28.178750 151.110000
v 15.795000 28.178750 152.055000
v 15.795000 28.178750 153.000000
v 15.795000 28.178750 153.945000
v 15.795000 28.178750 154.890000
v 15.795000 28.178750 155.835000
v 15.795000 28.178750 156.780000
v 15.795000 28.178750 157.725000
v 15.795000 28.178750 158.670000
v 15.795000 28.178750 159.615000
v 15.795000 28.617500 159.615000
v 15.795000 29.056250 151.110000
v 15.795000 29.056250 150.165000
v 15.795000 29.056250 152.055000
v 15.795000 29.056250 153.000000
v 15.795000 29.056250 159.615000
v 15.795000 29.495000 153.945000
v 15.795000 29.495000 153.000000
v 15.795000 29.495000 154.890000
v 15.795000 29.495000 155.835000
v 15.795000 29.495000 159.615000
v 15.795000 29.933750 156.780000
v 15.795000 29.933750 155.835000
v 15.795000 29.933750 157.725000
v 15.795000 29.933750 159.615000
v 15.795000 30.372500 158.670000
v 15.795000 30.372500 157.725000
v 15.795000 30.372500 159.615000
v 15.795000 30.811250 158.670000
v 15.795000 30.811250 159.615000
v 15.795000 31.250000 158.670000
v 15.795000 31.250000 159.615000
v 15.795000 31.688750 158.670000
v 15.795000 31.688750 159.615000
v 15.795000 31.688750 157.725000
v 15.795000 32.127500 157.725000
v 15.795000 32.127500 159.615000
v 15.795000 32.127500 155.835000
v 15.795000 32.127500 156.780000
v 15.795000 32.566250 155.835000
v 15.795000 32.566250 159.615000
v 15.795000 32.566250 153.000000
v 15.795000 32.566250 153.945000
v 15.795000 33.005000 153.000000
v 15.795000 32.566250 154.890000
v 15.795000 33.005000 159.615000
v 15.795000 33.005000 149.220000
v 15.795000 33.005000 150.165000
v 15.795000 33.443750 149.220000
v 15.795000 33.005000 151.110000
v 15.795000 33.005000 152.055000
v 15.795000 33.443750 159.615000
v 15.795000 33.443750 146.385000
v 15.795000 33.443750 147.330000
v 15.795000 33.882500 146.385000
v 15.795000 33.443750 148.275000
v 15.795000 33.882500 159.615000
v 15.795000 34.321250 147.330000
v 15.795000 34.321250 146.385000
v 15.795000 34.321250 148.275000
v 15.795000 34.321250 149.220000
v 15.795000 34.321250 150.165000
v 15.795000 34.321250 151.110000
v 15.795000 34.321250 152.055000
v 15.795000 34.321250 153.000000
v 15.795000 34.321250 153.945000
v 15.795000 34.321250 154.890000
v 15.795000 34.321250 155.835000
v 15.795000 34.321250 156.780000
v 15.795000 34.321250 157.725000
v 15.795000 34.321250 158.670000
v 15.795000 34.321250 159.615000
v 18.427500 28.178750 146.385000
v 18.427500 28.178750 147.330000
v 18.427500 28.617500 147.330000
v 18.427500 28.617500 146.385000
v 18.427500 28.178750 148.275000
v 18.427500 28.617500 148.275000
v 18.427500 28.178750 149.220000
v 18.427500 28.617500 149.220000
v 18.427500 28.178750 150.165000
v 18.427500 28.617500 150.165000
v 18.427500 28.178750 151.110000
v 18.427500 28.617500 151.110000
v 18.427500 28.178750 152.055000
v 18.427500 28.617500 152.055000
v 18.427500 28.178750 153.000000
v 18.427500 28.617500 153.000000
v 18.427500 28.178750 153.945000
v 18.427500 28.617500 153.945000
v 18.427500 28.178750 154.890000
v 18.427500 28.617500 154.890000
v 18.427500 28.178750 155.835000
v 18.427500 28.617500 155.835000
v 18.427500 28.178750 156.780000
v 18.427500 28.617500 156.780000
v 18.427500 28.178750 157.725000
v 18.427500 28.617500 157.725000
v 18.427500 28.178750 158.670000
v 18.427500 28.617500 158.670000
v 18.427500 28.178750 159.615000
v 18.427500 28.617500 159.615000
v 18.427500 29.056250 151.110000
v 18.427500 29.056250 150.165000
v 18.427500 29.056250 152.055000
v 18.427500 29.056250 153.000000
v 18.427500 29.056250 153.945000
v 18.427500 29.056250 154.890000
v 18.427500 29.056250 155.835000
v 18.427500 29.056250 156.780000
v 18.427500 29.056250 157.725000
v 18.427500 29.056250 158.670000
v 18.427500 29.056250 159.615000
v 18.427500 29.495000 153.945000
v 18.427500 29.495000 153.000000
v 18.427500 29.495000 154.890000
v 18.427500 29.495000 155.835000
v 18.427500 29.495000 156.780000
v 18.427500 29.495000 157.725000
v 18.427500 29.495000 158.670000
v 18.427500 29.495000 159.615000
v 18.427500 29.933750 156.780000
v 18.427500 29.933750 155.835000
v 18.427500 29.933750 157.725000
v 18.427500 29.933750 158.670000
v 18.427500 29.933750 159.615000
v 18.427500 30.372500 158.670000
v 18.427500 30.372500 157.725000
v 18.427500 30.372500 159.615000
v 18.427500 30.811250 159.615000
v 18.427500 30.811250 158.670000
v 18.427500 31.250000 159.615000
v 18.427500 31.250000 158.670000
v 18.427500 31.688750 159.615000
v 18.427500 31.688750 158.670000
v 18.427500 31.688750 157.725000
v 18.427500 32.127500 158.670000
v 18.427500 32.127500 157.725000
v 18.427500 32.127500 159.615000
v 18.427500 32.127500 155.835000
v 18.427500 32.127500 156.780000
v 18.427500 32.566250 156.780000
v 18.427500 32.566250 155.835000
v 18.427500 32.566250 157.725000
v 18.427500 32.566250 158.670000
v 18.427500 32.566250 159.615000
v 18.427500 32.566250 153.000000
v 18.427500 32.566250 153.945000
v 18.427500 33.005000 153.945000
v 18.427500 33.005000 153.000000
v 18.427500 32.566250 154.890000
v 18.427500 33.005000 154.890000
v 18.427500 33.005000 155.835000
v 18.427500 33.005000 156.780000
v 18.427500 33.005000 157.725000
v 18.427500 33.005000 158.670000
v 18.427500 33.005000 159.615000
v 18.427500 33.005000 149.220000
v 18.427500 33.005000 150.165000
v 18.427500 33.443750 150.165000
v 18.427500 33.443750 149.220000
v 18.427500 33.005000 151.110000
v 18.427500 33.443750 151.110000
v 18.427500 33.005000 152.055000
v 18.427500 33.443750 152.055000
v 18.427500 33.443750 153.000000
v 18.427500 33.443750 153.945000
v 18.427500 33.443750 154.890000
v 18.427500 33.443750 155.835000
v 18.427500 33.443750 156.780000
v 18.427500 33.443750 157.725000
v 18.427500 33.443750 158.670000
v 18.427500 33.443750 159.615000
v 18.427500 33.443750 146.385000
v 18.427500 33.443750 147.330000
v 18.427500 33.882500 147.330000
v 18.427500 33.882500 146.385000
v 18.427500 33.443750 148.275000
v 18.427500 33.882500 148.275000
v 18.427500 33.882500 149.220000
v 18.427500 33.882500 150.165000
v 18.427500 33.882500 151.110000
v 18.427500 33.882500 152.055000
v 18.427500 33.882500 153.000000
v 18.427500 33.882500 153.945000
v 18.427500 33.882500 154.890000
v 18.427500 33.882500 155.835000
v 18.427500 33.882500 156.780000
v 18.427500 33.882500 157.725000
v 18.427500 33.882500 158.670000
v 18.427500 33.882500 159.615000
v 18.427500 34.321250 147.330000
v 18.427500 34.321250 146.385000
v 18.427500 34.321250 148.275000
v 18.427500 34.321250 149.220000
v 18.427500 34.321250 150.165000
v 18.427500 34.321250 151.110000
v 18.427500 34.321250 152.055000
v 18.427500 34.321250 153.000000
v 18.427500 34.321250 153.945000
v 18.427500 34.321250 154.890000
v 18.427500 34.321250 155.835000
v 18.427500 34.321250 156.780000
v 18.427500 34.321250 157.725000
v 18.427500 34.321250 158.670000
v 18.427500 34.321250 159.615000
f 1 2 3
f 1 3 4
f 1 5 6
f 1 6 4
f 2 3 7
f 2 7 8
f 1 2 8
f 1 8 5
f 4 3 9
f 4 9 10
f 4 6 11
f 4 11 10
f 3 9 12
f 3 12 7
f 10 9 13
f 10 13 14
f 10 11 15
f 10 15 14
f 9 13 16
f 9 16 12
f 14 13 17
f 14 17 18
f 14 15 19
f 14 19 18
f 13 17 20
f 13 20 16
f 18 17 21
f 18 21 22
f 18 19 23
f 18 23 22
f 22 21 24
f 22 24 25
f 22 23 26
f 22 26 25
f 25 24 27
f 25 27 28
f 25 26 29
f 25 29 28
f 28 27 30
f 28 30 31
f 28 29 32
f 28 32 31
f 31 30 33
f 31 33 34
f 31 32 35
f 31 35 34
f 34 33 36
f 34 36 37
f 34 35 38
f 34 38 37
f 37 36 39
f 37 39 40
f 37 38 41
f 37 41 40
f 40 39 42
f 40 42 43
f 40 41 44
f 40 44 43
f 43 42 45
f 43 45 46
f 43 44 47
f 43 47 46
f 46 45 48
f 46 48 49
f 46 47 50
f 46 50 49
f 49 50 51
f 49 51 48
f 17 52 53
f 17 53 21
f 52 53 54
f 52 54 55
f 17 52 55
f 17 55 20
f 21 53 56
f 21 56 24
f 53 56 57
f 53 57 54
f 24 56 58
f 24 58 27
f 56 58 59
f 56 59 57
f 27 58 60
f 27 60 30
f 30 60 61
f 30 61 33
f 33 61 62
f 33 62 36
f 36 62 63
f 36 63 39
f 39 63 64
f 39 64 42
f 42 64 65
f 42 65 45
f 45 65 66
f 45 66 48
f 48 51 67
f 48 67 66
f 58 68 69
f 58 69 60
f 68 69 70
f 68 70 71
f 58 68 71
f 58 71 59
f 60 69 72
f 60 72 61
f 69 72 73
f 69 73 70
f 61 72 74
f 61 74 62
f 72 74 75
f 72 75 73
f 62 74 76
f 62 76 63
f 63 76 77
f 63 77 64
f 64 77 78
f 64 78 65
f 65 78 79
f 65 79 66
f 66 67 80
f 66 80 79
f 74 81 82
f 74 82 76
f 81 82 83
f 81 83 84
f 74 81 84
f 74 84 75
f 76 82 85
f 76 85 77
f 82 85 86
f 82 86 83
f 77 85 87
f 77 87 78
f 78 87 88
f 78 88 79
f 79 80 89
f 79 89 88
f 85 90 91
f 85 91 87
f 90 91 92
f 90 92 93
f 85 90 93
f 85 93 86
f 87 91 94
f 87 94 88
f 88 89 95
f 88 95 94
f 91 96 97
f 91 97 94
f 91 96 98
f 91 98 92
f 94 95 99
f 94 99 97
f 96 100 101
f 96 101 97
f 96 100 102
f 96 102 98
f 97 99 103
f 97 103 101
f 100 104 105
f 100 105 101
f 100 104 106
f 100 106 102
f 101 103 107
f 101 107 105
f 108 109 110
f 108 110 104
f 108 111 106
f 108 106 104
f 108 109 112
f 108 112 111
f 104 110 113
f 104 113 105
f 105 107 114
f 105 114 113
f 115 116 117
f 115 117 118
f 115 119 120
f 115 120 118
f 115 116 121
f 115 121 119
f 118 117 122
f 118 122 109
f 118 120 112
f 118 112 109
f 109 122 123
f 109 123 110
f 110 123 124
f 110 124 113
f 113 114 125
f 113 125 124
f 126 127 128
f 126 128 129
f 126 130 131
f 126 131 129
f 126 127 132
f 126 132 130
f 129 128 133
f 129 133 134
f 129 131 135
f 129 135 134
f 134 133 136
f 134 136 116
f 134 135 121
f 134 121 116
f 116 136 137
f 116 137 117
f 117 137 138
f 117 138 122
f 122 138 139
f 122 139 123
f 123 139 140
f 123 140 124
f 124 125 141
f 124 141 140
f 142 143 144
f 142 144 145
f 142 146 147
f 142 147 145
f 142 143 148
f 142 148 146
f 145 144 149
f 145 149 150
f 145 147 151
f 145 151 150
f 150 149 152
f 150 152 153
f 150 151 154
f 150 154 153
f 153 152 155
f 153 155 127
f 153 154 132
f 153 132 127
f 127 155 156
f 127 156 128
f 128 156 157
f 128 157 133
f 133 157 158
f 133 158 136
f 136 158 159
f 136 159 137
f 137 159 160
f 137 160 138
f 138 160 161
f 138 161 139
f 139 161 162
f 139 162 140
f 140 141 163
f 140 163 162
f 164 165 166
f 164 166 167
f 164 168 169
f 164 169 167
f 164 165 170
f 164 170 168
f 167 166 171
f 167 171 172
f 167 169 173
f 167 173 172
f 172 171 174
f 172 174 143
f 172 173 148
f 172 148 143
f 143 174 175
f 143 175 144
f 144 175 176
f 144 176 149
f 149 176 177
f 149 177 152
f 152 177 178
f 152 178 155
f 155 178 179
f 155 179 156
f 156 179 180
f 156 180 157
f 157 180 181
f 157 181 158
f 158 181 182
f 158 182 159
f 159 182 183
f 159 183 160
f 160 183 184
f 160 184 161
f 161 184 185
f 161 185 162
f 162 163 186
f 162 186 185
f 165 187 188
f 165 188 166
f 187 188 189
f 187 189 190
f 165 187 190
f 165 190 170
f 166 188 191
f 166 191 171
f 188 191 192
f 188 192 189
f 171 191 193
f 171 193 174
f 191 193 194
f 191 194 192
f 174 193 195
f 174 195 175
f 193 195 196
f 193 196 194
f 175 195 197
f 175 197 176
f 195 197 198
f 195 198 196
f 176 197 199
f 176 199 177
f 197 199 200
f 197 200 198
f 177 199 201
f 177 201 178
f 199 201 202
f 199 202 200
f 178 201 203
f 178 203 179
f 201 203 204
f 201 204 202
f 179 203 205
f 179 205 180
f 203 205 206
f 203 206 204
f 180 205 207
f 180 207 181
f 205 207 208
f 205 208 206
f 181 207 209
f 181 209 182
f 207 209 210
f 207 210 208
f 182 209 211
f 182 211 183
f 209 211 212
f 209 212 210
f 183 211 213
f 183 213 184
f 211 213 214
f 211 214 212
f 184 213 215
f 184 215 185
f 213 215 216
f 213 216 214
f 185 186 216
f 185 216 215
f 5 217 218
f 5 218 6
f 8 7 219
f 8 219 220
f 5 8 220
f 5 220 217
f 6 218 221
f 6 221 11
f 7 12 222
f 7 222 219
f 11 221 223
f 11 223 15
f 12 16 224
f 12 224 222
f 15 223 225
f 15 225 19
f 16 20 226
f 16 226 224
f 19 225 227
f 19 227 23
f 23 227 228
f 23 228 26
f 26 228 229
f 26 229 29
f 29 229 230
f 29 230 32
f 32 230 231
f 32 231 35
f 35 231 232
f 35 232 38
f 38 232 233
f 38 233 41
f 41 233 234
f 41 234 44
f 44 234 235
f 44 235 47
f 47 235 236
f 47 236 50
f 50 236 237
f 50 237 51
f 55 54 238
f 55 238 239
f 20 55 239
f 20 239 226
f 54 57 240
f 54 240 238
f 57 59 241
f 57 241 240
f 51 237 242
f 51 242 67
f 71 70 243
f 71 243 244
f 59 71 244
f 59 244 241
f 70 73 245
f 70 245 243
f 73 75 246
f 73 246 245
f 67 242 247
f 67 247 80
f 84 83 248
f 84 248 249
f 75 84 249
f 75 249 246
f 83 86 250
f 83 250 248
f 80 247 251
f 80 251 89
f 93 92 252
f 93 252 253
f 86 93 253
f 86 253 250
f 89 251 254
f 89 254 95
f 92 98 255
f 92 255 252
f 95 254 256
f 95 256 99
f 98 102 257
f 98 257 255
f 99 256 258
f 99 258 103
f 102 106 259
f 102 259 257
f 103 258 260
f 103 260 107
f 111 261 259
f 111 259 106
f 111 112 262
f 111 262 261
f 107 260 263
f 107 263 114
f 119 264 265
f 119 265 120
f 119 121 266
f 119 266 264
f 120 265 262
f 120 262 112
f 114 263 267
f 114 267 125
f 130 268 269
f 130 269 131
f 130 132 270
f 130 270 268
f 131 269 271
f 131 271 135
f 135 271 266
f 135 266 121
f 125 267 272
f 125 272 141
f 146 273 274
f 146 274 147
f 146 148 275
f 146 275 273
f 147 274 276
f 147 276 151
f 151 276 277
f 151 277 154
f 154 277 270
f 154 270 132
f 141 272 278
f 141 278 163
f 168 279 280
f 168 280 169
f 168 170 281
f 168 281 279
f 169 280 282
f 169 282 173
f 173 282 275
f 173 275 148
f 163 278 283
f 163 283 186
f 190 189 284
f 190 284 285
f 170 190 285
f 170 285 281
f 189 192 286
f 189 286 284
f 192 194 287
f 192 287 286
f 194 196 288
f 194 288 287
f 196 198 289
f 196 289 288
f 198 200 290
f 198 290 289
f 200 202 291
f 200 291 290
f 202 204 292
f 202 292 291
f 204 206 293
f 204 293 292
f 206 208 294
f 206 294 293
f 208 210 295
f 208 295 294
f 210 212 296
f 210 296 295
f 212 214 297
f 212 297 296
f 214 216 298
f 214 298 297
f 186 283 298
f 186 298 216
f 217 299 300
f 217 300 218
f 220 219 301
f 220 301 302
f 217 220 302
f 217 302 299
f 218 300 303
f 218 303 221
f 219 222 304
f 219 304 301
f 221 303 305
f 221 305 223
f 222 224 306
f 222 306 304
f 223 305 307
f 223 307 225
f 224 226 308
f 224 308 306
f 225 307 309
f 225 309 227
f 227 309 310
f 227 310 228
f 228 310 311
f 228 311 229
f 229 311 312
f 229 312 230
f 230 312 313
f 230 313 231
f 231 313 314
f 231 314 232
f 232 314 315
f 232 315 233
f 233 315 316
f 233 316 234
f 234 316 317
f 234 317 235
f 235 317 318
f 235 318 236
f 236 318 319
f 236 319 237
f 239 238 320
f 239 320 321
f 226 239 321
f 226 321 308
f 238 240 322
f 238 322 320
f 240 241 323
f 240 323 322
f 237 319 324
f 237 324 242
f 244 243 325
f 244 325 326
f 241 244 326
f 241 326 323
f 243 245 327
f 243 327 325
f 245 246 328
f 245 328 327
f 242 324 329
f 242 329 247
f 249 248 330
f 249 330 331
f 246 249 331
f 246 331 328
f 248 250 332
f 248 332 330
f 247 329 333
f 247 333 251
f 253 252 334
f 253 334 335
f 250 253 335
f 250 335 332
f 251 333 336
f 251 336 254
f 252 255 337
f 252 337 334
f 254 336 338
f 254 338 256
f 255 257 339
f 255 339 337
f 256 338 340
f 256 340 258
f 257 259 341
f 257 341 339
f 258 340 342
f 258 342 260
f 261 343 341
f 261 341 259
f 261 262 344
f 261 344 343
f 260 342 345
f 260 345 263
f 264 346 347
f 264 347 265
f 264 266 348
f 264 348 346
f 265 347 344
f 265 344 262
f 263 345 349
f 263 349 267
f 268 350 351
f 268 351 269
f 268 270 352
f 268 352 350
f 269 351 353
f 269 353 271
f 271 353 348
f 271 348 266
f 267 349 354
f 267 354 272
f 273 355 356
f 273 356 274
f 273 275 357
f 273 357 355
f 274 356 358
f 274 358 276
f 276 358 359
f 276 359 277
f 277 359 352
f 277 352 270
f 272 354 360
f 272 360 278
f 279 361 362
f 279 362 280
f 279 281 363
f 279 363 361
f 280 362 364
f 280 364 282
f 282 364 357
f 282 357 275
f 278 360 365
f 278 365 283
f 285 284 366
f 285 366 367
f 281 285 367
f 281 367 363
f 284 286 368
f 284 368 366
f 286 287 369
f 286 369 368
f 287 288 370
f 287 370 369
f 288 289 371
f 288 371 370
f 289 290 372
f 289 372 371
f 290 291 373
f 290 373 372
f 291 292 374
f 291 374 373
f 292 293 375
f 292 375 374
f 293 294 376
f 293 376 375
f 294 295 377
f 294 377 376
f 295 296 378
f 295 378 377
f 296 297 379
f 296 379 378
f 297 298 380
f 297 380 379
f 283 365 380
f 283 380 298
f 299 381 382
f 299 382 300
f 302 301 383
f 302 383 384
f 299 302 384
f 299 384 381
f 300 382 385
f 300 385 303
f 301 304 386
f 301 386 383
f 303 385 387
f 303 387 305
f 304 306 388
f 304 388 386
f 305 387 389
f 305 389 307
f 306 308 390
f 306 390 388
f 307 389 391
f 307 391 309
f 309 391 392
f 309 392 310
f 310 392 393
f 310 393 311
f 311 393 394
f 311 394 312
f 312 394 395
f 312 395 313
f 313 395 396
f 313 396 314
f 314 396 397
f 314 397 315
f 315 397 398
f 315 398 316
f 316 398 399
f 316 399 317
f 317 399 400
f 317 400 318
f 318 400 401
f 318 401 319
f 321 320 402
f 321 402 403
f 308 321 403
f 308 403 390
f 320 322 404
f 320 404 402
f 322 323 405
f 322 405 404
f 319 401 406
f 319 406 324
f 326 325 407
f 326 407 408
f 323 326 408
f 323 408 405
f 325 327 409
f 325 409 407
f 327 328 410
f 327 410 409
f 324 406 411
f 324 411 329
f 331 330 412
f 331 412 413
f 328 331 413
f 328 413 410
f 330 332 414
f 330 414 412
f 329 411 415
f 329 415 333
f 335 334 416
f 335 416 417
f 332 335 417
f 332 417 414
f 333 415 418
f 333 418 336
f 334 337 419
f 334 419 416
f 336 418 420
f 336 420 338
f 337 339 421
f 337 421 419
f 338 420 422
f 338 422 340
f 339 341 423
f 339 423 421
f 340 422 424
f 340 424 342
f 343 425 423
f 343 423 341
f 343 344 426
f 343 426 425
f 342 424 427
f 342 427 345
f 346 428 429
f 346 429 347
f 346 348 430
f 346 430 428
f 347 429 426
f 347 426 344
f 345 427 431
f 345 431 349
f 350 432 433
f 350 433 351
f 350 352 434
f 350 434 432
f 351 433 435
f 351 435 353
f 353 435 430
f 353 430 348
f 349 431 436
f 349 436 354
f 355 437 438
f 355 438 356
f 355 357 439
f 355 439 437
f 356 438 440
f 356 440 358
f 358 440 441
f 358 441 359
f 359 441 434
f 359 434 352
f 354 436 442
f 354 442 360
f 361 443 444
f 361 444 362
f 361 363 445
f 361 445 443
f 362 444 446
f 362 446 364
f 364 446 439
f 364 439 357
f 360 442 447
f 360 447 365
f 367 366 448
f 367 448 449
f 363 367 449
f 363 449 445
f 366 368 450
f 366 450 448
f 368 369 451
f 368 451 450
f 369 370 452
f 369 452 451
f 370 371 453
f 370 453 452
f 371 372 454
f 371 454 453
f 372 373 455
f 372 455 454
f 373 374 456
f 373 456 455
f 374 375 457
f 374 457 456
f 375 376 458
f 375 458 457
f 376 377 459
f 376 459 458
f 377 378 460
f 377 460 459
f 378 379 461
f 378 461 460
f 379 380 462
f 379 462 461
f 365 447 462
f 365 462 380
f 381 463 464
f 381 464 382
f 384 383 465
f 384 465 466
f 381 384 466
f 381 466 463
f 382 464 467
f 382 467 385
f 383 386 468
f 383 468 465
f 385 467 469
f 385 469 387
f 386 388 470
f 386 470 468
f 387 469 471
f 387 471 389
f 388 390 472
f 388 472 470
f 389 471 473
f 389 473 391
f 391 473 474
f 391 474 392
f 392 474 475
f 392 475 393
f 393 475 476
f 393 476 394
f 394 476 477
f 394 477 395
f 395 477 478
f 395 478 396
f 396 478 479
f 396 479 397
f 397 479 480
f 397 480 398
f 398 480 481
f 398 481 399
f 399 481 482
f 399 482 400
f 400 482 483
f 400 483 401
f 403 402 484
f 403 484 485
f 390 403 485
f 390 485 472
f 402 404 486
f 402 486 484
f 404 405 487
f 404 487 486
f 401 483 488
f 401 488 406
f 408 407 489
f 408 489 490
f 405 408 490
f 405 490 487
f 407 409 491
f 407 491 489
f 409 410 492
f 409 492 491
f 406 488 493
f 406 493 411
f 413 412 494
f 413 494 495
f 410 413 495
f 410 495 492
f 412 414 496
f 412 496 494
f 411 493 497
f 411 497 415
f 417 416 498
f 417 498 499
f 414 417 499
f 414 499 496
f 415 497 500
f 415 500 418
f 416 419 501
f 416 501 498
f 418 500 502
f 418 502 420
f 419 421 503
f 419 503 501
f 420 502 504
f 420 504 422
f 421 423 505
f 421 505 503
f 422 504 506
f 422 506 424
f 425 507 505
f 425 505 423
f 425 426 508
f 425 508 507
f 424 506 509
f 424 509 427
f 428 510 511
f 428 511 429
f 428 430 512
f 428 512 510
f 429 511 508
f 429 508 426
f 427 509 513
f 427 513 431
f 432 514 515
f 432 515 433
f 432 434 516
f 432 516 514
f 433 515 517
f 433 517 435
f 435 517 512
f 435 512 430
f 431 513 518
f 431 518 436
f 437 519 520
f 437 520 438
f 437 439 521
f 437 521 519
f 438 520 522
f 438 522 440
f 440 522 523
f 440 523 441
f 441 523 516
f 441 516 434
f 436 518 524
f 436 524 442
f 443 525 526
f 443 526 444
f 443 445 527
f 443 527 525
f 444 526 528
f 444 528 446
f 446 528 521
f 446 521 439
f 442 524 529
f 442 529 447
f 449 448 530
f 449 530 531
f 445 449 531
f 445 531 527
f 448 450 532
f 448 532 530
f 450 451 533
f 450 533 532
f 451 452 534
f 451 534 533
f 452 453 535
f 452 535 534
f 453 454 536
f 453 536 535
f 454 455 537
f 454 537 536
f 455 456 538
f 455 538 537
f 456 457 539
f 456 539 538
f 457 458 540
f 457 540 539
f 458 459 541
f 458 541 540
f 459 460 542
f 459 542 541
f 460 461 543
f 460 543 542
f 461 462 544
f 461 544 543
f 447 529 544
f 447 544 462
f 463 545 546
f 463 546 464
f 466 465 547
f 466 547 548
f 463 466 548
f 463 548 545
f 464 546 549
f 464 549 467
f 465 468 550
f 465 550 547
f 467 549 551
f 467 551 469
f 468 470 552
f 468 552 550
f 469 551 553
f 469 553 471
f 470 472 554
f 470 554 552
f 471 553 555
f 471 555 473
f 473 555 556
f 473 556 474
f 474 556 557
f 474 557 475
f 475 557 558
f 475 558 476
f 476 558 559
f 476 559 477
f 477 559 560
f 477 560 478
f 478 560 561
f 478 561 479
f 479 561 562
f 479 562 480
f 480 562 563
f 480 563 481
f 481 563 564
f 481 564 482
f 482 564 565
f 482 565 483
f 485 484 566
f 485 566 567
f 472 485 567
f 472 567 554
f 484 486 568
f 484 568 566
f 486 487 569
f 486 569 568
f 483 565 570
f 483 570 488
f 490 489 571
f 490 571 572
f 487 490 572
f 487 572 569
f 489 491 573
f 489 573 571
f 491 492 574
f 491 574 573
f 488 570 575
f 488 575 493
f 495 494 576
f 495 576 577
f 492 495 577
f 492 577 574
f 494 496 578
f 494 578 576
f 493 575 579
f 493 579 497
f 499 498 580
f 499 580 581
f 496 499 581
f 496 581 578
f 497 579 582
f 497 582 500
f 498 501 583
f 498 583 580
f 500 582 584
f 500 584 502
f 501 503 585
f 501 585 583
f 502 584 586
f 502 586 504
f 503 505 587
f 503 587 585
f 504 586 588
f 504 588 506
f 507 589 587
f 507 587 505
f 507 508 590
f 507 590 589
f 506 588 591
f 506 591 509
f 510 592 593
f 510 593 511
f 510 512 594
f 510 594 592
f 511 593 590
f 511 590 508
f 509 591 595
f 509 595 513
f 514 596 597
f 514 597 515
f 514 516 598
f 514 598 596
f 515 597 599
f 515 599 517
f 517 599 594
f 517 594 512
f 513 595 600
f 513 600 518
f 519 601 602
f 519 602 520
f 519 521 603
f 519 603 601
f 520 602 604
f 520 604 522
f 522 604 605
f 522 605 523
f 523 605 598
f 523 598 516
f 518 600 606
f 518 606 524
f 525 607 608
f 525 608 526
f 525 527 609
f 525 609 607
f 526 608 610
f 526 610 528
f 528 610 603
f 528 603 521
f 524 606 611
f 524 611 529
f 531 530 612
f 531 612 613
f 527 531 613
f 527 613 609
f 530 532 614
f 530 614 612
f 532 533 615
f 532 615 614
f 533 534 616
f 533 616 615
f 534 535 617
f 534 617 616
f 535 536 618
f 535 618 617
f 536 537 619
f 536 619 618
f 537 538 620
f 537 620 619
f 538 539 621
f 538 621 620
f 539 540 622
f 539 622 621
f 540 541 623
f 540 623 622
f 541 542 624
f 541 624 623
f 542 543 625
f 542 625 624
f 543 544 626
f 543 626 625
f 529 611 626
f 529 626 544
f 545 627 628
f 545 628 546
f 548 547 629
f 548 629 630
f 545 548 630
f 545 630 627
f 546 628 631
f 546 631 549
f 547 550 632
f 547 632 629
f 549 631 633
f 549 633 551
f 550 552 634
f 550 634 632
f 551 633 635
f 551 635 553
f 552 554 636
f 552 636 634
f 553 635 637
f 553 637 555
f 555 637 638
f 555 638 556
f 556 638 639
f 556 639 557
f 557 639 640
f 557 640 558
f 558 640 641
f 558 641 559
f 559 641 642
f 559 642 560
f 560 642 643
f 560 643 561
f 561 643 644
f 561 644 562
f 562 644 645
f 562 645 563
f 563 645 646
f 563 646 564
f 564 646 647
f 564 647 565
f 567 566 648
f 567 648 649
f 554 567 649
f 554 649 636
f 566 568 650
f 566 650 648
f 568 569 651
f 568 651 650
f 565 647 652
f 565 652 570
f 572 571 653
f 572 653 654
f 569 572 654
f 569 654 651
f 571 573 655
f 571 655 653
f 573 574 656
f 573 656 655
f 570 652 657
f 570 657 575
f 577 576 658
f 577 658 659
f 574 577 659
f 574 659 656
f 576 578 660
f 576 660 658
f 575 657 661
f 575 661 579
f 581 580 662
f 581 662 663
f 578 581 663
f 578 663 660
f 579 661 664
f 579 664 582
f 580 583 665
f 580 665 662
f 582 664 666
f 582 666 584
f 583 585 667
f 583 667 665
f 584 666 668
f 584 668 586
f 585 587 669
f 585 669 667
f 586 668 670
f 586 670 588
f 589 671 669
f 589 669 587
f 589 590 672
f 589 672 671
f 588 670 673
f 588 673 591
f 592 674 675
f 592 675 593
f 592 594 676
f 592 676 674
f 593 675 672
f 593 672 590
f 591 673 677
f 591 677 595
f 596 678 679
f 596 679 597
f 596 598 680
f 596 680 678
f 597 679 681
f 597 681 599
f 599 681 676
f 599 676 594
f 595 677 682
f 595 682 600
f 601 683 684
f 601 684 602
f 601 603 685
f 601 685 683
f 602 684 686
f 602 686 604
f 604 686 687
f 604 687 605
f 605 687 680
f 605 680 598
f 600 682 688
f 600 688 606
f 607 689 690
f 607 690 608
f 607 609 691
f 607 691 689
f 608 690 692
f 608 692 610
f 610 692 685
f 610 685 603
f 606 688 693
f 606 693 611
f 613 612 694
f 613 694 695
f 609 613 695
f 609 695 691
f 612 614 696
f 612 696 694
f 614 615 697
f 614 697 696
f 615 616 698
f 615 698 697
f 616 617 699
f 616 699 698
f 617 618 700
f 617 700 699
f 618 619 701
f 618 701 700
f 619 620 702
f 619 702 701
f 620 621 703
f 620 703 702
f 621 622 704
f 621 704 703
f 622 623 705
f 622 705 704
f 623 624 706
f 623 706 705
f 624 625 707
f 624 707 706
f 625 626 708
f 625 708 707
f 611 693 708
f 611 708 626
f 627 709 710
f 627 710 628
f 630 629 711
f 630 711 712
f 627 630 712
f 627 712 709
f 628 710 713
f 628 713 631
f 629 632 714
f 629 714 711
f 631 713 715
f 631 715 633
f 632 634 716
f 632 716 714
f 633 715 717
f 633 717 635
f 634 636 718
f 634 718 716
f 635 717 719
f 635 719 637
f 637 719 720
f 637 720 638
f 638 720 721
f 638 721 639
f 639 721 722
f 639 722 640
f 640 722 723
f 640 723 641
f 641 723 724
f 641 724 642
f 642 724 725
f 642 725 643
f 643 725 726
f 643 726 644
f 644 726 727
f 644 727 645
f 645 727 728
f 645 728 646
f 646 728 729
f 646 729 647
f 649 648 730
f 649 730 731
f 636 649 731
f 636 731 718
f 648 650 732
f 648 732 730
f 650 651 733
f 650 733 732
f 647 729 734
f 647 734 652
f 654 653 735
f 654 735 736
f 651 654 736
f 651 736 733
f 653 655 737
f 653 737 735
f 655 656 738
f 655 738 737
f 652 734 739
f 652 739 657
f 659 658 740
f 659 740 741
f 656 659 741
f 656 741 738
f 658 660 742
f 658 742 740
f 657 739 743
f 657 743 661
f 663 662 744
f 663 744 745
f 660 663 745
f 660 745 742
f 661 743 746
f 661 746 664
f 662 665 747
f 662 747 744
f 664 746 748
f 664 748 666
f 665 667 749
f 665 749 747
f 666 748 750
f 666 750 668
f 667 669 751
f 667 751 749
f 668 750 752
f 668 752 670
f 671 753 751
f 671 751 669
f 671 672 754
f 671 754 753
f 670 752 755
f 670 755 673
f 674 756 757
f 674 757 675
f 674 676 758
f 674 758 756
f 675 757 754
f 675 754 672
f 673 755 759
f 673 759 677
f 678 760 761
f 678 761 679
f 678 680 762
f 678 762 760
f 679 761 763
f 679 763 681
f 681 763 758
f 681 758 676
f 677 759 764
f 677 764 682
f 683 765 766
f 683 766 684
f 683 685 767
f 683 767 765
f 684 766 768
f 684 768 686
f 686 768 769
f 686 769 687
f 687 769 762
f 687 762 680
f 682 764 770
f 682 770 688
f 689 771 772
f 689 772 690
f 689 691 773
f 689 773 771
f 690 772 774
f 690 774 692
f 692 774 767
f 692 767 685
f 688 770 775
f 688 775 693
f 695 694 776
f 695 776 777
f 691 695 777
f 691 777 773
f 694 696 778
f 694 778 776
f 696 697 779
f 696 779 778
f 697 698 780
f 697 780 779
f 698 699 781
f 698 781 780
f 699 700 782
f 699 782 781
f 700 701 783
f 700 783 782
f 701 702 784
f 701 784 783
f 702 703 785
f 702 785 784
f 703 704 786
f 703 786 785
f 704 705 787
f 704 787 786
f 705 706 788
f 705 788 787
f 706 707 789
f 706 789 788
f 707 708 790
f 707 790 789
f 693 775 790
f 693 790 708
f 709 791 792
f 709 792 710
f 712 711 793
f 712 793 794
f 709 712 794
f 709 794 791
f 710 792 795
f 710 795 713
f 711 714 796
f 711 796 793
f 713 795 797
f 713 797 715
f 714 716 798
f 714 798 796
f 715 797 799
f 715 799 717
f 716 718 800
f 716 800 798
f 717 799 801
f 717 801 719
f 719 801 802
f 719 802 720
f 720 802 803
f 720 803 721
f 721 803 804
f 721 804 722
f 722 804 805
f 722 805 723
f 723 805 806
f 723 806 724
f 724 806 807
f 724 807 725
f 725 807 808
f 725 808 726
f 726 808 809
f 726 809 727
f 727 809 810
f 727 810 728
f 728 810 811
f 728 811 729
f 731 730 812
f 731 812 813
f 718 731 813
f 718 813 800
f 730 732 814
f 730 814 812
f 732 733 815
f 732 815 814
f 729 811 816
f 729 816 734
f 736 735 817
f 736 817 818
f 733 736 818
f 733 818 815
f 735 737 819
f 735 819 817
f 737 738 820
f 737 820 819
f 734 816 821
f 734 821 739
f 741 740 822
f 741 822 823
f 738 741 823
f 738 823 820
f 740 742 824
f 740 824 822
f 739 821 825
f 739 825 743
f 745 744 826
f 745 826 827
f 742 745 827
f 742 827 824
f 743 825 828
f 743 828 746
f 744 747 829
f 744 829 826
f 746 828 830
f 746 830 748
f 747 749 831
f 747 831 829
f 748 830 832
f 748 832 750
f 749 751 833
f 749 833 831
f 750 832 834
f 750 834 752
f 753 835 833
f 753 833 751
f 753 754 836
f 753 836 835
f 752 834 837
f 752 837 755
f 756 838 839
f 756 839 757
f 756 758 840
f 756 840 838
f 757 839 836
f 757 836 754
f 755 837 841
f 755 841 759
f 760 842 843
f 760 843 761
f 760 762 844
f 760 844 842
f 761 843 845
f 761 845 763
f 763 845 840
f 763 840 758
f 759 841 846
f 759 846 764
f 765 847 848
f 765 848 766
f 765 767 849
f 765 849 847
f 766 848 850
f 766 850 768
f 768 850 851
f 768 851 769
f 769 851 844
f 769 844 762
f 764 846 852
f 764 852 770
f 771 853 854
f 771 854 772
f 771 773 855
f 771 855 853
f 772 854 856
f 772 856 774
f 774 856 849
f 774 849 767
f 770 852 857
f 770 857 775
f 777 776 858
f 777 858 859
f 773 777 859
f 773 859 855
f 776 778 860
f 776 860 858
f 778 779 861
f 778 861 860
f 779 780 862
f 779 862 861
f 780 781 863
f 780 863 862
f 781 782 864
f 781 864 863
f 782 783 865
f 782 865 864
f 783 784 866
f 783 866 865
f 784 785 867
f 784 867 866
f 785 786 868
f 785 868 867
f 786 787 869
f 786 869 868
f 787 788 870
f 787 870 869
f 788 789 871
f 788 871 870
f 789 790 872
f 789 872 871
f 775 857 872
f 775 872 790
f 791 873 874
f 791 874 792
f 794 793 875
f 794 875 876
f 791 794 876
f 791 876 873
f 792 874 877
f 792 877 795
f 793 796 878
f 793 878 875
f 795 877 879
f 795 879 797
f 796 798 880
f 796 880 878
f 797 879 881
f 797 881 799
f 798 800 882
f 798 882 880
f 799 881 883
f 799 883 801
f 801 883 884
f 801 884 802
f 802 884 885
f 802 885 803
f 803 885 886
f 803 886 804
f 804 886 887
f 804 887 805
f 805 887 888
f 805 888 806
f 806 888 889
f 806 889 807
f 807 889 890
f 807 890 808
f 808 890 891
f 808 891 809
f 809 891 892
f 809 892 810
f 810 892 893
f 810 893 811
f 813 812 894
f 813 894 895
f 800 813 895
f 800 895 882
f 812 814 896
f 812 896 894
f 814 815 897
f 814 897 896
f 811 893 898
f 811 898 816
f 818 817 899
f 818 899 900
f 815 818 900
f 815 900 897
f 817 819 901
f 817 901 899
f 819 820 902
f 819 902 901
f 816 898 903
f 816 903 821
f 823 822 904
f 823 904 905
f 820 823 905
f 820 905 902
f 822 824 906
f 822 906 904
f 821 903 907
f 821 907 825
f 827 826 908
f 827 908 909
f 824 827 909
f 824 909 906
f 825 907 910
f 825 910 828
f 826 829 911
f 826 911 908
f 828 910 912
f 828 912 830
f 829 831 913
f 829 913 911
f 830 912 914
f 830 914 832
f 831 833 915
f 831 915 913
f 832 914 916
f 832 916 834
f 835 917 915
f 835 915 833
f 835 836 918
f 835 918 917
f 834 916 919
f 834 919 837
f 838 920 921
f 838 921 839
f 838 840 922
f 838 922 920
f 839 921 918
f 839 918 836
f 837 919 923
f 837 923 841
f 842 924 925
f 842 925 843
f 842 844 926
f 842 926 924
f 843 925 927
f 843 927 845
f 845 927 922
f 845 922 840
f 841 923 928
f 841 928 846
f 847 929 930
f 847 930 848
f 847 849 931
f 847 931 929
f 848 930 932
f 848 932 850
f 850 932 933
f 850 933 851
f 851 933 926
f 851 926 844
f 846 928 934
f 846 934 852
f 853 935 936
f 853 936 854
f 853 855 937
f 853 937 935
f 854 936 938
f 854 938 856
f 856 938 931
f 856 931 849
f 852 934 939
f 852 939 857
f 859 858 940
f 859 940 941
f 855 859 941
f 855 941 937
f 858 860 942
f 858 942 940
f 860 861 943
f 860 943 942
f 861 862 944
f 861 944 943
f 862 863 945
f 862 945 944
f 863 864 946
f 863 946 945
f 864 865 947
f 864 947 946
f 865 866 948
f 865 948 947
f 866 867 949
f 866 949 948
f 867 868 950
f 867 950 949
f 868 869 951
f 868 951 950
f 869 870 952
f 869 952 951
f 870 871 953
f 870 953 952
f 871 872 954
f 871 954 953
f 857 939 954
f 857 954 872
f 873 955 956
f 873 956 874
f 876 875 957
f 876 957 958
f 873 876 958
f 873 958 955
f 874 956 959
f 874 959 877
f 875 878 960
f 875 960 957
f 877 959 961
f 877 961 879
f 878 880 962
f 878 962 960
f 879 961 963
f 879 963 881
f 880 882 964
f 880 964 962
f 881 963 965
f 881 965 883
f 883 965 966
f 883 966 884
f 884 966 967
f 884 967 885
f 885 967 968
f 885 968 886
f 886 968 969
f 886 969 887
f 887 969 970
f 887 970 888
f 888 970 971
f 888 971 889
f 889 971 972
f 889 972 890
f 890 972 973
f 890 973 891
f 891 973 974
f 891 974 892
f 892 974 975
f 892 975 893
f 895 894 976
f 895 976 977
f 882 895 977
f 882 977 964
f 894 896 978
f 894 978 976
f 896 897 979
f 896 979 978
f 893 975 980
f 893 980 898
f 900 899 981
f 900 981 982
f 897 900 982
f 897 982 979
f 899 901 983
f 899 983 981
f 901 902 984
f 901 984 983
f 898 980 985
f 898 985 903
f 905 904 986
f 905 986 987
f 902 905 987
f 902 987 984
f 904 906 988
f 904 988 986
f 903 985 989
f 903 989 907
f 909 908 990
f 909 990 991
f 906 909 991
f 906 991 988
f 907 989 992
f 907 992 910
f 908 911 993
f 908 993 990
f 910 992 994
f 910 994 912
f 911 913 995
f 911 995 993
f 912 994 996
f 912 996 914
f 913 915 997
f 913 997 995
f 914 996 998
f 914 998 916
f 917 999 997
f 917 997 915
f 917 918 1000
f 917 1000 999
f 916 998 1001
f 916 1001 919
f 920 1002 1003
f 920 1003 921
f 920 922 1004
f 920 1004 1002
f 921 1003 1000
f 921 1000 918
f 919 1001 1005
f 919 1005 923
f 924 1006 1007
f 924 1007 925
f 924 926 1008
f 924 1008 1006
f 925 1007 1009
f 925 1009 927
f 927 1009 1004
f 927 1004 922
f 923 1005 1010
f 923 1010 928
f 929 1011 1012
f 929 1012 930
f 929 931 1013
f 929 1013 1011
f 930 1012 1014
f 930 1014 932
f 932 1014 1015
f 932 1015 933
f 933 1015 1008
f 933 1008 926
f 928 1010 1016
f 928 1016 934
f 935 1017 1018
f 935 1018 936
f 935 937 1019
f 935 1019 1017
f 936 1018 1020
f 936 1020 938
f 938 1020 1013
f 938 1013 931
f 934 1016 1021
f 934 1021 939
f 941 940 1022
f 941 1022 1023
f 937 941 1023
f 937 1023 1019
f 940 942 1024
f 940 1024 1022
f 942 943 1025
f 942 1025 1024
f 943 944 1026
f 943 1026 1025
f 944 945 1027
f 944 1027 1026
f 945 946 1028
f 945 1028 1027
f 946 947 1029
f 946 1029 1028
f 947 948 1030
f 947 1030 1029
f 948 949 1031
f 948 1031 1030
f 949 950 1032
f 949 1032 1031
f 950 951 1033
f 950 1033 1032
f 951 952 1034
f 951 1034 1033
f 952 953 1035
f 952 1035 1034
f 953 954 1036
f 953 1036 1035
f 939 1021 1036
f 939 1036 954
f 955 1037 1038
f 955 1038 956
f 958 957 1039
f 958 1039 1040
f 955 958 1040
f 955 1040 1037
f 956 1038 1041
f 956 1041 959
f 957 960 1042
f 957 1042 1039
f 959 1041 1043
f 959 1043 961
f 960 962 1044
f 960 1044 1042
f 961 1043 1045
f 961 1045 963
f 962 964 1046
f 962 1046 1044
f 963 1045 1047
f 963 1047 965
f 965 1047 1048
f 965 1048 966
f 966 1048 1049
f 966 1049 967
f 967 1049 1050
f 967 1050 968
f 968 1050 1051
f 968 1051 969
f 969 1051 1052
f 969 1052 970
f 970 1052 1053
f 970 1053 971
f 971 1053 1054
f 971 1054 972
f 972 1054 1055
f 972 1055 973
f 973 1055 1056
f 973 1056 974
f 974 1056 1057
f 974 1057 975
f 977 976 1058
f 977 1058 1059
f 964 977 1059
f 964 1059 1046
f 976 978 1060
f 976 1060 1058
f 978 979 1061
f 978 1061 1060
f 975 1057 1062
f 975 1062 980
f 982 981 1063
f 982 1063 1064
f 979 982 1064
f 979 1064 1061
f 981 983 1065
f 981 1065 1063
f 983 984 1066
f 983 1066 1065
f 980 1062 1067
f 980 1067 985
f 987 986 1068
f 987 1068 1069
f 984 987 1069
f 984 1069 1066
f 986 988 1070
f 986 1070 1068
f 985 1067 1071
f 985 1071 989
f 991 990 1072
f 991 1072 1073
f 988 991 1073
f 988 1073 1070
f 989 1071 1074
f 989 1074 992
f 990 993 1075
f 990 1075 1072
f 992 1074 1076
f 992 1076 994
f 993 995 1077
f 993 1077 1075
f 994 1076 1078
f 994 1078 996
f 995 997 1079
f 995 1079 1077
f 996 1078 1080
f 996 1080 998
f 999 1081 1079
f 999 1079 997
f 999 1000 1082
f 999 1082 1081
f 998 1080 1083
f 998 1083 1001
f 1002 1084 1085
f 1002 1085 1003
f 1002 1004 1086
f 1002 1086 1084
f 1003 1085 1082
f 1003 1082 1000
f 1001 1083 1087
f 1001 1087 1005
f 1006 1088 1089
f 1006 1089 1007
f 1006 1008 1090
f 1006 1090 1088
f 1007 1089 1091
f 1007 1091 1009
f 1009 1091 1086
f 1009 1086 1004
f 1005 1087 1092
f 1005 1092 1010
f 1011 1093 1094
f 1011 1094 1012
f 1011 1013 1095
f 1011 1095 1093
f 1012 1094 1096
f 1012 1096 1014
f 1014 1096 1097
f 1014 1097 1015
f 1015 1097 1090
f 1015 1090 1008
f 1010 1092 1098
f 1010 1098 1016
f 1017 1099 1100
f 1017 1100 1018
f 1017 1019 1101
f 1017 1101 1099
f 1018 1100 1102
f 1018 1102 1020
f 1020 1102 1095
f 1020 1095 1013
f 1016 1098 1103
f 1016 1103 1021
f 1023 1022 1104
f 1023 1104 1105
f 1019 1023 1105
f 1019 1105 1101
f 1022 1024 1106
f 1022 1106 1104
f 1024 1025 1107
f 1024 1107 1106
f 1025 1026 1108
f 1025 1108 1107
f 1026 1027 1109
f 1026 1109 1108
f 1027 1028 1110
f 1027 1110 1109
f 1028 1029 1111
f 1028 1111 1110
f 1029 1030 1112
f 1029 1112 1111
f 1030 1031 1113
f 1030 1113 1112
f 1031 1032 1114
f 1031 1114 1113
f 1032 1033 1115
f 1032 1115 1114
f 1033 1034 1116
f 1033 1116 1115
f 1034 1035 1117
f 1034 1117 1116
f 1035 1036 1118
f 1035 1118 1117
f 1021 1103 1118
f 1021 1118 1036
f 1037 1119 1120
f 1037 1120 1038
f 1040 1039 1121
f 1040 1121 1122
f 1037 1040 1122
f 1037 1122 1119
f 1038 1120 1123
f 1038 1123 1041
f 1039 1042 1124
f 1039 1124 1121
f 1041 1123 1125
f 1041 1125 1043
f 1042 1044 1126
f 1042 1126 1124
f 1043 1125 1127
f 1043 1127 1045
f 1044 1046 1128
f 1044 1128 1126
f 1045 1127 1129
f 1045 1129 1047
f 1047 1129 1130
f 1047 1130 1048
f 1048 1130 1131
f 1048 1131 1049
f 1049 1131 1132
f 1049 1132 1050
f 1050 1132 1133
f 1050 1133 1051
f 1051 1133 1134
f 1051 1134 1052
f 1052 1134 1135
f 1052 1135 1053
f 1053 1135 1136
f 1053 1136 1054
f 1054 1136 1137
f 1054 1137 1055
f 1055 1137 1138
f 1055 1138 1056
f 1056 1138 1139
f 1056 1139 1057
f 1059 1058 1140
f 1059 1140 1141
f 1046 1059 1141
f 1046 1141 1128
f 1058 1060 1142
f 1058 1142 1140
f 1060 1061 1143
f 1060 1143 1142
f 1057 1139 1144
f 1057 1144 1062
f 1064 1063 1145
f 1064 1145 1146
f 1061 1064 1146
f 1061 1146 1143
f 1063 1065 1147
f 1063 1147 1145
f 1065 1066 1148
f 1065 1148 1147
f 1062 1144 1149
f 1062 1149 1067
f 1069 1068 1150
f 1069 1150 1151
f 1066 1069 1151
f 1066 1151 1148
f 1068 1070 1152
f 1068 1152 1150
f 1067 1149 1153
f 1067 1153 1071
f 1073 1072 1154
f 1073 1154 1155
f 1070 1073 1155
f 1070 1155 1152
f 1071 1153 1156
f 1071 1156 1074
f 1072 1075 1157
f 1072 1157 1154
f 1074 1156 1158
f 1074 1158 1076
f 1075 1077 1159
f 1075 1159 1157
f 1076 1158 1160
f 1076 1160 1078
f 1077 1079 1161
f 1077 1161 1159
f 1078 1160 1162
f 1078 1162 1080
f 1081 1163 1161
f 1081 1161 1079
f 1081 1082 1164
f 1081 1164 1163
f 1080 1162 1165
f 1080 1165 1083
f 1084 1166 1167
f 1084 1167 1085
f 1084 1086 1168
f 1084 1168 1166
f 1085 1167 1164
f 1085 1164 1082
f 1083 1165 1169
f 1083 1169 1087
f 1088 1170 1171
f 1088 1171 1089
f 1088 1090 1172
f 1088 1172 1170
f 1089 1171 1173
f 1089 1173 1091
f 1091 1173 1168
f 1091 1168 1086
f 1087 1169 1174
f 1087 1174 1092
f 1093 1175 1176
f 1093 1176 1094
f 1093 1095 1177
f 1093 1177 1175
f 1094 1176 1178
f 1094 1178 1096
f 1096 1178 1179
f 1096 1179 1097
f 1097 1179 1172
f 1097 1172 1090
f 1092 1174 1180
f 1092 1180 1098
f 1099 1181 1182
f 1099 1182 1100
f 1099 1101 1183
f 1099 1183 1181
f 1100 1182 1184
f 1100 1184 1102
f 1102 1184 1177
f 1102 1177 1095
f 1098 1180 1185
f 1098 1185 1103
f 1105 1104 1186
f 1105 1186 1187
f 1101 1105 1187
f 1101 1187 1183
f 1104 1106 1188
f 1104 1188 1186
f 1106 1107 1189
f 1106 1189 1188
f 1107 1108 1190
f 1107 1190 1189
f 1108 1109 1191
f 1108 1191 1190
f 1109 1110 1192
f 1109 1192 1191
f 1110 1111 1193
f 1110 1193 1192
f 1111 1112 1194
f 1111 1194 1193
f 1112 1113 1195
f 1112 1195 1194
f 1113 1114 1196
f 1113 1196 1195
f 1114 1115 1197
f 1114 1197 1196
f 1115 1116 1198
f 1115 1198 1197
f 1116 1117 1199
f 1116 1199 1198
f 1117 1118 1200
f 1117 1200 1199
f 1103 1185 1200
f 1103 1200 1118
f 1201 1202 1203
f 1201 1203 1204
f 1119 1201 1202
f 1119 1202 1120
f 1122 1121 1203
f 1122 1203 1204
f 1119 1122 1204
f 1119 1204 1201
f 1202 1205 1206
f 1202 1206 1203
f 1120 1202 1205
f 1120 1205 1123
f 1121 1124 1206
f 1121 1206 1203
f 1205 1207 1208
f 1205 1208 1206
f 1123 1205 1207
f 1123 1207 1125
f 1124 1126 1208
f 1124 1208 1206
f 1207 1209 1210
f 1207 1210 1208
f 1125 1207 1209
f 1125 1209 1127
f 1126 1128 1210
f 1126 1210 1208
f 1209 1211 1212
f 1209 1212 1210
f 1127 1209 1211
f 1127 1211 1129
f 1211 1213 1214
f 1211 1214 1212
f 1129 1211 1213
f 1129 1213 1130
f 1213 1215 1216
f 1213 1216 1214
f 1130 1213 1215
f 1130 1215 1131
f 1215 1217 1218
f 1215 1218 1216
f 1131 1215 1217
f 1131 1217 1132
f 1217 1219 1220
f 1217 1220 1218
f 1132 1217 1219
f 1132 1219 1133
f 1219 1221 1222
f 1219 1222 1220
f 1133 1219 1221
f 1133 1221 1134
f 1221 1223 1224
f 1221 1224 1222
f 1134 1221 1223
f 1134 1223 1135
f 1223 1225 1226
f 1223 1226 1224
f 1135 1223 1225
f 1135 1225 1136
f 1225 1227 1228
f 1225 1228 1226
f 1136 1225 1227
f 1136 1227 1137
f 1227 1229 1230
f 1227 1230 1228
f 1137 1227 1229
f 1137 1229 1138
f 1138 1229 1230
f 1138 1230 1139
f 1210 1212 1231
f 1210 1231 1232
f 1141 1140 1231
f 1141 1231 1232
f 1128 1141 1232
f 1128 1232 1210
f 1212 1214 1233
f 1212 1233 1231
f 1140 1142 1233
f 1140 1233 1231
f 1214 1216 1234
f 1214 1234 1233
f 1142 1143 1234
f 1142 1234 1233
f 1216 1218 1235
f 1216 1235 1234
f 1218 1220 1236
f 1218 1236 1235
f 1220 1222 1237
f 1220 1237 1236
f 1222 1224 1238
f 1222 1238 1237
f 1224 1226 1239
f 1224 1239 1238
f 1226 1228 1240
f 1226 1240 1239
f 1228 1230 1241
f 1228 1241 1240
f 1139 1230 1241
f 1139 1241 1144
f 1234 1235 1242
f 1234 1242 1243
f 1146 1145 1242
f 1146 1242 1243
f 1143 1146 1243
f 1143 1243 1234
f 1235 1236 1244
f 1235 1244 1242
f 1145 1147 1244
f 1145 1244 1242
f 1236 1237 1245
f 1236 1245 1244
f 1147 1148 1245
f 1147 1245 1244
f 1237 1238 1246
f 1237 1246 1245
f 1238 1239 1247
f 1238 1247 1246
f 1239 1240 1248
f 1239 1248 1247
f 1240 1241 1249
f 1240 1249 1248
f 1144 1241 1249
f 1144 1249 1149
f 1245 1246 1250
f 1245 1250 1251
f 1151 1150 1250
f 1151 1250 1251
f 1148 1151 1251
f 1148 1251 1245
f 1246 1247 1252
f 1246 1252 1250
f 1150 1152 1252
f 1150 1252 1250
f 1247 1248 1253
f 1247 1253 1252
f 1248 1249 1254
f 1248 1254 1253
f 1149 1249 1254
f 1149 1254 1153
f 1252 1253 1255
f 1252 1255 1256
f 1155 1154 1255
f 1155 1255 1256
f 1152 1155 1256
f 1152 1256 1252
f 1253 1254 1257
f 1253 1257 1255
f 1153 1254 1257
f 1153 1257 1156
f 1255 1257 1258
f 1255 1258 1259
f 1154 1157 1259
f 1154 1259 1255
f 1156 1257 1258
f 1156 1258 1158
f 1259 1258 1260
f 1259 1260 1261
f 1157 1159 1261
f 1157 1261 1259
f 1158 1258 1260
f 1158 1260 1160
f 1261 1260 1262
f 1261 1262 1263
f 1159 1161 1263
f 1159 1263 1261
f 1160 1260 1262
f 1160 1262 1162
f 1264 1263 1265
f 1264 1265 1266
f 1163 1264 1263
f 1163 1263 1161
f 1163 1164 1266
f 1163 1266 1264
f 1263 1262 1267
f 1263 1267 1265
f 1162 1262 1267
f 1162 1267 1165
f 1268 1269 1270
f 1268 1270 1271
f 1166 1268 1269
f 1166 1269 1167
f 1166 1168 1271
f 1166 1271 1268
f 1269 1266 1272
f 1269 1272 1270
f 1167 1269 1266
f 1167 1266 1164
f 1266 1265 1273
f 1266 1273 1272
f 1265 1267 1274
f 1265 1274 1273
f 1165 1267 1274
f 1165 1274 1169
f 1275 1276 1277
f 1275 1277 1278
f 1170 1275 1276
f 1170 1276 1171
f 1170 1172 1278
f 1170 1278 1275
f 1276 1279 1280
f 1276 1280 1277
f 1171 1276 1279
f 1171 1279 1173
f 1279 1271 1281
f 1279 1281 1280
f 1173 1279 1271
f 1173 1271 1168
f 1271 1270 1282
f 1271 1282 1281
f 1270 1272 1283
f 1270 1283 1282
f 1272 1273 1284
f 1272 1284 1283
f 1273 1274 1285
f 1273 1285 1284
f 1169 1274 1285
f 1169 1285 1174
f 1286 1287 1288
f 1286 1288 1289
f 1175 1286 1287
f 1175 1287 1176
f 1175 1177 1289
f 1175 1289 1286
f 1287 1290 1291
f 1287 1291 1288
f 1176 1287 1290
f 1176 1290 1178
f 1290 1292 1293
f 1290 1293 1291
f 1178 1290 1292
f 1178 1292 1179
f 1292 1278 1294
f 1292 1294 1293
f 1179 1292 1278
f 1179 1278 1172
f 1278 1277 1295
f 1278 1295 1294
f 1277 1280 1296
f 1277 1296 1295
f 1280 1281 1297
f 1280 1297 1296
f 1281 1282 1298
f 1281 1298 1297
f 1282 1283 1299
f 1282 1299 1298
f 1283 1284 1300
f 1283 1300 1299
f 1284 1285 1301
f 1284 1301 1300
f 1174 1285 1301
f 1174 1301 1180
f 1302 1303 1304
f 1302 1304 1305
f 1181 1302 1303
f 1181 1303 1182
f 1181 1183 1305
f 1181 1305 1302
f 1303 1306 1307
f 1303 1307 1304
f 1182 1303 1306
f 1182 1306 1184
f 1306 1289 1308
f 1306 1308 1307
f 1184 1306 1289
f 1184 1289 1177
f 1289 1288 1309
f 1289 1309 1308
f 1288 1291 1310
f 1288 1310 1309
f 1291 1293 1311
f 1291 1311 1310
f 1293 1294 1312
f 1293 1312 1311
f 1294 1295 1313
f 1294 1313 1312
f 1295 1296 1314
f 1295 1314 1313
f 1296 1297 1315
f 1296 1315 1314
f 1297 1298 1316
f 1297 1316 1315
f 1298 1299 1317
f 1298 1317 1316
f 1299 1300 1318
f 1299 1318 1317
f 1300 1301 1319
f 1300 1319 1318
f 1180 1301 1319
f 1180 1319 1185
f 1305 1304 1320
f 1305 1320 1321
f 1187 1186 1320
f 1187 1320 1321
f 1183 1187 1321
f 1183 1321 1305
f 1304 1307 1322
f 1304 1322 1320
f 1186 1188 1322
f 1186 1322 1320
f 1307 1308 1323
f 1307 1323 1322
f 1188 1189 1323
f 1188 1323 1322
f 1308 1309 1324
f 1308 1324 1323
f 1189 1190 1324
f 1189 1324 1323
f 1309 1310 1325
f 1309 1325 1324
f 1190 1191 1325
f 1190 1325 1324
f 1310 1311 1326
f 1310 1326 1325
f 1191 1192 1326
f 1191 1326 1325
f 1311 1312 1327
f 1311 1327 1326
f 1192 1193 1327
f 1192 1327 1326
f 1312 1313 1328
f 1312 1328 1327
f 1193 1194 1328
f 1193 1328 1327
f 1313 1314 1329
f 1313 1329 1328
f 1194 1195 1329
f 1194 1329 1328
f 1314 1315 1330
f 1314 1330 1329
f 1195 1196 1330
f 1195 1330 1329
f 1315 1316 1331
f 1315 1331 1330
f 1196 1197 1331
f 1196 1331 1330
f 1316 1317 1332
f 1316 1332 1331
f 1197 1198 1332
f 1197 1332 1331
f 1317 1318 1333
f 1317 1333 1332
f 1198 1199 1333
f 1198 1333 1332
f 1318 1319 1334
f 1318 1334 1333
f 1199 1200 1334
f 1199 1334 1333
f 1185 1319 1334
f 1185 1334 1200
