o JSONAkashi_544
v -434.025000 -23.025000 -14.477638
v -434.025000 -22.937500 -14.477638
v -434.025000 -22.937500 -14.318741
v -434.025000 -23.025000 -14.318741
v -433.937500 -23.025000 -14.477638
v -433.937500 -23.025000 -14.318741
v -433.937500 -22.937500 -14.477638
v -434.025000 -22.937500 -14.159844
v -434.025000 -23.025000 -14.159844
v -433.937500 -23.025000 -14.159844
v -434.025000 -22.937500 -14.000946
v -434.025000 -23.025000 -14.000946
v -433.937500 -23.025000 -14.000946
v -434.025000 -22.937500 -13.842049
v -434.025000 -23.025000 -13.842049
v -433.937500 -23.025000 -13.842049
v -434.025000 -22.937500 -13.683152
v -434.025000 -23.025000 -13.683152
v -433.937500 -23.025000 -13.683152
v -434.025000 -22.937500 -13.524254
v -434.025000 -23.025000 -13.524254
v -433.937500 -23.025000 -13.524254
v -434.025000 -22.937500 -13.365357
v -434.025000 -23.025000 -13.365357
v -433.937500 -23.025000 -13.365357
v -434.025000 -22.937500 -13.206459
v -434.025000 -23.025000 -13.206459
v -433.937500 -23.025000 -13.206459
v -434.025000 -22.937500 -13.047562
v -434.025000 -23.025000 -13.047562
v -433.937500 -23.025000 -13.047562
v -434.025000 -22.937500 -12.888665
v -434.025000 -23.025000 -12.888665
v -433.937500 -23.025000 -12.888665
v -434.025000 -22.937500 -12.729767
v -434.025000 -23.025000 -12.729767
v -433.937500 -23.025000 -12.729767
v -434.025000 -22.937500 -12.570870
v -434.025000 -23.025000 -12.570870
v -433.937500 -23.025000 -12.570870
v -434.025000 -22.937500 -12.411973
v -434.025000 -23.025000 -12.411973
v -433.937500 -23.025000 -12.411973
v -433.937500 -22.937500 -12.411973
v -434.025000 -22.850000 -14.477638
v -434.025000 -22.850000 -14.318741
v -433.937500 -22.850000 -14.477638
v -434.025000 -22.850000 -14.159844
v -434.025000 -22.850000 -14.000946
v -434.025000 -22.850000 -13.842049
v -434.025000 -22.850000 -13.683152
v -434.025000 -22.850000 -13.524254
v -434.025000 -22.850000 -13.365357
v -434.025000 -22.850000 -13.206459
v -434.025000 -22.850000 -13.047562
v -434.025000 -22.850000 -12.888665
v -434.025000 -22.850000 -12.729767
v -434.025000 -22.850000 -12.570870
v -434.025000 -22.850000 -12.411973
v -433.937500 -22.850000 -12.411973
v -434.025000 -22.762500 -14.477638
v -434.025000 -22.762500 -14.318741
v -433.937500 -22.762500 -14.477638
v -434.025000 -22.762500 -14.159844
v -434.025000 -22.762500 -14.000946
v -434.025000 -22.762500 -13.842049
v -434.025000 -22.762500 -13.683152
v -434.025000 -22.762500 -13.524254
v -434.025000 -22.762500 -13.365357
v -434.025000 -22.762500 -13.206459
v -434.025000 -22.762500 -13.047562
v -434.025000 -22.762500 -12.888665
v -434.025000 -22.762500 -12.729767
v -434.025000 -22.762500 -12.570870
v -434.025000 -22.762500 -12.411973
v -433.937500 -22.762500 -12.411973
v -434.025000 -22.675000 -14.477638
v -434.025000 -22.675000 -14.318741
v -433.937500 -22.675000 -14.477638
v -434.025000 -22.675000 -14.159844
v -434.025000 -22.675000 -14.000946
v -434.025000 -22.675000 -13.842049
v -434.025000 -22.675000 -13.683152
v -434.025000 -22.675000 -13.524254
v -434.025000 -22.675000 -13.365357
v -434.025000 -22.675000 -13.206459
v -434.025000 -22.675000 -13.047562
v -434.025000 -22.675000 -12.888665
v -434.025000 -22.675000 -12.729767
v -434.025000 -22.675000 -12.570870
v -434.025000 -22.675000 -12.411973
v -433.937500 -22.675000 -12.411973
v -434.025000 -22.587500 -14.477638
v -434.025000 -22.587500 -14.318741
v -433.937500 -22.587500 -14.477638
v -434.025000 -22.587500 -14.159844
v -434.025000 -22.587500 -14.000946
v -434.025000 -22.587500 -13.842049
v -434.025000 -22.587500 -13.683152
v -434.025000 -22.587500 -13.524254
v -434.025000 -22.587500 -13.365357
v -434.025000 -22.587500 -13.206459
v -434.025000 -22.587500 -13.047562
v -434.025000 -22.587500 -12.888665
v -434.025000 -22.587500 -12.729767
v -434.025000 -22.587500 -12.570870
v -434.025000 -22.587500 -12.411973
v -433.937500 -22.587500 -12.411973
v -434.025000 -22.500000 -14.477638
v -434.025000 -22.500000 -14.318741
v -433.937500 -22.500000 -14.477638
v -434.025000 -22.500000 -14.159844
v -434.025000 -22.500000 -14.000946
v -434.025000 -22.500000 -13.842049
v -434.025000 -22.500000 -13.683152
v -434.025000 -22.500000 -13.524254
v -434.025000 -22.500000 -13.365357
v -434.025000 -22.500000 -13.206459
v -434.025000 -22.500000 -13.047562
v -434.025000 -22.500000 -12.888665
v -434.025000 -22.500000 -12.729767
v -434.025000 -22.500000 -12.570870
v -434.025000 -22.500000 -12.411973
v -433.937500 -22.500000 -12.411973
v -434.025000 -22.412500 -14.477638
v -434.025000 -22.412500 -14.318741
v -433.937500 -22.412500 -14.477638
v -434.025000 -22.412500 -14.159844
v -434.025000 -22.412500 -14.000946
v -434.025000 -22.412500 -13.842049
v -434.025000 -22.412500 -13.683152
v -434.025000 -22.412500 -13.524254
v -434.025000 -22.412500 -13.365357
v -434.025000 -22.412500 -13.206459
v -434.025000 -22.412500 -13.047562
v -434.025000 -22.412500 -12.888665
v -434.025000 -22.412500 -12.729767
v -434.025000 -22.412500 -12.570870
v -434.025000 -22.412500 -12.411973
v -433.937500 -22.412500 -12.411973
v -434.025000 -22.325000 -14.477638
v -434.025000 -22.325000 -14.318741
v -433.937500 -22.325000 -14.477638
v -434.025000 -22.325000 -14.159844
v -434.025000 -22.325000 -14.000946
v -434.025000 -22.325000 -13.842049
v -434.025000 -22.325000 -13.683152
v -434.025000 -22.325000 -13.524254
v -434.025000 -22.325000 -13.365357
v -434.025000 -22.325000 -13.206459
v -434.025000 -22.325000 -13.047562
v -434.025000 -22.325000 -12.888665
v -434.025000 -22.325000 -12.729767
v -434.025000 -22.325000 -12.570870
v -434.025000 -22.325000 -12.411973
v -433.937500 -22.325000 -12.411973
v -434.025000 -22.237500 -14.477638
v -434.025000 -22.237500 -14.318741
v -433.937500 -22.237500 -14.477638
v -434.025000 -22.237500 -14.159844
v -434.025000 -22.237500 -14.000946
v -434.025000 -22.237500 -13.842049
v -434.025000 -22.237500 -13.683152
v -434.025000 -22.237500 -13.524254
v -434.025000 -22.237500 -13.365357
v -434.025000 -22.237500 -13.206459
v -434.025000 -22.237500 -13.047562
v -434.025000 -22.237500 -12.888665
v -434.025000 -22.237500 -12.729767
v -434.025000 -22.237500 -12.570870
v -434.025000 -22.237500 -12.411973
v -433.937500 -22.237500 -12.411973
v -434.025000 -22.150000 -14.477638
v -434.025000 -22.150000 -14.318741
v -433.937500 -22.150000 -14.477638
v -434.025000 -22.150000 -14.159844
v -434.025000 -22.150000 -14.000946
v -434.025000 -22.150000 -13.842049
v -434.025000 -22.150000 -13.683152
v -434.025000 -22.150000 -13.524254
v -434.025000 -22.150000 -13.365357
v -434.025000 -22.150000 -13.206459
v -434.025000 -22.150000 -13.047562
v -434.025000 -22.150000 -12.888665
v -434.025000 -22.150000 -12.729767
v -434.025000 -22.150000 -12.570870
v -434.025000 -22.150000 -12.411973
v -433.937500 -22.150000 -12.411973
v -434.025000 -22.062500 -14.477638
v -434.025000 -22.062500 -14.318741
v -433.937500 -22.062500 -14.477638
v -434.025000 -22.062500 -14.159844
v -434.025000 -22.062500 -14.000946
v -434.025000 -22.062500 -13.842049
v -434.025000 -22.062500 -13.683152
v -434.025000 -22.062500 -13.524254
v -434.025000 -22.062500 -13.365357
v -434.025000 -22.062500 -13.206459
v -434.025000 -22.062500 -13.047562
v -434.025000 -22.062500 -12.888665
v -434.025000 -22.062500 -12.729767
v -434.025000 -22.062500 -12.570870
v -434.025000 -22.062500 -12.411973
v -433.937500 -22.062500 -12.411973
v -434.025000 -21.975000 -14.477638
v -434.025000 -21.975000 -14.318741
v -433.937500 -21.975000 -14.318741
v -433.937500 -21.975000 -14.477638
v -434.025000 -21.975000 -14.159844
v -433.937500 -21.975000 -14.159844
v -434.025000 -21.975000 -14.000946
v -433.937500 -21.975000 -14.000946
v -434.025000 -21.975000 -13.842049
v -433.937500 -21.975000 -13.842049
v -434.025000 -21.975000 -13.683152
v -433.937500 -21.975000 -13.683152
v -434.025000 -21.975000 -13.524254
v -433.937500 -21.975000 -13.524254
v -434.025000 -21.975000 -13.365357
v -433.937500 -21.975000 -13.365357
v -434.025000 -21.975000 -13.206459
v -433.937500 -21.975000 -13.206459
v -434.025000 -21.975000 -13.047562
v -433.937500 -21.975000 -13.047562
v -434.025000 -21.975000 -12.888665
v -433.937500 -21.975000 -12.888665
v -434.025000 -21.975000 -12.729767
v -433.937500 -21.975000 -12.729767
v -434.025000 -21.975000 -12.570870
v -433.937500 -21.975000 -12.570870
v -434.025000 -21.975000 -12.411973
v -433.937500 -21.975000 -12.411973
v -433.850000 -23.025000 -14.477638
v -433.850000 -23.025000 -14.318741
v -433.850000 -22.937500 -14.477638
v -433.850000 -23.025000 -14.159844
v -433.850000 -23.025000 -14.000946
v -433.850000 -23.025000 -13.842049
v -433.850000 -23.025000 -13.683152
v -433.850000 -23.025000 -13.524254
v -433.850000 -23.025000 -13.365357
v -433.850000 -23.025000 -13.206459
v -433.850000 -23.025000 -13.047562
v -433.850000 -23.025000 -12.888665
v -433.850000 -23.025000 -12.729767
v -433.850000 -23.025000 -12.570870
v -433.850000 -23.025000 -12.411973
v -433.937500 -22.937500 -12.253075
v -433.937500 -23.025000 -12.253075
v -433.850000 -23.025000 -12.253075
v -433.850000 -22.937500 -12.253075
v -433.850000 -22.850000 -14.477638
v -433.937500 -22.850000 -12.253075
v -433.850000 -22.850000 -12.253075
v -433.850000 -22.762500 -14.477638
v -433.937500 -22.762500 -12.253075
v -433.850000 -22.762500 -12.253075
v -433.850000 -22.675000 -14.477638
v -433.937500 -22.675000 -12.253075
v -433.850000 -22.675000 -12.253075
v -433.850000 -22.587500 -14.477638
v -433.937500 -22.587500 -12.253075
v -433.850000 -22.587500 -12.253075
v -433.850000 -22.500000 -14.477638
v -433.937500 -22.500000 -12.253075
v -433.850000 -22.500000 -12.253075
v -433.850000 -22.412500 -14.477638
v -433.937500 -22.412500 -12.253075
v -433.850000 -22.412500 -12.253075
v -433.850000 -22.325000 -14.477638
v -433.937500 -22.325000 -12.253075
v -433.850000 -22.325000 -12.253075
v -433.850000 -22.237500 -14.477638
v -433.937500 -22.237500 -12.253075
v -433.850000 -22.237500 -12.253075
v -433.850000 -22.150000 -14.477638
v -433.937500 -22.150000 -12.253075
v -433.850000 -22.150000 -12.253075
v -433.850000 -22.062500 -14.477638
v -433.937500 -22.062500 -12.253075
v -433.850000 -22.062500 -12.253075
v -433.850000 -21.975000 -14.318741
v -433.850000 -21.975000 -14.477638
v -433.850000 -21.975000 -14.159844
v -433.850000 -21.975000 -14.000946
v -433.850000 -21.975000 -13.842049
v -433.850000 -21.975000 -13.683152
v -433.850000 -21.975000 -13.524254
v -433.850000 -21.975000 -13.365357
v -433.850000 -21.975000 -13.206459
v -433.850000 -21.975000 -13.047562
v -433.850000 -21.975000 -12.888665
v -433.850000 -21.975000 -12.729767
v -433.850000 -21.975000 -12.570870
v -433.850000 -21.975000 -12.411973
v -433.937500 -21.975000 -12.253075
v -433.850000 -21.975000 -12.253075
v -433.762500 -23.025000 -14.477638
v -433.762500 -23.025000 -14.318741
v -433.762500 -22.937500 -14.477638
v -433.762500 -23.025000 -14.159844
v -433.762500 -23.025000 -14.000946
v -433.762500 -23.025000 -13.842049
v -433.762500 -23.025000 -13.683152
v -433.762500 -23.025000 -13.524254
v -433.762500 -23.025000 -13.365357
v -433.762500 -23.025000 -13.206459
v -433.762500 -23.025000 -13.047562
v -433.762500 -23.025000 -12.888665
v -433.762500 -23.025000 -12.729767
v -433.762500 -23.025000 -12.570870
v -433.762500 -23.025000 -12.411973
v -433.762500 -23.025000 -12.253075
v -433.762500 -22.937500 -12.253075
v -433.762500 -22.850000 -14.477638
v -433.762500 -22.850000 -12.253075
v -433.762500 -22.762500 -14.477638
v -433.762500 -22.762500 -12.253075
v -433.762500 -22.675000 -14.477638
v -433.762500 -22.675000 -12.253075
v -433.762500 -22.587500 -14.477638
v -433.762500 -22.587500 -12.253075
v -433.762500 -22.500000 -14.477638
v -433.762500 -22.500000 -12.253075
v -433.762500 -22.412500 -14.477638
v -433.762500 -22.412500 -12.253075
v -433.762500 -22.325000 -14.477638
v -433.762500 -22.325000 -12.253075
v -433.762500 -22.237500 -14.477638
v -433.762500 -22.237500 -12.253075
v -433.762500 -22.150000 -14.477638
v -433.762500 -22.150000 -12.253075
v -433.762500 -22.062500 -14.477638
v -433.762500 -22.062500 -12.253075
v -433.762500 -21.975000 -14.318741
v -433.762500 -21.975000 -14.477638
v -433.762500 -21.975000 -14.159844
v -433.762500 -21.975000 -14.000946
v -433.762500 -21.975000 -13.842049
v -433.762500 -21.975000 -13.683152
v -433.762500 -21.975000 -13.524254
v -433.762500 -21.975000 -13.365357
v -433.762500 -21.975000 -13.206459
v -433.762500 -21.975000 -13.047562
v -433.762500 -21.975000 -12.888665
v -433.762500 -21.975000 -12.729767
v -433.762500 -21.975000 -12.570870
v -433.762500 -21.975000 -12.411973
v -433.762500 -21.975000 -12.253075
v -433.675000 -23.025000 -14.477638
v -433.675000 -23.025000 -14.318741
v -433.675000 -22.937500 -14.477638
v -433.675000 -23.025000 -14.159844
v -433.675000 -23.025000 -14.000946
v -433.675000 -23.025000 -13.842049
v -433.675000 -23.025000 -13.683152
v -433.675000 -23.025000 -13.524254
v -433.675000 -23.025000 -13.365357
v -433.675000 -23.025000 -13.206459
v -433.675000 -23.025000 -13.047562
v -433.675000 -23.025000 -12.888665
v -433.675000 -23.025000 -12.729767
v -433.675000 -23.025000 -12.570870
v -433.675000 -23.025000 -12.411973
v -433.675000 -23.025000 -12.253075
v -433.675000 -22.937500 -12.253075
v -433.675000 -22.850000 -14.477638
v -433.675000 -22.850000 -12.253075
v -433.675000 -22.762500 -14.477638
v -433.675000 -22.762500 -12.253075
v -433.675000 -22.675000 -14.477638
v -433.675000 -22.675000 -12.253075
v -433.675000 -22.587500 -14.477638
v -433.675000 -22.587500 -12.253075
v -433.675000 -22.500000 -14.477638
v -433.675000 -22.500000 -12.253075
v -433.675000 -22.412500 -14.477638
v -433.675000 -22.412500 -12.253075
v -433.675000 -22.325000 -14.477638
v -433.675000 -22.325000 -12.253075
v -433.675000 -22.237500 -14.477638
v -433.675000 -22.237500 -12.253075
v -433.675000 -22.150000 -14.477638
v -433.675000 -22.150000 -12.253075
v -433.675000 -22.062500 -14.477638
v -433.675000 -22.062500 -12.253075
v -433.675000 -21.975000 -14.318741
v -433.675000 -21.975000 -14.477638
v -433.675000 -21.975000 -14.159844
v -433.675000 -21.975000 -14.000946
v -433.675000 -21.975000 -13.842049
v -433.675000 -21.975000 -13.683152
v -433.675000 -21.975000 -13.524254
v -433.675000 -21.975000 -13.365357
v -433.675000 -21.975000 -13.206459
v -433.675000 -21.975000 -13.047562
v -433.675000 -21.975000 -12.888665
v -433.675000 -21.975000 -12.729767
v -433.675000 -21.975000 -12.570870
v -433.675000 -21.975000 -12.411973
v -433.675000 -21.975000 -12.253075
v -433.587500 -23.025000 -14.477638
v -433.587500 -23.025000 -14.318741
v -433.587500 -22.937500 -14.477638
v -433.587500 -23.025000 -14.159844
v -433.587500 -23.025000 -14.000946
v -433.587500 -23.025000 -13.842049
v -433.587500 -23.025000 -13.683152
v -433.587500 -23.025000 -13.524254
v -433.587500 -23.025000 -13.365357
v -433.587500 -23.025000 -13.206459
v -433.587500 -23.025000 -13.047562
v -433.587500 -23.025000 -12.888665
v -433.587500 -23.025000 -12.729767
v -433.587500 -23.025000 -12.570870
v -433.587500 -23.025000 -12.411973
v -433.587500 -23.025000 -12.253075
v -433.587500 -22.937500 -12.253075
v -433.587500 -22.850000 -14.477638
v -433.587500 -22.850000 -12.253075
v -433.587500 -22.762500 -14.477638
v -433.587500 -22.762500 -12.253075
v -433.587500 -22.675000 -14.477638
v -433.587500 -22.675000 -12.253075
v -433.587500 -22.587500 -14.477638
v -433.587500 -22.587500 -12.253075
v -433.587500 -22.500000 -14.477638
v -433.587500 -22.500000 -12.253075
v -433.587500 -22.412500 -14.477638
v -433.587500 -22.412500 -12.253075
v -433.587500 -22.325000 -14.477638
v -433.587500 -22.325000 -12.253075
v -433.587500 -22.237500 -14.477638
v -433.587500 -22.237500 -12.253075
v -433.587500 -22.150000 -14.477638
v -433.587500 -22.150000 -12.253075
v -433.587500 -22.062500 -14.477638
v -433.587500 -22.062500 -12.253075
v -433.587500 -21.975000 -14.318741
v -433.587500 -21.975000 -14.477638
v -433.587500 -21.975000 -14.159844
v -433.587500 -21.975000 -14.000946
v -433.587500 -21.975000 -13.842049
v -433.587500 -21.975000 -13.683152
v -433.587500 -21.975000 -13.524254
v -433.587500 -21.975000 -13.365357
v -433.587500 -21.975000 -13.206459
v -433.587500 -21.975000 -13.047562
v -433.587500 -21.975000 -12.888665
v -433.587500 -21.975000 -12.729767
v -433.587500 -21.975000 -12.570870
v -433.587500 -21.975000 -12.411973
v -433.587500 -21.975000 -12.253075
v -433.500000 -23.025000 -14.477638
v -433.500000 -23.025000 -14.318741
v -433.500000 -22.937500 -14.477638
v -433.500000 -23.025000 -14.159844
v -433.500000 -23.025000 -14.000946
v -433.500000 -23.025000 -13.842049
v -433.500000 -23.025000 -13.683152
v -433.500000 -23.025000 -13.524254
v -433.500000 -23.025000 -13.365357
v -433.500000 -23.025000 -13.206459
v -433.500000 -23.025000 -13.047562
v -433.500000 -23.025000 -12.888665
v -433.500000 -23.025000 -12.729767
v -433.500000 -23.025000 -12.570870
v -433.500000 -23.025000 -12.411973
v -433.500000 -23.025000 -12.253075
v -433.500000 -22.937500 -12.253075
v -433.500000 -22.850000 -14.477638
v -433.500000 -22.850000 -12.253075
v -433.500000 -22.762500 -14.477638
v -433.500000 -22.762500 -12.253075
v -433.500000 -22.675000 -14.477638
v -433.500000 -22.675000 -12.253075
v -433.500000 -22.587500 -14.477638
v -433.500000 -22.587500 -12.253075
v -433.500000 -22.500000 -14.477638
v -433.500000 -22.500000 -12.253075
v -433.500000 -22.412500 -14.477638
v -433.500000 -22.412500 -12.253075
v -433.500000 -22.325000 -14.477638
v -433.500000 -22.325000 -12.253075
v -433.500000 -22.237500 -14.477638
v -433.500000 -22.237500 -12.253075
v -433.500000 -22.150000 -14.477638
v -433.500000 -22.150000 -12.253075
v -433.500000 -22.062500 -14.477638
v -433.500000 -22.062500 -12.253075
v -433.500000 -21.975000 -14.318741
v -433.500000 -21.975000 -14.477638
v -433.500000 -21.975000 -14.159844
v -433.500000 -21.975000 -14.000946
v -433.500000 -21.975000 -13.842049
v -433.500000 -21.975000 -13.683152
v -433.500000 -21.975000 -13.524254
v -433.500000 -21.975000 -13.365357
v -433.500000 -21.975000 -13.206459
v -433.500000 -21.975000 -13.047562
v -433.500000 -21.975000 -12.888665
v -433.500000 -21.975000 -12.729767
v -433.500000 -21.975000 -12.570870
v -433.500000 -21.975000 -12.411973
v -433.500000 -21.975000 -12.253075
v -433.412500 -23.025000 -14.477638
v -433.412500 -23.025000 -14.318741
v -433.412500 -22.937500 -14.477638
v -433.412500 -23.025000 -14.159844
v -433.412500 -23.025000 -14.000946
v -433.412500 -23.025000 -13.842049
v -433.412500 -23.025000 -13.683152
v -433.412500 -23.025000 -13.524254
v -433.412500 -23.025000 -13.365357
v -433.412500 -23.025000 -13.206459
v -433.412500 -23.025000 -13.047562
v -433.412500 -23.025000 -12.888665
v -433.412500 -23.025000 -12.729767
v -433.412500 -23.025000 -12.570870
v -433.412500 -23.025000 -12.411973
v -433.412500 -23.025000 -12.253075
v -433.412500 -22.937500 -12.253075
v -433.412500 -22.850000 -14.477638
v -433.412500 -22.850000 -12.253075
v -433.412500 -22.762500 -14.477638
v -433.412500 -22.762500 -12.253075
v -433.412500 -22.675000 -14.477638
v -433.412500 -22.675000 -12.253075
v -433.412500 -22.587500 -14.477638
v -433.412500 -22.587500 -12.253075
v -433.412500 -22.500000 -14.477638
v -433.412500 -22.500000 -12.253075
v -433.412500 -22.412500 -14.477638
v -433.412500 -22.412500 -12.253075
v -433.412500 -22.325000 -14.477638
v -433.412500 -22.325000 -12.253075
v -433.412500 -22.237500 -14.477638
v -433.412500 -22.237500 -12.253075
v -433.412500 -22.150000 -14.477638
v -433.412500 -22.150000 -12.253075
v -433.412500 -22.062500 -14.477638
v -433.412500 -22.062500 -12.253075
v -433.412500 -21.975000 -14.318741
v -433.412500 -21.975000 -14.477638
v -433.412500 -21.975000 -14.159844
v -433.412500 -21.975000 -14.000946
v -433.412500 -21.975000 -13.842049
v -433.412500 -21.975000 -13.683152
v -433.412500 -21.975000 -13.524254
v -433.412500 -21.975000 -13.365357
v -433.412500 -21.975000 -13.206459
v -433.412500 -21.975000 -13.047562
v -433.412500 -21.975000 -12.888665
v -433.412500 -21.975000 -12.729767
v -433.412500 -21.975000 -12.570870
v -433.412500 -21.975000 -12.411973
v -433.412500 -21.975000 -12.253075
v -433.325000 -23.025000 -14.477638
v -433.325000 -23.025000 -14.318741
v -433.325000 -22.937500 -14.477638
v -433.325000 -23.025000 -14.159844
v -433.325000 -23.025000 -14.000946
v -433.325000 -23.025000 -13.842049
v -433.325000 -23.025000 -13.683152
v -433.325000 -23.025000 -13.524254
v -433.325000 -23.025000 -13.365357
v -433.325000 -23.025000 -13.206459
v -433.325000 -23.025000 -13.047562
v -433.325000 -23.025000 -12.888665
v -433.325000 -23.025000 -12.729767
v -433.325000 -23.025000 -12.570870
v -433.325000 -23.025000 -12.411973
v -433.325000 -23.025000 -12.253075
v -433.325000 -22.937500 -12.253075
v -433.325000 -22.850000 -14.477638
v -433.325000 -22.850000 -12.253075
v -433.325000 -22.762500 -14.477638
v -433.325000 -22.762500 -12.253075
v -433.325000 -22.675000 -14.477638
v -433.325000 -22.675000 -12.253075
v -433.325000 -22.587500 -14.477638
v -433.325000 -22.587500 -12.253075
v -433.325000 -22.500000 -14.477638
v -433.325000 -22.500000 -12.253075
v -433.325000 -22.412500 -14.477638
v -433.325000 -22.412500 -12.253075
v -433.325000 -22.325000 -14.477638
v -433.325000 -22.325000 -12.253075
v -433.325000 -22.237500 -14.477638
v -433.325000 -22.237500 -12.253075
v -433.325000 -22.150000 -14.477638
v -433.325000 -22.150000 -12.253075
v -433.325000 -22.062500 -14.477638
v -433.325000 -22.062500 -12.253075
v -433.325000 -21.975000 -14.318741
v -433.325000 -21.975000 -14.477638
v -433.325000 -21.975000 -14.159844
v -433.325000 -21.975000 -14.000946
v -433.325000 -21.975000 -13.842049
v -433.325000 -21.975000 -13.683152
v -433.325000 -21.975000 -13.524254
v -433.325000 -21.975000 -13.365357
v -433.325000 -21.975000 -13.206459
v -433.325000 -21.975000 -13.047562
v -433.325000 -21.975000 -12.888665
v -433.325000 -21.975000 -12.729767
v -433.325000 -21.975000 -12.570870
v -433.325000 -21.975000 -12.411973
v -433.325000 -21.975000 -12.253075
v -433.237500 -23.025000 -14.477638
v -433.237500 -23.025000 -14.318741
v -433.237500 -22.937500 -14.477638
v -433.237500 -23.025000 -14.159844
v -433.237500 -23.025000 -14.000946
v -433.237500 -23.025000 -13.842049
v -433.237500 -23.025000 -13.683152
v -433.237500 -23.025000 -13.524254
v -433.237500 -23.025000 -13.365357
v -433.237500 -23.025000 -13.206459
v -433.237500 -23.025000 -13.047562
v -433.237500 -23.025000 -12.888665
v -433.237500 -23.025000 -12.729767
v -433.237500 -23.025000 -12.570870
v -433.237500 -23.025000 -12.411973
v -433.237500 -23.025000 -12.253075
v -433.237500 -22.937500 -12.253075
v -433.237500 -22.850000 -14.477638
v -433.237500 -22.850000 -12.253075
v -433.237500 -22.762500 -14.477638
v -433.237500 -22.762500 -12.253075
v -433.237500 -22.675000 -14.477638
v -433.237500 -22.675000 -12.253075
v -433.237500 -22.587500 -14.477638
v -433.237500 -22.587500 -12.253075
v -433.237500 -22.500000 -14.477638
v -433.237500 -22.500000 -12.253075
v -433.237500 -22.412500 -14.477638
v -433.237500 -22.412500 -12.253075
v -433.237500 -22.325000 -14.477638
v -433.237500 -22.325000 -12.253075
v -433.237500 -22.237500 -14.477638
v -433.237500 -22.237500 -12.253075
v -433.237500 -22.150000 -14.477638
v -433.237500 -22.150000 -12.253075
v -433.237500 -22.062500 -14.477638
v -433.237500 -22.062500 -12.253075
v -433.237500 -21.975000 -14.318741
v -433.237500 -21.975000 -14.477638
v -433.237500 -21.975000 -14.159844
v -433.237500 -21.975000 -14.000946
v -433.237500 -21.975000 -13.842049
v -433.237500 -21.975000 -13.683152
v -433.237500 -21.975000 -13.524254
v -433.237500 -21.975000 -13.365357
v -433.237500 -21.975000 -13.206459
v -433.237500 -21.975000 -13.047562
v -433.237500 -21.975000 -12.888665
v -433.237500 -21.975000 -12.729767
v -433.237500 -21.975000 -12.570870
v -433.237500 -21.975000 -12.411973
v -433.237500 -21.975000 -12.253075
v -433.150000 -23.025000 -14.477638
v -433.150000 -23.025000 -14.318741
v -433.150000 -22.937500 -14.477638
v -433.150000 -23.025000 -14.159844
v -433.150000 -23.025000 -14.000946
v -433.150000 -23.025000 -13.842049
v -433.150000 -23.025000 -13.683152
v -433.150000 -23.025000 -13.524254
v -433.150000 -23.025000 -13.365357
v -433.150000 -23.025000 -13.206459
v -433.150000 -23.025000 -13.047562
v -433.150000 -23.025000 -12.888665
v -433.150000 -23.025000 -12.729767
v -433.150000 -23.025000 -12.570870
v -433.150000 -23.025000 -12.411973
v -433.150000 -23.025000 -12.253075
v -433.150000 -22.937500 -12.253075
v -433.150000 -22.850000 -14.477638
v -433.150000 -22.850000 -12.253075
v -433.150000 -22.762500 -14.477638
v -433.150000 -22.762500 -12.253075
v -433.150000 -22.675000 -14.477638
v -433.150000 -22.675000 -12.253075
v -433.150000 -22.587500 -14.477638
v -433.150000 -22.587500 -12.253075
v -433.150000 -22.500000 -14.477638
v -433.150000 -22.500000 -12.253075
v -433.150000 -22.412500 -14.477638
v -433.150000 -22.412500 -12.253075
v -433.150000 -22.325000 -14.477638
v -433.150000 -22.325000 -12.253075
v -433.150000 -22.237500 -14.477638
v -433.150000 -22.237500 -12.253075
v -433.150000 -22.150000 -14.477638
v -433.150000 -22.150000 -12.253075
v -433.150000 -22.062500 -14.477638
v -433.150000 -22.062500 -12.253075
v -433.150000 -21.975000 -14.318741
v -433.150000 -21.975000 -14.477638
v -433.150000 -21.975000 -14.159844
v -433.150000 -21.975000 -14.000946
v -433.150000 -21.975000 -13.842049
v -433.150000 -21.975000 -13.683152
v -433.150000 -21.975000 -13.524254
v -433.150000 -21.975000 -13.365357
v -433.150000 -21.975000 -13.206459
v -433.150000 -21.975000 -13.047562
v -433.150000 -21.975000 -12.888665
v -433.150000 -21.975000 -12.729767
v -433.150000 -21.975000 -12.570870
v -433.150000 -21.975000 -12.411973
v -433.150000 -21.975000 -12.253075
v -433.062500 -23.025000 -14.477638
v -433.062500 -23.025000 -14.318741
v -433.062500 -22.937500 -14.477638
v -433.062500 -23.025000 -14.159844
v -433.062500 -23.025000 -14.000946
v -433.062500 -23.025000 -13.842049
v -433.062500 -23.025000 -13.683152
v -433.062500 -23.025000 -13.524254
v -433.062500 -23.025000 -13.365357
v -433.062500 -23.025000 -13.206459
v -433.062500 -23.025000 -13.047562
v -433.062500 -23.025000 -12.888665
v -433.062500 -23.025000 -12.729767
v -433.062500 -23.025000 -12.570870
v -433.062500 -23.025000 -12.411973
v -433.062500 -23.025000 -12.253075
v -433.062500 -22.937500 -12.253075
v -433.062500 -22.850000 -14.477638
v -433.062500 -22.850000 -12.253075
v -433.062500 -22.762500 -14.477638
v -433.062500 -22.762500 -12.253075
v -433.062500 -22.675000 -14.477638
v -433.062500 -22.675000 -12.253075
v -433.062500 -22.587500 -14.477638
v -433.062500 -22.587500 -12.253075
v -433.062500 -22.500000 -14.477638
v -433.062500 -22.500000 -12.253075
v -433.062500 -22.412500 -14.477638
v -433.062500 -22.412500 -12.253075
v -433.062500 -22.325000 -14.477638
v -433.062500 -22.325000 -12.253075
v -433.062500 -22.237500 -14.477638
v -433.062500 -22.237500 -12.253075
v -433.062500 -22.150000 -14.477638
v -433.062500 -22.150000 -12.253075
v -433.062500 -22.062500 -14.477638
v -433.062500 -22.062500 -12.253075
v -433.062500 -21.975000 -14.318741
v -433.062500 -21.975000 -14.477638
v -433.062500 -21.975000 -14.159844
v -433.062500 -21.975000 -14.000946
v -433.062500 -21.975000 -13.842049
v -433.062500 -21.975000 -13.683152
v -433.062500 -21.975000 -13.524254
v -433.062500 -21.975000 -13.365357
v -433.062500 -21.975000 -13.206459
v -433.062500 -21.975000 -13.047562
v -433.062500 -21.975000 -12.888665
v -433.062500 -21.975000 -12.729767
v -433.062500 -21.975000 -12.570870
v -433.062500 -21.975000 -12.411973
v -433.062500 -21.975000 -12.253075
v -432.975000 -23.025000 -14.477638
v -432.975000 -23.025000 -14.318741
v -432.975000 -22.937500 -14.318741
v -432.975000 -22.937500 -14.477638
v -432.975000 -23.025000 -14.159844
v -432.975000 -22.937500 -14.159844
v -432.975000 -23.025000 -14.000946
v -432.975000 -22.937500 -14.000946
v -432.975000 -23.025000 -13.842049
v -432.975000 -22.937500 -13.842049
v -432.975000 -23.025000 -13.683152
v -432.975000 -22.937500 -13.683152
v -432.975000 -23.025000 -13.524254
v -432.975000 -22.937500 -13.524254
v -432.975000 -23.025000 -13.365357
v -432.975000 -22.937500 -13.365357
v -432.975000 -23.025000 -13.206459
v -432.975000 -22.937500 -13.206459
v -432.975000 -23.025000 -13.047562
v -432.975000 -22.937500 -13.047562
v -432.975000 -23.025000 -12.888665
v -432.975000 -22.937500 -12.888665
v -432.975000 -23.025000 -12.729767
v -432.975000 -22.937500 -12.729767
v -432.975000 -23.025000 -12.570870
v -432.975000 -22.937500 -12.570870
v -432.975000 -23.025000 -12.411973
v -432.975000 -22.937500 -12.411973
v -432.975000 -23.025000 -12.253075
v -432.975000 -22.937500 -12.253075
v -432.975000 -22.850000 -14.318741
v -432.975000 -22.850000 -14.477638
v -432.975000 -22.850000 -14.159844
v -432.975000 -22.850000 -14.000946
v -432.975000 -22.850000 -13.842049
v -432.975000 -22.850000 -13.683152
v -432.975000 -22.850000 -13.524254
v -432.975000 -22.850000 -13.365357
v -432.975000 -22.850000 -13.206459
v -432.975000 -22.850000 -13.047562
v -432.975000 -22.850000 -12.888665
v -432.975000 -22.850000 -12.729767
v -432.975000 -22.850000 -12.570870
v -432.975000 -22.850000 -12.411973
v -432.975000 -22.850000 -12.253075
v -432.975000 -22.762500 -14.318741
v -432.975000 -22.762500 -14.477638
v -432.975000 -22.762500 -14.159844
v -432.975000 -22.762500 -14.000946
v -432.975000 -22.762500 -13.842049
v -432.975000 -22.762500 -13.683152
v -432.975000 -22.762500 -13.524254
v -432.975000 -22.762500 -13.365357
v -432.975000 -22.762500 -13.206459
v -432.975000 -22.762500 -13.047562
v -432.975000 -22.762500 -12.888665
v -432.975000 -22.762500 -12.729767
v -432.975000 -22.762500 -12.570870
v -432.975000 -22.762500 -12.411973
v -432.975000 -22.762500 -12.253075
v -432.975000 -22.675000 -14.318741
v -432.975000 -22.675000 -14.477638
v -432.975000 -22.675000 -14.159844
v -432.975000 -22.675000 -14.000946
v -432.975000 -22.675000 -13.842049
v -432.975000 -22.675000 -13.683152
v -432.975000 -22.675000 -13.524254
v -432.975000 -22.675000 -13.365357
v -432.975000 -22.675000 -13.206459
v -432.975000 -22.675000 -13.047562
v -432.975000 -22.675000 -12.888665
v -432.975000 -22.675000 -12.729767
v -432.975000 -22.675000 -12.570870
v -432.975000 -22.675000 -12.411973
v -432.975000 -22.675000 -12.253075
v -432.975000 -22.587500 -14.318741
v -432.975000 -22.587500 -14.477638
v -432.975000 -22.587500 -14.159844
v -432.975000 -22.587500 -14.000946
v -432.975000 -22.587500 -13.842049
v -432.975000 -22.587500 -13.683152
v -432.975000 -22.587500 -13.524254
v -432.975000 -22.587500 -13.365357
v -432.975000 -22.587500 -13.206459
v -432.975000 -22.587500 -13.047562
v -432.975000 -22.587500 -12.888665
v -432.975000 -22.587500 -12.729767
v -432.975000 -22.587500 -12.570870
v -432.975000 -22.587500 -12.411973
v -432.975000 -22.587500 -12.253075
v -432.975000 -22.500000 -14.318741
v -432.975000 -22.500000 -14.477638
v -432.975000 -22.500000 -14.159844
v -432.975000 -22.500000 -14.000946
v -432.975000 -22.500000 -13.842049
v -432.975000 -22.500000 -13.683152
v -432.975000 -22.500000 -13.524254
v -432.975000 -22.500000 -13.365357
v -432.975000 -22.500000 -13.206459
v -432.975000 -22.500000 -13.047562
v -432.975000 -22.500000 -12.888665
v -432.975000 -22.500000 -12.729767
v -432.975000 -22.500000 -12.570870
v -432.975000 -22.500000 -12.411973
v -432.975000 -22.500000 -12.253075
v -432.975000 -22.412500 -14.318741
v -432.975000 -22.412500 -14.477638
v -432.975000 -22.412500 -14.159844
v -432.975000 -22.412500 -14.000946
v -432.975000 -22.412500 -13.842049
v -432.975000 -22.412500 -13.683152
v -432.975000 -22.412500 -13.524254
v -432.975000 -22.412500 -13.365357
v -432.975000 -22.412500 -13.206459
v -432.975000 -22.412500 -13.047562
v -432.975000 -22.412500 -12.888665
v -432.975000 -22.412500 -12.729767
v -432.975000 -22.412500 -12.570870
v -432.975000 -22.412500 -12.411973
v -432.975000 -22.412500 -12.253075
v -432.975000 -22.325000 -14.318741
v -432.975000 -22.325000 -14.477638
v -432.975000 -22.325000 -14.159844
v -432.975000 -22.325000 -14.000946
v -432.975000 -22.325000 -13.842049
v -432.975000 -22.325000 -13.683152
v -432.975000 -22.325000 -13.524254
v -432.975000 -22.325000 -13.365357
v -432.975000 -22.325000 -13.206459
v -432.975000 -22.325000 -13.047562
v -432.975000 -22.325000 -12.888665
v -432.975000 -22.325000 -12.729767
v -432.975000 -22.325000 -12.570870
v -432.975000 -22.325000 -12.411973
v -432.975000 -22.325000 -12.253075
v -432.975000 -22.237500 -14.318741
v -432.975000 -22.237500 -14.477638
v -432.975000 -22.237500 -14.159844
v -432.975000 -22.237500 -14.000946
v -432.975000 -22.237500 -13.842049
v -432.975000 -22.237500 -13.683152
v -432.975000 -22.237500 -13.524254
v -432.975000 -22.237500 -13.365357
v -432.975000 -22.237500 -13.206459
v -432.975000 -22.237500 -13.047562
v -432.975000 -22.237500 -12.888665
v -432.975000 -22.237500 -12.729767
v -432.975000 -22.237500 -12.570870
v -432.975000 -22.237500 -12.411973
v -432.975000 -22.237500 -12.253075
v -432.975000 -22.150000 -14.318741
v -432.975000 -22.150000 -14.477638
v -432.975000 -22.150000 -14.159844
v -432.975000 -22.150000 -14.000946
v -432.975000 -22.150000 -13.842049
v -432.975000 -22.150000 -13.683152
v -432.975000 -22.150000 -13.524254
v -432.975000 -22.150000 -13.365357
v -432.975000 -22.150000 -13.206459
v -432.975000 -22.150000 -13.047562
v -432.975000 -22.150000 -12.888665
v -432.975000 -22.150000 -12.729767
v -432.975000 -22.150000 -12.570870
v -432.975000 -22.150000 -12.411973
v -432.975000 -22.150000 -12.253075
v -432.975000 -22.062500 -14.318741
v -432.975000 -22.062500 -14.477638
v -432.975000 -22.062500 -14.159844
v -432.975000 -22.062500 -14.000946
v -432.975000 -22.062500 -13.842049
v -432.975000 -22.062500 -13.683152
v -432.975000 -22.062500 -13.524254
v -432.975000 -22.062500 -13.365357
v -432.975000 -22.062500 -13.206459
v -432.975000 -22.062500 -13.047562
v -432.975000 -22.062500 -12.888665
v -432.975000 -22.062500 -12.729767
v -432.975000 -22.062500 -12.570870
v -432.975000 -22.062500 -12.411973
v -432.975000 -22.062500 -12.253075
v -432.975000 -21.975000 -14.318741
v -432.975000 -21.975000 -14.477638
v -432.975000 -21.975000 -14.159844
v -432.975000 -21.975000 -14.000946
v -432.975000 -21.975000 -13.842049
v -432.975000 -21.975000 -13.683152
v -432.975000 -21.975000 -13.524254
v -432.975000 -21.975000 -13.365357
v -432.975000 -21.975000 -13.206459
v -432.975000 -21.975000 -13.047562
v -432.975000 -21.975000 -12.888665
v -432.975000 -21.975000 -12.729767
v -432.975000 -21.975000 -12.570870
v -432.975000 -21.975000 -12.411973
v -432.975000 -21.975000 -12.253075
f 1 2 3
f 1 3 4
f 1 5 6
f 1 6 4
f 1 2 7
f 1 7 5
f 4 3 8
f 4 8 9
f 4 6 10
f 4 10 9
f 9 8 11
f 9 11 12
f 9 10 13
f 9 13 12
f 12 11 14
f 12 14 15
f 12 13 16
f 12 16 15
f 15 14 17
f 15 17 18
f 15 16 19
f 15 19 18
f 18 17 20
f 18 20 21
f 18 19 22
f 18 22 21
f 21 20 23
f 21 23 24
f 21 22 25
f 21 25 24
f 24 23 26
f 24 26 27
f 24 25 28
f 24 28 27
f 27 26 29
f 27 29 30
f 27 28 31
f 27 31 30
f 30 29 32
f 30 32 33
f 30 31 34
f 30 34 33
f 33 32 35
f 33 35 36
f 33 34 37
f 33 37 36
f 36 35 38
f 36 38 39
f 36 37 40
f 36 40 39
f 39 38 41
f 39 41 42
f 39 40 43
f 39 43 42
f 42 43 44
f 42 44 41
f 2 45 46
f 2 46 3
f 2 45 47
f 2 47 7
f 3 46 48
f 3 48 8
f 8 48 49
f 8 49 11
f 11 49 50
f 11 50 14
f 14 50 51
f 14 51 17
f 17 51 52
f 17 52 20
f 20 52 53
f 20 53 23
f 23 53 54
f 23 54 26
f 26 54 55
f 26 55 29
f 29 55 56
f 29 56 32
f 32 56 57
f 32 57 35
f 35 57 58
f 35 58 38
f 38 58 59
f 38 59 41
f 41 44 60
f 41 60 59
f 45 61 62
f 45 62 46
f 45 61 63
f 45 63 47
f 46 62 64
f 46 64 48
f 48 64 65
f 48 65 49
f 49 65 66
f 49 66 50
f 50 66 67
f 50 67 51
f 51 67 68
f 51 68 52
f 52 68 69
f 52 69 53
f 53 69 70
f 53 70 54
f 54 70 71
f 54 71 55
f 55 71 72
f 55 72 56
f 56 72 73
f 56 73 57
f 57 73 74
f 57 74 58
f 58 74 75
f 58 75 59
f 59 60 76
f 59 76 75
f 61 77 78
f 61 78 62
f 61 77 79
f 61 79 63
f 62 78 80
f 62 80 64
f 64 80 81
f 64 81 65
f 65 81 82
f 65 82 66
f 66 82 83
f 66 83 67
f 67 83 84
f 67 84 68
f 68 84 85
f 68 85 69
f 69 85 86
f 69 86 70
f 70 86 87
f 70 87 71
f 71 87 88
f 71 88 72
f 72 88 89
f 72 89 73
f 73 89 90
f 73 90 74
f 74 90 91
f 74 91 75
f 75 76 92
f 75 92 91
f 77 93 94
f 77 94 78
f 77 93 95
f 77 95 79
f 78 94 96
f 78 96 80
f 80 96 97
f 80 97 81
f 81 97 98
f 81 98 82
f 82 98 99
f 82 99 83
f 83 99 100
f 83 100 84
f 84 100 101
f 84 101 85
f 85 101 102
f 85 102 86
f 86 102 103
f 86 103 87
f 87 103 104
f 87 104 88
f 88 104 105
f 88 105 89
f 89 105 106
f 89 106 90
f 90 106 107
f 90 107 91
f 91 92 108
f 91 108 107
f 93 109 110
f 93 110 94
f 93 109 111
f 93 111 95
f 94 110 112
f 94 112 96
f 96 112 113
f 96 113 97
f 97 113 114
f 97 114 98
f 98 114 115
f 98 115 99
f 99 115 116
f 99 116 100
f 100 116 117
f 100 117 101
f 101 117 118
f 101 118 102
f 102 118 119
f 102 119 103
f 103 119 120
f 103 120 104
f 104 120 121
f 104 121 105
f 105 121 122
f 105 122 106
f 106 122 123
f 106 123 107
f 107 108 124
f 107 124 123
f 109 125 126
f 109 126 110
f 109 125 127
f 109 127 111
f 110 126 128
f 110 128 112
f 112 128 129
f 112 129 113
f 113 129 130
f 113 130 114
f 114 130 131
f 114 131 115
f 115 131 132
f 115 132 116
f 116 132 133
f 116 133 117
f 117 133 134
f 117 134 118
f 118 134 135
f 118 135 119
f 119 135 136
f 119 136 120
f 120 136 137
f 120 137 121
f 121 137 138
f 121 138 122
f 122 138 139
f 122 139 123
f 123 124 140
f 123 140 139
f 125 141 142
f 125 142 126
f 125 141 143
f 125 143 127
f 126 142 144
f 126 144 128
f 128 144 145
f 128 145 129
f 129 145 146
f 129 146 130
f 130 146 147
f 130 147 131
f 131 147 148
f 131 148 132
f 132 148 149
f 132 149 133
f 133 149 150
f 133 150 134
f 134 150 151
f 134 151 135
f 135 151 152
f 135 152 136
f 136 152 153
f 136 153 137
f 137 153 154
f 137 154 138
f 138 154 155
f 138 155 139
f 139 140 156
f 139 156 155
f 141 157 158
f 141 158 142
f 141 157 159
f 141 159 143
f 142 158 160
f 142 160 144
f 144 160 161
f 144 161 145
f 145 161 162
f 145 162 146
f 146 162 163
f 146 163 147
f 147 163 164
f 147 164 148
f 148 164 165
f 148 165 149
f 149 165 166
f 149 166 150
f 150 166 167
f 150 167 151
f 151 167 168
f 151 168 152
f 152 168 169
f 152 169 153
f 153 169 170
f 153 170 154
f 154 170 171
f 154 171 155
f 155 156 172
f 155 172 171
f 157 173 174
f 157 174 158
f 157 173 175
f 157 175 159
f 158 174 176
f 158 176 160
f 160 176 177
f 160 177 161
f 161 177 178
f 161 178 162
f 162 178 179
f 162 179 163
f 163 179 180
f 163 180 164
f 164 180 181
f 164 181 165
f 165 181 182
f 165 182 166
f 166 182 183
f 166 183 167
f 167 183 184
f 167 184 168
f 168 184 185
f 168 185 169
f 169 185 186
f 169 186 170
f 170 186 187
f 170 187 171
f 171 172 188
f 171 188 187
f 173 189 190
f 173 190 174
f 173 189 191
f 173 191 175
f 174 190 192
f 174 192 176
f 176 192 193
f 176 193 177
f 177 193 194
f 177 194 178
f 178 194 195
f 178 195 179
f 179 195 196
f 179 196 180
f 180 196 197
f 180 197 181
f 181 197 198
f 181 198 182
f 182 198 199
f 182 199 183
f 183 199 200
f 183 200 184
f 184 200 201
f 184 201 185
f 185 201 202
f 185 202 186
f 186 202 203
f 186 203 187
f 187 188 204
f 187 204 203
f 189 205 206
f 189 206 190
f 205 206 207
f 205 207 208
f 189 205 208
f 189 208 191
f 190 206 209
f 190 209 192
f 206 209 210
f 206 210 207
f 192 209 211
f 192 211 193
f 209 211 212
f 209 212 210
f 193 211 213
f 193 213 194
f 211 213 214
f 211 214 212
f 194 213 215
f 194 215 195
f 213 215 216
f 213 216 214
f 195 215 217
f 195 217 196
f 215 217 218
f 215 218 216
f 196 217 219
f 196 219 197
f 217 219 220
f 217 220 218
f 197 219 221
f 197 221 198
f 219 221 222
f 219 222 220
f 198 221 223
f 198 223 199
f 221 223 224
f 221 224 222
f 199 223 225
f 199 225 200
f 223 225 226
f 223 226 224
f 200 225 227
f 200 227 201
f 225 227 228
f 225 228 226
f 201 227 229
f 201 229 202
f 227 229 230
f 227 230 228
f 202 229 231
f 202 231 203
f 229 231 232
f 229 232 230
f 203 204 232
f 203 232 231
f 5 233 234
f 5 234 6
f 5 7 235
f 5 235 233
f 6 234 236
f 6 236 10
f 10 236 237
f 10 237 13
f 13 237 238
f 13 238 16
f 16 238 239
f 16 239 19
f 19 239 240
f 19 240 22
f 22 240 241
f 22 241 25
f 25 241 242
f 25 242 28
f 28 242 243
f 28 243 31
f 31 243 244
f 31 244 34
f 34 244 245
f 34 245 37
f 37 245 246
f 37 246 40
f 40 246 247
f 40 247 43
f 43 44 248
f 43 248 249
f 43 247 250
f 43 250 249
f 249 250 251
f 249 251 248
f 7 47 252
f 7 252 235
f 44 60 253
f 44 253 248
f 248 251 254
f 248 254 253
f 47 63 255
f 47 255 252
f 60 76 256
f 60 256 253
f 253 254 257
f 253 257 256
f 63 79 258
f 63 258 255
f 76 92 259
f 76 259 256
f 256 257 260
f 256 260 259
f 79 95 261
f 79 261 258
f 92 108 262
f 92 262 259
f 259 260 263
f 259 263 262
f 95 111 264
f 95 264 261
f 108 124 265
f 108 265 262
f 262 263 266
f 262 266 265
f 111 127 267
f 111 267 264
f 124 140 268
f 124 268 265
f 265 266 269
f 265 269 268
f 127 143 270
f 127 270 267
f 140 156 271
f 140 271 268
f 268 269 272
f 268 272 271
f 143 159 273
f 143 273 270
f 156 172 274
f 156 274 271
f 271 272 275
f 271 275 274
f 159 175 276
f 159 276 273
f 172 188 277
f 172 277 274
f 274 275 278
f 274 278 277
f 175 191 279
f 175 279 276
f 188 204 280
f 188 280 277
f 277 278 281
f 277 281 280
f 208 207 282
f 208 282 283
f 191 208 283
f 191 283 279
f 207 210 284
f 207 284 282
f 210 212 285
f 210 285 284
f 212 214 286
f 212 286 285
f 214 216 287
f 214 287 286
f 216 218 288
f 216 288 287
f 218 220 289
f 218 289 288
f 220 222 290
f 220 290 289
f 222 224 291
f 222 291 290
f 224 226 292
f 224 292 291
f 226 228 293
f 226 293 292
f 228 230 294
f 228 294 293
f 230 232 295
f 230 295 294
f 204 232 296
f 204 296 280
f 232 296 297
f 232 297 295
f 280 281 297
f 280 297 296
f 233 298 299
f 233 299 234
f 233 235 300
f 233 300 298
f 234 299 301
f 234 301 236
f 236 301 302
f 236 302 237
f 237 302 303
f 237 303 238
f 238 303 304
f 238 304 239
f 239 304 305
f 239 305 240
f 240 305 306
f 240 306 241
f 241 306 307
f 241 307 242
f 242 307 308
f 242 308 243
f 243 308 309
f 243 309 244
f 244 309 310
f 244 310 245
f 245 310 311
f 245 311 246
f 246 311 312
f 246 312 247
f 247 312 313
f 247 313 250
f 250 313 314
f 250 314 251
f 235 252 315
f 235 315 300
f 251 314 316
f 251 316 254
f 252 255 317
f 252 317 315
f 254 316 318
f 254 318 257
f 255 258 319
f 255 319 317
f 257 318 320
f 257 320 260
f 258 261 321
f 258 321 319
f 260 320 322
f 260 322 263
f 261 264 323
f 261 323 321
f 263 322 324
f 263 324 266
f 264 267 325
f 264 325 323
f 266 324 326
f 266 326 269
f 267 270 327
f 267 327 325
f 269 326 328
f 269 328 272
f 270 273 329
f 270 329 327
f 272 328 330
f 272 330 275
f 273 276 331
f 273 331 329
f 275 330 332
f 275 332 278
f 276 279 333
f 276 333 331
f 278 332 334
f 278 334 281
f 283 282 335
f 283 335 336
f 279 283 336
f 279 336 333
f 282 284 337
f 282 337 335
f 284 285 338
f 284 338 337
f 285 286 339
f 285 339 338
f 286 287 340
f 286 340 339
f 287 288 341
f 287 341 340
f 288 289 342
f 288 342 341
f 289 290 343
f 289 343 342
f 290 291 344
f 290 344 343
f 291 292 345
f 291 345 344
f 292 293 346
f 292 346 345
f 293 294 347
f 293 347 346
f 294 295 348
f 294 348 347
f 295 297 349
f 295 349 348
f 281 334 349
f 281 349 297
f 298 350 351
f 298 351 299
f 298 300 352
f 298 352 350
f 299 351 353
f 299 353 301
f 301 353 354
f 301 354 302
f 302 354 355
f 302 355 303
f 303 355 356
f 303 356 304
f 304 356 357
f 304 357 305
f 305 357 358
f 305 358 306
f 306 358 359
f 306 359 307
f 307 359 360
f 307 360 308
f 308 360 361
f 308 361 309
f 309 361 362
f 309 362 310
f 310 362 363
f 310 363 311
f 311 363 364
f 311 364 312
f 312 364 365
f 312 365 313
f 313 365 366
f 313 366 314
f 300 315 367
f 300 367 352
f 314 366 368
f 314 368 316
f 315 317 369
f 315 369 367
f 316 368 370
f 316 370 318
f 317 319 371
f 317 371 369
f 318 370 372
f 318 372 320
f 319 321 373
f 319 373 371
f 320 372 374
f 320 374 322
f 321 323 375
f 321 375 373
f 322 374 376
f 322 376 324
f 323 325 377
f 323 377 375
f 324 376 378
f 324 378 326
f 325 327 379
f 325 379 377
f 326 378 380
f 326 380 328
f 327 329 381
f 327 381 379
f 328 380 382
f 328 382 330
f 329 331 383
f 329 383 381
f 330 382 384
f 330 384 332
f 331 333 385
f 331 385 383
f 332 384 386
f 332 386 334
f 336 335 387
f 336 387 388
f 333 336 388
f 333 388 385
f 335 337 389
f 335 389 387
f 337 338 390
f 337 390 389
f 338 339 391
f 338 391 390
f 339 340 392
f 339 392 391
f 340 341 393
f 340 393 392
f 341 342 394
f 341 394 393
f 342 343 395
f 342 395 394
f 343 344 396
f 343 396 395
f 344 345 397
f 344 397 396
f 345 346 398
f 345 398 397
f 346 347 399
f 346 399 398
f 347 348 400
f 347 400 399
f 348 349 401
f 348 401 400
f 334 386 401
f 334 401 349
f 350 402 403
f 350 403 351
f 350 352 404
f 350 404 402
f 351 403 405
f 351 405 353
f 353 405 406
f 353 406 354
f 354 406 407
f 354 407 355
f 355 407 408
f 355 408 356
f 356 408 409
f 356 409 357
f 357 409 410
f 357 410 358
f 358 410 411
f 358 411 359
f 359 411 412
f 359 412 360
f 360 412 413
f 360 413 361
f 361 413 414
f 361 414 362
f 362 414 415
f 362 415 363
f 363 415 416
f 363 416 364
f 364 416 417
f 364 417 365
f 365 417 418
f 365 418 366
f 352 367 419
f 352 419 404
f 366 418 420
f 366 420 368
f 367 369 421
f 367 421 419
f 368 420 422
f 368 422 370
f 369 371 423
f 369 423 421
f 370 422 424
f 370 424 372
f 371 373 425
f 371 425 423
f 372 424 426
f 372 426 374
f 373 375 427
f 373 427 425
f 374 426 428
f 374 428 376
f 375 377 429
f 375 429 427
f 376 428 430
f 376 430 378
f 377 379 431
f 377 431 429
f 378 430 432
f 378 432 380
f 379 381 433
f 379 433 431
f 380 432 434
f 380 434 382
f 381 383 435
f 381 435 433
f 382 434 436
f 382 436 384
f 383 385 437
f 383 437 435
f 384 436 438
f 384 438 386
f 388 387 439
f 388 439 440
f 385 388 440
f 385 440 437
f 387 389 441
f 387 441 439
f 389 390 442
f 389 442 441
f 390 391 443
f 390 443 442
f 391 392 444
f 391 444 443
f 392 393 445
f 392 445 444
f 393 394 446
f 393 446 445
f 394 395 447
f 394 447 446
f 395 396 448
f 395 448 447
f 396 397 449
f 396 449 448
f 397 398 450
f 397 450 449
f 398 399 451
f 398 451 450
f 399 400 452
f 399 452 451
f 400 401 453
f 400 453 452
f 386 438 453
f 386 453 401
f 402 454 455
f 402 455 403
f 402 404 456
f 402 456 454
f 403 455 457
f 403 457 405
f 405 457 458
f 405 458 406
f 406 458 459
f 406 459 407
f 407 459 460
f 407 460 408
f 408 460 461
f 408 461 409
f 409 461 462
f 409 462 410
f 410 462 463
f 410 463 411
f 411 463 464
f 411 464 412
f 412 464 465
f 412 465 413
f 413 465 466
f 413 466 414
f 414 466 467
f 414 467 415
f 415 467 468
f 415 468 416
f 416 468 469
f 416 469 417
f 417 469 470
f 417 470 418
f 404 419 471
f 404 471 456
f 418 470 472
f 418 472 420
f 419 421 473
f 419 473 471
f 420 472 474
f 420 474 422
f 421 423 475
f 421 475 473
f 422 474 476
f 422 476 424
f 423 425 477
f 423 477 475
f 424 476 478
f 424 478 426
f 425 427 479
f 425 479 477
f 426 478 480
f 426 480 428
f 427 429 481
f 427 481 479
f 428 480 482
f 428 482 430
f 429 431 483
f 429 483 481
f 430 482 484
f 430 484 432
f 431 433 485
f 431 485 483
f 432 484 486
f 432 486 434
f 433 435 487
f 433 487 485
f 434 486 488
f 434 488 436
f 435 437 489
f 435 489 487
f 436 488 490
f 436 490 438
f 440 439 491
f 440 491 492
f 437 440 492
f 437 492 489
f 439 441 493
f 439 493 491
f 441 442 494
f 441 494 493
f 442 443 495
f 442 495 494
f 443 444 496
f 443 496 495
f 444 445 497
f 444 497 496
f 445 446 498
f 445 498 497
f 446 447 499
f 446 499 498
f 447 448 500
f 447 500 499
f 448 449 501
f 448 501 500
f 449 450 502
f 449 502 501
f 450 451 503
f 450 503 502
f 451 452 504
f 451 504 503
f 452 453 505
f 452 505 504
f 438 490 505
f 438 505 453
f 454 506 507
f 454 507 455
f 454 456 508
f 454 508 506
f 455 507 509
f 455 509 457
f 457 509 510
f 457 510 458
f 458 510 511
f 458 511 459
f 459 511 512
f 459 512 460
f 460 512 513
f 460 513 461
f 461 513 514
f 461 514 462
f 462 514 515
f 462 515 463
f 463 515 516
f 463 516 464
f 464 516 517
f 464 517 465
f 465 517 518
f 465 518 466
f 466 518 519
f 466 519 467
f 467 519 520
f 467 520 468
f 468 520 521
f 468 521 469
f 469 521 522
f 469 522 470
f 456 471 523
f 456 523 508
f 470 522 524
f 470 524 472
f 471 473 525
f 471 525 523
f 472 524 526
f 472 526 474
f 473 475 527
f 473 527 525
f 474 526 528
f 474 528 476
f 475 477 529
f 475 529 527
f 476 528 530
f 476 530 478
f 477 479 531
f 477 531 529
f 478 530 532
f 478 532 480
f 479 481 533
f 479 533 531
f 480 532 534
f 480 534 482
f 481 483 535
f 481 535 533
f 482 534 536
f 482 536 484
f 483 485 537
f 483 537 535
f 484 536 538
f 484 538 486
f 485 487 539
f 485 539 537
f 486 538 540
f 486 540 488
f 487 489 541
f 487 541 539
f 488 540 542
f 488 542 490
f 492 491 543
f 492 543 544
f 489 492 544
f 489 544 541
f 491 493 545
f 491 545 543
f 493 494 546
f 493 546 545
f 494 495 547
f 494 547 546
f 495 496 548
f 495 548 547
f 496 497 549
f 496 549 548
f 497 498 550
f 497 550 549
f 498 499 551
f 498 551 550
f 499 500 552
f 499 552 551
f 500 501 553
f 500 553 552
f 501 502 554
f 501 554 553
f 502 503 555
f 502 555 554
f 503 504 556
f 503 556 555
f 504 505 557
f 504 557 556
f 490 542 557
f 490 557 505
f 506 558 559
f 506 559 507
f 506 508 560
f 506 560 558
f 507 559 561
f 507 561 509
f 509 561 562
f 509 562 510
f 510 562 563
f 510 563 511
f 511 563 564
f 511 564 512
f 512 564 565
f 512 565 513
f 513 565 566
f 513 566 514
f 514 566 567
f 514 567 515
f 515 567 568
f 515 568 516
f 516 568 569
f 516 569 517
f 517 569 570
f 517 570 518
f 518 570 571
f 518 571 519
f 519 571 572
f 519 572 520
f 520 572 573
f 520 573 521
f 521 573 574
f 521 574 522
f 508 523 575
f 508 575 560
f 522 574 576
f 522 576 524
f 523 525 577
f 523 577 575
f 524 576 578
f 524 578 526
f 525 527 579
f 525 579 577
f 526 578 580
f 526 580 528
f 527 529 581
f 527 581 579
f 528 580 582
f 528 582 530
f 529 531 583
f 529 583 581
f 530 582 584
f 530 584 532
f 531 533 585
f 531 585 583
f 532 584 586
f 532 586 534
f 533 535 587
f 533 587 585
f 534 586 588
f 534 588 536
f 535 537 589
f 535 589 587
f 536 588 590
f 536 590 538
f 537 539 591
f 537 591 589
f 538 590 592
f 538 592 540
f 539 541 593
f 539 593 591
f 540 592 594
f 540 594 542
f 544 543 595
f 544 595 596
f 541 544 596
f 541 596 593
f 543 545 597
f 543 597 595
f 545 546 598
f 545 598 597
f 546 547 599
f 546 599 598
f 547 548 600
f 547 600 599
f 548 549 601
f 548 601 600
f 549 550 602
f 549 602 601
f 550 551 603
f 550 603 602
f 551 552 604
f 551 604 603
f 552 553 605
f 552 605 604
f 553 554 606
f 553 606 605
f 554 555 607
f 554 607 606
f 555 556 608
f 555 608 607
f 556 557 609
f 556 609 608
f 542 594 609
f 542 609 557
f 558 610 611
f 558 611 559
f 558 560 612
f 558 612 610
f 559 611 613
f 559 613 561
f 561 613 614
f 561 614 562
f 562 614 615
f 562 615 563
f 563 615 616
f 563 616 564
f 564 616 617
f 564 617 565
f 565 617 618
f 565 618 566
f 566 618 619
f 566 619 567
f 567 619 620
f 567 620 568
f 568 620 621
f 568 621 569
f 569 621 622
f 569 622 570
f 570 622 623
f 570 623 571
f 571 623 624
f 571 624 572
f 572 624 625
f 572 625 573
f 573 625 626
f 573 626 574
f 560 575 627
f 560 627 612
f 574 626 628
f 574 628 576
f 575 577 629
f 575 629 627
f 576 628 630
f 576 630 578
f 577 579 631
f 577 631 629
f 578 630 632
f 578 632 580
f 579 581 633
f 579 633 631
f 580 632 634
f 580 634 582
f 581 583 635
f 581 635 633
f 582 634 636
f 582 636 584
f 583 585 637
f 583 637 635
f 584 636 638
f 584 638 586
f 585 587 639
f 585 639 637
f 586 638 640
f 586 640 588
f 587 589 641
f 587 641 639
f 588 640 642
f 588 642 590
f 589 591 643
f 589 643 641
f 590 642 644
f 590 644 592
f 591 593 645
f 591 645 643
f 592 644 646
f 592 646 594
f 596 595 647
f 596 647 648
f 593 596 648
f 593 648 645
f 595 597 649
f 595 649 647
f 597 598 650
f 597 650 649
f 598 599 651
f 598 651 650
f 599 600 652
f 599 652 651
f 600 601 653
f 600 653 652
f 601 602 654
f 601 654 653
f 602 603 655
f 602 655 654
f 603 604 656
f 603 656 655
f 604 605 657
f 604 657 656
f 605 606 658
f 605 658 657
f 606 607 659
f 606 659 658
f 607 608 660
f 607 660 659
f 608 609 661
f 608 661 660
f 594 646 661
f 594 661 609
f 610 662 663
f 610 663 611
f 610 612 664
f 610 664 662
f 611 663 665
f 611 665 613
f 613 665 666
f 613 666 614
f 614 666 667
f 614 667 615
f 615 667 668
f 615 668 616
f 616 668 669
f 616 669 617
f 617 669 670
f 617 670 618
f 618 670 671
f 618 671 619
f 619 671 672
f 619 672 620
f 620 672 673
f 620 673 621
f 621 673 674
f 621 674 622
f 622 674 675
f 622 675 623
f 623 675 676
f 623 676 624
f 624 676 677
f 624 677 625
f 625 677 678
f 625 678 626
f 612 627 679
f 612 679 664
f 626 678 680
f 626 680 628
f 627 629 681
f 627 681 679
f 628 680 682
f 628 682 630
f 629 631 683
f 629 683 681
f 630 682 684
f 630 684 632
f 631 633 685
f 631 685 683
f 632 684 686
f 632 686 634
f 633 635 687
f 633 687 685
f 634 686 688
f 634 688 636
f 635 637 689
f 635 689 687
f 636 688 690
f 636 690 638
f 637 639 691
f 637 691 689
f 638 690 692
f 638 692 640
f 639 641 693
f 639 693 691
f 640 692 694
f 640 694 642
f 641 643 695
f 641 695 693
f 642 694 696
f 642 696 644
f 643 645 697
f 643 697 695
f 644 696 698
f 644 698 646
f 648 647 699
f 648 699 700
f 645 648 700
f 645 700 697
f 647 649 701
f 647 701 699
f 649 650 702
f 649 702 701
f 650 651 703
f 650 703 702
f 651 652 704
f 651 704 703
f 652 653 705
f 652 705 704
f 653 654 706
f 653 706 705
f 654 655 707
f 654 707 706
f 655 656 708
f 655 708 707
f 656 657 709
f 656 709 708
f 657 658 710
f 657 710 709
f 658 659 711
f 658 711 710
f 659 660 712
f 659 712 711
f 660 661 713
f 660 713 712
f 646 698 713
f 646 713 661
f 662 714 715
f 662 715 663
f 662 664 716
f 662 716 714
f 663 715 717
f 663 717 665
f 665 717 718
f 665 718 666
f 666 718 719
f 666 719 667
f 667 719 720
f 667 720 668
f 668 720 721
f 668 721 669
f 669 721 722
f 669 722 670
f 670 722 723
f 670 723 671
f 671 723 724
f 671 724 672
f 672 724 725
f 672 725 673
f 673 725 726
f 673 726 674
f 674 726 727
f 674 727 675
f 675 727 728
f 675 728 676
f 676 728 729
f 676 729 677
f 677 729 730
f 677 730 678
f 664 679 731
f 664 731 716
f 678 730 732
f 678 732 680
f 679 681 733
f 679 733 731
f 680 732 734
f 680 734 682
f 681 683 735
f 681 735 733
f 682 734 736
f 682 736 684
f 683 685 737
f 683 737 735
f 684 736 738
f 684 738 686
f 685 687 739
f 685 739 737
f 686 738 740
f 686 740 688
f 687 689 741
f 687 741 739
f 688 740 742
f 688 742 690
f 689 691 743
f 689 743 741
f 690 742 744
f 690 744 692
f 691 693 745
f 691 745 743
f 692 744 746
f 692 746 694
f 693 695 747
f 693 747 745
f 694 746 748
f 694 748 696
f 695 697 749
f 695 749 747
f 696 748 750
f 696 750 698
f 700 699 751
f 700 751 752
f 697 700 752
f 697 752 749
f 699 701 753
f 699 753 751
f 701 702 754
f 701 754 753
f 702 703 755
f 702 755 754
f 703 704 756
f 703 756 755
f 704 705 757
f 704 757 756
f 705 706 758
f 705 758 757
f 706 707 759
f 706 759 758
f 707 708 760
f 707 760 759
f 708 709 761
f 708 761 760
f 709 710 762
f 709 762 761
f 710 711 763
f 710 763 762
f 711 712 764
f 711 764 763
f 712 713 765
f 712 765 764
f 698 750 765
f 698 765 713
f 766 767 768
f 766 768 769
f 714 766 767
f 714 767 715
f 714 716 769
f 714 769 766
f 767 770 771
f 767 771 768
f 715 767 770
f 715 770 717
f 770 772 773
f 770 773 771
f 717 770 772
f 717 772 718
f 772 774 775
f 772 775 773
f 718 772 774
f 718 774 719
f 774 776 777
f 774 777 775
f 719 774 776
f 719 776 720
f 776 778 779
f 776 779 777
f 720 776 778
f 720 778 721
f 778 780 781
f 778 781 779
f 721 778 780
f 721 780 722
f 780 782 783
f 780 783 781
f 722 780 782
f 722 782 723
f 782 784 785
f 782 785 783
f 723 782 784
f 723 784 724
f 784 786 787
f 784 787 785
f 724 784 786
f 724 786 725
f 786 788 789
f 786 789 787
f 725 786 788
f 725 788 726
f 788 790 791
f 788 791 789
f 726 788 790
f 726 790 727
f 790 792 793
f 790 793 791
f 727 790 792
f 727 792 728
f 792 794 795
f 792 795 793
f 728 792 794
f 728 794 729
f 729 794 795
f 729 795 730
f 769 768 796
f 769 796 797
f 716 731 797
f 716 797 769
f 768 771 798
f 768 798 796
f 771 773 799
f 771 799 798
f 773 775 800
f 773 800 799
f 775 777 801
f 775 801 800
f 777 779 802
f 777 802 801
f 779 781 803
f 779 803 802
f 781 783 804
f 781 804 803
f 783 785 805
f 783 805 804
f 785 787 806
f 785 806 805
f 787 789 807
f 787 807 806
f 789 791 808
f 789 808 807
f 791 793 809
f 791 809 808
f 793 795 810
f 793 810 809
f 730 795 810
f 730 810 732
f 797 796 811
f 797 811 812
f 731 733 812
f 731 812 797
f 796 798 813
f 796 813 811
f 798 799 814
f 798 814 813
f 799 800 815
f 799 815 814
f 800 801 816
f 800 816 815
f 801 802 817
f 801 817 816
f 802 803 818
f 802 818 817
f 803 804 819
f 803 819 818
f 804 805 820
f 804 820 819
f 805 806 821
f 805 821 820
f 806 807 822
f 806 822 821
f 807 808 823
f 807 823 822
f 808 809 824
f 808 824 823
f 809 810 825
f 809 825 824
f 732 810 825
f 732 825 734
f 812 811 826
f 812 826 827
f 733 735 827
f 733 827 812
f 811 813 828
f 811 828 826
f 813 814 829
f 813 829 828
f 814 815 830
f 814 830 829
f 815 816 831
f 815 831 830
f 816 817 832
f 816 832 831
f 817 818 833
f 817 833 832
f 818 819 834
f 818 834 833
f 819 820 835
f 819 835 834
f 820 821 836
f 820 836 835
f 821 822 837
f 821 837 836
f 822 823 838
f 822 838 837
f 823 824 839
f 823 839 838
f 824 825 840
f 824 840 839
f 734 825 840
f 734 840 736
f 827 826 841
f 827 841 842
f 735 737 842
f 735 842 827
f 826 828 843
f 826 843 841
f 828 829 844
f 828 844 843
f 829 830 845
f 829 845 844
f 830 831 846
f 830 846 845
f 831 832 847
f 831 847 846
f 832 833 848
f 832 848 847
f 833 834 849
f 833 849 848
f 834 835 850
f 834 850 849
f 835 836 851
f 835 851 850
f 836 837 852
f 836 852 851
f 837 838 853
f 837 853 852
f 838 839 854
f 838 854 853
f 839 840 855
f 839 855 854
f 736 840 855
f 736 855 738
f 842 841 856
f 842 856 857
f 737 739 857
f 737 857 842
f 841 843 858
f 841 858 856
f 843 844 859
f 843 859 858
f 844 845 860
f 844 860 859
f 845 846 861
f 845 861 860
f 846 847 862
f 846 862 861
f 847 848 863
f 847 863 862
f 848 849 864
f 848 864 863
f 849 850 865
f 849 865 864
f 850 851 866
f 850 866 865
f 851 852 867
f 851 867 866
f 852 853 868
f 852 868 867
f 853 854 869
f 853 869 868
f 854 855 870
f 854 870 869
f 738 855 870
f 738 870 740
f 857 856 871
f 857 871 872
f 739 741 872
f 739 872 857
f 856 858 873
f 856 873 871
f 858 859 874
f 858 874 873
f 859 860 875
f 859 875 874
f 860 861 876
f 860 876 875
f 861 862 877
f 861 877 876
f 862 863 878
f 862 878 877
f 863 864 879
f 863 879 878
f 864 865 880
f 864 880 879
f 865 866 881
f 865 881 880
f 866 867 882
f 866 882 881
f 867 868 883
f 867 883 882
f 868 869 884
f 868 884 883
f 869 870 885
f 869 885 884
f 740 870 885
f 740 885 742
f 872 871 886
f 872 886 887
f 741 743 887
f 741 887 872
f 871 873 888
f 871 888 886
f 873 874 889
f 873 889 888
f 874 875 890
f 874 890 889
f 875 876 891
f 875 891 890
f 876 877 892
f 876 892 891
f 877 878 893
f 877 893 892
f 878 879 894
f 878 894 893
f 879 880 895
f 879 895 894
f 880 881 896
f 880 896 895
f 881 882 897
f 881 897 896
f 882 883 898
f 882 898 897
f 883 884 899
f 883 899 898
f 884 885 900
f 884 900 899
f 742 885 900
f 742 900 744
f 887 886 901
f 887 901 902
f 743 745 902
f 743 902 887
f 886 888 903
f 886 903 901
f 888 889 904
f 888 904 903
f 889 890 905
f 889 905 904
f 890 891 906
f 890 906 905
f 891 892 907
f 891 907 906
f 892 893 908
f 892 908 907
f 893 894 909
f 893 909 908
f 894 895 910
f 894 910 909
f 895 896 911
f 895 911 910
f 896 897 912
f 896 912 911
f 897 898 913
f 897 913 912
f 898 899 914
f 898 914 913
f 899 900 915
f 899 915 914
f 744 900 915
f 744 915 746
f 902 901 916
f 902 916 917
f 745 747 917
f 745 917 902
f 901 903 918
f 901 918 916
f 903 904 919
f 903 919 918
f 904 905 920
f 904 920 919
f 905 906 921
f 905 921 920
f 906 907 922
f 906 922 921
f 907 908 923
f 907 923 922
f 908 909 924
f 908 924 923
f 909 910 925
f 909 925 924
f 910 911 926
f 910 926 925
f 911 912 927
f 911 927 926
f 912 913 928
f 912 928 927
f 913 914 929
f 913 929 928
f 914 915 930
f 914 930 929
f 746 915 930
f 746 930 748
f 917 916 931
f 917 931 932
f 747 749 932
f 747 932 917
f 916 918 933
f 916 933 931
f 918 919 934
f 918 934 933
f 919 920 935
f 919 935 934
f 920 921 936
f 920 936 935
f 921 922 937
f 921 937 936
f 922 923 938
f 922 938 937
f 923 924 939
f 923 939 938
f 924 925 940
f 924 940 939
f 925 926 941
f 925 941 940
f 926 927 942
f 926 942 941
f 927 928 943
f 927 943 942
f 928 929 944
f 928 944 943
f 929 930 945
f 929 945 944
f 748 930 945
f 748 945 750
f 932 931 946
f 932 946 947
f 752 751 946
f 752 946 947
f 749 752 947
f 749 947 932
f 931 933 948
f 931 948 946
f 751 753 948
f 751 948 946
f 933 934 949
f 933 949 948
f 753 754 949
f 753 949 948
f 934 935 950
f 934 950 949
f 754 755 950
f 754 950 949
f 935 936 951
f 935 951 950
f 755 756 951
f 755 951 950
f 936 937 952
f 936 952 951
f 756 757 952
f 756 952 951
f 937 938 953
f 937 953 952
f 757 758 953
f 757 953 952
f 938 939 954
f 938 954 953
f 758 759 954
f 758 954 953
f 939 940 955
f 939 955 954
f 759 760 955
f 759 955 954
f 940 941 956
f 940 956 955
f 760 761 956
f 760 956 955
f 941 942 957
f 941 957 956
f 761 762 957
f 761 957 956
f 942 943 958
f 942 958 957
f 762 763 958
f 762 958 957
f 943 944 959
f 943 959 958
f 763 764 959
f 763 959 958
f 944 945 960
f 944 960 959
f 764 765 960
f 764 960 959
f 750 945 960
f 750 960 765
