o JSONAkashi_599
v 443.975000 -23.025000 -14.491600
v 443.975000 -22.937500 -14.491600
v 443.975000 -22.937500 -14.392538
v 443.975000 -23.025000 -14.392538
v 444.062500 -23.025000 -14.491600
v 444.062500 -23.025000 -14.392538
v 444.062500 -22.937500 -14.491600
v 443.975000 -22.937500 -14.293477
v 443.975000 -23.025000 -14.293477
v 444.062500 -23.025000 -14.293477
v 443.975000 -22.937500 -14.194415
v 443.975000 -23.025000 -14.194415
v 444.062500 -23.025000 -14.194415
v 443.975000 -22.937500 -14.095354
v 443.975000 -23.025000 -14.095354
v 444.062500 -23.025000 -14.095354
v 443.975000 -22.937500 -13.996292
v 443.975000 -23.025000 -13.996292
v 444.062500 -23.025000 -13.996292
v 443.975000 -22.937500 -13.897230
v 443.975000 -23.025000 -13.897230
v 444.062500 -23.025000 -13.897230
v 443.975000 -22.937500 -13.798169
v 443.975000 -23.025000 -13.798169
v 444.062500 -23.025000 -13.798169
v 443.975000 -22.937500 -13.699107
v 443.975000 -23.025000 -13.699107
v 444.062500 -23.025000 -13.699107
v 443.975000 -22.937500 -13.600046
v 443.975000 -23.025000 -13.600046
v 444.062500 -23.025000 -13.600046
v 443.975000 -22.937500 -13.500984
v 443.975000 -23.025000 -13.500984
v 444.062500 -23.025000 -13.500984
v 443.975000 -22.937500 -13.401923
v 443.975000 -23.025000 -13.401923
v 444.062500 -23.025000 -13.401923
v 443.975000 -22.937500 -13.302861
v 443.975000 -23.025000 -13.302861
v 444.062500 -23.025000 -13.302861
v 444.062500 -22.937500 -13.302861
v 443.975000 -22.850000 -14.491600
v 443.975000 -22.850000 -14.392538
v 444.062500 -22.850000 -14.491600
v 443.975000 -22.850000 -14.293477
v 443.975000 -22.850000 -14.194415
v 443.975000 -22.850000 -14.095354
v 443.975000 -22.850000 -13.996292
v 443.975000 -22.850000 -13.897230
v 443.975000 -22.850000 -13.798169
v 443.975000 -22.850000 -13.699107
v 443.975000 -22.850000 -13.600046
v 443.975000 -22.850000 -13.500984
v 443.975000 -22.850000 -13.401923
v 443.975000 -22.850000 -13.302861
v 444.062500 -22.850000 -13.302861
v 443.975000 -22.762500 -14.491600
v 443.975000 -22.762500 -14.392538
v 444.062500 -22.762500 -14.491600
v 443.975000 -22.762500 -14.293477
v 443.975000 -22.762500 -14.194415
v 443.975000 -22.762500 -14.095354
v 443.975000 -22.762500 -13.996292
v 443.975000 -22.762500 -13.897230
v 443.975000 -22.762500 -13.798169
v 443.975000 -22.762500 -13.699107
v 443.975000 -22.762500 -13.600046
v 443.975000 -22.762500 -13.500984
v 443.975000 -22.762500 -13.401923
v 443.975000 -22.762500 -13.302861
v 444.062500 -22.762500 -13.302861
v 443.975000 -22.675000 -14.491600
v 443.975000 -22.675000 -14.392538
v 444.062500 -22.675000 -14.491600
v 443.975000 -22.675000 -14.293477
v 443.975000 -22.675000 -14.194415
v 443.975000 -22.675000 -14.095354
v 443.975000 -22.675000 -13.996292
v 443.975000 -22.675000 -13.897230
v 443.975000 -22.675000 -13.798169
v 443.975000 -22.675000 -13.699107
v 443.975000 -22.675000 -13.600046
v 443.975000 -22.675000 -13.500984
v 443.975000 -22.675000 -13.401923
v 443.975000 -22.675000 -13.302861
v 444.062500 -22.675000 -13.302861
v 443.975000 -22.587500 -14.491600
v 443.975000 -22.587500 -14.392538
v 444.062500 -22.587500 -14.491600
v 443.975000 -22.587500 -14.293477
v 443.975000 -22.587500 -14.194415
v 443.975000 -22.587500 -14.095354
v 443.975000 -22.587500 -13.996292
v 443.975000 -22.587500 -13.897230
v 443.975000 -22.587500 -13.798169
v 443.975000 -22.587500 -13.699107
v 443.975000 -22.587500 -13.600046
v 443.975000 -22.587500 -13.500984
v 443.975000 -22.587500 -13.401923
v 443.975000 -22.587500 -13.302861
v 444.062500 -22.587500 -13.302861
v 443.975000 -22.500000 -14.491600
v 443.975000 -22.500000 -14.392538
v 444.062500 -22.500000 -14.491600
v 443.975000 -22.500000 -14.293477
v 443.975000 -22.500000 -14.194415
v 443.975000 -22.500000 -14.095354
v 443.975000 -22.500000 -13.996292
v 443.975000 -22.500000 -13.897230
v 443.975000 -22.500000 -13.798169
v 443.975000 -22.500000 -13.699107
v 443.975000 -22.500000 -13.600046
v 443.975000 -22.500000 -13.500984
v 443.975000 -22.500000 -13.401923
v 443.975000 -22.500000 -13.302861
v 444.062500 -22.500000 -13.302861
v 443.975000 -22.412500 -14.491600
v 443.975000 -22.412500 -14.392538
v 444.062500 -22.412500 -14.491600
v 443.975000 -22.412500 -14.293477
v 443.975000 -22.412500 -14.194415
v 443.975000 -22.412500 -14.095354
v 443.975000 -22.412500 -13.996292
v 443.975000 -22.412500 -13.897230
v 443.975000 -22.412500 -13.798169
v 443.975000 -22.412500 -13.699107
v 443.975000 -22.412500 -13.600046
v 443.975000 -22.412500 -13.500984
v 443.975000 -22.412500 -13.401923
v 443.975000 -22.412500 -13.302861
v 444.062500 -22.412500 -13.302861
v 443.975000 -22.325000 -14.491600
v 443.975000 -22.325000 -14.392538
v 444.062500 -22.325000 -14.491600
v 443.975000 -22.325000 -14.293477
v 443.975000 -22.325000 -14.194415
v 443.975000 -22.325000 -14.095354
v 443.975000 -22.325000 -13.996292
v 443.975000 -22.325000 -13.897230
v 443.975000 -22.325000 -13.798169
v 443.975000 -22.325000 -13.699107
v 443.975000 -22.325000 -13.600046
v 443.975000 -22.325000 -13.500984
v 443.975000 -22.325000 -13.401923
v 443.975000 -22.325000 -13.302861
v 444.062500 -22.325000 -13.302861
v 443.975000 -22.237500 -14.491600
v 443.975000 -22.237500 -14.392538
v 444.062500 -22.237500 -14.491600
v 443.975000 -22.237500 -14.293477
v 443.975000 -22.237500 -14.194415
v 443.975000 -22.237500 -14.095354
v 443.975000 -22.237500 -13.996292
v 443.975000 -22.237500 -13.897230
v 443.975000 -22.237500 -13.798169
v 443.975000 -22.237500 -13.699107
v 443.975000 -22.237500 -13.600046
v 443.975000 -22.237500 -13.500984
v 443.975000 -22.237500 -13.401923
v 443.975000 -22.237500 -13.302861
v 444.062500 -22.237500 -13.302861
v 443.975000 -22.150000 -14.491600
v 443.975000 -22.150000 -14.392538
v 444.062500 -22.150000 -14.491600
v 443.975000 -22.150000 -14.293477
v 443.975000 -22.150000 -14.194415
v 443.975000 -22.150000 -14.095354
v 443.975000 -22.150000 -13.996292
v 443.975000 -22.150000 -13.897230
v 443.975000 -22.150000 -13.798169
v 443.975000 -22.150000 -13.699107
v 443.975000 -22.150000 -13.600046
v 443.975000 -22.150000 -13.500984
v 443.975000 -22.150000 -13.401923
v 443.975000 -22.150000 -13.302861
v 444.062500 -22.150000 -13.302861
v 443.975000 -22.062500 -14.491600
v 443.975000 -22.062500 -14.392538
v 444.062500 -22.062500 -14.491600
v 443.975000 -22.062500 -14.293477
v 443.975000 -22.062500 -14.194415
v 443.975000 -22.062500 -14.095354
v 443.975000 -22.062500 -13.996292
v 443.975000 -22.062500 -13.897230
v 443.975000 -22.062500 -13.798169
v 443.975000 -22.062500 -13.699107
v 443.975000 -22.062500 -13.600046
v 443.975000 -22.062500 -13.500984
v 443.975000 -22.062500 -13.401923
v 443.975000 -22.062500 -13.302861
v 444.062500 -22.062500 -13.302861
v 443.975000 -21.975000 -14.491600
v 443.975000 -21.975000 -14.392538
v 444.062500 -21.975000 -14.392538
v 444.062500 -21.975000 -14.491600
v 443.975000 -21.975000 -14.293477
v 444.062500 -21.975000 -14.293477
v 443.975000 -21.975000 -14.194415
v 444.062500 -21.975000 -14.194415
v 443.975000 -21.975000 -14.095354
v 444.062500 -21.975000 -14.095354
v 443.975000 -21.975000 -13.996292
v 444.062500 -21.975000 -13.996292
v 443.975000 -21.975000 -13.897230
v 444.062500 -21.975000 -13.897230
v 443.975000 -21.975000 -13.798169
v 444.062500 -21.975000 -13.798169
v 443.975000 -21.975000 -13.699107
v 444.062500 -21.975000 -13.699107
v 443.975000 -21.975000 -13.600046
v 444.062500 -21.975000 -13.600046
v 443.975000 -21.975000 -13.500984
v 444.062500 -21.975000 -13.500984
v 443.975000 -21.975000 -13.401923
v 444.062500 -21.975000 -13.401923
v 443.975000 -21.975000 -13.302861
v 444.062500 -21.975000 -13.302861
v 444.150000 -23.025000 -14.491600
v 444.150000 -23.025000 -14.392538
v 444.150000 -22.937500 -14.491600
v 444.150000 -23.025000 -14.293477
v 444.150000 -23.025000 -14.194415
v 444.150000 -23.025000 -14.095354
v 444.150000 -23.025000 -13.996292
v 444.150000 -23.025000 -13.897230
v 444.150000 -23.025000 -13.798169
v 444.150000 -23.025000 -13.699107
v 444.150000 -23.025000 -13.600046
v 444.150000 -23.025000 -13.500984
v 444.150000 -23.025000 -13.401923
v 444.150000 -23.025000 -13.302861
v 444.150000 -22.937500 -13.302861
v 444.150000 -22.850000 -14.491600
v 444.150000 -22.850000 -13.302861
v 444.150000 -22.762500 -14.491600
v 444.150000 -22.762500 -13.302861
v 444.150000 -22.675000 -14.491600
v 444.150000 -22.675000 -13.302861
v 444.150000 -22.587500 -14.491600
v 444.150000 -22.587500 -13.302861
v 444.150000 -22.500000 -14.491600
v 444.150000 -22.500000 -13.302861
v 444.150000 -22.412500 -14.491600
v 444.150000 -22.412500 -13.302861
v 444.150000 -22.325000 -14.491600
v 444.150000 -22.325000 -13.302861
v 444.150000 -22.237500 -14.491600
v 444.150000 -22.237500 -13.302861
v 444.150000 -22.150000 -14.491600
v 444.150000 -22.150000 -13.302861
v 444.150000 -22.062500 -14.491600
v 444.150000 -22.062500 -13.302861
v 444.150000 -21.975000 -14.392538
v 444.150000 -21.975000 -14.491600
v 444.150000 -21.975000 -14.293477
v 444.150000 -21.975000 -14.194415
v 444.150000 -21.975000 -14.095354
v 444.150000 -21.975000 -13.996292
v 444.150000 -21.975000 -13.897230
v 444.150000 -21.975000 -13.798169
v 444.150000 -21.975000 -13.699107
v 444.150000 -21.975000 -13.600046
v 444.150000 -21.975000 -13.500984
v 444.150000 -21.975000 -13.401923
v 444.150000 -21.975000 -13.302861
v 444.237500 -23.025000 -14.491600
v 444.237500 -23.025000 -14.392538
v 444.237500 -22.937500 -14.491600
v 444.237500 -23.025000 -14.293477
v 444.237500 -23.025000 -14.194415
v 444.237500 -23.025000 -14.095354
v 444.237500 -23.025000 -13.996292
v 444.237500 -23.025000 -13.897230
v 444.237500 -23.025000 -13.798169
v 444.237500 -23.025000 -13.699107
v 444.237500 -23.025000 -13.600046
v 444.237500 -23.025000 -13.500984
v 444.237500 -23.025000 -13.401923
v 444.237500 -23.025000 -13.302861
v 444.237500 -22.937500 -13.302861
v 444.237500 -22.850000 -14.491600
v 444.237500 -22.850000 -13.302861
v 444.237500 -22.762500 -14.491600
v 444.237500 -22.762500 -13.302861
v 444.237500 -22.675000 -14.491600
v 444.237500 -22.675000 -13.302861
v 444.237500 -22.587500 -14.491600
v 444.237500 -22.587500 -13.302861
v 444.237500 -22.500000 -14.491600
v 444.237500 -22.500000 -13.302861
v 444.237500 -22.412500 -14.491600
v 444.237500 -22.412500 -13.302861
v 444.237500 -22.325000 -14.491600
v 444.237500 -22.325000 -13.302861
v 444.237500 -22.237500 -14.491600
v 444.237500 -22.237500 -13.302861
v 444.237500 -22.150000 -14.491600
v 444.237500 -22.150000 -13.302861
v 444.237500 -22.062500 -14.491600
v 444.237500 -22.062500 -13.302861
v 444.237500 -21.975000 -14.392538
v 444.237500 -21.975000 -14.491600
v 444.237500 -21.975000 -14.293477
v 444.237500 -21.975000 -14.194415
v 444.237500 -21.975000 -14.095354
v 444.237500 -21.975000 -13.996292
v 444.237500 -21.975000 -13.897230
v 444.237500 -21.975000 -13.798169
v 444.237500 -21.975000 -13.699107
v 444.237500 -21.975000 -13.600046
v 444.237500 -21.975000 -13.500984
v 444.237500 -21.975000 -13.401923
v 444.237500 -21.975000 -13.302861
v 444.325000 -23.025000 -14.491600
v 444.325000 -23.025000 -14.392538
v 444.325000 -22.937500 -14.491600
v 444.325000 -23.025000 -14.293477
v 444.325000 -23.025000 -14.194415
v 444.325000 -23.025000 -14.095354
v 444.325000 -23.025000 -13.996292
v 444.325000 -23.025000 -13.897230
v 444.325000 -23.025000 -13.798169
v 444.325000 -23.025000 -13.699107
v 444.325000 -23.025000 -13.600046
v 444.325000 -23.025000 -13.500984
v 444.325000 -23.025000 -13.401923
v 444.325000 -23.025000 -13.302861
v 444.325000 -22.937500 -13.302861
v 444.325000 -22.850000 -14.491600
v 444.325000 -22.850000 -13.302861
v 444.325000 -22.762500 -14.491600
v 444.325000 -22.762500 -13.302861
v 444.325000 -22.675000 -14.491600
v 444.325000 -22.675000 -13.302861
v 444.325000 -22.587500 -14.491600
v 444.325000 -22.587500 -13.302861
v 444.325000 -22.500000 -14.491600
v 444.325000 -22.500000 -13.302861
v 444.325000 -22.412500 -14.491600
v 444.325000 -22.412500 -13.302861
v 444.325000 -22.325000 -14.491600
v 444.325000 -22.325000 -13.302861
v 444.325000 -22.237500 -14.491600
v 444.325000 -22.237500 -13.302861
v 444.325000 -22.150000 -14.491600
v 444.325000 -22.150000 -13.302861
v 444.325000 -22.062500 -14.491600
v 444.325000 -22.062500 -13.302861
v 444.325000 -21.975000 -14.392538
v 444.325000 -21.975000 -14.491600
v 444.325000 -21.975000 -14.293477
v 444.325000 -21.975000 -14.194415
v 444.325000 -21.975000 -14.095354
v 444.325000 -21.975000 -13.996292
v 444.325000 -21.975000 -13.897230
v 444.325000 -21.975000 -13.798169
v 444.325000 -21.975000 -13.699107
v 444.325000 -21.975000 -13.600046
v 444.325000 -21.975000 -13.500984
v 444.325000 -21.975000 -13.401923
v 444.325000 -21.975000 -13.302861
v 444.412500 -23.025000 -14.491600
v 444.412500 -23.025000 -14.392538
v 444.412500 -22.937500 -14.491600
v 444.412500 -23.025000 -14.293477
v 444.412500 -23.025000 -14.194415
v 444.412500 -23.025000 -14.095354
v 444.412500 -23.025000 -13.996292
v 444.412500 -23.025000 -13.897230
v 444.412500 -23.025000 -13.798169
v 444.412500 -23.025000 -13.699107
v 444.412500 -23.025000 -13.600046
v 444.412500 -23.025000 -13.500984
v 444.412500 -23.025000 -13.401923
v 444.412500 -23.025000 -13.302861
v 444.412500 -22.937500 -13.302861
v 444.412500 -22.850000 -14.491600
v 444.412500 -22.850000 -13.302861
v 444.412500 -22.762500 -14.491600
v 444.412500 -22.762500 -13.302861
v 444.412500 -22.675000 -14.491600
v 444.412500 -22.675000 -13.302861
v 444.412500 -22.587500 -14.491600
v 444.412500 -22.587500 -13.302861
v 444.412500 -22.500000 -14.491600
v 444.412500 -22.500000 -13.302861
v 444.412500 -22.412500 -14.491600
v 444.412500 -22.412500 -13.302861
v 444.412500 -22.325000 -14.491600
v 444.412500 -22.325000 -13.302861
v 444.412500 -22.237500 -14.491600
v 444.412500 -22.237500 -13.302861
v 444.412500 -22.150000 -14.491600
v 444.412500 -22.150000 -13.302861
v 444.412500 -22.062500 -14.491600
v 444.412500 -22.062500 -13.302861
v 444.412500 -21.975000 -14.392538
v 444.412500 -21.975000 -14.491600
v 444.412500 -21.975000 -14.293477
v 444.412500 -21.975000 -14.194415
v 444.412500 -21.975000 -14.095354
v 444.412500 -21.975000 -13.996292
v 444.412500 -21.975000 -13.897230
v 444.412500 -21.975000 -13.798169
v 444.412500 -21.975000 -13.699107
v 444.412500 -21.975000 -13.600046
v 444.412500 -21.975000 -13.500984
v 444.412500 -21.975000 -13.401923
v 444.412500 -21.975000 -13.302861
v 444.500000 -23.025000 -14.491600
v 444.500000 -23.025000 -14.392538
v 444.500000 -22.937500 -14.491600
v 444.500000 -23.025000 -14.293477
v 444.500000 -23.025000 -14.194415
v 444.500000 -23.025000 -14.095354
v 444.500000 -23.025000 -13.996292
v 444.500000 -23.025000 -13.897230
v 444.500000 -23.025000 -13.798169
v 444.500000 -23.025000 -13.699107
v 444.500000 -23.025000 -13.600046
v 444.500000 -23.025000 -13.500984
v 444.500000 -23.025000 -13.401923
v 444.500000 -23.025000 -13.302861
v 444.500000 -22.937500 -13.302861
v 444.500000 -22.850000 -14.491600
v 444.500000 -22.850000 -13.302861
v 444.500000 -22.762500 -14.491600
v 444.500000 -22.762500 -13.302861
v 444.500000 -22.675000 -14.491600
v 444.500000 -22.675000 -13.302861
v 444.500000 -22.587500 -14.491600
v 444.500000 -22.587500 -13.302861
v 444.500000 -22.500000 -14.491600
v 444.500000 -22.500000 -13.302861
v 444.500000 -22.412500 -14.491600
v 444.500000 -22.412500 -13.302861
v 444.500000 -22.325000 -14.491600
v 444.500000 -22.325000 -13.302861
v 444.500000 -22.237500 -14.491600
v 444.500000 -22.237500 -13.302861
v 444.500000 -22.150000 -14.491600
v 444.500000 -22.150000 -13.302861
v 444.500000 -22.062500 -14.491600
v 444.500000 -22.062500 -13.302861
v 444.500000 -21.975000 -14.392538
v 444.500000 -21.975000 -14.491600
v 444.500000 -21.975000 -14.293477
v 444.500000 -21.975000 -14.194415
v 444.500000 -21.975000 -14.095354
v 444.500000 -21.975000 -13.996292
v 444.500000 -21.975000 -13.897230
v 444.500000 -21.975000 -13.798169
v 444.500000 -21.975000 -13.699107
v 444.500000 -21.975000 -13.600046
v 444.500000 -21.975000 -13.500984
v 444.500000 -21.975000 -13.401923
v 444.500000 -21.975000 -13.302861
v 444.587500 -23.025000 -14.491600
v 444.587500 -23.025000 -14.392538
v 444.587500 -22.937500 -14.491600
v 444.587500 -23.025000 -14.293477
v 444.587500 -23.025000 -14.194415
v 444.587500 -23.025000 -14.095354
v 444.587500 -23.025000 -13.996292
v 444.587500 -23.025000 -13.897230
v 444.587500 -23.025000 -13.798169
v 444.587500 -23.025000 -13.699107
v 444.587500 -23.025000 -13.600046
v 444.587500 -23.025000 -13.500984
v 444.587500 -23.025000 -13.401923
v 444.587500 -23.025000 -13.302861
v 444.587500 -22.937500 -13.302861
v 444.587500 -22.850000 -14.491600
v 444.587500 -22.850000 -13.302861
v 444.587500 -22.762500 -14.491600
v 444.587500 -22.762500 -13.302861
v 444.587500 -22.675000 -14.491600
v 444.587500 -22.675000 -13.302861
v 444.587500 -22.587500 -14.491600
v 444.587500 -22.587500 -13.302861
v 444.587500 -22.500000 -14.491600
v 444.587500 -22.500000 -13.302861
v 444.587500 -22.412500 -14.491600
v 444.587500 -22.412500 -13.302861
v 444.587500 -22.325000 -14.491600
v 444.587500 -22.325000 -13.302861
v 444.587500 -22.237500 -14.491600
v 444.587500 -22.237500 -13.302861
v 444.587500 -22.150000 -14.491600
v 444.587500 -22.150000 -13.302861
v 444.587500 -22.062500 -14.491600
v 444.587500 -22.062500 -13.302861
v 444.587500 -21.975000 -14.392538
v 444.587500 -21.975000 -14.491600
v 444.587500 -21.975000 -14.293477
v 444.587500 -21.975000 -14.194415
v 444.587500 -21.975000 -14.095354
v 444.587500 -21.975000 -13.996292
v 444.587500 -21.975000 -13.897230
v 444.587500 -21.975000 -13.798169
v 444.587500 -21.975000 -13.699107
v 444.587500 -21.975000 -13.600046
v 444.587500 -21.975000 -13.500984
v 444.587500 -21.975000 -13.401923
v 444.587500 -21.975000 -13.302861
v 444.675000 -23.025000 -14.491600
v 444.675000 -23.025000 -14.392538
v 444.675000 -22.937500 -14.491600
v 444.675000 -23.025000 -14.293477
v 444.675000 -23.025000 -14.194415
v 444.675000 -23.025000 -14.095354
v 444.675000 -23.025000 -13.996292
v 444.675000 -23.025000 -13.897230
v 444.675000 -23.025000 -13.798169
v 444.675000 -23.025000 -13.699107
v 444.675000 -23.025000 -13.600046
v 444.675000 -23.025000 -13.500984
v 444.675000 -23.025000 -13.401923
v 444.675000 -23.025000 -13.302861
v 444.675000 -22.937500 -13.302861
v 444.675000 -22.937500 -13.401923
v 444.675000 -22.850000 -14.491600
v 444.675000 -22.850000 -13.302861
v 444.675000 -22.850000 -13.401923
v 444.675000 -22.762500 -14.491600
v 444.675000 -22.762500 -13.302861
v 444.675000 -22.762500 -13.401923
v 444.675000 -22.675000 -14.491600
v 444.675000 -22.675000 -13.302861
v 444.675000 -22.675000 -13.401923
v 444.675000 -22.587500 -14.491600
v 444.675000 -22.587500 -13.302861
v 444.675000 -22.587500 -13.401923
v 444.675000 -22.500000 -14.491600
v 444.675000 -22.500000 -13.302861
v 444.675000 -22.500000 -13.401923
v 444.675000 -22.412500 -14.491600
v 444.675000 -22.412500 -13.302861
v 444.675000 -22.412500 -13.401923
v 444.675000 -22.325000 -14.491600
v 444.675000 -22.325000 -13.302861
v 444.675000 -22.325000 -13.401923
v 444.675000 -22.237500 -14.491600
v 444.675000 -22.237500 -13.302861
v 444.675000 -22.237500 -13.401923
v 444.675000 -22.150000 -14.491600
v 444.675000 -22.150000 -13.302861
v 444.675000 -22.150000 -13.401923
v 444.675000 -22.062500 -14.491600
v 444.675000 -22.062500 -13.302861
v 444.675000 -22.062500 -13.401923
v 444.675000 -21.975000 -14.392538
v 444.675000 -21.975000 -14.491600
v 444.675000 -21.975000 -14.293477
v 444.675000 -21.975000 -14.194415
v 444.675000 -21.975000 -14.095354
v 444.675000 -21.975000 -13.996292
v 444.675000 -21.975000 -13.897230
v 444.675000 -21.975000 -13.798169
v 444.675000 -21.975000 -13.699107
v 444.675000 -21.975000 -13.600046
v 444.675000 -21.975000 -13.500984
v 444.675000 -21.975000 -13.401923
v 444.675000 -21.975000 -13.302861
v 444.762500 -23.025000 -14.491600
v 444.762500 -23.025000 -14.392538
v 444.762500 -22.937500 -14.491600
v 444.762500 -23.025000 -14.293477
v 444.762500 -23.025000 -14.194415
v 444.762500 -23.025000 -14.095354
v 444.762500 -23.025000 -13.996292
v 444.762500 -23.025000 -13.897230
v 444.762500 -23.025000 -13.798169
v 444.762500 -23.025000 -13.699107
v 444.762500 -23.025000 -13.600046
v 444.762500 -23.025000 -13.500984
v 444.762500 -23.025000 -13.401923
v 444.762500 -22.937500 -13.401923
v 444.762500 -22.850000 -14.491600
v 444.762500 -22.850000 -13.401923
v 444.762500 -22.762500 -14.491600
v 444.762500 -22.762500 -13.401923
v 444.762500 -22.675000 -14.491600
v 444.762500 -22.675000 -13.401923
v 444.762500 -22.587500 -14.491600
v 444.762500 -22.587500 -13.401923
v 444.762500 -22.500000 -14.491600
v 444.762500 -22.500000 -13.401923
v 444.762500 -22.412500 -14.491600
v 444.762500 -22.412500 -13.401923
v 444.762500 -22.325000 -14.491600
v 444.762500 -22.325000 -13.401923
v 444.762500 -22.237500 -14.491600
v 444.762500 -22.237500 -13.401923
v 444.762500 -22.150000 -14.491600
v 444.762500 -22.150000 -13.401923
v 444.762500 -22.062500 -14.491600
v 444.762500 -22.062500 -13.401923
v 444.762500 -21.975000 -14.392538
v 444.762500 -21.975000 -14.491600
v 444.762500 -21.975000 -14.293477
v 444.762500 -21.975000 -14.194415
v 444.762500 -21.975000 -14.095354
v 444.762500 -21.975000 -13.996292
v 444.762500 -21.975000 -13.897230
v 444.762500 -21.975000 -13.798169
v 444.762500 -21.975000 -13.699107
v 444.762500 -21.975000 -13.600046
v 444.762500 -21.975000 -13.500984
v 444.762500 -21.975000 -13.401923
v 444.850000 -23.025000 -14.491600
v 444.850000 -23.025000 -14.392538
v 444.850000 -22.937500 -14.491600
v 444.850000 -23.025000 -14.293477
v 444.850000 -23.025000 -14.194415
v 444.850000 -23.025000 -14.095354
v 444.850000 -23.025000 -13.996292
v 444.850000 -23.025000 -13.897230
v 444.850000 -23.025000 -13.798169
v 444.850000 -23.025000 -13.699107
v 444.850000 -23.025000 -13.600046
v 444.850000 -23.025000 -13.500984
v 444.850000 -23.025000 -13.401923
v 444.850000 -22.937500 -13.401923
v 444.850000 -22.850000 -14.491600
v 444.850000 -22.850000 -13.401923
v 444.850000 -22.762500 -14.491600
v 444.850000 -22.762500 -13.401923
v 444.850000 -22.675000 -14.491600
v 444.850000 -22.675000 -13.401923
v 444.850000 -22.587500 -14.491600
v 444.850000 -22.587500 -13.401923
v 444.850000 -22.500000 -14.491600
v 444.850000 -22.500000 -13.401923
v 444.850000 -22.412500 -14.491600
v 444.850000 -22.412500 -13.401923
v 444.850000 -22.325000 -14.491600
v 444.850000 -22.325000 -13.401923
v 444.850000 -22.237500 -14.491600
v 444.850000 -22.237500 -13.401923
v 444.850000 -22.150000 -14.491600
v 444.850000 -22.150000 -13.401923
v 444.850000 -22.062500 -14.491600
v 444.850000 -22.062500 -13.401923
v 444.850000 -21.975000 -14.392538
v 444.850000 -21.975000 -14.491600
v 444.850000 -21.975000 -14.293477
v 444.850000 -21.975000 -14.194415
v 444.850000 -21.975000 -14.095354
v 444.850000 -21.975000 -13.996292
v 444.850000 -21.975000 -13.897230
v 444.850000 -21.975000 -13.798169
v 444.850000 -21.975000 -13.699107
v 444.850000 -21.975000 -13.600046
v 444.850000 -21.975000 -13.500984
v 444.850000 -21.975000 -13.401923
v 444.937500 -23.025000 -14.491600
v 444.937500 -23.025000 -14.392538
v 444.937500 -22.937500 -14.491600
v 444.937500 -23.025000 -14.293477
v 444.937500 -23.025000 -14.194415
v 444.937500 -23.025000 -14.095354
v 444.937500 -23.025000 -13.996292
v 444.937500 -23.025000 -13.897230
v 444.937500 -23.025000 -13.798169
v 444.937500 -23.025000 -13.699107
v 444.937500 -23.025000 -13.600046
v 444.937500 -23.025000 -13.500984
v 444.937500 -23.025000 -13.401923
v 444.937500 -22.937500 -13.401923
v 444.937500 -22.850000 -14.491600
v 444.937500 -22.850000 -13.401923
v 444.937500 -22.762500 -14.491600
v 444.937500 -22.762500 -13.401923
v 444.937500 -22.675000 -14.491600
v 444.937500 -22.675000 -13.401923
v 444.937500 -22.587500 -14.491600
v 444.937500 -22.587500 -13.401923
v 444.937500 -22.500000 -14.491600
v 444.937500 -22.500000 -13.401923
v 444.937500 -22.412500 -14.491600
v 444.937500 -22.412500 -13.401923
v 444.937500 -22.325000 -14.491600
v 444.937500 -22.325000 -13.401923
v 444.937500 -22.237500 -14.491600
v 444.937500 -22.237500 -13.401923
v 444.937500 -22.150000 -14.491600
v 444.937500 -22.150000 -13.401923
v 444.937500 -22.062500 -14.491600
v 444.937500 -22.062500 -13.401923
v 444.937500 -21.975000 -14.392538
v 444.937500 -21.975000 -14.491600
v 444.937500 -21.975000 -14.293477
v 444.937500 -21.975000 -14.194415
v 444.937500 -21.975000 -14.095354
v 444.937500 -21.975000 -13.996292
v 444.937500 -21.975000 -13.897230
v 444.937500 -21.975000 -13.798169
v 444.937500 -21.975000 -13.699107
v 444.937500 -21.975000 -13.600046
v 444.937500 -21.975000 -13.500984
v 444.937500 -21.975000 -13.401923
v 445.025000 -23.025000 -14.491600
v 445.025000 -23.025000 -14.392538
v 445.025000 -22.937500 -14.392538
v 445.025000 -22.937500 -14.491600
v 445.025000 -23.025000 -14.293477
v 445.025000 -22.937500 -14.293477
v 445.025000 -23.025000 -14.194415
v 445.025000 -22.937500 -14.194415
v 445.025000 -23.025000 -14.095354
v 445.025000 -22.937500 -14.095354
v 445.025000 -23.025000 -13.996292
v 445.025000 -22.937500 -13.996292
v 445.025000 -23.025000 -13.897230
v 445.025000 -22.937500 -13.897230
v 445.025000 -23.025000 -13.798169
v 445.025000 -22.937500 -13.798169
v 445.025000 -23.025000 -13.699107
v 445.025000 -22.937500 -13.699107
v 445.025000 -23.025000 -13.600046
v 445.025000 -22.937500 -13.600046
v 445.025000 -23.025000 -13.500984
v 445.025000 -22.937500 -13.500984
v 445.025000 -23.025000 -13.401923
v 445.025000 -22.937500 -13.401923
v 445.025000 -22.850000 -14.392538
v 445.025000 -22.850000 -14.491600
v 445.025000 -22.850000 -14.293477
v 445.025000 -22.850000 -14.194415
v 445.025000 -22.850000 -14.095354
v 445.025000 -22.850000 -13.996292
v 445.025000 -22.850000 -13.897230
v 445.025000 -22.850000 -13.798169
v 445.025000 -22.850000 -13.699107
v 445.025000 -22.850000 -13.600046
v 445.025000 -22.850000 -13.500984
v 445.025000 -22.850000 -13.401923
v 445.025000 -22.762500 -14.392538
v 445.025000 -22.762500 -14.491600
v 445.025000 -22.762500 -14.293477
v 445.025000 -22.762500 -14.194415
v 445.025000 -22.762500 -14.095354
v 445.025000 -22.762500 -13.996292
v 445.025000 -22.762500 -13.897230
v 445.025000 -22.762500 -13.798169
v 445.025000 -22.762500 -13.699107
v 445.025000 -22.762500 -13.600046
v 445.025000 -22.762500 -13.500984
v 445.025000 -22.762500 -13.401923
v 445.025000 -22.675000 -14.392538
v 445.025000 -22.675000 -14.491600
v 445.025000 -22.675000 -14.293477
v 445.025000 -22.675000 -14.194415
v 445.025000 -22.675000 -14.095354
v 445.025000 -22.675000 -13.996292
v 445.025000 -22.675000 -13.897230
v 445.025000 -22.675000 -13.798169
v 445.025000 -22.675000 -13.699107
v 445.025000 -22.675000 -13.600046
v 445.025000 -22.675000 -13.500984
v 445.025000 -22.675000 -13.401923
v 445.025000 -22.587500 -14.392538
v 445.025000 -22.587500 -14.491600
v 445.025000 -22.587500 -14.293477
v 445.025000 -22.587500 -14.194415
v 445.025000 -22.587500 -14.095354
v 445.025000 -22.587500 -13.996292
v 445.025000 -22.587500 -13.897230
v 445.025000 -22.587500 -13.798169
v 445.025000 -22.587500 -13.699107
v 445.025000 -22.587500 -13.600046
v 445.025000 -22.587500 -13.500984
v 445.025000 -22.587500 -13.401923
v 445.025000 -22.500000 -14.392538
v 445.025000 -22.500000 -14.491600
v 445.025000 -22.500000 -14.293477
v 445.025000 -22.500000 -14.194415
v 445.025000 -22.500000 -14.095354
v 445.025000 -22.500000 -13.996292
v 445.025000 -22.500000 -13.897230
v 445.025000 -22.500000 -13.798169
v 445.025000 -22.500000 -13.699107
v 445.025000 -22.500000 -13.600046
v 445.025000 -22.500000 -13.500984
v 445.025000 -22.500000 -13.401923
v 445.025000 -22.412500 -14.392538
v 445.025000 -22.412500 -14.491600
v 445.025000 -22.412500 -14.293477
v 445.025000 -22.412500 -14.194415
v 445.025000 -22.412500 -14.095354
v 445.025000 -22.412500 -13.996292
v 445.025000 -22.412500 -13.897230
v 445.025000 -22.412500 -13.798169
v 445.025000 -22.412500 -13.699107
v 445.025000 -22.412500 -13.600046
v 445.025000 -22.412500 -13.500984
v 445.025000 -22.412500 -13.401923
v 445.025000 -22.325000 -14.392538
v 445.025000 -22.325000 -14.491600
v 445.025000 -22.325000 -14.293477
v 445.025000 -22.325000 -14.194415
v 445.025000 -22.325000 -14.095354
v 445.025000 -22.325000 -13.996292
v 445.025000 -22.325000 -13.897230
v 445.025000 -22.325000 -13.798169
v 445.025000 -22.325000 -13.699107
v 445.025000 -22.325000 -13.600046
v 445.025000 -22.325000 -13.500984
v 445.025000 -22.325000 -13.401923
v 445.025000 -22.237500 -14.392538
v 445.025000 -22.237500 -14.491600
v 445.025000 -22.237500 -14.293477
v 445.025000 -22.237500 -14.194415
v 445.025000 -22.237500 -14.095354
v 445.025000 -22.237500 -13.996292
v 445.025000 -22.237500 -13.897230
v 445.025000 -22.237500 -13.798169
v 445.025000 -22.237500 -13.699107
v 445.025000 -22.237500 -13.600046
v 445.025000 -22.237500 -13.500984
v 445.025000 -22.237500 -13.401923
v 445.025000 -22.150000 -14.392538
v 445.025000 -22.150000 -14.491600
v 445.025000 -22.150000 -14.293477
v 445.025000 -22.150000 -14.194415
v 445.025000 -22.150000 -14.095354
v 445.025000 -22.150000 -13.996292
v 445.025000 -22.150000 -13.897230
v 445.025000 -22.150000 -13.798169
v 445.025000 -22.150000 -13.699107
v 445.025000 -22.150000 -13.600046
v 445.025000 -22.150000 -13.500984
v 445.025000 -22.150000 -13.401923
v 445.025000 -22.062500 -14.392538
v 445.025000 -22.062500 -14.491600
v 445.025000 -22.062500 -14.293477
v 445.025000 -22.062500 -14.194415
v 445.025000 -22.062500 -14.095354
v 445.025000 -22.062500 -13.996292
v 445.025000 -22.062500 -13.897230
v 445.025000 -22.062500 -13.798169
v 445.025000 -22.062500 -13.699107
v 445.025000 -22.062500 -13.600046
v 445.025000 -22.062500 -13.500984
v 445.025000 -22.062500 -13.401923
v 445.025000 -21.975000 -14.392538
v 445.025000 -21.975000 -14.491600
v 445.025000 -21.975000 -14.293477
v 445.025000 -21.975000 -14.194415
v 445.025000 -21.975000 -14.095354
v 445.025000 -21.975000 -13.996292
v 445.025000 -21.975000 -13.897230
v 445.025000 -21.975000 -13.798169
v 445.025000 -21.975000 -13.699107
v 445.025000 -21.975000 -13.600046
v 445.025000 -21.975000 -13.500984
v 445.025000 -21.975000 -13.401923
f 1 2 3
f 1 3 4
f 1 5 6
f 1 6 4
f 1 2 7
f 1 7 5
f 4 3 8
f 4 8 9
f 4 6 10
f 4 10 9
f 9 8 11
f 9 11 12
f 9 10 13
f 9 13 12
f 12 11 14
f 12 14 15
f 12 13 16
f 12 16 15
f 15 14 17
f 15 17 18
f 15 16 19
f 15 19 18
f 18 17 20
f 18 20 21
f 18 19 22
f 18 22 21
f 21 20 23
f 21 23 24
f 21 22 25
f 21 25 24
f 24 23 26
f 24 26 27
f 24 25 28
f 24 28 27
f 27 26 29
f 27 29 30
f 27 28 31
f 27 31 30
f 30 29 32
f 30 32 33
f 30 31 34
f 30 34 33
f 33 32 35
f 33 35 36
f 33 34 37
f 33 37 36
f 36 35 38
f 36 38 39
f 36 37 40
f 36 40 39
f 39 40 41
f 39 41 38
f 2 42 43
f 2 43 3
f 2 42 44
f 2 44 7
f 3 43 45
f 3 45 8
f 8 45 46
f 8 46 11
f 11 46 47
f 11 47 14
f 14 47 48
f 14 48 17
f 17 48 49
f 17 49 20
f 20 49 50
f 20 50 23
f 23 50 51
f 23 51 26
f 26 51 52
f 26 52 29
f 29 52 53
f 29 53 32
f 32 53 54
f 32 54 35
f 35 54 55
f 35 55 38
f 38 41 56
f 38 56 55
f 42 57 58
f 42 58 43
f 42 57 59
f 42 59 44
f 43 58 60
f 43 60 45
f 45 60 61
f 45 61 46
f 46 61 62
f 46 62 47
f 47 62 63
f 47 63 48
f 48 63 64
f 48 64 49
f 49 64 65
f 49 65 50
f 50 65 66
f 50 66 51
f 51 66 67
f 51 67 52
f 52 67 68
f 52 68 53
f 53 68 69
f 53 69 54
f 54 69 70
f 54 70 55
f 55 56 71
f 55 71 70
f 57 72 73
f 57 73 58
f 57 72 74
f 57 74 59
f 58 73 75
f 58 75 60
f 60 75 76
f 60 76 61
f 61 76 77
f 61 77 62
f 62 77 78
f 62 78 63
f 63 78 79
f 63 79 64
f 64 79 80
f 64 80 65
f 65 80 81
f 65 81 66
f 66 81 82
f 66 82 67
f 67 82 83
f 67 83 68
f 68 83 84
f 68 84 69
f 69 84 85
f 69 85 70
f 70 71 86
f 70 86 85
f 72 87 88
f 72 88 73
f 72 87 89
f 72 89 74
f 73 88 90
f 73 90 75
f 75 90 91
f 75 91 76
f 76 91 92
f 76 92 77
f 77 92 93
f 77 93 78
f 78 93 94
f 78 94 79
f 79 94 95
f 79 95 80
f 80 95 96
f 80 96 81
f 81 96 97
f 81 97 82
f 82 97 98
f 82 98 83
f 83 98 99
f 83 99 84
f 84 99 100
f 84 100 85
f 85 86 101
f 85 101 100
f 87 102 103
f 87 103 88
f 87 102 104
f 87 104 89
f 88 103 105
f 88 105 90
f 90 105 106
f 90 106 91
f 91 106 107
f 91 107 92
f 92 107 108
f 92 108 93
f 93 108 109
f 93 109 94
f 94 109 110
f 94 110 95
f 95 110 111
f 95 111 96
f 96 111 112
f 96 112 97
f 97 112 113
f 97 113 98
f 98 113 114
f 98 114 99
f 99 114 115
f 99 115 100
f 100 101 116
f 100 116 115
f 102 117 118
f 102 118 103
f 102 117 119
f 102 119 104
f 103 118 120
f 103 120 105
f 105 120 121
f 105 121 106
f 106 121 122
f 106 122 107
f 107 122 123
f 107 123 108
f 108 123 124
f 108 124 109
f 109 124 125
f 109 125 110
f 110 125 126
f 110 126 111
f 111 126 127
f 111 127 112
f 112 127 128
f 112 128 113
f 113 128 129
f 113 129 114
f 114 129 130
f 114 130 115
f 115 116 131
f 115 131 130
f 117 132 133
f 117 133 118
f 117 132 134
f 117 134 119
f 118 133 135
f 118 135 120
f 120 135 136
f 120 136 121
f 121 136 137
f 121 137 122
f 122 137 138
f 122 138 123
f 123 138 139
f 123 139 124
f 124 139 140
f 124 140 125
f 125 140 141
f 125 141 126
f 126 141 142
f 126 142 127
f 127 142 143
f 127 143 128
f 128 143 144
f 128 144 129
f 129 144 145
f 129 145 130
f 130 131 146
f 130 146 145
f 132 147 148
f 132 148 133
f 132 147 149
f 132 149 134
f 133 148 150
f 133 150 135
f 135 150 151
f 135 151 136
f 136 151 152
f 136 152 137
f 137 152 153
f 137 153 138
f 138 153 154
f 138 154 139
f 139 154 155
f 139 155 140
f 140 155 156
f 140 156 141
f 141 156 157
f 141 157 142
f 142 157 158
f 142 158 143
f 143 158 159
f 143 159 144
f 144 159 160
f 144 160 145
f 145 146 161
f 145 161 160
f 147 162 163
f 147 163 148
f 147 162 164
f 147 164 149
f 148 163 165
f 148 165 150
f 150 165 166
f 150 166 151
f 151 166 167
f 151 167 152
f 152 167 168
f 152 168 153
f 153 168 169
f 153 169 154
f 154 169 170
f 154 170 155
f 155 170 171
f 155 171 156
f 156 171 172
f 156 172 157
f 157 172 173
f 157 173 158
f 158 173 174
f 158 174 159
f 159 174 175
f 159 175 160
f 160 161 176
f 160 176 175
f 162 177 178
f 162 178 163
f 162 177 179
f 162 179 164
f 163 178 180
f 163 180 165
f 165 180 181
f 165 181 166
f 166 181 182
f 166 182 167
f 167 182 183
f 167 183 168
f 168 183 184
f 168 184 169
f 169 184 185
f 169 185 170
f 170 185 186
f 170 186 171
f 171 186 187
f 171 187 172
f 172 187 188
f 172 188 173
f 173 188 189
f 173 189 174
f 174 189 190
f 174 190 175
f 175 176 191
f 175 191 190
f 177 192 193
f 177 193 178
f 192 193 194
f 192 194 195
f 177 192 195
f 177 195 179
f 178 193 196
f 178 196 180
f 193 196 197
f 193 197 194
f 180 196 198
f 180 198 181
f 196 198 199
f 196 199 197
f 181 198 200
f 181 200 182
f 198 200 201
f 198 201 199
f 182 200 202
f 182 202 183
f 200 202 203
f 200 203 201
f 183 202 204
f 183 204 184
f 202 204 205
f 202 205 203
f 184 204 206
f 184 206 185
f 204 206 207
f 204 207 205
f 185 206 208
f 185 208 186
f 206 208 209
f 206 209 207
f 186 208 210
f 186 210 187
f 208 210 211
f 208 211 209
f 187 210 212
f 187 212 188
f 210 212 213
f 210 213 211
f 188 212 214
f 188 214 189
f 212 214 215
f 212 215 213
f 189 214 216
f 189 216 190
f 214 216 217
f 214 217 215
f 190 191 217
f 190 217 216
f 5 218 219
f 5 219 6
f 5 7 220
f 5 220 218
f 6 219 221
f 6 221 10
f 10 221 222
f 10 222 13
f 13 222 223
f 13 223 16
f 16 223 224
f 16 224 19
f 19 224 225
f 19 225 22
f 22 225 226
f 22 226 25
f 25 226 227
f 25 227 28
f 28 227 228
f 28 228 31
f 31 228 229
f 31 229 34
f 34 229 230
f 34 230 37
f 37 230 231
f 37 231 40
f 40 231 232
f 40 232 41
f 7 44 233
f 7 233 220
f 41 232 234
f 41 234 56
f 44 59 235
f 44 235 233
f 56 234 236
f 56 236 71
f 59 74 237
f 59 237 235
f 71 236 238
f 71 238 86
f 74 89 239
f 74 239 237
f 86 238 240
f 86 240 101
f 89 104 241
f 89 241 239
f 101 240 242
f 101 242 116
f 104 119 243
f 104 243 241
f 116 242 244
f 116 244 131
f 119 134 245
f 119 245 243
f 131 244 246
f 131 246 146
f 134 149 247
f 134 247 245
f 146 246 248
f 146 248 161
f 149 164 249
f 149 249 247
f 161 248 250
f 161 250 176
f 164 179 251
f 164 251 249
f 176 250 252
f 176 252 191
f 195 194 253
f 195 253 254
f 179 195 254
f 179 254 251
f 194 197 255
f 194 255 253
f 197 199 256
f 197 256 255
f 199 201 257
f 199 257 256
f 201 203 258
f 201 258 257
f 203 205 259
f 203 259 258
f 205 207 260
f 205 260 259
f 207 209 261
f 207 261 260
f 209 211 262
f 209 262 261
f 211 213 263
f 211 263 262
f 213 215 264
f 213 264 263
f 215 217 265
f 215 265 264
f 191 252 265
f 191 265 217
f 218 266 267
f 218 267 219
f 218 220 268
f 218 268 266
f 219 267 269
f 219 269 221
f 221 269 270
f 221 270 222
f 222 270 271
f 222 271 223
f 223 271 272
f 223 272 224
f 224 272 273
f 224 273 225
f 225 273 274
f 225 274 226
f 226 274 275
f 226 275 227
f 227 275 276
f 227 276 228
f 228 276 277
f 228 277 229
f 229 277 278
f 229 278 230
f 230 278 279
f 230 279 231
f 231 279 280
f 231 280 232
f 220 233 281
f 220 281 268
f 232 280 282
f 232 282 234
f 233 235 283
f 233 283 281
f 234 282 284
f 234 284 236
f 235 237 285
f 235 285 283
f 236 284 286
f 236 286 238
f 237 239 287
f 237 287 285
f 238 286 288
f 238 288 240
f 239 241 289
f 239 289 287
f 240 288 290
f 240 290 242
f 241 243 291
f 241 291 289
f 242 290 292
f 242 292 244
f 243 245 293
f 243 293 291
f 244 292 294
f 244 294 246
f 245 247 295
f 245 295 293
f 246 294 296
f 246 296 248
f 247 249 297
f 247 297 295
f 248 296 298
f 248 298 250
f 249 251 299
f 249 299 297
f 250 298 300
f 250 300 252
f 254 253 301
f 254 301 302
f 251 254 302
f 251 302 299
f 253 255 303
f 253 303 301
f 255 256 304
f 255 304 303
f 256 257 305
f 256 305 304
f 257 258 306
f 257 306 305
f 258 259 307
f 258 307 306
f 259 260 308
f 259 308 307
f 260 261 309
f 260 309 308
f 261 262 310
f 261 310 309
f 262 263 311
f 262 311 310
f 263 264 312
f 263 312 311
f 264 265 313
f 264 313 312
f 252 300 313
f 252 313 265
f 266 314 315
f 266 315 267
f 266 268 316
f 266 316 314
f 267 315 317
f 267 317 269
f 269 317 318
f 269 318 270
f 270 318 319
f 270 319 271
f 271 319 320
f 271 320 272
f 272 320 321
f 272 321 273
f 273 321 322
f 273 322 274
f 274 322 323
f 274 323 275
f 275 323 324
f 275 324 276
f 276 324 325
f 276 325 277
f 277 325 326
f 277 326 278
f 278 326 327
f 278 327 279
f 279 327 328
f 279 328 280
f 268 281 329
f 268 329 316
f 280 328 330
f 280 330 282
f 281 283 331
f 281 331 329
f 282 330 332
f 282 332 284
f 283 285 333
f 283 333 331
f 284 332 334
f 284 334 286
f 285 287 335
f 285 335 333
f 286 334 336
f 286 336 288
f 287 289 337
f 287 337 335
f 288 336 338
f 288 338 290
f 289 291 339
f 289 339 337
f 290 338 340
f 290 340 292
f 291 293 341
f 291 341 339
f 292 340 342
f 292 342 294
f 293 295 343
f 293 343 341
f 294 342 344
f 294 344 296
f 295 297 345
f 295 345 343
f 296 344 346
f 296 346 298
f 297 299 347
f 297 347 345
f 298 346 348
f 298 348 300
f 302 301 349
f 302 349 350
f 299 302 350
f 299 350 347
f 301 303 351
f 301 351 349
f 303 304 352
f 303 352 351
f 304 305 353
f 304 353 352
f 305 306 354
f 305 354 353
f 306 307 355
f 306 355 354
f 307 308 356
f 307 356 355
f 308 309 357
f 308 357 356
f 309 310 358
f 309 358 357
f 310 311 359
f 310 359 358
f 311 312 360
f 311 360 359
f 312 313 361
f 312 361 360
f 300 348 361
f 300 361 313
f 314 362 363
f 314 363 315
f 314 316 364
f 314 364 362
f 315 363 365
f 315 365 317
f 317 365 366
f 317 366 318
f 318 366 367
f 318 367 319
f 319 367 368
f 319 368 320
f 320 368 369
f 320 369 321
f 321 369 370
f 321 370 322
f 322 370 371
f 322 371 323
f 323 371 372
f 323 372 324
f 324 372 373
f 324 373 325
f 325 373 374
f 325 374 326
f 326 374 375
f 326 375 327
f 327 375 376
f 327 376 328
f 316 329 377
f 316 377 364
f 328 376 378
f 328 378 330
f 329 331 379
f 329 379 377
f 330 378 380
f 330 380 332
f 331 333 381
f 331 381 379
f 332 380 382
f 332 382 334
f 333 335 383
f 333 383 381
f 334 382 384
f 334 384 336
f 335 337 385
f 335 385 383
f 336 384 386
f 336 386 338
f 337 339 387
f 337 387 385
f 338 386 388
f 338 388 340
f 339 341 389
f 339 389 387
f 340 388 390
f 340 390 342
f 341 343 391
f 341 391 389
f 342 390 392
f 342 392 344
f 343 345 393
f 343 393 391
f 344 392 394
f 344 394 346
f 345 347 395
f 345 395 393
f 346 394 396
f 346 396 348
f 350 349 397
f 350 397 398
f 347 350 398
f 347 398 395
f 349 351 399
f 349 399 397
f 351 352 400
f 351 400 399
f 352 353 401
f 352 401 400
f 353 354 402
f 353 402 401
f 354 355 403
f 354 403 402
f 355 356 404
f 355 404 403
f 356 357 405
f 356 405 404
f 357 358 406
f 357 406 405
f 358 359 407
f 358 407 406
f 359 360 408
f 359 408 407
f 360 361 409
f 360 409 408
f 348 396 409
f 348 409 361
f 362 410 411
f 362 411 363
f 362 364 412
f 362 412 410
f 363 411 413
f 363 413 365
f 365 413 414
f 365 414 366
f 366 414 415
f 366 415 367
f 367 415 416
f 367 416 368
f 368 416 417
f 368 417 369
f 369 417 418
f 369 418 370
f 370 418 419
f 370 419 371
f 371 419 420
f 371 420 372
f 372 420 421
f 372 421 373
f 373 421 422
f 373 422 374
f 374 422 423
f 374 423 375
f 375 423 424
f 375 424 376
f 364 377 425
f 364 425 412
f 376 424 426
f 376 426 378
f 377 379 427
f 377 427 425
f 378 426 428
f 378 428 380
f 379 381 429
f 379 429 427
f 380 428 430
f 380 430 382
f 381 383 431
f 381 431 429
f 382 430 432
f 382 432 384
f 383 385 433
f 383 433 431
f 384 432 434
f 384 434 386
f 385 387 435
f 385 435 433
f 386 434 436
f 386 436 388
f 387 389 437
f 387 437 435
f 388 436 438
f 388 438 390
f 389 391 439
f 389 439 437
f 390 438 440
f 390 440 392
f 391 393 441
f 391 441 439
f 392 440 442
f 392 442 394
f 393 395 443
f 393 443 441
f 394 442 444
f 394 444 396
f 398 397 445
f 398 445 446
f 395 398 446
f 395 446 443
f 397 399 447
f 397 447 445
f 399 400 448
f 399 448 447
f 400 401 449
f 400 449 448
f 401 402 450
f 401 450 449
f 402 403 451
f 402 451 450
f 403 404 452
f 403 452 451
f 404 405 453
f 404 453 452
f 405 406 454
f 405 454 453
f 406 407 455
f 406 455 454
f 407 408 456
f 407 456 455
f 408 409 457
f 408 457 456
f 396 444 457
f 396 457 409
f 410 458 459
f 410 459 411
f 410 412 460
f 410 460 458
f 411 459 461
f 411 461 413
f 413 461 462
f 413 462 414
f 414 462 463
f 414 463 415
f 415 463 464
f 415 464 416
f 416 464 465
f 416 465 417
f 417 465 466
f 417 466 418
f 418 466 467
f 418 467 419
f 419 467 468
f 419 468 420
f 420 468 469
f 420 469 421
f 421 469 470
f 421 470 422
f 422 470 471
f 422 471 423
f 423 471 472
f 423 472 424
f 412 425 473
f 412 473 460
f 424 472 474
f 424 474 426
f 425 427 475
f 425 475 473
f 426 474 476
f 426 476 428
f 427 429 477
f 427 477 475
f 428 476 478
f 428 478 430
f 429 431 479
f 429 479 477
f 430 478 480
f 430 480 432
f 431 433 481
f 431 481 479
f 432 480 482
f 432 482 434
f 433 435 483
f 433 483 481
f 434 482 484
f 434 484 436
f 435 437 485
f 435 485 483
f 436 484 486
f 436 486 438
f 437 439 487
f 437 487 485
f 438 486 488
f 438 488 440
f 439 441 489
f 439 489 487
f 440 488 490
f 440 490 442
f 441 443 491
f 441 491 489
f 442 490 492
f 442 492 444
f 446 445 493
f 446 493 494
f 443 446 494
f 443 494 491
f 445 447 495
f 445 495 493
f 447 448 496
f 447 496 495
f 448 449 497
f 448 497 496
f 449 450 498
f 449 498 497
f 450 451 499
f 450 499 498
f 451 452 500
f 451 500 499
f 452 453 501
f 452 501 500
f 453 454 502
f 453 502 501
f 454 455 503
f 454 503 502
f 455 456 504
f 455 504 503
f 456 457 505
f 456 505 504
f 444 492 505
f 444 505 457
f 458 506 507
f 458 507 459
f 458 460 508
f 458 508 506
f 459 507 509
f 459 509 461
f 461 509 510
f 461 510 462
f 462 510 511
f 462 511 463
f 463 511 512
f 463 512 464
f 464 512 513
f 464 513 465
f 465 513 514
f 465 514 466
f 466 514 515
f 466 515 467
f 467 515 516
f 467 516 468
f 468 516 517
f 468 517 469
f 469 517 518
f 469 518 470
f 518 519 520
f 518 520 521
f 470 518 519
f 470 519 471
f 471 519 520
f 471 520 472
f 460 473 522
f 460 522 508
f 521 520 523
f 521 523 524
f 472 520 523
f 472 523 474
f 473 475 525
f 473 525 522
f 524 523 526
f 524 526 527
f 474 523 526
f 474 526 476
f 475 477 528
f 475 528 525
f 527 526 529
f 527 529 530
f 476 526 529
f 476 529 478
f 477 479 531
f 477 531 528
f 530 529 532
f 530 532 533
f 478 529 532
f 478 532 480
f 479 481 534
f 479 534 531
f 533 532 535
f 533 535 536
f 480 532 535
f 480 535 482
f 481 483 537
f 481 537 534
f 536 535 538
f 536 538 539
f 482 535 538
f 482 538 484
f 483 485 540
f 483 540 537
f 539 538 541
f 539 541 542
f 484 538 541
f 484 541 486
f 485 487 543
f 485 543 540
f 542 541 544
f 542 544 545
f 486 541 544
f 486 544 488
f 487 489 546
f 487 546 543
f 545 544 547
f 545 547 548
f 488 544 547
f 488 547 490
f 489 491 549
f 489 549 546
f 548 547 550
f 548 550 551
f 490 547 550
f 490 550 492
f 494 493 552
f 494 552 553
f 491 494 553
f 491 553 549
f 493 495 554
f 493 554 552
f 495 496 555
f 495 555 554
f 496 497 556
f 496 556 555
f 497 498 557
f 497 557 556
f 498 499 558
f 498 558 557
f 499 500 559
f 499 559 558
f 500 501 560
f 500 560 559
f 501 502 561
f 501 561 560
f 502 503 562
f 502 562 561
f 503 504 563
f 503 563 562
f 551 550 564
f 551 564 563
f 504 505 564
f 504 564 563
f 492 550 564
f 492 564 505
f 506 565 566
f 506 566 507
f 506 508 567
f 506 567 565
f 507 566 568
f 507 568 509
f 509 568 569
f 509 569 510
f 510 569 570
f 510 570 511
f 511 570 571
f 511 571 512
f 512 571 572
f 512 572 513
f 513 572 573
f 513 573 514
f 514 573 574
f 514 574 515
f 515 574 575
f 515 575 516
f 516 575 576
f 516 576 517
f 517 576 577
f 517 577 518
f 518 577 578
f 518 578 521
f 508 522 579
f 508 579 567
f 521 578 580
f 521 580 524
f 522 525 581
f 522 581 579
f 524 580 582
f 524 582 527
f 525 528 583
f 525 583 581
f 527 582 584
f 527 584 530
f 528 531 585
f 528 585 583
f 530 584 586
f 530 586 533
f 531 534 587
f 531 587 585
f 533 586 588
f 533 588 536
f 534 537 589
f 534 589 587
f 536 588 590
f 536 590 539
f 537 540 591
f 537 591 589
f 539 590 592
f 539 592 542
f 540 543 593
f 540 593 591
f 542 592 594
f 542 594 545
f 543 546 595
f 543 595 593
f 545 594 596
f 545 596 548
f 546 549 597
f 546 597 595
f 548 596 598
f 548 598 551
f 553 552 599
f 553 599 600
f 549 553 600
f 549 600 597
f 552 554 601
f 552 601 599
f 554 555 602
f 554 602 601
f 555 556 603
f 555 603 602
f 556 557 604
f 556 604 603
f 557 558 605
f 557 605 604
f 558 559 606
f 558 606 605
f 559 560 607
f 559 607 606
f 560 561 608
f 560 608 607
f 561 562 609
f 561 609 608
f 562 563 610
f 562 610 609
f 551 598 610
f 551 610 563
f 565 611 612
f 565 612 566
f 565 567 613
f 565 613 611
f 566 612 614
f 566 614 568
f 568 614 615
f 568 615 569
f 569 615 616
f 569 616 570
f 570 616 617
f 570 617 571
f 571 617 618
f 571 618 572
f 572 618 619
f 572 619 573
f 573 619 620
f 573 620 574
f 574 620 621
f 574 621 575
f 575 621 622
f 575 622 576
f 576 622 623
f 576 623 577
f 577 623 624
f 577 624 578
f 567 579 625
f 567 625 613
f 578 624 626
f 578 626 580
f 579 581 627
f 579 627 625
f 580 626 628
f 580 628 582
f 581 583 629
f 581 629 627
f 582 628 630
f 582 630 584
f 583 585 631
f 583 631 629
f 584 630 632
f 584 632 586
f 585 587 633
f 585 633 631
f 586 632 634
f 586 634 588
f 587 589 635
f 587 635 633
f 588 634 636
f 588 636 590
f 589 591 637
f 589 637 635
f 590 636 638
f 590 638 592
f 591 593 639
f 591 639 637
f 592 638 640
f 592 640 594
f 593 595 641
f 593 641 639
f 594 640 642
f 594 642 596
f 595 597 643
f 595 643 641
f 596 642 644
f 596 644 598
f 600 599 645
f 600 645 646
f 597 600 646
f 597 646 643
f 599 601 647
f 599 647 645
f 601 602 648
f 601 648 647
f 602 603 649
f 602 649 648
f 603 604 650
f 603 650 649
f 604 605 651
f 604 651 650
f 605 606 652
f 605 652 651
f 606 607 653
f 606 653 652
f 607 608 654
f 607 654 653
f 608 609 655
f 608 655 654
f 609 610 656
f 609 656 655
f 598 644 656
f 598 656 610
f 611 657 658
f 611 658 612
f 611 613 659
f 611 659 657
f 612 658 660
f 612 660 614
f 614 660 661
f 614 661 615
f 615 661 662
f 615 662 616
f 616 662 663
f 616 663 617
f 617 663 664
f 617 664 618
f 618 664 665
f 618 665 619
f 619 665 666
f 619 666 620
f 620 666 667
f 620 667 621
f 621 667 668
f 621 668 622
f 622 668 669
f 622 669 623
f 623 669 670
f 623 670 624
f 613 625 671
f 613 671 659
f 624 670 672
f 624 672 626
f 625 627 673
f 625 673 671
f 626 672 674
f 626 674 628
f 627 629 675
f 627 675 673
f 628 674 676
f 628 676 630
f 629 631 677
f 629 677 675
f 630 676 678
f 630 678 632
f 631 633 679
f 631 679 677
f 632 678 680
f 632 680 634
f 633 635 681
f 633 681 679
f 634 680 682
f 634 682 636
f 635 637 683
f 635 683 681
f 636 682 684
f 636 684 638
f 637 639 685
f 637 685 683
f 638 684 686
f 638 686 640
f 639 641 687
f 639 687 685
f 640 686 688
f 640 688 642
f 641 643 689
f 641 689 687
f 642 688 690
f 642 690 644
f 646 645 691
f 646 691 692
f 643 646 692
f 643 692 689
f 645 647 693
f 645 693 691
f 647 648 694
f 647 694 693
f 648 649 695
f 648 695 694
f 649 650 696
f 649 696 695
f 650 651 697
f 650 697 696
f 651 652 698
f 651 698 697
f 652 653 699
f 652 699 698
f 653 654 700
f 653 700 699
f 654 655 701
f 654 701 700
f 655 656 702
f 655 702 701
f 644 690 702
f 644 702 656
f 703 704 705
f 703 705 706
f 657 703 704
f 657 704 658
f 657 659 706
f 657 706 703
f 704 707 708
f 704 708 705
f 658 704 707
f 658 707 660
f 707 709 710
f 707 710 708
f 660 707 709
f 660 709 661
f 709 711 712
f 709 712 710
f 661 709 711
f 661 711 662
f 711 713 714
f 711 714 712
f 662 711 713
f 662 713 663
f 713 715 716
f 713 716 714
f 663 713 715
f 663 715 664
f 715 717 718
f 715 718 716
f 664 715 717
f 664 717 665
f 717 719 720
f 717 720 718
f 665 717 719
f 665 719 666
f 719 721 722
f 719 722 720
f 666 719 721
f 666 721 667
f 721 723 724
f 721 724 722
f 667 721 723
f 667 723 668
f 723 725 726
f 723 726 724
f 668 723 725
f 668 725 669
f 669 725 726
f 669 726 670
f 706 705 727
f 706 727 728
f 659 671 728
f 659 728 706
f 705 708 729
f 705 729 727
f 708 710 730
f 708 730 729
f 710 712 731
f 710 731 730
f 712 714 732
f 712 732 731
f 714 716 733
f 714 733 732
f 716 718 734
f 716 734 733
f 718 720 735
f 718 735 734
f 720 722 736
f 720 736 735
f 722 724 737
f 722 737 736
f 724 726 738
f 724 738 737
f 670 726 738
f 670 738 672
f 728 727 739
f 728 739 740
f 671 673 740
f 671 740 728
f 727 729 741
f 727 741 739
f 729 730 742
f 729 742 741
f 730 731 743
f 730 743 742
f 731 732 744
f 731 744 743
f 732 733 745
f 732 745 744
f 733 734 746
f 733 746 745
f 734 735 747
f 734 747 746
f 735 736 748
f 735 748 747
f 736 737 749
f 736 749 748
f 737 738 750
f 737 750 749
f 672 738 750
f 672 750 674
f 740 739 751
f 740 751 752
f 673 675 752
f 673 752 740
f 739 741 753
f 739 753 751
f 741 742 754
f 741 754 753
f 742 743 755
f 742 755 754
f 743 744 756
f 743 756 755
f 744 745 757
f 744 757 756
f 745 746 758
f 745 758 757
f 746 747 759
f 746 759 758
f 747 748 760
f 747 760 759
f 748 749 761
f 748 761 760
f 749 750 762
f 749 762 761
f 674 750 762
f 674 762 676
f 752 751 763
f 752 763 764
f 675 677 764
f 675 764 752
f 751 753 765
f 751 765 763
f 753 754 766
f 753 766 765
f 754 755 767
f 754 767 766
f 755 756 768
f 755 768 767
f 756 757 769
f 756 769 768
f 757 758 770
f 757 770 769
f 758 759 771
f 758 771 770
f 759 760 772
f 759 772 771
f 760 761 773
f 760 773 772
f 761 762 774
f 761 774 773
f 676 762 774
f 676 774 678
f 764 763 775
f 764 775 776
f 677 679 776
f 677 776 764
f 763 765 777
f 763 777 775
f 765 766 778
f 765 778 777
f 766 767 779
f 766 779 778
f 767 768 780
f 767 780 779
f 768 769 781
f 768 781 780
f 769 770 782
f 769 782 781
f 770 771 783
f 770 783 782
f 771 772 784
f 771 784 783
f 772 773 785
f 772 785 784
f 773 774 786
f 773 786 785
f 678 774 786
f 678 786 680
f 776 775 787
f 776 787 788
f 679 681 788
f 679 788 776
f 775 777 789
f 775 789 787
f 777 778 790
f 777 790 789
f 778 779 791
f 778 791 790
f 779 780 792
f 779 792 791
f 780 781 793
f 780 793 792
f 781 782 794
f 781 794 793
f 782 783 795
f 782 795 794
f 783 784 796
f 783 796 795
f 784 785 797
f 784 797 796
f 785 786 798
f 785 798 797
f 680 786 798
f 680 798 682
f 788 787 799
f 788 799 800
f 681 683 800
f 681 800 788
f 787 789 801
f 787 801 799
f 789 790 802
f 789 802 801
f 790 791 803
f 790 803 802
f 791 792 804
f 791 804 803
f 792 793 805
f 792 805 804
f 793 794 806
f 793 806 805
f 794 795 807
f 794 807 806
f 795 796 808
f 795 808 807
f 796 797 809
f 796 809 808
f 797 798 810
f 797 810 809
f 682 798 810
f 682 810 684
f 800 799 811
f 800 811 812
f 683 685 812
f 683 812 800
f 799 801 813
f 799 813 811
f 801 802 814
f 801 814 813
f 802 803 815
f 802 815 814
f 803 804 816
f 803 816 815
f 804 805 817
f 804 817 816
f 805 806 818
f 805 818 817
f 806 807 819
f 806 819 818
f 807 808 820
f 807 820 819
f 808 809 821
f 808 821 820
f 809 810 822
f 809 822 821
f 684 810 822
f 684 822 686
f 812 811 823
f 812 823 824
f 685 687 824
f 685 824 812
f 811 813 825
f 811 825 823
f 813 814 826
f 813 826 825
f 814 815 827
f 814 827 826
f 815 816 828
f 815 828 827
f 816 817 829
f 816 829 828
f 817 818 830
f 817 830 829
f 818 819 831
f 818 831 830
f 819 820 832
f 819 832 831
f 820 821 833
f 820 833 832
f 821 822 834
f 821 834 833
f 686 822 834
f 686 834 688
f 824 823 835
f 824 835 836
f 687 689 836
f 687 836 824
f 823 825 837
f 823 837 835
f 825 826 838
f 825 838 837
f 826 827 839
f 826 839 838
f 827 828 840
f 827 840 839
f 828 829 841
f 828 841 840
f 829 830 842
f 829 842 841
f 830 831 843
f 830 843 842
f 831 832 844
f 831 844 843
f 832 833 845
f 832 845 844
f 833 834 846
f 833 846 845
f 688 834 846
f 688 846 690
f 836 835 847
f 836 847 848
f 692 691 847
f 692 847 848
f 689 692 848
f 689 848 836
f 835 837 849
f 835 849 847
f 691 693 849
f 691 849 847
f 837 838 850
f 837 850 849
f 693 694 850
f 693 850 849
f 838 839 851
f 838 851 850
f 694 695 851
f 694 851 850
f 839 840 852
f 839 852 851
f 695 696 852
f 695 852 851
f 840 841 853
f 840 853 852
f 696 697 853
f 696 853 852
f 841 842 854
f 841 854 853
f 697 698 854
f 697 854 853
f 842 843 855
f 842 855 854
f 698 699 855
f 698 855 854
f 843 844 856
f 843 856 855
f 699 700 856
f 699 856 855
f 844 845 857
f 844 857 856
f 700 701 857
f 700 857 856
f 845 846 858
f 845 858 857
f 701 702 858
f 701 858 857
f 690 846 858
f 690 858 702
