o JSONAkashi_554
v -445.025000 21.975000 -14.491600
v -445.025000 22.062500 -14.491600
v -445.025000 22.062500 -14.392538
v -445.025000 21.975000 -14.392538
v -444.937500 21.975000 -14.491600
v -444.937500 21.975000 -14.392538
v -444.937500 22.062500 -14.491600
v -445.025000 22.062500 -14.293477
v -445.025000 21.975000 -14.293477
v -444.937500 21.975000 -14.293477
v -445.025000 22.062500 -14.194415
v -445.025000 21.975000 -14.194415
v -444.937500 21.975000 -14.194415
v -445.025000 22.062500 -14.095354
v -445.025000 21.975000 -14.095354
v -444.937500 21.975000 -14.095354
v -445.025000 22.062500 -13.996292
v -445.025000 21.975000 -13.996292
v -444.937500 21.975000 -13.996292
v -445.025000 22.062500 -13.897230
v -445.025000 21.975000 -13.897230
v -444.937500 21.975000 -13.897230
v -445.025000 22.062500 -13.798169
v -445.025000 21.975000 -13.798169
v -444.937500 21.975000 -13.798169
v -445.025000 22.062500 -13.699107
v -445.025000 21.975000 -13.699107
v -444.937500 21.975000 -13.699107
v -445.025000 22.062500 -13.600046
v -445.025000 21.975000 -13.600046
v -444.937500 21.975000 -13.600046
v -445.025000 22.062500 -13.500984
v -445.025000 21.975000 -13.500984
v -444.937500 21.975000 -13.500984
v -445.025000 22.062500 -13.401923
v -445.025000 21.975000 -13.401923
v -444.937500 21.975000 -13.401923
v -444.937500 22.062500 -13.401923
v -445.025000 22.150000 -14.491600
v -445.025000 22.150000 -14.392538
v -444.937500 22.150000 -14.491600
v -445.025000 22.150000 -14.293477
v -445.025000 22.150000 -14.194415
v -445.025000 22.150000 -14.095354
v -445.025000 22.150000 -13.996292
v -445.025000 22.150000 -13.897230
v -445.025000 22.150000 -13.798169
v -445.025000 22.150000 -13.699107
v -445.025000 22.150000 -13.600046
v -445.025000 22.150000 -13.500984
v -445.025000 22.150000 -13.401923
v -444.937500 22.150000 -13.401923
v -445.025000 22.237500 -14.491600
v -445.025000 22.237500 -14.392538
v -444.937500 22.237500 -14.491600
v -445.025000 22.237500 -14.293477
v -445.025000 22.237500 -14.194415
v -445.025000 22.237500 -14.095354
v -445.025000 22.237500 -13.996292
v -445.025000 22.237500 -13.897230
v -445.025000 22.237500 -13.798169
v -445.025000 22.237500 -13.699107
v -445.025000 22.237500 -13.600046
v -445.025000 22.237500 -13.500984
v -445.025000 22.237500 -13.401923
v -444.937500 22.237500 -13.401923
v -445.025000 22.325000 -14.491600
v -445.025000 22.325000 -14.392538
v -444.937500 22.325000 -14.491600
v -445.025000 22.325000 -14.293477
v -445.025000 22.325000 -14.194415
v -445.025000 22.325000 -14.095354
v -445.025000 22.325000 -13.996292
v -445.025000 22.325000 -13.897230
v -445.025000 22.325000 -13.798169
v -445.025000 22.325000 -13.699107
v -445.025000 22.325000 -13.600046
v -445.025000 22.325000 -13.500984
v -445.025000 22.325000 -13.401923
v -444.937500 22.325000 -13.401923
v -445.025000 22.412500 -14.491600
v -445.025000 22.412500 -14.392538
v -444.937500 22.412500 -14.491600
v -445.025000 22.412500 -14.293477
v -445.025000 22.412500 -14.194415
v -445.025000 22.412500 -14.095354
v -445.025000 22.412500 -13.996292
v -445.025000 22.412500 -13.897230
v -445.025000 22.412500 -13.798169
v -445.025000 22.412500 -13.699107
v -445.025000 22.412500 -13.600046
v -445.025000 22.412500 -13.500984
v -445.025000 22.412500 -13.401923
v -444.937500 22.412500 -13.401923
v -445.025000 22.500000 -14.491600
v -445.025000 22.500000 -14.392538
v -444.937500 22.500000 -14.491600
v -445.025000 22.500000 -14.293477
v -445.025000 22.500000 -14.194415
v -445.025000 22.500000 -14.095354
v -445.025000 22.500000 -13.996292
v -445.025000 22.500000 -13.897230
v -445.025000 22.500000 -13.798169
v -445.025000 22.500000 -13.699107
v -445.025000 22.500000 -13.600046
v -445.025000 22.500000 -13.500984
v -445.025000 22.500000 -13.401923
v -444.937500 22.500000 -13.401923
v -445.025000 22.587500 -14.491600
v -445.025000 22.587500 -14.392538
v -444.937500 22.587500 -14.491600
v -445.025000 22.587500 -14.293477
v -445.025000 22.587500 -14.194415
v -445.025000 22.587500 -14.095354
v -445.025000 22.587500 -13.996292
v -445.025000 22.587500 -13.897230
v -445.025000 22.587500 -13.798169
v -445.025000 22.587500 -13.699107
v -445.025000 22.587500 -13.600046
v -445.025000 22.587500 -13.500984
v -445.025000 22.587500 -13.401923
v -444.937500 22.587500 -13.401923
v -445.025000 22.675000 -14.491600
v -445.025000 22.675000 -14.392538
v -444.937500 22.675000 -14.491600
v -445.025000 22.675000 -14.293477
v -445.025000 22.675000 -14.194415
v -445.025000 22.675000 -14.095354
v -445.025000 22.675000 -13.996292
v -445.025000 22.675000 -13.897230
v -445.025000 22.675000 -13.798169
v -445.025000 22.675000 -13.699107
v -445.025000 22.675000 -13.600046
v -445.025000 22.675000 -13.500984
v -445.025000 22.675000 -13.401923
v -444.937500 22.675000 -13.401923
v -445.025000 22.762500 -14.491600
v -445.025000 22.762500 -14.392538
v -444.937500 22.762500 -14.491600
v -445.025000 22.762500 -14.293477
v -445.025000 22.762500 -14.194415
v -445.025000 22.762500 -14.095354
v -445.025000 22.762500 -13.996292
v -445.025000 22.762500 -13.897230
v -445.025000 22.762500 -13.798169
v -445.025000 22.762500 -13.699107
v -445.025000 22.762500 -13.600046
v -445.025000 22.762500 -13.500984
v -445.025000 22.762500 -13.401923
v -444.937500 22.762500 -13.401923
v -445.025000 22.850000 -14.491600
v -445.025000 22.850000 -14.392538
v -444.937500 22.850000 -14.491600
v -445.025000 22.850000 -14.293477
v -445.025000 22.850000 -14.194415
v -445.025000 22.850000 -14.095354
v -445.025000 22.850000 -13.996292
v -445.025000 22.850000 -13.897230
v -445.025000 22.850000 -13.798169
v -445.025000 22.850000 -13.699107
v -445.025000 22.850000 -13.600046
v -445.025000 22.850000 -13.500984
v -445.025000 22.850000 -13.401923
v -444.937500 22.850000 -13.401923
v -445.025000 22.937500 -14.491600
v -445.025000 22.937500 -14.392538
v -444.937500 22.937500 -14.491600
v -445.025000 22.937500 -14.293477
v -445.025000 22.937500 -14.194415
v -445.025000 22.937500 -14.095354
v -445.025000 22.937500 -13.996292
v -445.025000 22.937500 -13.897230
v -445.025000 22.937500 -13.798169
v -445.025000 22.937500 -13.699107
v -445.025000 22.937500 -13.600046
v -445.025000 22.937500 -13.500984
v -445.025000 22.937500 -13.401923
v -444.937500 22.937500 -13.401923
v -445.025000 23.025000 -14.491600
v -445.025000 23.025000 -14.392538
v -444.937500 23.025000 -14.392538
v -444.937500 23.025000 -14.491600
v -445.025000 23.025000 -14.293477
v -444.937500 23.025000 -14.293477
v -445.025000 23.025000 -14.194415
v -444.937500 23.025000 -14.194415
v -445.025000 23.025000 -14.095354
v -444.937500 23.025000 -14.095354
v -445.025000 23.025000 -13.996292
v -444.937500 23.025000 -13.996292
v -445.025000 23.025000 -13.897230
v -444.937500 23.025000 -13.897230
v -445.025000 23.025000 -13.798169
v -444.937500 23.025000 -13.798169
v -445.025000 23.025000 -13.699107
v -444.937500 23.025000 -13.699107
v -445.025000 23.025000 -13.600046
v -444.937500 23.025000 -13.600046
v -445.025000 23.025000 -13.500984
v -444.937500 23.025000 -13.500984
v -445.025000 23.025000 -13.401923
v -444.937500 23.025000 -13.401923
v -444.850000 21.975000 -14.491600
v -444.850000 21.975000 -14.392538
v -444.850000 22.062500 -14.491600
v -444.850000 21.975000 -14.293477
v -444.850000 21.975000 -14.194415
v -444.850000 21.975000 -14.095354
v -444.850000 21.975000 -13.996292
v -444.850000 21.975000 -13.897230
v -444.850000 21.975000 -13.798169
v -444.850000 21.975000 -13.699107
v -444.850000 21.975000 -13.600046
v -444.850000 21.975000 -13.500984
v -444.850000 21.975000 -13.401923
v -444.850000 22.062500 -13.401923
v -444.850000 22.150000 -14.491600
v -444.850000 22.150000 -13.401923
v -444.850000 22.237500 -14.491600
v -444.850000 22.237500 -13.401923
v -444.850000 22.325000 -14.491600
v -444.850000 22.325000 -13.401923
v -444.850000 22.412500 -14.491600
v -444.850000 22.412500 -13.401923
v -444.850000 22.500000 -14.491600
v -444.850000 22.500000 -13.401923
v -444.850000 22.587500 -14.491600
v -444.850000 22.587500 -13.401923
v -444.850000 22.675000 -14.491600
v -444.850000 22.675000 -13.401923
v -444.850000 22.762500 -14.491600
v -444.850000 22.762500 -13.401923
v -444.850000 22.850000 -14.491600
v -444.850000 22.850000 -13.401923
v -444.850000 22.937500 -14.491600
v -444.850000 22.937500 -13.401923
v -444.850000 23.025000 -14.392538
v -444.850000 23.025000 -14.491600
v -444.850000 23.025000 -14.293477
v -444.850000 23.025000 -14.194415
v -444.850000 23.025000 -14.095354
v -444.850000 23.025000 -13.996292
v -444.850000 23.025000 -13.897230
v -444.850000 23.025000 -13.798169
v -444.850000 23.025000 -13.699107
v -444.850000 23.025000 -13.600046
v -444.850000 23.025000 -13.500984
v -444.850000 23.025000 -13.401923
v -444.762500 21.975000 -14.491600
v -444.762500 21.975000 -14.392538
v -444.762500 22.062500 -14.491600
v -444.762500 21.975000 -14.293477
v -444.762500 21.975000 -14.194415
v -444.762500 21.975000 -14.095354
v -444.762500 21.975000 -13.996292
v -444.762500 21.975000 -13.897230
v -444.762500 21.975000 -13.798169
v -444.762500 21.975000 -13.699107
v -444.762500 21.975000 -13.600046
v -444.762500 21.975000 -13.500984
v -444.762500 21.975000 -13.401923
v -444.762500 22.062500 -13.401923
v -444.762500 22.150000 -14.491600
v -444.762500 22.150000 -13.401923
v -444.762500 22.237500 -14.491600
v -444.762500 22.237500 -13.401923
v -444.762500 22.325000 -14.491600
v -444.762500 22.325000 -13.401923
v -444.762500 22.412500 -14.491600
v -444.762500 22.412500 -13.401923
v -444.762500 22.500000 -14.491600
v -444.762500 22.500000 -13.401923
v -444.762500 22.587500 -14.491600
v -444.762500 22.587500 -13.401923
v -444.762500 22.675000 -14.491600
v -444.762500 22.675000 -13.401923
v -444.762500 22.762500 -14.491600
v -444.762500 22.762500 -13.401923
v -444.762500 22.850000 -14.491600
v -444.762500 22.850000 -13.401923
v -444.762500 22.937500 -14.491600
v -444.762500 22.937500 -13.401923
v -444.762500 23.025000 -14.392538
v -444.762500 23.025000 -14.491600
v -444.762500 23.025000 -14.293477
v -444.762500 23.025000 -14.194415
v -444.762500 23.025000 -14.095354
v -444.762500 23.025000 -13.996292
v -444.762500 23.025000 -13.897230
v -444.762500 23.025000 -13.798169
v -444.762500 23.025000 -13.699107
v -444.762500 23.025000 -13.600046
v -444.762500 23.025000 -13.500984
v -444.762500 23.025000 -13.401923
v -444.675000 21.975000 -14.491600
v -444.675000 21.975000 -14.392538
v -444.675000 22.062500 -14.491600
v -444.675000 21.975000 -14.293477
v -444.675000 21.975000 -14.194415
v -444.675000 21.975000 -14.095354
v -444.675000 21.975000 -13.996292
v -444.675000 21.975000 -13.897230
v -444.675000 21.975000 -13.798169
v -444.675000 21.975000 -13.699107
v -444.675000 21.975000 -13.600046
v -444.675000 21.975000 -13.500984
v -444.675000 21.975000 -13.401923
v -444.675000 22.062500 -13.401923
v -444.675000 22.150000 -14.491600
v -444.675000 22.150000 -13.401923
v -444.675000 22.237500 -14.491600
v -444.675000 22.237500 -13.401923
v -444.675000 22.325000 -14.491600
v -444.675000 22.325000 -13.401923
v -444.675000 22.412500 -14.491600
v -444.675000 22.412500 -13.401923
v -444.675000 22.500000 -14.491600
v -444.675000 22.500000 -13.401923
v -444.675000 22.587500 -14.491600
v -444.675000 22.587500 -13.401923
v -444.675000 22.675000 -14.491600
v -444.675000 22.675000 -13.401923
v -444.675000 22.762500 -14.491600
v -444.675000 22.762500 -13.401923
v -444.675000 22.850000 -14.491600
v -444.675000 22.850000 -13.401923
v -444.675000 22.937500 -14.491600
v -444.675000 22.937500 -13.401923
v -444.675000 23.025000 -14.392538
v -444.675000 23.025000 -14.491600
v -444.675000 23.025000 -14.293477
v -444.675000 23.025000 -14.194415
v -444.675000 23.025000 -14.095354
v -444.675000 23.025000 -13.996292
v -444.675000 23.025000 -13.897230
v -444.675000 23.025000 -13.798169
v -444.675000 23.025000 -13.699107
v -444.675000 23.025000 -13.600046
v -444.675000 23.025000 -13.500984
v -444.675000 23.025000 -13.401923
v -444.587500 21.975000 -14.491600
v -444.587500 21.975000 -14.392538
v -444.587500 22.062500 -14.491600
v -444.587500 21.975000 -14.293477
v -444.587500 21.975000 -14.194415
v -444.587500 21.975000 -14.095354
v -444.587500 21.975000 -13.996292
v -444.587500 21.975000 -13.897230
v -444.587500 21.975000 -13.798169
v -444.587500 21.975000 -13.699107
v -444.587500 21.975000 -13.600046
v -444.587500 21.975000 -13.500984
v -444.587500 21.975000 -13.401923
v -444.675000 22.062500 -13.302861
v -444.675000 21.975000 -13.302861
v -444.587500 21.975000 -13.302861
v -444.587500 22.062500 -13.302861
v -444.587500 22.150000 -14.491600
v -444.675000 22.150000 -13.302861
v -444.587500 22.150000 -13.302861
v -444.587500 22.237500 -14.491600
v -444.675000 22.237500 -13.302861
v -444.587500 22.237500 -13.302861
v -444.587500 22.325000 -14.491600
v -444.675000 22.325000 -13.302861
v -444.587500 22.325000 -13.302861
v -444.587500 22.412500 -14.491600
v -444.675000 22.412500 -13.302861
v -444.587500 22.412500 -13.302861
v -444.587500 22.500000 -14.491600
v -444.675000 22.500000 -13.302861
v -444.587500 22.500000 -13.302861
v -444.587500 22.587500 -14.491600
v -444.675000 22.587500 -13.302861
v -444.587500 22.587500 -13.302861
v -444.587500 22.675000 -14.491600
v -444.675000 22.675000 -13.302861
v -444.587500 22.675000 -13.302861
v -444.587500 22.762500 -14.491600
v -444.675000 22.762500 -13.302861
v -444.587500 22.762500 -13.302861
v -444.587500 22.850000 -14.491600
v -444.675000 22.850000 -13.302861
v -444.587500 22.850000 -13.302861
v -444.587500 22.937500 -14.491600
v -444.675000 22.937500 -13.302861
v -444.587500 22.937500 -13.302861
v -444.587500 23.025000 -14.392538
v -444.587500 23.025000 -14.491600
v -444.587500 23.025000 -14.293477
v -444.587500 23.025000 -14.194415
v -444.587500 23.025000 -14.095354
v -444.587500 23.025000 -13.996292
v -444.587500 23.025000 -13.897230
v -444.587500 23.025000 -13.798169
v -444.587500 23.025000 -13.699107
v -444.587500 23.025000 -13.600046
v -444.587500 23.025000 -13.500984
v -444.587500 23.025000 -13.401923
v -444.675000 23.025000 -13.302861
v -444.587500 23.025000 -13.302861
v -444.500000 21.975000 -14.491600
v -444.500000 21.975000 -14.392538
v -444.500000 22.062500 -14.491600
v -444.500000 21.975000 -14.293477
v -444.500000 21.975000 -14.194415
v -444.500000 21.975000 -14.095354
v -444.500000 21.975000 -13.996292
v -444.500000 21.975000 -13.897230
v -444.500000 21.975000 -13.798169
v -444.500000 21.975000 -13.699107
v -444.500000 21.975000 -13.600046
v -444.500000 21.975000 -13.500984
v -444.500000 21.975000 -13.401923
v -444.500000 21.975000 -13.302861
v -444.500000 22.062500 -13.302861
v -444.500000 22.150000 -14.491600
v -444.500000 22.150000 -13.302861
v -444.500000 22.237500 -14.491600
v -444.500000 22.237500 -13.302861
v -444.500000 22.325000 -14.491600
v -444.500000 22.325000 -13.302861
v -444.500000 22.412500 -14.491600
v -444.500000 22.412500 -13.302861
v -444.500000 22.500000 -14.491600
v -444.500000 22.500000 -13.302861
v -444.500000 22.587500 -14.491600
v -444.500000 22.587500 -13.302861
v -444.500000 22.675000 -14.491600
v -444.500000 22.675000 -13.302861
v -444.500000 22.762500 -14.491600
v -444.500000 22.762500 -13.302861
v -444.500000 22.850000 -14.491600
v -444.500000 22.850000 -13.302861
v -444.500000 22.937500 -14.491600
v -444.500000 22.937500 -13.302861
v -444.500000 23.025000 -14.392538
v -444.500000 23.025000 -14.491600
v -444.500000 23.025000 -14.293477
v -444.500000 23.025000 -14.194415
v -444.500000 23.025000 -14.095354
v -444.500000 23.025000 -13.996292
v -444.500000 23.025000 -13.897230
v -444.500000 23.025000 -13.798169
v -444.500000 23.025000 -13.699107
v -444.500000 23.025000 -13.600046
v -444.500000 23.025000 -13.500984
v -444.500000 23.025000 -13.401923
v -444.500000 23.025000 -13.302861
v -444.412500 21.975000 -14.491600
v -444.412500 21.975000 -14.392538
v -444.412500 22.062500 -14.491600
v -444.412500 21.975000 -14.293477
v -444.412500 21.975000 -14.194415
v -444.412500 21.975000 -14.095354
v -444.412500 21.975000 -13.996292
v -444.412500 21.975000 -13.897230
v -444.412500 21.975000 -13.798169
v -444.412500 21.975000 -13.699107
v -444.412500 21.975000 -13.600046
v -444.412500 21.975000 -13.500984
v -444.412500 21.975000 -13.401923
v -444.412500 21.975000 -13.302861
v -444.412500 22.062500 -13.302861
v -444.412500 22.150000 -14.491600
v -444.412500 22.150000 -13.302861
v -444.412500 22.237500 -14.491600
v -444.412500 22.237500 -13.302861
v -444.412500 22.325000 -14.491600
v -444.412500 22.325000 -13.302861
v -444.412500 22.412500 -14.491600
v -444.412500 22.412500 -13.302861
v -444.412500 22.500000 -14.491600
v -444.412500 22.500000 -13.302861
v -444.412500 22.587500 -14.491600
v -444.412500 22.587500 -13.302861
v -444.412500 22.675000 -14.491600
v -444.412500 22.675000 -13.302861
v -444.412500 22.762500 -14.491600
v -444.412500 22.762500 -13.302861
v -444.412500 22.850000 -14.491600
v -444.412500 22.850000 -13.302861
v -444.412500 22.937500 -14.491600
v -444.412500 22.937500 -13.302861
v -444.412500 23.025000 -14.392538
v -444.412500 23.025000 -14.491600
v -444.412500 23.025000 -14.293477
v -444.412500 23.025000 -14.194415
v -444.412500 23.025000 -14.095354
v -444.412500 23.025000 -13.996292
v -444.412500 23.025000 -13.897230
v -444.412500 23.025000 -13.798169
v -444.412500 23.025000 -13.699107
v -444.412500 23.025000 -13.600046
v -444.412500 23.025000 -13.500984
v -444.412500 23.025000 -13.401923
v -444.412500 23.025000 -13.302861
v -444.325000 21.975000 -14.491600
v -444.325000 21.975000 -14.392538
v -444.325000 22.062500 -14.491600
v -444.325000 21.975000 -14.293477
v -444.325000 21.975000 -14.194415
v -444.325000 21.975000 -14.095354
v -444.325000 21.975000 -13.996292
v -444.325000 21.975000 -13.897230
v -444.325000 21.975000 -13.798169
v -444.325000 21.975000 -13.699107
v -444.325000 21.975000 -13.600046
v -444.325000 21.975000 -13.500984
v -444.325000 21.975000 -13.401923
v -444.325000 21.975000 -13.302861
v -444.325000 22.062500 -13.302861
v -444.325000 22.150000 -14.491600
v -444.325000 22.150000 -13.302861
v -444.325000 22.237500 -14.491600
v -444.325000 22.237500 -13.302861
v -444.325000 22.325000 -14.491600
v -444.325000 22.325000 -13.302861
v -444.325000 22.412500 -14.491600
v -444.325000 22.412500 -13.302861
v -444.325000 22.500000 -14.491600
v -444.325000 22.500000 -13.302861
v -444.325000 22.587500 -14.491600
v -444.325000 22.587500 -13.302861
v -444.325000 22.675000 -14.491600
v -444.325000 22.675000 -13.302861
v -444.325000 22.762500 -14.491600
v -444.325000 22.762500 -13.302861
v -444.325000 22.850000 -14.491600
v -444.325000 22.850000 -13.302861
v -444.325000 22.937500 -14.491600
v -444.325000 22.937500 -13.302861
v -444.325000 23.025000 -14.392538
v -444.325000 23.025000 -14.491600
v -444.325000 23.025000 -14.293477
v -444.325000 23.025000 -14.194415
v -444.325000 23.025000 -14.095354
v -444.325000 23.025000 -13.996292
v -444.325000 23.025000 -13.897230
v -444.325000 23.025000 -13.798169
v -444.325000 23.025000 -13.699107
v -444.325000 23.025000 -13.600046
v -444.325000 23.025000 -13.500984
v -444.325000 23.025000 -13.401923
v -444.325000 23.025000 -13.302861
v -444.237500 21.975000 -14.491600
v -444.237500 21.975000 -14.392538
v -444.237500 22.062500 -14.491600
v -444.237500 21.975000 -14.293477
v -444.237500 21.975000 -14.194415
v -444.237500 21.975000 -14.095354
v -444.237500 21.975000 -13.996292
v -444.237500 21.975000 -13.897230
v -444.237500 21.975000 -13.798169
v -444.237500 21.975000 -13.699107
v -444.237500 21.975000 -13.600046
v -444.237500 21.975000 -13.500984
v -444.237500 21.975000 -13.401923
v -444.237500 21.975000 -13.302861
v -444.237500 22.062500 -13.302861
v -444.237500 22.150000 -14.491600
v -444.237500 22.150000 -13.302861
v -444.237500 22.237500 -14.491600
v -444.237500 22.237500 -13.302861
v -444.237500 22.325000 -14.491600
v -444.237500 22.325000 -13.302861
v -444.237500 22.412500 -14.491600
v -444.237500 22.412500 -13.302861
v -444.237500 22.500000 -14.491600
v -444.237500 22.500000 -13.302861
v -444.237500 22.587500 -14.491600
v -444.237500 22.587500 -13.302861
v -444.237500 22.675000 -14.491600
v -444.237500 22.675000 -13.302861
v -444.237500 22.762500 -14.491600
v -444.237500 22.762500 -13.302861
v -444.237500 22.850000 -14.491600
v -444.237500 22.850000 -13.302861
v -444.237500 22.937500 -14.491600
v -444.237500 22.937500 -13.302861
v -444.237500 23.025000 -14.392538
v -444.237500 23.025000 -14.491600
v -444.237500 23.025000 -14.293477
v -444.237500 23.025000 -14.194415
v -444.237500 23.025000 -14.095354
v -444.237500 23.025000 -13.996292
v -444.237500 23.025000 -13.897230
v -444.237500 23.025000 -13.798169
v -444.237500 23.025000 -13.699107
v -444.237500 23.025000 -13.600046
v -444.237500 23.025000 -13.500984
v -444.237500 23.025000 -13.401923
v -444.237500 23.025000 -13.302861
v -444.150000 21.975000 -14.491600
v -444.150000 21.975000 -14.392538
v -444.150000 22.062500 -14.491600
v -444.150000 21.975000 -14.293477
v -444.150000 21.975000 -14.194415
v -444.150000 21.975000 -14.095354
v -444.150000 21.975000 -13.996292
v -444.150000 21.975000 -13.897230
v -444.150000 21.975000 -13.798169
v -444.150000 21.975000 -13.699107
v -444.150000 21.975000 -13.600046
v -444.150000 21.975000 -13.500984
v -444.150000 21.975000 -13.401923
v -444.150000 21.975000 -13.302861
v -444.150000 22.062500 -13.302861
v -444.150000 22.150000 -14.491600
v -444.150000 22.150000 -13.302861
v -444.150000 22.237500 -14.491600
v -444.150000 22.237500 -13.302861
v -444.150000 22.325000 -14.491600
v -444.150000 22.325000 -13.302861
v -444.150000 22.412500 -14.491600
v -444.150000 22.412500 -13.302861
v -444.150000 22.500000 -14.491600
v -444.150000 22.500000 -13.302861
v -444.150000 22.587500 -14.491600
v -444.150000 22.587500 -13.302861
v -444.150000 22.675000 -14.491600
v -444.150000 22.675000 -13.302861
v -444.150000 22.762500 -14.491600
v -444.150000 22.762500 -13.302861
v -444.150000 22.850000 -14.491600
v -444.150000 22.850000 -13.302861
v -444.150000 22.937500 -14.491600
v -444.150000 22.937500 -13.302861
v -444.150000 23.025000 -14.392538
v -444.150000 23.025000 -14.491600
v -444.150000 23.025000 -14.293477
v -444.150000 23.025000 -14.194415
v -444.150000 23.025000 -14.095354
v -444.150000 23.025000 -13.996292
v -444.150000 23.025000 -13.897230
v -444.150000 23.025000 -13.798169
v -444.150000 23.025000 -13.699107
v -444.150000 23.025000 -13.600046
v -444.150000 23.025000 -13.500984
v -444.150000 23.025000 -13.401923
v -444.150000 23.025000 -13.302861
v -444.062500 21.975000 -14.491600
v -444.062500 21.975000 -14.392538
v -444.062500 22.062500 -14.491600
v -444.062500 21.975000 -14.293477
v -444.062500 21.975000 -14.194415
v -444.062500 21.975000 -14.095354
v -444.062500 21.975000 -13.996292
v -444.062500 21.975000 -13.897230
v -444.062500 21.975000 -13.798169
v -444.062500 21.975000 -13.699107
v -444.062500 21.975000 -13.600046
v -444.062500 21.975000 -13.500984
v -444.062500 21.975000 -13.401923
v -444.062500 21.975000 -13.302861
v -444.062500 22.062500 -13.302861
v -444.062500 22.150000 -14.491600
v -444.062500 22.150000 -13.302861
v -444.062500 22.237500 -14.491600
v -444.062500 22.237500 -13.302861
v -444.062500 22.325000 -14.491600
v -444.062500 22.325000 -13.302861
v -444.062500 22.412500 -14.491600
v -444.062500 22.412500 -13.302861
v -444.062500 22.500000 -14.491600
v -444.062500 22.500000 -13.302861
v -444.062500 22.587500 -14.491600
v -444.062500 22.587500 -13.302861
v -444.062500 22.675000 -14.491600
v -444.062500 22.675000 -13.302861
v -444.062500 22.762500 -14.491600
v -444.062500 22.762500 -13.302861
v -444.062500 22.850000 -14.491600
v -444.062500 22.850000 -13.302861
v -444.062500 22.937500 -14.491600
v -444.062500 22.937500 -13.302861
v -444.062500 23.025000 -14.392538
v -444.062500 23.025000 -14.491600
v -444.062500 23.025000 -14.293477
v -444.062500 23.025000 -14.194415
v -444.062500 23.025000 -14.095354
v -444.062500 23.025000 -13.996292
v -444.062500 23.025000 -13.897230
v -444.062500 23.025000 -13.798169
v -444.062500 23.025000 -13.699107
v -444.062500 23.025000 -13.600046
v -444.062500 23.025000 -13.500984
v -444.062500 23.025000 -13.401923
v -444.062500 23.025000 -13.302861
v -443.975000 21.975000 -14.491600
v -443.975000 21.975000 -14.392538
v -443.975000 22.062500 -14.392538
v -443.975000 22.062500 -14.491600
v -443.975000 21.975000 -14.293477
v -443.975000 22.062500 -14.293477
v -443.975000 21.975000 -14.194415
v -443.975000 22.062500 -14.194415
v -443.975000 21.975000 -14.095354
v -443.975000 22.062500 -14.095354
v -443.975000 21.975000 -13.996292
v -443.975000 22.062500 -13.996292
v -443.975000 21.975000 -13.897230
v -443.975000 22.062500 -13.897230
v -443.975000 21.975000 -13.798169
v -443.975000 22.062500 -13.798169
v -443.975000 21.975000 -13.699107
v -443.975000 22.062500 -13.699107
v -443.975000 21.975000 -13.600046
v -443.975000 22.062500 -13.600046
v -443.975000 21.975000 -13.500984
v -443.975000 22.062500 -13.500984
v -443.975000 21.975000 -13.401923
v -443.975000 22.062500 -13.401923
v -443.975000 21.975000 -13.302861
v -443.975000 22.062500 -13.302861
v -443.975000 22.150000 -14.392538
v -443.975000 22.150000 -14.491600
v -443.975000 22.150000 -14.293477
v -443.975000 22.150000 -14.194415
v -443.975000 22.150000 -14.095354
v -443.975000 22.150000 -13.996292
v -443.975000 22.150000 -13.897230
v -443.975000 22.150000 -13.798169
v -443.975000 22.150000 -13.699107
v -443.975000 22.150000 -13.600046
v -443.975000 22.150000 -13.500984
v -443.975000 22.150000 -13.401923
v -443.975000 22.150000 -13.302861
v -443.975000 22.237500 -14.392538
v -443.975000 22.237500 -14.491600
v -443.975000 22.237500 -14.293477
v -443.975000 22.237500 -14.194415
v -443.975000 22.237500 -14.095354
v -443.975000 22.237500 -13.996292
v -443.975000 22.237500 -13.897230
v -443.975000 22.237500 -13.798169
v -443.975000 22.237500 -13.699107
v -443.975000 22.237500 -13.600046
v -443.975000 22.237500 -13.500984
v -443.975000 22.237500 -13.401923
v -443.975000 22.237500 -13.302861
v -443.975000 22.325000 -14.392538
v -443.975000 22.325000 -14.491600
v -443.975000 22.325000 -14.293477
v -443.975000 22.325000 -14.194415
v -443.975000 22.325000 -14.095354
v -443.975000 22.325000 -13.996292
v -443.975000 22.325000 -13.897230
v -443.975000 22.325000 -13.798169
v -443.975000 22.325000 -13.699107
v -443.975000 22.325000 -13.600046
v -443.975000 22.325000 -13.500984
v -443.975000 22.325000 -13.401923
v -443.975000 22.325000 -13.302861
v -443.975000 22.412500 -14.392538
v -443.975000 22.412500 -14.491600
v -443.975000 22.412500 -14.293477
v -443.975000 22.412500 -14.194415
v -443.975000 22.412500 -14.095354
v -443.975000 22.412500 -13.996292
v -443.975000 22.412500 -13.897230
v -443.975000 22.412500 -13.798169
v -443.975000 22.412500 -13.699107
v -443.975000 22.412500 -13.600046
v -443.975000 22.412500 -13.500984
v -443.975000 22.412500 -13.401923
v -443.975000 22.412500 -13.302861
v -443.975000 22.500000 -14.392538
v -443.975000 22.500000 -14.491600
v -443.975000 22.500000 -14.293477
v -443.975000 22.500000 -14.194415
v -443.975000 22.500000 -14.095354
v -443.975000 22.500000 -13.996292
v -443.975000 22.500000 -13.897230
v -443.975000 22.500000 -13.798169
v -443.975000 22.500000 -13.699107
v -443.975000 22.500000 -13.600046
v -443.975000 22.500000 -13.500984
v -443.975000 22.500000 -13.401923
v -443.975000 22.500000 -13.302861
v -443.975000 22.587500 -14.392538
v -443.975000 22.587500 -14.491600
v -443.975000 22.587500 -14.293477
v -443.975000 22.587500 -14.194415
v -443.975000 22.587500 -14.095354
v -443.975000 22.587500 -13.996292
v -443.975000 22.587500 -13.897230
v -443.975000 22.587500 -13.798169
v -443.975000 22.587500 -13.699107
v -443.975000 22.587500 -13.600046
v -443.975000 22.587500 -13.500984
v -443.975000 22.587500 -13.401923
v -443.975000 22.587500 -13.302861
v -443.975000 22.675000 -14.392538
v -443.975000 22.675000 -14.491600
v -443.975000 22.675000 -14.293477
v -443.975000 22.675000 -14.194415
v -443.975000 22.675000 -14.095354
v -443.975000 22.675000 -13.996292
v -443.975000 22.675000 -13.897230
v -443.975000 22.675000 -13.798169
v -443.975000 22.675000 -13.699107
v -443.975000 22.675000 -13.600046
v -443.975000 22.675000 -13.500984
v -443.975000 22.675000 -13.401923
v -443.975000 22.675000 -13.302861
v -443.975000 22.762500 -14.392538
v -443.975000 22.762500 -14.491600
v -443.975000 22.762500 -14.293477
v -443.975000 22.762500 -14.194415
v -443.975000 22.762500 -14.095354
v -443.975000 22.762500 -13.996292
v -443.975000 22.762500 -13.897230
v -443.975000 22.762500 -13.798169
v -443.975000 22.762500 -13.699107
v -443.975000 22.762500 -13.600046
v -443.975000 22.762500 -13.500984
v -443.975000 22.762500 -13.401923
v -443.975000 22.762500 -13.302861
v -443.975000 22.850000 -14.392538
v -443.975000 22.850000 -14.491600
v -443.975000 22.850000 -14.293477
v -443.975000 22.850000 -14.194415
v -443.975000 22.850000 -14.095354
v -443.975000 22.850000 -13.996292
v -443.975000 22.850000 -13.897230
v -443.975000 22.850000 -13.798169
v -443.975000 22.850000 -13.699107
v -443.975000 22.850000 -13.600046
v -443.975000 22.850000 -13.500984
v -443.975000 22.850000 -13.401923
v -443.975000 22.850000 -13.302861
v -443.975000 22.937500 -14.392538
v -443.975000 22.937500 -14.491600
v -443.975000 22.937500 -14.293477
v -443.975000 22.937500 -14.194415
v -443.975000 22.937500 -14.095354
v -443.975000 22.937500 -13.996292
v -443.975000 22.937500 -13.897230
v -443.975000 22.937500 -13.798169
v -443.975000 22.937500 -13.699107
v -443.975000 22.937500 -13.600046
v -443.975000 22.937500 -13.500984
v -443.975000 22.937500 -13.401923
v -443.975000 22.937500 -13.302861
v -443.975000 23.025000 -14.392538
v -443.975000 23.025000 -14.491600
v -443.975000 23.025000 -14.293477
v -443.975000 23.025000 -14.194415
v -443.975000 23.025000 -14.095354
v -443.975000 23.025000 -13.996292
v -443.975000 23.025000 -13.897230
v -443.975000 23.025000 -13.798169
v -443.975000 23.025000 -13.699107
v -443.975000 23.025000 -13.600046
v -443.975000 23.025000 -13.500984
v -443.975000 23.025000 -13.401923
v -443.975000 23.025000 -13.302861
f 1 2 3
f 1 3 4
f 1 5 6
f 1 6 4
f 1 2 7
f 1 7 5
f 4 3 8
f 4 8 9
f 4 6 10
f 4 10 9
f 9 8 11
f 9 11 12
f 9 10 13
f 9 13 12
f 12 11 14
f 12 14 15
f 12 13 16
f 12 16 15
f 15 14 17
f 15 17 18
f 15 16 19
f 15 19 18
f 18 17 20
f 18 20 21
f 18 19 22
f 18 22 21
f 21 20 23
f 21 23 24
f 21 22 25
f 21 25 24
f 24 23 26
f 24 26 27
f 24 25 28
f 24 28 27
f 27 26 29
f 27 29 30
f 27 28 31
f 27 31 30
f 30 29 32
f 30 32 33
f 30 31 34
f 30 34 33
f 33 32 35
f 33 35 36
f 33 34 37
f 33 37 36
f 36 37 38
f 36 38 35
f 2 39 40
f 2 40 3
f 2 39 41
f 2 41 7
f 3 40 42
f 3 42 8
f 8 42 43
f 8 43 11
f 11 43 44
f 11 44 14
f 14 44 45
f 14 45 17
f 17 45 46
f 17 46 20
f 20 46 47
f 20 47 23
f 23 47 48
f 23 48 26
f 26 48 49
f 26 49 29
f 29 49 50
f 29 50 32
f 32 50 51
f 32 51 35
f 35 38 52
f 35 52 51
f 39 53 54
f 39 54 40
f 39 53 55
f 39 55 41
f 40 54 56
f 40 56 42
f 42 56 57
f 42 57 43
f 43 57 58
f 43 58 44
f 44 58 59
f 44 59 45
f 45 59 60
f 45 60 46
f 46 60 61
f 46 61 47
f 47 61 62
f 47 62 48
f 48 62 63
f 48 63 49
f 49 63 64
f 49 64 50
f 50 64 65
f 50 65 51
f 51 52 66
f 51 66 65
f 53 67 68
f 53 68 54
f 53 67 69
f 53 69 55
f 54 68 70
f 54 70 56
f 56 70 71
f 56 71 57
f 57 71 72
f 57 72 58
f 58 72 73
f 58 73 59
f 59 73 74
f 59 74 60
f 60 74 75
f 60 75 61
f 61 75 76
f 61 76 62
f 62 76 77
f 62 77 63
f 63 77 78
f 63 78 64
f 64 78 79
f 64 79 65
f 65 66 80
f 65 80 79
f 67 81 82
f 67 82 68
f 67 81 83
f 67 83 69
f 68 82 84
f 68 84 70
f 70 84 85
f 70 85 71
f 71 85 86
f 71 86 72
f 72 86 87
f 72 87 73
f 73 87 88
f 73 88 74
f 74 88 89
f 74 89 75
f 75 89 90
f 75 90 76
f 76 90 91
f 76 91 77
f 77 91 92
f 77 92 78
f 78 92 93
f 78 93 79
f 79 80 94
f 79 94 93
f 81 95 96
f 81 96 82
f 81 95 97
f 81 97 83
f 82 96 98
f 82 98 84
f 84 98 99
f 84 99 85
f 85 99 100
f 85 100 86
f 86 100 101
f 86 101 87
f 87 101 102
f 87 102 88
f 88 102 103
f 88 103 89
f 89 103 104
f 89 104 90
f 90 104 105
f 90 105 91
f 91 105 106
f 91 106 92
f 92 106 107
f 92 107 93
f 93 94 108
f 93 108 107
f 95 109 110
f 95 110 96
f 95 109 111
f 95 111 97
f 96 110 112
f 96 112 98
f 98 112 113
f 98 113 99
f 99 113 114
f 99 114 100
f 100 114 115
f 100 115 101
f 101 115 116
f 101 116 102
f 102 116 117
f 102 117 103
f 103 117 118
f 103 118 104
f 104 118 119
f 104 119 105
f 105 119 120
f 105 120 106
f 106 120 121
f 106 121 107
f 107 108 122
f 107 122 121
f 109 123 124
f 109 124 110
f 109 123 125
f 109 125 111
f 110 124 126
f 110 126 112
f 112 126 127
f 112 127 113
f 113 127 128
f 113 128 114
f 114 128 129
f 114 129 115
f 115 129 130
f 115 130 116
f 116 130 131
f 116 131 117
f 117 131 132
f 117 132 118
f 118 132 133
f 118 133 119
f 119 133 134
f 119 134 120
f 120 134 135
f 120 135 121
f 121 122 136
f 121 136 135
f 123 137 138
f 123 138 124
f 123 137 139
f 123 139 125
f 124 138 140
f 124 140 126
f 126 140 141
f 126 141 127
f 127 141 142
f 127 142 128
f 128 142 143
f 128 143 129
f 129 143 144
f 129 144 130
f 130 144 145
f 130 145 131
f 131 145 146
f 131 146 132
f 132 146 147
f 132 147 133
f 133 147 148
f 133 148 134
f 134 148 149
f 134 149 135
f 135 136 150
f 135 150 149
f 137 151 152
f 137 152 138
f 137 151 153
f 137 153 139
f 138 152 154
f 138 154 140
f 140 154 155
f 140 155 141
f 141 155 156
f 141 156 142
f 142 156 157
f 142 157 143
f 143 157 158
f 143 158 144
f 144 158 159
f 144 159 145
f 145 159 160
f 145 160 146
f 146 160 161
f 146 161 147
f 147 161 162
f 147 162 148
f 148 162 163
f 148 163 149
f 149 150 164
f 149 164 163
f 151 165 166
f 151 166 152
f 151 165 167
f 151 167 153
f 152 166 168
f 152 168 154
f 154 168 169
f 154 169 155
f 155 169 170
f 155 170 156
f 156 170 171
f 156 171 157
f 157 171 172
f 157 172 158
f 158 172 173
f 158 173 159
f 159 173 174
f 159 174 160
f 160 174 175
f 160 175 161
f 161 175 176
f 161 176 162
f 162 176 177
f 162 177 163
f 163 164 178
f 163 178 177
f 165 179 180
f 165 180 166
f 179 180 181
f 179 181 182
f 165 179 182
f 165 182 167
f 166 180 183
f 166 183 168
f 180 183 184
f 180 184 181
f 168 183 185
f 168 185 169
f 183 185 186
f 183 186 184
f 169 185 187
f 169 187 170
f 185 187 188
f 185 188 186
f 170 187 189
f 170 189 171
f 187 189 190
f 187 190 188
f 171 189 191
f 171 191 172
f 189 191 192
f 189 192 190
f 172 191 193
f 172 193 173
f 191 193 194
f 191 194 192
f 173 193 195
f 173 195 174
f 193 195 196
f 193 196 194
f 174 195 197
f 174 197 175
f 195 197 198
f 195 198 196
f 175 197 199
f 175 199 176
f 197 199 200
f 197 200 198
f 176 199 201
f 176 201 177
f 199 201 202
f 199 202 200
f 177 178 202
f 177 202 201
f 5 203 204
f 5 204 6
f 5 7 205
f 5 205 203
f 6 204 206
f 6 206 10
f 10 206 207
f 10 207 13
f 13 207 208
f 13 208 16
f 16 208 209
f 16 209 19
f 19 209 210
f 19 210 22
f 22 210 211
f 22 211 25
f 25 211 212
f 25 212 28
f 28 212 213
f 28 213 31
f 31 213 214
f 31 214 34
f 34 214 215
f 34 215 37
f 37 215 216
f 37 216 38
f 7 41 217
f 7 217 205
f 38 216 218
f 38 218 52
f 41 55 219
f 41 219 217
f 52 218 220
f 52 220 66
f 55 69 221
f 55 221 219
f 66 220 222
f 66 222 80
f 69 83 223
f 69 223 221
f 80 222 224
f 80 224 94
f 83 97 225
f 83 225 223
f 94 224 226
f 94 226 108
f 97 111 227
f 97 227 225
f 108 226 228
f 108 228 122
f 111 125 229
f 111 229 227
f 122 228 230
f 122 230 136
f 125 139 231
f 125 231 229
f 136 230 232
f 136 232 150
f 139 153 233
f 139 233 231
f 150 232 234
f 150 234 164
f 153 167 235
f 153 235 233
f 164 234 236
f 164 236 178
f 182 181 237
f 182 237 238
f 167 182 238
f 167 238 235
f 181 184 239
f 181 239 237
f 184 186 240
f 184 240 239
f 186 188 241
f 186 241 240
f 188 190 242
f 188 242 241
f 190 192 243
f 190 243 242
f 192 194 244
f 192 244 243
f 194 196 245
f 194 245 244
f 196 198 246
f 196 246 245
f 198 200 247
f 198 247 246
f 200 202 248
f 200 248 247
f 178 236 248
f 178 248 202
f 203 249 250
f 203 250 204
f 203 205 251
f 203 251 249
f 204 250 252
f 204 252 206
f 206 252 253
f 206 253 207
f 207 253 254
f 207 254 208
f 208 254 255
f 208 255 209
f 209 255 256
f 209 256 210
f 210 256 257
f 210 257 211
f 211 257 258
f 211 258 212
f 212 258 259
f 212 259 213
f 213 259 260
f 213 260 214
f 214 260 261
f 214 261 215
f 215 261 262
f 215 262 216
f 205 217 263
f 205 263 251
f 216 262 264
f 216 264 218
f 217 219 265
f 217 265 263
f 218 264 266
f 218 266 220
f 219 221 267
f 219 267 265
f 220 266 268
f 220 268 222
f 221 223 269
f 221 269 267
f 222 268 270
f 222 270 224
f 223 225 271
f 223 271 269
f 224 270 272
f 224 272 226
f 225 227 273
f 225 273 271
f 226 272 274
f 226 274 228
f 227 229 275
f 227 275 273
f 228 274 276
f 228 276 230
f 229 231 277
f 229 277 275
f 230 276 278
f 230 278 232
f 231 233 279
f 231 279 277
f 232 278 280
f 232 280 234
f 233 235 281
f 233 281 279
f 234 280 282
f 234 282 236
f 238 237 283
f 238 283 284
f 235 238 284
f 235 284 281
f 237 239 285
f 237 285 283
f 239 240 286
f 239 286 285
f 240 241 287
f 240 287 286
f 241 242 288
f 241 288 287
f 242 243 289
f 242 289 288
f 243 244 290
f 243 290 289
f 244 245 291
f 244 291 290
f 245 246 292
f 245 292 291
f 246 247 293
f 246 293 292
f 247 248 294
f 247 294 293
f 236 282 294
f 236 294 248
f 249 295 296
f 249 296 250
f 249 251 297
f 249 297 295
f 250 296 298
f 250 298 252
f 252 298 299
f 252 299 253
f 253 299 300
f 253 300 254
f 254 300 301
f 254 301 255
f 255 301 302
f 255 302 256
f 256 302 303
f 256 303 257
f 257 303 304
f 257 304 258
f 258 304 305
f 258 305 259
f 259 305 306
f 259 306 260
f 260 306 307
f 260 307 261
f 261 307 308
f 261 308 262
f 251 263 309
f 251 309 297
f 262 308 310
f 262 310 264
f 263 265 311
f 263 311 309
f 264 310 312
f 264 312 266
f 265 267 313
f 265 313 311
f 266 312 314
f 266 314 268
f 267 269 315
f 267 315 313
f 268 314 316
f 268 316 270
f 269 271 317
f 269 317 315
f 270 316 318
f 270 318 272
f 271 273 319
f 271 319 317
f 272 318 320
f 272 320 274
f 273 275 321
f 273 321 319
f 274 320 322
f 274 322 276
f 275 277 323
f 275 323 321
f 276 322 324
f 276 324 278
f 277 279 325
f 277 325 323
f 278 324 326
f 278 326 280
f 279 281 327
f 279 327 325
f 280 326 328
f 280 328 282
f 284 283 329
f 284 329 330
f 281 284 330
f 281 330 327
f 283 285 331
f 283 331 329
f 285 286 332
f 285 332 331
f 286 287 333
f 286 333 332
f 287 288 334
f 287 334 333
f 288 289 335
f 288 335 334
f 289 290 336
f 289 336 335
f 290 291 337
f 290 337 336
f 291 292 338
f 291 338 337
f 292 293 339
f 292 339 338
f 293 294 340
f 293 340 339
f 282 328 340
f 282 340 294
f 295 341 342
f 295 342 296
f 295 297 343
f 295 343 341
f 296 342 344
f 296 344 298
f 298 344 345
f 298 345 299
f 299 345 346
f 299 346 300
f 300 346 347
f 300 347 301
f 301 347 348
f 301 348 302
f 302 348 349
f 302 349 303
f 303 349 350
f 303 350 304
f 304 350 351
f 304 351 305
f 305 351 352
f 305 352 306
f 306 352 353
f 306 353 307
f 307 308 354
f 307 354 355
f 307 353 356
f 307 356 355
f 355 356 357
f 355 357 354
f 297 309 358
f 297 358 343
f 308 310 359
f 308 359 354
f 354 357 360
f 354 360 359
f 309 311 361
f 309 361 358
f 310 312 362
f 310 362 359
f 359 360 363
f 359 363 362
f 311 313 364
f 311 364 361
f 312 314 365
f 312 365 362
f 362 363 366
f 362 366 365
f 313 315 367
f 313 367 364
f 314 316 368
f 314 368 365
f 365 366 369
f 365 369 368
f 315 317 370
f 315 370 367
f 316 318 371
f 316 371 368
f 368 369 372
f 368 372 371
f 317 319 373
f 317 373 370
f 318 320 374
f 318 374 371
f 371 372 375
f 371 375 374
f 319 321 376
f 319 376 373
f 320 322 377
f 320 377 374
f 374 375 378
f 374 378 377
f 321 323 379
f 321 379 376
f 322 324 380
f 322 380 377
f 377 378 381
f 377 381 380
f 323 325 382
f 323 382 379
f 324 326 383
f 324 383 380
f 380 381 384
f 380 384 383
f 325 327 385
f 325 385 382
f 326 328 386
f 326 386 383
f 383 384 387
f 383 387 386
f 330 329 388
f 330 388 389
f 327 330 389
f 327 389 385
f 329 331 390
f 329 390 388
f 331 332 391
f 331 391 390
f 332 333 392
f 332 392 391
f 333 334 393
f 333 393 392
f 334 335 394
f 334 394 393
f 335 336 395
f 335 395 394
f 336 337 396
f 336 396 395
f 337 338 397
f 337 397 396
f 338 339 398
f 338 398 397
f 339 340 399
f 339 399 398
f 328 340 400
f 328 400 386
f 340 400 401
f 340 401 399
f 386 387 401
f 386 401 400
f 341 402 403
f 341 403 342
f 341 343 404
f 341 404 402
f 342 403 405
f 342 405 344
f 344 405 406
f 344 406 345
f 345 406 407
f 345 407 346
f 346 407 408
f 346 408 347
f 347 408 409
f 347 409 348
f 348 409 410
f 348 410 349
f 349 410 411
f 349 411 350
f 350 411 412
f 350 412 351
f 351 412 413
f 351 413 352
f 352 413 414
f 352 414 353
f 353 414 415
f 353 415 356
f 356 415 416
f 356 416 357
f 343 358 417
f 343 417 404
f 357 416 418
f 357 418 360
f 358 361 419
f 358 419 417
f 360 418 420
f 360 420 363
f 361 364 421
f 361 421 419
f 363 420 422
f 363 422 366
f 364 367 423
f 364 423 421
f 366 422 424
f 366 424 369
f 367 370 425
f 367 425 423
f 369 424 426
f 369 426 372
f 370 373 427
f 370 427 425
f 372 426 428
f 372 428 375
f 373 376 429
f 373 429 427
f 375 428 430
f 375 430 378
f 376 379 431
f 376 431 429
f 378 430 432
f 378 432 381
f 379 382 433
f 379 433 431
f 381 432 434
f 381 434 384
f 382 385 435
f 382 435 433
f 384 434 436
f 384 436 387
f 389 388 437
f 389 437 438
f 385 389 438
f 385 438 435
f 388 390 439
f 388 439 437
f 390 391 440
f 390 440 439
f 391 392 441
f 391 441 440
f 392 393 442
f 392 442 441
f 393 394 443
f 393 443 442
f 394 395 444
f 394 444 443
f 395 396 445
f 395 445 444
f 396 397 446
f 396 446 445
f 397 398 447
f 397 447 446
f 398 399 448
f 398 448 447
f 399 401 449
f 399 449 448
f 387 436 449
f 387 449 401
f 402 450 451
f 402 451 403
f 402 404 452
f 402 452 450
f 403 451 453
f 403 453 405
f 405 453 454
f 405 454 406
f 406 454 455
f 406 455 407
f 407 455 456
f 407 456 408
f 408 456 457
f 408 457 409
f 409 457 458
f 409 458 410
f 410 458 459
f 410 459 411
f 411 459 460
f 411 460 412
f 412 460 461
f 412 461 413
f 413 461 462
f 413 462 414
f 414 462 463
f 414 463 415
f 415 463 464
f 415 464 416
f 404 417 465
f 404 465 452
f 416 464 466
f 416 466 418
f 417 419 467
f 417 467 465
f 418 466 468
f 418 468 420
f 419 421 469
f 419 469 467
f 420 468 470
f 420 470 422
f 421 423 471
f 421 471 469
f 422 470 472
f 422 472 424
f 423 425 473
f 423 473 471
f 424 472 474
f 424 474 426
f 425 427 475
f 425 475 473
f 426 474 476
f 426 476 428
f 427 429 477
f 427 477 475
f 428 476 478
f 428 478 430
f 429 431 479
f 429 479 477
f 430 478 480
f 430 480 432
f 431 433 481
f 431 481 479
f 432 480 482
f 432 482 434
f 433 435 483
f 433 483 481
f 434 482 484
f 434 484 436
f 438 437 485
f 438 485 486
f 435 438 486
f 435 486 483
f 437 439 487
f 437 487 485
f 439 440 488
f 439 488 487
f 440 441 489
f 440 489 488
f 441 442 490
f 441 490 489
f 442 443 491
f 442 491 490
f 443 444 492
f 443 492 491
f 444 445 493
f 444 493 492
f 445 446 494
f 445 494 493
f 446 447 495
f 446 495 494
f 447 448 496
f 447 496 495
f 448 449 497
f 448 497 496
f 436 484 497
f 436 497 449
f 450 498 499
f 450 499 451
f 450 452 500
f 450 500 498
f 451 499 501
f 451 501 453
f 453 501 502
f 453 502 454
f 454 502 503
f 454 503 455
f 455 503 504
f 455 504 456
f 456 504 505
f 456 505 457
f 457 505 506
f 457 506 458
f 458 506 507
f 458 507 459
f 459 507 508
f 459 508 460
f 460 508 509
f 460 509 461
f 461 509 510
f 461 510 462
f 462 510 511
f 462 511 463
f 463 511 512
f 463 512 464
f 452 465 513
f 452 513 500
f 464 512 514
f 464 514 466
f 465 467 515
f 465 515 513
f 466 514 516
f 466 516 468
f 467 469 517
f 467 517 515
f 468 516 518
f 468 518 470
f 469 471 519
f 469 519 517
f 470 518 520
f 470 520 472
f 471 473 521
f 471 521 519
f 472 520 522
f 472 522 474
f 473 475 523
f 473 523 521
f 474 522 524
f 474 524 476
f 475 477 525
f 475 525 523
f 476 524 526
f 476 526 478
f 477 479 527
f 477 527 525
f 478 526 528
f 478 528 480
f 479 481 529
f 479 529 527
f 480 528 530
f 480 530 482
f 481 483 531
f 481 531 529
f 482 530 532
f 482 532 484
f 486 485 533
f 486 533 534
f 483 486 534
f 483 534 531
f 485 487 535
f 485 535 533
f 487 488 536
f 487 536 535
f 488 489 537
f 488 537 536
f 489 490 538
f 489 538 537
f 490 491 539
f 490 539 538
f 491 492 540
f 491 540 539
f 492 493 541
f 492 541 540
f 493 494 542
f 493 542 541
f 494 495 543
f 494 543 542
f 495 496 544
f 495 544 543
f 496 497 545
f 496 545 544
f 484 532 545
f 484 545 497
f 498 546 547
f 498 547 499
f 498 500 548
f 498 548 546
f 499 547 549
f 499 549 501
f 501 549 550
f 501 550 502
f 502 550 551
f 502 551 503
f 503 551 552
f 503 552 504
f 504 552 553
f 504 553 505
f 505 553 554
f 505 554 506
f 506 554 555
f 506 555 507
f 507 555 556
f 507 556 508
f 508 556 557
f 508 557 509
f 509 557 558
f 509 558 510
f 510 558 559
f 510 559 511
f 511 559 560
f 511 560 512
f 500 513 561
f 500 561 548
f 512 560 562
f 512 562 514
f 513 515 563
f 513 563 561
f 514 562 564
f 514 564 516
f 515 517 565
f 515 565 563
f 516 564 566
f 516 566 518
f 517 519 567
f 517 567 565
f 518 566 568
f 518 568 520
f 519 521 569
f 519 569 567
f 520 568 570
f 520 570 522
f 521 523 571
f 521 571 569
f 522 570 572
f 522 572 524
f 523 525 573
f 523 573 571
f 524 572 574
f 524 574 526
f 525 527 575
f 525 575 573
f 526 574 576
f 526 576 528
f 527 529 577
f 527 577 575
f 528 576 578
f 528 578 530
f 529 531 579
f 529 579 577
f 530 578 580
f 530 580 532
f 534 533 581
f 534 581 582
f 531 534 582
f 531 582 579
f 533 535 583
f 533 583 581
f 535 536 584
f 535 584 583
f 536 537 585
f 536 585 584
f 537 538 586
f 537 586 585
f 538 539 587
f 538 587 586
f 539 540 588
f 539 588 587
f 540 541 589
f 540 589 588
f 541 542 590
f 541 590 589
f 542 543 591
f 542 591 590
f 543 544 592
f 543 592 591
f 544 545 593
f 544 593 592
f 532 580 593
f 532 593 545
f 546 594 595
f 546 595 547
f 546 548 596
f 546 596 594
f 547 595 597
f 547 597 549
f 549 597 598
f 549 598 550
f 550 598 599
f 550 599 551
f 551 599 600
f 551 600 552
f 552 600 601
f 552 601 553
f 553 601 602
f 553 602 554
f 554 602 603
f 554 603 555
f 555 603 604
f 555 604 556
f 556 604 605
f 556 605 557
f 557 605 606
f 557 606 558
f 558 606 607
f 558 607 559
f 559 607 608
f 559 608 560
f 548 561 609
f 548 609 596
f 560 608 610
f 560 610 562
f 561 563 611
f 561 611 609
f 562 610 612
f 562 612 564
f 563 565 613
f 563 613 611
f 564 612 614
f 564 614 566
f 565 567 615
f 565 615 613
f 566 614 616
f 566 616 568
f 567 569 617
f 567 617 615
f 568 616 618
f 568 618 570
f 569 571 619
f 569 619 617
f 570 618 620
f 570 620 572
f 571 573 621
f 571 621 619
f 572 620 622
f 572 622 574
f 573 575 623
f 573 623 621
f 574 622 624
f 574 624 576
f 575 577 625
f 575 625 623
f 576 624 626
f 576 626 578
f 577 579 627
f 577 627 625
f 578 626 628
f 578 628 580
f 582 581 629
f 582 629 630
f 579 582 630
f 579 630 627
f 581 583 631
f 581 631 629
f 583 584 632
f 583 632 631
f 584 585 633
f 584 633 632
f 585 586 634
f 585 634 633
f 586 587 635
f 586 635 634
f 587 588 636
f 587 636 635
f 588 589 637
f 588 637 636
f 589 590 638
f 589 638 637
f 590 591 639
f 590 639 638
f 591 592 640
f 591 640 639
f 592 593 641
f 592 641 640
f 580 628 641
f 580 641 593
f 594 642 643
f 594 643 595
f 594 596 644
f 594 644 642
f 595 643 645
f 595 645 597
f 597 645 646
f 597 646 598
f 598 646 647
f 598 647 599
f 599 647 648
f 599 648 600
f 600 648 649
f 600 649 601
f 601 649 650
f 601 650 602
f 602 650 651
f 602 651 603
f 603 651 652
f 603 652 604
f 604 652 653
f 604 653 605
f 605 653 654
f 605 654 606
f 606 654 655
f 606 655 607
f 607 655 656
f 607 656 608
f 596 609 657
f 596 657 644
f 608 656 658
f 608 658 610
f 609 611 659
f 609 659 657
f 610 658 660
f 610 660 612
f 611 613 661
f 611 661 659
f 612 660 662
f 612 662 614
f 613 615 663
f 613 663 661
f 614 662 664
f 614 664 616
f 615 617 665
f 615 665 663
f 616 664 666
f 616 666 618
f 617 619 667
f 617 667 665
f 618 666 668
f 618 668 620
f 619 621 669
f 619 669 667
f 620 668 670
f 620 670 622
f 621 623 671
f 621 671 669
f 622 670 672
f 622 672 624
f 623 625 673
f 623 673 671
f 624 672 674
f 624 674 626
f 625 627 675
f 625 675 673
f 626 674 676
f 626 676 628
f 630 629 677
f 630 677 678
f 627 630 678
f 627 678 675
f 629 631 679
f 629 679 677
f 631 632 680
f 631 680 679
f 632 633 681
f 632 681 680
f 633 634 682
f 633 682 681
f 634 635 683
f 634 683 682
f 635 636 684
f 635 684 683
f 636 637 685
f 636 685 684
f 637 638 686
f 637 686 685
f 638 639 687
f 638 687 686
f 639 640 688
f 639 688 687
f 640 641 689
f 640 689 688
f 628 676 689
f 628 689 641
f 690 691 692
f 690 692 693
f 642 690 691
f 642 691 643
f 642 644 693
f 642 693 690
f 691 694 695
f 691 695 692
f 643 691 694
f 643 694 645
f 694 696 697
f 694 697 695
f 645 694 696
f 645 696 646
f 696 698 699
f 696 699 697
f 646 696 698
f 646 698 647
f 698 700 701
f 698 701 699
f 647 698 700
f 647 700 648
f 700 702 703
f 700 703 701
f 648 700 702
f 648 702 649
f 702 704 705
f 702 705 703
f 649 702 704
f 649 704 650
f 704 706 707
f 704 707 705
f 650 704 706
f 650 706 651
f 706 708 709
f 706 709 707
f 651 706 708
f 651 708 652
f 708 710 711
f 708 711 709
f 652 708 710
f 652 710 653
f 710 712 713
f 710 713 711
f 653 710 712
f 653 712 654
f 712 714 715
f 712 715 713
f 654 712 714
f 654 714 655
f 655 714 715
f 655 715 656
f 693 692 716
f 693 716 717
f 644 657 717
f 644 717 693
f 692 695 718
f 692 718 716
f 695 697 719
f 695 719 718
f 697 699 720
f 697 720 719
f 699 701 721
f 699 721 720
f 701 703 722
f 701 722 721
f 703 705 723
f 703 723 722
f 705 707 724
f 705 724 723
f 707 709 725
f 707 725 724
f 709 711 726
f 709 726 725
f 711 713 727
f 711 727 726
f 713 715 728
f 713 728 727
f 656 715 728
f 656 728 658
f 717 716 729
f 717 729 730
f 657 659 730
f 657 730 717
f 716 718 731
f 716 731 729
f 718 719 732
f 718 732 731
f 719 720 733
f 719 733 732
f 720 721 734
f 720 734 733
f 721 722 735
f 721 735 734
f 722 723 736
f 722 736 735
f 723 724 737
f 723 737 736
f 724 725 738
f 724 738 737
f 725 726 739
f 725 739 738
f 726 727 740
f 726 740 739
f 727 728 741
f 727 741 740
f 658 728 741
f 658 741 660
f 730 729 742
f 730 742 743
f 659 661 743
f 659 743 730
f 729 731 744
f 729 744 742
f 731 732 745
f 731 745 744
f 732 733 746
f 732 746 745
f 733 734 747
f 733 747 746
f 734 735 748
f 734 748 747
f 735 736 749
f 735 749 748
f 736 737 750
f 736 750 749
f 737 738 751
f 737 751 750
f 738 739 752
f 738 752 751
f 739 740 753
f 739 753 752
f 740 741 754
f 740 754 753
f 660 741 754
f 660 754 662
f 743 742 755
f 743 755 756
f 661 663 756
f 661 756 743
f 742 744 757
f 742 757 755
f 744 745 758
f 744 758 757
f 745 746 759
f 745 759 758
f 746 747 760
f 746 760 759
f 747 748 761
f 747 761 760
f 748 749 762
f 748 762 761
f 749 750 763
f 749 763 762
f 750 751 764
f 750 764 763
f 751 752 765
f 751 765 764
f 752 753 766
f 752 766 765
f 753 754 767
f 753 767 766
f 662 754 767
f 662 767 664
f 756 755 768
f 756 768 769
f 663 665 769
f 663 769 756
f 755 757 770
f 755 770 768
f 757 758 771
f 757 771 770
f 758 759 772
f 758 772 771
f 759 760 773
f 759 773 772
f 760 761 774
f 760 774 773
f 761 762 775
f 761 775 774
f 762 763 776
f 762 776 775
f 763 764 777
f 763 777 776
f 764 765 778
f 764 778 777
f 765 766 779
f 765 779 778
f 766 767 780
f 766 780 779
f 664 767 780
f 664 780 666
f 769 768 781
f 769 781 782
f 665 667 782
f 665 782 769
f 768 770 783
f 768 783 781
f 770 771 784
f 770 784 783
f 771 772 785
f 771 785 784
f 772 773 786
f 772 786 785
f 773 774 787
f 773 787 786
f 774 775 788
f 774 788 787
f 775 776 789
f 775 789 788
f 776 777 790
f 776 790 789
f 777 778 791
f 777 791 790
f 778 779 792
f 778 792 791
f 779 780 793
f 779 793 792
f 666 780 793
f 666 793 668
f 782 781 794
f 782 794 795
f 667 669 795
f 667 795 782
f 781 783 796
f 781 796 794
f 783 784 797
f 783 797 796
f 784 785 798
f 784 798 797
f 785 786 799
f 785 799 798
f 786 787 800
f 786 800 799
f 787 788 801
f 787 801 800
f 788 789 802
f 788 802 801
f 789 790 803
f 789 803 802
f 790 791 804
f 790 804 803
f 791 792 805
f 791 805 804
f 792 793 806
f 792 806 805
f 668 793 806
f 668 806 670
f 795 794 807
f 795 807 808
f 669 671 808
f 669 808 795
f 794 796 809
f 794 809 807
f 796 797 810
f 796 810 809
f 797 798 811
f 797 811 810
f 798 799 812
f 798 812 811
f 799 800 813
f 799 813 812
f 800 801 814
f 800 814 813
f 801 802 815
f 801 815 814
f 802 803 816
f 802 816 815
f 803 804 817
f 803 817 816
f 804 805 818
f 804 818 817
f 805 806 819
f 805 819 818
f 670 806 819
f 670 819 672
f 808 807 820
f 808 820 821
f 671 673 821
f 671 821 808
f 807 809 822
f 807 822 820
f 809 810 823
f 809 823 822
f 810 811 824
f 810 824 823
f 811 812 825
f 811 825 824
f 812 813 826
f 812 826 825
f 813 814 827
f 813 827 826
f 814 815 828
f 814 828 827
f 815 816 829
f 815 829 828
f 816 817 830
f 816 830 829
f 817 818 831
f 817 831 830
f 818 819 832
f 818 832 831
f 672 819 832
f 672 832 674
f 821 820 833
f 821 833 834
f 673 675 834
f 673 834 821
f 820 822 835
f 820 835 833
f 822 823 836
f 822 836 835
f 823 824 837
f 823 837 836
f 824 825 838
f 824 838 837
f 825 826 839
f 825 839 838
f 826 827 840
f 826 840 839
f 827 828 841
f 827 841 840
f 828 829 842
f 828 842 841
f 829 830 843
f 829 843 842
f 830 831 844
f 830 844 843
f 831 832 845
f 831 845 844
f 674 832 845
f 674 845 676
f 834 833 846
f 834 846 847
f 678 677 846
f 678 846 847
f 675 678 847
f 675 847 834
f 833 835 848
f 833 848 846
f 677 679 848
f 677 848 846
f 835 836 849
f 835 849 848
f 679 680 849
f 679 849 848
f 836 837 850
f 836 850 849
f 680 681 850
f 680 850 849
f 837 838 851
f 837 851 850
f 681 682 851
f 681 851 850
f 838 839 852
f 838 852 851
f 682 683 852
f 682 852 851
f 839 840 853
f 839 853 852
f 683 684 853
f 683 853 852
f 840 841 854
f 840 854 853
f 684 685 854
f 684 854 853
f 841 842 855
f 841 855 854
f 685 686 855
f 685 855 854
f 842 843 856
f 842 856 855
f 686 687 856
f 686 856 855
f 843 844 857
f 843 857 856
f 687 688 857
f 687 857 856
f 844 845 858
f 844 858 857
f 688 689 858
f 688 858 857
f 676 845 858
f 676 858 689
