o JSONAkashi_669
v 58.975000 -23.025000 -10.563875
v 58.975000 -22.937500 -10.563875
v 58.975000 -22.937500 -0.902477
v 58.975000 -23.025000 -0.902477
v 59.062500 -23.025000 -10.563875
v 59.062500 -23.025000 -0.902477
v 59.062500 -22.937500 -10.563875
v 58.975000 -22.937500 8.758921
v 58.975000 -23.025000 8.758921
v 59.062500 -23.025000 8.758921
v 58.975000 -22.937500 18.420319
v 58.975000 -23.025000 18.420319
v 59.062500 -23.025000 18.420319
v 58.975000 -22.937500 28.081718
v 58.975000 -23.025000 28.081718
v 59.062500 -23.025000 28.081718
v 58.975000 -22.937500 37.743116
v 58.975000 -23.025000 37.743116
v 59.062500 -23.025000 37.743116
v 58.975000 -22.937500 47.404514
v 58.975000 -23.025000 47.404514
v 59.062500 -23.025000 47.404514
v 58.975000 -22.937500 57.065912
v 58.975000 -23.025000 57.065912
v 59.062500 -23.025000 57.065912
v 58.975000 -22.937500 66.727310
v 58.975000 -23.025000 66.727310
v 59.062500 -23.025000 66.727310
v 58.975000 -22.937500 76.388708
v 58.975000 -23.025000 76.388708
v 59.062500 -23.025000 76.388708
v 58.975000 -22.937500 86.050106
v 58.975000 -23.025000 86.050106
v 59.062500 -23.025000 86.050106
v 58.975000 -22.937500 95.711504
v 58.975000 -23.025000 95.711504
v 59.062500 -23.025000 95.711504
v 58.975000 -22.937500 105.372902
v 58.975000 -23.025000 105.372902
v 59.062500 -23.025000 105.372902
v 58.975000 -22.937500 115.034300
v 58.975000 -23.025000 115.034300
v 59.062500 -23.025000 115.034300
v 58.975000 -22.937500 124.695698
v 58.975000 -23.025000 124.695698
v 59.062500 -23.025000 124.695698
v 59.062500 -22.937500 124.695698
v 58.975000 -22.850000 -10.563875
v 58.975000 -22.850000 -0.902477
v 59.062500 -22.850000 -10.563875
v 58.975000 -22.850000 8.758921
v 58.975000 -22.850000 18.420319
v 58.975000 -22.850000 28.081718
v 58.975000 -22.850000 37.743116
v 58.975000 -22.850000 47.404514
v 58.975000 -22.850000 57.065912
v 58.975000 -22.850000 66.727310
v 58.975000 -22.850000 76.388708
v 58.975000 -22.850000 86.050106
v 58.975000 -22.850000 95.711504
v 58.975000 -22.850000 105.372902
v 58.975000 -22.850000 115.034300
v 58.975000 -22.850000 124.695698
v 59.062500 -22.850000 124.695698
v 58.975000 -22.762500 -10.563875
v 58.975000 -22.762500 -0.902477
v 59.062500 -22.762500 -10.563875
v 58.975000 -22.762500 8.758921
v 58.975000 -22.762500 18.420319
v 58.975000 -22.762500 28.081718
v 58.975000 -22.762500 37.743116
v 58.975000 -22.762500 47.404514
v 58.975000 -22.762500 57.065912
v 58.975000 -22.762500 66.727310
v 58.975000 -22.762500 76.388708
v 58.975000 -22.762500 86.050106
v 58.975000 -22.762500 95.711504
v 58.975000 -22.762500 105.372902
v 58.975000 -22.762500 115.034300
v 58.975000 -22.762500 124.695698
v 59.062500 -22.762500 124.695698
v 58.975000 -22.675000 -10.563875
v 58.975000 -22.675000 -0.902477
v 59.062500 -22.675000 -10.563875
v 58.975000 -22.675000 8.758921
v 58.975000 -22.675000 18.420319
v 58.975000 -22.675000 28.081718
v 58.975000 -22.675000 37.743116
v 58.975000 -22.675000 47.404514
v 58.975000 -22.675000 57.065912
v 58.975000 -22.675000 66.727310
v 58.975000 -22.675000 76.388708
v 58.975000 -22.675000 86.050106
v 58.975000 -22.675000 95.711504
v 58.975000 -22.675000 105.372902
v 58.975000 -22.675000 115.034300
v 58.975000 -22.675000 124.695698
v 59.062500 -22.675000 124.695698
v 58.975000 -22.587500 -10.563875
v 58.975000 -22.587500 -0.902477
v 59.062500 -22.587500 -10.563875
v 58.975000 -22.587500 8.758921
v 58.975000 -22.587500 18.420319
v 58.975000 -22.587500 28.081718
v 58.975000 -22.587500 37.743116
v 58.975000 -22.587500 47.404514
v 58.975000 -22.587500 57.065912
v 58.975000 -22.587500 66.727310
v 58.975000 -22.587500 76.388708
v 58.975000 -22.587500 86.050106
v 58.975000 -22.587500 95.711504
v 58.975000 -22.587500 105.372902
v 58.975000 -22.587500 115.034300
v 58.975000 -22.587500 124.695698
v 59.062500 -22.587500 124.695698
v 58.975000 -22.500000 -10.563875
v 58.975000 -22.500000 -0.902477
v 59.062500 -22.500000 -10.563875
v 58.975000 -22.500000 8.758921
v 58.975000 -22.500000 18.420319
v 58.975000 -22.500000 28.081718
v 58.975000 -22.500000 37.743116
v 58.975000 -22.500000 47.404514
v 58.975000 -22.500000 57.065912
v 58.975000 -22.500000 66.727310
v 58.975000 -22.500000 76.388708
v 58.975000 -22.500000 86.050106
v 58.975000 -22.500000 95.711504
v 58.975000 -22.500000 105.372902
v 58.975000 -22.500000 115.034300
v 58.975000 -22.500000 124.695698
v 59.062500 -22.500000 124.695698
v 58.975000 -22.412500 -10.563875
v 58.975000 -22.412500 -0.902477
v 59.062500 -22.412500 -10.563875
v 58.975000 -22.412500 8.758921
v 58.975000 -22.412500 18.420319
v 58.975000 -22.412500 28.081718
v 58.975000 -22.412500 37.743116
v 58.975000 -22.412500 47.404514
v 58.975000 -22.412500 57.065912
v 58.975000 -22.412500 66.727310
v 58.975000 -22.412500 76.388708
v 58.975000 -22.412500 86.050106
v 58.975000 -22.412500 95.711504
v 58.975000 -22.412500 105.372902
v 58.975000 -22.412500 115.034300
v 58.975000 -22.412500 124.695698
v 59.062500 -22.412500 124.695698
v 58.975000 -22.325000 -10.563875
v 58.975000 -22.325000 -0.902477
v 59.062500 -22.325000 -10.563875
v 58.975000 -22.325000 8.758921
v 58.975000 -22.325000 18.420319
v 58.975000 -22.325000 28.081718
v 58.975000 -22.325000 37.743116
v 58.975000 -22.325000 47.404514
v 58.975000 -22.325000 57.065912
v 58.975000 -22.325000 66.727310
v 58.975000 -22.325000 76.388708
v 58.975000 -22.325000 86.050106
v 58.975000 -22.325000 95.711504
v 58.975000 -22.325000 105.372902
v 58.975000 -22.325000 115.034300
v 58.975000 -22.325000 124.695698
v 59.062500 -22.325000 124.695698
v 58.975000 -22.237500 -10.563875
v 58.975000 -22.237500 -0.902477
v 59.062500 -22.237500 -10.563875
v 58.975000 -22.237500 8.758921
v 58.975000 -22.237500 18.420319
v 58.975000 -22.237500 28.081718
v 58.975000 -22.237500 37.743116
v 58.975000 -22.237500 47.404514
v 58.975000 -22.237500 57.065912
v 58.975000 -22.237500 66.727310
v 58.975000 -22.237500 76.388708
v 58.975000 -22.237500 86.050106
v 58.975000 -22.237500 95.711504
v 58.975000 -22.237500 105.372902
v 58.975000 -22.237500 115.034300
v 58.975000 -22.237500 124.695698
v 59.062500 -22.237500 124.695698
v 58.975000 -22.150000 -10.563875
v 58.975000 -22.150000 -0.902477
v 59.062500 -22.150000 -10.563875
v 58.975000 -22.150000 8.758921
v 58.975000 -22.150000 18.420319
v 58.975000 -22.150000 28.081718
v 58.975000 -22.150000 37.743116
v 58.975000 -22.150000 47.404514
v 58.975000 -22.150000 57.065912
v 58.975000 -22.150000 66.727310
v 58.975000 -22.150000 76.388708
v 58.975000 -22.150000 86.050106
v 58.975000 -22.150000 95.711504
v 58.975000 -22.150000 105.372902
v 58.975000 -22.150000 115.034300
v 58.975000 -22.150000 124.695698
v 59.062500 -22.150000 124.695698
v 58.975000 -22.062500 -10.563875
v 58.975000 -22.062500 -0.902477
v 59.062500 -22.062500 -10.563875
v 58.975000 -22.062500 8.758921
v 58.975000 -22.062500 18.420319
v 58.975000 -22.062500 28.081718
v 58.975000 -22.062500 37.743116
v 58.975000 -22.062500 47.404514
v 58.975000 -22.062500 57.065912
v 58.975000 -22.062500 66.727310
v 58.975000 -22.062500 76.388708
v 58.975000 -22.062500 86.050106
v 58.975000 -22.062500 95.711504
v 58.975000 -22.062500 105.372902
v 58.975000 -22.062500 115.034300
v 58.975000 -22.062500 124.695698
v 59.062500 -22.062500 124.695698
v 58.975000 -21.975000 -10.563875
v 58.975000 -21.975000 -0.902477
v 59.062500 -21.975000 -0.902477
v 59.062500 -21.975000 -10.563875
v 58.975000 -21.975000 8.758921
v 59.062500 -21.975000 8.758921
v 58.975000 -21.975000 18.420319
v 59.062500 -21.975000 18.420319
v 58.975000 -21.975000 28.081718
v 59.062500 -21.975000 28.081718
v 58.975000 -21.975000 37.743116
v 59.062500 -21.975000 37.743116
v 58.975000 -21.975000 47.404514
v 59.062500 -21.975000 47.404514
v 58.975000 -21.975000 57.065912
v 59.062500 -21.975000 57.065912
v 58.975000 -21.975000 66.727310
v 59.062500 -21.975000 66.727310
v 58.975000 -21.975000 76.388708
v 59.062500 -21.975000 76.388708
v 58.975000 -21.975000 86.050106
v 59.062500 -21.975000 86.050106
v 58.975000 -21.975000 95.711504
v 59.062500 -21.975000 95.711504
v 58.975000 -21.975000 105.372902
v 59.062500 -21.975000 105.372902
v 58.975000 -21.975000 115.034300
v 59.062500 -21.975000 115.034300
v 58.975000 -21.975000 124.695698
v 59.062500 -21.975000 124.695698
v 59.150000 -23.025000 -10.563875
v 59.150000 -23.025000 -0.902477
v 59.150000 -22.937500 -10.563875
v 59.150000 -23.025000 8.758921
v 59.150000 -23.025000 18.420319
v 59.150000 -23.025000 28.081718
v 59.150000 -23.025000 37.743116
v 59.150000 -23.025000 47.404514
v 59.150000 -23.025000 57.065912
v 59.150000 -23.025000 66.727310
v 59.150000 -23.025000 76.388708
v 59.150000 -23.025000 86.050106
v 59.150000 -23.025000 95.711504
v 59.150000 -23.025000 105.372902
v 59.150000 -23.025000 115.034300
v 59.150000 -23.025000 124.695698
v 59.150000 -22.937500 124.695698
v 59.150000 -22.850000 -10.563875
v 59.150000 -22.850000 124.695698
v 59.150000 -22.762500 -10.563875
v 59.150000 -22.762500 124.695698
v 59.150000 -22.675000 -10.563875
v 59.150000 -22.675000 124.695698
v 59.150000 -22.587500 -10.563875
v 59.150000 -22.587500 124.695698
v 59.150000 -22.500000 -10.563875
v 59.150000 -22.500000 124.695698
v 59.150000 -22.412500 -10.563875
v 59.150000 -22.412500 124.695698
v 59.150000 -22.325000 -10.563875
v 59.150000 -22.325000 124.695698
v 59.150000 -22.237500 -10.563875
v 59.150000 -22.237500 124.695698
v 59.150000 -22.150000 -10.563875
v 59.150000 -22.150000 124.695698
v 59.150000 -22.062500 -10.563875
v 59.150000 -22.062500 124.695698
v 59.150000 -21.975000 -0.902477
v 59.150000 -21.975000 -10.563875
v 59.150000 -21.975000 8.758921
v 59.150000 -21.975000 18.420319
v 59.150000 -21.975000 28.081718
v 59.150000 -21.975000 37.743116
v 59.150000 -21.975000 47.404514
v 59.150000 -21.975000 57.065912
v 59.150000 -21.975000 66.727310
v 59.150000 -21.975000 76.388708
v 59.150000 -21.975000 86.050106
v 59.150000 -21.975000 95.711504
v 59.150000 -21.975000 105.372902
v 59.150000 -21.975000 115.034300
v 59.150000 -21.975000 124.695698
v 59.237500 -23.025000 -10.563875
v 59.237500 -23.025000 -0.902477
v 59.237500 -22.937500 -10.563875
v 59.237500 -23.025000 8.758921
v 59.237500 -23.025000 18.420319
v 59.237500 -23.025000 28.081718
v 59.237500 -23.025000 37.743116
v 59.237500 -23.025000 47.404514
v 59.237500 -23.025000 57.065912
v 59.237500 -23.025000 66.727310
v 59.237500 -23.025000 76.388708
v 59.237500 -23.025000 86.050106
v 59.237500 -23.025000 95.711504
v 59.237500 -23.025000 105.372902
v 59.237500 -23.025000 115.034300
v 59.237500 -23.025000 124.695698
v 59.237500 -22.937500 124.695698
v 59.237500 -22.850000 -10.563875
v 59.237500 -22.850000 124.695698
v 59.237500 -22.762500 -10.563875
v 59.237500 -22.762500 124.695698
v 59.237500 -22.675000 -10.563875
v 59.237500 -22.675000 124.695698
v 59.237500 -22.587500 -10.563875
v 59.237500 -22.587500 124.695698
v 59.237500 -22.500000 -10.563875
v 59.237500 -22.500000 124.695698
v 59.237500 -22.412500 -10.563875
v 59.237500 -22.412500 124.695698
v 59.237500 -22.325000 -10.563875
v 59.237500 -22.325000 124.695698
v 59.237500 -22.237500 -10.563875
v 59.237500 -22.237500 124.695698
v 59.237500 -22.150000 -10.563875
v 59.237500 -22.150000 124.695698
v 59.237500 -22.062500 -10.563875
v 59.237500 -22.062500 124.695698
v 59.237500 -21.975000 -0.902477
v 59.237500 -21.975000 -10.563875
v 59.237500 -21.975000 8.758921
v 59.237500 -21.975000 18.420319
v 59.237500 -21.975000 28.081718
v 59.237500 -21.975000 37.743116
v 59.237500 -21.975000 47.404514
v 59.237500 -21.975000 57.065912
v 59.237500 -21.975000 66.727310
v 59.237500 -21.975000 76.388708
v 59.237500 -21.975000 86.050106
v 59.237500 -21.975000 95.711504
v 59.237500 -21.975000 105.372902
v 59.237500 -21.975000 115.034300
v 59.237500 -21.975000 124.695698
v 59.325000 -23.025000 -10.563875
v 59.325000 -23.025000 -0.902477
v 59.325000 -22.937500 -10.563875
v 59.325000 -23.025000 8.758921
v 59.325000 -23.025000 18.420319
v 59.325000 -23.025000 28.081718
v 59.325000 -23.025000 37.743116
v 59.325000 -23.025000 47.404514
v 59.325000 -23.025000 57.065912
v 59.325000 -23.025000 66.727310
v 59.325000 -23.025000 76.388708
v 59.325000 -23.025000 86.050106
v 59.325000 -23.025000 95.711504
v 59.325000 -23.025000 105.372902
v 59.325000 -23.025000 115.034300
v 59.325000 -23.025000 124.695698
v 59.325000 -22.937500 124.695698
v 59.325000 -22.850000 -10.563875
v 59.325000 -22.850000 124.695698
v 59.325000 -22.762500 -10.563875
v 59.325000 -22.762500 124.695698
v 59.325000 -22.675000 -10.563875
v 59.325000 -22.675000 124.695698
v 59.325000 -22.587500 -10.563875
v 59.325000 -22.587500 124.695698
v 59.325000 -22.500000 -10.563875
v 59.325000 -22.500000 124.695698
v 59.325000 -22.412500 -10.563875
v 59.325000 -22.412500 124.695698
v 59.325000 -22.325000 -10.563875
v 59.325000 -22.325000 124.695698
v 59.325000 -22.237500 -10.563875
v 59.325000 -22.237500 124.695698
v 59.325000 -22.150000 -10.563875
v 59.325000 -22.150000 124.695698
v 59.325000 -22.062500 -10.563875
v 59.325000 -22.062500 124.695698
v 59.325000 -21.975000 -0.902477
v 59.325000 -21.975000 -10.563875
v 59.325000 -21.975000 8.758921
v 59.325000 -21.975000 18.420319
v 59.325000 -21.975000 28.081718
v 59.325000 -21.975000 37.743116
v 59.325000 -21.975000 47.404514
v 59.325000 -21.975000 57.065912
v 59.325000 -21.975000 66.727310
v 59.325000 -21.975000 76.388708
v 59.325000 -21.975000 86.050106
v 59.325000 -21.975000 95.711504
v 59.325000 -21.975000 105.372902
v 59.325000 -21.975000 115.034300
v 59.325000 -21.975000 124.695698
v 59.412500 -23.025000 -10.563875
v 59.412500 -23.025000 -0.902477
v 59.412500 -22.937500 -10.563875
v 59.412500 -23.025000 8.758921
v 59.412500 -23.025000 18.420319
v 59.412500 -23.025000 28.081718
v 59.412500 -23.025000 37.743116
v 59.412500 -23.025000 47.404514
v 59.412500 -23.025000 57.065912
v 59.412500 -23.025000 66.727310
v 59.412500 -23.025000 76.388708
v 59.412500 -23.025000 86.050106
v 59.412500 -23.025000 95.711504
v 59.412500 -23.025000 105.372902
v 59.412500 -23.025000 115.034300
v 59.412500 -23.025000 124.695698
v 59.412500 -22.937500 124.695698
v 59.412500 -22.850000 -10.563875
v 59.412500 -22.850000 124.695698
v 59.412500 -22.762500 -10.563875
v 59.412500 -22.762500 124.695698
v 59.412500 -22.675000 -10.563875
v 59.412500 -22.675000 124.695698
v 59.412500 -22.587500 -10.563875
v 59.412500 -22.587500 124.695698
v 59.412500 -22.500000 -10.563875
v 59.412500 -22.500000 124.695698
v 59.412500 -22.412500 -10.563875
v 59.412500 -22.412500 124.695698
v 59.412500 -22.325000 -10.563875
v 59.412500 -22.325000 124.695698
v 59.412500 -22.237500 -10.563875
v 59.412500 -22.237500 124.695698
v 59.412500 -22.150000 -10.563875
v 59.412500 -22.150000 124.695698
v 59.412500 -22.062500 -10.563875
v 59.412500 -22.062500 124.695698
v 59.412500 -21.975000 -0.902477
v 59.412500 -21.975000 -10.563875
v 59.412500 -21.975000 8.758921
v 59.412500 -21.975000 18.420319
v 59.412500 -21.975000 28.081718
v 59.412500 -21.975000 37.743116
v 59.412500 -21.975000 47.404514
v 59.412500 -21.975000 57.065912
v 59.412500 -21.975000 66.727310
v 59.412500 -21.975000 76.388708
v 59.412500 -21.975000 86.050106
v 59.412500 -21.975000 95.711504
v 59.412500 -21.975000 105.372902
v 59.412500 -21.975000 115.034300
v 59.412500 -21.975000 124.695698
v 59.500000 -23.025000 -10.563875
v 59.500000 -23.025000 -0.902477
v 59.500000 -22.937500 -10.563875
v 59.500000 -23.025000 8.758921
v 59.500000 -23.025000 18.420319
v 59.500000 -23.025000 28.081718
v 59.500000 -23.025000 37.743116
v 59.500000 -23.025000 47.404514
v 59.500000 -23.025000 57.065912
v 59.500000 -23.025000 66.727310
v 59.500000 -23.025000 76.388708
v 59.500000 -23.025000 86.050106
v 59.500000 -23.025000 95.711504
v 59.500000 -23.025000 105.372902
v 59.500000 -23.025000 115.034300
v 59.500000 -23.025000 124.695698
v 59.500000 -22.937500 124.695698
v 59.500000 -22.850000 -10.563875
v 59.500000 -22.850000 124.695698
v 59.500000 -22.762500 -10.563875
v 59.500000 -22.762500 124.695698
v 59.500000 -22.675000 -10.563875
v 59.500000 -22.675000 124.695698
v 59.500000 -22.587500 -10.563875
v 59.500000 -22.587500 124.695698
v 59.500000 -22.500000 -10.563875
v 59.500000 -22.500000 124.695698
v 59.500000 -22.412500 -10.563875
v 59.500000 -22.412500 124.695698
v 59.500000 -22.325000 -10.563875
v 59.500000 -22.325000 124.695698
v 59.500000 -22.237500 -10.563875
v 59.500000 -22.237500 124.695698
v 59.500000 -22.150000 -10.563875
v 59.500000 -22.150000 124.695698
v 59.500000 -22.062500 -10.563875
v 59.500000 -22.062500 124.695698
v 59.500000 -21.975000 -0.902477
v 59.500000 -21.975000 -10.563875
v 59.500000 -21.975000 8.758921
v 59.500000 -21.975000 18.420319
v 59.500000 -21.975000 28.081718
v 59.500000 -21.975000 37.743116
v 59.500000 -21.975000 47.404514
v 59.500000 -21.975000 57.065912
v 59.500000 -21.975000 66.727310
v 59.500000 -21.975000 76.388708
v 59.500000 -21.975000 86.050106
v 59.500000 -21.975000 95.711504
v 59.500000 -21.975000 105.372902
v 59.500000 -21.975000 115.034300
v 59.500000 -21.975000 124.695698
v 59.587500 -23.025000 -10.563875
v 59.587500 -23.025000 -0.902477
v 59.587500 -22.937500 -10.563875
v 59.587500 -23.025000 8.758921
v 59.587500 -23.025000 18.420319
v 59.587500 -23.025000 28.081718
v 59.587500 -23.025000 37.743116
v 59.587500 -23.025000 47.404514
v 59.587500 -23.025000 57.065912
v 59.587500 -23.025000 66.727310
v 59.587500 -23.025000 76.388708
v 59.587500 -23.025000 86.050106
v 59.587500 -23.025000 95.711504
v 59.587500 -23.025000 105.372902
v 59.587500 -23.025000 115.034300
v 59.587500 -23.025000 124.695698
v 59.587500 -22.937500 124.695698
v 59.587500 -22.850000 -10.563875
v 59.587500 -22.850000 124.695698
v 59.587500 -22.762500 -10.563875
v 59.587500 -22.762500 124.695698
v 59.587500 -22.675000 -10.563875
v 59.587500 -22.675000 124.695698
v 59.587500 -22.587500 -10.563875
v 59.587500 -22.587500 124.695698
v 59.587500 -22.500000 -10.563875
v 59.587500 -22.500000 124.695698
v 59.587500 -22.412500 -10.563875
v 59.587500 -22.412500 124.695698
v 59.587500 -22.325000 -10.563875
v 59.587500 -22.325000 124.695698
v 59.587500 -22.237500 -10.563875
v 59.587500 -22.237500 124.695698
v 59.587500 -22.150000 -10.563875
v 59.587500 -22.150000 124.695698
v 59.587500 -22.062500 -10.563875
v 59.587500 -22.062500 124.695698
v 59.587500 -21.975000 -0.902477
v 59.587500 -21.975000 -10.563875
v 59.587500 -21.975000 8.758921
v 59.587500 -21.975000 18.420319
v 59.587500 -21.975000 28.081718
v 59.587500 -21.975000 37.743116
v 59.587500 -21.975000 47.404514
v 59.587500 -21.975000 57.065912
v 59.587500 -21.975000 66.727310
v 59.587500 -21.975000 76.388708
v 59.587500 -21.975000 86.050106
v 59.587500 -21.975000 95.711504
v 59.587500 -21.975000 105.372902
v 59.587500 -21.975000 115.034300
v 59.587500 -21.975000 124.695698
v 59.675000 -23.025000 -10.563875
v 59.675000 -23.025000 -0.902477
v 59.675000 -22.937500 -10.563875
v 59.675000 -23.025000 8.758921
v 59.675000 -23.025000 18.420319
v 59.675000 -23.025000 28.081718
v 59.675000 -23.025000 37.743116
v 59.675000 -23.025000 47.404514
v 59.675000 -23.025000 57.065912
v 59.675000 -23.025000 66.727310
v 59.675000 -23.025000 76.388708
v 59.675000 -23.025000 86.050106
v 59.675000 -23.025000 95.711504
v 59.675000 -23.025000 105.372902
v 59.675000 -23.025000 115.034300
v 59.675000 -23.025000 124.695698
v 59.675000 -22.937500 124.695698
v 59.675000 -22.850000 -10.563875
v 59.675000 -22.850000 124.695698
v 59.675000 -22.762500 -10.563875
v 59.675000 -22.762500 124.695698
v 59.675000 -22.675000 -10.563875
v 59.675000 -22.675000 124.695698
v 59.675000 -22.587500 -10.563875
v 59.675000 -22.587500 124.695698
v 59.675000 -22.500000 -10.563875
v 59.675000 -22.500000 124.695698
v 59.675000 -22.412500 -10.563875
v 59.675000 -22.412500 124.695698
v 59.675000 -22.325000 -10.563875
v 59.675000 -22.325000 124.695698
v 59.675000 -22.237500 -10.563875
v 59.675000 -22.237500 124.695698
v 59.675000 -22.150000 -10.563875
v 59.675000 -22.150000 124.695698
v 59.675000 -22.062500 -10.563875
v 59.675000 -22.062500 124.695698
v 59.675000 -21.975000 -0.902477
v 59.675000 -21.975000 -10.563875
v 59.675000 -21.975000 8.758921
v 59.675000 -21.975000 18.420319
v 59.675000 -21.975000 28.081718
v 59.675000 -21.975000 37.743116
v 59.675000 -21.975000 47.404514
v 59.675000 -21.975000 57.065912
v 59.675000 -21.975000 66.727310
v 59.675000 -21.975000 76.388708
v 59.675000 -21.975000 86.050106
v 59.675000 -21.975000 95.711504
v 59.675000 -21.975000 105.372902
v 59.675000 -21.975000 115.034300
v 59.675000 -21.975000 124.695698
v 59.762500 -23.025000 -10.563875
v 59.762500 -23.025000 -0.902477
v 59.762500 -22.937500 -10.563875
v 59.762500 -23.025000 8.758921
v 59.762500 -23.025000 18.420319
v 59.762500 -23.025000 28.081718
v 59.762500 -23.025000 37.743116
v 59.762500 -23.025000 47.404514
v 59.762500 -23.025000 57.065912
v 59.762500 -23.025000 66.727310
v 59.762500 -23.025000 76.388708
v 59.762500 -23.025000 86.050106
v 59.762500 -23.025000 95.711504
v 59.762500 -23.025000 105.372902
v 59.762500 -23.025000 115.034300
v 59.762500 -23.025000 124.695698
v 59.762500 -22.937500 124.695698
v 59.762500 -22.850000 -10.563875
v 59.762500 -22.850000 124.695698
v 59.762500 -22.762500 -10.563875
v 59.762500 -22.762500 124.695698
v 59.762500 -22.675000 -10.563875
v 59.762500 -22.675000 124.695698
v 59.762500 -22.587500 -10.563875
v 59.762500 -22.587500 124.695698
v 59.762500 -22.500000 -10.563875
v 59.762500 -22.500000 124.695698
v 59.762500 -22.412500 -10.563875
v 59.762500 -22.412500 124.695698
v 59.762500 -22.325000 -10.563875
v 59.762500 -22.325000 124.695698
v 59.762500 -22.237500 -10.563875
v 59.762500 -22.237500 124.695698
v 59.762500 -22.150000 -10.563875
v 59.762500 -22.150000 124.695698
v 59.762500 -22.062500 -10.563875
v 59.762500 -22.062500 124.695698
v 59.762500 -21.975000 -0.902477
v 59.762500 -21.975000 -10.563875
v 59.762500 -21.975000 8.758921
v 59.762500 -21.975000 18.420319
v 59.762500 -21.975000 28.081718
v 59.762500 -21.975000 37.743116
v 59.762500 -21.975000 47.404514
v 59.762500 -21.975000 57.065912
v 59.762500 -21.975000 66.727310
v 59.762500 -21.975000 76.388708
v 59.762500 -21.975000 86.050106
v 59.762500 -21.975000 95.711504
v 59.762500 -21.975000 105.372902
v 59.762500 -21.975000 115.034300
v 59.762500 -21.975000 124.695698
v 59.850000 -23.025000 -10.563875
v 59.850000 -23.025000 -0.902477
v 59.850000 -22.937500 -10.563875
v 59.850000 -23.025000 8.758921
v 59.850000 -23.025000 18.420319
v 59.850000 -23.025000 28.081718
v 59.850000 -23.025000 37.743116
v 59.850000 -23.025000 47.404514
v 59.850000 -23.025000 57.065912
v 59.850000 -23.025000 66.727310
v 59.850000 -23.025000 76.388708
v 59.850000 -23.025000 86.050106
v 59.850000 -23.025000 95.711504
v 59.850000 -23.025000 105.372902
v 59.850000 -23.025000 115.034300
v 59.850000 -23.025000 124.695698
v 59.850000 -22.937500 124.695698
v 59.850000 -22.850000 -10.563875
v 59.850000 -22.850000 124.695698
v 59.850000 -22.762500 -10.563875
v 59.850000 -22.762500 124.695698
v 59.850000 -22.675000 -10.563875
v 59.850000 -22.675000 124.695698
v 59.850000 -22.587500 -10.563875
v 59.850000 -22.587500 124.695698
v 59.850000 -22.500000 -10.563875
v 59.850000 -22.500000 124.695698
v 59.850000 -22.412500 -10.563875
v 59.850000 -22.412500 124.695698
v 59.850000 -22.325000 -10.563875
v 59.850000 -22.325000 124.695698
v 59.850000 -22.237500 -10.563875
v 59.850000 -22.237500 124.695698
v 59.850000 -22.150000 -10.563875
v 59.850000 -22.150000 124.695698
v 59.850000 -22.062500 -10.563875
v 59.850000 -22.062500 124.695698
v 59.850000 -21.975000 -0.902477
v 59.850000 -21.975000 -10.563875
v 59.850000 -21.975000 8.758921
v 59.850000 -21.975000 18.420319
v 59.850000 -21.975000 28.081718
v 59.850000 -21.975000 37.743116
v 59.850000 -21.975000 47.404514
v 59.850000 -21.975000 57.065912
v 59.850000 -21.975000 66.727310
v 59.850000 -21.975000 76.388708
v 59.850000 -21.975000 86.050106
v 59.850000 -21.975000 95.711504
v 59.850000 -21.975000 105.372902
v 59.850000 -21.975000 115.034300
v 59.850000 -21.975000 124.695698
v 59.937500 -23.025000 -10.563875
v 59.937500 -23.025000 -0.902477
v 59.937500 -22.937500 -10.563875
v 59.937500 -23.025000 8.758921
v 59.937500 -23.025000 18.420319
v 59.937500 -23.025000 28.081718
v 59.937500 -23.025000 37.743116
v 59.937500 -23.025000 47.404514
v 59.937500 -23.025000 57.065912
v 59.937500 -23.025000 66.727310
v 59.937500 -23.025000 76.388708
v 59.937500 -23.025000 86.050106
v 59.937500 -23.025000 95.711504
v 59.937500 -23.025000 105.372902
v 59.937500 -23.025000 115.034300
v 59.937500 -23.025000 124.695698
v 59.937500 -22.937500 124.695698
v 59.937500 -22.850000 -10.563875
v 59.937500 -22.850000 124.695698
v 59.937500 -22.762500 -10.563875
v 59.937500 -22.762500 124.695698
v 59.937500 -22.675000 -10.563875
v 59.937500 -22.675000 124.695698
v 59.937500 -22.587500 -10.563875
v 59.937500 -22.587500 124.695698
v 59.937500 -22.500000 -10.563875
v 59.937500 -22.500000 124.695698
v 59.937500 -22.412500 -10.563875
v 59.937500 -22.412500 124.695698
v 59.937500 -22.325000 -10.563875
v 59.937500 -22.325000 124.695698
v 59.937500 -22.237500 -10.563875
v 59.937500 -22.237500 124.695698
v 59.937500 -22.150000 -10.563875
v 59.937500 -22.150000 124.695698
v 59.937500 -22.062500 -10.563875
v 59.937500 -22.062500 124.695698
v 59.937500 -21.975000 -0.902477
v 59.937500 -21.975000 -10.563875
v 59.937500 -21.975000 8.758921
v 59.937500 -21.975000 18.420319
v 59.937500 -21.975000 28.081718
v 59.937500 -21.975000 37.743116
v 59.937500 -21.975000 47.404514
v 59.937500 -21.975000 57.065912
v 59.937500 -21.975000 66.727310
v 59.937500 -21.975000 76.388708
v 59.937500 -21.975000 86.050106
v 59.937500 -21.975000 95.711504
v 59.937500 -21.975000 105.372902
v 59.937500 -21.975000 115.034300
v 59.937500 -21.975000 124.695698
v 60.025000 -23.025000 -10.563875
v 60.025000 -23.025000 -0.902477
v 60.025000 -22.937500 -0.902477
v 60.025000 -22.937500 -10.563875
v 60.025000 -23.025000 8.758921
v 60.025000 -22.937500 8.758921
v 60.025000 -23.025000 18.420319
v 60.025000 -22.937500 18.420319
v 60.025000 -23.025000 28.081718
v 60.025000 -22.937500 28.081718
v 60.025000 -23.025000 37.743116
v 60.025000 -22.937500 37.743116
v 60.025000 -23.025000 47.404514
v 60.025000 -22.937500 47.404514
v 60.025000 -23.025000 57.065912
v 60.025000 -22.937500 57.065912
v 60.025000 -23.025000 66.727310
v 60.025000 -22.937500 66.727310
v 60.025000 -23.025000 76.388708
v 60.025000 -22.937500 76.388708
v 60.025000 -23.025000 86.050106
v 60.025000 -22.937500 86.050106
v 60.025000 -23.025000 95.711504
v 60.025000 -22.937500 95.711504
v 60.025000 -23.025000 105.372902
v 60.025000 -22.937500 105.372902
v 60.025000 -23.025000 115.034300
v 60.025000 -22.937500 115.034300
v 60.025000 -23.025000 124.695698
v 60.025000 -22.937500 124.695698
v 60.025000 -22.850000 -0.902477
v 60.025000 -22.850000 -10.563875
v 60.025000 -22.850000 8.758921
v 60.025000 -22.850000 18.420319
v 60.025000 -22.850000 28.081718
v 60.025000 -22.850000 37.743116
v 60.025000 -22.850000 47.404514
v 60.025000 -22.850000 57.065912
v 60.025000 -22.850000 66.727310
v 60.025000 -22.850000 76.388708
v 60.025000 -22.850000 86.050106
v 60.025000 -22.850000 95.711504
v 60.025000 -22.850000 105.372902
v 60.025000 -22.850000 115.034300
v 60.025000 -22.850000 124.695698
v 60.025000 -22.762500 -0.902477
v 60.025000 -22.762500 -10.563875
v 60.025000 -22.762500 8.758921
v 60.025000 -22.762500 18.420319
v 60.025000 -22.762500 28.081718
v 60.025000 -22.762500 37.743116
v 60.025000 -22.762500 47.404514
v 60.025000 -22.762500 57.065912
v 60.025000 -22.762500 66.727310
v 60.025000 -22.762500 76.388708
v 60.025000 -22.762500 86.050106
v 60.025000 -22.762500 95.711504
v 60.025000 -22.762500 105.372902
v 60.025000 -22.762500 115.034300
v 60.025000 -22.762500 124.695698
v 60.025000 -22.675000 -0.902477
v 60.025000 -22.675000 -10.563875
v 60.025000 -22.675000 8.758921
v 60.025000 -22.675000 18.420319
v 60.025000 -22.675000 28.081718
v 60.025000 -22.675000 37.743116
v 60.025000 -22.675000 47.404514
v 60.025000 -22.675000 57.065912
v 60.025000 -22.675000 66.727310
v 60.025000 -22.675000 76.388708
v 60.025000 -22.675000 86.050106
v 60.025000 -22.675000 95.711504
v 60.025000 -22.675000 105.372902
v 60.025000 -22.675000 115.034300
v 60.025000 -22.675000 124.695698
v 60.025000 -22.587500 -0.902477
v 60.025000 -22.587500 -10.563875
v 60.025000 -22.587500 8.758921
v 60.025000 -22.587500 18.420319
v 60.025000 -22.587500 28.081718
v 60.025000 -22.587500 37.743116
v 60.025000 -22.587500 47.404514
v 60.025000 -22.587500 57.065912
v 60.025000 -22.587500 66.727310
v 60.025000 -22.587500 76.388708
v 60.025000 -22.587500 86.050106
v 60.025000 -22.587500 95.711504
v 60.025000 -22.587500 105.372902
v 60.025000 -22.587500 115.034300
v 60.025000 -22.587500 124.695698
v 60.025000 -22.500000 -0.902477
v 60.025000 -22.500000 -10.563875
v 60.025000 -22.500000 8.758921
v 60.025000 -22.500000 18.420319
v 60.025000 -22.500000 28.081718
v 60.025000 -22.500000 37.743116
v 60.025000 -22.500000 47.404514
v 60.025000 -22.500000 57.065912
v 60.025000 -22.500000 66.727310
v 60.025000 -22.500000 76.388708
v 60.025000 -22.500000 86.050106
v 60.025000 -22.500000 95.711504
v 60.025000 -22.500000 105.372902
v 60.025000 -22.500000 115.034300
v 60.025000 -22.500000 124.695698
v 60.025000 -22.412500 -0.902477
v 60.025000 -22.412500 -10.563875
v 60.025000 -22.412500 8.758921
v 60.025000 -22.412500 18.420319
v 60.025000 -22.412500 28.081718
v 60.025000 -22.412500 37.743116
v 60.025000 -22.412500 47.404514
v 60.025000 -22.412500 57.065912
v 60.025000 -22.412500 66.727310
v 60.025000 -22.412500 76.388708
v 60.025000 -22.412500 86.050106
v 60.025000 -22.412500 95.711504
v 60.025000 -22.412500 105.372902
v 60.025000 -22.412500 115.034300
v 60.025000 -22.412500 124.695698
v 60.025000 -22.325000 -0.902477
v 60.025000 -22.325000 -10.563875
v 60.025000 -22.325000 8.758921
v 60.025000 -22.325000 18.420319
v 60.025000 -22.325000 28.081718
v 60.025000 -22.325000 37.743116
v 60.025000 -22.325000 47.404514
v 60.025000 -22.325000 57.065912
v 60.025000 -22.325000 66.727310
v 60.025000 -22.325000 76.388708
v 60.025000 -22.325000 86.050106
v 60.025000 -22.325000 95.711504
v 60.025000 -22.325000 105.372902
v 60.025000 -22.325000 115.034300
v 60.025000 -22.325000 124.695698
v 60.025000 -22.237500 -0.902477
v 60.025000 -22.237500 -10.563875
v 60.025000 -22.237500 8.758921
v 60.025000 -22.237500 18.420319
v 60.025000 -22.237500 28.081718
v 60.025000 -22.237500 37.743116
v 60.025000 -22.237500 47.404514
v 60.025000 -22.237500 57.065912
v 60.025000 -22.237500 66.727310
v 60.025000 -22.237500 76.388708
v 60.025000 -22.237500 86.050106
v 60.025000 -22.237500 95.711504
v 60.025000 -22.237500 105.372902
v 60.025000 -22.237500 115.034300
v 60.025000 -22.237500 124.695698
v 60.025000 -22.150000 -0.902477
v 60.025000 -22.150000 -10.563875
v 60.025000 -22.150000 8.758921
v 60.025000 -22.150000 18.420319
v 60.025000 -22.150000 28.081718
v 60.025000 -22.150000 37.743116
v 60.025000 -22.150000 47.404514
v 60.025000 -22.150000 57.065912
v 60.025000 -22.150000 66.727310
v 60.025000 -22.150000 76.388708
v 60.025000 -22.150000 86.050106
v 60.025000 -22.150000 95.711504
v 60.025000 -22.150000 105.372902
v 60.025000 -22.150000 115.034300
v 60.025000 -22.150000 124.695698
v 60.025000 -22.062500 -0.902477
v 60.025000 -22.062500 -10.563875
v 60.025000 -22.062500 8.758921
v 60.025000 -22.062500 18.420319
v 60.025000 -22.062500 28.081718
v 60.025000 -22.062500 37.743116
v 60.025000 -22.062500 47.404514
v 60.025000 -22.062500 57.065912
v 60.025000 -22.062500 66.727310
v 60.025000 -22.062500 76.388708
v 60.025000 -22.062500 86.050106
v 60.025000 -22.062500 95.711504
v 60.025000 -22.062500 105.372902
v 60.025000 -22.062500 115.034300
v 60.025000 -22.062500 124.695698
v 60.025000 -21.975000 -0.902477
v 60.025000 -21.975000 -10.563875
v 60.025000 -21.975000 8.758921
v 60.025000 -21.975000 18.420319
v 60.025000 -21.975000 28.081718
v 60.025000 -21.975000 37.743116
v 60.025000 -21.975000 47.404514
v 60.025000 -21.975000 57.065912
v 60.025000 -21.975000 66.727310
v 60.025000 -21.975000 76.388708
v 60.025000 -21.975000 86.050106
v 60.025000 -21.975000 95.711504
v 60.025000 -21.975000 105.372902
v 60.025000 -21.975000 115.034300
v 60.025000 -21.975000 124.695698
f 1 2 3
f 1 3 4
f 1 5 6
f 1 6 4
f 1 2 7
f 1 7 5
f 4 3 8
f 4 8 9
f 4 6 10
f 4 10 9
f 9 8 11
f 9 11 12
f 9 10 13
f 9 13 12
f 12 11 14
f 12 14 15
f 12 13 16
f 12 16 15
f 15 14 17
f 15 17 18
f 15 16 19
f 15 19 18
f 18 17 20
f 18 20 21
f 18 19 22
f 18 22 21
f 21 20 23
f 21 23 24
f 21 22 25
f 21 25 24
f 24 23 26
f 24 26 27
f 24 25 28
f 24 28 27
f 27 26 29
f 27 29 30
f 27 28 31
f 27 31 30
f 30 29 32
f 30 32 33
f 30 31 34
f 30 34 33
f 33 32 35
f 33 35 36
f 33 34 37
f 33 37 36
f 36 35 38
f 36 38 39
f 36 37 40
f 36 40 39
f 39 38 41
f 39 41 42
f 39 40 43
f 39 43 42
f 42 41 44
f 42 44 45
f 42 43 46
f 42 46 45
f 45 46 47
f 45 47 44
f 2 48 49
f 2 49 3
f 2 48 50
f 2 50 7
f 3 49 51
f 3 51 8
f 8 51 52
f 8 52 11
f 11 52 53
f 11 53 14
f 14 53 54
f 14 54 17
f 17 54 55
f 17 55 20
f 20 55 56
f 20 56 23
f 23 56 57
f 23 57 26
f 26 57 58
f 26 58 29
f 29 58 59
f 29 59 32
f 32 59 60
f 32 60 35
f 35 60 61
f 35 61 38
f 38 61 62
f 38 62 41
f 41 62 63
f 41 63 44
f 44 47 64
f 44 64 63
f 48 65 66
f 48 66 49
f 48 65 67
f 48 67 50
f 49 66 68
f 49 68 51
f 51 68 69
f 51 69 52
f 52 69 70
f 52 70 53
f 53 70 71
f 53 71 54
f 54 71 72
f 54 72 55
f 55 72 73
f 55 73 56
f 56 73 74
f 56 74 57
f 57 74 75
f 57 75 58
f 58 75 76
f 58 76 59
f 59 76 77
f 59 77 60
f 60 77 78
f 60 78 61
f 61 78 79
f 61 79 62
f 62 79 80
f 62 80 63
f 63 64 81
f 63 81 80
f 65 82 83
f 65 83 66
f 65 82 84
f 65 84 67
f 66 83 85
f 66 85 68
f 68 85 86
f 68 86 69
f 69 86 87
f 69 87 70
f 70 87 88
f 70 88 71
f 71 88 89
f 71 89 72
f 72 89 90
f 72 90 73
f 73 90 91
f 73 91 74
f 74 91 92
f 74 92 75
f 75 92 93
f 75 93 76
f 76 93 94
f 76 94 77
f 77 94 95
f 77 95 78
f 78 95 96
f 78 96 79
f 79 96 97
f 79 97 80
f 80 81 98
f 80 98 97
f 82 99 100
f 82 100 83
f 82 99 101
f 82 101 84
f 83 100 102
f 83 102 85
f 85 102 103
f 85 103 86
f 86 103 104
f 86 104 87
f 87 104 105
f 87 105 88
f 88 105 106
f 88 106 89
f 89 106 107
f 89 107 90
f 90 107 108
f 90 108 91
f 91 108 109
f 91 109 92
f 92 109 110
f 92 110 93
f 93 110 111
f 93 111 94
f 94 111 112
f 94 112 95
f 95 112 113
f 95 113 96
f 96 113 114
f 96 114 97
f 97 98 115
f 97 115 114
f 99 116 117
f 99 117 100
f 99 116 118
f 99 118 101
f 100 117 119
f 100 119 102
f 102 119 120
f 102 120 103
f 103 120 121
f 103 121 104
f 104 121 122
f 104 122 105
f 105 122 123
f 105 123 106
f 106 123 124
f 106 124 107
f 107 124 125
f 107 125 108
f 108 125 126
f 108 126 109
f 109 126 127
f 109 127 110
f 110 127 128
f 110 128 111
f 111 128 129
f 111 129 112
f 112 129 130
f 112 130 113
f 113 130 131
f 113 131 114
f 114 115 132
f 114 132 131
f 116 133 134
f 116 134 117
f 116 133 135
f 116 135 118
f 117 134 136
f 117 136 119
f 119 136 137
f 119 137 120
f 120 137 138
f 120 138 121
f 121 138 139
f 121 139 122
f 122 139 140
f 122 140 123
f 123 140 141
f 123 141 124
f 124 141 142
f 124 142 125
f 125 142 143
f 125 143 126
f 126 143 144
f 126 144 127
f 127 144 145
f 127 145 128
f 128 145 146
f 128 146 129
f 129 146 147
f 129 147 130
f 130 147 148
f 130 148 131
f 131 132 149
f 131 149 148
f 133 150 151
f 133 151 134
f 133 150 152
f 133 152 135
f 134 151 153
f 134 153 136
f 136 153 154
f 136 154 137
f 137 154 155
f 137 155 138
f 138 155 156
f 138 156 139
f 139 156 157
f 139 157 140
f 140 157 158
f 140 158 141
f 141 158 159
f 141 159 142
f 142 159 160
f 142 160 143
f 143 160 161
f 143 161 144
f 144 161 162
f 144 162 145
f 145 162 163
f 145 163 146
f 146 163 164
f 146 164 147
f 147 164 165
f 147 165 148
f 148 149 166
f 148 166 165
f 150 167 168
f 150 168 151
f 150 167 169
f 150 169 152
f 151 168 170
f 151 170 153
f 153 170 171
f 153 171 154
f 154 171 172
f 154 172 155
f 155 172 173
f 155 173 156
f 156 173 174
f 156 174 157
f 157 174 175
f 157 175 158
f 158 175 176
f 158 176 159
f 159 176 177
f 159 177 160
f 160 177 178
f 160 178 161
f 161 178 179
f 161 179 162
f 162 179 180
f 162 180 163
f 163 180 181
f 163 181 164
f 164 181 182
f 164 182 165
f 165 166 183
f 165 183 182
f 167 184 185
f 167 185 168
f 167 184 186
f 167 186 169
f 168 185 187
f 168 187 170
f 170 187 188
f 170 188 171
f 171 188 189
f 171 189 172
f 172 189 190
f 172 190 173
f 173 190 191
f 173 191 174
f 174 191 192
f 174 192 175
f 175 192 193
f 175 193 176
f 176 193 194
f 176 194 177
f 177 194 195
f 177 195 178
f 178 195 196
f 178 196 179
f 179 196 197
f 179 197 180
f 180 197 198
f 180 198 181
f 181 198 199
f 181 199 182
f 182 183 200
f 182 200 199
f 184 201 202
f 184 202 185
f 184 201 203
f 184 203 186
f 185 202 204
f 185 204 187
f 187 204 205
f 187 205 188
f 188 205 206
f 188 206 189
f 189 206 207
f 189 207 190
f 190 207 208
f 190 208 191
f 191 208 209
f 191 209 192
f 192 209 210
f 192 210 193
f 193 210 211
f 193 211 194
f 194 211 212
f 194 212 195
f 195 212 213
f 195 213 196
f 196 213 214
f 196 214 197
f 197 214 215
f 197 215 198
f 198 215 216
f 198 216 199
f 199 200 217
f 199 217 216
f 201 218 219
f 201 219 202
f 218 219 220
f 218 220 221
f 201 218 221
f 201 221 203
f 202 219 222
f 202 222 204
f 219 222 223
f 219 223 220
f 204 222 224
f 204 224 205
f 222 224 225
f 222 225 223
f 205 224 226
f 205 226 206
f 224 226 227
f 224 227 225
f 206 226 228
f 206 228 207
f 226 228 229
f 226 229 227
f 207 228 230
f 207 230 208
f 228 230 231
f 228 231 229
f 208 230 232
f 208 232 209
f 230 232 233
f 230 233 231
f 209 232 234
f 209 234 210
f 232 234 235
f 232 235 233
f 210 234 236
f 210 236 211
f 234 236 237
f 234 237 235
f 211 236 238
f 211 238 212
f 236 238 239
f 236 239 237
f 212 238 240
f 212 240 213
f 238 240 241
f 238 241 239
f 213 240 242
f 213 242 214
f 240 242 243
f 240 243 241
f 214 242 244
f 214 244 215
f 242 244 245
f 242 245 243
f 215 244 246
f 215 246 216
f 244 246 247
f 244 247 245
f 216 217 247
f 216 247 246
f 5 248 249
f 5 249 6
f 5 7 250
f 5 250 248
f 6 249 251
f 6 251 10
f 10 251 252
f 10 252 13
f 13 252 253
f 13 253 16
f 16 253 254
f 16 254 19
f 19 254 255
f 19 255 22
f 22 255 256
f 22 256 25
f 25 256 257
f 25 257 28
f 28 257 258
f 28 258 31
f 31 258 259
f 31 259 34
f 34 259 260
f 34 260 37
f 37 260 261
f 37 261 40
f 40 261 262
f 40 262 43
f 43 262 263
f 43 263 46
f 46 263 264
f 46 264 47
f 7 50 265
f 7 265 250
f 47 264 266
f 47 266 64
f 50 67 267
f 50 267 265
f 64 266 268
f 64 268 81
f 67 84 269
f 67 269 267
f 81 268 270
f 81 270 98
f 84 101 271
f 84 271 269
f 98 270 272
f 98 272 115
f 101 118 273
f 101 273 271
f 115 272 274
f 115 274 132
f 118 135 275
f 118 275 273
f 132 274 276
f 132 276 149
f 135 152 277
f 135 277 275
f 149 276 278
f 149 278 166
f 152 169 279
f 152 279 277
f 166 278 280
f 166 280 183
f 169 186 281
f 169 281 279
f 183 280 282
f 183 282 200
f 186 203 283
f 186 283 281
f 200 282 284
f 200 284 217
f 221 220 285
f 221 285 286
f 203 221 286
f 203 286 283
f 220 223 287
f 220 287 285
f 223 225 288
f 223 288 287
f 225 227 289
f 225 289 288
f 227 229 290
f 227 290 289
f 229 231 291
f 229 291 290
f 231 233 292
f 231 292 291
f 233 235 293
f 233 293 292
f 235 237 294
f 235 294 293
f 237 239 295
f 237 295 294
f 239 241 296
f 239 296 295
f 241 243 297
f 241 297 296
f 243 245 298
f 243 298 297
f 245 247 299
f 245 299 298
f 217 284 299
f 217 299 247
f 248 300 301
f 248 301 249
f 248 250 302
f 248 302 300
f 249 301 303
f 249 303 251
f 251 303 304
f 251 304 252
f 252 304 305
f 252 305 253
f 253 305 306
f 253 306 254
f 254 306 307
f 254 307 255
f 255 307 308
f 255 308 256
f 256 308 309
f 256 309 257
f 257 309 310
f 257 310 258
f 258 310 311
f 258 311 259
f 259 311 312
f 259 312 260
f 260 312 313
f 260 313 261
f 261 313 314
f 261 314 262
f 262 314 315
f 262 315 263
f 263 315 316
f 263 316 264
f 250 265 317
f 250 317 302
f 264 316 318
f 264 318 266
f 265 267 319
f 265 319 317
f 266 318 320
f 266 320 268
f 267 269 321
f 267 321 319
f 268 320 322
f 268 322 270
f 269 271 323
f 269 323 321
f 270 322 324
f 270 324 272
f 271 273 325
f 271 325 323
f 272 324 326
f 272 326 274
f 273 275 327
f 273 327 325
f 274 326 328
f 274 328 276
f 275 277 329
f 275 329 327
f 276 328 330
f 276 330 278
f 277 279 331
f 277 331 329
f 278 330 332
f 278 332 280
f 279 281 333
f 279 333 331
f 280 332 334
f 280 334 282
f 281 283 335
f 281 335 333
f 282 334 336
f 282 336 284
f 286 285 337
f 286 337 338
f 283 286 338
f 283 338 335
f 285 287 339
f 285 339 337
f 287 288 340
f 287 340 339
f 288 289 341
f 288 341 340
f 289 290 342
f 289 342 341
f 290 291 343
f 290 343 342
f 291 292 344
f 291 344 343
f 292 293 345
f 292 345 344
f 293 294 346
f 293 346 345
f 294 295 347
f 294 347 346
f 295 296 348
f 295 348 347
f 296 297 349
f 296 349 348
f 297 298 350
f 297 350 349
f 298 299 351
f 298 351 350
f 284 336 351
f 284 351 299
f 300 352 353
f 300 353 301
f 300 302 354
f 300 354 352
f 301 353 355
f 301 355 303
f 303 355 356
f 303 356 304
f 304 356 357
f 304 357 305
f 305 357 358
f 305 358 306
f 306 358 359
f 306 359 307
f 307 359 360
f 307 360 308
f 308 360 361
f 308 361 309
f 309 361 362
f 309 362 310
f 310 362 363
f 310 363 311
f 311 363 364
f 311 364 312
f 312 364 365
f 312 365 313
f 313 365 366
f 313 366 314
f 314 366 367
f 314 367 315
f 315 367 368
f 315 368 316
f 302 317 369
f 302 369 354
f 316 368 370
f 316 370 318
f 317 319 371
f 317 371 369
f 318 370 372
f 318 372 320
f 319 321 373
f 319 373 371
f 320 372 374
f 320 374 322
f 321 323 375
f 321 375 373
f 322 374 376
f 322 376 324
f 323 325 377
f 323 377 375
f 324 376 378
f 324 378 326
f 325 327 379
f 325 379 377
f 326 378 380
f 326 380 328
f 327 329 381
f 327 381 379
f 328 380 382
f 328 382 330
f 329 331 383
f 329 383 381
f 330 382 384
f 330 384 332
f 331 333 385
f 331 385 383
f 332 384 386
f 332 386 334
f 333 335 387
f 333 387 385
f 334 386 388
f 334 388 336
f 338 337 389
f 338 389 390
f 335 338 390
f 335 390 387
f 337 339 391
f 337 391 389
f 339 340 392
f 339 392 391
f 340 341 393
f 340 393 392
f 341 342 394
f 341 394 393
f 342 343 395
f 342 395 394
f 343 344 396
f 343 396 395
f 344 345 397
f 344 397 396
f 345 346 398
f 345 398 397
f 346 347 399
f 346 399 398
f 347 348 400
f 347 400 399
f 348 349 401
f 348 401 400
f 349 350 402
f 349 402 401
f 350 351 403
f 350 403 402
f 336 388 403
f 336 403 351
f 352 404 405
f 352 405 353
f 352 354 406
f 352 406 404
f 353 405 407
f 353 407 355
f 355 407 408
f 355 408 356
f 356 408 409
f 356 409 357
f 357 409 410
f 357 410 358
f 358 410 411
f 358 411 359
f 359 411 412
f 359 412 360
f 360 412 413
f 360 413 361
f 361 413 414
f 361 414 362
f 362 414 415
f 362 415 363
f 363 415 416
f 363 416 364
f 364 416 417
f 364 417 365
f 365 417 418
f 365 418 366
f 366 418 419
f 366 419 367
f 367 419 420
f 367 420 368
f 354 369 421
f 354 421 406
f 368 420 422
f 368 422 370
f 369 371 423
f 369 423 421
f 370 422 424
f 370 424 372
f 371 373 425
f 371 425 423
f 372 424 426
f 372 426 374
f 373 375 427
f 373 427 425
f 374 426 428
f 374 428 376
f 375 377 429
f 375 429 427
f 376 428 430
f 376 430 378
f 377 379 431
f 377 431 429
f 378 430 432
f 378 432 380
f 379 381 433
f 379 433 431
f 380 432 434
f 380 434 382
f 381 383 435
f 381 435 433
f 382 434 436
f 382 436 384
f 383 385 437
f 383 437 435
f 384 436 438
f 384 438 386
f 385 387 439
f 385 439 437
f 386 438 440
f 386 440 388
f 390 389 441
f 390 441 442
f 387 390 442
f 387 442 439
f 389 391 443
f 389 443 441
f 391 392 444
f 391 444 443
f 392 393 445
f 392 445 444
f 393 394 446
f 393 446 445
f 394 395 447
f 394 447 446
f 395 396 448
f 395 448 447
f 396 397 449
f 396 449 448
f 397 398 450
f 397 450 449
f 398 399 451
f 398 451 450
f 399 400 452
f 399 452 451
f 400 401 453
f 400 453 452
f 401 402 454
f 401 454 453
f 402 403 455
f 402 455 454
f 388 440 455
f 388 455 403
f 404 456 457
f 404 457 405
f 404 406 458
f 404 458 456
f 405 457 459
f 405 459 407
f 407 459 460
f 407 460 408
f 408 460 461
f 408 461 409
f 409 461 462
f 409 462 410
f 410 462 463
f 410 463 411
f 411 463 464
f 411 464 412
f 412 464 465
f 412 465 413
f 413 465 466
f 413 466 414
f 414 466 467
f 414 467 415
f 415 467 468
f 415 468 416
f 416 468 469
f 416 469 417
f 417 469 470
f 417 470 418
f 418 470 471
f 418 471 419
f 419 471 472
f 419 472 420
f 406 421 473
f 406 473 458
f 420 472 474
f 420 474 422
f 421 423 475
f 421 475 473
f 422 474 476
f 422 476 424
f 423 425 477
f 423 477 475
f 424 476 478
f 424 478 426
f 425 427 479
f 425 479 477
f 426 478 480
f 426 480 428
f 427 429 481
f 427 481 479
f 428 480 482
f 428 482 430
f 429 431 483
f 429 483 481
f 430 482 484
f 430 484 432
f 431 433 485
f 431 485 483
f 432 484 486
f 432 486 434
f 433 435 487
f 433 487 485
f 434 486 488
f 434 488 436
f 435 437 489
f 435 489 487
f 436 488 490
f 436 490 438
f 437 439 491
f 437 491 489
f 438 490 492
f 438 492 440
f 442 441 493
f 442 493 494
f 439 442 494
f 439 494 491
f 441 443 495
f 441 495 493
f 443 444 496
f 443 496 495
f 444 445 497
f 444 497 496
f 445 446 498
f 445 498 497
f 446 447 499
f 446 499 498
f 447 448 500
f 447 500 499
f 448 449 501
f 448 501 500
f 449 450 502
f 449 502 501
f 450 451 503
f 450 503 502
f 451 452 504
f 451 504 503
f 452 453 505
f 452 505 504
f 453 454 506
f 453 506 505
f 454 455 507
f 454 507 506
f 440 492 507
f 440 507 455
f 456 508 509
f 456 509 457
f 456 458 510
f 456 510 508
f 457 509 511
f 457 511 459
f 459 511 512
f 459 512 460
f 460 512 513
f 460 513 461
f 461 513 514
f 461 514 462
f 462 514 515
f 462 515 463
f 463 515 516
f 463 516 464
f 464 516 517
f 464 517 465
f 465 517 518
f 465 518 466
f 466 518 519
f 466 519 467
f 467 519 520
f 467 520 468
f 468 520 521
f 468 521 469
f 469 521 522
f 469 522 470
f 470 522 523
f 470 523 471
f 471 523 524
f 471 524 472
f 458 473 525
f 458 525 510
f 472 524 526
f 472 526 474
f 473 475 527
f 473 527 525
f 474 526 528
f 474 528 476
f 475 477 529
f 475 529 527
f 476 528 530
f 476 530 478
f 477 479 531
f 477 531 529
f 478 530 532
f 478 532 480
f 479 481 533
f 479 533 531
f 480 532 534
f 480 534 482
f 481 483 535
f 481 535 533
f 482 534 536
f 482 536 484
f 483 485 537
f 483 537 535
f 484 536 538
f 484 538 486
f 485 487 539
f 485 539 537
f 486 538 540
f 486 540 488
f 487 489 541
f 487 541 539
f 488 540 542
f 488 542 490
f 489 491 543
f 489 543 541
f 490 542 544
f 490 544 492
f 494 493 545
f 494 545 546
f 491 494 546
f 491 546 543
f 493 495 547
f 493 547 545
f 495 496 548
f 495 548 547
f 496 497 549
f 496 549 548
f 497 498 550
f 497 550 549
f 498 499 551
f 498 551 550
f 499 500 552
f 499 552 551
f 500 501 553
f 500 553 552
f 501 502 554
f 501 554 553
f 502 503 555
f 502 555 554
f 503 504 556
f 503 556 555
f 504 505 557
f 504 557 556
f 505 506 558
f 505 558 557
f 506 507 559
f 506 559 558
f 492 544 559
f 492 559 507
f 508 560 561
f 508 561 509
f 508 510 562
f 508 562 560
f 509 561 563
f 509 563 511
f 511 563 564
f 511 564 512
f 512 564 565
f 512 565 513
f 513 565 566
f 513 566 514
f 514 566 567
f 514 567 515
f 515 567 568
f 515 568 516
f 516 568 569
f 516 569 517
f 517 569 570
f 517 570 518
f 518 570 571
f 518 571 519
f 519 571 572
f 519 572 520
f 520 572 573
f 520 573 521
f 521 573 574
f 521 574 522
f 522 574 575
f 522 575 523
f 523 575 576
f 523 576 524
f 510 525 577
f 510 577 562
f 524 576 578
f 524 578 526
f 525 527 579
f 525 579 577
f 526 578 580
f 526 580 528
f 527 529 581
f 527 581 579
f 528 580 582
f 528 582 530
f 529 531 583
f 529 583 581
f 530 582 584
f 530 584 532
f 531 533 585
f 531 585 583
f 532 584 586
f 532 586 534
f 533 535 587
f 533 587 585
f 534 586 588
f 534 588 536
f 535 537 589
f 535 589 587
f 536 588 590
f 536 590 538
f 537 539 591
f 537 591 589
f 538 590 592
f 538 592 540
f 539 541 593
f 539 593 591
f 540 592 594
f 540 594 542
f 541 543 595
f 541 595 593
f 542 594 596
f 542 596 544
f 546 545 597
f 546 597 598
f 543 546 598
f 543 598 595
f 545 547 599
f 545 599 597
f 547 548 600
f 547 600 599
f 548 549 601
f 548 601 600
f 549 550 602
f 549 602 601
f 550 551 603
f 550 603 602
f 551 552 604
f 551 604 603
f 552 553 605
f 552 605 604
f 553 554 606
f 553 606 605
f 554 555 607
f 554 607 606
f 555 556 608
f 555 608 607
f 556 557 609
f 556 609 608
f 557 558 610
f 557 610 609
f 558 559 611
f 558 611 610
f 544 596 611
f 544 611 559
f 560 612 613
f 560 613 561
f 560 562 614
f 560 614 612
f 561 613 615
f 561 615 563
f 563 615 616
f 563 616 564
f 564 616 617
f 564 617 565
f 565 617 618
f 565 618 566
f 566 618 619
f 566 619 567
f 567 619 620
f 567 620 568
f 568 620 621
f 568 621 569
f 569 621 622
f 569 622 570
f 570 622 623
f 570 623 571
f 571 623 624
f 571 624 572
f 572 624 625
f 572 625 573
f 573 625 626
f 573 626 574
f 574 626 627
f 574 627 575
f 575 627 628
f 575 628 576
f 562 577 629
f 562 629 614
f 576 628 630
f 576 630 578
f 577 579 631
f 577 631 629
f 578 630 632
f 578 632 580
f 579 581 633
f 579 633 631
f 580 632 634
f 580 634 582
f 581 583 635
f 581 635 633
f 582 634 636
f 582 636 584
f 583 585 637
f 583 637 635
f 584 636 638
f 584 638 586
f 585 587 639
f 585 639 637
f 586 638 640
f 586 640 588
f 587 589 641
f 587 641 639
f 588 640 642
f 588 642 590
f 589 591 643
f 589 643 641
f 590 642 644
f 590 644 592
f 591 593 645
f 591 645 643
f 592 644 646
f 592 646 594
f 593 595 647
f 593 647 645
f 594 646 648
f 594 648 596
f 598 597 649
f 598 649 650
f 595 598 650
f 595 650 647
f 597 599 651
f 597 651 649
f 599 600 652
f 599 652 651
f 600 601 653
f 600 653 652
f 601 602 654
f 601 654 653
f 602 603 655
f 602 655 654
f 603 604 656
f 603 656 655
f 604 605 657
f 604 657 656
f 605 606 658
f 605 658 657
f 606 607 659
f 606 659 658
f 607 608 660
f 607 660 659
f 608 609 661
f 608 661 660
f 609 610 662
f 609 662 661
f 610 611 663
f 610 663 662
f 596 648 663
f 596 663 611
f 612 664 665
f 612 665 613
f 612 614 666
f 612 666 664
f 613 665 667
f 613 667 615
f 615 667 668
f 615 668 616
f 616 668 669
f 616 669 617
f 617 669 670
f 617 670 618
f 618 670 671
f 618 671 619
f 619 671 672
f 619 672 620
f 620 672 673
f 620 673 621
f 621 673 674
f 621 674 622
f 622 674 675
f 622 675 623
f 623 675 676
f 623 676 624
f 624 676 677
f 624 677 625
f 625 677 678
f 625 678 626
f 626 678 679
f 626 679 627
f 627 679 680
f 627 680 628
f 614 629 681
f 614 681 666
f 628 680 682
f 628 682 630
f 629 631 683
f 629 683 681
f 630 682 684
f 630 684 632
f 631 633 685
f 631 685 683
f 632 684 686
f 632 686 634
f 633 635 687
f 633 687 685
f 634 686 688
f 634 688 636
f 635 637 689
f 635 689 687
f 636 688 690
f 636 690 638
f 637 639 691
f 637 691 689
f 638 690 692
f 638 692 640
f 639 641 693
f 639 693 691
f 640 692 694
f 640 694 642
f 641 643 695
f 641 695 693
f 642 694 696
f 642 696 644
f 643 645 697
f 643 697 695
f 644 696 698
f 644 698 646
f 645 647 699
f 645 699 697
f 646 698 700
f 646 700 648
f 650 649 701
f 650 701 702
f 647 650 702
f 647 702 699
f 649 651 703
f 649 703 701
f 651 652 704
f 651 704 703
f 652 653 705
f 652 705 704
f 653 654 706
f 653 706 705
f 654 655 707
f 654 707 706
f 655 656 708
f 655 708 707
f 656 657 709
f 656 709 708
f 657 658 710
f 657 710 709
f 658 659 711
f 658 711 710
f 659 660 712
f 659 712 711
f 660 661 713
f 660 713 712
f 661 662 714
f 661 714 713
f 662 663 715
f 662 715 714
f 648 700 715
f 648 715 663
f 664 716 717
f 664 717 665
f 664 666 718
f 664 718 716
f 665 717 719
f 665 719 667
f 667 719 720
f 667 720 668
f 668 720 721
f 668 721 669
f 669 721 722
f 669 722 670
f 670 722 723
f 670 723 671
f 671 723 724
f 671 724 672
f 672 724 725
f 672 725 673
f 673 725 726
f 673 726 674
f 674 726 727
f 674 727 675
f 675 727 728
f 675 728 676
f 676 728 729
f 676 729 677
f 677 729 730
f 677 730 678
f 678 730 731
f 678 731 679
f 679 731 732
f 679 732 680
f 666 681 733
f 666 733 718
f 680 732 734
f 680 734 682
f 681 683 735
f 681 735 733
f 682 734 736
f 682 736 684
f 683 685 737
f 683 737 735
f 684 736 738
f 684 738 686
f 685 687 739
f 685 739 737
f 686 738 740
f 686 740 688
f 687 689 741
f 687 741 739
f 688 740 742
f 688 742 690
f 689 691 743
f 689 743 741
f 690 742 744
f 690 744 692
f 691 693 745
f 691 745 743
f 692 744 746
f 692 746 694
f 693 695 747
f 693 747 745
f 694 746 748
f 694 748 696
f 695 697 749
f 695 749 747
f 696 748 750
f 696 750 698
f 697 699 751
f 697 751 749
f 698 750 752
f 698 752 700
f 702 701 753
f 702 753 754
f 699 702 754
f 699 754 751
f 701 703 755
f 701 755 753
f 703 704 756
f 703 756 755
f 704 705 757
f 704 757 756
f 705 706 758
f 705 758 757
f 706 707 759
f 706 759 758
f 707 708 760
f 707 760 759
f 708 709 761
f 708 761 760
f 709 710 762
f 709 762 761
f 710 711 763
f 710 763 762
f 711 712 764
f 711 764 763
f 712 713 765
f 712 765 764
f 713 714 766
f 713 766 765
f 714 715 767
f 714 767 766
f 700 752 767
f 700 767 715
f 768 769 770
f 768 770 771
f 716 768 769
f 716 769 717
f 716 718 771
f 716 771 768
f 769 772 773
f 769 773 770
f 717 769 772
f 717 772 719
f 772 774 775
f 772 775 773
f 719 772 774
f 719 774 720
f 774 776 777
f 774 777 775
f 720 774 776
f 720 776 721
f 776 778 779
f 776 779 777
f 721 776 778
f 721 778 722
f 778 780 781
f 778 781 779
f 722 778 780
f 722 780 723
f 780 782 783
f 780 783 781
f 723 780 782
f 723 782 724
f 782 784 785
f 782 785 783
f 724 782 784
f 724 784 725
f 784 786 787
f 784 787 785
f 725 784 786
f 725 786 726
f 786 788 789
f 786 789 787
f 726 786 788
f 726 788 727
f 788 790 791
f 788 791 789
f 727 788 790
f 727 790 728
f 790 792 793
f 790 793 791
f 728 790 792
f 728 792 729
f 792 794 795
f 792 795 793
f 729 792 794
f 729 794 730
f 794 796 797
f 794 797 795
f 730 794 796
f 730 796 731
f 731 796 797
f 731 797 732
f 771 770 798
f 771 798 799
f 718 733 799
f 718 799 771
f 770 773 800
f 770 800 798
f 773 775 801
f 773 801 800
f 775 777 802
f 775 802 801
f 777 779 803
f 777 803 802
f 779 781 804
f 779 804 803
f 781 783 805
f 781 805 804
f 783 785 806
f 783 806 805
f 785 787 807
f 785 807 806
f 787 789 808
f 787 808 807
f 789 791 809
f 789 809 808
f 791 793 810
f 791 810 809
f 793 795 811
f 793 811 810
f 795 797 812
f 795 812 811
f 732 797 812
f 732 812 734
f 799 798 813
f 799 813 814
f 733 735 814
f 733 814 799
f 798 800 815
f 798 815 813
f 800 801 816
f 800 816 815
f 801 802 817
f 801 817 816
f 802 803 818
f 802 818 817
f 803 804 819
f 803 819 818
f 804 805 820
f 804 820 819
f 805 806 821
f 805 821 820
f 806 807 822
f 806 822 821
f 807 808 823
f 807 823 822
f 808 809 824
f 808 824 823
f 809 810 825
f 809 825 824
f 810 811 826
f 810 826 825
f 811 812 827
f 811 827 826
f 734 812 827
f 734 827 736
f 814 813 828
f 814 828 829
f 735 737 829
f 735 829 814
f 813 815 830
f 813 830 828
f 815 816 831
f 815 831 830
f 816 817 832
f 816 832 831
f 817 818 833
f 817 833 832
f 818 819 834
f 818 834 833
f 819 820 835
f 819 835 834
f 820 821 836
f 820 836 835
f 821 822 837
f 821 837 836
f 822 823 838
f 822 838 837
f 823 824 839
f 823 839 838
f 824 825 840
f 824 840 839
f 825 826 841
f 825 841 840
f 826 827 842
f 826 842 841
f 736 827 842
f 736 842 738
f 829 828 843
f 829 843 844
f 737 739 844
f 737 844 829
f 828 830 845
f 828 845 843
f 830 831 846
f 830 846 845
f 831 832 847
f 831 847 846
f 832 833 848
f 832 848 847
f 833 834 849
f 833 849 848
f 834 835 850
f 834 850 849
f 835 836 851
f 835 851 850
f 836 837 852
f 836 852 851
f 837 838 853
f 837 853 852
f 838 839 854
f 838 854 853
f 839 840 855
f 839 855 854
f 840 841 856
f 840 856 855
f 841 842 857
f 841 857 856
f 738 842 857
f 738 857 740
f 844 843 858
f 844 858 859
f 739 741 859
f 739 859 844
f 843 845 860
f 843 860 858
f 845 846 861
f 845 861 860
f 846 847 862
f 846 862 861
f 847 848 863
f 847 863 862
f 848 849 864
f 848 864 863
f 849 850 865
f 849 865 864
f 850 851 866
f 850 866 865
f 851 852 867
f 851 867 866
f 852 853 868
f 852 868 867
f 853 854 869
f 853 869 868
f 854 855 870
f 854 870 869
f 855 856 871
f 855 871 870
f 856 857 872
f 856 872 871
f 740 857 872
f 740 872 742
f 859 858 873
f 859 873 874
f 741 743 874
f 741 874 859
f 858 860 875
f 858 875 873
f 860 861 876
f 860 876 875
f 861 862 877
f 861 877 876
f 862 863 878
f 862 878 877
f 863 864 879
f 863 879 878
f 864 865 880
f 864 880 879
f 865 866 881
f 865 881 880
f 866 867 882
f 866 882 881
f 867 868 883
f 867 883 882
f 868 869 884
f 868 884 883
f 869 870 885
f 869 885 884
f 870 871 886
f 870 886 885
f 871 872 887
f 871 887 886
f 742 872 887
f 742 887 744
f 874 873 888
f 874 888 889
f 743 745 889
f 743 889 874
f 873 875 890
f 873 890 888
f 875 876 891
f 875 891 890
f 876 877 892
f 876 892 891
f 877 878 893
f 877 893 892
f 878 879 894
f 878 894 893
f 879 880 895
f 879 895 894
f 880 881 896
f 880 896 895
f 881 882 897
f 881 897 896
f 882 883 898
f 882 898 897
f 883 884 899
f 883 899 898
f 884 885 900
f 884 900 899
f 885 886 901
f 885 901 900
f 886 887 902
f 886 902 901
f 744 887 902
f 744 902 746
f 889 888 903
f 889 903 904
f 745 747 904
f 745 904 889
f 888 890 905
f 888 905 903
f 890 891 906
f 890 906 905
f 891 892 907
f 891 907 906
f 892 893 908
f 892 908 907
f 893 894 909
f 893 909 908
f 894 895 910
f 894 910 909
f 895 896 911
f 895 911 910
f 896 897 912
f 896 912 911
f 897 898 913
f 897 913 912
f 898 899 914
f 898 914 913
f 899 900 915
f 899 915 914
f 900 901 916
f 900 916 915
f 901 902 917
f 901 917 916
f 746 902 917
f 746 917 748
f 904 903 918
f 904 918 919
f 747 749 919
f 747 919 904
f 903 905 920
f 903 920 918
f 905 906 921
f 905 921 920
f 906 907 922
f 906 922 921
f 907 908 923
f 907 923 922
f 908 909 924
f 908 924 923
f 909 910 925
f 909 925 924
f 910 911 926
f 910 926 925
f 911 912 927
f 911 927 926
f 912 913 928
f 912 928 927
f 913 914 929
f 913 929 928
f 914 915 930
f 914 930 929
f 915 916 931
f 915 931 930
f 916 917 932
f 916 932 931
f 748 917 932
f 748 932 750
f 919 918 933
f 919 933 934
f 749 751 934
f 749 934 919
f 918 920 935
f 918 935 933
f 920 921 936
f 920 936 935
f 921 922 937
f 921 937 936
f 922 923 938
f 922 938 937
f 923 924 939
f 923 939 938
f 924 925 940
f 924 940 939
f 925 926 941
f 925 941 940
f 926 927 942
f 926 942 941
f 927 928 943
f 927 943 942
f 928 929 944
f 928 944 943
f 929 930 945
f 929 945 944
f 930 931 946
f 930 946 945
f 931 932 947
f 931 947 946
f 750 932 947
f 750 947 752
f 934 933 948
f 934 948 949
f 754 753 948
f 754 948 949
f 751 754 949
f 751 949 934
f 933 935 950
f 933 950 948
f 753 755 950
f 753 950 948
f 935 936 951
f 935 951 950
f 755 756 951
f 755 951 950
f 936 937 952
f 936 952 951
f 756 757 952
f 756 952 951
f 937 938 953
f 937 953 952
f 757 758 953
f 757 953 952
f 938 939 954
f 938 954 953
f 758 759 954
f 758 954 953
f 939 940 955
f 939 955 954
f 759 760 955
f 759 955 954
f 940 941 956
f 940 956 955
f 760 761 956
f 760 956 955
f 941 942 957
f 941 957 956
f 761 762 957
f 761 957 956
f 942 943 958
f 942 958 957
f 762 763 958
f 762 958 957
f 943 944 959
f 943 959 958
f 763 764 959
f 763 959 958
f 944 945 960
f 944 960 959
f 764 765 960
f 764 960 959
f 945 946 961
f 945 961 960
f 765 766 961
f 765 961 960
f 946 947 962
f 946 962 961
f 766 767 962
f 766 962 961
f 752 947 962
f 752 962 767
