o [4B] 3D Diagram - S2-03 Group C_93
v -12.851908 -20.000000 47.444277
v -12.796443 -20.000000 47.610672
v -12.740978 -20.000000 47.777066
v -12.685513 -20.000000 47.943461
v -12.630048 -20.000000 48.109855
v -12.574583 -20.000000 48.276250
v -12.519119 -20.000000 48.442644
v -12.463654 -20.000000 48.609039
v -12.408189 -20.000000 48.775433
v -12.352724 -20.000000 48.941828
v -12.297259 -20.000000 49.108222
v -12.241794 -20.000000 49.274617
v -12.186330 -20.000000 49.441011
v -12.130865 -20.000000 49.607406
v -12.075400 -20.000000 49.773800
v -12.019935 -20.000000 49.940195
v -11.964470 -20.000000 50.106589
v -11.909005 -20.000000 50.272984
v -11.853541 -20.000000 50.439378
v -11.798076 -20.000000 50.605773
v -11.742611 -20.000000 50.772167
v -11.687146 -20.000000 50.938562
v -11.631681 -20.000000 51.104956
v -11.576216 -20.000000 51.271351
v -11.520751 -20.000000 51.437746
v -12.851908 -18.333333 47.444277
v -12.796443 -18.333333 47.610672
v -12.740978 -18.333333 47.777066
v -12.685513 -18.333333 47.943461
v -12.630048 -18.333333 48.109855
v -12.574583 -18.333333 48.276250
v -12.519119 -18.333333 48.442644
v -12.463654 -18.333333 48.609039
v -12.408189 -18.333333 48.775433
v -12.352724 -18.333333 48.941828
v -12.297259 -18.333333 49.108222
v -12.241794 -18.333333 49.274617
v -12.186330 -18.333333 49.441011
v -12.130865 -18.333333 49.607406
v -12.075400 -18.333333 49.773800
v -12.019935 -18.333333 49.940195
v -11.964470 -18.333333 50.106589
v -11.909005 -18.333333 50.272984
v -11.853541 -18.333333 50.439378
v -11.798076 -18.333333 50.605773
v -11.742611 -18.333333 50.772167
v -11.687146 -18.333333 50.938562
v -11.631681 -18.333333 51.104956
v -11.576216 -18.333333 51.271351
v -11.520751 -18.333333 51.437746
v -12.851908 -16.666667 47.444277
v -12.796443 -16.666667 47.610672
v -12.740978 -16.666667 47.777066
v -12.685513 -16.666667 47.943461
v -12.630048 -16.666667 48.109855
v -12.574583 -16.666667 48.276250
v -12.519119 -16.666667 48.442644
v -12.463654 -16.666667 48.609039
v -12.408189 -16.666667 48.775433
v -12.352724 -16.666667 48.941828
v -12.297259 -16.666667 49.108222
v -12.241794 -16.666667 49.274617
v -12.186330 -16.666667 49.441011
v -12.130865 -16.666667 49.607406
v -12.075400 -16.666667 49.773800
v -12.019935 -16.666667 49.940195
v -11.964470 -16.666667 50.106589
v -11.909005 -16.666667 50.272984
v -11.853541 -16.666667 50.439378
v -11.798076 -16.666667 50.605773
v -11.742611 -16.666667 50.772167
v -11.687146 -16.666667 50.938562
v -11.631681 -16.666667 51.104956
v -11.576216 -16.666667 51.271351
v -11.520751 -16.666667 51.437746
v -12.851908 -15.000000 47.444277
v -12.796443 -15.000000 47.610672
v -12.740978 -15.000000 47.777066
v -12.685513 -15.000000 47.943461
v -12.630048 -15.000000 48.109855
v -12.574583 -15.000000 48.276250
v -12.519119 -15.000000 48.442644
v -12.463654 -15.000000 48.609039
v -12.408189 -15.000000 48.775433
v -12.352724 -15.000000 48.941828
v -12.297259 -15.000000 49.108222
v -12.241794 -15.000000 49.274617
v -12.186330 -15.000000 49.441011
v -12.130865 -15.000000 49.607406
v -12.075400 -15.000000 49.773800
v -12.019935 -15.000000 49.940195
v -11.964470 -15.000000 50.106589
v -11.909005 -15.000000 50.272984
v -11.853541 -15.000000 50.439378
v -11.798076 -15.000000 50.605773
v -11.742611 -15.000000 50.772167
v -11.687146 -15.000000 50.938562
v -11.631681 -15.000000 51.104956
v -11.576216 -15.000000 51.271351
v -11.520751 -15.000000 51.437746
v -12.851908 -13.333333 47.444277
v -12.796443 -13.333333 47.610672
v -12.740978 -13.333333 47.777066
v -12.685513 -13.333333 47.943461
v -12.630048 -13.333333 48.109855
v -12.574583 -13.333333 48.276250
v -12.519119 -13.333333 48.442644
v -12.463654 -13.333333 48.609039
v -12.408189 -13.333333 48.775433
v -12.352724 -13.333333 48.941828
v -12.297259 -13.333333 49.108222
v -12.241794 -13.333333 49.274617
v -12.186330 -13.333333 49.441011
v -12.130865 -13.333333 49.607406
v -12.075400 -13.333333 49.773800
v -12.019935 -13.333333 49.940195
v -11.964470 -13.333333 50.106589
v -11.909005 -13.333333 50.272984
v -11.853541 -13.333333 50.439378
v -11.798076 -13.333333 50.605773
v -11.742611 -13.333333 50.772167
v -11.687146 -13.333333 50.938562
v -11.631681 -13.333333 51.104956
v -11.576216 -13.333333 51.271351
v -11.520751 -13.333333 51.437746
v -12.851908 -11.666667 47.444277
v -12.796443 -11.666667 47.610672
v -12.740978 -11.666667 47.777066
v -12.685513 -11.666667 47.943461
v -12.630048 -11.666667 48.109855
v -12.574583 -11.666667 48.276250
v -12.519119 -11.666667 48.442644
v -12.463654 -11.666667 48.609039
v -12.408189 -11.666667 48.775433
v -12.352724 -11.666667 48.941828
v -12.297259 -11.666667 49.108222
v -12.241794 -11.666667 49.274617
v -12.186330 -11.666667 49.441011
v -12.130865 -11.666667 49.607406
v -12.075400 -11.666667 49.773800
v -12.019935 -11.666667 49.940195
v -11.964470 -11.666667 50.106589
v -11.909005 -11.666667 50.272984
v -11.853541 -11.666667 50.439378
v -11.798076 -11.666667 50.605773
v -11.742611 -11.666667 50.772167
v -11.687146 -11.666667 50.938562
v -11.631681 -11.666667 51.104956
v -11.576216 -11.666667 51.271351
v -11.520751 -11.666667 51.437746
v -12.851908 -10.000000 47.444277
v -12.796443 -10.000000 47.610672
v -12.740978 -10.000000 47.777066
v -12.685513 -10.000000 47.943461
v -12.630048 -10.000000 48.109855
v -12.574583 -10.000000 48.276250
v -12.519119 -10.000000 48.442644
v -12.463654 -10.000000 48.609039
v -12.408189 -10.000000 48.775433
v -12.352724 -10.000000 48.941828
v -12.297259 -10.000000 49.108222
v -12.241794 -10.000000 49.274617
v -12.186330 -10.000000 49.441011
v -12.130865 -10.000000 49.607406
v -12.075400 -10.000000 49.773800
v -12.019935 -10.000000 49.940195
v -11.964470 -10.000000 50.106589
v -11.909005 -10.000000 50.272984
v -11.853541 -10.000000 50.439378
v -11.798076 -10.000000 50.605773
v -11.742611 -10.000000 50.772167
v -11.687146 -10.000000 50.938562
v -11.631681 -10.000000 51.104956
v -11.576216 -10.000000 51.271351
v -11.520751 -10.000000 51.437746
v -12.851908 -8.333333 47.444277
v -12.796443 -8.333333 47.610672
v -12.740978 -8.333333 47.777066
v -12.685513 -8.333333 47.943461
v -12.630048 -8.333333 48.109855
v -12.574583 -8.333333 48.276250
v -12.519119 -8.333333 48.442644
v -12.463654 -8.333333 48.609039
v -12.408189 -8.333333 48.775433
v -12.352724 -8.333333 48.941828
v -12.297259 -8.333333 49.108222
v -12.241794 -8.333333 49.274617
v -12.186330 -8.333333 49.441011
v -12.130865 -8.333333 49.607406
v -12.075400 -8.333333 49.773800
v -12.019935 -8.333333 49.940195
v -11.964470 -8.333333 50.106589
v -11.909005 -8.333333 50.272984
v -11.853541 -8.333333 50.439378
v -11.798076 -8.333333 50.605773
v -11.742611 -8.333333 50.772167
v -11.687146 -8.333333 50.938562
v -11.631681 -8.333333 51.104956
v -11.576216 -8.333333 51.271351
v -11.520751 -8.333333 51.437746
v -12.851908 -6.666667 47.444277
v -12.796443 -6.666667 47.610672
v -12.740978 -6.666667 47.777066
v -12.685513 -6.666667 47.943461
v -12.630048 -6.666667 48.109855
v -12.574583 -6.666667 48.276250
v -12.519119 -6.666667 48.442644
v -12.463654 -6.666667 48.609039
v -12.408189 -6.666667 48.775433
v -12.352724 -6.666667 48.941828
v -12.297259 -6.666667 49.108222
v -12.241794 -6.666667 49.274617
v -12.186330 -6.666667 49.441011
v -12.130865 -6.666667 49.607406
v -12.075400 -6.666667 49.773800
v -12.019935 -6.666667 49.940195
v -11.964470 -6.666667 50.106589
v -11.909005 -6.666667 50.272984
v -11.853541 -6.666667 50.439378
v -11.798076 -6.666667 50.605773
v -11.742611 -6.666667 50.772167
v -11.687146 -6.666667 50.938562
v -11.631681 -6.666667 51.104956
v -11.576216 -6.666667 51.271351
v -11.520751 -6.666667 51.437746
v -12.851908 -5.000000 47.444277
v -12.796443 -5.000000 47.610672
v -12.740978 -5.000000 47.777066
v -12.685513 -5.000000 47.943461
v -12.630048 -5.000000 48.109855
v -12.574583 -5.000000 48.276250
v -12.519119 -5.000000 48.442644
v -12.463654 -5.000000 48.609039
v -12.408189 -5.000000 48.775433
v -12.352724 -5.000000 48.941828
v -12.297259 -5.000000 49.108222
v -12.241794 -5.000000 49.274617
v -12.186330 -5.000000 49.441011
v -12.130865 -5.000000 49.607406
v -12.075400 -5.000000 49.773800
v -12.019935 -5.000000 49.940195
v -11.964470 -5.000000 50.106589
v -11.909005 -5.000000 50.272984
v -11.853541 -5.000000 50.439378
v -11.798076 -5.000000 50.605773
v -11.742611 -5.000000 50.772167
v -11.687146 -5.000000 50.938562
v -11.631681 -5.000000 51.104956
v -11.576216 -5.000000 51.271351
v -11.520751 -5.000000 51.437746
v -12.851908 -3.333333 47.444277
v -12.796443 -3.333333 47.610672
v -12.740978 -3.333333 47.777066
v -12.685513 -3.333333 47.943461
v -12.630048 -3.333333 48.109855
v -12.574583 -3.333333 48.276250
v -12.519119 -3.333333 48.442644
v -12.463654 -3.333333 48.609039
v -12.408189 -3.333333 48.775433
v -12.352724 -3.333333 48.941828
v -12.297259 -3.333333 49.108222
v -12.241794 -3.333333 49.274617
v -12.186330 -3.333333 49.441011
v -12.130865 -3.333333 49.607406
v -12.075400 -3.333333 49.773800
v -12.019935 -3.333333 49.940195
v -11.964470 -3.333333 50.106589
v -11.909005 -3.333333 50.272984
v -11.853541 -3.333333 50.439378
v -11.798076 -3.333333 50.605773
v -11.742611 -3.333333 50.772167
v -11.687146 -3.333333 50.938562
v -11.631681 -3.333333 51.104956
v -11.576216 -3.333333 51.271351
v -11.520751 -3.333333 51.437746
v -12.851908 -1.666667 47.444277
v -12.796443 -1.666667 47.610672
v -12.740978 -1.666667 47.777066
v -12.685513 -1.666667 47.943461
v -12.630048 -1.666667 48.109855
v -12.574583 -1.666667 48.276250
v -12.519119 -1.666667 48.442644
v -12.463654 -1.666667 48.609039
v -12.408189 -1.666667 48.775433
v -12.352724 -1.666667 48.941828
v -12.297259 -1.666667 49.108222
v -12.241794 -1.666667 49.274617
v -12.186330 -1.666667 49.441011
v -12.130865 -1.666667 49.607406
v -12.075400 -1.666667 49.773800
v -12.019935 -1.666667 49.940195
v -11.964470 -1.666667 50.106589
v -11.909005 -1.666667 50.272984
v -11.853541 -1.666667 50.439378
v -11.798076 -1.666667 50.605773
v -11.742611 -1.666667 50.772167
v -11.687146 -1.666667 50.938562
v -11.631681 -1.666667 51.104956
v -11.576216 -1.666667 51.271351
v -11.520751 -1.666667 51.437746
v -12.851908 0.000000 47.444277
v -12.796443 0.000000 47.610672
v -12.740978 0.000000 47.777066
v -12.685513 0.000000 47.943461
v -12.630048 0.000000 48.109855
v -12.574583 0.000000 48.276250
v -12.519119 0.000000 48.442644
v -12.463654 0.000000 48.609039
v -12.408189 0.000000 48.775433
v -12.352724 0.000000 48.941828
v -12.297259 0.000000 49.108222
v -12.241794 0.000000 49.274617
v -12.186330 0.000000 49.441011
v -12.130865 0.000000 49.607406
v -12.075400 0.000000 49.773800
v -12.019935 0.000000 49.940195
v -11.964470 0.000000 50.106589
v -11.909005 0.000000 50.272984
v -11.853541 0.000000 50.439378
v -11.798076 0.000000 50.605773
v -11.742611 0.000000 50.772167
v -11.687146 0.000000 50.938562
v -11.631681 0.000000 51.104956
v -11.576216 0.000000 51.271351
v -11.520751 0.000000 51.437746
v -12.851908 1.666667 47.444277
v -12.796443 1.666667 47.610672
v -12.740978 1.666667 47.777066
v -12.685513 1.666667 47.943461
v -12.630048 1.666667 48.109855
v -12.574583 1.666667 48.276250
v -12.519119 1.666667 48.442644
v -12.463654 1.666667 48.609039
v -12.408189 1.666667 48.775433
v -12.352724 1.666667 48.941828
v -12.297259 1.666667 49.108222
v -12.241794 1.666667 49.274617
v -12.186330 1.666667 49.441011
v -12.130865 1.666667 49.607406
v -12.075400 1.666667 49.773800
v -12.019935 1.666667 49.940195
v -11.964470 1.666667 50.106589
v -11.909005 1.666667 50.272984
v -11.853541 1.666667 50.439378
v -11.798076 1.666667 50.605773
v -11.742611 1.666667 50.772167
v -11.687146 1.666667 50.938562
v -11.631681 1.666667 51.104956
v -11.576216 1.666667 51.271351
v -11.520751 1.666667 51.437746
v -12.851908 3.333333 47.444277
v -12.796443 3.333333 47.610672
v -12.740978 3.333333 47.777066
v -12.685513 3.333333 47.943461
v -12.630048 3.333333 48.109855
v -12.574583 3.333333 48.276250
v -12.519119 3.333333 48.442644
v -12.463654 3.333333 48.609039
v -12.408189 3.333333 48.775433
v -12.352724 3.333333 48.941828
v -12.297259 3.333333 49.108222
v -12.241794 3.333333 49.274617
v -12.186330 3.333333 49.441011
v -12.130865 3.333333 49.607406
v -12.075400 3.333333 49.773800
v -12.019935 3.333333 49.940195
v -11.964470 3.333333 50.106589
v -11.909005 3.333333 50.272984
v -11.853541 3.333333 50.439378
v -11.798076 3.333333 50.605773
v -11.742611 3.333333 50.772167
v -11.687146 3.333333 50.938562
v -11.631681 3.333333 51.104956
v -11.576216 3.333333 51.271351
v -11.520751 3.333333 51.437746
v -12.851908 5.000000 47.444277
v -12.796443 5.000000 47.610672
v -12.740978 5.000000 47.777066
v -12.685513 5.000000 47.943461
v -12.630048 5.000000 48.109855
v -12.574583 5.000000 48.276250
v -12.519119 5.000000 48.442644
v -12.463654 5.000000 48.609039
v -12.408189 5.000000 48.775433
v -12.352724 5.000000 48.941828
v -12.297259 5.000000 49.108222
v -12.241794 5.000000 49.274617
v -12.186330 5.000000 49.441011
v -12.130865 5.000000 49.607406
v -12.075400 5.000000 49.773800
v -12.019935 5.000000 49.940195
v -11.964470 5.000000 50.106589
v -11.909005 5.000000 50.272984
v -11.853541 5.000000 50.439378
v -11.798076 5.000000 50.605773
v -11.742611 5.000000 50.772167
v -11.687146 5.000000 50.938562
v -11.631681 5.000000 51.104956
v -11.576216 5.000000 51.271351
v -11.520751 5.000000 51.437746
v -12.851908 6.666667 47.444277
v -12.796443 6.666667 47.610672
v -12.740978 6.666667 47.777066
v -12.685513 6.666667 47.943461
v -12.630048 6.666667 48.109855
v -12.574583 6.666667 48.276250
v -12.519119 6.666667 48.442644
v -12.463654 6.666667 48.609039
v -12.408189 6.666667 48.775433
v -12.352724 6.666667 48.941828
v -12.297259 6.666667 49.108222
v -12.241794 6.666667 49.274617
v -12.186330 6.666667 49.441011
v -12.130865 6.666667 49.607406
v -12.075400 6.666667 49.773800
v -12.019935 6.666667 49.940195
v -11.964470 6.666667 50.106589
v -11.909005 6.666667 50.272984
v -11.853541 6.666667 50.439378
v -11.798076 6.666667 50.605773
v -11.742611 6.666667 50.772167
v -11.687146 6.666667 50.938562
v -11.631681 6.666667 51.104956
v -11.576216 6.666667 51.271351
v -11.520751 6.666667 51.437746
v -12.851908 8.333333 47.444277
v -12.796443 8.333333 47.610672
v -12.740978 8.333333 47.777066
v -12.685513 8.333333 47.943461
v -12.630048 8.333333 48.109855
v -12.574583 8.333333 48.276250
v -12.519119 8.333333 48.442644
v -12.463654 8.333333 48.609039
v -12.408189 8.333333 48.775433
v -12.352724 8.333333 48.941828
v -12.297259 8.333333 49.108222
v -12.241794 8.333333 49.274617
v -12.186330 8.333333 49.441011
v -12.130865 8.333333 49.607406
v -12.075400 8.333333 49.773800
v -12.019935 8.333333 49.940195
v -11.964470 8.333333 50.106589
v -11.909005 8.333333 50.272984
v -11.853541 8.333333 50.439378
v -11.798076 8.333333 50.605773
v -11.742611 8.333333 50.772167
v -11.687146 8.333333 50.938562
v -11.631681 8.333333 51.104956
v -11.576216 8.333333 51.271351
v -11.520751 8.333333 51.437746
v -12.851908 10.000000 47.444277
v -12.796443 10.000000 47.610672
v -12.740978 10.000000 47.777066
v -12.685513 10.000000 47.943461
v -12.630048 10.000000 48.109855
v -12.574583 10.000000 48.276250
v -12.519119 10.000000 48.442644
v -12.463654 10.000000 48.609039
v -12.408189 10.000000 48.775433
v -12.352724 10.000000 48.941828
v -12.297259 10.000000 49.108222
v -12.241794 10.000000 49.274617
v -12.186330 10.000000 49.441011
v -12.130865 10.000000 49.607406
v -12.075400 10.000000 49.773800
v -12.019935 10.000000 49.940195
v -11.964470 10.000000 50.106589
v -11.909005 10.000000 50.272984
v -11.853541 10.000000 50.439378
v -11.798076 10.000000 50.605773
v -11.742611 10.000000 50.772167
v -11.687146 10.000000 50.938562
v -11.631681 10.000000 51.104956
v -11.576216 10.000000 51.271351
v -11.520751 10.000000 51.437746
v -12.851908 11.666667 47.444277
v -12.796443 11.666667 47.610672
v -12.740978 11.666667 47.777066
v -12.685513 11.666667 47.943461
v -12.630048 11.666667 48.109855
v -12.574583 11.666667 48.276250
v -12.519119 11.666667 48.442644
v -12.463654 11.666667 48.609039
v -12.408189 11.666667 48.775433
v -12.352724 11.666667 48.941828
v -12.297259 11.666667 49.108222
v -12.241794 11.666667 49.274617
v -12.186330 11.666667 49.441011
v -12.130865 11.666667 49.607406
v -12.075400 11.666667 49.773800
v -12.019935 11.666667 49.940195
v -11.964470 11.666667 50.106589
v -11.909005 11.666667 50.272984
v -11.853541 11.666667 50.439378
v -11.798076 11.666667 50.605773
v -11.742611 11.666667 50.772167
v -11.687146 11.666667 50.938562
v -11.631681 11.666667 51.104956
v -11.576216 11.666667 51.271351
v -11.520751 11.666667 51.437746
v -12.851908 13.333333 47.444277
v -12.796443 13.333333 47.610672
v -12.740978 13.333333 47.777066
v -12.685513 13.333333 47.943461
v -12.630048 13.333333 48.109855
v -12.574583 13.333333 48.276250
v -12.519119 13.333333 48.442644
v -12.463654 13.333333 48.609039
v -12.408189 13.333333 48.775433
v -12.352724 13.333333 48.941828
v -12.297259 13.333333 49.108222
v -12.241794 13.333333 49.274617
v -12.186330 13.333333 49.441011
v -12.130865 13.333333 49.607406
v -12.075400 13.333333 49.773800
v -12.019935 13.333333 49.940195
v -11.964470 13.333333 50.106589
v -11.909005 13.333333 50.272984
v -11.853541 13.333333 50.439378
v -11.798076 13.333333 50.605773
v -11.742611 13.333333 50.772167
v -11.687146 13.333333 50.938562
v -11.631681 13.333333 51.104956
v -11.576216 13.333333 51.271351
v -11.520751 13.333333 51.437746
v -12.851908 15.000000 47.444277
v -12.796443 15.000000 47.610672
v -12.740978 15.000000 47.777066
v -12.685513 15.000000 47.943461
v -12.630048 15.000000 48.109855
v -12.574583 15.000000 48.276250
v -12.519119 15.000000 48.442644
v -12.463654 15.000000 48.609039
v -12.408189 15.000000 48.775433
v -12.352724 15.000000 48.941828
v -12.297259 15.000000 49.108222
v -12.241794 15.000000 49.274617
v -12.186330 15.000000 49.441011
v -12.130865 15.000000 49.607406
v -12.075400 15.000000 49.773800
v -12.019935 15.000000 49.940195
v -11.964470 15.000000 50.106589
v -11.909005 15.000000 50.272984
v -11.853541 15.000000 50.439378
v -11.798076 15.000000 50.605773
v -11.742611 15.000000 50.772167
v -11.687146 15.000000 50.938562
v -11.631681 15.000000 51.104956
v -11.576216 15.000000 51.271351
v -11.520751 15.000000 51.437746
v -12.851908 16.666667 47.444277
v -12.796443 16.666667 47.610672
v -12.740978 16.666667 47.777066
v -12.685513 16.666667 47.943461
v -12.630048 16.666667 48.109855
v -12.574583 16.666667 48.276250
v -12.519119 16.666667 48.442644
v -12.463654 16.666667 48.609039
v -12.408189 16.666667 48.775433
v -12.352724 16.666667 48.941828
v -12.297259 16.666667 49.108222
v -12.241794 16.666667 49.274617
v -12.186330 16.666667 49.441011
v -12.130865 16.666667 49.607406
v -12.075400 16.666667 49.773800
v -12.019935 16.666667 49.940195
v -11.964470 16.666667 50.106589
v -11.909005 16.666667 50.272984
v -11.853541 16.666667 50.439378
v -11.798076 16.666667 50.605773
v -11.742611 16.666667 50.772167
v -11.687146 16.666667 50.938562
v -11.631681 16.666667 51.104956
v -11.576216 16.666667 51.271351
v -11.520751 16.666667 51.437746
v -12.851908 18.333333 47.444277
v -12.796443 18.333333 47.610672
v -12.740978 18.333333 47.777066
v -12.685513 18.333333 47.943461
v -12.630048 18.333333 48.109855
v -12.574583 18.333333 48.276250
v -12.519119 18.333333 48.442644
v -12.463654 18.333333 48.609039
v -12.408189 18.333333 48.775433
v -12.352724 18.333333 48.941828
v -12.297259 18.333333 49.108222
v -12.241794 18.333333 49.274617
v -12.186330 18.333333 49.441011
v -12.130865 18.333333 49.607406
v -12.075400 18.333333 49.773800
v -12.019935 18.333333 49.940195
v -11.964470 18.333333 50.106589
v -11.909005 18.333333 50.272984
v -11.853541 18.333333 50.439378
v -11.798076 18.333333 50.605773
v -11.742611 18.333333 50.772167
v -11.687146 18.333333 50.938562
v -11.631681 18.333333 51.104956
v -11.576216 18.333333 51.271351
v -11.520751 18.333333 51.437746
v -12.851908 20.000000 47.444277
v -12.796443 20.000000 47.610672
v -12.740978 20.000000 47.777066
v -12.685513 20.000000 47.943461
v -12.630048 20.000000 48.109855
v -12.574583 20.000000 48.276250
v -12.519119 20.000000 48.442644
v -12.463654 20.000000 48.609039
v -12.408189 20.000000 48.775433
v -12.352724 20.000000 48.941828
v -12.297259 20.000000 49.108222
v -12.241794 20.000000 49.274617
v -12.186330 20.000000 49.441011
v -12.130865 20.000000 49.607406
v -12.075400 20.000000 49.773800
v -12.019935 20.000000 49.940195
v -11.964470 20.000000 50.106589
v -11.909005 20.000000 50.272984
v -11.853541 20.000000 50.439378
v -11.798076 20.000000 50.605773
v -11.742611 20.000000 50.772167
v -11.687146 20.000000 50.938562
v -11.631681 20.000000 51.104956
v -11.576216 20.000000 51.271351
v -11.520751 20.000000 51.437746
f 26 27 52
f 26 52 51
f 27 28 53
f 27 53 52
f 28 29 54
f 28 54 53
f 29 30 55
f 29 55 54
f 30 31 56
f 30 56 55
f 31 32 57
f 31 57 56
f 32 33 58
f 32 58 57
f 33 34 59
f 33 59 58
f 34 35 60
f 34 60 59
f 35 36 61
f 35 61 60
f 36 37 62
f 36 62 61
f 37 38 63
f 37 63 62
f 38 39 64
f 38 64 63
f 39 40 65
f 39 65 64
f 40 41 66
f 40 66 65
f 41 42 67
f 41 67 66
f 42 43 68
f 42 68 67
f 43 44 69
f 43 69 68
f 44 45 70
f 44 70 69
f 45 46 71
f 45 71 70
f 46 47 72
f 46 72 71
f 47 48 73
f 47 73 72
f 48 49 74
f 48 74 73
f 49 50 75
f 49 75 74
f 51 52 77
f 51 77 76
f 52 53 78
f 52 78 77
f 53 54 79
f 53 79 78
f 54 55 80
f 54 80 79
f 55 56 81
f 55 81 80
f 56 57 82
f 56 82 81
f 57 58 83
f 57 83 82
f 58 59 84
f 58 84 83
f 59 60 85
f 59 85 84
f 60 61 86
f 60 86 85
f 61 62 87
f 61 87 86
f 62 63 88
f 62 88 87
f 63 64 89
f 63 89 88
f 64 65 90
f 64 90 89
f 65 66 91
f 65 91 90
f 66 67 92
f 66 92 91
f 67 68 93
f 67 93 92
f 68 69 94
f 68 94 93
f 69 70 95
f 69 95 94
f 70 71 96
f 70 96 95
f 71 72 97
f 71 97 96
f 72 73 98
f 72 98 97
f 73 74 99
f 73 99 98
f 74 75 100
f 74 100 99
f 76 77 102
f 76 102 101
f 77 78 103
f 77 103 102
f 78 79 104
f 78 104 103
f 79 80 105
f 79 105 104
f 80 81 106
f 80 106 105
f 81 82 107
f 81 107 106
f 82 83 108
f 82 108 107
f 83 84 109
f 83 109 108
f 84 85 110
f 84 110 109
f 85 86 111
f 85 111 110
f 86 87 112
f 86 112 111
f 87 88 113
f 87 113 112
f 88 89 114
f 88 114 113
f 89 90 115
f 89 115 114
f 90 91 116
f 90 116 115
f 91 92 117
f 91 117 116
f 92 93 118
f 92 118 117
f 93 94 119
f 93 119 118
f 94 95 120
f 94 120 119
f 95 96 121
f 95 121 120
f 96 97 122
f 96 122 121
f 97 98 123
f 97 123 122
f 98 99 124
f 98 124 123
f 99 100 125
f 99 125 124
f 101 102 127
f 101 127 126
f 102 103 128
f 102 128 127
f 103 104 129
f 103 129 128
f 104 105 130
f 104 130 129
f 105 106 131
f 105 131 130
f 106 107 132
f 106 132 131
f 107 108 133
f 107 133 132
f 108 109 134
f 108 134 133
f 109 110 135
f 109 135 134
f 110 111 136
f 110 136 135
f 111 112 137
f 111 137 136
f 112 113 138
f 112 138 137
f 113 114 139
f 113 139 138
f 114 115 140
f 114 140 139
f 115 116 141
f 115 141 140
f 116 117 142
f 116 142 141
f 117 118 143
f 117 143 142
f 118 119 144
f 118 144 143
f 119 120 145
f 119 145 144
f 120 121 146
f 120 146 145
f 121 122 147
f 121 147 146
f 122 123 148
f 122 148 147
f 123 124 149
f 123 149 148
f 124 125 150
f 124 150 149
f 126 127 152
f 126 152 151
f 127 128 153
f 127 153 152
f 128 129 154
f 128 154 153
f 129 130 155
f 129 155 154
f 130 131 156
f 130 156 155
f 131 132 157
f 131 157 156
f 132 133 158
f 132 158 157
f 133 134 159
f 133 159 158
f 134 135 160
f 134 160 159
f 135 136 161
f 135 161 160
f 136 137 162
f 136 162 161
f 137 138 163
f 137 163 162
f 138 139 164
f 138 164 163
f 139 140 165
f 139 165 164
f 140 141 166
f 140 166 165
f 141 142 167
f 141 167 166
f 142 143 168
f 142 168 167
f 143 144 169
f 143 169 168
f 144 145 170
f 144 170 169
f 145 146 171
f 145 171 170
f 146 147 172
f 146 172 171
f 147 148 173
f 147 173 172
f 148 149 174
f 148 174 173
f 149 150 175
f 149 175 174
f 151 152 177
f 151 177 176
f 152 153 178
f 152 178 177
f 153 154 179
f 153 179 178
f 154 155 180
f 154 180 179
f 155 156 181
f 155 181 180
f 156 157 182
f 156 182 181
f 157 158 183
f 157 183 182
f 158 159 184
f 158 184 183
f 159 160 185
f 159 185 184
f 160 161 186
f 160 186 185
f 161 162 187
f 161 187 186
f 162 163 188
f 162 188 187
f 163 164 189
f 163 189 188
f 164 165 190
f 164 190 189
f 165 166 191
f 165 191 190
f 166 167 192
f 166 192 191
f 167 168 193
f 167 193 192
f 168 169 194
f 168 194 193
f 169 170 195
f 169 195 194
f 170 171 196
f 170 196 195
f 171 172 197
f 171 197 196
f 172 173 198
f 172 198 197
f 173 174 199
f 173 199 198
f 174 175 200
f 174 200 199
f 176 177 202
f 176 202 201
f 177 178 203
f 177 203 202
f 178 179 204
f 178 204 203
f 179 180 205
f 179 205 204
f 180 181 206
f 180 206 205
f 181 182 207
f 181 207 206
f 182 183 208
f 182 208 207
f 183 184 209
f 183 209 208
f 184 185 210
f 184 210 209
f 185 186 211
f 185 211 210
f 186 187 212
f 186 212 211
f 187 188 213
f 187 213 212
f 188 189 214
f 188 214 213
f 189 190 215
f 189 215 214
f 190 191 216
f 190 216 215
f 191 192 217
f 191 217 216
f 192 193 218
f 192 218 217
f 193 194 219
f 193 219 218
f 194 195 220
f 194 220 219
f 195 196 221
f 195 221 220
f 196 197 222
f 196 222 221
f 197 198 223
f 197 223 222
f 198 199 224
f 198 224 223
f 199 200 225
f 199 225 224
f 201 202 227
f 201 227 226
f 202 203 228
f 202 228 227
f 203 204 229
f 203 229 228
f 204 205 230
f 204 230 229
f 205 206 231
f 205 231 230
f 206 207 232
f 206 232 231
f 207 208 233
f 207 233 232
f 208 209 234
f 208 234 233
f 209 210 235
f 209 235 234
f 210 211 236
f 210 236 235
f 211 212 237
f 211 237 236
f 212 213 238
f 212 238 237
f 213 214 239
f 213 239 238
f 214 215 240
f 214 240 239
f 215 216 241
f 215 241 240
f 216 217 242
f 216 242 241
f 217 218 243
f 217 243 242
f 218 219 244
f 218 244 243
f 219 220 245
f 219 245 244
f 220 221 246
f 220 246 245
f 221 222 247
f 221 247 246
f 222 223 248
f 222 248 247
f 223 224 249
f 223 249 248
f 224 225 250
f 224 250 249
f 226 227 252
f 226 252 251
f 227 228 253
f 227 253 252
f 228 229 254
f 228 254 253
f 229 230 255
f 229 255 254
f 230 231 256
f 230 256 255
f 231 232 257
f 231 257 256
f 232 233 258
f 232 258 257
f 233 234 259
f 233 259 258
f 234 235 260
f 234 260 259
f 235 236 261
f 235 261 260
f 236 237 262
f 236 262 261
f 237 238 263
f 237 263 262
f 238 239 264
f 238 264 263
f 239 240 265
f 239 265 264
f 240 241 266
f 240 266 265
f 241 242 267
f 241 267 266
f 242 243 268
f 242 268 267
f 243 244 269
f 243 269 268
f 244 245 270
f 244 270 269
f 245 246 271
f 245 271 270
f 246 247 272
f 246 272 271
f 247 248 273
f 247 273 272
f 248 249 274
f 248 274 273
f 249 250 275
f 249 275 274
f 251 252 277
f 251 277 276
f 252 253 278
f 252 278 277
f 253 254 279
f 253 279 278
f 254 255 280
f 254 280 279
f 255 256 281
f 255 281 280
f 256 257 282
f 256 282 281
f 257 258 283
f 257 283 282
f 258 259 284
f 258 284 283
f 259 260 285
f 259 285 284
f 260 261 286
f 260 286 285
f 261 262 287
f 261 287 286
f 262 263 288
f 262 288 287
f 263 264 289
f 263 289 288
f 264 265 290
f 264 290 289
f 265 266 291
f 265 291 290
f 266 267 292
f 266 292 291
f 267 268 293
f 267 293 292
f 268 269 294
f 268 294 293
f 269 270 295
f 269 295 294
f 270 271 296
f 270 296 295
f 271 272 297
f 271 297 296
f 272 273 298
f 272 298 297
f 273 274 299
f 273 299 298
f 274 275 300
f 274 300 299
f 276 277 302
f 276 302 301
f 277 278 303
f 277 303 302
f 278 279 304
f 278 304 303
f 279 280 305
f 279 305 304
f 280 281 306
f 280 306 305
f 281 282 307
f 281 307 306
f 282 283 308
f 282 308 307
f 283 284 309
f 283 309 308
f 284 285 310
f 284 310 309
f 285 286 311
f 285 311 310
f 286 287 312
f 286 312 311
f 287 288 313
f 287 313 312
f 288 289 314
f 288 314 313
f 289 290 315
f 289 315 314
f 290 291 316
f 290 316 315
f 291 292 317
f 291 317 316
f 292 293 318
f 292 318 317
f 293 294 319
f 293 319 318
f 294 295 320
f 294 320 319
f 295 296 321
f 295 321 320
f 296 297 322
f 296 322 321
f 297 298 323
f 297 323 322
f 298 299 324
f 298 324 323
f 299 300 325
f 299 325 324
f 301 302 327
f 301 327 326
f 302 303 328
f 302 328 327
f 303 304 329
f 303 329 328
f 304 305 330
f 304 330 329
f 305 306 331
f 305 331 330
f 306 307 332
f 306 332 331
f 307 308 333
f 307 333 332
f 308 309 334
f 308 334 333
f 309 310 335
f 309 335 334
f 310 311 336
f 310 336 335
f 311 312 337
f 311 337 336
f 312 313 338
f 312 338 337
f 313 314 339
f 313 339 338
f 314 315 340
f 314 340 339
f 315 316 341
f 315 341 340
f 316 317 342
f 316 342 341
f 317 318 343
f 317 343 342
f 318 319 344
f 318 344 343
f 319 320 345
f 319 345 344
f 320 321 346
f 320 346 345
f 321 322 347
f 321 347 346
f 322 323 348
f 322 348 347
f 323 324 349
f 323 349 348
f 324 325 350
f 324 350 349
f 326 327 352
f 326 352 351
f 327 328 353
f 327 353 352
f 328 329 354
f 328 354 353
f 329 330 355
f 329 355 354
f 330 331 356
f 330 356 355
f 331 332 357
f 331 357 356
f 332 333 358
f 332 358 357
f 333 334 359
f 333 359 358
f 334 335 360
f 334 360 359
f 335 336 361
f 335 361 360
f 336 337 362
f 336 362 361
f 337 338 363
f 337 363 362
f 338 339 364
f 338 364 363
f 339 340 365
f 339 365 364
f 340 341 366
f 340 366 365
f 341 342 367
f 341 367 366
f 342 343 368
f 342 368 367
f 343 344 369
f 343 369 368
f 344 345 370
f 344 370 369
f 345 346 371
f 345 371 370
f 346 347 372
f 346 372 371
f 347 348 373
f 347 373 372
f 348 349 374
f 348 374 373
f 349 350 375
f 349 375 374
f 351 352 377
f 351 377 376
f 352 353 378
f 352 378 377
f 353 354 379
f 353 379 378
f 354 355 380
f 354 380 379
f 355 356 381
f 355 381 380
f 356 357 382
f 356 382 381
f 357 358 383
f 357 383 382
f 358 359 384
f 358 384 383
f 359 360 385
f 359 385 384
f 360 361 386
f 360 386 385
f 361 362 387
f 361 387 386
f 362 363 388
f 362 388 387
f 363 364 389
f 363 389 388
f 364 365 390
f 364 390 389
f 365 366 391
f 365 391 390
f 366 367 392
f 366 392 391
f 367 368 393
f 367 393 392
f 368 369 394
f 368 394 393
f 369 370 395
f 369 395 394
f 370 371 396
f 370 396 395
f 371 372 397
f 371 397 396
f 372 373 398
f 372 398 397
f 373 374 399
f 373 399 398
f 374 375 400
f 374 400 399
f 376 377 402
f 376 402 401
f 377 378 403
f 377 403 402
f 378 379 404
f 378 404 403
f 379 380 405
f 379 405 404
f 380 381 406
f 380 406 405
f 381 382 407
f 381 407 406
f 382 383 408
f 382 408 407
f 383 384 409
f 383 409 408
f 384 385 410
f 384 410 409
f 385 386 411
f 385 411 410
f 386 387 412
f 386 412 411
f 387 388 413
f 387 413 412
f 388 389 414
f 388 414 413
f 389 390 415
f 389 415 414
f 390 391 416
f 390 416 415
f 391 392 417
f 391 417 416
f 392 393 418
f 392 418 417
f 393 394 419
f 393 419 418
f 394 395 420
f 394 420 419
f 395 396 421
f 395 421 420
f 396 397 422
f 396 422 421
f 397 398 423
f 397 423 422
f 398 399 424
f 398 424 423
f 399 400 425
f 399 425 424
f 401 402 427
f 401 427 426
f 402 403 428
f 402 428 427
f 403 404 429
f 403 429 428
f 404 405 430
f 404 430 429
f 405 406 431
f 405 431 430
f 406 407 432
f 406 432 431
f 407 408 433
f 407 433 432
f 408 409 434
f 408 434 433
f 409 410 435
f 409 435 434
f 410 411 436
f 410 436 435
f 411 412 437
f 411 437 436
f 412 413 438
f 412 438 437
f 413 414 439
f 413 439 438
f 414 415 440
f 414 440 439
f 415 416 441
f 415 441 440
f 416 417 442
f 416 442 441
f 417 418 443
f 417 443 442
f 418 419 444
f 418 444 443
f 419 420 445
f 419 445 444
f 420 421 446
f 420 446 445
f 421 422 447
f 421 447 446
f 422 423 448
f 422 448 447
f 423 424 449
f 423 449 448
f 424 425 450
f 424 450 449
f 426 427 452
f 426 452 451
f 427 428 453
f 427 453 452
f 428 429 454
f 428 454 453
f 429 430 455
f 429 455 454
f 430 431 456
f 430 456 455
f 431 432 457
f 431 457 456
f 432 433 458
f 432 458 457
f 433 434 459
f 433 459 458
f 434 435 460
f 434 460 459
f 435 436 461
f 435 461 460
f 436 437 462
f 436 462 461
f 437 438 463
f 437 463 462
f 438 439 464
f 438 464 463
f 439 440 465
f 439 465 464
f 440 441 466
f 440 466 465
f 441 442 467
f 441 467 466
f 442 443 468
f 442 468 467
f 443 444 469
f 443 469 468
f 444 445 470
f 444 470 469
f 445 446 471
f 445 471 470
f 446 447 472
f 446 472 471
f 447 448 473
f 447 473 472
f 448 449 474
f 448 474 473
f 449 450 475
f 449 475 474
f 451 452 477
f 451 477 476
f 452 453 478
f 452 478 477
f 453 454 479
f 453 479 478
f 454 455 480
f 454 480 479
f 455 456 481
f 455 481 480
f 456 457 482
f 456 482 481
f 457 458 483
f 457 483 482
f 458 459 484
f 458 484 483
f 459 460 485
f 459 485 484
f 460 461 486
f 460 486 485
f 461 462 487
f 461 487 486
f 462 463 488
f 462 488 487
f 463 464 489
f 463 489 488
f 464 465 490
f 464 490 489
f 465 466 491
f 465 491 490
f 466 467 492
f 466 492 491
f 467 468 493
f 467 493 492
f 468 469 494
f 468 494 493
f 469 470 495
f 469 495 494
f 470 471 496
f 470 496 495
f 471 472 497
f 471 497 496
f 472 473 498
f 472 498 497
f 473 474 499
f 473 499 498
f 474 475 500
f 474 500 499
f 476 477 502
f 476 502 501
f 477 478 503
f 477 503 502
f 478 479 504
f 478 504 503
f 479 480 505
f 479 505 504
f 480 481 506
f 480 506 505
f 481 482 507
f 481 507 506
f 482 483 508
f 482 508 507
f 483 484 509
f 483 509 508
f 484 485 510
f 484 510 509
f 485 486 511
f 485 511 510
f 486 487 512
f 486 512 511
f 487 488 513
f 487 513 512
f 488 489 514
f 488 514 513
f 489 490 515
f 489 515 514
f 490 491 516
f 490 516 515
f 491 492 517
f 491 517 516
f 492 493 518
f 492 518 517
f 493 494 519
f 493 519 518
f 494 495 520
f 494 520 519
f 495 496 521
f 495 521 520
f 496 497 522
f 496 522 521
f 497 498 523
f 497 523 522
f 498 499 524
f 498 524 523
f 499 500 525
f 499 525 524
f 501 502 527
f 501 527 526
f 502 503 528
f 502 528 527
f 503 504 529
f 503 529 528
f 504 505 530
f 504 530 529
f 505 506 531
f 505 531 530
f 506 507 532
f 506 532 531
f 507 508 533
f 507 533 532
f 508 509 534
f 508 534 533
f 509 510 535
f 509 535 534
f 510 511 536
f 510 536 535
f 511 512 537
f 511 537 536
f 512 513 538
f 512 538 537
f 513 514 539
f 513 539 538
f 514 515 540
f 514 540 539
f 515 516 541
f 515 541 540
f 516 517 542
f 516 542 541
f 517 518 543
f 517 543 542
f 518 519 544
f 518 544 543
f 519 520 545
f 519 545 544
f 520 521 546
f 520 546 545
f 521 522 547
f 521 547 546
f 522 523 548
f 522 548 547
f 523 524 549
f 523 549 548
f 524 525 550
f 524 550 549
f 526 527 552
f 526 552 551
f 527 528 553
f 527 553 552
f 528 529 554
f 528 554 553
f 529 530 555
f 529 555 554
f 530 531 556
f 530 556 555
f 531 532 557
f 531 557 556
f 532 533 558
f 532 558 557
f 533 534 559
f 533 559 558
f 534 535 560
f 534 560 559
f 535 536 561
f 535 561 560
f 536 537 562
f 536 562 561
f 537 538 563
f 537 563 562
f 538 539 564
f 538 564 563
f 539 540 565
f 539 565 564
f 540 541 566
f 540 566 565
f 541 542 567
f 541 567 566
f 542 543 568
f 542 568 567
f 543 544 569
f 543 569 568
f 544 545 570
f 544 570 569
f 545 546 571
f 545 571 570
f 546 547 572
f 546 572 571
f 547 548 573
f 547 573 572
f 548 549 574
f 548 574 573
f 549 550 575
f 549 575 574
f 551 552 577
f 551 577 576
f 552 553 578
f 552 578 577
f 553 554 579
f 553 579 578
f 554 555 580
f 554 580 579
f 555 556 581
f 555 581 580
f 556 557 582
f 556 582 581
f 557 558 583
f 557 583 582
f 558 559 584
f 558 584 583
f 559 560 585
f 559 585 584
f 560 561 586
f 560 586 585
f 561 562 587
f 561 587 586
f 562 563 588
f 562 588 587
f 563 564 589
f 563 589 588
f 564 565 590
f 564 590 589
f 565 566 591
f 565 591 590
f 566 567 592
f 566 592 591
f 567 568 593
f 567 593 592
f 568 569 594
f 568 594 593
f 569 570 595
f 569 595 594
f 570 571 596
f 570 596 595
f 571 572 597
f 571 597 596
f 572 573 598
f 572 598 597
f 573 574 599
f 573 599 598
f 574 575 600
f 574 600 599
