o [4B] 3D Diagram - S2-01 Group G_47
v -11.000000 -2.000000 8.426681
v -10.857773 -2.000000 8.000000
v -10.871858 -1.938290 8.000000
v -10.911323 -1.888803 8.000000
v -10.968352 -1.861339 8.000000
v -11.031648 -1.861339 8.000000
v -11.088677 -1.888803 8.000000
v -11.128142 -1.938290 8.000000
v -11.142227 -2.000000 8.000000
v -11.128142 -2.061710 8.000000
v -11.088677 -2.111197 8.000000
v -11.031648 -2.138661 8.000000
v -10.968352 -2.138661 8.000000
v -10.911323 -2.111197 8.000000
v -10.871858 -2.061710 8.000000
v -11.000000 -2.000000 8.000000
f 1 2 3
f 1 3 4
f 1 4 5
f 1 5 6
f 1 6 7
f 1 7 8
f 1 8 9
f 1 9 10
f 1 10 11
f 1 11 12
f 1 12 13
f 1 13 14
f 1 14 15
f 1 15 2
f 16 3 2
f 16 4 3
f 16 5 4
f 16 6 5
f 16 7 6
f 16 8 7
f 16 9 8
f 16 10 9
f 16 11 10
f 16 12 11
f 16 13 12
f 16 14 13
f 16 15 14
f 16 2 15
