o [4B] 3D Diagram - S2-01 Group G_112
v -1.800000 -5.300000 10.426681
v -1.657773 -5.300000 10.000000
v -1.671858 -5.238290 10.000000
v -1.711323 -5.188803 10.000000
v -1.768352 -5.161339 10.000000
v -1.831648 -5.161339 10.000000
v -1.888677 -5.188803 10.000000
v -1.928142 -5.238290 10.000000
v -1.942227 -5.300000 10.000000
v -1.928142 -5.361710 10.000000
v -1.888677 -5.411197 10.000000
v -1.831648 -5.438661 10.000000
v -1.768352 -5.438661 10.000000
v -1.711323 -5.411197 10.000000
v -1.671858 -5.361710 10.000000
v -1.800000 -5.300000 10.000000
f 1 2 3
f 1 3 4
f 1 4 5
f 1 5 6
f 1 6 7
f 1 7 8
f 1 8 9
f 1 9 10
f 1 10 11
f 1 11 12
f 1 12 13
f 1 13 14
f 1 14 15
f 1 15 2
f 16 3 2
f 16 4 3
f 16 5 4
f 16 6 5
f 16 7 6
f 16 8 7
f 16 9 8
f 16 10 9
f 16 11 10
f 16 12 11
f 16 13 12
f 16 14 13
f 16 15 14
f 16 2 15
