o [4B] 3D Diagram - S2-01 Group G_122
v 2.000000 5.950000 11.026681
v 2.142227 5.950000 10.600000
v 2.128142 6.011710 10.600000
v 2.088677 6.061197 10.600000
v 2.031648 6.088661 10.600000
v 1.968352 6.088661 10.600000
v 1.911323 6.061197 10.600000
v 1.871858 6.011710 10.600000
v 1.857773 5.950000 10.600000
v 1.871858 5.888290 10.600000
v 1.911323 5.838803 10.600000
v 1.968352 5.811339 10.600000
v 2.031648 5.811339 10.600000
v 2.088677 5.838803 10.600000
v 2.128142 5.888290 10.600000
v 2.000000 5.950000 10.600000
f 1 2 3
f 1 3 4
f 1 4 5
f 1 5 6
f 1 6 7
f 1 7 8
f 1 8 9
f 1 9 10
f 1 10 11
f 1 11 12
f 1 12 13
f 1 13 14
f 1 14 15
f 1 15 2
f 16 3 2
f 16 4 3
f 16 5 4
f 16 6 5
f 16 7 6
f 16 8 7
f 16 9 8
f 16 10 9
f 16 11 10
f 16 12 11
f 16 13 12
f 16 14 13
f 16 15 14
f 16 2 15
