o [4B] 3D Diagram - S2-01 Group G_99
v 2.000000 -8.000000 0.426681
v 2.142227 -8.000000 0.000000
v 2.128142 -7.938290 0.000000
v 2.088677 -7.888803 0.000000
v 2.031648 -7.861339 0.000000
v 1.968352 -7.861339 0.000000
v 1.911323 -7.888803 0.000000
v 1.871858 -7.938290 0.000000
v 1.857773 -8.000000 0.000000
v 1.871858 -8.061710 0.000000
v 1.911323 -8.111197 0.000000
v 1.968352 -8.138661 0.000000
v 2.031648 -8.138661 0.000000
v 2.088677 -8.111197 0.000000
v 2.128142 -8.061710 0.000000
v 2.000000 -8.000000 0.000000
f 1 2 3
f 1 3 4
f 1 4 5
f 1 5 6
f 1 6 7
f 1 7 8
f 1 8 9
f 1 9 10
f 1 10 11
f 1 11 12
f 1 12 13
f 1 13 14
f 1 14 15
f 1 15 2
f 16 3 2
f 16 4 3
f 16 5 4
f 16 6 5
f 16 7 6
f 16 8 7
f 16 9 8
f 16 10 9
f 16 11 10
f 16 12 11
f 16 13 12
f 16 14 13
f 16 15 14
f 16 2 15
