o [4B] 3D Diagram - S2-06 Group A_967
v -8.694000 17.921000 195.760000
v -8.694000 18.218000 195.760000
v -8.694000 18.218000 196.570000
v -8.694000 17.921000 196.570000
v -7.452000 17.921000 195.760000
v -7.452000 17.921000 196.570000
v -7.452000 18.218000 196.570000
v -7.452000 18.218000 195.760000
v -8.694000 18.218000 197.380000
v -8.694000 17.921000 197.380000
v -7.452000 17.921000 197.380000
v -7.452000 18.218000 197.380000
v -8.694000 18.218000 198.190000
v -8.694000 17.921000 198.190000
v -7.452000 17.921000 198.190000
v -7.452000 18.218000 198.190000
v -8.694000 18.218000 199.000000
v -8.694000 17.921000 199.000000
v -7.452000 17.921000 199.000000
v -8.694000 18.218000 199.810000
v -8.694000 17.921000 199.810000
v -7.452000 17.921000 199.810000
v -8.694000 18.218000 200.620000
v -8.694000 17.921000 200.620000
v -7.452000 17.921000 200.620000
v -8.694000 18.218000 201.430000
v -8.694000 17.921000 201.430000
v -7.452000 17.921000 201.430000
v -8.694000 18.218000 202.240000
v -8.694000 17.921000 202.240000
v -7.452000 17.921000 202.240000
v -8.694000 18.218000 203.050000
v -8.694000 17.921000 203.050000
v -7.452000 17.921000 203.050000
v -8.694000 18.218000 203.860000
v -8.694000 17.921000 203.860000
v -7.452000 17.921000 203.860000
v -8.694000 18.218000 204.670000
v -8.694000 17.921000 204.670000
v -7.452000 17.921000 204.670000
v -7.452000 18.218000 204.670000
v -8.694000 18.515000 198.190000
v -8.694000 18.515000 199.000000
v -7.452000 18.515000 199.000000
v -7.452000 18.515000 198.190000
v -8.694000 18.515000 199.810000
v -7.452000 18.515000 199.810000
v -8.694000 18.515000 200.620000
v -7.452000 18.515000 200.620000
v -8.694000 18.515000 201.430000
v -8.694000 18.515000 202.240000
v -8.694000 18.515000 203.050000
v -8.694000 18.515000 203.860000
v -8.694000 18.515000 204.670000
v -7.452000 18.515000 204.670000
v -8.694000 18.812000 200.620000
v -8.694000 18.812000 201.430000
v -7.452000 18.812000 201.430000
v -7.452000 18.812000 200.620000
v -8.694000 18.812000 202.240000
v -7.452000 18.812000 202.240000
v -8.694000 18.812000 203.050000
v -8.694000 18.812000 203.860000
v -8.694000 18.812000 204.670000
v -7.452000 18.812000 204.670000
v -8.694000 19.109000 202.240000
v -8.694000 19.109000 203.050000
v -7.452000 19.109000 203.050000
v -7.452000 19.109000 202.240000
v -8.694000 19.109000 203.860000
v -7.452000 19.109000 203.860000
v -8.694000 19.109000 204.670000
v -7.452000 19.109000 204.670000
v -8.694000 19.406000 203.860000
v -8.694000 19.406000 204.670000
v -7.452000 19.406000 203.860000
v -7.452000 19.406000 204.670000
v -8.694000 19.703000 203.860000
v -8.694000 19.703000 204.670000
v -7.452000 19.703000 203.860000
v -7.452000 19.703000 204.670000
v -8.694000 20.000000 203.860000
v -8.694000 20.000000 204.670000
v -7.452000 20.000000 203.860000
v -7.452000 20.000000 204.670000
v -8.694000 20.000000 203.050000
v -8.694000 20.297000 203.050000
v -8.694000 20.297000 203.860000
v -7.452000 20.000000 203.050000
v -7.452000 20.297000 203.050000
v -8.694000 20.297000 204.670000
v -7.452000 20.297000 204.670000
v -8.694000 20.297000 201.430000
v -8.694000 20.594000 201.430000
v -8.694000 20.594000 202.240000
v -8.694000 20.297000 202.240000
v -7.452000 20.297000 201.430000
v -7.452000 20.297000 202.240000
v -7.452000 20.594000 201.430000
v -8.694000 20.594000 203.050000
v -8.694000 20.594000 203.860000
v -8.694000 20.594000 204.670000
v -7.452000 20.594000 204.670000
v -8.694000 20.594000 199.000000
v -8.694000 20.891000 199.000000
v -8.694000 20.891000 199.810000
v -8.694000 20.594000 199.810000
v -7.452000 20.594000 199.000000
v -7.452000 20.594000 199.810000
v -7.452000 20.891000 199.000000
v -8.694000 20.891000 200.620000
v -8.694000 20.594000 200.620000
v -7.452000 20.594000 200.620000
v -8.694000 20.891000 201.430000
v -8.694000 20.891000 202.240000
v -8.694000 20.891000 203.050000
v -8.694000 20.891000 203.860000
v -8.694000 20.891000 204.670000
v -7.452000 20.891000 204.670000
v -8.694000 20.891000 196.570000
v -8.694000 21.188000 196.570000
v -8.694000 21.188000 197.380000
v -8.694000 20.891000 197.380000
v -7.452000 20.891000 196.570000
v -7.452000 20.891000 197.380000
v -7.452000 21.188000 196.570000
v -8.694000 21.188000 198.190000
v -8.694000 20.891000 198.190000
v -7.452000 20.891000 198.190000
v -8.694000 21.188000 199.000000
v -8.694000 21.188000 199.810000
v -8.694000 21.188000 200.620000
v -8.694000 21.188000 201.430000
v -8.694000 21.188000 202.240000
v -8.694000 21.188000 203.050000
v -8.694000 21.188000 203.860000
v -8.694000 21.188000 204.670000
v -7.452000 21.188000 204.670000
v -8.694000 21.188000 193.330000
v -8.694000 21.485000 193.330000
v -8.694000 21.485000 194.140000
v -8.694000 21.188000 194.140000
v -7.452000 21.188000 193.330000
v -7.452000 21.188000 194.140000
v -7.452000 21.485000 193.330000
v -8.694000 21.485000 194.950000
v -8.694000 21.188000 194.950000
v -7.452000 21.188000 194.950000
v -8.694000 21.485000 195.760000
v -8.694000 21.188000 195.760000
v -7.452000 21.188000 195.760000
v -8.694000 21.485000 196.570000
v -8.694000 21.485000 197.380000
v -8.694000 21.485000 198.190000
v -8.694000 21.485000 199.000000
v -8.694000 21.485000 199.810000
v -8.694000 21.485000 200.620000
v -8.694000 21.485000 201.430000
v -8.694000 21.485000 202.240000
v -8.694000 21.485000 203.050000
v -8.694000 21.485000 203.860000
v -8.694000 21.485000 204.670000
v -7.452000 21.485000 204.670000
v -8.694000 21.782000 193.330000
v -8.694000 21.782000 194.140000
v -7.452000 21.782000 193.330000
v -8.694000 21.782000 194.950000
v -8.694000 21.782000 195.760000
v -8.694000 21.782000 196.570000
v -8.694000 21.782000 197.380000
v -8.694000 21.782000 198.190000
v -8.694000 21.782000 199.000000
v -8.694000 21.782000 199.810000
v -8.694000 21.782000 200.620000
v -8.694000 21.782000 201.430000
v -8.694000 21.782000 202.240000
v -8.694000 21.782000 203.050000
v -8.694000 21.782000 203.860000
v -8.694000 21.782000 204.670000
v -7.452000 21.782000 204.670000
v -8.694000 22.079000 193.330000
v -8.694000 22.079000 194.140000
v -7.452000 22.079000 194.140000
v -7.452000 22.079000 193.330000
v -8.694000 22.079000 194.950000
v -7.452000 22.079000 194.950000
v -8.694000 22.079000 195.760000
v -7.452000 22.079000 195.760000
v -8.694000 22.079000 196.570000
v -7.452000 22.079000 196.570000
v -8.694000 22.079000 197.380000
v -7.452000 22.079000 197.380000
v -8.694000 22.079000 198.190000
v -7.452000 22.079000 198.190000
v -8.694000 22.079000 199.000000
v -7.452000 22.079000 199.000000
v -8.694000 22.079000 199.810000
v -7.452000 22.079000 199.810000
v -8.694000 22.079000 200.620000
v -7.452000 22.079000 200.620000
v -8.694000 22.079000 201.430000
v -7.452000 22.079000 201.430000
v -8.694000 22.079000 202.240000
v -7.452000 22.079000 202.240000
v -8.694000 22.079000 203.050000
v -7.452000 22.079000 203.050000
v -8.694000 22.079000 203.860000
v -7.452000 22.079000 203.860000
v -8.694000 22.079000 204.670000
v -7.452000 22.079000 204.670000
v -6.210000 17.921000 195.760000
v -6.210000 17.921000 196.570000
v -6.210000 18.218000 196.570000
v -6.210000 18.218000 195.760000
v -6.210000 17.921000 197.380000
v -6.210000 18.218000 197.380000
v -6.210000 17.921000 198.190000
v -6.210000 18.218000 198.190000
v -6.210000 17.921000 199.000000
v -6.210000 17.921000 199.810000
v -6.210000 17.921000 200.620000
v -6.210000 17.921000 201.430000
v -6.210000 17.921000 202.240000
v -6.210000 17.921000 203.050000
v -6.210000 17.921000 203.860000
v -6.210000 17.921000 204.670000
v -6.210000 18.218000 204.670000
v -6.210000 18.515000 199.000000
v -6.210000 18.515000 198.190000
v -6.210000 18.515000 199.810000
v -6.210000 18.515000 200.620000
v -6.210000 18.515000 204.670000
v -6.210000 18.812000 201.430000
v -6.210000 18.812000 200.620000
v -6.210000 18.812000 202.240000
v -6.210000 18.812000 204.670000
v -6.210000 19.109000 203.050000
v -6.210000 19.109000 202.240000
v -6.210000 19.109000 203.860000
v -6.210000 19.109000 204.670000
v -6.210000 19.406000 203.860000
v -6.210000 19.406000 204.670000
v -6.210000 19.703000 203.860000
v -6.210000 19.703000 204.670000
v -6.210000 20.000000 203.860000
v -6.210000 20.000000 204.670000
v -6.210000 20.000000 203.050000
v -6.210000 20.297000 203.050000
v -6.210000 20.297000 204.670000
v -6.210000 20.297000 201.430000
v -6.210000 20.297000 202.240000
v -6.210000 20.594000 201.430000
v -6.210000 20.594000 204.670000
v -6.210000 20.594000 199.000000
v -6.210000 20.594000 199.810000
v -6.210000 20.891000 199.000000
v -6.210000 20.594000 200.620000
v -6.210000 20.891000 204.670000
v -6.210000 20.891000 196.570000
v -6.210000 20.891000 197.380000
v -6.210000 21.188000 196.570000
v -6.210000 20.891000 198.190000
v -6.210000 21.188000 204.670000
v -6.210000 21.188000 193.330000
v -6.210000 21.188000 194.140000
v -6.210000 21.485000 193.330000
v -6.210000 21.188000 194.950000
v -6.210000 21.188000 195.760000
v -6.210000 21.485000 204.670000
v -6.210000 21.782000 193.330000
v -6.210000 21.782000 204.670000
v -6.210000 22.079000 194.140000
v -6.210000 22.079000 193.330000
v -6.210000 22.079000 194.950000
v -6.210000 22.079000 195.760000
v -6.210000 22.079000 196.570000
v -6.210000 22.079000 197.380000
v -6.210000 22.079000 198.190000
v -6.210000 22.079000 199.000000
v -6.210000 22.079000 199.810000
v -6.210000 22.079000 200.620000
v -6.210000 22.079000 201.430000
v -6.210000 22.079000 202.240000
v -6.210000 22.079000 203.050000
v -6.210000 22.079000 203.860000
v -6.210000 22.079000 204.670000
v -4.968000 17.921000 195.760000
v -4.968000 17.921000 196.570000
v -4.968000 18.218000 196.570000
v -4.968000 18.218000 195.760000
v -4.968000 17.921000 197.380000
v -4.968000 18.218000 197.380000
v -4.968000 17.921000 198.190000
v -4.968000 18.218000 198.190000
v -4.968000 17.921000 199.000000
v -4.968000 17.921000 199.810000
v -4.968000 17.921000 200.620000
v -4.968000 17.921000 201.430000
v -4.968000 17.921000 202.240000
v -4.968000 17.921000 203.050000
v -4.968000 17.921000 203.860000
v -4.968000 17.921000 204.670000
v -4.968000 18.218000 204.670000
v -4.968000 18.515000 199.000000
v -4.968000 18.515000 198.190000
v -4.968000 18.515000 199.810000
v -4.968000 18.515000 200.620000
v -4.968000 18.515000 204.670000
v -4.968000 18.812000 201.430000
v -4.968000 18.812000 200.620000
v -4.968000 18.812000 202.240000
v -4.968000 18.812000 204.670000
v -4.968000 19.109000 203.050000
v -4.968000 19.109000 202.240000
v -4.968000 19.109000 203.860000
v -4.968000 19.109000 204.670000
v -4.968000 19.406000 203.860000
v -4.968000 19.406000 204.670000
v -4.968000 19.703000 203.860000
v -4.968000 19.703000 204.670000
v -4.968000 20.000000 203.860000
v -4.968000 20.000000 204.670000
v -4.968000 20.000000 203.050000
v -4.968000 20.297000 203.050000
v -4.968000 20.297000 204.670000
v -4.968000 20.297000 201.430000
v -4.968000 20.297000 202.240000
v -4.968000 20.594000 201.430000
v -4.968000 20.594000 204.670000
v -4.968000 20.594000 199.000000
v -4.968000 20.594000 199.810000
v -4.968000 20.891000 199.000000
v -4.968000 20.594000 200.620000
v -4.968000 20.891000 204.670000
v -4.968000 20.891000 196.570000
v -4.968000 20.891000 197.380000
v -4.968000 21.188000 196.570000
v -4.968000 20.891000 198.190000
v -4.968000 21.188000 204.670000
v -4.968000 21.188000 193.330000
v -4.968000 21.188000 194.140000
v -4.968000 21.485000 193.330000
v -4.968000 21.188000 194.950000
v -4.968000 21.188000 195.760000
v -4.968000 21.485000 204.670000
v -4.968000 21.782000 193.330000
v -4.968000 21.782000 204.670000
v -4.968000 22.079000 194.140000
v -4.968000 22.079000 193.330000
v -4.968000 22.079000 194.950000
v -4.968000 22.079000 195.760000
v -4.968000 22.079000 196.570000
v -4.968000 22.079000 197.380000
v -4.968000 22.079000 198.190000
v -4.968000 22.079000 199.000000
v -4.968000 22.079000 199.810000
v -4.968000 22.079000 200.620000
v -4.968000 22.079000 201.430000
v -4.968000 22.079000 202.240000
v -4.968000 22.079000 203.050000
v -4.968000 22.079000 203.860000
v -4.968000 22.079000 204.670000
v -3.726000 17.921000 195.760000
v -3.726000 17.921000 196.570000
v -3.726000 18.218000 196.570000
v -3.726000 18.218000 195.760000
v -3.726000 17.921000 197.380000
v -3.726000 18.218000 197.380000
v -3.726000 17.921000 198.190000
v -3.726000 18.218000 198.190000
v -3.726000 17.921000 199.000000
v -3.726000 17.921000 199.810000
v -3.726000 17.921000 200.620000
v -3.726000 17.921000 201.430000
v -3.726000 17.921000 202.240000
v -3.726000 17.921000 203.050000
v -3.726000 17.921000 203.860000
v -3.726000 17.921000 204.670000
v -3.726000 18.218000 204.670000
v -3.726000 18.515000 199.000000
v -3.726000 18.515000 198.190000
v -3.726000 18.515000 199.810000
v -3.726000 18.515000 200.620000
v -3.726000 18.515000 204.670000
v -3.726000 18.812000 201.430000
v -3.726000 18.812000 200.620000
v -3.726000 18.812000 202.240000
v -3.726000 18.812000 204.670000
v -3.726000 19.109000 203.050000
v -3.726000 19.109000 202.240000
v -3.726000 19.109000 203.860000
v -3.726000 19.109000 204.670000
v -3.726000 19.406000 203.860000
v -3.726000 19.406000 204.670000
v -3.726000 19.703000 203.860000
v -3.726000 19.703000 204.670000
v -3.726000 20.000000 203.860000
v -3.726000 20.000000 204.670000
v -3.726000 20.000000 203.050000
v -3.726000 20.297000 203.050000
v -3.726000 20.297000 204.670000
v -3.726000 20.297000 201.430000
v -3.726000 20.297000 202.240000
v -3.726000 20.594000 201.430000
v -3.726000 20.594000 204.670000
v -3.726000 20.594000 199.000000
v -3.726000 20.594000 199.810000
v -3.726000 20.891000 199.000000
v -3.726000 20.594000 200.620000
v -3.726000 20.891000 204.670000
v -3.726000 20.891000 196.570000
v -3.726000 20.891000 197.380000
v -3.726000 21.188000 196.570000
v -3.726000 20.891000 198.190000
v -3.726000 21.188000 204.670000
v -3.726000 21.188000 193.330000
v -3.726000 21.188000 194.140000
v -3.726000 21.485000 193.330000
v -3.726000 21.188000 194.950000
v -3.726000 21.188000 195.760000
v -3.726000 21.485000 204.670000
v -3.726000 21.782000 193.330000
v -3.726000 21.782000 204.670000
v -3.726000 22.079000 194.140000
v -3.726000 22.079000 193.330000
v -3.726000 22.079000 194.950000
v -3.726000 22.079000 195.760000
v -3.726000 22.079000 196.570000
v -3.726000 22.079000 197.380000
v -3.726000 22.079000 198.190000
v -3.726000 22.079000 199.000000
v -3.726000 22.079000 199.810000
v -3.726000 22.079000 200.620000
v -3.726000 22.079000 201.430000
v -3.726000 22.079000 202.240000
v -3.726000 22.079000 203.050000
v -3.726000 22.079000 203.860000
v -3.726000 22.079000 204.670000
v -2.484000 17.921000 195.760000
v -2.484000 17.921000 196.570000
v -2.484000 18.218000 196.570000
v -2.484000 18.218000 195.760000
v -2.484000 17.921000 197.380000
v -2.484000 18.218000 197.380000
v -2.484000 17.921000 198.190000
v -2.484000 18.218000 198.190000
v -2.484000 17.921000 199.000000
v -2.484000 17.921000 199.810000
v -2.484000 17.921000 200.620000
v -2.484000 17.921000 201.430000
v -2.484000 17.921000 202.240000
v -2.484000 17.921000 203.050000
v -2.484000 17.921000 203.860000
v -2.484000 17.921000 204.670000
v -2.484000 18.218000 204.670000
v -2.484000 18.515000 199.000000
v -2.484000 18.515000 198.190000
v -2.484000 18.515000 199.810000
v -2.484000 18.515000 200.620000
v -2.484000 18.515000 204.670000
v -2.484000 18.812000 201.430000
v -2.484000 18.812000 200.620000
v -2.484000 18.812000 202.240000
v -2.484000 18.812000 204.670000
v -2.484000 19.109000 203.050000
v -2.484000 19.109000 202.240000
v -2.484000 19.109000 203.860000
v -2.484000 19.109000 204.670000
v -2.484000 19.406000 203.860000
v -2.484000 19.406000 204.670000
v -2.484000 19.703000 203.860000
v -2.484000 19.703000 204.670000
v -2.484000 20.000000 203.860000
v -2.484000 20.000000 204.670000
v -2.484000 20.000000 203.050000
v -2.484000 20.297000 203.050000
v -2.484000 20.297000 204.670000
v -2.484000 20.297000 201.430000
v -2.484000 20.297000 202.240000
v -2.484000 20.594000 201.430000
v -2.484000 20.594000 204.670000
v -2.484000 20.594000 199.000000
v -2.484000 20.594000 199.810000
v -2.484000 20.891000 199.000000
v -2.484000 20.594000 200.620000
v -2.484000 20.891000 204.670000
v -2.484000 20.891000 196.570000
v -2.484000 20.891000 197.380000
v -2.484000 21.188000 196.570000
v -2.484000 20.891000 198.190000
v -2.484000 21.188000 204.670000
v -2.484000 21.188000 193.330000
v -2.484000 21.188000 194.140000
v -2.484000 21.485000 193.330000
v -2.484000 21.188000 194.950000
v -2.484000 21.188000 195.760000
v -2.484000 21.485000 204.670000
v -2.484000 21.782000 193.330000
v -2.484000 21.782000 204.670000
v -2.484000 22.079000 194.140000
v -2.484000 22.079000 193.330000
v -2.484000 22.079000 194.950000
v -2.484000 22.079000 195.760000
v -2.484000 22.079000 196.570000
v -2.484000 22.079000 197.380000
v -2.484000 22.079000 198.190000
v -2.484000 22.079000 199.000000
v -2.484000 22.079000 199.810000
v -2.484000 22.079000 200.620000
v -2.484000 22.079000 201.430000
v -2.484000 22.079000 202.240000
v -2.484000 22.079000 203.050000
v -2.484000 22.079000 203.860000
v -2.484000 22.079000 204.670000
v -1.242000 17.921000 195.760000
v -1.242000 17.921000 196.570000
v -1.242000 18.218000 196.570000
v -1.242000 18.218000 195.760000
v -1.242000 17.921000 197.380000
v -1.242000 18.218000 197.380000
v -1.242000 17.921000 198.190000
v -1.242000 18.218000 198.190000
v -1.242000 17.921000 199.000000
v -1.242000 17.921000 199.810000
v -1.242000 17.921000 200.620000
v -1.242000 17.921000 201.430000
v -1.242000 17.921000 202.240000
v -1.242000 17.921000 203.050000
v -1.242000 17.921000 203.860000
v -1.242000 17.921000 204.670000
v -1.242000 18.218000 204.670000
v -1.242000 18.515000 199.000000
v -1.242000 18.515000 198.190000
v -1.242000 18.515000 199.810000
v -1.242000 18.515000 200.620000
v -1.242000 18.515000 204.670000
v -1.242000 18.812000 201.430000
v -1.242000 18.812000 200.620000
v -1.242000 18.812000 202.240000
v -1.242000 18.812000 204.670000
v -1.242000 19.109000 203.050000
v -1.242000 19.109000 202.240000
v -1.242000 19.109000 203.860000
v -1.242000 19.109000 204.670000
v -1.242000 19.406000 203.860000
v -1.242000 19.406000 204.670000
v -1.242000 19.703000 203.860000
v -1.242000 19.703000 204.670000
v -1.242000 20.000000 203.860000
v -1.242000 20.000000 204.670000
v -1.242000 20.000000 203.050000
v -1.242000 20.297000 203.050000
v -1.242000 20.297000 204.670000
v -1.242000 20.297000 201.430000
v -1.242000 20.297000 202.240000
v -1.242000 20.594000 201.430000
v -1.242000 20.594000 204.670000
v -1.242000 20.594000 199.000000
v -1.242000 20.594000 199.810000
v -1.242000 20.891000 199.000000
v -1.242000 20.594000 200.620000
v -1.242000 20.891000 204.670000
v -1.242000 20.891000 196.570000
v -1.242000 20.891000 197.380000
v -1.242000 21.188000 196.570000
v -1.242000 20.891000 198.190000
v -1.242000 21.188000 204.670000
v -1.242000 21.188000 193.330000
v -1.242000 21.188000 194.140000
v -1.242000 21.485000 193.330000
v -1.242000 21.188000 194.950000
v -1.242000 21.188000 195.760000
v -1.242000 21.485000 204.670000
v -1.242000 21.782000 193.330000
v -1.242000 21.782000 204.670000
v -1.242000 22.079000 194.140000
v -1.242000 22.079000 193.330000
v -1.242000 22.079000 194.950000
v -1.242000 22.079000 195.760000
v -1.242000 22.079000 196.570000
v -1.242000 22.079000 197.380000
v -1.242000 22.079000 198.190000
v -1.242000 22.079000 199.000000
v -1.242000 22.079000 199.810000
v -1.242000 22.079000 200.620000
v -1.242000 22.079000 201.430000
v -1.242000 22.079000 202.240000
v -1.242000 22.079000 203.050000
v -1.242000 22.079000 203.860000
v -1.242000 22.079000 204.670000
v -0.000000 17.921000 195.760000
v -0.000000 17.921000 196.570000
v -0.000000 18.218000 196.570000
v -0.000000 18.218000 195.760000
v -0.000000 17.921000 197.380000
v -0.000000 18.218000 197.380000
v -0.000000 17.921000 198.190000
v -0.000000 18.218000 198.190000
v -0.000000 17.921000 199.000000
v -0.000000 17.921000 199.810000
v -0.000000 17.921000 200.620000
v -0.000000 17.921000 201.430000
v -0.000000 17.921000 202.240000
v -0.000000 17.921000 203.050000
v -0.000000 17.921000 203.860000
v -0.000000 17.921000 204.670000
v -0.000000 18.218000 204.670000
v -0.000000 18.515000 199.000000
v -0.000000 18.515000 198.190000
v -0.000000 18.515000 199.810000
v -0.000000 18.515000 200.620000
v -0.000000 18.515000 204.670000
v -0.000000 18.812000 201.430000
v -0.000000 18.812000 200.620000
v -0.000000 18.812000 202.240000
v -0.000000 18.812000 204.670000
v -0.000000 19.109000 203.050000
v -0.000000 19.109000 202.240000
v -0.000000 19.109000 203.860000
v -0.000000 19.109000 204.670000
v -0.000000 19.406000 203.860000
v -0.000000 19.406000 204.670000
v -0.000000 19.703000 203.860000
v -0.000000 19.703000 204.670000
v -0.000000 20.000000 203.860000
v -0.000000 20.000000 204.670000
v -0.000000 20.000000 203.050000
v -0.000000 20.297000 203.050000
v -0.000000 20.297000 204.670000
v -0.000000 20.297000 201.430000
v -0.000000 20.297000 202.240000
v -0.000000 20.594000 201.430000
v -0.000000 20.594000 204.670000
v -0.000000 20.594000 199.000000
v -0.000000 20.594000 199.810000
v -0.000000 20.891000 199.000000
v -0.000000 20.594000 200.620000
v -0.000000 20.891000 204.670000
v -0.000000 20.891000 196.570000
v -0.000000 20.891000 197.380000
v -0.000000 21.188000 196.570000
v -0.000000 20.891000 198.190000
v -0.000000 21.188000 204.670000
v -0.000000 21.188000 193.330000
v -0.000000 21.188000 194.140000
v -0.000000 21.485000 193.330000
v -0.000000 21.188000 194.950000
v -0.000000 21.188000 195.760000
v -0.000000 21.485000 204.670000
v -0.000000 21.782000 193.330000
v -0.000000 21.782000 204.670000
v -0.000000 22.079000 194.140000
v -0.000000 22.079000 193.330000
v -0.000000 22.079000 194.950000
v -0.000000 22.079000 195.760000
v -0.000000 22.079000 196.570000
v -0.000000 22.079000 197.380000
v -0.000000 22.079000 198.190000
v -0.000000 22.079000 199.000000
v -0.000000 22.079000 199.810000
v -0.000000 22.079000 200.620000
v -0.000000 22.079000 201.430000
v -0.000000 22.079000 202.240000
v -0.000000 22.079000 203.050000
v -0.000000 22.079000 203.860000
v -0.000000 22.079000 204.670000
v 1.242000 17.921000 195.760000
v 1.242000 17.921000 196.570000
v 1.242000 18.218000 196.570000
v 1.242000 18.218000 195.760000
v 1.242000 17.921000 197.380000
v 1.242000 18.218000 197.380000
v 1.242000 17.921000 198.190000
v 1.242000 18.218000 198.190000
v 1.242000 17.921000 199.000000
v 1.242000 17.921000 199.810000
v 1.242000 17.921000 200.620000
v 1.242000 17.921000 201.430000
v 1.242000 17.921000 202.240000
v 1.242000 17.921000 203.050000
v 1.242000 17.921000 203.860000
v 1.242000 17.921000 204.670000
v 1.242000 18.218000 204.670000
v 1.242000 18.515000 199.000000
v 1.242000 18.515000 198.190000
v 1.242000 18.515000 199.810000
v 1.242000 18.515000 200.620000
v 1.242000 18.515000 204.670000
v 1.242000 18.812000 201.430000
v 1.242000 18.812000 200.620000
v 1.242000 18.812000 202.240000
v 1.242000 18.812000 204.670000
v 1.242000 19.109000 203.050000
v 1.242000 19.109000 202.240000
v 1.242000 19.109000 203.860000
v 1.242000 19.109000 204.670000
v 1.242000 19.406000 203.860000
v 1.242000 19.406000 204.670000
v 1.242000 19.703000 203.860000
v 1.242000 19.703000 204.670000
v 1.242000 20.000000 203.860000
v 1.242000 20.000000 204.670000
v 1.242000 20.000000 203.050000
v 1.242000 20.297000 203.050000
v 1.242000 20.297000 204.670000
v 1.242000 20.297000 201.430000
v 1.242000 20.297000 202.240000
v 1.242000 20.594000 201.430000
v 1.242000 20.594000 204.670000
v 1.242000 20.594000 199.000000
v 1.242000 20.594000 199.810000
v 1.242000 20.891000 199.000000
v 1.242000 20.594000 200.620000
v 1.242000 20.891000 204.670000
v 1.242000 20.891000 196.570000
v 1.242000 20.891000 197.380000
v 1.242000 21.188000 196.570000
v 1.242000 20.891000 198.190000
v 1.242000 21.188000 204.670000
v 1.242000 21.188000 193.330000
v 1.242000 21.188000 194.140000
v 1.242000 21.485000 193.330000
v 1.242000 21.188000 194.950000
v 1.242000 21.188000 195.760000
v 1.242000 21.485000 204.670000
v 1.242000 21.782000 193.330000
v 1.242000 21.782000 204.670000
v 1.242000 22.079000 194.140000
v 1.242000 22.079000 193.330000
v 1.242000 22.079000 194.950000
v 1.242000 22.079000 195.760000
v 1.242000 22.079000 196.570000
v 1.242000 22.079000 197.380000
v 1.242000 22.079000 198.190000
v 1.242000 22.079000 199.000000
v 1.242000 22.079000 199.810000
v 1.242000 22.079000 200.620000
v 1.242000 22.079000 201.430000
v 1.242000 22.079000 202.240000
v 1.242000 22.079000 203.050000
v 1.242000 22.079000 203.860000
v 1.242000 22.079000 204.670000
v 2.484000 17.921000 195.760000
v 2.484000 17.921000 196.570000
v 2.484000 18.218000 196.570000
v 2.484000 18.218000 195.760000
v 2.484000 17.921000 197.380000
v 2.484000 18.218000 197.380000
v 2.484000 17.921000 198.190000
v 2.484000 18.218000 198.190000
v 2.484000 17.921000 199.000000
v 2.484000 17.921000 199.810000
v 2.484000 17.921000 200.620000
v 2.484000 17.921000 201.430000
v 2.484000 17.921000 202.240000
v 2.484000 17.921000 203.050000
v 2.484000 17.921000 203.860000
v 2.484000 17.921000 204.670000
v 2.484000 18.218000 204.670000
v 2.484000 18.515000 199.000000
v 2.484000 18.515000 198.190000
v 2.484000 18.515000 199.810000
v 2.484000 18.515000 200.620000
v 2.484000 18.515000 204.670000
v 2.484000 18.812000 201.430000
v 2.484000 18.812000 200.620000
v 2.484000 18.812000 202.240000
v 2.484000 18.812000 204.670000
v 2.484000 19.109000 203.050000
v 2.484000 19.109000 202.240000
v 2.484000 19.109000 203.860000
v 2.484000 19.109000 204.670000
v 2.484000 19.406000 203.860000
v 2.484000 19.406000 204.670000
v 2.484000 19.703000 203.860000
v 2.484000 19.703000 204.670000
v 2.484000 20.000000 203.860000
v 2.484000 20.000000 204.670000
v 2.484000 20.000000 203.050000
v 2.484000 20.297000 203.050000
v 2.484000 20.297000 204.670000
v 2.484000 20.297000 201.430000
v 2.484000 20.297000 202.240000
v 2.484000 20.594000 201.430000
v 2.484000 20.594000 204.670000
v 2.484000 20.594000 199.000000
v 2.484000 20.594000 199.810000
v 2.484000 20.891000 199.000000
v 2.484000 20.594000 200.620000
v 2.484000 20.891000 204.670000
v 2.484000 20.891000 196.570000
v 2.484000 20.891000 197.380000
v 2.484000 21.188000 196.570000
v 2.484000 20.891000 198.190000
v 2.484000 21.188000 204.670000
v 2.484000 21.188000 193.330000
v 2.484000 21.188000 194.140000
v 2.484000 21.485000 193.330000
v 2.484000 21.188000 194.950000
v 2.484000 21.188000 195.760000
v 2.484000 21.485000 204.670000
v 2.484000 21.782000 193.330000
v 2.484000 21.782000 204.670000
v 2.484000 22.079000 194.140000
v 2.484000 22.079000 193.330000
v 2.484000 22.079000 194.950000
v 2.484000 22.079000 195.760000
v 2.484000 22.079000 196.570000
v 2.484000 22.079000 197.380000
v 2.484000 22.079000 198.190000
v 2.484000 22.079000 199.000000
v 2.484000 22.079000 199.810000
v 2.484000 22.079000 200.620000
v 2.484000 22.079000 201.430000
v 2.484000 22.079000 202.240000
v 2.484000 22.079000 203.050000
v 2.484000 22.079000 203.860000
v 2.484000 22.079000 204.670000
v 3.726000 17.921000 195.760000
v 3.726000 17.921000 196.570000
v 3.726000 18.218000 196.570000
v 3.726000 18.218000 195.760000
v 3.726000 17.921000 197.380000
v 3.726000 18.218000 197.380000
v 3.726000 17.921000 198.190000
v 3.726000 18.218000 198.190000
v 3.726000 17.921000 199.000000
v 3.726000 17.921000 199.810000
v 3.726000 17.921000 200.620000
v 3.726000 17.921000 201.430000
v 3.726000 17.921000 202.240000
v 3.726000 17.921000 203.050000
v 3.726000 17.921000 203.860000
v 3.726000 17.921000 204.670000
v 3.726000 18.218000 204.670000
v 3.726000 18.515000 199.000000
v 3.726000 18.515000 198.190000
v 3.726000 18.515000 199.810000
v 3.726000 18.515000 200.620000
v 3.726000 18.515000 204.670000
v 3.726000 18.812000 201.430000
v 3.726000 18.812000 200.620000
v 3.726000 18.812000 202.240000
v 3.726000 18.812000 204.670000
v 3.726000 19.109000 203.050000
v 3.726000 19.109000 202.240000
v 3.726000 19.109000 203.860000
v 3.726000 19.109000 204.670000
v 3.726000 19.406000 203.860000
v 3.726000 19.406000 204.670000
v 3.726000 19.703000 203.860000
v 3.726000 19.703000 204.670000
v 3.726000 20.000000 203.860000
v 3.726000 20.000000 204.670000
v 3.726000 20.000000 203.050000
v 3.726000 20.297000 203.050000
v 3.726000 20.297000 204.670000
v 3.726000 20.297000 201.430000
v 3.726000 20.297000 202.240000
v 3.726000 20.594000 201.430000
v 3.726000 20.594000 204.670000
v 3.726000 20.594000 199.000000
v 3.726000 20.594000 199.810000
v 3.726000 20.891000 199.000000
v 3.726000 20.594000 200.620000
v 3.726000 20.891000 204.670000
v 3.726000 20.891000 196.570000
v 3.726000 20.891000 197.380000
v 3.726000 21.188000 196.570000
v 3.726000 20.891000 198.190000
v 3.726000 21.188000 204.670000
v 3.726000 21.188000 193.330000
v 3.726000 21.188000 194.140000
v 3.726000 21.485000 193.330000
v 3.726000 21.188000 194.950000
v 3.726000 21.188000 195.760000
v 3.726000 21.485000 204.670000
v 3.726000 21.782000 193.330000
v 3.726000 21.782000 204.670000
v 3.726000 22.079000 194.140000
v 3.726000 22.079000 193.330000
v 3.726000 22.079000 194.950000
v 3.726000 22.079000 195.760000
v 3.726000 22.079000 196.570000
v 3.726000 22.079000 197.380000
v 3.726000 22.079000 198.190000
v 3.726000 22.079000 199.000000
v 3.726000 22.079000 199.810000
v 3.726000 22.079000 200.620000
v 3.726000 22.079000 201.430000
v 3.726000 22.079000 202.240000
v 3.726000 22.079000 203.050000
v 3.726000 22.079000 203.860000
v 3.726000 22.079000 204.670000
v 4.968000 17.921000 195.760000
v 4.968000 17.921000 196.570000
v 4.968000 18.218000 196.570000
v 4.968000 18.218000 195.760000
v 4.968000 17.921000 197.380000
v 4.968000 18.218000 197.380000
v 4.968000 17.921000 198.190000
v 4.968000 18.218000 198.190000
v 4.968000 17.921000 199.000000
v 4.968000 17.921000 199.810000
v 4.968000 17.921000 200.620000
v 4.968000 17.921000 201.430000
v 4.968000 17.921000 202.240000
v 4.968000 17.921000 203.050000
v 4.968000 17.921000 203.860000
v 4.968000 17.921000 204.670000
v 4.968000 18.218000 204.670000
v 4.968000 18.515000 199.000000
v 4.968000 18.515000 198.190000
v 4.968000 18.515000 199.810000
v 4.968000 18.515000 200.620000
v 4.968000 18.515000 204.670000
v 4.968000 18.812000 201.430000
v 4.968000 18.812000 200.620000
v 4.968000 18.812000 202.240000
v 4.968000 18.812000 204.670000
v 4.968000 19.109000 203.050000
v 4.968000 19.109000 202.240000
v 4.968000 19.109000 203.860000
v 4.968000 19.109000 204.670000
v 4.968000 19.406000 203.860000
v 4.968000 19.406000 204.670000
v 4.968000 19.703000 203.860000
v 4.968000 19.703000 204.670000
v 4.968000 20.000000 203.860000
v 4.968000 20.000000 204.670000
v 4.968000 20.000000 203.050000
v 4.968000 20.297000 203.050000
v 4.968000 20.297000 204.670000
v 4.968000 20.297000 201.430000
v 4.968000 20.297000 202.240000
v 4.968000 20.594000 201.430000
v 4.968000 20.594000 204.670000
v 4.968000 20.594000 199.000000
v 4.968000 20.594000 199.810000
v 4.968000 20.891000 199.000000
v 4.968000 20.594000 200.620000
v 4.968000 20.891000 204.670000
v 4.968000 20.891000 196.570000
v 4.968000 20.891000 197.380000
v 4.968000 21.188000 196.570000
v 4.968000 20.891000 198.190000
v 4.968000 21.188000 204.670000
v 4.968000 21.188000 193.330000
v 4.968000 21.188000 194.140000
v 4.968000 21.485000 193.330000
v 4.968000 21.188000 194.950000
v 4.968000 21.188000 195.760000
v 4.968000 21.485000 204.670000
v 4.968000 21.782000 193.330000
v 4.968000 21.782000 204.670000
v 4.968000 22.079000 194.140000
v 4.968000 22.079000 193.330000
v 4.968000 22.079000 194.950000
v 4.968000 22.079000 195.760000
v 4.968000 22.079000 196.570000
v 4.968000 22.079000 197.380000
v 4.968000 22.079000 198.190000
v 4.968000 22.079000 199.000000
v 4.968000 22.079000 199.810000
v 4.968000 22.079000 200.620000
v 4.968000 22.079000 201.430000
v 4.968000 22.079000 202.240000
v 4.968000 22.079000 203.050000
v 4.968000 22.079000 203.860000
v 4.968000 22.079000 204.670000
v 6.210000 17.921000 195.760000
v 6.210000 17.921000 196.570000
v 6.210000 18.218000 196.570000
v 6.210000 18.218000 195.760000
v 6.210000 17.921000 197.380000
v 6.210000 18.218000 197.380000
v 6.210000 17.921000 198.190000
v 6.210000 18.218000 198.190000
v 6.210000 17.921000 199.000000
v 6.210000 17.921000 199.810000
v 6.210000 17.921000 200.620000
v 6.210000 17.921000 201.430000
v 6.210000 17.921000 202.240000
v 6.210000 17.921000 203.050000
v 6.210000 17.921000 203.860000
v 6.210000 17.921000 204.670000
v 6.210000 18.218000 204.670000
v 6.210000 18.515000 199.000000
v 6.210000 18.515000 198.190000
v 6.210000 18.515000 199.810000
v 6.210000 18.515000 200.620000
v 6.210000 18.515000 204.670000
v 6.210000 18.812000 201.430000
v 6.210000 18.812000 200.620000
v 6.210000 18.812000 202.240000
v 6.210000 18.812000 204.670000
v 6.210000 19.109000 203.050000
v 6.210000 19.109000 202.240000
v 6.210000 19.109000 203.860000
v 6.210000 19.109000 204.670000
v 6.210000 19.406000 203.860000
v 6.210000 19.406000 204.670000
v 6.210000 19.703000 203.860000
v 6.210000 19.703000 204.670000
v 6.210000 20.000000 203.860000
v 6.210000 20.000000 204.670000
v 6.210000 20.000000 203.050000
v 6.210000 20.297000 203.050000
v 6.210000 20.297000 204.670000
v 6.210000 20.297000 201.430000
v 6.210000 20.297000 202.240000
v 6.210000 20.594000 201.430000
v 6.210000 20.594000 204.670000
v 6.210000 20.594000 199.000000
v 6.210000 20.594000 199.810000
v 6.210000 20.891000 199.000000
v 6.210000 20.594000 200.620000
v 6.210000 20.891000 204.670000
v 6.210000 20.891000 196.570000
v 6.210000 20.891000 197.380000
v 6.210000 21.188000 196.570000
v 6.210000 20.891000 198.190000
v 6.210000 21.188000 204.670000
v 6.210000 21.188000 193.330000
v 6.210000 21.188000 194.140000
v 6.210000 21.485000 193.330000
v 6.210000 21.188000 194.950000
v 6.210000 21.188000 195.760000
v 6.210000 21.485000 204.670000
v 6.210000 21.782000 193.330000
v 6.210000 21.782000 204.670000
v 6.210000 22.079000 194.140000
v 6.210000 22.079000 193.330000
v 6.210000 22.079000 194.950000
v 6.210000 22.079000 195.760000
v 6.210000 22.079000 196.570000
v 6.210000 22.079000 197.380000
v 6.210000 22.079000 198.190000
v 6.210000 22.079000 199.000000
v 6.210000 22.079000 199.810000
v 6.210000 22.079000 200.620000
v 6.210000 22.079000 201.430000
v 6.210000 22.079000 202.240000
v 6.210000 22.079000 203.050000
v 6.210000 22.079000 203.860000
v 6.210000 22.079000 204.670000
v 7.452000 17.921000 195.760000
v 7.452000 17.921000 196.570000
v 7.452000 18.218000 196.570000
v 7.452000 18.218000 195.760000
v 7.452000 17.921000 197.380000
v 7.452000 18.218000 197.380000
v 7.452000 17.921000 198.190000
v 7.452000 18.218000 198.190000
v 7.452000 17.921000 199.000000
v 7.452000 17.921000 199.810000
v 7.452000 17.921000 200.620000
v 7.452000 17.921000 201.430000
v 7.452000 17.921000 202.240000
v 7.452000 17.921000 203.050000
v 7.452000 17.921000 203.860000
v 7.452000 17.921000 204.670000
v 7.452000 18.218000 204.670000
v 7.452000 18.515000 199.000000
v 7.452000 18.515000 198.190000
v 7.452000 18.515000 199.810000
v 7.452000 18.515000 200.620000
v 7.452000 18.515000 204.670000
v 7.452000 18.812000 201.430000
v 7.452000 18.812000 200.620000
v 7.452000 18.812000 202.240000
v 7.452000 18.812000 204.670000
v 7.452000 19.109000 203.050000
v 7.452000 19.109000 202.240000
v 7.452000 19.109000 203.860000
v 7.452000 19.109000 204.670000
v 7.452000 19.406000 203.860000
v 7.452000 19.406000 204.670000
v 7.452000 19.703000 203.860000
v 7.452000 19.703000 204.670000
v 7.452000 20.000000 203.860000
v 7.452000 20.000000 204.670000
v 7.452000 20.000000 203.050000
v 7.452000 20.297000 203.050000
v 7.452000 20.297000 204.670000
v 7.452000 20.297000 201.430000
v 7.452000 20.297000 202.240000
v 7.452000 20.594000 201.430000
v 7.452000 20.594000 204.670000
v 7.452000 20.594000 199.000000
v 7.452000 20.594000 199.810000
v 7.452000 20.891000 199.000000
v 7.452000 20.594000 200.620000
v 7.452000 20.891000 204.670000
v 7.452000 20.891000 196.570000
v 7.452000 20.891000 197.380000
v 7.452000 21.188000 196.570000
v 7.452000 20.891000 198.190000
v 7.452000 21.188000 204.670000
v 7.452000 21.188000 193.330000
v 7.452000 21.188000 194.140000
v 7.452000 21.485000 193.330000
v 7.452000 21.188000 194.950000
v 7.452000 21.188000 195.760000
v 7.452000 21.485000 204.670000
v 7.452000 21.782000 193.330000
v 7.452000 21.782000 204.670000
v 7.452000 22.079000 194.140000
v 7.452000 22.079000 193.330000
v 7.452000 22.079000 194.950000
v 7.452000 22.079000 195.760000
v 7.452000 22.079000 196.570000
v 7.452000 22.079000 197.380000
v 7.452000 22.079000 198.190000
v 7.452000 22.079000 199.000000
v 7.452000 22.079000 199.810000
v 7.452000 22.079000 200.620000
v 7.452000 22.079000 201.430000
v 7.452000 22.079000 202.240000
v 7.452000 22.079000 203.050000
v 7.452000 22.079000 203.860000
v 7.452000 22.079000 204.670000
v 8.694000 17.921000 195.760000
v 8.694000 17.921000 196.570000
v 8.694000 18.218000 196.570000
v 8.694000 18.218000 195.760000
v 8.694000 17.921000 197.380000
v 8.694000 18.218000 197.380000
v 8.694000 17.921000 198.190000
v 8.694000 18.218000 198.190000
v 8.694000 17.921000 199.000000
v 8.694000 18.218000 199.000000
v 8.694000 17.921000 199.810000
v 8.694000 18.218000 199.810000
v 8.694000 17.921000 200.620000
v 8.694000 18.218000 200.620000
v 8.694000 17.921000 201.430000
v 8.694000 18.218000 201.430000
v 8.694000 17.921000 202.240000
v 8.694000 18.218000 202.240000
v 8.694000 17.921000 203.050000
v 8.694000 18.218000 203.050000
v 8.694000 17.921000 203.860000
v 8.694000 18.218000 203.860000
v 8.694000 17.921000 204.670000
v 8.694000 18.218000 204.670000
v 8.694000 18.515000 199.000000
v 8.694000 18.515000 198.190000
v 8.694000 18.515000 199.810000
v 8.694000 18.515000 200.620000
v 8.694000 18.515000 201.430000
v 8.694000 18.515000 202.240000
v 8.694000 18.515000 203.050000
v 8.694000 18.515000 203.860000
v 8.694000 18.515000 204.670000
v 8.694000 18.812000 201.430000
v 8.694000 18.812000 200.620000
v 8.694000 18.812000 202.240000
v 8.694000 18.812000 203.050000
v 8.694000 18.812000 203.860000
v 8.694000 18.812000 204.670000
v 8.694000 19.109000 203.050000
v 8.694000 19.109000 202.240000
v 8.694000 19.109000 203.860000
v 8.694000 19.109000 204.670000
v 8.694000 19.406000 204.670000
v 8.694000 19.406000 203.860000
v 8.694000 19.703000 204.670000
v 8.694000 19.703000 203.860000
v 8.694000 20.000000 204.670000
v 8.694000 20.000000 203.860000
v 8.694000 20.000000 203.050000
v 8.694000 20.297000 203.860000
v 8.694000 20.297000 203.050000
v 8.694000 20.297000 204.670000
v 8.694000 20.297000 201.430000
v 8.694000 20.297000 202.240000
v 8.694000 20.594000 202.240000
v 8.694000 20.594000 201.430000
v 8.694000 20.594000 203.050000
v 8.694000 20.594000 203.860000
v 8.694000 20.594000 204.670000
v 8.694000 20.594000 199.000000
v 8.694000 20.594000 199.810000
v 8.694000 20.891000 199.810000
v 8.694000 20.891000 199.000000
v 8.694000 20.594000 200.620000
v 8.694000 20.891000 200.620000
v 8.694000 20.891000 201.430000
v 8.694000 20.891000 202.240000
v 8.694000 20.891000 203.050000
v 8.694000 20.891000 203.860000
v 8.694000 20.891000 204.670000
v 8.694000 20.891000 196.570000
v 8.694000 20.891000 197.380000
v 8.694000 21.188000 197.380000
v 8.694000 21.188000 196.570000
v 8.694000 20.891000 198.190000
v 8.694000 21.188000 198.190000
v 8.694000 21.188000 199.000000
v 8.694000 21.188000 199.810000
v 8.694000 21.188000 200.620000
v 8.694000 21.188000 201.430000
v 8.694000 21.188000 202.240000
v 8.694000 21.188000 203.050000
v 8.694000 21.188000 203.860000
v 8.694000 21.188000 204.670000
v 8.694000 21.188000 193.330000
v 8.694000 21.188000 194.140000
v 8.694000 21.485000 194.140000
v 8.694000 21.485000 193.330000
v 8.694000 21.188000 194.950000
v 8.694000 21.485000 194.950000
v 8.694000 21.188000 195.760000
v 8.694000 21.485000 195.760000
v 8.694000 21.485000 196.570000
v 8.694000 21.485000 197.380000
v 8.694000 21.485000 198.190000
v 8.694000 21.485000 199.000000
v 8.694000 21.485000 199.810000
v 8.694000 21.485000 200.620000
v 8.694000 21.485000 201.430000
v 8.694000 21.485000 202.240000
v 8.694000 21.485000 203.050000
v 8.694000 21.485000 203.860000
v 8.694000 21.485000 204.670000
v 8.694000 21.782000 194.140000
v 8.694000 21.782000 193.330000
v 8.694000 21.782000 194.950000
v 8.694000 21.782000 195.760000
v 8.694000 21.782000 196.570000
v 8.694000 21.782000 197.380000
v 8.694000 21.782000 198.190000
v 8.694000 21.782000 199.000000
v 8.694000 21.782000 199.810000
v 8.694000 21.782000 200.620000
v 8.694000 21.782000 201.430000
v 8.694000 21.782000 202.240000
v 8.694000 21.782000 203.050000
v 8.694000 21.782000 203.860000
v 8.694000 21.782000 204.670000
v 8.694000 22.079000 194.140000
v 8.694000 22.079000 193.330000
v 8.694000 22.079000 194.950000
v 8.694000 22.079000 195.760000
v 8.694000 22.079000 196.570000
v 8.694000 22.079000 197.380000
v 8.694000 22.079000 198.190000
v 8.694000 22.079000 199.000000
v 8.694000 22.079000 199.810000
v 8.694000 22.079000 200.620000
v 8.694000 22.079000 201.430000
v 8.694000 22.079000 202.240000
v 8.694000 22.079000 203.050000
v 8.694000 22.079000 203.860000
v 8.694000 22.079000 204.670000
f 1 2 3
f 1 3 4
f 1 5 6
f 1 6 4
f 2 3 7
f 2 7 8
f 1 2 8
f 1 8 5
f 4 3 9
f 4 9 10
f 4 6 11
f 4 11 10
f 3 9 12
f 3 12 7
f 10 9 13
f 10 13 14
f 10 11 15
f 10 15 14
f 9 13 16
f 9 16 12
f 14 13 17
f 14 17 18
f 14 15 19
f 14 19 18
f 18 17 20
f 18 20 21
f 18 19 22
f 18 22 21
f 21 20 23
f 21 23 24
f 21 22 25
f 21 25 24
f 24 23 26
f 24 26 27
f 24 25 28
f 24 28 27
f 27 26 29
f 27 29 30
f 27 28 31
f 27 31 30
f 30 29 32
f 30 32 33
f 30 31 34
f 30 34 33
f 33 32 35
f 33 35 36
f 33 34 37
f 33 37 36
f 36 35 38
f 36 38 39
f 36 37 40
f 36 40 39
f 39 40 41
f 39 41 38
f 13 42 43
f 13 43 17
f 42 43 44
f 42 44 45
f 13 42 45
f 13 45 16
f 17 43 46
f 17 46 20
f 43 46 47
f 43 47 44
f 20 46 48
f 20 48 23
f 46 48 49
f 46 49 47
f 23 48 50
f 23 50 26
f 26 50 51
f 26 51 29
f 29 51 52
f 29 52 32
f 32 52 53
f 32 53 35
f 35 53 54
f 35 54 38
f 38 41 55
f 38 55 54
f 48 56 57
f 48 57 50
f 56 57 58
f 56 58 59
f 48 56 59
f 48 59 49
f 50 57 60
f 50 60 51
f 57 60 61
f 57 61 58
f 51 60 62
f 51 62 52
f 52 62 63
f 52 63 53
f 53 63 64
f 53 64 54
f 54 55 65
f 54 65 64
f 60 66 67
f 60 67 62
f 66 67 68
f 66 68 69
f 60 66 69
f 60 69 61
f 62 67 70
f 62 70 63
f 67 70 71
f 67 71 68
f 63 70 72
f 63 72 64
f 64 65 73
f 64 73 72
f 70 74 75
f 70 75 72
f 70 74 76
f 70 76 71
f 72 73 77
f 72 77 75
f 74 78 79
f 74 79 75
f 74 78 80
f 74 80 76
f 75 77 81
f 75 81 79
f 78 82 83
f 78 83 79
f 78 82 84
f 78 84 80
f 79 81 85
f 79 85 83
f 86 87 88
f 86 88 82
f 86 89 84
f 86 84 82
f 86 87 90
f 86 90 89
f 82 88 91
f 82 91 83
f 83 85 92
f 83 92 91
f 93 94 95
f 93 95 96
f 93 97 98
f 93 98 96
f 93 94 99
f 93 99 97
f 96 95 100
f 96 100 87
f 96 98 90
f 96 90 87
f 87 100 101
f 87 101 88
f 88 101 102
f 88 102 91
f 91 92 103
f 91 103 102
f 104 105 106
f 104 106 107
f 104 108 109
f 104 109 107
f 104 105 110
f 104 110 108
f 107 106 111
f 107 111 112
f 107 109 113
f 107 113 112
f 112 111 114
f 112 114 94
f 112 113 99
f 112 99 94
f 94 114 115
f 94 115 95
f 95 115 116
f 95 116 100
f 100 116 117
f 100 117 101
f 101 117 118
f 101 118 102
f 102 103 119
f 102 119 118
f 120 121 122
f 120 122 123
f 120 124 125
f 120 125 123
f 120 121 126
f 120 126 124
f 123 122 127
f 123 127 128
f 123 125 129
f 123 129 128
f 128 127 130
f 128 130 105
f 128 129 110
f 128 110 105
f 105 130 131
f 105 131 106
f 106 131 132
f 106 132 111
f 111 132 133
f 111 133 114
f 114 133 134
f 114 134 115
f 115 134 135
f 115 135 116
f 116 135 136
f 116 136 117
f 117 136 137
f 117 137 118
f 118 119 138
f 118 138 137
f 139 140 141
f 139 141 142
f 139 143 144
f 139 144 142
f 139 140 145
f 139 145 143
f 142 141 146
f 142 146 147
f 142 144 148
f 142 148 147
f 147 146 149
f 147 149 150
f 147 148 151
f 147 151 150
f 150 149 152
f 150 152 121
f 150 151 126
f 150 126 121
f 121 152 153
f 121 153 122
f 122 153 154
f 122 154 127
f 127 154 155
f 127 155 130
f 130 155 156
f 130 156 131
f 131 156 157
f 131 157 132
f 132 157 158
f 132 158 133
f 133 158 159
f 133 159 134
f 134 159 160
f 134 160 135
f 135 160 161
f 135 161 136
f 136 161 162
f 136 162 137
f 137 138 163
f 137 163 162
f 140 164 165
f 140 165 141
f 140 164 166
f 140 166 145
f 141 165 167
f 141 167 146
f 146 167 168
f 146 168 149
f 149 168 169
f 149 169 152
f 152 169 170
f 152 170 153
f 153 170 171
f 153 171 154
f 154 171 172
f 154 172 155
f 155 172 173
f 155 173 156
f 156 173 174
f 156 174 157
f 157 174 175
f 157 175 158
f 158 175 176
f 158 176 159
f 159 176 177
f 159 177 160
f 160 177 178
f 160 178 161
f 161 178 179
f 161 179 162
f 162 163 180
f 162 180 179
f 164 181 182
f 164 182 165
f 181 182 183
f 181 183 184
f 164 181 184
f 164 184 166
f 165 182 185
f 165 185 167
f 182 185 186
f 182 186 183
f 167 185 187
f 167 187 168
f 185 187 188
f 185 188 186
f 168 187 189
f 168 189 169
f 187 189 190
f 187 190 188
f 169 189 191
f 169 191 170
f 189 191 192
f 189 192 190
f 170 191 193
f 170 193 171
f 191 193 194
f 191 194 192
f 171 193 195
f 171 195 172
f 193 195 196
f 193 196 194
f 172 195 197
f 172 197 173
f 195 197 198
f 195 198 196
f 173 197 199
f 173 199 174
f 197 199 200
f 197 200 198
f 174 199 201
f 174 201 175
f 199 201 202
f 199 202 200
f 175 201 203
f 175 203 176
f 201 203 204
f 201 204 202
f 176 203 205
f 176 205 177
f 203 205 206
f 203 206 204
f 177 205 207
f 177 207 178
f 205 207 208
f 205 208 206
f 178 207 209
f 178 209 179
f 207 209 210
f 207 210 208
f 179 180 210
f 179 210 209
f 5 211 212
f 5 212 6
f 8 7 213
f 8 213 214
f 5 8 214
f 5 214 211
f 6 212 215
f 6 215 11
f 7 12 216
f 7 216 213
f 11 215 217
f 11 217 15
f 12 16 218
f 12 218 216
f 15 217 219
f 15 219 19
f 19 219 220
f 19 220 22
f 22 220 221
f 22 221 25
f 25 221 222
f 25 222 28
f 28 222 223
f 28 223 31
f 31 223 224
f 31 224 34
f 34 224 225
f 34 225 37
f 37 225 226
f 37 226 40
f 40 226 227
f 40 227 41
f 45 44 228
f 45 228 229
f 16 45 229
f 16 229 218
f 44 47 230
f 44 230 228
f 47 49 231
f 47 231 230
f 41 227 232
f 41 232 55
f 59 58 233
f 59 233 234
f 49 59 234
f 49 234 231
f 58 61 235
f 58 235 233
f 55 232 236
f 55 236 65
f 69 68 237
f 69 237 238
f 61 69 238
f 61 238 235
f 68 71 239
f 68 239 237
f 65 236 240
f 65 240 73
f 71 76 241
f 71 241 239
f 73 240 242
f 73 242 77
f 76 80 243
f 76 243 241
f 77 242 244
f 77 244 81
f 80 84 245
f 80 245 243
f 81 244 246
f 81 246 85
f 89 247 245
f 89 245 84
f 89 90 248
f 89 248 247
f 85 246 249
f 85 249 92
f 97 250 251
f 97 251 98
f 97 99 252
f 97 252 250
f 98 251 248
f 98 248 90
f 92 249 253
f 92 253 103
f 108 254 255
f 108 255 109
f 108 110 256
f 108 256 254
f 109 255 257
f 109 257 113
f 113 257 252
f 113 252 99
f 103 253 258
f 103 258 119
f 124 259 260
f 124 260 125
f 124 126 261
f 124 261 259
f 125 260 262
f 125 262 129
f 129 262 256
f 129 256 110
f 119 258 263
f 119 263 138
f 143 264 265
f 143 265 144
f 143 145 266
f 143 266 264
f 144 265 267
f 144 267 148
f 148 267 268
f 148 268 151
f 151 268 261
f 151 261 126
f 138 263 269
f 138 269 163
f 145 166 270
f 145 270 266
f 163 269 271
f 163 271 180
f 184 183 272
f 184 272 273
f 166 184 273
f 166 273 270
f 183 186 274
f 183 274 272
f 186 188 275
f 186 275 274
f 188 190 276
f 188 276 275
f 190 192 277
f 190 277 276
f 192 194 278
f 192 278 277
f 194 196 279
f 194 279 278
f 196 198 280
f 196 280 279
f 198 200 281
f 198 281 280
f 200 202 282
f 200 282 281
f 202 204 283
f 202 283 282
f 204 206 284
f 204 284 283
f 206 208 285
f 206 285 284
f 208 210 286
f 208 286 285
f 180 271 286
f 180 286 210
f 211 287 288
f 211 288 212
f 214 213 289
f 214 289 290
f 211 214 290
f 211 290 287
f 212 288 291
f 212 291 215
f 213 216 292
f 213 292 289
f 215 291 293
f 215 293 217
f 216 218 294
f 216 294 292
f 217 293 295
f 217 295 219
f 219 295 296
f 219 296 220
f 220 296 297
f 220 297 221
f 221 297 298
f 221 298 222
f 222 298 299
f 222 299 223
f 223 299 300
f 223 300 224
f 224 300 301
f 224 301 225
f 225 301 302
f 225 302 226
f 226 302 303
f 226 303 227
f 229 228 304
f 229 304 305
f 218 229 305
f 218 305 294
f 228 230 306
f 228 306 304
f 230 231 307
f 230 307 306
f 227 303 308
f 227 308 232
f 234 233 309
f 234 309 310
f 231 234 310
f 231 310 307
f 233 235 311
f 233 311 309
f 232 308 312
f 232 312 236
f 238 237 313
f 238 313 314
f 235 238 314
f 235 314 311
f 237 239 315
f 237 315 313
f 236 312 316
f 236 316 240
f 239 241 317
f 239 317 315
f 240 316 318
f 240 318 242
f 241 243 319
f 241 319 317
f 242 318 320
f 242 320 244
f 243 245 321
f 243 321 319
f 244 320 322
f 244 322 246
f 247 323 321
f 247 321 245
f 247 248 324
f 247 324 323
f 246 322 325
f 246 325 249
f 250 326 327
f 250 327 251
f 250 252 328
f 250 328 326
f 251 327 324
f 251 324 248
f 249 325 329
f 249 329 253
f 254 330 331
f 254 331 255
f 254 256 332
f 254 332 330
f 255 331 333
f 255 333 257
f 257 333 328
f 257 328 252
f 253 329 334
f 253 334 258
f 259 335 336
f 259 336 260
f 259 261 337
f 259 337 335
f 260 336 338
f 260 338 262
f 262 338 332
f 262 332 256
f 258 334 339
f 258 339 263
f 264 340 341
f 264 341 265
f 264 266 342
f 264 342 340
f 265 341 343
f 265 343 267
f 267 343 344
f 267 344 268
f 268 344 337
f 268 337 261
f 263 339 345
f 263 345 269
f 266 270 346
f 266 346 342
f 269 345 347
f 269 347 271
f 273 272 348
f 273 348 349
f 270 273 349
f 270 349 346
f 272 274 350
f 272 350 348
f 274 275 351
f 274 351 350
f 275 276 352
f 275 352 351
f 276 277 353
f 276 353 352
f 277 278 354
f 277 354 353
f 278 279 355
f 278 355 354
f 279 280 356
f 279 356 355
f 280 281 357
f 280 357 356
f 281 282 358
f 281 358 357
f 282 283 359
f 282 359 358
f 283 284 360
f 283 360 359
f 284 285 361
f 284 361 360
f 285 286 362
f 285 362 361
f 271 347 362
f 271 362 286
f 287 363 364
f 287 364 288
f 290 289 365
f 290 365 366
f 287 290 366
f 287 366 363
f 288 364 367
f 288 367 291
f 289 292 368
f 289 368 365
f 291 367 369
f 291 369 293
f 292 294 370
f 292 370 368
f 293 369 371
f 293 371 295
f 295 371 372
f 295 372 296
f 296 372 373
f 296 373 297
f 297 373 374
f 297 374 298
f 298 374 375
f 298 375 299
f 299 375 376
f 299 376 300
f 300 376 377
f 300 377 301
f 301 377 378
f 301 378 302
f 302 378 379
f 302 379 303
f 305 304 380
f 305 380 381
f 294 305 381
f 294 381 370
f 304 306 382
f 304 382 380
f 306 307 383
f 306 383 382
f 303 379 384
f 303 384 308
f 310 309 385
f 310 385 386
f 307 310 386
f 307 386 383
f 309 311 387
f 309 387 385
f 308 384 388
f 308 388 312
f 314 313 389
f 314 389 390
f 311 314 390
f 311 390 387
f 313 315 391
f 313 391 389
f 312 388 392
f 312 392 316
f 315 317 393
f 315 393 391
f 316 392 394
f 316 394 318
f 317 319 395
f 317 395 393
f 318 394 396
f 318 396 320
f 319 321 397
f 319 397 395
f 320 396 398
f 320 398 322
f 323 399 397
f 323 397 321
f 323 324 400
f 323 400 399
f 322 398 401
f 322 401 325
f 326 402 403
f 326 403 327
f 326 328 404
f 326 404 402
f 327 403 400
f 327 400 324
f 325 401 405
f 325 405 329
f 330 406 407
f 330 407 331
f 330 332 408
f 330 408 406
f 331 407 409
f 331 409 333
f 333 409 404
f 333 404 328
f 329 405 410
f 329 410 334
f 335 411 412
f 335 412 336
f 335 337 413
f 335 413 411
f 336 412 414
f 336 414 338
f 338 414 408
f 338 408 332
f 334 410 415
f 334 415 339
f 340 416 417
f 340 417 341
f 340 342 418
f 340 418 416
f 341 417 419
f 341 419 343
f 343 419 420
f 343 420 344
f 344 420 413
f 344 413 337
f 339 415 421
f 339 421 345
f 342 346 422
f 342 422 418
f 345 421 423
f 345 423 347
f 349 348 424
f 349 424 425
f 346 349 425
f 346 425 422
f 348 350 426
f 348 426 424
f 350 351 427
f 350 427 426
f 351 352 428
f 351 428 427
f 352 353 429
f 352 429 428
f 353 354 430
f 353 430 429
f 354 355 431
f 354 431 430
f 355 356 432
f 355 432 431
f 356 357 433
f 356 433 432
f 357 358 434
f 357 434 433
f 358 359 435
f 358 435 434
f 359 360 436
f 359 436 435
f 360 361 437
f 360 437 436
f 361 362 438
f 361 438 437
f 347 423 438
f 347 438 362
f 363 439 440
f 363 440 364
f 366 365 441
f 366 441 442
f 363 366 442
f 363 442 439
f 364 440 443
f 364 443 367
f 365 368 444
f 365 444 441
f 367 443 445
f 367 445 369
f 368 370 446
f 368 446 444
f 369 445 447
f 369 447 371
f 371 447 448
f 371 448 372
f 372 448 449
f 372 449 373
f 373 449 450
f 373 450 374
f 374 450 451
f 374 451 375
f 375 451 452
f 375 452 376
f 376 452 453
f 376 453 377
f 377 453 454
f 377 454 378
f 378 454 455
f 378 455 379
f 381 380 456
f 381 456 457
f 370 381 457
f 370 457 446
f 380 382 458
f 380 458 456
f 382 383 459
f 382 459 458
f 379 455 460
f 379 460 384
f 386 385 461
f 386 461 462
f 383 386 462
f 383 462 459
f 385 387 463
f 385 463 461
f 384 460 464
f 384 464 388
f 390 389 465
f 390 465 466
f 387 390 466
f 387 466 463
f 389 391 467
f 389 467 465
f 388 464 468
f 388 468 392
f 391 393 469
f 391 469 467
f 392 468 470
f 392 470 394
f 393 395 471
f 393 471 469
f 394 470 472
f 394 472 396
f 395 397 473
f 395 473 471
f 396 472 474
f 396 474 398
f 399 475 473
f 399 473 397
f 399 400 476
f 399 476 475
f 398 474 477
f 398 477 401
f 402 478 479
f 402 479 403
f 402 404 480
f 402 480 478
f 403 479 476
f 403 476 400
f 401 477 481
f 401 481 405
f 406 482 483
f 406 483 407
f 406 408 484
f 406 484 482
f 407 483 485
f 407 485 409
f 409 485 480
f 409 480 404
f 405 481 486
f 405 486 410
f 411 487 488
f 411 488 412
f 411 413 489
f 411 489 487
f 412 488 490
f 412 490 414
f 414 490 484
f 414 484 408
f 410 486 491
f 410 491 415
f 416 492 493
f 416 493 417
f 416 418 494
f 416 494 492
f 417 493 495
f 417 495 419
f 419 495 496
f 419 496 420
f 420 496 489
f 420 489 413
f 415 491 497
f 415 497 421
f 418 422 498
f 418 498 494
f 421 497 499
f 421 499 423
f 425 424 500
f 425 500 501
f 422 425 501
f 422 501 498
f 424 426 502
f 424 502 500
f 426 427 503
f 426 503 502
f 427 428 504
f 427 504 503
f 428 429 505
f 428 505 504
f 429 430 506
f 429 506 505
f 430 431 507
f 430 507 506
f 431 432 508
f 431 508 507
f 432 433 509
f 432 509 508
f 433 434 510
f 433 510 509
f 434 435 511
f 434 511 510
f 435 436 512
f 435 512 511
f 436 437 513
f 436 513 512
f 437 438 514
f 437 514 513
f 423 499 514
f 423 514 438
f 439 515 516
f 439 516 440
f 442 441 517
f 442 517 518
f 439 442 518
f 439 518 515
f 440 516 519
f 440 519 443
f 441 444 520
f 441 520 517
f 443 519 521
f 443 521 445
f 444 446 522
f 444 522 520
f 445 521 523
f 445 523 447
f 447 523 524
f 447 524 448
f 448 524 525
f 448 525 449
f 449 525 526
f 449 526 450
f 450 526 527
f 450 527 451
f 451 527 528
f 451 528 452
f 452 528 529
f 452 529 453
f 453 529 530
f 453 530 454
f 454 530 531
f 454 531 455
f 457 456 532
f 457 532 533
f 446 457 533
f 446 533 522
f 456 458 534
f 456 534 532
f 458 459 535
f 458 535 534
f 455 531 536
f 455 536 460
f 462 461 537
f 462 537 538
f 459 462 538
f 459 538 535
f 461 463 539
f 461 539 537
f 460 536 540
f 460 540 464
f 466 465 541
f 466 541 542
f 463 466 542
f 463 542 539
f 465 467 543
f 465 543 541
f 464 540 544
f 464 544 468
f 467 469 545
f 467 545 543
f 468 544 546
f 468 546 470
f 469 471 547
f 469 547 545
f 470 546 548
f 470 548 472
f 471 473 549
f 471 549 547
f 472 548 550
f 472 550 474
f 475 551 549
f 475 549 473
f 475 476 552
f 475 552 551
f 474 550 553
f 474 553 477
f 478 554 555
f 478 555 479
f 478 480 556
f 478 556 554
f 479 555 552
f 479 552 476
f 477 553 557
f 477 557 481
f 482 558 559
f 482 559 483
f 482 484 560
f 482 560 558
f 483 559 561
f 483 561 485
f 485 561 556
f 485 556 480
f 481 557 562
f 481 562 486
f 487 563 564
f 487 564 488
f 487 489 565
f 487 565 563
f 488 564 566
f 488 566 490
f 490 566 560
f 490 560 484
f 486 562 567
f 486 567 491
f 492 568 569
f 492 569 493
f 492 494 570
f 492 570 568
f 493 569 571
f 493 571 495
f 495 571 572
f 495 572 496
f 496 572 565
f 496 565 489
f 491 567 573
f 491 573 497
f 494 498 574
f 494 574 570
f 497 573 575
f 497 575 499
f 501 500 576
f 501 576 577
f 498 501 577
f 498 577 574
f 500 502 578
f 500 578 576
f 502 503 579
f 502 579 578
f 503 504 580
f 503 580 579
f 504 505 581
f 504 581 580
f 505 506 582
f 505 582 581
f 506 507 583
f 506 583 582
f 507 508 584
f 507 584 583
f 508 509 585
f 508 585 584
f 509 510 586
f 509 586 585
f 510 511 587
f 510 587 586
f 511 512 588
f 511 588 587
f 512 513 589
f 512 589 588
f 513 514 590
f 513 590 589
f 499 575 590
f 499 590 514
f 515 591 592
f 515 592 516
f 518 517 593
f 518 593 594
f 515 518 594
f 515 594 591
f 516 592 595
f 516 595 519
f 517 520 596
f 517 596 593
f 519 595 597
f 519 597 521
f 520 522 598
f 520 598 596
f 521 597 599
f 521 599 523
f 523 599 600
f 523 600 524
f 524 600 601
f 524 601 525
f 525 601 602
f 525 602 526
f 526 602 603
f 526 603 527
f 527 603 604
f 527 604 528
f 528 604 605
f 528 605 529
f 529 605 606
f 529 606 530
f 530 606 607
f 530 607 531
f 533 532 608
f 533 608 609
f 522 533 609
f 522 609 598
f 532 534 610
f 532 610 608
f 534 535 611
f 534 611 610
f 531 607 612
f 531 612 536
f 538 537 613
f 538 613 614
f 535 538 614
f 535 614 611
f 537 539 615
f 537 615 613
f 536 612 616
f 536 616 540
f 542 541 617
f 542 617 618
f 539 542 618
f 539 618 615
f 541 543 619
f 541 619 617
f 540 616 620
f 540 620 544
f 543 545 621
f 543 621 619
f 544 620 622
f 544 622 546
f 545 547 623
f 545 623 621
f 546 622 624
f 546 624 548
f 547 549 625
f 547 625 623
f 548 624 626
f 548 626 550
f 551 627 625
f 551 625 549
f 551 552 628
f 551 628 627
f 550 626 629
f 550 629 553
f 554 630 631
f 554 631 555
f 554 556 632
f 554 632 630
f 555 631 628
f 555 628 552
f 553 629 633
f 553 633 557
f 558 634 635
f 558 635 559
f 558 560 636
f 558 636 634
f 559 635 637
f 559 637 561
f 561 637 632
f 561 632 556
f 557 633 638
f 557 638 562
f 563 639 640
f 563 640 564
f 563 565 641
f 563 641 639
f 564 640 642
f 564 642 566
f 566 642 636
f 566 636 560
f 562 638 643
f 562 643 567
f 568 644 645
f 568 645 569
f 568 570 646
f 568 646 644
f 569 645 647
f 569 647 571
f 571 647 648
f 571 648 572
f 572 648 641
f 572 641 565
f 567 643 649
f 567 649 573
f 570 574 650
f 570 650 646
f 573 649 651
f 573 651 575
f 577 576 652
f 577 652 653
f 574 577 653
f 574 653 650
f 576 578 654
f 576 654 652
f 578 579 655
f 578 655 654
f 579 580 656
f 579 656 655
f 580 581 657
f 580 657 656
f 581 582 658
f 581 658 657
f 582 583 659
f 582 659 658
f 583 584 660
f 583 660 659
f 584 585 661
f 584 661 660
f 585 586 662
f 585 662 661
f 586 587 663
f 586 663 662
f 587 588 664
f 587 664 663
f 588 589 665
f 588 665 664
f 589 590 666
f 589 666 665
f 575 651 666
f 575 666 590
f 591 667 668
f 591 668 592
f 594 593 669
f 594 669 670
f 591 594 670
f 591 670 667
f 592 668 671
f 592 671 595
f 593 596 672
f 593 672 669
f 595 671 673
f 595 673 597
f 596 598 674
f 596 674 672
f 597 673 675
f 597 675 599
f 599 675 676
f 599 676 600
f 600 676 677
f 600 677 601
f 601 677 678
f 601 678 602
f 602 678 679
f 602 679 603
f 603 679 680
f 603 680 604
f 604 680 681
f 604 681 605
f 605 681 682
f 605 682 606
f 606 682 683
f 606 683 607
f 609 608 684
f 609 684 685
f 598 609 685
f 598 685 674
f 608 610 686
f 608 686 684
f 610 611 687
f 610 687 686
f 607 683 688
f 607 688 612
f 614 613 689
f 614 689 690
f 611 614 690
f 611 690 687
f 613 615 691
f 613 691 689
f 612 688 692
f 612 692 616
f 618 617 693
f 618 693 694
f 615 618 694
f 615 694 691
f 617 619 695
f 617 695 693
f 616 692 696
f 616 696 620
f 619 621 697
f 619 697 695
f 620 696 698
f 620 698 622
f 621 623 699
f 621 699 697
f 622 698 700
f 622 700 624
f 623 625 701
f 623 701 699
f 624 700 702
f 624 702 626
f 627 703 701
f 627 701 625
f 627 628 704
f 627 704 703
f 626 702 705
f 626 705 629
f 630 706 707
f 630 707 631
f 630 632 708
f 630 708 706
f 631 707 704
f 631 704 628
f 629 705 709
f 629 709 633
f 634 710 711
f 634 711 635
f 634 636 712
f 634 712 710
f 635 711 713
f 635 713 637
f 637 713 708
f 637 708 632
f 633 709 714
f 633 714 638
f 639 715 716
f 639 716 640
f 639 641 717
f 639 717 715
f 640 716 718
f 640 718 642
f 642 718 712
f 642 712 636
f 638 714 719
f 638 719 643
f 644 720 721
f 644 721 645
f 644 646 722
f 644 722 720
f 645 721 723
f 645 723 647
f 647 723 724
f 647 724 648
f 648 724 717
f 648 717 641
f 643 719 725
f 643 725 649
f 646 650 726
f 646 726 722
f 649 725 727
f 649 727 651
f 653 652 728
f 653 728 729
f 650 653 729
f 650 729 726
f 652 654 730
f 652 730 728
f 654 655 731
f 654 731 730
f 655 656 732
f 655 732 731
f 656 657 733
f 656 733 732
f 657 658 734
f 657 734 733
f 658 659 735
f 658 735 734
f 659 660 736
f 659 736 735
f 660 661 737
f 660 737 736
f 661 662 738
f 661 738 737
f 662 663 739
f 662 739 738
f 663 664 740
f 663 740 739
f 664 665 741
f 664 741 740
f 665 666 742
f 665 742 741
f 651 727 742
f 651 742 666
f 667 743 744
f 667 744 668
f 670 669 745
f 670 745 746
f 667 670 746
f 667 746 743
f 668 744 747
f 668 747 671
f 669 672 748
f 669 748 745
f 671 747 749
f 671 749 673
f 672 674 750
f 672 750 748
f 673 749 751
f 673 751 675
f 675 751 752
f 675 752 676
f 676 752 753
f 676 753 677
f 677 753 754
f 677 754 678
f 678 754 755
f 678 755 679
f 679 755 756
f 679 756 680
f 680 756 757
f 680 757 681
f 681 757 758
f 681 758 682
f 682 758 759
f 682 759 683
f 685 684 760
f 685 760 761
f 674 685 761
f 674 761 750
f 684 686 762
f 684 762 760
f 686 687 763
f 686 763 762
f 683 759 764
f 683 764 688
f 690 689 765
f 690 765 766
f 687 690 766
f 687 766 763
f 689 691 767
f 689 767 765
f 688 764 768
f 688 768 692
f 694 693 769
f 694 769 770
f 691 694 770
f 691 770 767
f 693 695 771
f 693 771 769
f 692 768 772
f 692 772 696
f 695 697 773
f 695 773 771
f 696 772 774
f 696 774 698
f 697 699 775
f 697 775 773
f 698 774 776
f 698 776 700
f 699 701 777
f 699 777 775
f 700 776 778
f 700 778 702
f 703 779 777
f 703 777 701
f 703 704 780
f 703 780 779
f 702 778 781
f 702 781 705
f 706 782 783
f 706 783 707
f 706 708 784
f 706 784 782
f 707 783 780
f 707 780 704
f 705 781 785
f 705 785 709
f 710 786 787
f 710 787 711
f 710 712 788
f 710 788 786
f 711 787 789
f 711 789 713
f 713 789 784
f 713 784 708
f 709 785 790
f 709 790 714
f 715 791 792
f 715 792 716
f 715 717 793
f 715 793 791
f 716 792 794
f 716 794 718
f 718 794 788
f 718 788 712
f 714 790 795
f 714 795 719
f 720 796 797
f 720 797 721
f 720 722 798
f 720 798 796
f 721 797 799
f 721 799 723
f 723 799 800
f 723 800 724
f 724 800 793
f 724 793 717
f 719 795 801
f 719 801 725
f 722 726 802
f 722 802 798
f 725 801 803
f 725 803 727
f 729 728 804
f 729 804 805
f 726 729 805
f 726 805 802
f 728 730 806
f 728 806 804
f 730 731 807
f 730 807 806
f 731 732 808
f 731 808 807
f 732 733 809
f 732 809 808
f 733 734 810
f 733 810 809
f 734 735 811
f 734 811 810
f 735 736 812
f 735 812 811
f 736 737 813
f 736 813 812
f 737 738 814
f 737 814 813
f 738 739 815
f 738 815 814
f 739 740 816
f 739 816 815
f 740 741 817
f 740 817 816
f 741 742 818
f 741 818 817
f 727 803 818
f 727 818 742
f 743 819 820
f 743 820 744
f 746 745 821
f 746 821 822
f 743 746 822
f 743 822 819
f 744 820 823
f 744 823 747
f 745 748 824
f 745 824 821
f 747 823 825
f 747 825 749
f 748 750 826
f 748 826 824
f 749 825 827
f 749 827 751
f 751 827 828
f 751 828 752
f 752 828 829
f 752 829 753
f 753 829 830
f 753 830 754
f 754 830 831
f 754 831 755
f 755 831 832
f 755 832 756
f 756 832 833
f 756 833 757
f 757 833 834
f 757 834 758
f 758 834 835
f 758 835 759
f 761 760 836
f 761 836 837
f 750 761 837
f 750 837 826
f 760 762 838
f 760 838 836
f 762 763 839
f 762 839 838
f 759 835 840
f 759 840 764
f 766 765 841
f 766 841 842
f 763 766 842
f 763 842 839
f 765 767 843
f 765 843 841
f 764 840 844
f 764 844 768
f 770 769 845
f 770 845 846
f 767 770 846
f 767 846 843
f 769 771 847
f 769 847 845
f 768 844 848
f 768 848 772
f 771 773 849
f 771 849 847
f 772 848 850
f 772 850 774
f 773 775 851
f 773 851 849
f 774 850 852
f 774 852 776
f 775 777 853
f 775 853 851
f 776 852 854
f 776 854 778
f 779 855 853
f 779 853 777
f 779 780 856
f 779 856 855
f 778 854 857
f 778 857 781
f 782 858 859
f 782 859 783
f 782 784 860
f 782 860 858
f 783 859 856
f 783 856 780
f 781 857 861
f 781 861 785
f 786 862 863
f 786 863 787
f 786 788 864
f 786 864 862
f 787 863 865
f 787 865 789
f 789 865 860
f 789 860 784
f 785 861 866
f 785 866 790
f 791 867 868
f 791 868 792
f 791 793 869
f 791 869 867
f 792 868 870
f 792 870 794
f 794 870 864
f 794 864 788
f 790 866 871
f 790 871 795
f 796 872 873
f 796 873 797
f 796 798 874
f 796 874 872
f 797 873 875
f 797 875 799
f 799 875 876
f 799 876 800
f 800 876 869
f 800 869 793
f 795 871 877
f 795 877 801
f 798 802 878
f 798 878 874
f 801 877 879
f 801 879 803
f 805 804 880
f 805 880 881
f 802 805 881
f 802 881 878
f 804 806 882
f 804 882 880
f 806 807 883
f 806 883 882
f 807 808 884
f 807 884 883
f 808 809 885
f 808 885 884
f 809 810 886
f 809 886 885
f 810 811 887
f 810 887 886
f 811 812 888
f 811 888 887
f 812 813 889
f 812 889 888
f 813 814 890
f 813 890 889
f 814 815 891
f 814 891 890
f 815 816 892
f 815 892 891
f 816 817 893
f 816 893 892
f 817 818 894
f 817 894 893
f 803 879 894
f 803 894 818
f 819 895 896
f 819 896 820
f 822 821 897
f 822 897 898
f 819 822 898
f 819 898 895
f 820 896 899
f 820 899 823
f 821 824 900
f 821 900 897
f 823 899 901
f 823 901 825
f 824 826 902
f 824 902 900
f 825 901 903
f 825 903 827
f 827 903 904
f 827 904 828
f 828 904 905
f 828 905 829
f 829 905 906
f 829 906 830
f 830 906 907
f 830 907 831
f 831 907 908
f 831 908 832
f 832 908 909
f 832 909 833
f 833 909 910
f 833 910 834
f 834 910 911
f 834 911 835
f 837 836 912
f 837 912 913
f 826 837 913
f 826 913 902
f 836 838 914
f 836 914 912
f 838 839 915
f 838 915 914
f 835 911 916
f 835 916 840
f 842 841 917
f 842 917 918
f 839 842 918
f 839 918 915
f 841 843 919
f 841 919 917
f 840 916 920
f 840 920 844
f 846 845 921
f 846 921 922
f 843 846 922
f 843 922 919
f 845 847 923
f 845 923 921
f 844 920 924
f 844 924 848
f 847 849 925
f 847 925 923
f 848 924 926
f 848 926 850
f 849 851 927
f 849 927 925
f 850 926 928
f 850 928 852
f 851 853 929
f 851 929 927
f 852 928 930
f 852 930 854
f 855 931 929
f 855 929 853
f 855 856 932
f 855 932 931
f 854 930 933
f 854 933 857
f 858 934 935
f 858 935 859
f 858 860 936
f 858 936 934
f 859 935 932
f 859 932 856
f 857 933 937
f 857 937 861
f 862 938 939
f 862 939 863
f 862 864 940
f 862 940 938
f 863 939 941
f 863 941 865
f 865 941 936
f 865 936 860
f 861 937 942
f 861 942 866
f 867 943 944
f 867 944 868
f 867 869 945
f 867 945 943
f 868 944 946
f 868 946 870
f 870 946 940
f 870 940 864
f 866 942 947
f 866 947 871
f 872 948 949
f 872 949 873
f 872 874 950
f 872 950 948
f 873 949 951
f 873 951 875
f 875 951 952
f 875 952 876
f 876 952 945
f 876 945 869
f 871 947 953
f 871 953 877
f 874 878 954
f 874 954 950
f 877 953 955
f 877 955 879
f 881 880 956
f 881 956 957
f 878 881 957
f 878 957 954
f 880 882 958
f 880 958 956
f 882 883 959
f 882 959 958
f 883 884 960
f 883 960 959
f 884 885 961
f 884 961 960
f 885 886 962
f 885 962 961
f 886 887 963
f 886 963 962
f 887 888 964
f 887 964 963
f 888 889 965
f 888 965 964
f 889 890 966
f 889 966 965
f 890 891 967
f 890 967 966
f 891 892 968
f 891 968 967
f 892 893 969
f 892 969 968
f 893 894 970
f 893 970 969
f 879 955 970
f 879 970 894
f 895 971 972
f 895 972 896
f 898 897 973
f 898 973 974
f 895 898 974
f 895 974 971
f 896 972 975
f 896 975 899
f 897 900 976
f 897 976 973
f 899 975 977
f 899 977 901
f 900 902 978
f 900 978 976
f 901 977 979
f 901 979 903
f 903 979 980
f 903 980 904
f 904 980 981
f 904 981 905
f 905 981 982
f 905 982 906
f 906 982 983
f 906 983 907
f 907 983 984
f 907 984 908
f 908 984 985
f 908 985 909
f 909 985 986
f 909 986 910
f 910 986 987
f 910 987 911
f 913 912 988
f 913 988 989
f 902 913 989
f 902 989 978
f 912 914 990
f 912 990 988
f 914 915 991
f 914 991 990
f 911 987 992
f 911 992 916
f 918 917 993
f 918 993 994
f 915 918 994
f 915 994 991
f 917 919 995
f 917 995 993
f 916 992 996
f 916 996 920
f 922 921 997
f 922 997 998
f 919 922 998
f 919 998 995
f 921 923 999
f 921 999 997
f 920 996 1000
f 920 1000 924
f 923 925 1001
f 923 1001 999
f 924 1000 1002
f 924 1002 926
f 925 927 1003
f 925 1003 1001
f 926 1002 1004
f 926 1004 928
f 927 929 1005
f 927 1005 1003
f 928 1004 1006
f 928 1006 930
f 931 1007 1005
f 931 1005 929
f 931 932 1008
f 931 1008 1007
f 930 1006 1009
f 930 1009 933
f 934 1010 1011
f 934 1011 935
f 934 936 1012
f 934 1012 1010
f 935 1011 1008
f 935 1008 932
f 933 1009 1013
f 933 1013 937
f 938 1014 1015
f 938 1015 939
f 938 940 1016
f 938 1016 1014
f 939 1015 1017
f 939 1017 941
f 941 1017 1012
f 941 1012 936
f 937 1013 1018
f 937 1018 942
f 943 1019 1020
f 943 1020 944
f 943 945 1021
f 943 1021 1019
f 944 1020 1022
f 944 1022 946
f 946 1022 1016
f 946 1016 940
f 942 1018 1023
f 942 1023 947
f 948 1024 1025
f 948 1025 949
f 948 950 1026
f 948 1026 1024
f 949 1025 1027
f 949 1027 951
f 951 1027 1028
f 951 1028 952
f 952 1028 1021
f 952 1021 945
f 947 1023 1029
f 947 1029 953
f 950 954 1030
f 950 1030 1026
f 953 1029 1031
f 953 1031 955
f 957 956 1032
f 957 1032 1033
f 954 957 1033
f 954 1033 1030
f 956 958 1034
f 956 1034 1032
f 958 959 1035
f 958 1035 1034
f 959 960 1036
f 959 1036 1035
f 960 961 1037
f 960 1037 1036
f 961 962 1038
f 961 1038 1037
f 962 963 1039
f 962 1039 1038
f 963 964 1040
f 963 1040 1039
f 964 965 1041
f 964 1041 1040
f 965 966 1042
f 965 1042 1041
f 966 967 1043
f 966 1043 1042
f 967 968 1044
f 967 1044 1043
f 968 969 1045
f 968 1045 1044
f 969 970 1046
f 969 1046 1045
f 955 1031 1046
f 955 1046 970
f 971 1047 1048
f 971 1048 972
f 974 973 1049
f 974 1049 1050
f 971 974 1050
f 971 1050 1047
f 972 1048 1051
f 972 1051 975
f 973 976 1052
f 973 1052 1049
f 975 1051 1053
f 975 1053 977
f 976 978 1054
f 976 1054 1052
f 977 1053 1055
f 977 1055 979
f 979 1055 1056
f 979 1056 980
f 980 1056 1057
f 980 1057 981
f 981 1057 1058
f 981 1058 982
f 982 1058 1059
f 982 1059 983
f 983 1059 1060
f 983 1060 984
f 984 1060 1061
f 984 1061 985
f 985 1061 1062
f 985 1062 986
f 986 1062 1063
f 986 1063 987
f 989 988 1064
f 989 1064 1065
f 978 989 1065
f 978 1065 1054
f 988 990 1066
f 988 1066 1064
f 990 991 1067
f 990 1067 1066
f 987 1063 1068
f 987 1068 992
f 994 993 1069
f 994 1069 1070
f 991 994 1070
f 991 1070 1067
f 993 995 1071
f 993 1071 1069
f 992 1068 1072
f 992 1072 996
f 998 997 1073
f 998 1073 1074
f 995 998 1074
f 995 1074 1071
f 997 999 1075
f 997 1075 1073
f 996 1072 1076
f 996 1076 1000
f 999 1001 1077
f 999 1077 1075
f 1000 1076 1078
f 1000 1078 1002
f 1001 1003 1079
f 1001 1079 1077
f 1002 1078 1080
f 1002 1080 1004
f 1003 1005 1081
f 1003 1081 1079
f 1004 1080 1082
f 1004 1082 1006
f 1007 1083 1081
f 1007 1081 1005
f 1007 1008 1084
f 1007 1084 1083
f 1006 1082 1085
f 1006 1085 1009
f 1010 1086 1087
f 1010 1087 1011
f 1010 1012 1088
f 1010 1088 1086
f 1011 1087 1084
f 1011 1084 1008
f 1009 1085 1089
f 1009 1089 1013
f 1014 1090 1091
f 1014 1091 1015
f 1014 1016 1092
f 1014 1092 1090
f 1015 1091 1093
f 1015 1093 1017
f 1017 1093 1088
f 1017 1088 1012
f 1013 1089 1094
f 1013 1094 1018
f 1019 1095 1096
f 1019 1096 1020
f 1019 1021 1097
f 1019 1097 1095
f 1020 1096 1098
f 1020 1098 1022
f 1022 1098 1092
f 1022 1092 1016
f 1018 1094 1099
f 1018 1099 1023
f 1024 1100 1101
f 1024 1101 1025
f 1024 1026 1102
f 1024 1102 1100
f 1025 1101 1103
f 1025 1103 1027
f 1027 1103 1104
f 1027 1104 1028
f 1028 1104 1097
f 1028 1097 1021
f 1023 1099 1105
f 1023 1105 1029
f 1026 1030 1106
f 1026 1106 1102
f 1029 1105 1107
f 1029 1107 1031
f 1033 1032 1108
f 1033 1108 1109
f 1030 1033 1109
f 1030 1109 1106
f 1032 1034 1110
f 1032 1110 1108
f 1034 1035 1111
f 1034 1111 1110
f 1035 1036 1112
f 1035 1112 1111
f 1036 1037 1113
f 1036 1113 1112
f 1037 1038 1114
f 1037 1114 1113
f 1038 1039 1115
f 1038 1115 1114
f 1039 1040 1116
f 1039 1116 1115
f 1040 1041 1117
f 1040 1117 1116
f 1041 1042 1118
f 1041 1118 1117
f 1042 1043 1119
f 1042 1119 1118
f 1043 1044 1120
f 1043 1120 1119
f 1044 1045 1121
f 1044 1121 1120
f 1045 1046 1122
f 1045 1122 1121
f 1031 1107 1122
f 1031 1122 1046
f 1123 1124 1125
f 1123 1125 1126
f 1047 1123 1124
f 1047 1124 1048
f 1050 1049 1125
f 1050 1125 1126
f 1047 1050 1126
f 1047 1126 1123
f 1124 1127 1128
f 1124 1128 1125
f 1048 1124 1127
f 1048 1127 1051
f 1049 1052 1128
f 1049 1128 1125
f 1127 1129 1130
f 1127 1130 1128
f 1051 1127 1129
f 1051 1129 1053
f 1052 1054 1130
f 1052 1130 1128
f 1129 1131 1132
f 1129 1132 1130
f 1053 1129 1131
f 1053 1131 1055
f 1131 1133 1134
f 1131 1134 1132
f 1055 1131 1133
f 1055 1133 1056
f 1133 1135 1136
f 1133 1136 1134
f 1056 1133 1135
f 1056 1135 1057
f 1135 1137 1138
f 1135 1138 1136
f 1057 1135 1137
f 1057 1137 1058
f 1137 1139 1140
f 1137 1140 1138
f 1058 1137 1139
f 1058 1139 1059
f 1139 1141 1142
f 1139 1142 1140
f 1059 1139 1141
f 1059 1141 1060
f 1141 1143 1144
f 1141 1144 1142
f 1060 1141 1143
f 1060 1143 1061
f 1143 1145 1146
f 1143 1146 1144
f 1061 1143 1145
f 1061 1145 1062
f 1062 1145 1146
f 1062 1146 1063
f 1130 1132 1147
f 1130 1147 1148
f 1065 1064 1147
f 1065 1147 1148
f 1054 1065 1148
f 1054 1148 1130
f 1132 1134 1149
f 1132 1149 1147
f 1064 1066 1149
f 1064 1149 1147
f 1134 1136 1150
f 1134 1150 1149
f 1066 1067 1150
f 1066 1150 1149
f 1136 1138 1151
f 1136 1151 1150
f 1138 1140 1152
f 1138 1152 1151
f 1140 1142 1153
f 1140 1153 1152
f 1142 1144 1154
f 1142 1154 1153
f 1144 1146 1155
f 1144 1155 1154
f 1063 1146 1155
f 1063 1155 1068
f 1150 1151 1156
f 1150 1156 1157
f 1070 1069 1156
f 1070 1156 1157
f 1067 1070 1157
f 1067 1157 1150
f 1151 1152 1158
f 1151 1158 1156
f 1069 1071 1158
f 1069 1158 1156
f 1152 1153 1159
f 1152 1159 1158
f 1153 1154 1160
f 1153 1160 1159
f 1154 1155 1161
f 1154 1161 1160
f 1068 1155 1161
f 1068 1161 1072
f 1158 1159 1162
f 1158 1162 1163
f 1074 1073 1162
f 1074 1162 1163
f 1071 1074 1163
f 1071 1163 1158
f 1159 1160 1164
f 1159 1164 1162
f 1073 1075 1164
f 1073 1164 1162
f 1160 1161 1165
f 1160 1165 1164
f 1072 1161 1165
f 1072 1165 1076
f 1164 1165 1166
f 1164 1166 1167
f 1075 1077 1167
f 1075 1167 1164
f 1076 1165 1166
f 1076 1166 1078
f 1167 1166 1168
f 1167 1168 1169
f 1077 1079 1169
f 1077 1169 1167
f 1078 1166 1168
f 1078 1168 1080
f 1169 1168 1170
f 1169 1170 1171
f 1079 1081 1171
f 1079 1171 1169
f 1080 1168 1170
f 1080 1170 1082
f 1172 1171 1173
f 1172 1173 1174
f 1083 1172 1171
f 1083 1171 1081
f 1083 1084 1174
f 1083 1174 1172
f 1171 1170 1175
f 1171 1175 1173
f 1082 1170 1175
f 1082 1175 1085
f 1176 1177 1178
f 1176 1178 1179
f 1086 1176 1177
f 1086 1177 1087
f 1086 1088 1179
f 1086 1179 1176
f 1177 1174 1180
f 1177 1180 1178
f 1087 1177 1174
f 1087 1174 1084
f 1174 1173 1181
f 1174 1181 1180
f 1173 1175 1182
f 1173 1182 1181
f 1085 1175 1182
f 1085 1182 1089
f 1183 1184 1185
f 1183 1185 1186
f 1090 1183 1184
f 1090 1184 1091
f 1090 1092 1186
f 1090 1186 1183
f 1184 1187 1188
f 1184 1188 1185
f 1091 1184 1187
f 1091 1187 1093
f 1187 1179 1189
f 1187 1189 1188
f 1093 1187 1179
f 1093 1179 1088
f 1179 1178 1190
f 1179 1190 1189
f 1178 1180 1191
f 1178 1191 1190
f 1180 1181 1192
f 1180 1192 1191
f 1181 1182 1193
f 1181 1193 1192
f 1089 1182 1193
f 1089 1193 1094
f 1194 1195 1196
f 1194 1196 1197
f 1095 1194 1195
f 1095 1195 1096
f 1095 1097 1197
f 1095 1197 1194
f 1195 1198 1199
f 1195 1199 1196
f 1096 1195 1198
f 1096 1198 1098
f 1198 1186 1200
f 1198 1200 1199
f 1098 1198 1186
f 1098 1186 1092
f 1186 1185 1201
f 1186 1201 1200
f 1185 1188 1202
f 1185 1202 1201
f 1188 1189 1203
f 1188 1203 1202
f 1189 1190 1204
f 1189 1204 1203
f 1190 1191 1205
f 1190 1205 1204
f 1191 1192 1206
f 1191 1206 1205
f 1192 1193 1207
f 1192 1207 1206
f 1094 1193 1207
f 1094 1207 1099
f 1208 1209 1210
f 1208 1210 1211
f 1100 1208 1209
f 1100 1209 1101
f 1100 1102 1211
f 1100 1211 1208
f 1209 1212 1213
f 1209 1213 1210
f 1101 1209 1212
f 1101 1212 1103
f 1212 1214 1215
f 1212 1215 1213
f 1103 1212 1214
f 1103 1214 1104
f 1214 1197 1216
f 1214 1216 1215
f 1104 1214 1197
f 1104 1197 1097
f 1197 1196 1217
f 1197 1217 1216
f 1196 1199 1218
f 1196 1218 1217
f 1199 1200 1219
f 1199 1219 1218
f 1200 1201 1220
f 1200 1220 1219
f 1201 1202 1221
f 1201 1221 1220
f 1202 1203 1222
f 1202 1222 1221
f 1203 1204 1223
f 1203 1223 1222
f 1204 1205 1224
f 1204 1224 1223
f 1205 1206 1225
f 1205 1225 1224
f 1206 1207 1226
f 1206 1226 1225
f 1099 1207 1226
f 1099 1226 1105
f 1211 1210 1227
f 1211 1227 1228
f 1102 1106 1228
f 1102 1228 1211
f 1210 1213 1229
f 1210 1229 1227
f 1213 1215 1230
f 1213 1230 1229
f 1215 1216 1231
f 1215 1231 1230
f 1216 1217 1232
f 1216 1232 1231
f 1217 1218 1233
f 1217 1233 1232
f 1218 1219 1234
f 1218 1234 1233
f 1219 1220 1235
f 1219 1235 1234
f 1220 1221 1236
f 1220 1236 1235
f 1221 1222 1237
f 1221 1237 1236
f 1222 1223 1238
f 1222 1238 1237
f 1223 1224 1239
f 1223 1239 1238
f 1224 1225 1240
f 1224 1240 1239
f 1225 1226 1241
f 1225 1241 1240
f 1105 1226 1241
f 1105 1241 1107
f 1228 1227 1242
f 1228 1242 1243
f 1109 1108 1242
f 1109 1242 1243
f 1106 1109 1243
f 1106 1243 1228
f 1227 1229 1244
f 1227 1244 1242
f 1108 1110 1244
f 1108 1244 1242
f 1229 1230 1245
f 1229 1245 1244
f 1110 1111 1245
f 1110 1245 1244
f 1230 1231 1246
f 1230 1246 1245
f 1111 1112 1246
f 1111 1246 1245
f 1231 1232 1247
f 1231 1247 1246
f 1112 1113 1247
f 1112 1247 1246
f 1232 1233 1248
f 1232 1248 1247
f 1113 1114 1248
f 1113 1248 1247
f 1233 1234 1249
f 1233 1249 1248
f 1114 1115 1249
f 1114 1249 1248
f 1234 1235 1250
f 1234 1250 1249
f 1115 1116 1250
f 1115 1250 1249
f 1235 1236 1251
f 1235 1251 1250
f 1116 1117 1251
f 1116 1251 1250
f 1236 1237 1252
f 1236 1252 1251
f 1117 1118 1252
f 1117 1252 1251
f 1237 1238 1253
f 1237 1253 1252
f 1118 1119 1253
f 1118 1253 1252
f 1238 1239 1254
f 1238 1254 1253
f 1119 1120 1254
f 1119 1254 1253
f 1239 1240 1255
f 1239 1255 1254
f 1120 1121 1255
f 1120 1255 1254
f 1240 1241 1256
f 1240 1256 1255
f 1121 1122 1256
f 1121 1256 1255
f 1107 1241 1256
f 1107 1256 1122
