o [4B] 3D Diagram - S2-06 Group A_970
v -8.694000 26.721000 193.330000
v -8.694000 27.018000 193.330000
v -8.694000 27.018000 194.140000
v -8.694000 26.721000 194.140000
v -7.452000 26.721000 193.330000
v -7.452000 26.721000 194.140000
v -7.452000 27.018000 193.330000
v -8.694000 27.018000 194.950000
v -8.694000 26.721000 194.950000
v -7.452000 26.721000 194.950000
v -8.694000 27.018000 195.760000
v -8.694000 26.721000 195.760000
v -7.452000 26.721000 195.760000
v -8.694000 27.018000 196.570000
v -8.694000 26.721000 196.570000
v -7.452000 26.721000 196.570000
v -8.694000 27.018000 197.380000
v -8.694000 26.721000 197.380000
v -7.452000 26.721000 197.380000
v -8.694000 27.018000 198.190000
v -8.694000 26.721000 198.190000
v -7.452000 26.721000 198.190000
v -8.694000 27.018000 199.000000
v -8.694000 26.721000 199.000000
v -7.452000 26.721000 199.000000
v -8.694000 27.018000 199.810000
v -8.694000 26.721000 199.810000
v -7.452000 26.721000 199.810000
v -8.694000 27.018000 200.620000
v -8.694000 26.721000 200.620000
v -7.452000 26.721000 200.620000
v -8.694000 27.018000 201.430000
v -8.694000 26.721000 201.430000
v -7.452000 26.721000 201.430000
v -8.694000 27.018000 202.240000
v -8.694000 26.721000 202.240000
v -7.452000 26.721000 202.240000
v -8.694000 27.018000 203.050000
v -8.694000 26.721000 203.050000
v -7.452000 26.721000 203.050000
v -8.694000 27.018000 203.860000
v -8.694000 26.721000 203.860000
v -7.452000 26.721000 203.860000
v -8.694000 27.018000 204.670000
v -8.694000 26.721000 204.670000
v -7.452000 26.721000 204.670000
v -7.452000 27.018000 204.670000
v -8.694000 27.315000 193.330000
v -8.694000 27.315000 194.140000
v -7.452000 27.315000 194.140000
v -7.452000 27.315000 193.330000
v -8.694000 27.315000 194.950000
v -7.452000 27.315000 194.950000
v -8.694000 27.315000 195.760000
v -7.452000 27.315000 195.760000
v -8.694000 27.315000 196.570000
v -7.452000 27.315000 196.570000
v -8.694000 27.315000 197.380000
v -8.694000 27.315000 198.190000
v -8.694000 27.315000 199.000000
v -8.694000 27.315000 199.810000
v -8.694000 27.315000 200.620000
v -8.694000 27.315000 201.430000
v -8.694000 27.315000 202.240000
v -8.694000 27.315000 203.050000
v -8.694000 27.315000 203.860000
v -8.694000 27.315000 204.670000
v -7.452000 27.315000 204.670000
v -8.694000 27.612000 196.570000
v -8.694000 27.612000 197.380000
v -7.452000 27.612000 197.380000
v -7.452000 27.612000 196.570000
v -8.694000 27.612000 198.190000
v -7.452000 27.612000 198.190000
v -8.694000 27.612000 199.000000
v -7.452000 27.612000 199.000000
v -8.694000 27.612000 199.810000
v -8.694000 27.612000 200.620000
v -8.694000 27.612000 201.430000
v -8.694000 27.612000 202.240000
v -8.694000 27.612000 203.050000
v -8.694000 27.612000 203.860000
v -8.694000 27.612000 204.670000
v -7.452000 27.612000 204.670000
v -8.694000 27.909000 199.000000
v -8.694000 27.909000 199.810000
v -7.452000 27.909000 199.810000
v -7.452000 27.909000 199.000000
v -8.694000 27.909000 200.620000
v -7.452000 27.909000 200.620000
v -8.694000 27.909000 201.430000
v -7.452000 27.909000 201.430000
v -8.694000 27.909000 202.240000
v -8.694000 27.909000 203.050000
v -8.694000 27.909000 203.860000
v -8.694000 27.909000 204.670000
v -7.452000 27.909000 204.670000
v -8.694000 28.206000 201.430000
v -8.694000 28.206000 202.240000
v -7.452000 28.206000 202.240000
v -7.452000 28.206000 201.430000
v -8.694000 28.206000 203.050000
v -7.452000 28.206000 203.050000
v -8.694000 28.206000 203.860000
v -8.694000 28.206000 204.670000
v -7.452000 28.206000 204.670000
v -8.694000 28.503000 203.050000
v -8.694000 28.503000 203.860000
v -7.452000 28.503000 203.860000
v -7.452000 28.503000 203.050000
v -8.694000 28.503000 204.670000
v -7.452000 28.503000 204.670000
v -8.694000 28.800000 203.860000
v -8.694000 28.800000 204.670000
v -7.452000 28.800000 203.860000
v -7.452000 28.800000 204.670000
v -8.694000 29.097000 203.860000
v -8.694000 29.097000 204.670000
v -7.452000 29.097000 203.860000
v -7.452000 29.097000 204.670000
v -8.694000 29.394000 203.860000
v -8.694000 29.394000 204.670000
v -7.452000 29.394000 203.860000
v -7.452000 29.394000 204.670000
v -8.694000 29.394000 202.240000
v -8.694000 29.691000 202.240000
v -8.694000 29.691000 203.050000
v -8.694000 29.394000 203.050000
v -7.452000 29.394000 202.240000
v -7.452000 29.394000 203.050000
v -7.452000 29.691000 202.240000
v -8.694000 29.691000 203.860000
v -8.694000 29.691000 204.670000
v -7.452000 29.691000 204.670000
v -8.694000 29.691000 200.620000
v -8.694000 29.988000 200.620000
v -8.694000 29.988000 201.430000
v -8.694000 29.691000 201.430000
v -7.452000 29.691000 200.620000
v -7.452000 29.691000 201.430000
v -7.452000 29.988000 200.620000
v -8.694000 29.988000 202.240000
v -8.694000 29.988000 203.050000
v -8.694000 29.988000 203.860000
v -8.694000 29.988000 204.670000
v -7.452000 29.988000 204.670000
v -8.694000 29.988000 198.190000
v -8.694000 30.285000 198.190000
v -8.694000 30.285000 199.000000
v -8.694000 29.988000 199.000000
v -7.452000 29.988000 198.190000
v -7.452000 29.988000 199.000000
v -7.452000 30.285000 198.190000
v -8.694000 30.285000 199.810000
v -8.694000 29.988000 199.810000
v -7.452000 29.988000 199.810000
v -8.694000 30.285000 200.620000
v -8.694000 30.285000 201.430000
v -8.694000 30.285000 202.240000
v -8.694000 30.285000 203.050000
v -8.694000 30.285000 203.860000
v -8.694000 30.285000 204.670000
v -7.452000 30.285000 204.670000
v -8.694000 30.285000 195.760000
v -8.694000 30.582000 195.760000
v -8.694000 30.582000 196.570000
v -8.694000 30.285000 196.570000
v -7.452000 30.285000 195.760000
v -7.452000 30.285000 196.570000
v -7.452000 30.582000 195.760000
v -8.694000 30.582000 197.380000
v -8.694000 30.285000 197.380000
v -7.452000 30.285000 197.380000
v -8.694000 30.582000 198.190000
v -8.694000 30.582000 199.000000
v -8.694000 30.582000 199.810000
v -8.694000 30.582000 200.620000
v -8.694000 30.582000 201.430000
v -8.694000 30.582000 202.240000
v -8.694000 30.582000 203.050000
v -8.694000 30.582000 203.860000
v -8.694000 30.582000 204.670000
v -7.452000 30.582000 204.670000
v -8.694000 30.582000 193.330000
v -8.694000 30.879000 193.330000
v -8.694000 30.879000 194.140000
v -8.694000 30.582000 194.140000
v -7.452000 30.582000 193.330000
v -7.452000 30.582000 194.140000
v -7.452000 30.879000 194.140000
v -7.452000 30.879000 193.330000
v -8.694000 30.879000 194.950000
v -8.694000 30.582000 194.950000
v -7.452000 30.582000 194.950000
v -7.452000 30.879000 194.950000
v -8.694000 30.879000 195.760000
v -7.452000 30.879000 195.760000
v -8.694000 30.879000 196.570000
v -7.452000 30.879000 196.570000
v -8.694000 30.879000 197.380000
v -7.452000 30.879000 197.380000
v -8.694000 30.879000 198.190000
v -7.452000 30.879000 198.190000
v -8.694000 30.879000 199.000000
v -7.452000 30.879000 199.000000
v -8.694000 30.879000 199.810000
v -7.452000 30.879000 199.810000
v -8.694000 30.879000 200.620000
v -7.452000 30.879000 200.620000
v -8.694000 30.879000 201.430000
v -7.452000 30.879000 201.430000
v -8.694000 30.879000 202.240000
v -7.452000 30.879000 202.240000
v -8.694000 30.879000 203.050000
v -7.452000 30.879000 203.050000
v -8.694000 30.879000 203.860000
v -7.452000 30.879000 203.860000
v -8.694000 30.879000 204.670000
v -7.452000 30.879000 204.670000
v -6.210000 26.721000 193.330000
v -6.210000 26.721000 194.140000
v -6.210000 27.018000 193.330000
v -6.210000 26.721000 194.950000
v -6.210000 26.721000 195.760000
v -6.210000 26.721000 196.570000
v -6.210000 26.721000 197.380000
v -6.210000 26.721000 198.190000
v -6.210000 26.721000 199.000000
v -6.210000 26.721000 199.810000
v -6.210000 26.721000 200.620000
v -6.210000 26.721000 201.430000
v -6.210000 26.721000 202.240000
v -6.210000 26.721000 203.050000
v -6.210000 26.721000 203.860000
v -6.210000 26.721000 204.670000
v -6.210000 27.018000 204.670000
v -6.210000 27.315000 194.140000
v -6.210000 27.315000 193.330000
v -6.210000 27.315000 194.950000
v -6.210000 27.315000 195.760000
v -6.210000 27.315000 196.570000
v -6.210000 27.315000 204.670000
v -6.210000 27.612000 197.380000
v -6.210000 27.612000 196.570000
v -6.210000 27.612000 198.190000
v -6.210000 27.612000 199.000000
v -6.210000 27.612000 204.670000
v -6.210000 27.909000 199.810000
v -6.210000 27.909000 199.000000
v -6.210000 27.909000 200.620000
v -6.210000 27.909000 201.430000
v -6.210000 27.909000 204.670000
v -6.210000 28.206000 202.240000
v -6.210000 28.206000 201.430000
v -6.210000 28.206000 203.050000
v -6.210000 28.206000 204.670000
v -6.210000 28.503000 203.860000
v -6.210000 28.503000 203.050000
v -6.210000 28.503000 204.670000
v -6.210000 28.800000 203.860000
v -6.210000 28.800000 204.670000
v -6.210000 29.097000 203.860000
v -6.210000 29.097000 204.670000
v -6.210000 29.394000 203.860000
v -6.210000 29.394000 204.670000
v -6.210000 29.394000 202.240000
v -6.210000 29.394000 203.050000
v -6.210000 29.691000 202.240000
v -6.210000 29.691000 204.670000
v -6.210000 29.691000 200.620000
v -6.210000 29.691000 201.430000
v -6.210000 29.988000 200.620000
v -6.210000 29.988000 204.670000
v -6.210000 29.988000 198.190000
v -6.210000 29.988000 199.000000
v -6.210000 30.285000 198.190000
v -6.210000 29.988000 199.810000
v -6.210000 30.285000 204.670000
v -6.210000 30.285000 195.760000
v -6.210000 30.285000 196.570000
v -6.210000 30.582000 195.760000
v -6.210000 30.285000 197.380000
v -6.210000 30.582000 204.670000
v -6.210000 30.582000 193.330000
v -6.210000 30.582000 194.140000
v -6.210000 30.879000 194.140000
v -6.210000 30.879000 193.330000
v -6.210000 30.582000 194.950000
v -6.210000 30.879000 194.950000
v -6.210000 30.879000 195.760000
v -6.210000 30.879000 196.570000
v -6.210000 30.879000 197.380000
v -6.210000 30.879000 198.190000
v -6.210000 30.879000 199.000000
v -6.210000 30.879000 199.810000
v -6.210000 30.879000 200.620000
v -6.210000 30.879000 201.430000
v -6.210000 30.879000 202.240000
v -6.210000 30.879000 203.050000
v -6.210000 30.879000 203.860000
v -6.210000 30.879000 204.670000
v -4.968000 26.721000 193.330000
v -4.968000 26.721000 194.140000
v -4.968000 27.018000 193.330000
v -4.968000 26.721000 194.950000
v -4.968000 26.721000 195.760000
v -4.968000 26.721000 196.570000
v -4.968000 26.721000 197.380000
v -4.968000 26.721000 198.190000
v -4.968000 26.721000 199.000000
v -4.968000 26.721000 199.810000
v -4.968000 26.721000 200.620000
v -4.968000 26.721000 201.430000
v -4.968000 26.721000 202.240000
v -4.968000 26.721000 203.050000
v -4.968000 26.721000 203.860000
v -4.968000 26.721000 204.670000
v -4.968000 27.018000 204.670000
v -4.968000 27.315000 194.140000
v -4.968000 27.315000 193.330000
v -4.968000 27.315000 194.950000
v -4.968000 27.315000 195.760000
v -4.968000 27.315000 196.570000
v -4.968000 27.315000 204.670000
v -4.968000 27.612000 197.380000
v -4.968000 27.612000 196.570000
v -4.968000 27.612000 198.190000
v -4.968000 27.612000 199.000000
v -4.968000 27.612000 204.670000
v -4.968000 27.909000 199.810000
v -4.968000 27.909000 199.000000
v -4.968000 27.909000 200.620000
v -4.968000 27.909000 201.430000
v -4.968000 27.909000 204.670000
v -4.968000 28.206000 202.240000
v -4.968000 28.206000 201.430000
v -4.968000 28.206000 203.050000
v -4.968000 28.206000 204.670000
v -4.968000 28.503000 203.860000
v -4.968000 28.503000 203.050000
v -4.968000 28.503000 204.670000
v -4.968000 28.800000 203.860000
v -4.968000 28.800000 204.670000
v -4.968000 29.097000 203.860000
v -4.968000 29.097000 204.670000
v -4.968000 29.394000 203.860000
v -4.968000 29.394000 204.670000
v -4.968000 29.394000 202.240000
v -4.968000 29.394000 203.050000
v -4.968000 29.691000 202.240000
v -4.968000 29.691000 204.670000
v -4.968000 29.691000 200.620000
v -4.968000 29.691000 201.430000
v -4.968000 29.988000 200.620000
v -4.968000 29.988000 204.670000
v -4.968000 29.988000 198.190000
v -4.968000 29.988000 199.000000
v -4.968000 30.285000 198.190000
v -4.968000 29.988000 199.810000
v -4.968000 30.285000 204.670000
v -4.968000 30.285000 195.760000
v -4.968000 30.285000 196.570000
v -4.968000 30.582000 195.760000
v -4.968000 30.285000 197.380000
v -4.968000 30.582000 204.670000
v -4.968000 30.582000 193.330000
v -4.968000 30.582000 194.140000
v -4.968000 30.879000 194.140000
v -4.968000 30.879000 193.330000
v -4.968000 30.582000 194.950000
v -4.968000 30.879000 194.950000
v -4.968000 30.879000 195.760000
v -4.968000 30.879000 196.570000
v -4.968000 30.879000 197.380000
v -4.968000 30.879000 198.190000
v -4.968000 30.879000 199.000000
v -4.968000 30.879000 199.810000
v -4.968000 30.879000 200.620000
v -4.968000 30.879000 201.430000
v -4.968000 30.879000 202.240000
v -4.968000 30.879000 203.050000
v -4.968000 30.879000 203.860000
v -4.968000 30.879000 204.670000
v -3.726000 26.721000 193.330000
v -3.726000 26.721000 194.140000
v -3.726000 27.018000 193.330000
v -3.726000 26.721000 194.950000
v -3.726000 26.721000 195.760000
v -3.726000 26.721000 196.570000
v -3.726000 26.721000 197.380000
v -3.726000 26.721000 198.190000
v -3.726000 26.721000 199.000000
v -3.726000 26.721000 199.810000
v -3.726000 26.721000 200.620000
v -3.726000 26.721000 201.430000
v -3.726000 26.721000 202.240000
v -3.726000 26.721000 203.050000
v -3.726000 26.721000 203.860000
v -3.726000 26.721000 204.670000
v -3.726000 27.018000 204.670000
v -3.726000 27.315000 194.140000
v -3.726000 27.315000 193.330000
v -3.726000 27.315000 194.950000
v -3.726000 27.315000 195.760000
v -3.726000 27.315000 196.570000
v -3.726000 27.315000 204.670000
v -3.726000 27.612000 197.380000
v -3.726000 27.612000 196.570000
v -3.726000 27.612000 198.190000
v -3.726000 27.612000 199.000000
v -3.726000 27.612000 204.670000
v -3.726000 27.909000 199.810000
v -3.726000 27.909000 199.000000
v -3.726000 27.909000 200.620000
v -3.726000 27.909000 201.430000
v -3.726000 27.909000 204.670000
v -3.726000 28.206000 202.240000
v -3.726000 28.206000 201.430000
v -3.726000 28.206000 203.050000
v -3.726000 28.206000 204.670000
v -3.726000 28.503000 203.860000
v -3.726000 28.503000 203.050000
v -3.726000 28.503000 204.670000
v -3.726000 28.800000 203.860000
v -3.726000 28.800000 204.670000
v -3.726000 29.097000 203.860000
v -3.726000 29.097000 204.670000
v -3.726000 29.394000 203.860000
v -3.726000 29.394000 204.670000
v -3.726000 29.394000 202.240000
v -3.726000 29.394000 203.050000
v -3.726000 29.691000 202.240000
v -3.726000 29.691000 204.670000
v -3.726000 29.691000 200.620000
v -3.726000 29.691000 201.430000
v -3.726000 29.988000 200.620000
v -3.726000 29.988000 204.670000
v -3.726000 29.988000 198.190000
v -3.726000 29.988000 199.000000
v -3.726000 30.285000 198.190000
v -3.726000 29.988000 199.810000
v -3.726000 30.285000 204.670000
v -3.726000 30.285000 195.760000
v -3.726000 30.285000 196.570000
v -3.726000 30.582000 195.760000
v -3.726000 30.285000 197.380000
v -3.726000 30.582000 204.670000
v -3.726000 30.582000 193.330000
v -3.726000 30.582000 194.140000
v -3.726000 30.879000 194.140000
v -3.726000 30.879000 193.330000
v -3.726000 30.582000 194.950000
v -3.726000 30.879000 194.950000
v -3.726000 30.879000 195.760000
v -3.726000 30.879000 196.570000
v -3.726000 30.879000 197.380000
v -3.726000 30.879000 198.190000
v -3.726000 30.879000 199.000000
v -3.726000 30.879000 199.810000
v -3.726000 30.879000 200.620000
v -3.726000 30.879000 201.430000
v -3.726000 30.879000 202.240000
v -3.726000 30.879000 203.050000
v -3.726000 30.879000 203.860000
v -3.726000 30.879000 204.670000
v -2.484000 26.721000 193.330000
v -2.484000 26.721000 194.140000
v -2.484000 27.018000 193.330000
v -2.484000 26.721000 194.950000
v -2.484000 26.721000 195.760000
v -2.484000 26.721000 196.570000
v -2.484000 26.721000 197.380000
v -2.484000 26.721000 198.190000
v -2.484000 26.721000 199.000000
v -2.484000 26.721000 199.810000
v -2.484000 26.721000 200.620000
v -2.484000 26.721000 201.430000
v -2.484000 26.721000 202.240000
v -2.484000 26.721000 203.050000
v -2.484000 26.721000 203.860000
v -2.484000 26.721000 204.670000
v -2.484000 27.018000 204.670000
v -2.484000 27.315000 194.140000
v -2.484000 27.315000 193.330000
v -2.484000 27.315000 194.950000
v -2.484000 27.315000 195.760000
v -2.484000 27.315000 196.570000
v -2.484000 27.315000 204.670000
v -2.484000 27.612000 197.380000
v -2.484000 27.612000 196.570000
v -2.484000 27.612000 198.190000
v -2.484000 27.612000 199.000000
v -2.484000 27.612000 204.670000
v -2.484000 27.909000 199.810000
v -2.484000 27.909000 199.000000
v -2.484000 27.909000 200.620000
v -2.484000 27.909000 201.430000
v -2.484000 27.909000 204.670000
v -2.484000 28.206000 202.240000
v -2.484000 28.206000 201.430000
v -2.484000 28.206000 203.050000
v -2.484000 28.206000 204.670000
v -2.484000 28.503000 203.860000
v -2.484000 28.503000 203.050000
v -2.484000 28.503000 204.670000
v -2.484000 28.800000 203.860000
v -2.484000 28.800000 204.670000
v -2.484000 29.097000 203.860000
v -2.484000 29.097000 204.670000
v -2.484000 29.394000 203.860000
v -2.484000 29.394000 204.670000
v -2.484000 29.394000 202.240000
v -2.484000 29.394000 203.050000
v -2.484000 29.691000 202.240000
v -2.484000 29.691000 204.670000
v -2.484000 29.691000 200.620000
v -2.484000 29.691000 201.430000
v -2.484000 29.988000 200.620000
v -2.484000 29.988000 204.670000
v -2.484000 29.988000 198.190000
v -2.484000 29.988000 199.000000
v -2.484000 30.285000 198.190000
v -2.484000 29.988000 199.810000
v -2.484000 30.285000 204.670000
v -2.484000 30.285000 195.760000
v -2.484000 30.285000 196.570000
v -2.484000 30.582000 195.760000
v -2.484000 30.285000 197.380000
v -2.484000 30.582000 204.670000
v -2.484000 30.582000 193.330000
v -2.484000 30.582000 194.140000
v -2.484000 30.879000 194.140000
v -2.484000 30.879000 193.330000
v -2.484000 30.582000 194.950000
v -2.484000 30.879000 194.950000
v -2.484000 30.879000 195.760000
v -2.484000 30.879000 196.570000
v -2.484000 30.879000 197.380000
v -2.484000 30.879000 198.190000
v -2.484000 30.879000 199.000000
v -2.484000 30.879000 199.810000
v -2.484000 30.879000 200.620000
v -2.484000 30.879000 201.430000
v -2.484000 30.879000 202.240000
v -2.484000 30.879000 203.050000
v -2.484000 30.879000 203.860000
v -2.484000 30.879000 204.670000
v -1.242000 26.721000 193.330000
v -1.242000 26.721000 194.140000
v -1.242000 27.018000 193.330000
v -1.242000 26.721000 194.950000
v -1.242000 26.721000 195.760000
v -1.242000 26.721000 196.570000
v -1.242000 26.721000 197.380000
v -1.242000 26.721000 198.190000
v -1.242000 26.721000 199.000000
v -1.242000 26.721000 199.810000
v -1.242000 26.721000 200.620000
v -1.242000 26.721000 201.430000
v -1.242000 26.721000 202.240000
v -1.242000 26.721000 203.050000
v -1.242000 26.721000 203.860000
v -1.242000 26.721000 204.670000
v -1.242000 27.018000 204.670000
v -1.242000 27.315000 194.140000
v -1.242000 27.315000 193.330000
v -1.242000 27.315000 194.950000
v -1.242000 27.315000 195.760000
v -1.242000 27.315000 196.570000
v -1.242000 27.315000 204.670000
v -1.242000 27.612000 197.380000
v -1.242000 27.612000 196.570000
v -1.242000 27.612000 198.190000
v -1.242000 27.612000 199.000000
v -1.242000 27.612000 204.670000
v -1.242000 27.909000 199.810000
v -1.242000 27.909000 199.000000
v -1.242000 27.909000 200.620000
v -1.242000 27.909000 201.430000
v -1.242000 27.909000 204.670000
v -1.242000 28.206000 202.240000
v -1.242000 28.206000 201.430000
v -1.242000 28.206000 203.050000
v -1.242000 28.206000 204.670000
v -1.242000 28.503000 203.860000
v -1.242000 28.503000 203.050000
v -1.242000 28.503000 204.670000
v -1.242000 28.800000 203.860000
v -1.242000 28.800000 204.670000
v -1.242000 29.097000 203.860000
v -1.242000 29.097000 204.670000
v -1.242000 29.394000 203.860000
v -1.242000 29.394000 204.670000
v -1.242000 29.394000 202.240000
v -1.242000 29.394000 203.050000
v -1.242000 29.691000 202.240000
v -1.242000 29.691000 204.670000
v -1.242000 29.691000 200.620000
v -1.242000 29.691000 201.430000
v -1.242000 29.988000 200.620000
v -1.242000 29.988000 204.670000
v -1.242000 29.988000 198.190000
v -1.242000 29.988000 199.000000
v -1.242000 30.285000 198.190000
v -1.242000 29.988000 199.810000
v -1.242000 30.285000 204.670000
v -1.242000 30.285000 195.760000
v -1.242000 30.285000 196.570000
v -1.242000 30.582000 195.760000
v -1.242000 30.285000 197.380000
v -1.242000 30.582000 204.670000
v -1.242000 30.582000 193.330000
v -1.242000 30.582000 194.140000
v -1.242000 30.879000 194.140000
v -1.242000 30.879000 193.330000
v -1.242000 30.582000 194.950000
v -1.242000 30.879000 194.950000
v -1.242000 30.879000 195.760000
v -1.242000 30.879000 196.570000
v -1.242000 30.879000 197.380000
v -1.242000 30.879000 198.190000
v -1.242000 30.879000 199.000000
v -1.242000 30.879000 199.810000
v -1.242000 30.879000 200.620000
v -1.242000 30.879000 201.430000
v -1.242000 30.879000 202.240000
v -1.242000 30.879000 203.050000
v -1.242000 30.879000 203.860000
v -1.242000 30.879000 204.670000
v -0.000000 26.721000 193.330000
v -0.000000 26.721000 194.140000
v -0.000000 27.018000 193.330000
v -0.000000 26.721000 194.950000
v -0.000000 26.721000 195.760000
v -0.000000 26.721000 196.570000
v -0.000000 26.721000 197.380000
v -0.000000 26.721000 198.190000
v -0.000000 26.721000 199.000000
v -0.000000 26.721000 199.810000
v -0.000000 26.721000 200.620000
v -0.000000 26.721000 201.430000
v -0.000000 26.721000 202.240000
v -0.000000 26.721000 203.050000
v -0.000000 26.721000 203.860000
v -0.000000 26.721000 204.670000
v -0.000000 27.018000 204.670000
v -0.000000 27.315000 194.140000
v -0.000000 27.315000 193.330000
v -0.000000 27.315000 194.950000
v -0.000000 27.315000 195.760000
v -0.000000 27.315000 196.570000
v -0.000000 27.315000 204.670000
v -0.000000 27.612000 197.380000
v -0.000000 27.612000 196.570000
v -0.000000 27.612000 198.190000
v -0.000000 27.612000 199.000000
v -0.000000 27.612000 204.670000
v -0.000000 27.909000 199.810000
v -0.000000 27.909000 199.000000
v -0.000000 27.909000 200.620000
v -0.000000 27.909000 201.430000
v -0.000000 27.909000 204.670000
v -0.000000 28.206000 202.240000
v -0.000000 28.206000 201.430000
v -0.000000 28.206000 203.050000
v -0.000000 28.206000 204.670000
v -0.000000 28.503000 203.860000
v -0.000000 28.503000 203.050000
v -0.000000 28.503000 204.670000
v -0.000000 28.800000 203.860000
v -0.000000 28.800000 204.670000
v -0.000000 29.097000 203.860000
v -0.000000 29.097000 204.670000
v -0.000000 29.394000 203.860000
v -0.000000 29.394000 204.670000
v -0.000000 29.394000 202.240000
v -0.000000 29.394000 203.050000
v -0.000000 29.691000 202.240000
v -0.000000 29.691000 204.670000
v -0.000000 29.691000 200.620000
v -0.000000 29.691000 201.430000
v -0.000000 29.988000 200.620000
v -0.000000 29.988000 204.670000
v -0.000000 29.988000 198.190000
v -0.000000 29.988000 199.000000
v -0.000000 30.285000 198.190000
v -0.000000 29.988000 199.810000
v -0.000000 30.285000 204.670000
v -0.000000 30.285000 195.760000
v -0.000000 30.285000 196.570000
v -0.000000 30.582000 195.760000
v -0.000000 30.285000 197.380000
v -0.000000 30.582000 204.670000
v -0.000000 30.582000 193.330000
v -0.000000 30.582000 194.140000
v -0.000000 30.879000 194.140000
v -0.000000 30.879000 193.330000
v -0.000000 30.582000 194.950000
v -0.000000 30.879000 194.950000
v -0.000000 30.879000 195.760000
v -0.000000 30.879000 196.570000
v -0.000000 30.879000 197.380000
v -0.000000 30.879000 198.190000
v -0.000000 30.879000 199.000000
v -0.000000 30.879000 199.810000
v -0.000000 30.879000 200.620000
v -0.000000 30.879000 201.430000
v -0.000000 30.879000 202.240000
v -0.000000 30.879000 203.050000
v -0.000000 30.879000 203.860000
v -0.000000 30.879000 204.670000
v 1.242000 26.721000 193.330000
v 1.242000 26.721000 194.140000
v 1.242000 27.018000 193.330000
v 1.242000 26.721000 194.950000
v 1.242000 26.721000 195.760000
v 1.242000 26.721000 196.570000
v 1.242000 26.721000 197.380000
v 1.242000 26.721000 198.190000
v 1.242000 26.721000 199.000000
v 1.242000 26.721000 199.810000
v 1.242000 26.721000 200.620000
v 1.242000 26.721000 201.430000
v 1.242000 26.721000 202.240000
v 1.242000 26.721000 203.050000
v 1.242000 26.721000 203.860000
v 1.242000 26.721000 204.670000
v 1.242000 27.018000 204.670000
v 1.242000 27.315000 194.140000
v 1.242000 27.315000 193.330000
v 1.242000 27.315000 194.950000
v 1.242000 27.315000 195.760000
v 1.242000 27.315000 196.570000
v 1.242000 27.315000 204.670000
v 1.242000 27.612000 197.380000
v 1.242000 27.612000 196.570000
v 1.242000 27.612000 198.190000
v 1.242000 27.612000 199.000000
v 1.242000 27.612000 204.670000
v 1.242000 27.909000 199.810000
v 1.242000 27.909000 199.000000
v 1.242000 27.909000 200.620000
v 1.242000 27.909000 201.430000
v 1.242000 27.909000 204.670000
v 1.242000 28.206000 202.240000
v 1.242000 28.206000 201.430000
v 1.242000 28.206000 203.050000
v 1.242000 28.206000 204.670000
v 1.242000 28.503000 203.860000
v 1.242000 28.503000 203.050000
v 1.242000 28.503000 204.670000
v 1.242000 28.800000 203.860000
v 1.242000 28.800000 204.670000
v 1.242000 29.097000 203.860000
v 1.242000 29.097000 204.670000
v 1.242000 29.394000 203.860000
v 1.242000 29.394000 204.670000
v 1.242000 29.394000 202.240000
v 1.242000 29.394000 203.050000
v 1.242000 29.691000 202.240000
v 1.242000 29.691000 204.670000
v 1.242000 29.691000 200.620000
v 1.242000 29.691000 201.430000
v 1.242000 29.988000 200.620000
v 1.242000 29.988000 204.670000
v 1.242000 29.988000 198.190000
v 1.242000 29.988000 199.000000
v 1.242000 30.285000 198.190000
v 1.242000 29.988000 199.810000
v 1.242000 30.285000 204.670000
v 1.242000 30.285000 195.760000
v 1.242000 30.285000 196.570000
v 1.242000 30.582000 195.760000
v 1.242000 30.285000 197.380000
v 1.242000 30.582000 204.670000
v 1.242000 30.582000 193.330000
v 1.242000 30.582000 194.140000
v 1.242000 30.879000 194.140000
v 1.242000 30.879000 193.330000
v 1.242000 30.582000 194.950000
v 1.242000 30.879000 194.950000
v 1.242000 30.879000 195.760000
v 1.242000 30.879000 196.570000
v 1.242000 30.879000 197.380000
v 1.242000 30.879000 198.190000
v 1.242000 30.879000 199.000000
v 1.242000 30.879000 199.810000
v 1.242000 30.879000 200.620000
v 1.242000 30.879000 201.430000
v 1.242000 30.879000 202.240000
v 1.242000 30.879000 203.050000
v 1.242000 30.879000 203.860000
v 1.242000 30.879000 204.670000
v 2.484000 26.721000 193.330000
v 2.484000 26.721000 194.140000
v 2.484000 27.018000 193.330000
v 2.484000 26.721000 194.950000
v 2.484000 26.721000 195.760000
v 2.484000 26.721000 196.570000
v 2.484000 26.721000 197.380000
v 2.484000 26.721000 198.190000
v 2.484000 26.721000 199.000000
v 2.484000 26.721000 199.810000
v 2.484000 26.721000 200.620000
v 2.484000 26.721000 201.430000
v 2.484000 26.721000 202.240000
v 2.484000 26.721000 203.050000
v 2.484000 26.721000 203.860000
v 2.484000 26.721000 204.670000
v 2.484000 27.018000 204.670000
v 2.484000 27.315000 194.140000
v 2.484000 27.315000 193.330000
v 2.484000 27.315000 194.950000
v 2.484000 27.315000 195.760000
v 2.484000 27.315000 196.570000
v 2.484000 27.315000 204.670000
v 2.484000 27.612000 197.380000
v 2.484000 27.612000 196.570000
v 2.484000 27.612000 198.190000
v 2.484000 27.612000 199.000000
v 2.484000 27.612000 204.670000
v 2.484000 27.909000 199.810000
v 2.484000 27.909000 199.000000
v 2.484000 27.909000 200.620000
v 2.484000 27.909000 201.430000
v 2.484000 27.909000 204.670000
v 2.484000 28.206000 202.240000
v 2.484000 28.206000 201.430000
v 2.484000 28.206000 203.050000
v 2.484000 28.206000 204.670000
v 2.484000 28.503000 203.860000
v 2.484000 28.503000 203.050000
v 2.484000 28.503000 204.670000
v 2.484000 28.800000 203.860000
v 2.484000 28.800000 204.670000
v 2.484000 29.097000 203.860000
v 2.484000 29.097000 204.670000
v 2.484000 29.394000 203.860000
v 2.484000 29.394000 204.670000
v 2.484000 29.394000 202.240000
v 2.484000 29.394000 203.050000
v 2.484000 29.691000 202.240000
v 2.484000 29.691000 204.670000
v 2.484000 29.691000 200.620000
v 2.484000 29.691000 201.430000
v 2.484000 29.988000 200.620000
v 2.484000 29.988000 204.670000
v 2.484000 29.988000 198.190000
v 2.484000 29.988000 199.000000
v 2.484000 30.285000 198.190000
v 2.484000 29.988000 199.810000
v 2.484000 30.285000 204.670000
v 2.484000 30.285000 195.760000
v 2.484000 30.285000 196.570000
v 2.484000 30.582000 195.760000
v 2.484000 30.285000 197.380000
v 2.484000 30.582000 204.670000
v 2.484000 30.582000 193.330000
v 2.484000 30.582000 194.140000
v 2.484000 30.879000 194.140000
v 2.484000 30.879000 193.330000
v 2.484000 30.582000 194.950000
v 2.484000 30.879000 194.950000
v 2.484000 30.879000 195.760000
v 2.484000 30.879000 196.570000
v 2.484000 30.879000 197.380000
v 2.484000 30.879000 198.190000
v 2.484000 30.879000 199.000000
v 2.484000 30.879000 199.810000
v 2.484000 30.879000 200.620000
v 2.484000 30.879000 201.430000
v 2.484000 30.879000 202.240000
v 2.484000 30.879000 203.050000
v 2.484000 30.879000 203.860000
v 2.484000 30.879000 204.670000
v 3.726000 26.721000 193.330000
v 3.726000 26.721000 194.140000
v 3.726000 27.018000 193.330000
v 3.726000 26.721000 194.950000
v 3.726000 26.721000 195.760000
v 3.726000 26.721000 196.570000
v 3.726000 26.721000 197.380000
v 3.726000 26.721000 198.190000
v 3.726000 26.721000 199.000000
v 3.726000 26.721000 199.810000
v 3.726000 26.721000 200.620000
v 3.726000 26.721000 201.430000
v 3.726000 26.721000 202.240000
v 3.726000 26.721000 203.050000
v 3.726000 26.721000 203.860000
v 3.726000 26.721000 204.670000
v 3.726000 27.018000 204.670000
v 3.726000 27.315000 194.140000
v 3.726000 27.315000 193.330000
v 3.726000 27.315000 194.950000
v 3.726000 27.315000 195.760000
v 3.726000 27.315000 196.570000
v 3.726000 27.315000 204.670000
v 3.726000 27.612000 197.380000
v 3.726000 27.612000 196.570000
v 3.726000 27.612000 198.190000
v 3.726000 27.612000 199.000000
v 3.726000 27.612000 204.670000
v 3.726000 27.909000 199.810000
v 3.726000 27.909000 199.000000
v 3.726000 27.909000 200.620000
v 3.726000 27.909000 201.430000
v 3.726000 27.909000 204.670000
v 3.726000 28.206000 202.240000
v 3.726000 28.206000 201.430000
v 3.726000 28.206000 203.050000
v 3.726000 28.206000 204.670000
v 3.726000 28.503000 203.860000
v 3.726000 28.503000 203.050000
v 3.726000 28.503000 204.670000
v 3.726000 28.800000 203.860000
v 3.726000 28.800000 204.670000
v 3.726000 29.097000 203.860000
v 3.726000 29.097000 204.670000
v 3.726000 29.394000 203.860000
v 3.726000 29.394000 204.670000
v 3.726000 29.394000 202.240000
v 3.726000 29.394000 203.050000
v 3.726000 29.691000 202.240000
v 3.726000 29.691000 204.670000
v 3.726000 29.691000 200.620000
v 3.726000 29.691000 201.430000
v 3.726000 29.988000 200.620000
v 3.726000 29.988000 204.670000
v 3.726000 29.988000 198.190000
v 3.726000 29.988000 199.000000
v 3.726000 30.285000 198.190000
v 3.726000 29.988000 199.810000
v 3.726000 30.285000 204.670000
v 3.726000 30.285000 195.760000
v 3.726000 30.285000 196.570000
v 3.726000 30.582000 195.760000
v 3.726000 30.285000 197.380000
v 3.726000 30.582000 204.670000
v 3.726000 30.582000 193.330000
v 3.726000 30.582000 194.140000
v 3.726000 30.879000 194.140000
v 3.726000 30.879000 193.330000
v 3.726000 30.582000 194.950000
v 3.726000 30.879000 194.950000
v 3.726000 30.879000 195.760000
v 3.726000 30.879000 196.570000
v 3.726000 30.879000 197.380000
v 3.726000 30.879000 198.190000
v 3.726000 30.879000 199.000000
v 3.726000 30.879000 199.810000
v 3.726000 30.879000 200.620000
v 3.726000 30.879000 201.430000
v 3.726000 30.879000 202.240000
v 3.726000 30.879000 203.050000
v 3.726000 30.879000 203.860000
v 3.726000 30.879000 204.670000
v 4.968000 26.721000 193.330000
v 4.968000 26.721000 194.140000
v 4.968000 27.018000 193.330000
v 4.968000 26.721000 194.950000
v 4.968000 26.721000 195.760000
v 4.968000 26.721000 196.570000
v 4.968000 26.721000 197.380000
v 4.968000 26.721000 198.190000
v 4.968000 26.721000 199.000000
v 4.968000 26.721000 199.810000
v 4.968000 26.721000 200.620000
v 4.968000 26.721000 201.430000
v 4.968000 26.721000 202.240000
v 4.968000 26.721000 203.050000
v 4.968000 26.721000 203.860000
v 4.968000 26.721000 204.670000
v 4.968000 27.018000 204.670000
v 4.968000 27.315000 194.140000
v 4.968000 27.315000 193.330000
v 4.968000 27.315000 194.950000
v 4.968000 27.315000 195.760000
v 4.968000 27.315000 196.570000
v 4.968000 27.315000 204.670000
v 4.968000 27.612000 197.380000
v 4.968000 27.612000 196.570000
v 4.968000 27.612000 198.190000
v 4.968000 27.612000 199.000000
v 4.968000 27.612000 204.670000
v 4.968000 27.909000 199.810000
v 4.968000 27.909000 199.000000
v 4.968000 27.909000 200.620000
v 4.968000 27.909000 201.430000
v 4.968000 27.909000 204.670000
v 4.968000 28.206000 202.240000
v 4.968000 28.206000 201.430000
v 4.968000 28.206000 203.050000
v 4.968000 28.206000 204.670000
v 4.968000 28.503000 203.860000
v 4.968000 28.503000 203.050000
v 4.968000 28.503000 204.670000
v 4.968000 28.800000 203.860000
v 4.968000 28.800000 204.670000
v 4.968000 29.097000 203.860000
v 4.968000 29.097000 204.670000
v 4.968000 29.394000 203.860000
v 4.968000 29.394000 204.670000
v 4.968000 29.394000 202.240000
v 4.968000 29.394000 203.050000
v 4.968000 29.691000 202.240000
v 4.968000 29.691000 204.670000
v 4.968000 29.691000 200.620000
v 4.968000 29.691000 201.430000
v 4.968000 29.988000 200.620000
v 4.968000 29.988000 204.670000
v 4.968000 29.988000 198.190000
v 4.968000 29.988000 199.000000
v 4.968000 30.285000 198.190000
v 4.968000 29.988000 199.810000
v 4.968000 30.285000 204.670000
v 4.968000 30.285000 195.760000
v 4.968000 30.285000 196.570000
v 4.968000 30.582000 195.760000
v 4.968000 30.285000 197.380000
v 4.968000 30.582000 204.670000
v 4.968000 30.582000 193.330000
v 4.968000 30.582000 194.140000
v 4.968000 30.879000 194.140000
v 4.968000 30.879000 193.330000
v 4.968000 30.582000 194.950000
v 4.968000 30.879000 194.950000
v 4.968000 30.879000 195.760000
v 4.968000 30.879000 196.570000
v 4.968000 30.879000 197.380000
v 4.968000 30.879000 198.190000
v 4.968000 30.879000 199.000000
v 4.968000 30.879000 199.810000
v 4.968000 30.879000 200.620000
v 4.968000 30.879000 201.430000
v 4.968000 30.879000 202.240000
v 4.968000 30.879000 203.050000
v 4.968000 30.879000 203.860000
v 4.968000 30.879000 204.670000
v 6.210000 26.721000 193.330000
v 6.210000 26.721000 194.140000
v 6.210000 27.018000 193.330000
v 6.210000 26.721000 194.950000
v 6.210000 26.721000 195.760000
v 6.210000 26.721000 196.570000
v 6.210000 26.721000 197.380000
v 6.210000 26.721000 198.190000
v 6.210000 26.721000 199.000000
v 6.210000 26.721000 199.810000
v 6.210000 26.721000 200.620000
v 6.210000 26.721000 201.430000
v 6.210000 26.721000 202.240000
v 6.210000 26.721000 203.050000
v 6.210000 26.721000 203.860000
v 6.210000 26.721000 204.670000
v 6.210000 27.018000 204.670000
v 6.210000 27.315000 194.140000
v 6.210000 27.315000 193.330000
v 6.210000 27.315000 194.950000
v 6.210000 27.315000 195.760000
v 6.210000 27.315000 196.570000
v 6.210000 27.315000 204.670000
v 6.210000 27.612000 197.380000
v 6.210000 27.612000 196.570000
v 6.210000 27.612000 198.190000
v 6.210000 27.612000 199.000000
v 6.210000 27.612000 204.670000
v 6.210000 27.909000 199.810000
v 6.210000 27.909000 199.000000
v 6.210000 27.909000 200.620000
v 6.210000 27.909000 201.430000
v 6.210000 27.909000 204.670000
v 6.210000 28.206000 202.240000
v 6.210000 28.206000 201.430000
v 6.210000 28.206000 203.050000
v 6.210000 28.206000 204.670000
v 6.210000 28.503000 203.860000
v 6.210000 28.503000 203.050000
v 6.210000 28.503000 204.670000
v 6.210000 28.800000 203.860000
v 6.210000 28.800000 204.670000
v 6.210000 29.097000 203.860000
v 6.210000 29.097000 204.670000
v 6.210000 29.394000 203.860000
v 6.210000 29.394000 204.670000
v 6.210000 29.394000 202.240000
v 6.210000 29.394000 203.050000
v 6.210000 29.691000 202.240000
v 6.210000 29.691000 204.670000
v 6.210000 29.691000 200.620000
v 6.210000 29.691000 201.430000
v 6.210000 29.988000 200.620000
v 6.210000 29.988000 204.670000
v 6.210000 29.988000 198.190000
v 6.210000 29.988000 199.000000
v 6.210000 30.285000 198.190000
v 6.210000 29.988000 199.810000
v 6.210000 30.285000 204.670000
v 6.210000 30.285000 195.760000
v 6.210000 30.285000 196.570000
v 6.210000 30.582000 195.760000
v 6.210000 30.285000 197.380000
v 6.210000 30.582000 204.670000
v 6.210000 30.582000 193.330000
v 6.210000 30.582000 194.140000
v 6.210000 30.879000 194.140000
v 6.210000 30.879000 193.330000
v 6.210000 30.582000 194.950000
v 6.210000 30.879000 194.950000
v 6.210000 30.879000 195.760000
v 6.210000 30.879000 196.570000
v 6.210000 30.879000 197.380000
v 6.210000 30.879000 198.190000
v 6.210000 30.879000 199.000000
v 6.210000 30.879000 199.810000
v 6.210000 30.879000 200.620000
v 6.210000 30.879000 201.430000
v 6.210000 30.879000 202.240000
v 6.210000 30.879000 203.050000
v 6.210000 30.879000 203.860000
v 6.210000 30.879000 204.670000
v 7.452000 26.721000 193.330000
v 7.452000 26.721000 194.140000
v 7.452000 27.018000 193.330000
v 7.452000 26.721000 194.950000
v 7.452000 26.721000 195.760000
v 7.452000 26.721000 196.570000
v 7.452000 26.721000 197.380000
v 7.452000 26.721000 198.190000
v 7.452000 26.721000 199.000000
v 7.452000 26.721000 199.810000
v 7.452000 26.721000 200.620000
v 7.452000 26.721000 201.430000
v 7.452000 26.721000 202.240000
v 7.452000 26.721000 203.050000
v 7.452000 26.721000 203.860000
v 7.452000 26.721000 204.670000
v 7.452000 27.018000 204.670000
v 7.452000 27.315000 194.140000
v 7.452000 27.315000 193.330000
v 7.452000 27.315000 194.950000
v 7.452000 27.315000 195.760000
v 7.452000 27.315000 196.570000
v 7.452000 27.315000 204.670000
v 7.452000 27.612000 197.380000
v 7.452000 27.612000 196.570000
v 7.452000 27.612000 198.190000
v 7.452000 27.612000 199.000000
v 7.452000 27.612000 204.670000
v 7.452000 27.909000 199.810000
v 7.452000 27.909000 199.000000
v 7.452000 27.909000 200.620000
v 7.452000 27.909000 201.430000
v 7.452000 27.909000 204.670000
v 7.452000 28.206000 202.240000
v 7.452000 28.206000 201.430000
v 7.452000 28.206000 203.050000
v 7.452000 28.206000 204.670000
v 7.452000 28.503000 203.860000
v 7.452000 28.503000 203.050000
v 7.452000 28.503000 204.670000
v 7.452000 28.800000 203.860000
v 7.452000 28.800000 204.670000
v 7.452000 29.097000 203.860000
v 7.452000 29.097000 204.670000
v 7.452000 29.394000 203.860000
v 7.452000 29.394000 204.670000
v 7.452000 29.394000 202.240000
v 7.452000 29.394000 203.050000
v 7.452000 29.691000 202.240000
v 7.452000 29.691000 204.670000
v 7.452000 29.691000 200.620000
v 7.452000 29.691000 201.430000
v 7.452000 29.988000 200.620000
v 7.452000 29.988000 204.670000
v 7.452000 29.988000 198.190000
v 7.452000 29.988000 199.000000
v 7.452000 30.285000 198.190000
v 7.452000 29.988000 199.810000
v 7.452000 30.285000 204.670000
v 7.452000 30.285000 195.760000
v 7.452000 30.285000 196.570000
v 7.452000 30.582000 195.760000
v 7.452000 30.285000 197.380000
v 7.452000 30.582000 204.670000
v 7.452000 30.582000 193.330000
v 7.452000 30.582000 194.140000
v 7.452000 30.879000 194.140000
v 7.452000 30.879000 193.330000
v 7.452000 30.582000 194.950000
v 7.452000 30.879000 194.950000
v 7.452000 30.879000 195.760000
v 7.452000 30.879000 196.570000
v 7.452000 30.879000 197.380000
v 7.452000 30.879000 198.190000
v 7.452000 30.879000 199.000000
v 7.452000 30.879000 199.810000
v 7.452000 30.879000 200.620000
v 7.452000 30.879000 201.430000
v 7.452000 30.879000 202.240000
v 7.452000 30.879000 203.050000
v 7.452000 30.879000 203.860000
v 7.452000 30.879000 204.670000
v 8.694000 26.721000 193.330000
v 8.694000 26.721000 194.140000
v 8.694000 27.018000 194.140000
v 8.694000 27.018000 193.330000
v 8.694000 26.721000 194.950000
v 8.694000 27.018000 194.950000
v 8.694000 26.721000 195.760000
v 8.694000 27.018000 195.760000
v 8.694000 26.721000 196.570000
v 8.694000 27.018000 196.570000
v 8.694000 26.721000 197.380000
v 8.694000 27.018000 197.380000
v 8.694000 26.721000 198.190000
v 8.694000 27.018000 198.190000
v 8.694000 26.721000 199.000000
v 8.694000 27.018000 199.000000
v 8.694000 26.721000 199.810000
v 8.694000 27.018000 199.810000
v 8.694000 26.721000 200.620000
v 8.694000 27.018000 200.620000
v 8.694000 26.721000 201.430000
v 8.694000 27.018000 201.430000
v 8.694000 26.721000 202.240000
v 8.694000 27.018000 202.240000
v 8.694000 26.721000 203.050000
v 8.694000 27.018000 203.050000
v 8.694000 26.721000 203.860000
v 8.694000 27.018000 203.860000
v 8.694000 26.721000 204.670000
v 8.694000 27.018000 204.670000
v 8.694000 27.315000 194.140000
v 8.694000 27.315000 193.330000
v 8.694000 27.315000 194.950000
v 8.694000 27.315000 195.760000
v 8.694000 27.315000 196.570000
v 8.694000 27.315000 197.380000
v 8.694000 27.315000 198.190000
v 8.694000 27.315000 199.000000
v 8.694000 27.315000 199.810000
v 8.694000 27.315000 200.620000
v 8.694000 27.315000 201.430000
v 8.694000 27.315000 202.240000
v 8.694000 27.315000 203.050000
v 8.694000 27.315000 203.860000
v 8.694000 27.315000 204.670000
v 8.694000 27.612000 197.380000
v 8.694000 27.612000 196.570000
v 8.694000 27.612000 198.190000
v 8.694000 27.612000 199.000000
v 8.694000 27.612000 199.810000
v 8.694000 27.612000 200.620000
v 8.694000 27.612000 201.430000
v 8.694000 27.612000 202.240000
v 8.694000 27.612000 203.050000
v 8.694000 27.612000 203.860000
v 8.694000 27.612000 204.670000
v 8.694000 27.909000 199.810000
v 8.694000 27.909000 199.000000
v 8.694000 27.909000 200.620000
v 8.694000 27.909000 201.430000
v 8.694000 27.909000 202.240000
v 8.694000 27.909000 203.050000
v 8.694000 27.909000 203.860000
v 8.694000 27.909000 204.670000
v 8.694000 28.206000 202.240000
v 8.694000 28.206000 201.430000
v 8.694000 28.206000 203.050000
v 8.694000 28.206000 203.860000
v 8.694000 28.206000 204.670000
v 8.694000 28.503000 203.860000
v 8.694000 28.503000 203.050000
v 8.694000 28.503000 204.670000
v 8.694000 28.800000 204.670000
v 8.694000 28.800000 203.860000
v 8.694000 29.097000 204.670000
v 8.694000 29.097000 203.860000
v 8.694000 29.394000 204.670000
v 8.694000 29.394000 203.860000
v 8.694000 29.394000 202.240000
v 8.694000 29.394000 203.050000
v 8.694000 29.691000 203.050000
v 8.694000 29.691000 202.240000
v 8.694000 29.691000 203.860000
v 8.694000 29.691000 204.670000
v 8.694000 29.691000 200.620000
v 8.694000 29.691000 201.430000
v 8.694000 29.988000 201.430000
v 8.694000 29.988000 200.620000
v 8.694000 29.988000 202.240000
v 8.694000 29.988000 203.050000
v 8.694000 29.988000 203.860000
v 8.694000 29.988000 204.670000
v 8.694000 29.988000 198.190000
v 8.694000 29.988000 199.000000
v 8.694000 30.285000 199.000000
v 8.694000 30.285000 198.190000
v 8.694000 29.988000 199.810000
v 8.694000 30.285000 199.810000
v 8.694000 30.285000 200.620000
v 8.694000 30.285000 201.430000
v 8.694000 30.285000 202.240000
v 8.694000 30.285000 203.050000
v 8.694000 30.285000 203.860000
v 8.694000 30.285000 204.670000
v 8.694000 30.285000 195.760000
v 8.694000 30.285000 196.570000
v 8.694000 30.582000 196.570000
v 8.694000 30.582000 195.760000
v 8.694000 30.285000 197.380000
v 8.694000 30.582000 197.380000
v 8.694000 30.582000 198.190000
v 8.694000 30.582000 199.000000
v 8.694000 30.582000 199.810000
v 8.694000 30.582000 200.620000
v 8.694000 30.582000 201.430000
v 8.694000 30.582000 202.240000
v 8.694000 30.582000 203.050000
v 8.694000 30.582000 203.860000
v 8.694000 30.582000 204.670000
v 8.694000 30.582000 193.330000
v 8.694000 30.582000 194.140000
v 8.694000 30.879000 194.140000
v 8.694000 30.879000 193.330000
v 8.694000 30.582000 194.950000
v 8.694000 30.879000 194.950000
v 8.694000 30.879000 195.760000
v 8.694000 30.879000 196.570000
v 8.694000 30.879000 197.380000
v 8.694000 30.879000 198.190000
v 8.694000 30.879000 199.000000
v 8.694000 30.879000 199.810000
v 8.694000 30.879000 200.620000
v 8.694000 30.879000 201.430000
v 8.694000 30.879000 202.240000
v 8.694000 30.879000 203.050000
v 8.694000 30.879000 203.860000
v 8.694000 30.879000 204.670000
f 1 2 3
f 1 3 4
f 1 5 6
f 1 6 4
f 1 2 7
f 1 7 5
f 4 3 8
f 4 8 9
f 4 6 10
f 4 10 9
f 9 8 11
f 9 11 12
f 9 10 13
f 9 13 12
f 12 11 14
f 12 14 15
f 12 13 16
f 12 16 15
f 15 14 17
f 15 17 18
f 15 16 19
f 15 19 18
f 18 17 20
f 18 20 21
f 18 19 22
f 18 22 21
f 21 20 23
f 21 23 24
f 21 22 25
f 21 25 24
f 24 23 26
f 24 26 27
f 24 25 28
f 24 28 27
f 27 26 29
f 27 29 30
f 27 28 31
f 27 31 30
f 30 29 32
f 30 32 33
f 30 31 34
f 30 34 33
f 33 32 35
f 33 35 36
f 33 34 37
f 33 37 36
f 36 35 38
f 36 38 39
f 36 37 40
f 36 40 39
f 39 38 41
f 39 41 42
f 39 40 43
f 39 43 42
f 42 41 44
f 42 44 45
f 42 43 46
f 42 46 45
f 45 46 47
f 45 47 44
f 2 48 49
f 2 49 3
f 48 49 50
f 48 50 51
f 2 48 51
f 2 51 7
f 3 49 52
f 3 52 8
f 49 52 53
f 49 53 50
f 8 52 54
f 8 54 11
f 52 54 55
f 52 55 53
f 11 54 56
f 11 56 14
f 54 56 57
f 54 57 55
f 14 56 58
f 14 58 17
f 17 58 59
f 17 59 20
f 20 59 60
f 20 60 23
f 23 60 61
f 23 61 26
f 26 61 62
f 26 62 29
f 29 62 63
f 29 63 32
f 32 63 64
f 32 64 35
f 35 64 65
f 35 65 38
f 38 65 66
f 38 66 41
f 41 66 67
f 41 67 44
f 44 47 68
f 44 68 67
f 56 69 70
f 56 70 58
f 69 70 71
f 69 71 72
f 56 69 72
f 56 72 57
f 58 70 73
f 58 73 59
f 70 73 74
f 70 74 71
f 59 73 75
f 59 75 60
f 73 75 76
f 73 76 74
f 60 75 77
f 60 77 61
f 61 77 78
f 61 78 62
f 62 78 79
f 62 79 63
f 63 79 80
f 63 80 64
f 64 80 81
f 64 81 65
f 65 81 82
f 65 82 66
f 66 82 83
f 66 83 67
f 67 68 84
f 67 84 83
f 75 85 86
f 75 86 77
f 85 86 87
f 85 87 88
f 75 85 88
f 75 88 76
f 77 86 89
f 77 89 78
f 86 89 90
f 86 90 87
f 78 89 91
f 78 91 79
f 89 91 92
f 89 92 90
f 79 91 93
f 79 93 80
f 80 93 94
f 80 94 81
f 81 94 95
f 81 95 82
f 82 95 96
f 82 96 83
f 83 84 97
f 83 97 96
f 91 98 99
f 91 99 93
f 98 99 100
f 98 100 101
f 91 98 101
f 91 101 92
f 93 99 102
f 93 102 94
f 99 102 103
f 99 103 100
f 94 102 104
f 94 104 95
f 95 104 105
f 95 105 96
f 96 97 106
f 96 106 105
f 102 107 108
f 102 108 104
f 107 108 109
f 107 109 110
f 102 107 110
f 102 110 103
f 104 108 111
f 104 111 105
f 105 106 112
f 105 112 111
f 108 113 114
f 108 114 111
f 108 113 115
f 108 115 109
f 111 112 116
f 111 116 114
f 113 117 118
f 113 118 114
f 113 117 119
f 113 119 115
f 114 116 120
f 114 120 118
f 117 121 122
f 117 122 118
f 117 121 123
f 117 123 119
f 118 120 124
f 118 124 122
f 125 126 127
f 125 127 128
f 125 129 130
f 125 130 128
f 125 126 131
f 125 131 129
f 128 127 132
f 128 132 121
f 128 130 123
f 128 123 121
f 121 132 133
f 121 133 122
f 122 124 134
f 122 134 133
f 135 136 137
f 135 137 138
f 135 139 140
f 135 140 138
f 135 136 141
f 135 141 139
f 138 137 142
f 138 142 126
f 138 140 131
f 138 131 126
f 126 142 143
f 126 143 127
f 127 143 144
f 127 144 132
f 132 144 145
f 132 145 133
f 133 134 146
f 133 146 145
f 147 148 149
f 147 149 150
f 147 151 152
f 147 152 150
f 147 148 153
f 147 153 151
f 150 149 154
f 150 154 155
f 150 152 156
f 150 156 155
f 155 154 157
f 155 157 136
f 155 156 141
f 155 141 136
f 136 157 158
f 136 158 137
f 137 158 159
f 137 159 142
f 142 159 160
f 142 160 143
f 143 160 161
f 143 161 144
f 144 161 162
f 144 162 145
f 145 146 163
f 145 163 162
f 164 165 166
f 164 166 167
f 164 168 169
f 164 169 167
f 164 165 170
f 164 170 168
f 167 166 171
f 167 171 172
f 167 169 173
f 167 173 172
f 172 171 174
f 172 174 148
f 172 173 153
f 172 153 148
f 148 174 175
f 148 175 149
f 149 175 176
f 149 176 154
f 154 176 177
f 154 177 157
f 157 177 178
f 157 178 158
f 158 178 179
f 158 179 159
f 159 179 180
f 159 180 160
f 160 180 181
f 160 181 161
f 161 181 182
f 161 182 162
f 162 163 183
f 162 183 182
f 184 185 186
f 184 186 187
f 184 188 189
f 184 189 187
f 185 186 190
f 185 190 191
f 184 185 191
f 184 191 188
f 187 186 192
f 187 192 193
f 187 189 194
f 187 194 193
f 186 192 195
f 186 195 190
f 193 192 196
f 193 196 165
f 193 194 170
f 193 170 165
f 192 196 197
f 192 197 195
f 165 196 198
f 165 198 166
f 196 198 199
f 196 199 197
f 166 198 200
f 166 200 171
f 198 200 201
f 198 201 199
f 171 200 202
f 171 202 174
f 200 202 203
f 200 203 201
f 174 202 204
f 174 204 175
f 202 204 205
f 202 205 203
f 175 204 206
f 175 206 176
f 204 206 207
f 204 207 205
f 176 206 208
f 176 208 177
f 206 208 209
f 206 209 207
f 177 208 210
f 177 210 178
f 208 210 211
f 208 211 209
f 178 210 212
f 178 212 179
f 210 212 213
f 210 213 211
f 179 212 214
f 179 214 180
f 212 214 215
f 212 215 213
f 180 214 216
f 180 216 181
f 214 216 217
f 214 217 215
f 181 216 218
f 181 218 182
f 216 218 219
f 216 219 217
f 182 183 219
f 182 219 218
f 5 220 221
f 5 221 6
f 5 7 222
f 5 222 220
f 6 221 223
f 6 223 10
f 10 223 224
f 10 224 13
f 13 224 225
f 13 225 16
f 16 225 226
f 16 226 19
f 19 226 227
f 19 227 22
f 22 227 228
f 22 228 25
f 25 228 229
f 25 229 28
f 28 229 230
f 28 230 31
f 31 230 231
f 31 231 34
f 34 231 232
f 34 232 37
f 37 232 233
f 37 233 40
f 40 233 234
f 40 234 43
f 43 234 235
f 43 235 46
f 46 235 236
f 46 236 47
f 51 50 237
f 51 237 238
f 7 51 238
f 7 238 222
f 50 53 239
f 50 239 237
f 53 55 240
f 53 240 239
f 55 57 241
f 55 241 240
f 47 236 242
f 47 242 68
f 72 71 243
f 72 243 244
f 57 72 244
f 57 244 241
f 71 74 245
f 71 245 243
f 74 76 246
f 74 246 245
f 68 242 247
f 68 247 84
f 88 87 248
f 88 248 249
f 76 88 249
f 76 249 246
f 87 90 250
f 87 250 248
f 90 92 251
f 90 251 250
f 84 247 252
f 84 252 97
f 101 100 253
f 101 253 254
f 92 101 254
f 92 254 251
f 100 103 255
f 100 255 253
f 97 252 256
f 97 256 106
f 110 109 257
f 110 257 258
f 103 110 258
f 103 258 255
f 106 256 259
f 106 259 112
f 109 115 260
f 109 260 257
f 112 259 261
f 112 261 116
f 115 119 262
f 115 262 260
f 116 261 263
f 116 263 120
f 119 123 264
f 119 264 262
f 120 263 265
f 120 265 124
f 129 266 267
f 129 267 130
f 129 131 268
f 129 268 266
f 130 267 264
f 130 264 123
f 124 265 269
f 124 269 134
f 139 270 271
f 139 271 140
f 139 141 272
f 139 272 270
f 140 271 268
f 140 268 131
f 134 269 273
f 134 273 146
f 151 274 275
f 151 275 152
f 151 153 276
f 151 276 274
f 152 275 277
f 152 277 156
f 156 277 272
f 156 272 141
f 146 273 278
f 146 278 163
f 168 279 280
f 168 280 169
f 168 170 281
f 168 281 279
f 169 280 282
f 169 282 173
f 173 282 276
f 173 276 153
f 163 278 283
f 163 283 183
f 188 284 285
f 188 285 189
f 191 190 286
f 191 286 287
f 188 191 287
f 188 287 284
f 189 285 288
f 189 288 194
f 190 195 289
f 190 289 286
f 194 288 281
f 194 281 170
f 195 197 290
f 195 290 289
f 197 199 291
f 197 291 290
f 199 201 292
f 199 292 291
f 201 203 293
f 201 293 292
f 203 205 294
f 203 294 293
f 205 207 295
f 205 295 294
f 207 209 296
f 207 296 295
f 209 211 297
f 209 297 296
f 211 213 298
f 211 298 297
f 213 215 299
f 213 299 298
f 215 217 300
f 215 300 299
f 217 219 301
f 217 301 300
f 183 283 301
f 183 301 219
f 220 302 303
f 220 303 221
f 220 222 304
f 220 304 302
f 221 303 305
f 221 305 223
f 223 305 306
f 223 306 224
f 224 306 307
f 224 307 225
f 225 307 308
f 225 308 226
f 226 308 309
f 226 309 227
f 227 309 310
f 227 310 228
f 228 310 311
f 228 311 229
f 229 311 312
f 229 312 230
f 230 312 313
f 230 313 231
f 231 313 314
f 231 314 232
f 232 314 315
f 232 315 233
f 233 315 316
f 233 316 234
f 234 316 317
f 234 317 235
f 235 317 318
f 235 318 236
f 238 237 319
f 238 319 320
f 222 238 320
f 222 320 304
f 237 239 321
f 237 321 319
f 239 240 322
f 239 322 321
f 240 241 323
f 240 323 322
f 236 318 324
f 236 324 242
f 244 243 325
f 244 325 326
f 241 244 326
f 241 326 323
f 243 245 327
f 243 327 325
f 245 246 328
f 245 328 327
f 242 324 329
f 242 329 247
f 249 248 330
f 249 330 331
f 246 249 331
f 246 331 328
f 248 250 332
f 248 332 330
f 250 251 333
f 250 333 332
f 247 329 334
f 247 334 252
f 254 253 335
f 254 335 336
f 251 254 336
f 251 336 333
f 253 255 337
f 253 337 335
f 252 334 338
f 252 338 256
f 258 257 339
f 258 339 340
f 255 258 340
f 255 340 337
f 256 338 341
f 256 341 259
f 257 260 342
f 257 342 339
f 259 341 343
f 259 343 261
f 260 262 344
f 260 344 342
f 261 343 345
f 261 345 263
f 262 264 346
f 262 346 344
f 263 345 347
f 263 347 265
f 266 348 349
f 266 349 267
f 266 268 350
f 266 350 348
f 267 349 346
f 267 346 264
f 265 347 351
f 265 351 269
f 270 352 353
f 270 353 271
f 270 272 354
f 270 354 352
f 271 353 350
f 271 350 268
f 269 351 355
f 269 355 273
f 274 356 357
f 274 357 275
f 274 276 358
f 274 358 356
f 275 357 359
f 275 359 277
f 277 359 354
f 277 354 272
f 273 355 360
f 273 360 278
f 279 361 362
f 279 362 280
f 279 281 363
f 279 363 361
f 280 362 364
f 280 364 282
f 282 364 358
f 282 358 276
f 278 360 365
f 278 365 283
f 284 366 367
f 284 367 285
f 287 286 368
f 287 368 369
f 284 287 369
f 284 369 366
f 285 367 370
f 285 370 288
f 286 289 371
f 286 371 368
f 288 370 363
f 288 363 281
f 289 290 372
f 289 372 371
f 290 291 373
f 290 373 372
f 291 292 374
f 291 374 373
f 292 293 375
f 292 375 374
f 293 294 376
f 293 376 375
f 294 295 377
f 294 377 376
f 295 296 378
f 295 378 377
f 296 297 379
f 296 379 378
f 297 298 380
f 297 380 379
f 298 299 381
f 298 381 380
f 299 300 382
f 299 382 381
f 300 301 383
f 300 383 382
f 283 365 383
f 283 383 301
f 302 384 385
f 302 385 303
f 302 304 386
f 302 386 384
f 303 385 387
f 303 387 305
f 305 387 388
f 305 388 306
f 306 388 389
f 306 389 307
f 307 389 390
f 307 390 308
f 308 390 391
f 308 391 309
f 309 391 392
f 309 392 310
f 310 392 393
f 310 393 311
f 311 393 394
f 311 394 312
f 312 394 395
f 312 395 313
f 313 395 396
f 313 396 314
f 314 396 397
f 314 397 315
f 315 397 398
f 315 398 316
f 316 398 399
f 316 399 317
f 317 399 400
f 317 400 318
f 320 319 401
f 320 401 402
f 304 320 402
f 304 402 386
f 319 321 403
f 319 403 401
f 321 322 404
f 321 404 403
f 322 323 405
f 322 405 404
f 318 400 406
f 318 406 324
f 326 325 407
f 326 407 408
f 323 326 408
f 323 408 405
f 325 327 409
f 325 409 407
f 327 328 410
f 327 410 409
f 324 406 411
f 324 411 329
f 331 330 412
f 331 412 413
f 328 331 413
f 328 413 410
f 330 332 414
f 330 414 412
f 332 333 415
f 332 415 414
f 329 411 416
f 329 416 334
f 336 335 417
f 336 417 418
f 333 336 418
f 333 418 415
f 335 337 419
f 335 419 417
f 334 416 420
f 334 420 338
f 340 339 421
f 340 421 422
f 337 340 422
f 337 422 419
f 338 420 423
f 338 423 341
f 339 342 424
f 339 424 421
f 341 423 425
f 341 425 343
f 342 344 426
f 342 426 424
f 343 425 427
f 343 427 345
f 344 346 428
f 344 428 426
f 345 427 429
f 345 429 347
f 348 430 431
f 348 431 349
f 348 350 432
f 348 432 430
f 349 431 428
f 349 428 346
f 347 429 433
f 347 433 351
f 352 434 435
f 352 435 353
f 352 354 436
f 352 436 434
f 353 435 432
f 353 432 350
f 351 433 437
f 351 437 355
f 356 438 439
f 356 439 357
f 356 358 440
f 356 440 438
f 357 439 441
f 357 441 359
f 359 441 436
f 359 436 354
f 355 437 442
f 355 442 360
f 361 443 444
f 361 444 362
f 361 363 445
f 361 445 443
f 362 444 446
f 362 446 364
f 364 446 440
f 364 440 358
f 360 442 447
f 360 447 365
f 366 448 449
f 366 449 367
f 369 368 450
f 369 450 451
f 366 369 451
f 366 451 448
f 367 449 452
f 367 452 370
f 368 371 453
f 368 453 450
f 370 452 445
f 370 445 363
f 371 372 454
f 371 454 453
f 372 373 455
f 372 455 454
f 373 374 456
f 373 456 455
f 374 375 457
f 374 457 456
f 375 376 458
f 375 458 457
f 376 377 459
f 376 459 458
f 377 378 460
f 377 460 459
f 378 379 461
f 378 461 460
f 379 380 462
f 379 462 461
f 380 381 463
f 380 463 462
f 381 382 464
f 381 464 463
f 382 383 465
f 382 465 464
f 365 447 465
f 365 465 383
f 384 466 467
f 384 467 385
f 384 386 468
f 384 468 466
f 385 467 469
f 385 469 387
f 387 469 470
f 387 470 388
f 388 470 471
f 388 471 389
f 389 471 472
f 389 472 390
f 390 472 473
f 390 473 391
f 391 473 474
f 391 474 392
f 392 474 475
f 392 475 393
f 393 475 476
f 393 476 394
f 394 476 477
f 394 477 395
f 395 477 478
f 395 478 396
f 396 478 479
f 396 479 397
f 397 479 480
f 397 480 398
f 398 480 481
f 398 481 399
f 399 481 482
f 399 482 400
f 402 401 483
f 402 483 484
f 386 402 484
f 386 484 468
f 401 403 485
f 401 485 483
f 403 404 486
f 403 486 485
f 404 405 487
f 404 487 486
f 400 482 488
f 400 488 406
f 408 407 489
f 408 489 490
f 405 408 490
f 405 490 487
f 407 409 491
f 407 491 489
f 409 410 492
f 409 492 491
f 406 488 493
f 406 493 411
f 413 412 494
f 413 494 495
f 410 413 495
f 410 495 492
f 412 414 496
f 412 496 494
f 414 415 497
f 414 497 496
f 411 493 498
f 411 498 416
f 418 417 499
f 418 499 500
f 415 418 500
f 415 500 497
f 417 419 501
f 417 501 499
f 416 498 502
f 416 502 420
f 422 421 503
f 422 503 504
f 419 422 504
f 419 504 501
f 420 502 505
f 420 505 423
f 421 424 506
f 421 506 503
f 423 505 507
f 423 507 425
f 424 426 508
f 424 508 506
f 425 507 509
f 425 509 427
f 426 428 510
f 426 510 508
f 427 509 511
f 427 511 429
f 430 512 513
f 430 513 431
f 430 432 514
f 430 514 512
f 431 513 510
f 431 510 428
f 429 511 515
f 429 515 433
f 434 516 517
f 434 517 435
f 434 436 518
f 434 518 516
f 435 517 514
f 435 514 432
f 433 515 519
f 433 519 437
f 438 520 521
f 438 521 439
f 438 440 522
f 438 522 520
f 439 521 523
f 439 523 441
f 441 523 518
f 441 518 436
f 437 519 524
f 437 524 442
f 443 525 526
f 443 526 444
f 443 445 527
f 443 527 525
f 444 526 528
f 444 528 446
f 446 528 522
f 446 522 440
f 442 524 529
f 442 529 447
f 448 530 531
f 448 531 449
f 451 450 532
f 451 532 533
f 448 451 533
f 448 533 530
f 449 531 534
f 449 534 452
f 450 453 535
f 450 535 532
f 452 534 527
f 452 527 445
f 453 454 536
f 453 536 535
f 454 455 537
f 454 537 536
f 455 456 538
f 455 538 537
f 456 457 539
f 456 539 538
f 457 458 540
f 457 540 539
f 458 459 541
f 458 541 540
f 459 460 542
f 459 542 541
f 460 461 543
f 460 543 542
f 461 462 544
f 461 544 543
f 462 463 545
f 462 545 544
f 463 464 546
f 463 546 545
f 464 465 547
f 464 547 546
f 447 529 547
f 447 547 465
f 466 548 549
f 466 549 467
f 466 468 550
f 466 550 548
f 467 549 551
f 467 551 469
f 469 551 552
f 469 552 470
f 470 552 553
f 470 553 471
f 471 553 554
f 471 554 472
f 472 554 555
f 472 555 473
f 473 555 556
f 473 556 474
f 474 556 557
f 474 557 475
f 475 557 558
f 475 558 476
f 476 558 559
f 476 559 477
f 477 559 560
f 477 560 478
f 478 560 561
f 478 561 479
f 479 561 562
f 479 562 480
f 480 562 563
f 480 563 481
f 481 563 564
f 481 564 482
f 484 483 565
f 484 565 566
f 468 484 566
f 468 566 550
f 483 485 567
f 483 567 565
f 485 486 568
f 485 568 567
f 486 487 569
f 486 569 568
f 482 564 570
f 482 570 488
f 490 489 571
f 490 571 572
f 487 490 572
f 487 572 569
f 489 491 573
f 489 573 571
f 491 492 574
f 491 574 573
f 488 570 575
f 488 575 493
f 495 494 576
f 495 576 577
f 492 495 577
f 492 577 574
f 494 496 578
f 494 578 576
f 496 497 579
f 496 579 578
f 493 575 580
f 493 580 498
f 500 499 581
f 500 581 582
f 497 500 582
f 497 582 579
f 499 501 583
f 499 583 581
f 498 580 584
f 498 584 502
f 504 503 585
f 504 585 586
f 501 504 586
f 501 586 583
f 502 584 587
f 502 587 505
f 503 506 588
f 503 588 585
f 505 587 589
f 505 589 507
f 506 508 590
f 506 590 588
f 507 589 591
f 507 591 509
f 508 510 592
f 508 592 590
f 509 591 593
f 509 593 511
f 512 594 595
f 512 595 513
f 512 514 596
f 512 596 594
f 513 595 592
f 513 592 510
f 511 593 597
f 511 597 515
f 516 598 599
f 516 599 517
f 516 518 600
f 516 600 598
f 517 599 596
f 517 596 514
f 515 597 601
f 515 601 519
f 520 602 603
f 520 603 521
f 520 522 604
f 520 604 602
f 521 603 605
f 521 605 523
f 523 605 600
f 523 600 518
f 519 601 606
f 519 606 524
f 525 607 608
f 525 608 526
f 525 527 609
f 525 609 607
f 526 608 610
f 526 610 528
f 528 610 604
f 528 604 522
f 524 606 611
f 524 611 529
f 530 612 613
f 530 613 531
f 533 532 614
f 533 614 615
f 530 533 615
f 530 615 612
f 531 613 616
f 531 616 534
f 532 535 617
f 532 617 614
f 534 616 609
f 534 609 527
f 535 536 618
f 535 618 617
f 536 537 619
f 536 619 618
f 537 538 620
f 537 620 619
f 538 539 621
f 538 621 620
f 539 540 622
f 539 622 621
f 540 541 623
f 540 623 622
f 541 542 624
f 541 624 623
f 542 543 625
f 542 625 624
f 543 544 626
f 543 626 625
f 544 545 627
f 544 627 626
f 545 546 628
f 545 628 627
f 546 547 629
f 546 629 628
f 529 611 629
f 529 629 547
f 548 630 631
f 548 631 549
f 548 550 632
f 548 632 630
f 549 631 633
f 549 633 551
f 551 633 634
f 551 634 552
f 552 634 635
f 552 635 553
f 553 635 636
f 553 636 554
f 554 636 637
f 554 637 555
f 555 637 638
f 555 638 556
f 556 638 639
f 556 639 557
f 557 639 640
f 557 640 558
f 558 640 641
f 558 641 559
f 559 641 642
f 559 642 560
f 560 642 643
f 560 643 561
f 561 643 644
f 561 644 562
f 562 644 645
f 562 645 563
f 563 645 646
f 563 646 564
f 566 565 647
f 566 647 648
f 550 566 648
f 550 648 632
f 565 567 649
f 565 649 647
f 567 568 650
f 567 650 649
f 568 569 651
f 568 651 650
f 564 646 652
f 564 652 570
f 572 571 653
f 572 653 654
f 569 572 654
f 569 654 651
f 571 573 655
f 571 655 653
f 573 574 656
f 573 656 655
f 570 652 657
f 570 657 575
f 577 576 658
f 577 658 659
f 574 577 659
f 574 659 656
f 576 578 660
f 576 660 658
f 578 579 661
f 578 661 660
f 575 657 662
f 575 662 580
f 582 581 663
f 582 663 664
f 579 582 664
f 579 664 661
f 581 583 665
f 581 665 663
f 580 662 666
f 580 666 584
f 586 585 667
f 586 667 668
f 583 586 668
f 583 668 665
f 584 666 669
f 584 669 587
f 585 588 670
f 585 670 667
f 587 669 671
f 587 671 589
f 588 590 672
f 588 672 670
f 589 671 673
f 589 673 591
f 590 592 674
f 590 674 672
f 591 673 675
f 591 675 593
f 594 676 677
f 594 677 595
f 594 596 678
f 594 678 676
f 595 677 674
f 595 674 592
f 593 675 679
f 593 679 597
f 598 680 681
f 598 681 599
f 598 600 682
f 598 682 680
f 599 681 678
f 599 678 596
f 597 679 683
f 597 683 601
f 602 684 685
f 602 685 603
f 602 604 686
f 602 686 684
f 603 685 687
f 603 687 605
f 605 687 682
f 605 682 600
f 601 683 688
f 601 688 606
f 607 689 690
f 607 690 608
f 607 609 691
f 607 691 689
f 608 690 692
f 608 692 610
f 610 692 686
f 610 686 604
f 606 688 693
f 606 693 611
f 612 694 695
f 612 695 613
f 615 614 696
f 615 696 697
f 612 615 697
f 612 697 694
f 613 695 698
f 613 698 616
f 614 617 699
f 614 699 696
f 616 698 691
f 616 691 609
f 617 618 700
f 617 700 699
f 618 619 701
f 618 701 700
f 619 620 702
f 619 702 701
f 620 621 703
f 620 703 702
f 621 622 704
f 621 704 703
f 622 623 705
f 622 705 704
f 623 624 706
f 623 706 705
f 624 625 707
f 624 707 706
f 625 626 708
f 625 708 707
f 626 627 709
f 626 709 708
f 627 628 710
f 627 710 709
f 628 629 711
f 628 711 710
f 611 693 711
f 611 711 629
f 630 712 713
f 630 713 631
f 630 632 714
f 630 714 712
f 631 713 715
f 631 715 633
f 633 715 716
f 633 716 634
f 634 716 717
f 634 717 635
f 635 717 718
f 635 718 636
f 636 718 719
f 636 719 637
f 637 719 720
f 637 720 638
f 638 720 721
f 638 721 639
f 639 721 722
f 639 722 640
f 640 722 723
f 640 723 641
f 641 723 724
f 641 724 642
f 642 724 725
f 642 725 643
f 643 725 726
f 643 726 644
f 644 726 727
f 644 727 645
f 645 727 728
f 645 728 646
f 648 647 729
f 648 729 730
f 632 648 730
f 632 730 714
f 647 649 731
f 647 731 729
f 649 650 732
f 649 732 731
f 650 651 733
f 650 733 732
f 646 728 734
f 646 734 652
f 654 653 735
f 654 735 736
f 651 654 736
f 651 736 733
f 653 655 737
f 653 737 735
f 655 656 738
f 655 738 737
f 652 734 739
f 652 739 657
f 659 658 740
f 659 740 741
f 656 659 741
f 656 741 738
f 658 660 742
f 658 742 740
f 660 661 743
f 660 743 742
f 657 739 744
f 657 744 662
f 664 663 745
f 664 745 746
f 661 664 746
f 661 746 743
f 663 665 747
f 663 747 745
f 662 744 748
f 662 748 666
f 668 667 749
f 668 749 750
f 665 668 750
f 665 750 747
f 666 748 751
f 666 751 669
f 667 670 752
f 667 752 749
f 669 751 753
f 669 753 671
f 670 672 754
f 670 754 752
f 671 753 755
f 671 755 673
f 672 674 756
f 672 756 754
f 673 755 757
f 673 757 675
f 676 758 759
f 676 759 677
f 676 678 760
f 676 760 758
f 677 759 756
f 677 756 674
f 675 757 761
f 675 761 679
f 680 762 763
f 680 763 681
f 680 682 764
f 680 764 762
f 681 763 760
f 681 760 678
f 679 761 765
f 679 765 683
f 684 766 767
f 684 767 685
f 684 686 768
f 684 768 766
f 685 767 769
f 685 769 687
f 687 769 764
f 687 764 682
f 683 765 770
f 683 770 688
f 689 771 772
f 689 772 690
f 689 691 773
f 689 773 771
f 690 772 774
f 690 774 692
f 692 774 768
f 692 768 686
f 688 770 775
f 688 775 693
f 694 776 777
f 694 777 695
f 697 696 778
f 697 778 779
f 694 697 779
f 694 779 776
f 695 777 780
f 695 780 698
f 696 699 781
f 696 781 778
f 698 780 773
f 698 773 691
f 699 700 782
f 699 782 781
f 700 701 783
f 700 783 782
f 701 702 784
f 701 784 783
f 702 703 785
f 702 785 784
f 703 704 786
f 703 786 785
f 704 705 787
f 704 787 786
f 705 706 788
f 705 788 787
f 706 707 789
f 706 789 788
f 707 708 790
f 707 790 789
f 708 709 791
f 708 791 790
f 709 710 792
f 709 792 791
f 710 711 793
f 710 793 792
f 693 775 793
f 693 793 711
f 712 794 795
f 712 795 713
f 712 714 796
f 712 796 794
f 713 795 797
f 713 797 715
f 715 797 798
f 715 798 716
f 716 798 799
f 716 799 717
f 717 799 800
f 717 800 718
f 718 800 801
f 718 801 719
f 719 801 802
f 719 802 720
f 720 802 803
f 720 803 721
f 721 803 804
f 721 804 722
f 722 804 805
f 722 805 723
f 723 805 806
f 723 806 724
f 724 806 807
f 724 807 725
f 725 807 808
f 725 808 726
f 726 808 809
f 726 809 727
f 727 809 810
f 727 810 728
f 730 729 811
f 730 811 812
f 714 730 812
f 714 812 796
f 729 731 813
f 729 813 811
f 731 732 814
f 731 814 813
f 732 733 815
f 732 815 814
f 728 810 816
f 728 816 734
f 736 735 817
f 736 817 818
f 733 736 818
f 733 818 815
f 735 737 819
f 735 819 817
f 737 738 820
f 737 820 819
f 734 816 821
f 734 821 739
f 741 740 822
f 741 822 823
f 738 741 823
f 738 823 820
f 740 742 824
f 740 824 822
f 742 743 825
f 742 825 824
f 739 821 826
f 739 826 744
f 746 745 827
f 746 827 828
f 743 746 828
f 743 828 825
f 745 747 829
f 745 829 827
f 744 826 830
f 744 830 748
f 750 749 831
f 750 831 832
f 747 750 832
f 747 832 829
f 748 830 833
f 748 833 751
f 749 752 834
f 749 834 831
f 751 833 835
f 751 835 753
f 752 754 836
f 752 836 834
f 753 835 837
f 753 837 755
f 754 756 838
f 754 838 836
f 755 837 839
f 755 839 757
f 758 840 841
f 758 841 759
f 758 760 842
f 758 842 840
f 759 841 838
f 759 838 756
f 757 839 843
f 757 843 761
f 762 844 845
f 762 845 763
f 762 764 846
f 762 846 844
f 763 845 842
f 763 842 760
f 761 843 847
f 761 847 765
f 766 848 849
f 766 849 767
f 766 768 850
f 766 850 848
f 767 849 851
f 767 851 769
f 769 851 846
f 769 846 764
f 765 847 852
f 765 852 770
f 771 853 854
f 771 854 772
f 771 773 855
f 771 855 853
f 772 854 856
f 772 856 774
f 774 856 850
f 774 850 768
f 770 852 857
f 770 857 775
f 776 858 859
f 776 859 777
f 779 778 860
f 779 860 861
f 776 779 861
f 776 861 858
f 777 859 862
f 777 862 780
f 778 781 863
f 778 863 860
f 780 862 855
f 780 855 773
f 781 782 864
f 781 864 863
f 782 783 865
f 782 865 864
f 783 784 866
f 783 866 865
f 784 785 867
f 784 867 866
f 785 786 868
f 785 868 867
f 786 787 869
f 786 869 868
f 787 788 870
f 787 870 869
f 788 789 871
f 788 871 870
f 789 790 872
f 789 872 871
f 790 791 873
f 790 873 872
f 791 792 874
f 791 874 873
f 792 793 875
f 792 875 874
f 775 857 875
f 775 875 793
f 794 876 877
f 794 877 795
f 794 796 878
f 794 878 876
f 795 877 879
f 795 879 797
f 797 879 880
f 797 880 798
f 798 880 881
f 798 881 799
f 799 881 882
f 799 882 800
f 800 882 883
f 800 883 801
f 801 883 884
f 801 884 802
f 802 884 885
f 802 885 803
f 803 885 886
f 803 886 804
f 804 886 887
f 804 887 805
f 805 887 888
f 805 888 806
f 806 888 889
f 806 889 807
f 807 889 890
f 807 890 808
f 808 890 891
f 808 891 809
f 809 891 892
f 809 892 810
f 812 811 893
f 812 893 894
f 796 812 894
f 796 894 878
f 811 813 895
f 811 895 893
f 813 814 896
f 813 896 895
f 814 815 897
f 814 897 896
f 810 892 898
f 810 898 816
f 818 817 899
f 818 899 900
f 815 818 900
f 815 900 897
f 817 819 901
f 817 901 899
f 819 820 902
f 819 902 901
f 816 898 903
f 816 903 821
f 823 822 904
f 823 904 905
f 820 823 905
f 820 905 902
f 822 824 906
f 822 906 904
f 824 825 907
f 824 907 906
f 821 903 908
f 821 908 826
f 828 827 909
f 828 909 910
f 825 828 910
f 825 910 907
f 827 829 911
f 827 911 909
f 826 908 912
f 826 912 830
f 832 831 913
f 832 913 914
f 829 832 914
f 829 914 911
f 830 912 915
f 830 915 833
f 831 834 916
f 831 916 913
f 833 915 917
f 833 917 835
f 834 836 918
f 834 918 916
f 835 917 919
f 835 919 837
f 836 838 920
f 836 920 918
f 837 919 921
f 837 921 839
f 840 922 923
f 840 923 841
f 840 842 924
f 840 924 922
f 841 923 920
f 841 920 838
f 839 921 925
f 839 925 843
f 844 926 927
f 844 927 845
f 844 846 928
f 844 928 926
f 845 927 924
f 845 924 842
f 843 925 929
f 843 929 847
f 848 930 931
f 848 931 849
f 848 850 932
f 848 932 930
f 849 931 933
f 849 933 851
f 851 933 928
f 851 928 846
f 847 929 934
f 847 934 852
f 853 935 936
f 853 936 854
f 853 855 937
f 853 937 935
f 854 936 938
f 854 938 856
f 856 938 932
f 856 932 850
f 852 934 939
f 852 939 857
f 858 940 941
f 858 941 859
f 861 860 942
f 861 942 943
f 858 861 943
f 858 943 940
f 859 941 944
f 859 944 862
f 860 863 945
f 860 945 942
f 862 944 937
f 862 937 855
f 863 864 946
f 863 946 945
f 864 865 947
f 864 947 946
f 865 866 948
f 865 948 947
f 866 867 949
f 866 949 948
f 867 868 950
f 867 950 949
f 868 869 951
f 868 951 950
f 869 870 952
f 869 952 951
f 870 871 953
f 870 953 952
f 871 872 954
f 871 954 953
f 872 873 955
f 872 955 954
f 873 874 956
f 873 956 955
f 874 875 957
f 874 957 956
f 857 939 957
f 857 957 875
f 876 958 959
f 876 959 877
f 876 878 960
f 876 960 958
f 877 959 961
f 877 961 879
f 879 961 962
f 879 962 880
f 880 962 963
f 880 963 881
f 881 963 964
f 881 964 882
f 882 964 965
f 882 965 883
f 883 965 966
f 883 966 884
f 884 966 967
f 884 967 885
f 885 967 968
f 885 968 886
f 886 968 969
f 886 969 887
f 887 969 970
f 887 970 888
f 888 970 971
f 888 971 889
f 889 971 972
f 889 972 890
f 890 972 973
f 890 973 891
f 891 973 974
f 891 974 892
f 894 893 975
f 894 975 976
f 878 894 976
f 878 976 960
f 893 895 977
f 893 977 975
f 895 896 978
f 895 978 977
f 896 897 979
f 896 979 978
f 892 974 980
f 892 980 898
f 900 899 981
f 900 981 982
f 897 900 982
f 897 982 979
f 899 901 983
f 899 983 981
f 901 902 984
f 901 984 983
f 898 980 985
f 898 985 903
f 905 904 986
f 905 986 987
f 902 905 987
f 902 987 984
f 904 906 988
f 904 988 986
f 906 907 989
f 906 989 988
f 903 985 990
f 903 990 908
f 910 909 991
f 910 991 992
f 907 910 992
f 907 992 989
f 909 911 993
f 909 993 991
f 908 990 994
f 908 994 912
f 914 913 995
f 914 995 996
f 911 914 996
f 911 996 993
f 912 994 997
f 912 997 915
f 913 916 998
f 913 998 995
f 915 997 999
f 915 999 917
f 916 918 1000
f 916 1000 998
f 917 999 1001
f 917 1001 919
f 918 920 1002
f 918 1002 1000
f 919 1001 1003
f 919 1003 921
f 922 1004 1005
f 922 1005 923
f 922 924 1006
f 922 1006 1004
f 923 1005 1002
f 923 1002 920
f 921 1003 1007
f 921 1007 925
f 926 1008 1009
f 926 1009 927
f 926 928 1010
f 926 1010 1008
f 927 1009 1006
f 927 1006 924
f 925 1007 1011
f 925 1011 929
f 930 1012 1013
f 930 1013 931
f 930 932 1014
f 930 1014 1012
f 931 1013 1015
f 931 1015 933
f 933 1015 1010
f 933 1010 928
f 929 1011 1016
f 929 1016 934
f 935 1017 1018
f 935 1018 936
f 935 937 1019
f 935 1019 1017
f 936 1018 1020
f 936 1020 938
f 938 1020 1014
f 938 1014 932
f 934 1016 1021
f 934 1021 939
f 940 1022 1023
f 940 1023 941
f 943 942 1024
f 943 1024 1025
f 940 943 1025
f 940 1025 1022
f 941 1023 1026
f 941 1026 944
f 942 945 1027
f 942 1027 1024
f 944 1026 1019
f 944 1019 937
f 945 946 1028
f 945 1028 1027
f 946 947 1029
f 946 1029 1028
f 947 948 1030
f 947 1030 1029
f 948 949 1031
f 948 1031 1030
f 949 950 1032
f 949 1032 1031
f 950 951 1033
f 950 1033 1032
f 951 952 1034
f 951 1034 1033
f 952 953 1035
f 952 1035 1034
f 953 954 1036
f 953 1036 1035
f 954 955 1037
f 954 1037 1036
f 955 956 1038
f 955 1038 1037
f 956 957 1039
f 956 1039 1038
f 939 1021 1039
f 939 1039 957
f 958 1040 1041
f 958 1041 959
f 958 960 1042
f 958 1042 1040
f 959 1041 1043
f 959 1043 961
f 961 1043 1044
f 961 1044 962
f 962 1044 1045
f 962 1045 963
f 963 1045 1046
f 963 1046 964
f 964 1046 1047
f 964 1047 965
f 965 1047 1048
f 965 1048 966
f 966 1048 1049
f 966 1049 967
f 967 1049 1050
f 967 1050 968
f 968 1050 1051
f 968 1051 969
f 969 1051 1052
f 969 1052 970
f 970 1052 1053
f 970 1053 971
f 971 1053 1054
f 971 1054 972
f 972 1054 1055
f 972 1055 973
f 973 1055 1056
f 973 1056 974
f 976 975 1057
f 976 1057 1058
f 960 976 1058
f 960 1058 1042
f 975 977 1059
f 975 1059 1057
f 977 978 1060
f 977 1060 1059
f 978 979 1061
f 978 1061 1060
f 974 1056 1062
f 974 1062 980
f 982 981 1063
f 982 1063 1064
f 979 982 1064
f 979 1064 1061
f 981 983 1065
f 981 1065 1063
f 983 984 1066
f 983 1066 1065
f 980 1062 1067
f 980 1067 985
f 987 986 1068
f 987 1068 1069
f 984 987 1069
f 984 1069 1066
f 986 988 1070
f 986 1070 1068
f 988 989 1071
f 988 1071 1070
f 985 1067 1072
f 985 1072 990
f 992 991 1073
f 992 1073 1074
f 989 992 1074
f 989 1074 1071
f 991 993 1075
f 991 1075 1073
f 990 1072 1076
f 990 1076 994
f 996 995 1077
f 996 1077 1078
f 993 996 1078
f 993 1078 1075
f 994 1076 1079
f 994 1079 997
f 995 998 1080
f 995 1080 1077
f 997 1079 1081
f 997 1081 999
f 998 1000 1082
f 998 1082 1080
f 999 1081 1083
f 999 1083 1001
f 1000 1002 1084
f 1000 1084 1082
f 1001 1083 1085
f 1001 1085 1003
f 1004 1086 1087
f 1004 1087 1005
f 1004 1006 1088
f 1004 1088 1086
f 1005 1087 1084
f 1005 1084 1002
f 1003 1085 1089
f 1003 1089 1007
f 1008 1090 1091
f 1008 1091 1009
f 1008 1010 1092
f 1008 1092 1090
f 1009 1091 1088
f 1009 1088 1006
f 1007 1089 1093
f 1007 1093 1011
f 1012 1094 1095
f 1012 1095 1013
f 1012 1014 1096
f 1012 1096 1094
f 1013 1095 1097
f 1013 1097 1015
f 1015 1097 1092
f 1015 1092 1010
f 1011 1093 1098
f 1011 1098 1016
f 1017 1099 1100
f 1017 1100 1018
f 1017 1019 1101
f 1017 1101 1099
f 1018 1100 1102
f 1018 1102 1020
f 1020 1102 1096
f 1020 1096 1014
f 1016 1098 1103
f 1016 1103 1021
f 1022 1104 1105
f 1022 1105 1023
f 1025 1024 1106
f 1025 1106 1107
f 1022 1025 1107
f 1022 1107 1104
f 1023 1105 1108
f 1023 1108 1026
f 1024 1027 1109
f 1024 1109 1106
f 1026 1108 1101
f 1026 1101 1019
f 1027 1028 1110
f 1027 1110 1109
f 1028 1029 1111
f 1028 1111 1110
f 1029 1030 1112
f 1029 1112 1111
f 1030 1031 1113
f 1030 1113 1112
f 1031 1032 1114
f 1031 1114 1113
f 1032 1033 1115
f 1032 1115 1114
f 1033 1034 1116
f 1033 1116 1115
f 1034 1035 1117
f 1034 1117 1116
f 1035 1036 1118
f 1035 1118 1117
f 1036 1037 1119
f 1036 1119 1118
f 1037 1038 1120
f 1037 1120 1119
f 1038 1039 1121
f 1038 1121 1120
f 1021 1103 1121
f 1021 1121 1039
f 1040 1122 1123
f 1040 1123 1041
f 1040 1042 1124
f 1040 1124 1122
f 1041 1123 1125
f 1041 1125 1043
f 1043 1125 1126
f 1043 1126 1044
f 1044 1126 1127
f 1044 1127 1045
f 1045 1127 1128
f 1045 1128 1046
f 1046 1128 1129
f 1046 1129 1047
f 1047 1129 1130
f 1047 1130 1048
f 1048 1130 1131
f 1048 1131 1049
f 1049 1131 1132
f 1049 1132 1050
f 1050 1132 1133
f 1050 1133 1051
f 1051 1133 1134
f 1051 1134 1052
f 1052 1134 1135
f 1052 1135 1053
f 1053 1135 1136
f 1053 1136 1054
f 1054 1136 1137
f 1054 1137 1055
f 1055 1137 1138
f 1055 1138 1056
f 1058 1057 1139
f 1058 1139 1140
f 1042 1058 1140
f 1042 1140 1124
f 1057 1059 1141
f 1057 1141 1139
f 1059 1060 1142
f 1059 1142 1141
f 1060 1061 1143
f 1060 1143 1142
f 1056 1138 1144
f 1056 1144 1062
f 1064 1063 1145
f 1064 1145 1146
f 1061 1064 1146
f 1061 1146 1143
f 1063 1065 1147
f 1063 1147 1145
f 1065 1066 1148
f 1065 1148 1147
f 1062 1144 1149
f 1062 1149 1067
f 1069 1068 1150
f 1069 1150 1151
f 1066 1069 1151
f 1066 1151 1148
f 1068 1070 1152
f 1068 1152 1150
f 1070 1071 1153
f 1070 1153 1152
f 1067 1149 1154
f 1067 1154 1072
f 1074 1073 1155
f 1074 1155 1156
f 1071 1074 1156
f 1071 1156 1153
f 1073 1075 1157
f 1073 1157 1155
f 1072 1154 1158
f 1072 1158 1076
f 1078 1077 1159
f 1078 1159 1160
f 1075 1078 1160
f 1075 1160 1157
f 1076 1158 1161
f 1076 1161 1079
f 1077 1080 1162
f 1077 1162 1159
f 1079 1161 1163
f 1079 1163 1081
f 1080 1082 1164
f 1080 1164 1162
f 1081 1163 1165
f 1081 1165 1083
f 1082 1084 1166
f 1082 1166 1164
f 1083 1165 1167
f 1083 1167 1085
f 1086 1168 1169
f 1086 1169 1087
f 1086 1088 1170
f 1086 1170 1168
f 1087 1169 1166
f 1087 1166 1084
f 1085 1167 1171
f 1085 1171 1089
f 1090 1172 1173
f 1090 1173 1091
f 1090 1092 1174
f 1090 1174 1172
f 1091 1173 1170
f 1091 1170 1088
f 1089 1171 1175
f 1089 1175 1093
f 1094 1176 1177
f 1094 1177 1095
f 1094 1096 1178
f 1094 1178 1176
f 1095 1177 1179
f 1095 1179 1097
f 1097 1179 1174
f 1097 1174 1092
f 1093 1175 1180
f 1093 1180 1098
f 1099 1181 1182
f 1099 1182 1100
f 1099 1101 1183
f 1099 1183 1181
f 1100 1182 1184
f 1100 1184 1102
f 1102 1184 1178
f 1102 1178 1096
f 1098 1180 1185
f 1098 1185 1103
f 1104 1186 1187
f 1104 1187 1105
f 1107 1106 1188
f 1107 1188 1189
f 1104 1107 1189
f 1104 1189 1186
f 1105 1187 1190
f 1105 1190 1108
f 1106 1109 1191
f 1106 1191 1188
f 1108 1190 1183
f 1108 1183 1101
f 1109 1110 1192
f 1109 1192 1191
f 1110 1111 1193
f 1110 1193 1192
f 1111 1112 1194
f 1111 1194 1193
f 1112 1113 1195
f 1112 1195 1194
f 1113 1114 1196
f 1113 1196 1195
f 1114 1115 1197
f 1114 1197 1196
f 1115 1116 1198
f 1115 1198 1197
f 1116 1117 1199
f 1116 1199 1198
f 1117 1118 1200
f 1117 1200 1199
f 1118 1119 1201
f 1118 1201 1200
f 1119 1120 1202
f 1119 1202 1201
f 1120 1121 1203
f 1120 1203 1202
f 1103 1185 1203
f 1103 1203 1121
f 1204 1205 1206
f 1204 1206 1207
f 1122 1204 1205
f 1122 1205 1123
f 1122 1124 1207
f 1122 1207 1204
f 1205 1208 1209
f 1205 1209 1206
f 1123 1205 1208
f 1123 1208 1125
f 1208 1210 1211
f 1208 1211 1209
f 1125 1208 1210
f 1125 1210 1126
f 1210 1212 1213
f 1210 1213 1211
f 1126 1210 1212
f 1126 1212 1127
f 1212 1214 1215
f 1212 1215 1213
f 1127 1212 1214
f 1127 1214 1128
f 1214 1216 1217
f 1214 1217 1215
f 1128 1214 1216
f 1128 1216 1129
f 1216 1218 1219
f 1216 1219 1217
f 1129 1216 1218
f 1129 1218 1130
f 1218 1220 1221
f 1218 1221 1219
f 1130 1218 1220
f 1130 1220 1131
f 1220 1222 1223
f 1220 1223 1221
f 1131 1220 1222
f 1131 1222 1132
f 1222 1224 1225
f 1222 1225 1223
f 1132 1222 1224
f 1132 1224 1133
f 1224 1226 1227
f 1224 1227 1225
f 1133 1224 1226
f 1133 1226 1134
f 1226 1228 1229
f 1226 1229 1227
f 1134 1226 1228
f 1134 1228 1135
f 1228 1230 1231
f 1228 1231 1229
f 1135 1228 1230
f 1135 1230 1136
f 1230 1232 1233
f 1230 1233 1231
f 1136 1230 1232
f 1136 1232 1137
f 1137 1232 1233
f 1137 1233 1138
f 1207 1206 1234
f 1207 1234 1235
f 1140 1139 1234
f 1140 1234 1235
f 1124 1140 1235
f 1124 1235 1207
f 1206 1209 1236
f 1206 1236 1234
f 1139 1141 1236
f 1139 1236 1234
f 1209 1211 1237
f 1209 1237 1236
f 1141 1142 1237
f 1141 1237 1236
f 1211 1213 1238
f 1211 1238 1237
f 1142 1143 1238
f 1142 1238 1237
f 1213 1215 1239
f 1213 1239 1238
f 1215 1217 1240
f 1215 1240 1239
f 1217 1219 1241
f 1217 1241 1240
f 1219 1221 1242
f 1219 1242 1241
f 1221 1223 1243
f 1221 1243 1242
f 1223 1225 1244
f 1223 1244 1243
f 1225 1227 1245
f 1225 1245 1244
f 1227 1229 1246
f 1227 1246 1245
f 1229 1231 1247
f 1229 1247 1246
f 1231 1233 1248
f 1231 1248 1247
f 1138 1233 1248
f 1138 1248 1144
f 1238 1239 1249
f 1238 1249 1250
f 1146 1145 1249
f 1146 1249 1250
f 1143 1146 1250
f 1143 1250 1238
f 1239 1240 1251
f 1239 1251 1249
f 1145 1147 1251
f 1145 1251 1249
f 1240 1241 1252
f 1240 1252 1251
f 1147 1148 1252
f 1147 1252 1251
f 1241 1242 1253
f 1241 1253 1252
f 1242 1243 1254
f 1242 1254 1253
f 1243 1244 1255
f 1243 1255 1254
f 1244 1245 1256
f 1244 1256 1255
f 1245 1246 1257
f 1245 1257 1256
f 1246 1247 1258
f 1246 1258 1257
f 1247 1248 1259
f 1247 1259 1258
f 1144 1248 1259
f 1144 1259 1149
f 1252 1253 1260
f 1252 1260 1261
f 1151 1150 1260
f 1151 1260 1261
f 1148 1151 1261
f 1148 1261 1252
f 1253 1254 1262
f 1253 1262 1260
f 1150 1152 1262
f 1150 1262 1260
f 1254 1255 1263
f 1254 1263 1262
f 1152 1153 1263
f 1152 1263 1262
f 1255 1256 1264
f 1255 1264 1263
f 1256 1257 1265
f 1256 1265 1264
f 1257 1258 1266
f 1257 1266 1265
f 1258 1259 1267
f 1258 1267 1266
f 1149 1259 1267
f 1149 1267 1154
f 1263 1264 1268
f 1263 1268 1269
f 1156 1155 1268
f 1156 1268 1269
f 1153 1156 1269
f 1153 1269 1263
f 1264 1265 1270
f 1264 1270 1268
f 1155 1157 1270
f 1155 1270 1268
f 1265 1266 1271
f 1265 1271 1270
f 1266 1267 1272
f 1266 1272 1271
f 1154 1267 1272
f 1154 1272 1158
f 1270 1271 1273
f 1270 1273 1274
f 1160 1159 1273
f 1160 1273 1274
f 1157 1160 1274
f 1157 1274 1270
f 1271 1272 1275
f 1271 1275 1273
f 1158 1272 1275
f 1158 1275 1161
f 1273 1275 1276
f 1273 1276 1277
f 1159 1162 1277
f 1159 1277 1273
f 1161 1275 1276
f 1161 1276 1163
f 1277 1276 1278
f 1277 1278 1279
f 1162 1164 1279
f 1162 1279 1277
f 1163 1276 1278
f 1163 1278 1165
f 1279 1278 1280
f 1279 1280 1281
f 1164 1166 1281
f 1164 1281 1279
f 1165 1278 1280
f 1165 1280 1167
f 1282 1283 1284
f 1282 1284 1285
f 1168 1282 1283
f 1168 1283 1169
f 1168 1170 1285
f 1168 1285 1282
f 1283 1281 1286
f 1283 1286 1284
f 1169 1283 1281
f 1169 1281 1166
f 1281 1280 1287
f 1281 1287 1286
f 1167 1280 1287
f 1167 1287 1171
f 1288 1289 1290
f 1288 1290 1291
f 1172 1288 1289
f 1172 1289 1173
f 1172 1174 1291
f 1172 1291 1288
f 1289 1285 1292
f 1289 1292 1290
f 1173 1289 1285
f 1173 1285 1170
f 1285 1284 1293
f 1285 1293 1292
f 1284 1286 1294
f 1284 1294 1293
f 1286 1287 1295
f 1286 1295 1294
f 1171 1287 1295
f 1171 1295 1175
f 1296 1297 1298
f 1296 1298 1299
f 1176 1296 1297
f 1176 1297 1177
f 1176 1178 1299
f 1176 1299 1296
f 1297 1300 1301
f 1297 1301 1298
f 1177 1297 1300
f 1177 1300 1179
f 1300 1291 1302
f 1300 1302 1301
f 1179 1300 1291
f 1179 1291 1174
f 1291 1290 1303
f 1291 1303 1302
f 1290 1292 1304
f 1290 1304 1303
f 1292 1293 1305
f 1292 1305 1304
f 1293 1294 1306
f 1293 1306 1305
f 1294 1295 1307
f 1294 1307 1306
f 1175 1295 1307
f 1175 1307 1180
f 1308 1309 1310
f 1308 1310 1311
f 1181 1308 1309
f 1181 1309 1182
f 1181 1183 1311
f 1181 1311 1308
f 1309 1312 1313
f 1309 1313 1310
f 1182 1309 1312
f 1182 1312 1184
f 1312 1299 1314
f 1312 1314 1313
f 1184 1312 1299
f 1184 1299 1178
f 1299 1298 1315
f 1299 1315 1314
f 1298 1301 1316
f 1298 1316 1315
f 1301 1302 1317
f 1301 1317 1316
f 1302 1303 1318
f 1302 1318 1317
f 1303 1304 1319
f 1303 1319 1318
f 1304 1305 1320
f 1304 1320 1319
f 1305 1306 1321
f 1305 1321 1320
f 1306 1307 1322
f 1306 1322 1321
f 1180 1307 1322
f 1180 1322 1185
f 1323 1324 1325
f 1323 1325 1326
f 1186 1323 1324
f 1186 1324 1187
f 1189 1188 1325
f 1189 1325 1326
f 1186 1189 1326
f 1186 1326 1323
f 1324 1327 1328
f 1324 1328 1325
f 1187 1324 1327
f 1187 1327 1190
f 1188 1191 1328
f 1188 1328 1325
f 1327 1311 1329
f 1327 1329 1328
f 1190 1327 1311
f 1190 1311 1183
f 1191 1192 1329
f 1191 1329 1328
f 1311 1310 1330
f 1311 1330 1329
f 1192 1193 1330
f 1192 1330 1329
f 1310 1313 1331
f 1310 1331 1330
f 1193 1194 1331
f 1193 1331 1330
f 1313 1314 1332
f 1313 1332 1331
f 1194 1195 1332
f 1194 1332 1331
f 1314 1315 1333
f 1314 1333 1332
f 1195 1196 1333
f 1195 1333 1332
f 1315 1316 1334
f 1315 1334 1333
f 1196 1197 1334
f 1196 1334 1333
f 1316 1317 1335
f 1316 1335 1334
f 1197 1198 1335
f 1197 1335 1334
f 1317 1318 1336
f 1317 1336 1335
f 1198 1199 1336
f 1198 1336 1335
f 1318 1319 1337
f 1318 1337 1336
f 1199 1200 1337
f 1199 1337 1336
f 1319 1320 1338
f 1319 1338 1337
f 1200 1201 1338
f 1200 1338 1337
f 1320 1321 1339
f 1320 1339 1338
f 1201 1202 1339
f 1201 1339 1338
f 1321 1322 1340
f 1321 1340 1339
f 1202 1203 1340
f 1202 1340 1339
f 1185 1322 1340
f 1185 1340 1203
