o [4B] 3D Diagram - S2-06 Group A_971
v -8.694000 9.121000 193.330000
v -8.694000 9.418000 193.330000
v -8.694000 9.418000 194.140000
v -8.694000 9.121000 194.140000
v -7.452000 9.121000 193.330000
v -7.452000 9.121000 194.140000
v -7.452000 9.418000 194.140000
v -7.452000 9.418000 193.330000
v -8.694000 9.418000 194.950000
v -8.694000 9.121000 194.950000
v -7.452000 9.121000 194.950000
v -8.694000 9.418000 195.760000
v -8.694000 9.121000 195.760000
v -7.452000 9.121000 195.760000
v -8.694000 9.418000 196.570000
v -8.694000 9.121000 196.570000
v -7.452000 9.121000 196.570000
v -8.694000 9.418000 197.380000
v -8.694000 9.121000 197.380000
v -7.452000 9.121000 197.380000
v -8.694000 9.418000 198.190000
v -8.694000 9.121000 198.190000
v -7.452000 9.121000 198.190000
v -8.694000 9.418000 199.000000
v -8.694000 9.121000 199.000000
v -7.452000 9.121000 199.000000
v -8.694000 9.418000 199.810000
v -8.694000 9.121000 199.810000
v -7.452000 9.121000 199.810000
v -8.694000 9.418000 200.620000
v -8.694000 9.121000 200.620000
v -7.452000 9.121000 200.620000
v -8.694000 9.418000 201.430000
v -8.694000 9.121000 201.430000
v -7.452000 9.121000 201.430000
v -8.694000 9.418000 202.240000
v -8.694000 9.121000 202.240000
v -7.452000 9.121000 202.240000
v -8.694000 9.418000 203.050000
v -8.694000 9.121000 203.050000
v -7.452000 9.121000 203.050000
v -8.694000 9.418000 203.860000
v -8.694000 9.121000 203.860000
v -7.452000 9.121000 203.860000
v -8.694000 9.418000 204.670000
v -8.694000 9.121000 204.670000
v -7.452000 9.121000 204.670000
v -7.452000 9.418000 204.670000
v -8.694000 9.715000 194.140000
v -8.694000 9.715000 194.950000
v -7.452000 9.715000 194.950000
v -7.452000 9.715000 194.140000
v -8.694000 9.715000 195.760000
v -7.452000 9.715000 195.760000
v -8.694000 9.715000 196.570000
v -7.452000 9.715000 196.570000
v -8.694000 9.715000 197.380000
v -7.452000 9.715000 197.380000
v -8.694000 9.715000 198.190000
v -8.694000 9.715000 199.000000
v -8.694000 9.715000 199.810000
v -8.694000 9.715000 200.620000
v -8.694000 9.715000 201.430000
v -8.694000 9.715000 202.240000
v -8.694000 9.715000 203.050000
v -8.694000 9.715000 203.860000
v -8.694000 9.715000 204.670000
v -7.452000 9.715000 204.670000
v -8.694000 10.012000 197.380000
v -8.694000 10.012000 198.190000
v -7.452000 10.012000 198.190000
v -7.452000 10.012000 197.380000
v -8.694000 10.012000 199.000000
v -7.452000 10.012000 199.000000
v -8.694000 10.012000 199.810000
v -7.452000 10.012000 199.810000
v -8.694000 10.012000 200.620000
v -8.694000 10.012000 201.430000
v -8.694000 10.012000 202.240000
v -8.694000 10.012000 203.050000
v -8.694000 10.012000 203.860000
v -8.694000 10.012000 204.670000
v -7.452000 10.012000 204.670000
v -8.694000 10.309000 199.810000
v -8.694000 10.309000 200.620000
v -7.452000 10.309000 200.620000
v -7.452000 10.309000 199.810000
v -8.694000 10.309000 201.430000
v -7.452000 10.309000 201.430000
v -8.694000 10.309000 202.240000
v -7.452000 10.309000 202.240000
v -8.694000 10.309000 203.050000
v -8.694000 10.309000 203.860000
v -8.694000 10.309000 204.670000
v -7.452000 10.309000 204.670000
v -8.694000 10.606000 202.240000
v -8.694000 10.606000 203.050000
v -7.452000 10.606000 203.050000
v -7.452000 10.606000 202.240000
v -8.694000 10.606000 203.860000
v -8.694000 10.606000 204.670000
v -7.452000 10.606000 204.670000
v -8.694000 10.903000 203.050000
v -8.694000 10.903000 203.860000
v -7.452000 10.903000 203.860000
v -7.452000 10.903000 203.050000
v -8.694000 10.903000 204.670000
v -7.452000 10.903000 204.670000
v -8.694000 11.200000 203.860000
v -8.694000 11.200000 204.670000
v -7.452000 11.200000 203.860000
v -7.452000 11.200000 204.670000
v -8.694000 11.497000 203.860000
v -8.694000 11.497000 204.670000
v -7.452000 11.497000 203.860000
v -7.452000 11.497000 204.670000
v -8.694000 11.497000 203.050000
v -8.694000 11.794000 203.050000
v -8.694000 11.794000 203.860000
v -7.452000 11.497000 203.050000
v -7.452000 11.794000 203.050000
v -8.694000 11.794000 204.670000
v -7.452000 11.794000 204.670000
v -8.694000 11.794000 202.240000
v -8.694000 12.091000 202.240000
v -8.694000 12.091000 203.050000
v -7.452000 11.794000 202.240000
v -7.452000 12.091000 202.240000
v -8.694000 12.091000 203.860000
v -8.694000 12.091000 204.670000
v -7.452000 12.091000 204.670000
v -8.694000 12.091000 199.810000
v -8.694000 12.388000 199.810000
v -8.694000 12.388000 200.620000
v -8.694000 12.091000 200.620000
v -7.452000 12.091000 199.810000
v -7.452000 12.091000 200.620000
v -7.452000 12.388000 199.810000
v -8.694000 12.388000 201.430000
v -8.694000 12.091000 201.430000
v -7.452000 12.091000 201.430000
v -8.694000 12.388000 202.240000
v -8.694000 12.388000 203.050000
v -8.694000 12.388000 203.860000
v -8.694000 12.388000 204.670000
v -7.452000 12.388000 204.670000
v -8.694000 12.388000 197.380000
v -8.694000 12.685000 197.380000
v -8.694000 12.685000 198.190000
v -8.694000 12.388000 198.190000
v -7.452000 12.388000 197.380000
v -7.452000 12.388000 198.190000
v -7.452000 12.685000 197.380000
v -8.694000 12.685000 199.000000
v -8.694000 12.388000 199.000000
v -7.452000 12.388000 199.000000
v -8.694000 12.685000 199.810000
v -8.694000 12.685000 200.620000
v -8.694000 12.685000 201.430000
v -8.694000 12.685000 202.240000
v -8.694000 12.685000 203.050000
v -8.694000 12.685000 203.860000
v -8.694000 12.685000 204.670000
v -7.452000 12.685000 204.670000
v -8.694000 12.685000 194.140000
v -8.694000 12.982000 194.140000
v -8.694000 12.982000 194.950000
v -8.694000 12.685000 194.950000
v -7.452000 12.685000 194.140000
v -7.452000 12.685000 194.950000
v -7.452000 12.982000 194.140000
v -8.694000 12.982000 195.760000
v -8.694000 12.685000 195.760000
v -7.452000 12.685000 195.760000
v -8.694000 12.982000 196.570000
v -8.694000 12.685000 196.570000
v -7.452000 12.685000 196.570000
v -8.694000 12.982000 197.380000
v -8.694000 12.982000 198.190000
v -8.694000 12.982000 199.000000
v -8.694000 12.982000 199.810000
v -8.694000 12.982000 200.620000
v -8.694000 12.982000 201.430000
v -8.694000 12.982000 202.240000
v -8.694000 12.982000 203.050000
v -8.694000 12.982000 203.860000
v -8.694000 12.982000 204.670000
v -7.452000 12.982000 204.670000
v -8.694000 12.982000 193.330000
v -8.694000 13.279000 193.330000
v -8.694000 13.279000 194.140000
v -7.452000 12.982000 193.330000
v -7.452000 13.279000 194.140000
v -7.452000 13.279000 193.330000
v -8.694000 13.279000 194.950000
v -7.452000 13.279000 194.950000
v -8.694000 13.279000 195.760000
v -7.452000 13.279000 195.760000
v -8.694000 13.279000 196.570000
v -7.452000 13.279000 196.570000
v -8.694000 13.279000 197.380000
v -7.452000 13.279000 197.380000
v -8.694000 13.279000 198.190000
v -7.452000 13.279000 198.190000
v -8.694000 13.279000 199.000000
v -7.452000 13.279000 199.000000
v -8.694000 13.279000 199.810000
v -7.452000 13.279000 199.810000
v -8.694000 13.279000 200.620000
v -7.452000 13.279000 200.620000
v -8.694000 13.279000 201.430000
v -7.452000 13.279000 201.430000
v -8.694000 13.279000 202.240000
v -7.452000 13.279000 202.240000
v -8.694000 13.279000 203.050000
v -7.452000 13.279000 203.050000
v -8.694000 13.279000 203.860000
v -7.452000 13.279000 203.860000
v -8.694000 13.279000 204.670000
v -7.452000 13.279000 204.670000
v -6.210000 9.121000 193.330000
v -6.210000 9.121000 194.140000
v -6.210000 9.418000 194.140000
v -6.210000 9.418000 193.330000
v -6.210000 9.121000 194.950000
v -6.210000 9.121000 195.760000
v -6.210000 9.121000 196.570000
v -6.210000 9.121000 197.380000
v -6.210000 9.121000 198.190000
v -6.210000 9.121000 199.000000
v -6.210000 9.121000 199.810000
v -6.210000 9.121000 200.620000
v -6.210000 9.121000 201.430000
v -6.210000 9.121000 202.240000
v -6.210000 9.121000 203.050000
v -6.210000 9.121000 203.860000
v -6.210000 9.121000 204.670000
v -6.210000 9.418000 204.670000
v -6.210000 9.715000 194.950000
v -6.210000 9.715000 194.140000
v -6.210000 9.715000 195.760000
v -6.210000 9.715000 196.570000
v -6.210000 9.715000 197.380000
v -6.210000 9.715000 204.670000
v -6.210000 10.012000 198.190000
v -6.210000 10.012000 197.380000
v -6.210000 10.012000 199.000000
v -6.210000 10.012000 199.810000
v -6.210000 10.012000 204.670000
v -6.210000 10.309000 200.620000
v -6.210000 10.309000 199.810000
v -6.210000 10.309000 201.430000
v -6.210000 10.309000 202.240000
v -6.210000 10.309000 204.670000
v -6.210000 10.606000 203.050000
v -6.210000 10.606000 202.240000
v -6.210000 10.606000 204.670000
v -6.210000 10.903000 203.860000
v -6.210000 10.903000 203.050000
v -6.210000 10.903000 204.670000
v -6.210000 11.200000 203.860000
v -6.210000 11.200000 204.670000
v -6.210000 11.497000 203.860000
v -6.210000 11.497000 204.670000
v -6.210000 11.497000 203.050000
v -6.210000 11.794000 203.050000
v -6.210000 11.794000 204.670000
v -6.210000 11.794000 202.240000
v -6.210000 12.091000 202.240000
v -6.210000 12.091000 204.670000
v -6.210000 12.091000 199.810000
v -6.210000 12.091000 200.620000
v -6.210000 12.388000 199.810000
v -6.210000 12.091000 201.430000
v -6.210000 12.388000 204.670000
v -6.210000 12.388000 197.380000
v -6.210000 12.388000 198.190000
v -6.210000 12.685000 197.380000
v -6.210000 12.388000 199.000000
v -6.210000 12.685000 204.670000
v -6.210000 12.685000 194.140000
v -6.210000 12.685000 194.950000
v -6.210000 12.982000 194.140000
v -6.210000 12.685000 195.760000
v -6.210000 12.685000 196.570000
v -6.210000 12.982000 204.670000
v -6.210000 12.982000 193.330000
v -6.210000 13.279000 194.140000
v -6.210000 13.279000 193.330000
v -6.210000 13.279000 194.950000
v -6.210000 13.279000 195.760000
v -6.210000 13.279000 196.570000
v -6.210000 13.279000 197.380000
v -6.210000 13.279000 198.190000
v -6.210000 13.279000 199.000000
v -6.210000 13.279000 199.810000
v -6.210000 13.279000 200.620000
v -6.210000 13.279000 201.430000
v -6.210000 13.279000 202.240000
v -6.210000 13.279000 203.050000
v -6.210000 13.279000 203.860000
v -6.210000 13.279000 204.670000
v -4.968000 9.121000 193.330000
v -4.968000 9.121000 194.140000
v -4.968000 9.418000 194.140000
v -4.968000 9.418000 193.330000
v -4.968000 9.121000 194.950000
v -4.968000 9.121000 195.760000
v -4.968000 9.121000 196.570000
v -4.968000 9.121000 197.380000
v -4.968000 9.121000 198.190000
v -4.968000 9.121000 199.000000
v -4.968000 9.121000 199.810000
v -4.968000 9.121000 200.620000
v -4.968000 9.121000 201.430000
v -4.968000 9.121000 202.240000
v -4.968000 9.121000 203.050000
v -4.968000 9.121000 203.860000
v -4.968000 9.121000 204.670000
v -4.968000 9.418000 204.670000
v -4.968000 9.715000 194.950000
v -4.968000 9.715000 194.140000
v -4.968000 9.715000 195.760000
v -4.968000 9.715000 196.570000
v -4.968000 9.715000 197.380000
v -4.968000 9.715000 204.670000
v -4.968000 10.012000 198.190000
v -4.968000 10.012000 197.380000
v -4.968000 10.012000 199.000000
v -4.968000 10.012000 199.810000
v -4.968000 10.012000 204.670000
v -4.968000 10.309000 200.620000
v -4.968000 10.309000 199.810000
v -4.968000 10.309000 201.430000
v -4.968000 10.309000 202.240000
v -4.968000 10.309000 204.670000
v -4.968000 10.606000 203.050000
v -4.968000 10.606000 202.240000
v -4.968000 10.606000 204.670000
v -4.968000 10.903000 203.860000
v -4.968000 10.903000 203.050000
v -4.968000 10.903000 204.670000
v -4.968000 11.200000 203.860000
v -4.968000 11.200000 204.670000
v -4.968000 11.497000 203.860000
v -4.968000 11.497000 204.670000
v -4.968000 11.497000 203.050000
v -4.968000 11.794000 203.050000
v -4.968000 11.794000 204.670000
v -4.968000 11.794000 202.240000
v -4.968000 12.091000 202.240000
v -4.968000 12.091000 204.670000
v -4.968000 12.091000 199.810000
v -4.968000 12.091000 200.620000
v -4.968000 12.388000 199.810000
v -4.968000 12.091000 201.430000
v -4.968000 12.388000 204.670000
v -4.968000 12.388000 197.380000
v -4.968000 12.388000 198.190000
v -4.968000 12.685000 197.380000
v -4.968000 12.388000 199.000000
v -4.968000 12.685000 204.670000
v -4.968000 12.685000 194.140000
v -4.968000 12.685000 194.950000
v -4.968000 12.982000 194.140000
v -4.968000 12.685000 195.760000
v -4.968000 12.685000 196.570000
v -4.968000 12.982000 204.670000
v -4.968000 12.982000 193.330000
v -4.968000 13.279000 194.140000
v -4.968000 13.279000 193.330000
v -4.968000 13.279000 194.950000
v -4.968000 13.279000 195.760000
v -4.968000 13.279000 196.570000
v -4.968000 13.279000 197.380000
v -4.968000 13.279000 198.190000
v -4.968000 13.279000 199.000000
v -4.968000 13.279000 199.810000
v -4.968000 13.279000 200.620000
v -4.968000 13.279000 201.430000
v -4.968000 13.279000 202.240000
v -4.968000 13.279000 203.050000
v -4.968000 13.279000 203.860000
v -4.968000 13.279000 204.670000
v -3.726000 9.121000 193.330000
v -3.726000 9.121000 194.140000
v -3.726000 9.418000 194.140000
v -3.726000 9.418000 193.330000
v -3.726000 9.121000 194.950000
v -3.726000 9.121000 195.760000
v -3.726000 9.121000 196.570000
v -3.726000 9.121000 197.380000
v -3.726000 9.121000 198.190000
v -3.726000 9.121000 199.000000
v -3.726000 9.121000 199.810000
v -3.726000 9.121000 200.620000
v -3.726000 9.121000 201.430000
v -3.726000 9.121000 202.240000
v -3.726000 9.121000 203.050000
v -3.726000 9.121000 203.860000
v -3.726000 9.121000 204.670000
v -3.726000 9.418000 204.670000
v -3.726000 9.715000 194.950000
v -3.726000 9.715000 194.140000
v -3.726000 9.715000 195.760000
v -3.726000 9.715000 196.570000
v -3.726000 9.715000 197.380000
v -3.726000 9.715000 204.670000
v -3.726000 10.012000 198.190000
v -3.726000 10.012000 197.380000
v -3.726000 10.012000 199.000000
v -3.726000 10.012000 199.810000
v -3.726000 10.012000 204.670000
v -3.726000 10.309000 200.620000
v -3.726000 10.309000 199.810000
v -3.726000 10.309000 201.430000
v -3.726000 10.309000 202.240000
v -3.726000 10.309000 204.670000
v -3.726000 10.606000 203.050000
v -3.726000 10.606000 202.240000
v -3.726000 10.606000 204.670000
v -3.726000 10.903000 203.860000
v -3.726000 10.903000 203.050000
v -3.726000 10.903000 204.670000
v -3.726000 11.200000 203.860000
v -3.726000 11.200000 204.670000
v -3.726000 11.497000 203.860000
v -3.726000 11.497000 204.670000
v -3.726000 11.497000 203.050000
v -3.726000 11.794000 203.050000
v -3.726000 11.794000 204.670000
v -3.726000 11.794000 202.240000
v -3.726000 12.091000 202.240000
v -3.726000 12.091000 204.670000
v -3.726000 12.091000 199.810000
v -3.726000 12.091000 200.620000
v -3.726000 12.388000 199.810000
v -3.726000 12.091000 201.430000
v -3.726000 12.388000 204.670000
v -3.726000 12.388000 197.380000
v -3.726000 12.388000 198.190000
v -3.726000 12.685000 197.380000
v -3.726000 12.388000 199.000000
v -3.726000 12.685000 204.670000
v -3.726000 12.685000 194.140000
v -3.726000 12.685000 194.950000
v -3.726000 12.982000 194.140000
v -3.726000 12.685000 195.760000
v -3.726000 12.685000 196.570000
v -3.726000 12.982000 204.670000
v -3.726000 12.982000 193.330000
v -3.726000 13.279000 194.140000
v -3.726000 13.279000 193.330000
v -3.726000 13.279000 194.950000
v -3.726000 13.279000 195.760000
v -3.726000 13.279000 196.570000
v -3.726000 13.279000 197.380000
v -3.726000 13.279000 198.190000
v -3.726000 13.279000 199.000000
v -3.726000 13.279000 199.810000
v -3.726000 13.279000 200.620000
v -3.726000 13.279000 201.430000
v -3.726000 13.279000 202.240000
v -3.726000 13.279000 203.050000
v -3.726000 13.279000 203.860000
v -3.726000 13.279000 204.670000
v -2.484000 9.121000 193.330000
v -2.484000 9.121000 194.140000
v -2.484000 9.418000 194.140000
v -2.484000 9.418000 193.330000
v -2.484000 9.121000 194.950000
v -2.484000 9.121000 195.760000
v -2.484000 9.121000 196.570000
v -2.484000 9.121000 197.380000
v -2.484000 9.121000 198.190000
v -2.484000 9.121000 199.000000
v -2.484000 9.121000 199.810000
v -2.484000 9.121000 200.620000
v -2.484000 9.121000 201.430000
v -2.484000 9.121000 202.240000
v -2.484000 9.121000 203.050000
v -2.484000 9.121000 203.860000
v -2.484000 9.121000 204.670000
v -2.484000 9.418000 204.670000
v -2.484000 9.715000 194.950000
v -2.484000 9.715000 194.140000
v -2.484000 9.715000 195.760000
v -2.484000 9.715000 196.570000
v -2.484000 9.715000 197.380000
v -2.484000 9.715000 204.670000
v -2.484000 10.012000 198.190000
v -2.484000 10.012000 197.380000
v -2.484000 10.012000 199.000000
v -2.484000 10.012000 199.810000
v -2.484000 10.012000 204.670000
v -2.484000 10.309000 200.620000
v -2.484000 10.309000 199.810000
v -2.484000 10.309000 201.430000
v -2.484000 10.309000 202.240000
v -2.484000 10.309000 204.670000
v -2.484000 10.606000 203.050000
v -2.484000 10.606000 202.240000
v -2.484000 10.606000 204.670000
v -2.484000 10.903000 203.860000
v -2.484000 10.903000 203.050000
v -2.484000 10.903000 204.670000
v -2.484000 11.200000 203.860000
v -2.484000 11.200000 204.670000
v -2.484000 11.497000 203.860000
v -2.484000 11.497000 204.670000
v -2.484000 11.497000 203.050000
v -2.484000 11.794000 203.050000
v -2.484000 11.794000 204.670000
v -2.484000 11.794000 202.240000
v -2.484000 12.091000 202.240000
v -2.484000 12.091000 204.670000
v -2.484000 12.091000 199.810000
v -2.484000 12.091000 200.620000
v -2.484000 12.388000 199.810000
v -2.484000 12.091000 201.430000
v -2.484000 12.388000 204.670000
v -2.484000 12.388000 197.380000
v -2.484000 12.388000 198.190000
v -2.484000 12.685000 197.380000
v -2.484000 12.388000 199.000000
v -2.484000 12.685000 204.670000
v -2.484000 12.685000 194.140000
v -2.484000 12.685000 194.950000
v -2.484000 12.982000 194.140000
v -2.484000 12.685000 195.760000
v -2.484000 12.685000 196.570000
v -2.484000 12.982000 204.670000
v -2.484000 12.982000 193.330000
v -2.484000 13.279000 194.140000
v -2.484000 13.279000 193.330000
v -2.484000 13.279000 194.950000
v -2.484000 13.279000 195.760000
v -2.484000 13.279000 196.570000
v -2.484000 13.279000 197.380000
v -2.484000 13.279000 198.190000
v -2.484000 13.279000 199.000000
v -2.484000 13.279000 199.810000
v -2.484000 13.279000 200.620000
v -2.484000 13.279000 201.430000
v -2.484000 13.279000 202.240000
v -2.484000 13.279000 203.050000
v -2.484000 13.279000 203.860000
v -2.484000 13.279000 204.670000
v -1.242000 9.121000 193.330000
v -1.242000 9.121000 194.140000
v -1.242000 9.418000 194.140000
v -1.242000 9.418000 193.330000
v -1.242000 9.121000 194.950000
v -1.242000 9.121000 195.760000
v -1.242000 9.121000 196.570000
v -1.242000 9.121000 197.380000
v -1.242000 9.121000 198.190000
v -1.242000 9.121000 199.000000
v -1.242000 9.121000 199.810000
v -1.242000 9.121000 200.620000
v -1.242000 9.121000 201.430000
v -1.242000 9.121000 202.240000
v -1.242000 9.121000 203.050000
v -1.242000 9.121000 203.860000
v -1.242000 9.121000 204.670000
v -1.242000 9.418000 204.670000
v -1.242000 9.715000 194.950000
v -1.242000 9.715000 194.140000
v -1.242000 9.715000 195.760000
v -1.242000 9.715000 196.570000
v -1.242000 9.715000 197.380000
v -1.242000 9.715000 204.670000
v -1.242000 10.012000 198.190000
v -1.242000 10.012000 197.380000
v -1.242000 10.012000 199.000000
v -1.242000 10.012000 199.810000
v -1.242000 10.012000 204.670000
v -1.242000 10.309000 200.620000
v -1.242000 10.309000 199.810000
v -1.242000 10.309000 201.430000
v -1.242000 10.309000 202.240000
v -1.242000 10.309000 204.670000
v -1.242000 10.606000 203.050000
v -1.242000 10.606000 202.240000
v -1.242000 10.606000 204.670000
v -1.242000 10.903000 203.860000
v -1.242000 10.903000 203.050000
v -1.242000 10.903000 204.670000
v -1.242000 11.200000 203.860000
v -1.242000 11.200000 204.670000
v -1.242000 11.497000 203.860000
v -1.242000 11.497000 204.670000
v -1.242000 11.497000 203.050000
v -1.242000 11.794000 203.050000
v -1.242000 11.794000 204.670000
v -1.242000 11.794000 202.240000
v -1.242000 12.091000 202.240000
v -1.242000 12.091000 204.670000
v -1.242000 12.091000 199.810000
v -1.242000 12.091000 200.620000
v -1.242000 12.388000 199.810000
v -1.242000 12.091000 201.430000
v -1.242000 12.388000 204.670000
v -1.242000 12.388000 197.380000
v -1.242000 12.388000 198.190000
v -1.242000 12.685000 197.380000
v -1.242000 12.388000 199.000000
v -1.242000 12.685000 204.670000
v -1.242000 12.685000 194.140000
v -1.242000 12.685000 194.950000
v -1.242000 12.982000 194.140000
v -1.242000 12.685000 195.760000
v -1.242000 12.685000 196.570000
v -1.242000 12.982000 204.670000
v -1.242000 12.982000 193.330000
v -1.242000 13.279000 194.140000
v -1.242000 13.279000 193.330000
v -1.242000 13.279000 194.950000
v -1.242000 13.279000 195.760000
v -1.242000 13.279000 196.570000
v -1.242000 13.279000 197.380000
v -1.242000 13.279000 198.190000
v -1.242000 13.279000 199.000000
v -1.242000 13.279000 199.810000
v -1.242000 13.279000 200.620000
v -1.242000 13.279000 201.430000
v -1.242000 13.279000 202.240000
v -1.242000 13.279000 203.050000
v -1.242000 13.279000 203.860000
v -1.242000 13.279000 204.670000
v -0.000000 9.121000 193.330000
v -0.000000 9.121000 194.140000
v -0.000000 9.418000 194.140000
v -0.000000 9.418000 193.330000
v -0.000000 9.121000 194.950000
v -0.000000 9.121000 195.760000
v -0.000000 9.121000 196.570000
v -0.000000 9.121000 197.380000
v -0.000000 9.121000 198.190000
v -0.000000 9.121000 199.000000
v -0.000000 9.121000 199.810000
v -0.000000 9.121000 200.620000
v -0.000000 9.121000 201.430000
v -0.000000 9.121000 202.240000
v -0.000000 9.121000 203.050000
v -0.000000 9.121000 203.860000
v -0.000000 9.121000 204.670000
v -0.000000 9.418000 204.670000
v -0.000000 9.715000 194.950000
v -0.000000 9.715000 194.140000
v -0.000000 9.715000 195.760000
v -0.000000 9.715000 196.570000
v -0.000000 9.715000 197.380000
v -0.000000 9.715000 204.670000
v -0.000000 10.012000 198.190000
v -0.000000 10.012000 197.380000
v -0.000000 10.012000 199.000000
v -0.000000 10.012000 199.810000
v -0.000000 10.012000 204.670000
v -0.000000 10.309000 200.620000
v -0.000000 10.309000 199.810000
v -0.000000 10.309000 201.430000
v -0.000000 10.309000 202.240000
v -0.000000 10.309000 204.670000
v -0.000000 10.606000 203.050000
v -0.000000 10.606000 202.240000
v -0.000000 10.606000 204.670000
v -0.000000 10.903000 203.860000
v -0.000000 10.903000 203.050000
v -0.000000 10.903000 204.670000
v -0.000000 11.200000 203.860000
v -0.000000 11.200000 204.670000
v -0.000000 11.497000 203.860000
v -0.000000 11.497000 204.670000
v -0.000000 11.497000 203.050000
v -0.000000 11.794000 203.050000
v -0.000000 11.794000 204.670000
v -0.000000 11.794000 202.240000
v -0.000000 12.091000 202.240000
v -0.000000 12.091000 204.670000
v -0.000000 12.091000 199.810000
v -0.000000 12.091000 200.620000
v -0.000000 12.388000 199.810000
v -0.000000 12.091000 201.430000
v -0.000000 12.388000 204.670000
v -0.000000 12.388000 197.380000
v -0.000000 12.388000 198.190000
v -0.000000 12.685000 197.380000
v -0.000000 12.388000 199.000000
v -0.000000 12.685000 204.670000
v -0.000000 12.685000 194.140000
v -0.000000 12.685000 194.950000
v -0.000000 12.982000 194.140000
v -0.000000 12.685000 195.760000
v -0.000000 12.685000 196.570000
v -0.000000 12.982000 204.670000
v -0.000000 12.982000 193.330000
v -0.000000 13.279000 194.140000
v -0.000000 13.279000 193.330000
v -0.000000 13.279000 194.950000
v -0.000000 13.279000 195.760000
v -0.000000 13.279000 196.570000
v -0.000000 13.279000 197.380000
v -0.000000 13.279000 198.190000
v -0.000000 13.279000 199.000000
v -0.000000 13.279000 199.810000
v -0.000000 13.279000 200.620000
v -0.000000 13.279000 201.430000
v -0.000000 13.279000 202.240000
v -0.000000 13.279000 203.050000
v -0.000000 13.279000 203.860000
v -0.000000 13.279000 204.670000
v 1.242000 9.121000 193.330000
v 1.242000 9.121000 194.140000
v 1.242000 9.418000 194.140000
v 1.242000 9.418000 193.330000
v 1.242000 9.121000 194.950000
v 1.242000 9.121000 195.760000
v 1.242000 9.121000 196.570000
v 1.242000 9.121000 197.380000
v 1.242000 9.121000 198.190000
v 1.242000 9.121000 199.000000
v 1.242000 9.121000 199.810000
v 1.242000 9.121000 200.620000
v 1.242000 9.121000 201.430000
v 1.242000 9.121000 202.240000
v 1.242000 9.121000 203.050000
v 1.242000 9.121000 203.860000
v 1.242000 9.121000 204.670000
v 1.242000 9.418000 204.670000
v 1.242000 9.715000 194.950000
v 1.242000 9.715000 194.140000
v 1.242000 9.715000 195.760000
v 1.242000 9.715000 196.570000
v 1.242000 9.715000 197.380000
v 1.242000 9.715000 204.670000
v 1.242000 10.012000 198.190000
v 1.242000 10.012000 197.380000
v 1.242000 10.012000 199.000000
v 1.242000 10.012000 199.810000
v 1.242000 10.012000 204.670000
v 1.242000 10.309000 200.620000
v 1.242000 10.309000 199.810000
v 1.242000 10.309000 201.430000
v 1.242000 10.309000 202.240000
v 1.242000 10.309000 204.670000
v 1.242000 10.606000 203.050000
v 1.242000 10.606000 202.240000
v 1.242000 10.606000 204.670000
v 1.242000 10.903000 203.860000
v 1.242000 10.903000 203.050000
v 1.242000 10.903000 204.670000
v 1.242000 11.200000 203.860000
v 1.242000 11.200000 204.670000
v 1.242000 11.497000 203.860000
v 1.242000 11.497000 204.670000
v 1.242000 11.497000 203.050000
v 1.242000 11.794000 203.050000
v 1.242000 11.794000 204.670000
v 1.242000 11.794000 202.240000
v 1.242000 12.091000 202.240000
v 1.242000 12.091000 204.670000
v 1.242000 12.091000 199.810000
v 1.242000 12.091000 200.620000
v 1.242000 12.388000 199.810000
v 1.242000 12.091000 201.430000
v 1.242000 12.388000 204.670000
v 1.242000 12.388000 197.380000
v 1.242000 12.388000 198.190000
v 1.242000 12.685000 197.380000
v 1.242000 12.388000 199.000000
v 1.242000 12.685000 204.670000
v 1.242000 12.685000 194.140000
v 1.242000 12.685000 194.950000
v 1.242000 12.982000 194.140000
v 1.242000 12.685000 195.760000
v 1.242000 12.685000 196.570000
v 1.242000 12.982000 204.670000
v 1.242000 12.982000 193.330000
v 1.242000 13.279000 194.140000
v 1.242000 13.279000 193.330000
v 1.242000 13.279000 194.950000
v 1.242000 13.279000 195.760000
v 1.242000 13.279000 196.570000
v 1.242000 13.279000 197.380000
v 1.242000 13.279000 198.190000
v 1.242000 13.279000 199.000000
v 1.242000 13.279000 199.810000
v 1.242000 13.279000 200.620000
v 1.242000 13.279000 201.430000
v 1.242000 13.279000 202.240000
v 1.242000 13.279000 203.050000
v 1.242000 13.279000 203.860000
v 1.242000 13.279000 204.670000
v 2.484000 9.121000 193.330000
v 2.484000 9.121000 194.140000
v 2.484000 9.418000 194.140000
v 2.484000 9.418000 193.330000
v 2.484000 9.121000 194.950000
v 2.484000 9.121000 195.760000
v 2.484000 9.121000 196.570000
v 2.484000 9.121000 197.380000
v 2.484000 9.121000 198.190000
v 2.484000 9.121000 199.000000
v 2.484000 9.121000 199.810000
v 2.484000 9.121000 200.620000
v 2.484000 9.121000 201.430000
v 2.484000 9.121000 202.240000
v 2.484000 9.121000 203.050000
v 2.484000 9.121000 203.860000
v 2.484000 9.121000 204.670000
v 2.484000 9.418000 204.670000
v 2.484000 9.715000 194.950000
v 2.484000 9.715000 194.140000
v 2.484000 9.715000 195.760000
v 2.484000 9.715000 196.570000
v 2.484000 9.715000 197.380000
v 2.484000 9.715000 204.670000
v 2.484000 10.012000 198.190000
v 2.484000 10.012000 197.380000
v 2.484000 10.012000 199.000000
v 2.484000 10.012000 199.810000
v 2.484000 10.012000 204.670000
v 2.484000 10.309000 200.620000
v 2.484000 10.309000 199.810000
v 2.484000 10.309000 201.430000
v 2.484000 10.309000 202.240000
v 2.484000 10.309000 204.670000
v 2.484000 10.606000 203.050000
v 2.484000 10.606000 202.240000
v 2.484000 10.606000 204.670000
v 2.484000 10.903000 203.860000
v 2.484000 10.903000 203.050000
v 2.484000 10.903000 204.670000
v 2.484000 11.200000 203.860000
v 2.484000 11.200000 204.670000
v 2.484000 11.497000 203.860000
v 2.484000 11.497000 204.670000
v 2.484000 11.497000 203.050000
v 2.484000 11.794000 203.050000
v 2.484000 11.794000 204.670000
v 2.484000 11.794000 202.240000
v 2.484000 12.091000 202.240000
v 2.484000 12.091000 204.670000
v 2.484000 12.091000 199.810000
v 2.484000 12.091000 200.620000
v 2.484000 12.388000 199.810000
v 2.484000 12.091000 201.430000
v 2.484000 12.388000 204.670000
v 2.484000 12.388000 197.380000
v 2.484000 12.388000 198.190000
v 2.484000 12.685000 197.380000
v 2.484000 12.388000 199.000000
v 2.484000 12.685000 204.670000
v 2.484000 12.685000 194.140000
v 2.484000 12.685000 194.950000
v 2.484000 12.982000 194.140000
v 2.484000 12.685000 195.760000
v 2.484000 12.685000 196.570000
v 2.484000 12.982000 204.670000
v 2.484000 12.982000 193.330000
v 2.484000 13.279000 194.140000
v 2.484000 13.279000 193.330000
v 2.484000 13.279000 194.950000
v 2.484000 13.279000 195.760000
v 2.484000 13.279000 196.570000
v 2.484000 13.279000 197.380000
v 2.484000 13.279000 198.190000
v 2.484000 13.279000 199.000000
v 2.484000 13.279000 199.810000
v 2.484000 13.279000 200.620000
v 2.484000 13.279000 201.430000
v 2.484000 13.279000 202.240000
v 2.484000 13.279000 203.050000
v 2.484000 13.279000 203.860000
v 2.484000 13.279000 204.670000
v 3.726000 9.121000 193.330000
v 3.726000 9.121000 194.140000
v 3.726000 9.418000 194.140000
v 3.726000 9.418000 193.330000
v 3.726000 9.121000 194.950000
v 3.726000 9.121000 195.760000
v 3.726000 9.121000 196.570000
v 3.726000 9.121000 197.380000
v 3.726000 9.121000 198.190000
v 3.726000 9.121000 199.000000
v 3.726000 9.121000 199.810000
v 3.726000 9.121000 200.620000
v 3.726000 9.121000 201.430000
v 3.726000 9.121000 202.240000
v 3.726000 9.121000 203.050000
v 3.726000 9.121000 203.860000
v 3.726000 9.121000 204.670000
v 3.726000 9.418000 204.670000
v 3.726000 9.715000 194.950000
v 3.726000 9.715000 194.140000
v 3.726000 9.715000 195.760000
v 3.726000 9.715000 196.570000
v 3.726000 9.715000 197.380000
v 3.726000 9.715000 204.670000
v 3.726000 10.012000 198.190000
v 3.726000 10.012000 197.380000
v 3.726000 10.012000 199.000000
v 3.726000 10.012000 199.810000
v 3.726000 10.012000 204.670000
v 3.726000 10.309000 200.620000
v 3.726000 10.309000 199.810000
v 3.726000 10.309000 201.430000
v 3.726000 10.309000 202.240000
v 3.726000 10.309000 204.670000
v 3.726000 10.606000 203.050000
v 3.726000 10.606000 202.240000
v 3.726000 10.606000 204.670000
v 3.726000 10.903000 203.860000
v 3.726000 10.903000 203.050000
v 3.726000 10.903000 204.670000
v 3.726000 11.200000 203.860000
v 3.726000 11.200000 204.670000
v 3.726000 11.497000 203.860000
v 3.726000 11.497000 204.670000
v 3.726000 11.497000 203.050000
v 3.726000 11.794000 203.050000
v 3.726000 11.794000 204.670000
v 3.726000 11.794000 202.240000
v 3.726000 12.091000 202.240000
v 3.726000 12.091000 204.670000
v 3.726000 12.091000 199.810000
v 3.726000 12.091000 200.620000
v 3.726000 12.388000 199.810000
v 3.726000 12.091000 201.430000
v 3.726000 12.388000 204.670000
v 3.726000 12.388000 197.380000
v 3.726000 12.388000 198.190000
v 3.726000 12.685000 197.380000
v 3.726000 12.388000 199.000000
v 3.726000 12.685000 204.670000
v 3.726000 12.685000 194.140000
v 3.726000 12.685000 194.950000
v 3.726000 12.982000 194.140000
v 3.726000 12.685000 195.760000
v 3.726000 12.685000 196.570000
v 3.726000 12.982000 204.670000
v 3.726000 12.982000 193.330000
v 3.726000 13.279000 194.140000
v 3.726000 13.279000 193.330000
v 3.726000 13.279000 194.950000
v 3.726000 13.279000 195.760000
v 3.726000 13.279000 196.570000
v 3.726000 13.279000 197.380000
v 3.726000 13.279000 198.190000
v 3.726000 13.279000 199.000000
v 3.726000 13.279000 199.810000
v 3.726000 13.279000 200.620000
v 3.726000 13.279000 201.430000
v 3.726000 13.279000 202.240000
v 3.726000 13.279000 203.050000
v 3.726000 13.279000 203.860000
v 3.726000 13.279000 204.670000
v 4.968000 9.121000 193.330000
v 4.968000 9.121000 194.140000
v 4.968000 9.418000 194.140000
v 4.968000 9.418000 193.330000
v 4.968000 9.121000 194.950000
v 4.968000 9.121000 195.760000
v 4.968000 9.121000 196.570000
v 4.968000 9.121000 197.380000
v 4.968000 9.121000 198.190000
v 4.968000 9.121000 199.000000
v 4.968000 9.121000 199.810000
v 4.968000 9.121000 200.620000
v 4.968000 9.121000 201.430000
v 4.968000 9.121000 202.240000
v 4.968000 9.121000 203.050000
v 4.968000 9.121000 203.860000
v 4.968000 9.121000 204.670000
v 4.968000 9.418000 204.670000
v 4.968000 9.715000 194.950000
v 4.968000 9.715000 194.140000
v 4.968000 9.715000 195.760000
v 4.968000 9.715000 196.570000
v 4.968000 9.715000 197.380000
v 4.968000 9.715000 204.670000
v 4.968000 10.012000 198.190000
v 4.968000 10.012000 197.380000
v 4.968000 10.012000 199.000000
v 4.968000 10.012000 199.810000
v 4.968000 10.012000 204.670000
v 4.968000 10.309000 200.620000
v 4.968000 10.309000 199.810000
v 4.968000 10.309000 201.430000
v 4.968000 10.309000 202.240000
v 4.968000 10.309000 204.670000
v 4.968000 10.606000 203.050000
v 4.968000 10.606000 202.240000
v 4.968000 10.606000 204.670000
v 4.968000 10.903000 203.860000
v 4.968000 10.903000 203.050000
v 4.968000 10.903000 204.670000
v 4.968000 11.200000 203.860000
v 4.968000 11.200000 204.670000
v 4.968000 11.497000 203.860000
v 4.968000 11.497000 204.670000
v 4.968000 11.497000 203.050000
v 4.968000 11.794000 203.050000
v 4.968000 11.794000 204.670000
v 4.968000 11.794000 202.240000
v 4.968000 12.091000 202.240000
v 4.968000 12.091000 204.670000
v 4.968000 12.091000 199.810000
v 4.968000 12.091000 200.620000
v 4.968000 12.388000 199.810000
v 4.968000 12.091000 201.430000
v 4.968000 12.388000 204.670000
v 4.968000 12.388000 197.380000
v 4.968000 12.388000 198.190000
v 4.968000 12.685000 197.380000
v 4.968000 12.388000 199.000000
v 4.968000 12.685000 204.670000
v 4.968000 12.685000 194.140000
v 4.968000 12.685000 194.950000
v 4.968000 12.982000 194.140000
v 4.968000 12.685000 195.760000
v 4.968000 12.685000 196.570000
v 4.968000 12.982000 204.670000
v 4.968000 12.982000 193.330000
v 4.968000 13.279000 194.140000
v 4.968000 13.279000 193.330000
v 4.968000 13.279000 194.950000
v 4.968000 13.279000 195.760000
v 4.968000 13.279000 196.570000
v 4.968000 13.279000 197.380000
v 4.968000 13.279000 198.190000
v 4.968000 13.279000 199.000000
v 4.968000 13.279000 199.810000
v 4.968000 13.279000 200.620000
v 4.968000 13.279000 201.430000
v 4.968000 13.279000 202.240000
v 4.968000 13.279000 203.050000
v 4.968000 13.279000 203.860000
v 4.968000 13.279000 204.670000
v 6.210000 9.121000 193.330000
v 6.210000 9.121000 194.140000
v 6.210000 9.418000 194.140000
v 6.210000 9.418000 193.330000
v 6.210000 9.121000 194.950000
v 6.210000 9.121000 195.760000
v 6.210000 9.121000 196.570000
v 6.210000 9.121000 197.380000
v 6.210000 9.121000 198.190000
v 6.210000 9.121000 199.000000
v 6.210000 9.121000 199.810000
v 6.210000 9.121000 200.620000
v 6.210000 9.121000 201.430000
v 6.210000 9.121000 202.240000
v 6.210000 9.121000 203.050000
v 6.210000 9.121000 203.860000
v 6.210000 9.121000 204.670000
v 6.210000 9.418000 204.670000
v 6.210000 9.715000 194.950000
v 6.210000 9.715000 194.140000
v 6.210000 9.715000 195.760000
v 6.210000 9.715000 196.570000
v 6.210000 9.715000 197.380000
v 6.210000 9.715000 204.670000
v 6.210000 10.012000 198.190000
v 6.210000 10.012000 197.380000
v 6.210000 10.012000 199.000000
v 6.210000 10.012000 199.810000
v 6.210000 10.012000 204.670000
v 6.210000 10.309000 200.620000
v 6.210000 10.309000 199.810000
v 6.210000 10.309000 201.430000
v 6.210000 10.309000 202.240000
v 6.210000 10.309000 204.670000
v 6.210000 10.606000 203.050000
v 6.210000 10.606000 202.240000
v 6.210000 10.606000 204.670000
v 6.210000 10.903000 203.860000
v 6.210000 10.903000 203.050000
v 6.210000 10.903000 204.670000
v 6.210000 11.200000 203.860000
v 6.210000 11.200000 204.670000
v 6.210000 11.497000 203.860000
v 6.210000 11.497000 204.670000
v 6.210000 11.497000 203.050000
v 6.210000 11.794000 203.050000
v 6.210000 11.794000 204.670000
v 6.210000 11.794000 202.240000
v 6.210000 12.091000 202.240000
v 6.210000 12.091000 204.670000
v 6.210000 12.091000 199.810000
v 6.210000 12.091000 200.620000
v 6.210000 12.388000 199.810000
v 6.210000 12.091000 201.430000
v 6.210000 12.388000 204.670000
v 6.210000 12.388000 197.380000
v 6.210000 12.388000 198.190000
v 6.210000 12.685000 197.380000
v 6.210000 12.388000 199.000000
v 6.210000 12.685000 204.670000
v 6.210000 12.685000 194.140000
v 6.210000 12.685000 194.950000
v 6.210000 12.982000 194.140000
v 6.210000 12.685000 195.760000
v 6.210000 12.685000 196.570000
v 6.210000 12.982000 204.670000
v 6.210000 12.982000 193.330000
v 6.210000 13.279000 194.140000
v 6.210000 13.279000 193.330000
v 6.210000 13.279000 194.950000
v 6.210000 13.279000 195.760000
v 6.210000 13.279000 196.570000
v 6.210000 13.279000 197.380000
v 6.210000 13.279000 198.190000
v 6.210000 13.279000 199.000000
v 6.210000 13.279000 199.810000
v 6.210000 13.279000 200.620000
v 6.210000 13.279000 201.430000
v 6.210000 13.279000 202.240000
v 6.210000 13.279000 203.050000
v 6.210000 13.279000 203.860000
v 6.210000 13.279000 204.670000
v 7.452000 9.121000 193.330000
v 7.452000 9.121000 194.140000
v 7.452000 9.418000 194.140000
v 7.452000 9.418000 193.330000
v 7.452000 9.121000 194.950000
v 7.452000 9.121000 195.760000
v 7.452000 9.121000 196.570000
v 7.452000 9.121000 197.380000
v 7.452000 9.121000 198.190000
v 7.452000 9.121000 199.000000
v 7.452000 9.121000 199.810000
v 7.452000 9.121000 200.620000
v 7.452000 9.121000 201.430000
v 7.452000 9.121000 202.240000
v 7.452000 9.121000 203.050000
v 7.452000 9.121000 203.860000
v 7.452000 9.121000 204.670000
v 7.452000 9.418000 204.670000
v 7.452000 9.715000 194.950000
v 7.452000 9.715000 194.140000
v 7.452000 9.715000 195.760000
v 7.452000 9.715000 196.570000
v 7.452000 9.715000 197.380000
v 7.452000 9.715000 204.670000
v 7.452000 10.012000 198.190000
v 7.452000 10.012000 197.380000
v 7.452000 10.012000 199.000000
v 7.452000 10.012000 199.810000
v 7.452000 10.012000 204.670000
v 7.452000 10.309000 200.620000
v 7.452000 10.309000 199.810000
v 7.452000 10.309000 201.430000
v 7.452000 10.309000 202.240000
v 7.452000 10.309000 204.670000
v 7.452000 10.606000 203.050000
v 7.452000 10.606000 202.240000
v 7.452000 10.606000 204.670000
v 7.452000 10.903000 203.860000
v 7.452000 10.903000 203.050000
v 7.452000 10.903000 204.670000
v 7.452000 11.200000 203.860000
v 7.452000 11.200000 204.670000
v 7.452000 11.497000 203.860000
v 7.452000 11.497000 204.670000
v 7.452000 11.497000 203.050000
v 7.452000 11.794000 203.050000
v 7.452000 11.794000 204.670000
v 7.452000 11.794000 202.240000
v 7.452000 12.091000 202.240000
v 7.452000 12.091000 204.670000
v 7.452000 12.091000 199.810000
v 7.452000 12.091000 200.620000
v 7.452000 12.388000 199.810000
v 7.452000 12.091000 201.430000
v 7.452000 12.388000 204.670000
v 7.452000 12.388000 197.380000
v 7.452000 12.388000 198.190000
v 7.452000 12.685000 197.380000
v 7.452000 12.388000 199.000000
v 7.452000 12.685000 204.670000
v 7.452000 12.685000 194.140000
v 7.452000 12.685000 194.950000
v 7.452000 12.982000 194.140000
v 7.452000 12.685000 195.760000
v 7.452000 12.685000 196.570000
v 7.452000 12.982000 204.670000
v 7.452000 12.982000 193.330000
v 7.452000 13.279000 194.140000
v 7.452000 13.279000 193.330000
v 7.452000 13.279000 194.950000
v 7.452000 13.279000 195.760000
v 7.452000 13.279000 196.570000
v 7.452000 13.279000 197.380000
v 7.452000 13.279000 198.190000
v 7.452000 13.279000 199.000000
v 7.452000 13.279000 199.810000
v 7.452000 13.279000 200.620000
v 7.452000 13.279000 201.430000
v 7.452000 13.279000 202.240000
v 7.452000 13.279000 203.050000
v 7.452000 13.279000 203.860000
v 7.452000 13.279000 204.670000
v 8.694000 9.121000 193.330000
v 8.694000 9.121000 194.140000
v 8.694000 9.418000 194.140000
v 8.694000 9.418000 193.330000
v 8.694000 9.121000 194.950000
v 8.694000 9.418000 194.950000
v 8.694000 9.121000 195.760000
v 8.694000 9.418000 195.760000
v 8.694000 9.121000 196.570000
v 8.694000 9.418000 196.570000
v 8.694000 9.121000 197.380000
v 8.694000 9.418000 197.380000
v 8.694000 9.121000 198.190000
v 8.694000 9.418000 198.190000
v 8.694000 9.121000 199.000000
v 8.694000 9.418000 199.000000
v 8.694000 9.121000 199.810000
v 8.694000 9.418000 199.810000
v 8.694000 9.121000 200.620000
v 8.694000 9.418000 200.620000
v 8.694000 9.121000 201.430000
v 8.694000 9.418000 201.430000
v 8.694000 9.121000 202.240000
v 8.694000 9.418000 202.240000
v 8.694000 9.121000 203.050000
v 8.694000 9.418000 203.050000
v 8.694000 9.121000 203.860000
v 8.694000 9.418000 203.860000
v 8.694000 9.121000 204.670000
v 8.694000 9.418000 204.670000
v 8.694000 9.715000 194.950000
v 8.694000 9.715000 194.140000
v 8.694000 9.715000 195.760000
v 8.694000 9.715000 196.570000
v 8.694000 9.715000 197.380000
v 8.694000 9.715000 198.190000
v 8.694000 9.715000 199.000000
v 8.694000 9.715000 199.810000
v 8.694000 9.715000 200.620000
v 8.694000 9.715000 201.430000
v 8.694000 9.715000 202.240000
v 8.694000 9.715000 203.050000
v 8.694000 9.715000 203.860000
v 8.694000 9.715000 204.670000
v 8.694000 10.012000 198.190000
v 8.694000 10.012000 197.380000
v 8.694000 10.012000 199.000000
v 8.694000 10.012000 199.810000
v 8.694000 10.012000 200.620000
v 8.694000 10.012000 201.430000
v 8.694000 10.012000 202.240000
v 8.694000 10.012000 203.050000
v 8.694000 10.012000 203.860000
v 8.694000 10.012000 204.670000
v 8.694000 10.309000 200.620000
v 8.694000 10.309000 199.810000
v 8.694000 10.309000 201.430000
v 8.694000 10.309000 202.240000
v 8.694000 10.309000 203.050000
v 8.694000 10.309000 203.860000
v 8.694000 10.309000 204.670000
v 8.694000 10.606000 203.050000
v 8.694000 10.606000 202.240000
v 8.694000 10.606000 203.860000
v 8.694000 10.606000 204.670000
v 8.694000 10.903000 203.860000
v 8.694000 10.903000 203.050000
v 8.694000 10.903000 204.670000
v 8.694000 11.200000 204.670000
v 8.694000 11.200000 203.860000
v 8.694000 11.497000 204.670000
v 8.694000 11.497000 203.860000
v 8.694000 11.497000 203.050000
v 8.694000 11.794000 203.860000
v 8.694000 11.794000 203.050000
v 8.694000 11.794000 204.670000
v 8.694000 11.794000 202.240000
v 8.694000 12.091000 203.050000
v 8.694000 12.091000 202.240000
v 8.694000 12.091000 203.860000
v 8.694000 12.091000 204.670000
v 8.694000 12.091000 199.810000
v 8.694000 12.091000 200.620000
v 8.694000 12.388000 200.620000
v 8.694000 12.388000 199.810000
v 8.694000 12.091000 201.430000
v 8.694000 12.388000 201.430000
v 8.694000 12.388000 202.240000
v 8.694000 12.388000 203.050000
v 8.694000 12.388000 203.860000
v 8.694000 12.388000 204.670000
v 8.694000 12.388000 197.380000
v 8.694000 12.388000 198.190000
v 8.694000 12.685000 198.190000
v 8.694000 12.685000 197.380000
v 8.694000 12.388000 199.000000
v 8.694000 12.685000 199.000000
v 8.694000 12.685000 199.810000
v 8.694000 12.685000 200.620000
v 8.694000 12.685000 201.430000
v 8.694000 12.685000 202.240000
v 8.694000 12.685000 203.050000
v 8.694000 12.685000 203.860000
v 8.694000 12.685000 204.670000
v 8.694000 12.685000 194.140000
v 8.694000 12.685000 194.950000
v 8.694000 12.982000 194.950000
v 8.694000 12.982000 194.140000
v 8.694000 12.685000 195.760000
v 8.694000 12.982000 195.760000
v 8.694000 12.685000 196.570000
v 8.694000 12.982000 196.570000
v 8.694000 12.982000 197.380000
v 8.694000 12.982000 198.190000
v 8.694000 12.982000 199.000000
v 8.694000 12.982000 199.810000
v 8.694000 12.982000 200.620000
v 8.694000 12.982000 201.430000
v 8.694000 12.982000 202.240000
v 8.694000 12.982000 203.050000
v 8.694000 12.982000 203.860000
v 8.694000 12.982000 204.670000
v 8.694000 12.982000 193.330000
v 8.694000 13.279000 194.140000
v 8.694000 13.279000 193.330000
v 8.694000 13.279000 194.950000
v 8.694000 13.279000 195.760000
v 8.694000 13.279000 196.570000
v 8.694000 13.279000 197.380000
v 8.694000 13.279000 198.190000
v 8.694000 13.279000 199.000000
v 8.694000 13.279000 199.810000
v 8.694000 13.279000 200.620000
v 8.694000 13.279000 201.430000
v 8.694000 13.279000 202.240000
v 8.694000 13.279000 203.050000
v 8.694000 13.279000 203.860000
v 8.694000 13.279000 204.670000
f 1 2 3
f 1 3 4
f 1 5 6
f 1 6 4
f 2 3 7
f 2 7 8
f 1 2 8
f 1 8 5
f 4 3 9
f 4 9 10
f 4 6 11
f 4 11 10
f 10 9 12
f 10 12 13
f 10 11 14
f 10 14 13
f 13 12 15
f 13 15 16
f 13 14 17
f 13 17 16
f 16 15 18
f 16 18 19
f 16 17 20
f 16 20 19
f 19 18 21
f 19 21 22
f 19 20 23
f 19 23 22
f 22 21 24
f 22 24 25
f 22 23 26
f 22 26 25
f 25 24 27
f 25 27 28
f 25 26 29
f 25 29 28
f 28 27 30
f 28 30 31
f 28 29 32
f 28 32 31
f 31 30 33
f 31 33 34
f 31 32 35
f 31 35 34
f 34 33 36
f 34 36 37
f 34 35 38
f 34 38 37
f 37 36 39
f 37 39 40
f 37 38 41
f 37 41 40
f 40 39 42
f 40 42 43
f 40 41 44
f 40 44 43
f 43 42 45
f 43 45 46
f 43 44 47
f 43 47 46
f 46 47 48
f 46 48 45
f 3 49 50
f 3 50 9
f 49 50 51
f 49 51 52
f 3 49 52
f 3 52 7
f 9 50 53
f 9 53 12
f 50 53 54
f 50 54 51
f 12 53 55
f 12 55 15
f 53 55 56
f 53 56 54
f 15 55 57
f 15 57 18
f 55 57 58
f 55 58 56
f 18 57 59
f 18 59 21
f 21 59 60
f 21 60 24
f 24 60 61
f 24 61 27
f 27 61 62
f 27 62 30
f 30 62 63
f 30 63 33
f 33 63 64
f 33 64 36
f 36 64 65
f 36 65 39
f 39 65 66
f 39 66 42
f 42 66 67
f 42 67 45
f 45 48 68
f 45 68 67
f 57 69 70
f 57 70 59
f 69 70 71
f 69 71 72
f 57 69 72
f 57 72 58
f 59 70 73
f 59 73 60
f 70 73 74
f 70 74 71
f 60 73 75
f 60 75 61
f 73 75 76
f 73 76 74
f 61 75 77
f 61 77 62
f 62 77 78
f 62 78 63
f 63 78 79
f 63 79 64
f 64 79 80
f 64 80 65
f 65 80 81
f 65 81 66
f 66 81 82
f 66 82 67
f 67 68 83
f 67 83 82
f 75 84 85
f 75 85 77
f 84 85 86
f 84 86 87
f 75 84 87
f 75 87 76
f 77 85 88
f 77 88 78
f 85 88 89
f 85 89 86
f 78 88 90
f 78 90 79
f 88 90 91
f 88 91 89
f 79 90 92
f 79 92 80
f 80 92 93
f 80 93 81
f 81 93 94
f 81 94 82
f 82 83 95
f 82 95 94
f 90 96 97
f 90 97 92
f 96 97 98
f 96 98 99
f 90 96 99
f 90 99 91
f 92 97 100
f 92 100 93
f 93 100 101
f 93 101 94
f 94 95 102
f 94 102 101
f 97 103 104
f 97 104 100
f 103 104 105
f 103 105 106
f 97 103 106
f 97 106 98
f 100 104 107
f 100 107 101
f 101 102 108
f 101 108 107
f 104 109 110
f 104 110 107
f 104 109 111
f 104 111 105
f 107 108 112
f 107 112 110
f 109 113 114
f 109 114 110
f 109 113 115
f 109 115 111
f 110 112 116
f 110 116 114
f 117 118 119
f 117 119 113
f 117 120 115
f 117 115 113
f 117 118 121
f 117 121 120
f 113 119 122
f 113 122 114
f 114 116 123
f 114 123 122
f 124 125 126
f 124 126 118
f 124 127 121
f 124 121 118
f 124 125 128
f 124 128 127
f 118 126 129
f 118 129 119
f 119 129 130
f 119 130 122
f 122 123 131
f 122 131 130
f 132 133 134
f 132 134 135
f 132 136 137
f 132 137 135
f 132 133 138
f 132 138 136
f 135 134 139
f 135 139 140
f 135 137 141
f 135 141 140
f 140 139 142
f 140 142 125
f 140 141 128
f 140 128 125
f 125 142 143
f 125 143 126
f 126 143 144
f 126 144 129
f 129 144 145
f 129 145 130
f 130 131 146
f 130 146 145
f 147 148 149
f 147 149 150
f 147 151 152
f 147 152 150
f 147 148 153
f 147 153 151
f 150 149 154
f 150 154 155
f 150 152 156
f 150 156 155
f 155 154 157
f 155 157 133
f 155 156 138
f 155 138 133
f 133 157 158
f 133 158 134
f 134 158 159
f 134 159 139
f 139 159 160
f 139 160 142
f 142 160 161
f 142 161 143
f 143 161 162
f 143 162 144
f 144 162 163
f 144 163 145
f 145 146 164
f 145 164 163
f 165 166 167
f 165 167 168
f 165 169 170
f 165 170 168
f 165 166 171
f 165 171 169
f 168 167 172
f 168 172 173
f 168 170 174
f 168 174 173
f 173 172 175
f 173 175 176
f 173 174 177
f 173 177 176
f 176 175 178
f 176 178 148
f 176 177 153
f 176 153 148
f 148 178 179
f 148 179 149
f 149 179 180
f 149 180 154
f 154 180 181
f 154 181 157
f 157 181 182
f 157 182 158
f 158 182 183
f 158 183 159
f 159 183 184
f 159 184 160
f 160 184 185
f 160 185 161
f 161 185 186
f 161 186 162
f 162 186 187
f 162 187 163
f 163 164 188
f 163 188 187
f 189 190 191
f 189 191 166
f 189 192 171
f 189 171 166
f 190 191 193
f 190 193 194
f 189 190 194
f 189 194 192
f 166 191 195
f 166 195 167
f 191 195 196
f 191 196 193
f 167 195 197
f 167 197 172
f 195 197 198
f 195 198 196
f 172 197 199
f 172 199 175
f 197 199 200
f 197 200 198
f 175 199 201
f 175 201 178
f 199 201 202
f 199 202 200
f 178 201 203
f 178 203 179
f 201 203 204
f 201 204 202
f 179 203 205
f 179 205 180
f 203 205 206
f 203 206 204
f 180 205 207
f 180 207 181
f 205 207 208
f 205 208 206
f 181 207 209
f 181 209 182
f 207 209 210
f 207 210 208
f 182 209 211
f 182 211 183
f 209 211 212
f 209 212 210
f 183 211 213
f 183 213 184
f 211 213 214
f 211 214 212
f 184 213 215
f 184 215 185
f 213 215 216
f 213 216 214
f 185 215 217
f 185 217 186
f 215 217 218
f 215 218 216
f 186 217 219
f 186 219 187
f 217 219 220
f 217 220 218
f 187 188 220
f 187 220 219
f 5 221 222
f 5 222 6
f 8 7 223
f 8 223 224
f 5 8 224
f 5 224 221
f 6 222 225
f 6 225 11
f 11 225 226
f 11 226 14
f 14 226 227
f 14 227 17
f 17 227 228
f 17 228 20
f 20 228 229
f 20 229 23
f 23 229 230
f 23 230 26
f 26 230 231
f 26 231 29
f 29 231 232
f 29 232 32
f 32 232 233
f 32 233 35
f 35 233 234
f 35 234 38
f 38 234 235
f 38 235 41
f 41 235 236
f 41 236 44
f 44 236 237
f 44 237 47
f 47 237 238
f 47 238 48
f 52 51 239
f 52 239 240
f 7 52 240
f 7 240 223
f 51 54 241
f 51 241 239
f 54 56 242
f 54 242 241
f 56 58 243
f 56 243 242
f 48 238 244
f 48 244 68
f 72 71 245
f 72 245 246
f 58 72 246
f 58 246 243
f 71 74 247
f 71 247 245
f 74 76 248
f 74 248 247
f 68 244 249
f 68 249 83
f 87 86 250
f 87 250 251
f 76 87 251
f 76 251 248
f 86 89 252
f 86 252 250
f 89 91 253
f 89 253 252
f 83 249 254
f 83 254 95
f 99 98 255
f 99 255 256
f 91 99 256
f 91 256 253
f 95 254 257
f 95 257 102
f 106 105 258
f 106 258 259
f 98 106 259
f 98 259 255
f 102 257 260
f 102 260 108
f 105 111 261
f 105 261 258
f 108 260 262
f 108 262 112
f 111 115 263
f 111 263 261
f 112 262 264
f 112 264 116
f 120 265 263
f 120 263 115
f 120 121 266
f 120 266 265
f 116 264 267
f 116 267 123
f 127 268 266
f 127 266 121
f 127 128 269
f 127 269 268
f 123 267 270
f 123 270 131
f 136 271 272
f 136 272 137
f 136 138 273
f 136 273 271
f 137 272 274
f 137 274 141
f 141 274 269
f 141 269 128
f 131 270 275
f 131 275 146
f 151 276 277
f 151 277 152
f 151 153 278
f 151 278 276
f 152 277 279
f 152 279 156
f 156 279 273
f 156 273 138
f 146 275 280
f 146 280 164
f 169 281 282
f 169 282 170
f 169 171 283
f 169 283 281
f 170 282 284
f 170 284 174
f 174 284 285
f 174 285 177
f 177 285 278
f 177 278 153
f 164 280 286
f 164 286 188
f 192 287 283
f 192 283 171
f 194 193 288
f 194 288 289
f 192 194 289
f 192 289 287
f 193 196 290
f 193 290 288
f 196 198 291
f 196 291 290
f 198 200 292
f 198 292 291
f 200 202 293
f 200 293 292
f 202 204 294
f 202 294 293
f 204 206 295
f 204 295 294
f 206 208 296
f 206 296 295
f 208 210 297
f 208 297 296
f 210 212 298
f 210 298 297
f 212 214 299
f 212 299 298
f 214 216 300
f 214 300 299
f 216 218 301
f 216 301 300
f 218 220 302
f 218 302 301
f 188 286 302
f 188 302 220
f 221 303 304
f 221 304 222
f 224 223 305
f 224 305 306
f 221 224 306
f 221 306 303
f 222 304 307
f 222 307 225
f 225 307 308
f 225 308 226
f 226 308 309
f 226 309 227
f 227 309 310
f 227 310 228
f 228 310 311
f 228 311 229
f 229 311 312
f 229 312 230
f 230 312 313
f 230 313 231
f 231 313 314
f 231 314 232
f 232 314 315
f 232 315 233
f 233 315 316
f 233 316 234
f 234 316 317
f 234 317 235
f 235 317 318
f 235 318 236
f 236 318 319
f 236 319 237
f 237 319 320
f 237 320 238
f 240 239 321
f 240 321 322
f 223 240 322
f 223 322 305
f 239 241 323
f 239 323 321
f 241 242 324
f 241 324 323
f 242 243 325
f 242 325 324
f 238 320 326
f 238 326 244
f 246 245 327
f 246 327 328
f 243 246 328
f 243 328 325
f 245 247 329
f 245 329 327
f 247 248 330
f 247 330 329
f 244 326 331
f 244 331 249
f 251 250 332
f 251 332 333
f 248 251 333
f 248 333 330
f 250 252 334
f 250 334 332
f 252 253 335
f 252 335 334
f 249 331 336
f 249 336 254
f 256 255 337
f 256 337 338
f 253 256 338
f 253 338 335
f 254 336 339
f 254 339 257
f 259 258 340
f 259 340 341
f 255 259 341
f 255 341 337
f 257 339 342
f 257 342 260
f 258 261 343
f 258 343 340
f 260 342 344
f 260 344 262
f 261 263 345
f 261 345 343
f 262 344 346
f 262 346 264
f 265 347 345
f 265 345 263
f 265 266 348
f 265 348 347
f 264 346 349
f 264 349 267
f 268 350 348
f 268 348 266
f 268 269 351
f 268 351 350
f 267 349 352
f 267 352 270
f 271 353 354
f 271 354 272
f 271 273 355
f 271 355 353
f 272 354 356
f 272 356 274
f 274 356 351
f 274 351 269
f 270 352 357
f 270 357 275
f 276 358 359
f 276 359 277
f 276 278 360
f 276 360 358
f 277 359 361
f 277 361 279
f 279 361 355
f 279 355 273
f 275 357 362
f 275 362 280
f 281 363 364
f 281 364 282
f 281 283 365
f 281 365 363
f 282 364 366
f 282 366 284
f 284 366 367
f 284 367 285
f 285 367 360
f 285 360 278
f 280 362 368
f 280 368 286
f 287 369 365
f 287 365 283
f 289 288 370
f 289 370 371
f 287 289 371
f 287 371 369
f 288 290 372
f 288 372 370
f 290 291 373
f 290 373 372
f 291 292 374
f 291 374 373
f 292 293 375
f 292 375 374
f 293 294 376
f 293 376 375
f 294 295 377
f 294 377 376
f 295 296 378
f 295 378 377
f 296 297 379
f 296 379 378
f 297 298 380
f 297 380 379
f 298 299 381
f 298 381 380
f 299 300 382
f 299 382 381
f 300 301 383
f 300 383 382
f 301 302 384
f 301 384 383
f 286 368 384
f 286 384 302
f 303 385 386
f 303 386 304
f 306 305 387
f 306 387 388
f 303 306 388
f 303 388 385
f 304 386 389
f 304 389 307
f 307 389 390
f 307 390 308
f 308 390 391
f 308 391 309
f 309 391 392
f 309 392 310
f 310 392 393
f 310 393 311
f 311 393 394
f 311 394 312
f 312 394 395
f 312 395 313
f 313 395 396
f 313 396 314
f 314 396 397
f 314 397 315
f 315 397 398
f 315 398 316
f 316 398 399
f 316 399 317
f 317 399 400
f 317 400 318
f 318 400 401
f 318 401 319
f 319 401 402
f 319 402 320
f 322 321 403
f 322 403 404
f 305 322 404
f 305 404 387
f 321 323 405
f 321 405 403
f 323 324 406
f 323 406 405
f 324 325 407
f 324 407 406
f 320 402 408
f 320 408 326
f 328 327 409
f 328 409 410
f 325 328 410
f 325 410 407
f 327 329 411
f 327 411 409
f 329 330 412
f 329 412 411
f 326 408 413
f 326 413 331
f 333 332 414
f 333 414 415
f 330 333 415
f 330 415 412
f 332 334 416
f 332 416 414
f 334 335 417
f 334 417 416
f 331 413 418
f 331 418 336
f 338 337 419
f 338 419 420
f 335 338 420
f 335 420 417
f 336 418 421
f 336 421 339
f 341 340 422
f 341 422 423
f 337 341 423
f 337 423 419
f 339 421 424
f 339 424 342
f 340 343 425
f 340 425 422
f 342 424 426
f 342 426 344
f 343 345 427
f 343 427 425
f 344 426 428
f 344 428 346
f 347 429 427
f 347 427 345
f 347 348 430
f 347 430 429
f 346 428 431
f 346 431 349
f 350 432 430
f 350 430 348
f 350 351 433
f 350 433 432
f 349 431 434
f 349 434 352
f 353 435 436
f 353 436 354
f 353 355 437
f 353 437 435
f 354 436 438
f 354 438 356
f 356 438 433
f 356 433 351
f 352 434 439
f 352 439 357
f 358 440 441
f 358 441 359
f 358 360 442
f 358 442 440
f 359 441 443
f 359 443 361
f 361 443 437
f 361 437 355
f 357 439 444
f 357 444 362
f 363 445 446
f 363 446 364
f 363 365 447
f 363 447 445
f 364 446 448
f 364 448 366
f 366 448 449
f 366 449 367
f 367 449 442
f 367 442 360
f 362 444 450
f 362 450 368
f 369 451 447
f 369 447 365
f 371 370 452
f 371 452 453
f 369 371 453
f 369 453 451
f 370 372 454
f 370 454 452
f 372 373 455
f 372 455 454
f 373 374 456
f 373 456 455
f 374 375 457
f 374 457 456
f 375 376 458
f 375 458 457
f 376 377 459
f 376 459 458
f 377 378 460
f 377 460 459
f 378 379 461
f 378 461 460
f 379 380 462
f 379 462 461
f 380 381 463
f 380 463 462
f 381 382 464
f 381 464 463
f 382 383 465
f 382 465 464
f 383 384 466
f 383 466 465
f 368 450 466
f 368 466 384
f 385 467 468
f 385 468 386
f 388 387 469
f 388 469 470
f 385 388 470
f 385 470 467
f 386 468 471
f 386 471 389
f 389 471 472
f 389 472 390
f 390 472 473
f 390 473 391
f 391 473 474
f 391 474 392
f 392 474 475
f 392 475 393
f 393 475 476
f 393 476 394
f 394 476 477
f 394 477 395
f 395 477 478
f 395 478 396
f 396 478 479
f 396 479 397
f 397 479 480
f 397 480 398
f 398 480 481
f 398 481 399
f 399 481 482
f 399 482 400
f 400 482 483
f 400 483 401
f 401 483 484
f 401 484 402
f 404 403 485
f 404 485 486
f 387 404 486
f 387 486 469
f 403 405 487
f 403 487 485
f 405 406 488
f 405 488 487
f 406 407 489
f 406 489 488
f 402 484 490
f 402 490 408
f 410 409 491
f 410 491 492
f 407 410 492
f 407 492 489
f 409 411 493
f 409 493 491
f 411 412 494
f 411 494 493
f 408 490 495
f 408 495 413
f 415 414 496
f 415 496 497
f 412 415 497
f 412 497 494
f 414 416 498
f 414 498 496
f 416 417 499
f 416 499 498
f 413 495 500
f 413 500 418
f 420 419 501
f 420 501 502
f 417 420 502
f 417 502 499
f 418 500 503
f 418 503 421
f 423 422 504
f 423 504 505
f 419 423 505
f 419 505 501
f 421 503 506
f 421 506 424
f 422 425 507
f 422 507 504
f 424 506 508
f 424 508 426
f 425 427 509
f 425 509 507
f 426 508 510
f 426 510 428
f 429 511 509
f 429 509 427
f 429 430 512
f 429 512 511
f 428 510 513
f 428 513 431
f 432 514 512
f 432 512 430
f 432 433 515
f 432 515 514
f 431 513 516
f 431 516 434
f 435 517 518
f 435 518 436
f 435 437 519
f 435 519 517
f 436 518 520
f 436 520 438
f 438 520 515
f 438 515 433
f 434 516 521
f 434 521 439
f 440 522 523
f 440 523 441
f 440 442 524
f 440 524 522
f 441 523 525
f 441 525 443
f 443 525 519
f 443 519 437
f 439 521 526
f 439 526 444
f 445 527 528
f 445 528 446
f 445 447 529
f 445 529 527
f 446 528 530
f 446 530 448
f 448 530 531
f 448 531 449
f 449 531 524
f 449 524 442
f 444 526 532
f 444 532 450
f 451 533 529
f 451 529 447
f 453 452 534
f 453 534 535
f 451 453 535
f 451 535 533
f 452 454 536
f 452 536 534
f 454 455 537
f 454 537 536
f 455 456 538
f 455 538 537
f 456 457 539
f 456 539 538
f 457 458 540
f 457 540 539
f 458 459 541
f 458 541 540
f 459 460 542
f 459 542 541
f 460 461 543
f 460 543 542
f 461 462 544
f 461 544 543
f 462 463 545
f 462 545 544
f 463 464 546
f 463 546 545
f 464 465 547
f 464 547 546
f 465 466 548
f 465 548 547
f 450 532 548
f 450 548 466
f 467 549 550
f 467 550 468
f 470 469 551
f 470 551 552
f 467 470 552
f 467 552 549
f 468 550 553
f 468 553 471
f 471 553 554
f 471 554 472
f 472 554 555
f 472 555 473
f 473 555 556
f 473 556 474
f 474 556 557
f 474 557 475
f 475 557 558
f 475 558 476
f 476 558 559
f 476 559 477
f 477 559 560
f 477 560 478
f 478 560 561
f 478 561 479
f 479 561 562
f 479 562 480
f 480 562 563
f 480 563 481
f 481 563 564
f 481 564 482
f 482 564 565
f 482 565 483
f 483 565 566
f 483 566 484
f 486 485 567
f 486 567 568
f 469 486 568
f 469 568 551
f 485 487 569
f 485 569 567
f 487 488 570
f 487 570 569
f 488 489 571
f 488 571 570
f 484 566 572
f 484 572 490
f 492 491 573
f 492 573 574
f 489 492 574
f 489 574 571
f 491 493 575
f 491 575 573
f 493 494 576
f 493 576 575
f 490 572 577
f 490 577 495
f 497 496 578
f 497 578 579
f 494 497 579
f 494 579 576
f 496 498 580
f 496 580 578
f 498 499 581
f 498 581 580
f 495 577 582
f 495 582 500
f 502 501 583
f 502 583 584
f 499 502 584
f 499 584 581
f 500 582 585
f 500 585 503
f 505 504 586
f 505 586 587
f 501 505 587
f 501 587 583
f 503 585 588
f 503 588 506
f 504 507 589
f 504 589 586
f 506 588 590
f 506 590 508
f 507 509 591
f 507 591 589
f 508 590 592
f 508 592 510
f 511 593 591
f 511 591 509
f 511 512 594
f 511 594 593
f 510 592 595
f 510 595 513
f 514 596 594
f 514 594 512
f 514 515 597
f 514 597 596
f 513 595 598
f 513 598 516
f 517 599 600
f 517 600 518
f 517 519 601
f 517 601 599
f 518 600 602
f 518 602 520
f 520 602 597
f 520 597 515
f 516 598 603
f 516 603 521
f 522 604 605
f 522 605 523
f 522 524 606
f 522 606 604
f 523 605 607
f 523 607 525
f 525 607 601
f 525 601 519
f 521 603 608
f 521 608 526
f 527 609 610
f 527 610 528
f 527 529 611
f 527 611 609
f 528 610 612
f 528 612 530
f 530 612 613
f 530 613 531
f 531 613 606
f 531 606 524
f 526 608 614
f 526 614 532
f 533 615 611
f 533 611 529
f 535 534 616
f 535 616 617
f 533 535 617
f 533 617 615
f 534 536 618
f 534 618 616
f 536 537 619
f 536 619 618
f 537 538 620
f 537 620 619
f 538 539 621
f 538 621 620
f 539 540 622
f 539 622 621
f 540 541 623
f 540 623 622
f 541 542 624
f 541 624 623
f 542 543 625
f 542 625 624
f 543 544 626
f 543 626 625
f 544 545 627
f 544 627 626
f 545 546 628
f 545 628 627
f 546 547 629
f 546 629 628
f 547 548 630
f 547 630 629
f 532 614 630
f 532 630 548
f 549 631 632
f 549 632 550
f 552 551 633
f 552 633 634
f 549 552 634
f 549 634 631
f 550 632 635
f 550 635 553
f 553 635 636
f 553 636 554
f 554 636 637
f 554 637 555
f 555 637 638
f 555 638 556
f 556 638 639
f 556 639 557
f 557 639 640
f 557 640 558
f 558 640 641
f 558 641 559
f 559 641 642
f 559 642 560
f 560 642 643
f 560 643 561
f 561 643 644
f 561 644 562
f 562 644 645
f 562 645 563
f 563 645 646
f 563 646 564
f 564 646 647
f 564 647 565
f 565 647 648
f 565 648 566
f 568 567 649
f 568 649 650
f 551 568 650
f 551 650 633
f 567 569 651
f 567 651 649
f 569 570 652
f 569 652 651
f 570 571 653
f 570 653 652
f 566 648 654
f 566 654 572
f 574 573 655
f 574 655 656
f 571 574 656
f 571 656 653
f 573 575 657
f 573 657 655
f 575 576 658
f 575 658 657
f 572 654 659
f 572 659 577
f 579 578 660
f 579 660 661
f 576 579 661
f 576 661 658
f 578 580 662
f 578 662 660
f 580 581 663
f 580 663 662
f 577 659 664
f 577 664 582
f 584 583 665
f 584 665 666
f 581 584 666
f 581 666 663
f 582 664 667
f 582 667 585
f 587 586 668
f 587 668 669
f 583 587 669
f 583 669 665
f 585 667 670
f 585 670 588
f 586 589 671
f 586 671 668
f 588 670 672
f 588 672 590
f 589 591 673
f 589 673 671
f 590 672 674
f 590 674 592
f 593 675 673
f 593 673 591
f 593 594 676
f 593 676 675
f 592 674 677
f 592 677 595
f 596 678 676
f 596 676 594
f 596 597 679
f 596 679 678
f 595 677 680
f 595 680 598
f 599 681 682
f 599 682 600
f 599 601 683
f 599 683 681
f 600 682 684
f 600 684 602
f 602 684 679
f 602 679 597
f 598 680 685
f 598 685 603
f 604 686 687
f 604 687 605
f 604 606 688
f 604 688 686
f 605 687 689
f 605 689 607
f 607 689 683
f 607 683 601
f 603 685 690
f 603 690 608
f 609 691 692
f 609 692 610
f 609 611 693
f 609 693 691
f 610 692 694
f 610 694 612
f 612 694 695
f 612 695 613
f 613 695 688
f 613 688 606
f 608 690 696
f 608 696 614
f 615 697 693
f 615 693 611
f 617 616 698
f 617 698 699
f 615 617 699
f 615 699 697
f 616 618 700
f 616 700 698
f 618 619 701
f 618 701 700
f 619 620 702
f 619 702 701
f 620 621 703
f 620 703 702
f 621 622 704
f 621 704 703
f 622 623 705
f 622 705 704
f 623 624 706
f 623 706 705
f 624 625 707
f 624 707 706
f 625 626 708
f 625 708 707
f 626 627 709
f 626 709 708
f 627 628 710
f 627 710 709
f 628 629 711
f 628 711 710
f 629 630 712
f 629 712 711
f 614 696 712
f 614 712 630
f 631 713 714
f 631 714 632
f 634 633 715
f 634 715 716
f 631 634 716
f 631 716 713
f 632 714 717
f 632 717 635
f 635 717 718
f 635 718 636
f 636 718 719
f 636 719 637
f 637 719 720
f 637 720 638
f 638 720 721
f 638 721 639
f 639 721 722
f 639 722 640
f 640 722 723
f 640 723 641
f 641 723 724
f 641 724 642
f 642 724 725
f 642 725 643
f 643 725 726
f 643 726 644
f 644 726 727
f 644 727 645
f 645 727 728
f 645 728 646
f 646 728 729
f 646 729 647
f 647 729 730
f 647 730 648
f 650 649 731
f 650 731 732
f 633 650 732
f 633 732 715
f 649 651 733
f 649 733 731
f 651 652 734
f 651 734 733
f 652 653 735
f 652 735 734
f 648 730 736
f 648 736 654
f 656 655 737
f 656 737 738
f 653 656 738
f 653 738 735
f 655 657 739
f 655 739 737
f 657 658 740
f 657 740 739
f 654 736 741
f 654 741 659
f 661 660 742
f 661 742 743
f 658 661 743
f 658 743 740
f 660 662 744
f 660 744 742
f 662 663 745
f 662 745 744
f 659 741 746
f 659 746 664
f 666 665 747
f 666 747 748
f 663 666 748
f 663 748 745
f 664 746 749
f 664 749 667
f 669 668 750
f 669 750 751
f 665 669 751
f 665 751 747
f 667 749 752
f 667 752 670
f 668 671 753
f 668 753 750
f 670 752 754
f 670 754 672
f 671 673 755
f 671 755 753
f 672 754 756
f 672 756 674
f 675 757 755
f 675 755 673
f 675 676 758
f 675 758 757
f 674 756 759
f 674 759 677
f 678 760 758
f 678 758 676
f 678 679 761
f 678 761 760
f 677 759 762
f 677 762 680
f 681 763 764
f 681 764 682
f 681 683 765
f 681 765 763
f 682 764 766
f 682 766 684
f 684 766 761
f 684 761 679
f 680 762 767
f 680 767 685
f 686 768 769
f 686 769 687
f 686 688 770
f 686 770 768
f 687 769 771
f 687 771 689
f 689 771 765
f 689 765 683
f 685 767 772
f 685 772 690
f 691 773 774
f 691 774 692
f 691 693 775
f 691 775 773
f 692 774 776
f 692 776 694
f 694 776 777
f 694 777 695
f 695 777 770
f 695 770 688
f 690 772 778
f 690 778 696
f 697 779 775
f 697 775 693
f 699 698 780
f 699 780 781
f 697 699 781
f 697 781 779
f 698 700 782
f 698 782 780
f 700 701 783
f 700 783 782
f 701 702 784
f 701 784 783
f 702 703 785
f 702 785 784
f 703 704 786
f 703 786 785
f 704 705 787
f 704 787 786
f 705 706 788
f 705 788 787
f 706 707 789
f 706 789 788
f 707 708 790
f 707 790 789
f 708 709 791
f 708 791 790
f 709 710 792
f 709 792 791
f 710 711 793
f 710 793 792
f 711 712 794
f 711 794 793
f 696 778 794
f 696 794 712
f 713 795 796
f 713 796 714
f 716 715 797
f 716 797 798
f 713 716 798
f 713 798 795
f 714 796 799
f 714 799 717
f 717 799 800
f 717 800 718
f 718 800 801
f 718 801 719
f 719 801 802
f 719 802 720
f 720 802 803
f 720 803 721
f 721 803 804
f 721 804 722
f 722 804 805
f 722 805 723
f 723 805 806
f 723 806 724
f 724 806 807
f 724 807 725
f 725 807 808
f 725 808 726
f 726 808 809
f 726 809 727
f 727 809 810
f 727 810 728
f 728 810 811
f 728 811 729
f 729 811 812
f 729 812 730
f 732 731 813
f 732 813 814
f 715 732 814
f 715 814 797
f 731 733 815
f 731 815 813
f 733 734 816
f 733 816 815
f 734 735 817
f 734 817 816
f 730 812 818
f 730 818 736
f 738 737 819
f 738 819 820
f 735 738 820
f 735 820 817
f 737 739 821
f 737 821 819
f 739 740 822
f 739 822 821
f 736 818 823
f 736 823 741
f 743 742 824
f 743 824 825
f 740 743 825
f 740 825 822
f 742 744 826
f 742 826 824
f 744 745 827
f 744 827 826
f 741 823 828
f 741 828 746
f 748 747 829
f 748 829 830
f 745 748 830
f 745 830 827
f 746 828 831
f 746 831 749
f 751 750 832
f 751 832 833
f 747 751 833
f 747 833 829
f 749 831 834
f 749 834 752
f 750 753 835
f 750 835 832
f 752 834 836
f 752 836 754
f 753 755 837
f 753 837 835
f 754 836 838
f 754 838 756
f 757 839 837
f 757 837 755
f 757 758 840
f 757 840 839
f 756 838 841
f 756 841 759
f 760 842 840
f 760 840 758
f 760 761 843
f 760 843 842
f 759 841 844
f 759 844 762
f 763 845 846
f 763 846 764
f 763 765 847
f 763 847 845
f 764 846 848
f 764 848 766
f 766 848 843
f 766 843 761
f 762 844 849
f 762 849 767
f 768 850 851
f 768 851 769
f 768 770 852
f 768 852 850
f 769 851 853
f 769 853 771
f 771 853 847
f 771 847 765
f 767 849 854
f 767 854 772
f 773 855 856
f 773 856 774
f 773 775 857
f 773 857 855
f 774 856 858
f 774 858 776
f 776 858 859
f 776 859 777
f 777 859 852
f 777 852 770
f 772 854 860
f 772 860 778
f 779 861 857
f 779 857 775
f 781 780 862
f 781 862 863
f 779 781 863
f 779 863 861
f 780 782 864
f 780 864 862
f 782 783 865
f 782 865 864
f 783 784 866
f 783 866 865
f 784 785 867
f 784 867 866
f 785 786 868
f 785 868 867
f 786 787 869
f 786 869 868
f 787 788 870
f 787 870 869
f 788 789 871
f 788 871 870
f 789 790 872
f 789 872 871
f 790 791 873
f 790 873 872
f 791 792 874
f 791 874 873
f 792 793 875
f 792 875 874
f 793 794 876
f 793 876 875
f 778 860 876
f 778 876 794
f 795 877 878
f 795 878 796
f 798 797 879
f 798 879 880
f 795 798 880
f 795 880 877
f 796 878 881
f 796 881 799
f 799 881 882
f 799 882 800
f 800 882 883
f 800 883 801
f 801 883 884
f 801 884 802
f 802 884 885
f 802 885 803
f 803 885 886
f 803 886 804
f 804 886 887
f 804 887 805
f 805 887 888
f 805 888 806
f 806 888 889
f 806 889 807
f 807 889 890
f 807 890 808
f 808 890 891
f 808 891 809
f 809 891 892
f 809 892 810
f 810 892 893
f 810 893 811
f 811 893 894
f 811 894 812
f 814 813 895
f 814 895 896
f 797 814 896
f 797 896 879
f 813 815 897
f 813 897 895
f 815 816 898
f 815 898 897
f 816 817 899
f 816 899 898
f 812 894 900
f 812 900 818
f 820 819 901
f 820 901 902
f 817 820 902
f 817 902 899
f 819 821 903
f 819 903 901
f 821 822 904
f 821 904 903
f 818 900 905
f 818 905 823
f 825 824 906
f 825 906 907
f 822 825 907
f 822 907 904
f 824 826 908
f 824 908 906
f 826 827 909
f 826 909 908
f 823 905 910
f 823 910 828
f 830 829 911
f 830 911 912
f 827 830 912
f 827 912 909
f 828 910 913
f 828 913 831
f 833 832 914
f 833 914 915
f 829 833 915
f 829 915 911
f 831 913 916
f 831 916 834
f 832 835 917
f 832 917 914
f 834 916 918
f 834 918 836
f 835 837 919
f 835 919 917
f 836 918 920
f 836 920 838
f 839 921 919
f 839 919 837
f 839 840 922
f 839 922 921
f 838 920 923
f 838 923 841
f 842 924 922
f 842 922 840
f 842 843 925
f 842 925 924
f 841 923 926
f 841 926 844
f 845 927 928
f 845 928 846
f 845 847 929
f 845 929 927
f 846 928 930
f 846 930 848
f 848 930 925
f 848 925 843
f 844 926 931
f 844 931 849
f 850 932 933
f 850 933 851
f 850 852 934
f 850 934 932
f 851 933 935
f 851 935 853
f 853 935 929
f 853 929 847
f 849 931 936
f 849 936 854
f 855 937 938
f 855 938 856
f 855 857 939
f 855 939 937
f 856 938 940
f 856 940 858
f 858 940 941
f 858 941 859
f 859 941 934
f 859 934 852
f 854 936 942
f 854 942 860
f 861 943 939
f 861 939 857
f 863 862 944
f 863 944 945
f 861 863 945
f 861 945 943
f 862 864 946
f 862 946 944
f 864 865 947
f 864 947 946
f 865 866 948
f 865 948 947
f 866 867 949
f 866 949 948
f 867 868 950
f 867 950 949
f 868 869 951
f 868 951 950
f 869 870 952
f 869 952 951
f 870 871 953
f 870 953 952
f 871 872 954
f 871 954 953
f 872 873 955
f 872 955 954
f 873 874 956
f 873 956 955
f 874 875 957
f 874 957 956
f 875 876 958
f 875 958 957
f 860 942 958
f 860 958 876
f 877 959 960
f 877 960 878
f 880 879 961
f 880 961 962
f 877 880 962
f 877 962 959
f 878 960 963
f 878 963 881
f 881 963 964
f 881 964 882
f 882 964 965
f 882 965 883
f 883 965 966
f 883 966 884
f 884 966 967
f 884 967 885
f 885 967 968
f 885 968 886
f 886 968 969
f 886 969 887
f 887 969 970
f 887 970 888
f 888 970 971
f 888 971 889
f 889 971 972
f 889 972 890
f 890 972 973
f 890 973 891
f 891 973 974
f 891 974 892
f 892 974 975
f 892 975 893
f 893 975 976
f 893 976 894
f 896 895 977
f 896 977 978
f 879 896 978
f 879 978 961
f 895 897 979
f 895 979 977
f 897 898 980
f 897 980 979
f 898 899 981
f 898 981 980
f 894 976 982
f 894 982 900
f 902 901 983
f 902 983 984
f 899 902 984
f 899 984 981
f 901 903 985
f 901 985 983
f 903 904 986
f 903 986 985
f 900 982 987
f 900 987 905
f 907 906 988
f 907 988 989
f 904 907 989
f 904 989 986
f 906 908 990
f 906 990 988
f 908 909 991
f 908 991 990
f 905 987 992
f 905 992 910
f 912 911 993
f 912 993 994
f 909 912 994
f 909 994 991
f 910 992 995
f 910 995 913
f 915 914 996
f 915 996 997
f 911 915 997
f 911 997 993
f 913 995 998
f 913 998 916
f 914 917 999
f 914 999 996
f 916 998 1000
f 916 1000 918
f 917 919 1001
f 917 1001 999
f 918 1000 1002
f 918 1002 920
f 921 1003 1001
f 921 1001 919
f 921 922 1004
f 921 1004 1003
f 920 1002 1005
f 920 1005 923
f 924 1006 1004
f 924 1004 922
f 924 925 1007
f 924 1007 1006
f 923 1005 1008
f 923 1008 926
f 927 1009 1010
f 927 1010 928
f 927 929 1011
f 927 1011 1009
f 928 1010 1012
f 928 1012 930
f 930 1012 1007
f 930 1007 925
f 926 1008 1013
f 926 1013 931
f 932 1014 1015
f 932 1015 933
f 932 934 1016
f 932 1016 1014
f 933 1015 1017
f 933 1017 935
f 935 1017 1011
f 935 1011 929
f 931 1013 1018
f 931 1018 936
f 937 1019 1020
f 937 1020 938
f 937 939 1021
f 937 1021 1019
f 938 1020 1022
f 938 1022 940
f 940 1022 1023
f 940 1023 941
f 941 1023 1016
f 941 1016 934
f 936 1018 1024
f 936 1024 942
f 943 1025 1021
f 943 1021 939
f 945 944 1026
f 945 1026 1027
f 943 945 1027
f 943 1027 1025
f 944 946 1028
f 944 1028 1026
f 946 947 1029
f 946 1029 1028
f 947 948 1030
f 947 1030 1029
f 948 949 1031
f 948 1031 1030
f 949 950 1032
f 949 1032 1031
f 950 951 1033
f 950 1033 1032
f 951 952 1034
f 951 1034 1033
f 952 953 1035
f 952 1035 1034
f 953 954 1036
f 953 1036 1035
f 954 955 1037
f 954 1037 1036
f 955 956 1038
f 955 1038 1037
f 956 957 1039
f 956 1039 1038
f 957 958 1040
f 957 1040 1039
f 942 1024 1040
f 942 1040 958
f 959 1041 1042
f 959 1042 960
f 962 961 1043
f 962 1043 1044
f 959 962 1044
f 959 1044 1041
f 960 1042 1045
f 960 1045 963
f 963 1045 1046
f 963 1046 964
f 964 1046 1047
f 964 1047 965
f 965 1047 1048
f 965 1048 966
f 966 1048 1049
f 966 1049 967
f 967 1049 1050
f 967 1050 968
f 968 1050 1051
f 968 1051 969
f 969 1051 1052
f 969 1052 970
f 970 1052 1053
f 970 1053 971
f 971 1053 1054
f 971 1054 972
f 972 1054 1055
f 972 1055 973
f 973 1055 1056
f 973 1056 974
f 974 1056 1057
f 974 1057 975
f 975 1057 1058
f 975 1058 976
f 978 977 1059
f 978 1059 1060
f 961 978 1060
f 961 1060 1043
f 977 979 1061
f 977 1061 1059
f 979 980 1062
f 979 1062 1061
f 980 981 1063
f 980 1063 1062
f 976 1058 1064
f 976 1064 982
f 984 983 1065
f 984 1065 1066
f 981 984 1066
f 981 1066 1063
f 983 985 1067
f 983 1067 1065
f 985 986 1068
f 985 1068 1067
f 982 1064 1069
f 982 1069 987
f 989 988 1070
f 989 1070 1071
f 986 989 1071
f 986 1071 1068
f 988 990 1072
f 988 1072 1070
f 990 991 1073
f 990 1073 1072
f 987 1069 1074
f 987 1074 992
f 994 993 1075
f 994 1075 1076
f 991 994 1076
f 991 1076 1073
f 992 1074 1077
f 992 1077 995
f 997 996 1078
f 997 1078 1079
f 993 997 1079
f 993 1079 1075
f 995 1077 1080
f 995 1080 998
f 996 999 1081
f 996 1081 1078
f 998 1080 1082
f 998 1082 1000
f 999 1001 1083
f 999 1083 1081
f 1000 1082 1084
f 1000 1084 1002
f 1003 1085 1083
f 1003 1083 1001
f 1003 1004 1086
f 1003 1086 1085
f 1002 1084 1087
f 1002 1087 1005
f 1006 1088 1086
f 1006 1086 1004
f 1006 1007 1089
f 1006 1089 1088
f 1005 1087 1090
f 1005 1090 1008
f 1009 1091 1092
f 1009 1092 1010
f 1009 1011 1093
f 1009 1093 1091
f 1010 1092 1094
f 1010 1094 1012
f 1012 1094 1089
f 1012 1089 1007
f 1008 1090 1095
f 1008 1095 1013
f 1014 1096 1097
f 1014 1097 1015
f 1014 1016 1098
f 1014 1098 1096
f 1015 1097 1099
f 1015 1099 1017
f 1017 1099 1093
f 1017 1093 1011
f 1013 1095 1100
f 1013 1100 1018
f 1019 1101 1102
f 1019 1102 1020
f 1019 1021 1103
f 1019 1103 1101
f 1020 1102 1104
f 1020 1104 1022
f 1022 1104 1105
f 1022 1105 1023
f 1023 1105 1098
f 1023 1098 1016
f 1018 1100 1106
f 1018 1106 1024
f 1025 1107 1103
f 1025 1103 1021
f 1027 1026 1108
f 1027 1108 1109
f 1025 1027 1109
f 1025 1109 1107
f 1026 1028 1110
f 1026 1110 1108
f 1028 1029 1111
f 1028 1111 1110
f 1029 1030 1112
f 1029 1112 1111
f 1030 1031 1113
f 1030 1113 1112
f 1031 1032 1114
f 1031 1114 1113
f 1032 1033 1115
f 1032 1115 1114
f 1033 1034 1116
f 1033 1116 1115
f 1034 1035 1117
f 1034 1117 1116
f 1035 1036 1118
f 1035 1118 1117
f 1036 1037 1119
f 1036 1119 1118
f 1037 1038 1120
f 1037 1120 1119
f 1038 1039 1121
f 1038 1121 1120
f 1039 1040 1122
f 1039 1122 1121
f 1024 1106 1122
f 1024 1122 1040
f 1041 1123 1124
f 1041 1124 1042
f 1044 1043 1125
f 1044 1125 1126
f 1041 1044 1126
f 1041 1126 1123
f 1042 1124 1127
f 1042 1127 1045
f 1045 1127 1128
f 1045 1128 1046
f 1046 1128 1129
f 1046 1129 1047
f 1047 1129 1130
f 1047 1130 1048
f 1048 1130 1131
f 1048 1131 1049
f 1049 1131 1132
f 1049 1132 1050
f 1050 1132 1133
f 1050 1133 1051
f 1051 1133 1134
f 1051 1134 1052
f 1052 1134 1135
f 1052 1135 1053
f 1053 1135 1136
f 1053 1136 1054
f 1054 1136 1137
f 1054 1137 1055
f 1055 1137 1138
f 1055 1138 1056
f 1056 1138 1139
f 1056 1139 1057
f 1057 1139 1140
f 1057 1140 1058
f 1060 1059 1141
f 1060 1141 1142
f 1043 1060 1142
f 1043 1142 1125
f 1059 1061 1143
f 1059 1143 1141
f 1061 1062 1144
f 1061 1144 1143
f 1062 1063 1145
f 1062 1145 1144
f 1058 1140 1146
f 1058 1146 1064
f 1066 1065 1147
f 1066 1147 1148
f 1063 1066 1148
f 1063 1148 1145
f 1065 1067 1149
f 1065 1149 1147
f 1067 1068 1150
f 1067 1150 1149
f 1064 1146 1151
f 1064 1151 1069
f 1071 1070 1152
f 1071 1152 1153
f 1068 1071 1153
f 1068 1153 1150
f 1070 1072 1154
f 1070 1154 1152
f 1072 1073 1155
f 1072 1155 1154
f 1069 1151 1156
f 1069 1156 1074
f 1076 1075 1157
f 1076 1157 1158
f 1073 1076 1158
f 1073 1158 1155
f 1074 1156 1159
f 1074 1159 1077
f 1079 1078 1160
f 1079 1160 1161
f 1075 1079 1161
f 1075 1161 1157
f 1077 1159 1162
f 1077 1162 1080
f 1078 1081 1163
f 1078 1163 1160
f 1080 1162 1164
f 1080 1164 1082
f 1081 1083 1165
f 1081 1165 1163
f 1082 1164 1166
f 1082 1166 1084
f 1085 1167 1165
f 1085 1165 1083
f 1085 1086 1168
f 1085 1168 1167
f 1084 1166 1169
f 1084 1169 1087
f 1088 1170 1168
f 1088 1168 1086
f 1088 1089 1171
f 1088 1171 1170
f 1087 1169 1172
f 1087 1172 1090
f 1091 1173 1174
f 1091 1174 1092
f 1091 1093 1175
f 1091 1175 1173
f 1092 1174 1176
f 1092 1176 1094
f 1094 1176 1171
f 1094 1171 1089
f 1090 1172 1177
f 1090 1177 1095
f 1096 1178 1179
f 1096 1179 1097
f 1096 1098 1180
f 1096 1180 1178
f 1097 1179 1181
f 1097 1181 1099
f 1099 1181 1175
f 1099 1175 1093
f 1095 1177 1182
f 1095 1182 1100
f 1101 1183 1184
f 1101 1184 1102
f 1101 1103 1185
f 1101 1185 1183
f 1102 1184 1186
f 1102 1186 1104
f 1104 1186 1187
f 1104 1187 1105
f 1105 1187 1180
f 1105 1180 1098
f 1100 1182 1188
f 1100 1188 1106
f 1107 1189 1185
f 1107 1185 1103
f 1109 1108 1190
f 1109 1190 1191
f 1107 1109 1191
f 1107 1191 1189
f 1108 1110 1192
f 1108 1192 1190
f 1110 1111 1193
f 1110 1193 1192
f 1111 1112 1194
f 1111 1194 1193
f 1112 1113 1195
f 1112 1195 1194
f 1113 1114 1196
f 1113 1196 1195
f 1114 1115 1197
f 1114 1197 1196
f 1115 1116 1198
f 1115 1198 1197
f 1116 1117 1199
f 1116 1199 1198
f 1117 1118 1200
f 1117 1200 1199
f 1118 1119 1201
f 1118 1201 1200
f 1119 1120 1202
f 1119 1202 1201
f 1120 1121 1203
f 1120 1203 1202
f 1121 1122 1204
f 1121 1204 1203
f 1106 1188 1204
f 1106 1204 1122
f 1205 1206 1207
f 1205 1207 1208
f 1123 1205 1206
f 1123 1206 1124
f 1126 1125 1207
f 1126 1207 1208
f 1123 1126 1208
f 1123 1208 1205
f 1206 1209 1210
f 1206 1210 1207
f 1124 1206 1209
f 1124 1209 1127
f 1209 1211 1212
f 1209 1212 1210
f 1127 1209 1211
f 1127 1211 1128
f 1211 1213 1214
f 1211 1214 1212
f 1128 1211 1213
f 1128 1213 1129
f 1213 1215 1216
f 1213 1216 1214
f 1129 1213 1215
f 1129 1215 1130
f 1215 1217 1218
f 1215 1218 1216
f 1130 1215 1217
f 1130 1217 1131
f 1217 1219 1220
f 1217 1220 1218
f 1131 1217 1219
f 1131 1219 1132
f 1219 1221 1222
f 1219 1222 1220
f 1132 1219 1221
f 1132 1221 1133
f 1221 1223 1224
f 1221 1224 1222
f 1133 1221 1223
f 1133 1223 1134
f 1223 1225 1226
f 1223 1226 1224
f 1134 1223 1225
f 1134 1225 1135
f 1225 1227 1228
f 1225 1228 1226
f 1135 1225 1227
f 1135 1227 1136
f 1227 1229 1230
f 1227 1230 1228
f 1136 1227 1229
f 1136 1229 1137
f 1229 1231 1232
f 1229 1232 1230
f 1137 1229 1231
f 1137 1231 1138
f 1231 1233 1234
f 1231 1234 1232
f 1138 1231 1233
f 1138 1233 1139
f 1139 1233 1234
f 1139 1234 1140
f 1207 1210 1235
f 1207 1235 1236
f 1142 1141 1235
f 1142 1235 1236
f 1125 1142 1236
f 1125 1236 1207
f 1210 1212 1237
f 1210 1237 1235
f 1141 1143 1237
f 1141 1237 1235
f 1212 1214 1238
f 1212 1238 1237
f 1143 1144 1238
f 1143 1238 1237
f 1214 1216 1239
f 1214 1239 1238
f 1144 1145 1239
f 1144 1239 1238
f 1216 1218 1240
f 1216 1240 1239
f 1218 1220 1241
f 1218 1241 1240
f 1220 1222 1242
f 1220 1242 1241
f 1222 1224 1243
f 1222 1243 1242
f 1224 1226 1244
f 1224 1244 1243
f 1226 1228 1245
f 1226 1245 1244
f 1228 1230 1246
f 1228 1246 1245
f 1230 1232 1247
f 1230 1247 1246
f 1232 1234 1248
f 1232 1248 1247
f 1140 1234 1248
f 1140 1248 1146
f 1239 1240 1249
f 1239 1249 1250
f 1148 1147 1249
f 1148 1249 1250
f 1145 1148 1250
f 1145 1250 1239
f 1240 1241 1251
f 1240 1251 1249
f 1147 1149 1251
f 1147 1251 1249
f 1241 1242 1252
f 1241 1252 1251
f 1149 1150 1252
f 1149 1252 1251
f 1242 1243 1253
f 1242 1253 1252
f 1243 1244 1254
f 1243 1254 1253
f 1244 1245 1255
f 1244 1255 1254
f 1245 1246 1256
f 1245 1256 1255
f 1246 1247 1257
f 1246 1257 1256
f 1247 1248 1258
f 1247 1258 1257
f 1146 1248 1258
f 1146 1258 1151
f 1252 1253 1259
f 1252 1259 1260
f 1153 1152 1259
f 1153 1259 1260
f 1150 1153 1260
f 1150 1260 1252
f 1253 1254 1261
f 1253 1261 1259
f 1152 1154 1261
f 1152 1261 1259
f 1254 1255 1262
f 1254 1262 1261
f 1154 1155 1262
f 1154 1262 1261
f 1255 1256 1263
f 1255 1263 1262
f 1256 1257 1264
f 1256 1264 1263
f 1257 1258 1265
f 1257 1265 1264
f 1151 1258 1265
f 1151 1265 1156
f 1262 1263 1266
f 1262 1266 1267
f 1158 1157 1266
f 1158 1266 1267
f 1155 1158 1267
f 1155 1267 1262
f 1263 1264 1268
f 1263 1268 1266
f 1264 1265 1269
f 1264 1269 1268
f 1156 1265 1269
f 1156 1269 1159
f 1266 1268 1270
f 1266 1270 1271
f 1161 1160 1270
f 1161 1270 1271
f 1157 1161 1271
f 1157 1271 1266
f 1268 1269 1272
f 1268 1272 1270
f 1159 1269 1272
f 1159 1272 1162
f 1270 1272 1273
f 1270 1273 1274
f 1160 1163 1274
f 1160 1274 1270
f 1162 1272 1273
f 1162 1273 1164
f 1274 1273 1275
f 1274 1275 1276
f 1163 1165 1276
f 1163 1276 1274
f 1164 1273 1275
f 1164 1275 1166
f 1277 1276 1278
f 1277 1278 1279
f 1167 1277 1276
f 1167 1276 1165
f 1167 1168 1279
f 1167 1279 1277
f 1276 1275 1280
f 1276 1280 1278
f 1166 1275 1280
f 1166 1280 1169
f 1281 1279 1282
f 1281 1282 1283
f 1170 1281 1279
f 1170 1279 1168
f 1170 1171 1283
f 1170 1283 1281
f 1279 1278 1284
f 1279 1284 1282
f 1278 1280 1285
f 1278 1285 1284
f 1169 1280 1285
f 1169 1285 1172
f 1286 1287 1288
f 1286 1288 1289
f 1173 1286 1287
f 1173 1287 1174
f 1173 1175 1289
f 1173 1289 1286
f 1287 1290 1291
f 1287 1291 1288
f 1174 1287 1290
f 1174 1290 1176
f 1290 1283 1292
f 1290 1292 1291
f 1176 1290 1283
f 1176 1283 1171
f 1283 1282 1293
f 1283 1293 1292
f 1282 1284 1294
f 1282 1294 1293
f 1284 1285 1295
f 1284 1295 1294
f 1172 1285 1295
f 1172 1295 1177
f 1296 1297 1298
f 1296 1298 1299
f 1178 1296 1297
f 1178 1297 1179
f 1178 1180 1299
f 1178 1299 1296
f 1297 1300 1301
f 1297 1301 1298
f 1179 1297 1300
f 1179 1300 1181
f 1300 1289 1302
f 1300 1302 1301
f 1181 1300 1289
f 1181 1289 1175
f 1289 1288 1303
f 1289 1303 1302
f 1288 1291 1304
f 1288 1304 1303
f 1291 1292 1305
f 1291 1305 1304
f 1292 1293 1306
f 1292 1306 1305
f 1293 1294 1307
f 1293 1307 1306
f 1294 1295 1308
f 1294 1308 1307
f 1177 1295 1308
f 1177 1308 1182
f 1309 1310 1311
f 1309 1311 1312
f 1183 1309 1310
f 1183 1310 1184
f 1183 1185 1312
f 1183 1312 1309
f 1310 1313 1314
f 1310 1314 1311
f 1184 1310 1313
f 1184 1313 1186
f 1313 1315 1316
f 1313 1316 1314
f 1186 1313 1315
f 1186 1315 1187
f 1315 1299 1317
f 1315 1317 1316
f 1187 1315 1299
f 1187 1299 1180
f 1299 1298 1318
f 1299 1318 1317
f 1298 1301 1319
f 1298 1319 1318
f 1301 1302 1320
f 1301 1320 1319
f 1302 1303 1321
f 1302 1321 1320
f 1303 1304 1322
f 1303 1322 1321
f 1304 1305 1323
f 1304 1323 1322
f 1305 1306 1324
f 1305 1324 1323
f 1306 1307 1325
f 1306 1325 1324
f 1307 1308 1326
f 1307 1326 1325
f 1182 1308 1326
f 1182 1326 1188
f 1327 1312 1328
f 1327 1328 1329
f 1189 1327 1312
f 1189 1312 1185
f 1191 1190 1328
f 1191 1328 1329
f 1189 1191 1329
f 1189 1329 1327
f 1312 1311 1330
f 1312 1330 1328
f 1190 1192 1330
f 1190 1330 1328
f 1311 1314 1331
f 1311 1331 1330
f 1192 1193 1331
f 1192 1331 1330
f 1314 1316 1332
f 1314 1332 1331
f 1193 1194 1332
f 1193 1332 1331
f 1316 1317 1333
f 1316 1333 1332
f 1194 1195 1333
f 1194 1333 1332
f 1317 1318 1334
f 1317 1334 1333
f 1195 1196 1334
f 1195 1334 1333
f 1318 1319 1335
f 1318 1335 1334
f 1196 1197 1335
f 1196 1335 1334
f 1319 1320 1336
f 1319 1336 1335
f 1197 1198 1336
f 1197 1336 1335
f 1320 1321 1337
f 1320 1337 1336
f 1198 1199 1337
f 1198 1337 1336
f 1321 1322 1338
f 1321 1338 1337
f 1199 1200 1338
f 1199 1338 1337
f 1322 1323 1339
f 1322 1339 1338
f 1200 1201 1339
f 1200 1339 1338
f 1323 1324 1340
f 1323 1340 1339
f 1201 1202 1340
f 1201 1340 1339
f 1324 1325 1341
f 1324 1341 1340
f 1202 1203 1341
f 1202 1341 1340
f 1325 1326 1342
f 1325 1342 1341
f 1203 1204 1342
f 1203 1342 1341
f 1188 1326 1342
f 1188 1342 1204
