o [4B] 3D Diagram - S2-05 Group B_35
v -12.959207 -1.417500 0.330000
v -12.959207 -1.215000 0.330000
v -12.959207 -1.215000 1.140000
v -12.959207 -1.417500 1.140000
v -11.996503 -1.417500 0.330000
v -11.996503 -1.417500 1.140000
v -11.996503 -1.215000 0.330000
v -11.996503 -1.215000 1.140000
v -12.959207 -1.012500 0.330000
v -12.959207 -1.012500 1.140000
v -11.996503 -1.012500 0.330000
v -11.996503 -1.012500 1.140000
v -12.959207 -0.810000 0.330000
v -12.959207 -0.810000 1.140000
v -11.996503 -0.810000 0.330000
v -11.996503 -0.810000 1.140000
v -12.959207 -0.607500 0.330000
v -12.959207 -0.607500 1.140000
v -11.996503 -0.607500 0.330000
v -11.996503 -0.607500 1.140000
v -12.959207 -0.405000 0.330000
v -12.959207 -0.405000 1.140000
v -11.996503 -0.405000 0.330000
v -11.996503 -0.405000 1.140000
v -12.959207 -0.202500 0.330000
v -12.959207 -0.202500 1.140000
v -11.996503 -0.202500 0.330000
v -11.996503 -0.202500 1.140000
v -12.959207 0.000000 0.330000
v -12.959207 0.000000 1.140000
v -11.996503 0.000000 0.330000
v -11.996503 0.000000 1.140000
v -12.959207 0.202500 0.330000
v -12.959207 0.202500 1.140000
v -11.996503 0.202500 0.330000
v -11.996503 0.202500 1.140000
v -12.959207 0.405000 0.330000
v -12.959207 0.405000 1.140000
v -11.996503 0.405000 0.330000
v -11.996503 0.405000 1.140000
v -12.959207 0.607500 0.330000
v -12.959207 0.607500 1.140000
v -11.996503 0.607500 0.330000
v -11.996503 0.607500 1.140000
v -12.959207 0.810000 0.330000
v -12.959207 0.810000 1.140000
v -11.996503 0.810000 0.330000
v -11.996503 0.810000 1.140000
v -12.959207 1.012500 0.330000
v -12.959207 1.012500 1.140000
v -11.996503 1.012500 0.330000
v -11.996503 1.012500 1.140000
v -12.959207 1.215000 0.330000
v -12.959207 1.215000 1.140000
v -11.996503 1.215000 0.330000
v -11.996503 1.215000 1.140000
v -12.959207 1.417500 0.330000
v -12.959207 1.417500 1.140000
v -11.996503 1.417500 1.140000
v -11.996503 1.417500 0.330000
v -11.033799 -1.417500 0.330000
v -11.033799 -1.417500 1.140000
v -11.033799 -1.215000 0.330000
v -11.996503 -1.215000 1.950000
v -11.996503 -1.417500 1.950000
v -11.033799 -1.417500 1.950000
v -11.033799 -1.215000 1.950000
v -11.033799 -1.012500 0.330000
v -11.996503 -1.012500 1.950000
v -11.033799 -1.012500 1.950000
v -11.033799 -0.810000 0.330000
v -11.996503 -0.810000 1.950000
v -11.033799 -0.810000 1.950000
v -11.033799 -0.607500 0.330000
v -11.996503 -0.607500 1.950000
v -11.033799 -0.607500 1.950000
v -11.033799 -0.405000 0.330000
v -11.996503 -0.405000 1.950000
v -11.033799 -0.405000 1.950000
v -11.033799 -0.202500 0.330000
v -11.996503 -0.202500 1.950000
v -11.033799 -0.202500 1.950000
v -11.033799 0.000000 0.330000
v -11.996503 0.000000 1.950000
v -11.033799 0.000000 1.950000
v -11.033799 0.202500 0.330000
v -11.996503 0.202500 1.950000
v -11.033799 0.202500 1.950000
v -11.033799 0.405000 0.330000
v -11.996503 0.405000 1.950000
v -11.033799 0.405000 1.950000
v -11.033799 0.607500 0.330000
v -11.996503 0.607500 1.950000
v -11.033799 0.607500 1.950000
v -11.033799 0.810000 0.330000
v -11.996503 0.810000 1.950000
v -11.033799 0.810000 1.950000
v -11.033799 1.012500 0.330000
v -11.996503 1.012500 1.950000
v -11.033799 1.012500 1.950000
v -11.033799 1.215000 0.330000
v -11.996503 1.215000 1.950000
v -11.033799 1.215000 1.950000
v -11.033799 1.417500 1.140000
v -11.033799 1.417500 0.330000
v -11.996503 1.417500 1.950000
v -11.033799 1.417500 1.950000
v -10.071096 -1.417500 0.330000
v -10.071096 -1.417500 1.140000
v -10.071096 -1.215000 0.330000
v -10.071096 -1.417500 1.950000
v -11.033799 -1.215000 2.760000
v -11.033799 -1.417500 2.760000
v -10.071096 -1.417500 2.760000
v -10.071096 -1.215000 2.760000
v -10.071096 -1.012500 0.330000
v -11.033799 -1.012500 2.760000
v -10.071096 -1.012500 2.760000
v -10.071096 -0.810000 0.330000
v -11.033799 -0.810000 2.760000
v -10.071096 -0.810000 2.760000
v -10.071096 -0.607500 0.330000
v -11.033799 -0.607500 2.760000
v -10.071096 -0.607500 2.760000
v -10.071096 -0.405000 0.330000
v -11.033799 -0.405000 2.760000
v -10.071096 -0.405000 2.760000
v -10.071096 -0.202500 0.330000
v -11.033799 -0.202500 2.760000
v -10.071096 -0.202500 2.760000
v -10.071096 0.000000 0.330000
v -11.033799 0.000000 2.760000
v -10.071096 0.000000 2.760000
v -10.071096 0.202500 0.330000
v -11.033799 0.202500 2.760000
v -10.071096 0.202500 2.760000
v -10.071096 0.405000 0.330000
v -11.033799 0.405000 2.760000
v -10.071096 0.405000 2.760000
v -10.071096 0.607500 0.330000
v -11.033799 0.607500 2.760000
v -10.071096 0.607500 2.760000
v -10.071096 0.810000 0.330000
v -11.033799 0.810000 2.760000
v -10.071096 0.810000 2.760000
v -10.071096 1.012500 0.330000
v -11.033799 1.012500 2.760000
v -10.071096 1.012500 2.760000
v -10.071096 1.215000 0.330000
v -11.033799 1.215000 2.760000
v -10.071096 1.215000 2.760000
v -10.071096 1.417500 1.140000
v -10.071096 1.417500 0.330000
v -10.071096 1.417500 1.950000
v -11.033799 1.417500 2.760000
v -10.071096 1.417500 2.760000
v -9.108392 -1.417500 0.330000
v -9.108392 -1.417500 1.140000
v -9.108392 -1.215000 0.330000
v -9.108392 -1.417500 1.950000
v -9.108392 -1.417500 2.760000
v -10.071096 -1.215000 3.570000
v -10.071096 -1.417500 3.570000
v -9.108392 -1.417500 3.570000
v -10.071096 -1.215000 4.380000
v -10.071096 -1.417500 4.380000
v -9.108392 -1.417500 4.380000
v -9.108392 -1.215000 4.380000
v -9.108392 -1.012500 0.330000
v -10.071096 -1.012500 3.570000
v -10.071096 -1.012500 4.380000
v -9.108392 -1.012500 4.380000
v -9.108392 -0.810000 0.330000
v -10.071096 -0.810000 3.570000
v -10.071096 -0.810000 4.380000
v -9.108392 -0.810000 4.380000
v -9.108392 -0.607500 0.330000
v -10.071096 -0.607500 3.570000
v -10.071096 -0.607500 4.380000
v -9.108392 -0.607500 4.380000
v -9.108392 -0.405000 0.330000
v -10.071096 -0.405000 3.570000
v -10.071096 -0.405000 4.380000
v -9.108392 -0.405000 4.380000
v -9.108392 -0.202500 0.330000
v -10.071096 -0.202500 3.570000
v -10.071096 -0.202500 4.380000
v -9.108392 -0.202500 4.380000
v -9.108392 0.000000 0.330000
v -10.071096 0.000000 3.570000
v -10.071096 0.000000 4.380000
v -9.108392 0.000000 4.380000
v -9.108392 0.202500 0.330000
v -10.071096 0.202500 3.570000
v -10.071096 0.202500 4.380000
v -9.108392 0.202500 4.380000
v -9.108392 0.405000 0.330000
v -10.071096 0.405000 3.570000
v -10.071096 0.405000 4.380000
v -9.108392 0.405000 4.380000
v -9.108392 0.607500 0.330000
v -10.071096 0.607500 3.570000
v -10.071096 0.607500 4.380000
v -9.108392 0.607500 4.380000
v -9.108392 0.810000 0.330000
v -10.071096 0.810000 3.570000
v -10.071096 0.810000 4.380000
v -9.108392 0.810000 4.380000
v -9.108392 1.012500 0.330000
v -10.071096 1.012500 3.570000
v -10.071096 1.012500 4.380000
v -9.108392 1.012500 4.380000
v -9.108392 1.215000 0.330000
v -10.071096 1.215000 3.570000
v -10.071096 1.215000 4.380000
v -9.108392 1.215000 4.380000
v -9.108392 1.417500 1.140000
v -9.108392 1.417500 0.330000
v -9.108392 1.417500 1.950000
v -9.108392 1.417500 2.760000
v -10.071096 1.417500 3.570000
v -9.108392 1.417500 3.570000
v -10.071096 1.417500 4.380000
v -9.108392 1.417500 4.380000
v -8.145688 -1.417500 0.330000
v -8.145688 -1.417500 1.140000
v -8.145688 -1.215000 0.330000
v -8.145688 -1.417500 1.950000
v -8.145688 -1.417500 2.760000
v -8.145688 -1.417500 3.570000
v -8.145688 -1.417500 4.380000
v -9.108392 -1.215000 5.190000
v -9.108392 -1.417500 5.190000
v -8.145688 -1.417500 5.190000
v -8.145688 -1.215000 5.190000
v -8.145688 -1.012500 0.330000
v -9.108392 -1.012500 5.190000
v -8.145688 -1.012500 5.190000
v -8.145688 -0.810000 0.330000
v -9.108392 -0.810000 5.190000
v -8.145688 -0.810000 5.190000
v -8.145688 -0.607500 0.330000
v -9.108392 -0.607500 5.190000
v -8.145688 -0.607500 5.190000
v -8.145688 -0.405000 0.330000
v -9.108392 -0.405000 5.190000
v -8.145688 -0.405000 5.190000
v -8.145688 -0.202500 0.330000
v -9.108392 -0.202500 5.190000
v -8.145688 -0.202500 5.190000
v -8.145688 0.000000 0.330000
v -9.108392 0.000000 5.190000
v -8.145688 0.000000 5.190000
v -8.145688 0.202500 0.330000
v -9.108392 0.202500 5.190000
v -8.145688 0.202500 5.190000
v -8.145688 0.405000 0.330000
v -9.108392 0.405000 5.190000
v -8.145688 0.405000 5.190000
v -8.145688 0.607500 0.330000
v -9.108392 0.607500 5.190000
v -8.145688 0.607500 5.190000
v -8.145688 0.810000 0.330000
v -9.108392 0.810000 5.190000
v -8.145688 0.810000 5.190000
v -8.145688 1.012500 0.330000
v -9.108392 1.012500 5.190000
v -8.145688 1.012500 5.190000
v -8.145688 1.215000 0.330000
v -9.108392 1.215000 5.190000
v -8.145688 1.215000 5.190000
v -8.145688 1.417500 1.140000
v -8.145688 1.417500 0.330000
v -8.145688 1.417500 1.950000
v -8.145688 1.417500 2.760000
v -8.145688 1.417500 3.570000
v -8.145688 1.417500 4.380000
v -9.108392 1.417500 5.190000
v -8.145688 1.417500 5.190000
v -7.182984 -1.417500 0.330000
v -7.182984 -1.417500 1.140000
v -7.182984 -1.215000 0.330000
v -7.182984 -1.417500 1.950000
v -7.182984 -1.417500 2.760000
v -7.182984 -1.417500 3.570000
v -7.182984 -1.417500 4.380000
v -7.182984 -1.417500 5.190000
v -8.145688 -1.215000 6.000000
v -8.145688 -1.417500 6.000000
v -7.182984 -1.417500 6.000000
v -7.182984 -1.215000 6.000000
v -7.182984 -1.012500 0.330000
v -8.145688 -1.012500 6.000000
v -7.182984 -1.012500 6.000000
v -7.182984 -0.810000 0.330000
v -8.145688 -0.810000 6.000000
v -7.182984 -0.810000 6.000000
v -7.182984 -0.607500 0.330000
v -8.145688 -0.607500 6.000000
v -7.182984 -0.607500 6.000000
v -7.182984 -0.405000 0.330000
v -8.145688 -0.405000 6.000000
v -7.182984 -0.405000 6.000000
v -7.182984 -0.202500 0.330000
v -8.145688 -0.202500 6.000000
v -7.182984 -0.202500 6.000000
v -7.182984 0.000000 0.330000
v -8.145688 0.000000 6.000000
v -7.182984 0.000000 6.000000
v -7.182984 0.202500 0.330000
v -8.145688 0.202500 6.000000
v -7.182984 0.202500 6.000000
v -7.182984 0.405000 0.330000
v -8.145688 0.405000 6.000000
v -7.182984 0.405000 6.000000
v -7.182984 0.607500 0.330000
v -8.145688 0.607500 6.000000
v -7.182984 0.607500 6.000000
v -7.182984 0.810000 0.330000
v -8.145688 0.810000 6.000000
v -7.182984 0.810000 6.000000
v -7.182984 1.012500 0.330000
v -8.145688 1.012500 6.000000
v -7.182984 1.012500 6.000000
v -7.182984 1.215000 0.330000
v -8.145688 1.215000 6.000000
v -7.182984 1.215000 6.000000
v -7.182984 1.417500 1.140000
v -7.182984 1.417500 0.330000
v -7.182984 1.417500 1.950000
v -7.182984 1.417500 2.760000
v -7.182984 1.417500 3.570000
v -7.182984 1.417500 4.380000
v -7.182984 1.417500 5.190000
v -8.145688 1.417500 6.000000
v -7.182984 1.417500 6.000000
v -6.220280 -1.417500 0.330000
v -6.220280 -1.417500 1.140000
v -6.220280 -1.215000 0.330000
v -6.220280 -1.417500 1.950000
v -6.220280 -1.417500 2.760000
v -6.220280 -1.417500 3.570000
v -6.220280 -1.417500 4.380000
v -6.220280 -1.417500 5.190000
v -6.220280 -1.417500 6.000000
v -7.182984 -1.215000 6.810000
v -7.182984 -1.417500 6.810000
v -6.220280 -1.417500 6.810000
v -6.220280 -1.215000 6.810000
v -6.220280 -1.012500 0.330000
v -7.182984 -1.012500 6.810000
v -6.220280 -1.012500 6.810000
v -6.220280 -0.810000 0.330000
v -7.182984 -0.810000 6.810000
v -6.220280 -0.810000 6.810000
v -6.220280 -0.607500 0.330000
v -7.182984 -0.607500 6.810000
v -6.220280 -0.607500 6.810000
v -6.220280 -0.405000 0.330000
v -7.182984 -0.405000 6.810000
v -6.220280 -0.405000 6.810000
v -6.220280 -0.202500 0.330000
v -7.182984 -0.202500 6.810000
v -6.220280 -0.202500 6.810000
v -6.220280 0.000000 0.330000
v -7.182984 0.000000 6.810000
v -6.220280 0.000000 6.810000
v -6.220280 0.202500 0.330000
v -7.182984 0.202500 6.810000
v -6.220280 0.202500 6.810000
v -6.220280 0.405000 0.330000
v -7.182984 0.405000 6.810000
v -6.220280 0.405000 6.810000
v -6.220280 0.607500 0.330000
v -7.182984 0.607500 6.810000
v -6.220280 0.607500 6.810000
v -6.220280 0.810000 0.330000
v -7.182984 0.810000 6.810000
v -6.220280 0.810000 6.810000
v -6.220280 1.012500 0.330000
v -7.182984 1.012500 6.810000
v -6.220280 1.012500 6.810000
v -6.220280 1.215000 0.330000
v -7.182984 1.215000 6.810000
v -6.220280 1.215000 6.810000
v -6.220280 1.417500 1.140000
v -6.220280 1.417500 0.330000
v -6.220280 1.417500 1.950000
v -6.220280 1.417500 2.760000
v -6.220280 1.417500 3.570000
v -6.220280 1.417500 4.380000
v -6.220280 1.417500 5.190000
v -6.220280 1.417500 6.000000
v -7.182984 1.417500 6.810000
v -6.220280 1.417500 6.810000
v -5.257576 -1.417500 0.330000
v -5.257576 -1.417500 1.140000
v -5.257576 -1.215000 0.330000
v -5.257576 -1.417500 1.950000
v -5.257576 -1.417500 2.760000
v -5.257576 -1.417500 3.570000
v -5.257576 -1.417500 4.380000
v -5.257576 -1.417500 5.190000
v -5.257576 -1.417500 6.000000
v -5.257576 -1.417500 6.810000
v -6.220280 -1.215000 7.620000
v -6.220280 -1.417500 7.620000
v -5.257576 -1.417500 7.620000
v -6.220280 -1.215000 8.430000
v -6.220280 -1.417500 8.430000
v -5.257576 -1.417500 8.430000
v -5.257576 -1.215000 8.430000
v -5.257576 -1.012500 0.330000
v -6.220280 -1.012500 7.620000
v -6.220280 -1.012500 8.430000
v -5.257576 -1.012500 8.430000
v -5.257576 -0.810000 0.330000
v -6.220280 -0.810000 7.620000
v -6.220280 -0.810000 8.430000
v -5.257576 -0.810000 8.430000
v -5.257576 -0.607500 0.330000
v -6.220280 -0.607500 7.620000
v -6.220280 -0.607500 8.430000
v -5.257576 -0.607500 8.430000
v -5.257576 -0.405000 0.330000
v -6.220280 -0.405000 7.620000
v -6.220280 -0.405000 8.430000
v -5.257576 -0.405000 8.430000
v -5.257576 -0.202500 0.330000
v -6.220280 -0.202500 7.620000
v -6.220280 -0.202500 8.430000
v -5.257576 -0.202500 8.430000
v -5.257576 0.000000 0.330000
v -6.220280 0.000000 7.620000
v -6.220280 0.000000 8.430000
v -5.257576 0.000000 8.430000
v -5.257576 0.202500 0.330000
v -6.220280 0.202500 7.620000
v -6.220280 0.202500 8.430000
v -5.257576 0.202500 8.430000
v -5.257576 0.405000 0.330000
v -6.220280 0.405000 7.620000
v -6.220280 0.405000 8.430000
v -5.257576 0.405000 8.430000
v -5.257576 0.607500 0.330000
v -6.220280 0.607500 7.620000
v -6.220280 0.607500 8.430000
v -5.257576 0.607500 8.430000
v -5.257576 0.810000 0.330000
v -6.220280 0.810000 7.620000
v -6.220280 0.810000 8.430000
v -5.257576 0.810000 8.430000
v -5.257576 1.012500 0.330000
v -6.220280 1.012500 7.620000
v -6.220280 1.012500 8.430000
v -5.257576 1.012500 8.430000
v -5.257576 1.215000 0.330000
v -6.220280 1.215000 7.620000
v -6.220280 1.215000 8.430000
v -5.257576 1.215000 8.430000
v -5.257576 1.417500 1.140000
v -5.257576 1.417500 0.330000
v -5.257576 1.417500 1.950000
v -5.257576 1.417500 2.760000
v -5.257576 1.417500 3.570000
v -5.257576 1.417500 4.380000
v -5.257576 1.417500 5.190000
v -5.257576 1.417500 6.000000
v -5.257576 1.417500 6.810000
v -6.220280 1.417500 7.620000
v -5.257576 1.417500 7.620000
v -6.220280 1.417500 8.430000
v -5.257576 1.417500 8.430000
v -4.294872 -1.417500 0.330000
v -4.294872 -1.417500 1.140000
v -4.294872 -1.215000 0.330000
v -4.294872 -1.417500 1.950000
v -4.294872 -1.417500 2.760000
v -4.294872 -1.417500 3.570000
v -4.294872 -1.417500 4.380000
v -4.294872 -1.417500 5.190000
v -4.294872 -1.417500 6.000000
v -4.294872 -1.417500 6.810000
v -4.294872 -1.417500 7.620000
v -4.294872 -1.417500 8.430000
v -5.257576 -1.215000 9.240000
v -5.257576 -1.417500 9.240000
v -4.294872 -1.417500 9.240000
v -4.294872 -1.215000 9.240000
v -4.294872 -1.012500 0.330000
v -5.257576 -1.012500 9.240000
v -4.294872 -1.012500 9.240000
v -4.294872 -0.810000 0.330000
v -5.257576 -0.810000 9.240000
v -4.294872 -0.810000 9.240000
v -4.294872 -0.607500 0.330000
v -5.257576 -0.607500 9.240000
v -4.294872 -0.607500 9.240000
v -4.294872 -0.405000 0.330000
v -5.257576 -0.405000 9.240000
v -4.294872 -0.405000 9.240000
v -4.294872 -0.202500 0.330000
v -5.257576 -0.202500 9.240000
v -4.294872 -0.202500 9.240000
v -4.294872 0.000000 0.330000
v -5.257576 0.000000 9.240000
v -4.294872 0.000000 9.240000
v -4.294872 0.202500 0.330000
v -5.257576 0.202500 9.240000
v -4.294872 0.202500 9.240000
v -4.294872 0.405000 0.330000
v -5.257576 0.405000 9.240000
v -4.294872 0.405000 9.240000
v -4.294872 0.607500 0.330000
v -5.257576 0.607500 9.240000
v -4.294872 0.607500 9.240000
v -4.294872 0.810000 0.330000
v -5.257576 0.810000 9.240000
v -4.294872 0.810000 9.240000
v -4.294872 1.012500 0.330000
v -5.257576 1.012500 9.240000
v -4.294872 1.012500 9.240000
v -4.294872 1.215000 0.330000
v -5.257576 1.215000 9.240000
v -4.294872 1.215000 9.240000
v -4.294872 1.417500 1.140000
v -4.294872 1.417500 0.330000
v -4.294872 1.417500 1.950000
v -4.294872 1.417500 2.760000
v -4.294872 1.417500 3.570000
v -4.294872 1.417500 4.380000
v -4.294872 1.417500 5.190000
v -4.294872 1.417500 6.000000
v -4.294872 1.417500 6.810000
v -4.294872 1.417500 7.620000
v -4.294872 1.417500 8.430000
v -5.257576 1.417500 9.240000
v -4.294872 1.417500 9.240000
v -3.332168 -1.417500 0.330000
v -3.332168 -1.417500 1.140000
v -3.332168 -1.215000 0.330000
v -3.332168 -1.417500 1.950000
v -3.332168 -1.417500 2.760000
v -3.332168 -1.417500 3.570000
v -3.332168 -1.417500 4.380000
v -3.332168 -1.417500 5.190000
v -3.332168 -1.417500 6.000000
v -3.332168 -1.417500 6.810000
v -3.332168 -1.417500 7.620000
v -3.332168 -1.417500 8.430000
v -3.332168 -1.417500 9.240000
v -4.294872 -1.215000 10.050000
v -4.294872 -1.417500 10.050000
v -3.332168 -1.417500 10.050000
v -3.332168 -1.215000 10.050000
v -3.332168 -1.012500 0.330000
v -4.294872 -1.012500 10.050000
v -3.332168 -1.012500 10.050000
v -3.332168 -0.810000 0.330000
v -4.294872 -0.810000 10.050000
v -3.332168 -0.810000 10.050000
v -3.332168 -0.607500 0.330000
v -4.294872 -0.607500 10.050000
v -3.332168 -0.607500 10.050000
v -3.332168 -0.405000 0.330000
v -4.294872 -0.405000 10.050000
v -3.332168 -0.405000 10.050000
v -3.332168 -0.202500 0.330000
v -4.294872 -0.202500 10.050000
v -3.332168 -0.202500 10.050000
v -3.332168 0.000000 0.330000
v -4.294872 0.000000 10.050000
v -3.332168 0.000000 10.050000
v -3.332168 0.202500 0.330000
v -4.294872 0.202500 10.050000
v -3.332168 0.202500 10.050000
v -3.332168 0.405000 0.330000
v -4.294872 0.405000 10.050000
v -3.332168 0.405000 10.050000
v -3.332168 0.607500 0.330000
v -4.294872 0.607500 10.050000
v -3.332168 0.607500 10.050000
v -3.332168 0.810000 0.330000
v -4.294872 0.810000 10.050000
v -3.332168 0.810000 10.050000
v -3.332168 1.012500 0.330000
v -4.294872 1.012500 10.050000
v -3.332168 1.012500 10.050000
v -3.332168 1.215000 0.330000
v -4.294872 1.215000 10.050000
v -3.332168 1.215000 10.050000
v -3.332168 1.417500 1.140000
v -3.332168 1.417500 0.330000
v -3.332168 1.417500 1.950000
v -3.332168 1.417500 2.760000
v -3.332168 1.417500 3.570000
v -3.332168 1.417500 4.380000
v -3.332168 1.417500 5.190000
v -3.332168 1.417500 6.000000
v -3.332168 1.417500 6.810000
v -3.332168 1.417500 7.620000
v -3.332168 1.417500 8.430000
v -3.332168 1.417500 9.240000
v -4.294872 1.417500 10.050000
v -3.332168 1.417500 10.050000
v -2.369464 -1.417500 0.330000
v -2.369464 -1.417500 1.140000
v -2.369464 -1.215000 0.330000
v -2.369464 -1.417500 1.950000
v -2.369464 -1.417500 2.760000
v -2.369464 -1.417500 3.570000
v -2.369464 -1.417500 4.380000
v -2.369464 -1.417500 5.190000
v -2.369464 -1.417500 6.000000
v -2.369464 -1.417500 6.810000
v -2.369464 -1.417500 7.620000
v -2.369464 -1.417500 8.430000
v -2.369464 -1.417500 9.240000
v -2.369464 -1.417500 10.050000
v -3.332168 -1.215000 10.860000
v -3.332168 -1.417500 10.860000
v -2.369464 -1.417500 10.860000
v -3.332168 -1.215000 11.670000
v -3.332168 -1.417500 11.670000
v -2.369464 -1.417500 11.670000
v -2.369464 -1.215000 11.670000
v -2.369464 -1.012500 0.330000
v -3.332168 -1.012500 10.860000
v -3.332168 -1.012500 11.670000
v -2.369464 -1.012500 11.670000
v -2.369464 -0.810000 0.330000
v -3.332168 -0.810000 10.860000
v -3.332168 -0.810000 11.670000
v -2.369464 -0.810000 11.670000
v -2.369464 -0.607500 0.330000
v -3.332168 -0.607500 10.860000
v -3.332168 -0.607500 11.670000
v -2.369464 -0.607500 11.670000
v -2.369464 -0.405000 0.330000
v -3.332168 -0.405000 10.860000
v -3.332168 -0.405000 11.670000
v -2.369464 -0.405000 11.670000
v -2.369464 -0.202500 0.330000
v -3.332168 -0.202500 10.860000
v -3.332168 -0.202500 11.670000
v -2.369464 -0.202500 11.670000
v -2.369464 0.000000 0.330000
v -3.332168 0.000000 10.860000
v -3.332168 0.000000 11.670000
v -2.369464 0.000000 11.670000
v -2.369464 0.202500 0.330000
v -3.332168 0.202500 10.860000
v -3.332168 0.202500 11.670000
v -2.369464 0.202500 11.670000
v -2.369464 0.405000 0.330000
v -3.332168 0.405000 10.860000
v -3.332168 0.405000 11.670000
v -2.369464 0.405000 11.670000
v -2.369464 0.607500 0.330000
v -3.332168 0.607500 10.860000
v -3.332168 0.607500 11.670000
v -2.369464 0.607500 11.670000
v -2.369464 0.810000 0.330000
v -3.332168 0.810000 10.860000
v -3.332168 0.810000 11.670000
v -2.369464 0.810000 11.670000
v -2.369464 1.012500 0.330000
v -3.332168 1.012500 10.860000
v -3.332168 1.012500 11.670000
v -2.369464 1.012500 11.670000
v -2.369464 1.215000 0.330000
v -3.332168 1.215000 10.860000
v -3.332168 1.215000 11.670000
v -2.369464 1.215000 11.670000
v -2.369464 1.417500 1.140000
v -2.369464 1.417500 0.330000
v -2.369464 1.417500 1.950000
v -2.369464 1.417500 2.760000
v -2.369464 1.417500 3.570000
v -2.369464 1.417500 4.380000
v -2.369464 1.417500 5.190000
v -2.369464 1.417500 6.000000
v -2.369464 1.417500 6.810000
v -2.369464 1.417500 7.620000
v -2.369464 1.417500 8.430000
v -2.369464 1.417500 9.240000
v -2.369464 1.417500 10.050000
v -3.332168 1.417500 10.860000
v -2.369464 1.417500 10.860000
v -3.332168 1.417500 11.670000
v -2.369464 1.417500 11.670000
v -1.406760 -1.417500 0.330000
v -1.406760 -1.417500 1.140000
v -1.406760 -1.215000 0.330000
v -1.406760 -1.417500 1.950000
v -1.406760 -1.417500 2.760000
v -1.406760 -1.417500 3.570000
v -1.406760 -1.417500 4.380000
v -1.406760 -1.417500 5.190000
v -1.406760 -1.417500 6.000000
v -1.406760 -1.417500 6.810000
v -1.406760 -1.417500 7.620000
v -1.406760 -1.417500 8.430000
v -1.406760 -1.417500 9.240000
v -1.406760 -1.417500 10.050000
v -1.406760 -1.417500 10.860000
v -1.406760 -1.417500 11.670000
v -1.406760 -1.215000 11.670000
v -1.406760 -1.012500 0.330000
v -1.406760 -1.012500 11.670000
v -1.406760 -0.810000 0.330000
v -1.406760 -0.810000 11.670000
v -1.406760 -0.607500 0.330000
v -1.406760 -0.607500 11.670000
v -1.406760 -0.405000 0.330000
v -1.406760 -0.405000 11.670000
v -1.406760 -0.202500 0.330000
v -1.406760 -0.202500 11.670000
v -1.406760 0.000000 0.330000
v -1.406760 0.000000 11.670000
v -1.406760 0.202500 0.330000
v -1.406760 0.202500 11.670000
v -1.406760 0.405000 0.330000
v -1.406760 0.405000 11.670000
v -1.406760 0.607500 0.330000
v -1.406760 0.607500 11.670000
v -1.406760 0.810000 0.330000
v -1.406760 0.810000 11.670000
v -1.406760 1.012500 0.330000
v -1.406760 1.012500 11.670000
v -1.406760 1.215000 0.330000
v -1.406760 1.215000 11.670000
v -1.406760 1.417500 1.140000
v -1.406760 1.417500 0.330000
v -1.406760 1.417500 1.950000
v -1.406760 1.417500 2.760000
v -1.406760 1.417500 3.570000
v -1.406760 1.417500 4.380000
v -1.406760 1.417500 5.190000
v -1.406760 1.417500 6.000000
v -1.406760 1.417500 6.810000
v -1.406760 1.417500 7.620000
v -1.406760 1.417500 8.430000
v -1.406760 1.417500 9.240000
v -1.406760 1.417500 10.050000
v -1.406760 1.417500 10.860000
v -1.406760 1.417500 11.670000
v -0.444056 -1.417500 0.330000
v -0.444056 -1.417500 1.140000
v -0.444056 -1.215000 0.330000
v -0.444056 -1.417500 1.950000
v -0.444056 -1.417500 2.760000
v -0.444056 -1.417500 3.570000
v -0.444056 -1.417500 4.380000
v -0.444056 -1.417500 5.190000
v -0.444056 -1.417500 6.000000
v -0.444056 -1.417500 6.810000
v -0.444056 -1.417500 7.620000
v -0.444056 -1.417500 8.430000
v -0.444056 -1.417500 9.240000
v -0.444056 -1.417500 10.050000
v -0.444056 -1.417500 10.860000
v -0.444056 -1.417500 11.670000
v -0.444056 -1.215000 11.670000
v -0.444056 -1.012500 0.330000
v -0.444056 -1.012500 11.670000
v -0.444056 -0.810000 0.330000
v -0.444056 -0.810000 11.670000
v -0.444056 -0.607500 0.330000
v -0.444056 -0.607500 11.670000
v -0.444056 -0.405000 0.330000
v -0.444056 -0.405000 11.670000
v -0.444056 -0.202500 0.330000
v -0.444056 -0.202500 11.670000
v -0.444056 0.000000 0.330000
v -0.444056 0.000000 11.670000
v -0.444056 0.202500 0.330000
v -0.444056 0.202500 11.670000
v -0.444056 0.405000 0.330000
v -0.444056 0.405000 11.670000
v -0.444056 0.607500 0.330000
v -0.444056 0.607500 11.670000
v -0.444056 0.810000 0.330000
v -0.444056 0.810000 11.670000
v -0.444056 1.012500 0.330000
v -0.444056 1.012500 11.670000
v -0.444056 1.215000 0.330000
v -0.444056 1.215000 11.670000
v -0.444056 1.417500 1.140000
v -0.444056 1.417500 0.330000
v -0.444056 1.417500 1.950000
v -0.444056 1.417500 2.760000
v -0.444056 1.417500 3.570000
v -0.444056 1.417500 4.380000
v -0.444056 1.417500 5.190000
v -0.444056 1.417500 6.000000
v -0.444056 1.417500 6.810000
v -0.444056 1.417500 7.620000
v -0.444056 1.417500 8.430000
v -0.444056 1.417500 9.240000
v -0.444056 1.417500 10.050000
v -0.444056 1.417500 10.860000
v -0.444056 1.417500 11.670000
v 0.518648 -1.417500 0.330000
v 0.518648 -1.417500 1.140000
v 0.518648 -1.215000 1.140000
v 0.518648 -1.215000 0.330000
v 0.518648 -1.417500 1.950000
v 0.518648 -1.215000 1.950000
v 0.518648 -1.417500 2.760000
v 0.518648 -1.215000 2.760000
v 0.518648 -1.417500 3.570000
v 0.518648 -1.215000 3.570000
v 0.518648 -1.417500 4.380000
v 0.518648 -1.215000 4.380000
v 0.518648 -1.417500 5.190000
v 0.518648 -1.215000 5.190000
v 0.518648 -1.417500 6.000000
v 0.518648 -1.215000 6.000000
v 0.518648 -1.417500 6.810000
v 0.518648 -1.215000 6.810000
v 0.518648 -1.417500 7.620000
v 0.518648 -1.215000 7.620000
v 0.518648 -1.417500 8.430000
v 0.518648 -1.215000 8.430000
v 0.518648 -1.417500 9.240000
v 0.518648 -1.215000 9.240000
v 0.518648 -1.417500 10.050000
v 0.518648 -1.215000 10.050000
v 0.518648 -1.417500 10.860000
v 0.518648 -1.215000 10.860000
v 0.518648 -1.417500 11.670000
v 0.518648 -1.215000 11.670000
v 0.518648 -1.012500 1.140000
v 0.518648 -1.012500 0.330000
v 0.518648 -1.012500 1.950000
v 0.518648 -1.012500 2.760000
v 0.518648 -1.012500 3.570000
v 0.518648 -1.012500 4.380000
v 0.518648 -1.012500 5.190000
v 0.518648 -1.012500 6.000000
v 0.518648 -1.012500 6.810000
v 0.518648 -1.012500 7.620000
v 0.518648 -1.012500 8.430000
v 0.518648 -1.012500 9.240000
v 0.518648 -1.012500 10.050000
v 0.518648 -1.012500 10.860000
v 0.518648 -1.012500 11.670000
v 0.518648 -0.810000 1.140000
v 0.518648 -0.810000 0.330000
v 0.518648 -0.810000 1.950000
v 0.518648 -0.810000 2.760000
v 0.518648 -0.810000 3.570000
v 0.518648 -0.810000 4.380000
v 0.518648 -0.810000 5.190000
v 0.518648 -0.810000 6.000000
v 0.518648 -0.810000 6.810000
v 0.518648 -0.810000 7.620000
v 0.518648 -0.810000 8.430000
v 0.518648 -0.810000 9.240000
v 0.518648 -0.810000 10.050000
v 0.518648 -0.810000 10.860000
v 0.518648 -0.810000 11.670000
v 0.518648 -0.607500 1.140000
v 0.518648 -0.607500 0.330000
v 0.518648 -0.607500 1.950000
v 0.518648 -0.607500 2.760000
v 0.518648 -0.607500 3.570000
v 0.518648 -0.607500 4.380000
v 0.518648 -0.607500 5.190000
v 0.518648 -0.607500 6.000000
v 0.518648 -0.607500 6.810000
v 0.518648 -0.607500 7.620000
v 0.518648 -0.607500 8.430000
v 0.518648 -0.607500 9.240000
v 0.518648 -0.607500 10.050000
v 0.518648 -0.607500 10.860000
v 0.518648 -0.607500 11.670000
v 0.518648 -0.405000 1.140000
v 0.518648 -0.405000 0.330000
v 0.518648 -0.405000 1.950000
v 0.518648 -0.405000 2.760000
v 0.518648 -0.405000 3.570000
v 0.518648 -0.405000 4.380000
v 0.518648 -0.405000 5.190000
v 0.518648 -0.405000 6.000000
v 0.518648 -0.405000 6.810000
v 0.518648 -0.405000 7.620000
v 0.518648 -0.405000 8.430000
v 0.518648 -0.405000 9.240000
v 0.518648 -0.405000 10.050000
v 0.518648 -0.405000 10.860000
v 0.518648 -0.405000 11.670000
v 0.518648 -0.202500 1.140000
v 0.518648 -0.202500 0.330000
v 0.518648 -0.202500 1.950000
v 0.518648 -0.202500 2.760000
v 0.518648 -0.202500 3.570000
v 0.518648 -0.202500 4.380000
v 0.518648 -0.202500 5.190000
v 0.518648 -0.202500 6.000000
v 0.518648 -0.202500 6.810000
v 0.518648 -0.202500 7.620000
v 0.518648 -0.202500 8.430000
v 0.518648 -0.202500 9.240000
v 0.518648 -0.202500 10.050000
v 0.518648 -0.202500 10.860000
v 0.518648 -0.202500 11.670000
v 0.518648 0.000000 1.140000
v 0.518648 0.000000 0.330000
v 0.518648 0.000000 1.950000
v 0.518648 0.000000 2.760000
v 0.518648 0.000000 3.570000
v 0.518648 0.000000 4.380000
v 0.518648 0.000000 5.190000
v 0.518648 0.000000 6.000000
v 0.518648 0.000000 6.810000
v 0.518648 0.000000 7.620000
v 0.518648 0.000000 8.430000
v 0.518648 0.000000 9.240000
v 0.518648 0.000000 10.050000
v 0.518648 0.000000 10.860000
v 0.518648 0.000000 11.670000
v 0.518648 0.202500 1.140000
v 0.518648 0.202500 0.330000
v 0.518648 0.202500 1.950000
v 0.518648 0.202500 2.760000
v 0.518648 0.202500 3.570000
v 0.518648 0.202500 4.380000
v 0.518648 0.202500 5.190000
v 0.518648 0.202500 6.000000
v 0.518648 0.202500 6.810000
v 0.518648 0.202500 7.620000
v 0.518648 0.202500 8.430000
v 0.518648 0.202500 9.240000
v 0.518648 0.202500 10.050000
v 0.518648 0.202500 10.860000
v 0.518648 0.202500 11.670000
v 0.518648 0.405000 1.140000
v 0.518648 0.405000 0.330000
v 0.518648 0.405000 1.950000
v 0.518648 0.405000 2.760000
v 0.518648 0.405000 3.570000
v 0.518648 0.405000 4.380000
v 0.518648 0.405000 5.190000
v 0.518648 0.405000 6.000000
v 0.518648 0.405000 6.810000
v 0.518648 0.405000 7.620000
v 0.518648 0.405000 8.430000
v 0.518648 0.405000 9.240000
v 0.518648 0.405000 10.050000
v 0.518648 0.405000 10.860000
v 0.518648 0.405000 11.670000
v 0.518648 0.607500 1.140000
v 0.518648 0.607500 0.330000
v 0.518648 0.607500 1.950000
v 0.518648 0.607500 2.760000
v 0.518648 0.607500 3.570000
v 0.518648 0.607500 4.380000
v 0.518648 0.607500 5.190000
v 0.518648 0.607500 6.000000
v 0.518648 0.607500 6.810000
v 0.518648 0.607500 7.620000
v 0.518648 0.607500 8.430000
v 0.518648 0.607500 9.240000
v 0.518648 0.607500 10.050000
v 0.518648 0.607500 10.860000
v 0.518648 0.607500 11.670000
v 0.518648 0.810000 1.140000
v 0.518648 0.810000 0.330000
v 0.518648 0.810000 1.950000
v 0.518648 0.810000 2.760000
v 0.518648 0.810000 3.570000
v 0.518648 0.810000 4.380000
v 0.518648 0.810000 5.190000
v 0.518648 0.810000 6.000000
v 0.518648 0.810000 6.810000
v 0.518648 0.810000 7.620000
v 0.518648 0.810000 8.430000
v 0.518648 0.810000 9.240000
v 0.518648 0.810000 10.050000
v 0.518648 0.810000 10.860000
v 0.518648 0.810000 11.670000
v 0.518648 1.012500 1.140000
v 0.518648 1.012500 0.330000
v 0.518648 1.012500 1.950000
v 0.518648 1.012500 2.760000
v 0.518648 1.012500 3.570000
v 0.518648 1.012500 4.380000
v 0.518648 1.012500 5.190000
v 0.518648 1.012500 6.000000
v 0.518648 1.012500 6.810000
v 0.518648 1.012500 7.620000
v 0.518648 1.012500 8.430000
v 0.518648 1.012500 9.240000
v 0.518648 1.012500 10.050000
v 0.518648 1.012500 10.860000
v 0.518648 1.012500 11.670000
v 0.518648 1.215000 1.140000
v 0.518648 1.215000 0.330000
v 0.518648 1.215000 1.950000
v 0.518648 1.215000 2.760000
v 0.518648 1.215000 3.570000
v 0.518648 1.215000 4.380000
v 0.518648 1.215000 5.190000
v 0.518648 1.215000 6.000000
v 0.518648 1.215000 6.810000
v 0.518648 1.215000 7.620000
v 0.518648 1.215000 8.430000
v 0.518648 1.215000 9.240000
v 0.518648 1.215000 10.050000
v 0.518648 1.215000 10.860000
v 0.518648 1.215000 11.670000
v 0.518648 1.417500 1.140000
v 0.518648 1.417500 0.330000
v 0.518648 1.417500 1.950000
v 0.518648 1.417500 2.760000
v 0.518648 1.417500 3.570000
v 0.518648 1.417500 4.380000
v 0.518648 1.417500 5.190000
v 0.518648 1.417500 6.000000
v 0.518648 1.417500 6.810000
v 0.518648 1.417500 7.620000
v 0.518648 1.417500 8.430000
v 0.518648 1.417500 9.240000
v 0.518648 1.417500 10.050000
v 0.518648 1.417500 10.860000
v 0.518648 1.417500 11.670000
f 1 2 3
f 1 3 4
f 1 5 6
f 1 6 4
f 1 2 7
f 1 7 5
f 4 6 8
f 4 8 3
f 2 9 10
f 2 10 3
f 2 9 11
f 2 11 7
f 3 8 12
f 3 12 10
f 9 13 14
f 9 14 10
f 9 13 15
f 9 15 11
f 10 12 16
f 10 16 14
f 13 17 18
f 13 18 14
f 13 17 19
f 13 19 15
f 14 16 20
f 14 20 18
f 17 21 22
f 17 22 18
f 17 21 23
f 17 23 19
f 18 20 24
f 18 24 22
f 21 25 26
f 21 26 22
f 21 25 27
f 21 27 23
f 22 24 28
f 22 28 26
f 25 29 30
f 25 30 26
f 25 29 31
f 25 31 27
f 26 28 32
f 26 32 30
f 29 33 34
f 29 34 30
f 29 33 35
f 29 35 31
f 30 32 36
f 30 36 34
f 33 37 38
f 33 38 34
f 33 37 39
f 33 39 35
f 34 36 40
f 34 40 38
f 37 41 42
f 37 42 38
f 37 41 43
f 37 43 39
f 38 40 44
f 38 44 42
f 41 45 46
f 41 46 42
f 41 45 47
f 41 47 43
f 42 44 48
f 42 48 46
f 45 49 50
f 45 50 46
f 45 49 51
f 45 51 47
f 46 48 52
f 46 52 50
f 49 53 54
f 49 54 50
f 49 53 55
f 49 55 51
f 50 52 56
f 50 56 54
f 53 57 58
f 53 58 54
f 57 58 59
f 57 59 60
f 53 57 60
f 53 60 55
f 54 56 59
f 54 59 58
f 5 61 62
f 5 62 6
f 5 7 63
f 5 63 61
f 6 8 64
f 6 64 65
f 6 62 66
f 6 66 65
f 65 66 67
f 65 67 64
f 7 11 68
f 7 68 63
f 8 12 69
f 8 69 64
f 64 67 70
f 64 70 69
f 11 15 71
f 11 71 68
f 12 16 72
f 12 72 69
f 69 70 73
f 69 73 72
f 15 19 74
f 15 74 71
f 16 20 75
f 16 75 72
f 72 73 76
f 72 76 75
f 19 23 77
f 19 77 74
f 20 24 78
f 20 78 75
f 75 76 79
f 75 79 78
f 23 27 80
f 23 80 77
f 24 28 81
f 24 81 78
f 78 79 82
f 78 82 81
f 27 31 83
f 27 83 80
f 28 32 84
f 28 84 81
f 81 82 85
f 81 85 84
f 31 35 86
f 31 86 83
f 32 36 87
f 32 87 84
f 84 85 88
f 84 88 87
f 35 39 89
f 35 89 86
f 36 40 90
f 36 90 87
f 87 88 91
f 87 91 90
f 39 43 92
f 39 92 89
f 40 44 93
f 40 93 90
f 90 91 94
f 90 94 93
f 43 47 95
f 43 95 92
f 44 48 96
f 44 96 93
f 93 94 97
f 93 97 96
f 47 51 98
f 47 98 95
f 48 52 99
f 48 99 96
f 96 97 100
f 96 100 99
f 51 55 101
f 51 101 98
f 52 56 102
f 52 102 99
f 99 100 103
f 99 103 102
f 60 59 104
f 60 104 105
f 55 60 105
f 55 105 101
f 56 59 106
f 56 106 102
f 59 106 107
f 59 107 104
f 102 103 107
f 102 107 106
f 61 108 109
f 61 109 62
f 61 63 110
f 61 110 108
f 62 109 111
f 62 111 66
f 66 67 112
f 66 112 113
f 66 111 114
f 66 114 113
f 113 114 115
f 113 115 112
f 63 68 116
f 63 116 110
f 67 70 117
f 67 117 112
f 112 115 118
f 112 118 117
f 68 71 119
f 68 119 116
f 70 73 120
f 70 120 117
f 117 118 121
f 117 121 120
f 71 74 122
f 71 122 119
f 73 76 123
f 73 123 120
f 120 121 124
f 120 124 123
f 74 77 125
f 74 125 122
f 76 79 126
f 76 126 123
f 123 124 127
f 123 127 126
f 77 80 128
f 77 128 125
f 79 82 129
f 79 129 126
f 126 127 130
f 126 130 129
f 80 83 131
f 80 131 128
f 82 85 132
f 82 132 129
f 129 130 133
f 129 133 132
f 83 86 134
f 83 134 131
f 85 88 135
f 85 135 132
f 132 133 136
f 132 136 135
f 86 89 137
f 86 137 134
f 88 91 138
f 88 138 135
f 135 136 139
f 135 139 138
f 89 92 140
f 89 140 137
f 91 94 141
f 91 141 138
f 138 139 142
f 138 142 141
f 92 95 143
f 92 143 140
f 94 97 144
f 94 144 141
f 141 142 145
f 141 145 144
f 95 98 146
f 95 146 143
f 97 100 147
f 97 147 144
f 144 145 148
f 144 148 147
f 98 101 149
f 98 149 146
f 100 103 150
f 100 150 147
f 147 148 151
f 147 151 150
f 105 104 152
f 105 152 153
f 101 105 153
f 101 153 149
f 104 107 154
f 104 154 152
f 103 107 155
f 103 155 150
f 107 155 156
f 107 156 154
f 150 151 156
f 150 156 155
f 108 157 158
f 108 158 109
f 108 110 159
f 108 159 157
f 109 158 160
f 109 160 111
f 111 160 161
f 111 161 114
f 114 115 162
f 114 162 163
f 114 161 164
f 114 164 163
f 163 162 165
f 163 165 166
f 163 164 167
f 163 167 166
f 166 167 168
f 166 168 165
f 110 116 169
f 110 169 159
f 115 118 170
f 115 170 162
f 162 170 171
f 162 171 165
f 165 168 172
f 165 172 171
f 116 119 173
f 116 173 169
f 118 121 174
f 118 174 170
f 170 174 175
f 170 175 171
f 171 172 176
f 171 176 175
f 119 122 177
f 119 177 173
f 121 124 178
f 121 178 174
f 174 178 179
f 174 179 175
f 175 176 180
f 175 180 179
f 122 125 181
f 122 181 177
f 124 127 182
f 124 182 178
f 178 182 183
f 178 183 179
f 179 180 184
f 179 184 183
f 125 128 185
f 125 185 181
f 127 130 186
f 127 186 182
f 182 186 187
f 182 187 183
f 183 184 188
f 183 188 187
f 128 131 189
f 128 189 185
f 130 133 190
f 130 190 186
f 186 190 191
f 186 191 187
f 187 188 192
f 187 192 191
f 131 134 193
f 131 193 189
f 133 136 194
f 133 194 190
f 190 194 195
f 190 195 191
f 191 192 196
f 191 196 195
f 134 137 197
f 134 197 193
f 136 139 198
f 136 198 194
f 194 198 199
f 194 199 195
f 195 196 200
f 195 200 199
f 137 140 201
f 137 201 197
f 139 142 202
f 139 202 198
f 198 202 203
f 198 203 199
f 199 200 204
f 199 204 203
f 140 143 205
f 140 205 201
f 142 145 206
f 142 206 202
f 202 206 207
f 202 207 203
f 203 204 208
f 203 208 207
f 143 146 209
f 143 209 205
f 145 148 210
f 145 210 206
f 206 210 211
f 206 211 207
f 207 208 212
f 207 212 211
f 146 149 213
f 146 213 209
f 148 151 214
f 148 214 210
f 210 214 215
f 210 215 211
f 211 212 216
f 211 216 215
f 153 152 217
f 153 217 218
f 149 153 218
f 149 218 213
f 152 154 219
f 152 219 217
f 154 156 220
f 154 220 219
f 151 156 221
f 151 221 214
f 156 221 222
f 156 222 220
f 214 221 223
f 214 223 215
f 221 223 224
f 221 224 222
f 215 216 224
f 215 224 223
f 157 225 226
f 157 226 158
f 157 159 227
f 157 227 225
f 158 226 228
f 158 228 160
f 160 228 229
f 160 229 161
f 161 229 230
f 161 230 164
f 164 230 231
f 164 231 167
f 167 168 232
f 167 232 233
f 167 231 234
f 167 234 233
f 233 234 235
f 233 235 232
f 159 169 236
f 159 236 227
f 168 172 237
f 168 237 232
f 232 235 238
f 232 238 237
f 169 173 239
f 169 239 236
f 172 176 240
f 172 240 237
f 237 238 241
f 237 241 240
f 173 177 242
f 173 242 239
f 176 180 243
f 176 243 240
f 240 241 244
f 240 244 243
f 177 181 245
f 177 245 242
f 180 184 246
f 180 246 243
f 243 244 247
f 243 247 246
f 181 185 248
f 181 248 245
f 184 188 249
f 184 249 246
f 246 247 250
f 246 250 249
f 185 189 251
f 185 251 248
f 188 192 252
f 188 252 249
f 249 250 253
f 249 253 252
f 189 193 254
f 189 254 251
f 192 196 255
f 192 255 252
f 252 253 256
f 252 256 255
f 193 197 257
f 193 257 254
f 196 200 258
f 196 258 255
f 255 256 259
f 255 259 258
f 197 201 260
f 197 260 257
f 200 204 261
f 200 261 258
f 258 259 262
f 258 262 261
f 201 205 263
f 201 263 260
f 204 208 264
f 204 264 261
f 261 262 265
f 261 265 264
f 205 209 266
f 205 266 263
f 208 212 267
f 208 267 264
f 264 265 268
f 264 268 267
f 209 213 269
f 209 269 266
f 212 216 270
f 212 270 267
f 267 268 271
f 267 271 270
f 218 217 272
f 218 272 273
f 213 218 273
f 213 273 269
f 217 219 274
f 217 274 272
f 219 220 275
f 219 275 274
f 220 222 276
f 220 276 275
f 222 224 277
f 222 277 276
f 216 224 278
f 216 278 270
f 224 278 279
f 224 279 277
f 270 271 279
f 270 279 278
f 225 280 281
f 225 281 226
f 225 227 282
f 225 282 280
f 226 281 283
f 226 283 228
f 228 283 284
f 228 284 229
f 229 284 285
f 229 285 230
f 230 285 286
f 230 286 231
f 231 286 287
f 231 287 234
f 234 235 288
f 234 288 289
f 234 287 290
f 234 290 289
f 289 290 291
f 289 291 288
f 227 236 292
f 227 292 282
f 235 238 293
f 235 293 288
f 288 291 294
f 288 294 293
f 236 239 295
f 236 295 292
f 238 241 296
f 238 296 293
f 293 294 297
f 293 297 296
f 239 242 298
f 239 298 295
f 241 244 299
f 241 299 296
f 296 297 300
f 296 300 299
f 242 245 301
f 242 301 298
f 244 247 302
f 244 302 299
f 299 300 303
f 299 303 302
f 245 248 304
f 245 304 301
f 247 250 305
f 247 305 302
f 302 303 306
f 302 306 305
f 248 251 307
f 248 307 304
f 250 253 308
f 250 308 305
f 305 306 309
f 305 309 308
f 251 254 310
f 251 310 307
f 253 256 311
f 253 311 308
f 308 309 312
f 308 312 311
f 254 257 313
f 254 313 310
f 256 259 314
f 256 314 311
f 311 312 315
f 311 315 314
f 257 260 316
f 257 316 313
f 259 262 317
f 259 317 314
f 314 315 318
f 314 318 317
f 260 263 319
f 260 319 316
f 262 265 320
f 262 320 317
f 317 318 321
f 317 321 320
f 263 266 322
f 263 322 319
f 265 268 323
f 265 323 320
f 320 321 324
f 320 324 323
f 266 269 325
f 266 325 322
f 268 271 326
f 268 326 323
f 323 324 327
f 323 327 326
f 273 272 328
f 273 328 329
f 269 273 329
f 269 329 325
f 272 274 330
f 272 330 328
f 274 275 331
f 274 331 330
f 275 276 332
f 275 332 331
f 276 277 333
f 276 333 332
f 277 279 334
f 277 334 333
f 271 279 335
f 271 335 326
f 279 335 336
f 279 336 334
f 326 327 336
f 326 336 335
f 280 337 338
f 280 338 281
f 280 282 339
f 280 339 337
f 281 338 340
f 281 340 283
f 283 340 341
f 283 341 284
f 284 341 342
f 284 342 285
f 285 342 343
f 285 343 286
f 286 343 344
f 286 344 287
f 287 344 345
f 287 345 290
f 290 291 346
f 290 346 347
f 290 345 348
f 290 348 347
f 347 348 349
f 347 349 346
f 282 292 350
f 282 350 339
f 291 294 351
f 291 351 346
f 346 349 352
f 346 352 351
f 292 295 353
f 292 353 350
f 294 297 354
f 294 354 351
f 351 352 355
f 351 355 354
f 295 298 356
f 295 356 353
f 297 300 357
f 297 357 354
f 354 355 358
f 354 358 357
f 298 301 359
f 298 359 356
f 300 303 360
f 300 360 357
f 357 358 361
f 357 361 360
f 301 304 362
f 301 362 359
f 303 306 363
f 303 363 360
f 360 361 364
f 360 364 363
f 304 307 365
f 304 365 362
f 306 309 366
f 306 366 363
f 363 364 367
f 363 367 366
f 307 310 368
f 307 368 365
f 309 312 369
f 309 369 366
f 366 367 370
f 366 370 369
f 310 313 371
f 310 371 368
f 312 315 372
f 312 372 369
f 369 370 373
f 369 373 372
f 313 316 374
f 313 374 371
f 315 318 375
f 315 375 372
f 372 373 376
f 372 376 375
f 316 319 377
f 316 377 374
f 318 321 378
f 318 378 375
f 375 376 379
f 375 379 378
f 319 322 380
f 319 380 377
f 321 324 381
f 321 381 378
f 378 379 382
f 378 382 381
f 322 325 383
f 322 383 380
f 324 327 384
f 324 384 381
f 381 382 385
f 381 385 384
f 329 328 386
f 329 386 387
f 325 329 387
f 325 387 383
f 328 330 388
f 328 388 386
f 330 331 389
f 330 389 388
f 331 332 390
f 331 390 389
f 332 333 391
f 332 391 390
f 333 334 392
f 333 392 391
f 334 336 393
f 334 393 392
f 327 336 394
f 327 394 384
f 336 394 395
f 336 395 393
f 384 385 395
f 384 395 394
f 337 396 397
f 337 397 338
f 337 339 398
f 337 398 396
f 338 397 399
f 338 399 340
f 340 399 400
f 340 400 341
f 341 400 401
f 341 401 342
f 342 401 402
f 342 402 343
f 343 402 403
f 343 403 344
f 344 403 404
f 344 404 345
f 345 404 405
f 345 405 348
f 348 349 406
f 348 406 407
f 348 405 408
f 348 408 407
f 407 406 409
f 407 409 410
f 407 408 411
f 407 411 410
f 410 411 412
f 410 412 409
f 339 350 413
f 339 413 398
f 349 352 414
f 349 414 406
f 406 414 415
f 406 415 409
f 409 412 416
f 409 416 415
f 350 353 417
f 350 417 413
f 352 355 418
f 352 418 414
f 414 418 419
f 414 419 415
f 415 416 420
f 415 420 419
f 353 356 421
f 353 421 417
f 355 358 422
f 355 422 418
f 418 422 423
f 418 423 419
f 419 420 424
f 419 424 423
f 356 359 425
f 356 425 421
f 358 361 426
f 358 426 422
f 422 426 427
f 422 427 423
f 423 424 428
f 423 428 427
f 359 362 429
f 359 429 425
f 361 364 430
f 361 430 426
f 426 430 431
f 426 431 427
f 427 428 432
f 427 432 431
f 362 365 433
f 362 433 429
f 364 367 434
f 364 434 430
f 430 434 435
f 430 435 431
f 431 432 436
f 431 436 435
f 365 368 437
f 365 437 433
f 367 370 438
f 367 438 434
f 434 438 439
f 434 439 435
f 435 436 440
f 435 440 439
f 368 371 441
f 368 441 437
f 370 373 442
f 370 442 438
f 438 442 443
f 438 443 439
f 439 440 444
f 439 444 443
f 371 374 445
f 371 445 441
f 373 376 446
f 373 446 442
f 442 446 447
f 442 447 443
f 443 444 448
f 443 448 447
f 374 377 449
f 374 449 445
f 376 379 450
f 376 450 446
f 446 450 451
f 446 451 447
f 447 448 452
f 447 452 451
f 377 380 453
f 377 453 449
f 379 382 454
f 379 454 450
f 450 454 455
f 450 455 451
f 451 452 456
f 451 456 455
f 380 383 457
f 380 457 453
f 382 385 458
f 382 458 454
f 454 458 459
f 454 459 455
f 455 456 460
f 455 460 459
f 387 386 461
f 387 461 462
f 383 387 462
f 383 462 457
f 386 388 463
f 386 463 461
f 388 389 464
f 388 464 463
f 389 390 465
f 389 465 464
f 390 391 466
f 390 466 465
f 391 392 467
f 391 467 466
f 392 393 468
f 392 468 467
f 393 395 469
f 393 469 468
f 385 395 470
f 385 470 458
f 395 470 471
f 395 471 469
f 458 470 472
f 458 472 459
f 470 472 473
f 470 473 471
f 459 460 473
f 459 473 472
f 396 474 475
f 396 475 397
f 396 398 476
f 396 476 474
f 397 475 477
f 397 477 399
f 399 477 478
f 399 478 400
f 400 478 479
f 400 479 401
f 401 479 480
f 401 480 402
f 402 480 481
f 402 481 403
f 403 481 482
f 403 482 404
f 404 482 483
f 404 483 405
f 405 483 484
f 405 484 408
f 408 484 485
f 408 485 411
f 411 412 486
f 411 486 487
f 411 485 488
f 411 488 487
f 487 488 489
f 487 489 486
f 398 413 490
f 398 490 476
f 412 416 491
f 412 491 486
f 486 489 492
f 486 492 491
f 413 417 493
f 413 493 490
f 416 420 494
f 416 494 491
f 491 492 495
f 491 495 494
f 417 421 496
f 417 496 493
f 420 424 497
f 420 497 494
f 494 495 498
f 494 498 497
f 421 425 499
f 421 499 496
f 424 428 500
f 424 500 497
f 497 498 501
f 497 501 500
f 425 429 502
f 425 502 499
f 428 432 503
f 428 503 500
f 500 501 504
f 500 504 503
f 429 433 505
f 429 505 502
f 432 436 506
f 432 506 503
f 503 504 507
f 503 507 506
f 433 437 508
f 433 508 505
f 436 440 509
f 436 509 506
f 506 507 510
f 506 510 509
f 437 441 511
f 437 511 508
f 440 444 512
f 440 512 509
f 509 510 513
f 509 513 512
f 441 445 514
f 441 514 511
f 444 448 515
f 444 515 512
f 512 513 516
f 512 516 515
f 445 449 517
f 445 517 514
f 448 452 518
f 448 518 515
f 515 516 519
f 515 519 518
f 449 453 520
f 449 520 517
f 452 456 521
f 452 521 518
f 518 519 522
f 518 522 521
f 453 457 523
f 453 523 520
f 456 460 524
f 456 524 521
f 521 522 525
f 521 525 524
f 462 461 526
f 462 526 527
f 457 462 527
f 457 527 523
f 461 463 528
f 461 528 526
f 463 464 529
f 463 529 528
f 464 465 530
f 464 530 529
f 465 466 531
f 465 531 530
f 466 467 532
f 466 532 531
f 467 468 533
f 467 533 532
f 468 469 534
f 468 534 533
f 469 471 535
f 469 535 534
f 471 473 536
f 471 536 535
f 460 473 537
f 460 537 524
f 473 537 538
f 473 538 536
f 524 525 538
f 524 538 537
f 474 539 540
f 474 540 475
f 474 476 541
f 474 541 539
f 475 540 542
f 475 542 477
f 477 542 543
f 477 543 478
f 478 543 544
f 478 544 479
f 479 544 545
f 479 545 480
f 480 545 546
f 480 546 481
f 481 546 547
f 481 547 482
f 482 547 548
f 482 548 483
f 483 548 549
f 483 549 484
f 484 549 550
f 484 550 485
f 485 550 551
f 485 551 488
f 488 489 552
f 488 552 553
f 488 551 554
f 488 554 553
f 553 554 555
f 553 555 552
f 476 490 556
f 476 556 541
f 489 492 557
f 489 557 552
f 552 555 558
f 552 558 557
f 490 493 559
f 490 559 556
f 492 495 560
f 492 560 557
f 557 558 561
f 557 561 560
f 493 496 562
f 493 562 559
f 495 498 563
f 495 563 560
f 560 561 564
f 560 564 563
f 496 499 565
f 496 565 562
f 498 501 566
f 498 566 563
f 563 564 567
f 563 567 566
f 499 502 568
f 499 568 565
f 501 504 569
f 501 569 566
f 566 567 570
f 566 570 569
f 502 505 571
f 502 571 568
f 504 507 572
f 504 572 569
f 569 570 573
f 569 573 572
f 505 508 574
f 505 574 571
f 507 510 575
f 507 575 572
f 572 573 576
f 572 576 575
f 508 511 577
f 508 577 574
f 510 513 578
f 510 578 575
f 575 576 579
f 575 579 578
f 511 514 580
f 511 580 577
f 513 516 581
f 513 581 578
f 578 579 582
f 578 582 581
f 514 517 583
f 514 583 580
f 516 519 584
f 516 584 581
f 581 582 585
f 581 585 584
f 517 520 586
f 517 586 583
f 519 522 587
f 519 587 584
f 584 585 588
f 584 588 587
f 520 523 589
f 520 589 586
f 522 525 590
f 522 590 587
f 587 588 591
f 587 591 590
f 527 526 592
f 527 592 593
f 523 527 593
f 523 593 589
f 526 528 594
f 526 594 592
f 528 529 595
f 528 595 594
f 529 530 596
f 529 596 595
f 530 531 597
f 530 597 596
f 531 532 598
f 531 598 597
f 532 533 599
f 532 599 598
f 533 534 600
f 533 600 599
f 534 535 601
f 534 601 600
f 535 536 602
f 535 602 601
f 536 538 603
f 536 603 602
f 525 538 604
f 525 604 590
f 538 604 605
f 538 605 603
f 590 591 605
f 590 605 604
f 539 606 607
f 539 607 540
f 539 541 608
f 539 608 606
f 540 607 609
f 540 609 542
f 542 609 610
f 542 610 543
f 543 610 611
f 543 611 544
f 544 611 612
f 544 612 545
f 545 612 613
f 545 613 546
f 546 613 614
f 546 614 547
f 547 614 615
f 547 615 548
f 548 615 616
f 548 616 549
f 549 616 617
f 549 617 550
f 550 617 618
f 550 618 551
f 551 618 619
f 551 619 554
f 554 555 620
f 554 620 621
f 554 619 622
f 554 622 621
f 621 620 623
f 621 623 624
f 621 622 625
f 621 625 624
f 624 625 626
f 624 626 623
f 541 556 627
f 541 627 608
f 555 558 628
f 555 628 620
f 620 628 629
f 620 629 623
f 623 626 630
f 623 630 629
f 556 559 631
f 556 631 627
f 558 561 632
f 558 632 628
f 628 632 633
f 628 633 629
f 629 630 634
f 629 634 633
f 559 562 635
f 559 635 631
f 561 564 636
f 561 636 632
f 632 636 637
f 632 637 633
f 633 634 638
f 633 638 637
f 562 565 639
f 562 639 635
f 564 567 640
f 564 640 636
f 636 640 641
f 636 641 637
f 637 638 642
f 637 642 641
f 565 568 643
f 565 643 639
f 567 570 644
f 567 644 640
f 640 644 645
f 640 645 641
f 641 642 646
f 641 646 645
f 568 571 647
f 568 647 643
f 570 573 648
f 570 648 644
f 644 648 649
f 644 649 645
f 645 646 650
f 645 650 649
f 571 574 651
f 571 651 647
f 573 576 652
f 573 652 648
f 648 652 653
f 648 653 649
f 649 650 654
f 649 654 653
f 574 577 655
f 574 655 651
f 576 579 656
f 576 656 652
f 652 656 657
f 652 657 653
f 653 654 658
f 653 658 657
f 577 580 659
f 577 659 655
f 579 582 660
f 579 660 656
f 656 660 661
f 656 661 657
f 657 658 662
f 657 662 661
f 580 583 663
f 580 663 659
f 582 585 664
f 582 664 660
f 660 664 665
f 660 665 661
f 661 662 666
f 661 666 665
f 583 586 667
f 583 667 663
f 585 588 668
f 585 668 664
f 664 668 669
f 664 669 665
f 665 666 670
f 665 670 669
f 586 589 671
f 586 671 667
f 588 591 672
f 588 672 668
f 668 672 673
f 668 673 669
f 669 670 674
f 669 674 673
f 593 592 675
f 593 675 676
f 589 593 676
f 589 676 671
f 592 594 677
f 592 677 675
f 594 595 678
f 594 678 677
f 595 596 679
f 595 679 678
f 596 597 680
f 596 680 679
f 597 598 681
f 597 681 680
f 598 599 682
f 598 682 681
f 599 600 683
f 599 683 682
f 600 601 684
f 600 684 683
f 601 602 685
f 601 685 684
f 602 603 686
f 602 686 685
f 603 605 687
f 603 687 686
f 591 605 688
f 591 688 672
f 605 688 689
f 605 689 687
f 672 688 690
f 672 690 673
f 688 690 691
f 688 691 689
f 673 674 691
f 673 691 690
f 606 692 693
f 606 693 607
f 606 608 694
f 606 694 692
f 607 693 695
f 607 695 609
f 609 695 696
f 609 696 610
f 610 696 697
f 610 697 611
f 611 697 698
f 611 698 612
f 612 698 699
f 612 699 613
f 613 699 700
f 613 700 614
f 614 700 701
f 614 701 615
f 615 701 702
f 615 702 616
f 616 702 703
f 616 703 617
f 617 703 704
f 617 704 618
f 618 704 705
f 618 705 619
f 619 705 706
f 619 706 622
f 622 706 707
f 622 707 625
f 625 707 708
f 625 708 626
f 608 627 709
f 608 709 694
f 626 708 710
f 626 710 630
f 627 631 711
f 627 711 709
f 630 710 712
f 630 712 634
f 631 635 713
f 631 713 711
f 634 712 714
f 634 714 638
f 635 639 715
f 635 715 713
f 638 714 716
f 638 716 642
f 639 643 717
f 639 717 715
f 642 716 718
f 642 718 646
f 643 647 719
f 643 719 717
f 646 718 720
f 646 720 650
f 647 651 721
f 647 721 719
f 650 720 722
f 650 722 654
f 651 655 723
f 651 723 721
f 654 722 724
f 654 724 658
f 655 659 725
f 655 725 723
f 658 724 726
f 658 726 662
f 659 663 727
f 659 727 725
f 662 726 728
f 662 728 666
f 663 667 729
f 663 729 727
f 666 728 730
f 666 730 670
f 667 671 731
f 667 731 729
f 670 730 732
f 670 732 674
f 676 675 733
f 676 733 734
f 671 676 734
f 671 734 731
f 675 677 735
f 675 735 733
f 677 678 736
f 677 736 735
f 678 679 737
f 678 737 736
f 679 680 738
f 679 738 737
f 680 681 739
f 680 739 738
f 681 682 740
f 681 740 739
f 682 683 741
f 682 741 740
f 683 684 742
f 683 742 741
f 684 685 743
f 684 743 742
f 685 686 744
f 685 744 743
f 686 687 745
f 686 745 744
f 687 689 746
f 687 746 745
f 689 691 747
f 689 747 746
f 674 732 747
f 674 747 691
f 692 748 749
f 692 749 693
f 692 694 750
f 692 750 748
f 693 749 751
f 693 751 695
f 695 751 752
f 695 752 696
f 696 752 753
f 696 753 697
f 697 753 754
f 697 754 698
f 698 754 755
f 698 755 699
f 699 755 756
f 699 756 700
f 700 756 757
f 700 757 701
f 701 757 758
f 701 758 702
f 702 758 759
f 702 759 703
f 703 759 760
f 703 760 704
f 704 760 761
f 704 761 705
f 705 761 762
f 705 762 706
f 706 762 763
f 706 763 707
f 707 763 764
f 707 764 708
f 694 709 765
f 694 765 750
f 708 764 766
f 708 766 710
f 709 711 767
f 709 767 765
f 710 766 768
f 710 768 712
f 711 713 769
f 711 769 767
f 712 768 770
f 712 770 714
f 713 715 771
f 713 771 769
f 714 770 772
f 714 772 716
f 715 717 773
f 715 773 771
f 716 772 774
f 716 774 718
f 717 719 775
f 717 775 773
f 718 774 776
f 718 776 720
f 719 721 777
f 719 777 775
f 720 776 778
f 720 778 722
f 721 723 779
f 721 779 777
f 722 778 780
f 722 780 724
f 723 725 781
f 723 781 779
f 724 780 782
f 724 782 726
f 725 727 783
f 725 783 781
f 726 782 784
f 726 784 728
f 727 729 785
f 727 785 783
f 728 784 786
f 728 786 730
f 729 731 787
f 729 787 785
f 730 786 788
f 730 788 732
f 734 733 789
f 734 789 790
f 731 734 790
f 731 790 787
f 733 735 791
f 733 791 789
f 735 736 792
f 735 792 791
f 736 737 793
f 736 793 792
f 737 738 794
f 737 794 793
f 738 739 795
f 738 795 794
f 739 740 796
f 739 796 795
f 740 741 797
f 740 797 796
f 741 742 798
f 741 798 797
f 742 743 799
f 742 799 798
f 743 744 800
f 743 800 799
f 744 745 801
f 744 801 800
f 745 746 802
f 745 802 801
f 746 747 803
f 746 803 802
f 732 788 803
f 732 803 747
f 804 805 806
f 804 806 807
f 748 804 805
f 748 805 749
f 748 750 807
f 748 807 804
f 805 808 809
f 805 809 806
f 749 805 808
f 749 808 751
f 808 810 811
f 808 811 809
f 751 808 810
f 751 810 752
f 810 812 813
f 810 813 811
f 752 810 812
f 752 812 753
f 812 814 815
f 812 815 813
f 753 812 814
f 753 814 754
f 814 816 817
f 814 817 815
f 754 814 816
f 754 816 755
f 816 818 819
f 816 819 817
f 755 816 818
f 755 818 756
f 818 820 821
f 818 821 819
f 756 818 820
f 756 820 757
f 820 822 823
f 820 823 821
f 757 820 822
f 757 822 758
f 822 824 825
f 822 825 823
f 758 822 824
f 758 824 759
f 824 826 827
f 824 827 825
f 759 824 826
f 759 826 760
f 826 828 829
f 826 829 827
f 760 826 828
f 760 828 761
f 828 830 831
f 828 831 829
f 761 828 830
f 761 830 762
f 830 832 833
f 830 833 831
f 762 830 832
f 762 832 763
f 763 832 833
f 763 833 764
f 807 806 834
f 807 834 835
f 750 765 835
f 750 835 807
f 806 809 836
f 806 836 834
f 809 811 837
f 809 837 836
f 811 813 838
f 811 838 837
f 813 815 839
f 813 839 838
f 815 817 840
f 815 840 839
f 817 819 841
f 817 841 840
f 819 821 842
f 819 842 841
f 821 823 843
f 821 843 842
f 823 825 844
f 823 844 843
f 825 827 845
f 825 845 844
f 827 829 846
f 827 846 845
f 829 831 847
f 829 847 846
f 831 833 848
f 831 848 847
f 764 833 848
f 764 848 766
f 835 834 849
f 835 849 850
f 765 767 850
f 765 850 835
f 834 836 851
f 834 851 849
f 836 837 852
f 836 852 851
f 837 838 853
f 837 853 852
f 838 839 854
f 838 854 853
f 839 840 855
f 839 855 854
f 840 841 856
f 840 856 855
f 841 842 857
f 841 857 856
f 842 843 858
f 842 858 857
f 843 844 859
f 843 859 858
f 844 845 860
f 844 860 859
f 845 846 861
f 845 861 860
f 846 847 862
f 846 862 861
f 847 848 863
f 847 863 862
f 766 848 863
f 766 863 768
f 850 849 864
f 850 864 865
f 767 769 865
f 767 865 850
f 849 851 866
f 849 866 864
f 851 852 867
f 851 867 866
f 852 853 868
f 852 868 867
f 853 854 869
f 853 869 868
f 854 855 870
f 854 870 869
f 855 856 871
f 855 871 870
f 856 857 872
f 856 872 871
f 857 858 873
f 857 873 872
f 858 859 874
f 858 874 873
f 859 860 875
f 859 875 874
f 860 861 876
f 860 876 875
f 861 862 877
f 861 877 876
f 862 863 878
f 862 878 877
f 768 863 878
f 768 878 770
f 865 864 879
f 865 879 880
f 769 771 880
f 769 880 865
f 864 866 881
f 864 881 879
f 866 867 882
f 866 882 881
f 867 868 883
f 867 883 882
f 868 869 884
f 868 884 883
f 869 870 885
f 869 885 884
f 870 871 886
f 870 886 885
f 871 872 887
f 871 887 886
f 872 873 888
f 872 888 887
f 873 874 889
f 873 889 888
f 874 875 890
f 874 890 889
f 875 876 891
f 875 891 890
f 876 877 892
f 876 892 891
f 877 878 893
f 877 893 892
f 770 878 893
f 770 893 772
f 880 879 894
f 880 894 895
f 771 773 895
f 771 895 880
f 879 881 896
f 879 896 894
f 881 882 897
f 881 897 896
f 882 883 898
f 882 898 897
f 883 884 899
f 883 899 898
f 884 885 900
f 884 900 899
f 885 886 901
f 885 901 900
f 886 887 902
f 886 902 901
f 887 888 903
f 887 903 902
f 888 889 904
f 888 904 903
f 889 890 905
f 889 905 904
f 890 891 906
f 890 906 905
f 891 892 907
f 891 907 906
f 892 893 908
f 892 908 907
f 772 893 908
f 772 908 774
f 895 894 909
f 895 909 910
f 773 775 910
f 773 910 895
f 894 896 911
f 894 911 909
f 896 897 912
f 896 912 911
f 897 898 913
f 897 913 912
f 898 899 914
f 898 914 913
f 899 900 915
f 899 915 914
f 900 901 916
f 900 916 915
f 901 902 917
f 901 917 916
f 902 903 918
f 902 918 917
f 903 904 919
f 903 919 918
f 904 905 920
f 904 920 919
f 905 906 921
f 905 921 920
f 906 907 922
f 906 922 921
f 907 908 923
f 907 923 922
f 774 908 923
f 774 923 776
f 910 909 924
f 910 924 925
f 775 777 925
f 775 925 910
f 909 911 926
f 909 926 924
f 911 912 927
f 911 927 926
f 912 913 928
f 912 928 927
f 913 914 929
f 913 929 928
f 914 915 930
f 914 930 929
f 915 916 931
f 915 931 930
f 916 917 932
f 916 932 931
f 917 918 933
f 917 933 932
f 918 919 934
f 918 934 933
f 919 920 935
f 919 935 934
f 920 921 936
f 920 936 935
f 921 922 937
f 921 937 936
f 922 923 938
f 922 938 937
f 776 923 938
f 776 938 778
f 925 924 939
f 925 939 940
f 777 779 940
f 777 940 925
f 924 926 941
f 924 941 939
f 926 927 942
f 926 942 941
f 927 928 943
f 927 943 942
f 928 929 944
f 928 944 943
f 929 930 945
f 929 945 944
f 930 931 946
f 930 946 945
f 931 932 947
f 931 947 946
f 932 933 948
f 932 948 947
f 933 934 949
f 933 949 948
f 934 935 950
f 934 950 949
f 935 936 951
f 935 951 950
f 936 937 952
f 936 952 951
f 937 938 953
f 937 953 952
f 778 938 953
f 778 953 780
f 940 939 954
f 940 954 955
f 779 781 955
f 779 955 940
f 939 941 956
f 939 956 954
f 941 942 957
f 941 957 956
f 942 943 958
f 942 958 957
f 943 944 959
f 943 959 958
f 944 945 960
f 944 960 959
f 945 946 961
f 945 961 960
f 946 947 962
f 946 962 961
f 947 948 963
f 947 963 962
f 948 949 964
f 948 964 963
f 949 950 965
f 949 965 964
f 950 951 966
f 950 966 965
f 951 952 967
f 951 967 966
f 952 953 968
f 952 968 967
f 780 953 968
f 780 968 782
f 955 954 969
f 955 969 970
f 781 783 970
f 781 970 955
f 954 956 971
f 954 971 969
f 956 957 972
f 956 972 971
f 957 958 973
f 957 973 972
f 958 959 974
f 958 974 973
f 959 960 975
f 959 975 974
f 960 961 976
f 960 976 975
f 961 962 977
f 961 977 976
f 962 963 978
f 962 978 977
f 963 964 979
f 963 979 978
f 964 965 980
f 964 980 979
f 965 966 981
f 965 981 980
f 966 967 982
f 966 982 981
f 967 968 983
f 967 983 982
f 782 968 983
f 782 983 784
f 970 969 984
f 970 984 985
f 783 785 985
f 783 985 970
f 969 971 986
f 969 986 984
f 971 972 987
f 971 987 986
f 972 973 988
f 972 988 987
f 973 974 989
f 973 989 988
f 974 975 990
f 974 990 989
f 975 976 991
f 975 991 990
f 976 977 992
f 976 992 991
f 977 978 993
f 977 993 992
f 978 979 994
f 978 994 993
f 979 980 995
f 979 995 994
f 980 981 996
f 980 996 995
f 981 982 997
f 981 997 996
f 982 983 998
f 982 998 997
f 784 983 998
f 784 998 786
f 985 984 999
f 985 999 1000
f 785 787 1000
f 785 1000 985
f 984 986 1001
f 984 1001 999
f 986 987 1002
f 986 1002 1001
f 987 988 1003
f 987 1003 1002
f 988 989 1004
f 988 1004 1003
f 989 990 1005
f 989 1005 1004
f 990 991 1006
f 990 1006 1005
f 991 992 1007
f 991 1007 1006
f 992 993 1008
f 992 1008 1007
f 993 994 1009
f 993 1009 1008
f 994 995 1010
f 994 1010 1009
f 995 996 1011
f 995 1011 1010
f 996 997 1012
f 996 1012 1011
f 997 998 1013
f 997 1013 1012
f 786 998 1013
f 786 1013 788
f 1000 999 1014
f 1000 1014 1015
f 790 789 1014
f 790 1014 1015
f 787 790 1015
f 787 1015 1000
f 999 1001 1016
f 999 1016 1014
f 789 791 1016
f 789 1016 1014
f 1001 1002 1017
f 1001 1017 1016
f 791 792 1017
f 791 1017 1016
f 1002 1003 1018
f 1002 1018 1017
f 792 793 1018
f 792 1018 1017
f 1003 1004 1019
f 1003 1019 1018
f 793 794 1019
f 793 1019 1018
f 1004 1005 1020
f 1004 1020 1019
f 794 795 1020
f 794 1020 1019
f 1005 1006 1021
f 1005 1021 1020
f 795 796 1021
f 795 1021 1020
f 1006 1007 1022
f 1006 1022 1021
f 796 797 1022
f 796 1022 1021
f 1007 1008 1023
f 1007 1023 1022
f 797 798 1023
f 797 1023 1022
f 1008 1009 1024
f 1008 1024 1023
f 798 799 1024
f 798 1024 1023
f 1009 1010 1025
f 1009 1025 1024
f 799 800 1025
f 799 1025 1024
f 1010 1011 1026
f 1010 1026 1025
f 800 801 1026
f 800 1026 1025
f 1011 1012 1027
f 1011 1027 1026
f 801 802 1027
f 801 1027 1026
f 1012 1013 1028
f 1012 1028 1027
f 802 803 1028
f 802 1028 1027
f 788 1013 1028
f 788 1028 803
