o [4B] 3D Diagram - S2-07 Group F_230
v -0.490000 -0.339353 3.070833
v -0.490000 0.000000 3.070833
v -0.490000 0.000000 3.075000
v -0.490000 -0.339353 3.075000
v -0.450000 -0.339353 3.070833
v -0.450000 -0.339353 3.075000
v -0.450000 0.000000 3.075000
v -0.450000 0.000000 3.070833
v -0.490000 0.000000 3.079167
v -0.490000 -0.339353 3.079167
v -0.450000 -0.339353 3.079167
v -0.450000 0.000000 3.079167
v -0.490000 0.000000 3.083333
v -0.490000 -0.339353 3.083333
v -0.450000 -0.339353 3.083333
v -0.450000 0.000000 3.083333
v -0.490000 0.000000 3.087500
v -0.490000 -0.339353 3.087500
v -0.450000 -0.339353 3.087500
v -0.450000 0.000000 3.087500
v -0.490000 0.000000 3.091667
v -0.490000 -0.339353 3.091667
v -0.450000 -0.339353 3.091667
v -0.450000 0.000000 3.091667
v -0.490000 0.000000 3.095833
v -0.490000 -0.339353 3.095833
v -0.450000 -0.339353 3.095833
v -0.450000 0.000000 3.095833
v -0.490000 0.000000 3.100000
v -0.490000 -0.339353 3.100000
v -0.450000 -0.339353 3.100000
v -0.450000 0.000000 3.100000
v -0.410000 -0.339353 3.070833
v -0.410000 -0.339353 3.075000
v -0.410000 0.000000 3.075000
v -0.410000 0.000000 3.070833
v -0.410000 -0.339353 3.079167
v -0.410000 0.000000 3.079167
v -0.410000 -0.339353 3.083333
v -0.410000 0.000000 3.083333
v -0.410000 -0.339353 3.087500
v -0.410000 0.000000 3.087500
v -0.410000 -0.339353 3.091667
v -0.410000 0.000000 3.091667
v -0.410000 -0.339353 3.095833
v -0.410000 0.000000 3.095833
v -0.410000 -0.339353 3.100000
v -0.410000 0.000000 3.100000
v -0.370000 -0.339353 3.070833
v -0.370000 -0.339353 3.075000
v -0.370000 0.000000 3.075000
v -0.370000 0.000000 3.070833
v -0.370000 -0.339353 3.079167
v -0.370000 0.000000 3.079167
v -0.370000 -0.339353 3.083333
v -0.370000 0.000000 3.083333
v -0.370000 -0.339353 3.087500
v -0.370000 0.000000 3.087500
v -0.370000 -0.339353 3.091667
v -0.370000 0.000000 3.091667
v -0.370000 -0.339353 3.095833
v -0.370000 0.000000 3.095833
v -0.370000 -0.339353 3.100000
v -0.370000 0.000000 3.100000
v -0.330000 -0.339353 3.070833
v -0.330000 -0.339353 3.075000
v -0.330000 0.000000 3.075000
v -0.330000 0.000000 3.070833
v -0.330000 -0.339353 3.079167
v -0.330000 0.000000 3.079167
v -0.330000 -0.339353 3.083333
v -0.330000 0.000000 3.083333
v -0.330000 -0.339353 3.087500
v -0.330000 0.000000 3.087500
v -0.330000 -0.339353 3.091667
v -0.330000 0.000000 3.091667
v -0.330000 -0.339353 3.095833
v -0.330000 0.000000 3.095833
v -0.330000 -0.339353 3.100000
v -0.330000 0.000000 3.100000
v -0.290000 -0.339353 3.070833
v -0.290000 -0.339353 3.075000
v -0.290000 0.000000 3.075000
v -0.290000 0.000000 3.070833
v -0.290000 -0.339353 3.079167
v -0.290000 0.000000 3.079167
v -0.290000 -0.339353 3.083333
v -0.290000 0.000000 3.083333
v -0.290000 -0.339353 3.087500
v -0.290000 0.000000 3.087500
v -0.290000 -0.339353 3.091667
v -0.290000 0.000000 3.091667
v -0.290000 -0.339353 3.095833
v -0.290000 0.000000 3.095833
v -0.290000 -0.339353 3.100000
v -0.290000 0.000000 3.100000
v -0.250000 -0.339353 3.070833
v -0.250000 -0.339353 3.075000
v -0.250000 0.000000 3.075000
v -0.250000 0.000000 3.070833
v -0.250000 -0.339353 3.079167
v -0.250000 0.000000 3.079167
v -0.250000 -0.339353 3.083333
v -0.250000 0.000000 3.083333
v -0.250000 -0.339353 3.087500
v -0.250000 0.000000 3.087500
v -0.250000 -0.339353 3.091667
v -0.250000 0.000000 3.091667
v -0.250000 -0.339353 3.095833
v -0.250000 0.000000 3.095833
v -0.250000 -0.339353 3.100000
v -0.250000 0.000000 3.100000
v -0.210000 -0.339353 3.070833
v -0.210000 -0.339353 3.075000
v -0.210000 0.000000 3.075000
v -0.210000 0.000000 3.070833
v -0.210000 -0.339353 3.079167
v -0.210000 0.000000 3.079167
v -0.210000 -0.339353 3.083333
v -0.210000 0.000000 3.083333
v -0.210000 -0.339353 3.087500
v -0.210000 0.000000 3.087500
v -0.210000 -0.339353 3.091667
v -0.210000 0.000000 3.091667
v -0.210000 -0.339353 3.095833
v -0.210000 0.000000 3.095833
v -0.210000 -0.339353 3.100000
v -0.210000 0.000000 3.100000
v -0.170000 -0.339353 3.070833
v -0.170000 -0.339353 3.075000
v -0.170000 0.000000 3.075000
v -0.170000 0.000000 3.070833
v -0.170000 -0.339353 3.079167
v -0.170000 0.000000 3.079167
v -0.170000 -0.339353 3.083333
v -0.170000 0.000000 3.083333
v -0.170000 -0.339353 3.087500
v -0.170000 0.000000 3.087500
v -0.170000 -0.339353 3.091667
v -0.170000 0.000000 3.091667
v -0.170000 -0.339353 3.095833
v -0.170000 0.000000 3.095833
v -0.170000 -0.339353 3.100000
v -0.170000 0.000000 3.100000
v -0.130000 -0.339353 3.070833
v -0.130000 -0.339353 3.075000
v -0.130000 0.000000 3.075000
v -0.130000 0.000000 3.070833
v -0.130000 -0.339353 3.079167
v -0.130000 0.000000 3.079167
v -0.130000 -0.339353 3.083333
v -0.130000 0.000000 3.083333
v -0.130000 -0.339353 3.087500
v -0.130000 0.000000 3.087500
v -0.130000 -0.339353 3.091667
v -0.130000 0.000000 3.091667
v -0.130000 -0.339353 3.095833
v -0.130000 0.000000 3.095833
v -0.130000 -0.339353 3.100000
v -0.130000 0.000000 3.100000
v -0.090000 -0.339353 3.070833
v -0.090000 -0.339353 3.075000
v -0.090000 0.000000 3.075000
v -0.090000 0.000000 3.070833
v -0.090000 -0.339353 3.079167
v -0.090000 0.000000 3.079167
v -0.090000 -0.339353 3.083333
v -0.090000 0.000000 3.083333
v -0.090000 -0.339353 3.087500
v -0.090000 0.000000 3.087500
v -0.090000 -0.339353 3.091667
v -0.090000 0.000000 3.091667
v -0.090000 -0.339353 3.095833
v -0.090000 0.000000 3.095833
v -0.090000 -0.339353 3.100000
v -0.090000 0.000000 3.100000
v -0.050000 -0.339353 3.070833
v -0.050000 -0.339353 3.075000
v -0.050000 0.000000 3.075000
v -0.050000 0.000000 3.070833
v -0.050000 -0.339353 3.079167
v -0.050000 0.000000 3.079167
v -0.050000 -0.339353 3.083333
v -0.050000 0.000000 3.083333
v -0.050000 -0.339353 3.087500
v -0.050000 0.000000 3.087500
v -0.050000 -0.339353 3.091667
v -0.050000 0.000000 3.091667
v -0.050000 -0.339353 3.095833
v -0.050000 0.000000 3.095833
v -0.050000 -0.339353 3.100000
v -0.050000 0.000000 3.100000
v -0.010000 -0.339353 3.070833
v -0.010000 -0.339353 3.075000
v -0.010000 0.000000 3.075000
v -0.010000 0.000000 3.070833
v -0.010000 -0.339353 3.079167
v -0.010000 0.000000 3.079167
v -0.010000 -0.339353 3.083333
v -0.010000 0.000000 3.083333
v -0.010000 -0.339353 3.087500
v -0.010000 0.000000 3.087500
v -0.010000 -0.339353 3.091667
v -0.010000 0.000000 3.091667
v -0.010000 -0.339353 3.095833
v -0.010000 0.000000 3.095833
v -0.010000 -0.339353 3.100000
v -0.010000 0.000000 3.100000
v 0.030000 -0.339353 3.070833
v 0.030000 -0.339353 3.075000
v 0.030000 0.000000 3.075000
v 0.030000 0.000000 3.070833
v 0.030000 -0.339353 3.079167
v 0.030000 0.000000 3.079167
v 0.030000 -0.339353 3.083333
v 0.030000 0.000000 3.083333
v 0.030000 -0.339353 3.087500
v 0.030000 0.000000 3.087500
v 0.030000 -0.339353 3.091667
v 0.030000 0.000000 3.091667
v 0.030000 -0.339353 3.095833
v 0.030000 0.000000 3.095833
v 0.030000 -0.339353 3.100000
v 0.030000 0.000000 3.100000
v 0.070000 -0.339353 3.070833
v 0.070000 -0.339353 3.075000
v 0.070000 0.000000 3.075000
v 0.070000 0.000000 3.070833
v 0.070000 -0.339353 3.079167
v 0.070000 0.000000 3.079167
v 0.070000 -0.339353 3.083333
v 0.070000 0.000000 3.083333
v 0.070000 -0.339353 3.087500
v 0.070000 0.000000 3.087500
v 0.070000 -0.339353 3.091667
v 0.070000 0.000000 3.091667
v 0.070000 -0.339353 3.095833
v 0.070000 0.000000 3.095833
v 0.070000 -0.339353 3.100000
v 0.070000 0.000000 3.100000
v 0.110000 -0.339353 3.070833
v 0.110000 -0.339353 3.075000
v 0.110000 0.000000 3.075000
v 0.110000 0.000000 3.070833
v 0.110000 -0.339353 3.079167
v 0.110000 0.000000 3.079167
v 0.110000 -0.339353 3.083333
v 0.110000 0.000000 3.083333
v 0.110000 -0.339353 3.087500
v 0.110000 0.000000 3.087500
v 0.110000 -0.339353 3.091667
v 0.110000 0.000000 3.091667
v 0.110000 -0.339353 3.095833
v 0.110000 0.000000 3.095833
v 0.110000 -0.339353 3.100000
v 0.110000 0.000000 3.100000
v 0.150000 -0.339353 3.070833
v 0.150000 -0.339353 3.075000
v 0.150000 0.000000 3.075000
v 0.150000 0.000000 3.070833
v 0.150000 -0.339353 3.079167
v 0.150000 0.000000 3.079167
v 0.150000 -0.339353 3.083333
v 0.150000 0.000000 3.083333
v 0.150000 -0.339353 3.087500
v 0.150000 0.000000 3.087500
v 0.150000 -0.339353 3.091667
v 0.150000 0.000000 3.091667
v 0.150000 -0.339353 3.095833
v 0.150000 0.000000 3.095833
v 0.150000 -0.339353 3.100000
v 0.150000 0.000000 3.100000
v 0.190000 -0.339353 3.070833
v 0.190000 -0.339353 3.075000
v 0.190000 0.000000 3.075000
v 0.190000 0.000000 3.070833
v 0.190000 -0.339353 3.079167
v 0.190000 0.000000 3.079167
v 0.190000 -0.339353 3.083333
v 0.190000 0.000000 3.083333
v 0.190000 -0.339353 3.087500
v 0.190000 0.000000 3.087500
v 0.190000 -0.339353 3.091667
v 0.190000 0.000000 3.091667
v 0.190000 -0.339353 3.095833
v 0.190000 0.000000 3.095833
v 0.190000 -0.339353 3.100000
v 0.190000 0.000000 3.100000
v 0.230000 -0.339353 3.070833
v 0.230000 -0.339353 3.075000
v 0.230000 0.000000 3.075000
v 0.230000 0.000000 3.070833
v 0.230000 -0.339353 3.079167
v 0.230000 0.000000 3.079167
v 0.230000 -0.339353 3.083333
v 0.230000 0.000000 3.083333
v 0.230000 -0.339353 3.087500
v 0.230000 0.000000 3.087500
v 0.230000 -0.339353 3.091667
v 0.230000 0.000000 3.091667
v 0.230000 -0.339353 3.095833
v 0.230000 0.000000 3.095833
v 0.230000 -0.339353 3.100000
v 0.230000 0.000000 3.100000
v 0.270000 -0.339353 3.070833
v 0.270000 -0.339353 3.075000
v 0.270000 0.000000 3.075000
v 0.270000 0.000000 3.070833
v 0.270000 -0.339353 3.079167
v 0.270000 0.000000 3.079167
v 0.270000 -0.339353 3.083333
v 0.270000 0.000000 3.083333
v 0.270000 -0.339353 3.087500
v 0.270000 0.000000 3.087500
v 0.270000 -0.339353 3.091667
v 0.270000 0.000000 3.091667
v 0.270000 -0.339353 3.095833
v 0.270000 0.000000 3.095833
v 0.270000 -0.339353 3.100000
v 0.270000 0.000000 3.100000
v 0.310000 -0.339353 3.070833
v 0.310000 -0.339353 3.075000
v 0.310000 0.000000 3.075000
v 0.310000 0.000000 3.070833
v 0.310000 -0.339353 3.079167
v 0.310000 0.000000 3.079167
v 0.310000 -0.339353 3.083333
v 0.310000 0.000000 3.083333
v 0.310000 -0.339353 3.087500
v 0.310000 0.000000 3.087500
v 0.310000 -0.339353 3.091667
v 0.310000 0.000000 3.091667
v 0.310000 -0.339353 3.095833
v 0.310000 0.000000 3.095833
v 0.310000 -0.339353 3.100000
v 0.310000 0.000000 3.100000
v 0.350000 -0.339353 3.070833
v 0.350000 -0.339353 3.075000
v 0.350000 0.000000 3.075000
v 0.350000 0.000000 3.070833
v 0.350000 -0.339353 3.079167
v 0.350000 0.000000 3.079167
v 0.350000 -0.339353 3.083333
v 0.350000 0.000000 3.083333
v 0.350000 -0.339353 3.087500
v 0.350000 0.000000 3.087500
v 0.350000 -0.339353 3.091667
v 0.350000 0.000000 3.091667
v 0.350000 -0.339353 3.095833
v 0.350000 0.000000 3.095833
v 0.350000 -0.339353 3.100000
v 0.350000 0.000000 3.100000
v 0.390000 -0.339353 3.070833
v 0.390000 -0.339353 3.075000
v 0.390000 0.000000 3.075000
v 0.390000 0.000000 3.070833
v 0.390000 -0.339353 3.079167
v 0.390000 0.000000 3.079167
v 0.390000 -0.339353 3.083333
v 0.390000 0.000000 3.083333
v 0.390000 -0.339353 3.087500
v 0.390000 0.000000 3.087500
v 0.390000 -0.339353 3.091667
v 0.390000 0.000000 3.091667
v 0.390000 -0.339353 3.095833
v 0.390000 0.000000 3.095833
v 0.390000 -0.339353 3.100000
v 0.390000 0.000000 3.100000
v 0.430000 -0.339353 3.070833
v 0.430000 -0.339353 3.075000
v 0.430000 0.000000 3.075000
v 0.430000 0.000000 3.070833
v 0.430000 -0.339353 3.079167
v 0.430000 0.000000 3.079167
v 0.430000 -0.339353 3.083333
v 0.430000 0.000000 3.083333
v 0.430000 -0.339353 3.087500
v 0.430000 0.000000 3.087500
v 0.430000 -0.339353 3.091667
v 0.430000 0.000000 3.091667
v 0.430000 -0.339353 3.095833
v 0.430000 0.000000 3.095833
v 0.430000 -0.339353 3.100000
v 0.430000 0.000000 3.100000
v 0.470000 -0.339353 3.070833
v 0.470000 -0.339353 3.075000
v 0.470000 0.000000 3.075000
v 0.470000 0.000000 3.070833
v 0.470000 -0.339353 3.079167
v 0.470000 0.000000 3.079167
v 0.470000 -0.339353 3.083333
v 0.470000 0.000000 3.083333
v 0.470000 -0.339353 3.087500
v 0.470000 0.000000 3.087500
v 0.470000 -0.339353 3.091667
v 0.470000 0.000000 3.091667
v 0.470000 -0.339353 3.095833
v 0.470000 0.000000 3.095833
v 0.470000 -0.339353 3.100000
v 0.470000 0.000000 3.100000
f 1 2 3
f 1 3 4
f 1 5 6
f 1 6 4
f 2 3 7
f 2 7 8
f 1 2 8
f 1 8 5
f 4 3 9
f 4 9 10
f 4 6 11
f 4 11 10
f 3 9 12
f 3 12 7
f 10 9 13
f 10 13 14
f 10 11 15
f 10 15 14
f 9 13 16
f 9 16 12
f 14 13 17
f 14 17 18
f 14 15 19
f 14 19 18
f 13 17 20
f 13 20 16
f 18 17 21
f 18 21 22
f 18 19 23
f 18 23 22
f 17 21 24
f 17 24 20
f 22 21 25
f 22 25 26
f 22 23 27
f 22 27 26
f 21 25 28
f 21 28 24
f 26 25 29
f 26 29 30
f 26 27 31
f 26 31 30
f 25 29 32
f 25 32 28
f 30 31 32
f 30 32 29
f 5 33 34
f 5 34 6
f 8 7 35
f 8 35 36
f 5 8 36
f 5 36 33
f 6 34 37
f 6 37 11
f 7 12 38
f 7 38 35
f 11 37 39
f 11 39 15
f 12 16 40
f 12 40 38
f 15 39 41
f 15 41 19
f 16 20 42
f 16 42 40
f 19 41 43
f 19 43 23
f 20 24 44
f 20 44 42
f 23 43 45
f 23 45 27
f 24 28 46
f 24 46 44
f 27 45 47
f 27 47 31
f 28 32 48
f 28 48 46
f 31 47 48
f 31 48 32
f 33 49 50
f 33 50 34
f 36 35 51
f 36 51 52
f 33 36 52
f 33 52 49
f 34 50 53
f 34 53 37
f 35 38 54
f 35 54 51
f 37 53 55
f 37 55 39
f 38 40 56
f 38 56 54
f 39 55 57
f 39 57 41
f 40 42 58
f 40 58 56
f 41 57 59
f 41 59 43
f 42 44 60
f 42 60 58
f 43 59 61
f 43 61 45
f 44 46 62
f 44 62 60
f 45 61 63
f 45 63 47
f 46 48 64
f 46 64 62
f 47 63 64
f 47 64 48
f 49 65 66
f 49 66 50
f 52 51 67
f 52 67 68
f 49 52 68
f 49 68 65
f 50 66 69
f 50 69 53
f 51 54 70
f 51 70 67
f 53 69 71
f 53 71 55
f 54 56 72
f 54 72 70
f 55 71 73
f 55 73 57
f 56 58 74
f 56 74 72
f 57 73 75
f 57 75 59
f 58 60 76
f 58 76 74
f 59 75 77
f 59 77 61
f 60 62 78
f 60 78 76
f 61 77 79
f 61 79 63
f 62 64 80
f 62 80 78
f 63 79 80
f 63 80 64
f 65 81 82
f 65 82 66
f 68 67 83
f 68 83 84
f 65 68 84
f 65 84 81
f 66 82 85
f 66 85 69
f 67 70 86
f 67 86 83
f 69 85 87
f 69 87 71
f 70 72 88
f 70 88 86
f 71 87 89
f 71 89 73
f 72 74 90
f 72 90 88
f 73 89 91
f 73 91 75
f 74 76 92
f 74 92 90
f 75 91 93
f 75 93 77
f 76 78 94
f 76 94 92
f 77 93 95
f 77 95 79
f 78 80 96
f 78 96 94
f 79 95 96
f 79 96 80
f 81 97 98
f 81 98 82
f 84 83 99
f 84 99 100
f 81 84 100
f 81 100 97
f 82 98 101
f 82 101 85
f 83 86 102
f 83 102 99
f 85 101 103
f 85 103 87
f 86 88 104
f 86 104 102
f 87 103 105
f 87 105 89
f 88 90 106
f 88 106 104
f 89 105 107
f 89 107 91
f 90 92 108
f 90 108 106
f 91 107 109
f 91 109 93
f 92 94 110
f 92 110 108
f 93 109 111
f 93 111 95
f 94 96 112
f 94 112 110
f 95 111 112
f 95 112 96
f 97 113 114
f 97 114 98
f 100 99 115
f 100 115 116
f 97 100 116
f 97 116 113
f 98 114 117
f 98 117 101
f 99 102 118
f 99 118 115
f 101 117 119
f 101 119 103
f 102 104 120
f 102 120 118
f 103 119 121
f 103 121 105
f 104 106 122
f 104 122 120
f 105 121 123
f 105 123 107
f 106 108 124
f 106 124 122
f 107 123 125
f 107 125 109
f 108 110 126
f 108 126 124
f 109 125 127
f 109 127 111
f 110 112 128
f 110 128 126
f 111 127 128
f 111 128 112
f 113 129 130
f 113 130 114
f 116 115 131
f 116 131 132
f 113 116 132
f 113 132 129
f 114 130 133
f 114 133 117
f 115 118 134
f 115 134 131
f 117 133 135
f 117 135 119
f 118 120 136
f 118 136 134
f 119 135 137
f 119 137 121
f 120 122 138
f 120 138 136
f 121 137 139
f 121 139 123
f 122 124 140
f 122 140 138
f 123 139 141
f 123 141 125
f 124 126 142
f 124 142 140
f 125 141 143
f 125 143 127
f 126 128 144
f 126 144 142
f 127 143 144
f 127 144 128
f 129 145 146
f 129 146 130
f 132 131 147
f 132 147 148
f 129 132 148
f 129 148 145
f 130 146 149
f 130 149 133
f 131 134 150
f 131 150 147
f 133 149 151
f 133 151 135
f 134 136 152
f 134 152 150
f 135 151 153
f 135 153 137
f 136 138 154
f 136 154 152
f 137 153 155
f 137 155 139
f 138 140 156
f 138 156 154
f 139 155 157
f 139 157 141
f 140 142 158
f 140 158 156
f 141 157 159
f 141 159 143
f 142 144 160
f 142 160 158
f 143 159 160
f 143 160 144
f 145 161 162
f 145 162 146
f 148 147 163
f 148 163 164
f 145 148 164
f 145 164 161
f 146 162 165
f 146 165 149
f 147 150 166
f 147 166 163
f 149 165 167
f 149 167 151
f 150 152 168
f 150 168 166
f 151 167 169
f 151 169 153
f 152 154 170
f 152 170 168
f 153 169 171
f 153 171 155
f 154 156 172
f 154 172 170
f 155 171 173
f 155 173 157
f 156 158 174
f 156 174 172
f 157 173 175
f 157 175 159
f 158 160 176
f 158 176 174
f 159 175 176
f 159 176 160
f 161 177 178
f 161 178 162
f 164 163 179
f 164 179 180
f 161 164 180
f 161 180 177
f 162 178 181
f 162 181 165
f 163 166 182
f 163 182 179
f 165 181 183
f 165 183 167
f 166 168 184
f 166 184 182
f 167 183 185
f 167 185 169
f 168 170 186
f 168 186 184
f 169 185 187
f 169 187 171
f 170 172 188
f 170 188 186
f 171 187 189
f 171 189 173
f 172 174 190
f 172 190 188
f 173 189 191
f 173 191 175
f 174 176 192
f 174 192 190
f 175 191 192
f 175 192 176
f 177 193 194
f 177 194 178
f 180 179 195
f 180 195 196
f 177 180 196
f 177 196 193
f 178 194 197
f 178 197 181
f 179 182 198
f 179 198 195
f 181 197 199
f 181 199 183
f 182 184 200
f 182 200 198
f 183 199 201
f 183 201 185
f 184 186 202
f 184 202 200
f 185 201 203
f 185 203 187
f 186 188 204
f 186 204 202
f 187 203 205
f 187 205 189
f 188 190 206
f 188 206 204
f 189 205 207
f 189 207 191
f 190 192 208
f 190 208 206
f 191 207 208
f 191 208 192
f 193 209 210
f 193 210 194
f 196 195 211
f 196 211 212
f 193 196 212
f 193 212 209
f 194 210 213
f 194 213 197
f 195 198 214
f 195 214 211
f 197 213 215
f 197 215 199
f 198 200 216
f 198 216 214
f 199 215 217
f 199 217 201
f 200 202 218
f 200 218 216
f 201 217 219
f 201 219 203
f 202 204 220
f 202 220 218
f 203 219 221
f 203 221 205
f 204 206 222
f 204 222 220
f 205 221 223
f 205 223 207
f 206 208 224
f 206 224 222
f 207 223 224
f 207 224 208
f 209 225 226
f 209 226 210
f 212 211 227
f 212 227 228
f 209 212 228
f 209 228 225
f 210 226 229
f 210 229 213
f 211 214 230
f 211 230 227
f 213 229 231
f 213 231 215
f 214 216 232
f 214 232 230
f 215 231 233
f 215 233 217
f 216 218 234
f 216 234 232
f 217 233 235
f 217 235 219
f 218 220 236
f 218 236 234
f 219 235 237
f 219 237 221
f 220 222 238
f 220 238 236
f 221 237 239
f 221 239 223
f 222 224 240
f 222 240 238
f 223 239 240
f 223 240 224
f 225 241 242
f 225 242 226
f 228 227 243
f 228 243 244
f 225 228 244
f 225 244 241
f 226 242 245
f 226 245 229
f 227 230 246
f 227 246 243
f 229 245 247
f 229 247 231
f 230 232 248
f 230 248 246
f 231 247 249
f 231 249 233
f 232 234 250
f 232 250 248
f 233 249 251
f 233 251 235
f 234 236 252
f 234 252 250
f 235 251 253
f 235 253 237
f 236 238 254
f 236 254 252
f 237 253 255
f 237 255 239
f 238 240 256
f 238 256 254
f 239 255 256
f 239 256 240
f 241 257 258
f 241 258 242
f 244 243 259
f 244 259 260
f 241 244 260
f 241 260 257
f 242 258 261
f 242 261 245
f 243 246 262
f 243 262 259
f 245 261 263
f 245 263 247
f 246 248 264
f 246 264 262
f 247 263 265
f 247 265 249
f 248 250 266
f 248 266 264
f 249 265 267
f 249 267 251
f 250 252 268
f 250 268 266
f 251 267 269
f 251 269 253
f 252 254 270
f 252 270 268
f 253 269 271
f 253 271 255
f 254 256 272
f 254 272 270
f 255 271 272
f 255 272 256
f 257 273 274
f 257 274 258
f 260 259 275
f 260 275 276
f 257 260 276
f 257 276 273
f 258 274 277
f 258 277 261
f 259 262 278
f 259 278 275
f 261 277 279
f 261 279 263
f 262 264 280
f 262 280 278
f 263 279 281
f 263 281 265
f 264 266 282
f 264 282 280
f 265 281 283
f 265 283 267
f 266 268 284
f 266 284 282
f 267 283 285
f 267 285 269
f 268 270 286
f 268 286 284
f 269 285 287
f 269 287 271
f 270 272 288
f 270 288 286
f 271 287 288
f 271 288 272
f 273 289 290
f 273 290 274
f 276 275 291
f 276 291 292
f 273 276 292
f 273 292 289
f 274 290 293
f 274 293 277
f 275 278 294
f 275 294 291
f 277 293 295
f 277 295 279
f 278 280 296
f 278 296 294
f 279 295 297
f 279 297 281
f 280 282 298
f 280 298 296
f 281 297 299
f 281 299 283
f 282 284 300
f 282 300 298
f 283 299 301
f 283 301 285
f 284 286 302
f 284 302 300
f 285 301 303
f 285 303 287
f 286 288 304
f 286 304 302
f 287 303 304
f 287 304 288
f 289 305 306
f 289 306 290
f 292 291 307
f 292 307 308
f 289 292 308
f 289 308 305
f 290 306 309
f 290 309 293
f 291 294 310
f 291 310 307
f 293 309 311
f 293 311 295
f 294 296 312
f 294 312 310
f 295 311 313
f 295 313 297
f 296 298 314
f 296 314 312
f 297 313 315
f 297 315 299
f 298 300 316
f 298 316 314
f 299 315 317
f 299 317 301
f 300 302 318
f 300 318 316
f 301 317 319
f 301 319 303
f 302 304 320
f 302 320 318
f 303 319 320
f 303 320 304
f 305 321 322
f 305 322 306
f 308 307 323
f 308 323 324
f 305 308 324
f 305 324 321
f 306 322 325
f 306 325 309
f 307 310 326
f 307 326 323
f 309 325 327
f 309 327 311
f 310 312 328
f 310 328 326
f 311 327 329
f 311 329 313
f 312 314 330
f 312 330 328
f 313 329 331
f 313 331 315
f 314 316 332
f 314 332 330
f 315 331 333
f 315 333 317
f 316 318 334
f 316 334 332
f 317 333 335
f 317 335 319
f 318 320 336
f 318 336 334
f 319 335 336
f 319 336 320
f 321 337 338
f 321 338 322
f 324 323 339
f 324 339 340
f 321 324 340
f 321 340 337
f 322 338 341
f 322 341 325
f 323 326 342
f 323 342 339
f 325 341 343
f 325 343 327
f 326 328 344
f 326 344 342
f 327 343 345
f 327 345 329
f 328 330 346
f 328 346 344
f 329 345 347
f 329 347 331
f 330 332 348
f 330 348 346
f 331 347 349
f 331 349 333
f 332 334 350
f 332 350 348
f 333 349 351
f 333 351 335
f 334 336 352
f 334 352 350
f 335 351 352
f 335 352 336
f 337 353 354
f 337 354 338
f 340 339 355
f 340 355 356
f 337 340 356
f 337 356 353
f 338 354 357
f 338 357 341
f 339 342 358
f 339 358 355
f 341 357 359
f 341 359 343
f 342 344 360
f 342 360 358
f 343 359 361
f 343 361 345
f 344 346 362
f 344 362 360
f 345 361 363
f 345 363 347
f 346 348 364
f 346 364 362
f 347 363 365
f 347 365 349
f 348 350 366
f 348 366 364
f 349 365 367
f 349 367 351
f 350 352 368
f 350 368 366
f 351 367 368
f 351 368 352
f 353 369 370
f 353 370 354
f 356 355 371
f 356 371 372
f 353 356 372
f 353 372 369
f 354 370 373
f 354 373 357
f 355 358 374
f 355 374 371
f 357 373 375
f 357 375 359
f 358 360 376
f 358 376 374
f 359 375 377
f 359 377 361
f 360 362 378
f 360 378 376
f 361 377 379
f 361 379 363
f 362 364 380
f 362 380 378
f 363 379 381
f 363 381 365
f 364 366 382
f 364 382 380
f 365 381 383
f 365 383 367
f 366 368 384
f 366 384 382
f 367 383 384
f 367 384 368
f 385 386 387
f 385 387 388
f 369 385 386
f 369 386 370
f 372 371 387
f 372 387 388
f 369 372 388
f 369 388 385
f 386 389 390
f 386 390 387
f 370 386 389
f 370 389 373
f 371 374 390
f 371 390 387
f 389 391 392
f 389 392 390
f 373 389 391
f 373 391 375
f 374 376 392
f 374 392 390
f 391 393 394
f 391 394 392
f 375 391 393
f 375 393 377
f 376 378 394
f 376 394 392
f 393 395 396
f 393 396 394
f 377 393 395
f 377 395 379
f 378 380 396
f 378 396 394
f 395 397 398
f 395 398 396
f 379 395 397
f 379 397 381
f 380 382 398
f 380 398 396
f 397 399 400
f 397 400 398
f 381 397 399
f 381 399 383
f 382 384 400
f 382 400 398
f 383 399 400
f 383 400 384
