o [4B] 3D Diagram - S2-09 Group E_36
v 0.707107 0.000000 6.700000
v 0.698401 0.110616 6.700000
v 0.672499 0.218508 6.700000
v 0.630037 0.321020 6.700000
v 0.572061 0.415627 6.700000
v 0.500000 0.500000 6.700000
v 0.415627 0.572061 6.700000
v 0.321020 0.630037 6.700000
v 0.218508 0.672499 6.700000
v 0.110616 0.698401 6.700000
v 0.000000 0.707107 6.700000
v -0.110616 0.698401 6.700000
v -0.218508 0.672499 6.700000
v -0.321020 0.630037 6.700000
v -0.415627 0.572061 6.700000
v -0.500000 0.500000 6.700000
v -0.572061 0.415627 6.700000
v -0.630037 0.321020 6.700000
v -0.672499 0.218508 6.700000
v -0.698401 0.110616 6.700000
v -0.707107 0.000000 6.700000
v -0.698401 -0.110616 6.700000
v -0.672499 -0.218508 6.700000
v -0.630037 -0.321020 6.700000
v -0.572061 -0.415627 6.700000
v -0.500000 -0.500000 6.700000
v -0.415627 -0.572061 6.700000
v -0.321020 -0.630037 6.700000
v -0.218508 -0.672499 6.700000
v -0.110616 -0.698401 6.700000
v -0.000000 -0.707107 6.700000
v 0.110616 -0.698401 6.700000
v 0.218508 -0.672499 6.700000
v 0.321020 -0.630037 6.700000
v 0.415627 -0.572061 6.700000
v 0.500000 -0.500000 6.700000
v 0.572061 -0.415627 6.700000
v 0.630037 -0.321020 6.700000
v 0.672499 -0.218508 6.700000
v 0.698401 -0.110616 6.700000
v 0.707107 0.000000 6.725000
v 0.698401 0.110616 6.725000
v 0.672499 0.218508 6.725000
v 0.630037 0.321020 6.725000
v 0.572061 0.415627 6.725000
v 0.500000 0.500000 6.725000
v 0.415627 0.572061 6.725000
v 0.321020 0.630037 6.725000
v 0.218508 0.672499 6.725000
v 0.110616 0.698401 6.725000
v 0.000000 0.707107 6.725000
v -0.110616 0.698401 6.725000
v -0.218508 0.672499 6.725000
v -0.321020 0.630037 6.725000
v -0.415627 0.572061 6.725000
v -0.500000 0.500000 6.725000
v -0.572061 0.415627 6.725000
v -0.630037 0.321020 6.725000
v -0.672499 0.218508 6.725000
v -0.698401 0.110616 6.725000
v -0.707107 0.000000 6.725000
v -0.698401 -0.110616 6.725000
v -0.672499 -0.218508 6.725000
v -0.630037 -0.321020 6.725000
v -0.572061 -0.415627 6.725000
v -0.500000 -0.500000 6.725000
v -0.415627 -0.572061 6.725000
v -0.321020 -0.630037 6.725000
v -0.218508 -0.672499 6.725000
v -0.110616 -0.698401 6.725000
v -0.000000 -0.707107 6.725000
v 0.110616 -0.698401 6.725000
v 0.218508 -0.672499 6.725000
v 0.321020 -0.630037 6.725000
v 0.415627 -0.572061 6.725000
v 0.500000 -0.500000 6.725000
v 0.572061 -0.415627 6.725000
v 0.630037 -0.321020 6.725000
v 0.672499 -0.218508 6.725000
v 0.698401 -0.110616 6.725000
v 0.707107 0.000000 6.750000
v 0.698401 0.110616 6.750000
v 0.672499 0.218508 6.750000
v 0.630037 0.321020 6.750000
v 0.572061 0.415627 6.750000
v 0.500000 0.500000 6.750000
v 0.415627 0.572061 6.750000
v 0.321020 0.630037 6.750000
v 0.218508 0.672499 6.750000
v 0.110616 0.698401 6.750000
v 0.000000 0.707107 6.750000
v -0.110616 0.698401 6.750000
v -0.218508 0.672499 6.750000
v -0.321020 0.630037 6.750000
v -0.415627 0.572061 6.750000
v -0.500000 0.500000 6.750000
v -0.572061 0.415627 6.750000
v -0.630037 0.321020 6.750000
v -0.672499 0.218508 6.750000
v -0.698401 0.110616 6.750000
v -0.707107 0.000000 6.750000
v -0.698401 -0.110616 6.750000
v -0.672499 -0.218508 6.750000
v -0.630037 -0.321020 6.750000
v -0.572061 -0.415627 6.750000
v -0.500000 -0.500000 6.750000
v -0.415627 -0.572061 6.750000
v -0.321020 -0.630037 6.750000
v -0.218508 -0.672499 6.750000
v -0.110616 -0.698401 6.750000
v -0.000000 -0.707107 6.750000
v 0.110616 -0.698401 6.750000
v 0.218508 -0.672499 6.750000
v 0.321020 -0.630037 6.750000
v 0.415627 -0.572061 6.750000
v 0.500000 -0.500000 6.750000
v 0.572061 -0.415627 6.750000
v 0.630037 -0.321020 6.750000
v 0.672499 -0.218508 6.750000
v 0.698401 -0.110616 6.750000
v 0.707107 0.000000 6.775000
v 0.698401 0.110616 6.775000
v 0.672499 0.218508 6.775000
v 0.630037 0.321020 6.775000
v 0.572061 0.415627 6.775000
v 0.500000 0.500000 6.775000
v 0.415627 0.572061 6.775000
v 0.321020 0.630037 6.775000
v 0.218508 0.672499 6.775000
v 0.110616 0.698401 6.775000
v 0.000000 0.707107 6.775000
v -0.110616 0.698401 6.775000
v -0.218508 0.672499 6.775000
v -0.321020 0.630037 6.775000
v -0.415627 0.572061 6.775000
v -0.500000 0.500000 6.775000
v -0.572061 0.415627 6.775000
v -0.630037 0.321020 6.775000
v -0.672499 0.218508 6.775000
v -0.698401 0.110616 6.775000
v -0.707107 0.000000 6.775000
v -0.698401 -0.110616 6.775000
v -0.672499 -0.218508 6.775000
v -0.630037 -0.321020 6.775000
v -0.572061 -0.415627 6.775000
v -0.500000 -0.500000 6.775000
v -0.415627 -0.572061 6.775000
v -0.321020 -0.630037 6.775000
v -0.218508 -0.672499 6.775000
v -0.110616 -0.698401 6.775000
v -0.000000 -0.707107 6.775000
v 0.110616 -0.698401 6.775000
v 0.218508 -0.672499 6.775000
v 0.321020 -0.630037 6.775000
v 0.415627 -0.572061 6.775000
v 0.500000 -0.500000 6.775000
v 0.572061 -0.415627 6.775000
v 0.630037 -0.321020 6.775000
v 0.672499 -0.218508 6.775000
v 0.698401 -0.110616 6.775000
v 0.707107 0.000000 6.800000
v 0.698401 0.110616 6.800000
v 0.672499 0.218508 6.800000
v 0.630037 0.321020 6.800000
v 0.572061 0.415627 6.800000
v 0.500000 0.500000 6.800000
v 0.415627 0.572061 6.800000
v 0.321020 0.630037 6.800000
v 0.218508 0.672499 6.800000
v 0.110616 0.698401 6.800000
v 0.000000 0.707107 6.800000
v -0.110616 0.698401 6.800000
v -0.218508 0.672499 6.800000
v -0.321020 0.630037 6.800000
v -0.415627 0.572061 6.800000
v -0.500000 0.500000 6.800000
v -0.572061 0.415627 6.800000
v -0.630037 0.321020 6.800000
v -0.672499 0.218508 6.800000
v -0.698401 0.110616 6.800000
v -0.707107 0.000000 6.800000
v -0.698401 -0.110616 6.800000
v -0.672499 -0.218508 6.800000
v -0.630037 -0.321020 6.800000
v -0.572061 -0.415627 6.800000
v -0.500000 -0.500000 6.800000
v -0.415627 -0.572061 6.800000
v -0.321020 -0.630037 6.800000
v -0.218508 -0.672499 6.800000
v -0.110616 -0.698401 6.800000
v -0.000000 -0.707107 6.800000
v 0.110616 -0.698401 6.800000
v 0.218508 -0.672499 6.800000
v 0.321020 -0.630037 6.800000
v 0.415627 -0.572061 6.800000
v 0.500000 -0.500000 6.800000
v 0.572061 -0.415627 6.800000
v 0.630037 -0.321020 6.800000
v 0.672499 -0.218508 6.800000
v 0.698401 -0.110616 6.800000
v 0.707107 0.000000 6.825000
v 0.698401 0.110616 6.825000
v 0.672499 0.218508 6.825000
v 0.630037 0.321020 6.825000
v 0.572061 0.415627 6.825000
v 0.500000 0.500000 6.825000
v 0.415627 0.572061 6.825000
v 0.321020 0.630037 6.825000
v 0.218508 0.672499 6.825000
v 0.110616 0.698401 6.825000
v 0.000000 0.707107 6.825000
v -0.110616 0.698401 6.825000
v -0.218508 0.672499 6.825000
v -0.321020 0.630037 6.825000
v -0.415627 0.572061 6.825000
v -0.500000 0.500000 6.825000
v -0.572061 0.415627 6.825000
v -0.630037 0.321020 6.825000
v -0.672499 0.218508 6.825000
v -0.698401 0.110616 6.825000
v -0.707107 0.000000 6.825000
v -0.698401 -0.110616 6.825000
v -0.672499 -0.218508 6.825000
v -0.630037 -0.321020 6.825000
v -0.572061 -0.415627 6.825000
v -0.500000 -0.500000 6.825000
v -0.415627 -0.572061 6.825000
v -0.321020 -0.630037 6.825000
v -0.218508 -0.672499 6.825000
v -0.110616 -0.698401 6.825000
v -0.000000 -0.707107 6.825000
v 0.110616 -0.698401 6.825000
v 0.218508 -0.672499 6.825000
v 0.321020 -0.630037 6.825000
v 0.415627 -0.572061 6.825000
v 0.500000 -0.500000 6.825000
v 0.572061 -0.415627 6.825000
v 0.630037 -0.321020 6.825000
v 0.672499 -0.218508 6.825000
v 0.698401 -0.110616 6.825000
v 0.707107 0.000000 6.850000
v 0.698401 0.110616 6.850000
v 0.672499 0.218508 6.850000
v 0.630037 0.321020 6.850000
v 0.572061 0.415627 6.850000
v 0.500000 0.500000 6.850000
v 0.415627 0.572061 6.850000
v 0.321020 0.630037 6.850000
v 0.218508 0.672499 6.850000
v 0.110616 0.698401 6.850000
v 0.000000 0.707107 6.850000
v -0.110616 0.698401 6.850000
v -0.218508 0.672499 6.850000
v -0.321020 0.630037 6.850000
v -0.415627 0.572061 6.850000
v -0.500000 0.500000 6.850000
v -0.572061 0.415627 6.850000
v -0.630037 0.321020 6.850000
v -0.672499 0.218508 6.850000
v -0.698401 0.110616 6.850000
v -0.707107 0.000000 6.850000
v -0.698401 -0.110616 6.850000
v -0.672499 -0.218508 6.850000
v -0.630037 -0.321020 6.850000
v -0.572061 -0.415627 6.850000
v -0.500000 -0.500000 6.850000
v -0.415627 -0.572061 6.850000
v -0.321020 -0.630037 6.850000
v -0.218508 -0.672499 6.850000
v -0.110616 -0.698401 6.850000
v -0.000000 -0.707107 6.850000
v 0.110616 -0.698401 6.850000
v 0.218508 -0.672499 6.850000
v 0.321020 -0.630037 6.850000
v 0.415627 -0.572061 6.850000
v 0.500000 -0.500000 6.850000
v 0.572061 -0.415627 6.850000
v 0.630037 -0.321020 6.850000
v 0.672499 -0.218508 6.850000
v 0.698401 -0.110616 6.850000
v 0.707107 0.000000 6.875000
v 0.698401 0.110616 6.875000
v 0.672499 0.218508 6.875000
v 0.630037 0.321020 6.875000
v 0.572061 0.415627 6.875000
v 0.500000 0.500000 6.875000
v 0.415627 0.572061 6.875000
v 0.321020 0.630037 6.875000
v 0.218508 0.672499 6.875000
v 0.110616 0.698401 6.875000
v 0.000000 0.707107 6.875000
v -0.110616 0.698401 6.875000
v -0.218508 0.672499 6.875000
v -0.321020 0.630037 6.875000
v -0.415627 0.572061 6.875000
v -0.500000 0.500000 6.875000
v -0.572061 0.415627 6.875000
v -0.630037 0.321020 6.875000
v -0.672499 0.218508 6.875000
v -0.698401 0.110616 6.875000
v -0.707107 0.000000 6.875000
v -0.698401 -0.110616 6.875000
v -0.672499 -0.218508 6.875000
v -0.630037 -0.321020 6.875000
v -0.572061 -0.415627 6.875000
v -0.500000 -0.500000 6.875000
v -0.415627 -0.572061 6.875000
v -0.321020 -0.630037 6.875000
v -0.218508 -0.672499 6.875000
v -0.110616 -0.698401 6.875000
v -0.000000 -0.707107 6.875000
v 0.110616 -0.698401 6.875000
v 0.218508 -0.672499 6.875000
v 0.321020 -0.630037 6.875000
v 0.415627 -0.572061 6.875000
v 0.500000 -0.500000 6.875000
v 0.572061 -0.415627 6.875000
v 0.630037 -0.321020 6.875000
v 0.672499 -0.218508 6.875000
v 0.698401 -0.110616 6.875000
v 0.707107 0.000000 6.900000
v 0.698401 0.110616 6.900000
v 0.672499 0.218508 6.900000
v 0.630037 0.321020 6.900000
v 0.572061 0.415627 6.900000
v 0.500000 0.500000 6.900000
v 0.415627 0.572061 6.900000
v 0.321020 0.630037 6.900000
v 0.218508 0.672499 6.900000
v 0.110616 0.698401 6.900000
v 0.000000 0.707107 6.900000
v -0.110616 0.698401 6.900000
v -0.218508 0.672499 6.900000
v -0.321020 0.630037 6.900000
v -0.415627 0.572061 6.900000
v -0.500000 0.500000 6.900000
v -0.572061 0.415627 6.900000
v -0.630037 0.321020 6.900000
v -0.672499 0.218508 6.900000
v -0.698401 0.110616 6.900000
v -0.707107 0.000000 6.900000
v -0.698401 -0.110616 6.900000
v -0.672499 -0.218508 6.900000
v -0.630037 -0.321020 6.900000
v -0.572061 -0.415627 6.900000
v -0.500000 -0.500000 6.900000
v -0.415627 -0.572061 6.900000
v -0.321020 -0.630037 6.900000
v -0.218508 -0.672499 6.900000
v -0.110616 -0.698401 6.900000
v -0.000000 -0.707107 6.900000
v 0.110616 -0.698401 6.900000
v 0.218508 -0.672499 6.900000
v 0.321020 -0.630037 6.900000
v 0.415627 -0.572061 6.900000
v 0.500000 -0.500000 6.900000
v 0.572061 -0.415627 6.900000
v 0.630037 -0.321020 6.900000
v 0.672499 -0.218508 6.900000
v 0.698401 -0.110616 6.900000
v 0.707107 0.000000 6.925000
v 0.698401 0.110616 6.925000
v 0.672499 0.218508 6.925000
v 0.630037 0.321020 6.925000
v 0.572061 0.415627 6.925000
v 0.500000 0.500000 6.925000
v 0.415627 0.572061 6.925000
v 0.321020 0.630037 6.925000
v 0.218508 0.672499 6.925000
v 0.110616 0.698401 6.925000
v 0.000000 0.707107 6.925000
v -0.110616 0.698401 6.925000
v -0.218508 0.672499 6.925000
v -0.321020 0.630037 6.925000
v -0.415627 0.572061 6.925000
v -0.500000 0.500000 6.925000
v -0.572061 0.415627 6.925000
v -0.630037 0.321020 6.925000
v -0.672499 0.218508 6.925000
v -0.698401 0.110616 6.925000
v -0.707107 0.000000 6.925000
v -0.698401 -0.110616 6.925000
v -0.672499 -0.218508 6.925000
v -0.630037 -0.321020 6.925000
v -0.572061 -0.415627 6.925000
v -0.500000 -0.500000 6.925000
v -0.415627 -0.572061 6.925000
v -0.321020 -0.630037 6.925000
v -0.218508 -0.672499 6.925000
v -0.110616 -0.698401 6.925000
v -0.000000 -0.707107 6.925000
v 0.110616 -0.698401 6.925000
v 0.218508 -0.672499 6.925000
v 0.321020 -0.630037 6.925000
v 0.415627 -0.572061 6.925000
v 0.500000 -0.500000 6.925000
v 0.572061 -0.415627 6.925000
v 0.630037 -0.321020 6.925000
v 0.672499 -0.218508 6.925000
v 0.698401 -0.110616 6.925000
v 0.707107 0.000000 6.950000
v 0.698401 0.110616 6.950000
v 0.672499 0.218508 6.950000
v 0.630037 0.321020 6.950000
v 0.572061 0.415627 6.950000
v 0.500000 0.500000 6.950000
v 0.415627 0.572061 6.950000
v 0.321020 0.630037 6.950000
v 0.218508 0.672499 6.950000
v 0.110616 0.698401 6.950000
v 0.000000 0.707107 6.950000
v -0.110616 0.698401 6.950000
v -0.218508 0.672499 6.950000
v -0.321020 0.630037 6.950000
v -0.415627 0.572061 6.950000
v -0.500000 0.500000 6.950000
v -0.572061 0.415627 6.950000
v -0.630037 0.321020 6.950000
v -0.672499 0.218508 6.950000
v -0.698401 0.110616 6.950000
v -0.707107 0.000000 6.950000
v -0.698401 -0.110616 6.950000
v -0.672499 -0.218508 6.950000
v -0.630037 -0.321020 6.950000
v -0.572061 -0.415627 6.950000
v -0.500000 -0.500000 6.950000
v -0.415627 -0.572061 6.950000
v -0.321020 -0.630037 6.950000
v -0.218508 -0.672499 6.950000
v -0.110616 -0.698401 6.950000
v -0.000000 -0.707107 6.950000
v 0.110616 -0.698401 6.950000
v 0.218508 -0.672499 6.950000
v 0.321020 -0.630037 6.950000
v 0.415627 -0.572061 6.950000
v 0.500000 -0.500000 6.950000
v 0.572061 -0.415627 6.950000
v 0.630037 -0.321020 6.950000
v 0.672499 -0.218508 6.950000
v 0.698401 -0.110616 6.950000
v 0.707107 0.000000 6.975000
v 0.698401 0.110616 6.975000
v 0.672499 0.218508 6.975000
v 0.630037 0.321020 6.975000
v 0.572061 0.415627 6.975000
v 0.500000 0.500000 6.975000
v 0.415627 0.572061 6.975000
v 0.321020 0.630037 6.975000
v 0.218508 0.672499 6.975000
v 0.110616 0.698401 6.975000
v 0.000000 0.707107 6.975000
v -0.110616 0.698401 6.975000
v -0.218508 0.672499 6.975000
v -0.321020 0.630037 6.975000
v -0.415627 0.572061 6.975000
v -0.500000 0.500000 6.975000
v -0.572061 0.415627 6.975000
v -0.630037 0.321020 6.975000
v -0.672499 0.218508 6.975000
v -0.698401 0.110616 6.975000
v -0.707107 0.000000 6.975000
v -0.698401 -0.110616 6.975000
v -0.672499 -0.218508 6.975000
v -0.630037 -0.321020 6.975000
v -0.572061 -0.415627 6.975000
v -0.500000 -0.500000 6.975000
v -0.415627 -0.572061 6.975000
v -0.321020 -0.630037 6.975000
v -0.218508 -0.672499 6.975000
v -0.110616 -0.698401 6.975000
v -0.000000 -0.707107 6.975000
v 0.110616 -0.698401 6.975000
v 0.218508 -0.672499 6.975000
v 0.321020 -0.630037 6.975000
v 0.415627 -0.572061 6.975000
v 0.500000 -0.500000 6.975000
v 0.572061 -0.415627 6.975000
v 0.630037 -0.321020 6.975000
v 0.672499 -0.218508 6.975000
v 0.698401 -0.110616 6.975000
v 0.707107 0.000000 7.000000
v 0.698401 0.110616 7.000000
v 0.672499 0.218508 7.000000
v 0.630037 0.321020 7.000000
v 0.572061 0.415627 7.000000
v 0.500000 0.500000 7.000000
v 0.415627 0.572061 7.000000
v 0.321020 0.630037 7.000000
v 0.218508 0.672499 7.000000
v 0.110616 0.698401 7.000000
v 0.000000 0.707107 7.000000
v -0.110616 0.698401 7.000000
v -0.218508 0.672499 7.000000
v -0.321020 0.630037 7.000000
v -0.415627 0.572061 7.000000
v -0.500000 0.500000 7.000000
v -0.572061 0.415627 7.000000
v -0.630037 0.321020 7.000000
v -0.672499 0.218508 7.000000
v -0.698401 0.110616 7.000000
v -0.707107 0.000000 7.000000
v -0.698401 -0.110616 7.000000
v -0.672499 -0.218508 7.000000
v -0.630037 -0.321020 7.000000
v -0.572061 -0.415627 7.000000
v -0.500000 -0.500000 7.000000
v -0.415627 -0.572061 7.000000
v -0.321020 -0.630037 7.000000
v -0.218508 -0.672499 7.000000
v -0.110616 -0.698401 7.000000
v -0.000000 -0.707107 7.000000
v 0.110616 -0.698401 7.000000
v 0.218508 -0.672499 7.000000
v 0.321020 -0.630037 7.000000
v 0.415627 -0.572061 7.000000
v 0.500000 -0.500000 7.000000
v 0.572061 -0.415627 7.000000
v 0.630037 -0.321020 7.000000
v 0.672499 -0.218508 7.000000
v 0.698401 -0.110616 7.000000
f 1 2 41
f 1 41 42
f 2 3 42
f 2 42 43
f 3 4 43
f 3 43 44
f 4 5 44
f 4 44 45
f 5 6 45
f 5 45 46
f 6 7 46
f 6 46 47
f 7 8 47
f 7 47 48
f 8 9 48
f 8 48 49
f 9 10 49
f 9 49 50
f 10 11 50
f 10 50 51
f 11 12 51
f 11 51 52
f 12 13 52
f 12 52 53
f 13 14 53
f 13 53 54
f 14 15 54
f 14 54 55
f 15 16 55
f 15 55 56
f 16 17 56
f 16 56 57
f 17 18 57
f 17 57 58
f 18 19 58
f 18 58 59
f 19 20 59
f 19 59 60
f 20 21 60
f 20 60 61
f 21 22 61
f 21 61 62
f 22 23 62
f 22 62 63
f 23 24 63
f 23 63 64
f 24 25 64
f 24 64 65
f 25 26 65
f 25 65 66
f 26 27 66
f 26 66 67
f 27 28 67
f 27 67 68
f 28 29 68
f 28 68 69
f 29 30 69
f 29 69 70
f 30 31 70
f 30 70 71
f 31 32 71
f 31 71 72
f 32 33 72
f 32 72 73
f 33 34 73
f 33 73 74
f 34 35 74
f 34 74 75
f 35 36 75
f 35 75 76
f 36 37 76
f 36 76 77
f 37 38 77
f 37 77 78
f 38 39 78
f 38 78 79
f 39 40 79
f 39 79 80
f 40 1 80
f 40 80 41
f 41 42 81
f 41 81 82
f 42 43 82
f 42 82 83
f 43 44 83
f 43 83 84
f 44 45 84
f 44 84 85
f 45 46 85
f 45 85 86
f 46 47 86
f 46 86 87
f 47 48 87
f 47 87 88
f 48 49 88
f 48 88 89
f 49 50 89
f 49 89 90
f 50 51 90
f 50 90 91
f 51 52 91
f 51 91 92
f 52 53 92
f 52 92 93
f 53 54 93
f 53 93 94
f 54 55 94
f 54 94 95
f 55 56 95
f 55 95 96
f 56 57 96
f 56 96 97
f 57 58 97
f 57 97 98
f 58 59 98
f 58 98 99
f 59 60 99
f 59 99 100
f 60 61 100
f 60 100 101
f 61 62 101
f 61 101 102
f 62 63 102
f 62 102 103
f 63 64 103
f 63 103 104
f 64 65 104
f 64 104 105
f 65 66 105
f 65 105 106
f 66 67 106
f 66 106 107
f 67 68 107
f 67 107 108
f 68 69 108
f 68 108 109
f 69 70 109
f 69 109 110
f 70 71 110
f 70 110 111
f 71 72 111
f 71 111 112
f 72 73 112
f 72 112 113
f 73 74 113
f 73 113 114
f 74 75 114
f 74 114 115
f 75 76 115
f 75 115 116
f 76 77 116
f 76 116 117
f 77 78 117
f 77 117 118
f 78 79 118
f 78 118 119
f 79 80 119
f 79 119 120
f 80 41 120
f 80 120 81
f 81 82 121
f 81 121 122
f 82 83 122
f 82 122 123
f 83 84 123
f 83 123 124
f 84 85 124
f 84 124 125
f 85 86 125
f 85 125 126
f 86 87 126
f 86 126 127
f 87 88 127
f 87 127 128
f 88 89 128
f 88 128 129
f 89 90 129
f 89 129 130
f 90 91 130
f 90 130 131
f 91 92 131
f 91 131 132
f 92 93 132
f 92 132 133
f 93 94 133
f 93 133 134
f 94 95 134
f 94 134 135
f 95 96 135
f 95 135 136
f 96 97 136
f 96 136 137
f 97 98 137
f 97 137 138
f 98 99 138
f 98 138 139
f 99 100 139
f 99 139 140
f 100 101 140
f 100 140 141
f 101 102 141
f 101 141 142
f 102 103 142
f 102 142 143
f 103 104 143
f 103 143 144
f 104 105 144
f 104 144 145
f 105 106 145
f 105 145 146
f 106 107 146
f 106 146 147
f 107 108 147
f 107 147 148
f 108 109 148
f 108 148 149
f 109 110 149
f 109 149 150
f 110 111 150
f 110 150 151
f 111 112 151
f 111 151 152
f 112 113 152
f 112 152 153
f 113 114 153
f 113 153 154
f 114 115 154
f 114 154 155
f 115 116 155
f 115 155 156
f 116 117 156
f 116 156 157
f 117 118 157
f 117 157 158
f 118 119 158
f 118 158 159
f 119 120 159
f 119 159 160
f 120 81 160
f 120 160 121
f 121 122 161
f 121 161 162
f 122 123 162
f 122 162 163
f 123 124 163
f 123 163 164
f 124 125 164
f 124 164 165
f 125 126 165
f 125 165 166
f 126 127 166
f 126 166 167
f 127 128 167
f 127 167 168
f 128 129 168
f 128 168 169
f 129 130 169
f 129 169 170
f 130 131 170
f 130 170 171
f 131 132 171
f 131 171 172
f 132 133 172
f 132 172 173
f 133 134 173
f 133 173 174
f 134 135 174
f 134 174 175
f 135 136 175
f 135 175 176
f 136 137 176
f 136 176 177
f 137 138 177
f 137 177 178
f 138 139 178
f 138 178 179
f 139 140 179
f 139 179 180
f 140 141 180
f 140 180 181
f 141 142 181
f 141 181 182
f 142 143 182
f 142 182 183
f 143 144 183
f 143 183 184
f 144 145 184
f 144 184 185
f 145 146 185
f 145 185 186
f 146 147 186
f 146 186 187
f 147 148 187
f 147 187 188
f 148 149 188
f 148 188 189
f 149 150 189
f 149 189 190
f 150 151 190
f 150 190 191
f 151 152 191
f 151 191 192
f 152 153 192
f 152 192 193
f 153 154 193
f 153 193 194
f 154 155 194
f 154 194 195
f 155 156 195
f 155 195 196
f 156 157 196
f 156 196 197
f 157 158 197
f 157 197 198
f 158 159 198
f 158 198 199
f 159 160 199
f 159 199 200
f 160 121 200
f 160 200 161
f 161 162 201
f 161 201 202
f 162 163 202
f 162 202 203
f 163 164 203
f 163 203 204
f 164 165 204
f 164 204 205
f 165 166 205
f 165 205 206
f 166 167 206
f 166 206 207
f 167 168 207
f 167 207 208
f 168 169 208
f 168 208 209
f 169 170 209
f 169 209 210
f 170 171 210
f 170 210 211
f 171 172 211
f 171 211 212
f 172 173 212
f 172 212 213
f 173 174 213
f 173 213 214
f 174 175 214
f 174 214 215
f 175 176 215
f 175 215 216
f 176 177 216
f 176 216 217
f 177 178 217
f 177 217 218
f 178 179 218
f 178 218 219
f 179 180 219
f 179 219 220
f 180 181 220
f 180 220 221
f 181 182 221
f 181 221 222
f 182 183 222
f 182 222 223
f 183 184 223
f 183 223 224
f 184 185 224
f 184 224 225
f 185 186 225
f 185 225 226
f 186 187 226
f 186 226 227
f 187 188 227
f 187 227 228
f 188 189 228
f 188 228 229
f 189 190 229
f 189 229 230
f 190 191 230
f 190 230 231
f 191 192 231
f 191 231 232
f 192 193 232
f 192 232 233
f 193 194 233
f 193 233 234
f 194 195 234
f 194 234 235
f 195 196 235
f 195 235 236
f 196 197 236
f 196 236 237
f 197 198 237
f 197 237 238
f 198 199 238
f 198 238 239
f 199 200 239
f 199 239 240
f 200 161 240
f 200 240 201
f 201 202 241
f 201 241 242
f 202 203 242
f 202 242 243
f 203 204 243
f 203 243 244
f 204 205 244
f 204 244 245
f 205 206 245
f 205 245 246
f 206 207 246
f 206 246 247
f 207 208 247
f 207 247 248
f 208 209 248
f 208 248 249
f 209 210 249
f 209 249 250
f 210 211 250
f 210 250 251
f 211 212 251
f 211 251 252
f 212 213 252
f 212 252 253
f 213 214 253
f 213 253 254
f 214 215 254
f 214 254 255
f 215 216 255
f 215 255 256
f 216 217 256
f 216 256 257
f 217 218 257
f 217 257 258
f 218 219 258
f 218 258 259
f 219 220 259
f 219 259 260
f 220 221 260
f 220 260 261
f 221 222 261
f 221 261 262
f 222 223 262
f 222 262 263
f 223 224 263
f 223 263 264
f 224 225 264
f 224 264 265
f 225 226 265
f 225 265 266
f 226 227 266
f 226 266 267
f 227 228 267
f 227 267 268
f 228 229 268
f 228 268 269
f 229 230 269
f 229 269 270
f 230 231 270
f 230 270 271
f 231 232 271
f 231 271 272
f 232 233 272
f 232 272 273
f 233 234 273
f 233 273 274
f 234 235 274
f 234 274 275
f 235 236 275
f 235 275 276
f 236 237 276
f 236 276 277
f 237 238 277
f 237 277 278
f 238 239 278
f 238 278 279
f 239 240 279
f 239 279 280
f 240 201 280
f 240 280 241
f 241 242 281
f 241 281 282
f 242 243 282
f 242 282 283
f 243 244 283
f 243 283 284
f 244 245 284
f 244 284 285
f 245 246 285
f 245 285 286
f 246 247 286
f 246 286 287
f 247 248 287
f 247 287 288
f 248 249 288
f 248 288 289
f 249 250 289
f 249 289 290
f 250 251 290
f 250 290 291
f 251 252 291
f 251 291 292
f 252 253 292
f 252 292 293
f 253 254 293
f 253 293 294
f 254 255 294
f 254 294 295
f 255 256 295
f 255 295 296
f 256 257 296
f 256 296 297
f 257 258 297
f 257 297 298
f 258 259 298
f 258 298 299
f 259 260 299
f 259 299 300
f 260 261 300
f 260 300 301
f 261 262 301
f 261 301 302
f 262 263 302
f 262 302 303
f 263 264 303
f 263 303 304
f 264 265 304
f 264 304 305
f 265 266 305
f 265 305 306
f 266 267 306
f 266 306 307
f 267 268 307
f 267 307 308
f 268 269 308
f 268 308 309
f 269 270 309
f 269 309 310
f 270 271 310
f 270 310 311
f 271 272 311
f 271 311 312
f 272 273 312
f 272 312 313
f 273 274 313
f 273 313 314
f 274 275 314
f 274 314 315
f 275 276 315
f 275 315 316
f 276 277 316
f 276 316 317
f 277 278 317
f 277 317 318
f 278 279 318
f 278 318 319
f 279 280 319
f 279 319 320
f 280 241 320
f 280 320 281
f 281 282 321
f 281 321 322
f 282 283 322
f 282 322 323
f 283 284 323
f 283 323 324
f 284 285 324
f 284 324 325
f 285 286 325
f 285 325 326
f 286 287 326
f 286 326 327
f 287 288 327
f 287 327 328
f 288 289 328
f 288 328 329
f 289 290 329
f 289 329 330
f 290 291 330
f 290 330 331
f 291 292 331
f 291 331 332
f 292 293 332
f 292 332 333
f 293 294 333
f 293 333 334
f 294 295 334
f 294 334 335
f 295 296 335
f 295 335 336
f 296 297 336
f 296 336 337
f 297 298 337
f 297 337 338
f 298 299 338
f 298 338 339
f 299 300 339
f 299 339 340
f 300 301 340
f 300 340 341
f 301 302 341
f 301 341 342
f 302 303 342
f 302 342 343
f 303 304 343
f 303 343 344
f 304 305 344
f 304 344 345
f 305 306 345
f 305 345 346
f 306 307 346
f 306 346 347
f 307 308 347
f 307 347 348
f 308 309 348
f 308 348 349
f 309 310 349
f 309 349 350
f 310 311 350
f 310 350 351
f 311 312 351
f 311 351 352
f 312 313 352
f 312 352 353
f 313 314 353
f 313 353 354
f 314 315 354
f 314 354 355
f 315 316 355
f 315 355 356
f 316 317 356
f 316 356 357
f 317 318 357
f 317 357 358
f 318 319 358
f 318 358 359
f 319 320 359
f 319 359 360
f 320 281 360
f 320 360 321
f 321 322 361
f 321 361 362
f 322 323 362
f 322 362 363
f 323 324 363
f 323 363 364
f 324 325 364
f 324 364 365
f 325 326 365
f 325 365 366
f 326 327 366
f 326 366 367
f 327 328 367
f 327 367 368
f 328 329 368
f 328 368 369
f 329 330 369
f 329 369 370
f 330 331 370
f 330 370 371
f 331 332 371
f 331 371 372
f 332 333 372
f 332 372 373
f 333 334 373
f 333 373 374
f 334 335 374
f 334 374 375
f 335 336 375
f 335 375 376
f 336 337 376
f 336 376 377
f 337 338 377
f 337 377 378
f 338 339 378
f 338 378 379
f 339 340 379
f 339 379 380
f 340 341 380
f 340 380 381
f 341 342 381
f 341 381 382
f 342 343 382
f 342 382 383
f 343 344 383
f 343 383 384
f 344 345 384
f 344 384 385
f 345 346 385
f 345 385 386
f 346 347 386
f 346 386 387
f 347 348 387
f 347 387 388
f 348 349 388
f 348 388 389
f 349 350 389
f 349 389 390
f 350 351 390
f 350 390 391
f 351 352 391
f 351 391 392
f 352 353 392
f 352 392 393
f 353 354 393
f 353 393 394
f 354 355 394
f 354 394 395
f 355 356 395
f 355 395 396
f 356 357 396
f 356 396 397
f 357 358 397
f 357 397 398
f 358 359 398
f 358 398 399
f 359 360 399
f 359 399 400
f 360 321 400
f 360 400 361
f 361 362 401
f 361 401 402
f 362 363 402
f 362 402 403
f 363 364 403
f 363 403 404
f 364 365 404
f 364 404 405
f 365 366 405
f 365 405 406
f 366 367 406
f 366 406 407
f 367 368 407
f 367 407 408
f 368 369 408
f 368 408 409
f 369 370 409
f 369 409 410
f 370 371 410
f 370 410 411
f 371 372 411
f 371 411 412
f 372 373 412
f 372 412 413
f 373 374 413
f 373 413 414
f 374 375 414
f 374 414 415
f 375 376 415
f 375 415 416
f 376 377 416
f 376 416 417
f 377 378 417
f 377 417 418
f 378 379 418
f 378 418 419
f 379 380 419
f 379 419 420
f 380 381 420
f 380 420 421
f 381 382 421
f 381 421 422
f 382 383 422
f 382 422 423
f 383 384 423
f 383 423 424
f 384 385 424
f 384 424 425
f 385 386 425
f 385 425 426
f 386 387 426
f 386 426 427
f 387 388 427
f 387 427 428
f 388 389 428
f 388 428 429
f 389 390 429
f 389 429 430
f 390 391 430
f 390 430 431
f 391 392 431
f 391 431 432
f 392 393 432
f 392 432 433
f 393 394 433
f 393 433 434
f 394 395 434
f 394 434 435
f 395 396 435
f 395 435 436
f 396 397 436
f 396 436 437
f 397 398 437
f 397 437 438
f 398 399 438
f 398 438 439
f 399 400 439
f 399 439 440
f 400 361 440
f 400 440 401
f 401 402 441
f 401 441 442
f 402 403 442
f 402 442 443
f 403 404 443
f 403 443 444
f 404 405 444
f 404 444 445
f 405 406 445
f 405 445 446
f 406 407 446
f 406 446 447
f 407 408 447
f 407 447 448
f 408 409 448
f 408 448 449
f 409 410 449
f 409 449 450
f 410 411 450
f 410 450 451
f 411 412 451
f 411 451 452
f 412 413 452
f 412 452 453
f 413 414 453
f 413 453 454
f 414 415 454
f 414 454 455
f 415 416 455
f 415 455 456
f 416 417 456
f 416 456 457
f 417 418 457
f 417 457 458
f 418 419 458
f 418 458 459
f 419 420 459
f 419 459 460
f 420 421 460
f 420 460 461
f 421 422 461
f 421 461 462
f 422 423 462
f 422 462 463
f 423 424 463
f 423 463 464
f 424 425 464
f 424 464 465
f 425 426 465
f 425 465 466
f 426 427 466
f 426 466 467
f 427 428 467
f 427 467 468
f 428 429 468
f 428 468 469
f 429 430 469
f 429 469 470
f 430 431 470
f 430 470 471
f 431 432 471
f 431 471 472
f 432 433 472
f 432 472 473
f 433 434 473
f 433 473 474
f 434 435 474
f 434 474 475
f 435 436 475
f 435 475 476
f 436 437 476
f 436 476 477
f 437 438 477
f 437 477 478
f 438 439 478
f 438 478 479
f 439 440 479
f 439 479 480
f 440 401 480
f 440 480 441
f 441 442 481
f 441 481 482
f 442 443 482
f 442 482 483
f 443 444 483
f 443 483 484
f 444 445 484
f 444 484 485
f 445 446 485
f 445 485 486
f 446 447 486
f 446 486 487
f 447 448 487
f 447 487 488
f 448 449 488
f 448 488 489
f 449 450 489
f 449 489 490
f 450 451 490
f 450 490 491
f 451 452 491
f 451 491 492
f 452 453 492
f 452 492 493
f 453 454 493
f 453 493 494
f 454 455 494
f 454 494 495
f 455 456 495
f 455 495 496
f 456 457 496
f 456 496 497
f 457 458 497
f 457 497 498
f 458 459 498
f 458 498 499
f 459 460 499
f 459 499 500
f 460 461 500
f 460 500 501
f 461 462 501
f 461 501 502
f 462 463 502
f 462 502 503
f 463 464 503
f 463 503 504
f 464 465 504
f 464 504 505
f 465 466 505
f 465 505 506
f 466 467 506
f 466 506 507
f 467 468 507
f 467 507 508
f 468 469 508
f 468 508 509
f 469 470 509
f 469 509 510
f 470 471 510
f 470 510 511
f 471 472 511
f 471 511 512
f 472 473 512
f 472 512 513
f 473 474 513
f 473 513 514
f 474 475 514
f 474 514 515
f 475 476 515
f 475 515 516
f 476 477 516
f 476 516 517
f 477 478 517
f 477 517 518
f 478 479 518
f 478 518 519
f 479 480 519
f 479 519 520
f 480 441 520
f 480 520 481
