o [4B] 3D Diagram - S2-03 Group D_65
v -2.611735 7.739063 -9.725000
v -2.611735 7.784375 -9.725000
v -2.611735 7.784375 -9.050000
v -2.611735 7.739063 -9.050000
v -2.108928 7.739063 -9.725000
v -2.108928 7.739063 -9.050000
v -2.108928 7.784375 -9.725000
v -2.611735 7.784375 -8.375000
v -2.611735 7.739063 -8.375000
v -2.108928 7.739063 -8.375000
v -2.611735 7.784375 -7.700000
v -2.611735 7.739063 -7.700000
v -2.108928 7.739063 -7.700000
v -2.611735 7.784375 -7.025000
v -2.611735 7.739063 -7.025000
v -2.108928 7.739063 -7.025000
v -2.611735 7.784375 -6.350000
v -2.611735 7.739063 -6.350000
v -2.108928 7.739063 -6.350000
v -2.611735 7.784375 -5.675000
v -2.611735 7.739063 -5.675000
v -2.108928 7.739063 -5.675000
v -2.611735 7.784375 -5.000000
v -2.611735 7.739063 -5.000000
v -2.108928 7.739063 -5.000000
v -2.611735 7.784375 -4.325000
v -2.611735 7.739063 -4.325000
v -2.108928 7.739063 -4.325000
v -2.611735 7.784375 -3.650000
v -2.611735 7.739063 -3.650000
v -2.108928 7.739063 -3.650000
v -2.611735 7.784375 -2.975000
v -2.611735 7.739063 -2.975000
v -2.108928 7.739063 -2.975000
v -2.611735 7.784375 -2.300000
v -2.611735 7.739063 -2.300000
v -2.108928 7.739063 -2.300000
v -2.611735 7.784375 -1.625000
v -2.611735 7.739063 -1.625000
v -2.108928 7.739063 -1.625000
v -2.611735 7.784375 -0.950000
v -2.611735 7.739063 -0.950000
v -2.108928 7.739063 -0.950000
v -2.611735 7.784375 -0.275000
v -2.611735 7.739063 -0.275000
v -2.108928 7.739063 -0.275000
v -2.108928 7.784375 -0.275000
v -2.611735 7.829688 -9.725000
v -2.611735 7.829688 -9.050000
v -2.108928 7.829688 -9.725000
v -2.611735 7.829688 -8.375000
v -2.611735 7.829688 -7.700000
v -2.611735 7.829688 -7.025000
v -2.611735 7.829688 -6.350000
v -2.611735 7.829688 -5.675000
v -2.611735 7.829688 -5.000000
v -2.611735 7.829688 -4.325000
v -2.611735 7.829688 -3.650000
v -2.611735 7.829688 -2.975000
v -2.611735 7.829688 -2.300000
v -2.611735 7.829688 -1.625000
v -2.611735 7.829688 -0.950000
v -2.611735 7.829688 -0.275000
v -2.108928 7.829688 -0.275000
v -2.611735 7.875000 -9.725000
v -2.611735 7.875000 -9.050000
v -2.108928 7.875000 -9.725000
v -2.611735 7.875000 -8.375000
v -2.611735 7.875000 -7.700000
v -2.611735 7.875000 -7.025000
v -2.611735 7.875000 -6.350000
v -2.611735 7.875000 -5.675000
v -2.611735 7.875000 -5.000000
v -2.611735 7.875000 -4.325000
v -2.611735 7.875000 -3.650000
v -2.611735 7.875000 -2.975000
v -2.611735 7.875000 -2.300000
v -2.611735 7.875000 -1.625000
v -2.611735 7.875000 -0.950000
v -2.611735 7.875000 -0.275000
v -2.108928 7.875000 -0.275000
v -2.611735 7.920313 -9.725000
v -2.611735 7.920313 -9.050000
v -2.108928 7.920313 -9.725000
v -2.611735 7.920313 -8.375000
v -2.611735 7.920313 -7.700000
v -2.611735 7.920313 -7.025000
v -2.611735 7.920313 -6.350000
v -2.611735 7.920313 -5.675000
v -2.611735 7.920313 -5.000000
v -2.611735 7.920313 -4.325000
v -2.611735 7.920313 -3.650000
v -2.611735 7.920313 -2.975000
v -2.611735 7.920313 -2.300000
v -2.611735 7.920313 -1.625000
v -2.611735 7.920313 -0.950000
v -2.611735 7.920313 -0.275000
v -2.108928 7.920313 -0.275000
v -2.611735 7.965625 -9.725000
v -2.611735 7.965625 -9.050000
v -2.108928 7.965625 -9.725000
v -2.611735 7.965625 -8.375000
v -2.611735 7.965625 -7.700000
v -2.611735 7.965625 -7.025000
v -2.611735 7.965625 -6.350000
v -2.611735 7.965625 -5.675000
v -2.611735 7.965625 -5.000000
v -2.611735 7.965625 -4.325000
v -2.611735 7.965625 -3.650000
v -2.611735 7.965625 -2.975000
v -2.611735 7.965625 -2.300000
v -2.611735 7.965625 -1.625000
v -2.611735 7.965625 -0.950000
v -2.611735 7.965625 -0.275000
v -2.108928 7.965625 -0.275000
v -2.611735 8.010938 -9.725000
v -2.611735 8.010938 -9.050000
v -2.108928 8.010938 -9.050000
v -2.108928 8.010938 -9.725000
v -2.611735 8.010938 -8.375000
v -2.108928 8.010938 -8.375000
v -2.611735 8.010938 -7.700000
v -2.108928 8.010938 -7.700000
v -2.611735 8.010938 -7.025000
v -2.108928 8.010938 -7.025000
v -2.611735 8.010938 -6.350000
v -2.108928 8.010938 -6.350000
v -2.611735 8.010938 -5.675000
v -2.108928 8.010938 -5.675000
v -2.611735 8.010938 -5.000000
v -2.108928 8.010938 -5.000000
v -2.611735 8.010938 -4.325000
v -2.108928 8.010938 -4.325000
v -2.611735 8.010938 -3.650000
v -2.108928 8.010938 -3.650000
v -2.611735 8.010938 -2.975000
v -2.108928 8.010938 -2.975000
v -2.611735 8.010938 -2.300000
v -2.108928 8.010938 -2.300000
v -2.611735 8.010938 -1.625000
v -2.108928 8.010938 -1.625000
v -2.611735 8.010938 -0.950000
v -2.108928 8.010938 -0.950000
v -2.611735 8.010938 -0.275000
v -2.108928 8.010938 -0.275000
v -1.606121 7.739063 -9.725000
v -1.606121 7.739063 -9.050000
v -1.606121 7.784375 -9.725000
v -1.606121 7.739063 -8.375000
v -1.606121 7.739063 -7.700000
v -1.606121 7.739063 -7.025000
v -1.606121 7.739063 -6.350000
v -1.606121 7.739063 -5.675000
v -1.606121 7.739063 -5.000000
v -1.606121 7.739063 -4.325000
v -1.606121 7.739063 -3.650000
v -1.606121 7.739063 -2.975000
v -1.606121 7.739063 -2.300000
v -1.606121 7.739063 -1.625000
v -1.606121 7.739063 -0.950000
v -1.606121 7.739063 -0.275000
v -1.606121 7.784375 -0.275000
v -1.606121 7.829688 -9.725000
v -1.606121 7.829688 -0.275000
v -1.606121 7.875000 -9.725000
v -1.606121 7.875000 -0.275000
v -1.606121 7.920313 -9.725000
v -1.606121 7.920313 -0.275000
v -1.606121 7.965625 -9.725000
v -1.606121 7.965625 -0.275000
v -1.606121 8.010938 -9.050000
v -1.606121 8.010938 -9.725000
v -1.606121 8.010938 -8.375000
v -1.606121 8.010938 -7.700000
v -1.606121 8.010938 -7.025000
v -1.606121 8.010938 -6.350000
v -1.606121 8.010938 -5.675000
v -1.606121 8.010938 -5.000000
v -1.606121 8.010938 -4.325000
v -1.606121 8.010938 -3.650000
v -1.606121 8.010938 -2.975000
v -1.606121 8.010938 -2.300000
v -1.606121 8.010938 -1.625000
v -1.606121 8.010938 -0.950000
v -1.606121 8.010938 -0.275000
v -1.103314 7.739063 -9.725000
v -1.103314 7.739063 -9.050000
v -1.103314 7.784375 -9.725000
v -1.103314 7.739063 -8.375000
v -1.103314 7.739063 -7.700000
v -1.103314 7.739063 -7.025000
v -1.103314 7.739063 -6.350000
v -1.103314 7.739063 -5.675000
v -1.103314 7.739063 -5.000000
v -1.103314 7.739063 -4.325000
v -1.103314 7.739063 -3.650000
v -1.103314 7.739063 -2.975000
v -1.103314 7.739063 -2.300000
v -1.103314 7.739063 -1.625000
v -1.103314 7.739063 -0.950000
v -1.103314 7.739063 -0.275000
v -1.103314 7.784375 -0.275000
v -1.103314 7.829688 -9.725000
v -1.103314 7.829688 -0.275000
v -1.103314 7.875000 -9.725000
v -1.103314 7.875000 -0.275000
v -1.103314 7.920313 -9.725000
v -1.103314 7.920313 -0.275000
v -1.103314 7.965625 -9.725000
v -1.103314 7.965625 -0.275000
v -1.103314 8.010938 -9.050000
v -1.103314 8.010938 -9.725000
v -1.103314 8.010938 -8.375000
v -1.103314 8.010938 -7.700000
v -1.103314 8.010938 -7.025000
v -1.103314 8.010938 -6.350000
v -1.103314 8.010938 -5.675000
v -1.103314 8.010938 -5.000000
v -1.103314 8.010938 -4.325000
v -1.103314 8.010938 -3.650000
v -1.103314 8.010938 -2.975000
v -1.103314 8.010938 -2.300000
v -1.103314 8.010938 -1.625000
v -1.103314 8.010938 -0.950000
v -1.103314 8.010938 -0.275000
v -0.600506 7.739063 -9.725000
v -0.600506 7.739063 -9.050000
v -0.600506 7.784375 -9.725000
v -0.600506 7.739063 -8.375000
v -0.600506 7.739063 -7.700000
v -0.600506 7.739063 -7.025000
v -0.600506 7.739063 -6.350000
v -0.600506 7.739063 -5.675000
v -0.600506 7.739063 -5.000000
v -0.600506 7.739063 -4.325000
v -0.600506 7.739063 -3.650000
v -0.600506 7.739063 -2.975000
v -0.600506 7.739063 -2.300000
v -0.600506 7.739063 -1.625000
v -0.600506 7.739063 -0.950000
v -0.600506 7.739063 -0.275000
v -0.600506 7.784375 -0.275000
v -0.600506 7.829688 -9.725000
v -0.600506 7.829688 -0.275000
v -0.600506 7.875000 -9.725000
v -0.600506 7.875000 -0.275000
v -0.600506 7.920313 -9.725000
v -0.600506 7.920313 -0.275000
v -0.600506 7.965625 -9.725000
v -0.600506 7.965625 -0.275000
v -0.600506 8.010938 -9.050000
v -0.600506 8.010938 -9.725000
v -0.600506 8.010938 -8.375000
v -0.600506 8.010938 -7.700000
v -0.600506 8.010938 -7.025000
v -0.600506 8.010938 -6.350000
v -0.600506 8.010938 -5.675000
v -0.600506 8.010938 -5.000000
v -0.600506 8.010938 -4.325000
v -0.600506 8.010938 -3.650000
v -0.600506 8.010938 -2.975000
v -0.600506 8.010938 -2.300000
v -0.600506 8.010938 -1.625000
v -0.600506 8.010938 -0.950000
v -0.600506 8.010938 -0.275000
v -0.097699 7.739063 -9.725000
v -0.097699 7.739063 -9.050000
v -0.097699 7.784375 -9.725000
v -0.097699 7.739063 -8.375000
v -0.097699 7.739063 -7.700000
v -0.097699 7.739063 -7.025000
v -0.097699 7.739063 -6.350000
v -0.097699 7.739063 -5.675000
v -0.097699 7.739063 -5.000000
v -0.097699 7.739063 -4.325000
v -0.097699 7.739063 -3.650000
v -0.097699 7.739063 -2.975000
v -0.097699 7.739063 -2.300000
v -0.097699 7.739063 -1.625000
v -0.097699 7.739063 -0.950000
v -0.097699 7.739063 -0.275000
v -0.097699 7.784375 -0.275000
v -0.097699 7.829688 -9.725000
v -0.097699 7.829688 -0.275000
v -0.097699 7.875000 -9.725000
v -0.097699 7.875000 -0.275000
v -0.097699 7.920313 -9.725000
v -0.097699 7.920313 -0.275000
v -0.097699 7.965625 -9.725000
v -0.097699 7.965625 -0.275000
v -0.097699 8.010938 -9.050000
v -0.097699 8.010938 -9.725000
v -0.097699 8.010938 -8.375000
v -0.097699 8.010938 -7.700000
v -0.097699 8.010938 -7.025000
v -0.097699 8.010938 -6.350000
v -0.097699 8.010938 -5.675000
v -0.097699 8.010938 -5.000000
v -0.097699 8.010938 -4.325000
v -0.097699 8.010938 -3.650000
v -0.097699 8.010938 -2.975000
v -0.097699 8.010938 -2.300000
v -0.097699 8.010938 -1.625000
v -0.097699 8.010938 -0.950000
v -0.097699 8.010938 -0.275000
v 0.405108 7.739063 -9.725000
v 0.405108 7.739063 -9.050000
v 0.405108 7.784375 -9.725000
v 0.405108 7.739063 -8.375000
v 0.405108 7.739063 -7.700000
v 0.405108 7.739063 -7.025000
v 0.405108 7.739063 -6.350000
v 0.405108 7.739063 -5.675000
v 0.405108 7.739063 -5.000000
v 0.405108 7.739063 -4.325000
v 0.405108 7.739063 -3.650000
v 0.405108 7.739063 -2.975000
v 0.405108 7.739063 -2.300000
v 0.405108 7.739063 -1.625000
v 0.405108 7.739063 -0.950000
v 0.405108 7.739063 -0.275000
v 0.405108 7.784375 -0.275000
v 0.405108 7.829688 -9.725000
v 0.405108 7.829688 -0.275000
v 0.405108 7.875000 -9.725000
v 0.405108 7.875000 -0.275000
v 0.405108 7.920313 -9.725000
v 0.405108 7.920313 -0.275000
v 0.405108 7.965625 -9.725000
v 0.405108 7.965625 -0.275000
v 0.405108 8.010938 -9.050000
v 0.405108 8.010938 -9.725000
v 0.405108 8.010938 -8.375000
v 0.405108 8.010938 -7.700000
v 0.405108 8.010938 -7.025000
v 0.405108 8.010938 -6.350000
v 0.405108 8.010938 -5.675000
v 0.405108 8.010938 -5.000000
v 0.405108 8.010938 -4.325000
v 0.405108 8.010938 -3.650000
v 0.405108 8.010938 -2.975000
v 0.405108 8.010938 -2.300000
v 0.405108 8.010938 -1.625000
v 0.405108 8.010938 -0.950000
v 0.405108 8.010938 -0.275000
v 0.907915 7.739063 -9.725000
v 0.907915 7.739063 -9.050000
v 0.907915 7.784375 -9.725000
v 0.907915 7.739063 -8.375000
v 0.907915 7.739063 -7.700000
v 0.907915 7.739063 -7.025000
v 0.907915 7.739063 -6.350000
v 0.907915 7.739063 -5.675000
v 0.907915 7.739063 -5.000000
v 0.907915 7.739063 -4.325000
v 0.907915 7.739063 -3.650000
v 0.907915 7.739063 -2.975000
v 0.907915 7.739063 -2.300000
v 0.907915 7.739063 -1.625000
v 0.907915 7.739063 -0.950000
v 0.907915 7.739063 -0.275000
v 0.907915 7.784375 -0.275000
v 0.907915 7.829688 -9.725000
v 0.907915 7.829688 -0.275000
v 0.907915 7.875000 -9.725000
v 0.907915 7.875000 -0.275000
v 0.907915 7.920313 -9.725000
v 0.907915 7.920313 -0.275000
v 0.907915 7.965625 -9.725000
v 0.907915 7.965625 -0.275000
v 0.907915 8.010938 -9.050000
v 0.907915 8.010938 -9.725000
v 0.907915 8.010938 -8.375000
v 0.907915 8.010938 -7.700000
v 0.907915 8.010938 -7.025000
v 0.907915 8.010938 -6.350000
v 0.907915 8.010938 -5.675000
v 0.907915 8.010938 -5.000000
v 0.907915 8.010938 -4.325000
v 0.907915 8.010938 -3.650000
v 0.907915 8.010938 -2.975000
v 0.907915 8.010938 -2.300000
v 0.907915 8.010938 -1.625000
v 0.907915 8.010938 -0.950000
v 0.907915 8.010938 -0.275000
v 1.410722 7.739063 -9.725000
v 1.410722 7.739063 -9.050000
v 1.410722 7.784375 -9.725000
v 1.410722 7.739063 -8.375000
v 1.410722 7.739063 -7.700000
v 1.410722 7.739063 -7.025000
v 1.410722 7.739063 -6.350000
v 1.410722 7.739063 -5.675000
v 1.410722 7.739063 -5.000000
v 1.410722 7.739063 -4.325000
v 1.410722 7.739063 -3.650000
v 1.410722 7.739063 -2.975000
v 1.410722 7.739063 -2.300000
v 1.410722 7.739063 -1.625000
v 1.410722 7.739063 -0.950000
v 1.410722 7.739063 -0.275000
v 1.410722 7.784375 -0.275000
v 1.410722 7.829688 -9.725000
v 1.410722 7.829688 -0.275000
v 1.410722 7.875000 -9.725000
v 1.410722 7.875000 -0.275000
v 1.410722 7.920313 -9.725000
v 1.410722 7.920313 -0.275000
v 1.410722 7.965625 -9.725000
v 1.410722 7.965625 -0.275000
v 1.410722 8.010938 -9.050000
v 1.410722 8.010938 -9.725000
v 1.410722 8.010938 -8.375000
v 1.410722 8.010938 -7.700000
v 1.410722 8.010938 -7.025000
v 1.410722 8.010938 -6.350000
v 1.410722 8.010938 -5.675000
v 1.410722 8.010938 -5.000000
v 1.410722 8.010938 -4.325000
v 1.410722 8.010938 -3.650000
v 1.410722 8.010938 -2.975000
v 1.410722 8.010938 -2.300000
v 1.410722 8.010938 -1.625000
v 1.410722 8.010938 -0.950000
v 1.410722 8.010938 -0.275000
v 1.913529 7.739063 -9.725000
v 1.913529 7.739063 -9.050000
v 1.913529 7.784375 -9.725000
v 1.913529 7.739063 -8.375000
v 1.913529 7.739063 -7.700000
v 1.913529 7.739063 -7.025000
v 1.913529 7.739063 -6.350000
v 1.913529 7.739063 -5.675000
v 1.913529 7.739063 -5.000000
v 1.913529 7.739063 -4.325000
v 1.913529 7.739063 -3.650000
v 1.913529 7.739063 -2.975000
v 1.913529 7.739063 -2.300000
v 1.913529 7.739063 -1.625000
v 1.913529 7.739063 -0.950000
v 1.913529 7.739063 -0.275000
v 1.913529 7.784375 -0.275000
v 1.913529 7.829688 -9.725000
v 1.913529 7.829688 -0.275000
v 1.913529 7.875000 -9.725000
v 1.913529 7.875000 -0.275000
v 1.913529 7.920313 -9.725000
v 1.913529 7.920313 -0.275000
v 1.913529 7.965625 -9.725000
v 1.913529 7.965625 -0.275000
v 1.913529 8.010938 -9.050000
v 1.913529 8.010938 -9.725000
v 1.913529 8.010938 -8.375000
v 1.913529 8.010938 -7.700000
v 1.913529 8.010938 -7.025000
v 1.913529 8.010938 -6.350000
v 1.913529 8.010938 -5.675000
v 1.913529 8.010938 -5.000000
v 1.913529 8.010938 -4.325000
v 1.913529 8.010938 -3.650000
v 1.913529 8.010938 -2.975000
v 1.913529 8.010938 -2.300000
v 1.913529 8.010938 -1.625000
v 1.913529 8.010938 -0.950000
v 1.913529 8.010938 -0.275000
v 2.416336 7.739063 -9.725000
v 2.416336 7.739063 -9.050000
v 2.416336 7.784375 -9.725000
v 2.416336 7.739063 -8.375000
v 2.416336 7.739063 -7.700000
v 2.416336 7.739063 -7.025000
v 2.416336 7.739063 -6.350000
v 2.416336 7.739063 -5.675000
v 2.416336 7.739063 -5.000000
v 2.416336 7.739063 -4.325000
v 2.416336 7.739063 -3.650000
v 2.416336 7.739063 -2.975000
v 2.416336 7.739063 -2.300000
v 2.416336 7.739063 -1.625000
v 2.416336 7.739063 -0.950000
v 2.416336 7.739063 -0.275000
v 2.416336 7.784375 -0.275000
v 2.416336 7.829688 -9.725000
v 2.416336 7.829688 -0.275000
v 2.416336 7.875000 -9.725000
v 2.416336 7.875000 -0.275000
v 2.416336 7.920313 -9.725000
v 2.416336 7.920313 -0.275000
v 2.416336 7.965625 -9.725000
v 2.416336 7.965625 -0.275000
v 2.416336 8.010938 -9.050000
v 2.416336 8.010938 -9.725000
v 2.416336 8.010938 -8.375000
v 2.416336 8.010938 -7.700000
v 2.416336 8.010938 -7.025000
v 2.416336 8.010938 -6.350000
v 2.416336 8.010938 -5.675000
v 2.416336 8.010938 -5.000000
v 2.416336 8.010938 -4.325000
v 2.416336 8.010938 -3.650000
v 2.416336 8.010938 -2.975000
v 2.416336 8.010938 -2.300000
v 2.416336 8.010938 -1.625000
v 2.416336 8.010938 -0.950000
v 2.416336 8.010938 -0.275000
v 2.919143 7.739063 -9.725000
v 2.919143 7.739063 -9.050000
v 2.919143 7.784375 -9.725000
v 2.919143 7.739063 -8.375000
v 2.919143 7.739063 -7.700000
v 2.919143 7.739063 -7.025000
v 2.919143 7.739063 -6.350000
v 2.919143 7.739063 -5.675000
v 2.919143 7.739063 -5.000000
v 2.919143 7.739063 -4.325000
v 2.919143 7.739063 -3.650000
v 2.919143 7.739063 -2.975000
v 2.919143 7.739063 -2.300000
v 2.919143 7.739063 -1.625000
v 2.919143 7.739063 -0.950000
v 2.919143 7.739063 -0.275000
v 2.919143 7.784375 -0.275000
v 2.919143 7.829688 -9.725000
v 2.919143 7.829688 -0.275000
v 2.919143 7.875000 -9.725000
v 2.919143 7.875000 -0.275000
v 2.919143 7.920313 -9.725000
v 2.919143 7.920313 -0.275000
v 2.919143 7.965625 -9.725000
v 2.919143 7.965625 -0.275000
v 2.919143 8.010938 -9.050000
v 2.919143 8.010938 -9.725000
v 2.919143 8.010938 -8.375000
v 2.919143 8.010938 -7.700000
v 2.919143 8.010938 -7.025000
v 2.919143 8.010938 -6.350000
v 2.919143 8.010938 -5.675000
v 2.919143 8.010938 -5.000000
v 2.919143 8.010938 -4.325000
v 2.919143 8.010938 -3.650000
v 2.919143 8.010938 -2.975000
v 2.919143 8.010938 -2.300000
v 2.919143 8.010938 -1.625000
v 2.919143 8.010938 -0.950000
v 2.919143 8.010938 -0.275000
v 3.421950 7.739063 -9.725000
v 3.421950 7.739063 -9.050000
v 3.421950 7.784375 -9.725000
v 3.421950 7.739063 -8.375000
v 3.421950 7.739063 -7.700000
v 3.421950 7.739063 -7.025000
v 3.421950 7.739063 -6.350000
v 3.421950 7.739063 -5.675000
v 3.421950 7.739063 -5.000000
v 3.421950 7.739063 -4.325000
v 3.421950 7.739063 -3.650000
v 3.421950 7.739063 -2.975000
v 3.421950 7.739063 -2.300000
v 3.421950 7.739063 -1.625000
v 3.421950 7.739063 -0.950000
v 3.421950 7.739063 -0.275000
v 3.421950 7.784375 -0.275000
v 3.421950 7.829688 -9.725000
v 3.421950 7.829688 -0.275000
v 3.421950 7.875000 -9.725000
v 3.421950 7.875000 -0.275000
v 3.421950 7.920313 -9.725000
v 3.421950 7.920313 -0.275000
v 3.421950 7.965625 -9.725000
v 3.421950 7.965625 -0.275000
v 3.421950 8.010938 -9.050000
v 3.421950 8.010938 -9.725000
v 3.421950 8.010938 -8.375000
v 3.421950 8.010938 -7.700000
v 3.421950 8.010938 -7.025000
v 3.421950 8.010938 -6.350000
v 3.421950 8.010938 -5.675000
v 3.421950 8.010938 -5.000000
v 3.421950 8.010938 -4.325000
v 3.421950 8.010938 -3.650000
v 3.421950 8.010938 -2.975000
v 3.421950 8.010938 -2.300000
v 3.421950 8.010938 -1.625000
v 3.421950 8.010938 -0.950000
v 3.421950 8.010938 -0.275000
v 3.924757 7.739063 -9.725000
v 3.924757 7.739063 -9.050000
v 3.924757 7.784375 -9.725000
v 3.924757 7.739063 -8.375000
v 3.924757 7.739063 -7.700000
v 3.924757 7.739063 -7.025000
v 3.924757 7.739063 -6.350000
v 3.924757 7.739063 -5.675000
v 3.924757 7.739063 -5.000000
v 3.924757 7.739063 -4.325000
v 3.924757 7.739063 -3.650000
v 3.924757 7.739063 -2.975000
v 3.924757 7.739063 -2.300000
v 3.924757 7.739063 -1.625000
v 3.924757 7.739063 -0.950000
v 3.924757 7.739063 -0.275000
v 3.924757 7.784375 -0.275000
v 3.924757 7.829688 -9.725000
v 3.924757 7.829688 -0.275000
v 3.924757 7.875000 -9.725000
v 3.924757 7.875000 -0.275000
v 3.924757 7.920313 -9.725000
v 3.924757 7.920313 -0.275000
v 3.924757 7.965625 -9.725000
v 3.924757 7.965625 -0.275000
v 3.924757 8.010938 -9.050000
v 3.924757 8.010938 -9.725000
v 3.924757 8.010938 -8.375000
v 3.924757 8.010938 -7.700000
v 3.924757 8.010938 -7.025000
v 3.924757 8.010938 -6.350000
v 3.924757 8.010938 -5.675000
v 3.924757 8.010938 -5.000000
v 3.924757 8.010938 -4.325000
v 3.924757 8.010938 -3.650000
v 3.924757 8.010938 -2.975000
v 3.924757 8.010938 -2.300000
v 3.924757 8.010938 -1.625000
v 3.924757 8.010938 -0.950000
v 3.924757 8.010938 -0.275000
v 4.427565 7.739063 -9.725000
v 4.427565 7.739063 -9.050000
v 4.427565 7.784375 -9.725000
v 4.427565 7.739063 -8.375000
v 4.427565 7.739063 -7.700000
v 4.427565 7.739063 -7.025000
v 4.427565 7.739063 -6.350000
v 4.427565 7.739063 -5.675000
v 4.427565 7.739063 -5.000000
v 4.427565 7.739063 -4.325000
v 4.427565 7.739063 -3.650000
v 4.427565 7.739063 -2.975000
v 4.427565 7.739063 -2.300000
v 4.427565 7.739063 -1.625000
v 4.427565 7.739063 -0.950000
v 4.427565 7.739063 -0.275000
v 4.427565 7.784375 -0.275000
v 4.427565 7.829688 -9.725000
v 4.427565 7.829688 -0.275000
v 4.427565 7.875000 -9.725000
v 4.427565 7.875000 -0.275000
v 4.427565 7.920313 -9.725000
v 4.427565 7.920313 -0.275000
v 4.427565 7.965625 -9.725000
v 4.427565 7.965625 -0.275000
v 4.427565 8.010938 -9.050000
v 4.427565 8.010938 -9.725000
v 4.427565 8.010938 -8.375000
v 4.427565 8.010938 -7.700000
v 4.427565 8.010938 -7.025000
v 4.427565 8.010938 -6.350000
v 4.427565 8.010938 -5.675000
v 4.427565 8.010938 -5.000000
v 4.427565 8.010938 -4.325000
v 4.427565 8.010938 -3.650000
v 4.427565 8.010938 -2.975000
v 4.427565 8.010938 -2.300000
v 4.427565 8.010938 -1.625000
v 4.427565 8.010938 -0.950000
v 4.427565 8.010938 -0.275000
v 4.930372 7.739063 -9.725000
v 4.930372 7.739063 -9.050000
v 4.930372 7.784375 -9.725000
v 4.930372 7.739063 -8.375000
v 4.930372 7.739063 -7.700000
v 4.930372 7.739063 -7.025000
v 4.930372 7.739063 -6.350000
v 4.930372 7.739063 -5.675000
v 4.930372 7.739063 -5.000000
v 4.930372 7.739063 -4.325000
v 4.930372 7.739063 -3.650000
v 4.930372 7.739063 -2.975000
v 4.930372 7.739063 -2.300000
v 4.930372 7.739063 -1.625000
v 4.930372 7.739063 -0.950000
v 4.930372 7.739063 -0.275000
v 4.930372 7.784375 -0.275000
v 4.930372 7.829688 -9.725000
v 4.930372 7.829688 -0.275000
v 4.930372 7.875000 -9.725000
v 4.930372 7.875000 -0.275000
v 4.930372 7.920313 -9.725000
v 4.930372 7.920313 -0.275000
v 4.930372 7.965625 -9.725000
v 4.930372 7.965625 -0.275000
v 4.930372 8.010938 -9.050000
v 4.930372 8.010938 -9.725000
v 4.930372 8.010938 -8.375000
v 4.930372 8.010938 -7.700000
v 4.930372 8.010938 -7.025000
v 4.930372 8.010938 -6.350000
v 4.930372 8.010938 -5.675000
v 4.930372 8.010938 -5.000000
v 4.930372 8.010938 -4.325000
v 4.930372 8.010938 -3.650000
v 4.930372 8.010938 -2.975000
v 4.930372 8.010938 -2.300000
v 4.930372 8.010938 -1.625000
v 4.930372 8.010938 -0.950000
v 4.930372 8.010938 -0.275000
v 5.433179 7.739063 -9.725000
v 5.433179 7.739063 -9.050000
v 5.433179 7.784375 -9.050000
v 5.433179 7.784375 -9.725000
v 5.433179 7.739063 -8.375000
v 5.433179 7.784375 -8.375000
v 5.433179 7.739063 -7.700000
v 5.433179 7.784375 -7.700000
v 5.433179 7.739063 -7.025000
v 5.433179 7.784375 -7.025000
v 5.433179 7.739063 -6.350000
v 5.433179 7.784375 -6.350000
v 5.433179 7.739063 -5.675000
v 5.433179 7.784375 -5.675000
v 5.433179 7.739063 -5.000000
v 5.433179 7.784375 -5.000000
v 5.433179 7.739063 -4.325000
v 5.433179 7.784375 -4.325000
v 5.433179 7.739063 -3.650000
v 5.433179 7.784375 -3.650000
v 5.433179 7.739063 -2.975000
v 5.433179 7.784375 -2.975000
v 5.433179 7.739063 -2.300000
v 5.433179 7.784375 -2.300000
v 5.433179 7.739063 -1.625000
v 5.433179 7.784375 -1.625000
v 5.433179 7.739063 -0.950000
v 5.433179 7.784375 -0.950000
v 5.433179 7.739063 -0.275000
v 5.433179 7.784375 -0.275000
v 5.433179 7.829688 -9.050000
v 5.433179 7.829688 -9.725000
v 5.433179 7.829688 -8.375000
v 5.433179 7.829688 -7.700000
v 5.433179 7.829688 -7.025000
v 5.433179 7.829688 -6.350000
v 5.433179 7.829688 -5.675000
v 5.433179 7.829688 -5.000000
v 5.433179 7.829688 -4.325000
v 5.433179 7.829688 -3.650000
v 5.433179 7.829688 -2.975000
v 5.433179 7.829688 -2.300000
v 5.433179 7.829688 -1.625000
v 5.433179 7.829688 -0.950000
v 5.433179 7.829688 -0.275000
v 5.433179 7.875000 -9.050000
v 5.433179 7.875000 -9.725000
v 5.433179 7.875000 -8.375000
v 5.433179 7.875000 -7.700000
v 5.433179 7.875000 -7.025000
v 5.433179 7.875000 -6.350000
v 5.433179 7.875000 -5.675000
v 5.433179 7.875000 -5.000000
v 5.433179 7.875000 -4.325000
v 5.433179 7.875000 -3.650000
v 5.433179 7.875000 -2.975000
v 5.433179 7.875000 -2.300000
v 5.433179 7.875000 -1.625000
v 5.433179 7.875000 -0.950000
v 5.433179 7.875000 -0.275000
v 5.433179 7.920313 -9.050000
v 5.433179 7.920313 -9.725000
v 5.433179 7.920313 -8.375000
v 5.433179 7.920313 -7.700000
v 5.433179 7.920313 -7.025000
v 5.433179 7.920313 -6.350000
v 5.433179 7.920313 -5.675000
v 5.433179 7.920313 -5.000000
v 5.433179 7.920313 -4.325000
v 5.433179 7.920313 -3.650000
v 5.433179 7.920313 -2.975000
v 5.433179 7.920313 -2.300000
v 5.433179 7.920313 -1.625000
v 5.433179 7.920313 -0.950000
v 5.433179 7.920313 -0.275000
v 5.433179 7.965625 -9.050000
v 5.433179 7.965625 -9.725000
v 5.433179 7.965625 -8.375000
v 5.433179 7.965625 -7.700000
v 5.433179 7.965625 -7.025000
v 5.433179 7.965625 -6.350000
v 5.433179 7.965625 -5.675000
v 5.433179 7.965625 -5.000000
v 5.433179 7.965625 -4.325000
v 5.433179 7.965625 -3.650000
v 5.433179 7.965625 -2.975000
v 5.433179 7.965625 -2.300000
v 5.433179 7.965625 -1.625000
v 5.433179 7.965625 -0.950000
v 5.433179 7.965625 -0.275000
v 5.433179 8.010938 -9.050000
v 5.433179 8.010938 -9.725000
v 5.433179 8.010938 -8.375000
v 5.433179 8.010938 -7.700000
v 5.433179 8.010938 -7.025000
v 5.433179 8.010938 -6.350000
v 5.433179 8.010938 -5.675000
v 5.433179 8.010938 -5.000000
v 5.433179 8.010938 -4.325000
v 5.433179 8.010938 -3.650000
v 5.433179 8.010938 -2.975000
v 5.433179 8.010938 -2.300000
v 5.433179 8.010938 -1.625000
v 5.433179 8.010938 -0.950000
v 5.433179 8.010938 -0.275000
f 1 2 3
f 1 3 4
f 1 5 6
f 1 6 4
f 1 2 7
f 1 7 5
f 4 3 8
f 4 8 9
f 4 6 10
f 4 10 9
f 9 8 11
f 9 11 12
f 9 10 13
f 9 13 12
f 12 11 14
f 12 14 15
f 12 13 16
f 12 16 15
f 15 14 17
f 15 17 18
f 15 16 19
f 15 19 18
f 18 17 20
f 18 20 21
f 18 19 22
f 18 22 21
f 21 20 23
f 21 23 24
f 21 22 25
f 21 25 24
f 24 23 26
f 24 26 27
f 24 25 28
f 24 28 27
f 27 26 29
f 27 29 30
f 27 28 31
f 27 31 30
f 30 29 32
f 30 32 33
f 30 31 34
f 30 34 33
f 33 32 35
f 33 35 36
f 33 34 37
f 33 37 36
f 36 35 38
f 36 38 39
f 36 37 40
f 36 40 39
f 39 38 41
f 39 41 42
f 39 40 43
f 39 43 42
f 42 41 44
f 42 44 45
f 42 43 46
f 42 46 45
f 45 46 47
f 45 47 44
f 2 48 49
f 2 49 3
f 2 48 50
f 2 50 7
f 3 49 51
f 3 51 8
f 8 51 52
f 8 52 11
f 11 52 53
f 11 53 14
f 14 53 54
f 14 54 17
f 17 54 55
f 17 55 20
f 20 55 56
f 20 56 23
f 23 56 57
f 23 57 26
f 26 57 58
f 26 58 29
f 29 58 59
f 29 59 32
f 32 59 60
f 32 60 35
f 35 60 61
f 35 61 38
f 38 61 62
f 38 62 41
f 41 62 63
f 41 63 44
f 44 47 64
f 44 64 63
f 48 65 66
f 48 66 49
f 48 65 67
f 48 67 50
f 49 66 68
f 49 68 51
f 51 68 69
f 51 69 52
f 52 69 70
f 52 70 53
f 53 70 71
f 53 71 54
f 54 71 72
f 54 72 55
f 55 72 73
f 55 73 56
f 56 73 74
f 56 74 57
f 57 74 75
f 57 75 58
f 58 75 76
f 58 76 59
f 59 76 77
f 59 77 60
f 60 77 78
f 60 78 61
f 61 78 79
f 61 79 62
f 62 79 80
f 62 80 63
f 63 64 81
f 63 81 80
f 65 82 83
f 65 83 66
f 65 82 84
f 65 84 67
f 66 83 85
f 66 85 68
f 68 85 86
f 68 86 69
f 69 86 87
f 69 87 70
f 70 87 88
f 70 88 71
f 71 88 89
f 71 89 72
f 72 89 90
f 72 90 73
f 73 90 91
f 73 91 74
f 74 91 92
f 74 92 75
f 75 92 93
f 75 93 76
f 76 93 94
f 76 94 77
f 77 94 95
f 77 95 78
f 78 95 96
f 78 96 79
f 79 96 97
f 79 97 80
f 80 81 98
f 80 98 97
f 82 99 100
f 82 100 83
f 82 99 101
f 82 101 84
f 83 100 102
f 83 102 85
f 85 102 103
f 85 103 86
f 86 103 104
f 86 104 87
f 87 104 105
f 87 105 88
f 88 105 106
f 88 106 89
f 89 106 107
f 89 107 90
f 90 107 108
f 90 108 91
f 91 108 109
f 91 109 92
f 92 109 110
f 92 110 93
f 93 110 111
f 93 111 94
f 94 111 112
f 94 112 95
f 95 112 113
f 95 113 96
f 96 113 114
f 96 114 97
f 97 98 115
f 97 115 114
f 99 116 117
f 99 117 100
f 116 117 118
f 116 118 119
f 99 116 119
f 99 119 101
f 100 117 120
f 100 120 102
f 117 120 121
f 117 121 118
f 102 120 122
f 102 122 103
f 120 122 123
f 120 123 121
f 103 122 124
f 103 124 104
f 122 124 125
f 122 125 123
f 104 124 126
f 104 126 105
f 124 126 127
f 124 127 125
f 105 126 128
f 105 128 106
f 126 128 129
f 126 129 127
f 106 128 130
f 106 130 107
f 128 130 131
f 128 131 129
f 107 130 132
f 107 132 108
f 130 132 133
f 130 133 131
f 108 132 134
f 108 134 109
f 132 134 135
f 132 135 133
f 109 134 136
f 109 136 110
f 134 136 137
f 134 137 135
f 110 136 138
f 110 138 111
f 136 138 139
f 136 139 137
f 111 138 140
f 111 140 112
f 138 140 141
f 138 141 139
f 112 140 142
f 112 142 113
f 140 142 143
f 140 143 141
f 113 142 144
f 113 144 114
f 142 144 145
f 142 145 143
f 114 115 145
f 114 145 144
f 5 146 147
f 5 147 6
f 5 7 148
f 5 148 146
f 6 147 149
f 6 149 10
f 10 149 150
f 10 150 13
f 13 150 151
f 13 151 16
f 16 151 152
f 16 152 19
f 19 152 153
f 19 153 22
f 22 153 154
f 22 154 25
f 25 154 155
f 25 155 28
f 28 155 156
f 28 156 31
f 31 156 157
f 31 157 34
f 34 157 158
f 34 158 37
f 37 158 159
f 37 159 40
f 40 159 160
f 40 160 43
f 43 160 161
f 43 161 46
f 46 161 162
f 46 162 47
f 7 50 163
f 7 163 148
f 47 162 164
f 47 164 64
f 50 67 165
f 50 165 163
f 64 164 166
f 64 166 81
f 67 84 167
f 67 167 165
f 81 166 168
f 81 168 98
f 84 101 169
f 84 169 167
f 98 168 170
f 98 170 115
f 119 118 171
f 119 171 172
f 101 119 172
f 101 172 169
f 118 121 173
f 118 173 171
f 121 123 174
f 121 174 173
f 123 125 175
f 123 175 174
f 125 127 176
f 125 176 175
f 127 129 177
f 127 177 176
f 129 131 178
f 129 178 177
f 131 133 179
f 131 179 178
f 133 135 180
f 133 180 179
f 135 137 181
f 135 181 180
f 137 139 182
f 137 182 181
f 139 141 183
f 139 183 182
f 141 143 184
f 141 184 183
f 143 145 185
f 143 185 184
f 115 170 185
f 115 185 145
f 146 186 187
f 146 187 147
f 146 148 188
f 146 188 186
f 147 187 189
f 147 189 149
f 149 189 190
f 149 190 150
f 150 190 191
f 150 191 151
f 151 191 192
f 151 192 152
f 152 192 193
f 152 193 153
f 153 193 194
f 153 194 154
f 154 194 195
f 154 195 155
f 155 195 196
f 155 196 156
f 156 196 197
f 156 197 157
f 157 197 198
f 157 198 158
f 158 198 199
f 158 199 159
f 159 199 200
f 159 200 160
f 160 200 201
f 160 201 161
f 161 201 202
f 161 202 162
f 148 163 203
f 148 203 188
f 162 202 204
f 162 204 164
f 163 165 205
f 163 205 203
f 164 204 206
f 164 206 166
f 165 167 207
f 165 207 205
f 166 206 208
f 166 208 168
f 167 169 209
f 167 209 207
f 168 208 210
f 168 210 170
f 172 171 211
f 172 211 212
f 169 172 212
f 169 212 209
f 171 173 213
f 171 213 211
f 173 174 214
f 173 214 213
f 174 175 215
f 174 215 214
f 175 176 216
f 175 216 215
f 176 177 217
f 176 217 216
f 177 178 218
f 177 218 217
f 178 179 219
f 178 219 218
f 179 180 220
f 179 220 219
f 180 181 221
f 180 221 220
f 181 182 222
f 181 222 221
f 182 183 223
f 182 223 222
f 183 184 224
f 183 224 223
f 184 185 225
f 184 225 224
f 170 210 225
f 170 225 185
f 186 226 227
f 186 227 187
f 186 188 228
f 186 228 226
f 187 227 229
f 187 229 189
f 189 229 230
f 189 230 190
f 190 230 231
f 190 231 191
f 191 231 232
f 191 232 192
f 192 232 233
f 192 233 193
f 193 233 234
f 193 234 194
f 194 234 235
f 194 235 195
f 195 235 236
f 195 236 196
f 196 236 237
f 196 237 197
f 197 237 238
f 197 238 198
f 198 238 239
f 198 239 199
f 199 239 240
f 199 240 200
f 200 240 241
f 200 241 201
f 201 241 242
f 201 242 202
f 188 203 243
f 188 243 228
f 202 242 244
f 202 244 204
f 203 205 245
f 203 245 243
f 204 244 246
f 204 246 206
f 205 207 247
f 205 247 245
f 206 246 248
f 206 248 208
f 207 209 249
f 207 249 247
f 208 248 250
f 208 250 210
f 212 211 251
f 212 251 252
f 209 212 252
f 209 252 249
f 211 213 253
f 211 253 251
f 213 214 254
f 213 254 253
f 214 215 255
f 214 255 254
f 215 216 256
f 215 256 255
f 216 217 257
f 216 257 256
f 217 218 258
f 217 258 257
f 218 219 259
f 218 259 258
f 219 220 260
f 219 260 259
f 220 221 261
f 220 261 260
f 221 222 262
f 221 262 261
f 222 223 263
f 222 263 262
f 223 224 264
f 223 264 263
f 224 225 265
f 224 265 264
f 210 250 265
f 210 265 225
f 226 266 267
f 226 267 227
f 226 228 268
f 226 268 266
f 227 267 269
f 227 269 229
f 229 269 270
f 229 270 230
f 230 270 271
f 230 271 231
f 231 271 272
f 231 272 232
f 232 272 273
f 232 273 233
f 233 273 274
f 233 274 234
f 234 274 275
f 234 275 235
f 235 275 276
f 235 276 236
f 236 276 277
f 236 277 237
f 237 277 278
f 237 278 238
f 238 278 279
f 238 279 239
f 239 279 280
f 239 280 240
f 240 280 281
f 240 281 241
f 241 281 282
f 241 282 242
f 228 243 283
f 228 283 268
f 242 282 284
f 242 284 244
f 243 245 285
f 243 285 283
f 244 284 286
f 244 286 246
f 245 247 287
f 245 287 285
f 246 286 288
f 246 288 248
f 247 249 289
f 247 289 287
f 248 288 290
f 248 290 250
f 252 251 291
f 252 291 292
f 249 252 292
f 249 292 289
f 251 253 293
f 251 293 291
f 253 254 294
f 253 294 293
f 254 255 295
f 254 295 294
f 255 256 296
f 255 296 295
f 256 257 297
f 256 297 296
f 257 258 298
f 257 298 297
f 258 259 299
f 258 299 298
f 259 260 300
f 259 300 299
f 260 261 301
f 260 301 300
f 261 262 302
f 261 302 301
f 262 263 303
f 262 303 302
f 263 264 304
f 263 304 303
f 264 265 305
f 264 305 304
f 250 290 305
f 250 305 265
f 266 306 307
f 266 307 267
f 266 268 308
f 266 308 306
f 267 307 309
f 267 309 269
f 269 309 310
f 269 310 270
f 270 310 311
f 270 311 271
f 271 311 312
f 271 312 272
f 272 312 313
f 272 313 273
f 273 313 314
f 273 314 274
f 274 314 315
f 274 315 275
f 275 315 316
f 275 316 276
f 276 316 317
f 276 317 277
f 277 317 318
f 277 318 278
f 278 318 319
f 278 319 279
f 279 319 320
f 279 320 280
f 280 320 321
f 280 321 281
f 281 321 322
f 281 322 282
f 268 283 323
f 268 323 308
f 282 322 324
f 282 324 284
f 283 285 325
f 283 325 323
f 284 324 326
f 284 326 286
f 285 287 327
f 285 327 325
f 286 326 328
f 286 328 288
f 287 289 329
f 287 329 327
f 288 328 330
f 288 330 290
f 292 291 331
f 292 331 332
f 289 292 332
f 289 332 329
f 291 293 333
f 291 333 331
f 293 294 334
f 293 334 333
f 294 295 335
f 294 335 334
f 295 296 336
f 295 336 335
f 296 297 337
f 296 337 336
f 297 298 338
f 297 338 337
f 298 299 339
f 298 339 338
f 299 300 340
f 299 340 339
f 300 301 341
f 300 341 340
f 301 302 342
f 301 342 341
f 302 303 343
f 302 343 342
f 303 304 344
f 303 344 343
f 304 305 345
f 304 345 344
f 290 330 345
f 290 345 305
f 306 346 347
f 306 347 307
f 306 308 348
f 306 348 346
f 307 347 349
f 307 349 309
f 309 349 350
f 309 350 310
f 310 350 351
f 310 351 311
f 311 351 352
f 311 352 312
f 312 352 353
f 312 353 313
f 313 353 354
f 313 354 314
f 314 354 355
f 314 355 315
f 315 355 356
f 315 356 316
f 316 356 357
f 316 357 317
f 317 357 358
f 317 358 318
f 318 358 359
f 318 359 319
f 319 359 360
f 319 360 320
f 320 360 361
f 320 361 321
f 321 361 362
f 321 362 322
f 308 323 363
f 308 363 348
f 322 362 364
f 322 364 324
f 323 325 365
f 323 365 363
f 324 364 366
f 324 366 326
f 325 327 367
f 325 367 365
f 326 366 368
f 326 368 328
f 327 329 369
f 327 369 367
f 328 368 370
f 328 370 330
f 332 331 371
f 332 371 372
f 329 332 372
f 329 372 369
f 331 333 373
f 331 373 371
f 333 334 374
f 333 374 373
f 334 335 375
f 334 375 374
f 335 336 376
f 335 376 375
f 336 337 377
f 336 377 376
f 337 338 378
f 337 378 377
f 338 339 379
f 338 379 378
f 339 340 380
f 339 380 379
f 340 341 381
f 340 381 380
f 341 342 382
f 341 382 381
f 342 343 383
f 342 383 382
f 343 344 384
f 343 384 383
f 344 345 385
f 344 385 384
f 330 370 385
f 330 385 345
f 346 386 387
f 346 387 347
f 346 348 388
f 346 388 386
f 347 387 389
f 347 389 349
f 349 389 390
f 349 390 350
f 350 390 391
f 350 391 351
f 351 391 392
f 351 392 352
f 352 392 393
f 352 393 353
f 353 393 394
f 353 394 354
f 354 394 395
f 354 395 355
f 355 395 396
f 355 396 356
f 356 396 397
f 356 397 357
f 357 397 398
f 357 398 358
f 358 398 399
f 358 399 359
f 359 399 400
f 359 400 360
f 360 400 401
f 360 401 361
f 361 401 402
f 361 402 362
f 348 363 403
f 348 403 388
f 362 402 404
f 362 404 364
f 363 365 405
f 363 405 403
f 364 404 406
f 364 406 366
f 365 367 407
f 365 407 405
f 366 406 408
f 366 408 368
f 367 369 409
f 367 409 407
f 368 408 410
f 368 410 370
f 372 371 411
f 372 411 412
f 369 372 412
f 369 412 409
f 371 373 413
f 371 413 411
f 373 374 414
f 373 414 413
f 374 375 415
f 374 415 414
f 375 376 416
f 375 416 415
f 376 377 417
f 376 417 416
f 377 378 418
f 377 418 417
f 378 379 419
f 378 419 418
f 379 380 420
f 379 420 419
f 380 381 421
f 380 421 420
f 381 382 422
f 381 422 421
f 382 383 423
f 382 423 422
f 383 384 424
f 383 424 423
f 384 385 425
f 384 425 424
f 370 410 425
f 370 425 385
f 386 426 427
f 386 427 387
f 386 388 428
f 386 428 426
f 387 427 429
f 387 429 389
f 389 429 430
f 389 430 390
f 390 430 431
f 390 431 391
f 391 431 432
f 391 432 392
f 392 432 433
f 392 433 393
f 393 433 434
f 393 434 394
f 394 434 435
f 394 435 395
f 395 435 436
f 395 436 396
f 396 436 437
f 396 437 397
f 397 437 438
f 397 438 398
f 398 438 439
f 398 439 399
f 399 439 440
f 399 440 400
f 400 440 441
f 400 441 401
f 401 441 442
f 401 442 402
f 388 403 443
f 388 443 428
f 402 442 444
f 402 444 404
f 403 405 445
f 403 445 443
f 404 444 446
f 404 446 406
f 405 407 447
f 405 447 445
f 406 446 448
f 406 448 408
f 407 409 449
f 407 449 447
f 408 448 450
f 408 450 410
f 412 411 451
f 412 451 452
f 409 412 452
f 409 452 449
f 411 413 453
f 411 453 451
f 413 414 454
f 413 454 453
f 414 415 455
f 414 455 454
f 415 416 456
f 415 456 455
f 416 417 457
f 416 457 456
f 417 418 458
f 417 458 457
f 418 419 459
f 418 459 458
f 419 420 460
f 419 460 459
f 420 421 461
f 420 461 460
f 421 422 462
f 421 462 461
f 422 423 463
f 422 463 462
f 423 424 464
f 423 464 463
f 424 425 465
f 424 465 464
f 410 450 465
f 410 465 425
f 426 466 467
f 426 467 427
f 426 428 468
f 426 468 466
f 427 467 469
f 427 469 429
f 429 469 470
f 429 470 430
f 430 470 471
f 430 471 431
f 431 471 472
f 431 472 432
f 432 472 473
f 432 473 433
f 433 473 474
f 433 474 434
f 434 474 475
f 434 475 435
f 435 475 476
f 435 476 436
f 436 476 477
f 436 477 437
f 437 477 478
f 437 478 438
f 438 478 479
f 438 479 439
f 439 479 480
f 439 480 440
f 440 480 481
f 440 481 441
f 441 481 482
f 441 482 442
f 428 443 483
f 428 483 468
f 442 482 484
f 442 484 444
f 443 445 485
f 443 485 483
f 444 484 486
f 444 486 446
f 445 447 487
f 445 487 485
f 446 486 488
f 446 488 448
f 447 449 489
f 447 489 487
f 448 488 490
f 448 490 450
f 452 451 491
f 452 491 492
f 449 452 492
f 449 492 489
f 451 453 493
f 451 493 491
f 453 454 494
f 453 494 493
f 454 455 495
f 454 495 494
f 455 456 496
f 455 496 495
f 456 457 497
f 456 497 496
f 457 458 498
f 457 498 497
f 458 459 499
f 458 499 498
f 459 460 500
f 459 500 499
f 460 461 501
f 460 501 500
f 461 462 502
f 461 502 501
f 462 463 503
f 462 503 502
f 463 464 504
f 463 504 503
f 464 465 505
f 464 505 504
f 450 490 505
f 450 505 465
f 466 506 507
f 466 507 467
f 466 468 508
f 466 508 506
f 467 507 509
f 467 509 469
f 469 509 510
f 469 510 470
f 470 510 511
f 470 511 471
f 471 511 512
f 471 512 472
f 472 512 513
f 472 513 473
f 473 513 514
f 473 514 474
f 474 514 515
f 474 515 475
f 475 515 516
f 475 516 476
f 476 516 517
f 476 517 477
f 477 517 518
f 477 518 478
f 478 518 519
f 478 519 479
f 479 519 520
f 479 520 480
f 480 520 521
f 480 521 481
f 481 521 522
f 481 522 482
f 468 483 523
f 468 523 508
f 482 522 524
f 482 524 484
f 483 485 525
f 483 525 523
f 484 524 526
f 484 526 486
f 485 487 527
f 485 527 525
f 486 526 528
f 486 528 488
f 487 489 529
f 487 529 527
f 488 528 530
f 488 530 490
f 492 491 531
f 492 531 532
f 489 492 532
f 489 532 529
f 491 493 533
f 491 533 531
f 493 494 534
f 493 534 533
f 494 495 535
f 494 535 534
f 495 496 536
f 495 536 535
f 496 497 537
f 496 537 536
f 497 498 538
f 497 538 537
f 498 499 539
f 498 539 538
f 499 500 540
f 499 540 539
f 500 501 541
f 500 541 540
f 501 502 542
f 501 542 541
f 502 503 543
f 502 543 542
f 503 504 544
f 503 544 543
f 504 505 545
f 504 545 544
f 490 530 545
f 490 545 505
f 506 546 547
f 506 547 507
f 506 508 548
f 506 548 546
f 507 547 549
f 507 549 509
f 509 549 550
f 509 550 510
f 510 550 551
f 510 551 511
f 511 551 552
f 511 552 512
f 512 552 553
f 512 553 513
f 513 553 554
f 513 554 514
f 514 554 555
f 514 555 515
f 515 555 556
f 515 556 516
f 516 556 557
f 516 557 517
f 517 557 558
f 517 558 518
f 518 558 559
f 518 559 519
f 519 559 560
f 519 560 520
f 520 560 561
f 520 561 521
f 521 561 562
f 521 562 522
f 508 523 563
f 508 563 548
f 522 562 564
f 522 564 524
f 523 525 565
f 523 565 563
f 524 564 566
f 524 566 526
f 525 527 567
f 525 567 565
f 526 566 568
f 526 568 528
f 527 529 569
f 527 569 567
f 528 568 570
f 528 570 530
f 532 531 571
f 532 571 572
f 529 532 572
f 529 572 569
f 531 533 573
f 531 573 571
f 533 534 574
f 533 574 573
f 534 535 575
f 534 575 574
f 535 536 576
f 535 576 575
f 536 537 577
f 536 577 576
f 537 538 578
f 537 578 577
f 538 539 579
f 538 579 578
f 539 540 580
f 539 580 579
f 540 541 581
f 540 581 580
f 541 542 582
f 541 582 581
f 542 543 583
f 542 583 582
f 543 544 584
f 543 584 583
f 544 545 585
f 544 585 584
f 530 570 585
f 530 585 545
f 546 586 587
f 546 587 547
f 546 548 588
f 546 588 586
f 547 587 589
f 547 589 549
f 549 589 590
f 549 590 550
f 550 590 591
f 550 591 551
f 551 591 592
f 551 592 552
f 552 592 593
f 552 593 553
f 553 593 594
f 553 594 554
f 554 594 595
f 554 595 555
f 555 595 596
f 555 596 556
f 556 596 597
f 556 597 557
f 557 597 598
f 557 598 558
f 558 598 599
f 558 599 559
f 559 599 600
f 559 600 560
f 560 600 601
f 560 601 561
f 561 601 602
f 561 602 562
f 548 563 603
f 548 603 588
f 562 602 604
f 562 604 564
f 563 565 605
f 563 605 603
f 564 604 606
f 564 606 566
f 565 567 607
f 565 607 605
f 566 606 608
f 566 608 568
f 567 569 609
f 567 609 607
f 568 608 610
f 568 610 570
f 572 571 611
f 572 611 612
f 569 572 612
f 569 612 609
f 571 573 613
f 571 613 611
f 573 574 614
f 573 614 613
f 574 575 615
f 574 615 614
f 575 576 616
f 575 616 615
f 576 577 617
f 576 617 616
f 577 578 618
f 577 618 617
f 578 579 619
f 578 619 618
f 579 580 620
f 579 620 619
f 580 581 621
f 580 621 620
f 581 582 622
f 581 622 621
f 582 583 623
f 582 623 622
f 583 584 624
f 583 624 623
f 584 585 625
f 584 625 624
f 570 610 625
f 570 625 585
f 586 626 627
f 586 627 587
f 586 588 628
f 586 628 626
f 587 627 629
f 587 629 589
f 589 629 630
f 589 630 590
f 590 630 631
f 590 631 591
f 591 631 632
f 591 632 592
f 592 632 633
f 592 633 593
f 593 633 634
f 593 634 594
f 594 634 635
f 594 635 595
f 595 635 636
f 595 636 596
f 596 636 637
f 596 637 597
f 597 637 638
f 597 638 598
f 598 638 639
f 598 639 599
f 599 639 640
f 599 640 600
f 600 640 641
f 600 641 601
f 601 641 642
f 601 642 602
f 588 603 643
f 588 643 628
f 602 642 644
f 602 644 604
f 603 605 645
f 603 645 643
f 604 644 646
f 604 646 606
f 605 607 647
f 605 647 645
f 606 646 648
f 606 648 608
f 607 609 649
f 607 649 647
f 608 648 650
f 608 650 610
f 612 611 651
f 612 651 652
f 609 612 652
f 609 652 649
f 611 613 653
f 611 653 651
f 613 614 654
f 613 654 653
f 614 615 655
f 614 655 654
f 615 616 656
f 615 656 655
f 616 617 657
f 616 657 656
f 617 618 658
f 617 658 657
f 618 619 659
f 618 659 658
f 619 620 660
f 619 660 659
f 620 621 661
f 620 661 660
f 621 622 662
f 621 662 661
f 622 623 663
f 622 663 662
f 623 624 664
f 623 664 663
f 624 625 665
f 624 665 664
f 610 650 665
f 610 665 625
f 626 666 667
f 626 667 627
f 626 628 668
f 626 668 666
f 627 667 669
f 627 669 629
f 629 669 670
f 629 670 630
f 630 670 671
f 630 671 631
f 631 671 672
f 631 672 632
f 632 672 673
f 632 673 633
f 633 673 674
f 633 674 634
f 634 674 675
f 634 675 635
f 635 675 676
f 635 676 636
f 636 676 677
f 636 677 637
f 637 677 678
f 637 678 638
f 638 678 679
f 638 679 639
f 639 679 680
f 639 680 640
f 640 680 681
f 640 681 641
f 641 681 682
f 641 682 642
f 628 643 683
f 628 683 668
f 642 682 684
f 642 684 644
f 643 645 685
f 643 685 683
f 644 684 686
f 644 686 646
f 645 647 687
f 645 687 685
f 646 686 688
f 646 688 648
f 647 649 689
f 647 689 687
f 648 688 690
f 648 690 650
f 652 651 691
f 652 691 692
f 649 652 692
f 649 692 689
f 651 653 693
f 651 693 691
f 653 654 694
f 653 694 693
f 654 655 695
f 654 695 694
f 655 656 696
f 655 696 695
f 656 657 697
f 656 697 696
f 657 658 698
f 657 698 697
f 658 659 699
f 658 699 698
f 659 660 700
f 659 700 699
f 660 661 701
f 660 701 700
f 661 662 702
f 661 702 701
f 662 663 703
f 662 703 702
f 663 664 704
f 663 704 703
f 664 665 705
f 664 705 704
f 650 690 705
f 650 705 665
f 706 707 708
f 706 708 709
f 666 706 707
f 666 707 667
f 666 668 709
f 666 709 706
f 707 710 711
f 707 711 708
f 667 707 710
f 667 710 669
f 710 712 713
f 710 713 711
f 669 710 712
f 669 712 670
f 712 714 715
f 712 715 713
f 670 712 714
f 670 714 671
f 714 716 717
f 714 717 715
f 671 714 716
f 671 716 672
f 716 718 719
f 716 719 717
f 672 716 718
f 672 718 673
f 718 720 721
f 718 721 719
f 673 718 720
f 673 720 674
f 720 722 723
f 720 723 721
f 674 720 722
f 674 722 675
f 722 724 725
f 722 725 723
f 675 722 724
f 675 724 676
f 724 726 727
f 724 727 725
f 676 724 726
f 676 726 677
f 726 728 729
f 726 729 727
f 677 726 728
f 677 728 678
f 728 730 731
f 728 731 729
f 678 728 730
f 678 730 679
f 730 732 733
f 730 733 731
f 679 730 732
f 679 732 680
f 732 734 735
f 732 735 733
f 680 732 734
f 680 734 681
f 681 734 735
f 681 735 682
f 709 708 736
f 709 736 737
f 668 683 737
f 668 737 709
f 708 711 738
f 708 738 736
f 711 713 739
f 711 739 738
f 713 715 740
f 713 740 739
f 715 717 741
f 715 741 740
f 717 719 742
f 717 742 741
f 719 721 743
f 719 743 742
f 721 723 744
f 721 744 743
f 723 725 745
f 723 745 744
f 725 727 746
f 725 746 745
f 727 729 747
f 727 747 746
f 729 731 748
f 729 748 747
f 731 733 749
f 731 749 748
f 733 735 750
f 733 750 749
f 682 735 750
f 682 750 684
f 737 736 751
f 737 751 752
f 683 685 752
f 683 752 737
f 736 738 753
f 736 753 751
f 738 739 754
f 738 754 753
f 739 740 755
f 739 755 754
f 740 741 756
f 740 756 755
f 741 742 757
f 741 757 756
f 742 743 758
f 742 758 757
f 743 744 759
f 743 759 758
f 744 745 760
f 744 760 759
f 745 746 761
f 745 761 760
f 746 747 762
f 746 762 761
f 747 748 763
f 747 763 762
f 748 749 764
f 748 764 763
f 749 750 765
f 749 765 764
f 684 750 765
f 684 765 686
f 752 751 766
f 752 766 767
f 685 687 767
f 685 767 752
f 751 753 768
f 751 768 766
f 753 754 769
f 753 769 768
f 754 755 770
f 754 770 769
f 755 756 771
f 755 771 770
f 756 757 772
f 756 772 771
f 757 758 773
f 757 773 772
f 758 759 774
f 758 774 773
f 759 760 775
f 759 775 774
f 760 761 776
f 760 776 775
f 761 762 777
f 761 777 776
f 762 763 778
f 762 778 777
f 763 764 779
f 763 779 778
f 764 765 780
f 764 780 779
f 686 765 780
f 686 780 688
f 767 766 781
f 767 781 782
f 687 689 782
f 687 782 767
f 766 768 783
f 766 783 781
f 768 769 784
f 768 784 783
f 769 770 785
f 769 785 784
f 770 771 786
f 770 786 785
f 771 772 787
f 771 787 786
f 772 773 788
f 772 788 787
f 773 774 789
f 773 789 788
f 774 775 790
f 774 790 789
f 775 776 791
f 775 791 790
f 776 777 792
f 776 792 791
f 777 778 793
f 777 793 792
f 778 779 794
f 778 794 793
f 779 780 795
f 779 795 794
f 688 780 795
f 688 795 690
f 782 781 796
f 782 796 797
f 692 691 796
f 692 796 797
f 689 692 797
f 689 797 782
f 781 783 798
f 781 798 796
f 691 693 798
f 691 798 796
f 783 784 799
f 783 799 798
f 693 694 799
f 693 799 798
f 784 785 800
f 784 800 799
f 694 695 800
f 694 800 799
f 785 786 801
f 785 801 800
f 695 696 801
f 695 801 800
f 786 787 802
f 786 802 801
f 696 697 802
f 696 802 801
f 787 788 803
f 787 803 802
f 697 698 803
f 697 803 802
f 788 789 804
f 788 804 803
f 698 699 804
f 698 804 803
f 789 790 805
f 789 805 804
f 699 700 805
f 699 805 804
f 790 791 806
f 790 806 805
f 700 701 806
f 700 806 805
f 791 792 807
f 791 807 806
f 701 702 807
f 701 807 806
f 792 793 808
f 792 808 807
f 702 703 808
f 702 808 807
f 793 794 809
f 793 809 808
f 703 704 809
f 703 809 808
f 794 795 810
f 794 810 809
f 704 705 810
f 704 810 809
f 690 795 810
f 690 810 705
