o [4B] 3D Diagram - S2-03 Group D_130
v -4.126735 7.012500 -9.725000
v -4.126735 7.071875 -9.725000
v -4.126735 7.071875 -9.050000
v -4.126735 7.012500 -9.050000
v -3.556428 7.012500 -9.725000
v -3.556428 7.012500 -9.050000
v -3.556428 7.071875 -9.725000
v -4.126735 7.071875 -8.375000
v -4.126735 7.012500 -8.375000
v -3.556428 7.012500 -8.375000
v -4.126735 7.071875 -7.700000
v -4.126735 7.012500 -7.700000
v -3.556428 7.012500 -7.700000
v -4.126735 7.071875 -7.025000
v -4.126735 7.012500 -7.025000
v -3.556428 7.012500 -7.025000
v -4.126735 7.071875 -6.350000
v -4.126735 7.012500 -6.350000
v -3.556428 7.012500 -6.350000
v -4.126735 7.071875 -5.675000
v -4.126735 7.012500 -5.675000
v -3.556428 7.012500 -5.675000
v -4.126735 7.071875 -5.000000
v -4.126735 7.012500 -5.000000
v -3.556428 7.012500 -5.000000
v -4.126735 7.071875 -4.325000
v -4.126735 7.012500 -4.325000
v -3.556428 7.012500 -4.325000
v -4.126735 7.071875 -3.650000
v -4.126735 7.012500 -3.650000
v -3.556428 7.012500 -3.650000
v -4.126735 7.071875 -2.975000
v -4.126735 7.012500 -2.975000
v -3.556428 7.012500 -2.975000
v -4.126735 7.071875 -2.300000
v -4.126735 7.012500 -2.300000
v -3.556428 7.012500 -2.300000
v -4.126735 7.071875 -1.625000
v -4.126735 7.012500 -1.625000
v -3.556428 7.012500 -1.625000
v -4.126735 7.071875 -0.950000
v -4.126735 7.012500 -0.950000
v -3.556428 7.012500 -0.950000
v -4.126735 7.071875 -0.275000
v -4.126735 7.012500 -0.275000
v -3.556428 7.012500 -0.275000
v -3.556428 7.071875 -0.275000
v -4.126735 7.131250 -9.725000
v -4.126735 7.131250 -9.050000
v -3.556428 7.131250 -9.725000
v -4.126735 7.131250 -8.375000
v -4.126735 7.131250 -7.700000
v -4.126735 7.131250 -7.025000
v -4.126735 7.131250 -6.350000
v -4.126735 7.131250 -5.675000
v -4.126735 7.131250 -5.000000
v -4.126735 7.131250 -4.325000
v -4.126735 7.131250 -3.650000
v -4.126735 7.131250 -2.975000
v -4.126735 7.131250 -2.300000
v -4.126735 7.131250 -1.625000
v -4.126735 7.131250 -0.950000
v -4.126735 7.131250 -0.275000
v -3.556428 7.131250 -0.275000
v -4.126735 7.190625 -9.725000
v -4.126735 7.190625 -9.050000
v -3.556428 7.190625 -9.725000
v -4.126735 7.190625 -8.375000
v -4.126735 7.190625 -7.700000
v -4.126735 7.190625 -7.025000
v -4.126735 7.190625 -6.350000
v -4.126735 7.190625 -5.675000
v -4.126735 7.190625 -5.000000
v -4.126735 7.190625 -4.325000
v -4.126735 7.190625 -3.650000
v -4.126735 7.190625 -2.975000
v -4.126735 7.190625 -2.300000
v -4.126735 7.190625 -1.625000
v -4.126735 7.190625 -0.950000
v -4.126735 7.190625 -0.275000
v -3.556428 7.190625 -0.275000
v -4.126735 7.250000 -9.725000
v -4.126735 7.250000 -9.050000
v -3.556428 7.250000 -9.725000
v -4.126735 7.250000 -8.375000
v -4.126735 7.250000 -7.700000
v -4.126735 7.250000 -7.025000
v -4.126735 7.250000 -6.350000
v -4.126735 7.250000 -5.675000
v -4.126735 7.250000 -5.000000
v -4.126735 7.250000 -4.325000
v -4.126735 7.250000 -3.650000
v -4.126735 7.250000 -2.975000
v -4.126735 7.250000 -2.300000
v -4.126735 7.250000 -1.625000
v -4.126735 7.250000 -0.950000
v -4.126735 7.250000 -0.275000
v -3.556428 7.250000 -0.275000
v -4.126735 7.309375 -9.725000
v -4.126735 7.309375 -9.050000
v -3.556428 7.309375 -9.725000
v -4.126735 7.309375 -8.375000
v -4.126735 7.309375 -7.700000
v -4.126735 7.309375 -7.025000
v -4.126735 7.309375 -6.350000
v -4.126735 7.309375 -5.675000
v -4.126735 7.309375 -5.000000
v -4.126735 7.309375 -4.325000
v -4.126735 7.309375 -3.650000
v -4.126735 7.309375 -2.975000
v -4.126735 7.309375 -2.300000
v -4.126735 7.309375 -1.625000
v -4.126735 7.309375 -0.950000
v -4.126735 7.309375 -0.275000
v -3.556428 7.309375 -0.275000
v -4.126735 7.368750 -9.725000
v -4.126735 7.368750 -9.050000
v -3.556428 7.368750 -9.725000
v -4.126735 7.368750 -8.375000
v -4.126735 7.368750 -7.700000
v -4.126735 7.368750 -7.025000
v -4.126735 7.368750 -6.350000
v -4.126735 7.368750 -5.675000
v -4.126735 7.368750 -5.000000
v -4.126735 7.368750 -4.325000
v -4.126735 7.368750 -3.650000
v -4.126735 7.368750 -2.975000
v -4.126735 7.368750 -2.300000
v -4.126735 7.368750 -1.625000
v -4.126735 7.368750 -0.950000
v -4.126735 7.368750 -0.275000
v -3.556428 7.368750 -0.275000
v -4.126735 7.428125 -9.725000
v -4.126735 7.428125 -9.050000
v -3.556428 7.428125 -9.725000
v -4.126735 7.428125 -8.375000
v -4.126735 7.428125 -7.700000
v -4.126735 7.428125 -7.025000
v -4.126735 7.428125 -6.350000
v -4.126735 7.428125 -5.675000
v -4.126735 7.428125 -5.000000
v -4.126735 7.428125 -4.325000
v -4.126735 7.428125 -3.650000
v -4.126735 7.428125 -2.975000
v -4.126735 7.428125 -2.300000
v -4.126735 7.428125 -1.625000
v -4.126735 7.428125 -0.950000
v -4.126735 7.428125 -0.275000
v -3.556428 7.428125 -0.275000
v -4.126735 7.487500 -9.725000
v -4.126735 7.487500 -9.050000
v -3.556428 7.487500 -9.050000
v -3.556428 7.487500 -9.725000
v -4.126735 7.487500 -8.375000
v -3.556428 7.487500 -8.375000
v -4.126735 7.487500 -7.700000
v -3.556428 7.487500 -7.700000
v -4.126735 7.487500 -7.025000
v -3.556428 7.487500 -7.025000
v -4.126735 7.487500 -6.350000
v -3.556428 7.487500 -6.350000
v -4.126735 7.487500 -5.675000
v -3.556428 7.487500 -5.675000
v -4.126735 7.487500 -5.000000
v -3.556428 7.487500 -5.000000
v -4.126735 7.487500 -4.325000
v -3.556428 7.487500 -4.325000
v -4.126735 7.487500 -3.650000
v -3.556428 7.487500 -3.650000
v -4.126735 7.487500 -2.975000
v -3.556428 7.487500 -2.975000
v -4.126735 7.487500 -2.300000
v -3.556428 7.487500 -2.300000
v -4.126735 7.487500 -1.625000
v -3.556428 7.487500 -1.625000
v -4.126735 7.487500 -0.950000
v -3.556428 7.487500 -0.950000
v -4.126735 7.487500 -0.275000
v -3.556428 7.487500 -0.275000
v -2.986121 7.012500 -9.725000
v -2.986121 7.012500 -9.050000
v -2.986121 7.071875 -9.725000
v -2.986121 7.012500 -8.375000
v -2.986121 7.012500 -7.700000
v -2.986121 7.012500 -7.025000
v -2.986121 7.012500 -6.350000
v -2.986121 7.012500 -5.675000
v -2.986121 7.012500 -5.000000
v -2.986121 7.012500 -4.325000
v -2.986121 7.012500 -3.650000
v -2.986121 7.012500 -2.975000
v -2.986121 7.012500 -2.300000
v -2.986121 7.012500 -1.625000
v -2.986121 7.012500 -0.950000
v -2.986121 7.012500 -0.275000
v -2.986121 7.071875 -0.275000
v -2.986121 7.131250 -9.725000
v -2.986121 7.131250 -0.275000
v -2.986121 7.190625 -9.725000
v -2.986121 7.190625 -0.275000
v -2.986121 7.250000 -9.725000
v -2.986121 7.250000 -0.275000
v -2.986121 7.309375 -9.725000
v -2.986121 7.309375 -0.275000
v -2.986121 7.368750 -9.725000
v -2.986121 7.368750 -0.275000
v -2.986121 7.428125 -9.725000
v -2.986121 7.428125 -0.275000
v -2.986121 7.487500 -9.050000
v -2.986121 7.487500 -9.725000
v -2.986121 7.487500 -8.375000
v -2.986121 7.487500 -7.700000
v -2.986121 7.487500 -7.025000
v -2.986121 7.487500 -6.350000
v -2.986121 7.487500 -5.675000
v -2.986121 7.487500 -5.000000
v -2.986121 7.487500 -4.325000
v -2.986121 7.487500 -3.650000
v -2.986121 7.487500 -2.975000
v -2.986121 7.487500 -2.300000
v -2.986121 7.487500 -1.625000
v -2.986121 7.487500 -0.950000
v -2.986121 7.487500 -0.275000
v -2.415814 7.012500 -9.725000
v -2.415814 7.012500 -9.050000
v -2.415814 7.071875 -9.725000
v -2.415814 7.012500 -8.375000
v -2.415814 7.012500 -7.700000
v -2.415814 7.012500 -7.025000
v -2.415814 7.012500 -6.350000
v -2.415814 7.012500 -5.675000
v -2.415814 7.012500 -5.000000
v -2.415814 7.012500 -4.325000
v -2.415814 7.012500 -3.650000
v -2.415814 7.012500 -2.975000
v -2.415814 7.012500 -2.300000
v -2.415814 7.012500 -1.625000
v -2.415814 7.012500 -0.950000
v -2.415814 7.012500 -0.275000
v -2.415814 7.071875 -0.275000
v -2.415814 7.131250 -9.725000
v -2.415814 7.131250 -0.275000
v -2.415814 7.190625 -9.725000
v -2.415814 7.190625 -0.275000
v -2.415814 7.250000 -9.725000
v -2.415814 7.250000 -0.275000
v -2.415814 7.309375 -9.725000
v -2.415814 7.309375 -0.275000
v -2.415814 7.368750 -9.725000
v -2.415814 7.368750 -0.275000
v -2.415814 7.428125 -9.725000
v -2.415814 7.428125 -0.275000
v -2.415814 7.487500 -9.050000
v -2.415814 7.487500 -9.725000
v -2.415814 7.487500 -8.375000
v -2.415814 7.487500 -7.700000
v -2.415814 7.487500 -7.025000
v -2.415814 7.487500 -6.350000
v -2.415814 7.487500 -5.675000
v -2.415814 7.487500 -5.000000
v -2.415814 7.487500 -4.325000
v -2.415814 7.487500 -3.650000
v -2.415814 7.487500 -2.975000
v -2.415814 7.487500 -2.300000
v -2.415814 7.487500 -1.625000
v -2.415814 7.487500 -0.950000
v -2.415814 7.487500 -0.275000
v -1.845506 7.012500 -9.725000
v -1.845506 7.012500 -9.050000
v -1.845506 7.071875 -9.725000
v -1.845506 7.012500 -8.375000
v -1.845506 7.012500 -7.700000
v -1.845506 7.012500 -7.025000
v -1.845506 7.012500 -6.350000
v -1.845506 7.012500 -5.675000
v -1.845506 7.012500 -5.000000
v -1.845506 7.012500 -4.325000
v -1.845506 7.012500 -3.650000
v -1.845506 7.012500 -2.975000
v -1.845506 7.012500 -2.300000
v -1.845506 7.012500 -1.625000
v -1.845506 7.012500 -0.950000
v -1.845506 7.012500 -0.275000
v -1.845506 7.071875 -0.275000
v -1.845506 7.131250 -9.725000
v -1.845506 7.131250 -0.275000
v -1.845506 7.190625 -9.725000
v -1.845506 7.190625 -0.275000
v -1.845506 7.250000 -9.725000
v -1.845506 7.250000 -0.275000
v -1.845506 7.309375 -9.725000
v -1.845506 7.309375 -0.275000
v -1.845506 7.368750 -9.725000
v -1.845506 7.368750 -0.275000
v -1.845506 7.428125 -9.725000
v -1.845506 7.428125 -0.275000
v -1.845506 7.487500 -9.050000
v -1.845506 7.487500 -9.725000
v -1.845506 7.487500 -8.375000
v -1.845506 7.487500 -7.700000
v -1.845506 7.487500 -7.025000
v -1.845506 7.487500 -6.350000
v -1.845506 7.487500 -5.675000
v -1.845506 7.487500 -5.000000
v -1.845506 7.487500 -4.325000
v -1.845506 7.487500 -3.650000
v -1.845506 7.487500 -2.975000
v -1.845506 7.487500 -2.300000
v -1.845506 7.487500 -1.625000
v -1.845506 7.487500 -0.950000
v -1.845506 7.487500 -0.275000
v -1.275199 7.012500 -9.725000
v -1.275199 7.012500 -9.050000
v -1.275199 7.071875 -9.725000
v -1.275199 7.012500 -8.375000
v -1.275199 7.012500 -7.700000
v -1.275199 7.012500 -7.025000
v -1.275199 7.012500 -6.350000
v -1.275199 7.012500 -5.675000
v -1.275199 7.012500 -5.000000
v -1.275199 7.012500 -4.325000
v -1.275199 7.012500 -3.650000
v -1.275199 7.012500 -2.975000
v -1.275199 7.012500 -2.300000
v -1.275199 7.012500 -1.625000
v -1.275199 7.012500 -0.950000
v -1.275199 7.012500 -0.275000
v -1.275199 7.071875 -0.275000
v -1.275199 7.131250 -9.725000
v -1.275199 7.131250 -0.275000
v -1.275199 7.190625 -9.725000
v -1.275199 7.190625 -0.275000
v -1.275199 7.250000 -9.725000
v -1.275199 7.250000 -0.275000
v -1.275199 7.309375 -9.725000
v -1.275199 7.309375 -0.275000
v -1.275199 7.368750 -9.725000
v -1.275199 7.368750 -0.275000
v -1.275199 7.428125 -9.725000
v -1.275199 7.428125 -0.275000
v -1.275199 7.487500 -9.050000
v -1.275199 7.487500 -9.725000
v -1.275199 7.487500 -8.375000
v -1.275199 7.487500 -7.700000
v -1.275199 7.487500 -7.025000
v -1.275199 7.487500 -6.350000
v -1.275199 7.487500 -5.675000
v -1.275199 7.487500 -5.000000
v -1.275199 7.487500 -4.325000
v -1.275199 7.487500 -3.650000
v -1.275199 7.487500 -2.975000
v -1.275199 7.487500 -2.300000
v -1.275199 7.487500 -1.625000
v -1.275199 7.487500 -0.950000
v -1.275199 7.487500 -0.275000
v -0.704892 7.012500 -9.725000
v -0.704892 7.012500 -9.050000
v -0.704892 7.071875 -9.725000
v -0.704892 7.012500 -8.375000
v -0.704892 7.012500 -7.700000
v -0.704892 7.012500 -7.025000
v -0.704892 7.012500 -6.350000
v -0.704892 7.012500 -5.675000
v -0.704892 7.012500 -5.000000
v -0.704892 7.012500 -4.325000
v -0.704892 7.012500 -3.650000
v -0.704892 7.012500 -2.975000
v -0.704892 7.012500 -2.300000
v -0.704892 7.012500 -1.625000
v -0.704892 7.012500 -0.950000
v -0.704892 7.012500 -0.275000
v -0.704892 7.071875 -0.275000
v -0.704892 7.131250 -9.725000
v -0.704892 7.131250 -0.275000
v -0.704892 7.190625 -9.725000
v -0.704892 7.190625 -0.275000
v -0.704892 7.250000 -9.725000
v -0.704892 7.250000 -0.275000
v -0.704892 7.309375 -9.725000
v -0.704892 7.309375 -0.275000
v -0.704892 7.368750 -9.725000
v -0.704892 7.368750 -0.275000
v -0.704892 7.428125 -9.725000
v -0.704892 7.428125 -0.275000
v -0.704892 7.487500 -9.050000
v -0.704892 7.487500 -9.725000
v -0.704892 7.487500 -8.375000
v -0.704892 7.487500 -7.700000
v -0.704892 7.487500 -7.025000
v -0.704892 7.487500 -6.350000
v -0.704892 7.487500 -5.675000
v -0.704892 7.487500 -5.000000
v -0.704892 7.487500 -4.325000
v -0.704892 7.487500 -3.650000
v -0.704892 7.487500 -2.975000
v -0.704892 7.487500 -2.300000
v -0.704892 7.487500 -1.625000
v -0.704892 7.487500 -0.950000
v -0.704892 7.487500 -0.275000
v -0.134585 7.012500 -9.725000
v -0.134585 7.012500 -9.050000
v -0.134585 7.071875 -9.725000
v -0.134585 7.012500 -8.375000
v -0.134585 7.012500 -7.700000
v -0.134585 7.012500 -7.025000
v -0.134585 7.012500 -6.350000
v -0.134585 7.012500 -5.675000
v -0.134585 7.012500 -5.000000
v -0.134585 7.012500 -4.325000
v -0.134585 7.012500 -3.650000
v -0.134585 7.012500 -2.975000
v -0.134585 7.012500 -2.300000
v -0.134585 7.012500 -1.625000
v -0.134585 7.012500 -0.950000
v -0.134585 7.012500 -0.275000
v -0.134585 7.071875 -0.275000
v -0.134585 7.131250 -9.725000
v -0.134585 7.131250 -0.275000
v -0.134585 7.190625 -9.725000
v -0.134585 7.190625 -0.275000
v -0.134585 7.250000 -9.725000
v -0.134585 7.250000 -0.275000
v -0.134585 7.309375 -9.725000
v -0.134585 7.309375 -0.275000
v -0.134585 7.368750 -9.725000
v -0.134585 7.368750 -0.275000
v -0.134585 7.428125 -9.725000
v -0.134585 7.428125 -0.275000
v -0.134585 7.487500 -9.050000
v -0.134585 7.487500 -9.725000
v -0.134585 7.487500 -8.375000
v -0.134585 7.487500 -7.700000
v -0.134585 7.487500 -7.025000
v -0.134585 7.487500 -6.350000
v -0.134585 7.487500 -5.675000
v -0.134585 7.487500 -5.000000
v -0.134585 7.487500 -4.325000
v -0.134585 7.487500 -3.650000
v -0.134585 7.487500 -2.975000
v -0.134585 7.487500 -2.300000
v -0.134585 7.487500 -1.625000
v -0.134585 7.487500 -0.950000
v -0.134585 7.487500 -0.275000
v 0.435722 7.012500 -9.725000
v 0.435722 7.012500 -9.050000
v 0.435722 7.071875 -9.725000
v 0.435722 7.012500 -8.375000
v 0.435722 7.012500 -7.700000
v 0.435722 7.012500 -7.025000
v 0.435722 7.012500 -6.350000
v 0.435722 7.012500 -5.675000
v 0.435722 7.012500 -5.000000
v 0.435722 7.012500 -4.325000
v 0.435722 7.012500 -3.650000
v 0.435722 7.012500 -2.975000
v 0.435722 7.012500 -2.300000
v 0.435722 7.012500 -1.625000
v 0.435722 7.012500 -0.950000
v 0.435722 7.012500 -0.275000
v 0.435722 7.071875 -0.275000
v 0.435722 7.131250 -9.725000
v 0.435722 7.131250 -0.275000
v 0.435722 7.190625 -9.725000
v 0.435722 7.190625 -0.275000
v 0.435722 7.250000 -9.725000
v 0.435722 7.250000 -0.275000
v 0.435722 7.309375 -9.725000
v 0.435722 7.309375 -0.275000
v 0.435722 7.368750 -9.725000
v 0.435722 7.368750 -0.275000
v 0.435722 7.428125 -9.725000
v 0.435722 7.428125 -0.275000
v 0.435722 7.487500 -9.050000
v 0.435722 7.487500 -9.725000
v 0.435722 7.487500 -8.375000
v 0.435722 7.487500 -7.700000
v 0.435722 7.487500 -7.025000
v 0.435722 7.487500 -6.350000
v 0.435722 7.487500 -5.675000
v 0.435722 7.487500 -5.000000
v 0.435722 7.487500 -4.325000
v 0.435722 7.487500 -3.650000
v 0.435722 7.487500 -2.975000
v 0.435722 7.487500 -2.300000
v 0.435722 7.487500 -1.625000
v 0.435722 7.487500 -0.950000
v 0.435722 7.487500 -0.275000
v 1.006029 7.012500 -9.725000
v 1.006029 7.012500 -9.050000
v 1.006029 7.071875 -9.725000
v 1.006029 7.012500 -8.375000
v 1.006029 7.012500 -7.700000
v 1.006029 7.012500 -7.025000
v 1.006029 7.012500 -6.350000
v 1.006029 7.012500 -5.675000
v 1.006029 7.012500 -5.000000
v 1.006029 7.012500 -4.325000
v 1.006029 7.012500 -3.650000
v 1.006029 7.012500 -2.975000
v 1.006029 7.012500 -2.300000
v 1.006029 7.012500 -1.625000
v 1.006029 7.012500 -0.950000
v 1.006029 7.012500 -0.275000
v 1.006029 7.071875 -0.275000
v 1.006029 7.131250 -9.725000
v 1.006029 7.131250 -0.275000
v 1.006029 7.190625 -9.725000
v 1.006029 7.190625 -0.275000
v 1.006029 7.250000 -9.725000
v 1.006029 7.250000 -0.275000
v 1.006029 7.309375 -9.725000
v 1.006029 7.309375 -0.275000
v 1.006029 7.368750 -9.725000
v 1.006029 7.368750 -0.275000
v 1.006029 7.428125 -9.725000
v 1.006029 7.428125 -0.275000
v 1.006029 7.487500 -9.050000
v 1.006029 7.487500 -9.725000
v 1.006029 7.487500 -8.375000
v 1.006029 7.487500 -7.700000
v 1.006029 7.487500 -7.025000
v 1.006029 7.487500 -6.350000
v 1.006029 7.487500 -5.675000
v 1.006029 7.487500 -5.000000
v 1.006029 7.487500 -4.325000
v 1.006029 7.487500 -3.650000
v 1.006029 7.487500 -2.975000
v 1.006029 7.487500 -2.300000
v 1.006029 7.487500 -1.625000
v 1.006029 7.487500 -0.950000
v 1.006029 7.487500 -0.275000
v 1.576336 7.012500 -9.725000
v 1.576336 7.012500 -9.050000
v 1.576336 7.071875 -9.725000
v 1.576336 7.012500 -8.375000
v 1.576336 7.012500 -7.700000
v 1.576336 7.012500 -7.025000
v 1.576336 7.012500 -6.350000
v 1.576336 7.012500 -5.675000
v 1.576336 7.012500 -5.000000
v 1.576336 7.012500 -4.325000
v 1.576336 7.012500 -3.650000
v 1.576336 7.012500 -2.975000
v 1.576336 7.012500 -2.300000
v 1.576336 7.012500 -1.625000
v 1.576336 7.012500 -0.950000
v 1.576336 7.012500 -0.275000
v 1.576336 7.071875 -0.275000
v 1.576336 7.131250 -9.725000
v 1.576336 7.131250 -0.275000
v 1.576336 7.190625 -9.725000
v 1.576336 7.190625 -0.275000
v 1.576336 7.250000 -9.725000
v 1.576336 7.250000 -0.275000
v 1.576336 7.309375 -9.725000
v 1.576336 7.309375 -0.275000
v 1.576336 7.368750 -9.725000
v 1.576336 7.368750 -0.275000
v 1.576336 7.428125 -9.725000
v 1.576336 7.428125 -0.275000
v 1.576336 7.487500 -9.050000
v 1.576336 7.487500 -9.725000
v 1.576336 7.487500 -8.375000
v 1.576336 7.487500 -7.700000
v 1.576336 7.487500 -7.025000
v 1.576336 7.487500 -6.350000
v 1.576336 7.487500 -5.675000
v 1.576336 7.487500 -5.000000
v 1.576336 7.487500 -4.325000
v 1.576336 7.487500 -3.650000
v 1.576336 7.487500 -2.975000
v 1.576336 7.487500 -2.300000
v 1.576336 7.487500 -1.625000
v 1.576336 7.487500 -0.950000
v 1.576336 7.487500 -0.275000
v 2.146643 7.012500 -9.725000
v 2.146643 7.012500 -9.050000
v 2.146643 7.071875 -9.725000
v 2.146643 7.012500 -8.375000
v 2.146643 7.012500 -7.700000
v 2.146643 7.012500 -7.025000
v 2.146643 7.012500 -6.350000
v 2.146643 7.012500 -5.675000
v 2.146643 7.012500 -5.000000
v 2.146643 7.012500 -4.325000
v 2.146643 7.012500 -3.650000
v 2.146643 7.012500 -2.975000
v 2.146643 7.012500 -2.300000
v 2.146643 7.012500 -1.625000
v 2.146643 7.012500 -0.950000
v 2.146643 7.012500 -0.275000
v 2.146643 7.071875 -0.275000
v 2.146643 7.131250 -9.725000
v 2.146643 7.131250 -0.275000
v 2.146643 7.190625 -9.725000
v 2.146643 7.190625 -0.275000
v 2.146643 7.250000 -9.725000
v 2.146643 7.250000 -0.275000
v 2.146643 7.309375 -9.725000
v 2.146643 7.309375 -0.275000
v 2.146643 7.368750 -9.725000
v 2.146643 7.368750 -0.275000
v 2.146643 7.428125 -9.725000
v 2.146643 7.428125 -0.275000
v 2.146643 7.487500 -9.050000
v 2.146643 7.487500 -9.725000
v 2.146643 7.487500 -8.375000
v 2.146643 7.487500 -7.700000
v 2.146643 7.487500 -7.025000
v 2.146643 7.487500 -6.350000
v 2.146643 7.487500 -5.675000
v 2.146643 7.487500 -5.000000
v 2.146643 7.487500 -4.325000
v 2.146643 7.487500 -3.650000
v 2.146643 7.487500 -2.975000
v 2.146643 7.487500 -2.300000
v 2.146643 7.487500 -1.625000
v 2.146643 7.487500 -0.950000
v 2.146643 7.487500 -0.275000
v 2.716950 7.012500 -9.725000
v 2.716950 7.012500 -9.050000
v 2.716950 7.071875 -9.725000
v 2.716950 7.012500 -8.375000
v 2.716950 7.012500 -7.700000
v 2.716950 7.012500 -7.025000
v 2.716950 7.012500 -6.350000
v 2.716950 7.012500 -5.675000
v 2.716950 7.012500 -5.000000
v 2.716950 7.012500 -4.325000
v 2.716950 7.012500 -3.650000
v 2.716950 7.012500 -2.975000
v 2.716950 7.012500 -2.300000
v 2.716950 7.012500 -1.625000
v 2.716950 7.012500 -0.950000
v 2.716950 7.012500 -0.275000
v 2.716950 7.071875 -0.275000
v 2.716950 7.131250 -9.725000
v 2.716950 7.131250 -0.275000
v 2.716950 7.190625 -9.725000
v 2.716950 7.190625 -0.275000
v 2.716950 7.250000 -9.725000
v 2.716950 7.250000 -0.275000
v 2.716950 7.309375 -9.725000
v 2.716950 7.309375 -0.275000
v 2.716950 7.368750 -9.725000
v 2.716950 7.368750 -0.275000
v 2.716950 7.428125 -9.725000
v 2.716950 7.428125 -0.275000
v 2.716950 7.487500 -9.050000
v 2.716950 7.487500 -9.725000
v 2.716950 7.487500 -8.375000
v 2.716950 7.487500 -7.700000
v 2.716950 7.487500 -7.025000
v 2.716950 7.487500 -6.350000
v 2.716950 7.487500 -5.675000
v 2.716950 7.487500 -5.000000
v 2.716950 7.487500 -4.325000
v 2.716950 7.487500 -3.650000
v 2.716950 7.487500 -2.975000
v 2.716950 7.487500 -2.300000
v 2.716950 7.487500 -1.625000
v 2.716950 7.487500 -0.950000
v 2.716950 7.487500 -0.275000
v 3.287257 7.012500 -9.725000
v 3.287257 7.012500 -9.050000
v 3.287257 7.071875 -9.725000
v 3.287257 7.012500 -8.375000
v 3.287257 7.012500 -7.700000
v 3.287257 7.012500 -7.025000
v 3.287257 7.012500 -6.350000
v 3.287257 7.012500 -5.675000
v 3.287257 7.012500 -5.000000
v 3.287257 7.012500 -4.325000
v 3.287257 7.012500 -3.650000
v 3.287257 7.012500 -2.975000
v 3.287257 7.012500 -2.300000
v 3.287257 7.012500 -1.625000
v 3.287257 7.012500 -0.950000
v 3.287257 7.012500 -0.275000
v 3.287257 7.071875 -0.275000
v 3.287257 7.131250 -9.725000
v 3.287257 7.131250 -0.275000
v 3.287257 7.190625 -9.725000
v 3.287257 7.190625 -0.275000
v 3.287257 7.250000 -9.725000
v 3.287257 7.250000 -0.275000
v 3.287257 7.309375 -9.725000
v 3.287257 7.309375 -0.275000
v 3.287257 7.368750 -9.725000
v 3.287257 7.368750 -0.275000
v 3.287257 7.428125 -9.725000
v 3.287257 7.428125 -0.275000
v 3.287257 7.487500 -9.050000
v 3.287257 7.487500 -9.725000
v 3.287257 7.487500 -8.375000
v 3.287257 7.487500 -7.700000
v 3.287257 7.487500 -7.025000
v 3.287257 7.487500 -6.350000
v 3.287257 7.487500 -5.675000
v 3.287257 7.487500 -5.000000
v 3.287257 7.487500 -4.325000
v 3.287257 7.487500 -3.650000
v 3.287257 7.487500 -2.975000
v 3.287257 7.487500 -2.300000
v 3.287257 7.487500 -1.625000
v 3.287257 7.487500 -0.950000
v 3.287257 7.487500 -0.275000
v 3.857565 7.012500 -9.725000
v 3.857565 7.012500 -9.050000
v 3.857565 7.071875 -9.725000
v 3.857565 7.012500 -8.375000
v 3.857565 7.012500 -7.700000
v 3.857565 7.012500 -7.025000
v 3.857565 7.012500 -6.350000
v 3.857565 7.012500 -5.675000
v 3.857565 7.012500 -5.000000
v 3.857565 7.012500 -4.325000
v 3.857565 7.012500 -3.650000
v 3.857565 7.012500 -2.975000
v 3.857565 7.012500 -2.300000
v 3.857565 7.012500 -1.625000
v 3.857565 7.012500 -0.950000
v 3.857565 7.012500 -0.275000
v 3.857565 7.071875 -0.275000
v 3.857565 7.131250 -9.725000
v 3.857565 7.131250 -0.275000
v 3.857565 7.190625 -9.725000
v 3.857565 7.190625 -0.275000
v 3.857565 7.250000 -9.725000
v 3.857565 7.250000 -0.275000
v 3.857565 7.309375 -9.725000
v 3.857565 7.309375 -0.275000
v 3.857565 7.368750 -9.725000
v 3.857565 7.368750 -0.275000
v 3.857565 7.428125 -9.725000
v 3.857565 7.428125 -0.275000
v 3.857565 7.487500 -9.050000
v 3.857565 7.487500 -9.725000
v 3.857565 7.487500 -8.375000
v 3.857565 7.487500 -7.700000
v 3.857565 7.487500 -7.025000
v 3.857565 7.487500 -6.350000
v 3.857565 7.487500 -5.675000
v 3.857565 7.487500 -5.000000
v 3.857565 7.487500 -4.325000
v 3.857565 7.487500 -3.650000
v 3.857565 7.487500 -2.975000
v 3.857565 7.487500 -2.300000
v 3.857565 7.487500 -1.625000
v 3.857565 7.487500 -0.950000
v 3.857565 7.487500 -0.275000
v 4.427872 7.012500 -9.725000
v 4.427872 7.012500 -9.050000
v 4.427872 7.071875 -9.725000
v 4.427872 7.012500 -8.375000
v 4.427872 7.012500 -7.700000
v 4.427872 7.012500 -7.025000
v 4.427872 7.012500 -6.350000
v 4.427872 7.012500 -5.675000
v 4.427872 7.012500 -5.000000
v 4.427872 7.012500 -4.325000
v 4.427872 7.012500 -3.650000
v 4.427872 7.012500 -2.975000
v 4.427872 7.012500 -2.300000
v 4.427872 7.012500 -1.625000
v 4.427872 7.012500 -0.950000
v 4.427872 7.012500 -0.275000
v 4.427872 7.071875 -0.275000
v 4.427872 7.131250 -9.725000
v 4.427872 7.131250 -0.275000
v 4.427872 7.190625 -9.725000
v 4.427872 7.190625 -0.275000
v 4.427872 7.250000 -9.725000
v 4.427872 7.250000 -0.275000
v 4.427872 7.309375 -9.725000
v 4.427872 7.309375 -0.275000
v 4.427872 7.368750 -9.725000
v 4.427872 7.368750 -0.275000
v 4.427872 7.428125 -9.725000
v 4.427872 7.428125 -0.275000
v 4.427872 7.487500 -9.050000
v 4.427872 7.487500 -9.725000
v 4.427872 7.487500 -8.375000
v 4.427872 7.487500 -7.700000
v 4.427872 7.487500 -7.025000
v 4.427872 7.487500 -6.350000
v 4.427872 7.487500 -5.675000
v 4.427872 7.487500 -5.000000
v 4.427872 7.487500 -4.325000
v 4.427872 7.487500 -3.650000
v 4.427872 7.487500 -2.975000
v 4.427872 7.487500 -2.300000
v 4.427872 7.487500 -1.625000
v 4.427872 7.487500 -0.950000
v 4.427872 7.487500 -0.275000
v 4.998179 7.012500 -9.725000
v 4.998179 7.012500 -9.050000
v 4.998179 7.071875 -9.050000
v 4.998179 7.071875 -9.725000
v 4.998179 7.012500 -8.375000
v 4.998179 7.071875 -8.375000
v 4.998179 7.012500 -7.700000
v 4.998179 7.071875 -7.700000
v 4.998179 7.012500 -7.025000
v 4.998179 7.071875 -7.025000
v 4.998179 7.012500 -6.350000
v 4.998179 7.071875 -6.350000
v 4.998179 7.012500 -5.675000
v 4.998179 7.071875 -5.675000
v 4.998179 7.012500 -5.000000
v 4.998179 7.071875 -5.000000
v 4.998179 7.012500 -4.325000
v 4.998179 7.071875 -4.325000
v 4.998179 7.012500 -3.650000
v 4.998179 7.071875 -3.650000
v 4.998179 7.012500 -2.975000
v 4.998179 7.071875 -2.975000
v 4.998179 7.012500 -2.300000
v 4.998179 7.071875 -2.300000
v 4.998179 7.012500 -1.625000
v 4.998179 7.071875 -1.625000
v 4.998179 7.012500 -0.950000
v 4.998179 7.071875 -0.950000
v 4.998179 7.012500 -0.275000
v 4.998179 7.071875 -0.275000
v 4.998179 7.131250 -9.050000
v 4.998179 7.131250 -9.725000
v 4.998179 7.131250 -8.375000
v 4.998179 7.131250 -7.700000
v 4.998179 7.131250 -7.025000
v 4.998179 7.131250 -6.350000
v 4.998179 7.131250 -5.675000
v 4.998179 7.131250 -5.000000
v 4.998179 7.131250 -4.325000
v 4.998179 7.131250 -3.650000
v 4.998179 7.131250 -2.975000
v 4.998179 7.131250 -2.300000
v 4.998179 7.131250 -1.625000
v 4.998179 7.131250 -0.950000
v 4.998179 7.131250 -0.275000
v 4.998179 7.190625 -9.050000
v 4.998179 7.190625 -9.725000
v 4.998179 7.190625 -8.375000
v 4.998179 7.190625 -7.700000
v 4.998179 7.190625 -7.025000
v 4.998179 7.190625 -6.350000
v 4.998179 7.190625 -5.675000
v 4.998179 7.190625 -5.000000
v 4.998179 7.190625 -4.325000
v 4.998179 7.190625 -3.650000
v 4.998179 7.190625 -2.975000
v 4.998179 7.190625 -2.300000
v 4.998179 7.190625 -1.625000
v 4.998179 7.190625 -0.950000
v 4.998179 7.190625 -0.275000
v 4.998179 7.250000 -9.050000
v 4.998179 7.250000 -9.725000
v 4.998179 7.250000 -8.375000
v 4.998179 7.250000 -7.700000
v 4.998179 7.250000 -7.025000
v 4.998179 7.250000 -6.350000
v 4.998179 7.250000 -5.675000
v 4.998179 7.250000 -5.000000
v 4.998179 7.250000 -4.325000
v 4.998179 7.250000 -3.650000
v 4.998179 7.250000 -2.975000
v 4.998179 7.250000 -2.300000
v 4.998179 7.250000 -1.625000
v 4.998179 7.250000 -0.950000
v 4.998179 7.250000 -0.275000
v 4.998179 7.309375 -9.050000
v 4.998179 7.309375 -9.725000
v 4.998179 7.309375 -8.375000
v 4.998179 7.309375 -7.700000
v 4.998179 7.309375 -7.025000
v 4.998179 7.309375 -6.350000
v 4.998179 7.309375 -5.675000
v 4.998179 7.309375 -5.000000
v 4.998179 7.309375 -4.325000
v 4.998179 7.309375 -3.650000
v 4.998179 7.309375 -2.975000
v 4.998179 7.309375 -2.300000
v 4.998179 7.309375 -1.625000
v 4.998179 7.309375 -0.950000
v 4.998179 7.309375 -0.275000
v 4.998179 7.368750 -9.050000
v 4.998179 7.368750 -9.725000
v 4.998179 7.368750 -8.375000
v 4.998179 7.368750 -7.700000
v 4.998179 7.368750 -7.025000
v 4.998179 7.368750 -6.350000
v 4.998179 7.368750 -5.675000
v 4.998179 7.368750 -5.000000
v 4.998179 7.368750 -4.325000
v 4.998179 7.368750 -3.650000
v 4.998179 7.368750 -2.975000
v 4.998179 7.368750 -2.300000
v 4.998179 7.368750 -1.625000
v 4.998179 7.368750 -0.950000
v 4.998179 7.368750 -0.275000
v 4.998179 7.428125 -9.050000
v 4.998179 7.428125 -9.725000
v 4.998179 7.428125 -8.375000
v 4.998179 7.428125 -7.700000
v 4.998179 7.428125 -7.025000
v 4.998179 7.428125 -6.350000
v 4.998179 7.428125 -5.675000
v 4.998179 7.428125 -5.000000
v 4.998179 7.428125 -4.325000
v 4.998179 7.428125 -3.650000
v 4.998179 7.428125 -2.975000
v 4.998179 7.428125 -2.300000
v 4.998179 7.428125 -1.625000
v 4.998179 7.428125 -0.950000
v 4.998179 7.428125 -0.275000
v 4.998179 7.487500 -9.050000
v 4.998179 7.487500 -9.725000
v 4.998179 7.487500 -8.375000
v 4.998179 7.487500 -7.700000
v 4.998179 7.487500 -7.025000
v 4.998179 7.487500 -6.350000
v 4.998179 7.487500 -5.675000
v 4.998179 7.487500 -5.000000
v 4.998179 7.487500 -4.325000
v 4.998179 7.487500 -3.650000
v 4.998179 7.487500 -2.975000
v 4.998179 7.487500 -2.300000
v 4.998179 7.487500 -1.625000
v 4.998179 7.487500 -0.950000
v 4.998179 7.487500 -0.275000
f 1 2 3
f 1 3 4
f 1 5 6
f 1 6 4
f 1 2 7
f 1 7 5
f 4 3 8
f 4 8 9
f 4 6 10
f 4 10 9
f 9 8 11
f 9 11 12
f 9 10 13
f 9 13 12
f 12 11 14
f 12 14 15
f 12 13 16
f 12 16 15
f 15 14 17
f 15 17 18
f 15 16 19
f 15 19 18
f 18 17 20
f 18 20 21
f 18 19 22
f 18 22 21
f 21 20 23
f 21 23 24
f 21 22 25
f 21 25 24
f 24 23 26
f 24 26 27
f 24 25 28
f 24 28 27
f 27 26 29
f 27 29 30
f 27 28 31
f 27 31 30
f 30 29 32
f 30 32 33
f 30 31 34
f 30 34 33
f 33 32 35
f 33 35 36
f 33 34 37
f 33 37 36
f 36 35 38
f 36 38 39
f 36 37 40
f 36 40 39
f 39 38 41
f 39 41 42
f 39 40 43
f 39 43 42
f 42 41 44
f 42 44 45
f 42 43 46
f 42 46 45
f 45 46 47
f 45 47 44
f 2 48 49
f 2 49 3
f 2 48 50
f 2 50 7
f 3 49 51
f 3 51 8
f 8 51 52
f 8 52 11
f 11 52 53
f 11 53 14
f 14 53 54
f 14 54 17
f 17 54 55
f 17 55 20
f 20 55 56
f 20 56 23
f 23 56 57
f 23 57 26
f 26 57 58
f 26 58 29
f 29 58 59
f 29 59 32
f 32 59 60
f 32 60 35
f 35 60 61
f 35 61 38
f 38 61 62
f 38 62 41
f 41 62 63
f 41 63 44
f 44 47 64
f 44 64 63
f 48 65 66
f 48 66 49
f 48 65 67
f 48 67 50
f 49 66 68
f 49 68 51
f 51 68 69
f 51 69 52
f 52 69 70
f 52 70 53
f 53 70 71
f 53 71 54
f 54 71 72
f 54 72 55
f 55 72 73
f 55 73 56
f 56 73 74
f 56 74 57
f 57 74 75
f 57 75 58
f 58 75 76
f 58 76 59
f 59 76 77
f 59 77 60
f 60 77 78
f 60 78 61
f 61 78 79
f 61 79 62
f 62 79 80
f 62 80 63
f 63 64 81
f 63 81 80
f 65 82 83
f 65 83 66
f 65 82 84
f 65 84 67
f 66 83 85
f 66 85 68
f 68 85 86
f 68 86 69
f 69 86 87
f 69 87 70
f 70 87 88
f 70 88 71
f 71 88 89
f 71 89 72
f 72 89 90
f 72 90 73
f 73 90 91
f 73 91 74
f 74 91 92
f 74 92 75
f 75 92 93
f 75 93 76
f 76 93 94
f 76 94 77
f 77 94 95
f 77 95 78
f 78 95 96
f 78 96 79
f 79 96 97
f 79 97 80
f 80 81 98
f 80 98 97
f 82 99 100
f 82 100 83
f 82 99 101
f 82 101 84
f 83 100 102
f 83 102 85
f 85 102 103
f 85 103 86
f 86 103 104
f 86 104 87
f 87 104 105
f 87 105 88
f 88 105 106
f 88 106 89
f 89 106 107
f 89 107 90
f 90 107 108
f 90 108 91
f 91 108 109
f 91 109 92
f 92 109 110
f 92 110 93
f 93 110 111
f 93 111 94
f 94 111 112
f 94 112 95
f 95 112 113
f 95 113 96
f 96 113 114
f 96 114 97
f 97 98 115
f 97 115 114
f 99 116 117
f 99 117 100
f 99 116 118
f 99 118 101
f 100 117 119
f 100 119 102
f 102 119 120
f 102 120 103
f 103 120 121
f 103 121 104
f 104 121 122
f 104 122 105
f 105 122 123
f 105 123 106
f 106 123 124
f 106 124 107
f 107 124 125
f 107 125 108
f 108 125 126
f 108 126 109
f 109 126 127
f 109 127 110
f 110 127 128
f 110 128 111
f 111 128 129
f 111 129 112
f 112 129 130
f 112 130 113
f 113 130 131
f 113 131 114
f 114 115 132
f 114 132 131
f 116 133 134
f 116 134 117
f 116 133 135
f 116 135 118
f 117 134 136
f 117 136 119
f 119 136 137
f 119 137 120
f 120 137 138
f 120 138 121
f 121 138 139
f 121 139 122
f 122 139 140
f 122 140 123
f 123 140 141
f 123 141 124
f 124 141 142
f 124 142 125
f 125 142 143
f 125 143 126
f 126 143 144
f 126 144 127
f 127 144 145
f 127 145 128
f 128 145 146
f 128 146 129
f 129 146 147
f 129 147 130
f 130 147 148
f 130 148 131
f 131 132 149
f 131 149 148
f 133 150 151
f 133 151 134
f 150 151 152
f 150 152 153
f 133 150 153
f 133 153 135
f 134 151 154
f 134 154 136
f 151 154 155
f 151 155 152
f 136 154 156
f 136 156 137
f 154 156 157
f 154 157 155
f 137 156 158
f 137 158 138
f 156 158 159
f 156 159 157
f 138 158 160
f 138 160 139
f 158 160 161
f 158 161 159
f 139 160 162
f 139 162 140
f 160 162 163
f 160 163 161
f 140 162 164
f 140 164 141
f 162 164 165
f 162 165 163
f 141 164 166
f 141 166 142
f 164 166 167
f 164 167 165
f 142 166 168
f 142 168 143
f 166 168 169
f 166 169 167
f 143 168 170
f 143 170 144
f 168 170 171
f 168 171 169
f 144 170 172
f 144 172 145
f 170 172 173
f 170 173 171
f 145 172 174
f 145 174 146
f 172 174 175
f 172 175 173
f 146 174 176
f 146 176 147
f 174 176 177
f 174 177 175
f 147 176 178
f 147 178 148
f 176 178 179
f 176 179 177
f 148 149 179
f 148 179 178
f 5 180 181
f 5 181 6
f 5 7 182
f 5 182 180
f 6 181 183
f 6 183 10
f 10 183 184
f 10 184 13
f 13 184 185
f 13 185 16
f 16 185 186
f 16 186 19
f 19 186 187
f 19 187 22
f 22 187 188
f 22 188 25
f 25 188 189
f 25 189 28
f 28 189 190
f 28 190 31
f 31 190 191
f 31 191 34
f 34 191 192
f 34 192 37
f 37 192 193
f 37 193 40
f 40 193 194
f 40 194 43
f 43 194 195
f 43 195 46
f 46 195 196
f 46 196 47
f 7 50 197
f 7 197 182
f 47 196 198
f 47 198 64
f 50 67 199
f 50 199 197
f 64 198 200
f 64 200 81
f 67 84 201
f 67 201 199
f 81 200 202
f 81 202 98
f 84 101 203
f 84 203 201
f 98 202 204
f 98 204 115
f 101 118 205
f 101 205 203
f 115 204 206
f 115 206 132
f 118 135 207
f 118 207 205
f 132 206 208
f 132 208 149
f 153 152 209
f 153 209 210
f 135 153 210
f 135 210 207
f 152 155 211
f 152 211 209
f 155 157 212
f 155 212 211
f 157 159 213
f 157 213 212
f 159 161 214
f 159 214 213
f 161 163 215
f 161 215 214
f 163 165 216
f 163 216 215
f 165 167 217
f 165 217 216
f 167 169 218
f 167 218 217
f 169 171 219
f 169 219 218
f 171 173 220
f 171 220 219
f 173 175 221
f 173 221 220
f 175 177 222
f 175 222 221
f 177 179 223
f 177 223 222
f 149 208 223
f 149 223 179
f 180 224 225
f 180 225 181
f 180 182 226
f 180 226 224
f 181 225 227
f 181 227 183
f 183 227 228
f 183 228 184
f 184 228 229
f 184 229 185
f 185 229 230
f 185 230 186
f 186 230 231
f 186 231 187
f 187 231 232
f 187 232 188
f 188 232 233
f 188 233 189
f 189 233 234
f 189 234 190
f 190 234 235
f 190 235 191
f 191 235 236
f 191 236 192
f 192 236 237
f 192 237 193
f 193 237 238
f 193 238 194
f 194 238 239
f 194 239 195
f 195 239 240
f 195 240 196
f 182 197 241
f 182 241 226
f 196 240 242
f 196 242 198
f 197 199 243
f 197 243 241
f 198 242 244
f 198 244 200
f 199 201 245
f 199 245 243
f 200 244 246
f 200 246 202
f 201 203 247
f 201 247 245
f 202 246 248
f 202 248 204
f 203 205 249
f 203 249 247
f 204 248 250
f 204 250 206
f 205 207 251
f 205 251 249
f 206 250 252
f 206 252 208
f 210 209 253
f 210 253 254
f 207 210 254
f 207 254 251
f 209 211 255
f 209 255 253
f 211 212 256
f 211 256 255
f 212 213 257
f 212 257 256
f 213 214 258
f 213 258 257
f 214 215 259
f 214 259 258
f 215 216 260
f 215 260 259
f 216 217 261
f 216 261 260
f 217 218 262
f 217 262 261
f 218 219 263
f 218 263 262
f 219 220 264
f 219 264 263
f 220 221 265
f 220 265 264
f 221 222 266
f 221 266 265
f 222 223 267
f 222 267 266
f 208 252 267
f 208 267 223
f 224 268 269
f 224 269 225
f 224 226 270
f 224 270 268
f 225 269 271
f 225 271 227
f 227 271 272
f 227 272 228
f 228 272 273
f 228 273 229
f 229 273 274
f 229 274 230
f 230 274 275
f 230 275 231
f 231 275 276
f 231 276 232
f 232 276 277
f 232 277 233
f 233 277 278
f 233 278 234
f 234 278 279
f 234 279 235
f 235 279 280
f 235 280 236
f 236 280 281
f 236 281 237
f 237 281 282
f 237 282 238
f 238 282 283
f 238 283 239
f 239 283 284
f 239 284 240
f 226 241 285
f 226 285 270
f 240 284 286
f 240 286 242
f 241 243 287
f 241 287 285
f 242 286 288
f 242 288 244
f 243 245 289
f 243 289 287
f 244 288 290
f 244 290 246
f 245 247 291
f 245 291 289
f 246 290 292
f 246 292 248
f 247 249 293
f 247 293 291
f 248 292 294
f 248 294 250
f 249 251 295
f 249 295 293
f 250 294 296
f 250 296 252
f 254 253 297
f 254 297 298
f 251 254 298
f 251 298 295
f 253 255 299
f 253 299 297
f 255 256 300
f 255 300 299
f 256 257 301
f 256 301 300
f 257 258 302
f 257 302 301
f 258 259 303
f 258 303 302
f 259 260 304
f 259 304 303
f 260 261 305
f 260 305 304
f 261 262 306
f 261 306 305
f 262 263 307
f 262 307 306
f 263 264 308
f 263 308 307
f 264 265 309
f 264 309 308
f 265 266 310
f 265 310 309
f 266 267 311
f 266 311 310
f 252 296 311
f 252 311 267
f 268 312 313
f 268 313 269
f 268 270 314
f 268 314 312
f 269 313 315
f 269 315 271
f 271 315 316
f 271 316 272
f 272 316 317
f 272 317 273
f 273 317 318
f 273 318 274
f 274 318 319
f 274 319 275
f 275 319 320
f 275 320 276
f 276 320 321
f 276 321 277
f 277 321 322
f 277 322 278
f 278 322 323
f 278 323 279
f 279 323 324
f 279 324 280
f 280 324 325
f 280 325 281
f 281 325 326
f 281 326 282
f 282 326 327
f 282 327 283
f 283 327 328
f 283 328 284
f 270 285 329
f 270 329 314
f 284 328 330
f 284 330 286
f 285 287 331
f 285 331 329
f 286 330 332
f 286 332 288
f 287 289 333
f 287 333 331
f 288 332 334
f 288 334 290
f 289 291 335
f 289 335 333
f 290 334 336
f 290 336 292
f 291 293 337
f 291 337 335
f 292 336 338
f 292 338 294
f 293 295 339
f 293 339 337
f 294 338 340
f 294 340 296
f 298 297 341
f 298 341 342
f 295 298 342
f 295 342 339
f 297 299 343
f 297 343 341
f 299 300 344
f 299 344 343
f 300 301 345
f 300 345 344
f 301 302 346
f 301 346 345
f 302 303 347
f 302 347 346
f 303 304 348
f 303 348 347
f 304 305 349
f 304 349 348
f 305 306 350
f 305 350 349
f 306 307 351
f 306 351 350
f 307 308 352
f 307 352 351
f 308 309 353
f 308 353 352
f 309 310 354
f 309 354 353
f 310 311 355
f 310 355 354
f 296 340 355
f 296 355 311
f 312 356 357
f 312 357 313
f 312 314 358
f 312 358 356
f 313 357 359
f 313 359 315
f 315 359 360
f 315 360 316
f 316 360 361
f 316 361 317
f 317 361 362
f 317 362 318
f 318 362 363
f 318 363 319
f 319 363 364
f 319 364 320
f 320 364 365
f 320 365 321
f 321 365 366
f 321 366 322
f 322 366 367
f 322 367 323
f 323 367 368
f 323 368 324
f 324 368 369
f 324 369 325
f 325 369 370
f 325 370 326
f 326 370 371
f 326 371 327
f 327 371 372
f 327 372 328
f 314 329 373
f 314 373 358
f 328 372 374
f 328 374 330
f 329 331 375
f 329 375 373
f 330 374 376
f 330 376 332
f 331 333 377
f 331 377 375
f 332 376 378
f 332 378 334
f 333 335 379
f 333 379 377
f 334 378 380
f 334 380 336
f 335 337 381
f 335 381 379
f 336 380 382
f 336 382 338
f 337 339 383
f 337 383 381
f 338 382 384
f 338 384 340
f 342 341 385
f 342 385 386
f 339 342 386
f 339 386 383
f 341 343 387
f 341 387 385
f 343 344 388
f 343 388 387
f 344 345 389
f 344 389 388
f 345 346 390
f 345 390 389
f 346 347 391
f 346 391 390
f 347 348 392
f 347 392 391
f 348 349 393
f 348 393 392
f 349 350 394
f 349 394 393
f 350 351 395
f 350 395 394
f 351 352 396
f 351 396 395
f 352 353 397
f 352 397 396
f 353 354 398
f 353 398 397
f 354 355 399
f 354 399 398
f 340 384 399
f 340 399 355
f 356 400 401
f 356 401 357
f 356 358 402
f 356 402 400
f 357 401 403
f 357 403 359
f 359 403 404
f 359 404 360
f 360 404 405
f 360 405 361
f 361 405 406
f 361 406 362
f 362 406 407
f 362 407 363
f 363 407 408
f 363 408 364
f 364 408 409
f 364 409 365
f 365 409 410
f 365 410 366
f 366 410 411
f 366 411 367
f 367 411 412
f 367 412 368
f 368 412 413
f 368 413 369
f 369 413 414
f 369 414 370
f 370 414 415
f 370 415 371
f 371 415 416
f 371 416 372
f 358 373 417
f 358 417 402
f 372 416 418
f 372 418 374
f 373 375 419
f 373 419 417
f 374 418 420
f 374 420 376
f 375 377 421
f 375 421 419
f 376 420 422
f 376 422 378
f 377 379 423
f 377 423 421
f 378 422 424
f 378 424 380
f 379 381 425
f 379 425 423
f 380 424 426
f 380 426 382
f 381 383 427
f 381 427 425
f 382 426 428
f 382 428 384
f 386 385 429
f 386 429 430
f 383 386 430
f 383 430 427
f 385 387 431
f 385 431 429
f 387 388 432
f 387 432 431
f 388 389 433
f 388 433 432
f 389 390 434
f 389 434 433
f 390 391 435
f 390 435 434
f 391 392 436
f 391 436 435
f 392 393 437
f 392 437 436
f 393 394 438
f 393 438 437
f 394 395 439
f 394 439 438
f 395 396 440
f 395 440 439
f 396 397 441
f 396 441 440
f 397 398 442
f 397 442 441
f 398 399 443
f 398 443 442
f 384 428 443
f 384 443 399
f 400 444 445
f 400 445 401
f 400 402 446
f 400 446 444
f 401 445 447
f 401 447 403
f 403 447 448
f 403 448 404
f 404 448 449
f 404 449 405
f 405 449 450
f 405 450 406
f 406 450 451
f 406 451 407
f 407 451 452
f 407 452 408
f 408 452 453
f 408 453 409
f 409 453 454
f 409 454 410
f 410 454 455
f 410 455 411
f 411 455 456
f 411 456 412
f 412 456 457
f 412 457 413
f 413 457 458
f 413 458 414
f 414 458 459
f 414 459 415
f 415 459 460
f 415 460 416
f 402 417 461
f 402 461 446
f 416 460 462
f 416 462 418
f 417 419 463
f 417 463 461
f 418 462 464
f 418 464 420
f 419 421 465
f 419 465 463
f 420 464 466
f 420 466 422
f 421 423 467
f 421 467 465
f 422 466 468
f 422 468 424
f 423 425 469
f 423 469 467
f 424 468 470
f 424 470 426
f 425 427 471
f 425 471 469
f 426 470 472
f 426 472 428
f 430 429 473
f 430 473 474
f 427 430 474
f 427 474 471
f 429 431 475
f 429 475 473
f 431 432 476
f 431 476 475
f 432 433 477
f 432 477 476
f 433 434 478
f 433 478 477
f 434 435 479
f 434 479 478
f 435 436 480
f 435 480 479
f 436 437 481
f 436 481 480
f 437 438 482
f 437 482 481
f 438 439 483
f 438 483 482
f 439 440 484
f 439 484 483
f 440 441 485
f 440 485 484
f 441 442 486
f 441 486 485
f 442 443 487
f 442 487 486
f 428 472 487
f 428 487 443
f 444 488 489
f 444 489 445
f 444 446 490
f 444 490 488
f 445 489 491
f 445 491 447
f 447 491 492
f 447 492 448
f 448 492 493
f 448 493 449
f 449 493 494
f 449 494 450
f 450 494 495
f 450 495 451
f 451 495 496
f 451 496 452
f 452 496 497
f 452 497 453
f 453 497 498
f 453 498 454
f 454 498 499
f 454 499 455
f 455 499 500
f 455 500 456
f 456 500 501
f 456 501 457
f 457 501 502
f 457 502 458
f 458 502 503
f 458 503 459
f 459 503 504
f 459 504 460
f 446 461 505
f 446 505 490
f 460 504 506
f 460 506 462
f 461 463 507
f 461 507 505
f 462 506 508
f 462 508 464
f 463 465 509
f 463 509 507
f 464 508 510
f 464 510 466
f 465 467 511
f 465 511 509
f 466 510 512
f 466 512 468
f 467 469 513
f 467 513 511
f 468 512 514
f 468 514 470
f 469 471 515
f 469 515 513
f 470 514 516
f 470 516 472
f 474 473 517
f 474 517 518
f 471 474 518
f 471 518 515
f 473 475 519
f 473 519 517
f 475 476 520
f 475 520 519
f 476 477 521
f 476 521 520
f 477 478 522
f 477 522 521
f 478 479 523
f 478 523 522
f 479 480 524
f 479 524 523
f 480 481 525
f 480 525 524
f 481 482 526
f 481 526 525
f 482 483 527
f 482 527 526
f 483 484 528
f 483 528 527
f 484 485 529
f 484 529 528
f 485 486 530
f 485 530 529
f 486 487 531
f 486 531 530
f 472 516 531
f 472 531 487
f 488 532 533
f 488 533 489
f 488 490 534
f 488 534 532
f 489 533 535
f 489 535 491
f 491 535 536
f 491 536 492
f 492 536 537
f 492 537 493
f 493 537 538
f 493 538 494
f 494 538 539
f 494 539 495
f 495 539 540
f 495 540 496
f 496 540 541
f 496 541 497
f 497 541 542
f 497 542 498
f 498 542 543
f 498 543 499
f 499 543 544
f 499 544 500
f 500 544 545
f 500 545 501
f 501 545 546
f 501 546 502
f 502 546 547
f 502 547 503
f 503 547 548
f 503 548 504
f 490 505 549
f 490 549 534
f 504 548 550
f 504 550 506
f 505 507 551
f 505 551 549
f 506 550 552
f 506 552 508
f 507 509 553
f 507 553 551
f 508 552 554
f 508 554 510
f 509 511 555
f 509 555 553
f 510 554 556
f 510 556 512
f 511 513 557
f 511 557 555
f 512 556 558
f 512 558 514
f 513 515 559
f 513 559 557
f 514 558 560
f 514 560 516
f 518 517 561
f 518 561 562
f 515 518 562
f 515 562 559
f 517 519 563
f 517 563 561
f 519 520 564
f 519 564 563
f 520 521 565
f 520 565 564
f 521 522 566
f 521 566 565
f 522 523 567
f 522 567 566
f 523 524 568
f 523 568 567
f 524 525 569
f 524 569 568
f 525 526 570
f 525 570 569
f 526 527 571
f 526 571 570
f 527 528 572
f 527 572 571
f 528 529 573
f 528 573 572
f 529 530 574
f 529 574 573
f 530 531 575
f 530 575 574
f 516 560 575
f 516 575 531
f 532 576 577
f 532 577 533
f 532 534 578
f 532 578 576
f 533 577 579
f 533 579 535
f 535 579 580
f 535 580 536
f 536 580 581
f 536 581 537
f 537 581 582
f 537 582 538
f 538 582 583
f 538 583 539
f 539 583 584
f 539 584 540
f 540 584 585
f 540 585 541
f 541 585 586
f 541 586 542
f 542 586 587
f 542 587 543
f 543 587 588
f 543 588 544
f 544 588 589
f 544 589 545
f 545 589 590
f 545 590 546
f 546 590 591
f 546 591 547
f 547 591 592
f 547 592 548
f 534 549 593
f 534 593 578
f 548 592 594
f 548 594 550
f 549 551 595
f 549 595 593
f 550 594 596
f 550 596 552
f 551 553 597
f 551 597 595
f 552 596 598
f 552 598 554
f 553 555 599
f 553 599 597
f 554 598 600
f 554 600 556
f 555 557 601
f 555 601 599
f 556 600 602
f 556 602 558
f 557 559 603
f 557 603 601
f 558 602 604
f 558 604 560
f 562 561 605
f 562 605 606
f 559 562 606
f 559 606 603
f 561 563 607
f 561 607 605
f 563 564 608
f 563 608 607
f 564 565 609
f 564 609 608
f 565 566 610
f 565 610 609
f 566 567 611
f 566 611 610
f 567 568 612
f 567 612 611
f 568 569 613
f 568 613 612
f 569 570 614
f 569 614 613
f 570 571 615
f 570 615 614
f 571 572 616
f 571 616 615
f 572 573 617
f 572 617 616
f 573 574 618
f 573 618 617
f 574 575 619
f 574 619 618
f 560 604 619
f 560 619 575
f 576 620 621
f 576 621 577
f 576 578 622
f 576 622 620
f 577 621 623
f 577 623 579
f 579 623 624
f 579 624 580
f 580 624 625
f 580 625 581
f 581 625 626
f 581 626 582
f 582 626 627
f 582 627 583
f 583 627 628
f 583 628 584
f 584 628 629
f 584 629 585
f 585 629 630
f 585 630 586
f 586 630 631
f 586 631 587
f 587 631 632
f 587 632 588
f 588 632 633
f 588 633 589
f 589 633 634
f 589 634 590
f 590 634 635
f 590 635 591
f 591 635 636
f 591 636 592
f 578 593 637
f 578 637 622
f 592 636 638
f 592 638 594
f 593 595 639
f 593 639 637
f 594 638 640
f 594 640 596
f 595 597 641
f 595 641 639
f 596 640 642
f 596 642 598
f 597 599 643
f 597 643 641
f 598 642 644
f 598 644 600
f 599 601 645
f 599 645 643
f 600 644 646
f 600 646 602
f 601 603 647
f 601 647 645
f 602 646 648
f 602 648 604
f 606 605 649
f 606 649 650
f 603 606 650
f 603 650 647
f 605 607 651
f 605 651 649
f 607 608 652
f 607 652 651
f 608 609 653
f 608 653 652
f 609 610 654
f 609 654 653
f 610 611 655
f 610 655 654
f 611 612 656
f 611 656 655
f 612 613 657
f 612 657 656
f 613 614 658
f 613 658 657
f 614 615 659
f 614 659 658
f 615 616 660
f 615 660 659
f 616 617 661
f 616 661 660
f 617 618 662
f 617 662 661
f 618 619 663
f 618 663 662
f 604 648 663
f 604 663 619
f 620 664 665
f 620 665 621
f 620 622 666
f 620 666 664
f 621 665 667
f 621 667 623
f 623 667 668
f 623 668 624
f 624 668 669
f 624 669 625
f 625 669 670
f 625 670 626
f 626 670 671
f 626 671 627
f 627 671 672
f 627 672 628
f 628 672 673
f 628 673 629
f 629 673 674
f 629 674 630
f 630 674 675
f 630 675 631
f 631 675 676
f 631 676 632
f 632 676 677
f 632 677 633
f 633 677 678
f 633 678 634
f 634 678 679
f 634 679 635
f 635 679 680
f 635 680 636
f 622 637 681
f 622 681 666
f 636 680 682
f 636 682 638
f 637 639 683
f 637 683 681
f 638 682 684
f 638 684 640
f 639 641 685
f 639 685 683
f 640 684 686
f 640 686 642
f 641 643 687
f 641 687 685
f 642 686 688
f 642 688 644
f 643 645 689
f 643 689 687
f 644 688 690
f 644 690 646
f 645 647 691
f 645 691 689
f 646 690 692
f 646 692 648
f 650 649 693
f 650 693 694
f 647 650 694
f 647 694 691
f 649 651 695
f 649 695 693
f 651 652 696
f 651 696 695
f 652 653 697
f 652 697 696
f 653 654 698
f 653 698 697
f 654 655 699
f 654 699 698
f 655 656 700
f 655 700 699
f 656 657 701
f 656 701 700
f 657 658 702
f 657 702 701
f 658 659 703
f 658 703 702
f 659 660 704
f 659 704 703
f 660 661 705
f 660 705 704
f 661 662 706
f 661 706 705
f 662 663 707
f 662 707 706
f 648 692 707
f 648 707 663
f 664 708 709
f 664 709 665
f 664 666 710
f 664 710 708
f 665 709 711
f 665 711 667
f 667 711 712
f 667 712 668
f 668 712 713
f 668 713 669
f 669 713 714
f 669 714 670
f 670 714 715
f 670 715 671
f 671 715 716
f 671 716 672
f 672 716 717
f 672 717 673
f 673 717 718
f 673 718 674
f 674 718 719
f 674 719 675
f 675 719 720
f 675 720 676
f 676 720 721
f 676 721 677
f 677 721 722
f 677 722 678
f 678 722 723
f 678 723 679
f 679 723 724
f 679 724 680
f 666 681 725
f 666 725 710
f 680 724 726
f 680 726 682
f 681 683 727
f 681 727 725
f 682 726 728
f 682 728 684
f 683 685 729
f 683 729 727
f 684 728 730
f 684 730 686
f 685 687 731
f 685 731 729
f 686 730 732
f 686 732 688
f 687 689 733
f 687 733 731
f 688 732 734
f 688 734 690
f 689 691 735
f 689 735 733
f 690 734 736
f 690 736 692
f 694 693 737
f 694 737 738
f 691 694 738
f 691 738 735
f 693 695 739
f 693 739 737
f 695 696 740
f 695 740 739
f 696 697 741
f 696 741 740
f 697 698 742
f 697 742 741
f 698 699 743
f 698 743 742
f 699 700 744
f 699 744 743
f 700 701 745
f 700 745 744
f 701 702 746
f 701 746 745
f 702 703 747
f 702 747 746
f 703 704 748
f 703 748 747
f 704 705 749
f 704 749 748
f 705 706 750
f 705 750 749
f 706 707 751
f 706 751 750
f 692 736 751
f 692 751 707
f 708 752 753
f 708 753 709
f 708 710 754
f 708 754 752
f 709 753 755
f 709 755 711
f 711 755 756
f 711 756 712
f 712 756 757
f 712 757 713
f 713 757 758
f 713 758 714
f 714 758 759
f 714 759 715
f 715 759 760
f 715 760 716
f 716 760 761
f 716 761 717
f 717 761 762
f 717 762 718
f 718 762 763
f 718 763 719
f 719 763 764
f 719 764 720
f 720 764 765
f 720 765 721
f 721 765 766
f 721 766 722
f 722 766 767
f 722 767 723
f 723 767 768
f 723 768 724
f 710 725 769
f 710 769 754
f 724 768 770
f 724 770 726
f 725 727 771
f 725 771 769
f 726 770 772
f 726 772 728
f 727 729 773
f 727 773 771
f 728 772 774
f 728 774 730
f 729 731 775
f 729 775 773
f 730 774 776
f 730 776 732
f 731 733 777
f 731 777 775
f 732 776 778
f 732 778 734
f 733 735 779
f 733 779 777
f 734 778 780
f 734 780 736
f 738 737 781
f 738 781 782
f 735 738 782
f 735 782 779
f 737 739 783
f 737 783 781
f 739 740 784
f 739 784 783
f 740 741 785
f 740 785 784
f 741 742 786
f 741 786 785
f 742 743 787
f 742 787 786
f 743 744 788
f 743 788 787
f 744 745 789
f 744 789 788
f 745 746 790
f 745 790 789
f 746 747 791
f 746 791 790
f 747 748 792
f 747 792 791
f 748 749 793
f 748 793 792
f 749 750 794
f 749 794 793
f 750 751 795
f 750 795 794
f 736 780 795
f 736 795 751
f 796 797 798
f 796 798 799
f 752 796 797
f 752 797 753
f 752 754 799
f 752 799 796
f 797 800 801
f 797 801 798
f 753 797 800
f 753 800 755
f 800 802 803
f 800 803 801
f 755 800 802
f 755 802 756
f 802 804 805
f 802 805 803
f 756 802 804
f 756 804 757
f 804 806 807
f 804 807 805
f 757 804 806
f 757 806 758
f 806 808 809
f 806 809 807
f 758 806 808
f 758 808 759
f 808 810 811
f 808 811 809
f 759 808 810
f 759 810 760
f 810 812 813
f 810 813 811
f 760 810 812
f 760 812 761
f 812 814 815
f 812 815 813
f 761 812 814
f 761 814 762
f 814 816 817
f 814 817 815
f 762 814 816
f 762 816 763
f 816 818 819
f 816 819 817
f 763 816 818
f 763 818 764
f 818 820 821
f 818 821 819
f 764 818 820
f 764 820 765
f 820 822 823
f 820 823 821
f 765 820 822
f 765 822 766
f 822 824 825
f 822 825 823
f 766 822 824
f 766 824 767
f 767 824 825
f 767 825 768
f 799 798 826
f 799 826 827
f 754 769 827
f 754 827 799
f 798 801 828
f 798 828 826
f 801 803 829
f 801 829 828
f 803 805 830
f 803 830 829
f 805 807 831
f 805 831 830
f 807 809 832
f 807 832 831
f 809 811 833
f 809 833 832
f 811 813 834
f 811 834 833
f 813 815 835
f 813 835 834
f 815 817 836
f 815 836 835
f 817 819 837
f 817 837 836
f 819 821 838
f 819 838 837
f 821 823 839
f 821 839 838
f 823 825 840
f 823 840 839
f 768 825 840
f 768 840 770
f 827 826 841
f 827 841 842
f 769 771 842
f 769 842 827
f 826 828 843
f 826 843 841
f 828 829 844
f 828 844 843
f 829 830 845
f 829 845 844
f 830 831 846
f 830 846 845
f 831 832 847
f 831 847 846
f 832 833 848
f 832 848 847
f 833 834 849
f 833 849 848
f 834 835 850
f 834 850 849
f 835 836 851
f 835 851 850
f 836 837 852
f 836 852 851
f 837 838 853
f 837 853 852
f 838 839 854
f 838 854 853
f 839 840 855
f 839 855 854
f 770 840 855
f 770 855 772
f 842 841 856
f 842 856 857
f 771 773 857
f 771 857 842
f 841 843 858
f 841 858 856
f 843 844 859
f 843 859 858
f 844 845 860
f 844 860 859
f 845 846 861
f 845 861 860
f 846 847 862
f 846 862 861
f 847 848 863
f 847 863 862
f 848 849 864
f 848 864 863
f 849 850 865
f 849 865 864
f 850 851 866
f 850 866 865
f 851 852 867
f 851 867 866
f 852 853 868
f 852 868 867
f 853 854 869
f 853 869 868
f 854 855 870
f 854 870 869
f 772 855 870
f 772 870 774
f 857 856 871
f 857 871 872
f 773 775 872
f 773 872 857
f 856 858 873
f 856 873 871
f 858 859 874
f 858 874 873
f 859 860 875
f 859 875 874
f 860 861 876
f 860 876 875
f 861 862 877
f 861 877 876
f 862 863 878
f 862 878 877
f 863 864 879
f 863 879 878
f 864 865 880
f 864 880 879
f 865 866 881
f 865 881 880
f 866 867 882
f 866 882 881
f 867 868 883
f 867 883 882
f 868 869 884
f 868 884 883
f 869 870 885
f 869 885 884
f 774 870 885
f 774 885 776
f 872 871 886
f 872 886 887
f 775 777 887
f 775 887 872
f 871 873 888
f 871 888 886
f 873 874 889
f 873 889 888
f 874 875 890
f 874 890 889
f 875 876 891
f 875 891 890
f 876 877 892
f 876 892 891
f 877 878 893
f 877 893 892
f 878 879 894
f 878 894 893
f 879 880 895
f 879 895 894
f 880 881 896
f 880 896 895
f 881 882 897
f 881 897 896
f 882 883 898
f 882 898 897
f 883 884 899
f 883 899 898
f 884 885 900
f 884 900 899
f 776 885 900
f 776 900 778
f 887 886 901
f 887 901 902
f 777 779 902
f 777 902 887
f 886 888 903
f 886 903 901
f 888 889 904
f 888 904 903
f 889 890 905
f 889 905 904
f 890 891 906
f 890 906 905
f 891 892 907
f 891 907 906
f 892 893 908
f 892 908 907
f 893 894 909
f 893 909 908
f 894 895 910
f 894 910 909
f 895 896 911
f 895 911 910
f 896 897 912
f 896 912 911
f 897 898 913
f 897 913 912
f 898 899 914
f 898 914 913
f 899 900 915
f 899 915 914
f 778 900 915
f 778 915 780
f 902 901 916
f 902 916 917
f 782 781 916
f 782 916 917
f 779 782 917
f 779 917 902
f 901 903 918
f 901 918 916
f 781 783 918
f 781 918 916
f 903 904 919
f 903 919 918
f 783 784 919
f 783 919 918
f 904 905 920
f 904 920 919
f 784 785 920
f 784 920 919
f 905 906 921
f 905 921 920
f 785 786 921
f 785 921 920
f 906 907 922
f 906 922 921
f 786 787 922
f 786 922 921
f 907 908 923
f 907 923 922
f 787 788 923
f 787 923 922
f 908 909 924
f 908 924 923
f 788 789 924
f 788 924 923
f 909 910 925
f 909 925 924
f 789 790 925
f 789 925 924
f 910 911 926
f 910 926 925
f 790 791 926
f 790 926 925
f 911 912 927
f 911 927 926
f 791 792 927
f 791 927 926
f 912 913 928
f 912 928 927
f 792 793 928
f 792 928 927
f 913 914 929
f 913 929 928
f 793 794 929
f 793 929 928
f 914 915 930
f 914 930 929
f 794 795 930
f 794 930 929
f 780 915 930
f 780 930 795
