o [4B] 3D Diagram - S2-02 Group C_211
v 1.983750 1.983750 0.663500
v 1.983750 2.050000 0.663500
v 1.983750 2.050000 0.893000
v 1.983750 1.983750 0.893000
v 2.050000 1.983750 0.663500
v 2.050000 1.983750 0.893000
v 2.050000 2.050000 0.663500
v 1.983750 2.050000 1.122500
v 1.983750 1.983750 1.122500
v 2.050000 1.983750 1.122500
v 1.983750 2.050000 1.352000
v 1.983750 1.983750 1.352000
v 2.050000 1.983750 1.352000
v 1.983750 2.050000 1.581500
v 1.983750 1.983750 1.581500
v 2.050000 1.983750 1.581500
v 1.983750 2.050000 1.811000
v 1.983750 1.983750 1.811000
v 2.050000 1.983750 1.811000
v 1.983750 2.050000 2.040500
v 1.983750 1.983750 2.040500
v 2.050000 1.983750 2.040500
v 1.983750 2.050000 2.270000
v 1.983750 1.983750 2.270000
v 2.050000 1.983750 2.270000
v 1.983750 2.050000 2.499500
v 1.983750 1.983750 2.499500
v 2.050000 1.983750 2.499500
v 1.983750 2.050000 2.729000
v 1.983750 1.983750 2.729000
v 2.050000 1.983750 2.729000
v 1.983750 2.050000 2.958500
v 1.983750 1.983750 2.958500
v 2.050000 1.983750 2.958500
v 1.983750 2.050000 3.188000
v 1.983750 1.983750 3.188000
v 2.050000 1.983750 3.188000
v 1.983750 2.050000 3.417500
v 1.983750 1.983750 3.417500
v 2.050000 1.983750 3.417500
v 1.983750 2.050000 3.647000
v 1.983750 1.983750 3.647000
v 2.050000 1.983750 3.647000
v 1.983750 2.050000 3.876500
v 1.983750 1.983750 3.876500
v 2.050000 1.983750 3.876500
v 2.050000 2.050000 3.876500
v 1.983750 2.116250 0.663500
v 1.983750 2.116250 0.893000
v 2.050000 2.116250 0.663500
v 1.983750 2.116250 1.122500
v 1.983750 2.116250 1.352000
v 1.983750 2.116250 1.581500
v 1.983750 2.116250 1.811000
v 1.983750 2.116250 2.040500
v 1.983750 2.116250 2.270000
v 1.983750 2.116250 2.499500
v 1.983750 2.116250 2.729000
v 1.983750 2.116250 2.958500
v 1.983750 2.116250 3.188000
v 1.983750 2.116250 3.417500
v 1.983750 2.116250 3.647000
v 1.983750 2.116250 3.876500
v 2.050000 2.116250 3.876500
v 1.983750 2.182500 0.663500
v 1.983750 2.182500 0.893000
v 2.050000 2.182500 0.663500
v 1.983750 2.182500 1.122500
v 1.983750 2.182500 1.352000
v 1.983750 2.182500 1.581500
v 1.983750 2.182500 1.811000
v 1.983750 2.182500 2.040500
v 1.983750 2.182500 2.270000
v 1.983750 2.182500 2.499500
v 1.983750 2.182500 2.729000
v 1.983750 2.182500 2.958500
v 1.983750 2.182500 3.188000
v 1.983750 2.182500 3.417500
v 1.983750 2.182500 3.647000
v 1.983750 2.182500 3.876500
v 2.050000 2.182500 3.876500
v 1.983750 2.248750 0.663500
v 1.983750 2.248750 0.893000
v 2.050000 2.248750 0.663500
v 1.983750 2.248750 1.122500
v 1.983750 2.248750 1.352000
v 1.983750 2.248750 1.581500
v 1.983750 2.248750 1.811000
v 1.983750 2.248750 2.040500
v 1.983750 2.248750 2.270000
v 1.983750 2.248750 2.499500
v 1.983750 2.248750 2.729000
v 1.983750 2.248750 2.958500
v 1.983750 2.248750 3.188000
v 1.983750 2.248750 3.417500
v 1.983750 2.248750 3.647000
v 1.983750 2.248750 3.876500
v 2.050000 2.248750 3.876500
v 1.983750 2.315000 0.663500
v 1.983750 2.315000 0.893000
v 2.050000 2.315000 0.663500
v 1.983750 2.315000 1.122500
v 1.983750 2.315000 1.352000
v 1.983750 2.315000 1.581500
v 1.983750 2.315000 1.811000
v 1.983750 2.315000 2.040500
v 1.983750 2.315000 2.270000
v 1.983750 2.315000 2.499500
v 1.983750 2.315000 2.729000
v 1.983750 2.315000 2.958500
v 1.983750 2.315000 3.188000
v 1.983750 2.315000 3.417500
v 1.983750 2.315000 3.647000
v 1.983750 2.315000 3.876500
v 2.050000 2.315000 3.876500
v 1.983750 2.381250 0.663500
v 1.983750 2.381250 0.893000
v 2.050000 2.381250 0.663500
v 1.983750 2.381250 1.122500
v 1.983750 2.381250 1.352000
v 1.983750 2.381250 1.581500
v 1.983750 2.381250 1.811000
v 1.983750 2.381250 2.040500
v 1.983750 2.381250 2.270000
v 1.983750 2.381250 2.499500
v 1.983750 2.381250 2.729000
v 1.983750 2.381250 2.958500
v 1.983750 2.381250 3.188000
v 1.983750 2.381250 3.417500
v 1.983750 2.381250 3.647000
v 1.983750 2.381250 3.876500
v 2.050000 2.381250 3.876500
v 1.983750 2.447500 0.663500
v 1.983750 2.447500 0.893000
v 2.050000 2.447500 0.663500
v 1.983750 2.447500 1.122500
v 1.983750 2.447500 1.352000
v 1.983750 2.447500 1.581500
v 1.983750 2.447500 1.811000
v 1.983750 2.447500 2.040500
v 1.983750 2.447500 2.270000
v 1.983750 2.447500 2.499500
v 1.983750 2.447500 2.729000
v 1.983750 2.447500 2.958500
v 1.983750 2.447500 3.188000
v 1.983750 2.447500 3.417500
v 1.983750 2.447500 3.647000
v 1.983750 2.447500 3.876500
v 2.050000 2.447500 3.876500
v 1.983750 2.513750 0.663500
v 1.983750 2.513750 0.893000
v 2.050000 2.513750 0.663500
v 1.983750 2.513750 1.122500
v 1.983750 2.513750 1.352000
v 1.983750 2.513750 1.581500
v 1.983750 2.513750 1.811000
v 1.983750 2.513750 2.040500
v 1.983750 2.513750 2.270000
v 1.983750 2.513750 2.499500
v 1.983750 2.513750 2.729000
v 1.983750 2.513750 2.958500
v 1.983750 2.513750 3.188000
v 1.983750 2.513750 3.417500
v 1.983750 2.513750 3.647000
v 1.983750 2.513750 3.876500
v 2.050000 2.513750 3.876500
v 1.983750 2.580000 0.663500
v 1.983750 2.580000 0.893000
v 2.050000 2.580000 0.663500
v 1.983750 2.580000 1.122500
v 1.983750 2.580000 1.352000
v 1.983750 2.580000 1.581500
v 1.983750 2.580000 1.811000
v 1.983750 2.580000 2.040500
v 1.983750 2.580000 2.270000
v 1.983750 2.580000 2.499500
v 1.983750 2.580000 2.729000
v 1.983750 2.580000 2.958500
v 1.983750 2.580000 3.188000
v 1.983750 2.580000 3.417500
v 1.983750 2.580000 3.647000
v 1.983750 2.580000 3.876500
v 2.050000 2.580000 3.876500
v 1.983750 2.646250 0.663500
v 1.983750 2.646250 0.893000
v 2.050000 2.646250 0.663500
v 1.983750 2.646250 1.122500
v 1.983750 2.646250 1.352000
v 1.983750 2.646250 1.581500
v 1.983750 2.646250 1.811000
v 1.983750 2.646250 2.040500
v 1.983750 2.646250 2.270000
v 1.983750 2.646250 2.499500
v 1.983750 2.646250 2.729000
v 1.983750 2.646250 2.958500
v 1.983750 2.646250 3.188000
v 1.983750 2.646250 3.417500
v 1.983750 2.646250 3.647000
v 1.983750 2.646250 3.876500
v 2.050000 2.646250 3.876500
v 1.983750 2.712500 0.663500
v 1.983750 2.712500 0.893000
v 2.050000 2.646250 0.893000
v 2.050000 2.712500 0.893000
v 2.050000 2.712500 0.663500
v 1.983750 2.712500 1.122500
v 2.050000 2.646250 1.122500
v 2.050000 2.712500 1.122500
v 1.983750 2.712500 1.352000
v 2.050000 2.646250 1.352000
v 2.050000 2.712500 1.352000
v 1.983750 2.712500 1.581500
v 2.050000 2.646250 1.581500
v 2.050000 2.712500 1.581500
v 1.983750 2.712500 1.811000
v 2.050000 2.646250 1.811000
v 2.050000 2.712500 1.811000
v 1.983750 2.712500 2.040500
v 2.050000 2.646250 2.040500
v 2.050000 2.712500 2.040500
v 1.983750 2.712500 2.270000
v 2.050000 2.646250 2.270000
v 2.050000 2.712500 2.270000
v 1.983750 2.712500 2.499500
v 2.050000 2.646250 2.499500
v 2.050000 2.712500 2.499500
v 1.983750 2.712500 2.729000
v 2.050000 2.646250 2.729000
v 2.050000 2.712500 2.729000
v 1.983750 2.712500 2.958500
v 2.050000 2.646250 2.958500
v 2.050000 2.712500 2.958500
v 1.983750 2.712500 3.188000
v 2.050000 2.646250 3.188000
v 2.050000 2.712500 3.188000
v 1.983750 2.712500 3.417500
v 2.050000 2.646250 3.417500
v 2.050000 2.712500 3.417500
v 1.983750 2.712500 3.647000
v 2.050000 2.646250 3.647000
v 2.050000 2.712500 3.647000
v 1.983750 2.712500 3.876500
v 2.050000 2.712500 3.876500
v 2.116250 1.983750 0.663500
v 2.116250 1.983750 0.893000
v 2.116250 2.050000 0.663500
v 2.116250 1.983750 1.122500
v 2.116250 1.983750 1.352000
v 2.116250 1.983750 1.581500
v 2.116250 1.983750 1.811000
v 2.116250 1.983750 2.040500
v 2.116250 1.983750 2.270000
v 2.116250 1.983750 2.499500
v 2.116250 1.983750 2.729000
v 2.116250 1.983750 2.958500
v 2.116250 1.983750 3.188000
v 2.116250 1.983750 3.417500
v 2.116250 1.983750 3.647000
v 2.116250 1.983750 3.876500
v 2.116250 2.050000 3.876500
v 2.116250 2.116250 0.663500
v 2.116250 2.116250 3.876500
v 2.116250 2.182500 0.663500
v 2.116250 2.182500 3.876500
v 2.116250 2.248750 0.663500
v 2.116250 2.248750 3.876500
v 2.116250 2.315000 0.663500
v 2.116250 2.315000 3.876500
v 2.116250 2.381250 0.663500
v 2.116250 2.381250 3.876500
v 2.116250 2.447500 0.663500
v 2.116250 2.447500 3.876500
v 2.116250 2.513750 0.663500
v 2.116250 2.513750 3.876500
v 2.116250 2.580000 0.663500
v 2.116250 2.580000 3.876500
v 2.116250 2.580000 0.893000
v 2.116250 2.646250 0.893000
v 2.116250 2.646250 0.663500
v 2.116250 2.580000 1.122500
v 2.116250 2.646250 1.122500
v 2.116250 2.580000 1.352000
v 2.116250 2.646250 1.352000
v 2.116250 2.580000 1.581500
v 2.116250 2.646250 1.581500
v 2.116250 2.580000 1.811000
v 2.116250 2.646250 1.811000
v 2.116250 2.580000 2.040500
v 2.116250 2.646250 2.040500
v 2.116250 2.580000 2.270000
v 2.116250 2.646250 2.270000
v 2.116250 2.580000 2.499500
v 2.116250 2.646250 2.499500
v 2.116250 2.580000 2.729000
v 2.116250 2.646250 2.729000
v 2.116250 2.580000 2.958500
v 2.116250 2.646250 2.958500
v 2.116250 2.580000 3.188000
v 2.116250 2.646250 3.188000
v 2.116250 2.580000 3.417500
v 2.116250 2.646250 3.417500
v 2.116250 2.580000 3.647000
v 2.116250 2.646250 3.647000
v 2.116250 2.646250 3.876500
v 2.182500 1.983750 0.663500
v 2.182500 1.983750 0.893000
v 2.182500 2.050000 0.663500
v 2.182500 1.983750 1.122500
v 2.182500 1.983750 1.352000
v 2.182500 1.983750 1.581500
v 2.182500 1.983750 1.811000
v 2.182500 1.983750 2.040500
v 2.182500 1.983750 2.270000
v 2.182500 1.983750 2.499500
v 2.182500 1.983750 2.729000
v 2.182500 1.983750 2.958500
v 2.182500 1.983750 3.188000
v 2.182500 1.983750 3.417500
v 2.182500 1.983750 3.647000
v 2.182500 1.983750 3.876500
v 2.182500 2.050000 3.876500
v 2.182500 2.116250 0.663500
v 2.182500 2.116250 3.876500
v 2.182500 2.182500 0.663500
v 2.182500 2.182500 3.876500
v 2.182500 2.248750 0.663500
v 2.182500 2.248750 3.876500
v 2.182500 2.315000 0.663500
v 2.182500 2.315000 3.876500
v 2.182500 2.381250 0.663500
v 2.182500 2.381250 3.876500
v 2.182500 2.447500 0.663500
v 2.182500 2.447500 3.876500
v 2.182500 2.513750 0.663500
v 2.182500 2.513750 3.876500
v 2.182500 2.513750 0.893000
v 2.182500 2.580000 0.893000
v 2.182500 2.580000 0.663500
v 2.182500 2.513750 1.122500
v 2.182500 2.580000 1.122500
v 2.182500 2.513750 1.352000
v 2.182500 2.580000 1.352000
v 2.182500 2.513750 1.581500
v 2.182500 2.580000 1.581500
v 2.182500 2.513750 1.811000
v 2.182500 2.580000 1.811000
v 2.182500 2.513750 2.040500
v 2.182500 2.580000 2.040500
v 2.182500 2.513750 2.270000
v 2.182500 2.580000 2.270000
v 2.182500 2.513750 2.499500
v 2.182500 2.580000 2.499500
v 2.182500 2.513750 2.729000
v 2.182500 2.580000 2.729000
v 2.182500 2.513750 2.958500
v 2.182500 2.580000 2.958500
v 2.182500 2.513750 3.188000
v 2.182500 2.580000 3.188000
v 2.182500 2.513750 3.417500
v 2.182500 2.580000 3.417500
v 2.182500 2.513750 3.647000
v 2.182500 2.580000 3.647000
v 2.182500 2.580000 3.876500
v 2.248750 1.983750 0.663500
v 2.248750 1.983750 0.893000
v 2.248750 2.050000 0.663500
v 2.248750 1.983750 1.122500
v 2.248750 1.983750 1.352000
v 2.248750 1.983750 1.581500
v 2.248750 1.983750 1.811000
v 2.248750 1.983750 2.040500
v 2.248750 1.983750 2.270000
v 2.248750 1.983750 2.499500
v 2.248750 1.983750 2.729000
v 2.248750 1.983750 2.958500
v 2.248750 1.983750 3.188000
v 2.248750 1.983750 3.417500
v 2.248750 1.983750 3.647000
v 2.248750 1.983750 3.876500
v 2.248750 2.050000 3.876500
v 2.248750 2.116250 0.663500
v 2.248750 2.116250 3.876500
v 2.248750 2.182500 0.663500
v 2.248750 2.182500 3.876500
v 2.248750 2.248750 0.663500
v 2.248750 2.248750 3.876500
v 2.248750 2.315000 0.663500
v 2.248750 2.315000 3.876500
v 2.248750 2.381250 0.663500
v 2.248750 2.381250 3.876500
v 2.248750 2.447500 0.663500
v 2.248750 2.447500 3.876500
v 2.248750 2.447500 0.893000
v 2.248750 2.513750 0.893000
v 2.248750 2.513750 0.663500
v 2.248750 2.447500 1.122500
v 2.248750 2.513750 1.122500
v 2.248750 2.447500 1.352000
v 2.248750 2.513750 1.352000
v 2.248750 2.447500 1.581500
v 2.248750 2.513750 1.581500
v 2.248750 2.447500 1.811000
v 2.248750 2.513750 1.811000
v 2.248750 2.447500 2.040500
v 2.248750 2.513750 2.040500
v 2.248750 2.447500 2.270000
v 2.248750 2.513750 2.270000
v 2.248750 2.447500 2.499500
v 2.248750 2.513750 2.499500
v 2.248750 2.447500 2.729000
v 2.248750 2.513750 2.729000
v 2.248750 2.447500 2.958500
v 2.248750 2.513750 2.958500
v 2.248750 2.447500 3.188000
v 2.248750 2.513750 3.188000
v 2.248750 2.447500 3.417500
v 2.248750 2.513750 3.417500
v 2.248750 2.447500 3.647000
v 2.248750 2.513750 3.647000
v 2.248750 2.513750 3.876500
v 2.315000 1.983750 0.663500
v 2.315000 1.983750 0.893000
v 2.315000 2.050000 0.663500
v 2.315000 1.983750 1.122500
v 2.315000 1.983750 1.352000
v 2.315000 1.983750 1.581500
v 2.315000 1.983750 1.811000
v 2.315000 1.983750 2.040500
v 2.315000 1.983750 2.270000
v 2.315000 1.983750 2.499500
v 2.315000 1.983750 2.729000
v 2.315000 1.983750 2.958500
v 2.315000 1.983750 3.188000
v 2.315000 1.983750 3.417500
v 2.315000 1.983750 3.647000
v 2.315000 1.983750 3.876500
v 2.315000 2.050000 3.876500
v 2.315000 2.116250 0.663500
v 2.315000 2.116250 3.876500
v 2.315000 2.182500 0.663500
v 2.315000 2.182500 3.876500
v 2.315000 2.248750 0.663500
v 2.315000 2.248750 3.876500
v 2.315000 2.315000 0.663500
v 2.315000 2.315000 3.876500
v 2.315000 2.381250 0.663500
v 2.315000 2.381250 3.876500
v 2.315000 2.381250 0.893000
v 2.315000 2.447500 0.893000
v 2.315000 2.447500 0.663500
v 2.315000 2.381250 1.122500
v 2.315000 2.447500 1.122500
v 2.315000 2.381250 1.352000
v 2.315000 2.447500 1.352000
v 2.315000 2.381250 1.581500
v 2.315000 2.447500 1.581500
v 2.315000 2.381250 1.811000
v 2.315000 2.447500 1.811000
v 2.315000 2.381250 2.040500
v 2.315000 2.447500 2.040500
v 2.315000 2.381250 2.270000
v 2.315000 2.447500 2.270000
v 2.315000 2.381250 2.499500
v 2.315000 2.447500 2.499500
v 2.315000 2.381250 2.729000
v 2.315000 2.447500 2.729000
v 2.315000 2.381250 2.958500
v 2.315000 2.447500 2.958500
v 2.315000 2.381250 3.188000
v 2.315000 2.447500 3.188000
v 2.315000 2.381250 3.417500
v 2.315000 2.447500 3.417500
v 2.315000 2.381250 3.647000
v 2.315000 2.447500 3.647000
v 2.315000 2.447500 3.876500
v 2.381250 1.983750 0.663500
v 2.381250 1.983750 0.893000
v 2.381250 2.050000 0.663500
v 2.381250 1.983750 1.122500
v 2.381250 1.983750 1.352000
v 2.381250 1.983750 1.581500
v 2.381250 1.983750 1.811000
v 2.381250 1.983750 2.040500
v 2.381250 1.983750 2.270000
v 2.381250 1.983750 2.499500
v 2.381250 1.983750 2.729000
v 2.381250 1.983750 2.958500
v 2.381250 1.983750 3.188000
v 2.381250 1.983750 3.417500
v 2.381250 1.983750 3.647000
v 2.381250 1.983750 3.876500
v 2.381250 2.050000 3.876500
v 2.381250 2.116250 0.663500
v 2.381250 2.116250 3.876500
v 2.381250 2.182500 0.663500
v 2.381250 2.182500 3.876500
v 2.381250 2.248750 0.663500
v 2.381250 2.248750 3.876500
v 2.381250 2.315000 0.663500
v 2.381250 2.315000 3.876500
v 2.381250 2.315000 0.893000
v 2.381250 2.381250 0.893000
v 2.381250 2.381250 0.663500
v 2.381250 2.315000 1.122500
v 2.381250 2.381250 1.122500
v 2.381250 2.315000 1.352000
v 2.381250 2.381250 1.352000
v 2.381250 2.315000 1.581500
v 2.381250 2.381250 1.581500
v 2.381250 2.315000 1.811000
v 2.381250 2.381250 1.811000
v 2.381250 2.315000 2.040500
v 2.381250 2.381250 2.040500
v 2.381250 2.315000 2.270000
v 2.381250 2.381250 2.270000
v 2.381250 2.315000 2.499500
v 2.381250 2.381250 2.499500
v 2.381250 2.315000 2.729000
v 2.381250 2.381250 2.729000
v 2.381250 2.315000 2.958500
v 2.381250 2.381250 2.958500
v 2.381250 2.315000 3.188000
v 2.381250 2.381250 3.188000
v 2.381250 2.315000 3.417500
v 2.381250 2.381250 3.417500
v 2.381250 2.315000 3.647000
v 2.381250 2.381250 3.647000
v 2.381250 2.381250 3.876500
v 2.447500 1.983750 0.663500
v 2.447500 1.983750 0.893000
v 2.447500 2.050000 0.663500
v 2.447500 1.983750 1.122500
v 2.447500 1.983750 1.352000
v 2.447500 1.983750 1.581500
v 2.447500 1.983750 1.811000
v 2.447500 1.983750 2.040500
v 2.447500 1.983750 2.270000
v 2.447500 1.983750 2.499500
v 2.447500 1.983750 2.729000
v 2.447500 1.983750 2.958500
v 2.447500 1.983750 3.188000
v 2.447500 1.983750 3.417500
v 2.447500 1.983750 3.647000
v 2.447500 1.983750 3.876500
v 2.447500 2.050000 3.876500
v 2.447500 2.116250 0.663500
v 2.447500 2.116250 3.876500
v 2.447500 2.182500 0.663500
v 2.447500 2.182500 3.876500
v 2.447500 2.248750 0.663500
v 2.447500 2.248750 3.876500
v 2.447500 2.248750 0.893000
v 2.447500 2.315000 0.893000
v 2.447500 2.315000 0.663500
v 2.447500 2.248750 1.122500
v 2.447500 2.315000 1.122500
v 2.447500 2.248750 1.352000
v 2.447500 2.315000 1.352000
v 2.447500 2.248750 1.581500
v 2.447500 2.315000 1.581500
v 2.447500 2.248750 1.811000
v 2.447500 2.315000 1.811000
v 2.447500 2.248750 2.040500
v 2.447500 2.315000 2.040500
v 2.447500 2.248750 2.270000
v 2.447500 2.315000 2.270000
v 2.447500 2.248750 2.499500
v 2.447500 2.315000 2.499500
v 2.447500 2.248750 2.729000
v 2.447500 2.315000 2.729000
v 2.447500 2.248750 2.958500
v 2.447500 2.315000 2.958500
v 2.447500 2.248750 3.188000
v 2.447500 2.315000 3.188000
v 2.447500 2.248750 3.417500
v 2.447500 2.315000 3.417500
v 2.447500 2.248750 3.647000
v 2.447500 2.315000 3.647000
v 2.447500 2.315000 3.876500
v 2.513750 1.983750 0.663500
v 2.513750 1.983750 0.893000
v 2.513750 2.050000 0.663500
v 2.513750 1.983750 1.122500
v 2.513750 1.983750 1.352000
v 2.513750 1.983750 1.581500
v 2.513750 1.983750 1.811000
v 2.513750 1.983750 2.040500
v 2.513750 1.983750 2.270000
v 2.513750 1.983750 2.499500
v 2.513750 1.983750 2.729000
v 2.513750 1.983750 2.958500
v 2.513750 1.983750 3.188000
v 2.513750 1.983750 3.417500
v 2.513750 1.983750 3.647000
v 2.513750 1.983750 3.876500
v 2.513750 2.050000 3.876500
v 2.513750 2.116250 0.663500
v 2.513750 2.116250 3.876500
v 2.513750 2.182500 0.663500
v 2.513750 2.182500 3.876500
v 2.513750 2.182500 0.893000
v 2.513750 2.248750 0.893000
v 2.513750 2.248750 0.663500
v 2.513750 2.182500 1.122500
v 2.513750 2.248750 1.122500
v 2.513750 2.182500 1.352000
v 2.513750 2.248750 1.352000
v 2.513750 2.182500 1.581500
v 2.513750 2.248750 1.581500
v 2.513750 2.182500 1.811000
v 2.513750 2.248750 1.811000
v 2.513750 2.182500 2.040500
v 2.513750 2.248750 2.040500
v 2.513750 2.182500 2.270000
v 2.513750 2.248750 2.270000
v 2.513750 2.182500 2.499500
v 2.513750 2.248750 2.499500
v 2.513750 2.182500 2.729000
v 2.513750 2.248750 2.729000
v 2.513750 2.182500 2.958500
v 2.513750 2.248750 2.958500
v 2.513750 2.182500 3.188000
v 2.513750 2.248750 3.188000
v 2.513750 2.182500 3.417500
v 2.513750 2.248750 3.417500
v 2.513750 2.182500 3.647000
v 2.513750 2.248750 3.647000
v 2.513750 2.248750 3.876500
v 2.580000 1.983750 0.663500
v 2.580000 1.983750 0.893000
v 2.580000 2.050000 0.663500
v 2.580000 1.983750 1.122500
v 2.580000 1.983750 1.352000
v 2.580000 1.983750 1.581500
v 2.580000 1.983750 1.811000
v 2.580000 1.983750 2.040500
v 2.580000 1.983750 2.270000
v 2.580000 1.983750 2.499500
v 2.580000 1.983750 2.729000
v 2.580000 1.983750 2.958500
v 2.580000 1.983750 3.188000
v 2.580000 1.983750 3.417500
v 2.580000 1.983750 3.647000
v 2.580000 1.983750 3.876500
v 2.580000 2.050000 3.876500
v 2.580000 2.116250 0.663500
v 2.580000 2.116250 3.876500
v 2.580000 2.116250 0.893000
v 2.580000 2.182500 0.893000
v 2.580000 2.182500 0.663500
v 2.580000 2.116250 1.122500
v 2.580000 2.182500 1.122500
v 2.580000 2.116250 1.352000
v 2.580000 2.182500 1.352000
v 2.580000 2.116250 1.581500
v 2.580000 2.182500 1.581500
v 2.580000 2.116250 1.811000
v 2.580000 2.182500 1.811000
v 2.580000 2.116250 2.040500
v 2.580000 2.182500 2.040500
v 2.580000 2.116250 2.270000
v 2.580000 2.182500 2.270000
v 2.580000 2.116250 2.499500
v 2.580000 2.182500 2.499500
v 2.580000 2.116250 2.729000
v 2.580000 2.182500 2.729000
v 2.580000 2.116250 2.958500
v 2.580000 2.182500 2.958500
v 2.580000 2.116250 3.188000
v 2.580000 2.182500 3.188000
v 2.580000 2.116250 3.417500
v 2.580000 2.182500 3.417500
v 2.580000 2.116250 3.647000
v 2.580000 2.182500 3.647000
v 2.580000 2.182500 3.876500
v 2.646250 1.983750 0.663500
v 2.646250 1.983750 0.893000
v 2.646250 2.050000 0.663500
v 2.646250 1.983750 1.122500
v 2.646250 1.983750 1.352000
v 2.646250 1.983750 1.581500
v 2.646250 1.983750 1.811000
v 2.646250 1.983750 2.040500
v 2.646250 1.983750 2.270000
v 2.646250 1.983750 2.499500
v 2.646250 1.983750 2.729000
v 2.646250 1.983750 2.958500
v 2.646250 1.983750 3.188000
v 2.646250 1.983750 3.417500
v 2.646250 1.983750 3.647000
v 2.646250 1.983750 3.876500
v 2.646250 2.050000 3.876500
v 2.646250 2.050000 0.893000
v 2.646250 2.116250 0.893000
v 2.646250 2.116250 0.663500
v 2.646250 2.050000 1.122500
v 2.646250 2.116250 1.122500
v 2.646250 2.050000 1.352000
v 2.646250 2.116250 1.352000
v 2.646250 2.050000 1.581500
v 2.646250 2.116250 1.581500
v 2.646250 2.050000 1.811000
v 2.646250 2.116250 1.811000
v 2.646250 2.050000 2.040500
v 2.646250 2.116250 2.040500
v 2.646250 2.050000 2.270000
v 2.646250 2.116250 2.270000
v 2.646250 2.050000 2.499500
v 2.646250 2.116250 2.499500
v 2.646250 2.050000 2.729000
v 2.646250 2.116250 2.729000
v 2.646250 2.050000 2.958500
v 2.646250 2.116250 2.958500
v 2.646250 2.050000 3.188000
v 2.646250 2.116250 3.188000
v 2.646250 2.050000 3.417500
v 2.646250 2.116250 3.417500
v 2.646250 2.050000 3.647000
v 2.646250 2.116250 3.647000
v 2.646250 2.116250 3.876500
v 2.712500 1.983750 0.663500
v 2.712500 1.983750 0.893000
v 2.712500 2.050000 0.893000
v 2.712500 2.050000 0.663500
v 2.712500 1.983750 1.122500
v 2.712500 2.050000 1.122500
v 2.712500 1.983750 1.352000
v 2.712500 2.050000 1.352000
v 2.712500 1.983750 1.581500
v 2.712500 2.050000 1.581500
v 2.712500 1.983750 1.811000
v 2.712500 2.050000 1.811000
v 2.712500 1.983750 2.040500
v 2.712500 2.050000 2.040500
v 2.712500 1.983750 2.270000
v 2.712500 2.050000 2.270000
v 2.712500 1.983750 2.499500
v 2.712500 2.050000 2.499500
v 2.712500 1.983750 2.729000
v 2.712500 2.050000 2.729000
v 2.712500 1.983750 2.958500
v 2.712500 2.050000 2.958500
v 2.712500 1.983750 3.188000
v 2.712500 2.050000 3.188000
v 2.712500 1.983750 3.417500
v 2.712500 2.050000 3.417500
v 2.712500 1.983750 3.647000
v 2.712500 2.050000 3.647000
v 2.712500 1.983750 3.876500
v 2.712500 2.050000 3.876500
f 1 2 3
f 1 3 4
f 1 5 6
f 1 6 4
f 1 2 7
f 1 7 5
f 4 3 8
f 4 8 9
f 4 6 10
f 4 10 9
f 9 8 11
f 9 11 12
f 9 10 13
f 9 13 12
f 12 11 14
f 12 14 15
f 12 13 16
f 12 16 15
f 15 14 17
f 15 17 18
f 15 16 19
f 15 19 18
f 18 17 20
f 18 20 21
f 18 19 22
f 18 22 21
f 21 20 23
f 21 23 24
f 21 22 25
f 21 25 24
f 24 23 26
f 24 26 27
f 24 25 28
f 24 28 27
f 27 26 29
f 27 29 30
f 27 28 31
f 27 31 30
f 30 29 32
f 30 32 33
f 30 31 34
f 30 34 33
f 33 32 35
f 33 35 36
f 33 34 37
f 33 37 36
f 36 35 38
f 36 38 39
f 36 37 40
f 36 40 39
f 39 38 41
f 39 41 42
f 39 40 43
f 39 43 42
f 42 41 44
f 42 44 45
f 42 43 46
f 42 46 45
f 45 46 47
f 45 47 44
f 2 48 49
f 2 49 3
f 2 48 50
f 2 50 7
f 3 49 51
f 3 51 8
f 8 51 52
f 8 52 11
f 11 52 53
f 11 53 14
f 14 53 54
f 14 54 17
f 17 54 55
f 17 55 20
f 20 55 56
f 20 56 23
f 23 56 57
f 23 57 26
f 26 57 58
f 26 58 29
f 29 58 59
f 29 59 32
f 32 59 60
f 32 60 35
f 35 60 61
f 35 61 38
f 38 61 62
f 38 62 41
f 41 62 63
f 41 63 44
f 44 47 64
f 44 64 63
f 48 65 66
f 48 66 49
f 48 65 67
f 48 67 50
f 49 66 68
f 49 68 51
f 51 68 69
f 51 69 52
f 52 69 70
f 52 70 53
f 53 70 71
f 53 71 54
f 54 71 72
f 54 72 55
f 55 72 73
f 55 73 56
f 56 73 74
f 56 74 57
f 57 74 75
f 57 75 58
f 58 75 76
f 58 76 59
f 59 76 77
f 59 77 60
f 60 77 78
f 60 78 61
f 61 78 79
f 61 79 62
f 62 79 80
f 62 80 63
f 63 64 81
f 63 81 80
f 65 82 83
f 65 83 66
f 65 82 84
f 65 84 67
f 66 83 85
f 66 85 68
f 68 85 86
f 68 86 69
f 69 86 87
f 69 87 70
f 70 87 88
f 70 88 71
f 71 88 89
f 71 89 72
f 72 89 90
f 72 90 73
f 73 90 91
f 73 91 74
f 74 91 92
f 74 92 75
f 75 92 93
f 75 93 76
f 76 93 94
f 76 94 77
f 77 94 95
f 77 95 78
f 78 95 96
f 78 96 79
f 79 96 97
f 79 97 80
f 80 81 98
f 80 98 97
f 82 99 100
f 82 100 83
f 82 99 101
f 82 101 84
f 83 100 102
f 83 102 85
f 85 102 103
f 85 103 86
f 86 103 104
f 86 104 87
f 87 104 105
f 87 105 88
f 88 105 106
f 88 106 89
f 89 106 107
f 89 107 90
f 90 107 108
f 90 108 91
f 91 108 109
f 91 109 92
f 92 109 110
f 92 110 93
f 93 110 111
f 93 111 94
f 94 111 112
f 94 112 95
f 95 112 113
f 95 113 96
f 96 113 114
f 96 114 97
f 97 98 115
f 97 115 114
f 99 116 117
f 99 117 100
f 99 116 118
f 99 118 101
f 100 117 119
f 100 119 102
f 102 119 120
f 102 120 103
f 103 120 121
f 103 121 104
f 104 121 122
f 104 122 105
f 105 122 123
f 105 123 106
f 106 123 124
f 106 124 107
f 107 124 125
f 107 125 108
f 108 125 126
f 108 126 109
f 109 126 127
f 109 127 110
f 110 127 128
f 110 128 111
f 111 128 129
f 111 129 112
f 112 129 130
f 112 130 113
f 113 130 131
f 113 131 114
f 114 115 132
f 114 132 131
f 116 133 134
f 116 134 117
f 116 133 135
f 116 135 118
f 117 134 136
f 117 136 119
f 119 136 137
f 119 137 120
f 120 137 138
f 120 138 121
f 121 138 139
f 121 139 122
f 122 139 140
f 122 140 123
f 123 140 141
f 123 141 124
f 124 141 142
f 124 142 125
f 125 142 143
f 125 143 126
f 126 143 144
f 126 144 127
f 127 144 145
f 127 145 128
f 128 145 146
f 128 146 129
f 129 146 147
f 129 147 130
f 130 147 148
f 130 148 131
f 131 132 149
f 131 149 148
f 133 150 151
f 133 151 134
f 133 150 152
f 133 152 135
f 134 151 153
f 134 153 136
f 136 153 154
f 136 154 137
f 137 154 155
f 137 155 138
f 138 155 156
f 138 156 139
f 139 156 157
f 139 157 140
f 140 157 158
f 140 158 141
f 141 158 159
f 141 159 142
f 142 159 160
f 142 160 143
f 143 160 161
f 143 161 144
f 144 161 162
f 144 162 145
f 145 162 163
f 145 163 146
f 146 163 164
f 146 164 147
f 147 164 165
f 147 165 148
f 148 149 166
f 148 166 165
f 150 167 168
f 150 168 151
f 150 167 169
f 150 169 152
f 151 168 170
f 151 170 153
f 153 170 171
f 153 171 154
f 154 171 172
f 154 172 155
f 155 172 173
f 155 173 156
f 156 173 174
f 156 174 157
f 157 174 175
f 157 175 158
f 158 175 176
f 158 176 159
f 159 176 177
f 159 177 160
f 160 177 178
f 160 178 161
f 161 178 179
f 161 179 162
f 162 179 180
f 162 180 163
f 163 180 181
f 163 181 164
f 164 181 182
f 164 182 165
f 165 166 183
f 165 183 182
f 167 184 185
f 167 185 168
f 167 184 186
f 167 186 169
f 168 185 187
f 168 187 170
f 170 187 188
f 170 188 171
f 171 188 189
f 171 189 172
f 172 189 190
f 172 190 173
f 173 190 191
f 173 191 174
f 174 191 192
f 174 192 175
f 175 192 193
f 175 193 176
f 176 193 194
f 176 194 177
f 177 194 195
f 177 195 178
f 178 195 196
f 178 196 179
f 179 196 197
f 179 197 180
f 180 197 198
f 180 198 181
f 181 198 199
f 181 199 182
f 182 183 200
f 182 200 199
f 184 201 202
f 184 202 185
f 186 203 204
f 186 204 205
f 201 202 204
f 201 204 205
f 184 201 205
f 184 205 186
f 185 202 206
f 185 206 187
f 203 207 208
f 203 208 204
f 202 206 208
f 202 208 204
f 187 206 209
f 187 209 188
f 207 210 211
f 207 211 208
f 206 209 211
f 206 211 208
f 188 209 212
f 188 212 189
f 210 213 214
f 210 214 211
f 209 212 214
f 209 214 211
f 189 212 215
f 189 215 190
f 213 216 217
f 213 217 214
f 212 215 217
f 212 217 214
f 190 215 218
f 190 218 191
f 216 219 220
f 216 220 217
f 215 218 220
f 215 220 217
f 191 218 221
f 191 221 192
f 219 222 223
f 219 223 220
f 218 221 223
f 218 223 220
f 192 221 224
f 192 224 193
f 222 225 226
f 222 226 223
f 221 224 226
f 221 226 223
f 193 224 227
f 193 227 194
f 225 228 229
f 225 229 226
f 224 227 229
f 224 229 226
f 194 227 230
f 194 230 195
f 228 231 232
f 228 232 229
f 227 230 232
f 227 232 229
f 195 230 233
f 195 233 196
f 231 234 235
f 231 235 232
f 230 233 235
f 230 235 232
f 196 233 236
f 196 236 197
f 234 237 238
f 234 238 235
f 233 236 238
f 233 238 235
f 197 236 239
f 197 239 198
f 237 240 241
f 237 241 238
f 236 239 241
f 236 241 238
f 198 239 242
f 198 242 199
f 240 200 243
f 240 243 241
f 239 242 243
f 239 243 241
f 199 200 243
f 199 243 242
f 5 244 245
f 5 245 6
f 5 7 246
f 5 246 244
f 6 245 247
f 6 247 10
f 10 247 248
f 10 248 13
f 13 248 249
f 13 249 16
f 16 249 250
f 16 250 19
f 19 250 251
f 19 251 22
f 22 251 252
f 22 252 25
f 25 252 253
f 25 253 28
f 28 253 254
f 28 254 31
f 31 254 255
f 31 255 34
f 34 255 256
f 34 256 37
f 37 256 257
f 37 257 40
f 40 257 258
f 40 258 43
f 43 258 259
f 43 259 46
f 46 259 260
f 46 260 47
f 7 50 261
f 7 261 246
f 47 260 262
f 47 262 64
f 50 67 263
f 50 263 261
f 64 262 264
f 64 264 81
f 67 84 265
f 67 265 263
f 81 264 266
f 81 266 98
f 84 101 267
f 84 267 265
f 98 266 268
f 98 268 115
f 101 118 269
f 101 269 267
f 115 268 270
f 115 270 132
f 118 135 271
f 118 271 269
f 132 270 272
f 132 272 149
f 135 152 273
f 135 273 271
f 149 272 274
f 149 274 166
f 152 169 275
f 152 275 273
f 166 274 276
f 166 276 183
f 275 277 278
f 275 278 279
f 186 203 278
f 186 278 279
f 169 186 279
f 169 279 275
f 277 280 281
f 277 281 278
f 203 207 281
f 203 281 278
f 280 282 283
f 280 283 281
f 207 210 283
f 207 283 281
f 282 284 285
f 282 285 283
f 210 213 285
f 210 285 283
f 284 286 287
f 284 287 285
f 213 216 287
f 213 287 285
f 286 288 289
f 286 289 287
f 216 219 289
f 216 289 287
f 288 290 291
f 288 291 289
f 219 222 291
f 219 291 289
f 290 292 293
f 290 293 291
f 222 225 293
f 222 293 291
f 292 294 295
f 292 295 293
f 225 228 295
f 225 295 293
f 294 296 297
f 294 297 295
f 228 231 297
f 228 297 295
f 296 298 299
f 296 299 297
f 231 234 299
f 231 299 297
f 298 300 301
f 298 301 299
f 234 237 301
f 234 301 299
f 300 302 303
f 300 303 301
f 237 240 303
f 237 303 301
f 302 276 304
f 302 304 303
f 240 200 304
f 240 304 303
f 183 276 304
f 183 304 200
f 244 305 306
f 244 306 245
f 244 246 307
f 244 307 305
f 245 306 308
f 245 308 247
f 247 308 309
f 247 309 248
f 248 309 310
f 248 310 249
f 249 310 311
f 249 311 250
f 250 311 312
f 250 312 251
f 251 312 313
f 251 313 252
f 252 313 314
f 252 314 253
f 253 314 315
f 253 315 254
f 254 315 316
f 254 316 255
f 255 316 317
f 255 317 256
f 256 317 318
f 256 318 257
f 257 318 319
f 257 319 258
f 258 319 320
f 258 320 259
f 259 320 321
f 259 321 260
f 246 261 322
f 246 322 307
f 260 321 323
f 260 323 262
f 261 263 324
f 261 324 322
f 262 323 325
f 262 325 264
f 263 265 326
f 263 326 324
f 264 325 327
f 264 327 266
f 265 267 328
f 265 328 326
f 266 327 329
f 266 329 268
f 267 269 330
f 267 330 328
f 268 329 331
f 268 331 270
f 269 271 332
f 269 332 330
f 270 331 333
f 270 333 272
f 271 273 334
f 271 334 332
f 272 333 335
f 272 335 274
f 334 336 337
f 334 337 338
f 275 277 337
f 275 337 338
f 273 275 338
f 273 338 334
f 336 339 340
f 336 340 337
f 277 280 340
f 277 340 337
f 339 341 342
f 339 342 340
f 280 282 342
f 280 342 340
f 341 343 344
f 341 344 342
f 282 284 344
f 282 344 342
f 343 345 346
f 343 346 344
f 284 286 346
f 284 346 344
f 345 347 348
f 345 348 346
f 286 288 348
f 286 348 346
f 347 349 350
f 347 350 348
f 288 290 350
f 288 350 348
f 349 351 352
f 349 352 350
f 290 292 352
f 290 352 350
f 351 353 354
f 351 354 352
f 292 294 354
f 292 354 352
f 353 355 356
f 353 356 354
f 294 296 356
f 294 356 354
f 355 357 358
f 355 358 356
f 296 298 358
f 296 358 356
f 357 359 360
f 357 360 358
f 298 300 360
f 298 360 358
f 359 361 362
f 359 362 360
f 300 302 362
f 300 362 360
f 361 335 363
f 361 363 362
f 302 276 363
f 302 363 362
f 274 335 363
f 274 363 276
f 305 364 365
f 305 365 306
f 305 307 366
f 305 366 364
f 306 365 367
f 306 367 308
f 308 367 368
f 308 368 309
f 309 368 369
f 309 369 310
f 310 369 370
f 310 370 311
f 311 370 371
f 311 371 312
f 312 371 372
f 312 372 313
f 313 372 373
f 313 373 314
f 314 373 374
f 314 374 315
f 315 374 375
f 315 375 316
f 316 375 376
f 316 376 317
f 317 376 377
f 317 377 318
f 318 377 378
f 318 378 319
f 319 378 379
f 319 379 320
f 320 379 380
f 320 380 321
f 307 322 381
f 307 381 366
f 321 380 382
f 321 382 323
f 322 324 383
f 322 383 381
f 323 382 384
f 323 384 325
f 324 326 385
f 324 385 383
f 325 384 386
f 325 386 327
f 326 328 387
f 326 387 385
f 327 386 388
f 327 388 329
f 328 330 389
f 328 389 387
f 329 388 390
f 329 390 331
f 330 332 391
f 330 391 389
f 331 390 392
f 331 392 333
f 391 393 394
f 391 394 395
f 334 336 394
f 334 394 395
f 332 334 395
f 332 395 391
f 393 396 397
f 393 397 394
f 336 339 397
f 336 397 394
f 396 398 399
f 396 399 397
f 339 341 399
f 339 399 397
f 398 400 401
f 398 401 399
f 341 343 401
f 341 401 399
f 400 402 403
f 400 403 401
f 343 345 403
f 343 403 401
f 402 404 405
f 402 405 403
f 345 347 405
f 345 405 403
f 404 406 407
f 404 407 405
f 347 349 407
f 347 407 405
f 406 408 409
f 406 409 407
f 349 351 409
f 349 409 407
f 408 410 411
f 408 411 409
f 351 353 411
f 351 411 409
f 410 412 413
f 410 413 411
f 353 355 413
f 353 413 411
f 412 414 415
f 412 415 413
f 355 357 415
f 355 415 413
f 414 416 417
f 414 417 415
f 357 359 417
f 357 417 415
f 416 418 419
f 416 419 417
f 359 361 419
f 359 419 417
f 418 392 420
f 418 420 419
f 361 335 420
f 361 420 419
f 333 392 420
f 333 420 335
f 364 421 422
f 364 422 365
f 364 366 423
f 364 423 421
f 365 422 424
f 365 424 367
f 367 424 425
f 367 425 368
f 368 425 426
f 368 426 369
f 369 426 427
f 369 427 370
f 370 427 428
f 370 428 371
f 371 428 429
f 371 429 372
f 372 429 430
f 372 430 373
f 373 430 431
f 373 431 374
f 374 431 432
f 374 432 375
f 375 432 433
f 375 433 376
f 376 433 434
f 376 434 377
f 377 434 435
f 377 435 378
f 378 435 436
f 378 436 379
f 379 436 437
f 379 437 380
f 366 381 438
f 366 438 423
f 380 437 439
f 380 439 382
f 381 383 440
f 381 440 438
f 382 439 441
f 382 441 384
f 383 385 442
f 383 442 440
f 384 441 443
f 384 443 386
f 385 387 444
f 385 444 442
f 386 443 445
f 386 445 388
f 387 389 446
f 387 446 444
f 388 445 447
f 388 447 390
f 446 448 449
f 446 449 450
f 391 393 449
f 391 449 450
f 389 391 450
f 389 450 446
f 448 451 452
f 448 452 449
f 393 396 452
f 393 452 449
f 451 453 454
f 451 454 452
f 396 398 454
f 396 454 452
f 453 455 456
f 453 456 454
f 398 400 456
f 398 456 454
f 455 457 458
f 455 458 456
f 400 402 458
f 400 458 456
f 457 459 460
f 457 460 458
f 402 404 460
f 402 460 458
f 459 461 462
f 459 462 460
f 404 406 462
f 404 462 460
f 461 463 464
f 461 464 462
f 406 408 464
f 406 464 462
f 463 465 466
f 463 466 464
f 408 410 466
f 408 466 464
f 465 467 468
f 465 468 466
f 410 412 468
f 410 468 466
f 467 469 470
f 467 470 468
f 412 414 470
f 412 470 468
f 469 471 472
f 469 472 470
f 414 416 472
f 414 472 470
f 471 473 474
f 471 474 472
f 416 418 474
f 416 474 472
f 473 447 475
f 473 475 474
f 418 392 475
f 418 475 474
f 390 447 475
f 390 475 392
f 421 476 477
f 421 477 422
f 421 423 478
f 421 478 476
f 422 477 479
f 422 479 424
f 424 479 480
f 424 480 425
f 425 480 481
f 425 481 426
f 426 481 482
f 426 482 427
f 427 482 483
f 427 483 428
f 428 483 484
f 428 484 429
f 429 484 485
f 429 485 430
f 430 485 486
f 430 486 431
f 431 486 487
f 431 487 432
f 432 487 488
f 432 488 433
f 433 488 489
f 433 489 434
f 434 489 490
f 434 490 435
f 435 490 491
f 435 491 436
f 436 491 492
f 436 492 437
f 423 438 493
f 423 493 478
f 437 492 494
f 437 494 439
f 438 440 495
f 438 495 493
f 439 494 496
f 439 496 441
f 440 442 497
f 440 497 495
f 441 496 498
f 441 498 443
f 442 444 499
f 442 499 497
f 443 498 500
f 443 500 445
f 499 501 502
f 499 502 503
f 446 448 502
f 446 502 503
f 444 446 503
f 444 503 499
f 501 504 505
f 501 505 502
f 448 451 505
f 448 505 502
f 504 506 507
f 504 507 505
f 451 453 507
f 451 507 505
f 506 508 509
f 506 509 507
f 453 455 509
f 453 509 507
f 508 510 511
f 508 511 509
f 455 457 511
f 455 511 509
f 510 512 513
f 510 513 511
f 457 459 513
f 457 513 511
f 512 514 515
f 512 515 513
f 459 461 515
f 459 515 513
f 514 516 517
f 514 517 515
f 461 463 517
f 461 517 515
f 516 518 519
f 516 519 517
f 463 465 519
f 463 519 517
f 518 520 521
f 518 521 519
f 465 467 521
f 465 521 519
f 520 522 523
f 520 523 521
f 467 469 523
f 467 523 521
f 522 524 525
f 522 525 523
f 469 471 525
f 469 525 523
f 524 526 527
f 524 527 525
f 471 473 527
f 471 527 525
f 526 500 528
f 526 528 527
f 473 447 528
f 473 528 527
f 445 500 528
f 445 528 447
f 476 529 530
f 476 530 477
f 476 478 531
f 476 531 529
f 477 530 532
f 477 532 479
f 479 532 533
f 479 533 480
f 480 533 534
f 480 534 481
f 481 534 535
f 481 535 482
f 482 535 536
f 482 536 483
f 483 536 537
f 483 537 484
f 484 537 538
f 484 538 485
f 485 538 539
f 485 539 486
f 486 539 540
f 486 540 487
f 487 540 541
f 487 541 488
f 488 541 542
f 488 542 489
f 489 542 543
f 489 543 490
f 490 543 544
f 490 544 491
f 491 544 545
f 491 545 492
f 478 493 546
f 478 546 531
f 492 545 547
f 492 547 494
f 493 495 548
f 493 548 546
f 494 547 549
f 494 549 496
f 495 497 550
f 495 550 548
f 496 549 551
f 496 551 498
f 550 552 553
f 550 553 554
f 499 501 553
f 499 553 554
f 497 499 554
f 497 554 550
f 552 555 556
f 552 556 553
f 501 504 556
f 501 556 553
f 555 557 558
f 555 558 556
f 504 506 558
f 504 558 556
f 557 559 560
f 557 560 558
f 506 508 560
f 506 560 558
f 559 561 562
f 559 562 560
f 508 510 562
f 508 562 560
f 561 563 564
f 561 564 562
f 510 512 564
f 510 564 562
f 563 565 566
f 563 566 564
f 512 514 566
f 512 566 564
f 565 567 568
f 565 568 566
f 514 516 568
f 514 568 566
f 567 569 570
f 567 570 568
f 516 518 570
f 516 570 568
f 569 571 572
f 569 572 570
f 518 520 572
f 518 572 570
f 571 573 574
f 571 574 572
f 520 522 574
f 520 574 572
f 573 575 576
f 573 576 574
f 522 524 576
f 522 576 574
f 575 577 578
f 575 578 576
f 524 526 578
f 524 578 576
f 577 551 579
f 577 579 578
f 526 500 579
f 526 579 578
f 498 551 579
f 498 579 500
f 529 580 581
f 529 581 530
f 529 531 582
f 529 582 580
f 530 581 583
f 530 583 532
f 532 583 584
f 532 584 533
f 533 584 585
f 533 585 534
f 534 585 586
f 534 586 535
f 535 586 587
f 535 587 536
f 536 587 588
f 536 588 537
f 537 588 589
f 537 589 538
f 538 589 590
f 538 590 539
f 539 590 591
f 539 591 540
f 540 591 592
f 540 592 541
f 541 592 593
f 541 593 542
f 542 593 594
f 542 594 543
f 543 594 595
f 543 595 544
f 544 595 596
f 544 596 545
f 531 546 597
f 531 597 582
f 545 596 598
f 545 598 547
f 546 548 599
f 546 599 597
f 547 598 600
f 547 600 549
f 599 601 602
f 599 602 603
f 550 552 602
f 550 602 603
f 548 550 603
f 548 603 599
f 601 604 605
f 601 605 602
f 552 555 605
f 552 605 602
f 604 606 607
f 604 607 605
f 555 557 607
f 555 607 605
f 606 608 609
f 606 609 607
f 557 559 609
f 557 609 607
f 608 610 611
f 608 611 609
f 559 561 611
f 559 611 609
f 610 612 613
f 610 613 611
f 561 563 613
f 561 613 611
f 612 614 615
f 612 615 613
f 563 565 615
f 563 615 613
f 614 616 617
f 614 617 615
f 565 567 617
f 565 617 615
f 616 618 619
f 616 619 617
f 567 569 619
f 567 619 617
f 618 620 621
f 618 621 619
f 569 571 621
f 569 621 619
f 620 622 623
f 620 623 621
f 571 573 623
f 571 623 621
f 622 624 625
f 622 625 623
f 573 575 625
f 573 625 623
f 624 626 627
f 624 627 625
f 575 577 627
f 575 627 625
f 626 600 628
f 626 628 627
f 577 551 628
f 577 628 627
f 549 600 628
f 549 628 551
f 580 629 630
f 580 630 581
f 580 582 631
f 580 631 629
f 581 630 632
f 581 632 583
f 583 632 633
f 583 633 584
f 584 633 634
f 584 634 585
f 585 634 635
f 585 635 586
f 586 635 636
f 586 636 587
f 587 636 637
f 587 637 588
f 588 637 638
f 588 638 589
f 589 638 639
f 589 639 590
f 590 639 640
f 590 640 591
f 591 640 641
f 591 641 592
f 592 641 642
f 592 642 593
f 593 642 643
f 593 643 594
f 594 643 644
f 594 644 595
f 595 644 645
f 595 645 596
f 582 597 646
f 582 646 631
f 596 645 647
f 596 647 598
f 646 648 649
f 646 649 650
f 599 601 649
f 599 649 650
f 597 599 650
f 597 650 646
f 648 651 652
f 648 652 649
f 601 604 652
f 601 652 649
f 651 653 654
f 651 654 652
f 604 606 654
f 604 654 652
f 653 655 656
f 653 656 654
f 606 608 656
f 606 656 654
f 655 657 658
f 655 658 656
f 608 610 658
f 608 658 656
f 657 659 660
f 657 660 658
f 610 612 660
f 610 660 658
f 659 661 662
f 659 662 660
f 612 614 662
f 612 662 660
f 661 663 664
f 661 664 662
f 614 616 664
f 614 664 662
f 663 665 666
f 663 666 664
f 616 618 666
f 616 666 664
f 665 667 668
f 665 668 666
f 618 620 668
f 618 668 666
f 667 669 670
f 667 670 668
f 620 622 670
f 620 670 668
f 669 671 672
f 669 672 670
f 622 624 672
f 622 672 670
f 671 673 674
f 671 674 672
f 624 626 674
f 624 674 672
f 673 647 675
f 673 675 674
f 626 600 675
f 626 675 674
f 598 647 675
f 598 675 600
f 629 676 677
f 629 677 630
f 629 631 678
f 629 678 676
f 630 677 679
f 630 679 632
f 632 679 680
f 632 680 633
f 633 680 681
f 633 681 634
f 634 681 682
f 634 682 635
f 635 682 683
f 635 683 636
f 636 683 684
f 636 684 637
f 637 684 685
f 637 685 638
f 638 685 686
f 638 686 639
f 639 686 687
f 639 687 640
f 640 687 688
f 640 688 641
f 641 688 689
f 641 689 642
f 642 689 690
f 642 690 643
f 643 690 691
f 643 691 644
f 644 691 692
f 644 692 645
f 678 693 694
f 678 694 695
f 646 648 694
f 646 694 695
f 631 646 695
f 631 695 678
f 693 696 697
f 693 697 694
f 648 651 697
f 648 697 694
f 696 698 699
f 696 699 697
f 651 653 699
f 651 699 697
f 698 700 701
f 698 701 699
f 653 655 701
f 653 701 699
f 700 702 703
f 700 703 701
f 655 657 703
f 655 703 701
f 702 704 705
f 702 705 703
f 657 659 705
f 657 705 703
f 704 706 707
f 704 707 705
f 659 661 707
f 659 707 705
f 706 708 709
f 706 709 707
f 661 663 709
f 661 709 707
f 708 710 711
f 708 711 709
f 663 665 711
f 663 711 709
f 710 712 713
f 710 713 711
f 665 667 713
f 665 713 711
f 712 714 715
f 712 715 713
f 667 669 715
f 667 715 713
f 714 716 717
f 714 717 715
f 669 671 717
f 669 717 715
f 716 718 719
f 716 719 717
f 671 673 719
f 671 719 717
f 718 692 720
f 718 720 719
f 673 647 720
f 673 720 719
f 645 692 720
f 645 720 647
f 721 722 723
f 721 723 724
f 676 721 722
f 676 722 677
f 678 693 723
f 678 723 724
f 676 678 724
f 676 724 721
f 722 725 726
f 722 726 723
f 677 722 725
f 677 725 679
f 693 696 726
f 693 726 723
f 725 727 728
f 725 728 726
f 679 725 727
f 679 727 680
f 696 698 728
f 696 728 726
f 727 729 730
f 727 730 728
f 680 727 729
f 680 729 681
f 698 700 730
f 698 730 728
f 729 731 732
f 729 732 730
f 681 729 731
f 681 731 682
f 700 702 732
f 700 732 730
f 731 733 734
f 731 734 732
f 682 731 733
f 682 733 683
f 702 704 734
f 702 734 732
f 733 735 736
f 733 736 734
f 683 733 735
f 683 735 684
f 704 706 736
f 704 736 734
f 735 737 738
f 735 738 736
f 684 735 737
f 684 737 685
f 706 708 738
f 706 738 736
f 737 739 740
f 737 740 738
f 685 737 739
f 685 739 686
f 708 710 740
f 708 740 738
f 739 741 742
f 739 742 740
f 686 739 741
f 686 741 687
f 710 712 742
f 710 742 740
f 741 743 744
f 741 744 742
f 687 741 743
f 687 743 688
f 712 714 744
f 712 744 742
f 743 745 746
f 743 746 744
f 688 743 745
f 688 745 689
f 714 716 746
f 714 746 744
f 745 747 748
f 745 748 746
f 689 745 747
f 689 747 690
f 716 718 748
f 716 748 746
f 747 749 750
f 747 750 748
f 690 747 749
f 690 749 691
f 718 692 750
f 718 750 748
f 691 749 750
f 691 750 692
