o [4B] 3D Diagram - S2-04 Group E_41
v -8.700000 0.000000 104.754866
v -7.115045 0.000000 100.000000
v -7.272005 0.687686 100.000000
v -7.711796 1.239168 100.000000
v -8.347314 1.545217 100.000000
v -9.052686 1.545217 100.000000
v -9.688204 1.239168 100.000000
v -10.127995 0.687686 100.000000
v -10.284955 0.000000 100.000000
v -10.127995 -0.687686 100.000000
v -9.688204 -1.239168 100.000000
v -9.052686 -1.545217 100.000000
v -8.347314 -1.545217 100.000000
v -7.711796 -1.239168 100.000000
v -7.272005 -0.687686 100.000000
v -8.700000 0.000000 100.000000
f 1 2 3
f 1 3 4
f 1 4 5
f 1 5 6
f 1 6 7
f 1 7 8
f 1 8 9
f 1 9 10
f 1 10 11
f 1 11 12
f 1 12 13
f 1 13 14
f 1 14 15
f 1 15 2
f 16 3 2
f 16 4 3
f 16 5 4
f 16 6 5
f 16 7 6
f 16 8 7
f 16 9 8
f 16 10 9
f 16 11 10
f 16 12 11
f 16 13 12
f 16 14 13
f 16 15 14
f 16 2 15
