o [4B] 3D Diagram - S2-08 Group A_52
v -3.637244 -3.625070 35.175321
v -2.362756 -3.649190 35.001659
v -2.362756 -2.374930 34.824679
v -3.637244 -2.350810 34.998341
v -3.663560 -3.651386 34.985848
v -2.389072 -3.675506 34.812185
v -2.389072 -2.401246 34.635205
v -3.663560 -2.377126 34.808867
v -3.663560 -3.651386 34.985848
v -2.389072 -3.675506 34.812185
v -2.389072 -2.401246 34.635205
v -3.663560 -2.377126 34.808867
v -3.689876 -3.677702 34.796374
v -2.415387 -3.701822 34.622712
v -2.415387 -2.427561 34.445731
v -3.689876 -2.403442 34.619393
v -3.689876 -3.677702 34.796374
v -2.415387 -3.701822 34.622712
v -2.415387 -2.427561 34.445731
v -3.689876 -2.403442 34.619393
v -3.716192 -3.704018 34.606900
v -2.441703 -3.728137 34.433238
v -2.441703 -2.453877 34.256257
v -3.716192 -2.429757 34.429920
v -3.716192 -3.704018 34.606900
v -2.441703 -3.728137 34.433238
v -2.441703 -2.453877 34.256257
v -3.716192 -2.429757 34.429920
v -3.742507 -3.730333 34.417427
v -2.468019 -3.754453 34.243764
v -2.468019 -2.480193 34.066784
v -3.742507 -2.456073 34.240446
v -3.742507 -3.730333 34.417427
v -2.468019 -3.754453 34.243764
v -2.468019 -2.480193 34.066784
v -3.742507 -2.456073 34.240446
v -3.768823 -3.756649 34.227953
v -2.494335 -3.780769 34.054291
v -2.494335 -2.506509 33.877310
v -3.768823 -2.482389 34.050972
v -3.768823 -3.756649 34.227953
v -2.494335 -3.780769 34.054291
v -2.494335 -2.506509 33.877310
v -3.768823 -2.482389 34.050972
v -3.795139 -3.782965 34.038479
v -2.520651 -3.807085 33.864817
v -2.520651 -2.532825 33.687836
v -3.795139 -2.508705 33.861499
v -3.795139 -3.782965 34.038479
v -2.520651 -3.807085 33.864817
v -2.520651 -2.532825 33.687836
v -3.795139 -2.508705 33.861499
v -3.821455 -3.809281 33.849006
v -2.546966 -3.833401 33.675343
v -2.546966 -2.559140 33.498363
v -3.821455 -2.535021 33.672025
v -3.821455 -3.809281 33.849006
v -2.546966 -3.833401 33.675343
v -2.546966 -2.559140 33.498363
v -3.821455 -2.535021 33.672025
v -3.847771 -3.835597 33.659532
v -2.573282 -3.859716 33.485870
v -2.573282 -2.585456 33.308889
v -3.847771 -2.561336 33.482551
v -3.847771 -3.835597 33.659532
v -2.573282 -3.859716 33.485870
v -2.573282 -2.585456 33.308889
v -3.847771 -2.561336 33.482551
v -3.874086 -3.861912 33.470058
v -2.599598 -3.886032 33.296396
v -2.599598 -2.611772 33.119415
v -3.874086 -2.587652 33.293078
v -3.874086 -3.861912 33.470058
v -2.599598 -3.886032 33.296396
v -2.599598 -2.611772 33.119415
v -3.874086 -2.587652 33.293078
v -3.900402 -3.888228 33.280585
v -2.625914 -3.912348 33.106922
v -2.625914 -2.638088 32.929942
v -3.900402 -2.613968 33.103604
v -3.900402 -3.888228 33.280585
v -2.625914 -3.912348 33.106922
v -2.625914 -2.638088 32.929942
v -3.900402 -2.613968 33.103604
v -3.926718 -3.914544 33.091111
v -2.652229 -3.938664 32.917449
v -2.652229 -2.664403 32.740468
v -3.926718 -2.640284 32.914130
v -3.926718 -3.914544 33.091111
v -2.652229 -3.938664 32.917449
v -2.652229 -2.664403 32.740468
v -3.926718 -2.640284 32.914130
v -3.953034 -3.940860 32.901637
v -2.678545 -3.964979 32.727975
v -2.678545 -2.690719 32.550994
v -3.953034 -2.666599 32.724657
v -3.953034 -3.940860 32.901637
v -2.678545 -3.964979 32.727975
v -2.678545 -2.690719 32.550994
v -3.953034 -2.666599 32.724657
v -3.979349 -3.967175 32.712164
v -2.704861 -3.991295 32.538501
v -2.704861 -2.717035 32.361521
v -3.979349 -2.692915 32.535183
v -3.979349 -3.967175 32.712164
v -2.704861 -3.991295 32.538501
v -2.704861 -2.717035 32.361521
v -3.979349 -2.692915 32.535183
v -4.005665 -3.993491 32.522690
v -2.731177 -4.017611 32.349028
v -2.731177 -2.743351 32.172047
v -4.005665 -2.719231 32.345709
v -4.005665 -3.993491 32.522690
v -2.731177 -4.017611 32.349028
v -2.731177 -2.743351 32.172047
v -4.005665 -2.719231 32.345709
v -4.031981 -4.019807 32.333216
v -2.757493 -4.043927 32.159554
v -2.757493 -2.769667 31.982573
v -4.031981 -2.745547 32.156236
v -4.031981 -4.019807 32.333216
v -2.757493 -4.043927 32.159554
v -2.757493 -2.769667 31.982573
v -4.031981 -2.745547 32.156236
v -4.058297 -4.046123 32.143743
v -2.783808 -4.070243 31.970080
v -2.783808 -2.795982 31.793100
v -4.058297 -2.771863 31.966762
v -4.058297 -4.046123 32.143743
v -2.783808 -4.070243 31.970080
v -2.783808 -2.795982 31.793100
v -4.058297 -2.771863 31.966762
v -4.084613 -4.072439 31.954269
v -2.810124 -4.096558 31.780607
v -2.810124 -2.822298 31.603626
v -4.084613 -2.798178 31.777288
v -4.084613 -4.072439 31.954269
v -2.810124 -4.096558 31.780607
v -2.810124 -2.822298 31.603626
v -4.084613 -2.798178 31.777288
v -4.110928 -4.098754 31.764795
v -2.836440 -4.122874 31.591133
v -2.836440 -2.848614 31.414152
v -4.110928 -2.824494 31.587815
v -4.110928 -4.098754 31.764795
v -2.836440 -4.122874 31.591133
v -2.836440 -2.848614 31.414152
v -4.110928 -2.824494 31.587815
v -4.137244 -4.125070 31.575321
v -2.862756 -4.149190 31.401659
v -2.862756 -2.874930 31.224679
v -4.137244 -2.850810 31.398341
v -4.137244 -4.125070 31.575321
v -2.862756 -4.149190 31.401659
v -2.862756 -2.874930 31.224679
v -4.137244 -2.850810 31.398341
v -4.163560 -4.151386 31.385848
v -2.889072 -4.175506 31.212185
v -2.889072 -2.901246 31.035205
v -4.163560 -2.877126 31.208867
v -4.163560 -4.151386 31.385848
v -2.889072 -4.175506 31.212185
v -2.889072 -2.901246 31.035205
v -4.163560 -2.877126 31.208867
v -4.189876 -4.177702 31.196374
v -2.915387 -4.201822 31.022712
v -2.915387 -2.927561 30.845731
v -4.189876 -2.903442 31.019393
v -4.189876 -4.177702 31.196374
v -2.915387 -4.201822 31.022712
v -2.915387 -2.927561 30.845731
v -4.189876 -2.903442 31.019393
v -4.216192 -4.204018 31.006900
v -2.941703 -4.228137 30.833238
v -2.941703 -2.953877 30.656257
v -4.216192 -2.929757 30.829920
v -4.216192 -4.204018 31.006900
v -2.941703 -4.228137 30.833238
v -2.941703 -2.953877 30.656257
v -4.216192 -2.929757 30.829920
v -4.242507 -4.230333 30.817427
v -2.968019 -4.254453 30.643764
v -2.968019 -2.980193 30.466784
v -4.242507 -2.956073 30.640446
v -4.242507 -4.230333 30.817427
v -2.968019 -4.254453 30.643764
v -2.968019 -2.980193 30.466784
v -4.242507 -2.956073 30.640446
v -4.268823 -4.256649 30.627953
v -2.994335 -4.280769 30.454291
v -2.994335 -3.006509 30.277310
v -4.268823 -2.982389 30.450972
v -4.268823 -4.256649 30.627953
v -2.994335 -4.280769 30.454291
v -2.994335 -3.006509 30.277310
v -4.268823 -2.982389 30.450972
v -4.295139 -4.282965 30.438479
v -3.020651 -4.307085 30.264817
v -3.020651 -3.032825 30.087836
v -4.295139 -3.008705 30.261499
v -4.295139 -4.282965 30.438479
v -3.020651 -4.307085 30.264817
v -3.020651 -3.032825 30.087836
v -4.295139 -3.008705 30.261499
v -4.321455 -4.309281 30.249006
v -3.046966 -4.333401 30.075343
v -3.046966 -3.059140 29.898363
v -4.321455 -3.035021 30.072025
v -4.321455 -4.309281 30.249006
v -3.046966 -4.333401 30.075343
v -3.046966 -3.059140 29.898363
v -4.321455 -3.035021 30.072025
v -4.347771 -4.335597 30.059532
v -3.073282 -4.359716 29.885870
v -3.073282 -3.085456 29.708889
v -4.347771 -3.061336 29.882551
v -4.347771 -4.335597 30.059532
v -3.073282 -4.359716 29.885870
v -3.073282 -3.085456 29.708889
v -4.347771 -3.061336 29.882551
v -4.374086 -4.361912 29.870058
v -3.099598 -4.386032 29.696396
v -3.099598 -3.111772 29.519415
v -4.374086 -3.087652 29.693078
v -4.374086 -4.361912 29.870058
v -3.099598 -4.386032 29.696396
v -3.099598 -3.111772 29.519415
v -4.374086 -3.087652 29.693078
v -4.400402 -4.388228 29.680585
v -3.125914 -4.412348 29.506922
v -3.125914 -3.138088 29.329942
v -4.400402 -3.113968 29.503604
v -4.400402 -4.388228 29.680585
v -3.125914 -4.412348 29.506922
v -3.125914 -3.138088 29.329942
v -4.400402 -3.113968 29.503604
v -4.426718 -4.414544 29.491111
v -3.152229 -4.438664 29.317449
v -3.152229 -3.164403 29.140468
v -4.426718 -3.140284 29.314130
v -4.426718 -4.414544 29.491111
v -3.152229 -4.438664 29.317449
v -3.152229 -3.164403 29.140468
v -4.426718 -3.140284 29.314130
v -4.453034 -4.440860 29.301637
v -3.178545 -4.464979 29.127975
v -3.178545 -3.190719 28.950994
v -4.453034 -3.166599 29.124657
v -4.453034 -4.440860 29.301637
v -3.178545 -4.464979 29.127975
v -3.178545 -3.190719 28.950994
v -4.453034 -3.166599 29.124657
v -4.479349 -4.467175 29.112164
v -3.204861 -4.491295 28.938501
v -3.204861 -3.217035 28.761521
v -4.479349 -3.192915 28.935183
v -4.479349 -4.467175 29.112164
v -3.204861 -4.491295 28.938501
v -3.204861 -3.217035 28.761521
v -4.479349 -3.192915 28.935183
v -4.505665 -4.493491 28.922690
v -3.231177 -4.517611 28.749028
v -3.231177 -3.243351 28.572047
v -4.505665 -3.219231 28.745709
v -4.505665 -4.493491 28.922690
v -3.231177 -4.517611 28.749028
v -3.231177 -3.243351 28.572047
v -4.505665 -3.219231 28.745709
v -4.531981 -4.519807 28.733216
v -3.257493 -4.543927 28.559554
v -3.257493 -3.269667 28.382573
v -4.531981 -3.245547 28.556236
v -4.531981 -4.519807 28.733216
v -3.257493 -4.543927 28.559554
v -3.257493 -3.269667 28.382573
v -4.531981 -3.245547 28.556236
v -4.558297 -4.546123 28.543743
v -3.283808 -4.570243 28.370080
v -3.283808 -3.295982 28.193100
v -4.558297 -3.271863 28.366762
v -4.558297 -4.546123 28.543743
v -3.283808 -4.570243 28.370080
v -3.283808 -3.295982 28.193100
v -4.558297 -3.271863 28.366762
v -4.584613 -4.572439 28.354269
v -3.310124 -4.596558 28.180607
v -3.310124 -3.322298 28.003626
v -4.584613 -3.298178 28.177288
v -4.584613 -4.572439 28.354269
v -3.310124 -4.596558 28.180607
v -3.310124 -3.322298 28.003626
v -4.584613 -3.298178 28.177288
v -4.610928 -4.598754 28.164795
v -3.336440 -4.622874 27.991133
v -3.336440 -3.348614 27.814152
v -4.610928 -3.324494 27.987815
v -4.610928 -4.598754 28.164795
v -3.336440 -4.622874 27.991133
v -3.336440 -3.348614 27.814152
v -4.610928 -3.324494 27.987815
v -4.637244 -4.625070 27.975321
v -3.362756 -4.649190 27.801659
v -3.362756 -3.374930 27.624679
v -4.637244 -3.350810 27.798341
v -4.637244 -4.625070 27.975321
v -3.362756 -4.649190 27.801659
v -3.362756 -3.374930 27.624679
v -4.637244 -3.350810 27.798341
v -4.663560 -4.651386 27.785848
v -3.389072 -4.675506 27.612185
v -3.389072 -3.401246 27.435205
v -4.663560 -3.377126 27.608867
v -4.663560 -4.651386 27.785848
v -3.389072 -4.675506 27.612185
v -3.389072 -3.401246 27.435205
v -4.663560 -3.377126 27.608867
v -4.689876 -4.677702 27.596374
v -3.415387 -4.701822 27.422712
v -3.415387 -3.427561 27.245731
v -4.689876 -3.403442 27.419393
v -4.689876 -4.677702 27.596374
v -3.415387 -4.701822 27.422712
v -3.415387 -3.427561 27.245731
v -4.689876 -3.403442 27.419393
v -4.716192 -4.704018 27.406900
v -3.441703 -4.728137 27.233238
v -3.441703 -3.453877 27.056257
v -4.716192 -3.429757 27.229920
v -4.716192 -4.704018 27.406900
v -3.441703 -4.728137 27.233238
v -3.441703 -3.453877 27.056257
v -4.716192 -3.429757 27.229920
v -4.742507 -4.730333 27.217427
v -3.468019 -4.754453 27.043764
v -3.468019 -3.480193 26.866784
v -4.742507 -3.456073 27.040446
v -4.742507 -4.730333 27.217427
v -3.468019 -4.754453 27.043764
v -3.468019 -3.480193 26.866784
v -4.742507 -3.456073 27.040446
v -4.768823 -4.756649 27.027953
v -3.494335 -4.780769 26.854291
v -3.494335 -3.506509 26.677310
v -4.768823 -3.482389 26.850972
v -4.768823 -4.756649 27.027953
v -3.494335 -4.780769 26.854291
v -3.494335 -3.506509 26.677310
v -4.768823 -3.482389 26.850972
v -4.795139 -4.782965 26.838479
v -3.520651 -4.807085 26.664817
v -3.520651 -3.532825 26.487836
v -4.795139 -3.508705 26.661499
v -4.795139 -4.782965 26.838479
v -3.520651 -4.807085 26.664817
v -3.520651 -3.532825 26.487836
v -4.795139 -3.508705 26.661499
v -4.821455 -4.809281 26.649006
v -3.546966 -4.833401 26.475343
v -3.546966 -3.559140 26.298363
v -4.821455 -3.535021 26.472025
v -4.821455 -4.809281 26.649006
v -3.546966 -4.833401 26.475343
v -3.546966 -3.559140 26.298363
v -4.821455 -3.535021 26.472025
v -4.847771 -4.835597 26.459532
v -3.573282 -4.859716 26.285870
v -3.573282 -3.585456 26.108889
v -4.847771 -3.561336 26.282551
v -4.847771 -4.835597 26.459532
v -3.573282 -4.859716 26.285870
v -3.573282 -3.585456 26.108889
v -4.847771 -3.561336 26.282551
v -4.874086 -4.861912 26.270058
v -3.599598 -4.886032 26.096396
v -3.599598 -3.611772 25.919415
v -4.874086 -3.587652 26.093078
v -4.874086 -4.861912 26.270058
v -3.599598 -4.886032 26.096396
v -3.599598 -3.611772 25.919415
v -4.874086 -3.587652 26.093078
v -4.900402 -4.888228 26.080585
v -3.625914 -4.912348 25.906922
v -3.625914 -3.638088 25.729942
v -4.900402 -3.613968 25.903604
v -4.900402 -4.888228 26.080585
v -3.625914 -4.912348 25.906922
v -3.625914 -3.638088 25.729942
v -4.900402 -3.613968 25.903604
v -4.926718 -4.914544 25.891111
v -3.652229 -4.938664 25.717449
v -3.652229 -3.664403 25.540468
v -4.926718 -3.640284 25.714130
v -4.926718 -4.914544 25.891111
v -3.652229 -4.938664 25.717449
v -3.652229 -3.664403 25.540468
v -4.926718 -3.640284 25.714130
v -4.953034 -4.940860 25.701637
v -3.678545 -4.964979 25.527975
v -3.678545 -3.690719 25.350994
v -4.953034 -3.666599 25.524657
v -4.953034 -4.940860 25.701637
v -3.678545 -4.964979 25.527975
v -3.678545 -3.690719 25.350994
v -4.953034 -3.666599 25.524657
v -4.979349 -4.967175 25.512164
v -3.704861 -4.991295 25.338501
v -3.704861 -3.717035 25.161521
v -4.979349 -3.692915 25.335183
v -4.979349 -4.967175 25.512164
v -3.704861 -4.991295 25.338501
v -3.704861 -3.717035 25.161521
v -4.979349 -3.692915 25.335183
v -5.005665 -4.993491 25.322690
v -3.731177 -5.017611 25.149028
v -3.731177 -3.743351 24.972047
v -5.005665 -3.719231 25.145709
v -5.005665 -4.993491 25.322690
v -3.731177 -5.017611 25.149028
v -3.731177 -3.743351 24.972047
v -5.005665 -3.719231 25.145709
v -5.031981 -5.019807 25.133216
v -3.757493 -5.043927 24.959554
v -3.757493 -3.769667 24.782573
v -5.031981 -3.745547 24.956236
v -5.031981 -5.019807 25.133216
v -3.757493 -5.043927 24.959554
v -3.757493 -3.769667 24.782573
v -5.031981 -3.745547 24.956236
v -5.058297 -5.046123 24.943743
v -3.783808 -5.070243 24.770080
v -3.783808 -3.795982 24.593100
v -5.058297 -3.771863 24.766762
v -5.058297 -5.046123 24.943743
v -3.783808 -5.070243 24.770080
v -3.783808 -3.795982 24.593100
v -5.058297 -3.771863 24.766762
v -5.084613 -5.072439 24.754269
v -3.810124 -5.096558 24.580607
v -3.810124 -3.822298 24.403626
v -5.084613 -3.798178 24.577288
v -5.084613 -5.072439 24.754269
v -3.810124 -5.096558 24.580607
v -3.810124 -3.822298 24.403626
v -5.084613 -3.798178 24.577288
v -5.110928 -5.098754 24.564795
v -3.836440 -5.122874 24.391133
v -3.836440 -3.848614 24.214152
v -5.110928 -3.824494 24.387815
v -5.110928 -5.098754 24.564795
v -3.836440 -5.122874 24.391133
v -3.836440 -3.848614 24.214152
v -5.110928 -3.824494 24.387815
v -5.137244 -5.125070 24.375321
v -3.862756 -5.149190 24.201659
v -3.862756 -3.874930 24.024679
v -5.137244 -3.850810 24.198341
v -5.137244 -5.125070 24.375321
v -3.862756 -5.149190 24.201659
v -3.862756 -3.874930 24.024679
v -5.137244 -3.850810 24.198341
v -5.163560 -5.151386 24.185848
v -3.889072 -5.175506 24.012185
v -3.889072 -3.901246 23.835205
v -5.163560 -3.877126 24.008867
v -5.163560 -5.151386 24.185848
v -3.889072 -5.175506 24.012185
v -3.889072 -3.901246 23.835205
v -5.163560 -3.877126 24.008867
v -5.189876 -5.177702 23.996374
v -3.915387 -5.201822 23.822712
v -3.915387 -3.927561 23.645731
v -5.189876 -3.903442 23.819393
v -5.189876 -5.177702 23.996374
v -3.915387 -5.201822 23.822712
v -3.915387 -3.927561 23.645731
v -5.189876 -3.903442 23.819393
v -5.216192 -5.204018 23.806900
v -3.941703 -5.228137 23.633238
v -3.941703 -3.953877 23.456257
v -5.216192 -3.929757 23.629920
v -5.216192 -5.204018 23.806900
v -3.941703 -5.228137 23.633238
v -3.941703 -3.953877 23.456257
v -5.216192 -3.929757 23.629920
v -5.242507 -5.230333 23.617427
v -3.968019 -5.254453 23.443764
v -3.968019 -3.980193 23.266784
v -5.242507 -3.956073 23.440446
v -5.242507 -5.230333 23.617427
v -3.968019 -5.254453 23.443764
v -3.968019 -3.980193 23.266784
v -5.242507 -3.956073 23.440446
v -5.268823 -5.256649 23.427953
v -3.994335 -5.280769 23.254291
v -3.994335 -4.006509 23.077310
v -5.268823 -3.982389 23.250972
v -5.268823 -5.256649 23.427953
v -3.994335 -5.280769 23.254291
v -3.994335 -4.006509 23.077310
v -5.268823 -3.982389 23.250972
v -5.295139 -5.282965 23.238479
v -4.020651 -5.307085 23.064817
v -4.020651 -4.032825 22.887836
v -5.295139 -4.008705 23.061499
v -5.295139 -5.282965 23.238479
v -4.020651 -5.307085 23.064817
v -4.020651 -4.032825 22.887836
v -5.295139 -4.008705 23.061499
v -5.321455 -5.309281 23.049006
v -4.046966 -5.333401 22.875343
v -4.046966 -4.059140 22.698363
v -5.321455 -4.035021 22.872025
v -5.321455 -5.309281 23.049006
v -4.046966 -5.333401 22.875343
v -4.046966 -4.059140 22.698363
v -5.321455 -4.035021 22.872025
v -5.347771 -5.335597 22.859532
v -4.073282 -5.359716 22.685870
v -4.073282 -4.085456 22.508889
v -5.347771 -4.061336 22.682551
v -5.347771 -5.335597 22.859532
v -4.073282 -5.359716 22.685870
v -4.073282 -4.085456 22.508889
v -5.347771 -4.061336 22.682551
v -5.374086 -5.361912 22.670058
v -4.099598 -5.386032 22.496396
v -4.099598 -4.111772 22.319415
v -5.374086 -4.087652 22.493078
v -5.374086 -5.361912 22.670058
v -4.099598 -5.386032 22.496396
v -4.099598 -4.111772 22.319415
v -5.374086 -4.087652 22.493078
v -5.400402 -5.388228 22.480585
v -4.125914 -5.412348 22.306922
v -4.125914 -4.138088 22.129942
v -5.400402 -4.113968 22.303604
v -5.400402 -5.388228 22.480585
v -4.125914 -5.412348 22.306922
v -4.125914 -4.138088 22.129942
v -5.400402 -4.113968 22.303604
v -5.426718 -5.414544 22.291111
v -4.152229 -5.438664 22.117449
v -4.152229 -4.164403 21.940468
v -5.426718 -4.140284 22.114130
v -5.426718 -5.414544 22.291111
v -4.152229 -5.438664 22.117449
v -4.152229 -4.164403 21.940468
v -5.426718 -4.140284 22.114130
v -5.453034 -5.440860 22.101637
v -4.178545 -5.464979 21.927975
v -4.178545 -4.190719 21.750994
v -5.453034 -4.166599 21.924657
v -5.453034 -5.440860 22.101637
v -4.178545 -5.464979 21.927975
v -4.178545 -4.190719 21.750994
v -5.453034 -4.166599 21.924657
v -5.479349 -5.467175 21.912164
v -4.204861 -5.491295 21.738501
v -4.204861 -4.217035 21.561521
v -5.479349 -4.192915 21.735183
v -5.479349 -5.467175 21.912164
v -4.204861 -5.491295 21.738501
v -4.204861 -4.217035 21.561521
v -5.479349 -4.192915 21.735183
v -5.505665 -5.493491 21.722690
v -4.231177 -5.517611 21.549028
v -4.231177 -4.243351 21.372047
v -5.505665 -4.219231 21.545709
v -5.505665 -5.493491 21.722690
v -4.231177 -5.517611 21.549028
v -4.231177 -4.243351 21.372047
v -5.505665 -4.219231 21.545709
v -5.531981 -5.519807 21.533216
v -4.257493 -5.543927 21.359554
v -4.257493 -4.269667 21.182573
v -5.531981 -4.245547 21.356236
v -5.531981 -5.519807 21.533216
v -4.257493 -5.543927 21.359554
v -4.257493 -4.269667 21.182573
v -5.531981 -4.245547 21.356236
v -5.558297 -5.546123 21.343743
v -4.283808 -5.570243 21.170080
v -4.283808 -4.295982 20.993100
v -5.558297 -4.271863 21.166762
v -5.558297 -5.546123 21.343743
v -4.283808 -5.570243 21.170080
v -4.283808 -4.295982 20.993100
v -5.558297 -4.271863 21.166762
v -5.584613 -5.572439 21.154269
v -4.310124 -5.596558 20.980607
v -4.310124 -4.322298 20.803626
v -5.584613 -4.298178 20.977288
v -5.584613 -5.572439 21.154269
v -4.310124 -5.596558 20.980607
v -4.310124 -4.322298 20.803626
v -5.584613 -4.298178 20.977288
v -5.610928 -5.598754 20.964795
v -4.336440 -5.622874 20.791133
v -4.336440 -4.348614 20.614152
v -5.610928 -4.324494 20.787815
v -5.610928 -5.598754 20.964795
v -4.336440 -5.622874 20.791133
v -4.336440 -4.348614 20.614152
v -5.610928 -4.324494 20.787815
v -5.637244 -5.625070 20.775321
v -4.362756 -5.649190 20.601659
v -4.362756 -4.374930 20.424679
v -5.637244 -4.350810 20.598341
v -5.637244 -5.625070 20.775321
v -4.362756 -5.649190 20.601659
v -4.362756 -4.374930 20.424679
v -5.637244 -4.350810 20.598341
v -5.663560 -5.651386 20.585848
v -4.389072 -5.675506 20.412185
v -4.389072 -4.401246 20.235205
v -5.663560 -4.377126 20.408867
v -5.663560 -5.651386 20.585848
v -4.389072 -5.675506 20.412185
v -4.389072 -4.401246 20.235205
v -5.663560 -4.377126 20.408867
v -5.689876 -5.677702 20.396374
v -4.415387 -5.701822 20.222712
v -4.415387 -4.427561 20.045731
v -5.689876 -4.403442 20.219393
v -5.689876 -5.677702 20.396374
v -4.415387 -5.701822 20.222712
v -4.415387 -4.427561 20.045731
v -5.689876 -4.403442 20.219393
v -5.716192 -5.704018 20.206900
v -4.441703 -5.728137 20.033238
v -4.441703 -4.453877 19.856257
v -5.716192 -4.429757 20.029920
v -5.716192 -5.704018 20.206900
v -4.441703 -5.728137 20.033238
v -4.441703 -4.453877 19.856257
v -5.716192 -4.429757 20.029920
v -5.742507 -5.730333 20.017427
v -4.468019 -5.754453 19.843764
v -4.468019 -4.480193 19.666784
v -5.742507 -4.456073 19.840446
v -5.742507 -5.730333 20.017427
v -4.468019 -5.754453 19.843764
v -4.468019 -4.480193 19.666784
v -5.742507 -4.456073 19.840446
v -5.768823 -5.756649 19.827953
v -4.494335 -5.780769 19.654291
v -4.494335 -4.506509 19.477310
v -5.768823 -4.482389 19.650972
v -5.768823 -5.756649 19.827953
v -4.494335 -5.780769 19.654291
v -4.494335 -4.506509 19.477310
v -5.768823 -4.482389 19.650972
v -5.795139 -5.782965 19.638479
v -4.520651 -5.807085 19.464817
v -4.520651 -4.532825 19.287836
v -5.795139 -4.508705 19.461499
v -5.795139 -5.782965 19.638479
v -4.520651 -5.807085 19.464817
v -4.520651 -4.532825 19.287836
v -5.795139 -4.508705 19.461499
v -5.821455 -5.809281 19.449006
v -4.546966 -5.833401 19.275343
v -4.546966 -4.559140 19.098363
v -5.821455 -4.535021 19.272025
v -5.821455 -5.809281 19.449006
v -4.546966 -5.833401 19.275343
v -4.546966 -4.559140 19.098363
v -5.821455 -4.535021 19.272025
v -5.847771 -5.835597 19.259532
v -4.573282 -5.859716 19.085870
v -4.573282 -4.585456 18.908889
v -5.847771 -4.561336 19.082551
v -5.847771 -5.835597 19.259532
v -4.573282 -5.859716 19.085870
v -4.573282 -4.585456 18.908889
v -5.847771 -4.561336 19.082551
v -5.874086 -5.861912 19.070058
v -4.599598 -5.886032 18.896396
v -4.599598 -4.611772 18.719415
v -5.874086 -4.587652 18.893078
v -5.874086 -5.861912 19.070058
v -4.599598 -5.886032 18.896396
v -4.599598 -4.611772 18.719415
v -5.874086 -4.587652 18.893078
v -5.900402 -5.888228 18.880585
v -4.625914 -5.912348 18.706922
v -4.625914 -4.638088 18.529942
v -5.900402 -4.613968 18.703604
v -5.900402 -5.888228 18.880585
v -4.625914 -5.912348 18.706922
v -4.625914 -4.638088 18.529942
v -5.900402 -4.613968 18.703604
v -5.926718 -5.914544 18.691111
v -4.652229 -5.938664 18.517449
v -4.652229 -4.664403 18.340468
v -5.926718 -4.640284 18.514130
v -5.926718 -5.914544 18.691111
v -4.652229 -5.938664 18.517449
v -4.652229 -4.664403 18.340468
v -5.926718 -4.640284 18.514130
v -5.953034 -5.940860 18.501637
v -4.678545 -5.964979 18.327975
v -4.678545 -4.690719 18.150994
v -5.953034 -4.666599 18.324657
v -5.953034 -5.940860 18.501637
v -4.678545 -5.964979 18.327975
v -4.678545 -4.690719 18.150994
v -5.953034 -4.666599 18.324657
v -5.979349 -5.967175 18.312164
v -4.704861 -5.991295 18.138501
v -4.704861 -4.717035 17.961521
v -5.979349 -4.692915 18.135183
v -5.979349 -5.967175 18.312164
v -4.704861 -5.991295 18.138501
v -4.704861 -4.717035 17.961521
v -5.979349 -4.692915 18.135183
v -6.005665 -5.993491 18.122690
v -4.731177 -6.017611 17.949028
v -4.731177 -4.743351 17.772047
v -6.005665 -4.719231 17.945709
v -6.005665 -5.993491 18.122690
v -4.731177 -6.017611 17.949028
v -4.731177 -4.743351 17.772047
v -6.005665 -4.719231 17.945709
v -6.031981 -6.019807 17.933216
v -4.757493 -6.043927 17.759554
v -4.757493 -4.769667 17.582573
v -6.031981 -4.745547 17.756236
v -6.031981 -6.019807 17.933216
v -4.757493 -6.043927 17.759554
v -4.757493 -4.769667 17.582573
v -6.031981 -4.745547 17.756236
v -6.058297 -6.046123 17.743743
v -4.783808 -6.070243 17.570080
v -4.783808 -4.795982 17.393100
v -6.058297 -4.771863 17.566762
v -6.058297 -6.046123 17.743743
v -4.783808 -6.070243 17.570080
v -4.783808 -4.795982 17.393100
v -6.058297 -4.771863 17.566762
v -6.084613 -6.072439 17.554269
v -4.810124 -6.096558 17.380607
v -4.810124 -4.822298 17.203626
v -6.084613 -4.798178 17.377288
v -6.084613 -6.072439 17.554269
v -4.810124 -6.096558 17.380607
v -4.810124 -4.822298 17.203626
v -6.084613 -4.798178 17.377288
v -6.110928 -6.098754 17.364795
v -4.836440 -6.122874 17.191133
v -4.836440 -4.848614 17.014152
v -6.110928 -4.824494 17.187815
v -6.110928 -6.098754 17.364795
v -4.836440 -6.122874 17.191133
v -4.836440 -4.848614 17.014152
v -6.110928 -4.824494 17.187815
v -6.137244 -6.125070 17.175321
v -4.862756 -6.149190 17.001659
v -4.862756 -4.874930 16.824679
v -6.137244 -4.850810 16.998341
f 1 2 3
f 1 3 4
f 5 8 7
f 5 7 6
f 1 5 6
f 1 6 2
f 2 6 7
f 2 7 3
f 3 7 8
f 3 8 4
f 4 8 5
f 4 5 1
f 9 10 11
f 9 11 12
f 13 16 15
f 13 15 14
f 9 13 14
f 9 14 10
f 10 14 15
f 10 15 11
f 11 15 16
f 11 16 12
f 12 16 13
f 12 13 9
f 17 18 19
f 17 19 20
f 21 24 23
f 21 23 22
f 17 21 22
f 17 22 18
f 18 22 23
f 18 23 19
f 19 23 24
f 19 24 20
f 20 24 21
f 20 21 17
f 25 26 27
f 25 27 28
f 29 32 31
f 29 31 30
f 25 29 30
f 25 30 26
f 26 30 31
f 26 31 27
f 27 31 32
f 27 32 28
f 28 32 29
f 28 29 25
f 33 34 35
f 33 35 36
f 37 40 39
f 37 39 38
f 33 37 38
f 33 38 34
f 34 38 39
f 34 39 35
f 35 39 40
f 35 40 36
f 36 40 37
f 36 37 33
f 41 42 43
f 41 43 44
f 45 48 47
f 45 47 46
f 41 45 46
f 41 46 42
f 42 46 47
f 42 47 43
f 43 47 48
f 43 48 44
f 44 48 45
f 44 45 41
f 49 50 51
f 49 51 52
f 53 56 55
f 53 55 54
f 49 53 54
f 49 54 50
f 50 54 55
f 50 55 51
f 51 55 56
f 51 56 52
f 52 56 53
f 52 53 49
f 57 58 59
f 57 59 60
f 61 64 63
f 61 63 62
f 57 61 62
f 57 62 58
f 58 62 63
f 58 63 59
f 59 63 64
f 59 64 60
f 60 64 61
f 60 61 57
f 65 66 67
f 65 67 68
f 69 72 71
f 69 71 70
f 65 69 70
f 65 70 66
f 66 70 71
f 66 71 67
f 67 71 72
f 67 72 68
f 68 72 69
f 68 69 65
f 73 74 75
f 73 75 76
f 77 80 79
f 77 79 78
f 73 77 78
f 73 78 74
f 74 78 79
f 74 79 75
f 75 79 80
f 75 80 76
f 76 80 77
f 76 77 73
f 81 82 83
f 81 83 84
f 85 88 87
f 85 87 86
f 81 85 86
f 81 86 82
f 82 86 87
f 82 87 83
f 83 87 88
f 83 88 84
f 84 88 85
f 84 85 81
f 89 90 91
f 89 91 92
f 93 96 95
f 93 95 94
f 89 93 94
f 89 94 90
f 90 94 95
f 90 95 91
f 91 95 96
f 91 96 92
f 92 96 93
f 92 93 89
f 97 98 99
f 97 99 100
f 101 104 103
f 101 103 102
f 97 101 102
f 97 102 98
f 98 102 103
f 98 103 99
f 99 103 104
f 99 104 100
f 100 104 101
f 100 101 97
f 105 106 107
f 105 107 108
f 109 112 111
f 109 111 110
f 105 109 110
f 105 110 106
f 106 110 111
f 106 111 107
f 107 111 112
f 107 112 108
f 108 112 109
f 108 109 105
f 113 114 115
f 113 115 116
f 117 120 119
f 117 119 118
f 113 117 118
f 113 118 114
f 114 118 119
f 114 119 115
f 115 119 120
f 115 120 116
f 116 120 117
f 116 117 113
f 121 122 123
f 121 123 124
f 125 128 127
f 125 127 126
f 121 125 126
f 121 126 122
f 122 126 127
f 122 127 123
f 123 127 128
f 123 128 124
f 124 128 125
f 124 125 121
f 129 130 131
f 129 131 132
f 133 136 135
f 133 135 134
f 129 133 134
f 129 134 130
f 130 134 135
f 130 135 131
f 131 135 136
f 131 136 132
f 132 136 133
f 132 133 129
f 137 138 139
f 137 139 140
f 141 144 143
f 141 143 142
f 137 141 142
f 137 142 138
f 138 142 143
f 138 143 139
f 139 143 144
f 139 144 140
f 140 144 141
f 140 141 137
f 145 146 147
f 145 147 148
f 149 152 151
f 149 151 150
f 145 149 150
f 145 150 146
f 146 150 151
f 146 151 147
f 147 151 152
f 147 152 148
f 148 152 149
f 148 149 145
f 153 154 155
f 153 155 156
f 157 160 159
f 157 159 158
f 153 157 158
f 153 158 154
f 154 158 159
f 154 159 155
f 155 159 160
f 155 160 156
f 156 160 157
f 156 157 153
f 161 162 163
f 161 163 164
f 165 168 167
f 165 167 166
f 161 165 166
f 161 166 162
f 162 166 167
f 162 167 163
f 163 167 168
f 163 168 164
f 164 168 165
f 164 165 161
f 169 170 171
f 169 171 172
f 173 176 175
f 173 175 174
f 169 173 174
f 169 174 170
f 170 174 175
f 170 175 171
f 171 175 176
f 171 176 172
f 172 176 173
f 172 173 169
f 177 178 179
f 177 179 180
f 181 184 183
f 181 183 182
f 177 181 182
f 177 182 178
f 178 182 183
f 178 183 179
f 179 183 184
f 179 184 180
f 180 184 181
f 180 181 177
f 185 186 187
f 185 187 188
f 189 192 191
f 189 191 190
f 185 189 190
f 185 190 186
f 186 190 191
f 186 191 187
f 187 191 192
f 187 192 188
f 188 192 189
f 188 189 185
f 193 194 195
f 193 195 196
f 197 200 199
f 197 199 198
f 193 197 198
f 193 198 194
f 194 198 199
f 194 199 195
f 195 199 200
f 195 200 196
f 196 200 197
f 196 197 193
f 201 202 203
f 201 203 204
f 205 208 207
f 205 207 206
f 201 205 206
f 201 206 202
f 202 206 207
f 202 207 203
f 203 207 208
f 203 208 204
f 204 208 205
f 204 205 201
f 209 210 211
f 209 211 212
f 213 216 215
f 213 215 214
f 209 213 214
f 209 214 210
f 210 214 215
f 210 215 211
f 211 215 216
f 211 216 212
f 212 216 213
f 212 213 209
f 217 218 219
f 217 219 220
f 221 224 223
f 221 223 222
f 217 221 222
f 217 222 218
f 218 222 223
f 218 223 219
f 219 223 224
f 219 224 220
f 220 224 221
f 220 221 217
f 225 226 227
f 225 227 228
f 229 232 231
f 229 231 230
f 225 229 230
f 225 230 226
f 226 230 231
f 226 231 227
f 227 231 232
f 227 232 228
f 228 232 229
f 228 229 225
f 233 234 235
f 233 235 236
f 237 240 239
f 237 239 238
f 233 237 238
f 233 238 234
f 234 238 239
f 234 239 235
f 235 239 240
f 235 240 236
f 236 240 237
f 236 237 233
f 241 242 243
f 241 243 244
f 245 248 247
f 245 247 246
f 241 245 246
f 241 246 242
f 242 246 247
f 242 247 243
f 243 247 248
f 243 248 244
f 244 248 245
f 244 245 241
f 249 250 251
f 249 251 252
f 253 256 255
f 253 255 254
f 249 253 254
f 249 254 250
f 250 254 255
f 250 255 251
f 251 255 256
f 251 256 252
f 252 256 253
f 252 253 249
f 257 258 259
f 257 259 260
f 261 264 263
f 261 263 262
f 257 261 262
f 257 262 258
f 258 262 263
f 258 263 259
f 259 263 264
f 259 264 260
f 260 264 261
f 260 261 257
f 265 266 267
f 265 267 268
f 269 272 271
f 269 271 270
f 265 269 270
f 265 270 266
f 266 270 271
f 266 271 267
f 267 271 272
f 267 272 268
f 268 272 269
f 268 269 265
f 273 274 275
f 273 275 276
f 277 280 279
f 277 279 278
f 273 277 278
f 273 278 274
f 274 278 279
f 274 279 275
f 275 279 280
f 275 280 276
f 276 280 277
f 276 277 273
f 281 282 283
f 281 283 284
f 285 288 287
f 285 287 286
f 281 285 286
f 281 286 282
f 282 286 287
f 282 287 283
f 283 287 288
f 283 288 284
f 284 288 285
f 284 285 281
f 289 290 291
f 289 291 292
f 293 296 295
f 293 295 294
f 289 293 294
f 289 294 290
f 290 294 295
f 290 295 291
f 291 295 296
f 291 296 292
f 292 296 293
f 292 293 289
f 297 298 299
f 297 299 300
f 301 304 303
f 301 303 302
f 297 301 302
f 297 302 298
f 298 302 303
f 298 303 299
f 299 303 304
f 299 304 300
f 300 304 301
f 300 301 297
f 305 306 307
f 305 307 308
f 309 312 311
f 309 311 310
f 305 309 310
f 305 310 306
f 306 310 311
f 306 311 307
f 307 311 312
f 307 312 308
f 308 312 309
f 308 309 305
f 313 314 315
f 313 315 316
f 317 320 319
f 317 319 318
f 313 317 318
f 313 318 314
f 314 318 319
f 314 319 315
f 315 319 320
f 315 320 316
f 316 320 317
f 316 317 313
f 321 322 323
f 321 323 324
f 325 328 327
f 325 327 326
f 321 325 326
f 321 326 322
f 322 326 327
f 322 327 323
f 323 327 328
f 323 328 324
f 324 328 325
f 324 325 321
f 329 330 331
f 329 331 332
f 333 336 335
f 333 335 334
f 329 333 334
f 329 334 330
f 330 334 335
f 330 335 331
f 331 335 336
f 331 336 332
f 332 336 333
f 332 333 329
f 337 338 339
f 337 339 340
f 341 344 343
f 341 343 342
f 337 341 342
f 337 342 338
f 338 342 343
f 338 343 339
f 339 343 344
f 339 344 340
f 340 344 341
f 340 341 337
f 345 346 347
f 345 347 348
f 349 352 351
f 349 351 350
f 345 349 350
f 345 350 346
f 346 350 351
f 346 351 347
f 347 351 352
f 347 352 348
f 348 352 349
f 348 349 345
f 353 354 355
f 353 355 356
f 357 360 359
f 357 359 358
f 353 357 358
f 353 358 354
f 354 358 359
f 354 359 355
f 355 359 360
f 355 360 356
f 356 360 357
f 356 357 353
f 361 362 363
f 361 363 364
f 365 368 367
f 365 367 366
f 361 365 366
f 361 366 362
f 362 366 367
f 362 367 363
f 363 367 368
f 363 368 364
f 364 368 365
f 364 365 361
f 369 370 371
f 369 371 372
f 373 376 375
f 373 375 374
f 369 373 374
f 369 374 370
f 370 374 375
f 370 375 371
f 371 375 376
f 371 376 372
f 372 376 373
f 372 373 369
f 377 378 379
f 377 379 380
f 381 384 383
f 381 383 382
f 377 381 382
f 377 382 378
f 378 382 383
f 378 383 379
f 379 383 384
f 379 384 380
f 380 384 381
f 380 381 377
f 385 386 387
f 385 387 388
f 389 392 391
f 389 391 390
f 385 389 390
f 385 390 386
f 386 390 391
f 386 391 387
f 387 391 392
f 387 392 388
f 388 392 389
f 388 389 385
f 393 394 395
f 393 395 396
f 397 400 399
f 397 399 398
f 393 397 398
f 393 398 394
f 394 398 399
f 394 399 395
f 395 399 400
f 395 400 396
f 396 400 397
f 396 397 393
f 401 402 403
f 401 403 404
f 405 408 407
f 405 407 406
f 401 405 406
f 401 406 402
f 402 406 407
f 402 407 403
f 403 407 408
f 403 408 404
f 404 408 405
f 404 405 401
f 409 410 411
f 409 411 412
f 413 416 415
f 413 415 414
f 409 413 414
f 409 414 410
f 410 414 415
f 410 415 411
f 411 415 416
f 411 416 412
f 412 416 413
f 412 413 409
f 417 418 419
f 417 419 420
f 421 424 423
f 421 423 422
f 417 421 422
f 417 422 418
f 418 422 423
f 418 423 419
f 419 423 424
f 419 424 420
f 420 424 421
f 420 421 417
f 425 426 427
f 425 427 428
f 429 432 431
f 429 431 430
f 425 429 430
f 425 430 426
f 426 430 431
f 426 431 427
f 427 431 432
f 427 432 428
f 428 432 429
f 428 429 425
f 433 434 435
f 433 435 436
f 437 440 439
f 437 439 438
f 433 437 438
f 433 438 434
f 434 438 439
f 434 439 435
f 435 439 440
f 435 440 436
f 436 440 437
f 436 437 433
f 441 442 443
f 441 443 444
f 445 448 447
f 445 447 446
f 441 445 446
f 441 446 442
f 442 446 447
f 442 447 443
f 443 447 448
f 443 448 444
f 444 448 445
f 444 445 441
f 449 450 451
f 449 451 452
f 453 456 455
f 453 455 454
f 449 453 454
f 449 454 450
f 450 454 455
f 450 455 451
f 451 455 456
f 451 456 452
f 452 456 453
f 452 453 449
f 457 458 459
f 457 459 460
f 461 464 463
f 461 463 462
f 457 461 462
f 457 462 458
f 458 462 463
f 458 463 459
f 459 463 464
f 459 464 460
f 460 464 461
f 460 461 457
f 465 466 467
f 465 467 468
f 469 472 471
f 469 471 470
f 465 469 470
f 465 470 466
f 466 470 471
f 466 471 467
f 467 471 472
f 467 472 468
f 468 472 469
f 468 469 465
f 473 474 475
f 473 475 476
f 477 480 479
f 477 479 478
f 473 477 478
f 473 478 474
f 474 478 479
f 474 479 475
f 475 479 480
f 475 480 476
f 476 480 477
f 476 477 473
f 481 482 483
f 481 483 484
f 485 488 487
f 485 487 486
f 481 485 486
f 481 486 482
f 482 486 487
f 482 487 483
f 483 487 488
f 483 488 484
f 484 488 485
f 484 485 481
f 489 490 491
f 489 491 492
f 493 496 495
f 493 495 494
f 489 493 494
f 489 494 490
f 490 494 495
f 490 495 491
f 491 495 496
f 491 496 492
f 492 496 493
f 492 493 489
f 497 498 499
f 497 499 500
f 501 504 503
f 501 503 502
f 497 501 502
f 497 502 498
f 498 502 503
f 498 503 499
f 499 503 504
f 499 504 500
f 500 504 501
f 500 501 497
f 505 506 507
f 505 507 508
f 509 512 511
f 509 511 510
f 505 509 510
f 505 510 506
f 506 510 511
f 506 511 507
f 507 511 512
f 507 512 508
f 508 512 509
f 508 509 505
f 513 514 515
f 513 515 516
f 517 520 519
f 517 519 518
f 513 517 518
f 513 518 514
f 514 518 519
f 514 519 515
f 515 519 520
f 515 520 516
f 516 520 517
f 516 517 513
f 521 522 523
f 521 523 524
f 525 528 527
f 525 527 526
f 521 525 526
f 521 526 522
f 522 526 527
f 522 527 523
f 523 527 528
f 523 528 524
f 524 528 525
f 524 525 521
f 529 530 531
f 529 531 532
f 533 536 535
f 533 535 534
f 529 533 534
f 529 534 530
f 530 534 535
f 530 535 531
f 531 535 536
f 531 536 532
f 532 536 533
f 532 533 529
f 537 538 539
f 537 539 540
f 541 544 543
f 541 543 542
f 537 541 542
f 537 542 538
f 538 542 543
f 538 543 539
f 539 543 544
f 539 544 540
f 540 544 541
f 540 541 537
f 545 546 547
f 545 547 548
f 549 552 551
f 549 551 550
f 545 549 550
f 545 550 546
f 546 550 551
f 546 551 547
f 547 551 552
f 547 552 548
f 548 552 549
f 548 549 545
f 553 554 555
f 553 555 556
f 557 560 559
f 557 559 558
f 553 557 558
f 553 558 554
f 554 558 559
f 554 559 555
f 555 559 560
f 555 560 556
f 556 560 557
f 556 557 553
f 561 562 563
f 561 563 564
f 565 568 567
f 565 567 566
f 561 565 566
f 561 566 562
f 562 566 567
f 562 567 563
f 563 567 568
f 563 568 564
f 564 568 565
f 564 565 561
f 569 570 571
f 569 571 572
f 573 576 575
f 573 575 574
f 569 573 574
f 569 574 570
f 570 574 575
f 570 575 571
f 571 575 576
f 571 576 572
f 572 576 573
f 572 573 569
f 577 578 579
f 577 579 580
f 581 584 583
f 581 583 582
f 577 581 582
f 577 582 578
f 578 582 583
f 578 583 579
f 579 583 584
f 579 584 580
f 580 584 581
f 580 581 577
f 585 586 587
f 585 587 588
f 589 592 591
f 589 591 590
f 585 589 590
f 585 590 586
f 586 590 591
f 586 591 587
f 587 591 592
f 587 592 588
f 588 592 589
f 588 589 585
f 593 594 595
f 593 595 596
f 597 600 599
f 597 599 598
f 593 597 598
f 593 598 594
f 594 598 599
f 594 599 595
f 595 599 600
f 595 600 596
f 596 600 597
f 596 597 593
f 601 602 603
f 601 603 604
f 605 608 607
f 605 607 606
f 601 605 606
f 601 606 602
f 602 606 607
f 602 607 603
f 603 607 608
f 603 608 604
f 604 608 605
f 604 605 601
f 609 610 611
f 609 611 612
f 613 616 615
f 613 615 614
f 609 613 614
f 609 614 610
f 610 614 615
f 610 615 611
f 611 615 616
f 611 616 612
f 612 616 613
f 612 613 609
f 617 618 619
f 617 619 620
f 621 624 623
f 621 623 622
f 617 621 622
f 617 622 618
f 618 622 623
f 618 623 619
f 619 623 624
f 619 624 620
f 620 624 621
f 620 621 617
f 625 626 627
f 625 627 628
f 629 632 631
f 629 631 630
f 625 629 630
f 625 630 626
f 626 630 631
f 626 631 627
f 627 631 632
f 627 632 628
f 628 632 629
f 628 629 625
f 633 634 635
f 633 635 636
f 637 640 639
f 637 639 638
f 633 637 638
f 633 638 634
f 634 638 639
f 634 639 635
f 635 639 640
f 635 640 636
f 636 640 637
f 636 637 633
f 641 642 643
f 641 643 644
f 645 648 647
f 645 647 646
f 641 645 646
f 641 646 642
f 642 646 647
f 642 647 643
f 643 647 648
f 643 648 644
f 644 648 645
f 644 645 641
f 649 650 651
f 649 651 652
f 653 656 655
f 653 655 654
f 649 653 654
f 649 654 650
f 650 654 655
f 650 655 651
f 651 655 656
f 651 656 652
f 652 656 653
f 652 653 649
f 657 658 659
f 657 659 660
f 661 664 663
f 661 663 662
f 657 661 662
f 657 662 658
f 658 662 663
f 658 663 659
f 659 663 664
f 659 664 660
f 660 664 661
f 660 661 657
f 665 666 667
f 665 667 668
f 669 672 671
f 669 671 670
f 665 669 670
f 665 670 666
f 666 670 671
f 666 671 667
f 667 671 672
f 667 672 668
f 668 672 669
f 668 669 665
f 673 674 675
f 673 675 676
f 677 680 679
f 677 679 678
f 673 677 678
f 673 678 674
f 674 678 679
f 674 679 675
f 675 679 680
f 675 680 676
f 676 680 677
f 676 677 673
f 681 682 683
f 681 683 684
f 685 688 687
f 685 687 686
f 681 685 686
f 681 686 682
f 682 686 687
f 682 687 683
f 683 687 688
f 683 688 684
f 684 688 685
f 684 685 681
f 689 690 691
f 689 691 692
f 693 696 695
f 693 695 694
f 689 693 694
f 689 694 690
f 690 694 695
f 690 695 691
f 691 695 696
f 691 696 692
f 692 696 693
f 692 693 689
f 697 698 699
f 697 699 700
f 701 704 703
f 701 703 702
f 697 701 702
f 697 702 698
f 698 702 703
f 698 703 699
f 699 703 704
f 699 704 700
f 700 704 701
f 700 701 697
f 705 706 707
f 705 707 708
f 709 712 711
f 709 711 710
f 705 709 710
f 705 710 706
f 706 710 711
f 706 711 707
f 707 711 712
f 707 712 708
f 708 712 709
f 708 709 705
f 713 714 715
f 713 715 716
f 717 720 719
f 717 719 718
f 713 717 718
f 713 718 714
f 714 718 719
f 714 719 715
f 715 719 720
f 715 720 716
f 716 720 717
f 716 717 713
f 721 722 723
f 721 723 724
f 725 728 727
f 725 727 726
f 721 725 726
f 721 726 722
f 722 726 727
f 722 727 723
f 723 727 728
f 723 728 724
f 724 728 725
f 724 725 721
f 729 730 731
f 729 731 732
f 733 736 735
f 733 735 734
f 729 733 734
f 729 734 730
f 730 734 735
f 730 735 731
f 731 735 736
f 731 736 732
f 732 736 733
f 732 733 729
f 737 738 739
f 737 739 740
f 741 744 743
f 741 743 742
f 737 741 742
f 737 742 738
f 738 742 743
f 738 743 739
f 739 743 744
f 739 744 740
f 740 744 741
f 740 741 737
f 745 746 747
f 745 747 748
f 749 752 751
f 749 751 750
f 745 749 750
f 745 750 746
f 746 750 751
f 746 751 747
f 747 751 752
f 747 752 748
f 748 752 749
f 748 749 745
f 753 754 755
f 753 755 756
f 757 760 759
f 757 759 758
f 753 757 758
f 753 758 754
f 754 758 759
f 754 759 755
f 755 759 760
f 755 760 756
f 756 760 757
f 756 757 753
