o [4B] 3D Diagram - S2-08 Group A_34
v 7.856763 -0.002155 10.356749
v 9.143237 -0.008925 10.356807
v 9.143237 0.002155 11.643251
v 7.856763 0.008925 11.643193
v 7.857372 0.113635 10.355752
v 9.143846 0.106865 10.355810
v 9.143846 0.117944 11.642254
v 7.857372 0.124714 11.642196
v 7.857444 0.109324 10.355709
v 9.143775 0.089027 10.356234
v 9.143775 0.122255 11.642296
v 7.857444 0.142552 11.641772
v 7.859272 0.225113 10.352718
v 9.145603 0.204816 10.353242
v 9.145603 0.238045 11.639305
v 7.859272 0.258342 11.638780
v 7.859414 0.220795 10.352633
v 9.145461 0.187015 10.354088
v 9.145461 0.242363 11.639389
v 7.859414 0.276143 11.637934
v 7.862461 0.336585 10.347647
v 9.148508 0.302804 10.349102
v 9.148508 0.358152 11.634403
v 7.862461 0.391933 11.632948
v 7.862673 0.332256 10.347522
v 9.148296 0.285063 10.350367
v 9.148296 0.362481 11.634528
v 7.862673 0.409674 11.631682
v 7.866939 0.448046 10.340542
v 9.152562 0.400852 10.343387
v 9.152562 0.478270 11.627547
v 7.866939 0.525464 11.624702
v 7.867221 0.443702 10.340377
v 9.152280 0.383194 10.345067
v 9.152280 0.482614 11.627712
v 7.867221 0.543122 11.623022
v 7.872706 0.559491 10.331402
v 9.157765 0.498983 10.336092
v 9.157765 0.598404 11.618737
v 7.872706 0.658911 11.614046
v 7.873055 0.555128 10.331200
v 9.157416 0.481432 10.338182
v 9.157416 0.602767 11.618939
v 7.873055 0.676463 11.611957
v 7.879759 0.670918 10.320230
v 9.164119 0.597221 10.327212
v 9.164119 0.718556 11.607969
v 7.879759 0.792252 11.600987
v 7.880175 0.666532 10.319993
v 9.163703 0.579799 10.329703
v 9.163703 0.722942 11.608207
v 7.880175 0.809675 11.598496
v 7.888097 0.782321 10.307029
v 9.171626 0.695588 10.316739
v 9.171626 0.838731 11.595243
v 7.888097 0.925465 11.585532
v 7.888578 0.777909 10.306758
v 9.171145 0.678316 10.319624
v 9.171145 0.843144 11.595513
v 7.888578 0.942737 11.582647
v 7.897720 0.893698 10.291800
v 9.180286 0.794105 10.304666
v 9.180286 0.958933 11.580555
v 7.897720 1.058526 11.567689
v 7.898263 0.889257 10.291499
v 9.179743 0.777004 10.307934
v 9.179743 0.963375 11.580855
v 7.898263 1.075627 11.564420
v 7.908623 1.005046 10.274546
v 9.190103 0.892794 10.290982
v 9.190103 1.079164 11.563902
v 7.908623 1.191417 11.547467
v 7.909227 1.000573 10.274220
v 9.189499 0.875884 10.294623
v 9.189499 1.083638 11.564229
v 7.909227 1.208326 11.543826
v 7.920806 1.116362 10.255272
v 9.201078 0.991674 10.275676
v 9.201078 1.199427 11.545282
v 7.920806 1.324116 11.524878
v 7.921467 1.111854 10.254922
v 9.200417 0.974974 10.279679
v 9.200417 1.203936 11.545632
v 7.921467 1.340816 11.520875
v 7.934265 1.227643 10.233980
v 9.213214 1.090763 10.258737
v 9.213214 1.319725 11.524690
v 7.934265 1.456605 11.499934
v 7.934981 1.223099 10.233611
v 9.212498 1.074291 10.263088
v 9.212498 1.324270 11.525059
v 7.934981 1.473078 11.495582
v 7.948998 1.338888 10.210675
v 9.226515 1.190080 10.240152
v 9.226515 1.440059 11.502123
v 7.948998 1.588867 11.472646
v 7.949767 1.334305 10.210290
v 9.225746 1.173852 10.244838
v 9.225746 1.444642 11.502508
v 7.949767 1.605096 11.467960
v 7.965002 1.450095 10.185359
v 9.240981 1.289641 10.219907
v 9.240981 1.560431 11.477577
v 7.965002 1.720885 11.443029
v 7.965820 1.445473 10.184963
v 9.240163 1.273672 10.224913
v 9.240163 1.565053 11.477973
v 7.965820 1.736854 11.438023
v 7.982275 1.561262 10.158038
v 9.256617 1.389461 10.197988
v 9.256617 1.680843 11.451048
v 7.982275 1.852644 11.411098
v 7.983139 1.556601 10.157635
v 9.255753 1.373765 10.203300
v 9.255753 1.685504 11.451451
v 7.983139 1.868340 11.405786
v 8.000812 1.672390 10.128715
v 9.273426 1.489555 10.174381
v 9.273426 1.801294 11.422531
v 8.000812 1.984130 11.376866
v 8.001719 1.667689 10.128309
v 9.272519 1.474144 10.179983
v 9.272519 1.805995 11.422937
v 8.001719 1.999540 11.371264
v 8.020611 1.783478 10.097395
v 9.291411 1.589934 10.149069
v 9.291411 1.921785 11.392023
v 8.020611 2.115330 11.340350
v 8.021559 1.778737 10.096990
v 9.290464 1.574820 10.154945
v 9.290464 1.926526 11.392428
v 8.021559 2.130443 11.334473
v 8.041669 1.894527 10.064081
v 9.310574 1.690610 10.122037
v 9.310574 2.042315 11.359520
v 8.041669 2.246233 11.301564
v 8.042653 1.889747 10.063681
v 9.309591 1.675803 10.128172
v 9.309591 2.047095 11.359920
v 8.042653 2.261039 11.295429
v 8.063983 2.005536 10.028778
v 9.330920 1.791593 10.093269
v 9.330920 2.162885 11.325017
v 8.063983 2.376829 11.260526
v 8.065000 2.000718 10.028388
v 9.329903 1.777102 10.099645
v 9.329903 2.167703 11.325407
v 8.065000 2.391319 11.254150
v 8.087549 2.116507 9.991490
v 9.352451 1.892891 10.062748
v 9.352451 2.283493 11.288510
v 8.087549 2.507109 11.217252
v 8.088596 2.111652 9.991113
v 9.351404 1.878723 10.069350
v 9.351404 2.288348 11.288887
v 8.088596 2.521277 11.210650
v 8.112363 2.227442 9.952221
v 9.375171 1.994513 10.030459
v 9.375171 2.404137 11.249995
v 8.112363 2.637066 11.171758
v 8.113438 2.222552 9.951861
v 9.374097 1.980674 10.037270
v 9.374097 2.409027 11.250355
v 8.113438 2.650905 11.164946
v 8.138424 2.338342 9.910974
v 9.399083 2.096464 9.996384
v 9.399083 2.524816 11.209469
v 8.138424 2.766694 11.124059
v 8.139522 2.333419 9.910635
v 9.397985 2.082959 10.003389
v 9.397985 2.529739 11.209809
v 8.139522 2.780199 11.117055
v 8.165727 2.449209 9.867754
v 9.424190 2.198749 9.960508
v 9.424190 2.645528 11.166928
v 8.165727 2.895988 11.074174
v 8.166846 2.444256 9.867438
v 9.423070 2.185582 9.967689
v 9.423070 2.650481 11.167243
v 8.166846 2.909155 11.066992
v 8.194270 2.560045 9.822563
v 9.450494 2.301372 9.922814
v 9.450494 2.766271 11.122368
v 8.194270 3.024944 11.022117
v 8.195407 2.555064 9.822274
v 9.449357 2.288546 9.930157
v 9.449357 2.771252 11.122657
v 8.195407 3.037770 11.014774
v 8.224050 2.670854 9.775404
v 9.478000 2.404335 9.883287
v 9.478000 2.887041 11.075787
v 8.224050 3.153559 10.967904
v 8.225202 2.665848 9.775146
v 9.476848 2.391852 9.890775
v 9.476848 2.892047 11.076045
v 8.225202 3.166043 10.960416
v 8.255064 2.781637 9.726282
v 9.506709 2.507641 9.841911
v 9.506709 3.007836 11.027181
v 8.255064 3.281833 10.911552
v 8.256228 2.776609 9.726056
v 9.505545 2.495500 9.849529
v 9.505545 3.012864 11.027407
v 8.256228 3.293974 10.903934
v 8.287308 2.892399 9.675197
v 9.536625 2.611289 9.798670
v 9.536625 3.128654 10.976548
v 8.287308 3.409763 10.853075
v 8.288482 2.887352 9.675007
v 9.535451 2.599491 9.806404
v 9.535451 3.133701 10.976738
v 8.288482 3.421562 10.845341
v 8.320781 3.003142 9.622154
v 9.567750 2.715280 9.753551
v 9.567750 3.249490 10.923885
v 8.320781 3.537351 10.792488
v 8.321963 2.998079 9.622001
v 9.566569 2.703823 9.761386
v 9.566569 3.254552 10.924037
v 8.321963 3.548809 10.784653
v 8.355481 3.113869 9.567154
v 9.600087 2.819612 9.706538
v 9.600087 3.370342 10.869190
v 8.355481 3.664598 10.729805
v 8.356666 3.108794 9.567041
v 9.598901 2.808494 9.714461
v 9.598901 3.375416 10.869303
v 8.356666 3.675717 10.721883
v 8.391403 3.224584 9.510198
v 9.633638 2.924283 9.657619
v 9.633638 3.491206 10.812461
v 8.391403 3.791506 10.665041
v 8.392592 3.219501 9.510127
v 9.632450 2.913501 9.665615
v 9.632450 3.496289 10.812533
v 8.392592 3.802288 10.657044
v 8.428547 3.335290 9.451290
v 9.668406 3.029291 9.606779
v 9.668406 3.612078 10.753696
v 8.428547 3.918078 10.598207
v 8.429736 3.330202 9.451261
v 9.667217 3.018841 9.614837
v 9.667217 3.617167 10.753726
v 8.429736 3.928527 10.590150
v 8.466911 3.445991 9.390430
v 9.704391 3.134631 9.554006
v 9.704391 3.732956 10.692894
v 8.466911 4.044317 10.529319
v 8.468098 3.440901 9.390444
v 9.703204 3.124510 9.562113
v 9.703204 3.738046 10.692880
v 8.468098 4.054437 10.521211
v 8.506491 3.556691 9.327619
v 9.741598 3.240300 9.499287
v 9.741598 3.853836 10.630054
v 8.506491 4.170227 10.458386
v 8.507675 3.551602 9.327678
v 9.740414 3.230503 9.507432
v 9.740414 3.858924 10.629995
v 8.507675 4.180023 10.450241
v 8.547287 3.667392 9.262858
v 9.780026 3.346293 9.442612
v 9.780026 3.974714 10.565175
v 8.547287 4.295812 10.385421
v 8.548466 3.662308 9.262963
v 9.778847 3.336816 9.450783
v 9.778847 3.979797 10.565070
v 8.548466 4.305290 10.377250
v 8.589297 3.778098 9.196148
v 9.819678 3.452605 9.383969
v 9.819678 4.095586 10.498256
v 8.589297 4.421079 10.310436
v 8.590469 3.773023 9.196299
v 9.818506 3.443441 9.392156
v 9.818506 4.100661 10.498105
v 8.590469 4.430243 10.302248
v 8.632518 3.888813 9.127490
v 9.860556 3.559231 9.323347
v 9.860556 4.216450 10.429296
v 8.632518 4.546032 10.233440
v 8.633682 3.883750 9.127687
v 9.859393 3.550375 9.331541
v 9.859393 4.221513 10.429099
v 8.633682 4.554889 10.225246
v 8.676951 3.999540 9.056884
v 9.902661 3.666164 9.260738
v 9.902661 4.337303 10.358296
v 8.676951 4.670678 10.154442
v 8.678105 3.994492 9.057128
v 9.901507 3.657609 9.268929
v 9.901507 4.342350 10.358052
v 8.678105 4.679233 10.146252
v 8.722593 4.110281 8.984330
v 9.945994 3.773399 9.196131
v 9.945994 4.458140 10.285255
v 8.722593 4.795022 10.073454
v 8.723736 4.105252 8.984620
v 9.944851 3.765139 9.204310
v 9.944851 4.463169 10.284965
v 8.723736 4.803283 10.065274
v 8.769443 4.221041 8.909827
v 9.990557 3.880928 9.129518
v 9.990557 4.578959 10.210173
v 8.769443 4.919072 9.990482
v 8.770575 4.216033 8.910163
v 9.989425 3.872956 9.137678
v 9.989425 4.583967 10.209837
v 8.770575 4.927044 9.982322
v 8.817500 4.331823 8.833377
v 10.036350 3.988746 9.060891
v 10.036350 4.699756 10.133050
v 8.817500 5.042833 9.905536
v 8.818619 4.326839 8.833758
v 10.035231 3.981055 9.069024
v 10.035231 4.704740 10.132668
v 8.818619 5.050524 9.897403
v 8.866763 4.442628 8.754977
v 10.083375 4.096844 8.990242
v 10.083375 4.820530 10.053887
v 8.866763 5.166314 9.818622
v 8.867869 4.437671 8.755404
v 10.082270 4.089427 8.998341
v 10.082270 4.825487 10.053461
v 8.867869 5.173730 9.810523
v 8.917232 4.553460 8.674628
v 10.131633 4.205217 8.917565
v 10.131633 4.941277 9.972685
v 8.917232 5.289520 9.729748
v 8.918323 4.548533 8.675099
v 10.130541 4.198067 8.925623
v 10.130541 4.946204 9.972214
v 8.918323 5.296670 9.721690
v 8.968905 4.664322 8.592329
v 10.181123 4.313857 8.842853
v 10.181123 5.061994 9.889444
v 8.968905 5.412459 9.638920
v 8.969981 4.659426 8.592844
v 10.180047 4.306967 8.850864
v 10.180047 5.066890 9.888929
v 8.969981 5.419349 9.630909
v 9.021782 4.775216 8.508079
v 10.231847 4.422756 8.766100
v 10.231847 5.182679 9.804164
v 9.021782 5.535139 9.546144
v 9.022842 4.770354 8.508637
v 10.230787 4.416119 8.774059
v 10.230787 5.187541 9.803607
v 9.022842 5.541776 9.538185
v 9.075862 4.886143 8.421878
v 10.283806 4.531908 8.687300
v 10.283806 5.303330 9.716848
v 9.075862 5.657566 9.451426
v 9.076906 4.881318 8.422477
v 10.282761 4.525516 8.695202
v 10.282761 5.308156 9.716249
v 9.076906 5.663958 9.443524
v 9.131144 4.997108 8.333724
v 10.337000 4.641305 8.606449
v 10.337000 5.423945 9.627495
v 9.131144 5.779747 9.354770
v 9.132172 4.992321 8.334363
v 10.335972 4.635151 8.614289
v 10.335972 5.428732 9.626855
v 9.132172 5.785902 9.346930
v 9.187629 5.108110 8.243616
v 10.391429 4.750940 8.523541
v 10.391429 5.544521 9.536107
v 9.187629 5.901691 9.256182
v 9.188641 5.103364 8.244295
v 10.390418 4.745017 8.531316
v 10.390418 5.549268 9.535428
v 9.188641 5.907615 9.248407
v 9.245317 5.219153 8.151553
v 10.447093 4.860806 8.438573
v 10.447093 5.665057 9.442686
v 9.245317 6.023404 9.155665
v 9.246311 5.214449 8.152270
v 10.446099 4.855106 8.446278
v 10.446099 5.669762 9.441968
v 9.246311 6.029104 9.147960
v 9.304205 5.330238 8.057534
v 10.503994 4.970896 8.351541
v 10.503994 5.785551 9.347231
v 9.304205 6.144894 9.053223
v 9.305182 5.325578 8.058288
v 10.503018 4.965412 8.359173
v 10.503018 5.790212 9.346476
v 9.305182 6.150377 9.045591
v 9.364295 5.441367 7.961557
v 10.562131 5.081202 8.262442
v 10.562131 5.906001 9.249745
v 9.364295 6.266167 8.948860
v 9.365255 5.436752 7.962348
v 10.561172 5.075928 8.269998
v 10.561172 5.910617 9.248954
v 9.365255 6.271441 8.941304
v 9.425587 5.552541 7.863622
v 10.621504 5.191717 8.171272
v 10.621504 6.026406 9.150228
v 9.425587 6.387230 8.842578
v 9.426528 5.547972 7.864447
v 10.620563 5.186646 8.178749
v 10.620563 6.030975 9.149403
v 9.426528 6.392302 8.835101
v 9.488080 5.663761 7.763727
v 10.682114 5.302435 8.078029
v 10.682114 6.146765 9.048683
v 9.488080 6.508091 8.734381
v 9.489003 5.659240 7.764586
v 10.681191 5.297560 8.085425
v 10.681191 6.151286 9.047824
v 9.489003 6.512966 8.726985
v 9.551773 5.775029 7.661871
v 10.743961 5.413349 7.982711
v 10.743961 6.267076 8.945110
v 9.551773 6.628756 8.624270
v 9.552679 5.770557 7.662761
v 10.743055 5.408663 7.990024
v 10.743055 6.271549 8.944220
v 9.552679 6.633442 8.616957
v 9.616668 5.886346 7.558052
v 10.807044 5.524453 7.885314
v 10.807044 6.387338 8.839510
v 9.616668 6.749232 8.512248
v 9.617557 5.881923 7.558973
v 10.806155 5.519949 7.892543
v 10.806155 6.391761 8.838590
v 9.617557 6.753735 8.505020
v 9.682764 5.997712 7.452269
v 10.871363 5.635739 7.785839
v 10.871363 6.507551 8.731886
v 9.682764 6.869524 8.398316
v 9.683635 5.993340 7.453219
v 10.870493 5.631412 7.792981
v 10.870493 6.511923 8.730936
v 9.683635 6.873851 8.391174
v 9.750061 6.109129 7.344521
v 10.936919 5.747201 7.684283
v 10.936919 6.627713 8.622238
v 9.750061 6.989641 8.282476
v 9.750914 6.104808 7.345498
v 10.936066 5.743045 7.691337
v 10.936066 6.632034 8.621261
v 9.750914 6.993797 8.275422
v 9.818560 6.220597 7.234806
v 11.003712 5.858834 7.580644
v 11.003712 6.747824 8.510568
v 9.818560 7.109587 8.164730
v 9.819395 6.216328 7.235810
v 11.002876 5.854842 7.587610
v 11.002876 6.752094 8.509564
v 9.819395 7.113579 8.157764
v 9.888260 6.332117 7.123123
v 11.071740 5.970631 7.474923
v 11.071740 6.867883 8.396877
v 9.888260 7.229369 8.045077
v 9.889078 6.327900 7.124152
v 11.070922 5.966797 7.481798
v 11.070922 6.872100 8.395848
v 9.889078 7.233203 8.038202
v 9.959161 6.443689 7.009470
v 11.141005 6.082587 7.367117
v 11.141005 6.987890 8.281167
v 9.959161 7.348992 7.923520
v 9.959962 6.439524 7.010523
v 11.140204 6.078905 7.373903
v 11.140204 6.992055 8.280114
v 9.959962 7.352674 7.916735
v 10.031264 6.555314 6.893847
v 11.211506 6.194695 7.257227
v 11.211506 7.107844 8.163438
v 10.031264 7.468463 7.800059
v 10.032048 6.551202 6.894922
v 11.210722 6.191161 7.263922
v 11.210722 7.111956 8.162363
v 10.032048 7.471997 7.793364
v 10.104569 6.666992 6.776252
v 11.283242 6.306950 7.145251
v 11.283242 7.227745 8.043693
v 10.104569 7.587787 7.674693
v 10.105337 6.662933 6.777348
v 11.282475 6.303558 7.151855
v 11.282475 7.231804 8.042597
v 10.105337 7.591179 7.668089
v 10.179076 6.778723 6.656683
v 11.356215 6.419347 7.031190
v 11.356215 7.347593 7.921932
v 10.179076 7.706969 7.547425
v 10.179827 6.774717 6.657799
v 11.355464 6.416091 7.037703
v 11.355464 7.351598 7.920815
v 10.179827 7.710225 7.540912
v 10.254786 6.890507 6.535140
v 11.430422 6.531880 6.915044
v 11.430422 7.467388 7.798156
v 10.254786 7.826014 7.418252
v 10.255520 6.886555 6.536275
v 11.429688 6.528756 6.921466
v 11.429688 7.471339 7.797021
v 10.255520 7.829139 7.411831
v 10.331698 7.002345 6.411621
v 11.505865 6.644545 6.796812
v 11.505865 7.587129 7.672368
v 10.331698 7.944928 7.287177
v 10.332416 6.998447 6.412774
v 11.505146 6.641547 6.803143
v 11.505146 7.591027 7.671215
v 10.332416 7.947926 7.280846
v 10.409812 7.114236 6.286126
v 11.582542 6.757337 6.676495
v 11.582542 7.706817 7.544567
v 10.409812 8.063716 7.154198
v 10.410515 7.110391 6.287294
v 11.581839 6.754460 6.682735
v 11.581839 7.710661 7.543398
v 10.410515 8.066592 7.147957
v 10.489130 7.226181 6.158652
v 11.660454 6.870250 6.554092
v 11.660454 7.826451 7.414756
v 10.489130 8.182382 7.019315
v 10.489817 7.222389 6.159835
v 11.659767 6.867491 6.560242
v 11.659767 7.830242 7.413572
v 10.489817 8.185141 7.013165
v 10.569651 7.338179 6.029198
v 11.739601 6.983280 6.429605
v 11.739601 7.946032 7.282935
v 10.569651 8.300930 6.882528
v 10.570323 7.334440 6.030396
v 11.738929 6.980634 6.435665
v 11.738929 7.949770 7.281737
v 10.570323 8.303577 6.876467
v 10.651376 7.450230 5.897765
v 11.819981 7.096423 6.303034
v 11.819981 8.065560 7.149105
v 10.651376 8.419366 6.743836
v 10.652033 7.446544 5.898976
v 11.819324 7.093886 6.309005
v 11.819324 8.069245 7.147894
v 10.652033 8.421904 6.737865
v 10.734304 7.562334 5.764350
v 11.901596 7.209675 6.174379
v 11.901596 8.185034 7.013268
v 10.734304 8.537693 6.603239
v 10.734947 7.558701 5.765573
v 11.900953 7.207242 6.180261
v 11.900953 8.188667 7.012045
v 10.734947 8.540127 6.597357
v 10.818437 7.674491 5.628952
v 11.984444 7.323031 6.043641
v 11.984444 8.304457 6.875425
v 10.818437 8.655916 6.460736
v 10.819065 7.670910 5.630186
v 11.983816 7.320698 6.049435
v 11.983816 8.308037 6.874191
v 10.819065 8.658249 6.454942
v 10.903774 7.786699 5.491571
v 12.068525 7.436488 5.910820
v 12.068525 8.423827 6.735576
v 10.903774 8.774039 6.316327
v 10.904388 7.783171 5.492815
v 12.067911 7.434251 5.916527
v 12.067911 8.427356 6.734332
v 10.904388 8.776275 6.310620
v 10.990316 7.898960 5.352206
v 12.153839 7.550041 5.775918
v 12.153839 8.543145 6.593722
v 10.990316 8.892065 6.170010
v 10.990917 7.895483 5.353459
v 12.153239 7.547897 5.781538
v 12.153239 8.546622 6.592469
v 10.990917 8.894208 6.164389
v 11.078063 8.011273 5.210855
v 12.240385 7.663686 5.638935
v 12.240385 8.662412 6.449865
v 11.078063 9.009998 6.021786
v 11.078650 8.007846 5.212116
v 12.239799 7.661632 5.644470
v 12.239799 8.665838 6.448604
v 11.078650 9.012052 6.016250
v 11.167016 8.123636 5.067518
v 12.328164 7.777421 5.499872
v 12.328164 8.781627 6.304006
v 11.167016 9.127842 5.871652
v 11.167589 8.120260 5.068786
v 12.327591 7.775453 5.505323
v 12.327591 8.785003 6.302737
v 11.167589 9.129810 5.866201
v 11.257173 8.236050 4.922193
v 12.417176 7.891242 5.358730
v 12.417176 8.900792 6.156145
v 11.257173 9.245600 5.719608
v 11.257734 8.232725 4.923468
v 12.416615 7.889356 5.364097
v 12.416615 8.904117 6.154869
v 11.257734 9.247486 5.714241
v 11.348537 8.348514 4.774881
v 12.507418 8.005146 5.215510
v 12.507418 9.019907 6.006282
v 11.348537 9.363275 5.565653
v 11.349085 8.345238 4.776162
v 12.506871 8.003339 5.220795
v 12.506871 9.023183 6.005001
v 11.349085 9.365082 5.560369
v 11.441107 8.461028 4.625580
v 12.598893 8.119128 5.070213
v 12.598893 9.138972 5.854420
v 11.441107 9.480872 5.409787
v 11.441643 8.457801 4.626866
v 12.598357 8.117398 5.075417
v 12.598357 9.142199 5.853134
v 11.441643 9.482602 5.404583
v 11.534884 8.573591 4.474290
v 12.691598 8.233187 4.922840
v 12.691598 9.257988 5.700558
v 11.534884 9.598392 5.252007
v 11.535407 8.570413 4.475580
v 12.691075 8.231530 4.927963
v 12.691075 9.261166 5.699268
v 11.535407 9.600049 5.246884
v 11.629867 8.686202 4.321009
v 12.785535 8.347320 4.773393
v 12.785535 9.376956 5.544697
v 11.629867 9.715838 5.092314
v 11.630378 8.683072 4.322303
v 12.785023 8.345733 4.778436
v 12.785023 9.380086 5.543404
v 11.630378 9.717425 5.087270
v 11.726057 8.798861 4.165738
v 12.880702 8.461522 4.621871
v 12.880702 9.495875 5.386839
v 11.726057 9.833214 4.930705
v 11.726557 8.795779 4.167034
v 12.880202 8.460004 4.626837
v 12.880202 9.498958 5.385542
v 11.726557 9.834733 4.925739
v 11.823454 8.911568 4.008474
v 12.977100 8.575793 4.468277
v 12.977100 9.614748 5.226983
v 11.823454 9.950523 4.767180
v 11.823943 8.908532 4.009773
v 12.976611 8.574339 4.473166
v 12.976611 9.617784 5.225684
v 11.823943 9.951977 4.762292
v 11.922059 9.024321 3.849219
v 13.074727 8.690129 4.312611
v 13.074727 9.733573 5.065130
v 11.922059 10.067766 4.601738
v 11.922537 9.021332 3.850519
v 13.074250 8.688737 4.317424
v 13.074250 9.736563 5.063830
v 11.922537 10.069157 4.596925
v 12.021872 9.137121 3.687970
v 13.173585 8.804527 4.154875
v 13.173585 9.852353 4.901282
v 12.021872 10.184947 4.434377
v 12.022339 9.134177 3.689272
v 13.173118 8.803196 4.159613
v 13.173118 9.855297 4.899980
v 12.022339 10.186278 4.429639
v 12.122893 9.249966 3.524729
v 13.273672 8.918985 3.995070
v 13.273672 9.971087 4.735438
v 12.122893 10.302067 4.265096
v 12.123350 9.247067 3.526030
v 13.273216 8.917712 3.999734
v 13.273216 9.973986 4.734136
v 12.123350 10.303341 4.260432
v 12.225122 9.362856 3.359493
v 13.374988 9.033501 3.833196
v 13.374988 10.089775 4.567598
v 12.225122 10.419130 4.093895
v 12.225569 9.360001 3.360795
v 13.374542 9.032284 3.837788
v 13.374542 10.092631 4.566297
v 12.225569 10.420348 4.089304
v 12.328560 9.475790 3.192263
v 13.477534 9.148073 3.669256
v 13.477534 10.208420 4.397765
v 12.328560 10.536137 3.920772
v 12.328997 9.472979 3.193564
v 13.477098 9.146909 3.673776
v 13.477098 10.211232 4.396464
v 12.328997 10.537302 3.916252
v 12.433207 9.588768 3.023037
v 13.581308 9.262698 3.503249
v 13.581308 10.327021 4.225938
v 12.433207 10.653091 3.745726
v 12.433634 9.586000 3.024337
v 13.580882 9.261586 3.507699
v 13.580882 10.329790 4.224638
v 12.433634 10.654204 3.741276
v 12.539063 9.701789 2.851817
v 13.686311 9.377375 3.335178
v 13.686311 10.445579 4.052117
v 12.539063 10.769993 3.568755
v 12.539480 9.699063 2.853115
v 13.685894 9.376312 3.339559
v 13.685894 10.448306 4.050818
v 12.539480 10.771057 3.564375
v 12.646128 9.814852 2.678600
v 13.792542 9.492101 3.165044
v 13.792542 10.564095 3.876303
v 12.646128 10.886846 3.389860
v 12.646536 9.812168 2.679897
v 13.792135 9.491085 3.169356
v 13.792135 10.566780 3.875006
v 12.646536 10.887862 3.385547
v 12.754403 9.927957 2.503387
v 13.900002 9.606874 2.992846
v 13.900002 10.682569 3.698497
v 12.754403 11.003652 3.209037
v 12.754802 9.925314 2.504681
v 13.899603 9.605904 2.997092
v 13.899603 10.685213 3.697202
v 12.754802 11.004622 3.204792
v 12.863887 10.041103 2.326177
v 14.008689 9.721693 2.818588
v 14.008689 10.801002 3.518698
v 12.863887 11.120412 3.026287
v 12.864277 10.038500 2.327469
v 14.008299 9.720767 2.822768
v 14.008299 10.803605 3.517406
v 12.864277 11.121338 3.022107
v 12.974582 10.154290 2.146970
v 14.118604 9.836556 2.642269
v 14.118604 10.919395 3.336908
v 12.974582 11.237128 2.841609
v 12.974963 10.151726 2.148259
v 14.118222 9.835672 2.646385
v 14.118222 10.921958 3.335619
v 12.974963 11.238012 2.837493
v 13.086487 10.267516 1.965766
v 14.229746 9.951461 2.463892
v 14.229746 11.037747 3.153126
v 13.086487 11.353802 2.655000
v 13.086860 10.264992 1.967051
v 14.229373 9.950617 2.467944
v 14.229373 11.040272 3.151841
v 13.086860 11.354646 2.650948
v 13.199602 10.380781 1.782564
v 14.342115 10.066407 2.283456
v 14.342115 11.156061 2.967353
v 13.199602 11.470435 2.466461
v 13.199967 10.378295 1.783845
v 14.341751 10.065602 2.287446
v 14.341751 11.158547 2.966072
v 13.199967 11.471240 2.462471
v 13.313928 10.494085 1.597363
v 14.455712 10.181392 2.100964
v 14.455712 11.274336 2.779590
v 13.313928 11.587030 2.275989
v 13.314285 10.491637 1.598641
v 14.455355 10.180624 2.104892
v 14.455355 11.276784 2.778312
v 13.314285 11.587797 2.272061
v 13.429465 10.607426 1.410164
v 14.570535 10.296414 1.916416
v 14.570535 11.392574 2.589836
v 13.429465 11.703586 2.083584
f 1 2 3
f 1 3 4
f 5 8 7
f 5 7 6
f 1 5 6
f 1 6 2
f 2 6 7
f 2 7 3
f 3 7 8
f 3 8 4
f 4 8 5
f 4 5 1
f 9 10 11
f 9 11 12
f 13 16 15
f 13 15 14
f 9 13 14
f 9 14 10
f 10 14 15
f 10 15 11
f 11 15 16
f 11 16 12
f 12 16 13
f 12 13 9
f 17 18 19
f 17 19 20
f 21 24 23
f 21 23 22
f 17 21 22
f 17 22 18
f 18 22 23
f 18 23 19
f 19 23 24
f 19 24 20
f 20 24 21
f 20 21 17
f 25 26 27
f 25 27 28
f 29 32 31
f 29 31 30
f 25 29 30
f 25 30 26
f 26 30 31
f 26 31 27
f 27 31 32
f 27 32 28
f 28 32 29
f 28 29 25
f 33 34 35
f 33 35 36
f 37 40 39
f 37 39 38
f 33 37 38
f 33 38 34
f 34 38 39
f 34 39 35
f 35 39 40
f 35 40 36
f 36 40 37
f 36 37 33
f 41 42 43
f 41 43 44
f 45 48 47
f 45 47 46
f 41 45 46
f 41 46 42
f 42 46 47
f 42 47 43
f 43 47 48
f 43 48 44
f 44 48 45
f 44 45 41
f 49 50 51
f 49 51 52
f 53 56 55
f 53 55 54
f 49 53 54
f 49 54 50
f 50 54 55
f 50 55 51
f 51 55 56
f 51 56 52
f 52 56 53
f 52 53 49
f 57 58 59
f 57 59 60
f 61 64 63
f 61 63 62
f 57 61 62
f 57 62 58
f 58 62 63
f 58 63 59
f 59 63 64
f 59 64 60
f 60 64 61
f 60 61 57
f 65 66 67
f 65 67 68
f 69 72 71
f 69 71 70
f 65 69 70
f 65 70 66
f 66 70 71
f 66 71 67
f 67 71 72
f 67 72 68
f 68 72 69
f 68 69 65
f 73 74 75
f 73 75 76
f 77 80 79
f 77 79 78
f 73 77 78
f 73 78 74
f 74 78 79
f 74 79 75
f 75 79 80
f 75 80 76
f 76 80 77
f 76 77 73
f 81 82 83
f 81 83 84
f 85 88 87
f 85 87 86
f 81 85 86
f 81 86 82
f 82 86 87
f 82 87 83
f 83 87 88
f 83 88 84
f 84 88 85
f 84 85 81
f 89 90 91
f 89 91 92
f 93 96 95
f 93 95 94
f 89 93 94
f 89 94 90
f 90 94 95
f 90 95 91
f 91 95 96
f 91 96 92
f 92 96 93
f 92 93 89
f 97 98 99
f 97 99 100
f 101 104 103
f 101 103 102
f 97 101 102
f 97 102 98
f 98 102 103
f 98 103 99
f 99 103 104
f 99 104 100
f 100 104 101
f 100 101 97
f 105 106 107
f 105 107 108
f 109 112 111
f 109 111 110
f 105 109 110
f 105 110 106
f 106 110 111
f 106 111 107
f 107 111 112
f 107 112 108
f 108 112 109
f 108 109 105
f 113 114 115
f 113 115 116
f 117 120 119
f 117 119 118
f 113 117 118
f 113 118 114
f 114 118 119
f 114 119 115
f 115 119 120
f 115 120 116
f 116 120 117
f 116 117 113
f 121 122 123
f 121 123 124
f 125 128 127
f 125 127 126
f 121 125 126
f 121 126 122
f 122 126 127
f 122 127 123
f 123 127 128
f 123 128 124
f 124 128 125
f 124 125 121
f 129 130 131
f 129 131 132
f 133 136 135
f 133 135 134
f 129 133 134
f 129 134 130
f 130 134 135
f 130 135 131
f 131 135 136
f 131 136 132
f 132 136 133
f 132 133 129
f 137 138 139
f 137 139 140
f 141 144 143
f 141 143 142
f 137 141 142
f 137 142 138
f 138 142 143
f 138 143 139
f 139 143 144
f 139 144 140
f 140 144 141
f 140 141 137
f 145 146 147
f 145 147 148
f 149 152 151
f 149 151 150
f 145 149 150
f 145 150 146
f 146 150 151
f 146 151 147
f 147 151 152
f 147 152 148
f 148 152 149
f 148 149 145
f 153 154 155
f 153 155 156
f 157 160 159
f 157 159 158
f 153 157 158
f 153 158 154
f 154 158 159
f 154 159 155
f 155 159 160
f 155 160 156
f 156 160 157
f 156 157 153
f 161 162 163
f 161 163 164
f 165 168 167
f 165 167 166
f 161 165 166
f 161 166 162
f 162 166 167
f 162 167 163
f 163 167 168
f 163 168 164
f 164 168 165
f 164 165 161
f 169 170 171
f 169 171 172
f 173 176 175
f 173 175 174
f 169 173 174
f 169 174 170
f 170 174 175
f 170 175 171
f 171 175 176
f 171 176 172
f 172 176 173
f 172 173 169
f 177 178 179
f 177 179 180
f 181 184 183
f 181 183 182
f 177 181 182
f 177 182 178
f 178 182 183
f 178 183 179
f 179 183 184
f 179 184 180
f 180 184 181
f 180 181 177
f 185 186 187
f 185 187 188
f 189 192 191
f 189 191 190
f 185 189 190
f 185 190 186
f 186 190 191
f 186 191 187
f 187 191 192
f 187 192 188
f 188 192 189
f 188 189 185
f 193 194 195
f 193 195 196
f 197 200 199
f 197 199 198
f 193 197 198
f 193 198 194
f 194 198 199
f 194 199 195
f 195 199 200
f 195 200 196
f 196 200 197
f 196 197 193
f 201 202 203
f 201 203 204
f 205 208 207
f 205 207 206
f 201 205 206
f 201 206 202
f 202 206 207
f 202 207 203
f 203 207 208
f 203 208 204
f 204 208 205
f 204 205 201
f 209 210 211
f 209 211 212
f 213 216 215
f 213 215 214
f 209 213 214
f 209 214 210
f 210 214 215
f 210 215 211
f 211 215 216
f 211 216 212
f 212 216 213
f 212 213 209
f 217 218 219
f 217 219 220
f 221 224 223
f 221 223 222
f 217 221 222
f 217 222 218
f 218 222 223
f 218 223 219
f 219 223 224
f 219 224 220
f 220 224 221
f 220 221 217
f 225 226 227
f 225 227 228
f 229 232 231
f 229 231 230
f 225 229 230
f 225 230 226
f 226 230 231
f 226 231 227
f 227 231 232
f 227 232 228
f 228 232 229
f 228 229 225
f 233 234 235
f 233 235 236
f 237 240 239
f 237 239 238
f 233 237 238
f 233 238 234
f 234 238 239
f 234 239 235
f 235 239 240
f 235 240 236
f 236 240 237
f 236 237 233
f 241 242 243
f 241 243 244
f 245 248 247
f 245 247 246
f 241 245 246
f 241 246 242
f 242 246 247
f 242 247 243
f 243 247 248
f 243 248 244
f 244 248 245
f 244 245 241
f 249 250 251
f 249 251 252
f 253 256 255
f 253 255 254
f 249 253 254
f 249 254 250
f 250 254 255
f 250 255 251
f 251 255 256
f 251 256 252
f 252 256 253
f 252 253 249
f 257 258 259
f 257 259 260
f 261 264 263
f 261 263 262
f 257 261 262
f 257 262 258
f 258 262 263
f 258 263 259
f 259 263 264
f 259 264 260
f 260 264 261
f 260 261 257
f 265 266 267
f 265 267 268
f 269 272 271
f 269 271 270
f 265 269 270
f 265 270 266
f 266 270 271
f 266 271 267
f 267 271 272
f 267 272 268
f 268 272 269
f 268 269 265
f 273 274 275
f 273 275 276
f 277 280 279
f 277 279 278
f 273 277 278
f 273 278 274
f 274 278 279
f 274 279 275
f 275 279 280
f 275 280 276
f 276 280 277
f 276 277 273
f 281 282 283
f 281 283 284
f 285 288 287
f 285 287 286
f 281 285 286
f 281 286 282
f 282 286 287
f 282 287 283
f 283 287 288
f 283 288 284
f 284 288 285
f 284 285 281
f 289 290 291
f 289 291 292
f 293 296 295
f 293 295 294
f 289 293 294
f 289 294 290
f 290 294 295
f 290 295 291
f 291 295 296
f 291 296 292
f 292 296 293
f 292 293 289
f 297 298 299
f 297 299 300
f 301 304 303
f 301 303 302
f 297 301 302
f 297 302 298
f 298 302 303
f 298 303 299
f 299 303 304
f 299 304 300
f 300 304 301
f 300 301 297
f 305 306 307
f 305 307 308
f 309 312 311
f 309 311 310
f 305 309 310
f 305 310 306
f 306 310 311
f 306 311 307
f 307 311 312
f 307 312 308
f 308 312 309
f 308 309 305
f 313 314 315
f 313 315 316
f 317 320 319
f 317 319 318
f 313 317 318
f 313 318 314
f 314 318 319
f 314 319 315
f 315 319 320
f 315 320 316
f 316 320 317
f 316 317 313
f 321 322 323
f 321 323 324
f 325 328 327
f 325 327 326
f 321 325 326
f 321 326 322
f 322 326 327
f 322 327 323
f 323 327 328
f 323 328 324
f 324 328 325
f 324 325 321
f 329 330 331
f 329 331 332
f 333 336 335
f 333 335 334
f 329 333 334
f 329 334 330
f 330 334 335
f 330 335 331
f 331 335 336
f 331 336 332
f 332 336 333
f 332 333 329
f 337 338 339
f 337 339 340
f 341 344 343
f 341 343 342
f 337 341 342
f 337 342 338
f 338 342 343
f 338 343 339
f 339 343 344
f 339 344 340
f 340 344 341
f 340 341 337
f 345 346 347
f 345 347 348
f 349 352 351
f 349 351 350
f 345 349 350
f 345 350 346
f 346 350 351
f 346 351 347
f 347 351 352
f 347 352 348
f 348 352 349
f 348 349 345
f 353 354 355
f 353 355 356
f 357 360 359
f 357 359 358
f 353 357 358
f 353 358 354
f 354 358 359
f 354 359 355
f 355 359 360
f 355 360 356
f 356 360 357
f 356 357 353
f 361 362 363
f 361 363 364
f 365 368 367
f 365 367 366
f 361 365 366
f 361 366 362
f 362 366 367
f 362 367 363
f 363 367 368
f 363 368 364
f 364 368 365
f 364 365 361
f 369 370 371
f 369 371 372
f 373 376 375
f 373 375 374
f 369 373 374
f 369 374 370
f 370 374 375
f 370 375 371
f 371 375 376
f 371 376 372
f 372 376 373
f 372 373 369
f 377 378 379
f 377 379 380
f 381 384 383
f 381 383 382
f 377 381 382
f 377 382 378
f 378 382 383
f 378 383 379
f 379 383 384
f 379 384 380
f 380 384 381
f 380 381 377
f 385 386 387
f 385 387 388
f 389 392 391
f 389 391 390
f 385 389 390
f 385 390 386
f 386 390 391
f 386 391 387
f 387 391 392
f 387 392 388
f 388 392 389
f 388 389 385
f 393 394 395
f 393 395 396
f 397 400 399
f 397 399 398
f 393 397 398
f 393 398 394
f 394 398 399
f 394 399 395
f 395 399 400
f 395 400 396
f 396 400 397
f 396 397 393
f 401 402 403
f 401 403 404
f 405 408 407
f 405 407 406
f 401 405 406
f 401 406 402
f 402 406 407
f 402 407 403
f 403 407 408
f 403 408 404
f 404 408 405
f 404 405 401
f 409 410 411
f 409 411 412
f 413 416 415
f 413 415 414
f 409 413 414
f 409 414 410
f 410 414 415
f 410 415 411
f 411 415 416
f 411 416 412
f 412 416 413
f 412 413 409
f 417 418 419
f 417 419 420
f 421 424 423
f 421 423 422
f 417 421 422
f 417 422 418
f 418 422 423
f 418 423 419
f 419 423 424
f 419 424 420
f 420 424 421
f 420 421 417
f 425 426 427
f 425 427 428
f 429 432 431
f 429 431 430
f 425 429 430
f 425 430 426
f 426 430 431
f 426 431 427
f 427 431 432
f 427 432 428
f 428 432 429
f 428 429 425
f 433 434 435
f 433 435 436
f 437 440 439
f 437 439 438
f 433 437 438
f 433 438 434
f 434 438 439
f 434 439 435
f 435 439 440
f 435 440 436
f 436 440 437
f 436 437 433
f 441 442 443
f 441 443 444
f 445 448 447
f 445 447 446
f 441 445 446
f 441 446 442
f 442 446 447
f 442 447 443
f 443 447 448
f 443 448 444
f 444 448 445
f 444 445 441
f 449 450 451
f 449 451 452
f 453 456 455
f 453 455 454
f 449 453 454
f 449 454 450
f 450 454 455
f 450 455 451
f 451 455 456
f 451 456 452
f 452 456 453
f 452 453 449
f 457 458 459
f 457 459 460
f 461 464 463
f 461 463 462
f 457 461 462
f 457 462 458
f 458 462 463
f 458 463 459
f 459 463 464
f 459 464 460
f 460 464 461
f 460 461 457
f 465 466 467
f 465 467 468
f 469 472 471
f 469 471 470
f 465 469 470
f 465 470 466
f 466 470 471
f 466 471 467
f 467 471 472
f 467 472 468
f 468 472 469
f 468 469 465
f 473 474 475
f 473 475 476
f 477 480 479
f 477 479 478
f 473 477 478
f 473 478 474
f 474 478 479
f 474 479 475
f 475 479 480
f 475 480 476
f 476 480 477
f 476 477 473
f 481 482 483
f 481 483 484
f 485 488 487
f 485 487 486
f 481 485 486
f 481 486 482
f 482 486 487
f 482 487 483
f 483 487 488
f 483 488 484
f 484 488 485
f 484 485 481
f 489 490 491
f 489 491 492
f 493 496 495
f 493 495 494
f 489 493 494
f 489 494 490
f 490 494 495
f 490 495 491
f 491 495 496
f 491 496 492
f 492 496 493
f 492 493 489
f 497 498 499
f 497 499 500
f 501 504 503
f 501 503 502
f 497 501 502
f 497 502 498
f 498 502 503
f 498 503 499
f 499 503 504
f 499 504 500
f 500 504 501
f 500 501 497
f 505 506 507
f 505 507 508
f 509 512 511
f 509 511 510
f 505 509 510
f 505 510 506
f 506 510 511
f 506 511 507
f 507 511 512
f 507 512 508
f 508 512 509
f 508 509 505
f 513 514 515
f 513 515 516
f 517 520 519
f 517 519 518
f 513 517 518
f 513 518 514
f 514 518 519
f 514 519 515
f 515 519 520
f 515 520 516
f 516 520 517
f 516 517 513
f 521 522 523
f 521 523 524
f 525 528 527
f 525 527 526
f 521 525 526
f 521 526 522
f 522 526 527
f 522 527 523
f 523 527 528
f 523 528 524
f 524 528 525
f 524 525 521
f 529 530 531
f 529 531 532
f 533 536 535
f 533 535 534
f 529 533 534
f 529 534 530
f 530 534 535
f 530 535 531
f 531 535 536
f 531 536 532
f 532 536 533
f 532 533 529
f 537 538 539
f 537 539 540
f 541 544 543
f 541 543 542
f 537 541 542
f 537 542 538
f 538 542 543
f 538 543 539
f 539 543 544
f 539 544 540
f 540 544 541
f 540 541 537
f 545 546 547
f 545 547 548
f 549 552 551
f 549 551 550
f 545 549 550
f 545 550 546
f 546 550 551
f 546 551 547
f 547 551 552
f 547 552 548
f 548 552 549
f 548 549 545
f 553 554 555
f 553 555 556
f 557 560 559
f 557 559 558
f 553 557 558
f 553 558 554
f 554 558 559
f 554 559 555
f 555 559 560
f 555 560 556
f 556 560 557
f 556 557 553
f 561 562 563
f 561 563 564
f 565 568 567
f 565 567 566
f 561 565 566
f 561 566 562
f 562 566 567
f 562 567 563
f 563 567 568
f 563 568 564
f 564 568 565
f 564 565 561
f 569 570 571
f 569 571 572
f 573 576 575
f 573 575 574
f 569 573 574
f 569 574 570
f 570 574 575
f 570 575 571
f 571 575 576
f 571 576 572
f 572 576 573
f 572 573 569
f 577 578 579
f 577 579 580
f 581 584 583
f 581 583 582
f 577 581 582
f 577 582 578
f 578 582 583
f 578 583 579
f 579 583 584
f 579 584 580
f 580 584 581
f 580 581 577
f 585 586 587
f 585 587 588
f 589 592 591
f 589 591 590
f 585 589 590
f 585 590 586
f 586 590 591
f 586 591 587
f 587 591 592
f 587 592 588
f 588 592 589
f 588 589 585
f 593 594 595
f 593 595 596
f 597 600 599
f 597 599 598
f 593 597 598
f 593 598 594
f 594 598 599
f 594 599 595
f 595 599 600
f 595 600 596
f 596 600 597
f 596 597 593
f 601 602 603
f 601 603 604
f 605 608 607
f 605 607 606
f 601 605 606
f 601 606 602
f 602 606 607
f 602 607 603
f 603 607 608
f 603 608 604
f 604 608 605
f 604 605 601
f 609 610 611
f 609 611 612
f 613 616 615
f 613 615 614
f 609 613 614
f 609 614 610
f 610 614 615
f 610 615 611
f 611 615 616
f 611 616 612
f 612 616 613
f 612 613 609
f 617 618 619
f 617 619 620
f 621 624 623
f 621 623 622
f 617 621 622
f 617 622 618
f 618 622 623
f 618 623 619
f 619 623 624
f 619 624 620
f 620 624 621
f 620 621 617
f 625 626 627
f 625 627 628
f 629 632 631
f 629 631 630
f 625 629 630
f 625 630 626
f 626 630 631
f 626 631 627
f 627 631 632
f 627 632 628
f 628 632 629
f 628 629 625
f 633 634 635
f 633 635 636
f 637 640 639
f 637 639 638
f 633 637 638
f 633 638 634
f 634 638 639
f 634 639 635
f 635 639 640
f 635 640 636
f 636 640 637
f 636 637 633
f 641 642 643
f 641 643 644
f 645 648 647
f 645 647 646
f 641 645 646
f 641 646 642
f 642 646 647
f 642 647 643
f 643 647 648
f 643 648 644
f 644 648 645
f 644 645 641
f 649 650 651
f 649 651 652
f 653 656 655
f 653 655 654
f 649 653 654
f 649 654 650
f 650 654 655
f 650 655 651
f 651 655 656
f 651 656 652
f 652 656 653
f 652 653 649
f 657 658 659
f 657 659 660
f 661 664 663
f 661 663 662
f 657 661 662
f 657 662 658
f 658 662 663
f 658 663 659
f 659 663 664
f 659 664 660
f 660 664 661
f 660 661 657
f 665 666 667
f 665 667 668
f 669 672 671
f 669 671 670
f 665 669 670
f 665 670 666
f 666 670 671
f 666 671 667
f 667 671 672
f 667 672 668
f 668 672 669
f 668 669 665
f 673 674 675
f 673 675 676
f 677 680 679
f 677 679 678
f 673 677 678
f 673 678 674
f 674 678 679
f 674 679 675
f 675 679 680
f 675 680 676
f 676 680 677
f 676 677 673
f 681 682 683
f 681 683 684
f 685 688 687
f 685 687 686
f 681 685 686
f 681 686 682
f 682 686 687
f 682 687 683
f 683 687 688
f 683 688 684
f 684 688 685
f 684 685 681
f 689 690 691
f 689 691 692
f 693 696 695
f 693 695 694
f 689 693 694
f 689 694 690
f 690 694 695
f 690 695 691
f 691 695 696
f 691 696 692
f 692 696 693
f 692 693 689
f 697 698 699
f 697 699 700
f 701 704 703
f 701 703 702
f 697 701 702
f 697 702 698
f 698 702 703
f 698 703 699
f 699 703 704
f 699 704 700
f 700 704 701
f 700 701 697
f 705 706 707
f 705 707 708
f 709 712 711
f 709 711 710
f 705 709 710
f 705 710 706
f 706 710 711
f 706 711 707
f 707 711 712
f 707 712 708
f 708 712 709
f 708 709 705
f 713 714 715
f 713 715 716
f 717 720 719
f 717 719 718
f 713 717 718
f 713 718 714
f 714 718 719
f 714 719 715
f 715 719 720
f 715 720 716
f 716 720 717
f 716 717 713
f 721 722 723
f 721 723 724
f 725 728 727
f 725 727 726
f 721 725 726
f 721 726 722
f 722 726 727
f 722 727 723
f 723 727 728
f 723 728 724
f 724 728 725
f 724 725 721
f 729 730 731
f 729 731 732
f 733 736 735
f 733 735 734
f 729 733 734
f 729 734 730
f 730 734 735
f 730 735 731
f 731 735 736
f 731 736 732
f 732 736 733
f 732 733 729
f 737 738 739
f 737 739 740
f 741 744 743
f 741 743 742
f 737 741 742
f 737 742 738
f 738 742 743
f 738 743 739
f 739 743 744
f 739 744 740
f 740 744 741
f 740 741 737
f 745 746 747
f 745 747 748
f 749 752 751
f 749 751 750
f 745 749 750
f 745 750 746
f 746 750 751
f 746 751 747
f 747 751 752
f 747 752 748
f 748 752 749
f 748 749 745
f 753 754 755
f 753 755 756
f 757 760 759
f 757 759 758
f 753 757 758
f 753 758 754
f 754 758 759
f 754 759 755
f 755 759 760
f 755 760 756
f 756 760 757
f 756 757 753
