o [4B] 3D Diagram - S2-08 Group A_74
v -6.137204 -2.350975 17.016387
v -4.862796 -2.370402 16.841544
v -4.862796 -3.649025 16.983613
v -6.137204 -3.629598 17.158456
v -6.110888 -2.329922 17.205860
v -4.836481 -2.349349 17.031018
v -4.836481 -3.627972 17.173087
v -6.110888 -3.608546 17.347930
v -6.110888 -2.329922 17.205860
v -4.836481 -2.349349 17.031018
v -4.836481 -3.627972 17.173087
v -6.110888 -3.608546 17.347930
v -6.084572 -2.308870 17.395334
v -4.810165 -2.328297 17.220492
v -4.810165 -3.606920 17.362561
v -6.084572 -3.587493 17.537403
v -6.084572 -2.308870 17.395334
v -4.810165 -2.328297 17.220492
v -4.810165 -3.606920 17.362561
v -6.084572 -3.587493 17.537403
v -6.058256 -2.287817 17.584808
v -4.783849 -2.307244 17.409965
v -4.783849 -3.585867 17.552034
v -6.058256 -3.566440 17.726877
v -6.058256 -2.287817 17.584808
v -4.783849 -2.307244 17.409965
v -4.783849 -3.585867 17.552034
v -6.058256 -3.566440 17.726877
v -6.031940 -2.266764 17.774281
v -4.757533 -2.286191 17.599439
v -4.757533 -3.564815 17.741508
v -6.031940 -3.545388 17.916351
v -6.031940 -2.266764 17.774281
v -4.757533 -2.286191 17.599439
v -4.757533 -3.564815 17.741508
v -6.031940 -3.545388 17.916351
v -6.005625 -2.245712 17.963755
v -4.731217 -2.265139 17.788913
v -4.731217 -3.543762 17.930982
v -6.005625 -3.524335 18.105824
v -6.005625 -2.245712 17.963755
v -4.731217 -2.265139 17.788913
v -4.731217 -3.543762 17.930982
v -6.005625 -3.524335 18.105824
v -5.979309 -2.224659 18.153229
v -4.704902 -2.244086 17.978386
v -4.704902 -3.522709 18.120456
v -5.979309 -3.503282 18.295298
v -5.979309 -2.224659 18.153229
v -4.704902 -2.244086 17.978386
v -4.704902 -3.522709 18.120456
v -5.979309 -3.503282 18.295298
v -5.952993 -2.203606 18.342702
v -4.678586 -2.223033 18.167860
v -4.678586 -3.501657 18.309929
v -5.952993 -3.482230 18.484772
v -5.952993 -2.203606 18.342702
v -4.678586 -2.223033 18.167860
v -4.678586 -3.501657 18.309929
v -5.952993 -3.482230 18.484772
v -5.926677 -2.182554 18.532176
v -4.652270 -2.201981 18.357334
v -4.652270 -3.480604 18.499403
v -5.926677 -3.461177 18.674245
v -5.926677 -2.182554 18.532176
v -4.652270 -2.201981 18.357334
v -4.652270 -3.480604 18.499403
v -5.926677 -3.461177 18.674245
v -5.900362 -2.161501 18.721650
v -4.625954 -2.180928 18.546807
v -4.625954 -3.459551 18.688877
v -5.900362 -3.440124 18.863719
v -5.900362 -2.161501 18.721650
v -4.625954 -2.180928 18.546807
v -4.625954 -3.459551 18.688877
v -5.900362 -3.440124 18.863719
v -5.874046 -2.140449 18.911123
v -4.599638 -2.159876 18.736281
v -4.599638 -3.438499 18.878350
v -5.874046 -3.419072 19.053193
v -5.874046 -2.140449 18.911123
v -4.599638 -2.159876 18.736281
v -4.599638 -3.438499 18.878350
v -5.874046 -3.419072 19.053193
v -5.847730 -2.119396 19.100597
v -4.573323 -2.138823 18.925755
v -4.573323 -3.417446 19.067824
v -5.847730 -3.398019 19.242666
v -5.847730 -2.119396 19.100597
v -4.573323 -2.138823 18.925755
v -4.573323 -3.417446 19.067824
v -5.847730 -3.398019 19.242666
v -5.821414 -2.098343 19.290071
v -4.547007 -2.117770 19.115228
v -4.547007 -3.396394 19.257298
v -5.821414 -3.376967 19.432140
v -5.821414 -2.098343 19.290071
v -4.547007 -2.117770 19.115228
v -4.547007 -3.396394 19.257298
v -5.821414 -3.376967 19.432140
v -5.795098 -2.077291 19.479544
v -4.520691 -2.096718 19.304702
v -4.520691 -3.375341 19.446771
v -5.795098 -3.355914 19.621614
v -5.795098 -2.077291 19.479544
v -4.520691 -2.096718 19.304702
v -4.520691 -3.375341 19.446771
v -5.795098 -3.355914 19.621614
v -5.768783 -2.056238 19.669018
v -4.494375 -2.075665 19.494176
v -4.494375 -3.354288 19.636245
v -5.768783 -3.334861 19.811087
v -5.768783 -2.056238 19.669018
v -4.494375 -2.075665 19.494176
v -4.494375 -3.354288 19.636245
v -5.768783 -3.334861 19.811087
v -5.742467 -2.035185 19.858492
v -4.468060 -2.054612 19.683649
v -4.468060 -3.333236 19.825719
v -5.742467 -3.313809 20.000561
v -5.742467 -2.035185 19.858492
v -4.468060 -2.054612 19.683649
v -4.468060 -3.333236 19.825719
v -5.742467 -3.313809 20.000561
v -5.716151 -2.014133 20.047966
v -4.441744 -2.033560 19.873123
v -4.441744 -3.312183 20.015192
v -5.716151 -3.292756 20.190035
v -5.716151 -2.014133 20.047966
v -4.441744 -2.033560 19.873123
v -4.441744 -3.312183 20.015192
v -5.716151 -3.292756 20.190035
v -5.689835 -1.993080 20.237439
v -4.415428 -2.012507 20.062597
v -4.415428 -3.291130 20.204666
v -5.689835 -3.271703 20.379508
v -5.689835 -1.993080 20.237439
v -4.415428 -2.012507 20.062597
v -4.415428 -3.291130 20.204666
v -5.689835 -3.271703 20.379508
v -5.663519 -1.972028 20.426913
v -4.389112 -1.991454 20.252070
v -4.389112 -3.270078 20.394140
v -5.663519 -3.250651 20.568982
v -5.663519 -1.972028 20.426913
v -4.389112 -1.991454 20.252070
v -4.389112 -3.270078 20.394140
v -5.663519 -3.250651 20.568982
v -5.637204 -1.950975 20.616387
v -4.362796 -1.970402 20.441544
v -4.362796 -3.249025 20.583613
v -5.637204 -3.229598 20.758456
v -5.637204 -1.950975 20.616387
v -4.362796 -1.970402 20.441544
v -4.362796 -3.249025 20.583613
v -5.637204 -3.229598 20.758456
v -5.610888 -1.929922 20.805860
v -4.336481 -1.949349 20.631018
v -4.336481 -3.227972 20.773087
v -5.610888 -3.208546 20.947930
v -5.610888 -1.929922 20.805860
v -4.336481 -1.949349 20.631018
v -4.336481 -3.227972 20.773087
v -5.610888 -3.208546 20.947930
v -5.584572 -1.908870 20.995334
v -4.310165 -1.928297 20.820492
v -4.310165 -3.206920 20.962561
v -5.584572 -3.187493 21.137403
v -5.584572 -1.908870 20.995334
v -4.310165 -1.928297 20.820492
v -4.310165 -3.206920 20.962561
v -5.584572 -3.187493 21.137403
v -5.558256 -1.887817 21.184808
v -4.283849 -1.907244 21.009965
v -4.283849 -3.185867 21.152034
v -5.558256 -3.166440 21.326877
v -5.558256 -1.887817 21.184808
v -4.283849 -1.907244 21.009965
v -4.283849 -3.185867 21.152034
v -5.558256 -3.166440 21.326877
v -5.531940 -1.866764 21.374281
v -4.257533 -1.886191 21.199439
v -4.257533 -3.164815 21.341508
v -5.531940 -3.145388 21.516351
v -5.531940 -1.866764 21.374281
v -4.257533 -1.886191 21.199439
v -4.257533 -3.164815 21.341508
v -5.531940 -3.145388 21.516351
v -5.505625 -1.845712 21.563755
v -4.231217 -1.865139 21.388913
v -4.231217 -3.143762 21.530982
v -5.505625 -3.124335 21.705824
v -5.505625 -1.845712 21.563755
v -4.231217 -1.865139 21.388913
v -4.231217 -3.143762 21.530982
v -5.505625 -3.124335 21.705824
v -5.479309 -1.824659 21.753229
v -4.204902 -1.844086 21.578386
v -4.204902 -3.122709 21.720456
v -5.479309 -3.103282 21.895298
v -5.479309 -1.824659 21.753229
v -4.204902 -1.844086 21.578386
v -4.204902 -3.122709 21.720456
v -5.479309 -3.103282 21.895298
v -5.452993 -1.803606 21.942702
v -4.178586 -1.823033 21.767860
v -4.178586 -3.101657 21.909929
v -5.452993 -3.082230 22.084772
v -5.452993 -1.803606 21.942702
v -4.178586 -1.823033 21.767860
v -4.178586 -3.101657 21.909929
v -5.452993 -3.082230 22.084772
v -5.426677 -1.782554 22.132176
v -4.152270 -1.801981 21.957334
v -4.152270 -3.080604 22.099403
v -5.426677 -3.061177 22.274245
v -5.426677 -1.782554 22.132176
v -4.152270 -1.801981 21.957334
v -4.152270 -3.080604 22.099403
v -5.426677 -3.061177 22.274245
v -5.400362 -1.761501 22.321650
v -4.125954 -1.780928 22.146807
v -4.125954 -3.059551 22.288877
v -5.400362 -3.040124 22.463719
v -5.400362 -1.761501 22.321650
v -4.125954 -1.780928 22.146807
v -4.125954 -3.059551 22.288877
v -5.400362 -3.040124 22.463719
v -5.374046 -1.740449 22.511123
v -4.099638 -1.759876 22.336281
v -4.099638 -3.038499 22.478350
v -5.374046 -3.019072 22.653193
v -5.374046 -1.740449 22.511123
v -4.099638 -1.759876 22.336281
v -4.099638 -3.038499 22.478350
v -5.374046 -3.019072 22.653193
v -5.347730 -1.719396 22.700597
v -4.073323 -1.738823 22.525755
v -4.073323 -3.017446 22.667824
v -5.347730 -2.998019 22.842666
v -5.347730 -1.719396 22.700597
v -4.073323 -1.738823 22.525755
v -4.073323 -3.017446 22.667824
v -5.347730 -2.998019 22.842666
v -5.321414 -1.698343 22.890071
v -4.047007 -1.717770 22.715228
v -4.047007 -2.996394 22.857298
v -5.321414 -2.976967 23.032140
v -5.321414 -1.698343 22.890071
v -4.047007 -1.717770 22.715228
v -4.047007 -2.996394 22.857298
v -5.321414 -2.976967 23.032140
v -5.295098 -1.677291 23.079544
v -4.020691 -1.696718 22.904702
v -4.020691 -2.975341 23.046771
v -5.295098 -2.955914 23.221614
v -5.295098 -1.677291 23.079544
v -4.020691 -1.696718 22.904702
v -4.020691 -2.975341 23.046771
v -5.295098 -2.955914 23.221614
v -5.268783 -1.656238 23.269018
v -3.994375 -1.675665 23.094176
v -3.994375 -2.954288 23.236245
v -5.268783 -2.934861 23.411087
v -5.268783 -1.656238 23.269018
v -3.994375 -1.675665 23.094176
v -3.994375 -2.954288 23.236245
v -5.268783 -2.934861 23.411087
v -5.242467 -1.635185 23.458492
v -3.968060 -1.654612 23.283649
v -3.968060 -2.933236 23.425719
v -5.242467 -2.913809 23.600561
v -5.242467 -1.635185 23.458492
v -3.968060 -1.654612 23.283649
v -3.968060 -2.933236 23.425719
v -5.242467 -2.913809 23.600561
v -5.216151 -1.614133 23.647966
v -3.941744 -1.633560 23.473123
v -3.941744 -2.912183 23.615192
v -5.216151 -2.892756 23.790035
v -5.216151 -1.614133 23.647966
v -3.941744 -1.633560 23.473123
v -3.941744 -2.912183 23.615192
v -5.216151 -2.892756 23.790035
v -5.189835 -1.593080 23.837439
v -3.915428 -1.612507 23.662597
v -3.915428 -2.891130 23.804666
v -5.189835 -2.871703 23.979508
v -5.189835 -1.593080 23.837439
v -3.915428 -1.612507 23.662597
v -3.915428 -2.891130 23.804666
v -5.189835 -2.871703 23.979508
v -5.163519 -1.572028 24.026913
v -3.889112 -1.591454 23.852070
v -3.889112 -2.870078 23.994140
v -5.163519 -2.850651 24.168982
v -5.163519 -1.572028 24.026913
v -3.889112 -1.591454 23.852070
v -3.889112 -2.870078 23.994140
v -5.163519 -2.850651 24.168982
v -5.137204 -1.550975 24.216387
v -3.862796 -1.570402 24.041544
v -3.862796 -2.849025 24.183613
v -5.137204 -2.829598 24.358456
v -5.137204 -1.550975 24.216387
v -3.862796 -1.570402 24.041544
v -3.862796 -2.849025 24.183613
v -5.137204 -2.829598 24.358456
v -5.110888 -1.529922 24.405860
v -3.836481 -1.549349 24.231018
v -3.836481 -2.827972 24.373087
v -5.110888 -2.808546 24.547930
v -5.110888 -1.529922 24.405860
v -3.836481 -1.549349 24.231018
v -3.836481 -2.827972 24.373087
v -5.110888 -2.808546 24.547930
v -5.084572 -1.508870 24.595334
v -3.810165 -1.528297 24.420492
v -3.810165 -2.806920 24.562561
v -5.084572 -2.787493 24.737403
v -5.084572 -1.508870 24.595334
v -3.810165 -1.528297 24.420492
v -3.810165 -2.806920 24.562561
v -5.084572 -2.787493 24.737403
v -5.058256 -1.487817 24.784808
v -3.783849 -1.507244 24.609965
v -3.783849 -2.785867 24.752034
v -5.058256 -2.766440 24.926877
v -5.058256 -1.487817 24.784808
v -3.783849 -1.507244 24.609965
v -3.783849 -2.785867 24.752034
v -5.058256 -2.766440 24.926877
v -5.031940 -1.466764 24.974281
v -3.757533 -1.486191 24.799439
v -3.757533 -2.764815 24.941508
v -5.031940 -2.745388 25.116351
v -5.031940 -1.466764 24.974281
v -3.757533 -1.486191 24.799439
v -3.757533 -2.764815 24.941508
v -5.031940 -2.745388 25.116351
v -5.005625 -1.445712 25.163755
v -3.731217 -1.465139 24.988913
v -3.731217 -2.743762 25.130982
v -5.005625 -2.724335 25.305824
v -5.005625 -1.445712 25.163755
v -3.731217 -1.465139 24.988913
v -3.731217 -2.743762 25.130982
v -5.005625 -2.724335 25.305824
v -4.979309 -1.424659 25.353229
v -3.704902 -1.444086 25.178386
v -3.704902 -2.722709 25.320456
v -4.979309 -2.703282 25.495298
v -4.979309 -1.424659 25.353229
v -3.704902 -1.444086 25.178386
v -3.704902 -2.722709 25.320456
v -4.979309 -2.703282 25.495298
v -4.952993 -1.403606 25.542702
v -3.678586 -1.423033 25.367860
v -3.678586 -2.701657 25.509929
v -4.952993 -2.682230 25.684772
v -4.952993 -1.403606 25.542702
v -3.678586 -1.423033 25.367860
v -3.678586 -2.701657 25.509929
v -4.952993 -2.682230 25.684772
v -4.926677 -1.382554 25.732176
v -3.652270 -1.401981 25.557334
v -3.652270 -2.680604 25.699403
v -4.926677 -2.661177 25.874245
v -4.926677 -1.382554 25.732176
v -3.652270 -1.401981 25.557334
v -3.652270 -2.680604 25.699403
v -4.926677 -2.661177 25.874245
v -4.900362 -1.361501 25.921650
v -3.625954 -1.380928 25.746807
v -3.625954 -2.659551 25.888877
v -4.900362 -2.640124 26.063719
v -4.900362 -1.361501 25.921650
v -3.625954 -1.380928 25.746807
v -3.625954 -2.659551 25.888877
v -4.900362 -2.640124 26.063719
v -4.874046 -1.340449 26.111123
v -3.599638 -1.359876 25.936281
v -3.599638 -2.638499 26.078350
v -4.874046 -2.619072 26.253193
v -4.874046 -1.340449 26.111123
v -3.599638 -1.359876 25.936281
v -3.599638 -2.638499 26.078350
v -4.874046 -2.619072 26.253193
v -4.847730 -1.319396 26.300597
v -3.573323 -1.338823 26.125755
v -3.573323 -2.617446 26.267824
v -4.847730 -2.598019 26.442666
v -4.847730 -1.319396 26.300597
v -3.573323 -1.338823 26.125755
v -3.573323 -2.617446 26.267824
v -4.847730 -2.598019 26.442666
v -4.821414 -1.298343 26.490071
v -3.547007 -1.317770 26.315228
v -3.547007 -2.596394 26.457298
v -4.821414 -2.576967 26.632140
v -4.821414 -1.298343 26.490071
v -3.547007 -1.317770 26.315228
v -3.547007 -2.596394 26.457298
v -4.821414 -2.576967 26.632140
v -4.795098 -1.277291 26.679544
v -3.520691 -1.296718 26.504702
v -3.520691 -2.575341 26.646771
v -4.795098 -2.555914 26.821614
v -4.795098 -1.277291 26.679544
v -3.520691 -1.296718 26.504702
v -3.520691 -2.575341 26.646771
v -4.795098 -2.555914 26.821614
v -4.768783 -1.256238 26.869018
v -3.494375 -1.275665 26.694176
v -3.494375 -2.554288 26.836245
v -4.768783 -2.534861 27.011087
v -4.768783 -1.256238 26.869018
v -3.494375 -1.275665 26.694176
v -3.494375 -2.554288 26.836245
v -4.768783 -2.534861 27.011087
v -4.742467 -1.235185 27.058492
v -3.468060 -1.254612 26.883649
v -3.468060 -2.533236 27.025719
v -4.742467 -2.513809 27.200561
v -4.742467 -1.235185 27.058492
v -3.468060 -1.254612 26.883649
v -3.468060 -2.533236 27.025719
v -4.742467 -2.513809 27.200561
v -4.716151 -1.214133 27.247966
v -3.441744 -1.233560 27.073123
v -3.441744 -2.512183 27.215192
v -4.716151 -2.492756 27.390035
v -4.716151 -1.214133 27.247966
v -3.441744 -1.233560 27.073123
v -3.441744 -2.512183 27.215192
v -4.716151 -2.492756 27.390035
v -4.689835 -1.193080 27.437439
v -3.415428 -1.212507 27.262597
v -3.415428 -2.491130 27.404666
v -4.689835 -2.471703 27.579508
v -4.689835 -1.193080 27.437439
v -3.415428 -1.212507 27.262597
v -3.415428 -2.491130 27.404666
v -4.689835 -2.471703 27.579508
v -4.663519 -1.172028 27.626913
v -3.389112 -1.191454 27.452070
v -3.389112 -2.470078 27.594140
v -4.663519 -2.450651 27.768982
v -4.663519 -1.172028 27.626913
v -3.389112 -1.191454 27.452070
v -3.389112 -2.470078 27.594140
v -4.663519 -2.450651 27.768982
v -4.637204 -1.150975 27.816387
v -3.362796 -1.170402 27.641544
v -3.362796 -2.449025 27.783613
v -4.637204 -2.429598 27.958456
v -4.637204 -1.150975 27.816387
v -3.362796 -1.170402 27.641544
v -3.362796 -2.449025 27.783613
v -4.637204 -2.429598 27.958456
v -4.610888 -1.129922 28.005860
v -3.336481 -1.149349 27.831018
v -3.336481 -2.427972 27.973087
v -4.610888 -2.408546 28.147930
v -4.610888 -1.129922 28.005860
v -3.336481 -1.149349 27.831018
v -3.336481 -2.427972 27.973087
v -4.610888 -2.408546 28.147930
v -4.584572 -1.108870 28.195334
v -3.310165 -1.128297 28.020492
v -3.310165 -2.406920 28.162561
v -4.584572 -2.387493 28.337403
v -4.584572 -1.108870 28.195334
v -3.310165 -1.128297 28.020492
v -3.310165 -2.406920 28.162561
v -4.584572 -2.387493 28.337403
v -4.558256 -1.087817 28.384808
v -3.283849 -1.107244 28.209965
v -3.283849 -2.385867 28.352034
v -4.558256 -2.366440 28.526877
v -4.558256 -1.087817 28.384808
v -3.283849 -1.107244 28.209965
v -3.283849 -2.385867 28.352034
v -4.558256 -2.366440 28.526877
v -4.531940 -1.066764 28.574281
v -3.257533 -1.086191 28.399439
v -3.257533 -2.364815 28.541508
v -4.531940 -2.345388 28.716351
v -4.531940 -1.066764 28.574281
v -3.257533 -1.086191 28.399439
v -3.257533 -2.364815 28.541508
v -4.531940 -2.345388 28.716351
v -4.505625 -1.045712 28.763755
v -3.231217 -1.065139 28.588913
v -3.231217 -2.343762 28.730982
v -4.505625 -2.324335 28.905824
v -4.505625 -1.045712 28.763755
v -3.231217 -1.065139 28.588913
v -3.231217 -2.343762 28.730982
v -4.505625 -2.324335 28.905824
v -4.479309 -1.024659 28.953229
v -3.204902 -1.044086 28.778386
v -3.204902 -2.322709 28.920456
v -4.479309 -2.303282 29.095298
v -4.479309 -1.024659 28.953229
v -3.204902 -1.044086 28.778386
v -3.204902 -2.322709 28.920456
v -4.479309 -2.303282 29.095298
v -4.452993 -1.003606 29.142702
v -3.178586 -1.023033 28.967860
v -3.178586 -2.301657 29.109929
v -4.452993 -2.282230 29.284772
v -4.452993 -1.003606 29.142702
v -3.178586 -1.023033 28.967860
v -3.178586 -2.301657 29.109929
v -4.452993 -2.282230 29.284772
v -4.426677 -0.982554 29.332176
v -3.152270 -1.001981 29.157334
v -3.152270 -2.280604 29.299403
v -4.426677 -2.261177 29.474245
v -4.426677 -0.982554 29.332176
v -3.152270 -1.001981 29.157334
v -3.152270 -2.280604 29.299403
v -4.426677 -2.261177 29.474245
v -4.400362 -0.961501 29.521650
v -3.125954 -0.980928 29.346807
v -3.125954 -2.259551 29.488877
v -4.400362 -2.240124 29.663719
v -4.400362 -0.961501 29.521650
v -3.125954 -0.980928 29.346807
v -3.125954 -2.259551 29.488877
v -4.400362 -2.240124 29.663719
v -4.374046 -0.940449 29.711123
v -3.099638 -0.959876 29.536281
v -3.099638 -2.238499 29.678350
v -4.374046 -2.219072 29.853193
v -4.374046 -0.940449 29.711123
v -3.099638 -0.959876 29.536281
v -3.099638 -2.238499 29.678350
v -4.374046 -2.219072 29.853193
v -4.347730 -0.919396 29.900597
v -3.073323 -0.938823 29.725755
v -3.073323 -2.217446 29.867824
v -4.347730 -2.198019 30.042666
v -4.347730 -0.919396 29.900597
v -3.073323 -0.938823 29.725755
v -3.073323 -2.217446 29.867824
v -4.347730 -2.198019 30.042666
v -4.321414 -0.898343 30.090071
v -3.047007 -0.917770 29.915228
v -3.047007 -2.196394 30.057298
v -4.321414 -2.176967 30.232140
v -4.321414 -0.898343 30.090071
v -3.047007 -0.917770 29.915228
v -3.047007 -2.196394 30.057298
v -4.321414 -2.176967 30.232140
v -4.295098 -0.877291 30.279544
v -3.020691 -0.896718 30.104702
v -3.020691 -2.175341 30.246771
v -4.295098 -2.155914 30.421614
v -4.295098 -0.877291 30.279544
v -3.020691 -0.896718 30.104702
v -3.020691 -2.175341 30.246771
v -4.295098 -2.155914 30.421614
v -4.268783 -0.856238 30.469018
v -2.994375 -0.875665 30.294176
v -2.994375 -2.154288 30.436245
v -4.268783 -2.134861 30.611087
v -4.268783 -0.856238 30.469018
v -2.994375 -0.875665 30.294176
v -2.994375 -2.154288 30.436245
v -4.268783 -2.134861 30.611087
v -4.242467 -0.835185 30.658492
v -2.968060 -0.854612 30.483649
v -2.968060 -2.133236 30.625719
v -4.242467 -2.113809 30.800561
v -4.242467 -0.835185 30.658492
v -2.968060 -0.854612 30.483649
v -2.968060 -2.133236 30.625719
v -4.242467 -2.113809 30.800561
v -4.216151 -0.814133 30.847966
v -2.941744 -0.833560 30.673123
v -2.941744 -2.112183 30.815192
v -4.216151 -2.092756 30.990035
v -4.216151 -0.814133 30.847966
v -2.941744 -0.833560 30.673123
v -2.941744 -2.112183 30.815192
v -4.216151 -2.092756 30.990035
v -4.189835 -0.793080 31.037439
v -2.915428 -0.812507 30.862597
v -2.915428 -2.091130 31.004666
v -4.189835 -2.071703 31.179508
v -4.189835 -0.793080 31.037439
v -2.915428 -0.812507 30.862597
v -2.915428 -2.091130 31.004666
v -4.189835 -2.071703 31.179508
v -4.163519 -0.772028 31.226913
v -2.889112 -0.791454 31.052070
v -2.889112 -2.070078 31.194140
v -4.163519 -2.050651 31.368982
v -4.163519 -0.772028 31.226913
v -2.889112 -0.791454 31.052070
v -2.889112 -2.070078 31.194140
v -4.163519 -2.050651 31.368982
v -4.137204 -0.750975 31.416387
v -2.862796 -0.770402 31.241544
v -2.862796 -2.049025 31.383613
v -4.137204 -2.029598 31.558456
v -4.137204 -0.750975 31.416387
v -2.862796 -0.770402 31.241544
v -2.862796 -2.049025 31.383613
v -4.137204 -2.029598 31.558456
v -4.110888 -0.729922 31.605860
v -2.836481 -0.749349 31.431018
v -2.836481 -2.027972 31.573087
v -4.110888 -2.008546 31.747930
v -4.110888 -0.729922 31.605860
v -2.836481 -0.749349 31.431018
v -2.836481 -2.027972 31.573087
v -4.110888 -2.008546 31.747930
v -4.084572 -0.708870 31.795334
v -2.810165 -0.728297 31.620492
v -2.810165 -2.006920 31.762561
v -4.084572 -1.987493 31.937403
v -4.084572 -0.708870 31.795334
v -2.810165 -0.728297 31.620492
v -2.810165 -2.006920 31.762561
v -4.084572 -1.987493 31.937403
v -4.058256 -0.687817 31.984808
v -2.783849 -0.707244 31.809965
v -2.783849 -1.985867 31.952034
v -4.058256 -1.966440 32.126877
v -4.058256 -0.687817 31.984808
v -2.783849 -0.707244 31.809965
v -2.783849 -1.985867 31.952034
v -4.058256 -1.966440 32.126877
v -4.031940 -0.666764 32.174281
v -2.757533 -0.686191 31.999439
v -2.757533 -1.964815 32.141508
v -4.031940 -1.945388 32.316351
v -4.031940 -0.666764 32.174281
v -2.757533 -0.686191 31.999439
v -2.757533 -1.964815 32.141508
v -4.031940 -1.945388 32.316351
v -4.005625 -0.645712 32.363755
v -2.731217 -0.665139 32.188913
v -2.731217 -1.943762 32.330982
v -4.005625 -1.924335 32.505824
v -4.005625 -0.645712 32.363755
v -2.731217 -0.665139 32.188913
v -2.731217 -1.943762 32.330982
v -4.005625 -1.924335 32.505824
v -3.979309 -0.624659 32.553229
v -2.704902 -0.644086 32.378386
v -2.704902 -1.922709 32.520456
v -3.979309 -1.903282 32.695298
v -3.979309 -0.624659 32.553229
v -2.704902 -0.644086 32.378386
v -2.704902 -1.922709 32.520456
v -3.979309 -1.903282 32.695298
v -3.952993 -0.603606 32.742702
v -2.678586 -0.623033 32.567860
v -2.678586 -1.901657 32.709929
v -3.952993 -1.882230 32.884772
v -3.952993 -0.603606 32.742702
v -2.678586 -0.623033 32.567860
v -2.678586 -1.901657 32.709929
v -3.952993 -1.882230 32.884772
v -3.926677 -0.582554 32.932176
v -2.652270 -0.601981 32.757334
v -2.652270 -1.880604 32.899403
v -3.926677 -1.861177 33.074245
v -3.926677 -0.582554 32.932176
v -2.652270 -0.601981 32.757334
v -2.652270 -1.880604 32.899403
v -3.926677 -1.861177 33.074245
v -3.900362 -0.561501 33.121650
v -2.625954 -0.580928 32.946807
v -2.625954 -1.859551 33.088877
v -3.900362 -1.840124 33.263719
v -3.900362 -0.561501 33.121650
v -2.625954 -0.580928 32.946807
v -2.625954 -1.859551 33.088877
v -3.900362 -1.840124 33.263719
v -3.874046 -0.540449 33.311123
v -2.599638 -0.559876 33.136281
v -2.599638 -1.838499 33.278350
v -3.874046 -1.819072 33.453193
v -3.874046 -0.540449 33.311123
v -2.599638 -0.559876 33.136281
v -2.599638 -1.838499 33.278350
v -3.874046 -1.819072 33.453193
v -3.847730 -0.519396 33.500597
v -2.573323 -0.538823 33.325755
v -2.573323 -1.817446 33.467824
v -3.847730 -1.798019 33.642666
v -3.847730 -0.519396 33.500597
v -2.573323 -0.538823 33.325755
v -2.573323 -1.817446 33.467824
v -3.847730 -1.798019 33.642666
v -3.821414 -0.498343 33.690071
v -2.547007 -0.517770 33.515228
v -2.547007 -1.796394 33.657298
v -3.821414 -1.776967 33.832140
v -3.821414 -0.498343 33.690071
v -2.547007 -0.517770 33.515228
v -2.547007 -1.796394 33.657298
v -3.821414 -1.776967 33.832140
v -3.795098 -0.477291 33.879544
v -2.520691 -0.496718 33.704702
v -2.520691 -1.775341 33.846771
v -3.795098 -1.755914 34.021614
v -3.795098 -0.477291 33.879544
v -2.520691 -0.496718 33.704702
v -2.520691 -1.775341 33.846771
v -3.795098 -1.755914 34.021614
v -3.768783 -0.456238 34.069018
v -2.494375 -0.475665 33.894176
v -2.494375 -1.754288 34.036245
v -3.768783 -1.734861 34.211087
v -3.768783 -0.456238 34.069018
v -2.494375 -0.475665 33.894176
v -2.494375 -1.754288 34.036245
v -3.768783 -1.734861 34.211087
v -3.742467 -0.435185 34.258492
v -2.468060 -0.454612 34.083649
v -2.468060 -1.733236 34.225719
v -3.742467 -1.713809 34.400561
v -3.742467 -0.435185 34.258492
v -2.468060 -0.454612 34.083649
v -2.468060 -1.733236 34.225719
v -3.742467 -1.713809 34.400561
v -3.716151 -0.414133 34.447966
v -2.441744 -0.433560 34.273123
v -2.441744 -1.712183 34.415192
v -3.716151 -1.692756 34.590035
v -3.716151 -0.414133 34.447966
v -2.441744 -0.433560 34.273123
v -2.441744 -1.712183 34.415192
v -3.716151 -1.692756 34.590035
v -3.689835 -0.393080 34.637439
v -2.415428 -0.412507 34.462597
v -2.415428 -1.691130 34.604666
v -3.689835 -1.671703 34.779508
v -3.689835 -0.393080 34.637439
v -2.415428 -0.412507 34.462597
v -2.415428 -1.691130 34.604666
v -3.689835 -1.671703 34.779508
v -3.663519 -0.372028 34.826913
v -2.389112 -0.391454 34.652070
v -2.389112 -1.670078 34.794140
v -3.663519 -1.650651 34.968982
v -3.663519 -0.372028 34.826913
v -2.389112 -0.391454 34.652070
v -2.389112 -1.670078 34.794140
v -3.663519 -1.650651 34.968982
v -3.637204 -0.350975 35.016387
v -2.362796 -0.370402 34.841544
v -2.362796 -1.649025 34.983613
v -3.637204 -1.629598 35.158456
f 1 2 3
f 1 3 4
f 5 8 7
f 5 7 6
f 1 5 6
f 1 6 2
f 2 6 7
f 2 7 3
f 3 7 8
f 3 8 4
f 4 8 5
f 4 5 1
f 9 10 11
f 9 11 12
f 13 16 15
f 13 15 14
f 9 13 14
f 9 14 10
f 10 14 15
f 10 15 11
f 11 15 16
f 11 16 12
f 12 16 13
f 12 13 9
f 17 18 19
f 17 19 20
f 21 24 23
f 21 23 22
f 17 21 22
f 17 22 18
f 18 22 23
f 18 23 19
f 19 23 24
f 19 24 20
f 20 24 21
f 20 21 17
f 25 26 27
f 25 27 28
f 29 32 31
f 29 31 30
f 25 29 30
f 25 30 26
f 26 30 31
f 26 31 27
f 27 31 32
f 27 32 28
f 28 32 29
f 28 29 25
f 33 34 35
f 33 35 36
f 37 40 39
f 37 39 38
f 33 37 38
f 33 38 34
f 34 38 39
f 34 39 35
f 35 39 40
f 35 40 36
f 36 40 37
f 36 37 33
f 41 42 43
f 41 43 44
f 45 48 47
f 45 47 46
f 41 45 46
f 41 46 42
f 42 46 47
f 42 47 43
f 43 47 48
f 43 48 44
f 44 48 45
f 44 45 41
f 49 50 51
f 49 51 52
f 53 56 55
f 53 55 54
f 49 53 54
f 49 54 50
f 50 54 55
f 50 55 51
f 51 55 56
f 51 56 52
f 52 56 53
f 52 53 49
f 57 58 59
f 57 59 60
f 61 64 63
f 61 63 62
f 57 61 62
f 57 62 58
f 58 62 63
f 58 63 59
f 59 63 64
f 59 64 60
f 60 64 61
f 60 61 57
f 65 66 67
f 65 67 68
f 69 72 71
f 69 71 70
f 65 69 70
f 65 70 66
f 66 70 71
f 66 71 67
f 67 71 72
f 67 72 68
f 68 72 69
f 68 69 65
f 73 74 75
f 73 75 76
f 77 80 79
f 77 79 78
f 73 77 78
f 73 78 74
f 74 78 79
f 74 79 75
f 75 79 80
f 75 80 76
f 76 80 77
f 76 77 73
f 81 82 83
f 81 83 84
f 85 88 87
f 85 87 86
f 81 85 86
f 81 86 82
f 82 86 87
f 82 87 83
f 83 87 88
f 83 88 84
f 84 88 85
f 84 85 81
f 89 90 91
f 89 91 92
f 93 96 95
f 93 95 94
f 89 93 94
f 89 94 90
f 90 94 95
f 90 95 91
f 91 95 96
f 91 96 92
f 92 96 93
f 92 93 89
f 97 98 99
f 97 99 100
f 101 104 103
f 101 103 102
f 97 101 102
f 97 102 98
f 98 102 103
f 98 103 99
f 99 103 104
f 99 104 100
f 100 104 101
f 100 101 97
f 105 106 107
f 105 107 108
f 109 112 111
f 109 111 110
f 105 109 110
f 105 110 106
f 106 110 111
f 106 111 107
f 107 111 112
f 107 112 108
f 108 112 109
f 108 109 105
f 113 114 115
f 113 115 116
f 117 120 119
f 117 119 118
f 113 117 118
f 113 118 114
f 114 118 119
f 114 119 115
f 115 119 120
f 115 120 116
f 116 120 117
f 116 117 113
f 121 122 123
f 121 123 124
f 125 128 127
f 125 127 126
f 121 125 126
f 121 126 122
f 122 126 127
f 122 127 123
f 123 127 128
f 123 128 124
f 124 128 125
f 124 125 121
f 129 130 131
f 129 131 132
f 133 136 135
f 133 135 134
f 129 133 134
f 129 134 130
f 130 134 135
f 130 135 131
f 131 135 136
f 131 136 132
f 132 136 133
f 132 133 129
f 137 138 139
f 137 139 140
f 141 144 143
f 141 143 142
f 137 141 142
f 137 142 138
f 138 142 143
f 138 143 139
f 139 143 144
f 139 144 140
f 140 144 141
f 140 141 137
f 145 146 147
f 145 147 148
f 149 152 151
f 149 151 150
f 145 149 150
f 145 150 146
f 146 150 151
f 146 151 147
f 147 151 152
f 147 152 148
f 148 152 149
f 148 149 145
f 153 154 155
f 153 155 156
f 157 160 159
f 157 159 158
f 153 157 158
f 153 158 154
f 154 158 159
f 154 159 155
f 155 159 160
f 155 160 156
f 156 160 157
f 156 157 153
f 161 162 163
f 161 163 164
f 165 168 167
f 165 167 166
f 161 165 166
f 161 166 162
f 162 166 167
f 162 167 163
f 163 167 168
f 163 168 164
f 164 168 165
f 164 165 161
f 169 170 171
f 169 171 172
f 173 176 175
f 173 175 174
f 169 173 174
f 169 174 170
f 170 174 175
f 170 175 171
f 171 175 176
f 171 176 172
f 172 176 173
f 172 173 169
f 177 178 179
f 177 179 180
f 181 184 183
f 181 183 182
f 177 181 182
f 177 182 178
f 178 182 183
f 178 183 179
f 179 183 184
f 179 184 180
f 180 184 181
f 180 181 177
f 185 186 187
f 185 187 188
f 189 192 191
f 189 191 190
f 185 189 190
f 185 190 186
f 186 190 191
f 186 191 187
f 187 191 192
f 187 192 188
f 188 192 189
f 188 189 185
f 193 194 195
f 193 195 196
f 197 200 199
f 197 199 198
f 193 197 198
f 193 198 194
f 194 198 199
f 194 199 195
f 195 199 200
f 195 200 196
f 196 200 197
f 196 197 193
f 201 202 203
f 201 203 204
f 205 208 207
f 205 207 206
f 201 205 206
f 201 206 202
f 202 206 207
f 202 207 203
f 203 207 208
f 203 208 204
f 204 208 205
f 204 205 201
f 209 210 211
f 209 211 212
f 213 216 215
f 213 215 214
f 209 213 214
f 209 214 210
f 210 214 215
f 210 215 211
f 211 215 216
f 211 216 212
f 212 216 213
f 212 213 209
f 217 218 219
f 217 219 220
f 221 224 223
f 221 223 222
f 217 221 222
f 217 222 218
f 218 222 223
f 218 223 219
f 219 223 224
f 219 224 220
f 220 224 221
f 220 221 217
f 225 226 227
f 225 227 228
f 229 232 231
f 229 231 230
f 225 229 230
f 225 230 226
f 226 230 231
f 226 231 227
f 227 231 232
f 227 232 228
f 228 232 229
f 228 229 225
f 233 234 235
f 233 235 236
f 237 240 239
f 237 239 238
f 233 237 238
f 233 238 234
f 234 238 239
f 234 239 235
f 235 239 240
f 235 240 236
f 236 240 237
f 236 237 233
f 241 242 243
f 241 243 244
f 245 248 247
f 245 247 246
f 241 245 246
f 241 246 242
f 242 246 247
f 242 247 243
f 243 247 248
f 243 248 244
f 244 248 245
f 244 245 241
f 249 250 251
f 249 251 252
f 253 256 255
f 253 255 254
f 249 253 254
f 249 254 250
f 250 254 255
f 250 255 251
f 251 255 256
f 251 256 252
f 252 256 253
f 252 253 249
f 257 258 259
f 257 259 260
f 261 264 263
f 261 263 262
f 257 261 262
f 257 262 258
f 258 262 263
f 258 263 259
f 259 263 264
f 259 264 260
f 260 264 261
f 260 261 257
f 265 266 267
f 265 267 268
f 269 272 271
f 269 271 270
f 265 269 270
f 265 270 266
f 266 270 271
f 266 271 267
f 267 271 272
f 267 272 268
f 268 272 269
f 268 269 265
f 273 274 275
f 273 275 276
f 277 280 279
f 277 279 278
f 273 277 278
f 273 278 274
f 274 278 279
f 274 279 275
f 275 279 280
f 275 280 276
f 276 280 277
f 276 277 273
f 281 282 283
f 281 283 284
f 285 288 287
f 285 287 286
f 281 285 286
f 281 286 282
f 282 286 287
f 282 287 283
f 283 287 288
f 283 288 284
f 284 288 285
f 284 285 281
f 289 290 291
f 289 291 292
f 293 296 295
f 293 295 294
f 289 293 294
f 289 294 290
f 290 294 295
f 290 295 291
f 291 295 296
f 291 296 292
f 292 296 293
f 292 293 289
f 297 298 299
f 297 299 300
f 301 304 303
f 301 303 302
f 297 301 302
f 297 302 298
f 298 302 303
f 298 303 299
f 299 303 304
f 299 304 300
f 300 304 301
f 300 301 297
f 305 306 307
f 305 307 308
f 309 312 311
f 309 311 310
f 305 309 310
f 305 310 306
f 306 310 311
f 306 311 307
f 307 311 312
f 307 312 308
f 308 312 309
f 308 309 305
f 313 314 315
f 313 315 316
f 317 320 319
f 317 319 318
f 313 317 318
f 313 318 314
f 314 318 319
f 314 319 315
f 315 319 320
f 315 320 316
f 316 320 317
f 316 317 313
f 321 322 323
f 321 323 324
f 325 328 327
f 325 327 326
f 321 325 326
f 321 326 322
f 322 326 327
f 322 327 323
f 323 327 328
f 323 328 324
f 324 328 325
f 324 325 321
f 329 330 331
f 329 331 332
f 333 336 335
f 333 335 334
f 329 333 334
f 329 334 330
f 330 334 335
f 330 335 331
f 331 335 336
f 331 336 332
f 332 336 333
f 332 333 329
f 337 338 339
f 337 339 340
f 341 344 343
f 341 343 342
f 337 341 342
f 337 342 338
f 338 342 343
f 338 343 339
f 339 343 344
f 339 344 340
f 340 344 341
f 340 341 337
f 345 346 347
f 345 347 348
f 349 352 351
f 349 351 350
f 345 349 350
f 345 350 346
f 346 350 351
f 346 351 347
f 347 351 352
f 347 352 348
f 348 352 349
f 348 349 345
f 353 354 355
f 353 355 356
f 357 360 359
f 357 359 358
f 353 357 358
f 353 358 354
f 354 358 359
f 354 359 355
f 355 359 360
f 355 360 356
f 356 360 357
f 356 357 353
f 361 362 363
f 361 363 364
f 365 368 367
f 365 367 366
f 361 365 366
f 361 366 362
f 362 366 367
f 362 367 363
f 363 367 368
f 363 368 364
f 364 368 365
f 364 365 361
f 369 370 371
f 369 371 372
f 373 376 375
f 373 375 374
f 369 373 374
f 369 374 370
f 370 374 375
f 370 375 371
f 371 375 376
f 371 376 372
f 372 376 373
f 372 373 369
f 377 378 379
f 377 379 380
f 381 384 383
f 381 383 382
f 377 381 382
f 377 382 378
f 378 382 383
f 378 383 379
f 379 383 384
f 379 384 380
f 380 384 381
f 380 381 377
f 385 386 387
f 385 387 388
f 389 392 391
f 389 391 390
f 385 389 390
f 385 390 386
f 386 390 391
f 386 391 387
f 387 391 392
f 387 392 388
f 388 392 389
f 388 389 385
f 393 394 395
f 393 395 396
f 397 400 399
f 397 399 398
f 393 397 398
f 393 398 394
f 394 398 399
f 394 399 395
f 395 399 400
f 395 400 396
f 396 400 397
f 396 397 393
f 401 402 403
f 401 403 404
f 405 408 407
f 405 407 406
f 401 405 406
f 401 406 402
f 402 406 407
f 402 407 403
f 403 407 408
f 403 408 404
f 404 408 405
f 404 405 401
f 409 410 411
f 409 411 412
f 413 416 415
f 413 415 414
f 409 413 414
f 409 414 410
f 410 414 415
f 410 415 411
f 411 415 416
f 411 416 412
f 412 416 413
f 412 413 409
f 417 418 419
f 417 419 420
f 421 424 423
f 421 423 422
f 417 421 422
f 417 422 418
f 418 422 423
f 418 423 419
f 419 423 424
f 419 424 420
f 420 424 421
f 420 421 417
f 425 426 427
f 425 427 428
f 429 432 431
f 429 431 430
f 425 429 430
f 425 430 426
f 426 430 431
f 426 431 427
f 427 431 432
f 427 432 428
f 428 432 429
f 428 429 425
f 433 434 435
f 433 435 436
f 437 440 439
f 437 439 438
f 433 437 438
f 433 438 434
f 434 438 439
f 434 439 435
f 435 439 440
f 435 440 436
f 436 440 437
f 436 437 433
f 441 442 443
f 441 443 444
f 445 448 447
f 445 447 446
f 441 445 446
f 441 446 442
f 442 446 447
f 442 447 443
f 443 447 448
f 443 448 444
f 444 448 445
f 444 445 441
f 449 450 451
f 449 451 452
f 453 456 455
f 453 455 454
f 449 453 454
f 449 454 450
f 450 454 455
f 450 455 451
f 451 455 456
f 451 456 452
f 452 456 453
f 452 453 449
f 457 458 459
f 457 459 460
f 461 464 463
f 461 463 462
f 457 461 462
f 457 462 458
f 458 462 463
f 458 463 459
f 459 463 464
f 459 464 460
f 460 464 461
f 460 461 457
f 465 466 467
f 465 467 468
f 469 472 471
f 469 471 470
f 465 469 470
f 465 470 466
f 466 470 471
f 466 471 467
f 467 471 472
f 467 472 468
f 468 472 469
f 468 469 465
f 473 474 475
f 473 475 476
f 477 480 479
f 477 479 478
f 473 477 478
f 473 478 474
f 474 478 479
f 474 479 475
f 475 479 480
f 475 480 476
f 476 480 477
f 476 477 473
f 481 482 483
f 481 483 484
f 485 488 487
f 485 487 486
f 481 485 486
f 481 486 482
f 482 486 487
f 482 487 483
f 483 487 488
f 483 488 484
f 484 488 485
f 484 485 481
f 489 490 491
f 489 491 492
f 493 496 495
f 493 495 494
f 489 493 494
f 489 494 490
f 490 494 495
f 490 495 491
f 491 495 496
f 491 496 492
f 492 496 493
f 492 493 489
f 497 498 499
f 497 499 500
f 501 504 503
f 501 503 502
f 497 501 502
f 497 502 498
f 498 502 503
f 498 503 499
f 499 503 504
f 499 504 500
f 500 504 501
f 500 501 497
f 505 506 507
f 505 507 508
f 509 512 511
f 509 511 510
f 505 509 510
f 505 510 506
f 506 510 511
f 506 511 507
f 507 511 512
f 507 512 508
f 508 512 509
f 508 509 505
f 513 514 515
f 513 515 516
f 517 520 519
f 517 519 518
f 513 517 518
f 513 518 514
f 514 518 519
f 514 519 515
f 515 519 520
f 515 520 516
f 516 520 517
f 516 517 513
f 521 522 523
f 521 523 524
f 525 528 527
f 525 527 526
f 521 525 526
f 521 526 522
f 522 526 527
f 522 527 523
f 523 527 528
f 523 528 524
f 524 528 525
f 524 525 521
f 529 530 531
f 529 531 532
f 533 536 535
f 533 535 534
f 529 533 534
f 529 534 530
f 530 534 535
f 530 535 531
f 531 535 536
f 531 536 532
f 532 536 533
f 532 533 529
f 537 538 539
f 537 539 540
f 541 544 543
f 541 543 542
f 537 541 542
f 537 542 538
f 538 542 543
f 538 543 539
f 539 543 544
f 539 544 540
f 540 544 541
f 540 541 537
f 545 546 547
f 545 547 548
f 549 552 551
f 549 551 550
f 545 549 550
f 545 550 546
f 546 550 551
f 546 551 547
f 547 551 552
f 547 552 548
f 548 552 549
f 548 549 545
f 553 554 555
f 553 555 556
f 557 560 559
f 557 559 558
f 553 557 558
f 553 558 554
f 554 558 559
f 554 559 555
f 555 559 560
f 555 560 556
f 556 560 557
f 556 557 553
f 561 562 563
f 561 563 564
f 565 568 567
f 565 567 566
f 561 565 566
f 561 566 562
f 562 566 567
f 562 567 563
f 563 567 568
f 563 568 564
f 564 568 565
f 564 565 561
f 569 570 571
f 569 571 572
f 573 576 575
f 573 575 574
f 569 573 574
f 569 574 570
f 570 574 575
f 570 575 571
f 571 575 576
f 571 576 572
f 572 576 573
f 572 573 569
f 577 578 579
f 577 579 580
f 581 584 583
f 581 583 582
f 577 581 582
f 577 582 578
f 578 582 583
f 578 583 579
f 579 583 584
f 579 584 580
f 580 584 581
f 580 581 577
f 585 586 587
f 585 587 588
f 589 592 591
f 589 591 590
f 585 589 590
f 585 590 586
f 586 590 591
f 586 591 587
f 587 591 592
f 587 592 588
f 588 592 589
f 588 589 585
f 593 594 595
f 593 595 596
f 597 600 599
f 597 599 598
f 593 597 598
f 593 598 594
f 594 598 599
f 594 599 595
f 595 599 600
f 595 600 596
f 596 600 597
f 596 597 593
f 601 602 603
f 601 603 604
f 605 608 607
f 605 607 606
f 601 605 606
f 601 606 602
f 602 606 607
f 602 607 603
f 603 607 608
f 603 608 604
f 604 608 605
f 604 605 601
f 609 610 611
f 609 611 612
f 613 616 615
f 613 615 614
f 609 613 614
f 609 614 610
f 610 614 615
f 610 615 611
f 611 615 616
f 611 616 612
f 612 616 613
f 612 613 609
f 617 618 619
f 617 619 620
f 621 624 623
f 621 623 622
f 617 621 622
f 617 622 618
f 618 622 623
f 618 623 619
f 619 623 624
f 619 624 620
f 620 624 621
f 620 621 617
f 625 626 627
f 625 627 628
f 629 632 631
f 629 631 630
f 625 629 630
f 625 630 626
f 626 630 631
f 626 631 627
f 627 631 632
f 627 632 628
f 628 632 629
f 628 629 625
f 633 634 635
f 633 635 636
f 637 640 639
f 637 639 638
f 633 637 638
f 633 638 634
f 634 638 639
f 634 639 635
f 635 639 640
f 635 640 636
f 636 640 637
f 636 637 633
f 641 642 643
f 641 643 644
f 645 648 647
f 645 647 646
f 641 645 646
f 641 646 642
f 642 646 647
f 642 647 643
f 643 647 648
f 643 648 644
f 644 648 645
f 644 645 641
f 649 650 651
f 649 651 652
f 653 656 655
f 653 655 654
f 649 653 654
f 649 654 650
f 650 654 655
f 650 655 651
f 651 655 656
f 651 656 652
f 652 656 653
f 652 653 649
f 657 658 659
f 657 659 660
f 661 664 663
f 661 663 662
f 657 661 662
f 657 662 658
f 658 662 663
f 658 663 659
f 659 663 664
f 659 664 660
f 660 664 661
f 660 661 657
f 665 666 667
f 665 667 668
f 669 672 671
f 669 671 670
f 665 669 670
f 665 670 666
f 666 670 671
f 666 671 667
f 667 671 672
f 667 672 668
f 668 672 669
f 668 669 665
f 673 674 675
f 673 675 676
f 677 680 679
f 677 679 678
f 673 677 678
f 673 678 674
f 674 678 679
f 674 679 675
f 675 679 680
f 675 680 676
f 676 680 677
f 676 677 673
f 681 682 683
f 681 683 684
f 685 688 687
f 685 687 686
f 681 685 686
f 681 686 682
f 682 686 687
f 682 687 683
f 683 687 688
f 683 688 684
f 684 688 685
f 684 685 681
f 689 690 691
f 689 691 692
f 693 696 695
f 693 695 694
f 689 693 694
f 689 694 690
f 690 694 695
f 690 695 691
f 691 695 696
f 691 696 692
f 692 696 693
f 692 693 689
f 697 698 699
f 697 699 700
f 701 704 703
f 701 703 702
f 697 701 702
f 697 702 698
f 698 702 703
f 698 703 699
f 699 703 704
f 699 704 700
f 700 704 701
f 700 701 697
f 705 706 707
f 705 707 708
f 709 712 711
f 709 711 710
f 705 709 710
f 705 710 706
f 706 710 711
f 706 711 707
f 707 711 712
f 707 712 708
f 708 712 709
f 708 709 705
f 713 714 715
f 713 715 716
f 717 720 719
f 717 719 718
f 713 717 718
f 713 718 714
f 714 718 719
f 714 719 715
f 715 719 720
f 715 720 716
f 716 720 717
f 716 717 713
f 721 722 723
f 721 723 724
f 725 728 727
f 725 727 726
f 721 725 726
f 721 726 722
f 722 726 727
f 722 727 723
f 723 727 728
f 723 728 724
f 724 728 725
f 724 725 721
f 729 730 731
f 729 731 732
f 733 736 735
f 733 735 734
f 729 733 734
f 729 734 730
f 730 734 735
f 730 735 731
f 731 735 736
f 731 736 732
f 732 736 733
f 732 733 729
f 737 738 739
f 737 739 740
f 741 744 743
f 741 743 742
f 737 741 742
f 737 742 738
f 738 742 743
f 738 743 739
f 739 743 744
f 739 744 740
f 740 744 741
f 740 741 737
f 745 746 747
f 745 747 748
f 749 752 751
f 749 751 750
f 745 749 750
f 745 750 746
f 746 750 751
f 746 751 747
f 747 751 752
f 747 752 748
f 748 752 749
f 748 749 745
f 753 754 755
f 753 755 756
f 757 760 759
f 757 759 758
f 753 757 758
f 753 758 754
f 754 758 759
f 754 759 755
f 755 759 760
f 755 760 756
f 756 760 757
f 756 757 753
