o [4B] 3D Diagram - S2-07 Group A_74
v -232.500000 -257.500000 117.423417
v -226.692194 -257.500000 100.000000
v -227.267348 -254.980088 100.000000
v -228.878892 -252.959275 100.000000
v -231.207642 -251.837808 100.000000
v -233.792358 -251.837808 100.000000
v -236.121108 -252.959275 100.000000
v -237.732652 -254.980088 100.000000
v -238.307806 -257.500000 100.000000
v -237.732652 -260.019912 100.000000
v -236.121108 -262.040725 100.000000
v -233.792358 -263.162192 100.000000
v -231.207642 -263.162192 100.000000
v -228.878892 -262.040725 100.000000
v -227.267348 -260.019912 100.000000
v -232.500000 -257.500000 100.000000
f 1 2 3
f 1 3 4
f 1 4 5
f 1 5 6
f 1 6 7
f 1 7 8
f 1 8 9
f 1 9 10
f 1 10 11
f 1 11 12
f 1 12 13
f 1 13 14
f 1 14 15
f 1 15 2
f 16 3 2
f 16 4 3
f 16 5 4
f 16 6 5
f 16 7 6
f 16 8 7
f 16 9 8
f 16 10 9
f 16 11 10
f 16 12 11
f 16 13 12
f 16 14 13
f 16 15 14
f 16 2 15
