o [4B] 3D Diagram - S2-07 Group A_71
v -290.000000 -200.000000 17.423417
v -284.192194 -200.000000 0.000000
v -284.767348 -197.480088 0.000000
v -286.378892 -195.459275 0.000000
v -288.707642 -194.337808 0.000000
v -291.292358 -194.337808 0.000000
v -293.621108 -195.459275 0.000000
v -295.232652 -197.480088 0.000000
v -295.807806 -200.000000 0.000000
v -295.232652 -202.519912 0.000000
v -293.621108 -204.540725 0.000000
v -291.292358 -205.662192 0.000000
v -288.707642 -205.662192 0.000000
v -286.378892 -204.540725 0.000000
v -284.767348 -202.519912 0.000000
v -290.000000 -200.000000 0.000000
f 1 2 3
f 1 3 4
f 1 4 5
f 1 5 6
f 1 6 7
f 1 7 8
f 1 8 9
f 1 9 10
f 1 10 11
f 1 11 12
f 1 12 13
f 1 13 14
f 1 14 15
f 1 15 2
f 16 3 2
f 16 4 3
f 16 5 4
f 16 6 5
f 16 7 6
f 16 8 7
f 16 9 8
f 16 10 9
f 16 11 10
f 16 12 11
f 16 13 12
f 16 14 13
f 16 15 14
f 16 2 15
