o [4B] 3D Diagram - S2-07 Group A_91
v -175.000000 -350.000000 17.423417
v -169.192194 -350.000000 0.000000
v -169.767348 -347.480088 0.000000
v -171.378892 -345.459275 0.000000
v -173.707642 -344.337808 0.000000
v -176.292358 -344.337808 0.000000
v -178.621108 -345.459275 0.000000
v -180.232652 -347.480088 0.000000
v -180.807806 -350.000000 0.000000
v -180.232652 -352.519912 0.000000
v -178.621108 -354.540725 0.000000
v -176.292358 -355.662192 0.000000
v -173.707642 -355.662192 0.000000
v -171.378892 -354.540725 0.000000
v -169.767348 -352.519912 0.000000
v -175.000000 -350.000000 0.000000
f 1 2 3
f 1 3 4
f 1 4 5
f 1 5 6
f 1 6 7
f 1 7 8
f 1 8 9
f 1 9 10
f 1 10 11
f 1 11 12
f 1 12 13
f 1 13 14
f 1 14 15
f 1 15 2
f 16 3 2
f 16 4 3
f 16 5 4
f 16 6 5
f 16 7 6
f 16 8 7
f 16 9 8
f 16 10 9
f 16 11 10
f 16 12 11
f 16 13 12
f 16 14 13
f 16 15 14
f 16 2 15
