o [4B] 3D Diagram - S2-06 Group F_230
v -80.000000 -63.000000 211.000000
v -75.416667 -63.000000 201.833333
v -70.833333 -63.000000 192.666667
v -66.250000 -63.000000 183.500000
v -61.666667 -63.000000 174.333333
v -57.083333 -63.000000 165.166667
v -52.500000 -63.000000 156.000000
v -47.916667 -63.000000 146.833333
v -43.333333 -63.000000 137.666667
v -38.750000 -63.000000 128.500000
v -34.166667 -63.000000 119.333333
v -29.583333 -63.000000 110.166667
v -25.000000 -63.000000 101.000000
v -20.416667 -63.000000 91.833333
v -15.833333 -63.000000 82.666667
v -11.250000 -63.000000 73.500000
v -6.666667 -63.000000 64.333333
v -2.083333 -63.000000 55.166667
v 2.500000 -63.000000 46.000000
v 7.083333 -63.000000 36.833333
v 11.666667 -63.000000 27.666667
v 16.250000 -63.000000 18.500000
v 20.833333 -63.000000 9.333333
v 25.416667 -63.000000 0.166667
v 30.000000 -63.000000 -9.000000
v -80.000000 -58.666667 211.000000
v -75.416667 -58.666667 201.833333
v -70.833333 -58.666667 192.666667
v -66.250000 -58.666667 183.500000
v -61.666667 -58.666667 174.333333
v -57.083333 -58.666667 165.166667
v -52.500000 -58.666667 156.000000
v -47.916667 -58.666667 146.833333
v -43.333333 -58.666667 137.666667
v -38.750000 -58.666667 128.500000
v -34.166667 -58.666667 119.333333
v -29.583333 -58.666667 110.166667
v -25.000000 -58.666667 101.000000
v -20.416667 -58.666667 91.833333
v -15.833333 -58.666667 82.666667
v -11.250000 -58.666667 73.500000
v -6.666667 -58.666667 64.333333
v -2.083333 -58.666667 55.166667
v 2.500000 -58.666667 46.000000
v 7.083333 -58.666667 36.833333
v 11.666667 -58.666667 27.666667
v 16.250000 -58.666667 18.500000
v 20.833333 -58.666667 9.333333
v 25.416667 -58.666667 0.166667
v 30.000000 -58.666667 -9.000000
v -80.000000 -54.333333 211.000000
v -75.416667 -54.333333 201.833333
v -70.833333 -54.333333 192.666667
v -66.250000 -54.333333 183.500000
v -61.666667 -54.333333 174.333333
v -57.083333 -54.333333 165.166667
v -52.500000 -54.333333 156.000000
v -47.916667 -54.333333 146.833333
v -43.333333 -54.333333 137.666667
v -38.750000 -54.333333 128.500000
v -34.166667 -54.333333 119.333333
v -29.583333 -54.333333 110.166667
v -25.000000 -54.333333 101.000000
v -20.416667 -54.333333 91.833333
v -15.833333 -54.333333 82.666667
v -11.250000 -54.333333 73.500000
v -6.666667 -54.333333 64.333333
v -2.083333 -54.333333 55.166667
v 2.500000 -54.333333 46.000000
v 7.083333 -54.333333 36.833333
v 11.666667 -54.333333 27.666667
v 16.250000 -54.333333 18.500000
v 20.833333 -54.333333 9.333333
v 25.416667 -54.333333 0.166667
v 30.000000 -54.333333 -9.000000
v -80.000000 -50.000000 211.000000
v -75.416667 -50.000000 201.833333
v -70.833333 -50.000000 192.666667
v -66.250000 -50.000000 183.500000
v -61.666667 -50.000000 174.333333
v -57.083333 -50.000000 165.166667
v -52.500000 -50.000000 156.000000
v -47.916667 -50.000000 146.833333
v -43.333333 -50.000000 137.666667
v -38.750000 -50.000000 128.500000
v -34.166667 -50.000000 119.333333
v -29.583333 -50.000000 110.166667
v -25.000000 -50.000000 101.000000
v -20.416667 -50.000000 91.833333
v -15.833333 -50.000000 82.666667
v -11.250000 -50.000000 73.500000
v -6.666667 -50.000000 64.333333
v -2.083333 -50.000000 55.166667
v 2.500000 -50.000000 46.000000
v 7.083333 -50.000000 36.833333
v 11.666667 -50.000000 27.666667
v 16.250000 -50.000000 18.500000
v 20.833333 -50.000000 9.333333
v 25.416667 -50.000000 0.166667
v 30.000000 -50.000000 -9.000000
v -80.000000 -45.666667 211.000000
v -75.416667 -45.666667 201.833333
v -70.833333 -45.666667 192.666667
v -66.250000 -45.666667 183.500000
v -61.666667 -45.666667 174.333333
v -57.083333 -45.666667 165.166667
v -52.500000 -45.666667 156.000000
v -47.916667 -45.666667 146.833333
v -43.333333 -45.666667 137.666667
v -38.750000 -45.666667 128.500000
v -34.166667 -45.666667 119.333333
v -29.583333 -45.666667 110.166667
v -25.000000 -45.666667 101.000000
v -20.416667 -45.666667 91.833333
v -15.833333 -45.666667 82.666667
v -11.250000 -45.666667 73.500000
v -6.666667 -45.666667 64.333333
v -2.083333 -45.666667 55.166667
v 2.500000 -45.666667 46.000000
v 7.083333 -45.666667 36.833333
v 11.666667 -45.666667 27.666667
v 16.250000 -45.666667 18.500000
v 20.833333 -45.666667 9.333333
v 25.416667 -45.666667 0.166667
v 30.000000 -45.666667 -9.000000
v -80.000000 -41.333333 211.000000
v -75.416667 -41.333333 201.833333
v -70.833333 -41.333333 192.666667
v -66.250000 -41.333333 183.500000
v -61.666667 -41.333333 174.333333
v -57.083333 -41.333333 165.166667
v -52.500000 -41.333333 156.000000
v -47.916667 -41.333333 146.833333
v -43.333333 -41.333333 137.666667
v -38.750000 -41.333333 128.500000
v -34.166667 -41.333333 119.333333
v -29.583333 -41.333333 110.166667
v -25.000000 -41.333333 101.000000
v -20.416667 -41.333333 91.833333
v -15.833333 -41.333333 82.666667
v -11.250000 -41.333333 73.500000
v -6.666667 -41.333333 64.333333
v -2.083333 -41.333333 55.166667
v 2.500000 -41.333333 46.000000
v 7.083333 -41.333333 36.833333
v 11.666667 -41.333333 27.666667
v 16.250000 -41.333333 18.500000
v 20.833333 -41.333333 9.333333
v 25.416667 -41.333333 0.166667
v 30.000000 -41.333333 -9.000000
v -80.000000 -37.000000 211.000000
v -75.416667 -37.000000 201.833333
v -70.833333 -37.000000 192.666667
v -66.250000 -37.000000 183.500000
v -61.666667 -37.000000 174.333333
v -57.083333 -37.000000 165.166667
v -52.500000 -37.000000 156.000000
v -47.916667 -37.000000 146.833333
v -43.333333 -37.000000 137.666667
v -38.750000 -37.000000 128.500000
v -34.166667 -37.000000 119.333333
v -29.583333 -37.000000 110.166667
v -25.000000 -37.000000 101.000000
v -20.416667 -37.000000 91.833333
v -15.833333 -37.000000 82.666667
v -11.250000 -37.000000 73.500000
v -6.666667 -37.000000 64.333333
v -2.083333 -37.000000 55.166667
v 2.500000 -37.000000 46.000000
v 7.083333 -37.000000 36.833333
v 11.666667 -37.000000 27.666667
v 16.250000 -37.000000 18.500000
v 20.833333 -37.000000 9.333333
v 25.416667 -37.000000 0.166667
v 30.000000 -37.000000 -9.000000
v -80.000000 -32.666667 211.000000
v -75.416667 -32.666667 201.833333
v -70.833333 -32.666667 192.666667
v -66.250000 -32.666667 183.500000
v -61.666667 -32.666667 174.333333
v -57.083333 -32.666667 165.166667
v -52.500000 -32.666667 156.000000
v -47.916667 -32.666667 146.833333
v -43.333333 -32.666667 137.666667
v -38.750000 -32.666667 128.500000
v -34.166667 -32.666667 119.333333
v -29.583333 -32.666667 110.166667
v -25.000000 -32.666667 101.000000
v -20.416667 -32.666667 91.833333
v -15.833333 -32.666667 82.666667
v -11.250000 -32.666667 73.500000
v -6.666667 -32.666667 64.333333
v -2.083333 -32.666667 55.166667
v 2.500000 -32.666667 46.000000
v 7.083333 -32.666667 36.833333
v 11.666667 -32.666667 27.666667
v 16.250000 -32.666667 18.500000
v 20.833333 -32.666667 9.333333
v 25.416667 -32.666667 0.166667
v 30.000000 -32.666667 -9.000000
v -80.000000 -28.333333 211.000000
v -75.416667 -28.333333 201.833333
v -70.833333 -28.333333 192.666667
v -66.250000 -28.333333 183.500000
v -61.666667 -28.333333 174.333333
v -57.083333 -28.333333 165.166667
v -52.500000 -28.333333 156.000000
v -47.916667 -28.333333 146.833333
v -43.333333 -28.333333 137.666667
v -38.750000 -28.333333 128.500000
v -34.166667 -28.333333 119.333333
v -29.583333 -28.333333 110.166667
v -25.000000 -28.333333 101.000000
v -20.416667 -28.333333 91.833333
v -15.833333 -28.333333 82.666667
v -11.250000 -28.333333 73.500000
v -6.666667 -28.333333 64.333333
v -2.083333 -28.333333 55.166667
v 2.500000 -28.333333 46.000000
v 7.083333 -28.333333 36.833333
v 11.666667 -28.333333 27.666667
v 16.250000 -28.333333 18.500000
v 20.833333 -28.333333 9.333333
v 25.416667 -28.333333 0.166667
v 30.000000 -28.333333 -9.000000
v -80.000000 -24.000000 211.000000
v -75.416667 -24.000000 201.833333
v -70.833333 -24.000000 192.666667
v -66.250000 -24.000000 183.500000
v -61.666667 -24.000000 174.333333
v -57.083333 -24.000000 165.166667
v -52.500000 -24.000000 156.000000
v -47.916667 -24.000000 146.833333
v -43.333333 -24.000000 137.666667
v -38.750000 -24.000000 128.500000
v -34.166667 -24.000000 119.333333
v -29.583333 -24.000000 110.166667
v -25.000000 -24.000000 101.000000
v -20.416667 -24.000000 91.833333
v -15.833333 -24.000000 82.666667
v -11.250000 -24.000000 73.500000
v -6.666667 -24.000000 64.333333
v -2.083333 -24.000000 55.166667
v 2.500000 -24.000000 46.000000
v 7.083333 -24.000000 36.833333
v 11.666667 -24.000000 27.666667
v 16.250000 -24.000000 18.500000
v 20.833333 -24.000000 9.333333
v 25.416667 -24.000000 0.166667
v 30.000000 -24.000000 -9.000000
v -80.000000 -19.666667 211.000000
v -75.416667 -19.666667 201.833333
v -70.833333 -19.666667 192.666667
v -66.250000 -19.666667 183.500000
v -61.666667 -19.666667 174.333333
v -57.083333 -19.666667 165.166667
v -52.500000 -19.666667 156.000000
v -47.916667 -19.666667 146.833333
v -43.333333 -19.666667 137.666667
v -38.750000 -19.666667 128.500000
v -34.166667 -19.666667 119.333333
v -29.583333 -19.666667 110.166667
v -25.000000 -19.666667 101.000000
v -20.416667 -19.666667 91.833333
v -15.833333 -19.666667 82.666667
v -11.250000 -19.666667 73.500000
v -6.666667 -19.666667 64.333333
v -2.083333 -19.666667 55.166667
v 2.500000 -19.666667 46.000000
v 7.083333 -19.666667 36.833333
v 11.666667 -19.666667 27.666667
v 16.250000 -19.666667 18.500000
v 20.833333 -19.666667 9.333333
v 25.416667 -19.666667 0.166667
v 30.000000 -19.666667 -9.000000
v -80.000000 -15.333333 211.000000
v -75.416667 -15.333333 201.833333
v -70.833333 -15.333333 192.666667
v -66.250000 -15.333333 183.500000
v -61.666667 -15.333333 174.333333
v -57.083333 -15.333333 165.166667
v -52.500000 -15.333333 156.000000
v -47.916667 -15.333333 146.833333
v -43.333333 -15.333333 137.666667
v -38.750000 -15.333333 128.500000
v -34.166667 -15.333333 119.333333
v -29.583333 -15.333333 110.166667
v -25.000000 -15.333333 101.000000
v -20.416667 -15.333333 91.833333
v -15.833333 -15.333333 82.666667
v -11.250000 -15.333333 73.500000
v -6.666667 -15.333333 64.333333
v -2.083333 -15.333333 55.166667
v 2.500000 -15.333333 46.000000
v 7.083333 -15.333333 36.833333
v 11.666667 -15.333333 27.666667
v 16.250000 -15.333333 18.500000
v 20.833333 -15.333333 9.333333
v 25.416667 -15.333333 0.166667
v 30.000000 -15.333333 -9.000000
v -80.000000 -11.000000 211.000000
v -75.416667 -11.000000 201.833333
v -70.833333 -11.000000 192.666667
v -66.250000 -11.000000 183.500000
v -61.666667 -11.000000 174.333333
v -57.083333 -11.000000 165.166667
v -52.500000 -11.000000 156.000000
v -47.916667 -11.000000 146.833333
v -43.333333 -11.000000 137.666667
v -38.750000 -11.000000 128.500000
v -34.166667 -11.000000 119.333333
v -29.583333 -11.000000 110.166667
v -25.000000 -11.000000 101.000000
v -20.416667 -11.000000 91.833333
v -15.833333 -11.000000 82.666667
v -11.250000 -11.000000 73.500000
v -6.666667 -11.000000 64.333333
v -2.083333 -11.000000 55.166667
v 2.500000 -11.000000 46.000000
v 7.083333 -11.000000 36.833333
v 11.666667 -11.000000 27.666667
v 16.250000 -11.000000 18.500000
v 20.833333 -11.000000 9.333333
v 25.416667 -11.000000 0.166667
v 30.000000 -11.000000 -9.000000
v -80.000000 -6.666667 211.000000
v -75.416667 -6.666667 201.833333
v -70.833333 -6.666667 192.666667
v -66.250000 -6.666667 183.500000
v -61.666667 -6.666667 174.333333
v -57.083333 -6.666667 165.166667
v -52.500000 -6.666667 156.000000
v -47.916667 -6.666667 146.833333
v -43.333333 -6.666667 137.666667
v -38.750000 -6.666667 128.500000
v -34.166667 -6.666667 119.333333
v -29.583333 -6.666667 110.166667
v -25.000000 -6.666667 101.000000
v -20.416667 -6.666667 91.833333
v -15.833333 -6.666667 82.666667
v -11.250000 -6.666667 73.500000
v -6.666667 -6.666667 64.333333
v -2.083333 -6.666667 55.166667
v 2.500000 -6.666667 46.000000
v 7.083333 -6.666667 36.833333
v 11.666667 -6.666667 27.666667
v 16.250000 -6.666667 18.500000
v 20.833333 -6.666667 9.333333
v 25.416667 -6.666667 0.166667
v 30.000000 -6.666667 -9.000000
v -80.000000 -2.333333 211.000000
v -75.416667 -2.333333 201.833333
v -70.833333 -2.333333 192.666667
v -66.250000 -2.333333 183.500000
v -61.666667 -2.333333 174.333333
v -57.083333 -2.333333 165.166667
v -52.500000 -2.333333 156.000000
v -47.916667 -2.333333 146.833333
v -43.333333 -2.333333 137.666667
v -38.750000 -2.333333 128.500000
v -34.166667 -2.333333 119.333333
v -29.583333 -2.333333 110.166667
v -25.000000 -2.333333 101.000000
v -20.416667 -2.333333 91.833333
v -15.833333 -2.333333 82.666667
v -11.250000 -2.333333 73.500000
v -6.666667 -2.333333 64.333333
v -2.083333 -2.333333 55.166667
v 2.500000 -2.333333 46.000000
v 7.083333 -2.333333 36.833333
v 11.666667 -2.333333 27.666667
v 16.250000 -2.333333 18.500000
v 20.833333 -2.333333 9.333333
v 25.416667 -2.333333 0.166667
v 30.000000 -2.333333 -9.000000
v -80.000000 2.000000 211.000000
v -75.416667 2.000000 201.833333
v -70.833333 2.000000 192.666667
v -66.250000 2.000000 183.500000
v -61.666667 2.000000 174.333333
v -57.083333 2.000000 165.166667
v -52.500000 2.000000 156.000000
v -47.916667 2.000000 146.833333
v -43.333333 2.000000 137.666667
v -38.750000 2.000000 128.500000
v -34.166667 2.000000 119.333333
v -29.583333 2.000000 110.166667
v -25.000000 2.000000 101.000000
v -20.416667 2.000000 91.833333
v -15.833333 2.000000 82.666667
v -11.250000 2.000000 73.500000
v -6.666667 2.000000 64.333333
v -2.083333 2.000000 55.166667
v 2.500000 2.000000 46.000000
v 7.083333 2.000000 36.833333
v 11.666667 2.000000 27.666667
v 16.250000 2.000000 18.500000
v 20.833333 2.000000 9.333333
v 25.416667 2.000000 0.166667
v 30.000000 2.000000 -9.000000
v -80.000000 6.333333 211.000000
v -75.416667 6.333333 201.833333
v -70.833333 6.333333 192.666667
v -66.250000 6.333333 183.500000
v -61.666667 6.333333 174.333333
v -57.083333 6.333333 165.166667
v -52.500000 6.333333 156.000000
v -47.916667 6.333333 146.833333
v -43.333333 6.333333 137.666667
v -38.750000 6.333333 128.500000
v -34.166667 6.333333 119.333333
v -29.583333 6.333333 110.166667
v -25.000000 6.333333 101.000000
v -20.416667 6.333333 91.833333
v -15.833333 6.333333 82.666667
v -11.250000 6.333333 73.500000
v -6.666667 6.333333 64.333333
v -2.083333 6.333333 55.166667
v 2.500000 6.333333 46.000000
v 7.083333 6.333333 36.833333
v 11.666667 6.333333 27.666667
v 16.250000 6.333333 18.500000
v 20.833333 6.333333 9.333333
v 25.416667 6.333333 0.166667
v 30.000000 6.333333 -9.000000
v -80.000000 10.666667 211.000000
v -75.416667 10.666667 201.833333
v -70.833333 10.666667 192.666667
v -66.250000 10.666667 183.500000
v -61.666667 10.666667 174.333333
v -57.083333 10.666667 165.166667
v -52.500000 10.666667 156.000000
v -47.916667 10.666667 146.833333
v -43.333333 10.666667 137.666667
v -38.750000 10.666667 128.500000
v -34.166667 10.666667 119.333333
v -29.583333 10.666667 110.166667
v -25.000000 10.666667 101.000000
v -20.416667 10.666667 91.833333
v -15.833333 10.666667 82.666667
v -11.250000 10.666667 73.500000
v -6.666667 10.666667 64.333333
v -2.083333 10.666667 55.166667
v 2.500000 10.666667 46.000000
v 7.083333 10.666667 36.833333
v 11.666667 10.666667 27.666667
v 16.250000 10.666667 18.500000
v 20.833333 10.666667 9.333333
v 25.416667 10.666667 0.166667
v 30.000000 10.666667 -9.000000
v -80.000000 15.000000 211.000000
v -75.416667 15.000000 201.833333
v -70.833333 15.000000 192.666667
v -66.250000 15.000000 183.500000
v -61.666667 15.000000 174.333333
v -57.083333 15.000000 165.166667
v -52.500000 15.000000 156.000000
v -47.916667 15.000000 146.833333
v -43.333333 15.000000 137.666667
v -38.750000 15.000000 128.500000
v -34.166667 15.000000 119.333333
v -29.583333 15.000000 110.166667
v -25.000000 15.000000 101.000000
v -20.416667 15.000000 91.833333
v -15.833333 15.000000 82.666667
v -11.250000 15.000000 73.500000
v -6.666667 15.000000 64.333333
v -2.083333 15.000000 55.166667
v 2.500000 15.000000 46.000000
v 7.083333 15.000000 36.833333
v 11.666667 15.000000 27.666667
v 16.250000 15.000000 18.500000
v 20.833333 15.000000 9.333333
v 25.416667 15.000000 0.166667
v 30.000000 15.000000 -9.000000
v -80.000000 19.333333 211.000000
v -75.416667 19.333333 201.833333
v -70.833333 19.333333 192.666667
v -66.250000 19.333333 183.500000
v -61.666667 19.333333 174.333333
v -57.083333 19.333333 165.166667
v -52.500000 19.333333 156.000000
v -47.916667 19.333333 146.833333
v -43.333333 19.333333 137.666667
v -38.750000 19.333333 128.500000
v -34.166667 19.333333 119.333333
v -29.583333 19.333333 110.166667
v -25.000000 19.333333 101.000000
v -20.416667 19.333333 91.833333
v -15.833333 19.333333 82.666667
v -11.250000 19.333333 73.500000
v -6.666667 19.333333 64.333333
v -2.083333 19.333333 55.166667
v 2.500000 19.333333 46.000000
v 7.083333 19.333333 36.833333
v 11.666667 19.333333 27.666667
v 16.250000 19.333333 18.500000
v 20.833333 19.333333 9.333333
v 25.416667 19.333333 0.166667
v 30.000000 19.333333 -9.000000
v -80.000000 23.666667 211.000000
v -75.416667 23.666667 201.833333
v -70.833333 23.666667 192.666667
v -66.250000 23.666667 183.500000
v -61.666667 23.666667 174.333333
v -57.083333 23.666667 165.166667
v -52.500000 23.666667 156.000000
v -47.916667 23.666667 146.833333
v -43.333333 23.666667 137.666667
v -38.750000 23.666667 128.500000
v -34.166667 23.666667 119.333333
v -29.583333 23.666667 110.166667
v -25.000000 23.666667 101.000000
v -20.416667 23.666667 91.833333
v -15.833333 23.666667 82.666667
v -11.250000 23.666667 73.500000
v -6.666667 23.666667 64.333333
v -2.083333 23.666667 55.166667
v 2.500000 23.666667 46.000000
v 7.083333 23.666667 36.833333
v 11.666667 23.666667 27.666667
v 16.250000 23.666667 18.500000
v 20.833333 23.666667 9.333333
v 25.416667 23.666667 0.166667
v 30.000000 23.666667 -9.000000
v -80.000000 28.000000 211.000000
v -75.416667 28.000000 201.833333
v -70.833333 28.000000 192.666667
v -66.250000 28.000000 183.500000
v -61.666667 28.000000 174.333333
v -57.083333 28.000000 165.166667
v -52.500000 28.000000 156.000000
v -47.916667 28.000000 146.833333
v -43.333333 28.000000 137.666667
v -38.750000 28.000000 128.500000
v -34.166667 28.000000 119.333333
v -29.583333 28.000000 110.166667
v -25.000000 28.000000 101.000000
v -20.416667 28.000000 91.833333
v -15.833333 28.000000 82.666667
v -11.250000 28.000000 73.500000
v -6.666667 28.000000 64.333333
v -2.083333 28.000000 55.166667
v 2.500000 28.000000 46.000000
v 7.083333 28.000000 36.833333
v 11.666667 28.000000 27.666667
v 16.250000 28.000000 18.500000
v 20.833333 28.000000 9.333333
v 25.416667 28.000000 0.166667
v 30.000000 28.000000 -9.000000
v -80.000000 32.333333 211.000000
v -75.416667 32.333333 201.833333
v -70.833333 32.333333 192.666667
v -66.250000 32.333333 183.500000
v -61.666667 32.333333 174.333333
v -57.083333 32.333333 165.166667
v -52.500000 32.333333 156.000000
v -47.916667 32.333333 146.833333
v -43.333333 32.333333 137.666667
v -38.750000 32.333333 128.500000
v -34.166667 32.333333 119.333333
v -29.583333 32.333333 110.166667
v -25.000000 32.333333 101.000000
v -20.416667 32.333333 91.833333
v -15.833333 32.333333 82.666667
v -11.250000 32.333333 73.500000
v -6.666667 32.333333 64.333333
v -2.083333 32.333333 55.166667
v 2.500000 32.333333 46.000000
v 7.083333 32.333333 36.833333
v 11.666667 32.333333 27.666667
v 16.250000 32.333333 18.500000
v 20.833333 32.333333 9.333333
v 25.416667 32.333333 0.166667
v 30.000000 32.333333 -9.000000
v -80.000000 36.666667 211.000000
v -75.416667 36.666667 201.833333
v -70.833333 36.666667 192.666667
v -66.250000 36.666667 183.500000
v -61.666667 36.666667 174.333333
v -57.083333 36.666667 165.166667
v -52.500000 36.666667 156.000000
v -47.916667 36.666667 146.833333
v -43.333333 36.666667 137.666667
v -38.750000 36.666667 128.500000
v -34.166667 36.666667 119.333333
v -29.583333 36.666667 110.166667
v -25.000000 36.666667 101.000000
v -20.416667 36.666667 91.833333
v -15.833333 36.666667 82.666667
v -11.250000 36.666667 73.500000
v -6.666667 36.666667 64.333333
v -2.083333 36.666667 55.166667
v 2.500000 36.666667 46.000000
v 7.083333 36.666667 36.833333
v 11.666667 36.666667 27.666667
v 16.250000 36.666667 18.500000
v 20.833333 36.666667 9.333333
v 25.416667 36.666667 0.166667
v 30.000000 36.666667 -9.000000
v -80.000000 41.000000 211.000000
v -75.416667 41.000000 201.833333
v -70.833333 41.000000 192.666667
v -66.250000 41.000000 183.500000
v -61.666667 41.000000 174.333333
v -57.083333 41.000000 165.166667
v -52.500000 41.000000 156.000000
v -47.916667 41.000000 146.833333
v -43.333333 41.000000 137.666667
v -38.750000 41.000000 128.500000
v -34.166667 41.000000 119.333333
v -29.583333 41.000000 110.166667
v -25.000000 41.000000 101.000000
v -20.416667 41.000000 91.833333
v -15.833333 41.000000 82.666667
v -11.250000 41.000000 73.500000
v -6.666667 41.000000 64.333333
v -2.083333 41.000000 55.166667
v 2.500000 41.000000 46.000000
v 7.083333 41.000000 36.833333
v 11.666667 41.000000 27.666667
v 16.250000 41.000000 18.500000
v 20.833333 41.000000 9.333333
v 25.416667 41.000000 0.166667
v 30.000000 41.000000 -9.000000
f 41 42 67
f 41 67 66
f 42 43 68
f 42 68 67
f 43 44 69
f 43 69 68
f 44 45 70
f 44 70 69
f 66 67 92
f 66 92 91
f 67 68 93
f 67 93 92
f 68 69 94
f 68 94 93
f 69 70 95
f 69 95 94
f 91 92 117
f 91 117 116
f 92 93 118
f 92 118 117
f 93 94 119
f 93 119 118
f 94 95 120
f 94 120 119
f 116 117 142
f 116 142 141
f 117 118 143
f 117 143 142
f 118 119 144
f 118 144 143
f 119 120 145
f 119 145 144
f 141 142 167
f 141 167 166
f 142 143 168
f 142 168 167
f 143 144 169
f 143 169 168
f 144 145 170
f 144 170 169
f 166 167 192
f 166 192 191
f 167 168 193
f 167 193 192
f 168 169 194
f 168 194 193
f 169 170 195
f 169 195 194
f 191 192 217
f 191 217 216
f 192 193 218
f 192 218 217
f 193 194 219
f 193 219 218
f 194 195 220
f 194 220 219
f 216 217 242
f 216 242 241
f 217 218 243
f 217 243 242
f 218 219 244
f 218 244 243
f 219 220 245
f 219 245 244
f 241 242 267
f 241 267 266
f 242 243 268
f 242 268 267
f 243 244 269
f 243 269 268
f 244 245 270
f 244 270 269
f 266 267 292
f 266 292 291
f 267 268 293
f 267 293 292
f 268 269 294
f 268 294 293
f 269 270 295
f 269 295 294
f 291 292 317
f 291 317 316
f 292 293 318
f 292 318 317
f 293 294 319
f 293 319 318
f 294 295 320
f 294 320 319
f 316 317 342
f 316 342 341
f 317 318 343
f 317 343 342
f 318 319 344
f 318 344 343
f 319 320 345
f 319 345 344
f 341 342 367
f 341 367 366
f 342 343 368
f 342 368 367
f 343 344 369
f 343 369 368
f 344 345 370
f 344 370 369
f 366 367 392
f 366 392 391
f 367 368 393
f 367 393 392
f 368 369 394
f 368 394 393
f 369 370 395
f 369 395 394
f 391 392 417
f 391 417 416
f 392 393 418
f 392 418 417
f 393 394 419
f 393 419 418
f 394 395 420
f 394 420 419
f 416 417 442
f 416 442 441
f 417 418 443
f 417 443 442
f 418 419 444
f 418 444 443
f 419 420 445
f 419 445 444
f 441 442 467
f 441 467 466
f 442 443 468
f 442 468 467
f 443 444 469
f 443 469 468
f 444 445 470
f 444 470 469
f 466 467 492
f 466 492 491
f 467 468 493
f 467 493 492
f 468 469 494
f 468 494 493
f 469 470 495
f 469 495 494
f 491 492 517
f 491 517 516
f 492 493 518
f 492 518 517
f 493 494 519
f 493 519 518
f 494 495 520
f 494 520 519
f 516 517 542
f 516 542 541
f 517 518 543
f 517 543 542
f 518 519 544
f 518 544 543
f 519 520 545
f 519 545 544
f 541 542 567
f 541 567 566
f 542 543 568
f 542 568 567
f 543 544 569
f 543 569 568
f 544 545 570
f 544 570 569
f 566 567 592
f 566 592 591
f 567 568 593
f 567 593 592
f 568 569 594
f 568 594 593
f 569 570 595
f 569 595 594
