o [4B] 3D Diagram - S2-07 Group E_74
v 8.070473 12.494767 0.112750
v 8.070473 12.579456 0.112750
v 8.070473 12.579456 0.389500
v 8.070473 12.494767 0.389500
v 8.189193 12.494767 0.112750
v 8.189193 12.494767 0.389500
v 8.189193 12.579456 0.112750
v 8.070473 12.579456 0.666250
v 8.070473 12.494767 0.666250
v 8.189193 12.494767 0.666250
v 8.070473 12.579456 0.943000
v 8.070473 12.494767 0.943000
v 8.189193 12.494767 0.943000
v 8.070473 12.579456 1.219750
v 8.070473 12.494767 1.219750
v 8.189193 12.494767 1.219750
v 8.070473 12.579456 1.496500
v 8.070473 12.494767 1.496500
v 8.189193 12.494767 1.496500
v 8.070473 12.579456 1.773250
v 8.070473 12.494767 1.773250
v 8.189193 12.494767 1.773250
v 8.070473 12.579456 2.050000
v 8.070473 12.494767 2.050000
v 8.189193 12.494767 2.050000
v 8.070473 12.579456 2.326750
v 8.070473 12.494767 2.326750
v 8.189193 12.494767 2.326750
v 8.070473 12.579456 2.603500
v 8.070473 12.494767 2.603500
v 8.189193 12.494767 2.603500
v 8.070473 12.579456 2.880250
v 8.070473 12.494767 2.880250
v 8.189193 12.494767 2.880250
v 8.070473 12.579456 3.157000
v 8.070473 12.494767 3.157000
v 8.189193 12.494767 3.157000
v 8.070473 12.579456 3.433750
v 8.070473 12.494767 3.433750
v 8.189193 12.494767 3.433750
v 8.070473 12.579456 3.710500
v 8.070473 12.494767 3.710500
v 8.189193 12.494767 3.710500
v 8.070473 12.579456 3.987250
v 8.070473 12.494767 3.987250
v 8.189193 12.494767 3.987250
v 8.189193 12.579456 3.987250
v 8.070473 12.664145 0.112750
v 8.070473 12.664145 0.389500
v 8.189193 12.664145 0.112750
v 8.070473 12.664145 0.666250
v 8.070473 12.664145 0.943000
v 8.070473 12.664145 1.219750
v 8.070473 12.664145 1.496500
v 8.070473 12.664145 1.773250
v 8.070473 12.664145 2.050000
v 8.070473 12.664145 2.326750
v 8.070473 12.664145 2.603500
v 8.070473 12.664145 2.880250
v 8.070473 12.664145 3.157000
v 8.070473 12.664145 3.433750
v 8.070473 12.664145 3.710500
v 8.070473 12.664145 3.987250
v 8.189193 12.664145 3.987250
v 8.070473 12.748834 0.112750
v 8.070473 12.748834 0.389500
v 8.189193 12.748834 0.389500
v 8.189193 12.748834 0.112750
v 8.070473 12.748834 0.666250
v 8.189193 12.748834 0.666250
v 8.070473 12.748834 0.943000
v 8.189193 12.748834 0.943000
v 8.070473 12.748834 1.219750
v 8.189193 12.748834 1.219750
v 8.070473 12.748834 1.496500
v 8.189193 12.748834 1.496500
v 8.070473 12.748834 1.773250
v 8.189193 12.748834 1.773250
v 8.070473 12.748834 2.050000
v 8.189193 12.748834 2.050000
v 8.070473 12.748834 2.326750
v 8.189193 12.748834 2.326750
v 8.070473 12.748834 2.603500
v 8.189193 12.748834 2.603500
v 8.070473 12.748834 2.880250
v 8.189193 12.748834 2.880250
v 8.070473 12.748834 3.157000
v 8.189193 12.748834 3.157000
v 8.070473 12.748834 3.433750
v 8.189193 12.748834 3.433750
v 8.070473 12.748834 3.710500
v 8.189193 12.748834 3.710500
v 8.070473 12.748834 3.987250
v 8.189193 12.748834 3.987250
v 8.189193 12.410078 0.112750
v 8.189193 12.410078 0.389500
v 8.307913 12.410078 0.112750
v 8.307913 12.410078 0.389500
v 8.307913 12.494767 0.112750
v 8.189193 12.410078 0.666250
v 8.307913 12.410078 0.666250
v 8.189193 12.410078 0.943000
v 8.307913 12.410078 0.943000
v 8.189193 12.410078 1.219750
v 8.307913 12.410078 1.219750
v 8.189193 12.410078 1.496500
v 8.307913 12.410078 1.496500
v 8.189193 12.410078 1.773250
v 8.307913 12.410078 1.773250
v 8.189193 12.410078 2.050000
v 8.307913 12.410078 2.050000
v 8.189193 12.410078 2.326750
v 8.307913 12.410078 2.326750
v 8.189193 12.410078 2.603500
v 8.307913 12.410078 2.603500
v 8.189193 12.410078 2.880250
v 8.307913 12.410078 2.880250
v 8.189193 12.410078 3.157000
v 8.307913 12.410078 3.157000
v 8.189193 12.410078 3.433750
v 8.307913 12.410078 3.433750
v 8.189193 12.410078 3.710500
v 8.307913 12.410078 3.710500
v 8.189193 12.410078 3.987250
v 8.307913 12.410078 3.987250
v 8.307913 12.494767 3.987250
v 8.307913 12.579456 0.112750
v 8.307913 12.579456 3.987250
v 8.307913 12.664145 0.112750
v 8.307913 12.664145 3.987250
v 8.307913 12.748834 0.112750
v 8.307913 12.748834 3.987250
v 8.189193 12.833523 0.112750
v 8.189193 12.833523 0.389500
v 8.307913 12.833523 0.112750
v 8.189193 12.833523 0.666250
v 8.189193 12.833523 0.943000
v 8.189193 12.833523 1.219750
v 8.189193 12.833523 1.496500
v 8.189193 12.833523 1.773250
v 8.189193 12.833523 2.050000
v 8.189193 12.833523 2.326750
v 8.189193 12.833523 2.603500
v 8.189193 12.833523 2.880250
v 8.189193 12.833523 3.157000
v 8.189193 12.833523 3.433750
v 8.189193 12.833523 3.710500
v 8.189193 12.833523 3.987250
v 8.307913 12.833523 3.987250
v 8.189193 12.918212 0.112750
v 8.189193 12.918212 0.389500
v 8.307913 12.918212 0.389500
v 8.307913 12.918212 0.112750
v 8.189193 12.918212 0.666250
v 8.307913 12.918212 0.666250
v 8.189193 12.918212 0.943000
v 8.307913 12.918212 0.943000
v 8.189193 12.918212 1.219750
v 8.307913 12.918212 1.219750
v 8.189193 12.918212 1.496500
v 8.307913 12.918212 1.496500
v 8.189193 12.918212 1.773250
v 8.307913 12.918212 1.773250
v 8.189193 12.918212 2.050000
v 8.307913 12.918212 2.050000
v 8.189193 12.918212 2.326750
v 8.307913 12.918212 2.326750
v 8.189193 12.918212 2.603500
v 8.307913 12.918212 2.603500
v 8.189193 12.918212 2.880250
v 8.307913 12.918212 2.880250
v 8.189193 12.918212 3.157000
v 8.307913 12.918212 3.157000
v 8.189193 12.918212 3.433750
v 8.307913 12.918212 3.433750
v 8.189193 12.918212 3.710500
v 8.307913 12.918212 3.710500
v 8.189193 12.918212 3.987250
v 8.307913 12.918212 3.987250
v 8.426633 12.410078 0.112750
v 8.426633 12.410078 0.389500
v 8.426633 12.494767 0.112750
v 8.426633 12.410078 0.666250
v 8.426633 12.410078 0.943000
v 8.426633 12.410078 1.219750
v 8.426633 12.410078 1.496500
v 8.426633 12.410078 1.773250
v 8.426633 12.410078 2.050000
v 8.426633 12.410078 2.326750
v 8.426633 12.410078 2.603500
v 8.426633 12.410078 2.880250
v 8.426633 12.410078 3.157000
v 8.426633 12.410078 3.433750
v 8.426633 12.410078 3.710500
v 8.426633 12.410078 3.987250
v 8.426633 12.494767 3.987250
v 8.426633 12.579456 0.112750
v 8.426633 12.579456 3.987250
v 8.426633 12.664145 0.112750
v 8.426633 12.664145 3.987250
v 8.426633 12.748834 0.112750
v 8.426633 12.748834 3.987250
v 8.426633 12.833523 0.112750
v 8.426633 12.833523 3.987250
v 8.426633 12.918212 0.112750
v 8.426633 12.918212 3.987250
v 8.307913 13.002901 0.112750
v 8.307913 13.002901 0.389500
v 8.426633 13.002901 0.112750
v 8.307913 13.002901 0.666250
v 8.307913 13.002901 0.943000
v 8.307913 13.002901 1.219750
v 8.307913 13.002901 1.496500
v 8.307913 13.002901 1.773250
v 8.307913 13.002901 2.050000
v 8.307913 13.002901 2.326750
v 8.307913 13.002901 2.603500
v 8.307913 13.002901 2.880250
v 8.307913 13.002901 3.157000
v 8.307913 13.002901 3.433750
v 8.307913 13.002901 3.710500
v 8.307913 13.002901 3.987250
v 8.426633 13.002901 3.987250
v 8.307913 13.087590 0.112750
v 8.307913 13.087590 0.389500
v 8.426633 13.087590 0.389500
v 8.426633 13.087590 0.112750
v 8.307913 13.087590 0.666250
v 8.426633 13.087590 0.666250
v 8.307913 13.087590 0.943000
v 8.426633 13.087590 0.943000
v 8.307913 13.087590 1.219750
v 8.426633 13.087590 1.219750
v 8.307913 13.087590 1.496500
v 8.426633 13.087590 1.496500
v 8.307913 13.087590 1.773250
v 8.426633 13.087590 1.773250
v 8.307913 13.087590 2.050000
v 8.426633 13.087590 2.050000
v 8.307913 13.087590 2.326750
v 8.426633 13.087590 2.326750
v 8.307913 13.087590 2.603500
v 8.426633 13.087590 2.603500
v 8.307913 13.087590 2.880250
v 8.426633 13.087590 2.880250
v 8.307913 13.087590 3.157000
v 8.426633 13.087590 3.157000
v 8.307913 13.087590 3.433750
v 8.426633 13.087590 3.433750
v 8.307913 13.087590 3.710500
v 8.426633 13.087590 3.710500
v 8.307913 13.087590 3.987250
v 8.426633 13.087590 3.987250
v 8.426633 12.325389 0.112750
v 8.426633 12.325389 0.389500
v 8.545353 12.325389 0.112750
v 8.545353 12.325389 0.389500
v 8.545353 12.410078 0.112750
v 8.426633 12.325389 0.666250
v 8.545353 12.325389 0.666250
v 8.426633 12.325389 0.943000
v 8.545353 12.325389 0.943000
v 8.426633 12.325389 1.219750
v 8.545353 12.325389 1.219750
v 8.426633 12.325389 1.496500
v 8.545353 12.325389 1.496500
v 8.426633 12.325389 1.773250
v 8.545353 12.325389 1.773250
v 8.426633 12.325389 2.050000
v 8.545353 12.325389 2.050000
v 8.426633 12.325389 2.326750
v 8.545353 12.325389 2.326750
v 8.426633 12.325389 2.603500
v 8.545353 12.325389 2.603500
v 8.426633 12.325389 2.880250
v 8.545353 12.325389 2.880250
v 8.426633 12.325389 3.157000
v 8.545353 12.325389 3.157000
v 8.426633 12.325389 3.433750
v 8.545353 12.325389 3.433750
v 8.426633 12.325389 3.710500
v 8.545353 12.325389 3.710500
v 8.426633 12.325389 3.987250
v 8.545353 12.325389 3.987250
v 8.545353 12.410078 3.987250
v 8.545353 12.494767 0.112750
v 8.545353 12.494767 3.987250
v 8.545353 12.579456 0.112750
v 8.545353 12.579456 3.987250
v 8.545353 12.664145 0.112750
v 8.545353 12.664145 3.987250
v 8.545353 12.748834 0.112750
v 8.545353 12.748834 3.987250
v 8.545353 12.833523 0.112750
v 8.545353 12.833523 3.987250
v 8.545353 12.918212 0.112750
v 8.545353 12.918212 3.987250
v 8.545353 13.002901 0.112750
v 8.545353 13.002901 3.987250
v 8.545353 13.087590 0.112750
v 8.545353 13.087590 3.987250
v 8.426633 13.172279 0.112750
v 8.426633 13.172279 0.389500
v 8.545353 13.172279 0.112750
v 8.426633 13.172279 0.666250
v 8.426633 13.172279 0.943000
v 8.426633 13.172279 1.219750
v 8.426633 13.172279 1.496500
v 8.426633 13.172279 1.773250
v 8.426633 13.172279 2.050000
v 8.426633 13.172279 2.326750
v 8.426633 13.172279 2.603500
v 8.426633 13.172279 2.880250
v 8.426633 13.172279 3.157000
v 8.426633 13.172279 3.433750
v 8.426633 13.172279 3.710500
v 8.426633 13.172279 3.987250
v 8.545353 13.172279 3.987250
v 8.426633 13.256968 0.112750
v 8.426633 13.256968 0.389500
v 8.545353 13.256968 0.112750
v 8.426633 13.256968 0.666250
v 8.426633 13.256968 0.943000
v 8.426633 13.256968 1.219750
v 8.426633 13.256968 1.496500
v 8.426633 13.256968 1.773250
v 8.426633 13.256968 2.050000
v 8.426633 13.256968 2.326750
v 8.426633 13.256968 2.603500
v 8.426633 13.256968 2.880250
v 8.426633 13.256968 3.157000
v 8.426633 13.256968 3.433750
v 8.426633 13.256968 3.710500
v 8.426633 13.256968 3.987250
v 8.545353 13.256968 3.987250
v 8.426633 13.341657 0.112750
v 8.426633 13.341657 0.389500
v 8.545353 13.341657 0.389500
v 8.545353 13.341657 0.112750
v 8.426633 13.341657 0.666250
v 8.545353 13.341657 0.666250
v 8.426633 13.341657 0.943000
v 8.545353 13.341657 0.943000
v 8.426633 13.341657 1.219750
v 8.545353 13.341657 1.219750
v 8.426633 13.341657 1.496500
v 8.545353 13.341657 1.496500
v 8.426633 13.341657 1.773250
v 8.545353 13.341657 1.773250
v 8.426633 13.341657 2.050000
v 8.545353 13.341657 2.050000
v 8.426633 13.341657 2.326750
v 8.545353 13.341657 2.326750
v 8.426633 13.341657 2.603500
v 8.545353 13.341657 2.603500
v 8.426633 13.341657 2.880250
v 8.545353 13.341657 2.880250
v 8.426633 13.341657 3.157000
v 8.545353 13.341657 3.157000
v 8.426633 13.341657 3.433750
v 8.545353 13.341657 3.433750
v 8.426633 13.341657 3.710500
v 8.545353 13.341657 3.710500
v 8.426633 13.341657 3.987250
v 8.545353 13.341657 3.987250
v 8.545353 12.240701 0.112750
v 8.545353 12.240701 0.389500
v 8.664074 12.240701 0.112750
v 8.664074 12.240701 0.389500
v 8.664074 12.325389 0.112750
v 8.545353 12.240701 0.666250
v 8.664074 12.240701 0.666250
v 8.545353 12.240701 0.943000
v 8.664074 12.240701 0.943000
v 8.545353 12.240701 1.219750
v 8.664074 12.240701 1.219750
v 8.545353 12.240701 1.496500
v 8.664074 12.240701 1.496500
v 8.545353 12.240701 1.773250
v 8.664074 12.240701 1.773250
v 8.545353 12.240701 2.050000
v 8.664074 12.240701 2.050000
v 8.545353 12.240701 2.326750
v 8.664074 12.240701 2.326750
v 8.545353 12.240701 2.603500
v 8.664074 12.240701 2.603500
v 8.545353 12.240701 2.880250
v 8.664074 12.240701 2.880250
v 8.545353 12.240701 3.157000
v 8.664074 12.240701 3.157000
v 8.545353 12.240701 3.433750
v 8.664074 12.240701 3.433750
v 8.545353 12.240701 3.710500
v 8.664074 12.240701 3.710500
v 8.545353 12.240701 3.987250
v 8.664074 12.240701 3.987250
v 8.664074 12.325389 3.987250
v 8.664074 12.410078 0.112750
v 8.664074 12.410078 3.987250
v 8.664074 12.494767 0.112750
v 8.664074 12.494767 3.987250
v 8.664074 12.579456 0.112750
v 8.664074 12.579456 3.987250
v 8.664074 12.664145 0.112750
v 8.664074 12.664145 3.987250
v 8.664074 12.748834 0.112750
v 8.664074 12.748834 3.987250
v 8.664074 12.833523 0.112750
v 8.664074 12.833523 3.987250
v 8.664074 12.918212 0.112750
v 8.664074 12.918212 3.987250
v 8.664074 13.002901 0.112750
v 8.664074 13.002901 3.987250
v 8.664074 13.087590 0.112750
v 8.664074 13.087590 3.987250
v 8.664074 13.172279 0.112750
v 8.664074 13.172279 3.987250
v 8.664074 13.256968 0.112750
v 8.664074 13.256968 3.987250
v 8.664074 13.341657 0.389500
v 8.664074 13.341657 0.112750
v 8.664074 13.341657 0.666250
v 8.664074 13.341657 0.943000
v 8.664074 13.341657 1.219750
v 8.664074 13.341657 1.496500
v 8.664074 13.341657 1.773250
v 8.664074 13.341657 2.050000
v 8.664074 13.341657 2.326750
v 8.664074 13.341657 2.603500
v 8.664074 13.341657 2.880250
v 8.664074 13.341657 3.157000
v 8.664074 13.341657 3.433750
v 8.664074 13.341657 3.710500
v 8.664074 13.341657 3.987250
v 8.664074 12.156012 0.112750
v 8.664074 12.156012 0.389500
v 8.782794 12.156012 0.112750
v 8.782794 12.156012 0.389500
v 8.782794 12.240701 0.112750
v 8.664074 12.156012 0.666250
v 8.782794 12.156012 0.666250
v 8.664074 12.156012 0.943000
v 8.782794 12.156012 0.943000
v 8.664074 12.156012 1.219750
v 8.782794 12.156012 1.219750
v 8.664074 12.156012 1.496500
v 8.782794 12.156012 1.496500
v 8.664074 12.156012 1.773250
v 8.782794 12.156012 1.773250
v 8.664074 12.156012 2.050000
v 8.782794 12.156012 2.050000
v 8.664074 12.156012 2.326750
v 8.782794 12.156012 2.326750
v 8.664074 12.156012 2.603500
v 8.782794 12.156012 2.603500
v 8.664074 12.156012 2.880250
v 8.782794 12.156012 2.880250
v 8.664074 12.156012 3.157000
v 8.782794 12.156012 3.157000
v 8.664074 12.156012 3.433750
v 8.782794 12.156012 3.433750
v 8.664074 12.156012 3.710500
v 8.782794 12.156012 3.710500
v 8.664074 12.156012 3.987250
v 8.782794 12.156012 3.987250
v 8.782794 12.240701 3.987250
v 8.782794 12.325389 0.112750
v 8.782794 12.325389 3.987250
v 8.782794 12.410078 0.112750
v 8.782794 12.410078 3.987250
v 8.782794 12.494767 0.112750
v 8.782794 12.494767 3.987250
v 8.782794 12.579456 0.112750
v 8.782794 12.579456 3.987250
v 8.782794 12.664145 0.112750
v 8.782794 12.664145 3.987250
v 8.782794 12.748834 0.112750
v 8.782794 12.748834 3.987250
v 8.782794 12.833523 0.112750
v 8.782794 12.833523 3.987250
v 8.782794 12.918212 0.112750
v 8.782794 12.918212 3.987250
v 8.782794 13.002901 0.112750
v 8.782794 13.002901 3.987250
v 8.782794 13.087590 0.112750
v 8.782794 13.087590 3.987250
v 8.782794 13.172279 0.112750
v 8.782794 13.172279 3.987250
v 8.782794 13.256968 0.112750
v 8.782794 13.256968 3.987250
v 8.782794 13.256968 0.389500
v 8.782794 13.341657 0.389500
v 8.782794 13.341657 0.112750
v 8.782794 13.256968 0.666250
v 8.782794 13.341657 0.666250
v 8.782794 13.256968 0.943000
v 8.782794 13.341657 0.943000
v 8.782794 13.256968 1.219750
v 8.782794 13.341657 1.219750
v 8.782794 13.256968 1.496500
v 8.782794 13.341657 1.496500
v 8.782794 13.256968 1.773250
v 8.782794 13.341657 1.773250
v 8.782794 13.256968 2.050000
v 8.782794 13.341657 2.050000
v 8.782794 13.256968 2.326750
v 8.782794 13.341657 2.326750
v 8.782794 13.256968 2.603500
v 8.782794 13.341657 2.603500
v 8.782794 13.256968 2.880250
v 8.782794 13.341657 2.880250
v 8.782794 13.256968 3.157000
v 8.782794 13.341657 3.157000
v 8.782794 13.256968 3.433750
v 8.782794 13.341657 3.433750
v 8.782794 13.256968 3.710500
v 8.782794 13.341657 3.710500
v 8.782794 13.341657 3.987250
v 8.782794 12.071323 0.112750
v 8.782794 12.071323 0.389500
v 8.901514 12.071323 0.112750
v 8.901514 12.071323 0.389500
v 8.901514 12.156012 0.112750
v 8.782794 12.071323 0.666250
v 8.901514 12.071323 0.666250
v 8.782794 12.071323 0.943000
v 8.901514 12.071323 0.943000
v 8.782794 12.071323 1.219750
v 8.901514 12.071323 1.219750
v 8.782794 12.071323 1.496500
v 8.901514 12.071323 1.496500
v 8.782794 12.071323 1.773250
v 8.901514 12.071323 1.773250
v 8.782794 12.071323 2.050000
v 8.901514 12.071323 2.050000
v 8.782794 12.071323 2.326750
v 8.901514 12.071323 2.326750
v 8.782794 12.071323 2.603500
v 8.901514 12.071323 2.603500
v 8.782794 12.071323 2.880250
v 8.901514 12.071323 2.880250
v 8.782794 12.071323 3.157000
v 8.901514 12.071323 3.157000
v 8.782794 12.071323 3.433750
v 8.901514 12.071323 3.433750
v 8.782794 12.071323 3.710500
v 8.901514 12.071323 3.710500
v 8.782794 12.071323 3.987250
v 8.901514 12.071323 3.987250
v 8.901514 12.156012 3.987250
v 8.901514 12.240701 0.112750
v 8.901514 12.240701 3.987250
v 8.901514 12.325389 0.112750
v 8.901514 12.325389 3.987250
v 8.901514 12.410078 0.112750
v 8.901514 12.410078 3.987250
v 8.901514 12.494767 0.112750
v 8.901514 12.494767 3.987250
v 8.901514 12.579456 0.112750
v 8.901514 12.579456 3.987250
v 8.901514 12.664145 0.112750
v 8.901514 12.664145 3.987250
v 8.901514 12.748834 0.112750
v 8.901514 12.748834 3.987250
v 8.901514 12.833523 0.112750
v 8.901514 12.833523 3.987250
v 8.901514 12.918212 0.112750
v 8.901514 12.918212 3.987250
v 8.901514 13.002901 0.112750
v 8.901514 13.002901 3.987250
v 8.901514 13.087590 0.112750
v 8.901514 13.087590 3.987250
v 8.901514 13.172279 0.112750
v 8.901514 13.172279 3.987250
v 8.901514 13.256968 0.389500
v 8.901514 13.256968 0.112750
v 8.901514 13.256968 0.666250
v 8.901514 13.256968 0.943000
v 8.901514 13.256968 1.219750
v 8.901514 13.256968 1.496500
v 8.901514 13.256968 1.773250
v 8.901514 13.256968 2.050000
v 8.901514 13.256968 2.326750
v 8.901514 13.256968 2.603500
v 8.901514 13.256968 2.880250
v 8.901514 13.256968 3.157000
v 8.901514 13.256968 3.433750
v 8.901514 13.256968 3.710500
v 8.901514 13.256968 3.987250
v 8.901514 11.986634 0.112750
v 8.901514 11.986634 0.389500
v 9.020234 11.986634 0.112750
v 9.020234 11.986634 0.389500
v 9.020234 12.071323 0.112750
v 8.901514 11.986634 0.666250
v 9.020234 11.986634 0.666250
v 8.901514 11.986634 0.943000
v 9.020234 11.986634 0.943000
v 8.901514 11.986634 1.219750
v 9.020234 11.986634 1.219750
v 8.901514 11.986634 1.496500
v 9.020234 11.986634 1.496500
v 8.901514 11.986634 1.773250
v 9.020234 11.986634 1.773250
v 8.901514 11.986634 2.050000
v 9.020234 11.986634 2.050000
v 8.901514 11.986634 2.326750
v 9.020234 11.986634 2.326750
v 8.901514 11.986634 2.603500
v 9.020234 11.986634 2.603500
v 8.901514 11.986634 2.880250
v 9.020234 11.986634 2.880250
v 8.901514 11.986634 3.157000
v 9.020234 11.986634 3.157000
v 8.901514 11.986634 3.433750
v 9.020234 11.986634 3.433750
v 8.901514 11.986634 3.710500
v 9.020234 11.986634 3.710500
v 8.901514 11.986634 3.987250
v 9.020234 11.986634 3.987250
v 9.020234 12.071323 3.987250
v 9.020234 12.156012 0.112750
v 9.020234 12.156012 3.987250
v 9.020234 12.240701 0.112750
v 9.020234 12.240701 3.987250
v 9.020234 12.325389 0.112750
v 9.020234 12.325389 3.987250
v 9.020234 12.410078 0.112750
v 9.020234 12.410078 3.987250
v 9.020234 12.494767 0.112750
v 9.020234 12.494767 3.987250
v 9.020234 12.579456 0.112750
v 9.020234 12.579456 3.987250
v 9.020234 12.664145 0.112750
v 9.020234 12.664145 3.987250
v 9.020234 12.748834 0.112750
v 9.020234 12.748834 3.987250
v 9.020234 12.833523 0.112750
v 9.020234 12.833523 3.987250
v 9.020234 12.918212 0.112750
v 9.020234 12.918212 3.987250
v 9.020234 13.002901 0.112750
v 9.020234 13.002901 3.987250
v 9.020234 13.087590 0.112750
v 9.020234 13.087590 3.987250
v 9.020234 13.172279 0.112750
v 9.020234 13.172279 3.987250
v 9.020234 13.172279 0.389500
v 9.020234 13.256968 0.389500
v 9.020234 13.256968 0.112750
v 9.020234 13.172279 0.666250
v 9.020234 13.256968 0.666250
v 9.020234 13.172279 0.943000
v 9.020234 13.256968 0.943000
v 9.020234 13.172279 1.219750
v 9.020234 13.256968 1.219750
v 9.020234 13.172279 1.496500
v 9.020234 13.256968 1.496500
v 9.020234 13.172279 1.773250
v 9.020234 13.256968 1.773250
v 9.020234 13.172279 2.050000
v 9.020234 13.256968 2.050000
v 9.020234 13.172279 2.326750
v 9.020234 13.256968 2.326750
v 9.020234 13.172279 2.603500
v 9.020234 13.256968 2.603500
v 9.020234 13.172279 2.880250
v 9.020234 13.256968 2.880250
v 9.020234 13.172279 3.157000
v 9.020234 13.256968 3.157000
v 9.020234 13.172279 3.433750
v 9.020234 13.256968 3.433750
v 9.020234 13.172279 3.710500
v 9.020234 13.256968 3.710500
v 9.020234 13.256968 3.987250
v 9.138954 11.986634 0.112750
v 9.138954 11.986634 0.389500
v 9.138954 12.071323 0.112750
v 9.138954 11.986634 0.666250
v 9.138954 11.986634 0.943000
v 9.138954 11.986634 1.219750
v 9.138954 11.986634 1.496500
v 9.138954 11.986634 1.773250
v 9.138954 11.986634 2.050000
v 9.138954 11.986634 2.326750
v 9.138954 11.986634 2.603500
v 9.138954 11.986634 2.880250
v 9.138954 11.986634 3.157000
v 9.138954 11.986634 3.433750
v 9.138954 11.986634 3.710500
v 9.138954 11.986634 3.987250
v 9.138954 12.071323 3.987250
v 9.138954 12.156012 0.112750
v 9.138954 12.156012 3.987250
v 9.138954 12.240701 0.112750
v 9.138954 12.240701 3.987250
v 9.138954 12.325389 0.112750
v 9.138954 12.325389 3.987250
v 9.138954 12.410078 0.112750
v 9.138954 12.410078 3.987250
v 9.138954 12.494767 0.112750
v 9.138954 12.494767 3.987250
v 9.138954 12.579456 0.112750
v 9.138954 12.579456 3.987250
v 9.138954 12.664145 0.112750
v 9.138954 12.664145 3.987250
v 9.138954 12.748834 0.112750
v 9.138954 12.748834 3.987250
v 9.138954 12.833523 0.112750
v 9.138954 12.833523 3.987250
v 9.138954 12.918212 0.112750
v 9.138954 12.918212 3.987250
v 9.138954 13.002901 0.112750
v 9.138954 13.002901 3.987250
v 9.138954 13.087590 0.112750
v 9.138954 13.087590 3.987250
v 9.138954 13.087590 0.389500
v 9.138954 13.172279 0.389500
v 9.138954 13.172279 0.112750
v 9.138954 13.087590 0.666250
v 9.138954 13.172279 0.666250
v 9.138954 13.087590 0.943000
v 9.138954 13.172279 0.943000
v 9.138954 13.087590 1.219750
v 9.138954 13.172279 1.219750
v 9.138954 13.087590 1.496500
v 9.138954 13.172279 1.496500
v 9.138954 13.087590 1.773250
v 9.138954 13.172279 1.773250
v 9.138954 13.087590 2.050000
v 9.138954 13.172279 2.050000
v 9.138954 13.087590 2.326750
v 9.138954 13.172279 2.326750
v 9.138954 13.087590 2.603500
v 9.138954 13.172279 2.603500
v 9.138954 13.087590 2.880250
v 9.138954 13.172279 2.880250
v 9.138954 13.087590 3.157000
v 9.138954 13.172279 3.157000
v 9.138954 13.087590 3.433750
v 9.138954 13.172279 3.433750
v 9.138954 13.087590 3.710500
v 9.138954 13.172279 3.710500
v 9.138954 13.172279 3.987250
v 9.257674 11.986634 0.112750
v 9.257674 11.986634 0.389500
v 9.257674 12.071323 0.112750
v 9.257674 11.986634 0.666250
v 9.257674 11.986634 0.943000
v 9.257674 11.986634 1.219750
v 9.257674 11.986634 1.496500
v 9.257674 11.986634 1.773250
v 9.257674 11.986634 2.050000
v 9.257674 11.986634 2.326750
v 9.257674 11.986634 2.603500
v 9.257674 11.986634 2.880250
v 9.257674 11.986634 3.157000
v 9.257674 11.986634 3.433750
v 9.257674 11.986634 3.710500
v 9.257674 11.986634 3.987250
v 9.257674 12.071323 3.987250
v 9.257674 12.156012 0.112750
v 9.257674 12.156012 3.987250
v 9.257674 12.240701 0.112750
v 9.257674 12.240701 3.987250
v 9.257674 12.325389 0.112750
v 9.257674 12.325389 3.987250
v 9.257674 12.410078 0.112750
v 9.257674 12.410078 3.987250
v 9.257674 12.494767 0.112750
v 9.257674 12.494767 3.987250
v 9.257674 12.579456 0.112750
v 9.257674 12.579456 3.987250
v 9.257674 12.664145 0.112750
v 9.257674 12.664145 3.987250
v 9.257674 12.748834 0.112750
v 9.257674 12.748834 3.987250
v 9.257674 12.833523 0.112750
v 9.257674 12.833523 3.987250
v 9.257674 12.918212 0.112750
v 9.257674 12.918212 3.987250
v 9.257674 13.002901 0.112750
v 9.257674 13.002901 3.987250
v 9.257674 13.002901 0.389500
v 9.257674 13.087590 0.389500
v 9.257674 13.087590 0.112750
v 9.257674 13.002901 0.666250
v 9.257674 13.087590 0.666250
v 9.257674 13.002901 0.943000
v 9.257674 13.087590 0.943000
v 9.257674 13.002901 1.219750
v 9.257674 13.087590 1.219750
v 9.257674 13.002901 1.496500
v 9.257674 13.087590 1.496500
v 9.257674 13.002901 1.773250
v 9.257674 13.087590 1.773250
v 9.257674 13.002901 2.050000
v 9.257674 13.087590 2.050000
v 9.257674 13.002901 2.326750
v 9.257674 13.087590 2.326750
v 9.257674 13.002901 2.603500
v 9.257674 13.087590 2.603500
v 9.257674 13.002901 2.880250
v 9.257674 13.087590 2.880250
v 9.257674 13.002901 3.157000
v 9.257674 13.087590 3.157000
v 9.257674 13.002901 3.433750
v 9.257674 13.087590 3.433750
v 9.257674 13.002901 3.710500
v 9.257674 13.087590 3.710500
v 9.257674 13.087590 3.987250
v 9.376394 11.986634 0.112750
v 9.376394 11.986634 0.389500
v 9.376394 12.071323 0.112750
v 9.376394 11.986634 0.666250
v 9.376394 11.986634 0.943000
v 9.376394 11.986634 1.219750
v 9.376394 11.986634 1.496500
v 9.376394 11.986634 1.773250
v 9.376394 11.986634 2.050000
v 9.376394 11.986634 2.326750
v 9.376394 11.986634 2.603500
v 9.376394 11.986634 2.880250
v 9.376394 11.986634 3.157000
v 9.376394 11.986634 3.433750
v 9.376394 11.986634 3.710500
v 9.376394 11.986634 3.987250
v 9.376394 12.071323 3.987250
v 9.376394 12.156012 0.112750
v 9.376394 12.156012 3.987250
v 9.376394 12.240701 0.112750
v 9.376394 12.240701 3.987250
v 9.376394 12.325389 0.112750
v 9.376394 12.325389 3.987250
v 9.376394 12.410078 0.112750
v 9.376394 12.410078 3.987250
v 9.376394 12.494767 0.112750
v 9.376394 12.494767 3.987250
v 9.376394 12.579456 0.112750
v 9.376394 12.579456 3.987250
v 9.376394 12.664145 0.112750
v 9.376394 12.664145 3.987250
v 9.376394 12.748834 0.112750
v 9.376394 12.748834 3.987250
v 9.376394 12.833523 0.112750
v 9.376394 12.833523 3.987250
v 9.376394 12.918212 0.112750
v 9.376394 12.918212 3.987250
v 9.376394 12.918212 0.389500
v 9.376394 13.002901 0.389500
v 9.376394 13.002901 0.112750
v 9.376394 12.918212 0.666250
v 9.376394 13.002901 0.666250
v 9.376394 12.918212 0.943000
v 9.376394 13.002901 0.943000
v 9.376394 12.918212 1.219750
v 9.376394 13.002901 1.219750
v 9.376394 12.918212 1.496500
v 9.376394 13.002901 1.496500
v 9.376394 12.918212 1.773250
v 9.376394 13.002901 1.773250
v 9.376394 12.918212 2.050000
v 9.376394 13.002901 2.050000
v 9.376394 12.918212 2.326750
v 9.376394 13.002901 2.326750
v 9.376394 12.918212 2.603500
v 9.376394 13.002901 2.603500
v 9.376394 12.918212 2.880250
v 9.376394 13.002901 2.880250
v 9.376394 12.918212 3.157000
v 9.376394 13.002901 3.157000
v 9.376394 12.918212 3.433750
v 9.376394 13.002901 3.433750
v 9.376394 12.918212 3.710500
v 9.376394 13.002901 3.710500
v 9.376394 13.002901 3.987250
v 9.495114 11.986634 0.112750
v 9.495114 11.986634 0.389500
v 9.495114 12.071323 0.112750
v 9.495114 11.986634 0.666250
v 9.495114 11.986634 0.943000
v 9.495114 11.986634 1.219750
v 9.495114 11.986634 1.496500
v 9.495114 11.986634 1.773250
v 9.495114 11.986634 2.050000
v 9.495114 11.986634 2.326750
v 9.495114 11.986634 2.603500
v 9.495114 11.986634 2.880250
v 9.495114 11.986634 3.157000
v 9.495114 11.986634 3.433750
v 9.495114 11.986634 3.710500
v 9.495114 11.986634 3.987250
v 9.495114 12.071323 3.987250
v 9.495114 12.156012 0.112750
v 9.495114 12.156012 3.987250
v 9.495114 12.240701 0.112750
v 9.495114 12.240701 3.987250
v 9.495114 12.325389 0.112750
v 9.495114 12.325389 3.987250
v 9.495114 12.410078 0.112750
v 9.495114 12.410078 3.987250
v 9.495114 12.494767 0.112750
v 9.495114 12.494767 3.987250
v 9.495114 12.579456 0.112750
v 9.495114 12.579456 3.987250
v 9.495114 12.664145 0.112750
v 9.495114 12.664145 3.987250
v 9.495114 12.748834 0.112750
v 9.495114 12.748834 3.987250
v 9.495114 12.833523 0.112750
v 9.495114 12.833523 3.987250
v 9.495114 12.833523 0.389500
v 9.495114 12.918212 0.389500
v 9.495114 12.918212 0.112750
v 9.495114 12.833523 0.666250
v 9.495114 12.918212 0.666250
v 9.495114 12.833523 0.943000
v 9.495114 12.918212 0.943000
v 9.495114 12.833523 1.219750
v 9.495114 12.918212 1.219750
v 9.495114 12.833523 1.496500
v 9.495114 12.918212 1.496500
v 9.495114 12.833523 1.773250
v 9.495114 12.918212 1.773250
v 9.495114 12.833523 2.050000
v 9.495114 12.918212 2.050000
v 9.495114 12.833523 2.326750
v 9.495114 12.918212 2.326750
v 9.495114 12.833523 2.603500
v 9.495114 12.918212 2.603500
v 9.495114 12.833523 2.880250
v 9.495114 12.918212 2.880250
v 9.495114 12.833523 3.157000
v 9.495114 12.918212 3.157000
v 9.495114 12.833523 3.433750
v 9.495114 12.918212 3.433750
v 9.495114 12.833523 3.710500
v 9.495114 12.918212 3.710500
v 9.495114 12.918212 3.987250
v 9.613834 11.986634 0.112750
v 9.613834 11.986634 0.389500
v 9.613834 12.071323 0.112750
v 9.613834 11.986634 0.666250
v 9.613834 11.986634 0.943000
v 9.613834 11.986634 1.219750
v 9.613834 11.986634 1.496500
v 9.613834 11.986634 1.773250
v 9.613834 11.986634 2.050000
v 9.613834 11.986634 2.326750
v 9.613834 11.986634 2.603500
v 9.613834 11.986634 2.880250
v 9.613834 11.986634 3.157000
v 9.613834 11.986634 3.433750
v 9.613834 11.986634 3.710500
v 9.613834 11.986634 3.987250
v 9.613834 12.071323 3.987250
v 9.613834 12.156012 0.112750
v 9.613834 12.156012 3.987250
v 9.613834 12.240701 0.112750
v 9.613834 12.240701 3.987250
v 9.613834 12.325389 0.112750
v 9.613834 12.325389 3.987250
v 9.613834 12.410078 0.112750
v 9.613834 12.410078 3.987250
v 9.613834 12.494767 0.112750
v 9.613834 12.494767 3.987250
v 9.613834 12.579456 0.112750
v 9.613834 12.579456 3.987250
v 9.613834 12.664145 0.112750
v 9.613834 12.664145 3.987250
v 9.613834 12.748834 0.112750
v 9.613834 12.748834 3.987250
v 9.613834 12.833523 0.389500
v 9.613834 12.833523 0.112750
v 9.613834 12.833523 0.666250
v 9.613834 12.833523 0.943000
v 9.613834 12.833523 1.219750
v 9.613834 12.833523 1.496500
v 9.613834 12.833523 1.773250
v 9.613834 12.833523 2.050000
v 9.613834 12.833523 2.326750
v 9.613834 12.833523 2.603500
v 9.613834 12.833523 2.880250
v 9.613834 12.833523 3.157000
v 9.613834 12.833523 3.433750
v 9.613834 12.833523 3.710500
v 9.613834 12.833523 3.987250
v 9.732554 11.986634 0.112750
v 9.732554 11.986634 0.389500
v 9.732554 12.071323 0.112750
v 9.732554 11.986634 0.666250
v 9.732554 11.986634 0.943000
v 9.732554 11.986634 1.219750
v 9.732554 11.986634 1.496500
v 9.732554 11.986634 1.773250
v 9.732554 11.986634 2.050000
v 9.732554 11.986634 2.326750
v 9.732554 11.986634 2.603500
v 9.732554 11.986634 2.880250
v 9.732554 11.986634 3.157000
v 9.732554 11.986634 3.433750
v 9.732554 11.986634 3.710500
v 9.732554 11.986634 3.987250
v 9.732554 12.071323 3.987250
v 9.732554 12.156012 0.112750
v 9.732554 12.156012 3.987250
v 9.732554 12.240701 0.112750
v 9.732554 12.240701 3.987250
v 9.732554 12.325389 0.112750
v 9.732554 12.325389 3.987250
v 9.732554 12.410078 0.112750
v 9.732554 12.410078 3.987250
v 9.732554 12.494767 0.112750
v 9.732554 12.494767 3.987250
v 9.732554 12.579456 0.112750
v 9.732554 12.579456 3.987250
v 9.732554 12.664145 0.112750
v 9.732554 12.664145 3.987250
v 9.732554 12.748834 0.112750
v 9.732554 12.748834 3.987250
v 9.732554 12.748834 0.389500
v 9.732554 12.833523 0.389500
v 9.732554 12.833523 0.112750
v 9.732554 12.748834 0.666250
v 9.732554 12.833523 0.666250
v 9.732554 12.748834 0.943000
v 9.732554 12.833523 0.943000
v 9.732554 12.748834 1.219750
v 9.732554 12.833523 1.219750
v 9.732554 12.748834 1.496500
v 9.732554 12.833523 1.496500
v 9.732554 12.748834 1.773250
v 9.732554 12.833523 1.773250
v 9.732554 12.748834 2.050000
v 9.732554 12.833523 2.050000
v 9.732554 12.748834 2.326750
v 9.732554 12.833523 2.326750
v 9.732554 12.748834 2.603500
v 9.732554 12.833523 2.603500
v 9.732554 12.748834 2.880250
v 9.732554 12.833523 2.880250
v 9.732554 12.748834 3.157000
v 9.732554 12.833523 3.157000
v 9.732554 12.748834 3.433750
v 9.732554 12.833523 3.433750
v 9.732554 12.748834 3.710500
v 9.732554 12.833523 3.710500
v 9.732554 12.833523 3.987250
v 9.851274 11.986634 0.112750
v 9.851274 11.986634 0.389500
v 9.851274 12.071323 0.389500
v 9.851274 12.071323 0.112750
v 9.851274 11.986634 0.666250
v 9.851274 12.071323 0.666250
v 9.851274 11.986634 0.943000
v 9.851274 12.071323 0.943000
v 9.851274 11.986634 1.219750
v 9.851274 12.071323 1.219750
v 9.851274 11.986634 1.496500
v 9.851274 12.071323 1.496500
v 9.851274 11.986634 1.773250
v 9.851274 12.071323 1.773250
v 9.851274 11.986634 2.050000
v 9.851274 12.071323 2.050000
v 9.851274 11.986634 2.326750
v 9.851274 12.071323 2.326750
v 9.851274 11.986634 2.603500
v 9.851274 12.071323 2.603500
v 9.851274 11.986634 2.880250
v 9.851274 12.071323 2.880250
v 9.851274 11.986634 3.157000
v 9.851274 12.071323 3.157000
v 9.851274 11.986634 3.433750
v 9.851274 12.071323 3.433750
v 9.851274 11.986634 3.710500
v 9.851274 12.071323 3.710500
v 9.851274 11.986634 3.987250
v 9.851274 12.071323 3.987250
v 9.851274 12.156012 0.389500
v 9.851274 12.156012 0.112750
v 9.851274 12.156012 0.666250
v 9.851274 12.156012 0.943000
v 9.851274 12.156012 1.219750
v 9.851274 12.156012 1.496500
v 9.851274 12.156012 1.773250
v 9.851274 12.156012 2.050000
v 9.851274 12.156012 2.326750
v 9.851274 12.156012 2.603500
v 9.851274 12.156012 2.880250
v 9.851274 12.156012 3.157000
v 9.851274 12.156012 3.433750
v 9.851274 12.156012 3.710500
v 9.851274 12.156012 3.987250
v 9.851274 12.240701 0.112750
v 9.851274 12.240701 3.987250
v 9.851274 12.325389 0.112750
v 9.851274 12.325389 3.987250
v 9.851274 12.410078 0.112750
v 9.851274 12.410078 3.987250
v 9.851274 12.494767 0.112750
v 9.851274 12.494767 3.987250
v 9.851274 12.579456 0.112750
v 9.851274 12.579456 3.987250
v 9.851274 12.664145 0.112750
v 9.851274 12.664145 3.987250
v 9.851274 12.664145 0.389500
v 9.851274 12.748834 0.389500
v 9.851274 12.748834 0.112750
v 9.851274 12.664145 0.666250
v 9.851274 12.748834 0.666250
v 9.851274 12.664145 0.943000
v 9.851274 12.748834 0.943000
v 9.851274 12.664145 1.219750
v 9.851274 12.748834 1.219750
v 9.851274 12.664145 1.496500
v 9.851274 12.748834 1.496500
v 9.851274 12.664145 1.773250
v 9.851274 12.748834 1.773250
v 9.851274 12.664145 2.050000
v 9.851274 12.748834 2.050000
v 9.851274 12.664145 2.326750
v 9.851274 12.748834 2.326750
v 9.851274 12.664145 2.603500
v 9.851274 12.748834 2.603500
v 9.851274 12.664145 2.880250
v 9.851274 12.748834 2.880250
v 9.851274 12.664145 3.157000
v 9.851274 12.748834 3.157000
v 9.851274 12.664145 3.433750
v 9.851274 12.748834 3.433750
v 9.851274 12.664145 3.710500
v 9.851274 12.748834 3.710500
v 9.851274 12.748834 3.987250
v 9.969994 12.156012 0.112750
v 9.969994 12.156012 0.389500
v 9.969994 12.240701 0.389500
v 9.969994 12.240701 0.112750
v 9.969994 12.156012 0.666250
v 9.969994 12.240701 0.666250
v 9.969994 12.156012 0.943000
v 9.969994 12.240701 0.943000
v 9.969994 12.156012 1.219750
v 9.969994 12.240701 1.219750
v 9.969994 12.156012 1.496500
v 9.969994 12.240701 1.496500
v 9.969994 12.156012 1.773250
v 9.969994 12.240701 1.773250
v 9.969994 12.156012 2.050000
v 9.969994 12.240701 2.050000
v 9.969994 12.156012 2.326750
v 9.969994 12.240701 2.326750
v 9.969994 12.156012 2.603500
v 9.969994 12.240701 2.603500
v 9.969994 12.156012 2.880250
v 9.969994 12.240701 2.880250
v 9.969994 12.156012 3.157000
v 9.969994 12.240701 3.157000
v 9.969994 12.156012 3.433750
v 9.969994 12.240701 3.433750
v 9.969994 12.156012 3.710500
v 9.969994 12.240701 3.710500
v 9.969994 12.156012 3.987250
v 9.969994 12.240701 3.987250
v 9.969994 12.325389 0.389500
v 9.969994 12.325389 0.112750
v 9.969994 12.325389 0.666250
v 9.969994 12.325389 0.943000
v 9.969994 12.325389 1.219750
v 9.969994 12.325389 1.496500
v 9.969994 12.325389 1.773250
v 9.969994 12.325389 2.050000
v 9.969994 12.325389 2.326750
v 9.969994 12.325389 2.603500
v 9.969994 12.325389 2.880250
v 9.969994 12.325389 3.157000
v 9.969994 12.325389 3.433750
v 9.969994 12.325389 3.710500
v 9.969994 12.325389 3.987250
v 9.969994 12.410078 0.389500
v 9.969994 12.410078 0.112750
v 9.969994 12.410078 0.666250
v 9.969994 12.410078 0.943000
v 9.969994 12.410078 1.219750
v 9.969994 12.410078 1.496500
v 9.969994 12.410078 1.773250
v 9.969994 12.410078 2.050000
v 9.969994 12.410078 2.326750
v 9.969994 12.410078 2.603500
v 9.969994 12.410078 2.880250
v 9.969994 12.410078 3.157000
v 9.969994 12.410078 3.433750
v 9.969994 12.410078 3.710500
v 9.969994 12.410078 3.987250
v 9.969994 12.494767 0.389500
v 9.969994 12.494767 0.112750
v 9.969994 12.494767 0.666250
v 9.969994 12.494767 0.943000
v 9.969994 12.494767 1.219750
v 9.969994 12.494767 1.496500
v 9.969994 12.494767 1.773250
v 9.969994 12.494767 2.050000
v 9.969994 12.494767 2.326750
v 9.969994 12.494767 2.603500
v 9.969994 12.494767 2.880250
v 9.969994 12.494767 3.157000
v 9.969994 12.494767 3.433750
v 9.969994 12.494767 3.710500
v 9.969994 12.494767 3.987250
v 9.969994 12.579456 0.389500
v 9.969994 12.579456 0.112750
v 9.969994 12.579456 0.666250
v 9.969994 12.579456 0.943000
v 9.969994 12.579456 1.219750
v 9.969994 12.579456 1.496500
v 9.969994 12.579456 1.773250
v 9.969994 12.579456 2.050000
v 9.969994 12.579456 2.326750
v 9.969994 12.579456 2.603500
v 9.969994 12.579456 2.880250
v 9.969994 12.579456 3.157000
v 9.969994 12.579456 3.433750
v 9.969994 12.579456 3.710500
v 9.969994 12.579456 3.987250
v 9.969994 12.664145 0.389500
v 9.969994 12.664145 0.112750
v 9.969994 12.664145 0.666250
v 9.969994 12.664145 0.943000
v 9.969994 12.664145 1.219750
v 9.969994 12.664145 1.496500
v 9.969994 12.664145 1.773250
v 9.969994 12.664145 2.050000
v 9.969994 12.664145 2.326750
v 9.969994 12.664145 2.603500
v 9.969994 12.664145 2.880250
v 9.969994 12.664145 3.157000
v 9.969994 12.664145 3.433750
v 9.969994 12.664145 3.710500
v 9.969994 12.664145 3.987250
f 1 2 3
f 1 3 4
f 1 5 6
f 1 6 4
f 1 2 7
f 1 7 5
f 4 3 8
f 4 8 9
f 4 6 10
f 4 10 9
f 9 8 11
f 9 11 12
f 9 10 13
f 9 13 12
f 12 11 14
f 12 14 15
f 12 13 16
f 12 16 15
f 15 14 17
f 15 17 18
f 15 16 19
f 15 19 18
f 18 17 20
f 18 20 21
f 18 19 22
f 18 22 21
f 21 20 23
f 21 23 24
f 21 22 25
f 21 25 24
f 24 23 26
f 24 26 27
f 24 25 28
f 24 28 27
f 27 26 29
f 27 29 30
f 27 28 31
f 27 31 30
f 30 29 32
f 30 32 33
f 30 31 34
f 30 34 33
f 33 32 35
f 33 35 36
f 33 34 37
f 33 37 36
f 36 35 38
f 36 38 39
f 36 37 40
f 36 40 39
f 39 38 41
f 39 41 42
f 39 40 43
f 39 43 42
f 42 41 44
f 42 44 45
f 42 43 46
f 42 46 45
f 45 46 47
f 45 47 44
f 2 48 49
f 2 49 3
f 2 48 50
f 2 50 7
f 3 49 51
f 3 51 8
f 8 51 52
f 8 52 11
f 11 52 53
f 11 53 14
f 14 53 54
f 14 54 17
f 17 54 55
f 17 55 20
f 20 55 56
f 20 56 23
f 23 56 57
f 23 57 26
f 26 57 58
f 26 58 29
f 29 58 59
f 29 59 32
f 32 59 60
f 32 60 35
f 35 60 61
f 35 61 38
f 38 61 62
f 38 62 41
f 41 62 63
f 41 63 44
f 44 47 64
f 44 64 63
f 48 65 66
f 48 66 49
f 65 66 67
f 65 67 68
f 48 65 68
f 48 68 50
f 49 66 69
f 49 69 51
f 66 69 70
f 66 70 67
f 51 69 71
f 51 71 52
f 69 71 72
f 69 72 70
f 52 71 73
f 52 73 53
f 71 73 74
f 71 74 72
f 53 73 75
f 53 75 54
f 73 75 76
f 73 76 74
f 54 75 77
f 54 77 55
f 75 77 78
f 75 78 76
f 55 77 79
f 55 79 56
f 77 79 80
f 77 80 78
f 56 79 81
f 56 81 57
f 79 81 82
f 79 82 80
f 57 81 83
f 57 83 58
f 81 83 84
f 81 84 82
f 58 83 85
f 58 85 59
f 83 85 86
f 83 86 84
f 59 85 87
f 59 87 60
f 85 87 88
f 85 88 86
f 60 87 89
f 60 89 61
f 87 89 90
f 87 90 88
f 61 89 91
f 61 91 62
f 89 91 92
f 89 92 90
f 62 91 93
f 62 93 63
f 91 93 94
f 91 94 92
f 63 64 94
f 63 94 93
f 95 5 6
f 95 6 96
f 95 97 98
f 95 98 96
f 95 5 99
f 95 99 97
f 96 6 10
f 96 10 100
f 96 98 101
f 96 101 100
f 100 10 13
f 100 13 102
f 100 101 103
f 100 103 102
f 102 13 16
f 102 16 104
f 102 103 105
f 102 105 104
f 104 16 19
f 104 19 106
f 104 105 107
f 104 107 106
f 106 19 22
f 106 22 108
f 106 107 109
f 106 109 108
f 108 22 25
f 108 25 110
f 108 109 111
f 108 111 110
f 110 25 28
f 110 28 112
f 110 111 113
f 110 113 112
f 112 28 31
f 112 31 114
f 112 113 115
f 112 115 114
f 114 31 34
f 114 34 116
f 114 115 117
f 114 117 116
f 116 34 37
f 116 37 118
f 116 117 119
f 116 119 118
f 118 37 40
f 118 40 120
f 118 119 121
f 118 121 120
f 120 40 43
f 120 43 122
f 120 121 123
f 120 123 122
f 122 43 46
f 122 46 124
f 122 123 125
f 122 125 124
f 124 125 126
f 124 126 46
f 5 7 127
f 5 127 99
f 46 126 128
f 46 128 47
f 7 50 129
f 7 129 127
f 47 128 130
f 47 130 64
f 50 68 131
f 50 131 129
f 64 130 132
f 64 132 94
f 68 133 134
f 68 134 67
f 68 133 135
f 68 135 131
f 67 134 136
f 67 136 70
f 70 136 137
f 70 137 72
f 72 137 138
f 72 138 74
f 74 138 139
f 74 139 76
f 76 139 140
f 76 140 78
f 78 140 141
f 78 141 80
f 80 141 142
f 80 142 82
f 82 142 143
f 82 143 84
f 84 143 144
f 84 144 86
f 86 144 145
f 86 145 88
f 88 145 146
f 88 146 90
f 90 146 147
f 90 147 92
f 92 147 148
f 92 148 94
f 94 132 149
f 94 149 148
f 133 150 151
f 133 151 134
f 150 151 152
f 150 152 153
f 133 150 153
f 133 153 135
f 134 151 154
f 134 154 136
f 151 154 155
f 151 155 152
f 136 154 156
f 136 156 137
f 154 156 157
f 154 157 155
f 137 156 158
f 137 158 138
f 156 158 159
f 156 159 157
f 138 158 160
f 138 160 139
f 158 160 161
f 158 161 159
f 139 160 162
f 139 162 140
f 160 162 163
f 160 163 161
f 140 162 164
f 140 164 141
f 162 164 165
f 162 165 163
f 141 164 166
f 141 166 142
f 164 166 167
f 164 167 165
f 142 166 168
f 142 168 143
f 166 168 169
f 166 169 167
f 143 168 170
f 143 170 144
f 168 170 171
f 168 171 169
f 144 170 172
f 144 172 145
f 170 172 173
f 170 173 171
f 145 172 174
f 145 174 146
f 172 174 175
f 172 175 173
f 146 174 176
f 146 176 147
f 174 176 177
f 174 177 175
f 147 176 178
f 147 178 148
f 176 178 179
f 176 179 177
f 148 149 179
f 148 179 178
f 97 180 181
f 97 181 98
f 97 99 182
f 97 182 180
f 98 181 183
f 98 183 101
f 101 183 184
f 101 184 103
f 103 184 185
f 103 185 105
f 105 185 186
f 105 186 107
f 107 186 187
f 107 187 109
f 109 187 188
f 109 188 111
f 111 188 189
f 111 189 113
f 113 189 190
f 113 190 115
f 115 190 191
f 115 191 117
f 117 191 192
f 117 192 119
f 119 192 193
f 119 193 121
f 121 193 194
f 121 194 123
f 123 194 195
f 123 195 125
f 125 195 196
f 125 196 126
f 99 127 197
f 99 197 182
f 126 196 198
f 126 198 128
f 127 129 199
f 127 199 197
f 128 198 200
f 128 200 130
f 129 131 201
f 129 201 199
f 130 200 202
f 130 202 132
f 131 135 203
f 131 203 201
f 132 202 204
f 132 204 149
f 135 153 205
f 135 205 203
f 149 204 206
f 149 206 179
f 153 207 208
f 153 208 152
f 153 207 209
f 153 209 205
f 152 208 210
f 152 210 155
f 155 210 211
f 155 211 157
f 157 211 212
f 157 212 159
f 159 212 213
f 159 213 161
f 161 213 214
f 161 214 163
f 163 214 215
f 163 215 165
f 165 215 216
f 165 216 167
f 167 216 217
f 167 217 169
f 169 217 218
f 169 218 171
f 171 218 219
f 171 219 173
f 173 219 220
f 173 220 175
f 175 220 221
f 175 221 177
f 177 221 222
f 177 222 179
f 179 206 223
f 179 223 222
f 207 224 225
f 207 225 208
f 224 225 226
f 224 226 227
f 207 224 227
f 207 227 209
f 208 225 228
f 208 228 210
f 225 228 229
f 225 229 226
f 210 228 230
f 210 230 211
f 228 230 231
f 228 231 229
f 211 230 232
f 211 232 212
f 230 232 233
f 230 233 231
f 212 232 234
f 212 234 213
f 232 234 235
f 232 235 233
f 213 234 236
f 213 236 214
f 234 236 237
f 234 237 235
f 214 236 238
f 214 238 215
f 236 238 239
f 236 239 237
f 215 238 240
f 215 240 216
f 238 240 241
f 238 241 239
f 216 240 242
f 216 242 217
f 240 242 243
f 240 243 241
f 217 242 244
f 217 244 218
f 242 244 245
f 242 245 243
f 218 244 246
f 218 246 219
f 244 246 247
f 244 247 245
f 219 246 248
f 219 248 220
f 246 248 249
f 246 249 247
f 220 248 250
f 220 250 221
f 248 250 251
f 248 251 249
f 221 250 252
f 221 252 222
f 250 252 253
f 250 253 251
f 222 223 253
f 222 253 252
f 254 180 181
f 254 181 255
f 254 256 257
f 254 257 255
f 254 180 258
f 254 258 256
f 255 181 183
f 255 183 259
f 255 257 260
f 255 260 259
f 259 183 184
f 259 184 261
f 259 260 262
f 259 262 261
f 261 184 185
f 261 185 263
f 261 262 264
f 261 264 263
f 263 185 186
f 263 186 265
f 263 264 266
f 263 266 265
f 265 186 187
f 265 187 267
f 265 266 268
f 265 268 267
f 267 187 188
f 267 188 269
f 267 268 270
f 267 270 269
f 269 188 189
f 269 189 271
f 269 270 272
f 269 272 271
f 271 189 190
f 271 190 273
f 271 272 274
f 271 274 273
f 273 190 191
f 273 191 275
f 273 274 276
f 273 276 275
f 275 191 192
f 275 192 277
f 275 276 278
f 275 278 277
f 277 192 193
f 277 193 279
f 277 278 280
f 277 280 279
f 279 193 194
f 279 194 281
f 279 280 282
f 279 282 281
f 281 194 195
f 281 195 283
f 281 282 284
f 281 284 283
f 283 284 285
f 283 285 195
f 180 182 286
f 180 286 258
f 195 285 287
f 195 287 196
f 182 197 288
f 182 288 286
f 196 287 289
f 196 289 198
f 197 199 290
f 197 290 288
f 198 289 291
f 198 291 200
f 199 201 292
f 199 292 290
f 200 291 293
f 200 293 202
f 201 203 294
f 201 294 292
f 202 293 295
f 202 295 204
f 203 205 296
f 203 296 294
f 204 295 297
f 204 297 206
f 205 209 298
f 205 298 296
f 206 297 299
f 206 299 223
f 209 227 300
f 209 300 298
f 223 299 301
f 223 301 253
f 227 302 303
f 227 303 226
f 227 302 304
f 227 304 300
f 226 303 305
f 226 305 229
f 229 305 306
f 229 306 231
f 231 306 307
f 231 307 233
f 233 307 308
f 233 308 235
f 235 308 309
f 235 309 237
f 237 309 310
f 237 310 239
f 239 310 311
f 239 311 241
f 241 311 312
f 241 312 243
f 243 312 313
f 243 313 245
f 245 313 314
f 245 314 247
f 247 314 315
f 247 315 249
f 249 315 316
f 249 316 251
f 251 316 317
f 251 317 253
f 253 301 318
f 253 318 317
f 302 319 320
f 302 320 303
f 302 319 321
f 302 321 304
f 303 320 322
f 303 322 305
f 305 322 323
f 305 323 306
f 306 323 324
f 306 324 307
f 307 324 325
f 307 325 308
f 308 325 326
f 308 326 309
f 309 326 327
f 309 327 310
f 310 327 328
f 310 328 311
f 311 328 329
f 311 329 312
f 312 329 330
f 312 330 313
f 313 330 331
f 313 331 314
f 314 331 332
f 314 332 315
f 315 332 333
f 315 333 316
f 316 333 334
f 316 334 317
f 317 318 335
f 317 335 334
f 319 336 337
f 319 337 320
f 336 337 338
f 336 338 339
f 319 336 339
f 319 339 321
f 320 337 340
f 320 340 322
f 337 340 341
f 337 341 338
f 322 340 342
f 322 342 323
f 340 342 343
f 340 343 341
f 323 342 344
f 323 344 324
f 342 344 345
f 342 345 343
f 324 344 346
f 324 346 325
f 344 346 347
f 344 347 345
f 325 346 348
f 325 348 326
f 346 348 349
f 346 349 347
f 326 348 350
f 326 350 327
f 348 350 351
f 348 351 349
f 327 350 352
f 327 352 328
f 350 352 353
f 350 353 351
f 328 352 354
f 328 354 329
f 352 354 355
f 352 355 353
f 329 354 356
f 329 356 330
f 354 356 357
f 354 357 355
f 330 356 358
f 330 358 331
f 356 358 359
f 356 359 357
f 331 358 360
f 331 360 332
f 358 360 361
f 358 361 359
f 332 360 362
f 332 362 333
f 360 362 363
f 360 363 361
f 333 362 364
f 333 364 334
f 362 364 365
f 362 365 363
f 334 335 365
f 334 365 364
f 366 256 257
f 366 257 367
f 366 368 369
f 366 369 367
f 366 256 370
f 366 370 368
f 367 257 260
f 367 260 371
f 367 369 372
f 367 372 371
f 371 260 262
f 371 262 373
f 371 372 374
f 371 374 373
f 373 262 264
f 373 264 375
f 373 374 376
f 373 376 375
f 375 264 266
f 375 266 377
f 375 376 378
f 375 378 377
f 377 266 268
f 377 268 379
f 377 378 380
f 377 380 379
f 379 268 270
f 379 270 381
f 379 380 382
f 379 382 381
f 381 270 272
f 381 272 383
f 381 382 384
f 381 384 383
f 383 272 274
f 383 274 385
f 383 384 386
f 383 386 385
f 385 274 276
f 385 276 387
f 385 386 388
f 385 388 387
f 387 276 278
f 387 278 389
f 387 388 390
f 387 390 389
f 389 278 280
f 389 280 391
f 389 390 392
f 389 392 391
f 391 280 282
f 391 282 393
f 391 392 394
f 391 394 393
f 393 282 284
f 393 284 395
f 393 394 396
f 393 396 395
f 395 396 397
f 395 397 284
f 256 258 398
f 256 398 370
f 284 397 399
f 284 399 285
f 258 286 400
f 258 400 398
f 285 399 401
f 285 401 287
f 286 288 402
f 286 402 400
f 287 401 403
f 287 403 289
f 288 290 404
f 288 404 402
f 289 403 405
f 289 405 291
f 290 292 406
f 290 406 404
f 291 405 407
f 291 407 293
f 292 294 408
f 292 408 406
f 293 407 409
f 293 409 295
f 294 296 410
f 294 410 408
f 295 409 411
f 295 411 297
f 296 298 412
f 296 412 410
f 297 411 413
f 297 413 299
f 298 300 414
f 298 414 412
f 299 413 415
f 299 415 301
f 300 304 416
f 300 416 414
f 301 415 417
f 301 417 318
f 304 321 418
f 304 418 416
f 318 417 419
f 318 419 335
f 339 338 420
f 339 420 421
f 321 339 421
f 321 421 418
f 338 341 422
f 338 422 420
f 341 343 423
f 341 423 422
f 343 345 424
f 343 424 423
f 345 347 425
f 345 425 424
f 347 349 426
f 347 426 425
f 349 351 427
f 349 427 426
f 351 353 428
f 351 428 427
f 353 355 429
f 353 429 428
f 355 357 430
f 355 430 429
f 357 359 431
f 357 431 430
f 359 361 432
f 359 432 431
f 361 363 433
f 361 433 432
f 363 365 434
f 363 434 433
f 335 419 434
f 335 434 365
f 435 368 369
f 435 369 436
f 435 437 438
f 435 438 436
f 435 368 439
f 435 439 437
f 436 369 372
f 436 372 440
f 436 438 441
f 436 441 440
f 440 372 374
f 440 374 442
f 440 441 443
f 440 443 442
f 442 374 376
f 442 376 444
f 442 443 445
f 442 445 444
f 444 376 378
f 444 378 446
f 444 445 447
f 444 447 446
f 446 378 380
f 446 380 448
f 446 447 449
f 446 449 448
f 448 380 382
f 448 382 450
f 448 449 451
f 448 451 450
f 450 382 384
f 450 384 452
f 450 451 453
f 450 453 452
f 452 384 386
f 452 386 454
f 452 453 455
f 452 455 454
f 454 386 388
f 454 388 456
f 454 455 457
f 454 457 456
f 456 388 390
f 456 390 458
f 456 457 459
f 456 459 458
f 458 390 392
f 458 392 460
f 458 459 461
f 458 461 460
f 460 392 394
f 460 394 462
f 460 461 463
f 460 463 462
f 462 394 396
f 462 396 464
f 462 463 465
f 462 465 464
f 464 465 466
f 464 466 396
f 368 370 467
f 368 467 439
f 396 466 468
f 396 468 397
f 370 398 469
f 370 469 467
f 397 468 470
f 397 470 399
f 398 400 471
f 398 471 469
f 399 470 472
f 399 472 401
f 400 402 473
f 400 473 471
f 401 472 474
f 401 474 403
f 402 404 475
f 402 475 473
f 403 474 476
f 403 476 405
f 404 406 477
f 404 477 475
f 405 476 478
f 405 478 407
f 406 408 479
f 406 479 477
f 407 478 480
f 407 480 409
f 408 410 481
f 408 481 479
f 409 480 482
f 409 482 411
f 410 412 483
f 410 483 481
f 411 482 484
f 411 484 413
f 412 414 485
f 412 485 483
f 413 484 486
f 413 486 415
f 414 416 487
f 414 487 485
f 415 486 488
f 415 488 417
f 416 418 489
f 416 489 487
f 417 488 490
f 417 490 419
f 489 491 492
f 489 492 493
f 421 420 492
f 421 492 493
f 418 421 493
f 418 493 489
f 491 494 495
f 491 495 492
f 420 422 495
f 420 495 492
f 494 496 497
f 494 497 495
f 422 423 497
f 422 497 495
f 496 498 499
f 496 499 497
f 423 424 499
f 423 499 497
f 498 500 501
f 498 501 499
f 424 425 501
f 424 501 499
f 500 502 503
f 500 503 501
f 425 426 503
f 425 503 501
f 502 504 505
f 502 505 503
f 426 427 505
f 426 505 503
f 504 506 507
f 504 507 505
f 427 428 507
f 427 507 505
f 506 508 509
f 506 509 507
f 428 429 509
f 428 509 507
f 508 510 511
f 508 511 509
f 429 430 511
f 429 511 509
f 510 512 513
f 510 513 511
f 430 431 513
f 430 513 511
f 512 514 515
f 512 515 513
f 431 432 515
f 431 515 513
f 514 516 517
f 514 517 515
f 432 433 517
f 432 517 515
f 516 490 518
f 516 518 517
f 433 434 518
f 433 518 517
f 419 490 518
f 419 518 434
f 519 437 438
f 519 438 520
f 519 521 522
f 519 522 520
f 519 437 523
f 519 523 521
f 520 438 441
f 520 441 524
f 520 522 525
f 520 525 524
f 524 441 443
f 524 443 526
f 524 525 527
f 524 527 526
f 526 443 445
f 526 445 528
f 526 527 529
f 526 529 528
f 528 445 447
f 528 447 530
f 528 529 531
f 528 531 530
f 530 447 449
f 530 449 532
f 530 531 533
f 530 533 532
f 532 449 451
f 532 451 534
f 532 533 535
f 532 535 534
f 534 451 453
f 534 453 536
f 534 535 537
f 534 537 536
f 536 453 455
f 536 455 538
f 536 537 539
f 536 539 538
f 538 455 457
f 538 457 540
f 538 539 541
f 538 541 540
f 540 457 459
f 540 459 542
f 540 541 543
f 540 543 542
f 542 459 461
f 542 461 544
f 542 543 545
f 542 545 544
f 544 461 463
f 544 463 546
f 544 545 547
f 544 547 546
f 546 463 465
f 546 465 548
f 546 547 549
f 546 549 548
f 548 549 550
f 548 550 465
f 437 439 551
f 437 551 523
f 465 550 552
f 465 552 466
f 439 467 553
f 439 553 551
f 466 552 554
f 466 554 468
f 467 469 555
f 467 555 553
f 468 554 556
f 468 556 470
f 469 471 557
f 469 557 555
f 470 556 558
f 470 558 472
f 471 473 559
f 471 559 557
f 472 558 560
f 472 560 474
f 473 475 561
f 473 561 559
f 474 560 562
f 474 562 476
f 475 477 563
f 475 563 561
f 476 562 564
f 476 564 478
f 477 479 565
f 477 565 563
f 478 564 566
f 478 566 480
f 479 481 567
f 479 567 565
f 480 566 568
f 480 568 482
f 481 483 569
f 481 569 567
f 482 568 570
f 482 570 484
f 483 485 571
f 483 571 569
f 484 570 572
f 484 572 486
f 485 487 573
f 485 573 571
f 486 572 574
f 486 574 488
f 489 491 575
f 489 575 576
f 487 489 576
f 487 576 573
f 491 494 577
f 491 577 575
f 494 496 578
f 494 578 577
f 496 498 579
f 496 579 578
f 498 500 580
f 498 580 579
f 500 502 581
f 500 581 580
f 502 504 582
f 502 582 581
f 504 506 583
f 504 583 582
f 506 508 584
f 506 584 583
f 508 510 585
f 508 585 584
f 510 512 586
f 510 586 585
f 512 514 587
f 512 587 586
f 514 516 588
f 514 588 587
f 516 490 589
f 516 589 588
f 488 574 589
f 488 589 490
f 590 521 522
f 590 522 591
f 590 592 593
f 590 593 591
f 590 521 594
f 590 594 592
f 591 522 525
f 591 525 595
f 591 593 596
f 591 596 595
f 595 525 527
f 595 527 597
f 595 596 598
f 595 598 597
f 597 527 529
f 597 529 599
f 597 598 600
f 597 600 599
f 599 529 531
f 599 531 601
f 599 600 602
f 599 602 601
f 601 531 533
f 601 533 603
f 601 602 604
f 601 604 603
f 603 533 535
f 603 535 605
f 603 604 606
f 603 606 605
f 605 535 537
f 605 537 607
f 605 606 608
f 605 608 607
f 607 537 539
f 607 539 609
f 607 608 610
f 607 610 609
f 609 539 541
f 609 541 611
f 609 610 612
f 609 612 611
f 611 541 543
f 611 543 613
f 611 612 614
f 611 614 613
f 613 543 545
f 613 545 615
f 613 614 616
f 613 616 615
f 615 545 547
f 615 547 617
f 615 616 618
f 615 618 617
f 617 547 549
f 617 549 619
f 617 618 620
f 617 620 619
f 619 620 621
f 619 621 549
f 521 523 622
f 521 622 594
f 549 621 623
f 549 623 550
f 523 551 624
f 523 624 622
f 550 623 625
f 550 625 552
f 551 553 626
f 551 626 624
f 552 625 627
f 552 627 554
f 553 555 628
f 553 628 626
f 554 627 629
f 554 629 556
f 555 557 630
f 555 630 628
f 556 629 631
f 556 631 558
f 557 559 632
f 557 632 630
f 558 631 633
f 558 633 560
f 559 561 634
f 559 634 632
f 560 633 635
f 560 635 562
f 561 563 636
f 561 636 634
f 562 635 637
f 562 637 564
f 563 565 638
f 563 638 636
f 564 637 639
f 564 639 566
f 565 567 640
f 565 640 638
f 566 639 641
f 566 641 568
f 567 569 642
f 567 642 640
f 568 641 643
f 568 643 570
f 569 571 644
f 569 644 642
f 570 643 645
f 570 645 572
f 571 573 646
f 571 646 644
f 572 645 647
f 572 647 574
f 646 648 649
f 646 649 650
f 576 575 649
f 576 649 650
f 573 576 650
f 573 650 646
f 648 651 652
f 648 652 649
f 575 577 652
f 575 652 649
f 651 653 654
f 651 654 652
f 577 578 654
f 577 654 652
f 653 655 656
f 653 656 654
f 578 579 656
f 578 656 654
f 655 657 658
f 655 658 656
f 579 580 658
f 579 658 656
f 657 659 660
f 657 660 658
f 580 581 660
f 580 660 658
f 659 661 662
f 659 662 660
f 581 582 662
f 581 662 660
f 661 663 664
f 661 664 662
f 582 583 664
f 582 664 662
f 663 665 666
f 663 666 664
f 583 584 666
f 583 666 664
f 665 667 668
f 665 668 666
f 584 585 668
f 584 668 666
f 667 669 670
f 667 670 668
f 585 586 670
f 585 670 668
f 669 671 672
f 669 672 670
f 586 587 672
f 586 672 670
f 671 673 674
f 671 674 672
f 587 588 674
f 587 674 672
f 673 647 675
f 673 675 674
f 588 589 675
f 588 675 674
f 574 647 675
f 574 675 589
f 592 676 677
f 592 677 593
f 592 594 678
f 592 678 676
f 593 677 679
f 593 679 596
f 596 679 680
f 596 680 598
f 598 680 681
f 598 681 600
f 600 681 682
f 600 682 602
f 602 682 683
f 602 683 604
f 604 683 684
f 604 684 606
f 606 684 685
f 606 685 608
f 608 685 686
f 608 686 610
f 610 686 687
f 610 687 612
f 612 687 688
f 612 688 614
f 614 688 689
f 614 689 616
f 616 689 690
f 616 690 618
f 618 690 691
f 618 691 620
f 620 691 692
f 620 692 621
f 594 622 693
f 594 693 678
f 621 692 694
f 621 694 623
f 622 624 695
f 622 695 693
f 623 694 696
f 623 696 625
f 624 626 697
f 624 697 695
f 625 696 698
f 625 698 627
f 626 628 699
f 626 699 697
f 627 698 700
f 627 700 629
f 628 630 701
f 628 701 699
f 629 700 702
f 629 702 631
f 630 632 703
f 630 703 701
f 631 702 704
f 631 704 633
f 632 634 705
f 632 705 703
f 633 704 706
f 633 706 635
f 634 636 707
f 634 707 705
f 635 706 708
f 635 708 637
f 636 638 709
f 636 709 707
f 637 708 710
f 637 710 639
f 638 640 711
f 638 711 709
f 639 710 712
f 639 712 641
f 640 642 713
f 640 713 711
f 641 712 714
f 641 714 643
f 642 644 715
f 642 715 713
f 643 714 716
f 643 716 645
f 715 717 718
f 715 718 719
f 646 648 718
f 646 718 719
f 644 646 719
f 644 719 715
f 717 720 721
f 717 721 718
f 648 651 721
f 648 721 718
f 720 722 723
f 720 723 721
f 651 653 723
f 651 723 721
f 722 724 725
f 722 725 723
f 653 655 725
f 653 725 723
f 724 726 727
f 724 727 725
f 655 657 727
f 655 727 725
f 726 728 729
f 726 729 727
f 657 659 729
f 657 729 727
f 728 730 731
f 728 731 729
f 659 661 731
f 659 731 729
f 730 732 733
f 730 733 731
f 661 663 733
f 661 733 731
f 732 734 735
f 732 735 733
f 663 665 735
f 663 735 733
f 734 736 737
f 734 737 735
f 665 667 737
f 665 737 735
f 736 738 739
f 736 739 737
f 667 669 739
f 667 739 737
f 738 740 741
f 738 741 739
f 669 671 741
f 669 741 739
f 740 742 743
f 740 743 741
f 671 673 743
f 671 743 741
f 742 716 744
f 742 744 743
f 673 647 744
f 673 744 743
f 645 716 744
f 645 744 647
f 676 745 746
f 676 746 677
f 676 678 747
f 676 747 745
f 677 746 748
f 677 748 679
f 679 748 749
f 679 749 680
f 680 749 750
f 680 750 681
f 681 750 751
f 681 751 682
f 682 751 752
f 682 752 683
f 683 752 753
f 683 753 684
f 684 753 754
f 684 754 685
f 685 754 755
f 685 755 686
f 686 755 756
f 686 756 687
f 687 756 757
f 687 757 688
f 688 757 758
f 688 758 689
f 689 758 759
f 689 759 690
f 690 759 760
f 690 760 691
f 691 760 761
f 691 761 692
f 678 693 762
f 678 762 747
f 692 761 763
f 692 763 694
f 693 695 764
f 693 764 762
f 694 763 765
f 694 765 696
f 695 697 766
f 695 766 764
f 696 765 767
f 696 767 698
f 697 699 768
f 697 768 766
f 698 767 769
f 698 769 700
f 699 701 770
f 699 770 768
f 700 769 771
f 700 771 702
f 701 703 772
f 701 772 770
f 702 771 773
f 702 773 704
f 703 705 774
f 703 774 772
f 704 773 775
f 704 775 706
f 705 707 776
f 705 776 774
f 706 775 777
f 706 777 708
f 707 709 778
f 707 778 776
f 708 777 779
f 708 779 710
f 709 711 780
f 709 780 778
f 710 779 781
f 710 781 712
f 711 713 782
f 711 782 780
f 712 781 783
f 712 783 714
f 782 784 785
f 782 785 786
f 715 717 785
f 715 785 786
f 713 715 786
f 713 786 782
f 784 787 788
f 784 788 785
f 717 720 788
f 717 788 785
f 787 789 790
f 787 790 788
f 720 722 790
f 720 790 788
f 789 791 792
f 789 792 790
f 722 724 792
f 722 792 790
f 791 793 794
f 791 794 792
f 724 726 794
f 724 794 792
f 793 795 796
f 793 796 794
f 726 728 796
f 726 796 794
f 795 797 798
f 795 798 796
f 728 730 798
f 728 798 796
f 797 799 800
f 797 800 798
f 730 732 800
f 730 800 798
f 799 801 802
f 799 802 800
f 732 734 802
f 732 802 800
f 801 803 804
f 801 804 802
f 734 736 804
f 734 804 802
f 803 805 806
f 803 806 804
f 736 738 806
f 736 806 804
f 805 807 808
f 805 808 806
f 738 740 808
f 738 808 806
f 807 809 810
f 807 810 808
f 740 742 810
f 740 810 808
f 809 783 811
f 809 811 810
f 742 716 811
f 742 811 810
f 714 783 811
f 714 811 716
f 745 812 813
f 745 813 746
f 745 747 814
f 745 814 812
f 746 813 815
f 746 815 748
f 748 815 816
f 748 816 749
f 749 816 817
f 749 817 750
f 750 817 818
f 750 818 751
f 751 818 819
f 751 819 752
f 752 819 820
f 752 820 753
f 753 820 821
f 753 821 754
f 754 821 822
f 754 822 755
f 755 822 823
f 755 823 756
f 756 823 824
f 756 824 757
f 757 824 825
f 757 825 758
f 758 825 826
f 758 826 759
f 759 826 827
f 759 827 760
f 760 827 828
f 760 828 761
f 747 762 829
f 747 829 814
f 761 828 830
f 761 830 763
f 762 764 831
f 762 831 829
f 763 830 832
f 763 832 765
f 764 766 833
f 764 833 831
f 765 832 834
f 765 834 767
f 766 768 835
f 766 835 833
f 767 834 836
f 767 836 769
f 768 770 837
f 768 837 835
f 769 836 838
f 769 838 771
f 770 772 839
f 770 839 837
f 771 838 840
f 771 840 773
f 772 774 841
f 772 841 839
f 773 840 842
f 773 842 775
f 774 776 843
f 774 843 841
f 775 842 844
f 775 844 777
f 776 778 845
f 776 845 843
f 777 844 846
f 777 846 779
f 778 780 847
f 778 847 845
f 779 846 848
f 779 848 781
f 847 849 850
f 847 850 851
f 782 784 850
f 782 850 851
f 780 782 851
f 780 851 847
f 849 852 853
f 849 853 850
f 784 787 853
f 784 853 850
f 852 854 855
f 852 855 853
f 787 789 855
f 787 855 853
f 854 856 857
f 854 857 855
f 789 791 857
f 789 857 855
f 856 858 859
f 856 859 857
f 791 793 859
f 791 859 857
f 858 860 861
f 858 861 859
f 793 795 861
f 793 861 859
f 860 862 863
f 860 863 861
f 795 797 863
f 795 863 861
f 862 864 865
f 862 865 863
f 797 799 865
f 797 865 863
f 864 866 867
f 864 867 865
f 799 801 867
f 799 867 865
f 866 868 869
f 866 869 867
f 801 803 869
f 801 869 867
f 868 870 871
f 868 871 869
f 803 805 871
f 803 871 869
f 870 872 873
f 870 873 871
f 805 807 873
f 805 873 871
f 872 874 875
f 872 875 873
f 807 809 875
f 807 875 873
f 874 848 876
f 874 876 875
f 809 783 876
f 809 876 875
f 781 848 876
f 781 876 783
f 812 877 878
f 812 878 813
f 812 814 879
f 812 879 877
f 813 878 880
f 813 880 815
f 815 880 881
f 815 881 816
f 816 881 882
f 816 882 817
f 817 882 883
f 817 883 818
f 818 883 884
f 818 884 819
f 819 884 885
f 819 885 820
f 820 885 886
f 820 886 821
f 821 886 887
f 821 887 822
f 822 887 888
f 822 888 823
f 823 888 889
f 823 889 824
f 824 889 890
f 824 890 825
f 825 890 891
f 825 891 826
f 826 891 892
f 826 892 827
f 827 892 893
f 827 893 828
f 814 829 894
f 814 894 879
f 828 893 895
f 828 895 830
f 829 831 896
f 829 896 894
f 830 895 897
f 830 897 832
f 831 833 898
f 831 898 896
f 832 897 899
f 832 899 834
f 833 835 900
f 833 900 898
f 834 899 901
f 834 901 836
f 835 837 902
f 835 902 900
f 836 901 903
f 836 903 838
f 837 839 904
f 837 904 902
f 838 903 905
f 838 905 840
f 839 841 906
f 839 906 904
f 840 905 907
f 840 907 842
f 841 843 908
f 841 908 906
f 842 907 909
f 842 909 844
f 843 845 910
f 843 910 908
f 844 909 911
f 844 911 846
f 910 912 913
f 910 913 914
f 847 849 913
f 847 913 914
f 845 847 914
f 845 914 910
f 912 915 916
f 912 916 913
f 849 852 916
f 849 916 913
f 915 917 918
f 915 918 916
f 852 854 918
f 852 918 916
f 917 919 920
f 917 920 918
f 854 856 920
f 854 920 918
f 919 921 922
f 919 922 920
f 856 858 922
f 856 922 920
f 921 923 924
f 921 924 922
f 858 860 924
f 858 924 922
f 923 925 926
f 923 926 924
f 860 862 926
f 860 926 924
f 925 927 928
f 925 928 926
f 862 864 928
f 862 928 926
f 927 929 930
f 927 930 928
f 864 866 930
f 864 930 928
f 929 931 932
f 929 932 930
f 866 868 932
f 866 932 930
f 931 933 934
f 931 934 932
f 868 870 934
f 868 934 932
f 933 935 936
f 933 936 934
f 870 872 936
f 870 936 934
f 935 937 938
f 935 938 936
f 872 874 938
f 872 938 936
f 937 911 939
f 937 939 938
f 874 848 939
f 874 939 938
f 846 911 939
f 846 939 848
f 877 940 941
f 877 941 878
f 877 879 942
f 877 942 940
f 878 941 943
f 878 943 880
f 880 943 944
f 880 944 881
f 881 944 945
f 881 945 882
f 882 945 946
f 882 946 883
f 883 946 947
f 883 947 884
f 884 947 948
f 884 948 885
f 885 948 949
f 885 949 886
f 886 949 950
f 886 950 887
f 887 950 951
f 887 951 888
f 888 951 952
f 888 952 889
f 889 952 953
f 889 953 890
f 890 953 954
f 890 954 891
f 891 954 955
f 891 955 892
f 892 955 956
f 892 956 893
f 879 894 957
f 879 957 942
f 893 956 958
f 893 958 895
f 894 896 959
f 894 959 957
f 895 958 960
f 895 960 897
f 896 898 961
f 896 961 959
f 897 960 962
f 897 962 899
f 898 900 963
f 898 963 961
f 899 962 964
f 899 964 901
f 900 902 965
f 900 965 963
f 901 964 966
f 901 966 903
f 902 904 967
f 902 967 965
f 903 966 968
f 903 968 905
f 904 906 969
f 904 969 967
f 905 968 970
f 905 970 907
f 906 908 971
f 906 971 969
f 907 970 972
f 907 972 909
f 910 912 973
f 910 973 974
f 908 910 974
f 908 974 971
f 912 915 975
f 912 975 973
f 915 917 976
f 915 976 975
f 917 919 977
f 917 977 976
f 919 921 978
f 919 978 977
f 921 923 979
f 921 979 978
f 923 925 980
f 923 980 979
f 925 927 981
f 925 981 980
f 927 929 982
f 927 982 981
f 929 931 983
f 929 983 982
f 931 933 984
f 931 984 983
f 933 935 985
f 933 985 984
f 935 937 986
f 935 986 985
f 937 911 987
f 937 987 986
f 909 972 987
f 909 987 911
f 940 988 989
f 940 989 941
f 940 942 990
f 940 990 988
f 941 989 991
f 941 991 943
f 943 991 992
f 943 992 944
f 944 992 993
f 944 993 945
f 945 993 994
f 945 994 946
f 946 994 995
f 946 995 947
f 947 995 996
f 947 996 948
f 948 996 997
f 948 997 949
f 949 997 998
f 949 998 950
f 950 998 999
f 950 999 951
f 951 999 1000
f 951 1000 952
f 952 1000 1001
f 952 1001 953
f 953 1001 1002
f 953 1002 954
f 954 1002 1003
f 954 1003 955
f 955 1003 1004
f 955 1004 956
f 942 957 1005
f 942 1005 990
f 956 1004 1006
f 956 1006 958
f 957 959 1007
f 957 1007 1005
f 958 1006 1008
f 958 1008 960
f 959 961 1009
f 959 1009 1007
f 960 1008 1010
f 960 1010 962
f 961 963 1011
f 961 1011 1009
f 962 1010 1012
f 962 1012 964
f 963 965 1013
f 963 1013 1011
f 964 1012 1014
f 964 1014 966
f 965 967 1015
f 965 1015 1013
f 966 1014 1016
f 966 1016 968
f 967 969 1017
f 967 1017 1015
f 968 1016 1018
f 968 1018 970
f 969 971 1019
f 969 1019 1017
f 970 1018 1020
f 970 1020 972
f 1019 1021 1022
f 1019 1022 1023
f 974 973 1022
f 974 1022 1023
f 971 974 1023
f 971 1023 1019
f 1021 1024 1025
f 1021 1025 1022
f 973 975 1025
f 973 1025 1022
f 1024 1026 1027
f 1024 1027 1025
f 975 976 1027
f 975 1027 1025
f 1026 1028 1029
f 1026 1029 1027
f 976 977 1029
f 976 1029 1027
f 1028 1030 1031
f 1028 1031 1029
f 977 978 1031
f 977 1031 1029
f 1030 1032 1033
f 1030 1033 1031
f 978 979 1033
f 978 1033 1031
f 1032 1034 1035
f 1032 1035 1033
f 979 980 1035
f 979 1035 1033
f 1034 1036 1037
f 1034 1037 1035
f 980 981 1037
f 980 1037 1035
f 1036 1038 1039
f 1036 1039 1037
f 981 982 1039
f 981 1039 1037
f 1038 1040 1041
f 1038 1041 1039
f 982 983 1041
f 982 1041 1039
f 1040 1042 1043
f 1040 1043 1041
f 983 984 1043
f 983 1043 1041
f 1042 1044 1045
f 1042 1045 1043
f 984 985 1045
f 984 1045 1043
f 1044 1046 1047
f 1044 1047 1045
f 985 986 1047
f 985 1047 1045
f 1046 1020 1048
f 1046 1048 1047
f 986 987 1048
f 986 1048 1047
f 972 1020 1048
f 972 1048 987
f 1049 1050 1051
f 1049 1051 1052
f 988 1049 1050
f 988 1050 989
f 988 990 1052
f 988 1052 1049
f 1050 1053 1054
f 1050 1054 1051
f 989 1050 1053
f 989 1053 991
f 1053 1055 1056
f 1053 1056 1054
f 991 1053 1055
f 991 1055 992
f 1055 1057 1058
f 1055 1058 1056
f 992 1055 1057
f 992 1057 993
f 1057 1059 1060
f 1057 1060 1058
f 993 1057 1059
f 993 1059 994
f 1059 1061 1062
f 1059 1062 1060
f 994 1059 1061
f 994 1061 995
f 1061 1063 1064
f 1061 1064 1062
f 995 1061 1063
f 995 1063 996
f 1063 1065 1066
f 1063 1066 1064
f 996 1063 1065
f 996 1065 997
f 1065 1067 1068
f 1065 1068 1066
f 997 1065 1067
f 997 1067 998
f 1067 1069 1070
f 1067 1070 1068
f 998 1067 1069
f 998 1069 999
f 1069 1071 1072
f 1069 1072 1070
f 999 1069 1071
f 999 1071 1000
f 1071 1073 1074
f 1071 1074 1072
f 1000 1071 1073
f 1000 1073 1001
f 1073 1075 1076
f 1073 1076 1074
f 1001 1073 1075
f 1001 1075 1002
f 1075 1077 1078
f 1075 1078 1076
f 1002 1075 1077
f 1002 1077 1003
f 1003 1077 1078
f 1003 1078 1004
f 1052 1051 1079
f 1052 1079 1080
f 990 1005 1080
f 990 1080 1052
f 1051 1054 1081
f 1051 1081 1079
f 1054 1056 1082
f 1054 1082 1081
f 1056 1058 1083
f 1056 1083 1082
f 1058 1060 1084
f 1058 1084 1083
f 1060 1062 1085
f 1060 1085 1084
f 1062 1064 1086
f 1062 1086 1085
f 1064 1066 1087
f 1064 1087 1086
f 1066 1068 1088
f 1066 1088 1087
f 1068 1070 1089
f 1068 1089 1088
f 1070 1072 1090
f 1070 1090 1089
f 1072 1074 1091
f 1072 1091 1090
f 1074 1076 1092
f 1074 1092 1091
f 1076 1078 1093
f 1076 1093 1092
f 1004 1078 1093
f 1004 1093 1006
f 1005 1007 1094
f 1005 1094 1080
f 1006 1093 1095
f 1006 1095 1008
f 1007 1009 1096
f 1007 1096 1094
f 1008 1095 1097
f 1008 1097 1010
f 1009 1011 1098
f 1009 1098 1096
f 1010 1097 1099
f 1010 1099 1012
f 1011 1013 1100
f 1011 1100 1098
f 1012 1099 1101
f 1012 1101 1014
f 1013 1015 1102
f 1013 1102 1100
f 1014 1101 1103
f 1014 1103 1016
f 1015 1017 1104
f 1015 1104 1102
f 1016 1103 1105
f 1016 1105 1018
f 1104 1106 1107
f 1104 1107 1108
f 1019 1021 1107
f 1019 1107 1108
f 1017 1019 1108
f 1017 1108 1104
f 1106 1109 1110
f 1106 1110 1107
f 1021 1024 1110
f 1021 1110 1107
f 1109 1111 1112
f 1109 1112 1110
f 1024 1026 1112
f 1024 1112 1110
f 1111 1113 1114
f 1111 1114 1112
f 1026 1028 1114
f 1026 1114 1112
f 1113 1115 1116
f 1113 1116 1114
f 1028 1030 1116
f 1028 1116 1114
f 1115 1117 1118
f 1115 1118 1116
f 1030 1032 1118
f 1030 1118 1116
f 1117 1119 1120
f 1117 1120 1118
f 1032 1034 1120
f 1032 1120 1118
f 1119 1121 1122
f 1119 1122 1120
f 1034 1036 1122
f 1034 1122 1120
f 1121 1123 1124
f 1121 1124 1122
f 1036 1038 1124
f 1036 1124 1122
f 1123 1125 1126
f 1123 1126 1124
f 1038 1040 1126
f 1038 1126 1124
f 1125 1127 1128
f 1125 1128 1126
f 1040 1042 1128
f 1040 1128 1126
f 1127 1129 1130
f 1127 1130 1128
f 1042 1044 1130
f 1042 1130 1128
f 1129 1131 1132
f 1129 1132 1130
f 1044 1046 1132
f 1044 1132 1130
f 1131 1105 1133
f 1131 1133 1132
f 1046 1020 1133
f 1046 1133 1132
f 1018 1105 1133
f 1018 1133 1020
f 1134 1135 1136
f 1134 1136 1137
f 1080 1134 1135
f 1080 1135 1079
f 1080 1094 1137
f 1080 1137 1134
f 1135 1138 1139
f 1135 1139 1136
f 1079 1135 1138
f 1079 1138 1081
f 1138 1140 1141
f 1138 1141 1139
f 1081 1138 1140
f 1081 1140 1082
f 1140 1142 1143
f 1140 1143 1141
f 1082 1140 1142
f 1082 1142 1083
f 1142 1144 1145
f 1142 1145 1143
f 1083 1142 1144
f 1083 1144 1084
f 1144 1146 1147
f 1144 1147 1145
f 1084 1144 1146
f 1084 1146 1085
f 1146 1148 1149
f 1146 1149 1147
f 1085 1146 1148
f 1085 1148 1086
f 1148 1150 1151
f 1148 1151 1149
f 1086 1148 1150
f 1086 1150 1087
f 1150 1152 1153
f 1150 1153 1151
f 1087 1150 1152
f 1087 1152 1088
f 1152 1154 1155
f 1152 1155 1153
f 1088 1152 1154
f 1088 1154 1089
f 1154 1156 1157
f 1154 1157 1155
f 1089 1154 1156
f 1089 1156 1090
f 1156 1158 1159
f 1156 1159 1157
f 1090 1156 1158
f 1090 1158 1091
f 1158 1160 1161
f 1158 1161 1159
f 1091 1158 1160
f 1091 1160 1092
f 1160 1162 1163
f 1160 1163 1161
f 1092 1160 1162
f 1092 1162 1093
f 1093 1162 1163
f 1093 1163 1095
f 1137 1136 1164
f 1137 1164 1165
f 1094 1096 1165
f 1094 1165 1137
f 1136 1139 1166
f 1136 1166 1164
f 1139 1141 1167
f 1139 1167 1166
f 1141 1143 1168
f 1141 1168 1167
f 1143 1145 1169
f 1143 1169 1168
f 1145 1147 1170
f 1145 1170 1169
f 1147 1149 1171
f 1147 1171 1170
f 1149 1151 1172
f 1149 1172 1171
f 1151 1153 1173
f 1151 1173 1172
f 1153 1155 1174
f 1153 1174 1173
f 1155 1157 1175
f 1155 1175 1174
f 1157 1159 1176
f 1157 1176 1175
f 1159 1161 1177
f 1159 1177 1176
f 1161 1163 1178
f 1161 1178 1177
f 1095 1163 1178
f 1095 1178 1097
f 1165 1164 1179
f 1165 1179 1180
f 1096 1098 1180
f 1096 1180 1165
f 1164 1166 1181
f 1164 1181 1179
f 1166 1167 1182
f 1166 1182 1181
f 1167 1168 1183
f 1167 1183 1182
f 1168 1169 1184
f 1168 1184 1183
f 1169 1170 1185
f 1169 1185 1184
f 1170 1171 1186
f 1170 1186 1185
f 1171 1172 1187
f 1171 1187 1186
f 1172 1173 1188
f 1172 1188 1187
f 1173 1174 1189
f 1173 1189 1188
f 1174 1175 1190
f 1174 1190 1189
f 1175 1176 1191
f 1175 1191 1190
f 1176 1177 1192
f 1176 1192 1191
f 1177 1178 1193
f 1177 1193 1192
f 1097 1178 1193
f 1097 1193 1099
f 1180 1179 1194
f 1180 1194 1195
f 1098 1100 1195
f 1098 1195 1180
f 1179 1181 1196
f 1179 1196 1194
f 1181 1182 1197
f 1181 1197 1196
f 1182 1183 1198
f 1182 1198 1197
f 1183 1184 1199
f 1183 1199 1198
f 1184 1185 1200
f 1184 1200 1199
f 1185 1186 1201
f 1185 1201 1200
f 1186 1187 1202
f 1186 1202 1201
f 1187 1188 1203
f 1187 1203 1202
f 1188 1189 1204
f 1188 1204 1203
f 1189 1190 1205
f 1189 1205 1204
f 1190 1191 1206
f 1190 1206 1205
f 1191 1192 1207
f 1191 1207 1206
f 1192 1193 1208
f 1192 1208 1207
f 1099 1193 1208
f 1099 1208 1101
f 1195 1194 1209
f 1195 1209 1210
f 1100 1102 1210
f 1100 1210 1195
f 1194 1196 1211
f 1194 1211 1209
f 1196 1197 1212
f 1196 1212 1211
f 1197 1198 1213
f 1197 1213 1212
f 1198 1199 1214
f 1198 1214 1213
f 1199 1200 1215
f 1199 1215 1214
f 1200 1201 1216
f 1200 1216 1215
f 1201 1202 1217
f 1201 1217 1216
f 1202 1203 1218
f 1202 1218 1217
f 1203 1204 1219
f 1203 1219 1218
f 1204 1205 1220
f 1204 1220 1219
f 1205 1206 1221
f 1205 1221 1220
f 1206 1207 1222
f 1206 1222 1221
f 1207 1208 1223
f 1207 1223 1222
f 1101 1208 1223
f 1101 1223 1103
f 1210 1209 1224
f 1210 1224 1225
f 1104 1106 1224
f 1104 1224 1225
f 1102 1104 1225
f 1102 1225 1210
f 1209 1211 1226
f 1209 1226 1224
f 1106 1109 1226
f 1106 1226 1224
f 1211 1212 1227
f 1211 1227 1226
f 1109 1111 1227
f 1109 1227 1226
f 1212 1213 1228
f 1212 1228 1227
f 1111 1113 1228
f 1111 1228 1227
f 1213 1214 1229
f 1213 1229 1228
f 1113 1115 1229
f 1113 1229 1228
f 1214 1215 1230
f 1214 1230 1229
f 1115 1117 1230
f 1115 1230 1229
f 1215 1216 1231
f 1215 1231 1230
f 1117 1119 1231
f 1117 1231 1230
f 1216 1217 1232
f 1216 1232 1231
f 1119 1121 1232
f 1119 1232 1231
f 1217 1218 1233
f 1217 1233 1232
f 1121 1123 1233
f 1121 1233 1232
f 1218 1219 1234
f 1218 1234 1233
f 1123 1125 1234
f 1123 1234 1233
f 1219 1220 1235
f 1219 1235 1234
f 1125 1127 1235
f 1125 1235 1234
f 1220 1221 1236
f 1220 1236 1235
f 1127 1129 1236
f 1127 1236 1235
f 1221 1222 1237
f 1221 1237 1236
f 1129 1131 1237
f 1129 1237 1236
f 1222 1223 1238
f 1222 1238 1237
f 1131 1105 1238
f 1131 1238 1237
f 1103 1223 1238
f 1103 1238 1105
