o [4B] 3D Diagram - S2-07 Group E_91
v -15.535107 -4.058686 0.112750
v -15.535107 -3.915258 0.112750
v -15.535107 -3.915258 0.389500
v -15.535107 -4.058686 0.389500
v -15.431345 -4.058686 0.112750
v -15.431345 -4.058686 0.389500
v -15.431345 -3.915258 0.389500
v -15.431345 -3.915258 0.112750
v -15.535107 -3.915258 0.666250
v -15.535107 -4.058686 0.666250
v -15.431345 -4.058686 0.666250
v -15.431345 -3.915258 0.666250
v -15.535107 -3.915258 0.943000
v -15.535107 -4.058686 0.943000
v -15.431345 -4.058686 0.943000
v -15.431345 -3.915258 0.943000
v -15.535107 -3.915258 1.219750
v -15.535107 -4.058686 1.219750
v -15.431345 -4.058686 1.219750
v -15.431345 -3.915258 1.219750
v -15.535107 -3.915258 1.496500
v -15.535107 -4.058686 1.496500
v -15.431345 -4.058686 1.496500
v -15.431345 -3.915258 1.496500
v -15.535107 -3.915258 1.773250
v -15.535107 -4.058686 1.773250
v -15.431345 -4.058686 1.773250
v -15.431345 -3.915258 1.773250
v -15.535107 -3.915258 2.050000
v -15.535107 -4.058686 2.050000
v -15.431345 -4.058686 2.050000
v -15.431345 -3.915258 2.050000
v -15.535107 -3.915258 2.326750
v -15.535107 -4.058686 2.326750
v -15.431345 -4.058686 2.326750
v -15.431345 -3.915258 2.326750
v -15.535107 -3.915258 2.603500
v -15.535107 -4.058686 2.603500
v -15.431345 -4.058686 2.603500
v -15.431345 -3.915258 2.603500
v -15.535107 -3.915258 2.880250
v -15.535107 -4.058686 2.880250
v -15.431345 -4.058686 2.880250
v -15.431345 -3.915258 2.880250
v -15.535107 -3.915258 3.157000
v -15.535107 -4.058686 3.157000
v -15.431345 -4.058686 3.157000
v -15.431345 -3.915258 3.157000
v -15.535107 -3.915258 3.433750
v -15.535107 -4.058686 3.433750
v -15.431345 -4.058686 3.433750
v -15.431345 -3.915258 3.433750
v -15.535107 -3.915258 3.710500
v -15.535107 -4.058686 3.710500
v -15.431345 -4.058686 3.710500
v -15.431345 -3.915258 3.710500
v -15.535107 -3.915258 3.987250
v -15.535107 -4.058686 3.987250
v -15.431345 -4.058686 3.987250
v -15.431345 -3.915258 3.987250
v -15.431345 -4.488971 0.112750
v -15.431345 -4.345543 0.112750
v -15.431345 -4.345543 0.389500
v -15.431345 -4.488971 0.389500
v -15.327583 -4.488971 0.112750
v -15.327583 -4.488971 0.389500
v -15.327583 -4.345543 0.112750
v -15.431345 -4.345543 0.666250
v -15.431345 -4.488971 0.666250
v -15.327583 -4.488971 0.666250
v -15.431345 -4.345543 0.943000
v -15.431345 -4.488971 0.943000
v -15.327583 -4.488971 0.943000
v -15.431345 -4.345543 1.219750
v -15.431345 -4.488971 1.219750
v -15.327583 -4.488971 1.219750
v -15.431345 -4.345543 1.496500
v -15.431345 -4.488971 1.496500
v -15.327583 -4.488971 1.496500
v -15.431345 -4.345543 1.773250
v -15.431345 -4.488971 1.773250
v -15.327583 -4.488971 1.773250
v -15.431345 -4.345543 2.050000
v -15.431345 -4.488971 2.050000
v -15.327583 -4.488971 2.050000
v -15.431345 -4.345543 2.326750
v -15.431345 -4.488971 2.326750
v -15.327583 -4.488971 2.326750
v -15.431345 -4.345543 2.603500
v -15.431345 -4.488971 2.603500
v -15.327583 -4.488971 2.603500
v -15.431345 -4.345543 2.880250
v -15.431345 -4.488971 2.880250
v -15.327583 -4.488971 2.880250
v -15.431345 -4.345543 3.157000
v -15.431345 -4.488971 3.157000
v -15.327583 -4.488971 3.157000
v -15.431345 -4.345543 3.433750
v -15.431345 -4.488971 3.433750
v -15.327583 -4.488971 3.433750
v -15.431345 -4.345543 3.710500
v -15.431345 -4.488971 3.710500
v -15.327583 -4.488971 3.710500
v -15.431345 -4.345543 3.987250
v -15.431345 -4.488971 3.987250
v -15.327583 -4.488971 3.987250
v -15.327583 -4.345543 3.987250
v -15.431345 -4.202115 0.112750
v -15.431345 -4.202115 0.389500
v -15.327583 -4.202115 0.112750
v -15.431345 -4.202115 0.666250
v -15.431345 -4.202115 0.943000
v -15.431345 -4.202115 1.219750
v -15.431345 -4.202115 1.496500
v -15.431345 -4.202115 1.773250
v -15.431345 -4.202115 2.050000
v -15.431345 -4.202115 2.326750
v -15.431345 -4.202115 2.603500
v -15.431345 -4.202115 2.880250
v -15.431345 -4.202115 3.157000
v -15.431345 -4.202115 3.433750
v -15.431345 -4.202115 3.710500
v -15.431345 -4.202115 3.987250
v -15.327583 -4.202115 3.987250
v -15.327583 -4.058686 0.112750
v -15.327583 -4.058686 3.987250
v -15.327583 -3.915258 0.112750
v -15.327583 -3.915258 3.987250
v -15.431345 -3.771830 0.112750
v -15.431345 -3.771830 0.389500
v -15.327583 -3.771830 0.389500
v -15.327583 -3.771830 0.112750
v -15.431345 -3.771830 0.666250
v -15.327583 -3.771830 0.666250
v -15.431345 -3.771830 0.943000
v -15.327583 -3.771830 0.943000
v -15.431345 -3.771830 1.219750
v -15.327583 -3.771830 1.219750
v -15.431345 -3.771830 1.496500
v -15.327583 -3.771830 1.496500
v -15.431345 -3.771830 1.773250
v -15.327583 -3.771830 1.773250
v -15.431345 -3.771830 2.050000
v -15.327583 -3.771830 2.050000
v -15.431345 -3.771830 2.326750
v -15.327583 -3.771830 2.326750
v -15.431345 -3.771830 2.603500
v -15.327583 -3.771830 2.603500
v -15.431345 -3.771830 2.880250
v -15.327583 -3.771830 2.880250
v -15.431345 -3.771830 3.157000
v -15.327583 -3.771830 3.157000
v -15.431345 -3.771830 3.433750
v -15.327583 -3.771830 3.433750
v -15.431345 -3.771830 3.710500
v -15.327583 -3.771830 3.710500
v -15.431345 -3.771830 3.987250
v -15.327583 -3.771830 3.987250
v -15.327583 -4.775828 0.112750
v -15.327583 -4.632400 0.112750
v -15.327583 -4.632400 0.389500
v -15.327583 -4.775828 0.389500
v -15.223821 -4.775828 0.112750
v -15.223821 -4.775828 0.389500
v -15.223821 -4.632400 0.112750
v -15.327583 -4.632400 0.666250
v -15.327583 -4.775828 0.666250
v -15.223821 -4.775828 0.666250
v -15.327583 -4.632400 0.943000
v -15.327583 -4.775828 0.943000
v -15.223821 -4.775828 0.943000
v -15.327583 -4.632400 1.219750
v -15.327583 -4.775828 1.219750
v -15.223821 -4.775828 1.219750
v -15.327583 -4.632400 1.496500
v -15.327583 -4.775828 1.496500
v -15.223821 -4.775828 1.496500
v -15.327583 -4.632400 1.773250
v -15.327583 -4.775828 1.773250
v -15.223821 -4.775828 1.773250
v -15.327583 -4.632400 2.050000
v -15.327583 -4.775828 2.050000
v -15.223821 -4.775828 2.050000
v -15.327583 -4.632400 2.326750
v -15.327583 -4.775828 2.326750
v -15.223821 -4.775828 2.326750
v -15.327583 -4.632400 2.603500
v -15.327583 -4.775828 2.603500
v -15.223821 -4.775828 2.603500
v -15.327583 -4.632400 2.880250
v -15.327583 -4.775828 2.880250
v -15.223821 -4.775828 2.880250
v -15.327583 -4.632400 3.157000
v -15.327583 -4.775828 3.157000
v -15.223821 -4.775828 3.157000
v -15.327583 -4.632400 3.433750
v -15.327583 -4.775828 3.433750
v -15.223821 -4.775828 3.433750
v -15.327583 -4.632400 3.710500
v -15.327583 -4.775828 3.710500
v -15.223821 -4.775828 3.710500
v -15.327583 -4.632400 3.987250
v -15.327583 -4.775828 3.987250
v -15.223821 -4.775828 3.987250
v -15.223821 -4.632400 3.987250
v -15.223821 -4.488971 0.112750
v -15.223821 -4.488971 3.987250
v -15.223821 -4.345543 0.112750
v -15.223821 -4.345543 3.987250
v -15.223821 -4.202115 0.112750
v -15.223821 -4.202115 3.987250
v -15.223821 -4.058686 0.112750
v -15.223821 -4.058686 3.987250
v -15.223821 -3.915258 0.112750
v -15.223821 -3.915258 3.987250
v -15.223821 -3.771830 0.389500
v -15.223821 -3.771830 0.112750
v -15.223821 -3.771830 0.666250
v -15.223821 -3.771830 0.943000
v -15.223821 -3.771830 1.219750
v -15.223821 -3.771830 1.496500
v -15.223821 -3.771830 1.773250
v -15.223821 -3.771830 2.050000
v -15.223821 -3.771830 2.326750
v -15.223821 -3.771830 2.603500
v -15.223821 -3.771830 2.880250
v -15.223821 -3.771830 3.157000
v -15.223821 -3.771830 3.433750
v -15.223821 -3.771830 3.710500
v -15.223821 -3.771830 3.987250
v -15.223821 -5.062685 0.112750
v -15.223821 -4.919256 0.112750
v -15.223821 -4.919256 0.389500
v -15.223821 -5.062685 0.389500
v -15.120059 -5.062685 0.112750
v -15.120059 -5.062685 0.389500
v -15.120059 -4.919256 0.112750
v -15.223821 -4.919256 0.666250
v -15.223821 -5.062685 0.666250
v -15.120059 -5.062685 0.666250
v -15.223821 -4.919256 0.943000
v -15.223821 -5.062685 0.943000
v -15.120059 -5.062685 0.943000
v -15.223821 -4.919256 1.219750
v -15.223821 -5.062685 1.219750
v -15.120059 -5.062685 1.219750
v -15.223821 -4.919256 1.496500
v -15.223821 -5.062685 1.496500
v -15.120059 -5.062685 1.496500
v -15.223821 -4.919256 1.773250
v -15.223821 -5.062685 1.773250
v -15.120059 -5.062685 1.773250
v -15.223821 -4.919256 2.050000
v -15.223821 -5.062685 2.050000
v -15.120059 -5.062685 2.050000
v -15.223821 -4.919256 2.326750
v -15.223821 -5.062685 2.326750
v -15.120059 -5.062685 2.326750
v -15.223821 -4.919256 2.603500
v -15.223821 -5.062685 2.603500
v -15.120059 -5.062685 2.603500
v -15.223821 -4.919256 2.880250
v -15.223821 -5.062685 2.880250
v -15.120059 -5.062685 2.880250
v -15.223821 -4.919256 3.157000
v -15.223821 -5.062685 3.157000
v -15.120059 -5.062685 3.157000
v -15.223821 -4.919256 3.433750
v -15.223821 -5.062685 3.433750
v -15.120059 -5.062685 3.433750
v -15.223821 -4.919256 3.710500
v -15.223821 -5.062685 3.710500
v -15.120059 -5.062685 3.710500
v -15.223821 -4.919256 3.987250
v -15.223821 -5.062685 3.987250
v -15.120059 -5.062685 3.987250
v -15.120059 -4.919256 3.987250
v -15.120059 -4.775828 0.112750
v -15.120059 -4.775828 3.987250
v -15.120059 -4.632400 0.112750
v -15.120059 -4.632400 3.987250
v -15.120059 -4.488971 0.112750
v -15.120059 -4.488971 3.987250
v -15.120059 -4.345543 0.112750
v -15.120059 -4.345543 3.987250
v -15.120059 -4.202115 0.112750
v -15.120059 -4.202115 3.987250
v -15.120059 -4.058686 0.112750
v -15.120059 -4.058686 3.987250
v -15.120059 -3.915258 0.112750
v -15.120059 -3.915258 3.987250
v -15.120059 -3.771830 0.389500
v -15.120059 -3.771830 0.112750
v -15.120059 -3.771830 0.666250
v -15.120059 -3.771830 0.943000
v -15.120059 -3.771830 1.219750
v -15.120059 -3.771830 1.496500
v -15.120059 -3.771830 1.773250
v -15.120059 -3.771830 2.050000
v -15.120059 -3.771830 2.326750
v -15.120059 -3.771830 2.603500
v -15.120059 -3.771830 2.880250
v -15.120059 -3.771830 3.157000
v -15.120059 -3.771830 3.433750
v -15.120059 -3.771830 3.710500
v -15.120059 -3.771830 3.987250
v -15.120059 -5.349542 0.112750
v -15.120059 -5.206113 0.112750
v -15.120059 -5.206113 0.389500
v -15.120059 -5.349542 0.389500
v -15.016297 -5.349542 0.112750
v -15.016297 -5.349542 0.389500
v -15.016297 -5.206113 0.112750
v -15.120059 -5.206113 0.666250
v -15.120059 -5.349542 0.666250
v -15.016297 -5.349542 0.666250
v -15.120059 -5.206113 0.943000
v -15.120059 -5.349542 0.943000
v -15.016297 -5.349542 0.943000
v -15.120059 -5.206113 1.219750
v -15.120059 -5.349542 1.219750
v -15.016297 -5.349542 1.219750
v -15.120059 -5.206113 1.496500
v -15.120059 -5.349542 1.496500
v -15.016297 -5.349542 1.496500
v -15.120059 -5.206113 1.773250
v -15.120059 -5.349542 1.773250
v -15.016297 -5.349542 1.773250
v -15.120059 -5.206113 2.050000
v -15.120059 -5.349542 2.050000
v -15.016297 -5.349542 2.050000
v -15.120059 -5.206113 2.326750
v -15.120059 -5.349542 2.326750
v -15.016297 -5.349542 2.326750
v -15.120059 -5.206113 2.603500
v -15.120059 -5.349542 2.603500
v -15.016297 -5.349542 2.603500
v -15.120059 -5.206113 2.880250
v -15.120059 -5.349542 2.880250
v -15.016297 -5.349542 2.880250
v -15.120059 -5.206113 3.157000
v -15.120059 -5.349542 3.157000
v -15.016297 -5.349542 3.157000
v -15.120059 -5.206113 3.433750
v -15.120059 -5.349542 3.433750
v -15.016297 -5.349542 3.433750
v -15.120059 -5.206113 3.710500
v -15.120059 -5.349542 3.710500
v -15.016297 -5.349542 3.710500
v -15.120059 -5.206113 3.987250
v -15.120059 -5.349542 3.987250
v -15.016297 -5.349542 3.987250
v -15.016297 -5.206113 3.987250
v -15.016297 -5.062685 0.112750
v -15.016297 -5.062685 3.987250
v -15.016297 -4.919256 0.112750
v -15.016297 -4.919256 3.987250
v -15.016297 -4.775828 0.112750
v -15.016297 -4.775828 3.987250
v -15.016297 -4.632400 0.112750
v -15.016297 -4.632400 3.987250
v -15.016297 -4.488971 0.112750
v -15.016297 -4.488971 3.987250
v -15.016297 -4.345543 0.112750
v -15.016297 -4.345543 3.987250
v -15.016297 -4.202115 0.112750
v -15.016297 -4.202115 3.987250
v -15.016297 -4.058686 0.112750
v -15.016297 -4.058686 3.987250
v -15.016297 -3.915258 0.112750
v -15.016297 -3.915258 3.987250
v -15.016297 -3.771830 0.389500
v -15.016297 -3.771830 0.112750
v -15.016297 -3.771830 0.666250
v -15.016297 -3.771830 0.943000
v -15.016297 -3.771830 1.219750
v -15.016297 -3.771830 1.496500
v -15.016297 -3.771830 1.773250
v -15.016297 -3.771830 2.050000
v -15.016297 -3.771830 2.326750
v -15.016297 -3.771830 2.603500
v -15.016297 -3.771830 2.880250
v -15.016297 -3.771830 3.157000
v -15.016297 -3.771830 3.433750
v -15.016297 -3.771830 3.710500
v -15.016297 -3.771830 3.987250
v -15.016297 -5.779827 0.112750
v -15.016297 -5.636398 0.112750
v -15.016297 -5.636398 0.389500
v -15.016297 -5.779827 0.389500
v -14.912535 -5.779827 0.112750
v -14.912535 -5.779827 0.389500
v -14.912535 -5.636398 0.112750
v -15.016297 -5.636398 0.666250
v -15.016297 -5.779827 0.666250
v -14.912535 -5.779827 0.666250
v -15.016297 -5.636398 0.943000
v -15.016297 -5.779827 0.943000
v -14.912535 -5.779827 0.943000
v -15.016297 -5.636398 1.219750
v -15.016297 -5.779827 1.219750
v -14.912535 -5.779827 1.219750
v -15.016297 -5.636398 1.496500
v -15.016297 -5.779827 1.496500
v -14.912535 -5.779827 1.496500
v -15.016297 -5.636398 1.773250
v -15.016297 -5.779827 1.773250
v -14.912535 -5.779827 1.773250
v -15.016297 -5.636398 2.050000
v -15.016297 -5.779827 2.050000
v -14.912535 -5.779827 2.050000
v -15.016297 -5.636398 2.326750
v -15.016297 -5.779827 2.326750
v -14.912535 -5.779827 2.326750
v -15.016297 -5.636398 2.603500
v -15.016297 -5.779827 2.603500
v -14.912535 -5.779827 2.603500
v -15.016297 -5.636398 2.880250
v -15.016297 -5.779827 2.880250
v -14.912535 -5.779827 2.880250
v -15.016297 -5.636398 3.157000
v -15.016297 -5.779827 3.157000
v -14.912535 -5.779827 3.157000
v -15.016297 -5.636398 3.433750
v -15.016297 -5.779827 3.433750
v -14.912535 -5.779827 3.433750
v -15.016297 -5.636398 3.710500
v -15.016297 -5.779827 3.710500
v -14.912535 -5.779827 3.710500
v -15.016297 -5.636398 3.987250
v -15.016297 -5.779827 3.987250
v -14.912535 -5.779827 3.987250
v -14.912535 -5.636398 3.987250
v -15.016297 -5.492970 0.112750
v -15.016297 -5.492970 0.389500
v -14.912535 -5.492970 0.112750
v -15.016297 -5.492970 0.666250
v -15.016297 -5.492970 0.943000
v -15.016297 -5.492970 1.219750
v -15.016297 -5.492970 1.496500
v -15.016297 -5.492970 1.773250
v -15.016297 -5.492970 2.050000
v -15.016297 -5.492970 2.326750
v -15.016297 -5.492970 2.603500
v -15.016297 -5.492970 2.880250
v -15.016297 -5.492970 3.157000
v -15.016297 -5.492970 3.433750
v -15.016297 -5.492970 3.710500
v -15.016297 -5.492970 3.987250
v -14.912535 -5.492970 3.987250
v -14.912535 -5.349542 0.112750
v -14.912535 -5.349542 3.987250
v -14.912535 -5.206113 0.112750
v -14.912535 -5.206113 3.987250
v -14.912535 -5.062685 0.112750
v -14.912535 -5.062685 3.987250
v -14.912535 -4.919256 0.112750
v -14.912535 -4.919256 3.987250
v -14.912535 -4.775828 0.112750
v -14.912535 -4.775828 3.987250
v -14.912535 -4.632400 0.112750
v -14.912535 -4.632400 3.987250
v -14.912535 -4.488971 0.112750
v -14.912535 -4.488971 3.987250
v -14.912535 -4.345543 0.112750
v -14.912535 -4.345543 3.987250
v -14.912535 -4.202115 0.112750
v -14.912535 -4.202115 3.987250
v -14.912535 -4.058686 0.112750
v -14.912535 -4.058686 3.987250
v -14.912535 -3.915258 0.112750
v -14.912535 -3.915258 3.987250
v -14.912535 -3.771830 0.112750
v -14.912535 -3.771830 3.987250
v -15.016297 -3.628401 0.112750
v -15.016297 -3.628401 0.389500
v -14.912535 -3.628401 0.389500
v -14.912535 -3.628401 0.112750
v -15.016297 -3.628401 0.666250
v -14.912535 -3.628401 0.666250
v -15.016297 -3.628401 0.943000
v -14.912535 -3.628401 0.943000
v -15.016297 -3.628401 1.219750
v -14.912535 -3.628401 1.219750
v -15.016297 -3.628401 1.496500
v -14.912535 -3.628401 1.496500
v -15.016297 -3.628401 1.773250
v -14.912535 -3.628401 1.773250
v -15.016297 -3.628401 2.050000
v -14.912535 -3.628401 2.050000
v -15.016297 -3.628401 2.326750
v -14.912535 -3.628401 2.326750
v -15.016297 -3.628401 2.603500
v -14.912535 -3.628401 2.603500
v -15.016297 -3.628401 2.880250
v -14.912535 -3.628401 2.880250
v -15.016297 -3.628401 3.157000
v -14.912535 -3.628401 3.157000
v -15.016297 -3.628401 3.433750
v -14.912535 -3.628401 3.433750
v -15.016297 -3.628401 3.710500
v -14.912535 -3.628401 3.710500
v -15.016297 -3.628401 3.987250
v -14.912535 -3.628401 3.987250
v -14.808773 -5.779827 0.112750
v -14.808773 -5.779827 0.389500
v -14.808773 -5.636398 0.112750
v -14.808773 -5.779827 0.666250
v -14.808773 -5.779827 0.943000
v -14.808773 -5.779827 1.219750
v -14.808773 -5.779827 1.496500
v -14.808773 -5.779827 1.773250
v -14.808773 -5.779827 2.050000
v -14.808773 -5.779827 2.326750
v -14.808773 -5.779827 2.603500
v -14.808773 -5.779827 2.880250
v -14.808773 -5.779827 3.157000
v -14.808773 -5.779827 3.433750
v -14.808773 -5.779827 3.710500
v -14.808773 -5.779827 3.987250
v -14.808773 -5.636398 3.987250
v -14.808773 -5.492970 0.112750
v -14.808773 -5.492970 3.987250
v -14.808773 -5.349542 0.112750
v -14.808773 -5.349542 3.987250
v -14.808773 -5.206113 0.112750
v -14.808773 -5.206113 3.987250
v -14.808773 -5.062685 0.112750
v -14.808773 -5.062685 3.987250
v -14.808773 -4.919256 0.112750
v -14.808773 -4.919256 3.987250
v -14.808773 -4.775828 0.112750
v -14.808773 -4.775828 3.987250
v -14.808773 -4.632400 0.112750
v -14.808773 -4.632400 3.987250
v -14.808773 -4.488971 0.112750
v -14.808773 -4.488971 3.987250
v -14.808773 -4.345543 0.112750
v -14.808773 -4.345543 3.987250
v -14.808773 -4.202115 0.112750
v -14.808773 -4.202115 3.987250
v -14.808773 -4.058686 0.112750
v -14.808773 -4.058686 3.987250
v -14.808773 -3.915258 0.112750
v -14.808773 -3.915258 3.987250
v -14.808773 -3.771830 0.112750
v -14.808773 -3.771830 3.987250
v -14.808773 -3.628401 0.389500
v -14.808773 -3.628401 0.112750
v -14.808773 -3.628401 0.666250
v -14.808773 -3.628401 0.943000
v -14.808773 -3.628401 1.219750
v -14.808773 -3.628401 1.496500
v -14.808773 -3.628401 1.773250
v -14.808773 -3.628401 2.050000
v -14.808773 -3.628401 2.326750
v -14.808773 -3.628401 2.603500
v -14.808773 -3.628401 2.880250
v -14.808773 -3.628401 3.157000
v -14.808773 -3.628401 3.433750
v -14.808773 -3.628401 3.710500
v -14.808773 -3.628401 3.987250
v -14.705011 -5.779827 0.112750
v -14.705011 -5.779827 0.389500
v -14.705011 -5.636398 0.389500
v -14.705011 -5.636398 0.112750
v -14.705011 -5.779827 0.666250
v -14.705011 -5.636398 0.666250
v -14.705011 -5.779827 0.943000
v -14.705011 -5.636398 0.943000
v -14.705011 -5.779827 1.219750
v -14.705011 -5.636398 1.219750
v -14.705011 -5.779827 1.496500
v -14.705011 -5.636398 1.496500
v -14.705011 -5.779827 1.773250
v -14.705011 -5.636398 1.773250
v -14.705011 -5.779827 2.050000
v -14.705011 -5.636398 2.050000
v -14.705011 -5.779827 2.326750
v -14.705011 -5.636398 2.326750
v -14.705011 -5.779827 2.603500
v -14.705011 -5.636398 2.603500
v -14.705011 -5.779827 2.880250
v -14.705011 -5.636398 2.880250
v -14.705011 -5.779827 3.157000
v -14.705011 -5.636398 3.157000
v -14.705011 -5.779827 3.433750
v -14.705011 -5.636398 3.433750
v -14.705011 -5.779827 3.710500
v -14.705011 -5.636398 3.710500
v -14.705011 -5.779827 3.987250
v -14.705011 -5.636398 3.987250
v -14.705011 -5.492970 0.112750
v -14.705011 -5.492970 3.987250
v -14.705011 -5.349542 0.112750
v -14.705011 -5.349542 3.987250
v -14.705011 -5.206113 0.112750
v -14.705011 -5.206113 3.987250
v -14.705011 -5.062685 0.112750
v -14.705011 -5.062685 3.987250
v -14.705011 -4.919256 0.112750
v -14.705011 -4.919256 3.987250
v -14.705011 -4.775828 0.112750
v -14.705011 -4.775828 3.987250
v -14.705011 -4.632400 0.112750
v -14.705011 -4.632400 3.987250
v -14.705011 -4.488971 0.112750
v -14.705011 -4.488971 3.987250
v -14.705011 -4.345543 0.112750
v -14.705011 -4.345543 3.987250
v -14.705011 -4.202115 0.112750
v -14.705011 -4.202115 3.987250
v -14.705011 -4.058686 0.112750
v -14.705011 -4.058686 3.987250
v -14.705011 -3.915258 0.112750
v -14.705011 -3.915258 3.987250
v -14.705011 -3.771830 0.112750
v -14.705011 -3.771830 3.987250
v -14.705011 -3.628401 0.389500
v -14.705011 -3.628401 0.112750
v -14.705011 -3.628401 0.666250
v -14.705011 -3.628401 0.943000
v -14.705011 -3.628401 1.219750
v -14.705011 -3.628401 1.496500
v -14.705011 -3.628401 1.773250
v -14.705011 -3.628401 2.050000
v -14.705011 -3.628401 2.326750
v -14.705011 -3.628401 2.603500
v -14.705011 -3.628401 2.880250
v -14.705011 -3.628401 3.157000
v -14.705011 -3.628401 3.433750
v -14.705011 -3.628401 3.710500
v -14.705011 -3.628401 3.987250
v -14.601249 -5.636398 0.112750
v -14.601249 -5.636398 0.389500
v -14.601249 -5.492970 0.112750
v -14.601249 -5.636398 0.666250
v -14.601249 -5.636398 0.943000
v -14.601249 -5.636398 1.219750
v -14.601249 -5.636398 1.496500
v -14.601249 -5.636398 1.773250
v -14.601249 -5.636398 2.050000
v -14.601249 -5.636398 2.326750
v -14.601249 -5.636398 2.603500
v -14.601249 -5.636398 2.880250
v -14.601249 -5.636398 3.157000
v -14.601249 -5.636398 3.433750
v -14.601249 -5.636398 3.710500
v -14.601249 -5.636398 3.987250
v -14.601249 -5.492970 3.987250
v -14.601249 -5.349542 0.112750
v -14.601249 -5.349542 3.987250
v -14.601249 -5.206113 0.112750
v -14.601249 -5.206113 3.987250
v -14.601249 -5.062685 0.112750
v -14.601249 -5.062685 3.987250
v -14.601249 -4.919256 0.112750
v -14.601249 -4.919256 3.987250
v -14.601249 -4.775828 0.112750
v -14.601249 -4.775828 3.987250
v -14.601249 -4.632400 0.112750
v -14.601249 -4.632400 3.987250
v -14.601249 -4.488971 0.112750
v -14.601249 -4.488971 3.987250
v -14.601249 -4.345543 0.112750
v -14.601249 -4.345543 3.987250
v -14.601249 -4.202115 0.112750
v -14.601249 -4.202115 3.987250
v -14.601249 -4.058686 0.112750
v -14.601249 -4.058686 3.987250
v -14.601249 -3.915258 0.112750
v -14.601249 -3.915258 3.987250
v -14.601249 -3.915258 0.389500
v -14.601249 -3.771830 0.389500
v -14.601249 -3.771830 0.112750
v -14.601249 -3.915258 0.666250
v -14.601249 -3.771830 0.666250
v -14.601249 -3.915258 0.943000
v -14.601249 -3.771830 0.943000
v -14.601249 -3.915258 1.219750
v -14.601249 -3.771830 1.219750
v -14.601249 -3.915258 1.496500
v -14.601249 -3.771830 1.496500
v -14.601249 -3.915258 1.773250
v -14.601249 -3.771830 1.773250
v -14.601249 -3.915258 2.050000
v -14.601249 -3.771830 2.050000
v -14.601249 -3.915258 2.326750
v -14.601249 -3.771830 2.326750
v -14.601249 -3.915258 2.603500
v -14.601249 -3.771830 2.603500
v -14.601249 -3.915258 2.880250
v -14.601249 -3.771830 2.880250
v -14.601249 -3.915258 3.157000
v -14.601249 -3.771830 3.157000
v -14.601249 -3.915258 3.433750
v -14.601249 -3.771830 3.433750
v -14.601249 -3.915258 3.710500
v -14.601249 -3.771830 3.710500
v -14.601249 -3.771830 3.987250
v -14.601249 -3.628401 0.389500
v -14.601249 -3.628401 0.112750
v -14.601249 -3.628401 0.666250
v -14.601249 -3.628401 0.943000
v -14.601249 -3.628401 1.219750
v -14.601249 -3.628401 1.496500
v -14.601249 -3.628401 1.773250
v -14.601249 -3.628401 2.050000
v -14.601249 -3.628401 2.326750
v -14.601249 -3.628401 2.603500
v -14.601249 -3.628401 2.880250
v -14.601249 -3.628401 3.157000
v -14.601249 -3.628401 3.433750
v -14.601249 -3.628401 3.710500
v -14.601249 -3.628401 3.987250
v -14.497487 -5.636398 0.112750
v -14.497487 -5.636398 0.389500
v -14.497487 -5.492970 0.112750
v -14.497487 -5.636398 0.666250
v -14.497487 -5.636398 0.943000
v -14.497487 -5.636398 1.219750
v -14.497487 -5.636398 1.496500
v -14.497487 -5.636398 1.773250
v -14.497487 -5.636398 2.050000
v -14.497487 -5.636398 2.326750
v -14.497487 -5.636398 2.603500
v -14.497487 -5.636398 2.880250
v -14.497487 -5.636398 3.157000
v -14.497487 -5.636398 3.433750
v -14.497487 -5.636398 3.710500
v -14.497487 -5.636398 3.987250
v -14.497487 -5.492970 3.987250
v -14.497487 -5.349542 0.112750
v -14.497487 -5.349542 3.987250
v -14.497487 -5.206113 0.112750
v -14.497487 -5.206113 3.987250
v -14.497487 -5.062685 0.112750
v -14.497487 -5.062685 3.987250
v -14.497487 -4.919256 0.112750
v -14.497487 -4.919256 3.987250
v -14.497487 -4.775828 0.112750
v -14.497487 -4.775828 3.987250
v -14.497487 -4.632400 0.112750
v -14.497487 -4.632400 3.987250
v -14.497487 -4.488971 0.112750
v -14.497487 -4.488971 3.987250
v -14.497487 -4.345543 0.112750
v -14.497487 -4.345543 3.987250
v -14.497487 -4.202115 0.112750
v -14.497487 -4.202115 3.987250
v -14.497487 -4.202115 0.389500
v -14.497487 -4.058686 0.389500
v -14.497487 -4.058686 0.112750
v -14.497487 -4.202115 0.666250
v -14.497487 -4.058686 0.666250
v -14.497487 -4.202115 0.943000
v -14.497487 -4.058686 0.943000
v -14.497487 -4.202115 1.219750
v -14.497487 -4.058686 1.219750
v -14.497487 -4.202115 1.496500
v -14.497487 -4.058686 1.496500
v -14.497487 -4.202115 1.773250
v -14.497487 -4.058686 1.773250
v -14.497487 -4.202115 2.050000
v -14.497487 -4.058686 2.050000
v -14.497487 -4.202115 2.326750
v -14.497487 -4.058686 2.326750
v -14.497487 -4.202115 2.603500
v -14.497487 -4.058686 2.603500
v -14.497487 -4.202115 2.880250
v -14.497487 -4.058686 2.880250
v -14.497487 -4.202115 3.157000
v -14.497487 -4.058686 3.157000
v -14.497487 -4.202115 3.433750
v -14.497487 -4.058686 3.433750
v -14.497487 -4.202115 3.710500
v -14.497487 -4.058686 3.710500
v -14.497487 -4.058686 3.987250
v -14.497487 -3.915258 0.389500
v -14.497487 -3.915258 0.112750
v -14.497487 -3.915258 0.666250
v -14.497487 -3.915258 0.943000
v -14.497487 -3.915258 1.219750
v -14.497487 -3.915258 1.496500
v -14.497487 -3.915258 1.773250
v -14.497487 -3.915258 2.050000
v -14.497487 -3.915258 2.326750
v -14.497487 -3.915258 2.603500
v -14.497487 -3.915258 2.880250
v -14.497487 -3.915258 3.157000
v -14.497487 -3.915258 3.433750
v -14.497487 -3.915258 3.710500
v -14.497487 -3.915258 3.987250
v -14.393725 -5.636398 0.112750
v -14.393725 -5.636398 0.389500
v -14.393725 -5.492970 0.112750
v -14.393725 -5.636398 0.666250
v -14.393725 -5.636398 0.943000
v -14.393725 -5.636398 1.219750
v -14.393725 -5.636398 1.496500
v -14.393725 -5.636398 1.773250
v -14.393725 -5.636398 2.050000
v -14.393725 -5.636398 2.326750
v -14.393725 -5.636398 2.603500
v -14.393725 -5.636398 2.880250
v -14.393725 -5.636398 3.157000
v -14.393725 -5.636398 3.433750
v -14.393725 -5.636398 3.710500
v -14.393725 -5.636398 3.987250
v -14.393725 -5.492970 3.987250
v -14.393725 -5.349542 0.112750
v -14.393725 -5.349542 3.987250
v -14.393725 -5.206113 0.112750
v -14.393725 -5.206113 3.987250
v -14.393725 -5.062685 0.112750
v -14.393725 -5.062685 3.987250
v -14.393725 -4.919256 0.112750
v -14.393725 -4.919256 3.987250
v -14.393725 -4.775828 0.112750
v -14.393725 -4.775828 3.987250
v -14.393725 -4.632400 0.112750
v -14.393725 -4.632400 3.987250
v -14.393725 -4.488971 0.112750
v -14.393725 -4.488971 3.987250
v -14.393725 -4.488971 0.389500
v -14.393725 -4.345543 0.389500
v -14.393725 -4.345543 0.112750
v -14.393725 -4.488971 0.666250
v -14.393725 -4.345543 0.666250
v -14.393725 -4.488971 0.943000
v -14.393725 -4.345543 0.943000
v -14.393725 -4.488971 1.219750
v -14.393725 -4.345543 1.219750
v -14.393725 -4.488971 1.496500
v -14.393725 -4.345543 1.496500
v -14.393725 -4.488971 1.773250
v -14.393725 -4.345543 1.773250
v -14.393725 -4.488971 2.050000
v -14.393725 -4.345543 2.050000
v -14.393725 -4.488971 2.326750
v -14.393725 -4.345543 2.326750
v -14.393725 -4.488971 2.603500
v -14.393725 -4.345543 2.603500
v -14.393725 -4.488971 2.880250
v -14.393725 -4.345543 2.880250
v -14.393725 -4.488971 3.157000
v -14.393725 -4.345543 3.157000
v -14.393725 -4.488971 3.433750
v -14.393725 -4.345543 3.433750
v -14.393725 -4.488971 3.710500
v -14.393725 -4.345543 3.710500
v -14.393725 -4.345543 3.987250
v -14.393725 -4.202115 0.389500
v -14.393725 -4.202115 0.112750
v -14.393725 -4.202115 0.666250
v -14.393725 -4.202115 0.943000
v -14.393725 -4.202115 1.219750
v -14.393725 -4.202115 1.496500
v -14.393725 -4.202115 1.773250
v -14.393725 -4.202115 2.050000
v -14.393725 -4.202115 2.326750
v -14.393725 -4.202115 2.603500
v -14.393725 -4.202115 2.880250
v -14.393725 -4.202115 3.157000
v -14.393725 -4.202115 3.433750
v -14.393725 -4.202115 3.710500
v -14.393725 -4.202115 3.987250
v -14.289963 -5.636398 0.112750
v -14.289963 -5.636398 0.389500
v -14.289963 -5.492970 0.389500
v -14.289963 -5.492970 0.112750
v -14.289963 -5.636398 0.666250
v -14.289963 -5.492970 0.666250
v -14.289963 -5.636398 0.943000
v -14.289963 -5.492970 0.943000
v -14.289963 -5.636398 1.219750
v -14.289963 -5.492970 1.219750
v -14.289963 -5.636398 1.496500
v -14.289963 -5.492970 1.496500
v -14.289963 -5.636398 1.773250
v -14.289963 -5.492970 1.773250
v -14.289963 -5.636398 2.050000
v -14.289963 -5.492970 2.050000
v -14.289963 -5.636398 2.326750
v -14.289963 -5.492970 2.326750
v -14.289963 -5.636398 2.603500
v -14.289963 -5.492970 2.603500
v -14.289963 -5.636398 2.880250
v -14.289963 -5.492970 2.880250
v -14.289963 -5.636398 3.157000
v -14.289963 -5.492970 3.157000
v -14.289963 -5.636398 3.433750
v -14.289963 -5.492970 3.433750
v -14.289963 -5.636398 3.710500
v -14.289963 -5.492970 3.710500
v -14.289963 -5.636398 3.987250
v -14.289963 -5.492970 3.987250
v -14.289963 -5.349542 0.112750
v -14.289963 -5.349542 3.987250
v -14.289963 -5.206113 0.112750
v -14.289963 -5.206113 3.987250
v -14.289963 -5.062685 0.112750
v -14.289963 -5.062685 3.987250
v -14.289963 -4.919256 0.112750
v -14.289963 -4.919256 3.987250
v -14.289963 -4.919256 0.389500
v -14.289963 -4.775828 0.389500
v -14.289963 -4.775828 0.112750
v -14.289963 -4.919256 0.666250
v -14.289963 -4.775828 0.666250
v -14.289963 -4.919256 0.943000
v -14.289963 -4.775828 0.943000
v -14.289963 -4.919256 1.219750
v -14.289963 -4.775828 1.219750
v -14.289963 -4.919256 1.496500
v -14.289963 -4.775828 1.496500
v -14.289963 -4.919256 1.773250
v -14.289963 -4.775828 1.773250
v -14.289963 -4.919256 2.050000
v -14.289963 -4.775828 2.050000
v -14.289963 -4.919256 2.326750
v -14.289963 -4.775828 2.326750
v -14.289963 -4.919256 2.603500
v -14.289963 -4.775828 2.603500
v -14.289963 -4.919256 2.880250
v -14.289963 -4.775828 2.880250
v -14.289963 -4.919256 3.157000
v -14.289963 -4.775828 3.157000
v -14.289963 -4.919256 3.433750
v -14.289963 -4.775828 3.433750
v -14.289963 -4.919256 3.710500
v -14.289963 -4.775828 3.710500
v -14.289963 -4.775828 3.987250
v -14.289963 -4.632400 0.389500
v -14.289963 -4.632400 0.112750
v -14.289963 -4.632400 0.666250
v -14.289963 -4.632400 0.943000
v -14.289963 -4.632400 1.219750
v -14.289963 -4.632400 1.496500
v -14.289963 -4.632400 1.773250
v -14.289963 -4.632400 2.050000
v -14.289963 -4.632400 2.326750
v -14.289963 -4.632400 2.603500
v -14.289963 -4.632400 2.880250
v -14.289963 -4.632400 3.157000
v -14.289963 -4.632400 3.433750
v -14.289963 -4.632400 3.710500
v -14.289963 -4.632400 3.987250
v -14.289963 -4.488971 0.389500
v -14.289963 -4.488971 0.112750
v -14.289963 -4.488971 0.666250
v -14.289963 -4.488971 0.943000
v -14.289963 -4.488971 1.219750
v -14.289963 -4.488971 1.496500
v -14.289963 -4.488971 1.773250
v -14.289963 -4.488971 2.050000
v -14.289963 -4.488971 2.326750
v -14.289963 -4.488971 2.603500
v -14.289963 -4.488971 2.880250
v -14.289963 -4.488971 3.157000
v -14.289963 -4.488971 3.433750
v -14.289963 -4.488971 3.710500
v -14.289963 -4.488971 3.987250
v -14.186202 -5.492970 0.112750
v -14.186202 -5.492970 0.389500
v -14.186202 -5.349542 0.112750
v -14.186202 -5.492970 0.666250
v -14.186202 -5.492970 0.943000
v -14.186202 -5.492970 1.219750
v -14.186202 -5.492970 1.496500
v -14.186202 -5.492970 1.773250
v -14.186202 -5.492970 2.050000
v -14.186202 -5.492970 2.326750
v -14.186202 -5.492970 2.603500
v -14.186202 -5.492970 2.880250
v -14.186202 -5.492970 3.157000
v -14.186202 -5.492970 3.433750
v -14.186202 -5.492970 3.710500
v -14.186202 -5.492970 3.987250
v -14.186202 -5.349542 3.987250
v -14.186202 -5.206113 0.112750
v -14.186202 -5.206113 3.987250
v -14.186202 -5.206113 0.389500
v -14.186202 -5.062685 0.389500
v -14.186202 -5.062685 0.112750
v -14.186202 -5.206113 0.666250
v -14.186202 -5.062685 0.666250
v -14.186202 -5.206113 0.943000
v -14.186202 -5.062685 0.943000
v -14.186202 -5.206113 1.219750
v -14.186202 -5.062685 1.219750
v -14.186202 -5.206113 1.496500
v -14.186202 -5.062685 1.496500
v -14.186202 -5.206113 1.773250
v -14.186202 -5.062685 1.773250
v -14.186202 -5.206113 2.050000
v -14.186202 -5.062685 2.050000
v -14.186202 -5.206113 2.326750
v -14.186202 -5.062685 2.326750
v -14.186202 -5.206113 2.603500
v -14.186202 -5.062685 2.603500
v -14.186202 -5.206113 2.880250
v -14.186202 -5.062685 2.880250
v -14.186202 -5.206113 3.157000
v -14.186202 -5.062685 3.157000
v -14.186202 -5.206113 3.433750
v -14.186202 -5.062685 3.433750
v -14.186202 -5.206113 3.710500
v -14.186202 -5.062685 3.710500
v -14.186202 -5.062685 3.987250
v -14.186202 -4.919256 0.389500
v -14.186202 -4.919256 0.112750
v -14.186202 -4.919256 0.666250
v -14.186202 -4.919256 0.943000
v -14.186202 -4.919256 1.219750
v -14.186202 -4.919256 1.496500
v -14.186202 -4.919256 1.773250
v -14.186202 -4.919256 2.050000
v -14.186202 -4.919256 2.326750
v -14.186202 -4.919256 2.603500
v -14.186202 -4.919256 2.880250
v -14.186202 -4.919256 3.157000
v -14.186202 -4.919256 3.433750
v -14.186202 -4.919256 3.710500
v -14.186202 -4.919256 3.987250
v -14.082440 -5.492970 0.112750
v -14.082440 -5.492970 0.389500
v -14.082440 -5.349542 0.389500
v -14.082440 -5.349542 0.112750
v -14.082440 -5.492970 0.666250
v -14.082440 -5.349542 0.666250
v -14.082440 -5.492970 0.943000
v -14.082440 -5.349542 0.943000
v -14.082440 -5.492970 1.219750
v -14.082440 -5.349542 1.219750
v -14.082440 -5.492970 1.496500
v -14.082440 -5.349542 1.496500
v -14.082440 -5.492970 1.773250
v -14.082440 -5.349542 1.773250
v -14.082440 -5.492970 2.050000
v -14.082440 -5.349542 2.050000
v -14.082440 -5.492970 2.326750
v -14.082440 -5.349542 2.326750
v -14.082440 -5.492970 2.603500
v -14.082440 -5.349542 2.603500
v -14.082440 -5.492970 2.880250
v -14.082440 -5.349542 2.880250
v -14.082440 -5.492970 3.157000
v -14.082440 -5.349542 3.157000
v -14.082440 -5.492970 3.433750
v -14.082440 -5.349542 3.433750
v -14.082440 -5.492970 3.710500
v -14.082440 -5.349542 3.710500
v -14.082440 -5.492970 3.987250
v -14.082440 -5.349542 3.987250
v -14.082440 -5.206113 0.389500
v -14.082440 -5.206113 0.112750
v -14.082440 -5.206113 0.666250
v -14.082440 -5.206113 0.943000
v -14.082440 -5.206113 1.219750
v -14.082440 -5.206113 1.496500
v -14.082440 -5.206113 1.773250
v -14.082440 -5.206113 2.050000
v -14.082440 -5.206113 2.326750
v -14.082440 -5.206113 2.603500
v -14.082440 -5.206113 2.880250
v -14.082440 -5.206113 3.157000
v -14.082440 -5.206113 3.433750
v -14.082440 -5.206113 3.710500
v -14.082440 -5.206113 3.987250
f 1 2 3
f 1 3 4
f 1 5 6
f 1 6 4
f 2 3 7
f 2 7 8
f 1 2 8
f 1 8 5
f 4 3 9
f 4 9 10
f 4 6 11
f 4 11 10
f 3 9 12
f 3 12 7
f 10 9 13
f 10 13 14
f 10 11 15
f 10 15 14
f 9 13 16
f 9 16 12
f 14 13 17
f 14 17 18
f 14 15 19
f 14 19 18
f 13 17 20
f 13 20 16
f 18 17 21
f 18 21 22
f 18 19 23
f 18 23 22
f 17 21 24
f 17 24 20
f 22 21 25
f 22 25 26
f 22 23 27
f 22 27 26
f 21 25 28
f 21 28 24
f 26 25 29
f 26 29 30
f 26 27 31
f 26 31 30
f 25 29 32
f 25 32 28
f 30 29 33
f 30 33 34
f 30 31 35
f 30 35 34
f 29 33 36
f 29 36 32
f 34 33 37
f 34 37 38
f 34 35 39
f 34 39 38
f 33 37 40
f 33 40 36
f 38 37 41
f 38 41 42
f 38 39 43
f 38 43 42
f 37 41 44
f 37 44 40
f 42 41 45
f 42 45 46
f 42 43 47
f 42 47 46
f 41 45 48
f 41 48 44
f 46 45 49
f 46 49 50
f 46 47 51
f 46 51 50
f 45 49 52
f 45 52 48
f 50 49 53
f 50 53 54
f 50 51 55
f 50 55 54
f 49 53 56
f 49 56 52
f 54 53 57
f 54 57 58
f 54 55 59
f 54 59 58
f 53 57 60
f 53 60 56
f 58 59 60
f 58 60 57
f 61 62 63
f 61 63 64
f 61 65 66
f 61 66 64
f 61 62 67
f 61 67 65
f 64 63 68
f 64 68 69
f 64 66 70
f 64 70 69
f 69 68 71
f 69 71 72
f 69 70 73
f 69 73 72
f 72 71 74
f 72 74 75
f 72 73 76
f 72 76 75
f 75 74 77
f 75 77 78
f 75 76 79
f 75 79 78
f 78 77 80
f 78 80 81
f 78 79 82
f 78 82 81
f 81 80 83
f 81 83 84
f 81 82 85
f 81 85 84
f 84 83 86
f 84 86 87
f 84 85 88
f 84 88 87
f 87 86 89
f 87 89 90
f 87 88 91
f 87 91 90
f 90 89 92
f 90 92 93
f 90 91 94
f 90 94 93
f 93 92 95
f 93 95 96
f 93 94 97
f 93 97 96
f 96 95 98
f 96 98 99
f 96 97 100
f 96 100 99
f 99 98 101
f 99 101 102
f 99 100 103
f 99 103 102
f 102 101 104
f 102 104 105
f 102 103 106
f 102 106 105
f 105 106 107
f 105 107 104
f 62 108 109
f 62 109 63
f 62 108 110
f 62 110 67
f 63 109 111
f 63 111 68
f 68 111 112
f 68 112 71
f 71 112 113
f 71 113 74
f 74 113 114
f 74 114 77
f 77 114 115
f 77 115 80
f 80 115 116
f 80 116 83
f 83 116 117
f 83 117 86
f 86 117 118
f 86 118 89
f 89 118 119
f 89 119 92
f 92 119 120
f 92 120 95
f 95 120 121
f 95 121 98
f 98 121 122
f 98 122 101
f 101 122 123
f 101 123 104
f 104 107 124
f 104 124 123
f 108 5 6
f 108 6 109
f 108 5 125
f 108 125 110
f 109 6 11
f 109 11 111
f 111 11 15
f 111 15 112
f 112 15 19
f 112 19 113
f 113 19 23
f 113 23 114
f 114 23 27
f 114 27 115
f 115 27 31
f 115 31 116
f 116 31 35
f 116 35 117
f 117 35 39
f 117 39 118
f 118 39 43
f 118 43 119
f 119 43 47
f 119 47 120
f 120 47 51
f 120 51 121
f 121 51 55
f 121 55 122
f 122 55 59
f 122 59 123
f 123 124 126
f 123 126 59
f 5 8 127
f 5 127 125
f 59 126 128
f 59 128 60
f 8 129 130
f 8 130 7
f 129 130 131
f 129 131 132
f 8 129 132
f 8 132 127
f 7 130 133
f 7 133 12
f 130 133 134
f 130 134 131
f 12 133 135
f 12 135 16
f 133 135 136
f 133 136 134
f 16 135 137
f 16 137 20
f 135 137 138
f 135 138 136
f 20 137 139
f 20 139 24
f 137 139 140
f 137 140 138
f 24 139 141
f 24 141 28
f 139 141 142
f 139 142 140
f 28 141 143
f 28 143 32
f 141 143 144
f 141 144 142
f 32 143 145
f 32 145 36
f 143 145 146
f 143 146 144
f 36 145 147
f 36 147 40
f 145 147 148
f 145 148 146
f 40 147 149
f 40 149 44
f 147 149 150
f 147 150 148
f 44 149 151
f 44 151 48
f 149 151 152
f 149 152 150
f 48 151 153
f 48 153 52
f 151 153 154
f 151 154 152
f 52 153 155
f 52 155 56
f 153 155 156
f 153 156 154
f 56 155 157
f 56 157 60
f 155 157 158
f 155 158 156
f 60 128 158
f 60 158 157
f 159 160 161
f 159 161 162
f 159 163 164
f 159 164 162
f 159 160 165
f 159 165 163
f 162 161 166
f 162 166 167
f 162 164 168
f 162 168 167
f 167 166 169
f 167 169 170
f 167 168 171
f 167 171 170
f 170 169 172
f 170 172 173
f 170 171 174
f 170 174 173
f 173 172 175
f 173 175 176
f 173 174 177
f 173 177 176
f 176 175 178
f 176 178 179
f 176 177 180
f 176 180 179
f 179 178 181
f 179 181 182
f 179 180 183
f 179 183 182
f 182 181 184
f 182 184 185
f 182 183 186
f 182 186 185
f 185 184 187
f 185 187 188
f 185 186 189
f 185 189 188
f 188 187 190
f 188 190 191
f 188 189 192
f 188 192 191
f 191 190 193
f 191 193 194
f 191 192 195
f 191 195 194
f 194 193 196
f 194 196 197
f 194 195 198
f 194 198 197
f 197 196 199
f 197 199 200
f 197 198 201
f 197 201 200
f 200 199 202
f 200 202 203
f 200 201 204
f 200 204 203
f 203 204 205
f 203 205 202
f 160 65 66
f 160 66 161
f 160 65 206
f 160 206 165
f 161 66 70
f 161 70 166
f 166 70 73
f 166 73 169
f 169 73 76
f 169 76 172
f 172 76 79
f 172 79 175
f 175 79 82
f 175 82 178
f 178 82 85
f 178 85 181
f 181 85 88
f 181 88 184
f 184 88 91
f 184 91 187
f 187 91 94
f 187 94 190
f 190 94 97
f 190 97 193
f 193 97 100
f 193 100 196
f 196 100 103
f 196 103 199
f 199 103 106
f 199 106 202
f 202 205 207
f 202 207 106
f 65 67 208
f 65 208 206
f 106 207 209
f 106 209 107
f 67 110 210
f 67 210 208
f 107 209 211
f 107 211 124
f 110 125 212
f 110 212 210
f 124 211 213
f 124 213 126
f 125 127 214
f 125 214 212
f 126 213 215
f 126 215 128
f 132 131 216
f 132 216 217
f 127 132 217
f 127 217 214
f 131 134 218
f 131 218 216
f 134 136 219
f 134 219 218
f 136 138 220
f 136 220 219
f 138 140 221
f 138 221 220
f 140 142 222
f 140 222 221
f 142 144 223
f 142 223 222
f 144 146 224
f 144 224 223
f 146 148 225
f 146 225 224
f 148 150 226
f 148 226 225
f 150 152 227
f 150 227 226
f 152 154 228
f 152 228 227
f 154 156 229
f 154 229 228
f 156 158 230
f 156 230 229
f 128 215 230
f 128 230 158
f 231 232 233
f 231 233 234
f 231 235 236
f 231 236 234
f 231 232 237
f 231 237 235
f 234 233 238
f 234 238 239
f 234 236 240
f 234 240 239
f 239 238 241
f 239 241 242
f 239 240 243
f 239 243 242
f 242 241 244
f 242 244 245
f 242 243 246
f 242 246 245
f 245 244 247
f 245 247 248
f 245 246 249
f 245 249 248
f 248 247 250
f 248 250 251
f 248 249 252
f 248 252 251
f 251 250 253
f 251 253 254
f 251 252 255
f 251 255 254
f 254 253 256
f 254 256 257
f 254 255 258
f 254 258 257
f 257 256 259
f 257 259 260
f 257 258 261
f 257 261 260
f 260 259 262
f 260 262 263
f 260 261 264
f 260 264 263
f 263 262 265
f 263 265 266
f 263 264 267
f 263 267 266
f 266 265 268
f 266 268 269
f 266 267 270
f 266 270 269
f 269 268 271
f 269 271 272
f 269 270 273
f 269 273 272
f 272 271 274
f 272 274 275
f 272 273 276
f 272 276 275
f 275 276 277
f 275 277 274
f 232 163 164
f 232 164 233
f 232 163 278
f 232 278 237
f 233 164 168
f 233 168 238
f 238 168 171
f 238 171 241
f 241 171 174
f 241 174 244
f 244 174 177
f 244 177 247
f 247 177 180
f 247 180 250
f 250 180 183
f 250 183 253
f 253 183 186
f 253 186 256
f 256 186 189
f 256 189 259
f 259 189 192
f 259 192 262
f 262 192 195
f 262 195 265
f 265 195 198
f 265 198 268
f 268 198 201
f 268 201 271
f 271 201 204
f 271 204 274
f 274 277 279
f 274 279 204
f 163 165 280
f 163 280 278
f 204 279 281
f 204 281 205
f 165 206 282
f 165 282 280
f 205 281 283
f 205 283 207
f 206 208 284
f 206 284 282
f 207 283 285
f 207 285 209
f 208 210 286
f 208 286 284
f 209 285 287
f 209 287 211
f 210 212 288
f 210 288 286
f 211 287 289
f 211 289 213
f 212 214 290
f 212 290 288
f 213 289 291
f 213 291 215
f 217 216 292
f 217 292 293
f 214 217 293
f 214 293 290
f 216 218 294
f 216 294 292
f 218 219 295
f 218 295 294
f 219 220 296
f 219 296 295
f 220 221 297
f 220 297 296
f 221 222 298
f 221 298 297
f 222 223 299
f 222 299 298
f 223 224 300
f 223 300 299
f 224 225 301
f 224 301 300
f 225 226 302
f 225 302 301
f 226 227 303
f 226 303 302
f 227 228 304
f 227 304 303
f 228 229 305
f 228 305 304
f 229 230 306
f 229 306 305
f 215 291 306
f 215 306 230
f 307 308 309
f 307 309 310
f 307 311 312
f 307 312 310
f 307 308 313
f 307 313 311
f 310 309 314
f 310 314 315
f 310 312 316
f 310 316 315
f 315 314 317
f 315 317 318
f 315 316 319
f 315 319 318
f 318 317 320
f 318 320 321
f 318 319 322
f 318 322 321
f 321 320 323
f 321 323 324
f 321 322 325
f 321 325 324
f 324 323 326
f 324 326 327
f 324 325 328
f 324 328 327
f 327 326 329
f 327 329 330
f 327 328 331
f 327 331 330
f 330 329 332
f 330 332 333
f 330 331 334
f 330 334 333
f 333 332 335
f 333 335 336
f 333 334 337
f 333 337 336
f 336 335 338
f 336 338 339
f 336 337 340
f 336 340 339
f 339 338 341
f 339 341 342
f 339 340 343
f 339 343 342
f 342 341 344
f 342 344 345
f 342 343 346
f 342 346 345
f 345 344 347
f 345 347 348
f 345 346 349
f 345 349 348
f 348 347 350
f 348 350 351
f 348 349 352
f 348 352 351
f 351 352 353
f 351 353 350
f 308 235 236
f 308 236 309
f 308 235 354
f 308 354 313
f 309 236 240
f 309 240 314
f 314 240 243
f 314 243 317
f 317 243 246
f 317 246 320
f 320 246 249
f 320 249 323
f 323 249 252
f 323 252 326
f 326 252 255
f 326 255 329
f 329 255 258
f 329 258 332
f 332 258 261
f 332 261 335
f 335 261 264
f 335 264 338
f 338 264 267
f 338 267 341
f 341 267 270
f 341 270 344
f 344 270 273
f 344 273 347
f 347 273 276
f 347 276 350
f 350 353 355
f 350 355 276
f 235 237 356
f 235 356 354
f 276 355 357
f 276 357 277
f 237 278 358
f 237 358 356
f 277 357 359
f 277 359 279
f 278 280 360
f 278 360 358
f 279 359 361
f 279 361 281
f 280 282 362
f 280 362 360
f 281 361 363
f 281 363 283
f 282 284 364
f 282 364 362
f 283 363 365
f 283 365 285
f 284 286 366
f 284 366 364
f 285 365 367
f 285 367 287
f 286 288 368
f 286 368 366
f 287 367 369
f 287 369 289
f 288 290 370
f 288 370 368
f 289 369 371
f 289 371 291
f 293 292 372
f 293 372 373
f 290 293 373
f 290 373 370
f 292 294 374
f 292 374 372
f 294 295 375
f 294 375 374
f 295 296 376
f 295 376 375
f 296 297 377
f 296 377 376
f 297 298 378
f 297 378 377
f 298 299 379
f 298 379 378
f 299 300 380
f 299 380 379
f 300 301 381
f 300 381 380
f 301 302 382
f 301 382 381
f 302 303 383
f 302 383 382
f 303 304 384
f 303 384 383
f 304 305 385
f 304 385 384
f 305 306 386
f 305 386 385
f 291 371 386
f 291 386 306
f 387 388 389
f 387 389 390
f 387 391 392
f 387 392 390
f 387 388 393
f 387 393 391
f 390 389 394
f 390 394 395
f 390 392 396
f 390 396 395
f 395 394 397
f 395 397 398
f 395 396 399
f 395 399 398
f 398 397 400
f 398 400 401
f 398 399 402
f 398 402 401
f 401 400 403
f 401 403 404
f 401 402 405
f 401 405 404
f 404 403 406
f 404 406 407
f 404 405 408
f 404 408 407
f 407 406 409
f 407 409 410
f 407 408 411
f 407 411 410
f 410 409 412
f 410 412 413
f 410 411 414
f 410 414 413
f 413 412 415
f 413 415 416
f 413 414 417
f 413 417 416
f 416 415 418
f 416 418 419
f 416 417 420
f 416 420 419
f 419 418 421
f 419 421 422
f 419 420 423
f 419 423 422
f 422 421 424
f 422 424 425
f 422 423 426
f 422 426 425
f 425 424 427
f 425 427 428
f 425 426 429
f 425 429 428
f 428 427 430
f 428 430 431
f 428 429 432
f 428 432 431
f 431 432 433
f 431 433 430
f 388 434 435
f 388 435 389
f 388 434 436
f 388 436 393
f 389 435 437
f 389 437 394
f 394 437 438
f 394 438 397
f 397 438 439
f 397 439 400
f 400 439 440
f 400 440 403
f 403 440 441
f 403 441 406
f 406 441 442
f 406 442 409
f 409 442 443
f 409 443 412
f 412 443 444
f 412 444 415
f 415 444 445
f 415 445 418
f 418 445 446
f 418 446 421
f 421 446 447
f 421 447 424
f 424 447 448
f 424 448 427
f 427 448 449
f 427 449 430
f 430 433 450
f 430 450 449
f 434 311 312
f 434 312 435
f 434 311 451
f 434 451 436
f 435 312 316
f 435 316 437
f 437 316 319
f 437 319 438
f 438 319 322
f 438 322 439
f 439 322 325
f 439 325 440
f 440 325 328
f 440 328 441
f 441 328 331
f 441 331 442
f 442 331 334
f 442 334 443
f 443 334 337
f 443 337 444
f 444 337 340
f 444 340 445
f 445 340 343
f 445 343 446
f 446 343 346
f 446 346 447
f 447 346 349
f 447 349 448
f 448 349 352
f 448 352 449
f 449 450 452
f 449 452 352
f 311 313 453
f 311 453 451
f 352 452 454
f 352 454 353
f 313 354 455
f 313 455 453
f 353 454 456
f 353 456 355
f 354 356 457
f 354 457 455
f 355 456 458
f 355 458 357
f 356 358 459
f 356 459 457
f 357 458 460
f 357 460 359
f 358 360 461
f 358 461 459
f 359 460 462
f 359 462 361
f 360 362 463
f 360 463 461
f 361 462 464
f 361 464 363
f 362 364 465
f 362 465 463
f 363 464 466
f 363 466 365
f 364 366 467
f 364 467 465
f 365 466 468
f 365 468 367
f 366 368 469
f 366 469 467
f 367 468 470
f 367 470 369
f 368 370 471
f 368 471 469
f 369 470 472
f 369 472 371
f 370 373 473
f 370 473 471
f 371 472 474
f 371 474 386
f 373 475 476
f 373 476 372
f 475 476 477
f 475 477 478
f 373 475 478
f 373 478 473
f 372 476 479
f 372 479 374
f 476 479 480
f 476 480 477
f 374 479 481
f 374 481 375
f 479 481 482
f 479 482 480
f 375 481 483
f 375 483 376
f 481 483 484
f 481 484 482
f 376 483 485
f 376 485 377
f 483 485 486
f 483 486 484
f 377 485 487
f 377 487 378
f 485 487 488
f 485 488 486
f 378 487 489
f 378 489 379
f 487 489 490
f 487 490 488
f 379 489 491
f 379 491 380
f 489 491 492
f 489 492 490
f 380 491 493
f 380 493 381
f 491 493 494
f 491 494 492
f 381 493 495
f 381 495 382
f 493 495 496
f 493 496 494
f 382 495 497
f 382 497 383
f 495 497 498
f 495 498 496
f 383 497 499
f 383 499 384
f 497 499 500
f 497 500 498
f 384 499 501
f 384 501 385
f 499 501 502
f 499 502 500
f 385 501 503
f 385 503 386
f 501 503 504
f 501 504 502
f 386 474 504
f 386 504 503
f 391 505 506
f 391 506 392
f 391 393 507
f 391 507 505
f 392 506 508
f 392 508 396
f 396 508 509
f 396 509 399
f 399 509 510
f 399 510 402
f 402 510 511
f 402 511 405
f 405 511 512
f 405 512 408
f 408 512 513
f 408 513 411
f 411 513 514
f 411 514 414
f 414 514 515
f 414 515 417
f 417 515 516
f 417 516 420
f 420 516 517
f 420 517 423
f 423 517 518
f 423 518 426
f 426 518 519
f 426 519 429
f 429 519 520
f 429 520 432
f 432 520 521
f 432 521 433
f 393 436 522
f 393 522 507
f 433 521 523
f 433 523 450
f 436 451 524
f 436 524 522
f 450 523 525
f 450 525 452
f 451 453 526
f 451 526 524
f 452 525 527
f 452 527 454
f 453 455 528
f 453 528 526
f 454 527 529
f 454 529 456
f 455 457 530
f 455 530 528
f 456 529 531
f 456 531 458
f 457 459 532
f 457 532 530
f 458 531 533
f 458 533 460
f 459 461 534
f 459 534 532
f 460 533 535
f 460 535 462
f 461 463 536
f 461 536 534
f 462 535 537
f 462 537 464
f 463 465 538
f 463 538 536
f 464 537 539
f 464 539 466
f 465 467 540
f 465 540 538
f 466 539 541
f 466 541 468
f 467 469 542
f 467 542 540
f 468 541 543
f 468 543 470
f 469 471 544
f 469 544 542
f 470 543 545
f 470 545 472
f 471 473 546
f 471 546 544
f 472 545 547
f 472 547 474
f 478 477 548
f 478 548 549
f 473 478 549
f 473 549 546
f 477 480 550
f 477 550 548
f 480 482 551
f 480 551 550
f 482 484 552
f 482 552 551
f 484 486 553
f 484 553 552
f 486 488 554
f 486 554 553
f 488 490 555
f 488 555 554
f 490 492 556
f 490 556 555
f 492 494 557
f 492 557 556
f 494 496 558
f 494 558 557
f 496 498 559
f 496 559 558
f 498 500 560
f 498 560 559
f 500 502 561
f 500 561 560
f 502 504 562
f 502 562 561
f 474 547 562
f 474 562 504
f 563 564 565
f 563 565 566
f 505 563 564
f 505 564 506
f 505 507 566
f 505 566 563
f 564 567 568
f 564 568 565
f 506 564 567
f 506 567 508
f 567 569 570
f 567 570 568
f 508 567 569
f 508 569 509
f 569 571 572
f 569 572 570
f 509 569 571
f 509 571 510
f 571 573 574
f 571 574 572
f 510 571 573
f 510 573 511
f 573 575 576
f 573 576 574
f 511 573 575
f 511 575 512
f 575 577 578
f 575 578 576
f 512 575 577
f 512 577 513
f 577 579 580
f 577 580 578
f 513 577 579
f 513 579 514
f 579 581 582
f 579 582 580
f 514 579 581
f 514 581 515
f 581 583 584
f 581 584 582
f 515 581 583
f 515 583 516
f 583 585 586
f 583 586 584
f 516 583 585
f 516 585 517
f 585 587 588
f 585 588 586
f 517 585 587
f 517 587 518
f 587 589 590
f 587 590 588
f 518 587 589
f 518 589 519
f 589 591 592
f 589 592 590
f 519 589 591
f 519 591 520
f 520 591 592
f 520 592 521
f 507 522 593
f 507 593 566
f 521 592 594
f 521 594 523
f 522 524 595
f 522 595 593
f 523 594 596
f 523 596 525
f 524 526 597
f 524 597 595
f 525 596 598
f 525 598 527
f 526 528 599
f 526 599 597
f 527 598 600
f 527 600 529
f 528 530 601
f 528 601 599
f 529 600 602
f 529 602 531
f 530 532 603
f 530 603 601
f 531 602 604
f 531 604 533
f 532 534 605
f 532 605 603
f 533 604 606
f 533 606 535
f 534 536 607
f 534 607 605
f 535 606 608
f 535 608 537
f 536 538 609
f 536 609 607
f 537 608 610
f 537 610 539
f 538 540 611
f 538 611 609
f 539 610 612
f 539 612 541
f 540 542 613
f 540 613 611
f 541 612 614
f 541 614 543
f 542 544 615
f 542 615 613
f 543 614 616
f 543 616 545
f 544 546 617
f 544 617 615
f 545 616 618
f 545 618 547
f 549 548 619
f 549 619 620
f 546 549 620
f 546 620 617
f 548 550 621
f 548 621 619
f 550 551 622
f 550 622 621
f 551 552 623
f 551 623 622
f 552 553 624
f 552 624 623
f 553 554 625
f 553 625 624
f 554 555 626
f 554 626 625
f 555 556 627
f 555 627 626
f 556 557 628
f 556 628 627
f 557 558 629
f 557 629 628
f 558 559 630
f 558 630 629
f 559 560 631
f 559 631 630
f 560 561 632
f 560 632 631
f 561 562 633
f 561 633 632
f 547 618 633
f 547 633 562
f 566 634 635
f 566 635 565
f 566 593 636
f 566 636 634
f 565 635 637
f 565 637 568
f 568 637 638
f 568 638 570
f 570 638 639
f 570 639 572
f 572 639 640
f 572 640 574
f 574 640 641
f 574 641 576
f 576 641 642
f 576 642 578
f 578 642 643
f 578 643 580
f 580 643 644
f 580 644 582
f 582 644 645
f 582 645 584
f 584 645 646
f 584 646 586
f 586 646 647
f 586 647 588
f 588 647 648
f 588 648 590
f 590 648 649
f 590 649 592
f 592 649 650
f 592 650 594
f 593 595 651
f 593 651 636
f 594 650 652
f 594 652 596
f 595 597 653
f 595 653 651
f 596 652 654
f 596 654 598
f 597 599 655
f 597 655 653
f 598 654 656
f 598 656 600
f 599 601 657
f 599 657 655
f 600 656 658
f 600 658 602
f 601 603 659
f 601 659 657
f 602 658 660
f 602 660 604
f 603 605 661
f 603 661 659
f 604 660 662
f 604 662 606
f 605 607 663
f 605 663 661
f 606 662 664
f 606 664 608
f 607 609 665
f 607 665 663
f 608 664 666
f 608 666 610
f 609 611 667
f 609 667 665
f 610 666 668
f 610 668 612
f 611 613 669
f 611 669 667
f 612 668 670
f 612 670 614
f 613 615 671
f 613 671 669
f 614 670 672
f 614 672 616
f 671 673 674
f 671 674 675
f 615 617 675
f 615 675 671
f 673 676 677
f 673 677 674
f 676 678 679
f 676 679 677
f 678 680 681
f 678 681 679
f 680 682 683
f 680 683 681
f 682 684 685
f 682 685 683
f 684 686 687
f 684 687 685
f 686 688 689
f 686 689 687
f 688 690 691
f 688 691 689
f 690 692 693
f 690 693 691
f 692 694 695
f 692 695 693
f 694 696 697
f 694 697 695
f 696 698 699
f 696 699 697
f 698 672 700
f 698 700 699
f 616 672 700
f 616 700 618
f 675 674 701
f 675 701 702
f 620 619 701
f 620 701 702
f 617 620 702
f 617 702 675
f 674 677 703
f 674 703 701
f 619 621 703
f 619 703 701
f 677 679 704
f 677 704 703
f 621 622 704
f 621 704 703
f 679 681 705
f 679 705 704
f 622 623 705
f 622 705 704
f 681 683 706
f 681 706 705
f 623 624 706
f 623 706 705
f 683 685 707
f 683 707 706
f 624 625 707
f 624 707 706
f 685 687 708
f 685 708 707
f 625 626 708
f 625 708 707
f 687 689 709
f 687 709 708
f 626 627 709
f 626 709 708
f 689 691 710
f 689 710 709
f 627 628 710
f 627 710 709
f 691 693 711
f 691 711 710
f 628 629 711
f 628 711 710
f 693 695 712
f 693 712 711
f 629 630 712
f 629 712 711
f 695 697 713
f 695 713 712
f 630 631 713
f 630 713 712
f 697 699 714
f 697 714 713
f 631 632 714
f 631 714 713
f 699 700 715
f 699 715 714
f 632 633 715
f 632 715 714
f 618 700 715
f 618 715 633
f 634 716 717
f 634 717 635
f 634 636 718
f 634 718 716
f 635 717 719
f 635 719 637
f 637 719 720
f 637 720 638
f 638 720 721
f 638 721 639
f 639 721 722
f 639 722 640
f 640 722 723
f 640 723 641
f 641 723 724
f 641 724 642
f 642 724 725
f 642 725 643
f 643 725 726
f 643 726 644
f 644 726 727
f 644 727 645
f 645 727 728
f 645 728 646
f 646 728 729
f 646 729 647
f 647 729 730
f 647 730 648
f 648 730 731
f 648 731 649
f 649 731 732
f 649 732 650
f 636 651 733
f 636 733 718
f 650 732 734
f 650 734 652
f 651 653 735
f 651 735 733
f 652 734 736
f 652 736 654
f 653 655 737
f 653 737 735
f 654 736 738
f 654 738 656
f 655 657 739
f 655 739 737
f 656 738 740
f 656 740 658
f 657 659 741
f 657 741 739
f 658 740 742
f 658 742 660
f 659 661 743
f 659 743 741
f 660 742 744
f 660 744 662
f 661 663 745
f 661 745 743
f 662 744 746
f 662 746 664
f 663 665 747
f 663 747 745
f 664 746 748
f 664 748 666
f 665 667 749
f 665 749 747
f 666 748 750
f 666 750 668
f 749 751 752
f 749 752 753
f 667 669 753
f 667 753 749
f 751 754 755
f 751 755 752
f 754 756 757
f 754 757 755
f 756 758 759
f 756 759 757
f 758 760 761
f 758 761 759
f 760 762 763
f 760 763 761
f 762 764 765
f 762 765 763
f 764 766 767
f 764 767 765
f 766 768 769
f 766 769 767
f 768 770 771
f 768 771 769
f 770 772 773
f 770 773 771
f 772 774 775
f 772 775 773
f 774 776 777
f 774 777 775
f 776 750 778
f 776 778 777
f 668 750 778
f 668 778 670
f 753 752 779
f 753 779 780
f 671 673 779
f 671 779 780
f 669 671 780
f 669 780 753
f 752 755 781
f 752 781 779
f 673 676 781
f 673 781 779
f 755 757 782
f 755 782 781
f 676 678 782
f 676 782 781
f 757 759 783
f 757 783 782
f 678 680 783
f 678 783 782
f 759 761 784
f 759 784 783
f 680 682 784
f 680 784 783
f 761 763 785
f 761 785 784
f 682 684 785
f 682 785 784
f 763 765 786
f 763 786 785
f 684 686 786
f 684 786 785
f 765 767 787
f 765 787 786
f 686 688 787
f 686 787 786
f 767 769 788
f 767 788 787
f 688 690 788
f 688 788 787
f 769 771 789
f 769 789 788
f 690 692 789
f 690 789 788
f 771 773 790
f 771 790 789
f 692 694 790
f 692 790 789
f 773 775 791
f 773 791 790
f 694 696 791
f 694 791 790
f 775 777 792
f 775 792 791
f 696 698 792
f 696 792 791
f 777 778 793
f 777 793 792
f 698 672 793
f 698 793 792
f 670 778 793
f 670 793 672
f 716 794 795
f 716 795 717
f 716 718 796
f 716 796 794
f 717 795 797
f 717 797 719
f 719 797 798
f 719 798 720
f 720 798 799
f 720 799 721
f 721 799 800
f 721 800 722
f 722 800 801
f 722 801 723
f 723 801 802
f 723 802 724
f 724 802 803
f 724 803 725
f 725 803 804
f 725 804 726
f 726 804 805
f 726 805 727
f 727 805 806
f 727 806 728
f 728 806 807
f 728 807 729
f 729 807 808
f 729 808 730
f 730 808 809
f 730 809 731
f 731 809 810
f 731 810 732
f 718 733 811
f 718 811 796
f 732 810 812
f 732 812 734
f 733 735 813
f 733 813 811
f 734 812 814
f 734 814 736
f 735 737 815
f 735 815 813
f 736 814 816
f 736 816 738
f 737 739 817
f 737 817 815
f 738 816 818
f 738 818 740
f 739 741 819
f 739 819 817
f 740 818 820
f 740 820 742
f 741 743 821
f 741 821 819
f 742 820 822
f 742 822 744
f 743 745 823
f 743 823 821
f 744 822 824
f 744 824 746
f 823 825 826
f 823 826 827
f 745 747 827
f 745 827 823
f 825 828 829
f 825 829 826
f 828 830 831
f 828 831 829
f 830 832 833
f 830 833 831
f 832 834 835
f 832 835 833
f 834 836 837
f 834 837 835
f 836 838 839
f 836 839 837
f 838 840 841
f 838 841 839
f 840 842 843
f 840 843 841
f 842 844 845
f 842 845 843
f 844 846 847
f 844 847 845
f 846 848 849
f 846 849 847
f 848 850 851
f 848 851 849
f 850 824 852
f 850 852 851
f 746 824 852
f 746 852 748
f 827 826 853
f 827 853 854
f 749 751 853
f 749 853 854
f 747 749 854
f 747 854 827
f 826 829 855
f 826 855 853
f 751 754 855
f 751 855 853
f 829 831 856
f 829 856 855
f 754 756 856
f 754 856 855
f 831 833 857
f 831 857 856
f 756 758 857
f 756 857 856
f 833 835 858
f 833 858 857
f 758 760 858
f 758 858 857
f 835 837 859
f 835 859 858
f 760 762 859
f 760 859 858
f 837 839 860
f 837 860 859
f 762 764 860
f 762 860 859
f 839 841 861
f 839 861 860
f 764 766 861
f 764 861 860
f 841 843 862
f 841 862 861
f 766 768 862
f 766 862 861
f 843 845 863
f 843 863 862
f 768 770 863
f 768 863 862
f 845 847 864
f 845 864 863
f 770 772 864
f 770 864 863
f 847 849 865
f 847 865 864
f 772 774 865
f 772 865 864
f 849 851 866
f 849 866 865
f 774 776 866
f 774 866 865
f 851 852 867
f 851 867 866
f 776 750 867
f 776 867 866
f 748 852 867
f 748 867 750
f 868 869 870
f 868 870 871
f 794 868 869
f 794 869 795
f 794 796 871
f 794 871 868
f 869 872 873
f 869 873 870
f 795 869 872
f 795 872 797
f 872 874 875
f 872 875 873
f 797 872 874
f 797 874 798
f 874 876 877
f 874 877 875
f 798 874 876
f 798 876 799
f 876 878 879
f 876 879 877
f 799 876 878
f 799 878 800
f 878 880 881
f 878 881 879
f 800 878 880
f 800 880 801
f 880 882 883
f 880 883 881
f 801 880 882
f 801 882 802
f 882 884 885
f 882 885 883
f 802 882 884
f 802 884 803
f 884 886 887
f 884 887 885
f 803 884 886
f 803 886 804
f 886 888 889
f 886 889 887
f 804 886 888
f 804 888 805
f 888 890 891
f 888 891 889
f 805 888 890
f 805 890 806
f 890 892 893
f 890 893 891
f 806 890 892
f 806 892 807
f 892 894 895
f 892 895 893
f 807 892 894
f 807 894 808
f 894 896 897
f 894 897 895
f 808 894 896
f 808 896 809
f 809 896 897
f 809 897 810
f 796 811 898
f 796 898 871
f 810 897 899
f 810 899 812
f 811 813 900
f 811 900 898
f 812 899 901
f 812 901 814
f 813 815 902
f 813 902 900
f 814 901 903
f 814 903 816
f 815 817 904
f 815 904 902
f 816 903 905
f 816 905 818
f 904 906 907
f 904 907 908
f 817 819 908
f 817 908 904
f 906 909 910
f 906 910 907
f 909 911 912
f 909 912 910
f 911 913 914
f 911 914 912
f 913 915 916
f 913 916 914
f 915 917 918
f 915 918 916
f 917 919 920
f 917 920 918
f 919 921 922
f 919 922 920
f 921 923 924
f 921 924 922
f 923 925 926
f 923 926 924
f 925 927 928
f 925 928 926
f 927 929 930
f 927 930 928
f 929 931 932
f 929 932 930
f 931 905 933
f 931 933 932
f 818 905 933
f 818 933 820
f 908 907 934
f 908 934 935
f 819 821 935
f 819 935 908
f 907 910 936
f 907 936 934
f 910 912 937
f 910 937 936
f 912 914 938
f 912 938 937
f 914 916 939
f 914 939 938
f 916 918 940
f 916 940 939
f 918 920 941
f 918 941 940
f 920 922 942
f 920 942 941
f 922 924 943
f 922 943 942
f 924 926 944
f 924 944 943
f 926 928 945
f 926 945 944
f 928 930 946
f 928 946 945
f 930 932 947
f 930 947 946
f 932 933 948
f 932 948 947
f 820 933 948
f 820 948 822
f 935 934 949
f 935 949 950
f 823 825 949
f 823 949 950
f 821 823 950
f 821 950 935
f 934 936 951
f 934 951 949
f 825 828 951
f 825 951 949
f 936 937 952
f 936 952 951
f 828 830 952
f 828 952 951
f 937 938 953
f 937 953 952
f 830 832 953
f 830 953 952
f 938 939 954
f 938 954 953
f 832 834 954
f 832 954 953
f 939 940 955
f 939 955 954
f 834 836 955
f 834 955 954
f 940 941 956
f 940 956 955
f 836 838 956
f 836 956 955
f 941 942 957
f 941 957 956
f 838 840 957
f 838 957 956
f 942 943 958
f 942 958 957
f 840 842 958
f 840 958 957
f 943 944 959
f 943 959 958
f 842 844 959
f 842 959 958
f 944 945 960
f 944 960 959
f 844 846 960
f 844 960 959
f 945 946 961
f 945 961 960
f 846 848 961
f 846 961 960
f 946 947 962
f 946 962 961
f 848 850 962
f 848 962 961
f 947 948 963
f 947 963 962
f 850 824 963
f 850 963 962
f 822 948 963
f 822 963 824
f 871 964 965
f 871 965 870
f 871 898 966
f 871 966 964
f 870 965 967
f 870 967 873
f 873 967 968
f 873 968 875
f 875 968 969
f 875 969 877
f 877 969 970
f 877 970 879
f 879 970 971
f 879 971 881
f 881 971 972
f 881 972 883
f 883 972 973
f 883 973 885
f 885 973 974
f 885 974 887
f 887 974 975
f 887 975 889
f 889 975 976
f 889 976 891
f 891 976 977
f 891 977 893
f 893 977 978
f 893 978 895
f 895 978 979
f 895 979 897
f 897 979 980
f 897 980 899
f 898 900 981
f 898 981 966
f 899 980 982
f 899 982 901
f 981 983 984
f 981 984 985
f 900 902 985
f 900 985 981
f 983 986 987
f 983 987 984
f 986 988 989
f 986 989 987
f 988 990 991
f 988 991 989
f 990 992 993
f 990 993 991
f 992 994 995
f 992 995 993
f 994 996 997
f 994 997 995
f 996 998 999
f 996 999 997
f 998 1000 1001
f 998 1001 999
f 1000 1002 1003
f 1000 1003 1001
f 1002 1004 1005
f 1002 1005 1003
f 1004 1006 1007
f 1004 1007 1005
f 1006 1008 1009
f 1006 1009 1007
f 1008 982 1010
f 1008 1010 1009
f 901 982 1010
f 901 1010 903
f 985 984 1011
f 985 1011 1012
f 904 906 1011
f 904 1011 1012
f 902 904 1012
f 902 1012 985
f 984 987 1013
f 984 1013 1011
f 906 909 1013
f 906 1013 1011
f 987 989 1014
f 987 1014 1013
f 909 911 1014
f 909 1014 1013
f 989 991 1015
f 989 1015 1014
f 911 913 1015
f 911 1015 1014
f 991 993 1016
f 991 1016 1015
f 913 915 1016
f 913 1016 1015
f 993 995 1017
f 993 1017 1016
f 915 917 1017
f 915 1017 1016
f 995 997 1018
f 995 1018 1017
f 917 919 1018
f 917 1018 1017
f 997 999 1019
f 997 1019 1018
f 919 921 1019
f 919 1019 1018
f 999 1001 1020
f 999 1020 1019
f 921 923 1020
f 921 1020 1019
f 1001 1003 1021
f 1001 1021 1020
f 923 925 1021
f 923 1021 1020
f 1003 1005 1022
f 1003 1022 1021
f 925 927 1022
f 925 1022 1021
f 1005 1007 1023
f 1005 1023 1022
f 927 929 1023
f 927 1023 1022
f 1007 1009 1024
f 1007 1024 1023
f 929 931 1024
f 929 1024 1023
f 1009 1010 1025
f 1009 1025 1024
f 931 905 1025
f 931 1025 1024
f 903 1010 1025
f 903 1025 905
f 1026 1027 1028
f 1026 1028 1029
f 964 1026 1027
f 964 1027 965
f 964 966 1029
f 964 1029 1026
f 1027 1030 1031
f 1027 1031 1028
f 965 1027 1030
f 965 1030 967
f 1030 1032 1033
f 1030 1033 1031
f 967 1030 1032
f 967 1032 968
f 1032 1034 1035
f 1032 1035 1033
f 968 1032 1034
f 968 1034 969
f 1034 1036 1037
f 1034 1037 1035
f 969 1034 1036
f 969 1036 970
f 1036 1038 1039
f 1036 1039 1037
f 970 1036 1038
f 970 1038 971
f 1038 1040 1041
f 1038 1041 1039
f 971 1038 1040
f 971 1040 972
f 1040 1042 1043
f 1040 1043 1041
f 972 1040 1042
f 972 1042 973
f 1042 1044 1045
f 1042 1045 1043
f 973 1042 1044
f 973 1044 974
f 1044 1046 1047
f 1044 1047 1045
f 974 1044 1046
f 974 1046 975
f 1046 1048 1049
f 1046 1049 1047
f 975 1046 1048
f 975 1048 976
f 1048 1050 1051
f 1048 1051 1049
f 976 1048 1050
f 976 1050 977
f 1050 1052 1053
f 1050 1053 1051
f 977 1050 1052
f 977 1052 978
f 1052 1054 1055
f 1052 1055 1053
f 978 1052 1054
f 978 1054 979
f 979 1054 1055
f 979 1055 980
f 1029 1028 1056
f 1029 1056 1057
f 981 983 1056
f 981 1056 1057
f 966 981 1057
f 966 1057 1029
f 1028 1031 1058
f 1028 1058 1056
f 983 986 1058
f 983 1058 1056
f 1031 1033 1059
f 1031 1059 1058
f 986 988 1059
f 986 1059 1058
f 1033 1035 1060
f 1033 1060 1059
f 988 990 1060
f 988 1060 1059
f 1035 1037 1061
f 1035 1061 1060
f 990 992 1061
f 990 1061 1060
f 1037 1039 1062
f 1037 1062 1061
f 992 994 1062
f 992 1062 1061
f 1039 1041 1063
f 1039 1063 1062
f 994 996 1063
f 994 1063 1062
f 1041 1043 1064
f 1041 1064 1063
f 996 998 1064
f 996 1064 1063
f 1043 1045 1065
f 1043 1065 1064
f 998 1000 1065
f 998 1065 1064
f 1045 1047 1066
f 1045 1066 1065
f 1000 1002 1066
f 1000 1066 1065
f 1047 1049 1067
f 1047 1067 1066
f 1002 1004 1067
f 1002 1067 1066
f 1049 1051 1068
f 1049 1068 1067
f 1004 1006 1068
f 1004 1068 1067
f 1051 1053 1069
f 1051 1069 1068
f 1006 1008 1069
f 1006 1069 1068
f 1053 1055 1070
f 1053 1070 1069
f 1008 982 1070
f 1008 1070 1069
f 980 1055 1070
f 980 1070 982
