o [4B] 3D Diagram - S2-01 Group A_348
v 0.000000 23.000000 0.300000
v 0.166667 23.000000 0.273333
v 0.333333 23.000000 0.246667
v 0.500000 23.000000 0.220000
v 0.666667 23.000000 0.193333
v 0.833333 23.000000 0.166667
v 1.000000 23.000000 0.140000
v 1.166667 23.000000 0.113333
v 1.333333 23.000000 0.086667
v 1.500000 23.000000 0.060000
v 1.666667 23.000000 0.033333
v 1.833333 23.000000 0.006667
v 2.000000 23.000000 -0.020000
v 2.166667 23.000000 -0.046667
v 2.333333 23.000000 -0.073333
v 2.500000 23.000000 -0.100000
v 2.666667 23.000000 -0.126667
v 2.833333 23.000000 -0.153333
v 3.000000 23.000000 -0.180000
v 3.166667 23.000000 -0.206667
v 3.333333 23.000000 -0.233333
v 3.500000 23.000000 -0.260000
v 3.666667 23.000000 -0.286667
v 3.833333 23.000000 -0.313333
v 4.000000 23.000000 -0.340000
v 0.000000 23.708333 0.229167
v 0.166667 23.708333 0.202500
v 0.333333 23.708333 0.175833
v 0.500000 23.708333 0.149167
v 0.666667 23.708333 0.122500
v 0.833333 23.708333 0.095833
v 1.000000 23.708333 0.069167
v 1.166667 23.708333 0.042500
v 1.333333 23.708333 0.015833
v 1.500000 23.708333 -0.010833
v 1.666667 23.708333 -0.037500
v 1.833333 23.708333 -0.064167
v 2.000000 23.708333 -0.090833
v 2.166667 23.708333 -0.117500
v 2.333333 23.708333 -0.144167
v 2.500000 23.708333 -0.170833
v 2.666667 23.708333 -0.197500
v 2.833333 23.708333 -0.224167
v 3.000000 23.708333 -0.250833
v 3.166667 23.708333 -0.277500
v 3.333333 23.708333 -0.304167
v 3.500000 23.708333 -0.330833
v 3.666667 23.708333 -0.357500
v 3.833333 23.708333 -0.384167
v 4.000000 23.708333 -0.410833
v 0.000000 24.416667 0.158333
v 0.166667 24.416667 0.131667
v 0.333333 24.416667 0.105000
v 0.500000 24.416667 0.078333
v 0.666667 24.416667 0.051667
v 0.833333 24.416667 0.025000
v 1.000000 24.416667 -0.001667
v 1.166667 24.416667 -0.028333
v 1.333333 24.416667 -0.055000
v 1.500000 24.416667 -0.081667
v 1.666667 24.416667 -0.108333
v 1.833333 24.416667 -0.135000
v 2.000000 24.416667 -0.161667
v 2.166667 24.416667 -0.188333
v 2.333333 24.416667 -0.215000
v 2.500000 24.416667 -0.241667
v 2.666667 24.416667 -0.268333
v 2.833333 24.416667 -0.295000
v 3.000000 24.416667 -0.321667
v 3.166667 24.416667 -0.348333
v 3.333333 24.416667 -0.375000
v 3.500000 24.416667 -0.401667
v 3.666667 24.416667 -0.428333
v 3.833333 24.416667 -0.455000
v 4.000000 24.416667 -0.481667
v 0.000000 25.125000 0.087500
v 0.166667 25.125000 0.060833
v 0.333333 25.125000 0.034167
v 0.500000 25.125000 0.007500
v 0.666667 25.125000 -0.019167
v 0.833333 25.125000 -0.045833
v 1.000000 25.125000 -0.072500
v 1.166667 25.125000 -0.099167
v 1.333333 25.125000 -0.125833
v 1.500000 25.125000 -0.152500
v 1.666667 25.125000 -0.179167
v 1.833333 25.125000 -0.205833
v 2.000000 25.125000 -0.232500
v 2.166667 25.125000 -0.259167
v 2.333333 25.125000 -0.285833
v 2.500000 25.125000 -0.312500
v 2.666667 25.125000 -0.339167
v 2.833333 25.125000 -0.365833
v 3.000000 25.125000 -0.392500
v 3.166667 25.125000 -0.419167
v 3.333333 25.125000 -0.445833
v 3.500000 25.125000 -0.472500
v 3.666667 25.125000 -0.499167
v 3.833333 25.125000 -0.525833
v 4.000000 25.125000 -0.552500
v 0.000000 25.833333 0.016667
v 0.166667 25.833333 -0.010000
v 0.333333 25.833333 -0.036667
v 0.500000 25.833333 -0.063333
v 0.666667 25.833333 -0.090000
v 0.833333 25.833333 -0.116667
v 1.000000 25.833333 -0.143333
v 1.166667 25.833333 -0.170000
v 1.333333 25.833333 -0.196667
v 1.500000 25.833333 -0.223333
v 1.666667 25.833333 -0.250000
v 1.833333 25.833333 -0.276667
v 2.000000 25.833333 -0.303333
v 2.166667 25.833333 -0.330000
v 2.333333 25.833333 -0.356667
v 2.500000 25.833333 -0.383333
v 2.666667 25.833333 -0.410000
v 2.833333 25.833333 -0.436667
v 3.000000 25.833333 -0.463333
v 3.166667 25.833333 -0.490000
v 3.333333 25.833333 -0.516667
v 3.500000 25.833333 -0.543333
v 3.666667 25.833333 -0.570000
v 3.833333 25.833333 -0.596667
v 4.000000 25.833333 -0.623333
v 0.000000 26.541667 -0.054167
v 0.166667 26.541667 -0.080833
v 0.333333 26.541667 -0.107500
v 0.500000 26.541667 -0.134167
v 0.666667 26.541667 -0.160833
v 0.833333 26.541667 -0.187500
v 1.000000 26.541667 -0.214167
v 1.166667 26.541667 -0.240833
v 1.333333 26.541667 -0.267500
v 1.500000 26.541667 -0.294167
v 1.666667 26.541667 -0.320833
v 1.833333 26.541667 -0.347500
v 2.000000 26.541667 -0.374167
v 2.166667 26.541667 -0.400833
v 2.333333 26.541667 -0.427500
v 2.500000 26.541667 -0.454167
v 2.666667 26.541667 -0.480833
v 2.833333 26.541667 -0.507500
v 3.000000 26.541667 -0.534167
v 3.166667 26.541667 -0.560833
v 3.333333 26.541667 -0.587500
v 3.500000 26.541667 -0.614167
v 3.666667 26.541667 -0.640833
v 3.833333 26.541667 -0.667500
v 4.000000 26.541667 -0.694167
v 0.000000 27.250000 -0.125000
v 0.166667 27.250000 -0.151667
v 0.333333 27.250000 -0.178333
v 0.500000 27.250000 -0.205000
v 0.666667 27.250000 -0.231667
v 0.833333 27.250000 -0.258333
v 1.000000 27.250000 -0.285000
v 1.166667 27.250000 -0.311667
v 1.333333 27.250000 -0.338333
v 1.500000 27.250000 -0.365000
v 1.666667 27.250000 -0.391667
v 1.833333 27.250000 -0.418333
v 2.000000 27.250000 -0.445000
v 2.166667 27.250000 -0.471667
v 2.333333 27.250000 -0.498333
v 2.500000 27.250000 -0.525000
v 2.666667 27.250000 -0.551667
v 2.833333 27.250000 -0.578333
v 3.000000 27.250000 -0.605000
v 3.166667 27.250000 -0.631667
v 3.333333 27.250000 -0.658333
v 3.500000 27.250000 -0.685000
v 3.666667 27.250000 -0.711667
v 3.833333 27.250000 -0.738333
v 4.000000 27.250000 -0.765000
v 0.000000 27.958333 -0.195833
v 0.166667 27.958333 -0.222500
v 0.333333 27.958333 -0.249167
v 0.500000 27.958333 -0.275833
v 0.666667 27.958333 -0.302500
v 0.833333 27.958333 -0.329167
v 1.000000 27.958333 -0.355833
v 1.166667 27.958333 -0.382500
v 1.333333 27.958333 -0.409167
v 1.500000 27.958333 -0.435833
v 1.666667 27.958333 -0.462500
v 1.833333 27.958333 -0.489167
v 2.000000 27.958333 -0.515833
v 2.166667 27.958333 -0.542500
v 2.333333 27.958333 -0.569167
v 2.500000 27.958333 -0.595833
v 2.666667 27.958333 -0.622500
v 2.833333 27.958333 -0.649167
v 3.000000 27.958333 -0.675833
v 3.166667 27.958333 -0.702500
v 3.333333 27.958333 -0.729167
v 3.500000 27.958333 -0.755833
v 3.666667 27.958333 -0.782500
v 3.833333 27.958333 -0.809167
v 4.000000 27.958333 -0.835833
v 0.000000 28.666667 -0.266667
v 0.166667 28.666667 -0.293333
v 0.333333 28.666667 -0.320000
v 0.500000 28.666667 -0.346667
v 0.666667 28.666667 -0.373333
v 0.833333 28.666667 -0.400000
v 1.000000 28.666667 -0.426667
v 1.166667 28.666667 -0.453333
v 1.333333 28.666667 -0.480000
v 1.500000 28.666667 -0.506667
v 1.666667 28.666667 -0.533333
v 1.833333 28.666667 -0.560000
v 2.000000 28.666667 -0.586667
v 2.166667 28.666667 -0.613333
v 2.333333 28.666667 -0.640000
v 2.500000 28.666667 -0.666667
v 2.666667 28.666667 -0.693333
v 2.833333 28.666667 -0.720000
v 3.000000 28.666667 -0.746667
v 3.166667 28.666667 -0.773333
v 3.333333 28.666667 -0.800000
v 3.500000 28.666667 -0.826667
v 3.666667 28.666667 -0.853333
v 3.833333 28.666667 -0.880000
v 4.000000 28.666667 -0.906667
v 0.000000 29.375000 -0.337500
v 0.166667 29.375000 -0.364167
v 0.333333 29.375000 -0.390833
v 0.500000 29.375000 -0.417500
v 0.666667 29.375000 -0.444167
v 0.833333 29.375000 -0.470833
v 1.000000 29.375000 -0.497500
v 1.166667 29.375000 -0.524167
v 1.333333 29.375000 -0.550833
v 1.500000 29.375000 -0.577500
v 1.666667 29.375000 -0.604167
v 1.833333 29.375000 -0.630833
v 2.000000 29.375000 -0.657500
v 2.166667 29.375000 -0.684167
v 2.333333 29.375000 -0.710833
v 2.500000 29.375000 -0.737500
v 2.666667 29.375000 -0.764167
v 2.833333 29.375000 -0.790833
v 3.000000 29.375000 -0.817500
v 3.166667 29.375000 -0.844167
v 3.333333 29.375000 -0.870833
v 3.500000 29.375000 -0.897500
v 3.666667 29.375000 -0.924167
v 3.833333 29.375000 -0.950833
v 4.000000 29.375000 -0.977500
v 0.000000 30.083333 -0.408333
v 0.166667 30.083333 -0.435000
v 0.333333 30.083333 -0.461667
v 0.500000 30.083333 -0.488333
v 0.666667 30.083333 -0.515000
v 0.833333 30.083333 -0.541667
v 1.000000 30.083333 -0.568333
v 1.166667 30.083333 -0.595000
v 1.333333 30.083333 -0.621667
v 1.500000 30.083333 -0.648333
v 1.666667 30.083333 -0.675000
v 1.833333 30.083333 -0.701667
v 2.000000 30.083333 -0.728333
v 2.166667 30.083333 -0.755000
v 2.333333 30.083333 -0.781667
v 2.500000 30.083333 -0.808333
v 2.666667 30.083333 -0.835000
v 2.833333 30.083333 -0.861667
v 3.000000 30.083333 -0.888333
v 3.166667 30.083333 -0.915000
v 3.333333 30.083333 -0.941667
v 3.500000 30.083333 -0.968333
v 3.666667 30.083333 -0.995000
v 3.833333 30.083333 -1.021667
v 4.000000 30.083333 -1.048333
v 0.000000 30.791667 -0.479167
v 0.166667 30.791667 -0.505833
v 0.333333 30.791667 -0.532500
v 0.500000 30.791667 -0.559167
v 0.666667 30.791667 -0.585833
v 0.833333 30.791667 -0.612500
v 1.000000 30.791667 -0.639167
v 1.166667 30.791667 -0.665833
v 1.333333 30.791667 -0.692500
v 1.500000 30.791667 -0.719167
v 1.666667 30.791667 -0.745833
v 1.833333 30.791667 -0.772500
v 2.000000 30.791667 -0.799167
v 2.166667 30.791667 -0.825833
v 2.333333 30.791667 -0.852500
v 2.500000 30.791667 -0.879167
v 2.666667 30.791667 -0.905833
v 2.833333 30.791667 -0.932500
v 3.000000 30.791667 -0.959167
v 3.166667 30.791667 -0.985833
v 3.333333 30.791667 -1.012500
v 3.500000 30.791667 -1.039167
v 3.666667 30.791667 -1.065833
v 3.833333 30.791667 -1.092500
v 4.000000 30.791667 -1.119167
v 0.000000 31.500000 -0.550000
v 0.166667 31.500000 -0.576667
v 0.333333 31.500000 -0.603333
v 0.500000 31.500000 -0.630000
v 0.666667 31.500000 -0.656667
v 0.833333 31.500000 -0.683333
v 1.000000 31.500000 -0.710000
v 1.166667 31.500000 -0.736667
v 1.333333 31.500000 -0.763333
v 1.500000 31.500000 -0.790000
v 1.666667 31.500000 -0.816667
v 1.833333 31.500000 -0.843333
v 2.000000 31.500000 -0.870000
v 2.166667 31.500000 -0.896667
v 2.333333 31.500000 -0.923333
v 2.500000 31.500000 -0.950000
v 2.666667 31.500000 -0.976667
v 2.833333 31.500000 -1.003333
v 3.000000 31.500000 -1.030000
v 3.166667 31.500000 -1.056667
v 3.333333 31.500000 -1.083333
v 3.500000 31.500000 -1.110000
v 3.666667 31.500000 -1.136667
v 3.833333 31.500000 -1.163333
v 4.000000 31.500000 -1.190000
v 0.000000 32.208333 -0.620833
v 0.166667 32.208333 -0.647500
v 0.333333 32.208333 -0.674167
v 0.500000 32.208333 -0.700833
v 0.666667 32.208333 -0.727500
v 0.833333 32.208333 -0.754167
v 1.000000 32.208333 -0.780833
v 1.166667 32.208333 -0.807500
v 1.333333 32.208333 -0.834167
v 1.500000 32.208333 -0.860833
v 1.666667 32.208333 -0.887500
v 1.833333 32.208333 -0.914167
v 2.000000 32.208333 -0.940833
v 2.166667 32.208333 -0.967500
v 2.333333 32.208333 -0.994167
v 2.500000 32.208333 -1.020833
v 2.666667 32.208333 -1.047500
v 2.833333 32.208333 -1.074167
v 3.000000 32.208333 -1.100833
v 3.166667 32.208333 -1.127500
v 3.333333 32.208333 -1.154167
v 3.500000 32.208333 -1.180833
v 3.666667 32.208333 -1.207500
v 3.833333 32.208333 -1.234167
v 4.000000 32.208333 -1.260833
v 0.000000 32.916667 -0.691667
v 0.166667 32.916667 -0.718333
v 0.333333 32.916667 -0.745000
v 0.500000 32.916667 -0.771667
v 0.666667 32.916667 -0.798333
v 0.833333 32.916667 -0.825000
v 1.000000 32.916667 -0.851667
v 1.166667 32.916667 -0.878333
v 1.333333 32.916667 -0.905000
v 1.500000 32.916667 -0.931667
v 1.666667 32.916667 -0.958333
v 1.833333 32.916667 -0.985000
v 2.000000 32.916667 -1.011667
v 2.166667 32.916667 -1.038333
v 2.333333 32.916667 -1.065000
v 2.500000 32.916667 -1.091667
v 2.666667 32.916667 -1.118333
v 2.833333 32.916667 -1.145000
v 3.000000 32.916667 -1.171667
v 3.166667 32.916667 -1.198333
v 3.333333 32.916667 -1.225000
v 3.500000 32.916667 -1.251667
v 3.666667 32.916667 -1.278333
v 3.833333 32.916667 -1.305000
v 4.000000 32.916667 -1.331667
v 0.000000 33.625000 -0.762500
v 0.166667 33.625000 -0.789167
v 0.333333 33.625000 -0.815833
v 0.500000 33.625000 -0.842500
v 0.666667 33.625000 -0.869167
v 0.833333 33.625000 -0.895833
v 1.000000 33.625000 -0.922500
v 1.166667 33.625000 -0.949167
v 1.333333 33.625000 -0.975833
v 1.500000 33.625000 -1.002500
v 1.666667 33.625000 -1.029167
v 1.833333 33.625000 -1.055833
v 2.000000 33.625000 -1.082500
v 2.166667 33.625000 -1.109167
v 2.333333 33.625000 -1.135833
v 2.500000 33.625000 -1.162500
v 2.666667 33.625000 -1.189167
v 2.833333 33.625000 -1.215833
v 3.000000 33.625000 -1.242500
v 3.166667 33.625000 -1.269167
v 3.333333 33.625000 -1.295833
v 3.500000 33.625000 -1.322500
v 3.666667 33.625000 -1.349167
v 3.833333 33.625000 -1.375833
v 4.000000 33.625000 -1.402500
v 0.000000 34.333333 -0.833333
v 0.166667 34.333333 -0.860000
v 0.333333 34.333333 -0.886667
v 0.500000 34.333333 -0.913333
v 0.666667 34.333333 -0.940000
v 0.833333 34.333333 -0.966667
v 1.000000 34.333333 -0.993333
v 1.166667 34.333333 -1.020000
v 1.333333 34.333333 -1.046667
v 1.500000 34.333333 -1.073333
v 1.666667 34.333333 -1.100000
v 1.833333 34.333333 -1.126667
v 2.000000 34.333333 -1.153333
v 2.166667 34.333333 -1.180000
v 2.333333 34.333333 -1.206667
v 2.500000 34.333333 -1.233333
v 2.666667 34.333333 -1.260000
v 2.833333 34.333333 -1.286667
v 3.000000 34.333333 -1.313333
v 3.166667 34.333333 -1.340000
v 3.333333 34.333333 -1.366667
v 3.500000 34.333333 -1.393333
v 3.666667 34.333333 -1.420000
v 3.833333 34.333333 -1.446667
v 4.000000 34.333333 -1.473333
v 0.000000 35.041667 -0.904167
v 0.166667 35.041667 -0.930833
v 0.333333 35.041667 -0.957500
v 0.500000 35.041667 -0.984167
v 0.666667 35.041667 -1.010833
v 0.833333 35.041667 -1.037500
v 1.000000 35.041667 -1.064167
v 1.166667 35.041667 -1.090833
v 1.333333 35.041667 -1.117500
v 1.500000 35.041667 -1.144167
v 1.666667 35.041667 -1.170833
v 1.833333 35.041667 -1.197500
v 2.000000 35.041667 -1.224167
v 2.166667 35.041667 -1.250833
v 2.333333 35.041667 -1.277500
v 2.500000 35.041667 -1.304167
v 2.666667 35.041667 -1.330833
v 2.833333 35.041667 -1.357500
v 3.000000 35.041667 -1.384167
v 3.166667 35.041667 -1.410833
v 3.333333 35.041667 -1.437500
v 3.500000 35.041667 -1.464167
v 3.666667 35.041667 -1.490833
v 3.833333 35.041667 -1.517500
v 4.000000 35.041667 -1.544167
v 0.000000 35.750000 -0.975000
v 0.166667 35.750000 -1.001667
v 0.333333 35.750000 -1.028333
v 0.500000 35.750000 -1.055000
v 0.666667 35.750000 -1.081667
v 0.833333 35.750000 -1.108333
v 1.000000 35.750000 -1.135000
v 1.166667 35.750000 -1.161667
v 1.333333 35.750000 -1.188333
v 1.500000 35.750000 -1.215000
v 1.666667 35.750000 -1.241667
v 1.833333 35.750000 -1.268333
v 2.000000 35.750000 -1.295000
v 2.166667 35.750000 -1.321667
v 2.333333 35.750000 -1.348333
v 2.500000 35.750000 -1.375000
v 2.666667 35.750000 -1.401667
v 2.833333 35.750000 -1.428333
v 3.000000 35.750000 -1.455000
v 3.166667 35.750000 -1.481667
v 3.333333 35.750000 -1.508333
v 3.500000 35.750000 -1.535000
v 3.666667 35.750000 -1.561667
v 3.833333 35.750000 -1.588333
v 4.000000 35.750000 -1.615000
v 0.000000 36.458333 -1.045833
v 0.166667 36.458333 -1.072500
v 0.333333 36.458333 -1.099167
v 0.500000 36.458333 -1.125833
v 0.666667 36.458333 -1.152500
v 0.833333 36.458333 -1.179167
v 1.000000 36.458333 -1.205833
v 1.166667 36.458333 -1.232500
v 1.333333 36.458333 -1.259167
v 1.500000 36.458333 -1.285833
v 1.666667 36.458333 -1.312500
v 1.833333 36.458333 -1.339167
v 2.000000 36.458333 -1.365833
v 2.166667 36.458333 -1.392500
v 2.333333 36.458333 -1.419167
v 2.500000 36.458333 -1.445833
v 2.666667 36.458333 -1.472500
v 2.833333 36.458333 -1.499167
v 3.000000 36.458333 -1.525833
v 3.166667 36.458333 -1.552500
v 3.333333 36.458333 -1.579167
v 3.500000 36.458333 -1.605833
v 3.666667 36.458333 -1.632500
v 3.833333 36.458333 -1.659167
v 4.000000 36.458333 -1.685833
v 0.000000 37.166667 -1.116667
v 0.166667 37.166667 -1.143333
v 0.333333 37.166667 -1.170000
v 0.500000 37.166667 -1.196667
v 0.666667 37.166667 -1.223333
v 0.833333 37.166667 -1.250000
v 1.000000 37.166667 -1.276667
v 1.166667 37.166667 -1.303333
v 1.333333 37.166667 -1.330000
v 1.500000 37.166667 -1.356667
v 1.666667 37.166667 -1.383333
v 1.833333 37.166667 -1.410000
v 2.000000 37.166667 -1.436667
v 2.166667 37.166667 -1.463333
v 2.333333 37.166667 -1.490000
v 2.500000 37.166667 -1.516667
v 2.666667 37.166667 -1.543333
v 2.833333 37.166667 -1.570000
v 3.000000 37.166667 -1.596667
v 3.166667 37.166667 -1.623333
v 3.333333 37.166667 -1.650000
v 3.500000 37.166667 -1.676667
v 3.666667 37.166667 -1.703333
v 3.833333 37.166667 -1.730000
v 4.000000 37.166667 -1.756667
v 0.000000 37.875000 -1.187500
v 0.166667 37.875000 -1.214167
v 0.333333 37.875000 -1.240833
v 0.500000 37.875000 -1.267500
v 0.666667 37.875000 -1.294167
v 0.833333 37.875000 -1.320833
v 1.000000 37.875000 -1.347500
v 1.166667 37.875000 -1.374167
v 1.333333 37.875000 -1.400833
v 1.500000 37.875000 -1.427500
v 1.666667 37.875000 -1.454167
v 1.833333 37.875000 -1.480833
v 2.000000 37.875000 -1.507500
v 2.166667 37.875000 -1.534167
v 2.333333 37.875000 -1.560833
v 2.500000 37.875000 -1.587500
v 2.666667 37.875000 -1.614167
v 2.833333 37.875000 -1.640833
v 3.000000 37.875000 -1.667500
v 3.166667 37.875000 -1.694167
v 3.333333 37.875000 -1.720833
v 3.500000 37.875000 -1.747500
v 3.666667 37.875000 -1.774167
v 3.833333 37.875000 -1.800833
v 4.000000 37.875000 -1.827500
v 0.000000 38.583333 -1.258333
v 0.166667 38.583333 -1.285000
v 0.333333 38.583333 -1.311667
v 0.500000 38.583333 -1.338333
v 0.666667 38.583333 -1.365000
v 0.833333 38.583333 -1.391667
v 1.000000 38.583333 -1.418333
v 1.166667 38.583333 -1.445000
v 1.333333 38.583333 -1.471667
v 1.500000 38.583333 -1.498333
v 1.666667 38.583333 -1.525000
v 1.833333 38.583333 -1.551667
v 2.000000 38.583333 -1.578333
v 2.166667 38.583333 -1.605000
v 2.333333 38.583333 -1.631667
v 2.500000 38.583333 -1.658333
v 2.666667 38.583333 -1.685000
v 2.833333 38.583333 -1.711667
v 3.000000 38.583333 -1.738333
v 3.166667 38.583333 -1.765000
v 3.333333 38.583333 -1.791667
v 3.500000 38.583333 -1.818333
v 3.666667 38.583333 -1.845000
v 3.833333 38.583333 -1.871667
v 4.000000 38.583333 -1.898333
v 0.000000 39.291667 -1.329167
v 0.166667 39.291667 -1.355833
v 0.333333 39.291667 -1.382500
v 0.500000 39.291667 -1.409167
v 0.666667 39.291667 -1.435833
v 0.833333 39.291667 -1.462500
v 1.000000 39.291667 -1.489167
v 1.166667 39.291667 -1.515833
v 1.333333 39.291667 -1.542500
v 1.500000 39.291667 -1.569167
v 1.666667 39.291667 -1.595833
v 1.833333 39.291667 -1.622500
v 2.000000 39.291667 -1.649167
v 2.166667 39.291667 -1.675833
v 2.333333 39.291667 -1.702500
v 2.500000 39.291667 -1.729167
v 2.666667 39.291667 -1.755833
v 2.833333 39.291667 -1.782500
v 3.000000 39.291667 -1.809167
v 3.166667 39.291667 -1.835833
v 3.333333 39.291667 -1.862500
v 3.500000 39.291667 -1.889167
v 3.666667 39.291667 -1.915833
v 3.833333 39.291667 -1.942500
v 4.000000 39.291667 -1.969167
v 0.000000 40.000000 -1.400000
v 0.166667 40.000000 -1.426667
v 0.333333 40.000000 -1.453333
v 0.500000 40.000000 -1.480000
v 0.666667 40.000000 -1.506667
v 0.833333 40.000000 -1.533333
v 1.000000 40.000000 -1.560000
v 1.166667 40.000000 -1.586667
v 1.333333 40.000000 -1.613333
v 1.500000 40.000000 -1.640000
v 1.666667 40.000000 -1.666667
v 1.833333 40.000000 -1.693333
v 2.000000 40.000000 -1.720000
v 2.166667 40.000000 -1.746667
v 2.333333 40.000000 -1.773333
v 2.500000 40.000000 -1.800000
v 2.666667 40.000000 -1.826667
v 2.833333 40.000000 -1.853333
v 3.000000 40.000000 -1.880000
v 3.166667 40.000000 -1.906667
v 3.333333 40.000000 -1.933333
v 3.500000 40.000000 -1.960000
v 3.666667 40.000000 -1.986667
v 3.833333 40.000000 -2.013333
v 4.000000 40.000000 -2.040000
f 27 28 53
f 27 53 52
f 28 29 54
f 28 54 53
f 29 30 55
f 29 55 54
f 30 31 56
f 30 56 55
f 52 53 78
f 52 78 77
f 53 54 79
f 53 79 78
