o [4B] 3D Diagram - S2-06 Group G_26
v -5.890000 -5.890000 0.192500
v -5.890000 -5.620000 0.192500
v -5.890000 -5.620000 0.665000
v -5.890000 -5.890000 0.665000
v -5.620000 -5.890000 0.192500
v -5.620000 -5.890000 0.665000
v -5.620000 -5.620000 0.192500
v -5.620000 -5.620000 0.665000
v -5.890000 -5.350000 0.192500
v -5.890000 -5.350000 0.665000
v -5.620000 -5.350000 0.192500
v -5.620000 -5.350000 0.665000
v -5.890000 -5.080000 0.192500
v -5.890000 -5.080000 0.665000
v -5.620000 -5.080000 0.192500
v -5.620000 -5.080000 0.665000
v -5.890000 -4.810000 0.192500
v -5.890000 -4.810000 0.665000
v -5.620000 -4.810000 0.192500
v -5.620000 -4.810000 0.665000
v -5.890000 -4.540000 0.192500
v -5.890000 -4.540000 0.665000
v -5.620000 -4.540000 0.192500
v -5.620000 -4.540000 0.665000
v -5.890000 -4.270000 0.192500
v -5.890000 -4.270000 0.665000
v -5.620000 -4.270000 0.192500
v -5.620000 -4.270000 0.665000
v -5.890000 -4.000000 0.192500
v -5.890000 -4.000000 0.665000
v -5.620000 -4.000000 0.665000
v -5.620000 -4.000000 0.192500
v -5.350000 -5.890000 0.192500
v -5.350000 -5.890000 0.665000
v -5.350000 -5.620000 0.192500
v -5.350000 -5.620000 0.665000
v -5.350000 -5.350000 0.192500
v -5.620000 -5.350000 1.137500
v -5.620000 -5.620000 1.137500
v -5.350000 -5.620000 1.137500
v -5.620000 -5.350000 1.610000
v -5.620000 -5.620000 1.610000
v -5.350000 -5.620000 1.610000
v -5.350000 -5.350000 1.610000
v -5.350000 -5.080000 0.192500
v -5.620000 -5.080000 1.137500
v -5.620000 -5.080000 1.610000
v -5.350000 -5.080000 1.610000
v -5.350000 -4.810000 0.192500
v -5.620000 -4.810000 1.137500
v -5.620000 -4.810000 1.610000
v -5.350000 -4.810000 1.610000
v -5.350000 -4.540000 0.192500
v -5.620000 -4.540000 1.137500
v -5.620000 -4.540000 1.610000
v -5.350000 -4.540000 1.610000
v -5.350000 -4.270000 0.192500
v -5.620000 -4.270000 1.137500
v -5.620000 -4.270000 1.610000
v -5.350000 -4.270000 1.610000
v -5.350000 -4.000000 0.665000
v -5.350000 -4.000000 0.192500
v -5.620000 -4.000000 1.137500
v -5.620000 -4.000000 1.610000
v -5.350000 -4.000000 1.610000
v -5.620000 -3.730000 0.665000
v -5.620000 -3.730000 1.137500
v -5.350000 -3.730000 1.137500
v -5.350000 -3.730000 0.665000
v -5.620000 -3.730000 1.610000
v -5.350000 -3.730000 1.610000
v -5.080000 -5.890000 0.192500
v -5.080000 -5.890000 0.665000
v -5.080000 -5.620000 0.192500
v -5.080000 -5.620000 0.665000
v -5.080000 -5.350000 0.192500
v -5.080000 -5.620000 1.137500
v -5.080000 -5.620000 1.610000
v -5.080000 -5.350000 1.610000
v -5.080000 -5.080000 0.192500
v -5.350000 -5.080000 2.082500
v -5.350000 -5.350000 2.082500
v -5.080000 -5.350000 2.082500
v -5.350000 -5.080000 2.555000
v -5.350000 -5.350000 2.555000
v -5.080000 -5.350000 2.555000
v -5.080000 -5.080000 2.555000
v -5.080000 -4.810000 0.192500
v -5.350000 -4.810000 2.082500
v -5.350000 -4.810000 2.555000
v -5.080000 -4.810000 2.555000
v -5.080000 -4.540000 0.192500
v -5.350000 -4.540000 2.082500
v -5.350000 -4.540000 2.555000
v -5.080000 -4.540000 2.555000
v -5.080000 -4.270000 0.192500
v -5.350000 -4.270000 2.082500
v -5.350000 -4.270000 2.555000
v -5.080000 -4.270000 2.555000
v -5.080000 -4.000000 0.665000
v -5.080000 -4.000000 0.192500
v -5.350000 -4.000000 2.082500
v -5.350000 -4.000000 2.555000
v -5.080000 -4.000000 2.555000
v -5.080000 -3.730000 1.137500
v -5.080000 -3.730000 0.665000
v -5.080000 -3.730000 1.610000
v -5.350000 -3.730000 2.082500
v -5.350000 -3.730000 2.555000
v -5.080000 -3.730000 2.555000
v -5.350000 -3.460000 1.610000
v -5.350000 -3.460000 2.082500
v -5.080000 -3.460000 2.082500
v -5.080000 -3.460000 1.610000
v -5.350000 -3.460000 2.555000
v -5.080000 -3.460000 2.555000
v -4.810000 -5.890000 0.192500
v -4.810000 -5.890000 0.665000
v -4.810000 -5.620000 0.192500
v -4.810000 -5.620000 0.665000
v -4.810000 -5.350000 0.192500
v -4.810000 -5.620000 1.137500
v -4.810000 -5.620000 1.610000
v -4.810000 -5.350000 1.610000
v -4.810000 -5.080000 0.192500
v -4.810000 -5.350000 2.082500
v -4.810000 -5.350000 2.555000
v -4.810000 -5.080000 2.555000
v -4.810000 -4.810000 0.192500
v -5.080000 -4.810000 3.027500
v -5.080000 -5.080000 3.027500
v -4.810000 -5.080000 3.027500
v -5.080000 -4.810000 3.500000
v -5.080000 -5.080000 3.500000
v -4.810000 -5.080000 3.500000
v -4.810000 -4.810000 3.500000
v -4.810000 -4.540000 0.192500
v -5.080000 -4.540000 3.027500
v -5.080000 -4.540000 3.500000
v -4.810000 -4.540000 3.500000
v -4.810000 -4.270000 0.192500
v -5.080000 -4.270000 3.027500
v -5.080000 -4.270000 3.500000
v -4.810000 -4.270000 3.500000
v -4.810000 -4.000000 0.665000
v -4.810000 -4.000000 0.192500
v -5.080000 -4.000000 3.027500
v -5.080000 -4.000000 3.500000
v -4.810000 -4.000000 3.500000
v -4.810000 -3.730000 1.137500
v -4.810000 -3.730000 0.665000
v -4.810000 -3.730000 1.610000
v -5.080000 -3.730000 3.027500
v -5.080000 -3.730000 3.500000
v -4.810000 -3.730000 3.500000
v -4.810000 -3.460000 2.082500
v -4.810000 -3.460000 1.610000
v -4.810000 -3.460000 2.555000
v -5.080000 -3.460000 3.027500
v -5.080000 -3.460000 3.500000
v -4.810000 -3.460000 3.500000
v -5.080000 -3.190000 2.555000
v -5.080000 -3.190000 3.027500
v -4.810000 -3.190000 3.027500
v -4.810000 -3.190000 2.555000
v -5.080000 -3.190000 3.500000
v -4.810000 -3.190000 3.500000
v -4.540000 -5.890000 0.192500
v -4.540000 -5.890000 0.665000
v -4.540000 -5.620000 0.192500
v -4.540000 -5.620000 0.665000
v -4.540000 -5.350000 0.192500
v -4.540000 -5.620000 1.137500
v -4.540000 -5.620000 1.610000
v -4.540000 -5.350000 1.610000
v -4.540000 -5.080000 0.192500
v -4.540000 -5.350000 2.082500
v -4.540000 -5.350000 2.555000
v -4.540000 -5.080000 2.555000
v -4.540000 -4.810000 0.192500
v -4.540000 -5.080000 3.027500
v -4.540000 -5.080000 3.500000
v -4.540000 -4.810000 3.500000
v -4.540000 -4.540000 0.192500
v -4.810000 -4.540000 3.972500
v -4.810000 -4.810000 3.972500
v -4.540000 -4.810000 3.972500
v -4.810000 -4.540000 4.445000
v -4.810000 -4.810000 4.445000
v -4.540000 -4.810000 4.445000
v -4.540000 -4.540000 4.445000
v -4.540000 -4.270000 0.192500
v -4.810000 -4.270000 3.972500
v -4.810000 -4.270000 4.445000
v -4.540000 -4.270000 4.445000
v -4.540000 -4.000000 0.665000
v -4.540000 -4.000000 0.192500
v -4.810000 -4.000000 3.972500
v -4.810000 -4.000000 4.445000
v -4.540000 -4.000000 4.445000
v -4.540000 -3.730000 1.137500
v -4.540000 -3.730000 0.665000
v -4.540000 -3.730000 1.610000
v -4.810000 -3.730000 3.972500
v -4.810000 -3.730000 4.445000
v -4.540000 -3.730000 4.445000
v -4.540000 -3.460000 2.082500
v -4.540000 -3.460000 1.610000
v -4.540000 -3.460000 2.555000
v -4.810000 -3.460000 3.972500
v -4.810000 -3.460000 4.445000
v -4.540000 -3.460000 4.445000
v -4.540000 -3.190000 3.027500
v -4.540000 -3.190000 2.555000
v -4.540000 -3.190000 3.500000
v -4.810000 -3.190000 3.972500
v -4.810000 -3.190000 4.445000
v -4.540000 -3.190000 4.445000
v -4.810000 -2.920000 3.500000
v -4.810000 -2.920000 3.972500
v -4.540000 -2.920000 3.972500
v -4.540000 -2.920000 3.500000
v -4.810000 -2.920000 4.445000
v -4.540000 -2.920000 4.445000
v -4.270000 -5.890000 0.192500
v -4.270000 -5.890000 0.665000
v -4.270000 -5.620000 0.192500
v -4.270000 -5.620000 0.665000
v -4.270000 -5.350000 0.192500
v -4.270000 -5.620000 1.137500
v -4.270000 -5.620000 1.610000
v -4.270000 -5.350000 1.610000
v -4.270000 -5.080000 0.192500
v -4.270000 -5.350000 2.082500
v -4.270000 -5.350000 2.555000
v -4.270000 -5.080000 2.555000
v -4.270000 -4.810000 0.192500
v -4.270000 -5.080000 3.027500
v -4.270000 -5.080000 3.500000
v -4.270000 -4.810000 3.500000
v -4.270000 -4.540000 0.192500
v -4.270000 -4.810000 3.972500
v -4.270000 -4.810000 4.445000
v -4.270000 -4.540000 4.445000
v -4.270000 -4.270000 0.192500
v -4.540000 -4.270000 4.917500
v -4.540000 -4.540000 4.917500
v -4.270000 -4.540000 4.917500
v -4.540000 -4.270000 5.390000
v -4.540000 -4.540000 5.390000
v -4.270000 -4.540000 5.390000
v -4.270000 -4.270000 5.390000
v -4.270000 -4.000000 0.665000
v -4.270000 -4.000000 0.192500
v -4.540000 -4.000000 4.917500
v -4.540000 -4.000000 5.390000
v -4.270000 -4.000000 5.390000
v -4.270000 -3.730000 1.137500
v -4.270000 -3.730000 0.665000
v -4.270000 -3.730000 1.610000
v -4.540000 -3.730000 4.917500
v -4.540000 -3.730000 5.390000
v -4.270000 -3.730000 5.390000
v -4.270000 -3.460000 2.082500
v -4.270000 -3.460000 1.610000
v -4.270000 -3.460000 2.555000
v -4.540000 -3.460000 4.917500
v -4.540000 -3.460000 5.390000
v -4.270000 -3.460000 5.390000
v -4.270000 -3.190000 3.027500
v -4.270000 -3.190000 2.555000
v -4.270000 -3.190000 3.500000
v -4.540000 -3.190000 4.917500
v -4.540000 -3.190000 5.390000
v -4.270000 -3.190000 5.390000
v -4.270000 -2.920000 3.972500
v -4.270000 -2.920000 3.500000
v -4.270000 -2.920000 4.445000
v -4.540000 -2.920000 4.917500
v -4.540000 -2.920000 5.390000
v -4.270000 -2.920000 5.390000
v -4.540000 -2.650000 4.445000
v -4.540000 -2.650000 4.917500
v -4.270000 -2.650000 4.917500
v -4.270000 -2.650000 4.445000
v -4.540000 -2.650000 5.390000
v -4.270000 -2.650000 5.390000
v -4.000000 -5.890000 0.192500
v -4.000000 -5.890000 0.665000
v -4.000000 -5.620000 0.665000
v -4.000000 -5.620000 0.192500
v -4.000000 -5.350000 0.665000
v -4.000000 -5.350000 0.192500
v -4.000000 -5.620000 1.137500
v -4.000000 -5.620000 1.610000
v -4.000000 -5.350000 1.610000
v -4.000000 -5.080000 0.665000
v -4.000000 -5.080000 0.192500
v -4.000000 -5.350000 2.082500
v -4.000000 -5.350000 2.555000
v -4.000000 -5.080000 2.555000
v -4.000000 -4.810000 0.665000
v -4.000000 -4.810000 0.192500
v -4.000000 -5.080000 3.027500
v -4.000000 -5.080000 3.500000
v -4.000000 -4.810000 3.500000
v -4.000000 -4.540000 0.665000
v -4.000000 -4.540000 0.192500
v -4.000000 -4.810000 3.972500
v -4.000000 -4.810000 4.445000
v -4.000000 -4.540000 4.445000
v -4.000000 -4.270000 0.665000
v -4.000000 -4.270000 0.192500
v -4.000000 -4.540000 4.917500
v -4.000000 -4.540000 5.390000
v -4.000000 -4.270000 5.390000
v -4.000000 -4.000000 0.665000
v -4.000000 -4.000000 0.192500
v -4.270000 -4.000000 5.862500
v -4.270000 -4.270000 5.862500
v -4.000000 -4.270000 5.862500
v -4.270000 -4.000000 6.335000
v -4.270000 -4.270000 6.335000
v -4.000000 -4.270000 6.335000
v -4.000000 -4.000000 6.335000
v -4.000000 -3.730000 1.137500
v -4.000000 -3.730000 0.665000
v -4.000000 -3.730000 1.610000
v -4.270000 -3.730000 5.862500
v -4.270000 -3.730000 6.335000
v -4.000000 -3.730000 6.335000
v -4.000000 -3.460000 2.082500
v -4.000000 -3.460000 1.610000
v -4.000000 -3.460000 2.555000
v -4.270000 -3.460000 5.862500
v -4.270000 -3.460000 6.335000
v -4.000000 -3.460000 6.335000
v -4.000000 -3.190000 3.027500
v -4.000000 -3.190000 2.555000
v -4.000000 -3.190000 3.500000
v -4.270000 -3.190000 5.862500
v -4.270000 -3.190000 6.335000
v -4.000000 -3.190000 6.335000
v -4.000000 -2.920000 3.972500
v -4.000000 -2.920000 3.500000
v -4.000000 -2.920000 4.445000
v -4.270000 -2.920000 5.862500
v -4.270000 -2.920000 6.335000
v -4.000000 -2.920000 6.335000
v -4.000000 -2.650000 4.917500
v -4.000000 -2.650000 4.445000
v -4.000000 -2.650000 5.390000
v -4.270000 -2.650000 5.862500
v -4.270000 -2.650000 6.335000
v -4.000000 -2.650000 6.335000
v -4.270000 -2.380000 5.390000
v -4.270000 -2.380000 5.862500
v -4.000000 -2.380000 5.862500
v -4.000000 -2.380000 5.390000
v -4.270000 -2.380000 6.335000
v -4.000000 -2.380000 6.335000
v -3.730000 -5.620000 0.665000
v -3.730000 -5.620000 1.137500
v -3.730000 -5.350000 1.137500
v -3.730000 -5.350000 0.665000
v -3.730000 -5.620000 1.610000
v -3.730000 -5.350000 1.610000
v -3.730000 -5.080000 1.137500
v -3.730000 -5.080000 0.665000
v -3.730000 -5.080000 1.610000
v -3.730000 -5.350000 2.082500
v -3.730000 -5.350000 2.555000
v -3.730000 -5.080000 2.555000
v -3.730000 -4.810000 1.137500
v -3.730000 -4.810000 0.665000
v -3.730000 -4.810000 1.610000
v -3.730000 -5.080000 3.027500
v -3.730000 -5.080000 3.500000
v -3.730000 -4.810000 3.500000
v -3.730000 -4.540000 1.137500
v -3.730000 -4.540000 0.665000
v -3.730000 -4.540000 1.610000
v -3.730000 -4.810000 3.972500
v -3.730000 -4.810000 4.445000
v -3.730000 -4.540000 4.445000
v -3.730000 -4.270000 1.137500
v -3.730000 -4.270000 0.665000
v -3.730000 -4.270000 1.610000
v -3.730000 -4.540000 4.917500
v -3.730000 -4.540000 5.390000
v -3.730000 -4.270000 5.390000
v -3.730000 -4.000000 1.137500
v -3.730000 -4.000000 0.665000
v -3.730000 -4.000000 1.610000
v -3.730000 -4.270000 5.862500
v -3.730000 -4.270000 6.335000
v -3.730000 -4.000000 6.335000
v -3.730000 -3.730000 1.137500
v -3.730000 -3.730000 0.665000
v -3.730000 -3.730000 1.610000
v -4.000000 -3.730000 6.807500
v -4.000000 -4.000000 6.807500
v -3.730000 -4.000000 6.807500
v -3.730000 -3.730000 6.807500
v -3.730000 -3.460000 2.082500
v -3.730000 -3.460000 1.610000
v -3.730000 -3.460000 2.555000
v -4.000000 -3.460000 6.807500
v -3.730000 -3.460000 6.807500
v -3.730000 -3.190000 3.027500
v -3.730000 -3.190000 2.555000
v -3.730000 -3.190000 3.500000
v -4.000000 -3.190000 6.807500
v -3.730000 -3.190000 6.807500
v -3.730000 -2.920000 3.972500
v -3.730000 -2.920000 3.500000
v -3.730000 -2.920000 4.445000
v -4.000000 -2.920000 6.807500
v -3.730000 -2.920000 6.807500
v -3.730000 -2.650000 4.917500
v -3.730000 -2.650000 4.445000
v -3.730000 -2.650000 5.390000
v -4.000000 -2.650000 6.807500
v -3.730000 -2.650000 6.807500
v -3.730000 -2.380000 5.862500
v -3.730000 -2.380000 5.390000
v -3.730000 -2.380000 6.335000
v -4.000000 -2.380000 6.807500
v -3.730000 -2.380000 6.807500
v -4.000000 -2.110000 6.335000
v -4.000000 -2.110000 6.807500
v -3.730000 -2.110000 6.807500
v -3.730000 -2.110000 6.335000
v -3.460000 -5.350000 1.610000
v -3.460000 -5.350000 2.082500
v -3.460000 -5.080000 2.082500
v -3.460000 -5.080000 1.610000
v -3.460000 -5.350000 2.555000
v -3.460000 -5.080000 2.555000
v -3.460000 -4.810000 2.082500
v -3.460000 -4.810000 1.610000
v -3.460000 -4.810000 2.555000
v -3.460000 -5.080000 3.027500
v -3.460000 -5.080000 3.500000
v -3.460000 -4.810000 3.500000
v -3.460000 -4.540000 2.082500
v -3.460000 -4.540000 1.610000
v -3.460000 -4.540000 2.555000
v -3.460000 -4.810000 3.972500
v -3.460000 -4.810000 4.445000
v -3.460000 -4.540000 4.445000
v -3.460000 -4.270000 2.082500
v -3.460000 -4.270000 1.610000
v -3.460000 -4.270000 2.555000
v -3.460000 -4.540000 4.917500
v -3.460000 -4.540000 5.390000
v -3.460000 -4.270000 5.390000
v -3.460000 -4.000000 2.082500
v -3.460000 -4.000000 1.610000
v -3.460000 -4.000000 2.555000
v -3.460000 -4.270000 5.862500
v -3.460000 -4.270000 6.335000
v -3.460000 -4.000000 6.335000
v -3.460000 -3.730000 2.082500
v -3.460000 -3.730000 1.610000
v -3.460000 -3.730000 2.555000
v -3.460000 -4.000000 6.807500
v -3.460000 -3.730000 6.807500
v -3.460000 -3.460000 2.082500
v -3.460000 -3.460000 1.610000
v -3.460000 -3.460000 2.555000
v -3.460000 -3.460000 6.807500
v -3.460000 -3.190000 3.027500
v -3.460000 -3.190000 2.555000
v -3.460000 -3.190000 3.500000
v -3.460000 -3.190000 6.807500
v -3.460000 -2.920000 3.972500
v -3.460000 -2.920000 3.500000
v -3.460000 -2.920000 4.445000
v -3.460000 -2.920000 6.807500
v -3.460000 -2.650000 4.917500
v -3.460000 -2.650000 4.445000
v -3.460000 -2.650000 5.390000
v -3.460000 -2.650000 6.807500
v -3.460000 -2.380000 5.862500
v -3.460000 -2.380000 5.390000
v -3.460000 -2.380000 6.335000
v -3.460000 -2.380000 6.807500
v -3.460000 -2.110000 6.807500
v -3.460000 -2.110000 6.335000
v -3.190000 -5.080000 2.555000
v -3.190000 -5.080000 3.027500
v -3.190000 -4.810000 3.027500
v -3.190000 -4.810000 2.555000
v -3.190000 -5.080000 3.500000
v -3.190000 -4.810000 3.500000
v -3.190000 -4.540000 3.027500
v -3.190000 -4.540000 2.555000
v -3.190000 -4.540000 3.500000
v -3.190000 -4.810000 3.972500
v -3.190000 -4.810000 4.445000
v -3.190000 -4.540000 4.445000
v -3.190000 -4.270000 3.027500
v -3.190000 -4.270000 2.555000
v -3.190000 -4.270000 3.500000
v -3.190000 -4.540000 4.917500
v -3.190000 -4.540000 5.390000
v -3.190000 -4.270000 5.390000
v -3.190000 -4.000000 3.027500
v -3.190000 -4.000000 2.555000
v -3.190000 -4.000000 3.500000
v -3.190000 -4.270000 5.862500
v -3.190000 -4.270000 6.335000
v -3.190000 -4.000000 6.335000
v -3.190000 -3.730000 3.027500
v -3.190000 -3.730000 2.555000
v -3.190000 -3.730000 3.500000
v -3.190000 -4.000000 6.807500
v -3.190000 -3.730000 6.807500
v -3.190000 -3.460000 3.027500
v -3.190000 -3.460000 2.555000
v -3.190000 -3.460000 3.500000
v -3.190000 -3.460000 6.807500
v -3.190000 -3.190000 3.027500
v -3.190000 -3.190000 2.555000
v -3.190000 -3.190000 3.500000
v -3.190000 -3.190000 6.807500
v -3.190000 -2.920000 3.972500
v -3.190000 -2.920000 3.500000
v -3.190000 -2.920000 4.445000
v -3.190000 -2.920000 6.807500
v -3.190000 -2.650000 4.917500
v -3.190000 -2.650000 4.445000
v -3.190000 -2.650000 5.390000
v -3.190000 -2.650000 6.807500
v -3.190000 -2.380000 5.862500
v -3.190000 -2.380000 5.390000
v -3.190000 -2.380000 6.335000
v -3.190000 -2.380000 6.807500
v -3.190000 -2.110000 6.807500
v -3.190000 -2.110000 6.335000
v -2.920000 -4.810000 3.500000
v -2.920000 -4.810000 3.972500
v -2.920000 -4.540000 3.972500
v -2.920000 -4.540000 3.500000
v -2.920000 -4.810000 4.445000
v -2.920000 -4.540000 4.445000
v -2.920000 -4.270000 3.972500
v -2.920000 -4.270000 3.500000
v -2.920000 -4.270000 4.445000
v -2.920000 -4.540000 4.917500
v -2.920000 -4.540000 5.390000
v -2.920000 -4.270000 5.390000
v -2.920000 -4.000000 3.972500
v -2.920000 -4.000000 3.500000
v -2.920000 -4.000000 4.445000
v -2.920000 -4.270000 5.862500
v -2.920000 -4.270000 6.335000
v -2.920000 -4.000000 6.335000
v -2.920000 -3.730000 3.972500
v -2.920000 -3.730000 3.500000
v -2.920000 -3.730000 4.445000
v -2.920000 -4.000000 6.807500
v -2.920000 -3.730000 6.807500
v -2.920000 -3.460000 3.972500
v -2.920000 -3.460000 3.500000
v -2.920000 -3.460000 4.445000
v -2.920000 -3.460000 6.807500
v -2.920000 -3.190000 3.972500
v -2.920000 -3.190000 3.500000
v -2.920000 -3.190000 4.445000
v -2.920000 -3.190000 6.807500
v -2.920000 -2.920000 3.972500
v -2.920000 -2.920000 3.500000
v -2.920000 -2.920000 4.445000
v -2.920000 -2.920000 6.807500
v -2.920000 -2.650000 4.917500
v -2.920000 -2.650000 4.445000
v -2.920000 -2.650000 5.390000
v -2.920000 -2.650000 6.807500
v -2.920000 -2.380000 5.862500
v -2.920000 -2.380000 5.390000
v -2.920000 -2.380000 6.335000
v -2.920000 -2.380000 6.807500
v -2.920000 -2.110000 6.807500
v -2.920000 -2.110000 6.335000
v -2.650000 -4.540000 4.445000
v -2.650000 -4.540000 4.917500
v -2.650000 -4.270000 4.917500
v -2.650000 -4.270000 4.445000
v -2.650000 -4.540000 5.390000
v -2.650000 -4.270000 5.390000
v -2.650000 -4.000000 4.917500
v -2.650000 -4.000000 4.445000
v -2.650000 -4.000000 5.390000
v -2.650000 -4.270000 5.862500
v -2.650000 -4.270000 6.335000
v -2.650000 -4.000000 6.335000
v -2.650000 -3.730000 4.917500
v -2.650000 -3.730000 4.445000
v -2.650000 -3.730000 5.390000
v -2.650000 -4.000000 6.807500
v -2.650000 -3.730000 6.807500
v -2.650000 -3.460000 4.917500
v -2.650000 -3.460000 4.445000
v -2.650000 -3.460000 5.390000
v -2.650000 -3.460000 6.807500
v -2.650000 -3.190000 4.917500
v -2.650000 -3.190000 4.445000
v -2.650000 -3.190000 5.390000
v -2.650000 -3.190000 6.807500
v -2.650000 -2.920000 4.917500
v -2.650000 -2.920000 4.445000
v -2.650000 -2.920000 5.390000
v -2.650000 -2.920000 6.807500
v -2.650000 -2.650000 4.917500
v -2.650000 -2.650000 4.445000
v -2.650000 -2.650000 5.390000
v -2.650000 -2.650000 6.807500
v -2.650000 -2.380000 5.862500
v -2.650000 -2.380000 5.390000
v -2.650000 -2.380000 6.335000
v -2.650000 -2.380000 6.807500
v -2.650000 -2.110000 6.807500
v -2.650000 -2.110000 6.335000
v -2.380000 -4.270000 5.390000
v -2.380000 -4.270000 5.862500
v -2.380000 -4.000000 5.862500
v -2.380000 -4.000000 5.390000
v -2.380000 -4.270000 6.335000
v -2.380000 -4.000000 6.335000
v -2.380000 -3.730000 5.862500
v -2.380000 -3.730000 5.390000
v -2.380000 -3.730000 6.335000
v -2.380000 -4.000000 6.807500
v -2.380000 -3.730000 6.807500
v -2.380000 -3.460000 5.862500
v -2.380000 -3.460000 5.390000
v -2.380000 -3.460000 6.335000
v -2.380000 -3.460000 6.807500
v -2.380000 -3.190000 5.862500
v -2.380000 -3.190000 5.390000
v -2.380000 -3.190000 6.335000
v -2.380000 -3.190000 6.807500
v -2.380000 -2.920000 5.862500
v -2.380000 -2.920000 5.390000
v -2.380000 -2.920000 6.335000
v -2.380000 -2.920000 6.807500
v -2.380000 -2.650000 5.862500
v -2.380000 -2.650000 5.390000
v -2.380000 -2.650000 6.335000
v -2.380000 -2.650000 6.807500
v -2.380000 -2.380000 5.862500
v -2.380000 -2.380000 5.390000
v -2.380000 -2.380000 6.335000
v -2.380000 -2.380000 6.807500
v -2.380000 -2.110000 6.807500
v -2.380000 -2.110000 6.335000
v -2.110000 -4.000000 6.335000
v -2.110000 -4.000000 6.807500
v -2.110000 -3.730000 6.807500
v -2.110000 -3.730000 6.335000
v -2.110000 -3.460000 6.807500
v -2.110000 -3.460000 6.335000
v -2.110000 -3.190000 6.807500
v -2.110000 -3.190000 6.335000
v -2.110000 -2.920000 6.807500
v -2.110000 -2.920000 6.335000
v -2.110000 -2.650000 6.807500
v -2.110000 -2.650000 6.335000
v -2.110000 -2.380000 6.807500
v -2.110000 -2.380000 6.335000
v -2.110000 -2.110000 6.807500
v -2.110000 -2.110000 6.335000
f 1 2 3
f 1 3 4
f 1 5 6
f 1 6 4
f 1 2 7
f 1 7 5
f 4 6 8
f 4 8 3
f 2 9 10
f 2 10 3
f 2 9 11
f 2 11 7
f 3 8 12
f 3 12 10
f 9 13 14
f 9 14 10
f 9 13 15
f 9 15 11
f 10 12 16
f 10 16 14
f 13 17 18
f 13 18 14
f 13 17 19
f 13 19 15
f 14 16 20
f 14 20 18
f 17 21 22
f 17 22 18
f 17 21 23
f 17 23 19
f 18 20 24
f 18 24 22
f 21 25 26
f 21 26 22
f 21 25 27
f 21 27 23
f 22 24 28
f 22 28 26
f 25 29 30
f 25 30 26
f 29 30 31
f 29 31 32
f 25 29 32
f 25 32 27
f 26 28 31
f 26 31 30
f 5 33 34
f 5 34 6
f 5 7 35
f 5 35 33
f 6 34 36
f 6 36 8
f 7 11 37
f 7 37 35
f 8 12 38
f 8 38 39
f 8 36 40
f 8 40 39
f 39 38 41
f 39 41 42
f 39 40 43
f 39 43 42
f 42 43 44
f 42 44 41
f 11 15 45
f 11 45 37
f 12 16 46
f 12 46 38
f 38 46 47
f 38 47 41
f 41 44 48
f 41 48 47
f 15 19 49
f 15 49 45
f 16 20 50
f 16 50 46
f 46 50 51
f 46 51 47
f 47 48 52
f 47 52 51
f 19 23 53
f 19 53 49
f 20 24 54
f 20 54 50
f 50 54 55
f 50 55 51
f 51 52 56
f 51 56 55
f 23 27 57
f 23 57 53
f 24 28 58
f 24 58 54
f 54 58 59
f 54 59 55
f 55 56 60
f 55 60 59
f 32 31 61
f 32 61 62
f 27 32 62
f 27 62 57
f 28 31 63
f 28 63 58
f 58 63 64
f 58 64 59
f 59 60 65
f 59 65 64
f 31 66 67
f 31 67 63
f 66 67 68
f 66 68 69
f 31 66 69
f 31 69 61
f 63 67 70
f 63 70 64
f 67 70 71
f 67 71 68
f 64 65 71
f 64 71 70
f 33 72 73
f 33 73 34
f 33 35 74
f 33 74 72
f 34 73 75
f 34 75 36
f 35 37 76
f 35 76 74
f 36 75 77
f 36 77 40
f 40 77 78
f 40 78 43
f 43 78 79
f 43 79 44
f 37 45 80
f 37 80 76
f 44 48 81
f 44 81 82
f 44 79 83
f 44 83 82
f 82 81 84
f 82 84 85
f 82 83 86
f 82 86 85
f 85 86 87
f 85 87 84
f 45 49 88
f 45 88 80
f 48 52 89
f 48 89 81
f 81 89 90
f 81 90 84
f 84 87 91
f 84 91 90
f 49 53 92
f 49 92 88
f 52 56 93
f 52 93 89
f 89 93 94
f 89 94 90
f 90 91 95
f 90 95 94
f 53 57 96
f 53 96 92
f 56 60 97
f 56 97 93
f 93 97 98
f 93 98 94
f 94 95 99
f 94 99 98
f 62 61 100
f 62 100 101
f 57 62 101
f 57 101 96
f 60 65 102
f 60 102 97
f 97 102 103
f 97 103 98
f 98 99 104
f 98 104 103
f 69 68 105
f 69 105 106
f 61 69 106
f 61 106 100
f 68 71 107
f 68 107 105
f 65 71 108
f 65 108 102
f 102 108 109
f 102 109 103
f 103 104 110
f 103 110 109
f 71 111 112
f 71 112 108
f 111 112 113
f 111 113 114
f 71 111 114
f 71 114 107
f 108 112 115
f 108 115 109
f 112 115 116
f 112 116 113
f 109 110 116
f 109 116 115
f 72 117 118
f 72 118 73
f 72 74 119
f 72 119 117
f 73 118 120
f 73 120 75
f 74 76 121
f 74 121 119
f 75 120 122
f 75 122 77
f 77 122 123
f 77 123 78
f 78 123 124
f 78 124 79
f 76 80 125
f 76 125 121
f 79 124 126
f 79 126 83
f 83 126 127
f 83 127 86
f 86 127 128
f 86 128 87
f 80 88 129
f 80 129 125
f 87 91 130
f 87 130 131
f 87 128 132
f 87 132 131
f 131 130 133
f 131 133 134
f 131 132 135
f 131 135 134
f 134 135 136
f 134 136 133
f 88 92 137
f 88 137 129
f 91 95 138
f 91 138 130
f 130 138 139
f 130 139 133
f 133 136 140
f 133 140 139
f 92 96 141
f 92 141 137
f 95 99 142
f 95 142 138
f 138 142 143
f 138 143 139
f 139 140 144
f 139 144 143
f 101 100 145
f 101 145 146
f 96 101 146
f 96 146 141
f 99 104 147
f 99 147 142
f 142 147 148
f 142 148 143
f 143 144 149
f 143 149 148
f 106 105 150
f 106 150 151
f 100 106 151
f 100 151 145
f 105 107 152
f 105 152 150
f 104 110 153
f 104 153 147
f 147 153 154
f 147 154 148
f 148 149 155
f 148 155 154
f 114 113 156
f 114 156 157
f 107 114 157
f 107 157 152
f 113 116 158
f 113 158 156
f 110 116 159
f 110 159 153
f 153 159 160
f 153 160 154
f 154 155 161
f 154 161 160
f 116 162 163
f 116 163 159
f 162 163 164
f 162 164 165
f 116 162 165
f 116 165 158
f 159 163 166
f 159 166 160
f 163 166 167
f 163 167 164
f 160 161 167
f 160 167 166
f 117 168 169
f 117 169 118
f 117 119 170
f 117 170 168
f 118 169 171
f 118 171 120
f 119 121 172
f 119 172 170
f 120 171 173
f 120 173 122
f 122 173 174
f 122 174 123
f 123 174 175
f 123 175 124
f 121 125 176
f 121 176 172
f 124 175 177
f 124 177 126
f 126 177 178
f 126 178 127
f 127 178 179
f 127 179 128
f 125 129 180
f 125 180 176
f 128 179 181
f 128 181 132
f 132 181 182
f 132 182 135
f 135 182 183
f 135 183 136
f 129 137 184
f 129 184 180
f 136 140 185
f 136 185 186
f 136 183 187
f 136 187 186
f 186 185 188
f 186 188 189
f 186 187 190
f 186 190 189
f 189 190 191
f 189 191 188
f 137 141 192
f 137 192 184
f 140 144 193
f 140 193 185
f 185 193 194
f 185 194 188
f 188 191 195
f 188 195 194
f 146 145 196
f 146 196 197
f 141 146 197
f 141 197 192
f 144 149 198
f 144 198 193
f 193 198 199
f 193 199 194
f 194 195 200
f 194 200 199
f 151 150 201
f 151 201 202
f 145 151 202
f 145 202 196
f 150 152 203
f 150 203 201
f 149 155 204
f 149 204 198
f 198 204 205
f 198 205 199
f 199 200 206
f 199 206 205
f 157 156 207
f 157 207 208
f 152 157 208
f 152 208 203
f 156 158 209
f 156 209 207
f 155 161 210
f 155 210 204
f 204 210 211
f 204 211 205
f 205 206 212
f 205 212 211
f 165 164 213
f 165 213 214
f 158 165 214
f 158 214 209
f 164 167 215
f 164 215 213
f 161 167 216
f 161 216 210
f 210 216 217
f 210 217 211
f 211 212 218
f 211 218 217
f 167 219 220
f 167 220 216
f 219 220 221
f 219 221 222
f 167 219 222
f 167 222 215
f 216 220 223
f 216 223 217
f 220 223 224
f 220 224 221
f 217 218 224
f 217 224 223
f 168 225 226
f 168 226 169
f 168 170 227
f 168 227 225
f 169 226 228
f 169 228 171
f 170 172 229
f 170 229 227
f 171 228 230
f 171 230 173
f 173 230 231
f 173 231 174
f 174 231 232
f 174 232 175
f 172 176 233
f 172 233 229
f 175 232 234
f 175 234 177
f 177 234 235
f 177 235 178
f 178 235 236
f 178 236 179
f 176 180 237
f 176 237 233
f 179 236 238
f 179 238 181
f 181 238 239
f 181 239 182
f 182 239 240
f 182 240 183
f 180 184 241
f 180 241 237
f 183 240 242
f 183 242 187
f 187 242 243
f 187 243 190
f 190 243 244
f 190 244 191
f 184 192 245
f 184 245 241
f 191 195 246
f 191 246 247
f 191 244 248
f 191 248 247
f 247 246 249
f 247 249 250
f 247 248 251
f 247 251 250
f 250 251 252
f 250 252 249
f 197 196 253
f 197 253 254
f 192 197 254
f 192 254 245
f 195 200 255
f 195 255 246
f 246 255 256
f 246 256 249
f 249 252 257
f 249 257 256
f 202 201 258
f 202 258 259
f 196 202 259
f 196 259 253
f 201 203 260
f 201 260 258
f 200 206 261
f 200 261 255
f 255 261 262
f 255 262 256
f 256 257 263
f 256 263 262
f 208 207 264
f 208 264 265
f 203 208 265
f 203 265 260
f 207 209 266
f 207 266 264
f 206 212 267
f 206 267 261
f 261 267 268
f 261 268 262
f 262 263 269
f 262 269 268
f 214 213 270
f 214 270 271
f 209 214 271
f 209 271 266
f 213 215 272
f 213 272 270
f 212 218 273
f 212 273 267
f 267 273 274
f 267 274 268
f 268 269 275
f 268 275 274
f 222 221 276
f 222 276 277
f 215 222 277
f 215 277 272
f 221 224 278
f 221 278 276
f 218 224 279
f 218 279 273
f 273 279 280
f 273 280 274
f 274 275 281
f 274 281 280
f 224 282 283
f 224 283 279
f 282 283 284
f 282 284 285
f 224 282 285
f 224 285 278
f 279 283 286
f 279 286 280
f 283 286 287
f 283 287 284
f 280 281 287
f 280 287 286
f 288 289 290
f 288 290 291
f 225 288 289
f 225 289 226
f 225 227 291
f 225 291 288
f 226 289 290
f 226 290 228
f 291 290 292
f 291 292 293
f 227 229 293
f 227 293 291
f 228 290 294
f 228 294 230
f 230 294 295
f 230 295 231
f 231 295 296
f 231 296 232
f 293 292 297
f 293 297 298
f 229 233 298
f 229 298 293
f 232 296 299
f 232 299 234
f 234 299 300
f 234 300 235
f 235 300 301
f 235 301 236
f 298 297 302
f 298 302 303
f 233 237 303
f 233 303 298
f 236 301 304
f 236 304 238
f 238 304 305
f 238 305 239
f 239 305 306
f 239 306 240
f 303 302 307
f 303 307 308
f 237 241 308
f 237 308 303
f 240 306 309
f 240 309 242
f 242 309 310
f 242 310 243
f 243 310 311
f 243 311 244
f 308 307 312
f 308 312 313
f 241 245 313
f 241 313 308
f 244 311 314
f 244 314 248
f 248 314 315
f 248 315 251
f 251 315 316
f 251 316 252
f 313 312 317
f 313 317 318
f 254 253 317
f 254 317 318
f 245 254 318
f 245 318 313
f 252 257 319
f 252 319 320
f 252 316 321
f 252 321 320
f 320 319 322
f 320 322 323
f 320 321 324
f 320 324 323
f 323 324 325
f 323 325 322
f 259 258 326
f 259 326 327
f 253 259 327
f 253 327 317
f 258 260 328
f 258 328 326
f 257 263 329
f 257 329 319
f 319 329 330
f 319 330 322
f 322 325 331
f 322 331 330
f 265 264 332
f 265 332 333
f 260 265 333
f 260 333 328
f 264 266 334
f 264 334 332
f 263 269 335
f 263 335 329
f 329 335 336
f 329 336 330
f 330 331 337
f 330 337 336
f 271 270 338
f 271 338 339
f 266 271 339
f 266 339 334
f 270 272 340
f 270 340 338
f 269 275 341
f 269 341 335
f 335 341 342
f 335 342 336
f 336 337 343
f 336 343 342
f 277 276 344
f 277 344 345
f 272 277 345
f 272 345 340
f 276 278 346
f 276 346 344
f 275 281 347
f 275 347 341
f 341 347 348
f 341 348 342
f 342 343 349
f 342 349 348
f 285 284 350
f 285 350 351
f 278 285 351
f 278 351 346
f 284 287 352
f 284 352 350
f 281 287 353
f 281 353 347
f 347 353 354
f 347 354 348
f 348 349 355
f 348 355 354
f 287 356 357
f 287 357 353
f 356 357 358
f 356 358 359
f 287 356 359
f 287 359 352
f 353 357 360
f 353 360 354
f 357 360 361
f 357 361 358
f 354 355 361
f 354 361 360
f 362 363 364
f 362 364 365
f 290 362 363
f 290 363 294
f 290 292 365
f 290 365 362
f 363 366 367
f 363 367 364
f 294 363 366
f 294 366 295
f 295 366 367
f 295 367 296
f 365 364 368
f 365 368 369
f 292 297 369
f 292 369 365
f 364 367 370
f 364 370 368
f 296 367 371
f 296 371 299
f 299 371 372
f 299 372 300
f 300 372 373
f 300 373 301
f 369 368 374
f 369 374 375
f 297 302 375
f 297 375 369
f 368 370 376
f 368 376 374
f 301 373 377
f 301 377 304
f 304 377 378
f 304 378 305
f 305 378 379
f 305 379 306
f 375 374 380
f 375 380 381
f 302 307 381
f 302 381 375
f 374 376 382
f 374 382 380
f 306 379 383
f 306 383 309
f 309 383 384
f 309 384 310
f 310 384 385
f 310 385 311
f 381 380 386
f 381 386 387
f 307 312 387
f 307 387 381
f 380 382 388
f 380 388 386
f 311 385 389
f 311 389 314
f 314 389 390
f 314 390 315
f 315 390 391
f 315 391 316
f 387 386 392
f 387 392 393
f 312 317 393
f 312 393 387
f 386 388 394
f 386 394 392
f 316 391 395
f 316 395 321
f 321 395 396
f 321 396 324
f 324 396 397
f 324 397 325
f 393 392 398
f 393 398 399
f 327 326 398
f 327 398 399
f 317 327 399
f 317 399 393
f 392 394 400
f 392 400 398
f 326 328 400
f 326 400 398
f 325 331 401
f 325 401 402
f 325 397 403
f 325 403 402
f 402 403 404
f 402 404 401
f 333 332 405
f 333 405 406
f 328 333 406
f 328 406 400
f 332 334 407
f 332 407 405
f 331 337 408
f 331 408 401
f 401 404 409
f 401 409 408
f 339 338 410
f 339 410 411
f 334 339 411
f 334 411 407
f 338 340 412
f 338 412 410
f 337 343 413
f 337 413 408
f 408 409 414
f 408 414 413
f 345 344 415
f 345 415 416
f 340 345 416
f 340 416 412
f 344 346 417
f 344 417 415
f 343 349 418
f 343 418 413
f 413 414 419
f 413 419 418
f 351 350 420
f 351 420 421
f 346 351 421
f 346 421 417
f 350 352 422
f 350 422 420
f 349 355 423
f 349 423 418
f 418 419 424
f 418 424 423
f 359 358 425
f 359 425 426
f 352 359 426
f 352 426 422
f 358 361 427
f 358 427 425
f 355 361 428
f 355 428 423
f 423 424 429
f 423 429 428
f 361 430 431
f 361 431 428
f 430 431 432
f 430 432 433
f 361 430 433
f 361 433 427
f 428 429 432
f 428 432 431
f 434 435 436
f 434 436 437
f 367 434 435
f 367 435 371
f 367 370 437
f 367 437 434
f 435 438 439
f 435 439 436
f 371 435 438
f 371 438 372
f 372 438 439
f 372 439 373
f 437 436 440
f 437 440 441
f 370 376 441
f 370 441 437
f 436 439 442
f 436 442 440
f 373 439 443
f 373 443 377
f 377 443 444
f 377 444 378
f 378 444 445
f 378 445 379
f 441 440 446
f 441 446 447
f 376 382 447
f 376 447 441
f 440 442 448
f 440 448 446
f 379 445 449
f 379 449 383
f 383 449 450
f 383 450 384
f 384 450 451
f 384 451 385
f 447 446 452
f 447 452 453
f 382 388 453
f 382 453 447
f 446 448 454
f 446 454 452
f 385 451 455
f 385 455 389
f 389 455 456
f 389 456 390
f 390 456 457
f 390 457 391
f 453 452 458
f 453 458 459
f 388 394 459
f 388 459 453
f 452 454 460
f 452 460 458
f 391 457 461
f 391 461 395
f 395 461 462
f 395 462 396
f 396 462 463
f 396 463 397
f 459 458 464
f 459 464 465
f 394 400 465
f 394 465 459
f 458 460 466
f 458 466 464
f 397 463 467
f 397 467 403
f 403 467 468
f 403 468 404
f 465 464 469
f 465 469 470
f 406 405 469
f 406 469 470
f 400 406 470
f 400 470 465
f 464 466 471
f 464 471 469
f 405 407 471
f 405 471 469
f 404 468 472
f 404 472 409
f 411 410 473
f 411 473 474
f 407 411 474
f 407 474 471
f 410 412 475
f 410 475 473
f 409 472 476
f 409 476 414
f 416 415 477
f 416 477 478
f 412 416 478
f 412 478 475
f 415 417 479
f 415 479 477
f 414 476 480
f 414 480 419
f 421 420 481
f 421 481 482
f 417 421 482
f 417 482 479
f 420 422 483
f 420 483 481
f 419 480 484
f 419 484 424
f 426 425 485
f 426 485 486
f 422 426 486
f 422 486 483
f 425 427 487
f 425 487 485
f 424 484 488
f 424 488 429
f 433 432 489
f 433 489 490
f 427 433 490
f 427 490 487
f 429 488 489
f 429 489 432
f 491 492 493
f 491 493 494
f 439 491 492
f 439 492 443
f 439 442 494
f 439 494 491
f 492 495 496
f 492 496 493
f 443 492 495
f 443 495 444
f 444 495 496
f 444 496 445
f 494 493 497
f 494 497 498
f 442 448 498
f 442 498 494
f 493 496 499
f 493 499 497
f 445 496 500
f 445 500 449
f 449 500 501
f 449 501 450
f 450 501 502
f 450 502 451
f 498 497 503
f 498 503 504
f 448 454 504
f 448 504 498
f 497 499 505
f 497 505 503
f 451 502 506
f 451 506 455
f 455 506 507
f 455 507 456
f 456 507 508
f 456 508 457
f 504 503 509
f 504 509 510
f 454 460 510
f 454 510 504
f 503 505 511
f 503 511 509
f 457 508 512
f 457 512 461
f 461 512 513
f 461 513 462
f 462 513 514
f 462 514 463
f 510 509 515
f 510 515 516
f 460 466 516
f 460 516 510
f 509 511 517
f 509 517 515
f 463 514 518
f 463 518 467
f 467 518 519
f 467 519 468
f 516 515 520
f 516 520 521
f 466 471 521
f 466 521 516
f 515 517 522
f 515 522 520
f 468 519 523
f 468 523 472
f 521 520 524
f 521 524 525
f 474 473 524
f 474 524 525
f 471 474 525
f 471 525 521
f 520 522 526
f 520 526 524
f 473 475 526
f 473 526 524
f 472 523 527
f 472 527 476
f 478 477 528
f 478 528 529
f 475 478 529
f 475 529 526
f 477 479 530
f 477 530 528
f 476 527 531
f 476 531 480
f 482 481 532
f 482 532 533
f 479 482 533
f 479 533 530
f 481 483 534
f 481 534 532
f 480 531 535
f 480 535 484
f 486 485 536
f 486 536 537
f 483 486 537
f 483 537 534
f 485 487 538
f 485 538 536
f 484 535 539
f 484 539 488
f 490 489 540
f 490 540 541
f 487 490 541
f 487 541 538
f 488 539 540
f 488 540 489
f 542 543 544
f 542 544 545
f 496 542 543
f 496 543 500
f 496 499 545
f 496 545 542
f 543 546 547
f 543 547 544
f 500 543 546
f 500 546 501
f 501 546 547
f 501 547 502
f 545 544 548
f 545 548 549
f 499 505 549
f 499 549 545
f 544 547 550
f 544 550 548
f 502 547 551
f 502 551 506
f 506 551 552
f 506 552 507
f 507 552 553
f 507 553 508
f 549 548 554
f 549 554 555
f 505 511 555
f 505 555 549
f 548 550 556
f 548 556 554
f 508 553 557
f 508 557 512
f 512 557 558
f 512 558 513
f 513 558 559
f 513 559 514
f 555 554 560
f 555 560 561
f 511 517 561
f 511 561 555
f 554 556 562
f 554 562 560
f 514 559 563
f 514 563 518
f 518 563 564
f 518 564 519
f 561 560 565
f 561 565 566
f 517 522 566
f 517 566 561
f 560 562 567
f 560 567 565
f 519 564 568
f 519 568 523
f 566 565 569
f 566 569 570
f 522 526 570
f 522 570 566
f 565 567 571
f 565 571 569
f 523 568 572
f 523 572 527
f 570 569 573
f 570 573 574
f 529 528 573
f 529 573 574
f 526 529 574
f 526 574 570
f 569 571 575
f 569 575 573
f 528 530 575
f 528 575 573
f 527 572 576
f 527 576 531
f 533 532 577
f 533 577 578
f 530 533 578
f 530 578 575
f 532 534 579
f 532 579 577
f 531 576 580
f 531 580 535
f 537 536 581
f 537 581 582
f 534 537 582
f 534 582 579
f 536 538 583
f 536 583 581
f 535 580 584
f 535 584 539
f 541 540 585
f 541 585 586
f 538 541 586
f 538 586 583
f 539 584 585
f 539 585 540
f 587 588 589
f 587 589 590
f 547 587 588
f 547 588 551
f 547 550 590
f 547 590 587
f 588 591 592
f 588 592 589
f 551 588 591
f 551 591 552
f 552 591 592
f 552 592 553
f 590 589 593
f 590 593 594
f 550 556 594
f 550 594 590
f 589 592 595
f 589 595 593
f 553 592 596
f 553 596 557
f 557 596 597
f 557 597 558
f 558 597 598
f 558 598 559
f 594 593 599
f 594 599 600
f 556 562 600
f 556 600 594
f 593 595 601
f 593 601 599
f 559 598 602
f 559 602 563
f 563 602 603
f 563 603 564
f 600 599 604
f 600 604 605
f 562 567 605
f 562 605 600
f 599 601 606
f 599 606 604
f 564 603 607
f 564 607 568
f 605 604 608
f 605 608 609
f 567 571 609
f 567 609 605
f 604 606 610
f 604 610 608
f 568 607 611
f 568 611 572
f 609 608 612
f 609 612 613
f 571 575 613
f 571 613 609
f 608 610 614
f 608 614 612
f 572 611 615
f 572 615 576
f 613 612 616
f 613 616 617
f 578 577 616
f 578 616 617
f 575 578 617
f 575 617 613
f 612 614 618
f 612 618 616
f 577 579 618
f 577 618 616
f 576 615 619
f 576 619 580
f 582 581 620
f 582 620 621
f 579 582 621
f 579 621 618
f 581 583 622
f 581 622 620
f 580 619 623
f 580 623 584
f 586 585 624
f 586 624 625
f 583 586 625
f 583 625 622
f 584 623 624
f 584 624 585
f 626 627 628
f 626 628 629
f 592 626 627
f 592 627 596
f 592 595 629
f 592 629 626
f 627 630 631
f 627 631 628
f 596 627 630
f 596 630 597
f 597 630 631
f 597 631 598
f 629 628 632
f 629 632 633
f 595 601 633
f 595 633 629
f 628 631 634
f 628 634 632
f 598 631 635
f 598 635 602
f 602 635 636
f 602 636 603
f 633 632 637
f 633 637 638
f 601 606 638
f 601 638 633
f 632 634 639
f 632 639 637
f 603 636 640
f 603 640 607
f 638 637 641
f 638 641 642
f 606 610 642
f 606 642 638
f 637 639 643
f 637 643 641
f 607 640 644
f 607 644 611
f 642 641 645
f 642 645 646
f 610 614 646
f 610 646 642
f 641 643 647
f 641 647 645
f 611 644 648
f 611 648 615
f 646 645 649
f 646 649 650
f 614 618 650
f 614 650 646
f 645 647 651
f 645 651 649
f 615 648 652
f 615 652 619
f 650 649 653
f 650 653 654
f 621 620 653
f 621 653 654
f 618 621 654
f 618 654 650
f 649 651 655
f 649 655 653
f 620 622 655
f 620 655 653
f 619 652 656
f 619 656 623
f 625 624 657
f 625 657 658
f 622 625 658
f 622 658 655
f 623 656 657
f 623 657 624
f 659 660 661
f 659 661 662
f 631 659 660
f 631 660 635
f 631 634 662
f 631 662 659
f 635 660 661
f 635 661 636
f 662 661 663
f 662 663 664
f 634 639 664
f 634 664 662
f 636 661 663
f 636 663 640
f 664 663 665
f 664 665 666
f 639 643 666
f 639 666 664
f 640 663 665
f 640 665 644
f 666 665 667
f 666 667 668
f 643 647 668
f 643 668 666
f 644 665 667
f 644 667 648
f 668 667 669
f 668 669 670
f 647 651 670
f 647 670 668
f 648 667 669
f 648 669 652
f 670 669 671
f 670 671 672
f 651 655 672
f 651 672 670
f 652 669 671
f 652 671 656
f 672 671 673
f 672 673 674
f 658 657 673
f 658 673 674
f 655 658 674
f 655 674 672
f 656 671 673
f 656 673 657
