o [4B] 3D Diagram - S2-01 Group G_143
v -12.750000 -6.000000 8.426681
v -12.607773 -6.000000 8.000000
v -12.621858 -5.938290 8.000000
v -12.661323 -5.888803 8.000000
v -12.718352 -5.861339 8.000000
v -12.781648 -5.861339 8.000000
v -12.838677 -5.888803 8.000000
v -12.878142 -5.938290 8.000000
v -12.892227 -6.000000 8.000000
v -12.878142 -6.061710 8.000000
v -12.838677 -6.111197 8.000000
v -12.781648 -6.138661 8.000000
v -12.718352 -6.138661 8.000000
v -12.661323 -6.111197 8.000000
v -12.621858 -6.061710 8.000000
v -12.750000 -6.000000 8.000000
f 1 2 3
f 1 3 4
f 1 4 5
f 1 5 6
f 1 6 7
f 1 7 8
f 1 8 9
f 1 9 10
f 1 10 11
f 1 11 12
f 1 12 13
f 1 13 14
f 1 14 15
f 1 15 2
f 16 3 2
f 16 4 3
f 16 5 4
f 16 6 5
f 16 7 6
f 16 8 7
f 16 9 8
f 16 10 9
f 16 11 10
f 16 12 11
f 16 13 12
f 16 14 13
f 16 15 14
f 16 2 15
