o [4B] 3D Diagram - S2-09 Group A_87
v -4.725000 -15.750000 -0.025000
v -4.725000 -15.450000 -0.025000
v -4.725000 -15.450000 0.062500
v -4.725000 -15.750000 0.062500
v -4.050000 -15.750000 -0.025000
v -4.050000 -15.750000 0.062500
v -4.050000 -15.450000 -0.025000
v -4.725000 -15.450000 0.150000
v -4.725000 -15.750000 0.150000
v -4.050000 -15.750000 0.150000
v -4.725000 -15.450000 0.237500
v -4.725000 -15.750000 0.237500
v -4.050000 -15.750000 0.237500
v -4.725000 -15.450000 0.325000
v -4.725000 -15.750000 0.325000
v -4.050000 -15.750000 0.325000
v -4.725000 -15.450000 0.412500
v -4.725000 -15.750000 0.412500
v -4.050000 -15.750000 0.412500
v -4.725000 -15.450000 0.500000
v -4.725000 -15.750000 0.500000
v -4.050000 -15.750000 0.500000
v -4.725000 -15.450000 0.587500
v -4.725000 -15.750000 0.587500
v -4.050000 -15.750000 0.587500
v -4.725000 -15.450000 0.675000
v -4.725000 -15.750000 0.675000
v -4.050000 -15.750000 0.675000
v -4.725000 -15.450000 0.762500
v -4.725000 -15.750000 0.762500
v -4.050000 -15.750000 0.762500
v -4.725000 -15.450000 0.850000
v -4.725000 -15.750000 0.850000
v -4.050000 -15.750000 0.850000
v -4.725000 -15.450000 0.937500
v -4.725000 -15.750000 0.937500
v -4.050000 -15.750000 0.937500
v -4.725000 -15.450000 1.025000
v -4.725000 -15.750000 1.025000
v -4.050000 -15.750000 1.025000
v -4.050000 -15.450000 1.025000
v -4.725000 -15.150000 -0.025000
v -4.725000 -15.150000 0.062500
v -4.050000 -15.150000 0.062500
v -4.050000 -15.150000 -0.025000
v -4.725000 -15.150000 0.150000
v -4.050000 -15.150000 0.150000
v -4.725000 -15.150000 0.237500
v -4.050000 -15.150000 0.237500
v -4.725000 -15.150000 0.325000
v -4.050000 -15.150000 0.325000
v -4.725000 -15.150000 0.412500
v -4.050000 -15.150000 0.412500
v -4.725000 -15.150000 0.500000
v -4.050000 -15.150000 0.500000
v -4.725000 -15.150000 0.587500
v -4.050000 -15.150000 0.587500
v -4.725000 -15.150000 0.675000
v -4.050000 -15.150000 0.675000
v -4.725000 -15.150000 0.762500
v -4.050000 -15.150000 0.762500
v -4.725000 -15.150000 0.850000
v -4.050000 -15.150000 0.850000
v -4.725000 -15.150000 0.937500
v -4.050000 -15.150000 0.937500
v -4.725000 -15.150000 1.025000
v -4.050000 -15.150000 1.025000
v -4.050000 -16.350000 -0.025000
v -4.050000 -16.050000 -0.025000
v -4.050000 -16.050000 0.062500
v -4.050000 -16.350000 0.062500
v -3.375000 -16.350000 -0.025000
v -3.375000 -16.350000 0.062500
v -3.375000 -16.050000 -0.025000
v -4.050000 -16.050000 0.150000
v -4.050000 -16.350000 0.150000
v -3.375000 -16.350000 0.150000
v -4.050000 -16.050000 0.237500
v -4.050000 -16.350000 0.237500
v -3.375000 -16.350000 0.237500
v -4.050000 -16.050000 0.325000
v -4.050000 -16.350000 0.325000
v -3.375000 -16.350000 0.325000
v -4.050000 -16.050000 0.412500
v -4.050000 -16.350000 0.412500
v -3.375000 -16.350000 0.412500
v -4.050000 -16.050000 0.500000
v -4.050000 -16.350000 0.500000
v -3.375000 -16.350000 0.500000
v -4.050000 -16.050000 0.587500
v -4.050000 -16.350000 0.587500
v -3.375000 -16.350000 0.587500
v -4.050000 -16.050000 0.675000
v -4.050000 -16.350000 0.675000
v -3.375000 -16.350000 0.675000
v -4.050000 -16.050000 0.762500
v -4.050000 -16.350000 0.762500
v -3.375000 -16.350000 0.762500
v -4.050000 -16.050000 0.850000
v -4.050000 -16.350000 0.850000
v -3.375000 -16.350000 0.850000
v -4.050000 -16.050000 0.937500
v -4.050000 -16.350000 0.937500
v -3.375000 -16.350000 0.937500
v -4.050000 -16.050000 1.025000
v -4.050000 -16.350000 1.025000
v -3.375000 -16.350000 1.025000
v -3.375000 -16.050000 1.025000
v -3.375000 -15.750000 -0.025000
v -3.375000 -15.750000 1.025000
v -3.375000 -15.450000 -0.025000
v -3.375000 -15.450000 1.025000
v -3.375000 -15.150000 0.062500
v -3.375000 -15.150000 -0.025000
v -3.375000 -15.150000 0.150000
v -3.375000 -15.150000 0.237500
v -3.375000 -15.150000 0.325000
v -3.375000 -15.150000 0.412500
v -3.375000 -15.150000 0.500000
v -3.375000 -15.150000 0.587500
v -3.375000 -15.150000 0.675000
v -3.375000 -15.150000 0.762500
v -3.375000 -15.150000 0.850000
v -3.375000 -15.150000 0.937500
v -3.375000 -15.150000 1.025000
v -3.375000 -16.950000 -0.025000
v -3.375000 -16.650000 -0.025000
v -3.375000 -16.650000 0.062500
v -3.375000 -16.950000 0.062500
v -2.700000 -16.950000 -0.025000
v -2.700000 -16.950000 0.062500
v -2.700000 -16.650000 -0.025000
v -3.375000 -16.650000 0.150000
v -3.375000 -16.950000 0.150000
v -2.700000 -16.950000 0.150000
v -3.375000 -16.650000 0.237500
v -3.375000 -16.950000 0.237500
v -2.700000 -16.950000 0.237500
v -3.375000 -16.650000 0.325000
v -3.375000 -16.950000 0.325000
v -2.700000 -16.950000 0.325000
v -3.375000 -16.650000 0.412500
v -3.375000 -16.950000 0.412500
v -2.700000 -16.950000 0.412500
v -3.375000 -16.650000 0.500000
v -3.375000 -16.950000 0.500000
v -2.700000 -16.950000 0.500000
v -3.375000 -16.650000 0.587500
v -3.375000 -16.950000 0.587500
v -2.700000 -16.950000 0.587500
v -3.375000 -16.650000 0.675000
v -3.375000 -16.950000 0.675000
v -2.700000 -16.950000 0.675000
v -3.375000 -16.650000 0.762500
v -3.375000 -16.950000 0.762500
v -2.700000 -16.950000 0.762500
v -3.375000 -16.650000 0.850000
v -3.375000 -16.950000 0.850000
v -2.700000 -16.950000 0.850000
v -3.375000 -16.650000 0.937500
v -3.375000 -16.950000 0.937500
v -2.700000 -16.950000 0.937500
v -3.375000 -16.650000 1.025000
v -3.375000 -16.950000 1.025000
v -2.700000 -16.950000 1.025000
v -2.700000 -16.650000 1.025000
v -2.700000 -16.350000 -0.025000
v -2.700000 -16.350000 1.025000
v -2.700000 -16.050000 -0.025000
v -2.700000 -16.050000 1.025000
v -2.700000 -15.750000 -0.025000
v -2.700000 -15.750000 1.025000
v -2.700000 -15.450000 -0.025000
v -2.700000 -15.450000 1.025000
v -2.700000 -15.150000 0.062500
v -2.700000 -15.150000 -0.025000
v -2.700000 -15.150000 0.150000
v -2.700000 -15.150000 0.237500
v -2.700000 -15.150000 0.325000
v -2.700000 -15.150000 0.412500
v -2.700000 -15.150000 0.500000
v -2.700000 -15.150000 0.587500
v -2.700000 -15.150000 0.675000
v -2.700000 -15.150000 0.762500
v -2.700000 -15.150000 0.850000
v -2.700000 -15.150000 0.937500
v -2.700000 -15.150000 1.025000
v -2.700000 -17.550000 -0.025000
v -2.700000 -17.250000 -0.025000
v -2.700000 -17.250000 0.062500
v -2.700000 -17.550000 0.062500
v -2.025000 -17.550000 -0.025000
v -2.025000 -17.550000 0.062500
v -2.025000 -17.250000 -0.025000
v -2.700000 -17.250000 0.150000
v -2.700000 -17.550000 0.150000
v -2.025000 -17.550000 0.150000
v -2.700000 -17.250000 0.237500
v -2.700000 -17.550000 0.237500
v -2.025000 -17.550000 0.237500
v -2.700000 -17.250000 0.325000
v -2.700000 -17.550000 0.325000
v -2.025000 -17.550000 0.325000
v -2.700000 -17.250000 0.412500
v -2.700000 -17.550000 0.412500
v -2.025000 -17.550000 0.412500
v -2.700000 -17.250000 0.500000
v -2.700000 -17.550000 0.500000
v -2.025000 -17.550000 0.500000
v -2.700000 -17.250000 0.587500
v -2.700000 -17.550000 0.587500
v -2.025000 -17.550000 0.587500
v -2.700000 -17.250000 0.675000
v -2.700000 -17.550000 0.675000
v -2.025000 -17.550000 0.675000
v -2.700000 -17.250000 0.762500
v -2.700000 -17.550000 0.762500
v -2.025000 -17.550000 0.762500
v -2.700000 -17.250000 0.850000
v -2.700000 -17.550000 0.850000
v -2.025000 -17.550000 0.850000
v -2.700000 -17.250000 0.937500
v -2.700000 -17.550000 0.937500
v -2.025000 -17.550000 0.937500
v -2.700000 -17.250000 1.025000
v -2.700000 -17.550000 1.025000
v -2.025000 -17.550000 1.025000
v -2.025000 -17.250000 1.025000
v -2.025000 -16.950000 -0.025000
v -2.025000 -16.950000 1.025000
v -2.025000 -16.650000 -0.025000
v -2.025000 -16.650000 1.025000
v -2.025000 -16.350000 -0.025000
v -2.025000 -16.350000 1.025000
v -2.025000 -16.050000 -0.025000
v -2.025000 -16.050000 1.025000
v -2.025000 -15.750000 -0.025000
v -2.025000 -15.750000 1.025000
v -2.025000 -15.450000 -0.025000
v -2.025000 -15.450000 1.025000
v -2.025000 -15.150000 0.062500
v -2.025000 -15.150000 -0.025000
v -2.025000 -15.150000 0.150000
v -2.025000 -15.150000 0.237500
v -2.025000 -15.150000 0.325000
v -2.025000 -15.150000 0.412500
v -2.025000 -15.150000 0.500000
v -2.025000 -15.150000 0.587500
v -2.025000 -15.150000 0.675000
v -2.025000 -15.150000 0.762500
v -2.025000 -15.150000 0.850000
v -2.025000 -15.150000 0.937500
v -2.025000 -15.150000 1.025000
v -2.025000 -18.450000 -0.025000
v -2.025000 -18.150000 -0.025000
v -2.025000 -18.150000 0.062500
v -2.025000 -18.450000 0.062500
v -1.350000 -18.450000 -0.025000
v -1.350000 -18.450000 0.062500
v -1.350000 -18.150000 -0.025000
v -2.025000 -18.150000 0.150000
v -2.025000 -18.450000 0.150000
v -1.350000 -18.450000 0.150000
v -2.025000 -18.150000 0.237500
v -2.025000 -18.450000 0.237500
v -1.350000 -18.450000 0.237500
v -2.025000 -18.150000 0.325000
v -2.025000 -18.450000 0.325000
v -1.350000 -18.450000 0.325000
v -2.025000 -18.150000 0.412500
v -2.025000 -18.450000 0.412500
v -1.350000 -18.450000 0.412500
v -2.025000 -18.150000 0.500000
v -2.025000 -18.450000 0.500000
v -1.350000 -18.450000 0.500000
v -2.025000 -18.150000 0.587500
v -2.025000 -18.450000 0.587500
v -1.350000 -18.450000 0.587500
v -2.025000 -18.150000 0.675000
v -2.025000 -18.450000 0.675000
v -1.350000 -18.450000 0.675000
v -2.025000 -18.150000 0.762500
v -2.025000 -18.450000 0.762500
v -1.350000 -18.450000 0.762500
v -2.025000 -18.150000 0.850000
v -2.025000 -18.450000 0.850000
v -1.350000 -18.450000 0.850000
v -2.025000 -18.150000 0.937500
v -2.025000 -18.450000 0.937500
v -1.350000 -18.450000 0.937500
v -2.025000 -18.150000 1.025000
v -2.025000 -18.450000 1.025000
v -1.350000 -18.450000 1.025000
v -1.350000 -18.150000 1.025000
v -2.025000 -17.850000 -0.025000
v -2.025000 -17.850000 0.062500
v -1.350000 -17.850000 -0.025000
v -2.025000 -17.850000 0.150000
v -2.025000 -17.850000 0.237500
v -2.025000 -17.850000 0.325000
v -2.025000 -17.850000 0.412500
v -2.025000 -17.850000 0.500000
v -2.025000 -17.850000 0.587500
v -2.025000 -17.850000 0.675000
v -2.025000 -17.850000 0.762500
v -2.025000 -17.850000 0.850000
v -2.025000 -17.850000 0.937500
v -2.025000 -17.850000 1.025000
v -1.350000 -17.850000 1.025000
v -1.350000 -17.550000 -0.025000
v -1.350000 -17.550000 1.025000
v -1.350000 -17.250000 -0.025000
v -1.350000 -17.250000 1.025000
v -1.350000 -16.950000 -0.025000
v -1.350000 -16.950000 1.025000
v -1.350000 -16.650000 -0.025000
v -1.350000 -16.650000 1.025000
v -1.350000 -16.350000 -0.025000
v -1.350000 -16.350000 1.025000
v -1.350000 -16.050000 -0.025000
v -1.350000 -16.050000 1.025000
v -1.350000 -15.750000 -0.025000
v -1.350000 -15.750000 1.025000
v -1.350000 -15.450000 -0.025000
v -1.350000 -15.450000 1.025000
v -1.350000 -15.150000 0.062500
v -1.350000 -15.150000 -0.025000
v -1.350000 -15.150000 0.150000
v -1.350000 -15.150000 0.237500
v -1.350000 -15.150000 0.325000
v -1.350000 -15.150000 0.412500
v -1.350000 -15.150000 0.500000
v -1.350000 -15.150000 0.587500
v -1.350000 -15.150000 0.675000
v -1.350000 -15.150000 0.762500
v -1.350000 -15.150000 0.850000
v -1.350000 -15.150000 0.937500
v -1.350000 -15.150000 1.025000
v -1.350000 -19.050000 -0.025000
v -1.350000 -18.750000 -0.025000
v -1.350000 -18.750000 0.062500
v -1.350000 -19.050000 0.062500
v -0.675000 -19.050000 -0.025000
v -0.675000 -19.050000 0.062500
v -0.675000 -18.750000 -0.025000
v -1.350000 -18.750000 0.150000
v -1.350000 -19.050000 0.150000
v -0.675000 -19.050000 0.150000
v -1.350000 -18.750000 0.237500
v -1.350000 -19.050000 0.237500
v -0.675000 -19.050000 0.237500
v -1.350000 -18.750000 0.325000
v -1.350000 -19.050000 0.325000
v -0.675000 -19.050000 0.325000
v -1.350000 -18.750000 0.412500
v -1.350000 -19.050000 0.412500
v -0.675000 -19.050000 0.412500
v -1.350000 -18.750000 0.500000
v -1.350000 -19.050000 0.500000
v -0.675000 -19.050000 0.500000
v -1.350000 -18.750000 0.587500
v -1.350000 -19.050000 0.587500
v -0.675000 -19.050000 0.587500
v -1.350000 -18.750000 0.675000
v -1.350000 -19.050000 0.675000
v -0.675000 -19.050000 0.675000
v -1.350000 -18.750000 0.762500
v -1.350000 -19.050000 0.762500
v -0.675000 -19.050000 0.762500
v -1.350000 -18.750000 0.850000
v -1.350000 -19.050000 0.850000
v -0.675000 -19.050000 0.850000
v -1.350000 -18.750000 0.937500
v -1.350000 -19.050000 0.937500
v -0.675000 -19.050000 0.937500
v -1.350000 -18.750000 1.025000
v -1.350000 -19.050000 1.025000
v -0.675000 -19.050000 1.025000
v -0.675000 -18.750000 1.025000
v -0.675000 -18.450000 -0.025000
v -0.675000 -18.450000 1.025000
v -0.675000 -18.150000 -0.025000
v -0.675000 -18.150000 1.025000
v -0.675000 -17.850000 -0.025000
v -0.675000 -17.850000 1.025000
v -0.675000 -17.550000 -0.025000
v -0.675000 -17.550000 1.025000
v -0.675000 -17.250000 -0.025000
v -0.675000 -17.250000 1.025000
v -0.675000 -16.950000 -0.025000
v -0.675000 -16.950000 1.025000
v -0.675000 -16.650000 -0.025000
v -0.675000 -16.650000 1.025000
v -0.675000 -16.350000 -0.025000
v -0.675000 -16.350000 1.025000
v -0.675000 -16.050000 -0.025000
v -0.675000 -16.050000 1.025000
v -0.675000 -15.750000 -0.025000
v -0.675000 -15.750000 1.025000
v -0.675000 -15.450000 -0.025000
v -0.675000 -15.450000 1.025000
v -0.675000 -15.150000 0.062500
v -0.675000 -15.150000 -0.025000
v -0.675000 -15.150000 0.150000
v -0.675000 -15.150000 0.237500
v -0.675000 -15.150000 0.325000
v -0.675000 -15.150000 0.412500
v -0.675000 -15.150000 0.500000
v -0.675000 -15.150000 0.587500
v -0.675000 -15.150000 0.675000
v -0.675000 -15.150000 0.762500
v -0.675000 -15.150000 0.850000
v -0.675000 -15.150000 0.937500
v -0.675000 -15.150000 1.025000
v -0.675000 -19.650000 -0.025000
v -0.675000 -19.350000 -0.025000
v -0.675000 -19.350000 0.062500
v -0.675000 -19.650000 0.062500
v 0.000000 -19.650000 -0.025000
v 0.000000 -19.650000 0.062500
v 0.000000 -19.350000 -0.025000
v -0.675000 -19.350000 0.150000
v -0.675000 -19.650000 0.150000
v 0.000000 -19.650000 0.150000
v -0.675000 -19.350000 0.237500
v -0.675000 -19.650000 0.237500
v 0.000000 -19.650000 0.237500
v -0.675000 -19.350000 0.325000
v -0.675000 -19.650000 0.325000
v 0.000000 -19.650000 0.325000
v -0.675000 -19.350000 0.412500
v -0.675000 -19.650000 0.412500
v 0.000000 -19.650000 0.412500
v -0.675000 -19.350000 0.500000
v -0.675000 -19.650000 0.500000
v 0.000000 -19.650000 0.500000
v -0.675000 -19.350000 0.587500
v -0.675000 -19.650000 0.587500
v 0.000000 -19.650000 0.587500
v -0.675000 -19.350000 0.675000
v -0.675000 -19.650000 0.675000
v 0.000000 -19.650000 0.675000
v -0.675000 -19.350000 0.762500
v -0.675000 -19.650000 0.762500
v 0.000000 -19.650000 0.762500
v -0.675000 -19.350000 0.850000
v -0.675000 -19.650000 0.850000
v 0.000000 -19.650000 0.850000
v -0.675000 -19.350000 0.937500
v -0.675000 -19.650000 0.937500
v 0.000000 -19.650000 0.937500
v -0.675000 -19.350000 1.025000
v -0.675000 -19.650000 1.025000
v 0.000000 -19.650000 1.025000
v 0.000000 -19.350000 1.025000
v 0.000000 -19.050000 -0.025000
v 0.000000 -19.050000 1.025000
v 0.000000 -18.750000 -0.025000
v 0.000000 -18.750000 1.025000
v 0.000000 -18.450000 -0.025000
v 0.000000 -18.450000 1.025000
v 0.000000 -18.150000 -0.025000
v 0.000000 -18.150000 1.025000
v 0.000000 -17.850000 -0.025000
v 0.000000 -17.850000 1.025000
v 0.000000 -17.550000 -0.025000
v 0.000000 -17.550000 1.025000
v 0.000000 -17.250000 -0.025000
v 0.000000 -17.250000 1.025000
v 0.000000 -16.950000 -0.025000
v 0.000000 -16.950000 1.025000
v 0.000000 -16.650000 -0.025000
v 0.000000 -16.650000 1.025000
v 0.000000 -16.350000 -0.025000
v 0.000000 -16.350000 1.025000
v 0.000000 -16.050000 -0.025000
v 0.000000 -16.050000 1.025000
v 0.000000 -15.750000 -0.025000
v 0.000000 -15.750000 1.025000
v 0.000000 -15.450000 -0.025000
v 0.000000 -15.450000 1.025000
v 0.000000 -15.150000 0.062500
v 0.000000 -15.150000 -0.025000
v 0.000000 -15.150000 0.150000
v 0.000000 -15.150000 0.237500
v 0.000000 -15.150000 0.325000
v 0.000000 -15.150000 0.412500
v 0.000000 -15.150000 0.500000
v 0.000000 -15.150000 0.587500
v 0.000000 -15.150000 0.675000
v 0.000000 -15.150000 0.762500
v 0.000000 -15.150000 0.850000
v 0.000000 -15.150000 0.937500
v 0.000000 -15.150000 1.025000
v 0.675000 -19.650000 -0.025000
v 0.675000 -19.650000 0.062500
v 0.675000 -19.350000 0.062500
v 0.675000 -19.350000 -0.025000
v 0.675000 -19.650000 0.150000
v 0.675000 -19.350000 0.150000
v 0.675000 -19.650000 0.237500
v 0.675000 -19.350000 0.237500
v 0.675000 -19.650000 0.325000
v 0.675000 -19.350000 0.325000
v 0.675000 -19.650000 0.412500
v 0.675000 -19.350000 0.412500
v 0.675000 -19.650000 0.500000
v 0.675000 -19.350000 0.500000
v 0.675000 -19.650000 0.587500
v 0.675000 -19.350000 0.587500
v 0.675000 -19.650000 0.675000
v 0.675000 -19.350000 0.675000
v 0.675000 -19.650000 0.762500
v 0.675000 -19.350000 0.762500
v 0.675000 -19.650000 0.850000
v 0.675000 -19.350000 0.850000
v 0.675000 -19.650000 0.937500
v 0.675000 -19.350000 0.937500
v 0.675000 -19.650000 1.025000
v 0.675000 -19.350000 1.025000
v 0.675000 -19.050000 0.062500
v 0.675000 -19.050000 -0.025000
v 0.675000 -19.050000 0.150000
v 0.675000 -19.050000 0.237500
v 0.675000 -19.050000 0.325000
v 0.675000 -19.050000 0.412500
v 0.675000 -19.050000 0.500000
v 0.675000 -19.050000 0.587500
v 0.675000 -19.050000 0.675000
v 0.675000 -19.050000 0.762500
v 0.675000 -19.050000 0.850000
v 0.675000 -19.050000 0.937500
v 0.675000 -19.050000 1.025000
v 0.675000 -18.750000 -0.025000
v 0.675000 -18.750000 1.025000
v 0.675000 -18.450000 -0.025000
v 0.675000 -18.450000 1.025000
v 0.675000 -18.150000 -0.025000
v 0.675000 -18.150000 1.025000
v 0.675000 -17.850000 -0.025000
v 0.675000 -17.850000 1.025000
v 0.675000 -17.550000 -0.025000
v 0.675000 -17.550000 1.025000
v 0.675000 -17.250000 -0.025000
v 0.675000 -17.250000 1.025000
v 0.675000 -16.950000 -0.025000
v 0.675000 -16.950000 1.025000
v 0.675000 -16.650000 -0.025000
v 0.675000 -16.650000 1.025000
v 0.675000 -16.350000 -0.025000
v 0.675000 -16.350000 1.025000
v 0.675000 -16.050000 -0.025000
v 0.675000 -16.050000 1.025000
v 0.675000 -15.750000 -0.025000
v 0.675000 -15.750000 1.025000
v 0.675000 -15.450000 -0.025000
v 0.675000 -15.450000 1.025000
v 0.675000 -15.150000 0.062500
v 0.675000 -15.150000 -0.025000
v 0.675000 -15.150000 0.150000
v 0.675000 -15.150000 0.237500
v 0.675000 -15.150000 0.325000
v 0.675000 -15.150000 0.412500
v 0.675000 -15.150000 0.500000
v 0.675000 -15.150000 0.587500
v 0.675000 -15.150000 0.675000
v 0.675000 -15.150000 0.762500
v 0.675000 -15.150000 0.850000
v 0.675000 -15.150000 0.937500
v 0.675000 -15.150000 1.025000
v 1.350000 -19.050000 -0.025000
v 1.350000 -19.050000 0.062500
v 1.350000 -18.750000 0.062500
v 1.350000 -18.750000 -0.025000
v 1.350000 -19.050000 0.150000
v 1.350000 -18.750000 0.150000
v 1.350000 -19.050000 0.237500
v 1.350000 -18.750000 0.237500
v 1.350000 -19.050000 0.325000
v 1.350000 -18.750000 0.325000
v 1.350000 -19.050000 0.412500
v 1.350000 -18.750000 0.412500
v 1.350000 -19.050000 0.500000
v 1.350000 -18.750000 0.500000
v 1.350000 -19.050000 0.587500
v 1.350000 -18.750000 0.587500
v 1.350000 -19.050000 0.675000
v 1.350000 -18.750000 0.675000
v 1.350000 -19.050000 0.762500
v 1.350000 -18.750000 0.762500
v 1.350000 -19.050000 0.850000
v 1.350000 -18.750000 0.850000
v 1.350000 -19.050000 0.937500
v 1.350000 -18.750000 0.937500
v 1.350000 -19.050000 1.025000
v 1.350000 -18.750000 1.025000
v 1.350000 -18.450000 0.062500
v 1.350000 -18.450000 -0.025000
v 1.350000 -18.450000 0.150000
v 1.350000 -18.450000 0.237500
v 1.350000 -18.450000 0.325000
v 1.350000 -18.450000 0.412500
v 1.350000 -18.450000 0.500000
v 1.350000 -18.450000 0.587500
v 1.350000 -18.450000 0.675000
v 1.350000 -18.450000 0.762500
v 1.350000 -18.450000 0.850000
v 1.350000 -18.450000 0.937500
v 1.350000 -18.450000 1.025000
v 1.350000 -18.150000 -0.025000
v 1.350000 -18.150000 1.025000
v 1.350000 -17.850000 -0.025000
v 1.350000 -17.850000 1.025000
v 1.350000 -17.550000 -0.025000
v 1.350000 -17.550000 1.025000
v 1.350000 -17.250000 -0.025000
v 1.350000 -17.250000 1.025000
v 1.350000 -16.950000 -0.025000
v 1.350000 -16.950000 1.025000
v 1.350000 -16.650000 -0.025000
v 1.350000 -16.650000 1.025000
v 1.350000 -16.350000 -0.025000
v 1.350000 -16.350000 1.025000
v 1.350000 -16.050000 -0.025000
v 1.350000 -16.050000 1.025000
v 1.350000 -15.750000 -0.025000
v 1.350000 -15.750000 1.025000
v 1.350000 -15.450000 -0.025000
v 1.350000 -15.450000 1.025000
v 1.350000 -15.150000 0.062500
v 1.350000 -15.150000 -0.025000
v 1.350000 -15.150000 0.150000
v 1.350000 -15.150000 0.237500
v 1.350000 -15.150000 0.325000
v 1.350000 -15.150000 0.412500
v 1.350000 -15.150000 0.500000
v 1.350000 -15.150000 0.587500
v 1.350000 -15.150000 0.675000
v 1.350000 -15.150000 0.762500
v 1.350000 -15.150000 0.850000
v 1.350000 -15.150000 0.937500
v 1.350000 -15.150000 1.025000
v 2.025000 -18.450000 -0.025000
v 2.025000 -18.450000 0.062500
v 2.025000 -18.150000 0.062500
v 2.025000 -18.150000 -0.025000
v 2.025000 -18.450000 0.150000
v 2.025000 -18.150000 0.150000
v 2.025000 -18.450000 0.237500
v 2.025000 -18.150000 0.237500
v 2.025000 -18.450000 0.325000
v 2.025000 -18.150000 0.325000
v 2.025000 -18.450000 0.412500
v 2.025000 -18.150000 0.412500
v 2.025000 -18.450000 0.500000
v 2.025000 -18.150000 0.500000
v 2.025000 -18.450000 0.587500
v 2.025000 -18.150000 0.587500
v 2.025000 -18.450000 0.675000
v 2.025000 -18.150000 0.675000
v 2.025000 -18.450000 0.762500
v 2.025000 -18.150000 0.762500
v 2.025000 -18.450000 0.850000
v 2.025000 -18.150000 0.850000
v 2.025000 -18.450000 0.937500
v 2.025000 -18.150000 0.937500
v 2.025000 -18.450000 1.025000
v 2.025000 -18.150000 1.025000
v 2.025000 -17.850000 0.062500
v 2.025000 -17.850000 -0.025000
v 2.025000 -17.850000 0.150000
v 2.025000 -17.850000 0.237500
v 2.025000 -17.850000 0.325000
v 2.025000 -17.850000 0.412500
v 2.025000 -17.850000 0.500000
v 2.025000 -17.850000 0.587500
v 2.025000 -17.850000 0.675000
v 2.025000 -17.850000 0.762500
v 2.025000 -17.850000 0.850000
v 2.025000 -17.850000 0.937500
v 2.025000 -17.850000 1.025000
v 2.025000 -17.550000 0.062500
v 2.025000 -17.550000 -0.025000
v 2.025000 -17.550000 0.150000
v 2.025000 -17.550000 0.237500
v 2.025000 -17.550000 0.325000
v 2.025000 -17.550000 0.412500
v 2.025000 -17.550000 0.500000
v 2.025000 -17.550000 0.587500
v 2.025000 -17.550000 0.675000
v 2.025000 -17.550000 0.762500
v 2.025000 -17.550000 0.850000
v 2.025000 -17.550000 0.937500
v 2.025000 -17.550000 1.025000
v 2.025000 -17.250000 -0.025000
v 2.025000 -17.250000 1.025000
v 2.025000 -16.950000 -0.025000
v 2.025000 -16.950000 1.025000
v 2.025000 -16.650000 -0.025000
v 2.025000 -16.650000 1.025000
v 2.025000 -16.350000 -0.025000
v 2.025000 -16.350000 1.025000
v 2.025000 -16.050000 -0.025000
v 2.025000 -16.050000 1.025000
v 2.025000 -15.750000 -0.025000
v 2.025000 -15.750000 1.025000
v 2.025000 -15.450000 -0.025000
v 2.025000 -15.450000 1.025000
v 2.025000 -15.150000 0.062500
v 2.025000 -15.150000 -0.025000
v 2.025000 -15.150000 0.150000
v 2.025000 -15.150000 0.237500
v 2.025000 -15.150000 0.325000
v 2.025000 -15.150000 0.412500
v 2.025000 -15.150000 0.500000
v 2.025000 -15.150000 0.587500
v 2.025000 -15.150000 0.675000
v 2.025000 -15.150000 0.762500
v 2.025000 -15.150000 0.850000
v 2.025000 -15.150000 0.937500
v 2.025000 -15.150000 1.025000
v 2.700000 -17.550000 -0.025000
v 2.700000 -17.550000 0.062500
v 2.700000 -17.250000 0.062500
v 2.700000 -17.250000 -0.025000
v 2.700000 -17.550000 0.150000
v 2.700000 -17.250000 0.150000
v 2.700000 -17.550000 0.237500
v 2.700000 -17.250000 0.237500
v 2.700000 -17.550000 0.325000
v 2.700000 -17.250000 0.325000
v 2.700000 -17.550000 0.412500
v 2.700000 -17.250000 0.412500
v 2.700000 -17.550000 0.500000
v 2.700000 -17.250000 0.500000
v 2.700000 -17.550000 0.587500
v 2.700000 -17.250000 0.587500
v 2.700000 -17.550000 0.675000
v 2.700000 -17.250000 0.675000
v 2.700000 -17.550000 0.762500
v 2.700000 -17.250000 0.762500
v 2.700000 -17.550000 0.850000
v 2.700000 -17.250000 0.850000
v 2.700000 -17.550000 0.937500
v 2.700000 -17.250000 0.937500
v 2.700000 -17.550000 1.025000
v 2.700000 -17.250000 1.025000
v 2.700000 -16.950000 0.062500
v 2.700000 -16.950000 -0.025000
v 2.700000 -16.950000 0.150000
v 2.700000 -16.950000 0.237500
v 2.700000 -16.950000 0.325000
v 2.700000 -16.950000 0.412500
v 2.700000 -16.950000 0.500000
v 2.700000 -16.950000 0.587500
v 2.700000 -16.950000 0.675000
v 2.700000 -16.950000 0.762500
v 2.700000 -16.950000 0.850000
v 2.700000 -16.950000 0.937500
v 2.700000 -16.950000 1.025000
v 2.700000 -16.650000 -0.025000
v 2.700000 -16.650000 1.025000
v 2.700000 -16.350000 -0.025000
v 2.700000 -16.350000 1.025000
v 2.700000 -16.050000 -0.025000
v 2.700000 -16.050000 1.025000
v 2.700000 -15.750000 -0.025000
v 2.700000 -15.750000 1.025000
v 2.700000 -15.450000 -0.025000
v 2.700000 -15.450000 1.025000
v 2.700000 -15.150000 0.062500
v 2.700000 -15.150000 -0.025000
v 2.700000 -15.150000 0.150000
v 2.700000 -15.150000 0.237500
v 2.700000 -15.150000 0.325000
v 2.700000 -15.150000 0.412500
v 2.700000 -15.150000 0.500000
v 2.700000 -15.150000 0.587500
v 2.700000 -15.150000 0.675000
v 2.700000 -15.150000 0.762500
v 2.700000 -15.150000 0.850000
v 2.700000 -15.150000 0.937500
v 2.700000 -15.150000 1.025000
v 3.375000 -16.950000 -0.025000
v 3.375000 -16.950000 0.062500
v 3.375000 -16.650000 0.062500
v 3.375000 -16.650000 -0.025000
v 3.375000 -16.950000 0.150000
v 3.375000 -16.650000 0.150000
v 3.375000 -16.950000 0.237500
v 3.375000 -16.650000 0.237500
v 3.375000 -16.950000 0.325000
v 3.375000 -16.650000 0.325000
v 3.375000 -16.950000 0.412500
v 3.375000 -16.650000 0.412500
v 3.375000 -16.950000 0.500000
v 3.375000 -16.650000 0.500000
v 3.375000 -16.950000 0.587500
v 3.375000 -16.650000 0.587500
v 3.375000 -16.950000 0.675000
v 3.375000 -16.650000 0.675000
v 3.375000 -16.950000 0.762500
v 3.375000 -16.650000 0.762500
v 3.375000 -16.950000 0.850000
v 3.375000 -16.650000 0.850000
v 3.375000 -16.950000 0.937500
v 3.375000 -16.650000 0.937500
v 3.375000 -16.950000 1.025000
v 3.375000 -16.650000 1.025000
v 3.375000 -16.350000 0.062500
v 3.375000 -16.350000 -0.025000
v 3.375000 -16.350000 0.150000
v 3.375000 -16.350000 0.237500
v 3.375000 -16.350000 0.325000
v 3.375000 -16.350000 0.412500
v 3.375000 -16.350000 0.500000
v 3.375000 -16.350000 0.587500
v 3.375000 -16.350000 0.675000
v 3.375000 -16.350000 0.762500
v 3.375000 -16.350000 0.850000
v 3.375000 -16.350000 0.937500
v 3.375000 -16.350000 1.025000
v 3.375000 -16.050000 -0.025000
v 3.375000 -16.050000 1.025000
v 3.375000 -15.750000 -0.025000
v 3.375000 -15.750000 1.025000
v 3.375000 -15.450000 -0.025000
v 3.375000 -15.450000 1.025000
v 3.375000 -15.150000 0.062500
v 3.375000 -15.150000 -0.025000
v 3.375000 -15.150000 0.150000
v 3.375000 -15.150000 0.237500
v 3.375000 -15.150000 0.325000
v 3.375000 -15.150000 0.412500
v 3.375000 -15.150000 0.500000
v 3.375000 -15.150000 0.587500
v 3.375000 -15.150000 0.675000
v 3.375000 -15.150000 0.762500
v 3.375000 -15.150000 0.850000
v 3.375000 -15.150000 0.937500
v 3.375000 -15.150000 1.025000
v 4.050000 -16.350000 -0.025000
v 4.050000 -16.350000 0.062500
v 4.050000 -16.050000 0.062500
v 4.050000 -16.050000 -0.025000
v 4.050000 -16.350000 0.150000
v 4.050000 -16.050000 0.150000
v 4.050000 -16.350000 0.237500
v 4.050000 -16.050000 0.237500
v 4.050000 -16.350000 0.325000
v 4.050000 -16.050000 0.325000
v 4.050000 -16.350000 0.412500
v 4.050000 -16.050000 0.412500
v 4.050000 -16.350000 0.500000
v 4.050000 -16.050000 0.500000
v 4.050000 -16.350000 0.587500
v 4.050000 -16.050000 0.587500
v 4.050000 -16.350000 0.675000
v 4.050000 -16.050000 0.675000
v 4.050000 -16.350000 0.762500
v 4.050000 -16.050000 0.762500
v 4.050000 -16.350000 0.850000
v 4.050000 -16.050000 0.850000
v 4.050000 -16.350000 0.937500
v 4.050000 -16.050000 0.937500
v 4.050000 -16.350000 1.025000
v 4.050000 -16.050000 1.025000
v 4.050000 -15.750000 0.062500
v 4.050000 -15.750000 -0.025000
v 4.050000 -15.750000 0.150000
v 4.050000 -15.750000 0.237500
v 4.050000 -15.750000 0.325000
v 4.050000 -15.750000 0.412500
v 4.050000 -15.750000 0.500000
v 4.050000 -15.750000 0.587500
v 4.050000 -15.750000 0.675000
v 4.050000 -15.750000 0.762500
v 4.050000 -15.750000 0.850000
v 4.050000 -15.750000 0.937500
v 4.050000 -15.750000 1.025000
v 4.050000 -15.450000 -0.025000
v 4.050000 -15.450000 1.025000
v 4.050000 -15.150000 0.062500
v 4.050000 -15.150000 -0.025000
v 4.050000 -15.150000 0.150000
v 4.050000 -15.150000 0.237500
v 4.050000 -15.150000 0.325000
v 4.050000 -15.150000 0.412500
v 4.050000 -15.150000 0.500000
v 4.050000 -15.150000 0.587500
v 4.050000 -15.150000 0.675000
v 4.050000 -15.150000 0.762500
v 4.050000 -15.150000 0.850000
v 4.050000 -15.150000 0.937500
v 4.050000 -15.150000 1.025000
v 4.725000 -15.750000 -0.025000
v 4.725000 -15.750000 0.062500
v 4.725000 -15.450000 0.062500
v 4.725000 -15.450000 -0.025000
v 4.725000 -15.750000 0.150000
v 4.725000 -15.450000 0.150000
v 4.725000 -15.750000 0.237500
v 4.725000 -15.450000 0.237500
v 4.725000 -15.750000 0.325000
v 4.725000 -15.450000 0.325000
v 4.725000 -15.750000 0.412500
v 4.725000 -15.450000 0.412500
v 4.725000 -15.750000 0.500000
v 4.725000 -15.450000 0.500000
v 4.725000 -15.750000 0.587500
v 4.725000 -15.450000 0.587500
v 4.725000 -15.750000 0.675000
v 4.725000 -15.450000 0.675000
v 4.725000 -15.750000 0.762500
v 4.725000 -15.450000 0.762500
v 4.725000 -15.750000 0.850000
v 4.725000 -15.450000 0.850000
v 4.725000 -15.750000 0.937500
v 4.725000 -15.450000 0.937500
v 4.725000 -15.750000 1.025000
v 4.725000 -15.450000 1.025000
v 4.725000 -15.150000 0.062500
v 4.725000 -15.150000 -0.025000
v 4.725000 -15.150000 0.150000
v 4.725000 -15.150000 0.237500
v 4.725000 -15.150000 0.325000
v 4.725000 -15.150000 0.412500
v 4.725000 -15.150000 0.500000
v 4.725000 -15.150000 0.587500
v 4.725000 -15.150000 0.675000
v 4.725000 -15.150000 0.762500
v 4.725000 -15.150000 0.850000
v 4.725000 -15.150000 0.937500
v 4.725000 -15.150000 1.025000
f 1 2 3
f 1 3 4
f 1 5 6
f 1 6 4
f 1 2 7
f 1 7 5
f 4 3 8
f 4 8 9
f 4 6 10
f 4 10 9
f 9 8 11
f 9 11 12
f 9 10 13
f 9 13 12
f 12 11 14
f 12 14 15
f 12 13 16
f 12 16 15
f 15 14 17
f 15 17 18
f 15 16 19
f 15 19 18
f 18 17 20
f 18 20 21
f 18 19 22
f 18 22 21
f 21 20 23
f 21 23 24
f 21 22 25
f 21 25 24
f 24 23 26
f 24 26 27
f 24 25 28
f 24 28 27
f 27 26 29
f 27 29 30
f 27 28 31
f 27 31 30
f 30 29 32
f 30 32 33
f 30 31 34
f 30 34 33
f 33 32 35
f 33 35 36
f 33 34 37
f 33 37 36
f 36 35 38
f 36 38 39
f 36 37 40
f 36 40 39
f 39 40 41
f 39 41 38
f 2 42 43
f 2 43 3
f 42 43 44
f 42 44 45
f 2 42 45
f 2 45 7
f 3 43 46
f 3 46 8
f 43 46 47
f 43 47 44
f 8 46 48
f 8 48 11
f 46 48 49
f 46 49 47
f 11 48 50
f 11 50 14
f 48 50 51
f 48 51 49
f 14 50 52
f 14 52 17
f 50 52 53
f 50 53 51
f 17 52 54
f 17 54 20
f 52 54 55
f 52 55 53
f 20 54 56
f 20 56 23
f 54 56 57
f 54 57 55
f 23 56 58
f 23 58 26
f 56 58 59
f 56 59 57
f 26 58 60
f 26 60 29
f 58 60 61
f 58 61 59
f 29 60 62
f 29 62 32
f 60 62 63
f 60 63 61
f 32 62 64
f 32 64 35
f 62 64 65
f 62 65 63
f 35 64 66
f 35 66 38
f 64 66 67
f 64 67 65
f 38 41 67
f 38 67 66
f 68 69 70
f 68 70 71
f 68 72 73
f 68 73 71
f 68 69 74
f 68 74 72
f 71 70 75
f 71 75 76
f 71 73 77
f 71 77 76
f 76 75 78
f 76 78 79
f 76 77 80
f 76 80 79
f 79 78 81
f 79 81 82
f 79 80 83
f 79 83 82
f 82 81 84
f 82 84 85
f 82 83 86
f 82 86 85
f 85 84 87
f 85 87 88
f 85 86 89
f 85 89 88
f 88 87 90
f 88 90 91
f 88 89 92
f 88 92 91
f 91 90 93
f 91 93 94
f 91 92 95
f 91 95 94
f 94 93 96
f 94 96 97
f 94 95 98
f 94 98 97
f 97 96 99
f 97 99 100
f 97 98 101
f 97 101 100
f 100 99 102
f 100 102 103
f 100 101 104
f 100 104 103
f 103 102 105
f 103 105 106
f 103 104 107
f 103 107 106
f 106 107 108
f 106 108 105
f 69 5 6
f 69 6 70
f 69 5 109
f 69 109 74
f 70 6 10
f 70 10 75
f 75 10 13
f 75 13 78
f 78 13 16
f 78 16 81
f 81 16 19
f 81 19 84
f 84 19 22
f 84 22 87
f 87 22 25
f 87 25 90
f 90 25 28
f 90 28 93
f 93 28 31
f 93 31 96
f 96 31 34
f 96 34 99
f 99 34 37
f 99 37 102
f 102 37 40
f 102 40 105
f 105 108 110
f 105 110 40
f 5 7 111
f 5 111 109
f 40 110 112
f 40 112 41
f 45 44 113
f 45 113 114
f 7 45 114
f 7 114 111
f 44 47 115
f 44 115 113
f 47 49 116
f 47 116 115
f 49 51 117
f 49 117 116
f 51 53 118
f 51 118 117
f 53 55 119
f 53 119 118
f 55 57 120
f 55 120 119
f 57 59 121
f 57 121 120
f 59 61 122
f 59 122 121
f 61 63 123
f 61 123 122
f 63 65 124
f 63 124 123
f 65 67 125
f 65 125 124
f 41 112 125
f 41 125 67
f 126 127 128
f 126 128 129
f 126 130 131
f 126 131 129
f 126 127 132
f 126 132 130
f 129 128 133
f 129 133 134
f 129 131 135
f 129 135 134
f 134 133 136
f 134 136 137
f 134 135 138
f 134 138 137
f 137 136 139
f 137 139 140
f 137 138 141
f 137 141 140
f 140 139 142
f 140 142 143
f 140 141 144
f 140 144 143
f 143 142 145
f 143 145 146
f 143 144 147
f 143 147 146
f 146 145 148
f 146 148 149
f 146 147 150
f 146 150 149
f 149 148 151
f 149 151 152
f 149 150 153
f 149 153 152
f 152 151 154
f 152 154 155
f 152 153 156
f 152 156 155
f 155 154 157
f 155 157 158
f 155 156 159
f 155 159 158
f 158 157 160
f 158 160 161
f 158 159 162
f 158 162 161
f 161 160 163
f 161 163 164
f 161 162 165
f 161 165 164
f 164 165 166
f 164 166 163
f 127 72 73
f 127 73 128
f 127 72 167
f 127 167 132
f 128 73 77
f 128 77 133
f 133 77 80
f 133 80 136
f 136 80 83
f 136 83 139
f 139 83 86
f 139 86 142
f 142 86 89
f 142 89 145
f 145 89 92
f 145 92 148
f 148 92 95
f 148 95 151
f 151 95 98
f 151 98 154
f 154 98 101
f 154 101 157
f 157 101 104
f 157 104 160
f 160 104 107
f 160 107 163
f 163 166 168
f 163 168 107
f 72 74 169
f 72 169 167
f 107 168 170
f 107 170 108
f 74 109 171
f 74 171 169
f 108 170 172
f 108 172 110
f 109 111 173
f 109 173 171
f 110 172 174
f 110 174 112
f 114 113 175
f 114 175 176
f 111 114 176
f 111 176 173
f 113 115 177
f 113 177 175
f 115 116 178
f 115 178 177
f 116 117 179
f 116 179 178
f 117 118 180
f 117 180 179
f 118 119 181
f 118 181 180
f 119 120 182
f 119 182 181
f 120 121 183
f 120 183 182
f 121 122 184
f 121 184 183
f 122 123 185
f 122 185 184
f 123 124 186
f 123 186 185
f 124 125 187
f 124 187 186
f 112 174 187
f 112 187 125
f 188 189 190
f 188 190 191
f 188 192 193
f 188 193 191
f 188 189 194
f 188 194 192
f 191 190 195
f 191 195 196
f 191 193 197
f 191 197 196
f 196 195 198
f 196 198 199
f 196 197 200
f 196 200 199
f 199 198 201
f 199 201 202
f 199 200 203
f 199 203 202
f 202 201 204
f 202 204 205
f 202 203 206
f 202 206 205
f 205 204 207
f 205 207 208
f 205 206 209
f 205 209 208
f 208 207 210
f 208 210 211
f 208 209 212
f 208 212 211
f 211 210 213
f 211 213 214
f 211 212 215
f 211 215 214
f 214 213 216
f 214 216 217
f 214 215 218
f 214 218 217
f 217 216 219
f 217 219 220
f 217 218 221
f 217 221 220
f 220 219 222
f 220 222 223
f 220 221 224
f 220 224 223
f 223 222 225
f 223 225 226
f 223 224 227
f 223 227 226
f 226 227 228
f 226 228 225
f 189 130 131
f 189 131 190
f 189 130 229
f 189 229 194
f 190 131 135
f 190 135 195
f 195 135 138
f 195 138 198
f 198 138 141
f 198 141 201
f 201 141 144
f 201 144 204
f 204 144 147
f 204 147 207
f 207 147 150
f 207 150 210
f 210 150 153
f 210 153 213
f 213 153 156
f 213 156 216
f 216 156 159
f 216 159 219
f 219 159 162
f 219 162 222
f 222 162 165
f 222 165 225
f 225 228 230
f 225 230 165
f 130 132 231
f 130 231 229
f 165 230 232
f 165 232 166
f 132 167 233
f 132 233 231
f 166 232 234
f 166 234 168
f 167 169 235
f 167 235 233
f 168 234 236
f 168 236 170
f 169 171 237
f 169 237 235
f 170 236 238
f 170 238 172
f 171 173 239
f 171 239 237
f 172 238 240
f 172 240 174
f 176 175 241
f 176 241 242
f 173 176 242
f 173 242 239
f 175 177 243
f 175 243 241
f 177 178 244
f 177 244 243
f 178 179 245
f 178 245 244
f 179 180 246
f 179 246 245
f 180 181 247
f 180 247 246
f 181 182 248
f 181 248 247
f 182 183 249
f 182 249 248
f 183 184 250
f 183 250 249
f 184 185 251
f 184 251 250
f 185 186 252
f 185 252 251
f 186 187 253
f 186 253 252
f 174 240 253
f 174 253 187
f 254 255 256
f 254 256 257
f 254 258 259
f 254 259 257
f 254 255 260
f 254 260 258
f 257 256 261
f 257 261 262
f 257 259 263
f 257 263 262
f 262 261 264
f 262 264 265
f 262 263 266
f 262 266 265
f 265 264 267
f 265 267 268
f 265 266 269
f 265 269 268
f 268 267 270
f 268 270 271
f 268 269 272
f 268 272 271
f 271 270 273
f 271 273 274
f 271 272 275
f 271 275 274
f 274 273 276
f 274 276 277
f 274 275 278
f 274 278 277
f 277 276 279
f 277 279 280
f 277 278 281
f 277 281 280
f 280 279 282
f 280 282 283
f 280 281 284
f 280 284 283
f 283 282 285
f 283 285 286
f 283 284 287
f 283 287 286
f 286 285 288
f 286 288 289
f 286 287 290
f 286 290 289
f 289 288 291
f 289 291 292
f 289 290 293
f 289 293 292
f 292 293 294
f 292 294 291
f 255 295 296
f 255 296 256
f 255 295 297
f 255 297 260
f 256 296 298
f 256 298 261
f 261 298 299
f 261 299 264
f 264 299 300
f 264 300 267
f 267 300 301
f 267 301 270
f 270 301 302
f 270 302 273
f 273 302 303
f 273 303 276
f 276 303 304
f 276 304 279
f 279 304 305
f 279 305 282
f 282 305 306
f 282 306 285
f 285 306 307
f 285 307 288
f 288 307 308
f 288 308 291
f 291 294 309
f 291 309 308
f 295 192 193
f 295 193 296
f 295 192 310
f 295 310 297
f 296 193 197
f 296 197 298
f 298 197 200
f 298 200 299
f 299 200 203
f 299 203 300
f 300 203 206
f 300 206 301
f 301 206 209
f 301 209 302
f 302 209 212
f 302 212 303
f 303 212 215
f 303 215 304
f 304 215 218
f 304 218 305
f 305 218 221
f 305 221 306
f 306 221 224
f 306 224 307
f 307 224 227
f 307 227 308
f 308 309 311
f 308 311 227
f 192 194 312
f 192 312 310
f 227 311 313
f 227 313 228
f 194 229 314
f 194 314 312
f 228 313 315
f 228 315 230
f 229 231 316
f 229 316 314
f 230 315 317
f 230 317 232
f 231 233 318
f 231 318 316
f 232 317 319
f 232 319 234
f 233 235 320
f 233 320 318
f 234 319 321
f 234 321 236
f 235 237 322
f 235 322 320
f 236 321 323
f 236 323 238
f 237 239 324
f 237 324 322
f 238 323 325
f 238 325 240
f 242 241 326
f 242 326 327
f 239 242 327
f 239 327 324
f 241 243 328
f 241 328 326
f 243 244 329
f 243 329 328
f 244 245 330
f 244 330 329
f 245 246 331
f 245 331 330
f 246 247 332
f 246 332 331
f 247 248 333
f 247 333 332
f 248 249 334
f 248 334 333
f 249 250 335
f 249 335 334
f 250 251 336
f 250 336 335
f 251 252 337
f 251 337 336
f 252 253 338
f 252 338 337
f 240 325 338
f 240 338 253
f 339 340 341
f 339 341 342
f 339 343 344
f 339 344 342
f 339 340 345
f 339 345 343
f 342 341 346
f 342 346 347
f 342 344 348
f 342 348 347
f 347 346 349
f 347 349 350
f 347 348 351
f 347 351 350
f 350 349 352
f 350 352 353
f 350 351 354
f 350 354 353
f 353 352 355
f 353 355 356
f 353 354 357
f 353 357 356
f 356 355 358
f 356 358 359
f 356 357 360
f 356 360 359
f 359 358 361
f 359 361 362
f 359 360 363
f 359 363 362
f 362 361 364
f 362 364 365
f 362 363 366
f 362 366 365
f 365 364 367
f 365 367 368
f 365 366 369
f 365 369 368
f 368 367 370
f 368 370 371
f 368 369 372
f 368 372 371
f 371 370 373
f 371 373 374
f 371 372 375
f 371 375 374
f 374 373 376
f 374 376 377
f 374 375 378
f 374 378 377
f 377 378 379
f 377 379 376
f 340 258 259
f 340 259 341
f 340 258 380
f 340 380 345
f 341 259 263
f 341 263 346
f 346 263 266
f 346 266 349
f 349 266 269
f 349 269 352
f 352 269 272
f 352 272 355
f 355 272 275
f 355 275 358
f 358 275 278
f 358 278 361
f 361 278 281
f 361 281 364
f 364 281 284
f 364 284 367
f 367 284 287
f 367 287 370
f 370 287 290
f 370 290 373
f 373 290 293
f 373 293 376
f 376 379 381
f 376 381 293
f 258 260 382
f 258 382 380
f 293 381 383
f 293 383 294
f 260 297 384
f 260 384 382
f 294 383 385
f 294 385 309
f 297 310 386
f 297 386 384
f 309 385 387
f 309 387 311
f 310 312 388
f 310 388 386
f 311 387 389
f 311 389 313
f 312 314 390
f 312 390 388
f 313 389 391
f 313 391 315
f 314 316 392
f 314 392 390
f 315 391 393
f 315 393 317
f 316 318 394
f 316 394 392
f 317 393 395
f 317 395 319
f 318 320 396
f 318 396 394
f 319 395 397
f 319 397 321
f 320 322 398
f 320 398 396
f 321 397 399
f 321 399 323
f 322 324 400
f 322 400 398
f 323 399 401
f 323 401 325
f 327 326 402
f 327 402 403
f 324 327 403
f 324 403 400
f 326 328 404
f 326 404 402
f 328 329 405
f 328 405 404
f 329 330 406
f 329 406 405
f 330 331 407
f 330 407 406
f 331 332 408
f 331 408 407
f 332 333 409
f 332 409 408
f 333 334 410
f 333 410 409
f 334 335 411
f 334 411 410
f 335 336 412
f 335 412 411
f 336 337 413
f 336 413 412
f 337 338 414
f 337 414 413
f 325 401 414
f 325 414 338
f 415 416 417
f 415 417 418
f 415 419 420
f 415 420 418
f 415 416 421
f 415 421 419
f 418 417 422
f 418 422 423
f 418 420 424
f 418 424 423
f 423 422 425
f 423 425 426
f 423 424 427
f 423 427 426
f 426 425 428
f 426 428 429
f 426 427 430
f 426 430 429
f 429 428 431
f 429 431 432
f 429 430 433
f 429 433 432
f 432 431 434
f 432 434 435
f 432 433 436
f 432 436 435
f 435 434 437
f 435 437 438
f 435 436 439
f 435 439 438
f 438 437 440
f 438 440 441
f 438 439 442
f 438 442 441
f 441 440 443
f 441 443 444
f 441 442 445
f 441 445 444
f 444 443 446
f 444 446 447
f 444 445 448
f 444 448 447
f 447 446 449
f 447 449 450
f 447 448 451
f 447 451 450
f 450 449 452
f 450 452 453
f 450 451 454
f 450 454 453
f 453 454 455
f 453 455 452
f 416 343 344
f 416 344 417
f 416 343 456
f 416 456 421
f 417 344 348
f 417 348 422
f 422 348 351
f 422 351 425
f 425 351 354
f 425 354 428
f 428 354 357
f 428 357 431
f 431 357 360
f 431 360 434
f 434 360 363
f 434 363 437
f 437 363 366
f 437 366 440
f 440 366 369
f 440 369 443
f 443 369 372
f 443 372 446
f 446 372 375
f 446 375 449
f 449 375 378
f 449 378 452
f 452 455 457
f 452 457 378
f 343 345 458
f 343 458 456
f 378 457 459
f 378 459 379
f 345 380 460
f 345 460 458
f 379 459 461
f 379 461 381
f 380 382 462
f 380 462 460
f 381 461 463
f 381 463 383
f 382 384 464
f 382 464 462
f 383 463 465
f 383 465 385
f 384 386 466
f 384 466 464
f 385 465 467
f 385 467 387
f 386 388 468
f 386 468 466
f 387 467 469
f 387 469 389
f 388 390 470
f 388 470 468
f 389 469 471
f 389 471 391
f 390 392 472
f 390 472 470
f 391 471 473
f 391 473 393
f 392 394 474
f 392 474 472
f 393 473 475
f 393 475 395
f 394 396 476
f 394 476 474
f 395 475 477
f 395 477 397
f 396 398 478
f 396 478 476
f 397 477 479
f 397 479 399
f 398 400 480
f 398 480 478
f 399 479 481
f 399 481 401
f 403 402 482
f 403 482 483
f 400 403 483
f 400 483 480
f 402 404 484
f 402 484 482
f 404 405 485
f 404 485 484
f 405 406 486
f 405 486 485
f 406 407 487
f 406 487 486
f 407 408 488
f 407 488 487
f 408 409 489
f 408 489 488
f 409 410 490
f 409 490 489
f 410 411 491
f 410 491 490
f 411 412 492
f 411 492 491
f 412 413 493
f 412 493 492
f 413 414 494
f 413 494 493
f 401 481 494
f 401 494 414
f 495 496 497
f 495 497 498
f 419 495 496
f 419 496 420
f 419 421 498
f 419 498 495
f 496 499 500
f 496 500 497
f 420 496 499
f 420 499 424
f 499 501 502
f 499 502 500
f 424 499 501
f 424 501 427
f 501 503 504
f 501 504 502
f 427 501 503
f 427 503 430
f 503 505 506
f 503 506 504
f 430 503 505
f 430 505 433
f 505 507 508
f 505 508 506
f 433 505 507
f 433 507 436
f 507 509 510
f 507 510 508
f 436 507 509
f 436 509 439
f 509 511 512
f 509 512 510
f 439 509 511
f 439 511 442
f 511 513 514
f 511 514 512
f 442 511 513
f 442 513 445
f 513 515 516
f 513 516 514
f 445 513 515
f 445 515 448
f 515 517 518
f 515 518 516
f 448 515 517
f 448 517 451
f 517 519 520
f 517 520 518
f 451 517 519
f 451 519 454
f 454 519 520
f 454 520 455
f 498 497 521
f 498 521 522
f 421 456 522
f 421 522 498
f 497 500 523
f 497 523 521
f 500 502 524
f 500 524 523
f 502 504 525
f 502 525 524
f 504 506 526
f 504 526 525
f 506 508 527
f 506 527 526
f 508 510 528
f 508 528 527
f 510 512 529
f 510 529 528
f 512 514 530
f 512 530 529
f 514 516 531
f 514 531 530
f 516 518 532
f 516 532 531
f 518 520 533
f 518 533 532
f 455 520 533
f 455 533 457
f 456 458 534
f 456 534 522
f 457 533 535
f 457 535 459
f 458 460 536
f 458 536 534
f 459 535 537
f 459 537 461
f 460 462 538
f 460 538 536
f 461 537 539
f 461 539 463
f 462 464 540
f 462 540 538
f 463 539 541
f 463 541 465
f 464 466 542
f 464 542 540
f 465 541 543
f 465 543 467
f 466 468 544
f 466 544 542
f 467 543 545
f 467 545 469
f 468 470 546
f 468 546 544
f 469 545 547
f 469 547 471
f 470 472 548
f 470 548 546
f 471 547 549
f 471 549 473
f 472 474 550
f 472 550 548
f 473 549 551
f 473 551 475
f 474 476 552
f 474 552 550
f 475 551 553
f 475 553 477
f 476 478 554
f 476 554 552
f 477 553 555
f 477 555 479
f 478 480 556
f 478 556 554
f 479 555 557
f 479 557 481
f 483 482 558
f 483 558 559
f 480 483 559
f 480 559 556
f 482 484 560
f 482 560 558
f 484 485 561
f 484 561 560
f 485 486 562
f 485 562 561
f 486 487 563
f 486 563 562
f 487 488 564
f 487 564 563
f 488 489 565
f 488 565 564
f 489 490 566
f 489 566 565
f 490 491 567
f 490 567 566
f 491 492 568
f 491 568 567
f 492 493 569
f 492 569 568
f 493 494 570
f 493 570 569
f 481 557 570
f 481 570 494
f 571 572 573
f 571 573 574
f 522 571 572
f 522 572 521
f 522 534 574
f 522 574 571
f 572 575 576
f 572 576 573
f 521 572 575
f 521 575 523
f 575 577 578
f 575 578 576
f 523 575 577
f 523 577 524
f 577 579 580
f 577 580 578
f 524 577 579
f 524 579 525
f 579 581 582
f 579 582 580
f 525 579 581
f 525 581 526
f 581 583 584
f 581 584 582
f 526 581 583
f 526 583 527
f 583 585 586
f 583 586 584
f 527 583 585
f 527 585 528
f 585 587 588
f 585 588 586
f 528 585 587
f 528 587 529
f 587 589 590
f 587 590 588
f 529 587 589
f 529 589 530
f 589 591 592
f 589 592 590
f 530 589 591
f 530 591 531
f 591 593 594
f 591 594 592
f 531 591 593
f 531 593 532
f 593 595 596
f 593 596 594
f 532 593 595
f 532 595 533
f 533 595 596
f 533 596 535
f 574 573 597
f 574 597 598
f 534 536 598
f 534 598 574
f 573 576 599
f 573 599 597
f 576 578 600
f 576 600 599
f 578 580 601
f 578 601 600
f 580 582 602
f 580 602 601
f 582 584 603
f 582 603 602
f 584 586 604
f 584 604 603
f 586 588 605
f 586 605 604
f 588 590 606
f 588 606 605
f 590 592 607
f 590 607 606
f 592 594 608
f 592 608 607
f 594 596 609
f 594 609 608
f 535 596 609
f 535 609 537
f 536 538 610
f 536 610 598
f 537 609 611
f 537 611 539
f 538 540 612
f 538 612 610
f 539 611 613
f 539 613 541
f 540 542 614
f 540 614 612
f 541 613 615
f 541 615 543
f 542 544 616
f 542 616 614
f 543 615 617
f 543 617 545
f 544 546 618
f 544 618 616
f 545 617 619
f 545 619 547
f 546 548 620
f 546 620 618
f 547 619 621
f 547 621 549
f 548 550 622
f 548 622 620
f 549 621 623
f 549 623 551
f 550 552 624
f 550 624 622
f 551 623 625
f 551 625 553
f 552 554 626
f 552 626 624
f 553 625 627
f 553 627 555
f 554 556 628
f 554 628 626
f 555 627 629
f 555 629 557
f 559 558 630
f 559 630 631
f 556 559 631
f 556 631 628
f 558 560 632
f 558 632 630
f 560 561 633
f 560 633 632
f 561 562 634
f 561 634 633
f 562 563 635
f 562 635 634
f 563 564 636
f 563 636 635
f 564 565 637
f 564 637 636
f 565 566 638
f 565 638 637
f 566 567 639
f 566 639 638
f 567 568 640
f 567 640 639
f 568 569 641
f 568 641 640
f 569 570 642
f 569 642 641
f 557 629 642
f 557 642 570
f 643 644 645
f 643 645 646
f 598 643 644
f 598 644 597
f 598 610 646
f 598 646 643
f 644 647 648
f 644 648 645
f 597 644 647
f 597 647 599
f 647 649 650
f 647 650 648
f 599 647 649
f 599 649 600
f 649 651 652
f 649 652 650
f 600 649 651
f 600 651 601
f 651 653 654
f 651 654 652
f 601 651 653
f 601 653 602
f 653 655 656
f 653 656 654
f 602 653 655
f 602 655 603
f 655 657 658
f 655 658 656
f 603 655 657
f 603 657 604
f 657 659 660
f 657 660 658
f 604 657 659
f 604 659 605
f 659 661 662
f 659 662 660
f 605 659 661
f 605 661 606
f 661 663 664
f 661 664 662
f 606 661 663
f 606 663 607
f 663 665 666
f 663 666 664
f 607 663 665
f 607 665 608
f 665 667 668
f 665 668 666
f 608 665 667
f 608 667 609
f 609 667 668
f 609 668 611
f 646 645 669
f 646 669 670
f 610 612 670
f 610 670 646
f 645 648 671
f 645 671 669
f 648 650 672
f 648 672 671
f 650 652 673
f 650 673 672
f 652 654 674
f 652 674 673
f 654 656 675
f 654 675 674
f 656 658 676
f 656 676 675
f 658 660 677
f 658 677 676
f 660 662 678
f 660 678 677
f 662 664 679
f 662 679 678
f 664 666 680
f 664 680 679
f 666 668 681
f 666 681 680
f 611 668 681
f 611 681 613
f 670 669 682
f 670 682 683
f 612 614 683
f 612 683 670
f 669 671 684
f 669 684 682
f 671 672 685
f 671 685 684
f 672 673 686
f 672 686 685
f 673 674 687
f 673 687 686
f 674 675 688
f 674 688 687
f 675 676 689
f 675 689 688
f 676 677 690
f 676 690 689
f 677 678 691
f 677 691 690
f 678 679 692
f 678 692 691
f 679 680 693
f 679 693 692
f 680 681 694
f 680 694 693
f 613 681 694
f 613 694 615
f 614 616 695
f 614 695 683
f 615 694 696
f 615 696 617
f 616 618 697
f 616 697 695
f 617 696 698
f 617 698 619
f 618 620 699
f 618 699 697
f 619 698 700
f 619 700 621
f 620 622 701
f 620 701 699
f 621 700 702
f 621 702 623
f 622 624 703
f 622 703 701
f 623 702 704
f 623 704 625
f 624 626 705
f 624 705 703
f 625 704 706
f 625 706 627
f 626 628 707
f 626 707 705
f 627 706 708
f 627 708 629
f 631 630 709
f 631 709 710
f 628 631 710
f 628 710 707
f 630 632 711
f 630 711 709
f 632 633 712
f 632 712 711
f 633 634 713
f 633 713 712
f 634 635 714
f 634 714 713
f 635 636 715
f 635 715 714
f 636 637 716
f 636 716 715
f 637 638 717
f 637 717 716
f 638 639 718
f 638 718 717
f 639 640 719
f 639 719 718
f 640 641 720
f 640 720 719
f 641 642 721
f 641 721 720
f 629 708 721
f 629 721 642
f 722 723 724
f 722 724 725
f 683 722 723
f 683 723 682
f 683 695 725
f 683 725 722
f 723 726 727
f 723 727 724
f 682 723 726
f 682 726 684
f 726 728 729
f 726 729 727
f 684 726 728
f 684 728 685
f 728 730 731
f 728 731 729
f 685 728 730
f 685 730 686
f 730 732 733
f 730 733 731
f 686 730 732
f 686 732 687
f 732 734 735
f 732 735 733
f 687 732 734
f 687 734 688
f 734 736 737
f 734 737 735
f 688 734 736
f 688 736 689
f 736 738 739
f 736 739 737
f 689 736 738
f 689 738 690
f 738 740 741
f 738 741 739
f 690 738 740
f 690 740 691
f 740 742 743
f 740 743 741
f 691 740 742
f 691 742 692
f 742 744 745
f 742 745 743
f 692 742 744
f 692 744 693
f 744 746 747
f 744 747 745
f 693 744 746
f 693 746 694
f 694 746 747
f 694 747 696
f 725 724 748
f 725 748 749
f 695 697 749
f 695 749 725
f 724 727 750
f 724 750 748
f 727 729 751
f 727 751 750
f 729 731 752
f 729 752 751
f 731 733 753
f 731 753 752
f 733 735 754
f 733 754 753
f 735 737 755
f 735 755 754
f 737 739 756
f 737 756 755
f 739 741 757
f 739 757 756
f 741 743 758
f 741 758 757
f 743 745 759
f 743 759 758
f 745 747 760
f 745 760 759
f 696 747 760
f 696 760 698
f 697 699 761
f 697 761 749
f 698 760 762
f 698 762 700
f 699 701 763
f 699 763 761
f 700 762 764
f 700 764 702
f 701 703 765
f 701 765 763
f 702 764 766
f 702 766 704
f 703 705 767
f 703 767 765
f 704 766 768
f 704 768 706
f 705 707 769
f 705 769 767
f 706 768 770
f 706 770 708
f 710 709 771
f 710 771 772
f 707 710 772
f 707 772 769
f 709 711 773
f 709 773 771
f 711 712 774
f 711 774 773
f 712 713 775
f 712 775 774
f 713 714 776
f 713 776 775
f 714 715 777
f 714 777 776
f 715 716 778
f 715 778 777
f 716 717 779
f 716 779 778
f 717 718 780
f 717 780 779
f 718 719 781
f 718 781 780
f 719 720 782
f 719 782 781
f 720 721 783
f 720 783 782
f 708 770 783
f 708 783 721
f 784 785 786
f 784 786 787
f 749 784 785
f 749 785 748
f 749 761 787
f 749 787 784
f 785 788 789
f 785 789 786
f 748 785 788
f 748 788 750
f 788 790 791
f 788 791 789
f 750 788 790
f 750 790 751
f 790 792 793
f 790 793 791
f 751 790 792
f 751 792 752
f 792 794 795
f 792 795 793
f 752 792 794
f 752 794 753
f 794 796 797
f 794 797 795
f 753 794 796
f 753 796 754
f 796 798 799
f 796 799 797
f 754 796 798
f 754 798 755
f 798 800 801
f 798 801 799
f 755 798 800
f 755 800 756
f 800 802 803
f 800 803 801
f 756 800 802
f 756 802 757
f 802 804 805
f 802 805 803
f 757 802 804
f 757 804 758
f 804 806 807
f 804 807 805
f 758 804 806
f 758 806 759
f 806 808 809
f 806 809 807
f 759 806 808
f 759 808 760
f 760 808 809
f 760 809 762
f 787 786 810
f 787 810 811
f 761 763 811
f 761 811 787
f 786 789 812
f 786 812 810
f 789 791 813
f 789 813 812
f 791 793 814
f 791 814 813
f 793 795 815
f 793 815 814
f 795 797 816
f 795 816 815
f 797 799 817
f 797 817 816
f 799 801 818
f 799 818 817
f 801 803 819
f 801 819 818
f 803 805 820
f 803 820 819
f 805 807 821
f 805 821 820
f 807 809 822
f 807 822 821
f 762 809 822
f 762 822 764
f 763 765 823
f 763 823 811
f 764 822 824
f 764 824 766
f 765 767 825
f 765 825 823
f 766 824 826
f 766 826 768
f 767 769 827
f 767 827 825
f 768 826 828
f 768 828 770
f 772 771 829
f 772 829 830
f 769 772 830
f 769 830 827
f 771 773 831
f 771 831 829
f 773 774 832
f 773 832 831
f 774 775 833
f 774 833 832
f 775 776 834
f 775 834 833
f 776 777 835
f 776 835 834
f 777 778 836
f 777 836 835
f 778 779 837
f 778 837 836
f 779 780 838
f 779 838 837
f 780 781 839
f 780 839 838
f 781 782 840
f 781 840 839
f 782 783 841
f 782 841 840
f 770 828 841
f 770 841 783
f 842 843 844
f 842 844 845
f 811 842 843
f 811 843 810
f 811 823 845
f 811 845 842
f 843 846 847
f 843 847 844
f 810 843 846
f 810 846 812
f 846 848 849
f 846 849 847
f 812 846 848
f 812 848 813
f 848 850 851
f 848 851 849
f 813 848 850
f 813 850 814
f 850 852 853
f 850 853 851
f 814 850 852
f 814 852 815
f 852 854 855
f 852 855 853
f 815 852 854
f 815 854 816
f 854 856 857
f 854 857 855
f 816 854 856
f 816 856 817
f 856 858 859
f 856 859 857
f 817 856 858
f 817 858 818
f 858 860 861
f 858 861 859
f 818 858 860
f 818 860 819
f 860 862 863
f 860 863 861
f 819 860 862
f 819 862 820
f 862 864 865
f 862 865 863
f 820 862 864
f 820 864 821
f 864 866 867
f 864 867 865
f 821 864 866
f 821 866 822
f 822 866 867
f 822 867 824
f 845 844 868
f 845 868 869
f 823 825 869
f 823 869 845
f 844 847 870
f 844 870 868
f 847 849 871
f 847 871 870
f 849 851 872
f 849 872 871
f 851 853 873
f 851 873 872
f 853 855 874
f 853 874 873
f 855 857 875
f 855 875 874
f 857 859 876
f 857 876 875
f 859 861 877
f 859 877 876
f 861 863 878
f 861 878 877
f 863 865 879
f 863 879 878
f 865 867 880
f 865 880 879
f 824 867 880
f 824 880 826
f 825 827 881
f 825 881 869
f 826 880 882
f 826 882 828
f 830 829 883
f 830 883 884
f 827 830 884
f 827 884 881
f 829 831 885
f 829 885 883
f 831 832 886
f 831 886 885
f 832 833 887
f 832 887 886
f 833 834 888
f 833 888 887
f 834 835 889
f 834 889 888
f 835 836 890
f 835 890 889
f 836 837 891
f 836 891 890
f 837 838 892
f 837 892 891
f 838 839 893
f 838 893 892
f 839 840 894
f 839 894 893
f 840 841 895
f 840 895 894
f 828 882 895
f 828 895 841
f 896 897 898
f 896 898 899
f 869 896 897
f 869 897 868
f 869 881 899
f 869 899 896
f 897 900 901
f 897 901 898
f 868 897 900
f 868 900 870
f 900 902 903
f 900 903 901
f 870 900 902
f 870 902 871
f 902 904 905
f 902 905 903
f 871 902 904
f 871 904 872
f 904 906 907
f 904 907 905
f 872 904 906
f 872 906 873
f 906 908 909
f 906 909 907
f 873 906 908
f 873 908 874
f 908 910 911
f 908 911 909
f 874 908 910
f 874 910 875
f 910 912 913
f 910 913 911
f 875 910 912
f 875 912 876
f 912 914 915
f 912 915 913
f 876 912 914
f 876 914 877
f 914 916 917
f 914 917 915
f 877 914 916
f 877 916 878
f 916 918 919
f 916 919 917
f 878 916 918
f 878 918 879
f 918 920 921
f 918 921 919
f 879 918 920
f 879 920 880
f 880 920 921
f 880 921 882
f 899 898 922
f 899 922 923
f 884 883 922
f 884 922 923
f 881 884 923
f 881 923 899
f 898 901 924
f 898 924 922
f 883 885 924
f 883 924 922
f 901 903 925
f 901 925 924
f 885 886 925
f 885 925 924
f 903 905 926
f 903 926 925
f 886 887 926
f 886 926 925
f 905 907 927
f 905 927 926
f 887 888 927
f 887 927 926
f 907 909 928
f 907 928 927
f 888 889 928
f 888 928 927
f 909 911 929
f 909 929 928
f 889 890 929
f 889 929 928
f 911 913 930
f 911 930 929
f 890 891 930
f 890 930 929
f 913 915 931
f 913 931 930
f 891 892 931
f 891 931 930
f 915 917 932
f 915 932 931
f 892 893 932
f 892 932 931
f 917 919 933
f 917 933 932
f 893 894 933
f 893 933 932
f 919 921 934
f 919 934 933
f 894 895 934
f 894 934 933
f 882 921 934
f 882 934 895
