o [4B] 3D Diagram - S2-09 Group A_88
v -4.725000 -14.850000 -0.025000
v -4.725000 -14.550000 -0.025000
v -4.725000 -14.550000 0.062500
v -4.725000 -14.850000 0.062500
v -4.050000 -14.850000 -0.025000
v -4.050000 -14.850000 0.062500
v -4.050000 -14.550000 -0.025000
v -4.725000 -14.550000 0.150000
v -4.725000 -14.850000 0.150000
v -4.050000 -14.850000 0.150000
v -4.725000 -14.550000 0.237500
v -4.725000 -14.850000 0.237500
v -4.050000 -14.850000 0.237500
v -4.725000 -14.550000 0.325000
v -4.725000 -14.850000 0.325000
v -4.050000 -14.850000 0.325000
v -4.725000 -14.550000 0.412500
v -4.725000 -14.850000 0.412500
v -4.050000 -14.850000 0.412500
v -4.725000 -14.550000 0.500000
v -4.725000 -14.850000 0.500000
v -4.050000 -14.850000 0.500000
v -4.725000 -14.550000 0.587500
v -4.725000 -14.850000 0.587500
v -4.050000 -14.850000 0.587500
v -4.725000 -14.550000 0.675000
v -4.725000 -14.850000 0.675000
v -4.050000 -14.850000 0.675000
v -4.725000 -14.550000 0.762500
v -4.725000 -14.850000 0.762500
v -4.050000 -14.850000 0.762500
v -4.725000 -14.550000 0.850000
v -4.725000 -14.850000 0.850000
v -4.050000 -14.850000 0.850000
v -4.725000 -14.550000 0.937500
v -4.725000 -14.850000 0.937500
v -4.050000 -14.850000 0.937500
v -4.725000 -14.550000 1.025000
v -4.725000 -14.850000 1.025000
v -4.050000 -14.850000 1.025000
v -4.050000 -14.550000 1.025000
v -4.725000 -14.250000 -0.025000
v -4.725000 -14.250000 0.062500
v -4.050000 -14.250000 0.062500
v -4.050000 -14.250000 -0.025000
v -4.725000 -14.250000 0.150000
v -4.050000 -14.250000 0.150000
v -4.725000 -14.250000 0.237500
v -4.050000 -14.250000 0.237500
v -4.725000 -14.250000 0.325000
v -4.050000 -14.250000 0.325000
v -4.725000 -14.250000 0.412500
v -4.050000 -14.250000 0.412500
v -4.725000 -14.250000 0.500000
v -4.050000 -14.250000 0.500000
v -4.725000 -14.250000 0.587500
v -4.050000 -14.250000 0.587500
v -4.725000 -14.250000 0.675000
v -4.050000 -14.250000 0.675000
v -4.725000 -14.250000 0.762500
v -4.050000 -14.250000 0.762500
v -4.725000 -14.250000 0.850000
v -4.050000 -14.250000 0.850000
v -4.725000 -14.250000 0.937500
v -4.050000 -14.250000 0.937500
v -4.725000 -14.250000 1.025000
v -4.050000 -14.250000 1.025000
v -3.375000 -14.850000 -0.025000
v -3.375000 -14.850000 0.062500
v -3.375000 -14.550000 -0.025000
v -3.375000 -14.850000 0.150000
v -3.375000 -14.850000 0.237500
v -3.375000 -14.850000 0.325000
v -3.375000 -14.850000 0.412500
v -3.375000 -14.850000 0.500000
v -3.375000 -14.850000 0.587500
v -3.375000 -14.850000 0.675000
v -3.375000 -14.850000 0.762500
v -3.375000 -14.850000 0.850000
v -3.375000 -14.850000 0.937500
v -3.375000 -14.850000 1.025000
v -3.375000 -14.550000 1.025000
v -3.375000 -14.250000 -0.025000
v -3.375000 -14.250000 1.025000
v -4.050000 -13.950000 -0.025000
v -4.050000 -13.950000 0.062500
v -3.375000 -13.950000 -0.025000
v -4.050000 -13.950000 0.150000
v -4.050000 -13.950000 0.237500
v -4.050000 -13.950000 0.325000
v -4.050000 -13.950000 0.412500
v -4.050000 -13.950000 0.500000
v -4.050000 -13.950000 0.587500
v -4.050000 -13.950000 0.675000
v -4.050000 -13.950000 0.762500
v -4.050000 -13.950000 0.850000
v -4.050000 -13.950000 0.937500
v -4.050000 -13.950000 1.025000
v -3.375000 -13.950000 1.025000
v -4.050000 -13.650000 -0.025000
v -4.050000 -13.650000 0.062500
v -3.375000 -13.650000 0.062500
v -3.375000 -13.650000 -0.025000
v -4.050000 -13.650000 0.150000
v -3.375000 -13.650000 0.150000
v -4.050000 -13.650000 0.237500
v -3.375000 -13.650000 0.237500
v -4.050000 -13.650000 0.325000
v -3.375000 -13.650000 0.325000
v -4.050000 -13.650000 0.412500
v -3.375000 -13.650000 0.412500
v -4.050000 -13.650000 0.500000
v -3.375000 -13.650000 0.500000
v -4.050000 -13.650000 0.587500
v -3.375000 -13.650000 0.587500
v -4.050000 -13.650000 0.675000
v -3.375000 -13.650000 0.675000
v -4.050000 -13.650000 0.762500
v -3.375000 -13.650000 0.762500
v -4.050000 -13.650000 0.850000
v -3.375000 -13.650000 0.850000
v -4.050000 -13.650000 0.937500
v -3.375000 -13.650000 0.937500
v -4.050000 -13.650000 1.025000
v -3.375000 -13.650000 1.025000
v -2.700000 -14.850000 -0.025000
v -2.700000 -14.850000 0.062500
v -2.700000 -14.550000 -0.025000
v -2.700000 -14.850000 0.150000
v -2.700000 -14.850000 0.237500
v -2.700000 -14.850000 0.325000
v -2.700000 -14.850000 0.412500
v -2.700000 -14.850000 0.500000
v -2.700000 -14.850000 0.587500
v -2.700000 -14.850000 0.675000
v -2.700000 -14.850000 0.762500
v -2.700000 -14.850000 0.850000
v -2.700000 -14.850000 0.937500
v -2.700000 -14.850000 1.025000
v -2.700000 -14.550000 1.025000
v -2.700000 -14.250000 -0.025000
v -2.700000 -14.250000 1.025000
v -2.700000 -13.950000 -0.025000
v -2.700000 -13.950000 1.025000
v -2.700000 -13.650000 -0.025000
v -2.700000 -13.650000 1.025000
v -3.375000 -13.350000 -0.025000
v -3.375000 -13.350000 0.062500
v -2.700000 -13.350000 -0.025000
v -3.375000 -13.350000 0.150000
v -3.375000 -13.350000 0.237500
v -3.375000 -13.350000 0.325000
v -3.375000 -13.350000 0.412500
v -3.375000 -13.350000 0.500000
v -3.375000 -13.350000 0.587500
v -3.375000 -13.350000 0.675000
v -3.375000 -13.350000 0.762500
v -3.375000 -13.350000 0.850000
v -3.375000 -13.350000 0.937500
v -3.375000 -13.350000 1.025000
v -2.700000 -13.350000 1.025000
v -3.375000 -13.050000 -0.025000
v -3.375000 -13.050000 0.062500
v -2.700000 -13.050000 0.062500
v -2.700000 -13.050000 -0.025000
v -3.375000 -13.050000 0.150000
v -2.700000 -13.050000 0.150000
v -3.375000 -13.050000 0.237500
v -2.700000 -13.050000 0.237500
v -3.375000 -13.050000 0.325000
v -2.700000 -13.050000 0.325000
v -3.375000 -13.050000 0.412500
v -2.700000 -13.050000 0.412500
v -3.375000 -13.050000 0.500000
v -2.700000 -13.050000 0.500000
v -3.375000 -13.050000 0.587500
v -2.700000 -13.050000 0.587500
v -3.375000 -13.050000 0.675000
v -2.700000 -13.050000 0.675000
v -3.375000 -13.050000 0.762500
v -2.700000 -13.050000 0.762500
v -3.375000 -13.050000 0.850000
v -2.700000 -13.050000 0.850000
v -3.375000 -13.050000 0.937500
v -2.700000 -13.050000 0.937500
v -3.375000 -13.050000 1.025000
v -2.700000 -13.050000 1.025000
v -2.025000 -14.850000 -0.025000
v -2.025000 -14.850000 0.062500
v -2.025000 -14.550000 -0.025000
v -2.025000 -14.850000 0.150000
v -2.025000 -14.850000 0.237500
v -2.025000 -14.850000 0.325000
v -2.025000 -14.850000 0.412500
v -2.025000 -14.850000 0.500000
v -2.025000 -14.850000 0.587500
v -2.025000 -14.850000 0.675000
v -2.025000 -14.850000 0.762500
v -2.025000 -14.850000 0.850000
v -2.025000 -14.850000 0.937500
v -2.025000 -14.850000 1.025000
v -2.025000 -14.550000 1.025000
v -2.025000 -14.250000 -0.025000
v -2.025000 -14.250000 1.025000
v -2.025000 -13.950000 -0.025000
v -2.025000 -13.950000 1.025000
v -2.025000 -13.650000 -0.025000
v -2.025000 -13.650000 1.025000
v -2.025000 -13.350000 -0.025000
v -2.025000 -13.350000 1.025000
v -2.025000 -13.050000 -0.025000
v -2.025000 -13.050000 1.025000
v -2.700000 -12.750000 -0.025000
v -2.700000 -12.750000 0.062500
v -2.025000 -12.750000 -0.025000
v -2.700000 -12.750000 0.150000
v -2.700000 -12.750000 0.237500
v -2.700000 -12.750000 0.325000
v -2.700000 -12.750000 0.412500
v -2.700000 -12.750000 0.500000
v -2.700000 -12.750000 0.587500
v -2.700000 -12.750000 0.675000
v -2.700000 -12.750000 0.762500
v -2.700000 -12.750000 0.850000
v -2.700000 -12.750000 0.937500
v -2.700000 -12.750000 1.025000
v -2.025000 -12.750000 1.025000
v -2.700000 -12.450000 -0.025000
v -2.700000 -12.450000 0.062500
v -2.025000 -12.450000 0.062500
v -2.025000 -12.450000 -0.025000
v -2.700000 -12.450000 0.150000
v -2.025000 -12.450000 0.150000
v -2.700000 -12.450000 0.237500
v -2.025000 -12.450000 0.237500
v -2.700000 -12.450000 0.325000
v -2.025000 -12.450000 0.325000
v -2.700000 -12.450000 0.412500
v -2.025000 -12.450000 0.412500
v -2.700000 -12.450000 0.500000
v -2.025000 -12.450000 0.500000
v -2.700000 -12.450000 0.587500
v -2.025000 -12.450000 0.587500
v -2.700000 -12.450000 0.675000
v -2.025000 -12.450000 0.675000
v -2.700000 -12.450000 0.762500
v -2.025000 -12.450000 0.762500
v -2.700000 -12.450000 0.850000
v -2.025000 -12.450000 0.850000
v -2.700000 -12.450000 0.937500
v -2.025000 -12.450000 0.937500
v -2.700000 -12.450000 1.025000
v -2.025000 -12.450000 1.025000
v -1.350000 -14.850000 -0.025000
v -1.350000 -14.850000 0.062500
v -1.350000 -14.550000 -0.025000
v -1.350000 -14.850000 0.150000
v -1.350000 -14.850000 0.237500
v -1.350000 -14.850000 0.325000
v -1.350000 -14.850000 0.412500
v -1.350000 -14.850000 0.500000
v -1.350000 -14.850000 0.587500
v -1.350000 -14.850000 0.675000
v -1.350000 -14.850000 0.762500
v -1.350000 -14.850000 0.850000
v -1.350000 -14.850000 0.937500
v -1.350000 -14.850000 1.025000
v -1.350000 -14.550000 1.025000
v -1.350000 -14.250000 -0.025000
v -1.350000 -14.250000 1.025000
v -1.350000 -13.950000 -0.025000
v -1.350000 -13.950000 1.025000
v -1.350000 -13.650000 -0.025000
v -1.350000 -13.650000 1.025000
v -1.350000 -13.350000 -0.025000
v -1.350000 -13.350000 1.025000
v -1.350000 -13.050000 -0.025000
v -1.350000 -13.050000 1.025000
v -1.350000 -12.750000 -0.025000
v -1.350000 -12.750000 1.025000
v -1.350000 -12.450000 -0.025000
v -1.350000 -12.450000 1.025000
v -2.025000 -12.150000 -0.025000
v -2.025000 -12.150000 0.062500
v -1.350000 -12.150000 -0.025000
v -2.025000 -12.150000 0.150000
v -2.025000 -12.150000 0.237500
v -2.025000 -12.150000 0.325000
v -2.025000 -12.150000 0.412500
v -2.025000 -12.150000 0.500000
v -2.025000 -12.150000 0.587500
v -2.025000 -12.150000 0.675000
v -2.025000 -12.150000 0.762500
v -2.025000 -12.150000 0.850000
v -2.025000 -12.150000 0.937500
v -2.025000 -12.150000 1.025000
v -1.350000 -12.150000 1.025000
v -2.025000 -11.850000 -0.025000
v -2.025000 -11.850000 0.062500
v -1.350000 -11.850000 -0.025000
v -2.025000 -11.850000 0.150000
v -2.025000 -11.850000 0.237500
v -2.025000 -11.850000 0.325000
v -2.025000 -11.850000 0.412500
v -2.025000 -11.850000 0.500000
v -2.025000 -11.850000 0.587500
v -2.025000 -11.850000 0.675000
v -2.025000 -11.850000 0.762500
v -2.025000 -11.850000 0.850000
v -2.025000 -11.850000 0.937500
v -2.025000 -11.850000 1.025000
v -1.350000 -11.850000 1.025000
v -2.025000 -11.550000 -0.025000
v -2.025000 -11.550000 0.062500
v -1.350000 -11.550000 0.062500
v -1.350000 -11.550000 -0.025000
v -2.025000 -11.550000 0.150000
v -1.350000 -11.550000 0.150000
v -2.025000 -11.550000 0.237500
v -1.350000 -11.550000 0.237500
v -2.025000 -11.550000 0.325000
v -1.350000 -11.550000 0.325000
v -2.025000 -11.550000 0.412500
v -1.350000 -11.550000 0.412500
v -2.025000 -11.550000 0.500000
v -1.350000 -11.550000 0.500000
v -2.025000 -11.550000 0.587500
v -1.350000 -11.550000 0.587500
v -2.025000 -11.550000 0.675000
v -1.350000 -11.550000 0.675000
v -2.025000 -11.550000 0.762500
v -1.350000 -11.550000 0.762500
v -2.025000 -11.550000 0.850000
v -1.350000 -11.550000 0.850000
v -2.025000 -11.550000 0.937500
v -1.350000 -11.550000 0.937500
v -2.025000 -11.550000 1.025000
v -1.350000 -11.550000 1.025000
v -0.675000 -14.850000 -0.025000
v -0.675000 -14.850000 0.062500
v -0.675000 -14.550000 -0.025000
v -0.675000 -14.850000 0.150000
v -0.675000 -14.850000 0.237500
v -0.675000 -14.850000 0.325000
v -0.675000 -14.850000 0.412500
v -0.675000 -14.850000 0.500000
v -0.675000 -14.850000 0.587500
v -0.675000 -14.850000 0.675000
v -0.675000 -14.850000 0.762500
v -0.675000 -14.850000 0.850000
v -0.675000 -14.850000 0.937500
v -0.675000 -14.850000 1.025000
v -0.675000 -14.550000 1.025000
v -0.675000 -14.250000 -0.025000
v -0.675000 -14.250000 1.025000
v -0.675000 -13.950000 -0.025000
v -0.675000 -13.950000 1.025000
v -0.675000 -13.650000 -0.025000
v -0.675000 -13.650000 1.025000
v -0.675000 -13.350000 -0.025000
v -0.675000 -13.350000 1.025000
v -0.675000 -13.050000 -0.025000
v -0.675000 -13.050000 1.025000
v -0.675000 -12.750000 -0.025000
v -0.675000 -12.750000 1.025000
v -0.675000 -12.450000 -0.025000
v -0.675000 -12.450000 1.025000
v -0.675000 -12.150000 -0.025000
v -0.675000 -12.150000 1.025000
v -0.675000 -11.850000 -0.025000
v -0.675000 -11.850000 1.025000
v -0.675000 -11.550000 -0.025000
v -0.675000 -11.550000 1.025000
v -1.350000 -11.250000 -0.025000
v -1.350000 -11.250000 0.062500
v -0.675000 -11.250000 -0.025000
v -1.350000 -11.250000 0.150000
v -1.350000 -11.250000 0.237500
v -1.350000 -11.250000 0.325000
v -1.350000 -11.250000 0.412500
v -1.350000 -11.250000 0.500000
v -1.350000 -11.250000 0.587500
v -1.350000 -11.250000 0.675000
v -1.350000 -11.250000 0.762500
v -1.350000 -11.250000 0.850000
v -1.350000 -11.250000 0.937500
v -1.350000 -11.250000 1.025000
v -0.675000 -11.250000 1.025000
v -1.350000 -10.950000 -0.025000
v -1.350000 -10.950000 0.062500
v -0.675000 -10.950000 0.062500
v -0.675000 -10.950000 -0.025000
v -1.350000 -10.950000 0.150000
v -0.675000 -10.950000 0.150000
v -1.350000 -10.950000 0.237500
v -0.675000 -10.950000 0.237500
v -1.350000 -10.950000 0.325000
v -0.675000 -10.950000 0.325000
v -1.350000 -10.950000 0.412500
v -0.675000 -10.950000 0.412500
v -1.350000 -10.950000 0.500000
v -0.675000 -10.950000 0.500000
v -1.350000 -10.950000 0.587500
v -0.675000 -10.950000 0.587500
v -1.350000 -10.950000 0.675000
v -0.675000 -10.950000 0.675000
v -1.350000 -10.950000 0.762500
v -0.675000 -10.950000 0.762500
v -1.350000 -10.950000 0.850000
v -0.675000 -10.950000 0.850000
v -1.350000 -10.950000 0.937500
v -0.675000 -10.950000 0.937500
v -1.350000 -10.950000 1.025000
v -0.675000 -10.950000 1.025000
v 0.000000 -14.850000 -0.025000
v 0.000000 -14.850000 0.062500
v 0.000000 -14.550000 -0.025000
v 0.000000 -14.850000 0.150000
v 0.000000 -14.850000 0.237500
v 0.000000 -14.850000 0.325000
v 0.000000 -14.850000 0.412500
v 0.000000 -14.850000 0.500000
v 0.000000 -14.850000 0.587500
v 0.000000 -14.850000 0.675000
v 0.000000 -14.850000 0.762500
v 0.000000 -14.850000 0.850000
v 0.000000 -14.850000 0.937500
v 0.000000 -14.850000 1.025000
v 0.000000 -14.550000 1.025000
v 0.000000 -14.250000 -0.025000
v 0.000000 -14.250000 1.025000
v 0.000000 -13.950000 -0.025000
v 0.000000 -13.950000 1.025000
v 0.000000 -13.650000 -0.025000
v 0.000000 -13.650000 1.025000
v 0.000000 -13.350000 -0.025000
v 0.000000 -13.350000 1.025000
v 0.000000 -13.050000 -0.025000
v 0.000000 -13.050000 1.025000
v 0.000000 -12.750000 -0.025000
v 0.000000 -12.750000 1.025000
v 0.000000 -12.450000 -0.025000
v 0.000000 -12.450000 1.025000
v 0.000000 -12.150000 -0.025000
v 0.000000 -12.150000 1.025000
v 0.000000 -11.850000 -0.025000
v 0.000000 -11.850000 1.025000
v 0.000000 -11.550000 -0.025000
v 0.000000 -11.550000 1.025000
v 0.000000 -11.250000 -0.025000
v 0.000000 -11.250000 1.025000
v 0.000000 -10.950000 -0.025000
v 0.000000 -10.950000 1.025000
v -0.675000 -10.650000 -0.025000
v -0.675000 -10.650000 0.062500
v 0.000000 -10.650000 -0.025000
v -0.675000 -10.650000 0.150000
v -0.675000 -10.650000 0.237500
v -0.675000 -10.650000 0.325000
v -0.675000 -10.650000 0.412500
v -0.675000 -10.650000 0.500000
v -0.675000 -10.650000 0.587500
v -0.675000 -10.650000 0.675000
v -0.675000 -10.650000 0.762500
v -0.675000 -10.650000 0.850000
v -0.675000 -10.650000 0.937500
v -0.675000 -10.650000 1.025000
v 0.000000 -10.650000 1.025000
v -0.675000 -10.350000 -0.025000
v -0.675000 -10.350000 0.062500
v 0.000000 -10.350000 0.062500
v 0.000000 -10.350000 -0.025000
v -0.675000 -10.350000 0.150000
v 0.000000 -10.350000 0.150000
v -0.675000 -10.350000 0.237500
v 0.000000 -10.350000 0.237500
v -0.675000 -10.350000 0.325000
v 0.000000 -10.350000 0.325000
v -0.675000 -10.350000 0.412500
v 0.000000 -10.350000 0.412500
v -0.675000 -10.350000 0.500000
v 0.000000 -10.350000 0.500000
v -0.675000 -10.350000 0.587500
v 0.000000 -10.350000 0.587500
v -0.675000 -10.350000 0.675000
v 0.000000 -10.350000 0.675000
v -0.675000 -10.350000 0.762500
v 0.000000 -10.350000 0.762500
v -0.675000 -10.350000 0.850000
v 0.000000 -10.350000 0.850000
v -0.675000 -10.350000 0.937500
v 0.000000 -10.350000 0.937500
v -0.675000 -10.350000 1.025000
v 0.000000 -10.350000 1.025000
v 0.675000 -14.850000 -0.025000
v 0.675000 -14.850000 0.062500
v 0.675000 -14.550000 -0.025000
v 0.675000 -14.850000 0.150000
v 0.675000 -14.850000 0.237500
v 0.675000 -14.850000 0.325000
v 0.675000 -14.850000 0.412500
v 0.675000 -14.850000 0.500000
v 0.675000 -14.850000 0.587500
v 0.675000 -14.850000 0.675000
v 0.675000 -14.850000 0.762500
v 0.675000 -14.850000 0.850000
v 0.675000 -14.850000 0.937500
v 0.675000 -14.850000 1.025000
v 0.675000 -14.550000 1.025000
v 0.675000 -14.250000 -0.025000
v 0.675000 -14.250000 1.025000
v 0.675000 -13.950000 -0.025000
v 0.675000 -13.950000 1.025000
v 0.675000 -13.650000 -0.025000
v 0.675000 -13.650000 1.025000
v 0.675000 -13.350000 -0.025000
v 0.675000 -13.350000 1.025000
v 0.675000 -13.050000 -0.025000
v 0.675000 -13.050000 1.025000
v 0.675000 -12.750000 -0.025000
v 0.675000 -12.750000 1.025000
v 0.675000 -12.450000 -0.025000
v 0.675000 -12.450000 1.025000
v 0.675000 -12.150000 -0.025000
v 0.675000 -12.150000 1.025000
v 0.675000 -11.850000 -0.025000
v 0.675000 -11.850000 1.025000
v 0.675000 -11.550000 -0.025000
v 0.675000 -11.550000 1.025000
v 0.675000 -11.250000 -0.025000
v 0.675000 -11.250000 1.025000
v 0.675000 -10.950000 -0.025000
v 0.675000 -10.950000 1.025000
v 0.675000 -10.950000 0.062500
v 0.675000 -10.650000 0.062500
v 0.675000 -10.650000 -0.025000
v 0.675000 -10.950000 0.150000
v 0.675000 -10.650000 0.150000
v 0.675000 -10.950000 0.237500
v 0.675000 -10.650000 0.237500
v 0.675000 -10.950000 0.325000
v 0.675000 -10.650000 0.325000
v 0.675000 -10.950000 0.412500
v 0.675000 -10.650000 0.412500
v 0.675000 -10.950000 0.500000
v 0.675000 -10.650000 0.500000
v 0.675000 -10.950000 0.587500
v 0.675000 -10.650000 0.587500
v 0.675000 -10.950000 0.675000
v 0.675000 -10.650000 0.675000
v 0.675000 -10.950000 0.762500
v 0.675000 -10.650000 0.762500
v 0.675000 -10.950000 0.850000
v 0.675000 -10.650000 0.850000
v 0.675000 -10.950000 0.937500
v 0.675000 -10.650000 0.937500
v 0.675000 -10.650000 1.025000
v 0.675000 -10.350000 0.062500
v 0.675000 -10.350000 -0.025000
v 0.675000 -10.350000 0.150000
v 0.675000 -10.350000 0.237500
v 0.675000 -10.350000 0.325000
v 0.675000 -10.350000 0.412500
v 0.675000 -10.350000 0.500000
v 0.675000 -10.350000 0.587500
v 0.675000 -10.350000 0.675000
v 0.675000 -10.350000 0.762500
v 0.675000 -10.350000 0.850000
v 0.675000 -10.350000 0.937500
v 0.675000 -10.350000 1.025000
v 1.350000 -14.850000 -0.025000
v 1.350000 -14.850000 0.062500
v 1.350000 -14.550000 -0.025000
v 1.350000 -14.850000 0.150000
v 1.350000 -14.850000 0.237500
v 1.350000 -14.850000 0.325000
v 1.350000 -14.850000 0.412500
v 1.350000 -14.850000 0.500000
v 1.350000 -14.850000 0.587500
v 1.350000 -14.850000 0.675000
v 1.350000 -14.850000 0.762500
v 1.350000 -14.850000 0.850000
v 1.350000 -14.850000 0.937500
v 1.350000 -14.850000 1.025000
v 1.350000 -14.550000 1.025000
v 1.350000 -14.250000 -0.025000
v 1.350000 -14.250000 1.025000
v 1.350000 -13.950000 -0.025000
v 1.350000 -13.950000 1.025000
v 1.350000 -13.650000 -0.025000
v 1.350000 -13.650000 1.025000
v 1.350000 -13.350000 -0.025000
v 1.350000 -13.350000 1.025000
v 1.350000 -13.050000 -0.025000
v 1.350000 -13.050000 1.025000
v 1.350000 -12.750000 -0.025000
v 1.350000 -12.750000 1.025000
v 1.350000 -12.450000 -0.025000
v 1.350000 -12.450000 1.025000
v 1.350000 -12.150000 -0.025000
v 1.350000 -12.150000 1.025000
v 1.350000 -11.850000 -0.025000
v 1.350000 -11.850000 1.025000
v 1.350000 -11.550000 -0.025000
v 1.350000 -11.550000 1.025000
v 1.350000 -11.550000 0.062500
v 1.350000 -11.250000 0.062500
v 1.350000 -11.250000 -0.025000
v 1.350000 -11.550000 0.150000
v 1.350000 -11.250000 0.150000
v 1.350000 -11.550000 0.237500
v 1.350000 -11.250000 0.237500
v 1.350000 -11.550000 0.325000
v 1.350000 -11.250000 0.325000
v 1.350000 -11.550000 0.412500
v 1.350000 -11.250000 0.412500
v 1.350000 -11.550000 0.500000
v 1.350000 -11.250000 0.500000
v 1.350000 -11.550000 0.587500
v 1.350000 -11.250000 0.587500
v 1.350000 -11.550000 0.675000
v 1.350000 -11.250000 0.675000
v 1.350000 -11.550000 0.762500
v 1.350000 -11.250000 0.762500
v 1.350000 -11.550000 0.850000
v 1.350000 -11.250000 0.850000
v 1.350000 -11.550000 0.937500
v 1.350000 -11.250000 0.937500
v 1.350000 -11.250000 1.025000
v 1.350000 -10.950000 0.062500
v 1.350000 -10.950000 -0.025000
v 1.350000 -10.950000 0.150000
v 1.350000 -10.950000 0.237500
v 1.350000 -10.950000 0.325000
v 1.350000 -10.950000 0.412500
v 1.350000 -10.950000 0.500000
v 1.350000 -10.950000 0.587500
v 1.350000 -10.950000 0.675000
v 1.350000 -10.950000 0.762500
v 1.350000 -10.950000 0.850000
v 1.350000 -10.950000 0.937500
v 1.350000 -10.950000 1.025000
v 2.025000 -14.850000 -0.025000
v 2.025000 -14.850000 0.062500
v 2.025000 -14.550000 -0.025000
v 2.025000 -14.850000 0.150000
v 2.025000 -14.850000 0.237500
v 2.025000 -14.850000 0.325000
v 2.025000 -14.850000 0.412500
v 2.025000 -14.850000 0.500000
v 2.025000 -14.850000 0.587500
v 2.025000 -14.850000 0.675000
v 2.025000 -14.850000 0.762500
v 2.025000 -14.850000 0.850000
v 2.025000 -14.850000 0.937500
v 2.025000 -14.850000 1.025000
v 2.025000 -14.550000 1.025000
v 2.025000 -14.250000 -0.025000
v 2.025000 -14.250000 1.025000
v 2.025000 -13.950000 -0.025000
v 2.025000 -13.950000 1.025000
v 2.025000 -13.650000 -0.025000
v 2.025000 -13.650000 1.025000
v 2.025000 -13.350000 -0.025000
v 2.025000 -13.350000 1.025000
v 2.025000 -13.050000 -0.025000
v 2.025000 -13.050000 1.025000
v 2.025000 -12.750000 -0.025000
v 2.025000 -12.750000 1.025000
v 2.025000 -12.450000 -0.025000
v 2.025000 -12.450000 1.025000
v 2.025000 -12.450000 0.062500
v 2.025000 -12.150000 0.062500
v 2.025000 -12.150000 -0.025000
v 2.025000 -12.450000 0.150000
v 2.025000 -12.150000 0.150000
v 2.025000 -12.450000 0.237500
v 2.025000 -12.150000 0.237500
v 2.025000 -12.450000 0.325000
v 2.025000 -12.150000 0.325000
v 2.025000 -12.450000 0.412500
v 2.025000 -12.150000 0.412500
v 2.025000 -12.450000 0.500000
v 2.025000 -12.150000 0.500000
v 2.025000 -12.450000 0.587500
v 2.025000 -12.150000 0.587500
v 2.025000 -12.450000 0.675000
v 2.025000 -12.150000 0.675000
v 2.025000 -12.450000 0.762500
v 2.025000 -12.150000 0.762500
v 2.025000 -12.450000 0.850000
v 2.025000 -12.150000 0.850000
v 2.025000 -12.450000 0.937500
v 2.025000 -12.150000 0.937500
v 2.025000 -12.150000 1.025000
v 2.025000 -11.850000 0.062500
v 2.025000 -11.850000 -0.025000
v 2.025000 -11.850000 0.150000
v 2.025000 -11.850000 0.237500
v 2.025000 -11.850000 0.325000
v 2.025000 -11.850000 0.412500
v 2.025000 -11.850000 0.500000
v 2.025000 -11.850000 0.587500
v 2.025000 -11.850000 0.675000
v 2.025000 -11.850000 0.762500
v 2.025000 -11.850000 0.850000
v 2.025000 -11.850000 0.937500
v 2.025000 -11.850000 1.025000
v 2.025000 -11.550000 0.062500
v 2.025000 -11.550000 -0.025000
v 2.025000 -11.550000 0.150000
v 2.025000 -11.550000 0.237500
v 2.025000 -11.550000 0.325000
v 2.025000 -11.550000 0.412500
v 2.025000 -11.550000 0.500000
v 2.025000 -11.550000 0.587500
v 2.025000 -11.550000 0.675000
v 2.025000 -11.550000 0.762500
v 2.025000 -11.550000 0.850000
v 2.025000 -11.550000 0.937500
v 2.025000 -11.550000 1.025000
v 2.700000 -14.850000 -0.025000
v 2.700000 -14.850000 0.062500
v 2.700000 -14.550000 -0.025000
v 2.700000 -14.850000 0.150000
v 2.700000 -14.850000 0.237500
v 2.700000 -14.850000 0.325000
v 2.700000 -14.850000 0.412500
v 2.700000 -14.850000 0.500000
v 2.700000 -14.850000 0.587500
v 2.700000 -14.850000 0.675000
v 2.700000 -14.850000 0.762500
v 2.700000 -14.850000 0.850000
v 2.700000 -14.850000 0.937500
v 2.700000 -14.850000 1.025000
v 2.700000 -14.550000 1.025000
v 2.700000 -14.250000 -0.025000
v 2.700000 -14.250000 1.025000
v 2.700000 -13.950000 -0.025000
v 2.700000 -13.950000 1.025000
v 2.700000 -13.650000 -0.025000
v 2.700000 -13.650000 1.025000
v 2.700000 -13.350000 -0.025000
v 2.700000 -13.350000 1.025000
v 2.700000 -13.050000 -0.025000
v 2.700000 -13.050000 1.025000
v 2.700000 -13.050000 0.062500
v 2.700000 -12.750000 0.062500
v 2.700000 -12.750000 -0.025000
v 2.700000 -13.050000 0.150000
v 2.700000 -12.750000 0.150000
v 2.700000 -13.050000 0.237500
v 2.700000 -12.750000 0.237500
v 2.700000 -13.050000 0.325000
v 2.700000 -12.750000 0.325000
v 2.700000 -13.050000 0.412500
v 2.700000 -12.750000 0.412500
v 2.700000 -13.050000 0.500000
v 2.700000 -12.750000 0.500000
v 2.700000 -13.050000 0.587500
v 2.700000 -12.750000 0.587500
v 2.700000 -13.050000 0.675000
v 2.700000 -12.750000 0.675000
v 2.700000 -13.050000 0.762500
v 2.700000 -12.750000 0.762500
v 2.700000 -13.050000 0.850000
v 2.700000 -12.750000 0.850000
v 2.700000 -13.050000 0.937500
v 2.700000 -12.750000 0.937500
v 2.700000 -12.750000 1.025000
v 2.700000 -12.450000 0.062500
v 2.700000 -12.450000 -0.025000
v 2.700000 -12.450000 0.150000
v 2.700000 -12.450000 0.237500
v 2.700000 -12.450000 0.325000
v 2.700000 -12.450000 0.412500
v 2.700000 -12.450000 0.500000
v 2.700000 -12.450000 0.587500
v 2.700000 -12.450000 0.675000
v 2.700000 -12.450000 0.762500
v 2.700000 -12.450000 0.850000
v 2.700000 -12.450000 0.937500
v 2.700000 -12.450000 1.025000
v 3.375000 -14.850000 -0.025000
v 3.375000 -14.850000 0.062500
v 3.375000 -14.550000 -0.025000
v 3.375000 -14.850000 0.150000
v 3.375000 -14.850000 0.237500
v 3.375000 -14.850000 0.325000
v 3.375000 -14.850000 0.412500
v 3.375000 -14.850000 0.500000
v 3.375000 -14.850000 0.587500
v 3.375000 -14.850000 0.675000
v 3.375000 -14.850000 0.762500
v 3.375000 -14.850000 0.850000
v 3.375000 -14.850000 0.937500
v 3.375000 -14.850000 1.025000
v 3.375000 -14.550000 1.025000
v 3.375000 -14.250000 -0.025000
v 3.375000 -14.250000 1.025000
v 3.375000 -13.950000 -0.025000
v 3.375000 -13.950000 1.025000
v 3.375000 -13.650000 -0.025000
v 3.375000 -13.650000 1.025000
v 3.375000 -13.650000 0.062500
v 3.375000 -13.350000 0.062500
v 3.375000 -13.350000 -0.025000
v 3.375000 -13.650000 0.150000
v 3.375000 -13.350000 0.150000
v 3.375000 -13.650000 0.237500
v 3.375000 -13.350000 0.237500
v 3.375000 -13.650000 0.325000
v 3.375000 -13.350000 0.325000
v 3.375000 -13.650000 0.412500
v 3.375000 -13.350000 0.412500
v 3.375000 -13.650000 0.500000
v 3.375000 -13.350000 0.500000
v 3.375000 -13.650000 0.587500
v 3.375000 -13.350000 0.587500
v 3.375000 -13.650000 0.675000
v 3.375000 -13.350000 0.675000
v 3.375000 -13.650000 0.762500
v 3.375000 -13.350000 0.762500
v 3.375000 -13.650000 0.850000
v 3.375000 -13.350000 0.850000
v 3.375000 -13.650000 0.937500
v 3.375000 -13.350000 0.937500
v 3.375000 -13.350000 1.025000
v 3.375000 -13.050000 0.062500
v 3.375000 -13.050000 -0.025000
v 3.375000 -13.050000 0.150000
v 3.375000 -13.050000 0.237500
v 3.375000 -13.050000 0.325000
v 3.375000 -13.050000 0.412500
v 3.375000 -13.050000 0.500000
v 3.375000 -13.050000 0.587500
v 3.375000 -13.050000 0.675000
v 3.375000 -13.050000 0.762500
v 3.375000 -13.050000 0.850000
v 3.375000 -13.050000 0.937500
v 3.375000 -13.050000 1.025000
v 4.050000 -14.850000 -0.025000
v 4.050000 -14.850000 0.062500
v 4.050000 -14.550000 -0.025000
v 4.050000 -14.850000 0.150000
v 4.050000 -14.850000 0.237500
v 4.050000 -14.850000 0.325000
v 4.050000 -14.850000 0.412500
v 4.050000 -14.850000 0.500000
v 4.050000 -14.850000 0.587500
v 4.050000 -14.850000 0.675000
v 4.050000 -14.850000 0.762500
v 4.050000 -14.850000 0.850000
v 4.050000 -14.850000 0.937500
v 4.050000 -14.850000 1.025000
v 4.050000 -14.550000 1.025000
v 4.050000 -14.250000 -0.025000
v 4.050000 -14.250000 1.025000
v 4.050000 -14.250000 0.062500
v 4.050000 -13.950000 0.062500
v 4.050000 -13.950000 -0.025000
v 4.050000 -14.250000 0.150000
v 4.050000 -13.950000 0.150000
v 4.050000 -14.250000 0.237500
v 4.050000 -13.950000 0.237500
v 4.050000 -14.250000 0.325000
v 4.050000 -13.950000 0.325000
v 4.050000 -14.250000 0.412500
v 4.050000 -13.950000 0.412500
v 4.050000 -14.250000 0.500000
v 4.050000 -13.950000 0.500000
v 4.050000 -14.250000 0.587500
v 4.050000 -13.950000 0.587500
v 4.050000 -14.250000 0.675000
v 4.050000 -13.950000 0.675000
v 4.050000 -14.250000 0.762500
v 4.050000 -13.950000 0.762500
v 4.050000 -14.250000 0.850000
v 4.050000 -13.950000 0.850000
v 4.050000 -14.250000 0.937500
v 4.050000 -13.950000 0.937500
v 4.050000 -13.950000 1.025000
v 4.050000 -13.650000 0.062500
v 4.050000 -13.650000 -0.025000
v 4.050000 -13.650000 0.150000
v 4.050000 -13.650000 0.237500
v 4.050000 -13.650000 0.325000
v 4.050000 -13.650000 0.412500
v 4.050000 -13.650000 0.500000
v 4.050000 -13.650000 0.587500
v 4.050000 -13.650000 0.675000
v 4.050000 -13.650000 0.762500
v 4.050000 -13.650000 0.850000
v 4.050000 -13.650000 0.937500
v 4.050000 -13.650000 1.025000
v 4.725000 -14.850000 -0.025000
v 4.725000 -14.850000 0.062500
v 4.725000 -14.550000 0.062500
v 4.725000 -14.550000 -0.025000
v 4.725000 -14.850000 0.150000
v 4.725000 -14.550000 0.150000
v 4.725000 -14.850000 0.237500
v 4.725000 -14.550000 0.237500
v 4.725000 -14.850000 0.325000
v 4.725000 -14.550000 0.325000
v 4.725000 -14.850000 0.412500
v 4.725000 -14.550000 0.412500
v 4.725000 -14.850000 0.500000
v 4.725000 -14.550000 0.500000
v 4.725000 -14.850000 0.587500
v 4.725000 -14.550000 0.587500
v 4.725000 -14.850000 0.675000
v 4.725000 -14.550000 0.675000
v 4.725000 -14.850000 0.762500
v 4.725000 -14.550000 0.762500
v 4.725000 -14.850000 0.850000
v 4.725000 -14.550000 0.850000
v 4.725000 -14.850000 0.937500
v 4.725000 -14.550000 0.937500
v 4.725000 -14.850000 1.025000
v 4.725000 -14.550000 1.025000
v 4.725000 -14.250000 0.062500
v 4.725000 -14.250000 -0.025000
v 4.725000 -14.250000 0.150000
v 4.725000 -14.250000 0.237500
v 4.725000 -14.250000 0.325000
v 4.725000 -14.250000 0.412500
v 4.725000 -14.250000 0.500000
v 4.725000 -14.250000 0.587500
v 4.725000 -14.250000 0.675000
v 4.725000 -14.250000 0.762500
v 4.725000 -14.250000 0.850000
v 4.725000 -14.250000 0.937500
v 4.725000 -14.250000 1.025000
f 1 2 3
f 1 3 4
f 1 5 6
f 1 6 4
f 1 2 7
f 1 7 5
f 4 3 8
f 4 8 9
f 4 6 10
f 4 10 9
f 9 8 11
f 9 11 12
f 9 10 13
f 9 13 12
f 12 11 14
f 12 14 15
f 12 13 16
f 12 16 15
f 15 14 17
f 15 17 18
f 15 16 19
f 15 19 18
f 18 17 20
f 18 20 21
f 18 19 22
f 18 22 21
f 21 20 23
f 21 23 24
f 21 22 25
f 21 25 24
f 24 23 26
f 24 26 27
f 24 25 28
f 24 28 27
f 27 26 29
f 27 29 30
f 27 28 31
f 27 31 30
f 30 29 32
f 30 32 33
f 30 31 34
f 30 34 33
f 33 32 35
f 33 35 36
f 33 34 37
f 33 37 36
f 36 35 38
f 36 38 39
f 36 37 40
f 36 40 39
f 39 40 41
f 39 41 38
f 2 42 43
f 2 43 3
f 42 43 44
f 42 44 45
f 2 42 45
f 2 45 7
f 3 43 46
f 3 46 8
f 43 46 47
f 43 47 44
f 8 46 48
f 8 48 11
f 46 48 49
f 46 49 47
f 11 48 50
f 11 50 14
f 48 50 51
f 48 51 49
f 14 50 52
f 14 52 17
f 50 52 53
f 50 53 51
f 17 52 54
f 17 54 20
f 52 54 55
f 52 55 53
f 20 54 56
f 20 56 23
f 54 56 57
f 54 57 55
f 23 56 58
f 23 58 26
f 56 58 59
f 56 59 57
f 26 58 60
f 26 60 29
f 58 60 61
f 58 61 59
f 29 60 62
f 29 62 32
f 60 62 63
f 60 63 61
f 32 62 64
f 32 64 35
f 62 64 65
f 62 65 63
f 35 64 66
f 35 66 38
f 64 66 67
f 64 67 65
f 38 41 67
f 38 67 66
f 5 68 69
f 5 69 6
f 5 7 70
f 5 70 68
f 6 69 71
f 6 71 10
f 10 71 72
f 10 72 13
f 13 72 73
f 13 73 16
f 16 73 74
f 16 74 19
f 19 74 75
f 19 75 22
f 22 75 76
f 22 76 25
f 25 76 77
f 25 77 28
f 28 77 78
f 28 78 31
f 31 78 79
f 31 79 34
f 34 79 80
f 34 80 37
f 37 80 81
f 37 81 40
f 40 81 82
f 40 82 41
f 7 45 83
f 7 83 70
f 41 82 84
f 41 84 67
f 45 85 86
f 45 86 44
f 45 85 87
f 45 87 83
f 44 86 88
f 44 88 47
f 47 88 89
f 47 89 49
f 49 89 90
f 49 90 51
f 51 90 91
f 51 91 53
f 53 91 92
f 53 92 55
f 55 92 93
f 55 93 57
f 57 93 94
f 57 94 59
f 59 94 95
f 59 95 61
f 61 95 96
f 61 96 63
f 63 96 97
f 63 97 65
f 65 97 98
f 65 98 67
f 67 84 99
f 67 99 98
f 85 100 101
f 85 101 86
f 100 101 102
f 100 102 103
f 85 100 103
f 85 103 87
f 86 101 104
f 86 104 88
f 101 104 105
f 101 105 102
f 88 104 106
f 88 106 89
f 104 106 107
f 104 107 105
f 89 106 108
f 89 108 90
f 106 108 109
f 106 109 107
f 90 108 110
f 90 110 91
f 108 110 111
f 108 111 109
f 91 110 112
f 91 112 92
f 110 112 113
f 110 113 111
f 92 112 114
f 92 114 93
f 112 114 115
f 112 115 113
f 93 114 116
f 93 116 94
f 114 116 117
f 114 117 115
f 94 116 118
f 94 118 95
f 116 118 119
f 116 119 117
f 95 118 120
f 95 120 96
f 118 120 121
f 118 121 119
f 96 120 122
f 96 122 97
f 120 122 123
f 120 123 121
f 97 122 124
f 97 124 98
f 122 124 125
f 122 125 123
f 98 99 125
f 98 125 124
f 68 126 127
f 68 127 69
f 68 70 128
f 68 128 126
f 69 127 129
f 69 129 71
f 71 129 130
f 71 130 72
f 72 130 131
f 72 131 73
f 73 131 132
f 73 132 74
f 74 132 133
f 74 133 75
f 75 133 134
f 75 134 76
f 76 134 135
f 76 135 77
f 77 135 136
f 77 136 78
f 78 136 137
f 78 137 79
f 79 137 138
f 79 138 80
f 80 138 139
f 80 139 81
f 81 139 140
f 81 140 82
f 70 83 141
f 70 141 128
f 82 140 142
f 82 142 84
f 83 87 143
f 83 143 141
f 84 142 144
f 84 144 99
f 87 103 145
f 87 145 143
f 99 144 146
f 99 146 125
f 103 147 148
f 103 148 102
f 103 147 149
f 103 149 145
f 102 148 150
f 102 150 105
f 105 150 151
f 105 151 107
f 107 151 152
f 107 152 109
f 109 152 153
f 109 153 111
f 111 153 154
f 111 154 113
f 113 154 155
f 113 155 115
f 115 155 156
f 115 156 117
f 117 156 157
f 117 157 119
f 119 157 158
f 119 158 121
f 121 158 159
f 121 159 123
f 123 159 160
f 123 160 125
f 125 146 161
f 125 161 160
f 147 162 163
f 147 163 148
f 162 163 164
f 162 164 165
f 147 162 165
f 147 165 149
f 148 163 166
f 148 166 150
f 163 166 167
f 163 167 164
f 150 166 168
f 150 168 151
f 166 168 169
f 166 169 167
f 151 168 170
f 151 170 152
f 168 170 171
f 168 171 169
f 152 170 172
f 152 172 153
f 170 172 173
f 170 173 171
f 153 172 174
f 153 174 154
f 172 174 175
f 172 175 173
f 154 174 176
f 154 176 155
f 174 176 177
f 174 177 175
f 155 176 178
f 155 178 156
f 176 178 179
f 176 179 177
f 156 178 180
f 156 180 157
f 178 180 181
f 178 181 179
f 157 180 182
f 157 182 158
f 180 182 183
f 180 183 181
f 158 182 184
f 158 184 159
f 182 184 185
f 182 185 183
f 159 184 186
f 159 186 160
f 184 186 187
f 184 187 185
f 160 161 187
f 160 187 186
f 126 188 189
f 126 189 127
f 126 128 190
f 126 190 188
f 127 189 191
f 127 191 129
f 129 191 192
f 129 192 130
f 130 192 193
f 130 193 131
f 131 193 194
f 131 194 132
f 132 194 195
f 132 195 133
f 133 195 196
f 133 196 134
f 134 196 197
f 134 197 135
f 135 197 198
f 135 198 136
f 136 198 199
f 136 199 137
f 137 199 200
f 137 200 138
f 138 200 201
f 138 201 139
f 139 201 202
f 139 202 140
f 128 141 203
f 128 203 190
f 140 202 204
f 140 204 142
f 141 143 205
f 141 205 203
f 142 204 206
f 142 206 144
f 143 145 207
f 143 207 205
f 144 206 208
f 144 208 146
f 145 149 209
f 145 209 207
f 146 208 210
f 146 210 161
f 149 165 211
f 149 211 209
f 161 210 212
f 161 212 187
f 165 213 214
f 165 214 164
f 165 213 215
f 165 215 211
f 164 214 216
f 164 216 167
f 167 216 217
f 167 217 169
f 169 217 218
f 169 218 171
f 171 218 219
f 171 219 173
f 173 219 220
f 173 220 175
f 175 220 221
f 175 221 177
f 177 221 222
f 177 222 179
f 179 222 223
f 179 223 181
f 181 223 224
f 181 224 183
f 183 224 225
f 183 225 185
f 185 225 226
f 185 226 187
f 187 212 227
f 187 227 226
f 213 228 229
f 213 229 214
f 228 229 230
f 228 230 231
f 213 228 231
f 213 231 215
f 214 229 232
f 214 232 216
f 229 232 233
f 229 233 230
f 216 232 234
f 216 234 217
f 232 234 235
f 232 235 233
f 217 234 236
f 217 236 218
f 234 236 237
f 234 237 235
f 218 236 238
f 218 238 219
f 236 238 239
f 236 239 237
f 219 238 240
f 219 240 220
f 238 240 241
f 238 241 239
f 220 240 242
f 220 242 221
f 240 242 243
f 240 243 241
f 221 242 244
f 221 244 222
f 242 244 245
f 242 245 243
f 222 244 246
f 222 246 223
f 244 246 247
f 244 247 245
f 223 246 248
f 223 248 224
f 246 248 249
f 246 249 247
f 224 248 250
f 224 250 225
f 248 250 251
f 248 251 249
f 225 250 252
f 225 252 226
f 250 252 253
f 250 253 251
f 226 227 253
f 226 253 252
f 188 254 255
f 188 255 189
f 188 190 256
f 188 256 254
f 189 255 257
f 189 257 191
f 191 257 258
f 191 258 192
f 192 258 259
f 192 259 193
f 193 259 260
f 193 260 194
f 194 260 261
f 194 261 195
f 195 261 262
f 195 262 196
f 196 262 263
f 196 263 197
f 197 263 264
f 197 264 198
f 198 264 265
f 198 265 199
f 199 265 266
f 199 266 200
f 200 266 267
f 200 267 201
f 201 267 268
f 201 268 202
f 190 203 269
f 190 269 256
f 202 268 270
f 202 270 204
f 203 205 271
f 203 271 269
f 204 270 272
f 204 272 206
f 205 207 273
f 205 273 271
f 206 272 274
f 206 274 208
f 207 209 275
f 207 275 273
f 208 274 276
f 208 276 210
f 209 211 277
f 209 277 275
f 210 276 278
f 210 278 212
f 211 215 279
f 211 279 277
f 212 278 280
f 212 280 227
f 215 231 281
f 215 281 279
f 227 280 282
f 227 282 253
f 231 283 284
f 231 284 230
f 231 283 285
f 231 285 281
f 230 284 286
f 230 286 233
f 233 286 287
f 233 287 235
f 235 287 288
f 235 288 237
f 237 288 289
f 237 289 239
f 239 289 290
f 239 290 241
f 241 290 291
f 241 291 243
f 243 291 292
f 243 292 245
f 245 292 293
f 245 293 247
f 247 293 294
f 247 294 249
f 249 294 295
f 249 295 251
f 251 295 296
f 251 296 253
f 253 282 297
f 253 297 296
f 283 298 299
f 283 299 284
f 283 298 300
f 283 300 285
f 284 299 301
f 284 301 286
f 286 301 302
f 286 302 287
f 287 302 303
f 287 303 288
f 288 303 304
f 288 304 289
f 289 304 305
f 289 305 290
f 290 305 306
f 290 306 291
f 291 306 307
f 291 307 292
f 292 307 308
f 292 308 293
f 293 308 309
f 293 309 294
f 294 309 310
f 294 310 295
f 295 310 311
f 295 311 296
f 296 297 312
f 296 312 311
f 298 313 314
f 298 314 299
f 313 314 315
f 313 315 316
f 298 313 316
f 298 316 300
f 299 314 317
f 299 317 301
f 314 317 318
f 314 318 315
f 301 317 319
f 301 319 302
f 317 319 320
f 317 320 318
f 302 319 321
f 302 321 303
f 319 321 322
f 319 322 320
f 303 321 323
f 303 323 304
f 321 323 324
f 321 324 322
f 304 323 325
f 304 325 305
f 323 325 326
f 323 326 324
f 305 325 327
f 305 327 306
f 325 327 328
f 325 328 326
f 306 327 329
f 306 329 307
f 327 329 330
f 327 330 328
f 307 329 331
f 307 331 308
f 329 331 332
f 329 332 330
f 308 331 333
f 308 333 309
f 331 333 334
f 331 334 332
f 309 333 335
f 309 335 310
f 333 335 336
f 333 336 334
f 310 335 337
f 310 337 311
f 335 337 338
f 335 338 336
f 311 312 338
f 311 338 337
f 254 339 340
f 254 340 255
f 254 256 341
f 254 341 339
f 255 340 342
f 255 342 257
f 257 342 343
f 257 343 258
f 258 343 344
f 258 344 259
f 259 344 345
f 259 345 260
f 260 345 346
f 260 346 261
f 261 346 347
f 261 347 262
f 262 347 348
f 262 348 263
f 263 348 349
f 263 349 264
f 264 349 350
f 264 350 265
f 265 350 351
f 265 351 266
f 266 351 352
f 266 352 267
f 267 352 353
f 267 353 268
f 256 269 354
f 256 354 341
f 268 353 355
f 268 355 270
f 269 271 356
f 269 356 354
f 270 355 357
f 270 357 272
f 271 273 358
f 271 358 356
f 272 357 359
f 272 359 274
f 273 275 360
f 273 360 358
f 274 359 361
f 274 361 276
f 275 277 362
f 275 362 360
f 276 361 363
f 276 363 278
f 277 279 364
f 277 364 362
f 278 363 365
f 278 365 280
f 279 281 366
f 279 366 364
f 280 365 367
f 280 367 282
f 281 285 368
f 281 368 366
f 282 367 369
f 282 369 297
f 285 300 370
f 285 370 368
f 297 369 371
f 297 371 312
f 300 316 372
f 300 372 370
f 312 371 373
f 312 373 338
f 316 374 375
f 316 375 315
f 316 374 376
f 316 376 372
f 315 375 377
f 315 377 318
f 318 377 378
f 318 378 320
f 320 378 379
f 320 379 322
f 322 379 380
f 322 380 324
f 324 380 381
f 324 381 326
f 326 381 382
f 326 382 328
f 328 382 383
f 328 383 330
f 330 383 384
f 330 384 332
f 332 384 385
f 332 385 334
f 334 385 386
f 334 386 336
f 336 386 387
f 336 387 338
f 338 373 388
f 338 388 387
f 374 389 390
f 374 390 375
f 389 390 391
f 389 391 392
f 374 389 392
f 374 392 376
f 375 390 393
f 375 393 377
f 390 393 394
f 390 394 391
f 377 393 395
f 377 395 378
f 393 395 396
f 393 396 394
f 378 395 397
f 378 397 379
f 395 397 398
f 395 398 396
f 379 397 399
f 379 399 380
f 397 399 400
f 397 400 398
f 380 399 401
f 380 401 381
f 399 401 402
f 399 402 400
f 381 401 403
f 381 403 382
f 401 403 404
f 401 404 402
f 382 403 405
f 382 405 383
f 403 405 406
f 403 406 404
f 383 405 407
f 383 407 384
f 405 407 408
f 405 408 406
f 384 407 409
f 384 409 385
f 407 409 410
f 407 410 408
f 385 409 411
f 385 411 386
f 409 411 412
f 409 412 410
f 386 411 413
f 386 413 387
f 411 413 414
f 411 414 412
f 387 388 414
f 387 414 413
f 339 415 416
f 339 416 340
f 339 341 417
f 339 417 415
f 340 416 418
f 340 418 342
f 342 418 419
f 342 419 343
f 343 419 420
f 343 420 344
f 344 420 421
f 344 421 345
f 345 421 422
f 345 422 346
f 346 422 423
f 346 423 347
f 347 423 424
f 347 424 348
f 348 424 425
f 348 425 349
f 349 425 426
f 349 426 350
f 350 426 427
f 350 427 351
f 351 427 428
f 351 428 352
f 352 428 429
f 352 429 353
f 341 354 430
f 341 430 417
f 353 429 431
f 353 431 355
f 354 356 432
f 354 432 430
f 355 431 433
f 355 433 357
f 356 358 434
f 356 434 432
f 357 433 435
f 357 435 359
f 358 360 436
f 358 436 434
f 359 435 437
f 359 437 361
f 360 362 438
f 360 438 436
f 361 437 439
f 361 439 363
f 362 364 440
f 362 440 438
f 363 439 441
f 363 441 365
f 364 366 442
f 364 442 440
f 365 441 443
f 365 443 367
f 366 368 444
f 366 444 442
f 367 443 445
f 367 445 369
f 368 370 446
f 368 446 444
f 369 445 447
f 369 447 371
f 370 372 448
f 370 448 446
f 371 447 449
f 371 449 373
f 372 376 450
f 372 450 448
f 373 449 451
f 373 451 388
f 376 392 452
f 376 452 450
f 388 451 453
f 388 453 414
f 392 454 455
f 392 455 391
f 392 454 456
f 392 456 452
f 391 455 457
f 391 457 394
f 394 457 458
f 394 458 396
f 396 458 459
f 396 459 398
f 398 459 460
f 398 460 400
f 400 460 461
f 400 461 402
f 402 461 462
f 402 462 404
f 404 462 463
f 404 463 406
f 406 463 464
f 406 464 408
f 408 464 465
f 408 465 410
f 410 465 466
f 410 466 412
f 412 466 467
f 412 467 414
f 414 453 468
f 414 468 467
f 454 469 470
f 454 470 455
f 469 470 471
f 469 471 472
f 454 469 472
f 454 472 456
f 455 470 473
f 455 473 457
f 470 473 474
f 470 474 471
f 457 473 475
f 457 475 458
f 473 475 476
f 473 476 474
f 458 475 477
f 458 477 459
f 475 477 478
f 475 478 476
f 459 477 479
f 459 479 460
f 477 479 480
f 477 480 478
f 460 479 481
f 460 481 461
f 479 481 482
f 479 482 480
f 461 481 483
f 461 483 462
f 481 483 484
f 481 484 482
f 462 483 485
f 462 485 463
f 483 485 486
f 483 486 484
f 463 485 487
f 463 487 464
f 485 487 488
f 485 488 486
f 464 487 489
f 464 489 465
f 487 489 490
f 487 490 488
f 465 489 491
f 465 491 466
f 489 491 492
f 489 492 490
f 466 491 493
f 466 493 467
f 491 493 494
f 491 494 492
f 467 468 494
f 467 494 493
f 415 495 496
f 415 496 416
f 415 417 497
f 415 497 495
f 416 496 498
f 416 498 418
f 418 498 499
f 418 499 419
f 419 499 500
f 419 500 420
f 420 500 501
f 420 501 421
f 421 501 502
f 421 502 422
f 422 502 503
f 422 503 423
f 423 503 504
f 423 504 424
f 424 504 505
f 424 505 425
f 425 505 506
f 425 506 426
f 426 506 507
f 426 507 427
f 427 507 508
f 427 508 428
f 428 508 509
f 428 509 429
f 417 430 510
f 417 510 497
f 429 509 511
f 429 511 431
f 430 432 512
f 430 512 510
f 431 511 513
f 431 513 433
f 432 434 514
f 432 514 512
f 433 513 515
f 433 515 435
f 434 436 516
f 434 516 514
f 435 515 517
f 435 517 437
f 436 438 518
f 436 518 516
f 437 517 519
f 437 519 439
f 438 440 520
f 438 520 518
f 439 519 521
f 439 521 441
f 440 442 522
f 440 522 520
f 441 521 523
f 441 523 443
f 442 444 524
f 442 524 522
f 443 523 525
f 443 525 445
f 444 446 526
f 444 526 524
f 445 525 527
f 445 527 447
f 446 448 528
f 446 528 526
f 447 527 529
f 447 529 449
f 448 450 530
f 448 530 528
f 449 529 531
f 449 531 451
f 450 452 532
f 450 532 530
f 451 531 533
f 451 533 453
f 532 534 535
f 532 535 536
f 452 456 536
f 452 536 532
f 534 537 538
f 534 538 535
f 537 539 540
f 537 540 538
f 539 541 542
f 539 542 540
f 541 543 544
f 541 544 542
f 543 545 546
f 543 546 544
f 545 547 548
f 545 548 546
f 547 549 550
f 547 550 548
f 549 551 552
f 549 552 550
f 551 553 554
f 551 554 552
f 553 555 556
f 553 556 554
f 555 533 557
f 555 557 556
f 453 533 557
f 453 557 468
f 536 535 558
f 536 558 559
f 472 471 558
f 472 558 559
f 456 472 559
f 456 559 536
f 535 538 560
f 535 560 558
f 471 474 560
f 471 560 558
f 538 540 561
f 538 561 560
f 474 476 561
f 474 561 560
f 540 542 562
f 540 562 561
f 476 478 562
f 476 562 561
f 542 544 563
f 542 563 562
f 478 480 563
f 478 563 562
f 544 546 564
f 544 564 563
f 480 482 564
f 480 564 563
f 546 548 565
f 546 565 564
f 482 484 565
f 482 565 564
f 548 550 566
f 548 566 565
f 484 486 566
f 484 566 565
f 550 552 567
f 550 567 566
f 486 488 567
f 486 567 566
f 552 554 568
f 552 568 567
f 488 490 568
f 488 568 567
f 554 556 569
f 554 569 568
f 490 492 569
f 490 569 568
f 556 557 570
f 556 570 569
f 492 494 570
f 492 570 569
f 468 557 570
f 468 570 494
f 495 571 572
f 495 572 496
f 495 497 573
f 495 573 571
f 496 572 574
f 496 574 498
f 498 574 575
f 498 575 499
f 499 575 576
f 499 576 500
f 500 576 577
f 500 577 501
f 501 577 578
f 501 578 502
f 502 578 579
f 502 579 503
f 503 579 580
f 503 580 504
f 504 580 581
f 504 581 505
f 505 581 582
f 505 582 506
f 506 582 583
f 506 583 507
f 507 583 584
f 507 584 508
f 508 584 585
f 508 585 509
f 497 510 586
f 497 586 573
f 509 585 587
f 509 587 511
f 510 512 588
f 510 588 586
f 511 587 589
f 511 589 513
f 512 514 590
f 512 590 588
f 513 589 591
f 513 591 515
f 514 516 592
f 514 592 590
f 515 591 593
f 515 593 517
f 516 518 594
f 516 594 592
f 517 593 595
f 517 595 519
f 518 520 596
f 518 596 594
f 519 595 597
f 519 597 521
f 520 522 598
f 520 598 596
f 521 597 599
f 521 599 523
f 522 524 600
f 522 600 598
f 523 599 601
f 523 601 525
f 524 526 602
f 524 602 600
f 525 601 603
f 525 603 527
f 526 528 604
f 526 604 602
f 527 603 605
f 527 605 529
f 604 606 607
f 604 607 608
f 528 530 608
f 528 608 604
f 606 609 610
f 606 610 607
f 609 611 612
f 609 612 610
f 611 613 614
f 611 614 612
f 613 615 616
f 613 616 614
f 615 617 618
f 615 618 616
f 617 619 620
f 617 620 618
f 619 621 622
f 619 622 620
f 621 623 624
f 621 624 622
f 623 625 626
f 623 626 624
f 625 627 628
f 625 628 626
f 627 605 629
f 627 629 628
f 529 605 629
f 529 629 531
f 608 607 630
f 608 630 631
f 532 534 630
f 532 630 631
f 530 532 631
f 530 631 608
f 607 610 632
f 607 632 630
f 534 537 632
f 534 632 630
f 610 612 633
f 610 633 632
f 537 539 633
f 537 633 632
f 612 614 634
f 612 634 633
f 539 541 634
f 539 634 633
f 614 616 635
f 614 635 634
f 541 543 635
f 541 635 634
f 616 618 636
f 616 636 635
f 543 545 636
f 543 636 635
f 618 620 637
f 618 637 636
f 545 547 637
f 545 637 636
f 620 622 638
f 620 638 637
f 547 549 638
f 547 638 637
f 622 624 639
f 622 639 638
f 549 551 639
f 549 639 638
f 624 626 640
f 624 640 639
f 551 553 640
f 551 640 639
f 626 628 641
f 626 641 640
f 553 555 641
f 553 641 640
f 628 629 642
f 628 642 641
f 555 533 642
f 555 642 641
f 531 629 642
f 531 642 533
f 571 643 644
f 571 644 572
f 571 573 645
f 571 645 643
f 572 644 646
f 572 646 574
f 574 646 647
f 574 647 575
f 575 647 648
f 575 648 576
f 576 648 649
f 576 649 577
f 577 649 650
f 577 650 578
f 578 650 651
f 578 651 579
f 579 651 652
f 579 652 580
f 580 652 653
f 580 653 581
f 581 653 654
f 581 654 582
f 582 654 655
f 582 655 583
f 583 655 656
f 583 656 584
f 584 656 657
f 584 657 585
f 573 586 658
f 573 658 645
f 585 657 659
f 585 659 587
f 586 588 660
f 586 660 658
f 587 659 661
f 587 661 589
f 588 590 662
f 588 662 660
f 589 661 663
f 589 663 591
f 590 592 664
f 590 664 662
f 591 663 665
f 591 665 593
f 592 594 666
f 592 666 664
f 593 665 667
f 593 667 595
f 594 596 668
f 594 668 666
f 595 667 669
f 595 669 597
f 596 598 670
f 596 670 668
f 597 669 671
f 597 671 599
f 670 672 673
f 670 673 674
f 598 600 674
f 598 674 670
f 672 675 676
f 672 676 673
f 675 677 678
f 675 678 676
f 677 679 680
f 677 680 678
f 679 681 682
f 679 682 680
f 681 683 684
f 681 684 682
f 683 685 686
f 683 686 684
f 685 687 688
f 685 688 686
f 687 689 690
f 687 690 688
f 689 691 692
f 689 692 690
f 691 693 694
f 691 694 692
f 693 671 695
f 693 695 694
f 599 671 695
f 599 695 601
f 674 673 696
f 674 696 697
f 600 602 697
f 600 697 674
f 673 676 698
f 673 698 696
f 676 678 699
f 676 699 698
f 678 680 700
f 678 700 699
f 680 682 701
f 680 701 700
f 682 684 702
f 682 702 701
f 684 686 703
f 684 703 702
f 686 688 704
f 686 704 703
f 688 690 705
f 688 705 704
f 690 692 706
f 690 706 705
f 692 694 707
f 692 707 706
f 694 695 708
f 694 708 707
f 601 695 708
f 601 708 603
f 697 696 709
f 697 709 710
f 604 606 709
f 604 709 710
f 602 604 710
f 602 710 697
f 696 698 711
f 696 711 709
f 606 609 711
f 606 711 709
f 698 699 712
f 698 712 711
f 609 611 712
f 609 712 711
f 699 700 713
f 699 713 712
f 611 613 713
f 611 713 712
f 700 701 714
f 700 714 713
f 613 615 714
f 613 714 713
f 701 702 715
f 701 715 714
f 615 617 715
f 615 715 714
f 702 703 716
f 702 716 715
f 617 619 716
f 617 716 715
f 703 704 717
f 703 717 716
f 619 621 717
f 619 717 716
f 704 705 718
f 704 718 717
f 621 623 718
f 621 718 717
f 705 706 719
f 705 719 718
f 623 625 719
f 623 719 718
f 706 707 720
f 706 720 719
f 625 627 720
f 625 720 719
f 707 708 721
f 707 721 720
f 627 605 721
f 627 721 720
f 603 708 721
f 603 721 605
f 643 722 723
f 643 723 644
f 643 645 724
f 643 724 722
f 644 723 725
f 644 725 646
f 646 725 726
f 646 726 647
f 647 726 727
f 647 727 648
f 648 727 728
f 648 728 649
f 649 728 729
f 649 729 650
f 650 729 730
f 650 730 651
f 651 730 731
f 651 731 652
f 652 731 732
f 652 732 653
f 653 732 733
f 653 733 654
f 654 733 734
f 654 734 655
f 655 734 735
f 655 735 656
f 656 735 736
f 656 736 657
f 645 658 737
f 645 737 724
f 657 736 738
f 657 738 659
f 658 660 739
f 658 739 737
f 659 738 740
f 659 740 661
f 660 662 741
f 660 741 739
f 661 740 742
f 661 742 663
f 662 664 743
f 662 743 741
f 663 742 744
f 663 744 665
f 664 666 745
f 664 745 743
f 665 744 746
f 665 746 667
f 745 747 748
f 745 748 749
f 666 668 749
f 666 749 745
f 747 750 751
f 747 751 748
f 750 752 753
f 750 753 751
f 752 754 755
f 752 755 753
f 754 756 757
f 754 757 755
f 756 758 759
f 756 759 757
f 758 760 761
f 758 761 759
f 760 762 763
f 760 763 761
f 762 764 765
f 762 765 763
f 764 766 767
f 764 767 765
f 766 768 769
f 766 769 767
f 768 746 770
f 768 770 769
f 667 746 770
f 667 770 669
f 749 748 771
f 749 771 772
f 670 672 771
f 670 771 772
f 668 670 772
f 668 772 749
f 748 751 773
f 748 773 771
f 672 675 773
f 672 773 771
f 751 753 774
f 751 774 773
f 675 677 774
f 675 774 773
f 753 755 775
f 753 775 774
f 677 679 775
f 677 775 774
f 755 757 776
f 755 776 775
f 679 681 776
f 679 776 775
f 757 759 777
f 757 777 776
f 681 683 777
f 681 777 776
f 759 761 778
f 759 778 777
f 683 685 778
f 683 778 777
f 761 763 779
f 761 779 778
f 685 687 779
f 685 779 778
f 763 765 780
f 763 780 779
f 687 689 780
f 687 780 779
f 765 767 781
f 765 781 780
f 689 691 781
f 689 781 780
f 767 769 782
f 767 782 781
f 691 693 782
f 691 782 781
f 769 770 783
f 769 783 782
f 693 671 783
f 693 783 782
f 669 770 783
f 669 783 671
f 722 784 785
f 722 785 723
f 722 724 786
f 722 786 784
f 723 785 787
f 723 787 725
f 725 787 788
f 725 788 726
f 726 788 789
f 726 789 727
f 727 789 790
f 727 790 728
f 728 790 791
f 728 791 729
f 729 791 792
f 729 792 730
f 730 792 793
f 730 793 731
f 731 793 794
f 731 794 732
f 732 794 795
f 732 795 733
f 733 795 796
f 733 796 734
f 734 796 797
f 734 797 735
f 735 797 798
f 735 798 736
f 724 737 799
f 724 799 786
f 736 798 800
f 736 800 738
f 737 739 801
f 737 801 799
f 738 800 802
f 738 802 740
f 739 741 803
f 739 803 801
f 740 802 804
f 740 804 742
f 803 805 806
f 803 806 807
f 741 743 807
f 741 807 803
f 805 808 809
f 805 809 806
f 808 810 811
f 808 811 809
f 810 812 813
f 810 813 811
f 812 814 815
f 812 815 813
f 814 816 817
f 814 817 815
f 816 818 819
f 816 819 817
f 818 820 821
f 818 821 819
f 820 822 823
f 820 823 821
f 822 824 825
f 822 825 823
f 824 826 827
f 824 827 825
f 826 804 828
f 826 828 827
f 742 804 828
f 742 828 744
f 807 806 829
f 807 829 830
f 745 747 829
f 745 829 830
f 743 745 830
f 743 830 807
f 806 809 831
f 806 831 829
f 747 750 831
f 747 831 829
f 809 811 832
f 809 832 831
f 750 752 832
f 750 832 831
f 811 813 833
f 811 833 832
f 752 754 833
f 752 833 832
f 813 815 834
f 813 834 833
f 754 756 834
f 754 834 833
f 815 817 835
f 815 835 834
f 756 758 835
f 756 835 834
f 817 819 836
f 817 836 835
f 758 760 836
f 758 836 835
f 819 821 837
f 819 837 836
f 760 762 837
f 760 837 836
f 821 823 838
f 821 838 837
f 762 764 838
f 762 838 837
f 823 825 839
f 823 839 838
f 764 766 839
f 764 839 838
f 825 827 840
f 825 840 839
f 766 768 840
f 766 840 839
f 827 828 841
f 827 841 840
f 768 746 841
f 768 841 840
f 744 828 841
f 744 841 746
f 784 842 843
f 784 843 785
f 784 786 844
f 784 844 842
f 785 843 845
f 785 845 787
f 787 845 846
f 787 846 788
f 788 846 847
f 788 847 789
f 789 847 848
f 789 848 790
f 790 848 849
f 790 849 791
f 791 849 850
f 791 850 792
f 792 850 851
f 792 851 793
f 793 851 852
f 793 852 794
f 794 852 853
f 794 853 795
f 795 853 854
f 795 854 796
f 796 854 855
f 796 855 797
f 797 855 856
f 797 856 798
f 786 799 857
f 786 857 844
f 798 856 858
f 798 858 800
f 857 859 860
f 857 860 861
f 799 801 861
f 799 861 857
f 859 862 863
f 859 863 860
f 862 864 865
f 862 865 863
f 864 866 867
f 864 867 865
f 866 868 869
f 866 869 867
f 868 870 871
f 868 871 869
f 870 872 873
f 870 873 871
f 872 874 875
f 872 875 873
f 874 876 877
f 874 877 875
f 876 878 879
f 876 879 877
f 878 880 881
f 878 881 879
f 880 858 882
f 880 882 881
f 800 858 882
f 800 882 802
f 861 860 883
f 861 883 884
f 803 805 883
f 803 883 884
f 801 803 884
f 801 884 861
f 860 863 885
f 860 885 883
f 805 808 885
f 805 885 883
f 863 865 886
f 863 886 885
f 808 810 886
f 808 886 885
f 865 867 887
f 865 887 886
f 810 812 887
f 810 887 886
f 867 869 888
f 867 888 887
f 812 814 888
f 812 888 887
f 869 871 889
f 869 889 888
f 814 816 889
f 814 889 888
f 871 873 890
f 871 890 889
f 816 818 890
f 816 890 889
f 873 875 891
f 873 891 890
f 818 820 891
f 818 891 890
f 875 877 892
f 875 892 891
f 820 822 892
f 820 892 891
f 877 879 893
f 877 893 892
f 822 824 893
f 822 893 892
f 879 881 894
f 879 894 893
f 824 826 894
f 824 894 893
f 881 882 895
f 881 895 894
f 826 804 895
f 826 895 894
f 802 882 895
f 802 895 804
f 896 897 898
f 896 898 899
f 842 896 897
f 842 897 843
f 842 844 899
f 842 899 896
f 897 900 901
f 897 901 898
f 843 897 900
f 843 900 845
f 900 902 903
f 900 903 901
f 845 900 902
f 845 902 846
f 902 904 905
f 902 905 903
f 846 902 904
f 846 904 847
f 904 906 907
f 904 907 905
f 847 904 906
f 847 906 848
f 906 908 909
f 906 909 907
f 848 906 908
f 848 908 849
f 908 910 911
f 908 911 909
f 849 908 910
f 849 910 850
f 910 912 913
f 910 913 911
f 850 910 912
f 850 912 851
f 912 914 915
f 912 915 913
f 851 912 914
f 851 914 852
f 914 916 917
f 914 917 915
f 852 914 916
f 852 916 853
f 916 918 919
f 916 919 917
f 853 916 918
f 853 918 854
f 918 920 921
f 918 921 919
f 854 918 920
f 854 920 855
f 855 920 921
f 855 921 856
f 899 898 922
f 899 922 923
f 857 859 922
f 857 922 923
f 844 857 923
f 844 923 899
f 898 901 924
f 898 924 922
f 859 862 924
f 859 924 922
f 901 903 925
f 901 925 924
f 862 864 925
f 862 925 924
f 903 905 926
f 903 926 925
f 864 866 926
f 864 926 925
f 905 907 927
f 905 927 926
f 866 868 927
f 866 927 926
f 907 909 928
f 907 928 927
f 868 870 928
f 868 928 927
f 909 911 929
f 909 929 928
f 870 872 929
f 870 929 928
f 911 913 930
f 911 930 929
f 872 874 930
f 872 930 929
f 913 915 931
f 913 931 930
f 874 876 931
f 874 931 930
f 915 917 932
f 915 932 931
f 876 878 932
f 876 932 931
f 917 919 933
f 917 933 932
f 878 880 933
f 878 933 932
f 919 921 934
f 919 934 933
f 880 858 934
f 880 934 933
f 856 921 934
f 856 934 858
