o [4B] 3D Diagram - S2-09 Group A_270
v -0.450000 -0.087500 93.330000
v -0.450000 0.000000 93.330000
v -0.450000 0.000000 94.140000
v -0.450000 -0.087500 94.140000
v -0.393750 -0.087500 93.330000
v -0.393750 -0.087500 94.140000
v -0.393750 0.000000 93.330000
v -0.450000 0.000000 94.950000
v -0.450000 -0.087500 94.950000
v -0.393750 -0.087500 94.950000
v -0.450000 0.000000 95.760000
v -0.450000 -0.087500 95.760000
v -0.393750 -0.087500 95.760000
v -0.450000 0.000000 96.570000
v -0.450000 -0.087500 96.570000
v -0.393750 -0.087500 96.570000
v -0.450000 0.000000 97.380000
v -0.450000 -0.087500 97.380000
v -0.393750 -0.087500 97.380000
v -0.450000 0.000000 98.190000
v -0.450000 -0.087500 98.190000
v -0.393750 -0.087500 98.190000
v -0.450000 0.000000 99.000000
v -0.450000 -0.087500 99.000000
v -0.393750 -0.087500 99.000000
v -0.450000 0.000000 99.810000
v -0.450000 -0.087500 99.810000
v -0.393750 -0.087500 99.810000
v -0.450000 0.000000 100.620000
v -0.450000 -0.087500 100.620000
v -0.393750 -0.087500 100.620000
v -0.450000 0.000000 101.430000
v -0.450000 -0.087500 101.430000
v -0.393750 -0.087500 101.430000
v -0.450000 0.000000 102.240000
v -0.450000 -0.087500 102.240000
v -0.393750 -0.087500 102.240000
v -0.450000 0.000000 103.050000
v -0.450000 -0.087500 103.050000
v -0.393750 -0.087500 103.050000
v -0.450000 0.000000 103.860000
v -0.450000 -0.087500 103.860000
v -0.393750 -0.087500 103.860000
v -0.450000 0.000000 104.670000
v -0.450000 -0.087500 104.670000
v -0.393750 -0.087500 104.670000
v -0.393750 0.000000 104.670000
v -0.450000 0.087500 93.330000
v -0.450000 0.087500 94.140000
v -0.393750 0.087500 94.140000
v -0.393750 0.087500 93.330000
v -0.450000 0.087500 94.950000
v -0.393750 0.087500 94.950000
v -0.450000 0.087500 95.760000
v -0.393750 0.087500 95.760000
v -0.450000 0.087500 96.570000
v -0.393750 0.087500 96.570000
v -0.450000 0.087500 97.380000
v -0.393750 0.087500 97.380000
v -0.450000 0.087500 98.190000
v -0.393750 0.087500 98.190000
v -0.450000 0.087500 99.000000
v -0.393750 0.087500 99.000000
v -0.450000 0.087500 99.810000
v -0.393750 0.087500 99.810000
v -0.450000 0.087500 100.620000
v -0.393750 0.087500 100.620000
v -0.450000 0.087500 101.430000
v -0.393750 0.087500 101.430000
v -0.450000 0.087500 102.240000
v -0.393750 0.087500 102.240000
v -0.450000 0.087500 103.050000
v -0.393750 0.087500 103.050000
v -0.450000 0.087500 103.860000
v -0.393750 0.087500 103.860000
v -0.450000 0.087500 104.670000
v -0.393750 0.087500 104.670000
v -0.393750 -0.175000 93.330000
v -0.393750 -0.175000 94.140000
v -0.337500 -0.175000 93.330000
v -0.337500 -0.175000 94.140000
v -0.337500 -0.087500 93.330000
v -0.393750 -0.175000 94.950000
v -0.337500 -0.175000 94.950000
v -0.393750 -0.175000 95.760000
v -0.337500 -0.175000 95.760000
v -0.393750 -0.175000 96.570000
v -0.337500 -0.175000 96.570000
v -0.393750 -0.175000 97.380000
v -0.337500 -0.175000 97.380000
v -0.393750 -0.175000 98.190000
v -0.337500 -0.175000 98.190000
v -0.393750 -0.175000 99.000000
v -0.337500 -0.175000 99.000000
v -0.393750 -0.175000 99.810000
v -0.337500 -0.175000 99.810000
v -0.393750 -0.175000 100.620000
v -0.337500 -0.175000 100.620000
v -0.393750 -0.175000 101.430000
v -0.337500 -0.175000 101.430000
v -0.393750 -0.175000 102.240000
v -0.337500 -0.175000 102.240000
v -0.393750 -0.175000 103.050000
v -0.337500 -0.175000 103.050000
v -0.393750 -0.175000 103.860000
v -0.337500 -0.175000 103.860000
v -0.393750 -0.175000 104.670000
v -0.337500 -0.175000 104.670000
v -0.337500 -0.087500 104.670000
v -0.337500 0.000000 93.330000
v -0.337500 0.000000 104.670000
v -0.337500 0.087500 93.330000
v -0.337500 0.087500 104.670000
v -0.393750 0.175000 93.330000
v -0.393750 0.175000 94.140000
v -0.337500 0.175000 94.140000
v -0.337500 0.175000 93.330000
v -0.393750 0.175000 94.950000
v -0.337500 0.175000 94.950000
v -0.393750 0.175000 95.760000
v -0.337500 0.175000 95.760000
v -0.393750 0.175000 96.570000
v -0.337500 0.175000 96.570000
v -0.393750 0.175000 97.380000
v -0.337500 0.175000 97.380000
v -0.393750 0.175000 98.190000
v -0.337500 0.175000 98.190000
v -0.393750 0.175000 99.000000
v -0.337500 0.175000 99.000000
v -0.393750 0.175000 99.810000
v -0.337500 0.175000 99.810000
v -0.393750 0.175000 100.620000
v -0.337500 0.175000 100.620000
v -0.393750 0.175000 101.430000
v -0.337500 0.175000 101.430000
v -0.393750 0.175000 102.240000
v -0.337500 0.175000 102.240000
v -0.393750 0.175000 103.050000
v -0.337500 0.175000 103.050000
v -0.393750 0.175000 103.860000
v -0.337500 0.175000 103.860000
v -0.393750 0.175000 104.670000
v -0.337500 0.175000 104.670000
v -0.281250 -0.175000 93.330000
v -0.281250 -0.175000 94.140000
v -0.281250 -0.087500 93.330000
v -0.281250 -0.175000 94.950000
v -0.281250 -0.175000 95.760000
v -0.281250 -0.175000 96.570000
v -0.281250 -0.175000 97.380000
v -0.281250 -0.175000 98.190000
v -0.281250 -0.175000 99.000000
v -0.281250 -0.175000 99.810000
v -0.281250 -0.175000 100.620000
v -0.281250 -0.175000 101.430000
v -0.281250 -0.175000 102.240000
v -0.281250 -0.175000 103.050000
v -0.281250 -0.175000 103.860000
v -0.281250 -0.175000 104.670000
v -0.281250 -0.087500 104.670000
v -0.281250 0.000000 93.330000
v -0.281250 0.000000 104.670000
v -0.281250 0.087500 93.330000
v -0.281250 0.087500 104.670000
v -0.281250 0.175000 94.140000
v -0.281250 0.175000 93.330000
v -0.281250 0.175000 94.950000
v -0.281250 0.175000 95.760000
v -0.281250 0.175000 96.570000
v -0.281250 0.175000 97.380000
v -0.281250 0.175000 98.190000
v -0.281250 0.175000 99.000000
v -0.281250 0.175000 99.810000
v -0.281250 0.175000 100.620000
v -0.281250 0.175000 101.430000
v -0.281250 0.175000 102.240000
v -0.281250 0.175000 103.050000
v -0.281250 0.175000 103.860000
v -0.281250 0.175000 104.670000
v -0.281250 -0.262500 93.330000
v -0.281250 -0.262500 94.140000
v -0.225000 -0.262500 93.330000
v -0.225000 -0.262500 94.140000
v -0.225000 -0.175000 93.330000
v -0.281250 -0.262500 94.950000
v -0.225000 -0.262500 94.950000
v -0.281250 -0.262500 95.760000
v -0.225000 -0.262500 95.760000
v -0.281250 -0.262500 96.570000
v -0.225000 -0.262500 96.570000
v -0.281250 -0.262500 97.380000
v -0.225000 -0.262500 97.380000
v -0.281250 -0.262500 98.190000
v -0.225000 -0.262500 98.190000
v -0.281250 -0.262500 99.000000
v -0.225000 -0.262500 99.000000
v -0.281250 -0.262500 99.810000
v -0.225000 -0.262500 99.810000
v -0.281250 -0.262500 100.620000
v -0.225000 -0.262500 100.620000
v -0.281250 -0.262500 101.430000
v -0.225000 -0.262500 101.430000
v -0.281250 -0.262500 102.240000
v -0.225000 -0.262500 102.240000
v -0.281250 -0.262500 103.050000
v -0.225000 -0.262500 103.050000
v -0.281250 -0.262500 103.860000
v -0.225000 -0.262500 103.860000
v -0.281250 -0.262500 104.670000
v -0.225000 -0.262500 104.670000
v -0.225000 -0.175000 104.670000
v -0.225000 -0.087500 93.330000
v -0.225000 -0.087500 104.670000
v -0.225000 0.000000 93.330000
v -0.225000 0.000000 104.670000
v -0.225000 0.087500 93.330000
v -0.225000 0.087500 104.670000
v -0.225000 0.175000 93.330000
v -0.225000 0.175000 104.670000
v -0.281250 0.262500 93.330000
v -0.281250 0.262500 94.140000
v -0.225000 0.262500 94.140000
v -0.225000 0.262500 93.330000
v -0.281250 0.262500 94.950000
v -0.225000 0.262500 94.950000
v -0.281250 0.262500 95.760000
v -0.225000 0.262500 95.760000
v -0.281250 0.262500 96.570000
v -0.225000 0.262500 96.570000
v -0.281250 0.262500 97.380000
v -0.225000 0.262500 97.380000
v -0.281250 0.262500 98.190000
v -0.225000 0.262500 98.190000
v -0.281250 0.262500 99.000000
v -0.225000 0.262500 99.000000
v -0.281250 0.262500 99.810000
v -0.225000 0.262500 99.810000
v -0.281250 0.262500 100.620000
v -0.225000 0.262500 100.620000
v -0.281250 0.262500 101.430000
v -0.225000 0.262500 101.430000
v -0.281250 0.262500 102.240000
v -0.225000 0.262500 102.240000
v -0.281250 0.262500 103.050000
v -0.225000 0.262500 103.050000
v -0.281250 0.262500 103.860000
v -0.225000 0.262500 103.860000
v -0.281250 0.262500 104.670000
v -0.225000 0.262500 104.670000
v -0.168750 -0.262500 93.330000
v -0.168750 -0.262500 94.140000
v -0.168750 -0.175000 93.330000
v -0.168750 -0.262500 94.950000
v -0.168750 -0.262500 95.760000
v -0.168750 -0.262500 96.570000
v -0.168750 -0.262500 97.380000
v -0.168750 -0.262500 98.190000
v -0.168750 -0.262500 99.000000
v -0.168750 -0.262500 99.810000
v -0.168750 -0.262500 100.620000
v -0.168750 -0.262500 101.430000
v -0.168750 -0.262500 102.240000
v -0.168750 -0.262500 103.050000
v -0.168750 -0.262500 103.860000
v -0.168750 -0.262500 104.670000
v -0.168750 -0.175000 104.670000
v -0.168750 -0.087500 93.330000
v -0.168750 -0.087500 104.670000
v -0.168750 0.000000 93.330000
v -0.168750 0.000000 104.670000
v -0.168750 0.087500 93.330000
v -0.168750 0.087500 104.670000
v -0.168750 0.175000 93.330000
v -0.168750 0.175000 104.670000
v -0.168750 0.262500 94.140000
v -0.168750 0.262500 93.330000
v -0.168750 0.262500 94.950000
v -0.168750 0.262500 95.760000
v -0.168750 0.262500 96.570000
v -0.168750 0.262500 97.380000
v -0.168750 0.262500 98.190000
v -0.168750 0.262500 99.000000
v -0.168750 0.262500 99.810000
v -0.168750 0.262500 100.620000
v -0.168750 0.262500 101.430000
v -0.168750 0.262500 102.240000
v -0.168750 0.262500 103.050000
v -0.168750 0.262500 103.860000
v -0.168750 0.262500 104.670000
v -0.168750 -0.350000 93.330000
v -0.168750 -0.350000 94.140000
v -0.112500 -0.350000 93.330000
v -0.112500 -0.350000 94.140000
v -0.112500 -0.262500 93.330000
v -0.168750 -0.350000 94.950000
v -0.112500 -0.350000 94.950000
v -0.168750 -0.350000 95.760000
v -0.112500 -0.350000 95.760000
v -0.168750 -0.350000 96.570000
v -0.112500 -0.350000 96.570000
v -0.168750 -0.350000 97.380000
v -0.112500 -0.350000 97.380000
v -0.168750 -0.350000 98.190000
v -0.112500 -0.350000 98.190000
v -0.168750 -0.350000 99.000000
v -0.112500 -0.350000 99.000000
v -0.168750 -0.350000 99.810000
v -0.112500 -0.350000 99.810000
v -0.168750 -0.350000 100.620000
v -0.112500 -0.350000 100.620000
v -0.168750 -0.350000 101.430000
v -0.112500 -0.350000 101.430000
v -0.168750 -0.350000 102.240000
v -0.112500 -0.350000 102.240000
v -0.168750 -0.350000 103.050000
v -0.112500 -0.350000 103.050000
v -0.168750 -0.350000 103.860000
v -0.112500 -0.350000 103.860000
v -0.168750 -0.350000 104.670000
v -0.112500 -0.350000 104.670000
v -0.112500 -0.262500 104.670000
v -0.112500 -0.175000 93.330000
v -0.112500 -0.175000 104.670000
v -0.112500 -0.087500 93.330000
v -0.112500 -0.087500 104.670000
v -0.112500 0.000000 93.330000
v -0.112500 0.000000 104.670000
v -0.112500 0.087500 93.330000
v -0.112500 0.087500 104.670000
v -0.112500 0.175000 93.330000
v -0.112500 0.175000 104.670000
v -0.112500 0.262500 93.330000
v -0.112500 0.262500 104.670000
v -0.168750 0.350000 93.330000
v -0.168750 0.350000 94.140000
v -0.112500 0.350000 94.140000
v -0.112500 0.350000 93.330000
v -0.168750 0.350000 94.950000
v -0.112500 0.350000 94.950000
v -0.168750 0.350000 95.760000
v -0.112500 0.350000 95.760000
v -0.168750 0.350000 96.570000
v -0.112500 0.350000 96.570000
v -0.168750 0.350000 97.380000
v -0.112500 0.350000 97.380000
v -0.168750 0.350000 98.190000
v -0.112500 0.350000 98.190000
v -0.168750 0.350000 99.000000
v -0.112500 0.350000 99.000000
v -0.168750 0.350000 99.810000
v -0.112500 0.350000 99.810000
v -0.168750 0.350000 100.620000
v -0.112500 0.350000 100.620000
v -0.168750 0.350000 101.430000
v -0.112500 0.350000 101.430000
v -0.168750 0.350000 102.240000
v -0.112500 0.350000 102.240000
v -0.168750 0.350000 103.050000
v -0.112500 0.350000 103.050000
v -0.168750 0.350000 103.860000
v -0.112500 0.350000 103.860000
v -0.168750 0.350000 104.670000
v -0.112500 0.350000 104.670000
v -0.112500 -0.437500 93.330000
v -0.112500 -0.437500 94.140000
v -0.056250 -0.437500 93.330000
v -0.056250 -0.437500 94.140000
v -0.056250 -0.350000 93.330000
v -0.112500 -0.437500 94.950000
v -0.056250 -0.437500 94.950000
v -0.112500 -0.437500 95.760000
v -0.056250 -0.437500 95.760000
v -0.112500 -0.437500 96.570000
v -0.056250 -0.437500 96.570000
v -0.112500 -0.437500 97.380000
v -0.056250 -0.437500 97.380000
v -0.112500 -0.437500 98.190000
v -0.056250 -0.437500 98.190000
v -0.112500 -0.437500 99.000000
v -0.056250 -0.437500 99.000000
v -0.112500 -0.437500 99.810000
v -0.056250 -0.437500 99.810000
v -0.112500 -0.437500 100.620000
v -0.056250 -0.437500 100.620000
v -0.112500 -0.437500 101.430000
v -0.056250 -0.437500 101.430000
v -0.112500 -0.437500 102.240000
v -0.056250 -0.437500 102.240000
v -0.112500 -0.437500 103.050000
v -0.056250 -0.437500 103.050000
v -0.112500 -0.437500 103.860000
v -0.056250 -0.437500 103.860000
v -0.112500 -0.437500 104.670000
v -0.056250 -0.437500 104.670000
v -0.056250 -0.350000 104.670000
v -0.056250 -0.262500 93.330000
v -0.056250 -0.262500 104.670000
v -0.056250 -0.175000 93.330000
v -0.056250 -0.175000 104.670000
v -0.056250 -0.087500 93.330000
v -0.056250 -0.087500 104.670000
v -0.056250 0.000000 93.330000
v -0.056250 0.000000 104.670000
v -0.056250 0.087500 93.330000
v -0.056250 0.087500 104.670000
v -0.056250 0.175000 93.330000
v -0.056250 0.175000 104.670000
v -0.056250 0.262500 93.330000
v -0.056250 0.262500 104.670000
v -0.056250 0.350000 93.330000
v -0.056250 0.350000 104.670000
v -0.112500 0.437500 93.330000
v -0.112500 0.437500 94.140000
v -0.056250 0.437500 94.140000
v -0.056250 0.437500 93.330000
v -0.112500 0.437500 94.950000
v -0.056250 0.437500 94.950000
v -0.112500 0.437500 95.760000
v -0.056250 0.437500 95.760000
v -0.112500 0.437500 96.570000
v -0.056250 0.437500 96.570000
v -0.112500 0.437500 97.380000
v -0.056250 0.437500 97.380000
v -0.112500 0.437500 98.190000
v -0.056250 0.437500 98.190000
v -0.112500 0.437500 99.000000
v -0.056250 0.437500 99.000000
v -0.112500 0.437500 99.810000
v -0.056250 0.437500 99.810000
v -0.112500 0.437500 100.620000
v -0.056250 0.437500 100.620000
v -0.112500 0.437500 101.430000
v -0.056250 0.437500 101.430000
v -0.112500 0.437500 102.240000
v -0.056250 0.437500 102.240000
v -0.112500 0.437500 103.050000
v -0.056250 0.437500 103.050000
v -0.112500 0.437500 103.860000
v -0.056250 0.437500 103.860000
v -0.112500 0.437500 104.670000
v -0.056250 0.437500 104.670000
v 0.000000 -0.437500 93.330000
v 0.000000 -0.437500 94.140000
v 0.000000 -0.350000 94.140000
v 0.000000 -0.350000 93.330000
v 0.000000 -0.437500 94.950000
v 0.000000 -0.350000 94.950000
v 0.000000 -0.437500 95.760000
v 0.000000 -0.350000 95.760000
v 0.000000 -0.437500 96.570000
v 0.000000 -0.350000 96.570000
v 0.000000 -0.437500 97.380000
v 0.000000 -0.350000 97.380000
v 0.000000 -0.437500 98.190000
v 0.000000 -0.350000 98.190000
v 0.000000 -0.437500 99.000000
v 0.000000 -0.350000 99.000000
v 0.000000 -0.437500 99.810000
v 0.000000 -0.350000 99.810000
v 0.000000 -0.437500 100.620000
v 0.000000 -0.350000 100.620000
v 0.000000 -0.437500 101.430000
v 0.000000 -0.350000 101.430000
v 0.000000 -0.437500 102.240000
v 0.000000 -0.350000 102.240000
v 0.000000 -0.437500 103.050000
v 0.000000 -0.350000 103.050000
v 0.000000 -0.437500 103.860000
v 0.000000 -0.350000 103.860000
v 0.000000 -0.437500 104.670000
v 0.000000 -0.350000 104.670000
v 0.000000 -0.262500 94.140000
v 0.000000 -0.262500 93.330000
v 0.000000 -0.262500 94.950000
v 0.000000 -0.262500 95.760000
v 0.000000 -0.262500 96.570000
v 0.000000 -0.262500 97.380000
v 0.000000 -0.262500 98.190000
v 0.000000 -0.262500 99.000000
v 0.000000 -0.262500 99.810000
v 0.000000 -0.262500 100.620000
v 0.000000 -0.262500 101.430000
v 0.000000 -0.262500 102.240000
v 0.000000 -0.262500 103.050000
v 0.000000 -0.262500 103.860000
v 0.000000 -0.262500 104.670000
v 0.000000 -0.175000 94.140000
v 0.000000 -0.175000 93.330000
v 0.000000 -0.175000 94.950000
v 0.000000 -0.175000 95.760000
v 0.000000 -0.175000 96.570000
v 0.000000 -0.175000 97.380000
v 0.000000 -0.175000 98.190000
v 0.000000 -0.175000 99.000000
v 0.000000 -0.175000 99.810000
v 0.000000 -0.175000 100.620000
v 0.000000 -0.175000 101.430000
v 0.000000 -0.175000 102.240000
v 0.000000 -0.175000 103.050000
v 0.000000 -0.175000 103.860000
v 0.000000 -0.175000 104.670000
v 0.000000 -0.087500 94.140000
v 0.000000 -0.087500 93.330000
v 0.000000 -0.087500 94.950000
v 0.000000 -0.087500 95.760000
v 0.000000 -0.087500 96.570000
v 0.000000 -0.087500 97.380000
v 0.000000 -0.087500 98.190000
v 0.000000 -0.087500 99.000000
v 0.000000 -0.087500 99.810000
v 0.000000 -0.087500 100.620000
v 0.000000 -0.087500 101.430000
v 0.000000 -0.087500 102.240000
v 0.000000 -0.087500 103.050000
v 0.000000 -0.087500 103.860000
v 0.000000 -0.087500 104.670000
v 0.000000 0.000000 94.140000
v 0.000000 0.000000 93.330000
v 0.000000 0.000000 94.950000
v 0.000000 0.000000 95.760000
v 0.000000 0.000000 96.570000
v 0.000000 0.000000 97.380000
v 0.000000 0.000000 98.190000
v 0.000000 0.000000 99.000000
v 0.000000 0.000000 99.810000
v 0.000000 0.000000 100.620000
v 0.000000 0.000000 101.430000
v 0.000000 0.000000 102.240000
v 0.000000 0.000000 103.050000
v 0.000000 0.000000 103.860000
v 0.000000 0.000000 104.670000
v 0.000000 0.087500 94.140000
v 0.000000 0.087500 93.330000
v 0.000000 0.087500 94.950000
v 0.000000 0.087500 95.760000
v 0.000000 0.087500 96.570000
v 0.000000 0.087500 97.380000
v 0.000000 0.087500 98.190000
v 0.000000 0.087500 99.000000
v 0.000000 0.087500 99.810000
v 0.000000 0.087500 100.620000
v 0.000000 0.087500 101.430000
v 0.000000 0.087500 102.240000
v 0.000000 0.087500 103.050000
v 0.000000 0.087500 103.860000
v 0.000000 0.087500 104.670000
v 0.000000 0.175000 94.140000
v 0.000000 0.175000 93.330000
v 0.000000 0.175000 94.950000
v 0.000000 0.175000 95.760000
v 0.000000 0.175000 96.570000
v 0.000000 0.175000 97.380000
v 0.000000 0.175000 98.190000
v 0.000000 0.175000 99.000000
v 0.000000 0.175000 99.810000
v 0.000000 0.175000 100.620000
v 0.000000 0.175000 101.430000
v 0.000000 0.175000 102.240000
v 0.000000 0.175000 103.050000
v 0.000000 0.175000 103.860000
v 0.000000 0.175000 104.670000
v 0.000000 0.262500 94.140000
v 0.000000 0.262500 93.330000
v 0.000000 0.262500 94.950000
v 0.000000 0.262500 95.760000
v 0.000000 0.262500 96.570000
v 0.000000 0.262500 97.380000
v 0.000000 0.262500 98.190000
v 0.000000 0.262500 99.000000
v 0.000000 0.262500 99.810000
v 0.000000 0.262500 100.620000
v 0.000000 0.262500 101.430000
v 0.000000 0.262500 102.240000
v 0.000000 0.262500 103.050000
v 0.000000 0.262500 103.860000
v 0.000000 0.262500 104.670000
v 0.000000 0.350000 94.140000
v 0.000000 0.350000 93.330000
v 0.000000 0.350000 94.950000
v 0.000000 0.350000 95.760000
v 0.000000 0.350000 96.570000
v 0.000000 0.350000 97.380000
v 0.000000 0.350000 98.190000
v 0.000000 0.350000 99.000000
v 0.000000 0.350000 99.810000
v 0.000000 0.350000 100.620000
v 0.000000 0.350000 101.430000
v 0.000000 0.350000 102.240000
v 0.000000 0.350000 103.050000
v 0.000000 0.350000 103.860000
v 0.000000 0.350000 104.670000
v 0.000000 0.437500 94.140000
v 0.000000 0.437500 93.330000
v 0.000000 0.437500 94.950000
v 0.000000 0.437500 95.760000
v 0.000000 0.437500 96.570000
v 0.000000 0.437500 97.380000
v 0.000000 0.437500 98.190000
v 0.000000 0.437500 99.000000
v 0.000000 0.437500 99.810000
v 0.000000 0.437500 100.620000
v 0.000000 0.437500 101.430000
v 0.000000 0.437500 102.240000
v 0.000000 0.437500 103.050000
v 0.000000 0.437500 103.860000
v 0.000000 0.437500 104.670000
f 1 2 3
f 1 3 4
f 1 5 6
f 1 6 4
f 1 2 7
f 1 7 5
f 4 3 8
f 4 8 9
f 4 6 10
f 4 10 9
f 9 8 11
f 9 11 12
f 9 10 13
f 9 13 12
f 12 11 14
f 12 14 15
f 12 13 16
f 12 16 15
f 15 14 17
f 15 17 18
f 15 16 19
f 15 19 18
f 18 17 20
f 18 20 21
f 18 19 22
f 18 22 21
f 21 20 23
f 21 23 24
f 21 22 25
f 21 25 24
f 24 23 26
f 24 26 27
f 24 25 28
f 24 28 27
f 27 26 29
f 27 29 30
f 27 28 31
f 27 31 30
f 30 29 32
f 30 32 33
f 30 31 34
f 30 34 33
f 33 32 35
f 33 35 36
f 33 34 37
f 33 37 36
f 36 35 38
f 36 38 39
f 36 37 40
f 36 40 39
f 39 38 41
f 39 41 42
f 39 40 43
f 39 43 42
f 42 41 44
f 42 44 45
f 42 43 46
f 42 46 45
f 45 46 47
f 45 47 44
f 2 48 49
f 2 49 3
f 48 49 50
f 48 50 51
f 2 48 51
f 2 51 7
f 3 49 52
f 3 52 8
f 49 52 53
f 49 53 50
f 8 52 54
f 8 54 11
f 52 54 55
f 52 55 53
f 11 54 56
f 11 56 14
f 54 56 57
f 54 57 55
f 14 56 58
f 14 58 17
f 56 58 59
f 56 59 57
f 17 58 60
f 17 60 20
f 58 60 61
f 58 61 59
f 20 60 62
f 20 62 23
f 60 62 63
f 60 63 61
f 23 62 64
f 23 64 26
f 62 64 65
f 62 65 63
f 26 64 66
f 26 66 29
f 64 66 67
f 64 67 65
f 29 66 68
f 29 68 32
f 66 68 69
f 66 69 67
f 32 68 70
f 32 70 35
f 68 70 71
f 68 71 69
f 35 70 72
f 35 72 38
f 70 72 73
f 70 73 71
f 38 72 74
f 38 74 41
f 72 74 75
f 72 75 73
f 41 74 76
f 41 76 44
f 74 76 77
f 74 77 75
f 44 47 77
f 44 77 76
f 78 5 6
f 78 6 79
f 78 80 81
f 78 81 79
f 78 5 82
f 78 82 80
f 79 6 10
f 79 10 83
f 79 81 84
f 79 84 83
f 83 10 13
f 83 13 85
f 83 84 86
f 83 86 85
f 85 13 16
f 85 16 87
f 85 86 88
f 85 88 87
f 87 16 19
f 87 19 89
f 87 88 90
f 87 90 89
f 89 19 22
f 89 22 91
f 89 90 92
f 89 92 91
f 91 22 25
f 91 25 93
f 91 92 94
f 91 94 93
f 93 25 28
f 93 28 95
f 93 94 96
f 93 96 95
f 95 28 31
f 95 31 97
f 95 96 98
f 95 98 97
f 97 31 34
f 97 34 99
f 97 98 100
f 97 100 99
f 99 34 37
f 99 37 101
f 99 100 102
f 99 102 101
f 101 37 40
f 101 40 103
f 101 102 104
f 101 104 103
f 103 40 43
f 103 43 105
f 103 104 106
f 103 106 105
f 105 43 46
f 105 46 107
f 105 106 108
f 105 108 107
f 107 108 109
f 107 109 46
f 5 7 110
f 5 110 82
f 46 109 111
f 46 111 47
f 7 51 112
f 7 112 110
f 47 111 113
f 47 113 77
f 51 114 115
f 51 115 50
f 114 115 116
f 114 116 117
f 51 114 117
f 51 117 112
f 50 115 118
f 50 118 53
f 115 118 119
f 115 119 116
f 53 118 120
f 53 120 55
f 118 120 121
f 118 121 119
f 55 120 122
f 55 122 57
f 120 122 123
f 120 123 121
f 57 122 124
f 57 124 59
f 122 124 125
f 122 125 123
f 59 124 126
f 59 126 61
f 124 126 127
f 124 127 125
f 61 126 128
f 61 128 63
f 126 128 129
f 126 129 127
f 63 128 130
f 63 130 65
f 128 130 131
f 128 131 129
f 65 130 132
f 65 132 67
f 130 132 133
f 130 133 131
f 67 132 134
f 67 134 69
f 132 134 135
f 132 135 133
f 69 134 136
f 69 136 71
f 134 136 137
f 134 137 135
f 71 136 138
f 71 138 73
f 136 138 139
f 136 139 137
f 73 138 140
f 73 140 75
f 138 140 141
f 138 141 139
f 75 140 142
f 75 142 77
f 140 142 143
f 140 143 141
f 77 113 143
f 77 143 142
f 80 144 145
f 80 145 81
f 80 82 146
f 80 146 144
f 81 145 147
f 81 147 84
f 84 147 148
f 84 148 86
f 86 148 149
f 86 149 88
f 88 149 150
f 88 150 90
f 90 150 151
f 90 151 92
f 92 151 152
f 92 152 94
f 94 152 153
f 94 153 96
f 96 153 154
f 96 154 98
f 98 154 155
f 98 155 100
f 100 155 156
f 100 156 102
f 102 156 157
f 102 157 104
f 104 157 158
f 104 158 106
f 106 158 159
f 106 159 108
f 108 159 160
f 108 160 109
f 82 110 161
f 82 161 146
f 109 160 162
f 109 162 111
f 110 112 163
f 110 163 161
f 111 162 164
f 111 164 113
f 117 116 165
f 117 165 166
f 112 117 166
f 112 166 163
f 116 119 167
f 116 167 165
f 119 121 168
f 119 168 167
f 121 123 169
f 121 169 168
f 123 125 170
f 123 170 169
f 125 127 171
f 125 171 170
f 127 129 172
f 127 172 171
f 129 131 173
f 129 173 172
f 131 133 174
f 131 174 173
f 133 135 175
f 133 175 174
f 135 137 176
f 135 176 175
f 137 139 177
f 137 177 176
f 139 141 178
f 139 178 177
f 141 143 179
f 141 179 178
f 113 164 179
f 113 179 143
f 180 144 145
f 180 145 181
f 180 182 183
f 180 183 181
f 180 144 184
f 180 184 182
f 181 145 147
f 181 147 185
f 181 183 186
f 181 186 185
f 185 147 148
f 185 148 187
f 185 186 188
f 185 188 187
f 187 148 149
f 187 149 189
f 187 188 190
f 187 190 189
f 189 149 150
f 189 150 191
f 189 190 192
f 189 192 191
f 191 150 151
f 191 151 193
f 191 192 194
f 191 194 193
f 193 151 152
f 193 152 195
f 193 194 196
f 193 196 195
f 195 152 153
f 195 153 197
f 195 196 198
f 195 198 197
f 197 153 154
f 197 154 199
f 197 198 200
f 197 200 199
f 199 154 155
f 199 155 201
f 199 200 202
f 199 202 201
f 201 155 156
f 201 156 203
f 201 202 204
f 201 204 203
f 203 156 157
f 203 157 205
f 203 204 206
f 203 206 205
f 205 157 158
f 205 158 207
f 205 206 208
f 205 208 207
f 207 158 159
f 207 159 209
f 207 208 210
f 207 210 209
f 209 210 211
f 209 211 159
f 144 146 212
f 144 212 184
f 159 211 213
f 159 213 160
f 146 161 214
f 146 214 212
f 160 213 215
f 160 215 162
f 161 163 216
f 161 216 214
f 162 215 217
f 162 217 164
f 163 166 218
f 163 218 216
f 164 217 219
f 164 219 179
f 166 220 221
f 166 221 165
f 220 221 222
f 220 222 223
f 166 220 223
f 166 223 218
f 165 221 224
f 165 224 167
f 221 224 225
f 221 225 222
f 167 224 226
f 167 226 168
f 224 226 227
f 224 227 225
f 168 226 228
f 168 228 169
f 226 228 229
f 226 229 227
f 169 228 230
f 169 230 170
f 228 230 231
f 228 231 229
f 170 230 232
f 170 232 171
f 230 232 233
f 230 233 231
f 171 232 234
f 171 234 172
f 232 234 235
f 232 235 233
f 172 234 236
f 172 236 173
f 234 236 237
f 234 237 235
f 173 236 238
f 173 238 174
f 236 238 239
f 236 239 237
f 174 238 240
f 174 240 175
f 238 240 241
f 238 241 239
f 175 240 242
f 175 242 176
f 240 242 243
f 240 243 241
f 176 242 244
f 176 244 177
f 242 244 245
f 242 245 243
f 177 244 246
f 177 246 178
f 244 246 247
f 244 247 245
f 178 246 248
f 178 248 179
f 246 248 249
f 246 249 247
f 179 219 249
f 179 249 248
f 182 250 251
f 182 251 183
f 182 184 252
f 182 252 250
f 183 251 253
f 183 253 186
f 186 253 254
f 186 254 188
f 188 254 255
f 188 255 190
f 190 255 256
f 190 256 192
f 192 256 257
f 192 257 194
f 194 257 258
f 194 258 196
f 196 258 259
f 196 259 198
f 198 259 260
f 198 260 200
f 200 260 261
f 200 261 202
f 202 261 262
f 202 262 204
f 204 262 263
f 204 263 206
f 206 263 264
f 206 264 208
f 208 264 265
f 208 265 210
f 210 265 266
f 210 266 211
f 184 212 267
f 184 267 252
f 211 266 268
f 211 268 213
f 212 214 269
f 212 269 267
f 213 268 270
f 213 270 215
f 214 216 271
f 214 271 269
f 215 270 272
f 215 272 217
f 216 218 273
f 216 273 271
f 217 272 274
f 217 274 219
f 223 222 275
f 223 275 276
f 218 223 276
f 218 276 273
f 222 225 277
f 222 277 275
f 225 227 278
f 225 278 277
f 227 229 279
f 227 279 278
f 229 231 280
f 229 280 279
f 231 233 281
f 231 281 280
f 233 235 282
f 233 282 281
f 235 237 283
f 235 283 282
f 237 239 284
f 237 284 283
f 239 241 285
f 239 285 284
f 241 243 286
f 241 286 285
f 243 245 287
f 243 287 286
f 245 247 288
f 245 288 287
f 247 249 289
f 247 289 288
f 219 274 289
f 219 289 249
f 290 250 251
f 290 251 291
f 290 292 293
f 290 293 291
f 290 250 294
f 290 294 292
f 291 251 253
f 291 253 295
f 291 293 296
f 291 296 295
f 295 253 254
f 295 254 297
f 295 296 298
f 295 298 297
f 297 254 255
f 297 255 299
f 297 298 300
f 297 300 299
f 299 255 256
f 299 256 301
f 299 300 302
f 299 302 301
f 301 256 257
f 301 257 303
f 301 302 304
f 301 304 303
f 303 257 258
f 303 258 305
f 303 304 306
f 303 306 305
f 305 258 259
f 305 259 307
f 305 306 308
f 305 308 307
f 307 259 260
f 307 260 309
f 307 308 310
f 307 310 309
f 309 260 261
f 309 261 311
f 309 310 312
f 309 312 311
f 311 261 262
f 311 262 313
f 311 312 314
f 311 314 313
f 313 262 263
f 313 263 315
f 313 314 316
f 313 316 315
f 315 263 264
f 315 264 317
f 315 316 318
f 315 318 317
f 317 264 265
f 317 265 319
f 317 318 320
f 317 320 319
f 319 320 321
f 319 321 265
f 250 252 322
f 250 322 294
f 265 321 323
f 265 323 266
f 252 267 324
f 252 324 322
f 266 323 325
f 266 325 268
f 267 269 326
f 267 326 324
f 268 325 327
f 268 327 270
f 269 271 328
f 269 328 326
f 270 327 329
f 270 329 272
f 271 273 330
f 271 330 328
f 272 329 331
f 272 331 274
f 273 276 332
f 273 332 330
f 274 331 333
f 274 333 289
f 276 334 335
f 276 335 275
f 334 335 336
f 334 336 337
f 276 334 337
f 276 337 332
f 275 335 338
f 275 338 277
f 335 338 339
f 335 339 336
f 277 338 340
f 277 340 278
f 338 340 341
f 338 341 339
f 278 340 342
f 278 342 279
f 340 342 343
f 340 343 341
f 279 342 344
f 279 344 280
f 342 344 345
f 342 345 343
f 280 344 346
f 280 346 281
f 344 346 347
f 344 347 345
f 281 346 348
f 281 348 282
f 346 348 349
f 346 349 347
f 282 348 350
f 282 350 283
f 348 350 351
f 348 351 349
f 283 350 352
f 283 352 284
f 350 352 353
f 350 353 351
f 284 352 354
f 284 354 285
f 352 354 355
f 352 355 353
f 285 354 356
f 285 356 286
f 354 356 357
f 354 357 355
f 286 356 358
f 286 358 287
f 356 358 359
f 356 359 357
f 287 358 360
f 287 360 288
f 358 360 361
f 358 361 359
f 288 360 362
f 288 362 289
f 360 362 363
f 360 363 361
f 289 333 363
f 289 363 362
f 364 292 293
f 364 293 365
f 364 366 367
f 364 367 365
f 364 292 368
f 364 368 366
f 365 293 296
f 365 296 369
f 365 367 370
f 365 370 369
f 369 296 298
f 369 298 371
f 369 370 372
f 369 372 371
f 371 298 300
f 371 300 373
f 371 372 374
f 371 374 373
f 373 300 302
f 373 302 375
f 373 374 376
f 373 376 375
f 375 302 304
f 375 304 377
f 375 376 378
f 375 378 377
f 377 304 306
f 377 306 379
f 377 378 380
f 377 380 379
f 379 306 308
f 379 308 381
f 379 380 382
f 379 382 381
f 381 308 310
f 381 310 383
f 381 382 384
f 381 384 383
f 383 310 312
f 383 312 385
f 383 384 386
f 383 386 385
f 385 312 314
f 385 314 387
f 385 386 388
f 385 388 387
f 387 314 316
f 387 316 389
f 387 388 390
f 387 390 389
f 389 316 318
f 389 318 391
f 389 390 392
f 389 392 391
f 391 318 320
f 391 320 393
f 391 392 394
f 391 394 393
f 393 394 395
f 393 395 320
f 292 294 396
f 292 396 368
f 320 395 397
f 320 397 321
f 294 322 398
f 294 398 396
f 321 397 399
f 321 399 323
f 322 324 400
f 322 400 398
f 323 399 401
f 323 401 325
f 324 326 402
f 324 402 400
f 325 401 403
f 325 403 327
f 326 328 404
f 326 404 402
f 327 403 405
f 327 405 329
f 328 330 406
f 328 406 404
f 329 405 407
f 329 407 331
f 330 332 408
f 330 408 406
f 331 407 409
f 331 409 333
f 332 337 410
f 332 410 408
f 333 409 411
f 333 411 363
f 337 412 413
f 337 413 336
f 412 413 414
f 412 414 415
f 337 412 415
f 337 415 410
f 336 413 416
f 336 416 339
f 413 416 417
f 413 417 414
f 339 416 418
f 339 418 341
f 416 418 419
f 416 419 417
f 341 418 420
f 341 420 343
f 418 420 421
f 418 421 419
f 343 420 422
f 343 422 345
f 420 422 423
f 420 423 421
f 345 422 424
f 345 424 347
f 422 424 425
f 422 425 423
f 347 424 426
f 347 426 349
f 424 426 427
f 424 427 425
f 349 426 428
f 349 428 351
f 426 428 429
f 426 429 427
f 351 428 430
f 351 430 353
f 428 430 431
f 428 431 429
f 353 430 432
f 353 432 355
f 430 432 433
f 430 433 431
f 355 432 434
f 355 434 357
f 432 434 435
f 432 435 433
f 357 434 436
f 357 436 359
f 434 436 437
f 434 437 435
f 359 436 438
f 359 438 361
f 436 438 439
f 436 439 437
f 361 438 440
f 361 440 363
f 438 440 441
f 438 441 439
f 363 411 441
f 363 441 440
f 442 443 444
f 442 444 445
f 366 442 443
f 366 443 367
f 366 368 445
f 366 445 442
f 443 446 447
f 443 447 444
f 367 443 446
f 367 446 370
f 446 448 449
f 446 449 447
f 370 446 448
f 370 448 372
f 448 450 451
f 448 451 449
f 372 448 450
f 372 450 374
f 450 452 453
f 450 453 451
f 374 450 452
f 374 452 376
f 452 454 455
f 452 455 453
f 376 452 454
f 376 454 378
f 454 456 457
f 454 457 455
f 378 454 456
f 378 456 380
f 456 458 459
f 456 459 457
f 380 456 458
f 380 458 382
f 458 460 461
f 458 461 459
f 382 458 460
f 382 460 384
f 460 462 463
f 460 463 461
f 384 460 462
f 384 462 386
f 462 464 465
f 462 465 463
f 386 462 464
f 386 464 388
f 464 466 467
f 464 467 465
f 388 464 466
f 388 466 390
f 466 468 469
f 466 469 467
f 390 466 468
f 390 468 392
f 468 470 471
f 468 471 469
f 392 468 470
f 392 470 394
f 394 470 471
f 394 471 395
f 445 444 472
f 445 472 473
f 368 396 473
f 368 473 445
f 444 447 474
f 444 474 472
f 447 449 475
f 447 475 474
f 449 451 476
f 449 476 475
f 451 453 477
f 451 477 476
f 453 455 478
f 453 478 477
f 455 457 479
f 455 479 478
f 457 459 480
f 457 480 479
f 459 461 481
f 459 481 480
f 461 463 482
f 461 482 481
f 463 465 483
f 463 483 482
f 465 467 484
f 465 484 483
f 467 469 485
f 467 485 484
f 469 471 486
f 469 486 485
f 395 471 486
f 395 486 397
f 473 472 487
f 473 487 488
f 396 398 488
f 396 488 473
f 472 474 489
f 472 489 487
f 474 475 490
f 474 490 489
f 475 476 491
f 475 491 490
f 476 477 492
f 476 492 491
f 477 478 493
f 477 493 492
f 478 479 494
f 478 494 493
f 479 480 495
f 479 495 494
f 480 481 496
f 480 496 495
f 481 482 497
f 481 497 496
f 482 483 498
f 482 498 497
f 483 484 499
f 483 499 498
f 484 485 500
f 484 500 499
f 485 486 501
f 485 501 500
f 397 486 501
f 397 501 399
f 488 487 502
f 488 502 503
f 398 400 503
f 398 503 488
f 487 489 504
f 487 504 502
f 489 490 505
f 489 505 504
f 490 491 506
f 490 506 505
f 491 492 507
f 491 507 506
f 492 493 508
f 492 508 507
f 493 494 509
f 493 509 508
f 494 495 510
f 494 510 509
f 495 496 511
f 495 511 510
f 496 497 512
f 496 512 511
f 497 498 513
f 497 513 512
f 498 499 514
f 498 514 513
f 499 500 515
f 499 515 514
f 500 501 516
f 500 516 515
f 399 501 516
f 399 516 401
f 503 502 517
f 503 517 518
f 400 402 518
f 400 518 503
f 502 504 519
f 502 519 517
f 504 505 520
f 504 520 519
f 505 506 521
f 505 521 520
f 506 507 522
f 506 522 521
f 507 508 523
f 507 523 522
f 508 509 524
f 508 524 523
f 509 510 525
f 509 525 524
f 510 511 526
f 510 526 525
f 511 512 527
f 511 527 526
f 512 513 528
f 512 528 527
f 513 514 529
f 513 529 528
f 514 515 530
f 514 530 529
f 515 516 531
f 515 531 530
f 401 516 531
f 401 531 403
f 518 517 532
f 518 532 533
f 402 404 533
f 402 533 518
f 517 519 534
f 517 534 532
f 519 520 535
f 519 535 534
f 520 521 536
f 520 536 535
f 521 522 537
f 521 537 536
f 522 523 538
f 522 538 537
f 523 524 539
f 523 539 538
f 524 525 540
f 524 540 539
f 525 526 541
f 525 541 540
f 526 527 542
f 526 542 541
f 527 528 543
f 527 543 542
f 528 529 544
f 528 544 543
f 529 530 545
f 529 545 544
f 530 531 546
f 530 546 545
f 403 531 546
f 403 546 405
f 533 532 547
f 533 547 548
f 404 406 548
f 404 548 533
f 532 534 549
f 532 549 547
f 534 535 550
f 534 550 549
f 535 536 551
f 535 551 550
f 536 537 552
f 536 552 551
f 537 538 553
f 537 553 552
f 538 539 554
f 538 554 553
f 539 540 555
f 539 555 554
f 540 541 556
f 540 556 555
f 541 542 557
f 541 557 556
f 542 543 558
f 542 558 557
f 543 544 559
f 543 559 558
f 544 545 560
f 544 560 559
f 545 546 561
f 545 561 560
f 405 546 561
f 405 561 407
f 548 547 562
f 548 562 563
f 406 408 563
f 406 563 548
f 547 549 564
f 547 564 562
f 549 550 565
f 549 565 564
f 550 551 566
f 550 566 565
f 551 552 567
f 551 567 566
f 552 553 568
f 552 568 567
f 553 554 569
f 553 569 568
f 554 555 570
f 554 570 569
f 555 556 571
f 555 571 570
f 556 557 572
f 556 572 571
f 557 558 573
f 557 573 572
f 558 559 574
f 558 574 573
f 559 560 575
f 559 575 574
f 560 561 576
f 560 576 575
f 407 561 576
f 407 576 409
f 563 562 577
f 563 577 578
f 408 410 578
f 408 578 563
f 562 564 579
f 562 579 577
f 564 565 580
f 564 580 579
f 565 566 581
f 565 581 580
f 566 567 582
f 566 582 581
f 567 568 583
f 567 583 582
f 568 569 584
f 568 584 583
f 569 570 585
f 569 585 584
f 570 571 586
f 570 586 585
f 571 572 587
f 571 587 586
f 572 573 588
f 572 588 587
f 573 574 589
f 573 589 588
f 574 575 590
f 574 590 589
f 575 576 591
f 575 591 590
f 409 576 591
f 409 591 411
f 578 577 592
f 578 592 593
f 415 414 592
f 415 592 593
f 410 415 593
f 410 593 578
f 577 579 594
f 577 594 592
f 414 417 594
f 414 594 592
f 579 580 595
f 579 595 594
f 417 419 595
f 417 595 594
f 580 581 596
f 580 596 595
f 419 421 596
f 419 596 595
f 581 582 597
f 581 597 596
f 421 423 597
f 421 597 596
f 582 583 598
f 582 598 597
f 423 425 598
f 423 598 597
f 583 584 599
f 583 599 598
f 425 427 599
f 425 599 598
f 584 585 600
f 584 600 599
f 427 429 600
f 427 600 599
f 585 586 601
f 585 601 600
f 429 431 601
f 429 601 600
f 586 587 602
f 586 602 601
f 431 433 602
f 431 602 601
f 587 588 603
f 587 603 602
f 433 435 603
f 433 603 602
f 588 589 604
f 588 604 603
f 435 437 604
f 435 604 603
f 589 590 605
f 589 605 604
f 437 439 605
f 437 605 604
f 590 591 606
f 590 606 605
f 439 441 606
f 439 606 605
f 411 591 606
f 411 606 441
