o [4B] 3D Diagram - S2-03 Group D_131
v -5.015731 7.368750 -9.725000
v -5.015731 7.428125 -9.725000
v -5.015731 7.428125 -9.050000
v -5.015731 7.368750 -9.050000
v -4.952575 7.368750 -9.725000
v -4.952575 7.368750 -9.050000
v -4.952575 7.428125 -9.725000
v -5.015731 7.428125 -8.375000
v -5.015731 7.368750 -8.375000
v -4.952575 7.368750 -8.375000
v -5.015731 7.428125 -7.700000
v -5.015731 7.368750 -7.700000
v -4.952575 7.368750 -7.700000
v -5.015731 7.428125 -7.025000
v -5.015731 7.368750 -7.025000
v -4.952575 7.368750 -7.025000
v -5.015731 7.428125 -6.350000
v -5.015731 7.368750 -6.350000
v -4.952575 7.368750 -6.350000
v -5.015731 7.428125 -5.675000
v -5.015731 7.368750 -5.675000
v -4.952575 7.368750 -5.675000
v -5.015731 7.428125 -5.000000
v -5.015731 7.368750 -5.000000
v -4.952575 7.368750 -5.000000
v -5.015731 7.428125 -4.325000
v -5.015731 7.368750 -4.325000
v -4.952575 7.368750 -4.325000
v -5.015731 7.428125 -3.650000
v -5.015731 7.368750 -3.650000
v -4.952575 7.368750 -3.650000
v -5.015731 7.428125 -2.975000
v -5.015731 7.368750 -2.975000
v -4.952575 7.368750 -2.975000
v -5.015731 7.428125 -2.300000
v -5.015731 7.368750 -2.300000
v -4.952575 7.368750 -2.300000
v -5.015731 7.428125 -1.625000
v -5.015731 7.368750 -1.625000
v -4.952575 7.368750 -1.625000
v -5.015731 7.428125 -0.950000
v -5.015731 7.368750 -0.950000
v -4.952575 7.368750 -0.950000
v -5.015731 7.428125 -0.275000
v -5.015731 7.368750 -0.275000
v -4.952575 7.368750 -0.275000
v -4.952575 7.428125 -0.275000
v -5.015731 7.487500 -9.725000
v -5.015731 7.487500 -9.050000
v -4.952575 7.487500 -9.050000
v -4.952575 7.487500 -9.725000
v -5.015731 7.487500 -8.375000
v -4.952575 7.487500 -8.375000
v -5.015731 7.487500 -7.700000
v -4.952575 7.487500 -7.700000
v -5.015731 7.487500 -7.025000
v -4.952575 7.487500 -7.025000
v -5.015731 7.487500 -6.350000
v -4.952575 7.487500 -6.350000
v -5.015731 7.487500 -5.675000
v -4.952575 7.487500 -5.675000
v -5.015731 7.487500 -5.000000
v -4.952575 7.487500 -5.000000
v -5.015731 7.487500 -4.325000
v -4.952575 7.487500 -4.325000
v -5.015731 7.487500 -3.650000
v -4.952575 7.487500 -3.650000
v -5.015731 7.487500 -2.975000
v -4.952575 7.487500 -2.975000
v -5.015731 7.487500 -2.300000
v -4.952575 7.487500 -2.300000
v -5.015731 7.487500 -1.625000
v -4.952575 7.487500 -1.625000
v -5.015731 7.487500 -0.950000
v -4.952575 7.487500 -0.950000
v -5.015731 7.487500 -0.275000
v -4.952575 7.487500 -0.275000
v -4.952575 7.012500 -9.725000
v -4.952575 7.071875 -9.725000
v -4.952575 7.071875 -9.050000
v -4.952575 7.012500 -9.050000
v -4.889420 7.012500 -9.725000
v -4.889420 7.012500 -9.050000
v -4.889420 7.071875 -9.725000
v -4.952575 7.071875 -8.375000
v -4.952575 7.012500 -8.375000
v -4.889420 7.012500 -8.375000
v -4.952575 7.071875 -7.700000
v -4.952575 7.012500 -7.700000
v -4.889420 7.012500 -7.700000
v -4.952575 7.071875 -7.025000
v -4.952575 7.012500 -7.025000
v -4.889420 7.012500 -7.025000
v -4.952575 7.071875 -6.350000
v -4.952575 7.012500 -6.350000
v -4.889420 7.012500 -6.350000
v -4.952575 7.071875 -5.675000
v -4.952575 7.012500 -5.675000
v -4.889420 7.012500 -5.675000
v -4.952575 7.071875 -5.000000
v -4.952575 7.012500 -5.000000
v -4.889420 7.012500 -5.000000
v -4.952575 7.071875 -4.325000
v -4.952575 7.012500 -4.325000
v -4.889420 7.012500 -4.325000
v -4.952575 7.071875 -3.650000
v -4.952575 7.012500 -3.650000
v -4.889420 7.012500 -3.650000
v -4.952575 7.071875 -2.975000
v -4.952575 7.012500 -2.975000
v -4.889420 7.012500 -2.975000
v -4.952575 7.071875 -2.300000
v -4.952575 7.012500 -2.300000
v -4.889420 7.012500 -2.300000
v -4.952575 7.071875 -1.625000
v -4.952575 7.012500 -1.625000
v -4.889420 7.012500 -1.625000
v -4.952575 7.071875 -0.950000
v -4.952575 7.012500 -0.950000
v -4.889420 7.012500 -0.950000
v -4.952575 7.071875 -0.275000
v -4.952575 7.012500 -0.275000
v -4.889420 7.012500 -0.275000
v -4.889420 7.071875 -0.275000
v -4.952575 7.131250 -9.725000
v -4.952575 7.131250 -9.050000
v -4.889420 7.131250 -9.725000
v -4.952575 7.131250 -8.375000
v -4.952575 7.131250 -7.700000
v -4.952575 7.131250 -7.025000
v -4.952575 7.131250 -6.350000
v -4.952575 7.131250 -5.675000
v -4.952575 7.131250 -5.000000
v -4.952575 7.131250 -4.325000
v -4.952575 7.131250 -3.650000
v -4.952575 7.131250 -2.975000
v -4.952575 7.131250 -2.300000
v -4.952575 7.131250 -1.625000
v -4.952575 7.131250 -0.950000
v -4.952575 7.131250 -0.275000
v -4.889420 7.131250 -0.275000
v -4.952575 7.190625 -9.725000
v -4.952575 7.190625 -9.050000
v -4.889420 7.190625 -9.725000
v -4.952575 7.190625 -8.375000
v -4.952575 7.190625 -7.700000
v -4.952575 7.190625 -7.025000
v -4.952575 7.190625 -6.350000
v -4.952575 7.190625 -5.675000
v -4.952575 7.190625 -5.000000
v -4.952575 7.190625 -4.325000
v -4.952575 7.190625 -3.650000
v -4.952575 7.190625 -2.975000
v -4.952575 7.190625 -2.300000
v -4.952575 7.190625 -1.625000
v -4.952575 7.190625 -0.950000
v -4.952575 7.190625 -0.275000
v -4.889420 7.190625 -0.275000
v -4.952575 7.250000 -9.725000
v -4.952575 7.250000 -9.050000
v -4.889420 7.250000 -9.725000
v -4.952575 7.250000 -8.375000
v -4.952575 7.250000 -7.700000
v -4.952575 7.250000 -7.025000
v -4.952575 7.250000 -6.350000
v -4.952575 7.250000 -5.675000
v -4.952575 7.250000 -5.000000
v -4.952575 7.250000 -4.325000
v -4.952575 7.250000 -3.650000
v -4.952575 7.250000 -2.975000
v -4.952575 7.250000 -2.300000
v -4.952575 7.250000 -1.625000
v -4.952575 7.250000 -0.950000
v -4.952575 7.250000 -0.275000
v -4.889420 7.250000 -0.275000
v -4.952575 7.309375 -9.725000
v -4.952575 7.309375 -9.050000
v -4.889420 7.309375 -9.725000
v -4.952575 7.309375 -8.375000
v -4.952575 7.309375 -7.700000
v -4.952575 7.309375 -7.025000
v -4.952575 7.309375 -6.350000
v -4.952575 7.309375 -5.675000
v -4.952575 7.309375 -5.000000
v -4.952575 7.309375 -4.325000
v -4.952575 7.309375 -3.650000
v -4.952575 7.309375 -2.975000
v -4.952575 7.309375 -2.300000
v -4.952575 7.309375 -1.625000
v -4.952575 7.309375 -0.950000
v -4.952575 7.309375 -0.275000
v -4.889420 7.309375 -0.275000
v -4.889420 7.368750 -9.725000
v -4.889420 7.368750 -0.275000
v -4.889420 7.428125 -9.725000
v -4.889420 7.428125 -0.275000
v -4.889420 7.487500 -9.050000
v -4.889420 7.487500 -9.725000
v -4.889420 7.487500 -8.375000
v -4.889420 7.487500 -7.700000
v -4.889420 7.487500 -7.025000
v -4.889420 7.487500 -6.350000
v -4.889420 7.487500 -5.675000
v -4.889420 7.487500 -5.000000
v -4.889420 7.487500 -4.325000
v -4.889420 7.487500 -3.650000
v -4.889420 7.487500 -2.975000
v -4.889420 7.487500 -2.300000
v -4.889420 7.487500 -1.625000
v -4.889420 7.487500 -0.950000
v -4.889420 7.487500 -0.275000
v -4.826264 7.012500 -9.725000
v -4.826264 7.012500 -9.050000
v -4.826264 7.071875 -9.725000
v -4.826264 7.012500 -8.375000
v -4.826264 7.012500 -7.700000
v -4.826264 7.012500 -7.025000
v -4.826264 7.012500 -6.350000
v -4.826264 7.012500 -5.675000
v -4.826264 7.012500 -5.000000
v -4.826264 7.012500 -4.325000
v -4.826264 7.012500 -3.650000
v -4.826264 7.012500 -2.975000
v -4.826264 7.012500 -2.300000
v -4.826264 7.012500 -1.625000
v -4.826264 7.012500 -0.950000
v -4.826264 7.012500 -0.275000
v -4.826264 7.071875 -0.275000
v -4.826264 7.131250 -9.725000
v -4.826264 7.131250 -0.275000
v -4.826264 7.190625 -9.725000
v -4.826264 7.190625 -0.275000
v -4.826264 7.250000 -9.725000
v -4.826264 7.250000 -0.275000
v -4.826264 7.309375 -9.725000
v -4.826264 7.309375 -0.275000
v -4.826264 7.368750 -9.725000
v -4.826264 7.368750 -0.275000
v -4.826264 7.428125 -9.725000
v -4.826264 7.428125 -0.275000
v -4.826264 7.487500 -9.050000
v -4.826264 7.487500 -9.725000
v -4.826264 7.487500 -8.375000
v -4.826264 7.487500 -7.700000
v -4.826264 7.487500 -7.025000
v -4.826264 7.487500 -6.350000
v -4.826264 7.487500 -5.675000
v -4.826264 7.487500 -5.000000
v -4.826264 7.487500 -4.325000
v -4.826264 7.487500 -3.650000
v -4.826264 7.487500 -2.975000
v -4.826264 7.487500 -2.300000
v -4.826264 7.487500 -1.625000
v -4.826264 7.487500 -0.950000
v -4.826264 7.487500 -0.275000
v -4.763109 7.012500 -9.725000
v -4.763109 7.012500 -9.050000
v -4.763109 7.071875 -9.725000
v -4.763109 7.012500 -8.375000
v -4.763109 7.012500 -7.700000
v -4.763109 7.012500 -7.025000
v -4.763109 7.012500 -6.350000
v -4.763109 7.012500 -5.675000
v -4.763109 7.012500 -5.000000
v -4.763109 7.012500 -4.325000
v -4.763109 7.012500 -3.650000
v -4.763109 7.012500 -2.975000
v -4.763109 7.012500 -2.300000
v -4.763109 7.012500 -1.625000
v -4.763109 7.012500 -0.950000
v -4.763109 7.012500 -0.275000
v -4.763109 7.071875 -0.275000
v -4.763109 7.131250 -9.725000
v -4.763109 7.131250 -0.275000
v -4.763109 7.190625 -9.725000
v -4.763109 7.190625 -0.275000
v -4.763109 7.250000 -9.725000
v -4.763109 7.250000 -0.275000
v -4.763109 7.309375 -9.725000
v -4.763109 7.309375 -0.275000
v -4.763109 7.368750 -9.725000
v -4.763109 7.368750 -0.275000
v -4.763109 7.428125 -9.725000
v -4.763109 7.428125 -0.275000
v -4.763109 7.487500 -9.050000
v -4.763109 7.487500 -9.725000
v -4.763109 7.487500 -8.375000
v -4.763109 7.487500 -7.700000
v -4.763109 7.487500 -7.025000
v -4.763109 7.487500 -6.350000
v -4.763109 7.487500 -5.675000
v -4.763109 7.487500 -5.000000
v -4.763109 7.487500 -4.325000
v -4.763109 7.487500 -3.650000
v -4.763109 7.487500 -2.975000
v -4.763109 7.487500 -2.300000
v -4.763109 7.487500 -1.625000
v -4.763109 7.487500 -0.950000
v -4.763109 7.487500 -0.275000
v -4.699954 7.012500 -9.725000
v -4.699954 7.012500 -9.050000
v -4.699954 7.071875 -9.725000
v -4.699954 7.012500 -8.375000
v -4.699954 7.012500 -7.700000
v -4.699954 7.012500 -7.025000
v -4.699954 7.012500 -6.350000
v -4.699954 7.012500 -5.675000
v -4.699954 7.012500 -5.000000
v -4.699954 7.012500 -4.325000
v -4.699954 7.012500 -3.650000
v -4.699954 7.012500 -2.975000
v -4.699954 7.012500 -2.300000
v -4.699954 7.012500 -1.625000
v -4.699954 7.012500 -0.950000
v -4.699954 7.012500 -0.275000
v -4.699954 7.071875 -0.275000
v -4.699954 7.131250 -9.725000
v -4.699954 7.131250 -0.275000
v -4.699954 7.190625 -9.725000
v -4.699954 7.190625 -0.275000
v -4.699954 7.250000 -9.725000
v -4.699954 7.250000 -0.275000
v -4.699954 7.309375 -9.725000
v -4.699954 7.309375 -0.275000
v -4.699954 7.368750 -9.725000
v -4.699954 7.368750 -0.275000
v -4.699954 7.428125 -9.725000
v -4.699954 7.428125 -0.275000
v -4.699954 7.487500 -9.050000
v -4.699954 7.487500 -9.725000
v -4.699954 7.487500 -8.375000
v -4.699954 7.487500 -7.700000
v -4.699954 7.487500 -7.025000
v -4.699954 7.487500 -6.350000
v -4.699954 7.487500 -5.675000
v -4.699954 7.487500 -5.000000
v -4.699954 7.487500 -4.325000
v -4.699954 7.487500 -3.650000
v -4.699954 7.487500 -2.975000
v -4.699954 7.487500 -2.300000
v -4.699954 7.487500 -1.625000
v -4.699954 7.487500 -0.950000
v -4.699954 7.487500 -0.275000
v -4.636798 7.012500 -9.725000
v -4.636798 7.012500 -9.050000
v -4.636798 7.071875 -9.725000
v -4.636798 7.012500 -8.375000
v -4.636798 7.012500 -7.700000
v -4.636798 7.012500 -7.025000
v -4.636798 7.012500 -6.350000
v -4.636798 7.012500 -5.675000
v -4.636798 7.012500 -5.000000
v -4.636798 7.012500 -4.325000
v -4.636798 7.012500 -3.650000
v -4.636798 7.012500 -2.975000
v -4.636798 7.012500 -2.300000
v -4.636798 7.012500 -1.625000
v -4.636798 7.012500 -0.950000
v -4.636798 7.012500 -0.275000
v -4.636798 7.071875 -0.275000
v -4.636798 7.131250 -9.725000
v -4.636798 7.131250 -0.275000
v -4.636798 7.190625 -9.725000
v -4.636798 7.190625 -0.275000
v -4.636798 7.250000 -9.725000
v -4.636798 7.250000 -0.275000
v -4.636798 7.309375 -9.725000
v -4.636798 7.309375 -0.275000
v -4.636798 7.368750 -9.725000
v -4.636798 7.368750 -0.275000
v -4.636798 7.428125 -9.725000
v -4.636798 7.428125 -0.275000
v -4.636798 7.487500 -9.050000
v -4.636798 7.487500 -9.725000
v -4.636798 7.487500 -8.375000
v -4.636798 7.487500 -7.700000
v -4.636798 7.487500 -7.025000
v -4.636798 7.487500 -6.350000
v -4.636798 7.487500 -5.675000
v -4.636798 7.487500 -5.000000
v -4.636798 7.487500 -4.325000
v -4.636798 7.487500 -3.650000
v -4.636798 7.487500 -2.975000
v -4.636798 7.487500 -2.300000
v -4.636798 7.487500 -1.625000
v -4.636798 7.487500 -0.950000
v -4.636798 7.487500 -0.275000
v -4.573643 7.012500 -9.725000
v -4.573643 7.012500 -9.050000
v -4.573643 7.071875 -9.725000
v -4.573643 7.012500 -8.375000
v -4.573643 7.012500 -7.700000
v -4.573643 7.012500 -7.025000
v -4.573643 7.012500 -6.350000
v -4.573643 7.012500 -5.675000
v -4.573643 7.012500 -5.000000
v -4.573643 7.012500 -4.325000
v -4.573643 7.012500 -3.650000
v -4.573643 7.012500 -2.975000
v -4.573643 7.012500 -2.300000
v -4.573643 7.012500 -1.625000
v -4.573643 7.012500 -0.950000
v -4.573643 7.012500 -0.275000
v -4.573643 7.071875 -0.275000
v -4.573643 7.131250 -9.725000
v -4.573643 7.131250 -0.275000
v -4.573643 7.190625 -9.725000
v -4.573643 7.190625 -0.275000
v -4.573643 7.250000 -9.725000
v -4.573643 7.250000 -0.275000
v -4.573643 7.309375 -9.725000
v -4.573643 7.309375 -0.275000
v -4.573643 7.368750 -9.725000
v -4.573643 7.368750 -0.275000
v -4.573643 7.428125 -9.725000
v -4.573643 7.428125 -0.275000
v -4.573643 7.487500 -9.050000
v -4.573643 7.487500 -9.725000
v -4.573643 7.487500 -8.375000
v -4.573643 7.487500 -7.700000
v -4.573643 7.487500 -7.025000
v -4.573643 7.487500 -6.350000
v -4.573643 7.487500 -5.675000
v -4.573643 7.487500 -5.000000
v -4.573643 7.487500 -4.325000
v -4.573643 7.487500 -3.650000
v -4.573643 7.487500 -2.975000
v -4.573643 7.487500 -2.300000
v -4.573643 7.487500 -1.625000
v -4.573643 7.487500 -0.950000
v -4.573643 7.487500 -0.275000
v -4.510487 7.012500 -9.725000
v -4.510487 7.012500 -9.050000
v -4.510487 7.071875 -9.725000
v -4.510487 7.012500 -8.375000
v -4.510487 7.012500 -7.700000
v -4.510487 7.012500 -7.025000
v -4.510487 7.012500 -6.350000
v -4.510487 7.012500 -5.675000
v -4.510487 7.012500 -5.000000
v -4.510487 7.012500 -4.325000
v -4.510487 7.012500 -3.650000
v -4.510487 7.012500 -2.975000
v -4.510487 7.012500 -2.300000
v -4.510487 7.012500 -1.625000
v -4.510487 7.012500 -0.950000
v -4.510487 7.012500 -0.275000
v -4.510487 7.071875 -0.275000
v -4.510487 7.131250 -9.725000
v -4.510487 7.131250 -0.275000
v -4.510487 7.190625 -9.725000
v -4.510487 7.190625 -0.275000
v -4.510487 7.250000 -9.725000
v -4.510487 7.250000 -0.275000
v -4.510487 7.309375 -9.725000
v -4.510487 7.309375 -0.275000
v -4.510487 7.368750 -9.725000
v -4.510487 7.368750 -0.275000
v -4.510487 7.428125 -9.725000
v -4.510487 7.428125 -0.275000
v -4.510487 7.487500 -9.050000
v -4.510487 7.487500 -9.725000
v -4.510487 7.487500 -8.375000
v -4.510487 7.487500 -7.700000
v -4.510487 7.487500 -7.025000
v -4.510487 7.487500 -6.350000
v -4.510487 7.487500 -5.675000
v -4.510487 7.487500 -5.000000
v -4.510487 7.487500 -4.325000
v -4.510487 7.487500 -3.650000
v -4.510487 7.487500 -2.975000
v -4.510487 7.487500 -2.300000
v -4.510487 7.487500 -1.625000
v -4.510487 7.487500 -0.950000
v -4.510487 7.487500 -0.275000
v -4.447332 7.012500 -9.725000
v -4.447332 7.012500 -9.050000
v -4.447332 7.071875 -9.725000
v -4.447332 7.012500 -8.375000
v -4.447332 7.012500 -7.700000
v -4.447332 7.012500 -7.025000
v -4.447332 7.012500 -6.350000
v -4.447332 7.012500 -5.675000
v -4.447332 7.012500 -5.000000
v -4.447332 7.012500 -4.325000
v -4.447332 7.012500 -3.650000
v -4.447332 7.012500 -2.975000
v -4.447332 7.012500 -2.300000
v -4.447332 7.012500 -1.625000
v -4.447332 7.012500 -0.950000
v -4.447332 7.012500 -0.275000
v -4.447332 7.071875 -0.275000
v -4.447332 7.131250 -9.725000
v -4.447332 7.131250 -0.275000
v -4.447332 7.190625 -9.725000
v -4.447332 7.190625 -0.275000
v -4.447332 7.250000 -9.725000
v -4.447332 7.250000 -0.275000
v -4.447332 7.309375 -9.725000
v -4.447332 7.309375 -0.275000
v -4.447332 7.368750 -9.725000
v -4.447332 7.368750 -0.275000
v -4.447332 7.428125 -9.725000
v -4.447332 7.428125 -0.275000
v -4.447332 7.487500 -9.050000
v -4.447332 7.487500 -9.725000
v -4.447332 7.487500 -8.375000
v -4.447332 7.487500 -7.700000
v -4.447332 7.487500 -7.025000
v -4.447332 7.487500 -6.350000
v -4.447332 7.487500 -5.675000
v -4.447332 7.487500 -5.000000
v -4.447332 7.487500 -4.325000
v -4.447332 7.487500 -3.650000
v -4.447332 7.487500 -2.975000
v -4.447332 7.487500 -2.300000
v -4.447332 7.487500 -1.625000
v -4.447332 7.487500 -0.950000
v -4.447332 7.487500 -0.275000
v -4.384176 7.012500 -9.725000
v -4.384176 7.012500 -9.050000
v -4.384176 7.071875 -9.725000
v -4.384176 7.012500 -8.375000
v -4.384176 7.012500 -7.700000
v -4.384176 7.012500 -7.025000
v -4.384176 7.012500 -6.350000
v -4.384176 7.012500 -5.675000
v -4.384176 7.012500 -5.000000
v -4.384176 7.012500 -4.325000
v -4.384176 7.012500 -3.650000
v -4.384176 7.012500 -2.975000
v -4.384176 7.012500 -2.300000
v -4.384176 7.012500 -1.625000
v -4.384176 7.012500 -0.950000
v -4.384176 7.012500 -0.275000
v -4.384176 7.071875 -0.275000
v -4.384176 7.131250 -9.725000
v -4.384176 7.131250 -0.275000
v -4.384176 7.190625 -9.725000
v -4.384176 7.190625 -0.275000
v -4.384176 7.250000 -9.725000
v -4.384176 7.250000 -0.275000
v -4.384176 7.309375 -9.725000
v -4.384176 7.309375 -0.275000
v -4.384176 7.368750 -9.725000
v -4.384176 7.368750 -0.275000
v -4.384176 7.428125 -9.725000
v -4.384176 7.428125 -0.275000
v -4.384176 7.487500 -9.050000
v -4.384176 7.487500 -9.725000
v -4.384176 7.487500 -8.375000
v -4.384176 7.487500 -7.700000
v -4.384176 7.487500 -7.025000
v -4.384176 7.487500 -6.350000
v -4.384176 7.487500 -5.675000
v -4.384176 7.487500 -5.000000
v -4.384176 7.487500 -4.325000
v -4.384176 7.487500 -3.650000
v -4.384176 7.487500 -2.975000
v -4.384176 7.487500 -2.300000
v -4.384176 7.487500 -1.625000
v -4.384176 7.487500 -0.950000
v -4.384176 7.487500 -0.275000
v -4.321021 7.012500 -9.725000
v -4.321021 7.012500 -9.050000
v -4.321021 7.071875 -9.725000
v -4.321021 7.012500 -8.375000
v -4.321021 7.012500 -7.700000
v -4.321021 7.012500 -7.025000
v -4.321021 7.012500 -6.350000
v -4.321021 7.012500 -5.675000
v -4.321021 7.012500 -5.000000
v -4.321021 7.012500 -4.325000
v -4.321021 7.012500 -3.650000
v -4.321021 7.012500 -2.975000
v -4.321021 7.012500 -2.300000
v -4.321021 7.012500 -1.625000
v -4.321021 7.012500 -0.950000
v -4.321021 7.012500 -0.275000
v -4.321021 7.071875 -0.275000
v -4.321021 7.131250 -9.725000
v -4.321021 7.131250 -0.275000
v -4.321021 7.190625 -9.725000
v -4.321021 7.190625 -0.275000
v -4.321021 7.250000 -9.725000
v -4.321021 7.250000 -0.275000
v -4.321021 7.309375 -9.725000
v -4.321021 7.309375 -0.275000
v -4.321021 7.368750 -9.725000
v -4.321021 7.368750 -0.275000
v -4.321021 7.428125 -9.725000
v -4.321021 7.428125 -0.275000
v -4.321021 7.487500 -9.050000
v -4.321021 7.487500 -9.725000
v -4.321021 7.487500 -8.375000
v -4.321021 7.487500 -7.700000
v -4.321021 7.487500 -7.025000
v -4.321021 7.487500 -6.350000
v -4.321021 7.487500 -5.675000
v -4.321021 7.487500 -5.000000
v -4.321021 7.487500 -4.325000
v -4.321021 7.487500 -3.650000
v -4.321021 7.487500 -2.975000
v -4.321021 7.487500 -2.300000
v -4.321021 7.487500 -1.625000
v -4.321021 7.487500 -0.950000
v -4.321021 7.487500 -0.275000
v -4.257865 7.012500 -9.725000
v -4.257865 7.012500 -9.050000
v -4.257865 7.071875 -9.725000
v -4.257865 7.012500 -8.375000
v -4.257865 7.012500 -7.700000
v -4.257865 7.012500 -7.025000
v -4.257865 7.012500 -6.350000
v -4.257865 7.012500 -5.675000
v -4.257865 7.012500 -5.000000
v -4.257865 7.012500 -4.325000
v -4.257865 7.012500 -3.650000
v -4.257865 7.012500 -2.975000
v -4.257865 7.012500 -2.300000
v -4.257865 7.012500 -1.625000
v -4.257865 7.012500 -0.950000
v -4.257865 7.012500 -0.275000
v -4.257865 7.071875 -0.275000
v -4.257865 7.131250 -9.725000
v -4.257865 7.131250 -0.275000
v -4.257865 7.190625 -9.725000
v -4.257865 7.190625 -0.275000
v -4.257865 7.250000 -9.725000
v -4.257865 7.250000 -0.275000
v -4.257865 7.309375 -9.725000
v -4.257865 7.309375 -0.275000
v -4.257865 7.368750 -9.725000
v -4.257865 7.368750 -0.275000
v -4.257865 7.428125 -9.725000
v -4.257865 7.428125 -0.275000
v -4.257865 7.487500 -9.050000
v -4.257865 7.487500 -9.725000
v -4.257865 7.487500 -8.375000
v -4.257865 7.487500 -7.700000
v -4.257865 7.487500 -7.025000
v -4.257865 7.487500 -6.350000
v -4.257865 7.487500 -5.675000
v -4.257865 7.487500 -5.000000
v -4.257865 7.487500 -4.325000
v -4.257865 7.487500 -3.650000
v -4.257865 7.487500 -2.975000
v -4.257865 7.487500 -2.300000
v -4.257865 7.487500 -1.625000
v -4.257865 7.487500 -0.950000
v -4.257865 7.487500 -0.275000
v -4.194710 7.012500 -9.725000
v -4.194710 7.012500 -9.050000
v -4.194710 7.071875 -9.725000
v -4.194710 7.012500 -8.375000
v -4.194710 7.012500 -7.700000
v -4.194710 7.012500 -7.025000
v -4.194710 7.012500 -6.350000
v -4.194710 7.012500 -5.675000
v -4.194710 7.012500 -5.000000
v -4.194710 7.012500 -4.325000
v -4.194710 7.012500 -3.650000
v -4.194710 7.012500 -2.975000
v -4.194710 7.012500 -2.300000
v -4.194710 7.012500 -1.625000
v -4.194710 7.012500 -0.950000
v -4.194710 7.012500 -0.275000
v -4.194710 7.071875 -0.275000
v -4.194710 7.131250 -9.725000
v -4.194710 7.131250 -0.275000
v -4.194710 7.190625 -9.725000
v -4.194710 7.190625 -0.275000
v -4.194710 7.250000 -9.725000
v -4.194710 7.250000 -0.275000
v -4.194710 7.309375 -9.725000
v -4.194710 7.309375 -0.275000
v -4.194710 7.368750 -9.725000
v -4.194710 7.368750 -0.275000
v -4.194710 7.428125 -9.725000
v -4.194710 7.428125 -0.275000
v -4.194710 7.487500 -9.050000
v -4.194710 7.487500 -9.725000
v -4.194710 7.487500 -8.375000
v -4.194710 7.487500 -7.700000
v -4.194710 7.487500 -7.025000
v -4.194710 7.487500 -6.350000
v -4.194710 7.487500 -5.675000
v -4.194710 7.487500 -5.000000
v -4.194710 7.487500 -4.325000
v -4.194710 7.487500 -3.650000
v -4.194710 7.487500 -2.975000
v -4.194710 7.487500 -2.300000
v -4.194710 7.487500 -1.625000
v -4.194710 7.487500 -0.950000
v -4.194710 7.487500 -0.275000
v -4.131555 7.012500 -9.725000
v -4.131555 7.012500 -9.050000
v -4.131555 7.071875 -9.725000
v -4.131555 7.012500 -8.375000
v -4.131555 7.012500 -7.700000
v -4.131555 7.012500 -7.025000
v -4.131555 7.012500 -6.350000
v -4.131555 7.012500 -5.675000
v -4.131555 7.012500 -5.000000
v -4.131555 7.012500 -4.325000
v -4.131555 7.012500 -3.650000
v -4.131555 7.012500 -2.975000
v -4.131555 7.012500 -2.300000
v -4.131555 7.012500 -1.625000
v -4.131555 7.012500 -0.950000
v -4.131555 7.012500 -0.275000
v -4.131555 7.071875 -0.275000
v -4.131555 7.131250 -9.725000
v -4.131555 7.131250 -0.275000
v -4.131555 7.190625 -9.725000
v -4.131555 7.190625 -0.275000
v -4.131555 7.250000 -9.725000
v -4.131555 7.250000 -0.275000
v -4.131555 7.309375 -9.725000
v -4.131555 7.309375 -0.275000
v -4.131555 7.368750 -9.725000
v -4.131555 7.368750 -0.275000
v -4.131555 7.428125 -9.725000
v -4.131555 7.428125 -0.275000
v -4.131555 7.487500 -9.050000
v -4.131555 7.487500 -9.725000
v -4.131555 7.487500 -8.375000
v -4.131555 7.487500 -7.700000
v -4.131555 7.487500 -7.025000
v -4.131555 7.487500 -6.350000
v -4.131555 7.487500 -5.675000
v -4.131555 7.487500 -5.000000
v -4.131555 7.487500 -4.325000
v -4.131555 7.487500 -3.650000
v -4.131555 7.487500 -2.975000
v -4.131555 7.487500 -2.300000
v -4.131555 7.487500 -1.625000
v -4.131555 7.487500 -0.950000
v -4.131555 7.487500 -0.275000
v -4.068399 7.012500 -9.725000
v -4.068399 7.012500 -9.050000
v -4.068399 7.071875 -9.725000
v -4.068399 7.012500 -8.375000
v -4.068399 7.012500 -7.700000
v -4.068399 7.012500 -7.025000
v -4.068399 7.012500 -6.350000
v -4.068399 7.012500 -5.675000
v -4.068399 7.012500 -5.000000
v -4.068399 7.012500 -4.325000
v -4.068399 7.012500 -3.650000
v -4.068399 7.012500 -2.975000
v -4.068399 7.012500 -2.300000
v -4.068399 7.012500 -1.625000
v -4.068399 7.012500 -0.950000
v -4.068399 7.012500 -0.275000
v -4.068399 7.071875 -0.275000
v -4.068399 7.131250 -9.725000
v -4.068399 7.131250 -0.275000
v -4.068399 7.190625 -9.725000
v -4.068399 7.190625 -0.275000
v -4.068399 7.250000 -9.725000
v -4.068399 7.250000 -0.275000
v -4.068399 7.309375 -9.725000
v -4.068399 7.309375 -0.275000
v -4.068399 7.368750 -9.725000
v -4.068399 7.368750 -0.275000
v -4.068399 7.428125 -9.725000
v -4.068399 7.428125 -0.275000
v -4.068399 7.487500 -9.050000
v -4.068399 7.487500 -9.725000
v -4.068399 7.487500 -8.375000
v -4.068399 7.487500 -7.700000
v -4.068399 7.487500 -7.025000
v -4.068399 7.487500 -6.350000
v -4.068399 7.487500 -5.675000
v -4.068399 7.487500 -5.000000
v -4.068399 7.487500 -4.325000
v -4.068399 7.487500 -3.650000
v -4.068399 7.487500 -2.975000
v -4.068399 7.487500 -2.300000
v -4.068399 7.487500 -1.625000
v -4.068399 7.487500 -0.950000
v -4.068399 7.487500 -0.275000
v -4.005244 7.012500 -9.725000
v -4.005244 7.012500 -9.050000
v -4.005244 7.071875 -9.050000
v -4.005244 7.071875 -9.725000
v -4.005244 7.012500 -8.375000
v -4.005244 7.071875 -8.375000
v -4.005244 7.012500 -7.700000
v -4.005244 7.071875 -7.700000
v -4.005244 7.012500 -7.025000
v -4.005244 7.071875 -7.025000
v -4.005244 7.012500 -6.350000
v -4.005244 7.071875 -6.350000
v -4.005244 7.012500 -5.675000
v -4.005244 7.071875 -5.675000
v -4.005244 7.012500 -5.000000
v -4.005244 7.071875 -5.000000
v -4.005244 7.012500 -4.325000
v -4.005244 7.071875 -4.325000
v -4.005244 7.012500 -3.650000
v -4.005244 7.071875 -3.650000
v -4.005244 7.012500 -2.975000
v -4.005244 7.071875 -2.975000
v -4.005244 7.012500 -2.300000
v -4.005244 7.071875 -2.300000
v -4.005244 7.012500 -1.625000
v -4.005244 7.071875 -1.625000
v -4.005244 7.012500 -0.950000
v -4.005244 7.071875 -0.950000
v -4.005244 7.012500 -0.275000
v -4.005244 7.071875 -0.275000
v -4.005244 7.131250 -9.050000
v -4.005244 7.131250 -9.725000
v -4.005244 7.131250 -8.375000
v -4.005244 7.131250 -7.700000
v -4.005244 7.131250 -7.025000
v -4.005244 7.131250 -6.350000
v -4.005244 7.131250 -5.675000
v -4.005244 7.131250 -5.000000
v -4.005244 7.131250 -4.325000
v -4.005244 7.131250 -3.650000
v -4.005244 7.131250 -2.975000
v -4.005244 7.131250 -2.300000
v -4.005244 7.131250 -1.625000
v -4.005244 7.131250 -0.950000
v -4.005244 7.131250 -0.275000
v -4.005244 7.190625 -9.050000
v -4.005244 7.190625 -9.725000
v -4.005244 7.190625 -8.375000
v -4.005244 7.190625 -7.700000
v -4.005244 7.190625 -7.025000
v -4.005244 7.190625 -6.350000
v -4.005244 7.190625 -5.675000
v -4.005244 7.190625 -5.000000
v -4.005244 7.190625 -4.325000
v -4.005244 7.190625 -3.650000
v -4.005244 7.190625 -2.975000
v -4.005244 7.190625 -2.300000
v -4.005244 7.190625 -1.625000
v -4.005244 7.190625 -0.950000
v -4.005244 7.190625 -0.275000
v -4.005244 7.250000 -9.050000
v -4.005244 7.250000 -9.725000
v -4.005244 7.250000 -8.375000
v -4.005244 7.250000 -7.700000
v -4.005244 7.250000 -7.025000
v -4.005244 7.250000 -6.350000
v -4.005244 7.250000 -5.675000
v -4.005244 7.250000 -5.000000
v -4.005244 7.250000 -4.325000
v -4.005244 7.250000 -3.650000
v -4.005244 7.250000 -2.975000
v -4.005244 7.250000 -2.300000
v -4.005244 7.250000 -1.625000
v -4.005244 7.250000 -0.950000
v -4.005244 7.250000 -0.275000
v -4.005244 7.309375 -9.050000
v -4.005244 7.309375 -9.725000
v -4.005244 7.309375 -8.375000
v -4.005244 7.309375 -7.700000
v -4.005244 7.309375 -7.025000
v -4.005244 7.309375 -6.350000
v -4.005244 7.309375 -5.675000
v -4.005244 7.309375 -5.000000
v -4.005244 7.309375 -4.325000
v -4.005244 7.309375 -3.650000
v -4.005244 7.309375 -2.975000
v -4.005244 7.309375 -2.300000
v -4.005244 7.309375 -1.625000
v -4.005244 7.309375 -0.950000
v -4.005244 7.309375 -0.275000
v -4.005244 7.368750 -9.050000
v -4.005244 7.368750 -9.725000
v -4.005244 7.368750 -8.375000
v -4.005244 7.368750 -7.700000
v -4.005244 7.368750 -7.025000
v -4.005244 7.368750 -6.350000
v -4.005244 7.368750 -5.675000
v -4.005244 7.368750 -5.000000
v -4.005244 7.368750 -4.325000
v -4.005244 7.368750 -3.650000
v -4.005244 7.368750 -2.975000
v -4.005244 7.368750 -2.300000
v -4.005244 7.368750 -1.625000
v -4.005244 7.368750 -0.950000
v -4.005244 7.368750 -0.275000
v -4.005244 7.428125 -9.050000
v -4.005244 7.428125 -9.725000
v -4.005244 7.428125 -8.375000
v -4.005244 7.428125 -7.700000
v -4.005244 7.428125 -7.025000
v -4.005244 7.428125 -6.350000
v -4.005244 7.428125 -5.675000
v -4.005244 7.428125 -5.000000
v -4.005244 7.428125 -4.325000
v -4.005244 7.428125 -3.650000
v -4.005244 7.428125 -2.975000
v -4.005244 7.428125 -2.300000
v -4.005244 7.428125 -1.625000
v -4.005244 7.428125 -0.950000
v -4.005244 7.428125 -0.275000
v -4.005244 7.487500 -9.050000
v -4.005244 7.487500 -9.725000
v -4.005244 7.487500 -8.375000
v -4.005244 7.487500 -7.700000
v -4.005244 7.487500 -7.025000
v -4.005244 7.487500 -6.350000
v -4.005244 7.487500 -5.675000
v -4.005244 7.487500 -5.000000
v -4.005244 7.487500 -4.325000
v -4.005244 7.487500 -3.650000
v -4.005244 7.487500 -2.975000
v -4.005244 7.487500 -2.300000
v -4.005244 7.487500 -1.625000
v -4.005244 7.487500 -0.950000
v -4.005244 7.487500 -0.275000
f 1 2 3
f 1 3 4
f 1 5 6
f 1 6 4
f 1 2 7
f 1 7 5
f 4 3 8
f 4 8 9
f 4 6 10
f 4 10 9
f 9 8 11
f 9 11 12
f 9 10 13
f 9 13 12
f 12 11 14
f 12 14 15
f 12 13 16
f 12 16 15
f 15 14 17
f 15 17 18
f 15 16 19
f 15 19 18
f 18 17 20
f 18 20 21
f 18 19 22
f 18 22 21
f 21 20 23
f 21 23 24
f 21 22 25
f 21 25 24
f 24 23 26
f 24 26 27
f 24 25 28
f 24 28 27
f 27 26 29
f 27 29 30
f 27 28 31
f 27 31 30
f 30 29 32
f 30 32 33
f 30 31 34
f 30 34 33
f 33 32 35
f 33 35 36
f 33 34 37
f 33 37 36
f 36 35 38
f 36 38 39
f 36 37 40
f 36 40 39
f 39 38 41
f 39 41 42
f 39 40 43
f 39 43 42
f 42 41 44
f 42 44 45
f 42 43 46
f 42 46 45
f 45 46 47
f 45 47 44
f 2 48 49
f 2 49 3
f 48 49 50
f 48 50 51
f 2 48 51
f 2 51 7
f 3 49 52
f 3 52 8
f 49 52 53
f 49 53 50
f 8 52 54
f 8 54 11
f 52 54 55
f 52 55 53
f 11 54 56
f 11 56 14
f 54 56 57
f 54 57 55
f 14 56 58
f 14 58 17
f 56 58 59
f 56 59 57
f 17 58 60
f 17 60 20
f 58 60 61
f 58 61 59
f 20 60 62
f 20 62 23
f 60 62 63
f 60 63 61
f 23 62 64
f 23 64 26
f 62 64 65
f 62 65 63
f 26 64 66
f 26 66 29
f 64 66 67
f 64 67 65
f 29 66 68
f 29 68 32
f 66 68 69
f 66 69 67
f 32 68 70
f 32 70 35
f 68 70 71
f 68 71 69
f 35 70 72
f 35 72 38
f 70 72 73
f 70 73 71
f 38 72 74
f 38 74 41
f 72 74 75
f 72 75 73
f 41 74 76
f 41 76 44
f 74 76 77
f 74 77 75
f 44 47 77
f 44 77 76
f 78 79 80
f 78 80 81
f 78 82 83
f 78 83 81
f 78 79 84
f 78 84 82
f 81 80 85
f 81 85 86
f 81 83 87
f 81 87 86
f 86 85 88
f 86 88 89
f 86 87 90
f 86 90 89
f 89 88 91
f 89 91 92
f 89 90 93
f 89 93 92
f 92 91 94
f 92 94 95
f 92 93 96
f 92 96 95
f 95 94 97
f 95 97 98
f 95 96 99
f 95 99 98
f 98 97 100
f 98 100 101
f 98 99 102
f 98 102 101
f 101 100 103
f 101 103 104
f 101 102 105
f 101 105 104
f 104 103 106
f 104 106 107
f 104 105 108
f 104 108 107
f 107 106 109
f 107 109 110
f 107 108 111
f 107 111 110
f 110 109 112
f 110 112 113
f 110 111 114
f 110 114 113
f 113 112 115
f 113 115 116
f 113 114 117
f 113 117 116
f 116 115 118
f 116 118 119
f 116 117 120
f 116 120 119
f 119 118 121
f 119 121 122
f 119 120 123
f 119 123 122
f 122 123 124
f 122 124 121
f 79 125 126
f 79 126 80
f 79 125 127
f 79 127 84
f 80 126 128
f 80 128 85
f 85 128 129
f 85 129 88
f 88 129 130
f 88 130 91
f 91 130 131
f 91 131 94
f 94 131 132
f 94 132 97
f 97 132 133
f 97 133 100
f 100 133 134
f 100 134 103
f 103 134 135
f 103 135 106
f 106 135 136
f 106 136 109
f 109 136 137
f 109 137 112
f 112 137 138
f 112 138 115
f 115 138 139
f 115 139 118
f 118 139 140
f 118 140 121
f 121 124 141
f 121 141 140
f 125 142 143
f 125 143 126
f 125 142 144
f 125 144 127
f 126 143 145
f 126 145 128
f 128 145 146
f 128 146 129
f 129 146 147
f 129 147 130
f 130 147 148
f 130 148 131
f 131 148 149
f 131 149 132
f 132 149 150
f 132 150 133
f 133 150 151
f 133 151 134
f 134 151 152
f 134 152 135
f 135 152 153
f 135 153 136
f 136 153 154
f 136 154 137
f 137 154 155
f 137 155 138
f 138 155 156
f 138 156 139
f 139 156 157
f 139 157 140
f 140 141 158
f 140 158 157
f 142 159 160
f 142 160 143
f 142 159 161
f 142 161 144
f 143 160 162
f 143 162 145
f 145 162 163
f 145 163 146
f 146 163 164
f 146 164 147
f 147 164 165
f 147 165 148
f 148 165 166
f 148 166 149
f 149 166 167
f 149 167 150
f 150 167 168
f 150 168 151
f 151 168 169
f 151 169 152
f 152 169 170
f 152 170 153
f 153 170 171
f 153 171 154
f 154 171 172
f 154 172 155
f 155 172 173
f 155 173 156
f 156 173 174
f 156 174 157
f 157 158 175
f 157 175 174
f 159 176 177
f 159 177 160
f 159 176 178
f 159 178 161
f 160 177 179
f 160 179 162
f 162 179 180
f 162 180 163
f 163 180 181
f 163 181 164
f 164 181 182
f 164 182 165
f 165 182 183
f 165 183 166
f 166 183 184
f 166 184 167
f 167 184 185
f 167 185 168
f 168 185 186
f 168 186 169
f 169 186 187
f 169 187 170
f 170 187 188
f 170 188 171
f 171 188 189
f 171 189 172
f 172 189 190
f 172 190 173
f 173 190 191
f 173 191 174
f 174 175 192
f 174 192 191
f 176 5 6
f 176 6 177
f 176 5 193
f 176 193 178
f 177 6 10
f 177 10 179
f 179 10 13
f 179 13 180
f 180 13 16
f 180 16 181
f 181 16 19
f 181 19 182
f 182 19 22
f 182 22 183
f 183 22 25
f 183 25 184
f 184 25 28
f 184 28 185
f 185 28 31
f 185 31 186
f 186 31 34
f 186 34 187
f 187 34 37
f 187 37 188
f 188 37 40
f 188 40 189
f 189 40 43
f 189 43 190
f 190 43 46
f 190 46 191
f 191 192 194
f 191 194 46
f 5 7 195
f 5 195 193
f 46 194 196
f 46 196 47
f 51 50 197
f 51 197 198
f 7 51 198
f 7 198 195
f 50 53 199
f 50 199 197
f 53 55 200
f 53 200 199
f 55 57 201
f 55 201 200
f 57 59 202
f 57 202 201
f 59 61 203
f 59 203 202
f 61 63 204
f 61 204 203
f 63 65 205
f 63 205 204
f 65 67 206
f 65 206 205
f 67 69 207
f 67 207 206
f 69 71 208
f 69 208 207
f 71 73 209
f 71 209 208
f 73 75 210
f 73 210 209
f 75 77 211
f 75 211 210
f 47 196 211
f 47 211 77
f 82 212 213
f 82 213 83
f 82 84 214
f 82 214 212
f 83 213 215
f 83 215 87
f 87 215 216
f 87 216 90
f 90 216 217
f 90 217 93
f 93 217 218
f 93 218 96
f 96 218 219
f 96 219 99
f 99 219 220
f 99 220 102
f 102 220 221
f 102 221 105
f 105 221 222
f 105 222 108
f 108 222 223
f 108 223 111
f 111 223 224
f 111 224 114
f 114 224 225
f 114 225 117
f 117 225 226
f 117 226 120
f 120 226 227
f 120 227 123
f 123 227 228
f 123 228 124
f 84 127 229
f 84 229 214
f 124 228 230
f 124 230 141
f 127 144 231
f 127 231 229
f 141 230 232
f 141 232 158
f 144 161 233
f 144 233 231
f 158 232 234
f 158 234 175
f 161 178 235
f 161 235 233
f 175 234 236
f 175 236 192
f 178 193 237
f 178 237 235
f 192 236 238
f 192 238 194
f 193 195 239
f 193 239 237
f 194 238 240
f 194 240 196
f 198 197 241
f 198 241 242
f 195 198 242
f 195 242 239
f 197 199 243
f 197 243 241
f 199 200 244
f 199 244 243
f 200 201 245
f 200 245 244
f 201 202 246
f 201 246 245
f 202 203 247
f 202 247 246
f 203 204 248
f 203 248 247
f 204 205 249
f 204 249 248
f 205 206 250
f 205 250 249
f 206 207 251
f 206 251 250
f 207 208 252
f 207 252 251
f 208 209 253
f 208 253 252
f 209 210 254
f 209 254 253
f 210 211 255
f 210 255 254
f 196 240 255
f 196 255 211
f 212 256 257
f 212 257 213
f 212 214 258
f 212 258 256
f 213 257 259
f 213 259 215
f 215 259 260
f 215 260 216
f 216 260 261
f 216 261 217
f 217 261 262
f 217 262 218
f 218 262 263
f 218 263 219
f 219 263 264
f 219 264 220
f 220 264 265
f 220 265 221
f 221 265 266
f 221 266 222
f 222 266 267
f 222 267 223
f 223 267 268
f 223 268 224
f 224 268 269
f 224 269 225
f 225 269 270
f 225 270 226
f 226 270 271
f 226 271 227
f 227 271 272
f 227 272 228
f 214 229 273
f 214 273 258
f 228 272 274
f 228 274 230
f 229 231 275
f 229 275 273
f 230 274 276
f 230 276 232
f 231 233 277
f 231 277 275
f 232 276 278
f 232 278 234
f 233 235 279
f 233 279 277
f 234 278 280
f 234 280 236
f 235 237 281
f 235 281 279
f 236 280 282
f 236 282 238
f 237 239 283
f 237 283 281
f 238 282 284
f 238 284 240
f 242 241 285
f 242 285 286
f 239 242 286
f 239 286 283
f 241 243 287
f 241 287 285
f 243 244 288
f 243 288 287
f 244 245 289
f 244 289 288
f 245 246 290
f 245 290 289
f 246 247 291
f 246 291 290
f 247 248 292
f 247 292 291
f 248 249 293
f 248 293 292
f 249 250 294
f 249 294 293
f 250 251 295
f 250 295 294
f 251 252 296
f 251 296 295
f 252 253 297
f 252 297 296
f 253 254 298
f 253 298 297
f 254 255 299
f 254 299 298
f 240 284 299
f 240 299 255
f 256 300 301
f 256 301 257
f 256 258 302
f 256 302 300
f 257 301 303
f 257 303 259
f 259 303 304
f 259 304 260
f 260 304 305
f 260 305 261
f 261 305 306
f 261 306 262
f 262 306 307
f 262 307 263
f 263 307 308
f 263 308 264
f 264 308 309
f 264 309 265
f 265 309 310
f 265 310 266
f 266 310 311
f 266 311 267
f 267 311 312
f 267 312 268
f 268 312 313
f 268 313 269
f 269 313 314
f 269 314 270
f 270 314 315
f 270 315 271
f 271 315 316
f 271 316 272
f 258 273 317
f 258 317 302
f 272 316 318
f 272 318 274
f 273 275 319
f 273 319 317
f 274 318 320
f 274 320 276
f 275 277 321
f 275 321 319
f 276 320 322
f 276 322 278
f 277 279 323
f 277 323 321
f 278 322 324
f 278 324 280
f 279 281 325
f 279 325 323
f 280 324 326
f 280 326 282
f 281 283 327
f 281 327 325
f 282 326 328
f 282 328 284
f 286 285 329
f 286 329 330
f 283 286 330
f 283 330 327
f 285 287 331
f 285 331 329
f 287 288 332
f 287 332 331
f 288 289 333
f 288 333 332
f 289 290 334
f 289 334 333
f 290 291 335
f 290 335 334
f 291 292 336
f 291 336 335
f 292 293 337
f 292 337 336
f 293 294 338
f 293 338 337
f 294 295 339
f 294 339 338
f 295 296 340
f 295 340 339
f 296 297 341
f 296 341 340
f 297 298 342
f 297 342 341
f 298 299 343
f 298 343 342
f 284 328 343
f 284 343 299
f 300 344 345
f 300 345 301
f 300 302 346
f 300 346 344
f 301 345 347
f 301 347 303
f 303 347 348
f 303 348 304
f 304 348 349
f 304 349 305
f 305 349 350
f 305 350 306
f 306 350 351
f 306 351 307
f 307 351 352
f 307 352 308
f 308 352 353
f 308 353 309
f 309 353 354
f 309 354 310
f 310 354 355
f 310 355 311
f 311 355 356
f 311 356 312
f 312 356 357
f 312 357 313
f 313 357 358
f 313 358 314
f 314 358 359
f 314 359 315
f 315 359 360
f 315 360 316
f 302 317 361
f 302 361 346
f 316 360 362
f 316 362 318
f 317 319 363
f 317 363 361
f 318 362 364
f 318 364 320
f 319 321 365
f 319 365 363
f 320 364 366
f 320 366 322
f 321 323 367
f 321 367 365
f 322 366 368
f 322 368 324
f 323 325 369
f 323 369 367
f 324 368 370
f 324 370 326
f 325 327 371
f 325 371 369
f 326 370 372
f 326 372 328
f 330 329 373
f 330 373 374
f 327 330 374
f 327 374 371
f 329 331 375
f 329 375 373
f 331 332 376
f 331 376 375
f 332 333 377
f 332 377 376
f 333 334 378
f 333 378 377
f 334 335 379
f 334 379 378
f 335 336 380
f 335 380 379
f 336 337 381
f 336 381 380
f 337 338 382
f 337 382 381
f 338 339 383
f 338 383 382
f 339 340 384
f 339 384 383
f 340 341 385
f 340 385 384
f 341 342 386
f 341 386 385
f 342 343 387
f 342 387 386
f 328 372 387
f 328 387 343
f 344 388 389
f 344 389 345
f 344 346 390
f 344 390 388
f 345 389 391
f 345 391 347
f 347 391 392
f 347 392 348
f 348 392 393
f 348 393 349
f 349 393 394
f 349 394 350
f 350 394 395
f 350 395 351
f 351 395 396
f 351 396 352
f 352 396 397
f 352 397 353
f 353 397 398
f 353 398 354
f 354 398 399
f 354 399 355
f 355 399 400
f 355 400 356
f 356 400 401
f 356 401 357
f 357 401 402
f 357 402 358
f 358 402 403
f 358 403 359
f 359 403 404
f 359 404 360
f 346 361 405
f 346 405 390
f 360 404 406
f 360 406 362
f 361 363 407
f 361 407 405
f 362 406 408
f 362 408 364
f 363 365 409
f 363 409 407
f 364 408 410
f 364 410 366
f 365 367 411
f 365 411 409
f 366 410 412
f 366 412 368
f 367 369 413
f 367 413 411
f 368 412 414
f 368 414 370
f 369 371 415
f 369 415 413
f 370 414 416
f 370 416 372
f 374 373 417
f 374 417 418
f 371 374 418
f 371 418 415
f 373 375 419
f 373 419 417
f 375 376 420
f 375 420 419
f 376 377 421
f 376 421 420
f 377 378 422
f 377 422 421
f 378 379 423
f 378 423 422
f 379 380 424
f 379 424 423
f 380 381 425
f 380 425 424
f 381 382 426
f 381 426 425
f 382 383 427
f 382 427 426
f 383 384 428
f 383 428 427
f 384 385 429
f 384 429 428
f 385 386 430
f 385 430 429
f 386 387 431
f 386 431 430
f 372 416 431
f 372 431 387
f 388 432 433
f 388 433 389
f 388 390 434
f 388 434 432
f 389 433 435
f 389 435 391
f 391 435 436
f 391 436 392
f 392 436 437
f 392 437 393
f 393 437 438
f 393 438 394
f 394 438 439
f 394 439 395
f 395 439 440
f 395 440 396
f 396 440 441
f 396 441 397
f 397 441 442
f 397 442 398
f 398 442 443
f 398 443 399
f 399 443 444
f 399 444 400
f 400 444 445
f 400 445 401
f 401 445 446
f 401 446 402
f 402 446 447
f 402 447 403
f 403 447 448
f 403 448 404
f 390 405 449
f 390 449 434
f 404 448 450
f 404 450 406
f 405 407 451
f 405 451 449
f 406 450 452
f 406 452 408
f 407 409 453
f 407 453 451
f 408 452 454
f 408 454 410
f 409 411 455
f 409 455 453
f 410 454 456
f 410 456 412
f 411 413 457
f 411 457 455
f 412 456 458
f 412 458 414
f 413 415 459
f 413 459 457
f 414 458 460
f 414 460 416
f 418 417 461
f 418 461 462
f 415 418 462
f 415 462 459
f 417 419 463
f 417 463 461
f 419 420 464
f 419 464 463
f 420 421 465
f 420 465 464
f 421 422 466
f 421 466 465
f 422 423 467
f 422 467 466
f 423 424 468
f 423 468 467
f 424 425 469
f 424 469 468
f 425 426 470
f 425 470 469
f 426 427 471
f 426 471 470
f 427 428 472
f 427 472 471
f 428 429 473
f 428 473 472
f 429 430 474
f 429 474 473
f 430 431 475
f 430 475 474
f 416 460 475
f 416 475 431
f 432 476 477
f 432 477 433
f 432 434 478
f 432 478 476
f 433 477 479
f 433 479 435
f 435 479 480
f 435 480 436
f 436 480 481
f 436 481 437
f 437 481 482
f 437 482 438
f 438 482 483
f 438 483 439
f 439 483 484
f 439 484 440
f 440 484 485
f 440 485 441
f 441 485 486
f 441 486 442
f 442 486 487
f 442 487 443
f 443 487 488
f 443 488 444
f 444 488 489
f 444 489 445
f 445 489 490
f 445 490 446
f 446 490 491
f 446 491 447
f 447 491 492
f 447 492 448
f 434 449 493
f 434 493 478
f 448 492 494
f 448 494 450
f 449 451 495
f 449 495 493
f 450 494 496
f 450 496 452
f 451 453 497
f 451 497 495
f 452 496 498
f 452 498 454
f 453 455 499
f 453 499 497
f 454 498 500
f 454 500 456
f 455 457 501
f 455 501 499
f 456 500 502
f 456 502 458
f 457 459 503
f 457 503 501
f 458 502 504
f 458 504 460
f 462 461 505
f 462 505 506
f 459 462 506
f 459 506 503
f 461 463 507
f 461 507 505
f 463 464 508
f 463 508 507
f 464 465 509
f 464 509 508
f 465 466 510
f 465 510 509
f 466 467 511
f 466 511 510
f 467 468 512
f 467 512 511
f 468 469 513
f 468 513 512
f 469 470 514
f 469 514 513
f 470 471 515
f 470 515 514
f 471 472 516
f 471 516 515
f 472 473 517
f 472 517 516
f 473 474 518
f 473 518 517
f 474 475 519
f 474 519 518
f 460 504 519
f 460 519 475
f 476 520 521
f 476 521 477
f 476 478 522
f 476 522 520
f 477 521 523
f 477 523 479
f 479 523 524
f 479 524 480
f 480 524 525
f 480 525 481
f 481 525 526
f 481 526 482
f 482 526 527
f 482 527 483
f 483 527 528
f 483 528 484
f 484 528 529
f 484 529 485
f 485 529 530
f 485 530 486
f 486 530 531
f 486 531 487
f 487 531 532
f 487 532 488
f 488 532 533
f 488 533 489
f 489 533 534
f 489 534 490
f 490 534 535
f 490 535 491
f 491 535 536
f 491 536 492
f 478 493 537
f 478 537 522
f 492 536 538
f 492 538 494
f 493 495 539
f 493 539 537
f 494 538 540
f 494 540 496
f 495 497 541
f 495 541 539
f 496 540 542
f 496 542 498
f 497 499 543
f 497 543 541
f 498 542 544
f 498 544 500
f 499 501 545
f 499 545 543
f 500 544 546
f 500 546 502
f 501 503 547
f 501 547 545
f 502 546 548
f 502 548 504
f 506 505 549
f 506 549 550
f 503 506 550
f 503 550 547
f 505 507 551
f 505 551 549
f 507 508 552
f 507 552 551
f 508 509 553
f 508 553 552
f 509 510 554
f 509 554 553
f 510 511 555
f 510 555 554
f 511 512 556
f 511 556 555
f 512 513 557
f 512 557 556
f 513 514 558
f 513 558 557
f 514 515 559
f 514 559 558
f 515 516 560
f 515 560 559
f 516 517 561
f 516 561 560
f 517 518 562
f 517 562 561
f 518 519 563
f 518 563 562
f 504 548 563
f 504 563 519
f 520 564 565
f 520 565 521
f 520 522 566
f 520 566 564
f 521 565 567
f 521 567 523
f 523 567 568
f 523 568 524
f 524 568 569
f 524 569 525
f 525 569 570
f 525 570 526
f 526 570 571
f 526 571 527
f 527 571 572
f 527 572 528
f 528 572 573
f 528 573 529
f 529 573 574
f 529 574 530
f 530 574 575
f 530 575 531
f 531 575 576
f 531 576 532
f 532 576 577
f 532 577 533
f 533 577 578
f 533 578 534
f 534 578 579
f 534 579 535
f 535 579 580
f 535 580 536
f 522 537 581
f 522 581 566
f 536 580 582
f 536 582 538
f 537 539 583
f 537 583 581
f 538 582 584
f 538 584 540
f 539 541 585
f 539 585 583
f 540 584 586
f 540 586 542
f 541 543 587
f 541 587 585
f 542 586 588
f 542 588 544
f 543 545 589
f 543 589 587
f 544 588 590
f 544 590 546
f 545 547 591
f 545 591 589
f 546 590 592
f 546 592 548
f 550 549 593
f 550 593 594
f 547 550 594
f 547 594 591
f 549 551 595
f 549 595 593
f 551 552 596
f 551 596 595
f 552 553 597
f 552 597 596
f 553 554 598
f 553 598 597
f 554 555 599
f 554 599 598
f 555 556 600
f 555 600 599
f 556 557 601
f 556 601 600
f 557 558 602
f 557 602 601
f 558 559 603
f 558 603 602
f 559 560 604
f 559 604 603
f 560 561 605
f 560 605 604
f 561 562 606
f 561 606 605
f 562 563 607
f 562 607 606
f 548 592 607
f 548 607 563
f 564 608 609
f 564 609 565
f 564 566 610
f 564 610 608
f 565 609 611
f 565 611 567
f 567 611 612
f 567 612 568
f 568 612 613
f 568 613 569
f 569 613 614
f 569 614 570
f 570 614 615
f 570 615 571
f 571 615 616
f 571 616 572
f 572 616 617
f 572 617 573
f 573 617 618
f 573 618 574
f 574 618 619
f 574 619 575
f 575 619 620
f 575 620 576
f 576 620 621
f 576 621 577
f 577 621 622
f 577 622 578
f 578 622 623
f 578 623 579
f 579 623 624
f 579 624 580
f 566 581 625
f 566 625 610
f 580 624 626
f 580 626 582
f 581 583 627
f 581 627 625
f 582 626 628
f 582 628 584
f 583 585 629
f 583 629 627
f 584 628 630
f 584 630 586
f 585 587 631
f 585 631 629
f 586 630 632
f 586 632 588
f 587 589 633
f 587 633 631
f 588 632 634
f 588 634 590
f 589 591 635
f 589 635 633
f 590 634 636
f 590 636 592
f 594 593 637
f 594 637 638
f 591 594 638
f 591 638 635
f 593 595 639
f 593 639 637
f 595 596 640
f 595 640 639
f 596 597 641
f 596 641 640
f 597 598 642
f 597 642 641
f 598 599 643
f 598 643 642
f 599 600 644
f 599 644 643
f 600 601 645
f 600 645 644
f 601 602 646
f 601 646 645
f 602 603 647
f 602 647 646
f 603 604 648
f 603 648 647
f 604 605 649
f 604 649 648
f 605 606 650
f 605 650 649
f 606 607 651
f 606 651 650
f 592 636 651
f 592 651 607
f 608 652 653
f 608 653 609
f 608 610 654
f 608 654 652
f 609 653 655
f 609 655 611
f 611 655 656
f 611 656 612
f 612 656 657
f 612 657 613
f 613 657 658
f 613 658 614
f 614 658 659
f 614 659 615
f 615 659 660
f 615 660 616
f 616 660 661
f 616 661 617
f 617 661 662
f 617 662 618
f 618 662 663
f 618 663 619
f 619 663 664
f 619 664 620
f 620 664 665
f 620 665 621
f 621 665 666
f 621 666 622
f 622 666 667
f 622 667 623
f 623 667 668
f 623 668 624
f 610 625 669
f 610 669 654
f 624 668 670
f 624 670 626
f 625 627 671
f 625 671 669
f 626 670 672
f 626 672 628
f 627 629 673
f 627 673 671
f 628 672 674
f 628 674 630
f 629 631 675
f 629 675 673
f 630 674 676
f 630 676 632
f 631 633 677
f 631 677 675
f 632 676 678
f 632 678 634
f 633 635 679
f 633 679 677
f 634 678 680
f 634 680 636
f 638 637 681
f 638 681 682
f 635 638 682
f 635 682 679
f 637 639 683
f 637 683 681
f 639 640 684
f 639 684 683
f 640 641 685
f 640 685 684
f 641 642 686
f 641 686 685
f 642 643 687
f 642 687 686
f 643 644 688
f 643 688 687
f 644 645 689
f 644 689 688
f 645 646 690
f 645 690 689
f 646 647 691
f 646 691 690
f 647 648 692
f 647 692 691
f 648 649 693
f 648 693 692
f 649 650 694
f 649 694 693
f 650 651 695
f 650 695 694
f 636 680 695
f 636 695 651
f 652 696 697
f 652 697 653
f 652 654 698
f 652 698 696
f 653 697 699
f 653 699 655
f 655 699 700
f 655 700 656
f 656 700 701
f 656 701 657
f 657 701 702
f 657 702 658
f 658 702 703
f 658 703 659
f 659 703 704
f 659 704 660
f 660 704 705
f 660 705 661
f 661 705 706
f 661 706 662
f 662 706 707
f 662 707 663
f 663 707 708
f 663 708 664
f 664 708 709
f 664 709 665
f 665 709 710
f 665 710 666
f 666 710 711
f 666 711 667
f 667 711 712
f 667 712 668
f 654 669 713
f 654 713 698
f 668 712 714
f 668 714 670
f 669 671 715
f 669 715 713
f 670 714 716
f 670 716 672
f 671 673 717
f 671 717 715
f 672 716 718
f 672 718 674
f 673 675 719
f 673 719 717
f 674 718 720
f 674 720 676
f 675 677 721
f 675 721 719
f 676 720 722
f 676 722 678
f 677 679 723
f 677 723 721
f 678 722 724
f 678 724 680
f 682 681 725
f 682 725 726
f 679 682 726
f 679 726 723
f 681 683 727
f 681 727 725
f 683 684 728
f 683 728 727
f 684 685 729
f 684 729 728
f 685 686 730
f 685 730 729
f 686 687 731
f 686 731 730
f 687 688 732
f 687 732 731
f 688 689 733
f 688 733 732
f 689 690 734
f 689 734 733
f 690 691 735
f 690 735 734
f 691 692 736
f 691 736 735
f 692 693 737
f 692 737 736
f 693 694 738
f 693 738 737
f 694 695 739
f 694 739 738
f 680 724 739
f 680 739 695
f 696 740 741
f 696 741 697
f 696 698 742
f 696 742 740
f 697 741 743
f 697 743 699
f 699 743 744
f 699 744 700
f 700 744 745
f 700 745 701
f 701 745 746
f 701 746 702
f 702 746 747
f 702 747 703
f 703 747 748
f 703 748 704
f 704 748 749
f 704 749 705
f 705 749 750
f 705 750 706
f 706 750 751
f 706 751 707
f 707 751 752
f 707 752 708
f 708 752 753
f 708 753 709
f 709 753 754
f 709 754 710
f 710 754 755
f 710 755 711
f 711 755 756
f 711 756 712
f 698 713 757
f 698 757 742
f 712 756 758
f 712 758 714
f 713 715 759
f 713 759 757
f 714 758 760
f 714 760 716
f 715 717 761
f 715 761 759
f 716 760 762
f 716 762 718
f 717 719 763
f 717 763 761
f 718 762 764
f 718 764 720
f 719 721 765
f 719 765 763
f 720 764 766
f 720 766 722
f 721 723 767
f 721 767 765
f 722 766 768
f 722 768 724
f 726 725 769
f 726 769 770
f 723 726 770
f 723 770 767
f 725 727 771
f 725 771 769
f 727 728 772
f 727 772 771
f 728 729 773
f 728 773 772
f 729 730 774
f 729 774 773
f 730 731 775
f 730 775 774
f 731 732 776
f 731 776 775
f 732 733 777
f 732 777 776
f 733 734 778
f 733 778 777
f 734 735 779
f 734 779 778
f 735 736 780
f 735 780 779
f 736 737 781
f 736 781 780
f 737 738 782
f 737 782 781
f 738 739 783
f 738 783 782
f 724 768 783
f 724 783 739
f 784 785 786
f 784 786 787
f 740 784 785
f 740 785 741
f 740 742 787
f 740 787 784
f 785 788 789
f 785 789 786
f 741 785 788
f 741 788 743
f 788 790 791
f 788 791 789
f 743 788 790
f 743 790 744
f 790 792 793
f 790 793 791
f 744 790 792
f 744 792 745
f 792 794 795
f 792 795 793
f 745 792 794
f 745 794 746
f 794 796 797
f 794 797 795
f 746 794 796
f 746 796 747
f 796 798 799
f 796 799 797
f 747 796 798
f 747 798 748
f 798 800 801
f 798 801 799
f 748 798 800
f 748 800 749
f 800 802 803
f 800 803 801
f 749 800 802
f 749 802 750
f 802 804 805
f 802 805 803
f 750 802 804
f 750 804 751
f 804 806 807
f 804 807 805
f 751 804 806
f 751 806 752
f 806 808 809
f 806 809 807
f 752 806 808
f 752 808 753
f 808 810 811
f 808 811 809
f 753 808 810
f 753 810 754
f 810 812 813
f 810 813 811
f 754 810 812
f 754 812 755
f 755 812 813
f 755 813 756
f 787 786 814
f 787 814 815
f 742 757 815
f 742 815 787
f 786 789 816
f 786 816 814
f 789 791 817
f 789 817 816
f 791 793 818
f 791 818 817
f 793 795 819
f 793 819 818
f 795 797 820
f 795 820 819
f 797 799 821
f 797 821 820
f 799 801 822
f 799 822 821
f 801 803 823
f 801 823 822
f 803 805 824
f 803 824 823
f 805 807 825
f 805 825 824
f 807 809 826
f 807 826 825
f 809 811 827
f 809 827 826
f 811 813 828
f 811 828 827
f 756 813 828
f 756 828 758
f 815 814 829
f 815 829 830
f 757 759 830
f 757 830 815
f 814 816 831
f 814 831 829
f 816 817 832
f 816 832 831
f 817 818 833
f 817 833 832
f 818 819 834
f 818 834 833
f 819 820 835
f 819 835 834
f 820 821 836
f 820 836 835
f 821 822 837
f 821 837 836
f 822 823 838
f 822 838 837
f 823 824 839
f 823 839 838
f 824 825 840
f 824 840 839
f 825 826 841
f 825 841 840
f 826 827 842
f 826 842 841
f 827 828 843
f 827 843 842
f 758 828 843
f 758 843 760
f 830 829 844
f 830 844 845
f 759 761 845
f 759 845 830
f 829 831 846
f 829 846 844
f 831 832 847
f 831 847 846
f 832 833 848
f 832 848 847
f 833 834 849
f 833 849 848
f 834 835 850
f 834 850 849
f 835 836 851
f 835 851 850
f 836 837 852
f 836 852 851
f 837 838 853
f 837 853 852
f 838 839 854
f 838 854 853
f 839 840 855
f 839 855 854
f 840 841 856
f 840 856 855
f 841 842 857
f 841 857 856
f 842 843 858
f 842 858 857
f 760 843 858
f 760 858 762
f 845 844 859
f 845 859 860
f 761 763 860
f 761 860 845
f 844 846 861
f 844 861 859
f 846 847 862
f 846 862 861
f 847 848 863
f 847 863 862
f 848 849 864
f 848 864 863
f 849 850 865
f 849 865 864
f 850 851 866
f 850 866 865
f 851 852 867
f 851 867 866
f 852 853 868
f 852 868 867
f 853 854 869
f 853 869 868
f 854 855 870
f 854 870 869
f 855 856 871
f 855 871 870
f 856 857 872
f 856 872 871
f 857 858 873
f 857 873 872
f 762 858 873
f 762 873 764
f 860 859 874
f 860 874 875
f 763 765 875
f 763 875 860
f 859 861 876
f 859 876 874
f 861 862 877
f 861 877 876
f 862 863 878
f 862 878 877
f 863 864 879
f 863 879 878
f 864 865 880
f 864 880 879
f 865 866 881
f 865 881 880
f 866 867 882
f 866 882 881
f 867 868 883
f 867 883 882
f 868 869 884
f 868 884 883
f 869 870 885
f 869 885 884
f 870 871 886
f 870 886 885
f 871 872 887
f 871 887 886
f 872 873 888
f 872 888 887
f 764 873 888
f 764 888 766
f 875 874 889
f 875 889 890
f 765 767 890
f 765 890 875
f 874 876 891
f 874 891 889
f 876 877 892
f 876 892 891
f 877 878 893
f 877 893 892
f 878 879 894
f 878 894 893
f 879 880 895
f 879 895 894
f 880 881 896
f 880 896 895
f 881 882 897
f 881 897 896
f 882 883 898
f 882 898 897
f 883 884 899
f 883 899 898
f 884 885 900
f 884 900 899
f 885 886 901
f 885 901 900
f 886 887 902
f 886 902 901
f 887 888 903
f 887 903 902
f 766 888 903
f 766 903 768
f 890 889 904
f 890 904 905
f 770 769 904
f 770 904 905
f 767 770 905
f 767 905 890
f 889 891 906
f 889 906 904
f 769 771 906
f 769 906 904
f 891 892 907
f 891 907 906
f 771 772 907
f 771 907 906
f 892 893 908
f 892 908 907
f 772 773 908
f 772 908 907
f 893 894 909
f 893 909 908
f 773 774 909
f 773 909 908
f 894 895 910
f 894 910 909
f 774 775 910
f 774 910 909
f 895 896 911
f 895 911 910
f 775 776 911
f 775 911 910
f 896 897 912
f 896 912 911
f 776 777 912
f 776 912 911
f 897 898 913
f 897 913 912
f 777 778 913
f 777 913 912
f 898 899 914
f 898 914 913
f 778 779 914
f 778 914 913
f 899 900 915
f 899 915 914
f 779 780 915
f 779 915 914
f 900 901 916
f 900 916 915
f 780 781 916
f 780 916 915
f 901 902 917
f 901 917 916
f 781 782 917
f 781 917 916
f 902 903 918
f 902 918 917
f 782 783 918
f 782 918 917
f 768 903 918
f 768 918 783
