o [4B] 3D Diagram - S2-03 Group D_66
v -5.538241 7.920313 -9.725000
v -5.538241 7.965625 -9.725000
v -5.538241 7.965625 -9.050000
v -5.538241 7.920313 -9.050000
v -5.340095 7.920313 -9.725000
v -5.340095 7.920313 -9.050000
v -5.340095 7.965625 -9.725000
v -5.538241 7.965625 -8.375000
v -5.538241 7.920313 -8.375000
v -5.340095 7.920313 -8.375000
v -5.538241 7.965625 -7.700000
v -5.538241 7.920313 -7.700000
v -5.340095 7.920313 -7.700000
v -5.538241 7.965625 -7.025000
v -5.538241 7.920313 -7.025000
v -5.340095 7.920313 -7.025000
v -5.538241 7.965625 -6.350000
v -5.538241 7.920313 -6.350000
v -5.340095 7.920313 -6.350000
v -5.538241 7.965625 -5.675000
v -5.538241 7.920313 -5.675000
v -5.340095 7.920313 -5.675000
v -5.538241 7.965625 -5.000000
v -5.538241 7.920313 -5.000000
v -5.340095 7.920313 -5.000000
v -5.538241 7.965625 -4.325000
v -5.538241 7.920313 -4.325000
v -5.340095 7.920313 -4.325000
v -5.538241 7.965625 -3.650000
v -5.538241 7.920313 -3.650000
v -5.340095 7.920313 -3.650000
v -5.538241 7.965625 -2.975000
v -5.538241 7.920313 -2.975000
v -5.340095 7.920313 -2.975000
v -5.538241 7.965625 -2.300000
v -5.538241 7.920313 -2.300000
v -5.340095 7.920313 -2.300000
v -5.538241 7.965625 -1.625000
v -5.538241 7.920313 -1.625000
v -5.340095 7.920313 -1.625000
v -5.538241 7.965625 -0.950000
v -5.538241 7.920313 -0.950000
v -5.340095 7.920313 -0.950000
v -5.538241 7.965625 -0.275000
v -5.538241 7.920313 -0.275000
v -5.340095 7.920313 -0.275000
v -5.340095 7.965625 -0.275000
v -5.538241 8.010938 -9.725000
v -5.538241 8.010938 -9.050000
v -5.340095 8.010938 -9.050000
v -5.340095 8.010938 -9.725000
v -5.538241 8.010938 -8.375000
v -5.340095 8.010938 -8.375000
v -5.538241 8.010938 -7.700000
v -5.340095 8.010938 -7.700000
v -5.538241 8.010938 -7.025000
v -5.340095 8.010938 -7.025000
v -5.538241 8.010938 -6.350000
v -5.340095 8.010938 -6.350000
v -5.538241 8.010938 -5.675000
v -5.340095 8.010938 -5.675000
v -5.538241 8.010938 -5.000000
v -5.340095 8.010938 -5.000000
v -5.538241 8.010938 -4.325000
v -5.340095 8.010938 -4.325000
v -5.538241 8.010938 -3.650000
v -5.340095 8.010938 -3.650000
v -5.538241 8.010938 -2.975000
v -5.340095 8.010938 -2.975000
v -5.538241 8.010938 -2.300000
v -5.340095 8.010938 -2.300000
v -5.538241 8.010938 -1.625000
v -5.340095 8.010938 -1.625000
v -5.538241 8.010938 -0.950000
v -5.340095 8.010938 -0.950000
v -5.538241 8.010938 -0.275000
v -5.340095 8.010938 -0.275000
v -5.340095 7.739063 -9.725000
v -5.340095 7.784375 -9.725000
v -5.340095 7.784375 -9.050000
v -5.340095 7.739063 -9.050000
v -5.141949 7.739063 -9.725000
v -5.141949 7.739063 -9.050000
v -5.141949 7.784375 -9.725000
v -5.340095 7.784375 -8.375000
v -5.340095 7.739063 -8.375000
v -5.141949 7.739063 -8.375000
v -5.340095 7.784375 -7.700000
v -5.340095 7.739063 -7.700000
v -5.141949 7.739063 -7.700000
v -5.340095 7.784375 -7.025000
v -5.340095 7.739063 -7.025000
v -5.141949 7.739063 -7.025000
v -5.340095 7.784375 -6.350000
v -5.340095 7.739063 -6.350000
v -5.141949 7.739063 -6.350000
v -5.340095 7.784375 -5.675000
v -5.340095 7.739063 -5.675000
v -5.141949 7.739063 -5.675000
v -5.340095 7.784375 -5.000000
v -5.340095 7.739063 -5.000000
v -5.141949 7.739063 -5.000000
v -5.340095 7.784375 -4.325000
v -5.340095 7.739063 -4.325000
v -5.141949 7.739063 -4.325000
v -5.340095 7.784375 -3.650000
v -5.340095 7.739063 -3.650000
v -5.141949 7.739063 -3.650000
v -5.340095 7.784375 -2.975000
v -5.340095 7.739063 -2.975000
v -5.141949 7.739063 -2.975000
v -5.340095 7.784375 -2.300000
v -5.340095 7.739063 -2.300000
v -5.141949 7.739063 -2.300000
v -5.340095 7.784375 -1.625000
v -5.340095 7.739063 -1.625000
v -5.141949 7.739063 -1.625000
v -5.340095 7.784375 -0.950000
v -5.340095 7.739063 -0.950000
v -5.141949 7.739063 -0.950000
v -5.340095 7.784375 -0.275000
v -5.340095 7.739063 -0.275000
v -5.141949 7.739063 -0.275000
v -5.141949 7.784375 -0.275000
v -5.340095 7.829688 -9.725000
v -5.340095 7.829688 -9.050000
v -5.141949 7.829688 -9.725000
v -5.340095 7.829688 -8.375000
v -5.340095 7.829688 -7.700000
v -5.340095 7.829688 -7.025000
v -5.340095 7.829688 -6.350000
v -5.340095 7.829688 -5.675000
v -5.340095 7.829688 -5.000000
v -5.340095 7.829688 -4.325000
v -5.340095 7.829688 -3.650000
v -5.340095 7.829688 -2.975000
v -5.340095 7.829688 -2.300000
v -5.340095 7.829688 -1.625000
v -5.340095 7.829688 -0.950000
v -5.340095 7.829688 -0.275000
v -5.141949 7.829688 -0.275000
v -5.340095 7.875000 -9.725000
v -5.340095 7.875000 -9.050000
v -5.141949 7.875000 -9.725000
v -5.340095 7.875000 -8.375000
v -5.340095 7.875000 -7.700000
v -5.340095 7.875000 -7.025000
v -5.340095 7.875000 -6.350000
v -5.340095 7.875000 -5.675000
v -5.340095 7.875000 -5.000000
v -5.340095 7.875000 -4.325000
v -5.340095 7.875000 -3.650000
v -5.340095 7.875000 -2.975000
v -5.340095 7.875000 -2.300000
v -5.340095 7.875000 -1.625000
v -5.340095 7.875000 -0.950000
v -5.340095 7.875000 -0.275000
v -5.141949 7.875000 -0.275000
v -5.141949 7.920313 -9.725000
v -5.141949 7.920313 -0.275000
v -5.141949 7.965625 -9.725000
v -5.141949 7.965625 -0.275000
v -5.141949 8.010938 -9.050000
v -5.141949 8.010938 -9.725000
v -5.141949 8.010938 -8.375000
v -5.141949 8.010938 -7.700000
v -5.141949 8.010938 -7.025000
v -5.141949 8.010938 -6.350000
v -5.141949 8.010938 -5.675000
v -5.141949 8.010938 -5.000000
v -5.141949 8.010938 -4.325000
v -5.141949 8.010938 -3.650000
v -5.141949 8.010938 -2.975000
v -5.141949 8.010938 -2.300000
v -5.141949 8.010938 -1.625000
v -5.141949 8.010938 -0.950000
v -5.141949 8.010938 -0.275000
v -4.943803 7.739063 -9.725000
v -4.943803 7.739063 -9.050000
v -4.943803 7.784375 -9.725000
v -4.943803 7.739063 -8.375000
v -4.943803 7.739063 -7.700000
v -4.943803 7.739063 -7.025000
v -4.943803 7.739063 -6.350000
v -4.943803 7.739063 -5.675000
v -4.943803 7.739063 -5.000000
v -4.943803 7.739063 -4.325000
v -4.943803 7.739063 -3.650000
v -4.943803 7.739063 -2.975000
v -4.943803 7.739063 -2.300000
v -4.943803 7.739063 -1.625000
v -4.943803 7.739063 -0.950000
v -4.943803 7.739063 -0.275000
v -4.943803 7.784375 -0.275000
v -4.943803 7.829688 -9.725000
v -4.943803 7.829688 -0.275000
v -4.943803 7.875000 -9.725000
v -4.943803 7.875000 -0.275000
v -4.943803 7.920313 -9.725000
v -4.943803 7.920313 -0.275000
v -4.943803 7.965625 -9.725000
v -4.943803 7.965625 -0.275000
v -4.943803 8.010938 -9.050000
v -4.943803 8.010938 -9.725000
v -4.943803 8.010938 -8.375000
v -4.943803 8.010938 -7.700000
v -4.943803 8.010938 -7.025000
v -4.943803 8.010938 -6.350000
v -4.943803 8.010938 -5.675000
v -4.943803 8.010938 -5.000000
v -4.943803 8.010938 -4.325000
v -4.943803 8.010938 -3.650000
v -4.943803 8.010938 -2.975000
v -4.943803 8.010938 -2.300000
v -4.943803 8.010938 -1.625000
v -4.943803 8.010938 -0.950000
v -4.943803 8.010938 -0.275000
v -4.745657 7.739063 -9.725000
v -4.745657 7.739063 -9.050000
v -4.745657 7.784375 -9.725000
v -4.745657 7.739063 -8.375000
v -4.745657 7.739063 -7.700000
v -4.745657 7.739063 -7.025000
v -4.745657 7.739063 -6.350000
v -4.745657 7.739063 -5.675000
v -4.745657 7.739063 -5.000000
v -4.745657 7.739063 -4.325000
v -4.745657 7.739063 -3.650000
v -4.745657 7.739063 -2.975000
v -4.745657 7.739063 -2.300000
v -4.745657 7.739063 -1.625000
v -4.745657 7.739063 -0.950000
v -4.745657 7.739063 -0.275000
v -4.745657 7.784375 -0.275000
v -4.745657 7.829688 -9.725000
v -4.745657 7.829688 -0.275000
v -4.745657 7.875000 -9.725000
v -4.745657 7.875000 -0.275000
v -4.745657 7.920313 -9.725000
v -4.745657 7.920313 -0.275000
v -4.745657 7.965625 -9.725000
v -4.745657 7.965625 -0.275000
v -4.745657 8.010938 -9.050000
v -4.745657 8.010938 -9.725000
v -4.745657 8.010938 -8.375000
v -4.745657 8.010938 -7.700000
v -4.745657 8.010938 -7.025000
v -4.745657 8.010938 -6.350000
v -4.745657 8.010938 -5.675000
v -4.745657 8.010938 -5.000000
v -4.745657 8.010938 -4.325000
v -4.745657 8.010938 -3.650000
v -4.745657 8.010938 -2.975000
v -4.745657 8.010938 -2.300000
v -4.745657 8.010938 -1.625000
v -4.745657 8.010938 -0.950000
v -4.745657 8.010938 -0.275000
v -4.547510 7.739063 -9.725000
v -4.547510 7.739063 -9.050000
v -4.547510 7.784375 -9.725000
v -4.547510 7.739063 -8.375000
v -4.547510 7.739063 -7.700000
v -4.547510 7.739063 -7.025000
v -4.547510 7.739063 -6.350000
v -4.547510 7.739063 -5.675000
v -4.547510 7.739063 -5.000000
v -4.547510 7.739063 -4.325000
v -4.547510 7.739063 -3.650000
v -4.547510 7.739063 -2.975000
v -4.547510 7.739063 -2.300000
v -4.547510 7.739063 -1.625000
v -4.547510 7.739063 -0.950000
v -4.547510 7.739063 -0.275000
v -4.547510 7.784375 -0.275000
v -4.547510 7.829688 -9.725000
v -4.547510 7.829688 -0.275000
v -4.547510 7.875000 -9.725000
v -4.547510 7.875000 -0.275000
v -4.547510 7.920313 -9.725000
v -4.547510 7.920313 -0.275000
v -4.547510 7.965625 -9.725000
v -4.547510 7.965625 -0.275000
v -4.547510 8.010938 -9.050000
v -4.547510 8.010938 -9.725000
v -4.547510 8.010938 -8.375000
v -4.547510 8.010938 -7.700000
v -4.547510 8.010938 -7.025000
v -4.547510 8.010938 -6.350000
v -4.547510 8.010938 -5.675000
v -4.547510 8.010938 -5.000000
v -4.547510 8.010938 -4.325000
v -4.547510 8.010938 -3.650000
v -4.547510 8.010938 -2.975000
v -4.547510 8.010938 -2.300000
v -4.547510 8.010938 -1.625000
v -4.547510 8.010938 -0.950000
v -4.547510 8.010938 -0.275000
v -4.349364 7.739063 -9.725000
v -4.349364 7.739063 -9.050000
v -4.349364 7.784375 -9.725000
v -4.349364 7.739063 -8.375000
v -4.349364 7.739063 -7.700000
v -4.349364 7.739063 -7.025000
v -4.349364 7.739063 -6.350000
v -4.349364 7.739063 -5.675000
v -4.349364 7.739063 -5.000000
v -4.349364 7.739063 -4.325000
v -4.349364 7.739063 -3.650000
v -4.349364 7.739063 -2.975000
v -4.349364 7.739063 -2.300000
v -4.349364 7.739063 -1.625000
v -4.349364 7.739063 -0.950000
v -4.349364 7.739063 -0.275000
v -4.349364 7.784375 -0.275000
v -4.349364 7.829688 -9.725000
v -4.349364 7.829688 -0.275000
v -4.349364 7.875000 -9.725000
v -4.349364 7.875000 -0.275000
v -4.349364 7.920313 -9.725000
v -4.349364 7.920313 -0.275000
v -4.349364 7.965625 -9.725000
v -4.349364 7.965625 -0.275000
v -4.349364 8.010938 -9.050000
v -4.349364 8.010938 -9.725000
v -4.349364 8.010938 -8.375000
v -4.349364 8.010938 -7.700000
v -4.349364 8.010938 -7.025000
v -4.349364 8.010938 -6.350000
v -4.349364 8.010938 -5.675000
v -4.349364 8.010938 -5.000000
v -4.349364 8.010938 -4.325000
v -4.349364 8.010938 -3.650000
v -4.349364 8.010938 -2.975000
v -4.349364 8.010938 -2.300000
v -4.349364 8.010938 -1.625000
v -4.349364 8.010938 -0.950000
v -4.349364 8.010938 -0.275000
v -4.151218 7.739063 -9.725000
v -4.151218 7.739063 -9.050000
v -4.151218 7.784375 -9.725000
v -4.151218 7.739063 -8.375000
v -4.151218 7.739063 -7.700000
v -4.151218 7.739063 -7.025000
v -4.151218 7.739063 -6.350000
v -4.151218 7.739063 -5.675000
v -4.151218 7.739063 -5.000000
v -4.151218 7.739063 -4.325000
v -4.151218 7.739063 -3.650000
v -4.151218 7.739063 -2.975000
v -4.151218 7.739063 -2.300000
v -4.151218 7.739063 -1.625000
v -4.151218 7.739063 -0.950000
v -4.151218 7.739063 -0.275000
v -4.151218 7.784375 -0.275000
v -4.151218 7.829688 -9.725000
v -4.151218 7.829688 -0.275000
v -4.151218 7.875000 -9.725000
v -4.151218 7.875000 -0.275000
v -4.151218 7.920313 -9.725000
v -4.151218 7.920313 -0.275000
v -4.151218 7.965625 -9.725000
v -4.151218 7.965625 -0.275000
v -4.151218 8.010938 -9.050000
v -4.151218 8.010938 -9.725000
v -4.151218 8.010938 -8.375000
v -4.151218 8.010938 -7.700000
v -4.151218 8.010938 -7.025000
v -4.151218 8.010938 -6.350000
v -4.151218 8.010938 -5.675000
v -4.151218 8.010938 -5.000000
v -4.151218 8.010938 -4.325000
v -4.151218 8.010938 -3.650000
v -4.151218 8.010938 -2.975000
v -4.151218 8.010938 -2.300000
v -4.151218 8.010938 -1.625000
v -4.151218 8.010938 -0.950000
v -4.151218 8.010938 -0.275000
v -3.953072 7.739063 -9.725000
v -3.953072 7.739063 -9.050000
v -3.953072 7.784375 -9.725000
v -3.953072 7.739063 -8.375000
v -3.953072 7.739063 -7.700000
v -3.953072 7.739063 -7.025000
v -3.953072 7.739063 -6.350000
v -3.953072 7.739063 -5.675000
v -3.953072 7.739063 -5.000000
v -3.953072 7.739063 -4.325000
v -3.953072 7.739063 -3.650000
v -3.953072 7.739063 -2.975000
v -3.953072 7.739063 -2.300000
v -3.953072 7.739063 -1.625000
v -3.953072 7.739063 -0.950000
v -3.953072 7.739063 -0.275000
v -3.953072 7.784375 -0.275000
v -3.953072 7.829688 -9.725000
v -3.953072 7.829688 -0.275000
v -3.953072 7.875000 -9.725000
v -3.953072 7.875000 -0.275000
v -3.953072 7.920313 -9.725000
v -3.953072 7.920313 -0.275000
v -3.953072 7.965625 -9.725000
v -3.953072 7.965625 -0.275000
v -3.953072 8.010938 -9.050000
v -3.953072 8.010938 -9.725000
v -3.953072 8.010938 -8.375000
v -3.953072 8.010938 -7.700000
v -3.953072 8.010938 -7.025000
v -3.953072 8.010938 -6.350000
v -3.953072 8.010938 -5.675000
v -3.953072 8.010938 -5.000000
v -3.953072 8.010938 -4.325000
v -3.953072 8.010938 -3.650000
v -3.953072 8.010938 -2.975000
v -3.953072 8.010938 -2.300000
v -3.953072 8.010938 -1.625000
v -3.953072 8.010938 -0.950000
v -3.953072 8.010938 -0.275000
v -3.754926 7.739063 -9.725000
v -3.754926 7.739063 -9.050000
v -3.754926 7.784375 -9.725000
v -3.754926 7.739063 -8.375000
v -3.754926 7.739063 -7.700000
v -3.754926 7.739063 -7.025000
v -3.754926 7.739063 -6.350000
v -3.754926 7.739063 -5.675000
v -3.754926 7.739063 -5.000000
v -3.754926 7.739063 -4.325000
v -3.754926 7.739063 -3.650000
v -3.754926 7.739063 -2.975000
v -3.754926 7.739063 -2.300000
v -3.754926 7.739063 -1.625000
v -3.754926 7.739063 -0.950000
v -3.754926 7.739063 -0.275000
v -3.754926 7.784375 -0.275000
v -3.754926 7.829688 -9.725000
v -3.754926 7.829688 -0.275000
v -3.754926 7.875000 -9.725000
v -3.754926 7.875000 -0.275000
v -3.754926 7.920313 -9.725000
v -3.754926 7.920313 -0.275000
v -3.754926 7.965625 -9.725000
v -3.754926 7.965625 -0.275000
v -3.754926 8.010938 -9.050000
v -3.754926 8.010938 -9.725000
v -3.754926 8.010938 -8.375000
v -3.754926 8.010938 -7.700000
v -3.754926 8.010938 -7.025000
v -3.754926 8.010938 -6.350000
v -3.754926 8.010938 -5.675000
v -3.754926 8.010938 -5.000000
v -3.754926 8.010938 -4.325000
v -3.754926 8.010938 -3.650000
v -3.754926 8.010938 -2.975000
v -3.754926 8.010938 -2.300000
v -3.754926 8.010938 -1.625000
v -3.754926 8.010938 -0.950000
v -3.754926 8.010938 -0.275000
v -3.556780 7.739063 -9.725000
v -3.556780 7.739063 -9.050000
v -3.556780 7.784375 -9.725000
v -3.556780 7.739063 -8.375000
v -3.556780 7.739063 -7.700000
v -3.556780 7.739063 -7.025000
v -3.556780 7.739063 -6.350000
v -3.556780 7.739063 -5.675000
v -3.556780 7.739063 -5.000000
v -3.556780 7.739063 -4.325000
v -3.556780 7.739063 -3.650000
v -3.556780 7.739063 -2.975000
v -3.556780 7.739063 -2.300000
v -3.556780 7.739063 -1.625000
v -3.556780 7.739063 -0.950000
v -3.556780 7.739063 -0.275000
v -3.556780 7.784375 -0.275000
v -3.556780 7.829688 -9.725000
v -3.556780 7.829688 -0.275000
v -3.556780 7.875000 -9.725000
v -3.556780 7.875000 -0.275000
v -3.556780 7.920313 -9.725000
v -3.556780 7.920313 -0.275000
v -3.556780 7.965625 -9.725000
v -3.556780 7.965625 -0.275000
v -3.556780 8.010938 -9.050000
v -3.556780 8.010938 -9.725000
v -3.556780 8.010938 -8.375000
v -3.556780 8.010938 -7.700000
v -3.556780 8.010938 -7.025000
v -3.556780 8.010938 -6.350000
v -3.556780 8.010938 -5.675000
v -3.556780 8.010938 -5.000000
v -3.556780 8.010938 -4.325000
v -3.556780 8.010938 -3.650000
v -3.556780 8.010938 -2.975000
v -3.556780 8.010938 -2.300000
v -3.556780 8.010938 -1.625000
v -3.556780 8.010938 -0.950000
v -3.556780 8.010938 -0.275000
v -3.358633 7.739063 -9.725000
v -3.358633 7.739063 -9.050000
v -3.358633 7.784375 -9.725000
v -3.358633 7.739063 -8.375000
v -3.358633 7.739063 -7.700000
v -3.358633 7.739063 -7.025000
v -3.358633 7.739063 -6.350000
v -3.358633 7.739063 -5.675000
v -3.358633 7.739063 -5.000000
v -3.358633 7.739063 -4.325000
v -3.358633 7.739063 -3.650000
v -3.358633 7.739063 -2.975000
v -3.358633 7.739063 -2.300000
v -3.358633 7.739063 -1.625000
v -3.358633 7.739063 -0.950000
v -3.358633 7.739063 -0.275000
v -3.358633 7.784375 -0.275000
v -3.358633 7.829688 -9.725000
v -3.358633 7.829688 -0.275000
v -3.358633 7.875000 -9.725000
v -3.358633 7.875000 -0.275000
v -3.358633 7.920313 -9.725000
v -3.358633 7.920313 -0.275000
v -3.358633 7.965625 -9.725000
v -3.358633 7.965625 -0.275000
v -3.358633 8.010938 -9.050000
v -3.358633 8.010938 -9.725000
v -3.358633 8.010938 -8.375000
v -3.358633 8.010938 -7.700000
v -3.358633 8.010938 -7.025000
v -3.358633 8.010938 -6.350000
v -3.358633 8.010938 -5.675000
v -3.358633 8.010938 -5.000000
v -3.358633 8.010938 -4.325000
v -3.358633 8.010938 -3.650000
v -3.358633 8.010938 -2.975000
v -3.358633 8.010938 -2.300000
v -3.358633 8.010938 -1.625000
v -3.358633 8.010938 -0.950000
v -3.358633 8.010938 -0.275000
v -3.160487 7.739063 -9.725000
v -3.160487 7.739063 -9.050000
v -3.160487 7.784375 -9.725000
v -3.160487 7.739063 -8.375000
v -3.160487 7.739063 -7.700000
v -3.160487 7.739063 -7.025000
v -3.160487 7.739063 -6.350000
v -3.160487 7.739063 -5.675000
v -3.160487 7.739063 -5.000000
v -3.160487 7.739063 -4.325000
v -3.160487 7.739063 -3.650000
v -3.160487 7.739063 -2.975000
v -3.160487 7.739063 -2.300000
v -3.160487 7.739063 -1.625000
v -3.160487 7.739063 -0.950000
v -3.160487 7.739063 -0.275000
v -3.160487 7.784375 -0.275000
v -3.160487 7.829688 -9.725000
v -3.160487 7.829688 -0.275000
v -3.160487 7.875000 -9.725000
v -3.160487 7.875000 -0.275000
v -3.160487 7.920313 -9.725000
v -3.160487 7.920313 -0.275000
v -3.160487 7.965625 -9.725000
v -3.160487 7.965625 -0.275000
v -3.160487 8.010938 -9.050000
v -3.160487 8.010938 -9.725000
v -3.160487 8.010938 -8.375000
v -3.160487 8.010938 -7.700000
v -3.160487 8.010938 -7.025000
v -3.160487 8.010938 -6.350000
v -3.160487 8.010938 -5.675000
v -3.160487 8.010938 -5.000000
v -3.160487 8.010938 -4.325000
v -3.160487 8.010938 -3.650000
v -3.160487 8.010938 -2.975000
v -3.160487 8.010938 -2.300000
v -3.160487 8.010938 -1.625000
v -3.160487 8.010938 -0.950000
v -3.160487 8.010938 -0.275000
v -2.962341 7.739063 -9.725000
v -2.962341 7.739063 -9.050000
v -2.962341 7.784375 -9.725000
v -2.962341 7.739063 -8.375000
v -2.962341 7.739063 -7.700000
v -2.962341 7.739063 -7.025000
v -2.962341 7.739063 -6.350000
v -2.962341 7.739063 -5.675000
v -2.962341 7.739063 -5.000000
v -2.962341 7.739063 -4.325000
v -2.962341 7.739063 -3.650000
v -2.962341 7.739063 -2.975000
v -2.962341 7.739063 -2.300000
v -2.962341 7.739063 -1.625000
v -2.962341 7.739063 -0.950000
v -2.962341 7.739063 -0.275000
v -2.962341 7.784375 -0.275000
v -2.962341 7.829688 -9.725000
v -2.962341 7.829688 -0.275000
v -2.962341 7.875000 -9.725000
v -2.962341 7.875000 -0.275000
v -2.962341 7.920313 -9.725000
v -2.962341 7.920313 -0.275000
v -2.962341 7.965625 -9.725000
v -2.962341 7.965625 -0.275000
v -2.962341 8.010938 -9.050000
v -2.962341 8.010938 -9.725000
v -2.962341 8.010938 -8.375000
v -2.962341 8.010938 -7.700000
v -2.962341 8.010938 -7.025000
v -2.962341 8.010938 -6.350000
v -2.962341 8.010938 -5.675000
v -2.962341 8.010938 -5.000000
v -2.962341 8.010938 -4.325000
v -2.962341 8.010938 -3.650000
v -2.962341 8.010938 -2.975000
v -2.962341 8.010938 -2.300000
v -2.962341 8.010938 -1.625000
v -2.962341 8.010938 -0.950000
v -2.962341 8.010938 -0.275000
v -2.764195 7.739063 -9.725000
v -2.764195 7.739063 -9.050000
v -2.764195 7.784375 -9.725000
v -2.764195 7.739063 -8.375000
v -2.764195 7.739063 -7.700000
v -2.764195 7.739063 -7.025000
v -2.764195 7.739063 -6.350000
v -2.764195 7.739063 -5.675000
v -2.764195 7.739063 -5.000000
v -2.764195 7.739063 -4.325000
v -2.764195 7.739063 -3.650000
v -2.764195 7.739063 -2.975000
v -2.764195 7.739063 -2.300000
v -2.764195 7.739063 -1.625000
v -2.764195 7.739063 -0.950000
v -2.764195 7.739063 -0.275000
v -2.764195 7.784375 -0.275000
v -2.764195 7.829688 -9.725000
v -2.764195 7.829688 -0.275000
v -2.764195 7.875000 -9.725000
v -2.764195 7.875000 -0.275000
v -2.764195 7.920313 -9.725000
v -2.764195 7.920313 -0.275000
v -2.764195 7.965625 -9.725000
v -2.764195 7.965625 -0.275000
v -2.764195 8.010938 -9.050000
v -2.764195 8.010938 -9.725000
v -2.764195 8.010938 -8.375000
v -2.764195 8.010938 -7.700000
v -2.764195 8.010938 -7.025000
v -2.764195 8.010938 -6.350000
v -2.764195 8.010938 -5.675000
v -2.764195 8.010938 -5.000000
v -2.764195 8.010938 -4.325000
v -2.764195 8.010938 -3.650000
v -2.764195 8.010938 -2.975000
v -2.764195 8.010938 -2.300000
v -2.764195 8.010938 -1.625000
v -2.764195 8.010938 -0.950000
v -2.764195 8.010938 -0.275000
v -2.566049 7.739063 -9.725000
v -2.566049 7.739063 -9.050000
v -2.566049 7.784375 -9.050000
v -2.566049 7.784375 -9.725000
v -2.566049 7.739063 -8.375000
v -2.566049 7.784375 -8.375000
v -2.566049 7.739063 -7.700000
v -2.566049 7.784375 -7.700000
v -2.566049 7.739063 -7.025000
v -2.566049 7.784375 -7.025000
v -2.566049 7.739063 -6.350000
v -2.566049 7.784375 -6.350000
v -2.566049 7.739063 -5.675000
v -2.566049 7.784375 -5.675000
v -2.566049 7.739063 -5.000000
v -2.566049 7.784375 -5.000000
v -2.566049 7.739063 -4.325000
v -2.566049 7.784375 -4.325000
v -2.566049 7.739063 -3.650000
v -2.566049 7.784375 -3.650000
v -2.566049 7.739063 -2.975000
v -2.566049 7.784375 -2.975000
v -2.566049 7.739063 -2.300000
v -2.566049 7.784375 -2.300000
v -2.566049 7.739063 -1.625000
v -2.566049 7.784375 -1.625000
v -2.566049 7.739063 -0.950000
v -2.566049 7.784375 -0.950000
v -2.566049 7.739063 -0.275000
v -2.566049 7.784375 -0.275000
v -2.566049 7.829688 -9.050000
v -2.566049 7.829688 -9.725000
v -2.566049 7.829688 -8.375000
v -2.566049 7.829688 -7.700000
v -2.566049 7.829688 -7.025000
v -2.566049 7.829688 -6.350000
v -2.566049 7.829688 -5.675000
v -2.566049 7.829688 -5.000000
v -2.566049 7.829688 -4.325000
v -2.566049 7.829688 -3.650000
v -2.566049 7.829688 -2.975000
v -2.566049 7.829688 -2.300000
v -2.566049 7.829688 -1.625000
v -2.566049 7.829688 -0.950000
v -2.566049 7.829688 -0.275000
v -2.566049 7.875000 -9.050000
v -2.566049 7.875000 -9.725000
v -2.566049 7.875000 -8.375000
v -2.566049 7.875000 -7.700000
v -2.566049 7.875000 -7.025000
v -2.566049 7.875000 -6.350000
v -2.566049 7.875000 -5.675000
v -2.566049 7.875000 -5.000000
v -2.566049 7.875000 -4.325000
v -2.566049 7.875000 -3.650000
v -2.566049 7.875000 -2.975000
v -2.566049 7.875000 -2.300000
v -2.566049 7.875000 -1.625000
v -2.566049 7.875000 -0.950000
v -2.566049 7.875000 -0.275000
v -2.566049 7.920313 -9.050000
v -2.566049 7.920313 -9.725000
v -2.566049 7.920313 -8.375000
v -2.566049 7.920313 -7.700000
v -2.566049 7.920313 -7.025000
v -2.566049 7.920313 -6.350000
v -2.566049 7.920313 -5.675000
v -2.566049 7.920313 -5.000000
v -2.566049 7.920313 -4.325000
v -2.566049 7.920313 -3.650000
v -2.566049 7.920313 -2.975000
v -2.566049 7.920313 -2.300000
v -2.566049 7.920313 -1.625000
v -2.566049 7.920313 -0.950000
v -2.566049 7.920313 -0.275000
v -2.566049 7.965625 -9.050000
v -2.566049 7.965625 -9.725000
v -2.566049 7.965625 -8.375000
v -2.566049 7.965625 -7.700000
v -2.566049 7.965625 -7.025000
v -2.566049 7.965625 -6.350000
v -2.566049 7.965625 -5.675000
v -2.566049 7.965625 -5.000000
v -2.566049 7.965625 -4.325000
v -2.566049 7.965625 -3.650000
v -2.566049 7.965625 -2.975000
v -2.566049 7.965625 -2.300000
v -2.566049 7.965625 -1.625000
v -2.566049 7.965625 -0.950000
v -2.566049 7.965625 -0.275000
v -2.566049 8.010938 -9.050000
v -2.566049 8.010938 -9.725000
v -2.566049 8.010938 -8.375000
v -2.566049 8.010938 -7.700000
v -2.566049 8.010938 -7.025000
v -2.566049 8.010938 -6.350000
v -2.566049 8.010938 -5.675000
v -2.566049 8.010938 -5.000000
v -2.566049 8.010938 -4.325000
v -2.566049 8.010938 -3.650000
v -2.566049 8.010938 -2.975000
v -2.566049 8.010938 -2.300000
v -2.566049 8.010938 -1.625000
v -2.566049 8.010938 -0.950000
v -2.566049 8.010938 -0.275000
f 1 2 3
f 1 3 4
f 1 5 6
f 1 6 4
f 1 2 7
f 1 7 5
f 4 3 8
f 4 8 9
f 4 6 10
f 4 10 9
f 9 8 11
f 9 11 12
f 9 10 13
f 9 13 12
f 12 11 14
f 12 14 15
f 12 13 16
f 12 16 15
f 15 14 17
f 15 17 18
f 15 16 19
f 15 19 18
f 18 17 20
f 18 20 21
f 18 19 22
f 18 22 21
f 21 20 23
f 21 23 24
f 21 22 25
f 21 25 24
f 24 23 26
f 24 26 27
f 24 25 28
f 24 28 27
f 27 26 29
f 27 29 30
f 27 28 31
f 27 31 30
f 30 29 32
f 30 32 33
f 30 31 34
f 30 34 33
f 33 32 35
f 33 35 36
f 33 34 37
f 33 37 36
f 36 35 38
f 36 38 39
f 36 37 40
f 36 40 39
f 39 38 41
f 39 41 42
f 39 40 43
f 39 43 42
f 42 41 44
f 42 44 45
f 42 43 46
f 42 46 45
f 45 46 47
f 45 47 44
f 2 48 49
f 2 49 3
f 48 49 50
f 48 50 51
f 2 48 51
f 2 51 7
f 3 49 52
f 3 52 8
f 49 52 53
f 49 53 50
f 8 52 54
f 8 54 11
f 52 54 55
f 52 55 53
f 11 54 56
f 11 56 14
f 54 56 57
f 54 57 55
f 14 56 58
f 14 58 17
f 56 58 59
f 56 59 57
f 17 58 60
f 17 60 20
f 58 60 61
f 58 61 59
f 20 60 62
f 20 62 23
f 60 62 63
f 60 63 61
f 23 62 64
f 23 64 26
f 62 64 65
f 62 65 63
f 26 64 66
f 26 66 29
f 64 66 67
f 64 67 65
f 29 66 68
f 29 68 32
f 66 68 69
f 66 69 67
f 32 68 70
f 32 70 35
f 68 70 71
f 68 71 69
f 35 70 72
f 35 72 38
f 70 72 73
f 70 73 71
f 38 72 74
f 38 74 41
f 72 74 75
f 72 75 73
f 41 74 76
f 41 76 44
f 74 76 77
f 74 77 75
f 44 47 77
f 44 77 76
f 78 79 80
f 78 80 81
f 78 82 83
f 78 83 81
f 78 79 84
f 78 84 82
f 81 80 85
f 81 85 86
f 81 83 87
f 81 87 86
f 86 85 88
f 86 88 89
f 86 87 90
f 86 90 89
f 89 88 91
f 89 91 92
f 89 90 93
f 89 93 92
f 92 91 94
f 92 94 95
f 92 93 96
f 92 96 95
f 95 94 97
f 95 97 98
f 95 96 99
f 95 99 98
f 98 97 100
f 98 100 101
f 98 99 102
f 98 102 101
f 101 100 103
f 101 103 104
f 101 102 105
f 101 105 104
f 104 103 106
f 104 106 107
f 104 105 108
f 104 108 107
f 107 106 109
f 107 109 110
f 107 108 111
f 107 111 110
f 110 109 112
f 110 112 113
f 110 111 114
f 110 114 113
f 113 112 115
f 113 115 116
f 113 114 117
f 113 117 116
f 116 115 118
f 116 118 119
f 116 117 120
f 116 120 119
f 119 118 121
f 119 121 122
f 119 120 123
f 119 123 122
f 122 123 124
f 122 124 121
f 79 125 126
f 79 126 80
f 79 125 127
f 79 127 84
f 80 126 128
f 80 128 85
f 85 128 129
f 85 129 88
f 88 129 130
f 88 130 91
f 91 130 131
f 91 131 94
f 94 131 132
f 94 132 97
f 97 132 133
f 97 133 100
f 100 133 134
f 100 134 103
f 103 134 135
f 103 135 106
f 106 135 136
f 106 136 109
f 109 136 137
f 109 137 112
f 112 137 138
f 112 138 115
f 115 138 139
f 115 139 118
f 118 139 140
f 118 140 121
f 121 124 141
f 121 141 140
f 125 142 143
f 125 143 126
f 125 142 144
f 125 144 127
f 126 143 145
f 126 145 128
f 128 145 146
f 128 146 129
f 129 146 147
f 129 147 130
f 130 147 148
f 130 148 131
f 131 148 149
f 131 149 132
f 132 149 150
f 132 150 133
f 133 150 151
f 133 151 134
f 134 151 152
f 134 152 135
f 135 152 153
f 135 153 136
f 136 153 154
f 136 154 137
f 137 154 155
f 137 155 138
f 138 155 156
f 138 156 139
f 139 156 157
f 139 157 140
f 140 141 158
f 140 158 157
f 142 5 6
f 142 6 143
f 142 5 159
f 142 159 144
f 143 6 10
f 143 10 145
f 145 10 13
f 145 13 146
f 146 13 16
f 146 16 147
f 147 16 19
f 147 19 148
f 148 19 22
f 148 22 149
f 149 22 25
f 149 25 150
f 150 25 28
f 150 28 151
f 151 28 31
f 151 31 152
f 152 31 34
f 152 34 153
f 153 34 37
f 153 37 154
f 154 37 40
f 154 40 155
f 155 40 43
f 155 43 156
f 156 43 46
f 156 46 157
f 157 158 160
f 157 160 46
f 5 7 161
f 5 161 159
f 46 160 162
f 46 162 47
f 51 50 163
f 51 163 164
f 7 51 164
f 7 164 161
f 50 53 165
f 50 165 163
f 53 55 166
f 53 166 165
f 55 57 167
f 55 167 166
f 57 59 168
f 57 168 167
f 59 61 169
f 59 169 168
f 61 63 170
f 61 170 169
f 63 65 171
f 63 171 170
f 65 67 172
f 65 172 171
f 67 69 173
f 67 173 172
f 69 71 174
f 69 174 173
f 71 73 175
f 71 175 174
f 73 75 176
f 73 176 175
f 75 77 177
f 75 177 176
f 47 162 177
f 47 177 77
f 82 178 179
f 82 179 83
f 82 84 180
f 82 180 178
f 83 179 181
f 83 181 87
f 87 181 182
f 87 182 90
f 90 182 183
f 90 183 93
f 93 183 184
f 93 184 96
f 96 184 185
f 96 185 99
f 99 185 186
f 99 186 102
f 102 186 187
f 102 187 105
f 105 187 188
f 105 188 108
f 108 188 189
f 108 189 111
f 111 189 190
f 111 190 114
f 114 190 191
f 114 191 117
f 117 191 192
f 117 192 120
f 120 192 193
f 120 193 123
f 123 193 194
f 123 194 124
f 84 127 195
f 84 195 180
f 124 194 196
f 124 196 141
f 127 144 197
f 127 197 195
f 141 196 198
f 141 198 158
f 144 159 199
f 144 199 197
f 158 198 200
f 158 200 160
f 159 161 201
f 159 201 199
f 160 200 202
f 160 202 162
f 164 163 203
f 164 203 204
f 161 164 204
f 161 204 201
f 163 165 205
f 163 205 203
f 165 166 206
f 165 206 205
f 166 167 207
f 166 207 206
f 167 168 208
f 167 208 207
f 168 169 209
f 168 209 208
f 169 170 210
f 169 210 209
f 170 171 211
f 170 211 210
f 171 172 212
f 171 212 211
f 172 173 213
f 172 213 212
f 173 174 214
f 173 214 213
f 174 175 215
f 174 215 214
f 175 176 216
f 175 216 215
f 176 177 217
f 176 217 216
f 162 202 217
f 162 217 177
f 178 218 219
f 178 219 179
f 178 180 220
f 178 220 218
f 179 219 221
f 179 221 181
f 181 221 222
f 181 222 182
f 182 222 223
f 182 223 183
f 183 223 224
f 183 224 184
f 184 224 225
f 184 225 185
f 185 225 226
f 185 226 186
f 186 226 227
f 186 227 187
f 187 227 228
f 187 228 188
f 188 228 229
f 188 229 189
f 189 229 230
f 189 230 190
f 190 230 231
f 190 231 191
f 191 231 232
f 191 232 192
f 192 232 233
f 192 233 193
f 193 233 234
f 193 234 194
f 180 195 235
f 180 235 220
f 194 234 236
f 194 236 196
f 195 197 237
f 195 237 235
f 196 236 238
f 196 238 198
f 197 199 239
f 197 239 237
f 198 238 240
f 198 240 200
f 199 201 241
f 199 241 239
f 200 240 242
f 200 242 202
f 204 203 243
f 204 243 244
f 201 204 244
f 201 244 241
f 203 205 245
f 203 245 243
f 205 206 246
f 205 246 245
f 206 207 247
f 206 247 246
f 207 208 248
f 207 248 247
f 208 209 249
f 208 249 248
f 209 210 250
f 209 250 249
f 210 211 251
f 210 251 250
f 211 212 252
f 211 252 251
f 212 213 253
f 212 253 252
f 213 214 254
f 213 254 253
f 214 215 255
f 214 255 254
f 215 216 256
f 215 256 255
f 216 217 257
f 216 257 256
f 202 242 257
f 202 257 217
f 218 258 259
f 218 259 219
f 218 220 260
f 218 260 258
f 219 259 261
f 219 261 221
f 221 261 262
f 221 262 222
f 222 262 263
f 222 263 223
f 223 263 264
f 223 264 224
f 224 264 265
f 224 265 225
f 225 265 266
f 225 266 226
f 226 266 267
f 226 267 227
f 227 267 268
f 227 268 228
f 228 268 269
f 228 269 229
f 229 269 270
f 229 270 230
f 230 270 271
f 230 271 231
f 231 271 272
f 231 272 232
f 232 272 273
f 232 273 233
f 233 273 274
f 233 274 234
f 220 235 275
f 220 275 260
f 234 274 276
f 234 276 236
f 235 237 277
f 235 277 275
f 236 276 278
f 236 278 238
f 237 239 279
f 237 279 277
f 238 278 280
f 238 280 240
f 239 241 281
f 239 281 279
f 240 280 282
f 240 282 242
f 244 243 283
f 244 283 284
f 241 244 284
f 241 284 281
f 243 245 285
f 243 285 283
f 245 246 286
f 245 286 285
f 246 247 287
f 246 287 286
f 247 248 288
f 247 288 287
f 248 249 289
f 248 289 288
f 249 250 290
f 249 290 289
f 250 251 291
f 250 291 290
f 251 252 292
f 251 292 291
f 252 253 293
f 252 293 292
f 253 254 294
f 253 294 293
f 254 255 295
f 254 295 294
f 255 256 296
f 255 296 295
f 256 257 297
f 256 297 296
f 242 282 297
f 242 297 257
f 258 298 299
f 258 299 259
f 258 260 300
f 258 300 298
f 259 299 301
f 259 301 261
f 261 301 302
f 261 302 262
f 262 302 303
f 262 303 263
f 263 303 304
f 263 304 264
f 264 304 305
f 264 305 265
f 265 305 306
f 265 306 266
f 266 306 307
f 266 307 267
f 267 307 308
f 267 308 268
f 268 308 309
f 268 309 269
f 269 309 310
f 269 310 270
f 270 310 311
f 270 311 271
f 271 311 312
f 271 312 272
f 272 312 313
f 272 313 273
f 273 313 314
f 273 314 274
f 260 275 315
f 260 315 300
f 274 314 316
f 274 316 276
f 275 277 317
f 275 317 315
f 276 316 318
f 276 318 278
f 277 279 319
f 277 319 317
f 278 318 320
f 278 320 280
f 279 281 321
f 279 321 319
f 280 320 322
f 280 322 282
f 284 283 323
f 284 323 324
f 281 284 324
f 281 324 321
f 283 285 325
f 283 325 323
f 285 286 326
f 285 326 325
f 286 287 327
f 286 327 326
f 287 288 328
f 287 328 327
f 288 289 329
f 288 329 328
f 289 290 330
f 289 330 329
f 290 291 331
f 290 331 330
f 291 292 332
f 291 332 331
f 292 293 333
f 292 333 332
f 293 294 334
f 293 334 333
f 294 295 335
f 294 335 334
f 295 296 336
f 295 336 335
f 296 297 337
f 296 337 336
f 282 322 337
f 282 337 297
f 298 338 339
f 298 339 299
f 298 300 340
f 298 340 338
f 299 339 341
f 299 341 301
f 301 341 342
f 301 342 302
f 302 342 343
f 302 343 303
f 303 343 344
f 303 344 304
f 304 344 345
f 304 345 305
f 305 345 346
f 305 346 306
f 306 346 347
f 306 347 307
f 307 347 348
f 307 348 308
f 308 348 349
f 308 349 309
f 309 349 350
f 309 350 310
f 310 350 351
f 310 351 311
f 311 351 352
f 311 352 312
f 312 352 353
f 312 353 313
f 313 353 354
f 313 354 314
f 300 315 355
f 300 355 340
f 314 354 356
f 314 356 316
f 315 317 357
f 315 357 355
f 316 356 358
f 316 358 318
f 317 319 359
f 317 359 357
f 318 358 360
f 318 360 320
f 319 321 361
f 319 361 359
f 320 360 362
f 320 362 322
f 324 323 363
f 324 363 364
f 321 324 364
f 321 364 361
f 323 325 365
f 323 365 363
f 325 326 366
f 325 366 365
f 326 327 367
f 326 367 366
f 327 328 368
f 327 368 367
f 328 329 369
f 328 369 368
f 329 330 370
f 329 370 369
f 330 331 371
f 330 371 370
f 331 332 372
f 331 372 371
f 332 333 373
f 332 373 372
f 333 334 374
f 333 374 373
f 334 335 375
f 334 375 374
f 335 336 376
f 335 376 375
f 336 337 377
f 336 377 376
f 322 362 377
f 322 377 337
f 338 378 379
f 338 379 339
f 338 340 380
f 338 380 378
f 339 379 381
f 339 381 341
f 341 381 382
f 341 382 342
f 342 382 383
f 342 383 343
f 343 383 384
f 343 384 344
f 344 384 385
f 344 385 345
f 345 385 386
f 345 386 346
f 346 386 387
f 346 387 347
f 347 387 388
f 347 388 348
f 348 388 389
f 348 389 349
f 349 389 390
f 349 390 350
f 350 390 391
f 350 391 351
f 351 391 392
f 351 392 352
f 352 392 393
f 352 393 353
f 353 393 394
f 353 394 354
f 340 355 395
f 340 395 380
f 354 394 396
f 354 396 356
f 355 357 397
f 355 397 395
f 356 396 398
f 356 398 358
f 357 359 399
f 357 399 397
f 358 398 400
f 358 400 360
f 359 361 401
f 359 401 399
f 360 400 402
f 360 402 362
f 364 363 403
f 364 403 404
f 361 364 404
f 361 404 401
f 363 365 405
f 363 405 403
f 365 366 406
f 365 406 405
f 366 367 407
f 366 407 406
f 367 368 408
f 367 408 407
f 368 369 409
f 368 409 408
f 369 370 410
f 369 410 409
f 370 371 411
f 370 411 410
f 371 372 412
f 371 412 411
f 372 373 413
f 372 413 412
f 373 374 414
f 373 414 413
f 374 375 415
f 374 415 414
f 375 376 416
f 375 416 415
f 376 377 417
f 376 417 416
f 362 402 417
f 362 417 377
f 378 418 419
f 378 419 379
f 378 380 420
f 378 420 418
f 379 419 421
f 379 421 381
f 381 421 422
f 381 422 382
f 382 422 423
f 382 423 383
f 383 423 424
f 383 424 384
f 384 424 425
f 384 425 385
f 385 425 426
f 385 426 386
f 386 426 427
f 386 427 387
f 387 427 428
f 387 428 388
f 388 428 429
f 388 429 389
f 389 429 430
f 389 430 390
f 390 430 431
f 390 431 391
f 391 431 432
f 391 432 392
f 392 432 433
f 392 433 393
f 393 433 434
f 393 434 394
f 380 395 435
f 380 435 420
f 394 434 436
f 394 436 396
f 395 397 437
f 395 437 435
f 396 436 438
f 396 438 398
f 397 399 439
f 397 439 437
f 398 438 440
f 398 440 400
f 399 401 441
f 399 441 439
f 400 440 442
f 400 442 402
f 404 403 443
f 404 443 444
f 401 404 444
f 401 444 441
f 403 405 445
f 403 445 443
f 405 406 446
f 405 446 445
f 406 407 447
f 406 447 446
f 407 408 448
f 407 448 447
f 408 409 449
f 408 449 448
f 409 410 450
f 409 450 449
f 410 411 451
f 410 451 450
f 411 412 452
f 411 452 451
f 412 413 453
f 412 453 452
f 413 414 454
f 413 454 453
f 414 415 455
f 414 455 454
f 415 416 456
f 415 456 455
f 416 417 457
f 416 457 456
f 402 442 457
f 402 457 417
f 418 458 459
f 418 459 419
f 418 420 460
f 418 460 458
f 419 459 461
f 419 461 421
f 421 461 462
f 421 462 422
f 422 462 463
f 422 463 423
f 423 463 464
f 423 464 424
f 424 464 465
f 424 465 425
f 425 465 466
f 425 466 426
f 426 466 467
f 426 467 427
f 427 467 468
f 427 468 428
f 428 468 469
f 428 469 429
f 429 469 470
f 429 470 430
f 430 470 471
f 430 471 431
f 431 471 472
f 431 472 432
f 432 472 473
f 432 473 433
f 433 473 474
f 433 474 434
f 420 435 475
f 420 475 460
f 434 474 476
f 434 476 436
f 435 437 477
f 435 477 475
f 436 476 478
f 436 478 438
f 437 439 479
f 437 479 477
f 438 478 480
f 438 480 440
f 439 441 481
f 439 481 479
f 440 480 482
f 440 482 442
f 444 443 483
f 444 483 484
f 441 444 484
f 441 484 481
f 443 445 485
f 443 485 483
f 445 446 486
f 445 486 485
f 446 447 487
f 446 487 486
f 447 448 488
f 447 488 487
f 448 449 489
f 448 489 488
f 449 450 490
f 449 490 489
f 450 451 491
f 450 491 490
f 451 452 492
f 451 492 491
f 452 453 493
f 452 493 492
f 453 454 494
f 453 494 493
f 454 455 495
f 454 495 494
f 455 456 496
f 455 496 495
f 456 457 497
f 456 497 496
f 442 482 497
f 442 497 457
f 458 498 499
f 458 499 459
f 458 460 500
f 458 500 498
f 459 499 501
f 459 501 461
f 461 501 502
f 461 502 462
f 462 502 503
f 462 503 463
f 463 503 504
f 463 504 464
f 464 504 505
f 464 505 465
f 465 505 506
f 465 506 466
f 466 506 507
f 466 507 467
f 467 507 508
f 467 508 468
f 468 508 509
f 468 509 469
f 469 509 510
f 469 510 470
f 470 510 511
f 470 511 471
f 471 511 512
f 471 512 472
f 472 512 513
f 472 513 473
f 473 513 514
f 473 514 474
f 460 475 515
f 460 515 500
f 474 514 516
f 474 516 476
f 475 477 517
f 475 517 515
f 476 516 518
f 476 518 478
f 477 479 519
f 477 519 517
f 478 518 520
f 478 520 480
f 479 481 521
f 479 521 519
f 480 520 522
f 480 522 482
f 484 483 523
f 484 523 524
f 481 484 524
f 481 524 521
f 483 485 525
f 483 525 523
f 485 486 526
f 485 526 525
f 486 487 527
f 486 527 526
f 487 488 528
f 487 528 527
f 488 489 529
f 488 529 528
f 489 490 530
f 489 530 529
f 490 491 531
f 490 531 530
f 491 492 532
f 491 532 531
f 492 493 533
f 492 533 532
f 493 494 534
f 493 534 533
f 494 495 535
f 494 535 534
f 495 496 536
f 495 536 535
f 496 497 537
f 496 537 536
f 482 522 537
f 482 537 497
f 498 538 539
f 498 539 499
f 498 500 540
f 498 540 538
f 499 539 541
f 499 541 501
f 501 541 542
f 501 542 502
f 502 542 543
f 502 543 503
f 503 543 544
f 503 544 504
f 504 544 545
f 504 545 505
f 505 545 546
f 505 546 506
f 506 546 547
f 506 547 507
f 507 547 548
f 507 548 508
f 508 548 549
f 508 549 509
f 509 549 550
f 509 550 510
f 510 550 551
f 510 551 511
f 511 551 552
f 511 552 512
f 512 552 553
f 512 553 513
f 513 553 554
f 513 554 514
f 500 515 555
f 500 555 540
f 514 554 556
f 514 556 516
f 515 517 557
f 515 557 555
f 516 556 558
f 516 558 518
f 517 519 559
f 517 559 557
f 518 558 560
f 518 560 520
f 519 521 561
f 519 561 559
f 520 560 562
f 520 562 522
f 524 523 563
f 524 563 564
f 521 524 564
f 521 564 561
f 523 525 565
f 523 565 563
f 525 526 566
f 525 566 565
f 526 527 567
f 526 567 566
f 527 528 568
f 527 568 567
f 528 529 569
f 528 569 568
f 529 530 570
f 529 570 569
f 530 531 571
f 530 571 570
f 531 532 572
f 531 572 571
f 532 533 573
f 532 573 572
f 533 534 574
f 533 574 573
f 534 535 575
f 534 575 574
f 535 536 576
f 535 576 575
f 536 537 577
f 536 577 576
f 522 562 577
f 522 577 537
f 538 578 579
f 538 579 539
f 538 540 580
f 538 580 578
f 539 579 581
f 539 581 541
f 541 581 582
f 541 582 542
f 542 582 583
f 542 583 543
f 543 583 584
f 543 584 544
f 544 584 585
f 544 585 545
f 545 585 586
f 545 586 546
f 546 586 587
f 546 587 547
f 547 587 588
f 547 588 548
f 548 588 589
f 548 589 549
f 549 589 590
f 549 590 550
f 550 590 591
f 550 591 551
f 551 591 592
f 551 592 552
f 552 592 593
f 552 593 553
f 553 593 594
f 553 594 554
f 540 555 595
f 540 595 580
f 554 594 596
f 554 596 556
f 555 557 597
f 555 597 595
f 556 596 598
f 556 598 558
f 557 559 599
f 557 599 597
f 558 598 600
f 558 600 560
f 559 561 601
f 559 601 599
f 560 600 602
f 560 602 562
f 564 563 603
f 564 603 604
f 561 564 604
f 561 604 601
f 563 565 605
f 563 605 603
f 565 566 606
f 565 606 605
f 566 567 607
f 566 607 606
f 567 568 608
f 567 608 607
f 568 569 609
f 568 609 608
f 569 570 610
f 569 610 609
f 570 571 611
f 570 611 610
f 571 572 612
f 571 612 611
f 572 573 613
f 572 613 612
f 573 574 614
f 573 614 613
f 574 575 615
f 574 615 614
f 575 576 616
f 575 616 615
f 576 577 617
f 576 617 616
f 562 602 617
f 562 617 577
f 578 618 619
f 578 619 579
f 578 580 620
f 578 620 618
f 579 619 621
f 579 621 581
f 581 621 622
f 581 622 582
f 582 622 623
f 582 623 583
f 583 623 624
f 583 624 584
f 584 624 625
f 584 625 585
f 585 625 626
f 585 626 586
f 586 626 627
f 586 627 587
f 587 627 628
f 587 628 588
f 588 628 629
f 588 629 589
f 589 629 630
f 589 630 590
f 590 630 631
f 590 631 591
f 591 631 632
f 591 632 592
f 592 632 633
f 592 633 593
f 593 633 634
f 593 634 594
f 580 595 635
f 580 635 620
f 594 634 636
f 594 636 596
f 595 597 637
f 595 637 635
f 596 636 638
f 596 638 598
f 597 599 639
f 597 639 637
f 598 638 640
f 598 640 600
f 599 601 641
f 599 641 639
f 600 640 642
f 600 642 602
f 604 603 643
f 604 643 644
f 601 604 644
f 601 644 641
f 603 605 645
f 603 645 643
f 605 606 646
f 605 646 645
f 606 607 647
f 606 647 646
f 607 608 648
f 607 648 647
f 608 609 649
f 608 649 648
f 609 610 650
f 609 650 649
f 610 611 651
f 610 651 650
f 611 612 652
f 611 652 651
f 612 613 653
f 612 653 652
f 613 614 654
f 613 654 653
f 614 615 655
f 614 655 654
f 615 616 656
f 615 656 655
f 616 617 657
f 616 657 656
f 602 642 657
f 602 657 617
f 658 659 660
f 658 660 661
f 618 658 659
f 618 659 619
f 618 620 661
f 618 661 658
f 659 662 663
f 659 663 660
f 619 659 662
f 619 662 621
f 662 664 665
f 662 665 663
f 621 662 664
f 621 664 622
f 664 666 667
f 664 667 665
f 622 664 666
f 622 666 623
f 666 668 669
f 666 669 667
f 623 666 668
f 623 668 624
f 668 670 671
f 668 671 669
f 624 668 670
f 624 670 625
f 670 672 673
f 670 673 671
f 625 670 672
f 625 672 626
f 672 674 675
f 672 675 673
f 626 672 674
f 626 674 627
f 674 676 677
f 674 677 675
f 627 674 676
f 627 676 628
f 676 678 679
f 676 679 677
f 628 676 678
f 628 678 629
f 678 680 681
f 678 681 679
f 629 678 680
f 629 680 630
f 680 682 683
f 680 683 681
f 630 680 682
f 630 682 631
f 682 684 685
f 682 685 683
f 631 682 684
f 631 684 632
f 684 686 687
f 684 687 685
f 632 684 686
f 632 686 633
f 633 686 687
f 633 687 634
f 661 660 688
f 661 688 689
f 620 635 689
f 620 689 661
f 660 663 690
f 660 690 688
f 663 665 691
f 663 691 690
f 665 667 692
f 665 692 691
f 667 669 693
f 667 693 692
f 669 671 694
f 669 694 693
f 671 673 695
f 671 695 694
f 673 675 696
f 673 696 695
f 675 677 697
f 675 697 696
f 677 679 698
f 677 698 697
f 679 681 699
f 679 699 698
f 681 683 700
f 681 700 699
f 683 685 701
f 683 701 700
f 685 687 702
f 685 702 701
f 634 687 702
f 634 702 636
f 689 688 703
f 689 703 704
f 635 637 704
f 635 704 689
f 688 690 705
f 688 705 703
f 690 691 706
f 690 706 705
f 691 692 707
f 691 707 706
f 692 693 708
f 692 708 707
f 693 694 709
f 693 709 708
f 694 695 710
f 694 710 709
f 695 696 711
f 695 711 710
f 696 697 712
f 696 712 711
f 697 698 713
f 697 713 712
f 698 699 714
f 698 714 713
f 699 700 715
f 699 715 714
f 700 701 716
f 700 716 715
f 701 702 717
f 701 717 716
f 636 702 717
f 636 717 638
f 704 703 718
f 704 718 719
f 637 639 719
f 637 719 704
f 703 705 720
f 703 720 718
f 705 706 721
f 705 721 720
f 706 707 722
f 706 722 721
f 707 708 723
f 707 723 722
f 708 709 724
f 708 724 723
f 709 710 725
f 709 725 724
f 710 711 726
f 710 726 725
f 711 712 727
f 711 727 726
f 712 713 728
f 712 728 727
f 713 714 729
f 713 729 728
f 714 715 730
f 714 730 729
f 715 716 731
f 715 731 730
f 716 717 732
f 716 732 731
f 638 717 732
f 638 732 640
f 719 718 733
f 719 733 734
f 639 641 734
f 639 734 719
f 718 720 735
f 718 735 733
f 720 721 736
f 720 736 735
f 721 722 737
f 721 737 736
f 722 723 738
f 722 738 737
f 723 724 739
f 723 739 738
f 724 725 740
f 724 740 739
f 725 726 741
f 725 741 740
f 726 727 742
f 726 742 741
f 727 728 743
f 727 743 742
f 728 729 744
f 728 744 743
f 729 730 745
f 729 745 744
f 730 731 746
f 730 746 745
f 731 732 747
f 731 747 746
f 640 732 747
f 640 747 642
f 734 733 748
f 734 748 749
f 644 643 748
f 644 748 749
f 641 644 749
f 641 749 734
f 733 735 750
f 733 750 748
f 643 645 750
f 643 750 748
f 735 736 751
f 735 751 750
f 645 646 751
f 645 751 750
f 736 737 752
f 736 752 751
f 646 647 752
f 646 752 751
f 737 738 753
f 737 753 752
f 647 648 753
f 647 753 752
f 738 739 754
f 738 754 753
f 648 649 754
f 648 754 753
f 739 740 755
f 739 755 754
f 649 650 755
f 649 755 754
f 740 741 756
f 740 756 755
f 650 651 756
f 650 756 755
f 741 742 757
f 741 757 756
f 651 652 757
f 651 757 756
f 742 743 758
f 742 758 757
f 652 653 758
f 652 758 757
f 743 744 759
f 743 759 758
f 653 654 759
f 653 759 758
f 744 745 760
f 744 760 759
f 654 655 760
f 654 760 759
f 745 746 761
f 745 761 760
f 655 656 761
f 655 761 760
f 746 747 762
f 746 762 761
f 656 657 762
f 656 762 761
f 642 747 762
f 642 762 657
