o [4B] 3D Diagram - S2-06 Group C_95
v -51.786000 -43.829692 66.975000
v -51.786000 -38.451618 66.975000
v -51.786000 -38.451618 67.062500
v -51.786000 -43.829692 67.062500
v -44.388000 -43.829692 66.975000
v -44.388000 -43.829692 67.062500
v -44.388000 -38.451618 66.975000
v -51.786000 -38.451618 67.150000
v -51.786000 -43.829692 67.150000
v -44.388000 -43.829692 67.150000
v -51.786000 -38.451618 67.237500
v -51.786000 -43.829692 67.237500
v -44.388000 -43.829692 67.237500
v -51.786000 -38.451618 67.325000
v -51.786000 -43.829692 67.325000
v -44.388000 -43.829692 67.325000
v -51.786000 -38.451618 67.412500
v -51.786000 -43.829692 67.412500
v -44.388000 -43.829692 67.412500
v -51.786000 -38.451618 67.500000
v -51.786000 -43.829692 67.500000
v -44.388000 -43.829692 67.500000
v -51.786000 -38.451618 67.587500
v -51.786000 -43.829692 67.587500
v -44.388000 -43.829692 67.587500
v -51.786000 -38.451618 67.675000
v -51.786000 -43.829692 67.675000
v -44.388000 -43.829692 67.675000
v -51.786000 -38.451618 67.762500
v -51.786000 -43.829692 67.762500
v -44.388000 -43.829692 67.762500
v -51.786000 -38.451618 67.850000
v -51.786000 -43.829692 67.850000
v -44.388000 -43.829692 67.850000
v -51.786000 -38.451618 67.937500
v -51.786000 -43.829692 67.937500
v -44.388000 -43.829692 67.937500
v -51.786000 -38.451618 68.025000
v -51.786000 -43.829692 68.025000
v -44.388000 -43.829692 68.025000
v -44.388000 -38.451618 68.025000
v -51.786000 -33.073544 66.975000
v -51.786000 -33.073544 67.062500
v -44.388000 -33.073544 66.975000
v -51.786000 -33.073544 67.150000
v -51.786000 -33.073544 67.237500
v -51.786000 -33.073544 67.325000
v -51.786000 -33.073544 67.412500
v -51.786000 -33.073544 67.500000
v -51.786000 -33.073544 67.587500
v -51.786000 -33.073544 67.675000
v -51.786000 -33.073544 67.762500
v -51.786000 -33.073544 67.850000
v -51.786000 -33.073544 67.937500
v -51.786000 -33.073544 68.025000
v -44.388000 -33.073544 68.025000
v -51.786000 -27.695470 66.975000
v -51.786000 -27.695470 67.062500
v -44.388000 -27.695470 66.975000
v -51.786000 -27.695470 67.150000
v -51.786000 -27.695470 67.237500
v -51.786000 -27.695470 67.325000
v -51.786000 -27.695470 67.412500
v -51.786000 -27.695470 67.500000
v -51.786000 -27.695470 67.587500
v -51.786000 -27.695470 67.675000
v -51.786000 -27.695470 67.762500
v -51.786000 -27.695470 67.850000
v -51.786000 -27.695470 67.937500
v -51.786000 -27.695470 68.025000
v -44.388000 -27.695470 68.025000
v -51.786000 -22.317396 66.975000
v -51.786000 -22.317396 67.062500
v -44.388000 -22.317396 66.975000
v -51.786000 -22.317396 67.150000
v -51.786000 -22.317396 67.237500
v -51.786000 -22.317396 67.325000
v -51.786000 -22.317396 67.412500
v -51.786000 -22.317396 67.500000
v -51.786000 -22.317396 67.587500
v -51.786000 -22.317396 67.675000
v -51.786000 -22.317396 67.762500
v -51.786000 -22.317396 67.850000
v -51.786000 -22.317396 67.937500
v -51.786000 -22.317396 68.025000
v -44.388000 -22.317396 68.025000
v -51.786000 -16.939322 66.975000
v -51.786000 -16.939322 67.062500
v -44.388000 -16.939322 66.975000
v -51.786000 -16.939322 67.150000
v -51.786000 -16.939322 67.237500
v -51.786000 -16.939322 67.325000
v -51.786000 -16.939322 67.412500
v -51.786000 -16.939322 67.500000
v -51.786000 -16.939322 67.587500
v -51.786000 -16.939322 67.675000
v -51.786000 -16.939322 67.762500
v -51.786000 -16.939322 67.850000
v -51.786000 -16.939322 67.937500
v -51.786000 -16.939322 68.025000
v -44.388000 -16.939322 68.025000
v -51.786000 -11.561249 66.975000
v -51.786000 -11.561249 67.062500
v -44.388000 -11.561249 66.975000
v -51.786000 -11.561249 67.150000
v -51.786000 -11.561249 67.237500
v -51.786000 -11.561249 67.325000
v -51.786000 -11.561249 67.412500
v -51.786000 -11.561249 67.500000
v -51.786000 -11.561249 67.587500
v -51.786000 -11.561249 67.675000
v -51.786000 -11.561249 67.762500
v -51.786000 -11.561249 67.850000
v -51.786000 -11.561249 67.937500
v -51.786000 -11.561249 68.025000
v -44.388000 -11.561249 68.025000
v -51.786000 -6.183175 66.975000
v -51.786000 -6.183175 67.062500
v -44.388000 -6.183175 66.975000
v -51.786000 -6.183175 67.150000
v -51.786000 -6.183175 67.237500
v -51.786000 -6.183175 67.325000
v -51.786000 -6.183175 67.412500
v -51.786000 -6.183175 67.500000
v -51.786000 -6.183175 67.587500
v -51.786000 -6.183175 67.675000
v -51.786000 -6.183175 67.762500
v -51.786000 -6.183175 67.850000
v -51.786000 -6.183175 67.937500
v -51.786000 -6.183175 68.025000
v -44.388000 -6.183175 68.025000
v -51.786000 -0.805101 66.975000
v -51.786000 -0.805101 67.062500
v -44.388000 -0.805101 66.975000
v -51.786000 -0.805101 67.150000
v -51.786000 -0.805101 67.237500
v -51.786000 -0.805101 67.325000
v -51.786000 -0.805101 67.412500
v -51.786000 -0.805101 67.500000
v -51.786000 -0.805101 67.587500
v -51.786000 -0.805101 67.675000
v -51.786000 -0.805101 67.762500
v -51.786000 -0.805101 67.850000
v -51.786000 -0.805101 67.937500
v -51.786000 -0.805101 68.025000
v -44.388000 -0.805101 68.025000
v -51.786000 4.572973 66.975000
v -51.786000 4.572973 67.062500
v -44.388000 4.572973 66.975000
v -51.786000 4.572973 67.150000
v -51.786000 4.572973 67.237500
v -51.786000 4.572973 67.325000
v -51.786000 4.572973 67.412500
v -51.786000 4.572973 67.500000
v -51.786000 4.572973 67.587500
v -51.786000 4.572973 67.675000
v -51.786000 4.572973 67.762500
v -51.786000 4.572973 67.850000
v -51.786000 4.572973 67.937500
v -51.786000 4.572973 68.025000
v -44.388000 4.572973 68.025000
v -51.786000 9.951047 66.975000
v -51.786000 9.951047 67.062500
v -44.388000 9.951047 66.975000
v -51.786000 9.951047 67.150000
v -51.786000 9.951047 67.237500
v -51.786000 9.951047 67.325000
v -51.786000 9.951047 67.412500
v -51.786000 9.951047 67.500000
v -51.786000 9.951047 67.587500
v -51.786000 9.951047 67.675000
v -51.786000 9.951047 67.762500
v -51.786000 9.951047 67.850000
v -51.786000 9.951047 67.937500
v -51.786000 9.951047 68.025000
v -44.388000 9.951047 68.025000
v -51.786000 15.329121 66.975000
v -51.786000 15.329121 67.062500
v -44.388000 15.329121 66.975000
v -51.786000 15.329121 67.150000
v -51.786000 15.329121 67.237500
v -51.786000 15.329121 67.325000
v -51.786000 15.329121 67.412500
v -51.786000 15.329121 67.500000
v -51.786000 15.329121 67.587500
v -51.786000 15.329121 67.675000
v -51.786000 15.329121 67.762500
v -51.786000 15.329121 67.850000
v -51.786000 15.329121 67.937500
v -51.786000 15.329121 68.025000
v -44.388000 15.329121 68.025000
v -51.786000 20.707195 66.975000
v -51.786000 20.707195 67.062500
v -44.388000 20.707195 66.975000
v -51.786000 20.707195 67.150000
v -51.786000 20.707195 67.237500
v -51.786000 20.707195 67.325000
v -51.786000 20.707195 67.412500
v -51.786000 20.707195 67.500000
v -51.786000 20.707195 67.587500
v -51.786000 20.707195 67.675000
v -51.786000 20.707195 67.762500
v -51.786000 20.707195 67.850000
v -51.786000 20.707195 67.937500
v -51.786000 20.707195 68.025000
v -44.388000 20.707195 68.025000
v -51.786000 26.085268 66.975000
v -51.786000 26.085268 67.062500
v -44.388000 26.085268 66.975000
v -51.786000 26.085268 67.150000
v -51.786000 26.085268 67.237500
v -51.786000 26.085268 67.325000
v -51.786000 26.085268 67.412500
v -51.786000 26.085268 67.500000
v -51.786000 26.085268 67.587500
v -51.786000 26.085268 67.675000
v -51.786000 26.085268 67.762500
v -51.786000 26.085268 67.850000
v -51.786000 26.085268 67.937500
v -51.786000 26.085268 68.025000
v -44.388000 26.085268 68.025000
v -51.786000 31.463342 66.975000
v -51.786000 31.463342 67.062500
v -44.388000 31.463342 66.975000
v -51.786000 31.463342 67.150000
v -51.786000 31.463342 67.237500
v -51.786000 31.463342 67.325000
v -51.786000 31.463342 67.412500
v -51.786000 31.463342 67.500000
v -51.786000 31.463342 67.587500
v -51.786000 31.463342 67.675000
v -51.786000 31.463342 67.762500
v -51.786000 31.463342 67.850000
v -51.786000 31.463342 67.937500
v -51.786000 31.463342 68.025000
v -44.388000 31.463342 68.025000
v -51.786000 36.841416 66.975000
v -51.786000 36.841416 67.062500
v -44.388000 36.841416 66.975000
v -51.786000 36.841416 67.150000
v -51.786000 36.841416 67.237500
v -51.786000 36.841416 67.325000
v -51.786000 36.841416 67.412500
v -51.786000 36.841416 67.500000
v -51.786000 36.841416 67.587500
v -51.786000 36.841416 67.675000
v -51.786000 36.841416 67.762500
v -51.786000 36.841416 67.850000
v -51.786000 36.841416 67.937500
v -51.786000 36.841416 68.025000
v -44.388000 36.841416 68.025000
v -51.786000 42.219490 66.975000
v -51.786000 42.219490 67.062500
v -44.388000 42.219490 67.062500
v -44.388000 42.219490 66.975000
v -51.786000 42.219490 67.150000
v -44.388000 42.219490 67.150000
v -51.786000 42.219490 67.237500
v -44.388000 42.219490 67.237500
v -51.786000 42.219490 67.325000
v -44.388000 42.219490 67.325000
v -51.786000 42.219490 67.412500
v -44.388000 42.219490 67.412500
v -51.786000 42.219490 67.500000
v -44.388000 42.219490 67.500000
v -51.786000 42.219490 67.587500
v -44.388000 42.219490 67.587500
v -51.786000 42.219490 67.675000
v -44.388000 42.219490 67.675000
v -51.786000 42.219490 67.762500
v -44.388000 42.219490 67.762500
v -51.786000 42.219490 67.850000
v -44.388000 42.219490 67.850000
v -51.786000 42.219490 67.937500
v -44.388000 42.219490 67.937500
v -51.786000 42.219490 68.025000
v -44.388000 42.219490 68.025000
v -36.990000 -43.829692 66.975000
v -36.990000 -43.829692 67.062500
v -36.990000 -38.451618 66.975000
v -36.990000 -43.829692 67.150000
v -36.990000 -43.829692 67.237500
v -36.990000 -43.829692 67.325000
v -36.990000 -43.829692 67.412500
v -36.990000 -43.829692 67.500000
v -36.990000 -43.829692 67.587500
v -36.990000 -43.829692 67.675000
v -36.990000 -43.829692 67.762500
v -36.990000 -43.829692 67.850000
v -36.990000 -43.829692 67.937500
v -36.990000 -43.829692 68.025000
v -36.990000 -38.451618 68.025000
v -36.990000 -33.073544 66.975000
v -36.990000 -33.073544 68.025000
v -36.990000 -27.695470 66.975000
v -36.990000 -27.695470 68.025000
v -36.990000 -22.317396 66.975000
v -36.990000 -22.317396 68.025000
v -36.990000 -16.939322 66.975000
v -36.990000 -16.939322 68.025000
v -36.990000 -11.561249 66.975000
v -36.990000 -11.561249 68.025000
v -36.990000 -6.183175 66.975000
v -36.990000 -6.183175 68.025000
v -36.990000 -0.805101 66.975000
v -36.990000 -0.805101 68.025000
v -36.990000 4.572973 66.975000
v -36.990000 4.572973 68.025000
v -36.990000 9.951047 66.975000
v -36.990000 9.951047 68.025000
v -36.990000 15.329121 66.975000
v -36.990000 15.329121 68.025000
v -36.990000 20.707195 66.975000
v -36.990000 20.707195 68.025000
v -36.990000 26.085268 66.975000
v -36.990000 26.085268 68.025000
v -36.990000 31.463342 66.975000
v -36.990000 31.463342 68.025000
v -36.990000 36.841416 66.975000
v -36.990000 36.841416 68.025000
v -36.990000 42.219490 67.062500
v -36.990000 42.219490 66.975000
v -36.990000 42.219490 67.150000
v -36.990000 42.219490 67.237500
v -36.990000 42.219490 67.325000
v -36.990000 42.219490 67.412500
v -36.990000 42.219490 67.500000
v -36.990000 42.219490 67.587500
v -36.990000 42.219490 67.675000
v -36.990000 42.219490 67.762500
v -36.990000 42.219490 67.850000
v -36.990000 42.219490 67.937500
v -36.990000 42.219490 68.025000
v -29.592000 -43.829692 66.975000
v -29.592000 -43.829692 67.062500
v -29.592000 -38.451618 66.975000
v -29.592000 -43.829692 67.150000
v -29.592000 -43.829692 67.237500
v -29.592000 -43.829692 67.325000
v -29.592000 -43.829692 67.412500
v -29.592000 -43.829692 67.500000
v -29.592000 -43.829692 67.587500
v -29.592000 -43.829692 67.675000
v -29.592000 -43.829692 67.762500
v -29.592000 -43.829692 67.850000
v -29.592000 -43.829692 67.937500
v -29.592000 -43.829692 68.025000
v -29.592000 -38.451618 68.025000
v -29.592000 -33.073544 66.975000
v -29.592000 -33.073544 68.025000
v -29.592000 -27.695470 66.975000
v -29.592000 -27.695470 68.025000
v -29.592000 -22.317396 66.975000
v -29.592000 -22.317396 68.025000
v -29.592000 -16.939322 66.975000
v -29.592000 -16.939322 68.025000
v -29.592000 -11.561249 66.975000
v -29.592000 -11.561249 68.025000
v -29.592000 -6.183175 66.975000
v -29.592000 -6.183175 68.025000
v -29.592000 -0.805101 66.975000
v -29.592000 -0.805101 68.025000
v -29.592000 4.572973 66.975000
v -29.592000 4.572973 68.025000
v -29.592000 9.951047 66.975000
v -29.592000 9.951047 68.025000
v -29.592000 15.329121 66.975000
v -29.592000 15.329121 68.025000
v -29.592000 20.707195 66.975000
v -29.592000 20.707195 68.025000
v -29.592000 26.085268 66.975000
v -29.592000 26.085268 68.025000
v -29.592000 31.463342 66.975000
v -29.592000 31.463342 68.025000
v -29.592000 36.841416 66.975000
v -29.592000 36.841416 68.025000
v -29.592000 42.219490 67.062500
v -29.592000 42.219490 66.975000
v -29.592000 42.219490 67.150000
v -29.592000 42.219490 67.237500
v -29.592000 42.219490 67.325000
v -29.592000 42.219490 67.412500
v -29.592000 42.219490 67.500000
v -29.592000 42.219490 67.587500
v -29.592000 42.219490 67.675000
v -29.592000 42.219490 67.762500
v -29.592000 42.219490 67.850000
v -29.592000 42.219490 67.937500
v -29.592000 42.219490 68.025000
v -22.194000 -43.829692 66.975000
v -22.194000 -43.829692 67.062500
v -22.194000 -38.451618 66.975000
v -22.194000 -43.829692 67.150000
v -22.194000 -43.829692 67.237500
v -22.194000 -43.829692 67.325000
v -22.194000 -43.829692 67.412500
v -22.194000 -43.829692 67.500000
v -22.194000 -43.829692 67.587500
v -22.194000 -43.829692 67.675000
v -22.194000 -43.829692 67.762500
v -22.194000 -43.829692 67.850000
v -22.194000 -43.829692 67.937500
v -22.194000 -43.829692 68.025000
v -22.194000 -38.451618 68.025000
v -22.194000 -33.073544 66.975000
v -22.194000 -33.073544 68.025000
v -22.194000 -27.695470 66.975000
v -22.194000 -27.695470 68.025000
v -22.194000 -22.317396 66.975000
v -22.194000 -22.317396 68.025000
v -22.194000 -16.939322 66.975000
v -22.194000 -16.939322 68.025000
v -22.194000 -11.561249 66.975000
v -22.194000 -11.561249 68.025000
v -22.194000 -6.183175 66.975000
v -22.194000 -6.183175 68.025000
v -22.194000 -0.805101 66.975000
v -22.194000 -0.805101 68.025000
v -22.194000 4.572973 66.975000
v -22.194000 4.572973 68.025000
v -22.194000 9.951047 66.975000
v -22.194000 9.951047 68.025000
v -22.194000 15.329121 66.975000
v -22.194000 15.329121 68.025000
v -22.194000 20.707195 66.975000
v -22.194000 20.707195 68.025000
v -22.194000 26.085268 66.975000
v -22.194000 26.085268 68.025000
v -22.194000 31.463342 66.975000
v -22.194000 31.463342 68.025000
v -22.194000 36.841416 66.975000
v -22.194000 36.841416 68.025000
v -22.194000 42.219490 67.062500
v -22.194000 42.219490 66.975000
v -22.194000 42.219490 67.150000
v -22.194000 42.219490 67.237500
v -22.194000 42.219490 67.325000
v -22.194000 42.219490 67.412500
v -22.194000 42.219490 67.500000
v -22.194000 42.219490 67.587500
v -22.194000 42.219490 67.675000
v -22.194000 42.219490 67.762500
v -22.194000 42.219490 67.850000
v -22.194000 42.219490 67.937500
v -22.194000 42.219490 68.025000
v -14.796000 -43.829692 66.975000
v -14.796000 -43.829692 67.062500
v -14.796000 -38.451618 66.975000
v -14.796000 -43.829692 67.150000
v -14.796000 -43.829692 67.237500
v -14.796000 -43.829692 67.325000
v -14.796000 -43.829692 67.412500
v -14.796000 -43.829692 67.500000
v -14.796000 -43.829692 67.587500
v -14.796000 -43.829692 67.675000
v -14.796000 -43.829692 67.762500
v -14.796000 -43.829692 67.850000
v -14.796000 -43.829692 67.937500
v -14.796000 -43.829692 68.025000
v -14.796000 -38.451618 68.025000
v -14.796000 -33.073544 66.975000
v -14.796000 -33.073544 68.025000
v -14.796000 -27.695470 66.975000
v -14.796000 -27.695470 68.025000
v -14.796000 -22.317396 66.975000
v -14.796000 -22.317396 68.025000
v -14.796000 -16.939322 66.975000
v -14.796000 -16.939322 68.025000
v -14.796000 -11.561249 66.975000
v -14.796000 -11.561249 68.025000
v -14.796000 -6.183175 66.975000
v -14.796000 -6.183175 68.025000
v -14.796000 -0.805101 66.975000
v -14.796000 -0.805101 68.025000
v -14.796000 4.572973 66.975000
v -14.796000 4.572973 68.025000
v -14.796000 9.951047 66.975000
v -14.796000 9.951047 68.025000
v -14.796000 15.329121 66.975000
v -14.796000 15.329121 68.025000
v -14.796000 20.707195 66.975000
v -14.796000 20.707195 68.025000
v -14.796000 26.085268 66.975000
v -14.796000 26.085268 68.025000
v -14.796000 31.463342 66.975000
v -14.796000 31.463342 68.025000
v -14.796000 36.841416 66.975000
v -14.796000 36.841416 68.025000
v -14.796000 42.219490 67.062500
v -14.796000 42.219490 66.975000
v -14.796000 42.219490 67.150000
v -14.796000 42.219490 67.237500
v -14.796000 42.219490 67.325000
v -14.796000 42.219490 67.412500
v -14.796000 42.219490 67.500000
v -14.796000 42.219490 67.587500
v -14.796000 42.219490 67.675000
v -14.796000 42.219490 67.762500
v -14.796000 42.219490 67.850000
v -14.796000 42.219490 67.937500
v -14.796000 42.219490 68.025000
v -7.398000 -43.829692 66.975000
v -7.398000 -43.829692 67.062500
v -7.398000 -38.451618 66.975000
v -7.398000 -43.829692 67.150000
v -7.398000 -43.829692 67.237500
v -7.398000 -43.829692 67.325000
v -7.398000 -43.829692 67.412500
v -7.398000 -43.829692 67.500000
v -7.398000 -43.829692 67.587500
v -7.398000 -43.829692 67.675000
v -7.398000 -43.829692 67.762500
v -7.398000 -43.829692 67.850000
v -7.398000 -43.829692 67.937500
v -7.398000 -43.829692 68.025000
v -7.398000 -38.451618 68.025000
v -7.398000 -33.073544 66.975000
v -7.398000 -33.073544 68.025000
v -7.398000 -27.695470 66.975000
v -7.398000 -27.695470 68.025000
v -7.398000 -22.317396 66.975000
v -7.398000 -22.317396 68.025000
v -7.398000 -16.939322 66.975000
v -7.398000 -16.939322 68.025000
v -7.398000 -11.561249 66.975000
v -7.398000 -11.561249 68.025000
v -7.398000 -6.183175 66.975000
v -7.398000 -6.183175 68.025000
v -7.398000 -0.805101 66.975000
v -7.398000 -0.805101 68.025000
v -7.398000 4.572973 66.975000
v -7.398000 4.572973 68.025000
v -7.398000 9.951047 66.975000
v -7.398000 9.951047 68.025000
v -7.398000 15.329121 66.975000
v -7.398000 15.329121 68.025000
v -7.398000 20.707195 66.975000
v -7.398000 20.707195 68.025000
v -7.398000 26.085268 66.975000
v -7.398000 26.085268 68.025000
v -7.398000 31.463342 66.975000
v -7.398000 31.463342 68.025000
v -7.398000 36.841416 66.975000
v -7.398000 36.841416 68.025000
v -7.398000 42.219490 67.062500
v -7.398000 42.219490 66.975000
v -7.398000 42.219490 67.150000
v -7.398000 42.219490 67.237500
v -7.398000 42.219490 67.325000
v -7.398000 42.219490 67.412500
v -7.398000 42.219490 67.500000
v -7.398000 42.219490 67.587500
v -7.398000 42.219490 67.675000
v -7.398000 42.219490 67.762500
v -7.398000 42.219490 67.850000
v -7.398000 42.219490 67.937500
v -7.398000 42.219490 68.025000
v 0.000000 -43.829692 66.975000
v 0.000000 -43.829692 67.062500
v 0.000000 -38.451618 66.975000
v 0.000000 -43.829692 67.150000
v 0.000000 -43.829692 67.237500
v 0.000000 -43.829692 67.325000
v 0.000000 -43.829692 67.412500
v 0.000000 -43.829692 67.500000
v 0.000000 -43.829692 67.587500
v 0.000000 -43.829692 67.675000
v 0.000000 -43.829692 67.762500
v 0.000000 -43.829692 67.850000
v 0.000000 -43.829692 67.937500
v 0.000000 -43.829692 68.025000
v 0.000000 -38.451618 68.025000
v 0.000000 -33.073544 66.975000
v 0.000000 -33.073544 68.025000
v 0.000000 -27.695470 66.975000
v 0.000000 -27.695470 68.025000
v 0.000000 -22.317396 66.975000
v 0.000000 -22.317396 68.025000
v 0.000000 -16.939322 66.975000
v 0.000000 -16.939322 68.025000
v 0.000000 -11.561249 66.975000
v 0.000000 -11.561249 68.025000
v 0.000000 -6.183175 66.975000
v 0.000000 -6.183175 68.025000
v 0.000000 -0.805101 66.975000
v 0.000000 -0.805101 68.025000
v 0.000000 4.572973 66.975000
v 0.000000 4.572973 68.025000
v 0.000000 9.951047 66.975000
v 0.000000 9.951047 68.025000
v 0.000000 15.329121 66.975000
v 0.000000 15.329121 68.025000
v 0.000000 20.707195 66.975000
v 0.000000 20.707195 68.025000
v 0.000000 26.085268 66.975000
v 0.000000 26.085268 68.025000
v 0.000000 31.463342 66.975000
v 0.000000 31.463342 68.025000
v 0.000000 36.841416 66.975000
v 0.000000 36.841416 68.025000
v 0.000000 42.219490 67.062500
v 0.000000 42.219490 66.975000
v 0.000000 42.219490 67.150000
v 0.000000 42.219490 67.237500
v 0.000000 42.219490 67.325000
v 0.000000 42.219490 67.412500
v 0.000000 42.219490 67.500000
v 0.000000 42.219490 67.587500
v 0.000000 42.219490 67.675000
v 0.000000 42.219490 67.762500
v 0.000000 42.219490 67.850000
v 0.000000 42.219490 67.937500
v 0.000000 42.219490 68.025000
v 7.398000 -43.829692 66.975000
v 7.398000 -43.829692 67.062500
v 7.398000 -38.451618 66.975000
v 7.398000 -43.829692 67.150000
v 7.398000 -43.829692 67.237500
v 7.398000 -43.829692 67.325000
v 7.398000 -43.829692 67.412500
v 7.398000 -43.829692 67.500000
v 7.398000 -43.829692 67.587500
v 7.398000 -43.829692 67.675000
v 7.398000 -43.829692 67.762500
v 7.398000 -43.829692 67.850000
v 7.398000 -43.829692 67.937500
v 7.398000 -43.829692 68.025000
v 7.398000 -38.451618 68.025000
v 7.398000 -33.073544 66.975000
v 7.398000 -33.073544 68.025000
v 7.398000 -27.695470 66.975000
v 7.398000 -27.695470 68.025000
v 7.398000 -22.317396 66.975000
v 7.398000 -22.317396 68.025000
v 7.398000 -16.939322 66.975000
v 7.398000 -16.939322 68.025000
v 7.398000 -11.561249 66.975000
v 7.398000 -11.561249 68.025000
v 7.398000 -6.183175 66.975000
v 7.398000 -6.183175 68.025000
v 7.398000 -0.805101 66.975000
v 7.398000 -0.805101 68.025000
v 7.398000 4.572973 66.975000
v 7.398000 4.572973 68.025000
v 7.398000 9.951047 66.975000
v 7.398000 9.951047 68.025000
v 7.398000 15.329121 66.975000
v 7.398000 15.329121 68.025000
v 7.398000 20.707195 66.975000
v 7.398000 20.707195 68.025000
v 7.398000 26.085268 66.975000
v 7.398000 26.085268 68.025000
v 7.398000 31.463342 66.975000
v 7.398000 31.463342 68.025000
v 7.398000 36.841416 66.975000
v 7.398000 36.841416 68.025000
v 7.398000 42.219490 67.062500
v 7.398000 42.219490 66.975000
v 7.398000 42.219490 67.150000
v 7.398000 42.219490 67.237500
v 7.398000 42.219490 67.325000
v 7.398000 42.219490 67.412500
v 7.398000 42.219490 67.500000
v 7.398000 42.219490 67.587500
v 7.398000 42.219490 67.675000
v 7.398000 42.219490 67.762500
v 7.398000 42.219490 67.850000
v 7.398000 42.219490 67.937500
v 7.398000 42.219490 68.025000
v 14.796000 -43.829692 66.975000
v 14.796000 -43.829692 67.062500
v 14.796000 -38.451618 66.975000
v 14.796000 -43.829692 67.150000
v 14.796000 -43.829692 67.237500
v 14.796000 -43.829692 67.325000
v 14.796000 -43.829692 67.412500
v 14.796000 -43.829692 67.500000
v 14.796000 -43.829692 67.587500
v 14.796000 -43.829692 67.675000
v 14.796000 -43.829692 67.762500
v 14.796000 -43.829692 67.850000
v 14.796000 -43.829692 67.937500
v 14.796000 -43.829692 68.025000
v 14.796000 -38.451618 68.025000
v 14.796000 -33.073544 66.975000
v 14.796000 -33.073544 68.025000
v 14.796000 -27.695470 66.975000
v 14.796000 -27.695470 68.025000
v 14.796000 -22.317396 66.975000
v 14.796000 -22.317396 68.025000
v 14.796000 -16.939322 66.975000
v 14.796000 -16.939322 68.025000
v 14.796000 -11.561249 66.975000
v 14.796000 -11.561249 68.025000
v 14.796000 -6.183175 66.975000
v 14.796000 -6.183175 68.025000
v 14.796000 -0.805101 66.975000
v 14.796000 -0.805101 68.025000
v 14.796000 4.572973 66.975000
v 14.796000 4.572973 68.025000
v 14.796000 9.951047 66.975000
v 14.796000 9.951047 68.025000
v 14.796000 15.329121 66.975000
v 14.796000 15.329121 68.025000
v 14.796000 20.707195 66.975000
v 14.796000 20.707195 68.025000
v 14.796000 26.085268 66.975000
v 14.796000 26.085268 68.025000
v 14.796000 31.463342 66.975000
v 14.796000 31.463342 68.025000
v 14.796000 36.841416 66.975000
v 14.796000 36.841416 68.025000
v 14.796000 42.219490 67.062500
v 14.796000 42.219490 66.975000
v 14.796000 42.219490 67.150000
v 14.796000 42.219490 67.237500
v 14.796000 42.219490 67.325000
v 14.796000 42.219490 67.412500
v 14.796000 42.219490 67.500000
v 14.796000 42.219490 67.587500
v 14.796000 42.219490 67.675000
v 14.796000 42.219490 67.762500
v 14.796000 42.219490 67.850000
v 14.796000 42.219490 67.937500
v 14.796000 42.219490 68.025000
v 22.194000 -43.829692 66.975000
v 22.194000 -43.829692 67.062500
v 22.194000 -38.451618 66.975000
v 22.194000 -43.829692 67.150000
v 22.194000 -43.829692 67.237500
v 22.194000 -43.829692 67.325000
v 22.194000 -43.829692 67.412500
v 22.194000 -43.829692 67.500000
v 22.194000 -43.829692 67.587500
v 22.194000 -43.829692 67.675000
v 22.194000 -43.829692 67.762500
v 22.194000 -43.829692 67.850000
v 22.194000 -43.829692 67.937500
v 22.194000 -43.829692 68.025000
v 22.194000 -38.451618 68.025000
v 22.194000 -33.073544 66.975000
v 22.194000 -33.073544 68.025000
v 22.194000 -27.695470 66.975000
v 22.194000 -27.695470 68.025000
v 22.194000 -22.317396 66.975000
v 22.194000 -22.317396 68.025000
v 22.194000 -16.939322 66.975000
v 22.194000 -16.939322 68.025000
v 22.194000 -11.561249 66.975000
v 22.194000 -11.561249 68.025000
v 22.194000 -6.183175 66.975000
v 22.194000 -6.183175 68.025000
v 22.194000 -0.805101 66.975000
v 22.194000 -0.805101 68.025000
v 22.194000 4.572973 66.975000
v 22.194000 4.572973 68.025000
v 22.194000 9.951047 66.975000
v 22.194000 9.951047 68.025000
v 22.194000 15.329121 66.975000
v 22.194000 15.329121 68.025000
v 22.194000 20.707195 66.975000
v 22.194000 20.707195 68.025000
v 22.194000 26.085268 66.975000
v 22.194000 26.085268 68.025000
v 22.194000 31.463342 66.975000
v 22.194000 31.463342 68.025000
v 22.194000 36.841416 66.975000
v 22.194000 36.841416 68.025000
v 22.194000 42.219490 67.062500
v 22.194000 42.219490 66.975000
v 22.194000 42.219490 67.150000
v 22.194000 42.219490 67.237500
v 22.194000 42.219490 67.325000
v 22.194000 42.219490 67.412500
v 22.194000 42.219490 67.500000
v 22.194000 42.219490 67.587500
v 22.194000 42.219490 67.675000
v 22.194000 42.219490 67.762500
v 22.194000 42.219490 67.850000
v 22.194000 42.219490 67.937500
v 22.194000 42.219490 68.025000
v 29.592000 -43.829692 66.975000
v 29.592000 -43.829692 67.062500
v 29.592000 -38.451618 66.975000
v 29.592000 -43.829692 67.150000
v 29.592000 -43.829692 67.237500
v 29.592000 -43.829692 67.325000
v 29.592000 -43.829692 67.412500
v 29.592000 -43.829692 67.500000
v 29.592000 -43.829692 67.587500
v 29.592000 -43.829692 67.675000
v 29.592000 -43.829692 67.762500
v 29.592000 -43.829692 67.850000
v 29.592000 -43.829692 67.937500
v 29.592000 -43.829692 68.025000
v 29.592000 -38.451618 68.025000
v 29.592000 -33.073544 66.975000
v 29.592000 -33.073544 68.025000
v 29.592000 -27.695470 66.975000
v 29.592000 -27.695470 68.025000
v 29.592000 -22.317396 66.975000
v 29.592000 -22.317396 68.025000
v 29.592000 -16.939322 66.975000
v 29.592000 -16.939322 68.025000
v 29.592000 -11.561249 66.975000
v 29.592000 -11.561249 68.025000
v 29.592000 -6.183175 66.975000
v 29.592000 -6.183175 68.025000
v 29.592000 -0.805101 66.975000
v 29.592000 -0.805101 68.025000
v 29.592000 4.572973 66.975000
v 29.592000 4.572973 68.025000
v 29.592000 9.951047 66.975000
v 29.592000 9.951047 68.025000
v 29.592000 15.329121 66.975000
v 29.592000 15.329121 68.025000
v 29.592000 20.707195 66.975000
v 29.592000 20.707195 68.025000
v 29.592000 26.085268 66.975000
v 29.592000 26.085268 68.025000
v 29.592000 31.463342 66.975000
v 29.592000 31.463342 68.025000
v 29.592000 36.841416 66.975000
v 29.592000 36.841416 68.025000
v 29.592000 42.219490 67.062500
v 29.592000 42.219490 66.975000
v 29.592000 42.219490 67.150000
v 29.592000 42.219490 67.237500
v 29.592000 42.219490 67.325000
v 29.592000 42.219490 67.412500
v 29.592000 42.219490 67.500000
v 29.592000 42.219490 67.587500
v 29.592000 42.219490 67.675000
v 29.592000 42.219490 67.762500
v 29.592000 42.219490 67.850000
v 29.592000 42.219490 67.937500
v 29.592000 42.219490 68.025000
v 36.990000 -43.829692 66.975000
v 36.990000 -43.829692 67.062500
v 36.990000 -38.451618 66.975000
v 36.990000 -43.829692 67.150000
v 36.990000 -43.829692 67.237500
v 36.990000 -43.829692 67.325000
v 36.990000 -43.829692 67.412500
v 36.990000 -43.829692 67.500000
v 36.990000 -43.829692 67.587500
v 36.990000 -43.829692 67.675000
v 36.990000 -43.829692 67.762500
v 36.990000 -43.829692 67.850000
v 36.990000 -43.829692 67.937500
v 36.990000 -43.829692 68.025000
v 36.990000 -38.451618 68.025000
v 36.990000 -33.073544 66.975000
v 36.990000 -33.073544 68.025000
v 36.990000 -27.695470 66.975000
v 36.990000 -27.695470 68.025000
v 36.990000 -22.317396 66.975000
v 36.990000 -22.317396 68.025000
v 36.990000 -16.939322 66.975000
v 36.990000 -16.939322 68.025000
v 36.990000 -11.561249 66.975000
v 36.990000 -11.561249 68.025000
v 36.990000 -6.183175 66.975000
v 36.990000 -6.183175 68.025000
v 36.990000 -0.805101 66.975000
v 36.990000 -0.805101 68.025000
v 36.990000 4.572973 66.975000
v 36.990000 4.572973 68.025000
v 36.990000 9.951047 66.975000
v 36.990000 9.951047 68.025000
v 36.990000 15.329121 66.975000
v 36.990000 15.329121 68.025000
v 36.990000 20.707195 66.975000
v 36.990000 20.707195 68.025000
v 36.990000 26.085268 66.975000
v 36.990000 26.085268 68.025000
v 36.990000 31.463342 66.975000
v 36.990000 31.463342 68.025000
v 36.990000 36.841416 66.975000
v 36.990000 36.841416 68.025000
v 36.990000 42.219490 67.062500
v 36.990000 42.219490 66.975000
v 36.990000 42.219490 67.150000
v 36.990000 42.219490 67.237500
v 36.990000 42.219490 67.325000
v 36.990000 42.219490 67.412500
v 36.990000 42.219490 67.500000
v 36.990000 42.219490 67.587500
v 36.990000 42.219490 67.675000
v 36.990000 42.219490 67.762500
v 36.990000 42.219490 67.850000
v 36.990000 42.219490 67.937500
v 36.990000 42.219490 68.025000
v 44.388000 -43.829692 66.975000
v 44.388000 -43.829692 67.062500
v 44.388000 -38.451618 66.975000
v 44.388000 -43.829692 67.150000
v 44.388000 -43.829692 67.237500
v 44.388000 -43.829692 67.325000
v 44.388000 -43.829692 67.412500
v 44.388000 -43.829692 67.500000
v 44.388000 -43.829692 67.587500
v 44.388000 -43.829692 67.675000
v 44.388000 -43.829692 67.762500
v 44.388000 -43.829692 67.850000
v 44.388000 -43.829692 67.937500
v 44.388000 -43.829692 68.025000
v 44.388000 -38.451618 68.025000
v 44.388000 -33.073544 66.975000
v 44.388000 -33.073544 68.025000
v 44.388000 -27.695470 66.975000
v 44.388000 -27.695470 68.025000
v 44.388000 -22.317396 66.975000
v 44.388000 -22.317396 68.025000
v 44.388000 -16.939322 66.975000
v 44.388000 -16.939322 68.025000
v 44.388000 -11.561249 66.975000
v 44.388000 -11.561249 68.025000
v 44.388000 -6.183175 66.975000
v 44.388000 -6.183175 68.025000
v 44.388000 -0.805101 66.975000
v 44.388000 -0.805101 68.025000
v 44.388000 4.572973 66.975000
v 44.388000 4.572973 68.025000
v 44.388000 9.951047 66.975000
v 44.388000 9.951047 68.025000
v 44.388000 15.329121 66.975000
v 44.388000 15.329121 68.025000
v 44.388000 20.707195 66.975000
v 44.388000 20.707195 68.025000
v 44.388000 26.085268 66.975000
v 44.388000 26.085268 68.025000
v 44.388000 31.463342 66.975000
v 44.388000 31.463342 68.025000
v 44.388000 36.841416 66.975000
v 44.388000 36.841416 68.025000
v 44.388000 42.219490 67.062500
v 44.388000 42.219490 66.975000
v 44.388000 42.219490 67.150000
v 44.388000 42.219490 67.237500
v 44.388000 42.219490 67.325000
v 44.388000 42.219490 67.412500
v 44.388000 42.219490 67.500000
v 44.388000 42.219490 67.587500
v 44.388000 42.219490 67.675000
v 44.388000 42.219490 67.762500
v 44.388000 42.219490 67.850000
v 44.388000 42.219490 67.937500
v 44.388000 42.219490 68.025000
v 51.786000 -43.829692 66.975000
v 51.786000 -43.829692 67.062500
v 51.786000 -38.451618 67.062500
v 51.786000 -38.451618 66.975000
v 51.786000 -43.829692 67.150000
v 51.786000 -38.451618 67.150000
v 51.786000 -43.829692 67.237500
v 51.786000 -38.451618 67.237500
v 51.786000 -43.829692 67.325000
v 51.786000 -38.451618 67.325000
v 51.786000 -43.829692 67.412500
v 51.786000 -38.451618 67.412500
v 51.786000 -43.829692 67.500000
v 51.786000 -38.451618 67.500000
v 51.786000 -43.829692 67.587500
v 51.786000 -38.451618 67.587500
v 51.786000 -43.829692 67.675000
v 51.786000 -38.451618 67.675000
v 51.786000 -43.829692 67.762500
v 51.786000 -38.451618 67.762500
v 51.786000 -43.829692 67.850000
v 51.786000 -38.451618 67.850000
v 51.786000 -43.829692 67.937500
v 51.786000 -38.451618 67.937500
v 51.786000 -43.829692 68.025000
v 51.786000 -38.451618 68.025000
v 51.786000 -33.073544 67.062500
v 51.786000 -33.073544 66.975000
v 51.786000 -33.073544 67.150000
v 51.786000 -33.073544 67.237500
v 51.786000 -33.073544 67.325000
v 51.786000 -33.073544 67.412500
v 51.786000 -33.073544 67.500000
v 51.786000 -33.073544 67.587500
v 51.786000 -33.073544 67.675000
v 51.786000 -33.073544 67.762500
v 51.786000 -33.073544 67.850000
v 51.786000 -33.073544 67.937500
v 51.786000 -33.073544 68.025000
v 51.786000 -27.695470 67.062500
v 51.786000 -27.695470 66.975000
v 51.786000 -27.695470 67.150000
v 51.786000 -27.695470 67.237500
v 51.786000 -27.695470 67.325000
v 51.786000 -27.695470 67.412500
v 51.786000 -27.695470 67.500000
v 51.786000 -27.695470 67.587500
v 51.786000 -27.695470 67.675000
v 51.786000 -27.695470 67.762500
v 51.786000 -27.695470 67.850000
v 51.786000 -27.695470 67.937500
v 51.786000 -27.695470 68.025000
v 51.786000 -22.317396 67.062500
v 51.786000 -22.317396 66.975000
v 51.786000 -22.317396 67.150000
v 51.786000 -22.317396 67.237500
v 51.786000 -22.317396 67.325000
v 51.786000 -22.317396 67.412500
v 51.786000 -22.317396 67.500000
v 51.786000 -22.317396 67.587500
v 51.786000 -22.317396 67.675000
v 51.786000 -22.317396 67.762500
v 51.786000 -22.317396 67.850000
v 51.786000 -22.317396 67.937500
v 51.786000 -22.317396 68.025000
v 51.786000 -16.939322 67.062500
v 51.786000 -16.939322 66.975000
v 51.786000 -16.939322 67.150000
v 51.786000 -16.939322 67.237500
v 51.786000 -16.939322 67.325000
v 51.786000 -16.939322 67.412500
v 51.786000 -16.939322 67.500000
v 51.786000 -16.939322 67.587500
v 51.786000 -16.939322 67.675000
v 51.786000 -16.939322 67.762500
v 51.786000 -16.939322 67.850000
v 51.786000 -16.939322 67.937500
v 51.786000 -16.939322 68.025000
v 51.786000 -11.561249 67.062500
v 51.786000 -11.561249 66.975000
v 51.786000 -11.561249 67.150000
v 51.786000 -11.561249 67.237500
v 51.786000 -11.561249 67.325000
v 51.786000 -11.561249 67.412500
v 51.786000 -11.561249 67.500000
v 51.786000 -11.561249 67.587500
v 51.786000 -11.561249 67.675000
v 51.786000 -11.561249 67.762500
v 51.786000 -11.561249 67.850000
v 51.786000 -11.561249 67.937500
v 51.786000 -11.561249 68.025000
v 51.786000 -6.183175 67.062500
v 51.786000 -6.183175 66.975000
v 51.786000 -6.183175 67.150000
v 51.786000 -6.183175 67.237500
v 51.786000 -6.183175 67.325000
v 51.786000 -6.183175 67.412500
v 51.786000 -6.183175 67.500000
v 51.786000 -6.183175 67.587500
v 51.786000 -6.183175 67.675000
v 51.786000 -6.183175 67.762500
v 51.786000 -6.183175 67.850000
v 51.786000 -6.183175 67.937500
v 51.786000 -6.183175 68.025000
v 51.786000 -0.805101 67.062500
v 51.786000 -0.805101 66.975000
v 51.786000 -0.805101 67.150000
v 51.786000 -0.805101 67.237500
v 51.786000 -0.805101 67.325000
v 51.786000 -0.805101 67.412500
v 51.786000 -0.805101 67.500000
v 51.786000 -0.805101 67.587500
v 51.786000 -0.805101 67.675000
v 51.786000 -0.805101 67.762500
v 51.786000 -0.805101 67.850000
v 51.786000 -0.805101 67.937500
v 51.786000 -0.805101 68.025000
v 51.786000 4.572973 67.062500
v 51.786000 4.572973 66.975000
v 51.786000 4.572973 67.150000
v 51.786000 4.572973 67.237500
v 51.786000 4.572973 67.325000
v 51.786000 4.572973 67.412500
v 51.786000 4.572973 67.500000
v 51.786000 4.572973 67.587500
v 51.786000 4.572973 67.675000
v 51.786000 4.572973 67.762500
v 51.786000 4.572973 67.850000
v 51.786000 4.572973 67.937500
v 51.786000 4.572973 68.025000
v 51.786000 9.951047 67.062500
v 51.786000 9.951047 66.975000
v 51.786000 9.951047 67.150000
v 51.786000 9.951047 67.237500
v 51.786000 9.951047 67.325000
v 51.786000 9.951047 67.412500
v 51.786000 9.951047 67.500000
v 51.786000 9.951047 67.587500
v 51.786000 9.951047 67.675000
v 51.786000 9.951047 67.762500
v 51.786000 9.951047 67.850000
v 51.786000 9.951047 67.937500
v 51.786000 9.951047 68.025000
v 51.786000 15.329121 67.062500
v 51.786000 15.329121 66.975000
v 51.786000 15.329121 67.150000
v 51.786000 15.329121 67.237500
v 51.786000 15.329121 67.325000
v 51.786000 15.329121 67.412500
v 51.786000 15.329121 67.500000
v 51.786000 15.329121 67.587500
v 51.786000 15.329121 67.675000
v 51.786000 15.329121 67.762500
v 51.786000 15.329121 67.850000
v 51.786000 15.329121 67.937500
v 51.786000 15.329121 68.025000
v 51.786000 20.707195 67.062500
v 51.786000 20.707195 66.975000
v 51.786000 20.707195 67.150000
v 51.786000 20.707195 67.237500
v 51.786000 20.707195 67.325000
v 51.786000 20.707195 67.412500
v 51.786000 20.707195 67.500000
v 51.786000 20.707195 67.587500
v 51.786000 20.707195 67.675000
v 51.786000 20.707195 67.762500
v 51.786000 20.707195 67.850000
v 51.786000 20.707195 67.937500
v 51.786000 20.707195 68.025000
v 51.786000 26.085268 67.062500
v 51.786000 26.085268 66.975000
v 51.786000 26.085268 67.150000
v 51.786000 26.085268 67.237500
v 51.786000 26.085268 67.325000
v 51.786000 26.085268 67.412500
v 51.786000 26.085268 67.500000
v 51.786000 26.085268 67.587500
v 51.786000 26.085268 67.675000
v 51.786000 26.085268 67.762500
v 51.786000 26.085268 67.850000
v 51.786000 26.085268 67.937500
v 51.786000 26.085268 68.025000
v 51.786000 31.463342 67.062500
v 51.786000 31.463342 66.975000
v 51.786000 31.463342 67.150000
v 51.786000 31.463342 67.237500
v 51.786000 31.463342 67.325000
v 51.786000 31.463342 67.412500
v 51.786000 31.463342 67.500000
v 51.786000 31.463342 67.587500
v 51.786000 31.463342 67.675000
v 51.786000 31.463342 67.762500
v 51.786000 31.463342 67.850000
v 51.786000 31.463342 67.937500
v 51.786000 31.463342 68.025000
v 51.786000 36.841416 67.062500
v 51.786000 36.841416 66.975000
v 51.786000 36.841416 67.150000
v 51.786000 36.841416 67.237500
v 51.786000 36.841416 67.325000
v 51.786000 36.841416 67.412500
v 51.786000 36.841416 67.500000
v 51.786000 36.841416 67.587500
v 51.786000 36.841416 67.675000
v 51.786000 36.841416 67.762500
v 51.786000 36.841416 67.850000
v 51.786000 36.841416 67.937500
v 51.786000 36.841416 68.025000
v 51.786000 42.219490 67.062500
v 51.786000 42.219490 66.975000
v 51.786000 42.219490 67.150000
v 51.786000 42.219490 67.237500
v 51.786000 42.219490 67.325000
v 51.786000 42.219490 67.412500
v 51.786000 42.219490 67.500000
v 51.786000 42.219490 67.587500
v 51.786000 42.219490 67.675000
v 51.786000 42.219490 67.762500
v 51.786000 42.219490 67.850000
v 51.786000 42.219490 67.937500
v 51.786000 42.219490 68.025000
f 1 2 3
f 1 3 4
f 1 5 6
f 1 6 4
f 1 2 7
f 1 7 5
f 4 3 8
f 4 8 9
f 4 6 10
f 4 10 9
f 9 8 11
f 9 11 12
f 9 10 13
f 9 13 12
f 12 11 14
f 12 14 15
f 12 13 16
f 12 16 15
f 15 14 17
f 15 17 18
f 15 16 19
f 15 19 18
f 18 17 20
f 18 20 21
f 18 19 22
f 18 22 21
f 21 20 23
f 21 23 24
f 21 22 25
f 21 25 24
f 24 23 26
f 24 26 27
f 24 25 28
f 24 28 27
f 27 26 29
f 27 29 30
f 27 28 31
f 27 31 30
f 30 29 32
f 30 32 33
f 30 31 34
f 30 34 33
f 33 32 35
f 33 35 36
f 33 34 37
f 33 37 36
f 36 35 38
f 36 38 39
f 36 37 40
f 36 40 39
f 39 40 41
f 39 41 38
f 2 42 43
f 2 43 3
f 2 42 44
f 2 44 7
f 3 43 45
f 3 45 8
f 8 45 46
f 8 46 11
f 11 46 47
f 11 47 14
f 14 47 48
f 14 48 17
f 17 48 49
f 17 49 20
f 20 49 50
f 20 50 23
f 23 50 51
f 23 51 26
f 26 51 52
f 26 52 29
f 29 52 53
f 29 53 32
f 32 53 54
f 32 54 35
f 35 54 55
f 35 55 38
f 38 41 56
f 38 56 55
f 42 57 58
f 42 58 43
f 42 57 59
f 42 59 44
f 43 58 60
f 43 60 45
f 45 60 61
f 45 61 46
f 46 61 62
f 46 62 47
f 47 62 63
f 47 63 48
f 48 63 64
f 48 64 49
f 49 64 65
f 49 65 50
f 50 65 66
f 50 66 51
f 51 66 67
f 51 67 52
f 52 67 68
f 52 68 53
f 53 68 69
f 53 69 54
f 54 69 70
f 54 70 55
f 55 56 71
f 55 71 70
f 57 72 73
f 57 73 58
f 57 72 74
f 57 74 59
f 58 73 75
f 58 75 60
f 60 75 76
f 60 76 61
f 61 76 77
f 61 77 62
f 62 77 78
f 62 78 63
f 63 78 79
f 63 79 64
f 64 79 80
f 64 80 65
f 65 80 81
f 65 81 66
f 66 81 82
f 66 82 67
f 67 82 83
f 67 83 68
f 68 83 84
f 68 84 69
f 69 84 85
f 69 85 70
f 70 71 86
f 70 86 85
f 72 87 88
f 72 88 73
f 72 87 89
f 72 89 74
f 73 88 90
f 73 90 75
f 75 90 91
f 75 91 76
f 76 91 92
f 76 92 77
f 77 92 93
f 77 93 78
f 78 93 94
f 78 94 79
f 79 94 95
f 79 95 80
f 80 95 96
f 80 96 81
f 81 96 97
f 81 97 82
f 82 97 98
f 82 98 83
f 83 98 99
f 83 99 84
f 84 99 100
f 84 100 85
f 85 86 101
f 85 101 100
f 87 102 103
f 87 103 88
f 87 102 104
f 87 104 89
f 88 103 105
f 88 105 90
f 90 105 106
f 90 106 91
f 91 106 107
f 91 107 92
f 92 107 108
f 92 108 93
f 93 108 109
f 93 109 94
f 94 109 110
f 94 110 95
f 95 110 111
f 95 111 96
f 96 111 112
f 96 112 97
f 97 112 113
f 97 113 98
f 98 113 114
f 98 114 99
f 99 114 115
f 99 115 100
f 100 101 116
f 100 116 115
f 102 117 118
f 102 118 103
f 102 117 119
f 102 119 104
f 103 118 120
f 103 120 105
f 105 120 121
f 105 121 106
f 106 121 122
f 106 122 107
f 107 122 123
f 107 123 108
f 108 123 124
f 108 124 109
f 109 124 125
f 109 125 110
f 110 125 126
f 110 126 111
f 111 126 127
f 111 127 112
f 112 127 128
f 112 128 113
f 113 128 129
f 113 129 114
f 114 129 130
f 114 130 115
f 115 116 131
f 115 131 130
f 117 132 133
f 117 133 118
f 117 132 134
f 117 134 119
f 118 133 135
f 118 135 120
f 120 135 136
f 120 136 121
f 121 136 137
f 121 137 122
f 122 137 138
f 122 138 123
f 123 138 139
f 123 139 124
f 124 139 140
f 124 140 125
f 125 140 141
f 125 141 126
f 126 141 142
f 126 142 127
f 127 142 143
f 127 143 128
f 128 143 144
f 128 144 129
f 129 144 145
f 129 145 130
f 130 131 146
f 130 146 145
f 132 147 148
f 132 148 133
f 132 147 149
f 132 149 134
f 133 148 150
f 133 150 135
f 135 150 151
f 135 151 136
f 136 151 152
f 136 152 137
f 137 152 153
f 137 153 138
f 138 153 154
f 138 154 139
f 139 154 155
f 139 155 140
f 140 155 156
f 140 156 141
f 141 156 157
f 141 157 142
f 142 157 158
f 142 158 143
f 143 158 159
f 143 159 144
f 144 159 160
f 144 160 145
f 145 146 161
f 145 161 160
f 147 162 163
f 147 163 148
f 147 162 164
f 147 164 149
f 148 163 165
f 148 165 150
f 150 165 166
f 150 166 151
f 151 166 167
f 151 167 152
f 152 167 168
f 152 168 153
f 153 168 169
f 153 169 154
f 154 169 170
f 154 170 155
f 155 170 171
f 155 171 156
f 156 171 172
f 156 172 157
f 157 172 173
f 157 173 158
f 158 173 174
f 158 174 159
f 159 174 175
f 159 175 160
f 160 161 176
f 160 176 175
f 162 177 178
f 162 178 163
f 162 177 179
f 162 179 164
f 163 178 180
f 163 180 165
f 165 180 181
f 165 181 166
f 166 181 182
f 166 182 167
f 167 182 183
f 167 183 168
f 168 183 184
f 168 184 169
f 169 184 185
f 169 185 170
f 170 185 186
f 170 186 171
f 171 186 187
f 171 187 172
f 172 187 188
f 172 188 173
f 173 188 189
f 173 189 174
f 174 189 190
f 174 190 175
f 175 176 191
f 175 191 190
f 177 192 193
f 177 193 178
f 177 192 194
f 177 194 179
f 178 193 195
f 178 195 180
f 180 195 196
f 180 196 181
f 181 196 197
f 181 197 182
f 182 197 198
f 182 198 183
f 183 198 199
f 183 199 184
f 184 199 200
f 184 200 185
f 185 200 201
f 185 201 186
f 186 201 202
f 186 202 187
f 187 202 203
f 187 203 188
f 188 203 204
f 188 204 189
f 189 204 205
f 189 205 190
f 190 191 206
f 190 206 205
f 192 207 208
f 192 208 193
f 192 207 209
f 192 209 194
f 193 208 210
f 193 210 195
f 195 210 211
f 195 211 196
f 196 211 212
f 196 212 197
f 197 212 213
f 197 213 198
f 198 213 214
f 198 214 199
f 199 214 215
f 199 215 200
f 200 215 216
f 200 216 201
f 201 216 217
f 201 217 202
f 202 217 218
f 202 218 203
f 203 218 219
f 203 219 204
f 204 219 220
f 204 220 205
f 205 206 221
f 205 221 220
f 207 222 223
f 207 223 208
f 207 222 224
f 207 224 209
f 208 223 225
f 208 225 210
f 210 225 226
f 210 226 211
f 211 226 227
f 211 227 212
f 212 227 228
f 212 228 213
f 213 228 229
f 213 229 214
f 214 229 230
f 214 230 215
f 215 230 231
f 215 231 216
f 216 231 232
f 216 232 217
f 217 232 233
f 217 233 218
f 218 233 234
f 218 234 219
f 219 234 235
f 219 235 220
f 220 221 236
f 220 236 235
f 222 237 238
f 222 238 223
f 222 237 239
f 222 239 224
f 223 238 240
f 223 240 225
f 225 240 241
f 225 241 226
f 226 241 242
f 226 242 227
f 227 242 243
f 227 243 228
f 228 243 244
f 228 244 229
f 229 244 245
f 229 245 230
f 230 245 246
f 230 246 231
f 231 246 247
f 231 247 232
f 232 247 248
f 232 248 233
f 233 248 249
f 233 249 234
f 234 249 250
f 234 250 235
f 235 236 251
f 235 251 250
f 237 252 253
f 237 253 238
f 252 253 254
f 252 254 255
f 237 252 255
f 237 255 239
f 238 253 256
f 238 256 240
f 253 256 257
f 253 257 254
f 240 256 258
f 240 258 241
f 256 258 259
f 256 259 257
f 241 258 260
f 241 260 242
f 258 260 261
f 258 261 259
f 242 260 262
f 242 262 243
f 260 262 263
f 260 263 261
f 243 262 264
f 243 264 244
f 262 264 265
f 262 265 263
f 244 264 266
f 244 266 245
f 264 266 267
f 264 267 265
f 245 266 268
f 245 268 246
f 266 268 269
f 266 269 267
f 246 268 270
f 246 270 247
f 268 270 271
f 268 271 269
f 247 270 272
f 247 272 248
f 270 272 273
f 270 273 271
f 248 272 274
f 248 274 249
f 272 274 275
f 272 275 273
f 249 274 276
f 249 276 250
f 274 276 277
f 274 277 275
f 250 251 277
f 250 277 276
f 5 278 279
f 5 279 6
f 5 7 280
f 5 280 278
f 6 279 281
f 6 281 10
f 10 281 282
f 10 282 13
f 13 282 283
f 13 283 16
f 16 283 284
f 16 284 19
f 19 284 285
f 19 285 22
f 22 285 286
f 22 286 25
f 25 286 287
f 25 287 28
f 28 287 288
f 28 288 31
f 31 288 289
f 31 289 34
f 34 289 290
f 34 290 37
f 37 290 291
f 37 291 40
f 40 291 292
f 40 292 41
f 7 44 293
f 7 293 280
f 41 292 294
f 41 294 56
f 44 59 295
f 44 295 293
f 56 294 296
f 56 296 71
f 59 74 297
f 59 297 295
f 71 296 298
f 71 298 86
f 74 89 299
f 74 299 297
f 86 298 300
f 86 300 101
f 89 104 301
f 89 301 299
f 101 300 302
f 101 302 116
f 104 119 303
f 104 303 301
f 116 302 304
f 116 304 131
f 119 134 305
f 119 305 303
f 131 304 306
f 131 306 146
f 134 149 307
f 134 307 305
f 146 306 308
f 146 308 161
f 149 164 309
f 149 309 307
f 161 308 310
f 161 310 176
f 164 179 311
f 164 311 309
f 176 310 312
f 176 312 191
f 179 194 313
f 179 313 311
f 191 312 314
f 191 314 206
f 194 209 315
f 194 315 313
f 206 314 316
f 206 316 221
f 209 224 317
f 209 317 315
f 221 316 318
f 221 318 236
f 224 239 319
f 224 319 317
f 236 318 320
f 236 320 251
f 255 254 321
f 255 321 322
f 239 255 322
f 239 322 319
f 254 257 323
f 254 323 321
f 257 259 324
f 257 324 323
f 259 261 325
f 259 325 324
f 261 263 326
f 261 326 325
f 263 265 327
f 263 327 326
f 265 267 328
f 265 328 327
f 267 269 329
f 267 329 328
f 269 271 330
f 269 330 329
f 271 273 331
f 271 331 330
f 273 275 332
f 273 332 331
f 275 277 333
f 275 333 332
f 251 320 333
f 251 333 277
f 278 334 335
f 278 335 279
f 278 280 336
f 278 336 334
f 279 335 337
f 279 337 281
f 281 337 338
f 281 338 282
f 282 338 339
f 282 339 283
f 283 339 340
f 283 340 284
f 284 340 341
f 284 341 285
f 285 341 342
f 285 342 286
f 286 342 343
f 286 343 287
f 287 343 344
f 287 344 288
f 288 344 345
f 288 345 289
f 289 345 346
f 289 346 290
f 290 346 347
f 290 347 291
f 291 347 348
f 291 348 292
f 280 293 349
f 280 349 336
f 292 348 350
f 292 350 294
f 293 295 351
f 293 351 349
f 294 350 352
f 294 352 296
f 295 297 353
f 295 353 351
f 296 352 354
f 296 354 298
f 297 299 355
f 297 355 353
f 298 354 356
f 298 356 300
f 299 301 357
f 299 357 355
f 300 356 358
f 300 358 302
f 301 303 359
f 301 359 357
f 302 358 360
f 302 360 304
f 303 305 361
f 303 361 359
f 304 360 362
f 304 362 306
f 305 307 363
f 305 363 361
f 306 362 364
f 306 364 308
f 307 309 365
f 307 365 363
f 308 364 366
f 308 366 310
f 309 311 367
f 309 367 365
f 310 366 368
f 310 368 312
f 311 313 369
f 311 369 367
f 312 368 370
f 312 370 314
f 313 315 371
f 313 371 369
f 314 370 372
f 314 372 316
f 315 317 373
f 315 373 371
f 316 372 374
f 316 374 318
f 317 319 375
f 317 375 373
f 318 374 376
f 318 376 320
f 322 321 377
f 322 377 378
f 319 322 378
f 319 378 375
f 321 323 379
f 321 379 377
f 323 324 380
f 323 380 379
f 324 325 381
f 324 381 380
f 325 326 382
f 325 382 381
f 326 327 383
f 326 383 382
f 327 328 384
f 327 384 383
f 328 329 385
f 328 385 384
f 329 330 386
f 329 386 385
f 330 331 387
f 330 387 386
f 331 332 388
f 331 388 387
f 332 333 389
f 332 389 388
f 320 376 389
f 320 389 333
f 334 390 391
f 334 391 335
f 334 336 392
f 334 392 390
f 335 391 393
f 335 393 337
f 337 393 394
f 337 394 338
f 338 394 395
f 338 395 339
f 339 395 396
f 339 396 340
f 340 396 397
f 340 397 341
f 341 397 398
f 341 398 342
f 342 398 399
f 342 399 343
f 343 399 400
f 343 400 344
f 344 400 401
f 344 401 345
f 345 401 402
f 345 402 346
f 346 402 403
f 346 403 347
f 347 403 404
f 347 404 348
f 336 349 405
f 336 405 392
f 348 404 406
f 348 406 350
f 349 351 407
f 349 407 405
f 350 406 408
f 350 408 352
f 351 353 409
f 351 409 407
f 352 408 410
f 352 410 354
f 353 355 411
f 353 411 409
f 354 410 412
f 354 412 356
f 355 357 413
f 355 413 411
f 356 412 414
f 356 414 358
f 357 359 415
f 357 415 413
f 358 414 416
f 358 416 360
f 359 361 417
f 359 417 415
f 360 416 418
f 360 418 362
f 361 363 419
f 361 419 417
f 362 418 420
f 362 420 364
f 363 365 421
f 363 421 419
f 364 420 422
f 364 422 366
f 365 367 423
f 365 423 421
f 366 422 424
f 366 424 368
f 367 369 425
f 367 425 423
f 368 424 426
f 368 426 370
f 369 371 427
f 369 427 425
f 370 426 428
f 370 428 372
f 371 373 429
f 371 429 427
f 372 428 430
f 372 430 374
f 373 375 431
f 373 431 429
f 374 430 432
f 374 432 376
f 378 377 433
f 378 433 434
f 375 378 434
f 375 434 431
f 377 379 435
f 377 435 433
f 379 380 436
f 379 436 435
f 380 381 437
f 380 437 436
f 381 382 438
f 381 438 437
f 382 383 439
f 382 439 438
f 383 384 440
f 383 440 439
f 384 385 441
f 384 441 440
f 385 386 442
f 385 442 441
f 386 387 443
f 386 443 442
f 387 388 444
f 387 444 443
f 388 389 445
f 388 445 444
f 376 432 445
f 376 445 389
f 390 446 447
f 390 447 391
f 390 392 448
f 390 448 446
f 391 447 449
f 391 449 393
f 393 449 450
f 393 450 394
f 394 450 451
f 394 451 395
f 395 451 452
f 395 452 396
f 396 452 453
f 396 453 397
f 397 453 454
f 397 454 398
f 398 454 455
f 398 455 399
f 399 455 456
f 399 456 400
f 400 456 457
f 400 457 401
f 401 457 458
f 401 458 402
f 402 458 459
f 402 459 403
f 403 459 460
f 403 460 404
f 392 405 461
f 392 461 448
f 404 460 462
f 404 462 406
f 405 407 463
f 405 463 461
f 406 462 464
f 406 464 408
f 407 409 465
f 407 465 463
f 408 464 466
f 408 466 410
f 409 411 467
f 409 467 465
f 410 466 468
f 410 468 412
f 411 413 469
f 411 469 467
f 412 468 470
f 412 470 414
f 413 415 471
f 413 471 469
f 414 470 472
f 414 472 416
f 415 417 473
f 415 473 471
f 416 472 474
f 416 474 418
f 417 419 475
f 417 475 473
f 418 474 476
f 418 476 420
f 419 421 477
f 419 477 475
f 420 476 478
f 420 478 422
f 421 423 479
f 421 479 477
f 422 478 480
f 422 480 424
f 423 425 481
f 423 481 479
f 424 480 482
f 424 482 426
f 425 427 483
f 425 483 481
f 426 482 484
f 426 484 428
f 427 429 485
f 427 485 483
f 428 484 486
f 428 486 430
f 429 431 487
f 429 487 485
f 430 486 488
f 430 488 432
f 434 433 489
f 434 489 490
f 431 434 490
f 431 490 487
f 433 435 491
f 433 491 489
f 435 436 492
f 435 492 491
f 436 437 493
f 436 493 492
f 437 438 494
f 437 494 493
f 438 439 495
f 438 495 494
f 439 440 496
f 439 496 495
f 440 441 497
f 440 497 496
f 441 442 498
f 441 498 497
f 442 443 499
f 442 499 498
f 443 444 500
f 443 500 499
f 444 445 501
f 444 501 500
f 432 488 501
f 432 501 445
f 446 502 503
f 446 503 447
f 446 448 504
f 446 504 502
f 447 503 505
f 447 505 449
f 449 505 506
f 449 506 450
f 450 506 507
f 450 507 451
f 451 507 508
f 451 508 452
f 452 508 509
f 452 509 453
f 453 509 510
f 453 510 454
f 454 510 511
f 454 511 455
f 455 511 512
f 455 512 456
f 456 512 513
f 456 513 457
f 457 513 514
f 457 514 458
f 458 514 515
f 458 515 459
f 459 515 516
f 459 516 460
f 448 461 517
f 448 517 504
f 460 516 518
f 460 518 462
f 461 463 519
f 461 519 517
f 462 518 520
f 462 520 464
f 463 465 521
f 463 521 519
f 464 520 522
f 464 522 466
f 465 467 523
f 465 523 521
f 466 522 524
f 466 524 468
f 467 469 525
f 467 525 523
f 468 524 526
f 468 526 470
f 469 471 527
f 469 527 525
f 470 526 528
f 470 528 472
f 471 473 529
f 471 529 527
f 472 528 530
f 472 530 474
f 473 475 531
f 473 531 529
f 474 530 532
f 474 532 476
f 475 477 533
f 475 533 531
f 476 532 534
f 476 534 478
f 477 479 535
f 477 535 533
f 478 534 536
f 478 536 480
f 479 481 537
f 479 537 535
f 480 536 538
f 480 538 482
f 481 483 539
f 481 539 537
f 482 538 540
f 482 540 484
f 483 485 541
f 483 541 539
f 484 540 542
f 484 542 486
f 485 487 543
f 485 543 541
f 486 542 544
f 486 544 488
f 490 489 545
f 490 545 546
f 487 490 546
f 487 546 543
f 489 491 547
f 489 547 545
f 491 492 548
f 491 548 547
f 492 493 549
f 492 549 548
f 493 494 550
f 493 550 549
f 494 495 551
f 494 551 550
f 495 496 552
f 495 552 551
f 496 497 553
f 496 553 552
f 497 498 554
f 497 554 553
f 498 499 555
f 498 555 554
f 499 500 556
f 499 556 555
f 500 501 557
f 500 557 556
f 488 544 557
f 488 557 501
f 502 558 559
f 502 559 503
f 502 504 560
f 502 560 558
f 503 559 561
f 503 561 505
f 505 561 562
f 505 562 506
f 506 562 563
f 506 563 507
f 507 563 564
f 507 564 508
f 508 564 565
f 508 565 509
f 509 565 566
f 509 566 510
f 510 566 567
f 510 567 511
f 511 567 568
f 511 568 512
f 512 568 569
f 512 569 513
f 513 569 570
f 513 570 514
f 514 570 571
f 514 571 515
f 515 571 572
f 515 572 516
f 504 517 573
f 504 573 560
f 516 572 574
f 516 574 518
f 517 519 575
f 517 575 573
f 518 574 576
f 518 576 520
f 519 521 577
f 519 577 575
f 520 576 578
f 520 578 522
f 521 523 579
f 521 579 577
f 522 578 580
f 522 580 524
f 523 525 581
f 523 581 579
f 524 580 582
f 524 582 526
f 525 527 583
f 525 583 581
f 526 582 584
f 526 584 528
f 527 529 585
f 527 585 583
f 528 584 586
f 528 586 530
f 529 531 587
f 529 587 585
f 530 586 588
f 530 588 532
f 531 533 589
f 531 589 587
f 532 588 590
f 532 590 534
f 533 535 591
f 533 591 589
f 534 590 592
f 534 592 536
f 535 537 593
f 535 593 591
f 536 592 594
f 536 594 538
f 537 539 595
f 537 595 593
f 538 594 596
f 538 596 540
f 539 541 597
f 539 597 595
f 540 596 598
f 540 598 542
f 541 543 599
f 541 599 597
f 542 598 600
f 542 600 544
f 546 545 601
f 546 601 602
f 543 546 602
f 543 602 599
f 545 547 603
f 545 603 601
f 547 548 604
f 547 604 603
f 548 549 605
f 548 605 604
f 549 550 606
f 549 606 605
f 550 551 607
f 550 607 606
f 551 552 608
f 551 608 607
f 552 553 609
f 552 609 608
f 553 554 610
f 553 610 609
f 554 555 611
f 554 611 610
f 555 556 612
f 555 612 611
f 556 557 613
f 556 613 612
f 544 600 613
f 544 613 557
f 558 614 615
f 558 615 559
f 558 560 616
f 558 616 614
f 559 615 617
f 559 617 561
f 561 617 618
f 561 618 562
f 562 618 619
f 562 619 563
f 563 619 620
f 563 620 564
f 564 620 621
f 564 621 565
f 565 621 622
f 565 622 566
f 566 622 623
f 566 623 567
f 567 623 624
f 567 624 568
f 568 624 625
f 568 625 569
f 569 625 626
f 569 626 570
f 570 626 627
f 570 627 571
f 571 627 628
f 571 628 572
f 560 573 629
f 560 629 616
f 572 628 630
f 572 630 574
f 573 575 631
f 573 631 629
f 574 630 632
f 574 632 576
f 575 577 633
f 575 633 631
f 576 632 634
f 576 634 578
f 577 579 635
f 577 635 633
f 578 634 636
f 578 636 580
f 579 581 637
f 579 637 635
f 580 636 638
f 580 638 582
f 581 583 639
f 581 639 637
f 582 638 640
f 582 640 584
f 583 585 641
f 583 641 639
f 584 640 642
f 584 642 586
f 585 587 643
f 585 643 641
f 586 642 644
f 586 644 588
f 587 589 645
f 587 645 643
f 588 644 646
f 588 646 590
f 589 591 647
f 589 647 645
f 590 646 648
f 590 648 592
f 591 593 649
f 591 649 647
f 592 648 650
f 592 650 594
f 593 595 651
f 593 651 649
f 594 650 652
f 594 652 596
f 595 597 653
f 595 653 651
f 596 652 654
f 596 654 598
f 597 599 655
f 597 655 653
f 598 654 656
f 598 656 600
f 602 601 657
f 602 657 658
f 599 602 658
f 599 658 655
f 601 603 659
f 601 659 657
f 603 604 660
f 603 660 659
f 604 605 661
f 604 661 660
f 605 606 662
f 605 662 661
f 606 607 663
f 606 663 662
f 607 608 664
f 607 664 663
f 608 609 665
f 608 665 664
f 609 610 666
f 609 666 665
f 610 611 667
f 610 667 666
f 611 612 668
f 611 668 667
f 612 613 669
f 612 669 668
f 600 656 669
f 600 669 613
f 614 670 671
f 614 671 615
f 614 616 672
f 614 672 670
f 615 671 673
f 615 673 617
f 617 673 674
f 617 674 618
f 618 674 675
f 618 675 619
f 619 675 676
f 619 676 620
f 620 676 677
f 620 677 621
f 621 677 678
f 621 678 622
f 622 678 679
f 622 679 623
f 623 679 680
f 623 680 624
f 624 680 681
f 624 681 625
f 625 681 682
f 625 682 626
f 626 682 683
f 626 683 627
f 627 683 684
f 627 684 628
f 616 629 685
f 616 685 672
f 628 684 686
f 628 686 630
f 629 631 687
f 629 687 685
f 630 686 688
f 630 688 632
f 631 633 689
f 631 689 687
f 632 688 690
f 632 690 634
f 633 635 691
f 633 691 689
f 634 690 692
f 634 692 636
f 635 637 693
f 635 693 691
f 636 692 694
f 636 694 638
f 637 639 695
f 637 695 693
f 638 694 696
f 638 696 640
f 639 641 697
f 639 697 695
f 640 696 698
f 640 698 642
f 641 643 699
f 641 699 697
f 642 698 700
f 642 700 644
f 643 645 701
f 643 701 699
f 644 700 702
f 644 702 646
f 645 647 703
f 645 703 701
f 646 702 704
f 646 704 648
f 647 649 705
f 647 705 703
f 648 704 706
f 648 706 650
f 649 651 707
f 649 707 705
f 650 706 708
f 650 708 652
f 651 653 709
f 651 709 707
f 652 708 710
f 652 710 654
f 653 655 711
f 653 711 709
f 654 710 712
f 654 712 656
f 658 657 713
f 658 713 714
f 655 658 714
f 655 714 711
f 657 659 715
f 657 715 713
f 659 660 716
f 659 716 715
f 660 661 717
f 660 717 716
f 661 662 718
f 661 718 717
f 662 663 719
f 662 719 718
f 663 664 720
f 663 720 719
f 664 665 721
f 664 721 720
f 665 666 722
f 665 722 721
f 666 667 723
f 666 723 722
f 667 668 724
f 667 724 723
f 668 669 725
f 668 725 724
f 656 712 725
f 656 725 669
f 670 726 727
f 670 727 671
f 670 672 728
f 670 728 726
f 671 727 729
f 671 729 673
f 673 729 730
f 673 730 674
f 674 730 731
f 674 731 675
f 675 731 732
f 675 732 676
f 676 732 733
f 676 733 677
f 677 733 734
f 677 734 678
f 678 734 735
f 678 735 679
f 679 735 736
f 679 736 680
f 680 736 737
f 680 737 681
f 681 737 738
f 681 738 682
f 682 738 739
f 682 739 683
f 683 739 740
f 683 740 684
f 672 685 741
f 672 741 728
f 684 740 742
f 684 742 686
f 685 687 743
f 685 743 741
f 686 742 744
f 686 744 688
f 687 689 745
f 687 745 743
f 688 744 746
f 688 746 690
f 689 691 747
f 689 747 745
f 690 746 748
f 690 748 692
f 691 693 749
f 691 749 747
f 692 748 750
f 692 750 694
f 693 695 751
f 693 751 749
f 694 750 752
f 694 752 696
f 695 697 753
f 695 753 751
f 696 752 754
f 696 754 698
f 697 699 755
f 697 755 753
f 698 754 756
f 698 756 700
f 699 701 757
f 699 757 755
f 700 756 758
f 700 758 702
f 701 703 759
f 701 759 757
f 702 758 760
f 702 760 704
f 703 705 761
f 703 761 759
f 704 760 762
f 704 762 706
f 705 707 763
f 705 763 761
f 706 762 764
f 706 764 708
f 707 709 765
f 707 765 763
f 708 764 766
f 708 766 710
f 709 711 767
f 709 767 765
f 710 766 768
f 710 768 712
f 714 713 769
f 714 769 770
f 711 714 770
f 711 770 767
f 713 715 771
f 713 771 769
f 715 716 772
f 715 772 771
f 716 717 773
f 716 773 772
f 717 718 774
f 717 774 773
f 718 719 775
f 718 775 774
f 719 720 776
f 719 776 775
f 720 721 777
f 720 777 776
f 721 722 778
f 721 778 777
f 722 723 779
f 722 779 778
f 723 724 780
f 723 780 779
f 724 725 781
f 724 781 780
f 712 768 781
f 712 781 725
f 726 782 783
f 726 783 727
f 726 728 784
f 726 784 782
f 727 783 785
f 727 785 729
f 729 785 786
f 729 786 730
f 730 786 787
f 730 787 731
f 731 787 788
f 731 788 732
f 732 788 789
f 732 789 733
f 733 789 790
f 733 790 734
f 734 790 791
f 734 791 735
f 735 791 792
f 735 792 736
f 736 792 793
f 736 793 737
f 737 793 794
f 737 794 738
f 738 794 795
f 738 795 739
f 739 795 796
f 739 796 740
f 728 741 797
f 728 797 784
f 740 796 798
f 740 798 742
f 741 743 799
f 741 799 797
f 742 798 800
f 742 800 744
f 743 745 801
f 743 801 799
f 744 800 802
f 744 802 746
f 745 747 803
f 745 803 801
f 746 802 804
f 746 804 748
f 747 749 805
f 747 805 803
f 748 804 806
f 748 806 750
f 749 751 807
f 749 807 805
f 750 806 808
f 750 808 752
f 751 753 809
f 751 809 807
f 752 808 810
f 752 810 754
f 753 755 811
f 753 811 809
f 754 810 812
f 754 812 756
f 755 757 813
f 755 813 811
f 756 812 814
f 756 814 758
f 757 759 815
f 757 815 813
f 758 814 816
f 758 816 760
f 759 761 817
f 759 817 815
f 760 816 818
f 760 818 762
f 761 763 819
f 761 819 817
f 762 818 820
f 762 820 764
f 763 765 821
f 763 821 819
f 764 820 822
f 764 822 766
f 765 767 823
f 765 823 821
f 766 822 824
f 766 824 768
f 770 769 825
f 770 825 826
f 767 770 826
f 767 826 823
f 769 771 827
f 769 827 825
f 771 772 828
f 771 828 827
f 772 773 829
f 772 829 828
f 773 774 830
f 773 830 829
f 774 775 831
f 774 831 830
f 775 776 832
f 775 832 831
f 776 777 833
f 776 833 832
f 777 778 834
f 777 834 833
f 778 779 835
f 778 835 834
f 779 780 836
f 779 836 835
f 780 781 837
f 780 837 836
f 768 824 837
f 768 837 781
f 782 838 839
f 782 839 783
f 782 784 840
f 782 840 838
f 783 839 841
f 783 841 785
f 785 841 842
f 785 842 786
f 786 842 843
f 786 843 787
f 787 843 844
f 787 844 788
f 788 844 845
f 788 845 789
f 789 845 846
f 789 846 790
f 790 846 847
f 790 847 791
f 791 847 848
f 791 848 792
f 792 848 849
f 792 849 793
f 793 849 850
f 793 850 794
f 794 850 851
f 794 851 795
f 795 851 852
f 795 852 796
f 784 797 853
f 784 853 840
f 796 852 854
f 796 854 798
f 797 799 855
f 797 855 853
f 798 854 856
f 798 856 800
f 799 801 857
f 799 857 855
f 800 856 858
f 800 858 802
f 801 803 859
f 801 859 857
f 802 858 860
f 802 860 804
f 803 805 861
f 803 861 859
f 804 860 862
f 804 862 806
f 805 807 863
f 805 863 861
f 806 862 864
f 806 864 808
f 807 809 865
f 807 865 863
f 808 864 866
f 808 866 810
f 809 811 867
f 809 867 865
f 810 866 868
f 810 868 812
f 811 813 869
f 811 869 867
f 812 868 870
f 812 870 814
f 813 815 871
f 813 871 869
f 814 870 872
f 814 872 816
f 815 817 873
f 815 873 871
f 816 872 874
f 816 874 818
f 817 819 875
f 817 875 873
f 818 874 876
f 818 876 820
f 819 821 877
f 819 877 875
f 820 876 878
f 820 878 822
f 821 823 879
f 821 879 877
f 822 878 880
f 822 880 824
f 826 825 881
f 826 881 882
f 823 826 882
f 823 882 879
f 825 827 883
f 825 883 881
f 827 828 884
f 827 884 883
f 828 829 885
f 828 885 884
f 829 830 886
f 829 886 885
f 830 831 887
f 830 887 886
f 831 832 888
f 831 888 887
f 832 833 889
f 832 889 888
f 833 834 890
f 833 890 889
f 834 835 891
f 834 891 890
f 835 836 892
f 835 892 891
f 836 837 893
f 836 893 892
f 824 880 893
f 824 893 837
f 838 894 895
f 838 895 839
f 838 840 896
f 838 896 894
f 839 895 897
f 839 897 841
f 841 897 898
f 841 898 842
f 842 898 899
f 842 899 843
f 843 899 900
f 843 900 844
f 844 900 901
f 844 901 845
f 845 901 902
f 845 902 846
f 846 902 903
f 846 903 847
f 847 903 904
f 847 904 848
f 848 904 905
f 848 905 849
f 849 905 906
f 849 906 850
f 850 906 907
f 850 907 851
f 851 907 908
f 851 908 852
f 840 853 909
f 840 909 896
f 852 908 910
f 852 910 854
f 853 855 911
f 853 911 909
f 854 910 912
f 854 912 856
f 855 857 913
f 855 913 911
f 856 912 914
f 856 914 858
f 857 859 915
f 857 915 913
f 858 914 916
f 858 916 860
f 859 861 917
f 859 917 915
f 860 916 918
f 860 918 862
f 861 863 919
f 861 919 917
f 862 918 920
f 862 920 864
f 863 865 921
f 863 921 919
f 864 920 922
f 864 922 866
f 865 867 923
f 865 923 921
f 866 922 924
f 866 924 868
f 867 869 925
f 867 925 923
f 868 924 926
f 868 926 870
f 869 871 927
f 869 927 925
f 870 926 928
f 870 928 872
f 871 873 929
f 871 929 927
f 872 928 930
f 872 930 874
f 873 875 931
f 873 931 929
f 874 930 932
f 874 932 876
f 875 877 933
f 875 933 931
f 876 932 934
f 876 934 878
f 877 879 935
f 877 935 933
f 878 934 936
f 878 936 880
f 882 881 937
f 882 937 938
f 879 882 938
f 879 938 935
f 881 883 939
f 881 939 937
f 883 884 940
f 883 940 939
f 884 885 941
f 884 941 940
f 885 886 942
f 885 942 941
f 886 887 943
f 886 943 942
f 887 888 944
f 887 944 943
f 888 889 945
f 888 945 944
f 889 890 946
f 889 946 945
f 890 891 947
f 890 947 946
f 891 892 948
f 891 948 947
f 892 893 949
f 892 949 948
f 880 936 949
f 880 949 893
f 950 951 952
f 950 952 953
f 894 950 951
f 894 951 895
f 894 896 953
f 894 953 950
f 951 954 955
f 951 955 952
f 895 951 954
f 895 954 897
f 954 956 957
f 954 957 955
f 897 954 956
f 897 956 898
f 956 958 959
f 956 959 957
f 898 956 958
f 898 958 899
f 958 960 961
f 958 961 959
f 899 958 960
f 899 960 900
f 960 962 963
f 960 963 961
f 900 960 962
f 900 962 901
f 962 964 965
f 962 965 963
f 901 962 964
f 901 964 902
f 964 966 967
f 964 967 965
f 902 964 966
f 902 966 903
f 966 968 969
f 966 969 967
f 903 966 968
f 903 968 904
f 968 970 971
f 968 971 969
f 904 968 970
f 904 970 905
f 970 972 973
f 970 973 971
f 905 970 972
f 905 972 906
f 972 974 975
f 972 975 973
f 906 972 974
f 906 974 907
f 907 974 975
f 907 975 908
f 953 952 976
f 953 976 977
f 896 909 977
f 896 977 953
f 952 955 978
f 952 978 976
f 955 957 979
f 955 979 978
f 957 959 980
f 957 980 979
f 959 961 981
f 959 981 980
f 961 963 982
f 961 982 981
f 963 965 983
f 963 983 982
f 965 967 984
f 965 984 983
f 967 969 985
f 967 985 984
f 969 971 986
f 969 986 985
f 971 973 987
f 971 987 986
f 973 975 988
f 973 988 987
f 908 975 988
f 908 988 910
f 977 976 989
f 977 989 990
f 909 911 990
f 909 990 977
f 976 978 991
f 976 991 989
f 978 979 992
f 978 992 991
f 979 980 993
f 979 993 992
f 980 981 994
f 980 994 993
f 981 982 995
f 981 995 994
f 982 983 996
f 982 996 995
f 983 984 997
f 983 997 996
f 984 985 998
f 984 998 997
f 985 986 999
f 985 999 998
f 986 987 1000
f 986 1000 999
f 987 988 1001
f 987 1001 1000
f 910 988 1001
f 910 1001 912
f 990 989 1002
f 990 1002 1003
f 911 913 1003
f 911 1003 990
f 989 991 1004
f 989 1004 1002
f 991 992 1005
f 991 1005 1004
f 992 993 1006
f 992 1006 1005
f 993 994 1007
f 993 1007 1006
f 994 995 1008
f 994 1008 1007
f 995 996 1009
f 995 1009 1008
f 996 997 1010
f 996 1010 1009
f 997 998 1011
f 997 1011 1010
f 998 999 1012
f 998 1012 1011
f 999 1000 1013
f 999 1013 1012
f 1000 1001 1014
f 1000 1014 1013
f 912 1001 1014
f 912 1014 914
f 1003 1002 1015
f 1003 1015 1016
f 913 915 1016
f 913 1016 1003
f 1002 1004 1017
f 1002 1017 1015
f 1004 1005 1018
f 1004 1018 1017
f 1005 1006 1019
f 1005 1019 1018
f 1006 1007 1020
f 1006 1020 1019
f 1007 1008 1021
f 1007 1021 1020
f 1008 1009 1022
f 1008 1022 1021
f 1009 1010 1023
f 1009 1023 1022
f 1010 1011 1024
f 1010 1024 1023
f 1011 1012 1025
f 1011 1025 1024
f 1012 1013 1026
f 1012 1026 1025
f 1013 1014 1027
f 1013 1027 1026
f 914 1014 1027
f 914 1027 916
f 1016 1015 1028
f 1016 1028 1029
f 915 917 1029
f 915 1029 1016
f 1015 1017 1030
f 1015 1030 1028
f 1017 1018 1031
f 1017 1031 1030
f 1018 1019 1032
f 1018 1032 1031
f 1019 1020 1033
f 1019 1033 1032
f 1020 1021 1034
f 1020 1034 1033
f 1021 1022 1035
f 1021 1035 1034
f 1022 1023 1036
f 1022 1036 1035
f 1023 1024 1037
f 1023 1037 1036
f 1024 1025 1038
f 1024 1038 1037
f 1025 1026 1039
f 1025 1039 1038
f 1026 1027 1040
f 1026 1040 1039
f 916 1027 1040
f 916 1040 918
f 1029 1028 1041
f 1029 1041 1042
f 917 919 1042
f 917 1042 1029
f 1028 1030 1043
f 1028 1043 1041
f 1030 1031 1044
f 1030 1044 1043
f 1031 1032 1045
f 1031 1045 1044
f 1032 1033 1046
f 1032 1046 1045
f 1033 1034 1047
f 1033 1047 1046
f 1034 1035 1048
f 1034 1048 1047
f 1035 1036 1049
f 1035 1049 1048
f 1036 1037 1050
f 1036 1050 1049
f 1037 1038 1051
f 1037 1051 1050
f 1038 1039 1052
f 1038 1052 1051
f 1039 1040 1053
f 1039 1053 1052
f 918 1040 1053
f 918 1053 920
f 1042 1041 1054
f 1042 1054 1055
f 919 921 1055
f 919 1055 1042
f 1041 1043 1056
f 1041 1056 1054
f 1043 1044 1057
f 1043 1057 1056
f 1044 1045 1058
f 1044 1058 1057
f 1045 1046 1059
f 1045 1059 1058
f 1046 1047 1060
f 1046 1060 1059
f 1047 1048 1061
f 1047 1061 1060
f 1048 1049 1062
f 1048 1062 1061
f 1049 1050 1063
f 1049 1063 1062
f 1050 1051 1064
f 1050 1064 1063
f 1051 1052 1065
f 1051 1065 1064
f 1052 1053 1066
f 1052 1066 1065
f 920 1053 1066
f 920 1066 922
f 1055 1054 1067
f 1055 1067 1068
f 921 923 1068
f 921 1068 1055
f 1054 1056 1069
f 1054 1069 1067
f 1056 1057 1070
f 1056 1070 1069
f 1057 1058 1071
f 1057 1071 1070
f 1058 1059 1072
f 1058 1072 1071
f 1059 1060 1073
f 1059 1073 1072
f 1060 1061 1074
f 1060 1074 1073
f 1061 1062 1075
f 1061 1075 1074
f 1062 1063 1076
f 1062 1076 1075
f 1063 1064 1077
f 1063 1077 1076
f 1064 1065 1078
f 1064 1078 1077
f 1065 1066 1079
f 1065 1079 1078
f 922 1066 1079
f 922 1079 924
f 1068 1067 1080
f 1068 1080 1081
f 923 925 1081
f 923 1081 1068
f 1067 1069 1082
f 1067 1082 1080
f 1069 1070 1083
f 1069 1083 1082
f 1070 1071 1084
f 1070 1084 1083
f 1071 1072 1085
f 1071 1085 1084
f 1072 1073 1086
f 1072 1086 1085
f 1073 1074 1087
f 1073 1087 1086
f 1074 1075 1088
f 1074 1088 1087
f 1075 1076 1089
f 1075 1089 1088
f 1076 1077 1090
f 1076 1090 1089
f 1077 1078 1091
f 1077 1091 1090
f 1078 1079 1092
f 1078 1092 1091
f 924 1079 1092
f 924 1092 926
f 1081 1080 1093
f 1081 1093 1094
f 925 927 1094
f 925 1094 1081
f 1080 1082 1095
f 1080 1095 1093
f 1082 1083 1096
f 1082 1096 1095
f 1083 1084 1097
f 1083 1097 1096
f 1084 1085 1098
f 1084 1098 1097
f 1085 1086 1099
f 1085 1099 1098
f 1086 1087 1100
f 1086 1100 1099
f 1087 1088 1101
f 1087 1101 1100
f 1088 1089 1102
f 1088 1102 1101
f 1089 1090 1103
f 1089 1103 1102
f 1090 1091 1104
f 1090 1104 1103
f 1091 1092 1105
f 1091 1105 1104
f 926 1092 1105
f 926 1105 928
f 1094 1093 1106
f 1094 1106 1107
f 927 929 1107
f 927 1107 1094
f 1093 1095 1108
f 1093 1108 1106
f 1095 1096 1109
f 1095 1109 1108
f 1096 1097 1110
f 1096 1110 1109
f 1097 1098 1111
f 1097 1111 1110
f 1098 1099 1112
f 1098 1112 1111
f 1099 1100 1113
f 1099 1113 1112
f 1100 1101 1114
f 1100 1114 1113
f 1101 1102 1115
f 1101 1115 1114
f 1102 1103 1116
f 1102 1116 1115
f 1103 1104 1117
f 1103 1117 1116
f 1104 1105 1118
f 1104 1118 1117
f 928 1105 1118
f 928 1118 930
f 1107 1106 1119
f 1107 1119 1120
f 929 931 1120
f 929 1120 1107
f 1106 1108 1121
f 1106 1121 1119
f 1108 1109 1122
f 1108 1122 1121
f 1109 1110 1123
f 1109 1123 1122
f 1110 1111 1124
f 1110 1124 1123
f 1111 1112 1125
f 1111 1125 1124
f 1112 1113 1126
f 1112 1126 1125
f 1113 1114 1127
f 1113 1127 1126
f 1114 1115 1128
f 1114 1128 1127
f 1115 1116 1129
f 1115 1129 1128
f 1116 1117 1130
f 1116 1130 1129
f 1117 1118 1131
f 1117 1131 1130
f 930 1118 1131
f 930 1131 932
f 1120 1119 1132
f 1120 1132 1133
f 931 933 1133
f 931 1133 1120
f 1119 1121 1134
f 1119 1134 1132
f 1121 1122 1135
f 1121 1135 1134
f 1122 1123 1136
f 1122 1136 1135
f 1123 1124 1137
f 1123 1137 1136
f 1124 1125 1138
f 1124 1138 1137
f 1125 1126 1139
f 1125 1139 1138
f 1126 1127 1140
f 1126 1140 1139
f 1127 1128 1141
f 1127 1141 1140
f 1128 1129 1142
f 1128 1142 1141
f 1129 1130 1143
f 1129 1143 1142
f 1130 1131 1144
f 1130 1144 1143
f 932 1131 1144
f 932 1144 934
f 1133 1132 1145
f 1133 1145 1146
f 933 935 1146
f 933 1146 1133
f 1132 1134 1147
f 1132 1147 1145
f 1134 1135 1148
f 1134 1148 1147
f 1135 1136 1149
f 1135 1149 1148
f 1136 1137 1150
f 1136 1150 1149
f 1137 1138 1151
f 1137 1151 1150
f 1138 1139 1152
f 1138 1152 1151
f 1139 1140 1153
f 1139 1153 1152
f 1140 1141 1154
f 1140 1154 1153
f 1141 1142 1155
f 1141 1155 1154
f 1142 1143 1156
f 1142 1156 1155
f 1143 1144 1157
f 1143 1157 1156
f 934 1144 1157
f 934 1157 936
f 1146 1145 1158
f 1146 1158 1159
f 938 937 1158
f 938 1158 1159
f 935 938 1159
f 935 1159 1146
f 1145 1147 1160
f 1145 1160 1158
f 937 939 1160
f 937 1160 1158
f 1147 1148 1161
f 1147 1161 1160
f 939 940 1161
f 939 1161 1160
f 1148 1149 1162
f 1148 1162 1161
f 940 941 1162
f 940 1162 1161
f 1149 1150 1163
f 1149 1163 1162
f 941 942 1163
f 941 1163 1162
f 1150 1151 1164
f 1150 1164 1163
f 942 943 1164
f 942 1164 1163
f 1151 1152 1165
f 1151 1165 1164
f 943 944 1165
f 943 1165 1164
f 1152 1153 1166
f 1152 1166 1165
f 944 945 1166
f 944 1166 1165
f 1153 1154 1167
f 1153 1167 1166
f 945 946 1167
f 945 1167 1166
f 1154 1155 1168
f 1154 1168 1167
f 946 947 1168
f 946 1168 1167
f 1155 1156 1169
f 1155 1169 1168
f 947 948 1169
f 947 1169 1168
f 1156 1157 1170
f 1156 1170 1169
f 948 949 1170
f 948 1170 1169
f 936 1157 1170
f 936 1170 949
