o [4B] 3D Diagram - S2-06 Group C_139
v -45.360000 -45.360000 85.412500
v -45.360000 -38.880000 85.412500
v -45.360000 -38.880000 86.425000
v -45.360000 -45.360000 86.425000
v -38.880000 -45.360000 85.412500
v -38.880000 -45.360000 86.425000
v -38.880000 -38.880000 85.412500
v -45.360000 -38.880000 87.437500
v -45.360000 -45.360000 87.437500
v -38.880000 -45.360000 87.437500
v -45.360000 -38.880000 88.450000
v -45.360000 -45.360000 88.450000
v -38.880000 -45.360000 88.450000
v -45.360000 -38.880000 89.462500
v -45.360000 -45.360000 89.462500
v -38.880000 -45.360000 89.462500
v -38.880000 -38.880000 89.462500
v -45.360000 -32.400000 85.412500
v -45.360000 -32.400000 86.425000
v -38.880000 -32.400000 85.412500
v -45.360000 -32.400000 87.437500
v -45.360000 -32.400000 88.450000
v -45.360000 -32.400000 89.462500
v -38.880000 -32.400000 89.462500
v -45.360000 -25.920000 85.412500
v -45.360000 -25.920000 86.425000
v -38.880000 -25.920000 85.412500
v -45.360000 -25.920000 87.437500
v -45.360000 -25.920000 88.450000
v -45.360000 -25.920000 89.462500
v -38.880000 -25.920000 89.462500
v -45.360000 -19.440000 85.412500
v -45.360000 -19.440000 86.425000
v -38.880000 -19.440000 85.412500
v -45.360000 -19.440000 87.437500
v -45.360000 -19.440000 88.450000
v -45.360000 -19.440000 89.462500
v -38.880000 -19.440000 89.462500
v -45.360000 -12.960000 85.412500
v -45.360000 -12.960000 86.425000
v -38.880000 -12.960000 85.412500
v -45.360000 -12.960000 87.437500
v -45.360000 -12.960000 88.450000
v -45.360000 -12.960000 89.462500
v -38.880000 -12.960000 89.462500
v -45.360000 -6.480000 85.412500
v -45.360000 -6.480000 86.425000
v -38.880000 -6.480000 85.412500
v -45.360000 -6.480000 87.437500
v -45.360000 -6.480000 88.450000
v -45.360000 -6.480000 89.462500
v -38.880000 -6.480000 89.462500
v -45.360000 0.000000 85.412500
v -45.360000 0.000000 86.425000
v -38.880000 0.000000 85.412500
v -45.360000 0.000000 87.437500
v -45.360000 0.000000 88.450000
v -45.360000 0.000000 89.462500
v -38.880000 0.000000 89.462500
v -45.360000 6.480000 85.412500
v -45.360000 6.480000 86.425000
v -38.880000 6.480000 85.412500
v -45.360000 6.480000 87.437500
v -45.360000 6.480000 88.450000
v -45.360000 6.480000 89.462500
v -38.880000 6.480000 89.462500
v -45.360000 12.960000 85.412500
v -45.360000 12.960000 86.425000
v -38.880000 12.960000 85.412500
v -45.360000 12.960000 87.437500
v -45.360000 12.960000 88.450000
v -45.360000 12.960000 89.462500
v -38.880000 12.960000 89.462500
v -45.360000 19.440000 85.412500
v -45.360000 19.440000 86.425000
v -38.880000 19.440000 85.412500
v -45.360000 19.440000 87.437500
v -45.360000 19.440000 88.450000
v -45.360000 19.440000 89.462500
v -38.880000 19.440000 89.462500
v -45.360000 25.920000 85.412500
v -45.360000 25.920000 86.425000
v -38.880000 25.920000 85.412500
v -45.360000 25.920000 87.437500
v -45.360000 25.920000 88.450000
v -45.360000 25.920000 89.462500
v -38.880000 25.920000 89.462500
v -45.360000 32.400000 85.412500
v -45.360000 32.400000 86.425000
v -38.880000 32.400000 85.412500
v -45.360000 32.400000 87.437500
v -45.360000 32.400000 88.450000
v -45.360000 32.400000 89.462500
v -38.880000 32.400000 89.462500
v -45.360000 38.880000 85.412500
v -45.360000 38.880000 86.425000
v -38.880000 38.880000 85.412500
v -45.360000 38.880000 87.437500
v -45.360000 38.880000 88.450000
v -45.360000 38.880000 89.462500
v -38.880000 38.880000 89.462500
v -45.360000 45.360000 85.412500
v -45.360000 45.360000 86.425000
v -38.880000 45.360000 86.425000
v -38.880000 45.360000 85.412500
v -45.360000 45.360000 87.437500
v -38.880000 45.360000 87.437500
v -45.360000 45.360000 88.450000
v -38.880000 45.360000 88.450000
v -45.360000 45.360000 89.462500
v -38.880000 45.360000 89.462500
v -32.400000 -45.360000 85.412500
v -32.400000 -45.360000 86.425000
v -32.400000 -38.880000 85.412500
v -32.400000 -45.360000 87.437500
v -32.400000 -45.360000 88.450000
v -32.400000 -45.360000 89.462500
v -32.400000 -38.880000 89.462500
v -32.400000 -32.400000 85.412500
v -38.880000 -32.400000 90.475000
v -38.880000 -38.880000 90.475000
v -32.400000 -38.880000 90.475000
v -38.880000 -32.400000 91.487500
v -38.880000 -38.880000 91.487500
v -32.400000 -38.880000 91.487500
v -38.880000 -32.400000 92.500000
v -38.880000 -38.880000 92.500000
v -32.400000 -38.880000 92.500000
v -38.880000 -32.400000 93.512500
v -38.880000 -38.880000 93.512500
v -32.400000 -38.880000 93.512500
v -38.880000 -32.400000 94.525000
v -38.880000 -38.880000 94.525000
v -32.400000 -38.880000 94.525000
v -38.880000 -32.400000 95.537500
v -38.880000 -38.880000 95.537500
v -32.400000 -38.880000 95.537500
v -32.400000 -32.400000 95.537500
v -32.400000 -25.920000 85.412500
v -38.880000 -25.920000 90.475000
v -38.880000 -25.920000 91.487500
v -38.880000 -25.920000 92.500000
v -38.880000 -25.920000 93.512500
v -38.880000 -25.920000 94.525000
v -38.880000 -25.920000 95.537500
v -32.400000 -25.920000 95.537500
v -32.400000 -19.440000 85.412500
v -38.880000 -19.440000 90.475000
v -38.880000 -19.440000 91.487500
v -38.880000 -19.440000 92.500000
v -38.880000 -19.440000 93.512500
v -38.880000 -19.440000 94.525000
v -38.880000 -19.440000 95.537500
v -32.400000 -19.440000 95.537500
v -32.400000 -12.960000 85.412500
v -38.880000 -12.960000 90.475000
v -38.880000 -12.960000 91.487500
v -38.880000 -12.960000 92.500000
v -38.880000 -12.960000 93.512500
v -38.880000 -12.960000 94.525000
v -38.880000 -12.960000 95.537500
v -32.400000 -12.960000 95.537500
v -32.400000 -6.480000 85.412500
v -38.880000 -6.480000 90.475000
v -38.880000 -6.480000 91.487500
v -38.880000 -6.480000 92.500000
v -38.880000 -6.480000 93.512500
v -38.880000 -6.480000 94.525000
v -38.880000 -6.480000 95.537500
v -32.400000 -6.480000 95.537500
v -32.400000 0.000000 85.412500
v -38.880000 0.000000 90.475000
v -38.880000 0.000000 91.487500
v -38.880000 0.000000 92.500000
v -38.880000 0.000000 93.512500
v -38.880000 0.000000 94.525000
v -38.880000 0.000000 95.537500
v -32.400000 0.000000 95.537500
v -32.400000 6.480000 85.412500
v -38.880000 6.480000 90.475000
v -38.880000 6.480000 91.487500
v -38.880000 6.480000 92.500000
v -38.880000 6.480000 93.512500
v -38.880000 6.480000 94.525000
v -38.880000 6.480000 95.537500
v -32.400000 6.480000 95.537500
v -32.400000 12.960000 85.412500
v -38.880000 12.960000 90.475000
v -38.880000 12.960000 91.487500
v -38.880000 12.960000 92.500000
v -38.880000 12.960000 93.512500
v -38.880000 12.960000 94.525000
v -38.880000 12.960000 95.537500
v -32.400000 12.960000 95.537500
v -32.400000 19.440000 85.412500
v -38.880000 19.440000 90.475000
v -38.880000 19.440000 91.487500
v -38.880000 19.440000 92.500000
v -38.880000 19.440000 93.512500
v -38.880000 19.440000 94.525000
v -38.880000 19.440000 95.537500
v -32.400000 19.440000 95.537500
v -32.400000 25.920000 85.412500
v -38.880000 25.920000 90.475000
v -38.880000 25.920000 91.487500
v -38.880000 25.920000 92.500000
v -38.880000 25.920000 93.512500
v -38.880000 25.920000 94.525000
v -38.880000 25.920000 95.537500
v -32.400000 25.920000 95.537500
v -32.400000 32.400000 85.412500
v -38.880000 32.400000 90.475000
v -38.880000 32.400000 91.487500
v -38.880000 32.400000 92.500000
v -38.880000 32.400000 93.512500
v -38.880000 32.400000 94.525000
v -38.880000 32.400000 95.537500
v -32.400000 32.400000 95.537500
v -32.400000 38.880000 85.412500
v -38.880000 38.880000 90.475000
v -32.400000 38.880000 90.475000
v -32.400000 38.880000 89.462500
v -38.880000 38.880000 91.487500
v -32.400000 38.880000 91.487500
v -38.880000 38.880000 92.500000
v -32.400000 38.880000 92.500000
v -38.880000 38.880000 93.512500
v -32.400000 38.880000 93.512500
v -38.880000 38.880000 94.525000
v -32.400000 38.880000 94.525000
v -38.880000 38.880000 95.537500
v -32.400000 38.880000 95.537500
v -32.400000 45.360000 86.425000
v -32.400000 45.360000 85.412500
v -32.400000 45.360000 87.437500
v -32.400000 45.360000 88.450000
v -32.400000 45.360000 89.462500
v -25.920000 -45.360000 85.412500
v -25.920000 -45.360000 86.425000
v -25.920000 -38.880000 85.412500
v -25.920000 -45.360000 87.437500
v -25.920000 -45.360000 88.450000
v -25.920000 -45.360000 89.462500
v -25.920000 -38.880000 89.462500
v -25.920000 -32.400000 85.412500
v -25.920000 -38.880000 90.475000
v -25.920000 -38.880000 91.487500
v -25.920000 -38.880000 92.500000
v -25.920000 -38.880000 93.512500
v -25.920000 -38.880000 94.525000
v -25.920000 -38.880000 95.537500
v -25.920000 -32.400000 95.537500
v -25.920000 -25.920000 85.412500
v -32.400000 -25.920000 96.550000
v -32.400000 -32.400000 96.550000
v -25.920000 -32.400000 96.550000
v -32.400000 -25.920000 97.562500
v -32.400000 -32.400000 97.562500
v -25.920000 -32.400000 97.562500
v -32.400000 -25.920000 98.575000
v -32.400000 -32.400000 98.575000
v -25.920000 -32.400000 98.575000
v -32.400000 -25.920000 99.587500
v -32.400000 -32.400000 99.587500
v -25.920000 -32.400000 99.587500
v -25.920000 -25.920000 99.587500
v -25.920000 -19.440000 85.412500
v -32.400000 -19.440000 96.550000
v -32.400000 -19.440000 97.562500
v -32.400000 -19.440000 98.575000
v -32.400000 -19.440000 99.587500
v -25.920000 -19.440000 99.587500
v -25.920000 -12.960000 85.412500
v -32.400000 -12.960000 96.550000
v -32.400000 -12.960000 97.562500
v -32.400000 -12.960000 98.575000
v -32.400000 -12.960000 99.587500
v -25.920000 -12.960000 99.587500
v -25.920000 -6.480000 85.412500
v -32.400000 -6.480000 96.550000
v -32.400000 -6.480000 97.562500
v -32.400000 -6.480000 98.575000
v -32.400000 -6.480000 99.587500
v -25.920000 -6.480000 99.587500
v -25.920000 0.000000 85.412500
v -32.400000 0.000000 96.550000
v -32.400000 0.000000 97.562500
v -32.400000 0.000000 98.575000
v -32.400000 0.000000 99.587500
v -25.920000 0.000000 99.587500
v -25.920000 6.480000 85.412500
v -32.400000 6.480000 96.550000
v -32.400000 6.480000 97.562500
v -32.400000 6.480000 98.575000
v -32.400000 6.480000 99.587500
v -25.920000 6.480000 99.587500
v -25.920000 12.960000 85.412500
v -32.400000 12.960000 96.550000
v -32.400000 12.960000 97.562500
v -32.400000 12.960000 98.575000
v -32.400000 12.960000 99.587500
v -25.920000 12.960000 99.587500
v -25.920000 19.440000 85.412500
v -32.400000 19.440000 96.550000
v -32.400000 19.440000 97.562500
v -32.400000 19.440000 98.575000
v -32.400000 19.440000 99.587500
v -25.920000 19.440000 99.587500
v -25.920000 25.920000 85.412500
v -32.400000 25.920000 96.550000
v -32.400000 25.920000 97.562500
v -32.400000 25.920000 98.575000
v -32.400000 25.920000 99.587500
v -25.920000 25.920000 99.587500
v -25.920000 32.400000 85.412500
v -32.400000 32.400000 96.550000
v -25.920000 32.400000 96.550000
v -25.920000 32.400000 95.537500
v -32.400000 32.400000 97.562500
v -25.920000 32.400000 97.562500
v -32.400000 32.400000 98.575000
v -25.920000 32.400000 98.575000
v -32.400000 32.400000 99.587500
v -25.920000 32.400000 99.587500
v -25.920000 38.880000 85.412500
v -25.920000 38.880000 90.475000
v -25.920000 38.880000 89.462500
v -25.920000 38.880000 91.487500
v -25.920000 38.880000 92.500000
v -25.920000 38.880000 93.512500
v -25.920000 38.880000 94.525000
v -25.920000 38.880000 95.537500
v -25.920000 45.360000 86.425000
v -25.920000 45.360000 85.412500
v -25.920000 45.360000 87.437500
v -25.920000 45.360000 88.450000
v -25.920000 45.360000 89.462500
v -19.440000 -45.360000 85.412500
v -19.440000 -45.360000 86.425000
v -19.440000 -38.880000 85.412500
v -19.440000 -45.360000 87.437500
v -19.440000 -45.360000 88.450000
v -19.440000 -45.360000 89.462500
v -19.440000 -38.880000 89.462500
v -19.440000 -32.400000 85.412500
v -19.440000 -38.880000 90.475000
v -19.440000 -38.880000 91.487500
v -19.440000 -38.880000 92.500000
v -19.440000 -38.880000 93.512500
v -19.440000 -38.880000 94.525000
v -19.440000 -38.880000 95.537500
v -19.440000 -32.400000 95.537500
v -19.440000 -25.920000 85.412500
v -19.440000 -32.400000 96.550000
v -19.440000 -32.400000 97.562500
v -19.440000 -32.400000 98.575000
v -19.440000 -32.400000 99.587500
v -19.440000 -25.920000 99.587500
v -19.440000 -19.440000 85.412500
v -19.440000 -19.440000 99.587500
v -19.440000 -12.960000 85.412500
v -19.440000 -12.960000 99.587500
v -19.440000 -6.480000 85.412500
v -19.440000 -6.480000 99.587500
v -19.440000 0.000000 85.412500
v -19.440000 0.000000 99.587500
v -19.440000 6.480000 85.412500
v -19.440000 6.480000 99.587500
v -19.440000 12.960000 85.412500
v -19.440000 12.960000 99.587500
v -19.440000 19.440000 85.412500
v -19.440000 19.440000 99.587500
v -19.440000 25.920000 85.412500
v -19.440000 25.920000 99.587500
v -19.440000 32.400000 85.412500
v -19.440000 32.400000 96.550000
v -19.440000 32.400000 95.537500
v -19.440000 32.400000 97.562500
v -19.440000 32.400000 98.575000
v -19.440000 32.400000 99.587500
v -19.440000 38.880000 85.412500
v -19.440000 38.880000 90.475000
v -19.440000 38.880000 89.462500
v -19.440000 38.880000 91.487500
v -19.440000 38.880000 92.500000
v -19.440000 38.880000 93.512500
v -19.440000 38.880000 94.525000
v -19.440000 38.880000 95.537500
v -19.440000 45.360000 86.425000
v -19.440000 45.360000 85.412500
v -19.440000 45.360000 87.437500
v -19.440000 45.360000 88.450000
v -19.440000 45.360000 89.462500
v -12.960000 -45.360000 85.412500
v -12.960000 -45.360000 86.425000
v -12.960000 -38.880000 85.412500
v -12.960000 -45.360000 87.437500
v -12.960000 -45.360000 88.450000
v -12.960000 -45.360000 89.462500
v -12.960000 -38.880000 89.462500
v -12.960000 -32.400000 85.412500
v -12.960000 -38.880000 90.475000
v -12.960000 -38.880000 91.487500
v -12.960000 -38.880000 92.500000
v -12.960000 -38.880000 93.512500
v -12.960000 -38.880000 94.525000
v -12.960000 -38.880000 95.537500
v -12.960000 -32.400000 95.537500
v -12.960000 -25.920000 85.412500
v -12.960000 -32.400000 96.550000
v -12.960000 -32.400000 97.562500
v -12.960000 -32.400000 98.575000
v -12.960000 -32.400000 99.587500
v -12.960000 -25.920000 99.587500
v -12.960000 -19.440000 85.412500
v -12.960000 -19.440000 99.587500
v -12.960000 -12.960000 85.412500
v -12.960000 -12.960000 99.587500
v -12.960000 -6.480000 85.412500
v -12.960000 -6.480000 99.587500
v -12.960000 0.000000 85.412500
v -12.960000 0.000000 99.587500
v -12.960000 6.480000 85.412500
v -12.960000 6.480000 99.587500
v -12.960000 12.960000 85.412500
v -12.960000 12.960000 99.587500
v -12.960000 19.440000 85.412500
v -12.960000 19.440000 99.587500
v -12.960000 25.920000 85.412500
v -12.960000 25.920000 99.587500
v -12.960000 32.400000 85.412500
v -12.960000 32.400000 96.550000
v -12.960000 32.400000 95.537500
v -12.960000 32.400000 97.562500
v -12.960000 32.400000 98.575000
v -12.960000 32.400000 99.587500
v -12.960000 38.880000 85.412500
v -12.960000 38.880000 90.475000
v -12.960000 38.880000 89.462500
v -12.960000 38.880000 91.487500
v -12.960000 38.880000 92.500000
v -12.960000 38.880000 93.512500
v -12.960000 38.880000 94.525000
v -12.960000 38.880000 95.537500
v -12.960000 45.360000 86.425000
v -12.960000 45.360000 85.412500
v -12.960000 45.360000 87.437500
v -12.960000 45.360000 88.450000
v -12.960000 45.360000 89.462500
v -6.480000 -45.360000 85.412500
v -6.480000 -45.360000 86.425000
v -6.480000 -38.880000 85.412500
v -6.480000 -45.360000 87.437500
v -6.480000 -45.360000 88.450000
v -6.480000 -45.360000 89.462500
v -6.480000 -38.880000 89.462500
v -6.480000 -32.400000 85.412500
v -6.480000 -38.880000 90.475000
v -6.480000 -38.880000 91.487500
v -6.480000 -38.880000 92.500000
v -6.480000 -38.880000 93.512500
v -6.480000 -38.880000 94.525000
v -6.480000 -38.880000 95.537500
v -6.480000 -32.400000 95.537500
v -6.480000 -25.920000 85.412500
v -6.480000 -32.400000 96.550000
v -6.480000 -32.400000 97.562500
v -6.480000 -32.400000 98.575000
v -6.480000 -32.400000 99.587500
v -6.480000 -25.920000 99.587500
v -6.480000 -19.440000 85.412500
v -6.480000 -19.440000 99.587500
v -6.480000 -12.960000 85.412500
v -6.480000 -12.960000 99.587500
v -6.480000 -6.480000 85.412500
v -6.480000 -6.480000 99.587500
v -6.480000 0.000000 85.412500
v -6.480000 0.000000 99.587500
v -6.480000 6.480000 85.412500
v -6.480000 6.480000 99.587500
v -6.480000 12.960000 85.412500
v -6.480000 12.960000 99.587500
v -6.480000 19.440000 85.412500
v -6.480000 19.440000 99.587500
v -6.480000 25.920000 85.412500
v -6.480000 25.920000 99.587500
v -6.480000 32.400000 85.412500
v -6.480000 32.400000 96.550000
v -6.480000 32.400000 95.537500
v -6.480000 32.400000 97.562500
v -6.480000 32.400000 98.575000
v -6.480000 32.400000 99.587500
v -6.480000 38.880000 85.412500
v -6.480000 38.880000 90.475000
v -6.480000 38.880000 89.462500
v -6.480000 38.880000 91.487500
v -6.480000 38.880000 92.500000
v -6.480000 38.880000 93.512500
v -6.480000 38.880000 94.525000
v -6.480000 38.880000 95.537500
v -6.480000 45.360000 86.425000
v -6.480000 45.360000 85.412500
v -6.480000 45.360000 87.437500
v -6.480000 45.360000 88.450000
v -6.480000 45.360000 89.462500
v 0.000000 -45.360000 85.412500
v 0.000000 -45.360000 86.425000
v 0.000000 -38.880000 85.412500
v 0.000000 -45.360000 87.437500
v 0.000000 -45.360000 88.450000
v 0.000000 -45.360000 89.462500
v 0.000000 -38.880000 89.462500
v 0.000000 -32.400000 85.412500
v 0.000000 -38.880000 90.475000
v 0.000000 -38.880000 91.487500
v 0.000000 -38.880000 92.500000
v 0.000000 -38.880000 93.512500
v 0.000000 -38.880000 94.525000
v 0.000000 -38.880000 95.537500
v 0.000000 -32.400000 95.537500
v 0.000000 -25.920000 85.412500
v 0.000000 -32.400000 96.550000
v 0.000000 -32.400000 97.562500
v 0.000000 -32.400000 98.575000
v 0.000000 -32.400000 99.587500
v 0.000000 -25.920000 99.587500
v 0.000000 -19.440000 85.412500
v 0.000000 -19.440000 99.587500
v 0.000000 -12.960000 85.412500
v 0.000000 -12.960000 99.587500
v 0.000000 -6.480000 85.412500
v 0.000000 -6.480000 99.587500
v 0.000000 0.000000 85.412500
v 0.000000 0.000000 99.587500
v 0.000000 6.480000 85.412500
v 0.000000 6.480000 99.587500
v 0.000000 12.960000 85.412500
v 0.000000 12.960000 99.587500
v 0.000000 19.440000 85.412500
v 0.000000 19.440000 99.587500
v 0.000000 25.920000 85.412500
v 0.000000 25.920000 99.587500
v 0.000000 32.400000 85.412500
v 0.000000 32.400000 96.550000
v 0.000000 32.400000 95.537500
v 0.000000 32.400000 97.562500
v 0.000000 32.400000 98.575000
v 0.000000 32.400000 99.587500
v 0.000000 38.880000 85.412500
v 0.000000 38.880000 90.475000
v 0.000000 38.880000 89.462500
v 0.000000 38.880000 91.487500
v 0.000000 38.880000 92.500000
v 0.000000 38.880000 93.512500
v 0.000000 38.880000 94.525000
v 0.000000 38.880000 95.537500
v 0.000000 45.360000 86.425000
v 0.000000 45.360000 85.412500
v 0.000000 45.360000 87.437500
v 0.000000 45.360000 88.450000
v 0.000000 45.360000 89.462500
v 6.480000 -45.360000 85.412500
v 6.480000 -45.360000 86.425000
v 6.480000 -38.880000 85.412500
v 6.480000 -45.360000 87.437500
v 6.480000 -45.360000 88.450000
v 6.480000 -45.360000 89.462500
v 6.480000 -38.880000 89.462500
v 6.480000 -32.400000 85.412500
v 6.480000 -38.880000 90.475000
v 6.480000 -38.880000 91.487500
v 6.480000 -38.880000 92.500000
v 6.480000 -38.880000 93.512500
v 6.480000 -38.880000 94.525000
v 6.480000 -38.880000 95.537500
v 6.480000 -32.400000 95.537500
v 6.480000 -25.920000 85.412500
v 6.480000 -32.400000 96.550000
v 6.480000 -32.400000 97.562500
v 6.480000 -32.400000 98.575000
v 6.480000 -32.400000 99.587500
v 6.480000 -25.920000 99.587500
v 6.480000 -19.440000 85.412500
v 6.480000 -19.440000 99.587500
v 6.480000 -12.960000 85.412500
v 6.480000 -12.960000 99.587500
v 6.480000 -6.480000 85.412500
v 6.480000 -6.480000 99.587500
v 6.480000 0.000000 85.412500
v 6.480000 0.000000 99.587500
v 6.480000 6.480000 85.412500
v 6.480000 6.480000 99.587500
v 6.480000 12.960000 85.412500
v 6.480000 12.960000 99.587500
v 6.480000 19.440000 85.412500
v 6.480000 19.440000 99.587500
v 6.480000 25.920000 85.412500
v 6.480000 25.920000 99.587500
v 6.480000 32.400000 85.412500
v 6.480000 32.400000 96.550000
v 6.480000 32.400000 95.537500
v 6.480000 32.400000 97.562500
v 6.480000 32.400000 98.575000
v 6.480000 32.400000 99.587500
v 6.480000 38.880000 85.412500
v 6.480000 38.880000 90.475000
v 6.480000 38.880000 89.462500
v 6.480000 38.880000 91.487500
v 6.480000 38.880000 92.500000
v 6.480000 38.880000 93.512500
v 6.480000 38.880000 94.525000
v 6.480000 38.880000 95.537500
v 6.480000 45.360000 86.425000
v 6.480000 45.360000 85.412500
v 6.480000 45.360000 87.437500
v 6.480000 45.360000 88.450000
v 6.480000 45.360000 89.462500
v 12.960000 -45.360000 85.412500
v 12.960000 -45.360000 86.425000
v 12.960000 -38.880000 85.412500
v 12.960000 -45.360000 87.437500
v 12.960000 -45.360000 88.450000
v 12.960000 -45.360000 89.462500
v 12.960000 -38.880000 89.462500
v 12.960000 -32.400000 85.412500
v 12.960000 -38.880000 90.475000
v 12.960000 -38.880000 91.487500
v 12.960000 -38.880000 92.500000
v 12.960000 -38.880000 93.512500
v 12.960000 -38.880000 94.525000
v 12.960000 -38.880000 95.537500
v 12.960000 -32.400000 95.537500
v 12.960000 -25.920000 85.412500
v 12.960000 -32.400000 96.550000
v 12.960000 -32.400000 97.562500
v 12.960000 -32.400000 98.575000
v 12.960000 -32.400000 99.587500
v 12.960000 -25.920000 99.587500
v 12.960000 -19.440000 85.412500
v 12.960000 -19.440000 99.587500
v 12.960000 -12.960000 85.412500
v 12.960000 -12.960000 99.587500
v 12.960000 -6.480000 85.412500
v 12.960000 -6.480000 99.587500
v 12.960000 0.000000 85.412500
v 12.960000 0.000000 99.587500
v 12.960000 6.480000 85.412500
v 12.960000 6.480000 99.587500
v 12.960000 12.960000 85.412500
v 12.960000 12.960000 99.587500
v 12.960000 19.440000 85.412500
v 12.960000 19.440000 99.587500
v 12.960000 25.920000 85.412500
v 12.960000 25.920000 99.587500
v 12.960000 32.400000 85.412500
v 12.960000 32.400000 96.550000
v 12.960000 32.400000 95.537500
v 12.960000 32.400000 97.562500
v 12.960000 32.400000 98.575000
v 12.960000 32.400000 99.587500
v 12.960000 38.880000 85.412500
v 12.960000 38.880000 90.475000
v 12.960000 38.880000 89.462500
v 12.960000 38.880000 91.487500
v 12.960000 38.880000 92.500000
v 12.960000 38.880000 93.512500
v 12.960000 38.880000 94.525000
v 12.960000 38.880000 95.537500
v 12.960000 45.360000 86.425000
v 12.960000 45.360000 85.412500
v 12.960000 45.360000 87.437500
v 12.960000 45.360000 88.450000
v 12.960000 45.360000 89.462500
v 19.440000 -45.360000 85.412500
v 19.440000 -45.360000 86.425000
v 19.440000 -38.880000 85.412500
v 19.440000 -45.360000 87.437500
v 19.440000 -45.360000 88.450000
v 19.440000 -45.360000 89.462500
v 19.440000 -38.880000 89.462500
v 19.440000 -32.400000 85.412500
v 19.440000 -38.880000 90.475000
v 19.440000 -38.880000 91.487500
v 19.440000 -38.880000 92.500000
v 19.440000 -38.880000 93.512500
v 19.440000 -38.880000 94.525000
v 19.440000 -38.880000 95.537500
v 19.440000 -32.400000 95.537500
v 19.440000 -25.920000 85.412500
v 19.440000 -32.400000 96.550000
v 19.440000 -32.400000 97.562500
v 19.440000 -32.400000 98.575000
v 19.440000 -32.400000 99.587500
v 19.440000 -25.920000 99.587500
v 19.440000 -19.440000 85.412500
v 19.440000 -19.440000 99.587500
v 19.440000 -12.960000 85.412500
v 19.440000 -12.960000 99.587500
v 19.440000 -6.480000 85.412500
v 19.440000 -6.480000 99.587500
v 19.440000 0.000000 85.412500
v 19.440000 0.000000 99.587500
v 19.440000 6.480000 85.412500
v 19.440000 6.480000 99.587500
v 19.440000 12.960000 85.412500
v 19.440000 12.960000 99.587500
v 19.440000 19.440000 85.412500
v 19.440000 19.440000 99.587500
v 19.440000 25.920000 85.412500
v 19.440000 25.920000 99.587500
v 19.440000 32.400000 85.412500
v 19.440000 32.400000 96.550000
v 19.440000 32.400000 95.537500
v 19.440000 32.400000 97.562500
v 19.440000 32.400000 98.575000
v 19.440000 32.400000 99.587500
v 19.440000 38.880000 85.412500
v 19.440000 38.880000 90.475000
v 19.440000 38.880000 89.462500
v 19.440000 38.880000 91.487500
v 19.440000 38.880000 92.500000
v 19.440000 38.880000 93.512500
v 19.440000 38.880000 94.525000
v 19.440000 38.880000 95.537500
v 19.440000 45.360000 86.425000
v 19.440000 45.360000 85.412500
v 19.440000 45.360000 87.437500
v 19.440000 45.360000 88.450000
v 19.440000 45.360000 89.462500
v 25.920000 -45.360000 85.412500
v 25.920000 -45.360000 86.425000
v 25.920000 -38.880000 85.412500
v 25.920000 -45.360000 87.437500
v 25.920000 -45.360000 88.450000
v 25.920000 -45.360000 89.462500
v 25.920000 -38.880000 89.462500
v 25.920000 -32.400000 85.412500
v 25.920000 -38.880000 90.475000
v 25.920000 -38.880000 91.487500
v 25.920000 -38.880000 92.500000
v 25.920000 -38.880000 93.512500
v 25.920000 -38.880000 94.525000
v 25.920000 -38.880000 95.537500
v 25.920000 -32.400000 95.537500
v 25.920000 -25.920000 85.412500
v 25.920000 -32.400000 96.550000
v 25.920000 -32.400000 97.562500
v 25.920000 -32.400000 98.575000
v 25.920000 -32.400000 99.587500
v 25.920000 -25.920000 99.587500
v 25.920000 -19.440000 85.412500
v 25.920000 -19.440000 99.587500
v 25.920000 -12.960000 85.412500
v 25.920000 -12.960000 99.587500
v 25.920000 -6.480000 85.412500
v 25.920000 -6.480000 99.587500
v 25.920000 0.000000 85.412500
v 25.920000 0.000000 99.587500
v 25.920000 6.480000 85.412500
v 25.920000 6.480000 99.587500
v 25.920000 12.960000 85.412500
v 25.920000 12.960000 99.587500
v 25.920000 19.440000 85.412500
v 25.920000 19.440000 99.587500
v 25.920000 25.920000 85.412500
v 25.920000 25.920000 99.587500
v 25.920000 32.400000 85.412500
v 25.920000 32.400000 96.550000
v 25.920000 32.400000 95.537500
v 25.920000 32.400000 97.562500
v 25.920000 32.400000 98.575000
v 25.920000 32.400000 99.587500
v 25.920000 38.880000 85.412500
v 25.920000 38.880000 90.475000
v 25.920000 38.880000 89.462500
v 25.920000 38.880000 91.487500
v 25.920000 38.880000 92.500000
v 25.920000 38.880000 93.512500
v 25.920000 38.880000 94.525000
v 25.920000 38.880000 95.537500
v 25.920000 45.360000 86.425000
v 25.920000 45.360000 85.412500
v 25.920000 45.360000 87.437500
v 25.920000 45.360000 88.450000
v 25.920000 45.360000 89.462500
v 32.400000 -45.360000 85.412500
v 32.400000 -45.360000 86.425000
v 32.400000 -38.880000 85.412500
v 32.400000 -45.360000 87.437500
v 32.400000 -45.360000 88.450000
v 32.400000 -45.360000 89.462500
v 32.400000 -38.880000 89.462500
v 32.400000 -32.400000 85.412500
v 32.400000 -38.880000 90.475000
v 32.400000 -38.880000 91.487500
v 32.400000 -38.880000 92.500000
v 32.400000 -38.880000 93.512500
v 32.400000 -38.880000 94.525000
v 32.400000 -38.880000 95.537500
v 32.400000 -32.400000 95.537500
v 32.400000 -25.920000 85.412500
v 32.400000 -32.400000 96.550000
v 32.400000 -25.920000 96.550000
v 32.400000 -25.920000 95.537500
v 32.400000 -32.400000 97.562500
v 32.400000 -25.920000 97.562500
v 32.400000 -32.400000 98.575000
v 32.400000 -25.920000 98.575000
v 32.400000 -32.400000 99.587500
v 32.400000 -25.920000 99.587500
v 32.400000 -19.440000 85.412500
v 32.400000 -19.440000 96.550000
v 32.400000 -19.440000 95.537500
v 32.400000 -19.440000 97.562500
v 32.400000 -19.440000 98.575000
v 32.400000 -19.440000 99.587500
v 32.400000 -12.960000 85.412500
v 32.400000 -12.960000 96.550000
v 32.400000 -12.960000 95.537500
v 32.400000 -12.960000 97.562500
v 32.400000 -12.960000 98.575000
v 32.400000 -12.960000 99.587500
v 32.400000 -6.480000 85.412500
v 32.400000 -6.480000 96.550000
v 32.400000 -6.480000 95.537500
v 32.400000 -6.480000 97.562500
v 32.400000 -6.480000 98.575000
v 32.400000 -6.480000 99.587500
v 32.400000 0.000000 85.412500
v 32.400000 0.000000 96.550000
v 32.400000 0.000000 95.537500
v 32.400000 0.000000 97.562500
v 32.400000 0.000000 98.575000
v 32.400000 0.000000 99.587500
v 32.400000 6.480000 85.412500
v 32.400000 6.480000 96.550000
v 32.400000 6.480000 95.537500
v 32.400000 6.480000 97.562500
v 32.400000 6.480000 98.575000
v 32.400000 6.480000 99.587500
v 32.400000 12.960000 85.412500
v 32.400000 12.960000 96.550000
v 32.400000 12.960000 95.537500
v 32.400000 12.960000 97.562500
v 32.400000 12.960000 98.575000
v 32.400000 12.960000 99.587500
v 32.400000 19.440000 85.412500
v 32.400000 19.440000 96.550000
v 32.400000 19.440000 95.537500
v 32.400000 19.440000 97.562500
v 32.400000 19.440000 98.575000
v 32.400000 19.440000 99.587500
v 32.400000 25.920000 85.412500
v 32.400000 25.920000 96.550000
v 32.400000 25.920000 95.537500
v 32.400000 25.920000 97.562500
v 32.400000 25.920000 98.575000
v 32.400000 25.920000 99.587500
v 32.400000 32.400000 85.412500
v 32.400000 32.400000 96.550000
v 32.400000 32.400000 95.537500
v 32.400000 32.400000 97.562500
v 32.400000 32.400000 98.575000
v 32.400000 32.400000 99.587500
v 32.400000 38.880000 85.412500
v 32.400000 38.880000 90.475000
v 32.400000 38.880000 89.462500
v 32.400000 38.880000 91.487500
v 32.400000 38.880000 92.500000
v 32.400000 38.880000 93.512500
v 32.400000 38.880000 94.525000
v 32.400000 38.880000 95.537500
v 32.400000 45.360000 86.425000
v 32.400000 45.360000 85.412500
v 32.400000 45.360000 87.437500
v 32.400000 45.360000 88.450000
v 32.400000 45.360000 89.462500
v 38.880000 -45.360000 85.412500
v 38.880000 -45.360000 86.425000
v 38.880000 -38.880000 85.412500
v 38.880000 -45.360000 87.437500
v 38.880000 -45.360000 88.450000
v 38.880000 -45.360000 89.462500
v 38.880000 -38.880000 89.462500
v 38.880000 -32.400000 85.412500
v 38.880000 -38.880000 90.475000
v 38.880000 -32.400000 90.475000
v 38.880000 -32.400000 89.462500
v 38.880000 -38.880000 91.487500
v 38.880000 -32.400000 91.487500
v 38.880000 -38.880000 92.500000
v 38.880000 -32.400000 92.500000
v 38.880000 -38.880000 93.512500
v 38.880000 -32.400000 93.512500
v 38.880000 -38.880000 94.525000
v 38.880000 -32.400000 94.525000
v 38.880000 -38.880000 95.537500
v 38.880000 -32.400000 95.537500
v 38.880000 -25.920000 85.412500
v 38.880000 -25.920000 90.475000
v 38.880000 -25.920000 89.462500
v 38.880000 -25.920000 91.487500
v 38.880000 -25.920000 92.500000
v 38.880000 -25.920000 93.512500
v 38.880000 -25.920000 94.525000
v 38.880000 -25.920000 95.537500
v 38.880000 -19.440000 85.412500
v 38.880000 -19.440000 90.475000
v 38.880000 -19.440000 89.462500
v 38.880000 -19.440000 91.487500
v 38.880000 -19.440000 92.500000
v 38.880000 -19.440000 93.512500
v 38.880000 -19.440000 94.525000
v 38.880000 -19.440000 95.537500
v 38.880000 -12.960000 85.412500
v 38.880000 -12.960000 90.475000
v 38.880000 -12.960000 89.462500
v 38.880000 -12.960000 91.487500
v 38.880000 -12.960000 92.500000
v 38.880000 -12.960000 93.512500
v 38.880000 -12.960000 94.525000
v 38.880000 -12.960000 95.537500
v 38.880000 -6.480000 85.412500
v 38.880000 -6.480000 90.475000
v 38.880000 -6.480000 89.462500
v 38.880000 -6.480000 91.487500
v 38.880000 -6.480000 92.500000
v 38.880000 -6.480000 93.512500
v 38.880000 -6.480000 94.525000
v 38.880000 -6.480000 95.537500
v 38.880000 0.000000 85.412500
v 38.880000 0.000000 90.475000
v 38.880000 0.000000 89.462500
v 38.880000 0.000000 91.487500
v 38.880000 0.000000 92.500000
v 38.880000 0.000000 93.512500
v 38.880000 0.000000 94.525000
v 38.880000 0.000000 95.537500
v 38.880000 6.480000 85.412500
v 38.880000 6.480000 90.475000
v 38.880000 6.480000 89.462500
v 38.880000 6.480000 91.487500
v 38.880000 6.480000 92.500000
v 38.880000 6.480000 93.512500
v 38.880000 6.480000 94.525000
v 38.880000 6.480000 95.537500
v 38.880000 12.960000 85.412500
v 38.880000 12.960000 90.475000
v 38.880000 12.960000 89.462500
v 38.880000 12.960000 91.487500
v 38.880000 12.960000 92.500000
v 38.880000 12.960000 93.512500
v 38.880000 12.960000 94.525000
v 38.880000 12.960000 95.537500
v 38.880000 19.440000 85.412500
v 38.880000 19.440000 90.475000
v 38.880000 19.440000 89.462500
v 38.880000 19.440000 91.487500
v 38.880000 19.440000 92.500000
v 38.880000 19.440000 93.512500
v 38.880000 19.440000 94.525000
v 38.880000 19.440000 95.537500
v 38.880000 25.920000 85.412500
v 38.880000 25.920000 90.475000
v 38.880000 25.920000 89.462500
v 38.880000 25.920000 91.487500
v 38.880000 25.920000 92.500000
v 38.880000 25.920000 93.512500
v 38.880000 25.920000 94.525000
v 38.880000 25.920000 95.537500
v 38.880000 32.400000 85.412500
v 38.880000 32.400000 90.475000
v 38.880000 32.400000 89.462500
v 38.880000 32.400000 91.487500
v 38.880000 32.400000 92.500000
v 38.880000 32.400000 93.512500
v 38.880000 32.400000 94.525000
v 38.880000 32.400000 95.537500
v 38.880000 38.880000 85.412500
v 38.880000 38.880000 90.475000
v 38.880000 38.880000 89.462500
v 38.880000 38.880000 91.487500
v 38.880000 38.880000 92.500000
v 38.880000 38.880000 93.512500
v 38.880000 38.880000 94.525000
v 38.880000 38.880000 95.537500
v 38.880000 45.360000 86.425000
v 38.880000 45.360000 85.412500
v 38.880000 45.360000 87.437500
v 38.880000 45.360000 88.450000
v 38.880000 45.360000 89.462500
v 45.360000 -45.360000 85.412500
v 45.360000 -45.360000 86.425000
v 45.360000 -38.880000 86.425000
v 45.360000 -38.880000 85.412500
v 45.360000 -45.360000 87.437500
v 45.360000 -38.880000 87.437500
v 45.360000 -45.360000 88.450000
v 45.360000 -38.880000 88.450000
v 45.360000 -45.360000 89.462500
v 45.360000 -38.880000 89.462500
v 45.360000 -32.400000 86.425000
v 45.360000 -32.400000 85.412500
v 45.360000 -32.400000 87.437500
v 45.360000 -32.400000 88.450000
v 45.360000 -32.400000 89.462500
v 45.360000 -25.920000 86.425000
v 45.360000 -25.920000 85.412500
v 45.360000 -25.920000 87.437500
v 45.360000 -25.920000 88.450000
v 45.360000 -25.920000 89.462500
v 45.360000 -19.440000 86.425000
v 45.360000 -19.440000 85.412500
v 45.360000 -19.440000 87.437500
v 45.360000 -19.440000 88.450000
v 45.360000 -19.440000 89.462500
v 45.360000 -12.960000 86.425000
v 45.360000 -12.960000 85.412500
v 45.360000 -12.960000 87.437500
v 45.360000 -12.960000 88.450000
v 45.360000 -12.960000 89.462500
v 45.360000 -6.480000 86.425000
v 45.360000 -6.480000 85.412500
v 45.360000 -6.480000 87.437500
v 45.360000 -6.480000 88.450000
v 45.360000 -6.480000 89.462500
v 45.360000 0.000000 86.425000
v 45.360000 0.000000 85.412500
v 45.360000 0.000000 87.437500
v 45.360000 0.000000 88.450000
v 45.360000 0.000000 89.462500
v 45.360000 6.480000 86.425000
v 45.360000 6.480000 85.412500
v 45.360000 6.480000 87.437500
v 45.360000 6.480000 88.450000
v 45.360000 6.480000 89.462500
v 45.360000 12.960000 86.425000
v 45.360000 12.960000 85.412500
v 45.360000 12.960000 87.437500
v 45.360000 12.960000 88.450000
v 45.360000 12.960000 89.462500
v 45.360000 19.440000 86.425000
v 45.360000 19.440000 85.412500
v 45.360000 19.440000 87.437500
v 45.360000 19.440000 88.450000
v 45.360000 19.440000 89.462500
v 45.360000 25.920000 86.425000
v 45.360000 25.920000 85.412500
v 45.360000 25.920000 87.437500
v 45.360000 25.920000 88.450000
v 45.360000 25.920000 89.462500
v 45.360000 32.400000 86.425000
v 45.360000 32.400000 85.412500
v 45.360000 32.400000 87.437500
v 45.360000 32.400000 88.450000
v 45.360000 32.400000 89.462500
v 45.360000 38.880000 86.425000
v 45.360000 38.880000 85.412500
v 45.360000 38.880000 87.437500
v 45.360000 38.880000 88.450000
v 45.360000 38.880000 89.462500
v 45.360000 45.360000 86.425000
v 45.360000 45.360000 85.412500
v 45.360000 45.360000 87.437500
v 45.360000 45.360000 88.450000
v 45.360000 45.360000 89.462500
f 1 2 3
f 1 3 4
f 1 5 6
f 1 6 4
f 1 2 7
f 1 7 5
f 4 3 8
f 4 8 9
f 4 6 10
f 4 10 9
f 9 8 11
f 9 11 12
f 9 10 13
f 9 13 12
f 12 11 14
f 12 14 15
f 12 13 16
f 12 16 15
f 15 16 17
f 15 17 14
f 2 18 19
f 2 19 3
f 2 18 20
f 2 20 7
f 3 19 21
f 3 21 8
f 8 21 22
f 8 22 11
f 11 22 23
f 11 23 14
f 14 17 24
f 14 24 23
f 18 25 26
f 18 26 19
f 18 25 27
f 18 27 20
f 19 26 28
f 19 28 21
f 21 28 29
f 21 29 22
f 22 29 30
f 22 30 23
f 23 24 31
f 23 31 30
f 25 32 33
f 25 33 26
f 25 32 34
f 25 34 27
f 26 33 35
f 26 35 28
f 28 35 36
f 28 36 29
f 29 36 37
f 29 37 30
f 30 31 38
f 30 38 37
f 32 39 40
f 32 40 33
f 32 39 41
f 32 41 34
f 33 40 42
f 33 42 35
f 35 42 43
f 35 43 36
f 36 43 44
f 36 44 37
f 37 38 45
f 37 45 44
f 39 46 47
f 39 47 40
f 39 46 48
f 39 48 41
f 40 47 49
f 40 49 42
f 42 49 50
f 42 50 43
f 43 50 51
f 43 51 44
f 44 45 52
f 44 52 51
f 46 53 54
f 46 54 47
f 46 53 55
f 46 55 48
f 47 54 56
f 47 56 49
f 49 56 57
f 49 57 50
f 50 57 58
f 50 58 51
f 51 52 59
f 51 59 58
f 53 60 61
f 53 61 54
f 53 60 62
f 53 62 55
f 54 61 63
f 54 63 56
f 56 63 64
f 56 64 57
f 57 64 65
f 57 65 58
f 58 59 66
f 58 66 65
f 60 67 68
f 60 68 61
f 60 67 69
f 60 69 62
f 61 68 70
f 61 70 63
f 63 70 71
f 63 71 64
f 64 71 72
f 64 72 65
f 65 66 73
f 65 73 72
f 67 74 75
f 67 75 68
f 67 74 76
f 67 76 69
f 68 75 77
f 68 77 70
f 70 77 78
f 70 78 71
f 71 78 79
f 71 79 72
f 72 73 80
f 72 80 79
f 74 81 82
f 74 82 75
f 74 81 83
f 74 83 76
f 75 82 84
f 75 84 77
f 77 84 85
f 77 85 78
f 78 85 86
f 78 86 79
f 79 80 87
f 79 87 86
f 81 88 89
f 81 89 82
f 81 88 90
f 81 90 83
f 82 89 91
f 82 91 84
f 84 91 92
f 84 92 85
f 85 92 93
f 85 93 86
f 86 87 94
f 86 94 93
f 88 95 96
f 88 96 89
f 88 95 97
f 88 97 90
f 89 96 98
f 89 98 91
f 91 98 99
f 91 99 92
f 92 99 100
f 92 100 93
f 93 94 101
f 93 101 100
f 95 102 103
f 95 103 96
f 102 103 104
f 102 104 105
f 95 102 105
f 95 105 97
f 96 103 106
f 96 106 98
f 103 106 107
f 103 107 104
f 98 106 108
f 98 108 99
f 106 108 109
f 106 109 107
f 99 108 110
f 99 110 100
f 108 110 111
f 108 111 109
f 100 101 111
f 100 111 110
f 5 112 113
f 5 113 6
f 5 7 114
f 5 114 112
f 6 113 115
f 6 115 10
f 10 115 116
f 10 116 13
f 13 116 117
f 13 117 16
f 16 117 118
f 16 118 17
f 7 20 119
f 7 119 114
f 17 24 120
f 17 120 121
f 17 118 122
f 17 122 121
f 121 120 123
f 121 123 124
f 121 122 125
f 121 125 124
f 124 123 126
f 124 126 127
f 124 125 128
f 124 128 127
f 127 126 129
f 127 129 130
f 127 128 131
f 127 131 130
f 130 129 132
f 130 132 133
f 130 131 134
f 130 134 133
f 133 132 135
f 133 135 136
f 133 134 137
f 133 137 136
f 136 137 138
f 136 138 135
f 20 27 139
f 20 139 119
f 24 31 140
f 24 140 120
f 120 140 141
f 120 141 123
f 123 141 142
f 123 142 126
f 126 142 143
f 126 143 129
f 129 143 144
f 129 144 132
f 132 144 145
f 132 145 135
f 135 138 146
f 135 146 145
f 27 34 147
f 27 147 139
f 31 38 148
f 31 148 140
f 140 148 149
f 140 149 141
f 141 149 150
f 141 150 142
f 142 150 151
f 142 151 143
f 143 151 152
f 143 152 144
f 144 152 153
f 144 153 145
f 145 146 154
f 145 154 153
f 34 41 155
f 34 155 147
f 38 45 156
f 38 156 148
f 148 156 157
f 148 157 149
f 149 157 158
f 149 158 150
f 150 158 159
f 150 159 151
f 151 159 160
f 151 160 152
f 152 160 161
f 152 161 153
f 153 154 162
f 153 162 161
f 41 48 163
f 41 163 155
f 45 52 164
f 45 164 156
f 156 164 165
f 156 165 157
f 157 165 166
f 157 166 158
f 158 166 167
f 158 167 159
f 159 167 168
f 159 168 160
f 160 168 169
f 160 169 161
f 161 162 170
f 161 170 169
f 48 55 171
f 48 171 163
f 52 59 172
f 52 172 164
f 164 172 173
f 164 173 165
f 165 173 174
f 165 174 166
f 166 174 175
f 166 175 167
f 167 175 176
f 167 176 168
f 168 176 177
f 168 177 169
f 169 170 178
f 169 178 177
f 55 62 179
f 55 179 171
f 59 66 180
f 59 180 172
f 172 180 181
f 172 181 173
f 173 181 182
f 173 182 174
f 174 182 183
f 174 183 175
f 175 183 184
f 175 184 176
f 176 184 185
f 176 185 177
f 177 178 186
f 177 186 185
f 62 69 187
f 62 187 179
f 66 73 188
f 66 188 180
f 180 188 189
f 180 189 181
f 181 189 190
f 181 190 182
f 182 190 191
f 182 191 183
f 183 191 192
f 183 192 184
f 184 192 193
f 184 193 185
f 185 186 194
f 185 194 193
f 69 76 195
f 69 195 187
f 73 80 196
f 73 196 188
f 188 196 197
f 188 197 189
f 189 197 198
f 189 198 190
f 190 198 199
f 190 199 191
f 191 199 200
f 191 200 192
f 192 200 201
f 192 201 193
f 193 194 202
f 193 202 201
f 76 83 203
f 76 203 195
f 80 87 204
f 80 204 196
f 196 204 205
f 196 205 197
f 197 205 206
f 197 206 198
f 198 206 207
f 198 207 199
f 199 207 208
f 199 208 200
f 200 208 209
f 200 209 201
f 201 202 210
f 201 210 209
f 83 90 211
f 83 211 203
f 87 94 212
f 87 212 204
f 204 212 213
f 204 213 205
f 205 213 214
f 205 214 206
f 206 214 215
f 206 215 207
f 207 215 216
f 207 216 208
f 208 216 217
f 208 217 209
f 209 210 218
f 209 218 217
f 90 97 219
f 90 219 211
f 94 101 220
f 94 220 212
f 101 220 221
f 101 221 222
f 212 220 223
f 212 223 213
f 220 223 224
f 220 224 221
f 213 223 225
f 213 225 214
f 223 225 226
f 223 226 224
f 214 225 227
f 214 227 215
f 225 227 228
f 225 228 226
f 215 227 229
f 215 229 216
f 227 229 230
f 227 230 228
f 216 229 231
f 216 231 217
f 229 231 232
f 229 232 230
f 217 218 232
f 217 232 231
f 105 104 233
f 105 233 234
f 97 105 234
f 97 234 219
f 104 107 235
f 104 235 233
f 107 109 236
f 107 236 235
f 109 111 237
f 109 237 236
f 101 222 237
f 101 237 111
f 112 238 239
f 112 239 113
f 112 114 240
f 112 240 238
f 113 239 241
f 113 241 115
f 115 241 242
f 115 242 116
f 116 242 243
f 116 243 117
f 117 243 244
f 117 244 118
f 114 119 245
f 114 245 240
f 118 244 246
f 118 246 122
f 122 246 247
f 122 247 125
f 125 247 248
f 125 248 128
f 128 248 249
f 128 249 131
f 131 249 250
f 131 250 134
f 134 250 251
f 134 251 137
f 137 251 252
f 137 252 138
f 119 139 253
f 119 253 245
f 138 146 254
f 138 254 255
f 138 252 256
f 138 256 255
f 255 254 257
f 255 257 258
f 255 256 259
f 255 259 258
f 258 257 260
f 258 260 261
f 258 259 262
f 258 262 261
f 261 260 263
f 261 263 264
f 261 262 265
f 261 265 264
f 264 265 266
f 264 266 263
f 139 147 267
f 139 267 253
f 146 154 268
f 146 268 254
f 254 268 269
f 254 269 257
f 257 269 270
f 257 270 260
f 260 270 271
f 260 271 263
f 263 266 272
f 263 272 271
f 147 155 273
f 147 273 267
f 154 162 274
f 154 274 268
f 268 274 275
f 268 275 269
f 269 275 276
f 269 276 270
f 270 276 277
f 270 277 271
f 271 272 278
f 271 278 277
f 155 163 279
f 155 279 273
f 162 170 280
f 162 280 274
f 274 280 281
f 274 281 275
f 275 281 282
f 275 282 276
f 276 282 283
f 276 283 277
f 277 278 284
f 277 284 283
f 163 171 285
f 163 285 279
f 170 178 286
f 170 286 280
f 280 286 287
f 280 287 281
f 281 287 288
f 281 288 282
f 282 288 289
f 282 289 283
f 283 284 290
f 283 290 289
f 171 179 291
f 171 291 285
f 178 186 292
f 178 292 286
f 286 292 293
f 286 293 287
f 287 293 294
f 287 294 288
f 288 294 295
f 288 295 289
f 289 290 296
f 289 296 295
f 179 187 297
f 179 297 291
f 186 194 298
f 186 298 292
f 292 298 299
f 292 299 293
f 293 299 300
f 293 300 294
f 294 300 301
f 294 301 295
f 295 296 302
f 295 302 301
f 187 195 303
f 187 303 297
f 194 202 304
f 194 304 298
f 298 304 305
f 298 305 299
f 299 305 306
f 299 306 300
f 300 306 307
f 300 307 301
f 301 302 308
f 301 308 307
f 195 203 309
f 195 309 303
f 202 210 310
f 202 310 304
f 304 310 311
f 304 311 305
f 305 311 312
f 305 312 306
f 306 312 313
f 306 313 307
f 307 308 314
f 307 314 313
f 203 211 315
f 203 315 309
f 210 218 316
f 210 316 310
f 218 316 317
f 218 317 318
f 310 316 319
f 310 319 311
f 316 319 320
f 316 320 317
f 311 319 321
f 311 321 312
f 319 321 322
f 319 322 320
f 312 321 323
f 312 323 313
f 321 323 324
f 321 324 322
f 313 314 324
f 313 324 323
f 211 219 325
f 211 325 315
f 222 221 326
f 222 326 327
f 221 224 328
f 221 328 326
f 224 226 329
f 224 329 328
f 226 228 330
f 226 330 329
f 228 230 331
f 228 331 330
f 230 232 332
f 230 332 331
f 218 318 332
f 218 332 232
f 234 233 333
f 234 333 334
f 219 234 334
f 219 334 325
f 233 235 335
f 233 335 333
f 235 236 336
f 235 336 335
f 236 237 337
f 236 337 336
f 222 327 337
f 222 337 237
f 238 338 339
f 238 339 239
f 238 240 340
f 238 340 338
f 239 339 341
f 239 341 241
f 241 341 342
f 241 342 242
f 242 342 343
f 242 343 243
f 243 343 344
f 243 344 244
f 240 245 345
f 240 345 340
f 244 344 346
f 244 346 246
f 246 346 347
f 246 347 247
f 247 347 348
f 247 348 248
f 248 348 349
f 248 349 249
f 249 349 350
f 249 350 250
f 250 350 351
f 250 351 251
f 251 351 352
f 251 352 252
f 245 253 353
f 245 353 345
f 252 352 354
f 252 354 256
f 256 354 355
f 256 355 259
f 259 355 356
f 259 356 262
f 262 356 357
f 262 357 265
f 265 357 358
f 265 358 266
f 253 267 359
f 253 359 353
f 266 358 360
f 266 360 272
f 267 273 361
f 267 361 359
f 272 360 362
f 272 362 278
f 273 279 363
f 273 363 361
f 278 362 364
f 278 364 284
f 279 285 365
f 279 365 363
f 284 364 366
f 284 366 290
f 285 291 367
f 285 367 365
f 290 366 368
f 290 368 296
f 291 297 369
f 291 369 367
f 296 368 370
f 296 370 302
f 297 303 371
f 297 371 369
f 302 370 372
f 302 372 308
f 303 309 373
f 303 373 371
f 308 372 374
f 308 374 314
f 309 315 375
f 309 375 373
f 318 317 376
f 318 376 377
f 317 320 378
f 317 378 376
f 320 322 379
f 320 379 378
f 322 324 380
f 322 380 379
f 314 374 380
f 314 380 324
f 315 325 381
f 315 381 375
f 327 326 382
f 327 382 383
f 326 328 384
f 326 384 382
f 328 329 385
f 328 385 384
f 329 330 386
f 329 386 385
f 330 331 387
f 330 387 386
f 331 332 388
f 331 388 387
f 318 377 388
f 318 388 332
f 334 333 389
f 334 389 390
f 325 334 390
f 325 390 381
f 333 335 391
f 333 391 389
f 335 336 392
f 335 392 391
f 336 337 393
f 336 393 392
f 327 383 393
f 327 393 337
f 338 394 395
f 338 395 339
f 338 340 396
f 338 396 394
f 339 395 397
f 339 397 341
f 341 397 398
f 341 398 342
f 342 398 399
f 342 399 343
f 343 399 400
f 343 400 344
f 340 345 401
f 340 401 396
f 344 400 402
f 344 402 346
f 346 402 403
f 346 403 347
f 347 403 404
f 347 404 348
f 348 404 405
f 348 405 349
f 349 405 406
f 349 406 350
f 350 406 407
f 350 407 351
f 351 407 408
f 351 408 352
f 345 353 409
f 345 409 401
f 352 408 410
f 352 410 354
f 354 410 411
f 354 411 355
f 355 411 412
f 355 412 356
f 356 412 413
f 356 413 357
f 357 413 414
f 357 414 358
f 353 359 415
f 353 415 409
f 358 414 416
f 358 416 360
f 359 361 417
f 359 417 415
f 360 416 418
f 360 418 362
f 361 363 419
f 361 419 417
f 362 418 420
f 362 420 364
f 363 365 421
f 363 421 419
f 364 420 422
f 364 422 366
f 365 367 423
f 365 423 421
f 366 422 424
f 366 424 368
f 367 369 425
f 367 425 423
f 368 424 426
f 368 426 370
f 369 371 427
f 369 427 425
f 370 426 428
f 370 428 372
f 371 373 429
f 371 429 427
f 372 428 430
f 372 430 374
f 373 375 431
f 373 431 429
f 377 376 432
f 377 432 433
f 376 378 434
f 376 434 432
f 378 379 435
f 378 435 434
f 379 380 436
f 379 436 435
f 374 430 436
f 374 436 380
f 375 381 437
f 375 437 431
f 383 382 438
f 383 438 439
f 382 384 440
f 382 440 438
f 384 385 441
f 384 441 440
f 385 386 442
f 385 442 441
f 386 387 443
f 386 443 442
f 387 388 444
f 387 444 443
f 377 433 444
f 377 444 388
f 390 389 445
f 390 445 446
f 381 390 446
f 381 446 437
f 389 391 447
f 389 447 445
f 391 392 448
f 391 448 447
f 392 393 449
f 392 449 448
f 383 439 449
f 383 449 393
f 394 450 451
f 394 451 395
f 394 396 452
f 394 452 450
f 395 451 453
f 395 453 397
f 397 453 454
f 397 454 398
f 398 454 455
f 398 455 399
f 399 455 456
f 399 456 400
f 396 401 457
f 396 457 452
f 400 456 458
f 400 458 402
f 402 458 459
f 402 459 403
f 403 459 460
f 403 460 404
f 404 460 461
f 404 461 405
f 405 461 462
f 405 462 406
f 406 462 463
f 406 463 407
f 407 463 464
f 407 464 408
f 401 409 465
f 401 465 457
f 408 464 466
f 408 466 410
f 410 466 467
f 410 467 411
f 411 467 468
f 411 468 412
f 412 468 469
f 412 469 413
f 413 469 470
f 413 470 414
f 409 415 471
f 409 471 465
f 414 470 472
f 414 472 416
f 415 417 473
f 415 473 471
f 416 472 474
f 416 474 418
f 417 419 475
f 417 475 473
f 418 474 476
f 418 476 420
f 419 421 477
f 419 477 475
f 420 476 478
f 420 478 422
f 421 423 479
f 421 479 477
f 422 478 480
f 422 480 424
f 423 425 481
f 423 481 479
f 424 480 482
f 424 482 426
f 425 427 483
f 425 483 481
f 426 482 484
f 426 484 428
f 427 429 485
f 427 485 483
f 428 484 486
f 428 486 430
f 429 431 487
f 429 487 485
f 433 432 488
f 433 488 489
f 432 434 490
f 432 490 488
f 434 435 491
f 434 491 490
f 435 436 492
f 435 492 491
f 430 486 492
f 430 492 436
f 431 437 493
f 431 493 487
f 439 438 494
f 439 494 495
f 438 440 496
f 438 496 494
f 440 441 497
f 440 497 496
f 441 442 498
f 441 498 497
f 442 443 499
f 442 499 498
f 443 444 500
f 443 500 499
f 433 489 500
f 433 500 444
f 446 445 501
f 446 501 502
f 437 446 502
f 437 502 493
f 445 447 503
f 445 503 501
f 447 448 504
f 447 504 503
f 448 449 505
f 448 505 504
f 439 495 505
f 439 505 449
f 450 506 507
f 450 507 451
f 450 452 508
f 450 508 506
f 451 507 509
f 451 509 453
f 453 509 510
f 453 510 454
f 454 510 511
f 454 511 455
f 455 511 512
f 455 512 456
f 452 457 513
f 452 513 508
f 456 512 514
f 456 514 458
f 458 514 515
f 458 515 459
f 459 515 516
f 459 516 460
f 460 516 517
f 460 517 461
f 461 517 518
f 461 518 462
f 462 518 519
f 462 519 463
f 463 519 520
f 463 520 464
f 457 465 521
f 457 521 513
f 464 520 522
f 464 522 466
f 466 522 523
f 466 523 467
f 467 523 524
f 467 524 468
f 468 524 525
f 468 525 469
f 469 525 526
f 469 526 470
f 465 471 527
f 465 527 521
f 470 526 528
f 470 528 472
f 471 473 529
f 471 529 527
f 472 528 530
f 472 530 474
f 473 475 531
f 473 531 529
f 474 530 532
f 474 532 476
f 475 477 533
f 475 533 531
f 476 532 534
f 476 534 478
f 477 479 535
f 477 535 533
f 478 534 536
f 478 536 480
f 479 481 537
f 479 537 535
f 480 536 538
f 480 538 482
f 481 483 539
f 481 539 537
f 482 538 540
f 482 540 484
f 483 485 541
f 483 541 539
f 484 540 542
f 484 542 486
f 485 487 543
f 485 543 541
f 489 488 544
f 489 544 545
f 488 490 546
f 488 546 544
f 490 491 547
f 490 547 546
f 491 492 548
f 491 548 547
f 486 542 548
f 486 548 492
f 487 493 549
f 487 549 543
f 495 494 550
f 495 550 551
f 494 496 552
f 494 552 550
f 496 497 553
f 496 553 552
f 497 498 554
f 497 554 553
f 498 499 555
f 498 555 554
f 499 500 556
f 499 556 555
f 489 545 556
f 489 556 500
f 502 501 557
f 502 557 558
f 493 502 558
f 493 558 549
f 501 503 559
f 501 559 557
f 503 504 560
f 503 560 559
f 504 505 561
f 504 561 560
f 495 551 561
f 495 561 505
f 506 562 563
f 506 563 507
f 506 508 564
f 506 564 562
f 507 563 565
f 507 565 509
f 509 565 566
f 509 566 510
f 510 566 567
f 510 567 511
f 511 567 568
f 511 568 512
f 508 513 569
f 508 569 564
f 512 568 570
f 512 570 514
f 514 570 571
f 514 571 515
f 515 571 572
f 515 572 516
f 516 572 573
f 516 573 517
f 517 573 574
f 517 574 518
f 518 574 575
f 518 575 519
f 519 575 576
f 519 576 520
f 513 521 577
f 513 577 569
f 520 576 578
f 520 578 522
f 522 578 579
f 522 579 523
f 523 579 580
f 523 580 524
f 524 580 581
f 524 581 525
f 525 581 582
f 525 582 526
f 521 527 583
f 521 583 577
f 526 582 584
f 526 584 528
f 527 529 585
f 527 585 583
f 528 584 586
f 528 586 530
f 529 531 587
f 529 587 585
f 530 586 588
f 530 588 532
f 531 533 589
f 531 589 587
f 532 588 590
f 532 590 534
f 533 535 591
f 533 591 589
f 534 590 592
f 534 592 536
f 535 537 593
f 535 593 591
f 536 592 594
f 536 594 538
f 537 539 595
f 537 595 593
f 538 594 596
f 538 596 540
f 539 541 597
f 539 597 595
f 540 596 598
f 540 598 542
f 541 543 599
f 541 599 597
f 545 544 600
f 545 600 601
f 544 546 602
f 544 602 600
f 546 547 603
f 546 603 602
f 547 548 604
f 547 604 603
f 542 598 604
f 542 604 548
f 543 549 605
f 543 605 599
f 551 550 606
f 551 606 607
f 550 552 608
f 550 608 606
f 552 553 609
f 552 609 608
f 553 554 610
f 553 610 609
f 554 555 611
f 554 611 610
f 555 556 612
f 555 612 611
f 545 601 612
f 545 612 556
f 558 557 613
f 558 613 614
f 549 558 614
f 549 614 605
f 557 559 615
f 557 615 613
f 559 560 616
f 559 616 615
f 560 561 617
f 560 617 616
f 551 607 617
f 551 617 561
f 562 618 619
f 562 619 563
f 562 564 620
f 562 620 618
f 563 619 621
f 563 621 565
f 565 621 622
f 565 622 566
f 566 622 623
f 566 623 567
f 567 623 624
f 567 624 568
f 564 569 625
f 564 625 620
f 568 624 626
f 568 626 570
f 570 626 627
f 570 627 571
f 571 627 628
f 571 628 572
f 572 628 629
f 572 629 573
f 573 629 630
f 573 630 574
f 574 630 631
f 574 631 575
f 575 631 632
f 575 632 576
f 569 577 633
f 569 633 625
f 576 632 634
f 576 634 578
f 578 634 635
f 578 635 579
f 579 635 636
f 579 636 580
f 580 636 637
f 580 637 581
f 581 637 638
f 581 638 582
f 577 583 639
f 577 639 633
f 582 638 640
f 582 640 584
f 583 585 641
f 583 641 639
f 584 640 642
f 584 642 586
f 585 587 643
f 585 643 641
f 586 642 644
f 586 644 588
f 587 589 645
f 587 645 643
f 588 644 646
f 588 646 590
f 589 591 647
f 589 647 645
f 590 646 648
f 590 648 592
f 591 593 649
f 591 649 647
f 592 648 650
f 592 650 594
f 593 595 651
f 593 651 649
f 594 650 652
f 594 652 596
f 595 597 653
f 595 653 651
f 596 652 654
f 596 654 598
f 597 599 655
f 597 655 653
f 601 600 656
f 601 656 657
f 600 602 658
f 600 658 656
f 602 603 659
f 602 659 658
f 603 604 660
f 603 660 659
f 598 654 660
f 598 660 604
f 599 605 661
f 599 661 655
f 607 606 662
f 607 662 663
f 606 608 664
f 606 664 662
f 608 609 665
f 608 665 664
f 609 610 666
f 609 666 665
f 610 611 667
f 610 667 666
f 611 612 668
f 611 668 667
f 601 657 668
f 601 668 612
f 614 613 669
f 614 669 670
f 605 614 670
f 605 670 661
f 613 615 671
f 613 671 669
f 615 616 672
f 615 672 671
f 616 617 673
f 616 673 672
f 607 663 673
f 607 673 617
f 618 674 675
f 618 675 619
f 618 620 676
f 618 676 674
f 619 675 677
f 619 677 621
f 621 677 678
f 621 678 622
f 622 678 679
f 622 679 623
f 623 679 680
f 623 680 624
f 620 625 681
f 620 681 676
f 624 680 682
f 624 682 626
f 626 682 683
f 626 683 627
f 627 683 684
f 627 684 628
f 628 684 685
f 628 685 629
f 629 685 686
f 629 686 630
f 630 686 687
f 630 687 631
f 631 687 688
f 631 688 632
f 625 633 689
f 625 689 681
f 632 688 690
f 632 690 634
f 634 690 691
f 634 691 635
f 635 691 692
f 635 692 636
f 636 692 693
f 636 693 637
f 637 693 694
f 637 694 638
f 633 639 695
f 633 695 689
f 638 694 696
f 638 696 640
f 639 641 697
f 639 697 695
f 640 696 698
f 640 698 642
f 641 643 699
f 641 699 697
f 642 698 700
f 642 700 644
f 643 645 701
f 643 701 699
f 644 700 702
f 644 702 646
f 645 647 703
f 645 703 701
f 646 702 704
f 646 704 648
f 647 649 705
f 647 705 703
f 648 704 706
f 648 706 650
f 649 651 707
f 649 707 705
f 650 706 708
f 650 708 652
f 651 653 709
f 651 709 707
f 652 708 710
f 652 710 654
f 653 655 711
f 653 711 709
f 657 656 712
f 657 712 713
f 656 658 714
f 656 714 712
f 658 659 715
f 658 715 714
f 659 660 716
f 659 716 715
f 654 710 716
f 654 716 660
f 655 661 717
f 655 717 711
f 663 662 718
f 663 718 719
f 662 664 720
f 662 720 718
f 664 665 721
f 664 721 720
f 665 666 722
f 665 722 721
f 666 667 723
f 666 723 722
f 667 668 724
f 667 724 723
f 657 713 724
f 657 724 668
f 670 669 725
f 670 725 726
f 661 670 726
f 661 726 717
f 669 671 727
f 669 727 725
f 671 672 728
f 671 728 727
f 672 673 729
f 672 729 728
f 663 719 729
f 663 729 673
f 674 730 731
f 674 731 675
f 674 676 732
f 674 732 730
f 675 731 733
f 675 733 677
f 677 733 734
f 677 734 678
f 678 734 735
f 678 735 679
f 679 735 736
f 679 736 680
f 676 681 737
f 676 737 732
f 680 736 738
f 680 738 682
f 682 738 739
f 682 739 683
f 683 739 740
f 683 740 684
f 684 740 741
f 684 741 685
f 685 741 742
f 685 742 686
f 686 742 743
f 686 743 687
f 687 743 744
f 687 744 688
f 681 689 745
f 681 745 737
f 688 744 746
f 688 746 690
f 690 746 747
f 690 747 691
f 691 747 748
f 691 748 692
f 692 748 749
f 692 749 693
f 693 749 750
f 693 750 694
f 689 695 751
f 689 751 745
f 694 750 752
f 694 752 696
f 695 697 753
f 695 753 751
f 696 752 754
f 696 754 698
f 697 699 755
f 697 755 753
f 698 754 756
f 698 756 700
f 699 701 757
f 699 757 755
f 700 756 758
f 700 758 702
f 701 703 759
f 701 759 757
f 702 758 760
f 702 760 704
f 703 705 761
f 703 761 759
f 704 760 762
f 704 762 706
f 705 707 763
f 705 763 761
f 706 762 764
f 706 764 708
f 707 709 765
f 707 765 763
f 708 764 766
f 708 766 710
f 709 711 767
f 709 767 765
f 713 712 768
f 713 768 769
f 712 714 770
f 712 770 768
f 714 715 771
f 714 771 770
f 715 716 772
f 715 772 771
f 710 766 772
f 710 772 716
f 711 717 773
f 711 773 767
f 719 718 774
f 719 774 775
f 718 720 776
f 718 776 774
f 720 721 777
f 720 777 776
f 721 722 778
f 721 778 777
f 722 723 779
f 722 779 778
f 723 724 780
f 723 780 779
f 713 769 780
f 713 780 724
f 726 725 781
f 726 781 782
f 717 726 782
f 717 782 773
f 725 727 783
f 725 783 781
f 727 728 784
f 727 784 783
f 728 729 785
f 728 785 784
f 719 775 785
f 719 785 729
f 730 786 787
f 730 787 731
f 730 732 788
f 730 788 786
f 731 787 789
f 731 789 733
f 733 789 790
f 733 790 734
f 734 790 791
f 734 791 735
f 735 791 792
f 735 792 736
f 732 737 793
f 732 793 788
f 736 792 794
f 736 794 738
f 738 794 795
f 738 795 739
f 739 795 796
f 739 796 740
f 740 796 797
f 740 797 741
f 741 797 798
f 741 798 742
f 742 798 799
f 742 799 743
f 743 799 800
f 743 800 744
f 737 745 801
f 737 801 793
f 800 802 803
f 800 803 804
f 744 800 802
f 744 802 746
f 802 805 806
f 802 806 803
f 746 802 805
f 746 805 747
f 805 807 808
f 805 808 806
f 747 805 807
f 747 807 748
f 807 809 810
f 807 810 808
f 748 807 809
f 748 809 749
f 749 809 810
f 749 810 750
f 745 751 811
f 745 811 801
f 804 803 812
f 804 812 813
f 803 806 814
f 803 814 812
f 806 808 815
f 806 815 814
f 808 810 816
f 808 816 815
f 750 810 816
f 750 816 752
f 751 753 817
f 751 817 811
f 813 812 818
f 813 818 819
f 812 814 820
f 812 820 818
f 814 815 821
f 814 821 820
f 815 816 822
f 815 822 821
f 752 816 822
f 752 822 754
f 753 755 823
f 753 823 817
f 819 818 824
f 819 824 825
f 818 820 826
f 818 826 824
f 820 821 827
f 820 827 826
f 821 822 828
f 821 828 827
f 754 822 828
f 754 828 756
f 755 757 829
f 755 829 823
f 825 824 830
f 825 830 831
f 824 826 832
f 824 832 830
f 826 827 833
f 826 833 832
f 827 828 834
f 827 834 833
f 756 828 834
f 756 834 758
f 757 759 835
f 757 835 829
f 831 830 836
f 831 836 837
f 830 832 838
f 830 838 836
f 832 833 839
f 832 839 838
f 833 834 840
f 833 840 839
f 758 834 840
f 758 840 760
f 759 761 841
f 759 841 835
f 837 836 842
f 837 842 843
f 836 838 844
f 836 844 842
f 838 839 845
f 838 845 844
f 839 840 846
f 839 846 845
f 760 840 846
f 760 846 762
f 761 763 847
f 761 847 841
f 843 842 848
f 843 848 849
f 842 844 850
f 842 850 848
f 844 845 851
f 844 851 850
f 845 846 852
f 845 852 851
f 762 846 852
f 762 852 764
f 763 765 853
f 763 853 847
f 849 848 854
f 849 854 855
f 848 850 856
f 848 856 854
f 850 851 857
f 850 857 856
f 851 852 858
f 851 858 857
f 764 852 858
f 764 858 766
f 765 767 859
f 765 859 853
f 855 854 860
f 855 860 861
f 769 768 860
f 769 860 861
f 854 856 862
f 854 862 860
f 768 770 862
f 768 862 860
f 856 857 863
f 856 863 862
f 770 771 863
f 770 863 862
f 857 858 864
f 857 864 863
f 771 772 864
f 771 864 863
f 766 858 864
f 766 864 772
f 767 773 865
f 767 865 859
f 775 774 866
f 775 866 867
f 774 776 868
f 774 868 866
f 776 777 869
f 776 869 868
f 777 778 870
f 777 870 869
f 778 779 871
f 778 871 870
f 779 780 872
f 779 872 871
f 769 861 872
f 769 872 780
f 782 781 873
f 782 873 874
f 773 782 874
f 773 874 865
f 781 783 875
f 781 875 873
f 783 784 876
f 783 876 875
f 784 785 877
f 784 877 876
f 775 867 877
f 775 877 785
f 786 878 879
f 786 879 787
f 786 788 880
f 786 880 878
f 787 879 881
f 787 881 789
f 789 881 882
f 789 882 790
f 790 882 883
f 790 883 791
f 791 883 884
f 791 884 792
f 788 793 885
f 788 885 880
f 884 886 887
f 884 887 888
f 792 884 886
f 792 886 794
f 886 889 890
f 886 890 887
f 794 886 889
f 794 889 795
f 889 891 892
f 889 892 890
f 795 889 891
f 795 891 796
f 891 893 894
f 891 894 892
f 796 891 893
f 796 893 797
f 893 895 896
f 893 896 894
f 797 893 895
f 797 895 798
f 895 897 898
f 895 898 896
f 798 895 897
f 798 897 799
f 799 897 898
f 799 898 800
f 793 801 899
f 793 899 885
f 888 887 900
f 888 900 901
f 887 890 902
f 887 902 900
f 890 892 903
f 890 903 902
f 892 894 904
f 892 904 903
f 894 896 905
f 894 905 904
f 896 898 906
f 896 906 905
f 800 898 906
f 800 906 804
f 801 811 907
f 801 907 899
f 901 900 908
f 901 908 909
f 900 902 910
f 900 910 908
f 902 903 911
f 902 911 910
f 903 904 912
f 903 912 911
f 904 905 913
f 904 913 912
f 905 906 914
f 905 914 913
f 804 906 914
f 804 914 813
f 811 817 915
f 811 915 907
f 909 908 916
f 909 916 917
f 908 910 918
f 908 918 916
f 910 911 919
f 910 919 918
f 911 912 920
f 911 920 919
f 912 913 921
f 912 921 920
f 913 914 922
f 913 922 921
f 813 914 922
f 813 922 819
f 817 823 923
f 817 923 915
f 917 916 924
f 917 924 925
f 916 918 926
f 916 926 924
f 918 919 927
f 918 927 926
f 919 920 928
f 919 928 927
f 920 921 929
f 920 929 928
f 921 922 930
f 921 930 929
f 819 922 930
f 819 930 825
f 823 829 931
f 823 931 923
f 925 924 932
f 925 932 933
f 924 926 934
f 924 934 932
f 926 927 935
f 926 935 934
f 927 928 936
f 927 936 935
f 928 929 937
f 928 937 936
f 929 930 938
f 929 938 937
f 825 930 938
f 825 938 831
f 829 835 939
f 829 939 931
f 933 932 940
f 933 940 941
f 932 934 942
f 932 942 940
f 934 935 943
f 934 943 942
f 935 936 944
f 935 944 943
f 936 937 945
f 936 945 944
f 937 938 946
f 937 946 945
f 831 938 946
f 831 946 837
f 835 841 947
f 835 947 939
f 941 940 948
f 941 948 949
f 940 942 950
f 940 950 948
f 942 943 951
f 942 951 950
f 943 944 952
f 943 952 951
f 944 945 953
f 944 953 952
f 945 946 954
f 945 954 953
f 837 946 954
f 837 954 843
f 841 847 955
f 841 955 947
f 949 948 956
f 949 956 957
f 948 950 958
f 948 958 956
f 950 951 959
f 950 959 958
f 951 952 960
f 951 960 959
f 952 953 961
f 952 961 960
f 953 954 962
f 953 962 961
f 843 954 962
f 843 962 849
f 847 853 963
f 847 963 955
f 957 956 964
f 957 964 965
f 956 958 966
f 956 966 964
f 958 959 967
f 958 967 966
f 959 960 968
f 959 968 967
f 960 961 969
f 960 969 968
f 961 962 970
f 961 970 969
f 849 962 970
f 849 970 855
f 853 859 971
f 853 971 963
f 965 964 972
f 965 972 973
f 964 966 974
f 964 974 972
f 966 967 975
f 966 975 974
f 967 968 976
f 967 976 975
f 968 969 977
f 968 977 976
f 969 970 978
f 969 978 977
f 855 970 978
f 855 978 861
f 859 865 979
f 859 979 971
f 973 972 980
f 973 980 981
f 867 866 980
f 867 980 981
f 972 974 982
f 972 982 980
f 866 868 982
f 866 982 980
f 974 975 983
f 974 983 982
f 868 869 983
f 868 983 982
f 975 976 984
f 975 984 983
f 869 870 984
f 869 984 983
f 976 977 985
f 976 985 984
f 870 871 985
f 870 985 984
f 977 978 986
f 977 986 985
f 871 872 986
f 871 986 985
f 861 978 986
f 861 986 872
f 874 873 987
f 874 987 988
f 865 874 988
f 865 988 979
f 873 875 989
f 873 989 987
f 875 876 990
f 875 990 989
f 876 877 991
f 876 991 990
f 867 981 991
f 867 991 877
f 992 993 994
f 992 994 995
f 878 992 993
f 878 993 879
f 878 880 995
f 878 995 992
f 993 996 997
f 993 997 994
f 879 993 996
f 879 996 881
f 996 998 999
f 996 999 997
f 881 996 998
f 881 998 882
f 998 1000 1001
f 998 1001 999
f 882 998 1000
f 882 1000 883
f 883 1000 1001
f 883 1001 884
f 995 994 1002
f 995 1002 1003
f 880 885 1003
f 880 1003 995
f 994 997 1004
f 994 1004 1002
f 997 999 1005
f 997 1005 1004
f 999 1001 1006
f 999 1006 1005
f 884 1001 1006
f 884 1006 888
f 1003 1002 1007
f 1003 1007 1008
f 885 899 1008
f 885 1008 1003
f 1002 1004 1009
f 1002 1009 1007
f 1004 1005 1010
f 1004 1010 1009
f 1005 1006 1011
f 1005 1011 1010
f 888 1006 1011
f 888 1011 901
f 1008 1007 1012
f 1008 1012 1013
f 899 907 1013
f 899 1013 1008
f 1007 1009 1014
f 1007 1014 1012
f 1009 1010 1015
f 1009 1015 1014
f 1010 1011 1016
f 1010 1016 1015
f 901 1011 1016
f 901 1016 909
f 1013 1012 1017
f 1013 1017 1018
f 907 915 1018
f 907 1018 1013
f 1012 1014 1019
f 1012 1019 1017
f 1014 1015 1020
f 1014 1020 1019
f 1015 1016 1021
f 1015 1021 1020
f 909 1016 1021
f 909 1021 917
f 1018 1017 1022
f 1018 1022 1023
f 915 923 1023
f 915 1023 1018
f 1017 1019 1024
f 1017 1024 1022
f 1019 1020 1025
f 1019 1025 1024
f 1020 1021 1026
f 1020 1026 1025
f 917 1021 1026
f 917 1026 925
f 1023 1022 1027
f 1023 1027 1028
f 923 931 1028
f 923 1028 1023
f 1022 1024 1029
f 1022 1029 1027
f 1024 1025 1030
f 1024 1030 1029
f 1025 1026 1031
f 1025 1031 1030
f 925 1026 1031
f 925 1031 933
f 1028 1027 1032
f 1028 1032 1033
f 931 939 1033
f 931 1033 1028
f 1027 1029 1034
f 1027 1034 1032
f 1029 1030 1035
f 1029 1035 1034
f 1030 1031 1036
f 1030 1036 1035
f 933 1031 1036
f 933 1036 941
f 1033 1032 1037
f 1033 1037 1038
f 939 947 1038
f 939 1038 1033
f 1032 1034 1039
f 1032 1039 1037
f 1034 1035 1040
f 1034 1040 1039
f 1035 1036 1041
f 1035 1041 1040
f 941 1036 1041
f 941 1041 949
f 1038 1037 1042
f 1038 1042 1043
f 947 955 1043
f 947 1043 1038
f 1037 1039 1044
f 1037 1044 1042
f 1039 1040 1045
f 1039 1045 1044
f 1040 1041 1046
f 1040 1046 1045
f 949 1041 1046
f 949 1046 957
f 1043 1042 1047
f 1043 1047 1048
f 955 963 1048
f 955 1048 1043
f 1042 1044 1049
f 1042 1049 1047
f 1044 1045 1050
f 1044 1050 1049
f 1045 1046 1051
f 1045 1051 1050
f 957 1046 1051
f 957 1051 965
f 1048 1047 1052
f 1048 1052 1053
f 963 971 1053
f 963 1053 1048
f 1047 1049 1054
f 1047 1054 1052
f 1049 1050 1055
f 1049 1055 1054
f 1050 1051 1056
f 1050 1056 1055
f 965 1051 1056
f 965 1056 973
f 1053 1052 1057
f 1053 1057 1058
f 971 979 1058
f 971 1058 1053
f 1052 1054 1059
f 1052 1059 1057
f 1054 1055 1060
f 1054 1060 1059
f 1055 1056 1061
f 1055 1061 1060
f 973 1056 1061
f 973 1061 981
f 1058 1057 1062
f 1058 1062 1063
f 988 987 1062
f 988 1062 1063
f 979 988 1063
f 979 1063 1058
f 1057 1059 1064
f 1057 1064 1062
f 987 989 1064
f 987 1064 1062
f 1059 1060 1065
f 1059 1065 1064
f 989 990 1065
f 989 1065 1064
f 1060 1061 1066
f 1060 1066 1065
f 990 991 1066
f 990 1066 1065
f 981 1061 1066
f 981 1066 991
