o [4B] 3D Diagram - S2-06 Group C_178
v -51.030000 34.240000 66.640000
v -51.030000 34.753750 66.640000
v -51.030000 34.753750 67.585000
v -51.030000 34.240000 67.585000
v -43.740000 34.240000 66.640000
v -43.740000 34.240000 67.585000
v -43.740000 34.753750 66.640000
v -51.030000 34.753750 68.530000
v -51.030000 34.240000 68.530000
v -43.740000 34.240000 68.530000
v -51.030000 34.753750 69.475000
v -51.030000 34.240000 69.475000
v -43.740000 34.240000 69.475000
v -51.030000 34.753750 70.420000
v -51.030000 34.240000 70.420000
v -43.740000 34.240000 70.420000
v -51.030000 34.753750 71.365000
v -51.030000 34.240000 71.365000
v -43.740000 34.240000 71.365000
v -51.030000 34.753750 72.310000
v -51.030000 34.240000 72.310000
v -43.740000 34.240000 72.310000
v -51.030000 34.753750 73.255000
v -51.030000 34.240000 73.255000
v -43.740000 34.240000 73.255000
v -51.030000 34.753750 74.200000
v -51.030000 34.240000 74.200000
v -43.740000 34.240000 74.200000
v -51.030000 34.753750 75.145000
v -51.030000 34.240000 75.145000
v -43.740000 34.240000 75.145000
v -51.030000 34.753750 76.090000
v -51.030000 34.240000 76.090000
v -43.740000 34.240000 76.090000
v -51.030000 34.753750 77.035000
v -51.030000 34.240000 77.035000
v -43.740000 34.240000 77.035000
v -51.030000 34.753750 77.980000
v -51.030000 34.240000 77.980000
v -43.740000 34.240000 77.980000
v -51.030000 34.753750 78.925000
v -51.030000 34.240000 78.925000
v -43.740000 34.240000 78.925000
v -51.030000 34.753750 79.870000
v -51.030000 34.240000 79.870000
v -43.740000 34.240000 79.870000
v -51.030000 34.753750 80.815000
v -51.030000 34.240000 80.815000
v -43.740000 34.240000 80.815000
v -43.740000 34.753750 80.815000
v -51.030000 35.267500 66.640000
v -51.030000 35.267500 67.585000
v -43.740000 35.267500 66.640000
v -51.030000 35.267500 68.530000
v -51.030000 35.267500 69.475000
v -51.030000 35.267500 70.420000
v -51.030000 35.267500 71.365000
v -51.030000 35.267500 72.310000
v -51.030000 35.267500 73.255000
v -51.030000 35.267500 74.200000
v -51.030000 35.267500 75.145000
v -51.030000 35.267500 76.090000
v -51.030000 35.267500 77.035000
v -51.030000 35.267500 77.980000
v -51.030000 35.267500 78.925000
v -51.030000 35.267500 79.870000
v -51.030000 35.267500 80.815000
v -43.740000 35.267500 80.815000
v -43.740000 35.267500 79.870000
v -51.030000 35.781250 66.640000
v -51.030000 35.781250 67.585000
v -43.740000 35.781250 66.640000
v -51.030000 35.781250 68.530000
v -51.030000 35.781250 69.475000
v -51.030000 35.781250 70.420000
v -51.030000 35.781250 71.365000
v -51.030000 35.781250 72.310000
v -51.030000 35.781250 73.255000
v -51.030000 35.781250 74.200000
v -51.030000 35.781250 75.145000
v -51.030000 35.781250 76.090000
v -51.030000 35.781250 77.035000
v -51.030000 35.781250 77.980000
v -51.030000 35.781250 78.925000
v -51.030000 35.781250 79.870000
v -43.740000 35.781250 79.870000
v -43.740000 35.781250 78.925000
v -51.030000 36.295000 66.640000
v -51.030000 36.295000 67.585000
v -43.740000 36.295000 66.640000
v -51.030000 36.295000 68.530000
v -51.030000 36.295000 69.475000
v -51.030000 36.295000 70.420000
v -51.030000 36.295000 71.365000
v -51.030000 36.295000 72.310000
v -51.030000 36.295000 73.255000
v -51.030000 36.295000 74.200000
v -51.030000 36.295000 75.145000
v -51.030000 36.295000 76.090000
v -51.030000 36.295000 77.035000
v -51.030000 36.295000 77.980000
v -51.030000 36.295000 78.925000
v -43.740000 36.295000 78.925000
v -51.030000 36.808750 66.640000
v -51.030000 36.808750 67.585000
v -43.740000 36.808750 66.640000
v -51.030000 36.808750 68.530000
v -51.030000 36.808750 69.475000
v -51.030000 36.808750 70.420000
v -51.030000 36.808750 71.365000
v -51.030000 36.808750 72.310000
v -51.030000 36.808750 73.255000
v -51.030000 36.808750 74.200000
v -51.030000 36.808750 75.145000
v -51.030000 36.808750 76.090000
v -51.030000 36.808750 77.035000
v -51.030000 36.808750 77.980000
v -51.030000 36.808750 78.925000
v -43.740000 36.808750 78.925000
v -43.740000 36.808750 77.980000
v -51.030000 37.322500 66.640000
v -51.030000 37.322500 67.585000
v -43.740000 37.322500 66.640000
v -51.030000 37.322500 68.530000
v -51.030000 37.322500 69.475000
v -51.030000 37.322500 70.420000
v -51.030000 37.322500 71.365000
v -51.030000 37.322500 72.310000
v -51.030000 37.322500 73.255000
v -51.030000 37.322500 74.200000
v -51.030000 37.322500 75.145000
v -51.030000 37.322500 76.090000
v -51.030000 37.322500 77.035000
v -51.030000 37.322500 77.980000
v -43.740000 37.322500 77.980000
v -43.740000 37.322500 77.035000
v -51.030000 37.836250 66.640000
v -51.030000 37.836250 67.585000
v -43.740000 37.836250 66.640000
v -51.030000 37.836250 68.530000
v -51.030000 37.836250 69.475000
v -51.030000 37.836250 70.420000
v -51.030000 37.836250 71.365000
v -51.030000 37.836250 72.310000
v -51.030000 37.836250 73.255000
v -51.030000 37.836250 74.200000
v -51.030000 37.836250 75.145000
v -51.030000 37.836250 76.090000
v -51.030000 37.836250 77.035000
v -43.740000 37.836250 77.035000
v -51.030000 38.350000 66.640000
v -51.030000 38.350000 67.585000
v -43.740000 38.350000 66.640000
v -51.030000 38.350000 68.530000
v -51.030000 38.350000 69.475000
v -51.030000 38.350000 70.420000
v -51.030000 38.350000 71.365000
v -51.030000 38.350000 72.310000
v -51.030000 38.350000 73.255000
v -51.030000 38.350000 74.200000
v -51.030000 38.350000 75.145000
v -51.030000 38.350000 76.090000
v -51.030000 38.350000 77.035000
v -43.740000 38.350000 77.035000
v -43.740000 38.350000 76.090000
v -51.030000 38.863750 66.640000
v -51.030000 38.863750 67.585000
v -43.740000 38.863750 66.640000
v -51.030000 38.863750 68.530000
v -51.030000 38.863750 69.475000
v -51.030000 38.863750 70.420000
v -51.030000 38.863750 71.365000
v -51.030000 38.863750 72.310000
v -51.030000 38.863750 73.255000
v -51.030000 38.863750 74.200000
v -51.030000 38.863750 75.145000
v -51.030000 38.863750 76.090000
v -43.740000 38.863750 76.090000
v -43.740000 38.863750 75.145000
v -51.030000 39.377500 66.640000
v -51.030000 39.377500 67.585000
v -43.740000 39.377500 66.640000
v -51.030000 39.377500 68.530000
v -51.030000 39.377500 69.475000
v -51.030000 39.377500 70.420000
v -51.030000 39.377500 71.365000
v -51.030000 39.377500 72.310000
v -51.030000 39.377500 73.255000
v -51.030000 39.377500 74.200000
v -51.030000 39.377500 75.145000
v -43.740000 39.377500 75.145000
v -51.030000 39.891250 66.640000
v -51.030000 39.891250 67.585000
v -43.740000 39.891250 66.640000
v -51.030000 39.891250 68.530000
v -51.030000 39.891250 69.475000
v -51.030000 39.891250 70.420000
v -51.030000 39.891250 71.365000
v -51.030000 39.891250 72.310000
v -51.030000 39.891250 73.255000
v -51.030000 39.891250 74.200000
v -51.030000 39.891250 75.145000
v -43.740000 39.891250 75.145000
v -43.740000 39.891250 74.200000
v -51.030000 40.405000 66.640000
v -51.030000 40.405000 67.585000
v -43.740000 40.405000 66.640000
v -51.030000 40.405000 68.530000
v -51.030000 40.405000 69.475000
v -51.030000 40.405000 70.420000
v -51.030000 40.405000 71.365000
v -51.030000 40.405000 72.310000
v -51.030000 40.405000 73.255000
v -51.030000 40.405000 74.200000
v -43.740000 40.405000 74.200000
v -43.740000 40.405000 73.255000
v -51.030000 40.918750 66.640000
v -51.030000 40.918750 67.585000
v -43.740000 40.918750 66.640000
v -51.030000 40.918750 68.530000
v -51.030000 40.918750 69.475000
v -51.030000 40.918750 70.420000
v -51.030000 40.918750 71.365000
v -51.030000 40.918750 72.310000
v -51.030000 40.918750 73.255000
v -43.740000 40.918750 73.255000
v -51.030000 41.432500 66.640000
v -51.030000 41.432500 67.585000
v -43.740000 41.432500 66.640000
v -51.030000 41.432500 68.530000
v -51.030000 41.432500 69.475000
v -51.030000 41.432500 70.420000
v -51.030000 41.432500 71.365000
v -51.030000 41.432500 72.310000
v -51.030000 41.432500 73.255000
v -43.740000 41.432500 73.255000
v -43.740000 41.432500 72.310000
v -51.030000 41.946250 66.640000
v -51.030000 41.946250 67.585000
v -43.740000 41.946250 66.640000
v -51.030000 41.946250 68.530000
v -51.030000 41.946250 69.475000
v -51.030000 41.946250 70.420000
v -51.030000 41.946250 71.365000
v -51.030000 41.946250 72.310000
v -43.740000 41.946250 72.310000
v -43.740000 41.946250 71.365000
v -51.030000 42.460000 66.640000
v -51.030000 42.460000 67.585000
v -43.740000 42.460000 67.585000
v -43.740000 42.460000 66.640000
v -51.030000 42.460000 68.530000
v -43.740000 42.460000 68.530000
v -51.030000 42.460000 69.475000
v -43.740000 42.460000 69.475000
v -51.030000 42.460000 70.420000
v -43.740000 42.460000 70.420000
v -51.030000 42.460000 71.365000
v -43.740000 42.460000 71.365000
v -36.450000 34.240000 66.640000
v -36.450000 34.240000 67.585000
v -36.450000 34.753750 66.640000
v -36.450000 34.240000 68.530000
v -36.450000 34.240000 69.475000
v -36.450000 34.240000 70.420000
v -36.450000 34.240000 71.365000
v -36.450000 34.240000 72.310000
v -36.450000 34.240000 73.255000
v -36.450000 34.240000 74.200000
v -36.450000 34.240000 75.145000
v -36.450000 34.240000 76.090000
v -36.450000 34.240000 77.035000
v -36.450000 34.240000 77.980000
v -36.450000 34.240000 78.925000
v -36.450000 34.240000 79.870000
v -36.450000 34.240000 80.815000
v -36.450000 34.753750 80.815000
v -36.450000 35.267500 66.640000
v -36.450000 35.267500 80.815000
v -36.450000 35.267500 79.870000
v -36.450000 35.781250 66.640000
v -36.450000 35.781250 79.870000
v -36.450000 35.781250 78.925000
v -36.450000 36.295000 66.640000
v -36.450000 36.295000 78.925000
v -36.450000 36.808750 66.640000
v -36.450000 36.808750 78.925000
v -36.450000 36.808750 77.980000
v -36.450000 37.322500 66.640000
v -36.450000 37.322500 77.980000
v -36.450000 37.322500 77.035000
v -36.450000 37.836250 66.640000
v -36.450000 37.836250 77.035000
v -36.450000 38.350000 66.640000
v -36.450000 38.350000 77.035000
v -36.450000 38.350000 76.090000
v -36.450000 38.863750 66.640000
v -36.450000 38.863750 76.090000
v -36.450000 38.863750 75.145000
v -36.450000 39.377500 66.640000
v -36.450000 39.377500 75.145000
v -36.450000 39.891250 66.640000
v -36.450000 39.891250 75.145000
v -36.450000 39.891250 74.200000
v -36.450000 40.405000 66.640000
v -36.450000 40.405000 74.200000
v -36.450000 40.405000 73.255000
v -36.450000 40.918750 66.640000
v -36.450000 40.918750 73.255000
v -36.450000 41.432500 66.640000
v -36.450000 41.432500 73.255000
v -36.450000 41.432500 72.310000
v -36.450000 41.946250 66.640000
v -36.450000 41.946250 72.310000
v -36.450000 41.946250 71.365000
v -36.450000 42.460000 67.585000
v -36.450000 42.460000 66.640000
v -36.450000 42.460000 68.530000
v -36.450000 42.460000 69.475000
v -36.450000 42.460000 70.420000
v -36.450000 42.460000 71.365000
v -29.160000 34.240000 66.640000
v -29.160000 34.240000 67.585000
v -29.160000 34.753750 66.640000
v -29.160000 34.240000 68.530000
v -29.160000 34.240000 69.475000
v -29.160000 34.240000 70.420000
v -29.160000 34.240000 71.365000
v -29.160000 34.240000 72.310000
v -29.160000 34.240000 73.255000
v -29.160000 34.240000 74.200000
v -29.160000 34.240000 75.145000
v -29.160000 34.240000 76.090000
v -29.160000 34.240000 77.035000
v -29.160000 34.240000 77.980000
v -29.160000 34.240000 78.925000
v -29.160000 34.240000 79.870000
v -29.160000 34.240000 80.815000
v -29.160000 34.753750 80.815000
v -29.160000 35.267500 66.640000
v -29.160000 35.267500 80.815000
v -29.160000 35.267500 79.870000
v -29.160000 35.781250 66.640000
v -29.160000 35.781250 79.870000
v -29.160000 35.781250 78.925000
v -29.160000 36.295000 66.640000
v -29.160000 36.295000 78.925000
v -29.160000 36.808750 66.640000
v -29.160000 36.808750 78.925000
v -29.160000 36.808750 77.980000
v -29.160000 37.322500 66.640000
v -29.160000 37.322500 77.980000
v -29.160000 37.322500 77.035000
v -29.160000 37.836250 66.640000
v -29.160000 37.836250 77.035000
v -29.160000 38.350000 66.640000
v -29.160000 38.350000 77.035000
v -29.160000 38.350000 76.090000
v -29.160000 38.863750 66.640000
v -29.160000 38.863750 76.090000
v -29.160000 38.863750 75.145000
v -29.160000 39.377500 66.640000
v -29.160000 39.377500 75.145000
v -29.160000 39.891250 66.640000
v -29.160000 39.891250 75.145000
v -29.160000 39.891250 74.200000
v -29.160000 40.405000 66.640000
v -29.160000 40.405000 74.200000
v -29.160000 40.405000 73.255000
v -29.160000 40.918750 66.640000
v -29.160000 40.918750 73.255000
v -29.160000 41.432500 66.640000
v -29.160000 41.432500 73.255000
v -29.160000 41.432500 72.310000
v -29.160000 41.946250 66.640000
v -29.160000 41.946250 72.310000
v -29.160000 41.946250 71.365000
v -29.160000 42.460000 67.585000
v -29.160000 42.460000 66.640000
v -29.160000 42.460000 68.530000
v -29.160000 42.460000 69.475000
v -29.160000 42.460000 70.420000
v -29.160000 42.460000 71.365000
v -21.870000 34.240000 66.640000
v -21.870000 34.240000 67.585000
v -21.870000 34.753750 66.640000
v -21.870000 34.240000 68.530000
v -21.870000 34.240000 69.475000
v -21.870000 34.240000 70.420000
v -21.870000 34.240000 71.365000
v -21.870000 34.240000 72.310000
v -21.870000 34.240000 73.255000
v -21.870000 34.240000 74.200000
v -21.870000 34.240000 75.145000
v -21.870000 34.240000 76.090000
v -21.870000 34.240000 77.035000
v -21.870000 34.240000 77.980000
v -21.870000 34.240000 78.925000
v -21.870000 34.240000 79.870000
v -21.870000 34.240000 80.815000
v -21.870000 34.753750 80.815000
v -21.870000 35.267500 66.640000
v -21.870000 35.267500 80.815000
v -21.870000 35.267500 79.870000
v -21.870000 35.781250 66.640000
v -21.870000 35.781250 79.870000
v -21.870000 35.781250 78.925000
v -21.870000 36.295000 66.640000
v -21.870000 36.295000 78.925000
v -21.870000 36.808750 66.640000
v -21.870000 36.808750 78.925000
v -21.870000 36.808750 77.980000
v -21.870000 37.322500 66.640000
v -21.870000 37.322500 77.980000
v -21.870000 37.322500 77.035000
v -21.870000 37.836250 66.640000
v -21.870000 37.836250 77.035000
v -21.870000 38.350000 66.640000
v -21.870000 38.350000 77.035000
v -21.870000 38.350000 76.090000
v -21.870000 38.863750 66.640000
v -21.870000 38.863750 76.090000
v -21.870000 38.863750 75.145000
v -21.870000 39.377500 66.640000
v -21.870000 39.377500 75.145000
v -21.870000 39.891250 66.640000
v -21.870000 39.891250 75.145000
v -21.870000 39.891250 74.200000
v -21.870000 40.405000 66.640000
v -21.870000 40.405000 74.200000
v -21.870000 40.405000 73.255000
v -21.870000 40.918750 66.640000
v -21.870000 40.918750 73.255000
v -21.870000 41.432500 66.640000
v -21.870000 41.432500 73.255000
v -21.870000 41.432500 72.310000
v -21.870000 41.946250 66.640000
v -21.870000 41.946250 72.310000
v -21.870000 41.946250 71.365000
v -21.870000 42.460000 67.585000
v -21.870000 42.460000 66.640000
v -21.870000 42.460000 68.530000
v -21.870000 42.460000 69.475000
v -21.870000 42.460000 70.420000
v -21.870000 42.460000 71.365000
v -14.580000 34.240000 66.640000
v -14.580000 34.240000 67.585000
v -14.580000 34.753750 66.640000
v -14.580000 34.240000 68.530000
v -14.580000 34.240000 69.475000
v -14.580000 34.240000 70.420000
v -14.580000 34.240000 71.365000
v -14.580000 34.240000 72.310000
v -14.580000 34.240000 73.255000
v -14.580000 34.240000 74.200000
v -14.580000 34.240000 75.145000
v -14.580000 34.240000 76.090000
v -14.580000 34.240000 77.035000
v -14.580000 34.240000 77.980000
v -14.580000 34.240000 78.925000
v -14.580000 34.240000 79.870000
v -14.580000 34.240000 80.815000
v -14.580000 34.753750 80.815000
v -14.580000 35.267500 66.640000
v -14.580000 35.267500 80.815000
v -14.580000 35.267500 79.870000
v -14.580000 35.781250 66.640000
v -14.580000 35.781250 79.870000
v -14.580000 35.781250 78.925000
v -14.580000 36.295000 66.640000
v -14.580000 36.295000 78.925000
v -14.580000 36.808750 66.640000
v -14.580000 36.808750 78.925000
v -14.580000 36.808750 77.980000
v -14.580000 37.322500 66.640000
v -14.580000 37.322500 77.980000
v -14.580000 37.322500 77.035000
v -14.580000 37.836250 66.640000
v -14.580000 37.836250 77.035000
v -14.580000 38.350000 66.640000
v -14.580000 38.350000 77.035000
v -14.580000 38.350000 76.090000
v -14.580000 38.863750 66.640000
v -14.580000 38.863750 76.090000
v -14.580000 38.863750 75.145000
v -14.580000 39.377500 66.640000
v -14.580000 39.377500 75.145000
v -14.580000 39.891250 66.640000
v -14.580000 39.891250 75.145000
v -14.580000 39.891250 74.200000
v -14.580000 40.405000 66.640000
v -14.580000 40.405000 74.200000
v -14.580000 40.405000 73.255000
v -14.580000 40.918750 66.640000
v -14.580000 40.918750 73.255000
v -14.580000 41.432500 66.640000
v -14.580000 41.432500 73.255000
v -14.580000 41.432500 72.310000
v -14.580000 41.946250 66.640000
v -14.580000 41.946250 72.310000
v -14.580000 41.946250 71.365000
v -14.580000 42.460000 67.585000
v -14.580000 42.460000 66.640000
v -14.580000 42.460000 68.530000
v -14.580000 42.460000 69.475000
v -14.580000 42.460000 70.420000
v -14.580000 42.460000 71.365000
v -7.290000 34.240000 66.640000
v -7.290000 34.240000 67.585000
v -7.290000 34.753750 66.640000
v -7.290000 34.240000 68.530000
v -7.290000 34.240000 69.475000
v -7.290000 34.240000 70.420000
v -7.290000 34.240000 71.365000
v -7.290000 34.240000 72.310000
v -7.290000 34.240000 73.255000
v -7.290000 34.240000 74.200000
v -7.290000 34.240000 75.145000
v -7.290000 34.240000 76.090000
v -7.290000 34.240000 77.035000
v -7.290000 34.240000 77.980000
v -7.290000 34.240000 78.925000
v -7.290000 34.240000 79.870000
v -7.290000 34.240000 80.815000
v -7.290000 34.753750 80.815000
v -7.290000 35.267500 66.640000
v -7.290000 35.267500 80.815000
v -7.290000 35.267500 79.870000
v -7.290000 35.781250 66.640000
v -7.290000 35.781250 79.870000
v -7.290000 35.781250 78.925000
v -7.290000 36.295000 66.640000
v -7.290000 36.295000 78.925000
v -7.290000 36.808750 66.640000
v -7.290000 36.808750 78.925000
v -7.290000 36.808750 77.980000
v -7.290000 37.322500 66.640000
v -7.290000 37.322500 77.980000
v -7.290000 37.322500 77.035000
v -7.290000 37.836250 66.640000
v -7.290000 37.836250 77.035000
v -7.290000 38.350000 66.640000
v -7.290000 38.350000 77.035000
v -7.290000 38.350000 76.090000
v -7.290000 38.863750 66.640000
v -7.290000 38.863750 76.090000
v -7.290000 38.863750 75.145000
v -7.290000 39.377500 66.640000
v -7.290000 39.377500 75.145000
v -7.290000 39.891250 66.640000
v -7.290000 39.891250 75.145000
v -7.290000 39.891250 74.200000
v -7.290000 40.405000 66.640000
v -7.290000 40.405000 74.200000
v -7.290000 40.405000 73.255000
v -7.290000 40.918750 66.640000
v -7.290000 40.918750 73.255000
v -7.290000 41.432500 66.640000
v -7.290000 41.432500 73.255000
v -7.290000 41.432500 72.310000
v -7.290000 41.946250 66.640000
v -7.290000 41.946250 72.310000
v -7.290000 41.946250 71.365000
v -7.290000 42.460000 67.585000
v -7.290000 42.460000 66.640000
v -7.290000 42.460000 68.530000
v -7.290000 42.460000 69.475000
v -7.290000 42.460000 70.420000
v -7.290000 42.460000 71.365000
v -0.000000 34.240000 66.640000
v -0.000000 34.240000 67.585000
v -0.000000 34.753750 66.640000
v -0.000000 34.240000 68.530000
v -0.000000 34.240000 69.475000
v -0.000000 34.240000 70.420000
v -0.000000 34.240000 71.365000
v -0.000000 34.240000 72.310000
v -0.000000 34.240000 73.255000
v -0.000000 34.240000 74.200000
v -0.000000 34.240000 75.145000
v -0.000000 34.240000 76.090000
v -0.000000 34.240000 77.035000
v -0.000000 34.240000 77.980000
v -0.000000 34.240000 78.925000
v -0.000000 34.240000 79.870000
v -0.000000 34.240000 80.815000
v -0.000000 34.753750 80.815000
v -0.000000 35.267500 66.640000
v -0.000000 35.267500 80.815000
v -0.000000 35.267500 79.870000
v -0.000000 35.781250 66.640000
v -0.000000 35.781250 79.870000
v -0.000000 35.781250 78.925000
v -0.000000 36.295000 66.640000
v -0.000000 36.295000 78.925000
v -0.000000 36.808750 66.640000
v -0.000000 36.808750 78.925000
v -0.000000 36.808750 77.980000
v -0.000000 37.322500 66.640000
v -0.000000 37.322500 77.980000
v -0.000000 37.322500 77.035000
v -0.000000 37.836250 66.640000
v -0.000000 37.836250 77.035000
v -0.000000 38.350000 66.640000
v -0.000000 38.350000 77.035000
v -0.000000 38.350000 76.090000
v -0.000000 38.863750 66.640000
v -0.000000 38.863750 76.090000
v -0.000000 38.863750 75.145000
v -0.000000 39.377500 66.640000
v -0.000000 39.377500 75.145000
v -0.000000 39.891250 66.640000
v -0.000000 39.891250 75.145000
v -0.000000 39.891250 74.200000
v -0.000000 40.405000 66.640000
v -0.000000 40.405000 74.200000
v -0.000000 40.405000 73.255000
v -0.000000 40.918750 66.640000
v -0.000000 40.918750 73.255000
v -0.000000 41.432500 66.640000
v -0.000000 41.432500 73.255000
v -0.000000 41.432500 72.310000
v -0.000000 41.946250 66.640000
v -0.000000 41.946250 72.310000
v -0.000000 41.946250 71.365000
v -0.000000 42.460000 67.585000
v -0.000000 42.460000 66.640000
v -0.000000 42.460000 68.530000
v -0.000000 42.460000 69.475000
v -0.000000 42.460000 70.420000
v -0.000000 42.460000 71.365000
v 7.290000 34.240000 66.640000
v 7.290000 34.240000 67.585000
v 7.290000 34.753750 66.640000
v 7.290000 34.240000 68.530000
v 7.290000 34.240000 69.475000
v 7.290000 34.240000 70.420000
v 7.290000 34.240000 71.365000
v 7.290000 34.240000 72.310000
v 7.290000 34.240000 73.255000
v 7.290000 34.240000 74.200000
v 7.290000 34.240000 75.145000
v 7.290000 34.240000 76.090000
v 7.290000 34.240000 77.035000
v 7.290000 34.240000 77.980000
v 7.290000 34.240000 78.925000
v 7.290000 34.240000 79.870000
v 7.290000 34.240000 80.815000
v 7.290000 34.753750 80.815000
v 7.290000 35.267500 66.640000
v 7.290000 35.267500 80.815000
v 7.290000 35.267500 79.870000
v 7.290000 35.781250 66.640000
v 7.290000 35.781250 79.870000
v 7.290000 35.781250 78.925000
v 7.290000 36.295000 66.640000
v 7.290000 36.295000 78.925000
v 7.290000 36.808750 66.640000
v 7.290000 36.808750 78.925000
v 7.290000 36.808750 77.980000
v 7.290000 37.322500 66.640000
v 7.290000 37.322500 77.980000
v 7.290000 37.322500 77.035000
v 7.290000 37.836250 66.640000
v 7.290000 37.836250 77.035000
v 7.290000 38.350000 66.640000
v 7.290000 38.350000 77.035000
v 7.290000 38.350000 76.090000
v 7.290000 38.863750 66.640000
v 7.290000 38.863750 76.090000
v 7.290000 38.863750 75.145000
v 7.290000 39.377500 66.640000
v 7.290000 39.377500 75.145000
v 7.290000 39.891250 66.640000
v 7.290000 39.891250 75.145000
v 7.290000 39.891250 74.200000
v 7.290000 40.405000 66.640000
v 7.290000 40.405000 74.200000
v 7.290000 40.405000 73.255000
v 7.290000 40.918750 66.640000
v 7.290000 40.918750 73.255000
v 7.290000 41.432500 66.640000
v 7.290000 41.432500 73.255000
v 7.290000 41.432500 72.310000
v 7.290000 41.946250 66.640000
v 7.290000 41.946250 72.310000
v 7.290000 41.946250 71.365000
v 7.290000 42.460000 67.585000
v 7.290000 42.460000 66.640000
v 7.290000 42.460000 68.530000
v 7.290000 42.460000 69.475000
v 7.290000 42.460000 70.420000
v 7.290000 42.460000 71.365000
v 14.580000 34.240000 66.640000
v 14.580000 34.240000 67.585000
v 14.580000 34.753750 66.640000
v 14.580000 34.240000 68.530000
v 14.580000 34.240000 69.475000
v 14.580000 34.240000 70.420000
v 14.580000 34.240000 71.365000
v 14.580000 34.240000 72.310000
v 14.580000 34.240000 73.255000
v 14.580000 34.240000 74.200000
v 14.580000 34.240000 75.145000
v 14.580000 34.240000 76.090000
v 14.580000 34.240000 77.035000
v 14.580000 34.240000 77.980000
v 14.580000 34.240000 78.925000
v 14.580000 34.240000 79.870000
v 14.580000 34.240000 80.815000
v 14.580000 34.753750 80.815000
v 14.580000 35.267500 66.640000
v 14.580000 35.267500 80.815000
v 14.580000 35.267500 79.870000
v 14.580000 35.781250 66.640000
v 14.580000 35.781250 79.870000
v 14.580000 35.781250 78.925000
v 14.580000 36.295000 66.640000
v 14.580000 36.295000 78.925000
v 14.580000 36.808750 66.640000
v 14.580000 36.808750 78.925000
v 14.580000 36.808750 77.980000
v 14.580000 37.322500 66.640000
v 14.580000 37.322500 77.980000
v 14.580000 37.322500 77.035000
v 14.580000 37.836250 66.640000
v 14.580000 37.836250 77.035000
v 14.580000 38.350000 66.640000
v 14.580000 38.350000 77.035000
v 14.580000 38.350000 76.090000
v 14.580000 38.863750 66.640000
v 14.580000 38.863750 76.090000
v 14.580000 38.863750 75.145000
v 14.580000 39.377500 66.640000
v 14.580000 39.377500 75.145000
v 14.580000 39.891250 66.640000
v 14.580000 39.891250 75.145000
v 14.580000 39.891250 74.200000
v 14.580000 40.405000 66.640000
v 14.580000 40.405000 74.200000
v 14.580000 40.405000 73.255000
v 14.580000 40.918750 66.640000
v 14.580000 40.918750 73.255000
v 14.580000 41.432500 66.640000
v 14.580000 41.432500 73.255000
v 14.580000 41.432500 72.310000
v 14.580000 41.946250 66.640000
v 14.580000 41.946250 72.310000
v 14.580000 41.946250 71.365000
v 14.580000 42.460000 67.585000
v 14.580000 42.460000 66.640000
v 14.580000 42.460000 68.530000
v 14.580000 42.460000 69.475000
v 14.580000 42.460000 70.420000
v 14.580000 42.460000 71.365000
v 21.870000 34.240000 66.640000
v 21.870000 34.240000 67.585000
v 21.870000 34.753750 66.640000
v 21.870000 34.240000 68.530000
v 21.870000 34.240000 69.475000
v 21.870000 34.240000 70.420000
v 21.870000 34.240000 71.365000
v 21.870000 34.240000 72.310000
v 21.870000 34.240000 73.255000
v 21.870000 34.240000 74.200000
v 21.870000 34.240000 75.145000
v 21.870000 34.240000 76.090000
v 21.870000 34.240000 77.035000
v 21.870000 34.240000 77.980000
v 21.870000 34.240000 78.925000
v 21.870000 34.240000 79.870000
v 21.870000 34.240000 80.815000
v 21.870000 34.753750 80.815000
v 21.870000 35.267500 66.640000
v 21.870000 35.267500 80.815000
v 21.870000 35.267500 79.870000
v 21.870000 35.781250 66.640000
v 21.870000 35.781250 79.870000
v 21.870000 35.781250 78.925000
v 21.870000 36.295000 66.640000
v 21.870000 36.295000 78.925000
v 21.870000 36.808750 66.640000
v 21.870000 36.808750 78.925000
v 21.870000 36.808750 77.980000
v 21.870000 37.322500 66.640000
v 21.870000 37.322500 77.980000
v 21.870000 37.322500 77.035000
v 21.870000 37.836250 66.640000
v 21.870000 37.836250 77.035000
v 21.870000 38.350000 66.640000
v 21.870000 38.350000 77.035000
v 21.870000 38.350000 76.090000
v 21.870000 38.863750 66.640000
v 21.870000 38.863750 76.090000
v 21.870000 38.863750 75.145000
v 21.870000 39.377500 66.640000
v 21.870000 39.377500 75.145000
v 21.870000 39.891250 66.640000
v 21.870000 39.891250 75.145000
v 21.870000 39.891250 74.200000
v 21.870000 40.405000 66.640000
v 21.870000 40.405000 74.200000
v 21.870000 40.405000 73.255000
v 21.870000 40.918750 66.640000
v 21.870000 40.918750 73.255000
v 21.870000 41.432500 66.640000
v 21.870000 41.432500 73.255000
v 21.870000 41.432500 72.310000
v 21.870000 41.946250 66.640000
v 21.870000 41.946250 72.310000
v 21.870000 41.946250 71.365000
v 21.870000 42.460000 67.585000
v 21.870000 42.460000 66.640000
v 21.870000 42.460000 68.530000
v 21.870000 42.460000 69.475000
v 21.870000 42.460000 70.420000
v 21.870000 42.460000 71.365000
v 29.160000 34.240000 66.640000
v 29.160000 34.240000 67.585000
v 29.160000 34.753750 66.640000
v 29.160000 34.240000 68.530000
v 29.160000 34.240000 69.475000
v 29.160000 34.240000 70.420000
v 29.160000 34.240000 71.365000
v 29.160000 34.240000 72.310000
v 29.160000 34.240000 73.255000
v 29.160000 34.240000 74.200000
v 29.160000 34.240000 75.145000
v 29.160000 34.240000 76.090000
v 29.160000 34.240000 77.035000
v 29.160000 34.240000 77.980000
v 29.160000 34.240000 78.925000
v 29.160000 34.240000 79.870000
v 29.160000 34.240000 80.815000
v 29.160000 34.753750 80.815000
v 29.160000 35.267500 66.640000
v 29.160000 35.267500 80.815000
v 29.160000 35.267500 79.870000
v 29.160000 35.781250 66.640000
v 29.160000 35.781250 79.870000
v 29.160000 35.781250 78.925000
v 29.160000 36.295000 66.640000
v 29.160000 36.295000 78.925000
v 29.160000 36.808750 66.640000
v 29.160000 36.808750 78.925000
v 29.160000 36.808750 77.980000
v 29.160000 37.322500 66.640000
v 29.160000 37.322500 77.980000
v 29.160000 37.322500 77.035000
v 29.160000 37.836250 66.640000
v 29.160000 37.836250 77.035000
v 29.160000 38.350000 66.640000
v 29.160000 38.350000 77.035000
v 29.160000 38.350000 76.090000
v 29.160000 38.863750 66.640000
v 29.160000 38.863750 76.090000
v 29.160000 38.863750 75.145000
v 29.160000 39.377500 66.640000
v 29.160000 39.377500 75.145000
v 29.160000 39.891250 66.640000
v 29.160000 39.891250 75.145000
v 29.160000 39.891250 74.200000
v 29.160000 40.405000 66.640000
v 29.160000 40.405000 74.200000
v 29.160000 40.405000 73.255000
v 29.160000 40.918750 66.640000
v 29.160000 40.918750 73.255000
v 29.160000 41.432500 66.640000
v 29.160000 41.432500 73.255000
v 29.160000 41.432500 72.310000
v 29.160000 41.946250 66.640000
v 29.160000 41.946250 72.310000
v 29.160000 41.946250 71.365000
v 29.160000 42.460000 67.585000
v 29.160000 42.460000 66.640000
v 29.160000 42.460000 68.530000
v 29.160000 42.460000 69.475000
v 29.160000 42.460000 70.420000
v 29.160000 42.460000 71.365000
v 36.450000 34.240000 66.640000
v 36.450000 34.240000 67.585000
v 36.450000 34.753750 66.640000
v 36.450000 34.240000 68.530000
v 36.450000 34.240000 69.475000
v 36.450000 34.240000 70.420000
v 36.450000 34.240000 71.365000
v 36.450000 34.240000 72.310000
v 36.450000 34.240000 73.255000
v 36.450000 34.240000 74.200000
v 36.450000 34.240000 75.145000
v 36.450000 34.240000 76.090000
v 36.450000 34.240000 77.035000
v 36.450000 34.240000 77.980000
v 36.450000 34.240000 78.925000
v 36.450000 34.240000 79.870000
v 36.450000 34.240000 80.815000
v 36.450000 34.753750 80.815000
v 36.450000 35.267500 66.640000
v 36.450000 35.267500 80.815000
v 36.450000 35.267500 79.870000
v 36.450000 35.781250 66.640000
v 36.450000 35.781250 79.870000
v 36.450000 35.781250 78.925000
v 36.450000 36.295000 66.640000
v 36.450000 36.295000 78.925000
v 36.450000 36.808750 66.640000
v 36.450000 36.808750 78.925000
v 36.450000 36.808750 77.980000
v 36.450000 37.322500 66.640000
v 36.450000 37.322500 77.980000
v 36.450000 37.322500 77.035000
v 36.450000 37.836250 66.640000
v 36.450000 37.836250 77.035000
v 36.450000 38.350000 66.640000
v 36.450000 38.350000 77.035000
v 36.450000 38.350000 76.090000
v 36.450000 38.863750 66.640000
v 36.450000 38.863750 76.090000
v 36.450000 38.863750 75.145000
v 36.450000 39.377500 66.640000
v 36.450000 39.377500 75.145000
v 36.450000 39.891250 66.640000
v 36.450000 39.891250 75.145000
v 36.450000 39.891250 74.200000
v 36.450000 40.405000 66.640000
v 36.450000 40.405000 74.200000
v 36.450000 40.405000 73.255000
v 36.450000 40.918750 66.640000
v 36.450000 40.918750 73.255000
v 36.450000 41.432500 66.640000
v 36.450000 41.432500 73.255000
v 36.450000 41.432500 72.310000
v 36.450000 41.946250 66.640000
v 36.450000 41.946250 72.310000
v 36.450000 41.946250 71.365000
v 36.450000 42.460000 67.585000
v 36.450000 42.460000 66.640000
v 36.450000 42.460000 68.530000
v 36.450000 42.460000 69.475000
v 36.450000 42.460000 70.420000
v 36.450000 42.460000 71.365000
v 43.740000 34.240000 66.640000
v 43.740000 34.240000 67.585000
v 43.740000 34.753750 66.640000
v 43.740000 34.240000 68.530000
v 43.740000 34.240000 69.475000
v 43.740000 34.240000 70.420000
v 43.740000 34.240000 71.365000
v 43.740000 34.240000 72.310000
v 43.740000 34.240000 73.255000
v 43.740000 34.240000 74.200000
v 43.740000 34.240000 75.145000
v 43.740000 34.240000 76.090000
v 43.740000 34.240000 77.035000
v 43.740000 34.240000 77.980000
v 43.740000 34.240000 78.925000
v 43.740000 34.240000 79.870000
v 43.740000 34.240000 80.815000
v 43.740000 34.753750 80.815000
v 43.740000 35.267500 66.640000
v 43.740000 35.267500 80.815000
v 43.740000 35.267500 79.870000
v 43.740000 35.781250 66.640000
v 43.740000 35.781250 79.870000
v 43.740000 35.781250 78.925000
v 43.740000 36.295000 66.640000
v 43.740000 36.295000 78.925000
v 43.740000 36.808750 66.640000
v 43.740000 36.808750 78.925000
v 43.740000 36.808750 77.980000
v 43.740000 37.322500 66.640000
v 43.740000 37.322500 77.980000
v 43.740000 37.322500 77.035000
v 43.740000 37.836250 66.640000
v 43.740000 37.836250 77.035000
v 43.740000 38.350000 66.640000
v 43.740000 38.350000 77.035000
v 43.740000 38.350000 76.090000
v 43.740000 38.863750 66.640000
v 43.740000 38.863750 76.090000
v 43.740000 38.863750 75.145000
v 43.740000 39.377500 66.640000
v 43.740000 39.377500 75.145000
v 43.740000 39.891250 66.640000
v 43.740000 39.891250 75.145000
v 43.740000 39.891250 74.200000
v 43.740000 40.405000 66.640000
v 43.740000 40.405000 74.200000
v 43.740000 40.405000 73.255000
v 43.740000 40.918750 66.640000
v 43.740000 40.918750 73.255000
v 43.740000 41.432500 66.640000
v 43.740000 41.432500 73.255000
v 43.740000 41.432500 72.310000
v 43.740000 41.946250 66.640000
v 43.740000 41.946250 72.310000
v 43.740000 41.946250 71.365000
v 43.740000 42.460000 67.585000
v 43.740000 42.460000 66.640000
v 43.740000 42.460000 68.530000
v 43.740000 42.460000 69.475000
v 43.740000 42.460000 70.420000
v 43.740000 42.460000 71.365000
v 51.030000 34.240000 66.640000
v 51.030000 34.240000 67.585000
v 51.030000 34.753750 67.585000
v 51.030000 34.753750 66.640000
v 51.030000 34.240000 68.530000
v 51.030000 34.753750 68.530000
v 51.030000 34.240000 69.475000
v 51.030000 34.753750 69.475000
v 51.030000 34.240000 70.420000
v 51.030000 34.753750 70.420000
v 51.030000 34.240000 71.365000
v 51.030000 34.753750 71.365000
v 51.030000 34.240000 72.310000
v 51.030000 34.753750 72.310000
v 51.030000 34.240000 73.255000
v 51.030000 34.753750 73.255000
v 51.030000 34.240000 74.200000
v 51.030000 34.753750 74.200000
v 51.030000 34.240000 75.145000
v 51.030000 34.753750 75.145000
v 51.030000 34.240000 76.090000
v 51.030000 34.753750 76.090000
v 51.030000 34.240000 77.035000
v 51.030000 34.753750 77.035000
v 51.030000 34.240000 77.980000
v 51.030000 34.753750 77.980000
v 51.030000 34.240000 78.925000
v 51.030000 34.753750 78.925000
v 51.030000 34.240000 79.870000
v 51.030000 34.753750 79.870000
v 51.030000 34.240000 80.815000
v 51.030000 34.753750 80.815000
v 51.030000 35.267500 67.585000
v 51.030000 35.267500 66.640000
v 51.030000 35.267500 68.530000
v 51.030000 35.267500 69.475000
v 51.030000 35.267500 70.420000
v 51.030000 35.267500 71.365000
v 51.030000 35.267500 72.310000
v 51.030000 35.267500 73.255000
v 51.030000 35.267500 74.200000
v 51.030000 35.267500 75.145000
v 51.030000 35.267500 76.090000
v 51.030000 35.267500 77.035000
v 51.030000 35.267500 77.980000
v 51.030000 35.267500 78.925000
v 51.030000 35.267500 79.870000
v 51.030000 35.267500 80.815000
v 51.030000 35.781250 67.585000
v 51.030000 35.781250 66.640000
v 51.030000 35.781250 68.530000
v 51.030000 35.781250 69.475000
v 51.030000 35.781250 70.420000
v 51.030000 35.781250 71.365000
v 51.030000 35.781250 72.310000
v 51.030000 35.781250 73.255000
v 51.030000 35.781250 74.200000
v 51.030000 35.781250 75.145000
v 51.030000 35.781250 76.090000
v 51.030000 35.781250 77.035000
v 51.030000 35.781250 77.980000
v 51.030000 35.781250 78.925000
v 51.030000 35.781250 79.870000
v 51.030000 36.295000 67.585000
v 51.030000 36.295000 66.640000
v 51.030000 36.295000 68.530000
v 51.030000 36.295000 69.475000
v 51.030000 36.295000 70.420000
v 51.030000 36.295000 71.365000
v 51.030000 36.295000 72.310000
v 51.030000 36.295000 73.255000
v 51.030000 36.295000 74.200000
v 51.030000 36.295000 75.145000
v 51.030000 36.295000 76.090000
v 51.030000 36.295000 77.035000
v 51.030000 36.295000 77.980000
v 51.030000 36.295000 78.925000
v 51.030000 36.808750 67.585000
v 51.030000 36.808750 66.640000
v 51.030000 36.808750 68.530000
v 51.030000 36.808750 69.475000
v 51.030000 36.808750 70.420000
v 51.030000 36.808750 71.365000
v 51.030000 36.808750 72.310000
v 51.030000 36.808750 73.255000
v 51.030000 36.808750 74.200000
v 51.030000 36.808750 75.145000
v 51.030000 36.808750 76.090000
v 51.030000 36.808750 77.035000
v 51.030000 36.808750 77.980000
v 51.030000 36.808750 78.925000
v 51.030000 37.322500 67.585000
v 51.030000 37.322500 66.640000
v 51.030000 37.322500 68.530000
v 51.030000 37.322500 69.475000
v 51.030000 37.322500 70.420000
v 51.030000 37.322500 71.365000
v 51.030000 37.322500 72.310000
v 51.030000 37.322500 73.255000
v 51.030000 37.322500 74.200000
v 51.030000 37.322500 75.145000
v 51.030000 37.322500 76.090000
v 51.030000 37.322500 77.035000
v 51.030000 37.322500 77.980000
v 51.030000 37.836250 67.585000
v 51.030000 37.836250 66.640000
v 51.030000 37.836250 68.530000
v 51.030000 37.836250 69.475000
v 51.030000 37.836250 70.420000
v 51.030000 37.836250 71.365000
v 51.030000 37.836250 72.310000
v 51.030000 37.836250 73.255000
v 51.030000 37.836250 74.200000
v 51.030000 37.836250 75.145000
v 51.030000 37.836250 76.090000
v 51.030000 37.836250 77.035000
v 51.030000 38.350000 67.585000
v 51.030000 38.350000 66.640000
v 51.030000 38.350000 68.530000
v 51.030000 38.350000 69.475000
v 51.030000 38.350000 70.420000
v 51.030000 38.350000 71.365000
v 51.030000 38.350000 72.310000
v 51.030000 38.350000 73.255000
v 51.030000 38.350000 74.200000
v 51.030000 38.350000 75.145000
v 51.030000 38.350000 76.090000
v 51.030000 38.350000 77.035000
v 51.030000 38.863750 67.585000
v 51.030000 38.863750 66.640000
v 51.030000 38.863750 68.530000
v 51.030000 38.863750 69.475000
v 51.030000 38.863750 70.420000
v 51.030000 38.863750 71.365000
v 51.030000 38.863750 72.310000
v 51.030000 38.863750 73.255000
v 51.030000 38.863750 74.200000
v 51.030000 38.863750 75.145000
v 51.030000 38.863750 76.090000
v 51.030000 39.377500 67.585000
v 51.030000 39.377500 66.640000
v 51.030000 39.377500 68.530000
v 51.030000 39.377500 69.475000
v 51.030000 39.377500 70.420000
v 51.030000 39.377500 71.365000
v 51.030000 39.377500 72.310000
v 51.030000 39.377500 73.255000
v 51.030000 39.377500 74.200000
v 51.030000 39.377500 75.145000
v 51.030000 39.891250 67.585000
v 51.030000 39.891250 66.640000
v 51.030000 39.891250 68.530000
v 51.030000 39.891250 69.475000
v 51.030000 39.891250 70.420000
v 51.030000 39.891250 71.365000
v 51.030000 39.891250 72.310000
v 51.030000 39.891250 73.255000
v 51.030000 39.891250 74.200000
v 51.030000 39.891250 75.145000
v 51.030000 40.405000 67.585000
v 51.030000 40.405000 66.640000
v 51.030000 40.405000 68.530000
v 51.030000 40.405000 69.475000
v 51.030000 40.405000 70.420000
v 51.030000 40.405000 71.365000
v 51.030000 40.405000 72.310000
v 51.030000 40.405000 73.255000
v 51.030000 40.405000 74.200000
v 51.030000 40.918750 67.585000
v 51.030000 40.918750 66.640000
v 51.030000 40.918750 68.530000
v 51.030000 40.918750 69.475000
v 51.030000 40.918750 70.420000
v 51.030000 40.918750 71.365000
v 51.030000 40.918750 72.310000
v 51.030000 40.918750 73.255000
v 51.030000 41.432500 67.585000
v 51.030000 41.432500 66.640000
v 51.030000 41.432500 68.530000
v 51.030000 41.432500 69.475000
v 51.030000 41.432500 70.420000
v 51.030000 41.432500 71.365000
v 51.030000 41.432500 72.310000
v 51.030000 41.432500 73.255000
v 51.030000 41.946250 67.585000
v 51.030000 41.946250 66.640000
v 51.030000 41.946250 68.530000
v 51.030000 41.946250 69.475000
v 51.030000 41.946250 70.420000
v 51.030000 41.946250 71.365000
v 51.030000 41.946250 72.310000
v 51.030000 42.460000 67.585000
v 51.030000 42.460000 66.640000
v 51.030000 42.460000 68.530000
v 51.030000 42.460000 69.475000
v 51.030000 42.460000 70.420000
v 51.030000 42.460000 71.365000
f 1 2 3
f 1 3 4
f 1 5 6
f 1 6 4
f 1 2 7
f 1 7 5
f 4 3 8
f 4 8 9
f 4 6 10
f 4 10 9
f 9 8 11
f 9 11 12
f 9 10 13
f 9 13 12
f 12 11 14
f 12 14 15
f 12 13 16
f 12 16 15
f 15 14 17
f 15 17 18
f 15 16 19
f 15 19 18
f 18 17 20
f 18 20 21
f 18 19 22
f 18 22 21
f 21 20 23
f 21 23 24
f 21 22 25
f 21 25 24
f 24 23 26
f 24 26 27
f 24 25 28
f 24 28 27
f 27 26 29
f 27 29 30
f 27 28 31
f 27 31 30
f 30 29 32
f 30 32 33
f 30 31 34
f 30 34 33
f 33 32 35
f 33 35 36
f 33 34 37
f 33 37 36
f 36 35 38
f 36 38 39
f 36 37 40
f 36 40 39
f 39 38 41
f 39 41 42
f 39 40 43
f 39 43 42
f 42 41 44
f 42 44 45
f 42 43 46
f 42 46 45
f 45 44 47
f 45 47 48
f 45 46 49
f 45 49 48
f 48 49 50
f 48 50 47
f 2 51 52
f 2 52 3
f 2 51 53
f 2 53 7
f 3 52 54
f 3 54 8
f 8 54 55
f 8 55 11
f 11 55 56
f 11 56 14
f 14 56 57
f 14 57 17
f 17 57 58
f 17 58 20
f 20 58 59
f 20 59 23
f 23 59 60
f 23 60 26
f 26 60 61
f 26 61 29
f 29 61 62
f 29 62 32
f 32 62 63
f 32 63 35
f 35 63 64
f 35 64 38
f 38 64 65
f 38 65 41
f 41 65 66
f 41 66 44
f 44 66 67
f 44 67 47
f 66 67 68
f 66 68 69
f 47 50 68
f 47 68 67
f 51 70 71
f 51 71 52
f 51 70 72
f 51 72 53
f 52 71 73
f 52 73 54
f 54 73 74
f 54 74 55
f 55 74 75
f 55 75 56
f 56 75 76
f 56 76 57
f 57 76 77
f 57 77 58
f 58 77 78
f 58 78 59
f 59 78 79
f 59 79 60
f 60 79 80
f 60 80 61
f 61 80 81
f 61 81 62
f 62 81 82
f 62 82 63
f 63 82 83
f 63 83 64
f 64 83 84
f 64 84 65
f 65 84 85
f 65 85 66
f 84 85 86
f 84 86 87
f 66 69 86
f 66 86 85
f 70 88 89
f 70 89 71
f 70 88 90
f 70 90 72
f 71 89 91
f 71 91 73
f 73 91 92
f 73 92 74
f 74 92 93
f 74 93 75
f 75 93 94
f 75 94 76
f 76 94 95
f 76 95 77
f 77 95 96
f 77 96 78
f 78 96 97
f 78 97 79
f 79 97 98
f 79 98 80
f 80 98 99
f 80 99 81
f 81 99 100
f 81 100 82
f 82 100 101
f 82 101 83
f 83 101 102
f 83 102 84
f 84 87 103
f 84 103 102
f 88 104 105
f 88 105 89
f 88 104 106
f 88 106 90
f 89 105 107
f 89 107 91
f 91 107 108
f 91 108 92
f 92 108 109
f 92 109 93
f 93 109 110
f 93 110 94
f 94 110 111
f 94 111 95
f 95 111 112
f 95 112 96
f 96 112 113
f 96 113 97
f 97 113 114
f 97 114 98
f 98 114 115
f 98 115 99
f 99 115 116
f 99 116 100
f 100 116 117
f 100 117 101
f 101 117 118
f 101 118 102
f 117 118 119
f 117 119 120
f 102 103 119
f 102 119 118
f 104 121 122
f 104 122 105
f 104 121 123
f 104 123 106
f 105 122 124
f 105 124 107
f 107 124 125
f 107 125 108
f 108 125 126
f 108 126 109
f 109 126 127
f 109 127 110
f 110 127 128
f 110 128 111
f 111 128 129
f 111 129 112
f 112 129 130
f 112 130 113
f 113 130 131
f 113 131 114
f 114 131 132
f 114 132 115
f 115 132 133
f 115 133 116
f 116 133 134
f 116 134 117
f 133 134 135
f 133 135 136
f 117 120 135
f 117 135 134
f 121 137 138
f 121 138 122
f 121 137 139
f 121 139 123
f 122 138 140
f 122 140 124
f 124 140 141
f 124 141 125
f 125 141 142
f 125 142 126
f 126 142 143
f 126 143 127
f 127 143 144
f 127 144 128
f 128 144 145
f 128 145 129
f 129 145 146
f 129 146 130
f 130 146 147
f 130 147 131
f 131 147 148
f 131 148 132
f 132 148 149
f 132 149 133
f 133 136 150
f 133 150 149
f 137 151 152
f 137 152 138
f 137 151 153
f 137 153 139
f 138 152 154
f 138 154 140
f 140 154 155
f 140 155 141
f 141 155 156
f 141 156 142
f 142 156 157
f 142 157 143
f 143 157 158
f 143 158 144
f 144 158 159
f 144 159 145
f 145 159 160
f 145 160 146
f 146 160 161
f 146 161 147
f 147 161 162
f 147 162 148
f 148 162 163
f 148 163 149
f 162 163 164
f 162 164 165
f 149 150 164
f 149 164 163
f 151 166 167
f 151 167 152
f 151 166 168
f 151 168 153
f 152 167 169
f 152 169 154
f 154 169 170
f 154 170 155
f 155 170 171
f 155 171 156
f 156 171 172
f 156 172 157
f 157 172 173
f 157 173 158
f 158 173 174
f 158 174 159
f 159 174 175
f 159 175 160
f 160 175 176
f 160 176 161
f 161 176 177
f 161 177 162
f 176 177 178
f 176 178 179
f 162 165 178
f 162 178 177
f 166 180 181
f 166 181 167
f 166 180 182
f 166 182 168
f 167 181 183
f 167 183 169
f 169 183 184
f 169 184 170
f 170 184 185
f 170 185 171
f 171 185 186
f 171 186 172
f 172 186 187
f 172 187 173
f 173 187 188
f 173 188 174
f 174 188 189
f 174 189 175
f 175 189 190
f 175 190 176
f 176 179 191
f 176 191 190
f 180 192 193
f 180 193 181
f 180 192 194
f 180 194 182
f 181 193 195
f 181 195 183
f 183 195 196
f 183 196 184
f 184 196 197
f 184 197 185
f 185 197 198
f 185 198 186
f 186 198 199
f 186 199 187
f 187 199 200
f 187 200 188
f 188 200 201
f 188 201 189
f 189 201 202
f 189 202 190
f 201 202 203
f 201 203 204
f 190 191 203
f 190 203 202
f 192 205 206
f 192 206 193
f 192 205 207
f 192 207 194
f 193 206 208
f 193 208 195
f 195 208 209
f 195 209 196
f 196 209 210
f 196 210 197
f 197 210 211
f 197 211 198
f 198 211 212
f 198 212 199
f 199 212 213
f 199 213 200
f 200 213 214
f 200 214 201
f 213 214 215
f 213 215 216
f 201 204 215
f 201 215 214
f 205 217 218
f 205 218 206
f 205 217 219
f 205 219 207
f 206 218 220
f 206 220 208
f 208 220 221
f 208 221 209
f 209 221 222
f 209 222 210
f 210 222 223
f 210 223 211
f 211 223 224
f 211 224 212
f 212 224 225
f 212 225 213
f 213 216 226
f 213 226 225
f 217 227 228
f 217 228 218
f 217 227 229
f 217 229 219
f 218 228 230
f 218 230 220
f 220 230 231
f 220 231 221
f 221 231 232
f 221 232 222
f 222 232 233
f 222 233 223
f 223 233 234
f 223 234 224
f 224 234 235
f 224 235 225
f 234 235 236
f 234 236 237
f 225 226 236
f 225 236 235
f 227 238 239
f 227 239 228
f 227 238 240
f 227 240 229
f 228 239 241
f 228 241 230
f 230 241 242
f 230 242 231
f 231 242 243
f 231 243 232
f 232 243 244
f 232 244 233
f 233 244 245
f 233 245 234
f 244 245 246
f 244 246 247
f 234 237 246
f 234 246 245
f 238 248 249
f 238 249 239
f 248 249 250
f 248 250 251
f 238 248 251
f 238 251 240
f 239 249 252
f 239 252 241
f 249 252 253
f 249 253 250
f 241 252 254
f 241 254 242
f 252 254 255
f 252 255 253
f 242 254 256
f 242 256 243
f 254 256 257
f 254 257 255
f 243 256 258
f 243 258 244
f 256 258 259
f 256 259 257
f 244 247 259
f 244 259 258
f 5 260 261
f 5 261 6
f 5 7 262
f 5 262 260
f 6 261 263
f 6 263 10
f 10 263 264
f 10 264 13
f 13 264 265
f 13 265 16
f 16 265 266
f 16 266 19
f 19 266 267
f 19 267 22
f 22 267 268
f 22 268 25
f 25 268 269
f 25 269 28
f 28 269 270
f 28 270 31
f 31 270 271
f 31 271 34
f 34 271 272
f 34 272 37
f 37 272 273
f 37 273 40
f 40 273 274
f 40 274 43
f 43 274 275
f 43 275 46
f 46 275 276
f 46 276 49
f 49 276 277
f 49 277 50
f 7 53 278
f 7 278 262
f 69 68 279
f 69 279 280
f 50 277 279
f 50 279 68
f 53 72 281
f 53 281 278
f 87 86 282
f 87 282 283
f 69 280 282
f 69 282 86
f 72 90 284
f 72 284 281
f 87 283 285
f 87 285 103
f 90 106 286
f 90 286 284
f 120 119 287
f 120 287 288
f 103 285 287
f 103 287 119
f 106 123 289
f 106 289 286
f 136 135 290
f 136 290 291
f 120 288 290
f 120 290 135
f 123 139 292
f 123 292 289
f 136 291 293
f 136 293 150
f 139 153 294
f 139 294 292
f 165 164 295
f 165 295 296
f 150 293 295
f 150 295 164
f 153 168 297
f 153 297 294
f 179 178 298
f 179 298 299
f 165 296 298
f 165 298 178
f 168 182 300
f 168 300 297
f 179 299 301
f 179 301 191
f 182 194 302
f 182 302 300
f 204 203 303
f 204 303 304
f 191 301 303
f 191 303 203
f 194 207 305
f 194 305 302
f 216 215 306
f 216 306 307
f 204 304 306
f 204 306 215
f 207 219 308
f 207 308 305
f 216 307 309
f 216 309 226
f 219 229 310
f 219 310 308
f 237 236 311
f 237 311 312
f 226 309 311
f 226 311 236
f 229 240 313
f 229 313 310
f 247 246 314
f 247 314 315
f 237 312 314
f 237 314 246
f 251 250 316
f 251 316 317
f 240 251 317
f 240 317 313
f 250 253 318
f 250 318 316
f 253 255 319
f 253 319 318
f 255 257 320
f 255 320 319
f 257 259 321
f 257 321 320
f 247 315 321
f 247 321 259
f 260 322 323
f 260 323 261
f 260 262 324
f 260 324 322
f 261 323 325
f 261 325 263
f 263 325 326
f 263 326 264
f 264 326 327
f 264 327 265
f 265 327 328
f 265 328 266
f 266 328 329
f 266 329 267
f 267 329 330
f 267 330 268
f 268 330 331
f 268 331 269
f 269 331 332
f 269 332 270
f 270 332 333
f 270 333 271
f 271 333 334
f 271 334 272
f 272 334 335
f 272 335 273
f 273 335 336
f 273 336 274
f 274 336 337
f 274 337 275
f 275 337 338
f 275 338 276
f 276 338 339
f 276 339 277
f 262 278 340
f 262 340 324
f 280 279 341
f 280 341 342
f 277 339 341
f 277 341 279
f 278 281 343
f 278 343 340
f 283 282 344
f 283 344 345
f 280 342 344
f 280 344 282
f 281 284 346
f 281 346 343
f 283 345 347
f 283 347 285
f 284 286 348
f 284 348 346
f 288 287 349
f 288 349 350
f 285 347 349
f 285 349 287
f 286 289 351
f 286 351 348
f 291 290 352
f 291 352 353
f 288 350 352
f 288 352 290
f 289 292 354
f 289 354 351
f 291 353 355
f 291 355 293
f 292 294 356
f 292 356 354
f 296 295 357
f 296 357 358
f 293 355 357
f 293 357 295
f 294 297 359
f 294 359 356
f 299 298 360
f 299 360 361
f 296 358 360
f 296 360 298
f 297 300 362
f 297 362 359
f 299 361 363
f 299 363 301
f 300 302 364
f 300 364 362
f 304 303 365
f 304 365 366
f 301 363 365
f 301 365 303
f 302 305 367
f 302 367 364
f 307 306 368
f 307 368 369
f 304 366 368
f 304 368 306
f 305 308 370
f 305 370 367
f 307 369 371
f 307 371 309
f 308 310 372
f 308 372 370
f 312 311 373
f 312 373 374
f 309 371 373
f 309 373 311
f 310 313 375
f 310 375 372
f 315 314 376
f 315 376 377
f 312 374 376
f 312 376 314
f 317 316 378
f 317 378 379
f 313 317 379
f 313 379 375
f 316 318 380
f 316 380 378
f 318 319 381
f 318 381 380
f 319 320 382
f 319 382 381
f 320 321 383
f 320 383 382
f 315 377 383
f 315 383 321
f 322 384 385
f 322 385 323
f 322 324 386
f 322 386 384
f 323 385 387
f 323 387 325
f 325 387 388
f 325 388 326
f 326 388 389
f 326 389 327
f 327 389 390
f 327 390 328
f 328 390 391
f 328 391 329
f 329 391 392
f 329 392 330
f 330 392 393
f 330 393 331
f 331 393 394
f 331 394 332
f 332 394 395
f 332 395 333
f 333 395 396
f 333 396 334
f 334 396 397
f 334 397 335
f 335 397 398
f 335 398 336
f 336 398 399
f 336 399 337
f 337 399 400
f 337 400 338
f 338 400 401
f 338 401 339
f 324 340 402
f 324 402 386
f 342 341 403
f 342 403 404
f 339 401 403
f 339 403 341
f 340 343 405
f 340 405 402
f 345 344 406
f 345 406 407
f 342 404 406
f 342 406 344
f 343 346 408
f 343 408 405
f 345 407 409
f 345 409 347
f 346 348 410
f 346 410 408
f 350 349 411
f 350 411 412
f 347 409 411
f 347 411 349
f 348 351 413
f 348 413 410
f 353 352 414
f 353 414 415
f 350 412 414
f 350 414 352
f 351 354 416
f 351 416 413
f 353 415 417
f 353 417 355
f 354 356 418
f 354 418 416
f 358 357 419
f 358 419 420
f 355 417 419
f 355 419 357
f 356 359 421
f 356 421 418
f 361 360 422
f 361 422 423
f 358 420 422
f 358 422 360
f 359 362 424
f 359 424 421
f 361 423 425
f 361 425 363
f 362 364 426
f 362 426 424
f 366 365 427
f 366 427 428
f 363 425 427
f 363 427 365
f 364 367 429
f 364 429 426
f 369 368 430
f 369 430 431
f 366 428 430
f 366 430 368
f 367 370 432
f 367 432 429
f 369 431 433
f 369 433 371
f 370 372 434
f 370 434 432
f 374 373 435
f 374 435 436
f 371 433 435
f 371 435 373
f 372 375 437
f 372 437 434
f 377 376 438
f 377 438 439
f 374 436 438
f 374 438 376
f 379 378 440
f 379 440 441
f 375 379 441
f 375 441 437
f 378 380 442
f 378 442 440
f 380 381 443
f 380 443 442
f 381 382 444
f 381 444 443
f 382 383 445
f 382 445 444
f 377 439 445
f 377 445 383
f 384 446 447
f 384 447 385
f 384 386 448
f 384 448 446
f 385 447 449
f 385 449 387
f 387 449 450
f 387 450 388
f 388 450 451
f 388 451 389
f 389 451 452
f 389 452 390
f 390 452 453
f 390 453 391
f 391 453 454
f 391 454 392
f 392 454 455
f 392 455 393
f 393 455 456
f 393 456 394
f 394 456 457
f 394 457 395
f 395 457 458
f 395 458 396
f 396 458 459
f 396 459 397
f 397 459 460
f 397 460 398
f 398 460 461
f 398 461 399
f 399 461 462
f 399 462 400
f 400 462 463
f 400 463 401
f 386 402 464
f 386 464 448
f 404 403 465
f 404 465 466
f 401 463 465
f 401 465 403
f 402 405 467
f 402 467 464
f 407 406 468
f 407 468 469
f 404 466 468
f 404 468 406
f 405 408 470
f 405 470 467
f 407 469 471
f 407 471 409
f 408 410 472
f 408 472 470
f 412 411 473
f 412 473 474
f 409 471 473
f 409 473 411
f 410 413 475
f 410 475 472
f 415 414 476
f 415 476 477
f 412 474 476
f 412 476 414
f 413 416 478
f 413 478 475
f 415 477 479
f 415 479 417
f 416 418 480
f 416 480 478
f 420 419 481
f 420 481 482
f 417 479 481
f 417 481 419
f 418 421 483
f 418 483 480
f 423 422 484
f 423 484 485
f 420 482 484
f 420 484 422
f 421 424 486
f 421 486 483
f 423 485 487
f 423 487 425
f 424 426 488
f 424 488 486
f 428 427 489
f 428 489 490
f 425 487 489
f 425 489 427
f 426 429 491
f 426 491 488
f 431 430 492
f 431 492 493
f 428 490 492
f 428 492 430
f 429 432 494
f 429 494 491
f 431 493 495
f 431 495 433
f 432 434 496
f 432 496 494
f 436 435 497
f 436 497 498
f 433 495 497
f 433 497 435
f 434 437 499
f 434 499 496
f 439 438 500
f 439 500 501
f 436 498 500
f 436 500 438
f 441 440 502
f 441 502 503
f 437 441 503
f 437 503 499
f 440 442 504
f 440 504 502
f 442 443 505
f 442 505 504
f 443 444 506
f 443 506 505
f 444 445 507
f 444 507 506
f 439 501 507
f 439 507 445
f 446 508 509
f 446 509 447
f 446 448 510
f 446 510 508
f 447 509 511
f 447 511 449
f 449 511 512
f 449 512 450
f 450 512 513
f 450 513 451
f 451 513 514
f 451 514 452
f 452 514 515
f 452 515 453
f 453 515 516
f 453 516 454
f 454 516 517
f 454 517 455
f 455 517 518
f 455 518 456
f 456 518 519
f 456 519 457
f 457 519 520
f 457 520 458
f 458 520 521
f 458 521 459
f 459 521 522
f 459 522 460
f 460 522 523
f 460 523 461
f 461 523 524
f 461 524 462
f 462 524 525
f 462 525 463
f 448 464 526
f 448 526 510
f 466 465 527
f 466 527 528
f 463 525 527
f 463 527 465
f 464 467 529
f 464 529 526
f 469 468 530
f 469 530 531
f 466 528 530
f 466 530 468
f 467 470 532
f 467 532 529
f 469 531 533
f 469 533 471
f 470 472 534
f 470 534 532
f 474 473 535
f 474 535 536
f 471 533 535
f 471 535 473
f 472 475 537
f 472 537 534
f 477 476 538
f 477 538 539
f 474 536 538
f 474 538 476
f 475 478 540
f 475 540 537
f 477 539 541
f 477 541 479
f 478 480 542
f 478 542 540
f 482 481 543
f 482 543 544
f 479 541 543
f 479 543 481
f 480 483 545
f 480 545 542
f 485 484 546
f 485 546 547
f 482 544 546
f 482 546 484
f 483 486 548
f 483 548 545
f 485 547 549
f 485 549 487
f 486 488 550
f 486 550 548
f 490 489 551
f 490 551 552
f 487 549 551
f 487 551 489
f 488 491 553
f 488 553 550
f 493 492 554
f 493 554 555
f 490 552 554
f 490 554 492
f 491 494 556
f 491 556 553
f 493 555 557
f 493 557 495
f 494 496 558
f 494 558 556
f 498 497 559
f 498 559 560
f 495 557 559
f 495 559 497
f 496 499 561
f 496 561 558
f 501 500 562
f 501 562 563
f 498 560 562
f 498 562 500
f 503 502 564
f 503 564 565
f 499 503 565
f 499 565 561
f 502 504 566
f 502 566 564
f 504 505 567
f 504 567 566
f 505 506 568
f 505 568 567
f 506 507 569
f 506 569 568
f 501 563 569
f 501 569 507
f 508 570 571
f 508 571 509
f 508 510 572
f 508 572 570
f 509 571 573
f 509 573 511
f 511 573 574
f 511 574 512
f 512 574 575
f 512 575 513
f 513 575 576
f 513 576 514
f 514 576 577
f 514 577 515
f 515 577 578
f 515 578 516
f 516 578 579
f 516 579 517
f 517 579 580
f 517 580 518
f 518 580 581
f 518 581 519
f 519 581 582
f 519 582 520
f 520 582 583
f 520 583 521
f 521 583 584
f 521 584 522
f 522 584 585
f 522 585 523
f 523 585 586
f 523 586 524
f 524 586 587
f 524 587 525
f 510 526 588
f 510 588 572
f 528 527 589
f 528 589 590
f 525 587 589
f 525 589 527
f 526 529 591
f 526 591 588
f 531 530 592
f 531 592 593
f 528 590 592
f 528 592 530
f 529 532 594
f 529 594 591
f 531 593 595
f 531 595 533
f 532 534 596
f 532 596 594
f 536 535 597
f 536 597 598
f 533 595 597
f 533 597 535
f 534 537 599
f 534 599 596
f 539 538 600
f 539 600 601
f 536 598 600
f 536 600 538
f 537 540 602
f 537 602 599
f 539 601 603
f 539 603 541
f 540 542 604
f 540 604 602
f 544 543 605
f 544 605 606
f 541 603 605
f 541 605 543
f 542 545 607
f 542 607 604
f 547 546 608
f 547 608 609
f 544 606 608
f 544 608 546
f 545 548 610
f 545 610 607
f 547 609 611
f 547 611 549
f 548 550 612
f 548 612 610
f 552 551 613
f 552 613 614
f 549 611 613
f 549 613 551
f 550 553 615
f 550 615 612
f 555 554 616
f 555 616 617
f 552 614 616
f 552 616 554
f 553 556 618
f 553 618 615
f 555 617 619
f 555 619 557
f 556 558 620
f 556 620 618
f 560 559 621
f 560 621 622
f 557 619 621
f 557 621 559
f 558 561 623
f 558 623 620
f 563 562 624
f 563 624 625
f 560 622 624
f 560 624 562
f 565 564 626
f 565 626 627
f 561 565 627
f 561 627 623
f 564 566 628
f 564 628 626
f 566 567 629
f 566 629 628
f 567 568 630
f 567 630 629
f 568 569 631
f 568 631 630
f 563 625 631
f 563 631 569
f 570 632 633
f 570 633 571
f 570 572 634
f 570 634 632
f 571 633 635
f 571 635 573
f 573 635 636
f 573 636 574
f 574 636 637
f 574 637 575
f 575 637 638
f 575 638 576
f 576 638 639
f 576 639 577
f 577 639 640
f 577 640 578
f 578 640 641
f 578 641 579
f 579 641 642
f 579 642 580
f 580 642 643
f 580 643 581
f 581 643 644
f 581 644 582
f 582 644 645
f 582 645 583
f 583 645 646
f 583 646 584
f 584 646 647
f 584 647 585
f 585 647 648
f 585 648 586
f 586 648 649
f 586 649 587
f 572 588 650
f 572 650 634
f 590 589 651
f 590 651 652
f 587 649 651
f 587 651 589
f 588 591 653
f 588 653 650
f 593 592 654
f 593 654 655
f 590 652 654
f 590 654 592
f 591 594 656
f 591 656 653
f 593 655 657
f 593 657 595
f 594 596 658
f 594 658 656
f 598 597 659
f 598 659 660
f 595 657 659
f 595 659 597
f 596 599 661
f 596 661 658
f 601 600 662
f 601 662 663
f 598 660 662
f 598 662 600
f 599 602 664
f 599 664 661
f 601 663 665
f 601 665 603
f 602 604 666
f 602 666 664
f 606 605 667
f 606 667 668
f 603 665 667
f 603 667 605
f 604 607 669
f 604 669 666
f 609 608 670
f 609 670 671
f 606 668 670
f 606 670 608
f 607 610 672
f 607 672 669
f 609 671 673
f 609 673 611
f 610 612 674
f 610 674 672
f 614 613 675
f 614 675 676
f 611 673 675
f 611 675 613
f 612 615 677
f 612 677 674
f 617 616 678
f 617 678 679
f 614 676 678
f 614 678 616
f 615 618 680
f 615 680 677
f 617 679 681
f 617 681 619
f 618 620 682
f 618 682 680
f 622 621 683
f 622 683 684
f 619 681 683
f 619 683 621
f 620 623 685
f 620 685 682
f 625 624 686
f 625 686 687
f 622 684 686
f 622 686 624
f 627 626 688
f 627 688 689
f 623 627 689
f 623 689 685
f 626 628 690
f 626 690 688
f 628 629 691
f 628 691 690
f 629 630 692
f 629 692 691
f 630 631 693
f 630 693 692
f 625 687 693
f 625 693 631
f 632 694 695
f 632 695 633
f 632 634 696
f 632 696 694
f 633 695 697
f 633 697 635
f 635 697 698
f 635 698 636
f 636 698 699
f 636 699 637
f 637 699 700
f 637 700 638
f 638 700 701
f 638 701 639
f 639 701 702
f 639 702 640
f 640 702 703
f 640 703 641
f 641 703 704
f 641 704 642
f 642 704 705
f 642 705 643
f 643 705 706
f 643 706 644
f 644 706 707
f 644 707 645
f 645 707 708
f 645 708 646
f 646 708 709
f 646 709 647
f 647 709 710
f 647 710 648
f 648 710 711
f 648 711 649
f 634 650 712
f 634 712 696
f 652 651 713
f 652 713 714
f 649 711 713
f 649 713 651
f 650 653 715
f 650 715 712
f 655 654 716
f 655 716 717
f 652 714 716
f 652 716 654
f 653 656 718
f 653 718 715
f 655 717 719
f 655 719 657
f 656 658 720
f 656 720 718
f 660 659 721
f 660 721 722
f 657 719 721
f 657 721 659
f 658 661 723
f 658 723 720
f 663 662 724
f 663 724 725
f 660 722 724
f 660 724 662
f 661 664 726
f 661 726 723
f 663 725 727
f 663 727 665
f 664 666 728
f 664 728 726
f 668 667 729
f 668 729 730
f 665 727 729
f 665 729 667
f 666 669 731
f 666 731 728
f 671 670 732
f 671 732 733
f 668 730 732
f 668 732 670
f 669 672 734
f 669 734 731
f 671 733 735
f 671 735 673
f 672 674 736
f 672 736 734
f 676 675 737
f 676 737 738
f 673 735 737
f 673 737 675
f 674 677 739
f 674 739 736
f 679 678 740
f 679 740 741
f 676 738 740
f 676 740 678
f 677 680 742
f 677 742 739
f 679 741 743
f 679 743 681
f 680 682 744
f 680 744 742
f 684 683 745
f 684 745 746
f 681 743 745
f 681 745 683
f 682 685 747
f 682 747 744
f 687 686 748
f 687 748 749
f 684 746 748
f 684 748 686
f 689 688 750
f 689 750 751
f 685 689 751
f 685 751 747
f 688 690 752
f 688 752 750
f 690 691 753
f 690 753 752
f 691 692 754
f 691 754 753
f 692 693 755
f 692 755 754
f 687 749 755
f 687 755 693
f 694 756 757
f 694 757 695
f 694 696 758
f 694 758 756
f 695 757 759
f 695 759 697
f 697 759 760
f 697 760 698
f 698 760 761
f 698 761 699
f 699 761 762
f 699 762 700
f 700 762 763
f 700 763 701
f 701 763 764
f 701 764 702
f 702 764 765
f 702 765 703
f 703 765 766
f 703 766 704
f 704 766 767
f 704 767 705
f 705 767 768
f 705 768 706
f 706 768 769
f 706 769 707
f 707 769 770
f 707 770 708
f 708 770 771
f 708 771 709
f 709 771 772
f 709 772 710
f 710 772 773
f 710 773 711
f 696 712 774
f 696 774 758
f 714 713 775
f 714 775 776
f 711 773 775
f 711 775 713
f 712 715 777
f 712 777 774
f 717 716 778
f 717 778 779
f 714 776 778
f 714 778 716
f 715 718 780
f 715 780 777
f 717 779 781
f 717 781 719
f 718 720 782
f 718 782 780
f 722 721 783
f 722 783 784
f 719 781 783
f 719 783 721
f 720 723 785
f 720 785 782
f 725 724 786
f 725 786 787
f 722 784 786
f 722 786 724
f 723 726 788
f 723 788 785
f 725 787 789
f 725 789 727
f 726 728 790
f 726 790 788
f 730 729 791
f 730 791 792
f 727 789 791
f 727 791 729
f 728 731 793
f 728 793 790
f 733 732 794
f 733 794 795
f 730 792 794
f 730 794 732
f 731 734 796
f 731 796 793
f 733 795 797
f 733 797 735
f 734 736 798
f 734 798 796
f 738 737 799
f 738 799 800
f 735 797 799
f 735 799 737
f 736 739 801
f 736 801 798
f 741 740 802
f 741 802 803
f 738 800 802
f 738 802 740
f 739 742 804
f 739 804 801
f 741 803 805
f 741 805 743
f 742 744 806
f 742 806 804
f 746 745 807
f 746 807 808
f 743 805 807
f 743 807 745
f 744 747 809
f 744 809 806
f 749 748 810
f 749 810 811
f 746 808 810
f 746 810 748
f 751 750 812
f 751 812 813
f 747 751 813
f 747 813 809
f 750 752 814
f 750 814 812
f 752 753 815
f 752 815 814
f 753 754 816
f 753 816 815
f 754 755 817
f 754 817 816
f 749 811 817
f 749 817 755
f 756 818 819
f 756 819 757
f 756 758 820
f 756 820 818
f 757 819 821
f 757 821 759
f 759 821 822
f 759 822 760
f 760 822 823
f 760 823 761
f 761 823 824
f 761 824 762
f 762 824 825
f 762 825 763
f 763 825 826
f 763 826 764
f 764 826 827
f 764 827 765
f 765 827 828
f 765 828 766
f 766 828 829
f 766 829 767
f 767 829 830
f 767 830 768
f 768 830 831
f 768 831 769
f 769 831 832
f 769 832 770
f 770 832 833
f 770 833 771
f 771 833 834
f 771 834 772
f 772 834 835
f 772 835 773
f 758 774 836
f 758 836 820
f 776 775 837
f 776 837 838
f 773 835 837
f 773 837 775
f 774 777 839
f 774 839 836
f 779 778 840
f 779 840 841
f 776 838 840
f 776 840 778
f 777 780 842
f 777 842 839
f 779 841 843
f 779 843 781
f 780 782 844
f 780 844 842
f 784 783 845
f 784 845 846
f 781 843 845
f 781 845 783
f 782 785 847
f 782 847 844
f 787 786 848
f 787 848 849
f 784 846 848
f 784 848 786
f 785 788 850
f 785 850 847
f 787 849 851
f 787 851 789
f 788 790 852
f 788 852 850
f 792 791 853
f 792 853 854
f 789 851 853
f 789 853 791
f 790 793 855
f 790 855 852
f 795 794 856
f 795 856 857
f 792 854 856
f 792 856 794
f 793 796 858
f 793 858 855
f 795 857 859
f 795 859 797
f 796 798 860
f 796 860 858
f 800 799 861
f 800 861 862
f 797 859 861
f 797 861 799
f 798 801 863
f 798 863 860
f 803 802 864
f 803 864 865
f 800 862 864
f 800 864 802
f 801 804 866
f 801 866 863
f 803 865 867
f 803 867 805
f 804 806 868
f 804 868 866
f 808 807 869
f 808 869 870
f 805 867 869
f 805 869 807
f 806 809 871
f 806 871 868
f 811 810 872
f 811 872 873
f 808 870 872
f 808 872 810
f 813 812 874
f 813 874 875
f 809 813 875
f 809 875 871
f 812 814 876
f 812 876 874
f 814 815 877
f 814 877 876
f 815 816 878
f 815 878 877
f 816 817 879
f 816 879 878
f 811 873 879
f 811 879 817
f 818 880 881
f 818 881 819
f 818 820 882
f 818 882 880
f 819 881 883
f 819 883 821
f 821 883 884
f 821 884 822
f 822 884 885
f 822 885 823
f 823 885 886
f 823 886 824
f 824 886 887
f 824 887 825
f 825 887 888
f 825 888 826
f 826 888 889
f 826 889 827
f 827 889 890
f 827 890 828
f 828 890 891
f 828 891 829
f 829 891 892
f 829 892 830
f 830 892 893
f 830 893 831
f 831 893 894
f 831 894 832
f 832 894 895
f 832 895 833
f 833 895 896
f 833 896 834
f 834 896 897
f 834 897 835
f 820 836 898
f 820 898 882
f 838 837 899
f 838 899 900
f 835 897 899
f 835 899 837
f 836 839 901
f 836 901 898
f 841 840 902
f 841 902 903
f 838 900 902
f 838 902 840
f 839 842 904
f 839 904 901
f 841 903 905
f 841 905 843
f 842 844 906
f 842 906 904
f 846 845 907
f 846 907 908
f 843 905 907
f 843 907 845
f 844 847 909
f 844 909 906
f 849 848 910
f 849 910 911
f 846 908 910
f 846 910 848
f 847 850 912
f 847 912 909
f 849 911 913
f 849 913 851
f 850 852 914
f 850 914 912
f 854 853 915
f 854 915 916
f 851 913 915
f 851 915 853
f 852 855 917
f 852 917 914
f 857 856 918
f 857 918 919
f 854 916 918
f 854 918 856
f 855 858 920
f 855 920 917
f 857 919 921
f 857 921 859
f 858 860 922
f 858 922 920
f 862 861 923
f 862 923 924
f 859 921 923
f 859 923 861
f 860 863 925
f 860 925 922
f 865 864 926
f 865 926 927
f 862 924 926
f 862 926 864
f 863 866 928
f 863 928 925
f 865 927 929
f 865 929 867
f 866 868 930
f 866 930 928
f 870 869 931
f 870 931 932
f 867 929 931
f 867 931 869
f 868 871 933
f 868 933 930
f 873 872 934
f 873 934 935
f 870 932 934
f 870 934 872
f 875 874 936
f 875 936 937
f 871 875 937
f 871 937 933
f 874 876 938
f 874 938 936
f 876 877 939
f 876 939 938
f 877 878 940
f 877 940 939
f 878 879 941
f 878 941 940
f 873 935 941
f 873 941 879
f 880 942 943
f 880 943 881
f 880 882 944
f 880 944 942
f 881 943 945
f 881 945 883
f 883 945 946
f 883 946 884
f 884 946 947
f 884 947 885
f 885 947 948
f 885 948 886
f 886 948 949
f 886 949 887
f 887 949 950
f 887 950 888
f 888 950 951
f 888 951 889
f 889 951 952
f 889 952 890
f 890 952 953
f 890 953 891
f 891 953 954
f 891 954 892
f 892 954 955
f 892 955 893
f 893 955 956
f 893 956 894
f 894 956 957
f 894 957 895
f 895 957 958
f 895 958 896
f 896 958 959
f 896 959 897
f 882 898 960
f 882 960 944
f 900 899 961
f 900 961 962
f 897 959 961
f 897 961 899
f 898 901 963
f 898 963 960
f 903 902 964
f 903 964 965
f 900 962 964
f 900 964 902
f 901 904 966
f 901 966 963
f 903 965 967
f 903 967 905
f 904 906 968
f 904 968 966
f 908 907 969
f 908 969 970
f 905 967 969
f 905 969 907
f 906 909 971
f 906 971 968
f 911 910 972
f 911 972 973
f 908 970 972
f 908 972 910
f 909 912 974
f 909 974 971
f 911 973 975
f 911 975 913
f 912 914 976
f 912 976 974
f 916 915 977
f 916 977 978
f 913 975 977
f 913 977 915
f 914 917 979
f 914 979 976
f 919 918 980
f 919 980 981
f 916 978 980
f 916 980 918
f 917 920 982
f 917 982 979
f 919 981 983
f 919 983 921
f 920 922 984
f 920 984 982
f 924 923 985
f 924 985 986
f 921 983 985
f 921 985 923
f 922 925 987
f 922 987 984
f 927 926 988
f 927 988 989
f 924 986 988
f 924 988 926
f 925 928 990
f 925 990 987
f 927 989 991
f 927 991 929
f 928 930 992
f 928 992 990
f 932 931 993
f 932 993 994
f 929 991 993
f 929 993 931
f 930 933 995
f 930 995 992
f 935 934 996
f 935 996 997
f 932 994 996
f 932 996 934
f 937 936 998
f 937 998 999
f 933 937 999
f 933 999 995
f 936 938 1000
f 936 1000 998
f 938 939 1001
f 938 1001 1000
f 939 940 1002
f 939 1002 1001
f 940 941 1003
f 940 1003 1002
f 935 997 1003
f 935 1003 941
f 1004 1005 1006
f 1004 1006 1007
f 942 1004 1005
f 942 1005 943
f 942 944 1007
f 942 1007 1004
f 1005 1008 1009
f 1005 1009 1006
f 943 1005 1008
f 943 1008 945
f 1008 1010 1011
f 1008 1011 1009
f 945 1008 1010
f 945 1010 946
f 1010 1012 1013
f 1010 1013 1011
f 946 1010 1012
f 946 1012 947
f 1012 1014 1015
f 1012 1015 1013
f 947 1012 1014
f 947 1014 948
f 1014 1016 1017
f 1014 1017 1015
f 948 1014 1016
f 948 1016 949
f 1016 1018 1019
f 1016 1019 1017
f 949 1016 1018
f 949 1018 950
f 1018 1020 1021
f 1018 1021 1019
f 950 1018 1020
f 950 1020 951
f 1020 1022 1023
f 1020 1023 1021
f 951 1020 1022
f 951 1022 952
f 1022 1024 1025
f 1022 1025 1023
f 952 1022 1024
f 952 1024 953
f 1024 1026 1027
f 1024 1027 1025
f 953 1024 1026
f 953 1026 954
f 1026 1028 1029
f 1026 1029 1027
f 954 1026 1028
f 954 1028 955
f 1028 1030 1031
f 1028 1031 1029
f 955 1028 1030
f 955 1030 956
f 1030 1032 1033
f 1030 1033 1031
f 956 1030 1032
f 956 1032 957
f 1032 1034 1035
f 1032 1035 1033
f 957 1032 1034
f 957 1034 958
f 958 1034 1035
f 958 1035 959
f 1007 1006 1036
f 1007 1036 1037
f 944 960 1037
f 944 1037 1007
f 1006 1009 1038
f 1006 1038 1036
f 1009 1011 1039
f 1009 1039 1038
f 1011 1013 1040
f 1011 1040 1039
f 1013 1015 1041
f 1013 1041 1040
f 1015 1017 1042
f 1015 1042 1041
f 1017 1019 1043
f 1017 1043 1042
f 1019 1021 1044
f 1019 1044 1043
f 1021 1023 1045
f 1021 1045 1044
f 1023 1025 1046
f 1023 1046 1045
f 1025 1027 1047
f 1025 1047 1046
f 1027 1029 1048
f 1027 1048 1047
f 1029 1031 1049
f 1029 1049 1048
f 1031 1033 1050
f 1031 1050 1049
f 1033 1035 1051
f 1033 1051 1050
f 962 961 1051
f 962 1051 1050
f 959 1035 1051
f 959 1051 961
f 1037 1036 1052
f 1037 1052 1053
f 960 963 1053
f 960 1053 1037
f 1036 1038 1054
f 1036 1054 1052
f 1038 1039 1055
f 1038 1055 1054
f 1039 1040 1056
f 1039 1056 1055
f 1040 1041 1057
f 1040 1057 1056
f 1041 1042 1058
f 1041 1058 1057
f 1042 1043 1059
f 1042 1059 1058
f 1043 1044 1060
f 1043 1060 1059
f 1044 1045 1061
f 1044 1061 1060
f 1045 1046 1062
f 1045 1062 1061
f 1046 1047 1063
f 1046 1063 1062
f 1047 1048 1064
f 1047 1064 1063
f 1048 1049 1065
f 1048 1065 1064
f 1049 1050 1066
f 1049 1066 1065
f 965 964 1066
f 965 1066 1065
f 962 1050 1066
f 962 1066 964
f 1053 1052 1067
f 1053 1067 1068
f 963 966 1068
f 963 1068 1053
f 1052 1054 1069
f 1052 1069 1067
f 1054 1055 1070
f 1054 1070 1069
f 1055 1056 1071
f 1055 1071 1070
f 1056 1057 1072
f 1056 1072 1071
f 1057 1058 1073
f 1057 1073 1072
f 1058 1059 1074
f 1058 1074 1073
f 1059 1060 1075
f 1059 1075 1074
f 1060 1061 1076
f 1060 1076 1075
f 1061 1062 1077
f 1061 1077 1076
f 1062 1063 1078
f 1062 1078 1077
f 1063 1064 1079
f 1063 1079 1078
f 1064 1065 1080
f 1064 1080 1079
f 965 1065 1080
f 965 1080 967
f 1068 1067 1081
f 1068 1081 1082
f 966 968 1082
f 966 1082 1068
f 1067 1069 1083
f 1067 1083 1081
f 1069 1070 1084
f 1069 1084 1083
f 1070 1071 1085
f 1070 1085 1084
f 1071 1072 1086
f 1071 1086 1085
f 1072 1073 1087
f 1072 1087 1086
f 1073 1074 1088
f 1073 1088 1087
f 1074 1075 1089
f 1074 1089 1088
f 1075 1076 1090
f 1075 1090 1089
f 1076 1077 1091
f 1076 1091 1090
f 1077 1078 1092
f 1077 1092 1091
f 1078 1079 1093
f 1078 1093 1092
f 1079 1080 1094
f 1079 1094 1093
f 970 969 1094
f 970 1094 1093
f 967 1080 1094
f 967 1094 969
f 1082 1081 1095
f 1082 1095 1096
f 968 971 1096
f 968 1096 1082
f 1081 1083 1097
f 1081 1097 1095
f 1083 1084 1098
f 1083 1098 1097
f 1084 1085 1099
f 1084 1099 1098
f 1085 1086 1100
f 1085 1100 1099
f 1086 1087 1101
f 1086 1101 1100
f 1087 1088 1102
f 1087 1102 1101
f 1088 1089 1103
f 1088 1103 1102
f 1089 1090 1104
f 1089 1104 1103
f 1090 1091 1105
f 1090 1105 1104
f 1091 1092 1106
f 1091 1106 1105
f 1092 1093 1107
f 1092 1107 1106
f 973 972 1107
f 973 1107 1106
f 970 1093 1107
f 970 1107 972
f 1096 1095 1108
f 1096 1108 1109
f 971 974 1109
f 971 1109 1096
f 1095 1097 1110
f 1095 1110 1108
f 1097 1098 1111
f 1097 1111 1110
f 1098 1099 1112
f 1098 1112 1111
f 1099 1100 1113
f 1099 1113 1112
f 1100 1101 1114
f 1100 1114 1113
f 1101 1102 1115
f 1101 1115 1114
f 1102 1103 1116
f 1102 1116 1115
f 1103 1104 1117
f 1103 1117 1116
f 1104 1105 1118
f 1104 1118 1117
f 1105 1106 1119
f 1105 1119 1118
f 973 1106 1119
f 973 1119 975
f 1109 1108 1120
f 1109 1120 1121
f 974 976 1121
f 974 1121 1109
f 1108 1110 1122
f 1108 1122 1120
f 1110 1111 1123
f 1110 1123 1122
f 1111 1112 1124
f 1111 1124 1123
f 1112 1113 1125
f 1112 1125 1124
f 1113 1114 1126
f 1113 1126 1125
f 1114 1115 1127
f 1114 1127 1126
f 1115 1116 1128
f 1115 1128 1127
f 1116 1117 1129
f 1116 1129 1128
f 1117 1118 1130
f 1117 1130 1129
f 1118 1119 1131
f 1118 1131 1130
f 978 977 1131
f 978 1131 1130
f 975 1119 1131
f 975 1131 977
f 1121 1120 1132
f 1121 1132 1133
f 976 979 1133
f 976 1133 1121
f 1120 1122 1134
f 1120 1134 1132
f 1122 1123 1135
f 1122 1135 1134
f 1123 1124 1136
f 1123 1136 1135
f 1124 1125 1137
f 1124 1137 1136
f 1125 1126 1138
f 1125 1138 1137
f 1126 1127 1139
f 1126 1139 1138
f 1127 1128 1140
f 1127 1140 1139
f 1128 1129 1141
f 1128 1141 1140
f 1129 1130 1142
f 1129 1142 1141
f 981 980 1142
f 981 1142 1141
f 978 1130 1142
f 978 1142 980
f 1133 1132 1143
f 1133 1143 1144
f 979 982 1144
f 979 1144 1133
f 1132 1134 1145
f 1132 1145 1143
f 1134 1135 1146
f 1134 1146 1145
f 1135 1136 1147
f 1135 1147 1146
f 1136 1137 1148
f 1136 1148 1147
f 1137 1138 1149
f 1137 1149 1148
f 1138 1139 1150
f 1138 1150 1149
f 1139 1140 1151
f 1139 1151 1150
f 1140 1141 1152
f 1140 1152 1151
f 981 1141 1152
f 981 1152 983
f 1144 1143 1153
f 1144 1153 1154
f 982 984 1154
f 982 1154 1144
f 1143 1145 1155
f 1143 1155 1153
f 1145 1146 1156
f 1145 1156 1155
f 1146 1147 1157
f 1146 1157 1156
f 1147 1148 1158
f 1147 1158 1157
f 1148 1149 1159
f 1148 1159 1158
f 1149 1150 1160
f 1149 1160 1159
f 1150 1151 1161
f 1150 1161 1160
f 1151 1152 1162
f 1151 1162 1161
f 986 985 1162
f 986 1162 1161
f 983 1152 1162
f 983 1162 985
f 1154 1153 1163
f 1154 1163 1164
f 984 987 1164
f 984 1164 1154
f 1153 1155 1165
f 1153 1165 1163
f 1155 1156 1166
f 1155 1166 1165
f 1156 1157 1167
f 1156 1167 1166
f 1157 1158 1168
f 1157 1168 1167
f 1158 1159 1169
f 1158 1169 1168
f 1159 1160 1170
f 1159 1170 1169
f 1160 1161 1171
f 1160 1171 1170
f 989 988 1171
f 989 1171 1170
f 986 1161 1171
f 986 1171 988
f 1164 1163 1172
f 1164 1172 1173
f 987 990 1173
f 987 1173 1164
f 1163 1165 1174
f 1163 1174 1172
f 1165 1166 1175
f 1165 1175 1174
f 1166 1167 1176
f 1166 1176 1175
f 1167 1168 1177
f 1167 1177 1176
f 1168 1169 1178
f 1168 1178 1177
f 1169 1170 1179
f 1169 1179 1178
f 989 1170 1179
f 989 1179 991
f 1173 1172 1180
f 1173 1180 1181
f 990 992 1181
f 990 1181 1173
f 1172 1174 1182
f 1172 1182 1180
f 1174 1175 1183
f 1174 1183 1182
f 1175 1176 1184
f 1175 1184 1183
f 1176 1177 1185
f 1176 1185 1184
f 1177 1178 1186
f 1177 1186 1185
f 1178 1179 1187
f 1178 1187 1186
f 994 993 1187
f 994 1187 1186
f 991 1179 1187
f 991 1187 993
f 1181 1180 1188
f 1181 1188 1189
f 992 995 1189
f 992 1189 1181
f 1180 1182 1190
f 1180 1190 1188
f 1182 1183 1191
f 1182 1191 1190
f 1183 1184 1192
f 1183 1192 1191
f 1184 1185 1193
f 1184 1193 1192
f 1185 1186 1194
f 1185 1194 1193
f 997 996 1194
f 997 1194 1193
f 994 1186 1194
f 994 1194 996
f 1189 1188 1195
f 1189 1195 1196
f 999 998 1195
f 999 1195 1196
f 995 999 1196
f 995 1196 1189
f 1188 1190 1197
f 1188 1197 1195
f 998 1000 1197
f 998 1197 1195
f 1190 1191 1198
f 1190 1198 1197
f 1000 1001 1198
f 1000 1198 1197
f 1191 1192 1199
f 1191 1199 1198
f 1001 1002 1199
f 1001 1199 1198
f 1192 1193 1200
f 1192 1200 1199
f 1002 1003 1200
f 1002 1200 1199
f 997 1193 1200
f 997 1200 1003
