o [4B] 3D Diagram - S2-06 Group C_97
v -55.000000 0.000000 131.220000
v -52.729167 0.000000 131.220000
v -50.458333 0.000000 131.220000
v -48.187500 0.000000 131.220000
v -45.916667 0.000000 131.220000
v -43.645833 0.000000 131.220000
v -41.375000 0.000000 131.220000
v -39.104167 0.000000 131.220000
v -36.833333 0.000000 131.220000
v -34.562500 0.000000 131.220000
v -32.291667 0.000000 131.220000
v -30.020833 0.000000 131.220000
v -27.750000 0.000000 131.220000
v -25.479167 0.000000 131.220000
v -23.208333 0.000000 131.220000
v -20.937500 0.000000 131.220000
v -18.666667 0.000000 131.220000
v -16.395833 0.000000 131.220000
v -14.125000 0.000000 131.220000
v -11.854167 0.000000 131.220000
v -9.583333 0.000000 131.220000
v -7.312500 0.000000 131.220000
v -5.041667 0.000000 131.220000
v -2.770833 0.000000 131.220000
v -0.500000 0.000000 131.220000
v 1.770833 0.000000 131.220000
v 4.041667 0.000000 131.220000
v 6.312500 0.000000 131.220000
v 8.583333 0.000000 131.220000
v 10.854167 0.000000 131.220000
v 13.125000 0.000000 131.220000
v 15.395833 0.000000 131.220000
v 17.666667 0.000000 131.220000
v 19.937500 0.000000 131.220000
v 22.208333 0.000000 131.220000
v 24.479167 0.000000 131.220000
v 26.750000 0.000000 131.220000
v 29.020833 0.000000 131.220000
v 31.291667 0.000000 131.220000
v 33.562500 0.000000 131.220000
v 35.833333 0.000000 131.220000
v 38.104167 0.000000 131.220000
v 40.375000 0.000000 131.220000
v 42.645833 0.000000 131.220000
v 44.916667 0.000000 131.220000
v 47.187500 0.000000 131.220000
v 49.458333 0.000000 131.220000
v 51.729167 0.000000 131.220000
v 54.000000 0.000000 131.220000
v -55.000000 2.083333 127.866701
v -52.729167 2.083333 127.866701
v -50.458333 2.083333 127.866701
v -48.187500 2.083333 127.866701
v -45.916667 2.083333 127.866701
v -43.645833 2.083333 127.866701
v -41.375000 2.083333 127.866701
v -39.104167 2.083333 127.866701
v -36.833333 2.083333 127.866701
v -34.562500 2.083333 127.866701
v -32.291667 2.083333 127.866701
v -30.020833 2.083333 127.866701
v -27.750000 2.083333 127.866701
v -25.479167 2.083333 127.866701
v -23.208333 2.083333 127.866701
v -20.937500 2.083333 127.866701
v -18.666667 2.083333 127.866701
v -16.395833 2.083333 127.866701
v -14.125000 2.083333 127.866701
v -11.854167 2.083333 127.866701
v -9.583333 2.083333 127.866701
v -7.312500 2.083333 127.866701
v -5.041667 2.083333 127.866701
v -2.770833 2.083333 127.866701
v -0.500000 2.083333 127.866701
v 1.770833 2.083333 127.866701
v 4.041667 2.083333 127.866701
v 6.312500 2.083333 127.866701
v 8.583333 2.083333 127.866701
v 10.854167 2.083333 127.866701
v 13.125000 2.083333 127.866701
v 15.395833 2.083333 127.866701
v 17.666667 2.083333 127.866701
v 19.937500 2.083333 127.866701
v 22.208333 2.083333 127.866701
v 24.479167 2.083333 127.866701
v 26.750000 2.083333 127.866701
v 29.020833 2.083333 127.866701
v 31.291667 2.083333 127.866701
v 33.562500 2.083333 127.866701
v 35.833333 2.083333 127.866701
v 38.104167 2.083333 127.866701
v 40.375000 2.083333 127.866701
v 42.645833 2.083333 127.866701
v 44.916667 2.083333 127.866701
v 47.187500 2.083333 127.866701
v 49.458333 2.083333 127.866701
v 51.729167 2.083333 127.866701
v 54.000000 2.083333 127.866701
v -55.000000 4.166667 124.556806
v -52.729167 4.166667 124.556806
v -50.458333 4.166667 124.556806
v -48.187500 4.166667 124.556806
v -45.916667 4.166667 124.556806
v -43.645833 4.166667 124.556806
v -41.375000 4.166667 124.556806
v -39.104167 4.166667 124.556806
v -36.833333 4.166667 124.556806
v -34.562500 4.166667 124.556806
v -32.291667 4.166667 124.556806
v -30.020833 4.166667 124.556806
v -27.750000 4.166667 124.556806
v -25.479167 4.166667 124.556806
v -23.208333 4.166667 124.556806
v -20.937500 4.166667 124.556806
v -18.666667 4.166667 124.556806
v -16.395833 4.166667 124.556806
v -14.125000 4.166667 124.556806
v -11.854167 4.166667 124.556806
v -9.583333 4.166667 124.556806
v -7.312500 4.166667 124.556806
v -5.041667 4.166667 124.556806
v -2.770833 4.166667 124.556806
v -0.500000 4.166667 124.556806
v 1.770833 4.166667 124.556806
v 4.041667 4.166667 124.556806
v 6.312500 4.166667 124.556806
v 8.583333 4.166667 124.556806
v 10.854167 4.166667 124.556806
v 13.125000 4.166667 124.556806
v 15.395833 4.166667 124.556806
v 17.666667 4.166667 124.556806
v 19.937500 4.166667 124.556806
v 22.208333 4.166667 124.556806
v 24.479167 4.166667 124.556806
v 26.750000 4.166667 124.556806
v 29.020833 4.166667 124.556806
v 31.291667 4.166667 124.556806
v 33.562500 4.166667 124.556806
v 35.833333 4.166667 124.556806
v 38.104167 4.166667 124.556806
v 40.375000 4.166667 124.556806
v 42.645833 4.166667 124.556806
v 44.916667 4.166667 124.556806
v 47.187500 4.166667 124.556806
v 49.458333 4.166667 124.556806
v 51.729167 4.166667 124.556806
v 54.000000 4.166667 124.556806
v -55.000000 6.250000 121.290312
v -52.729167 6.250000 121.290312
v -50.458333 6.250000 121.290312
v -48.187500 6.250000 121.290312
v -45.916667 6.250000 121.290312
v -43.645833 6.250000 121.290312
v -41.375000 6.250000 121.290312
v -39.104167 6.250000 121.290312
v -36.833333 6.250000 121.290312
v -34.562500 6.250000 121.290312
v -32.291667 6.250000 121.290312
v -30.020833 6.250000 121.290312
v -27.750000 6.250000 121.290312
v -25.479167 6.250000 121.290312
v -23.208333 6.250000 121.290312
v -20.937500 6.250000 121.290312
v -18.666667 6.250000 121.290312
v -16.395833 6.250000 121.290312
v -14.125000 6.250000 121.290312
v -11.854167 6.250000 121.290312
v -9.583333 6.250000 121.290312
v -7.312500 6.250000 121.290312
v -5.041667 6.250000 121.290312
v -2.770833 6.250000 121.290312
v -0.500000 6.250000 121.290312
v 1.770833 6.250000 121.290312
v 4.041667 6.250000 121.290312
v 6.312500 6.250000 121.290312
v 8.583333 6.250000 121.290312
v 10.854167 6.250000 121.290312
v 13.125000 6.250000 121.290312
v 15.395833 6.250000 121.290312
v 17.666667 6.250000 121.290312
v 19.937500 6.250000 121.290312
v 22.208333 6.250000 121.290312
v 24.479167 6.250000 121.290312
v 26.750000 6.250000 121.290312
v 29.020833 6.250000 121.290312
v 31.291667 6.250000 121.290312
v 33.562500 6.250000 121.290312
v 35.833333 6.250000 121.290312
v 38.104167 6.250000 121.290312
v 40.375000 6.250000 121.290312
v 42.645833 6.250000 121.290312
v 44.916667 6.250000 121.290312
v 47.187500 6.250000 121.290312
v 49.458333 6.250000 121.290312
v 51.729167 6.250000 121.290312
v 54.000000 6.250000 121.290312
v -55.000000 8.333333 118.067222
v -52.729167 8.333333 118.067222
v -50.458333 8.333333 118.067222
v -48.187500 8.333333 118.067222
v -45.916667 8.333333 118.067222
v -43.645833 8.333333 118.067222
v -41.375000 8.333333 118.067222
v -39.104167 8.333333 118.067222
v -36.833333 8.333333 118.067222
v -34.562500 8.333333 118.067222
v -32.291667 8.333333 118.067222
v -30.020833 8.333333 118.067222
v -27.750000 8.333333 118.067222
v -25.479167 8.333333 118.067222
v -23.208333 8.333333 118.067222
v -20.937500 8.333333 118.067222
v -18.666667 8.333333 118.067222
v -16.395833 8.333333 118.067222
v -14.125000 8.333333 118.067222
v -11.854167 8.333333 118.067222
v -9.583333 8.333333 118.067222
v -7.312500 8.333333 118.067222
v -5.041667 8.333333 118.067222
v -2.770833 8.333333 118.067222
v -0.500000 8.333333 118.067222
v 1.770833 8.333333 118.067222
v 4.041667 8.333333 118.067222
v 6.312500 8.333333 118.067222
v 8.583333 8.333333 118.067222
v 10.854167 8.333333 118.067222
v 13.125000 8.333333 118.067222
v 15.395833 8.333333 118.067222
v 17.666667 8.333333 118.067222
v 19.937500 8.333333 118.067222
v 22.208333 8.333333 118.067222
v 24.479167 8.333333 118.067222
v 26.750000 8.333333 118.067222
v 29.020833 8.333333 118.067222
v 31.291667 8.333333 118.067222
v 33.562500 8.333333 118.067222
v 35.833333 8.333333 118.067222
v 38.104167 8.333333 118.067222
v 40.375000 8.333333 118.067222
v 42.645833 8.333333 118.067222
v 44.916667 8.333333 118.067222
v 47.187500 8.333333 118.067222
v 49.458333 8.333333 118.067222
v 51.729167 8.333333 118.067222
v 54.000000 8.333333 118.067222
v -55.000000 10.416667 114.887535
v -52.729167 10.416667 114.887535
v -50.458333 10.416667 114.887535
v -48.187500 10.416667 114.887535
v -45.916667 10.416667 114.887535
v -43.645833 10.416667 114.887535
v -41.375000 10.416667 114.887535
v -39.104167 10.416667 114.887535
v -36.833333 10.416667 114.887535
v -34.562500 10.416667 114.887535
v -32.291667 10.416667 114.887535
v -30.020833 10.416667 114.887535
v -27.750000 10.416667 114.887535
v -25.479167 10.416667 114.887535
v -23.208333 10.416667 114.887535
v -20.937500 10.416667 114.887535
v -18.666667 10.416667 114.887535
v -16.395833 10.416667 114.887535
v -14.125000 10.416667 114.887535
v -11.854167 10.416667 114.887535
v -9.583333 10.416667 114.887535
v -7.312500 10.416667 114.887535
v -5.041667 10.416667 114.887535
v -2.770833 10.416667 114.887535
v -0.500000 10.416667 114.887535
v 1.770833 10.416667 114.887535
v 4.041667 10.416667 114.887535
v 6.312500 10.416667 114.887535
v 8.583333 10.416667 114.887535
v 10.854167 10.416667 114.887535
v 13.125000 10.416667 114.887535
v 15.395833 10.416667 114.887535
v 17.666667 10.416667 114.887535
v 19.937500 10.416667 114.887535
v 22.208333 10.416667 114.887535
v 24.479167 10.416667 114.887535
v 26.750000 10.416667 114.887535
v 29.020833 10.416667 114.887535
v 31.291667 10.416667 114.887535
v 33.562500 10.416667 114.887535
v 35.833333 10.416667 114.887535
v 38.104167 10.416667 114.887535
v 40.375000 10.416667 114.887535
v 42.645833 10.416667 114.887535
v 44.916667 10.416667 114.887535
v 47.187500 10.416667 114.887535
v 49.458333 10.416667 114.887535
v 51.729167 10.416667 114.887535
v 54.000000 10.416667 114.887535
v -55.000000 12.500000 111.751250
v -52.729167 12.500000 111.751250
v -50.458333 12.500000 111.751250
v -48.187500 12.500000 111.751250
v -45.916667 12.500000 111.751250
v -43.645833 12.500000 111.751250
v -41.375000 12.500000 111.751250
v -39.104167 12.500000 111.751250
v -36.833333 12.500000 111.751250
v -34.562500 12.500000 111.751250
v -32.291667 12.500000 111.751250
v -30.020833 12.500000 111.751250
v -27.750000 12.500000 111.751250
v -25.479167 12.500000 111.751250
v -23.208333 12.500000 111.751250
v -20.937500 12.500000 111.751250
v -18.666667 12.500000 111.751250
v -16.395833 12.500000 111.751250
v -14.125000 12.500000 111.751250
v -11.854167 12.500000 111.751250
v -9.583333 12.500000 111.751250
v -7.312500 12.500000 111.751250
v -5.041667 12.500000 111.751250
v -2.770833 12.500000 111.751250
v -0.500000 12.500000 111.751250
v 1.770833 12.500000 111.751250
v 4.041667 12.500000 111.751250
v 6.312500 12.500000 111.751250
v 8.583333 12.500000 111.751250
v 10.854167 12.500000 111.751250
v 13.125000 12.500000 111.751250
v 15.395833 12.500000 111.751250
v 17.666667 12.500000 111.751250
v 19.937500 12.500000 111.751250
v 22.208333 12.500000 111.751250
v 24.479167 12.500000 111.751250
v 26.750000 12.500000 111.751250
v 29.020833 12.500000 111.751250
v 31.291667 12.500000 111.751250
v 33.562500 12.500000 111.751250
v 35.833333 12.500000 111.751250
v 38.104167 12.500000 111.751250
v 40.375000 12.500000 111.751250
v 42.645833 12.500000 111.751250
v 44.916667 12.500000 111.751250
v 47.187500 12.500000 111.751250
v 49.458333 12.500000 111.751250
v 51.729167 12.500000 111.751250
v 54.000000 12.500000 111.751250
v -55.000000 14.583333 108.658368
v -52.729167 14.583333 108.658368
v -50.458333 14.583333 108.658368
v -48.187500 14.583333 108.658368
v -45.916667 14.583333 108.658368
v -43.645833 14.583333 108.658368
v -41.375000 14.583333 108.658368
v -39.104167 14.583333 108.658368
v -36.833333 14.583333 108.658368
v -34.562500 14.583333 108.658368
v -32.291667 14.583333 108.658368
v -30.020833 14.583333 108.658368
v -27.750000 14.583333 108.658368
v -25.479167 14.583333 108.658368
v -23.208333 14.583333 108.658368
v -20.937500 14.583333 108.658368
v -18.666667 14.583333 108.658368
v -16.395833 14.583333 108.658368
v -14.125000 14.583333 108.658368
v -11.854167 14.583333 108.658368
v -9.583333 14.583333 108.658368
v -7.312500 14.583333 108.658368
v -5.041667 14.583333 108.658368
v -2.770833 14.583333 108.658368
v -0.500000 14.583333 108.658368
v 1.770833 14.583333 108.658368
v 4.041667 14.583333 108.658368
v 6.312500 14.583333 108.658368
v 8.583333 14.583333 108.658368
v 10.854167 14.583333 108.658368
v 13.125000 14.583333 108.658368
v 15.395833 14.583333 108.658368
v 17.666667 14.583333 108.658368
v 19.937500 14.583333 108.658368
v 22.208333 14.583333 108.658368
v 24.479167 14.583333 108.658368
v 26.750000 14.583333 108.658368
v 29.020833 14.583333 108.658368
v 31.291667 14.583333 108.658368
v 33.562500 14.583333 108.658368
v 35.833333 14.583333 108.658368
v 38.104167 14.583333 108.658368
v 40.375000 14.583333 108.658368
v 42.645833 14.583333 108.658368
v 44.916667 14.583333 108.658368
v 47.187500 14.583333 108.658368
v 49.458333 14.583333 108.658368
v 51.729167 14.583333 108.658368
v 54.000000 14.583333 108.658368
v -55.000000 16.666667 105.608889
v -52.729167 16.666667 105.608889
v -50.458333 16.666667 105.608889
v -48.187500 16.666667 105.608889
v -45.916667 16.666667 105.608889
v -43.645833 16.666667 105.608889
v -41.375000 16.666667 105.608889
v -39.104167 16.666667 105.608889
v -36.833333 16.666667 105.608889
v -34.562500 16.666667 105.608889
v -32.291667 16.666667 105.608889
v -30.020833 16.666667 105.608889
v -27.750000 16.666667 105.608889
v -25.479167 16.666667 105.608889
v -23.208333 16.666667 105.608889
v -20.937500 16.666667 105.608889
v -18.666667 16.666667 105.608889
v -16.395833 16.666667 105.608889
v -14.125000 16.666667 105.608889
v -11.854167 16.666667 105.608889
v -9.583333 16.666667 105.608889
v -7.312500 16.666667 105.608889
v -5.041667 16.666667 105.608889
v -2.770833 16.666667 105.608889
v -0.500000 16.666667 105.608889
v 1.770833 16.666667 105.608889
v 4.041667 16.666667 105.608889
v 6.312500 16.666667 105.608889
v 8.583333 16.666667 105.608889
v 10.854167 16.666667 105.608889
v 13.125000 16.666667 105.608889
v 15.395833 16.666667 105.608889
v 17.666667 16.666667 105.608889
v 19.937500 16.666667 105.608889
v 22.208333 16.666667 105.608889
v 24.479167 16.666667 105.608889
v 26.750000 16.666667 105.608889
v 29.020833 16.666667 105.608889
v 31.291667 16.666667 105.608889
v 33.562500 16.666667 105.608889
v 35.833333 16.666667 105.608889
v 38.104167 16.666667 105.608889
v 40.375000 16.666667 105.608889
v 42.645833 16.666667 105.608889
v 44.916667 16.666667 105.608889
v 47.187500 16.666667 105.608889
v 49.458333 16.666667 105.608889
v 51.729167 16.666667 105.608889
v 54.000000 16.666667 105.608889
v -55.000000 18.750000 102.602812
v -52.729167 18.750000 102.602812
v -50.458333 18.750000 102.602812
v -48.187500 18.750000 102.602812
v -45.916667 18.750000 102.602812
v -43.645833 18.750000 102.602812
v -41.375000 18.750000 102.602812
v -39.104167 18.750000 102.602812
v -36.833333 18.750000 102.602812
v -34.562500 18.750000 102.602812
v -32.291667 18.750000 102.602812
v -30.020833 18.750000 102.602812
v -27.750000 18.750000 102.602812
v -25.479167 18.750000 102.602812
v -23.208333 18.750000 102.602812
v -20.937500 18.750000 102.602812
v -18.666667 18.750000 102.602812
v -16.395833 18.750000 102.602812
v -14.125000 18.750000 102.602812
v -11.854167 18.750000 102.602812
v -9.583333 18.750000 102.602812
v -7.312500 18.750000 102.602812
v -5.041667 18.750000 102.602812
v -2.770833 18.750000 102.602812
v -0.500000 18.750000 102.602812
v 1.770833 18.750000 102.602812
v 4.041667 18.750000 102.602812
v 6.312500 18.750000 102.602812
v 8.583333 18.750000 102.602812
v 10.854167 18.750000 102.602812
v 13.125000 18.750000 102.602812
v 15.395833 18.750000 102.602812
v 17.666667 18.750000 102.602812
v 19.937500 18.750000 102.602812
v 22.208333 18.750000 102.602812
v 24.479167 18.750000 102.602812
v 26.750000 18.750000 102.602812
v 29.020833 18.750000 102.602812
v 31.291667 18.750000 102.602812
v 33.562500 18.750000 102.602812
v 35.833333 18.750000 102.602812
v 38.104167 18.750000 102.602812
v 40.375000 18.750000 102.602812
v 42.645833 18.750000 102.602812
v 44.916667 18.750000 102.602812
v 47.187500 18.750000 102.602812
v 49.458333 18.750000 102.602812
v 51.729167 18.750000 102.602812
v 54.000000 18.750000 102.602812
v -55.000000 20.833333 99.640139
v -52.729167 20.833333 99.640139
v -50.458333 20.833333 99.640139
v -48.187500 20.833333 99.640139
v -45.916667 20.833333 99.640139
v -43.645833 20.833333 99.640139
v -41.375000 20.833333 99.640139
v -39.104167 20.833333 99.640139
v -36.833333 20.833333 99.640139
v -34.562500 20.833333 99.640139
v -32.291667 20.833333 99.640139
v -30.020833 20.833333 99.640139
v -27.750000 20.833333 99.640139
v -25.479167 20.833333 99.640139
v -23.208333 20.833333 99.640139
v -20.937500 20.833333 99.640139
v -18.666667 20.833333 99.640139
v -16.395833 20.833333 99.640139
v -14.125000 20.833333 99.640139
v -11.854167 20.833333 99.640139
v -9.583333 20.833333 99.640139
v -7.312500 20.833333 99.640139
v -5.041667 20.833333 99.640139
v -2.770833 20.833333 99.640139
v -0.500000 20.833333 99.640139
v 1.770833 20.833333 99.640139
v 4.041667 20.833333 99.640139
v 6.312500 20.833333 99.640139
v 8.583333 20.833333 99.640139
v 10.854167 20.833333 99.640139
v 13.125000 20.833333 99.640139
v 15.395833 20.833333 99.640139
v 17.666667 20.833333 99.640139
v 19.937500 20.833333 99.640139
v 22.208333 20.833333 99.640139
v 24.479167 20.833333 99.640139
v 26.750000 20.833333 99.640139
v 29.020833 20.833333 99.640139
v 31.291667 20.833333 99.640139
v 33.562500 20.833333 99.640139
v 35.833333 20.833333 99.640139
v 38.104167 20.833333 99.640139
v 40.375000 20.833333 99.640139
v 42.645833 20.833333 99.640139
v 44.916667 20.833333 99.640139
v 47.187500 20.833333 99.640139
v 49.458333 20.833333 99.640139
v 51.729167 20.833333 99.640139
v 54.000000 20.833333 99.640139
v -55.000000 22.916667 96.720868
v -52.729167 22.916667 96.720868
v -50.458333 22.916667 96.720868
v -48.187500 22.916667 96.720868
v -45.916667 22.916667 96.720868
v -43.645833 22.916667 96.720868
v -41.375000 22.916667 96.720868
v -39.104167 22.916667 96.720868
v -36.833333 22.916667 96.720868
v -34.562500 22.916667 96.720868
v -32.291667 22.916667 96.720868
v -30.020833 22.916667 96.720868
v -27.750000 22.916667 96.720868
v -25.479167 22.916667 96.720868
v -23.208333 22.916667 96.720868
v -20.937500 22.916667 96.720868
v -18.666667 22.916667 96.720868
v -16.395833 22.916667 96.720868
v -14.125000 22.916667 96.720868
v -11.854167 22.916667 96.720868
v -9.583333 22.916667 96.720868
v -7.312500 22.916667 96.720868
v -5.041667 22.916667 96.720868
v -2.770833 22.916667 96.720868
v -0.500000 22.916667 96.720868
v 1.770833 22.916667 96.720868
v 4.041667 22.916667 96.720868
v 6.312500 22.916667 96.720868
v 8.583333 22.916667 96.720868
v 10.854167 22.916667 96.720868
v 13.125000 22.916667 96.720868
v 15.395833 22.916667 96.720868
v 17.666667 22.916667 96.720868
v 19.937500 22.916667 96.720868
v 22.208333 22.916667 96.720868
v 24.479167 22.916667 96.720868
v 26.750000 22.916667 96.720868
v 29.020833 22.916667 96.720868
v 31.291667 22.916667 96.720868
v 33.562500 22.916667 96.720868
v 35.833333 22.916667 96.720868
v 38.104167 22.916667 96.720868
v 40.375000 22.916667 96.720868
v 42.645833 22.916667 96.720868
v 44.916667 22.916667 96.720868
v 47.187500 22.916667 96.720868
v 49.458333 22.916667 96.720868
v 51.729167 22.916667 96.720868
v 54.000000 22.916667 96.720868
v -55.000000 25.000000 93.845000
v -52.729167 25.000000 93.845000
v -50.458333 25.000000 93.845000
v -48.187500 25.000000 93.845000
v -45.916667 25.000000 93.845000
v -43.645833 25.000000 93.845000
v -41.375000 25.000000 93.845000
v -39.104167 25.000000 93.845000
v -36.833333 25.000000 93.845000
v -34.562500 25.000000 93.845000
v -32.291667 25.000000 93.845000
v -30.020833 25.000000 93.845000
v -27.750000 25.000000 93.845000
v -25.479167 25.000000 93.845000
v -23.208333 25.000000 93.845000
v -20.937500 25.000000 93.845000
v -18.666667 25.000000 93.845000
v -16.395833 25.000000 93.845000
v -14.125000 25.000000 93.845000
v -11.854167 25.000000 93.845000
v -9.583333 25.000000 93.845000
v -7.312500 25.000000 93.845000
v -5.041667 25.000000 93.845000
v -2.770833 25.000000 93.845000
v -0.500000 25.000000 93.845000
v 1.770833 25.000000 93.845000
v 4.041667 25.000000 93.845000
v 6.312500 25.000000 93.845000
v 8.583333 25.000000 93.845000
v 10.854167 25.000000 93.845000
v 13.125000 25.000000 93.845000
v 15.395833 25.000000 93.845000
v 17.666667 25.000000 93.845000
v 19.937500 25.000000 93.845000
v 22.208333 25.000000 93.845000
v 24.479167 25.000000 93.845000
v 26.750000 25.000000 93.845000
v 29.020833 25.000000 93.845000
v 31.291667 25.000000 93.845000
v 33.562500 25.000000 93.845000
v 35.833333 25.000000 93.845000
v 38.104167 25.000000 93.845000
v 40.375000 25.000000 93.845000
v 42.645833 25.000000 93.845000
v 44.916667 25.000000 93.845000
v 47.187500 25.000000 93.845000
v 49.458333 25.000000 93.845000
v 51.729167 25.000000 93.845000
v 54.000000 25.000000 93.845000
v -55.000000 27.083333 91.012535
v -52.729167 27.083333 91.012535
v -50.458333 27.083333 91.012535
v -48.187500 27.083333 91.012535
v -45.916667 27.083333 91.012535
v -43.645833 27.083333 91.012535
v -41.375000 27.083333 91.012535
v -39.104167 27.083333 91.012535
v -36.833333 27.083333 91.012535
v -34.562500 27.083333 91.012535
v -32.291667 27.083333 91.012535
v -30.020833 27.083333 91.012535
v -27.750000 27.083333 91.012535
v -25.479167 27.083333 91.012535
v -23.208333 27.083333 91.012535
v -20.937500 27.083333 91.012535
v -18.666667 27.083333 91.012535
v -16.395833 27.083333 91.012535
v -14.125000 27.083333 91.012535
v -11.854167 27.083333 91.012535
v -9.583333 27.083333 91.012535
v -7.312500 27.083333 91.012535
v -5.041667 27.083333 91.012535
v -2.770833 27.083333 91.012535
v -0.500000 27.083333 91.012535
v 1.770833 27.083333 91.012535
v 4.041667 27.083333 91.012535
v 6.312500 27.083333 91.012535
v 8.583333 27.083333 91.012535
v 10.854167 27.083333 91.012535
v 13.125000 27.083333 91.012535
v 15.395833 27.083333 91.012535
v 17.666667 27.083333 91.012535
v 19.937500 27.083333 91.012535
v 22.208333 27.083333 91.012535
v 24.479167 27.083333 91.012535
v 26.750000 27.083333 91.012535
v 29.020833 27.083333 91.012535
v 31.291667 27.083333 91.012535
v 33.562500 27.083333 91.012535
v 35.833333 27.083333 91.012535
v 38.104167 27.083333 91.012535
v 40.375000 27.083333 91.012535
v 42.645833 27.083333 91.012535
v 44.916667 27.083333 91.012535
v 47.187500 27.083333 91.012535
v 49.458333 27.083333 91.012535
v 51.729167 27.083333 91.012535
v 54.000000 27.083333 91.012535
v -55.000000 29.166667 88.223472
v -52.729167 29.166667 88.223472
v -50.458333 29.166667 88.223472
v -48.187500 29.166667 88.223472
v -45.916667 29.166667 88.223472
v -43.645833 29.166667 88.223472
v -41.375000 29.166667 88.223472
v -39.104167 29.166667 88.223472
v -36.833333 29.166667 88.223472
v -34.562500 29.166667 88.223472
v -32.291667 29.166667 88.223472
v -30.020833 29.166667 88.223472
v -27.750000 29.166667 88.223472
v -25.479167 29.166667 88.223472
v -23.208333 29.166667 88.223472
v -20.937500 29.166667 88.223472
v -18.666667 29.166667 88.223472
v -16.395833 29.166667 88.223472
v -14.125000 29.166667 88.223472
v -11.854167 29.166667 88.223472
v -9.583333 29.166667 88.223472
v -7.312500 29.166667 88.223472
v -5.041667 29.166667 88.223472
v -2.770833 29.166667 88.223472
v -0.500000 29.166667 88.223472
v 1.770833 29.166667 88.223472
v 4.041667 29.166667 88.223472
v 6.312500 29.166667 88.223472
v 8.583333 29.166667 88.223472
v 10.854167 29.166667 88.223472
v 13.125000 29.166667 88.223472
v 15.395833 29.166667 88.223472
v 17.666667 29.166667 88.223472
v 19.937500 29.166667 88.223472
v 22.208333 29.166667 88.223472
v 24.479167 29.166667 88.223472
v 26.750000 29.166667 88.223472
v 29.020833 29.166667 88.223472
v 31.291667 29.166667 88.223472
v 33.562500 29.166667 88.223472
v 35.833333 29.166667 88.223472
v 38.104167 29.166667 88.223472
v 40.375000 29.166667 88.223472
v 42.645833 29.166667 88.223472
v 44.916667 29.166667 88.223472
v 47.187500 29.166667 88.223472
v 49.458333 29.166667 88.223472
v 51.729167 29.166667 88.223472
v 54.000000 29.166667 88.223472
v -55.000000 31.250000 85.477812
v -52.729167 31.250000 85.477812
v -50.458333 31.250000 85.477812
v -48.187500 31.250000 85.477812
v -45.916667 31.250000 85.477812
v -43.645833 31.250000 85.477812
v -41.375000 31.250000 85.477812
v -39.104167 31.250000 85.477812
v -36.833333 31.250000 85.477812
v -34.562500 31.250000 85.477812
v -32.291667 31.250000 85.477812
v -30.020833 31.250000 85.477812
v -27.750000 31.250000 85.477812
v -25.479167 31.250000 85.477812
v -23.208333 31.250000 85.477812
v -20.937500 31.250000 85.477812
v -18.666667 31.250000 85.477812
v -16.395833 31.250000 85.477812
v -14.125000 31.250000 85.477812
v -11.854167 31.250000 85.477812
v -9.583333 31.250000 85.477812
v -7.312500 31.250000 85.477812
v -5.041667 31.250000 85.477812
v -2.770833 31.250000 85.477812
v -0.500000 31.250000 85.477812
v 1.770833 31.250000 85.477812
v 4.041667 31.250000 85.477812
v 6.312500 31.250000 85.477812
v 8.583333 31.250000 85.477812
v 10.854167 31.250000 85.477812
v 13.125000 31.250000 85.477812
v 15.395833 31.250000 85.477812
v 17.666667 31.250000 85.477812
v 19.937500 31.250000 85.477812
v 22.208333 31.250000 85.477812
v 24.479167 31.250000 85.477812
v 26.750000 31.250000 85.477812
v 29.020833 31.250000 85.477812
v 31.291667 31.250000 85.477812
v 33.562500 31.250000 85.477812
v 35.833333 31.250000 85.477812
v 38.104167 31.250000 85.477812
v 40.375000 31.250000 85.477812
v 42.645833 31.250000 85.477812
v 44.916667 31.250000 85.477812
v 47.187500 31.250000 85.477812
v 49.458333 31.250000 85.477812
v 51.729167 31.250000 85.477812
v 54.000000 31.250000 85.477812
v -55.000000 33.333333 82.775556
v -52.729167 33.333333 82.775556
v -50.458333 33.333333 82.775556
v -48.187500 33.333333 82.775556
v -45.916667 33.333333 82.775556
v -43.645833 33.333333 82.775556
v -41.375000 33.333333 82.775556
v -39.104167 33.333333 82.775556
v -36.833333 33.333333 82.775556
v -34.562500 33.333333 82.775556
v -32.291667 33.333333 82.775556
v -30.020833 33.333333 82.775556
v -27.750000 33.333333 82.775556
v -25.479167 33.333333 82.775556
v -23.208333 33.333333 82.775556
v -20.937500 33.333333 82.775556
v -18.666667 33.333333 82.775556
v -16.395833 33.333333 82.775556
v -14.125000 33.333333 82.775556
v -11.854167 33.333333 82.775556
v -9.583333 33.333333 82.775556
v -7.312500 33.333333 82.775556
v -5.041667 33.333333 82.775556
v -2.770833 33.333333 82.775556
v -0.500000 33.333333 82.775556
v 1.770833 33.333333 82.775556
v 4.041667 33.333333 82.775556
v 6.312500 33.333333 82.775556
v 8.583333 33.333333 82.775556
v 10.854167 33.333333 82.775556
v 13.125000 33.333333 82.775556
v 15.395833 33.333333 82.775556
v 17.666667 33.333333 82.775556
v 19.937500 33.333333 82.775556
v 22.208333 33.333333 82.775556
v 24.479167 33.333333 82.775556
v 26.750000 33.333333 82.775556
v 29.020833 33.333333 82.775556
v 31.291667 33.333333 82.775556
v 33.562500 33.333333 82.775556
v 35.833333 33.333333 82.775556
v 38.104167 33.333333 82.775556
v 40.375000 33.333333 82.775556
v 42.645833 33.333333 82.775556
v 44.916667 33.333333 82.775556
v 47.187500 33.333333 82.775556
v 49.458333 33.333333 82.775556
v 51.729167 33.333333 82.775556
v 54.000000 33.333333 82.775556
v -55.000000 35.416667 80.116701
v -52.729167 35.416667 80.116701
v -50.458333 35.416667 80.116701
v -48.187500 35.416667 80.116701
v -45.916667 35.416667 80.116701
v -43.645833 35.416667 80.116701
v -41.375000 35.416667 80.116701
v -39.104167 35.416667 80.116701
v -36.833333 35.416667 80.116701
v -34.562500 35.416667 80.116701
v -32.291667 35.416667 80.116701
v -30.020833 35.416667 80.116701
v -27.750000 35.416667 80.116701
v -25.479167 35.416667 80.116701
v -23.208333 35.416667 80.116701
v -20.937500 35.416667 80.116701
v -18.666667 35.416667 80.116701
v -16.395833 35.416667 80.116701
v -14.125000 35.416667 80.116701
v -11.854167 35.416667 80.116701
v -9.583333 35.416667 80.116701
v -7.312500 35.416667 80.116701
v -5.041667 35.416667 80.116701
v -2.770833 35.416667 80.116701
v -0.500000 35.416667 80.116701
v 1.770833 35.416667 80.116701
v 4.041667 35.416667 80.116701
v 6.312500 35.416667 80.116701
v 8.583333 35.416667 80.116701
v 10.854167 35.416667 80.116701
v 13.125000 35.416667 80.116701
v 15.395833 35.416667 80.116701
v 17.666667 35.416667 80.116701
v 19.937500 35.416667 80.116701
v 22.208333 35.416667 80.116701
v 24.479167 35.416667 80.116701
v 26.750000 35.416667 80.116701
v 29.020833 35.416667 80.116701
v 31.291667 35.416667 80.116701
v 33.562500 35.416667 80.116701
v 35.833333 35.416667 80.116701
v 38.104167 35.416667 80.116701
v 40.375000 35.416667 80.116701
v 42.645833 35.416667 80.116701
v 44.916667 35.416667 80.116701
v 47.187500 35.416667 80.116701
v 49.458333 35.416667 80.116701
v 51.729167 35.416667 80.116701
v 54.000000 35.416667 80.116701
v -55.000000 37.500000 77.501250
v -52.729167 37.500000 77.501250
v -50.458333 37.500000 77.501250
v -48.187500 37.500000 77.501250
v -45.916667 37.500000 77.501250
v -43.645833 37.500000 77.501250
v -41.375000 37.500000 77.501250
v -39.104167 37.500000 77.501250
v -36.833333 37.500000 77.501250
v -34.562500 37.500000 77.501250
v -32.291667 37.500000 77.501250
v -30.020833 37.500000 77.501250
v -27.750000 37.500000 77.501250
v -25.479167 37.500000 77.501250
v -23.208333 37.500000 77.501250
v -20.937500 37.500000 77.501250
v -18.666667 37.500000 77.501250
v -16.395833 37.500000 77.501250
v -14.125000 37.500000 77.501250
v -11.854167 37.500000 77.501250
v -9.583333 37.500000 77.501250
v -7.312500 37.500000 77.501250
v -5.041667 37.500000 77.501250
v -2.770833 37.500000 77.501250
v -0.500000 37.500000 77.501250
v 1.770833 37.500000 77.501250
v 4.041667 37.500000 77.501250
v 6.312500 37.500000 77.501250
v 8.583333 37.500000 77.501250
v 10.854167 37.500000 77.501250
v 13.125000 37.500000 77.501250
v 15.395833 37.500000 77.501250
v 17.666667 37.500000 77.501250
v 19.937500 37.500000 77.501250
v 22.208333 37.500000 77.501250
v 24.479167 37.500000 77.501250
v 26.750000 37.500000 77.501250
v 29.020833 37.500000 77.501250
v 31.291667 37.500000 77.501250
v 33.562500 37.500000 77.501250
v 35.833333 37.500000 77.501250
v 38.104167 37.500000 77.501250
v 40.375000 37.500000 77.501250
v 42.645833 37.500000 77.501250
v 44.916667 37.500000 77.501250
v 47.187500 37.500000 77.501250
v 49.458333 37.500000 77.501250
v 51.729167 37.500000 77.501250
v 54.000000 37.500000 77.501250
v -55.000000 39.583333 74.929201
v -52.729167 39.583333 74.929201
v -50.458333 39.583333 74.929201
v -48.187500 39.583333 74.929201
v -45.916667 39.583333 74.929201
v -43.645833 39.583333 74.929201
v -41.375000 39.583333 74.929201
v -39.104167 39.583333 74.929201
v -36.833333 39.583333 74.929201
v -34.562500 39.583333 74.929201
v -32.291667 39.583333 74.929201
v -30.020833 39.583333 74.929201
v -27.750000 39.583333 74.929201
v -25.479167 39.583333 74.929201
v -23.208333 39.583333 74.929201
v -20.937500 39.583333 74.929201
v -18.666667 39.583333 74.929201
v -16.395833 39.583333 74.929201
v -14.125000 39.583333 74.929201
v -11.854167 39.583333 74.929201
v -9.583333 39.583333 74.929201
v -7.312500 39.583333 74.929201
v -5.041667 39.583333 74.929201
v -2.770833 39.583333 74.929201
v -0.500000 39.583333 74.929201
v 1.770833 39.583333 74.929201
v 4.041667 39.583333 74.929201
v 6.312500 39.583333 74.929201
v 8.583333 39.583333 74.929201
v 10.854167 39.583333 74.929201
v 13.125000 39.583333 74.929201
v 15.395833 39.583333 74.929201
v 17.666667 39.583333 74.929201
v 19.937500 39.583333 74.929201
v 22.208333 39.583333 74.929201
v 24.479167 39.583333 74.929201
v 26.750000 39.583333 74.929201
v 29.020833 39.583333 74.929201
v 31.291667 39.583333 74.929201
v 33.562500 39.583333 74.929201
v 35.833333 39.583333 74.929201
v 38.104167 39.583333 74.929201
v 40.375000 39.583333 74.929201
v 42.645833 39.583333 74.929201
v 44.916667 39.583333 74.929201
v 47.187500 39.583333 74.929201
v 49.458333 39.583333 74.929201
v 51.729167 39.583333 74.929201
v 54.000000 39.583333 74.929201
v -55.000000 41.666667 72.400556
v -52.729167 41.666667 72.400556
v -50.458333 41.666667 72.400556
v -48.187500 41.666667 72.400556
v -45.916667 41.666667 72.400556
v -43.645833 41.666667 72.400556
v -41.375000 41.666667 72.400556
v -39.104167 41.666667 72.400556
v -36.833333 41.666667 72.400556
v -34.562500 41.666667 72.400556
v -32.291667 41.666667 72.400556
v -30.020833 41.666667 72.400556
v -27.750000 41.666667 72.400556
v -25.479167 41.666667 72.400556
v -23.208333 41.666667 72.400556
v -20.937500 41.666667 72.400556
v -18.666667 41.666667 72.400556
v -16.395833 41.666667 72.400556
v -14.125000 41.666667 72.400556
v -11.854167 41.666667 72.400556
v -9.583333 41.666667 72.400556
v -7.312500 41.666667 72.400556
v -5.041667 41.666667 72.400556
v -2.770833 41.666667 72.400556
v -0.500000 41.666667 72.400556
v 1.770833 41.666667 72.400556
v 4.041667 41.666667 72.400556
v 6.312500 41.666667 72.400556
v 8.583333 41.666667 72.400556
v 10.854167 41.666667 72.400556
v 13.125000 41.666667 72.400556
v 15.395833 41.666667 72.400556
v 17.666667 41.666667 72.400556
v 19.937500 41.666667 72.400556
v 22.208333 41.666667 72.400556
v 24.479167 41.666667 72.400556
v 26.750000 41.666667 72.400556
v 29.020833 41.666667 72.400556
v 31.291667 41.666667 72.400556
v 33.562500 41.666667 72.400556
v 35.833333 41.666667 72.400556
v 38.104167 41.666667 72.400556
v 40.375000 41.666667 72.400556
v 42.645833 41.666667 72.400556
v 44.916667 41.666667 72.400556
v 47.187500 41.666667 72.400556
v 49.458333 41.666667 72.400556
v 51.729167 41.666667 72.400556
v 54.000000 41.666667 72.400556
v -55.000000 43.750000 69.915312
v -52.729167 43.750000 69.915312
v -50.458333 43.750000 69.915312
v -48.187500 43.750000 69.915312
v -45.916667 43.750000 69.915312
v -43.645833 43.750000 69.915312
v -41.375000 43.750000 69.915312
v -39.104167 43.750000 69.915312
v -36.833333 43.750000 69.915312
v -34.562500 43.750000 69.915312
v -32.291667 43.750000 69.915312
v -30.020833 43.750000 69.915312
v -27.750000 43.750000 69.915312
v -25.479167 43.750000 69.915312
v -23.208333 43.750000 69.915312
v -20.937500 43.750000 69.915312
v -18.666667 43.750000 69.915312
v -16.395833 43.750000 69.915312
v -14.125000 43.750000 69.915312
v -11.854167 43.750000 69.915312
v -9.583333 43.750000 69.915312
v -7.312500 43.750000 69.915312
v -5.041667 43.750000 69.915312
v -2.770833 43.750000 69.915312
v -0.500000 43.750000 69.915312
v 1.770833 43.750000 69.915312
v 4.041667 43.750000 69.915312
v 6.312500 43.750000 69.915312
v 8.583333 43.750000 69.915312
v 10.854167 43.750000 69.915312
v 13.125000 43.750000 69.915312
v 15.395833 43.750000 69.915312
v 17.666667 43.750000 69.915312
v 19.937500 43.750000 69.915312
v 22.208333 43.750000 69.915312
v 24.479167 43.750000 69.915312
v 26.750000 43.750000 69.915312
v 29.020833 43.750000 69.915312
v 31.291667 43.750000 69.915312
v 33.562500 43.750000 69.915312
v 35.833333 43.750000 69.915312
v 38.104167 43.750000 69.915312
v 40.375000 43.750000 69.915312
v 42.645833 43.750000 69.915312
v 44.916667 43.750000 69.915312
v 47.187500 43.750000 69.915312
v 49.458333 43.750000 69.915312
v 51.729167 43.750000 69.915312
v 54.000000 43.750000 69.915312
v -55.000000 45.833333 67.473472
v -52.729167 45.833333 67.473472
v -50.458333 45.833333 67.473472
v -48.187500 45.833333 67.473472
v -45.916667 45.833333 67.473472
v -43.645833 45.833333 67.473472
v -41.375000 45.833333 67.473472
v -39.104167 45.833333 67.473472
v -36.833333 45.833333 67.473472
v -34.562500 45.833333 67.473472
v -32.291667 45.833333 67.473472
v -30.020833 45.833333 67.473472
v -27.750000 45.833333 67.473472
v -25.479167 45.833333 67.473472
v -23.208333 45.833333 67.473472
v -20.937500 45.833333 67.473472
v -18.666667 45.833333 67.473472
v -16.395833 45.833333 67.473472
v -14.125000 45.833333 67.473472
v -11.854167 45.833333 67.473472
v -9.583333 45.833333 67.473472
v -7.312500 45.833333 67.473472
v -5.041667 45.833333 67.473472
v -2.770833 45.833333 67.473472
v -0.500000 45.833333 67.473472
v 1.770833 45.833333 67.473472
v 4.041667 45.833333 67.473472
v 6.312500 45.833333 67.473472
v 8.583333 45.833333 67.473472
v 10.854167 45.833333 67.473472
v 13.125000 45.833333 67.473472
v 15.395833 45.833333 67.473472
v 17.666667 45.833333 67.473472
v 19.937500 45.833333 67.473472
v 22.208333 45.833333 67.473472
v 24.479167 45.833333 67.473472
v 26.750000 45.833333 67.473472
v 29.020833 45.833333 67.473472
v 31.291667 45.833333 67.473472
v 33.562500 45.833333 67.473472
v 35.833333 45.833333 67.473472
v 38.104167 45.833333 67.473472
v 40.375000 45.833333 67.473472
v 42.645833 45.833333 67.473472
v 44.916667 45.833333 67.473472
v 47.187500 45.833333 67.473472
v 49.458333 45.833333 67.473472
v 51.729167 45.833333 67.473472
v 54.000000 45.833333 67.473472
v -55.000000 47.916667 65.075035
v -52.729167 47.916667 65.075035
v -50.458333 47.916667 65.075035
v -48.187500 47.916667 65.075035
v -45.916667 47.916667 65.075035
v -43.645833 47.916667 65.075035
v -41.375000 47.916667 65.075035
v -39.104167 47.916667 65.075035
v -36.833333 47.916667 65.075035
v -34.562500 47.916667 65.075035
v -32.291667 47.916667 65.075035
v -30.020833 47.916667 65.075035
v -27.750000 47.916667 65.075035
v -25.479167 47.916667 65.075035
v -23.208333 47.916667 65.075035
v -20.937500 47.916667 65.075035
v -18.666667 47.916667 65.075035
v -16.395833 47.916667 65.075035
v -14.125000 47.916667 65.075035
v -11.854167 47.916667 65.075035
v -9.583333 47.916667 65.075035
v -7.312500 47.916667 65.075035
v -5.041667 47.916667 65.075035
v -2.770833 47.916667 65.075035
v -0.500000 47.916667 65.075035
v 1.770833 47.916667 65.075035
v 4.041667 47.916667 65.075035
v 6.312500 47.916667 65.075035
v 8.583333 47.916667 65.075035
v 10.854167 47.916667 65.075035
v 13.125000 47.916667 65.075035
v 15.395833 47.916667 65.075035
v 17.666667 47.916667 65.075035
v 19.937500 47.916667 65.075035
v 22.208333 47.916667 65.075035
v 24.479167 47.916667 65.075035
v 26.750000 47.916667 65.075035
v 29.020833 47.916667 65.075035
v 31.291667 47.916667 65.075035
v 33.562500 47.916667 65.075035
v 35.833333 47.916667 65.075035
v 38.104167 47.916667 65.075035
v 40.375000 47.916667 65.075035
v 42.645833 47.916667 65.075035
v 44.916667 47.916667 65.075035
v 47.187500 47.916667 65.075035
v 49.458333 47.916667 65.075035
v 51.729167 47.916667 65.075035
v 54.000000 47.916667 65.075035
v -55.000000 50.000000 62.720000
v -52.729167 50.000000 62.720000
v -50.458333 50.000000 62.720000
v -48.187500 50.000000 62.720000
v -45.916667 50.000000 62.720000
v -43.645833 50.000000 62.720000
v -41.375000 50.000000 62.720000
v -39.104167 50.000000 62.720000
v -36.833333 50.000000 62.720000
v -34.562500 50.000000 62.720000
v -32.291667 50.000000 62.720000
v -30.020833 50.000000 62.720000
v -27.750000 50.000000 62.720000
v -25.479167 50.000000 62.720000
v -23.208333 50.000000 62.720000
v -20.937500 50.000000 62.720000
v -18.666667 50.000000 62.720000
v -16.395833 50.000000 62.720000
v -14.125000 50.000000 62.720000
v -11.854167 50.000000 62.720000
v -9.583333 50.000000 62.720000
v -7.312500 50.000000 62.720000
v -5.041667 50.000000 62.720000
v -2.770833 50.000000 62.720000
v -0.500000 50.000000 62.720000
v 1.770833 50.000000 62.720000
v 4.041667 50.000000 62.720000
v 6.312500 50.000000 62.720000
v 8.583333 50.000000 62.720000
v 10.854167 50.000000 62.720000
v 13.125000 50.000000 62.720000
v 15.395833 50.000000 62.720000
v 17.666667 50.000000 62.720000
v 19.937500 50.000000 62.720000
v 22.208333 50.000000 62.720000
v 24.479167 50.000000 62.720000
v 26.750000 50.000000 62.720000
v 29.020833 50.000000 62.720000
v 31.291667 50.000000 62.720000
v 33.562500 50.000000 62.720000
v 35.833333 50.000000 62.720000
v 38.104167 50.000000 62.720000
v 40.375000 50.000000 62.720000
v 42.645833 50.000000 62.720000
v 44.916667 50.000000 62.720000
v 47.187500 50.000000 62.720000
v 49.458333 50.000000 62.720000
v 51.729167 50.000000 62.720000
v 54.000000 50.000000 62.720000
v -55.000000 52.083333 60.408368
v -52.729167 52.083333 60.408368
v -50.458333 52.083333 60.408368
v -48.187500 52.083333 60.408368
v -45.916667 52.083333 60.408368
v -43.645833 52.083333 60.408368
v -41.375000 52.083333 60.408368
v -39.104167 52.083333 60.408368
v -36.833333 52.083333 60.408368
v -34.562500 52.083333 60.408368
v -32.291667 52.083333 60.408368
v -30.020833 52.083333 60.408368
v -27.750000 52.083333 60.408368
v -25.479167 52.083333 60.408368
v -23.208333 52.083333 60.408368
v -20.937500 52.083333 60.408368
v -18.666667 52.083333 60.408368
v -16.395833 52.083333 60.408368
v -14.125000 52.083333 60.408368
v -11.854167 52.083333 60.408368
v -9.583333 52.083333 60.408368
v -7.312500 52.083333 60.408368
v -5.041667 52.083333 60.408368
v -2.770833 52.083333 60.408368
v -0.500000 52.083333 60.408368
v 1.770833 52.083333 60.408368
v 4.041667 52.083333 60.408368
v 6.312500 52.083333 60.408368
v 8.583333 52.083333 60.408368
v 10.854167 52.083333 60.408368
v 13.125000 52.083333 60.408368
v 15.395833 52.083333 60.408368
v 17.666667 52.083333 60.408368
v 19.937500 52.083333 60.408368
v 22.208333 52.083333 60.408368
v 24.479167 52.083333 60.408368
v 26.750000 52.083333 60.408368
v 29.020833 52.083333 60.408368
v 31.291667 52.083333 60.408368
v 33.562500 52.083333 60.408368
v 35.833333 52.083333 60.408368
v 38.104167 52.083333 60.408368
v 40.375000 52.083333 60.408368
v 42.645833 52.083333 60.408368
v 44.916667 52.083333 60.408368
v 47.187500 52.083333 60.408368
v 49.458333 52.083333 60.408368
v 51.729167 52.083333 60.408368
v 54.000000 52.083333 60.408368
v -55.000000 54.166667 58.140139
v -52.729167 54.166667 58.140139
v -50.458333 54.166667 58.140139
v -48.187500 54.166667 58.140139
v -45.916667 54.166667 58.140139
v -43.645833 54.166667 58.140139
v -41.375000 54.166667 58.140139
v -39.104167 54.166667 58.140139
v -36.833333 54.166667 58.140139
v -34.562500 54.166667 58.140139
v -32.291667 54.166667 58.140139
v -30.020833 54.166667 58.140139
v -27.750000 54.166667 58.140139
v -25.479167 54.166667 58.140139
v -23.208333 54.166667 58.140139
v -20.937500 54.166667 58.140139
v -18.666667 54.166667 58.140139
v -16.395833 54.166667 58.140139
v -14.125000 54.166667 58.140139
v -11.854167 54.166667 58.140139
v -9.583333 54.166667 58.140139
v -7.312500 54.166667 58.140139
v -5.041667 54.166667 58.140139
v -2.770833 54.166667 58.140139
v -0.500000 54.166667 58.140139
v 1.770833 54.166667 58.140139
v 4.041667 54.166667 58.140139
v 6.312500 54.166667 58.140139
v 8.583333 54.166667 58.140139
v 10.854167 54.166667 58.140139
v 13.125000 54.166667 58.140139
v 15.395833 54.166667 58.140139
v 17.666667 54.166667 58.140139
v 19.937500 54.166667 58.140139
v 22.208333 54.166667 58.140139
v 24.479167 54.166667 58.140139
v 26.750000 54.166667 58.140139
v 29.020833 54.166667 58.140139
v 31.291667 54.166667 58.140139
v 33.562500 54.166667 58.140139
v 35.833333 54.166667 58.140139
v 38.104167 54.166667 58.140139
v 40.375000 54.166667 58.140139
v 42.645833 54.166667 58.140139
v 44.916667 54.166667 58.140139
v 47.187500 54.166667 58.140139
v 49.458333 54.166667 58.140139
v 51.729167 54.166667 58.140139
v 54.000000 54.166667 58.140139
v -55.000000 56.250000 55.915312
v -52.729167 56.250000 55.915312
v -50.458333 56.250000 55.915312
v -48.187500 56.250000 55.915312
v -45.916667 56.250000 55.915312
v -43.645833 56.250000 55.915312
v -41.375000 56.250000 55.915312
v -39.104167 56.250000 55.915312
v -36.833333 56.250000 55.915312
v -34.562500 56.250000 55.915312
v -32.291667 56.250000 55.915312
v -30.020833 56.250000 55.915312
v -27.750000 56.250000 55.915312
v -25.479167 56.250000 55.915312
v -23.208333 56.250000 55.915312
v -20.937500 56.250000 55.915312
v -18.666667 56.250000 55.915312
v -16.395833 56.250000 55.915312
v -14.125000 56.250000 55.915312
v -11.854167 56.250000 55.915312
v -9.583333 56.250000 55.915312
v -7.312500 56.250000 55.915312
v -5.041667 56.250000 55.915312
v -2.770833 56.250000 55.915312
v -0.500000 56.250000 55.915312
v 1.770833 56.250000 55.915312
v 4.041667 56.250000 55.915312
v 6.312500 56.250000 55.915312
v 8.583333 56.250000 55.915312
v 10.854167 56.250000 55.915312
v 13.125000 56.250000 55.915312
v 15.395833 56.250000 55.915312
v 17.666667 56.250000 55.915312
v 19.937500 56.250000 55.915312
v 22.208333 56.250000 55.915312
v 24.479167 56.250000 55.915312
v 26.750000 56.250000 55.915312
v 29.020833 56.250000 55.915312
v 31.291667 56.250000 55.915312
v 33.562500 56.250000 55.915312
v 35.833333 56.250000 55.915312
v 38.104167 56.250000 55.915312
v 40.375000 56.250000 55.915312
v 42.645833 56.250000 55.915312
v 44.916667 56.250000 55.915312
v 47.187500 56.250000 55.915312
v 49.458333 56.250000 55.915312
v 51.729167 56.250000 55.915312
v 54.000000 56.250000 55.915312
v -55.000000 58.333333 53.733889
v -52.729167 58.333333 53.733889
v -50.458333 58.333333 53.733889
v -48.187500 58.333333 53.733889
v -45.916667 58.333333 53.733889
v -43.645833 58.333333 53.733889
v -41.375000 58.333333 53.733889
v -39.104167 58.333333 53.733889
v -36.833333 58.333333 53.733889
v -34.562500 58.333333 53.733889
v -32.291667 58.333333 53.733889
v -30.020833 58.333333 53.733889
v -27.750000 58.333333 53.733889
v -25.479167 58.333333 53.733889
v -23.208333 58.333333 53.733889
v -20.937500 58.333333 53.733889
v -18.666667 58.333333 53.733889
v -16.395833 58.333333 53.733889
v -14.125000 58.333333 53.733889
v -11.854167 58.333333 53.733889
v -9.583333 58.333333 53.733889
v -7.312500 58.333333 53.733889
v -5.041667 58.333333 53.733889
v -2.770833 58.333333 53.733889
v -0.500000 58.333333 53.733889
v 1.770833 58.333333 53.733889
v 4.041667 58.333333 53.733889
v 6.312500 58.333333 53.733889
v 8.583333 58.333333 53.733889
v 10.854167 58.333333 53.733889
v 13.125000 58.333333 53.733889
v 15.395833 58.333333 53.733889
v 17.666667 58.333333 53.733889
v 19.937500 58.333333 53.733889
v 22.208333 58.333333 53.733889
v 24.479167 58.333333 53.733889
v 26.750000 58.333333 53.733889
v 29.020833 58.333333 53.733889
v 31.291667 58.333333 53.733889
v 33.562500 58.333333 53.733889
v 35.833333 58.333333 53.733889
v 38.104167 58.333333 53.733889
v 40.375000 58.333333 53.733889
v 42.645833 58.333333 53.733889
v 44.916667 58.333333 53.733889
v 47.187500 58.333333 53.733889
v 49.458333 58.333333 53.733889
v 51.729167 58.333333 53.733889
v 54.000000 58.333333 53.733889
v -55.000000 60.416667 51.595868
v -52.729167 60.416667 51.595868
v -50.458333 60.416667 51.595868
v -48.187500 60.416667 51.595868
v -45.916667 60.416667 51.595868
v -43.645833 60.416667 51.595868
v -41.375000 60.416667 51.595868
v -39.104167 60.416667 51.595868
v -36.833333 60.416667 51.595868
v -34.562500 60.416667 51.595868
v -32.291667 60.416667 51.595868
v -30.020833 60.416667 51.595868
v -27.750000 60.416667 51.595868
v -25.479167 60.416667 51.595868
v -23.208333 60.416667 51.595868
v -20.937500 60.416667 51.595868
v -18.666667 60.416667 51.595868
v -16.395833 60.416667 51.595868
v -14.125000 60.416667 51.595868
v -11.854167 60.416667 51.595868
v -9.583333 60.416667 51.595868
v -7.312500 60.416667 51.595868
v -5.041667 60.416667 51.595868
v -2.770833 60.416667 51.595868
v -0.500000 60.416667 51.595868
v 1.770833 60.416667 51.595868
v 4.041667 60.416667 51.595868
v 6.312500 60.416667 51.595868
v 8.583333 60.416667 51.595868
v 10.854167 60.416667 51.595868
v 13.125000 60.416667 51.595868
v 15.395833 60.416667 51.595868
v 17.666667 60.416667 51.595868
v 19.937500 60.416667 51.595868
v 22.208333 60.416667 51.595868
v 24.479167 60.416667 51.595868
v 26.750000 60.416667 51.595868
v 29.020833 60.416667 51.595868
v 31.291667 60.416667 51.595868
v 33.562500 60.416667 51.595868
v 35.833333 60.416667 51.595868
v 38.104167 60.416667 51.595868
v 40.375000 60.416667 51.595868
v 42.645833 60.416667 51.595868
v 44.916667 60.416667 51.595868
v 47.187500 60.416667 51.595868
v 49.458333 60.416667 51.595868
v 51.729167 60.416667 51.595868
v 54.000000 60.416667 51.595868
v -55.000000 62.500000 49.501250
v -52.729167 62.500000 49.501250
v -50.458333 62.500000 49.501250
v -48.187500 62.500000 49.501250
v -45.916667 62.500000 49.501250
v -43.645833 62.500000 49.501250
v -41.375000 62.500000 49.501250
v -39.104167 62.500000 49.501250
v -36.833333 62.500000 49.501250
v -34.562500 62.500000 49.501250
v -32.291667 62.500000 49.501250
v -30.020833 62.500000 49.501250
v -27.750000 62.500000 49.501250
v -25.479167 62.500000 49.501250
v -23.208333 62.500000 49.501250
v -20.937500 62.500000 49.501250
v -18.666667 62.500000 49.501250
v -16.395833 62.500000 49.501250
v -14.125000 62.500000 49.501250
v -11.854167 62.500000 49.501250
v -9.583333 62.500000 49.501250
v -7.312500 62.500000 49.501250
v -5.041667 62.500000 49.501250
v -2.770833 62.500000 49.501250
v -0.500000 62.500000 49.501250
v 1.770833 62.500000 49.501250
v 4.041667 62.500000 49.501250
v 6.312500 62.500000 49.501250
v 8.583333 62.500000 49.501250
v 10.854167 62.500000 49.501250
v 13.125000 62.500000 49.501250
v 15.395833 62.500000 49.501250
v 17.666667 62.500000 49.501250
v 19.937500 62.500000 49.501250
v 22.208333 62.500000 49.501250
v 24.479167 62.500000 49.501250
v 26.750000 62.500000 49.501250
v 29.020833 62.500000 49.501250
v 31.291667 62.500000 49.501250
v 33.562500 62.500000 49.501250
v 35.833333 62.500000 49.501250
v 38.104167 62.500000 49.501250
v 40.375000 62.500000 49.501250
v 42.645833 62.500000 49.501250
v 44.916667 62.500000 49.501250
v 47.187500 62.500000 49.501250
v 49.458333 62.500000 49.501250
v 51.729167 62.500000 49.501250
v 54.000000 62.500000 49.501250
v -55.000000 64.583333 47.450035
v -52.729167 64.583333 47.450035
v -50.458333 64.583333 47.450035
v -48.187500 64.583333 47.450035
v -45.916667 64.583333 47.450035
v -43.645833 64.583333 47.450035
v -41.375000 64.583333 47.450035
v -39.104167 64.583333 47.450035
v -36.833333 64.583333 47.450035
v -34.562500 64.583333 47.450035
v -32.291667 64.583333 47.450035
v -30.020833 64.583333 47.450035
v -27.750000 64.583333 47.450035
v -25.479167 64.583333 47.450035
v -23.208333 64.583333 47.450035
v -20.937500 64.583333 47.450035
v -18.666667 64.583333 47.450035
v -16.395833 64.583333 47.450035
v -14.125000 64.583333 47.450035
v -11.854167 64.583333 47.450035
v -9.583333 64.583333 47.450035
v -7.312500 64.583333 47.450035
v -5.041667 64.583333 47.450035
v -2.770833 64.583333 47.450035
v -0.500000 64.583333 47.450035
v 1.770833 64.583333 47.450035
v 4.041667 64.583333 47.450035
v 6.312500 64.583333 47.450035
v 8.583333 64.583333 47.450035
v 10.854167 64.583333 47.450035
v 13.125000 64.583333 47.450035
v 15.395833 64.583333 47.450035
v 17.666667 64.583333 47.450035
v 19.937500 64.583333 47.450035
v 22.208333 64.583333 47.450035
v 24.479167 64.583333 47.450035
v 26.750000 64.583333 47.450035
v 29.020833 64.583333 47.450035
v 31.291667 64.583333 47.450035
v 33.562500 64.583333 47.450035
v 35.833333 64.583333 47.450035
v 38.104167 64.583333 47.450035
v 40.375000 64.583333 47.450035
v 42.645833 64.583333 47.450035
v 44.916667 64.583333 47.450035
v 47.187500 64.583333 47.450035
v 49.458333 64.583333 47.450035
v 51.729167 64.583333 47.450035
v 54.000000 64.583333 47.450035
v -55.000000 66.666667 45.442222
v -52.729167 66.666667 45.442222
v -50.458333 66.666667 45.442222
v -48.187500 66.666667 45.442222
v -45.916667 66.666667 45.442222
v -43.645833 66.666667 45.442222
v -41.375000 66.666667 45.442222
v -39.104167 66.666667 45.442222
v -36.833333 66.666667 45.442222
v -34.562500 66.666667 45.442222
v -32.291667 66.666667 45.442222
v -30.020833 66.666667 45.442222
v -27.750000 66.666667 45.442222
v -25.479167 66.666667 45.442222
v -23.208333 66.666667 45.442222
v -20.937500 66.666667 45.442222
v -18.666667 66.666667 45.442222
v -16.395833 66.666667 45.442222
v -14.125000 66.666667 45.442222
v -11.854167 66.666667 45.442222
v -9.583333 66.666667 45.442222
v -7.312500 66.666667 45.442222
v -5.041667 66.666667 45.442222
v -2.770833 66.666667 45.442222
v -0.500000 66.666667 45.442222
v 1.770833 66.666667 45.442222
v 4.041667 66.666667 45.442222
v 6.312500 66.666667 45.442222
v 8.583333 66.666667 45.442222
v 10.854167 66.666667 45.442222
v 13.125000 66.666667 45.442222
v 15.395833 66.666667 45.442222
v 17.666667 66.666667 45.442222
v 19.937500 66.666667 45.442222
v 22.208333 66.666667 45.442222
v 24.479167 66.666667 45.442222
v 26.750000 66.666667 45.442222
v 29.020833 66.666667 45.442222
v 31.291667 66.666667 45.442222
v 33.562500 66.666667 45.442222
v 35.833333 66.666667 45.442222
v 38.104167 66.666667 45.442222
v 40.375000 66.666667 45.442222
v 42.645833 66.666667 45.442222
v 44.916667 66.666667 45.442222
v 47.187500 66.666667 45.442222
v 49.458333 66.666667 45.442222
v 51.729167 66.666667 45.442222
v 54.000000 66.666667 45.442222
v -55.000000 68.750000 43.477812
v -52.729167 68.750000 43.477812
v -50.458333 68.750000 43.477812
v -48.187500 68.750000 43.477812
v -45.916667 68.750000 43.477812
v -43.645833 68.750000 43.477812
v -41.375000 68.750000 43.477812
v -39.104167 68.750000 43.477812
v -36.833333 68.750000 43.477812
v -34.562500 68.750000 43.477812
v -32.291667 68.750000 43.477812
v -30.020833 68.750000 43.477812
v -27.750000 68.750000 43.477812
v -25.479167 68.750000 43.477812
v -23.208333 68.750000 43.477812
v -20.937500 68.750000 43.477812
v -18.666667 68.750000 43.477812
v -16.395833 68.750000 43.477812
v -14.125000 68.750000 43.477812
v -11.854167 68.750000 43.477812
v -9.583333 68.750000 43.477812
v -7.312500 68.750000 43.477812
v -5.041667 68.750000 43.477812
v -2.770833 68.750000 43.477812
v -0.500000 68.750000 43.477812
v 1.770833 68.750000 43.477812
v 4.041667 68.750000 43.477812
v 6.312500 68.750000 43.477812
v 8.583333 68.750000 43.477812
v 10.854167 68.750000 43.477812
v 13.125000 68.750000 43.477812
v 15.395833 68.750000 43.477812
v 17.666667 68.750000 43.477812
v 19.937500 68.750000 43.477812
v 22.208333 68.750000 43.477812
v 24.479167 68.750000 43.477812
v 26.750000 68.750000 43.477812
v 29.020833 68.750000 43.477812
v 31.291667 68.750000 43.477812
v 33.562500 68.750000 43.477812
v 35.833333 68.750000 43.477812
v 38.104167 68.750000 43.477812
v 40.375000 68.750000 43.477812
v 42.645833 68.750000 43.477812
v 44.916667 68.750000 43.477812
v 47.187500 68.750000 43.477812
v 49.458333 68.750000 43.477812
v 51.729167 68.750000 43.477812
v 54.000000 68.750000 43.477812
v -55.000000 70.833333 41.556806
v -52.729167 70.833333 41.556806
v -50.458333 70.833333 41.556806
v -48.187500 70.833333 41.556806
v -45.916667 70.833333 41.556806
v -43.645833 70.833333 41.556806
v -41.375000 70.833333 41.556806
v -39.104167 70.833333 41.556806
v -36.833333 70.833333 41.556806
v -34.562500 70.833333 41.556806
v -32.291667 70.833333 41.556806
v -30.020833 70.833333 41.556806
v -27.750000 70.833333 41.556806
v -25.479167 70.833333 41.556806
v -23.208333 70.833333 41.556806
v -20.937500 70.833333 41.556806
v -18.666667 70.833333 41.556806
v -16.395833 70.833333 41.556806
v -14.125000 70.833333 41.556806
v -11.854167 70.833333 41.556806
v -9.583333 70.833333 41.556806
v -7.312500 70.833333 41.556806
v -5.041667 70.833333 41.556806
v -2.770833 70.833333 41.556806
v -0.500000 70.833333 41.556806
v 1.770833 70.833333 41.556806
v 4.041667 70.833333 41.556806
v 6.312500 70.833333 41.556806
v 8.583333 70.833333 41.556806
v 10.854167 70.833333 41.556806
v 13.125000 70.833333 41.556806
v 15.395833 70.833333 41.556806
v 17.666667 70.833333 41.556806
v 19.937500 70.833333 41.556806
v 22.208333 70.833333 41.556806
v 24.479167 70.833333 41.556806
v 26.750000 70.833333 41.556806
v 29.020833 70.833333 41.556806
v 31.291667 70.833333 41.556806
v 33.562500 70.833333 41.556806
v 35.833333 70.833333 41.556806
v 38.104167 70.833333 41.556806
v 40.375000 70.833333 41.556806
v 42.645833 70.833333 41.556806
v 44.916667 70.833333 41.556806
v 47.187500 70.833333 41.556806
v 49.458333 70.833333 41.556806
v 51.729167 70.833333 41.556806
v 54.000000 70.833333 41.556806
v -55.000000 72.916667 39.679201
v -52.729167 72.916667 39.679201
v -50.458333 72.916667 39.679201
v -48.187500 72.916667 39.679201
v -45.916667 72.916667 39.679201
v -43.645833 72.916667 39.679201
v -41.375000 72.916667 39.679201
v -39.104167 72.916667 39.679201
v -36.833333 72.916667 39.679201
v -34.562500 72.916667 39.679201
v -32.291667 72.916667 39.679201
v -30.020833 72.916667 39.679201
v -27.750000 72.916667 39.679201
v -25.479167 72.916667 39.679201
v -23.208333 72.916667 39.679201
v -20.937500 72.916667 39.679201
v -18.666667 72.916667 39.679201
v -16.395833 72.916667 39.679201
v -14.125000 72.916667 39.679201
v -11.854167 72.916667 39.679201
v -9.583333 72.916667 39.679201
v -7.312500 72.916667 39.679201
v -5.041667 72.916667 39.679201
v -2.770833 72.916667 39.679201
v -0.500000 72.916667 39.679201
v 1.770833 72.916667 39.679201
v 4.041667 72.916667 39.679201
v 6.312500 72.916667 39.679201
v 8.583333 72.916667 39.679201
v 10.854167 72.916667 39.679201
v 13.125000 72.916667 39.679201
v 15.395833 72.916667 39.679201
v 17.666667 72.916667 39.679201
v 19.937500 72.916667 39.679201
v 22.208333 72.916667 39.679201
v 24.479167 72.916667 39.679201
v 26.750000 72.916667 39.679201
v 29.020833 72.916667 39.679201
v 31.291667 72.916667 39.679201
v 33.562500 72.916667 39.679201
v 35.833333 72.916667 39.679201
v 38.104167 72.916667 39.679201
v 40.375000 72.916667 39.679201
v 42.645833 72.916667 39.679201
v 44.916667 72.916667 39.679201
v 47.187500 72.916667 39.679201
v 49.458333 72.916667 39.679201
v 51.729167 72.916667 39.679201
v 54.000000 72.916667 39.679201
v -55.000000 75.000000 37.845000
v -52.729167 75.000000 37.845000
v -50.458333 75.000000 37.845000
v -48.187500 75.000000 37.845000
v -45.916667 75.000000 37.845000
v -43.645833 75.000000 37.845000
v -41.375000 75.000000 37.845000
v -39.104167 75.000000 37.845000
v -36.833333 75.000000 37.845000
v -34.562500 75.000000 37.845000
v -32.291667 75.000000 37.845000
v -30.020833 75.000000 37.845000
v -27.750000 75.000000 37.845000
v -25.479167 75.000000 37.845000
v -23.208333 75.000000 37.845000
v -20.937500 75.000000 37.845000
v -18.666667 75.000000 37.845000
v -16.395833 75.000000 37.845000
v -14.125000 75.000000 37.845000
v -11.854167 75.000000 37.845000
v -9.583333 75.000000 37.845000
v -7.312500 75.000000 37.845000
v -5.041667 75.000000 37.845000
v -2.770833 75.000000 37.845000
v -0.500000 75.000000 37.845000
v 1.770833 75.000000 37.845000
v 4.041667 75.000000 37.845000
v 6.312500 75.000000 37.845000
v 8.583333 75.000000 37.845000
v 10.854167 75.000000 37.845000
v 13.125000 75.000000 37.845000
v 15.395833 75.000000 37.845000
v 17.666667 75.000000 37.845000
v 19.937500 75.000000 37.845000
v 22.208333 75.000000 37.845000
v 24.479167 75.000000 37.845000
v 26.750000 75.000000 37.845000
v 29.020833 75.000000 37.845000
v 31.291667 75.000000 37.845000
v 33.562500 75.000000 37.845000
v 35.833333 75.000000 37.845000
v 38.104167 75.000000 37.845000
v 40.375000 75.000000 37.845000
v 42.645833 75.000000 37.845000
v 44.916667 75.000000 37.845000
v 47.187500 75.000000 37.845000
v 49.458333 75.000000 37.845000
v 51.729167 75.000000 37.845000
v 54.000000 75.000000 37.845000
v -55.000000 77.083333 36.054201
v -52.729167 77.083333 36.054201
v -50.458333 77.083333 36.054201
v -48.187500 77.083333 36.054201
v -45.916667 77.083333 36.054201
v -43.645833 77.083333 36.054201
v -41.375000 77.083333 36.054201
v -39.104167 77.083333 36.054201
v -36.833333 77.083333 36.054201
v -34.562500 77.083333 36.054201
v -32.291667 77.083333 36.054201
v -30.020833 77.083333 36.054201
v -27.750000 77.083333 36.054201
v -25.479167 77.083333 36.054201
v -23.208333 77.083333 36.054201
v -20.937500 77.083333 36.054201
v -18.666667 77.083333 36.054201
v -16.395833 77.083333 36.054201
v -14.125000 77.083333 36.054201
v -11.854167 77.083333 36.054201
v -9.583333 77.083333 36.054201
v -7.312500 77.083333 36.054201
v -5.041667 77.083333 36.054201
v -2.770833 77.083333 36.054201
v -0.500000 77.083333 36.054201
v 1.770833 77.083333 36.054201
v 4.041667 77.083333 36.054201
v 6.312500 77.083333 36.054201
v 8.583333 77.083333 36.054201
v 10.854167 77.083333 36.054201
v 13.125000 77.083333 36.054201
v 15.395833 77.083333 36.054201
v 17.666667 77.083333 36.054201
v 19.937500 77.083333 36.054201
v 22.208333 77.083333 36.054201
v 24.479167 77.083333 36.054201
v 26.750000 77.083333 36.054201
v 29.020833 77.083333 36.054201
v 31.291667 77.083333 36.054201
v 33.562500 77.083333 36.054201
v 35.833333 77.083333 36.054201
v 38.104167 77.083333 36.054201
v 40.375000 77.083333 36.054201
v 42.645833 77.083333 36.054201
v 44.916667 77.083333 36.054201
v 47.187500 77.083333 36.054201
v 49.458333 77.083333 36.054201
v 51.729167 77.083333 36.054201
v 54.000000 77.083333 36.054201
v -55.000000 79.166667 34.306806
v -52.729167 79.166667 34.306806
v -50.458333 79.166667 34.306806
v -48.187500 79.166667 34.306806
v -45.916667 79.166667 34.306806
v -43.645833 79.166667 34.306806
v -41.375000 79.166667 34.306806
v -39.104167 79.166667 34.306806
v -36.833333 79.166667 34.306806
v -34.562500 79.166667 34.306806
v -32.291667 79.166667 34.306806
v -30.020833 79.166667 34.306806
v -27.750000 79.166667 34.306806
v -25.479167 79.166667 34.306806
v -23.208333 79.166667 34.306806
v -20.937500 79.166667 34.306806
v -18.666667 79.166667 34.306806
v -16.395833 79.166667 34.306806
v -14.125000 79.166667 34.306806
v -11.854167 79.166667 34.306806
v -9.583333 79.166667 34.306806
v -7.312500 79.166667 34.306806
v -5.041667 79.166667 34.306806
v -2.770833 79.166667 34.306806
v -0.500000 79.166667 34.306806
v 1.770833 79.166667 34.306806
v 4.041667 79.166667 34.306806
v 6.312500 79.166667 34.306806
v 8.583333 79.166667 34.306806
v 10.854167 79.166667 34.306806
v 13.125000 79.166667 34.306806
v 15.395833 79.166667 34.306806
v 17.666667 79.166667 34.306806
v 19.937500 79.166667 34.306806
v 22.208333 79.166667 34.306806
v 24.479167 79.166667 34.306806
v 26.750000 79.166667 34.306806
v 29.020833 79.166667 34.306806
v 31.291667 79.166667 34.306806
v 33.562500 79.166667 34.306806
v 35.833333 79.166667 34.306806
v 38.104167 79.166667 34.306806
v 40.375000 79.166667 34.306806
v 42.645833 79.166667 34.306806
v 44.916667 79.166667 34.306806
v 47.187500 79.166667 34.306806
v 49.458333 79.166667 34.306806
v 51.729167 79.166667 34.306806
v 54.000000 79.166667 34.306806
v -55.000000 81.250000 32.602812
v -52.729167 81.250000 32.602812
v -50.458333 81.250000 32.602812
v -48.187500 81.250000 32.602812
v -45.916667 81.250000 32.602812
v -43.645833 81.250000 32.602812
v -41.375000 81.250000 32.602812
v -39.104167 81.250000 32.602812
v -36.833333 81.250000 32.602812
v -34.562500 81.250000 32.602812
v -32.291667 81.250000 32.602812
v -30.020833 81.250000 32.602812
v -27.750000 81.250000 32.602812
v -25.479167 81.250000 32.602812
v -23.208333 81.250000 32.602812
v -20.937500 81.250000 32.602812
v -18.666667 81.250000 32.602812
v -16.395833 81.250000 32.602812
v -14.125000 81.250000 32.602812
v -11.854167 81.250000 32.602812
v -9.583333 81.250000 32.602812
v -7.312500 81.250000 32.602812
v -5.041667 81.250000 32.602812
v -2.770833 81.250000 32.602812
v -0.500000 81.250000 32.602812
v 1.770833 81.250000 32.602812
v 4.041667 81.250000 32.602812
v 6.312500 81.250000 32.602812
v 8.583333 81.250000 32.602812
v 10.854167 81.250000 32.602812
v 13.125000 81.250000 32.602812
v 15.395833 81.250000 32.602812
v 17.666667 81.250000 32.602812
v 19.937500 81.250000 32.602812
v 22.208333 81.250000 32.602812
v 24.479167 81.250000 32.602812
v 26.750000 81.250000 32.602812
v 29.020833 81.250000 32.602812
v 31.291667 81.250000 32.602812
v 33.562500 81.250000 32.602812
v 35.833333 81.250000 32.602812
v 38.104167 81.250000 32.602812
v 40.375000 81.250000 32.602812
v 42.645833 81.250000 32.602812
v 44.916667 81.250000 32.602812
v 47.187500 81.250000 32.602812
v 49.458333 81.250000 32.602812
v 51.729167 81.250000 32.602812
v 54.000000 81.250000 32.602812
v -55.000000 83.333333 30.942222
v -52.729167 83.333333 30.942222
v -50.458333 83.333333 30.942222
v -48.187500 83.333333 30.942222
v -45.916667 83.333333 30.942222
v -43.645833 83.333333 30.942222
v -41.375000 83.333333 30.942222
v -39.104167 83.333333 30.942222
v -36.833333 83.333333 30.942222
v -34.562500 83.333333 30.942222
v -32.291667 83.333333 30.942222
v -30.020833 83.333333 30.942222
v -27.750000 83.333333 30.942222
v -25.479167 83.333333 30.942222
v -23.208333 83.333333 30.942222
v -20.937500 83.333333 30.942222
v -18.666667 83.333333 30.942222
v -16.395833 83.333333 30.942222
v -14.125000 83.333333 30.942222
v -11.854167 83.333333 30.942222
v -9.583333 83.333333 30.942222
v -7.312500 83.333333 30.942222
v -5.041667 83.333333 30.942222
v -2.770833 83.333333 30.942222
v -0.500000 83.333333 30.942222
v 1.770833 83.333333 30.942222
v 4.041667 83.333333 30.942222
v 6.312500 83.333333 30.942222
v 8.583333 83.333333 30.942222
v 10.854167 83.333333 30.942222
v 13.125000 83.333333 30.942222
v 15.395833 83.333333 30.942222
v 17.666667 83.333333 30.942222
v 19.937500 83.333333 30.942222
v 22.208333 83.333333 30.942222
v 24.479167 83.333333 30.942222
v 26.750000 83.333333 30.942222
v 29.020833 83.333333 30.942222
v 31.291667 83.333333 30.942222
v 33.562500 83.333333 30.942222
v 35.833333 83.333333 30.942222
v 38.104167 83.333333 30.942222
v 40.375000 83.333333 30.942222
v 42.645833 83.333333 30.942222
v 44.916667 83.333333 30.942222
v 47.187500 83.333333 30.942222
v 49.458333 83.333333 30.942222
v 51.729167 83.333333 30.942222
v 54.000000 83.333333 30.942222
v -55.000000 85.416667 29.325035
v -52.729167 85.416667 29.325035
v -50.458333 85.416667 29.325035
v -48.187500 85.416667 29.325035
v -45.916667 85.416667 29.325035
v -43.645833 85.416667 29.325035
v -41.375000 85.416667 29.325035
v -39.104167 85.416667 29.325035
v -36.833333 85.416667 29.325035
v -34.562500 85.416667 29.325035
v -32.291667 85.416667 29.325035
v -30.020833 85.416667 29.325035
v -27.750000 85.416667 29.325035
v -25.479167 85.416667 29.325035
v -23.208333 85.416667 29.325035
v -20.937500 85.416667 29.325035
v -18.666667 85.416667 29.325035
v -16.395833 85.416667 29.325035
v -14.125000 85.416667 29.325035
v -11.854167 85.416667 29.325035
v -9.583333 85.416667 29.325035
v -7.312500 85.416667 29.325035
v -5.041667 85.416667 29.325035
v -2.770833 85.416667 29.325035
v -0.500000 85.416667 29.325035
v 1.770833 85.416667 29.325035
v 4.041667 85.416667 29.325035
v 6.312500 85.416667 29.325035
v 8.583333 85.416667 29.325035
v 10.854167 85.416667 29.325035
v 13.125000 85.416667 29.325035
v 15.395833 85.416667 29.325035
v 17.666667 85.416667 29.325035
v 19.937500 85.416667 29.325035
v 22.208333 85.416667 29.325035
v 24.479167 85.416667 29.325035
v 26.750000 85.416667 29.325035
v 29.020833 85.416667 29.325035
v 31.291667 85.416667 29.325035
v 33.562500 85.416667 29.325035
v 35.833333 85.416667 29.325035
v 38.104167 85.416667 29.325035
v 40.375000 85.416667 29.325035
v 42.645833 85.416667 29.325035
v 44.916667 85.416667 29.325035
v 47.187500 85.416667 29.325035
v 49.458333 85.416667 29.325035
v 51.729167 85.416667 29.325035
v 54.000000 85.416667 29.325035
v -55.000000 87.500000 27.751250
v -52.729167 87.500000 27.751250
v -50.458333 87.500000 27.751250
v -48.187500 87.500000 27.751250
v -45.916667 87.500000 27.751250
v -43.645833 87.500000 27.751250
v -41.375000 87.500000 27.751250
v -39.104167 87.500000 27.751250
v -36.833333 87.500000 27.751250
v -34.562500 87.500000 27.751250
v -32.291667 87.500000 27.751250
v -30.020833 87.500000 27.751250
v -27.750000 87.500000 27.751250
v -25.479167 87.500000 27.751250
v -23.208333 87.500000 27.751250
v -20.937500 87.500000 27.751250
v -18.666667 87.500000 27.751250
v -16.395833 87.500000 27.751250
v -14.125000 87.500000 27.751250
v -11.854167 87.500000 27.751250
v -9.583333 87.500000 27.751250
v -7.312500 87.500000 27.751250
v -5.041667 87.500000 27.751250
v -2.770833 87.500000 27.751250
v -0.500000 87.500000 27.751250
v 1.770833 87.500000 27.751250
v 4.041667 87.500000 27.751250
v 6.312500 87.500000 27.751250
v 8.583333 87.500000 27.751250
v 10.854167 87.500000 27.751250
v 13.125000 87.500000 27.751250
v 15.395833 87.500000 27.751250
v 17.666667 87.500000 27.751250
v 19.937500 87.500000 27.751250
v 22.208333 87.500000 27.751250
v 24.479167 87.500000 27.751250
v 26.750000 87.500000 27.751250
v 29.020833 87.500000 27.751250
v 31.291667 87.500000 27.751250
v 33.562500 87.500000 27.751250
v 35.833333 87.500000 27.751250
v 38.104167 87.500000 27.751250
v 40.375000 87.500000 27.751250
v 42.645833 87.500000 27.751250
v 44.916667 87.500000 27.751250
v 47.187500 87.500000 27.751250
v 49.458333 87.500000 27.751250
v 51.729167 87.500000 27.751250
v 54.000000 87.500000 27.751250
v -55.000000 89.583333 26.220868
v -52.729167 89.583333 26.220868
v -50.458333 89.583333 26.220868
v -48.187500 89.583333 26.220868
v -45.916667 89.583333 26.220868
v -43.645833 89.583333 26.220868
v -41.375000 89.583333 26.220868
v -39.104167 89.583333 26.220868
v -36.833333 89.583333 26.220868
v -34.562500 89.583333 26.220868
v -32.291667 89.583333 26.220868
v -30.020833 89.583333 26.220868
v -27.750000 89.583333 26.220868
v -25.479167 89.583333 26.220868
v -23.208333 89.583333 26.220868
v -20.937500 89.583333 26.220868
v -18.666667 89.583333 26.220868
v -16.395833 89.583333 26.220868
v -14.125000 89.583333 26.220868
v -11.854167 89.583333 26.220868
v -9.583333 89.583333 26.220868
v -7.312500 89.583333 26.220868
v -5.041667 89.583333 26.220868
v -2.770833 89.583333 26.220868
v -0.500000 89.583333 26.220868
v 1.770833 89.583333 26.220868
v 4.041667 89.583333 26.220868
v 6.312500 89.583333 26.220868
v 8.583333 89.583333 26.220868
v 10.854167 89.583333 26.220868
v 13.125000 89.583333 26.220868
v 15.395833 89.583333 26.220868
v 17.666667 89.583333 26.220868
v 19.937500 89.583333 26.220868
v 22.208333 89.583333 26.220868
v 24.479167 89.583333 26.220868
v 26.750000 89.583333 26.220868
v 29.020833 89.583333 26.220868
v 31.291667 89.583333 26.220868
v 33.562500 89.583333 26.220868
v 35.833333 89.583333 26.220868
v 38.104167 89.583333 26.220868
v 40.375000 89.583333 26.220868
v 42.645833 89.583333 26.220868
v 44.916667 89.583333 26.220868
v 47.187500 89.583333 26.220868
v 49.458333 89.583333 26.220868
v 51.729167 89.583333 26.220868
v 54.000000 89.583333 26.220868
v -55.000000 91.666667 24.733889
v -52.729167 91.666667 24.733889
v -50.458333 91.666667 24.733889
v -48.187500 91.666667 24.733889
v -45.916667 91.666667 24.733889
v -43.645833 91.666667 24.733889
v -41.375000 91.666667 24.733889
v -39.104167 91.666667 24.733889
v -36.833333 91.666667 24.733889
v -34.562500 91.666667 24.733889
v -32.291667 91.666667 24.733889
v -30.020833 91.666667 24.733889
v -27.750000 91.666667 24.733889
v -25.479167 91.666667 24.733889
v -23.208333 91.666667 24.733889
v -20.937500 91.666667 24.733889
v -18.666667 91.666667 24.733889
v -16.395833 91.666667 24.733889
v -14.125000 91.666667 24.733889
v -11.854167 91.666667 24.733889
v -9.583333 91.666667 24.733889
v -7.312500 91.666667 24.733889
v -5.041667 91.666667 24.733889
v -2.770833 91.666667 24.733889
v -0.500000 91.666667 24.733889
v 1.770833 91.666667 24.733889
v 4.041667 91.666667 24.733889
v 6.312500 91.666667 24.733889
v 8.583333 91.666667 24.733889
v 10.854167 91.666667 24.733889
v 13.125000 91.666667 24.733889
v 15.395833 91.666667 24.733889
v 17.666667 91.666667 24.733889
v 19.937500 91.666667 24.733889
v 22.208333 91.666667 24.733889
v 24.479167 91.666667 24.733889
v 26.750000 91.666667 24.733889
v 29.020833 91.666667 24.733889
v 31.291667 91.666667 24.733889
v 33.562500 91.666667 24.733889
v 35.833333 91.666667 24.733889
v 38.104167 91.666667 24.733889
v 40.375000 91.666667 24.733889
v 42.645833 91.666667 24.733889
v 44.916667 91.666667 24.733889
v 47.187500 91.666667 24.733889
v 49.458333 91.666667 24.733889
v 51.729167 91.666667 24.733889
v 54.000000 91.666667 24.733889
v -55.000000 93.750000 23.290312
v -52.729167 93.750000 23.290312
v -50.458333 93.750000 23.290312
v -48.187500 93.750000 23.290312
v -45.916667 93.750000 23.290312
v -43.645833 93.750000 23.290312
v -41.375000 93.750000 23.290312
v -39.104167 93.750000 23.290312
v -36.833333 93.750000 23.290312
v -34.562500 93.750000 23.290312
v -32.291667 93.750000 23.290312
v -30.020833 93.750000 23.290312
v -27.750000 93.750000 23.290312
v -25.479167 93.750000 23.290312
v -23.208333 93.750000 23.290312
v -20.937500 93.750000 23.290312
v -18.666667 93.750000 23.290312
v -16.395833 93.750000 23.290312
v -14.125000 93.750000 23.290312
v -11.854167 93.750000 23.290312
v -9.583333 93.750000 23.290312
v -7.312500 93.750000 23.290312
v -5.041667 93.750000 23.290312
v -2.770833 93.750000 23.290312
v -0.500000 93.750000 23.290312
v 1.770833 93.750000 23.290312
v 4.041667 93.750000 23.290312
v 6.312500 93.750000 23.290312
v 8.583333 93.750000 23.290312
v 10.854167 93.750000 23.290312
v 13.125000 93.750000 23.290312
v 15.395833 93.750000 23.290312
v 17.666667 93.750000 23.290312
v 19.937500 93.750000 23.290312
v 22.208333 93.750000 23.290312
v 24.479167 93.750000 23.290312
v 26.750000 93.750000 23.290312
v 29.020833 93.750000 23.290312
v 31.291667 93.750000 23.290312
v 33.562500 93.750000 23.290312
v 35.833333 93.750000 23.290312
v 38.104167 93.750000 23.290312
v 40.375000 93.750000 23.290312
v 42.645833 93.750000 23.290312
v 44.916667 93.750000 23.290312
v 47.187500 93.750000 23.290312
v 49.458333 93.750000 23.290312
v 51.729167 93.750000 23.290312
v 54.000000 93.750000 23.290312
v -55.000000 95.833333 21.890139
v -52.729167 95.833333 21.890139
v -50.458333 95.833333 21.890139
v -48.187500 95.833333 21.890139
v -45.916667 95.833333 21.890139
v -43.645833 95.833333 21.890139
v -41.375000 95.833333 21.890139
v -39.104167 95.833333 21.890139
v -36.833333 95.833333 21.890139
v -34.562500 95.833333 21.890139
v -32.291667 95.833333 21.890139
v -30.020833 95.833333 21.890139
v -27.750000 95.833333 21.890139
v -25.479167 95.833333 21.890139
v -23.208333 95.833333 21.890139
v -20.937500 95.833333 21.890139
v -18.666667 95.833333 21.890139
v -16.395833 95.833333 21.890139
v -14.125000 95.833333 21.890139
v -11.854167 95.833333 21.890139
v -9.583333 95.833333 21.890139
v -7.312500 95.833333 21.890139
v -5.041667 95.833333 21.890139
v -2.770833 95.833333 21.890139
v -0.500000 95.833333 21.890139
v 1.770833 95.833333 21.890139
v 4.041667 95.833333 21.890139
v 6.312500 95.833333 21.890139
v 8.583333 95.833333 21.890139
v 10.854167 95.833333 21.890139
v 13.125000 95.833333 21.890139
v 15.395833 95.833333 21.890139
v 17.666667 95.833333 21.890139
v 19.937500 95.833333 21.890139
v 22.208333 95.833333 21.890139
v 24.479167 95.833333 21.890139
v 26.750000 95.833333 21.890139
v 29.020833 95.833333 21.890139
v 31.291667 95.833333 21.890139
v 33.562500 95.833333 21.890139
v 35.833333 95.833333 21.890139
v 38.104167 95.833333 21.890139
v 40.375000 95.833333 21.890139
v 42.645833 95.833333 21.890139
v 44.916667 95.833333 21.890139
v 47.187500 95.833333 21.890139
v 49.458333 95.833333 21.890139
v 51.729167 95.833333 21.890139
v 54.000000 95.833333 21.890139
v -55.000000 97.916667 20.533368
v -52.729167 97.916667 20.533368
v -50.458333 97.916667 20.533368
v -48.187500 97.916667 20.533368
v -45.916667 97.916667 20.533368
v -43.645833 97.916667 20.533368
v -41.375000 97.916667 20.533368
v -39.104167 97.916667 20.533368
v -36.833333 97.916667 20.533368
v -34.562500 97.916667 20.533368
v -32.291667 97.916667 20.533368
v -30.020833 97.916667 20.533368
v -27.750000 97.916667 20.533368
v -25.479167 97.916667 20.533368
v -23.208333 97.916667 20.533368
v -20.937500 97.916667 20.533368
v -18.666667 97.916667 20.533368
v -16.395833 97.916667 20.533368
v -14.125000 97.916667 20.533368
v -11.854167 97.916667 20.533368
v -9.583333 97.916667 20.533368
v -7.312500 97.916667 20.533368
v -5.041667 97.916667 20.533368
v -2.770833 97.916667 20.533368
v -0.500000 97.916667 20.533368
v 1.770833 97.916667 20.533368
v 4.041667 97.916667 20.533368
v 6.312500 97.916667 20.533368
v 8.583333 97.916667 20.533368
v 10.854167 97.916667 20.533368
v 13.125000 97.916667 20.533368
v 15.395833 97.916667 20.533368
v 17.666667 97.916667 20.533368
v 19.937500 97.916667 20.533368
v 22.208333 97.916667 20.533368
v 24.479167 97.916667 20.533368
v 26.750000 97.916667 20.533368
v 29.020833 97.916667 20.533368
v 31.291667 97.916667 20.533368
v 33.562500 97.916667 20.533368
v 35.833333 97.916667 20.533368
v 38.104167 97.916667 20.533368
v 40.375000 97.916667 20.533368
v 42.645833 97.916667 20.533368
v 44.916667 97.916667 20.533368
v 47.187500 97.916667 20.533368
v 49.458333 97.916667 20.533368
v 51.729167 97.916667 20.533368
v 54.000000 97.916667 20.533368
v -55.000000 100.000000 19.220000
v -52.729167 100.000000 19.220000
v -50.458333 100.000000 19.220000
v -48.187500 100.000000 19.220000
v -45.916667 100.000000 19.220000
v -43.645833 100.000000 19.220000
v -41.375000 100.000000 19.220000
v -39.104167 100.000000 19.220000
v -36.833333 100.000000 19.220000
v -34.562500 100.000000 19.220000
v -32.291667 100.000000 19.220000
v -30.020833 100.000000 19.220000
v -27.750000 100.000000 19.220000
v -25.479167 100.000000 19.220000
v -23.208333 100.000000 19.220000
v -20.937500 100.000000 19.220000
v -18.666667 100.000000 19.220000
v -16.395833 100.000000 19.220000
v -14.125000 100.000000 19.220000
v -11.854167 100.000000 19.220000
v -9.583333 100.000000 19.220000
v -7.312500 100.000000 19.220000
v -5.041667 100.000000 19.220000
v -2.770833 100.000000 19.220000
v -0.500000 100.000000 19.220000
v 1.770833 100.000000 19.220000
v 4.041667 100.000000 19.220000
v 6.312500 100.000000 19.220000
v 8.583333 100.000000 19.220000
v 10.854167 100.000000 19.220000
v 13.125000 100.000000 19.220000
v 15.395833 100.000000 19.220000
v 17.666667 100.000000 19.220000
v 19.937500 100.000000 19.220000
v 22.208333 100.000000 19.220000
v 24.479167 100.000000 19.220000
v 26.750000 100.000000 19.220000
v 29.020833 100.000000 19.220000
v 31.291667 100.000000 19.220000
v 33.562500 100.000000 19.220000
v 35.833333 100.000000 19.220000
v 38.104167 100.000000 19.220000
v 40.375000 100.000000 19.220000
v 42.645833 100.000000 19.220000
v 44.916667 100.000000 19.220000
v 47.187500 100.000000 19.220000
v 49.458333 100.000000 19.220000
v 51.729167 100.000000 19.220000
v 54.000000 100.000000 19.220000
f 786 787 836
f 786 836 835
f 787 788 837
f 787 837 836
f 788 789 838
f 788 838 837
f 789 790 839
f 789 839 838
f 790 791 840
f 790 840 839
f 791 792 841
f 791 841 840
f 792 793 842
f 792 842 841
f 793 794 843
f 793 843 842
f 794 795 844
f 794 844 843
f 795 796 845
f 795 845 844
f 796 797 846
f 796 846 845
f 797 798 847
f 797 847 846
f 798 799 848
f 798 848 847
f 799 800 849
f 799 849 848
f 800 801 850
f 800 850 849
f 801 802 851
f 801 851 850
f 802 803 852
f 802 852 851
f 803 804 853
f 803 853 852
f 804 805 854
f 804 854 853
f 805 806 855
f 805 855 854
f 806 807 856
f 806 856 855
f 807 808 857
f 807 857 856
f 808 809 858
f 808 858 857
f 809 810 859
f 809 859 858
f 810 811 860
f 810 860 859
f 811 812 861
f 811 861 860
f 812 813 862
f 812 862 861
f 813 814 863
f 813 863 862
f 814 815 864
f 814 864 863
f 815 816 865
f 815 865 864
f 816 817 866
f 816 866 865
f 817 818 867
f 817 867 866
f 818 819 868
f 818 868 867
f 819 820 869
f 819 869 868
f 820 821 870
f 820 870 869
f 821 822 871
f 821 871 870
f 822 823 872
f 822 872 871
f 823 824 873
f 823 873 872
f 824 825 874
f 824 874 873
f 825 826 875
f 825 875 874
f 826 827 876
f 826 876 875
f 827 828 877
f 827 877 876
f 828 829 878
f 828 878 877
f 829 830 879
f 829 879 878
f 830 831 880
f 830 880 879
f 831 832 881
f 831 881 880
f 835 836 885
f 835 885 884
f 836 837 886
f 836 886 885
f 837 838 887
f 837 887 886
f 838 839 888
f 838 888 887
f 839 840 889
f 839 889 888
f 840 841 890
f 840 890 889
f 841 842 891
f 841 891 890
f 842 843 892
f 842 892 891
f 843 844 893
f 843 893 892
f 844 845 894
f 844 894 893
f 845 846 895
f 845 895 894
f 846 847 896
f 846 896 895
f 847 848 897
f 847 897 896
f 848 849 898
f 848 898 897
f 849 850 899
f 849 899 898
f 850 851 900
f 850 900 899
f 851 852 901
f 851 901 900
f 852 853 902
f 852 902 901
f 853 854 903
f 853 903 902
f 854 855 904
f 854 904 903
f 855 856 905
f 855 905 904
f 856 857 906
f 856 906 905
f 857 858 907
f 857 907 906
f 858 859 908
f 858 908 907
f 859 860 909
f 859 909 908
f 860 861 910
f 860 910 909
f 861 862 911
f 861 911 910
f 862 863 912
f 862 912 911
f 863 864 913
f 863 913 912
f 864 865 914
f 864 914 913
f 865 866 915
f 865 915 914
f 866 867 916
f 866 916 915
f 867 868 917
f 867 917 916
f 868 869 918
f 868 918 917
f 869 870 919
f 869 919 918
f 870 871 920
f 870 920 919
f 871 872 921
f 871 921 920
f 872 873 922
f 872 922 921
f 873 874 923
f 873 923 922
f 874 875 924
f 874 924 923
f 875 876 925
f 875 925 924
f 876 877 926
f 876 926 925
f 877 878 927
f 877 927 926
f 878 879 928
f 878 928 927
f 879 880 929
f 879 929 928
f 880 881 930
f 880 930 929
f 884 885 934
f 884 934 933
f 885 886 935
f 885 935 934
f 886 887 936
f 886 936 935
f 887 888 937
f 887 937 936
f 888 889 938
f 888 938 937
f 889 890 939
f 889 939 938
f 890 891 940
f 890 940 939
f 891 892 941
f 891 941 940
f 892 893 942
f 892 942 941
f 893 894 943
f 893 943 942
f 894 895 944
f 894 944 943
f 895 896 945
f 895 945 944
f 896 897 946
f 896 946 945
f 897 898 947
f 897 947 946
f 898 899 948
f 898 948 947
f 899 900 949
f 899 949 948
f 900 901 950
f 900 950 949
f 901 902 951
f 901 951 950
f 902 903 952
f 902 952 951
f 903 904 953
f 903 953 952
f 904 905 954
f 904 954 953
f 905 906 955
f 905 955 954
f 906 907 956
f 906 956 955
f 907 908 957
f 907 957 956
f 908 909 958
f 908 958 957
f 909 910 959
f 909 959 958
f 910 911 960
f 910 960 959
f 911 912 961
f 911 961 960
f 912 913 962
f 912 962 961
f 913 914 963
f 913 963 962
f 914 915 964
f 914 964 963
f 915 916 965
f 915 965 964
f 916 917 966
f 916 966 965
f 917 918 967
f 917 967 966
f 918 919 968
f 918 968 967
f 919 920 969
f 919 969 968
f 920 921 970
f 920 970 969
f 921 922 971
f 921 971 970
f 922 923 972
f 922 972 971
f 923 924 973
f 923 973 972
f 924 925 974
f 924 974 973
f 925 926 975
f 925 975 974
f 926 927 976
f 926 976 975
f 927 928 977
f 927 977 976
f 928 929 978
f 928 978 977
f 929 930 979
f 929 979 978
f 933 934 983
f 933 983 982
f 934 935 984
f 934 984 983
f 935 936 985
f 935 985 984
f 936 937 986
f 936 986 985
f 937 938 987
f 937 987 986
f 938 939 988
f 938 988 987
f 939 940 989
f 939 989 988
f 940 941 990
f 940 990 989
f 941 942 991
f 941 991 990
f 942 943 992
f 942 992 991
f 943 944 993
f 943 993 992
f 944 945 994
f 944 994 993
f 945 946 995
f 945 995 994
f 946 947 996
f 946 996 995
f 947 948 997
f 947 997 996
f 948 949 998
f 948 998 997
f 949 950 999
f 949 999 998
f 950 951 1000
f 950 1000 999
f 951 952 1001
f 951 1001 1000
f 952 953 1002
f 952 1002 1001
f 953 954 1003
f 953 1003 1002
f 954 955 1004
f 954 1004 1003
f 955 956 1005
f 955 1005 1004
f 956 957 1006
f 956 1006 1005
f 957 958 1007
f 957 1007 1006
f 958 959 1008
f 958 1008 1007
f 959 960 1009
f 959 1009 1008
f 960 961 1010
f 960 1010 1009
f 961 962 1011
f 961 1011 1010
f 962 963 1012
f 962 1012 1011
f 963 964 1013
f 963 1013 1012
f 964 965 1014
f 964 1014 1013
f 965 966 1015
f 965 1015 1014
f 966 967 1016
f 966 1016 1015
f 967 968 1017
f 967 1017 1016
f 968 969 1018
f 968 1018 1017
f 969 970 1019
f 969 1019 1018
f 970 971 1020
f 970 1020 1019
f 971 972 1021
f 971 1021 1020
f 972 973 1022
f 972 1022 1021
f 973 974 1023
f 973 1023 1022
f 974 975 1024
f 974 1024 1023
f 975 976 1025
f 975 1025 1024
f 976 977 1026
f 976 1026 1025
f 977 978 1027
f 977 1027 1026
f 978 979 1028
f 978 1028 1027
f 982 983 1032
f 982 1032 1031
f 983 984 1033
f 983 1033 1032
f 984 985 1034
f 984 1034 1033
f 985 986 1035
f 985 1035 1034
f 986 987 1036
f 986 1036 1035
f 987 988 1037
f 987 1037 1036
f 988 989 1038
f 988 1038 1037
f 989 990 1039
f 989 1039 1038
f 990 991 1040
f 990 1040 1039
f 991 992 1041
f 991 1041 1040
f 992 993 1042
f 992 1042 1041
f 993 994 1043
f 993 1043 1042
f 994 995 1044
f 994 1044 1043
f 995 996 1045
f 995 1045 1044
f 996 997 1046
f 996 1046 1045
f 997 998 1047
f 997 1047 1046
f 998 999 1048
f 998 1048 1047
f 999 1000 1049
f 999 1049 1048
f 1000 1001 1050
f 1000 1050 1049
f 1001 1002 1051
f 1001 1051 1050
f 1002 1003 1052
f 1002 1052 1051
f 1003 1004 1053
f 1003 1053 1052
f 1004 1005 1054
f 1004 1054 1053
f 1005 1006 1055
f 1005 1055 1054
f 1006 1007 1056
f 1006 1056 1055
f 1007 1008 1057
f 1007 1057 1056
f 1008 1009 1058
f 1008 1058 1057
f 1009 1010 1059
f 1009 1059 1058
f 1010 1011 1060
f 1010 1060 1059
f 1011 1012 1061
f 1011 1061 1060
f 1012 1013 1062
f 1012 1062 1061
f 1013 1014 1063
f 1013 1063 1062
f 1014 1015 1064
f 1014 1064 1063
f 1015 1016 1065
f 1015 1065 1064
f 1016 1017 1066
f 1016 1066 1065
f 1017 1018 1067
f 1017 1067 1066
f 1018 1019 1068
f 1018 1068 1067
f 1019 1020 1069
f 1019 1069 1068
f 1020 1021 1070
f 1020 1070 1069
f 1021 1022 1071
f 1021 1071 1070
f 1022 1023 1072
f 1022 1072 1071
f 1023 1024 1073
f 1023 1073 1072
f 1024 1025 1074
f 1024 1074 1073
f 1025 1026 1075
f 1025 1075 1074
f 1026 1027 1076
f 1026 1076 1075
f 1027 1028 1077
f 1027 1077 1076
f 1031 1032 1081
f 1031 1081 1080
f 1032 1033 1082
f 1032 1082 1081
f 1033 1034 1083
f 1033 1083 1082
f 1034 1035 1084
f 1034 1084 1083
f 1035 1036 1085
f 1035 1085 1084
f 1036 1037 1086
f 1036 1086 1085
f 1037 1038 1087
f 1037 1087 1086
f 1038 1039 1088
f 1038 1088 1087
f 1039 1040 1089
f 1039 1089 1088
f 1040 1041 1090
f 1040 1090 1089
f 1041 1042 1091
f 1041 1091 1090
f 1042 1043 1092
f 1042 1092 1091
f 1043 1044 1093
f 1043 1093 1092
f 1044 1045 1094
f 1044 1094 1093
f 1045 1046 1095
f 1045 1095 1094
f 1046 1047 1096
f 1046 1096 1095
f 1047 1048 1097
f 1047 1097 1096
f 1048 1049 1098
f 1048 1098 1097
f 1049 1050 1099
f 1049 1099 1098
f 1050 1051 1100
f 1050 1100 1099
f 1051 1052 1101
f 1051 1101 1100
f 1052 1053 1102
f 1052 1102 1101
f 1053 1054 1103
f 1053 1103 1102
f 1054 1055 1104
f 1054 1104 1103
f 1055 1056 1105
f 1055 1105 1104
f 1056 1057 1106
f 1056 1106 1105
f 1057 1058 1107
f 1057 1107 1106
f 1058 1059 1108
f 1058 1108 1107
f 1059 1060 1109
f 1059 1109 1108
f 1060 1061 1110
f 1060 1110 1109
f 1061 1062 1111
f 1061 1111 1110
f 1062 1063 1112
f 1062 1112 1111
f 1063 1064 1113
f 1063 1113 1112
f 1064 1065 1114
f 1064 1114 1113
f 1065 1066 1115
f 1065 1115 1114
f 1066 1067 1116
f 1066 1116 1115
f 1067 1068 1117
f 1067 1117 1116
f 1068 1069 1118
f 1068 1118 1117
f 1069 1070 1119
f 1069 1119 1118
f 1070 1071 1120
f 1070 1120 1119
f 1071 1072 1121
f 1071 1121 1120
f 1072 1073 1122
f 1072 1122 1121
f 1073 1074 1123
f 1073 1123 1122
f 1074 1075 1124
f 1074 1124 1123
f 1075 1076 1125
f 1075 1125 1124
f 1076 1077 1126
f 1076 1126 1125
